<svg id="_024-like" data-name="024-like" xmlns="http://www.w3.org/2000/svg" width="50.037" height="50.776" viewBox="0 0 50.037 50.776">
  <g id="Group_146" data-name="Group 146" transform="translate(11.669)">
    <g id="Group_145" data-name="Group 145">
      <path id="Path_74" data-name="Path 74" d="M158.445,19.07a6.675,6.675,0,0,0-4.4-2.658,6.842,6.842,0,0,0-1.072-.076H141.825V9.052A9.062,9.062,0,0,0,132.773,0,2.051,2.051,0,0,0,130.9,1.218l-9.335,21a2.052,2.052,0,0,0-.177.833V48.725a2.051,2.051,0,0,0,2.051,2.051h26.377a6.719,6.719,0,0,0,6.642-5.708l3.221-21.006A6.675,6.675,0,0,0,158.445,19.07Zm-2.823,4.374L152.4,44.45a2.628,2.628,0,0,1-2.587,2.224H125.489V23.49l8.544-19.225a4.959,4.959,0,0,1,3.689,4.787v9.335a2.051,2.051,0,0,0,2.051,2.051h13.232a2.667,2.667,0,0,1,.422.029,2.616,2.616,0,0,1,2.194,2.976Z" transform="translate(-121.387 0)" fill="#868eae"/>
    </g>
  </g>
  <g id="Group_148" data-name="Group 148" transform="translate(0 21.003)">
    <g id="Group_147" data-name="Group 147">
      <path id="Path_75" data-name="Path 75" d="M17.448,237.456h-7A2.619,2.619,0,0,1,7.83,234.84V218.5a2.619,2.619,0,0,1,2.616-2.616h7a2.051,2.051,0,0,0,0-4.1h-7A6.726,6.726,0,0,0,3.728,218.5V234.84a6.726,6.726,0,0,0,6.719,6.719h7a2.051,2.051,0,0,0,0-4.1Z" transform="translate(-3.728 -211.786)" fill="#868eae"/>
    </g>
  </g>
</svg>
