<svg id="_155-credit-card" data-name="155-credit-card" xmlns="http://www.w3.org/2000/svg" width="50.033" height="38.436" viewBox="0 0 50.033 38.436">
  <path id="Path_442" data-name="Path 442" d="M44.327,59.3H5.7A5.7,5.7,0,0,0,0,65V92.04a5.7,5.7,0,0,0,5.7,5.7H44.337a5.7,5.7,0,0,0,5.7-5.7V65A5.717,5.717,0,0,0,44.327,59.3ZM3.654,68.572V64.986a2.031,2.031,0,0,1,2.032-2.032H44.327a2.031,2.031,0,0,1,2.032,2.032v3.586Zm40.673,25.51H5.7a2.031,2.031,0,0,1-2.032-2.032V72.236H46.379V92.049A2.06,2.06,0,0,1,44.327,94.082Z" transform="translate(0 -59.3)" fill="#20C997"/>
  <path id="Path_443" data-name="Path 443" d="M284.9,259H272.532a1.632,1.632,0,0,0,0,3.263H284.9a1.632,1.632,0,1,0,0-3.263Z" transform="translate(-244.433 -239.489)" fill="#20C997"/>
  <path id="Path_444" data-name="Path 444" d="M327.76,338.1h-7.728a1.632,1.632,0,1,0,0,3.263h7.728a1.632,1.632,0,1,0,0-3.263Z" transform="translate(-287.292 -310.861)" fill="#20C997"/>
  <path id="Path_445" data-name="Path 445" d="M91.613,259.479A1.643,1.643,0,0,0,90.46,259H82.732a1.634,1.634,0,0,0-1.632,1.632v7.728a1.634,1.634,0,0,0,1.632,1.632H93.547a1.635,1.635,0,0,0,1.632-1.632v-4.641a1.586,1.586,0,0,0-.479-1.153Zm.3,4.924v2.325H84.363v-4.455h5.422Z" transform="translate(-73.176 -239.489)" fill="#20C997"/>
</svg>
