<svg xmlns="http://www.w3.org/2000/svg" width="50.126" height="50.004" viewBox="0 0 50.126 50.004">
  <path id="address" d="M20.021,44.9v5.077l-1.228-.992a82.3,82.3,0,0,1-9.279-9.072C3.2,32.663,0,26.157,0,20.574V20.02a20.021,20.021,0,1,1,40.042,0v.553c0,.469-.025.945-.07,1.427l-3.915-3.572A16.115,16.115,0,0,0,3.906,20.02v.553c0,9.435,12.156,20.856,16.115,24.324Zm12.013-2.806h5.86v-5.86h-5.86ZM20.021,11.719a8.3,8.3,0,1,1-8.3,8.3A8.311,8.311,0,0,1,20.021,11.719Zm0,3.907a4.395,4.395,0,1,0,4.395,4.395A4.4,4.4,0,0,0,20.021,15.625ZM47.493,39.437l-1.1-1v6.272A5.3,5.3,0,0,1,41.1,50H28.73a5.3,5.3,0,0,1-5.3-5.3V38.436l-1.1,1L19.7,36.552,34.914,22.674,50.126,36.552Zm-5-4.566-7.574-6.909-7.574,6.909v9.835a1.391,1.391,0,0,0,1.39,1.39H41.1a1.391,1.391,0,0,0,1.39-1.39Zm0,0" transform="translate(0 0.001)" fill="#20C997"/>
</svg>
