<svg xmlns="http://www.w3.org/2000/svg" width="50" height="50" viewBox="0 0 50 50">
  <g id="adobe" transform="translate(0 3)">
    <ellipse id="Ellipse_208" data-name="Ellipse 208" cx="24.903" cy="25" rx="24.903" ry="25" transform="translate(0 -3)" fill="#d71207"/>
    <path id="Path_1273" data-name="Path 1273" d="M52.043,107.409a24.179,24.179,0,0,1-3.489,11.209h0a18.353,18.353,0,0,1-14.78,7.4H17.74a15.667,15.667,0,0,1-7.8-2.062,24.421,24.421,0,0,1-7.68-14.67A15.454,15.454,0,0,1,17.74,95.426a15.9,15.9,0,0,1,2.76.241,18.371,18.371,0,0,1,13.273-5.619A18.147,18.147,0,0,1,52.043,107.409Z" transform="translate(-2.043 -80.389)" fill="#fff"/>
    <g id="Group_1797" data-name="Group 1797" transform="translate(3.983 13.151)">
      <path id="Path_1274" data-name="Path 1274" d="M53.513,207.894a11.712,11.712,0,0,1-8.3-3.451l-.354-.354a11.761,11.761,0,0,1,0-16.632l.044-.044a11.761,11.761,0,0,1,16.632,0l4.822,4.822a1.564,1.564,0,1,1-2.212,2.212l-4.822-4.822a8.633,8.633,0,0,0-12.209,0l-.044.044a8.633,8.633,0,0,0,0,12.209l.354.354a8.6,8.6,0,0,0,8.769,2.109,1.564,1.564,0,0,1,.962,2.976A11.845,11.845,0,0,1,53.513,207.894Z" transform="translate(-41.416 -178.8)" fill="#d71207"/>
      <path id="Path_1275" data-name="Path 1275" d="M155.472,158.951a14.328,14.328,0,0,1-10.163-4.2l-7.459-7.459a1.564,1.564,0,1,1,2.212-2.212l7.459,7.459a11.245,11.245,0,1,0,1.765-17.345,1.564,1.564,0,1,1-1.723-2.61,14.373,14.373,0,1,1,7.909,26.369Z" transform="translate(-127.357 -130.222)" fill="#d71207"/>
    </g>
  </g>
</svg>
