<svg xmlns="http://www.w3.org/2000/svg" width="18" height="13.46" viewBox="0 0 18 13.46">
  <g id="collapse_icon" data-name="collapse icon" transform="translate(0 -73)">
    <g id="Group_3" data-name="Group 3" transform="translate(2.474 84.956)">
      <g id="Group_2" data-name="Group 2">
        <path id="Path_1" data-name="Path 1" d="M85.352,403.7H99.375a.752.752,0,1,0,0-1.5H85.352a.752.752,0,1,0,0,1.5Z" transform="translate(-84.6 -402.2)" fill="#adb4d2"/>
      </g>
    </g>
    <g id="Group_5" data-name="Group 5" transform="translate(0 78.978)">
      <g id="Group_4" data-name="Group 4">
        <path id="Path_2" data-name="Path 2" d="M.728,239.1H17.269a.752.752,0,0,0,0-1.5H.728a.752.752,0,0,0,0,1.5Z" transform="translate(0 -237.6)" fill="#adb4d2"/>
      </g>
    </g>
    <g id="Group_7" data-name="Group 7" transform="translate(5.742 73)">
      <g id="Group_6" data-name="Group 6">
        <path id="Path_3" data-name="Path 3" d="M175.352,74.5h10.754a.752.752,0,1,0,0-1.5h-10.75a.752.752,0,1,0,0,1.5Z" transform="translate(-174.6 -73)" fill="#adb4d2"/>
      </g>
    </g>
  </g>
</svg>
