<svg xmlns="http://www.w3.org/2000/svg" width="182" height="6" viewBox="0 0 182 6">
  <g id="Group_1318" data-name="Group 1318" transform="translate(-441 -521)">
    <circle id="Ellipse_95" data-name="Ellipse 95" cx="3" cy="3" r="3" transform="translate(441 521)" fill="#c5cae1" opacity="0.15"/>
    <circle id="Ellipse_95-2" data-name="Ellipse 95" cx="3" cy="3" r="3" transform="translate(457 521)" fill="#c5cae1" opacity="0.2"/>
    <circle id="Ellipse_95-3" data-name="Ellipse 95" cx="3" cy="3" r="3" transform="translate(473 521)" fill="#c5cae1" opacity="0.3"/>
    <circle id="Ellipse_95-4" data-name="Ellipse 95" cx="3" cy="3" r="3" transform="translate(489 521)" fill="#c5cae1" opacity="0.35"/>
    <circle id="Ellipse_95-5" data-name="Ellipse 95" cx="3" cy="3" r="3" transform="translate(505 521)" fill="#c5cae1" opacity="0.4"/>
    <circle id="Ellipse_95-6" data-name="Ellipse 95" cx="3" cy="3" r="3" transform="translate(521 521)" fill="#c5cae1" opacity="0.5"/>
    <circle id="Ellipse_95-7" data-name="Ellipse 95" cx="3" cy="3" r="3" transform="translate(537 521)" fill="#c5cae1" opacity="0.55"/>
    <circle id="Ellipse_95-8" data-name="Ellipse 95" cx="3" cy="3" r="3" transform="translate(553 521)" fill="#c5cae1" opacity="0.6"/>
    <circle id="Ellipse_95-9" data-name="Ellipse 95" cx="3" cy="3" r="3" transform="translate(569 521)" fill="#c5cae1" opacity="0.65"/>
    <circle id="Ellipse_95-10" data-name="Ellipse 95" cx="3" cy="3" r="3" transform="translate(585 521)" fill="#c5cae1" opacity="0.7"/>
    <circle id="Ellipse_95-11" data-name="Ellipse 95" cx="3" cy="3" r="3" transform="translate(601 521)" fill="#c5cae1" opacity="0.8"/>
    <circle id="Ellipse_95-12" data-name="Ellipse 95" cx="3" cy="3" r="3" transform="translate(617 521)" fill="#c5cae1" opacity="0.9"/>
  </g>
</svg>
