<svg xmlns="http://www.w3.org/2000/svg" width="178.952" height="107.143" viewBox="0 0 178.952 107.143">
  <g id="Cloud" transform="translate(154 -225)">
    <g id="Group_9303" data-name="Group 9303" transform="translate(-253 129)">
      <path id="Path_11652" data-name="Path 11652" d="M257.977,159.868A33.995,33.995,0,0,0,218.466,119.3c-.871-.162-1.75-.013-2.642-.107A39.821,39.821,0,0,0,179.357,96H166.819a39.845,39.845,0,0,0-40.088,39.8c0,.3.015.445.022.74a33.553,33.553,0,0,0,6.156,66.6h123.1a21.672,21.672,0,0,0,1.966-43.276Z" fill="#407bff"/>
      <path id="Path_11653" data-name="Path 11653" d="M257.977,159.868A33.995,33.995,0,0,0,218.466,119.3c-.871-.162-1.75-.013-2.642-.107A39.821,39.821,0,0,0,179.357,96H166.819a39.845,39.845,0,0,0-40.088,39.8c0,.3.015.445.022.74a33.553,33.553,0,0,0,6.156,66.6h123.1a21.672,21.672,0,0,0,1.966-43.276Z" fill="#fff" opacity="0.5" style="isolation: isolate"/>
      <path id="Path_11654" data-name="Path 11654" d="M256.439,159.868A33.995,33.995,0,0,0,216.928,119.3c-.871-.162-1.75-.013-2.642-.107A39.821,39.821,0,0,0,177.819,96h0a39.845,39.845,0,0,0-40.088,39.8c0,.3.015.445.022.74a33.553,33.553,0,0,0,6.156,66.6H254.473a21.672,21.672,0,0,0,1.966-43.276Z" transform="translate(1.538)" fill="#fff" opacity="0.4" style="isolation: isolate"/>
    </g>
  </g>
</svg>
