<?xml version="1.0"?>
<svg xmlns="http://www.w3.org/2000/svg" xmlns:xlink="http://www.w3.org/1999/xlink" version="1.1" id="Capa_1" x="0px" y="0px" viewBox="0 0 512 512" style="enable-background:new 0 0 512 512;" xml:space="preserve" class=""><g><path style="fill:#20C997;" d="M480,80H176c-4.256,0-8.32,1.696-11.328,4.672L144,105.376l-20.672-20.704  C120.32,81.696,116.256,80,112,80H32C14.368,80,0,94.368,0,112v288c0,17.664,14.368,32,32,32h80c4.256,0,8.32-1.696,11.328-4.672  L144,406.624l20.672,20.672C167.68,430.304,171.744,432,176,432h304c17.664,0,32-14.336,32-32V112C512,94.368,497.664,80,480,80z" data-original="#4CAF50" class=""/><g>
	<path style="fill:#FFFFFF" d="M272,240c-26.464,0-48-21.536-48-48s21.536-48,48-48s48,21.536,48,48S298.464,240,272,240z M272,176   c-8.832,0-16,7.168-16,16s7.168,16,16,16s16-7.168,16-16S280.832,176,272,176z" data-original="#FAFAFA" class="active-path" data-old_color="#FAFAFA"/>
	<path style="fill:#FFFFFF" d="M368,368c-26.464,0-48-21.536-48-48s21.536-48,48-48s48,21.536,48,48S394.464,368,368,368z M368,304   c-8.8,0-16,7.2-16,16s7.2,16,16,16s16-7.2,16-16S376.8,304,368,304z" data-original="#FAFAFA" class="active-path" data-old_color="#FAFAFA"/>
	<path style="fill:#FFFFFF" d="M240,368c-3.616,0-7.232-1.216-10.24-3.712c-6.784-5.664-7.712-15.744-2.048-22.528l160-192   c5.696-6.816,15.776-7.648,22.528-2.048c6.784,5.664,7.68,15.744,2.016,22.56l-160,192C249.12,366.016,244.576,368,240,368z" data-original="#FAFAFA" class="active-path" data-old_color="#FAFAFA"/>
	<rect x="128" y="144" style="fill:#FFFFFF" width="32" height="32" data-original="#FAFAFA" class="active-path" data-old_color="#FAFAFA"/>
	<rect x="128" y="336" style="fill:#FFFFFF" width="32" height="32" data-original="#FAFAFA" class="active-path" data-old_color="#FAFAFA"/>
	<rect x="128" y="272" style="fill:#FFFFFF" width="32" height="32" data-original="#FAFAFA" class="active-path" data-old_color="#FAFAFA"/>
	<rect x="128" y="208" style="fill:#FFFFFF" width="32" height="32" data-original="#FAFAFA" class="active-path" data-old_color="#FAFAFA"/>
</g></g> </svg>
