<svg xmlns="http://www.w3.org/2000/svg" width="20.025" height="20.707" viewBox="0 0 20.025 20.707">
  <g id="dashboard" transform="translate(-5.956 -5.812)">
    <g id="Group_1441" data-name="Group 1441" transform="translate(12.767 22.395)">
      <path id="Path_974" data-name="Path 974" d="M217.919,374.61a.825.825,0,0,1-.824.824h-3.056a.824.824,0,1,1,0-1.649h3.056A.824.824,0,0,1,217.919,374.61Z" transform="translate(-212.365 -373.786)" fill="#ff69a5"/>
      <path id="Path_975" data-name="Path 975" d="M204.173,419.635a.825.825,0,0,1-.824.824h-4.755a.824.824,0,0,1,0-1.649h4.755A.824.824,0,0,1,204.173,419.635Z" transform="translate(-197.77 -416.336)" fill="#ff69a5"/>
    </g>
    <g id="Group_1442" data-name="Group 1442" transform="translate(15.969 22.395)">
      <path id="Path_976" data-name="Path 976" d="M257.528,375.435H256v-1.649h1.528a.824.824,0,0,1,0,1.649Z" transform="translate(-256 -373.786)" fill="#ff69a5"/>
      <path id="Path_977" data-name="Path 977" d="M259.2,419.635a.825.825,0,0,1-.824.824H256v-1.649h2.378A.824.824,0,0,1,259.2,419.635Z" transform="translate(-256 -416.336)" fill="#ff69a5"/>
    </g>
    <path id="Path_978" data-name="Path 978" d="M153.025,252.034a.825.825,0,0,1-.326-1.582l3.777-1.623a.824.824,0,1,1,.651,1.515l-3.777,1.623A.822.822,0,0,1,153.025,252.034Z" transform="translate(-141.938 -233.24)" fill="#ff69a5"/>
    <path id="Path_979" data-name="Path 979" d="M224.761,220.578a1.93,1.93,0,1,1-1.93-1.93A1.932,1.932,0,0,1,224.761,220.578Z" transform="translate(-206.863 -204.782)" fill="#ff69a5"/>
    <path id="Path_980" data-name="Path 980" d="M256,222.507v-3.86a1.93,1.93,0,0,1,0,3.86Z" transform="translate(-240.031 -204.781)" fill="#ff69a5"/>
    <path id="Path_981" data-name="Path 981" d="M93.906,82.158a9.971,9.971,0,0,1-2.726,6.867.82.82,0,0,1-.6.259h-.005a.822.822,0,0,1-.583-.242L88.64,87.69a.824.824,0,0,1,1.166-1.166l.723.724a8.316,8.316,0,0,0,1.688-4.281H91.123a.824.824,0,1,1,0-1.649h1.092a8.329,8.329,0,0,0-1.841-4.442l-.74.74a.824.824,0,0,1-1.166-1.166l.744-.744a8.329,8.329,0,0,0-4.5-1.874V74.88a.824.824,0,0,1-.824.824h-.006a.825.825,0,0,1-.818-.824V73.834A8.329,8.329,0,0,0,78.6,75.689l.762.763a.824.824,0,1,1-1.166,1.166l-.763-.763A8.329,8.329,0,0,0,75.573,81.3h1.044a.824.824,0,0,1,0,1.649H75.568A8.339,8.339,0,0,0,77.147,87.1l.707-.707a.824.824,0,0,1,1.166,1.166l-1.293,1.293a.859.859,0,0,1-.084.09.823.823,0,0,1-1.132-.024L76.5,88.91,76.5,88.9l-.018-.017a9.989,9.989,0,0,1-2.6-6.728v-.029s0-.006,0-.009a10.024,10.024,0,0,1,10.006-9.975h.006A10.023,10.023,0,0,1,93.906,82.158Z" transform="translate(-67.925 -66.333)" fill="#ff69a5"/>
    <path id="Path_982" data-name="Path 982" d="M265.91,82.158a9.971,9.971,0,0,1-2.726,6.867.82.82,0,0,1-.6.259h-.005a.822.822,0,0,1-.583-.242l-1.351-1.351a.824.824,0,0,1,1.166-1.166l.723.724a8.315,8.315,0,0,0,1.688-4.281h-1.095a.824.824,0,0,1,0-1.649h1.092a8.329,8.329,0,0,0-1.841-4.442l-.74.74a.824.824,0,1,1-1.166-1.166l.744-.744a8.329,8.329,0,0,0-4.5-1.874v1.046a.824.824,0,0,1-.824.824h-.006v-3.56h.006A10.023,10.023,0,0,1,265.91,82.158Z" transform="translate(-239.929 -66.334)" fill="#ff69a5"/>
  </g>
</svg>
