<svg xmlns="http://www.w3.org/2000/svg" xmlns:xlink="http://www.w3.org/1999/xlink" width="275" height="186.666" viewBox="0 0 275 186.666">
  <defs>
    <linearGradient id="linear-gradient" x1="0.5" x2="0.5" y2="1" gradientUnits="objectBoundingBox">
      <stop offset="0" stop-color="#5f63f2"/>
      <stop offset="1" stop-color="#ff69a5"/>
    </linearGradient>
  </defs>
  <g id="Group_1585" data-name="Group 1585" transform="translate(-340 -616.5)">
    <path id="Path_1010" data-name="Path 1010" d="M580.85,282.735s-27.8-9.3-23.618-33.439S570,217.378,564.125,204.6s-15.914-32.912-2.758-49.462,26.58-8.68,36.82-13.31,7.09-23.146,26.521-30.091,32.54,1.389,40.225,10.184,20.794-4.166,36.164-6.481,29.383-.926,40.232,15.276,31.926-2.778,49.867,9.722,7.625,35.646,9.167,46.294,24.829,8.433,28.781,38.242c3.508,26.46-4.513,57.755-37.948,57.755Z" transform="translate(-214.9 520.432)" fill="#5f63f2" opacity="0.05"/>
    <g id="Group_1584" data-name="Group 1584" transform="translate(404.603 616.5)">
      <path id="Path_521" data-name="Path 521" d="M2045.828,1564.455s.029-2.815-4.078-3.012c-4.717-.226-35.4-.425-35.4-.425l.2,2.995Z" transform="translate(-1992.736 -1431.411)" fill="#d6985e"/>
      <g id="Group_515" data-name="Group 515" transform="translate(0 52.37)">
        <g id="Group_511" data-name="Group 511" transform="translate(11.169 0)">
          <g id="Group_482" data-name="Group 482" transform="translate(50.472 60.681)">
            <path id="Path_522" data-name="Path 522" d="M1903.891,1474.176c.112-.435.054-1.107-1.394-1.868s-4.676-2.953-5.786-3.012a30.628,30.628,0,0,0-3.245.32c-.449-.01-1.314,2.8-1.314,2.8Z" transform="translate(-1892.152 -1469.29)" fill="#eea886"/>
          </g>
          <g id="Group_483" data-name="Group 483" transform="translate(19.361 37.246)">
            <path id="Path_523" data-name="Path 523" d="M1947.839,1333.1l9.675,17.852,19.849,4.791-1.923,4.719-21.333-1.422-10.468-16.373Z" transform="translate(-1943.64 -1333.103)" fill="#474bef"/>
          </g>
          <g id="Group_486" data-name="Group 486" transform="translate(74.79 112.953)">
            <g id="Group_485" data-name="Group 485">
              <g id="Group_484" data-name="Group 484">
                <path id="Path_524" data-name="Path 524" d="M1690.906,1766.32s4.439,1.754,6.422,2.363,9.245-.076,10.051.47.84,2.608-.327,2.969-9.841,2.235-12.865,1.967-8.347,1.52-9.617,1.288-1.381-6.479-1.113-7.919S1690.906,1766.32,1690.906,1766.32Z" transform="translate(-1683.337 -1766.294)" fill="#202338"/>
              </g>
            </g>
          </g>
          <g id="Group_489" data-name="Group 489" transform="translate(74.208 110.476)">
            <g id="Group_488" data-name="Group 488" transform="translate(0)">
              <g id="Group_487" data-name="Group 487">
                <path id="Path_525" data-name="Path 525" d="M1786.288,1751.478l1.021,2.5s-5.351,1.67-7.45,1.14l-.7-2.552Z" transform="translate(-1779.158 -1751.478)" fill="#292c47"/>
              </g>
            </g>
          </g>
          <g id="Group_492" data-name="Group 492" transform="translate(62.257 114.797)">
            <g id="Group_491" data-name="Group 491" transform="translate(0)">
              <g id="Group_490" data-name="Group 490">
                <path id="Path_526" data-name="Path 526" d="M1762.28,1777.732s4.187,2.235,6.079,3.061,9.189.953,9.921,1.585.506,2.683-.7,2.912-10.054,1.124-13.023.522-8.48.58-9.712.209-.555-6.587-.107-7.987S1762.28,1777.732,1762.28,1777.732Z" transform="translate(-1754.146 -1777.323)" fill="#292c47"/>
              </g>
            </g>
          </g>
          <g id="Group_495" data-name="Group 495" transform="translate(62.476 112.604)">
            <g id="Group_494" data-name="Group 494" transform="translate(0)">
              <g id="Group_493" data-name="Group 493">
                <path id="Path_527" data-name="Path 527" d="M1853.685,1764.207l.626,2.6s-5.524,1.063-7.541.3l-.374-2.612Z" transform="translate(-1846.396 -1764.207)" fill="#3d416b"/>
              </g>
            </g>
          </g>
          <g id="Group_496" data-name="Group 496" transform="translate(2.294 65.76)">
            <path id="Path_528" data-name="Path 528" d="M1801.566,1484.047s19.091.147,21.432.437c2.537.314,12.132.408,13.331,2,12.107,16.09,20.347,42.622,20.347,42.622l-9.568,1.65s-9.253-15.7-13.129-23.861c-3.48-7.324-6.457-9.206-13.765-9.045s-30.679-1.249-44.154-2.711Z" transform="translate(-1776.059 -1484.047)" fill="#202338"/>
          </g>
          <g id="Group_497" data-name="Group 497" transform="translate(1.927 21.045)">
            <path id="Path_529" data-name="Path 529" d="M2084.159,1243.478s1.873,7.718,1.414,11.972-7.685,14.921-8.029,17.29,1.633,7.266,1.633,7.266l-25.019,10.881a138.72,138.72,0,0,1,1.07-14.884c1.028-8.077,4.267-14.468,5.4-19.033a23.377,23.377,0,0,1,18.024-17.741Z" transform="translate(-2054.157 -1239.23)" fill="#cfbeb6"/>
          </g>
          <g id="Group_498" data-name="Group 498" transform="translate(1.927 65.39)">
            <path id="Path_530" data-name="Path 530" d="M1867.749,1481.834s19.662.147,22,.437c2.537.314,12.7.466,13.67,2.189,6.937,12.268,8.495,45.013,8.495,45.013l-8.925.945s-4.385-16.619-5.76-24.534-3.095-9.066-10.4-8.9-35.929,7.322-44.015-4.053Z" transform="translate(-1842.813 -1481.834)" fill="#292c47"/>
          </g>
          <g id="Group_499" data-name="Group 499" transform="translate(31.181 0.835)">
            <path id="Path_531" data-name="Path 531" d="M1975.815,1138.2s-.233,4.733-1.606,4.715c-1.134-.015-1.552,4.523-1.679,5.231s-2.155.13-2.765.288-4.621,4.071-6.159,3.39-6.709-6.505-7.377-9.248,2.892-11.419,6.2-14.061S1976.185,1129.915,1975.815,1138.2Z" transform="translate(-1956.147 -1127.715)" fill="#eea886"/>
          </g>
          <g id="Group_500" data-name="Group 500" transform="translate(27.358 6.314)">
            <path id="Path_532" data-name="Path 532" d="M2047.72,1175.336s-.236.38-.589.973c-.26.436-.585.988-.927,1.588a24.15,24.15,0,0,0-2.211,4.629c-.44,1.9-5.033-8.738-5.033-8.738a91.1,91.1,0,0,0,5.964-11.992C2047.564,1155.24,2047.72,1175.336,2047.72,1175.336Z" transform="translate(-2038.959 -1160.481)" fill="#eea886"/>
          </g>
          <g id="Group_501" data-name="Group 501" transform="translate(30.337)">
            <path id="Path_533" data-name="Path 533" d="M1959.779,1135.05s4.563-2.678,2.589-7.689-12.2-3.944-13.118-4.2-5.52-2.48-8.052,6.183-1.721,7.438-1.721,7.438,3.067-3.016,4.691-2.524c1.763.534,4.528,1.649,4.528,1.649s.8-4.106,3.2-3.4S1958.13,1133.112,1959.779,1135.05Z" transform="translate(-1939.353 -1122.72)" fill="#754836"/>
          </g>
          <g id="Group_502" data-name="Group 502" transform="translate(34.933 7.27)">
            <path id="Path_534" data-name="Path 534" d="M2027.474,1168.939c.109-.564.772-2.875-1.772-2.733s-2,5.513-1.713,5.739S2026.56,1173.682,2027.474,1168.939Z" transform="translate(-2023.736 -1166.2)" fill="#eea886"/>
          </g>
          <g id="Group_503" data-name="Group 503" transform="translate(31.525 16.555)">
            <path id="Path_535" data-name="Path 535" d="M2046.275,1227.314c-.26.437-.585.987-.927,1.588a33.527,33.527,0,0,1-3.078-7.175C2042.9,1223.436,2046.275,1227.314,2046.275,1227.314Z" transform="translate(-2042.271 -1221.727)" fill="#a77860"/>
          </g>
          <g id="Group_504" data-name="Group 504" transform="translate(37.127 20.506)">
            <path id="Path_536" data-name="Path 536" d="M2026.406,1247.657s-.033-1.577-.1-2.06,1.02-.157,1.221.405S2026.406,1247.657,2026.406,1247.657Z" transform="translate(-2026.299 -1245.362)" fill="#c98462"/>
          </g>
          <g id="Group_505" data-name="Group 505" transform="translate(37.104 21.199)">
            <path id="Path_537" data-name="Path 537" d="M1995.148,1245.269a3.032,3.032,0,0,1,.091,1.025s-.2.6-.311,1.036a2.775,2.775,0,0,0-.072.339,5.581,5.581,0,0,1-.348,1.856c-.331.777-2.012,4.159-2.012,4.159l-2.368-.658-1.862-.592s-1.466-5.338-1.246-6.1a2,2,0,0,1,.075-.212,7.473,7.473,0,0,1,.891-1.3c.064-.115.781-1.217,1.188-1.271a1.393,1.393,0,0,1,1.247.36,3.4,3.4,0,0,1,1.739.287,2.079,2.079,0,0,1,1.654.568S1994.867,1244.746,1995.148,1245.269Z" transform="translate(-1986.997 -1243.531)" fill="#de9d7d"/>
          </g>
          <g id="Group_506" data-name="Group 506" transform="translate(26.422 19.701)">
            <path id="Path_538" data-name="Path 538" d="M2056.614,1234.888s2.893,6.337,5.366,8.486l-1.167,3.77-5.646-11.53Z" transform="translate(-2055.166 -1234.888)" fill="#eddad3"/>
          </g>
          <g id="Group_507" data-name="Group 507" transform="translate(18.536 60.85)">
            <path id="Path_539" data-name="Path 539" d="M2099.3,1472.2s-.36-.906-.634-1.8-7.693,2.78-7.693,2.78l1.785,1.94Z" transform="translate(-2090.969 -1470.261)" fill="#323657"/>
          </g>
          <g id="Group_508" data-name="Group 508" transform="translate(0 21.242)">
            <path id="Path_540" data-name="Path 540" d="M2092.535,1258.344c-.707,1.36-1.381,2.741-2.021,4.132h0c-1.409,3.059-2.661,6.168-3.766,9.211q-.592,1.627-1.128,3.224a160.43,160.43,0,0,0-5.955,23.413s-15.93-3.983-18.31-5.956c0,0,3.883-53.006,26.422-53.138h0C2087.916,1239.429,2096.248,1251.2,2092.535,1258.344Z" transform="translate(-2061.354 -1239.23)" fill="#474bef"/>
          </g>
          <g id="Group_509" data-name="Group 509" transform="translate(14.477 39.205)">
            <path id="Path_541" data-name="Path 541" d="M2110.143,1360.047q-.592,1.626-1.128,3.224c-3.507-5.213-9.693-17.745-9.789-17.94Z" transform="translate(-2099.226 -1345.331)" fill="#375c23"/>
          </g>
          <g id="Group_510" data-name="Group 510" transform="translate(13.199 28.235)">
            <path id="Path_542" data-name="Path 542" d="M2021.314,1283.192l6.043,1.885-5.576,27.591a3.581,3.581,0,0,1-6.032,1.473c-5.205-5.484-13.456-14.63-17.065-21.087-5.475-9.8,3.661-13.207,5.854-10.739s11.874,19.111,11.874,19.111Z" transform="translate(-1996.961 -1281.543)" fill="#5f63f2"/>
          </g>
        </g>
        <path id="Path_543" data-name="Path 543" d="M1940.441,1206.2l9.361,27.088a2.422,2.422,0,0,1,.128.638l2.245,35.618,39.138.86,11.4,40.965a4.256,4.256,0,0,1-.63,3.625,3.186,3.186,0,0,1-2.2,1.428c-2.481.3-52.727,0-52.727,0v-2.049a1.881,1.881,0,0,1,1.912-1.849h46.973a2.553,2.553,0,0,0,1.995-.925,1.61,1.61,0,0,0,.4-1.267c-.207-1.306-10.235-34.682-10.235-34.682l-37.844-.662a3.206,3.206,0,0,1-3.195-3.016l-1.644-38.325a3.03,3.03,0,0,0-.12-.719l-7.65-25.9s-.8-1.805.672-1.98A1.635,1.635,0,0,1,1940.441,1206.2Z" transform="translate(-1937.535 -1191.263)" fill="#424240"/>
        <path id="Path_544" data-name="Path 544" d="M1505.811,1425.752v1.338h67.9v-1.338a2.138,2.138,0,0,0-1.994-2.258H1507.8A2.139,2.139,0,0,0,1505.811,1425.752Z" transform="translate(-1427.044 -1370.893)" fill="#d6985e"/>
        <path id="Rectangle_91" data-name="Rectangle 91" d="M3.083,0H20.518a0,0,0,0,1,0,0V3.083a0,0,0,0,1,0,0H0a0,0,0,0,1,0,0v0A3.083,3.083,0,0,1,3.083,0Z" transform="translate(122.3 121.401)" fill="#807066"/>
        <rect id="Rectangle_92" data-name="Rectangle 92" width="2.712" height="65.253" transform="translate(138.804 59.232)" fill="#807066"/>
        <rect id="Rectangle_93" data-name="Rectangle 93" width="2.712" height="65.253" transform="translate(133.356 59.232)" fill="#807066"/>
        <rect id="Rectangle_94" data-name="Rectangle 94" width="2.171" height="45.207" transform="translate(112.546 0.785)" fill="#6e6760"/>
        <g id="Group_512" data-name="Group 512" transform="translate(115.703 35.63)">
          <path id="Path_545" data-name="Path 545" d="M1601.964,1341.762H1613.9v-.68h-11.941a1.791,1.791,0,0,1-1.331-.413,1.051,1.051,0,0,1-.265-.78l0-.022v-14.515h-.724v14.479a1.708,1.708,0,0,0,.438,1.281A2.473,2.473,0,0,0,1601.964,1341.762Z" transform="translate(-1599.641 -1325.353)" fill="#918880"/>
        </g>
        <path id="Rectangle_95" data-name="Rectangle 95" d="M1.191,0H13.44a0,0,0,0,1,0,0V1.191a0,0,0,0,1,0,0H0a0,0,0,0,1,0,0v0A1.191,1.191,0,0,1,1.191,0Z" transform="translate(99.792 51.31)" fill="#6e6760"/>
        <path id="Path_546" data-name="Path 546" d="M1505.811,1427.09h39.09v-1.338a2.162,2.162,0,0,0-2.051-2.258h-30.918Z" transform="translate(-1398.234 -1370.893)" fill="#bc8551"/>
      </g>
      <g id="Group_1583" data-name="Group 1583" transform="translate(77.698 0)">
        <ellipse id="Ellipse_110" data-name="Ellipse 110" cx="3.5" cy="3" rx="3.5" ry="3" transform="translate(-0.302 53.924)" opacity="0.2" fill="url(#linear-gradient)"/>
        <circle id="Ellipse_111" data-name="Ellipse 111" cx="6.5" cy="6.5" r="6.5" transform="translate(9.698 38.924)" opacity="0.5" fill="url(#linear-gradient)"/>
        <path id="Path_1008" data-name="Path 1008" d="M916.276,89.427c.016-5.205-5.05-9.519-11.638-10.22a12.915,12.915,0,0,0-1.78-2.092,14.13,14.13,0,0,0-19.1-.1,12.343,12.343,0,0,0-3.93,7.665,9.718,9.718,0,0,0-6.2,5.429c-1.9,4.754,1.053,10.3,6.688,13.175a6,6,0,0,0,1.445,6.754,6.981,6.981,0,0,0,9.438.048,6.437,6.437,0,0,0,.621-.666,14.172,14.172,0,0,0,16.857-1.619,12.194,12.194,0,0,0,3.8-11.257A9.161,9.161,0,0,0,916.276,89.427Z" transform="translate(-854.993 -73.349)" fill="url(#linear-gradient)"/>
        <g id="Group_516" data-name="Group 516" transform="translate(33.908 10.511)">
          <path id="Path_563" data-name="Path 563" d="M1633.9,844.007a5.431,5.431,0,0,1,.424-2.194,3.752,3.752,0,0,1,1.751-1.7q.4-.224.982-.511a8.106,8.106,0,0,0,1.141-.685,4.043,4.043,0,0,0,.942-.935,2.064,2.064,0,0,0,.385-1.234,1.935,1.935,0,0,0-.212-.922,2.138,2.138,0,0,0-.557-.673,2.367,2.367,0,0,0-.809-.411,3.312,3.312,0,0,0-.942-.137,2.891,2.891,0,0,0-1.061.187,3.684,3.684,0,0,0-.862.474,4.123,4.123,0,0,0-.69.648,7.158,7.158,0,0,0-.517.685l-2.308-1.5a4.8,4.8,0,0,1,.915-1.371,5.554,5.554,0,0,1,1.3-1.01,6.324,6.324,0,0,1,1.579-.623,7.218,7.218,0,0,1,1.751-.212,7.372,7.372,0,0,1,1.99.274,5.175,5.175,0,0,1,1.765.872,4.58,4.58,0,0,1,1.274,1.533,4.741,4.741,0,0,1,.491,2.231,4.546,4.546,0,0,1-.2,1.408,3.818,3.818,0,0,1-.571,1.109,4.8,4.8,0,0,1-.875.9,9.94,9.94,0,0,1-1.141.773q-.531.3-1.061.573a6.444,6.444,0,0,0-.969.611,3.035,3.035,0,0,0-.716.773,1.931,1.931,0,0,0-.279,1.059Zm.053,5.808v-3.44h2.945v3.44Z" transform="translate(-1631.565 -831.893)" fill="#fff"/>
        </g>
      </g>
    </g>
  </g>
</svg>
