<svg xmlns="http://www.w3.org/2000/svg" width="121.729" height="107.075" viewBox="0 0 121.729 107.075">
  <g id="Group_1774" data-name="Group 1774" transform="translate(0 18.998)">
    <circle id="Ellipse_198" data-name="Ellipse 198" cx="9.773" cy="9.773" r="9.773" transform="translate(0 -7.178)" fill="#ff6584"/>
    <path id="Path_1209" data-name="Path 1209" d="M978.349,582.73a17.719,17.719,0,0,1-.828,4.9c-.012.037-.024.073-.036.11H974.4c0-.033.007-.07.01-.11.206-2.368,1.393-16.779-.026-19.243C974.5,568.584,978.588,575.206,978.349,582.73Z" transform="translate(-864.969 -517.262)" fill="#e6e6e6"/>
    <path id="Path_1210" data-name="Path 1210" d="M987.108,646.629c-.026.037-.053.074-.08.11h-2.317l.062-.11c.383-.691,1.516-2.757,2.568-4.9,1.13-2.3,2.167-4.69,2.08-5.555C989.448,636.372,990.23,642.316,987.108,646.629Z" transform="translate(-873.961 -576.264)" fill="#e6e6e6"/>
    <rect id="Rectangle_599" data-name="Rectangle 599" width="88.824" height="0.291" transform="translate(32.905 70.265)" fill="#e6e6e6"/>
    <path id="Path_1211" data-name="Path 1211" d="M822.844,690.432l.432-3.56,12.19-3.128-1.4-4.207c.977-2.8,2.692-4.175,5.825-2.8l5.39,3.348a3.44,3.44,0,0,1,1.62,3.108h0a3.438,3.438,0,0,1-1.957,2.922C838.906,688.971,831.216,690.065,822.844,690.432Z" transform="translate(-733.083 -611.094)" fill="#ffb8b8"/>
    <path id="Path_1212" data-name="Path 1212" d="M767.34,745.951l-3.776-.539-3.531.721A1.525,1.525,0,0,1,758.2,744.7h0a1.525,1.525,0,0,1,.606-1.282l5.534-4.169a2.5,2.5,0,0,1,3.236.2l1.378,1.327a5.126,5.126,0,0,0-2.157,2.8Q768.222,744.359,767.34,745.951Z" transform="translate(-676.824 -665.534)" fill="#2f2e41"/>
    <circle id="Ellipse_199" data-name="Ellipse 199" cx="3.492" cy="3.492" r="3.492" transform="translate(90.63 36.06)" fill="#ffb8b8"/>
    <path id="Path_1213" data-name="Path 1213" d="M846.054,497.5l-7.821,3.29c.636-3.191.952-6.1,0-7.875l5.016-.593C843,493.686,844.27,495.514,846.054,497.5Z" transform="translate(-746.477 -451.062)" fill="#ffb8b8"/>
    <path id="Path_1214" data-name="Path 1214" d="M760.623,620.576l-2.913-.216a71.79,71.79,0,0,1-2.3-20.891,3.63,3.63,0,0,1,3.7-3.412h0a3.626,3.626,0,0,1,2.417,1l3.767,3.584a15.5,15.5,0,0,1,3.816,5.682c1.067,2.794.684,4.36-1.863,4.094a6.284,6.284,0,0,1-4.092-2.175l-2.752-3.2Z" transform="translate(-674.314 -541.346)" fill="#ffb8b8"/>
    <path id="Path_1215" data-name="Path 1215" d="M763.193,779.51h0a2.492,2.492,0,0,1-2.2-3.291l.568-1.667.431-4.207c.665-1.356,1.606-1.153,2.7-.108.693-.068.842-.761.755-1.726l2.187,2.944a1.755,1.755,0,0,1,.188,1.775l-2.2,4.828A2.492,2.492,0,0,1,763.193,779.51Z" transform="translate(-679.139 -691.438)" fill="#2f2e41"/>
    <path id="Path_1216" data-name="Path 1216" d="M839.258,640.936c-3.991,2.265-5.242,2.331-9.223,3.937l-3.452-1.942c-4.054,1.5-6.9-.556-9.978-3.614,2.016-3.358,1.124-7.721,2.373-7.659l14.94,4.692.647,1.618Z" transform="translate(-727.653 -572.332)" fill="#2f2e41"/>
    <path id="Path_1217" data-name="Path 1217" d="M826.424,536.433c-5.275,2.283-10.955-.134-15.8-5.448l-3.21-12.964a1.082,1.082,0,0,1,.833-1.339l3.725-.745,1.834,2.913,3.668-3.236,3.9,1.273a3.007,3.007,0,0,1,2.027,2.337Z" transform="translate(-719.619 -471.334)" fill="#6c63ff"/>
    <path id="Path_1218" data-name="Path 1218" d="M881.43,721.19h0a1.9,1.9,0,0,1-.775-3.012l2.466-2.909,1.726.971-.889,3.623a1.9,1.9,0,0,1-2.528,1.326Z" transform="translate(-783.004 -645.1)" opacity="0.2"/>
    <path id="Path_1219" data-name="Path 1219" d="M881.43,717.863h0a1.905,1.905,0,0,1-.775-3.012l2.466-2.908,1.726.971-.889,3.623a1.9,1.9,0,0,1-2.528,1.326Z" transform="translate(-783.004 -642.205)" fill="#ffb8b8"/>
    <path id="Path_1220" data-name="Path 1220" d="M901.967,552.318l-2.589-1.726,3.775-10.032-1.4-14.131,1.279.8a5.977,5.977,0,0,1,2.688,3.868l2.074,10.111C906.884,545.868,905.372,549.969,901.967,552.318Z" transform="translate(-799.693 -480.747)" fill="#6c63ff"/>
    <path id="Path_1221" data-name="Path 1221" d="M776.661,555.922l1.294,6.472-1.065,3.785Z" transform="translate(-675.951 -500.37)" opacity="0.2"/>
    <path id="Path_1222" data-name="Path 1222" d="M828.029,440.636s-2.012-6.585,4.137-5.2a4.705,4.705,0,0,1,2.433,1.494.592.592,0,0,0,.463.189c.982,0,1.589,3.51-.375,5.054,0,0,.4-2.077-.328-2.785a1.564,1.564,0,0,1-.324-.418c-.474-.957-2.069-1.271-3.168-1.189-.561.042-.61,1.02-1.232.884-1.079-.237-1.586,1.012-1.657,2.053C827.958,440.625,827.968,440.482,828.029,440.636Z" transform="translate(-737.322 -401.384)" fill="#2f2e41"/>
    <path id="Path_1223" data-name="Path 1223" d="M845.326,550.384l-.041.3-.251,1.84-.412,3.013-.1.754a.24.24,0,0,1-.238.208h-2.744a.24.24,0,0,1-.238-.207l-.1-.755-.419-3.013-.256-1.841-.041-.3a.24.24,0,0,1,.238-.273h4.371a.24.24,0,0,1,.238.273Z" transform="translate(-748.429 -501.359)" fill="#e6e6e6"/>
    <path id="Path_1224" data-name="Path 1224" d="M712.33,497.33h3.806a.24.24,0,0,1,.24.24v.318a.24.24,0,0,1-.24.24H712.33a.24.24,0,0,1-.24-.24v-.317A.24.24,0,0,1,712.33,497.33Z" transform="translate(-619.752 -449.375)" fill="#3f3d56"/>
    <path id="Path_1225" data-name="Path 1225" d="M841.859,547.833a25.441,25.441,0,0,1-5.521,0,.24.24,0,0,1-.24-.24h0v-.318a.24.24,0,0,1,.24-.24,22.62,22.62,0,0,0,5.521,0,.24.24,0,0,1,.24.24v.318A.24.24,0,0,1,841.859,547.833Z" transform="translate(-744.618 -498.681)" fill="#3f3d56"/>
    <circle id="Ellipse_200" data-name="Ellipse 200" cx="1.037" cy="1.037" r="1.037" transform="translate(93.332 50.766)" fill="#fff"/>
    <path id="Path_1226" data-name="Path 1226" d="M838.358,579h0a1.9,1.9,0,0,1-2.339,2.049l-3.708-.89.089-1.978,3.635-.84A1.9,1.9,0,0,1,838.358,579Z" transform="translate(-741.322 -525.016)" fill="#ffb8b8"/>
    <path id="Path_1227" data-name="Path 1227" d="M756.052,532.626l-10.006.25a2.485,2.485,0,0,1-2.523-2.836h0a2.486,2.486,0,0,1,.763-1.464L749,524.169a6.291,6.291,0,0,1,3.139-1.589l1.651-.31.971,7.335-5.609-.647,6.58.755Z" transform="translate(-664.026 -477.127)" fill="#6c63ff"/>
    <path id="Path_1228" data-name="Path 1228" d="M561.44,756.96H535.894a.856.856,0,0,1-.857-.856h0a115.458,115.458,0,0,1,27.259,0h0A.856.856,0,0,1,561.44,756.96Z" transform="translate(-482.596 -679.937)" fill="#2f2e41"/>
    <path id="Path_1229" data-name="Path 1229" d="M562.3,639.824l-27.259-.05,3.159-5.316.015-.025V622.717a1.083,1.083,0,0,1,1.083-1.083h18.594a1.083,1.083,0,0,1,1.083,1.083v11.8Z" transform="translate(-482.597 -563.607)" fill="#3f3d56"/>
    <path id="Path_1230" data-name="Path 1230" d="M565.311,627.463a.353.353,0,0,0-.353.353V638.5a.353.353,0,0,0,.353.353H584.1a.353.353,0,0,0,.353-.353V627.816a.353.353,0,0,0-.353-.353Z" transform="translate(-508.637 -568.68)" fill="#fff"/>
    <path id="Path_1231" data-name="Path 1231" d="M561.081,726.161a.151.151,0,0,0-.137.088l-.973,2.116a.151.151,0,0,0,.137.214h20.471a.151.151,0,0,0,.135-.219l-1.058-2.116a.15.15,0,0,0-.135-.084Z" transform="translate(-504.285 -654.58)" fill="#2f2e41"/>
    <circle id="Ellipse_201" data-name="Ellipse 201" cx="0.227" cy="0.227" r="0.227" transform="translate(65.768 58.153)" fill="#fff"/>
    <path id="Path_1232" data-name="Path 1232" d="M621.394,747.921a.152.152,0,0,0-.146.112l-.244.907a.151.151,0,0,0,.146.19h4.644a.151.151,0,0,0,.143-.2l-.314-.907a.151.151,0,0,0-.143-.1Z" transform="translate(-557.411 -673.518)" fill="#2f2e41"/>
    <path id="Path_1233" data-name="Path 1233" d="M449.555,672.346v.2H428.781l.016-.025v-.176Z" transform="translate(-373.181 -601.697)" fill="#2f2e41"/>
    <path id="Path_1234" data-name="Path 1234" d="M491.435,543.725A22.711,22.711,0,0,0,492.5,550c.015.047.03.094.046.141H496.5c0-.042-.008-.089-.013-.141-.264-3.035-1.786-21.506.034-24.665C496.363,525.595,491.128,534.082,491.435,543.725Z" transform="translate(-444.637 -479.798)" fill="#e6e6e6"/>
    <path id="Path_1235" data-name="Path 1235" d="M473.011,625.626c.033.047.068.094.1.141h2.97l-.079-.141c-.491-.886-1.943-3.533-3.291-6.278-1.449-2.95-2.778-6.011-2.666-7.119C470.013,612.479,469.011,620.1,473.011,625.626Z" transform="translate(-425.916 -555.421)" fill="#e6e6e6"/>
    <path id="Path_1236" data-name="Path 1236" d="M529.329,213.023l1.61-1.287a1.706,1.706,0,0,0-1.975,1.084,2.742,2.742,0,0,0-2.04.126l3.221,1.169A2.437,2.437,0,0,0,529.329,213.023Z" transform="translate(-475.535 -206.845)" fill="#3f3d56"/>
    <path id="Path_1237" data-name="Path 1237" d="M903.213,161.918l1.61-1.287a1.706,1.706,0,0,0-1.975,1.084,2.742,2.742,0,0,0-2.04.126l3.221,1.169A2.437,2.437,0,0,0,903.213,161.918Z" transform="translate(-800.937 -162.366)" fill="#3f3d56"/>
    <path id="Path_1238" data-name="Path 1238" d="M831.732,293.673l1.61-1.287a1.706,1.706,0,0,0-1.975,1.084,2.742,2.742,0,0,0-2.04.126l3.221,1.169A2.438,2.438,0,0,0,831.732,293.673Z" transform="translate(-738.725 -277.037)" fill="#3f3d56"/>
    <ellipse id="Ellipse_202" data-name="Ellipse 202" cx="14.534" cy="29.655" rx="14.534" ry="29.655" transform="translate(4.994 -13.84) rotate(-10.221)" fill="#e6e6e6"/>
    <path id="Path_1239" data-name="Path 1239" d="M301.5,226.838q1.918,5.214,3.413,10.571t2.553,10.81q1.061,5.457,1.682,10.988t.794,11.079q.175,5.553-.1,11.107-.033.681-.074,1.361c-.027.464.7.463.723,0q.328-5.572.206-11.158-.123-5.554-.69-11.086-.568-5.549-1.575-11.041t-2.452-10.888q-1.444-5.391-3.321-10.654-.229-.642-.464-1.281C302.033,226.214,301.335,226.4,301.5,226.838Z" transform="translate(-279.317 -219.624)" fill="#3f3d56"/>
    <path id="Path_1240" data-name="Path 1240" d="M335.555,270.441l3.2-7.107.9-2a.372.372,0,0,0-.13-.494.364.364,0,0,0-.494.13l-3.2,7.107-.9,2a.372.372,0,0,0,.13.494A.364.364,0,0,0,335.555,270.441Z" transform="translate(-308.398 -249.552)" fill="#3f3d56"/>
    <path id="Path_1241" data-name="Path 1241" d="M279.649,349.053l-7.3-2.736-2.057-.771a.364.364,0,0,0-.444.252.369.369,0,0,0,.252.444l7.3,2.737,2.057.771a.364.364,0,0,0,.444-.252.369.369,0,0,0-.252-.444Z" transform="translate(-251.785 -323.308)" fill="#3f3d56"/>
    <path id="Path_1242" data-name="Path 1242" d="M301.672,663.005s8.79-2.89,16.978,0" transform="translate(-279.492 -598.496)" fill="#e6e6e6"/>
    <path id="Path_1243" data-name="Path 1243" d="M602.476,655.215c1.742-.018,3.483-.049,5.225-.073q.871-.012,1.742-.021a.389.389,0,0,0,0-.778c-1.742.018-3.484.049-5.225.073q-.871.012-1.742.021A.389.389,0,0,0,602.476,655.215Z" transform="translate(-540.963 -592.075)" fill="#6c63ff"/>
    <path id="Path_1244" data-name="Path 1244" d="M602.476,669.215l7.04-.073,2-.021a.389.389,0,0,0,0-.778l-7.04.073-2,.021A.389.389,0,0,0,602.476,669.215Z" transform="translate(-540.963 -604.259)" fill="#6c63ff"/>
    <path id="Path_1245" data-name="Path 1245" d="M602.476,683.215l7.04-.073,2-.021a.389.389,0,0,0,0-.778l-7.04.073-2,.021A.389.389,0,0,0,602.476,683.215Z" transform="translate(-540.963 -616.444)" fill="#6c63ff"/>
  </g>
</svg>
