<svg id="_119-photo-camera" data-name="119-photo-camera" xmlns="http://www.w3.org/2000/svg" width="14.004" height="11.663" viewBox="0 0 14.004 11.663">
  <g id="Group_676" data-name="Group 676" transform="translate(0 0)">
    <g id="Group_675" data-name="Group 675">
      <path id="Path_349" data-name="Path 349" d="M12.268,44.539H10.23l-1-1.5a.566.566,0,0,0-.471-.252H5.247a.566.566,0,0,0-.471.252l-1,1.5H1.736A1.738,1.738,0,0,0,0,46.275v6.436a1.738,1.738,0,0,0,1.736,1.736H12.268A1.738,1.738,0,0,0,14,52.712V46.275A1.738,1.738,0,0,0,12.268,44.539Zm.6,8.172a.605.605,0,0,1-.6.6H1.736a.605.605,0,0,1-.6-.6V46.275a.605.605,0,0,1,.6-.6h2.34a.566.566,0,0,0,.471-.252l1-1.5H8.455l1,1.5a.566.566,0,0,0,.471.252h2.34a.605.605,0,0,1,.6.6v6.436Z" transform="translate(0 -42.784)" fill="#868eae"/>
    </g>
  </g>
  <g id="Group_678" data-name="Group 678" transform="translate(4.096 3.511)">
    <g id="Group_677" data-name="Group 677">
      <path id="Path_350" data-name="Path 350" d="M152.654,171.141a2.906,2.906,0,1,0,2.906,2.906A2.909,2.909,0,0,0,152.654,171.141Zm0,4.681a1.775,1.775,0,1,1,1.775-1.775A1.777,1.777,0,0,1,152.654,175.822Z" transform="translate(-149.748 -171.141)" fill="#868eae"/>
    </g>
  </g>
</svg>
