<svg id="_104-cloud-computing-1" data-name="104-cloud-computing-1" xmlns="http://www.w3.org/2000/svg" width="16.115" height="13.424" viewBox="0 0 16.115 13.424">
  <g id="Group_612" data-name="Group 612" transform="translate(4.717 9.43)">
    <g id="Group_611" data-name="Group 611">
      <path id="Path_314" data-name="Path 314" d="M156.375,342.545a.651.651,0,0,0-.921,0l-2.231,2.231-2.231-2.231a.651.651,0,1,0-.921.921l2.692,2.692a.651.651,0,0,0,.921,0l2.692-2.692A.651.651,0,0,0,156.375,342.545Z" transform="translate(-149.88 -342.355)" fill="#868eae"/>
    </g>
  </g>
  <g id="Group_614" data-name="Group 614" transform="translate(7.409 6.065)">
    <g id="Group_613" data-name="Group 613">
      <path id="Path_315" data-name="Path 315" d="M236.053,235.45a.651.651,0,0,0-.651.651v6.057a.651.651,0,1,0,1.3,0V236.1A.651.651,0,0,0,236.053,235.45Z" transform="translate(-235.402 -235.45)" fill="#868eae"/>
    </g>
  </g>
  <g id="Group_616" data-name="Group 616" transform="translate(0 0)">
    <g id="Group_615" data-name="Group 615">
      <path id="Path_316" data-name="Path 316" d="M15.386,48.5A4.02,4.02,0,0,0,12.1,46.8h-.368A6.035,6.035,0,1,0,1.516,52.788a.651.651,0,0,0,.975-.863,4.733,4.733,0,1,1,8.128-4.313.651.651,0,0,0,.631.489H12.1a2.714,2.714,0,0,1,1.561,4.934.651.651,0,1,0,.749,1.065A4.021,4.021,0,0,0,15.386,48.5Z" transform="translate(0 -42.753)" fill="#868eae"/>
    </g>
  </g>
</svg>
