<svg xmlns="http://www.w3.org/2000/svg" width="198.959" height="107.075" viewBox="0 0 198.959 107.075">
  <g id="Group_1775" data-name="Group 1775" transform="translate(0)">
    <path id="Path_1246" data-name="Path 1246" d="M198.884,613.487h-.448a21.055,21.055,0,1,0-42.11,0h-.448a21.5,21.5,0,0,1,43.006,0Z" transform="translate(-155.878 -506.643)" fill="#3f3d56"/>
    <path id="Path_1247" data-name="Path 1247" d="M894.886,613.487h-.448a21.055,21.055,0,1,0-42.11,0h-.448a21.5,21.5,0,0,1,43.006,0Z" transform="translate(-695.982 -506.643)" fill="#3f3d56"/>
    <path id="Path_1248" data-name="Path 1248" d="M538.827,323.958h-.448a38.526,38.526,0,1,0-77.053,0h-.448a38.974,38.974,0,1,1,77.949,0Z" transform="translate(-392.561 -268.409)" fill="#3f3d56"/>
    <ellipse id="Ellipse_203" data-name="Ellipse 203" cx="8.5" cy="9" rx="8.5" ry="9" transform="translate(24)" fill="#ff6584"/>
    <path id="Path_1249" data-name="Path 1249" d="M153.891,248.669l15.2-18.1h29.885l18.263,17.788-.369.237H217v37h-63.09v-37Z" transform="translate(-119.421 -178.922)" fill="#3f3d56"/>
    <rect id="Rectangle_600" data-name="Rectangle 600" width="3.446" height="11.927" transform="translate(47.061 61.877) rotate(180)" fill="#3f3d56"/>
    <path id="Path_1250" data-name="Path 1250" d="M168.926,229.508l18.737,21.967v33.3H153.984V247.3Z" transform="translate(-119.493 -178.1)" fill="#6c63ff"/>
    <rect id="Rectangle_601" data-name="Rectangle 601" width="6.878" height="7.033" transform="translate(56.962 77.735)" fill="#3f3d56"/>
    <rect id="Rectangle_602" data-name="Rectangle 602" width="6.878" height="7.033" transform="translate(56.962 87.304)" fill="#3f3d56"/>
    <rect id="Rectangle_603" data-name="Rectangle 603" width="6.878" height="7.033" transform="translate(56.962 77.735)" fill="#fff"/>
    <rect id="Rectangle_604" data-name="Rectangle 604" width="6.878" height="7.033" transform="translate(56.962 87.304)" fill="#fff"/>
    <rect id="Rectangle_605" data-name="Rectangle 605" width="6.878" height="7.033" transform="translate(47.45 77.735)" fill="#3f3d56"/>
    <rect id="Rectangle_606" data-name="Rectangle 606" width="6.878" height="7.033" transform="translate(47.45 87.304)" fill="#3f3d56"/>
    <rect id="Rectangle_607" data-name="Rectangle 607" width="6.878" height="7.033" transform="translate(47.45 77.735)" fill="#fff"/>
    <rect id="Rectangle_608" data-name="Rectangle 608" width="6.878" height="7.033" transform="translate(47.45 87.304)" fill="#fff"/>
    <rect id="Rectangle_609" data-name="Rectangle 609" width="6.878" height="7.033" transform="translate(37.937 77.735)" fill="#3f3d56"/>
    <rect id="Rectangle_610" data-name="Rectangle 610" width="6.878" height="7.033" transform="translate(37.937 87.304)" fill="#3f3d56"/>
    <rect id="Rectangle_611" data-name="Rectangle 611" width="6.878" height="7.033" transform="translate(37.937 77.735)" fill="#fff"/>
    <rect id="Rectangle_612" data-name="Rectangle 612" width="6.878" height="7.033" transform="translate(37.937 87.304)" fill="#fff"/>
    <rect id="Rectangle_613" data-name="Rectangle 613" width="2" height="8" transform="translate(109 8)" fill="#6c63ff"/>
    <rect id="Rectangle_614" data-name="Rectangle 614" width="26" height="91" transform="translate(85 16)" fill="#6c63ff"/>
    <rect id="Rectangle_615" data-name="Rectangle 615" width="11" height="91" transform="translate(111 16)" fill="#3f3d56"/>
    <rect id="Rectangle_616" data-name="Rectangle 616" width="4.032" height="4.032" transform="translate(89.708 23.967)" fill="#fff"/>
    <rect id="Rectangle_617" data-name="Rectangle 617" width="4.032" height="4.032" transform="translate(96.204 23.967)" fill="#fff"/>
    <rect id="Rectangle_618" data-name="Rectangle 618" width="4.032" height="4.032" transform="translate(102.7 23.967)" fill="#fff"/>
    <rect id="Rectangle_619" data-name="Rectangle 619" width="5" height="4" transform="translate(89 33)" fill="#fff"/>
    <rect id="Rectangle_620" data-name="Rectangle 620" width="4" height="4" transform="translate(96 33)" fill="#fff"/>
    <rect id="Rectangle_621" data-name="Rectangle 621" width="5" height="4" transform="translate(102 33)" fill="#fff"/>
    <rect id="Rectangle_622" data-name="Rectangle 622" width="4.032" height="4.032" transform="translate(89.932 42.334)" fill="#fff"/>
    <rect id="Rectangle_623" data-name="Rectangle 623" width="4.032" height="4.032" transform="translate(96.428 42.334)" fill="#fff"/>
    <rect id="Rectangle_624" data-name="Rectangle 624" width="4.032" height="4.032" transform="translate(102.924 42.334)" fill="#fff"/>
    <rect id="Rectangle_625" data-name="Rectangle 625" width="5" height="5" transform="translate(89 51)" fill="#fff"/>
    <rect id="Rectangle_626" data-name="Rectangle 626" width="3" height="5" transform="translate(97 51)" fill="#fff"/>
    <rect id="Rectangle_627" data-name="Rectangle 627" width="4" height="5" transform="translate(103 51)" fill="#fff"/>
    <rect id="Rectangle_628" data-name="Rectangle 628" width="4.032" height="4.032" transform="translate(90.156 60.702)" fill="#fff"/>
    <rect id="Rectangle_629" data-name="Rectangle 629" width="4.032" height="4.032" transform="translate(96.652 60.702)" fill="#fff"/>
    <rect id="Rectangle_630" data-name="Rectangle 630" width="4.032" height="4.032" transform="translate(103.148 60.702)" fill="#fff"/>
    <rect id="Rectangle_631" data-name="Rectangle 631" width="4" height="4" transform="translate(90 70)" fill="#fff"/>
    <rect id="Rectangle_632" data-name="Rectangle 632" width="4" height="4" transform="translate(97 70)" fill="#fff"/>
    <rect id="Rectangle_633" data-name="Rectangle 633" width="5" height="4" transform="translate(103 70)" fill="#fff"/>
    <rect id="Rectangle_634" data-name="Rectangle 634" width="4.032" height="4.032" transform="translate(90.38 79.069)" fill="#fff"/>
    <rect id="Rectangle_635" data-name="Rectangle 635" width="4.032" height="4.032" transform="translate(96.876 79.069)" fill="#fff"/>
    <rect id="Rectangle_636" data-name="Rectangle 636" width="4.032" height="4.032" transform="translate(103.372 79.069)" fill="#fff"/>
    <rect id="Rectangle_637" data-name="Rectangle 637" width="5" height="3" transform="translate(90 89)" fill="#fff"/>
    <rect id="Rectangle_638" data-name="Rectangle 638" width="4" height="3" transform="translate(97 89)" fill="#fff"/>
    <rect id="Rectangle_639" data-name="Rectangle 639" width="4" height="7" transform="translate(97 100)" fill="#fff"/>
    <rect id="Rectangle_640" data-name="Rectangle 640" width="5" height="3" transform="translate(103 89)" fill="#fff"/>
    <rect id="Rectangle_641" data-name="Rectangle 641" width="1" height="8" transform="translate(111 8)" fill="#3f3d56"/>
    <rect id="Rectangle_642" data-name="Rectangle 642" width="3.136" height="4.646" transform="translate(142.234 48.83)" fill="#6c63ff"/>
    <rect id="Rectangle_643" data-name="Rectangle 643" width="26.655" height="53.765" transform="translate(118.491 53.078)" fill="#6c63ff"/>
    <rect id="Rectangle_644" data-name="Rectangle 644" width="10.752" height="53.765" transform="translate(145.146 53.078)" fill="#3f3d56"/>
    <rect id="Rectangle_645" data-name="Rectangle 645" width="4.032" height="4.032" transform="translate(123.755 60.702)" fill="#fff"/>
    <rect id="Rectangle_646" data-name="Rectangle 646" width="4.032" height="4.032" transform="translate(130.251 60.702)" fill="#fff"/>
    <rect id="Rectangle_647" data-name="Rectangle 647" width="4.032" height="4.032" transform="translate(136.746 60.702)" fill="#fff"/>
    <rect id="Rectangle_648" data-name="Rectangle 648" width="5" height="4" transform="translate(123 70)" fill="#fff"/>
    <rect id="Rectangle_649" data-name="Rectangle 649" width="3" height="4" transform="translate(131 70)" fill="#fff"/>
    <rect id="Rectangle_650" data-name="Rectangle 650" width="5" height="4" transform="translate(136 70)" fill="#fff"/>
    <rect id="Rectangle_651" data-name="Rectangle 651" width="4.032" height="4.032" transform="translate(123.979 79.069)" fill="#fff"/>
    <rect id="Rectangle_652" data-name="Rectangle 652" width="4.032" height="4.032" transform="translate(130.475 79.069)" fill="#fff"/>
    <rect id="Rectangle_653" data-name="Rectangle 653" width="4.032" height="4.032" transform="translate(136.97 79.069)" fill="#fff"/>
    <rect id="Rectangle_654" data-name="Rectangle 654" width="5" height="3" transform="translate(123 89)" fill="#fff"/>
    <rect id="Rectangle_655" data-name="Rectangle 655" width="3" height="3" transform="translate(131 89)" fill="#fff"/>
    <rect id="Rectangle_656" data-name="Rectangle 656" width="3" height="7" transform="translate(131 100)" fill="#fff"/>
    <rect id="Rectangle_657" data-name="Rectangle 657" width="3" height="3" transform="translate(138 89)" fill="#fff"/>
    <rect id="Rectangle_658" data-name="Rectangle 658" width="1.792" height="4.514" transform="translate(145.146 48.83)" fill="#3f3d56"/>
    <rect id="Rectangle_659" data-name="Rectangle 659" width="198.904" height="0.502" transform="translate(0.055 106.573)" fill="#3f3d56"/>
    <circle id="Ellipse_204" data-name="Ellipse 204" cx="5.833" cy="5.833" r="5.833" transform="translate(158.276 84.669)" fill="#6c63ff"/>
    <path id="Path_1251" data-name="Path 1251" d="M874.236,597.631a5.833,5.833,0,0,1-9.719,6.173,5.833,5.833,0,1,0,9.719-6.173Z" transform="translate(-705.788 -511.026)" opacity="0.2"/>
    <path id="Path_1252" data-name="Path 1252" d="M731.676,404.041h.016l.288,16.537h-.609Z" transform="translate(-567.551 -313.54)" fill="#3f3d56"/>
    <rect id="Rectangle_660" data-name="Rectangle 660" width="0.288" height="1.09" transform="translate(165.053 99.254) rotate(62.234)" fill="#3f3d56"/>
    <circle id="Ellipse_205" data-name="Ellipse 205" cx="8.87" cy="8.87" r="8.87" transform="translate(172.388 73.021)" fill="#6c63ff"/>
    <path id="Path_1253" data-name="Path 1253" d="M943.349,550.134a8.871,8.871,0,0,1-14.78,9.388,8.871,8.871,0,1,0,14.78-9.388Z" transform="translate(-755.493 -474.167)" opacity="0.2"/>
    <path id="Path_1254" data-name="Path 1254" d="M807.723,365.6h.025l.439,25.148h-.926Z" transform="translate(-626.441 -283.708)" fill="#3f3d56"/>
    <rect id="Rectangle_661" data-name="Rectangle 661" width="0.439" height="1.657" transform="translate(182.693 95.201) rotate(62.234)" fill="#3f3d56"/>
    <circle id="Ellipse_206" data-name="Ellipse 206" cx="5.833" cy="5.833" r="5.833" transform="translate(0.139 84.445)" fill="#6c63ff"/>
    <path id="Path_1255" data-name="Path 1255" d="M168.236,596.631a5.833,5.833,0,0,1-9.719,6.173,5.833,5.833,0,1,0,9.719-6.173Z" transform="translate(-157.926 -510.249)" opacity="0.2"/>
    <path id="Path_1256" data-name="Path 1256" d="M25.676,403.041h.016l.288,16.537h-.609Z" transform="translate(-19.689 -312.763)" fill="#3f3d56"/>
    <rect id="Rectangle_662" data-name="Rectangle 662" width="0.288" height="1.09" transform="translate(6.915 99.03) rotate(62.234)" fill="#3f3d56"/>
    <path id="Path_1257" data-name="Path 1257" d="M751.616,242.525l2.062-1.649a2.185,2.185,0,0,0-2.529,1.388,3.512,3.512,0,0,0-2.614.161l4.126,1.5A3.121,3.121,0,0,0,751.616,242.525Z" transform="translate(-615.785 -234.163)" fill="#3f3d56"/>
    <path id="Path_1258" data-name="Path 1258" d="M289.616,279.525l2.062-1.649a2.185,2.185,0,0,0-2.529,1.388,3.512,3.512,0,0,0-2.614.161l4.126,1.5A3.123,3.123,0,0,0,289.616,279.525Z" transform="translate(-257.269 -262.875)" fill="#3f3d56"/>
    <path id="Path_1259" data-name="Path 1259" d="M891.616,317.525l2.062-1.649a2.185,2.185,0,0,0-2.529,1.388,3.512,3.512,0,0,0-2.614.161l4.126,1.5A3.123,3.123,0,0,0,891.616,317.525Z" transform="translate(-724.426 -292.363)" fill="#3f3d56"/>
    <path id="Path_1260" data-name="Path 1260" d="M365.616,259.525l2.062-1.649a2.185,2.185,0,0,0-2.529,1.388,3.512,3.512,0,0,0-2.614.161l4.126,1.5A3.122,3.122,0,0,0,365.616,259.525Z" transform="translate(-316.246 -247.355)" fill="#3f3d56"/>
    <path id="Path_1261" data-name="Path 1261" d="M382.616,339.525l2.062-1.649a2.185,2.185,0,0,0-2.529,1.388,3.512,3.512,0,0,0-2.614.161l4.126,1.5A3.122,3.122,0,0,0,382.616,339.525Z" transform="translate(-329.438 -309.435)" fill="#3f3d56"/>
    <path id="Path_1262" data-name="Path 1262" d="M740.616,381.525l2.062-1.649a2.185,2.185,0,0,0-2.529,1.388,3.512,3.512,0,0,0-2.614.161l4.126,1.5A3.122,3.122,0,0,0,740.616,381.525Z" transform="translate(-607.249 -342.028)" fill="#3f3d56"/>
    <path id="Path_1263" data-name="Path 1263" d="M57.887,456H44v.448h2.166V460.7h.448v-4.256H55.05V460.7H55.5v-4.256h2.39Z" transform="translate(-34.144 -353.86)" fill="#3f3d56"/>
    <path id="Path_1264" data-name="Path 1264" d="M300.046,673.433a3.119,3.119,0,0,0-1.561.419,3.356,3.356,0,0,0-5.606,2.493H303.17A3.134,3.134,0,0,0,300.046,673.433Z" transform="translate(-262.191 -569.502)" fill="#3f3d56"/>
    <path id="Path_1265" data-name="Path 1265" d="M537.046,673.433a3.118,3.118,0,0,0-1.562.419,3.356,3.356,0,0,0-5.606,2.493H540.17A3.134,3.134,0,0,0,537.046,673.433Z" transform="translate(-446.105 -569.502)" fill="#3f3d56"/>
    <path id="Path_1266" data-name="Path 1266" d="M692.046,673.433a3.118,3.118,0,0,0-1.561.419,3.356,3.356,0,0,0-5.606,2.493H695.17A3.134,3.134,0,0,0,692.046,673.433Z" transform="translate(-566.387 -569.502)" fill="#3f3d56"/>
    <path id="Path_1267" data-name="Path 1267" d="M896.046,673.433a3.118,3.118,0,0,0-1.561.419,3.356,3.356,0,0,0-5.606,2.493H899.17A3.134,3.134,0,0,0,896.046,673.433Z" transform="translate(-724.692 -569.502)" fill="#3f3d56"/>
    <path id="Path_1268" data-name="Path 1268" d="M994.046,673.432a3.117,3.117,0,0,0-1.561.419,3.356,3.356,0,0,0-5.607,2.493H997.17A3.134,3.134,0,0,0,994.046,673.432Z" transform="translate(-800.742 -569.5)" fill="#3f3d56"/>
    <path id="Path_1269" data-name="Path 1269" d="M116.584,407H113v3.584h1.661V422.66h.448V410.584h1.475Z" transform="translate(-87.689 -315.836)" fill="#3f3d56"/>
    <rect id="Rectangle_663" data-name="Rectangle 663" width="13.887" height="0.448" transform="translate(9.883 100.799)" fill="#3f3d56"/>
    <rect id="Rectangle_664" data-name="Rectangle 664" width="13.887" height="0.448" transform="translate(9.883 99.68)" fill="#3f3d56"/>
    <rect id="Rectangle_665" data-name="Rectangle 665" width="13.887" height="0.448" transform="translate(9.883 98.56)" fill="#3f3d56"/>
  </g>
</svg>
