<svg id="protection" xmlns="http://www.w3.org/2000/svg" xmlns:xlink="http://www.w3.org/1999/xlink" width="60" height="60" viewBox="0 0 60 60">
  <defs>
    <linearGradient id="linear-gradient" x1="0.5" x2="0.5" y2="1" gradientUnits="objectBoundingBox">
      <stop offset="0" stop-color="#2cb7ff"/>
      <stop offset="1" stop-color="#5f63f2"/>
    </linearGradient>
  </defs>
  <g id="Group_1828" data-name="Group 1828" transform="translate(0 0)">
    <path id="Path_1368" data-name="Path 1368" d="M36.914,312H11.133A11.145,11.145,0,0,0,0,323.133V333.68a1.758,1.758,0,0,0,1.758,1.758H22.266l1.758-2.344,1.758,2.344H46.289a1.758,1.758,0,0,0,1.758-1.758V323.133A11.145,11.145,0,0,0,36.914,312Z" transform="translate(0 -275.437)" fill="url(#linear-gradient)"/>
    <path id="Path_1369" data-name="Path 1369" d="M217.891,312H205v21.094l1.758,2.344h20.508a1.758,1.758,0,0,0,1.758-1.758V323.133A11.145,11.145,0,0,0,217.891,312Z" transform="translate(-180.977 -275.437)" fill="url(#linear-gradient)"/>
    <path id="Path_1370" data-name="Path 1370" d="M190,382h3.516v15.234H190Z" transform="translate(-167.734 -337.234)" fill="#f5f5ff"/>
    <path id="Path_1371" data-name="Path 1371" d="M205,382h1.758v15.234H205Z" transform="translate(-180.977 -337.234)" fill="#e2e7fa"/>
    <path id="Path_1372" data-name="Path 1372" d="M161.133,246.513h-9.375A1.758,1.758,0,0,0,150,248.271v6.683l6.445,9.429,6.445-9.429v-6.683A1.758,1.758,0,0,0,161.133,246.513Z" transform="translate(-132.422 -217.625)" fill="#fac394"/>
    <path id="Path_1373" data-name="Path 1373" d="M209.688,246.513H205v17.87l6.445-9.429v-6.683A1.758,1.758,0,0,0,209.688,246.513Z" transform="translate(-180.977 -217.625)" fill="#f0b47f"/>
    <path id="Path_1374" data-name="Path 1374" d="M121.938,295.352l-2.293-.86a2.344,2.344,0,0,0-2.526.585l-6.579,6.96-6.579-6.96a2.344,2.344,0,0,0-2.526-.585l-2.293.86A1.758,1.758,0,0,0,98,297v4.453a1.758,1.758,0,0,0,1.213,1.671l10.781,3.516a1.729,1.729,0,0,0,1.088,0l0,0,10.781-3.516a1.758,1.758,0,0,0,1.213-1.671V297a1.758,1.758,0,0,0-1.141-1.646Z" transform="translate(-86.516 -259.85)" fill="#f5f5ff"/>
    <path id="Path_1375" data-name="Path 1375" d="M216.4,295.352l-2.293-.86a2.344,2.344,0,0,0-2.526.585L205,302.037v4.688a1.756,1.756,0,0,0,.543-.089l0,0,10.781-3.516a1.758,1.758,0,0,0,1.213-1.671V297A1.758,1.758,0,0,0,216.4,295.352Z" transform="translate(-180.977 -259.85)" fill="#e2e7fa"/>
    <g id="Group_1827" data-name="Group 1827" transform="translate(5.859)">
      <path id="Path_1376" data-name="Path 1376" d="M114.626,75,100,80.174v7.716a12.3,12.3,0,0,0,24.609,0V80.159Z" transform="translate(-94.141 -66.211)" fill="#ffd5b2"/>
      <path id="Path_1377" data-name="Path 1377" d="M217.3,80.159,207.322,75,205,75.821V100.2a12.319,12.319,0,0,0,12.3-12.3Z" transform="translate(-186.836 -66.211)" fill="#fac394"/>
      <path id="Path_1378" data-name="Path 1378" d="M57.031,0h15.82a7.617,7.617,0,0,1,7.617,7.617v6.331a13.045,13.045,0,0,1-9.983-2.8,13.657,13.657,0,0,1-8.465,2.909H57.031A7.031,7.031,0,1,1,57.031,0Z" transform="translate(-50 0)" fill="#c8661c"/>
      <path id="Path_1379" data-name="Path 1379" d="M209.688,0H205V12.621a13.688,13.688,0,0,0,2.322-1.468,13.045,13.045,0,0,0,9.983,2.8V7.617A7.617,7.617,0,0,0,209.688,0Z" transform="translate(-186.836 0)" fill="#8e4712"/>
    </g>
  </g>
  <g id="Group_1829" data-name="Group 1829" transform="translate(33.047 27.188)">
    <path id="Path_1380" data-name="Path 1380" d="M295.477,264.813a1.757,1.757,0,0,1-.505-.074A18.2,18.2,0,0,1,282,247.3v-8.859a1.758,1.758,0,0,1,1.758-1.758,5.8,5.8,0,0,0,5.212-3.221l.247-.495a1.758,1.758,0,0,1,1.572-.972h9.375a1.758,1.758,0,0,1,1.572.972l.247.495a5.8,5.8,0,0,0,5.212,3.221,1.758,1.758,0,0,1,1.758,1.758V247.3a18.2,18.2,0,0,1-12.971,17.434A1.762,1.762,0,0,1,295.477,264.813Z" transform="translate(-282 -232)" fill="#9ddff6"/>
    <path id="Path_1381" data-name="Path 1381" d="M408.719,236.688a5.8,5.8,0,0,1-5.211-3.221l-.247-.495a1.758,1.758,0,0,0-1.572-.972H397v32.813a1.756,1.756,0,0,0,.505-.074A18.2,18.2,0,0,0,410.477,247.3v-8.859A1.758,1.758,0,0,0,408.719,236.688Z" transform="translate(-383.523 -232)" fill="#6ba7ff"/>
    <path id="Path_1382" data-name="Path 1382" d="M312,266.524v7.265a14.591,14.591,0,0,0,9.961,13.905,14.591,14.591,0,0,0,9.961-13.905v-7.265A9.274,9.274,0,0,1,325.579,262h-7.236A9.275,9.275,0,0,1,312,266.524Z" transform="translate(-308.484 -258.484)" fill="#f5f5ff"/>
    <path id="Path_1383" data-name="Path 1383" d="M400.618,262H397v25.694a14.591,14.591,0,0,0,9.961-13.905v-7.265A9.274,9.274,0,0,1,400.618,262Z" transform="translate(-383.523 -258.484)" fill="#e2e7fa"/>
    <path id="Path_1384" data-name="Path 1384" d="M344.647,338.861a1.752,1.752,0,0,1-1.243-.515l-3.315-3.315a1.758,1.758,0,1,1,2.486-2.486l2.072,2.072,5.386-5.386a1.758,1.758,0,0,1,2.486,2.486l-6.629,6.629a1.753,1.753,0,0,1-1.243.515Z" transform="translate(-332.827 -317.382)" fill="#6b61b1"/>
    <path id="Path_1385" data-name="Path 1385" d="M400.729,329.231,397,332.96v4.972l6.215-6.215a1.758,1.758,0,1,0-2.486-2.486Z" transform="translate(-383.523 -317.382)" fill="#453d81"/>
  </g>
</svg>
