<svg id="Group_1638" data-name="Group 1638" xmlns="http://www.w3.org/2000/svg" width="25" height="25" viewBox="0 0 25 25">
  <path id="Path_1024" data-name="Path 1024" d="M138.244,153a12.5,12.5,0,1,1,12.5-12.5A12.515,12.515,0,0,1,138.244,153Z" transform="translate(-125.744 -128)" fill="#fff"/>
  <path id="Path_1025" data-name="Path 1025" d="M167.584,178.25q0,.217.011.432a8.377,8.377,0,0,0,2.159,5.2l.017.02c.059.065.12.127.181.19.033.034.064.069.1.1s.069.065.1.1c.063.061.125.122.19.181l.02.017a8.376,8.376,0,0,0,5.2,2.159q.215.011.432.011a8.42,8.42,0,0,0,8.41-8.41.7.7,0,0,0-.7-.7H176.7v-7.008a.7.7,0,0,0-.7-.7A8.42,8.42,0,0,0,167.584,178.25Z" transform="translate(-163.494 -165.75)" fill="#ff69a5"/>
</svg>
