<svg xmlns="http://www.w3.org/2000/svg" width="72.812" height="107.075" viewBox="0 0 72.812 107.075">
  <g id="Group_1771" data-name="Group 1771" transform="translate(0 0)">
    <path id="Path_1180" data-name="Path 1180" d="M686.178,392.43s.354,4.773.354,4.949-2.475,12.374-2.475,12.374-3.535,6.717,0,6.54,2.475-6.364,2.475-6.364l3.712-10.252-1.591-7.247Z" transform="translate(-633.944 -347.363)" fill="#ffb8b8"/>
    <path id="Path_1181" data-name="Path 1181" d="M455.53,666.084l.53,3.889-3.712.354.53-4.773Z" transform="translate(-385.796 -567.634)" fill="#ffb8b8"/>
    <path id="Path_1182" data-name="Path 1182" d="M391.6,666.084l-.53,3.889,3.712.354-.53-4.773Z" transform="translate(-333.537 -567.634)" fill="#ffb8b8"/>
    <path id="Path_1183" data-name="Path 1183" d="M713.107,502.647l-.884,1.237s-.53,5.3,0,7.071,1.591,9.9,1.591,10.429.177.884,0,1.061a7.13,7.13,0,0,0,0,1.944v.884l2.3,13.081s-1.414,1.591-.353,1.591,4.949,0,4.773-1.768l-.353-.177s-.53-11.667-.354-12.2.354-3.889.354-3.889l1.591-10.783,3.005,10.429.707,15.555s-.707,1.768,0,2.121,3.712,1.591,3.889-.177,1.061-17.146,1.061-17.853-.353-11.667-.353-11.667a13.065,13.065,0,0,1,.353-2.121c.177-.354-.177-.707,0-1.237a6.924,6.924,0,0,0-.353-2.3l-7.955-2.121Z" transform="translate(-659.106 -440.61)" fill="#2f2e41"/>
    <path id="Path_1184" data-name="Path 1184" d="M732.533,771.772s.884-.884-.354-.884a5.753,5.753,0,0,0-2.3.53L729,774.6s-3.624,2.917.442,2.563,4.684-.442,4.861-.8a30.95,30.95,0,0,0-.245-4.375.41.41,0,0,0-.661-.288A.7.7,0,0,1,732.533,771.772Z" transform="translate(-672.345 -670.14)" fill="#2f2e41"/>
    <path id="Path_1185" data-name="Path 1185" d="M799.875,771.772s-.884-.884.354-.884a5.753,5.753,0,0,1,2.3.53l.884,3.182s3.624,2.917-.442,2.563-5.215-.442-5.391-.8a26.817,26.817,0,0,1,.655-4.34.506.506,0,0,1,.805-.3A.69.69,0,0,0,799.875,771.772Z" transform="translate(-732.085 -670.14)" fill="#2f2e41"/>
    <path id="Path_1186" data-name="Path 1186" d="M724.4,278.858s.707,3.535.707,4.066,3.005,2.121,3.005,2.121l3.358-4.242s-2.121-3.005-2.121-3.712Z" transform="translate(-669.694 -248.992)" fill="#ffb8b8"/>
    <path id="Path_1187" data-name="Path 1187" d="M702.462,298.89a4.457,4.457,0,0,1-2.008-1.089s-4.886,4.8-4.886,5.685l3.889,6.894s0,2.475.354,2.651,0,0,0,.707-1.061,5.3-.707,6.01.707.177.354,1.237-1.237,6.717-1.237,6.717,3.182-1.061,7.778.707,10.076-.707,10.076-.707-1.414-3.182-1.061-4.242-.884-3.005-.884-3.005l-.884-16.262s1.237-7.247.354-7.6l-1.768-.707-5.661-.7S704.76,298.713,702.462,298.89Z" transform="translate(-645.102 -264.428)" fill="#3f3d56"/>
    <path id="Path_1188" data-name="Path 1188" d="M695.058,343.171l-1.768,1.237s-.884,2.651,0,3.889a9.066,9.066,0,0,1,1.237,3l3.535-.354Z" transform="translate(-642.824 -305.351)" fill="#3f3d56"/>
    <path id="Path_1189" data-name="Path 1189" d="M405.354,111.556V95.439a9.328,9.328,0,0,0-9.328-9.328H361.88a9.328,9.328,0,0,0-9.328,9.328v88.419a9.328,9.328,0,0,0,9.328,9.328h34.146a9.328,9.328,0,0,0,9.328-9.328v-72.3Z" transform="translate(-352.552 -86.111)" fill="#e6e6e6"/>
    <path id="Path_1190" data-name="Path 1190" d="M411.324,102.606h-4.457a3.31,3.31,0,0,1-3.064,4.559H384.24a3.31,3.31,0,0,1-3.064-4.56h-4.163a6.966,6.966,0,0,0-6.966,6.966v88.289a6.966,6.966,0,0,0,6.966,6.966h34.31a6.966,6.966,0,0,0,6.966-6.966h0V109.572a6.966,6.966,0,0,0-6.966-6.966Z" transform="translate(-367.473 -100.179)" fill="#fff"/>
    <path id="Path_1191" data-name="Path 1191" d="M430.985,300.73H388.573a.786.786,0,0,1-.785-.785v-10.52a.786.786,0,0,1,.785-.785h42.412a.786.786,0,0,1,.785.785v10.521a.786.786,0,0,1-.785.785Zm-42.412-11.777a.472.472,0,0,0-.471.471v10.521a.472.472,0,0,0,.471.471h42.412a.472.472,0,0,0,.471-.471V289.424a.472.472,0,0,0-.471-.471Z" transform="translate(-382.604 -258.842)" fill="#e6e6e6"/>
    <circle id="Ellipse_195" data-name="Ellipse 195" cx="3.199" cy="3.199" r="3.199" transform="translate(9.36 32.24)" fill="#e6e6e6"/>
    <path id="Path_1192" data-name="Path 1192" d="M485.048,312.49a.533.533,0,1,0,0,1.066h25.137a.533.533,0,0,0,0-1.066Z" transform="translate(-465.1 -279.184)" fill="#e6e6e6"/>
    <path id="Path_1193" data-name="Path 1193" d="M485.048,334.235a.533.533,0,1,0,0,1.066h10.817a.533.533,0,1,0,0-1.066Z" transform="translate(-465.1 -297.73)" fill="#e6e6e6"/>
    <path id="Path_1194" data-name="Path 1194" d="M430.985,532.73H388.573a.786.786,0,0,1-.785-.785V521.424a.786.786,0,0,1,.785-.785h42.412a.786.786,0,0,1,.785.785v10.521A.786.786,0,0,1,430.985,532.73Zm-42.412-11.777a.472.472,0,0,0-.471.471v10.521a.472.472,0,0,0,.471.471h42.412a.472.472,0,0,0,.471-.471V521.424a.472.472,0,0,0-.471-.471Z" transform="translate(-382.604 -456.708)" fill="#e6e6e6"/>
    <circle id="Ellipse_196" data-name="Ellipse 196" cx="3.199" cy="3.199" r="3.199" transform="translate(9.36 66.373)" fill="#e6e6e6"/>
    <path id="Path_1195" data-name="Path 1195" d="M485.048,544.49a.533.533,0,1,0,0,1.066h25.137a.533.533,0,0,0,0-1.066Z" transform="translate(-465.1 -477.051)" fill="#e6e6e6"/>
    <path id="Path_1196" data-name="Path 1196" d="M485.048,566.235a.533.533,0,1,0,0,1.066h10.817a.533.533,0,0,0,0-1.066Z" transform="translate(-465.1 -495.596)" fill="#e6e6e6"/>
    <path id="Path_1197" data-name="Path 1197" d="M554,413.608v10.521a.786.786,0,0,1-.784.786H531.448V413.027H553.74A.779.779,0,0,1,554,413.608Z" transform="translate(-505.128 -364.929)" fill="#6c63ff"/>
    <rect id="Rectangle_598" data-name="Rectangle 598" width="0.294" height="11.777" transform="translate(37.449 47.893)" fill="#fff"/>
    <path id="Path_1198" data-name="Path 1198" d="M429.511,411.841a.771.771,0,0,0-.525-.2H386.574a.787.787,0,0,0-.786.786v10.521a.787.787,0,0,0,.786.786h42.412a.786.786,0,0,0,.784-.786V412.423A.779.779,0,0,0,429.511,411.841Zm-.054,11.1a.472.472,0,0,1-.471.471H386.574a.471.471,0,0,1-.471-.471V412.423a.47.47,0,0,1,.471-.471h42.412a.471.471,0,0,1,.471.471Z" transform="translate(-380.898 -363.744)" fill="#e6e6e6"/>
    <path id="Path_1199" data-name="Path 1199" d="M421.177,449.487H411.046a.533.533,0,1,0,0,1.067h10.131a.533.533,0,1,0,0-1.067Z" transform="translate(-401.986 -396.025)" fill="#e6e6e6"/>
    <path id="Path_1200" data-name="Path 1200" d="M556.812,443.542a.971.971,0,0,0-1.308.1,1,1,0,0,0,.05,1.381l1.24,1.24a.147.147,0,0,0,.208,0l1.24-1.24a1,1,0,0,0,.05-1.381.971.971,0,0,0-1.308-.1A.14.14,0,0,1,556.812,443.542Z" transform="translate(-525.429 -390.777)" fill="#fff"/>
    <path id="Path_1201" data-name="Path 1201" d="M639.221,450.281h-1.83a.147.147,0,0,1-.143-.111l-.515-2.06a.147.147,0,0,1,.143-.183h2.86a.147.147,0,0,1,.143.183l-.515,2.06A.147.147,0,0,1,639.221,450.281Z" transform="translate(-594.919 -394.695)" fill="#fff"/>
    <path id="Path_1202" data-name="Path 1202" d="M647.022,452.427a.074.074,0,0,0-.074.074v1.03a.074.074,0,0,0,.147,0V452.5A.074.074,0,0,0,647.022,452.427Z" transform="translate(-603.635 -398.532)" fill="#6c63ff"/>
    <path id="Path_1203" data-name="Path 1203" d="M651.007,453.732a.074.074,0,0,0,.142.04l.277-.992a.074.074,0,0,0-.142-.04Z" transform="translate(-607.095 -398.754)" fill="#6c63ff"/>
    <path id="Path_1204" data-name="Path 1204" d="M641.078,452.686l-.02,0a.074.074,0,0,0-.051.091l.277.992a.074.074,0,1,0,.142-.04l-.277-.992A.074.074,0,0,0,641.078,452.686Z" transform="translate(-598.566 -398.753)" fill="#6c63ff"/>
    <path id="Path_1205" data-name="Path 1205" d="M640.67,443.368h-1.03v-.147a.294.294,0,1,0-.588,0v.147h-1.03a.074.074,0,1,0,0,.147h2.648a.074.074,0,0,0,0-.147Z" transform="translate(-595.959 -390.43)" fill="#fff"/>
    <circle id="Ellipse_197" data-name="Ellipse 197" cx="4.596" cy="4.596" r="4.596" transform="translate(51.704 21.911)" fill="#ffb8b8"/>
    <path id="Path_1206" data-name="Path 1206" d="M702.409,216.846l-.8-.319a5.438,5.438,0,0,1,3.986-1.676l-.652-.718a2.773,2.773,0,0,1,3.044,1.037,14.145,14.145,0,0,1,2.193,3.082h.854l-.356.785,1.247.785-1.28-.141a4.345,4.345,0,0,1-.121,2.032l.034.62a19.069,19.069,0,0,1-1.484-2.615v.8s-.8-.718-.8-1.2l-.435.559-.218-.878-2.681.878.435-.718-1.667.239.652-.878s-1.884,1.037-1.957,1.915a4.708,4.708,0,0,1-1.015,1.995l-.435-.8S700.307,218.043,702.409,216.846Z" transform="translate(-649.618 -195.196)" fill="#2f2e41"/>
    <path id="Path_1207" data-name="Path 1207" d="M695.781,353.984a13.52,13.52,0,0,0-.81,5.236,2.76,2.76,0,0,0,.456,1.3h0l-12.541,5.954s-5.666.587-4.252,3.061,6.54-1.237,6.54-1.237,13.434-1.944,14.495-3.889,1.768-10.076,1.768-10.076Z" transform="translate(-630.467 -314.573)" fill="#ffb8b8"/>
    <path id="Path_1208" data-name="Path 1208" d="M792.922,304.724h2.651s1.944.354,2.475,3.889,1.061,4.419.53,4.419-6.894-.177-6.894-.353S792.922,304.724,792.922,304.724Z" transform="translate(-727.077 -272.56)" fill="#3f3d56"/>
  </g>
</svg>
