<svg id="Group_1640" data-name="Group 1640" xmlns="http://www.w3.org/2000/svg" width="24.998" height="25" viewBox="0 0 24.998 25">
  <g id="Group_1639" data-name="Group 1639" opacity="0.5">
    <path id="Path_1027" data-name="Path 1027" d="M145.038,338.868a1.042,1.042,0,0,1-.806-1.7l2.277-2.8a1.041,1.041,0,0,1,1.615,1.315l-2.277,2.8a1.04,1.04,0,0,1-.809.384Zm0,0" transform="translate(-142.438 -313.868)" fill="#fff"/>
    <path id="Path_1028" data-name="Path 1028" d="M326.657,338.873a1.04,1.04,0,0,1-.809-.384l-2.277-2.8a1.041,1.041,0,0,1,1.615-1.315l2.277,2.8a1.042,1.042,0,0,1-.806,1.7Zm0,0" transform="translate(-304.26 -313.873)" fill="#fff"/>
    <path id="Path_1029" data-name="Path 1029" d="M129.057,135.028a1.041,1.041,0,0,1-.735-1.777l4.945-4.945a1.041,1.041,0,1,1,1.472,1.472l-4.945,4.945A1.043,1.043,0,0,1,129.057,135.028Zm0,0" transform="translate(-128.017 -128)" fill="#fff"/>
    <path id="Path_1030" data-name="Path 1030" d="M317.986,135.023a1.035,1.035,0,0,1-.735-.3l-4.945-4.945a1.041,1.041,0,0,1,1.472-1.472l4.945,4.945a1.041,1.041,0,0,1-.737,1.777Zm0,0" transform="translate(-294.03 -127.995)" fill="#fff"/>
  </g>
  <path id="Path_1031" data-name="Path 1031" d="M154.938,160a10.938,10.938,0,1,0,10.938,10.938A10.95,10.95,0,0,0,154.938,160Zm6.511,11.98h-6.511a1.042,1.042,0,0,1-1.042-1.042v-6.25a1.042,1.042,0,0,1,2.084,0V169.9h5.469a1.042,1.042,0,0,1,0,2.085Zm0,0" transform="translate(-142.44 -156.876)" fill="#fff"/>
</svg>
