<svg id="Group_1816" data-name="Group 1816" xmlns="http://www.w3.org/2000/svg" width="12.645" height="15.851" viewBox="0 0 12.645 15.851">
  <g id="Group_1815" data-name="Group 1815" transform="translate(0)">
    <path id="Path_1276" data-name="Path 1276" d="M54.353,10.687l-.008-.008L48.594,4.948V2.864a2.864,2.864,0,1,0-5.728,0V8.35l-.073.077a3.338,3.338,0,0,0,0,4.717l1.73,1.73a3.334,3.334,0,0,0,4.717,0l4.1-4.1.461.454a.383.383,0,0,0,.546-.538ZM43.634,2.868a2.1,2.1,0,0,1,4.19,0V4.183l-.8-.8a.383.383,0,0,0-.538.546l.4.4L43.634,7.581Zm4.433,6.066a.775.775,0,1,1-.773.777A.776.776,0,0,1,48.067,8.934Zm.634,5.4a2.567,2.567,0,0,1-3.629,0l0,0-1.73-1.73a2.571,2.571,0,0,1,0-3.629l.231-.231,3.864-3.867.392.4V8.189a1.543,1.543,0,1,0,1.784,1.526,1.517,1.517,0,0,0-1.015-1.449V6.036l4.21,4.19Z" transform="translate(-41.818)" fill="#fff"/>
  </g>
</svg>
