<svg xmlns="http://www.w3.org/2000/svg" width="55.116" height="107.075" viewBox="0 0 55.116 107.075">
  <g id="Group_5" data-name="Group 5" transform="translate(-176.341 -93.002)">
    <path id="Path_33" data-name="Path 33" d="M560.117,111.558h-.589V95.441a9.328,9.328,0,0,0-9.328-9.328H516.055a9.328,9.328,0,0,0-9.328,9.328V183.86a9.328,9.328,0,0,0,9.328,9.328H550.2a9.328,9.328,0,0,0,9.328-9.328V123.03h.588Z" transform="translate(-330.386 6.889)" fill="#3f3d56"/>
    <path id="Path_34" data-name="Path 34" d="M565.492,102.606h-4.457a3.31,3.31,0,0,1-3.064,4.56H538.409a3.31,3.31,0,0,1-3.064-4.56h-4.164a6.966,6.966,0,0,0-6.966,6.966v88.289a6.966,6.966,0,0,0,6.966,6.966h34.31a6.966,6.966,0,0,0,6.966-6.966h0V109.572a6.966,6.966,0,0,0-6.966-6.966Z" transform="translate(-345.301 -7.177)" fill="#fff"/>
    <rect id="Rectangle_18" data-name="Rectangle 18" width="39.513" height="67.502" transform="translate(183.279 112.788)" fill="#e6e6e6"/>
    <circle id="Ellipse_7" data-name="Ellipse 7" cx="3.825" cy="3.825" r="3.825" transform="translate(199.269 185.066)" fill="#e6e6e6"/>
    <g id="Group_1" data-name="Group 1" transform="translate(207.509 117.358)">
      <path id="Path_16" data-name="Path 16" d="M151.644,708.867l-.437,4.224,2.476-.291.291-3.5Z" transform="translate(-137.773 -638.709)" fill="#ffb9b9"/>
      <path id="Path_17" data-name="Path 17" d="M114.086,470.055s-12.673,12.236-4.661,16.024H111.9s5.39-8.886,8.012-8.74l.728,8.449L120.2,502.83l3.2.146s1.894-8.594,1.748-13.4l3.35-17.772Z" transform="translate(-106.77 -431.944)" fill="#2f2e41"/>
      <path id="Path_18" data-name="Path 18" d="M136.723,572.435l1.748.583s6.846-1.6,7.283-1.457l1.355-.009-.044-3.487h-5.826Z" transform="translate(-133.34 -518.883)" fill="#2f2e41"/>
      <path id="Path_19" data-name="Path 19" d="M223.715,779.365s-2.622-1.165-3.059,0a18.243,18.243,0,0,0-.291,4.516,3.24,3.24,0,0,1,.291,2.185c-.291,1.165,1.165,1.748,3.059,1.165a2.324,2.324,0,0,0,1.894-2.039Z" transform="translate(-207.513 -705.857)" fill="#2f2e41"/>
      <path id="Path_20" data-name="Path 20" d="M251.25,562.494s2.039-1.165,1.894.583a11.518,11.518,0,0,1-.874,3.35s1.894,4.953,0,5.39-3.35-.583-3.35-1.311S251.25,562.494,251.25,562.494Z" transform="translate(-232.863 -513.604)" fill="#2f2e41"/>
      <path id="Path_21" data-name="Path 21" d="M138.31,166.083l.291,5.535,2.476,2.185,2.768-3.933v-3.933Z" transform="translate(-126.332 -157.105)" fill="#ffb9b9"/>
      <path id="Path_22" data-name="Path 22" d="M167.818,243.008l-1.668-1.239-1.1,1.676-4.953,2.913,2.913,7.575.146,7.429s-5.39,5.535-2.185,6.264,14.567,2.331,15.149,1.02-.728-14.858-.728-14.858l.437-11.508-4.37-1.58Z" transform="translate(-153.947 -228.495)" fill="#6c63ff"/>
      <path id="Path_23" data-name="Path 23" d="M148.47,342.428s-1.165,8.254,1.02,8.254a10.034,10.034,0,0,0,3.787-.728l-1.748-4.516.728-3.059Z" transform="translate(-143.485 -318.69)" fill="#ffb9b9"/>
      <path id="Path_24" data-name="Path 24" d="M169.13,364.537l1.6.291s4.661-2.913,4.953-3.059-4.661-2.622-4.661-2.622l-3.35,1.311Z" transform="translate(-160.794 -333.564)" fill="#ffb9b9"/>
      <path id="Path_25" data-name="Path 25" d="M153.715,344.276l-2.1.823.647-2.717-3.787.049s-1.165,8.254,1.02,8.254a10.034,10.034,0,0,0,3.787-.728l-.011-.029.157.029s4.661-2.913,4.953-3.059S153.715,344.276,153.715,344.276Z" transform="translate(-143.486 -318.692)" opacity="0.1"/>
      <circle id="Ellipse_5" data-name="Ellipse 5" cx="4.16" cy="4.16" r="4.16" transform="translate(11.188 3.42)" fill="#ffb9b9"/>
      <path id="Path_26" data-name="Path 26" d="M197.715,135.54l-.813-.325a5.544,5.544,0,0,1,4.063-1.708l-.665-.732a2.827,2.827,0,0,1,3.1,1.057,14.432,14.432,0,0,1,2.236,3.142h.87l-.363.8,1.271.8-1.305-.144a4.426,4.426,0,0,1-.123,2.072l.035.633a19.44,19.44,0,0,1-1.513-2.666v.813s-.813-.732-.813-1.22l-.443.569-.222-.9-2.734.895.443-.732-1.7.244.665-.895s-1.921,1.057-1.995,1.952a4.8,4.8,0,0,1-1.034,2.033l-.443-.813S195.572,136.76,197.715,135.54Z" transform="translate(-186.045 -132.653)" fill="#2f2e41"/>
      <path id="Path_27" data-name="Path 27" d="M188.915,317.9a5.236,5.236,0,0,0-1.165,3.2l-7.72-.291s-2.039-.291-2.039,1.165v1.457s1.02-.437,1.6,0,6.846,4.224,9.905,2.768,3.787-7.138,3.787-7.138S190.518,316.731,188.915,317.9Z" transform="translate(-169.945 -296.683)" fill="#ffb9b9"/>
      <path id="Path_28" data-name="Path 28" d="M270.745,254.834l1.165-.146s2.331.291,2.039,4.807a33.166,33.166,0,0,1-.437,4.807s-3.059-2.768-5.244-1.457Z" transform="translate(-250.027 -240.904)" fill="#6c63ff"/>
      <path id="Path_29" data-name="Path 29" d="M148.653,290.8h-.583a5.4,5.4,0,0,0-1.165,3.35,16.122,16.122,0,0,1-.51,3.86l4.589-.8Z" transform="translate(-141.919 -272.936)" fill="#6c63ff"/>
    </g>
  </g>
</svg>
