<svg id="Group_1641" data-name="Group 1641" xmlns="http://www.w3.org/2000/svg" width="25" height="21.085" viewBox="0 0 25 21.085">
  <path id="Path_1032" data-name="Path 1032" d="M21.838,40.316c-5.754,2.8-12.78,3.124-14.807,3.155H2.2a2.2,2.2,0,0,0-2.2,2.2C0,58.33-.012,57.6.025,57.761a1.032,1.032,0,0,0,.337.558h0a32.823,32.823,0,0,0,6.712.242,43.093,43.093,0,0,0,5.568-.449,33.64,33.64,0,0,0,10.3-3.014A10.782,10.782,0,0,0,25,54.1V42.3A2.2,2.2,0,0,0,21.838,40.316Zm1.106,12.457a30.741,30.741,0,0,1-10.591,3.306,62.237,62.237,0,0,1-10.3.431V45.672a.147.147,0,0,1,.147-.146h4.1a39.22,39.22,0,0,0,16.443-3.364.145.145,0,0,1,.206.134Z" transform="translate(0.003 -40.092)" fill="#fff"/>
  <path id="Path_1033" data-name="Path 1033" d="M185.226,191.334a3.634,3.634,0,1,0-3.634-3.634A3.638,3.638,0,0,0,185.226,191.334Zm0-5.215a1.581,1.581,0,1,1-1.581,1.581,1.582,1.582,0,0,1,1.581-1.581Z" transform="translate(-172.725 -177.036)" fill="#fff"/>
  <path id="Path_1034" data-name="Path 1034" d="M374.849,133.237c.224,0,.173,0,1.889-.574a1.027,1.027,0,0,0-.649-1.948l-1.564.521a1.027,1.027,0,0,0,.324,2Z" transform="translate(-355.569 -126.24)" fill="#fff" opacity="0.5"/>
  <path id="Path_1035" data-name="Path 1035" d="M65.142,314.276h1.564a1.027,1.027,0,0,0,0-2.053H65.142a1.027,1.027,0,0,0,0,2.053Z" transform="translate(-60.984 -298.936)" fill="#fff" opacity="0.5"/>
  <path id="Path_1036" data-name="Path 1036" d="M32.114,327.06v2.752a2.2,2.2,0,0,1-1.159,1.938,23.608,23.608,0,0,1-11.009,2.383c-7.746,0-12.152-2.651-12.341-2.767a.97.97,0,0,1-.125-.091,32.823,32.823,0,0,0,6.712.242c4.9.993,11.4.8,15.788-1.573a.151.151,0,0,0,.081-.131v-1.758A10.783,10.783,0,0,0,32.114,327.06Z" transform="translate(-7.115 -313.048)" fill="#fff" opacity="0.5"/>
</svg>
