<svg xmlns="http://www.w3.org/2000/svg" width="20.043" height="19.925" viewBox="0 0 20.043 19.925">
  <g id="graphic" transform="translate(0 -1.5)">
    <path id="Path_992" data-name="Path 992" d="M59.445,318.5H56.313a.313.313,0,0,0-.313.313v6.89a.313.313,0,0,0,.313.313h3.132a.313.313,0,0,0,.313-.313v-6.89A.313.313,0,0,0,59.445,318.5Z" transform="translate(-53.808 -304.591)" fill="#ff4d4f"/>
    <g id="Group_1446" data-name="Group 1446" transform="translate(2.192 12.343)">
      <path id="Path_993" data-name="Path 993" d="M56.94,325.7v-6.89a.313.313,0,0,1,.313-.313h-.94a.313.313,0,0,0-.313.313v6.89a.313.313,0,0,0,.313.313h.94A.313.313,0,0,1,56.94,325.7Z" transform="translate(-56 -316.934)" fill="#ff4d4f"/>
      <path id="Path_994" data-name="Path 994" d="M211.445,278.5h-3.132a.313.313,0,0,0-.313.313v8.456a.313.313,0,0,0,.313.313h3.132a.313.313,0,0,0,.313-.313v-8.456A.313.313,0,0,0,211.445,278.5Z" transform="translate(-202.05 -278.5)" fill="#ff4d4f"/>
    </g>
    <g id="Group_1447" data-name="Group 1447" transform="translate(8.142 8.899)">
      <path id="Path_995" data-name="Path 995" d="M208.939,287.269v-8.456a.313.313,0,0,1,.313-.313h-.94a.313.313,0,0,0-.313.313v8.456a.313.313,0,0,0,.313.313h.94A.313.313,0,0,1,208.939,287.269Z" transform="translate(-208 -275.055)" fill="#ff4d4f"/>
      <path id="Path_996" data-name="Path 996" d="M363.445,190.5h-3.132a.313.313,0,0,0-.313.313v11.9a.313.313,0,0,0,.313.313h3.132a.313.313,0,0,0,.313-.313v-11.9A.313.313,0,0,0,363.445,190.5Z" transform="translate(-354.05 -190.5)" fill="#ff4d4f"/>
    </g>
    <path id="Path_997" data-name="Path 997" d="M360.94,202.714v-11.9a.313.313,0,0,1,.313-.313h-.94a.313.313,0,0,0-.313.313v11.9a.313.313,0,0,0,.313.313h.94A.313.313,0,0,1,360.94,202.714Z" transform="translate(-345.908 -181.601)" fill="#ff4d4f"/>
    <path id="Path_998" data-name="Path 998" d="M19.73,495.126H.313a.313.313,0,0,1,0-.626H19.73a.313.313,0,0,1,0,.626Z" transform="translate(0 -473.701)" fill="#ff4d4f"/>
    <path id="Path_999" data-name="Path 999" d="M34.266,1.657a.626.626,0,0,0-.492-.152l-2.505.313a.626.626,0,0,0,.155,1.243l.942-.118a22.387,22.387,0,0,1-9.916,6.994,21.394,21.394,0,0,1-5.842,1.271.626.626,0,0,0,.019,1.252h.019a22.175,22.175,0,0,0,6.181-1.328,24.32,24.32,0,0,0,5.65-2.878,22.918,22.918,0,0,0,4.748-4.382v.76a.626.626,0,0,0,1.253,0V2.126A.626.626,0,0,0,34.266,1.657Z" transform="translate(-15.374)" fill="#ff4d4f"/>
  </g>
</svg>
