<svg xmlns="http://www.w3.org/2000/svg" width="372.457" height="222.772" viewBox="0 0 372.457 222.772">
  <g id="Group_3474" data-name="Group 3474" transform="translate(-1174.501 -993.057)">
    <path id="Path_6719" data-name="Path 6719" d="M1181.936,1222.994H1174.5l9.1,115.228h18.084Z" transform="translate(0 -123.492)" fill="#b7d3f3"/>
    <g id="Group_3473" data-name="Group 3473" transform="translate(1174.502 993.057)">
      <path id="Path_6720" data-name="Path 6720" d="M1487.813,1110.4l-1.6.323a13.222,13.222,0,0,1-15.532-10.31l-1.686-8.342a13.221,13.221,0,0,1,10.31-15.532l1.6-.322a13.22,13.22,0,0,1,15.532,10.31l1.685,8.342A13.221,13.221,0,0,1,1487.813,1110.4Z" transform="translate(-1332.527 -1037.579)" fill="#122544"/>
      <path id="Path_6721" data-name="Path 6721" d="M1174.5,1210.544s40.6-19.059,96.229-6.379l-88.795,6.379Z" transform="translate(-1174.502 -1104.098)" fill="#b7d3f3"/>
      <path id="Path_6722" data-name="Path 6722" d="M1210.315,1328.548l-19.754-116.327s62.209-20.892,110.474,0l28.709,115.594Z" transform="translate(-1183.127 -1105.776)" fill="#d2e3fc"/>
      <path id="Path_6732" data-name="Path 6732" d="M1468.865,1318.749H1355.2a120.83,120.83,0,0,1-4.445-12.957,220.46,220.46,0,0,1-6.676-36.06c-.017-.154-.034-.315-.052-.47a420.711,420.711,0,0,1-2-53.9c.178-7.1.459-11.465.476-11.677v-.006c.241-.1.487-.2.728-.3,6.028-2.529,11.81-4.708,17.35-6.6a.3.3,0,0,0,.046-.011q6.986-2.383,13.456-4.141a196.509,196.509,0,0,1,21.164-4.617,154.783,154.783,0,0,1,20.894-1.927c.281-.012.557-.012.838-.017q2.469-.043,4.783.011c15.561.333,25.914,3.43,31.15,5.495.728.287,1.353.556,1.875.8l.207.086c.59.264,1.049.487,1.371.648a.7.7,0,0,1,.125.068c.155.081.3.167.448.252l8.2,86.143Z" transform="translate(-1264.398 -1096.71)" fill="#2b478b"/>
      <path id="Path_6733" data-name="Path 6733" d="M1683.68,1303.836c-11.389,5.288-79.127,9.725-85.634,7.852-3.336-.964-17.3-13.264-31.353-28.4l-.012-.01c-13.3-14.313-26.7-31.161-31.222-43.285a74.188,74.188,0,0,1-1.306-47.036s17.284-.073,24.331,4.181,47.333,78.46,52.719,80.418,69.2,5.617,76.51,9.085C1687.713,1286.645,1695.059,1298.55,1683.68,1303.836Z" transform="translate(-1365.943 -1100.419)" fill="#2b478b"/>
      <path id="Path_6734" data-name="Path 6734" d="M1454.2,1164.549l-.016,4.195s1.163,13.117-14.988,15.057-28.4-5.072-27.977-15.2c1.443-7.84,3.031-13.225,3.13-19.711a45.639,45.639,0,0,0-.586-7.855l31.3-.673,9.222,1.492Z" transform="translate(-1301.628 -1072.172)" fill="#ea9e6a"/>
      <path id="Path_6735" data-name="Path 6735" d="M1457.246,1142.64l-.085,22.69a26.467,26.467,0,0,1-11.278,2.507c-14.386.022-28.705-23.129-29.159-26.016Z" transform="translate(-1304.592 -1072.953)" fill="#d88d59"/>
      <path id="Path_6736" data-name="Path 6736" d="M1450.314,1090.666s-40.077,8.16-44.773-16.876-13.034-40.843,12.355-47.112,32.167,2.349,35.768,10.324S1460.618,1087.9,1450.314,1090.666Z" transform="translate(-1295.816 -1009.956)" fill="#ea9e6a"/>
      <path id="Path_6737" data-name="Path 6737" d="M1448.595,1001.486a84.049,84.049,0,0,1-24.375-6.556c-10.709-4.637-24.2.508-28.583,2.824a6.522,6.522,0,0,1,1.065-2.639,5.883,5.883,0,0,0-2.253,3.349c-.2.15-.293.253-.24.287a7.538,7.538,0,0,0-3.664.243s1-.145,1.362.5a.607.607,0,0,0,.161.177c-16.682,8.092-18.183,34.478-12.8,40.575,6.475,7.335,14.25,23.864,14.25,23.864s2.821-3.912,1.635-10.373,4.4-6.47,11.443-9.419,1.158-11.166,7.32-16.17,28.788-2.1,28.489-5.92C1450.8,1019.156,1448.6,1002.346,1448.595,1001.486Z" transform="translate(-1282.981 -993.057)" fill="#8e342e"/>
      <path id="Path_6738" data-name="Path 6738" d="M1357.677,1409.628a120.877,120.877,0,0,1-4.445-12.957,220.464,220.464,0,0,1-6.676-36.06c-.017-.154-.034-.315-.052-.47.086.041.228.274.321.161,4.427-5.377,16.507-11.258,31.139,10.159,2.919,4.267,15.721,34.171,17.763,39.167Z" transform="translate(-1266.879 -1187.589)" fill="#233862"/>
      <path id="Path_6739" data-name="Path 6739" d="M1396.169,1456.107c-.327-1.933.035-4.365,1.543-7.4,0,0,1.876-1.216,4.365-2.633,3.711-2.093,8.787-4.628,11.087-4.221.413.075.969.2,1.629.356,5.454,1.308,18.17,5.225,20.092,7.52,1.583,1.887,3.74,4.291,5.225,6.378Z" transform="translate(-1293.493 -1234.068)" fill="#ea9e6a"/>
      <path id="Path_6740" data-name="Path 6740" d="M1289.966,1333.809h-107.1a6.5,6.5,0,0,1,.08-3.6c3.195-8.07,9.429-21.354,16.61-35.607,5.282-10.484,11.07-21.5,16.536-31.345,7.589-13.674,14.54-25.11,18.624-29.8a48.378,48.378,0,0,1,11.522-9.337,81.183,81.183,0,0,1,10.749-5.368v-.006c.241-.1.488-.2.728-.3a94.753,94.753,0,0,1,13.37-4.347s.08,3.384.086,8.586c.023,15.1-.556,45.518-5.374,52.94a99.434,99.434,0,0,1-6.969,8.861c-.092.1-.178.206-.269.309-1.693,1.985-3.568,4.119-5.535,6.315-11.179,12.521-25.334,27.227-27.061,29.016-.12.121-.178.183-.178.183h.206l30.032.419,9.211.126,19.1.263a7.23,7.23,0,0,1,3.132,2.661C1289.312,1326.479,1289.88,1330.413,1289.966,1333.809Z" transform="translate(-1178.88 -1111.77)" fill="#2b478b"/>
      <path id="Path_6741" data-name="Path 6741" d="M1725.139,1406.146c-11.389,5.287-79.127,9.725-85.634,7.852-3.336-.964-17.3-13.265-31.353-28.4.693.092,7.118-10.619,36.416,15.01,0,0,7.673,3.415,28.553,1.5S1720.816,1399.5,1725.139,1406.146Z" transform="translate(-1407.401 -1202.728)" fill="#233862"/>
      <g id="Group_3470" data-name="Group 3470" transform="translate(173.753 137.495)">
        <path id="Path_6742" data-name="Path 6742" d="M1627.272,1465.089h-77.438a6.173,6.173,0,0,1,6.173-6.173h71.265Z" transform="translate(-1549.834 -1380.75)" fill="#b24940"/>
        <path id="Path_6743" data-name="Path 6743" d="M1682.414,1290.07h119.725l-28.718,84.337h-120.5Z" transform="translate(-1605.198 -1290.068)" fill="#b24940"/>
        <path id="Path_6744" data-name="Path 6744" d="M1805.946,1290.066l-28.717,84.339h-120.5l29.495-84.339Z" transform="translate(-1607.243 -1290.066)" fill="#c65447"/>
        <path id="Path_6745" data-name="Path 6745" d="M1825.911,1372.707a7.784,7.784,0,0,1-7.181,5.834c-3.222,0-5.231-2.612-4.488-5.834a7.784,7.784,0,0,1,7.182-5.835C1824.646,1366.872,1826.655,1369.484,1825.911,1372.707Z" transform="translate(-1691.756 -1331.316)" fill="#f9ddbf"/>
        <path id="Path_6746" data-name="Path 6746" d="M1880.712,1290.066l-28.717,84.339h-56.056l67.142-84.339Z" transform="translate(-1682.009 -1290.066)" fill="#b24940"/>
      </g>
      <path id="Path_6747" data-name="Path 6747" d="M1414.553,1110.4l-1.6.323a13.222,13.222,0,0,1-15.532-10.31l-1.686-8.342a13.221,13.221,0,0,1,10.31-15.532l1.6-.322a13.221,13.221,0,0,1,15.532,10.31l1.685,8.342A13.221,13.221,0,0,1,1414.553,1110.4Z" transform="translate(-1293.182 -1037.579)" fill="#122544"/>
      <g id="Group_3471" data-name="Group 3471" transform="translate(107.766 0)">
        <path id="Path_6748" data-name="Path 6748" d="M1408.478,1035.835c-1.068-1.929-2.637-17.457,1.631-29.82a19.811,19.811,0,0,1,9.583-11.683,10.256,10.256,0,0,1,4.937-1.275l4.206.07c-13.849,5.863-17.06,37.234-15.982,40.579a1.237,1.237,0,0,0-.107-.233Z" transform="translate(-1407.292 -993.057)" fill="#122544"/>
      </g>
      <g id="Group_3472" data-name="Group 3472" transform="translate(114.46 55.581)">
        <path id="Path_6749" data-name="Path 6749" d="M1456.663,1132.973c-23.277,0-34.8-18.394-34.911-18.58l2.081-1.273-1.04.636,1.039-.637c.108.175,10.958,17.415,32.833,17.415l.44,0,.026,2.439Z" transform="translate(-1421.752 -1113.119)" fill="#122544"/>
      </g>
      <path id="Path_6750" data-name="Path 6750" d="M1417.55,1112.808l-.8.161a6.587,6.587,0,0,1-7.739-5.137l-.84-4.157a6.587,6.587,0,0,1,5.137-7.739l.795-.16a6.587,6.587,0,0,1,7.738,5.137l.84,4.157A6.586,6.586,0,0,1,1417.55,1112.808Z" transform="translate(-1299.931 -1048.154)" fill="#2b478b"/>
      <path id="Path_6751" data-name="Path 6751" d="M1498.51,1153.042h-2.2a2.039,2.039,0,0,1-2.032-2.033h0a2.038,2.038,0,0,1,2.032-2.032h2.2a2.038,2.038,0,0,1,2.032,2.032h0A2.039,2.039,0,0,1,1498.51,1153.042Z" transform="translate(-1346.245 -1076.796)" fill="#122544"/>
    </g>
  </g>
</svg>
