<svg xmlns="http://www.w3.org/2000/svg" width="163.376" height="101.646" viewBox="0 0 163.376 101.646">
  <g id="Group_3488" data-name="Group 3488" transform="translate(-14.027)">
    <g id="Chair" transform="translate(113.959 56.833)">
      <g id="Group_2706" data-name="Group 2706">
        <g id="Group_2695" data-name="Group 2695">
          <g id="Group_2692" data-name="Group 2692">
            <path id="Path_2042" data-name="Path 2042" d="M444.913,320.136a5.17,5.17,0,0,1,5.034-4.339c10.889-.145,38.615-.4,40.1.786,1.853,1.472,2.822,2.225,2.677,4.56-.133,2.145-2.472,39.184-2.472,39.184H438.366Z" transform="translate(-438.366 -315.67)" fill="#455a64"/>
          </g>
          <g id="Group_2694" data-name="Group 2694" transform="translate(45.644 2.863)">
            <g id="Group_2693" data-name="Group 2693">
              <path id="Path_2043" data-name="Path 2043" d="M583.479,366.564a.546.546,0,0,1-.015-.109c-.007-.081-.016-.187-.027-.321-.021-.292-.052-.707-.09-1.235s-.083-1.193-.107-1.957-.076-1.633-.076-2.595q-.008-.722-.017-1.51c0-.525.013-1.071.019-1.637,0-1.131.066-2.339.12-3.609.143-2.539.385-5.328.774-8.238s.915-5.662,1.455-8.148c.288-1.239.551-2.42.849-3.511.145-.547.274-1.078.419-1.583l.42-1.451c.258-.927.537-1.752.767-2.481s.443-1.352.625-1.858l.417-1.166.112-.3a.57.57,0,0,1,.044-.1.518.518,0,0,1-.028.107l-.1.307-.387,1.176c-.173.509-.38,1.133-.6,1.865s-.492,1.557-.743,2.485l-.409,1.452c-.141.505-.267,1.036-.409,1.583-.292,1.092-.549,2.272-.833,3.51-.532,2.485-1.039,5.233-1.44,8.138s-.634,5.689-.786,8.224c-.057,1.269-.125,2.474-.135,3.6-.009.565-.03,1.11-.029,1.634s0,1.027.006,1.508c-.007.961.034,1.83.052,2.593s.048,1.42.078,1.957.045.944.059,1.237c0,.135.009.241.011.322A.548.548,0,0,1,583.479,366.564Z" transform="translate(-583.146 -324.752)" fill="#263238"/>
            </g>
          </g>
        </g>
        <g id="Group_2700" data-name="Group 2700" transform="translate(9.885 13.952)">
          <g id="Group_2696" data-name="Group 2696" transform="translate(5.48 4.769)">
            <path id="Path_2044" data-name="Path 2044" d="M488.534,375.1c0-.006.026-.016.079-.031a.76.76,0,0,1,.242-.014,1.1,1.1,0,0,1,.759.449,1.244,1.244,0,0,1,.077,1.292,1.612,1.612,0,0,1-.507.608,1.546,1.546,0,0,1-.8.281,1.3,1.3,0,0,1-.828-.216,1.047,1.047,0,0,1-.43-.675,1.409,1.409,0,0,1,.4-1.242c.583-.5,1.1-.515,1.088-.466,0,.006-.029,0-.08.015a1.438,1.438,0,0,0-.219.075,2.266,2.266,0,0,0-.708.459,1.308,1.308,0,0,0-.33,1.13.9.9,0,0,0,.373.573,1.151,1.151,0,0,0,.726.184,1.405,1.405,0,0,0,.72-.248,1.483,1.483,0,0,0,.465-.543,1.131,1.131,0,0,0-.035-1.158,1.078,1.078,0,0,0-.674-.453A3.03,3.03,0,0,0,488.534,375.1Z" transform="translate(-487.102 -375.054)" fill="#263238"/>
          </g>
          <g id="Group_2697" data-name="Group 2697" transform="translate(7.931)">
            <path id="Path_2045" data-name="Path 2045" d="M502,360.038a13.6,13.6,0,0,0-1.393.015,6.389,6.389,0,0,0-5.234,3.667,13.454,13.454,0,0,0-.49,1.3,1.445,1.445,0,0,1,.058-.374,5.534,5.534,0,0,1,.327-.979,6.213,6.213,0,0,1,5.331-3.734,5.546,5.546,0,0,1,1.032.027A1.436,1.436,0,0,1,502,360.038Z" transform="translate(-494.875 -359.926)" fill="#263238"/>
          </g>
          <g id="Group_2698" data-name="Group 2698" transform="translate(0 7.081)">
            <path id="Path_2046" data-name="Path 2046" d="M469.721,385.054a.906.906,0,0,1,.121-.268,4.187,4.187,0,0,1,.457-.657,4.871,4.871,0,0,1,4.788-1.632,4.193,4.193,0,0,1,.763.241.907.907,0,0,1,.259.138c-.011.028-.391-.149-1.045-.265a5.06,5.06,0,0,0-4.678,1.594C469.94,384.7,469.748,385.069,469.721,385.054Z" transform="translate(-469.72 -382.385)" fill="#263238"/>
          </g>
          <g id="Group_2699" data-name="Group 2699" transform="translate(7.671 7.355)">
            <path id="Path_2047" data-name="Path 2047" d="M496.424,386.938a1.935,1.935,0,0,1-.534-.386,5.947,5.947,0,0,1-1.7-2.652,1.954,1.954,0,0,1-.129-.646,8.426,8.426,0,0,0,2.366,3.684Z" transform="translate(-494.053 -383.254)" fill="#263238"/>
          </g>
        </g>
        <g id="Group_2705" data-name="Group 2705" transform="translate(27.408 14.391)">
          <g id="Group_2701" data-name="Group 2701" transform="translate(5.48 4.77)">
            <path id="Path_2048" data-name="Path 2048" d="M544.115,376.493c0-.006.025-.016.079-.031a.763.763,0,0,1,.242-.014,1.1,1.1,0,0,1,.759.449,1.244,1.244,0,0,1,.077,1.292,1.615,1.615,0,0,1-.507.608,1.546,1.546,0,0,1-.8.28,1.3,1.3,0,0,1-.828-.215,1.047,1.047,0,0,1-.429-.675,1.409,1.409,0,0,1,.4-1.242c.583-.5,1.1-.515,1.088-.466,0,.006-.029,0-.08.015a1.437,1.437,0,0,0-.219.075,2.268,2.268,0,0,0-.708.459,1.308,1.308,0,0,0-.33,1.13.9.9,0,0,0,.373.573,1.15,1.15,0,0,0,.726.183,1.4,1.4,0,0,0,.72-.247,1.484,1.484,0,0,0,.465-.543,1.131,1.131,0,0,0-.035-1.158,1.076,1.076,0,0,0-.673-.453A3.041,3.041,0,0,0,544.115,376.493Z" transform="translate(-542.683 -376.445)" fill="#263238"/>
          </g>
          <g id="Group_2702" data-name="Group 2702" transform="translate(7.93)">
            <path id="Path_2049" data-name="Path 2049" d="M557.576,361.429a13.489,13.489,0,0,0-1.393.015,6.391,6.391,0,0,0-5.234,3.667,13.687,13.687,0,0,0-.49,1.3,1.444,1.444,0,0,1,.058-.374,5.529,5.529,0,0,1,.327-.979,6.213,6.213,0,0,1,5.331-3.734,5.522,5.522,0,0,1,1.032.027A1.425,1.425,0,0,1,557.576,361.429Z" transform="translate(-550.455 -361.316)" fill="#263238"/>
          </g>
          <g id="Group_2703" data-name="Group 2703" transform="translate(0 7.081)">
            <path id="Path_2050" data-name="Path 2050" d="M525.3,386.445a.906.906,0,0,1,.121-.268,4.221,4.221,0,0,1,.457-.657,4.871,4.871,0,0,1,4.787-1.632,4.2,4.2,0,0,1,.764.241.893.893,0,0,1,.259.138c-.011.028-.391-.149-1.045-.265a5.061,5.061,0,0,0-4.678,1.594C525.521,386.088,525.328,386.46,525.3,386.445Z" transform="translate(-525.301 -383.776)" fill="#263238"/>
          </g>
          <g id="Group_2704" data-name="Group 2704" transform="translate(7.671 7.355)">
            <path id="Path_2051" data-name="Path 2051" d="M552,388.328a1.94,1.94,0,0,1-.534-.386,5.951,5.951,0,0,1-1.7-2.652,1.934,1.934,0,0,1-.129-.646A8.427,8.427,0,0,0,552,388.328Z" transform="translate(-549.634 -384.644)" fill="#263238"/>
          </g>
        </g>
      </g>
    </g>
    <g id="Character" transform="translate(49.812 1.267)">
      <g id="Group_3093" data-name="Group 3093" transform="translate(0 0)">
        <g id="Group_2926" data-name="Group 2926" transform="translate(0 81.915)">
          <path id="Path_2152" data-name="Path 2152" d="M243.581,447.213c-.1.021-.546.471.087,1.188s4.452,2.673,5.158,1.5-1-1.983-1-1.983Z" transform="translate(-240.674 -432.09)" fill="#ffbe9d"/>
          <g id="Group_2919" data-name="Group 2919" transform="translate(0 2.127)">
            <g id="Group_2918" data-name="Group 2918">
              <path id="Path_2153" data-name="Path 2153" d="M242,417.723a36,36,0,0,1,5.549-.229,5.718,5.718,0,0,0,4.692-1.861,6.3,6.3,0,0,0,1.385-2.786l2.508-1.755s.271-5.962-3.7-5l-4.645.163s-9.137,1.514-10.553,2.652c0,0-1.721,1.672-2.223,2.321-.189.244-.352,2.7,1.394,3.539,0,0-1.029,1.317-.122,2.059l.427.323s-.59,1.312-.035,1.689,4.939,1.707,6.185.84-.2-1.868-.859-1.956" transform="translate(-234.898 -405.989)" fill="#ffbe9d"/>
            </g>
          </g>
          <g id="Group_2920" data-name="Group 2920" transform="translate(1.802 10.672)">
            <path id="Path_2154" data-name="Path 2154" d="M241,433.1a3.621,3.621,0,0,1,.516.055c.331.043.81.1,1.4.144.3.022.622.038.972.046s.724,0,1.125.027a2.331,2.331,0,0,1,1.206.382,1.337,1.337,0,0,1,.589,1.215,1.042,1.042,0,0,1-.352.624,1.833,1.833,0,0,1-.6.331,5.447,5.447,0,0,1-1.235.228,11.083,11.083,0,0,1-2.106-.041c-.6-.062-1.073-.142-1.4-.2a3.037,3.037,0,0,1-.508-.107,3.242,3.242,0,0,1,.517.043c.332.036.811.1,1.4.145a11.8,11.8,0,0,0,2.082.006,5.435,5.435,0,0,0,1.194-.229,1.68,1.68,0,0,0,.542-.3.879.879,0,0,0,.3-.526,1.184,1.184,0,0,0-.523-1.061A2.205,2.205,0,0,0,245,433.52c-.387-.035-.763-.025-1.116-.042s-.679-.037-.978-.066c-.6-.058-1.075-.135-1.4-.2A2.775,2.775,0,0,1,241,433.1Z" transform="translate(-240.613 -433.093)" fill="#eb996e"/>
          </g>
          <g id="Group_2921" data-name="Group 2921" transform="translate(1.641 7.824)">
            <path id="Path_2155" data-name="Path 2155" d="M240.334,424.062a3.542,3.542,0,0,1,.514.058c.329.044.806.107,1.4.158s1.3.091,2.08.091a2.737,2.737,0,0,1,1.244.187.994.994,0,0,1,.474.507,1.26,1.26,0,0,1,.065.706,1.687,1.687,0,0,1-.8,1.092,2.725,2.725,0,0,1-1.2.39,12.049,12.049,0,0,1-2.1-.1l-1.4-.142a3.149,3.149,0,0,1-.512-.074,3.1,3.1,0,0,1,.517.011l1.406.09a13.064,13.064,0,0,0,2.071.062,2.593,2.593,0,0,0,1.126-.375,1.537,1.537,0,0,0,.721-.986.929.929,0,0,0-.451-1.041,2.65,2.65,0,0,0-1.171-.178,20.773,20.773,0,0,1-2.091-.127c-.592-.066-1.068-.147-1.4-.21A2.815,2.815,0,0,1,240.334,424.062Z" transform="translate(-240.104 -424.059)" fill="#eb996e"/>
          </g>
          <g id="Group_2922" data-name="Group 2922" transform="translate(3.164 6.728)">
            <path id="Path_2156" data-name="Path 2156" d="M245.676,422.029a29.281,29.281,0,0,0-.736-1.444c.031-.03.314.227.524.643A1.368,1.368,0,0,1,245.676,422.029Z" transform="translate(-244.935 -420.582)" fill="#eb996e"/>
          </g>
          <g id="Group_2924" data-name="Group 2924" transform="translate(1.143)">
            <path id="Path_2157" data-name="Path 2157" d="M253.515,401.89l-3.726-.5s-10.531-2.147-10.633-1.869-.622.375-.233,1.5,6.466,2.131,6.737,2.489.465,2.451,2.851,3.41a7.211,7.211,0,0,0,3.864.638" transform="translate(-238.699 -399.419)" fill="#ffbe9d"/>
            <g id="Group_2923" data-name="Group 2923">
              <path id="Path_2158" data-name="Path 2158" d="M252.2,407.388a.259.259,0,0,1-.08.022c-.054.01-.135.024-.241.033a5.464,5.464,0,0,1-.937,0,8.828,8.828,0,0,1-3.291-.97,4.224,4.224,0,0,1-1.641-1.715,9.582,9.582,0,0,1-.507-1.225.765.765,0,0,0-.069-.138.284.284,0,0,0-.111-.07,3.214,3.214,0,0,0-.32-.113c-.221-.068-.45-.129-.681-.189-.926-.241-1.907-.473-2.91-.768-.5-.148-1.01-.31-1.514-.514a5.173,5.173,0,0,1-.741-.367,1.751,1.751,0,0,1-.339-.266.732.732,0,0,1-.13-.194,1.706,1.706,0,0,1-.071-.2,1.541,1.541,0,0,1-.052-.859,1,1,0,0,1,.229-.374.6.6,0,0,0,.1-.144c.008-.012-.007.005.025-.041a.105.105,0,0,1,.061-.037.318.318,0,0,1,.068-.011c.038,0,.074,0,.109,0,.551.035,1.07.129,1.587.209,1.031.17,2.021.354,2.963.532,1.884.358,3.577.7,5,.992.355.07.694.15,1.012.2l.913.128,1.462.208.923.138.24.04a.3.3,0,0,1,.081.019.329.329,0,0,1-.083,0l-.242-.024-.928-.108-1.467-.181-.916-.115c-.326-.05-.661-.126-1.018-.193l-5-.957c-.942-.174-1.932-.354-2.961-.522-.513-.079-1.042-.172-1.567-.2-.032,0-.064,0-.093,0a.186.186,0,0,0-.032,0c0-.005,0,.012-.008-.011s0-.026-.015-.038a.029.029,0,0,0-.014-.009c.125.047.033.017.06.03l-.007.014a.746.746,0,0,1-.13.186.837.837,0,0,0-.2.316,1.394,1.394,0,0,0,.053.764.724.724,0,0,0,.163.333,1.583,1.583,0,0,0,.305.239,4.987,4.987,0,0,0,.716.354c.495.2,1,.363,1.5.511,1,.3,1.975.531,2.9.776.232.062.461.124.686.194a3.33,3.33,0,0,1,.335.12.407.407,0,0,1,.17.119.848.848,0,0,1,.083.167,9.652,9.652,0,0,0,.494,1.217,4.118,4.118,0,0,0,1.58,1.678,8.076,8.076,0,0,0,1.8.723,8.351,8.351,0,0,0,1.441.283,6.273,6.273,0,0,0,.928.031c.106,0,.187-.012.241-.017A.4.4,0,0,1,252.2,407.388Z" transform="translate(-238.523 -399.243)" fill="#eb996e"/>
            </g>
          </g>
          <g id="Group_2925" data-name="Group 2925" transform="translate(2.189 13.668)">
            <path id="Path_2159" data-name="Path 2159" d="M245.607,442.6a1.217,1.217,0,0,1,.388.019,3.675,3.675,0,0,1,1.017.3,3.331,3.331,0,0,1,.636.377,1.117,1.117,0,0,1,.467.731.909.909,0,0,1-.468.834,1.754,1.754,0,0,1-1,.207,18.748,18.748,0,0,1-3.442-.507,10.444,10.444,0,0,1-1.008-.31,1.623,1.623,0,0,1-.355-.154,1.929,1.929,0,0,1,.375.094c.238.068.584.162,1.015.258a22.461,22.461,0,0,0,3.421.456,1.613,1.613,0,0,0,.91-.179.759.759,0,0,0,.4-.683.99.99,0,0,0-.4-.639,3.362,3.362,0,0,0-.6-.378A5.533,5.533,0,0,0,245.607,442.6Z" transform="translate(-241.842 -442.595)" fill="#eb996e"/>
          </g>
        </g>
        <g id="Group_2927" data-name="Group 2927" transform="translate(15.946 38.391)">
          <path id="Path_2160" data-name="Path 2160" d="M302.9,296.865s4.669-7.686,5.719-12.759,6.472-13.12,8.222-15.219,8.746-4.548,8.746-4.548l2.58-1.391,19.986-1.757s13.294,1.4,17.318,5.073,7.172,12.07,7.172,16.268,4.063,40.556,4.063,40.556l-49.249-.065,1.1-17.925s-5.948-4.023-7.522-7.522-.7-1.749-.7-1.749-5.583,11.87-7.507,13.269-24.29,8.263-24.29,8.263l-3.063-11.738Z" transform="translate(-285.477 -261.19)" fill="#e8505b"/>
        </g>
        <g id="Group_2928" data-name="Group 2928" transform="translate(59.49 44.629)">
          <path id="Path_2161" data-name="Path 2161" d="M455.618,281.277c-.54.167-7.21,17.4-7.68,18.964s0,11.441,0,11.441l2.194,4.075s-.627,2.978-.157,4.389l-9.874,1.881a4.376,4.376,0,0,0-4.858,0l-11.648.985s3.42.039,2.4,5.284c-1,5.138-1.756,6.268-1.756,6.268l40.938-.935s4.547-.225,3.854-8.971-2.645-32.869-2.645-32.869S463.4,278.863,455.618,281.277Z" transform="translate(-423.595 -280.977)" fill="#e8505b"/>
        </g>
        <g id="Group_2930" data-name="Group 2930" transform="translate(81.27 51.57)">
          <g id="Group_2929" data-name="Group 2929">
            <path id="Path_2162" data-name="Path 2162" d="M495.15,325.238a1.233,1.233,0,0,1-.1-.212l-.248-.62c-.108-.27-.237-.6-.363-.994s-.293-.833-.427-1.335-.3-1.045-.437-1.642c-.153-.592-.271-1.234-.4-1.909a32.444,32.444,0,0,1-.344-8.908c.081-.683.147-1.332.257-1.934.052-.3.092-.594.148-.871l.168-.8c.1-.51.23-.962.331-1.361s.2-.74.294-1.016l.206-.636a1.222,1.222,0,0,1,.083-.218,1.253,1.253,0,0,1-.051.228l-.177.643c-.081.278-.176.62-.266,1.021s-.216.853-.307,1.363l-.157.8c-.053.277-.09.569-.138.87-.1.6-.165,1.247-.241,1.927a33.716,33.716,0,0,0,.343,8.868c.124.672.237,1.313.383,1.9.126.6.278,1.142.416,1.641s.283.944.4,1.338.237.728.336,1l.219.631A1.279,1.279,0,0,1,495.15,325.238Z" transform="translate(-492.68 -302.785)" fill="#263238"/>
          </g>
        </g>
        <g id="Group_2932" data-name="Group 2932" transform="translate(85.461 83.978)">
          <g id="Group_2931" data-name="Group 2931">
            <path id="Path_2163" data-name="Path 2163" d="M518.5,414.452a.586.586,0,0,1-.1-.12l-.274-.362c-.115-.159-.259-.352-.438-.568s-.368-.471-.606-.731-.484-.556-.775-.849-.6-.6-.94-.925a21.495,21.495,0,0,0-4.954-3.427c-.419-.2-.814-.4-1.2-.553s-.738-.3-1.068-.426-.632-.219-.9-.309-.5-.158-.686-.21l-.435-.129a.58.58,0,0,1-.149-.055.562.562,0,0,1,.157.023l.444.1c.193.043.428.1.7.184s.579.163.91.287.7.245,1.082.41.788.345,1.212.543a20.448,20.448,0,0,1,4.99,3.451c.335.327.659.632.936.942s.539.6.765.868.418.527.59.75.309.421.417.587l.249.38A.582.582,0,0,1,518.5,414.452Z" transform="translate(-505.972 -405.788)" fill="#263238"/>
          </g>
        </g>
        <g id="Group_2934" data-name="Group 2934" transform="translate(92.623 86.883)">
          <g id="Group_2933" data-name="Group 2933">
            <path id="Path_2164" data-name="Path 2164" d="M537.5,418.464c-.024.022-.386-.391-1.069-.947a10.859,10.859,0,0,0-1.265-.883,10.782,10.782,0,0,0-3.515-1.333,10.914,10.914,0,0,0-1.533-.178c-.88-.037-1.425.032-1.428,0a1.768,1.768,0,0,1,.38-.065,3.982,3.982,0,0,1,.451-.038c.176-.006.378-.023.6-.013a9.732,9.732,0,0,1,1.556.146,10.161,10.161,0,0,1,3.566,1.352,9.759,9.759,0,0,1,1.261.923c.173.14.313.286.44.408a4.022,4.022,0,0,1,.312.328A1.737,1.737,0,0,1,537.5,418.464Z" transform="translate(-528.689 -415.003)" fill="#263238"/>
          </g>
        </g>
        <g id="Group_2936" data-name="Group 2936" transform="translate(87.313 82.626)">
          <g id="Group_2935" data-name="Group 2935">
            <path id="Path_2165" data-name="Path 2165" d="M522.18,403.457c-.021.029-.5-.355-1.386-.791a7.407,7.407,0,0,0-.736-.321c-.266-.114-.563-.2-.872-.3a10.01,10.01,0,0,0-4.182-.286c-.32.055-.625.1-.9.175a7.471,7.471,0,0,0-.773.218c-.934.312-1.464.626-1.481.594a2.142,2.142,0,0,1,.368-.224,3.752,3.752,0,0,1,.453-.226,6.185,6.185,0,0,1,.621-.253,6.975,6.975,0,0,1,.778-.241,9.1,9.1,0,0,1,.915-.193,9.634,9.634,0,0,1,4.246.291,9.136,9.136,0,0,1,.88.316,6.934,6.934,0,0,1,.738.344,6.131,6.131,0,0,1,.581.336,3.745,3.745,0,0,1,.418.286A2.122,2.122,0,0,1,522.18,403.457Z" transform="translate(-511.846 -401.501)" fill="#263238"/>
          </g>
        </g>
        <g id="Group_2938" data-name="Group 2938" transform="translate(70.734 86.205)">
          <g id="Group_2937" data-name="Group 2937">
            <path id="Path_2166" data-name="Path 2166" d="M462.229,424.152a14.581,14.581,0,0,0,.291-1.754,11.47,11.47,0,0,0-.015-1.925,15.356,15.356,0,0,0-.412-2.323,15.857,15.857,0,0,0-.785-2.225,11.851,11.851,0,0,0-.937-1.682,16.05,16.05,0,0,0-1.111-1.389,2.7,2.7,0,0,1,.361.318,3.728,3.728,0,0,1,.385.414l.229.269c.076.1.15.209.232.321a10.972,10.972,0,0,1,.979,1.685,14.855,14.855,0,0,1,.806,2.247,14.462,14.462,0,0,1,.4,2.352,10.659,10.659,0,0,1-.02,1.949q-.023.205-.044.394l-.068.347a3.853,3.853,0,0,1-.133.549A2.669,2.669,0,0,1,462.229,424.152Z" transform="translate(-459.259 -412.853)" fill="#263238"/>
          </g>
        </g>
        <g id="Group_2940" data-name="Group 2940" transform="translate(64.215 49.806)">
          <g id="Group_2939" data-name="Group 2939">
            <path id="Path_2167" data-name="Path 2167" d="M441.209,333.263a.387.387,0,0,1-.02-.091l-.043-.27L441,331.865c-.128-.9-.3-2.208-.49-3.825-.388-3.233-.851-7.709-1.214-12.665s-.551-9.454-.636-12.709c-.043-1.628-.066-2.945-.07-3.856,0-.446,0-.8,0-1.048l0-.273a.047.047,0,1,1,.017,0c0,.071.008.16.013.272l.034,1.048c.029.922.071,2.235.122,3.853.114,3.253.323,7.746.683,12.7s.806,9.428,1.166,12.663c.184,1.608.333,2.914.438,3.83.05.443.09.792.118,1.042l.027.271A.4.4,0,0,1,441.209,333.263Z" transform="translate(-438.584 -297.397)" fill="#263238"/>
          </g>
        </g>
        <g id="Group_2942" data-name="Group 2942" transform="translate(44.939 61.257)">
          <g id="Group_2941" data-name="Group 2941">
            <path id="Path_2168" data-name="Path 2168" d="M383.261,345.587a3.193,3.193,0,0,1-.214-.482c-.125-.315-.314-.767-.551-1.324-.474-1.114-1.181-2.63-2.024-4.275l-2.181-4.2c-.274-.541-.493-.98-.638-1.287a3.225,3.225,0,0,1-.211-.483,3.264,3.264,0,0,1,.268.454l.684,1.262c.574,1.067,1.379,2.536,2.224,4.183s1.537,3.177,1.985,4.3c.224.564.4,1.024.5,1.346A3.314,3.314,0,0,1,383.261,345.587Z" transform="translate(-377.441 -333.533)" fill="#263238"/>
          </g>
        </g>
        <g id="Group_2944" data-name="Group 2944" transform="translate(41.687 64.246)">
          <g id="Group_2943" data-name="Group 2943">
            <path id="Path_2169" data-name="Path 2169" d="M373.681,346.239a1,1,0,0,1-.285-.055c-.181-.044-.44-.12-.757-.224a18.663,18.663,0,0,1-4.658-2.307c-.274-.189-.492-.35-.637-.467s-.223-.185-.217-.194a9.737,9.737,0,0,1,.917.563c.562.353,1.352.817,2.258,1.266s1.754.795,2.375,1.028A9.736,9.736,0,0,1,373.681,346.239Z" transform="translate(-367.126 -342.992)" fill="#263238"/>
          </g>
        </g>
        <g id="Group_2946" data-name="Group 2946" transform="translate(34.723 74.752)">
          <g id="Group_2945" data-name="Group 2945">
            <path id="Path_2170" data-name="Path 2170" d="M354.329,379.872a1.827,1.827,0,0,1-.339-.206c-.21-.143-.519-.342-.906-.578a18.676,18.676,0,0,0-6.593-2.469c-.447-.077-.811-.13-1.063-.16a1.835,1.835,0,0,1-.391-.067,1.879,1.879,0,0,1,.4,0c.255.01.623.046,1.075.108a16.485,16.485,0,0,1,6.636,2.485c.382.25.683.465.882.625A1.854,1.854,0,0,1,354.329,379.872Z" transform="translate(-345.038 -376.386)" fill="#263238"/>
          </g>
        </g>
        <g id="Group_2948" data-name="Group 2948" transform="translate(64.227 38.525)">
          <g id="Group_2947" data-name="Group 2947">
            <path id="Path_2171" data-name="Path 2171" d="M452.494,261.277a1.485,1.485,0,0,1-.018.256l-.084.731c-.082.634-.2,1.552-.388,2.679a34.311,34.311,0,0,1-.883,3.921,18.327,18.327,0,0,1-1.983,4.5,13.986,13.986,0,0,1-1.643,2.106l-.064.07-.058-.078a8.329,8.329,0,0,0-2.992-2.482,8.163,8.163,0,0,0-1.575-.58,7.163,7.163,0,0,0-1.434-.193,5.942,5.942,0,0,0-2.045.288c-.458.16-.7.28-.706.265a.983.983,0,0,1,.172-.092,4.409,4.409,0,0,1,.516-.226,5.72,5.72,0,0,1,2.065-.339,7.119,7.119,0,0,1,1.461.176,8.154,8.154,0,0,1,1.608.575,8.388,8.388,0,0,1,3.061,2.512l-.123-.008A14.018,14.018,0,0,0,449,273.28a18.534,18.534,0,0,0,1.976-4.459,36.408,36.408,0,0,0,.914-3.9c.207-1.122.338-2.038.439-2.668.048-.3.086-.546.114-.727A1.494,1.494,0,0,1,452.494,261.277Z" transform="translate(-438.621 -261.277)" fill="#263238"/>
          </g>
        </g>
        <g id="Group_2949" data-name="Group 2949" transform="translate(61.307 34.714)">
          <path id="Path_2172" data-name="Path 2172" d="M446.422,253.164l-3.037-4.025-3.3.1-10.725,5.666Z" transform="translate(-429.36 -249.139)" fill="#e8505b"/>
        </g>
        <g id="Group_2951" data-name="Group 2951" transform="translate(56.738 41.392)">
          <g id="Group_2950" data-name="Group 2950">
            <path id="Path_2173" data-name="Path 2173" d="M422.356,278.993a.7.7,0,0,1-.174,0,3.561,3.561,0,0,1-.494-.081,6.16,6.16,0,0,1-1.694-.724,3.639,3.639,0,0,0-1.152-.477,3.382,3.382,0,0,0-1.423,0,3.327,3.327,0,0,0-2.381,2.07l-.172.462.013-.493c0-.122.007-.253.01-.386.039-2.482.041-4.736.142-6.364.045-.814.111-1.472.177-1.923.03-.226.064-.4.089-.518a.774.774,0,0,1,.046-.177c.016,0-.029.251-.072.7s-.095,1.108-.125,1.921c-.072,1.626-.055,3.874-.094,6.362,0,.133-.007.265-.01.387l-.159-.032a3.459,3.459,0,0,1,2.5-2.159,3.531,3.531,0,0,1,2.661.527,6.6,6.6,0,0,0,1.652.762C422.117,278.963,422.358,278.977,422.356,278.993Z" transform="translate(-414.867 -270.376)" fill="#263238"/>
          </g>
        </g>
        <g id="Group_3075" data-name="Group 3075" transform="translate(44.54)">
          <g id="Group_3074" data-name="Group 3074">
            <g id="Group_2970" data-name="Group 2970" transform="translate(5.742 2.719)">
              <g id="Group_2969" data-name="Group 2969">
                <g id="Group_2968" data-name="Group 2968">
                  <g id="Group_2959" data-name="Group 2959">
                    <g id="Group_2958" data-name="Group 2958">
                      <g id="Group_2957" data-name="Group 2957">
                        <g id="Group_2956" data-name="Group 2956">
                          <g id="Group_2955" data-name="Group 2955">
                            <g id="Group_2954" data-name="Group 2954">
                              <g id="Group_2953" data-name="Group 2953">
                                <g id="Group_2952" data-name="Group 2952">
                                  <path id="Path_2174" data-name="Path 2174" d="M419.438,160V184.17a5.858,5.858,0,0,1-1.378,3.774h0a17.7,17.7,0,0,1-4.854,4.021l-4.876,2.746-4.033-3.6a5.867,5.867,0,0,1-1.952-4.144c-.07-1.761-.069-3.535-.069-3.535s-6.833-.491-7.475-7.228c-.3-3.173-.4-9.671-.414-15.659a13.107,13.107,0,0,1,12.029-13.093l.193-.016A12.526,12.526,0,0,1,419.438,160Z" transform="translate(-394.388 -147.43)" fill="#ffbe9d"/>
                                </g>
                              </g>
                            </g>
                          </g>
                        </g>
                      </g>
                    </g>
                  </g>
                  <g id="Group_2967" data-name="Group 2967" transform="translate(7.87 32.677)">
                    <g id="Group_2966" data-name="Group 2966">
                      <g id="Group_2965" data-name="Group 2965">
                        <g id="Group_2964" data-name="Group 2964">
                          <g id="Group_2963" data-name="Group 2963">
                            <g id="Group_2962" data-name="Group 2962">
                              <g id="Group_2961" data-name="Group 2961">
                                <g id="Group_2960" data-name="Group 2960">
                                  <path id="Path_2175" data-name="Path 2175" d="M419.35,254.307a15.739,15.739,0,0,0,8.587-3.227s-1.677,5.026-8.458,4.976Z" transform="translate(-419.35 -251.08)" fill="#eb996e"/>
                                </g>
                              </g>
                            </g>
                          </g>
                        </g>
                      </g>
                    </g>
                  </g>
                </g>
              </g>
            </g>
            <g id="Group_3045" data-name="Group 3045" transform="translate(7.445 12.904)">
              <g id="Group_3044" data-name="Group 3044">
                <g id="Group_3027" data-name="Group 3027" transform="translate(0 3.82)">
                  <g id="Group_3026" data-name="Group 3026">
                    <g id="Group_3025" data-name="Group 3025">
                      <g id="Group_2988" data-name="Group 2988" transform="translate(0 0.65)">
                        <g id="Group_2978" data-name="Group 2978" transform="translate(0.567 2.035)">
                          <g id="Group_2977" data-name="Group 2977">
                            <g id="Group_2976" data-name="Group 2976">
                              <g id="Group_2975" data-name="Group 2975">
                                <g id="Group_2974" data-name="Group 2974">
                                  <g id="Group_2973" data-name="Group 2973">
                                    <g id="Group_2972" data-name="Group 2972">
                                      <g id="Group_2971" data-name="Group 2971">
                                        <path id="Path_2176" data-name="Path 2176" d="M401.588,201.322a.967.967,0,0,0,1.009.895.924.924,0,0,0,.921-.951.967.967,0,0,0-1.008-.9A.926.926,0,0,0,401.588,201.322Z" transform="translate(-401.587 -200.37)" fill="#263238"/>
                                      </g>
                                    </g>
                                  </g>
                                </g>
                              </g>
                            </g>
                          </g>
                        </g>
                        <g id="Group_2987" data-name="Group 2987">
                          <g id="Group_2986" data-name="Group 2986">
                            <g id="Group_2985" data-name="Group 2985">
                              <g id="Group_2984" data-name="Group 2984">
                                <g id="Group_2983" data-name="Group 2983">
                                  <g id="Group_2982" data-name="Group 2982">
                                    <g id="Group_2981" data-name="Group 2981">
                                      <g id="Group_2980" data-name="Group 2980">
                                        <g id="Group_2979" data-name="Group 2979">
                                          <path id="Path_2177" data-name="Path 2177" d="M399.808,195.091c.13.116.815-.485,1.852-.568,1.034-.1,1.839.372,1.941.236.051-.061-.09-.277-.441-.491a2.651,2.651,0,0,0-1.567-.344,2.546,2.546,0,0,0-1.461.608C399.833,194.8,399.744,195.04,399.808,195.091Z" transform="translate(-399.788 -193.914)" fill="#263238"/>
                                        </g>
                                      </g>
                                    </g>
                                  </g>
                                </g>
                              </g>
                            </g>
                          </g>
                        </g>
                      </g>
                      <g id="Group_3006" data-name="Group 3006" transform="translate(10.205)">
                        <g id="Group_2996" data-name="Group 2996" transform="translate(0.224 2.268)">
                          <g id="Group_2995" data-name="Group 2995">
                            <g id="Group_2994" data-name="Group 2994">
                              <g id="Group_2993" data-name="Group 2993">
                                <g id="Group_2992" data-name="Group 2992">
                                  <g id="Group_2991" data-name="Group 2991">
                                    <g id="Group_2990" data-name="Group 2990">
                                      <g id="Group_2989" data-name="Group 2989">
                                        <path id="Path_2178" data-name="Path 2178" d="M432.87,200a.967.967,0,0,0,1.009.895.924.924,0,0,0,.921-.951.967.967,0,0,0-1.009-.9A.925.925,0,0,0,432.87,200Z" transform="translate(-432.869 -199.045)" fill="#263238"/>
                                      </g>
                                    </g>
                                  </g>
                                </g>
                              </g>
                            </g>
                          </g>
                        </g>
                        <g id="Group_3005" data-name="Group 3005">
                          <g id="Group_3004" data-name="Group 3004">
                            <g id="Group_3003" data-name="Group 3003">
                              <g id="Group_3002" data-name="Group 3002">
                                <g id="Group_3001" data-name="Group 3001">
                                  <g id="Group_3000" data-name="Group 3000">
                                    <g id="Group_2999" data-name="Group 2999">
                                      <g id="Group_2998" data-name="Group 2998">
                                        <g id="Group_2997" data-name="Group 2997">
                                          <path id="Path_2179" data-name="Path 2179" d="M432.177,193.029c.13.116.816-.485,1.852-.568s1.839.373,1.941.236c.05-.061-.089-.277-.441-.491a2.65,2.65,0,0,0-1.567-.345,2.548,2.548,0,0,0-1.461.609C432.2,192.742,432.114,192.978,432.177,193.029Z" transform="translate(-432.157 -191.852)" fill="#263238"/>
                                        </g>
                                      </g>
                                    </g>
                                  </g>
                                </g>
                              </g>
                            </g>
                          </g>
                        </g>
                      </g>
                      <g id="Group_3015" data-name="Group 3015" transform="translate(4.392 0.5)">
                        <g id="Group_3014" data-name="Group 3014">
                          <g id="Group_3013" data-name="Group 3013">
                            <g id="Group_3012" data-name="Group 3012">
                              <g id="Group_3011" data-name="Group 3011">
                                <g id="Group_3010" data-name="Group 3010">
                                  <g id="Group_3009" data-name="Group 3009">
                                    <g id="Group_3008" data-name="Group 3008">
                                      <g id="Group_3007" data-name="Group 3007">
                                        <path id="Path_2180" data-name="Path 2180" d="M416.426,202.113a6.886,6.886,0,0,0-1.709-.164c-.267-.005-.522-.038-.581-.214a1.353,1.353,0,0,1,.112-.8l.616-2.08a34.735,34.735,0,0,0,1.322-5.417,34.857,34.857,0,0,0-1.754,5.3q-.3,1.094-.582,2.09a1.538,1.538,0,0,0-.051,1.05.665.665,0,0,0,.467.351,1.805,1.805,0,0,0,.455.026A6.771,6.771,0,0,0,416.426,202.113Z" transform="translate(-413.719 -193.438)" fill="#263238"/>
                                      </g>
                                    </g>
                                  </g>
                                </g>
                              </g>
                            </g>
                          </g>
                        </g>
                      </g>
                      <g id="Group_3024" data-name="Group 3024" transform="translate(7.132 9.64)">
                        <g id="Group_3023" data-name="Group 3023">
                          <g id="Group_3022" data-name="Group 3022">
                            <g id="Group_3021" data-name="Group 3021">
                              <g id="Group_3020" data-name="Group 3020">
                                <g id="Group_3019" data-name="Group 3019">
                                  <g id="Group_3018" data-name="Group 3018">
                                    <g id="Group_3017" data-name="Group 3017">
                                      <g id="Group_3016" data-name="Group 3016">
                                        <path id="Path_2181" data-name="Path 2181" d="M425.487,222.429c-.169,0-.079,1.129-.975,2.008s-2.1.854-2.1,1.012c-.01.072.285.2.792.168a2.81,2.81,0,0,0,1.759-.781,2.449,2.449,0,0,0,.746-1.678C425.712,222.684,425.564,222.416,425.487,222.429Z" transform="translate(-422.411 -222.429)" fill="#263238"/>
                                      </g>
                                    </g>
                                  </g>
                                </g>
                              </g>
                            </g>
                          </g>
                        </g>
                      </g>
                    </g>
                  </g>
                </g>
                <g id="Group_3035" data-name="Group 3035" transform="translate(9.611)">
                  <g id="Group_3034" data-name="Group 3034">
                    <g id="Group_3033" data-name="Group 3033">
                      <g id="Group_3032" data-name="Group 3032">
                        <g id="Group_3031" data-name="Group 3031">
                          <g id="Group_3030" data-name="Group 3030">
                            <g id="Group_3029" data-name="Group 3029">
                              <g id="Group_3028" data-name="Group 3028">
                                <path id="Path_2182" data-name="Path 2182" d="M430.283,180.693c.126.273,1.149.054,2.378.1,1.229.021,2.239.3,2.38.03.062-.127-.131-.378-.55-.618a4.136,4.136,0,0,0-3.624-.1C430.435,180.323,430.228,180.562,430.283,180.693Z" transform="translate(-430.274 -179.735)" fill="#263238"/>
                              </g>
                            </g>
                          </g>
                        </g>
                      </g>
                    </g>
                  </g>
                </g>
                <g id="Group_3043" data-name="Group 3043" transform="translate(0.117 1.384)">
                  <g id="Group_3042" data-name="Group 3042">
                    <g id="Group_3041" data-name="Group 3041">
                      <g id="Group_3040" data-name="Group 3040">
                        <g id="Group_3039" data-name="Group 3039">
                          <g id="Group_3038" data-name="Group 3038">
                            <g id="Group_3037" data-name="Group 3037">
                              <g id="Group_3036" data-name="Group 3036">
                                <path id="Path_2183" data-name="Path 2183" d="M400.195,185.357c.2.22.9-.083,1.753-.166.855-.113,1.6.027,1.746-.233.063-.125-.071-.352-.407-.549a2.55,2.55,0,0,0-2.819.322C400.184,185,400.1,185.248,400.195,185.357Z" transform="translate(-400.16 -184.124)" fill="#263238"/>
                              </g>
                            </g>
                          </g>
                        </g>
                      </g>
                    </g>
                  </g>
                </g>
              </g>
            </g>
            <g id="Group_3047" data-name="Group 3047" transform="translate(22.857 4.022)">
              <g id="Group_3046" data-name="Group 3046">
                <path id="Path_2184" data-name="Path 2184" d="M448.676,156.039l.039.026a5.324,5.324,0,0,1,2.256,3.268l.03.135c.423,1.9.538,3.863.979,5.761s.36,3.348,2.261,3.776a2.531,2.531,0,0,0,2.647-1.075,1.651,1.651,0,0,0,.167-.9c-.025-4.675.915-6.491.5-11.347a4.108,4.108,0,0,0-1.975-3.192c-1.078-.645-2.382-1.3-3.468-.669s-2.375,2.866-3.177,3.835" transform="translate(-448.676 -151.564)" fill="#263238"/>
              </g>
            </g>
            <g id="Group_3065" data-name="Group 3065" transform="translate(28.771 18.177)">
              <g id="Group_3055" data-name="Group 3055">
                <g id="Group_3054" data-name="Group 3054">
                  <g id="Group_3053" data-name="Group 3053">
                    <g id="Group_3052" data-name="Group 3052">
                      <g id="Group_3051" data-name="Group 3051">
                        <g id="Group_3050" data-name="Group 3050">
                          <g id="Group_3049" data-name="Group 3049">
                            <g id="Group_3048" data-name="Group 3048">
                              <path id="Path_2185" data-name="Path 2185" d="M467.434,196.812c.111-.059,4.521-1.754,4.755,2.869s-4.456,3.9-4.47,3.773S467.434,196.812,467.434,196.812Z" transform="translate(-467.434 -196.46)" fill="#ffbe9d"/>
                            </g>
                          </g>
                        </g>
                      </g>
                    </g>
                  </g>
                </g>
              </g>
              <g id="Group_3064" data-name="Group 3064" transform="translate(1.605 1.467)">
                <g id="Group_3063" data-name="Group 3063">
                  <g id="Group_3062" data-name="Group 3062">
                    <g id="Group_3061" data-name="Group 3061">
                      <g id="Group_3060" data-name="Group 3060">
                        <g id="Group_3059" data-name="Group 3059">
                          <g id="Group_3058" data-name="Group 3058">
                            <g id="Group_3057" data-name="Group 3057">
                              <g id="Group_3056" data-name="Group 3056">
                                <path id="Path_2186" data-name="Path 2186" d="M472.528,204.817c.02-.016.084.052.223.108a.807.807,0,0,0,.6-.018,2,2,0,0,0,.831-1.835,2.663,2.663,0,0,0-.284-1.142.931.931,0,0,0-.637-.588.411.411,0,0,0-.464.245c-.055.132-.021.223-.045.232s-.1-.073-.076-.265a.518.518,0,0,1,.167-.3.61.61,0,0,1,.44-.14,1.134,1.134,0,0,1,.878.674,2.738,2.738,0,0,1,.345,1.275,2.094,2.094,0,0,1-1.074,2.056.864.864,0,0,1-.743-.085C472.542,204.929,472.512,204.827,472.528,204.817Z" transform="translate(-472.524 -201.114)" fill="#eb996e"/>
                              </g>
                            </g>
                          </g>
                        </g>
                      </g>
                    </g>
                  </g>
                </g>
              </g>
            </g>
            <g id="Group_3067" data-name="Group 3067">
              <g id="Group_3066" data-name="Group 3066">
                <path id="Path_2187" data-name="Path 2187" d="M402.688,143.783c.982-1.939-2.348-4.33-4.683-4.859s-5.241.828-7.444,1.767a12.606,12.606,0,0,1-4.269,1.434,10.2,10.2,0,0,1-2.985-.5,7.483,7.483,0,0,0-3-.338,2.792,2.792,0,0,0-2.3,1.74,1.749,1.749,0,0,0,1.36,2.258,2.272,2.272,0,1,0-.256,4.246c-.7-.443-1.634.462-1.486,1.274a2.394,2.394,0,0,0,1.721,1.615,8.662,8.662,0,0,0,6.148-.6c1.935-.835,3.695-2.031,5.608-2.914s5.112-2.447,7.15-1.912c1.5.393,2.661,2.066,3.453,1.61A2.829,2.829,0,0,0,403,146.4a8.194,8.194,0,0,0-.308-2.618" transform="translate(-376.175 -138.805)" fill="#263238"/>
              </g>
            </g>
            <g id="Group_3070" data-name="Group 3070" transform="translate(2.626 1.293)">
              <g id="Group_3069" data-name="Group 3069">
                <g id="Group_3068" data-name="Group 3068">
                  <path id="Path_2188" data-name="Path 2188" d="M384.507,148.008c.037-.026.266.322.806.819a6.38,6.38,0,0,0,2.7,1.437,5.863,5.863,0,0,0,4.383-.542,20.876,20.876,0,0,0,4.171-3.8A9.6,9.6,0,0,1,401.543,143a5.335,5.335,0,0,1,4.536,1.162,4.039,4.039,0,0,1,1.293,2.894,3.15,3.15,0,0,1-.129.864c-.068.188-.113.282-.127.277a7.538,7.538,0,0,0,.078-1.135,3.981,3.981,0,0,0-1.332-2.66,5.057,5.057,0,0,0-4.243-.987,9.364,9.364,0,0,0-4.73,2.828c-1.409,1.421-2.673,2.979-4.291,3.847a6.292,6.292,0,0,1-7.409-1.137,4.3,4.3,0,0,1-.54-.679C384.543,148.109,384.494,148.017,384.507,148.008Z" transform="translate(-384.505 -142.907)" fill="#455a64"/>
                </g>
              </g>
            </g>
            <g id="Group_3073" data-name="Group 3073" transform="translate(25.595 6.393)">
              <g id="Group_3072" data-name="Group 3072">
                <g id="Group_3071" data-name="Group 3071">
                  <path id="Path_2189" data-name="Path 2189" d="M461.694,170.92c-.016.017-.209-.11-.414-.462a3.112,3.112,0,0,1-.368-1.652c-.021-1.494,1.161-3.2,1.158-5.264a4.652,4.652,0,0,0-.738-2.71,3.534,3.534,0,0,0-1.836-1.338,3.009,3.009,0,0,0-1.557-.082c-.365.09-.558.192-.578.157-.013-.018.15-.177.526-.328a2.88,2.88,0,0,1,1.695-.059,3.73,3.73,0,0,1,2.094,1.407,4.908,4.908,0,0,1,.852,2.959,8.428,8.428,0,0,1-.649,2.98,8.774,8.774,0,0,0-.644,2.3A3.569,3.569,0,0,0,461.694,170.92Z" transform="translate(-457.36 -159.083)" fill="#455a64"/>
                </g>
              </g>
            </g>
          </g>
        </g>
        <g id="Group_3076" data-name="Group 3076" transform="translate(72.178 19.802)">
          <rect id="Rectangle_888" data-name="Rectangle 888" width="2.373" height="5.495" rx="1.186" transform="matrix(0.734, 0.68, -0.68, 0.734, 3.734, 0)" fill="#263238"/>
        </g>
        <g id="Group_3078" data-name="Group 3078" transform="translate(58.838 60.77)">
          <g id="Group_3077" data-name="Group 3077">
            <path id="Path_2190" data-name="Path 2190" d="M465.833,332.174s.008.062.018.184l.041.543.148,2.114c.125,1.853.307,4.561.538,7.992s.5,7.594.817,12.345q.117,1.782.241,3.673c.047.629.071,1.271.1,1.921a9.541,9.541,0,0,1-.008.982,9.739,9.739,0,0,1-.056.994q-.061.5-.123,1-.107.5-.214,1c-.095.329-.207.656-.311.988-.145.316-.265.646-.436.953a5.724,5.724,0,0,1-3.125,2.848l-.006,0h-.011l-30.841-.007-9.781-.005h-.107l.029-.1.888-3.167.439-1.564a11.033,11.033,0,0,0,.365-1.556,6.772,6.772,0,0,0-.271-3.1,3.838,3.838,0,0,0-.736-1.33,2.176,2.176,0,0,0-1.257-.739l-.646-.1.645-.055,11.649-.979-.036.014a3.978,3.978,0,0,1,2.509-.771,5.027,5.027,0,0,1,2.43.773l-.051-.011,9.876-1.871-.044.075a4.228,4.228,0,0,1-.17-1.161,10.046,10.046,0,0,1,.031-1.128,18.085,18.085,0,0,1,.3-2.129l.005.036-2.188-4.079-.005-.009v-.01c-.155-3.634-.209-6.5-.184-8.455.011-.978.048-1.728.1-2.232a3.923,3.923,0,0,1,.084-.568c.027-.126.044-.189.044-.189s-.009.065-.032.191a4.365,4.365,0,0,0-.072.567c-.044.5-.074,1.253-.077,2.23-.011,1.954.057,4.818.225,8.45l-.005-.019,2.2,4.072.009.016,0,.019a18.132,18.132,0,0,0-.292,2.116,10.062,10.062,0,0,0-.028,1.116,4.13,4.13,0,0,0,.167,1.128l.021.063-.065.012-9.872,1.89-.026.005-.025-.016a4.9,4.9,0,0,0-2.359-.745,3.833,3.833,0,0,0-2.419.747l-.017.012-.02,0-11.648.991v-.155a2.313,2.313,0,0,1,1.362.789,3.992,3.992,0,0,1,.769,1.384,6.925,6.925,0,0,1,.28,3.17,11.2,11.2,0,0,1-.369,1.576l-.438,1.564-.887,3.168-.078-.1,9.781,0,30.841.024-.017,0a4.7,4.7,0,0,0,1.789-1.1,6.683,6.683,0,0,0,1.246-1.668c.168-.3.287-.626.429-.936.1-.327.214-.648.308-.973q.107-.5.213-.987l.123-.991a20.48,20.48,0,0,0,.067-1.96c-.028-.646-.05-1.283-.1-1.913q-.121-1.891-.234-3.674c-.3-4.752-.565-8.913-.782-12.348s-.382-6.141-.5-8c-.055-.923-.1-1.633-.125-2.116q-.019-.356-.029-.544C465.833,332.236,465.833,332.174,465.833,332.174Z" transform="translate(-421.527 -332.174)" fill="#263238"/>
          </g>
        </g>
        <g id="Group_3080" data-name="Group 3080" transform="translate(84.982 43.686)">
          <g id="Group_3079" data-name="Group 3079">
            <path id="Path_2191" data-name="Path 2191" d="M513.688,277.684c.007.013-.2.127-.562.349a13.109,13.109,0,0,0-1.459,1.045,17.145,17.145,0,0,0-3.778,4.521,37.521,37.521,0,0,0-2.523,5.366l-.655,1.679-.183.455a.655.655,0,0,1-.074.155.684.684,0,0,1,.043-.166l.154-.466c.137-.4.341-.985.606-1.7a33.728,33.728,0,0,1,2.49-5.408,16.436,16.436,0,0,1,3.846-4.528,11.239,11.239,0,0,1,1.5-1.01c.184-.108.336-.175.436-.226A.682.682,0,0,1,513.688,277.684Z" transform="translate(-504.455 -277.683)" fill="#263238"/>
          </g>
        </g>
        <g id="Group_3082" data-name="Group 3082" transform="translate(75.621 55.629)" opacity="0.3">
          <g id="Group_3081" data-name="Group 3081">
            <path id="Path_2192" data-name="Path 2192" d="M481.015,315.867a20.887,20.887,0,0,0-1.762,9.429,71.388,71.388,0,0,1,.19,9.61c-.314,3.192-1.423,6.449-3.8,8.6a3.1,3.1,0,0,0-.768.854.869.869,0,0,0,.147,1.056,1.257,1.257,0,0,0,.99.1c2.282-.4,4.587-.679,6.869-1.075.489-.085,2.133-.406,2.133-.406a8.907,8.907,0,0,1-.139-1.875c.073-.571.3-2.513.3-2.513a3.417,3.417,0,0,0-.437-.812,18.707,18.707,0,0,1-1.891-4.852,22.015,22.015,0,0,1-1.489-4.683c-1-4.132-.972-8.2-.335-13.434" transform="translate(-474.76 -315.867)"/>
          </g>
        </g>
        <g id="Group_3084" data-name="Group 3084" transform="translate(56.848 48.742)" opacity="0.3">
          <g id="Group_3083" data-name="Group 3083">
            <path id="Path_2193" data-name="Path 2193" d="M415.251,296l.561,1.42a.571.571,0,0,0,.273.358c.28.108.5-.237.637-.506a3.645,3.645,0,0,1,2.8-1.966c.958-.11,1.942.168,2.886-.029a12.893,12.893,0,0,0-2.6-1.3,4.336,4.336,0,0,0-2.859-.027,2.638,2.638,0,0,0-1.728,2.155" transform="translate(-415.215 -293.72)"/>
          </g>
        </g>
        <g id="Group_3086" data-name="Group 3086" transform="translate(64.5 42.764)" opacity="0.3">
          <g id="Group_3085" data-name="Group 3085">
            <path id="Path_2194" data-name="Path 2194" d="M439.666,281.811a15.506,15.506,0,0,1,3.339.3,5.21,5.21,0,0,1,2.859,1.648,8.469,8.469,0,0,1,1.354,3.31c.059.223.167.489.4.514a.567.567,0,0,0,.378-.15,11.029,11.029,0,0,0,3.813-5.745,25.154,25.154,0,0,0,.877-6.937,30.487,30.487,0,0,0-1.887,5.193,8.419,8.419,0,0,1-3.018,4.515,1.513,1.513,0,0,0-.352-1.107,3.342,3.342,0,0,0-.919-.751,8.762,8.762,0,0,0-7.018-.859" transform="translate(-439.488 -274.749)"/>
          </g>
        </g>
        <g id="Group_3092" data-name="Group 3092" transform="translate(36.38 83.996)">
          <g id="Group_3087" data-name="Group 3087">
            <path id="Path_2195" data-name="Path 2195" d="M373.69,408.712h-3.86s-8.711-3.147-10.5-2.847c-1.613.271-7.519,4.194-8.676,4.971a.734.734,0,0,0-.28.357h0a1.267,1.267,0,0,0,.7,1.609l.122.05-.053.176a2.094,2.094,0,0,0-.089.7.851.851,0,0,0,1.582.368l-.223.4a.972.972,0,0,0-.123.529l.02.359a.969.969,0,0,0,.667.868h0a.965.965,0,0,0,1.014-.266c.749-.824,2.367-2.474,3.462-2.656a25.677,25.677,0,0,1,3.575-.179,1.212,1.212,0,0,1,1.124.774h0c-.65.046-5.175,2.407-6.777,3.252a1.713,1.713,0,0,0-.931,1.289c-.059.5.195,1.027,1.186.8A43.769,43.769,0,0,0,361.59,417a4.378,4.378,0,0,1,3.255.339c1.8,1.27,2.625,1.736,4.171,1.223a13.081,13.081,0,0,0,2.686-1.248l3.045-.3S377.627,409.815,373.69,408.712Z" transform="translate(-350.292 -405.845)" fill="#ffbe9d"/>
          </g>
          <g id="Group_3089" data-name="Group 3089" transform="translate(2.249 3.961)">
            <g id="Group_3088" data-name="Group 3088">
              <path id="Path_2196" data-name="Path 2196" d="M367.071,418.787c-.007.033-.618-.163-1.636-.227a8.449,8.449,0,0,0-7.041,3c-.658.78-.939,1.356-.968,1.338a2,2,0,0,1,.194-.4,7.389,7.389,0,0,1,.685-1.009,8.191,8.191,0,0,1,7.139-3.046,7.363,7.363,0,0,1,1.2.2A2,2,0,0,1,367.071,418.787Z" transform="translate(-357.426 -418.41)" fill="#eb996e"/>
            </g>
          </g>
          <g id="Group_3091" data-name="Group 3091" transform="translate(0.905 1.798)">
            <g id="Group_3090" data-name="Group 3090">
              <path id="Path_2197" data-name="Path 2197" d="M363.23,411.971a7.171,7.171,0,0,0-1.7-.3,7.43,7.43,0,0,0-3.962,1.122,15.954,15.954,0,0,0-3.193,2.7l-.875.93a2.591,2.591,0,0,1-.334.33,2.572,2.572,0,0,1,.286-.372c.193-.232.476-.565.838-.967a14.664,14.664,0,0,1,3.193-2.763,7.25,7.25,0,0,1,4.051-1.1,4.837,4.837,0,0,1,1.264.231,2.891,2.891,0,0,1,.326.125C363.195,411.947,363.232,411.966,363.23,411.971Z" transform="translate(-353.163 -411.547)" fill="#eb996e"/>
            </g>
          </g>
        </g>
      </g>
    </g>
    <g id="Speech_Bubble" data-name="Speech Bubble" transform="translate(134.35 0)">
      <g id="Group_3118" data-name="Group 3118">
        <g id="Group_3094" data-name="Group 3094" transform="translate(0.216 0.101)">
          <path id="Path_2198" data-name="Path 2198" d="M516.622,135.108a12.89,12.89,0,0,0-10.575,20.264L504.5,160.18l4.738-1.614a12.892,12.892,0,1,0,7.385-23.458Z" transform="translate(-503.729 -135.108)" fill="#fff"/>
        </g>
        <g id="Group_3117" data-name="Group 3117">
          <g id="Group_3110" data-name="Group 3110" transform="translate(7.484 11.748)">
            <g id="Group_3099" data-name="Group 3099">
              <g id="Group_3098" data-name="Group 3098">
                <g id="Group_3097" data-name="Group 3097">
                  <g id="Group_3096" data-name="Group 3096">
                    <g id="Group_3095" data-name="Group 3095">
                      <path id="Path_2199" data-name="Path 2199" d="M529.007,173.2a1.112,1.112,0,1,1-1.078-1.145A1.112,1.112,0,0,1,529.007,173.2Z" transform="translate(-526.783 -172.051)" fill="#263238"/>
                    </g>
                  </g>
                </g>
              </g>
            </g>
            <g id="Group_3104" data-name="Group 3104" transform="translate(4.449 0.134)">
              <g id="Group_3103" data-name="Group 3103">
                <g id="Group_3102" data-name="Group 3102">
                  <g id="Group_3101" data-name="Group 3101">
                    <g id="Group_3100" data-name="Group 3100">
                      <path id="Path_2200" data-name="Path 2200" d="M543.118,173.621a1.112,1.112,0,1,1-1.078-1.145A1.112,1.112,0,0,1,543.118,173.621Z" transform="translate(-540.894 -172.475)" fill="#263238"/>
                    </g>
                  </g>
                </g>
              </g>
            </g>
            <g id="Group_3109" data-name="Group 3109" transform="translate(9.035 0.272)">
              <g id="Group_3108" data-name="Group 3108">
                <g id="Group_3107" data-name="Group 3107">
                  <g id="Group_3106" data-name="Group 3106">
                    <g id="Group_3105" data-name="Group 3105">
                      <path id="Path_2201" data-name="Path 2201" d="M557.532,173.5a1.112,1.112,0,1,1-1.506-.452A1.112,1.112,0,0,1,557.532,173.5Z" transform="translate(-555.44 -172.913)" fill="#263238"/>
                    </g>
                  </g>
                </g>
              </g>
            </g>
          </g>
          <g id="Group_3116" data-name="Group 3116">
            <g id="Group_3115" data-name="Group 3115">
              <g id="Group_3114" data-name="Group 3114">
                <g id="Group_3113" data-name="Group 3113">
                  <g id="Group_3112" data-name="Group 3112">
                    <g id="Group_3111" data-name="Group 3111">
                      <path id="Path_2202" data-name="Path 2202" d="M516.55,134.8a1.285,1.285,0,0,1,.225,0l.66.038c.145.011.308.016.486.036l.58.1.677.118.754.211a12.314,12.314,0,0,1,3.634,1.716,13,13,0,0,1,5.674,9.946,13.473,13.473,0,0,1-.018,1.782c-.03.3-.033.607-.086.909l-.166.913a13.063,13.063,0,0,1-1.346,3.586,13.957,13.957,0,0,1-2.465,3.185,13.678,13.678,0,0,1-3.483,2.347,12.393,12.393,0,0,1-4.195,1.151,8.256,8.256,0,0,1-1.111.061,10.01,10.01,0,0,1-1.121-.013,13.32,13.32,0,0,1-2.236-.351,13.122,13.122,0,0,1-4.412-2.015l.135.018-4.606,1.69-.273.1.085-.277,1.484-4.825.019.121a13.066,13.066,0,0,1-2.261-5.633,11.829,11.829,0,0,1-.091-2.854,9.142,9.142,0,0,1,.171-1.364l.123-.663c.047-.218.12-.428.178-.64a13.022,13.022,0,0,1,5.3-7.25,12.455,12.455,0,0,1,3.07-1.5l.688-.223.651-.145.6-.129c.191-.031.374-.044.546-.066.346-.033.649-.084.915-.089l.67,0,.409,0a.629.629,0,0,1,.138.009.609.609,0,0,1-.139.015l-.408.02-.666.025c-.264.013-.565.07-.907.11a12.951,12.951,0,0,0-10.638,9.289c-.056.208-.127.415-.172.629l-.118.651a8.945,8.945,0,0,0-.161,1.34,11.6,11.6,0,0,0,.1,2.8,12.827,12.827,0,0,0,2.232,5.511l.039.055-.02.066-1.475,4.828-.188-.177,4.6-1.7.072-.026.063.044a12.857,12.857,0,0,0,4.313,1.968,13.044,13.044,0,0,0,2.185.344,9.79,9.79,0,0,0,1.1.013,7.993,7.993,0,0,0,1.087-.059,12.122,12.122,0,0,0,4.1-1.121,13.422,13.422,0,0,0,3.412-2.29,13.712,13.712,0,0,0,2.42-3.112,12.839,12.839,0,0,0,1.33-3.509l.166-.894c.054-.3.057-.6.088-.891a12.837,12.837,0,0,0-5.5-11.573,12.388,12.388,0,0,0-3.573-1.742l-.744-.223-.669-.131-.574-.113c-.177-.025-.338-.034-.482-.05l-.656-.067A1.241,1.241,0,0,1,516.55,134.8Z" transform="translate(-503.045 -134.788)" fill="#263238"/>
                    </g>
                  </g>
                </g>
              </g>
            </g>
          </g>
        </g>
      </g>
    </g>
    <g id="Device" transform="translate(44.402 70.652)">
      <g id="Group_3193" data-name="Group 3193">
        <g id="Group_3178" data-name="Group 3178">
          <path id="Path_2236" data-name="Path 2236" d="M228.459,390.5,218,364.236a3.433,3.433,0,0,1,3.176-4.734h32.59a3.433,3.433,0,0,1,3.25,2.33L266,388.319l10.494.05c.852,0,1.541,1.251,1.541,2.1h0l-11.551-.133Z" transform="translate(-217.739 -359.502)" fill="#263238"/>
        </g>
        <g id="Group_3191" data-name="Group 3191" transform="translate(7.046 6.066)">
          <g id="Group_3180" data-name="Group 3180">
            <g id="Group_3179" data-name="Group 3179">
              <path id="Path_2237" data-name="Path 2237" d="M244.016,378.745a3.647,3.647,0,0,0-2.105.563,2.789,2.789,0,0,0-.573.476,4.117,4.117,0,0,0-1.158,3.752,2.427,2.427,0,0,0,2.2,2.231,38.155,38.155,0,0,0,4.578-1.075,2.9,2.9,0,0,0,.936-2.854A4.3,4.3,0,0,0,244.016,378.745Z" transform="translate(-240.089 -378.743)" fill="#e8505b"/>
            </g>
          </g>
          <g id="Group_3182" data-name="Group 3182" transform="translate(2.019 4.858)">
            <g id="Group_3181" data-name="Group 3181">
              <path id="Path_2238" data-name="Path 2238" d="M246.493,395.749s.144,1.018.654,1.277a3.663,3.663,0,0,0,2.191.029c.728-.183,1.815-.6,1.944-1.166a2.387,2.387,0,0,0-.063-1.328,3.333,3.333,0,0,0-2.686-.247A3.552,3.552,0,0,0,246.493,395.749Z" transform="translate(-246.493 -394.151)" fill="#f5f5f5"/>
            </g>
          </g>
          <g id="Group_3184" data-name="Group 3184" transform="translate(1.486 0.143)" opacity="0.4">
            <g id="Group_3183" data-name="Group 3183">
              <path id="Path_2239" data-name="Path 2239" d="M248.58,380.646a1.917,1.917,0,1,1-2.326-1.392A1.917,1.917,0,0,1,248.58,380.646Z" transform="translate(-244.803 -379.195)" fill="#fff"/>
            </g>
          </g>
          <g id="Group_3187" data-name="Group 3187" transform="translate(0.009 2.606)" opacity="0.4">
            <g id="Group_3186" data-name="Group 3186">
              <g id="Group_3185" data-name="Group 3185">
                <path id="Path_2240" data-name="Path 2240" d="M240.532,390.167a2.456,2.456,0,0,0,.543-1.626,2.385,2.385,0,0,0-.71-1.532,4.684,4.684,0,0,0-.209,1.94A3.487,3.487,0,0,0,240.532,390.167Z" transform="translate(-240.117 -387.009)" fill="#fff"/>
              </g>
            </g>
          </g>
          <g id="Group_3190" data-name="Group 3190" transform="translate(6.448 1.099)" opacity="0.4">
            <g id="Group_3189" data-name="Group 3189">
              <g id="Group_3188" data-name="Group 3188">
                <path id="Path_2241" data-name="Path 2241" d="M262.01,385.011a2.456,2.456,0,0,1-1.247-1.176,2.177,2.177,0,0,1-.122-1.606,5.309,5.309,0,0,1,1.089,1.531A2.306,2.306,0,0,1,262.01,385.011Z" transform="translate(-260.541 -382.229)" fill="#fff"/>
              </g>
            </g>
          </g>
        </g>
        <g id="Group_3192" data-name="Group 3192" transform="translate(21.548 14.464)">
          <path id="Path_2242" data-name="Path 2242" d="M290.322,407.5a2.117,2.117,0,1,1-2.117-2.117A2.117,2.117,0,0,1,290.322,407.5Z" transform="translate(-286.088 -405.38)" fill="#f5f5f5"/>
        </g>
      </g>
    </g>
    <g id="Desk" transform="translate(1.07 101.408)">
      <g id="Group_3195" data-name="Group 3195">
        <g id="Group_3194" data-name="Group 3194">
          <path id="Path_2243" data-name="Path 2243" d="M243.67,457.125c0,.038-36.576.069-81.684.069-45.124,0-81.692-.031-81.692-.069s36.568-.069,81.692-.069C207.095,457.056,243.67,457.087,243.67,457.125Z" transform="translate(-67.338 -457.043)" fill="#263238"/>
        </g>
      </g>
    </g>
    <g id="Plant" transform="translate(23.277 75.136)">
      <g id="Group_3317" data-name="Group 3317">
        <g id="Group_3306" data-name="Group 3306">
          <g id="Group_3197" data-name="Group 3197" transform="translate(1.101 0.97)">
            <g id="Group_3196" data-name="Group 3196">
              <path id="Path_2244" data-name="Path 2244" d="M160.267,376.608c-2.556-1.482-3.924-4.93-4.026-7.751a8.656,8.656,0,0,1,3.387-7.383,7.752,7.752,0,0,1,8.413-.069,8.757,8.757,0,0,1,3.858,7.6,10.081,10.081,0,0,1-4.129,7.571" transform="translate(-156.236 -360.199)" fill="#e8505b"/>
            </g>
          </g>
          <g id="Group_3200" data-name="Group 3200" transform="translate(8.48 1.241)">
            <g id="Group_3199" data-name="Group 3199">
              <g id="Group_3198" data-name="Group 3198">
                <path id="Path_2245" data-name="Path 2245" d="M185.2,377.647a3.369,3.369,0,0,1-.047-.645c-.013-.462-.03-1.052-.05-1.76-.038-1.486-.1-3.537-.2-5.8s-.222-4.315-.314-5.8c-.042-.707-.077-1.3-.105-1.758a3.351,3.351,0,0,1-.009-.647,3.357,3.357,0,0,1,.1.639c.051.413.113,1.012.181,1.752.136,1.482.285,3.532.385,5.8s.131,4.323.125,5.811c0,.744-.012,1.346-.026,1.762A3.318,3.318,0,0,1,185.2,377.647Z" transform="translate(-184.469 -361.237)" fill="#fff"/>
              </g>
            </g>
          </g>
          <g id="Group_3203" data-name="Group 3203" transform="translate(0.062 8.774)">
            <g id="Group_3202" data-name="Group 3202">
              <g id="Group_3201" data-name="Group 3201">
                <path id="Path_2246" data-name="Path 2246" d="M154.061,390.272c-.005.066-.413.086-.91.045s-.9-.127-.891-.193.413-.086.911-.045S154.067,390.206,154.061,390.272Z" transform="translate(-152.26 -390.058)" fill="#263238"/>
              </g>
            </g>
          </g>
          <g id="Group_3206" data-name="Group 3206" transform="translate(0.528 5.786)">
            <g id="Group_3205" data-name="Group 3205">
              <g id="Group_3204" data-name="Group 3204">
                <path id="Path_2247" data-name="Path 2247" d="M155.518,379.3c-.027.061-.378-.037-.785-.217s-.715-.376-.688-.436.378.037.785.217S155.545,379.235,155.518,379.3Z" transform="translate(-154.043 -378.624)" fill="#263238"/>
              </g>
            </g>
          </g>
          <g id="Group_3209" data-name="Group 3209" transform="translate(1.838 3.363)">
            <g id="Group_3208" data-name="Group 3208">
              <g id="Group_3207" data-name="Group 3207">
                <path id="Path_2248" data-name="Path 2248" d="M160.524,370.57c-.034.055-.43-.131-.84-.472s-.669-.693-.621-.737.375.224.774.553S160.56,370.513,160.524,370.57Z" transform="translate(-159.056 -369.355)" fill="#263238"/>
              </g>
            </g>
          </g>
          <g id="Group_3212" data-name="Group 3212" transform="translate(3.97 1.384)">
            <g id="Group_3211" data-name="Group 3211">
              <g id="Group_3210" data-name="Group 3210">
                <path id="Path_2249" data-name="Path 2249" d="M167.857,363.206c-.06.027-.25-.269-.423-.661s-.265-.731-.2-.758.25.269.423.661S167.918,363.179,167.857,363.206Z" transform="translate(-167.212 -361.785)" fill="#263238"/>
              </g>
            </g>
          </g>
          <g id="Group_3215" data-name="Group 3215" transform="translate(6.152)">
            <g id="Group_3214" data-name="Group 3214">
              <g id="Group_3213" data-name="Group 3213">
                <path id="Path_2250" data-name="Path 2250" d="M176.078,358.036c-.059.028-.263-.288-.4-.725s-.147-.812-.083-.822.18.331.312.751S176.139,358.008,176.078,358.036Z" transform="translate(-175.558 -356.489)" fill="#263238"/>
              </g>
            </g>
          </g>
          <g id="Group_3218" data-name="Group 3218" transform="translate(9.674 0.128)">
            <g id="Group_3217" data-name="Group 3217">
              <g id="Group_3216" data-name="Group 3216">
                <path id="Path_2251" data-name="Path 2251" d="M189.463,356.979c.062.022.024.291-.085.6s-.249.543-.311.521-.024-.291.085-.6S189.4,356.957,189.463,356.979Z" transform="translate(-189.037 -356.978)" fill="#263238"/>
              </g>
            </g>
          </g>
          <g id="Group_3221" data-name="Group 3221" transform="translate(11.745 1.211)">
            <g id="Group_3220" data-name="Group 3220">
              <g id="Group_3219" data-name="Group 3219">
                <path id="Path_2252" data-name="Path 2252" d="M197.858,361.133c.045.049-.118.273-.364.5s-.482.373-.527.324.118-.272.365-.5S197.814,361.084,197.858,361.133Z" transform="translate(-196.959 -361.123)" fill="#263238"/>
              </g>
            </g>
          </g>
          <g id="Group_3224" data-name="Group 3224" transform="translate(13.856 2.653)">
            <g id="Group_3223" data-name="Group 3223">
              <g id="Group_3222" data-name="Group 3222">
                <path id="Path_2253" data-name="Path 2253" d="M206.064,366.652c.037.055-.162.254-.445.446s-.542.3-.579.247.162-.254.445-.446S206.027,366.6,206.064,366.652Z" transform="translate(-205.036 -366.638)" fill="#263238"/>
              </g>
            </g>
          </g>
          <g id="Group_3227" data-name="Group 3227" transform="translate(14.978 4.805)">
            <g id="Group_3226" data-name="Group 3226">
              <g id="Group_3225" data-name="Group 3225">
                <path id="Path_2254" data-name="Path 2254" d="M210.823,374.89c.026.061-.288.253-.7.429s-.768.269-.794.209.288-.253.7-.429S210.8,374.829,210.823,374.89Z" transform="translate(-209.326 -374.871)" fill="#263238"/>
              </g>
            </g>
          </g>
          <g id="Group_3230" data-name="Group 3230" transform="translate(15.645 7.116)">
            <g id="Group_3229" data-name="Group 3229">
              <g id="Group_3228" data-name="Group 3228">
                <path id="Path_2255" data-name="Path 2255" d="M213.335,383.772c.008.066-.311.159-.713.209s-.734.037-.742-.029.311-.159.713-.209S213.327,383.707,213.335,383.772Z" transform="translate(-211.88 -383.713)" fill="#263238"/>
              </g>
            </g>
          </g>
          <g id="Group_3233" data-name="Group 3233" transform="translate(16.001 9.432)">
            <g id="Group_3232" data-name="Group 3232">
              <g id="Group_3231" data-name="Group 3231">
                <path id="Path_2256" data-name="Path 2256" d="M214.667,393.213c-.026.061-.366-.028-.759-.2s-.69-.359-.664-.419.366.029.759.2S214.694,393.152,214.667,393.213Z" transform="translate(-213.243 -392.575)" fill="#263238"/>
              </g>
            </g>
          </g>
          <g id="Group_3236" data-name="Group 3236" transform="translate(15.564 11.522)">
            <g id="Group_3235" data-name="Group 3235">
              <g id="Group_3234" data-name="Group 3234">
                <path id="Path_2257" data-name="Path 2257" d="M213.145,401.6c-.021.06-.451-.042-.9-.337s-.717-.646-.67-.689.375.213.8.489S213.169,401.539,213.145,401.6Z" transform="translate(-211.57 -400.571)" fill="#263238"/>
              </g>
            </g>
          </g>
          <g id="Group_3239" data-name="Group 3239" transform="translate(14.676 13.563)">
            <g id="Group_3238" data-name="Group 3238">
              <g id="Group_3237" data-name="Group 3237">
                <path id="Path_2258" data-name="Path 2258" d="M209.341,409.631c-.039.051-.382-.15-.71-.5s-.5-.71-.451-.745.311.244.626.582S209.382,409.578,209.341,409.631Z" transform="translate(-208.17 -408.378)" fill="#263238"/>
              </g>
            </g>
          </g>
          <g id="Group_3242" data-name="Group 3242" transform="translate(1.847 15.068)">
            <g id="Group_3241" data-name="Group 3241">
              <g id="Group_3240" data-name="Group 3240">
                <path id="Path_2259" data-name="Path 2259" d="M160.807,414.152c.031.059-.329.306-.8.553s-.882.4-.913.34.329-.306.8-.553S160.777,414.093,160.807,414.152Z" transform="translate(-159.09 -414.139)" fill="#263238"/>
              </g>
            </g>
          </g>
          <g id="Group_3245" data-name="Group 3245" transform="translate(1.055 13.017)">
            <g id="Group_3244" data-name="Group 3244">
              <g id="Group_3243" data-name="Group 3243">
                <path id="Path_2260" data-name="Path 2260" d="M157.447,406.309c.027.06-.261.25-.643.423s-.715.266-.743.205.261-.25.644-.423S157.42,406.249,157.447,406.309Z" transform="translate(-156.059 -406.29)" fill="#263238"/>
              </g>
            </g>
          </g>
          <g id="Group_3248" data-name="Group 3248" transform="translate(0 11.174)">
            <g id="Group_3247" data-name="Group 3247">
              <g id="Group_3246" data-name="Group 3246">
                <path id="Path_2261" data-name="Path 2261" d="M153.641,399.288c.009.066-.345.17-.792.233s-.816.062-.826,0,.345-.17.792-.233S153.632,399.223,153.641,399.288Z" transform="translate(-152.023 -399.238)" fill="#263238"/>
              </g>
            </g>
          </g>
          <g id="Group_3251" data-name="Group 3251" transform="translate(2.706 10.195)">
            <g id="Group_3250" data-name="Group 3250">
              <g id="Group_3249" data-name="Group 3249">
                <path id="Path_2262" data-name="Path 2262" d="M163.993,395.525c.02.061-.326.223-.788.274s-.835-.027-.829-.092.365-.1.8-.146S163.973,395.46,163.993,395.525Z" transform="translate(-162.376 -395.495)" fill="#263238"/>
              </g>
            </g>
          </g>
          <g id="Group_3254" data-name="Group 3254" transform="translate(5.281 7.951)">
            <g id="Group_3253" data-name="Group 3253">
              <g id="Group_3252" data-name="Group 3252">
                <path id="Path_2263" data-name="Path 2263" d="M173.517,386.948c.02.062-.256.2-.627.237s-.668-.046-.661-.11.293-.093.638-.128S173.5,386.883,173.517,386.948Z" transform="translate(-172.229 -386.91)" fill="#263238"/>
              </g>
            </g>
          </g>
          <g id="Group_3257" data-name="Group 3257" transform="translate(5.745 5.738)">
            <g id="Group_3256" data-name="Group 3256">
              <g id="Group_3255" data-name="Group 3255">
                <path id="Path_2264" data-name="Path 2264" d="M175.257,378.9c-.021.063-.32.016-.665-.1s-.609-.267-.587-.33.319-.016.665.1S175.279,378.839,175.257,378.9Z" transform="translate(-174.003 -378.441)" fill="#263238"/>
              </g>
            </g>
          </g>
          <g id="Group_3260" data-name="Group 3260" transform="translate(7.293 3.528)">
            <g id="Group_3259" data-name="Group 3259">
              <g id="Group_3258" data-name="Group 3258">
                <path id="Path_2265" data-name="Path 2265" d="M180.454,370.845c-.046.046-.251-.089-.4-.343s-.161-.5-.1-.515.175.171.306.4S180.5,370.8,180.454,370.845Z" transform="translate(-179.924 -369.985)" fill="#263238"/>
              </g>
            </g>
          </g>
          <g id="Group_3263" data-name="Group 3263" transform="translate(5.722 11.762)">
            <g id="Group_3262" data-name="Group 3262">
              <g id="Group_3261" data-name="Group 3261">
                <path id="Path_2266" data-name="Path 2266" d="M175.023,401.531c.016.064-.243.182-.576.264a2.188,2.188,0,0,1-.484.071l-.047-.14c.086-.016.142-.012.153.013s-.024.069-.094.122l-.047-.14a2.2,2.2,0,0,1,.463-.16C174.724,401.481,175.007,401.467,175.023,401.531Z" transform="translate(-173.915 -401.491)" fill="#263238"/>
              </g>
            </g>
          </g>
          <g id="Group_3266" data-name="Group 3266" transform="translate(5.734 14.958)">
            <g id="Group_3265" data-name="Group 3265">
              <g id="Group_3264" data-name="Group 3264">
                <path id="Path_2267" data-name="Path 2267" d="M175.52,413.737c.024.061-.305.248-.735.417s-.8.256-.823.194.305-.248.735-.417S175.5,413.675,175.52,413.737Z" transform="translate(-173.961 -413.717)" fill="#263238"/>
              </g>
            </g>
          </g>
          <g id="Group_3269" data-name="Group 3269" transform="translate(3.696 13.535)">
            <g id="Group_3268" data-name="Group 3268">
              <g id="Group_3267" data-name="Group 3267">
                <path id="Path_2268" data-name="Path 2268" d="M167.221,408.3c.021.063-.2.194-.49.293s-.546.129-.567.067.2-.194.49-.293S167.2,408.241,167.221,408.3Z" transform="translate(-166.162 -408.271)" fill="#263238"/>
              </g>
            </g>
          </g>
          <g id="Group_3272" data-name="Group 3272" transform="translate(3.374 6.529)">
            <g id="Group_3271" data-name="Group 3271">
              <g id="Group_3270" data-name="Group 3270">
                <path id="Path_2269" data-name="Path 2269" d="M166.506,382.044c-.015.064-.4.026-.839-.131s-.762-.367-.734-.426.385.049.814.2S166.522,381.979,166.506,382.044Z" transform="translate(-164.931 -381.47)" fill="#263238"/>
              </g>
            </g>
          </g>
          <g id="Group_3275" data-name="Group 3275" transform="translate(9.994 6.388)">
            <g id="Group_3274" data-name="Group 3274">
              <g id="Group_3273" data-name="Group 3273">
                <path id="Path_2270" data-name="Path 2270" d="M191.357,380.941c.036.055-.179.261-.48.46s-.576.316-.612.26.179-.261.48-.46S191.321,380.886,191.357,380.941Z" transform="translate(-190.26 -380.927)" fill="#263238"/>
              </g>
            </g>
          </g>
          <g id="Group_3278" data-name="Group 3278" transform="translate(10.366 9.539)">
            <g id="Group_3277" data-name="Group 3277">
              <g id="Group_3276" data-name="Group 3276">
                <path id="Path_2271" data-name="Path 2271" d="M192.741,393.036c.014.065-.212.166-.5.227s-.54.057-.554-.007.213-.167.5-.227S192.728,392.971,192.741,393.036Z" transform="translate(-191.682 -392.985)" fill="#263238"/>
              </g>
            </g>
          </g>
          <g id="Group_3281" data-name="Group 3281" transform="translate(10.458 12.53)">
            <g id="Group_3280" data-name="Group 3280">
              <g id="Group_3279" data-name="Group 3279">
                <path id="Path_2272" data-name="Path 2272" d="M193.389,405.074c-.028.06-.353-.032-.727-.2s-.654-.362-.627-.422.353.032.727.2S193.417,405.014,193.389,405.074Z" transform="translate(-192.034 -404.428)" fill="#263238"/>
              </g>
            </g>
          </g>
          <g id="Group_3284" data-name="Group 3284" transform="translate(10.221 15.736)">
            <g id="Group_3283" data-name="Group 3283">
              <g id="Group_3282" data-name="Group 3282">
                <path id="Path_2273" data-name="Path 2273" d="M191.9,417.623c-.051.042-.262-.131-.472-.386s-.338-.5-.287-.538.262.131.472.386S191.95,417.581,191.9,417.623Z" transform="translate(-191.129 -416.692)" fill="#263238"/>
              </g>
            </g>
          </g>
          <g id="Group_3287" data-name="Group 3287" transform="translate(10.004 4.036)">
            <g id="Group_3286" data-name="Group 3286">
              <g id="Group_3285" data-name="Group 3285">
                <path id="Path_2274" data-name="Path 2274" d="M191.116,371.948c.04.051-.1.227-.339.347s-.464.127-.48.064.157-.169.373-.278S191.075,371.895,191.116,371.948Z" transform="translate(-190.296 -371.931)" fill="#263238"/>
              </g>
            </g>
          </g>
          <g id="Group_3290" data-name="Group 3290" transform="translate(12.51 7.238)">
            <g id="Group_3289" data-name="Group 3289">
              <g id="Group_3288" data-name="Group 3288">
                <path id="Path_2275" data-name="Path 2275" d="M201.21,384.212c.022.061-.257.214-.638.266s-.691-.018-.686-.082.3-.1.653-.155S201.188,384.148,201.21,384.212Z" transform="translate(-199.886 -384.181)" fill="#263238"/>
              </g>
            </g>
          </g>
          <g id="Group_3293" data-name="Group 3293" transform="translate(11.851 4.364)">
            <g id="Group_3292" data-name="Group 3292">
              <g id="Group_3291" data-name="Group 3291">
                <path id="Path_2276" data-name="Path 2276" d="M198.748,373.2c.03.058-.247.255-.64.38s-.732.126-.742.062.3-.17.669-.29S198.718,373.142,198.748,373.2Z" transform="translate(-197.365 -373.184)" fill="#263238"/>
              </g>
            </g>
          </g>
          <g id="Group_3296" data-name="Group 3296" transform="translate(12.469 11.354)">
            <g id="Group_3295" data-name="Group 3295">
              <g id="Group_3294" data-name="Group 3294">
                <path id="Path_2277" data-name="Path 2277" d="M201.75,400.315a2.9,2.9,0,0,1-2.021-.366,10.306,10.306,0,0,1,2.021.366Z" transform="translate(-199.728 -399.928)" fill="#263238"/>
              </g>
            </g>
          </g>
          <g id="Group_3299" data-name="Group 3299" transform="translate(12.129 14.69)">
            <g id="Group_3298" data-name="Group 3298">
              <g id="Group_3297" data-name="Group 3297">
                <path id="Path_2278" data-name="Path 2278" d="M199.671,413.936c-.04.051-.388-.154-.736-.5s-.551-.7-.5-.738.333.232.67.569S199.713,413.883,199.671,413.936Z" transform="translate(-198.428 -412.69)" fill="#263238"/>
              </g>
            </g>
          </g>
          <g id="Group_3302" data-name="Group 3302" transform="translate(3.44 0.968)">
            <g id="Group_3301" data-name="Group 3301">
              <g id="Group_3300" data-name="Group 3300">
                <path id="Path_2279" data-name="Path 2279" d="M170.2,360.2a10.853,10.853,0,0,0-2.1,1.659,10.25,10.25,0,0,0-2.615,5.781,12.988,12.988,0,0,0,.158,3.542,27.107,27.107,0,0,0,.663,2.843c.23.8.441,1.441.583,1.886a4.428,4.428,0,0,1,.2.7,4.014,4.014,0,0,1-.29-.667c-.169-.436-.405-1.07-.657-1.868a23.965,23.965,0,0,1-.719-2.854,12.717,12.717,0,0,1-.178-3.608,10.08,10.08,0,0,1,2.731-5.871,7.509,7.509,0,0,1,1.566-1.224,4.7,4.7,0,0,1,.479-.249A.554.554,0,0,1,170.2,360.2Z" transform="translate(-165.186 -360.194)" fill="#fff"/>
              </g>
            </g>
          </g>
          <g id="Group_3305" data-name="Group 3305" transform="translate(8.272 1.067)">
            <g id="Group_3304" data-name="Group 3304">
              <g id="Group_3303" data-name="Group 3303">
                <path id="Path_2280" data-name="Path 2280" d="M187.121,377.037a26.293,26.293,0,0,0,1.076-2.572,14.557,14.557,0,0,0,.643-6.614,12.45,12.45,0,0,0-1.02-3.527,8.326,8.326,0,0,0-1.739-2.422,6.327,6.327,0,0,0-1.7-1.077c-.443-.185-.708-.228-.7-.248a.575.575,0,0,1,.2.015,3.585,3.585,0,0,1,.542.146,5.892,5.892,0,0,1,1.782,1.037,8.194,8.194,0,0,1,1.827,2.454,12.255,12.255,0,0,1,1.058,3.589,14.064,14.064,0,0,1-.721,6.7c-.135.414-.309.768-.439,1.087-.154.309-.281.578-.4.79A4.518,4.518,0,0,1,187.121,377.037Z" transform="translate(-183.673 -360.572)" fill="#fff"/>
              </g>
            </g>
          </g>
        </g>
        <g id="Group_3308" data-name="Group 3308" transform="translate(2.443 16.966)">
          <g id="Group_3307" data-name="Group 3307">
            <path id="Path_2281" data-name="Path 2281" d="M161.368,421.4h13.2l.081,2.642H161.368Z" transform="translate(-161.368 -421.399)" fill="#263238"/>
          </g>
        </g>
        <g id="Group_3310" data-name="Group 3310" transform="translate(3.564 18.287)">
          <g id="Group_3309" data-name="Group 3309">
            <path id="Path_2282" data-name="Path 2282" d="M165.66,426.453l.758,8.067h9.652l.775-7.979Z" transform="translate(-165.66 -426.453)" fill="#263238"/>
          </g>
        </g>
        <g id="Group_3313" data-name="Group 3313" transform="translate(2.446 19.52)">
          <g id="Group_3312" data-name="Group 3312">
            <g id="Group_3311" data-name="Group 3311">
              <path id="Path_2283" data-name="Path 2283" d="M174.662,431.292c0,.066-2.973.12-6.64.12s-6.641-.054-6.641-.12,2.973-.12,6.641-.12S174.662,431.226,174.662,431.292Z" transform="translate(-161.381 -431.172)" fill="#455a64"/>
            </g>
          </g>
        </g>
        <g id="Group_3316" data-name="Group 3316" transform="translate(4.197 21.297)">
          <g id="Group_3315" data-name="Group 3315">
            <g id="Group_3314" data-name="Group 3314">
              <path id="Path_2284" data-name="Path 2284" d="M178.269,438.768a1.986,1.986,0,0,1-.283.5,7.307,7.307,0,0,1-1.024,1.209l-.061.058-.06-.063a19.008,19.008,0,0,0-2.587-2.265l.146-.006-1.147,1.007-1.356,1.181-.075.065-.075-.063-2.2-1.853.128-.014-1.14,1.392a3.239,3.239,0,0,1-.448.49,3.26,3.26,0,0,1,.369-.552l1.078-1.441.055-.074.073.06,2.237,1.814-.15,0,1.351-1.186,1.151-1,.071-.062.075.055a16.9,16.9,0,0,1,2.575,2.338l-.12,0A13.422,13.422,0,0,0,178.269,438.768Z" transform="translate(-168.081 -437.967)" fill="#455a64"/>
            </g>
          </g>
        </g>
      </g>
    </g>
  </g>
</svg>
