<svg xmlns="http://www.w3.org/2000/svg" width="142.293" height="98.153" viewBox="0 0 142.293 98.153">
  <g id="Group_9010" data-name="Group 9010" transform="translate(0 0)">
    <path id="Path_11150" data-name="Path 11150" d="M848.864,754.4,831.6,843.642a2.942,2.942,0,0,0,2.888,3.5h9.1Z" transform="translate(-831.547 -748.989)" fill="#ed7d2b"/>
    <path id="Path_11157" data-name="Path 11157" d="M905.075,747.755l-11.442,87.624a4.854,4.854,0,0,0,4.813,5.482h16.785l-9.464-93.422Z" transform="translate(-887.551 -742.707)" fill="#78acea"/>
    <path id="Path_11158" data-name="Path 11158" d="M963.959,750.689l-5.122,87.065a5.706,5.706,0,0,0,5.7,6.041h25.034Z" transform="translate(-946.435 -745.641)" fill="#699dee"/>
    <path id="Path_11159" data-name="Path 11159" d="M1009.564,757.988l2.49,86.354a5.705,5.705,0,0,0,5.7,6.041h25.034Z" transform="translate(-992.232 -752.229)" fill="#5288d8"/>
    <path id="Path_11160" data-name="Path 11160" d="M1138.778,840.26h-98.706a5.1,5.1,0,0,1-5.02-4.185l-15.019-82.137a6.072,6.072,0,0,1,5.973-7.165h97.543a5.1,5.1,0,0,1,5.02,4.185l15.229,83.28A5.1,5.1,0,0,1,1138.778,840.26Z" transform="translate(-1001.59 -742.106)" fill="#d7e9ff"/>
    <path id="Path_11161" data-name="Path 11161" d="M1012.486,764.6h109.147l-2.8-15.508a2.826,2.826,0,0,0-2.781-2.324H1010.331a.925.925,0,0,0-.91,1.092Z" transform="translate(-992.089 -742.106)" fill="#f99746"/>
    <g id="Group_9003" data-name="Group 9003" transform="translate(18.216 0)">
      <g id="Group_8990" data-name="Group 8990">
        <g id="Group_8989" data-name="Group 8989">
          <path id="Path_11162" data-name="Path 11162" d="M1023.375,698.842a4.736,4.736,0,0,0-4.732,4.731h.909a3.822,3.822,0,1,1,4.041,3.817v.909a4.673,4.673,0,0,0,1.209-.214,4.732,4.732,0,0,0-1.427-9.243Z" transform="translate(-1018.643 -698.842)" fill="#78acea"/>
        </g>
        <path id="Path_11163" data-name="Path 11163" d="M1063.28,781.47a1.05,1.05,0,0,1-.037.273,1.029,1.029,0,1,1,.037-.273Z" transform="translate(-1057.084 -772.5)" fill="#78acea"/>
      </g>
      <g id="Group_8992" data-name="Group 8992" transform="translate(16.966)">
        <g id="Group_8991" data-name="Group 8991" transform="translate(0)">
          <path id="Path_11164" data-name="Path 11164" d="M1197.631,698.842a4.736,4.736,0,0,0-4.732,4.731h.908a3.823,3.823,0,1,1,4.041,3.817v.909a4.674,4.674,0,0,0,1.209-.214,4.731,4.731,0,0,0-1.426-9.243Z" transform="translate(-1192.899 -698.842)" fill="#78acea"/>
        </g>
        <path id="Path_11165" data-name="Path 11165" d="M1237.525,781.47a1.045,1.045,0,0,1-.036.273,1.033,1.033,0,1,1,.036-.273Z" transform="translate(-1231.331 -772.5)" fill="#78acea"/>
      </g>
      <g id="Group_8994" data-name="Group 8994" transform="translate(33.932)">
        <g id="Group_8993" data-name="Group 8993">
          <path id="Path_11166" data-name="Path 11166" d="M1371.887,698.842a4.736,4.736,0,0,0-4.732,4.731h.908a3.823,3.823,0,1,1,4.041,3.817v.909a4.681,4.681,0,0,0,1.209-.214,4.732,4.732,0,0,0-1.426-9.243Z" transform="translate(-1367.155 -698.842)" fill="#78acea"/>
        </g>
        <path id="Path_11167" data-name="Path 11167" d="M1411.781,781.47a1.05,1.05,0,0,1-.036.273,1.032,1.032,0,1,1,.036-.273Z" transform="translate(-1405.586 -772.5)" fill="#78acea"/>
      </g>
      <g id="Group_8996" data-name="Group 8996" transform="translate(50.898)">
        <g id="Group_8995" data-name="Group 8995">
          <path id="Path_11168" data-name="Path 11168" d="M1546.142,698.842a4.735,4.735,0,0,0-4.731,4.731h.908a3.824,3.824,0,1,1,5.073,3.613,3.787,3.787,0,0,1-1.033.2v.909a4.686,4.686,0,0,0,1.209-.214,4.732,4.732,0,0,0-1.427-9.243Z" transform="translate(-1541.411 -698.842)" fill="#78acea"/>
        </g>
        <path id="Path_11169" data-name="Path 11169" d="M1586.038,781.47a1.066,1.066,0,0,1-.037.273,1.026,1.026,0,1,1-.177-.9A1.015,1.015,0,0,1,1586.038,781.47Z" transform="translate(-1579.843 -772.5)" fill="#78acea"/>
      </g>
      <g id="Group_8998" data-name="Group 8998" transform="translate(67.863)">
        <g id="Group_8997" data-name="Group 8997" transform="translate(0)">
          <path id="Path_11170" data-name="Path 11170" d="M1720.388,698.842a4.736,4.736,0,0,0-4.732,4.731h.908a3.824,3.824,0,1,1,5.073,3.613,3.778,3.778,0,0,1-1.032.2v.909a4.674,4.674,0,0,0,1.209-.214,4.731,4.731,0,0,0-1.426-9.243Z" transform="translate(-1715.656 -698.842)" fill="#78acea"/>
        </g>
        <path id="Path_11171" data-name="Path 11171" d="M1760.281,781.47a1.025,1.025,0,1,1-.213-.626A1.015,1.015,0,0,1,1760.281,781.47Z" transform="translate(-1754.087 -772.5)" fill="#78acea"/>
      </g>
      <g id="Group_9000" data-name="Group 9000" transform="translate(84.829)">
        <g id="Group_8999" data-name="Group 8999">
          <path id="Path_11172" data-name="Path 11172" d="M1894.644,698.842a4.736,4.736,0,0,0-4.732,4.731h.908a3.824,3.824,0,0,1,7.647,0,3.786,3.786,0,0,1-.2,1.21,3.837,3.837,0,0,1-2.377,2.4,3.782,3.782,0,0,1-1.032.2v.909a4.673,4.673,0,0,0,1.209-.214,4.732,4.732,0,0,0-1.426-9.243Z" transform="translate(-1889.912 -698.842)" fill="#78acea"/>
        </g>
        <path id="Path_11173" data-name="Path 11173" d="M1934.538,781.47a1.056,1.056,0,0,1-.037.273,1.027,1.027,0,1,1,.037-.273Z" transform="translate(-1928.344 -772.5)" fill="#78acea"/>
      </g>
      <g id="Group_9002" data-name="Group 9002" transform="translate(101.795)">
        <g id="Group_9001" data-name="Group 9001">
          <path id="Path_11174" data-name="Path 11174" d="M2068.9,698.842a4.736,4.736,0,0,0-4.731,4.731h.909a3.823,3.823,0,0,1,7.646,0,3.766,3.766,0,0,1-.2,1.21,3.836,3.836,0,0,1-2.376,2.4,3.794,3.794,0,0,1-1.032.2v.909a4.675,4.675,0,0,0,1.208-.214,4.732,4.732,0,0,0-1.427-9.243Z" transform="translate(-2064.168 -698.842)" fill="#78acea"/>
        </g>
        <path id="Path_11175" data-name="Path 11175" d="M2108.795,781.47a1.061,1.061,0,0,1-.037.273,1.026,1.026,0,1,1-.177-.9A1.014,1.014,0,0,1,2108.795,781.47Z" transform="translate(-2102.6 -772.5)" fill="#78acea"/>
      </g>
    </g>
    <g id="Group_9004" data-name="Group 9004" transform="translate(32.267 31.699)">
      <path id="Path_11176" data-name="Path 11176" d="M1615.279,1156.489h-5.517a1.479,1.479,0,0,1-1.384-1.16l-1.064-5.517a.932.932,0,0,1,.936-1.16h5.518a1.479,1.479,0,0,1,1.383,1.16l1.064,5.517A.932.932,0,0,1,1615.279,1156.489Z" transform="translate(-1564.031 -1136.556)" fill="#afcdfb"/>
      <path id="Path_11177" data-name="Path 11177" d="M1758.281,1156.489h-5.517a1.48,1.48,0,0,1-1.384-1.16l-1.064-5.517a.932.932,0,0,1,.936-1.16h5.517a1.479,1.479,0,0,1,1.384,1.16l1.064,5.517A.932.932,0,0,1,1758.281,1156.489Z" transform="translate(-1693.11 -1136.556)" fill="#afcdfb"/>
      <path id="Path_11178" data-name="Path 11178" d="M1901.283,1156.489h-5.517a1.48,1.48,0,0,1-1.384-1.16l-1.064-5.517a.932.932,0,0,1,.936-1.16h5.517a1.479,1.479,0,0,1,1.383,1.16l1.064,5.517A.932.932,0,0,1,1901.283,1156.489Z" transform="translate(-1822.189 -1136.556)" fill="#78acea"/>
      <path id="Path_11179" data-name="Path 11179" d="M1186.274,1156.489h-5.517a1.48,1.48,0,0,1-1.384-1.16l-1.064-5.517a.932.932,0,0,1,.936-1.16h5.517a1.479,1.479,0,0,1,1.383,1.16l1.064,5.517A.932.932,0,0,1,1186.274,1156.489Z" transform="translate(-1176.795 -1136.556)" fill="#afcdfb"/>
      <path id="Path_11180" data-name="Path 11180" d="M1166.388,1027.785h-2.371a.635.635,0,0,1-.594-.5l-.457-2.371a.4.4,0,0,1,.4-.5h2.371a.635.635,0,0,1,.594.5l.458,2.371A.4.4,0,0,1,1166.388,1027.785Z" transform="translate(-1162.956 -1024.417)" fill="#f99746"/>
      <path id="Path_11181" data-name="Path 11181" d="M1329.276,1156.489h-5.517a1.48,1.48,0,0,1-1.384-1.16l-1.064-5.517a.932.932,0,0,1,.936-1.16h5.517a1.479,1.479,0,0,1,1.384,1.16l1.064,5.517A.932.932,0,0,1,1329.276,1156.489Z" transform="translate(-1305.874 -1136.556)" fill="#afcdfb"/>
      <path id="Path_11182" data-name="Path 11182" d="M1472.277,1156.489h-5.517a1.479,1.479,0,0,1-1.384-1.16l-1.065-5.517a.932.932,0,0,1,.936-1.16h5.518a1.479,1.479,0,0,1,1.383,1.16l1.064,5.517A.932.932,0,0,1,1472.277,1156.489Z" transform="translate(-1434.952 -1136.556)" fill="#afcdfb"/>
      <path id="Path_11183" data-name="Path 11183" d="M2044.285,1156.489h-5.518a1.48,1.48,0,0,1-1.384-1.16l-1.064-5.517a.932.932,0,0,1,.936-1.16h5.517a1.479,1.479,0,0,1,1.383,1.16l1.064,5.517A.932.932,0,0,1,2044.285,1156.489Z" transform="translate(-1951.267 -1136.556)" fill="#78acea"/>
      <path id="Path_11184" data-name="Path 11184" d="M1591.537,1033.405h-5.517a1.479,1.479,0,0,1-1.384-1.16l-1.064-5.518a.932.932,0,0,1,.936-1.16h5.518a1.479,1.479,0,0,1,1.383,1.16l1.064,5.518A.932.932,0,0,1,1591.537,1033.405Z" transform="translate(-1542.6 -1025.456)" fill="#afcdfb"/>
      <path id="Path_11185" data-name="Path 11185" d="M1734.54,1033.405h-5.518a1.48,1.48,0,0,1-1.383-1.16l-1.064-5.518a.932.932,0,0,1,.936-1.16h5.518a1.48,1.48,0,0,1,1.383,1.16l1.064,5.518A.932.932,0,0,1,1734.54,1033.405Z" transform="translate(-1671.679 -1025.456)" fill="#afcdfb"/>
      <path id="Path_11186" data-name="Path 11186" d="M1877.54,1033.405h-5.518a1.479,1.479,0,0,1-1.383-1.16l-1.064-5.518a.932.932,0,0,1,.936-1.16h5.517a1.479,1.479,0,0,1,1.384,1.16l1.064,5.518A.932.932,0,0,1,1877.54,1033.405Z" transform="translate(-1800.757 -1025.456)" fill="#78acea"/>
      <path id="Path_11187" data-name="Path 11187" d="M2020.541,1033.405h-5.517a1.479,1.479,0,0,1-1.384-1.16l-1.065-5.518a.932.932,0,0,1,.936-1.16h5.517a1.48,1.48,0,0,1,1.384,1.16l1.064,5.518A.932.932,0,0,1,2020.541,1033.405Z" transform="translate(-1929.836 -1025.456)" fill="#78acea"/>
      <path id="Path_11188" data-name="Path 11188" d="M1640.444,1286.943h-5.517a1.479,1.479,0,0,1-1.383-1.16l-1.064-5.518a.932.932,0,0,1,.936-1.16h5.517a1.479,1.479,0,0,1,1.384,1.16l1.065,5.518A.932.932,0,0,1,1640.444,1286.943Z" transform="translate(-1586.746 -1254.309)" fill="#afcdfb"/>
      <path id="Path_11189" data-name="Path 11189" d="M1783.445,1286.943h-5.518a1.479,1.479,0,0,1-1.383-1.16l-1.064-5.518a.932.932,0,0,1,.936-1.16h5.517a1.48,1.48,0,0,1,1.384,1.16l1.064,5.518A.932.932,0,0,1,1783.445,1286.943Z" transform="translate(-1715.824 -1254.309)" fill="#afcdfb"/>
      <path id="Path_11190" data-name="Path 11190" d="M1926.447,1286.943h-5.518a1.48,1.48,0,0,1-1.384-1.16l-1.064-5.518a.932.932,0,0,1,.936-1.16h5.518a1.48,1.48,0,0,1,1.383,1.16l1.064,5.518A.932.932,0,0,1,1926.447,1286.943Z" transform="translate(-1844.903 -1254.309)" fill="#78acea"/>
      <path id="Path_11191" data-name="Path 11191" d="M1211.438,1286.943h-5.518a1.479,1.479,0,0,1-1.383-1.16l-1.064-5.518a.932.932,0,0,1,.936-1.16h5.518a1.479,1.479,0,0,1,1.383,1.16l1.064,5.518A.932.932,0,0,1,1211.438,1286.943Z" transform="translate(-1199.508 -1254.309)" fill="#afcdfb"/>
      <path id="Path_11192" data-name="Path 11192" d="M1354.44,1286.943h-5.517a1.479,1.479,0,0,1-1.384-1.16l-1.064-5.518a.932.932,0,0,1,.936-1.16h5.518a1.479,1.479,0,0,1,1.383,1.16l1.064,5.518A.932.932,0,0,1,1354.44,1286.943Z" transform="translate(-1328.588 -1254.309)" fill="#afcdfb"/>
      <path id="Path_11193" data-name="Path 11193" d="M1497.442,1286.943h-5.517a1.479,1.479,0,0,1-1.384-1.16l-1.064-5.518a.932.932,0,0,1,.936-1.16h5.518a1.479,1.479,0,0,1,1.383,1.16l1.065,5.518A.932.932,0,0,1,1497.442,1286.943Z" transform="translate(-1457.667 -1254.309)" fill="#afcdfb"/>
      <path id="Path_11194" data-name="Path 11194" d="M2069.449,1286.943h-5.517a1.479,1.479,0,0,1-1.384-1.16l-1.064-5.518a.932.932,0,0,1,.936-1.16h5.517a1.479,1.479,0,0,1,1.383,1.16l1.065,5.518A.932.932,0,0,1,2069.449,1286.943Z" transform="translate(-1973.981 -1254.309)" fill="#78acea"/>
      <path id="Path_11195" data-name="Path 11195" d="M1665.608,1417.4h-5.517a1.479,1.479,0,0,1-1.383-1.16l-1.064-5.518a.932.932,0,0,1,.936-1.16h5.517a1.48,1.48,0,0,1,1.384,1.16l1.064,5.518A.932.932,0,0,1,1665.608,1417.4Z" transform="translate(-1609.46 -1372.063)" fill="#afcdfb"/>
      <path id="Path_11196" data-name="Path 11196" d="M1808.61,1417.4h-5.517a1.478,1.478,0,0,1-1.383-1.16l-1.064-5.518a.932.932,0,0,1,.936-1.16h5.517a1.479,1.479,0,0,1,1.383,1.16l1.064,5.518A.932.932,0,0,1,1808.61,1417.4Z" transform="translate(-1738.539 -1372.063)" fill="#afcdfb"/>
      <path id="Path_11197" data-name="Path 11197" d="M1951.611,1417.4h-5.518a1.479,1.479,0,0,1-1.383-1.16l-1.064-5.518a.932.932,0,0,1,.936-1.16h5.518a1.479,1.479,0,0,1,1.383,1.16l1.064,5.518A.932.932,0,0,1,1951.611,1417.4Z" transform="translate(-1867.617 -1372.063)" fill="#78acea"/>
      <path id="Path_11198" data-name="Path 11198" d="M1236.6,1417.4h-5.517a1.48,1.48,0,0,1-1.384-1.16l-1.064-5.518a.932.932,0,0,1,.936-1.16h5.518a1.479,1.479,0,0,1,1.383,1.16l1.065,5.518A.932.932,0,0,1,1236.6,1417.4Z" transform="translate(-1222.223 -1372.063)" fill="#afcdfb"/>
      <path id="Path_11199" data-name="Path 11199" d="M1379.6,1417.4h-5.518a1.48,1.48,0,0,1-1.383-1.16l-1.064-5.518a.932.932,0,0,1,.936-1.16h5.518a1.479,1.479,0,0,1,1.383,1.16l1.064,5.518A.932.932,0,0,1,1379.6,1417.4Z" transform="translate(-1351.302 -1372.063)" fill="#f99746"/>
      <path id="Path_11200" data-name="Path 11200" d="M1522.606,1417.4h-5.518a1.479,1.479,0,0,1-1.383-1.16l-1.064-5.518a.932.932,0,0,1,.936-1.16h5.517a1.479,1.479,0,0,1,1.384,1.16l1.064,5.518A.932.932,0,0,1,1522.606,1417.4Z" transform="translate(-1480.38 -1372.063)" fill="#afcdfb"/>
      <path id="Path_11201" data-name="Path 11201" d="M2094.612,1417.4H2089.1a1.479,1.479,0,0,1-1.384-1.16l-1.064-5.518a.931.931,0,0,1,.936-1.16h5.517a1.48,1.48,0,0,1,1.384,1.16l1.064,5.518A.932.932,0,0,1,2094.612,1417.4Z" transform="translate(-1996.695 -1372.063)" fill="#78acea"/>
      <path id="Path_11202" data-name="Path 11202" d="M1689.35,1540.482h-5.517a1.479,1.479,0,0,1-1.383-1.16l-1.064-5.517a.932.932,0,0,1,.936-1.16h5.518a1.479,1.479,0,0,1,1.383,1.16l1.064,5.517A.932.932,0,0,1,1689.35,1540.482Z" transform="translate(-1630.89 -1483.163)" fill="#afcdfb"/>
      <path id="Path_11203" data-name="Path 11203" d="M1832.353,1540.482h-5.518a1.479,1.479,0,0,1-1.384-1.16l-1.064-5.517a.932.932,0,0,1,.936-1.16h5.518a1.479,1.479,0,0,1,1.383,1.16l1.064,5.517A.932.932,0,0,1,1832.353,1540.482Z" transform="translate(-1759.969 -1483.163)" fill="#afcdfb"/>
      <path id="Path_11204" data-name="Path 11204" d="M1975.354,1540.482h-5.518a1.479,1.479,0,0,1-1.383-1.16l-1.064-5.517a.932.932,0,0,1,.936-1.16h5.517a1.479,1.479,0,0,1,1.384,1.16l1.065,5.517A.932.932,0,0,1,1975.354,1540.482Z" transform="translate(-1889.048 -1483.163)" fill="#78acea"/>
      <path id="Path_11205" data-name="Path 11205" d="M1260.346,1540.482h-5.518a1.479,1.479,0,0,1-1.384-1.16l-1.065-5.517a.932.932,0,0,1,.936-1.16h5.518a1.479,1.479,0,0,1,1.383,1.16l1.064,5.517A.932.932,0,0,1,1260.346,1540.482Z" transform="translate(-1243.654 -1483.163)" fill="#afcdfb"/>
      <path id="Path_11206" data-name="Path 11206" d="M1403.347,1540.482h-5.517a1.479,1.479,0,0,1-1.384-1.16l-1.064-5.517a.932.932,0,0,1,.936-1.16h5.517a1.479,1.479,0,0,1,1.383,1.16l1.064,5.517A.932.932,0,0,1,1403.347,1540.482Z" transform="translate(-1372.733 -1483.163)" fill="#afcdfb"/>
      <path id="Path_11207" data-name="Path 11207" d="M1546.348,1540.482h-5.518a1.479,1.479,0,0,1-1.384-1.16l-1.064-5.517a.932.932,0,0,1,.936-1.16h5.518a1.479,1.479,0,0,1,1.383,1.16l1.064,5.517A.932.932,0,0,1,1546.348,1540.482Z" transform="translate(-1501.811 -1483.163)" fill="#afcdfb"/>
      <path id="Path_11208" data-name="Path 11208" d="M1230.822,1029.382H1216.2a.393.393,0,0,1-.392-.392h0a.393.393,0,0,1,.392-.391h14.617a.393.393,0,0,1,.392.391h0A.393.393,0,0,1,1230.822,1029.382Z" transform="translate(-1210.667 -1028.192)" fill="#afcdfb"/>
      <path id="Path_11209" data-name="Path 11209" d="M1235.387,1047.565H1220.77a.393.393,0,0,1-.392-.392h0a.393.393,0,0,1,.392-.392h14.617a.393.393,0,0,1,.392.392h0A.393.393,0,0,1,1235.387,1047.565Z" transform="translate(-1214.787 -1044.604)" fill="#afcdfb"/>
    </g>
    <g id="Group_9005" data-name="Group 9005" transform="translate(30.982 18.213)">
      <path id="Path_11210" data-name="Path 11210" d="M1155.52,887.4H1150.5a.749.749,0,0,1-.747-.747h0a.749.749,0,0,1,.747-.747h5.016a.749.749,0,0,1,.747.747h0A.749.749,0,0,1,1155.52,887.4Z" transform="translate(-1149.757 -885.902)" fill="#fff"/>
      <path id="Path_11211" data-name="Path 11211" d="M1296.888,887.4h-5.016a.749.749,0,0,1-.747-.747h0a.749.749,0,0,1,.747-.747h5.016a.749.749,0,0,1,.747.747h0A.749.749,0,0,1,1296.888,887.4Z" transform="translate(-1277.361 -885.902)" fill="#fff"/>
      <path id="Path_11212" data-name="Path 11212" d="M1438.255,887.4h-5.016a.75.75,0,0,1-.747-.747h0a.749.749,0,0,1,.747-.747h5.016a.749.749,0,0,1,.747.747h0A.749.749,0,0,1,1438.255,887.4Z" transform="translate(-1404.964 -885.902)" fill="#fff"/>
      <path id="Path_11213" data-name="Path 11213" d="M1579.623,887.4h-5.016a.749.749,0,0,1-.747-.747h0a.749.749,0,0,1,.747-.747h5.016a.75.75,0,0,1,.747.747h0A.75.75,0,0,1,1579.623,887.4Z" transform="translate(-1532.567 -885.902)" fill="#fff"/>
      <path id="Path_11214" data-name="Path 11214" d="M1720.991,887.4h-5.016a.75.75,0,0,1-.747-.747h0a.749.749,0,0,1,.747-.747h5.016a.749.749,0,0,1,.747.747h0A.749.749,0,0,1,1720.991,887.4Z" transform="translate(-1660.173 -885.902)" fill="#fff"/>
      <path id="Path_11215" data-name="Path 11215" d="M1862.358,887.4h-5.016a.749.749,0,0,1-.747-.747h0a.749.749,0,0,1,.747-.747h5.016a.749.749,0,0,1,.748.747h0A.75.75,0,0,1,1862.358,887.4Z" transform="translate(-1787.776 -885.902)" fill="#fff"/>
      <path id="Path_11216" data-name="Path 11216" d="M2003.726,887.4h-5.016a.75.75,0,0,1-.747-.747h0a.749.749,0,0,1,.747-.747h5.016a.749.749,0,0,1,.747.747h0A.749.749,0,0,1,2003.726,887.4Z" transform="translate(-1915.379 -885.902)" fill="#fff"/>
    </g>
    <g id="Group_9006" data-name="Group 9006" transform="translate(84.892 29.999)">
      <path id="Path_11217" data-name="Path 11217" d="M1706.179,1016.718a2.613,2.613,0,0,1-2.354-1.034c-.843-1.308-.193-3.143,1.934-5.451a26.939,26.939,0,0,1,3.385-3.036.16.16,0,1,1,.189.258c-.071.052-7.061,5.227-5.238,8.055a2.788,2.788,0,0,0,2.749.847,15.027,15.027,0,0,0,6.04-2.495,10.313,10.313,0,0,0,4.1-4.358c.318-.893.219-1.525-.293-1.879-.661-.458-2.042-.458-3.695,0a11.659,11.659,0,0,0-4.157,2.056.16.16,0,0,1-.207-.245,12,12,0,0,1,4.279-2.12c1.769-.489,3.213-.472,3.963.047.444.307.875.947.411,2.249a10.61,10.61,0,0,1-4.226,4.518,15.353,15.353,0,0,1-6.181,2.546A6.119,6.119,0,0,1,1706.179,1016.718Z" transform="translate(-1703.468 -1006.961)" fill="#c65447"/>
    </g>
  </g>
</svg>
