<svg xmlns="http://www.w3.org/2000/svg" xmlns:xlink="http://www.w3.org/1999/xlink" width="143.277" height="158.424" viewBox="0 0 143.277 158.424">
  <defs>
    <linearGradient id="linear-gradient" y1="0.5" x2="1" y2="0.5" gradientUnits="objectBoundingBox">
      <stop offset="0.135" stop-color="#fff"/>
      <stop offset="1" stop-color="#bf7cff"/>
    </linearGradient>
    <linearGradient id="linear-gradient-2" x1="0.056" y1="0.725" x2="0.955" y2="0.226" gradientUnits="objectBoundingBox">
      <stop offset="0.135" stop-color="#fff"/>
      <stop offset="1" stop-color="#f468a9"/>
    </linearGradient>
    <linearGradient id="linear-gradient-3" x1="0.783" y1="1.377" x2="0.783" y2="0.379" gradientUnits="objectBoundingBox">
      <stop offset="0" stop-color="#ba0065"/>
      <stop offset="1" stop-color="#63004a"/>
    </linearGradient>
    <linearGradient id="linear-gradient-4" x1="0.43" y1="0.981" x2="0.43" y2="0.062" gradientUnits="objectBoundingBox">
      <stop offset="0" stop-color="#d1bbff"/>
      <stop offset="1" stop-color="#dacfff"/>
    </linearGradient>
    <linearGradient id="linear-gradient-5" x1="0.421" y1="0.981" x2="0.421" y2="0.067" gradientUnits="objectBoundingBox">
      <stop offset="0" stop-color="#d1bbff"/>
      <stop offset="1" stop-color="#fff"/>
    </linearGradient>
    <linearGradient id="linear-gradient-6" x1="0.468" y1="0.97" x2="0.468" y2="0.07" gradientUnits="objectBoundingBox">
      <stop offset="0" stop-color="#e1bdff"/>
      <stop offset="1" stop-color="#b17fff"/>
    </linearGradient>
    <linearGradient id="linear-gradient-7" x1="0.475" y1="0.979" x2="0.475" y2="0.042" gradientUnits="objectBoundingBox">
      <stop offset="0" stop-color="#cf95ff"/>
      <stop offset="1" stop-color="#9552ff"/>
    </linearGradient>
    <linearGradient id="linear-gradient-8" x1="0.071" y1="0.844" x2="0.071" y2="-0.086" xlink:href="#linear-gradient-4"/>
    <linearGradient id="linear-gradient-9" x1="0.82" y1="1.296" x2="0.82" y2="0.481" xlink:href="#linear-gradient-4"/>
    <linearGradient id="linear-gradient-10" x1="0.861" y1="1.34" x2="0.861" y2="0.534" gradientUnits="objectBoundingBox">
      <stop offset="0" stop-color="#744fd8"/>
      <stop offset="1" stop-color="#3996f7"/>
    </linearGradient>
    <linearGradient id="linear-gradient-11" x1="1.084" y1="1.523" x2="1.084" y2="0.751" gradientUnits="objectBoundingBox">
      <stop offset="0" stop-color="#cc8ba1"/>
      <stop offset="1" stop-color="#c4c9ff"/>
    </linearGradient>
    <linearGradient id="linear-gradient-12" x1="1.443" y1="1.862" x2="1.443" y2="1.007" gradientUnits="objectBoundingBox">
      <stop offset="0" stop-color="#1c257b"/>
      <stop offset="1" stop-color="#6a2c9a"/>
    </linearGradient>
    <linearGradient id="linear-gradient-13" x1="1.546" y1="2.033" x2="1.546" y2="1.248" xlink:href="#linear-gradient-4"/>
    <linearGradient id="linear-gradient-14" x1="0.807" y1="1.263" x2="0.807" y2="0.591" gradientUnits="objectBoundingBox">
      <stop offset="0" stop-color="#b31a8f"/>
      <stop offset="0.009" stop-color="#b4198e"/>
      <stop offset="0.149" stop-color="#cf1688"/>
      <stop offset="0.301" stop-color="#e41483"/>
      <stop offset="0.472" stop-color="#f21280"/>
      <stop offset="0.676" stop-color="#fb117e"/>
      <stop offset="1" stop-color="#fe117e"/>
    </linearGradient>
    <linearGradient id="linear-gradient-15" x1="1.031" y1="1.52" x2="1.031" y2="0.938" gradientUnits="objectBoundingBox">
      <stop offset="0"/>
      <stop offset="1" stop-color="#c14547"/>
    </linearGradient>
    <linearGradient id="linear-gradient-16" x1="2.566" y1="6.234" x2="2.566" y2="4.86" gradientUnits="objectBoundingBox">
      <stop offset="0" stop-color="#cc8ba1"/>
      <stop offset="1" stop-color="#fff"/>
    </linearGradient>
    <linearGradient id="linear-gradient-17" x1="4.159" y1="2.205" x2="4.159" y2="1.473" xlink:href="#linear-gradient-16"/>
  </defs>
  <g id="Group_9102" data-name="Group 9102" transform="translate(-3.846 -58.405)">
    <path id="Path_11315" data-name="Path 11315" d="M65.793,63.492s-58.88,51.58-61.836,95.627S57.636,202.448,87.073,190.5,65.793,63.492,65.793,63.492Z" opacity="0.5" fill="url(#linear-gradient)" style="mix-blend-mode: multiply;isolation: isolate"/>
    <path id="Path_11316" data-name="Path 11316" d="M50.852,119.67S15,149.824,16,169.912s17.331,19.369,17.416,25.228,14.549,26.578,53.657,20.626c48.389-7.363,49.473-38.413,50.034-59.842S50.852,119.67,50.852,119.67Z" opacity="0.5" fill="url(#linear-gradient-2)" style="mix-blend-mode: multiply;isolation: isolate"/>
    <g id="Group_9101" data-name="Group 9101">
      <path id="Path_11319" data-name="Path 11319" d="M115.4,93.227c-9.476-3.274-62.993,26.731-62.993,26.731-.181-.038-.365-.069-.556-.1-.333-.066-.669-.126-1-.185l26.766,42.242,24.414,8.434,45.091-16.1a2.417,2.417,0,0,1-1.976-1.271S123.876,96.153,115.4,93.227Z" fill="url(#linear-gradient-3)"/>
      <g id="Group_9088" data-name="Group 9088">
        <path id="Path_11320" data-name="Path 11320" d="M61.344,110.073l4.449-46.581a5.622,5.622,0,0,1,6.28-5.045l49.536,6.064a5.624,5.624,0,0,1,4.9,6.264l-5.614,45.85a5.622,5.622,0,0,1-6.2,4.9L66.324,116.2A5.623,5.623,0,0,1,61.344,110.073Z" fill="url(#linear-gradient-4)"/>
        <path id="Path_11321" data-name="Path 11321" d="M122.651,71.876l-5.241,42.805a3.676,3.676,0,0,1-4.056,3.207l-45.008-4.963a3.684,3.684,0,0,1-3.261-4l.93-9.724,3.226-33.761a3.679,3.679,0,0,1,4.109-3.3l46.1,5.644A3.676,3.676,0,0,1,122.651,71.876Z" fill="url(#linear-gradient-5)"/>
        <path id="Path_11322" data-name="Path 11322" d="M117.949,110.275l-.539,4.406a3.676,3.676,0,0,1-4.056,3.207l-45.008-4.963a3.684,3.684,0,0,1-3.261-4l.93-9.724s4.243-4.946,8.449-9.423v-.007c3.464-3.707,6.9-7.09,7.887-7.123.75-.021,2.485,2.373,4.43,5.515l.005.014c3.683,5.95,8.121,14.562,8.121,14.562s1.031-1.282,2.444-2.9l.009-.013c2.485-2.859,6.129-6.784,7.4-6.735.969.039,4.481,4.66,7.837,9.409h.007C114.646,105.373,116.629,108.305,117.949,110.275Z" fill="url(#linear-gradient-6)"/>
        <path id="Path_11323" data-name="Path 11323" d="M108.022,84.384a5.123,5.123,0,1,1-4.463-5.708A5.123,5.123,0,0,1,108.022,84.384Z" fill="#fff"/>
        <path id="Path_11324" data-name="Path 11324" d="M71.837,113.225S91.063,92.438,93.506,92.471s13.95,24.805,13.95,24.805Z" fill="url(#linear-gradient-7)"/>
        <path id="Path_11325" data-name="Path 11325" d="M106.944,66.249l14.6,14.63L123.2,67.366Z" fill="url(#linear-gradient-8)"/>
      </g>
      <g id="Group_9090" data-name="Group 9090">
        <path id="Path_11328" data-name="Path 11328" d="M59.005,152.714l16.288-51.549a6.5,6.5,0,0,1,8.314-4.183l54.5,18.827a6.5,6.5,0,0,1,4.019,8.261L124.7,174.511a6.5,6.5,0,0,1-8.187,4.044l-53.358-17.72A6.5,6.5,0,0,1,59.005,152.714Z" fill="url(#linear-gradient-9)"/>
        <path id="Path_11329" data-name="Path 11329" d="M137.5,124.381l-16.269,47.091a4.247,4.247,0,0,1-5.358,2.643L66.226,157.628a4.257,4.257,0,0,1-2.716-5.311l3.4-10.76,11.806-37.362a4.249,4.249,0,0,1,5.439-2.736l50.716,17.52A4.249,4.249,0,0,1,137.5,124.381Z" fill="url(#linear-gradient-10)"/>
        <path id="Path_11330" data-name="Path 11330" d="M122.906,166.626l-1.674,4.846a4.247,4.247,0,0,1-5.358,2.643L66.226,157.628a4.257,4.257,0,0,1-2.716-5.311l3.4-10.76s5.989-4.562,11.822-8.6l0-.007c4.809-3.351,9.511-6.342,10.631-6.141.853.157,2.235,3.282,3.672,7.3l0,.017c2.723,7.612,5.655,18.415,5.655,18.415s1.475-1.2,3.464-2.69l.012-.012c3.5-2.629,8.565-6.183,9.994-5.819,1.086.278,3.936,6.348,6.58,12.524l.007,0C120.359,160.288,121.891,164.081,122.906,166.626Z" fill="url(#linear-gradient-11)" style="mix-blend-mode: multiply;isolation: isolate"/>
        <circle id="Ellipse_3038" data-name="Ellipse 3038" cx="5.919" cy="5.919" r="5.919" transform="translate(105.92 138.397) rotate(-84.758)" fill="#fff"/>
        <path id="Path_11331" data-name="Path 11331" d="M70.1,158.811S96.844,139.975,99.6,140.6,109.359,172,109.359,172Z" fill="url(#linear-gradient-12)"/>
        <path id="Path_11332" data-name="Path 11332" d="M121.116,114.227l12.963,20.059,5.136-14.866Z" fill="url(#linear-gradient-13)"/>
      </g>
      <g id="Group_9091" data-name="Group 9091">
        <path id="Path_11333" data-name="Path 11333" d="M147.123,154.248s-11.239,29.51-22.259,47.792c0,0-45.717-12.912-86.106-28.427,0,0,3.023-29.96,12.094-53.943l26.766,42.242,24.414,8.434Z" fill="url(#linear-gradient-14)"/>
        <path id="Path_11334" data-name="Path 11334" d="M50.852,119.67l1.56.288,25.747,40.387,24.143,8.34,42.845-15.709,1.976,1.272-45.091,16.1-24.414-8.434Z" fill="#ff69cf"/>
        <path id="Path_11335" data-name="Path 11335" d="M40.751,173.118l36.867-11.206,24.414,8.434,22.836,31.691S53.575,179.359,40.751,173.118Z" opacity="0.5" fill="url(#linear-gradient-15)" style="mix-blend-mode: screen;isolation: isolate"/>
        <path id="Path_11336" data-name="Path 11336" d="M78.159,160.345l-1.253.444L40.751,173.118l36.867-11.206Z" fill="#a90c77"/>
        <path id="Path_11337" data-name="Path 11337" d="M102.3,168.685l.979,1.215,21.588,32.137-22.837-31.691Z" fill="#a90c77"/>
        <path id="Path_11338" data-name="Path 11338" d="M58.592,167.7s-11.284,5.212-11.769,8.957l-8.065-3.039Z" opacity="0.5" fill="url(#linear-gradient-16)" style="mix-blend-mode: multiply;isolation: isolate"/>
        <path id="Path_11339" data-name="Path 11339" d="M112.676,185.118s5.976,9.365,5.087,14.86l7.1,2.059Z" opacity="0.5" fill="url(#linear-gradient-17)" style="mix-blend-mode: multiply;isolation: isolate"/>
      </g>
    </g>
  </g>
</svg>
