<svg xmlns="http://www.w3.org/2000/svg" width="149.384" height="333.493" viewBox="0 0 149.384 333.493">
  <g id="Group_3396" data-name="Group 3396" transform="translate(-435.907 -85.326)">
    <g id="Group_3381" data-name="Group 3381" transform="translate(436.407 85.812)">
      <g id="Group_3370" data-name="Group 3370">
        <g id="Group_3361" data-name="Group 3361" transform="translate(20.329 62.349)">
          <path id="Path_6525" data-name="Path 6525" d="M465.893,169.015s-7.028-7.02-7.752-12.82,13.27-3.25,13.27-3.25,1.218,9.207,3.927,12.593S466.588,169.746,465.893,169.015Z" transform="translate(-458.114 -152.386)" fill="#fffefd" stroke="#1c191b" stroke-miterlimit="10" stroke-width="1"/>
          <path id="Path_6526" data-name="Path 6526" d="M533.9,202.751s-33.512-1.219-43.87-17.874-11.577-22.748-16.451-22.138-13.067,5.28-10.7,24.169,10.418,49.292,43.4,50.776C506.283,237.685,528.827,216.968,533.9,202.751Z" transform="translate(-458.39 -153.041)" fill="#fff" stroke="rgba(0,0,0,0)" stroke-width="1"/>
          <path id="Path_6527" data-name="Path 6527" d="M462.914,176.493s11.78-1.9,17.6-7.312c0,0-3.335-6.176-5.12-6.3s-9.063.892-10.807,6.808S462.914,176.493,462.914,176.493Z" transform="translate(-458.419 -153.052)" fill="#00805e"/>
          <path id="Path_6528" data-name="Path 6528" d="M506.424,238.129l-.195-.009c-24.62-1.108-39.779-18.808-43.839-51.186-1.056-8.422-.147-14.9,2.7-19.254a11.7,11.7,0,0,1,8.4-5.438c3.746-.473,5.489,2.649,9.738,10.168,1.818,3.216,4.08,7.219,7.17,12.188,10.107,16.251,43.158,17.641,43.49,17.653l.639.023-.215.6c-5.058,14.163-26.821,34.272-27.747,35.121Zm-32.263-74.993a4.341,4.341,0,0,0-.553.036,10.774,10.774,0,0,0-7.73,5.022c-2.726,4.163-3.587,10.429-2.559,18.625,3.986,31.78,18.768,49.188,42.757,50.358,1.9-1.768,21.979-20.686,27.135-34.02-4.854-.261-33.907-2.47-43.607-18.064-3.1-4.985-5.367-9-7.19-12.222C478.52,165.979,476.914,163.136,474.161,163.136Z" transform="translate(-458.358 -153.009)"/>
          <path id="Path_6529" data-name="Path 6529" d="M462.914,176.921s11.78-1.9,17.6-7.312" transform="translate(-458.419 -153.479)" fill="none" stroke="#1c191b" stroke-miterlimit="10" stroke-width="1"/>
        </g>
        <g id="Group_3368" data-name="Group 3368">
          <g id="Group_3363" data-name="Group 3363">
            <g id="Group_3362" data-name="Group 3362">
              <path id="Path_6530" data-name="Path 6530" d="M438.432,94.507c.942-.863,1.921-1.69,2.922-2.482,1.359-1.075,4.466-3.978,6.346-3.785,2.059.212,3.331,5.125,3.916,6.745.894,2.477,1.663,5,2.366,7.535a1.172,1.172,0,0,0,2.258-.622,86.168,86.168,0,0,0-3.467-10.388c-.794-1.89-1.9-5.151-4.246-5.619-3.939-.788-9.126,4.559-11.75,6.96-1.114,1.019.546,2.672,1.656,1.656Z" transform="translate(-436.407 -85.812)" fill="#fffefd" stroke="#1c191b" stroke-miterlimit="10" stroke-width="1"/>
            </g>
            <path id="Path_6531" data-name="Path 6531" d="M459.893,102.3c0,1.655-1.682,3-3.757,3s-3.757-1.341-3.757-3,1.682-3,3.757-3S459.893,100.649,459.893,102.3Z" transform="translate(-437.421 -86.669)" fill="#fffefd" stroke="#1c191b" stroke-miterlimit="10" stroke-width="1"/>
          </g>
          <path id="Path_6532" data-name="Path 6532" d="M445.709,111.055l5.382,44.412,20.954.135,8.458-43.093Z" transform="translate(-436.998 -87.414)" fill="#fffefd"/>
          <g id="Group_3367" data-name="Group 3367" transform="translate(9.625 28.209)">
            <g id="Group_3364" data-name="Group 3364" transform="translate(9.851)">
              <path id="Path_6533" data-name="Path 6533" d="M460.857,129.61s-3.859-8.022-1.117-11.78,6.194-1.422,6.194,2.538S460.857,129.61,460.857,129.61Z" transform="translate(-457.302 -115.932)" fill="#00805e" stroke="#1c191b" stroke-miterlimit="10" stroke-width="1"/>
              <path id="Path_6534" data-name="Path 6534" d="M478.578,128.936a8.381,8.381,0,1,0-2.335,11.895Z" transform="translate(-457.594 -116.533)" fill="#ff6766"/>
              <line id="Line_195" data-name="Line 195" x2="9.85" y2="3.148" transform="translate(0 12.967)" fill="#00805e" stroke="#1c191b" stroke-miterlimit="10" stroke-width="1"/>
              <path id="Path_6535" data-name="Path 6535" d="M471.712,124.893a8.847,8.847,0,1,0,4.379,16.522l.251-1.276a7.907,7.907,0,1,1,2.075-10.575l.25-1.273A8.83,8.83,0,0,0,471.712,124.893Z" transform="translate(-457.563 -116.501)" fill="#1c191b"/>
            </g>
            <g id="Group_3365" data-name="Group 3365" transform="translate(7.007 17.383)">
              <circle id="Ellipse_3010" data-name="Ellipse 3010" cx="8.378" cy="8.378" r="8.378" transform="translate(0 16.551) rotate(-81.036)" fill="#fffefd" stroke="#1c191b" stroke-miterlimit="10" stroke-width="1"/>
              <path id="Path_6536" data-name="Path 6536" d="M461.943,144.019s-6.22-1.828-2.894-4.6c1.765-1.469,3.215,1.955,3.215,1.955s.016-3.732,2.336-3.63.9,4.316.9,4.316,2.136-3.109,3.554-1.524c3.148,3.521-4.13,3.741-4.13,3.741s6.669-.185,4.58,3.268c-1.193,1.972-4.9-2.285-4.9-2.285s2.827,4.062,1.253,4.671-2.421-3.2-2.421-3.2-1.083,3.859-2.708,2.692.711-3.352.711-3.352-3.4,1.574-3.909-.761S461.943,144.019,461.943,144.019Z" transform="translate(-454.378 -134.699)" fill="#ffc100" stroke="#1c191b" stroke-miterlimit="10" stroke-width="1"/>
              <circle id="Ellipse_3011" data-name="Ellipse 3011" cx="1.168" cy="1.168" r="1.168" transform="translate(7.886 8.633)" fill="#fffefd" stroke="#1c191b" stroke-miterlimit="10" stroke-width="1"/>
            </g>
            <g id="Group_3366" data-name="Group 3366" transform="translate(3.352 1.796)">
              <circle id="Ellipse_3012" data-name="Ellipse 3012" cx="1.354" cy="1.354" r="1.354" transform="translate(18.211 2.471)" fill="#fffefd" stroke="#1c191b" stroke-miterlimit="10" stroke-width="1"/>
              <circle id="Ellipse_3013" data-name="Ellipse 3013" cx="1.219" cy="1.219" r="1.219" transform="translate(1.354 25.862)" fill="#fffefd" stroke="#1c191b" stroke-miterlimit="10" stroke-width="1"/>
              <path id="Path_6537" data-name="Path 6537" d="M455.955,152.919a.948.948,0,1,1-.948-.948A.948.948,0,0,1,455.955,152.919Z" transform="translate(-450.505 -120.015)" fill="#fffefd" stroke="#1c191b" stroke-miterlimit="10" stroke-width="1"/>
              <circle id="Ellipse_3014" data-name="Ellipse 3014" cx="1.185" cy="1.185" r="1.185" transform="translate(6.767 13.811)" fill="#fffefd" stroke="#1c191b" stroke-miterlimit="10" stroke-width="1"/>
              <path id="Path_6538" data-name="Path 6538" d="M453.513,119.475a1.624,1.624,0,1,1-1.624-1.625A1.624,1.624,0,0,1,453.513,119.475Z" transform="translate(-450.264 -117.85)" fill="#fffefd" stroke="#1c191b" stroke-miterlimit="10" stroke-width="1"/>
            </g>
            <path id="Path_6539" data-name="Path 6539" d="M446.685,120.285s4.537-2.268,7.143.778,5.645,3.442,8.479,1.167,8.655-8.344,16.756-2.453" transform="translate(-446.685 -116.018)" fill="none" stroke="#1c191b" stroke-miterlimit="10" stroke-width="1"/>
          </g>
          <path id="Path_6540" data-name="Path 6540" d="M472.394,156.04l-21.754-.14-5.5-45.369,35.889,1.5Zm-20.923-1.071,20.153.13,8.278-42.178-33.7-1.409Z" transform="translate(-436.962 -87.381)" fill="#1c191b"/>
          <path id="Path_6541" data-name="Path 6541" d="M442.822,111.491l4.837-9.038h31.583L483.1,112Z" transform="translate(-436.814 -86.868)" fill="#fffefd" stroke="#1c191b" stroke-miterlimit="10" stroke-width="1"/>
        </g>
        <g id="Group_3369" data-name="Group 3369" transform="translate(6.008 34.421)">
          <path id="Path_6542" data-name="Path 6542" d="M453.112,135.3a7.766,7.766,0,0,1,1.1-1.477,4.751,4.751,0,0,0,1.288-3.757c-.2-.938-1.313-.521-1.313-.521a2.352,2.352,0,0,0-.024-2.1c-.424-.606-1.57-.5-2.952-.195a19.226,19.226,0,0,0,1.792-2c1.287-1.783-.575-3.273-3.047-1.106s-6.736,5.226-6.634,9.484,2.606,10.25,5.01,9.946,6.4-5.585,6.229-7.414C454.484,135.305,453.9,135.1,453.112,135.3Z" transform="translate(-442.854 -122.597)" fill="#fffefd"/>
          <path id="Path_6543" data-name="Path 6543" d="M448.121,144.017a2.543,2.543,0,0,1-1.646-.705c-1.893-1.629-3.564-6.075-3.652-9.71-.1-4,3.369-6.935,5.9-9.08.316-.267.617-.523.9-.767,1.625-1.425,3.063-1.416,3.768-.775a1.83,1.83,0,0,1-.033,2.507,56.911,56.911,0,0,1-5.792,5.758l-.618-.7a57.762,57.762,0,0,0,5.65-5.6c.375-.519.438-1.016.162-1.267-.321-.292-1.257-.32-2.519.787-.283.247-.588.507-.908.777-2.385,2.022-5.652,4.792-5.567,8.344.08,3.35,1.634,7.565,3.327,9.021a1.533,1.533,0,0,0,1.157.472c2.238-.284,5.957-5.426,5.821-6.906-.036-.391-.191-.451-.249-.473-.536-.2-2.017.446-3.569,1.89l-.639-.686c1.34-1.247,3.329-2.538,4.542-2.08a1.37,1.37,0,0,1,.848,1.262c.193,2.09-4.056,7.593-6.636,7.921A1.859,1.859,0,0,1,448.121,144.017Z" transform="translate(-442.822 -122.566)" fill="#1c191b"/>
          <path id="Path_6544" data-name="Path 6544" d="M450.949,128.163s3.047-1.668,3.994,0-5.617,5.737-5.617,5.737" transform="translate(-443.235 -122.874)" fill="none" stroke="#1c191b" stroke-miterlimit="10" stroke-width="1"/>
          <path id="Path_6545" data-name="Path 6545" d="M452.36,136.332s2.81-2.265,3.622-3.89-.039-3.123-2-1.761" transform="translate(-443.427 -123.047)" fill="none" stroke="#1c191b" stroke-miterlimit="10" stroke-width="1"/>
        </g>
      </g>
      <g id="Group_3375" data-name="Group 3375" transform="translate(78.173 172.715)">
        <g id="Group_3373" data-name="Group 3373" transform="translate(25.195 107.742)">
          <g id="Group_3371" data-name="Group 3371" transform="translate(6.187)">
            <path id="Path_6546" data-name="Path 6546" d="M571.061,405.243l-5-19.969-12.679,4.087,8.675,21.869S571.325,406.3,571.061,405.243Z" transform="translate(-553.387 -385.274)" fill="#fff" stroke="#1c191b" stroke-miterlimit="10" stroke-width="1"/>
            <line id="Line_196" data-name="Line 196" x1="7.606" y1="21.789" transform="translate(2.955 3.134)" fill="none" stroke="#1c191b" stroke-miterlimit="10" stroke-width="1"/>
            <line id="Line_197" data-name="Line 197" x1="6.913" y1="21.214" transform="translate(6.745 1.913)" fill="none" stroke="#1c191b" stroke-miterlimit="10" stroke-width="1"/>
            <line id="Line_198" data-name="Line 198" x1="6.266" y1="20.582" transform="translate(9.967 0.874)" fill="none" stroke="#1c191b" stroke-miterlimit="10" stroke-width="1"/>
          </g>
          <g id="Group_3372" data-name="Group 3372" transform="translate(0 18.816)">
            <path id="Path_6547" data-name="Path 6547" d="M581.287,423.509l-8.577-17.6s-.054-1.5-4.042.471-10.273,4.8-10.568,5.372,2.127,5.98,2.127,5.98l-7.7,14.708s-4.458.937-5.455,1.876.725,2.754,3.373,3.456,3.489.9,3.992.8c5.766-1.073,26.7-12.969,26.7-12.969A2.7,2.7,0,0,0,581.287,423.509Z" transform="translate(-546.781 -405.365)" fill="#fffefd" stroke="#1c191b" stroke-miterlimit="10" stroke-width="1"/>
            <path id="Path_6548" data-name="Path 6548" d="M576.031,419.716a5.255,5.255,0,1,1-6.044-4.324A5.256,5.256,0,0,1,576.031,419.716Z" transform="translate(-547.974 -405.997)" fill="#00805e" stroke="#1c191b" stroke-miterlimit="10" stroke-width="1"/>
          </g>
        </g>
        <g id="Group_3374" data-name="Group 3374">
          <path id="Path_6549" data-name="Path 6549" d="M553.187,389.417s-25.455-50-27.893-73.488-5.416-36.491-5.416-36.491l33.309-9.207s2.167,44.141,6.5,70.138,6.253,40.351,8.666,45.767S553.187,389.417,553.187,389.417Z" transform="translate(-519.878 -270.231)" fill="#fffefd" stroke="#1c191b" stroke-miterlimit="10" stroke-width="1"/>
          <rect id="Rectangle_1687" data-name="Rectangle 1687" width="26.93" height="9.431" rx="3" transform="translate(26.992 117.973) rotate(-15.035)" fill="#fffefd" stroke="#1c191b" stroke-miterlimit="10" stroke-width="1"/>
        </g>
      </g>
      <g id="Group_3380" data-name="Group 3380" transform="translate(20.478 163.726)">
        <g id="Group_3378" data-name="Group 3378" transform="translate(0 124.504)">
          <g id="Group_3376" data-name="Group 3376" transform="translate(24.111)">
            <path id="Path_6550" data-name="Path 6550" d="M495.351,415.175l2.329-21-13.662-.6.533,24.147S495.227,416.288,495.351,415.175Z" transform="translate(-484.018 -393.574)" fill="#fff" stroke="#1c191b" stroke-miterlimit="10" stroke-width="1"/>
            <line id="Line_199" data-name="Line 199" y1="23.781" x2="0.196" transform="translate(2.302 0.11)" fill="none" stroke="#1c191b" stroke-miterlimit="10" stroke-width="1"/>
            <line id="Line_200" data-name="Line 200" y1="23.136" x2="0.795" transform="translate(5.271 0.266)" fill="none" stroke="#1c191b" stroke-miterlimit="10" stroke-width="1"/>
            <line id="Line_201" data-name="Line 201" y1="22.124" x2="1.674" transform="translate(8.413 0.646)" fill="none" stroke="#1c191b" stroke-miterlimit="10" stroke-width="1"/>
          </g>
          <g id="Group_3377" data-name="Group 3377" transform="translate(0 18.89)">
            <path id="Path_6551" data-name="Path 6551" d="M495.937,435.067l1.331-18.2s0-1.227-3.584-1.821c-3.7-.613-12.743-1.926-13.33-.947-.231.387-1.132,5.417-2.213,7.118s-6.576,7.005-10.879,9.618-8.954,4.962-8.989,6.32,4.109,1.983,7.393,1.98,28.12-1.07,28.12-1.07S495.728,437.92,495.937,435.067Z" transform="translate(-458.273 -413.744)" fill="#fffefd" stroke="#1c191b" stroke-miterlimit="10" stroke-width="1"/>
            <circle id="Ellipse_3015" data-name="Ellipse 3015" cx="5.395" cy="5.395" r="5.395" transform="translate(21.293 14.173) rotate(-59.146)" fill="#00805e" stroke="#1c191b" stroke-miterlimit="10" stroke-width="1"/>
          </g>
        </g>
        <g id="Group_3379" data-name="Group 3379" transform="translate(17.287)">
          <path id="Path_6552" data-name="Path 6552" d="M481.241,392.3s-5.957-36.559,0-64.994,19.227-60.39,22.477-65.806,42.788,16.248,42.788,16.248,3.25,3.25,0,10.562-28.943,43.836-39.267,71.492a182.866,182.866,0,0,0-9.323,34S481.7,395.509,481.241,392.3Z" transform="translate(-476.85 -260.633)" fill="#fffefd" stroke="#1c191b" stroke-miterlimit="10" stroke-width="1"/>
          <rect id="Rectangle_1688" data-name="Rectangle 1688" width="26.93" height="9.431" rx="3" transform="translate(0.146 128.402) rotate(0.89)" fill="#fffefd" stroke="#1c191b" stroke-miterlimit="10" stroke-width="1"/>
        </g>
      </g>
    </g>
    <path id="Path_6553" data-name="Path 6553" d="M560.79,243.665l-8.034,37.778s-36.829-7.515-53.484-20.92c0,0-3.047-30.466,39.4-64.384l16.248,3.453S565.665,222.656,560.79,243.665Z" transform="translate(-3.987 -7.002)" fill="#fff" stroke="#000" stroke-miterlimit="10" stroke-width="1"/>
    <g id="Group_3391" data-name="Group 3391" transform="translate(540.578 190.559)">
      <g id="Group_3389" data-name="Group 3389" transform="translate(16.054 89.163)">
        <path id="Path_6567" data-name="Path 6567" d="M573.707,292.862s-1.93,10.054-4.468,14.421-5.653,8.936-3.994,9.444,5.571-5.179,5.571-5.179-3.1,7.515-3.811,10.155-.609,4.469.508,4.367c.424-.038,1.186-1.149,2.029-2.7-.3,1.568-.472,3.324.165,3.637,1.192.584,1.66-.032,2.523-1.554s.264.818.617,1.359,1.172.845,1.947-.429c.351-.575.991-1.482,1.588-2.3-.306,1.8.156,2.36.677,1.991.711-.5,2.843-4.472,4.875-10.768s4.062-20.716,4.062-20.716Z" transform="translate(-564.779 -292.862)" fill="#fffefd"/>
        <path id="Path_6568" data-name="Path 6568" d="M573.2,315c-1.117,3.453-4.57,10.968-5.688,11.069s-1.218-1.726-.508-4.367,3.811-10.155,3.811-10.155-3.912,5.687-5.571,5.179,1.455-5.077,3.994-9.444,4.468-14.421,4.468-14.421l12.287,1.727s-2.03,14.42-4.062,20.716-4.164,10.265-4.875,10.768-1.321-.715,0-4.472a32.791,32.791,0,0,0,1.524-5.179" transform="translate(-564.779 -292.862)" fill="none" stroke="#1c191b" stroke-miterlimit="10" stroke-width="1"/>
        <path id="Path_6569" data-name="Path 6569" d="M570.318,324.018s-1.333,4.288,0,4.729,3.2-3.25,4.075-5.483,2.2-6.365,2.2-6.365" transform="translate(-565.093 -294.387)" fill="none" stroke="#1c191b" stroke-miterlimit="10" stroke-width="1"/>
        <path id="Path_6570" data-name="Path 6570" d="M573.163,326.567s-.625,2.449,1.069,2.608,2.832-4.046,3.5-6.079" transform="translate(-565.304 -294.781)" fill="none" stroke="#1c191b" stroke-miterlimit="10" stroke-width="1"/>
      </g>
      <g id="Group_3390" data-name="Group 3390">
        <path id="Path_6571" data-name="Path 6571" d="M547.637,230.967s17.671,13.608,19.9,32.09,2.437,24.372,3.859,25.184,12.186,3.656,13.811,2.641,9.748-23.415,5.28-44.2-13.811-41.1-39-49.021Z" transform="translate(-547.637 -197.657)" fill="#fffefd" stroke="rgba(0,0,0,0)" stroke-width="1"/>
        <path id="Path_6572" data-name="Path 6572" d="M570.827,284.306a62.305,62.305,0,0,1,19.614,2.4s-2,7.547-3.157,8.864-2.885,1.047-4.371.79-9.969-1.352-10.54-3.21S570.827,284.306,570.827,284.306Z" transform="translate(-549.109 -203.152)" fill="#00805e"/>
        <path id="Path_6573" data-name="Path 6573" d="M547.637,230.967s17.671,13.608,19.9,32.09,2.437,24.372,3.859,25.184,12.186,3.656,13.811,2.641,9.748-23.415,5.28-44.2-13.811-41.1-39-49.021" transform="translate(-547.637 -197.657)" fill="none" stroke="#000" stroke-miterlimit="10" stroke-width="1"/>
        <path id="Path_6574" data-name="Path 6574" d="M570.827,284.306a62.305,62.305,0,0,1,19.614,2.4" transform="translate(-549.109 -203.152)" fill="none" stroke="#000" stroke-miterlimit="10" stroke-width="1"/>
      </g>
    </g>
    <g id="Group_3395" data-name="Group 3395" transform="translate(524.013 125.337)">
      <g id="Group_3394" data-name="Group 3394" transform="translate(0)">
        <path id="Path_6575" data-name="Path 6575" d="M533.957,164.021l-4.007-1.893,5.1-4.439Z" transform="translate(-529.95 -129.899)" fill="#ff6766"/>
        <path id="Path_6576" data-name="Path 6576" d="M547.773,144.1l7.914,1.556c5.261,1.034,8.6,6.781,7.424,12.771L560.7,170.692c-.068.346-.153.683-.247,1.015a5,5,0,0,1-.085,1.15l-1.469,7.467-.081.416-1.469,7.467a5.036,5.036,0,0,1-5.894,3.959l-3.139-.617a5.036,5.036,0,0,1-3.958-5.9l1.3-6.608-4.576-.9c-5.261-1.034-8.6-6.781-7.424-12.771l2.412-12.267C537.245,147.118,542.513,143.064,547.773,144.1Z" transform="translate(-530.17 -129.026)" fill="#fff" stroke="#000" stroke-miterlimit="10" stroke-width="1"/>
        <g id="Group_3392" data-name="Group 3392" transform="translate(3.761 29.953)">
          <path id="Path_6577" data-name="Path 6577" d="M544.555,161.852A1.8,1.8,0,1,1,542.816,160,1.8,1.8,0,0,1,544.555,161.852Z" transform="translate(-534.41 -159.999)" fill="#1c191b"/>
          <path id="Path_6578" data-name="Path 6578" d="M553.453,169.936a5.225,5.225,0,1,1-5.056-5.389A5.224,5.224,0,0,1,553.453,169.936Z" transform="translate(-534.54 -160.287)" fill="#ff999a"/>
          <path id="Path_6579" data-name="Path 6579" d="M533.966,173.247s2.387,1.5,5.055-1.138" transform="translate(-533.966 -160.768)" fill="none" stroke="#1c191b" stroke-miterlimit="10" stroke-width="1"/>
        </g>
        <path id="Path_6580" data-name="Path 6580" d="M555.057,150.881s-14.263.081-17.28-7.818,4.506-12.153,11.519-9.833c0,0-1.139-5.027,5.655-5.211s9.52,8.287,9.52,8.287,13.417,1.824,15.866,15.876-4.9,22.3-10.587,25.317a19.554,19.554,0,0,1-10.952,2.248l4.027-13.647S552.548,161.781,555.057,150.881Z" transform="translate(-530.403 -128.016)" fill="#1c191b"/>
        <g id="Group_3393" data-name="Group 3393" transform="translate(28.078 34.699)">
          <path id="Path_6581" data-name="Path 6581" d="M572.65,172.676a6.42,6.42,0,1,1-5.071-7.488A6.394,6.394,0,0,1,572.65,172.676Z" transform="translate(-559.931 -165.066)" fill="#fff"/>
          <path id="Path_6582" data-name="Path 6582" d="M562.974,171.816s.557-4.3,4.823-2.97" transform="translate(-560.124 -165.29)" fill="none" stroke="#020202" stroke-miterlimit="10" stroke-width="0.275"/>
        </g>
      </g>
      <rect id="Rectangle_1689" data-name="Rectangle 1689" width="24.237" height="12.592" rx="5" transform="translate(8.562 55.31) rotate(10.988)" fill="#00805e" stroke="#1c191b" stroke-miterlimit="10" stroke-width="1"/>
    </g>
  </g>
</svg>
