<svg id="Group_3503" data-name="Group 3503" xmlns="http://www.w3.org/2000/svg" width="151.553" height="160.108" viewBox="0 0 151.553 160.108">
  <g id="Group_8967" data-name="Group 8967">
    <g id="Group_8933" data-name="Group 8933" transform="translate(145.335 27.363)">
      <path id="Path_11033" data-name="Path 11033" d="M2546.586,445.851a3.9,3.9,0,0,1-1.319-1.974,3.531,3.531,0,0,1,.344-2.029l-1.4-.28a5.112,5.112,0,0,0,.288,3.1,3.557,3.557,0,0,0,1.245,1.1A1.212,1.212,0,0,0,2546.586,445.851Z" transform="translate(-2544.086 -441.569)" fill="#6bb7bf"/>
      <path id="Path_11034" data-name="Path 11034" d="M2554.03,475.342l1.277,1.462s-3.611.959-5.675-1.6C2549.632,475.208,2552.672,476.236,2554.03,475.342Z" transform="translate(-2549.089 -471.914)" fill="#86d1cd"/>
    </g>
    <g id="Group_8934" data-name="Group 8934" transform="translate(83.126 10.032)">
      <path id="Path_11035" data-name="Path 11035" d="M1919.226,266.974a2.574,2.574,0,0,1,3.6-.84l1.26-1.371s-1.316-.871-4.1,1.024C1918.169,267.027,1919.226,266.974,1919.226,266.974Z" transform="translate(-1917.924 -264.564)" fill="#f99746"/>
      <path id="Path_11036" data-name="Path 11036" d="M1908.749,273.092s-.438-2.358,3.444-4.1a4.162,4.162,0,0,0-1.683,3.187Z" transform="translate(-1908.734 -268.56)" fill="#f99746"/>
    </g>
    <g id="Group_8935" data-name="Group 8935" transform="translate(1.233 78.63)">
      <path id="Path_11037" data-name="Path 11037" d="M1075.15,969.18a2.338,2.338,0,0,1-1.3-3.1l-1.418-.921s-.582,1.31,1.536,3.516C1075.358,970.119,1075.15,969.18,1075.15,969.18Z" transform="translate(-1072.363 -965.159)" fill="#5685d8"/>
      <path id="Path_11038" data-name="Path 11038" d="M1083.614,992.019s-2.046.748-4.191-2.466a3.782,3.782,0,0,0,3.109,1.026Z" transform="translate(-1078.732 -987.164)" fill="#739af0"/>
    </g>
    <path id="Path_11039" data-name="Path 11039" d="M1163.644,688.824s1.178-.744,1.3-1.643c0,0,1.147.062,1.4.434,0,0-.527,1.488-1.147,1.767C1165.194,689.382,1163.8,689.475,1163.644,688.824Z" transform="translate(-1153.473 -635.769)" fill="#f1a34f"/>
    <path id="Path_11041" data-name="Path 11041" d="M1775.075,514.971s-1.756-1.108-1.94-2.448c0,0-1.709.092-2.079.647,0,0,.786,2.217,1.709,2.633C1772.765,515.8,1774.844,515.941,1775.075,514.971Z" transform="translate(-1701.411 -478.212)" fill="#86d1cd"/>
    <g id="Group_8944" data-name="Group 8944" transform="translate(11.519)">
      <rect id="Rectangle_2856" data-name="Rectangle 2856" width="34.122" height="98.284" transform="translate(92.879 61.269)" fill="#ffa412"/>
      <rect id="Rectangle_2857" data-name="Rectangle 2857" width="90.146" height="98.284" transform="translate(2.733 61.269)" fill="#ffb93e"/>
      <rect id="Rectangle_2858" data-name="Rectangle 2858" width="6.879" height="90.146" transform="translate(92.879 109.347) rotate(90)" fill="#ffa412"/>
      <rect id="Rectangle_2859" data-name="Rectangle 2859" width="6.879" height="34.122" transform="translate(127.002 109.347) rotate(90)" fill="#fa9712"/>
      <path id="Path_11060" data-name="Path 11060" d="M1836.224,708.091s20.366-13.234,34.209-8.981l-2.856,2.667,1.287,4.482a50.741,50.741,0,0,0-33.062,2.585Z" transform="translate(-1771.337 -645.77)" fill="#f99746"/>
      <path id="Path_11061" data-name="Path 11061" d="M1308.949,345.121s-3.593-.434-8.949-1.171c-14.218-1.956-40.85-6.048-45.63-9.834-7.511-5.948,10.287-31.209,17.992-34.715S1308.949,345.121,1308.949,345.121Z" transform="translate(-1245.202 -285.796)" fill="#f99746"/>
      <path id="Path_11062" data-name="Path 11062" d="M1879.943,189.971c1.284,6.258-56.875,33.294-56.875,33.294s1.058-2.861,2.779-7.341l0-.008c6.288-16.362,21.435-54.333,26.413-53.808a6.045,6.045,0,0,1,1.738.517C1861.648,165.989,1878.76,184.207,1879.943,189.971Z" transform="translate(-1759.85 -162.103)" fill="#f99746"/>
      <path id="Path_11063" data-name="Path 11063" d="M1879.165,168.19c-3.551,6.17-27.289,47.088-27.661,47.726,6.288-16.362,21.436-54.333,26.413-53.808a3.164,3.164,0,0,1,1.738.517C1880.563,163.286,1881.127,164.783,1879.165,168.19Z" transform="translate(-1785.502 -162.103)" fill="#ed7d2b"/>
      <path id="Path_11064" data-name="Path 11064" d="M1312.276,600.841h-.01c-14.219-1.956-40.85-6.048-45.63-9.834-2.158-6.08,3.442-6.575,7.517-7S1312.276,600.841,1312.276,600.841Z" transform="translate(-1257.469 -542.687)" fill="#ed7d2b"/>
      <path id="Path_11065" data-name="Path 11065" d="M1717.69,715.5s3.26-7.417,9.677-7.828c6.7-.429,10.508,7.828,10.508,7.828Z" transform="translate(-1664.79 -654.241)" fill="#ed7d2b"/>
      <rect id="Rectangle_2860" data-name="Rectangle 2860" width="94.326" height="13.518" transform="translate(0 61.269)" fill="#ffc261"/>
      <rect id="Rectangle_2861" data-name="Rectangle 2861" width="35.552" height="13.518" transform="translate(94.326 61.269)" fill="#fa9712"/>
      <path id="Path_11066" data-name="Path 11066" d="M1341.74,745.829s-18.475-5.852-30.941-1.983c-14.369,4.46-13.518,22.191-13.518,22.191l3.379-1.39,4.562,2.14s.77-18.775,12.486-21.4C1327.838,743.111,1341.74,745.829,1341.74,745.829Z" transform="translate(-1285.536 -685.693)" fill="#f99746"/>
      <rect id="Rectangle_2862" data-name="Rectangle 2862" width="6.879" height="98.274" transform="translate(39.847 61.269)" fill="#ffa412"/>
    </g>
    <g id="Group_8951" data-name="Group 8951" transform="translate(0 74.069)">
      <rect id="Rectangle_2870" data-name="Rectangle 2870" width="18.298" height="52.703" transform="translate(49.805 32.881)" fill="#4a75cb"/>
      <rect id="Rectangle_2871" data-name="Rectangle 2871" width="48.34" height="52.703" transform="translate(1.466 32.881)" fill="#739af0"/>
      <rect id="Rectangle_2872" data-name="Rectangle 2872" width="3.689" height="48.34" transform="translate(49.805 58.662) rotate(90)" fill="#afcdfb"/>
      <rect id="Rectangle_2873" data-name="Rectangle 2873" width="3.689" height="18.298" transform="translate(68.103 58.662) rotate(90)" fill="#88b3ff"/>
      <path id="Path_11102" data-name="Path 11102" d="M1412.936,1233.3s14.82-6.727,25.15-4.17l-2.063,1.38,1.04,2.437a50.8,50.8,0,0,0-24.424.751Z" transform="translate(-1376.208 -1201.234)" fill="#4a75cb"/>
      <g id="Group_8950" data-name="Group 8950" transform="translate(3.951 0)">
        <path id="Path_11103" data-name="Path 11103" d="M1128.281,1058.277s-1.927-.233-4.8-.628c-7.624-1.049-21.905-3.243-24.469-5.273-4.028-3.189,5.516-16.735,9.648-18.615S1128.281,1058.277,1128.281,1058.277Z" transform="translate(-1098.042 -1026.465)" fill="#72a9f7"/>
        <path id="Path_11104" data-name="Path 11104" d="M1418.679,978.875c.688,3.356-30.5,17.854-30.5,17.854s.568-1.534,1.49-3.937l0,0c3.371-8.774,11.495-29.135,14.163-28.854a3.224,3.224,0,0,1,.932.277C1408.869,966.015,1418.045,975.784,1418.679,978.875Z" transform="translate(-1358.226 -963.931)" fill="#72a9f7"/>
        <path id="Path_11105" data-name="Path 11105" d="M1417.475,967.2c-1.9,3.308-14.633,25.25-14.832,25.592,3.372-8.774,11.495-29.135,14.164-28.854a1.7,1.7,0,0,1,.932.277C1418.225,964.566,1418.526,965.369,1417.475,967.2Z" transform="translate(-1371.195 -963.931)" fill="#4a75cb"/>
        <path id="Path_11106" data-name="Path 11106" d="M1129.688,1187.521h0c-7.624-1.049-21.905-3.243-24.468-5.273-1.158-3.26,1.845-3.525,4.031-3.755S1129.688,1187.521,1129.688,1187.521Z" transform="translate(-1104.243 -1156.337)" fill="#4a75cb"/>
        <path id="Path_11107" data-name="Path 11107" d="M1334.59,1245.585s1.748-3.977,5.189-4.2c3.594-.23,5.635,4.2,5.635,4.2Z" transform="translate(-1310.169 -1212.735)" fill="#4a75cb"/>
      </g>
      <rect id="Rectangle_2874" data-name="Rectangle 2874" width="50.581" height="7.249" transform="translate(0 32.881)" fill="#88b3ff"/>
      <rect id="Rectangle_2875" data-name="Rectangle 2875" width="19.065" height="7.249" transform="translate(50.581 32.881)" fill="#3969b7"/>
      <path id="Path_11108" data-name="Path 11108" d="M1144.568,1261.138s-9.906-3.138-16.592-1.064c-7.705,2.392-7.249,11.9-7.249,11.9l1.812-.745,2.446,1.148s.413-10.068,6.7-11.477C1137.113,1259.681,1144.568,1261.138,1144.568,1261.138Z" transform="translate(-1114.43 -1228.864)" fill="#4a75cb"/>
      <rect id="Rectangle_2876" data-name="Rectangle 2876" width="3.689" height="53.158" transform="translate(21.368 32.881)" fill="#afcdfb"/>
    </g>
    <g id="Group_8962" data-name="Group 8962" transform="translate(54.806 8.644)">
      <path id="Path_11130" data-name="Path 11130" d="M1628.679,258.814c-.047.058-.1.115-.146.171l-.051.056c-.039.043-.078.084-.118.125a5.167,5.167,0,0,1-7.932-6.565,5.277,5.277,0,0,1,.386-.49c.051-.056.1-.112.154-.165s.1-.1.155-.153a5.166,5.166,0,0,1,7.552,7.02Z" transform="translate(-1619.51 -250.383)" fill="#cde0fb"/>
      <g id="Group_8961" data-name="Group 8961" transform="translate(0.504 0.499)">
        <path id="Path_11131" data-name="Path 11131" d="M1629.365,264.9a4.716,4.716,0,1,1,.277-.008Q1629.5,264.9,1629.365,264.9Zm.012-9.133q-.13,0-.26.007a4.422,4.422,0,1,0,.26-.007Z" transform="translate(-1624.664 -255.483)" fill="#afcdfb"/>
      </g>
      <path id="Path_11132" data-name="Path 11132" d="M1639.257,270.18l1.679,1.638,2.3-.454-1.039,2.1,1.143,2.048-2.321-.339-1.595,1.72-.4-2.312-2.129-.985,2.077-1.09Z" transform="translate(-1635.198 -268.242)" fill="#afcdfb"/>
    </g>
    <g id="Group_8964" data-name="Group 8964" transform="translate(32.492 141.097)">
      <path id="Path_11133" data-name="Path 11133" d="M1407.987,1618.2c-.084.1-.171.205-.26.3-.031.034-.061.068-.091.1-.07.076-.14.15-.212.224a9.229,9.229,0,0,1-14.168-11.727,9.366,9.366,0,0,1,.69-.874q.135-.152.275-.3t.276-.273a9.2,9.2,0,0,1,2.364-1.624,9.229,9.229,0,0,1,11.125,14.164Z" transform="translate(-1391.609 -1603.143)" fill="#cde0fb"/>
      <g id="Group_8963" data-name="Group 8963" transform="translate(0.902 0.892)">
        <path id="Path_11134" data-name="Path 11134" d="M1409.212,1629.071a8.426,8.426,0,1,1,.5-.014Q1409.459,1629.072,1409.212,1629.071Zm.021-16.314c-.155,0-.31,0-.466.014a7.882,7.882,0,1,0,.466-.014Z" transform="translate(-1400.816 -1612.255)" fill="#afcdfb"/>
      </g>
      <path id="Path_11135" data-name="Path 11135" d="M1426.882,1638.506l3,2.926,4.11-.812-1.856,3.756,2.042,3.658-4.146-.6-2.848,3.073-.706-4.13-3.8-1.76,3.709-1.947Z" transform="translate(-1419.633 -1635.043)" fill="#afcdfb"/>
    </g>
    <g id="Group_8965" data-name="Group 8965" transform="translate(72.109 92.748)">
      <path id="Path_11136" data-name="Path 11136" d="M1801.9,1145.507a4.587,4.587,0,0,1-2.7.728,4.151,4.151,0,0,1-2.134-1.148l-.841,1.462a6.017,6.017,0,0,0,3.57.846,4.2,4.2,0,0,0,1.694-.975A1.434,1.434,0,0,0,1801.9,1145.507Z" transform="translate(-1796.226 -1141.587)" fill="#6bb7bf"/>
      <path id="Path_11137" data-name="Path 11137" d="M1837.178,1110.221l2.112-.875s-.289,4.39-3.917,5.731C1835.373,1115.077,1837.665,1112.072,1837.178,1110.221Z" transform="translate(-1831.54 -1109.346)" fill="#86d1cd"/>
    </g>
    <path id="Path_11138" data-name="Path 11138" d="M2001.616,1654.2a3.029,3.029,0,0,0,1.829,1.024s.122,1.142-.207,1.446c0,0-1.553-.284-1.927-.851C2001.312,1655.819,2001,1654.457,2001.616,1654.2Z" transform="translate(-1909.05 -1508.104)" fill="#f99746"/>
    <g id="Group_8966" data-name="Group 8966" transform="translate(76.231 127.015)">
      <path id="Path_11139" data-name="Path 11139" d="M1840.185,1464.045a3.9,3.9,0,0,1-.823-2.226,3.526,3.526,0,0,1,.807-1.893l-1.3-.6a5.11,5.11,0,0,0-.441,3.084,3.554,3.554,0,0,0,.954,1.358A1.213,1.213,0,0,0,1840.185,1464.045Z" transform="translate(-1838.32 -1459.327)" fill="#cde0fb"/>
      <path id="Path_11140" data-name="Path 11140" d="M1844.519,1494.2l.9,1.719s-3.735.093-5.148-2.873C1840.273,1493.042,1842.991,1494.749,1844.519,1494.2Z" transform="translate(-1840.082 -1489.741)" fill="#cde0fb"/>
    </g>
  </g>
</svg>
