<svg xmlns="http://www.w3.org/2000/svg" width="15.864" height="14.859" viewBox="0 0 15.864 14.859"><defs><style>.a{fill:#fedb41;}.b{fill:#00acea;}.c{fill:#00efd1;}.d{fill:#083863;}</style></defs><g transform="translate(0 -105)"><path class="a" d="M108.377,160.121a2.288,2.288,0,1,1-2.287,2.287A2.288,2.288,0,0,1,108.377,160.121Zm0,0" transform="translate(-101.907 -52.409)"/><path class="b" d="M24.88,233.829v1.639a1.477,1.477,0,0,1-1.335,1.586H11.335A1.477,1.477,0,0,1,10,235.468v-1.079h0l2.84-2.254a1.162,1.162,0,0,1,1.476.007l1.7,1.351a1.2,1.2,0,0,0,1.819-.381l2.272-3.686a1.219,1.219,0,0,1,2.167.023Zm0,0" transform="translate(-9.508 -117.686)"/><path class="c" d="M24.88,116.586v9.065l-2.6-4.381a1.219,1.219,0,0,0-2.167-.023l-2.272,3.686a1.2,1.2,0,0,1-1.819.381l-1.7-1.351a1.162,1.162,0,0,0-1.476-.007L10,126.21h0v-9.625A1.477,1.477,0,0,1,11.334,115H23.545a1.477,1.477,0,0,1,1.335,1.586Zm-7.05,2.922A2.13,2.13,0,0,0,15.9,117.22a2.322,2.322,0,0,0,0,4.575A2.13,2.13,0,0,0,17.829,119.507Zm0,0" transform="translate(-9.507 -9.508)"/><g transform="translate(0 105)"><path class="d" d="M98.869,155.669a2.78,2.78,0,1,0-2.779-2.78A2.78,2.78,0,0,0,98.869,155.669Zm0-4.575a1.8,1.8,0,1,1-1.8,1.8A1.8,1.8,0,0,1,98.869,151.094Zm0,0" transform="translate(-92.372 -147.889)"/><path class="d" d="M14.1,105H1.767A1.943,1.943,0,0,0,0,107.078v10.7a1.943,1.943,0,0,0,1.766,2.078H14.1a1.943,1.943,0,0,0,1.766-2.078v-10.7A1.943,1.943,0,0,0,14.1,105Zm-12.332.984H14.1a1.023,1.023,0,0,1,.93,1.094v7.515l-1.869-3.115a1.621,1.621,0,0,0-2.868-.029L8,115.135a.841.841,0,0,1-1.267.263l-1.716-1.351a1.548,1.548,0,0,0-1.956-.007L.837,115.785v-8.707a1.023,1.023,0,0,1,.93-1.094ZM14.1,118.875H1.767a1.023,1.023,0,0,1-.93-1.094v-.813l2.684-2.109a.814.814,0,0,1,1.028,0l1.716,1.351a1.6,1.6,0,0,0,2.407-.5l2.295-3.686a.853.853,0,0,1,1.51.016l2.552,4.254v1.482a1.023,1.023,0,0,1-.93,1.094Zm0,0" transform="translate(0 -105)"/></g></g></svg>