<svg id="_081-layers" data-name="081-layers" xmlns="http://www.w3.org/2000/svg" width="14" height="14" viewBox="0 0 14 14">
  <g id="Group_504" data-name="Group 504" transform="translate(0 0)">
    <g id="Group_503" data-name="Group 503" transform="translate(0)">
      <path id="Path_257" data-name="Path 257" d="M13.691,3.283,7.257.065a.566.566,0,0,0-.506,0L.317,3.283a.566.566,0,0,0,0,1.012L6.751,7.511a.566.566,0,0,0,.506,0l6.434-3.217a.566.566,0,0,0,0-1.012ZM7,6.373,1.834,3.788,7,1.2l5.17,2.585Z" transform="translate(-0.004 -0.006)" fill="#868eae"/>
    </g>
  </g>
  <g id="Group_506" data-name="Group 506" transform="translate(0 9.651)">
    <g id="Group_505" data-name="Group 505">
      <path id="Path_258" data-name="Path 258" d="M13.94,353.284a.566.566,0,0,0-.759-.253L7,356.121.818,353.031a.566.566,0,0,0-.506,1.012l6.434,3.217a.565.565,0,0,0,.506,0l6.434-3.217A.566.566,0,0,0,13.94,353.284Z" transform="translate(0 -352.971)" fill="#868eae"/>
    </g>
  </g>
  <g id="Group_508" data-name="Group 508" transform="translate(0 6.434)">
    <g id="Group_507" data-name="Group 507">
      <path id="Path_259" data-name="Path 259" d="M13.94,235.627a.566.566,0,0,0-.759-.253L7,238.465.818,235.374a.566.566,0,1,0-.506,1.012L6.747,239.6a.566.566,0,0,0,.506,0l6.434-3.217A.566.566,0,0,0,13.94,235.627Z" transform="translate(0 -235.314)" fill="#868eae"/>
    </g>
  </g>
</svg>
