<svg xmlns="http://www.w3.org/2000/svg" width="20.124" height="20.119" viewBox="0 0 20.124 20.119">
  <g id="layers" transform="translate(0 -0.062)">
    <g id="Group_995" data-name="Group 995" transform="translate(0 0.062)">
      <g id="Group_994" data-name="Group 994" transform="translate(0)">
        <path id="Path_814" data-name="Path 814" d="M19.278,5.348,10.984.323a1.761,1.761,0,0,0-1.845,0L.846,5.348a1.769,1.769,0,0,0,0,3.019l8.294,5.1a1.762,1.762,0,0,0,1.844,0l8.293-5.1a1.769,1.769,0,0,0,0-3.019Z" transform="translate(0 -0.062)" fill="#ff4d4f"/>
      </g>
    </g>
    <g id="Group_997" data-name="Group 997" transform="translate(0 9.418)">
      <g id="Group_996" data-name="Group 996" transform="translate(0)">
        <path id="Path_815" data-name="Path 815" d="M19.818,238.1,11.6,243.157a2.951,2.951,0,0,1-3.073,0L.306,238.1c-.191.285-.306.224-.306.582a1.756,1.756,0,0,0,.846,1.51l8.294,5.1a1.762,1.762,0,0,0,1.844,0l8.293-5.1c.53-.324.847-.5.846-1.117A1.747,1.747,0,0,0,19.818,238.1Z" transform="translate(0 -238.099)" fill="#ff4d4f"/>
      </g>
    </g>
    <g id="Group_999" data-name="Group 999" transform="translate(0 12.562)">
      <g id="Group_998" data-name="Group 998" transform="translate(0)">
        <path id="Path_816" data-name="Path 816" d="M19.818,318.1,11.6,323.157a2.944,2.944,0,0,1-3.073,0L.306,318.1a1.1,1.1,0,0,0-.306.745,1.756,1.756,0,0,0,.846,1.51l8.294,5.1a1.762,1.762,0,0,0,1.844,0l8.293-5.1a1.756,1.756,0,0,0,.846-1.51A1.1,1.1,0,0,0,19.818,318.1Z" transform="translate(0 -318.099)" fill="#ff4d4f"/>
      </g>
    </g>
  </g>
</svg>
