<svg xmlns="http://www.w3.org/2000/svg" width="12.509" height="15.02" viewBox="0 0 12.509 15.02"><defs><style>.a{fill:#9299b8;}</style></defs><g transform="translate(0)"><path class="a" d="M53.462,1.832A6.255,6.255,0,0,0,42.785,6.255a7.151,7.151,0,0,0,.957,3.418A13.258,13.258,0,0,0,45.775,12.4,19.014,19.014,0,0,0,48.7,14.918a.607.607,0,0,0,.673,0A19.016,19.016,0,0,0,52.3,12.4a13.256,13.256,0,0,0,2.034-2.725,7.151,7.151,0,0,0,.957-3.418A6.214,6.214,0,0,0,53.462,1.832ZM49.04,13.667C47.861,12.795,44,9.673,44,6.255a5.041,5.041,0,1,1,10.082,0C54.081,9.673,50.218,12.795,49.04,13.667Z" transform="translate(-42.785)"/></g><g transform="translate(3.765 3.765)"><path class="a" d="M173.629,128.355a2.489,2.489,0,1,0,2.489,2.489A2.492,2.492,0,0,0,173.629,128.355Zm0,3.765a1.276,1.276,0,1,1,1.276-1.276A1.277,1.277,0,0,1,173.629,132.12Z" transform="translate(-171.14 -128.355)"/></g></svg>