<svg xmlns="http://www.w3.org/2000/svg" width="171.438" height="32.198" viewBox="0 0 171.438 32.198">
  <g id="Logo_Dark" transform="translate(0 0.025)">
    <path id="Path_12365" data-name="Path 12365" d="M0,14.36a1.523,1.523,0,0,0,.643.214c4.179,1.929,8.25,3.857,12.322,5.679.429.214.643.214,1.071-.214,1.607-1.714,3.214-3.322,4.822-4.929a.557.557,0,0,1,.429-.214,19.979,19.979,0,0,1-1.071,2.143,2.336,2.336,0,0,0,.214,3.214c.643.75,1.071,1.714,1.822,2.464.536-4.822.964-9.643,1.5-14.572-3.643,2.572-7.179,5.036-10.715,7.5l-.107-.107c.643-.857,1.393-1.822,2.143-2.786-3.75-3-7.715-5.893-11.679-8.893A10.347,10.347,0,0,1,8.893,0a10.224,10.224,0,0,1,7.822,2.893,25.992,25.992,0,0,1,2.143-1.5A10.339,10.339,0,0,1,34.181,8.359a9.666,9.666,0,0,1-2.572,9c-3.214,3.322-6.536,6.536-9.751,9.858-1.5,1.5-3.107,3.107-4.607,4.715-.321.321-.536.321-.857,0L2.572,18.11A23.628,23.628,0,0,1,.214,15C.107,14.9.107,14.681,0,14.574Z" fill="#5f63f2"/>
    <g id="Group_9978" data-name="Group 9978" transform="translate(41.038 5.574)">
      <path id="Path_12366" data-name="Path 12366" d="M38.3,17.058l2.786-.857a3.5,3.5,0,0,0,3.536,3.214c1.714,0,2.786-.75,2.786-2.036,0-3.429-8.465-1.5-8.465-7.286,0-2.572,2.357-4.393,5.572-4.393,3,0,5.465,1.607,6,4.072L47.729,10.95a3.056,3.056,0,0,0-3.214-2.572c-1.5,0-2.464.643-2.464,1.714,0,2.893,8.572.75,8.572,7.286,0,2.786-2.464,4.715-6,4.715C41.3,22.094,38.621,19.951,38.3,17.058Z" transform="translate(-38.3 -5.164)" fill="#0d0d33"/>
      <path id="Path_12367" data-name="Path 12367" d="M56.4,22.008c-2.357,0-4.072-1.286-4.072-3.965V12.686H50.4V10.222h1.929V6.9h2.893v3.429h2.893v2.464H55.222v4.929a1.529,1.529,0,0,0,1.5,1.714,6.271,6.271,0,0,0,1.393-.214l.214,2.572A11.807,11.807,0,0,1,56.4,22.008Z" transform="translate(-37.435 -5.078)" fill="#0d0d33"/>
      <path id="Path_12368" data-name="Path 12368" d="M65.3,12.579c-1.607,0-3.107,1.286-3.107,4.715v4.286H59.3V10.114h2.893V12.15A3.918,3.918,0,0,1,65.622,9.9a4.6,4.6,0,0,1,1.286.214L66.693,12.9A2.681,2.681,0,0,0,65.3,12.579Z" transform="translate(-36.799 -4.864)" fill="#0d0d33"/>
      <path id="Path_12369" data-name="Path 12369" d="M67.5,6.914a1.825,1.825,0,0,1,3.643,0,1.806,1.806,0,0,1-1.822,1.822A1.875,1.875,0,0,1,67.5,6.914Zm.321,3.536h2.893V21.915H67.821Z" transform="translate(-36.212 -5.2)" fill="#0d0d33"/>
      <path id="Path_12370" data-name="Path 12370" d="M77.086,16.843l-1.393,1.286v3.75H72.8V5.7h2.893v8.679l4.393-4.072h3.643l-4.715,4.5,5.036,6.965H80.622Z" transform="translate(-35.834 -5.164)" fill="#0d0d33"/>
      <path id="Path_12371" data-name="Path 12371" d="M84.3,6.914a1.825,1.825,0,0,1,3.643,0,1.806,1.806,0,0,1-1.822,1.822A1.875,1.875,0,0,1,84.3,6.914Zm.321,3.536h2.893V21.915H84.621Z" transform="translate(-35.011 -5.2)" fill="#0d0d33"/>
      <path id="Path_12372" data-name="Path 12372" d="M89.7,10.114h2.893v1.714A4.446,4.446,0,0,1,96.236,9.9a3.883,3.883,0,0,1,4.179,4.179v7.5H97.522V14.722a2.111,2.111,0,0,0-2.143-2.25c-1.714,0-2.786,1.5-2.786,4.072v5.036H89.7V10.114Z" transform="translate(-34.625 -4.864)" fill="#0d0d33"/>
      <path id="Path_12373" data-name="Path 12373" d="M112.958,10.114V20.936c0,3-2.25,5.036-5.679,5.036-2.679,0-4.929-1.5-5.25-3.536l2.679-.429c.107,1.071,1.179,1.714,2.572,1.714,1.714,0,2.893-.964,2.893-2.464V19.972a3.761,3.761,0,0,1-3.214,1.286c-3.429,0-5.357-2.25-5.357-5.679S103.529,9.9,106.85,9.9a4.25,4.25,0,0,1,3.214,1.286V10.007A26.112,26.112,0,0,0,112.958,10.114Zm-2.679,5.465a2.909,2.909,0,1,0-5.786,0,2.9,2.9,0,1,0,5.786,0Z" transform="translate(-33.775 -4.864)" fill="#0d0d33"/>
      <path id="Path_12374" data-name="Path 12374" d="M114.7,5.9h5.25c4.393,0,8.143,2.679,8.143,8.036s-3.75,8.036-8.143,8.036H114.7Zm4.929,13.286c2.786,0,5.357-1.393,5.357-5.25s-2.572-5.357-5.357-5.357H117.7V19.186Z" transform="translate(-32.838 -5.15)" fill="#0d0d33"/>
      <path id="Path_12375" data-name="Path 12375" d="M138.572,14.615v6.965h-2.786V19.865a4.111,4.111,0,0,1-3.429,1.822,3.567,3.567,0,0,1-3.857-3.429c0-2.25,1.714-3.429,5.143-3.857l2.143-.214v-.107a1.978,1.978,0,0,0-2.25-2.036,2.087,2.087,0,0,0-2.25,2.036l-2.572-.429a4.6,4.6,0,0,1,4.822-3.75C136.536,9.9,138.572,11.507,138.572,14.615Zm-2.786,2.036v-.214l-2.143.214c-1.5.214-2.357.857-2.357,1.607s.643,1.393,1.714,1.393A2.756,2.756,0,0,0,135.786,16.65Z" transform="translate(-31.852 -4.864)" fill="#0d0d33"/>
      <path id="Path_12376" data-name="Path 12376" d="M139.4,18.358l2.357-.964a2.676,2.676,0,0,0,2.679,2.143c1.071,0,1.822-.536,1.822-1.286,0-2.143-6.322-.75-6.322-5.036,0-1.822,1.607-3.214,4.072-3.214,2.25,0,4.179,1.179,4.607,2.786l-2.357.964a2.48,2.48,0,0,0-2.25-1.714c-.964,0-1.5.321-1.5,1.071,0,2.036,6.322.429,6.322,5.036,0,1.929-1.822,3.536-4.393,3.536A4.873,4.873,0,0,1,139.4,18.358Z" transform="translate(-31.072 -4.857)" fill="#0d0d33"/>
      <path id="Path_12377" data-name="Path 12377" d="M149.9,5.7h2.893v6.429a4.329,4.329,0,0,1,7.929,2.25v7.5h-2.893V15.022a2.083,2.083,0,0,0-2.25-2.25c-1.822,0-2.786,1.5-2.786,4.072v4.929H149.9V5.7Z" transform="translate(-30.322 -5.164)" fill="#0d0d33"/>
    </g>
  </g>
</svg>
