<svg id="Man" xmlns="http://www.w3.org/2000/svg" width="283.215" height="306.553" viewBox="0 0 283.215 306.553">
  <rect id="Rectangle_875" data-name="Rectangle 875" width="9.479" height="148.428" transform="translate(70.052 157.201)" fill="#3f3d56"/>
  <path id="Path_2270" data-name="Path 2270" d="M392.555,559.4H278l-27.281,18.5-.116.116v3.93l154.323-1.965v-3.93Z" transform="translate(-250.6 -422.776)" fill="#3f3d56"/>
  <path id="Path_2271" data-name="Path 2271" d="M299.478,559.38s-11.329,14.681-22.773,5.9c-11.329-8.785,22.773-11.675,22.773-11.675v5.78Z" transform="translate(-172.667 -423.68)" fill="#ffb9b9"/>
  <path id="Path_2272" data-name="Path 2272" d="M250.716,575.634l-.116.116v3.93l154.323-1.965V573.9Z" transform="translate(-250.6 -420.514)" opacity="0.1"/>
  <path id="Path_2273" data-name="Path 2273" d="M284.931,554.5s-23.7,22.426-27.512,22.426-21.732-3.93-27.512-4.855c-5.664-.925-1.85-13.641-1.85-13.641H246.09a20.968,20.968,0,0,0,4.74-4.855c1.85-2.89,18.033-19.536,18.958-21.5S281.925,509.3,281.925,509.3l-.809,3.237Z" transform="translate(-103.095 -430.59)" fill="#5a5f7d"/>
  <path id="Path_2274" data-name="Path 2274" d="M233.469,632.9l-6.589,84.04H221.1l5.78-82.075Z" transform="translate(-45.044 -411.311)" fill="#3f3d56"/>
  <path id="Path_2275" data-name="Path 2275" d="M173.553,624.5l-6.589,83.924H161.3l5.664-81.959Z" transform="translate(83.999 -412.622)" fill="#3f3d56"/>
  <path id="Path_2276" data-name="Path 2276" d="M164.553,632.9l-6.589,84.04H152.3l5.664-82.075Z" transform="translate(103.403 -411.311)" fill="#3f3d56"/>
  <path id="Path_2277" data-name="Path 2277" d="M240.753,626.2l-6.589,83.924H228.5l5.664-81.959Z" transform="translate(-60.883 -412.356)" fill="#3f3d56"/>
  <path id="Path_2278" data-name="Path 2278" d="M227.286,537.5l-12.253,86.93-73.867-3.93-1.272,21.154-.694,11.1,95.715,3.815L250.983,537.5Z" transform="translate(32.116 -426.192)" fill="#3f3d56"/>
  <path id="Path_2279" data-name="Path 2279" d="M245.8,537.5c-5.318,24.044-18.611,84.965-18.611,100.57,0,0-67.509,4.393-87.392,3.7l-.694,10.982,95.715,3.93L250.883,537.5Z" transform="translate(32.332 -426.192)" opacity="0.1"/>
  <path id="Path_2280" data-name="Path 2280" d="M295.673,668.4l-1.85,29.246s-29.362-4.855-23.7-8.785S278.68,662.5,278.68,662.5Z" transform="translate(-163.082 -406.694)" fill="#ffb9b9"/>
  <path id="Path_2281" data-name="Path 2281" d="M188.719,664.2c3.815,0,16.993,11.675,16.993,11.675l-10.4,11.675s-14.219-1.965-15.143-5.9-5.664-9.71-5.664-9.71S185.019,664.2,188.719,664.2Z" transform="translate(36.582 -406.429)" fill="#ffb9b9"/>
  <ellipse id="Ellipse_266" data-name="Ellipse 266" cx="22.773" cy="23.466" rx="22.773" ry="23.466" transform="translate(163.225 16.98)" fill="#ffb9b9"/>
  <path id="Path_2282" data-name="Path 2282" d="M223.622,479.319c0,4.855,9.479,20.461,9.479,20.461s-26.472,22.426-24.622,18.611S199,492.035,199,492.035,223.622,474.348,223.622,479.319Z" transform="translate(-19.129 -435.404)" fill="#ffb9b9"/>
  <path id="Path_2283" data-name="Path 2283" d="M314.7,585.6s-21.732,39.072-30.287,41.962-50.17-5.9-53.984-6.82-2.89,3.93-.925,7.861-4.74,50.747-8.554,56.643S184.995,674.495,185.92,671.6s11.329-38.147,14.219-65.428c2.89-27.4,75.717-15.606,75.717-15.606Z" transform="translate(-85.58 -418.689)" fill="#2f2e41"/>
  <path id="Path_2284" data-name="Path 2284" d="M314.7,585.6s-21.732,39.072-30.287,41.962-50.17-5.9-53.984-6.82-2.89,3.93-.925,7.861-4.74,50.747-8.554,56.643S184.995,674.495,185.92,671.6s11.329-38.147,14.219-65.428c2.89-27.4,75.717-15.606,75.717-15.606Z" transform="translate(-85.58 -418.689)" opacity="0.1"/>
  <path id="Path_2285" data-name="Path 2285" d="M257.731,602.2c14.219,39.072-53.984,43-58.724,43s32.252,27.4,32.252,32.252-30.287,22.426-30.287,22.426-18.958-15.606-35.951-43.927,28.437-45.892,28.437-45.892l-2.89-24.391C190.453,585.673,243.513,563.131,257.731,602.2Z" transform="translate(-2.028 -419.687)" fill="#2f2e41"/>
  <path id="Path_2286" data-name="Path 2286" d="M324.3,684.169c3.815-1.965,1.85,16.646,1.85,18.611s-48.32.925-55.834-1.965c-7.63-2.89-1.85-4.855,1.85-5.9,3.815-.925,25.547-12.716,25.547-14.681s7.63,6.82,7.63,6.82C306.262,690.989,320.481,686.134,324.3,684.169Z" transform="translate(-190.78 -403.972)" fill="#2f2e41"/>
  <path id="Path_2287" data-name="Path 2287" d="M214.83,671.007c1.85-.925,5.664,10.751,5.664,14.681s-31.212,26.356-42.656,25.432-8.554-6.82,0-10.751,9.479-15.606,10.4-18.611c.925-2.89,11.329,0,11.329,0C208.125,680.717,212.864,671.932,214.83,671.007Z" transform="translate(26.655 -405.375)" fill="#2f2e41"/>
  <rect id="Rectangle_876" data-name="Rectangle 876" width="43.58" height="17.571" transform="translate(52.944 288.982)" fill="#3f3d56"/>
  <path id="Path_2288" data-name="Path 2288" d="M218.46,502.395c10.4,5.9,16.068,25.431,16.068,35.142s0,15.606,1.85,19.536.925,12.716,1.85,21.5,2.89,9.71,4.74,16.646c1.85,6.82,4.74,7.861,1.85,10.751s1.85,6.82,0,13.641-26.472-2.89-48.32-10.751c-21.732-7.861-11.329,0-18.033,0-6.589,0-4.74-4.855-6.589-9.71s-1.85-23.466-7.629-34.217c-5.664-10.751-5.664-43-2.89-47.858,2.89-4.855,10.4-7.861,10.4-7.861s12.369-14.681,18.611-20.461c6.242-5.9,9.826,3.93,9.826,3.93S208.056,496.5,218.46,502.395Z" transform="translate(13.545 -434.089)" fill="#272b41"/>
  <path id="Path_2289" data-name="Path 2289" d="M201.018,468.6c6.127,1.618,12.369,1.272,16.762,6.7,3.006,3.7,4.624,9.595,9.248,10.4a2.848,2.848,0,0,0,1.965-.231c1.734-.925,1.618-3.93,3.237-5.086a3.129,3.129,0,0,1,3.93.925,9.973,9.973,0,0,1,1.85,4.046,42.707,42.707,0,0,0,8.439,14.334c4.162-5.549,6.242-12.716,6.7-19.767.578-7.051-.347-14.1-1.387-21.154a19.518,19.518,0,0,0-1.618-5.78,15.612,15.612,0,0,0-4.508-4.624c-8.092-5.78-18.5-9.017-27.859-6.011-7.052,2.312-12.6,7.745-17.8,13.063C195.7,459.925,193.967,466.745,201.018,468.6Z" transform="translate(-36.175 -441.211)" fill="#2f2e41"/>
  <path id="Path_2290" data-name="Path 2290" d="M280.944,574.425H268.575s-29.362-6.82-26.819-14.219,33.986,1.156,33.986,1.156Z" transform="translate(-116.217 -423.12)" fill="#ffb9b9"/>
  <path id="Path_2291" data-name="Path 2291" d="M260.829,528.782c.925,4.855-21.732,53.753-28.437,57.568-6.589,3.93-49.245.925-54.909,0s-1.85-16.646-1.85-16.646l43.58-5.9s2.89-16.646,6.589-32.252S243.836,505.2,243.836,505.2C257.939,506.356,259.9,523.927,260.829,528.782Z" transform="translate(-18.419 -431.23)" fill="#5a5f7d"/>
  <path id="Path_2292" data-name="Path 2292" d="M305.807,553.825l1.272-.116,15.606-.809s-3.237,10.4,1.387,12.138L344.416,567h.347l-21.964,1.5-15.375-1.271C307.425,567.35,300.258,567.234,305.807,553.825Z" transform="translate(-251.822 -423.79)" fill="#d1d9ec"/>
  <path id="Path_2293" data-name="Path 2293" d="M305.807,553.716l1.272-.116c-1.5,3.815-3.93,11.329.231,12.485l14.912,1.618,22.195-.809h.347L322.8,568.4l-15.375-1.271C307.425,567.241,300.258,567.125,305.807,553.716Z" transform="translate(-251.822 -423.68)" opacity="0.1"/>
  <path id="Path_2294" data-name="Path 2294" d="M288.138,480.657a6.251,6.251,0,0,1,6.127-.694l67.509,24.16a4.476,4.476,0,0,1,2.774,3.584l4.971,50.516-4.74,2.543c.116,1.156,4.046,3.005,2.89,3.005H299.7l-3.815,3.352c-2.081,0-3.006-3.583-3.121-5.664v-8.554l-4.624-68.9C288.022,482.276,287.213,481.467,288.138,480.657Z" transform="translate(-258.083 -435.24)" fill="#4c4c56"/>
  <path id="Path_2295" data-name="Path 2295" d="M365.229,548.03l.578,6.127v.231a2.051,2.051,0,0,1-1.965,2.081l-70.862.462h-1.387a3.825,3.825,0,0,1-3.815-3.7L287.2,544.1Z" transform="translate(-253.792 -425.162)" fill="#dfe6f5"/>
  <ellipse id="Ellipse_267" data-name="Ellipse 267" cx="0.925" cy="1.965" rx="0.925" ry="1.965" transform="translate(79.878 124.487)" fill="#fff"/>
  <path id="Path_2296" data-name="Path 2296" d="M288.159,568.1l-14.219-1.156c-3.468-.347-2.659-2.081-2.659-2.081,5.2-5.433,24.622,2.081,24.622,2.081C294.055,568.681,288.159,568.1,288.159,568.1Z" transform="translate(-165.394 -422.231)" fill="#d1d9ec"/>
  <path id="Path_2297" data-name="Path 2297" d="M293.732,565.257a1.3,1.3,0,0,1,.462,1.734l-.116.116s-6.127,1.272-10.519-1.387c-4.508-2.659-12.6-1.734-12.6-1.734,7.283-4.624,18.842-.462,22.542,1.156A.4.4,0,0,1,293.732,565.257Z" transform="translate(-163.568 -422.39)" fill="#dfe6f5"/>
  <path id="Path_2298" data-name="Path 2298" d="M351.817,480.5a3.285,3.285,0,0,1,1.04,1.965c.347,1.965,5.549,81.15,5.549,81.15a17.751,17.751,0,0,0,2.428,3.352h-1.387a3.825,3.825,0,0,1-3.815-3.7l-5.318-78.722A4.788,4.788,0,0,1,351.817,480.5Z" transform="translate(-321.762 -435.083)" fill="#dfe6f5"/>
  <path id="Path_2299" data-name="Path 2299" d="M351.817,480.5a3.285,3.285,0,0,1,1.04,1.965c.347,1.965,5.549,81.15,5.549,81.15a17.751,17.751,0,0,0,2.428,3.352h-1.387a3.825,3.825,0,0,1-3.815-3.7l-5.318-78.722A4.788,4.788,0,0,1,351.817,480.5Z" transform="translate(-321.762 -435.083)" opacity="0.1"/>
  <path id="Path_2300" data-name="Path 2300" d="M352.092,521.993a6.1,6.1,0,0,1-4.74,3.584,15.612,15.612,0,0,1-6.127-.578,6.228,6.228,0,0,1-2.428-.925c-.925-.694-1.272-1.965-1.734-3.006a10.584,10.584,0,0,0-4.393-4.855,5.342,5.342,0,0,0-3.468-.809,3.616,3.616,0,0,0-2.89,2.081c-.809,1.965.809,4.277,2.774,4.855s4.046-.116,6.011-.809a43.342,43.342,0,0,0,8.554-4.508" transform="translate(-285.045 -429.643)" fill="none" stroke="#f2f2f2" stroke-miterlimit="10" stroke-width="0.814"/>
  <path id="Path_2301" data-name="Path 2301" d="M314.893,518.185l2.312,1.04a10.681,10.681,0,0,1,3.93,2.427,3.737,3.737,0,0,1,.694,4.277c-.809,1.387-2.659,1.734-4.393,1.849l-4.393.463c.925-6.242,1.5-12.6,1.85-18.843" transform="translate(-240.101 -430.575)" fill="none" stroke="#f2f2f2" stroke-miterlimit="10" stroke-width="0.814"/>
  <path id="Path_2302" data-name="Path 2302" d="M309.2,528.594a10.61,10.61,0,0,1-6.936-1.734c-2.428-1.734-4.277-5.2-2.659-7.745a5.089,5.089,0,0,1,4.046-2.312,16.155,16.155,0,0,1,4.74.578" transform="translate(-210.83 -429.423)" fill="none" stroke="#f2f2f2" stroke-miterlimit="10" stroke-width="0.814"/>
</svg>
