<svg xmlns="http://www.w3.org/2000/svg" width="25" height="14.827" viewBox="0 0 25 14.827">
  <g id="send" transform="translate(-8.011 -11.167)">
    <path id="Path_1015" data-name="Path 1015" d="M30.879,11.875a1.747,1.747,0,0,0-1.385-.708H14.447A1.868,1.868,0,0,0,12.66,12.83L10.994,23.665a2.131,2.131,0,0,0,.4,1.62,1.747,1.747,0,0,0,1.385.708H27.829a1.868,1.868,0,0,0,1.787-1.663L31.282,13.5a2.131,2.131,0,0,0-.4-1.62Zm-2.222,4.481-6.578,3a2.031,2.031,0,0,1-.89.193,2.071,2.071,0,0,1-1.026-.262l-5.978-3.239.269-1.757,6.392,3.468a.741.741,0,0,0,.642.022l7.47-3.41ZM30.948,15.1l.082-.57A.824.824,0,0,1,30.948,15.1Z" transform="translate(1.703)" fill="#fa8b0c"/>
    <g id="Group_1108" data-name="Group 1108" transform="translate(8.011 12.217)" opacity="0.5">
      <path id="Path_1016" data-name="Path 1016" d="M12.214,13.935H9.062a1.051,1.051,0,1,1,0-2.1h3.152a1.051,1.051,0,1,1,0,2.1Z" transform="translate(-8.011 -11.833)" fill="#fa8b0c"/>
      <path id="Path_1017" data-name="Path 1017" d="M11.163,16.6h-2.1a1.05,1.05,0,1,1,0-2.1h2.1a1.05,1.05,0,1,1,0,2.1Z" transform="translate(-8.011 -10.297)" fill="#fa8b0c"/>
      <path id="Path_1018" data-name="Path 1018" d="M10.113,19.268H9.062a1.051,1.051,0,1,1,0-2.1h1.051a1.051,1.051,0,0,1,0,2.1Z" transform="translate(-8.011 -8.762)" fill="#fa8b0c"/>
    </g>
  </g>
</svg>
