<svg xmlns="http://www.w3.org/2000/svg" width="16.486" height="20" viewBox="0 0 16.486 20">
  <g id="notification_1_" data-name="notification (1)" transform="translate(-44.98 0)">
    <path id="Path_817" data-name="Path 817" d="M178.822,476.973a3.054,3.054,0,0,0,5.091,0Z" transform="translate(-128.613 -458.34)" fill="#ff69a5"/>
    <path id="Path_818" data-name="Path 818" d="M58.673,11.964a1.406,1.406,0,0,1-.362-.627A5.528,5.528,0,0,1,55.252.738a4.624,4.624,0,0,0-5.674.518,4.808,4.808,0,0,0-1.521,3.055c-.855,7.106-.816,6.787-.818,6.8a1.406,1.406,0,0,1-.4.856l-1.1,1.1a2.575,2.575,0,0,0,1.821,4.4h10.4a2.575,2.575,0,0,0,1.821-4.4Z" transform="translate(0 0)" fill="#ff69a5"/>
    <path id="Path_819" data-name="Path 819" d="M253.174,44.877a4.364,4.364,0,0,0-5.155-4.278h0a4.356,4.356,0,1,0,1.845,8.512h0A4.364,4.364,0,0,0,253.174,44.877Zm-3.438,1.563a.586.586,0,1,1-1.172,0V43.9h-.551a.586.586,0,1,1,0-1.172h1.137a.586.586,0,0,1,.586.586Z" transform="translate(-191.708 -38.94)" fill="#ff69a5"/>
  </g>
</svg>
