<svg xmlns="http://www.w3.org/2000/svg" width="25" height="25" viewBox="0 0 25 25">
  <g id="email_1_" data-name="email (1)" transform="translate(-8 -8)">
    <path id="Path_1012" data-name="Path 1012" d="M30.656,13.333H26.731a2.859,2.859,0,0,1-.745,1.689L22.6,18.667a2.866,2.866,0,0,1-4.2,0l-3.386-3.647a2.855,2.855,0,0,1-.745-1.689H10.344A2.347,2.347,0,0,0,8,15.677v11.98A2.347,2.347,0,0,0,10.344,30H30.656A2.347,2.347,0,0,0,33,27.656V15.677A2.347,2.347,0,0,0,30.656,13.333Zm.261,5.116-8.969,4.687a3.141,3.141,0,0,1-2.9,0l-8.969-4.688V16.094l9.927,5.188a1.082,1.082,0,0,0,.98,0l9.927-5.188v2.355Z" transform="translate(0 3)" fill="#5f63f2"/>
    <path id="Path_1013" data-name="Path 1013" d="M21.6,15.761a.78.78,0,0,0-.716-.469H18.542V9.042a1.042,1.042,0,1,0-2.084,0v6.25H14.114a.781.781,0,0,0-.572,1.313l3.386,3.645a.781.781,0,0,0,1.145,0L21.459,16.6A.786.786,0,0,0,21.6,15.761Z" transform="translate(3 0)" fill="#5f63f2" opacity="0.5"/>
  </g>
</svg>
