<svg xmlns="http://www.w3.org/2000/svg" width="20.209" height="19.368" viewBox="0 0 20.209 19.368">
  <g id="paper-plane" transform="translate(-8.001 -7.833)">
    <path id="Path_963" data-name="Path 963" d="M13.833,19.575v3.906a.631.631,0,0,0,.435.6.624.624,0,0,0,.2.032.634.634,0,0,0,.509-.258l2.284-3.11Z" transform="translate(1.535 3.09)" fill="#5f63f2" opacity="0.5"/>
    <path id="Path_964" data-name="Path 964" d="M27.945,7.95a.631.631,0,0,0-.658-.045L8.34,17.8a.632.632,0,0,0,.088,1.158l5.267,1.8,11.217-9.591-8.68,10.457,8.827,3.016a.631.631,0,0,0,.829-.505L28.2,8.557A.63.63,0,0,0,27.945,7.95Z" transform="translate(0 0)" fill="#5f63f2"/>
  </g>
</svg>
