<svg id="pen" xmlns="http://www.w3.org/2000/svg" width="20.073" height="20.073" viewBox="0 0 20.073 20.073">
  <g id="Group_1005" data-name="Group 1005">
    <g id="Group_1004" data-name="Group 1004">
      <path id="Path_828" data-name="Path 828" d="M19.485,0H17.094a.588.588,0,0,0-.588.588v.588H11.693a1.754,1.754,0,0,0-3.312,0H3.568V.588A.588.588,0,0,0,2.98,0H.588A.588.588,0,0,0,0,.588V2.94a.588.588,0,0,0,.588.588H2.98a.588.588,0,0,0,.588-.588v-.6H5.983A7.672,7.672,0,0,0,2.435,8.367a1.759,1.759,0,1,0,1.174.027A6.453,6.453,0,0,1,8.475,2.568a1.749,1.749,0,0,0,3.123,0,6.453,6.453,0,0,1,4.866,5.826,1.769,1.769,0,1,0,1.174-.027A7.658,7.658,0,0,0,14.09,2.352h2.415V2.94a.588.588,0,0,0,.588.588h2.392a.588.588,0,0,0,.588-.588V.588A.588.588,0,0,0,19.485,0Z" fill="#fa8b0c"/>
    </g>
  </g>
  <g id="Group_1007" data-name="Group 1007" transform="translate(6.01 17.682)">
    <g id="Group_1006" data-name="Group 1006">
      <path id="Path_829" data-name="Path 829" d="M161.321,452.662A2.392,2.392,0,0,0,159.085,451h-3.528a2.392,2.392,0,0,0-2.237,1.662.579.579,0,0,0,.572.729h6.858A.579.579,0,0,0,161.321,452.662Z" transform="translate(-153.294 -451)" fill="#fa8b0c"/>
    </g>
  </g>
  <g id="Group_1009" data-name="Group 1009" transform="translate(4.744 5.154)">
    <g id="Group_1008" data-name="Group 1008">
      <path id="Path_830" data-name="Path 830" d="M131.487,138.368l-4.606-6.909v5.579a1.764,1.764,0,1,1-1.176,0v-5.579l-4.606,6.909a.588.588,0,0,0,.074.742,7.426,7.426,0,0,1,2.036,3.962,3.5,3.5,0,0,1,1.32-.262h3.528a3.5,3.5,0,0,1,1.32.261,7.425,7.425,0,0,1,2.036-3.962A.588.588,0,0,0,131.487,138.368Z" transform="translate(-121 -131.459)" fill="#fa8b0c"/>
    </g>
  </g>
  <g id="Group_1011" data-name="Group 1011" transform="translate(9.449 11.801)">
    <g id="Group_1010" data-name="Group 1010">
      <path id="Path_831" data-name="Path 831" d="M241.588,301a.588.588,0,1,0,.588.588A.589.589,0,0,0,241.588,301Z" transform="translate(-241 -301)" fill="#fa8b0c"/>
    </g>
  </g>
</svg>
