<svg xmlns="http://www.w3.org/2000/svg" width="20.092" height="16.64" viewBox="0 0 20.092 16.64">
  <g id="picture" transform="translate(0 -43.979)">
    <g id="Group_1017" data-name="Group 1017" transform="translate(0 43.979)">
      <g id="Group_1016" data-name="Group 1016">
        <path id="Path_840" data-name="Path 840" d="M18.546,43.979h-17A1.529,1.529,0,0,0,0,45.525V59.073a1.529,1.529,0,0,0,1.546,1.546h17a1.529,1.529,0,0,0,1.546-1.546V45.525A1.529,1.529,0,0,0,18.546,43.979Zm0,15.094h-17L1.534,45.526H18.546V59.073Z" transform="translate(0 -43.979)" fill="#5f63f2"/>
      </g>
    </g>
    <g id="Group_1019" data-name="Group 1019" transform="translate(0.315 48.615)">
      <g id="Group_1018" data-name="Group 1018">
        <path id="Path_841" data-name="Path 841" d="M15.391,162.411a.773.773,0,0,0-1.052-.13l-6.311,4.637.915,1.246,5.723-4.205,8.138,9.819,1.19-.986Z" transform="translate(-8.028 -162.132)" fill="#5f63f2"/>
      </g>
    </g>
    <g id="Group_1021" data-name="Group 1021" transform="translate(10.492 49.414)">
      <g id="Group_1020" data-name="Group 1020">
        <path id="Path_842" data-name="Path 842" d="M271.987,182.656a.773.773,0,0,0-.961,0l-3.658,2.911.962,1.209,3.178-2.529,4.207,3.329.959-1.212Z" transform="translate(-267.369 -182.489)" fill="#5f63f2"/>
      </g>
    </g>
  </g>
</svg>
