<svg xmlns="http://www.w3.org/2000/svg" width="31.996" height="26.985" viewBox="0 0 31.996 26.985">
  <g id="Group_1641" data-name="Group 1641" transform="translate(0.003 -40.092)">
    <path id="Path_1032" data-name="Path 1032" d="M27.95,40.379c-7.364,3.59-16.356,4-18.951,4.038H2.815A2.819,2.819,0,0,0,0,47.233C0,63.434-.015,62.5.032,62.705a1.32,1.32,0,0,0,.432.714h0a42.008,42.008,0,0,0,8.59.309,55.153,55.153,0,0,0,7.127-.574A43.054,43.054,0,0,0,29.366,59.3a13.8,13.8,0,0,0,2.628-1.272V42.913A2.814,2.814,0,0,0,27.95,40.379Zm1.415,15.943a39.344,39.344,0,0,1-13.555,4.231c-4.688.667-7.368.564-13.184.551V47.233a.188.188,0,0,1,.188-.187H8.057c6.692.106,15.072-1.395,21.045-4.306a.185.185,0,0,1,.264.171Z" transform="translate(0 0)" fill="#20c997"/>
    <path id="Path_1033" data-name="Path 1033" d="M186.243,193.368a4.651,4.651,0,1,0-4.651-4.651A4.656,4.656,0,0,0,186.243,193.368Zm0-6.674a2.023,2.023,0,1,1-2.023,2.023,2.025,2.025,0,0,1,2.023-2.023Z" transform="translate(-170.246 -134.976)" fill="#20c997"/>
    <path id="Path_1034" data-name="Path 1034" d="M375.136,133.958c.287,0,.222,0,2.418-.735a1.314,1.314,0,0,0-.831-2.493l-2,.667a1.314,1.314,0,0,0,.415,2.561Z" transform="translate(-350.463 -84.909)" fill="#20c997" opacity="0.5"/>
    <path id="Path_1035" data-name="Path 1035" d="M65.429,314.851h2a1.314,1.314,0,0,0,0-2.628h-2a1.314,1.314,0,0,0,0,2.628Z" transform="translate(-60.111 -255.125)" fill="#20c997" opacity="0.5"/>
    <path id="Path_1036" data-name="Path 1036" d="M39.008,327.06v3.522a2.817,2.817,0,0,1-1.483,2.48c-4.157,2.245-9.31,3.05-14.09,3.05-9.914,0-15.552-3.393-15.795-3.541a1.236,1.236,0,0,1-.161-.117,42,42,0,0,0,8.59.309c6.267,1.27,14.589,1.021,20.207-2.013a.193.193,0,0,0,.1-.168v-2.25A13.8,13.8,0,0,0,39.008,327.06Z" transform="translate(-7.015 -269.034)" fill="#20c997" opacity="0.5"/>
  </g>
</svg>
