<svg xmlns="http://www.w3.org/2000/svg" xmlns:xlink="http://www.w3.org/1999/xlink" width="189.228" height="291.411" viewBox="0 0 189.228 291.411">
  <defs>
    <linearGradient id="linear-gradient" x1="0.5" x2="0.5" y2="1" gradientUnits="objectBoundingBox">
      <stop offset="0" stop-color="#ff69a5"/>
      <stop offset="1" stop-color="#fa8b0c"/>
    </linearGradient>
  </defs>
  <g id="Group_9761" data-name="Group 9761" transform="translate(-85.248 -122.709)">
    <g id="Group_9754" data-name="Group 9754" transform="translate(15 37)">
      <g id="Group_9741" data-name="Group 9741">
        <path id="Path_12223" data-name="Path 12223" d="M167.529,336.637c-4.26,10.4-23.086,28.474-24.463,26.1s7.351-29.636,13.373-31.549S167.529,336.637,167.529,336.637Z" fill="#e7e3ff"/>
        <path id="Path_12224" data-name="Path 12224" d="M196.141,344.035c-.368,11.234-11.715,34.734-13.832,32.993s-3.438-30.34,1.539-34.232S196.141,344.035,196.141,344.035Z" fill="#e7e3ff"/>
        <g id="Group_9738" data-name="Group 9738">
          <path id="Path_12225" data-name="Path 12225" d="M92.326,281.7l-7.3,5.1-3.881-4.556,6.708-5.034Z" fill="#f4b5b7"/>
          <path id="Path_12226" data-name="Path 12226" d="M84.075,283.916c2.626,3.707-.008,6.592-3.129,8.252-3.072,1.634-6.59,1.8-6.766,1.452s1.767-1.341,1.767-1.341-2.685.408-4.248.449c-.806.02,2.606-2.2,2.5-2.441-.1-.222-3.644,1.342-3.9.847-.524-.646,2.957-2.963,2.957-2.963s-3.266.954-2.988.089S76.5,285.2,76.5,285.2s-2.87.318-2.308-.837S80.985,279.555,84.075,283.916Z" fill="#f4b5b7"/>
        </g>
        <g id="Group_9739" data-name="Group 9739">
          <path id="Path_12227" data-name="Path 12227" d="M225.3,106.127l-3.421-8.221-5.72,1.759,2.955,7.849Z" fill="#f4b5b7"/>
          <path id="Path_12228" data-name="Path 12228" d="M219.529,99.827c4.206-1.717,3.534-5.565,1.792-8.642-1.713-3.027-4.594-5.053-4.927-4.858s.77,2.08.77,2.08-2.046-1.786-3.342-2.66c-.669-.45,1.017,3.256.8,3.4-.2.136-2.354-3.089-2.834-2.808-.789.263.9,4.087.9,4.087s-2.242-2.559-2.472-1.68,3.616,5.924,3.616,5.924-2.25-1.81-2.4-.533S214.581,101.847,219.529,99.827Z" fill="#f4b5b7"/>
        </g>
        <path id="Path_12229" data-name="Path 12229" d="M211.376,264.867s53.514,43.285,47.651,65.124c-3.524,13.13-63.012,25.106-63.012,25.106l-2.741-11.65,32.4-13.456-30.179-33.356-2.383-28.592Z" fill="#4056e3"/>
        <path id="Path_12230" data-name="Path 12230" d="M178.813,267.249s-14.295,28.591-2.382,41.3,23.826,37.327,23.826,37.327l-35.082-12.023L162.434,345.5s48.658,35.637,66.477,15.762c17.325-19.325-27.066-90.839-27.066-90.839Z" fill="#5265ff"/>
        <path id="Path_12231" data-name="Path 12231" d="M183.783,172.285c4.3,8,1.779,14.471-3.721,17.43S168.171,191,163.867,183s-2.764-15.645,2.735-18.6S179.479,164.286,183.783,172.285Z" fill="#f4b5b7"/>
        <path id="Path_12232" data-name="Path 12232" d="M154.581,209.116c11.023-10.288,39.682-19.106,47.766-29.394s12.492-32.334,12.492-44.092.735-31.6.735-31.6l12.309-2.5s5.875,40.08,5.14,55.512-4.112,35.637-8.91,54.141c-3.392,13.084-.342,66.134-.342,66.134s-20.56,37.007-51.4,18.5c0,0-14.734-34.609-18.161-37.35-5.444-4.355-6.853,3.084-22.958,9.6-14.138,5.715-41.12,19.531-41.12,19.531l-6.168-9.251s28.627-24.074,41.12-38.036S143.558,219.4,154.581,209.116Z" fill="url(#linear-gradient)"/>
        <path id="Path_12233" data-name="Path 12233" d="M177.768,200.213c-2.8-1.05-8.66-13.3-8.66-13.3l9.753-4.624,7.655,7.748s4.94,5.621,1.421,9S181.88,201.755,177.768,200.213Z" fill="#f4b5b7"/>
        <path id="Path_12234" data-name="Path 12234" d="M166.9,172.254s4.477,1.043,4.379-1.576,7.857-.295,9.019-4.273-.274-9.976-3.393-9.758-7.182,7.532-10.4,5.131-12.518,5.111-11.441,9.61,2.231,13.736,8.447,15.419,7.4-4.414,5.563-7.674A19.467,19.467,0,0,1,166.9,172.254Z" fill="#060606"/>
        <circle id="Ellipse_3064" data-name="Ellipse 3064" cx="3.084" cy="3.084" r="3.084" transform="translate(163.633 177.084)" fill="#f4b5b7"/>
        <circle id="Ellipse_3065" data-name="Ellipse 3065" cx="3.084" cy="3.084" r="3.084" transform="translate(178.755 168.719)" fill="#f4b5b7"/>
        <g id="Group_9740" data-name="Group 9740">
          <ellipse id="Ellipse_3066" data-name="Ellipse 3066" cx="0.899" cy="1.123" rx="0.899" ry="1.123" transform="translate(173.363 176.245) rotate(-25.377)" fill="#060606"/>
          <ellipse id="Ellipse_3067" data-name="Ellipse 3067" cx="0.899" cy="1.123" rx="0.899" ry="1.123" transform="translate(178.853 173.167) rotate(-25.377)" fill="#060606"/>
        </g>
        <path id="Path_12235" data-name="Path 12235" d="M178.288,176.051s2.483,1.03,2.483,1.7-.788,1.332-.788,1.332" fill="none" stroke="#ef7353" stroke-miterlimit="10" stroke-width="0.692"/>
        <path id="Path_12236" data-name="Path 12236" d="M178.348,182.955l4.36-2.907s.606,2.12-.423,3.21S178.348,182.955,178.348,182.955Z" fill="#e7e3ff"/>
      </g>
    </g>
  </g>
</svg>
