<svg xmlns="http://www.w3.org/2000/svg" xmlns:xlink="http://www.w3.org/1999/xlink" width="379.623" height="279.015" viewBox="0 0 379.623 279.015">
  <defs>
    <filter id="Rectangle_1980" x="91.146" y="0" width="208.186" height="264.865" filterUnits="userSpaceOnUse">
      <feOffset dy="3" input="SourceAlpha"/>
      <feGaussianBlur stdDeviation="3" result="blur"/>
      <feFlood flood-opacity="0.161"/>
      <feComposite operator="in" in2="blur"/>
      <feComposite in="SourceGraphic"/>
    </filter>
    <clipPath id="clip-path">
      <path id="Path_12005" data-name="Path 12005" d="M388.81,420.585a61.455,61.455,0,0,0,6.463-16.624c2.83-12.264,14.151-24.528,14.151-24.528.944-11.321,7.547-45.284,7.547-46.227,0,0,8.491-16.038,14.151,3.774s-11.321,37.736-11.321,43.4-27.358,43.4-27.358,43.4l.019.047A6.112,6.112,0,0,1,388.81,420.585Z" transform="translate(-388.81 -327.077)" fill="#302564"/>
    </clipPath>
    <clipPath id="clip-path-2">
      <path id="Path_12013" data-name="Path 12013" d="M430.841,281.264s-4.389-2.287-5.687-3.692-5.815-7-5.005-10.355c0,0,5.8,2.2,7.543-2.409,2.27-6-8.684-19.979-11.361-20.763s-8.626-4.4-14.222.112,2.439,23.794,8.5,24.711c0,0,6.5,10.735,4.252,14.209,0,0,9.245,3.931,12.732,1.362S430.841,281.264,430.841,281.264Z" transform="translate(-400.22 -241.93)" fill="#d29271"/>
    </clipPath>
    <clipPath id="clip-path-3">
      <path id="Path_12016" data-name="Path 12016" d="M411.631,326.277c-7.344,1.16-12.449,1.785-13.914-2.705-.938-2.876-1.238-10.455-7.343-16.619-4.389-4.431-12.726-16.478-8.375-23.753s13.681-3.518,15.709-3.437-1.813-5.489-1.813-5.489h0c10.059,2.431,15.431,7.018,19.742,14.326,6.191,10.494,8.184,33.711,6.429,36.518Z" transform="translate(-380.777 -274.274)" fill="#dc4267"/>
    </clipPath>
    <clipPath id="clip-path-4">
      <path id="Path_12026" data-name="Path 12026" d="M355.149,216.068l-15.134,20.394a7.158,7.158,0,0,1-8.029,2.519l-24.072-8.09a7.593,7.593,0,0,0-8.607,11.6l14.719,20.7a7.158,7.158,0,0,1-.084,8.415l-15.134,20.394a7.594,7.594,0,0,0,8.372,11.77l24.231-7.6a7.157,7.157,0,0,1,7.976,2.681l14.72,20.694a7.593,7.593,0,0,0,13.781-4.324l.256-25.395a7.158,7.158,0,0,1,5.014-6.758l24.231-7.6a7.594,7.594,0,0,0,.145-14.443l-24.072-8.09a7.159,7.159,0,0,1-4.878-6.858l.256-25.394A7.593,7.593,0,0,0,355.149,216.068Z" transform="translate(-295.278 -209.984)" fill="#d3b25a"/>
    </clipPath>
  </defs>
  <g id="Group_9737" data-name="Group 9737" transform="translate(-10932.001 -17641.764)">
    <g id="Group_9736" data-name="Group 9736" transform="translate(10928.57 17553.791)">
      <g id="OBJECTS" transform="translate(3.43 93.973)">
        <ellipse id="Ellipse_434" data-name="Ellipse 434" cx="189.812" cy="13.657" rx="189.812" ry="13.657" transform="translate(0 245.701)" fill="#d4e1f7" opacity="0.41"/>
        <g id="Group_5928" data-name="Group 5928" transform="translate(100.146 0)">
          <g transform="matrix(1, 0, 0, 1, -100.15, -6)" filter="url(#Rectangle_1980)">
            <path id="Rectangle_1980-2" data-name="Rectangle 1980" d="M5.1,0h179.98a5.1,5.1,0,0,1,5.1,5.1V241.761a5.1,5.1,0,0,1-5.1,5.1H5.1a5.1,5.1,0,0,1-5.1-5.1V5.1A5.1,5.1,0,0,1,5.1,0Z" transform="translate(100.15 6)" fill="#fff"/>
          </g>
          <g id="Group_5870" data-name="Group 5870" transform="translate(0 0)">
            <path id="Path_7763" data-name="Path 7763" d="M338.135,147.661v19.524H147.949V147.661a4.584,4.584,0,0,1,4.583-4.583H333.551A4.584,4.584,0,0,1,338.135,147.661Z" transform="translate(-147.949 -143.077)" fill="#d4e1f7"/>
            <path id="Path_7764" data-name="Path 7764" d="M328.495,154.383H192.165c-1.8,0-3.36,1.1-3.439,2.536-.084,1.522,1.441,2.777,3.335,2.777H328.495c1.844,0,3.338-1.189,3.338-2.656h0C331.833,155.572,330.339,154.383,328.495,154.383Z" transform="translate(-152.107 -144.23)" fill="#fff"/>
            <path id="Path_7765" data-name="Path 7765" d="M164.959,157.034V159a.733.733,0,0,1-1.1.635l-1.7-.983-1.7-.984a.733.733,0,0,1,0-1.27l1.7-.984,1.7-.984a.734.734,0,0,1,1.1.635Z" transform="translate(-149.187 -144.225)" fill="#2a3554"/>
            <path id="Path_7766" data-name="Path 7766" d="M175.388,157.034V159a.733.733,0,0,0,1.1.635l1.7-.983,1.7-.984a.733.733,0,0,0,0-1.27l-1.7-.984-1.7-.984a.734.734,0,0,0-1.1.635Z" transform="translate(-150.747 -144.225)" fill="#2a3554"/>
          </g>
          <g id="Group_5871" data-name="Group 5871" transform="translate(12.565 42.447)">
            <path id="Path_7767" data-name="Path 7767" d="M206.934,194.708H163.906a2.082,2.082,0,0,1-1.965-2.182h0a2.082,2.082,0,0,1,1.965-2.182h43.029a2.082,2.082,0,0,1,1.965,2.182h0A2.082,2.082,0,0,1,206.934,194.708Z" transform="translate(-161.941 -190.344)" fill="#d4e1f7"/>
            <path id="Path_7768" data-name="Path 7768" d="M206.934,206.932H163.906a2.082,2.082,0,0,1-1.965-2.182h0a2.082,2.082,0,0,1,1.965-2.182h43.029a2.082,2.082,0,0,1,1.965,2.182h0A2.082,2.082,0,0,1,206.934,206.932Z" transform="translate(-161.941 -191.591)" fill="#d4e1f7"/>
            <path id="Path_7769" data-name="Path 7769" d="M206.934,219.156H163.906a2.082,2.082,0,0,1-1.965-2.182h0a2.082,2.082,0,0,1,1.965-2.182h43.029a2.082,2.082,0,0,1,1.965,2.182h0A2.082,2.082,0,0,1,206.934,219.156Z" transform="translate(-161.941 -192.837)" fill="#d4e1f7"/>
            <path id="Path_7770" data-name="Path 7770" d="M206.934,231.38H163.906a2.082,2.082,0,0,1-1.965-2.182h0a2.082,2.082,0,0,1,1.965-2.182h43.029A2.082,2.082,0,0,1,208.9,229.2h0A2.082,2.082,0,0,1,206.934,231.38Z" transform="translate(-161.941 -194.084)" fill="#d4e1f7"/>
          </g>
          <g id="Group_5872" data-name="Group 5872" transform="translate(12.565 95.48)">
            <path id="Path_7771" data-name="Path 7771" d="M206.934,253.763H163.906a2.082,2.082,0,0,1-1.965-2.182h0a2.082,2.082,0,0,1,1.965-2.182h43.029a2.082,2.082,0,0,1,1.965,2.182h0A2.082,2.082,0,0,1,206.934,253.763Z" transform="translate(-161.941 -249.399)" fill="#d4e1f7"/>
            <path id="Path_7772" data-name="Path 7772" d="M206.934,265.987H163.906a2.082,2.082,0,0,1-1.965-2.182h0a2.082,2.082,0,0,1,1.965-2.182h43.029a2.082,2.082,0,0,1,1.965,2.182h0A2.082,2.082,0,0,1,206.934,265.987Z" transform="translate(-161.941 -250.646)" fill="#d4e1f7"/>
            <path id="Path_7773" data-name="Path 7773" d="M206.934,278.211H163.906a2.082,2.082,0,0,1-1.965-2.182h0a2.082,2.082,0,0,1,1.965-2.182h43.029a2.082,2.082,0,0,1,1.965,2.182h0A2.082,2.082,0,0,1,206.934,278.211Z" transform="translate(-161.941 -251.892)" fill="#d4e1f7"/>
            <path id="Path_7774" data-name="Path 7774" d="M206.934,290.435H163.906a2.082,2.082,0,0,1-1.965-2.182h0a2.082,2.082,0,0,1,1.965-2.182h43.029a2.082,2.082,0,0,1,1.965,2.182h0A2.082,2.082,0,0,1,206.934,290.435Z" transform="translate(-161.941 -253.139)" fill="#d4e1f7"/>
          </g>
          <g id="Group_5873" data-name="Group 5873" transform="translate(12.565 148.55)">
            <path id="Path_7775" data-name="Path 7775" d="M206.934,312.861H163.906a2.082,2.082,0,0,1-1.965-2.182h0a2.083,2.083,0,0,1,1.965-2.183h43.029a2.083,2.083,0,0,1,1.965,2.183h0A2.082,2.082,0,0,1,206.934,312.861Z" transform="translate(-161.941 -308.496)" fill="#d4e1f7"/>
            <path id="Path_7776" data-name="Path 7776" d="M206.934,325.085H163.906a2.082,2.082,0,0,1-1.965-2.182h0a2.082,2.082,0,0,1,1.965-2.182h43.029A2.081,2.081,0,0,1,208.9,322.9h0A2.082,2.082,0,0,1,206.934,325.085Z" transform="translate(-161.941 -309.743)" fill="#d4e1f7"/>
            <path id="Path_7777" data-name="Path 7777" d="M206.934,337.309H163.906a2.082,2.082,0,0,1-1.965-2.182h0a2.082,2.082,0,0,1,1.965-2.182h43.029a2.081,2.081,0,0,1,1.965,2.182h0A2.082,2.082,0,0,1,206.934,337.309Z" transform="translate(-161.941 -310.989)" fill="#d4e1f7"/>
            <path id="Path_7778" data-name="Path 7778" d="M206.934,349.533H163.906a2.082,2.082,0,0,1-1.965-2.182h0a2.082,2.082,0,0,1,1.965-2.182h43.029a2.082,2.082,0,0,1,1.965,2.182h0A2.082,2.082,0,0,1,206.934,349.533Z" transform="translate(-161.941 -312.236)" fill="#d4e1f7"/>
          </g>
          <g id="Group_5889" data-name="Group 5889" transform="translate(73.635 148.55)">
            <rect id="Rectangle_1981" data-name="Rectangle 1981" width="104.379" height="37.334" rx="6.38" transform="translate(3.173 4.006)" fill="#cfe4ea"/>
            <g id="Group_5888" data-name="Group 5888">
              <rect id="Rectangle_1982" data-name="Rectangle 1982" width="104.379" height="37.335" rx="6.38" fill="#005db1"/>
              <g id="Group_5875" data-name="Group 5875" transform="translate(3.868 2.724)">
                <g id="Group_5874" data-name="Group 5874">
                  <path id="Path_7779" data-name="Path 7779" d="M265.648,327.227a15.7,15.7,0,0,1-26.089,11.764,15.815,15.815,0,0,1-1.711-1.768,15.7,15.7,0,1,1,27.8-10Z" transform="translate(-234.253 -311.53)" fill="#004386"/>
                </g>
                <path id="Path_7780" data-name="Path 7780" d="M257.069,324.039a6.019,6.019,0,1,1-6.019-6.019A6.019,6.019,0,0,1,257.069,324.039Z" transform="translate(-235.352 -312.192)" fill="#0078cc"/>
                <path id="Path_7781" data-name="Path 7781" d="M260.944,341.257a15.7,15.7,0,0,1-20.783,0,9.208,9.208,0,0,1,3.857-5.474,11.5,11.5,0,0,1,13.07,0A9.207,9.207,0,0,1,260.944,341.257Z" transform="translate(-234.856 -313.795)" fill="#0078cc"/>
              </g>
              <g id="Group_5886" data-name="Group 5886" transform="translate(39.873 6.549)">
                <g id="Group_5878" data-name="Group 5878">
                  <g id="Group_5877" data-name="Group 5877">
                    <g id="Group_5876" data-name="Group 5876">
                      <path id="Path_7782" data-name="Path 7782" d="M276.282,324.378c.011-.041.017-.071.026-.1q.466-1.447.935-2.893a.11.11,0,0,0-.049-.147q-1.393-1.032-2.782-2.068a.2.2,0,0,1-.065-.072h.2q1.678-.018,3.359-.034a.1.1,0,0,0,.107-.082q.5-1.559,1-3.115c.006-.021.013-.041.026-.078.015.038.027.063.037.089q.582,1.591,1.163,3.183a.117.117,0,0,0,.135.092c1.043-.008,2.085-.013,3.128-.019a.445.445,0,0,1,.132.014l-.067.048q-1.355.92-2.712,1.837a.1.1,0,0,0-.049.145q.552,1.59,1.1,3.179c.008.025.014.051.028.1l-.122-.083q-1.334-.945-2.665-1.891a.1.1,0,0,0-.135,0q-1.319.92-2.641,1.837Z" transform="translate(-274.347 -315.789)" fill="#fff"/>
                    </g>
                  </g>
                </g>
                <g id="Group_5881" data-name="Group 5881" transform="translate(11.925)">
                  <g id="Group_5880" data-name="Group 5880">
                    <g id="Group_5879" data-name="Group 5879">
                      <path id="Path_7783" data-name="Path 7783" d="M289.561,324.378c.011-.041.017-.071.026-.1q.466-1.447.935-2.893a.111.111,0,0,0-.049-.147q-1.393-1.032-2.782-2.068a.2.2,0,0,1-.065-.072h.2q1.678-.018,3.359-.034a.1.1,0,0,0,.107-.082q.5-1.559,1-3.115l.027-.078c.015.038.027.063.037.089q.582,1.591,1.162,3.183a.119.119,0,0,0,.136.092c1.043-.008,2.085-.013,3.127-.019a.449.449,0,0,1,.133.014l-.067.048q-1.355.92-2.712,1.837a.1.1,0,0,0-.048.145q.552,1.59,1.1,3.179c.008.025.014.051.028.1l-.122-.083q-1.334-.945-2.664-1.891a.1.1,0,0,0-.136,0q-1.32.92-2.642,1.837Z" transform="translate(-287.626 -315.789)" fill="#fff"/>
                    </g>
                  </g>
                </g>
                <g id="Group_5882" data-name="Group 5882" transform="translate(23.85)">
                  <path id="Path_7784" data-name="Path 7784" d="M302.84,324.378c.011-.041.017-.071.026-.1q.466-1.447.935-2.893a.11.11,0,0,0-.05-.147q-1.392-1.032-2.781-2.068a.2.2,0,0,1-.065-.072h.2q1.68-.018,3.359-.034a.1.1,0,0,0,.107-.082q.5-1.559,1-3.115l.027-.078c.015.038.027.063.037.089q.582,1.591,1.162,3.183a.118.118,0,0,0,.136.092c1.042-.008,2.084-.013,3.127-.019a.441.441,0,0,1,.132.014l-.066.048q-1.355.92-2.712,1.837a.1.1,0,0,0-.048.145q.552,1.59,1.1,3.179c.009.025.015.051.028.1l-.121-.083q-1.334-.945-2.665-1.891a.1.1,0,0,0-.135,0q-1.32.92-2.642,1.837Z" transform="translate(-300.905 -315.789)" fill="#fff"/>
                </g>
                <g id="Group_5884" data-name="Group 5884" transform="translate(35.774)">
                  <g id="Group_5883" data-name="Group 5883">
                    <path id="Path_7785" data-name="Path 7785" d="M316.118,324.378c.012-.041.018-.071.027-.1q.466-1.447.934-2.893a.109.109,0,0,0-.049-.147q-1.393-1.032-2.781-2.068a.2.2,0,0,1-.065-.072h.2q1.68-.018,3.359-.034a.1.1,0,0,0,.107-.082q.5-1.559,1-3.115l.027-.078c.015.038.027.063.037.089q.582,1.591,1.162,3.183a.118.118,0,0,0,.136.092c1.042-.008,2.084-.013,3.127-.019a.441.441,0,0,1,.132.014c-.023.016-.044.032-.067.048q-1.355.92-2.711,1.837a.1.1,0,0,0-.048.145q.552,1.59,1.1,3.179c.009.025.015.051.028.1l-.121-.083q-1.334-.945-2.665-1.891a.1.1,0,0,0-.135,0q-1.32.92-2.642,1.837Z" transform="translate(-314.184 -315.789)" fill="#004386"/>
                  </g>
                </g>
                <g id="Group_5885" data-name="Group 5885" transform="translate(47.699)">
                  <path id="Path_7786" data-name="Path 7786" d="M329.4,324.378c.012-.041.018-.071.027-.1q.466-1.447.934-2.893a.11.11,0,0,0-.049-.147q-1.393-1.032-2.781-2.068a.2.2,0,0,1-.065-.072h.2q1.68-.018,3.359-.034a.1.1,0,0,0,.108-.082q.5-1.559,1-3.115c.006-.021.014-.041.026-.078.016.038.028.063.037.089q.583,1.591,1.163,3.183a.118.118,0,0,0,.135.092c1.043-.008,2.085-.013,3.128-.019a.44.44,0,0,1,.132.014c-.022.016-.044.032-.067.048q-1.355.92-2.711,1.837a.1.1,0,0,0-.048.145q.552,1.59,1.1,3.179c.009.025.015.051.028.1l-.122-.083q-1.332-.945-2.664-1.891a.1.1,0,0,0-.135,0q-1.32.92-2.642,1.837Z" transform="translate(-327.463 -315.789)" fill="#004386"/>
                </g>
              </g>
              <g id="Group_5887" data-name="Group 5887" transform="translate(39.873 19.081)">
                <rect id="Rectangle_1983" data-name="Rectangle 1983" width="56.94" height="2.504" rx="1.252" transform="translate(0)" fill="#004386"/>
                <path id="Path_7787" data-name="Path 7787" d="M330.035,335.72H275.6a1.252,1.252,0,0,0-1.252,1.252h0a1.252,1.252,0,0,0,1.252,1.252h54.436a1.252,1.252,0,0,0,1.252-1.252h0A1.252,1.252,0,0,0,330.035,335.72Z" transform="translate(-274.347 -330.354)" fill="#004386"/>
              </g>
            </g>
          </g>
          <g id="Group_5908" data-name="Group 5908" transform="translate(73.635 42.409)">
            <rect id="Rectangle_1984" data-name="Rectangle 1984" width="104.379" height="37.334" rx="6.38" transform="translate(3.173 4.006)" fill="#cfe4ea"/>
            <g id="Group_5907" data-name="Group 5907">
              <rect id="Rectangle_1985" data-name="Rectangle 1985" width="104.379" height="37.334" rx="6.38" fill="#ff5767"/>
              <g id="Group_5891" data-name="Group 5891" transform="translate(3.868 2.725)">
                <g id="Group_5890" data-name="Group 5890">
                  <path id="Path_7788" data-name="Path 7788" d="M265.648,209.032a15.7,15.7,0,1,1-15.7-15.7A15.623,15.623,0,0,1,265.648,209.032Z" transform="translate(-234.253 -193.336)" fill="#e22445"/>
                </g>
                <path id="Path_7789" data-name="Path 7789" d="M257.069,205.844a6.019,6.019,0,1,1-6.019-6.019A6.02,6.02,0,0,1,257.069,205.844Z" transform="translate(-235.352 -193.998)" fill="#ff6c88"/>
                <path id="Path_7790" data-name="Path 7790" d="M260.944,223.062a15.7,15.7,0,0,1-20.783,0,9.209,9.209,0,0,1,3.857-5.474,11.5,11.5,0,0,1,13.07,0A9.208,9.208,0,0,1,260.944,223.062Z" transform="translate(-234.856 -195.601)" fill="#ff6c88"/>
              </g>
              <g id="Group_5905" data-name="Group 5905" transform="translate(39.873 6.549)">
                <g id="Group_5894" data-name="Group 5894">
                  <g id="Group_5893" data-name="Group 5893">
                    <g id="Group_5892" data-name="Group 5892">
                      <path id="Path_7791" data-name="Path 7791" d="M276.282,206.183c.011-.041.017-.07.026-.1q.466-1.447.935-2.893a.11.11,0,0,0-.049-.147q-1.393-1.032-2.782-2.068a.2.2,0,0,1-.065-.072h.2q1.678-.017,3.359-.034a.1.1,0,0,0,.107-.082q.5-1.559,1-3.115c.006-.021.013-.041.026-.077.015.037.027.062.037.088q.582,1.591,1.163,3.183a.119.119,0,0,0,.135.093c1.043-.009,2.085-.013,3.128-.019a.413.413,0,0,1,.132.013l-.067.048q-1.355.92-2.712,1.837a.1.1,0,0,0-.049.145q.552,1.588,1.1,3.178c.008.025.014.052.028.1l-.122-.084q-1.334-.944-2.665-1.89a.1.1,0,0,0-.135,0q-1.319.92-2.641,1.837Z" transform="translate(-274.347 -197.595)" fill="#fff"/>
                    </g>
                  </g>
                </g>
                <g id="Group_5897" data-name="Group 5897" transform="translate(11.925)">
                  <g id="Group_5896" data-name="Group 5896">
                    <g id="Group_5895" data-name="Group 5895">
                      <path id="Path_7792" data-name="Path 7792" d="M289.561,206.183c.011-.041.017-.07.026-.1q.466-1.447.935-2.893a.111.111,0,0,0-.049-.147q-1.393-1.032-2.782-2.068a.2.2,0,0,1-.065-.072h.2q1.678-.017,3.359-.034a.1.1,0,0,0,.107-.082q.5-1.559,1-3.115l.027-.077c.015.037.027.062.037.088q.582,1.591,1.162,3.183a.12.12,0,0,0,.136.093c1.043-.009,2.085-.013,3.127-.019a.417.417,0,0,1,.133.013l-.067.048q-1.355.92-2.712,1.837a.1.1,0,0,0-.048.145q.552,1.588,1.1,3.178c.008.025.014.052.028.1l-.122-.084q-1.334-.944-2.664-1.89a.1.1,0,0,0-.136,0q-1.32.92-2.642,1.837Z" transform="translate(-287.626 -197.595)" fill="#fff"/>
                    </g>
                  </g>
                </g>
                <g id="Group_5900" data-name="Group 5900" transform="translate(23.85)">
                  <g id="Group_5899" data-name="Group 5899">
                    <g id="Group_5898" data-name="Group 5898">
                      <path id="Path_7793" data-name="Path 7793" d="M302.84,206.183c.011-.041.017-.07.026-.1q.466-1.447.935-2.893a.11.11,0,0,0-.05-.147q-1.392-1.032-2.781-2.068a.2.2,0,0,1-.065-.072h.2q1.68-.017,3.359-.034a.1.1,0,0,0,.107-.082q.5-1.559,1-3.115l.027-.077c.015.037.027.062.037.088q.582,1.591,1.162,3.183a.119.119,0,0,0,.136.093c1.042-.009,2.084-.013,3.127-.019a.41.41,0,0,1,.132.013l-.066.048q-1.355.92-2.712,1.837a.1.1,0,0,0-.048.145q.552,1.588,1.1,3.178c.009.025.015.052.028.1l-.121-.084q-1.334-.944-2.665-1.89a.1.1,0,0,0-.135,0q-1.32.92-2.642,1.837Z" transform="translate(-300.905 -197.595)" fill="#fff"/>
                    </g>
                  </g>
                </g>
                <g id="Group_5903" data-name="Group 5903" transform="translate(35.774)">
                  <g id="Group_5902" data-name="Group 5902">
                    <g id="Group_5901" data-name="Group 5901">
                      <path id="Path_7794" data-name="Path 7794" d="M316.118,206.183c.012-.041.018-.07.027-.1q.466-1.447.934-2.893a.109.109,0,0,0-.049-.147q-1.393-1.032-2.781-2.068a.2.2,0,0,1-.065-.072h.2q1.68-.017,3.359-.034a.1.1,0,0,0,.107-.082q.5-1.559,1-3.115l.027-.077c.015.037.027.062.037.088q.582,1.591,1.162,3.183a.119.119,0,0,0,.136.093c1.042-.009,2.084-.013,3.127-.019a.41.41,0,0,1,.132.013c-.023.016-.044.032-.067.048q-1.355.92-2.711,1.837a.1.1,0,0,0-.048.145q.552,1.588,1.1,3.178c.009.025.015.052.028.1l-.121-.084q-1.334-.944-2.665-1.89a.1.1,0,0,0-.135,0q-1.32.92-2.642,1.837Z" transform="translate(-314.184 -197.595)" fill="#fff"/>
                    </g>
                  </g>
                </g>
                <g id="Group_5904" data-name="Group 5904" transform="translate(47.699)">
                  <path id="Path_7795" data-name="Path 7795" d="M329.4,206.183c.012-.041.018-.07.027-.1q.466-1.447.934-2.893a.11.11,0,0,0-.049-.147q-1.393-1.032-2.781-2.068a.2.2,0,0,1-.065-.072h.2q1.68-.017,3.359-.034a.1.1,0,0,0,.108-.082q.5-1.559,1-3.115c.006-.021.014-.041.026-.077.016.037.028.062.037.088q.583,1.591,1.163,3.183a.119.119,0,0,0,.135.093c1.043-.009,2.085-.013,3.128-.019a.409.409,0,0,1,.132.013c-.022.016-.044.032-.067.048q-1.355.92-2.711,1.837a.1.1,0,0,0-.048.145q.552,1.588,1.1,3.178c.009.025.015.052.028.1l-.122-.084q-1.332-.944-2.664-1.89a.1.1,0,0,0-.135,0q-1.32.92-2.642,1.837Z" transform="translate(-327.463 -197.595)" fill="#e22445"/>
                </g>
              </g>
              <g id="Group_5906" data-name="Group 5906" transform="translate(39.873 19.081)">
                <rect id="Rectangle_1986" data-name="Rectangle 1986" width="56.94" height="2.504" rx="1.252" transform="translate(0)" fill="#e22445"/>
                <path id="Path_7796" data-name="Path 7796" d="M330.035,217.525H275.6a1.252,1.252,0,0,0-1.252,1.252h0a1.252,1.252,0,0,0,1.252,1.252h54.436a1.252,1.252,0,0,0,1.252-1.252h0A1.252,1.252,0,0,0,330.035,217.525Z" transform="translate(-274.347 -212.159)" fill="#e22445"/>
              </g>
            </g>
          </g>
          <g id="Group_5925" data-name="Group 5925" transform="translate(73.635 95.48)">
            <rect id="Rectangle_1987" data-name="Rectangle 1987" width="104.379" height="37.334" rx="6.38" transform="translate(3.173 4.006)" fill="#cfe4ea"/>
            <g id="Group_5924" data-name="Group 5924">
              <rect id="Rectangle_1988" data-name="Rectangle 1988" width="104.379" height="37.334" rx="6.38" fill="#ff5767"/>
              <g id="Group_5910" data-name="Group 5910" transform="translate(3.868 2.724)">
                <g id="Group_5909" data-name="Group 5909">
                  <path id="Path_7797" data-name="Path 7797" d="M265.648,268.129a15.7,15.7,0,0,1-26.089,11.765,15.841,15.841,0,0,1-1.711-1.769,15.7,15.7,0,1,1,27.8-10Z" transform="translate(-234.253 -252.433)" fill="#e22445"/>
                </g>
                <path id="Path_7798" data-name="Path 7798" d="M257.069,264.942a6.019,6.019,0,1,1-6.019-6.02A6.019,6.019,0,0,1,257.069,264.942Z" transform="translate(-235.352 -253.095)" fill="#ff6c88"/>
                <path id="Path_7799" data-name="Path 7799" d="M260.944,282.16a15.7,15.7,0,0,1-20.783,0,9.212,9.212,0,0,1,3.857-5.475,11.5,11.5,0,0,1,13.07,0A9.21,9.21,0,0,1,260.944,282.16Z" transform="translate(-234.856 -254.698)" fill="#ff6c88"/>
              </g>
              <g id="Group_5922" data-name="Group 5922" transform="translate(39.873 6.549)">
                <g id="Group_5913" data-name="Group 5913">
                  <g id="Group_5912" data-name="Group 5912">
                    <g id="Group_5911" data-name="Group 5911">
                      <path id="Path_7800" data-name="Path 7800" d="M276.282,265.28c.011-.04.017-.07.026-.1q.466-1.448.935-2.894a.109.109,0,0,0-.049-.146q-1.393-1.032-2.782-2.068a.206.206,0,0,1-.065-.072h.2q1.678-.019,3.359-.034c.065,0,.088-.022.107-.083q.5-1.557,1-3.114c.006-.021.013-.041.026-.078.015.038.027.063.037.089q.582,1.59,1.163,3.182a.118.118,0,0,0,.135.093q1.564-.012,3.128-.019a.472.472,0,0,1,.132.013l-.067.049q-1.355.919-2.712,1.836a.1.1,0,0,0-.049.145q.552,1.588,1.1,3.179c.008.025.014.051.028.1-.052-.035-.087-.058-.122-.084q-1.334-.944-2.665-1.89a.1.1,0,0,0-.135,0q-1.319.921-2.641,1.837Z" transform="translate(-274.347 -256.692)" fill="#fff"/>
                    </g>
                  </g>
                </g>
                <g id="Group_5916" data-name="Group 5916" transform="translate(11.925)">
                  <g id="Group_5915" data-name="Group 5915">
                    <g id="Group_5914" data-name="Group 5914">
                      <path id="Path_7801" data-name="Path 7801" d="M289.561,265.28c.011-.04.017-.07.026-.1q.466-1.448.935-2.894a.11.11,0,0,0-.049-.146q-1.393-1.032-2.782-2.068a.2.2,0,0,1-.065-.072h.2q1.678-.019,3.359-.034a.1.1,0,0,0,.107-.083q.5-1.557,1-3.114l.027-.078c.015.038.027.063.037.089q.582,1.59,1.162,3.182a.119.119,0,0,0,.136.093q1.564-.012,3.127-.019a.476.476,0,0,1,.133.013l-.067.049q-1.355.919-2.712,1.836a.1.1,0,0,0-.048.145q.552,1.588,1.1,3.179c.008.025.014.051.028.1-.052-.035-.087-.058-.122-.084q-1.334-.944-2.664-1.89a.1.1,0,0,0-.136,0q-1.32.921-2.642,1.837C289.627,265.237,289.6,265.255,289.561,265.28Z" transform="translate(-287.626 -256.692)" fill="#fff"/>
                    </g>
                  </g>
                </g>
                <g id="Group_5918" data-name="Group 5918" transform="translate(23.85)">
                  <g id="Group_5917" data-name="Group 5917">
                    <path id="Path_7802" data-name="Path 7802" d="M302.84,265.28c.011-.04.017-.07.026-.1q.466-1.448.935-2.894a.109.109,0,0,0-.05-.146q-1.392-1.032-2.781-2.068A.205.205,0,0,1,300.9,260h.2q1.68-.019,3.359-.034a.1.1,0,0,0,.107-.083q.5-1.557,1-3.114l.027-.078c.015.038.027.063.037.089q.582,1.59,1.162,3.182a.119.119,0,0,0,.136.093q1.563-.012,3.127-.019a.467.467,0,0,1,.132.013l-.066.049q-1.355.919-2.712,1.836a.1.1,0,0,0-.048.145q.552,1.588,1.1,3.179c.009.025.015.051.028.1-.051-.035-.087-.058-.121-.084q-1.334-.944-2.665-1.89a.1.1,0,0,0-.135,0q-1.32.921-2.642,1.837C302.906,265.237,302.878,265.255,302.84,265.28Z" transform="translate(-300.905 -256.692)" fill="#e22445"/>
                  </g>
                </g>
                <g id="Group_5920" data-name="Group 5920" transform="translate(35.774)">
                  <g id="Group_5919" data-name="Group 5919">
                    <path id="Path_7803" data-name="Path 7803" d="M316.118,265.28c.012-.04.018-.07.027-.1q.466-1.448.934-2.894a.108.108,0,0,0-.049-.146q-1.393-1.032-2.781-2.068a.207.207,0,0,1-.065-.072h.2q1.68-.019,3.359-.034a.1.1,0,0,0,.107-.083q.5-1.557,1-3.114l.027-.078c.015.038.027.063.037.089q.582,1.59,1.162,3.182a.119.119,0,0,0,.136.093q1.563-.012,3.127-.019a.467.467,0,0,1,.132.013l-.067.049q-1.355.919-2.711,1.836a.1.1,0,0,0-.048.145q.552,1.588,1.1,3.179c.009.025.015.051.028.1-.051-.035-.087-.058-.121-.084q-1.334-.944-2.665-1.89a.1.1,0,0,0-.135,0q-1.32.921-2.642,1.837C316.184,265.237,316.157,265.255,316.118,265.28Z" transform="translate(-314.184 -256.692)" fill="#e22445"/>
                  </g>
                </g>
                <g id="Group_5921" data-name="Group 5921" transform="translate(47.699)">
                  <path id="Path_7804" data-name="Path 7804" d="M329.4,265.28c.012-.04.018-.07.027-.1q.466-1.448.934-2.894a.109.109,0,0,0-.049-.146q-1.393-1.032-2.781-2.068a.2.2,0,0,1-.065-.072h.2q1.68-.019,3.359-.034a.1.1,0,0,0,.108-.083q.5-1.557,1-3.114c.006-.021.014-.041.026-.078.016.038.028.063.037.089q.583,1.59,1.163,3.182a.118.118,0,0,0,.135.093q1.564-.012,3.128-.019a.467.467,0,0,1,.132.013l-.067.049q-1.355.919-2.711,1.836a.1.1,0,0,0-.048.145q.552,1.588,1.1,3.179c.009.025.015.051.028.1-.051-.035-.087-.058-.122-.084q-1.332-.944-2.664-1.89a.1.1,0,0,0-.135,0q-1.32.921-2.642,1.837Z" transform="translate(-327.463 -256.692)" fill="#e22445"/>
                </g>
              </g>
              <g id="Group_5923" data-name="Group 5923" transform="translate(39.873 19.081)">
                <rect id="Rectangle_1989" data-name="Rectangle 1989" width="56.94" height="2.504" rx="1.252" transform="translate(0)" fill="#e22445"/>
                <path id="Path_7805" data-name="Path 7805" d="M330.035,276.622H275.6a1.252,1.252,0,0,0-1.252,1.252h0a1.253,1.253,0,0,0,1.252,1.253h54.436a1.252,1.252,0,0,0,1.252-1.253h0A1.252,1.252,0,0,0,330.035,276.622Z" transform="translate(-274.347 -271.256)" fill="#e22445"/>
              </g>
            </g>
          </g>
          <g id="Group_5927" data-name="Group 5927" transform="translate(14.798 198.313)">
            <g id="Group_5926" data-name="Group 5926">
              <path id="Path_7806" data-name="Path 7806" d="M172.218,398.494c.044-.166.069-.284.106-.4q1.878-5.829,3.764-11.652a.444.444,0,0,0-.2-.594q-5.608-4.153-11.2-8.326a.814.814,0,0,1-.26-.29c.271,0,.543,0,.814,0q6.763-.07,13.526-.137a.385.385,0,0,0,.432-.33q2.008-6.275,4.036-12.543c.028-.084.057-.168.107-.315.063.152.11.253.148.358q2.345,6.4,4.681,12.814a.478.478,0,0,0,.543.376q6.3-.051,12.594-.076a1.8,1.8,0,0,1,.533.056c-.091.064-.18.13-.271.192q-5.457,3.7-10.918,7.4a.416.416,0,0,0-.2.585q2.225,6.4,4.425,12.8c.035.1.059.208.112.392-.207-.142-.351-.237-.491-.336q-5.367-3.8-10.729-7.613a.393.393,0,0,0-.544-.005q-5.314,3.707-10.637,7.4C172.482,398.321,172.373,398.391,172.218,398.494Z" transform="translate(-164.427 -363.91)" fill="#d4e1f7"/>
              <path id="Path_7807" data-name="Path 7807" d="M219.619,398.494c.045-.166.07-.284.107-.4q1.876-5.829,3.763-11.652a.444.444,0,0,0-.2-.594q-5.608-4.153-11.2-8.326a.808.808,0,0,1-.26-.29c.272,0,.543,0,.815,0q6.763-.07,13.526-.137a.383.383,0,0,0,.431-.33q2.008-6.275,4.037-12.543c.027-.084.057-.168.107-.315.063.152.11.253.148.358q2.344,6.4,4.68,12.814a.479.479,0,0,0,.544.376q6.3-.051,12.594-.076a1.791,1.791,0,0,1,.532.056c-.09.064-.179.13-.271.192q-5.455,3.7-10.918,7.4a.415.415,0,0,0-.2.585q2.224,6.4,4.424,12.8c.035.1.06.208.112.392-.207-.142-.35-.237-.49-.336q-5.368-3.8-10.73-7.613a.393.393,0,0,0-.544-.005q-5.313,3.707-10.637,7.4C219.884,398.321,219.774,398.391,219.619,398.494Z" transform="translate(-169.261 -363.91)" fill="#d4e1f7"/>
              <path id="Path_7808" data-name="Path 7808" d="M267.021,398.494c.044-.166.069-.284.106-.4q1.878-5.829,3.764-11.652a.444.444,0,0,0-.2-.594q-5.608-4.153-11.2-8.326a.814.814,0,0,1-.26-.29c.271,0,.543,0,.815,0q6.763-.07,13.526-.137a.385.385,0,0,0,.432-.33q2.008-6.275,4.036-12.543c.028-.084.057-.168.107-.315.063.152.11.253.148.358q2.345,6.4,4.681,12.814a.478.478,0,0,0,.543.376q6.3-.051,12.594-.076a1.8,1.8,0,0,1,.533.056c-.091.064-.18.13-.271.192q-5.457,3.7-10.918,7.4a.415.415,0,0,0-.2.585q2.224,6.4,4.424,12.8c.035.1.059.208.112.392-.207-.142-.351-.237-.491-.336q-5.367-3.8-10.73-7.613a.393.393,0,0,0-.544-.005q-5.314,3.707-10.637,7.4C267.285,398.321,267.176,398.391,267.021,398.494Z" transform="translate(-174.095 -363.91)" fill="#d4e1f7"/>
              <path id="Path_7809" data-name="Path 7809" d="M314.422,398.494c.045-.166.07-.284.107-.4q1.876-5.829,3.763-11.652a.444.444,0,0,0-.2-.594q-5.608-4.153-11.2-8.326a.809.809,0,0,1-.26-.29c.272,0,.543,0,.815,0q6.763-.07,13.526-.137a.383.383,0,0,0,.431-.33q2.008-6.275,4.037-12.543c.027-.084.057-.168.107-.315.063.152.11.253.148.358q2.344,6.4,4.681,12.814a.479.479,0,0,0,.544.376q6.3-.051,12.594-.076a1.791,1.791,0,0,1,.532.056c-.09.064-.179.13-.27.192q-5.457,3.7-10.919,7.4a.415.415,0,0,0-.2.585q2.224,6.4,4.424,12.8c.035.1.06.208.112.392-.207-.142-.35-.237-.49-.336q-5.368-3.8-10.73-7.613a.393.393,0,0,0-.544-.005q-5.313,3.707-10.637,7.4C314.687,398.321,314.577,398.391,314.422,398.494Z" transform="translate(-178.929 -363.91)" fill="#d4e1f7"/>
            </g>
          </g>
        </g>
      </g>
    </g>
    <g id="Group_9735" data-name="Group 9735" transform="translate(10946 17689)">
      <g id="Group_9601" data-name="Group 9601" transform="translate(3.657 114.094)">
        <path id="Path_12003" data-name="Path 12003" d="M388.81,420.585a61.455,61.455,0,0,0,6.463-16.624c2.83-12.264,14.151-24.528,14.151-24.528.944-11.321,7.547-45.284,7.547-46.227,0,0,8.491-16.038,14.151,3.774s-11.321,37.736-11.321,43.4-27.358,43.4-27.358,43.4l.019.047A6.112,6.112,0,0,1,388.81,420.585Z" transform="translate(-388.81 -327.077)" fill="#302564"/>
        <g id="Group_9600" data-name="Group 9600" clip-path="url(#clip-path)">
          <path id="Path_12004" data-name="Path 12004" d="M372.866,325.118c8.06,0,16.619-10.049,16.619-10.049s3.865,2.706,5.757,16.046c.889,6.266,3.774,41.51,5.66,50,1.855,8.348,8.27,52.262,8.485,53.734a5.481,5.481,0,0,1-5.379.206c-1.143-5.634-3.75-16.434-7.823-21.864-5.66-7.547-3.773-22.642-5.66-27.359s-9.439-35.841-16.981-40.566C363.59,339.031,370.934,325.118,372.866,325.118Z" transform="translate(-345.553 -327.077)" fill="#44627d" opacity="0.21" style="mix-blend-mode: multiply;isolation: isolate"/>
        </g>
      </g>
      <path id="Path_12006" data-name="Path 12006" d="M423.732,420.585a6.112,6.112,0,0,0,3.652,3.234l1.868,4.67s2.83,1.887,4.717,2.83-4.717,1.887-6.6,0a75.2,75.2,0,0,1-5.66-7.547A34.757,34.757,0,0,0,423.732,420.585Z" transform="translate(-420.075 -212.983)" fill="#1b2b41"/>
      <path id="Path_12007" data-name="Path 12007" d="M371.32,320.48c8.06,0,16.619-10.049,16.619-10.049s3.865,2.706,5.757,16.047c.889,6.265,3.774,41.509,5.66,50,1.855,8.348,8.27,52.261,8.485,53.733a5.482,5.482,0,0,1-5.38.206c-1.142-5.634-3.749-16.434-7.822-21.864-5.66-7.547-3.773-22.641-5.66-27.359S379.54,345.353,372,340.629C362.044,334.394,369.388,320.48,371.32,320.48Z" transform="translate(-338.804 -212.983)" fill="#302564"/>
      <path id="Path_12008" data-name="Path 12008" d="M364.149,430.211l.006.04,7.547,1.887c3.774,2.83-12.264,1.887-12.264,1.887s-.223-1.412-.669-3.608A5.482,5.482,0,0,0,364.149,430.211Z" transform="translate(-295.112 -212.983)" fill="#1b2b41"/>
      <path id="Path_12009" data-name="Path 12009" d="M396.484,292.26s-20.674-3.648-32.1-6.188c0,0-7.582-8.941-15.306-8.106-4.979.538-13.023,4.715-3.541,8.782s16.721,7.28,16.721,7.28l33.231,1.631s1.25,4.255,2.984,4.462,11.123.159,10.105-1.135-6.661-3.143-6.661-3.143,5.782.691,5.92-.465-11.355-3.118-11.355-3.118" transform="translate(-313.859 -212.984)" fill="#e9be84"/>
      <path id="Path_12010" data-name="Path 12010" d="M413.377,288.015s-2.691,4.2-.578,6.355a3.363,3.363,0,0,0-2.236.933c-1.139,1-2.236.959-2.588.6a5.312,5.312,0,0,0-1.07-.741s-8.931,3.486-20.034-2.892-13.16-9.95-11.586-12.681,2.106-6.9,10.1-5.185,16.493,9.036,18.646,10.169a32.96,32.96,0,0,0,4.6,1.915s.749-.986,1.707-.608S412.7,286.592,413.377,288.015Z" transform="translate(-352.261 -212.984)" fill="#c74b65"/>
      <g id="Group_9603" data-name="Group 9603" transform="translate(5.089 28.946)">
        <path id="Path_12011" data-name="Path 12011" d="M430.841,281.264s-4.389-2.287-5.687-3.692-5.815-7-5.005-10.355c0,0,5.8,2.2,7.543-2.409,2.27-6-8.684-19.979-11.361-20.763s-8.626-4.4-14.222.112,2.439,23.794,8.5,24.711c0,0,6.5,10.735,4.252,14.209,0,0,9.245,3.931,12.732,1.362S430.841,281.264,430.841,281.264Z" transform="translate(-400.22 -241.93)" fill="#d29271"/>
        <g id="Group_9602" data-name="Group 9602" transform="translate(0)" clip-path="url(#clip-path-2)">
          <path id="Path_12012" data-name="Path 12012" d="M415.529,268.622l-1.3-1.4s-4.029-.838-5.327-2.243c0,0,3.219,4.19,5.923,4.3S415.529,268.622,415.529,268.622Z" transform="translate(-394.301 -241.93)" fill="#866e4f" opacity="0.29" style="mix-blend-mode: multiply;isolation: isolate"/>
        </g>
      </g>
      <g id="Group_9605" data-name="Group 9605" transform="translate(13.258 61.29)">
        <path id="Path_12014" data-name="Path 12014" d="M411.631,326.277c-7.344,1.16-12.449,1.785-13.914-2.705-.938-2.876-1.238-10.455-7.343-16.619-4.389-4.431-12.726-16.478-8.375-23.753s13.681-3.518,15.709-3.437-1.813-5.489-1.813-5.489h0c10.059,2.431,15.431,7.018,19.742,14.326,6.191,10.494,8.184,33.711,6.429,36.518Z" transform="translate(-380.777 -274.274)" fill="#dc4267"/>
        <g id="Group_9604" data-name="Group 9604" transform="translate(0)" clip-path="url(#clip-path-3)">
          <path id="Path_12015" data-name="Path 12015" d="M423.091,305.388s-35.722,7.362-44.422-13.44h0l17.975-7.025s11.329,9.031,18.819,7.975S423.091,305.388,423.091,305.388Z" transform="translate(-374.681 -274.274)" fill="#5b2a36" opacity="0.2" style="mix-blend-mode: multiply;isolation: isolate"/>
        </g>
      </g>
      <path id="Path_12017" data-name="Path 12017" d="M417.137,254.575a1.962,1.962,0,0,0-1.065-.6,1.8,1.8,0,0,0-1.3.206,2.143,2.143,0,0,0-.823,1,3.76,3.76,0,0,0-.16.594,3.838,3.838,0,0,0-.009.606,4.631,4.631,0,0,0,.32-.494l.31-.452a2.762,2.762,0,0,1,.707-.677A2.95,2.95,0,0,1,417.137,254.575Z" transform="translate(-394.973 -212.984)" fill="#6c543b"/>
      <path id="Path_12018" data-name="Path 12018" d="M410.874,251.956a1.409,1.409,0,0,0-.755-.428,1.273,1.273,0,0,0-.922.146,1.526,1.526,0,0,0-.584.71,2.7,2.7,0,0,0-.113.421,3.644,3.644,0,0,0-.007.43c.161-.241.3-.466.447-.671a1.984,1.984,0,0,1,.5-.48A2.086,2.086,0,0,1,410.874,251.956Z" transform="translate(-383.428 -212.984)" fill="#6c543b"/>
      <path id="Path_12021" data-name="Path 12021" d="M432.776,248.073s4.373-2.753,2.827-5.458-5.8,0-5.8,0,5.8-5.411,2.319-7.344-10.435,3.479-10.435,3.479,1.159-3.865-1.546-5.024-10.822,7.729-8.889,13.14c0,0-8.5,3.092-.773,12.368s12.367,9.662,12.367,9.662a9.806,9.806,0,0,0-.773-6.957,1.693,1.693,0,0,1-2.319.773c-1.546-.773-3.478-3.092-3.092-4.251s5.025.386,5.025.386,1.932-4.251,0-6.183,0-2.706,0-2.706,7.32.258,9.071-3.736A7.587,7.587,0,0,1,432.776,248.073Z" transform="translate(-407.236 -212.984)" fill="#272b41"/>
      <path id="Path_12023" data-name="Path 12023" d="M411.832,261.515l-4.785,1.164a8.312,8.312,0,0,0,3.326,1.486C411.725,264.219,411.832,261.515,411.832,261.515Z" transform="translate(-382.945 -212.984)" fill="#ecf1f1"/>
      <g id="Group_9608" data-name="Group 9608" transform="translate(33.226 0)">
        <g id="Group_9607" data-name="Group 9607" transform="translate(0)">
          <path id="Path_12024" data-name="Path 12024" d="M355.149,216.068l-15.134,20.394a7.158,7.158,0,0,1-8.029,2.519l-24.072-8.09a7.593,7.593,0,0,0-8.607,11.6l14.719,20.7a7.158,7.158,0,0,1-.084,8.415l-15.134,20.394a7.594,7.594,0,0,0,8.372,11.77l24.231-7.6a7.157,7.157,0,0,1,7.976,2.681l14.72,20.694a7.593,7.593,0,0,0,13.781-4.324l.256-25.395a7.158,7.158,0,0,1,5.014-6.758l24.231-7.6a7.594,7.594,0,0,0,.145-14.443l-24.072-8.09a7.159,7.159,0,0,1-4.878-6.858l.256-25.394A7.593,7.593,0,0,0,355.149,216.068Z" transform="translate(-297.278 -212.984)" fill="#d3b25a"/>
          <g id="Group_9606" data-name="Group 9606" transform="translate(0)" clip-path="url(#clip-path-4)">
            <path id="Path_12025" data-name="Path 12025" d="M352.886,215.107,337.752,235.5a7.157,7.157,0,0,1-8.028,2.52l-24.073-8.091a7.594,7.594,0,0,0-8.607,11.6l14.72,20.694a7.16,7.16,0,0,1-.085,8.415l-15.133,20.394a7.593,7.593,0,0,0,8.371,11.77l24.231-7.6a7.158,7.158,0,0,1,7.976,2.681l14.72,20.7a7.594,7.594,0,0,0,13.781-4.325l.256-25.394A7.158,7.158,0,0,1,370.9,282.1l24.231-7.6a7.594,7.594,0,0,0,.145-14.444L371.2,251.96a7.158,7.158,0,0,1-4.878-6.857l.256-25.4A7.593,7.593,0,0,0,352.886,215.107Z" transform="translate(-292.754 -212.984)" fill="#ecc649"/>
          </g>
        </g>
        <path id="Path_12027" data-name="Path 12027" d="M337.044,259.733c-2.287-1.262-4.634-2.372-7-3.428-.3-.133-.6-.266-.858-.4l-.409-.2-.392-.227a9.837,9.837,0,0,1-1.469-1.048,10.684,10.684,0,0,1-3.541-6.09,9.8,9.8,0,0,1-.185-1.794l-.005-.454.014-.486.012-.972c.04-2.592.022-5.188-.16-7.794-.5,2.563-.843,5.137-1.124,7.714-.067.659-.163,1.255-.182,1.967a11.258,11.258,0,0,0,.09,2.074,10.94,10.94,0,0,0,4.1,7.045,11.446,11.446,0,0,0,1.759,1.1l.463.232.48.192c.328.132.632.231.939.333C332.032,258.329,334.508,259.107,337.044,259.733Z" transform="translate(-256.063 -212.984)" fill="#fff" opacity="0.53"/>
        <path id="Path_12028" data-name="Path 12028" d="M300.508,262.16c1.227.55,2.487,1.051,3.76,1.535.159.06.321.121.461.182l.22.089.21.1a6.469,6.469,0,0,1,.785.436,4.854,4.854,0,0,1,1.21,1.065,3.045,3.045,0,0,1,.643,1.223,2.285,2.285,0,0,1,.081.632l0,.158-.013.168-.017.336a20.482,20.482,0,0,0,0,2.714,20.465,20.465,0,0,0,.7-2.623,5.51,5.51,0,0,0,.12-.673,2.564,2.564,0,0,0-.025-.725,3.32,3.32,0,0,0-.7-1.427,5.565,5.565,0,0,0-1.447-1.22,7.728,7.728,0,0,0-.942-.469l-.248-.1-.259-.091c-.176-.062-.34-.111-.505-.162C303.212,262.894,301.877,262.5,300.508,262.16Z" transform="translate(-206.477 -212.984)" fill="#fff" opacity="0.53"/>
        <path id="Path_12029" data-name="Path 12029" d="M337.655,308.548c.136,1.338.332,2.68.549,4.024.027.168.055.338.073.49l.033.235.019.231a6.306,6.306,0,0,1,.015.9,4.881,4.881,0,0,1-.318,1.581,3.054,3.054,0,0,1-.738,1.167,2.277,2.277,0,0,1-.507.386l-.138.077-.152.072-.3.153a20.471,20.471,0,0,0-2.35,1.356,20.56,20.56,0,0,0,2.619-.707,5.509,5.509,0,0,0,.644-.233,2.531,2.531,0,0,0,.615-.384,3.31,3.31,0,0,0,.887-1.319,5.561,5.561,0,0,0,.333-1.862,7.692,7.692,0,0,0-.064-1.051l-.034-.267-.051-.269c-.035-.184-.074-.35-.113-.519C338.37,311.257,338.042,309.9,337.655,308.548Z" transform="translate(-270.07 -212.983)" fill="#fff" opacity="0.53"/>
      </g>
      <g id="Group_9609" data-name="Group 9609" transform="translate(13.372 66.848)">
        <path id="Path_12030" data-name="Path 12030" d="M405.9,297.433s-24.282-2.319-37.748-4.209c0,0-16.389-13.515-25.257-11.837-5.718,1.083-7.866,10.52,3.491,14.357s20.038,6.89,20.038,6.89l38.638-1.172s1.84,4.812,3.868,4.893,12.9-.841,11.6-2.247-8-3.026-8-3.026,6.76.268,6.813-1.084-13.438-2.565-13.438-2.565" transform="translate(-336.297 -279.831)" fill="#d29271"/>
        <path id="Path_12031" data-name="Path 12031" d="M422.562,294.2s-2.55,5.756-.324,8.137a3.469,3.469,0,0,0-2.362,1.039c-1.2,1.113-2.363,1.067-2.734.665a5.55,5.55,0,0,0-1.128-.818s-9.437,3.879-21.147-3.162-13.875-10.995-12.207-14.023,2.238-7.647,10.672-5.764,17.4,9.975,19.667,11.225a33.707,33.707,0,0,0,4.848,2.112s.793-1.093,1.8-.677S421.851,292.62,422.562,294.2Z" transform="translate(-382.163 -279.831)" fill="#dc4267"/>
      </g>
    </g>
  </g>
</svg>
