<svg xmlns="http://www.w3.org/2000/svg" xmlns:xlink="http://www.w3.org/1999/xlink" width="394.287" height="353.18" viewBox="0 0 394.287 353.18">
  <defs>
    <linearGradient id="linear-gradient" x1="0.5" x2="0.5" y2="1" gradientUnits="objectBoundingBox">
      <stop offset="0" stop-color="#2cb7ff"/>
      <stop offset="1" stop-color="#5f63f2"/>
    </linearGradient>
  </defs>
  <g id="Group_9568" data-name="Group 9568" transform="translate(-51.289 -84.627)">
    <g id="Background_Complete" data-name="Background Complete">
      <g id="Group_9480" data-name="Group 9480">
        <rect id="Rectangle_2942" data-name="Rectangle 2942" width="8.693" height="0.25" transform="translate(322.527 401.208)" fill="#ebebeb"/>
        <rect id="Rectangle_2945" data-name="Rectangle 2945" width="6.333" height="0.25" transform="translate(104.556 390.888)" fill="#ebebeb"/>
        <rect id="Rectangle_2946" data-name="Rectangle 2946" width="93.676" height="0.25" transform="translate(131.471 395.111)" fill="#ebebeb"/>
      </g>
      <g id="Group_9497" data-name="Group 9497">
        <g id="Group_9496" data-name="Group 9496">
          <g id="Group_9493" data-name="Group 9493">
            <g id="Group_9492" data-name="Group 9492">
              <path id="Path_11731" data-name="Path 11731" d="M427.873,327.446q-1.255,1.122-2.495,2.285-.054-5.1.254-10.182a.2.2,0,0,0,0-.073q.279-4.571.85-9.113,1.569-1.115,3.156-2.174c.259-.173-.026-.563-.283-.391q-1.4.932-2.789,1.908.563-4.33,1.391-8.621a.19.19,0,0,0,.013-.071q.942-4.867,2.22-9.668a.207.207,0,0,0,.018-.07q.568-2.131,1.2-4.246,1.088-3.625,2.369-7.2a.238.238,0,1,0-.448-.161q-1.95,5.433-3.454,10.992-.906-1.44-1.783-2.913a.248.248,0,0,0-.424.255q1,1.672,2.035,3.3-1.2,4.529-2.108,9.12-1-1.371-1.983-2.777a.247.247,0,0,0-.4.283q1.115,1.6,2.261,3.146-.867,4.512-1.444,9.069a.2.2,0,0,0-.009.072q-.549,4.346-.831,8.722-1.174-1.229-2.327-2.5a.247.247,0,0,0-.364.333q1.311,1.438,2.649,2.827-.318,5.309-.242,10.639a.2.2,0,0,0,0,.073c0,.3.01.594.016.891q.078,3.8.36,7.6a.239.239,0,1,0,.476-.035q-.309-4.185-.374-8.373,1.4-1.326,2.822-2.6C428.441,327.588,428.105,327.24,427.873,327.446Z" fill="#fff"/>
            </g>
          </g>
        </g>
      </g>
    </g>
    <g id="Shadow">
      <ellipse id="_Path_" data-name="&lt;Path&gt;" cx="193.889" cy="11.323" rx="193.889" ry="11.323" transform="translate(51.289 401.068)" fill="#f5f5f5"/>
    </g>
    <g id="Screen">
      <g id="Group_9498" data-name="Group 9498">
        <path id="Path_11735" data-name="Path 11735" d="M299.879,275.4,269.67,252.479l36.072-44.09Z" fill="#407bff"/>
        <path id="Path_11736" data-name="Path 11736" d="M305.742,208.39,299.879,275.4,269.67,252.479Z" fill="#fff" opacity="0.7"/>
      </g>
      <g id="Group_9503" data-name="Group 9503">
        <g id="Group_9499" data-name="Group 9499">
          <path id="Path_11737" data-name="Path 11737" d="M375.572,89.667h15.681c.772,0,.879-1.2.105-1.2H375.677c-.772,0-.878,1.2-.105,1.2Z" fill="#407bff"/>
        </g>
        <g id="Group_9500" data-name="Group 9500">
          <path id="Path_11738" data-name="Path 11738" d="M397,89.667H401.5c.772,0,.879-1.2.105-1.2H397.1c-.773,0-.879,1.2-.105,1.2Z" fill="#407bff"/>
        </g>
        <g id="Group_9501" data-name="Group 9501" opacity="0.3">
          <path id="Path_11739" data-name="Path 11739" d="M375.572,89.667h15.681c.772,0,.879-1.2.105-1.2H375.677c-.772,0-.878,1.2-.105,1.2Z" fill="#fff"/>
        </g>
        <g id="Group_9502" data-name="Group 9502" opacity="0.3">
          <path id="Path_11740" data-name="Path 11740" d="M397,89.667H401.5c.772,0,.879-1.2.105-1.2H397.1c-.773,0-.879,1.2-.105,1.2Z" fill="#fff"/>
        </g>
      </g>
      <g id="Group_9525" data-name="Group 9525">
        <g id="Group_9506" data-name="Group 9506">
          <g id="Group_9504" data-name="Group 9504">
            <path id="Path_11741" data-name="Path 11741" d="M424.015,308.743a6.9,6.9,0,0,1-6.715,6.175H293.8a5.584,5.584,0,0,1-5.635-6.175L307.233,90.8a6.9,6.9,0,0,1,6.715-6.175h123.5a5.583,5.583,0,0,1,5.635,6.175Z" fill="#407bff"/>
            <path id="Path_11742" data-name="Path 11742" d="M424.015,308.743a6.9,6.9,0,0,1-6.715,6.175H293.8a5.584,5.584,0,0,1-5.635-6.175L307.233,90.8a6.9,6.9,0,0,1,6.715-6.175h123.5a5.583,5.583,0,0,1,5.635,6.175Z" fill="#fff" opacity="0.7"/>
          </g>
          <path id="Path_11743" data-name="Path 11743" d="M424.015,308.743a6.9,6.9,0,0,1-6.715,6.175H293.8a5.584,5.584,0,0,1-5.635-6.175L307.233,90.8a6.9,6.9,0,0,1,6.715-6.175h123.5a5.583,5.583,0,0,1,5.635,6.175Z" fill="#407bff"/>
          <path id="Path_11744" data-name="Path 11744" d="M424.015,308.743a6.9,6.9,0,0,1-6.715,6.175H293.8a5.584,5.584,0,0,1-5.635-6.175L307.233,90.8a6.9,6.9,0,0,1,6.715-6.175h123.5a5.583,5.583,0,0,1,5.635,6.175Z" fill="#fff" opacity="0.7"/>
          <g id="Group_9505" data-name="Group 9505">
            <path id="Path_11745" data-name="Path 11745" d="M439.918,84.627h-2.47a5.583,5.583,0,0,1,5.635,6.175L424.015,308.743a6.9,6.9,0,0,1-6.715,6.175h2.47a6.9,6.9,0,0,0,6.715-6.175L445.552,90.8A5.582,5.582,0,0,0,439.918,84.627Z" fill="#407bff"/>
            <path id="Path_11746" data-name="Path 11746" d="M439.918,84.627h-2.47a5.583,5.583,0,0,1,5.635,6.175L424.015,308.743a6.9,6.9,0,0,1-6.715,6.175h2.47a6.9,6.9,0,0,0,6.715-6.175L445.552,90.8A5.582,5.582,0,0,0,439.918,84.627Z" fill="#fff" opacity="0.4"/>
          </g>
        </g>
        <g id="Group_9507" data-name="Group 9507">
          <path id="Path_11747" data-name="Path 11747" d="M349.266,259.866c-.6-.2-.971-.354-.931-.809a.876.876,0,0,1,.964-.756.951.951,0,0,1,.978.7l.026.08.435-.23-.022-.064a1.378,1.378,0,0,0-1.376-.954,1.4,1.4,0,0,0-1.494,1.237c-.07.8.593,1.024,1.294,1.259l.019.006c.7.229,1.027.415.989.852-.043.492-.446.787-1.078.787a1.044,1.044,0,0,1-1.15-.814l-.019-.1-.446.248.014.059a1.662,1.662,0,0,0,3.167-.19C350.708,260.356,349.975,260.107,349.266,259.866Z" fill="#263238"/>
          <path id="Path_11748" data-name="Path 11748" d="M353.112,259.066a1.364,1.364,0,0,0-1.068.467l.035-.4h-.463l-.284,3.24h.463l.15-1.707a1.1,1.1,0,0,1,1.1-1.15.7.7,0,0,1,.755.86l-.175,2h.469l.175-2A1.1,1.1,0,0,0,353.112,259.066Z" fill="#263238"/>
          <path id="Path_11749" data-name="Path 11749" d="M356.8,259.066a1.808,1.808,0,0,0-1.824,1.688,1.482,1.482,0,0,0,1.553,1.688,1.755,1.755,0,0,0,1.476-.735l.046-.067-.387-.24-.044.07a1.212,1.212,0,0,1-1.045.521,1.062,1.062,0,0,1-1.133-1h2.785l.006-.077c0-.023.006-.047.009-.07s.008-.052.01-.079A1.464,1.464,0,0,0,356.8,259.066Zm-.04.451a1,1,0,0,1,1.028,1.018h-2.307A1.285,1.285,0,0,1,356.76,259.517Z" fill="#263238"/>
          <path id="Path_11750" data-name="Path 11750" d="M361.847,259.654a1.413,1.413,0,0,0-1.2-.588,1.851,1.851,0,0,0-1.824,1.688,1.5,1.5,0,0,0,1.529,1.688,1.708,1.708,0,0,0,1.3-.588l-.046.52h.469l.284-3.24h-.47Zm-1.43,2.337a1.1,1.1,0,0,1-1.122-1.237,1.357,1.357,0,0,1,1.339-1.237,1.1,1.1,0,0,1,1.117,1.237A1.356,1.356,0,0,1,360.417,261.991Z" fill="#263238"/>
          <path id="Path_11751" data-name="Path 11751" d="M365.931,259.134h-.664l-1.569,1.3.222-2.539h-.463l-.392,4.474h.463l.124-1.418,1.383,1.4.021.02h.646l-1.656-1.681Z" fill="#263238"/>
          <path id="Path_11752" data-name="Path 11752" d="M367.751,259.066a1.807,1.807,0,0,0-1.823,1.688,1.48,1.48,0,0,0,1.552,1.688,1.754,1.754,0,0,0,1.476-.735l.046-.067-.386-.24-.045.07a1.212,1.212,0,0,1-1.045.521,1.062,1.062,0,0,1-1.133-1h2.785l.007-.077c0-.023.005-.047.009-.07s.007-.052.01-.079A1.465,1.465,0,0,0,367.751,259.066Zm-.039.451a1,1,0,0,1,1.027,1.018h-2.307A1.286,1.286,0,0,1,367.712,259.517Z" fill="#263238"/>
          <path id="Path_11753" data-name="Path 11753" d="M370.545,259.526l.035-.392h-.463l-.284,3.24h.463l.157-1.793a1.025,1.025,0,0,1,1.044-1.04h.078l.039-.451h-.077A1.241,1.241,0,0,0,370.545,259.526Z" fill="#263238"/>
          <path id="Path_11754" data-name="Path 11754" d="M373.215,260.538c-.467-.123-.749-.219-.723-.518.031-.348.377-.5.708-.5a.656.656,0,0,1,.681.421l.026.082.417-.227-.023-.064a1.053,1.053,0,0,0-1.062-.663,1.128,1.128,0,0,0-1.21.954c-.057.653.51.8,1.009.936.474.125.76.224.733.533-.033.371-.432.5-.763.5a.729.729,0,0,1-.791-.49l-.023-.09-.424.235.018.061a1.119,1.119,0,0,0,1.18.735,1.151,1.151,0,0,0,1.266-.953C374.292,260.82,373.72,260.67,373.215,260.538Z" fill="#263238"/>
        </g>
        <g id="Group_9508" data-name="Group 9508">
          <path id="Path_11755" data-name="Path 11755" d="M350.722,274.272l-.076.869h-.692l.076-.86a2.237,2.237,0,0,1-2.163-1.6l1.433-.791a1.1,1.1,0,0,0,.866.831l.119-1.364c-.037-.02-.086-.03-.124-.049-.829-.347-1.815-.831-1.7-2.155a2.268,2.268,0,0,1,2.2-2.046l.076-.86h.691l-.077.88a2.1,2.1,0,0,1,1.822,1.432l-1.4.781a.864.864,0,0,0-.557-.642l-.117,1.334c.828.366,1.966.692,1.84,2.135A2.309,2.309,0,0,1,350.722,274.272Zm-.292-4.567.091-1.038a.562.562,0,0,0-.479.494C350.026,269.349,350.1,269.508,350.43,269.7Zm.92,2.481c.021-.247-.114-.4-.4-.544l-.092,1.058A.579.579,0,0,0,351.35,272.186Z" fill="#263238"/>
          <path id="Path_11756" data-name="Path 11756" d="M359.815,267.234l-.606,6.919h-1.581l.459-5.248-1.255.335-.267-1.353,1.866-.653Z" fill="#263238"/>
          <path id="Path_11757" data-name="Path 11757" d="M360.47,273.006,363,270.6a2.189,2.189,0,0,0,.809-1.226.623.623,0,0,0-.677-.731,1.242,1.242,0,0,0-1.084.751l-1.266-.781a2.741,2.741,0,0,1,2.465-1.513,1.989,1.989,0,0,1,2.15,2.2,3.461,3.461,0,0,1-1.268,2.175l-1.248,1.157h2.323l-.133,1.522H360.37Z" fill="#263238"/>
          <path id="Path_11758" data-name="Path 11758" d="M366.3,270.694c.187-2.136,1.343-3.6,3.132-3.6s2.689,1.463,2.5,3.6-1.342,3.6-3.131,3.6S366.115,272.828,366.3,270.694Zm4.053,0c.117-1.335-.225-2.056-1.056-2.056s-1.3.721-1.415,2.056.225,2.055,1.056,2.055S370.238,272.028,370.355,270.694Z" fill="#263238"/>
        </g>
        <g id="Group_9509" data-name="Group 9509">
          <path id="Path_11759" data-name="Path 11759" d="M356.633,112.464a2.315,2.315,0,0,1-2.3,2.076h-.908l-.166,1.9h-1.384l.529-6.055H354.7A1.877,1.877,0,0,1,356.633,112.464Zm-1.384,0a.668.668,0,0,0-.667-.778h-.908l-.136,1.557h.908A.822.822,0,0,0,355.249,112.464Z" fill="#263238"/>
          <path id="Path_11760" data-name="Path 11760" d="M360.431,115.491h-2.249l-.386.952h-1.514l2.589-6.055h1.764l1.529,6.055H360.65Zm-.3-1.3-.514-2.223-.9,2.223Z" fill="#263238"/>
          <path id="Path_11761" data-name="Path 11761" d="M365.441,114.116l-.2,2.327h-1.384l.2-2.327-1.707-3.728h1.574l.947,2.335,1.354-2.335H367.8Z" fill="#263238"/>
          <path id="Path_11762" data-name="Path 11762" d="M374.048,116.443h-1.384l.308-3.521-1.79,2.569h-.156l-1.341-2.569-.308,3.521h-1.384l.53-6.055h1.384l1.408,2.69,1.879-2.69h1.384Z" fill="#263238"/>
          <path id="Path_11763" data-name="Path 11763" d="M379.321,115.111l-.117,1.332H375.4l.53-6.055h3.762l-.116,1.332H377.2l-.087,1h2.162l-.115,1.315h-2.163l-.093,1.073Z" fill="#263238"/>
          <path id="Path_11764" data-name="Path 11764" d="M385.652,110.388l-.53,6.055h-1.038l-2.048-3.287-.287,3.287h-1.384l.529-6.055h1.039l2.047,3.287.288-3.287Z" fill="#263238"/>
          <path id="Path_11765" data-name="Path 11765" d="M390.8,111.72h-1.557l-.413,4.723h-1.384l.413-4.723H386.3l.117-1.332h4.5Z" fill="#263238"/>
          <path id="Path_11766" data-name="Path 11766" d="M390.988,115.068l1.254-.692a1.142,1.142,0,0,0,1.2.839c.657,0,.844-.26.865-.493.032-.372-.3-.519-1.187-.77s-1.722-.683-1.621-1.842a2.254,2.254,0,0,1,4.289-.476l-1.228.683a.954.954,0,0,0-.985-.7c-.432,0-.668.217-.689.459-.024.277.106.467,1.024.753.893.276,1.894.6,1.782,1.876a2.5,2.5,0,0,1-4.7.364Z" fill="#263238"/>
        </g>
        <g id="Group_9512" data-name="Group 9512">
          <g id="Group_9510" data-name="Group 9510">
            <path id="Path_11767" data-name="Path 11767" d="M372.081,97.4l.039-.446a.712.712,0,0,0-.72-.789h-7.273a.879.879,0,0,0-.858.789l-.039.446Z" fill="#407bff"/>
            <path id="Path_11768" data-name="Path 11768" d="M363.149,98.323l-.3,3.43a.711.711,0,0,0,.72.789h7.272a.878.878,0,0,0,.858-.789l.3-3.43Z" fill="#407bff"/>
          </g>
          <g id="Group_9511" data-name="Group 9511">
            <path id="Path_11769" data-name="Path 11769" d="M386.716,102.542c-5.356,2.3-7.532-2.3-12.89,0,.223-2.552.335-3.828.558-6.381,5.358-2.3,7.534,2.3,12.891,0C387.051,98.714,386.94,99.99,386.716,102.542Z" fill="#407bff"/>
          </g>
          <path id="Path_11770" data-name="Path 11770" d="M382.441,99.352a2.105,2.105,0,0,1-2.056,1.891,1.705,1.705,0,0,1-1.726-1.891,2.105,2.105,0,0,1,2.057-1.891A1.7,1.7,0,0,1,382.441,99.352Z" fill="#fff"/>
        </g>
        <path id="Path_11771" data-name="Path 11771" d="M428.894,147.3a6.9,6.9,0,0,1-6.715,6.174H318.4a5.582,5.582,0,0,1-5.635-6.174l.557-6.372a6.9,6.9,0,0,1,6.716-6.175H423.817a5.582,5.582,0,0,1,5.634,6.175Z" fill="#fff"/>
        <path id="Path_11772" data-name="Path 11772" d="M425.527,185.783a6.9,6.9,0,0,1-6.715,6.175H315.038a5.584,5.584,0,0,1-5.635-6.175l.558-6.371a6.9,6.9,0,0,1,6.715-6.176H420.45a5.584,5.584,0,0,1,5.635,6.176Z" fill="#fff"/>
        <path id="Path_11773" data-name="Path 11773" d="M422.775,217.247a6.9,6.9,0,0,1-6.716,6.175H312.285a5.583,5.583,0,0,1-5.635-6.175l.558-6.371a6.9,6.9,0,0,1,6.715-6.175H417.7a5.584,5.584,0,0,1,5.635,6.175Z" fill="#fff"/>
        <g id="Group_9513" data-name="Group 9513">
          <path id="Path_11774" data-name="Path 11774" d="M315.634,127.3H318l.046-.525h-2.37l.163-1.86H318.4l.046-.525h-3.1l-.467,5.339h3.139l.046-.525h-2.592Z" fill="#263238"/>
          <path id="Path_11775" data-name="Path 11775" d="M323.2,125.789a1.566,1.566,0,0,0-1.287.664,1.132,1.132,0,0,0-1.105-.664,1.5,1.5,0,0,0-1.163.534l.04-.453h-.524l-.338,3.858h.525l.187-2.144c.083-.948.666-1.285,1.184-1.285.553,0,.838.366.783,1l-.213,2.425h.525l.188-2.144c.071-.817.489-1.285,1.146-1.285.568,0,.875.375.82,1l-.212,2.425h.524l.212-2.425A1.249,1.249,0,0,0,323.2,125.789Z" fill="#263238"/>
          <path id="Path_11776" data-name="Path 11776" d="M328.934,126.525a1.68,1.68,0,0,0-1.451-.736,2.206,2.206,0,0,0-2.172,2.01,1.789,1.789,0,0,0,1.82,2.01,2.037,2.037,0,0,0,1.58-.736l-.058.655h.533l.337-3.858h-.532ZM327.2,129.3a1.335,1.335,0,0,1-1.361-1.5,1.647,1.647,0,0,1,1.624-1.5,1.332,1.332,0,0,1,1.354,1.5A1.643,1.643,0,0,1,327.2,129.3Z" fill="#263238"/>
          <path id="Path_11777" data-name="Path 11777" d="M330.342,129.728h.525l.337-3.857h-.525Z" fill="#263238"/>
          <path id="Path_11778" data-name="Path 11778" d="M331.072,124.389a.418.418,0,0,0-.406.366.338.338,0,0,0,.341.374.416.416,0,0,0,.406-.374A.338.338,0,0,0,331.072,124.389Z" fill="#263238"/>
          <path id="Path_11779" data-name="Path 11779" d="M332.493,124.167l-.486,5.561h.525l.487-5.561Z" fill="#263238"/>
        </g>
        <g id="Group_9514" data-name="Group 9514">
          <path id="Path_11780" data-name="Path 11780" d="M313.94,161.439H312.1l-.467,5.339h.547l.173-1.978h1.293a1.832,1.832,0,0,0,1.838-1.677A1.491,1.491,0,0,0,313.94,161.439Zm-.248,2.837H312.4l.2-2.312h1.293a1.007,1.007,0,0,1,1.043,1.159A1.234,1.234,0,0,1,313.692,164.276Z" fill="#263238"/>
          <path id="Path_11781" data-name="Path 11781" d="M319.461,163.575a1.68,1.68,0,0,0-1.451-.736,2.2,2.2,0,0,0-2.171,2.01,1.787,1.787,0,0,0,1.819,2.01,2.035,2.035,0,0,0,1.58-.736l-.057.655h.531l.338-3.858h-.532Zm-1.729,2.774a1.335,1.335,0,0,1-1.361-1.5,1.648,1.648,0,0,1,1.624-1.5,1.332,1.332,0,0,1,1.354,1.5A1.642,1.642,0,0,1,317.732,166.349Z" fill="#263238"/>
          <path id="Path_11782" data-name="Path 11782" d="M322.381,164.6c-.489-.128-.912-.239-.878-.637a.788.788,0,0,1,.866-.618.8.8,0,0,1,.832.514l.025.082.472-.256-.023-.064a1.252,1.252,0,0,0-1.261-.786,1.337,1.337,0,0,0-1.435,1.128c-.068.774.606.952,1.2,1.11.5.131.925.245.889.653-.04.457-.527.619-.933.619a.89.89,0,0,1-.963-.6l-.022-.09-.48.266.018.061a1.33,1.33,0,0,0,1.4.872,1.364,1.364,0,0,0,1.5-1.129C323.663,164.94,322.982,164.762,322.381,164.6Z" fill="#263238"/>
          <path id="Path_11783" data-name="Path 11783" d="M325.943,164.6c-.49-.128-.913-.239-.878-.637.037-.425.475-.618.866-.618a.8.8,0,0,1,.831.514l.026.082.471-.256-.023-.064a1.251,1.251,0,0,0-1.261-.786,1.337,1.337,0,0,0-1.435,1.128c-.067.774.606.952,1.2,1.11.5.131.925.245.889.653-.04.457-.527.619-.932.619a.889.889,0,0,1-.963-.6l-.023-.09-.48.266.018.061a1.33,1.33,0,0,0,1.4.872,1.365,1.365,0,0,0,1.5-1.129C327.224,164.94,326.543,164.762,325.943,164.6Z" fill="#263238"/>
          <path id="Path_11784" data-name="Path 11784" d="M331.543,165.961l-.713-3.041h-.5l-1.245,3.041-.652-2.986-.012-.055h-.554l.869,3.8.012.054h.52l1.235-2.984.7,2.93.012.053h.52l1.556-3.857h-.555Z" fill="#263238"/>
          <path id="Path_11785" data-name="Path 11785" d="M335.738,162.839a2.222,2.222,0,0,0-2.2,2.01,1.8,1.8,0,0,0,1.849,2.01,2.217,2.217,0,0,0,2.194-2.01A1.8,1.8,0,0,0,335.738,162.839Zm-.307,3.51a1.337,1.337,0,0,1-1.362-1.5,1.648,1.648,0,0,1,1.624-1.5,1.334,1.334,0,0,1,1.355,1.5A1.644,1.644,0,0,1,335.431,166.349Z" fill="#263238"/>
          <path id="Path_11786" data-name="Path 11786" d="M339.151,163.424l.044-.5h-.524l-.338,3.858h.525l.187-2.136a1.245,1.245,0,0,1,1.27-1.264h.077l.045-.509h-.077A1.466,1.466,0,0,0,339.151,163.424Z" fill="#263238"/>
          <path id="Path_11787" data-name="Path 11787" d="M344.349,161.439l-.188,2.149a1.655,1.655,0,0,0-1.449-.749,2.2,2.2,0,0,0-2.171,2.01,1.787,1.787,0,0,0,1.819,2.01,2,2,0,0,0,1.58-.749l-.058.668h.525l.467-5.339Zm-1.922,4.91a1.337,1.337,0,0,1-1.362-1.5,1.648,1.648,0,0,1,1.624-1.5,1.337,1.337,0,0,1,1.362,1.5A1.648,1.648,0,0,1,342.427,166.349Z" fill="#263238"/>
        </g>
        <g id="Group_9515" data-name="Group 9515">
          <path id="Path_11788" data-name="Path 11788" d="M327.585,214.93a1.877,1.877,0,0,1-1.581.865,1.625,1.625,0,0,1-1.682-1.835,2,2,0,0,1,2-1.837,1.525,1.525,0,0,1,1.419.848l.031.071.447-.246-.032-.066a1.977,1.977,0,0,0-1.824-1.076,2.516,2.516,0,0,0-2.525,2.306,2.043,2.043,0,0,0,2.122,2.3,2.422,2.422,0,0,0,2.027-1.1l.042-.066-.4-.244Z" fill="#263238"/>
          <path id="Path_11789" data-name="Path 11789" d="M331.629,213.477a1.414,1.414,0,0,0-1.2-.588,1.851,1.851,0,0,0-1.824,1.688,1.5,1.5,0,0,0,1.528,1.687,1.708,1.708,0,0,0,1.3-.587l-.045.52h.469l.283-3.24h-.469Zm-1.43,2.337a1.1,1.1,0,0,1-1.123-1.237,1.359,1.359,0,0,1,1.34-1.238,1.1,1.1,0,0,1,1.116,1.238A1.354,1.354,0,0,1,330.2,215.814Z" fill="#263238"/>
          <path id="Path_11790" data-name="Path 11790" d="M333.56,213.349l.034-.392h-.463l-.283,3.24h.463l.157-1.793a1.024,1.024,0,0,1,1.044-1.04h.077l.04-.451h-.078A1.237,1.237,0,0,0,333.56,213.349Z" fill="#263238"/>
          <path id="Path_11791" data-name="Path 11791" d="M337.922,211.722l-.155,1.765a1.39,1.39,0,0,0-1.2-.6,1.85,1.85,0,0,0-1.823,1.688,1.5,1.5,0,0,0,1.527,1.687,1.683,1.683,0,0,0,1.3-.6l-.046.53h.463l.391-4.475Zm-1.59,4.092a1.1,1.1,0,0,1-1.123-1.237,1.359,1.359,0,0,1,1.34-1.238,1.1,1.1,0,0,1,1.123,1.238A1.359,1.359,0,0,1,336.332,215.814Z" fill="#263238"/>
        </g>
        <g id="Group_9516" data-name="Group 9516">
          <path id="Path_11792" data-name="Path 11792" d="M323.721,142.277a1.566,1.566,0,0,0-1.287.664,1.132,1.132,0,0,0-1.1-.664,1.5,1.5,0,0,0-1.162.534l.039-.453h-.524l-.338,3.857h.525l.187-2.143c.083-.948.666-1.285,1.184-1.285.553,0,.838.366.783,1l-.213,2.424h.525l.188-2.143c.071-.817.489-1.285,1.146-1.285.568,0,.875.375.82,1l-.213,2.424h.525l.212-2.424A1.249,1.249,0,0,0,323.721,142.277Z" fill="#263238"/>
          <path id="Path_11793" data-name="Path 11793" d="M327.289,145.532l-1.163-3.174h-.569l1.4,3.848-.083.168c-.168.329-.532.87-1.1.82l-.084-.007-.044.5.071.005c.033,0,.066,0,.1,0a1.849,1.849,0,0,0,1.549-1.193l2.005-4.149h-.567Z" fill="#263238"/>
          <path id="Path_11794" data-name="Path 11794" d="M331.645,142.277a2.152,2.152,0,0,0-2.172,2.01,1.764,1.764,0,0,0,1.849,2.01,2.086,2.086,0,0,0,1.757-.874l.047-.067-.438-.273-.045.07a1.47,1.47,0,0,1-1.269.634A1.289,1.289,0,0,1,330,144.556h3.344l.007-.077c0-.028.007-.056.011-.084s.009-.062.012-.093A1.745,1.745,0,0,0,331.645,142.277Zm-.045.51a1.216,1.216,0,0,1,1.248,1.252h-2.8A1.561,1.561,0,0,1,331.6,142.787Z" fill="#263238"/>
          <path id="Path_11795" data-name="Path 11795" d="M338.477,142.277a1.566,1.566,0,0,0-1.287.664,1.132,1.132,0,0,0-1.105-.664,1.5,1.5,0,0,0-1.162.534l.039-.453h-.524l-.338,3.857h.525l.187-2.143c.083-.948.666-1.285,1.184-1.285.553,0,.838.366.783,1l-.212,2.424h.524l.188-2.143c.071-.817.489-1.285,1.146-1.285.568,0,.875.375.82,1l-.212,2.424h.524l.212-2.424A1.249,1.249,0,0,0,338.477,142.277Z" fill="#263238"/>
          <path id="Path_11796" data-name="Path 11796" d="M344.213,143.012a1.682,1.682,0,0,0-1.451-.735,2.2,2.2,0,0,0-2.171,2.01,1.788,1.788,0,0,0,1.819,2.01,2.034,2.034,0,0,0,1.58-.736l-.057.654h.532l.337-3.857h-.532Zm-1.728,2.775a1.337,1.337,0,0,1-1.362-1.5,1.647,1.647,0,0,1,1.624-1.5,1.333,1.333,0,0,1,1.355,1.5A1.644,1.644,0,0,1,342.485,145.787Z" fill="#263238"/>
          <path id="Path_11797" data-name="Path 11797" d="M345.621,146.215h.525l.337-3.857h-.525Z" fill="#263238"/>
          <path id="Path_11798" data-name="Path 11798" d="M346.351,140.877a.417.417,0,0,0-.4.366.336.336,0,0,0,.34.373.417.417,0,0,0,.407-.373A.338.338,0,0,0,346.351,140.877Z" fill="#263238"/>
          <path id="Path_11799" data-name="Path 11799" d="M347.286,146.215h.525l.487-5.561h-.525Z" fill="#263238"/>
          <path id="Path_11800" data-name="Path 11800" d="M351.967,141.529a3.043,3.043,0,0,0-3.014,2.758,2.5,2.5,0,0,0,2.665,2.758,3.965,3.965,0,0,0,1.332-.205l.059-.02-.009-.354-.1.037a3.479,3.479,0,0,1-1.256.2,2.177,2.177,0,0,1-2.347-2.418,2.665,2.665,0,0,1,2.637-2.419,2.026,2.026,0,0,1,2.117,2.271c-.07.791-.376,1.263-.819,1.263-.34,0-.383-.325-.359-.6l.151-1.729h-.51l-.023.262a1.039,1.039,0,0,0-.769-.314,1.381,1.381,0,0,0-1.387,1.263,1.121,1.121,0,0,0,1.166,1.262,1.242,1.242,0,0,0,.882-.37.723.723,0,0,0,.766.585c.514,0,1.151-.426,1.256-1.625A2.358,2.358,0,0,0,351.967,141.529Zm.444,2.758a.833.833,0,0,1-.849.767.677.677,0,0,1-.714-.767.833.833,0,0,1,.849-.768A.677.677,0,0,1,352.411,144.287Z" fill="#263238"/>
          <path id="Path_11801" data-name="Path 11801" d="M357.3,142.277a2.152,2.152,0,0,0-2.171,2.01,1.763,1.763,0,0,0,1.849,2.01,2.089,2.089,0,0,0,1.757-.874l.046-.067-.438-.273-.044.07a1.471,1.471,0,0,1-1.269.634,1.289,1.289,0,0,1-1.375-1.231H359l.007-.077c0-.028.007-.056.011-.084s.01-.062.012-.093A1.745,1.745,0,0,0,357.3,142.277Zm-.045.51a1.217,1.217,0,0,1,1.249,1.252h-2.8A1.561,1.561,0,0,1,357.256,142.787Z" fill="#263238"/>
          <path id="Path_11802" data-name="Path 11802" d="M364.133,142.277a1.569,1.569,0,0,0-1.287.664,1.131,1.131,0,0,0-1.105-.664,1.5,1.5,0,0,0-1.162.534l.04-.453h-.525l-.337,3.857h.524l.188-2.143c.083-.948.665-1.285,1.183-1.285.553,0,.839.366.783,1l-.212,2.424h.525l.187-2.143c.072-.817.489-1.285,1.146-1.285.568,0,.875.375.82,1l-.212,2.424h.525l.212-2.424A1.25,1.25,0,0,0,364.133,142.277Z" fill="#263238"/>
          <path id="Path_11803" data-name="Path 11803" d="M369.869,143.012a1.68,1.68,0,0,0-1.45-.735,2.2,2.2,0,0,0-2.172,2.01,1.789,1.789,0,0,0,1.82,2.01,2.033,2.033,0,0,0,1.579-.736l-.057.654h.532l.338-3.857h-.532Zm-1.728,2.775a1.335,1.335,0,0,1-1.361-1.5,1.646,1.646,0,0,1,1.624-1.5,1.332,1.332,0,0,1,1.354,1.5A1.644,1.644,0,0,1,368.141,145.787Z" fill="#263238"/>
          <path id="Path_11804" data-name="Path 11804" d="M372.007,140.877a.417.417,0,0,0-.4.366.337.337,0,0,0,.341.373.416.416,0,0,0,.406-.373A.338.338,0,0,0,372.007,140.877Z" fill="#263238"/>
          <path id="Path_11805" data-name="Path 11805" d="M371.278,146.215h.525l.337-3.857h-.525Z" fill="#263238"/>
          <path id="Path_11806" data-name="Path 11806" d="M372.943,146.215h.525l.487-5.561h-.525Z" fill="#263238"/>
          <path id="Path_11807" data-name="Path 11807" d="M374.981,145.468a.452.452,0,0,0-.446.411.366.366,0,0,0,.374.41.458.458,0,0,0,.447-.41A.371.371,0,0,0,374.981,145.468Z" fill="#263238"/>
          <path id="Path_11808" data-name="Path 11808" d="M379.374,145.058a1.547,1.547,0,0,1-1.328.729,1.337,1.337,0,0,1-1.362-1.5,1.627,1.627,0,0,1,1.624-1.5,1.194,1.194,0,0,1,1.178.725l.029.077.46-.256-.024-.063a1.625,1.625,0,0,0-1.6-.993,2.193,2.193,0,0,0-2.2,2.01A1.783,1.783,0,0,0,378,146.3a2.1,2.1,0,0,0,1.8-.982l.039-.065-.42-.264Z" fill="#263238"/>
          <path id="Path_11809" data-name="Path 11809" d="M382.648,142.277a2.219,2.219,0,0,0-2.2,2.01,1.8,1.8,0,0,0,1.849,2.01,2.217,2.217,0,0,0,2.193-2.01A1.8,1.8,0,0,0,382.648,142.277Zm-.307,3.51a1.335,1.335,0,0,1-1.361-1.5,1.646,1.646,0,0,1,1.624-1.5,1.332,1.332,0,0,1,1.354,1.5A1.644,1.644,0,0,1,382.341,145.787Z" fill="#263238"/>
          <path id="Path_11810" data-name="Path 11810" d="M389.62,142.277a1.569,1.569,0,0,0-1.287.664,1.131,1.131,0,0,0-1.105-.664,1.5,1.5,0,0,0-1.162.534l.04-.453h-.525l-.337,3.857h.524l.188-2.143c.083-.948.665-1.285,1.183-1.285.553,0,.839.366.783,1l-.212,2.424h.525l.187-2.143c.072-.817.489-1.285,1.146-1.285.568,0,.875.375.82,1l-.212,2.424h.525l.212-2.424A1.25,1.25,0,0,0,389.62,142.277Z" fill="#263238"/>
        </g>
        <g id="Group_9517" data-name="Group 9517">
          <path id="Path_11811" data-name="Path 11811" d="M354.765,213.469h-.482l-.119,1.358h-1.758l1.907-3.1h-.532l-1.939,3.145-.046.422h2.327l-.079.908h.482l.079-.908h.555l.04-.463h-.555Z" fill="#263238"/>
          <path id="Path_11812" data-name="Path 11812" d="M357.313,213.481h-.732l.2-1.3h2l.041-.463h-2.433l-.354,2.228h1.237c.628,0,1,.362.953.923a1.02,1.02,0,0,1-1.114.922.874.874,0,0,1-.955-.661l-.021-.092-.437.24.015.06a1.3,1.3,0,0,0,1.357.922,1.546,1.546,0,0,0,1.636-1.391A1.26,1.26,0,0,0,357.313,213.481Z" fill="#263238"/>
          <path id="Path_11813" data-name="Path 11813" d="M360.858,213.481h-.732l.2-1.3h2l.04-.463h-2.432l-.354,2.228h1.237c.628,0,1,.362.953.923a1.02,1.02,0,0,1-1.115.922.874.874,0,0,1-.954-.661l-.021-.092-.437.24.015.06a1.3,1.3,0,0,0,1.356.922,1.546,1.546,0,0,0,1.637-1.391A1.26,1.26,0,0,0,360.858,213.481Z" fill="#263238"/>
          <path id="Path_11814" data-name="Path 11814" d="M364.4,213.481h-.732l.2-1.3h2l.04-.463h-2.432l-.354,2.228h1.237c.628,0,1,.362.953.923a1.02,1.02,0,0,1-1.115.922.874.874,0,0,1-.954-.661l-.021-.092-.438.24.016.06a1.3,1.3,0,0,0,1.356.922,1.547,1.547,0,0,0,1.637-1.391A1.26,1.26,0,0,0,364.4,213.481Z" fill="#263238"/>
          <path id="Path_11815" data-name="Path 11815" d="M370.163,211.654c-1.045,0-1.772.884-1.9,2.306s.448,2.3,1.493,2.3,1.771-.883,1.895-2.3S371.208,211.654,370.163,211.654Zm-.362,4.141c-.756,0-1.147-.686-1.046-1.835s.611-1.837,1.367-1.837,1.146.687,1.046,1.837S370.556,215.795,369.8,215.795Z" fill="#263238"/>
          <path id="Path_11816" data-name="Path 11816" d="M374.315,211.654c-1.045,0-1.772.884-1.9,2.306s.447,2.3,1.492,2.3,1.772-.883,1.9-2.3S375.36,211.654,374.315,211.654Zm-.362,4.141c-.756,0-1.147-.686-1.047-1.835s.612-1.837,1.368-1.837,1.146.687,1.045,1.837S374.708,215.795,373.953,215.795Z" fill="#263238"/>
          <path id="Path_11817" data-name="Path 11817" d="M378.467,211.654c-1.045,0-1.772.884-1.9,2.306s.448,2.3,1.493,2.3,1.771-.883,1.9-2.3S379.512,211.654,378.467,211.654Zm-.362,4.141c-.756,0-1.147-.686-1.046-1.835s.611-1.837,1.367-1.837,1.146.687,1.046,1.837S378.86,215.795,378.105,215.795Z" fill="#263238"/>
          <path id="Path_11818" data-name="Path 11818" d="M382.619,211.654c-1.045,0-1.772.884-1.9,2.306s.447,2.3,1.492,2.3,1.772-.883,1.9-2.3S383.664,211.654,382.619,211.654Zm-.362,4.141c-.756,0-1.147-.686-1.047-1.835s.612-1.837,1.368-1.837,1.146.687,1.045,1.837S383.012,215.795,382.257,215.795Z" fill="#263238"/>
          <path id="Path_11819" data-name="Path 11819" d="M388.854,213.878a1.271,1.271,0,0,0,.624-.98,1.139,1.139,0,0,0-1.259-1.244,1.4,1.4,0,0,0-1.475,1.244,1.035,1.035,0,0,0,.452.98,1.343,1.343,0,0,0-.775,1.088c-.068.776.492,1.3,1.4,1.3a1.485,1.485,0,0,0,1.623-1.3A1.09,1.09,0,0,0,388.854,213.878Zm-1,1.917c-.639,0-.994-.31-.949-.829s.454-.824,1.094-.824.994.308.949.824S388.5,215.795,387.857,215.795Zm.186-2.128c-.529,0-.858-.309-.818-.769a.865.865,0,0,1,.953-.775c.428,0,.868.2.818.775A.874.874,0,0,1,388.043,213.667Z" fill="#263238"/>
          <path id="Path_11820" data-name="Path 11820" d="M392.54,213.878a1.271,1.271,0,0,0,.624-.98,1.139,1.139,0,0,0-1.259-1.244,1.4,1.4,0,0,0-1.475,1.244,1.035,1.035,0,0,0,.452.98,1.344,1.344,0,0,0-.775,1.088c-.068.776.492,1.3,1.4,1.3a1.485,1.485,0,0,0,1.623-1.3A1.09,1.09,0,0,0,392.54,213.878Zm-1,1.917c-.639,0-.994-.31-.949-.829s.454-.824,1.094-.824.994.308.949.824S392.183,215.795,391.543,215.795Zm.186-2.128c-.529,0-.858-.309-.818-.769a.865.865,0,0,1,.953-.775c.429,0,.868.2.818.775A.874.874,0,0,1,391.729,213.667Z" fill="#263238"/>
          <path id="Path_11821" data-name="Path 11821" d="M396.225,213.878a1.266,1.266,0,0,0,.624-.98,1.138,1.138,0,0,0-1.258-1.244,1.4,1.4,0,0,0-1.476,1.244,1.037,1.037,0,0,0,.453.98,1.345,1.345,0,0,0-.776,1.088c-.068.776.493,1.3,1.4,1.3a1.485,1.485,0,0,0,1.623-1.3A1.09,1.09,0,0,0,396.225,213.878Zm-1,1.917c-.64,0-.995-.31-.949-.829s.454-.824,1.093-.824,1,.308.95.824S395.868,215.795,395.229,215.795Zm.186-2.128c-.53,0-.858-.309-.818-.769a.865.865,0,0,1,.953-.775c.428,0,.868.2.818.775A.874.874,0,0,1,395.415,213.667Z" fill="#263238"/>
          <path id="Path_11822" data-name="Path 11822" d="M399.911,213.878a1.266,1.266,0,0,0,.624-.98,1.138,1.138,0,0,0-1.258-1.244A1.4,1.4,0,0,0,397.8,212.9a1.037,1.037,0,0,0,.453.98,1.345,1.345,0,0,0-.776,1.088c-.068.776.493,1.3,1.4,1.3a1.486,1.486,0,0,0,1.623-1.3A1.09,1.09,0,0,0,399.911,213.878Zm-1,1.917c-.64,0-.995-.31-.949-.829s.454-.824,1.093-.824.995.308.95.824S399.554,215.795,398.915,215.795Zm.186-2.128c-.53,0-.858-.309-.818-.769a.865.865,0,0,1,.953-.775c.428,0,.868.2.818.775A.874.874,0,0,1,399.1,213.667Z" fill="#263238"/>
          <path id="Path_11823" data-name="Path 11823" d="M405.679,213.469H405.2l-.119,1.358h-1.758l1.907-3.1H404.7l-1.939,3.145-.046.422h2.327l-.079.908h.482l.079-.908h.555l.04-.463h-.555Z" fill="#263238"/>
          <path id="Path_11824" data-name="Path 11824" d="M409.54,213.469h-.482l-.119,1.358h-1.758l1.907-3.1h-.532l-1.939,3.145-.046.422H408.9l-.079.908h.481l.079-.908h.555l.04-.463h-.555Z" fill="#263238"/>
          <path id="Path_11825" data-name="Path 11825" d="M413.4,213.469h-.482l-.119,1.358h-1.758l1.907-3.1h-.532l-1.939,3.145-.046.422h2.327l-.079.908h.482l.079-.908h.555l.04-.463h-.555Z" fill="#263238"/>
          <path id="Path_11826" data-name="Path 11826" d="M417.145,214.827l.119-1.358h-.482l-.119,1.358h-1.758l1.907-3.1h-.532l-1.939,3.145-.046.422h2.327l-.079.908h.482l.079-.908h.555l.04-.463Z" fill="#263238"/>
        </g>
        <path id="Path_11827" data-name="Path 11827" d="M372.26,229.794a6.9,6.9,0,0,0-6.715,6.175l-.558,6.371a5.583,5.583,0,0,0,5.635,6.175h43.242a6.9,6.9,0,0,0,6.715-6.175l.558-6.371a5.584,5.584,0,0,0-5.635-6.175Z" fill="#fff"/>
        <path id="Path_11828" data-name="Path 11828" d="M360.605,235.969a5.584,5.584,0,0,0-5.635-6.175H311.728a6.9,6.9,0,0,0-6.715,6.175l-.558,6.371a5.583,5.583,0,0,0,5.635,6.175h43.242a6.9,6.9,0,0,0,6.715-6.175Z" fill="#fff"/>
        <g id="Group_9518" data-name="Group 9518">
          <path id="Path_11829" data-name="Path 11829" d="M308.281,198.607H424.4c.358,0,.407-.555.049-.555H308.33c-.358,0-.407.555-.049.555Z" fill="#407bff"/>
        </g>
        <g id="Group_9519" data-name="Group 9519">
          <path id="Path_11830" data-name="Path 11830" d="M303.333,255.172H419.457c.357,0,.406-.556.048-.556H303.381c-.357,0-.407.556-.048.556Z" fill="#407bff"/>
        </g>
        <g id="Group_9520" data-name="Group 9520">
          <path id="Path_11831" data-name="Path 11831" d="M301.334,278.019H417.458c.357,0,.407-.556.048-.556H301.382c-.357,0-.407.556-.048.556Z" fill="#407bff"/>
        </g>
        <g id="Group_9521" data-name="Group 9521">
          <path id="Path_11832" data-name="Path 11832" d="M320.291,212.106l.039-.446a.712.712,0,0,0-.72-.789h-7.273a.878.878,0,0,0-.858.789l-.039.446Z" fill="#407bff"/>
          <path id="Path_11833" data-name="Path 11833" d="M311.359,213.032l-.3,3.431a.711.711,0,0,0,.72.789h7.272a.878.878,0,0,0,.858-.789l.3-3.431Z" fill="#407bff"/>
        </g>
        <path id="Path_11834" data-name="Path 11834" d="M320.338,182.6a2.1,2.1,0,0,1-2.057,1.891,1.7,1.7,0,0,1-1.725-1.891,2.105,2.105,0,0,1,2.056-1.891A1.705,1.705,0,0,1,320.338,182.6Z" fill="#263238"/>
        <path id="Path_11835" data-name="Path 11835" d="M328.263,182.6a2.106,2.106,0,0,1-2.057,1.891,1.706,1.706,0,0,1-1.726-1.891,2.107,2.107,0,0,1,2.057-1.891A1.706,1.706,0,0,1,328.263,182.6Z" fill="#263238"/>
        <path id="Path_11836" data-name="Path 11836" d="M336.187,182.6a2.1,2.1,0,0,1-2.056,1.891A1.7,1.7,0,0,1,332.4,182.6a2.105,2.105,0,0,1,2.057-1.891A1.7,1.7,0,0,1,336.187,182.6Z" fill="#263238"/>
        <path id="Path_11837" data-name="Path 11837" d="M344.112,182.6a2.105,2.105,0,0,1-2.057,1.891,1.706,1.706,0,0,1-1.726-1.891,2.107,2.107,0,0,1,2.057-1.891A1.705,1.705,0,0,1,344.112,182.6Z" fill="#263238"/>
        <path id="Path_11838" data-name="Path 11838" d="M352.036,182.6a2.1,2.1,0,0,1-2.056,1.891,1.7,1.7,0,0,1-1.726-1.891,2.106,2.106,0,0,1,2.057-1.891A1.7,1.7,0,0,1,352.036,182.6Z" fill="#263238"/>
        <path id="Path_11839" data-name="Path 11839" d="M359.961,182.6a2.1,2.1,0,0,1-2.057,1.891,1.7,1.7,0,0,1-1.725-1.891,2.105,2.105,0,0,1,2.056-1.891A1.705,1.705,0,0,1,359.961,182.6Z" fill="#263238"/>
        <path id="Path_11840" data-name="Path 11840" d="M367.885,182.6a2.1,2.1,0,0,1-2.056,1.891A1.7,1.7,0,0,1,364.1,182.6a2.106,2.106,0,0,1,2.057-1.891A1.7,1.7,0,0,1,367.885,182.6Z" fill="#263238"/>
        <g id="Group_9522" data-name="Group 9522">
          <path id="Path_11841" data-name="Path 11841" d="M314,237.122h-2.16l.137-1.561h1.975l.04-.463h-1.975l.133-1.524h2.129l.04-.462h-2.611l-.392,4.474h2.642Z" fill="#263238"/>
          <path id="Path_11842" data-name="Path 11842" d="M314.979,237.585l1.119-1.3.892,1.3h.571l-1.142-1.67,1.351-1.57H317.2l-1.042,1.2-.806-1.174-.02-.03h-.572l1.082,1.577-1.44,1.663Z" fill="#263238"/>
          <path id="Path_11843" data-name="Path 11843" d="M321.64,235.965a1.5,1.5,0,0,0-1.528-1.688,1.686,1.686,0,0,0-1.3.6l.046-.53h-.463L318,238.82h.463l.154-1.765a1.394,1.394,0,0,0,1.2.6A1.851,1.851,0,0,0,321.64,235.965Zm-1.586-1.238a1.1,1.1,0,0,1,1.123,1.238,1.359,1.359,0,0,1-1.34,1.237,1.1,1.1,0,0,1-1.123-1.237A1.359,1.359,0,0,1,320.054,234.727Z" fill="#263238"/>
          <path id="Path_11844" data-name="Path 11844" d="M323.027,234.345h-.463l-.283,3.24h.463Z" fill="#263238"/>
          <path id="Path_11845" data-name="Path 11845" d="M322.9,233.111a.361.361,0,0,0-.351.317.291.291,0,0,0,.295.324.362.362,0,0,0,.353-.324A.293.293,0,0,0,322.9,233.111Z" fill="#263238"/>
          <path id="Path_11846" data-name="Path 11846" d="M324.342,235.792a1.025,1.025,0,0,1,1.045-1.04h.077l.039-.45h-.077a1.234,1.234,0,0,0-.991.436l.034-.393h-.463l-.284,3.24h.463Z" fill="#263238"/>
          <path id="Path_11847" data-name="Path 11847" d="M328.639,234.865a1.411,1.411,0,0,0-1.2-.588,1.851,1.851,0,0,0-1.823,1.688,1.5,1.5,0,0,0,1.528,1.688,1.707,1.707,0,0,0,1.3-.588l-.046.52h.47l.283-3.24h-.469ZM327.21,237.2a1.1,1.1,0,0,1-1.123-1.237,1.359,1.359,0,0,1,1.339-1.238,1.1,1.1,0,0,1,1.117,1.238A1.355,1.355,0,0,1,327.21,237.2Z" fill="#263238"/>
          <path id="Path_11848" data-name="Path 11848" d="M331.009,233.455l-.481.138-.066.752h-.679l-.04.457h.679l-.169,1.928a.8.8,0,0,0,.2.7.894.894,0,0,0,.632.193,2.942,2.942,0,0,0,.422-.035l.066-.011.038-.428-.085.007c-.344.029-.617.045-.728-.066a.443.443,0,0,1-.071-.357l.169-1.928h.92l.04-.457h-.92Z" fill="#263238"/>
          <path id="Path_11849" data-name="Path 11849" d="M332.876,233.111a.362.362,0,0,0-.352.317.292.292,0,0,0,.3.324.36.36,0,0,0,.352-.324A.292.292,0,0,0,332.876,233.111Z" fill="#263238"/>
          <path id="Path_11850" data-name="Path 11850" d="M332.253,237.585h.463l.283-3.24h-.463Z" fill="#263238"/>
          <path id="Path_11851" data-name="Path 11851" d="M335.475,234.277a1.864,1.864,0,0,0-1.848,1.688,1.512,1.512,0,0,0,1.552,1.688,1.861,1.861,0,0,0,1.842-1.688A1.509,1.509,0,0,0,335.475,234.277Zm-.256,2.925a1.1,1.1,0,0,1-1.123-1.237,1.359,1.359,0,0,1,1.339-1.238,1.1,1.1,0,0,1,1.117,1.238A1.355,1.355,0,0,1,335.219,237.2Z" fill="#263238"/>
          <path id="Path_11852" data-name="Path 11852" d="M339.452,234.277a1.363,1.363,0,0,0-1.068.467l.035-.4h-.463l-.284,3.24h.463l.149-1.706a1.1,1.1,0,0,1,1.1-1.152.7.7,0,0,1,.754.862l-.174,2h.469l.175-2A1.1,1.1,0,0,0,339.452,234.277Z" fill="#263238"/>
          <path id="Path_11853" data-name="Path 11853" d="M345.266,233.111h-1.7l-.392,4.474h1.7a2.37,2.37,0,0,0,2.31-2.237A1.924,1.924,0,0,0,345.266,233.111Zm-.351,4.011H343.7l.311-3.549h1.218a1.512,1.512,0,0,1,1.484,1.775A1.861,1.861,0,0,1,344.915,237.122Z" fill="#263238"/>
          <path id="Path_11854" data-name="Path 11854" d="M350.777,234.865a1.413,1.413,0,0,0-1.2-.588,1.85,1.85,0,0,0-1.823,1.688,1.5,1.5,0,0,0,1.528,1.688,1.708,1.708,0,0,0,1.3-.588l-.046.52h.469l.284-3.24h-.469Zm-1.429,2.337a1.1,1.1,0,0,1-1.123-1.237,1.358,1.358,0,0,1,1.339-1.238,1.1,1.1,0,0,1,1.117,1.238A1.356,1.356,0,0,1,349.348,237.2Z" fill="#263238"/>
          <path id="Path_11855" data-name="Path 11855" d="M354.567,234.345l-1.256,2.625-.962-2.625h-.5l1.174,3.22-.067.135c-.138.269-.445.717-.9.676l-.083-.008-.039.445.07.007.084,0a1.558,1.558,0,0,0,1.3-1l1.679-3.475Z" fill="#263238"/>
          <path id="Path_11856" data-name="Path 11856" d="M310.575,240.937l.084.431,1-.308L311.317,245h.481l.392-4.474h-.355Z" fill="#263238"/>
          <path id="Path_11857" data-name="Path 11857" d="M314.659,243.281a2.59,2.59,0,0,0,.963-1.511,1.174,1.174,0,0,0-1.246-1.318,1.639,1.639,0,0,0-1.451.847l-.037.063.39.247.043-.077a1.114,1.114,0,0,1,1.014-.61.739.739,0,0,1,.8.848,2.162,2.162,0,0,1-.777,1.169l-1.729,1.629-.024.022-.035.4h2.869l.041-.469h-2.14Z" fill="#263238"/>
          <path id="Path_11858" data-name="Path 11858" d="M315.83,245.612h.416l3.037-5.709h-.415Z" fill="#263238"/>
          <path id="Path_11859" data-name="Path 11859" d="M321.212,242.334l1.1-1.4.036-.409h-2.642l-.04.462h2.039l-1.166,1.47.168.295h.134c.628,0,1,.363.953.923a1.024,1.024,0,0,1-1.1.923.906.906,0,0,1-.978-.617l-.025-.086-.428.241.018.061a1.323,1.323,0,0,0,1.372.87,1.541,1.541,0,0,0,1.625-1.392A1.188,1.188,0,0,0,321.212,242.334Z" fill="#263238"/>
          <path id="Path_11860" data-name="Path 11860" d="M324.9,240.452c-1.045,0-1.771.884-1.9,2.306s.448,2.305,1.493,2.305,1.771-.884,1.895-2.305S325.945,240.452,324.9,240.452Zm-.362,4.142c-.756,0-1.147-.687-1.046-1.836s.612-1.836,1.367-1.836,1.147.686,1.046,1.836S325.293,244.594,324.538,244.594Z" fill="#263238"/>
        </g>
        <g id="Group_9523" data-name="Group 9523">
          <path id="Path_11861" data-name="Path 11861" d="M372.86,237.653a1.766,1.766,0,0,0,1.511-.825l.039-.065-.371-.233-.044.072a1.277,1.277,0,0,1-1.1.6,1.09,1.09,0,0,1-1.122-1.237,1.341,1.341,0,0,1,1.339-1.238.985.985,0,0,1,.97.6l.029.078.407-.227-.024-.063a1.365,1.365,0,0,0-1.343-.835,1.841,1.841,0,0,0-1.847,1.688A1.5,1.5,0,0,0,372.86,237.653Z" fill="#263238"/>
          <path id="Path_11862" data-name="Path 11862" d="M376.446,237.585l1.651-3.24H377.6l-1.346,2.643-.878-2.643h-.5l1.09,3.24Z" fill="#263238"/>
          <path id="Path_11863" data-name="Path 11863" d="M381.631,234.345h-.495l-1.346,2.643-.878-2.643h-.5l1.09,3.24h.479Z" fill="#263238"/>
          <path id="Path_11864" data-name="Path 11864" d="M372.671,240.452c-1.045,0-1.772.884-1.9,2.306s.447,2.305,1.492,2.305,1.772-.884,1.9-2.305S373.716,240.452,372.671,240.452Zm-.362,4.142c-.756,0-1.147-.687-1.046-1.836s.611-1.836,1.367-1.836,1.146.686,1.046,1.836S373.064,244.594,372.309,244.594Z" fill="#263238"/>
          <path id="Path_11865" data-name="Path 11865" d="M376.823,240.452c-1.045,0-1.772.884-1.9,2.306s.447,2.305,1.492,2.305,1.772-.884,1.9-2.305S377.867,240.452,376.823,240.452Zm-.363,4.142c-.755,0-1.146-.687-1.046-1.836s.612-1.836,1.368-1.836,1.146.686,1.045,1.836S377.216,244.594,376.46,244.594Z" fill="#263238"/>
          <path id="Path_11866" data-name="Path 11866" d="M380.975,240.452c-1.045,0-1.772.884-1.9,2.306s.447,2.305,1.493,2.305,1.771-.884,1.9-2.305S382.02,240.452,380.975,240.452Zm-.362,4.142c-.756,0-1.147-.687-1.046-1.836s.611-1.836,1.367-1.836,1.146.686,1.046,1.836S381.368,244.594,380.613,244.594Z" fill="#263238"/>
        </g>
        <path id="Path_11867" data-name="Path 11867" d="M337.26,283.9a6.9,6.9,0,0,0-6.715,6.175l-.558,6.372a5.584,5.584,0,0,0,5.635,6.175h43.242a6.9,6.9,0,0,0,6.715-6.175l.558-6.372A5.584,5.584,0,0,0,380.5,283.9Z" fill="#407bff"/>
        <g id="Group_9524" data-name="Group 9524">
          <path id="Path_11868" data-name="Path 11868" d="M345.252,290.628h-1.84l-.467,5.338h.547l.173-1.977h1.293a1.833,1.833,0,0,0,1.838-1.677A1.491,1.491,0,0,0,345.252,290.628ZM345,293.464h-1.293l.2-2.312h1.293a1.007,1.007,0,0,1,1.043,1.16A1.234,1.234,0,0,1,345,293.464Z" fill="#fff"/>
          <path id="Path_11869" data-name="Path 11869" d="M350.773,292.763a1.68,1.68,0,0,0-1.451-.736,2.2,2.2,0,0,0-2.171,2.01,1.788,1.788,0,0,0,1.819,2.011,2.037,2.037,0,0,0,1.58-.736l-.058.654h.533l.337-3.858h-.532Zm-1.729,2.774a1.335,1.335,0,0,1-1.361-1.5,1.647,1.647,0,0,1,1.624-1.5,1.332,1.332,0,0,1,1.354,1.5A1.643,1.643,0,0,1,349.044,295.537Z" fill="#fff"/>
          <path id="Path_11870" data-name="Path 11870" d="M353.738,295.283l-1.163-3.175h-.57l1.4,3.849-.084.168c-.168.328-.531.873-1.1.82l-.083-.008-.044.5.07.006c.033,0,.066,0,.1,0a1.85,1.85,0,0,0,1.55-1.193l2-4.15h-.566Z" fill="#fff"/>
          <path id="Path_11871" data-name="Path 11871" d="M360.469,293.065l.171-1.959a.932.932,0,0,1,.77.672l.025.081.493-.262-.02-.063a1.437,1.437,0,0,0-1.221-.971l.06-.676h-.5l-.059.672a1.609,1.609,0,0,0-1.53,1.412c-.078.889.5,1.19,1.278,1.476l-.181,2.063a1.092,1.092,0,0,1-1.09-.808l-.021-.089-.5.271.017.06a1.577,1.577,0,0,0,1.551,1.1l-.058.664h.5l.059-.675a1.676,1.676,0,0,0,1.565-1.469C361.853,293.667,361.208,293.337,360.469,293.065Zm.751,1.5a1.033,1.033,0,0,1-.964.926l.164-1.868C360.962,293.832,361.264,294.066,361.22,294.563Zm-2.018-2.592a1.011,1.011,0,0,1,.937-.877l-.157,1.788C359.431,292.661,359.16,292.447,359.2,291.971Z" fill="#fff"/>
          <path id="Path_11872" data-name="Path 11872" d="M362.555,291.122l.095.488,1.208-.37-.413,4.727h.547l.467-5.339h-.41Z" fill="#fff"/>
          <path id="Path_11873" data-name="Path 11873" d="M367.36,293.914a3.09,3.09,0,0,0,1.15-1.8,1.394,1.394,0,0,0-1.48-1.566,1.952,1.952,0,0,0-1.728,1.006l-.036.063.442.281.044-.077a1.35,1.35,0,0,1,1.231-.741.9.9,0,0,1,.973,1.034,2.6,2.6,0,0,1-.938,1.412l-2.075,1.955-.024.023-.04.464h3.413l.046-.533h-2.59Z" fill="#fff"/>
          <path id="Path_11874" data-name="Path 11874" d="M371.412,290.546c-1.244,0-2.109,1.054-2.258,2.75s.533,2.752,1.777,2.752,2.11-1.055,2.258-2.752S372.657,290.546,371.412,290.546Zm-.434,4.969c-.917,0-1.391-.829-1.27-2.219s.741-2.218,1.658-2.218,1.39.829,1.269,2.218S371.894,295.515,370.978,295.515Z" fill="#fff"/>
        </g>
      </g>
    </g>
    <g id="Sofa">
      <g id="Group_9549" data-name="Group 9549">
        <g id="Group_9526" data-name="Group 9526">
          <path id="Path_11875" data-name="Path 11875" d="M90.881,266.017h62.276a4.957,4.957,0,0,1,4.813,4.356l9.923,94.412a3.848,3.848,0,0,1-3.9,4.355H101.719Z" fill="#407bff"/>
          <path id="Path_11876" data-name="Path 11876" d="M90.881,266.017h62.276a4.957,4.957,0,0,1,4.813,4.356l9.923,94.412a3.848,3.848,0,0,1-3.9,4.355H101.719Z" fill="#fff" opacity="0.5"/>
        </g>
        <g id="Group_9527" data-name="Group 9527">
          <path id="Path_11877" data-name="Path 11877" d="M233.944,360.537c-.315-3-8.715-82.917-9.03-85.919a9.789,9.789,0,0,0-9.505-8.6H161.868a3.849,3.849,0,0,0-3.9,4.356l9.923,94.412a4.957,4.957,0,0,0,4.813,4.355h53.541v0A7.6,7.6,0,0,0,233.944,360.537Z" fill="#407bff"/>
          <path id="Path_11878" data-name="Path 11878" d="M233.944,360.537c-.315-3-8.715-82.917-9.03-85.919a9.789,9.789,0,0,0-9.505-8.6H161.868a3.849,3.849,0,0,0-3.9,4.356l9.923,94.412a4.957,4.957,0,0,0,4.813,4.355h53.541v0A7.6,7.6,0,0,0,233.944,360.537Z" fill="#fff" opacity="0.5"/>
        </g>
        <g id="Group_9528" data-name="Group 9528">
          <path id="Path_11879" data-name="Path 11879" d="M100.385,274.618a9.787,9.787,0,0,0-9.5-8.6,7.6,7.6,0,0,0-7.7,8.6c.39,3.7,8.642,82.216,9.031,85.919a9.788,9.788,0,0,0,9.505,8.6,7.6,7.6,0,0,0,7.7-8.6C109.1,357.535,100.7,277.62,100.385,274.618Z" fill="#407bff"/>
          <path id="Path_11880" data-name="Path 11880" d="M100.385,274.618a9.787,9.787,0,0,0-9.5-8.6,7.6,7.6,0,0,0-7.7,8.6c.39,3.7,8.642,82.216,9.031,85.919a9.788,9.788,0,0,0,9.505,8.6,7.6,7.6,0,0,0,7.7-8.6C109.1,357.535,100.7,277.62,100.385,274.618Z" fill="#fff" opacity="0.4"/>
        </g>
        <g id="Group_9529" data-name="Group 9529">
          <path id="Path_11881" data-name="Path 11881" d="M136.428,305.162H79.1a17.2,17.2,0,0,0,0,34.4v63.862a4.836,4.836,0,0,0,4.836,4.836h64.86a4.836,4.836,0,0,0,4.836-4.836V322.364A17.2,17.2,0,0,0,136.428,305.162Z" fill="#407bff"/>
          <path id="Path_11882" data-name="Path 11882" d="M136.428,305.162H79.1a17.2,17.2,0,0,0,0,34.4v63.862a4.836,4.836,0,0,0,4.836,4.836h64.86a4.836,4.836,0,0,0,4.836-4.836V322.364A17.2,17.2,0,0,0,136.428,305.162Z" fill="#fff" opacity="0.3"/>
        </g>
        <g id="Group_9530" data-name="Group 9530">
          <path id="Path_11883" data-name="Path 11883" d="M246.766,305.162H304.1a17.2,17.2,0,0,1,0,34.4v63.862a4.836,4.836,0,0,1-4.836,4.836H234.4a4.836,4.836,0,0,1-4.836-4.836V322.364A17.2,17.2,0,0,1,246.766,305.162Z" fill="#407bff"/>
          <path id="Path_11884" data-name="Path 11884" d="M246.766,305.162H304.1a17.2,17.2,0,0,1,0,34.4v63.862a4.836,4.836,0,0,1-4.836,4.836H234.4a4.836,4.836,0,0,1-4.836-4.836V322.364A17.2,17.2,0,0,1,246.766,305.162Z" fill="#fff" opacity="0.3"/>
        </g>
        <g id="Group_9531" data-name="Group 9531">
          <path id="Path_11885" data-name="Path 11885" d="M136.428,305.162a17.2,17.2,0,0,0,0,34.4v63.862a4.836,4.836,0,0,0,4.835,4.836h7.531a4.836,4.836,0,0,0,4.836-4.836V322.364A17.2,17.2,0,0,0,136.428,305.162Z" fill="#407bff"/>
          <path id="Path_11886" data-name="Path 11886" d="M136.428,305.162a17.2,17.2,0,0,0,0,34.4v63.862a4.836,4.836,0,0,0,4.835,4.836h7.531a4.836,4.836,0,0,0,4.836-4.836V322.364A17.2,17.2,0,0,0,136.428,305.162Z" fill="#fff" opacity="0.6"/>
        </g>
        <g id="Group_9532" data-name="Group 9532">
          <path id="Path_11887" data-name="Path 11887" d="M304.1,305.162a17.2,17.2,0,0,1,0,34.4v63.862a4.836,4.836,0,0,1-4.836,4.836h-7.531a4.835,4.835,0,0,1-4.835-4.836V322.364A17.2,17.2,0,0,1,304.1,305.162Z" fill="#407bff"/>
          <path id="Path_11888" data-name="Path 11888" d="M304.1,305.162a17.2,17.2,0,0,1,0,34.4v63.862a4.836,4.836,0,0,1-4.836,4.836h-7.531a4.835,4.835,0,0,1-4.835-4.836V322.364A17.2,17.2,0,0,1,304.1,305.162Z" fill="#fff" opacity="0.6"/>
        </g>
        <g id="Group_9533" data-name="Group 9533">
          <rect id="Rectangle_2955" data-name="Rectangle 2955" width="122.588" height="48.59" rx="6.972" transform="translate(153.63 359.674)" fill="#407bff"/>
          <rect id="Rectangle_2956" data-name="Rectangle 2956" width="122.588" height="48.59" rx="6.972" transform="translate(153.63 359.674)" fill="#fff" opacity="0.4"/>
        </g>
        <g id="Group_9534" data-name="Group 9534">
          <rect id="Rectangle_2957" data-name="Rectangle 2957" width="18.927" height="66.632" rx="6.119" transform="translate(220.262 350.211) rotate(90)" fill="#407bff"/>
          <rect id="Rectangle_2958" data-name="Rectangle 2958" width="18.927" height="66.632" rx="6.119" transform="translate(220.262 350.211) rotate(90)" fill="#fff" opacity="0.6"/>
        </g>
        <g id="Group_9535" data-name="Group 9535">
          <rect id="Rectangle_2959" data-name="Rectangle 2959" width="18.927" height="66.632" rx="6.119" transform="translate(286.894 350.211) rotate(90)" fill="#407bff"/>
          <rect id="Rectangle_2960" data-name="Rectangle 2960" width="18.927" height="66.632" rx="6.119" transform="translate(286.894 350.211) rotate(90)" fill="#fff" opacity="0.6"/>
        </g>
        <g id="Group_9540" data-name="Group 9540">
          <g id="Group_9536" data-name="Group 9536">
            <path id="Path_11889" data-name="Path 11889" d="M160.817,302.387q.2,1.916.4,3.83c.029.284.478.287.448,0q-.2-1.914-.4-3.83c-.029-.284-.478-.287-.448,0Z" fill="#407bff"/>
          </g>
          <g id="Group_9537" data-name="Group 9537">
            <path id="Path_11890" data-name="Path 11890" d="M158.6,281.336q.924,8.791,1.849,17.584c.029.284.478.287.448,0l-1.848-17.584c-.03-.284-.479-.287-.449,0Z" fill="#407bff"/>
          </g>
          <g id="Group_9538" data-name="Group 9538" opacity="0.3">
            <path id="Path_11891" data-name="Path 11891" d="M160.817,302.387q.2,1.916.4,3.83c.029.284.478.287.448,0q-.2-1.914-.4-3.83c-.029-.284-.478-.287-.448,0Z" fill="#fff"/>
          </g>
          <g id="Group_9539" data-name="Group 9539" opacity="0.3">
            <path id="Path_11892" data-name="Path 11892" d="M158.6,281.336q.924,8.791,1.849,17.584c.029.284.478.287.448,0l-1.848-17.584c-.03-.284-.479-.287-.449,0Z" fill="#fff"/>
          </g>
        </g>
        <g id="Group_9545" data-name="Group 9545">
          <g id="Group_9541" data-name="Group 9541">
            <path id="Path_11893" data-name="Path 11893" d="M220.073,395.09v3.26a.189.189,0,0,0,.378,0v-3.26a.189.189,0,0,0-.378,0Z" fill="#407bff"/>
          </g>
          <g id="Group_9542" data-name="Group 9542">
            <path id="Path_11894" data-name="Path 11894" d="M220.073,379.134v12.429a.189.189,0,0,0,.378,0V379.134a.189.189,0,0,0-.378,0Z" fill="#407bff"/>
          </g>
          <g id="Group_9543" data-name="Group 9543" opacity="0.2">
            <path id="Path_11895" data-name="Path 11895" d="M220.073,395.09v3.26a.189.189,0,0,0,.378,0v-3.26a.189.189,0,0,0-.378,0Z" fill="#fff"/>
          </g>
          <g id="Group_9544" data-name="Group 9544" opacity="0.2">
            <path id="Path_11896" data-name="Path 11896" d="M220.073,379.134v12.429a.189.189,0,0,0,.378,0V379.134a.189.189,0,0,0-.378,0Z" fill="#fff"/>
          </g>
        </g>
        <g id="Group_9548" data-name="Group 9548">
          <g id="Group_9546" data-name="Group 9546">
            <path id="Path_11897" data-name="Path 11897" d="M119.226,322.364H61.9a17.2,17.2,0,0,0,17.2,17.2h57.33A17.2,17.2,0,0,1,119.226,322.364Z" fill="#407bff"/>
          </g>
          <g id="Group_9547" data-name="Group 9547" opacity="0.2">
            <path id="Path_11898" data-name="Path 11898" d="M119.226,322.364H61.9a17.2,17.2,0,0,0,17.2,17.2h57.33A17.2,17.2,0,0,1,119.226,322.364Z" fill="#fff"/>
          </g>
        </g>
      </g>
    </g>
    <g id="Character">
      <g id="Group_9567" data-name="Group 9567">
        <g id="Group_9550" data-name="Group 9550">
          <path id="Path_11899" data-name="Path 11899" d="M258.98,261.91l-6.633.222a.915.915,0,0,1-.96-1l1.058-14.814a1.179,1.179,0,0,1,1.109-1.074l6.633-.221a.915.915,0,0,1,.96,1l-1.058,14.814A1.177,1.177,0,0,1,258.98,261.91Z" fill="#407bff"/>
          <path id="Path_11900" data-name="Path 11900" d="M260.224,261.869l-6.633.221a.914.914,0,0,1-.96-1l1.058-14.814A1.177,1.177,0,0,1,254.8,245.2l6.633-.222a.915.915,0,0,1,.96,1L261.333,260.8A1.178,1.178,0,0,1,260.224,261.869Z" fill="#407bff"/>
          <path id="Path_11901" data-name="Path 11901" d="M252.631,261.086l1.058-14.814A1.177,1.177,0,0,1,254.8,245.2l-1.244.041a1.179,1.179,0,0,0-1.109,1.074l-1.059,14.814a.916.916,0,0,0,.961,1l1.244-.042A.914.914,0,0,1,252.631,261.086Z" fill="#407bff"/>
          <path id="Path_11902" data-name="Path 11902" d="M252.631,261.086l1.058-14.814A1.177,1.177,0,0,1,254.8,245.2l-1.244.041a1.179,1.179,0,0,0-1.109,1.074l-1.059,14.814a.916.916,0,0,0,.961,1l1.244-.042A.914.914,0,0,1,252.631,261.086Z" fill="#fff" opacity="0.5"/>
          <path id="Path_11903" data-name="Path 11903" d="M256.485,246.917a1.033,1.033,0,0,1-.972.941.8.8,0,0,1-.842-.88,1.033,1.033,0,0,1,.972-.941A.8.8,0,0,1,256.485,246.917Z" fill="#263238"/>
        </g>
        <g id="Group_9559" data-name="Group 9559">
          <g id="Group_9553" data-name="Group 9553">
            <g id="Group_9551" data-name="Group 9551">
              <path id="Path_11904" data-name="Path 11904" d="M255.5,416.413l2.985,9.645,8.861-1.638-2.471-10.737Z" fill="#fab27b"/>
              <path id="Path_11905" data-name="Path 11905" d="M257.27,422.133l9.045-2.19-.7-3.045-9.041,2.984Z" opacity="0.2"/>
            </g>
            <g id="Group_9552" data-name="Group 9552">
              <path id="Path_11906" data-name="Path 11906" d="M269.543,424.494a.259.259,0,0,1-.241-.151.246.246,0,0,1,.057-.277c.135-.126,3.19-2.978,4.991-2.913a1.289,1.289,0,0,1,.888.383.928.928,0,0,1,.264,1.039c-.289.639-1.535,1.177-2.794,1.474A18.262,18.262,0,0,1,269.543,424.494Zm.7-.506c1.939-.212,4.489-.831,4.8-1.6.049-.1.078-.256-.171-.513a.683.683,0,0,0-.55-.224,1.642,1.642,0,0,0-.473.049A11.406,11.406,0,0,0,270.243,423.988Z" fill="#407bff"/>
              <path id="Path_11907" data-name="Path 11907" d="M269.412,424.51a.245.245,0,0,1-.159-.192c-.016-.13-.391-2.924.648-4.289a1.827,1.827,0,0,1,1.238-.725c.677-.09.962.2,1.051.464.485,1.088-1.429,3.858-2.513,4.681a.138.138,0,0,1-.1.032A.227.227,0,0,1,269.412,424.51Zm1.674-4.713a1.285,1.285,0,0,0-.757.5,5.8,5.8,0,0,0-.611,3.422c1.079-1.039,2.269-3.133,2.045-3.8-.033-.057-.1-.225-.542-.159l-.135.045Z" fill="#407bff"/>
              <path id="Path_11908" data-name="Path 11908" d="M268.174,423.32l-11.052,2.612a.914.914,0,0,0-.705.9l.127,9.464a1.521,1.521,0,0,0,1.529,1.511,1.5,1.5,0,0,0,.32-.037c3.968-1.01,7.459-2.066,12.421-3.231,5.854-1.381,4.534-.33,11.439-1.858,4.159-.925,3.805-5.817,1.992-5.634-8.286.888-9.7-1.344-13.48-3.49A3.659,3.659,0,0,0,268.174,423.32Z" fill="#263238"/>
            </g>
          </g>
          <g id="Group_9556" data-name="Group 9556">
            <g id="Group_9554" data-name="Group 9554">
              <path id="Path_11909" data-name="Path 11909" d="M298.441,402.338l4.591,8.993,8.45-3.129-4.27-10.157Z" fill="#fab27b"/>
              <path id="Path_11910" data-name="Path 11910" d="M301.164,407.671l8.538-3.7-1.211-2.881-8.4,4.486Z" opacity="0.2"/>
            </g>
            <g id="Group_9555" data-name="Group 9555">
              <path id="Path_11911" data-name="Path 11911" d="M313.659,407.9a.257.257,0,0,1-.262-.107.245.245,0,0,1,.008-.283c.111-.147,2.634-3.479,4.419-3.723a1.284,1.284,0,0,1,.94.226.926.926,0,0,1,.439.977c-.176.68-1.312,1.423-2.5,1.932A18.257,18.257,0,0,1,313.659,407.9Zm.6-.617c1.874-.541,4.281-1.587,4.458-2.4.032-.1.033-.266-.256-.476a.679.679,0,0,0-.58-.127,1.663,1.663,0,0,0-.458.129A11.387,11.387,0,0,0,314.263,407.281Z" fill="#407bff"/>
              <path id="Path_11912" data-name="Path 11912" d="M313.533,407.937a.246.246,0,0,1-.189-.162c-.038-.125-.885-2.815-.1-4.337a1.828,1.828,0,0,1,1.1-.926c.651-.2.981.028,1.115.278.663.988-.749,4.045-1.676,5.041a.136.136,0,0,1-.091.049A.233.233,0,0,1,313.533,407.937Zm.844-4.93a1.284,1.284,0,0,0-.661.619,5.79,5.79,0,0,0-.017,3.476c.886-1.208,1.7-3.475,1.364-4.1-.042-.05-.139-.2-.561-.063l-.125.067Z" fill="#407bff"/>
              <path id="Path_11913" data-name="Path 11913" d="M312.11,406.977l-10.443,4.463a.914.914,0,0,0-.54,1.007l1.743,9.3a1.519,1.519,0,0,0,1.765,1.227,1.5,1.5,0,0,0,.309-.09c3.737-1.674,7-3.311,11.686-5.307,5.531-2.362,4.41-1.1,10.952-3.787,3.94-1.622,2.754-6.382,1-5.891-8.013,2.292-9.783.333-13.879-1.135A3.655,3.655,0,0,0,312.11,406.977Z" fill="#263238"/>
            </g>
          </g>
          <path id="Path_11914" data-name="Path 11914" d="M216.435,320.262s50.831-4.59,62.848,6.982S310.39,399.6,310.39,399.6l-13.5,6.033s-21.278-33.813-31.639-59.353c0,0-63.184,8.832-67.66-4.328l2.146-22.818Z" fill="#407bff"/>
          <g id="Group_9557" data-name="Group 9557">
            <path id="Path_11915" data-name="Path 11915" d="M294.346,404.341l2.047,3.232,15.613-7.448-2.041-4.34Z" fill="#407bff"/>
            <path id="Path_11916" data-name="Path 11916" d="M294.346,404.341l2.047,3.232,15.613-7.448-2.041-4.34Z" opacity="0.3"/>
          </g>
          <path id="Path_11917" data-name="Path 11917" d="M177.8,319.178s-3.3,27.181,8.4,30.995,46.6-.3,46.6-.3.068,28.177,21.17,69.786l12.47-4.359s-7.348-70.454-13.186-79.983C249.065,328.494,237.086,318.423,177.8,319.178Z" fill="#407bff"/>
          <g id="Group_9558" data-name="Group 9558">
            <path id="Path_11918" data-name="Path 11918" d="M251.96,417.965l1.431,3.9,14.939-5.541-1.126-3.777Z" fill="#407bff"/>
            <path id="Path_11919" data-name="Path 11919" d="M251.96,417.965l1.431,3.9,14.939-5.541-1.126-3.777Z" opacity="0.3"/>
          </g>
          <path id="Path_11920" data-name="Path 11920" d="M255.313,333.244c-8.717-9.6-46.89-6.807-58.166-6.866v.091c25.064,2.885,51.388.323,56.1,8.848,1.081,1.956,2.4,6.251,3.612,11.977,1.548-.167,1.929-.325,3.1-.465C258.246,339.745,258.587,336.849,255.313,333.244Z" opacity="0.1"/>
        </g>
        <g id="Group_9562" data-name="Group 9562">
          <path id="Path_11921" data-name="Path 11921" d="M211.121,254.665s6.321-.211,13.645,17.726l8.261,16.162s11.2-7.6,17.356-17.267c0,0,.925-17.043,6.947-15.712a7.555,7.555,0,0,1,5.575,10.312,88.376,88.376,0,0,1-5.672,9.156s-14.6,25.145-24.055,25.461-18.771-18.052-18.771-18.052l-2.937-17.337Z" fill="#fab27b"/>
          <path id="Path_11922" data-name="Path 11922" d="M212.322,254.347s6.588,1.4,11.738,15.392c0,0,1.934.416,1.786,3.182,0,0,3.218,11.236-5.787,19.579,0,0-1.89.111-2.662-3.032l-4.142-7.184-3.622-16.8-.206-6.144.3-5.383Z" fill="#263238"/>
          <path id="Path_11923" data-name="Path 11923" d="M212.322,254.347s6.588,1.4,11.738,15.392c0,0,1.934.416,1.786,3.182,0,0,3.218,11.236-5.787,19.579,0,0-1.89.111-2.662-3.032l-4.142-7.184-3.622-16.8-.206-6.144.3-5.383Z" fill="url(#linear-gradient)"/>
          <g id="Group_9561" data-name="Group 9561">
            <g id="Group_9560" data-name="Group 9560">
              <path id="Path_11924" data-name="Path 11924" d="M248.477,273.485a17.015,17.015,0,0,1,5.5,4.2l1.8-1.89s-1.377-3.045-6.266-3.842Z" fill="#407bff"/>
              <path id="Path_11925" data-name="Path 11925" d="M248.477,273.485a17.015,17.015,0,0,1,5.5,4.2l1.8-1.89s-1.377-3.045-6.266-3.842Z" fill="#fff" opacity="0.7"/>
            </g>
            <path id="Path_11926" data-name="Path 11926" d="M256.989,278.049c-.8,1.256-2.2,1.795-3.129,1.2s-1.026-2.089-.223-3.346,2.2-1.8,3.129-1.2S257.792,276.792,256.989,278.049Z" fill="#407bff"/>
            <path id="Path_11927" data-name="Path 11927" d="M256.614,277.809a1.616,1.616,0,1,1-.173-2.6A1.883,1.883,0,0,1,256.614,277.809Z" fill="#263238"/>
          </g>
          <path id="Path_11928" data-name="Path 11928" d="M212.275,277.735l.981,4.549,4.141,7.184c.773,3.143,2.662,3.032,2.662,3.032a19.647,19.647,0,0,0,4.069-5.27C221,282.076,215.264,279.037,212.275,277.735Z" opacity="0.3"/>
        </g>
        <path id="Path_11929" data-name="Path 11929" d="M216.011,257.068c-1.355-1.844-4.158-3.832-8.37-5.306l-2.549,6.341-4.084,1.567-3.25-.9-2.889-1.4-3.277-4.894-.439-2.9a76.729,76.729,0,0,0-12.134,1.349c-21.33,4.036-3.155,70.563-3.155,70.563,34.385,6.7,47.928-2.589,47.928-2.589C219.258,306.408,219.4,261.68,216.011,257.068Z" fill="url(#linear-gradient)"/>
        <path id="Path_11930" data-name="Path 11930" d="M180.958,260.448,169.347,264.7a71.02,71.02,0,0,0-.594,14.28C184.51,276.382,180.958,260.448,180.958,260.448Z" opacity="0.3"/>
        <g id="Group_9565" data-name="Group 9565">
          <path id="Path_11931" data-name="Path 11931" d="M216.806,214.485s3.58,2.709,2.529,5.465c0,0,2.319,5.992-2.332,5.792C217,225.742,211.869,221.463,216.806,214.485Z" fill="#263238"/>
          <path id="Path_11932" data-name="Path 11932" d="M202.441,258.613l2.9-2.936,2.207-3.96c-.7-.244-1.444-.474-2.227-.686l.661-9.442-11.044-6.46s.352,11.992-2.336,14.415c-.561.506-.535,0-1.327.024l1.3,4.958,4.133,5.144Z" fill="#fab27b"/>
          <g id="Group_9563" data-name="Group 9563">
            <path id="Path_11933" data-name="Path 11933" d="M191.976,249.265s3.07,7.7,7.875,9.34c0,0-2.413,6.923-5.986,3.081s-3.978-12.351-3.978-12.351Z" fill="#407bff"/>
            <path id="Path_11934" data-name="Path 11934" d="M191.976,249.265s3.07,7.7,7.875,9.34c0,0-2.413,6.923-5.986,3.081s-3.978-12.351-3.978-12.351Z" fill="#fff" opacity="0.7"/>
          </g>
          <g id="Group_9564" data-name="Group 9564">
            <path id="Path_11935" data-name="Path 11935" d="M198.853,259s5.362-1.089,7.5-7.847l2.392,1s-.936,10.6-4.709,10.426A6.136,6.136,0,0,1,198.853,259Z" fill="#407bff"/>
            <path id="Path_11936" data-name="Path 11936" d="M198.853,259s5.362-1.089,7.5-7.847l2.392,1s-.936,10.6-4.709,10.426A6.136,6.136,0,0,1,198.853,259Z" fill="#fff" opacity="0.7"/>
          </g>
          <path id="Path_11937" data-name="Path 11937" d="M194.865,235.946s.247,8.614,10.7,11.579l.345-4.926-11.049-6.653Z" opacity="0.2"/>
          <path id="Path_11938" data-name="Path 11938" d="M218.219,226.391c1.161,9.784-1.5,18.143-9.6,19.1s-14.5-5.32-15.663-15.1,1.38-19.131,9.48-20.092S217.058,216.608,218.219,226.391Z" fill="#fab27b"/>
          <path id="Path_11939" data-name="Path 11939" d="M194.983,229.15a18.033,18.033,0,0,0,2.785-9.272s3.213-.381,4.012-2.105c0,0,10.024,4.2,14.445.792,0,0,9-2.823,2.518-7.819,0,0,1.291-3.913-4.132-5.777s-8.594-.358-8.594-.358-4.538-3.1-9.645,1.4c0,0-9.037.948-7.547,7.163,0,0-4.965,1.467-3.033,6.125a5.047,5.047,0,0,0,.53,6.444s.015,7.655,4.938,7.948C191.26,233.686,195.783,241.157,194.983,229.15Z" fill="#263238"/>
          <path id="Path_11940" data-name="Path 11940" d="M196.228,228.911c1.149,1.812,1.03,3.948-.267,4.77s-3.279.019-4.428-1.793-1.029-3.947.267-4.769S195.079,227.1,196.228,228.911Z" fill="#fab27b"/>
          <path id="Path_11941" data-name="Path 11941" d="M189.985,208.2c.266-.217-.018-.676-.288-.457-1.522,1.236-2.34,2.946-1.8,4.5a3.521,3.521,0,0,0-3.529.056c-.286.2,0,.653.288.456a2.926,2.926,0,0,1,2.873-.092c-1.306.117-2.491,1.436-3.154,2.751-.156.311.319.568.475.257.777-1.543,2.354-3.251,3.937-2.066a4.8,4.8,0,0,0,.378.333.27.27,0,0,0,.369-.394,3.679,3.679,0,0,0-.4-.364C187.59,211.593,188.3,209.565,189.985,208.2Z" fill="#263238"/>
          <path id="Path_11942" data-name="Path 11942" d="M207.524,229.2c.1.63.53,1.089.94,1s.66-.611.56-1.241-.53-1.1-.95-1S207.414,228.573,207.524,229.2Z" fill="#263238"/>
          <path id="Path_11943" data-name="Path 11943" d="M214.694,229.243c.1.63.52,1.09.94,1s.66-.611.56-1.25-.53-1.09-.95-1S214.584,228.6,214.694,229.243Z" fill="#263238"/>
          <path id="Path_11944" data-name="Path 11944" d="M212.464,229.863a24.171,24.171,0,0,0,3.94,5,3.7,3.7,0,0,1-2.93,1Z" fill="#ed893e"/>
          <path id="Path_11945" data-name="Path 11945" d="M211.174,238.872a5.453,5.453,0,0,1-4-1.59.187.187,0,0,1,.268-.261h0a5.223,5.223,0,0,0,4.43,1.411.19.19,0,1,1,.05.369A4.722,4.722,0,0,1,211.174,238.872Z" fill="#263238"/>
          <path id="Path_11946" data-name="Path 11946" d="M206.056,226.228a.32.32,0,0,1-.074-.6l.013-.009a3.64,3.64,0,0,1,3.394-.462.37.37,0,0,1,.193.486l0,.011a.371.371,0,0,1-.486.194l-.011-.005a2.9,2.9,0,0,0-2.644.351A.35.35,0,0,1,206.056,226.228Z" fill="#263238"/>
          <path id="Path_11947" data-name="Path 11947" d="M217.147,226.066a.362.362,0,0,0,.15-.1.37.37,0,0,0-.133-.506l-.014-.007a3.638,3.638,0,0,0-3.422-.137.37.37,0,0,0-.147.5l.006.01a.37.37,0,0,0,.5.147l.011-.006a2.9,2.9,0,0,1,2.665.1A.348.348,0,0,0,217.147,226.066Z" fill="#263238"/>
        </g>
        <g id="Group_9566" data-name="Group 9566">
          <path id="Path_11948" data-name="Path 11948" d="M177.879,252.8s-28.413-2.53-46.591,6.69c0,0-2.926,5.828.352,10.52S146.034,293.5,146.034,293.5l1.528,9s-.707,5.362,1.993,7.142,9.453-1.561,9.849-4.455-5.792-14.819-5.792-14.819-6.568-19.188-9.119-23.666c0,0,25.052,2.518,33.845-.174C178.338,266.526,183.226,261.921,177.879,252.8Z" fill="#fab27b"/>
          <path id="Path_11949" data-name="Path 11949" d="M178.2,251.706s-8.4-.89-14.047-.071c0,0-1.029-1.148-3.4.648a31.491,31.491,0,0,1-.2,15.588,5.154,5.154,0,0,0,3.664.237s10.3,2.972,15.151-.287C182.725,265.569,186.4,259.895,178.2,251.706Z" fill="url(#linear-gradient)"/>
        </g>
      </g>
    </g>
  </g>
</svg>
