<svg xmlns="http://www.w3.org/2000/svg" width="347.404" height="298.684" viewBox="0 0 347.404 298.684">
  <g id="Group_9599" data-name="Group 9599" transform="translate(-173.687 -164.065)">
    <g id="Group_9597" data-name="Group 9597" transform="translate(136.667 164.065)">
      <g id="Group_9596" data-name="Group 9596" transform="translate(0)">
        <rect id="Rectangle_2969" data-name="Rectangle 2969" width="229.028" height="298.684" transform="translate(151.758)" fill="#9abcef"/>
        <rect id="Rectangle_2970" data-name="Rectangle 2970" width="225.178" height="298.684" transform="translate(159.246)" fill="#e9f3fe"/>
        <g id="Group_9586" data-name="Group 9586" transform="translate(188.478 63.271)">
          <path id="Rectangle_2971" data-name="Rectangle 2971" d="M2.8,0H121.073a2.8,2.8,0,0,1,2.8,2.8v0a2.8,2.8,0,0,1-2.8,2.8H2.8A2.8,2.8,0,0,1,0,2.8v0A2.8,2.8,0,0,1,2.8,0Z" transform="translate(14.82)" fill="#bbd5fc"/>
          <rect id="Rectangle_2972" data-name="Rectangle 2972" width="77.186" height="5.602" rx="2.801" transform="translate(14.82 9.424)" fill="#bbd5fc"/>
          <g id="Group_9585" data-name="Group 9585" transform="translate(0 0)">
            <path id="Path_11974" data-name="Path 11974" d="M1079.2,867.05V855.609h-1.51q-1.374,0-1.373-1.144,0-.824,1.076-1.167a7.966,7.966,0,0,1,1.75-.275q1.2-.091,1.933-.091.71,0,.893.286a3.411,3.411,0,0,1,.183,1.453v12.38h1.556q1.51,0,1.51,1.3,0,1.373-1.51,1.373h-6.27a1.726,1.726,0,0,1-1.11-.355,1.2,1.2,0,0,1-.446-1q0-1.327,1.533-1.327Z" transform="translate(-1075.886 -852.932)" fill="#bbd5fc"/>
          </g>
        </g>
        <g id="Group_9588" data-name="Group 9588" transform="translate(188.384 122.261)">
          <rect id="Rectangle_2973" data-name="Rectangle 2973" width="123.874" height="5.601" rx="2.801" transform="translate(14.914 0)" fill="#d2e4fd"/>
          <path id="Rectangle_2974" data-name="Rectangle 2974" d="M2.8,0H74.385a2.8,2.8,0,0,1,2.8,2.8v0a2.8,2.8,0,0,1-2.8,2.8H2.8A2.8,2.8,0,0,1,0,2.8v0A2.8,2.8,0,0,1,2.8,0Z" transform="translate(14.914 9.424)" fill="#d2e4fd"/>
          <g id="Group_9587" data-name="Group 9587">
            <path id="Path_11975" data-name="Path 11975" d="M1085.23,1069.461q0,1.144-1.6,1.143H1077q-1.436,0-1.436-1.153a1.456,1.456,0,0,1,.385-.849q.565-.647,1.658-1.941,1.658-2.083,2.771-3.6.384-.505,1.092-1.537a3.714,3.714,0,0,0,.586-1.739,1.788,1.788,0,0,0-.506-1.3,1.733,1.733,0,0,0-1.294-.516,1.985,1.985,0,0,0-1.335.485,2.308,2.308,0,0,0-.607,1.213q-.283,1.153-.364,1.335a1.026,1.026,0,0,1-.991.647,1.135,1.135,0,0,1-.951-.445,1.517,1.517,0,0,1-.323-1.011,4.889,4.889,0,0,1,.222-1.436,4.314,4.314,0,0,1,1.719-2.386,4.989,4.989,0,0,1,2.851-.789,4.416,4.416,0,0,1,3.074,1.114,3.9,3.9,0,0,1,1.274,3,5.225,5.225,0,0,1-.91,2.8q-.505.79-2.083,2.8-.809,1.033-2.548,3h4.368Q1085.229,1068.279,1085.23,1069.461Z" transform="translate(-1075.563 -1055.579)" fill="#d2e4fd"/>
          </g>
        </g>
        <g id="Group_9590" data-name="Group 9590" transform="translate(188.128 170.846)">
          <path id="Rectangle_2975" data-name="Rectangle 2975" d="M2.8,0H121.073a2.8,2.8,0,0,1,2.8,2.8v0a2.8,2.8,0,0,1-2.8,2.8H2.8A2.8,2.8,0,0,1,0,2.8v0A2.8,2.8,0,0,1,2.8,0Z" transform="translate(15.169 0.622)" fill="#d2e4fd"/>
          <path id="Rectangle_2976" data-name="Rectangle 2976" d="M2.8,0H74.385a2.8,2.8,0,0,1,2.8,2.8v0a2.8,2.8,0,0,1-2.8,2.8H2.8A2.8,2.8,0,0,1,0,2.8v0A2.8,2.8,0,0,1,2.8,0Z" transform="translate(15.169 10.047)" fill="#d2e4fd"/>
          <g id="Group_9589" data-name="Group 9589" transform="translate(0)">
            <path id="Path_11976" data-name="Path 11976" d="M1084.607,1233.44a4.336,4.336,0,0,1-1.509,3.452,5.317,5.317,0,0,1-3.618,1.24,5.063,5.063,0,0,1-2.893-.806,3.684,3.684,0,0,1-1.9-3.08,1.3,1.3,0,0,1,.33-.889,1.083,1.083,0,0,1,.848-.372,1.3,1.3,0,0,1,1.013.724q.764,1.2.889,1.323a2.306,2.306,0,0,0,1.757.723,2.194,2.194,0,0,0,2.067-1.075,2.857,2.857,0,0,0,.289-1.364q0-2.025-2.377-2.253-1.344-.124-1.343-1.137a1.08,1.08,0,0,1,.78-1.054q1.458-.538,1.478-.558a2,2,0,0,0,.781-1.8,1.618,1.618,0,0,0-.453-1.209,1.662,1.662,0,0,0-1.215-.445,2.223,2.223,0,0,0-1.483.454,2.978,2.978,0,0,0-.762,1.344.942.942,0,0,1-.948.724.972.972,0,0,1-.814-.434,1.571,1.571,0,0,1-.32-.951,2.643,2.643,0,0,1,.352-1.282,3.962,3.962,0,0,1,1.778-1.674,5.205,5.205,0,0,1,2.4-.558,4.179,4.179,0,0,1,2.925,1.065,3.611,3.611,0,0,1,1.168,2.8,3.837,3.837,0,0,1-1.736,3.307A3.747,3.747,0,0,1,1084.607,1233.44Z" transform="translate(-1074.685 -1222.485)" fill="#d2e4fd"/>
          </g>
        </g>
        <g id="Group_9591" data-name="Group 9591" transform="translate(214.404 13.331)">
          <path id="Rectangle_2977" data-name="Rectangle 2977" d="M3.254,0H75.768a3.253,3.253,0,0,1,3.253,3.253v0a3.253,3.253,0,0,1-3.253,3.253H3.253A3.253,3.253,0,0,1,0,3.254v0A3.254,3.254,0,0,1,3.254,0Z" transform="translate(19.923)" fill="#bbd5fc"/>
          <path id="Rectangle_2978" data-name="Rectangle 2978" d="M3.253,0H115.613a3.253,3.253,0,0,1,3.253,3.253v0a3.253,3.253,0,0,1-3.253,3.253H3.254A3.254,3.254,0,0,1,0,3.253v0A3.253,3.253,0,0,1,3.253,0Z" transform="translate(0 10.033)" fill="#bbd5fc"/>
        </g>
        <g id="Group_9595" data-name="Group 9595" transform="translate(37.019 27.632)">
          <path id="Path_11978" data-name="Path 11978" d="M1816.889,1169.56s.807,7.853,1.694,9.338,4.66,6.232,6.267,7.163-.982-6.254-.654-7.652,1.323,2.551,2.031,2.645.526-3.463.552-4.756-3.447-4.487-4.672-7.242S1816.889,1169.56,1816.889,1169.56Z" transform="translate(-1794.915 -1040.61)" fill="#ffb27d"/>
          <path id="Path_11979" data-name="Path 11979" d="M1474.219,891.562l1.8-3.405s-.9-6.068,6.708-9.907c0,0,2.779-1.131,4.347,1.135,1.445,2.088-2.753,1.71-2.528,5.282a6.567,6.567,0,0,1-3.83,6.83l-1.95,2.259Z" transform="translate(-1355.765 -835.04)" fill="#ffb27d"/>
          <path id="Path_11980" data-name="Path 11980" d="M1494.346,893.84s6.53,32.048,42.461,42.518c11.216,3.269,36.7-33.659,36.7-33.659s-.9-3.4-6.508-2.622c0,0-24.811,16.426-27.935,18.21-2.772,1.583-21-20.353-29.309-23.892A21.208,21.208,0,0,0,1494.346,893.84Z" transform="translate(-1447.747 -845.459)" fill="#e58638"/>
          <g id="Group_9593" data-name="Group 9593" transform="translate(105.277 42.078)">
            <rect id="Rectangle_2979" data-name="Rectangle 2979" width="6.711" height="33.759" transform="translate(4.586 11.759) rotate(-98.732)" fill="#c65447"/>
            <path id="Path_11981" data-name="Path 11981" d="M1417.69,877.176l-7.248,4.508-1.019-6.633Z" transform="translate(-1372.488 -875.051)" fill="#ffb27d"/>
            <path id="Path_11982" data-name="Path 11982" d="M1548.977,895.453l.321,2.1a2.363,2.363,0,0,0,2.695,1.977l1.543-.237-1.019-6.634-1.679.258A2.226,2.226,0,0,0,1548.977,895.453Z" transform="translate(-1548.951 -887.532)" fill="#ffb27d"/>
          </g>
          <g id="Group_9594" data-name="Group 9594" transform="translate(0 120.917)">
            <path id="Path_11983" data-name="Path 11983" d="M1861.875,1584.093s-4.458,4.068-3.588,6.958,4.892,4.817,5.436,8.35,2.718,5.46,4.675,5.46h9.33s1.44-2.486-2.039-3.235-4.791-4.9-4.573-8.755a67.946,67.946,0,0,0-.326-8.992l-7.393-1.713Z" transform="translate(-1858.175 -1455.167)" fill="#233862"/>
            <path id="Path_11984" data-name="Path 11984" d="M1635.937,1616.2s-.8,9.258,1.157,10.221l25.045-.051s0-2.89-4.023-3.533-11.09-3-12.285-8.243S1635.937,1616.2,1635.937,1616.2Z" transform="translate(-1577.55 -1476.756)" fill="#233862"/>
            <path id="Path_11985" data-name="Path 11985" d="M1690.056,1170.2s-1.321,16.228-2.874,35.735c-2.11,26.5-4.647,59.048-4.9,65.214-.434,10.707-2.176,27.835-2.176,27.835s-4.129,4.069-12.394,2.354c0,0-7.365-24.45-9.469-50.319-.033-.424-.065-.851-.1-1.279-1.957-26.335-5-81.789-5-81.789Z" transform="translate(-1610.524 -1161.527)" fill="#2b478b"/>
            <path id="Path_11986" data-name="Path 11986" d="M1690.056,1170.2s-1.321,16.228-2.874,35.735l-28.937,45.084c-.033-.424-.065-.851-.1-1.279-1.957-26.335-5-81.789-5-81.789Z" transform="translate(-1610.524 -1161.527)" fill="#233862"/>
            <path id="Path_11987" data-name="Path 11987" d="M1743.669,1156.483s-23.81,58.772-39.466,86.392-20.549,35.328-20.549,35.328-8.969-3.533-9.784-5.942c0,0,5.986-53.321,16.471-66.319,5.924-7.345,12.883-29.386,13.209-37.094s2.12-22.963,2.12-22.963Z" transform="translate(-1670.17 -1145.885)" fill="#2b478b"/>
          </g>
          <path id="Path_11988" data-name="Path 11988" d="M1694.24,823.612s16.11,7.773,25.4,4.889a21.923,21.923,0,0,0-6.287-5.029c.322-1.864.571-3.482.715-4.854a44.892,44.892,0,0,0,.392-4.959l-6.215-4.889-5.894-4.678C1702.813,817.245,1694.24,823.612,1694.24,823.612Z" transform="translate(-1652.068 -782.669)" fill="#ffb27d"/>
          <path id="Path_11989" data-name="Path 11989" d="M1648.549,945.236c-.036.984,2.072,2.11,3,2.532,6.894,3.025,13.324,5.135,20.611,5.839,8.609.879,18.789-1.056,22.29-.985a1.458,1.458,0,0,0,.965-.387c.25-.177.429-10.552.25-23.6,0-.528,0-1.055-.036-1.583v-.176c-.072-5.1-.25-10.446-.5-15.793-.5-11.748-1.429-23.073-3-29.334-1.893-7.386-6.18-12.275-10.073-15.828l-3.215-2.814a15.443,15.443,0,0,1-10-1.2c-3.715-1.794-7.716-3.729-8.359-3.237-4.858,3.553-8.144,11.537-9.894,21.737a113.043,113.043,0,0,0-1.465,19.345c0,2.533.072,5.135.214,7.7a242.858,242.858,0,0,1-.5,33.027C1648.691,942.528,1648.584,944.11,1648.549,945.236Z" transform="translate(-1614.866 -821.309)" fill="#ee9849"/>
          <path id="Path_11990" data-name="Path 11990" d="M1713.185,997.722c56.413-.112,10.405-61.215,10.405-61.215l-9.14-2.968a177.578,177.578,0,0,0-1.059,20.668c0,2.706.052,5.487.155,8.229C1714.166,977.317,1713.547,990.244,1713.185,997.722Z" transform="translate(-1679.217 -874.435)" fill="#e58638"/>
          <path id="Path_11991" data-name="Path 11991" d="M1712.034,820.513s4.072,7.421,11.824,9.5a44.853,44.853,0,0,0,.393-4.96l-6.215-4.889Z" transform="translate(-1661.86 -794.061)" fill="#ed985f"/>
          <path id="Path_11992" data-name="Path 11992" d="M1710.379,775.251s-15.369,2.514-16.812-6.934-4.4-15.487,5.354-17.491,12.213,1.317,13.473,4.355S1714.339,774.354,1710.379,775.251Z" transform="translate(-1645.154 -744.477)" fill="#ffb27d"/>
          <path id="Path_11993" data-name="Path 11993" d="M1676.111,735.717c-.14-.16-.461-.289-1.177-.328a2.9,2.9,0,0,1,1.337-.377c.15-1,.68-2.759,2.394-3.187a2.147,2.147,0,0,0-1.041,1.55c1.985-2.039,6.238-3.523,18.017-2.593,15.522,1.225,10.406,11.163,8.4,12.348s-7.068-2.063-10.812-1.766-4.456,5.708-5.727,6.45-.771-.57-2.489-1.347-1.882,2.071-1.386,3.923-1.865,4.294-1.865,4.294l-2.386-2.57c-2.386-2.57-4.635-13.455-3.551-15.775C1675.919,736.133,1676.013,735.926,1676.111,735.717Z" transform="translate(-1633.283 -730.499)" fill="#2c3a64"/>
          <path id="Path_11994" data-name="Path 11994" d="M1774.517,858.6s-9.724,4.6-14.386,11.683c-7.232,10.98-15.615,51-15.769,54.7s6.118,29.868,6.118,29.868,6.362-.419,8-3.63c0,0-1.271-26.881-.466-28.609s26.525-36.058,23.633-43.384S1774.517,858.6,1774.517,858.6Z" transform="translate(-1728.897 -821.309)" fill="#ee9849"/>
          <path id="Path_11995" data-name="Path 11995" d="M1496.922,897.3s-.528-2.089.92-3.027,2.782-3.492,3.393-3.146c1.265.716-.693,2.945-.334,5.723C1501.027,897.825,1498.761,900.375,1496.922,897.3Z" transform="translate(-1376.631 -844.347)" fill="#ffb27d"/>
        </g>
        <path id="Path_12000" data-name="Path 12000" d="M1232.318,1430.3H1093.852a1.69,1.69,0,0,1-1.685-1.685h0a1.69,1.69,0,0,1,1.685-1.685h138.466a1.69,1.69,0,0,1,1.685,1.685h0A1.69,1.69,0,0,1,1232.318,1430.3Z" transform="translate(-898.95 -1196.568)" fill="#d2e4fd"/>
        <path id="Path_12001" data-name="Path 12001" d="M1232.318,1453.466H1093.852a1.69,1.69,0,0,1-1.685-1.685h0a1.69,1.69,0,0,1,1.685-1.685h138.466a1.69,1.69,0,0,1,1.685,1.685h0A1.69,1.69,0,0,1,1232.318,1453.466Z" transform="translate(-898.95 -1212.993)" fill="#d2e4fd"/>
        <path id="Path_12002" data-name="Path 12002" d="M1232.318,1479.142H1093.852a1.69,1.69,0,0,1-1.685-1.685h0a1.69,1.69,0,0,1,1.685-1.685h138.466a1.69,1.69,0,0,1,1.685,1.685h0A1.69,1.69,0,0,1,1232.318,1479.142Z" transform="translate(-898.95 -1231.195)" fill="#d2e4fd"/>
        <path id="Rectangle_2980" data-name="Rectangle 2980" d="M1.685,0H121.861a1.685,1.685,0,0,1,1.685,1.685v0a1.685,1.685,0,0,1-1.685,1.685H1.685A1.685,1.685,0,0,1,0,1.685v0A1.685,1.685,0,0,1,1.685,0Z" transform="translate(193.217 252.051)" fill="#d2e4fd"/>
      </g>
    </g>
  </g>
</svg>
