<svg xmlns="http://www.w3.org/2000/svg" width="60" height="45.405" viewBox="0 0 60 45.405">
  <path id="quote2" d="M412.615,32.329a9.117,9.117,0,0,0,2.1,3.454,10.347,10.347,0,0,0,4.073,2.543,19.562,19.562,0,0,0,6.514.911h3.618a19.67,19.67,0,0,1-4.761,11.376,35.591,35.591,0,0,1-11.392,8.23l2.945,4.563A44.365,44.365,0,0,0,432.121,51.44q6.813-7.9,6.8-15.657,0-8.338-3.957-13.067T423.611,18a11.767,11.767,0,0,0-8.149,3.126,9.563,9.563,0,0,0-3.462,7.3,12.489,12.489,0,0,0,.615,3.9m33.075,0a9.145,9.145,0,0,0,2.107,3.454,10.312,10.312,0,0,0,4.074,2.543,19.53,19.53,0,0,0,6.512.911H462a19.689,19.689,0,0,1-4.759,11.376,35.653,35.653,0,0,1-11.393,8.23l2.943,4.563A44.364,44.364,0,0,0,465.2,51.44q6.813-7.9,6.8-15.657c0-5.559-1.309-9.919-3.955-13.067S461.615,18,456.687,18a11.774,11.774,0,0,0-8.15,3.126,9.562,9.562,0,0,0-3.461,7.3,12.627,12.627,0,0,0,.613,3.9" transform="translate(-412 -18.001)" fill="#5f63f2" fill-rule="evenodd" opacity="0.2"/>
</svg>
