<svg xmlns="http://www.w3.org/2000/svg" width="20.063" height="11.899" viewBox="0 0 20.063 11.899">
  <g id="send" transform="translate(-8.011 -11.167)">
    <path id="Path_1015" data-name="Path 1015" d="M26.948,11.735a1.4,1.4,0,0,0-1.111-.568H13.76A1.5,1.5,0,0,0,12.326,12.5l-1.337,8.7a1.71,1.71,0,0,0,.323,1.3,1.4,1.4,0,0,0,1.111.568H24.5a1.5,1.5,0,0,0,1.434-1.335l1.337-8.7a1.71,1.71,0,0,0-.323-1.3Zm-1.783,3.6-5.279,2.407a1.63,1.63,0,0,1-.715.155,1.662,1.662,0,0,1-.823-.21l-4.8-2.6.216-1.41,5.13,2.783a.594.594,0,0,0,.515.018l6-2.737ZM27,14.325l.066-.457A.661.661,0,0,1,27,14.325Z" transform="translate(0.783)" fill="#fa8b0c"/>
    <g id="Group_1108" data-name="Group 1108" transform="translate(8.011 12.009)" opacity="0.5">
      <path id="Path_1016" data-name="Path 1016" d="M11.384,13.52H8.855a.844.844,0,1,1,0-1.687h2.529a.844.844,0,1,1,0,1.687Z" transform="translate(-8.011 -11.833)" fill="#fa8b0c"/>
      <path id="Path_1017" data-name="Path 1017" d="M10.54,16.186H8.855a.843.843,0,1,1,0-1.686H10.54a.843.843,0,1,1,0,1.686Z" transform="translate(-8.011 -11.127)" fill="#fa8b0c"/>
      <path id="Path_1018" data-name="Path 1018" d="M9.7,18.853H8.855a.844.844,0,1,1,0-1.687H9.7a.844.844,0,0,1,0,1.687Z" transform="translate(-8.011 -10.421)" fill="#fa8b0c"/>
    </g>
  </g>
</svg>
