<svg xmlns="http://www.w3.org/2000/svg" width="25" height="23.96" viewBox="0 0 25 23.96">
  <g id="paper-plane" transform="translate(-8.001 -7.833)">
    <path id="Path_963" data-name="Path 963" d="M13.833,19.575v4.832a.781.781,0,0,0,.538.742.772.772,0,0,0,.244.039.785.785,0,0,0,.63-.319l2.825-3.847Z" transform="translate(3.281 6.606)" fill="#20c997" opacity="0.5"/>
    <path id="Path_964" data-name="Path 964" d="M32.673,7.978a.781.781,0,0,0-.814-.056L8.42,20.162a.782.782,0,0,0,.109,1.433l6.516,2.227L28.921,11.957,18.183,24.893,29.1,28.625A.78.78,0,0,0,30.128,28L32.992,8.728A.779.779,0,0,0,32.673,7.978Z" transform="translate(0 0)" fill="#20c997"/>
  </g>
</svg>
