<svg xmlns="http://www.w3.org/2000/svg" xmlns:xlink="http://www.w3.org/1999/xlink" width="400" height="359.791" viewBox="0 0 400 359.791">
  <defs>
    <linearGradient id="linear-gradient" x1="0.5" x2="0.5" y2="1" gradientUnits="objectBoundingBox">
      <stop offset="0" stop-color="#ff5096"/>
      <stop offset="1" stop-color="#fb9f00"/>
    </linearGradient>
    <linearGradient id="linear-gradient-2" x1="0.5" x2="0.5" y2="1" gradientUnits="objectBoundingBox">
      <stop offset="0" stop-color="#5f63f2"/>
      <stop offset="1" stop-color="#ff69a5"/>
    </linearGradient>
    <linearGradient id="linear-gradient-3" x1="0.5" x2="0.5" y2="1" gradientUnits="objectBoundingBox">
      <stop offset="0" stop-color="#ff69a5"/>
      <stop offset="1" stop-color="#fa8b0c"/>
    </linearGradient>
  </defs>
  <g id="Illustration" transform="translate(-272.318 -62.067)">
    <g id="Group_1674" data-name="Group 1674" transform="translate(272.318 94.169)">
      <path id="Path_1011" data-name="Path 1011" d="M418.437,137.13l-59.2,34.731c-15.008-4.606-34.13-3.182-46.748,4.222-15.352,9.007-15.251,23.437.226,32.229a47.226,47.226,0,0,0,11.645,4.567,62.117,62.117,0,0,0,9.255,1.6c12.311,1.2,25.451-1,34.923-6.554,11.473-6.732,14.312-16.489,8.556-24.661l8.168-4.792-.231-5.186,8.6-.06-.217-4.856,8.6-.06-.217-4.857,8.6-.06-.217-4.856,8.6-.06-.216-4.857,9.177-.065,2.8-1.642,3.09-12.751Zm-83.3,66.455a16.065,16.065,0,0,1-14.533.1c-4.029-2.289-4.056-6.046-.059-8.39a16.065,16.065,0,0,1,14.533-.1C339.106,197.484,339.132,201.24,335.136,203.585Z" transform="translate(-282.977 -75.321)" fill="#6563d1" opacity="0.1"/>
      <path id="Path_1012" data-name="Path 1012" d="M456.322,359.336,361.8,304.986c-6.364-3.674-5.566-10.093,1.783-14.335l91.744-52.968c7.349-4.243,18.466-4.7,24.83-1.029L574.678,291c6.364,3.674,5.566,10.092-1.782,14.335l-91.745,52.968C473.8,362.55,462.686,363.01,456.322,359.336Z" transform="translate(-236.289 -39.186)" fill="#a071ff" opacity="0.1"/>
      <g id="Group_1649" data-name="Group 1649" transform="translate(94.958 96.636)">
        <g id="Group_1647" data-name="Group 1647" transform="translate(131.334)">
          <path id="Path_1013" data-name="Path 1013" d="M537.617,263.748l-16.343-9.435,60.255-34.788c2.846-1.644,2.846-4.317,0-5.96l-61.555-35.539a11.419,11.419,0,0,0-10.322,0L449.4,212.815l-16.342-9.435,60.255-34.788c11.856-6.845,31.15-6.845,43.006,0l61.555,35.539c11.856,6.845,11.856,17.984,0,24.83Z" transform="translate(-433.054 -163.457)" fill="#824eff"/>
        </g>
        <g id="Group_1648" data-name="Group 1648" transform="translate(0 17.329)">
          <path id="Path_1014" data-name="Path 1014" d="M599.992,263.033c0-8.737-5.311-18.886-11.865-22.67L478.958,177.334c-2.935-1.694-5.616-1.814-7.687-.656l-.006,0L340.918,252.419,466.968,347.4l128.417-74.534a5.945,5.945,0,0,0,1.135-.658h0C598.665,270.584,599.992,267.4,599.992,263.033Z" transform="translate(-337.726 -175.917)" fill="#a071ff"/>
          <path id="Path_1015" data-name="Path 1015" d="M436.2,326.471,564.62,251.937a5.947,5.947,0,0,0,1.135-.658h0c2.143-1.624,3.47-4.811,3.47-9.175a29.106,29.106,0,0,0-3.2-12.626L419.644,313.993Z" transform="translate(-306.961 -154.986)" fill="#6539d1"/>
          <path id="Path_1016" data-name="Path 1016" d="M459.657,325.975l-109.17-63.029c-6.552-3.783-11.864-13.933-11.864-22.669h0c0-8.737,5.311-12.752,11.864-8.969l109.17,63.029c6.552,3.783,11.864,13.931,11.864,22.669h0C471.52,325.743,466.209,329.758,459.657,325.975Z" transform="translate(-338.623 -154.827)" fill="#824eff"/>
        </g>
        <path id="Path_1017" data-name="Path 1017" d="M418.244,287.67,405.119,280.1a5.663,5.663,0,0,1-2.366-4.519h0c0-1.741,1.06-2.541,2.366-1.787l13.125,7.572a5.664,5.664,0,0,1,2.364,4.519h0C420.608,287.624,419.55,288.424,418.244,287.67Z" transform="translate(-313.561 -120.45)" fill="#fff"/>
      </g>
      <g id="Group_1673" data-name="Group 1673" transform="translate(0 0)">
        <g id="Group_1672" data-name="Group 1672">
          <path id="Path_1018" data-name="Path 1018" d="M343.029,130.768l18.943,10.761,19.33-11.341-.051-4.933-.165.1L381.07,125l8.6-.06-.051-4.857,8.43-.059L398,115.169l8.43-.059-.051-4.858,8.43-.059-.05-4.858,9.012-.063,2.8-1.643,3.09-12.751-.051-4.933-1.491,4.727-13.642-1.822Z" transform="translate(-275.646 -83.917)" fill="#6539d1"/>
          <g id="Group_1671" data-name="Group 1671">
            <g id="Group_1670" data-name="Group 1670">
              <g id="Group_1665" data-name="Group 1665" transform="translate(21.383)">
                <g id="Group_1651" data-name="Group 1651" transform="translate(45.949)">
                  <g id="Group_1650" data-name="Group 1650">
                    <path id="Path_1019" data-name="Path 1019" d="M361.929,136.9l19.329-11.341-.232-5.185,8.6-.06-.217-4.856,8.6-.06-.217-4.856,8.6-.06-.217-4.856,8.6-.06-.217-4.856,9.178-.064,2.8-1.643,3.09-12.751-15.185-2.028-71.443,41.917Z" transform="translate(-342.985 -84.219)" fill="#6563d1"/>
                  </g>
                </g>
                <g id="Group_1653" data-name="Group 1653" transform="translate(45.948 33.726)">
                  <g id="Group_1652" data-name="Group 1652">
                    <path id="Path_1020" data-name="Path 1020" d="M374.8,124.331a26.634,26.634,0,0,0-8.78-7.569,45.318,45.318,0,0,0-9.074-3.83l-13.962,8.191,18.943,10.761Z" transform="translate(-342.985 -112.931)" fill="#6539d1"/>
                  </g>
                </g>
                <g id="Group_1655" data-name="Group 1655" transform="translate(69.665 1.688)" opacity="0.5">
                  <g id="Group_1654" data-name="Group 1654">
                    <path id="Path_1021" data-name="Path 1021" d="M425.568,88.136l.518-2.14-2.548-.341-60.363,35.417,3.179,1.806Z" transform="translate(-363.176 -85.656)" fill="#fff" opacity="0.6"/>
                  </g>
                </g>
                <g id="Group_1657" data-name="Group 1657" transform="translate(0.005 55.4)">
                  <g id="Group_1656" data-name="Group 1656">
                    <path id="Path_1022" data-name="Path 1022" d="M304.08,138.4l-.209-7.013,2.245,4.736Z" transform="translate(-303.872 -131.383)" fill="#d3d0cf"/>
                  </g>
                </g>
                <path id="Path_1023" data-name="Path 1023" d="M315.721,156.6c15.477,8.792,40.469,8.618,55.822-.39,7.7-4.516,11.508-10.4,11.446-16.243v0l-.215-7.431-1.262,1.406c-1.781-3.662-5.174-7.111-10.2-9.964-15.478-8.792-40.469-8.617-55.822.39S300.243,147.807,315.721,156.6Zm22.357-13.117c4.029,2.289,4.056,6.046.059,8.39a16.065,16.065,0,0,1-14.532.1c-4.029-2.289-4.056-6.046-.059-8.39A16.058,16.058,0,0,1,338.077,143.481Z" transform="translate(-303.836 -78.408)" fill="#6539d1"/>
                <g id="Group_1659" data-name="Group 1659" transform="translate(0 32.081)">
                  <g id="Group_1658" data-name="Group 1658">
                    <path id="Path_1024" data-name="Path 1024" d="M315.541,150.631c15.478,8.792,40.471,8.617,55.823-.39s15.25-23.437-.227-32.229-40.469-8.617-55.822.391S300.065,141.839,315.541,150.631ZM337.9,137.514c4.029,2.288,4.056,6.045.059,8.39a16.061,16.061,0,0,1-14.533.1c-4.029-2.288-4.056-6.045-.059-8.39A16.061,16.061,0,0,1,337.9,137.514Z" transform="translate(-303.867 -111.531)" fill="#f2f2f2"/>
                  </g>
                </g>
                <path id="Path_1025" data-name="Path 1025" d="M333.456,151.265a15.85,15.85,0,0,1-9.853-1.455c-2.89-1.642-3.708-4.036-2.474-6.126l-7.011-5.56s-3.665-4.135-7.293-8.234c-5.645,8.252-2.673,17.972,8.9,24.544a48.785,48.785,0,0,0,17.308,5.5Z" transform="translate(-303.836 -76.244)" fill="#654fd1"/>
                <g id="Group_1661" data-name="Group 1661" transform="translate(0 32.081)">
                  <g id="Group_1660" data-name="Group 1660">
                    <path id="Path_1026" data-name="Path 1026" d="M315.541,150.631a47.136,47.136,0,0,0,11.645,4.567,61.971,61.971,0,0,0,9.255,1.6c12.311,1.2,25.451-1,34.923-6.554,15.352-9.008,15.25-23.437-.227-32.229s-40.469-8.617-55.822.391S300.065,141.839,315.541,150.631ZM337.9,137.514c4.029,2.288,4.056,6.045.059,8.39a16.061,16.061,0,0,1-14.533.1c-4.029-2.288-4.056-6.045-.059-8.39A16.061,16.061,0,0,1,337.9,137.514Z" transform="translate(-303.867 -111.531)" fill="#6563d1"/>
                  </g>
                </g>
                <g id="Group_1664" data-name="Group 1664" transform="translate(4.361 34.595)">
                  <g id="Group_1663" data-name="Group 1663">
                    <g id="Group_1662" data-name="Group 1662">
                      <path id="Path_1027" data-name="Path 1027" d="M307.581,134.288c.753-4.492,4.083-8.88,10.013-12.359,13.66-8.014,35.9-8.17,49.666-.348,6.843,3.888,10.3,9.014,10.379,14.171.981-5.856-2.422-11.888-10.215-16.314-13.77-7.823-36.007-7.667-49.666.347C310.887,123.815,307.5,129.068,307.581,134.288Z" transform="translate(-307.58 -113.67)" fill="#6539d1"/>
                    </g>
                  </g>
                </g>
              </g>
              <g id="Group_1669" data-name="Group 1669" transform="translate(0 53.996)">
                <g id="Group_1668" data-name="Group 1668">
                  <g id="Group_1667" data-name="Group 1667">
                    <g id="Group_1666" data-name="Group 1666">
                      <path id="Path_1028" data-name="Path 1028" d="M302.1,195.194a15.485,15.485,0,0,1-7.744-2c-5.547-3.147-8.634-9.472-8.689-17.811-.109-15.208,10.477-33.843,23.6-41.542,7.188-4.218,14.2-4.808,19.747-1.656a15.509,15.509,0,0,1,5.742,5.742A23.906,23.906,0,0,1,337.7,150c.108,15.208-10.479,33.845-23.6,41.542A23.986,23.986,0,0,1,302.1,195.194Zm19.152-59.416a18.481,18.481,0,0,0-9.166,2.879c-11.587,6.8-20.937,23.256-20.84,36.691.042,6.26,2.125,10.875,5.864,13s8.767,1.551,14.166-1.616c11.588-6.8,20.937-23.256,20.843-36.691a18.72,18.72,0,0,0-2.18-9.283h0a9.7,9.7,0,0,0-8.686-4.976Z" transform="translate(-285.663 -130.188)" fill="#4d2f9a"/>
                    </g>
                  </g>
                </g>
              </g>
            </g>
          </g>
        </g>
        <path id="Path_1029" data-name="Path 1029" d="M322.449,146.27l11.019,2.7,1.582-8.177a16.061,16.061,0,0,1-14.532.1Z" transform="translate(-279.577 -74.339)" fill="#6563d1"/>
        <path id="Path_1030" data-name="Path 1030" d="M313.806,145.026a47.135,47.135,0,0,0,11.645,4.567,61.968,61.968,0,0,0,9.255,1.6c12.311,1.2,25.451-1,34.923-6.554l-44.874-1.008Z" transform="translate(-280.749 -73.845)" fill="#6563d1"/>
        <path id="Path_1031" data-name="Path 1031" d="M329.371,150.014a65.158,65.158,0,0,1-9.746-2.511v6.886a53.453,53.453,0,0,0,9.627,2.468C339.527,158.213,329.371,150.014,329.371,150.014Z" transform="translate(-279.733 -73.168)" fill="#6539d1"/>
      </g>
      <path id="Path_1032" data-name="Path 1032" d="M323.117,148.63a45.707,45.707,0,0,1-6.348-2.342c-6-2.81,1.59,7.6,1.59,7.6s2.045.815,4.757,1.647Z" transform="translate(-262.799 -63.121)" fill="#6539d1"/>
    </g>
    <path id="Path_1033" data-name="Path 1033" d="M427.382,251.248l-23.247,14.993L392.819,264.4l27.641-13.362Z" transform="translate(50.633 61.942)" fill="#6539d1"/>
    <g id="Group_1679" data-name="Group 1679" transform="translate(398.588 111.276)">
      <g id="Group_1676" data-name="Group 1676" transform="translate(5.042)">
        <path id="Path_1034" data-name="Path 1034" d="M403.357,305.93s-6.7-3.377-10.808,1.651-9.991,16.9-10.174,24.92,6.348,7.478,10.229,5.58,15.219-18.344,15.906-21.567-.809-7.581-1.9-8.434S403.357,305.93,403.357,305.93Z" transform="translate(-357.074 -28.686)" fill="#173d7a"/>
        <path id="Path_1035" data-name="Path 1035" d="M402.074,304.908l.31,6.937a3.935,3.935,0,0,1-1.961,3.609,7.715,7.715,0,0,1-5.165.8c-5.044-.811-5.494-2.252-5.855-9.188S402.074,304.908,402.074,304.908Z" transform="translate(-354.329 -29.278)" fill="#5793ce"/>
        <g id="Group_1675" data-name="Group 1675" transform="translate(0 121.726)">
          <path id="Path_1036" data-name="Path 1036" d="M385.734,296.339s-6.7-3.377-10.808,1.651-9.991,16.9-10.174,24.919,6.348,7.48,10.229,5.581,15.219-18.345,15.907-21.568-.81-7.58-1.9-8.432S385.734,296.339,385.734,296.339Z" transform="translate(-363.961 -154.16)" fill="#173d7a"/>
          <path id="Path_1037" data-name="Path 1037" d="M384.451,295.317l.31,6.937a3.935,3.935,0,0,1-1.961,3.609,7.724,7.724,0,0,1-5.165.8c-5.044-.811-5.495-2.252-5.855-9.188S384.451,295.317,384.451,295.317Z" transform="translate(-361.217 -154.752)" fill="#5793ce"/>
          <path id="Path_1038" data-name="Path 1038" d="M447.166,207c-1.982-32.247-34.923,4.744-34.923,4.744l-22.545,22.1-20.3,22.3a20.011,20.011,0,0,0-5.043,16.076l8.213,62.536a6.146,6.146,0,0,0,6.164,5.341,20.737,20.737,0,0,0,3.042-.266,7.64,7.64,0,0,0,6.786-8.107l-1.5-58.49,42.636-25.7S449.148,239.243,447.166,207Z" transform="translate(-364.182 -193.799)" fill="#20185f"/>
        </g>
        <path id="Path_1039" data-name="Path 1039" d="M396.921,243.59l-6.067-2.228c-.142,0-10.314,9.839-10.225,13.282l4.565,1.465,11.46-11.125Z" transform="translate(-357.756 -52.993)" fill="#6539d1" opacity="0.5"/>
        <path id="Path_1040" data-name="Path 1040" d="M420.418,259.333s25.337-14.467,28.371-20.532c1.188-2.375,3.033-4.858-4.36-8.448L410.638,254.44l1.465,8.293Z" transform="translate(-346.028 -57.275)" fill="#6539d1"/>
        <path id="Path_1041" data-name="Path 1041" d="M464.79,215.942c-2.113-32.239-34.923,4.745-34.923,4.745l-22.545,22.1-20.3,22.3a20.014,20.014,0,0,0-5.043,16.076l8.214,62.537a6.144,6.144,0,0,0,6.163,5.341,20.94,20.94,0,0,0,3.042-.266,7.641,7.641,0,0,0,6.786-8.108l-1.5-58.488,42.636-25.7S466.722,245.417,464.79,215.942Z" transform="translate(-357.295 -68.575)" fill="#20185f"/>
        <path id="Path_1042" data-name="Path 1042" d="M441,138.7c24.975,10.353,24.474,25.116,24.474,25.116s-4.893,54.121-3.223,90.265c.7,15.111-80.279,16.264-68.2-24.048,14.239-47.53,8.9-86.009,15.567-91.812S434.539,136.024,441,138.7Z" transform="translate(-352.992 -93.651)" fill="url(#linear-gradient)"/>
        <path id="Path_1043" data-name="Path 1043" d="M440.311,150.742c-1.306,5.071-7.95,7.744-14.838,5.969s-11.414-7.324-10.108-12.395,7.95-7.743,14.838-5.968S441.617,145.672,440.311,150.742Z" transform="translate(-344.269 -92.602)" fill="#ffc2b0"/>
        <path id="Path_1044" data-name="Path 1044" d="M430.026,158.781a18.12,18.12,0,0,1-4.513-.58,16.622,16.622,0,0,1-8.756-5.363,9.539,9.539,0,0,1-2.211-8.485c1.466-5.7,8.777-8.766,16.292-6.827a16.626,16.626,0,0,1,8.755,5.364,9.538,9.538,0,0,1,2.211,8.484C440.635,155.915,435.758,158.781,430.026,158.781Zm-3.759-19.457c-4.638,0-8.517,2.159-9.41,5.624a7.228,7.228,0,0,0,1.751,6.381,14.222,14.222,0,0,0,7.5,4.559c6.24,1.6,12.245-.684,13.385-5.108a7.228,7.228,0,0,0-1.751-6.381,14.21,14.21,0,0,0-7.5-4.56A16.016,16.016,0,0,0,426.266,139.324Z" transform="translate(-344.605 -92.936)" fill="#fff"/>
        <path id="Path_1045" data-name="Path 1045" d="M420.322,138.283s.217,1-.216,8.915c-.136,2.488,8.576,4.812,10.827,2.56s1.35-4.594,1.892-13.061S420.322,138.283,420.322,138.283Z" transform="translate(-342.328 -94.358)" fill="#ffc2b0"/>
        <path id="Path_1046" data-name="Path 1046" d="M432.825,135.744s-2.146,7.851-12.72,10.862l.16-7.136Z" transform="translate(-342.328 -93.405)" fill="#ea9c92"/>
        <path id="Path_1047" data-name="Path 1047" d="M444.7,125.453a19.224,19.224,0,1,1-23.424-13.8A19.224,19.224,0,0,1,444.7,125.453Z" transform="translate(-347.504 -103.06)" fill="#ffc2b0"/>
        <path id="Path_1048" data-name="Path 1048" d="M430.541,126.674s-10.584,4.534-17.912,4.585-5.713-6.085-5.713-6.085l21.755-3.145Z" transform="translate(-347.542 -98.764)" fill="#ea9c92"/>
        <path id="Path_1049" data-name="Path 1049" d="M412.792,134.406s9.22-3.914,17.308-2.282a8.473,8.473,0,0,1,4.887,2.905,2.886,2.886,0,0,0,1.48,1.07c1.434.325,3.782-5.626,6.57-5.761s4.648,1.837,2.362,5.5-1.513,7.755-.46,8.342,12.207-7.957,2.367-27.45-34.837-8.994-38.725-5.043c0,0-4.1,3.567-7.425.392C401.155,112.077,397.421,140.044,412.792,134.406Z" transform="translate(-349.89 -105.302)" fill="url(#linear-gradient-2)"/>
        <path id="Path_1050" data-name="Path 1050" d="M443.973,186.522v14.624a5.961,5.961,0,0,1-1.944,4.4l-30.042,27.389,3.413,5.221,39.674-28.774a8.063,8.063,0,0,0,3.286-5.684l2.681-25.5Z" transform="translate(-345.501 -77.36)" fill="#ffc2b0"/>
        <path id="Path_1051" data-name="Path 1051" d="M447.5,150.495s9.114,13.706,12.509,49.786c0,0-15.568,5.035-24.4,2.177S447.5,150.495,447.5,150.495Z" transform="translate(-337.129 -87.969)" fill="url(#linear-gradient-3)"/>
        <path id="Path_1052" data-name="Path 1052" d="M434.848,162.956s-3.569,19.1-3.77,28.07a5.728,5.728,0,0,0,3.77,5.533h0Z" transform="translate(-338.041 -83.161)" fill="#e66209"/>
      </g>
      <g id="Group_1677" data-name="Group 1677" transform="translate(4.802 144.438)">
        <path id="Path_1053" data-name="Path 1053" d="M453.262,238.58l-6.64-.876-42.863-24.746a5.96,5.96,0,0,0-5.361.221l-30.372,17.53-4.014-.53v4h0a1.566,1.566,0,0,0,.922,1.408l48.576,28.045a5.957,5.957,0,0,0,5.36-.223l33.077-19.09a2.164,2.164,0,0,0,1.312-1.8h0Z" transform="translate(-364.009 -208.645)" fill="#e9a6ff"/>
        <path id="Path_1054" data-name="Path 1054" d="M421.057,220.481l-3.046-1.758H384.532l-16.506,9.523-4.014-.53v4h0a1.566,1.566,0,0,0,.922,1.407l48.576,28.045a5.017,5.017,0,0,0,2.766.517Z" transform="translate(-364.009 -206.182)" fill="#d594ff"/>
        <path id="Path_1055" data-name="Path 1055" d="M365.794,225.424l-1.782-.235v4h0a1.566,1.566,0,0,0,.922,1.407l.857.494Z" transform="translate(-364.009 -203.655)" fill="#5793ce"/>
        <path id="Path_1056" data-name="Path 1056" d="M399.955,251.393a6.227,6.227,0,0,0,4.556-.282v-6.8h-4.556Z" transform="translate(-349.963 -196.183)" fill="#e9a6ff"/>
        <path id="Path_1057" data-name="Path 1057" d="M413.514,260.7,364.938,232.65c-1.374-.794-1.2-2.179.385-3.1l33.076-19.09a5.96,5.96,0,0,1,5.361-.223l48.576,28.045c1.374.794,1.2,2.179-.385,3.1l-33.077,19.09A5.957,5.957,0,0,1,413.514,260.7Z" transform="translate(-364.01 -209.706)" fill="#fff"/>
        <path id="Path_1058" data-name="Path 1058" d="M410.579,253.564l-40.39-23.319c-1.143-.659-1-1.811.32-2.573l17.724-9.968a4.954,4.954,0,0,1,4.457-.184l40.391,23.318c1.142.661,1,1.812-.321,2.574l-17.724,9.966A4.95,4.95,0,0,1,410.579,253.564Z" transform="translate(-361.897 -206.827)" fill="#d4ecff"/>
      </g>
      <path id="Path_1059" data-name="Path 1059" d="M390.305,210.063l-.5,3.352a24.781,24.781,0,0,0,.22,8.594l.6,2.954a4.153,4.153,0,0,0,3.328,3.263h0a2.291,2.291,0,0,0,2.687-2l.8-7.165s1.833,2.4,2.719,2.4-.99-7.176-2.993-11.238S390.305,210.063,390.305,210.063Z" transform="translate(-349.235 -65.685)" fill="#ffc2b0"/>
      <path id="Path_1060" data-name="Path 1060" d="M407.44,174.13l-5.213,10.317a20.212,20.212,0,0,0-2.132,7.83l-2.264,35.284-6.857-.163-3.113-39.625a14.559,14.559,0,0,1,.177-3.663l3.556-20.094Z" transform="translate(-349.904 -82.802)" fill="#ffc2b0"/>
      <g id="Group_1678" data-name="Group 1678" transform="translate(0 123.484)">
        <path id="Path_1061" data-name="Path 1061" d="M412.98,269.292l-4.074-5.317-42.832-24.8a5.959,5.959,0,0,1-2.481-4.758l.036-35.066-2.462-3.216,2.313-1.341,0,0a1.561,1.561,0,0,1,1.68.1L413.7,223a5.956,5.956,0,0,1,2.481,4.757l-.04,38.19a2.164,2.164,0,0,1-.908,2.036h0Z" transform="translate(-360.319 -194.599)" fill="#e9a6ff"/>
        <path id="Path_1062" data-name="Path 1062" d="M383.358,249.183l-3.043-1.762-16.7-29.013.017-19.055-2.462-3.216,2.313-1.341,0,0a1.561,1.561,0,0,1,1.68.1L413.7,223a5.027,5.027,0,0,1,1.829,2.139Z" transform="translate(-360.319 -194.599)" fill="#d594ff"/>
        <path id="Path_1063" data-name="Path 1063" d="M362.259,197.564l-1.092-1.427,2.313-1.341,0,0a1.561,1.561,0,0,1,1.68.1l.855.5Z" transform="translate(-360.319 -194.599)" fill="#d594ff"/>
        <path id="Path_1064" data-name="Path 1064" d="M400.661,215.244a6.221,6.221,0,0,1,2.028,4.089l-4.744,2.738-2.273-3.947Z" transform="translate(-346.834 -186.531)" fill="#e9a6ff"/>
        <path id="Path_1065" data-name="Path 1065" d="M411.63,223.964l-48.54-28.1c-1.374-.8-2.49.046-2.491,1.878l-.042,38.19a5.964,5.964,0,0,0,2.483,4.758l48.541,28.1c1.373.8,2.488-.046,2.491-1.878l.04-38.19A5.956,5.956,0,0,0,411.63,223.964Z" transform="translate(-360.557 -194.223)" fill="#ebeff1"/>
      </g>
      <path id="Path_1066" data-name="Path 1066" d="M418.937,222.778l-.777,1.611a10.788,10.788,0,0,1-4.057,4.5l-4.822,2.972a4.8,4.8,0,0,1-4.922.114l-.164-.1a2.9,2.9,0,0,1-.41-4.458l5.039-5.179s-2.83,2.168-3.624,1.295c-.581-.64,2.745-3.763,5.3-3.865a10.083,10.083,0,0,0,5.025-2.11Z" transform="translate(-343.997 -62.145)" fill="#ffc2b0"/>
      <path id="Path_1067" data-name="Path 1067" d="M412.538,137.295s-18.471,20.1-25.922,38.536c0,0,6.316,11.379,21.777,15.844S412.538,137.295,412.538,137.295Z" transform="translate(-350.373 -92.799)" fill="url(#linear-gradient-3)"/>
      <path id="Path_1068" data-name="Path 1068" d="M400.914,183.664l2.994-28.92-7.054,27.1A40.126,40.126,0,0,0,400.914,183.664Z" transform="translate(-346.372 -86.309)" fill="#e66209"/>
      <path id="Path_1069" data-name="Path 1069" d="M416.6,134.762l-4.964-1.363s2.37,3.727,5.829,4.677,4-1.978,4-1.978Z" transform="translate(-340.597 -94.321)" fill="#fff"/>
    </g>
    <g id="Group_1682" data-name="Group 1682" transform="translate(543.639 62.067)">
      <g id="Group_1680" data-name="Group 1680">
        <path id="Path_1073" data-name="Path 1073" d="M492.314,103.884l-37.187-21.47a1.9,1.9,0,0,0-1.922-.154l0-.024L449.6,84.32l2.535.926v27.082a7.168,7.168,0,0,0,2.992,5.718l35.545,20.521v3.178l3.644-2.1-.019-.007a2.651,2.651,0,0,0,1.011-2.385V109.6A7.165,7.165,0,0,0,492.314,103.884Z" transform="translate(-448.461 -82.067)" fill="#d3008d"/>
        <path id="Path_1074" data-name="Path 1074" d="M488.961,141.042l-37.187-21.471a7.166,7.166,0,0,1-2.993-5.716V86.2c0-2.2,1.341-3.217,2.993-2.263l37.187,21.471a7.166,7.166,0,0,1,2.993,5.716v27.652C491.954,140.983,490.613,142,488.961,141.042Z" transform="translate(-448.781 -81.475)" fill="#ff2c9c"/>
      </g>
      <g id="Group_1681" data-name="Group 1681" transform="translate(10.48 23.878)">
        <path id="Path_1075" data-name="Path 1075" d="M461.335,103.924c0,1.6-1.124,2.249-2.51,1.448a5.546,5.546,0,0,1-2.509-4.345c0-1.6,1.124-2.249,2.509-1.449A5.544,5.544,0,0,1,461.335,103.924Z" transform="translate(-456.316 -99.236)" fill="#fff"/>
        <path id="Path_1076" data-name="Path 1076" d="M466.8,107.079c0,1.6-1.124,2.249-2.509,1.449a5.545,5.545,0,0,1-2.509-4.346c0-1.6,1.122-2.249,2.509-1.449A5.55,5.55,0,0,1,466.8,107.079Z" transform="translate(-454.18 -98.003)" fill="#fff"/>
        <path id="Path_1077" data-name="Path 1077" d="M472.265,110.235c0,1.6-1.122,2.248-2.509,1.448a5.546,5.546,0,0,1-2.509-4.346c0-1.6,1.124-2.248,2.509-1.448A5.542,5.542,0,0,1,472.265,110.235Z" transform="translate(-452.044 -96.769)" fill="#fff"/>
      </g>
    </g>
    <g id="Group_1685" data-name="Group 1685" transform="translate(272.505 312.434)">
      <g id="Group_1683" data-name="Group 1683">
        <path id="Path_1078" data-name="Path 1078" d="M307.248,272.922,270.766,251.86a1.865,1.865,0,0,0-1.886-.152l0-.024-3.54,2.044,2.487.908v26.568a7.028,7.028,0,0,0,2.936,5.608l34.87,20.133v3.117L309.211,308l-.019-.007a2.6,2.6,0,0,0,.992-2.339V278.531A7.03,7.03,0,0,0,307.248,272.922Z" transform="translate(-264.226 -251.518)" fill="#212ac0"/>
        <path id="Path_1079" data-name="Path 1079" d="M303.958,309.374l-36.482-21.064a7.028,7.028,0,0,1-2.936-5.609V255.576c0-2.163,1.314-3.156,2.936-2.22l36.482,21.064a7.028,7.028,0,0,1,2.936,5.608v27.127C306.894,309.316,305.579,310.31,303.958,309.374Z" transform="translate(-264.54 -250.938)" fill="#493bf4"/>
      </g>
      <g id="Group_1684" data-name="Group 1684" transform="translate(10.281 23.426)">
        <path id="Path_1080" data-name="Path 1080" d="M276.855,272.962c0,1.569-1.1,2.206-2.462,1.42a5.442,5.442,0,0,1-2.462-4.263c0-1.57,1.1-2.206,2.462-1.421A5.439,5.439,0,0,1,276.855,272.962Z" transform="translate(-271.932 -268.361)" fill="#fff"/>
        <path id="Path_1081" data-name="Path 1081" d="M282.217,276.056c0,1.57-1.1,2.206-2.462,1.421a5.439,5.439,0,0,1-2.462-4.264c0-1.569,1.1-2.206,2.462-1.42A5.442,5.442,0,0,1,282.217,276.056Z" transform="translate(-269.837 -267.152)" fill="#fff"/>
        <path id="Path_1082" data-name="Path 1082" d="M287.579,279.153c0,1.569-1.1,2.206-2.462,1.42a5.437,5.437,0,0,1-2.462-4.263c0-1.57,1.1-2.206,2.462-1.421A5.445,5.445,0,0,1,287.579,279.153Z" transform="translate(-267.741 -265.942)" fill="#fff"/>
      </g>
    </g>
  </g>
</svg>
