<svg xmlns="http://www.w3.org/2000/svg" width="20.867" height="24.504" viewBox="0 0 20.867 24.504">
  <g id="surface1" transform="translate(0 0.001)">
    <path id="Path_798" data-name="Path 798" d="M125.11,158.457a4.669,4.669,0,1,0,4.669,4.669A4.674,4.674,0,0,0,125.11,158.457Zm2.772,3.79-3.345,3.345a.719.719,0,0,1-1.017,0l-1.278-1.278a.719.719,0,1,1,1.017-1.017l.77.77,2.837-2.836a.719.719,0,1,1,1.017,1.017Zm0,0" transform="translate(-114.677 -150.874)" fill="#2c99ff"/>
    <path id="Path_799" data-name="Path 799" d="M20.843,6.648V6.629c-.011-.235-.018-.484-.022-.762a2.6,2.6,0,0,0-2.445-2.544A10.078,10.078,0,0,1,11.515.432L11.5.417a1.568,1.568,0,0,0-2.131,0L9.352.432A10.079,10.079,0,0,1,2.493,3.323,2.6,2.6,0,0,0,.048,5.867c0,.275-.011.524-.022.761v.044C-.03,9.546-.1,13.121,1.1,16.367a12.34,12.34,0,0,0,2.96,4.611A15.486,15.486,0,0,0,9.852,24.4a1.794,1.794,0,0,0,.237.065,1.754,1.754,0,0,0,.689,0,1.8,1.8,0,0,0,.238-.065A15.5,15.5,0,0,0,16.8,20.976a12.357,12.357,0,0,0,2.96-4.612C20.965,13.108,20.9,9.526,20.843,6.648ZM10.433,18.358a6.107,6.107,0,1,1,6.107-6.107A6.114,6.114,0,0,1,10.433,18.358Zm0,0" transform="translate(0 0)" fill="#2c99ff"/>
  </g>
</svg>
