<svg xmlns="http://www.w3.org/2000/svg" width="50" height="50" viewBox="0 0 50 50">
  <g id="iconfinder_trello_2317760" transform="translate(-14 -14)">
    <g id="Group_1826" data-name="Group 1826" transform="translate(14 14)">
      <g id="Group_1825" data-name="Group 1825">
        <g id="Group_1824" data-name="Group 1824">
          <g id="Group_1823" data-name="Group 1823">
            <circle id="Ellipse_211" data-name="Ellipse 211" cx="25" cy="25" r="25" fill="#0079bf"/>
          </g>
        </g>
      </g>
    </g>
    <path id="Path_1353" data-name="Path 1353" d="M61.082,39.5H42.569A3.049,3.049,0,0,0,39.5,42.569V61.031A3.049,3.049,0,0,0,42.569,64.1H61.031A3.049,3.049,0,0,0,64.1,61.031V42.569A2.976,2.976,0,0,0,61.082,39.5ZM50.215,58.818a1.46,1.46,0,0,1-1.459,1.459H44.179a1.46,1.46,0,0,1-1.459-1.459V44.833a1.46,1.46,0,0,1,1.459-1.459h4.578a1.46,1.46,0,0,1,1.459,1.459ZM60.931,52.68a1.46,1.46,0,0,1-1.459,1.459H54.894a1.46,1.46,0,0,1-1.459-1.459V44.833a1.46,1.46,0,0,1,1.459-1.459h4.578a1.46,1.46,0,0,1,1.459,1.459Z" transform="translate(-12.672 -12.672)" fill="#fff"/>
  </g>
</svg>
