<svg xmlns="http://www.w3.org/2000/svg" width="50.01" height="50.01" viewBox="0 0 50.01 50.01">
  <g id="user" transform="translate(-53 30)">
    <g id="Group_9418" data-name="Group 9418" transform="translate(53 -30)">
      <path id="Path_11690" data-name="Path 11690" d="M42.686,32.329a24.909,24.909,0,0,0-9.5-5.96,14.456,14.456,0,1,0-16.358,0A25.044,25.044,0,0,0,0,50.01H3.907a21.1,21.1,0,0,1,42.2,0H50.01A24.842,24.842,0,0,0,42.686,32.329ZM25,25A10.549,10.549,0,1,1,35.554,14.456,10.561,10.561,0,0,1,25,25Z" transform="translate(0)" fill="#20c997"/>
    </g>
  </g>
</svg>
