<svg xmlns="http://www.w3.org/2000/svg" width="20.352" height="14.246" viewBox="0 0 20.352 14.246">
  <g id="user_1_" data-name="user (1)" transform="translate(0 -64)">
    <g id="Group_1013" data-name="Group 1013" transform="translate(0 64)">
      <g id="Group_1012" data-name="Group 1012">
        <path id="Path_832" data-name="Path 832" d="M258.544,111.755A2.544,2.544,0,1,0,256,109.211,2.536,2.536,0,0,0,258.544,111.755Z" transform="translate(-243.789 -104.632)" fill="#20c997"/>
        <path id="Path_833" data-name="Path 833" d="M88.386,70.106a3.053,3.053,0,1,0-3.053-3.053A3.047,3.047,0,0,0,88.386,70.106Z" transform="translate(-81.263 -64)" fill="#20c997"/>
        <path id="Path_834" data-name="Path 834" d="M7.123,234.667c-2.376,0-7.123,1.191-7.123,3.562v2.544H7.123v-2.29a4.026,4.026,0,0,1,2.412-3.531A12.154,12.154,0,0,0,7.123,234.667Z" transform="translate(0 -226.526)" fill="#20c997"/>
        <path id="Path_835" data-name="Path 835" d="M197.6,256c-1.867,0-5.6.936-5.6,2.8v2.29h11.194V258.8C203.194,256.936,199.464,256,197.6,256Z" transform="translate(-182.842 -246.842)" fill="#20c997"/>
      </g>
    </g>
  </g>
</svg>
