<svg id="flat" xmlns="http://www.w3.org/2000/svg" width="49.996" height="49.996" viewBox="0 0 49.996 49.996">
  <g id="whatsapp">
    <path id="Path_1354" data-name="Path 1354" d="M25,50A25,25,0,1,0,0,25,25,25,0,0,0,25,50Z" fill="#57bb63" fill-rule="evenodd"/>
    <path id="Path_1355" data-name="Path 1355" d="M27.251,40.823a13.616,13.616,0,0,1-6.571-1.678l-7.526,2.391L15.607,34.3a13.35,13.35,0,0,1-1.95-6.965A13.594,13.594,0,1,1,27.251,40.823Zm0-24.829a11.4,11.4,0,0,0-11.429,11.34A11.224,11.224,0,0,0,18,33.984L16.571,38.2l4.392-1.4a11.37,11.37,0,1,0,6.288-20.8Zm6.864,14.447c-.084-.137-.306-.221-.638-.386S31.5,29.09,31.2,28.98s-.528-.166-.75.165-.861,1.075-1.055,1.3-.389.249-.722.083a9.117,9.117,0,0,1-2.68-1.641,9.956,9.956,0,0,1-1.853-2.289c-.194-.331-.021-.51.146-.674.15-.148.333-.386.5-.579a2.235,2.235,0,0,0,.333-.552.6.6,0,0,0-.028-.579c-.083-.165-.75-1.792-1.028-2.454s-.555-.551-.75-.551-.417-.028-.639-.028a1.23,1.23,0,0,0-.889.414,3.7,3.7,0,0,0-1.166,2.758,6.4,6.4,0,0,0,1.36,3.419c.166.22,2.3,3.667,5.692,4.991s3.388.882,4,.827a3.368,3.368,0,0,0,2.249-1.572,2.755,2.755,0,0,0,.194-1.573Z" transform="translate(-2.193 -2.309)" fill="#fff" fill-rule="evenodd"/>
  </g>
</svg>
