<svg xmlns="http://www.w3.org/2000/svg" viewBox="0 0 183.36 186.99"><defs><style>.cls-1{fill:#ebeff2;}.cls-2{fill:#2b0f2b;}.cls-3{fill:#cfe1f0;}.cls-4{fill:#dee6f1;}.cls-5{fill:#edf1f4;}.cls-6{fill:#6d95b2;}.cls-7{fill:#5b636d;}.cls-8{fill:#9ed2ef;}.cls-9{fill:#4d9ed5;}.cls-10{fill:#7ebf57;}.cls-11{fill:#518c2a;}.cls-12{fill:#f6ac3d;}.cls-13{fill:#bf7f2b;}.cls-14{fill:#303030;opacity:0.25;}.cls-15{fill:#96a7bc;}.cls-16{fill:#f7575f;}.cls-17{fill:#cc3b42;}</style></defs><title>Asset 170</title><g id="Layer_2" data-name="Layer 2"><g id="Layer_1-2" data-name="Layer 1"><circle class="cls-1" cx="32" cy="158.95" r="19.06" transform="translate(-115.13 90.82) rotate(-53.77)"/><path class="cls-2" d="M32,179.5a20.45,20.45,0,0,1-12.12-4h0a20.58,20.58,0,1,1,12.12,4Zm-10.35-6.39a17.56,17.56,0,1,0-3.78-24.54,17.58,17.58,0,0,0,3.78,24.54Z"/><circle class="cls-3" cx="32.77" cy="159.02" r="8.54" transform="translate(-114.87 91.46) rotate(-53.77)"/><path class="cls-2" d="M32,169a10,10,0,1,1,8.11-4.1A10,10,0,0,1,32,169Zm0-17.08a7,7,0,1,0,4.15,1.36A7,7,0,0,0,32,151.91Z"/><circle class="cls-1" cx="32.86" cy="156.31" r="19.06" transform="translate(-125.11 179.97) rotate(-86.65)"/><path class="cls-2" d="M32.88,176.87q-.61,0-1.23,0a20.51,20.51,0,1,1,1.23,0Zm-.05-38.11a17.58,17.58,0,1,0,1,0Q33.36,138.75,32.83,138.75Z"/><circle class="cls-3" cx="33.54" cy="155.95" r="8.54" transform="translate(-124.1 180.31) rotate(-86.65)"/><path class="cls-2" d="M32.87,166.35l-.6,0h0a10,10,0,1,1,.6,0Zm0-17.09a7,7,0,0,0-.4,14.07h0a7,7,0,1,0,.82-14.06Z"/><path class="cls-4" d="M77.12,35.41h28.79A12.55,12.55,0,0,1,118.46,48V195.63A23.76,23.76,0,0,1,94.69,219.4H88.34a23.76,23.76,0,0,1-23.76-23.76V48A12.55,12.55,0,0,1,77.12,35.41Z" transform="translate(170.4 -8.18) rotate(65.88)"/><path class="cls-5" d="M172,121.24l-9.31,4.17a14.21,14.21,0,0,0,7.17-18.78L159.43,83.41a14.22,14.22,0,0,0-18.79-7.18L150,72.06a14.22,14.22,0,0,1,18.79,7.18l10.39,23.22A14.21,14.21,0,0,1,172,121.24Z"/><path class="cls-6" d="M53.56,175l-12.42,5.56a26.94,26.94,0,0,1-22-49.18l12.42-5.56a26.94,26.94,0,0,0,22,49.18Z"/><circle class="cls-1" cx="31.94" cy="155.18" r="19.06" transform="translate(-60.62 26.6) rotate(-24.12)"/><path class="cls-2" d="M32,175.73a20.55,20.55,0,1,1,8.37-1.79h0A20.44,20.44,0,0,1,32,175.73Zm-.06-38.11A17.56,17.56,0,1,0,48,148,17.45,17.45,0,0,0,31.91,137.62Z"/><circle class="cls-3" cx="32.38" cy="154.54" r="8.54" transform="translate(-60.32 26.72) rotate(-24.12)"/><path class="cls-7" d="M30,183.71a25.3,25.3,0,0,1-23.1-14.94L4.29,163A25.26,25.26,0,0,1,17,129.59L151.81,69.25a14,14,0,0,1,18.56,7.08l11.76,26.28A14.06,14.06,0,0,1,175,121.16L40.26,181.51A25.12,25.12,0,0,1,30,183.71ZM9.62,167.55A22.29,22.29,0,0,0,39,178.77l134.79-60.34a11.06,11.06,0,0,0,5.57-14.6L167.63,77.55A11,11,0,0,0,153,72L18.25,132.33A22.26,22.26,0,0,0,7,161.75Z"/><rect class="cls-8" x="107.69" y="99.71" width="36.8" height="24.2" rx="4.12" ry="4.12" transform="translate(176.62 -48.96) rotate(65.88)"/><rect class="cls-8" x="136.4" y="86.86" width="36.8" height="24.2" rx="4.12" ry="4.12" transform="translate(181.87 -82.76) rotate(65.88)"/><rect class="cls-8" x="78.95" y="112.8" width="36.8" height="24.2" rx="4.12" ry="4.12" transform="translate(171.56 -14.98) rotate(65.88)"/><rect class="cls-8" x="50.12" y="125.7" width="36.8" height="24.2" rx="4.12" ry="4.12" transform="translate(166.3 18.96) rotate(65.88)"/><path class="cls-9" d="M82.81,151.56l-13.55,6.07a4.67,4.67,0,0,1-6.18-2.35l-11.21-25a4.68,4.68,0,0,1,1.77-5.86,4.17,4.17,0,0,0,.23.62l11.21,25a4.67,4.67,0,0,0,6.18,2.35l13.55-6.07a4.17,4.17,0,0,0,.58-.31A4.66,4.66,0,0,1,82.81,151.56Z"/><path class="cls-9" d="M111.21,98.36a4.17,4.17,0,0,0,.23.62L122.66,124a4.67,4.67,0,0,0,6.17,2.35l13.56-6.07A4.18,4.18,0,0,0,143,120a4.68,4.68,0,0,1-2.58,5.55l-13.56,6.07a4.67,4.67,0,0,1-6.17-2.35l-11.22-25.06A4.67,4.67,0,0,1,111.21,98.36Z"/><path class="cls-9" d="M139.91,85.51a4.18,4.18,0,0,0,.23.62l11.22,25.06a4.68,4.68,0,0,0,6.17,2.35l13.56-6.07a4.18,4.18,0,0,0,.58-.31,4.67,4.67,0,0,1-2.58,5.55l-13.56,6.07a4.68,4.68,0,0,1-6.17-2.35L138.14,91.38A4.68,4.68,0,0,1,139.91,85.51Z"/><path class="cls-9" d="M111.64,138.65l-13.55,6.07a4.66,4.66,0,0,1-6.17-2.35l-11.21-25a4.66,4.66,0,0,1,1.77-5.86,4.17,4.17,0,0,0,.23.62l11.21,25a4.66,4.66,0,0,0,6.17,2.35l13.55-6.07a4.32,4.32,0,0,0,.59-.31A4.67,4.67,0,0,1,111.64,138.65Z"/><path class="cls-2" d="M31.94,165.23a10.05,10.05,0,1,1,4.1-.88h0A10,10,0,0,1,31.94,165.23Zm0-17.09a7,7,0,1,0,2.89,13.47h0a7,7,0,0,0-2.89-13.47Z"/><path class="cls-7" d="M124.73,133.41a5.14,5.14,0,0,1-4.68-3l-11.67-26.06A5.12,5.12,0,0,1,111,97.55L125.53,91a5.12,5.12,0,0,1,6.77,2.58L144,119.67a5.13,5.13,0,0,1-2.58,6.77L126.82,133A5.1,5.1,0,0,1,124.73,133.41Zm-2.85-3.85a3.12,3.12,0,0,0,4.13,1.57l14.57-6.52a3.13,3.13,0,0,0,1.57-4.13L130.47,94.43a3.12,3.12,0,0,0-4.12-1.57l-14.57,6.52a3.12,3.12,0,0,0-1.57,4.13Z"/><path class="cls-7" d="M153.44,120.56a5.13,5.13,0,0,1-4.68-3L137.09,91.47a5.13,5.13,0,0,1,2.58-6.77l14.57-6.52A5.13,5.13,0,0,1,161,80.76l11.67,26.06a5.12,5.12,0,0,1-2.58,6.77l-14.57,6.52A5.1,5.1,0,0,1,153.44,120.56Zm-2.86-3.85a3.13,3.13,0,0,0,4.13,1.57l14.57-6.52a3.13,3.13,0,0,0,1.57-4.12L159.18,81.58A3.12,3.12,0,0,0,155.05,80l-14.57,6.52a3.12,3.12,0,0,0-1.57,4.13Z"/><path class="cls-7" d="M96.07,146a5.13,5.13,0,0,1-4.68-3L79.72,116.93a5.12,5.12,0,0,1,2.58-6.77l14.57-6.52a5.13,5.13,0,0,1,6.77,2.58l11.67,26.06a5.13,5.13,0,0,1-2.58,6.77l-14.57,6.52A5.1,5.1,0,0,1,96.07,146Zm-2.86-3.85a3.13,3.13,0,0,0,4.13,1.57l14.57-6.52a3.13,3.13,0,0,0,1.57-4.13L101.81,107a3.13,3.13,0,0,0-4.13-1.57L83.12,112a3.12,3.12,0,0,0-1.57,4.13Z"/><path class="cls-7" d="M67.49,158.82a5.13,5.13,0,0,1-4.68-3L51.14,129.73A5.12,5.12,0,0,1,53.73,123l14.57-6.52A5.12,5.12,0,0,1,75.06,119l11.67,26.06a5.12,5.12,0,0,1-2.58,6.77l-14.57,6.52A5.1,5.1,0,0,1,67.49,158.82ZM64.64,155a3.13,3.13,0,0,0,4.13,1.57L83.33,150a3.12,3.12,0,0,0,1.57-4.12L73.23,119.84a3.12,3.12,0,0,0-4.12-1.57l-14.57,6.52A3.12,3.12,0,0,0,53,128.91Z"/><circle class="cls-1" cx="32.36" cy="157.36" r="19.06" transform="translate(-128.27 154.43) rotate(-77.34)"/><path class="cls-2" d="M32.36,177.92a20.53,20.53,0,0,1-4.51-.5h0a20.54,20.54,0,1,1,4.51.5Zm-3.85-3.43a17.56,17.56,0,1,0-11-7.74,17.58,17.58,0,0,0,11,7.74Z"/><circle class="cls-3" cx="33.09" cy="157.11" r="8.54" transform="translate(-127.46 154.95) rotate(-77.34)"/><path class="cls-2" d="M32.36,167.41a10,10,0,1,1,9.8-7.84A10,10,0,0,1,32.36,167.41Zm0-17.09a7.05,7.05,0,1,0,1.56.17A7.11,7.11,0,0,0,32.34,150.32Z"/><circle class="cls-1" cx="32.08" cy="154.6" r="19.06" transform="translate(-51.45 20.61) rotate(-20.22)"/><path class="cls-2" d="M32.1,175.15a20.56,20.56,0,1,1,7.08-1.27A20.59,20.59,0,0,1,32.1,175.15Zm0-38.12a17.59,17.59,0,1,0,7.35,1.63A17.56,17.56,0,0,0,32.09,137Z"/><circle class="cls-3" cx="32.56" cy="153.99" r="8.54" transform="translate(-51.21 20.74) rotate(-20.22)"/><path class="cls-2" d="M32.08,164.65a10.07,10.07,0,1,1,3.48-.62h0A10.05,10.05,0,0,1,32.08,164.65Zm0-17.09a7,7,0,1,0,2.43,13.65h0a7,7,0,0,0-2.43-13.65Z"/><path class="cls-4" d="M60.86,13.28H89.65A12.55,12.55,0,0,1,102.2,25.83V173.51a23.76,23.76,0,0,1-23.76,23.76H72.08a23.76,23.76,0,0,1-23.76-23.76V25.83A12.55,12.55,0,0,1,60.86,13.28Z" transform="translate(90.48 -23.23) rotate(42.31)"/><path class="cls-5" d="M146.37,66.66l-6.87,7.54a14.21,14.21,0,0,0-.94-20.08L119.75,37a14.22,14.22,0,0,0-20.09.94l6.87-7.54a14.22,14.22,0,0,1,20.09-.94l18.81,17.13A14.21,14.21,0,0,1,146.37,66.66Z"/><path class="cls-6" d="M58.54,163.46l-9.16,10.06A26.94,26.94,0,0,1,9.54,137.25l9.16-10.06a26.94,26.94,0,0,0,39.85,36.27Z"/><circle class="cls-1" cx="30.79" cy="153.93" r="19.06" transform="translate(-103.76 73.08) rotate(-47.69)"/><path class="cls-2" d="M30.77,174.48A20.56,20.56,0,1,1,46,167.76h0a20.42,20.42,0,0,1-14.24,6.7Zm0-38.1a17.55,17.55,0,1,0,13,29.37h0a17.55,17.55,0,0,0-13-29.37Z"/><circle class="cls-3" cx="30.94" cy="153.17" r="8.54" transform="translate(-103.16 72.94) rotate(-47.69)"/><path class="cls-7" d="M31.22,183.61a25.17,25.17,0,0,1-17-6.57l-4.7-4.28a25.27,25.27,0,0,1-1.68-35.69l99.41-109.2a14.06,14.06,0,0,1,19.84-.93l21.29,19.38a14.06,14.06,0,0,1,.93,19.84L49.91,175.36A25.21,25.21,0,0,1,31.22,183.61Zm-15-8.79a22.29,22.29,0,0,0,31.45-1.48l99.41-109.2a11.06,11.06,0,0,0-.73-15.61L125.09,29.16a11.06,11.06,0,0,0-15.61.73L10.07,139.09a22.27,22.27,0,0,0,1.48,31.45Z"/><rect class="cls-10" x="82.32" y="65.06" width="36.8" height="24.2" rx="4.12" ry="4.12" transform="translate(78.18 -47.7) rotate(42.31)"/><rect class="cls-10" x="103.49" y="41.81" width="36.8" height="24.2" rx="4.12" ry="4.12" transform="translate(68.04 -68.01) rotate(42.31)"/><rect class="cls-10" x="61.2" y="88.55" width="36.8" height="24.2" rx="4.12" ry="4.12" transform="translate(88.49 -27.36) rotate(42.31)"/><rect class="cls-10" x="39.94" y="111.91" width="36.8" height="24.2" rx="4.12" ry="4.12" transform="translate(98.68 -6.96) rotate(42.31)"/><path class="cls-11" d="M76.94,130.9l-10,11a4.67,4.67,0,0,1-6.61.32L40,123.73a4.68,4.68,0,0,1-.72-6.08,4.17,4.17,0,0,0,.46.48l20.3,18.48a4.67,4.67,0,0,0,6.61-.32l10-11a4.17,4.17,0,0,0,.41-.52A4.66,4.66,0,0,1,76.94,130.9Z"/><path class="cls-11" d="M81.7,70.79a4.17,4.17,0,0,0,.46.48l20.3,18.48a4.67,4.67,0,0,0,6.6-.31l10-11a4.18,4.18,0,0,0,.41-.52,4.68,4.68,0,0,1-.15,6.12l-10,11a4.67,4.67,0,0,1-6.6.31L82.42,76.87A4.67,4.67,0,0,1,81.7,70.79Z"/><path class="cls-11" d="M102.87,47.53a4.18,4.18,0,0,0,.46.48l20.3,18.48a4.68,4.68,0,0,0,6.6-.31l10-11a4.18,4.18,0,0,0,.41-.52,4.67,4.67,0,0,1-.15,6.12l-10,11a4.68,4.68,0,0,1-6.6.31l-20.3-18.48A4.68,4.68,0,0,1,102.87,47.53Z"/><path class="cls-11" d="M98.2,107.55l-10,11a4.66,4.66,0,0,1-6.6.31l-20.3-18.48a4.66,4.66,0,0,1-.72-6.08,4.17,4.17,0,0,0,.46.48l20.3,18.48a4.66,4.66,0,0,0,6.6-.31l10-11a4.32,4.32,0,0,0,.42-.53A4.67,4.67,0,0,1,98.2,107.55Z"/><path class="cls-2" d="M30.79,164a10,10,0,1,1,7.43-3.28h0A10,10,0,0,1,30.79,164Zm0-17.08A7,7,0,1,0,36,158.67h0a7,7,0,0,0-5.2-11.78Z"/><path class="cls-7" d="M106,97.93a5.1,5.1,0,0,1-3.45-1.33h0L81.48,77.37a5.12,5.12,0,0,1-.34-7.24l10.74-11.8A5.12,5.12,0,0,1,99.12,58l21.12,19.22a5.12,5.12,0,0,1,.34,7.24l-10.74,11.8A5.11,5.11,0,0,1,106,97.93Zm-2.1-2.81a3.12,3.12,0,0,0,4.41-.21l10.74-11.8a3.12,3.12,0,0,0-.21-4.41L97.78,59.48a3.12,3.12,0,0,0-4.41.21L82.62,71.49a3.12,3.12,0,0,0,.21,4.41Z"/><path class="cls-7" d="M127.21,74.67a5.08,5.08,0,0,1-3.44-1.33L102.65,54.12a5.12,5.12,0,0,1-.34-7.24l10.74-11.8a5.13,5.13,0,0,1,7.24-.34L141.41,54a5.13,5.13,0,0,1,.34,7.24L131,73a5.09,5.09,0,0,1-3.55,1.67ZM116.85,35.41a3.12,3.12,0,0,0-2.31,1l-10.74,11.8a3.12,3.12,0,0,0,.21,4.41l21.12,19.22a3.12,3.12,0,0,0,4.41-.21l10.74-11.8a3.13,3.13,0,0,0-.21-4.41L118.95,36.22A3.11,3.11,0,0,0,116.85,35.41Z"/><path class="cls-7" d="M84.82,121a5.09,5.09,0,0,1-3.44-1.33L60.26,100.4a5.13,5.13,0,0,1-.34-7.24l10.74-11.8A5.13,5.13,0,0,1,77.9,81L99,100.24a5.13,5.13,0,0,1,.34,7.24l-10.74,11.8a5.09,5.09,0,0,1-3.55,1.67ZM74.45,81.69a3.12,3.12,0,0,0-2.31,1L61.4,94.51a3.13,3.13,0,0,0,.21,4.41l21.11,19.22a3.12,3.12,0,0,0,4.41-.21l10.74-11.8a3.13,3.13,0,0,0-.21-4.41L76.55,82.5A3.11,3.11,0,0,0,74.45,81.69Z"/><path class="cls-7" d="M63.74,144.11a5.08,5.08,0,0,1-3.44-1.33L39.18,123.55a5.13,5.13,0,0,1-.34-7.24l10.74-11.8a5.13,5.13,0,0,1,7.24-.34L77.94,123.4a5.13,5.13,0,0,1,.34,7.23l-10.74,11.8A5.08,5.08,0,0,1,64,144.1ZM53.37,104.84a3.12,3.12,0,0,0-2.31,1l-10.74,11.8a3.13,3.13,0,0,0,.21,4.41l21.11,19.22a3.12,3.12,0,0,0,4.41-.21l10.74-11.8a3.12,3.12,0,0,0-.21-4.41L55.47,105.65A3.11,3.11,0,0,0,53.37,104.84Z"/><circle class="cls-1" cx="32.87" cy="157.97" r="19.06" transform="translate(-12.83 3.22) rotate(-4.7)"/><path class="cls-2" d="M32.83,178.53a20.59,20.59,0,1,1,1.72-.07h0Q33.69,178.53,32.83,178.53Zm0-38.11q-.72,0-1.45.06a17.56,17.56,0,0,0,2.88,35h0a17.56,17.56,0,0,0-1.43-35.05Z"/><circle class="cls-3" cx="33.49" cy="157.52" r="8.54" transform="translate(-12.79 3.27) rotate(-4.7)"/><path class="cls-2" d="M32.86,168a10.05,10.05,0,1,1,.83,0h0Q33.27,168,32.86,168Zm0-17.09-.58,0a7,7,0,0,0,1.15,14h0a7,7,0,0,0-.57-14.06Z"/><circle class="cls-1" cx="31.78" cy="155.42" r="19.06" transform="translate(-88.19 51.63) rotate(-37.58)"/><path class="cls-2" d="M31.8,176a20.54,20.54,0,1,1,12.51-4.26h0A20.45,20.45,0,0,1,31.8,176Zm0-38.1a17.55,17.55,0,1,0,10.73,31.46h0a17.55,17.55,0,0,0-10.73-31.46Z"/><circle class="cls-3" cx="32.06" cy="154.7" r="8.54" transform="translate(-87.69 51.65) rotate(-37.58)"/><path class="cls-2" d="M31.8,165.46a10.16,10.16,0,0,1-1.32-.09,10,10,0,1,1,1.32.09Zm0-17.08A7,7,0,1,0,36.07,161h0a7,7,0,0,0-4.3-12.62Z"/><path class="cls-4" d="M44.56,4H73.35A12.55,12.55,0,0,1,85.9,16.52V164.2A23.76,23.76,0,0,1,62.13,188H55.78A23.76,23.76,0,0,1,32,164.2V16.52A12.55,12.55,0,0,1,44.56,4Z" transform="translate(45.98 -15.91) rotate(24.95)"/><path class="cls-5" d="M115.21,37.29l-4.3,9.25A14.21,14.21,0,0,0,104,27.66L81,16.93a14.22,14.22,0,0,0-18.9,6.89l4.3-9.25a14.22,14.22,0,0,1,18.9-6.89l23.07,10.73A14.21,14.21,0,0,1,115.21,37.29Z"/><path class="cls-6" d="M59.67,156l-5.74,12.33A26.94,26.94,0,0,1,5.08,145.59l5.74-12.33A26.94,26.94,0,0,0,59.67,156Z"/><circle class="cls-1" cx="30.34" cy="155.16" r="19.06" transform="translate(-123.14 117.22) rotate(-65.05)"/><path class="cls-2" d="M30.33,175.73a20.61,20.61,0,1,1,7.06-1.26A20.49,20.49,0,0,1,30.33,175.73Zm0-38.12a17.56,17.56,0,1,0,15.89,25h0a17.55,17.55,0,0,0-15.89-25Z"/><circle class="cls-3" cx="30.26" cy="154.4" r="8.54" transform="translate(-122.49 116.7) rotate(-65.05)"/><path class="cls-7" d="M32.76,185a25.18,25.18,0,0,1-10.64-2.37L16.36,180A25.29,25.29,0,0,1,4.11,146.43L66.4,12.53A14.06,14.06,0,0,1,85.07,5.72l26.1,12.14A14,14,0,0,1,118,36.53L55.68,170.42A25.33,25.33,0,0,1,32.76,185ZM79.16,7.41a11.06,11.06,0,0,0-10,6.39L6.83,147.69a22.29,22.29,0,0,0,10.79,29.58L23.38,180A22.27,22.27,0,0,0,53,169.16L115.26,35.26a11,11,0,0,0-5.36-14.68L83.8,8.44A11,11,0,0,0,79.16,7.41Z"/><rect class="cls-12" x="55.47" y="49.43" width="36.8" height="24.2" rx="4.12" ry="4.12" transform="translate(32.85 -25.42) rotate(24.95)"/><rect class="cls-12" x="68.73" y="20.92" width="36.8" height="24.2" rx="4.12" ry="4.12" transform="translate(22.06 -33.67) rotate(24.95)"/><rect class="cls-12" x="42.32" y="78.16" width="36.8" height="24.2" rx="4.12" ry="4.12" transform="translate(43.74 -17.19) rotate(24.95)"/><rect class="cls-12" x="29" y="106.79" width="36.8" height="24.2" rx="4.12" ry="4.12" transform="translate(54.58 -8.9) rotate(24.95)"/><path class="cls-13" d="M67.21,119.92l-6.26,13.46a4.67,4.67,0,0,1-6.21,2.27L29.85,124.08a4.68,4.68,0,0,1-2.5-5.59,4.17,4.17,0,0,0,.58.32l24.88,11.58A4.67,4.67,0,0,0,59,128.12l6.26-13.46a4.17,4.17,0,0,0,.24-.62A4.66,4.66,0,0,1,67.21,119.92Z"/><path class="cls-13" d="M53.81,61.13a4.17,4.17,0,0,0,.58.32L79.28,73a4.67,4.67,0,0,0,6.2-2.26l6.27-13.48a4.18,4.18,0,0,0,.24-.62,4.68,4.68,0,0,1,1.69,5.89L87.41,76a4.67,4.67,0,0,1-6.2,2.26L56.31,66.72A4.67,4.67,0,0,1,53.81,61.13Z"/><path class="cls-13" d="M67.08,32.61a4.18,4.18,0,0,0,.58.32L92.55,44.51a4.68,4.68,0,0,0,6.2-2.26L105,28.78a4.18,4.18,0,0,0,.24-.62A4.67,4.67,0,0,1,106.95,34l-6.27,13.48a4.68,4.68,0,0,1-6.2,2.26L69.58,38.2A4.68,4.68,0,0,1,67.08,32.61Z"/><path class="cls-13" d="M80.53,91.29l-6.26,13.46A4.66,4.66,0,0,1,68.06,107L43.17,95.44a4.66,4.66,0,0,1-2.5-5.59,4.17,4.17,0,0,0,.58.32l24.88,11.58a4.66,4.66,0,0,0,6.21-2.26L78.6,86a4.32,4.32,0,0,0,.24-.63A4.67,4.67,0,0,1,80.53,91.29Z"/><path class="cls-2" d="M30.33,165.2a10,10,0,1,1,9.12-5.81h0A10.06,10.06,0,0,1,30.33,165.2Zm0-17.08a7,7,0,1,0,6.37,10h0a7,7,0,0,0-6.37-10Z"/><path class="cls-7" d="M83.61,80a5.09,5.09,0,0,1-2.15-.48l-25.89-12a5.12,5.12,0,0,1-2.48-6.8L59.82,46.2a5.13,5.13,0,0,1,6.8-2.48l25.89,12A5.13,5.13,0,0,1,95,62.57L88.27,77A5.13,5.13,0,0,1,83.61,80Zm-1.31-2.29a3.13,3.13,0,0,0,4.15-1.51l6.73-14.47a3.13,3.13,0,0,0-1.51-4.15l-25.89-12A3.12,3.12,0,0,0,61.64,47L54.9,61.52a3.12,3.12,0,0,0,1.51,4.15Z"/><path class="cls-7" d="M96.88,51.48A5.09,5.09,0,0,1,94.73,51L68.84,39a5.13,5.13,0,0,1-2.48-6.81l6.73-14.47a5.13,5.13,0,0,1,6.81-2.48l25.89,12a5.13,5.13,0,0,1,2.48,6.8l-6.73,14.47A5.13,5.13,0,0,1,96.88,51.48Zm-1.31-2.29a3.13,3.13,0,0,0,4.15-1.51l6.73-14.47a3.13,3.13,0,0,0-1.51-4.15L79,17a3.13,3.13,0,0,0-4.15,1.51L68.17,33a3.13,3.13,0,0,0,1.51,4.15Z"/><path class="cls-7" d="M70.23,108.31a5.11,5.11,0,0,1-2.16-.48l-25.89-12A5.13,5.13,0,0,1,39.7,89l6.73-14.47A5.13,5.13,0,0,1,53.24,72l25.89,12a5.12,5.12,0,0,1,2.48,6.8l-6.73,14.47a5.14,5.14,0,0,1-4.65,3ZM51.08,73.55a3.13,3.13,0,0,0-2.84,1.81L41.52,89.82A3.13,3.13,0,0,0,43,94l25.89,12a3.12,3.12,0,0,0,4.15-1.51L79.8,90a3.12,3.12,0,0,0-1.51-4.15l-25.89-12A3.1,3.1,0,0,0,51.08,73.55Z"/><path class="cls-7" d="M57,136.7a5.1,5.1,0,0,1-2.16-.48L29,124.17a5.13,5.13,0,0,1-2.48-6.8l6.73-14.47a5.13,5.13,0,0,1,6.8-2.48l25.89,12a5.13,5.13,0,0,1,2.48,6.81l-6.73,14.47a5.14,5.14,0,0,1-4.65,3ZM37.87,101.94a3.13,3.13,0,0,0-2.84,1.8l-6.73,14.47a3.13,3.13,0,0,0,1.51,4.15l25.89,12a3.13,3.13,0,0,0,4.15-1.51l6.73-14.47a3.13,3.13,0,0,0-1.51-4.15l-25.89-12A3.1,3.1,0,0,0,37.87,101.94Z"/><polygon class="cls-14" points="53.39 39.72 61.33 26.87 56.04 164.04 53.39 39.72"/><circle class="cls-1" cx="31.91" cy="157.4" r="19.06" transform="translate(-73.69 36.4) rotate(-29.65)"/><path class="cls-2" d="M31.95,178a20.54,20.54,0,1,1,10.13-2.69A20.57,20.57,0,0,1,31.95,178Zm-.06-38.1a17.55,17.55,0,1,0,15.29,8.87A17.44,17.44,0,0,0,31.88,139.85Z"/><circle class="cls-3" cx="32.29" cy="156.73" r="8.54" transform="translate(-73.31 36.49) rotate(-29.65)"/><path class="cls-2" d="M31.93,167.45a10.09,10.09,0,0,1-2.67-.36,10,10,0,1,1,2.67.36Zm0-17.09a7,7,0,1,0,3.49,13.17h0a7,7,0,0,0-1.62-12.91A7.09,7.09,0,0,0,31.9,150.36Z"/><circle class="cls-1" cx="29.85" cy="155.54" r="19.06" transform="translate(-121.93 110.28) rotate(-62.53)"/><path class="cls-2" d="M29.82,176.1A20.55,20.55,0,1,1,48.09,165h0A20.58,20.58,0,0,1,29.82,176.1ZM29.87,138a17.59,17.59,0,1,0,8.08,2A17.61,17.61,0,0,0,29.87,138Z"/><circle class="cls-3" cx="29.8" cy="154.78" r="8.54" transform="translate(-121.27 109.82) rotate(-62.53)"/><path class="cls-2" d="M29.84,165.59a10.07,10.07,0,1,1,3-.47A10,10,0,0,1,29.84,165.59Zm0-17.09a7,7,0,1,0,6.24,10.29h0a7,7,0,0,0-6.24-10.29Z"/><path class="cls-4" d="M14,.84H42.84A12.55,12.55,0,0,1,55.38,13.39V161.07a23.76,23.76,0,0,1-23.76,23.76H25.26A23.76,23.76,0,0,1,1.5,161.07V13.39A12.55,12.55,0,0,1,14,.84Z"/><path class="cls-5" d="M55.51,15.06v10.2A14.21,14.21,0,0,0,41.3,11.05H15.86A14.22,14.22,0,0,0,1.63,25.27V15.06A14.22,14.22,0,0,1,15.86.85H41.3A14.21,14.21,0,0,1,55.51,15.06Z"/><path class="cls-15" d="M55.38,145.29v13.6c-2.22,22.59-15.91,26.94-30.61,26.94S2.16,173.77,2.16,158.89v-13.6a26.78,26.78,0,0,0,26.62,26.94A26.78,26.78,0,0,0,55.38,145.29Z"/><circle class="cls-1" cx="28.44" cy="155.92" r="19.06"/><path class="cls-7" d="M28.44,176.47A20.56,20.56,0,1,1,49,155.92,20.58,20.58,0,0,1,28.44,176.47Zm0-38.11A17.56,17.56,0,1,0,46,155.92,17.58,17.58,0,0,0,28.44,138.36Z"/><circle class="cls-3" cx="28.04" cy="155.26" r="8.54"/><path class="cls-7" d="M31.62,187H25.27A25.29,25.29,0,0,1,0,161.72V14A14.06,14.06,0,0,1,14,0H42.84a14.06,14.06,0,0,1,14,14V161.72A25.29,25.29,0,0,1,31.62,187ZM14,3A11.06,11.06,0,0,0,3,14V161.72A22.29,22.29,0,0,0,25.27,184h6.35a22.29,22.29,0,0,0,22.26-22.26V14a11.06,11.06,0,0,0-11-11Z"/><rect class="cls-16" x="9.94" y="42.81" width="36.8" height="24.2" rx="4.12" ry="4.12"/><rect class="cls-16" x="9.94" y="11.36" width="36.8" height="24.2" rx="4.12" ry="4.12"/><rect class="cls-16" x="10.14" y="74.39" width="36.8" height="24.2" rx="4.12" ry="4.12"/><rect class="cls-16" x="10.14" y="105.98" width="36.8" height="24.2" rx="4.12" ry="4.12"/><path class="cls-17" d="M46.93,110.65v14.85a4.67,4.67,0,0,1-4.67,4.68H14.82a4.68,4.68,0,0,1-4.63-4,4.17,4.17,0,0,0,.66,0H38.3A4.67,4.67,0,0,0,43,121.54V106.69a4.17,4.17,0,0,0,0-.66A4.66,4.66,0,0,1,46.93,110.65Z"/><path class="cls-17" d="M10,63a4.17,4.17,0,0,0,.66,0H38.1a4.67,4.67,0,0,0,4.67-4.67V43.51a4.18,4.18,0,0,0,0-.66,4.68,4.68,0,0,1,4,4.63V62.34A4.67,4.67,0,0,1,42.07,67H14.61A4.67,4.67,0,0,1,10,63Z"/><path class="cls-17" d="M10,31.55a4.18,4.18,0,0,0,.66,0H38.1a4.68,4.68,0,0,0,4.67-4.67V12.06a4.18,4.18,0,0,0,0-.66,4.67,4.67,0,0,1,4,4.63V30.89a4.68,4.68,0,0,1-4.67,4.67H14.61A4.68,4.68,0,0,1,10,31.55Z"/><path class="cls-17" d="M46.93,79.07V93.92a4.66,4.66,0,0,1-4.67,4.67H14.82a4.66,4.66,0,0,1-4.63-4,4.17,4.17,0,0,0,.66,0H38.3A4.66,4.66,0,0,0,43,90V75.1a4.32,4.32,0,0,0,0-.67A4.67,4.67,0,0,1,46.93,79.07Z"/><path class="cls-7" d="M28.44,166a10,10,0,1,1,10-10A10.05,10.05,0,0,1,28.44,166Zm0-17.08a7,7,0,1,0,7,7A7.05,7.05,0,0,0,28.44,148.88Z"/><path class="cls-7" d="M42.82,68H14.26a5.13,5.13,0,0,1-5.12-5.12v-16a5.13,5.13,0,0,1,5.12-5.12H42.82a5.13,5.13,0,0,1,5.12,5.12v16A5.13,5.13,0,0,1,42.82,68ZM14.26,43.81a3.13,3.13,0,0,0-3.12,3.12v16A3.13,3.13,0,0,0,14.26,66H42.82a3.13,3.13,0,0,0,3.12-3.12v-16a3.13,3.13,0,0,0-3.12-3.12Z"/><path class="cls-7" d="M42.82,36.56H14.26a5.13,5.13,0,0,1-5.12-5.12v-16a5.13,5.13,0,0,1,5.12-5.12H42.82a5.13,5.13,0,0,1,5.12,5.12v16A5.13,5.13,0,0,1,42.82,36.56ZM14.26,12.36a3.13,3.13,0,0,0-3.12,3.12v16a3.13,3.13,0,0,0,3.12,3.12H42.82a3.13,3.13,0,0,0,3.12-3.12v-16a3.13,3.13,0,0,0-3.12-3.12Z"/><path class="cls-7" d="M42.62,99.32H14.07A5.13,5.13,0,0,1,8.94,94.2v-16a5.13,5.13,0,0,1,5.12-5.12H42.62a5.13,5.13,0,0,1,5.12,5.12v16A5.13,5.13,0,0,1,42.62,99.32ZM14.07,75.12a3.13,3.13,0,0,0-3.12,3.12v16a3.13,3.13,0,0,0,3.12,3.12H42.62a3.13,3.13,0,0,0,3.12-3.12v-16a3.13,3.13,0,0,0-3.12-3.12Z"/><path class="cls-7" d="M42.62,130.63H14.07a5.13,5.13,0,0,1-5.12-5.12v-16a5.13,5.13,0,0,1,5.12-5.12H42.62a5.13,5.13,0,0,1,5.12,5.12v16A5.13,5.13,0,0,1,42.62,130.63Zm-28.55-24.2a3.13,3.13,0,0,0-3.12,3.12v16a3.13,3.13,0,0,0,3.12,3.12H42.62a3.13,3.13,0,0,0,3.12-3.12v-16a3.13,3.13,0,0,0-3.12-3.12Z"/><path class="cls-14" d="M107.79,53.61l6.42-11.71s5.67-15.12,1.13-17.38c0,0,10.58.76,15.49,8.31L65.46,146.57Z"/><polygon class="cls-14" points="145.71 74.64 53.53 168.49 130.59 84.84 135.88 78.8 145.71 74.64"/></g></g></svg>