<svg xmlns="http://www.w3.org/2000/svg" viewBox="0 0 173.81 204.45"><defs><style>.cls-1,.cls-2{fill:#676a72;}.cls-1,.cls-6{opacity:0.15;}.cls-3{fill:#818487;}.cls-4{fill:#4e515c;}.cls-5{fill:#515862;}.cls-12,.cls-6{fill:#2b0f2b;}.cls-7{fill:#fff;}.cls-8{fill:#cfe1f0;}.cls-9{fill:#3e4250;}.cls-10{fill:#a4a4a4;}.cls-11{fill:#ed4043;}.cls-12{opacity:0.35;}.cls-13{fill:#fec451;}.cls-14{fill:#f7ac3d;}.cls-15{fill:#eec3a6;}.cls-16{fill:#dfae8f;}.cls-17{fill:#b7202f;}</style></defs><title>Asset 220</title><g id="Layer_2" data-name="Layer 2"><g id="Layer_1-2" data-name="Layer 1"><rect class="cls-1" x="57.81" y="17.71" width="116" height="183" rx="12" ry="12"/><path class="cls-1" d="M18.81,10.71h0a12,12,0,0,0-12,12v159c0,6.6.4,12,7,12l-1,8c6.6,0,15-13.4,15-20l3-159A12,12,0,0,0,18.81,10.71Z"/><rect class="cls-2" x="41.65" y="10.22" width="123.72" height="184" rx="9.39" ry="9.39"/><path class="cls-3" d="M87.8,189.94a13.1,13.1,0,0,1-5.23,3.39,26.85,26.85,0,0,1-8.57,1l-10.71.07c-6.69,0-15.37,1.63-19.51-3.63-3-3.85-2.15-11.14-2.15-16q0-73.31.06-146.62c0-3.89-.93-8,1.12-11.31,3.79-6.1,9.27-6.7,16.45-6.63l16.61.12a3.62,3.62,0,0,1,2.83.86c.72.86.49,2.13.2,3.21-3.3,12.34-9.34,23-14.94,34.32-9.57,19.39-10.3,40.05-8.89,61.24.66,9.92,1.75,20.2,5.89,29.35,3.87,8.54,11.21,13.95,18.61,19.25C89.48,165.63,98.34,178.91,87.8,189.94Z"/><path class="cls-4" d="M165.79,21.12l-2,158.21c0,8.23-4.9,14.89-11,14.89H116.2c4.12,0,12-17,13.5-20,12.85-25.76,14.95-56.62,13.92-84.93A353.29,353.29,0,0,0,140,52.7a129.08,129.08,0,0,1-1.55-21.9c.06-2.11,1.43-20.58,3.83-20.58h10.59C158.88,10.22,165.79,12.89,165.79,21.12Z"/><rect class="cls-5" x="55.22" y="9.43" width="3" height="184"/><rect class="cls-6" x="53.31" y="10.71" width="2" height="184"/><polygon class="cls-7" points="165.38 122.05 41.65 122.05 40.86 91.12 165.38 91.12 165.38 122.05"/><path class="cls-8" d="M165.79,91.53l-2,28.93H41.06l-.13-4.76H146a11.41,11.41,0,0,0,11.41-11.41V90.53Z"/><path class="cls-9" d="M165.79,131.22v48.11c0,8.23-3.46,14.89-7.74,14.89h-1.78V155.57C156.27,145.31,160.07,136.3,165.79,131.22Z"/><path class="cls-5" d="M156,195.72H51a10.9,10.9,0,0,1-10.89-10.89V19.61A10.9,10.9,0,0,1,51,8.72H156a10.9,10.9,0,0,1,10.89,10.89V184.84A10.9,10.9,0,0,1,156,195.72ZM51,11.72a7.9,7.9,0,0,0-7.89,7.89V184.84A7.9,7.9,0,0,0,51,192.72H156a7.9,7.9,0,0,0,7.89-7.89V19.61A7.9,7.9,0,0,0,156,11.72Z"/><rect class="cls-9" x="152.69" y="27.67" width="6.34" height="25.38" rx="2" ry="2"/><rect class="cls-10" x="46.41" y="148.22" width="3.17" height="22.21" rx="1" ry="1"/><rect class="cls-10" x="46.41" y="173.6" width="3.17" height="3.17" rx="1" ry="1"/><rect class="cls-5" x="41.65" y="120.55" width="123.72" height="3"/><rect class="cls-5" x="40.86" y="89.62" width="124.52" height="3"/><rect class="cls-11" x="132.06" y="0.71" width="15.86" height="201.45" rx="5" ry="5"/><path class="cls-5" d="M142.13,204.45h-5.86a6.51,6.51,0,0,1-6.5-6.5V6.5a6.51,6.51,0,0,1,6.5-6.5h5.86a6.51,6.51,0,0,1,6.5,6.5V197.95A6.51,6.51,0,0,1,142.13,204.45ZM136.27,3a3.5,3.5,0,0,0-3.5,3.5V197.95a3.5,3.5,0,0,0,3.5,3.5h5.86a3.5,3.5,0,0,0,3.5-3.5V6.5a3.5,3.5,0,0,0-3.5-3.5Z"/><rect class="cls-5" x="134.74" y="3.09" width="1" height="199.07"/><rect class="cls-12" x="137.91" y="3.09" width="1" height="199.07"/><rect class="cls-5" x="138.91" y="3.09" width="1" height="199.07"/><rect class="cls-5" x="142.08" y="3.09" width="1" height="199.07"/><path class="cls-13" d="M22.25,180.74v-165A10.34,10.34,0,0,0,11.94,5.47h0A10.34,10.34,0,0,0,1.63,15.78v165l7.73,17.85a2.81,2.81,0,0,0,5.15,0Z"/><path class="cls-14" d="M22.25,18.95v165l-6.49,15a4.16,4.16,0,0,1-7.63,0l-6.49-15V167.2A6.73,6.73,0,0,0,2.74,167c3.55-.86,6.27-3.9,7.63-7.3S12,152.63,12.21,149c1.57-26.73,1.74-53.52,1.25-80.29-.24-12.88-.62-25.81,1-38.58a98.16,98.16,0,0,1,4.2-19A10.24,10.24,0,0,1,22.25,18.95Z"/><path class="cls-15" d="M22.25,179v1.74L14.4,198.85a2.68,2.68,0,0,1-4.92,0L1.63,180.74V179L7,174.4l4.92-4,4.92,4Z"/><path class="cls-16" d="M20.67,179v1.74L12.74,199A2.59,2.59,0,0,1,8,199H8l7.93-18.3V179l-5.39-4.6-2.54-2,2.38-1.92,4.92,4Z"/><path class="cls-7" d="M1.63,43.53H22.25V30.84H1.63Z"/><path class="cls-8" d="M20.67,32.43V45.12h-7V32.43Z"/><path class="cls-5" d="M20.71,179.53l-6.08-4.9a4.52,4.52,0,0,0-5.64,0l-6.08,4.9L1,177.19l6.08-4.9a7.53,7.53,0,0,1,9.4,0l6.08,4.9Z"/><rect class="cls-5" x="1.5" y="42.83" width="20.62" height="3"/><path class="cls-11" d="M22.13,15.78V30.84H1.63V15.78A10.36,10.36,0,0,1,10.9,5.51a8.7,8.7,0,0,1,.92,0q.52,0,1,0A10.36,10.36,0,0,1,22.13,15.78Z"/><path class="cls-17" d="M22.13,17.36V32.43H1.63s0-6,0-6c0,.51,5.47-.41,6-.56A8.63,8.63,0,0,0,14,19.37a12.37,12.37,0,0,0-1-7.54c-.42-1-2-4.85-3.35-4.5A9.15,9.15,0,0,1,10.9,7.1a8.7,8.7,0,0,1,.92,0q.52,0,1,0A10.36,10.36,0,0,1,22.13,17.36Z"/><path class="cls-5" d="M11.81,202.17a4,4,0,0,1-3.72-2.44L2.57,187A31,31,0,0,1,0,174.58V15.78a11.81,11.81,0,0,1,23.62,0v158.8A31,31,0,0,1,21,187l-5.52,12.74A4,4,0,0,1,11.81,202.17ZM11.81,7A8.82,8.82,0,0,0,3,15.78v158.8A28,28,0,0,0,5.33,185.8l5.52,12.74a1.05,1.05,0,0,0,1.93,0l5.52-12.74a28.05,28.05,0,0,0,2.33-11.22V15.78A8.82,8.82,0,0,0,11.81,7Z"/><rect class="cls-5" x="1.5" y="30.14" width="20.62" height="3"/><rect class="cls-5" x="16.14" y="49.88" width="1" height="113.41"/><rect class="cls-5" x="11.38" y="49.88" width="1" height="113.41"/><rect class="cls-5" x="6.62" y="49.88" width="1" height="113.41"/></g></g></svg>