<?xml version="1.0" encoding="utf-8"?>
<!-- Generator: Adobe Illustrator 22.0.1, SVG Export Plug-In . SVG Version: 6.00 Build 0)  -->
<svg version="1.1" id="Layer_1" xmlns="http://www.w3.org/2000/svg" xmlns:xlink="http://www.w3.org/1999/xlink" x="0px" y="0px"
	 viewBox="0 0 1300 400" style="enable-background:new 0 0 1300 400;" xml:space="preserve">
<style type="text/css">
	.st0{fill:url(#SVGID_1_);stroke:#000000;stroke-width:1.6448;stroke-miterlimit:10;}
	.st1{fill:#E9E8E8;}
	.st2{fill:none;stroke:#E9E8E8;stroke-width:0.8631;stroke-miterlimit:10;}
	.st3{fill:#919191;}
	.st4{fill:#B7B7B8;}
	.st5{fill:#4BA5DC;}
	.st6{fill:#564B9F;}
	.st7{fill:#191919;}
	.st8{fill:#2B2C2B;}
	.st9{fill:#171717;}
	.st10{fill:#FFFFFF;stroke:#171717;stroke-width:0.5754;stroke-miterlimit:10;}
	.st11{opacity:0.23;fill:#6D6C6D;enable-background:new    ;}
	.st12{opacity:0.24;fill:#6D6C6D;enable-background:new    ;}
	.st13{fill:#FFFFFF;}
	.st14{opacity:0.19;fill:#6D6C6D;enable-background:new    ;}
	.st15{opacity:0.29;fill:#6D6C6D;enable-background:new    ;}
	.st16{opacity:0.26;fill:#6D6C6D;enable-background:new    ;}
	.st17{opacity:0.34;fill:#6D6C6D;enable-background:new    ;}
	.st18{opacity:0.47;fill:#6D6C6D;enable-background:new    ;}
	.st19{fill:#171717;stroke:#171717;stroke-width:0.5754;stroke-miterlimit:10;}
	.st20{opacity:0.18;fill:#6D6C6D;enable-background:new    ;}
	.st21{opacity:0.28;fill:#6D6C6D;enable-background:new    ;}
	.st22{opacity:0.33;fill:#6D6C6D;enable-background:new    ;}
	.st23{opacity:0.38;fill:#6D6C6D;enable-background:new    ;}
	.st24{opacity:0.25;fill:#6D6C6D;enable-background:new    ;}
	.st25{fill:#72CAED;}
</style>
<linearGradient id="SVGID_1_" gradientUnits="userSpaceOnUse" x1="1305.368" y1="202.4277" x2="24215.3223" y2="202.4277" gradientTransform="matrix(-5.671731e-02 0 0 -1 1373.7325 402)">
	<stop  offset="0" style="stop-color:#282973"/>
	<stop  offset="1" style="stop-color:#44BDED"/>
</linearGradient>
<rect x="0.3" y="-0.4" class="st0" width="1299.4" height="400"/>
<g id="background_n3">
	<g>
		<g>
			<path class="st1" d="M260.2,318c0.4,3.3,1.6,6.3,3.5,8.7c0.4,0.4-0.2,1.1-0.6,0.7c-2.1-2.5-3.4-5.6-3.7-9.1
				C259.4,317.7,260.2,317.4,260.2,318L260.2,318z"/>
		</g>
	</g>
	<g>
		<g>
			<path class="st1" d="M260.1,318.5c-1,2.7-2.3,5.1-4,7.3c-0.4,0.5-0.9-0.2-0.6-0.7c1.6-2.1,2.9-4.5,3.8-7.1
				C259.6,317.5,260.3,318,260.1,318.5L260.1,318.5z"/>
		</g>
	</g>
	<g>
		<g>
			<path class="st1" d="M263,327.1c0-0.1,0.1-0.2,0.1-0.2c0.2,0.2,0.5,0.4,0.7,0.6c-1.8,1.7-3.1,3.8-4.1,6.2
				c-0.2,0.5-0.9,0.1-0.7-0.5c1-2.5,2.4-4.6,4.2-6.4c0.4-0.3,0.8,0.1,0.7,0.6c0,0.1-0.1,0.2-0.1,0.2
				C263.4,328.1,262.8,327.7,263,327.1L263,327.1z"/>
		</g>
	</g>
	<g>
		<g>
			<path class="st1" d="M258.9,333.4c-0.8-2.6-2-5-3.2-7.3c-0.3-0.5,0.4-1,0.7-0.5c1.3,2.4,2.4,4.9,3.3,7.5
				C259.8,333.7,259.1,334,258.9,333.4L258.9,333.4z"/>
		</g>
	</g>
	<g>
		<g>
			<path class="st1" d="M350.5,214.7c0.9,3.1,2,6.2,3.7,8.8c0.3,0.5-0.3,1.1-0.6,0.7c-1.9-2.7-3-6-3.9-9.2
				C349.6,214.4,350.5,214.2,350.5,214.7L350.5,214.7z"/>
		</g>
	</g>
	<g>
		<g>
			<path class="st1" d="M350.5,215c-0.6,1.5-0.7,3.3-1.2,4.9c-0.5,1.5-0.9,2.9-1.5,4.3c-0.2,0.5-0.9,0.1-0.7-0.5
				c0.7-1.7,1.3-3.4,1.8-5.1c0.4-1.3,0.6-2.8,1-4C350.1,213.9,350.7,214.4,350.5,215L350.5,215z"/>
		</g>
	</g>
	<g>
		<g>
			<path class="st1" d="M354.1,224.2c-0.7,0.4-1.3,2.1-1.6,3c-0.5,1.2-0.8,2.5-1.1,3.8c-0.1,0.6-0.9,0.3-0.7-0.2
				c0.4-1.6,0.8-3.1,1.4-4.6c0.5-1,0.8-2.3,1.9-2.8C354.4,223,354.6,223.9,354.1,224.2L354.1,224.2z"/>
		</g>
	</g>
	<g>
		<g>
			<path class="st1" d="M350.6,231.1c-0.9-2.4-2.1-4.7-3.3-6.9c-0.3-0.5,0.4-1,0.7-0.5c1.2,2.2,2.3,4.5,3.3,6.9
				C351.5,231.2,350.8,231.7,350.6,231.1L350.6,231.1z"/>
		</g>
	</g>
	<g>
		<g>
			<path class="st1" d="M317.5,161.6c0.7,2.6,1.7,4.8,3.1,6.8c0.4,0.5-0.3,1.1-0.6,0.7c-1.6-2.1-2.7-4.5-3.4-7.2
				C316.6,161.3,317.3,161.1,317.5,161.6L317.5,161.6z"/>
		</g>
	</g>
	<g>
		<g>
			<path class="st1" d="M317.5,162.1c-0.5,2.3-0.9,5.1-2.2,7c-0.3,0.5-0.8-0.2-0.6-0.7c1.2-1.7,1.7-4.4,2.1-6.5
				C316.9,161.3,317.6,161.5,317.5,162.1L317.5,162.1z"/>
		</g>
	</g>
	<g>
		<g>
			<path class="st1" d="M320.8,169.4c-0.7,0.5-1.3,2.3-1.7,3.2c-0.5,1.2-0.8,2.4-1.1,3.6c-0.1,0.6-0.9,0.3-0.7-0.2
				c0.4-1.5,0.8-2.9,1.4-4.3c0.4-1,0.9-2.6,1.8-3.1C320.8,168.3,321.3,169,320.8,169.4L320.8,169.4z"/>
		</g>
	</g>
	<g>
		<g>
			<path class="st1" d="M317.2,176c-0.7-2.4-1.5-4.6-2.4-6.9c-0.3-0.5,0.5-1,0.7-0.5c1,2.3,1.9,4.6,2.5,7.1
				C318.1,176.3,317.3,176.6,317.2,176L317.2,176z"/>
		</g>
	</g>
	<g>
		<g>
			<path class="st1" d="M150.4,249.8c0.6,1.7,1.2,3.5,2.5,4.7c0.4,0.4-0.2,1-0.6,0.7c-1.4-1.3-2.1-3.2-2.7-5.1
				C149.5,249.4,150.2,249.2,150.4,249.8L150.4,249.8z"/>
		</g>
	</g>
	<g>
		<g>
			<path class="st1" d="M150.1,250.2c-0.4,1.6-1,3.1-1.9,4.4c-0.3,0.5-1,0-0.7-0.5c0.8-1.2,1.4-2.6,1.8-4.1
				C149.5,249.4,150.3,249.6,150.1,250.2L150.1,250.2z"/>
		</g>
	</g>
	<g>
		<g>
			<path class="st1" d="M152.7,255.2c-0.8,1.3-1.5,2.7-1.9,4.3c-0.1,0.6-0.9,0.3-0.7-0.2c0.4-1.7,1.1-3.3,2.1-4.7
				C152.5,254.1,153.1,254.7,152.7,255.2L152.7,255.2z"/>
		</g>
	</g>
	<g>
		<g>
			<path class="st1" d="M150.1,259.8c-0.7-1.9-1.6-3.7-2.6-5.3c-0.3-0.5,0.4-0.9,0.7-0.5c1,1.7,2,3.4,2.6,5.3
				C151,259.9,150.4,260.3,150.1,259.8L150.1,259.8z"/>
		</g>
	</g>
	<g>
		<g>
			<path class="st1" d="M102.2,322.1c0.6,1.8,1.4,3.5,2.4,5c0.4,0.5-0.3,1.1-0.6,0.7c-1.2-1.6-2.1-3.4-2.6-5.4
				C101.2,321.8,102.1,321.6,102.2,322.1L102.2,322.1z"/>
		</g>
	</g>
	<g>
		<g>
			<path class="st1" d="M102.3,322.9c-0.4,0.8-0.5,1.8-0.7,2.6c-0.3,0.8-0.7,1.6-1.1,2.3c-0.3,0.5-1,0-0.7-0.5
				c0.5-0.8,0.9-1.6,1.2-2.6c0.3-0.8,0.4-1.6,0.7-2.4C101.8,321.9,102.5,322.4,102.3,322.9L102.3,322.9z"/>
		</g>
	</g>
	<g>
		<g>
			<path class="st1" d="M104.6,327.5c-0.7,1.2-1.2,2.4-1.5,3.8c-0.1,0.4-0.6,0.5-0.7,0.1c-0.6-1.3-1.3-2.4-2.3-3.3
				c-0.5-0.3,0-1.2,0.4-0.8c1.1,1,2.1,2.1,2.6,3.6c-0.3,0-0.5,0.1-0.7,0.1c0.4-1.4,0.9-2.8,1.6-4C104.2,326.6,104.9,327,104.6,327.5
				L104.6,327.5z"/>
		</g>
	</g>
	<polygon class="st2" points="93.9,196.5 96.7,195.2 99.1,197.1 98.9,193.7 101.2,191.6 98.3,190.7 97.3,187.5 95.7,190.4 
		92.8,190.5 94.7,193.2 	"/>
	<g>
		<g>
			<path class="st1" d="M98.6,185.6c-4-8-9-15.3-14.7-21.7c-0.4-0.4,0.2-1.1,0.6-0.7c5.8,6.4,10.8,13.8,14.9,21.9
				C99.6,185.7,98.8,186.2,98.6,185.6L98.6,185.6z"/>
		</g>
	</g>
	<g>
		<g>
			<path class="st1" d="M92.8,184.1c-6.5-11.4-14.6-21.3-24.1-29.3c-0.4-0.3,0-1.2,0.4-0.8c9.5,8.1,17.8,18.2,24.3,29.7
				C93.9,184.1,93.1,184.6,92.8,184.1L92.8,184.1z"/>
		</g>
	</g>
	<g>
		<g>
			<path class="st1" d="M91.4,193.1c-3.2-4.5-6.5-8.9-10-13c-0.4-0.4,0.2-1.1,0.6-0.7c3.5,4.1,6.8,8.5,10,13
				C92.3,192.8,91.7,193.5,91.4,193.1L91.4,193.1z"/>
		</g>
	</g>
	<g>
		<g>
			<path class="st1" d="M182.4,137.1c2.1-5.1-2.4-9.9-6.3-10.7c-4.8-1-10,1-14.9,1.5c-9.3,0.9-18.7-0.4-27.7-3.7
				c-4.5-1.7-8.8-3.9-12.9-6.5c-4.4-2.8-8.7-6-13.1-8.8c-4.5-2.8-9.1-5.2-14.2-6.1c-4.9-1-9.9-0.2-14.5,2c-4.3,2.1-8.8,5.2-12.1,9
				c-3.5,4-4.6,9.3-2.6,14.6c4,10.5,15.5,12.1,24.1,12.5c9.2,0.4,18.7-0.6,27.8,2.4c9.1,3.1,15.9,10.9,24,16.6
				c8.1,5.8,17.5,9.7,27.1,9c8.1-0.6,16.3-5,21.4-12.6c1.2-1.9,2.2-3.9,3.1-6.1c0.2-0.6,0.9-0.1,0.7,0.5
				c-3.4,8.9-10.4,15.1-18.3,17.8c-9,3.1-18.7,1.1-27.1-3.3c-4.7-2.4-9-5.6-13.2-9.1c-4.1-3.4-8.1-7-12.7-9.5
				c-9.6-5.3-20.5-4.2-30.8-4.5c-8.6-0.2-19.6-1.1-25.2-10c-2.3-3.7-3.5-8.7-2.1-13.2c1.6-4.9,5.5-8.1,9-10.7
				c4.1-3.1,8.7-5.5,13.4-6.3c5-0.8,10.1,0.3,14.8,2.3c10.1,4.3,18.5,12.5,28.4,17.2c9.5,4.5,20,6.6,30.2,6c2.8-0.2,5.6-0.6,8.3-1.1
				c2.4-0.5,4.8-1,7.4-0.8c3.8,0.3,7.6,2.5,8.9,7c0.6,1.8,0.5,3.6-0.3,5.4C182.9,138,182.2,137.6,182.4,137.1L182.4,137.1z"/>
		</g>
	</g>
	<g>
		<g>
			<path class="st1" d="M170.8,133.3c-13.7,2.1-27.9,0.5-40.9-4.8c-12.7-5.1-24.2-15.3-37.8-16.6c-6.8-0.7-13.9,0.9-19.1,6.3
				c-0.4,0.4-0.9-0.2-0.6-0.7c9.4-9.7,23.1-7.3,33.9-2.2c6.5,3.1,12.7,7.2,19.3,10.3c6.7,3.2,13.7,5.4,20.9,6.6
				c8.1,1.4,16.3,1.4,24.3,0.2C171.3,132.3,171.3,133.2,170.8,133.3L170.8,133.3z"/>
		</g>
	</g>
	<g>
		<g>
			<path class="st1" d="M149.8,151.3c-5.3-0.5-10.1-3.4-14.6-6.5c-4.9-3.4-9.8-6.9-15.5-8.4c-12.2-3.3-24.9,0.4-37.1-2.6
				c-5.4-1.3-12-5.2-11.5-12.9c0.1-0.6,0.8-0.6,0.8,0c-0.6,7.9,6.7,11.2,12,12.3c5.9,1.2,11.9,1,17.9,0.9c5.8-0.1,11.6-0.2,17.3,1.2
				c5.2,1.3,9.8,4.1,14.4,7.2c5.1,3.5,10.4,7.3,16.4,7.9C150.3,150.4,150.3,151.4,149.8,151.3L149.8,151.3z"/>
		</g>
	</g>
	<g>
		<g>
			<path class="st1" d="M128.9,158.4c-6.2-5-12.7-9.7-20.1-11.9c-7.9-2.4-16.2-1.6-24.3-0.8c-0.5,0.1-0.5-0.9,0-0.9
				c8.2-0.8,16.5-1.5,24.6,0.9c7.4,2.2,14,6.9,20.2,12C129.8,158,129.4,158.8,128.9,158.4L128.9,158.4z"/>
		</g>
	</g>
	<g>
		<g>
			<path class="st1" d="M296.5,141c1.6-1.2,3-2.9,3.4-5.2c0.5-2.1-0.2-4.5-1.8-5.8c-1.6-1.3-3.7-0.7-5.5-0.9
				c-1.5-0.1-2.9-0.6-4.2-1.2c-6.1-3-9.7-9.8-14.3-14.9c-2.3-2.6-5-5.2-8.3-6c-3-0.8-6.9,0.1-7.6,4.1c-0.8,4.8,2.9,8.3,5.9,10.6
				c3.4,2.6,6.7,5.3,10.2,7.9c3.6,2.9,7.3,5.9,11.1,8.6c3.5,2.5,7.9,4.5,11.8,1.8c0.5-0.3,0.8,0.5,0.4,0.8c-3.2,2.2-7,1.6-10.2-0.2
				c-4.1-2.3-7.9-5.8-11.8-8.8c-3.9-3.1-7.9-6.1-11.8-9.3c-2.9-2.3-6-5.1-6.3-9.5c-0.3-3.7,1.9-6.5,4.8-7.1c3.3-0.7,6.5,0.9,9.1,3.1
				c6.4,5.3,10.3,14.8,17.8,18.3c1.1,0.5,2.3,0.9,3.5,1s2.3-0.1,3.5,0.1c1.8,0.2,3.2,1.2,4,3.1c1.8,4-0.4,8.2-3.3,10.4
				C296.5,142.1,296,141.3,296.5,141L296.5,141z"/>
		</g>
	</g>
	<g>
		<g>
			<path class="st1" d="M273.6,103c0.5-4.1-3.8-5.3-6.2-6.6c-1.2-0.7-2.3-1.6-3.5-2.5c-0.6-0.4-1.1-0.9-1.7-1.2
				c-0.7-0.4-1.6-1.1-2.1-0.2c-0.5,0.6-0.3,0.8,0,1.5c0.1,0.3,0.3,0.7,0.5,1c0.4,0.8,0.8,1.6,1.3,2.2c1.1,1.3,2.6,1.5,4.1,2.2
				c1.1,0.5,2.1,1.1,3.2,1.8C270.3,102.1,271.9,104.2,273.6,103c0.4-0.2,0.7,0.6,0.3,0.9c-1.4,0.9-2.7,0.1-3.9-0.9
				c-1.9-1.6-3.7-2.7-6-3.5c-1.8-0.6-2.8-1.7-3.8-3.5c-0.6-1-1.9-3.1-1-4.4c0.7-1.1,2.1-0.5,3.1,0c1.9,1.1,3.5,2.7,5.3,3.8
				c2.8,1.6,7.4,2.9,6.8,7.8C274.3,103.8,273.5,103.6,273.6,103L273.6,103z"/>
		</g>
	</g>
	<g>
		<g>
			<path class="st1" d="M295.1,135.3c0.8-0.2,0.7-1,0.6-1.6c-0.3-0.7-0.7-0.9-1.3-1.2c-0.7-0.2-1.4-0.2-2.1-0.3
				c-1.5-0.3-2.9-0.7-4.3-1.4c-2.6-1.3-5-3.1-7.3-5.2c-2.5-2.4-4.9-5-7.2-7.6c-2.3-2.6-4.8-5.8-8.3-5.6c0.1-0.2,0.3-0.3,0.4-0.5
				c-0.3,3.6,2.6,6.1,4.9,7.9c2.7,2.2,5.4,4.5,8.1,6.8c2.5,2.1,4.9,4.3,7.6,6.2c1.3,1,2.6,1.9,4,2.5c1.4,0.6,3.5,1.5,4.7,0
				c0.4-0.4,0.9,0.2,0.6,0.7c-1.8,2.4-5.4,0.4-7.4-0.7c-3.4-2-6.3-4.9-9.4-7.5c-3.2-2.7-6.4-5.3-9.6-8c-2.1-1.9-4.4-4.4-4.1-7.9
				c0-0.2,0.2-0.5,0.4-0.5c3.5-0.1,6.3,3.1,8.7,5.7c3.1,3.4,6,6.9,9.4,9.7c1.7,1.3,3.4,2.5,5.2,3.3c1.8,0.8,3.6,1.1,5.5,1.5
				c1.1,0.2,2.2,0.8,2.4,2.2c0.2,1.1-0.3,2.2-1.2,2.4C294.8,136.3,294.6,135.4,295.1,135.3L295.1,135.3z"/>
		</g>
	</g>
	<g>
		<g>
			<path class="st1" d="M317.3,186.6c0.8,1.6,0.5,3.6-0.8,4.8c-1.8,1.7-3.7-0.1-5.3-1.3c-1.3-1-3.1-1.7-4,0.3c-0.4,0.9-0.6,2-0.9,3
				c-0.3,0.7-0.7,1.3-1.3,1.7c-1.2,0.6-2.4-0.5-3.6-0.2c-0.5,0.1-0.7-0.8-0.2-0.9c0.9-0.2,1.6,0.2,2.5,0.4c1.5,0.2,1.9-0.9,2.2-2.3
				c0.4-1.4,0.7-3,2-3.6c1.6-0.8,3.2,0.5,4.4,1.5c1,0.8,2.3,1.9,3.5,1c1-0.8,1.4-2.5,0.7-3.7C316.4,186.6,317.1,186.1,317.3,186.6
				L317.3,186.6z"/>
		</g>
	</g>
	<g>
		<g>
			<path class="st1" d="M302,184.8c0.6,1.7-0.5,3-1.8,3.6c-1.1,0.5-7,0.8-6.6,3c0.1,0.6-0.7,0.8-0.7,0.2c-0.7-4.8,9.9-2,8.4-6.5
				C301.1,184.5,301.9,184.2,302,184.8L302,184.8z"/>
		</g>
	</g>
	<g>
		<g>
			<path class="st1" d="M288.7,306.8c-0.5,0.9-1.4,0.6-1.8-0.3c-0.8-2-0.8-4.4-2.7-5.7c-2-1.3-3.3,0.9-5.1,1.1
				c-1.5,0.2-2.9-0.7-3.9-1.9c-1.2-1.5-1.9-3.4-2.6-5.2c-0.5-1-1.1-1.6-2.1-0.7c-0.3,0.3-0.6,0.6-0.8,0.9c-0.4,0.4-0.7,0.7-1.2,0.9
				c-2.2,1.2-5.1,0.1-6.3-2.4c-0.3-0.5,0.5-1,0.7-0.5c0.7,1.5,2.1,2.4,3.6,2.4c1.8,0,2.4-1.2,3.7-2.3c2.4-2.1,3.5,2.6,4.4,4.4
				c1,2,2.8,4,5,3.2c1.2-0.5,2.1-1.6,3.5-1.3c1.1,0.2,2.1,1,2.8,2.1c0.4,0.6,0.7,1.2,0.8,1.9c0.2,0.5,0.3,0.9,0.5,1.4
				c0.1,0.2,0.5,1.7,0.7,1.5C288.3,305.9,289,306.3,288.7,306.8L288.7,306.8z"/>
		</g>
	</g>
	<g>
		<g>
			<path class="st1" d="M271.6,303.1c-0.4-3.5-4.7-1-6.2-0.8c-1.5,0.2-2.8-0.4-3.5-2c-0.5-1.1-0.7-2.4-1.8-2.9
				c-0.9-0.4-2.1-0.1-3.1-0.3c-1.9-0.3-3.5-1.1-5-2.4c-0.5-0.3,0-1.2,0.4-0.8c1,0.9,2.2,1.6,3.5,2s2.4,0.3,3.6,0.5
				c2,0.2,2.2,1.7,3.1,3.5c1.5,3.3,4.7,0.4,7,0.5c1.4,0.1,2.7,1.1,2.9,2.8C272.6,303.7,271.7,303.7,271.6,303.1L271.6,303.1z"/>
		</g>
	</g>
	<g>
		<g>
			<path class="st1" d="M256.4,232.2c0.2,1.8,0.9,3.5,2.1,4.7c0.4,0.4-0.2,1.1-0.6,0.7c-1.4-1.4-2.1-3.2-2.3-5.3
				C255.6,231.6,256.3,231.6,256.4,232.2L256.4,232.2z"/>
		</g>
	</g>
	<g>
		<g>
			<path class="st1" d="M256.1,233.3c-0.2,1.5-0.8,2.8-1.9,3.8c-0.4,0.4-0.9-0.3-0.6-0.7c0.8-0.9,1.4-2,1.6-3.4
				C255.4,232.5,256.2,232.7,256.1,233.3L256.1,233.3z"/>
		</g>
	</g>
	<g>
		<g>
			<path class="st1" d="M258.6,238.2c-0.8,1.2-1.4,2.6-1.7,4.2c-0.1,0.6-0.8,0.3-0.7-0.2c0.3-1.7,0.9-3.2,1.9-4.6
				C258.3,237.1,258.9,237.8,258.6,238.2L258.6,238.2z"/>
		</g>
	</g>
	<g>
		<g>
			<path class="st1" d="M255.7,242.2c-0.4-1.6-0.9-3-1.8-4.2c-0.3-0.5,0.3-1.1,0.6-0.7c0.9,1.4,1.6,2.9,2,4.6
				C256.6,242.6,255.9,242.8,255.7,242.2L255.7,242.2z"/>
		</g>
	</g>
	<g>
		<g>
			<path class="st1" d="M152.7,293.3c0.2,1.9-1.2,3.4-2.8,3.5c-2.8,0.2-4.5-3.3-7.1-3.9c-2-0.4-2.6,1.4-3.7,2.9
				c-0.7,0.8-1.4,1.5-2.2,1.8c-1.9,0.7-3.9,0-5.2-1.6c-0.4-0.4,0.2-1.1,0.6-0.7c1.4,1.7,3.6,2.1,5.4,0.8c1.5-1.1,2-3.6,3.7-4.1
				c1.7-0.5,3.3,0.6,4.6,1.7c0.8,0.7,1.7,1.5,2.6,1.9c1.2,0.5,3.5,0.1,3.3-2.1C151.9,293,152.6,292.7,152.7,293.3L152.7,293.3z"/>
		</g>
	</g>
	<g>
		<g>
			<path class="st1" d="M143.2,302.7c-2-1.2-4.2-1.3-6.2-0.3c-1.5,0.7-2.5,2.1-4.3,2c-1.5-0.1-2.9-1-4.2-1.9c-1.6-1-4.8-2.4-5.6,0.6
				c-0.2,0.6-0.9,0.3-0.7-0.2c0.5-1.6,1.8-2.5,3.2-2.5c2.1-0.1,3.9,1.8,5.9,2.7c1.5,0.7,2.6,0.4,4-0.5c0.8-0.6,1.8-1.2,2.7-1.5
				c2-0.5,3.9-0.2,5.7,0.8C144.1,302.2,143.7,303,143.2,302.7L143.2,302.7z"/>
		</g>
	</g>
	<g>
		<g>
			<path class="st1" d="M174.4,357.4c-0.1,2.8,0.7,5.5,2.3,7.5c-0.2,0.2-0.5,0.4-0.7,0.6c-0.7-1.2-1.2-2.5-1.7-3.9
				c-0.2-0.6,0.7-0.8,0.7-0.2c0.4,1.3,0.8,2.6,1.6,3.7c0.3,0.4-0.3,0.9-0.7,0.6c-1.8-2.2-2.7-5.1-2.6-8.2
				C173.5,356.8,174.4,356.8,174.4,357.4L174.4,357.4z"/>
		</g>
	</g>
	<g>
		<g>
			<path class="st1" d="M174.3,357.5c-0.5,2.6-1.5,4.9-3.1,6.8c-0.4,0.4-0.9-0.2-0.6-0.7c1.5-1.8,2.4-4,2.9-6.4
				C173.6,356.7,174.5,356.9,174.3,357.5L174.3,357.5z"/>
		</g>
	</g>
	<g>
		<g>
			<path class="st1" d="M176.8,366.3c-1.4,1.8-2.5,3.7-3.5,6c-0.2,0.6-0.9,0.1-0.7-0.5c0.9-2.3,2.1-4.3,3.5-6.1
				C176.6,365.2,177.2,365.9,176.8,366.3L176.8,366.3z"/>
		</g>
	</g>
	<g>
		<g>
			<path class="st1" d="M172.8,372.3c-0.8-2.4-1.8-4.7-2.6-7.1c-0.2-0.6,0.5-1,0.7-0.5c0.8,2.4,1.8,4.7,2.6,7.1
				C173.6,372.3,173,372.8,172.8,372.3L172.8,372.3z"/>
		</g>
	</g>
	<g>
		<g>
			<path class="st1" d="M242.3,366.4c-3.6,4.1-7.9,7.2-12.7,9.1c-0.5,0.2-0.7-0.7-0.2-0.9c4.7-1.8,8.9-4.8,12.4-8.9
				C242.1,365.3,242.6,366,242.3,366.4L242.3,366.4z"/>
		</g>
	</g>
	<g>
		<g>
			<path class="st1" d="M233.6,368.5c-4.2,2.7-8.8,4.3-13.6,4.7c-0.5,0-0.5-0.9,0-0.9c4.7-0.4,9.1-1.9,13.2-4.6
				C233.6,367.4,234,368.2,233.6,368.5L233.6,368.5z"/>
		</g>
	</g>
	<g>
		<g>
			<path class="st1" d="M131.9,241.1c-0.7,6.1-2.3,12.1-4.6,17.7c-0.2,0.5-0.9,0.1-0.7-0.5c2.2-5.5,3.7-11.4,4.5-17.5
				C131.3,240.2,132,240.5,131.9,241.1L131.9,241.1z"/>
		</g>
	</g>
	<g>
		<g>
			<path class="st1" d="M114.4,223.8c-1,5.9-2.4,11.7-4.3,17.3c-0.2,0.6-0.9,0.3-0.7-0.2c1.9-5.6,3.4-11.4,4.3-17.3
				C113.7,223,114.5,223.2,114.4,223.8L114.4,223.8z"/>
		</g>
	</g>
	<g>
		<g>
			<path class="st1" d="M109,238c-1.9,5.8-4.4,11.2-7.5,16.2c-0.3,0.5-1,0-0.7-0.5c3.1-4.9,5.6-10.2,7.4-16
				C108.4,237.2,109.2,237.5,109,238L109,238z"/>
		</g>
	</g>
	<g>
		<g>
			<path class="st1" d="M228.6,177.9c-0.8-5-2.6-9.5-5.5-13.3c-0.4-0.5,0.3-1.1,0.6-0.7c2.9,3.9,4.8,8.6,5.7,13.7
				C229.5,178.2,228.7,178.5,228.6,177.9L228.6,177.9z"/>
		</g>
	</g>
	<g>
		<g>
			<path class="st1" d="M231.7,178c-0.3-2.6-1.2-4.8-2.6-6.8c-0.4-0.5,0.3-1.1,0.6-0.7c1.5,2.1,2.5,4.5,2.8,7.2
				C232.6,178.3,231.8,178.6,231.7,178L231.7,178z"/>
		</g>
	</g>
	<g>
		<g>
			<path class="st1" d="M175,85.3c-2.8,3.7-4.8,8.1-5.8,13c-0.1,0.6-0.9,0.3-0.7-0.2c1-5,3.1-9.5,6-13.4
				C174.8,84.2,175.4,84.9,175,85.3L175,85.3z"/>
		</g>
	</g>
	<g>
		<g>
			<path class="st1" d="M168.2,89.3c-1.6,4.1-2.5,8.4-2.8,12.9c-0.1,0.6-0.8,0.6-0.8,0c0.3-4.6,1.3-9.1,3-13.4
				C167.7,88.3,168.4,88.8,168.2,89.3L168.2,89.3z"/>
		</g>
	</g>
</g>
<g id="background_n2">
	<ellipse class="st3" cx="93.6" cy="113.9" rx="14.1" ry="16.2"/>
	<ellipse class="st4" cx="100" cy="165.1" rx="7.6" ry="9.2"/>
	<ellipse class="st5" cx="330.1" cy="133.8" rx="16.5" ry="19"/>
	<g>
		<g>
			<path class="st6" d="M329.9,181.3c-0.5,0-0.5-0.9,0-0.9S330.5,181.3,329.9,181.3L329.9,181.3z"/>
		</g>
	</g>
	<g>
		<g>
			<path class="st7" d="M330.3,182.8c-2.1,0-2.1-3.7,0-3.7C332.4,179.1,332.4,182.8,330.3,182.8L330.3,182.8z"/>
		</g>
	</g>
	<g>
		<g>
			<path class="st7" d="M129.4,125c-2.1,0-2.1-3.7,0-3.7C131.5,121.2,131.5,125,129.4,125L129.4,125z"/>
		</g>
	</g>
	<g>
		<g>
			<path class="st7" d="M135.8,248.1c-2.1,0-2.1-3.7,0-3.7C137.9,244.3,137.9,248.1,135.8,248.1L135.8,248.1z"/>
		</g>
	</g>
	<g>
		<g>
			<path class="st7" d="M363.9,250.8c1.7,1.9,0.3,5-1.8,5.3c-0.7,0.1-1.3-0.1-2-0.2c-0.2-0.1-0.6-0.2-0.7-0.2c0,0,0.1-0.2,0,0.2
				c-0.1,1.2,0.2,2.2-0.4,3.3c-0.5,1-1.5,1.5-2.4,1.5c-0.5,0-1-0.2-1.5-0.4c-0.1,0-0.6-0.1-0.6-0.2c-0.3-0.1-0.2-0.1,0.3-0.2
				c0,0.1-0.1,0.2-0.1,0.4c0.1,1.1-0.9,2.3-1.8,2.7c-1.1,0.6-2.1,0.2-2.9-1c-1.2-2,1.6-3.8,2.8-1.9c-1.1,0.2-1.5-0.1-1.2-0.8
				c0-0.1,0.1-0.2,0.1-0.4c0.1-0.4,0.3-0.8,0.5-1.1c0.4-0.7,1-1.2,1.7-1.3s1.4,0,2,0.2l0.9,0.3c-0.3,0.5-0.5,0.6-0.5,0.3
				c0-0.2,0-0.3,0-0.4c-0.4-1.5,0.2-3.5,1.3-4.3c0.7-0.4,1.3-0.6,2.1-0.5c0.4,0,0.8,0.1,1.2,0.2c0.2,0.1,0.5,0.1,0.7,0.2
				c0.2,0.3,0.3,0.7,0.2,1.1C360.2,251.8,362.4,249.1,363.9,250.8L363.9,250.8z"/>
		</g>
	</g>
	<g>
		<g>
			<path class="st7" d="M355.8,250.7c-0.2,1.1-0.4,2.1-0.5,3.2c-0.1,0.8-0.8,1.4-1.6,1.4c-0.9,0-2.1-0.4-2.8-1.2
				c-0.1-0.1-0.3-0.2-0.5-0.2c0.5-0.6,0.6-0.6,0.5,0c0.1,0.4,0,1.1-0.1,1.5c-0.6,2.9-3.2,2.1-4.9,3.6c-1.6,1.5-3.8-1.1-2.2-2.6
				c1-0.9,2.1-1.7,3.3-2c-0.1,0,1.2-0.2,0.7,0.1c-0.1,0.2-0.1,0.3-0.1,0.1c0-0.2,0-0.3,0-0.5c0-0.6,0.1-1.2,0.3-1.8
				c0.5-1.2,1.5-1.9,2.6-1.8c0.6,0,1.1,0.2,1.6,0.5s0.9,0.9,1.5,0.9c-0.5,0.5-1,0.9-1.6,1.4c0.2-1.1,0.4-2.1,0.5-3.2
				C353.1,247.3,356.1,248.3,355.8,250.7L355.8,250.7z"/>
		</g>
	</g>
	<g>
		<g>
			<path class="st8" d="M264.4,122.6c-0.5-0.7-1-0.9-1.6-0.3c-0.3,0.5-0.5,1-0.5,1.6s0.2,1.1,0.2,1.7c0,0.5,0,1-0.4,1.3
				c-0.7,0.7-1.8-0.2-2.2-0.9c-0.2-0.3-0.4-1-0.7-1.2c-1.2-0.9-1.1,0.4-1.3,1c-0.2,0.5-0.4,0.8-0.7,1c-1.3,0.7-2.3-0.7-3-1.9
				c-0.3-0.5,0.5-1,0.7-0.5c0.4,0.7,1.4,2.6,2.3,0.9c0.2-0.3,0.1-0.8,0.3-1.1c0.2-0.4,0.5-0.8,0.9-0.9c0.6-0.1,1,0.3,1.3,0.8
				c0.5,0.6,1.8,3.4,1.9,1c0-1.4-0.3-3.1,1.1-3.8c0.9-0.5,2.1,0,2.4,1.2C265.3,122.9,264.6,123.2,264.4,122.6L264.4,122.6z"/>
		</g>
	</g>
	<g>
		<g>
			<path class="st8" d="M264,118.6c-0.8-0.9-2.2-0.7-2.9,0.4c-0.4,0.7-0.1,1.6-0.5,2.2c-0.3,0.4-0.6,0.5-0.9,0.4
				c-0.3-0.1-0.4-0.2-0.7-0.4c-0.8-0.6-1.6-0.9-2.4,0.1c-0.4,0.4-0.9-0.2-0.6-0.7c0.7-0.8,1.6-1.2,2.4-0.9c0.5,0.2,1.2,1,1.5,0.4
				c0.2-0.4,0.1-1,0.3-1.5c0.7-1.9,3-2.3,4.3-0.9C264.9,118.4,264.4,119,264,118.6L264,118.6z"/>
		</g>
	</g>
	<g>
		<g>
			<path class="st8" d="M160.2,256.3c-0.3,1.1-0.7,5.6-2.4,4.8c-0.7-0.3-1.1-2.2-1.8-2.1c-0.5,0.1-0.4,0.3-0.5,0.8
				c-0.1,0.4-0.2,0.8-0.4,1.2c-0.3,0.7-0.6,1.3-0.9,1.9c-0.2,0.2-0.6,0.3-0.7,0c-0.7-1.7-2.5-1.4-2.9,0.4c-0.1,0.6-0.8,0.3-0.7-0.2
				c0.5-2.6,3.4-3.1,4.3-0.6c-0.3,0-0.5,0-0.7,0c0.5-0.7,0.8-1.4,1-2.2c0.2-0.6,0.2-1.6,0.5-2.1c0.3-0.5,0.7-0.6,1.2-0.4
				c0.7,0.3,0.8,1,1.2,1.6c0.2,0.2,0.7,0.9,1,0.7c0.2-0.1,0.3-1.1,0.4-1.4c0.2-0.8,0.4-1.7,0.6-2.5
				C159.5,255.5,160.4,255.7,160.2,256.3L160.2,256.3z"/>
		</g>
	</g>
	<g>
		<g>
			<path class="st8" d="M153.2,257.9c-0.6-1.6-2.1-0.9-2.5,0.3c-0.2,0.5-0.3,1.1-0.7,1.4c-1.1,1-2.4-1.2-3.2,1
				c-0.7,2-2.7,2.9-3.9,0.9c-0.3-0.5,0.4-1,0.7-0.5c0.4,0.6,0.9,0.8,1.6,0.6c0.7-0.2,0.8-1,1-1.7c0.2-0.5,0.3-1,0.7-1.3
				c0.4-0.3,0.7-0.4,1.2-0.3c0.3,0.1,0.5,0.3,0.7,0.4c0.8,0.2,1-0.4,1.4-1.1c0.8-2,3.2-2,3.9,0.1
				C154.2,258.2,153.4,258.5,153.2,257.9L153.2,257.9z"/>
		</g>
	</g>
	<g>
		<g>
			<path class="st8" d="M74.3,150.8c1.1-1.3,0.7-3.9-0.8-4.5c-1.9-0.7-3.5,2.2-2.5,4c0.3,0.5-0.5,1-0.7,0.5
				c-1.2-2.5,0.7-6.1,3.3-5.5c2.2,0.6,3,4.4,1.4,6.2C74.6,151.8,74,151.2,74.3,150.8L74.3,150.8z"/>
		</g>
	</g>
	<g>
		<g>
			<path class="st8" d="M282.4,337.3c1.6-2.1,0.7-5.9-2.1-5.8c-2.3,0.1-3.2,3.9-1,5.2c0.5,0.3,0.1,1.1-0.4,0.8
				c-2.7-1.7-1.8-6.5,1.2-6.9c3.5-0.4,4.9,4.5,2.8,7.4C282.6,338.5,282,337.8,282.4,337.3L282.4,337.3z"/>
		</g>
	</g>
	<g>
		<g>
			<path class="st8" d="M285.8,294.1c0.9-0.8,2.8-3.1,0.3-3.7c-0.5-0.1-0.9,0.1-1.4-0.1c-0.9-0.4-1.3-1.7-1.2-2.8
				c0-0.7,0.3-1.5,0.4-2.2c0.2-0.8,0.5-1.8-0.6-1.8c-0.2,0-0.4,0.1-0.6,0.1c-0.9,0-1.6-0.7-2-1.7c-0.2-0.6,0.6-0.8,0.7-0.2
				c0.7,2.1,2.7-0.4,3.2,2c0.3,1.8-1.8,5.6,1,5.8c1.1,0.1,2.1,0,2.3,1.6c0.3,1.6-0.7,2.8-1.7,3.7C286,295.1,285.4,294.4,285.8,294.1
				L285.8,294.1z"/>
		</g>
	</g>
	<g>
		<g>
			<path class="st8" d="M279.9,289.7c0.4-0.8,1-2.1,0.7-3.1c-0.3-1-1.8-0.9-2.5-1.6c-0.9-0.9-1.3-2.3-0.9-3.7
				c0.1-0.6,0.9-0.3,0.7,0.2c-0.2,0.9-0.1,1.7,0.5,2.4c0.5,0.7,1,0.6,1.7,0.9c0.5,0.2,0.9,0.5,1.2,1.1c0.6,1.4-0.1,3.1-0.7,4.3
				C280.4,290.7,279.7,290.2,279.9,289.7L279.9,289.7z"/>
		</g>
	</g>
	<g>
		<g>
			<path class="st9" d="M344.4,152.6c0.7,0.6,2.1,1.8,3.1,1c1.1-0.9-0.1-3.2-0.6-4.1c-0.9-2.1-2.1-4-3.3-5.8
				c-2.5-3.6-5.5-6.7-8.6-9.8c-0.7-0.8,0.4-2.1,1.1-1.3c4.2,4.2,8.3,8.6,11.3,14.1c1,1.9,2.8,5.1,1.7,7.4c-1.3,2.6-3.9,1.3-5.6,0
				C342.8,153.5,343.6,151.9,344.4,152.6L344.4,152.6z"/>
		</g>
	</g>
	<g>
		<g>
			<path class="st9" d="M329.3,128c-2.4-2.3-4.8-4.5-7.2-6.8c-0.8-0.7,0.4-2.1,1.1-1.3c2.4,2.3,4.8,4.5,7.2,6.8
				C331.1,127.4,330,128.7,329.3,128L329.3,128z"/>
		</g>
	</g>
	<g>
		<g>
			<path class="st9" d="M315.6,117.5c-1.2-0.7-5.7-3.8-6.4-1.3c-0.7,2.1,1,5.2,2.1,6.8c0.7,0.9-0.5,2.2-1.1,1.3
				c-1.6-2.3-3.7-6.5-2.1-9.5c1.8-3.4,6.4-0.2,8.5,1.1C317.3,116.4,316.5,118,315.6,117.5L315.6,117.5z"/>
		</g>
	</g>
	<g>
		<g>
			<path class="st9" d="M338,143.7c-3.6-4.8-7.6-9.2-12-13.1c-0.8-0.7,0-2.3,0.8-1.6c4.5,3.9,8.7,8.4,12.4,13.4
				C339.7,143.2,338.6,144.6,338,143.7L338,143.7z"/>
		</g>
	</g>
</g>
<g id="background">
	<g>
		<path class="st9" d="M313.5,133.8c0,0,0,0.1,0,0.4s0,0.6,0,1.1c0.1,1,0.2,2.4,0.6,4.1c0.4,1.7,1,3.8,2.1,6c1.1,2.1,2.8,4.3,5,6.1
			c1.1,0.9,2.3,1.7,3.7,2.2c0.4,0.2,0.7,0.3,1,0.4c0.4,0.1,0.7,0.2,1,0.3c0.2,0.1,0.4,0.1,0.6,0.2c0.2,0,0.4,0.1,0.6,0.1
			c0.4,0.1,0.7,0.1,1.1,0.2c0.4,0.1,0.7,0.1,1.1,0.1s0.7,0,1.2,0c0.2,0,0.4,0,0.6,0c0.2,0,0.4,0,0.6-0.1c0.4,0,0.8-0.1,1.2-0.2
			c0.8-0.2,1.6-0.4,2.3-0.7c0.7-0.3,1.6-0.6,2.3-1c3-1.6,5.7-4.3,7.6-7.6c2-3.4,3.1-7.4,3.2-11.6c0-1,0-2.1-0.1-3.1
			c-0.1-1-0.3-2.1-0.6-3.1c-0.3-1-0.6-2-0.9-2.9s-0.8-1.8-1.3-2.7c-2-3.5-4.8-6.1-7.8-7.7c-3.1-1.6-6.4-2.1-9.5-1.7
			c-1.6,0.2-3,0.6-4.4,1.2s-2.6,1.4-3.7,2.3c-2.2,1.8-3.8,4-5,6.1c-1.2,2.1-1.8,4.2-2.1,6c-0.4,1.7-0.6,3.1-0.6,4.1
			c0,0.5,0,0.8,0,1.1C313.5,133.7,313.5,133.8,313.5,133.8L313.5,133.8z M313.7,133.8c0,0,0-0.1,0-0.4s0-0.6,0.1-1.1
			c0.1-0.9,0.2-2.3,0.7-4c0.2-0.8,0.5-1.8,0.9-2.7c0.5-0.9,0.8-2,1.5-3c1.2-2,2.9-4,5-5.5c1.1-0.8,2.2-1.5,3.5-2
			c1.3-0.5,2.7-0.9,4.1-1.1c0.4-0.1,0.7-0.1,1.1-0.1c0.2,0,0.4,0,0.6,0h0.3h0.3c0.2,0,0.4,0,0.6,0c0.2,0,0.4,0,0.6,0
			c0.4,0,0.7,0.1,1.1,0.2c0.7,0.1,1.5,0.3,2.2,0.6c0.4,0.1,0.7,0.3,1.1,0.4c0.2,0.1,0.4,0.2,0.6,0.2c0.2,0.1,0.4,0.2,0.6,0.2
			c2.9,1.4,5.6,3.9,7.5,7.1c0.5,0.8,0.9,1.7,1.3,2.5c0.4,0.9,0.7,1.8,0.9,2.7c0.3,0.9,0.5,1.9,0.7,2.9s0.2,2,0.3,3c0,1,0,2-0.1,3
			c-0.1,1-0.3,2-0.6,3s-0.6,1.9-0.9,2.8c-0.4,0.9-0.8,1.8-1.3,2.6c-0.9,1.7-2.1,3.1-3.4,4.3c-1.3,1.2-2.7,2.2-4.2,2.9
			c-0.7,0.3-1.5,0.7-2.2,0.9c-0.7,0.2-1.6,0.4-2.2,0.5c-0.4,0-0.7,0.1-1.1,0.1c-0.2,0-0.4,0-0.6,0s-0.4,0-0.6,0c-0.4,0-0.7,0-1.1,0
			s-0.7-0.1-1.1-0.1c-1.4-0.2-2.8-0.6-4.1-1.2c-1.3-0.6-2.4-1.2-3.5-2.1c-2.1-1.6-3.8-3.6-5-5.6c-0.7-1-1.1-2-1.5-3
			c-0.4-1-0.7-1.9-0.9-2.7c-0.5-1.7-0.6-3.1-0.7-4c-0.1-0.5,0-0.8-0.1-1.1C313.7,133.9,313.7,133.8,313.7,133.8L313.7,133.8z"/>
	</g>
	<g>
		<path class="st9" d="M93.4,165.7c0,0,0,0.2,0,0.7c0,0.1,0,0.2,0,0.4c0,0.1,0,0.3,0.1,0.5c0,0.2,0,0.3,0.1,0.5s0.1,0.4,0.1,0.6
			c0.2,0.8,0.5,1.8,1,2.9c0.6,1.1,1.3,2.1,2.3,3c1,0.9,2.4,1.5,3.9,1.7c0.2,0,0.4,0,0.6,0h0.3h0.1l0,0l0,0l0,0h0.1
			c0.4,0,0.7-0.1,1.1-0.2c0.8-0.2,1.5-0.5,2.2-0.9c0.7-0.4,1.4-1,2.1-1.6c0.7-0.6,1.2-1.3,1.7-2.1c0.2-0.4,0.5-0.8,0.7-1.3
			c0.1-0.2,0.2-0.4,0.3-0.7c0.1-0.2,0.2-0.5,0.3-0.7c0.3-0.9,0.5-1.9,0.5-2.9c0-0.5,0-1-0.1-1.5c0-0.5-0.1-1-0.3-1.5
			c-0.3-1-0.6-1.9-1-2.7c-0.5-0.8-1-1.6-1.7-2.2c-0.7-0.6-1.4-1.2-2.1-1.6c-0.7-0.4-1.6-0.7-2.3-0.8c-0.4-0.1-0.8-0.1-1.2-0.1h-0.1
			l0,0l0,0h-0.1h-0.1h-0.3c-0.2,0-0.4,0-0.6,0.1c-0.2,0-0.4,0.1-0.6,0.1c-0.1,0-0.2,0-0.3,0.1l-0.3,0.1c-0.2,0.1-0.4,0.1-0.6,0.2
			c-0.2,0.1-0.4,0.2-0.5,0.2c-0.7,0.3-1.2,0.7-1.8,1.2c-1,0.9-1.8,2-2.3,3.1s-0.8,2.1-1,2.9c0,0.2-0.1,0.4-0.1,0.6
			c0,0.2-0.1,0.4-0.1,0.5c0,0.2,0,0.3-0.1,0.5c0,0.1,0,0.3,0,0.4C93.4,165.5,93.4,165.7,93.4,165.7L93.4,165.7z M93.5,165.7
			c0,0,0-0.2,0-0.7c0-0.1,0-0.2,0-0.4c0-0.1,0.1-0.3,0.1-0.4c0-0.2,0.1-0.3,0.1-0.5c0.1-0.2,0.1-0.4,0.1-0.6c0-0.1,0.1-0.2,0.1-0.3
			s0.1-0.2,0.1-0.3c0.1-0.2,0.2-0.4,0.3-0.7c0.1-0.2,0.2-0.4,0.3-0.7c0.1-0.2,0.3-0.4,0.5-0.7c0.6-0.9,1.4-1.8,2.4-2.5
			c0.5-0.3,1-0.7,1.7-0.9c0.2-0.1,0.3-0.1,0.5-0.2c0.2,0,0.3-0.1,0.5-0.1l0.3-0.1c0.1,0,0.2,0,0.3,0c0.2,0,0.3-0.1,0.5-0.1
			s0.4,0,0.6,0h0.3h0.1l0,0l0,0l0,0h0.1c0.4,0,0.7,0,1,0.1c0.7,0.1,1.4,0.3,2.1,0.7c0.7,0.3,1.3,0.8,1.9,1.3
			c0.6,0.6,1.1,1.2,1.6,1.9s0.8,1.6,1,2.4c0.1,0.4,0.3,0.9,0.3,1.3c0.1,0.4,0.1,1,0.2,1.4c0,0.9-0.1,1.9-0.3,2.8
			c-0.3,0.9-0.6,1.8-1,2.6c-0.3,0.4-0.5,0.7-0.7,1.1c-0.1,0.2-0.3,0.3-0.5,0.5l-0.5,0.4c-0.7,0.6-1.3,1-2,1.3
			c-0.7,0.3-1.4,0.5-2.1,0.6c-0.3,0.1-0.7,0-1.1,0.1h-0.1l0,0l0,0l0,0h-0.1h-0.3c-0.2,0-0.4,0-0.5-0.1c-1.3-0.2-2.5-0.7-3.5-1.4
			c-1-0.7-1.9-1.6-2.4-2.5c-0.1-0.2-0.3-0.5-0.5-0.7c-0.1-0.2-0.2-0.5-0.3-0.7c-0.1-0.2-0.2-0.4-0.3-0.7c0-0.1-0.1-0.2-0.1-0.3
			s-0.1-0.2-0.1-0.3c-0.1-0.2-0.1-0.4-0.1-0.6c-0.1-0.2-0.1-0.3-0.1-0.5s-0.1-0.3-0.1-0.4c0-0.1,0-0.2,0-0.4
			C93.5,166,93.5,165.7,93.5,165.7L93.5,165.7z"/>
	</g>
	<g>
		<path class="st9" d="M77.4,113.9c0,0,0,0.4,0.1,1.2c0,0.2,0,0.4,0,0.6c0,0.2,0.1,0.5,0.1,0.7c0.1,0.3,0.1,0.6,0.1,0.9
			s0.1,0.7,0.2,1c0.3,1.4,0.8,3.1,1.8,4.8c0.2,0.4,0.5,0.8,0.7,1.3c0.1,0.2,0.3,0.4,0.5,0.6c0.2,0.2,0.3,0.4,0.5,0.7
			c0.3,0.4,0.7,0.8,1,1.2c0.4,0.4,0.8,0.8,1.2,1.1c1.8,1.4,4,2.5,6.4,2.8c0.3,0.1,0.7,0,0.9,0.1c0.2,0,0.3,0,0.5,0h0.3h0.1l0,0h0.1
			h0.1c0.7-0.1,1.2-0.1,1.9-0.2c1.3-0.2,2.5-0.7,3.7-1.4c0.3-0.2,0.6-0.3,0.8-0.5c0.2-0.1,0.3-0.2,0.5-0.3l0.5-0.3l0.5-0.3
			c0.1-0.1,0.3-0.2,0.4-0.3c0.3-0.2,0.6-0.5,0.8-0.7c1-1.1,2-2.2,2.7-3.6c0.2-0.3,0.4-0.7,0.6-1l0.1-0.2l0.1-0.3l0.3-0.6l0.3-0.6
			c0.1-0.2,0.1-0.4,0.2-0.6c0.1-0.4,0.3-0.7,0.4-1.2l0.3-1.2l0.1-0.3l0.1-0.3l0.1-0.6c0.1-0.4,0.1-0.8,0.1-1.2l0.1-1.2v-1.2
			c0-0.2,0-0.4,0-0.6l-0.1-0.6l-0.1-0.6v-0.3l-0.1-0.3l-0.3-1.2c-0.4-1.6-1-3.1-1.8-4.5c-0.8-1.4-1.8-2.6-2.8-3.6
			c-0.3-0.2-0.6-0.5-0.8-0.7c-0.1-0.1-0.3-0.2-0.5-0.3l-0.5-0.3l-0.5-0.3c-0.1-0.1-0.3-0.2-0.5-0.3c-0.3-0.2-0.7-0.3-0.9-0.5
			c-1.2-0.6-2.5-1.1-3.8-1.3c-0.7-0.2-1.3-0.2-2-0.2h-0.1h-0.1l0,0h-0.1h-0.3c-0.2,0-0.3,0-0.5,0c-0.2,0-0.3,0-0.5,0s-0.3,0-0.5,0.1
			c-0.3,0.1-0.7,0.1-0.9,0.2c-0.2,0-0.3,0.1-0.5,0.1s-0.3,0.1-0.5,0.1c-0.3,0.1-0.6,0.2-0.8,0.3c-0.3,0.1-0.6,0.2-0.8,0.3
			c-1.1,0.5-2.1,1.1-3,1.8c-0.5,0.4-0.8,0.7-1.2,1.2c-0.4,0.4-0.7,0.8-1,1.2c-0.2,0.2-0.3,0.4-0.5,0.7c-0.2,0.2-0.3,0.4-0.5,0.6
			c-0.3,0.4-0.6,0.9-0.7,1.3c-0.9,1.7-1.4,3.4-1.8,4.8c-0.1,0.3-0.1,0.7-0.2,1s-0.1,0.6-0.1,0.9s-0.1,0.5-0.1,0.7s0,0.4,0,0.6
			C77.5,113.5,77.4,113.9,77.4,113.9L77.4,113.9z M77.5,113.9c0,0,0-0.4,0.1-1.2c0-0.2,0-0.4,0.1-0.6c0-0.2,0.1-0.5,0.1-0.7
			c0.1-0.3,0.1-0.6,0.1-0.9c0.1-0.3,0.2-0.6,0.3-1c0.1-0.2,0.1-0.3,0.1-0.5c0.1-0.2,0.1-0.3,0.2-0.5s0.1-0.4,0.2-0.6
			c0.1-0.2,0.1-0.4,0.2-0.6c0.2-0.4,0.4-0.8,0.6-1.2c0.2-0.4,0.5-0.8,0.7-1.2c1-1.6,2.3-3.1,4-4.4c0.8-0.6,1.8-1.2,2.8-1.6
			c0.3-0.1,0.5-0.2,0.7-0.3c0.3-0.1,0.6-0.2,0.8-0.2c0.1,0,0.3-0.1,0.4-0.1s0.3-0.1,0.4-0.1c0.3,0,0.6-0.1,0.8-0.1
			c0.1,0,0.3,0,0.5,0s0.3,0,0.5,0c0.2,0,0.3,0,0.5,0h0.3h0.2c0.6,0.1,1.2,0,1.8,0.2c1.2,0.2,2.3,0.6,3.5,1.2
			c0.3,0.2,0.6,0.3,0.8,0.5c0.2,0.1,0.3,0.2,0.5,0.2l0.4,0.3l0.5,0.3c0.1,0.1,0.3,0.2,0.4,0.3c0.3,0.2,0.6,0.4,0.7,0.7
			c1,1,1.9,2.1,2.6,3.3c0.7,1.3,1.3,2.7,1.8,4.2c0.5,1.5,0.7,3,0.7,4.7c0,1.6-0.2,3.2-0.5,4.7c-0.4,1.5-1,3-1.8,4.3
			c-0.2,0.3-0.4,0.6-0.7,0.9c-0.2,0.3-0.5,0.6-0.7,0.9l-0.4,0.4c-0.1,0.1-0.1,0.2-0.2,0.2l-0.2,0.2c-0.3,0.2-0.5,0.5-0.7,0.8
			c-0.3,0.2-0.6,0.4-0.8,0.7c-0.1,0.1-0.3,0.2-0.4,0.3l-0.5,0.3l-0.5,0.3c-0.1,0.1-0.3,0.2-0.5,0.2c-0.3,0.2-0.6,0.3-0.8,0.5
			c-0.1,0.1-0.3,0.2-0.5,0.2l-0.5,0.2c-0.3,0.1-0.6,0.2-0.9,0.3c-0.3,0.1-0.7,0.2-0.9,0.2c-0.3,0.1-0.7,0.1-0.9,0.2
			c-0.6,0.1-1.2,0.1-1.9,0.1h-0.1h-0.1l0,0l0,0h-0.2c-0.2,0-0.3,0-0.5,0c-0.3,0-0.6,0-0.8-0.1c-2.2-0.3-4.4-1.3-6.1-2.5
			c-1.7-1.2-3.1-2.8-4-4.4c-0.3-0.4-0.5-0.8-0.7-1.2s-0.4-0.8-0.6-1.2c-0.1-0.2-0.2-0.4-0.2-0.6c-0.1-0.2-0.1-0.4-0.2-0.6
			c-0.1-0.2-0.1-0.4-0.2-0.5c-0.1-0.2-0.1-0.3-0.1-0.5c-0.1-0.3-0.2-0.7-0.3-1c-0.1-0.3-0.1-0.6-0.1-0.9c0-0.3-0.1-0.5-0.1-0.7
			s0-0.4-0.1-0.6C77.5,114.3,77.5,113.9,77.5,113.9L77.5,113.9z"/>
	</g>
	<g>
		<g>
			<path class="st9" d="M277.2,171.5c0.3-0.2,0.2-0.7,0.1-0.9c-0.2-0.4-0.7-0.6-1.1-0.6c-0.7,0-1.5,0.4-2.1,0.6
				c-0.9,0.3-2,0.5-3,0.2c-1.8-0.7-2.4-2.9-3.1-4.7c-0.4-1.1-1.2-3-2.4-3c-1,0.1-1.7,1.5-2.8,1.5c-2,0.1-3.2-2.3-3.8-4
				c-0.4-1.1,0.9-2.1,1.4-0.9c0.6,1.5,1.7,4,3.2,2.6c0.8-0.7,1.6-1.3,2.7-1c2.3,0.7,2.9,3.7,3.8,6c0.8,1.9,2,2.1,3.6,1.5
				c1.2-0.4,2.4-0.9,3.6-0.3c1.7,0.7,2.2,3.5,0.7,4.7C277.1,173.7,276.4,172.2,277.2,171.5L277.2,171.5z"/>
		</g>
	</g>
	<g>
		<g>
			<path class="st9" d="M265.1,171.4c0.2-1.2-0.7-2.4-1.7-2.5c-0.8-0.2-1.6,0.7-2.3,0.9c-1.5,0.3-2.7-1.2-3.3-2.6
				c-0.4-0.9-0.6-2-1.2-2.7c-0.6-0.6-1.4-0.7-2.1-0.9c-1.4-0.3-2.7-0.5-3.7-1.8c-0.7-0.9,0.5-2.2,1.1-1.3c1.1,1.5,3.2,1.1,4.8,1.8
				c2,1,2,3.1,3.1,4.8c1,1.5,2,0.1,3.2-0.1c0.7-0.1,1.4,0.1,2.1,0.5c1.4,0.9,2.1,2.6,1.8,4.4C266.4,173.1,264.9,172.6,265.1,171.4
				L265.1,171.4z"/>
		</g>
	</g>
	<g>
		<g>
			<path class="st9" d="M261.7,263.2c1-1.7,0-4.2-1.9-3.6s-1.7,3.6,0.1,4.2c1,0.3,0.6,2.1-0.5,1.8c-3.2-1.1-3.5-6.4-0.3-7.7
				c3.2-1.3,5.9,3.1,3.9,6.2C262.4,265.1,261,264.2,261.7,263.2L261.7,263.2z"/>
		</g>
	</g>
	<g>
		<g>
			<path class="st9" d="M106.6,222c0.1-0.6-0.2-0.7-1-0.4c-0.4,0.2-0.7,0.3-1,0.5c-0.4,0.2-0.7,0.3-1.1,0.4c-0.7,0.2-1.5,0-2.1-0.6
				c-1.3-1.2-1.1-3.2-2-4.7c-0.8-1.6-1.5-0.5-2.1,0.5c-0.4,0.5-0.7,1-1.3,1.1c-0.7,0.2-1.2-0.1-1.7-0.6c-0.3-0.3-0.6-0.7-0.8-1.1
				c0-0.1-1.2-2.1-1.2-1.5c-0.1,1.2-1.7,1.2-1.6,0c0-1.1,0.7-1.9,1.7-1.9c1.1,0,1.8,1,2.2,2c0.5,0.9,1,1.7,1.7,0.6
				c0.3-0.4,0.5-0.9,0.8-1.2c0.8-0.8,1.9-0.7,2.7,0c0.9,0.8,1.3,2.1,1.6,3.3c0.2,0.7,0.3,1.7,0.8,2.2c0.7,0.8,1.8-0.1,2.5-0.4
				c1-0.5,2.3-0.6,3.1,0.6c0.6,0.9,0.6,2-0.1,2.8C107,224.2,105.9,222.8,106.6,222L106.6,222z"/>
		</g>
	</g>
	<g>
		<g>
			<path class="st9" d="M93.8,223.9c0.3-1.3-1.3-1.6-2-1.4c-0.7,0.1-1.2,0.4-1.8,0.6c-0.9,0.3-2.1,0.5-3,0.1
				c-0.7-0.3-1.3-0.9-1.7-1.7c-0.5-0.9-0.7-2.2-1.5-2.9c-0.8-0.7-0.1-2.3,0.8-1.6c1,0.7,1.3,1.8,1.8,3c0.9,2.2,2.5,1.4,4.2,0.9
				c1.2-0.4,2.5-0.6,3.6,0.3c0.9,0.7,1.3,1.9,1,3.2C95.1,225.5,93.5,225,93.8,223.9L93.8,223.9z"/>
		</g>
	</g>
</g>
<g id="leg_r">
	<path class="st10" d="M215.3,210.8c3.5,3.6,8.2,9,12.7,16.6c3.2,5.5,8.6,15.1,10.5,28.9c2.7,19.9-3.6,35.7-5.8,40.5
		c-7.7,17.4-19.8,25.5-24.2,28.2c1,1.9,2.3,4.8,3.6,8.5c0.3,0.9,6.1,18.2,2.1,21.4c-3,2.4-10.1-4.2-11.1-5.3
		c-6.5-6.1-9.5-14.2-12.9-23.6c-1.4-4-2.4-7.3-3-9.6c3.7-3,9.1-8.2,13.9-16.3c3-5,13.2-22.3,8.8-38.2c-2-7.3-4.8-6.2-12.4-20.9
		c-5.6-10.8-8.8-16.9-7.1-21.9C192.7,212.3,203.1,209.4,215.3,210.8z"/>
	<g>
		<g>
			<path class="st9" d="M214.7,320.1c-6.1-3.3-11.3-8.6-14.8-15.3c-0.2-0.4,0.3-0.7,0.5-0.3c3.5,6.6,8.6,11.8,14.5,15
				C215.4,319.7,215,320.3,214.7,320.1L214.7,320.1z"/>
		</g>
	</g>
	<g>
		<g>
			<path class="st9" d="M216.5,282.9c-3.5,8.8-8.2,16.9-13.9,24c-0.3,0.3-0.7-0.2-0.5-0.5c5.7-7,10.4-15.1,13.8-23.9
				C216.1,282.2,216.6,282.5,216.5,282.9L216.5,282.9z"/>
		</g>
	</g>
	<g>
		<g>
			<path class="st9" d="M236.8,283.5c-1-1.8-3-2.5-4.8-1.9c-1.8,0.7-3.2,2.5-3.9,4.5c-0.8,2.2-1,4.8-0.5,7.2
				c0.6,2.4,2.4,4.8,4.7,3.7c0.4-0.2,0.5,0.5,0.2,0.7c-2.1,1-4.1-0.5-5-2.7c-1.2-2.8-1-6.3,0-9.1c0.8-2.3,2.6-4.5,4.8-5
				c2-0.4,3.9,0.4,4.9,2.3C237.5,283.5,236.9,283.9,236.8,283.5L236.8,283.5z"/>
		</g>
	</g>
	<g>
		<g>
			<path class="st9" d="M235.7,245.2c-2.7-0.4-5.4-0.3-8,0.3c-2.5,0.6-5.2,1.5-6.8,3.9c-0.3,0.3-0.7-0.2-0.5-0.5
				c1.6-2.4,4.2-3.3,6.6-4c2.8-0.7,5.8-0.9,8.7-0.4C236.1,244.6,236.1,245.3,235.7,245.2L235.7,245.2z"/>
		</g>
	</g>
	<g>
		<g>
			<path class="st9" d="M236.7,248.2c-2.8-0.2-5.6,0.1-8.3,1.1c-0.4,0.1-0.6-0.5-0.2-0.7c2.7-1,5.6-1.4,8.4-1.2
				C237,247.5,237,248.2,236.7,248.2L236.7,248.2z"/>
		</g>
	</g>
	<g>
		<g>
			<path class="st9" d="M211.6,223.2c2.6,4.3,5.5,8.5,8.6,12.5c0.3,0.3-0.2,0.8-0.5,0.5c-3.1-4-6-8.2-8.7-12.6
				C210.8,223.2,211.3,222.8,211.6,223.2L211.6,223.2z"/>
		</g>
	</g>
	<g>
		<g>
			<path class="st9" d="M218.3,257.1c2.1,4.9,3.2,10.2,3.3,15.6c0,0.4-0.6,0.4-0.7,0c-0.1-5.3-1.2-10.5-3.2-15.3
				C217.6,257,218.1,256.6,218.3,257.1L218.3,257.1z"/>
		</g>
	</g>
	<g>
		<g>
			<path class="st9" d="M214.1,247.2c-2.6,2.3-4.8,5.2-6.4,8.5c-0.2,0.4-0.7,0-0.5-0.3c1.7-3.4,3.9-6.4,6.7-8.8
				C214.1,246.4,214.4,247,214.1,247.2L214.1,247.2z"/>
		</g>
	</g>
	<g>
		<g>
			<path class="st9" d="M190.1,314.3c3.2,3.9,2.1,9.4,3.2,14.1c0.7,3,2,5.7,3.1,8.5c1,2.7,2.1,5.5,3.2,8.2c0.2,0.4-0.4,0.8-0.5,0.3
				c-2-5-4.2-10-5.9-15.2c-1.6-5-0.2-11.4-3.5-15.5C189.5,314.5,189.8,314,190.1,314.3L190.1,314.3z"/>
		</g>
	</g>
	<g>
		<g>
			<path class="st9" d="M208.6,325.3c-2-1.4-3.9-2.4-6.2-3c-0.4-0.1-0.2-0.8,0.2-0.7c2.2,0.6,4.4,1.6,6.3,3
				C209.2,324.9,208.9,325.6,208.6,325.3L208.6,325.3z"/>
		</g>
	</g>
	<path class="st11" d="M201.6,244.1c2.7,1.4,12.4,6.8,16.9,19.3c3.7,10.6,1.7,20.1,0.1,27.1c-3.5,16-11.8,26.3-16.6,31.3
		c0.1,1.7,0.5,4.3,1.6,7.2c2.1,5.5,5.2,7,7.6,11.1c1.6,2.7,3.2,7.2,2.8,14.6c-0.7,0.1-1.9,0.1-3.2-0.2c-2-0.4-5-1.7-9.7-7.9
		c-3.1-4.1-5-8.1-6.6-11.5c-2.1-4.5-4.6-10.8-6.6-19c7.7-7,12.7-14.2,15.7-19.3c4-6.9,5.5-11.6,6-13.2c1-3.7,2.9-10.2,1.8-18.2
		c-0.5-2.8-0.7-4.4-1.6-6.4c-2.4-5.1-6.2-6.1-7.6-11.2C201.6,246.2,201.6,244.9,201.6,244.1z"/>
	<path class="st12" d="M209.2,256.4c1.8,4.7,3.9,12.3,3.6,21.8c-0.5,19.8-10.9,32.9-13.8,36.3c-0.9,3.3-1.9,8.5-1.2,14.6
		c1.6,14.5,10.9,22.8,13,24.6c-1.9-0.7-4.8-2-7.8-4.7c-5.9-5.1-8.5-11.9-11.7-20.3c-1.1-3-2.6-7.4-4-13.1
		c7.9-7.2,12.8-14.6,15.7-19.7c3-5.4,5.8-10.5,7.2-18.1C211.9,268.6,210.4,260.7,209.2,256.4z"/>
</g>
<g id="leg_l">
	<path class="st10" d="M163.2,225.6c-2.2,5.6-1.3,12.1-0.7,17.1c0.9,7,3.1,12.4,4.7,15.7c0.7,4,1.4,10.7-0.4,18.4
		c-2.1,9.3-6.5,15.2-10.7,20.6c-3.5,4.6-9.6,11.5-19,17.2c0.6,2.3,1.4,5.8,2.5,10c4.8,17.7,7.9,21.2,9,22.3
		c3.1,3.1,8.7,6.8,11.1,4.7c2-1.7,2.4-7.6-4.4-26.8c2.9-1.2,6.9-3.1,11.4-6c4.7-2.9,17.5-11,25.6-24.2c12.3-20,9.2-44.7,8.1-51.5
		c1.9-1,5.3-3.3,6.5-7.4c2.1-7.5-4.3-16.2-9.5-20C186.3,207.6,167.9,213.4,163.2,225.6z"/>
	<g>
		<g>
			<path class="st13" d="M206.5,225.8c1.6,2.8,1.8,6.4,0.7,9.6c-0.6,1.5-1.4,2.9-2.4,4c-0.5,0.6-1,1.1-1.6,1.6
				c-0.3,0.2-2.2,1.4-1.9,1.8c-0.2,0-0.3-0.1-0.5-0.1c3.5-3,6.1-7.4,6-12.5c0-0.5,0.7-0.7,0.7-0.1c0.7,4.4-0.8,8.8-4,11.5
				c-0.1-0.3-0.2-0.6-0.3-0.8c3.7-1.3,4.6-6.2,3.5-10.1c0.3,0,0.6-0.1,0.7-0.1c-0.3,4.1-0.7,8.5-3.5,11.4c-0.4,0.4-0.9-0.2-0.6-0.7
				c3.1-3.4,4.9-8.8,2.3-13.3c0.3,0,0.5-0.1,0.7-0.1c-0.1,0.7-0.1,1.4,0,2.1c-0.3,0-0.5,0-0.7,0c0.5-2,0.3-3.9-0.7-5.7
				c0.3,0,0.5-0.1,0.7-0.1c-0.5,3.3,0.6,6.7,0.2,10c-0.1,1.1-0.4,2.3-0.9,3.3c-0.3,0.5-0.6,0.9-0.9,1.3c-0.4,0.4-1.3,0.8-1.4,1.5
				c-0.2-0.2-0.3-0.4-0.5-0.6c0.6-0.1,1.1-0.2,1.7-0.3c0.3,0,0.7,0.2,0.5,0.6c-0.5,1.3-1.2,2.3-2.2,2.9c0-0.3,0-0.5,0-0.8
				c0.3,0,0.6,0,0.8,0c0.1,0.3,0.2,0.5,0.3,0.8c-0.3,0.2-0.7,0.4-0.9,0.6c-0.1-0.3-0.2-0.5-0.3-0.8c0.7,0,1.3-1.6,1.5-2.1
				c0.4-0.7,0.7-1.6,0.8-2.4c0.4-1.7,0.5-3.4,0.3-5.1c0.3,0,0.5,0.1,0.7,0.1c-0.9,2-1.2,4.1-0.8,6.3c-0.2-0.1-0.4-0.2-0.6-0.3
				c0.1-0.3,0.3-0.6,0.5-0.8c0.2,0.1,0.4,0.3,0.7,0.4c-0.5,0.3-0.8,0.6-1.3,0.9c-0.5,0.3-0.8-0.5-0.4-0.8s0.8-0.6,1.3-0.9
				c0.3-0.2,0.7,0,0.7,0.4c-0.1,0.7-0.3,1.2-0.8,1.7c-0.2,0.2-0.6,0-0.6-0.3c-0.5-2.5-0.1-4.9,0.9-7c0.2-0.3,0.7-0.3,0.7,0.1
				c0.3,2.3,0.1,4.6-0.6,6.8c-0.5,1.3-1.3,4-2.8,4c-0.4,0-0.5-0.5-0.3-0.8c0.5-0.6,0.8-0.8,1.5-0.8c0.4,0,0.6,0.5,0.3,0.8
				c-0.6,0.6-1.2,0.7-1.8,0.2c-0.2-0.2-0.3-0.7,0-0.8c0.9-0.5,1.6-1.2,2-2.3c0.2,0.2,0.3,0.4,0.5,0.6c-0.6,0.1-1.1,0.2-1.7,0.3
				c-0.3,0.1-0.6-0.2-0.5-0.6c0.1-1.1,1.1-1.3,1.8-2c1-1.1,1.4-2.8,1.6-4.3c0.3-3.3-0.7-6.4-0.2-9.7c0.1-0.4,0.6-0.4,0.7-0.1
				c1,2,1.3,4.2,0.7,6.4c-0.1,0.4-0.7,0.5-0.7,0c-0.1-0.9-0.1-1.7,0-2.6c0.1-0.4,0.6-0.4,0.7-0.1c2.8,4.9,0.8,10.7-2.4,14.5
				c-0.2-0.2-0.4-0.4-0.6-0.7c2.6-2.7,3-6.8,3.3-10.7c0-0.5,0.7-0.7,0.7-0.1c1.1,4.5,0,9.8-4.1,11.2c-0.5,0.2-0.7-0.6-0.3-0.8
				c2.8-2.4,4.2-6.4,3.6-10.4c0.3,0,0.6-0.1,0.7-0.1c0.1,5.5-2.8,10.2-6.4,13.3c-0.1,0.1-0.4,0.1-0.5-0.1c-0.6-0.7-0.4-1.5,0.3-2
				c1.3-1.2,2.6-1.9,3.7-3.3c2.5-3.2,3.3-8,1.1-11.8C205.5,225.7,206.3,225.3,206.5,225.8L206.5,225.8z"/>
		</g>
	</g>
	<g>
		<g>
			<path class="st9" d="M170.4,232.6c-0.6,3.6,1,7.1,2.2,10.3c1,2.7,2.1,5.4,3,8.2c1.7,5.3,2.7,10.8,2.6,16.5
				c-0.3,10.3-3.9,20.5-10.3,27.8c-4.2,4.7-9.2,8.2-14.2,11.6c-0.4,0.2-0.7-0.4-0.3-0.6c4.5-3,8.9-6,12.7-10
				c3.5-3.7,6.4-8.1,8.4-13.2c2-5,3-10.4,3.1-15.8c0.1-5.7-1-11.2-2.7-16.6c-1.1-3.3-2.4-6.6-3.5-9.8c-1-2.7-2-5.5-1.5-8.5
				C169.9,232,170.4,232.2,170.4,232.6L170.4,232.6z"/>
		</g>
	</g>
	<g>
		<g>
			<path class="st9" d="M159.3,322.6c-0.7-3.6-2.1-6.9-3.6-10.1c-1.4-2.9-3.1-5.7-5.7-7.3c-0.4-0.2-0.1-0.8,0.3-0.6
				c2.6,1.5,4.3,4.2,5.7,7.1c1.7,3.3,3.1,6.9,3.9,10.7C160,322.8,159.4,323,159.3,322.6L159.3,322.6z"/>
		</g>
	</g>
	<g>
		<g>
			<path class="st9" d="M141.7,312.1c1.2,1.9,1.9,4.3,1.7,6.7c-0.1,1.1-0.4,2.1-0.7,3.1c-0.5,1.2-0.4,2-0.1,3.2
				c0.2,0.9,0.5,1.7,0.7,2.6c1.8,6.7,3.8,13.3,6.2,19.8c0.2,0.4-0.4,0.8-0.5,0.3c-2.2-6.1-4.2-12.4-5.9-18.8
				c-0.5-1.6-0.9-3.2-1.2-4.9c-0.2-1.1,0.1-1.8,0.5-2.8c1.1-3,0.7-6.3-1-8.8C141,312.1,141.4,311.8,141.7,312.1L141.7,312.1z"/>
		</g>
	</g>
	<g>
		<g>
			<path class="st9" d="M155.1,325.2c-1.2-1.4-2.7-2.4-4.5-2.7c-0.4-0.1-0.2-0.7,0.2-0.7c1.8,0.4,3.4,1.4,4.7,2.9
				C155.9,325,155.4,325.5,155.1,325.2L155.1,325.2z"/>
		</g>
	</g>
	<g>
		<g>
			<path class="st9" d="M172.4,288.8c-1.2,0.6-2.9-1.2-3.7-2c-1.4-1.2-2.6-2.7-3.5-4.5c-0.2-0.4,0.3-0.7,0.5-0.3
				c0.7,1.5,1.8,2.7,2.9,3.8c0.6,0.5,2.8,2.8,3.5,2.4C172.4,288,172.8,288.6,172.4,288.8L172.4,288.8z"/>
		</g>
	</g>
	<g>
		<g>
			<path class="st9" d="M197.7,282.7c0.6-2.8-2.4-3.7-4.1-2.7c-1.4,0.9-2.3,2.5-2.8,4.3c-0.4,1.6-0.6,3.2-0.6,4.9
				c-0.1,2.2,1.4,4,3.3,3.1c0.4-0.2,0.5,0.5,0.2,0.7c-1.5,0.7-3.4-0.2-3.9-2c-0.4-1.3-0.1-3.1,0.1-4.5s0.4-2.7,0.9-4
				c0.8-2.1,2.7-3.9,4.8-3.7c1.8,0.1,3.3,1.9,2.9,4.1C198.1,283.3,197.6,283.2,197.7,282.7L197.7,282.7z"/>
		</g>
	</g>
	<g>
		<g>
			<path class="st9" d="M188.4,262.7c-0.2,0.9-0.3,1.8-0.3,2.7c0,0.4-0.6,0.5-0.7,0c0-1,0.1-1.9,0.3-2.9
				C187.9,262,188.4,262.2,188.4,262.7L188.4,262.7z"/>
		</g>
	</g>
	<g>
		<g>
			<path class="st9" d="M179.5,309.7c-3.6-2.3-6.7-5.5-9.1-9.3c-0.3-0.4,0.3-0.7,0.5-0.3c2.3,3.8,5.4,6.9,8.9,9.1
				C180.1,309.3,179.9,309.9,179.5,309.7L179.5,309.7z"/>
		</g>
	</g>
	<g>
		<g>
			<path class="st9" d="M180.7,246c-0.5,6.4,2.3,12.3,3.2,18.5c0.8,5.7-0.1,11.5-2.3,16.6c-0.2,0.4-0.7,0-0.5-0.3
				c2.5-5.6,3.2-12.1,2-18.2c-1.1-5.5-3.3-10.8-2.8-16.6C180.1,245.6,180.8,245.6,180.7,246L180.7,246z"/>
		</g>
	</g>
	<path class="st14" d="M194.3,220.2c1.8,8.5,5.9,33.7-4.8,59.4c-1.5,3.6-7.3,16.9-19.5,29c-7,6.9-13.8,11.2-18.7,13.9
		c1,0.7,2.1,1.4,3.1,2.1c1.2,6.6,2.1,11.5,2.5,13.9c1.5,8.4,2.2,12.6,1,13.6c-1.9,1.7-6.7-1.4-9.7-4.8c-2.6-3.1-3.6-6.3-5.9-14.3
		c-2.1-7.1-3.6-13.1-4.8-17.4c2.9-2,6.8-4.9,11.1-9c4.2-4,9.5-9.1,13.4-16.6c5.6-10.5,6.3-21.7,6.1-29.2c-0.9-1.8-2.2-4.5-3.4-8
		c-1-3.1-5.6-16.9-1.6-25.4C167.1,218.7,180.2,214.8,194.3,220.2z"/>
	<path class="st15" d="M175.9,228.3c2.1,6.6,4.7,17.9,3.4,32c-1.3,15-6.4,25.3-9.8,32c-7,13.9-15.7,23.1-22.2,28.7
		c0.2,3.7,0.7,8.1,1.8,12.9c1.5,6.8,3.5,12.3,5.5,16.4c-0.4,0-0.8,0-1.4-0.1c-1.8-0.4-2.8-2-3.2-2.6c-1.1-1.2-2.7-3.1-4.2-5.7
		c-2.1-3.6-3-6.9-4.7-13.4c-2-7.4-3.2-12.2-3.6-14.2c4-2.4,9.7-6.3,15.6-12.6c2.8-3,6.4-6.9,9.5-12.6c5.7-10.7,6.2-22.3,5.9-29.7
		c-2.3-3.9-6.7-12.5-6.3-23.7c0.1-2.8,0.5-5.3,1-7.4C167.5,228.3,171.7,228.3,175.9,228.3z"/>
</g>
<g id="hand_r">
	<path class="st10" d="M203.1,142c4.1-1.9,13,14.3,14.4,16.8c2.8,5.1,6.4,12.9,9.2,23.4c7.3,2.1,14.5,4.3,21.8,6.4
		c7.1-5.2,9.5-6,10.1-5.2c0.4,0.6,0.1,2.3-0.5,3.4c-0.7,1.3-1.4,1.5-1.4,2c0.1,1.2,4,1.3,7.2,2.4c6.4,2.2,10.8,8.9,10.3,10
		c-0.8,1.4-11.9-4.9-11.9-4.8c0,0.1,5.5,1.6,7.5,6.6c0.7,1.9,1.2,4.6,0.2,5.6c-0.6,0.5-1.5,0.4-4.8-1.2c-4.2-2-6.8-3.7-7-3.5
		c-0.2,0.4,8.4,6.3,7.8,7.8c-0.5,1.2-6.6-1.2-7.3-1.4c-4.8-1.8-8.4-4.1-11-6c-2.7,1.2-7.5,2.8-13.4,2.2
		c-10.7-1.1-17.5-8.6-19.3-10.6c-3.6-4.1-5.8-10.4-10.1-23c-2.5-7.4-5.6-17.8-3.4-27.6C201.7,143.9,202.1,142.5,203.1,142z"/>
	<g>
		<g>
			<path class="st9" d="M269.3,208c-2.2-3.7-6.2-5.1-9.6-6.9c-0.5-0.2-0.1-1.1,0.4-0.8c3.5,1.9,7.5,3.4,9.8,7.3
				C270.2,208,269.6,208.5,269.3,208L269.3,208z"/>
		</g>
	</g>
	<g>
		<g>
			<path class="st9" d="M256.7,193.9c-1.6,2.4-3.9,3.6-6.5,3.5c-0.5,0-0.5-1,0-0.9c2.3,0.1,4.5-1,6-3.2
				C256.4,192.8,257,193.4,256.7,193.9L256.7,193.9z"/>
		</g>
	</g>
	<g>
		<g>
			<path class="st9" d="M217.5,159.1c-1.2,1.9-2.8,3.4-4.7,4.5c0.1-0.2,0.1-0.3,0.2-0.5c0.6,2.9,1.4,5.6,2.5,8.2
				c0.3,0.5-0.5,1-0.7,0.5c-1.1-2.7-2.1-5.5-2.6-8.4c0-0.2,0-0.4,0.2-0.5c1.8-1,3.2-2.4,4.4-4.2
				C217.1,158.2,217.7,158.6,217.5,159.1L217.5,159.1z"/>
		</g>
	</g>
	<g>
		<g>
			<path class="st9" d="M218.7,199.6c0.6-4.7-2.7-8.5-6.7-8c-0.5,0.1-0.5-0.9,0-0.9c4.6-0.6,8.1,3.9,7.5,9.2
				C219.4,200.4,218.7,200.2,218.7,199.6L218.7,199.6z"/>
		</g>
	</g>
	<g>
		<g>
			<path class="st9" d="M242.2,187c0.5,3.1,0.6,6.2,0.3,9.3c-0.1,0.6-0.8,0.6-0.8,0c0.3-3.1,0.3-6-0.2-9.1
				C241.3,186.6,242.1,186.4,242.2,187L242.2,187z"/>
		</g>
	</g>
	<path class="st12" d="M200.7,150.3c3,4.7,5,8.8,6.2,11.6c4.5,9.9,5.4,14.6,9.8,21.3c1.6,2.5,4.4,6.2,8.7,10c3.3,0.8,7.9,2,13.5,3.7
		c6.8,2.1,10.3,3.2,14.2,5.2c3.2,1.7,7.7,4.5,12.7,9.5c-2.4-0.2-5.6-0.8-9-2.2c-3.9-1.5-7-3.5-9.1-5.2c-1.9,0.8-4.7,1.8-8.1,2.2
		c-8.8,0.9-15.3-3.2-17.4-4.5c-2-1.3-5.6-3.6-8.8-8.4c-0.9-1.4-1.9-3-4.1-8.9c-3.5-9.3-5.6-14.7-7-22.6
		C201.5,159.2,200.9,155.2,200.7,150.3z"/>
	<path class="st16" d="M268.7,206c-0.4-0.6-1.6-2.2-5.5-4c-1.5-0.7-5.6-2.5-6.1-1.4c-0.2,0.3-0.1,1,1.3,2.7c1.8,1.4,4.2,2.9,7.2,4.1
		c1.6,0.7,3.1,1.1,4.5,1.4C269.7,208.1,269.3,207.1,268.7,206z"/>
	<path class="st17" d="M201.2,159.9c1.7,3.5,4.7,9.5,8.3,17c5.2,10.9,8.1,16.2,10.6,18.9c3,3.3,10.6,9.9,27.8,8
		c-2.8,1.2-11.5,4.5-21.4,0.5c-7.1-2.9-11.3-8.1-12.3-9.4c-1-1.3-3.2-4.2-6.9-14.9C205.5,175.1,203.3,168.3,201.2,159.9z"/>
	<path class="st18" d="M264.4,211.3c-3.2-1.2-7-2.9-11.3-5.2c-3.1-1.7-5.1-2.9-5.2-2.7s3,2.9,6.6,4.9
		C258.3,210.4,261.8,211.1,264.4,211.3z"/>
</g>
<g id="backbag">
	<path class="st19" d="M181,142.7c-1.5-0.6-23.5-8.3-37.3,6.6c-15,16.1-7.4,44.6-3.8,57.8c3.8,14.1,8.8,18.1,11.4,19.6
		c5,3,10,2,14.8,1.1c8.4-1.4,20.2-3,35.5-3.5c-1.7-24.8-3.4-49.7-5-74.5C191.3,147.5,186.1,145.1,181,142.7z"/>
</g>
<g id="tube">
	<path class="st10" d="M161.1,154.1c-5.9,0.1-15.1,1.3-23.1,8.4c-5,4.5-9.9,11.4-16.9,39c-9,36-5.6,43-13.9,55.3
		c-1.2,1.7-12.2,17.7-29.5,19.8c-21.5,2.5-38-18.3-49.2-32.6C8.9,219.3,1.1,191.3-2.3,172.9c-3.3,1.2-6.4,2.3-9.7,3.5
		c10.3,30.7,22.3,53.6,31.6,69.2c17.8,29.6,28.4,36.4,35,39.5c4.8,2.3,20.8,10,38.3,2c16.2-7.4,23.7-23.8,26.1-29.1
		c2.8-6.1,3-8.8,7.2-30.6c8.2-42.5,11-50.4,17.3-55.3c3.5-2.8,9.8-5.8,20.6-4C163.1,163.3,162.1,158.7,161.1,154.1z"/>
	<g>
		<g>
			<path class="st9" d="M143.1,171.4c-0.3-3.3-1.9-6.1-4.2-7.9c-0.5-0.3,0-1.1,0.4-0.8c2.6,2,4.3,5.1,4.6,8.7
				C144,172.1,143.2,172,143.1,171.4L143.1,171.4z"/>
		</g>
	</g>
	<g>
		<g>
			<path class="st9" d="M135.1,183.5c-1.3-2.9-3.5-5-6.2-5.9c-0.5-0.2-0.3-1.1,0.2-0.9c2.9,0.9,5.3,3.2,6.7,6.3
				C136,183.5,135.4,184,135.1,183.5L135.1,183.5z"/>
		</g>
	</g>
	<g>
		<g>
			<path class="st9" d="M136.6,176.1c-1.1-2.3-3-3.8-5.2-4.1c-0.5-0.1-0.5-1,0-0.9c2.5,0.4,4.7,2,5.9,4.6
				C137.5,176.2,136.8,176.6,136.6,176.1L136.6,176.1z"/>
		</g>
	</g>
	<g>
		<g>
			<path class="st9" d="M129.4,206.1c-1.7-2.7-4.3-4.2-7.2-4.1c-0.5,0-0.5-0.9,0-0.9c3.2-0.2,6.1,1.6,7.8,4.5
				C130.4,206.1,129.7,206.6,129.4,206.1L129.4,206.1z"/>
		</g>
	</g>
	<g>
		<g>
			<path class="st9" d="M130.4,196.1c-1.4-2.6-3.9-3.5-6.3-3.9c-0.5-0.1-0.3-1,0.2-0.9c2.6,0.4,5.3,1.5,6.8,4.3
				C131.4,196.1,130.7,196.6,130.4,196.1L130.4,196.1z"/>
		</g>
	</g>
	<g>
		<g>
			<path class="st9" d="M133.3,190.8c-1.3-2.6-3.5-4.1-6.2-4.2c-0.5,0-0.5-1,0-0.9c2.8,0.1,5.3,1.8,6.8,4.6
				C134.4,190.8,133.6,191.3,133.3,190.8L133.3,190.8z"/>
		</g>
	</g>
	<g>
		<g>
			<path class="st9" d="M125.8,226.9c-2.2-2.8-5.3-4.3-8.6-4.1c-0.5,0-0.5-0.9,0-0.9c3.5-0.2,6.8,1.4,9.1,4.4
				C126.7,226.7,126.1,227.3,125.8,226.9L125.8,226.9z"/>
		</g>
	</g>
	<g>
		<g>
			<path class="st9" d="M126.9,221.2c-2.1-2.9-5-4.4-8.2-4.1c-0.5,0.1-0.5-0.9,0-0.9c3.4-0.3,6.6,1.3,8.8,4.4
				C127.8,221,127.3,221.7,126.9,221.2L126.9,221.2z"/>
		</g>
	</g>
	<g>
		<g>
			<path class="st9" d="M128,215c-1.5-2.1-3.5-3.3-5.8-3.6c-0.5-0.1-0.5-1,0-0.9c2.5,0.3,4.8,1.6,6.3,3.9
				C128.9,214.8,128.4,215.5,128,215L128,215z"/>
		</g>
	</g>
	<g>
		<g>
			<path class="st9" d="M125.8,209.9c-1.7-1.3-3.5-1.9-5.5-1.7c-0.5,0.1-0.5-0.9,0-0.9c2.1-0.2,4.1,0.3,5.9,1.8
				C126.6,209.4,126.2,210.3,125.8,209.9L125.8,209.9z"/>
		</g>
	</g>
	<g>
		<g>
			<path class="st9" d="M117.6,259.8c-1.6-3.1-4-5.4-6.9-6.5c-0.5-0.2-0.3-1.1,0.2-0.9c3.2,1.1,5.8,3.6,7.4,6.9
				C118.6,259.9,117.8,260.4,117.6,259.8L117.6,259.8z"/>
		</g>
	</g>
	<g>
		<g>
			<path class="st9" d="M120.9,251.6c-1.6-3.2-4.5-5.3-7.6-5.5c-0.5,0-0.5-1,0-0.9c3.5,0.3,6.5,2.5,8.3,6
				C121.9,251.6,121.2,252.1,120.9,251.6L120.9,251.6z"/>
		</g>
	</g>
	<g>
		<g>
			<path class="st9" d="M123,241.1c-1.9-3-4.9-4.6-8.1-4.3c-0.5,0.1-0.5-0.9,0-0.9c3.5-0.3,6.7,1.5,8.8,4.7
				C124,241.2,123.3,241.6,123,241.1L123,241.1z"/>
		</g>
	</g>
	<g>
		<g>
			<path class="st9" d="M120.5,243.4c-2.1-1.7-4.3-2.5-6.8-2.5c-0.5,0-0.5-0.9,0-0.9c2.6,0,5,0.8,7.2,2.6
				C121.4,243,121,243.8,120.5,243.4L120.5,243.4z"/>
		</g>
	</g>
	<g>
		<g>
			<path class="st9" d="M90.2,273.5c-0.6,2-0.8,4-0.7,6.1c0.1,1.9,0.4,4.4,1.7,5.6c0.4,0.4-0.2,1-0.6,0.7c-1.3-1.3-1.7-3.3-1.9-5.2
				c-0.3-2.5,0-5,0.7-7.4C89.7,272.7,90.4,272.9,90.2,273.5L90.2,273.5z"/>
		</g>
	</g>
	<g>
		<g>
			<path class="st9" d="M80.7,278.1c-1.2,3.1-0.9,6.7,0.7,9.6c0.3,0.5-0.5,1-0.7,0.5c-1.8-3.2-2-7.1-0.7-10.5
				C80.2,277.1,80.9,277.5,80.7,278.1L80.7,278.1z"/>
		</g>
	</g>
	<g>
		<g>
			<path class="st9" d="M63.7,275.8c-2.1,3.1-2.7,7.4-1.6,11.2c0.2,0.6-0.6,0.8-0.7,0.2c-1.3-4.1-0.7-8.7,1.8-12.1
				C63.6,274.7,64.1,275.4,63.7,275.8L63.7,275.8z"/>
		</g>
	</g>
	<g>
		<g>
			<path class="st9" d="M26.6,242.6c-1.8,0.8-3,2.7-3.3,4.9c-0.1,0.6-0.8,0.3-0.7-0.2c0.3-2.6,1.8-4.6,3.8-5.6
				C26.8,241.5,27.1,242.4,26.6,242.6L26.6,242.6z"/>
		</g>
	</g>
	<g>
		<g>
			<path class="st9" d="M12.6,220.1c-1.8,0.8-3.1,2.5-3.6,4.5c-0.2,0.6-0.9,0.3-0.7-0.2c0.7-2.4,2.2-4.2,4.2-5.2
				C12.9,219,13.1,219.9,12.6,220.1L12.6,220.1z"/>
		</g>
	</g>
	<g>
		<g>
			<path class="st9" d="M45.8,264.1c-2,3.1-2.8,6.9-2.2,10.7c0.1,0.6-0.7,0.8-0.7,0.2c-0.6-4,0.3-8.1,2.3-11.4
				C45.5,263.2,46.1,263.7,45.8,264.1L45.8,264.1z"/>
		</g>
	</g>
	<g>
		<g>
			<path class="st9" d="M53.5,271.3c-2.1,2.7-4.2,6.1-3,9.9c0.2,0.6-0.7,0.8-0.7,0.2c-1.2-4.1,1-7.8,3.3-10.8
				C53.3,270.2,53.9,270.8,53.5,271.3L53.5,271.3z"/>
		</g>
	</g>
	<g>
		<g>
			<path class="st9" d="M110,272.1c-0.7-3.4-2.7-6.1-5.4-7.7c-0.5-0.2-0.1-1.1,0.4-0.8c2.9,1.6,4.9,4.6,5.8,8.2
				C110.9,272.4,110.2,272.7,110,272.1L110,272.1z"/>
		</g>
	</g>
	<g>
		<g>
			<path class="st9" d="M105.4,277.5c-1.6-3.7-3.9-6.8-7-8.9c-0.5-0.3-0.1-1.1,0.4-0.8c3.2,2.1,5.7,5.3,7.3,9.2
				C106.4,277.5,105.6,278,105.4,277.5L105.4,277.5z"/>
		</g>
	</g>
	<g>
		<g>
			<path class="st9" d="M113.4,264.5c-1-2.2-2.5-3.9-4.5-4.8c-0.5-0.2-0.3-1.1,0.2-0.9c2.1,1,3.9,2.8,4.9,5.3
				C114.3,264.6,113.6,265.1,113.4,264.5L113.4,264.5z"/>
		</g>
	</g>
	<g>
		<g>
			<path class="st9" d="M36,254c-2.7,1.1-4.8,3.7-5.4,7c-0.1,0.6-0.8,0.3-0.7-0.2c0.7-3.6,3-6.5,6-7.7C36.1,252.9,36.4,253.8,36,254
				L36,254z"/>
		</g>
	</g>
	<g>
		<g>
			<path class="st9" d="M31,251.4c-1.3,0.8-2.2,2.1-2.7,3.7c-0.2,0.6-0.9,0.3-0.7-0.2c0.6-1.8,1.6-3.3,3.1-4.3
				C31,250.3,31.4,251.1,31,251.4L31,251.4z"/>
		</g>
	</g>
	<g>
		<g>
			<path class="st9" d="M21.6,235.5c-1.4,0.6-2.6,1.7-3.5,3.1c-0.3,0.5-1,0-0.7-0.5c1-1.7,2.3-2.9,4-3.6
				C21.9,234.4,22.1,235.3,21.6,235.5L21.6,235.5z"/>
		</g>
	</g>
	<g>
		<g>
			<path class="st9" d="M6,203.3c-2.2,0.4-4.1,1.8-5.4,3.9c-0.3,0.5-1,0-0.7-0.5c1.4-2.3,3.5-3.9,6-4.3C6.3,202.3,6.5,203.2,6,203.3
				L6,203.3z"/>
		</g>
	</g>
	<g>
		<g>
			<path class="st9" d="M69.8,279.2c-1.2,2.6-1.3,5.5-0.4,8.2c0.2,0.6-0.6,0.8-0.7,0.2c-1-3-0.8-6.2,0.5-8.9
				C69.3,278.2,70.1,278.6,69.8,279.2L69.8,279.2z"/>
		</g>
	</g>
	<g>
		<g>
			<path class="st9" d="M37.1,261.1c-1.5,1.7-2.2,3.9-2.2,6.3c0,0.6-0.8,0.6-0.8,0c-0.1-2.6,0.8-5.1,2.4-6.9
				C36.9,260,37.4,260.7,37.1,261.1L37.1,261.1z"/>
		</g>
	</g>
	<path class="st15" d="M162.5,158.1c-9.2,3.1-22.6,9.6-30.8,24.1c-7.8,13.8-4.7,22.6-11.4,49.3c-4.8,19.4-9.5,37.9-23,46.9
		c-17.3,11.5-38.5,0.7-42.3-1.4c-10.6-5.7-17.3-14.5-27.4-28c-7.6-10-12.5-18.8-14.9-23.3C6.8,214.8-1,197.6-6,174.5
		c-2,0.6-3.9,1.3-5.9,1.9c3.6,12,7.4,21.6,10.4,28.5c6.1,14.3,11.7,23.8,22.8,42.8c4.4,7.4,7.5,12.5,12.1,18.3
		c4.3,5.4,8,10,13.8,14.3c3.6,2.7,15.2,11,31.1,10c9-0.6,15.7-4,17.8-5.2c2-1.1,11.4-6.5,19-19.3c5.2-8.7,7-17.6,10.5-35.4
		c3.1-15.4,3.4-22.6,7.7-38.5c3.2-11.6,5-15.4,7.9-18.5c7.5-8.3,18-8.4,22.8-8.1C163.5,162.8,163,160.4,162.5,158.1z"/>
</g>
<g id="torso">
	<path class="st10" d="M205,142.9c3.5,5.1,3.5,15.7,3.7,37.1c0.1,6.9-0.1,12.7-0.2,16.5c3.6,6.3,7.4,12.6,11,19
		c-3.8,3.5-8.7,7.1-14.5,10.1c-17.6,9-34.2,7.1-42.5,5.4c-3.5-11.4-5.9-21-7.6-28c-7.8-32.9-6.2-41.7-3.6-47.7
		c2.5-6.1,6.2-9.7,7.8-11.3C172.7,130.8,196.6,130.4,205,142.9z"/>
	<g>
		<g>
			<path class="st9" d="M203,202.8c-0.7,0.8-1.5,1.4-2.3,1.8c-0.5,0.2-0.7-0.7-0.2-0.9c0.7-0.4,1.4-0.9,2.1-1.6
				C202.8,201.7,203.4,202.4,203,202.8L203,202.8z"/>
		</g>
	</g>
	<g>
		<g>
			<path class="st9" d="M208.9,193.2c0.1,2.5-0.6,4.8-1.8,6.8c-0.2,0.4-0.7,0-0.5-0.3c1.2-1.9,1.8-4.1,1.7-6.4
				C208.3,192.7,208.9,192.7,208.9,193.2L208.9,193.2z"/>
		</g>
	</g>
	<g>
		<g>
			<path class="st9" d="M177.5,189.7c0.2,0.9,0.8,2.7,0.4,3.6c-0.5,0.9-2.1,1-2.8,1.2c-2.6,0.6-5.3,0.8-7.9,0.6
				c-5.4-0.4-10.6-2.5-15.1-6.1c-0.3-0.2,0-0.9,0.3-0.6c3.9,3.1,8.3,5.1,13,5.8c2.2,0.3,4.6,0.4,6.8,0.1c1.2-0.2,2.5-0.4,3.7-0.7
				c0.9-0.2,1.5-0.1,1.6-1.6c0-0.7-0.3-1.4-0.4-2.1C176.9,189.4,177.4,189.2,177.5,189.7L177.5,189.7z"/>
		</g>
	</g>
	<g>
		<g>
			<path class="st9" d="M213.1,204.5c-3.2,4-7,7.3-11.2,9.6c-0.4,0.2-0.7-0.4-0.3-0.6c4.2-2.3,7.9-5.5,11.1-9.4
				C213,203.7,213.3,204.2,213.1,204.5L213.1,204.5z"/>
		</g>
	</g>
	<g>
		<g>
			<path class="st9" d="M202.2,163.2c0.8,0.1,1.7-1.7,1.9-2.5c0.3-1.1,0.3-2.3-0.1-3.4c-0.7-2.2-2.7-3.6-4.7-2.7
				c-1.9,0.8-2.8,3.3-2.1,5.4c0.4,1.2,1.1,2.1,2.1,2.7c0.8,0.5,2.3,1,3.3,0.4c0.4-0.2,0.7,0.4,0.3,0.6c-1,0.7-2.7,0.2-3.7-0.3
				s-1.9-1.5-2.3-2.7c-0.9-2.5,0-5.6,2.2-6.7c2.4-1.2,4.8,0.6,5.7,3.3c0.4,1.3,0.4,2.8-0.1,4.1c-0.4,1-1.2,2.6-2.2,2.5
				C201.8,163.9,201.8,163.2,202.2,163.2L202.2,163.2z"/>
		</g>
	</g>
	<g>
		<g>
			<path class="st9" d="M208.8,185.8c-3.3,3.1-7.3,4.7-11.5,4.6c-0.4,0-0.4-0.7,0-0.7c4,0.1,7.8-1.5,11-4.4
				C208.7,185,209.1,185.5,208.8,185.8L208.8,185.8z"/>
		</g>
	</g>
	<g>
		<g>
			<path class="st9" d="M193.9,207.5c-7.2,3-14.8,4.4-22.4,4c-0.4,0-0.4-0.7,0-0.7c7.6,0.4,15.1-1,22.3-4
				C194.1,206.7,194.2,207.4,193.9,207.5L193.9,207.5z"/>
		</g>
	</g>
	<g>
		<g>
			<path class="st9" d="M170.3,229.2c0.1,0.9,0.3,1.7,0.6,2.6c0.1,0.4-0.5,0.6-0.6,0.2c-0.3-0.8-0.5-1.7-0.6-2.6
				C169.6,229,170.2,228.8,170.3,229.2L170.3,229.2z"/>
		</g>
	</g>
	<g>
		<g>
			<path class="st9" d="M167.4,229.1c0,0.7,0.1,1.5,0.5,2.1c0.2,0.4-0.4,0.7-0.5,0.3c-0.4-0.8-0.6-1.6-0.5-2.5
				C166.7,228.6,167.4,228.6,167.4,229.1L167.4,229.1z"/>
		</g>
	</g>
	<g>
		<g>
			<path class="st9" d="M164.4,228.5c0,0.6,0.1,1.2,0.5,1.7c0.2,0.4-0.3,0.7-0.5,0.3c-0.4-0.6-0.5-1.4-0.5-2.1
				C163.7,228.1,164.4,228.1,164.4,228.5L164.4,228.5z"/>
		</g>
	</g>
	<g>
		<g>
			<path class="st9" d="M187.1,161.8c0.3,3,0.7,6,0.9,9c0.1,0.6,0.3,1.6,0,2.1c-0.5,0.7-1.7,0.6-2.2,0.7c-4.8,0.9-9.6,1.5-14.5,1.8
				c-0.4,0-0.4-0.7,0-0.7c4.3-0.3,8.5-0.8,12.8-1.6c0.5-0.1,1-0.2,1.6-0.3c0.5-0.1,1.2,0,1.6-0.3c0.8-0.6,0.3-2.7,0.2-3.7
				c-0.3-2.4-0.5-4.8-0.7-7.2C186.5,161.3,187.1,161.3,187.1,161.8L187.1,161.8z"/>
		</g>
	</g>
	<g>
		<g>
			<path class="st9" d="M186.7,161.7c-4.7-0.9-9.3-0.3-13.9,0.6c-1,0.2-2.7,0.1-3.1,1.5c-0.2,1,0.1,2.4,0.1,3.4
				c0.2,2.6,0.7,5.2,1.4,7.7c0.1,0.4-0.5,0.6-0.6,0.2c-0.8-2.8-1.3-5.8-1.5-8.8c-0.1-1-0.4-2.5,0-3.4c0.3-0.8,0.9-0.8,1.6-1
				c5.3-1.1,10.6-2,15.9-0.9C187.2,161.1,187,161.8,186.7,161.7L186.7,161.7z"/>
		</g>
	</g>
	<g>
		<g>
			<path class="st9" d="M187,165.5c-5.8-1.2-11.7-0.6-17.3,1.8c-0.4,0.2-0.5-0.5-0.2-0.7c5.6-2.4,11.7-3,17.5-1.8
				C187.6,164.9,187.4,165.5,187,165.5L187,165.5z"/>
		</g>
	</g>
	<g>
		<g>
			<path class="st9" d="M178.8,168.4c0.2,1.8,0.5,3.7,0.6,5.5c0.1,0.4-0.6,0.4-0.7,0c-0.2-1.8-0.4-3.6-0.6-5.4
				C178.2,168.2,178.7,168,178.8,168.4L178.8,168.4z"/>
		</g>
	</g>
	<g>
		<g>
			<path class="st9" d="M178.6,168.8c-2.6,0.5-5.2,1.1-7.9,1.6c-0.4,0.1-0.6-0.6-0.2-0.7c2.6-0.5,5.2-1.1,7.9-1.6
				C178.7,168,178.9,168.7,178.6,168.8L178.6,168.8z"/>
		</g>
	</g>
	<g>
		<g>
			<path class="st9" d="M185.7,216.8c0.1,2.4,1,4.8,1.7,7.1c0.7,2.3,1.4,4.6,2.1,6.9c0.1,0.4-0.5,0.6-0.6,0.2
				c-0.8-2.5-1.6-5-2.2-7.5c-0.7-2.1-1.4-4.4-1.5-6.7C185.1,216.4,185.6,216.4,185.7,216.8L185.7,216.8z"/>
		</g>
	</g>
	<g>
		<g>
			<path class="st9" d="M185.5,216.8c-4.7,1-9.4,1.6-14.1,1.8c0.1-0.1,0.2-0.2,0.3-0.3c-0.2,4.8,0.7,9.5,2.4,13.8
				c0.2,0.4-0.4,0.7-0.5,0.3c-1.8-4.5-2.6-9.3-2.4-14.2c0-0.2,0.1-0.3,0.3-0.3c4.7-0.2,9.3-0.8,14-1.8
				C185.6,216,185.8,216.7,185.5,216.8L185.5,216.8z"/>
		</g>
	</g>
	<g>
		<g>
			<path class="st9" d="M186.9,224.1c-4.5,2.1-9.4,2.8-14.2,2.1c-0.4-0.1-0.4-0.7,0-0.7c4.8,0.7,9.6,0,14.1-2.1
				C187,223.2,187.1,223.9,186.9,224.1L186.9,224.1z"/>
		</g>
	</g>
	<g>
		<g>
			<path class="st9" d="M177.3,222.8c0.2,1,0.3,1.9,0.5,2.9c0.1,0.4-0.5,0.6-0.6,0.2c-0.2-1-0.3-1.9-0.5-2.9
				C176.6,222.5,177.2,222.3,177.3,222.8L177.3,222.8z"/>
		</g>
	</g>
	<g>
		<g>
			<path class="st9" d="M185.5,229.7c0.3,0,0.3-0.4,0.2-0.6c-0.1-0.2-0.2-0.4-0.4-0.6c-0.4-0.3-0.8-0.2-1,0.3
				c-0.5,0.9,0.5,1.8,1.1,1.2c0.3-0.3,0.7,0.2,0.5,0.5c-0.6,0.5-1.4,0.5-2-0.1c-0.6-0.7-0.4-1.8,0.2-2.3c0.7-0.6,1.5-0.4,2,0.4
				c0.5,0.7,0.3,1.9-0.6,2.1C185.1,230.4,185.1,229.8,185.5,229.7L185.5,229.7z"/>
		</g>
	</g>
	<g>
		<g>
			<path class="st9" d="M181,230.2c0.4-0.1,0.7-0.6,0.4-1c-0.3-0.5-0.7-0.5-1.1-0.1c-0.3,0.3-0.4,0.8,0,1.1c0.3,0.2,0.7,0.2,0.9,0.2
				c0.4,0,0.4,0.7,0,0.7c-0.6,0-1.4-0.1-1.7-0.7c-0.4-0.8,0.1-1.7,0.7-2c0.7-0.3,1.4,0,1.7,0.8s-0.2,1.7-0.8,1.8
				C180.8,231,180.6,230.3,181,230.2L181,230.2z"/>
		</g>
	</g>
	<g>
		<g>
			<path class="st9" d="M176.6,230.4c0.8-0.2,0.5-1.7-0.4-1.3c-0.3,0.1-0.5,0.6-0.4,0.9c0.1,0.4,0.6,0.7,0.9,0.6
				c0.4-0.1,0.6,0.6,0.2,0.7c-0.7,0.2-1.4-0.2-1.6-1.1c-0.2-0.7,0.2-1.6,0.8-1.8c0.7-0.2,1.4,0.2,1.6,0.9c0.2,0.8-0.3,1.6-0.8,1.8
				C176.3,231.2,176.2,230.6,176.6,230.4L176.6,230.4z"/>
		</g>
	</g>
	<g>
		<g>
			<path class="st9" d="M173.2,143.2c-3.9,1.9-7.6,4.5-10.9,7.8c-0.4,0.4-0.9-0.3-0.6-0.7c3.4-3.4,7.1-6,11.2-8
				C173.4,142.1,173.6,143,173.2,143.2L173.2,143.2z"/>
		</g>
	</g>
	<g>
		<g>
			<path class="st9" d="M172.9,142.6c-0.5-0.6-1-1.2-1.7-1.6c-0.9-0.5-1.6-0.2-2.5,0.3c-0.9,0.5-1.8,1.2-2.6,1.9
				c-1.9,1.6-3.5,3.6-5.2,5.5c-0.4,0.4-0.9-0.2-0.6-0.7c2.1-2.5,4.3-5,6.8-6.8c0.8-0.6,2.2-1.7,3.4-1.6c1.1,0.1,2.2,1.5,3,2.3
				C173.8,142.3,173.2,143,172.9,142.6L172.9,142.6z"/>
		</g>
	</g>
	<g>
		<g>
			<path class="st9" d="M161.7,151c-0.5-0.6-0.8-1.3-1.3-1.9c-0.3-0.5,0.3-1.1,0.6-0.7c0.5,0.7,0.9,1.4,1.4,2.1
				c0.1,0.2,0,0.5-0.1,0.7C162,151.3,161.8,151.2,161.7,151L161.7,151z"/>
		</g>
	</g>
	<path class="st20" d="M204.2,144c-3.5,1.2-7.5,2.3-11.5,3.3c-4.9,1.2-9.6,2.1-14,2.8c4.2,28,5.7,38.5,6.2,42.5
		c0.1,0.7,0.7,5.3,1.5,11.4c0.3,1.9,0.5,3.4,0.6,4.3c1.2,0.1,2.4,0.2,3.7,0.3c3.2,6,6.3,12.1,9.4,18.1c-3.5,1.8-8.1,3.7-13.5,4.7
		c-10,2-18.5,0.5-23.7-1.1c-0.9-3.1-2.2-7.8-3.9-13.6c-7.9-28.5-8.7-36.3-8.9-39.9c-0.6-9.9-0.9-16.2,2.1-23.2
		c6.1-14.1,22.8-18.4,23.6-18.6C191,132.2,202.3,142.2,204.2,144z"/>
	<path class="st21" d="M208.6,196.8c0.2,0.1-0.4,3.8-2.8,5.9c-1,0.9-2.2,1.3-2.3,1.2c-0.1-0.2,1.5-1.1,3.1-3.1
		C208.1,198.6,208.5,196.7,208.6,196.8z"/>
	<path class="st22" d="M193.9,207.4c-1.6,1.6-4,3.5-7.3,4.8c-7.2,2.8-13.6,0.2-15.8-0.7c3.2,0.2,7.2,0.2,11.7-0.6
		C187,210.1,190.9,208.7,193.9,207.4z"/>
	<path class="st23" d="M152.1,162.7c2.1,14.4,4.8,26.2,6.9,34.6c4.2,16.9,6.7,20.8,9,23.6c8,9.4,19.8,9.7,25.1,9.4
		c-3.9,1-8.8,1.9-14.2,2.1c-6.3,0.2-11.8-0.4-16.2-1.2c-3.3-10.1-5.5-18.8-7.1-25.6c-4.6-19.9-4.7-28.9-4.4-34.6
		C151.4,167.5,151.8,164.7,152.1,162.7z"/>
</g>
<g id="hand_l">
	<path class="st10" d="M157.3,145.2c-4.3,0.3-7,10.4-8.7,16.7c-1.9,7-6.1,23.1,0.3,39.3c3.9,9.8,10.1,16,16.6,22.4
		c3.8,3.8,7.3,6.5,9.8,8.3c-0.1,1.2-0.6,6,2.1,10.4c3.4,5.7,8.9,6.2,9.6,6.3c-3.3-5.1-3.8-6.2-3.6-6.3c0.2-0.2,1.8,2.6,4.5,3.8
		c2.8,1.2,5.6,0.2,7.6-0.7c-1.4-0.7-3.5-2-5.3-4.3c-1.1-1.3-2-2.9-1.8-3.1c0.3-0.4,2.3,2.6,5.2,2.7c1.9,0.1,3.4-1,4.3-1.8
		c-1-0.2-3.5-0.8-5.8-3.2c-1.3-1.4-2.1-3-2.5-4c0.7-0.2,1.5-0.4,2.3-0.5c2.1-0.2,3.7,0.2,4.9,0.5c-2.6-4-5.2-5.8-7.2-6.6
		c-3.4-1.6-5.6-0.9-8.8-3.2c-1.9-1.4-3-3-4.3-5c-6.4-10.4-11-17.8-11.5-27.7c-0.5-10,3.8-10.4,3.5-20.5
		C168.2,157.1,162.1,144.9,157.3,145.2z"/>
	<g>
		<g>
			<path class="st9" d="M194.9,245.7c-3.3,0.9-7.4-1.7-9.4-4.6c-0.3-0.5,0.3-1.1,0.6-0.7c1.8,2.6,5.6,5.2,8.6,4.4
				C195.2,244.7,195.3,245.6,194.9,245.7L194.9,245.7z"/>
		</g>
	</g>
	<g>
		<g>
			<path class="st9" d="M164.9,183.2c-2.6-3.6-6.7-4.5-10.5-4.8c-0.4,0-0.4-0.7,0-0.7c4,0.3,8.2,1.2,10.9,5
				C165.6,183,165.1,183.5,164.9,183.2L164.9,183.2z"/>
		</g>
	</g>
	<g>
		<g>
			<path class="st9" d="M154.6,178.5c-0.5,2.8-0.6,5.5-0.3,8.4c0.1,0.4-0.6,0.4-0.7,0c-0.3-2.9-0.2-5.7,0.3-8.6
				C154.1,177.9,154.7,178,154.6,178.5L154.6,178.5z"/>
		</g>
	</g>
	<g>
		<g>
			<path class="st9" d="M164.8,190.9c-2.9-2.8-6.6-3.3-10.3-3.8c-0.4,0-0.4-0.7,0-0.7c3.8,0.4,7.6,1,10.7,4
				C165.5,190.7,165,191.2,164.8,190.9L164.8,190.9z"/>
		</g>
	</g>
	<g>
		<g>
			<path class="st9" d="M164.7,186.2c-2.8-3.1-6.5-4.8-10.4-4.8c-0.4,0-0.4-0.7,0-0.7c4-0.1,7.9,1.7,10.8,5
				C165.3,186,164.9,186.5,164.7,186.2L164.7,186.2z"/>
		</g>
	</g>
	<g>
		<g>
			<path class="st9" d="M150.4,158.4c-0.2,0.6-0.5,1.1-0.8,1.6c-0.3,0.3-0.7-0.2-0.5-0.5c0.3-0.3,0.6-0.8,0.7-1.2
				C149.9,157.8,150.5,158,150.4,158.4L150.4,158.4z"/>
		</g>
	</g>
	<g>
		<g>
			<path class="st9" d="M146.9,192.3c5,2.6,7.4,9.2,5.5,15.2c-0.1,0.4-0.7,0.2-0.6-0.2c1.9-5.8-0.4-12-5.2-14.4
				C146.3,192.8,146.6,192.1,146.9,192.3L146.9,192.3z"/>
		</g>
	</g>
	<g>
		<g>
			<path class="st9" d="M177.3,218.7c-0.9,2-1.8,4.4-3.2,6c-1.2,1.4-2.8,2.2-4.3,2.7c-0.4,0.1-0.6-0.5-0.2-0.7
				c1.6-0.6,3.2-1.4,4.3-2.9c1.2-1.6,2-3.7,2.8-5.6C177.1,217.9,177.5,218.3,177.3,218.7L177.3,218.7z"/>
		</g>
	</g>
	<g>
		<g>
			<path class="st9" d="M165.4,214.8c-1.1,1.6-2.3,3.1-3.6,4.5c-0.3,0.3-0.7-0.2-0.5-0.5c1.4-1.3,2.6-2.8,3.6-4.5
				C165.2,214,165.7,214.5,165.4,214.8L165.4,214.8z"/>
		</g>
	</g>
	<g>
		<g>
			<path class="st9" d="M164.8,214.6c-0.3-0.5-0.7-1.3-1.2-1.7c-0.7-0.6-1.1,0-1.7,0.4c-1,0.8-2.1,1.7-3.1,2.7
				c-0.3,0.3-0.7-0.2-0.5-0.5c0.7-0.7,1.5-1.4,2.2-2.1c0.7-0.5,1.5-1.5,2.2-1.7c1-0.3,2,1.6,2.4,2.4
				C165.6,214.6,165,214.9,164.8,214.6L164.8,214.6z"/>
		</g>
	</g>
	<path class="st24" d="M164,151c-2.5,3.2-8,10.9-9.8,22.7c-1.7,11,0.8,19.5,2.2,24.5c5.3,18.3,17.3,28.1,21.6,31.2
		c0.4,1.6,0.9,4,1.5,6.9c0.8,4,0.9,4.6,1.4,5.7c1.9,4.6,5.4,6.1,5.2,6.5c-0.3,0.5-6-1-9.1-6.5c-2.3-4.2-2.1-8.8-2-10.4
		c-4.2-2.8-8.9-6.5-13.4-11.5c-4.3-4.6-8.7-9.4-12.1-17.6c-3.4-8-4-15.1-4.2-18.7c-0.4-7.3,0.7-12.7,2-17.9
		c1.9-8.6,4.4-19.7,9.4-20.4C157.7,145.5,160.3,145.5,164,151z"/>
	<path class="st21" d="M148,196.6c3.6,7.3,7.5,12.8,10.4,16.6c5.4,6.9,10.2,12.7,17.4,14c2,0.3,3.6,0.2,4.8,0.1
		c-0.8,0.3-2.6,1.2-3.6,3.3c-1.4,2.9-0.3,6.2,0.5,8.6c1.4,4.1,3.8,6.7,5.4,8.1c-1.2-0.6-3.1-1.7-4.7-3.8c-3.6-4.9-3.2-11-3.1-12.2
		c-6.1-4-10.5-8.2-13.5-11.5c-3.9-4.1-8-8.6-11.2-16.1C149.2,200.9,148.4,198.4,148,196.6z"/>
</g>
<g id="head">
	<path class="st10" d="M209.5,111.6c1.4,7-1.3,12.7-3.5,17.5c-2.1,4.6-4,8.5-8,10.3c-0.4,0.2-5.7,2.5-10.7-0.7
		c-5.6-3.6-6.5-11.3-6.9-14.8c-0.3-2.7-1.2-10.4,3.1-16.7c4.6-6.8,13.9-10.3,20.2-5.8C208.1,104.5,209.3,110.4,209.5,111.6z"/>
	<path class="st9" d="M211.6,122.1c0.2-2.1,1-14.4-6.2-19.5c-6.5-4.6-14.2,0.3-15.3,1c-6.1,3.9-9.1,11.5-9.3,18.4
		c0,1.7-0.2,9,4.2,13.3c2.2,2.2,4.7,2.7,7.8,3.4c4.8,1,8.8,0.5,11.4,0c-0.2,1.8-0.3,3.6-0.5,5.5c-5.6,1.4-10.3,1.4-13.4,1.1
		c-4.5-0.3-7.9-1.4-10.3-2.1c-4-1.2-7.3-2.7-9.8-4c-0.6-3.6-1.1-8.7-1.1-14.8c0-8.7-0.1-14.5,2.4-20.7c1-2.5,4.7-11.8,13.6-15.3
		c10.1-4,18.7,2.6,20.2,3.8c2.1,1.6,7,6.1,9.3,14.3c0.4,1.2,2.1,7.7,0.3,15.6c-2.6,12.2-11.6,19.1-11.9,18.7
		C204.4,139.2,210.7,132.8,211.6,122.1z"/>
	<g id="Layer_5">
		<path class="st25" d="M206.8,122.3c0,0-5.5,2.3-10.4,0.9c-5-1.4-8.5-3.5-11.7-7.8c0,0,1.9,17.1,10,17.8
			C202.8,133.9,206.8,122.3,206.8,122.3z"/>
		
			<ellipse transform="matrix(0.9999 -1.314455e-02 1.314455e-02 0.9999 -1.4789 2.6689)" class="st25" cx="202.3" cy="113.8" rx="1.7" ry="3"/>
		<path class="st25" d="M191.5,113.5c-0.8,0-1.8,0.5-2.5,0.9c0.1-2.1,1.2-4,2.4-4.1c1.3-0.1,2.7,1.8,3,4.1
			C193.6,114,192.5,113.5,191.5,113.5z"/>
	</g>
</g>
</svg>
