<?xml version="1.0" encoding="utf-8"?>
<!-- Generator: Adobe Illustrator 22.0.1, SVG Export Plug-In . SVG Version: 6.00 Build 0)  -->
<svg version="1.1" id="Layer_1" xmlns="http://www.w3.org/2000/svg" xmlns:xlink="http://www.w3.org/1999/xlink" x="0px" y="0px"
	 viewBox="0 0 700 534.6" style="enable-background:new 0 0 700 534.6;" xml:space="preserve">
<style type="text/css">
	.st0{opacity:0.8;}
	.st1{fill:url(#SVGID_1_);}
	.st2{fill:#2B8ACA;}
	.st3{opacity:0.1;fill:#FFFFFF;enable-background:new    ;}
	.st4{opacity:0.15;fill:#537FC1;enable-background:new    ;}
	.st5{opacity:0.3;}
	.st6{fill:url(#SVGID_2_);}
	.st7{fill:#FFFFFF;}
	.st8{opacity:0.1;fill:#020202;enable-background:new    ;}
	.st9{fill:url(#SVGID_3_);}
	.st10{opacity:5.000000e-02;fill:#020202;enable-background:new    ;}
	.st11{opacity:0.5;fill:#5D84C3;enable-background:new    ;}
	.st12{opacity:0.5;}
	.st13{fill:#6FC6A5;}
	.st14{opacity:0.5;fill:#F16147;enable-background:new    ;}
	.st15{fill:#73CAEC;}
	.st16{fill:#F16584;}
	.st17{fill:url(#SVGID_4_);}
	.st18{fill:url(#SVGID_5_);}
</style>
<g class="st0">
	
		<linearGradient id="SVGID_1_" gradientUnits="userSpaceOnUse" x1="373.4731" y1="200.0221" x2="373.4731" y2="55.8221" gradientTransform="matrix(1 0 0 1 0 2)">
		<stop  offset="0" style="stop-color:#828282;stop-opacity:0.25"/>
		<stop  offset="0.54" style="stop-color:#828282;stop-opacity:0.12"/>
		<stop  offset="1" style="stop-color:#828282;stop-opacity:0.1"/>
	</linearGradient>
	<ellipse class="st1" cx="373.5" cy="129.9" rx="93.1" ry="72.1"/>
</g>
<ellipse class="st2" cx="373.5" cy="129.9" rx="91" ry="70.5"/>
<path class="st3" d="M297.2,137.7c0-38.9,40.7-70.5,91-70.5c15.6-0.1,31.1,3.1,45.4,9.4c-16-10.8-36.9-17.4-59.8-17.4
	c-50.3,0-91,31.6-91,70.5c0,26.1,18.4,49,45.7,61.2C309.2,177.9,297.2,158.9,297.2,137.7z"/>
<polygon class="st4" points="560.7,512.8 359.1,504.5 157.4,496.2 265.4,325.7 373.5,155.2 467.1,334 "/>
<g class="st5">
	
		<linearGradient id="SVGID_2_" gradientUnits="userSpaceOnUse" x1="301.3091" y1="1810.8767" x2="301.3091" y2="1693.0154" gradientTransform="matrix(0.95 0.32 -0.32 0.95 636.31 -1369.48)">
		<stop  offset="0" style="stop-color:#828282;stop-opacity:0.25"/>
		<stop  offset="0.54" style="stop-color:#828282;stop-opacity:0.12"/>
		<stop  offset="1" style="stop-color:#828282;stop-opacity:0.1"/>
	</linearGradient>
	<path class="st6" d="M397.4,405.7l7.8-23.3c5.5-16.6-0.5-34.9-14.7-45.1h0.1c-3.1-2.2-6.5-3.9-10-5.1l0,0h-0.1h-0.1l0,0
		c-3.5-1.2-7.1-1.9-10.7-2c-1.3-0.1-2.6-0.1-3.9,0c-2.2,0.1-4.5,0.4-6.7,0.9c-0.6,0.1-1.3,0.3-1.8,0.5s-1.2,0.4-1.8,0.6
		c-1.2,0.4-2.4,0.9-3.6,1.4c-0.6,0.3-1.2,0.5-1.7,0.8c-1.7,0.8-3.4,1.8-4.9,2.9c-0.5,0.4-1,0.7-1.6,1.1c-6.3,4.8-11,11.3-13.5,18.8
		l-12.3,36.6c-1.9,5.7-2.5,11.9-1.7,17.9c0.1,0.9,0.3,1.8,0.5,2.7s0.4,1.8,0.6,2.7c0.2,0.6,0.3,1.2,0.5,1.8c0.3,0.9,0.6,1.7,1,2.6
		c0.2,0.6,0.5,1.1,0.7,1.7c0.5,1.1,1.1,2.2,1.7,3.3s1.3,2.1,2,3.1c0.5,0.8,1.1,1.5,1.7,2.2c0.8,1,1.6,1.9,2.5,2.8
		c3.8,3.8,8.3,6.8,13.3,8.8l0,0l0,0l0.2,0.1c0.3-0.5,0.6-0.9,0.9-1.4c1.9-2.6,5.2-4.4,8.4-3.8c0.2,0.1,0.5,0.1,0.7,0.2
		c1.6,0.6,3.2,1.6,4.7,2.1c1.1,0.5,2.4,0.5,3.6,0c3.1-1.6,1.9-6.8,4.6-9.1c0.1-0.1,0.3-0.2,0.4-0.3l-0.1-0.1c2-1.3,4.9-0.4,7.2,0.4
		c2.5,0.9,5.9,1.5,7.6-0.6c1.2-1.4,1.1-3.6,2.2-5.1c1.3-1.7,3.8-1.9,6-1.6h0.1c4.1,1.7,8.6-1.1,8.3-5.6
		C395.1,412.5,397,406.9,397.4,405.7z"/>
</g>
<path class="st7" d="M342.5,440c1.9-2.5,5-4.3,8.1-3.6s5.9,3.6,8.7,2.1c3.7-2,1.1-9.3,7.1-9.8c1.3-0.1,2.5,0.1,3.7,0.6
	c2.5,1,6.5,2.2,8.5-0.1c1.2-1.4,1.1-3.5,2.2-4.9c1.3-1.7,3.7-1.9,5.8-1.5h0.1c4,1.6,8.3-1.1,8-5.4c-0.4-5.7,1.4-11.1,1.8-12.3
	l7.6-22.4c6.7-20-4.1-41.7-24.1-48.5l0,0c-20-6.7-41.7,4.1-48.5,24.1l-11.9,35.3c-6.4,19.3,3.3,40.2,22.1,47.8
	C341.9,440.9,342.2,440.4,342.5,440z"/>
<circle class="st7" cx="450.1" cy="355.6" r="6.2"/>
<circle class="st7" cx="469.7" cy="345.9" r="3.1"/>
<path class="st8" d="M460.9,109c1.2,4.6,1.8,9.3,1.8,14c0,38.9-40.7,70.5-91,70.5c-41.1,0-75.9-21.2-87.1-50.2
	c8.4,32.3,45.1,56.6,89.2,56.6c50.3,0,91-31.6,91-70.5C464.8,122.4,463.4,115.5,460.9,109z"/>
<g class="st0">
	
		<linearGradient id="SVGID_3_" gradientUnits="userSpaceOnUse" x1="373.4731" y1="207.8221" x2="373.4731" y2="109.4221" gradientTransform="matrix(1 0 0 1 0 2)">
		<stop  offset="0" style="stop-color:#828282;stop-opacity:0.25"/>
		<stop  offset="0.54" style="stop-color:#828282;stop-opacity:0.12"/>
		<stop  offset="1" style="stop-color:#828282;stop-opacity:0.1"/>
	</linearGradient>
	<ellipse class="st9" cx="373.5" cy="160.6" rx="188.3" ry="49.2"/>
</g>
<path class="st7" d="M373.5,113c-100.5,0-182.1,21.3-182.1,47.6h364.1C555.5,134.3,474,113,373.5,113z"/>
<path class="st7" d="M373.5,208.2c100.5,0,182.1-21.3,182.1-47.6H191.4C191.4,186.9,272.9,208.2,373.5,208.2z"/>
<path class="st10" d="M373.5,208.2c100.5,0,182.1-21.3,182.1-47.6H191.4C191.4,186.9,272.9,208.2,373.5,208.2z"/>
<path class="st10" d="M297.5,148.2h151.9c6,0,10.9,4.9,10.9,10.9v2.9c0,6-4.9,10.9-10.9,10.9H297.5c-6,0-10.9-4.9-10.9-10.9v-2.9
	C286.6,153.1,291.5,148.2,297.5,148.2z"/>
<path class="st11" d="M184,82.5c-1.1-0.5-1.6-1.7-1.3-2.8c0-0.1,0-0.2,0.1-0.3l0,0c0-0.6-0.4-1.2-1.1-1.2c-0.4,0-0.8,0.2-1,0.5l0,0
	c-0.1,0.1-0.1,0.1-0.1,0.2c-0.5,1.1-1.7,1.7-2.8,1.3c-0.1,0-0.2,0-0.3-0.1l0,0c-0.6,0-1.2,0.4-1.2,1.1c0,0.4,0.2,0.8,0.5,1l0,0
	c0.1,0.1,0.1,0.1,0.2,0.1c1.1,0.5,1.6,1.7,1.3,2.8c0,0.1,0,0.2-0.1,0.3l0,0c0,0.6,0.4,1.2,1.1,1.2c0.4,0,0.8-0.1,1-0.5l0,0
	c0.1-0.1,0.1-0.2,0.1-0.2c0.5-1.1,1.7-1.6,2.8-1.3c0.1,0,0.2,0,0.3,0.1l0,0c0.6,0,1.2-0.4,1.2-1.1c0-0.4-0.2-0.8-0.5-1l0,0
	C184.2,82.6,184.1,82.5,184,82.5z"/>
<path class="st11" d="M507.5,277c-1.1-0.5-1.6-1.7-1.3-2.8c0-0.1,0-0.2,0.1-0.3l0,0c0-0.6-0.4-1.2-1.1-1.2c-0.4,0-0.8,0.2-1,0.5l0,0
	c-0.1,0.1-0.1,0.1-0.1,0.2c-0.5,1.1-1.7,1.7-2.8,1.3c-0.1,0-0.2,0-0.3-0.1l0,0c-0.6,0-1.2,0.4-1.2,1.1c0,0.4,0.2,0.8,0.5,1l0,0
	c0.1,0.1,0.1,0.1,0.2,0.1c1.1,0.5,1.6,1.7,1.3,2.8c0,0.1,0,0.2-0.1,0.3l0,0c0,0.6,0.4,1.2,1.1,1.2c0.4,0,0.8-0.1,1-0.5l0,0
	c0.1-0.1,0.1-0.2,0.1-0.2c0.5-1.1,1.7-1.6,2.8-1.3c0.1,0,0.2,0,0.3,0.1l0,0c0.6,0,1.2-0.4,1.2-1.1c0-0.4-0.2-0.8-0.5-1l0,0
	C507.7,277.1,507.6,277,507.5,277z"/>
<path class="st11" d="M150.3,367.3c-1.1-0.5-1.6-1.7-1.3-2.8c0-0.1,0-0.2,0.1-0.3l0,0c0-0.6-0.4-1.2-1.1-1.2c-0.4,0-0.8,0.2-1,0.5
	l0,0c-0.1,0.1-0.1,0.1-0.1,0.2c-0.5,1.1-1.7,1.7-2.8,1.3c-0.1,0-0.2,0-0.3-0.1l0,0c-0.6,0-1.2,0.4-1.2,1.1c0,0.4,0.2,0.8,0.5,1l0,0
	c0.1,0.1,0.1,0.1,0.2,0.1c1.1,0.5,1.6,1.7,1.3,2.8c0,0.1,0,0.2-0.1,0.3l0,0c0,0.6,0.4,1.2,1.1,1.2c0.4,0,0.8-0.1,1-0.5l0,0
	c0.1-0.1,0.1-0.2,0.1-0.2c0.5-1.1,1.7-1.6,2.8-1.3c0.1,0,0.2,0,0.3,0.1l0,0c0.6,0,1.2-0.4,1.2-1.1c0-0.4-0.2-0.8-0.5-1l0,0
	C150.5,367.4,150.4,367.3,150.3,367.3z"/>
<path class="st11" d="M115.4,156.9c-1.1-0.5-1.6-1.7-1.3-2.8c0-0.1,0-0.2,0.1-0.3l0,0c0-0.6-0.4-1.2-1.1-1.2c-0.4,0-0.8,0.2-1,0.5
	l0,0c-0.1,0.1-0.1,0.1-0.1,0.2c-0.5,1.1-1.7,1.7-2.8,1.3c-0.1,0-0.2,0-0.3-0.1l0,0c-0.6,0-1.2,0.4-1.2,1.1c0,0.4,0.2,0.8,0.5,1l0,0
	c0.1,0.1,0.1,0.1,0.2,0.1c1.1,0.5,1.6,1.7,1.3,2.8c0,0.1,0,0.2-0.1,0.3l0,0c0,0.6,0.4,1.2,1.1,1.2c0.4,0,0.8-0.1,1-0.5l0,0
	c0.1-0.1,0.1-0.2,0.1-0.2c0.5-1.1,1.7-1.6,2.8-1.3c0.1,0,0.2,0,0.3,0.1l0,0c0.6,0,1.2-0.4,1.2-1.1c0-0.4-0.2-0.8-0.5-1l0,0
	C115.5,157,115.4,156.9,115.4,156.9z"/>
<path class="st11" d="M501.2,50.1c-1.1-0.5-1.6-1.7-1.3-2.8c0-0.1,0-0.2,0.1-0.3l0,0c0-0.6-0.4-1.2-1.1-1.2c-0.4,0-0.8,0.2-1,0.5
	l0,0c-0.1,0.1-0.1,0.1-0.1,0.2c-0.5,1.1-1.7,1.6-2.8,1.3c-0.1,0-0.2,0-0.3-0.1l0,0c-0.6-0.1-1.3,0.3-1.4,0.9c-0.1,0.5,0.1,1,0.6,1.3
	l0,0C494,50,494,50,494.1,50c1.1,0.5,1.6,1.7,1.3,2.8c0,0.1,0,0.2-0.1,0.3l0,0c-0.1,0.6,0.4,1.2,1,1.3c0.4,0,0.9-0.2,1.1-0.5l0,0
	c0.1-0.1,0.1-0.2,0.1-0.2c0.5-1.1,1.7-1.6,2.8-1.3c0.1,0,0.2,0,0.3,0.1l0,0c0.6,0,1.2-0.4,1.2-1.1c0-0.4-0.2-0.8-0.5-1l0,0
	C501.3,50.2,501.3,50.1,501.2,50.1z"/>
<g class="st12">
	<rect x="168.8" y="209.7" class="st13" width="1.9" height="10.8"/>
	<rect x="164.4" y="214.1" class="st13" width="10.8" height="1.9"/>
</g>
<g class="st12">
	<rect x="626.5" y="158.8" class="st13" width="1.9" height="10.8"/>
	<rect x="622" y="163.3" class="st13" width="10.8" height="1.9"/>
</g>
<circle class="st14" cx="558.4" cy="97.8" r="3.8"/>
<circle class="st14" cx="102.7" cy="53.9" r="3.8"/>
<circle class="st14" cx="217.1" cy="273.2" r="3.8"/>
<ellipse class="st10" cx="247.6" cy="143.9" rx="21.6" ry="4.4"/>
<ellipse class="st10" cx="247.6" cy="177.6" rx="21.6" ry="4.4"/>
<ellipse class="st10" cx="493.6" cy="143.9" rx="21.6" ry="4.4"/>
<ellipse class="st10" cx="493.6" cy="177.6" rx="21.6" ry="4.4"/>
<ellipse class="st10" cx="373.5" cy="124.9" rx="21.6" ry="4.4"/>
<ellipse class="st10" cx="389.4" cy="78.5" rx="21.6" ry="4.4"/>
<ellipse class="st10" cx="348.1" cy="97.5" rx="21.6" ry="4.4"/>
<ellipse class="st10" cx="427.5" cy="105.8" rx="21.6" ry="4.4"/>
<ellipse class="st10" cx="373.5" cy="191" rx="21.6" ry="4.4"/>
<g id="Layer_5_1_">
	<path class="st15" d="M393.6,388.8c0,0-12.7-9.6-26.3-14c-13.6-4.4-23.7-6-34.1-4.6c0,0,14.4-19.1,35.5-9.9
		C389.8,369.4,393.6,388.8,393.6,388.8z"/>
	
		<ellipse transform="matrix(0.4331 -0.9013 0.9013 0.4331 -111.7939 519.725)" class="st15" cx="357.3" cy="348.7" rx="4.1" ry="4.7"/>
	
		<ellipse transform="matrix(0.9999 -1.014020e-02 1.014020e-02 0.9999 -3.6023 3.9047)" class="st15" cx="383.3" cy="357.2" rx="4.7" ry="4.1"/>
</g>
<path class="st16" d="M240.3,315.8l-0.7-0.3c-0.8-0.3-1.7,0.1-1.9,0.9l-4.1,13.5l-13.1-5.2c-0.8-0.3-1.7,0.1-1.9,0.9l-0.2,0.7
	c-0.3,0.8,0.2,1.8,1,2.1l0,0l13.1,5.2l-4.1,13.5c-0.3,0.8,0.2,1.8,1,2.1l0.7,0.3c0.8,0.3,1.7-0.1,1.9-0.9l4.1-13.5l13.1,5.2
	c0.8,0.3,1.7-0.1,1.9-0.9l0.2-0.7c0.3-0.8-0.2-1.8-1-2.1l-13.1-5.2l4.1-13.5C241.6,317,241.2,316.1,240.3,315.8z"/>
<path class="st2" d="M262.5,304.1c-14.2-16.4-39-18.2-55.3-4c-0.2,0.2-0.5,0.4-0.7,0.6c-15.6,14.2-17.2,38.5-3.5,54.5
	c12.4,14.5,33.5,18,50,8.2l26.8,31c0.7,0.8,1.9,0.9,2.7,0.2l7.4-6.4c0.8-0.7,0.9-1.9,0.2-2.7l-26.8-31
	C275.3,339.8,275,318.5,262.5,304.1z M251.2,351c-11.7,10.1-29.5,8.9-39.6-2.9s-8.9-29.5,2.9-39.6c11.7-10.1,29.4-8.9,39.6,2.9
	C264.2,323.1,262.9,340.8,251.2,351L251.2,351z"/>
<linearGradient id="SVGID_4_" gradientUnits="userSpaceOnUse" x1="446.0075" y1="386.6764" x2="446.0075" y2="367.4679" gradientTransform="matrix(0.9991 -4.238051e-02 4.238051e-02 0.9991 -229.9665 -42.1171)">
	<stop  offset="0" style="stop-color:#020202;stop-opacity:0.12"/>
	<stop  offset="0.55" style="stop-color:#020202;stop-opacity:9.000000e-02"/>
	<stop  offset="1" style="stop-color:#020202;stop-opacity:2.000000e-02"/>
</linearGradient>
<path class="st17" d="M230.7,306.1c-9,0.1-16.9,5.9-20.9,14.4c-1.3,2.7,2.8,4.9,4.1,2.2c3.3-7,9.9-11.6,17.3-11.7
	c7.7-0.1,15,5,19.1,12.3c1.5,2.8,5.1,0,3.6-2.7C249,311.8,239.9,306,230.7,306.1z"/>
<path class="st2" d="M231.2,303.8c-8.9,0.1-16.8,5.6-20.8,13.5c-1.3,2.6,2.8,4.6,4.1,2.1c3.3-6.5,9.9-10.9,17.2-11
	c7.7-0.1,14.9,4.6,18.9,11.5c1.5,2.6,5.1,0,3.6-2.5C249.3,309,240.4,303.6,231.2,303.8z"/>
<linearGradient id="SVGID_5_" gradientUnits="userSpaceOnUse" x1="423.2362" y1="391.2196" x2="423.2362" y2="386.6764" gradientTransform="matrix(0.9991 -4.238051e-02 4.238051e-02 0.9991 -229.9665 -42.1171)">
	<stop  offset="0" style="stop-color:#020202;stop-opacity:0.12"/>
	<stop  offset="0.55" style="stop-color:#020202;stop-opacity:9.000000e-02"/>
	<stop  offset="1" style="stop-color:#020202;stop-opacity:2.000000e-02"/>
</linearGradient>
<path class="st18" d="M209.3,326.3c-2.9,0.1-2.7,4.7,0.2,4.5S212.2,326.1,209.3,326.3z"/>
<path class="st2" d="M209,324.5c-3.2,0.1-3,5.1,0.2,5S212.2,324.3,209,324.5z"/>
</svg>
