<?xml version="1.0" encoding="utf-8"?>
<!-- Generator: Adobe Illustrator 22.0.1, SVG Export Plug-In . SVG Version: 6.00 Build 0)  -->
<svg version="1.1" id="Layer_1" xmlns="http://www.w3.org/2000/svg" xmlns:xlink="http://www.w3.org/1999/xlink" x="0px" y="0px"
	 viewBox="0 0 700 800" style="enable-background:new 0 0 700 800;" xml:space="preserve">
<style type="text/css">
	.st0{fill:#FFFFFF;}
	.st1{opacity:0.5;fill:#5D84C3;enable-background:new    ;}
	.st2{opacity:0.5;}
	.st3{fill:#6EC5A4;}
	.st4{opacity:0.5;fill:#F16046;enable-background:new    ;}
	.st5{fill:url(#SVGID_1_);}
	.st6{fill:#278ACB;}
	.st7{fill:url(#SVGID_2_);}
	.st8{fill:url(#SVGID_3_);}
	.st9{fill:url(#SVGID_4_);}
	.st10{fill:url(#SVGID_5_);}
	.st11{fill:#575A89;}
	.st12{opacity:5.000000e-02;enable-background:new    ;}
	.st13{fill:#3F3D56;}
	.st14{opacity:0.1;enable-background:new    ;}
	.st15{fill:#D0CDE1;}
	.st16{fill:#63B0FF;}
	.st17{fill:#FFB8B8;}
	.st18{fill:#2F2E41;}
	.st19{fill:#AFD2F2;}
	.st20{fill:#297187;}
</style>
<circle class="st0" cx="151.4" cy="247.1" r="3"/>
<circle class="st0" cx="162.6" cy="247.1" r="3"/>
<path class="st1" d="M138.9,293.2c-1.1-0.5-1.6-1.7-1.3-2.8c0-0.1,0-0.2,0.1-0.3l0,0c0-0.6-0.4-1.2-1.1-1.2c-0.4,0-0.8,0.2-1,0.5
	l0,0c-0.1,0.1-0.1,0.1-0.1,0.2c-0.5,1.1-1.7,1.7-2.8,1.3c-0.1,0-0.2,0-0.3-0.1l0,0c-0.6,0-1.2,0.4-1.2,1.1c0,0.4,0.2,0.8,0.5,1l0,0
	c0.1,0.1,0.1,0.1,0.2,0.1c1.1,0.5,1.6,1.7,1.3,2.8c0,0.1,0,0.2-0.1,0.3l0,0c0,0.6,0.4,1.2,1.1,1.2c0.4,0,0.8-0.1,1-0.5l0,0
	c0.1-0.1,0.1-0.2,0.1-0.2c0.5-1.1,1.7-1.6,2.8-1.3c0.1,0,0.2,0,0.3,0.1l0,0c0.6,0,1.2-0.4,1.2-1.1c0-0.4-0.2-0.8-0.5-1l0,0
	C139.1,293.3,139,293.2,138.9,293.2z"/>
<path class="st1" d="M105.2,578c-1.1-0.5-1.6-1.7-1.3-2.8c0-0.1,0-0.2,0.1-0.3l0,0c0-0.6-0.4-1.2-1.1-1.2c-0.4,0-0.8,0.2-1,0.5l0,0
	c-0.1,0.1-0.1,0.1-0.1,0.2c-0.5,1.1-1.7,1.7-2.8,1.3c-0.1,0-0.2,0-0.3-0.1l0,0c-0.6,0-1.2,0.4-1.2,1.1c0,0.4,0.2,0.8,0.5,1l0,0
	c0.1,0.1,0.1,0.1,0.2,0.1c1.1,0.5,1.6,1.7,1.3,2.8c0,0.1,0,0.2-0.1,0.3l0,0c0,0.6,0.4,1.2,1.1,1.2c0.4,0,0.8-0.1,1-0.5l0,0
	c0.1-0.1,0.1-0.2,0.1-0.2c0.5-1.1,1.7-1.6,2.8-1.3c0.1,0,0.2,0,0.3,0.1l0,0c0.6,0,1.2-0.4,1.2-1.1c0-0.4-0.2-0.8-0.5-1l0,0
	C105.4,578.1,105.3,578,105.2,578z"/>
<path class="st1" d="M70.3,367.6c-1.1-0.5-1.6-1.7-1.3-2.8c0-0.1,0-0.2,0.1-0.3l0,0c0-0.6-0.4-1.2-1.1-1.2c-0.4,0-0.8,0.2-1,0.5l0,0
	c-0.1,0.1-0.1,0.1-0.1,0.2c-0.5,1.1-1.7,1.7-2.8,1.3c-0.1,0-0.2,0-0.3-0.1l0,0c-0.6,0-1.2,0.4-1.2,1.1c0,0.4,0.2,0.8,0.5,1l0,0
	c0.1,0.1,0.1,0.1,0.2,0.1c1.1,0.5,1.6,1.7,1.3,2.8c0,0.1,0,0.2-0.1,0.3l0,0c0,0.6,0.4,1.2,1.1,1.2c0.4,0,0.8-0.1,1-0.5l0,0
	c0.1-0.1,0.1-0.2,0.1-0.2c0.5-1.1,1.7-1.6,2.8-1.3c0.1,0,0.2,0,0.3,0.1l0,0c0.6,0,1.2-0.4,1.2-1.1c0-0.4-0.2-0.8-0.5-1l0,0
	C70.4,367.7,70.3,367.6,70.3,367.6z"/>
<g class="st2">
	<rect x="123.7" y="420.4" class="st3" width="1.9" height="10.8"/>
	<rect x="119.3" y="424.8" class="st3" width="10.8" height="1.9"/>
</g>
<circle class="st4" cx="57.6" cy="264.6" r="3.8"/>
<circle class="st4" cx="172" cy="483.9" r="3.8"/>
<linearGradient id="SVGID_1_" gradientUnits="userSpaceOnUse" x1="377.4844" y1="210.572" x2="377.4844" y2="206.0288" gradientTransform="matrix(0.9991 -4.238051e-02 4.238051e-02 0.9991 -221.673 347.1069)">
	<stop  offset="0" style="stop-color:#010101;stop-opacity:0.12"/>
	<stop  offset="0.55" style="stop-color:#010101;stop-opacity:9.000000e-02"/>
	<stop  offset="1" style="stop-color:#010101;stop-opacity:2.000000e-02"/>
</linearGradient>
<path class="st5" d="M164.2,537c-2.9,0.1-2.7,4.7,0.2,4.5S167.1,536.8,164.2,537z"/>
<path class="st6" d="M163.9,535.2c-3.2,0.1-3,5.1,0.2,5S167.1,535,163.9,535.2z"/>
<path class="st1" d="M138.8,293.8c-1.1-0.5-1.6-1.7-1.3-2.8c0-0.1,0-0.2,0.1-0.3l0,0c0-0.6-0.4-1.2-1.1-1.2c-0.4,0-0.8,0.2-1,0.5
	l0,0c-0.1,0.1-0.1,0.1-0.1,0.2c-0.5,1.1-1.7,1.7-2.8,1.3c-0.1,0-0.2,0-0.3-0.1l0,0c-0.6,0-1.2,0.4-1.2,1.1c0,0.4,0.2,0.8,0.5,1l0,0
	c0.1,0.1,0.1,0.1,0.2,0.1c1.1,0.5,1.6,1.7,1.3,2.8c0,0.1,0,0.2-0.1,0.3l0,0c0,0.6,0.4,1.2,1.1,1.2c0.4,0,0.8-0.1,1-0.5l0,0
	c0.1-0.1,0.1-0.2,0.1-0.2c0.5-1.1,1.7-1.6,2.8-1.3c0.1,0,0.2,0,0.3,0.1l0,0c0.6,0,1.2-0.4,1.2-1.1c0-0.4-0.2-0.8-0.5-1l0,0
	C139,293.9,138.9,293.8,138.8,293.8z"/>
<path class="st1" d="M105.1,578.6c-1.1-0.5-1.6-1.7-1.3-2.8c0-0.1,0-0.2,0.1-0.3l0,0c0-0.6-0.4-1.2-1.1-1.2c-0.4,0-0.8,0.2-1,0.5
	l0,0c-0.1,0.1-0.1,0.1-0.1,0.2c-0.5,1.1-1.7,1.7-2.8,1.3c-0.1,0-0.2,0-0.3-0.1l0,0c-0.6,0-1.2,0.4-1.2,1.1c0,0.4,0.2,0.8,0.5,1l0,0
	c0.1,0.1,0.1,0.1,0.2,0.1c1.1,0.5,1.6,1.7,1.3,2.8c0,0.1,0,0.2-0.1,0.3l0,0c0,0.6,0.4,1.2,1.1,1.2c0.4,0,0.8-0.1,1-0.5l0,0
	c0.1-0.1,0.1-0.2,0.1-0.2c0.5-1.1,1.7-1.6,2.8-1.3c0.1,0,0.2,0,0.3,0.1l0,0c0.6,0,1.2-0.4,1.2-1.1c0-0.4-0.2-0.8-0.5-1l0,0
	C105.3,578.7,105.2,578.6,105.1,578.6z"/>
<path class="st1" d="M70.2,368.2c-1.1-0.5-1.6-1.7-1.3-2.8c0-0.1,0-0.2,0.1-0.3l0,0c0-0.6-0.4-1.2-1.1-1.2c-0.4,0-0.8,0.2-1,0.5l0,0
	c-0.1,0.1-0.1,0.1-0.1,0.2c-0.5,1.1-1.7,1.7-2.8,1.3c-0.1,0-0.2,0-0.3-0.1l0,0c-0.6,0-1.2,0.4-1.2,1.1c0,0.4,0.2,0.8,0.5,1l0,0
	c0.1,0.1,0.1,0.1,0.2,0.1c1.1,0.5,1.6,1.7,1.3,2.8c0,0.1,0,0.2-0.1,0.3l0,0c0,0.6,0.4,1.2,1.1,1.2c0.4,0,0.8-0.1,1-0.5l0,0
	c0.1-0.1,0.1-0.2,0.1-0.2c0.5-1.1,1.7-1.6,2.8-1.3c0.1,0,0.2,0,0.3,0.1l0,0c0.6,0,1.2-0.4,1.2-1.1c0-0.4-0.2-0.8-0.5-1l0,0
	C70.3,368.3,70.2,368.2,70.2,368.2z"/>
<g class="st2">
	<rect x="123.6" y="421" class="st3" width="1.9" height="10.8"/>
	<rect x="119.2" y="425.4" class="st3" width="10.8" height="1.9"/>
</g>
<circle class="st4" cx="57.5" cy="265.2" r="3.8"/>
<circle class="st4" cx="171.9" cy="484.5" r="3.8"/>
<linearGradient id="SVGID_2_" gradientUnits="userSpaceOnUse" x1="377.3591" y1="211.1654" x2="377.3591" y2="206.6222" gradientTransform="matrix(0.9991 -4.238051e-02 4.238051e-02 0.9991 -221.673 347.1069)">
	<stop  offset="0" style="stop-color:#010101;stop-opacity:0.12"/>
	<stop  offset="0.55" style="stop-color:#010101;stop-opacity:9.000000e-02"/>
	<stop  offset="1" style="stop-color:#010101;stop-opacity:2.000000e-02"/>
</linearGradient>
<path class="st7" d="M164.1,537.6c-2.9,0.1-2.7,4.7,0.2,4.5S167,537.4,164.1,537.6z"/>
<path class="st6" d="M163.8,535.8c-3.2,0.1-3,5.1,0.2,5S167,535.6,163.8,535.8z"/>
<path class="st1" d="M428.4,257.2c-1.1-0.5-1.6-1.7-1.3-2.8c0-0.1,0-0.2,0.1-0.3l0,0c0-0.6-0.4-1.2-1.1-1.2c-0.4,0-0.8,0.2-1,0.5
	l0,0c-0.1,0.1-0.1,0.1-0.1,0.2c-0.5,1.1-1.7,1.7-2.8,1.3c-0.1,0-0.2,0-0.3-0.1l0,0c-0.6,0-1.2,0.4-1.2,1.1c0,0.4,0.2,0.8,0.5,1l0,0
	c0.1,0.1,0.1,0.1,0.2,0.1c1.1,0.5,1.6,1.7,1.3,2.8c0,0.1,0,0.2-0.1,0.3l0,0c0,0.6,0.4,1.2,1.1,1.2c0.4,0,0.8-0.1,1-0.5l0,0
	c0.1-0.1,0.1-0.2,0.1-0.2c0.5-1.1,1.7-1.6,2.8-1.3c0.1,0,0.2,0,0.3,0.1l0,0c0.6,0,1.2-0.4,1.2-1.1c0-0.4-0.2-0.8-0.5-1l0,0
	C428.6,257.3,428.5,257.2,428.4,257.2z"/>
<g class="st2">
	<rect x="413.2" y="384.3" class="st3" width="1.9" height="10.8"/>
	<rect x="408.8" y="388.8" class="st3" width="10.8" height="1.9"/>
</g>
<circle class="st4" cx="461.5" cy="447.8" r="3.8"/>
<linearGradient id="SVGID_3_" gradientUnits="userSpaceOnUse" x1="668.2776" y1="186.8316" x2="668.2776" y2="182.2884" gradientTransform="matrix(0.9991 -4.238051e-02 4.238051e-02 0.9991 -221.673 347.1069)">
	<stop  offset="0" style="stop-color:#010101;stop-opacity:0.12"/>
	<stop  offset="0.55" style="stop-color:#010101;stop-opacity:9.000000e-02"/>
	<stop  offset="1" style="stop-color:#010101;stop-opacity:2.000000e-02"/>
</linearGradient>
<path class="st8" d="M453.7,501c-2.9,0.1-2.7,4.7,0.2,4.5S456.6,500.8,453.7,501z"/>
<path class="st6" d="M453.4,499.2c-3.2,0.1-3,5.1,0.2,5C456.8,504.1,456.6,499,453.4,499.2z"/>
<path class="st1" d="M228.8,57.7c-0.7,1-2,1.2-3,0.7c-0.1,0-0.2,0-0.3-0.2l0,0c-0.6-0.1-1.3,0.2-1.4,0.8c-0.1,0.4,0,0.8,0.3,1.1l0,0
	c0.1,0.1,0.1,0.1,0.2,0.1c1,0.7,1.3,2,0.7,3c0,0.1,0,0.2-0.2,0.3l0,0c-0.1,0.6,0.2,1.3,0.8,1.4c0.4,0.1,0.8,0,1.1-0.3l0,0
	c0.1-0.1,0.1-0.1,0.1-0.2c0.7-1,2-1.2,3-0.7c0.1,0,0.2,0,0.3,0.2l0,0c0.6,0.1,1.3-0.2,1.4-0.8c0.1-0.4,0.1-0.8-0.3-1.1l0,0
	c-0.1-0.1-0.2-0.1-0.2-0.1c-1-0.7-1.2-2-0.7-3c0-0.1,0-0.2,0.2-0.3l0,0c0.1-0.6-0.2-1.3-0.8-1.4c-0.4-0.1-0.8,0-1.1,0.3l0,0
	C228.9,57.5,228.8,57.6,228.8,57.7z"/>
<path class="st1" d="M501.3,147c-0.7,1-2,1.2-3,0.7c-0.1,0-0.2,0-0.3-0.2l0,0c-0.6-0.1-1.3,0.2-1.4,0.8c-0.1,0.4,0,0.8,0.3,1.1l0,0
	c0.1,0.1,0.1,0.1,0.2,0.1c1,0.7,1.3,2,0.7,3c0,0.1,0,0.2-0.2,0.3l0,0c-0.1,0.6,0.2,1.3,0.8,1.4c0.4,0.1,0.8,0,1.1-0.3l0,0
	c0.1-0.1,0.1-0.1,0.1-0.2c0.7-1,2-1.2,3-0.7c0.1,0,0.2,0,0.3,0.2l0,0c0.6,0.1,1.3-0.2,1.4-0.8c0.1-0.4,0.1-0.8-0.3-1.1l0,0
	c-0.1-0.1-0.2-0.1-0.2-0.1c-1-0.7-1.2-2-0.7-3c0-0.1,0-0.2,0.2-0.3l0,0c0.1-0.6-0.2-1.3-0.8-1.4c-0.4-0.1-0.8,0-1.1,0.3l0,0
	C501.4,146.8,501.3,146.9,501.3,147z"/>
<path class="st1" d="M288.1,139.7c-0.7,1-2,1.2-3,0.7c-0.1,0-0.2,0-0.3-0.2l0,0c-0.6-0.1-1.3,0.2-1.4,0.8c-0.1,0.4,0,0.8,0.3,1.1
	l0,0c0.1,0.1,0.1,0.1,0.2,0.1c1,0.7,1.3,2,0.7,3c0,0.1,0,0.2-0.2,0.3l0,0c-0.1,0.6,0.2,1.3,0.8,1.4c0.4,0.1,0.8,0,1.1-0.3l0,0
	c0.1-0.1,0.1-0.1,0.1-0.2c0.7-1,2-1.2,3-0.7c0.1,0,0.2,0,0.3,0.2l0,0c0.6,0.1,1.3-0.2,1.4-0.8c0.1-0.4,0.1-0.8-0.3-1.1l0,0
	c-0.1-0.1-0.2-0.1-0.2-0.1c-1-0.7-1.2-2-0.7-3c0-0.1,0-0.2,0.2-0.3l0,0c0.1-0.6-0.2-1.3-0.8-1.4c-0.4-0.1-0.8,0-1.1,0.3l0,0
	C288.3,139.6,288.1,139.7,288.1,139.7z"/>
<g class="st2">
	
		<rect x="355" y="92.5" transform="matrix(0.1976 -0.9803 0.9803 0.1976 189.6881 427.4495)" class="st3" width="1.9" height="10.8"/>
	
		<rect x="350.5" y="96.9" transform="matrix(0.1976 -0.9803 0.9803 0.1976 189.7075 427.3802)" class="st3" width="10.8" height="1.9"/>
</g>
<ellipse class="st4" cx="184.7" cy="131.7" rx="3.8" ry="3.8"/>
<ellipse transform="matrix(0.1976 -0.9803 0.9803 0.1976 277.0331 464.3824)" class="st4" cx="422.2" cy="63" rx="3.8" ry="3.8"/>
<linearGradient id="SVGID_4_" gradientUnits="userSpaceOnUse" x1="604.9761" y1="309.9204" x2="604.9761" y2="305.3772" gradientTransform="matrix(0.1559 -0.9878 0.9878 0.1559 76.7205 631.0732)">
	<stop  offset="0" style="stop-color:#010101;stop-opacity:0.12"/>
	<stop  offset="0.55" style="stop-color:#010101;stop-opacity:9.000000e-02"/>
	<stop  offset="1" style="stop-color:#010101;stop-opacity:2.000000e-02"/>
</linearGradient>
<path class="st9" d="M472.8,81.1c-0.5,2.9,4.1,3.6,4.5,0.7C477.6,78.9,473.1,78.2,472.8,81.1z"/>
<path class="st6" d="M470.9,81c-0.5,3.2,4.4,3.9,4.9,0.8C476.4,78.7,471.4,77.8,470.9,81z"/>
<path class="st1" d="M229.3,58c-0.7,1-2,1.2-3,0.7c-0.1,0-0.2,0-0.3-0.2l0,0c-0.6-0.1-1.3,0.2-1.4,0.8c-0.1,0.4,0,0.8,0.3,1.1l0,0
	c0.1,0.1,0.1,0.1,0.2,0.1c1,0.7,1.3,2,0.7,3c0,0.1,0,0.2-0.2,0.3l0,0c-0.1,0.6,0.2,1.3,0.8,1.4c0.4,0.1,0.8,0,1.1-0.3l0,0
	c0.1-0.1,0.1-0.1,0.1-0.2c0.7-1,2-1.2,3-0.7c0.1,0,0.2,0,0.3,0.2l0,0c0.6,0.1,1.3-0.2,1.4-0.8c0.1-0.4,0.1-0.8-0.3-1.1l0,0
	c-0.1-0.1-0.2-0.1-0.2-0.1c-1-0.7-1.2-2-0.7-3c0-0.1,0-0.2,0.2-0.3l0,0c0.1-0.6-0.2-1.3-0.8-1.4c-0.4-0.1-0.8,0-1.1,0.3l0,0
	C229.5,57.8,229.3,57.9,229.3,58z"/>
<path class="st1" d="M501.8,147.3c-0.7,1-2,1.2-3,0.7c-0.1,0-0.2,0-0.3-0.2l0,0c-0.6-0.1-1.3,0.2-1.4,0.8c-0.1,0.4,0,0.8,0.3,1.1
	l0,0c0.1,0.1,0.1,0.1,0.2,0.1c1,0.7,1.3,2,0.7,3c0,0.1,0,0.2-0.2,0.3l0,0c-0.1,0.6,0.2,1.3,0.8,1.4c0.4,0.1,0.8,0,1.1-0.3l0,0
	c0.1-0.1,0.1-0.1,0.1-0.2c0.7-1,2-1.2,3-0.7c0.1,0,0.2,0,0.3,0.2l0,0c0.6,0.1,1.3-0.2,1.4-0.8c0.1-0.4,0.1-0.8-0.3-1.1l0,0
	c-0.1-0.1-0.2-0.1-0.2-0.1c-1-0.7-1.2-2-0.7-3c0-0.1,0-0.2,0.2-0.3l0,0c0.1-0.6-0.2-1.3-0.8-1.4c-0.4-0.1-0.8,0-1.1,0.3l0,0
	C502,147.1,501.9,147.2,501.8,147.3z"/>
<path class="st1" d="M288.7,139.9c-0.7,1-2,1.2-3,0.7c-0.1,0-0.2,0-0.3-0.2l0,0c-0.6-0.1-1.3,0.2-1.4,0.8c-0.1,0.4,0,0.8,0.3,1.1
	l0,0c0.1,0.1,0.1,0.1,0.2,0.1c1,0.7,1.3,2,0.7,3c0,0.1,0,0.2-0.2,0.3l0,0c-0.1,0.6,0.2,1.3,0.8,1.4c0.4,0.1,0.8,0,1.1-0.3l0,0
	c0.1-0.1,0.1-0.1,0.1-0.2c0.7-1,2-1.2,3-0.7c0.1,0,0.2,0,0.3,0.2l0,0c0.6,0.1,1.3-0.2,1.4-0.8c0.1-0.4,0.1-0.8-0.3-1.1l0,0
	c-0.1-0.1-0.2-0.1-0.2-0.1c-1-0.7-1.2-2-0.7-3c0-0.1,0-0.2,0.2-0.3l0,0c0.1-0.6-0.2-1.3-0.8-1.4c-0.4-0.1-0.8,0-1.1,0.3l0,0
	C288.8,139.8,288.7,139.9,288.7,139.9z"/>
<g class="st2">
	
		<rect x="355.5" y="92.8" transform="matrix(0.1976 -0.9803 0.9803 0.1976 189.779 428.1746)" class="st3" width="1.9" height="10.8"/>
	
		<rect x="351" y="97.1" transform="matrix(0.1976 -0.9803 0.9803 0.1976 189.9104 428.046)" class="st3" width="10.8" height="1.9"/>
</g>
<ellipse class="st4" cx="185.2" cy="132" rx="3.8" ry="3.8"/>
<ellipse transform="matrix(0.1976 -0.9803 0.9803 0.1976 277.2953 465.1602)" class="st4" cx="422.8" cy="63.2" rx="3.8" ry="3.8"/>
<linearGradient id="SVGID_5_" gradientUnits="userSpaceOnUse" x1="604.8224" y1="310.5138" x2="604.8224" y2="305.9706" gradientTransform="matrix(0.1559 -0.9878 0.9878 0.1559 76.7205 631.0732)">
	<stop  offset="0" style="stop-color:#010101;stop-opacity:0.12"/>
	<stop  offset="0.55" style="stop-color:#010101;stop-opacity:9.000000e-02"/>
	<stop  offset="1" style="stop-color:#010101;stop-opacity:2.000000e-02"/>
</linearGradient>
<path class="st10" d="M473.3,81.3c-0.5,2.9,4.1,3.6,4.5,0.7C478.1,79.2,473.7,78.5,473.3,81.3z"/>
<path class="st6" d="M471.5,81.3c-0.5,3.2,4.4,3.9,4.9,0.8C477,78.9,471.9,78.1,471.5,81.3z"/>
<ellipse class="st11" cx="333.3" cy="694.8" rx="1.9" ry="1.3"/>
<path class="st12" d="M86.9,189.7c0,0-13.1,18.8-5.6,36.6S86.9,189.7,86.9,189.7z"/>
<rect x="52.4" y="494.2" class="st13" width="484.2" height="1.7"/>
<rect x="24.7" y="189.6" class="st13" width="554.7" height="269.9"/>
<path class="st14" d="M579.3,210.4v-7.4h-17.1v-13.3h-7.4v13.3H49.1v-13.3h-7.4v13.3H24.7v7.4h17.1v228.4H24.7v7.4h17.1v13.3h7.4
	v-13.3h505.7v13.3h7.4v-13.3h17.1v-7.4h-17.1V210.4H579.3z M554.9,438.8H49.1V210.4h505.7V438.8z"/>
<circle class="st13" cx="313.6" cy="230" r="3.9"/>
<circle class="st13" cx="346.5" cy="350" r="3.9"/>
<circle class="st13" cx="212.7" cy="324" r="3.9"/>
<path class="st15" d="M428.3,278.1l63.3,4.7l17.9,1.3l-1.1-1.1l3.4,48.7l1.7,24.3c0.1,1,0.1,2,0.2,2.9c0.1,0.8,0.3,1.6-0.7,1.8
	c-1.9,0.4-3.9,0.6-5.9,0.8c-4,0.5-7.9,0.9-11.9,1.3c-15.9,1.4-31.9,1.5-47.9,0.3c-4-0.3-8-0.7-11.9-1.1c-1.5-0.2-3.3-0.2-3.8-1.9
	c-0.6-1.7-0.7-3.6-0.9-5.4c-1.1-7.9-1.9-15.8-2.3-23.8c-0.8-15.9-0.3-31.8,1.7-47.6c0.2-1.9,0.5-3.9,0.8-5.8c0.2-1.4-1.9-2-2.1-0.6
	c-2.4,16.3-3.3,32.8-2.7,49.3c0.3,8.2,0.9,16.5,2,24.7c0.3,2.1,0.5,4.1,0.9,6.2c0.2,1.6,0.3,3.6,1.3,5c0.9,1.4,2.5,1.8,4.1,2
	c2,0.3,4,0.5,6,0.6c16.5,1.6,33.1,1.9,49.7,0.7c4.2-0.3,8.3-0.7,12.5-1.1c2-0.2,4.1-0.5,6.1-0.7c1-0.1,2-0.3,3-0.4
	c0.9-0.1,1.9-0.2,2.8-0.5c1.9-0.7,1.9-2.5,1.8-4.2l-0.4-6.3l-0.9-12.5l-3.5-50.5l-0.4-6.3c0-0.6-0.5-1.1-1.1-1.1l-63.3-4.7
	l-17.9-1.3C426.8,275.7,426.9,277.9,428.3,278.1L428.3,278.1z"/>
<path class="st15" d="M455.4,304.3c0.3-0.8-0.5,1-0.1,0.2c0.1-0.2,0.2-0.4,0.3-0.6c0.2-0.4,0.5-0.8,0.8-1.2c0.3-0.4,0.7-0.5-0.1,0.1
	c0.2-0.2,0.3-0.4,0.5-0.5c0.4-0.4,0.8-0.8,1.2-1.2c0.3-0.3,0.9-0.5-0.2,0.1c0.2-0.1,0.4-0.3,0.6-0.4c0.4-0.3,0.8-0.5,1.2-0.7
	c0.2-0.1,0.4-0.2,0.6-0.3c0.4-0.2,1-0.2-0.2,0.1c0.5-0.1,1-0.4,1.5-0.5c0.4-0.1,0.9-0.2,1.3-0.3c0.4-0.1,1.1,0-0.2,0
	c0.2,0,0.5-0.1,0.7-0.1c0.5,0,1,0,1.4,0c0.2,0,0.5,0,0.7,0c0.8,0-1.2-0.2,0,0c0.5,0.1,0.9,0.2,1.4,0.4c0.2,0.1,0.4,0.2,0.7,0.2
	l-0.6-0.3c0.2,0.1,0.3,0.1,0.4,0.2c0.4,0.2,0.9,0.5,1.3,0.7c0.2,0.1,0.4,0.3,0.6,0.4c0.6,0.4-0.8-0.7,0,0.1c0.3,0.3,0.6,0.5,0.9,0.8
	c0.2,0.2,0.3,0.4,0.5,0.5c0.3,0.3,0.5,0.9-0.1-0.1c0.5,0.9,1.1,1.8,1.6,2.7c0.4,0.8-0.4-1-0.1-0.2c0.1,0.2,0.2,0.5,0.3,0.7
	c0.2,0.5,0.3,0.9,0.4,1.4c0.1,0.5,0.2,1,0.3,1.5c-0.3-1.3-0.1-0.6,0-0.2c0,0.3,0,0.7,0,1c0,0.4,0,0.8,0,1.2c0,0.2-0.1,0.5-0.1,0.7
	c0-1.2,0.1-0.6,0-0.2c-0.1,0.5-0.2,1-0.3,1.4c-0.1,0.2-0.1,0.5-0.2,0.7c-0.1,0.2-0.2,0.4-0.2,0.6c0.2-0.6,0.3-0.6,0.1-0.2
	c-1.2,2.5-2.8,4.7-4,7.2c-3,6.1-4,13.1-2.9,19.8c0.3,1.1,1,2.1,2,2.7c1,0.6,2.3,0.8,3.4,0.4c2.5-0.8,3.5-3,3.1-5.5
	c-0.1-0.9,0.1,0.8,0-0.1c0-0.4-0.1-0.8-0.1-1.1c-0.1-0.8-0.1-1.5-0.1-2.3c0-0.6,0-1.3,0.1-1.9c0-0.4,0-0.8,0.1-1.1
	c0,0-0.1,0.9,0,0.4c0-0.2,0.1-0.4,0.1-0.6c0.3-1.4,0.6-2.8,1.1-4.2c0.1-0.3,0.2-0.6,0.3-0.9c0.3-0.8-0.3,0.6,0.1-0.1
	c0.3-0.7,0.7-1.4,1-2c1.5-2.8,3.3-5.5,4.4-8.5c0.9-2.4,1.2-4.9,1-7.4c-0.4-5.2-2.6-10.5-6.7-13.8c-4.3-3.6-10-4.9-15.5-3.5
	c-6,1.4-10.8,5.7-13,11.5c-0.8,2.2,0.9,5,3.1,5.5C452.5,308,454.5,306.7,455.4,304.3L455.4,304.3z"/>
<path class="st15" d="M471,357.3c2,0,3.7-1.7,3.7-3.7s-1.7-3.7-3.7-3.7c-2,0-3.7,1.7-3.7,3.7C467.3,355.7,468.9,357.3,471,357.3z"/>
<rect x="49.2" y="486.7" class="st16" width="20.8" height="20.8"/>
<path class="st13" d="M82.5,495.6H57.3v-25.2h25.2V495.6z M58.4,494.5h23v-23h-23L58.4,494.5z"/>
<path class="st17" d="M532.3,374.6l-3,8.9c0,0-18.5,21.5-5.2,24.5c13.3,3,14.8-23,14.8-23l3.7-7.4L532.3,374.6z"/>
<path class="st11" d="M553,267.1c0,0-4.4-0.7-5.9,17.1c-1.5,17.8-2.2,48.9-2.2,48.9l-17.1,43.8l21.5,6.7l10.4-49.7L553,267.1z"/>
<polygon class="st17" points="543.4,531.8 541.2,545.9 561.2,545.9 560.4,531.8 "/>
<polygon class="st17" points="607.9,547.4 606.4,566.7 619.8,568.2 619.8,545.9 "/>
<path class="st18" d="M551.5,347.9l-17.1,97.9l4.4,89h23V454l22.2-41.5l17.8,51.9l4.4,86.8l25.2-4.4l-5.9-84.5
	c0,0-4.4-112.7-8.9-114.2C612.3,346.4,551.5,347.9,551.5,347.9z"/>
<path class="st18" d="M545.6,541.5c0,0,0-7.4-5.9-3s-13.3,12.6-13.3,12.6s-28.2,15.6-8.2,17.8c20,2.2,32.6-10.4,32.6-10.4l2.2,2.2
	c0,0,11.9-2.2,11.9-5.2c-0.1-2.5-0.3-5-0.7-7.4c0,0-1.6-12.6-3.4-10C558.9,540.7,548.6,545.9,545.6,541.5z"/>
<path class="st18" d="M620.5,562.2c0,0-13.3-6.7-16.3-0.7c-3,5.9-5.2,17.8-5.2,17.8s-9.6,18.5,7.4,17.1
	c17.1-1.5,16.3-11.1,16.3-13.3s-0.7-7.4,0-9.6C623.5,571.1,620.5,562.2,620.5,562.2z"/>
<circle class="st17" cx="591.2" cy="217" r="20.8"/>
<polygon class="st17" points="577.5,227 576.7,253.7 603.4,251.5 603.4,227 "/>
<path class="st15" d="M604.9,238.2c0,0-12.6,8.2-16.3,9.6s-11.9-5.9-11.9-5.9s-2.2,1.5-2.2,3c0,1.5-1.5,7.4-1.5,7.4l-17.8,58.6
	l1.5,41.5c0,0,54.1,5.2,60.1-1.5c5.9-6.7-3-102.3-3-102.3L604.9,238.2z"/>
<path class="st14" d="M601.2,253.7c0,0-20,7.4-26.7,0.7C574.5,254.5,584.2,256.7,601.2,253.7z"/>
<path class="st11" d="M653.9,414.7c-8.2,5.2-34.9,11.9-34.9,11.9s-2.9-62.8-13.3-72.7c-10.4-9.9-27.3-80.9-12.1-93.3
	c0.1-0.1,0.1-0.1,0.2-0.2l9.6-22.2c0,0,1.5-2.2,4.4,0.7c2.4,2.6,4.6,5.3,6.7,8.2l0.4,0.2l20.3,8l-8.2,36.3
	C627.2,291.6,662,409.5,653.9,414.7z"/>
<path class="st14" d="M615,247.2l-5.6,20.6l-15.8-7.2c0.1-0.1,0.1-0.1,0.2-0.2l9.6-22.2c0,0,1.5-2.2,4.4,0.7
	c2.4,2.6,4.6,5.3,6.7,8.2L615,247.2z"/>
<path class="st11" d="M576.4,241.5l-2.2,25.2l-0.1,1.1l-16.9,161.3c0,0-14.8-5.2-20-11.1c-5.2-5.9,11.9-71.9,11.9-71.9l1.5-83.1
	c0,0,13.2-9.3,18.5-14.3c1.3-1.2,2.1-2.1,2.2-2.7C571.9,243,576.4,241.5,576.4,241.5z"/>
<path class="st14" d="M576.4,241.5l-2.2,25.2l-0.1,1.1l-10.6-1.5l5.6-17.7c1.3-1.2,2.1-2.1,2.2-2.7
	C571.9,243,576.4,241.5,576.4,241.5z"/>
<path class="st17" d="M616,366.5l-8.2,7.4c0,0,3.7,15.6,8.2,16.3c0,0,3-4.4,3.7-8.2c0.7-3.7,7.4-7.4,7.4-7.4L616,366.5z"/>
<path class="st11" d="M625.7,253.7l9.6,1.5c0,0,31.9,54.1,28.2,73.4s-33.4,52.7-33.4,52.7l-18.5-14.8l27.4-37.1l-14.1-44.5
	L625.7,253.7z"/>
<path class="st18" d="M570.4,219.4c0,0,0-18.3,4.4-22.5h5.3c0,0,6.2-9.2,14.2-5.8c8,3.3,21.4,9.2,20.5,18.3s-3.7,15.1-3.7,15.1
	s-1.5,0-4.8-5c-4.4-6.7,5.8-4.6-7.6-7.1s-21.4-5.8-23.1-2.5C574,213.2,570.4,219.4,570.4,219.4z"/>
<path class="st18" d="M580.1,198.1c0,0,0.7-5.4,3.6-6.5L580.1,198.1z"/>
<path class="st18" d="M580.1,199.2c0,0-1.5-5.2,0.7-7.4L580.1,199.2z"/>
<circle class="st0" cx="117.6" cy="143" r="3"/>
<circle class="st19" cx="112.7" cy="114.6" r="64.1"/>
<g id="Layer_5_1_">
	<path class="st20" d="M168,121.1c0,0-24.1-0.9-44.7,5.4s-34.6,12.9-46.2,23.8c0,0,1.3-36.1,35.5-43S168,121.1,168,121.1z"/>
	
		<ellipse transform="matrix(0.9864 -0.1645 0.1645 0.9864 -15.6956 15.9388)" class="st20" cx="88.4" cy="102.7" rx="7.2" ry="6.2"/>
	
		<ellipse transform="matrix(0.8141 -0.5807 0.5807 0.8141 -29.0241 91.1746)" class="st20" cx="127.9" cy="90.9" rx="7.1" ry="6.2"/>
</g>
<path class="st15" d="M297.4,226.1l63.3,4.7l17.9,1.3l-1.1-1.1l3.4,48.7l1.7,24.3c0.1,1,0.1,2,0.2,2.9c0.1,0.8,0.3,1.6-0.7,1.8
	c-1.9,0.4-3.9,0.6-5.9,0.8c-4,0.5-7.9,0.9-11.9,1.3c-15.9,1.4-31.9,1.5-47.9,0.3c-4-0.3-8-0.7-11.9-1.1c-1.5-0.2-3.3-0.2-3.8-1.9
	c-0.6-1.7-0.7-3.6-0.9-5.4c-1.1-7.9-1.9-15.8-2.3-23.8c-0.8-15.9-0.3-31.8,1.7-47.6c0.2-1.9,0.5-3.9,0.8-5.8c0.2-1.4-1.9-2-2.1-0.6
	c-2.4,16.3-3.3,32.8-2.7,49.3c0.3,8.2,0.9,16.5,2,24.7c0.3,2.1,0.5,4.1,0.9,6.2c0.2,1.6,0.3,3.6,1.3,5c0.9,1.4,2.5,1.8,4.1,2
	c2,0.3,4,0.5,6,0.6c16.5,1.6,33.1,1.9,49.7,0.7c4.2-0.3,8.3-0.7,12.5-1.1c2-0.2,4.1-0.5,6.1-0.7c1-0.1,2-0.3,3-0.4
	c0.9-0.1,1.9-0.2,2.8-0.5c1.9-0.7,1.9-2.5,1.8-4.2l-0.4-6.3l-0.9-12.5l-3.5-50.5l-0.4-6.3c0-0.6-0.5-1.1-1.1-1.1l-63.3-4.7
	l-17.9-1.3C296,223.8,296,226,297.4,226.1L297.4,226.1z"/>
<path class="st15" d="M324.6,252.4c0.3-0.8-0.5,1-0.1,0.2c0.1-0.2,0.2-0.4,0.3-0.6c0.2-0.4,0.5-0.8,0.8-1.2c0.3-0.4,0.7-0.5-0.1,0.1
	c0.2-0.2,0.3-0.4,0.5-0.5c0.4-0.4,0.8-0.8,1.2-1.2c0.3-0.3,0.9-0.5-0.2,0.1c0.2-0.1,0.4-0.3,0.6-0.4c0.4-0.3,0.8-0.5,1.2-0.7
	c0.2-0.1,0.4-0.2,0.6-0.3c0.4-0.2,1-0.2-0.2,0.1c0.5-0.1,1-0.4,1.5-0.5c0.4-0.1,0.9-0.2,1.3-0.3c0.4-0.1,1.1,0-0.2,0
	c0.2,0,0.5-0.1,0.7-0.1c0.5,0,1,0,1.4,0c0.2,0,0.5,0,0.7,0c0.8,0-1.2-0.2,0,0c0.5,0.1,0.9,0.2,1.4,0.4c0.2,0.1,0.4,0.2,0.7,0.2
	l-0.6-0.3c0.2,0.1,0.3,0.1,0.4,0.2c0.4,0.2,0.9,0.5,1.3,0.7c0.2,0.1,0.4,0.3,0.6,0.4c0.6,0.4-0.8-0.7,0,0.1c0.3,0.3,0.6,0.5,0.9,0.8
	c0.2,0.2,0.3,0.4,0.5,0.5c0.3,0.3,0.5,0.9-0.1-0.1c0.5,0.9,1.1,1.8,1.6,2.7c0.4,0.8-0.4-1-0.1-0.2c0.1,0.2,0.2,0.5,0.3,0.7
	c0.2,0.5,0.3,0.9,0.4,1.4c0.1,0.5,0.2,1,0.3,1.5c-0.3-1.3-0.1-0.6,0-0.2c0,0.3,0,0.7,0,1c0,0.4,0,0.8,0,1.2c0,0.2-0.1,0.5-0.1,0.7
	c0-1.2,0.1-0.6,0-0.2c-0.1,0.5-0.2,1-0.3,1.4c-0.1,0.2-0.1,0.5-0.2,0.7c-0.1,0.2-0.2,0.4-0.2,0.6c0.2-0.6,0.3-0.6,0.1-0.2
	c-1.2,2.5-2.8,4.7-4,7.2c-3,6.1-4,13.1-2.9,19.8c0.3,1.1,1,2.1,2,2.7c1,0.6,2.3,0.8,3.4,0.4c2.5-0.8,3.5-3,3.1-5.5
	c-0.1-0.9,0.1,0.8,0-0.1c0-0.4-0.1-0.8-0.1-1.1c-0.1-0.8-0.1-1.5-0.1-2.3c0-0.6,0-1.3,0.1-1.9c0-0.4,0-0.8,0.1-1.1
	c0,0-0.1,0.9,0,0.4c0-0.2,0.1-0.4,0.1-0.6c0.3-1.4,0.6-2.8,1.1-4.2c0.1-0.3,0.2-0.6,0.3-0.9c0.3-0.8-0.3,0.6,0.1-0.1
	c0.3-0.7,0.7-1.4,1-2c1.5-2.8,3.3-5.5,4.4-8.5c0.9-2.4,1.2-4.9,1-7.4c-0.4-5.2-2.6-10.5-6.7-13.8c-4.3-3.6-10-4.9-15.5-3.5
	c-6,1.4-10.8,5.7-13,11.5c-0.8,2.2,0.9,5,3.1,5.5C321.6,256.1,323.7,254.7,324.6,252.4L324.6,252.4z"/>
<path class="st15" d="M340.1,305.4c2,0,3.7-1.7,3.7-3.7c0-2-1.7-3.7-3.7-3.7c-2,0-3.7,1.7-3.7,3.7
	C336.4,303.7,338.1,305.4,340.1,305.4z"/>
<path class="st15" d="M195.5,328.6l63.3,4.7l17.9,1.3l-1.1-1.1l3.4,48.7l1.7,24.3c0.1,1,0.1,2,0.2,2.9c0.1,0.8,0.3,1.6-0.7,1.8
	c-1.9,0.4-3.9,0.6-5.9,0.8c-4,0.5-7.9,0.9-11.9,1.3c-15.9,1.4-31.9,1.5-47.9,0.3c-4-0.3-8-0.7-11.9-1.1c-1.5-0.2-3.3-0.2-3.8-1.9
	c-0.6-1.7-0.7-3.6-0.9-5.4c-1.1-7.9-1.9-15.8-2.3-23.8c-0.8-15.9-0.3-31.8,1.7-47.6c0.2-1.9,0.5-3.9,0.8-5.8c0.2-1.4-1.9-2-2.1-0.6
	c-2.4,16.3-3.3,32.8-2.7,49.3c0.3,8.2,0.9,16.5,2,24.7c0.3,2.1,0.5,4.1,0.9,6.2c0.2,1.6,0.3,3.6,1.3,5c0.9,1.4,2.5,1.8,4.1,2
	c2,0.3,4,0.5,6,0.6c16.5,1.6,33.1,1.9,49.7,0.7c4.2-0.3,8.3-0.7,12.5-1.1c2-0.2,4.1-0.5,6.1-0.7c1-0.1,2-0.3,3-0.4
	c0.9-0.1,1.9-0.2,2.8-0.5c1.9-0.7,1.9-2.5,1.8-4.2l-0.4-6.3l-0.9-12.5l-3.5-50.5l-0.4-6.3c0-0.6-0.5-1.1-1.1-1.1l-63.3-4.7
	l-17.9-1.3C194,326.2,194.1,328.5,195.5,328.6L195.5,328.6z"/>
<path class="st15" d="M222.6,354.8c0.3-0.8-0.5,1-0.1,0.2c0.1-0.2,0.2-0.4,0.3-0.6c0.2-0.4,0.5-0.8,0.8-1.2c0.3-0.4,0.7-0.5-0.1,0.1
	c0.2-0.2,0.3-0.4,0.5-0.5c0.4-0.4,0.8-0.8,1.2-1.2c0.3-0.3,0.9-0.5-0.2,0.1c0.2-0.1,0.4-0.3,0.6-0.4c0.4-0.3,0.8-0.5,1.2-0.7
	c0.2-0.1,0.4-0.2,0.6-0.3c0.4-0.2,1-0.2-0.2,0.1c0.5-0.1,1-0.4,1.5-0.5c0.4-0.1,0.9-0.2,1.3-0.3c0.4-0.1,1.1,0-0.2,0
	c0.2,0,0.5-0.1,0.7-0.1c0.5,0,1,0,1.4,0c0.2,0,0.5,0,0.7,0c0.8,0-1.2-0.2,0,0c0.5,0.1,0.9,0.2,1.4,0.4c0.2,0.1,0.4,0.2,0.7,0.2
	l-0.6-0.3c0.2,0.1,0.3,0.1,0.4,0.2c0.4,0.2,0.9,0.5,1.3,0.7c0.2,0.1,0.4,0.3,0.6,0.4c0.6,0.4-0.8-0.7,0,0.1c0.3,0.3,0.6,0.5,0.9,0.8
	c0.2,0.2,0.3,0.4,0.5,0.5c0.3,0.3,0.5,0.9-0.1-0.1c0.5,0.9,1.1,1.8,1.6,2.7c0.4,0.8-0.4-1-0.1-0.2c0.1,0.2,0.2,0.5,0.3,0.7
	c0.2,0.5,0.3,0.9,0.4,1.4c0.1,0.5,0.2,1,0.3,1.5c-0.3-1.3-0.1-0.6,0-0.2c0,0.3,0,0.7,0,1c0,0.4,0,0.8,0,1.2c0,0.2-0.1,0.5-0.1,0.7
	c0-1.2,0.1-0.6,0-0.2c-0.1,0.5-0.2,1-0.3,1.4c-0.1,0.2-0.1,0.5-0.2,0.7c-0.1,0.2-0.2,0.4-0.2,0.6c0.2-0.6,0.3-0.6,0.1-0.2
	c-1.2,2.5-2.8,4.7-4,7.2c-3,6.1-4,13.1-2.9,19.8c0.3,1.1,1,2.1,2,2.7c1,0.6,2.3,0.8,3.4,0.4c2.5-0.8,3.5-3,3.1-5.5
	c-0.1-0.9,0.1,0.8,0-0.1c0-0.4-0.1-0.8-0.1-1.1c-0.1-0.8-0.1-1.5-0.1-2.3c0-0.6,0-1.3,0.1-1.9c0-0.4,0-0.8,0.1-1.1
	c0,0-0.1,0.9,0,0.4c0-0.2,0.1-0.4,0.1-0.6c0.3-1.4,0.6-2.8,1.1-4.2c0.1-0.3,0.2-0.6,0.3-0.9c0.3-0.8-0.3,0.6,0.1-0.1
	c0.3-0.7,0.7-1.4,1-2c1.5-2.8,3.3-5.5,4.4-8.5c0.9-2.4,1.2-4.9,1-7.4c-0.4-5.2-2.6-10.5-6.7-13.8c-4.3-3.6-10-4.9-15.5-3.5
	c-6,1.4-10.8,5.7-13,11.5c-0.8,2.2,0.9,5,3.1,5.5C219.7,358.5,221.7,357.2,222.6,354.8L222.6,354.8z"/>
<path class="st15" d="M238.2,407.8c2,0,3.7-1.7,3.7-3.7s-1.7-3.7-3.7-3.7c-2,0-3.7,1.7-3.7,3.7C234.5,406.2,236.1,407.8,238.2,407.8
	z"/>
<path class="st15" d="M85.3,223.1l63.3,4.7l17.9,1.3l-1.1-1.1l3.4,48.7l1.7,24.3c0.1,1,0.1,2,0.2,2.9c0.1,0.8,0.3,1.6-0.7,1.8
	c-1.9,0.4-3.9,0.6-5.9,0.8c-4,0.5-7.9,0.9-11.9,1.3c-15.9,1.4-31.9,1.5-47.9,0.3c-4-0.3-8-0.7-11.9-1.1c-1.5-0.2-3.3-0.2-3.8-1.9
	c-0.6-1.7-0.7-3.6-0.9-5.4c-1.1-7.9-1.9-15.8-2.3-23.8C84.5,259.9,85,244,87,228.2c0.2-1.9,0.5-3.9,0.8-5.8c0.2-1.4-1.9-2-2.1-0.6
	c-2.4,16.3-3.3,32.8-2.7,49.3c0.3,8.2,0.9,16.5,2,24.7c0.3,2.1,0.5,4.1,0.9,6.2c0.2,1.6,0.3,3.6,1.3,5c0.9,1.4,2.5,1.8,4.1,2
	c2,0.3,4,0.5,6,0.6c16.5,1.6,33.1,1.9,49.7,0.7c4.2-0.3,8.3-0.7,12.5-1.1c2-0.2,4.1-0.5,6.1-0.7c1-0.1,2-0.3,3-0.4
	c0.9-0.1,1.9-0.2,2.8-0.5c1.9-0.7,1.9-2.5,1.8-4.2l-0.4-6.3l-0.9-12.5l-3.5-50.5l-0.4-6.3c0-0.6-0.5-1.1-1.1-1.1l-63.3-4.7
	l-17.9-1.3C83.8,220.7,83.9,222.9,85.3,223.1L85.3,223.1z"/>
<path class="st15" d="M112.4,249.3c0.3-0.8-0.5,1-0.1,0.2c0.1-0.2,0.2-0.4,0.3-0.6c0.2-0.4,0.5-0.8,0.8-1.2c0.3-0.4,0.7-0.5-0.1,0.1
	c0.2-0.2,0.3-0.4,0.5-0.5c0.4-0.4,0.8-0.8,1.2-1.2c0.3-0.3,0.9-0.5-0.2,0.1c0.2-0.1,0.4-0.3,0.6-0.4c0.4-0.3,0.8-0.5,1.2-0.7
	c0.2-0.1,0.4-0.2,0.6-0.3c0.4-0.2,1-0.2-0.2,0.1c0.5-0.1,1-0.4,1.5-0.5c0.4-0.1,0.9-0.2,1.3-0.3c0.4-0.1,1.1,0-0.2,0
	c0.2,0,0.5-0.1,0.7-0.1c0.5,0,1,0,1.4,0c0.2,0,0.5,0,0.7,0c0.8,0-1.2-0.2,0,0c0.5,0.1,0.9,0.2,1.4,0.4c0.2,0.1,0.4,0.2,0.7,0.2
	l-0.6-0.3c0.2,0.1,0.3,0.1,0.4,0.2c0.4,0.2,0.9,0.5,1.3,0.7c0.2,0.1,0.4,0.3,0.6,0.4c0.6,0.4-0.8-0.7,0,0.1c0.3,0.3,0.6,0.5,0.9,0.8
	c0.2,0.2,0.3,0.4,0.5,0.5c0.3,0.3,0.5,0.9-0.1-0.1c0.5,0.9,1.1,1.8,1.6,2.7c0.4,0.8-0.4-1-0.1-0.2c0.1,0.2,0.2,0.5,0.3,0.7
	c0.2,0.5,0.3,0.9,0.4,1.4c0.1,0.5,0.2,1,0.3,1.5c-0.3-1.3-0.1-0.6,0-0.2c0,0.3,0,0.7,0,1c0,0.4,0,0.8,0,1.2c0,0.2-0.1,0.5-0.1,0.7
	c0-1.2,0.1-0.6,0-0.2c-0.1,0.5-0.2,1-0.3,1.4c-0.1,0.2-0.1,0.5-0.2,0.7c-0.1,0.2-0.2,0.4-0.2,0.6c0.2-0.6,0.3-0.6,0.1-0.2
	c-1.2,2.5-2.8,4.7-4,7.2c-3,6.1-4,13.1-2.9,19.8c0.3,1.1,1,2.1,2,2.7c1,0.6,2.3,0.8,3.4,0.4c2.5-0.8,3.5-3,3.1-5.5
	c-0.1-0.9,0.1,0.8,0-0.1c0-0.4-0.1-0.8-0.1-1.1c-0.1-0.8-0.1-1.5-0.1-2.3c0-0.6,0-1.3,0.1-1.9c0-0.4,0-0.8,0.1-1.1
	c0,0-0.1,0.9,0,0.4c0-0.2,0.1-0.4,0.1-0.6c0.3-1.4,0.6-2.8,1.1-4.2c0.1-0.3,0.2-0.6,0.3-0.9c0.3-0.8-0.3,0.6,0.1-0.1
	c0.3-0.7,0.7-1.4,1-2c1.5-2.8,3.3-5.5,4.4-8.5c0.9-2.4,1.2-4.9,1-7.4c-0.4-5.2-2.6-10.5-6.7-13.8c-4.3-3.6-10-4.9-15.5-3.5
	c-6,1.4-10.8,5.7-13,11.5c-0.8,2.2,0.9,5,3.1,5.5C109.5,253,111.5,251.7,112.4,249.3L112.4,249.3z"/>
<path class="st15" d="M128,302.3c2,0,3.7-1.7,3.7-3.7s-1.7-3.7-3.7-3.7c-2,0-3.7,1.7-3.7,3.7C124.3,300.7,125.9,302.3,128,302.3z"/>
</svg>
