<svg xmlns="http://www.w3.org/2000/svg" viewBox="0 0 973.3 698.55"><defs><style>.cls-1{fill:#f96440;}.cls-11,.cls-2{fill:#463e3b;}.cls-2,.cls-7{opacity:0.2;}.cls-3{fill:#314e5d;}.cls-4{fill:#e8f0f9;}.cls-5{fill:#fff;}.cls-6{fill:#bcd9ea;}.cls-8{fill:#ded6d3;}.cls-9{fill:#938d35;}.cls-10{fill:#dae23b;}.cls-12{fill:#1dcdff;}.cls-13{fill:#1ab5e1;}.cls-14{fill:#4ed9ff;}.cls-15{fill:none;stroke:#314e5d;stroke-miterlimit:10;stroke-width:8px;}.cls-16{fill:#ea4583;}.cls-17{fill:#afe6ff;}.cls-18{fill:#eea248;}.cls-19{fill:#958fee;}.cls-20{opacity:0.1;}</style></defs><title>Asset 70</title><g id="Layer_2" data-name="Layer 2"><g id="Layer_1-2" data-name="Layer 1"><polyline class="cls-1" points="258.59 634.27 281.59 678.96 291.17 674.03 267.35 627.75"/><polygon class="cls-2" points="269.86 636.55 280.35 656.95 270.05 660.46 261.1 643.08 269.86 636.55"/><polygon class="cls-3" points="293.58 674.81 279.22 682.2 254.99 635.12 259.78 632.65 281.54 674.95 286.33 672.48 263.74 628.6 268.53 626.13 293.58 674.81"/><path class="cls-4" d="M237.78,663.15,459.51,549a37.22,37.22,0,0,0,16.06-50.13L280.47,119.83a37.22,37.22,0,0,0-50.13-16.06L8.61,217.89A13.15,13.15,0,0,0,2.94,235.6L220.07,657.48A13.15,13.15,0,0,0,237.78,663.15Z"/><path class="cls-5" d="M231.17,105.37,9.44,219.48a13.13,13.13,0,0,0-7.06,10.33,13.14,13.14,0,0,1,3.14-2.25L227.25,113.44a37.22,37.22,0,0,1,50.13,16.06l195.1,379.08a37.08,37.08,0,0,1,2.08,29.13,37.18,37.18,0,0,0,1.84-37.2L281.3,121.43A37.22,37.22,0,0,0,231.17,105.37Z"/><path class="cls-6" d="M18.49,214.82l-5.86,3A13.15,13.15,0,0,0,7,235.55L224.08,657.43a13.15,13.15,0,0,0,17.71,5.68l5.86-3Z"/><path class="cls-3" d="M462,551.82,240.22,665.93a15.86,15.86,0,0,1-21.34-6.84L1.75,237.22a15.86,15.86,0,0,1,6.84-21.34L230.32,101.76A40,40,0,0,1,284.08,119l195.1,379.08A40,40,0,0,1,462,551.82ZM11.06,220.67a10.47,10.47,0,0,0-4.51,14.09L223.67,656.63a10.47,10.47,0,0,0,14.09,4.51L459.49,547a34.57,34.57,0,0,0,14.9-46.5L279.29,121.45a34.57,34.57,0,0,0-46.5-14.9Z"/><path class="cls-2" d="M321,290l-26.78-26.56-43.09-42.75h0l-.95-.94a9.36,9.36,0,0,0-13.23.05l-.94.95h0L103.22,354.61h0l-.94,1a9.36,9.36,0,0,0,.05,13.23l35.41,35.13L172.2,438.1h0l1,.94a9.36,9.36,0,0,0,13.23-.05L321.1,303.18A9.36,9.36,0,0,0,321,290Z"/><rect class="cls-5" x="108.19" y="261.29" width="210" height="118.46" rx="5.96" ry="5.96" transform="translate(-156.24 212.31) rotate(-40.04)"/><g class="cls-7"><path class="cls-8" d="M215.83,395.67,179.1,426.55A10.7,10.7,0,0,1,164,425.24l-62.45-74.32a7.48,7.48,0,0,1-.65-.88c12.6,2.64,26.28,2.42,39.19,1.59,6.87-.45,13.8-1,20.62-.18,17.81,2.16,33.39,13.64,44.4,27.78A122.71,122.71,0,0,1,215.83,395.67Z"/></g><path class="cls-3" d="M177.55,431a12.06,12.06,0,0,1-14.72-3L98.65,351.63a12.06,12.06,0,0,1,1.47-17L246.57,211.58a12,12,0,0,1,17,1.47l64.18,76.36a12.06,12.06,0,0,1-1.47,17L179.81,429.47A12.17,12.17,0,0,1,177.55,431Zm73.72-216.09a6.64,6.64,0,0,0-1.24.83L103.59,338.78a6.67,6.67,0,0,0-.81,9.39L167,424.53a6.67,6.67,0,0,0,9.39.81L322.79,302.27a6.67,6.67,0,0,0,.81-9.39l-64.18-76.36A6.67,6.67,0,0,0,251.27,214.88Z"/><path class="cls-2" d="M201.84,128a12.09,12.09,0,0,0-16.28-5.22l-8.83,4.55a12.08,12.08,0,0,0-6,14.21,12,12,0,0,0,1.31,4.84L396.68,582.92A12.09,12.09,0,0,0,413,588.13l8.83-4.55a15.86,15.86,0,0,0,4.72-19.05Z"/><rect class="cls-9" x="290.72" y="89.99" width="34.1" height="515.14" rx="12.75" ry="12.75" transform="translate(-124.93 179.37) rotate(-27.23)"/><path class="cls-10" d="M195.94,118.51,430.41,574.09a3.18,3.18,0,0,1-.36.2l-4.42,2.28L191.13,120.93l3.69-1.9Q195.36,118.75,195.94,118.51Z"/><rect class="cls-11" x="297.2" y="94.7" width="1.79" height="515.16" transform="translate(-128.16 175.46) rotate(-27.23)"/><rect class="cls-11" x="302.8" y="93.83" width="1.79" height="515.16" transform="translate(-127.14 177.93) rotate(-27.23)"/><rect class="cls-11" x="307.59" y="91.36" width="1.79" height="515.16" transform="translate(-125.49 179.85) rotate(-27.23)"/><rect class="cls-11" x="312.38" y="88.9" width="1.79" height="515.16" transform="translate(-123.83 181.77) rotate(-27.23)"/><rect class="cls-11" x="317.17" y="86.44" width="1.79" height="515.16" transform="translate(-122.17 183.69) rotate(-27.23)"/><path class="cls-3" d="M431,577.86l-8.83,4.55a14.79,14.79,0,0,1-19.9-6.38L177.55,139.49a14.79,14.79,0,0,1,6.38-19.9l8.83-4.55a14.79,14.79,0,0,1,19.9,6.38L437.33,558A14.79,14.79,0,0,1,431,577.86ZM186.39,124.38A9.4,9.4,0,0,0,182.33,137L407,573.57a9.4,9.4,0,0,0,12.65,4.05l8.83-4.55a9.4,9.4,0,0,0,4.05-12.65L207.87,123.88a9.4,9.4,0,0,0-12.65-4.05Z"/><rect class="cls-12" x="323.62" y="3.18" width="505.21" height="690.55" rx="25.33" ry="25.33"/><path class="cls-13" d="M828.83,435.39v217c0,22.84-10.83,41.35-24.19,41.35H347.81c-13.36,0-24.19-18.51-24.19-41.35V526.88c30.8,34.58,65.86,57.91,101.82,72.4,43.42,17.52,88.25,22.63,132.85,23.38,53.32.91,107.56-4.57,157.76-35.26C762.08,559.25,804.74,507.52,828.83,435.39Z"/><path class="cls-14" d="M506.28,4.92c-47.59,13.65-113.7.48-154.78,50.64C332,79.35,327.21,125.47,324.07,163.62l.06-106.78c0-13.68.27-28.61,5.45-39C336,4.91,347.2,3.92,357.08,3.93,405.62,4,458.69-5,506.28,4.92Z"/><rect class="cls-15" x="323.14" y="4" width="505.21" height="690.55" rx="25.33" ry="25.33"/><rect class="cls-5" x="371.39" y="48.69" width="410.18" height="594.59" rx="15.86" ry="15.86"/><path class="cls-16" d="M781.07,65.56V181H370.9V65.56c0-8.86,5.87-16,13.12-16H768C775.2,49.52,781.07,56.7,781.07,65.56Z"/><rect class="cls-15" x="370.9" y="47.7" width="410.18" height="598.89" rx="15.86" ry="15.86"/><rect class="cls-5" x="441.68" y="126.43" width="267.94" height="23.16"/><rect class="cls-17" x="433.33" y="293.48" width="131.09" height="5.51" transform="translate(997.75 592.46) rotate(180)"/><rect class="cls-17" x="433.33" y="305.59" width="285.3" height="5.51" transform="translate(1151.97 616.69) rotate(180)"/><rect class="cls-17" x="433.33" y="317.71" width="131.09" height="5.51" transform="translate(997.75 640.93) rotate(180)"/><rect class="cls-17" x="433.33" y="329.83" width="285.3" height="5.51" transform="translate(1151.97 665.16) rotate(180)"/><rect class="cls-17" x="433.33" y="341.94" width="131.09" height="5.51" transform="translate(997.75 689.4) rotate(180)"/><rect class="cls-17" x="433.33" y="354.06" width="285.3" height="5.51" transform="translate(1151.97 713.63) rotate(180)"/><rect class="cls-18" x="662.81" y="74.19" width="98.41" height="11.58" transform="translate(1424.04 159.96) rotate(180)"/><rect class="cls-18" x="550.84" y="74.19" width="98.41" height="11.58" transform="translate(1200.09 159.96) rotate(180)"/><circle class="cls-18" cx="401.91" cy="79.98" r="11.16"/><circle class="cls-16" cx="472.61" cy="237.33" r="24.81"/><rect class="cls-19" x="657.03" y="215" width="47.14" height="47.14" rx="14.9" ry="14.9"/><path class="cls-18" d="M573.11,218.54a4,4,0,0,1,7,0l10.84,18.77,10.84,18.77a4,4,0,0,1-3.49,6H554.93a4,4,0,0,1-3.49-6l10.84-18.77Z"/><rect class="cls-4" x="773.09" y="146.77" width="116.65" height="533.51" rx="21.48" ry="21.48" transform="matrix(0.94, 0.34, -0.34, 0.94, 187.22, -255.25)"/><path class="cls-6" d="M958.12,177l-16.21-5.78a16.51,16.51,0,0,1,10,21.09L783.79,663.75a16.51,16.51,0,0,1-21.09,10l16.21,5.78a16.51,16.51,0,0,0,21.09-10L968.12,198.12A16.51,16.51,0,0,0,958.12,177Z"/><path class="cls-2" d="M958.12,177l-78.77-28.09a16.51,16.51,0,0,0-21.09,10l-6.42,18a16.51,16.51,0,0,1,21.09-10L951.7,195a16.51,16.51,0,0,1,10,21.09l6.42-18A16.51,16.51,0,0,0,958.12,177Z"/><rect class="cls-3" x="945.54" y="209.68" width="5.74" height="19.12" transform="translate(423.33 1038.89) rotate(-70.37)"/><rect class="cls-3" x="940.4" y="224.09" width="5.74" height="19.12" transform="translate(406.34 1043.62) rotate(-70.37)"/><rect class="cls-3" x="935.26" y="238.49" width="5.74" height="19.12" transform="translate(389.36 1048.35) rotate(-70.37)"/><rect class="cls-3" x="921.12" y="240.13" width="5.74" height="38.24" transform="matrix(0.34, -0.94, 0.94, 0.34, 369.42, 1042.46)"/><rect class="cls-3" x="927.98" y="264.61" width="5.74" height="19.12" transform="translate(359.92 1058.83) rotate(-70.37)"/><rect class="cls-3" x="922.84" y="279.02" width="5.74" height="19.12" transform="translate(342.94 1063.56) rotate(-70.37)"/><rect class="cls-3" x="917.7" y="293.43" width="5.74" height="19.12" transform="translate(325.96 1068.29) rotate(-70.37)"/><rect class="cls-3" x="903.56" y="295.06" width="5.74" height="38.24" transform="matrix(0.34, -0.94, 0.94, 0.34, 306.02, 1062.4)"/><rect class="cls-3" x="910.42" y="319.54" width="5.74" height="19.12" transform="translate(296.52 1078.77) rotate(-70.37)"/><rect class="cls-3" x="905.28" y="333.95" width="5.74" height="19.12" transform="translate(279.54 1083.5) rotate(-70.37)"/><rect class="cls-3" x="900.14" y="348.36" width="5.74" height="19.12" transform="translate(262.55 1088.23) rotate(-70.37)"/><rect class="cls-3" x="886" y="350" width="5.74" height="38.24" transform="translate(242.61 1082.34) rotate(-70.37)"/><rect class="cls-3" x="889.26" y="373.19" width="5.74" height="19.12" transform="translate(231.94 1094.47) rotate(-70.37)"/><rect class="cls-3" x="884.12" y="387.6" width="5.74" height="19.12" transform="translate(214.95 1099.2) rotate(-70.37)"/><rect class="cls-3" x="878.98" y="402.01" width="5.74" height="19.12" transform="translate(197.97 1103.92) rotate(-70.37)"/><rect class="cls-3" x="864.83" y="403.65" width="5.74" height="38.24" transform="matrix(0.34, -0.94, 0.94, 0.34, 178.03, 1098.04)"/><rect class="cls-3" x="869.89" y="427.48" width="5.74" height="19.12" transform="translate(167.94 1112.28) rotate(-70.37)"/><rect class="cls-3" x="864.76" y="441.89" width="5.74" height="19.12" transform="translate(150.96 1117.01) rotate(-70.37)"/><rect class="cls-3" x="859.62" y="456.3" width="5.74" height="19.12" transform="translate(133.97 1121.74) rotate(-70.37)"/><rect class="cls-3" x="845.47" y="457.94" width="5.74" height="38.24" transform="matrix(0.34, -0.94, 0.94, 0.34, 114.04, 1115.85)"/><rect class="cls-3" x="852.33" y="482.41" width="5.74" height="19.12" transform="translate(104.54 1132.22) rotate(-70.37)"/><rect class="cls-3" x="847.19" y="496.82" width="5.74" height="19.12" transform="translate(87.56 1136.95) rotate(-70.37)"/><rect class="cls-3" x="842.06" y="511.23" width="5.74" height="19.12" transform="translate(70.57 1141.68) rotate(-70.37)"/><rect class="cls-3" x="827.91" y="512.87" width="5.74" height="38.24" transform="matrix(0.34, -0.94, 0.94, 0.34, 50.63, 1135.79)"/><rect class="cls-3" x="832.97" y="536.7" width="5.74" height="19.12" transform="translate(40.55 1150.04) rotate(-70.37)"/><rect class="cls-3" x="827.83" y="551.11" width="5.74" height="19.12" transform="translate(23.56 1154.77) rotate(-70.37)"/><rect class="cls-3" x="822.69" y="565.52" width="5.74" height="19.12" transform="translate(6.58 1159.5) rotate(-70.37)"/><rect class="cls-3" x="808.55" y="567.16" width="5.74" height="38.24" transform="translate(-13.36 1153.61) rotate(-70.37)"/><rect class="cls-3" x="813.61" y="591" width="5.74" height="19.12" transform="translate(-23.45 1167.86) rotate(-70.37)"/><rect class="cls-3" x="808.47" y="605.4" width="5.74" height="19.12" transform="translate(-40.43 1172.59) rotate(-70.37)"/><rect class="cls-3" x="803.33" y="619.81" width="5.74" height="19.12" transform="translate(-57.42 1177.31) rotate(-70.37)"/><rect class="cls-3" x="789.19" y="621.45" width="5.74" height="38.24" transform="translate(-77.36 1171.43) rotate(-70.37)"/><rect class="cls-5" x="540.87" y="403.97" width="529.69" height="3.82" transform="translate(152.77 1028.44) rotate(-70.37)"/><path class="cls-5" d="M694.24,647.3l-5.4-1.93,175.36-491.7a5.74,5.74,0,0,1,7.33-3.48h0Z"/><rect class="cls-5" x="521.69" y="396.85" width="527.77" height="5.74" transform="translate(145.21 1005.38) rotate(-70.37)"/><rect class="cls-5" x="527.1" y="398.77" width="527.77" height="5.74" transform="translate(146.98 1011.75) rotate(-70.37)"/><circle class="cls-5" cx="748.77" cy="642.39" r="8.6" transform="translate(-107.81 1131.87) rotate(-70.37)"/><path class="cls-3" d="M744.92,653.2a11.47,11.47,0,1,1,14.66-7A11.49,11.49,0,0,1,744.92,653.2ZM750.7,637a5.74,5.74,0,1,0,3.48,7.33A5.74,5.74,0,0,0,750.7,637Z"/><circle class="cls-5" cx="910.13" cy="184.27" r="8.6" transform="translate(430.84 979.61) rotate(-70.37)"/><path class="cls-3" d="M906.27,195.07a11.47,11.47,0,1,1,14.66-7A11.49,11.49,0,0,1,906.27,195.07Zm5.78-16.21a5.74,5.74,0,1,0,3.48,7.33A5.74,5.74,0,0,0,912.05,178.86Z"/><path class="cls-3" d="M781.13,684.38l-84-30a16.63,16.63,0,0,1-10.06-21.22l170-476.63a16.63,16.63,0,0,1,21.22-10.06l84,30a16.63,16.63,0,0,1,10.06,21.22l-170,476.63A16.63,16.63,0,0,1,781.13,684.38Zm95.23-532.46a10.88,10.88,0,0,0-13.89,6.59l-170,476.63A10.88,10.88,0,0,0,699.07,649l84,30a10.88,10.88,0,0,0,13.89-6.59l170-476.63a10.88,10.88,0,0,0-6.59-13.89Z"/><path class="cls-20" d="M856.8,328.09a83.34,83.34,0,0,1,4.28-22.28,50,50,0,0,1,8.59-16.25,28.51,28.51,0,0,1,15.53-9.92l.4,1.87a26.61,26.61,0,0,0-14.46,9.28,48.16,48.16,0,0,0-8.25,15.64,81.45,81.45,0,0,0-4.18,21.77Z"/><path class="cls-20" d="M796.24,349a26.93,26.93,0,0,1-3.88-1.74l.92-1.68c12.74,7,30.34,2.09,37.67-10.44,2.13-3.64,3.64-8.09,4.75-14,1.87-10,1.72-18.94-.46-26.62-2.6-9.15-8.26-16.68-15.53-20.66l.92-1.68c7.72,4.22,13.72,12.17,16.45,21.82,2.26,8,2.43,17.21.5,27.49-1.15,6.14-2.73,10.79-5,14.63C825.49,348.21,809.34,353.62,796.24,349Z"/><path class="cls-20" d="M799.77,327.24l.18-1.9c7.72.75,15.55-5.26,17.45-13.39,1.74-7.48-1.41-16.23-7.85-21.79l1.25-1.45c7,6,10.37,15.53,8.47,23.68C817.16,321.41,808.42,328.08,799.77,327.24Z"/><path class="cls-20" d="M727.2,553.73a15.62,15.62,0,0,1-3.84-2l1.11-1.56c3.62,2.59,8.25,3.26,13.36,1.95,11.15-2.86,23.06-14.51,30.35-29.68,3.29-6.85,6.09-14.92,8.82-25.4,4.58-17.62,6.67-33,6.21-45.62-.54-15-4.81-26.46-11.71-31.38l1.11-1.56c7.39,5.27,11.94,17.25,12.51,32.87.46,12.84-1.65,28.37-6.27,46.17-2.76,10.6-5.6,18.78-8.94,25.75C762.38,538.92,750,551,738.31,554A18.84,18.84,0,0,1,727.2,553.73Z"/><path class="cls-20" d="M736.69,516l-.15-1.91c8.21-.66,18.66-13.46,22.81-28,3.86-13.48,2.63-27.87-3.06-35.81l1.55-1.12c6.11,8.52,7.42,23.22,3.35,37.45C756.76,502.09,745.77,515.25,736.69,516Z"/><path class="cls-20" d="M868.29,461.93c-7.72-4.22-13.72-12.17-16.45-21.82-2.26-8-2.43-17.21-.5-27.49,1.15-6.14,2.73-10.79,5-14.63,7.83-13.38,26.63-18.6,40.24-11.15l-.92,1.68c-12.73-7-30.34-2.09-37.67,10.44-2.13,3.64-3.64,8.09-4.75,14-1.87,10-1.72,18.94.46,26.62,2.6,9.15,8.26,16.68,15.53,20.66Z"/><path class="cls-20" d="M878.12,445.35c-7-6-10.37-15.53-8.47-23.68,2.11-9,10.85-15.7,19.5-14.86l-.18,1.9c-7.72-.75-15.55,5.26-17.45,13.39-1.74,7.48,1.41,16.23,7.85,21.79Z"/><path class="cls-20" d="M799.3,650.49c-10.91-6-19.39-17.21-23.26-30.85-3.2-11.29-3.44-24.41-.7-39,1.63-8.71,3.87-15.29,7-20.72,11.06-18.89,37.6-26.25,56.81-15.74l-.92,1.68c-18.33-10-43.68-3-54.24,15-3.06,5.23-5.23,11.61-6.82,20.1-2.68,14.29-2.46,27.12.66,38.12,3.73,13.15,11.87,24,22.33,29.69Z"/><path class="cls-20" d="M813.36,626.91c-9.81-8.47-14.61-21.87-11.94-33.35,3-12.68,15.23-22,27.36-20.87l-.18,1.9c-11.21-1.09-22.56,7.62-25.31,19.4-2.52,10.8,2,23.44,11.32,31.46Z"/><rect class="cls-3" x="542.44" y="399.48" width="506.74" height="5.74" transform="translate(149.52 1016.76) rotate(-70.37)"/><path class="cls-20" d="M801.51,496.08c-2.21-6.08-5-13.64-4.77-21.3.15-6,2-11.75,3.89-17.31,1-3.14,2.11-6.38,2.85-9.61a52.3,52.3,0,0,0-16.65-50.19l1.24-1.45a54.26,54.26,0,0,1,17.27,52.07c-.76,3.32-1.84,6.61-2.9,9.79-1.8,5.43-3.65,11-3.79,16.76-.18,7.29,2.5,14.67,4.65,20.6Z"/><path class="cls-20" d="M873.57,259.88c-2.21-6.08-5-13.64-4.77-21.3.15-6,2-11.75,3.89-17.31,1-3.14,2.11-6.38,2.85-9.61a52.3,52.3,0,0,0-16.65-50.19l1.24-1.45a54.26,54.26,0,0,1,17.27,52.07c-.76,3.32-1.84,6.61-2.9,9.79-1.8,5.43-3.65,11-3.79,16.76-.18,7.29,2.5,14.67,4.65,20.6Z"/><path class="cls-20" d="M927.22,297.29c-2.21-6.08-5-13.64-4.77-21.3.15-6,2-11.75,3.89-17.31,1-3.14,2.11-6.38,2.85-9.61a52.3,52.3,0,0,0-16.65-50.19l1.24-1.45a54.26,54.26,0,0,1,17.27,52.07c-.76,3.32-1.84,6.61-2.9,9.79-1.8,5.43-3.65,11-3.79,16.76-.18,7.29,2.5,14.67,4.65,20.6Z"/><path class="cls-20" d="M727.65,662.09l-1.61-1c3.63-5.71,3.24-13,2.86-20-.1-1.83-.2-3.66-.23-5.46A136.2,136.2,0,0,1,730,617.23c1.41-11.72,2.75-22.8-1.53-33.12-3.09-7.45-9-13.61-14.26-18.79l1.34-1.36c5.41,5.31,11.46,11.64,14.69,19.42,4.48,10.79,3,22.63,1.67,34.08a134.62,134.62,0,0,0-1.37,18.12c0,1.77.13,3.57.22,5.38C731.2,648.29,731.61,655.86,727.65,662.09Z"/></g></g></svg>