<?xml version="1.0" encoding="utf-8"?>
<!-- Generator: Adobe Illustrator 22.0.1, SVG Export Plug-In . SVG Version: 6.00 Build 0)  -->
<svg version="1.1" id="Layer_1" xmlns="http://www.w3.org/2000/svg" xmlns:xlink="http://www.w3.org/1999/xlink" x="0px" y="0px"
	 viewBox="0 0 400 450" style="enable-background:new 0 0 400 450;" xml:space="preserve">
<style type="text/css">
	.st0{fill:#F3F3F3;}
	.st1{fill:#302E41;}
	.st2{fill:#403E56;}
	.st3{fill:#F16584;}
	.st4{opacity:0.1;fill:#010101;enable-background:new    ;}
	.st5{opacity:0.45;}
	.st6{fill:#B9BAC6;}
	.st7{fill:#FFFFFF;}
	.st8{fill:#71C8EC;}
</style>
<rect x="287.8" y="152.6" class="st0" width="92.5" height="1.3"/>
<rect x="312.9" y="141.1" class="st0" width="1.3" height="11.9"/>
<rect x="353.2" y="141.1" class="st0" width="1.3" height="11.9"/>
<polygon class="st1" points="243.5,399.3 104,399.3 104,398.3 242.4,398.3 242.4,351.1 115.7,351.1 109.5,338.7 110.4,338.2 
	116.3,350.1 243.5,350.1 "/>
<ellipse class="st2" cx="122.5" cy="412.9" rx="10.5" ry="10.3"/>
<ellipse class="st2" cx="226.4" cy="412.9" rx="10.5" ry="10.3"/>
<ellipse class="st2" cx="348.9" cy="195.8" rx="6.5" ry="6.3"/>
<path class="st1" d="M258.4,335H101.6L67.7,227.4h225.7l-0.2,0.6L258.4,335z M102.3,334h155.3l34.3-105.6h-223L102.3,334z"/>
<polygon class="st0" points="246.2,329.4 108.4,329.4 78.5,234 276.9,234 276.7,234.6 "/>
<polygon class="st1" points="296.1,217.8 295.2,217.5 301.9,193.3 340.4,193.3 340.4,194.3 302.6,194.3 "/>
<rect x="78.5" y="260.1" class="st1" width="203.5" height="1"/>
<rect x="89.9" y="295.9" class="st1" width="180.5" height="1"/>
<rect x="180" y="227.9" class="st1" width="1" height="106.6"/>
<polygon class="st1" points="218.7,334.5 225.9,227.9 226.9,228 219.7,334.6 "/>
<polygon class="st1" points="134,228 135,227.9 142.2,334.5 141.2,334.6 "/>
<rect x="65.6" y="199.6" class="st0" width="82.5" height="1.2"/>
<rect x="88" y="189.3" class="st0" width="1.2" height="10.6"/>
<rect x="124" y="189.3" class="st0" width="1.2" height="10.6"/>
<path class="st3" d="M233.2,177.2l-2.1-2.2c-2.5-2.7-6.5-2.7-9,0l-39.6,42.5L143,175c-2.5-2.7-6.5-2.7-9,0l-2.1,2.2
	c-2.5,2.7-2.5,7,0,9.6l0,0l39.6,42.5l-39.6,42.5c-2.5,2.7-2.5,7,0,9.6l2.1,2.2c2.5,2.7,6.5,2.7,9,0l39.6-42.5l39.6,42.5
	c2.5,2.7,6.5,2.7,9,0l2.1-2.2c2.5-2.7,2.5-7,0-9.6l-39.6-42.5l39.6-42.5C235.7,184.2,235.7,179.9,233.2,177.2z"/>
<path class="st4" d="M130.5,274.1l38.5-41.2l-0.4-0.4l-36.7,39.3C131.3,272.4,130.8,273.2,130.5,274.1z"/>
<path class="st4" d="M131.4,178.6c2.5-2.7,6.5-2.7,9,0l0,0l39.6,42.5l39.6-42.5c2.5-2.7,6.5-2.7,9,0l0,0l2.1,2.2
	c1.8,2,2.3,4.8,1.4,7.3l1.2-1.2c2.5-2.7,2.5-7,0-9.6l0,0l-2.1-2.2c-2.5-2.7-6.5-2.7-9,0l-39.6,42.5L143,175.1c-2.5-2.7-6.5-2.7-9,0
	l-2.1,2.2c-0.6,0.6-1.1,1.4-1.4,2.3L131.4,178.6z"/>
<path class="st4" d="M194,229.7l-2.9,3.2l39.6,42.5c1.8,2,2.3,4.8,1.4,7.3l1.2-1.2c2.5-2.7,2.5-7,0-9.6l0,0L194,229.7z"/>
<g class="st5">
	<path class="st6" d="M195.1,111.9l8.7-25.9c6.2-18.5-0.5-38.9-16.4-50.2l0.1,0c-3.4-2.4-7.2-4.3-11.2-5.7l0,0l-0.1,0l-0.1,0l0,0
		c-3.9-1.3-7.9-2.1-12-2.3c-1.4-0.1-2.9-0.1-4.3,0c-2.5,0.1-5,0.5-7.4,1c-0.7,0.2-1.4,0.3-2.1,0.5c-0.6,0.2-1.4,0.4-2,0.6
		c-1.3,0.4-2.7,0.9-4,1.5c-0.7,0.3-1.3,0.6-1.9,0.9c-1.9,0.9-3.7,2-5.5,3.2c-0.6,0.4-1.2,0.8-1.7,1.2c-7,5.3-12.3,12.6-15.1,21
		l-13.7,40.9c-2.2,6.4-2.8,13.2-1.9,19.9c0.1,1,0.3,2,0.5,3.1c0.2,1,0.5,2,0.7,3c0.2,0.7,0.4,1.3,0.6,2c0.3,1,0.7,1.9,1.1,2.9
		c0.3,0.6,0.5,1.3,0.8,1.9c0.6,1.2,1.2,2.5,1.9,3.6c0.7,1.2,1.4,2.3,2.2,3.5c0.6,0.8,1.2,1.7,1.9,2.5c0.9,1.1,1.8,2.1,2.8,3.1
		c4.2,4.3,9.3,7.6,14.9,9.8l0,0l0,0l0.2,0.1c0.3-0.5,0.6-1,1-1.5c2.1-2.9,5.8-5,9.3-4.2c0.3,0.1,0.5,0.1,0.8,0.2
		c1.8,0.6,3.5,1.8,5.3,2.3c1.3,0.6,2.7,0.6,4,0c3.4-1.8,2.2-7.6,5.1-10.2c0.1-0.1,0.3-0.2,0.4-0.3c0-0.1-0.1-0.1-0.1-0.2
		c2.3-1.4,5.4-0.5,8.1,0.4c2.8,1,6.5,1.7,8.5-0.6c1.3-1.6,1.2-4,2.5-5.7c1.5-1.9,4.3-2.1,6.7-1.8l0.1,0c4.6,1.9,9.6-1.3,9.3-6.2
		C192.6,119.5,194.6,113.3,195.1,111.9z"/>
</g>
<path class="st7" d="M133.9,149c2.1-2.8,5.6-4.8,9-4c3.4,0.8,6.6,4,9.7,2.4c4.1-2.2,1.2-10.3,7.9-10.9c1.4-0.1,2.8,0.2,4.1,0.7
	c2.8,1.2,7.3,2.5,9.5-0.1c1.3-1.5,1.2-3.9,2.4-5.5c1.4-1.8,4.1-2.1,6.4-1.7l0.1,0c4.4,1.8,9.3-1.2,9-6c-0.4-6.4,1.6-12.4,2-13.7
	l8.4-25c7.5-22.3-4.5-46.5-26.8-54.1l0,0c-22.3-7.4-46.5,4.5-54.1,26.8l-13.3,39.4c-7.2,21.5,3.7,44.8,24.7,53.3
	C133.2,150,133.5,149.5,133.9,149z"/>
<g id="Layer_5_1_">
	<path class="st8" d="M186.6,99.9c0,0-12.9-9.6-26.7-14c-13.8-4.4-24-6.1-34.6-4.6c0,0,14.6-19.1,36.1-9.9S186.6,99.9,186.6,99.9z"
		/>
	<ellipse transform="matrix(0.3955 -0.9185 0.9185 0.3955 35.6179 173.7522)" class="st8" cx="149.8" cy="59.8" rx="4.1" ry="4.8"/>
	<ellipse transform="matrix(1 -9.103022e-03 9.103022e-03 1 -0.6146 1.6061)" class="st8" cx="176.1" cy="68.3" rx="4.8" ry="4.1"/>
</g>
</svg>
