<?xml version="1.0" encoding="utf-8"?>
<!-- Generator: Adobe Illustrator 22.0.1, SVG Export Plug-In . SVG Version: 6.00 Build 0)  -->
<svg version="1.1" id="Layer_1" xmlns="http://www.w3.org/2000/svg" xmlns:xlink="http://www.w3.org/1999/xlink" x="0px" y="0px"
	 viewBox="0 0 400 450" style="enable-background:new 0 0 400 450;" xml:space="preserve">
<style type="text/css">
	.st0{fill:#F3F3F3;}
	.st1{opacity:0.45;}
	.st2{fill:#B9BAC6;}
	.st3{fill:#FFFFFF;}
	.st4{fill:#71C8EC;}
	.st5{fill:#63B7FF;}
	.st6{fill:#D0CDE1;}
	.st7{fill:none;}
	.st8{fill:#3F3D56;}
	.st9{fill:#F2F2F2;}
	.st10{fill:#FF6584;}
	.st11{opacity:0.1;enable-background:new    ;}
</style>
<rect x="287.8" y="152.6" class="st0" width="92.5" height="1.3"/>
<rect x="312.9" y="141.1" class="st0" width="1.3" height="11.9"/>
<rect x="353.2" y="141.1" class="st0" width="1.3" height="11.9"/>
<g class="st1">
	<path class="st2" d="M195.1,111.9l8.7-25.9c6.2-18.5-0.5-38.9-16.4-50.2h0.1c-3.4-2.4-7.2-4.3-11.2-5.7l0,0h-0.1h-0.1l0,0
		c-3.9-1.3-7.9-2.1-12-2.3c-1.4-0.1-2.9-0.1-4.3,0c-2.5,0.1-5,0.5-7.4,1c-0.7,0.2-1.4,0.3-2.1,0.5c-0.6,0.2-1.4,0.4-2,0.6
		c-1.3,0.4-2.7,0.9-4,1.5c-0.7,0.3-1.3,0.6-1.9,0.9c-1.9,0.9-3.7,2-5.5,3.2c-0.6,0.4-1.2,0.8-1.7,1.2c-7,5.3-12.3,12.6-15.1,21
		l-13.7,40.9c-2.2,6.4-2.8,13.2-1.9,19.9c0.1,1,0.3,2,0.5,3.1c0.2,1,0.5,2,0.7,3c0.2,0.7,0.4,1.3,0.6,2c0.3,1,0.7,1.9,1.1,2.9
		c0.3,0.6,0.5,1.3,0.8,1.9c0.6,1.2,1.2,2.5,1.9,3.6c0.7,1.2,1.4,2.3,2.2,3.5c0.6,0.8,1.2,1.7,1.9,2.5c0.9,1.1,1.8,2.1,2.8,3.1
		c4.2,4.3,9.3,7.6,14.9,9.8l0,0l0,0l0.2,0.1c0.3-0.5,0.6-1,1-1.5c2.1-2.9,5.8-5,9.3-4.2c0.3,0.1,0.5,0.1,0.8,0.2
		c1.8,0.6,3.5,1.8,5.3,2.3c1.3,0.6,2.7,0.6,4,0c3.4-1.8,2.2-7.6,5.1-10.2c0.1-0.1,0.3-0.2,0.4-0.3c0-0.1-0.1-0.1-0.1-0.2
		c2.3-1.4,5.4-0.5,8.1,0.4c2.8,1,6.5,1.7,8.5-0.6c1.3-1.6,1.2-4,2.5-5.7c1.5-1.9,4.3-2.1,6.7-1.8h0.1c4.6,1.9,9.6-1.3,9.3-6.2
		C192.6,119.5,194.6,113.3,195.1,111.9z"/>
</g>
<path class="st3" d="M133.9,149c2.1-2.8,5.6-4.8,9-4s6.6,4,9.7,2.4c4.1-2.2,1.2-10.3,7.9-10.9c1.4-0.1,2.8,0.2,4.1,0.7
	c2.8,1.2,7.3,2.5,9.5-0.1c1.3-1.5,1.2-3.9,2.4-5.5c1.4-1.8,4.1-2.1,6.4-1.7h0.1c4.4,1.8,9.3-1.2,9-6c-0.4-6.4,1.6-12.4,2-13.7
	l8.4-25c7.5-22.3-4.5-46.5-26.8-54.1l0,0c-22.3-7.4-46.5,4.5-54.1,26.8l-13.3,39.4c-7.2,21.5,3.7,44.8,24.7,53.3
	C133.2,150,133.5,149.5,133.9,149z"/>
<g id="Layer_5_1_">
	<path class="st4" d="M186.6,99.9c0,0-12.9-9.6-26.7-14s-24-6.1-34.6-4.6c0,0,14.6-19.1,36.1-9.9S186.6,99.9,186.6,99.9z"/>
	<ellipse transform="matrix(0.3955 -0.9185 0.9185 0.3955 35.6146 173.7349)" class="st4" cx="149.8" cy="59.8" rx="4.1" ry="4.8"/>
	<ellipse transform="matrix(1 -9.102644e-03 9.102644e-03 1 -0.6144 1.6059)" class="st4" cx="176.1" cy="68.3" rx="4.8" ry="4.1"/>
</g>
<path class="st5" d="M194.2,214.1c-27.5-27.7-72.1-27.7-99.5,0s-27.5,72.4,0,100.1l99.5,100.1l99.5-100.1
	c27.5-27.6,27.5-72.4,0-100.1C266.3,186.5,221.7,186.5,194.2,214.1L194.2,214.1z"/>
<polygon class="st6" points="322.2,316.8 321.5,316.1 323.2,314.3 321.5,312.6 322.2,311.9 324.6,314.3 "/>
<path class="st6" d="M231,408.5l-0.7-0.7l4.2-4.2l0.7,0.7L231,408.5z M239.3,400.2l-0.7-0.7l4.2-4.2l0.7,0.7L239.3,400.2z
	 M247.5,391.8l-0.7-0.7l4.2-4.2l0.7,0.7L247.5,391.8z M255.8,383.5l-0.7-0.7l4.2-4.2l0.7,0.7L255.8,383.5z M264.1,375.2l-0.7-0.7
	l4.2-4.2l0.7,0.7L264.1,375.2z M272.4,366.8l-0.7-0.7l4.2-4.2l0.7,0.7L272.4,366.8z M280.7,358.5l-0.7-0.7l4.2-4.2l0.7,0.7
	L280.7,358.5z M289,350.1l-0.7-0.7l4.2-4.2l0.7,0.7L289,350.1z M297.3,341.8l-0.7-0.7l4.2-4.2l0.7,0.7L297.3,341.8z M305.6,333.4
	l-0.7-0.7l4.2-4.2l0.7,0.7L305.6,333.4z M313.9,325.1l-0.7-0.7l4.2-4.2l0.7,0.7L313.9,325.1z"/>
<polygon class="st6" points="224.4,415.1 221.9,412.7 222.6,412 224.4,413.7 226.1,412 226.8,412.7 "/>
<path class="st6" d="M217.8,408.5l-4.2-4.2l0.7-0.7l4.2,4.2L217.8,408.5z M209.5,400.2l-4.2-4.2l0.7-0.7l4.2,4.2L209.5,400.2z
	 M201.2,391.8l-4.2-4.2l0.7-0.7l4.2,4.2L201.2,391.8z M192.9,383.5l-4.2-4.2l0.7-0.7l4.2,4.2L192.9,383.5z M184.6,375.2l-4.2-4.2
	l0.7-0.7l4.2,4.2L184.6,375.2z M176.4,366.8l-4.2-4.2l0.7-0.7l4.2,4.2L176.4,366.8z M168.1,358.5l-4.2-4.2l0.7-0.7l4.2,4.2
	L168.1,358.5z M159.7,350.1l-4.2-4.2l0.7-0.7l4.2,4.2L159.7,350.1z M151.5,341.8l-4.2-4.2l0.7-0.7l4.2,4.2L151.5,341.8z
	 M143.2,333.4l-4.2-4.2l0.7-0.7l4.2,4.2L143.2,333.4z M134.9,325.1l-4.2-4.2l0.7-0.7l4.2,4.2L134.9,325.1z"/>
<polygon class="st6" points="126.6,316.8 124.2,314.3 126.6,311.9 127.3,312.6 125.6,314.3 127.3,316.1 "/>
<path class="st6" d="M131.4,308.4l-0.7-0.7l4.2-4.2l0.7,0.7L131.4,308.4z M139.7,300.1l-0.7-0.7l4.2-4.2l0.7,0.7L139.7,300.1z
	 M148,291.7l-0.7-0.7l4.2-4.2l0.7,0.7L148,291.7z M156.3,283.4l-0.7-0.7l4.2-4.2l0.7,0.7L156.3,283.4z M164.6,275.1l-0.7-0.7
	l4.2-4.2l0.7,0.7L164.6,275.1z M172.9,266.7l-0.7-0.7l4.2-4.2l0.7,0.7L172.9,266.7z M181.2,258.4l-0.7-0.7l4.2-4.2l0.7,0.7
	L181.2,258.4z M189.5,250l-0.7-0.7l4.2-4.2l0.7,0.7L189.5,250z M197.8,241.7l-0.7-0.7l4.2-4.2l0.7,0.7L197.8,241.7z M206.1,233.4
	l-0.7-0.7l4.2-4.2l0.7,0.7L206.1,233.4z M214.4,225l-0.7-0.7l4.2-4.2l0.7,0.7L214.4,225z"/>
<polygon class="st6" points="226.1,216.7 224.4,214.9 222.6,216.7 221.9,216 224.4,213.5 226.8,216 "/>
<path class="st6" d="M317.3,308.4l-4.2-4.2l0.7-0.7l4.2,4.2L317.3,308.4z M309,300.1l-4.2-4.2l0.7-0.7l4.2,4.2L309,300.1z
	 M300.7,291.7l-4.2-4.2l0.7-0.7l4.2,4.2L300.7,291.7z M292.4,283.4l-4.2-4.2l0.7-0.7l4.2,4.2L292.4,283.4z M284.2,275.1l-4.2-4.2
	l0.7-0.7l4.2,4.2L284.2,275.1z M275.9,266.7l-4.2-4.2l0.7-0.7l4.2,4.2L275.9,266.7z M267.6,258.4l-4.2-4.2l0.7-0.7l4.2,4.2
	L267.6,258.4z M259.3,250l-4.2-4.2l0.7-0.7l4.2,4.2L259.3,250z M251,241.7l-4.2-4.2l0.7-0.7l4.2,4.2L251,241.7z M242.7,233.4
	l-4.2-4.2l0.7-0.7l4.2,4.2L242.7,233.4z M234.4,225l-4.2-4.2l0.7-0.7l4.2,4.2L234.4,225z"/>
<path class="st6" d="M173.1,335.6c-2,0-4-0.2-6-0.4l0.1-1c1.9,0.2,3.9,0.3,5.9,0.4V335.6z M179.2,335.4l0-1c1.9-0.1,3.9-0.3,5.9-0.6
	l0.1,1C183.1,335,181.1,335.3,179.2,335.4z M161.2,334.3c-1.9-0.4-3.9-0.8-5.8-1.4l0.3-1c1.9,0.6,3.9,1,5.8,1.4L161.2,334.3z
	 M191,333.6l-0.2-1c1.9-0.5,3.9-1,5.7-1.6l0.3,0.9C194.9,332.6,193,333.1,191,333.6z M149.6,331c-1.9-0.7-3.7-1.5-5.6-2.4l0.4-0.9
	c1.8,0.8,3.6,1.7,5.5,2.3L149.6,331z M202.5,329.8l-0.4-0.9c1.8-0.8,3.6-1.7,5.3-2.6l0.5,0.9C206.1,328.2,204.3,329.1,202.5,329.8z
	 M138.8,325.8c-1.7-1-3.4-2.1-5-3.3l0.6-0.8c1.6,1.1,3.3,2.2,5,3.2L138.8,325.8z M213.1,324.2l-0.6-0.8c1.7-1.1,3.3-2.2,4.8-3.5
	l0.6,0.8C216.4,321.9,214.7,323.1,213.1,324.2z M128.9,318.8c-1.5-1.3-3-2.7-4.4-4.1l0.7-0.7c1.4,1.4,2.9,2.8,4.4,4L128.9,318.8z
	 M222.6,316.7l-0.7-0.7c0.7-0.7,1.4-1.4,2.1-2c0.7-0.7,1.4-1.4,2.1-2.2l0.7,0.7c-0.7,0.8-1.4,1.5-2.1,2.2
	C224,315.4,223.3,316.1,222.6,316.7L222.6,316.7z M120.5,310.3c-1.3-1.5-2.5-3.1-3.7-4.8l0.8-0.6c1.1,1.6,2.4,3.2,3.6,4.7
	L120.5,310.3z M230.7,307.8l-0.8-0.6c1.2-1.6,2.4-3.2,3.4-4.9l0.8,0.6C233.1,304.6,231.9,306.3,230.7,307.8L230.7,307.8z
	 M113.5,300.4c-1-1.7-1.9-3.5-2.8-5.3l0.9-0.4c0.8,1.8,1.8,3.6,2.8,5.3L113.5,300.4z M237.2,297.7l-0.9-0.5c0.9-1.7,1.8-3.6,2.5-5.4
	l0.9,0.4C239.1,294.1,238.2,295.9,237.2,297.7z M108.3,289.5c-0.7-1.9-1.4-3.8-1.9-5.8l0.9-0.3c0.6,1.9,1.1,3.8,1.9,5.7L108.3,289.5
	z M241.9,286.6l-0.9-0.3c0.6-1.9,1.1-3.8,1.6-5.8l1,0.2C243.1,282.7,242.6,284.7,241.9,286.6z M105.1,277.9c-0.4-2-0.7-4-0.9-6
	l1-0.1c0.2,2,0.5,3.9,0.9,5.9L105.1,277.9z M244.7,274.8l-1-0.1c0.3-1.9,0.5-3.9,0.6-5.9l1,0C245.2,270.8,245,272.9,244.7,274.8z
	 M103.8,265.8c0-0.5,0-1,0-1.6c0-1.5,0-3,0.1-4.5l1,0c-0.1,1.5-0.1,3-0.1,4.4c0,0.5,0,1,0,1.5L103.8,265.8z M244.5,262.8
	c0-2-0.2-4-0.4-6l1-0.1c0.2,2,0.3,4,0.4,6.1H244.5z M105.5,253.9l-1-0.1c0.3-2,0.7-4,1.1-5.9l1,0.2
	C106.2,250,105.8,251.9,105.5,253.9z M243.3,250.9c-0.4-1.9-0.8-3.9-1.4-5.8l0.9-0.3c0.6,1.9,1,3.9,1.4,5.9L243.3,250.9z
	 M108.2,242.3l-0.9-0.3c0.6-1.9,1.4-3.8,2.1-5.7l0.9,0.4C109.5,238.5,108.8,240.4,108.2,242.3z M240,239.4c-0.7-1.9-1.5-3.7-2.3-5.5
	l0.9-0.4c0.8,1.8,1.7,3.7,2.4,5.6L240,239.4z M112.8,231.3l-0.9-0.5c0.9-1.8,1.9-3.5,3.1-5.2l0.8,0.6
	C114.8,227.9,113.8,229.6,112.8,231.3z M234.9,228.7c-1-1.7-2.1-3.4-3.2-5l0.8-0.6c1.1,1.7,2.2,3.3,3.3,5.1L234.9,228.7z
	 M119.3,221.3l-0.8-0.6c1.2-1.6,2.5-3.1,3.9-4.6l0.7,0.7C121.8,218.2,120.5,219.8,119.3,221.3z M228,219c-1.3-1.5-2.6-3-4-4.4l0,0
	l0.7-0.7l0.1,0.1c1.4,1.4,2.8,2.9,4.1,4.4L228,219z M127.3,212.5l-0.7-0.7c1.5-1.4,3-2.7,4.6-3.9l0.6,0.8
	C130.3,209.9,128.7,211.2,127.3,212.5z M219.6,210.5c-1.5-1.3-3.1-2.5-4.7-3.6l0.6-0.8c1.6,1.1,3.2,2.4,4.7,3.7L219.6,210.5z
	 M136.7,205.2l-0.6-0.8c1.7-1.1,3.4-2.1,5.2-3.1l0.5,0.9C140,203.1,138.3,204.1,136.7,205.2z M210,203.6c-1.7-1-3.5-1.9-5.3-2.8
	l0.4-0.9c1.8,0.8,3.6,1.8,5.3,2.8L210,203.6z M147.1,199.6l-0.4-0.9c1.8-0.8,3.7-1.5,5.6-2.1l0.3,0.9
	C150.8,198.1,148.9,198.8,147.1,199.6z M199.2,198.5c-1.9-0.7-3.7-1.3-5.6-1.9l0.3-1c1.9,0.6,3.9,1.2,5.7,1.9L199.2,198.5z
	 M158.4,195.9l-0.2-1c1.9-0.5,3.9-0.8,5.9-1.1l0.1,1C162.2,195.1,160.3,195.4,158.4,195.9L158.4,195.9z M187.8,195.2
	c-1.9-0.4-3.9-0.7-5.8-0.9l0.1-1c2,0.2,4,0.5,5.9,0.9L187.8,195.2z M170.1,194.1l0-1c2-0.1,4-0.2,6-0.1v1
	C174.1,194,172.1,194,170.1,194.1L170.1,194.1z"/>
<path class="st6" d="M272.7,335.6c-2,0-4-0.2-6-0.4l0.1-1c1.9,0.2,3.9,0.3,5.9,0.4V335.6z M278.7,335.4l0-1c1.9-0.1,3.9-0.3,5.9-0.6
	l0.1,1C282.7,335,280.7,335.3,278.7,335.4L278.7,335.4z M260.7,334.3c-1.9-0.4-3.9-0.8-5.8-1.4l0.3-1c1.9,0.6,3.9,1,5.8,1.4
	L260.7,334.3z M290.6,333.6l-0.2-1c1.9-0.5,3.9-1,5.7-1.6l0.3,0.9C294.5,332.6,292.5,333.1,290.6,333.6L290.6,333.6z M249.1,331
	c-1.9-0.7-3.7-1.5-5.6-2.4l0.4-0.9c1.8,0.8,3.6,1.7,5.5,2.3L249.1,331z M302,329.8l-0.4-0.9c1.8-0.8,3.6-1.7,5.3-2.6l0.5,0.9
	C305.7,328.2,303.8,329.1,302,329.8L302,329.8z M238.3,325.8c-1.7-1-3.4-2.1-5-3.3l0.6-0.8c1.6,1.1,3.3,2.2,5,3.2L238.3,325.8z
	 M312.6,324.2l-0.6-0.8c1.7-1.1,3.3-2.2,4.8-3.4l0.6,0.8C315.9,321.9,314.3,323.1,312.6,324.2z M228.5,318.8c-1.5-1.3-3-2.7-4.4-4.1
	l0.7-0.7c1.4,1.4,2.9,2.8,4.4,4L228.5,318.8z M322.1,316.7l-0.7-0.7c0.7-0.7,1.4-1.4,2.1-2c0.7-0.7,1.4-1.4,2.1-2.2l0.7,0.7
	c-0.7,0.8-1.4,1.5-2.1,2.2C323.5,315.4,322.8,316.1,322.1,316.7L322.1,316.7z M220,310.3c-1.3-1.5-2.5-3.1-3.7-4.8l0.8-0.6
	c1.1,1.6,2.4,3.2,3.6,4.7L220,310.3z M330.2,307.8l-0.8-0.6c1.2-1.6,2.4-3.2,3.4-4.9l0.8,0.6C332.6,304.6,331.5,306.3,330.2,307.8
	L330.2,307.8z M213,300.4c-1-1.7-1.9-3.5-2.8-5.3l0.9-0.4c0.8,1.8,1.8,3.6,2.8,5.3L213,300.4z M336.8,297.7l-0.9-0.5
	c0.9-1.7,1.8-3.6,2.5-5.4l0.9,0.4C338.6,294.1,337.7,295.9,336.8,297.7z M207.8,289.5c-0.7-1.9-1.4-3.8-1.9-5.8l0.9-0.3
	c0.6,1.9,1.1,3.8,1.9,5.7L207.8,289.5z M341.5,286.6l-0.9-0.3c0.6-1.9,1.1-3.8,1.6-5.8l1,0.2C342.6,282.7,342.1,284.7,341.5,286.6
	L341.5,286.6z M204.6,277.9c-0.4-1.9-0.7-4-0.9-6l1-0.1c0.2,2,0.5,3.9,0.9,5.9L204.6,277.9z M344.3,274.8l-1-0.1
	c0.3-1.9,0.5-3.9,0.6-5.9l1,0C344.8,270.8,344.6,272.9,344.3,274.8z M203.3,265.8c0-0.5,0-1,0-1.6c0-1.5,0-3,0.1-4.5l1,0
	c-0.1,1.5-0.1,3-0.1,4.4c0,0.5,0,1,0,1.5L203.3,265.8z M344,262.8c0-2-0.2-4-0.4-6l1-0.1c0.2,2,0.3,4,0.4,6.1H344z M205,253.9
	l-1-0.1c0.3-2,0.7-4,1.1-5.9l1,0.2C205.7,250,205.3,251.9,205,253.9z M342.8,250.9c-0.4-1.9-0.8-3.9-1.4-5.8l0.9-0.3
	c0.6,1.9,1,3.9,1.4,5.9L342.8,250.9z M207.7,242.3l-0.9-0.3c0.6-1.9,1.4-3.8,2.1-5.7l0.9,0.4C209.1,238.5,208.3,240.4,207.7,242.3z
	 M339.6,239.4c-0.7-1.9-1.5-3.7-2.3-5.5l0.9-0.4c0.8,1.8,1.7,3.7,2.4,5.6L339.6,239.4z M212.4,231.3l-0.9-0.5
	c0.9-1.8,1.9-3.5,3.1-5.2l0.8,0.6C214.3,227.9,213.3,229.6,212.4,231.3z M334.4,228.7c-1-1.7-2.1-3.4-3.2-5l0.8-0.6
	c1.1,1.7,2.2,3.3,3.3,5.1L334.4,228.7z M218.8,221.3l-0.8-0.6c1.2-1.6,2.5-3.1,3.9-4.6l0.7,0.7C221.3,218.2,220,219.8,218.8,221.3
	L218.8,221.3z M327.6,219c-1.3-1.5-2.6-3-4-4.4l0,0l0.7-0.7l0,0c1.4,1.4,2.8,2.9,4.1,4.4L327.6,219z M226.8,212.5l-0.7-0.7
	c1.5-1.4,3-2.7,4.6-3.9l0.6,0.8C229.8,209.9,228.3,211.2,226.8,212.5z M319.1,210.5c-1.5-1.3-3.1-2.5-4.7-3.6l0.6-0.8
	c1.6,1.1,3.2,2.4,4.7,3.7L319.1,210.5z M236.2,205.2l-0.6-0.8c1.7-1.1,3.4-2.1,5.2-3.1l0.5,0.9C239.6,203.1,237.9,204.1,236.2,205.2
	z M309.5,203.6c-1.7-1-3.5-1.9-5.3-2.8l0.4-0.9c1.8,0.8,3.6,1.8,5.3,2.8L309.5,203.6z M246.6,199.6l-0.4-0.9
	c1.8-0.8,3.7-1.5,5.6-2.1l0.3,0.9C250.3,198.1,248.5,198.8,246.6,199.6z M298.8,198.5c-1.8-0.7-3.7-1.3-5.6-1.9l0.3-1
	c1.9,0.6,3.9,1.2,5.7,1.9L298.8,198.5z M257.9,195.9l-0.2-1c1.9-0.5,3.9-0.8,5.9-1.1l0.1,1C261.8,195.1,259.9,195.4,257.9,195.9z
	 M287.4,195.2c-1.9-0.4-3.9-0.7-5.8-0.9l0.1-1c2,0.2,4,0.5,5.9,0.9L287.4,195.2z M269.6,194.1l-0.1-1c2-0.1,4-0.2,6-0.1v1
	C273.6,194,271.6,194,269.6,194.1L269.6,194.1z"/>
<line class="st7" x1="157.8" y1="270.1" x2="157.9" y2="269.5"/>
<path class="st8" d="M154.6,229.7"/>
<path class="st8" d="M169.7,208"/>
<path class="st8" d="M159.2,271.3"/>
<path class="st9" d="M193.3,187.2"/>
<path class="st10" d="M184.5,190.9l-2.1-3c-2.5-3.6-7.5-4.4-11-1.7l-56.2,42.2l-40.7-57.5c-2.5-3.6-7.5-4.4-11-1.7l-2.9,2.2
	c-3.5,2.6-4.3,7.7-1.8,11.3l0,0l40.7,57.5l-56.2,42.3c-3.5,2.6-4.3,7.7-1.8,11.3l2.1,3c2.5,3.6,7.5,4.4,11,1.7l56.2-42.2l40.7,57.5
	c2.5,3.6,7.5,4.4,11,1.7l2.9-2.2c3.5-2.6,4.3-7.7,1.8-11.3l-40.7-57.5l56.2-42.2C186.3,199.5,187.1,194.5,184.5,190.9z"/>
<path class="st11" d="M41.4,284.9l54.5-41l-0.4-0.6l-52,39.1C42.6,283.1,41.9,283.9,41.4,284.9z"/>
<path class="st11" d="M59.8,172.9c3.5-2.6,8.4-1.9,11,1.7l0,0l40.7,57.5l56.2-42.2c3.5-2.6,8.4-1.9,11,1.7l0,0l2.1,3
	c1.8,2.6,2,6.1,0.4,8.9l1.7-1.3c3.5-2.6,4.3-7.7,1.8-11.3l0,0l-2.1-3c-2.5-3.6-7.5-4.4-11-1.7l-56.2,42.2l-40.7-57.5
	c-2.5-3.6-7.5-4.4-11-1.7l-2.9,2.2c-0.9,0.6-1.6,1.5-2.2,2.5L59.8,172.9z"/>
<path class="st11" d="M127,244.9l-4.2,3.2l40.7,57.5c1.8,2.6,2,6.1,0.4,8.9l1.7-1.3c3.5-2.6,4.3-7.7,1.8-11.3l0,0L127,244.9z"/>
</svg>
