<?xml version="1.0" encoding="utf-8"?>
<!-- Generator: Adobe Illustrator 22.0.1, SVG Export Plug-In . SVG Version: 6.00 Build 0)  -->
<svg version="1.1" id="Layer_1" xmlns="http://www.w3.org/2000/svg" xmlns:xlink="http://www.w3.org/1999/xlink" x="0px" y="0px"
	 viewBox="0 0 400 450" style="enable-background:new 0 0 400 450;" xml:space="preserve">
<style type="text/css">
	.st0{fill:#F3F3F3;}
	.st1{opacity:0.45;}
	.st2{fill:#B9BAC6;}
	.st3{fill:#FFFFFF;}
	.st4{fill:#71C8EC;}
	.st5{fill:#F2F2F2;}
	.st6{fill:#E6E6E6;}
	.st7{fill:#63B7FF;}
	.st8{fill:none;}
	.st9{fill:#3F3D56;}
	.st10{fill:#FF6584;}
	.st11{opacity:0.1;enable-background:new    ;}
</style>
<rect x="287.8" y="152.6" class="st0" width="92.5" height="1.3"/>
<rect x="312.9" y="141.1" class="st0" width="1.3" height="11.9"/>
<rect x="353.2" y="141.1" class="st0" width="1.3" height="11.9"/>
<g class="st1">
	<path class="st2" d="M195.1,111.9l8.7-25.9c6.2-18.5-0.5-38.9-16.4-50.2h0.1c-3.4-2.4-7.2-4.3-11.2-5.7l0,0h-0.1h-0.1l0,0
		c-3.9-1.3-7.9-2.1-12-2.3c-1.4-0.1-2.9-0.1-4.3,0c-2.5,0.1-5,0.5-7.4,1c-0.7,0.2-1.4,0.3-2.1,0.5c-0.6,0.2-1.4,0.4-2,0.6
		c-1.3,0.4-2.7,0.9-4,1.5c-0.7,0.3-1.3,0.6-1.9,0.9c-1.9,0.9-3.7,2-5.5,3.2c-0.6,0.4-1.2,0.8-1.7,1.2c-7,5.3-12.3,12.6-15.1,21
		l-13.7,40.9c-2.2,6.4-2.8,13.2-1.9,19.9c0.1,1,0.3,2,0.5,3.1c0.2,1,0.5,2,0.7,3c0.2,0.7,0.4,1.3,0.6,2c0.3,1,0.7,1.9,1.1,2.9
		c0.3,0.6,0.5,1.3,0.8,1.9c0.6,1.2,1.2,2.5,1.9,3.6c0.7,1.2,1.4,2.3,2.2,3.5c0.6,0.8,1.2,1.7,1.9,2.5c0.9,1.1,1.8,2.1,2.8,3.1
		c4.2,4.3,9.3,7.6,14.9,9.8l0,0l0,0l0.2,0.1c0.3-0.5,0.6-1,1-1.5c2.1-2.9,5.8-5,9.3-4.2c0.3,0.1,0.5,0.1,0.8,0.2
		c1.8,0.6,3.5,1.8,5.3,2.3c1.3,0.6,2.7,0.6,4,0c3.4-1.8,2.2-7.6,5.1-10.2c0.1-0.1,0.3-0.2,0.4-0.3c0-0.1-0.1-0.1-0.1-0.2
		c2.3-1.4,5.4-0.5,8.1,0.4c2.8,1,6.5,1.7,8.5-0.6c1.3-1.6,1.2-4,2.5-5.7c1.5-1.9,4.3-2.1,6.7-1.8h0.1c4.6,1.9,9.6-1.3,9.3-6.2
		C192.6,119.5,194.6,113.3,195.1,111.9z"/>
</g>
<path class="st3" d="M133.9,149c2.1-2.8,5.6-4.8,9-4s6.6,4,9.7,2.4c4.1-2.2,1.2-10.3,7.9-10.9c1.4-0.1,2.8,0.2,4.1,0.7
	c2.8,1.2,7.3,2.5,9.5-0.1c1.3-1.5,1.2-3.9,2.4-5.5c1.4-1.8,4.1-2.1,6.4-1.7h0.1c4.4,1.8,9.3-1.2,9-6c-0.4-6.4,1.6-12.4,2-13.7
	l8.4-25c7.5-22.3-4.5-46.5-26.8-54.1l0,0c-22.3-7.4-46.5,4.5-54.1,26.8l-13.3,39.4c-7.2,21.5,3.7,44.8,24.7,53.3
	C133.2,150,133.5,149.5,133.9,149z"/>
<g id="Layer_5_1_">
	<path class="st4" d="M186.6,99.9c0,0-12.9-9.6-26.7-14s-24-6.1-34.6-4.6c0,0,14.6-19.1,36.1-9.9S186.6,99.9,186.6,99.9z"/>
	<ellipse transform="matrix(0.3955 -0.9185 0.9185 0.3955 35.6284 173.7214)" class="st4" cx="149.8" cy="59.8" rx="4.1" ry="4.8"/>
	<ellipse transform="matrix(1 -9.102267e-03 9.102267e-03 1 -0.6144 1.6058)" class="st4" cx="176.1" cy="68.3" rx="4.8" ry="4.1"/>
</g>
<path class="st5" d="M193.3,187.2"/>
<polygon class="st6" points="67.3,266.6 219.3,266.6 219.3,316.5 213.5,316.5 213.5,329.5 200.5,316.5 67.3,316.5 "/>
<rect x="71.5" y="271.5" class="st3" width="143.5" height="39.9"/>
<rect x="83.1" y="283.1" class="st7" width="69.1" height="2.1"/>
<rect x="83.1" y="290.4" class="st6" width="120.4" height="2.1"/>
<rect x="83.1" y="297.6" class="st6" width="120.3" height="2.1"/>
<polygon class="st6" points="192.4,333.4 40.5,333.4 40.5,383.3 46.2,383.3 46.2,396.3 59.2,383.3 192.4,383.3 "/>
<rect x="44.7" y="338.2" class="st3" width="143.5" height="39.9"/>
<rect x="57.4" y="350.3" class="st7" width="69.1" height="2.1"/>
<rect x="57.4" y="357.5" class="st6" width="120.4" height="2.1"/>
<rect x="57.4" y="364.8" class="st6" width="120.3" height="2.1"/>
<polygon class="st6" points="192.4,199.8 40.5,199.8 40.5,249.7 46.2,249.7 46.2,262.7 59.2,249.7 192.4,249.7 "/>
<rect x="44.7" y="204.7" class="st3" width="143.5" height="39.9"/>
<rect x="57.4" y="216.7" class="st7" width="69.1" height="2.1"/>
<rect x="42" y="197.1" class="st6" width="120.4" height="2.1"/>
<rect x="57.4" y="231.2" class="st6" width="120.3" height="2.1"/>
<line class="st8" x1="341.7" y1="296.3" x2="341.6" y2="295.9"/>
<path class="st9" d="M329.4,265.5"/>
<path class="st9" d="M336.6,245"/>
<path class="st9" d="M343,296.9"/>
<path class="st10" d="M344.8,228l-2.4-1.8c-2.9-2.2-7.2-1.7-9.4,1.3l-36,46.3l-47-35.2c-2.9-2.2-7.2-1.7-9.4,1.3l-1.8,2.4
	c-2.2,2.9-1.7,7,1.3,9.2l0,0l46.9,35.3l-36,46.3c-2.2,2.9-1.7,7,1.3,9.2l2.4,1.8c2.9,2.2,7.2,1.7,9.4-1.3l36-46.3l47,35.2
	c2.9,2.2,7.2,1.7,9.4-1.3l1.8-2.4c2.2-2.9,1.7-7-1.3-9.2l-47-35.2l36-46.3C348.3,234.4,347.7,230.3,344.8,228z"/>
<path class="st11" d="M249.6,335.5l35-45l-0.4-0.3l-33.3,42.9C250.2,333.8,249.8,334.7,249.6,335.5z"/>
<path class="st11" d="M238.2,243.7c2.2-2.9,6.5-3.5,9.4-1.3l0,0l47,35.2l36-46.3c2.2-2.9,6.5-3.5,9.4-1.3l0,0l2.4,1.8
	c2.1,1.6,3.1,4.3,2.4,6.8l1.1-1.4c2.2-2.9,1.7-7-1.3-9.2l0,0l-2.4-1.8c-2.9-2.2-7.2-1.7-9.4,1.3l-36,46.3l-46.9-35.3
	c-2.9-2.2-7.2-1.7-9.4,1.3l-1.8,2.4c-0.6,0.7-0.9,1.5-1.2,2.4L238.2,243.7z"/>
<path class="st11" d="M310.4,284l-2.7,3.5l47,35.2c2.1,1.6,3.1,4.3,2.4,6.8l1.1-1.4c2.2-2.9,1.7-7-1.3-9.2l0,0L310.4,284z"/>
</svg>
