<?xml version="1.0" encoding="utf-8"?>
<!-- Generator: Adobe Illustrator 22.0.1, SVG Export Plug-In . SVG Version: 6.00 Build 0)  -->
<svg version="1.1" id="ffe6bee8-e793-4e33-a4ab-3e285c6a5a44"
	 xmlns="http://www.w3.org/2000/svg" xmlns:xlink="http://www.w3.org/1999/xlink" x="0px" y="0px" viewBox="0 0 999 834"
	 style="enable-background:new 0 0 999 834;" xml:space="preserve">
<style type="text/css">
	.st0{fill:none;stroke:#535461;stroke-width:2;stroke-miterlimit:10;}
	.st1{fill:#0D8CD8;}
	.st2{opacity:0.25;enable-background:new    ;}
	.st3{opacity:0.1;fill:#0D8CD8;enable-background:new    ;}
	.st4{fill:#B77B7F;}
	.st5{fill:#DDA2A6;}
	.st6{opacity:0.1;enable-background:new    ;}
	.st7{fill:#0071B7;}
	.st8{fill:#FFD037;}
	.st9{fill:#65617D;}
	.st10{fill:#9D9CB5;}
	.st11{fill:#3F3D56;}
	.st12{fill:#FFB9B9;}
	.st13{fill:#575A89;}
	.st14{fill:#2F2E41;}
</style>
<title>blank canvas</title>
<path class="st0" d="M684.9,668.9c0,0,25.1-44.4,62.8-57.2c15.9-5.3,29.6-15.5,39.1-29.3c4.5-6.6,8.3-13.5,11.5-20.8"/>
<path class="st1" d="M822.1,553.5c-4.3,4.2-24.3,8.5-24.3,8.5s4.9-19.9,9.2-24.1c4.3-4.2,11.2-4.1,15.3,0.2
	C826.5,542.4,826.4,549.3,822.1,553.5L822.1,553.5z"/>
<path class="st1" d="M810.8,589.5c-5.9,1.2-25-6.1-25-6.1s14.9-14,20.8-15.2c5.9-1.2,11.6,2.7,12.8,8.5
	C820.5,582.6,816.7,588.3,810.8,589.5L810.8,589.5L810.8,589.5z"/>
<path class="st1" d="M769.6,628.4c-5.7-2-18.5-17.9-18.5-17.9s20-4.6,25.6-2.6c5.7,1.8,8.8,7.9,7,13.7c-1.8,5.7-7.9,8.8-13.7,7
	C769.9,628.5,769.7,628.5,769.6,628.4L769.6,628.4z"/>
<path class="st1" d="M731.7,650.8c-5.9-1-21.3-14.5-21.3-14.5s18.9-7.9,24.8-6.9c5.9,0.9,10,6.5,9.1,12.4c-0.9,5.9-6.5,10-12.4,9.1
	C731.8,650.9,731.8,650.9,731.7,650.8L731.7,650.8z"/>
<path class="st1" d="M769.1,567.8c0,6,10.8,23.4,10.8,23.4s10.9-17.4,10.9-23.4c0-6-4.9-10.8-10.9-10.8
	C773.9,557,769.1,561.9,769.1,567.8L769.1,567.8z"/>
<path class="st1" d="M725.1,594.6c1.8,5.7,17.3,19.1,17.3,19.1s5.2-19.8,3.4-25.5c-1.8-5.7-7.9-8.9-13.6-7.1
	C726.5,582.8,723.3,588.9,725.1,594.6L725.1,594.6z"/>
<path class="st1" d="M686,626.5c0.8,5.9,13.9,21.7,13.9,21.7s8.4-18.7,7.6-24.6c-0.8-5.9-6.3-10.1-12.2-9.3S685.2,620.6,686,626.5z"
	/>
<path class="st2" d="M822.1,553.5c-4.3,4.2-24.3,8.5-24.3,8.5s4.9-19.9,9.2-24.1c4.3-4.2,11.2-4.1,15.3,0.2
	C826.5,542.4,826.4,549.3,822.1,553.5L822.1,553.5z"/>
<path class="st2" d="M810.8,589.5c-5.9,1.2-25-6.1-25-6.1s14.9-14,20.8-15.2c5.9-1.2,11.6,2.7,12.8,8.5
	C820.5,582.6,816.7,588.3,810.8,589.5L810.8,589.5L810.8,589.5z"/>
<path class="st2" d="M769.6,628.4c-5.7-2-18.5-17.9-18.5-17.9s20-4.6,25.6-2.6c5.7,1.8,8.8,7.9,7,13.7c-1.8,5.7-7.9,8.8-13.7,7
	C769.9,628.5,769.7,628.5,769.6,628.4L769.6,628.4z"/>
<path class="st2" d="M731.7,650.8c-5.9-1-21.3-14.5-21.3-14.5s18.9-7.9,24.8-6.9c5.9,0.9,10,6.5,9.1,12.4c-0.9,5.9-6.5,10-12.4,9.1
	C731.8,650.9,731.8,650.9,731.7,650.8L731.7,650.8z"/>
<path class="st2" d="M769.1,567.8c0,6,10.8,23.4,10.8,23.4s10.9-17.4,10.9-23.4c0-6-4.9-10.8-10.9-10.8
	C773.9,557,769.1,561.9,769.1,567.8L769.1,567.8z"/>
<path class="st2" d="M725.1,594.6c1.8,5.7,17.3,19.1,17.3,19.1s5.2-19.8,3.4-25.5c-1.8-5.7-7.9-8.9-13.6-7.1
	C726.5,582.8,723.3,588.9,725.1,594.6L725.1,594.6z"/>
<path class="st2" d="M686,626.5c0.8,5.9,13.9,21.7,13.9,21.7s8.4-18.7,7.6-24.6c-0.8-5.9-6.3-10.1-12.2-9.3S685.2,620.6,686,626.5z"
	/>
<path class="st0" d="M686.4,668c0,0,4.9-50.7,34.2-77.7c12.4-11.2,20.8-26.2,23.9-42.6c1.4-7.8,2.2-15.7,2.1-23.7"/>
<path class="st1" d="M765,506.9c-2.2,5.6-18.8,17.6-18.8,17.6s-3.6-20.2-1.3-25.7c2.1-5.6,8.3-8.5,14-6.4c5.6,2.1,8.5,8.3,6.4,14
	C765.2,506.6,765.1,506.7,765,506.9z"/>
<path class="st1" d="M769.3,544.4c-4.9,3.5-25.4,4.6-25.4,4.6s8-18.9,12.9-22.3c4.9-3.4,11.7-2.3,15.1,2.6S774.2,541,769.3,544.4z"
	/>
<path class="st1" d="M747.3,596.7c-6,0.5-24.2-8.9-24.2-8.9s16.4-12.3,22.3-12.8c6-0.5,11.2,3.9,11.7,9.9
	C757.7,591,753.3,596.2,747.3,596.7L747.3,596.7z"/>
<path class="st1" d="M721.8,632.6c-5.8,1.5-25.3-4.6-25.3-4.6s14.1-14.9,19.9-16.4c5.8-1.6,11.8,1.7,13.4,7.5
	c1.6,5.8-1.7,11.8-7.5,13.4C722.1,632.5,722,632.5,721.8,632.6L721.8,632.6z"/>
<path class="st1" d="M722.3,541.5c2.4,5.5,19.4,17,19.4,17s2.9-20.3,0.5-25.8c-2.5-5.4-9-7.8-14.4-5.3
	C722.5,530,720.1,536.2,722.3,541.5L722.3,541.5z"/>
<path class="st1" d="M693,583.8c4,4.5,23.6,10.4,23.6,10.4s-3.3-20.2-7.3-24.7c-3.9-4.6-10.7-5.1-15.3-1.3
	c-4.6,3.9-5.1,10.7-1.3,15.3C692.9,583.7,693,583.7,693,583.8L693,583.8z"/>
<path class="st1" d="M670.2,628.9c3.1,5.1,21.5,14.2,21.5,14.2s0.2-20.5-3-25.6c-3.1-5.1-9.8-6.7-14.9-3.6S667.1,623.8,670.2,628.9
	L670.2,628.9L670.2,628.9z"/>
<ellipse class="st3" cx="608.2" cy="661.1" rx="118.9" ry="19.9"/>
<polygon class="st4" points="616,398 615.9,401.9 609.2,640.4 597.8,640.4 603.4,401.9 603.5,397.4 "/>
<polygon class="st5" points="681.8,600.1 673.3,600.1 546.9,599.8 540.1,599.8 543.7,588.7 680.9,588.7 "/>
<polygon class="st6" points="616,398 615.9,401.9 603.4,401.9 603.5,397.4 "/>
<rect x="599.8" y="392.2" class="st4" width="21.1" height="7.9"/>
<polygon class="st6" points="548,588.7 546.9,599.8 540.1,599.8 543.7,588.7 "/>
<polygon class="st5" points="566.1,392 565.8,395.5 537.7,672.1 524.9,671.5 554.5,395.5 554.8,392.4 "/>
<polygon class="st6" points="681.8,600.1 673.3,600.1 672.2,588.7 680.9,588.7 "/>
<polygon class="st5" points="695.3,671.5 682.4,672.1 654.4,395.5 654,392 665.4,392.4 665.7,395.5 "/>
<rect x="466.6" y="119.3" class="st7" width="283.4" height="271.7"/>
<path class="st5" d="M613.8,28.4V94h-11V28.4c-0.1-3.1,2.2-5.6,5.3-5.8c3.1-0.1,5.6,2.2,5.8,5.3C613.8,28.1,613.8,28.3,613.8,28.4z"
	/>
<rect x="602.8" y="88.1" class="st6" width="11.1" height="6"/>
<path class="st5" d="M618.1,92.6v21.7h-19.7V92.6c0-1.5,1.2-2.7,2.7-2.7c0,0,0,0,0,0h14.3C617,89.9,618.2,91.1,618.1,92.6z"/>
<circle class="st6" cx="608.3" cy="103.6" r="4.2"/>
<circle class="st4" cx="608.3" cy="102.7" r="4.2"/>
<rect x="598.4" y="111.5" class="st6" width="19.7" height="2.7"/>
<rect x="590.3" y="115.1" class="st6" width="35.9" height="6"/>
<rect x="590.3" y="113.3" class="st5" width="35.9" height="6"/>
<path class="st6" d="M535.7,384h150.7c3.6,0,6.5,2.9,6.5,6.5v1.4l0,0H529.2l0,0v-1.4C529.2,386.9,532.1,384,535.7,384z"/>
<polygon class="st6" points="554.8,392.4 566.1,392 565.8,395.5 554.5,395.5 "/>
<rect x="599.8" y="392.2" class="st6" width="21.1" height="3.3"/>
<polygon class="st6" points="665.7,395.5 654.4,395.5 654,392 665.4,392.4 "/>
<path class="st5" d="M535.7,385.8h150.7c3.6,0,6.5,2.9,6.5,6.5v1.4l0,0H529.2l0,0v-1.4C529.2,388.7,532.1,385.8,535.7,385.8z"/>
<ellipse class="st3" cx="90.8" cy="763.1" rx="44.2" ry="8.6"/>
<ellipse class="st3" cx="827.3" cy="706.2" rx="32.2" ry="6.3"/>
<ellipse class="st3" cx="966.8" cy="731.6" rx="32.2" ry="6.3"/>
<ellipse class="st3" cx="750.8" cy="784.1" rx="32.2" ry="6.3"/>
<path class="st1" d="M132.6,523.3c0,0,7.2,9.5-3.3,23.8c-10.6,14.3-19.3,26.3-15.8,35.2c0,0,15.9-26.5,28.9-26.9
	C155.4,555,146.9,539.3,132.6,523.3z"/>
<path class="st6" d="M132.6,523.3c0.6,0.9,1.1,1.9,1.5,3c12.7,14.9,19.4,28.8,7.2,29.1c-11.3,0.3-25,20.6-28.2,25.7
	c0.1,0.4,0.2,0.8,0.4,1.2c0,0,16-26.5,28.9-26.9C155.4,555.1,146.9,539.3,132.6,523.3z"/>
<path class="st8" d="M146,535.4c0,3.3-0.4,6-0.8,6c-0.5,0-0.8-2.7-0.8-6s0.5-1.8,0.9-1.8S146,532,146,535.4z"/>
<path class="st8" d="M150.6,539.3c-2.9,1.6-5.5,2.6-5.7,2.2s2-2,4.9-3.6c2.9-1.6,1.8-0.4,2,0C152.1,538.3,153.6,537.7,150.6,539.3z"
	/>
<path class="st1" d="M94.4,523.3c0,0-7.2,9.5,3.3,23.8s19.3,26.3,15.8,35.2c0,0-16-26.5-29-26.9S80.1,539.3,94.4,523.3z"/>
<path class="st6" d="M94.4,523.3c-0.6,0.9-1.1,1.9-1.5,3c-12.7,14.9-19.4,28.8-7.2,29.1c11.3,0.3,25,20.6,28.2,25.7
	c-0.1,0.4-0.2,0.8-0.4,1.2c0,0-16-26.5-29-26.9S80.1,539.3,94.4,523.3z"/>
<path class="st8" d="M80.9,535.4c0,3.3,0.4,6,0.8,6s0.8-2.7,0.8-6s-0.5-1.8-0.9-1.8S80.9,532,80.9,535.4z"/>
<path class="st8" d="M76.3,539.3c2.9,1.6,5.5,2.6,5.7,2.2s-2-2-4.9-3.6s-1.8-0.4-2,0S73.4,537.7,76.3,539.3z"/>
<ellipse class="st3" cx="113.5" cy="643.1" rx="75.7" ry="11.6"/>
<path class="st9" d="M152.4,569.5l-0.4,3l-0.5,4.2l-0.2,1.7l-0.5,4.2l-0.2,1.7l-0.5,4.2l-5.8,47.4c-0.5,4.2-7.4,7.5-15.8,7.5h-30
	c-8.4,0-15.3-3.3-15.8-7.5l-5.8-47.5l-0.5-4.2l-0.2-1.7l-0.5-4.2l-0.2-1.7l-0.5-4.2l-0.4-3c-0.3-2.4,3.4-4.4,8.2-4.4h61.5
	C149,565.1,152.7,567.1,152.4,569.5z"/>
<polygon class="st10" points="152,572.5 151.5,576.7 75.4,576.7 74.9,572.5 "/>
<polygon class="st10" points="151.3,578.4 150.8,582.6 76.1,582.6 75.6,578.4 "/>
<polygon class="st10" points="150.6,584.3 150.1,588.5 76.8,588.5 76.3,584.3 "/>
<circle class="st3" cx="180" cy="124.5" r="31.5"/>
<ellipse transform="matrix(0.1091 -0.994 0.994 0.1091 52.3275 157.4259)" class="st3" cx="114" cy="49.5" rx="19.5" ry="19.5"/>
<circle class="st3" cx="12" cy="93" r="12"/>
<ellipse transform="matrix(0.7715 -0.6362 0.6362 0.7715 -9.6724 364.2876)" class="st11" cx="502.4" cy="195.6" rx="31.8" ry="6.8"/>
<path class="st12" d="M465.9,240.4c0,0,3.1-54.1,19.3-41.8s-7.1,46.8-7.1,46.8L465.9,240.4z"/>
<path class="st12" d="M405.5,400.8c0,0,36,40.5,15.9,43.2s-28.1-38.1-28.1-38.1L405.5,400.8z"/>
<path class="st13" d="M358.5,209.3L358.5,209.3c9.2,2.4,16.1,10.2,17.5,19.7l11.5,81.6l16.1,65.1c0,0,8,7.2,4.8,11.2
	c-3.2,4,4,20.9,4,20.9l-20.1,6.4c0,0-2.4-16.9-6.4-17.7c-3.5-0.7-43.1-106.3-52.6-131.9c-1.3-3.5-2.1-5.5-2.1-5.5
	S332.8,205.3,358.5,209.3z"/>
<path class="st12" d="M362.2,634.8l12.3,21.9c9.6,20.4,1.1,24.1-22.4,14l-5.3-25.8L362.2,634.8z"/>
<path class="st14" d="M368.4,663.9c0,0,5.9-9.5,8-7.9c2.1,1.6,10.9,8.5,10.9,8.5l11.4,10.9c0,0,38.5,4.1,14,17.5
	c-24.4,13.5-37.9,2.3-37.9,2.3s-34.2,1.8-33.7-7.8s11.6-24.7,11.6-24.7S366.5,672.1,368.4,663.9z"/>
<path class="st14" d="M307.4,387.7l11.6,140c0,0,0.4,83.7,12.7,99.9c12.3,16.2,12.7,24.3,12.7,24.3l25.4-13.1
	c0,0-13.1-21.8-10.4-25.2c1.7-2.1,2.8-4.6,3.5-7.2l-6.9-86.4l13.1-150.4L307.4,387.7z"/>
<polygon class="st12" points="339,634.8 328.2,663.3 303.8,653.1 316.7,631.7 "/>
<path class="st14" d="M321,653.7c0,0,9.2-5.7,10.3-3.4s5.7,12.1,5.7,12.1l5.2,14.3c0,0,31.6,20.1,4.6,21.2S313,683.6,313,683.6
	s-30.4-13.2-25.8-21.2c4.6-8,20.7-16.4,20.7-16.4S315.9,660,321,653.7z"/>
<path class="st14" d="M405.4,388l6.2,128.8c0,0-56.3,116.4-62.5,119.5c-3.7,1.9-6.5,5.3-7.7,9.3l-33.9-8.5l15.4-24.7l33.9-82.5
	c0,0,5.4-2.3,6.9-10s4.6-7.7-3.1-9.3c-7.7-1.5-7.7-9.3-7.7-9.3l-25.4-117.2L405.4,388z"/>
<circle class="st12" cx="377.6" cy="155.2" r="30.8"/>
<path class="st12" d="M350.2,157.1c0,0-2.3,39.3-5.4,43.2c-3.1,3.9,32.4,3.1,32.4,3.1s-2.3-33.2,0-36.2S350.2,157.1,350.2,157.1z"/>
<path class="st13" d="M407.7,396.5c0,0-87.1-7.7-103.3,0c0,0,6-22.1,4.4-24.4c-1.1-1.7,2-64.7,1-101c-0.5-20.5-5.3-40.5,8.5-55.7
	c4.7-5.2,9.9-9.5,15.4-11.6c0,0-1.5-14.6,6.2-15.4c0,0,29.3-3.1,40.1,6.2c3.4,2.9,5.6,11.9,5.9,19.6c-5.3,26.3-3.5,55.4,1.4,85.6
	c0.3,1.9,0.6,3.9,1,5.8C393.4,335.5,401.2,366.4,407.7,396.5z"/>
<path class="st14" d="M361.5,164.2c2.6-0.2,5.2,0.7,7.7,1.1c9.3,1.2,18.9-5.5,21-14.6c0.2-1.2,0.5-2.4,1.1-3.5
	c1.4-2.3,4.7-2.8,7.4-2.2c2.7,0.5,5.2,1.8,7.9,1.9c4.2,0.2,8.3-2.4,10.5-5.9c2.1-3.7,3-7.9,2.6-12.2l-2,2.1
	c-0.8-1.7-1.1-3.7-0.9-5.6c-2.2-0.6-4.5,0-6.1,1.6c-1.8,0.2-0.4-3.3-1.8-4.5c-0.6-0.4-1.4-0.5-2.2-0.4c-3.8,0-6.9-2.9-9.8-5.2
	c-5.2-4-11.2-6.8-17.6-8.1c-4.3-0.8-8.8-1-12.9,0.6c-3.3,1.5-6.2,3.6-8.7,6.2c-6.3,6.1-12,13.3-14.6,21.7
	c-2.1,6.9-2.2,14.2-0.2,21.2c1.1,3.6,4.3,15.9,9,16.2C357.7,174.9,354.1,164.7,361.5,164.2z"/>
<path class="st13" d="M374.2,213.1l11.1,1.2c0,0,10.8,21,10.1,25.4s-2.5,1.7,2.4,8.7s18.7,25.2,20.5,27.8s48.5-33,45.6-43.7
	c0,0,14.8,10.6,21.1,12c0,0-48.2,63.2-54.9,71.3s-12.1,6.4-21.4,1.6s-55.9-52.6-55.9-52.6L374.2,213.1z"/>
<path class="st6" d="M388.2,305.5l-38.4-38.4l9.7-3.2l27.7,35.8C387.5,301.7,387.8,303.6,388.2,305.5z"/>
</svg>
