<svg xmlns="http://www.w3.org/2000/svg" viewBox="0 0 176.13 210.5"><defs><style>.cls-1{fill:#de5f61;}.cls-2{fill:#d3474b;}.cls-3{fill:#515862;}.cls-4{fill:#c3e6fd;}.cls-5{fill:#9ed0eb;}.cls-6{fill:#aed0e5;}.cls-7{fill:#d1efff;}.cls-8{fill:#e77c7f;}.cls-9{fill:#fff;}</style></defs><title>Asset 210</title><g id="Layer_2" data-name="Layer 2"><g id="Layer_1-2" data-name="Layer 1"><path class="cls-1" d="M84.17,66.22a32,32,0,0,0,5.51-7.55,40.86,40.86,0,0,0-1.49-40.49C83.5,10.82,76.12,5,67.59,3.1,61.85,1.85,55.52,2.5,50.66,5.8,45,9.61,42.07,16.41,41.11,23.14c-2.45,17.17,7.62,35.38,23.47,42.43l4.58-1.32A19.62,19.62,0,0,1,58,44.14c.45-3.19,1.86-6.41,4.53-8.22a10.43,10.43,0,0,1,8-1.28,16,16,0,0,1,9.77,7.15A19.36,19.36,0,0,1,81.05,61a15.18,15.18,0,0,1-2.61,3.58Z"/><path class="cls-2" d="M89.69,57.66a32.13,32.13,0,0,1-5.52,7.55L82.4,64.7a40.83,40.83,0,0,0-1.76-40C75.95,17.36,68.57,11.51,60,9.65A22.67,22.67,0,0,0,44.66,11.4a20,20,0,0,1,6-6.61C55.53,1.5,61.85.84,67.59,2.1,76.12,4,83.5,9.81,88.19,17.18A40.83,40.83,0,0,1,89.69,57.66Z"/><path class="cls-3" d="M85.23,66.28l-2.12-2.12A30.57,30.57,0,0,0,88.36,57a39.6,39.6,0,0,0-1.43-39C82.17,10.51,75,5.25,67.27,3.56,61.44,2.29,55.7,3.19,51.5,6c-6.34,4.29-8.3,12.06-8.91,16.31C40.24,38.85,50,56.41,65.19,63.19L64,65.93c-16.42-7.3-26.88-26.23-24.34-44,.68-4.74,2.9-13.43,10.2-18.37C54.69.25,61.29-.81,67.91.63c8.51,1.86,16.36,7.6,21.55,15.74a42.11,42.11,0,0,1,1.55,42A33.53,33.53,0,0,1,85.23,66.28Z"/><path class="cls-3" d="M79.5,64.62l-2.12-2.13a13.71,13.71,0,0,0,2.35-3.22,18,18,0,0,0-.65-17.67,14.4,14.4,0,0,0-8.82-6.49,8.88,8.88,0,0,0-6.86,1.05c-2,1.36-3.43,4-3.88,7.19A18.09,18.09,0,0,0,69.77,61.87l-1.22,2.74a21.19,21.19,0,0,1-12-21.69c.59-4.1,2.42-7.38,5.17-9.25a11.89,11.89,0,0,1,9.18-1.5A17.41,17.41,0,0,1,81.61,40a20.76,20.76,0,0,1,.76,20.7A16.71,16.71,0,0,1,79.5,64.62Z"/><path class="cls-1" d="M94.19,67.23a32,32,0,0,1-5.51-7.55,40.86,40.86,0,0,1,1.49-40.49C94.87,11.82,102.25,6,110.78,4.11c5.74-1.25,12.06-.6,16.92,2.69,5.63,3.81,8.59,10.61,9.55,17.34,2.45,17.17-7.62,35.38-23.47,42.43l-4.58-1.32a19.62,19.62,0,0,0,11.12-20.11c-.45-3.19-1.86-6.41-4.53-8.22a10.43,10.43,0,0,0-8-1.28A16,16,0,0,0,98,42.8,19.36,19.36,0,0,0,97.31,62a15.18,15.18,0,0,0,2.61,3.58Z"/><path class="cls-2" d="M88.68,58.67a32.13,32.13,0,0,0,5.52,7.55L96,65.71a40.83,40.83,0,0,1,1.76-40c4.69-7.37,12.07-13.22,20.6-15.08a22.67,22.67,0,0,1,15.38,1.75,20,20,0,0,0-6-6.61c-4.86-3.29-11.18-3.95-16.92-2.69C102.25,5,94.87,10.82,90.18,18.19A40.83,40.83,0,0,0,88.68,58.67Z"/><path class="cls-3" d="M93.14,67.28a33.55,33.55,0,0,1-5.77-7.9,42.11,42.11,0,0,1,1.55-42C94.1,9.24,102,3.5,110.46,1.64c6.62-1.45,13.21-.39,18.09,2.92,7.3,4.94,9.52,13.63,10.2,18.37,2.54,17.79-7.93,36.71-24.34,44l-1.22-2.74c15.24-6.78,24.95-24.34,22.59-40.85-.61-4.25-2.57-12-8.91-16.31-4.19-2.84-9.94-3.74-15.76-2.47C103.37,6.26,96.2,11.52,91.44,19A39.6,39.6,0,0,0,90,58a30.56,30.56,0,0,0,5.25,7.2Z"/><path class="cls-3" d="M98.87,65.62A16.69,16.69,0,0,1,96,61.69,20.75,20.75,0,0,1,96.76,41a17.41,17.41,0,0,1,10.71-7.8,11.89,11.89,0,0,1,9.18,1.5c2.75,1.86,4.58,5.15,5.17,9.25a21.18,21.18,0,0,1-12,21.69l-1.22-2.74a18.09,18.09,0,0,0,10.24-18.52c-.46-3.21-1.87-5.83-3.88-7.19a8.88,8.88,0,0,0-6.86-1.05,14.4,14.4,0,0,0-8.82,6.49,18,18,0,0,0-.65,17.67A13.7,13.7,0,0,0,101,63.5Z"/><rect class="cls-4" x="10.89" y="74.62" width="155.6" height="133.87" rx="4.9" ry="4.9"/><path class="cls-5" d="M165.49,80.35c0,20.69,0,103.11,0,124.21a4.94,4.94,0,0,1-4.94,4.94H14.82a4.93,4.93,0,0,1-4.93-4.93V192.06a4.47,4.47,0,0,1,5.59-4.33c25.13,6.48,50.95,10.88,76,5.25,9.31-2.08,18.57-5.71,25.45-12.33a48.83,48.83,0,0,0,9.67-13.91c9.61-19.78,8.34-39.06,2.85-59.65-2.56-9.62-4.47-20.07-.82-29.33,1.82-4.61,22.28-2.93,32.21-2.31A4.92,4.92,0,0,1,165.49,80.35Z"/><rect class="cls-6" x="22.46" y="99.1" width="44.32" height="18.16" rx="3.71" ry="3.71" transform="translate(41.42 -8.8) rotate(20.85)"/><path class="cls-7" d="M53.55,74.62c-23.15,4-38.22,17.71-40.35,27.26-.35,1.6-.65,3.22-.92,4.84V75.63Z"/><path class="cls-1" d="M11.28,134.8H165.14s.43,20.47-1,19.76H11.28"/><path class="cls-2" d="M164.13,155.13c-2.78-.58-8.58,0-11.62,0a38.18,38.18,0,0,1,.76-6.41,5,5,0,0,0-2.32-5.19c-2-1.35-5.34-2.1-8.69-2.38-11.7-1-131-2.27-131-3.4v-2.41H164.13s1.41,20.08,0,19.78Z"/><path class="cls-8" d="M102.82,154.56H11.28V143.79a88.1,88.1,0,0,0,9.9,1.77c17.41,2.19,35.64,2.29,53.27,4A159.83,159.83,0,0,1,102.82,154.56Z"/><rect class="cls-3" x="12.43" y="152.78" width="152.85" height="3"/><rect class="cls-3" x="12.43" y="133.01" width="152.85" height="3"/><path class="cls-1" d="M98.31,74.88v133.5s-20.47.37-19.76-.87V74.88"/><path class="cls-2" d="M78,207.5c.58-2.42,0-7.44,0-10.08a43.75,43.75,0,0,1,6.41.66,5.35,5.35,0,0,0,5.19-2c1.35-1.75,2.1-4.63,2.38-7.54,1-10.16,2.27-113.64,3.4-113.64h2.41V207.5s-20.08,1.22-19.78,0Z"/><path class="cls-8" d="M78.55,154.3V74.88H89.32a67.36,67.36,0,0,0-1.77,8.59c-2.19,15.11-2.29,30.92-4,46.22A122.21,122.21,0,0,1,78.55,154.3Z"/><rect class="cls-3" x="77.33" y="75.87" width="3" height="132.62"/><rect class="cls-3" x="97.09" y="75.87" width="3" height="132.62"/><path class="cls-3" d="M161.69,210.5h-146a6,6,0,0,1-5.95-5.95v-126a6,6,0,0,1,5.95-5.95h146a6,6,0,0,1,5.95,5.95v126A6,6,0,0,1,161.69,210.5ZM15.69,75.62a3,3,0,0,0-2.95,2.95v126a3,3,0,0,0,2.95,2.95h146a3,3,0,0,0,2.95-2.95v-126a3,3,0,0,0-2.95-2.95Z"/><rect class="cls-4" x="1.5" y="63.07" width="173.13" height="23.15" rx="7.84" ry="7.84"/><path class="cls-5" d="M174.88,71.22v1.17H1.75V71.22a7.92,7.92,0,0,1,7.89-7.89H167A7.92,7.92,0,0,1,174.88,71.22Z"/><path class="cls-3" d="M166.78,87.72H9.34A9.35,9.35,0,0,1,0,78.38V70.91a9.35,9.35,0,0,1,9.34-9.34H166.78a9.35,9.35,0,0,1,9.34,9.34v7.47A9.35,9.35,0,0,1,166.78,87.72ZM9.34,64.57A6.35,6.35,0,0,0,3,70.91v7.47a6.35,6.35,0,0,0,6.34,6.34H166.78a6.35,6.35,0,0,0,6.34-6.34V70.91a6.35,6.35,0,0,0-6.34-6.34Z"/><rect class="cls-9" x="27.06" y="67.79" width="3.25" height="22.75" rx="1" ry="1" transform="translate(107.85 50.48) rotate(90)"/><rect class="cls-9" x="10.81" y="77.54" width="3.25" height="3.25" rx="1" ry="1" transform="translate(91.59 66.73) rotate(90)"/></g></g></svg>