<svg xmlns="http://www.w3.org/2000/svg" viewBox="0 0 176.94 176.5"><defs><style>.cls-1,.cls-6{fill:#006eb6;}.cls-2{fill:#094c72;}.cls-3{fill:#515862;}.cls-4{fill:#0094cf;}.cls-5{fill:#00abda;}.cls-6{opacity:0.5;}.cls-7{fill:#ebeff7;}.cls-8{fill:#0f0f0f;opacity:0.2;}.cls-9{fill:#efc69a;}.cls-10{fill:#a98a61;}.cls-11{fill:#006fb6;}</style></defs><title>Asset 200</title><g id="Layer_2" data-name="Layer 2"><g id="Layer_1-2" data-name="Layer 1"><rect class="cls-1" x="35.44" y="160.5" width="28" height="14" rx="7" ry="7"/><rect class="cls-1" x="110.44" y="160.5" width="28" height="14" rx="7" ry="7"/><path class="cls-2" d="M63.15,165.5a7,7,0,0,1-6.71,9h-14a7,7,0,0,1-7-7,6.91,6.91,0,0,1,.29-2,7,7,0,0,0,6.71,5h14a7,7,0,0,0,6.71-5Z"/><path class="cls-2" d="M138.44,167.5a7,7,0,0,1-7,7h-14a7,7,0,0,1-7-7,6.91,6.91,0,0,1,.29-2,7,7,0,0,0,6.71,5h14a7,7,0,0,0,6.71-5A6.91,6.91,0,0,1,138.44,167.5Z"/><path class="cls-3" d="M56.19,176.5h-14a8.5,8.5,0,0,1,0-17h14a8.5,8.5,0,1,1,0,17Zm-14-14a5.5,5.5,0,0,0,0,11h14a5.5,5.5,0,1,0,0-11Z"/><path class="cls-3" d="M131.19,176.5h-14a8.5,8.5,0,1,1,0-17h14a8.5,8.5,0,0,1,0,17Zm-14-14a5.5,5.5,0,1,0,0,11h14a5.5,5.5,0,0,0,0-11Z"/><rect class="cls-4" x="2.04" y="12.86" width="170" height="152" rx="12" ry="12"/><path class="cls-5" d="M171.19,26.5v7a12,12,0,0,0-12-12h-146a12,12,0,0,0-12,12v-7a12,12,0,0,1,12-12h146A12,12,0,0,1,171.19,26.5Z"/><path class="cls-1" d="M2.19,154.5v-7a12,12,0,0,0,12,12h146a12,12,0,0,0,12-12v7a12,12,0,0,1-12,12h-146A12,12,0,0,1,2.19,154.5Z"/><rect class="cls-5" x="14.08" y="25.03" width="144.84" height="129.5" rx="12" ry="12"/><path class="cls-6" d="M157.91,41.5V117q-8.82-.52-17.66-.49c-7.7,0-15.44.37-23,2.08-12.07,2.74-23.27,8.89-35,13.07a111.57,111.57,0,0,1-69.18,1.71V73.73c23-18.48,52.13-27.4,80.37-24.28,8.57.94,17.07,2.94,25.69,3.06C132.61,52.7,145.83,48.28,157.91,41.5Z"/><path class="cls-3" d="M159.5,167.28H13.5A13.52,13.52,0,0,1,0,153.78v-128a13.52,13.52,0,0,1,13.5-13.5h146A13.52,13.52,0,0,1,173,25.78v128A13.52,13.52,0,0,1,159.5,167.28Zm-146-152A10.51,10.51,0,0,0,3,25.78v128a10.51,10.51,0,0,0,10.5,10.5h146a10.51,10.51,0,0,0,10.5-10.5v-128a10.51,10.51,0,0,0-10.5-10.5Z"/><path class="cls-3" d="M86.77,126.32a37,37,0,1,1,37-37A37,37,0,0,1,86.77,126.32Zm0-71a34,34,0,1,0,34,34A34,34,0,0,0,86.77,55.32Z"/><circle class="cls-7" cx="87.77" cy="88.32" r="25.68"/><path class="cls-3" d="M86.77,116.5A27.18,27.18,0,1,1,114,89.32,27.21,27.21,0,0,1,86.77,116.5Zm0-51.36A24.18,24.18,0,1,0,111,89.32,24.21,24.21,0,0,0,86.77,65.14Z"/><path class="cls-8" d="M83.82,82.41,80.27,64.13a9.55,9.55,0,0,1,10-11.34h0a9.55,9.55,0,0,1,8.57,12L93.8,83.09"/><path class="cls-8" d="M97.81,82.29l18.52,1.89a9.55,9.55,0,0,1,8,12.88h0a9.55,9.55,0,0,1-13.95,4.74L94.27,91.64"/><path class="cls-8" d="M92.08,97.61l9.38,16.09a9.55,9.55,0,0,1-5.73,14h0a9.55,9.55,0,0,1-12-8.48l-1.26-19"/><path class="cls-8" d="M80.41,91.09l-15.8,9.86a9.55,9.55,0,0,1-14.18-5.3h0a9.55,9.55,0,0,1,8.12-12.29l18.93-1.82"/><path class="cls-9" d="M81.84,77.75l-4.8-18a9.55,9.55,0,0,1,9.23-12h0a9.55,9.55,0,0,1,9.37,11.36l-3.8,18.64"/><path class="cls-10" d="M83,58.5l4.8,18h-5L78,58.5a9.54,9.54,0,0,1,9.23-12,9.29,9.29,0,0,1,2.49.33A9.54,9.54,0,0,0,83,58.5Z"/><path class="cls-3" d="M80.4,78.13l-4.8-18a11,11,0,1,1,21.52-.75L93.31,78l-2.94-.6,3.8-18.64a8,8,0,1,0-15.68.56l4.8,18Z"/><path class="cls-9" d="M76.27,92.17l-18,4.8a9.55,9.55,0,0,1-12-9.23h0a9.55,9.55,0,0,1,11.36-9.37l18.64,3.8"/><path class="cls-10" d="M58.72,92.12l18.12-4.34-.13,5L58.6,97.12a9.54,9.54,0,0,1-11.76-9.53,9.29,9.29,0,0,1,.39-2.48A9.54,9.54,0,0,0,58.72,92.12Z"/><path class="cls-3" d="M55.79,98.8a11.05,11.05,0,1,1,2.13-21.9l18.65,3.8L76,83.64l-18.64-3.8a8,8,0,1,0,.56,15.68l18-4.8.77,2.9-18,4.8A11.14,11.14,0,0,1,55.79,98.8Z"/><path class="cls-9" d="M91.7,100.75l4.8,18a9.55,9.55,0,0,1-9.23,12h0a9.55,9.55,0,0,1-9.37-11.36l3.8-18.64"/><path class="cls-10" d="M91.57,118.47,86,100.69l5-.22,5.57,17.78a9.54,9.54,0,0,1-8.7,12.39,9.29,9.29,0,0,1-2.5-.22A9.54,9.54,0,0,0,91.57,118.47Z"/><path class="cls-3" d="M87.27,132.25A11,11,0,0,1,76.42,119.1l3.8-18.65,2.94.6-3.8,18.64A8,8,0,1,0,95,119.12l-4.8-18,2.9-.77,4.8,18a11,11,0,0,1-10.67,13.89Z"/><path class="cls-9" d="M98.27,83.32l18-4.8a9.55,9.55,0,0,1,12,9.23h0a9.55,9.55,0,0,1-11.36,9.37l-18.64-3.8"/><path class="cls-10" d="M116.71,83.67,98.93,89.25l-.22-5,17.78-5.57a9.54,9.54,0,0,1,12.39,8.7,9.29,9.29,0,0,1-.22,2.5A9.54,9.54,0,0,0,116.71,83.67Z"/><path class="cls-3" d="M118.74,98.8a11.11,11.11,0,0,1-2.11-.2L98,94.79l.6-2.94,18.64,3.8A8,8,0,1,0,116.65,80l-18,4.8-.77-2.9,18-4.8a11,11,0,1,1,2.86,21.72Z"/><circle class="cls-5" cx="86.89" cy="88.94" r="12.3"/><path class="cls-3" d="M86.89,102.74a13.8,13.8,0,1,1,13.8-13.8A13.82,13.82,0,0,1,86.89,102.74Zm0-24.6a10.8,10.8,0,1,0,10.8,10.8A10.81,10.81,0,0,0,86.89,78.14Z"/><path class="cls-7" d="M37.53,25.17a96.6,96.6,0,0,0,3.76-15.5A9.47,9.47,0,0,1,50.7,1.5h20a9.51,9.51,0,0,1,9.5,9.1c.24,5.18,1,11.34,3,14.9"/><path class="cls-8" d="M83.19,26.5H81.62A54.2,54.2,0,0,1,80.18,15.6a9.52,9.52,0,0,0-9.5-9.1h-20a9.48,9.48,0,0,0-9.41,8.17,84.65,84.65,0,0,1-2.53,11.51H37.52a95.9,95.9,0,0,0,3.76-15.5A9.48,9.48,0,0,1,50.69,2.5h20a9.52,9.52,0,0,1,9.5,9.1C80.41,16.78,81.15,22.94,83.19,26.5Z"/><path class="cls-3" d="M81.89,26.24c-1.8-3.15-2.88-8.39-3.21-15.58a8,8,0,0,0-8-7.67h-20a8,8,0,0,0-7.92,6.87,97,97,0,0,1-3.83,15.78l-2.84-1A95.65,95.65,0,0,0,39.8,9.47,11,11,0,0,1,50.7,0h20a11,11,0,0,1,11,10.53C82,17.14,83,22.06,84.5,24.76Z"/><path class="cls-7" d="M159.74,78.17A64.09,64.09,0,0,0,170,80.66a6.28,6.28,0,0,1,5.42,6.24v13.26a6.31,6.31,0,0,1-6,6.3c-3.44.16-7.52.65-9.89,2"/><path class="cls-8" d="M158.86,108.46v-1a36,36,0,0,1,7.22-1,6.32,6.32,0,0,0,6-6.3V86.9a6.29,6.29,0,0,0-5.42-6.24A56.16,56.16,0,0,1,159.07,79v-.82a63.62,63.62,0,0,0,10.28,2.49,6.29,6.29,0,0,1,5.42,6.24v13.26a6.32,6.32,0,0,1-6,6.3C165.31,106.62,161.22,107.11,158.86,108.46Z"/><path class="cls-3" d="M160.27,109.76l-1.49-2.6c2.16-1.24,5.71-2,10.56-2.2a4.81,4.81,0,0,0,4.6-4.8V86.9a4.79,4.79,0,0,0-4.12-4.76,64.82,64.82,0,0,1-10.57-2.56l1-2.84a62.92,62.92,0,0,0,10,2.43,7.8,7.8,0,0,1,6.72,7.73v13.26a7.8,7.8,0,0,1-7.47,7.8C165.17,108.16,162,108.78,160.27,109.76Z"/><path class="cls-3" d="M146.92,156H26.08a13.52,13.52,0,0,1-13.5-13.5V37a13.52,13.52,0,0,1,13.5-13.5H146.92A13.52,13.52,0,0,1,160.42,37v105.5A13.52,13.52,0,0,1,146.92,156ZM26.08,26.53A10.51,10.51,0,0,0,15.58,37v105.5A10.51,10.51,0,0,0,26.08,153H146.92a10.51,10.51,0,0,0,10.5-10.5V37a10.51,10.51,0,0,0-10.5-10.5Z"/><rect class="cls-4" x="152.04" y="39.86" width="12" height="27" rx="2.93" ry="2.93"/><rect class="cls-4" x="152.04" y="112.86" width="12" height="27" rx="2.93" ry="2.93"/><path class="cls-11" d="M165,43.79v3.64a9.1,9.1,0,0,0-1.38-.27c-4-.49-7.75,1.27-10.62,4.1V43.79A2.94,2.94,0,0,1,156,40.86h6.14A2.94,2.94,0,0,1,165,43.79Z"/><path class="cls-11" d="M165,114.79v3.64a9.1,9.1,0,0,0-1.38-.27c-4-.49-7.75,1.27-10.62,4.1v-7.47a2.94,2.94,0,0,1,2.93-2.93h6.14A2.94,2.94,0,0,1,165,114.79Z"/><path class="cls-3" d="M161.61,68.28h-6.15A4.43,4.43,0,0,1,151,63.85V42.7a4.43,4.43,0,0,1,4.43-4.43h6.15A4.43,4.43,0,0,1,166,42.7V63.85A4.43,4.43,0,0,1,161.61,68.28Zm-6.15-27A1.43,1.43,0,0,0,154,42.7V63.85a1.43,1.43,0,0,0,1.43,1.43h6.15A1.43,1.43,0,0,0,163,63.85V42.7a1.43,1.43,0,0,0-1.43-1.43Z"/><path class="cls-3" d="M161.61,141.28h-6.15a4.43,4.43,0,0,1-4.43-4.43V115.7a4.43,4.43,0,0,1,4.43-4.43h6.15A4.43,4.43,0,0,1,166,115.7v21.15A4.43,4.43,0,0,1,161.61,141.28Zm-6.15-27A1.43,1.43,0,0,0,154,115.7v21.15a1.43,1.43,0,0,0,1.43,1.43h6.15a1.43,1.43,0,0,0,1.43-1.43V115.7a1.43,1.43,0,0,0-1.43-1.43Z"/></g></g></svg>