<svg xmlns="http://www.w3.org/2000/svg" viewBox="0 0 294.1 307.37"><defs><style>.cls-1,.cls-5,.cls-8{fill:none;stroke-miterlimit:10;}.cls-1{stroke:#778c97;}.cls-2,.cls-4{fill:#dee6f1;}.cls-2{opacity:0.25;}.cls-3{fill:#fff;}.cls-5,.cls-8{stroke:#374449;}.cls-5{stroke-width:10px;}.cls-6{fill:#4fbdbd;}.cls-7{fill:#3faaa7;}.cls-8{stroke-width:5px;}.cls-9{fill:#374449;}</style></defs><title>Asset 150</title><g id="Layer_2" data-name="Layer 2"><g id="Layer_1-2" data-name="Layer 1"><path class="cls-1" d="M147.9,155.9"/><ellipse class="cls-2" cx="147.9" cy="288.62" rx="112.5" ry="18.75"/><circle class="cls-3" cx="148.75" cy="146.48" r="142.05"/><path class="cls-4" d="M170.34,265.8A142.06,142.06,0,0,1,54.86,41,142,142,0,1,0,264.24,230.33,141.5,141.5,0,0,1,170.34,265.8Z"/><path class="cls-5" d="M221.47,26a142.41,142.41,0,0,1,13.26,9.25"/><path class="cls-6" d="M277.27,84.14C240.46,94.78,196.77,101,149.89,101S59.31,94.78,22.5,84.14a141.21,141.21,0,0,1,9.7-16.66c34.69,9,74.85,14.16,117.68,14.16s83-5.15,117.67-14.16A139.65,139.65,0,0,1,277.27,84.14Z"/><path class="cls-7" d="M39.15,69.21a139.24,139.24,0,0,0-6,17.55C29.58,85.87,26,85,22.57,84a143,143,0,0,1,9.64-16.51Q35.64,68.36,39.15,69.21Z"/><path class="cls-8" d="M273.86,83c-36.81,10.65-80.5,16.82-127.38,16.82S55.9,93.65,19.1,83a141.21,141.21,0,0,1,9.7-16.66c34.69,9,74.85,14.16,117.68,14.16s83-5.15,117.67-14.16A139.65,139.65,0,0,1,273.86,83Z"/><path class="cls-5" d="M257.24,57.4a141.69,141.69,0,1,1-61.86-44"/><path class="cls-9" d="M175.22,203c0,14.54-11.25,26.32-25.12,26.32S125,217.56,125,203v-.12a2.74,2.74,0,0,1,5-1.47,24.46,24.46,0,0,0,40.23,0,2.74,2.74,0,0,1,5,1.47Z"/><path class="cls-6" d="M101.72,153.77c-1.43-4.19-4.79-6.16-10.65-6.3-4.33-.23-6.24-.43-6.89-2.33-.48-1.4.45-3.27,3.37-4.26a13.72,13.72,0,0,1,6.57-.68l-.29-5.85a16,16,0,0,0-7.24.79L84.85,130l-5.08,1.73,1.92,5.65c-3.93,2.72-5.36,6.73-4,10.65,1.47,4.32,5.55,5.91,11.11,6,3.95-.07,5.73.6,6.34,2.38.69,2-.53,3.86-3.58,4.9a18.45,18.45,0,0,1-8,.73l.34,6a20.14,20.14,0,0,0,8-.76l1.74,5.11,5.08-1.73-.43-1.27-1.44-4.22C101.77,162.21,103.1,157.81,101.72,153.77Z"/><path class="cls-6" d="M213.21,160.11c1.14-4.28-.57-7.79-5.37-11.14-3.48-2.59-5-3.81-4.44-5.76.38-1.43,2.18-2.47,5.17-1.68a13.72,13.72,0,0,1,5.85,3.08l3-5a16,16,0,0,0-6.47-3.36l1.38-5.21-5.19-1.38-1.53,5.77c-4.78.09-8.19,2.63-9.26,6.64-1.17,4.41,1.35,8,5.93,11.15,3.32,2.13,4.44,3.68,4,5.49-.55,2.08-2.58,2.92-5.69,2.1a18.45,18.45,0,0,1-7-3.81l-3,5.16a20.14,20.14,0,0,0,7,3.78l-1.38,5.22,5.19,1.38.34-1.3,1.14-4.31C208.57,167.16,212.12,164.24,213.21,160.11Z"/></g></g></svg>