<?xml version="1.0" encoding="utf-8"?>
<!-- Generator: Adobe Illustrator 22.0.1, SVG Export Plug-In . SVG Version: 6.00 Build 0)  -->
<svg version="1.1" id="Calque_1" xmlns="http://www.w3.org/2000/svg" xmlns:xlink="http://www.w3.org/1999/xlink" x="0px" y="0px"
	 viewBox="0 0 72 72" style="enable-background:new 0 0 72 72;" xml:space="preserve">
<style type="text/css">
	.st0{fill:#B8E9F4;}
	.st1{fill:#014F7A;}
</style>
<path class="st0" d="M36,72c19.9,0,36-16.1,36-36S55.9,0,36,0S0,16.1,0,36S16.1,72,36,72z"/>
<g>
	<g>
		<path class="st1" d="M28,26.8h-4.5c-0.5,0-0.9,0.4-0.9,0.9c0,0.5,0.4,0.9,0.9,0.9H28c0.5,0,0.9-0.4,0.9-0.9
			C28.9,27.2,28.5,26.8,28,26.8z"/>
	</g>
</g>
<g>
	<g>
		<path class="st1" d="M28,33.8h-4.5c-0.5,0-0.9,0.4-0.9,0.9c0,0.5,0.4,0.9,0.9,0.9H28c0.5,0,0.9-0.4,0.9-0.9
			C28.9,34.2,28.5,33.8,28,33.8z"/>
	</g>
</g>
<g>
	<g>
		<path class="st1" d="M26.2,30.3h-4.5c-0.5,0-0.9,0.4-0.9,0.9s0.4,0.9,0.9,0.9h4.5c0.5,0,0.9-0.4,0.9-0.9S26.7,30.3,26.2,30.3z"/>
	</g>
</g>
<g>
	<g>
		<path class="st1" d="M49.2,34.7h-5.4v-3.5c0-1.6-1.9-2.4-3-1.2L33.8,37c-0.7,0.7-0.7,1.8,0,2.5l4.1,4.1l-4.9,4.9
			c-0.7,0.7-0.7,1.8,0,2.5c0.7,0.7,1.8,0.7,2.5,0l6.2-6.2c0.7-0.7,0.7-1.8,0-2.5l-4.1-4.1l2.8-2.8v1c0,1,0.8,1.8,1.8,1.8h7.1
			c1,0,1.8-0.8,1.8-1.8S50.2,34.7,49.2,34.7z"/>
	</g>
</g>
<g>
	<g>
		<path class="st1" d="M37.3,25.7c-0.7-0.5-1.6-0.4-2.2,0.2l-4.9,4.9c-0.7,0.7-0.7,1.8,0,2.5s1.8,0.7,2.5,0l3.8-3.8l1.3,0.9l1.7-1.7
			c0.3-0.3,0.6-0.5,1-0.7L37.3,25.7z"/>
	</g>
</g>
<g>
	<g>
		<path class="st1" d="M32.5,40.7c-0.4-0.4-0.7-1-0.9-1.6l-9.3,9.3c-0.7,0.7-0.7,1.8,0,2.5c0.7,0.7,1.8,0.7,2.5,0l9-9L32.5,40.7z"/>
	</g>
</g>
<g>
	<g>
		<circle class="st1" cx="44.8" cy="26.8" r="2.6"/>
	</g>
</g>
</svg>
