<?xml version="1.0" encoding="utf-8"?>
<!-- Generator: Adobe Illustrator 22.0.1, SVG Export Plug-In . SVG Version: 6.00 Build 0)  -->
<svg version="1.1" id="Calque_1" xmlns="http://www.w3.org/2000/svg" xmlns:xlink="http://www.w3.org/1999/xlink" x="0px" y="0px"
	 viewBox="0 0 72 72" style="enable-background:new 0 0 72 72;" xml:space="preserve">
<style type="text/css">
	.st0{fill:#B8E9F4;}
	.st1{fill:#014F7A;}
</style>
<path class="st0" d="M36,72c19.9,0,36-16.1,36-36S55.9,0,36,0S0,16.1,0,36S16.1,72,36,72z"/>
<g>
	<path class="st1" d="M56.8,40h-2.2v-1.3c0-0.6-0.5-1.1-1.1-1.1h-9c-0.6,0-1.1,0.5-1.1,1.1v9.4c0,1.9,1.5,3.4,3.4,3.4h4.5
		c1.8,0,3.3-1.4,3.4-3.2c2.5-0.3,4.5-2.4,4.5-5v-1.1C59,41,58,40,56.8,40z M56.8,43.3c0,1.3-1,2.5-2.2,2.7v-3.8h2.2V43.3z"/>
	<path class="st1" d="M51,35.3V21.7c0-0.6-0.5-1.1-1.1-1.1H39c0.1,0.4,0.2,0.7,0.2,1.1c0,1.9-1.5,3.4-3.4,3.4s-3.4-1.5-3.4-3.4
		c0-0.4,0.1-0.8,0.2-1.1H21.8c-0.6,0-1.1,0.5-1.1,1.1v15.9h20.6c0.5-1.3,1.7-2.3,3.2-2.3H51z"/>
	<path class="st1" d="M41.1,39.8H20.7v2.1c0,0.6,0.5,1.1,1.1,1.1h19.2V39.8z"/>
	<path class="st1" d="M41.1,45.3H30.7V47h-2.3c-0.6,0-1.1,0.5-1.1,1.1c0,0.6,0.5,1.1,1.1,1.1h12.9c-0.1-0.4-0.1-0.8-0.1-1.2
		L41.1,45.3z"/>
	<path class="st1" d="M22.5,22.8v13.6c0,0.6,0.3,1.1,0.7,1.1h6.3c-0.1-0.4-0.1-0.7-0.1-1.1c0-1.9,0.9-3.4,2-3.4c1.1,0,2,1.5,2,3.4
		c0,0.4,0,0.8-0.1,1.1h6.3c0.4,0,0.7-0.5,0.7-1.1V20.6h-12c-0.3,1.3-1,2.3-1.9,2.3H22.5z"/>
</g>
</svg>
