<?xml version="1.0" encoding="utf-8"?>
<!-- Generator: Adobe Illustrator 22.0.1, SVG Export Plug-In . SVG Version: 6.00 Build 0)  -->
<svg version="1.1" id="b8eef085-bbb0-4c81-9a53-f8aa424b48dc"
	 xmlns="http://www.w3.org/2000/svg" xmlns:xlink="http://www.w3.org/1999/xlink" x="0px" y="0px" viewBox="0 0 1063.1 672.7"
	 style="enable-background:new 0 0 1063.1 672.7;" xml:space="preserve">
<style type="text/css">
	.st0{fill:#F2F2F2;}
	.st1{fill:#8E8E8E;}
	.st2{opacity:3.000000e-02;enable-background:new    ;}
</style>
<title>aircraft</title>
<path class="st0" d="M859.6,396.7c-9.8,3.6-26.9,6.6-46.8,8.9c-54,6.5-128,8.8-128,8.8s-380.4,31.5-665.5-85.8c0,0-41.5-21.7-3-51
	c5.9-4.4,12.2-8.2,18.8-11.5l0.5-0.5c4.4-4,9.1-7.7,14.1-10.9c14.8-9.5,39.7-20.9,70.1-15.7l748.8,121.1
	C868.6,360.1,896,383.2,859.6,396.7z"/>
<path class="st0" d="M710.4,341.8l156.8-111.2l69.1,12l-67.6,117.6C868.6,360.1,712.2,361.4,710.4,341.8z"/>
<polygon class="st0" points="315.8,274.2 628,186.6 678.4,197.1 537.3,260.6 493.2,309.9 "/>
<path class="st1" d="M812.8,405.6c-54,6.5-128,8.8-128,8.8s-380.4,31.5-665.5-85.8c0,0-41.5-21.7-3-51l0.1,0.5
	c0,0,61.5,41.6,355.5,76.3L812.8,405.6z"/>
<path class="st0" d="M762.7,403.2l139.6,57l35.1-3.9l-83.5-62.8C853.8,393.5,752.8,372,762.7,403.2z"/>
<path class="st1" d="M67.1,284.2c-6.7,0.1-21.9-11.1-31.4-18.6c4.4-4,9.1-7.7,14.1-10.9c7.7,5.9,21.3,15.4,28.8,15
	C89.6,269.3,77.1,284,67.1,284.2z"/>
<path class="st0" d="M701.3,600.2l-89.6,4.7L359.7,435l-46.8-31.5l-22.7-15.3c42.6-36,216.6,13.7,216.6,13.7
	c3.3,2.8,4.4,7.5,4.2,12.6c-0.3,9.7-4.8,21-6.6,25.1c-0.4,1-0.7,1.5-0.7,1.5L701.3,600.2z"/>
<path class="st0" d="M406.1,512.1l-15.5,9.8l9.4-17.1c-2.7-2.1-6-3.3-9.4-3.3h-0.2c-1.1,0-2.2-0.1-3.2-0.2l-5.3,3.3l2.2-4.1
	c-3.7-1.3-6.9-3.8-9.2-7l-9.4,6l5.9-10.8c-5.5-6.6-12.9-10.7-21.1-10.7c-9.8,0-18.5,5.8-24.1,14.9c-3.4,5.5-9.5,8.8-16,8.6h-0.5
	c-10.8,0-19.6,12.2-19.6,27.4s8.8,27.4,19.6,27.4c2.4,0,4.7-0.6,6.8-1.7c7.4-3.6,16.1-3.8,23.7-0.5c6.4,2.9,13.7,2.9,20.1,0
	c7.5-3.3,16.1-3.1,23.5,0.5c2.1,1.1,4.4,1.7,6.8,1.7c10.8,0,19.6-12.2,19.6-27.4C410.2,523,408.8,517.3,406.1,512.1z"/>
<path class="st2" d="M376.9,552.2c-5.6-1.1-11.5-0.4-16.8,1.8c-6.4,2.9-13.7,2.9-20.1,0c-7.6-3.3-16.2-3.2-23.7,0.5
	c-2.1,1.1-4.4,1.7-6.8,1.7c-9.6,0-17.6-9.7-19.2-22.4c1.9-1.4,3.6-3.2,4.8-5.2c5.6-9.1,14.4-14.9,24.1-14.9s18.4,5.7,24,14.7
	c3.4,5.5,9.5,8.8,16,8.8h0.2C367,537.1,373.6,543.2,376.9,552.2z"/>
<path class="st0" d="M845.1,499.1l-15.5,9.8l9.4-17.1c-2.7-2.1-6-3.3-9.4-3.3h-0.2c-1.1,0-2.2-0.1-3.2-0.2l-5.3,3.3l2.2-4.1
	c-3.7-1.3-6.9-3.8-9.2-7l-9.4,6l5.9-10.8c-5.5-6.6-12.9-10.7-21.1-10.7c-9.8,0-18.5,5.8-24.1,14.9c-3.4,5.5-9.5,8.8-16,8.6h-0.5
	c-10.8,0-19.6,12.2-19.6,27.4s8.8,27.4,19.6,27.4c2.4,0,4.7-0.6,6.8-1.7c7.4-3.6,16.1-3.8,23.7-0.5c6.4,2.9,13.7,2.9,20.1,0
	c7.5-3.3,16.1-3.1,23.5,0.5c2.1,1.1,4.4,1.7,6.8,1.7c10.8,0,19.6-12.2,19.6-27.4C849.2,510,847.8,504.3,845.1,499.1z"/>
<path class="st2" d="M815.9,539.2c-5.6-1.1-11.5-0.4-16.8,1.8c-6.4,2.9-13.7,2.9-20.1,0c-7.6-3.3-16.2-3.2-23.7,0.5
	c-2.1,1.1-4.4,1.7-6.8,1.7c-9.6,0-17.6-9.7-19.2-22.4c1.9-1.4,3.6-3.2,4.8-5.2c5.6-9.1,14.3-14.9,24.1-14.9s18.4,5.7,24,14.7
	c3.4,5.5,9.5,8.9,16,8.8h0.2C806,524.1,812.6,530.2,815.9,539.2z"/>
<path class="st0" d="M845.1,171.1l-15.5,9.8l9.4-17.1c-2.7-2.1-6-3.3-9.4-3.4h-0.2c-1.1,0-2.2-0.1-3.2-0.2l-5.3,3.3l2.2-4.1
	c-3.7-1.3-6.9-3.8-9.2-7l-9.4,6l5.9-10.8c-5.5-6.6-12.9-10.7-21.1-10.7c-9.8,0-18.5,5.8-24.1,14.9c-3.4,5.5-9.5,8.8-16,8.6h-0.5
	c-10.8,0-19.6,12.2-19.6,27.4s8.8,27.4,19.6,27.4c2.4,0,4.7-0.6,6.8-1.7c7.4-3.6,16.1-3.8,23.7-0.5c6.4,2.9,13.7,2.9,20.1,0
	c7.5-3.3,16.1-3.1,23.5,0.5c2.1,1.1,4.4,1.7,6.8,1.7c10.8,0,19.6-12.2,19.6-27.4C849.2,182,847.8,176.3,845.1,171.1z"/>
<path class="st2" d="M815.9,211.2c-5.6-1.1-11.5-0.4-16.8,1.8c-6.4,2.9-13.7,2.9-20.1,0c-7.6-3.3-16.2-3.2-23.7,0.5
	c-2.1,1.1-4.4,1.7-6.8,1.7c-9.6,0-17.6-9.7-19.2-22.4c1.9-1.4,3.6-3.2,4.8-5.2c5.6-9.1,14.3-14.9,24.1-14.9s18.4,5.7,24,14.7
	c3.4,5.5,9.5,8.9,16,8.8h0.2C806,196.1,812.6,202.2,815.9,211.2z"/>
<path class="st0" d="M203.1,135.7l-7.8,4.9l4.7-8.5c-1.3-1.1-3-1.7-4.7-1.7h-0.1c-0.5,0-1.1,0-1.6-0.1L191,132l1.1-2
	c-1.9-0.7-3.5-1.9-4.6-3.5l-4.7,3l3-5.4c-2.5-3.3-6.4-5.2-10.5-5.3c-4.9,0-9.2,2.9-12,7.4c-1.7,2.8-4.8,4.4-8,4.3h-0.3
	c-5.4,0-9.8,6.1-9.8,13.7s4.4,13.6,9.8,13.6c1.2,0,2.4-0.3,3.4-0.9c3.7-1.8,8-1.9,11.8-0.2c3.2,1.4,6.8,1.4,10,0
	c3.8-1.6,8-1.5,11.7,0.2c1,0.5,2.2,0.8,3.4,0.8c5.4,0,9.8-6.1,9.8-13.6C205.2,141.2,204.5,138.3,203.1,135.7z"/>
<path class="st2" d="M188.5,155.7c-2.8-0.5-5.7-0.2-8.4,0.9c-1.6,0.7-3.3,1.1-5,1.1c-1.7,0-3.5-0.4-5.1-1.1
	c-3.8-1.7-8.1-1.6-11.8,0.2c-1,0.6-2.2,0.8-3.4,0.9c-4.8,0-8.8-4.8-9.6-11.2c1-0.7,1.8-1.6,2.4-2.6c2.8-4.5,7.1-7.4,12-7.4
	s9.2,2.9,12,7.3c1.7,2.8,4.7,4.4,8,4.4h0.1C183.6,148.2,186.9,151.3,188.5,155.7z"/>
<path class="st0" d="M893.1,624.7l-7.8,4.9l4.7-8.5c-1.3-1.1-3-1.7-4.7-1.7h-0.1c-0.5,0-1.1,0-1.6-0.1L881,621l1.1-2
	c-1.9-0.7-3.5-1.9-4.6-3.5l-4.7,3l3-5.4c-2.5-3.3-6.4-5.2-10.5-5.3c-4.9,0-9.2,2.9-12,7.4c-1.7,2.8-4.8,4.4-8,4.3h-0.3
	c-5.4,0-9.8,6.1-9.8,13.7s4.4,13.7,9.8,13.7c1.2,0,2.4-0.3,3.4-0.8c3.7-1.8,8-1.9,11.8-0.2c3.2,1.4,6.8,1.4,10,0
	c3.8-1.6,8-1.5,11.7,0.2c1,0.5,2.2,0.8,3.4,0.8c5.4,0,9.8-6.1,9.8-13.7C895.2,630.2,894.5,627.3,893.1,624.7z"/>
<path class="st2" d="M878.5,644.7c-2.8-0.5-5.7-0.2-8.4,0.9c-1.6,0.7-3.3,1.1-5,1.1c-1.7,0-3.5-0.4-5-1.1c-3.8-1.7-8.1-1.6-11.8,0.2
	c-1,0.6-2.2,0.8-3.4,0.8c-4.8,0-8.8-4.8-9.6-11.2c1-0.7,1.8-1.6,2.4-2.6c2.8-4.5,7.2-7.4,12-7.4s9.2,2.9,12,7.3
	c1.7,2.8,4.7,4.4,8,4.4h0.1C873.6,637.2,876.9,640.3,878.5,644.7z"/>
<path class="st0" d="M173.1,650.7l-7.8,4.9l4.7-8.5c-1.3-1.1-3-1.7-4.7-1.7h-0.1c-0.5,0-1.1,0-1.6-0.1L161,647l1.1-2
	c-1.9-0.7-3.5-1.9-4.6-3.5l-4.7,3l3-5.4c-2.5-3.3-6.4-5.2-10.5-5.3c-4.9,0-9.2,2.9-12,7.4c-1.7,2.8-4.8,4.4-8,4.3h-0.3
	c-5.4,0-9.8,6.1-9.8,13.7s4.4,13.7,9.8,13.7c1.2,0,2.4-0.3,3.4-0.8c3.7-1.8,8-1.9,11.8-0.2c3.2,1.4,6.8,1.4,10,0
	c3.8-1.6,8-1.5,11.7,0.2c1,0.5,2.2,0.8,3.4,0.8c5.4,0,9.8-6.1,9.8-13.7C175.2,656.2,174.5,653.3,173.1,650.7z"/>
<path class="st2" d="M158.5,670.7c-2.8-0.5-5.7-0.2-8.4,0.9c-1.6,0.7-3.3,1.1-5,1.1c-1.7,0-3.5-0.4-5.1-1.1
	c-3.8-1.7-8.1-1.6-11.8,0.2c-1,0.6-2.2,0.8-3.4,0.8c-4.8,0-8.8-4.8-9.6-11.2c1-0.7,1.8-1.6,2.4-2.6c2.8-4.5,7.1-7.4,12-7.4
	s9.2,2.9,12,7.3c1.7,2.8,4.7,4.4,8,4.4h0.1C153.6,663.2,156.9,666.3,158.5,670.7z"/>
<path class="st0" d="M531.1,34.1L515.6,44l9.4-17.1c-2.7-2.1-6-3.3-9.4-3.4h-0.2c-1.1,0-2.2-0.1-3.2-0.2l-5.3,3.3l2.2-4.1
	c-3.7-1.3-6.9-3.8-9.2-7l-9.4,6l5.9-10.8C491,4.1,483.5,0,475.4,0c-9.8,0-18.5,5.8-24.1,14.9c-3.4,5.5-9.5,8.8-16,8.6h-0.5
	c-10.8,0-19.6,12.2-19.6,27.4s8.8,27.4,19.6,27.4c2.4,0,4.7-0.6,6.8-1.7c7.4-3.6,16.1-3.8,23.7-0.5c6.4,2.9,13.7,2.9,20.1,0.1
	c7.5-3.3,16.1-3.1,23.5,0.4c2.1,1.1,4.4,1.7,6.8,1.7c10.8,0,19.6-12.2,19.6-27.4C535.2,45,533.8,39.3,531.1,34.1z"/>
<path class="st2" d="M501.9,74.2c-5.6-1.1-11.5-0.4-16.8,1.8c-6.4,2.9-13.7,2.9-20.1,0c-7.6-3.3-16.2-3.2-23.7,0.5
	c-2.1,1.1-4.4,1.7-6.8,1.7c-9.6,0-17.6-9.7-19.2-22.4c1.9-1.4,3.6-3.2,4.8-5.2c5.6-9.1,14.4-14.9,24.1-14.9c9.8,0,18.4,5.7,24,14.7
	c3.4,5.5,9.5,8.9,16,8.8h0.2C492,59.1,498.6,65.2,501.9,74.2z"/>
<path class="st0" d="M1061.1,205.7l-7.8,4.9l4.7-8.5c-1.3-1.1-3-1.7-4.7-1.7h-0.1c-0.5,0-1.1,0-1.6-0.1l-2.6,1.7l1.1-2
	c-1.9-0.7-3.5-1.9-4.6-3.5l-4.7,3l3-5.4c-2.5-3.3-6.4-5.2-10.5-5.3c-4.9,0-9.2,2.9-12,7.4c-1.7,2.8-4.8,4.4-8,4.3h-0.3
	c-5.4,0-9.8,6.1-9.8,13.7s4.4,13.6,9.8,13.6c1.2,0,2.4-0.3,3.4-0.9c3.7-1.8,8-1.9,11.8-0.2c3.2,1.4,6.8,1.4,10,0
	c3.8-1.6,8-1.5,11.7,0.2c1,0.5,2.2,0.8,3.4,0.8c5.4,0,9.8-6.1,9.8-13.6C1063.2,211.2,1062.5,208.3,1061.1,205.7z"/>
<path class="st2" d="M1046.5,225.7c-2.8-0.5-5.7-0.2-8.4,0.9c-1.6,0.7-3.3,1.1-5,1.1c-1.7,0-3.4-0.4-5-1.1
	c-3.8-1.7-8.1-1.6-11.8,0.2c-1,0.6-2.2,0.8-3.4,0.9c-4.8,0-8.8-4.8-9.6-11.2c1-0.7,1.8-1.6,2.4-2.6c2.8-4.5,7.2-7.4,12-7.4
	s9.2,2.9,12,7.3c1.7,2.7,4.7,4.4,7.9,4.4h0.1C1041.6,218.2,1044.9,221.3,1046.5,225.7z"/>
</svg>
