<?xml version="1.0" encoding="utf-8"?>
<!-- Generator: Adobe Illustrator 22.0.1, SVG Export Plug-In . SVG Version: 6.00 Build 0)  -->
<svg version="1.1" id="_x34_4ab1b28-df60-43dd-96f3-344df6392e15"
	 xmlns="http://www.w3.org/2000/svg" xmlns:xlink="http://www.w3.org/1999/xlink" x="0px" y="0px" viewBox="0 0 1091.8 828.6"
	 style="enable-background:new 0 0 1091.8 828.6;" xml:space="preserve">
<style type="text/css">
	.st0{opacity:0.1;fill:#0D8CD8;enable-background:new    ;}
	.st1{fill:#AEAEC1;}
	.st2{fill:#F7D5DE;}
	.st3{opacity:5.000000e-02;enable-background:new    ;}
	.st4{fill:#F4D0D7;}
	.st5{opacity:0.1;enable-background:new    ;}
	.st6{fill:#FFFFFF;}
	.st7{fill:#D3DAE1;}
	.st8{fill:url(#SVGID_1_);}
	.st9{fill:#A0A2A5;}
	.st10{fill:#BCBCC1;}
	.st11{fill:#FFD6D6;}
	.st12{fill:#DCE6F2;}
	.st13{fill:#B6B6B7;}
	.st14{fill:#E3E3E5;}
	.st15{fill:#A3A3A3;}
	.st16{fill:#D28690;}
	.st17{fill:#C9CBD3;}
	.st18{fill:#6B6B6B;}
	.st19{fill:#999999;}
	.st20{fill:#F0F3F7;}
	.st21{fill:#5E5D5E;}
	.st22{fill:#0D8CD8;}
	.st23{fill:#6F7070;}
	.st24{opacity:0.3;enable-background:new    ;}
	.st25{opacity:0.15;}
	.st26{fill:#95CAE5;}
	.st27{fill:#FFD037;}
	.st28{fill:#AAAACE;}
	.st29{fill:#696977;}
	.st30{fill:#7AC4EA;}
	.st31{fill:#4B4770;}
	.st32{opacity:0.1;fill:#7C7A9E;enable-background:new    ;}
	.st33{fill:#7C7A9E;}
	.st34{fill:#6EA2B7;}
	.st35{fill:#A7D4EA;}
	.st36{fill:#D4DFEC;}
</style>
<title>business deal</title>
<path class="st0" d="M268.5,86h1.4c-1-0.4-1.6-1.3-1.8-2.3l0,0c0-1.8,2.8-3.3,6.1-3.3H317c3.4,0,6.1,1.5,6.1,3.3l0,0
	c0,1.8-2.7,3.3-6.1,3.3h-1.4c1,0.4,1.6,1.3,1.8,2.3c0,1.6-2,2.9-4.7,3.2H325c3.4,0,6.1,1.5,6.1,3.3s-2.8,3.3-6.1,3.3h-42.8
	c-3.4,0-6.1-1.5-6.1-3.3c0-1.6,2-2.9,4.7-3.2h-12.3c-3.4,0-6.1-1.5-6.1-3.3S265.2,86,268.5,86z"/>
<path class="st0" d="M732,117.8h1.4c-1-0.4-1.6-1.3-1.7-2.3l0,0c0-1.8,2.7-3.3,6.1-3.3h42.8c3.4,0,6.1,1.5,6.1,3.3l0,0
	c0,1.8-2.8,3.3-6.1,3.3h-1.4c1,0.4,1.6,1.3,1.7,2.3c0,1.6-2,2.9-4.7,3.2h12.3c3.4,0,6.1,1.5,6.1,3.3s-2.7,3.3-6.1,3.3h-42.8
	c-3.4,0-6.1-1.5-6.1-3.3c0-1.6,2-2.9,4.7-3.2H732c-3.3,0-6.1-1.5-6.1-3.3S728.6,117.8,732,117.8z"/>
<path class="st0" d="M202.9,253.8h1.4c-1-0.4-1.6-1.3-1.7-2.3l0,0c0-1.8,2.8-3.3,6.1-3.3h42.8c3.4,0,6.1,1.5,6.1,3.3l0,0
	c0,1.8-2.8,3.3-6.1,3.3H250c1,0.4,1.6,1.3,1.7,2.3c0,1.6-2,2.9-4.7,3.2h12.3c3.4,0,6.1,1.5,6.1,3.3s-2.8,3.3-6.1,3.3h-42.7
	c-3.4,0-6.1-1.5-6.1-3.3c0-1.6,2-2.9,4.7-3.2h-12.4c-3.4,0-6.1-1.5-6.1-3.3S199.6,253.8,202.9,253.8z"/>
<ellipse transform="matrix(0.2002 -0.9798 0.9798 0.2002 82.9669 1236.1328)" class="st0" cx="798.6" cy="567.2" rx="65" ry="213.8"/>
<path class="st1" d="M774.5,384.9c0,0,11.4-55.8,54.8-50.6c0,0,30,2.1,36.2,21.7v43.4L774.5,384.9z"/>
<polygon class="st2" points="1012.2,405.6 625.6,373.5 576,383.9 579.1,453.1 582.5,453.5 586.3,557.5 965.7,625.7 1006,591.6 
	1006,478.9 1011.1,475.8 "/>
<polygon class="st3" points="1012.7,405.6 1011.7,475.8 969.8,495.5 969.3,422.1 "/>
<polygon class="st3" points="1006,478.9 1006.5,589.5 966.2,623.7 968.8,495.5 "/>
<polygon class="st3" points="583,457.6 969.1,504.8 969.3,495.8 582.7,454.1 "/>
<polygon class="st3" points="1006,483 1006,478.9 967.7,495.8 967.7,504.8 "/>
<polygon class="st4" points="575.5,383.9 625.1,373.5 1011.7,405.6 968.2,422.1 "/>
<polygon class="st5" points="970.5,407.5 989.5,408.8 958,418.2 942,417 "/>
<polygon class="st6" points="970.5,406.7 989.5,408 958,417.4 942,416.2 "/>
<path class="st7" d="M968.2,408.9c0.8-0.3,1.5,0.3,2.3,0.4c0.5,0.1,0.9,0,1.4,0.1c0.9,0.1,1.8,0.7,2.7,0.4"/>
<path class="st7" d="M967.2,409.4c0.7-0.3,1.5,0.3,2.3,0.4c0.5,0.1,0.9,0,1.4,0.1c0.9,0.1,1.8,0.8,2.7,0.4"/>
<path class="st7" d="M965,410.6c0.8-0.3,1.5,0.3,2.3,0.4c0.5,0.1,0.9,0,1.4,0.1c0.9,0.1,1.9,0.8,2.7,0.4"/>
<polygon class="st5" points="888.5,398.2 907.5,399.5 876,408.9 860,407.7 "/>
<polygon class="st6" points="888.5,397.4 907.5,398.6 876,408 860,406.9 "/>
<path class="st7" d="M886.2,399.5c0.8-0.3,1.5,0.3,2.3,0.4c0.5,0.1,0.9,0,1.4,0.1c0.9,0.1,1.8,0.8,2.7,0.4"/>
<path class="st7" d="M885.2,400.1c0.7-0.3,1.5,0.3,2.3,0.4c0.5,0.1,0.9,0,1.4,0.1c0.9,0.1,1.8,0.8,2.7,0.4"/>
<path class="st7" d="M883,401.2c0.8-0.3,1.5,0.3,2.3,0.4c0.5,0.1,0.9,0,1.4,0.1c0.9,0.1,1.9,0.8,2.7,0.4"/>
<polygon class="st5" points="927.8,402.9 946.8,404.1 915.3,413.5 899.3,412.4 "/>
<polygon class="st6" points="927.8,402.1 946.8,403.3 915.3,412.7 899.3,411.5 "/>
<path class="st7" d="M925.5,404.2c0.8-0.3,1.5,0.3,2.3,0.4c0.5,0.1,0.9,0,1.4,0.1c0.9,0.1,1.9,0.8,2.7,0.4"/>
<path class="st7" d="M924.6,404.8c0.8-0.3,1.5,0.3,2.3,0.4c0.5,0.1,0.9,0,1.4,0.1c0.9,0.1,1.9,0.8,2.7,0.4"/>
<path class="st7" d="M922.3,405.9c0.7-0.3,1.5,0.3,2.3,0.4c0.5,0.1,0.9,0,1.4,0.1c0.9,0.1,1.8,0.8,2.7,0.4"/>
<ellipse class="st0" cx="498.3" cy="749.7" rx="202.5" ry="41.7"/>
<linearGradient id="SVGID_1_" gradientUnits="userSpaceOnUse" x1="581.4196" y1="383.3504" x2="581.4196" y2="-201.9283" gradientTransform="matrix(1 0 0 1 -54.11 392.29)">
	<stop  offset="0" style="stop-color:#808080;stop-opacity:0.25"/>
	<stop  offset="0.54" style="stop-color:#808080;stop-opacity:0.12"/>
	<stop  offset="1" style="stop-color:#808080;stop-opacity:0.1"/>
</linearGradient>
<path class="st8" d="M720,408.4c-2.2-19-10.7-37.1-10.7-37.1l0.7-6.4c0,0,0.1-3.2-0.1-8c0-3,0.4-6,1.2-8.9c1.8-5.5-2.2-12.4-2.6-13
	s0.2-12.8-3.7-18.8s-30.2-17.1-30.2-17.1s-1.4-3-3.4-6.4l0.2-0.4c-1.6-3-3.6-5.7-6-8.1c-1.6-1.7-3.2-2.7-4.4-2.2
	c-0.5-1.7-0.9-3.4-1.2-5.1c0.3,0.1,0.5,0.1,0.8,0.2c1.1,0.3,2.2,0.3,3.3,0.1c2.4-0.5,4.1-2.7,5.4-4.8c6.8-10.3,12.6-21.6,13.8-33.8
	c0.3-2.5,0.2-5-0.3-7.5c-0.6-1.9-1.3-3.7-2.3-5.5c-1.8-3.5-4-6.8-6.6-9.7c-4.7-4.9-11.1-7.9-17.7-9.7c-7.5-2-15.2-2.6-22.9-1.7
	c-2,0.2-4,0.6-6,0.7c-2.5,0.1-5.1,0.1-7.6-0.1l-13.1-0.8l-0.1-0.2l-2.2-0.1c-0.9,1.7,0,3.7,1.1,5.3s2.3,3.3,2.2,5.2s-1.5,3.4-2.5,5
	c-1.1,1.6-1.9,3.7-0.8,5.2c0.2,0.2,0.3,0.4,0.5,0.6c1.1,1.2,3.1,1.3,4.8,1.3h0.3c-4.3,5.7-6.6,12.6-6.6,19.7
	c0.1,12.4,7,23.7,18.1,29.4c0.2,0.6,0.4,1.3,0.6,2c2,7,2.7,14.3,2.1,21.6l-0.2,0.5l-0.1-0.5c0,0-15.4,10.5-20,13.2
	s-9.2,12.2-9.4,14.7s-7.4,41.2-7.4,41.2c-1.5,3.9-2.7,7.9-3.6,11.9l-9.2,8.1c0,0-19,1.7-24.5,0.4l0.2,1.1c-4.9-1.1-9.8-1.8-14.8-2
	c-2.7-0.3-5.5,0-8,1.1l-0.2,0.1l-0.2,0.1c-2.9,0.4-5.7,1.2-8.4,2.4c-0.3,0.1-0.6,0.3-0.9,0.4l0.1-1.3l-20.6-1.1l-10.5-2.1
	c0,0-3.7-3-5.9-2.6s-6.8-2.6-6.8-2.6c-1-0.8-2.2-1.5-3.4-2.1c-0.3-2.4-0.6-3.9-0.6-3.9s-8.2-32.4-14.3-51.5
	c-4.1-12.7-10-19-13.5-21.7c-1.5-2.7-2.6-4.4-2.6-4.4c-0.7-2.3-4.4-7.6-5.3-7.7c-0.1-0.2-0.3-0.4-0.3-0.4c-0.2,0-0.4,0-0.6,0.1
	c-1.7-8.6-2.7-19.3-0.1-28.6c7.3-6,11.5-14.9,11.5-24.4c0-0.1,0-0.3,0-0.4s0-0.3,0-0.4c0-7.4-2.6-14.6-7.4-20.3l-0.3-0.4
	c0.1-0.1,0.2-0.1,0.3-0.2c1.5-1.2,2.3-3.2,1.9-5.2c-0.5-1.9-2-3.4-2.7-5.2c-0.5-1.4-0.8-2.8-1.1-4.3c-0.6-2.1-1.7-3.9-3.2-5.5
	l0.2,0.4c-3.9-4.4-10.7-6.6-16.7-5.6c-4.5,0.7-8.7,2.8-13.2,3.5c-3.2,0.5-6.6,0.2-9.8,0.5c-3,0.3-6,1.2-8.7,2.5
	c-0.7,0.3-1.3,0.8-1.8,1.4c-0.5,0.8-0.8,1.7-0.9,2.6c-1.1,4-4.6,6.9-7.2,10.3c-2.9,3.9-4.6,8.5-4.8,13.3c-0.1,1.2,0,2.5,0.3,3.6
	c0.2,0.7,0.6,1.4,0.7,2.1c0.5,2.2-0.7,4.4-1.2,6.6c-0.7,2.8-0.5,5.7,0.7,8.3c4,8.8,16.9,11.8,19.6,21.1c2.1,0.9,4.2,1.6,6.5,2
	c0.2,0.9,0.3,1.9,0.5,2.8c-0.1,0-0.1,0.1-0.2,0.1c-3.5,3.4-4.4,10-4.4,10l-0.4,0.3c-1.4,1.2-6.3,5.1-10.7,8.2
	c-5.2,3.6-14,15.8-20.1,19.4s-11.2,26-9.8,34.1s6.8,30.9,4.6,39.2s3.3,46.3,3.3,46.3c3.7,0.7,7.3,1.8,10.7,3.2l-0.1,1.7l-0.3,5
	c0,0-9.9,35.8-6.1,63.4c3.8,27.6-1.8,30.4-1.8,30.4s1.2,12.2-1.8,16.5c-2.9,4.3-3.5,13.7-3.5,13.7s-0.3,21,0.3,27s0.9,16.8-1.2,19.3
	c-2,2.6-5.8,19.3-5.5,24.5s-7.3,16.8-3.2,31.9s-12,15.4-12,15.4s2,23,6.4,29.6l0.6,0.9c-0.1,0.4-0.2,0.8-0.3,1.2
	c-1.7,6-3.9,15.5-2.3,17.8c2.3,3.4,3.5,2.8,3.5,2.8l0.9,15.4c0,0,17.5,14.8,30.9,14.2s10.8-14.2,10.8-14.2l-11.4-29.6l-0.4-1
	l12.7-24c0,0,3.5-10.5,4.4-14.2s5.6-16.8,5.6-16.8s12-28.4,12.2-31.9s1.2-21.9,3.5-25.6c2.3-3.7,8.8-25,8.8-25l0.2,0.1
	c2.2,2.2,3.1,5.4,2.2,8.4c-1.5,5.4-0.6,16.5-0.6,16.5s-0.6,9.4-1.8,14.2c-1.2,4.8-1.5,44.4,0.6,53.8c1.6,7.5,1.6,21.6,1.5,26.9
	c-1.4,5.7-2.6,12.7-0.3,13.5c3.8,1.4,23,1.1,23,1.1s8.2-2.8,19.2,7.1s45.2-2.8,45.2-2.8s10.5-2.8-10.2-11.1
	c-14.5-5.8-23.8-9.6-29.9-13.7c0.1-0.3,0.3-0.5,0.4-0.8c0,0-8.5-8-1.5-22.2s6.7-26.2,6.7-26.2l1.2-47.8l-3.5-63.4l-2.7-66.6l0.5-0.2
	c0.5,12.2,2.8,41.4,15.4,35.7c15.8-7.1,2.3-25.6,2.3-25.6l-7.1-13.8l2.1-0.7l-7.9-25.6c-0.8-5-0.9-10.1-0.3-15.1
	c0.2-2.9,0.1-5.9-0.2-8.8c10.4-1.8,20.3-3.7,22.1-3.3c2.1,0.5,13.8,0.6,18.5,0.6c-1.5,1.2-2.7,2.4-2.7,2.4l18.8,12.7
	c0,0,6.4-3.5,7.7-7.2c1.3-0.3,2.5-1,3.5-1.9c0.2,4.4,1.4,9.1,5.4,9.2c1,0,2-0.2,2.9-0.6l30.8-6.1l-2.6,16.5l1.8,3.3
	c-0.9,13.9-2,28.7-2.9,41.7l-0.4,2.8h0.2c-1.5,20-2.6,35.1-2.6,35.1c1.7-3.3,4.4-6,7.7-7.7l0.2,29.7c0,0,1.5,46.9,1.5,53.3
	s0.2,20.7,0.2,20.7s3.3,17.5,5.2,23.2s3.5,32,3.5,32s4.6,7.2,2.6,10s7.7,8.7,7.7,8.7s-6.1,8.3-6.6,13.9c0,0.6,0.6,1.3,1.7,2
	c-0.4,0.3-0.7,0.6-1.1,0.9c-2.8,1.9-7,3.2-13.3,2.7c-17.1-1.5-29.1,14.3-18.6,17.5s42,3.8,42,3.8s9.5-6,17-3.3
	c-0.1,6.3,0.2,12,0.2,12.8l-0.1,0.1c-4.5,4-13,10.9-21.3,13.7c-12,4-14.7,20.5,0.9,22.6s38.3-2.6,38.3-2.6s11.8-8.7,20.8-10.7
	s16.6-6.2,15.1-11.3c-1-3.3-3.6-11.8-5.3-17.6c-0.1-0.3-0.2-0.7-0.3-1c0.3-0.6,0.5-1.2,0.8-1.9c0,0-4.6-23.9-0.9-29.9
	s1.8-65.7,1.8-65.7s-6.3-15.1-3.1-24.3s-5.2-22.2-5.2-22.2s0.9-26.1,3.4-40.6c0.1-0.6,0.2-1.2,0.3-1.8c4.2-1.2,8.3-2.8,12.2-4.7
	c0,0,2.2-32.9,3.5-40.3c0.1-0.7,0.3-1.8,0.5-3.3l1-5.3l0,0l1.2-6l0,0l4-20.5l7.2-9.3l18.6-19C717.8,437.4,722.2,427.4,720,408.4z
	 M433.2,291.1l-0.1,0.1c0-0.1,0-0.1,0-0.2C433.1,291,433.1,291,433.2,291.1z M617,314.3l-0.7,1.6l2.6-2.6l-3.6,4l1.2-2.5L617,314.3z
	 M599.2,351c-0.7,1.8-1.4,3.8-2.2,5.9l1.4-4.2L599.2,351z"/>
<path class="st9" d="M541.8,410.9c0,0-2.5,16.3,4.9,16.5s12.3-12.6,12.3-12.6l-3-10.2L541.8,410.9z"/>
<path class="st10" d="M377.2,763.9c-13.1,0.6-30.1-14.2-30.1-14.2l-0.9-15.3c0,0-1.1,0.6-3.4-2.8c-1.5-2.3,0.7-11.8,2.3-17.8
	c0.8-2.9,1.4-5,1.4-5l28.7,7.7l1.4,3.6l11.1,29.6C387.7,749.7,390.3,763.3,377.2,763.9z"/>
<path class="st10" d="M509.1,720.4c0,0-33.2,12.8-44,2.8s-18.8-7.1-18.8-7.1s-18.8,0.3-22.5-1.1c-2.2-0.8-1-7.9,0.4-13.6
	c0.9-3.9,1.9-7.1,1.9-7.1s32.7-11.1,37.8-4.3c1.5,2,3.4,3.8,5.5,5.2c5.9,4.3,15.2,8.2,29.8,14.1
	C519.3,717.6,509.1,720.4,509.1,720.4z"/>
<path class="st11" d="M479.2,460.6l9.1,18.2c0,0,13.1,18.5-2.3,25.6s-15-40.9-15-40.9L479.2,460.6z"/>
<path class="st12" d="M441.1,302.9c0,0,10,4.5,15.9,23.6c6,19,13.9,51.5,13.9,51.5s5.4,36.7,4.5,45.8c-0.5,5-0.4,10.1,0.3,15.1
	l7.7,25.6l-15.3,5.4l-23.6-90.4L441.1,302.9z"/>
<path class="st3" d="M441.1,302.9c0,0,10,4.5,15.9,23.6c6,19,13.9,51.5,13.9,51.5s5.4,36.7,4.5,45.8c-0.5,5-0.4,10.1,0.3,15.1
	l7.7,25.6l-15.3,5.4l-23.6-90.4L441.1,302.9z"/>
<path class="st5" d="M375.2,716.4l1.4,3.6l-1.7,3.2c-6.5,2.8-22.7,0.6-22.7,0.6s-3-3.8-7.1-10.1c0.8-2.9,1.4-5,1.4-5L375.2,716.4z"
	/>
<path class="st5" d="M470.4,696.5c-8.3,18.8-36.5,11.8-44.3,9.5c-1.3-0.4-2-0.7-2-0.7s0-1.5,0.1-3.9c0.9-3.9,1.9-7.1,1.9-7.1
	s32.7-11.1,37.8-4.3c1.5,2,3.4,3.8,5.5,5.2C469.7,695.7,470,696.1,470.4,696.5z"/>
<path class="st13" d="M469,672.7c-6.8,14.2,1.4,22.2,1.4,22.2c-8.3,18.8-36.5,11.8-44.3,9.5c-1.3-0.4-2-0.6-2-0.6s0.6-19.6-1.4-29
	s-1.7-48.9-0.6-53.7s1.7-14.2,1.7-14.2s-0.8-11.1,0.6-16.5c0.9-3,0.1-6.2-2.1-8.4l-0.1-0.2c0,0-6.2,21.3-8.5,25s-3.1,22.2-3.4,25.6
	c-0.3,3.4-11.9,31.8-11.9,31.8s-4.5,13.1-5.4,16.8s-4.3,14.2-4.3,14.2L375,721.6c-6.5,2.8-22.7,0.6-22.7,0.6s-3.1-4-7.4-10.5
	s-6.2-29.5-6.2-29.5s15.6-0.3,11.6-15.3c-4-15.1,3.4-26.7,3.1-31.8s3.4-21.9,5.4-24.4s1.7-13.4,1.1-19.3s-0.3-27-0.3-27
	s0.6-9.4,3.4-13.6c2.8-4.3,1.7-16.5,1.7-16.5s5.4-2.8,1.7-30.4c-3.7-27.6,6-63.4,6-63.4l0.3-5l0.5-8.1c0,0,81.3-5.1,87.8,1.1
	c1.7,1.7,3.1,3.7,4.2,6c2.2,4.8,3.8,9.9,4.7,15.1l3.4,86.1l3.4,63.4l-1.1,47.8C475.6,646.5,475.8,658.5,469,672.7z"/>
<path class="st5" d="M444.9,502.7l-8.5,184.7l-10.2,16.8c-1.3-0.4-2-0.6-2-0.6s0.6-19.6-1.4-29s-1.7-48.9-0.6-53.7
	s1.7-14.2,1.7-14.2s-0.9-11.1,0.6-16.5c0.9-3,0.1-6.2-2.1-8.4l0.1-1L444.9,502.7z"/>
<path class="st5" d="M353,701.1c0,0,22.2-8.8,25.6-6s-26.1,7.1-26.1,7.1L353,701.1z"/>
<path class="st5" d="M462.5,677.8c-0.8,0.3-22.5,8-20.5,16.2S462.5,677.8,462.5,677.8z"/>
<path class="st11" d="M395,257.3c0,0,7.2,17.5,3.4,26.4c-3.8,9,41.4,24.3,41.4,24.3s-13.2-34.1-0.4-53.3S395,257.3,395,257.3z"/>
<path class="st14" d="M659.5,763.3c-8.7,1.9-20.2,10.7-20.2,10.7s-22.2,4.7-37.3,2.6s-12.6-18.5-0.8-22.6
	c8.1-2.8,16.5-9.7,20.8-13.7c1.9-1.8,3.1-3,3.1-3l42.4-8.5c0,0,0.7,2.4,1.7,5.6c1.7,5.8,4.2,14.3,5.2,17.6
	C675.7,757.2,668.2,761.4,659.5,763.3z"/>
<path class="st14" d="M648.6,730.5c0,0-17.9,1.9-25.4-2.3s-18.1,2.6-18.1,2.6s-30.7-0.6-40.9-3.8s1.5-19,18.1-17.5
	c6.1,0.5,10.2-0.8,12.9-2.7c2.9-2,4.9-5,5.6-8.4l36,2.1l5,12.8L648.6,730.5z"/>
<path class="st5" d="M642.4,719c0,0-41.8-6.8-47.2-12.3c2.9-2,4.9-5,5.6-8.4l36,2.1l5,12.8L642.4,719z"/>
<path class="st15" d="M580.4,479.6l0.4,62.4c0,0,1.5,46.9,1.5,53.3s0.2,20.7,0.2,20.7s3.2,17.5,5.1,23.2s3.4,32,3.4,32
	s4.5,7.2,2.6,10s7.5,8.7,7.5,8.7s-6,8.3-6.4,13.9s47.7,13.4,47.7,13.4L623.7,525l-14.9-48.2L580.4,479.6z"/>
<path class="st5" d="M669,734.4c-13.9,33.3-47,7.6-47,7.6s0-0.6-0.1-1.7c1.9-1.8,3.1-3,3.1-3l42.4-8.5
	C667.4,728.8,668.1,731.2,669,734.4z"/>
<path class="st13" d="M669.5,731.6c-13.7,35-47.5,8.7-47.5,8.7s-1.1-18.1,1.1-26.4s-2.3-33.3-2.3-33.3s-2.6-22.2-4.9-27.3
	s-2.1-15.3-2.1-16.2s0.8-7.7-1.1-12.4s-3-16.2-3-16.2s0-16.2-1.9-25.8l-6.6-33l-11.9-67.6l3.7-0.6l66.8-11.7c0,0,12.6,64,8.3,70.6
	c-0.9,1.4-1.7,4.6-2.4,8.7c-2.4,14.5-3.3,40.6-3.3,40.6s8.3,13,5.1,22.2s3,24.3,3,24.3s1.9,59.7-1.7,65.7S669.5,731.6,669.5,731.6z"
	/>
<path class="st16" d="M663.1,295.2c0,0-60.5,42.6-46.9,21.3c7.3-11.5,6-26.1,3.1-37.1c-1.5-5.6-3.5-11.1-6-16.3
	c0,0,51.4-21.9,44.6-2.3c-1.6,4.6-2.3,9.4-2,14.2C656.4,282.3,658.9,289.3,663.1,295.2z"/>
<path class="st16" d="M554.1,392.9c0,0-25.6-7.4-29.8-0.1s1.3,23.2,9,25.7s25.4-8.7,25.4-8.7L554.1,392.9z"/>
<path class="st17" d="M583.4,380.3l-10.7,9.8c0,0-18.5,1.7-23.9,0.4c0,0,4.9,32.8-2.1,36.9l43.1-8.7L583.4,380.3z"/>
<path class="st5" d="M446.5,239.4c0,17.7-14.3,32-32,32c-16.4-7.9-32-14.3-32-32c-0.7-17.7,13.1-32.5,30.7-33.2s32.5,13.1,33.2,30.7
	C446.5,237.7,446.5,238.5,446.5,239.4L446.5,239.4z"/>
<path class="st11" d="M446.5,238.5c0,17.6-14.3,31.9-31.9,32c-17.6,0-31.9-14.3-32-31.9c0-17.6,14.3-31.9,31.9-32
	c9.6,0,18.6,4.3,24.7,11.7C444,224,446.5,231.1,446.5,238.5z"/>
<path class="st5" d="M465.2,434.2c-3.2,2-6.5,3.7-9.9,5.1c0,0-16.2-2.4-18.5,0.4s-23,3.8-23,3.8s-31.5-1.5-36.2-5.5
	c-1.5-1.2-3.1-2.1-4.8-2.8l0.5-8.1c0,0,81.3-5.1,87.8,1.1C462.8,430,464.2,432,465.2,434.2z"/>
<path class="st12" d="M469.1,428.5c-0.6,3.6-13.9,9.2-13.9,9.2s-16.2-2.3-18.5,0.4c-2.3,2.8-23,3.8-23,3.8s-31.5-1.5-36.2-5.5
	s-15.1-6-15.1-6s-5.3-37.9-3.2-46.2c2.1-8.3-3.2-31.1-4.5-39.2s3.6-30.5,9.6-34.1s14.5-15.8,19.6-19.4c4.3-3,9.1-7,10.5-8.2l0.4-0.3
	c0,0,0.9-6.6,4.3-10s34.7,21.5,34.7,21.5s0.2,1.9,2.4-1.7c0.5-0.8,4.6,5.1,5.3,7.7c0,0,17.1,29.9,18.1,36s5.5,26.2,6.4,31.1
	c0.2,1.3,0.6,5.7,1,11.6c0.1,1.2,0.2,2.4,0.2,3.7c0.6,9.8,1.3,22.4,1.7,31.8c0,1.1,0.1,2.1,0.1,3.1
	C469.3,421.3,469.3,424.9,469.1,428.5z"/>
<path class="st5" d="M360.9,351.5c0,0,11.7,14.3,15.6,14.3C380.3,365.8,360.9,351.5,360.9,351.5z"/>
<path class="st5" d="M385.6,382.2c0,0-19.2,20.9-16.6,24.7S385.6,382.2,385.6,382.2z"/>
<path class="st5" d="M371.5,423.8c0,0,22-24.1,23-32.4L371.5,423.8z"/>
<path class="st5" d="M399.2,425.5c0,0,25.4-13.4,27.5-24.1S399.2,425.5,399.2,425.5z"/>
<path class="st5" d="M431.4,295.9l-3.5,8.5l5.9,2.8l5.8,16.1c0,0,15.9,31.8,15.2,48.3s2.9,41.4,2.9,41.4l9.2-1.7l-4.3-48.6
	c-0.7-7.5-2.6-14.9-5.6-21.8c-7.3-16.8-20.9-47.7-21.8-47.7c-1.2,0-0.4,0.4-0.4,0.4L431.4,295.9z"/>
<path class="st18" d="M432.3,295l-3.5,8.5l5.9,2.8l5.8,16.1c0,0,15.9,31.8,15.2,48.3s2.9,41.4,2.9,41.4l9.2-1.7l-4.3-48.6
	c-0.7-7.5-2.5-14.9-5.6-21.8c-7.3-16.8-20.9-47.7-21.8-47.7c-1.2,0-0.4,0.4-0.4,0.4L432.3,295z"/>
<path class="st11" d="M536.1,420.3c-4.5-0.3-15.2-5.8-19.4-8l-1.8-1l0.2-16.5c1.1-0.6,2.1-1.2,3.3-1.6c5.7-2.5,17.3-5.9,23.2,5
	C549.4,412.7,541.7,420.7,536.1,420.3z"/>
<path class="st5" d="M439.3,218.3c-0.5,0.3-1,0.5-1.5,0.6c-3.7,0.8-7.9-2.4-11.1-0.3c-1.9,1.3-2.4,3.9-2.6,6.2
	c-0.5,4-0.9,8-1.4,11.9c-0.1,1.4-0.4,2.8-0.9,4.1c-1.6,3.6-5.9,5.3-9.8,5.2c-1.5,0.1-3.1-0.4-4.2-1.4c-0.7-0.7-1.1-1.7-1.8-2.3
	c-5-4.2-6.5,6.1-5.2,9c2.1,4.8,9.7,9.4,6.5,15.4c-0.5,1-1.3,1.8-2.3,2.3c-16.9-5.3-26.3-23.2-21-40.1s23.2-26.3,40.1-21
	C430,209.8,435.3,213.4,439.3,218.3z"/>
<path class="st19" d="M405.1,242.2c0.8,0.6,1.1,1.6,1.8,2.3c1.2,1,2.7,1.5,4.2,1.4c3.9,0.1,8.2-1.6,9.8-5.2c0.5-1.3,0.8-2.7,0.9-4.1
	l1.4-11.9c0.3-2.3,0.7-4.9,2.6-6.2c3.2-2,7.4,1.1,11.1,0.3c2.8-0.7,4.5-3.4,4-6.3c-0.4-1.9-1.9-3.4-2.6-5.2
	c-0.5-1.4-0.8-2.8-1.1-4.3c-2.1-7.8-11.2-12.1-19.1-10.8c-4.4,0.7-8.5,2.8-12.9,3.5c-3.2,0.5-6.4,0.2-9.6,0.5
	c-3,0.3-5.8,1.2-8.5,2.5c-0.7,0.3-1.3,0.8-1.8,1.4c-0.5,0.8-0.8,1.7-0.9,2.6c-1.1,4-4.5,6.9-7,10.3c-2.8,3.9-4.5,8.5-4.7,13.3
	c-0.1,1.2,0,2.5,0.3,3.6c0.2,0.7,0.5,1.4,0.7,2.1c0.5,2.2-0.6,4.4-1.2,6.6c-0.7,2.8-0.4,5.7,0.7,8.3c3.8,8.8,16.5,11.8,19.1,21
	c2.3,1.1,4.9,1.8,7.4,2c2.6,0,5.4-1.1,6.6-3.4c3.2-6-4.4-10.7-6.5-15.4C398.6,248.3,400.1,238,405.1,242.2z"/>
<path class="st5" d="M658,260.8c-1.6,4.6-2.3,9.4-2,14.2c-1.5,1.3-3.2-2.6-5-1.6c-4.9,2.8-10.5,9.5-16.6,9.5
	c-5.2,0-10.4-1.2-15.1-3.6c-1.5-5.6-3.5-11.1-6-16.3C613.4,263.1,664.8,241.2,658,260.8z"/>
<path class="st16" d="M667.7,248.1c0,18.4-14.9,33.3-33.3,33.3c-18.4,0-33.3-14.9-33.3-33.3s14.9-33.3,33.3-33.3
	C652.8,214.8,667.7,229.7,667.7,248.1C667.7,248,667.7,248,667.7,248.1z"/>
<path class="st20" d="M666.2,302.6c0,0-6.3,6.8-7.1,7.4s-19,77-19.3,77.9s-21.6,69.9-21.6,69.9l-34.1,16.8l2.8-84.4l25-69.6
	c0,0,8.2-9.4,10.8-12.8s34.4-23.9,34.4-23.9l5.4,11.2L666.2,302.6z"/>
<path class="st5" d="M661.7,296.8l-39.2,28.1l-0.6-15.4c2.6-3.4,34.4-23.9,34.4-23.9L661.7,296.8z"/>
<path class="st20" d="M662.6,295.1l-39.2,28.1l-0.6-15.4c2.6-3.4,34.4-23.9,34.4-23.9L662.6,295.1z"/>
<path class="st17" d="M621.5,300.9l1.3,6.9l-8.8,8.9l7-15.7c0,0-15,10.5-19.5,13.2s-9,12.1-9.2,14.7s-7.2,41.1-7.2,41.1
	s-5.3,14.3-3.8,18.3S573.2,520,573.2,520c2.6-5,7.3-8.6,12.8-9.8l-3.4-75.5c0,0,4.2-50.2,4.4-50.8s9.7-29.7,9.7-29.7L621.5,300.9z"
	/>
<path class="st5" d="M623.6,308.6l-0.7,14c0,0-9.5,30-12.7,34.9s-12.9,34.1-12.9,34.1l-5.5,50.7l-9.4,4.3l-4.6-8.5l7.7-49
	c0,0,14.5-41.4,16.6-45.6l10.7-22.5L623.6,308.6z"/>
<path class="st21" d="M622.8,307.7l-0.7,14c0,0-9.5,30-12.7,34.9s-12.9,34.1-12.9,34.1l-5.4,50.7l-9.4,4.3l-4.7-8.5l7.7-49
	c0,0,14.5-41.4,16.6-45.6l10.8-22.5L622.8,307.7z"/>
<path class="st16" d="M512.2,414.6l18.3,12.7c0,0,12.9-7.2,5.4-11.9s-14.2-5.4-16.6-5.4S512.2,414.6,512.2,414.6z"/>
<path class="st16" d="M525.9,391.1c-0.8,0.5-1.3,1.4-1.3,2.4c0,3.9,0.4,14.2,3.7,9.5c4-5.7,3.3-10.8,9.4-7.1c3.8,2.4,7.1,5.4,9.8,9
	l-1.7-12.2C545.7,392.8,533.2,386.6,525.9,391.1z"/>
<path class="st5" d="M668,540.4c-0.9,1.4-1.7,4.6-2.4,8.7c-37.4,11.2-64.7-12.5-64.7-12.5c-3.3-11.2-6-22.6-8.1-34.1
	c-0.7-3.9-0.5-11.6,0.1-20.9l66.8-11.7C659.7,469.8,672.3,533.8,668,540.4z"/>
<path class="st17" d="M706.4,349.6c-1.7,5.5-1.1,16.8-1.1,16.8L690,438.9c0,0-7.5,55.9-8.7,63.3s-3.4,40.3-3.4,40.3
	c-43.5,21.3-77-7.7-77-7.7c-3.3-11.2-6-22.6-8.1-34.1c-2.1-12.7,4.2-63.4,7.1-85.9c0.9-6.7,1.5-10.9,1.5-10.9l11.2-41.6
	c0,0,13.8-35.1,18.9-45.3s25.7-33.2,25.7-33.2c2.5-1.6,6.6,4.1,9.7,9.3c2.3,3.9,4,7.6,4,7.6s25.6,11.1,29.4,17s3.2,18.1,3.6,18.8
	S708.1,344,706.4,349.6z"/>
<path class="st5" d="M646.1,323.8c0,0,1.9,11.3-3,14.7c-4.8,3.3-40.1,72.8-42.3,77.2c0.9-6.7,1.5-10.9,1.5-10.9l11.2-41.6
	c0,0,13.8-35.1,18.9-45.3s25.7-33.2,25.7-33.2c2.5-1.6,6.6,4.1,9.7,9.3C663.1,303.5,653.5,321.5,646.1,323.8z"/>
<path class="st17" d="M645.2,322.9c0,0,1.9,11.3-3,14.7s-40.1,72.8-42.3,77.2c0.9-6.7,1.5-10.9,1.5-10.9l11.2-41.6
	c0,0,13.8-35.1,18.9-45.3s25.7-33.2,25.7-33.2c2.5-1.6,6.6,4.1,9.7,9.3C662.2,302.6,652.7,320.6,645.2,322.9z"/>
<polygon class="st22" points="696,425 683.9,487.6 683.9,487.6 682.8,493.6 682.8,493.6 680.2,507.1 669.1,504.8 664,503.7 
	592.7,488.6 587.5,487.5 575.5,485 577.8,469.4 578.8,463 587.5,405.6 "/>
<path class="st16" d="M629.4,476.2c0,0-28.3,10.2-22.2,22.4s45.8-9.4,45.8-9.4L629.4,476.2z"/>
<path class="st5" d="M649.7,563.4c0,0.8,1.1,11.7,5.3,15.6S649.7,563.4,649.7,563.4z"/>
<path class="st5" d="M621.1,602c0,0,5.1,14.1,25.4,19.8S621.1,602,621.1,602z"/>
<path class="st5" d="M667.7,248.1c0,11.9-6.4,22.9-16.7,28.8c-1.9-1.1-3.6-2.5-5-4.2c-1.5-1.8-2.6-4.2-1.7-6.3
	c0.7-1.7,2.5-2.8,3-4.5c0.2-1.1,0.2-2.2-0.2-3.2c-0.4-1.6-0.7-3.3-1.1-4.9c-0.3-1.4-0.9-3-2.2-3.4s-2.5,0.8-3.6,1.7
	c-2.7,2.1-7.8,3.5-11,1.8s-2.3-7.5-2.8-10.6c0-0.6-0.3-1.1-0.7-1.4c-0.5-0.2-1-0.2-1.5-0.1c-1.7,0-3.1-1.5-3.6-3.2
	c-0.4-1.7-0.5-3.4-0.6-5.1c-0.2-1.7-0.8-3.6-2.3-4.5c-1.2-0.6-2.5-0.8-3.8-0.6l-6.3,0.1c10.9-14.8,31.8-17.9,46.5-7
	C662.6,227.7,667.6,237.6,667.7,248.1L667.7,248.1z"/>
<path class="st23" d="M641,252.1c1.1-0.9,2.3-2,3.6-1.7s1.9,2,2.2,3.4l1.1,4.9c0.3,1,0.4,2.2,0.2,3.2c-0.5,1.8-2.3,2.8-3.1,4.5
	c-0.9,2.1,0.3,4.5,1.7,6.2c2.6,3.2,6.3,5.3,10.3,6.1c1.1,0.3,2.1,0.3,3.2,0.1c2.4-0.5,4-2.7,5.3-4.8c6.6-10.3,12.3-21.6,13.5-33.8
	c0.3-2.5,0.2-5-0.3-7.5c-0.5-1.9-1.3-3.7-2.3-5.5c-1.7-3.5-3.9-6.8-6.4-9.7c-4.5-4.9-10.8-7.9-17.3-9.7c-7.3-2-14.8-2.6-22.3-1.7
	c-2,0.2-3.9,0.6-5.9,0.7c-2.5,0.1-5,0.1-7.4-0.1l-14.7-0.9c-0.8,1.7,0,3.7,1,5.3s2.2,3.3,2.2,5.2c-0.1,1.9-1.4,3.4-2.5,5
	s-1.8,3.7-0.8,5.2s3.2,1.7,5,1.6l7.4-0.1c1.3-0.1,2.6,0.1,3.8,0.6c1.5,0.9,2.1,2.7,2.3,4.5c0,1.7,0.2,3.5,0.6,5.1
	c0.5,1.7,1.9,3.2,3.6,3.2c0.5-0.1,1-0.1,1.5,0.1c0.4,0.3,0.7,0.9,0.7,1.4c0.5,3.1-0.4,8.9,2.8,10.6S638.4,254.2,641,252.1z"/>
<path class="st5" d="M683.3,317.8c-7.6-0.8-14.7,3.7-17.2,11c-4,11.4-10.7,31.9-9,40.1c2.3,11.5,5.1,30.7,5.1,30.7s12.2,7,6,14.1
	s-7.9,17.1-7.9,17.1s-7.9,3.4-9.6,10.7s-13.2,17.3-13.2,17.3l-17.3,17.3c0,0,28.6,29,34.3,30.5l17.7-20.7l20.9-27.7l18.1-19
	c0,0,4.3-10,2.1-29S703,372.8,703,372.8l0.6-6.4C703.7,366.4,705.6,320.5,683.3,317.8z"/>
<path class="st17" d="M685,317.8c-7.6-0.8-14.7,3.7-17.1,11c-4,11.4-10.7,31.9-9,40.1c2.3,11.5,5.1,30.7,5.1,30.7s12.2,7,6,14.1
	s-7.9,17.1-7.9,17.1s-7.9,3.4-9.6,10.7s-13.2,17.3-13.2,17.3l-17.3,17c0,0,28.6,29,34.3,30.5l17.7-20.7l20.8-27.7l18.1-19
	c0,0,4.3-10,2.1-29s-10.4-37.1-10.4-37.1l0.6-6.4C705.3,366.4,707.3,320.5,685,317.8z"/>
<path class="st5" d="M667.2,382.6c0,0,18.1,22.2,25.8,17.3S667.2,382.6,667.2,382.6z"/>
<path class="st5" d="M674,365.6c1.9,0.6,17.7,22.6,25.8,20S674,365.6,674,365.6z"/>
<path class="st5" d="M678.5,403.3c0,0,1.1,12.6,14.1,10.9S678.5,403.3,678.5,403.3z"/>
<polygon class="st5" points="621,301.8 614,317.5 622.8,308.6 "/>
<polygon class="st20" points="621,301 614,316.6 622.8,307.7 "/>
<polygon class="st24" points="592.7,488.6 587.5,487.5 577.8,469.4 578.8,463 "/>
<polygon class="st24" points="683.9,487.6 682.8,493.6 682.8,493.6 669.1,504.8 664,503.7 "/>
<path class="st5" d="M469,417.7c-2.6,0.4-5.2,0.8-7.5,1.1c-13,1.7-43.9-13.6-43.9-13.6s-37.7-31.5-48.6-61.4s13-34.3,13-34.3
	c9-5.1,28.6,9.2,31.3,11.5c2.8,2.4,5.1,8.3,4.9,12.1c-0.2,3.8,6.4,8.7,6.4,8.7s11.3,19.6,14.1,21.7s3.4,4,4.3,7.7
	c0.8,3.6,8.3,6.6,11.5,6.4s7,1.1,7,2.8c0,1.4,3.1,2,5.7,2.3C467.9,393.7,468.6,408,469,417.7z"/>
<path class="st5" d="M468.9,414.6c-2,0.3-3.9,0.6-5.7,0.9c-13,1.7-43.9-13.6-43.9-13.6s-37.7-31.5-48.6-61.4s13-34.3,13-34.3
	c9-5.1,28.6,9.2,31.3,11.5c2.8,2.4,5.1,8.3,4.9,12.1c-0.2,3.8,6.4,8.7,6.4,8.7s11.3,19.6,14.1,21.7s3.4,4,4.3,7.7s8.3,6.6,11.5,6.4
	s7,1.1,7,2.8c0,1,1.8,1.7,3.8,2c0.1,1.2,0.2,2.4,0.2,3.7C467.8,392.6,468.5,405.1,468.9,414.6z"/>
<path class="st5" d="M518.3,393.1l-0.8,19.2h-0.9l-1.8-1l0.2-16.5C516.1,394.2,517.2,393.6,518.3,393.1z"/>
<path class="st12" d="M382,307.8c0,0-23.9,4.5-13,34.3s48.6,61.4,48.6,61.4s30.9,15.3,43.9,13.6s32.8-6.2,35.4-5.5
	s19.8,0.6,19.8,0.6l0.8-20l-20-1.1l-10.2-2.1c0,0-3.6-3-5.8-2.6s-6.6-2.6-6.6-2.6s-3.4-2.8-6-2.8s-7.5-0.6-7.5-2.3s-3.8-3-7-2.8
	s-10.7-2.8-11.6-6.4s-1.5-5.5-4.3-7.7S424.4,340,424.4,340s-6.6-4.9-6.4-8.7c0.2-3.8-2.1-9.8-4.9-12.2
	C410.5,317,390.9,302.7,382,307.8z"/>
<path class="st5" d="M443.3,376.4c0,0-9.2,9.2-6.8,10.9L443.3,376.4z"/>
<path class="st5" d="M453.2,383.7c0,0-11.9,9.2-8.7,9.8S453.2,383.7,453.2,383.7z"/>
<path class="st5" d="M432.9,397.3c1.7,0.9,27.1,16,36.7,15.8L432.9,397.3z"/>
<path class="st5" d="M434.6,296.1c0,0-4.5,14.7-6.2,14.7c-1.3,0-23.8-18.2-33.2-25.9l0.4-0.3c0,0,0.9-6.6,4.3-10
	C403.3,271.2,434.6,296.1,434.6,296.1z"/>
<path class="st12" d="M433.8,294.4c0,0-4.5,14.7-6.2,14.7c-1.4,0-23.9-18.2-33.2-25.9l0.4-0.3c0,0,0.9-6.6,4.3-10
	C402.4,269.5,433.8,294.4,433.8,294.4z"/>
<g class="st25">
	<path d="M373.4,246.8L373.4,246.8c3,6.9,11.3,10.2,16,15.6C386.6,255.8,378.2,252.5,373.4,246.8z"/>
	<path d="M404,262.6c-1.2,2.3-4,3.4-6.6,3.4c-2.3-0.2-4.5-0.7-6.6-1.7c0.8,1.1,1.3,2.3,1.7,3.6c2.3,1.1,4.9,1.8,7.4,2
		c2.6,0.1,5.4-1,6.6-3.4c1.9-3.6-0.1-6.8-2.4-9.7C405,258.7,404.9,260.8,404,262.6z"/>
	<path d="M441.1,212.5c-0.4-1.9-1.9-3.4-2.6-5.2c-0.5-1.4-0.8-2.8-1.1-4.3c-0.6-2-1.6-3.9-3.1-5.5c0.2,0.5,0.4,1,0.5,1.5
		c0.3,1.5,0.7,2.9,1.1,4.3c0.8,1.8,2.2,3.3,2.6,5.2c0.5,2.8-1.2,5.6-4,6.3c-3.7,0.8-7.9-2.4-11.1-0.3c-2,1.2-2.4,3.9-2.7,6.2
		c-0.4,4-0.9,8-1.4,11.9c-0.1,1.4-0.4,2.8-0.9,4.1c-1.6,3.6-5.9,5.3-9.8,5.2c-1.5,0.1-3.1-0.4-4.2-1.4c-0.6-0.8-1.2-1.6-1.8-2.3
		c-5-4.2-6.5,6.1-5.2,9c0.7,1.3,1.5,2.6,2.4,3.7c-1.1-3.3,0.4-12.8,5.3-8.7c0.7,0.7,1.3,1.5,1.8,2.3c1.2,1,2.7,1.5,4.2,1.4
		c3.9,0.1,8.2-1.6,9.8-5.2c0.5-1.3,0.8-2.7,0.9-4.1c0.5-4,0.9-8,1.4-11.9c0.3-2.3,0.7-4.9,2.7-6.2c3.2-2.1,7.4,1.1,11.1,0.3
		C439.8,218,441.6,215.3,441.1,212.5z"/>
</g>
<path class="st5" d="M662.5,276.4c-1.1,0.2-2.2,0.2-3.2-0.1c-4-0.8-7.7-3-10.3-6.1c-1.5-1.8-2.6-4.2-1.7-6.3c0.7-1.7,2.5-2.8,3-4.5
	c0.2-1.1,0.1-2.2-0.2-3.2l-1.1-4.9c-0.3-1.4-0.8-3-2.2-3.4s-2.5,0.8-3.6,1.7c-2.7,2.1-7.8,3.5-11,1.8s-2.3-7.5-2.8-10.6
	c0-0.5-0.3-1.1-0.7-1.4c-0.5-0.2-1-0.2-1.5-0.1c-1.7,0-3.1-1.5-3.6-3.2c-0.3-1.7-0.5-3.4-0.6-5.1c-0.2-1.7-0.8-3.6-2.3-4.5
	c-1.2-0.6-2.5-0.8-3.8-0.6l-7.4,0.1c-1.8,0-4-0.1-5-1.6s-0.3-3.7,0.8-5.2c1-1.5,2.4-3.1,2.5-5s-1.2-3.6-2.2-5.2
	c-0.6-0.9-1-1.8-1.3-2.9l-2.1-0.1c-0.8,1.7,0,3.7,1,5.3s2.2,3.3,2.2,5.1c-0.1,1.9-1.4,3.4-2.5,5s-1.8,3.7-0.8,5.2s3.2,1.7,5,1.6
	l7.4-0.1c1.3-0.1,2.6,0.1,3.8,0.7c1.5,0.9,2.1,2.7,2.3,4.5c0,1.7,0.2,3.5,0.6,5.1c0.5,1.6,1.9,3.2,3.6,3.2c0.5-0.1,1,0,1.5,0.1
	c0.4,0.3,0.7,0.9,0.7,1.4c0.5,3.1-0.4,8.9,2.8,10.6s8.4,0.3,11-1.8c1.1-0.9,2.3-2,3.7-1.7s1.9,2,2.2,3.4l1.1,4.9
	c0.3,1,0.4,2.2,0.2,3.2c-0.5,1.8-2.3,2.8-3,4.5c-0.9,2.1,0.3,4.5,1.7,6.3c2.6,3.2,6.3,5.3,10.4,6.1c1.1,0.3,2.1,0.3,3.2,0.1
	c1.7-0.5,3.2-1.6,4.2-3.2C663.7,275.9,663.1,276.2,662.5,276.4z"/>
<ellipse class="st0" cx="203.7" cy="714.3" rx="24.2" ry="3.7"/>
<ellipse class="st0" cx="1047.6" cy="617.8" rx="24.2" ry="3.7"/>
<ellipse class="st0" cx="801.2" cy="767.3" rx="70" ry="10.7"/>
<ellipse class="st0" cx="1000.2" cy="721.8" rx="54.6" ry="8.4"/>
<ellipse class="st0" cx="991.2" cy="805.3" rx="92.6" ry="14.2"/>
<ellipse class="st0" cx="100.2" cy="817.8" rx="70" ry="10.7"/>
<path class="st26" d="M204.8,596.1c0,0,2.7,3.6-1.3,9s-7.3,10-6,13.3c0,0,6-10,11-10.2S210.2,602.2,204.8,596.1z"/>
<path class="st5" d="M204.8,596.1c0.2,0.3,0.4,0.7,0.6,1.1c4.8,5.6,7.4,10.9,2.7,11c-4.3,0.1-9.4,7.8-10.7,9.7
	c0,0.1,0.1,0.3,0.1,0.4c0,0,6-10,11-10.2S210.2,602.2,204.8,596.1z"/>
<path class="st27" d="M209.9,600.7c0,1.3-0.1,2.3-0.3,2.3s-0.3-1-0.3-2.3s0.2-0.7,0.4-0.7S209.9,599.4,209.9,600.7z"/>
<path class="st27" d="M211.6,602.2c-1.1,0.6-2.1,1-2.1,0.8s0.7-0.8,1.9-1.4s0.7-0.2,0.8,0S212.7,601.6,211.6,602.2z"/>
<path class="st26" d="M190.3,596.1c0,0-2.7,3.6,1.3,9s7.3,10,6,13.3c0,0-6-10-10.9-10.2S184.9,602.2,190.3,596.1z"/>
<path class="st5" d="M190.3,596.1c-0.2,0.3-0.4,0.7-0.6,1.1c-4.8,5.6-7.4,10.9-2.7,11c4.3,0.1,9.4,7.8,10.7,9.7
	c0,0.1-0.1,0.3-0.1,0.4c0,0-6-10-10.9-10.2S184.9,602.2,190.3,596.1z"/>
<path class="st27" d="M185.2,600.7c0,1.3,0.1,2.3,0.3,2.3s0.3-1,0.3-2.3s-0.2-0.7-0.4-0.7S185.2,599.4,185.2,600.7z"/>
<path class="st27" d="M183.5,602.2c1.1,0.6,2.1,1,2.2,0.8s-0.8-0.8-1.9-1.4s-0.7-0.2-0.8,0S182.4,601.6,183.5,602.2z"/>
<ellipse class="st0" cx="197.6" cy="641.5" rx="28.6" ry="4.4"/>
<path class="st28" d="M212.3,613.6l-0.1,1.1l-0.2,1.6l-0.1,0.7l-0.2,1.6l-0.1,0.7l-0.2,1.6l-2.2,18c-0.2,1.6-2.8,2.8-6,2.8h-11.3
	c-3.2,0-5.8-1.2-6-2.8l-2.2-18l-0.2-1.6l-0.1-0.7l-0.2-1.6l-0.1-0.7l-0.2-1.6l-0.1-1.1c-0.1-0.9,1.3-1.7,3.1-1.7h23.3
	C211,612,212.4,612.7,212.3,613.6z"/>
<polygon class="st29" points="212.2,614.8 212,616.3 183.1,616.3 183,614.8 "/>
<polygon class="st29" points="211.9,617 211.7,618.6 183.4,618.6 183.2,617 "/>
<polygon class="st29" points="211.6,619.2 211.4,620.8 183.7,620.8 183.5,619.2 "/>
<path class="st22" d="M1028.6,582.3c0,0-3.4,15.9,11.8,17.8l0.9-1.8C1041.3,598.3,1029.5,587.2,1028.6,582.3z"/>
<path class="st22" d="M1046.1,598.2l-3.5,0.8l-0.3,0.1c0,0-9.4-7.7-9.3-24.8c1.3,2.5,2.8,4.9,4.5,7.1
	C1041.2,586.3,1045.4,592.9,1046.1,598.2z"/>
<path class="st22" d="M1047.3,599.8c-0.6,0.4-1.3,0.5-1.9,0.2c-9.1-2.1-6-31.7-6-31.7c0.5,0.2,1,4,3.1,8.9
	C1046.2,585.8,1050.2,597.7,1047.3,599.8z"/>
<path class="st22" d="M1067.5,582.3c0,0,0.6,15.9-14.6,17.8l-0.9-1.8C1051.9,598.3,1066.5,587.2,1067.5,582.3z"/>
<path class="st22" d="M1063.1,574.3c0.1,17.1-12.1,24.8-12.1,24.8l-0.4-0.1l-3.5-0.8c0.7-5.2,5-11.8,8.7-16.8
	C1057.9,578.7,1060.3,576.3,1063.1,574.3z"/>
<path class="st22" d="M1050.6,598.3c-0.5,0.7-1.2,1.2-2,1.5l0,0c-0.2,0.1-0.5,0.2-0.8,0.2c-2.2,0.5-3-1.1-2.9-3.8
	c0.2-4.9,3.3-13.3,6-19.7c1.3-3.1,3.3-5.9,5.7-8.2C1056.6,568.4,1056.5,591.4,1050.6,598.3z"/>
<path class="st22" d="M1048,558c0,0-10.1,36-1.4,41.4S1050.2,561.2,1048,558z"/>
<path class="st5" d="M1028.6,582.3c0,0-3.4,15.9,11.8,17.8l0.9-1.8C1041.3,598.3,1029.5,587.2,1028.6,582.3z"/>
<path class="st5" d="M1046.1,598.2l-3.5,0.8l-0.3,0.1c0,0-9.4-7.7-9.3-24.8c1.3,2.5,2.8,4.9,4.5,7.1
	C1041.2,586.3,1045.4,592.9,1046.1,598.2z"/>
<path class="st5" d="M1047.3,599.8c-0.6,0.4-1.3,0.5-1.9,0.2c-9.1-2.1-6-31.7-6-31.7c0.5,0.2,1,4,3.1,8.9
	C1046.2,585.8,1050.2,597.7,1047.3,599.8z"/>
<path class="st5" d="M1067.5,582.3c0,0,0.6,15.9-14.6,17.8l-0.9-1.8C1051.9,598.3,1066.5,587.2,1067.5,582.3z"/>
<path class="st5" d="M1063.1,574.3c0.1,17.1-12.1,24.8-12.1,24.8l-0.4-0.1l-3.5-0.8c0.7-5.2,5-11.8,8.7-16.8
	C1057.9,578.7,1060.3,576.3,1063.1,574.3z"/>
<path class="st5" d="M1050.6,598.3c-0.5,0.7-1.2,1.2-2,1.5l0,0c-0.2,0.1-0.5,0.2-0.8,0.2c-2.2,0.5-3-1.1-2.9-3.8
	c0.2-4.9,3.3-13.3,6-19.7c1.3-3.1,3.3-5.9,5.7-8.2C1056.6,568.4,1056.5,591.4,1050.6,598.3z"/>
<path class="st5" d="M1048,558c0,0-10.1,36-1.4,41.4S1050.2,561.2,1048,558z"/>
<path class="st30" d="M1028.6,582.3c0,0-2,15.9,13.2,17.8l0.9-1.8C1042.7,598.3,1029.5,587.2,1028.6,582.3z"/>
<path class="st30" d="M1047.5,598.2l-3.5,0.8l-0.3,0.1c0,0-10.8-7.7-10.8-24.7c0,0,2.8,3,5.9,7.1
	C1042.6,586.3,1046.8,592.9,1047.5,598.2z"/>
<path class="st5" d="M1047.5,598.2l-3.5,0.8c-3.3-2.9-4.7-10.6-5.2-17.5C1042.6,586.3,1046.8,592.9,1047.5,598.2z"/>
<path class="st30" d="M1048.7,599.8c-0.6,0.4-1.3,0.5-1.9,0.2c-9.1-2.1-7.4-31.7-7.4-31.7c0.5,0.2,2.5,4,4.6,8.9
	C1047.6,585.8,1051.7,597.7,1048.7,599.8z"/>
<path class="st30" d="M1067.5,582.3c0,0,2,15.9-13.2,17.8l-0.9-1.8C1053.3,598.3,1066.5,587.2,1067.5,582.3z"/>
<path class="st30" d="M1063.1,574.3c0.1,17.1-10.7,24.8-10.7,24.8l-0.3-0.1l-3.5-0.8c0.7-5.2,5-11.8,8.7-16.8
	C1060.3,577.3,1063.1,574.3,1063.1,574.3z"/>
<path class="st5" d="M1057.2,581.4c-0.5,6.5-1.6,13.6-4.5,16.9c-0.2,0.2-0.4,0.5-0.7,0.7l-3.5-0.8
	C1049.2,592.9,1053.4,586.3,1057.2,581.4z"/>
<path class="st30" d="M1052,598.3c-0.5,0.7-1.2,1.2-2,1.5l0,0c-0.2,0.1-0.5,0.2-0.7,0.2c-2.2,0.5-3-1.1-2.9-3.8
	c0.2-4.9,3.3-13.3,6-19.7c2-4.5,3.8-8,4.3-8.2C1056.6,568.4,1057.9,591.4,1052,598.3z"/>
<path class="st5" d="M1048.7,599.8c-0.5,0-1-0.2-1.4-0.5c-4.3-2.7-4.4-12.6-3.3-22.1C1047.6,585.8,1051.7,597.7,1048.7,599.8z"/>
<path class="st5" d="M1052,598.3c-0.5,1.1-1.2,1.6-2,1.5l0,0c-0.4-0.1-0.9-0.2-1.2-0.5c-1.1-0.8-2-1.9-2.4-3.1
	c0.2-4.9,3.3-13.3,6-19.7C1053.3,585.4,1053.6,594.7,1052,598.3z"/>
<path class="st30" d="M1048,558c0,0-8.7,36,0,41.4S1050.2,561.2,1048,558z"/>
<polygon class="st31" points="1064.8,597.6 1028.4,597.6 1028.4,603.6 1034,603.6 1034.1,604.3 1036.3,616 1057.4,616 1059.7,604.3 
	1059.8,603.6 1064.8,603.6 "/>
<polygon class="st32" points="1064.8,597.6 1028.4,597.6 1028.4,603.6 1034,603.6 1034.1,604.3 1036.3,616 1057.4,616 1059.7,604.3 
	1059.8,603.6 1064.8,603.6 "/>
<polygon class="st33" points="1061.7,601.1 1061.1,604.3 1058.9,616 1037.8,616 1035.5,604.3 1034.9,601.1 "/>
<polygon class="st5" points="1061.7,601.1 1061.1,604.3 1035.5,604.3 1034.9,601.1 "/>
<rect x="1029.8" y="597.6" class="st33" width="36.3" height="6"/>
<path class="st22" d="M139.4,700.4c-1,1.3-1.7,2.8-2.3,4.3c-0.1,0.4-0.3,0.8-0.4,1.2c-0.3-0.1-0.5-0.2-0.8-0.3
	c-1.2-0.3-2.4-0.4-3.6-0.3c0-0.5,0.1-1,0.1-1.5c0.1-5.3-0.5-12.6-5.5-9.5c-4.8,3-1.4,8,1.7,11.2c0.3,0.3,0.5,0.5,0.8,0.8
	c-2.8,2-3.4,6.7-3.9,11.6s-4.6,10.3-7.4,13.3c-0.3,0.3-0.5,0.6-0.8,0.8c-2.3-1.8-5.2-2.6-8.1-2.1c-0.1-0.4-0.2-0.9-0.4-1.3
	c-2.2-8.1-6.9-22.1-12.8-25.2l0.8-1c2.5-3.3,5.4-8.2,1.2-9.4s-4.6,4.2-4.3,8.4c0,0.5,0.1,1,0.1,1.5c-1.7,0.1-3.3,0.9-4.4,2.1
	l-0.6-0.8c-3.4-4-9.6-10.4-11.5-5.6c-1.8,4.5,3.7,10.3,7.6,13.7l0.2,0.2c-2.6,10.5,8.7,19.1,14.8,22.8l0.8,0.5
	c-8.4,9.9-13.6,28.5-13.6,28.5l23.5,4.2c0,0,15.6-13.5,13.6-26.1h0.2c15.6-3.1,19.1-19.7,16.7-29.6l0.3-0.1c2.8-1.2,5.3-3,7.2-5.5
	C153,701.3,143.9,694.5,139.4,700.4z"/>
<path class="st5" d="M139.4,700.4c-1,1.3-1.7,2.8-2.3,4.3c-0.1,0.4-0.3,0.8-0.4,1.2c-0.3-0.1-0.5-0.2-0.8-0.3
	c-1.2-0.3-2.4-0.4-3.6-0.3c0-0.5,0.1-1,0.1-1.5c0.1-5.3-0.5-12.6-5.5-9.5c-4.8,3-1.4,8,1.7,11.2c0.3,0.3,0.5,0.5,0.8,0.8
	c-2.8,2-3.4,6.7-3.9,11.6s-4.6,10.3-7.4,13.3c-0.3,0.3-0.5,0.6-0.8,0.8c-2.3-1.8-5.2-2.6-8.1-2.1c-0.1-0.4-0.2-0.9-0.4-1.3
	c-2.2-8.1-6.9-22.1-12.8-25.2l0.8-1c2.5-3.3,5.4-8.2,1.2-9.4s-4.6,4.2-4.3,8.4c0,0.5,0.1,1,0.1,1.5c-1.7,0.1-3.3,0.9-4.4,2.1
	l-0.6-0.8c-3.4-4-9.6-10.4-11.5-5.6c-1.8,4.5,3.7,10.3,7.6,13.7l0.2,0.2c-2.6,10.5,8.7,19.1,14.8,22.8l0.8,0.5
	c-8.4,9.9-13.6,28.5-13.6,28.5l23.5,4.2c0,0,15.6-13.5,13.6-26.1h0.2c15.6-3.1,19.1-19.7,16.7-29.6l0.3-0.1c2.8-1.2,5.3-3,7.2-5.5
	C153,701.3,143.9,694.5,139.4,700.4z"/>
<path class="st34" d="M92.6,707.3l-2.8,8c0,0-1.5-1.1-3.5-2.8c-3.9-3.4-9.4-9.2-7.6-13.7c1.9-4.8,8.1,1.5,11.5,5.6
	C91.7,706,92.6,707.3,92.6,707.3z"/>
<path class="st34" d="M98.4,702.6c-0.8,1.1-1.7,2.2-2.7,3.2c-0.2-1.4-0.4-2.8-0.5-4.2c-0.2-4.1,0.2-9.6,4.3-8.4
	S100.9,699.3,98.4,702.6z"/>
<path class="st34" d="M133.9,703.9c-0.1,2.7-0.3,4.8-0.3,4.8c-1.2-0.9-2.4-2-3.4-3.1c-3.1-3.2-6.6-8.2-1.7-11.2
	C133.4,691.3,134,698.6,133.9,703.9z"/>
<path class="st34" d="M150.1,707.4c-1.9,2.4-4.4,4.3-7.2,5.5c-0.8,0.3-1.6,0.6-2.4,0.9l-3.2-4.5c0.3-1.5,0.8-3,1.3-4.4
	c0.6-1.5,1.3-3,2.3-4.3C145.3,694.5,154.4,701.3,150.1,707.4z"/>
<path class="st5" d="M90.3,704.4c1.4,1.6,2.3,2.8,2.3,2.8l-2.8,8c0,0-1.5-1.1-3.5-2.8c0.4-2.6,1.5-5,3.1-7.1
	C89.7,705.1,90,704.7,90.3,704.4z"/>
<path class="st5" d="M98.4,702.6c-0.8,1.1-1.7,2.2-2.7,3.2c-0.2-1.4-0.4-2.8-0.5-4.2C96.3,701.6,97.5,702,98.4,702.6z"/>
<path class="st35" d="M111.9,734.6l-6.8,3c0,0-1.5-0.7-3.6-2.1c-7.2-4.4-21.6-15.5-12-28.7s17.8,10.4,21,21.9
	C111.4,732.3,111.9,734.6,111.9,734.6z"/>
<path class="st5" d="M130.1,705.6c1-1,2.3-1.6,3.8-1.7c-0.1,2.7-0.3,4.8-0.3,4.8C132.3,707.7,131.1,706.7,130.1,705.6z"/>
<path class="st5" d="M142.9,712.8c-0.8,0.3-1.6,0.6-2.4,0.9l-3.2-4.5c0.3-1.5,0.8-3,1.3-4.4C140.6,706,142.2,709,142.9,712.8z"/>
<path class="st35" d="M125.9,742.6c-0.4,0.1-0.8,0.2-1.1,0.2c-22.9,3.5-7.6-8.9-7.6-8.9s1-1,2.4-2.5c2.8-3,6.9-8.4,7.4-13.3
	c0.7-7.4,1.6-14.4,10.3-12.4C145.9,707.7,147.6,738.2,125.9,742.6z"/>
<rect x="81.7" y="799.7" class="st36" width="43.8" height="11.5"/>
<rect x="74.7" y="762.2" class="st36" width="57.2" height="40.2"/>
<rect x="81.7" y="799.7" class="st5" width="43.8" height="11.5"/>
<rect x="74.7" y="762.2" class="st5" width="57.2" height="40.2"/>
<rect x="84.5" y="799.7" class="st36" width="43.8" height="11.5"/>
<path class="st5" d="M110.4,728.8c1,3.4,1.5,5.8,1.5,5.8l-6.8,3c0,0-1.5-0.7-3.6-2.1C104.1,732.1,107.1,729.6,110.4,728.8z"/>
<path class="st5" d="M125.9,742.6c-0.4,0.1-0.8,0.2-1.1,0.2c-22.9,3.5-7.6-8.9-7.6-8.9s1-1,2.4-2.5
	C123.9,734.8,125.7,738.7,125.9,742.6z"/>
<path class="st35" d="M88.6,764.5c0,0,12.8-46,30.9-31.8s-7.3,36-7.3,36L88.6,764.5z"/>
<circle class="st5" cx="95.1" cy="714.1" r="1.4"/>
<circle class="st5" cx="95" cy="720.8" r="1.4"/>
<circle class="st5" cx="136.7" cy="715.4" r="1.4"/>
<circle class="st5" cx="103.1" cy="749.8" r="1.4"/>
<circle class="st5" cx="133.7" cy="726.6" r="1.4"/>
<circle class="st5" cx="118.9" cy="741.5" r="1.4"/>
<circle class="st5" cx="100" cy="717" r="1.4"/>
<circle class="st5" cx="132.8" cy="719.7" r="1.4"/>
<circle class="st5" cx="127.9" cy="730.9" r="1.4"/>
<circle class="st5" cx="112.7" cy="748.8" r="1.4"/>
<circle class="st5" cx="109.6" cy="741.7" r="1.4"/>
<circle class="st5" cx="102.2" cy="725.7" r="1.4"/>
<rect x="84.5" y="799.7" class="st5" width="43.8" height="4.2"/>
<rect x="77.6" y="762.2" class="st36" width="57.2" height="40.2"/>
<circle class="st5" cx="114.7" cy="755.2" r="1.4"/>
<circle class="st5" cx="106" cy="757" r="1.4"/>
<circle class="st0" cx="50" cy="52" r="10.5"/>
<circle class="st0" cx="1054.6" cy="381.1" r="14"/>
<circle class="st0" cx="1081.6" cy="351.1" r="10.2"/>
<circle class="st0" cx="68" cy="14" r="14"/>
<circle class="st0" cx="14" cy="78" r="14"/>
</svg>
