<?xml version="1.0" encoding="utf-8"?>
<!-- Generator: Adobe Illustrator 22.0.1, SVG Export Plug-In . SVG Version: 6.00 Build 0)  -->
<svg version="1.1" id="_x31_c51936f-ad83-4493-a1e8-5a7ca1846cda"
	 xmlns="http://www.w3.org/2000/svg" xmlns:xlink="http://www.w3.org/1999/xlink" x="0px" y="0px" viewBox="0 0 1164.1 555.9"
	 style="enable-background:new 0 0 1164.1 555.9;" xml:space="preserve">
<style type="text/css">
	.st0{opacity:0.1;fill:#0D8CD8;enable-background:new    ;}
	.st1{fill:#EAECF0;}
	.st2{fill:#3A3768;}
	.st3{opacity:0.1;enable-background:new    ;}
	.st4{fill:#8282BC;}
	.st5{fill:#F9E1E5;}
	.st6{fill:#E2B3BF;}
	.st7{fill:#DFE6F5;}
	.st8{opacity:0.15;enable-background:new    ;}
	.st9{fill:#838396;}
	.st10{fill:#D1D9EC;}
	.st11{fill:#4C4C56;}
	.st12{fill:#9E9EAF;}
	.st13{fill:#74BEE2;}
	.st14{fill:url(#SVGID_1_);}
	.st15{fill:url(#SVGID_2_);}
	.st16{fill:#D38884;}
	.st17{fill:#A36468;}
	.st18{fill:#ADADAD;}
	.st19{fill:#C9CBD3;}
	.st20{fill:#67647E;}
	.st21{fill:#B6B6B7;}
	.st22{fill:#7F7F84;}
	.st23{fill:#5B5A63;}
	.st24{fill:#BCBCBC;}
	.st25{fill:#777484;}
	.st26{opacity:0.1;}
	.st27{fill:#D3DAE1;}
	.st28{fill:#D48A9B;}
	.st29{fill:#FFFFFF;}
	.st30{fill:#D5E1F4;}
	.st31{fill:url(#SVGID_3_);}
	.st32{fill:#EFB7B9;}
	.st33{opacity:5.000000e-02;enable-background:new    ;}
	.st34{fill:#585759;}
	.st35{fill:#C9C7C7;}
	.st36{fill:#B7B7B7;}
	.st37{fill:#818084;}
	.st38{opacity:0.7;}
	.st39{fill:#891866;}
	.st40{fill:#FF2BC2;}
	.st41{fill:#F29CDE;}
	.st42{fill:#EF9552;}
	.st43{fill:#E2823B;}
	.st44{fill:#EFCA7F;}
	.st45{fill:#FDD231;}
	.st46{fill:#F9DA78;}
	.st47{fill:#F4C973;}
	.st48{fill:#FEEEB7;}
</style>
<title>design tools</title>
<path class="st0" d="M1141.8,353.8h-85.4V245.1h38c-0.9-1.1-1.9-2.2-2.8-3.4h-35.1v-34.6c-7.1-6-14.4-11.8-22-17.3v52h-197V127.5
	h87.8c-2.5-1.1-4.9-2.2-7.4-3.4h-80.4V93c-7.3-2.4-14.7-4.8-22-7v38H534.3l-0.7-0.6L615,46.2c-9-1-17.9-1.9-26.9-2.7L531.7,97V39.6
	c-7.3-0.4-14.7-0.7-22-1v62.1L443,37.3c-9.9,0-19.7,0.1-29.6,0.2l90.6,85.9l-0.7,0.6H233.8V48c-7.3,0.9-14.7,2-22,3.1v73H38.6
	c-0.9,1.1-1.8,2.2-2.7,3.4h175.9v114.3H29.6c0.6,1.1,1.3,2.3,1.9,3.4h180.3v108.7h-88.7c-1.2,1.2-2.4,2.3-3.7,3.4h92.4v111.2
	c7.3,1,14.7,2.1,22,3.3V357.1h275.9v139.3c7.3,0,14.7,0.1,22,0.3V357.1h283.7v170.6l0.9,0.1c7,0.8,14.1,1.5,21.1,2.2V357.1h196.9
	v168.6c1.7-0.3,3.4-0.6,5-1s3.1-0.6,4.7-1c4.1-0.9,8.2-1.8,12.3-2.8V357.1h86.1C1142.2,356,1142,354.9,1141.8,353.8z M509.7,353.8
	H233.8V245.1h275.9V353.8z M509.7,241.8H233.8V127.5h272l3.9,3.1L509.7,241.8z M815.4,353.8H531.7V245.1h283.7V353.8z M815.4,241.8
	H531.7V127.5h283.7V241.8z M1034.3,353.8H837.4V245.1h196.9V353.8z"/>
<path class="st1" d="M297.2,507.2c0,0.1-0.1,0.2-0.1,0.3l0,0C297.1,507.4,297.2,507.3,297.2,507.2L297.2,507.2z"/>
<path class="st1" d="M302.4,502.4h-2.8h-0.1h-3.3l-4.6,0.1l-0.5-5.3l-0.5-5l-2.2-22.8l-0.1-0.7v-0.3l-0.6-6.4l9.3-3.5l1.1,9.3
	l0.1,0.7v0.1l2.3,18.9l0.7,5.8l0.4,3.4l0.4,2.9v0.1L302.4,502.4z"/>
<polygon class="st2" points="335.9,507.2 336,507.5 335.3,507.5 335.2,507.2 "/>
<path class="st2" d="M421.4,507.5L421.4,507.5L421.4,507.5z"/>
<path class="st2" d="M480.8,375.4c0,0.2,0,0.3,0,0.3v0.1c0,0-8.7,23.8-11.6,44.2c-0.2,1.3-0.4,2.7-0.5,4c-0.1,1.4-0.2,2.8-0.3,4.1
	c-0.1,1.6-0.1,3.1-0.1,4.5c0,0.3,0,0.7,0,1c0,0.7,0.1,1.4,0.1,2.1s0.1,1.4,0.2,2.2s0.1,1.4,0.2,2.1c2.1,22,10.3,54.2,10.3,54.2
	s0.3,0.9,0.6,2.3h-2.3c-14.1,0.2-28.2,0.6-42.3,1.1l-2.5,0.1h-0.8c-30,1.1-60,2.5-89.9,3.5l-7.3,0.2h-1.1
	c-10.4,0.3-20.8,0.6-31.2,0.8h-2.8c0.7-1,1.5-1.9,2.4-2.7c0.8-0.7,1.6-1.3,2.5-1.9c4.8-3,9.9-5.2,15.4-6.6c1.1-0.3,2.3-0.5,3.5-0.4
	l7,0.1h1.1l10.7,0.2l92.1,1.8h0.2l0.6-0.1c1.1-0.3,2.1-0.6,3.1-1.1c3.5-1.5,6-4.7,6.6-8.5c0-0.3,0.1-0.6,0.1-1c0-0.5,0-1,0-1.5
	c0-0.3,0-0.7-0.1-1.1s-0.1-0.7-0.2-1.1c-2.2-12.4-6-50.6-6-50.6v0.1c0,0,0-1.6,0.1-4.4c0-0.2,0-0.4,0-0.7v-0.6c0-0.6,0.1-1.3,0.1-2
	c0-0.4,0.1-0.9,0.1-1.3c0-0.7,0.1-1.4,0.2-2.1c0,0,0-0.1,0-0.1c0-0.5,0.1-0.9,0.1-1.4c0.1-0.7,0-0.1,0-0.2
	c1.5-14.8,6.2-38.1,21-46.8c7-4.1,11.5-4.9,14.6-4.1c4.4,1.2,5.5,5.8,5.8,8.8c0,0.2,0,0.4,0,0.6
	C480.7,374.3,480.8,374.9,480.8,375.4z"/>
<path class="st3" d="M297.2,507.2c0,0.1-0.1,0.2-0.1,0.3l0,0C297.1,507.4,297.2,507.3,297.2,507.2L297.2,507.2z"/>
<polygon class="st3" points="335.9,507.2 336,507.5 335.3,507.5 335.2,507.2 "/>
<path class="st3" d="M421.4,507.5L421.4,507.5L421.4,507.5z"/>
<path class="st3" d="M480.8,375.4c0,0.2,0,0.3,0,0.3s-7.2,19.7-10.6,38.5l0,0c-0.2,1.3-0.5,2.6-0.7,3.9c-0.1,0.6-0.2,1.3-0.3,1.9
	c-0.2,1.3-0.4,2.7-0.5,4c-0.1,1.4-0.2,2.8-0.3,4.1c-0.1,1.6-0.1,3.1-0.1,4.5c0,0.3,0,0.7,0,1c0,0.7,0.1,1.4,0.1,2.1s0.1,1.4,0.2,2.2
	s0.1,1.4,0.2,2.1s0.1,1.4,0.2,2.1c0.3,2.8,0.7,5.8,1.2,8.8c3.1,20.4,8.9,43.2,8.9,43.2s0.3,0.9,0.6,2.5l0,0h-2.3
	c-14.1,0.2-28.2,0.6-42.3,1.1l-2.5,0.1h-0.8c-30,1.1-60,2.5-89.9,3.5l-7.3,0.2h-1.1c-10.4,0.3-20.8,0.6-31.2,0.8h-2.8h-0.1
	c0.7-1,1.6-2,2.5-2.8c0.8-0.7,1.6-1.4,2.5-1.9c4.8-3,9.9-5.2,15.4-6.6c1.1-0.3,2.3-0.4,3.5-0.4l7,0.1h1.1l10.8,0.2l92.2,1.8h0.2
	c0,0,0.3,0,0.7-0.2c1.1-0.3,2.1-0.6,3.1-1.1c3.4-1.5,5.9-4.6,6.5-8.3c0-0.3,0.1-0.6,0.1-1c0-0.5,0-1,0-1.5c0-0.3,0-0.7-0.1-1.1
	s-0.1-0.8-0.2-1.2c-2.2-12.4-6-50.6-6-50.6s0-1.6,0.1-4.4c0-0.2,0-0.4,0-0.7v-0.6c0-0.6,0.1-1.3,0.1-2c0-0.4,0.1-0.9,0.1-1.3
	c0-0.7,0.1-1.4,0.2-2.1c0,0,0-0.1,0-0.1c0-0.5,0.1-0.9,0.1-1.4c0.1-0.7,0-0.1,0-0.2c0.2-1.8,0.4-3.8,0.7-5.9
	c2.1-14.5,7.3-33.4,20.2-41c6.8-4,11.3-4.8,14.3-4.2c4.7,1.1,5.8,5.9,6,8.9c0,0.2,0,0.4,0,0.6C480.7,374.1,480.8,374.8,480.8,375.4z
	"/>
<path class="st2" d="M297.2,507.2c0,0.1-0.1,0.2-0.1,0.3l0,0C297.1,507.4,297.2,507.3,297.2,507.2L297.2,507.2z"/>
<polygon class="st2" points="335.9,507.2 336,507.5 335.3,507.5 335.2,507.2 "/>
<path class="st2" d="M421.4,507.5L421.4,507.5L421.4,507.5z"/>
<path class="st4" d="M478.2,374.6c0,0-13,35.7-12.4,57s10.8,61.4,10.8,61.4s0.4,1.4,0.9,3.7c-14.1,0.2-28.2,0.6-42.3,1.1l-2.5,0.1
	h-0.8c-30,1.1-60,2.5-89.9,3.5l-7.3,0.2h-1.1c-10.4,0.3-20.8,0.6-31.2,0.8h-2.8h-0.1h-3.3c1.4-2.3,3.3-4.3,5.5-5.8l0.3-0.2
	c4.8-2.9,9.9-5.1,15.3-6.4c1.1-0.3,2.3-0.4,3.5-0.4l9.2,0.2h1.1l11.1,0.2l89.8,1.8c1.3-0.2,2.5-0.6,3.7-1.2c0.4-0.2,0.8-0.4,1.1-0.6
	l0,0c1.1-0.6,2.1-1.5,3-2.5c1.9-2.2,3.1-5.3,2.3-10c-2.2-12.4-6-50.6-6-50.6s-0.6-46.5,21.6-59.5c9-5.3,14.1-5.1,16.9-3
	c0.1,0.1,0.2,0.1,0.2,0.2C478.9,367.6,478.2,374.6,478.2,374.6z"/>
<path class="st1" d="M119.1,462.1l-0.4,3.7l-2.2,22.9c-3.4-0.7-6.8-1.5-10.2-2.2l2.6-20.8l0.9-7.1L119.1,462.1z"/>
<polygon class="st5" points="55.1,454.7 109.6,338.8 329,355.9 349.2,454.7 "/>
<polygon class="st6" points="55.1,464.8 55.1,454.7 349.2,454.7 349.2,469.5 "/>
<path class="st7" d="M138,437.8l131.6,2.7c1,0,1.8-0.8,1.9-1.8c0-0.2,0-0.4-0.1-0.6l-20.5-55.3l-88.6-1.7L136,434.7
	c-0.5,1.1,0,2.4,1.1,2.9C137.4,437.7,137.7,437.8,138,437.8z"/>
<path class="st8" d="M138,437.8l131.6,2.7c1,0,1.8-0.8,1.9-1.8c0-0.2,0-0.4-0.1-0.6l-20.5-55.3l-88.6-1.7L136,434.7
	c-0.5,1.1,0,2.4,1.1,2.9C137.4,437.7,137.7,437.8,138,437.8z"/>
<path class="st7" d="M137,435.5l132.9,2.8l-18.1-54.7c-0.6-1.8-2.3-3.1-4.2-3.1l-85.4-1.6L137,435.5z"/>
<path class="st9" d="M148,423.1l15.9-35c0.7-1.5,2.2-2.5,3.9-2.5h39.6c2.3,0,4.2,1.9,4.2,4.2v37.9c0,2.3-1.9,4.2-4.2,4.2
	c-0.1,0-0.1,0-0.2,0l-55.5-2.8c-2.3-0.1-4.1-2.1-4-4.4C147.6,424.1,147.7,423.6,148,423.1z"/>
<path class="st10" d="M226,418.6l0.7-20c0-1.7,1.4-3,3.1-3h11.7c1.5,0,2.7,1.1,3,2.5l3.4,19.9c0.3,1.7-0.8,3.3-2.5,3.5
	c-0.2,0-0.3,0-0.5,0l-15.8,0.1C227.4,421.8,226,420.4,226,418.6C226,418.7,226,418.7,226,418.6z"/>
<path class="st11" d="M71,288.5l44.1-3.7c1.3-0.2,2.6,0.5,3.1,1.8L160,381l-23.3,52.3c0.7-1.6,1.3,11.1-4,0.1L66.4,295.1
	C65.5,293.2,69,288.8,71,288.5z"/>
<path class="st8" d="M71,288.5l44.1-3.7c1.3-0.2,2.6,0.5,3.1,1.8L160,381l-23.3,52.3c0.7-1.6,1.3,11.1-4,0.1L66.4,295.1
	C65.5,293.2,69,288.8,71,288.5z"/>
<path class="st12" d="M71,288.5l46.4-5.9c1.3-0.2,2.6,0.5,3.1,1.8l41.7,94.4L137,435.5L68.7,292.8c-0.7-1.5-0.1-3.3,1.4-4
	C70.4,288.7,70.7,288.6,71,288.5z"/>
<path class="st13" d="M82.6,295.2l33.5-5.2c1.4-0.2,2.7,0.5,3.2,1.8l35.1,85.9c0.3,0.7,0.3,1.5-0.1,2.2l-16.1,33.6
	c-0.6,1.4-2.2,1.9-3.6,1.3c-0.6-0.3-1-0.7-1.3-1.3l-53.1-114c-0.7-1.5-0.1-3.3,1.4-4C82,295.3,82.3,295.2,82.6,295.2z"/>
<linearGradient id="SVGID_1_" gradientUnits="userSpaceOnUse" x1="439.4" y1="-123.55" x2="439.4" y2="-123.55" gradientTransform="matrix(1 0 0 -1 -17.96 383.97)">
	<stop  offset="0" style="stop-color:#808080;stop-opacity:0.25"/>
	<stop  offset="0.54" style="stop-color:#808080;stop-opacity:0.12"/>
	<stop  offset="1" style="stop-color:#808080;stop-opacity:0.1"/>
</linearGradient>
<path class="st14" d="M421.4,507.5L421.4,507.5L421.4,507.5z"/>
<linearGradient id="SVGID_2_" gradientUnits="userSpaceOnUse" x1="186.8775" y1="22.4794" x2="458.12" y2="22.4794" gradientTransform="matrix(1 0 0 -1 -17.96 383.97)">
	<stop  offset="0" style="stop-color:#808080;stop-opacity:0.25"/>
	<stop  offset="0.54" style="stop-color:#808080;stop-opacity:0.12"/>
	<stop  offset="1" style="stop-color:#808080;stop-opacity:0.1"/>
</linearGradient>
<path class="st15" d="M440.2,488.6c0,0-0.7,1.1-1.7,3l-0.1,0.2c-0.9,1.6-2,3.7-3.1,6l-2.5,0.1h-0.8c-30,1.1-60,2.5-89.9,3.5
	l-7.3,0.2h-1.1c-10.4,0.3-20.8,0.6-31.2,0.8h-2.8h-0.1h-3.3l-4.6,0.1c-4.8,0-9.6,0.1-14.4,0.1h-5.7c-17.6,0-35.2-0.4-52.6-1.3
	l-1.9-0.1c3.4-7.5,9.6-19.7,14.5-23.6c3.9-3,31.5-6.3,56.9-8.8l2.7-0.3h0.1l7.1-0.7c9.7-0.9,18.6-1.6,24.9-2.1l0.6,0l-3.3-11
	l-4.8-16l1.4-13.4l0.1-1.1h-0.1c-1.4,0.1-2.7,0-4-0.5l-47.5-1.6h-0.9l0,0l-18.2-0.7l0,0c-9.8-0.3-16.7-0.6-17-0.7
	c-0.3,0-0.6-0.1-0.8-0.2c-0.4-0.2-0.8-0.4-1.2-0.7c-0.4-0.3-0.7-0.7-1-1.2h-0.2h-0.4l-2.6,0.2l-1.3,0.1c-0.1-0.1-0.1-0.3-0.1-0.4
	c-0.1-0.4-0.2-0.8-0.4-1.1h-0.7l-9-0.2h-0.2c0,0-23.2,1.8-35.3-2.7l0,0c-4.5-1.6-7.4-4.1-7.2-7.7c0.1-0.8,0.2-1.7,0.5-2.4
	c-3.9-7.3,15.1-20.6,29.7-16.9c3.9,1.1,8.1,1.3,12.1,0.5c2.2-0.5,4.2-1.4,6-2.7c0.2-0.1,0.3-0.3,0.5-0.4c-0.2-0.2-0.5-0.3-0.7-0.4
	c-1-0.5-2.1-0.9-3.2-1.1l3.9-1.2h0.1c0,0,14-1.3,23.1-1.8h0.1c2.7-0.1,5-0.2,6.4-0.2c6,0.2,17.7-4.1,18.2-5.4s5.8,0,5.8,0l4.7-1.8
	c4.7-1.8,7.3-4.3,7.3-6.1s4.2-3.8,4.2-3.8c1.9-3.2,5.6-6.5,9.4-9.5c3.4-2.6,6.8-4.9,9.4-6.5c1-6.5,2.3-12.9,4-19.2
	c1.8-5.9,7.3-10.3,9.2-11.7l0.7-0.5c-0.6-2.5-1.3-4.9-2.2-7.3c-0.1-0.2-0.1-0.4-0.2-0.6c-0.2-0.5-0.4-0.9-0.6-1.4l-0.3-0.6
	c-0.5,0.1-1,0.2-1.5,0.3c-1.7,0.2-3.3,0.4-5,0.4c-15.4,0.1-29-10.2-33.1-25c0,0,0,0,0-0.1c-0.8-2.9-1.2-6-1.2-9
	c0-2.9,0.4-5.8,1.1-8.6l0,0c0.1-0.6,0.3-1.2,0.5-1.8c0-0.1,0-0.1,0.1-0.2c0.1-0.3,0.2-0.5,0.3-0.8c-1.5,0.2-3,0.4-4.5,0.4h-1
	c-2.9,0.1-5.7-0.4-8.4-1.4l0,0c-0.6-0.3-1.3-0.6-1.9-1c0,0-0.1,0-0.1-0.1c-0.8-0.4-1.5-1-2.1-1.6c2.2-1.7,3.7-4.3,4.1-7.1
	c0.3-2.2-0.1-4.6,1.2-6.3c0.7-0.8,1.5-1.5,2.3-2c5.3-3.6,9.5-8.6,14.4-12.9s10.6-8,17.1-8.2c8.7-0.3,16.3,5.8,24.9,6.9
	c2.6,0.4,5.4,0.2,7.9,0.9c2.9,0.9,5.6,2.3,8,4.1c2.2,1.3,4.1,2.9,5.7,4.9c1.1,1.7,1.9,3.6,2.3,5.6c1.1,4.2,1.8,8.5,2,12.8
	c0.2,4.5,0,9.1,0.5,13.6c0.3,3.9,1.7,7.7,3.8,10.9h0.1c0.4,0.5,0.8,1,1.2,1.5c-0.9,0.3-1.7,0.5-2.6,0.7c-1.4,0.4-2.9,0.7-4.4,0.9
	c-0.7,0.1-1.4,0.2-2,0.2c-0.5,0-1,0-1.4-0.1l0.9,0.6l2.4,1.6l0,0l0.9,0.6l1.9,1.2c0.4-1.2,1-1.6,1.7-1.5c1.4-1.3,3.4,1.5,3.4,1.5
	c1.2,2.3,4.4,4.5,7.2,6.2c1.7,1,3.4,1.9,5.1,2.7c37.4,22.3,35,55.6,37.2,58.2s2.3,12.2,2.3,12.2s5.5,32.5,8,35.3s0.2,3.8,2.3,6.9
	s1.7,11.5,1.7,11.5s1.5,19.8,6.8,24.1c4.8,3.8,11.2,36.2,12.5,42.9L440.2,488.6z"/>
<path class="st16" d="M221.1,384.4c0,0-5.2,8.2-19.9,4.4c-14.7-3.8-34.1,10.5-28.6,17.5c5.6,7,41.3-2,41.3-2l13.7-2.8l-0.9-11.4
	L221.1,384.4z"/>
<path class="st3" d="M221.1,384.4c0,0-5.2,8.2-19.9,4.4c-14.7-3.8-34.1,10.5-28.6,17.5c5.6,7,41.3-2,41.3-2l13.7-2.8l-0.9-11.4
	L221.1,384.4z"/>
<path class="st17" d="M225.9,384l-6.4-0.3l-3.9,1.1c0,0,12.4,1.8,9,18.6l13.4-0.8L225.9,384z"/>
<path class="st3" d="M225.9,384l-6.4-0.3l-3.9,1.1c0,0,12.4,1.8,9,18.6l13.4-0.8L225.9,384z"/>
<path class="st18" d="M310.2,346.3c0,0-17.5,10-22.4,18.3c0,0-4.1,2-4.1,3.8s-2.6,4.2-7.2,6l-4.6,1.8c0,0-5.2-1.3-5.7,0
	s-11.9,5.5-17.8,5.4s-28.9,2-28.9,2c8.7,3.9,13.5,13.4,11.6,22.7l54.4-2.3l20.6-4.6l12.1-12.1L310.2,346.3z"/>
<path class="st16" d="M230,418.6l-7.7-0.2l-9-0.2c0,0-42.5,3.3-41.7-10.3c0.8-13.6,33.5-18.4,38.1-14.5c3.4,3,11.4,5.3,15.1,6.3
	c1.2,0.3,1.9,0.5,1.9,0.5L230,418.6z"/>
<path class="st3" d="M230,418.6l-7.7-0.2c-3.1-10.5,0.5-16.4,2.5-18.6c1.2,0.3,1.9,0.5,1.9,0.5L230,418.6z"/>
<path class="st17" d="M235.2,419.2l-8,0.6l-3.8,0.3c-5.2-15.4,3.2-21.4,3.2-21.4h2.5l4.1,0.5L235.2,419.2z"/>
<path class="st16" d="M332.1,317.2l-9.5,18c0,0-1.5-18.2-5.7-26.8c-1.1-2.2-2.3-3.8-3.8-4.2c-4-1.3,19-26.5,19-26.5
	c0.8,0.2,5.2,3,10.6,6.7c5.9,4,13.1,8.9,17.9,12C369.7,302.2,332.1,317.2,332.1,317.2z"/>
<path class="st19" d="M320,317.6c0,0-7.6,4.9-9.7,12.1s-4.1,20.1-4.1,20.1s3.4,30.9,5.2,32.3s8.6,32.3,8.6,32.3l6.6-4.4l-8.7-38.9
	C317.9,371.2,323.7,321.2,320,317.6z"/>
<polygon class="st17" points="353.1,386.5 315,386.5 321.2,326.4 353.1,326.4 "/>
<path class="st20" d="M264.9,507.2h0.5l-0.9,0.3L264.9,507.2z"/>
<path class="st21" d="M336.5,479.8l-7.5,2.9l-1,0.4l-26.8,10.3l-10.2,3.9l-13.9,5.3h-5.7c-17.6,0-35.2-0.4-52.6-1.3
	c3.4-7.4,9.3-19.3,14.1-23.1c3.8-3,30.7-6.2,55.5-8.7c3.1-0.3,6.2-0.6,9.1-0.9l0.7-0.1c9.9-0.9,18.8-1.6,25-2.1l1-0.1l7.8-0.6
	l0.8-0.8l1,4.3l0.8,3.4L336.5,479.8z"/>
<path class="st3" d="M264.9,507.2h0.5l-0.9,0.3L264.9,507.2z"/>
<path class="st20" d="M264.9,507.2h0.5l-0.9,0.3L264.9,507.2z"/>
<path class="st20" d="M297.2,507.2c0,0.1-0.1,0.2-0.1,0.3l0,0C297.1,507.4,297.2,507.3,297.2,507.2L297.2,507.2z"/>
<polygon class="st20" points="336,507.5 335.3,507.5 335.2,507.2 335.9,507.2 "/>
<path class="st22" d="M342.9,469.4l-0.6,20.6v1.1v0.1l-0.3,10.2l-7.3,0.2h-1.1c-10.4,0.3-20.8,0.6-31.2,0.8h-2.8h-0.1h-3.3l-4.6,0.1
	c-4.8,0-9.6,0.1-14.4,0.1h-5.8c5.2-3.2,11.9-6.8,19.2-10.3c3.2-1.6,6.6-3.2,10-4.8c9-4.2,18.1-8.1,25.5-11.3l1-0.4
	c2.9-1.2,5.5-2.3,7.7-3.2c4.8-2,7.9-3.2,8.1-3.3L342.9,469.4z"/>
<path class="st3" d="M276.1,384.8c1.9,3.9,3.8,7.9,6.9,10.9c0.5,0.5,1.3,0.9,1.8,0.4c0.1-0.2,0.2-0.5,0.2-0.7
	c-0.1-1.8-0.7-3.6-1.8-5.1c-1-1.5-2.2-2.9-3.1-4.5s-1.9-4.7-3.9-5.1C273.6,380.1,275.6,383.6,276.1,384.8z"/>
<path class="st3" d="M342.7,284.4c-0.1,0.5-0.3,1-0.5,1.5c-3.8,11.5-13.4,20.1-25.3,22.5c-1.1-2.2-2.3-3.8-3.8-4.2
	c-4-1.3,19-26.5,19-26.5C332.9,277.9,337.3,280.8,342.7,284.4z"/>
<path class="st16" d="M343.9,274.8c0,18.6-15.1,33.7-33.7,33.7s-33.7-15.1-33.7-33.7s15.1-33.7,33.7-33.7c18.6,0,33.6,15,33.7,33.5
	C343.9,274.7,343.9,274.7,343.9,274.8z"/>
<path class="st20" d="M323.1,324.8c0,0-7,8.5-5.9,14.1h8.5l6.2-7L323.1,324.8z"/>
<path class="st3" d="M348,288.9l-26.7,36.7c0,0,6.9,9.8,10.1,10.3s21.9-43.4,21.9-43.4L348,288.9z"/>
<path class="st17" d="M348.4,288.2L321.7,325c0,0,6.9,9.8,10.1,10.3s21.9-43.4,21.9-43.4L348.4,288.2z"/>
<path class="st23" d="M318.2,335.2c0,0-1.3,20.6-2.6,24.7s0,41.7,0,41.7l12.3-5.1l-2.1-57.7L318.2,335.2z"/>
<polygon class="st3" points="335.9,507.2 336,507.5 335.3,507.5 335.2,507.2 "/>
<path class="st3" d="M421.4,507.5L421.4,507.5L421.4,507.5z"/>
<path class="st3" d="M436.4,489.5c0,0-0.2,0.4-0.6,1s-0.8,1.4-1.3,2.4c0,0-0.1,0.1-0.1,0.1c-0.7,1.4-1.6,3-2.5,4.9
	c-30,1.1-60,2.5-89.9,3.5l-7.3,0.2h-1.1l-3.1-10.6v-0.1l-0.3-1.1l-2-6.7l-2-6.8l-2.1-7.2l-0.8-2.6l-0.2-0.7l-3.3-11.1l-4.4-15.1
	l1.4-14.4l0,0l0.1-1.1l1.3-12.9l0.2-3.8l0,0l0.1-2v-0.6l0,0l0.2-4.6l0.7-13.8l0.3-7.1l0,0l0.1-1.1l0,0l0.7-14.2l1.9-5.8l1-2.9
	l2.2-6.7l0.5-1.7l0,0c0.7-2.5,2.1-7.5,3.4-12.2l0,0l0.1-0.4l0,0l0.1-0.3l0.9-3.4l1.2-4.4c0.4-1.7,0.7-2.9,0.8-3.3
	c0.1-0.7,2-3.9,4.5-8l0,0c5-8.3,12.5-20.4,13.4-24.5c0,0,0-0.1,0-0.1c0.1-0.2,0.1-0.5,0.2-0.7c0.4-1.2,1-1.5,1.6-1.5
	c0.3,0,0.6,0.2,0.8,0.3c0.6,0.4,1.1,0.9,1.6,1.5c1.2,2.2,4.3,4.5,7.1,6.2l0.5,0.3l0.3,0.2c2.3,1.3,4.2,2.1,4.2,2.1
	c36.6,22.1,34.3,55.1,36.4,57.7s2.3,12.1,2.3,12.1s5.4,32.2,7.8,35s0.2,3.8,2.3,6.9s1.6,11.3,1.6,11.3s1.5,19.6,6.7,23.8
	S436.4,489.5,436.4,489.5z"/>
<path class="st19" d="M437.4,489.2l-0.4,0.8l0,0c-0.4,0.6-0.9,1.6-1.6,2.8l-0.1,0.1c-0.8,1.4-1.7,3.1-2.5,5h-0.8
	c-30,1.1-60,2.5-89.9,3.5l-7.3,0.2l-3.1-10.6v-0.1l-0.3-1.1l-2.1-7l-2-6.8l-2-6.8l-0.8-2.7l0,0l-3.4-11.7l-4.5-15.4l1.2-12.5
	l0.2-1.7l1.4-14.2l0,0l0.5-11.1l0.6-13.4l0.2-3.5l0.2-4.1l0.1-1.7l0.6-13.4l1.9-5.8l0.8-2.5l1.9-5.8l0.4-1.2c0,0,1.9-6.6,3.7-13.1
	c0.1-0.2,0.1-0.5,0.2-0.7c0.2-0.6,0.3-1.1,0.5-1.7l0,0c0.2-0.6,0.3-1.1,0.5-1.7c0.5-1.8,1-3.5,1.3-4.9c0.5-1.8,0.8-3.2,0.9-3.6
	c0.1-0.7,2-3.9,4.6-8.1c4.7-7.8,11.6-19,13.1-23.6c0.1-0.2,0.1-0.5,0.2-0.7l0,0c0.1-0.7,0.4-1.4,0.9-2c1.3-1.3,3.3,1.5,3.3,1.5
	c1.2,2.2,4.3,4.5,7.1,6.2c1.6,1,3.3,1.9,5,2.6c36.6,22.1,34.3,55.1,36.4,57.7s2.3,12.1,2.3,12.1s5.4,32.2,7.8,35s0.2,3.8,2.3,6.9
	s1.6,11.4,1.6,11.4s1.5,19.6,6.7,23.9S437.4,489.2,437.4,489.2z"/>
<path class="st3" d="M362.7,296.6c-3.6,5.2-9.4,14.4-11,21c0,0-5.7,5.9-7.9,5.6s2,4.4,2,4.4l-22.5,31.1l3.2-9.6c0,0,6.7-23.5,7-25.6
	s16.6-26.4,17.9-32.5c1-4.9,4.2-0.5,4.2-0.5C356.8,292.7,360,295,362.7,296.6z"/>
<path class="st24" d="M362.7,296c-3.6,5.2-9.4,14.4-11,21c0,0-5.7,5.9-7.9,5.6s2,4.4,2,4.4L323.4,358l3.2-9.6c0,0,6.7-23.5,7-25.7
	s16.6-26.4,17.9-32.5c1-4.9,4.2-0.5,4.2-0.5C356.8,292,360,294.3,362.7,296z"/>
<path class="st3" d="M392.9,360.5c0.2,7.1-10.3,16.9-10.8,17.5s-32.5,27-32.5,27l-23,17.6c-2.6,2.1-5.7,3.6-9,4.2l1.6-15.8l1.5-32
	c3.6-4,7.1-8.2,7.1-9.5c0.2-2.8,6-5.7,6-5.7s4.1-3.4,3.4-5.4s2.2-11.4,2.2-11.4c1.5-26.6,28.9-29.2,28.9-29.2s13.2,5.2,22.5,10.8
	S392.8,353.4,392.9,360.5z"/>
<path class="st3" d="M235.2,419.2l-8,0.6c-3.4-5.8,1.3-21.2,1.3-21.2h0.6l4.1,0.5L235.2,419.2z"/>
<path class="st19" d="M368.4,316.1c0,0-27.5,2.6-28.9,29.2c0,0-2.8,9.3-2.1,11.3s-3.4,5.4-3.4,5.4s-5.9,2.9-6,5.7s-15,17.9-15,17.9
	s-6.2,7.1-20.6,7.8s-21.1,5.1-21.1,5.1s-7-4.9-12.1-3.4s-29.9,3.4-29.9,3.4s-6.6,21.8,1.6,23.2c1,0.2,81.9,2.9,81.9,2.9
	s5.5,2.6,13.9-3.8s23-17.7,23-17.7s32-26.5,32.5-27s11-10.3,10.8-17.5s7.4-26.4-2-32S368.4,316.1,368.4,316.1z"/>
<path class="st3" d="M343.9,274.8c0,3.5-0.6,7.1-1.6,10.4c-0.5-0.5-0.9-1.1-1.2-1.7c-1.6-2.4-3.1-4.8-4.7-7.2
	c-1.2-2.2-2.8-4.1-4.8-5.6c-2-1.4-4.8-2-7-0.7c-1.9,1.1-2.8,3.4-3,5.6c-0.1,2.2,0,4.4,0.2,6.6c0.1,0.8-0.1,1.7-0.6,2.4
	c-0.7,0.6-1.6,1-2.6,1l-3,0.4c-1.1,0.4-2.3-0.2-2.7-1.3c0,0,0,0,0-0.1c-2.5-4.5-4.2-10.1-8.9-12.3c-2.9-1.3-6.7-1.2-8.5-3.8
	c-1.3-1.8-1.1-4.1-0.7-6.3c0.4-2.4,1-4.8,1.8-7.1c0.5-1.6,1.7-4.9-0.9-5.2c-1.8-0.2-4.2,1.7-5.1,3s-1.1,3.1-1.8,4.7
	c-1.2,2.6-3.4,4.7-6.1,5.7c-1.4,0.6-2.8,0.9-4.2,1.1c5.7-17.7,24.7-27.4,42.4-21.7C334.5,247.1,343.9,260.1,343.9,274.8L343.9,274.8
	z"/>
<path class="st25" d="M290.3,252c-0.9,1.4-1.1,3.1-1.8,4.6c-1.2,2.6-3.4,4.7-6.1,5.7c-2.7,1-5.6,1.5-8.4,1.5
	c-4.7,0.1-9.9-0.6-12.9-4.1c2.2-1.7,3.6-4.2,4-7c0.3-2.1-0.1-4.5,1.2-6.3c0.6-0.8,1.4-1.4,2.3-1.9c5.2-3.6,9.3-8.5,14.1-12.8
	s10.4-7.9,16.8-8.1c8.5-0.3,16,5.7,24.4,6.9c2.6,0.4,5.2,0.2,7.8,0.9c2.8,0.9,5.5,2.2,7.9,4c2.2,1.3,4.1,2.9,5.6,4.8
	c1.1,1.7,1.9,3.6,2.3,5.5c1.1,4.1,1.8,8.4,2,12.7c0.2,4.5,0,9,0.5,13.5s1.9,9,5,12.3c-2.2,0.7-4.5,1.2-6.8,1.6
	c-1.4,0.3-3,0.2-4.3-0.3c-1.1-0.7-2-1.7-2.6-2.9l-4.7-7.2c-1.2-2.2-2.8-4.1-4.8-5.6c-2-1.4-4.8-2-7-0.7c-1.9,1.1-2.8,3.4-3,5.6
	c-0.1,2.2,0,4.4,0.2,6.6c0.1,0.8-0.1,1.7-0.6,2.4c-0.7,0.6-1.6,1-2.6,1l-3,0.4c-1.1,0.4-2.3-0.2-2.7-1.3c0,0,0,0,0-0.1
	c-2.5-4.5-4.2-10.1-8.9-12.3c-2.9-1.3-6.7-1.2-8.5-3.8c-1.3-1.8-1.1-4.1-0.7-6.3c0.4-2.4,1-4.8,1.8-7.1c0.5-1.6,1.7-4.9-0.9-5.2
	C293.7,248.6,291.2,250.5,290.3,252z"/>
<path class="st3" d="M366.5,331c2.5-0.4,5.2-0.6,7.6,0.4c-6.2-2.5-16.2-1.6-21.8,1.9C352.7,334.5,364.5,331.3,366.5,331z"/>
<path class="st3" d="M369.4,339.2c6.1,0.4,12.5,1.3,18.3-0.7c-4.9-1.7-10.2-0.6-15.4-1.1c-4.1-0.4-8.3-1.8-12.3-0.8
	c-1.7,0.4-7.8,3.3-7.4,5.3C358,339.6,363.7,338.7,369.4,339.2z"/>
<path class="st3" d="M353.1,352.7c1.3-0.1,2.6,0,3.8,0.4c4.6,1.1,9.3,1.6,14.1,1.5c3.6,0,7.5-0.5,10.2-3L353.1,352.7z"/>
<path class="st3" d="M333.3,384c4.3,2,9,2.8,13.8,2.5c4.7-0.3,9.3-1.2,13.8-2.7c2-0.6,4.2-1.3,5.4-3.1L333.3,384z"/>
<path class="st3" d="M377.6,388.4c9.4,5.4,19.8,8.6,30.5,9.5c-5.4-2.2-10.9-4.2-16.4-6.2c-5.6-2-11.4-3.5-17.2-4.6
	C375.6,387.3,376.7,387.7,377.6,388.4z"/>
<path class="st3" d="M392.7,382.6c1.9,0.3,3.8,0.4,5.7,0.3c1,0,2.2-0.1,2.8-1c-4.3,0.2-8.5-0.9-12.7-1.9c-1.2-0.3-3.3-0.9-4.3-0.2
	C386,381.2,390.3,382.2,392.7,382.6z"/>
<path class="st3" d="M418.5,472c2.2,3.9,4.5,7.8,7.6,11c1.8,1.8,3.7,3.4,5.7,4.9c-3.7-9.5-7.5-19-13.4-27.3
	c-1.5-2.1-3.7-5.1-6.5-5.4c-0.8,2.3,1.2,6.4,2.1,8.6C415.4,466.6,416.9,469.3,418.5,472z"/>
<path class="st3" d="M309.2,401.2c-0.2,1.6-0.3,3.4,0.6,4.7c0.5,0.6,1.1,1.1,1.9,1.3c-0.5-0.1-1-4.8-1.1-5.5c-0.2-1.3,0-3.8-0.9-4.7
	C309.4,398.4,309.3,399.8,309.2,401.2z"/>
<path class="st3" d="M314.4,399.4c0.7,2.8,2.5,5.3,5,6.8c-1.8-2.2-2.3-5-3.8-7.4c-0.5-0.8-1.1-1.8-2-2
	C313.8,397.7,314,398.5,314.4,399.4z"/>
<path class="st3" d="M310,370.6c-3,1.8-6.6,2.2-9.9,1.2c-0.8-0.2-2.5-1-2.1-2.1s2.5-0.3,3.3-0.2l4.4,0.5
	C306.4,370.1,309.3,371,310,370.6z"/>
<path class="st3" d="M295.2,377.7c2-0.3,3.9,1.2,5.8,1.9c2.1,0.7,4.4,1,6.6,0.9c1.1,0,2.4-0.1,3.1-1
	C305.5,378.3,300.7,377,295.2,377.7z"/>
<polygon class="st17" points="320,317.6 320.3,317.6 322.8,326.4 320,329.4 "/>
<g class="st26">
	<path d="M265.8,247.7c-0.3,1.4-0.5,2.9-0.5,4.4c0.1-0.5,0.2-0.9,0.3-1.4C265.7,249.7,265.7,248.7,265.8,247.7z"/>
	<path d="M295.6,248.9c1,0.1,1.7,0.9,1.7,1.9c0,0,0,0.1,0,0.1c0.5-1.7,0.7-3.7-1.3-4c-1.8-0.2-4.2,1.7-5.1,3s-1.1,3.1-1.8,4.7
		c-1.2,2.6-3.4,4.7-6.1,5.7c-2.7,1-5.6,1.5-8.4,1.5c-4.2,0.1-8.9-0.5-12-3.3c-0.4,0.4-0.8,0.8-1.2,1.1c3,3.6,8.2,4.3,12.9,4.1
		c2.9,0,5.7-0.5,8.4-1.5c2.7-1,4.9-3.1,6.1-5.7c0.6-1.5,0.8-3.3,1.8-4.6S293.8,248.6,295.6,248.9z"/>
	<path d="M348.4,283.7c-1.4,0.3-3,0.2-4.3-0.3c-1.1-0.7-2-1.7-2.6-2.9c-1.6-2.4-3.1-4.8-4.7-7.2c-1.2-2.2-2.8-4.1-4.8-5.6
		c-2-1.4-4.9-2-7-0.7c-1.9,1.1-2.8,3.4-3,5.6c0,0.1,0,0.2,0,0.3c0.4-1.6,1.3-3,2.7-3.9c2.1-1.3,5-0.7,7,0.7c1.9,1.6,3.5,3.5,4.8,5.6
		c1.6,2.4,3.1,4.8,4.7,7.2c0.6,1.2,1.5,2.1,2.6,2.9c1.4,0.6,2.9,0.7,4.3,0.3c2.3-0.3,4.6-0.9,6.8-1.6c-0.4-0.5-0.8-1-1.2-1.5
		C352,283.1,350.2,283.5,348.4,283.7z"/>
	<path d="M321.6,281.6c-0.7,0.6-1.6,1-2.6,1l-3,0.4c-1.1,0.4-2.3-0.2-2.7-1.3c0,0,0,0,0-0.1c-2.5-4.5-4.2-10.1-8.9-12.3
		c-2.9-1.3-6.7-1.2-8.5-3.8c-0.9-1.6-1.3-3.4-0.9-5.2c0,0.3-0.1,0.6-0.2,0.9c-0.4,2.1-0.5,4.5,0.7,6.3c1.9,2.6,5.6,2.5,8.5,3.8
		c4.7,2.2,6.4,7.8,8.9,12.3c0.2,0.6,0.6,1,1.1,1.4c0.5,0.2,1.1,0.2,1.6,0.1l3-0.4c1,0,1.9-0.4,2.6-1c0.5-0.7,0.7-1.5,0.6-2.4l0,0
		C321.8,281.4,321.7,281.5,321.6,281.6z"/>
</g>
<path class="st1" d="M735.4,517.4l-6.4-0.9v-94.6l1.3,0.4l4,1.2v3.2v2.4v3.6l0,4.1l0.1,8.5v0.8v1.1v2.4v1.5v3.5v2.2l0.5,42.6v1.1
	l0.2,15v0.2L735.4,517.4z"/>
<path class="st27" d="M739,517.9l-3.6-0.5v-1.7v-0.2l-0.2-15v-1.1l-0.5-42.6v-2.2V451v-1.5v-2.4V446v-0.8l-0.1-8.5l0-4.1V429v-2.4
	v-3.2h3.8v3.5v2.4v2.7v3.6l0.1,9.1v2v2.1v1.5v1.8v2.3l0,0l0.4,44.7v1.2l0.1,14.9v0.2L739,517.9z"/>
<path class="st27" d="M739,523.2L739,523.2z"/>
<path class="st1" d="M1128,410.1v81.7c-1.9,1.3-3.8,2.6-5.8,3.9l-0.1-68v-7.2L1128,410.1z"/>
<path class="st27" d="M1132.2,409v79.7c-1.4,1.1-2.8,2.1-4.2,3.2v-81.7L1132.2,409z"/>
<path class="st1" d="M1039.3,524.7c-2.5,0.5-4.9,1-7.4,1.4l-0.1-73.9V449l7.1-3v6.8L1039.3,524.7z"/>
<path class="st27" d="M1044,443.7v80c-1.6,0.3-3.1,0.7-4.7,1l-0.3-71.9V446l0.5-0.2l0,0L1044,443.7z"/>
<path class="st1" d="M620.2,502.6l-6.7-0.7l-0.8-83.3v-2.4v-1.6h6.5v2.2v2.4L620.2,502.6z"/>
<path class="st27" d="M625.1,503.1l-5-0.5l-1-83.5v-2.4v-2.2h5v2.6v2.4L625.1,503.1z"/>
<polygon class="st3" points="1039.4,445.8 1044,443.7 1044,453.8 1039.6,455.3 "/>
<polygon class="st3" points="1132.2,409 1132.2,424.4 1128,425.8 1122.1,427.8 1122.1,420.5 1128,410.1 "/>
<polygon class="st6" points="1132.2,379.3 1132.2,422 1039.6,452.9 1039,407.2 "/>
<polygon class="st5" points="611.5,376.3 733.2,353.1 1132.2,379.3 1039,407.2 "/>
<polygon class="st3" points="624.2,414.6 624.3,419.6 619.2,419.1 612.7,418.6 612.7,414.6 "/>
<polygon class="st3" points="738.3,429.4 734.4,429 729,428.6 729,421.9 734.4,423.5 738.2,423.5 "/>
<polygon class="st6" points="611.5,376.3 611.5,416.1 1039.6,452.9 1039,407.2 "/>
<polygon class="st28" points="950.9,423.6 895,423.6 895,403.3 950.9,407.2 "/>
<polygon class="st3" points="950.9,423.6 895,423.6 895,403.3 950.9,407.2 "/>
<polygon class="st3" points="819.9,398.9 819.9,430.9 1034.5,447.2 1034.5,413.1 950.8,408.4 942.5,415.8 908.3,413.4 896.2,404.5 
	"/>
<polygon class="st29" points="818.7,397.7 818.7,429.7 1033.3,446.1 1033.3,411.9 949.6,407.2 941.3,414.6 907.2,412.2 895,403.3 
	"/>
<polygon class="st28" points="686.3,389.1 737,392.6 736.5,408.8 703.3,408.8 681.1,400 "/>
<polygon class="st3" points="686.3,389.1 737,392.6 736.5,408.8 703.3,408.8 681.1,400 "/>
<polygon class="st3" points="618.6,384.6 618.6,413.4 813.3,428.9 813.3,398.3 738.2,393.8 730.2,399.8 699.9,398 687.5,390.2 "/>
<polygon class="st29" points="617.4,383.4 617.4,412.2 812.2,427.7 812.2,397.1 737,392.6 729,398.6 698.7,396.8 686.3,389.1 "/>
<polygon class="st3" points="1034.5,383.5 1061.8,385.3 1016.6,398.9 993.6,397.2 "/>
<polygon class="st29" points="1034.5,382.4 1061.8,384.1 1016.6,397.7 993.6,396 "/>
<path class="st27" d="M1031.3,385.4c1.1-0.5,2.2,0.4,3.4,0.6c0.7,0.1,1.3,0,2,0.1c1.3,0.2,2.7,1.1,3.9,0.6L1031.3,385.4z"/>
<path class="st27" d="M1029.9,386.2c1.1-0.5,2.2,0.4,3.4,0.6c0.7,0.1,1.3,0,2,0.1c1.3,0.2,2.7,1.1,3.9,0.6L1029.9,386.2z"/>
<path class="st27" d="M1026.6,387.9c1.1-0.5,2.2,0.4,3.4,0.6c0.7,0.1,1.3,0,2,0.1c1.3,0.2,2.7,1.1,3.9,0.6L1026.6,387.9z"/>
<polygon class="st3" points="850.3,368.5 911.2,372.5 898.2,391.2 831.3,384 "/>
<polygon class="st2" points="849.2,367.4 910,371.3 897.1,390 830.1,382.8 "/>
<polygon class="st30" points="851.8,368.7 904.9,372 893.6,387.2 835.2,381.3 "/>
<path class="st2" d="M739,523.2L739,523.2z"/>
<path class="st3" d="M739,523.2L739,523.2z"/>
<path class="st2" d="M738.6,523.2L738.6,523.2z"/>
<path class="st2" d="M816.2,521c0,0.3,0,0.6,0,0.8c0,0.3,0,0.5-0.1,0.8c-0.2,1.8-0.7,3.5-1.5,5.1l0,0c-25.2-2.8-50.4-6.2-75.6-9.7
	l-3.6-0.5l-6.4-0.9l-5.4-0.8l0,0c-5.9-0.1-11.8-0.7-17.6-1.7c-3.7-0.5-7.3-1.3-10.9-2.3c-16-2.2-32.1-4.3-48.1-6.2l-2.1-0.2
	c0.4-1.7,0.7-2.7,0.7-2.7s3.4-13.5,6.3-28.6l0,0c0.6-3.3,1.2-6.6,1.8-9.9c0.4-2.7,0.8-5.3,1.1-7.8c0.2-1.4,0.3-2.8,0.5-4.1
	c0.1-0.7,0.1-1.3,0.2-2s0.1-1.4,0.2-2.1s0.1-1.3,0.1-1.9v-0.9c0-1.3,0-2.8,0-4.2c-0.5-7.2-1.6-14.4-3.4-21.4
	c-0.3-1.2-0.6-2.4-0.9-3.6c-0.1-0.4-0.2-0.8-0.3-1.1c-3.2-12.5-7-22.7-7-22.7c0-0.1,0-0.1,0-0.2c0,0,0-0.1,0-0.1c0-0.1,0-0.2,0-0.2
	c0-0.3,0-0.8,0-1.4c0-0.1,0-0.2,0-0.4c0.1-1,0.3-2.1,0.5-3.1c0.1-0.4,0.2-0.7,0.4-1.1c0.7-2,2.4-3.6,4.5-4.2l0,0
	c2.8-0.7,7.1,0,13.6,3.8c1.1,0.6,2.1,1.3,3,2.1c0.5,0.4,1,0.8,1.4,1.2c7.4,6.9,11.3,18.3,13.4,28.6c0.1,0.4,0.2,0.7,0.2,1.1
	c0.2,1.3,0.5,2.5,0.7,3.8c0.3,2.2,0.6,4.2,0.8,6.2c0,0.5,0.1,1,0.2,1.5s0.1,1,0.1,1.5c0.1,1.6,0.2,3,0.3,4.2
	c0.2,3.2,0.1,5.2,0.1,5.2v0.1c0,0,0,0.2,0,0.4c0,0,0,0.1,0,0.1c0,0.1,0,0.3,0,0.4s0,0.3,0,0.5c0,0.4-0.1,0.9-0.2,1.5
	c-0.1,0.9-0.2,1.9-0.3,3l0,0c-0.1,0.8-0.2,1.8-0.3,2.7c-0.2,2-0.5,4.3-0.7,6.8c-0.1,0.5-0.1,0.9-0.2,1.4c-0.2,2.1-0.5,4.3-0.7,6.5
	l0,0c-0.3,2.5-0.6,5-0.9,7.5c-0.1,0.5-0.1,1.1-0.2,1.6c-0.7,6-1.5,11.5-2.1,14.8c-0.1,0.5-0.2,1-0.2,1.5c0,0.2,0,0.3,0,0.5
	c0,0.5,0,0.9,0,1.4c0.5,8.5,9.7,10,9.7,10l41.9-0.8l6.2-0.1l3.6-0.1l32.7-0.7l0,0l3-0.1l16.2-0.3c1.1,0,2.2,0.1,3.3,0.4
	c5,1.3,9.8,3.4,14.2,6.2c1.4,0.9,2.6,2,3.7,3.2c0.1,0,0.1,0.1,0.1,0.2c2.2,2.7,3.6,5.9,3.9,9.4c0,0.2,0,0.5,0,0.7
	C816.2,519.9,816.2,520.4,816.2,521z"/>
<path class="st3" d="M738.6,523.2L738.6,523.2z"/>
<path class="st3" d="M816.2,521c0,0.3,0,0.6,0,0.8c0,0.3,0,0.5-0.1,0.8c-0.2,1.8-0.7,3.5-1.5,5.1c-25.2-2.8-50.4-6.2-75.6-9.7
	l-3.6-0.5l-6.4-0.9l-5.4-0.8l0,0c-5.9-0.1-11.8-0.7-17.6-1.7c-3.7-0.5-7.3-1.3-10.9-2.3c-16-2.2-32.1-4.3-48.1-6.2l-2.1-0.2l0,0
	c0.4-1.8,0.7-2.8,0.7-2.8s2.8-11,5.5-24.3l0,0c0.2-0.9,0.4-1.8,0.5-2.8l0.3-1.4l0,0c0.6-3.3,1.2-6.6,1.8-9.9
	c0.4-2.7,0.8-5.3,1.1-7.8c0.2-1.4,0.3-2.8,0.5-4.1c0.1-0.7,0.1-1.3,0.2-2s0.1-1.4,0.2-2.1s0.1-1.3,0.1-1.9v-0.9c0-1.3,0-2.8,0-4.2
	c-0.5-7.2-1.6-14.4-3.4-21.4c-0.3-1.2-0.6-2.4-0.9-3.6c-0.1-0.4-0.2-0.8-0.3-1.1c-3.2-12.5-7-22.8-7-22.8c0,0,0,0,0-0.1
	c0,0,0-0.1,0-0.1c0-0.1,0-0.2,0-0.2c0-0.3,0-0.8,0-1.4c0-0.1,0-0.2,0-0.4c0.1-1,0.2-2.1,0.5-3.1c0.1-0.3,0.2-0.7,0.4-1.1
	c0.7-2.2,2.5-3.8,4.7-4.3c2.8-0.7,7.1,0.2,13.4,3.9c1.1,0.6,2.1,1.4,3.1,2.2l0,0c0.5,0.4,0.9,0.8,1.4,1.2
	c7.3,6.9,11.2,18.3,13.3,28.6c0.1,0.4,0.2,0.8,0.2,1.1c0.2,1.3,0.5,2.5,0.7,3.8c0.3,2.2,0.6,4.2,0.8,6.2c0,0.5,0.1,1,0.2,1.5
	s0.1,1,0.1,1.5c0.1,1.6,0.2,3,0.3,4.2c0.2,3.2,0.1,5.2,0.1,5.2v0.3c0,0.1,0,0.1,0,0.2c0,0,0,0.1,0,0.1c0,0.1,0,0.3,0,0.4
	s0,0.3,0,0.5c0,0.4-0.1,0.9-0.2,1.5c-0.1,0.9-0.2,1.9-0.3,3l0,0c-0.1,0.8-0.2,1.7-0.3,2.7c-0.2,2-0.5,4.3-0.7,6.8
	c-0.1,0.5-0.1,0.9-0.2,1.4c-0.2,2.1-0.5,4.3-0.7,6.5l0,0c-0.3,2.5-0.6,5-0.9,7.5c-0.1,0.5-0.1,1.1-0.2,1.6c-0.7,6-1.5,11.4-2.1,14.7
	c-0.1,0.5-0.2,1.1-0.2,1.6c0,0.2,0,0.3,0,0.5c0,0.5,0,0.9,0,1.4c0.6,8.4,9.7,9.8,9.7,9.8l41.9-0.8l6.2-0.1l3.6-0.1l32.7-0.6l3.1-0.1
	l16.2-0.3c1.1,0,2.2,0.1,3.3,0.4c5.1,1.3,9.9,3.4,14.3,6.2c1.4,0.9,2.7,2,3.7,3.3c0.1,0,0.1,0.1,0.1,0.2c2.2,2.7,3.6,5.9,3.9,9.4
	c0,0.2,0,0.5,0,0.7C816.2,519.9,816.2,520.4,816.2,521z"/>
<path class="st2" d="M738.6,523.2L738.6,523.2z"/>
<path class="st4" d="M816.3,527.8l-1.7-0.2l0,0c-25.2-2.8-50.4-6.2-75.6-9.7l-3.6-0.5l-6.4-0.9l-5.4-0.8l0,0
	c-5.9-0.1-11.8-0.7-17.6-1.7c-3.7-0.5-7.3-1.3-10.9-2.3c-16-2.2-32.1-4.3-48.1-6.2c0.3-1.4,0.6-2.8,1-4.2c0,0,9.5-37.4,10.1-57.3
	c0.2-7.1-1.2-15.9-3.1-24.3l0,0c-0.3-1.2-0.6-2.4-0.9-3.6l-0.3-1.1c-3.4-13.2-7.4-24.2-7.4-24.2c-0.1-1.4,0-2.7,0.2-4.1
	c0.1-0.4,0.1-0.7,0.2-1.1c0.4-1.7,1.3-3.2,2.6-4.3l0,0c0.1-0.1,0.1-0.1,0.2-0.1c2.6-2,7.3-2.1,15.8,2.8c1.7,1,3.3,2.2,4.7,3.6
	c0.4,0.4,0.8,0.8,1.2,1.2c6.8,7.3,10.3,18.5,12.2,28.5l0.2,1.1c0.2,1.2,0.4,2.5,0.6,3.7c0,0,0,0.1,0,0.1l0,0
	c0.2,1.6,0.4,3.1,0.6,4.5l0,0c0.5,4.2,0.7,8.5,0.7,12.8c0,0-0.4,4-1,9.6c-0.2,2.2-0.5,4.7-0.8,7.4c0,0.1,0,0.3,0,0.4l-0.2,1.4
	c-0.5,4.6-1.1,9.5-1.6,14.1c-0.1,0.6-0.1,1.1-0.2,1.7c-0.6,5.1-1.3,9.7-1.8,12.7c-2.1,11.6,9.5,13.4,9.5,13.4l39.5-0.8l6.2-0.1
	l3.6-0.1h1.5h0.5l31.4-0.6h3l18-0.4c1.1,0,2.2,0.1,3.3,0.4c5.1,1.3,9.9,3.4,14.3,6.1c1.2,0.8,2.4,1.8,3.4,2.9
	c0.1,0.1,0.1,0.1,0.2,0.2C819.2,513.4,820,521.4,816.3,527.8z"/>
<polygon class="st11" points="957.7,347 969.9,373.2 967.8,373.2 953.5,347.4 "/>
<polygon class="st3" points="957.7,347 969.9,373.2 967.8,373.2 953.5,347.4 "/>
<polygon class="st11" points="957.7,373.2 969.9,373.2 969.9,376 957.7,376.3 "/>
<polygon class="st3" points="957.7,373.2 969.9,373.2 969.9,376 957.7,376.3 "/>
<path class="st11" d="M862.5,250.6v91.5c0,3.8,3,6.8,6.8,6.8h152.5c3.7,0,6.8-3,6.8-6.7c0,0,0-0.1,0-0.1l-1.7-91.6
	c-0.1-3.7-3.1-6.6-6.8-6.6H869.3C865.6,243.9,862.5,246.9,862.5,250.6z"/>
<path class="st3" d="M862.5,250.6v91.5c0,3.8,3,6.8,6.8,6.8h152.5c3.7,0,6.8-3,6.8-6.7c0,0,0-0.1,0-0.1l-1.7-91.6
	c-0.1-3.7-3.1-6.6-6.8-6.6H869.3C865.6,243.9,862.5,246.9,862.5,250.6z"/>
<path class="st12" d="M857,250.6v91.5c0,3.8,3,6.8,6.8,6.8h152.5c3.7,0,6.7-3,6.7-6.7c0,0,0-0.1,0-0.1l-1.7-91.6
	c-0.1-3.7-3.1-6.6-6.7-6.6H863.9C860.1,243.8,857.1,246.8,857,250.6C857,250.6,857,250.6,857,250.6z"/>
<path class="st13" d="M863,256.4v80.5c0,3.8,3,6.8,6.8,6.8H1011c3.7,0,6.8-3,6.8-6.8l0,0v-80.6c0-3.7-3-6.7-6.8-6.7H869.8
	C866.1,249.6,863,252.6,863,256.4z"/>
<polygon class="st12" points="924.1,347.4 937.5,373.2 967.8,373.2 952.7,343.7 "/>
<polygon class="st11" points="913.5,373.2 911.2,376 957.7,376 957.7,373.2 "/>
<linearGradient id="SVGID_3_" gradientUnits="userSpaceOnUse" x1="-1193.6232" y1="-150.2101" x2="-1193.6232" y2="172.4341" gradientTransform="matrix(1 0 0 -1 1979.37 383.97)">
	<stop  offset="0" style="stop-color:#808080;stop-opacity:0.25"/>
	<stop  offset="0.54" style="stop-color:#808080;stop-opacity:0.12"/>
	<stop  offset="1" style="stop-color:#808080;stop-opacity:0.1"/>
</linearGradient>
<path class="st31" d="M717.6,278.4c-3.3-9.4-3.3-19.8-7.3-28.8c-0.6-1.3-1.2-2.6-1.7-4c-0.3-0.8-0.4-1.7-0.5-2.6l-0.2,0.1l-0.2,0.1
	l-0.2,0.1l0,0l-0.2,0.1c0.1,0.3,0.1,0.6,0.2,0.9c0.5,1.4,1.1,2.7,1.7,4c4.1,9.1,4.1,19.5,7.5,29c0.1,0.4,0.3,0.8,0.6,1.1
	c0.1,0.1,0.3,0.2,0.5,0.3C717.6,278.5,717.6,278.5,717.6,278.4z M717.6,278.4c-3.3-9.4-3.3-19.8-7.3-28.8c-0.6-1.3-1.2-2.6-1.7-4
	c-0.3-0.8-0.4-1.7-0.5-2.6l-0.2,0.1l-0.2,0.1l-0.2,0.1l0,0l-0.2,0.1c0.1,0.3,0.1,0.6,0.2,0.9c0.5,1.4,1.1,2.7,1.7,4
	c4.1,9.1,4.1,19.5,7.5,29c0.1,0.4,0.3,0.8,0.6,1.1c0.1,0.1,0.3,0.2,0.5,0.3C717.6,278.5,717.6,278.5,717.6,278.4z M717.6,278.4
	c-3.3-9.4-3.3-19.8-7.3-28.8c-0.6-1.3-1.2-2.6-1.7-4c-0.3-0.8-0.4-1.7-0.5-2.6l-0.2,0.1l-0.2,0.1l-0.2,0.1l0,0l-0.2,0.1
	c0.1,0.3,0.1,0.6,0.2,0.9c0.5,1.4,1.1,2.7,1.7,4c4.1,9.1,4.1,19.5,7.5,29c0.1,0.4,0.3,0.8,0.6,1.1c0.1,0.1,0.3,0.2,0.5,0.3
	C717.6,278.5,717.6,278.5,717.6,278.4z M717.6,278.4c-3.3-9.4-3.3-19.8-7.3-28.8c-0.6-1.3-1.2-2.6-1.7-4c-0.3-0.8-0.4-1.7-0.5-2.6
	l-0.2,0.1l-0.2,0.1l-0.2,0.1l0,0l-0.2,0.1c0.1,0.3,0.1,0.6,0.2,0.9c0.5,1.4,1.1,2.7,1.7,4c4.1,9.1,4.1,19.5,7.5,29
	c0.1,0.4,0.3,0.8,0.6,1.1c0.1,0.1,0.3,0.2,0.5,0.3C717.6,278.5,717.6,278.5,717.6,278.4z M717.6,278.4c-3.3-9.4-3.3-19.8-7.3-28.8
	c-0.6-1.3-1.2-2.6-1.7-4c-0.3-0.8-0.4-1.7-0.5-2.6l-0.2,0.1l-0.2,0.1l-0.2,0.1l0,0l-0.2,0.1c0.1,0.3,0.1,0.6,0.2,0.9
	c0.5,1.4,1.1,2.7,1.7,4c4.1,9.1,4.1,19.5,7.5,29c0.1,0.4,0.3,0.8,0.6,1.1c0.1,0.1,0.3,0.2,0.5,0.3
	C717.6,278.5,717.6,278.5,717.6,278.4z M717.6,278.4c-3.3-9.4-3.3-19.8-7.3-28.8c-0.6-1.3-1.2-2.6-1.7-4c-0.3-0.8-0.4-1.7-0.5-2.6
	l-0.2,0.1l-0.2,0.1l-0.2,0.1l0,0l-0.2,0.1c0.1,0.3,0.1,0.6,0.2,0.9c0.5,1.4,1.1,2.7,1.7,4c4.1,9.1,4.1,19.5,7.5,29
	c0.1,0.4,0.3,0.8,0.6,1.1c0.1,0.1,0.3,0.2,0.5,0.3C717.6,278.5,717.6,278.5,717.6,278.4z M717.6,278.4c-3.3-9.4-3.3-19.8-7.3-28.8
	c-0.6-1.3-1.2-2.6-1.7-4c-0.3-0.8-0.4-1.7-0.5-2.6l-0.2,0.1l-0.2,0.1l-0.2,0.1l0,0l-0.2,0.1c0.1,0.3,0.1,0.6,0.2,0.9
	c0.5,1.4,1.1,2.7,1.7,4c4.1,9.1,4.1,19.5,7.5,29c0.1,0.4,0.3,0.8,0.6,1.1c0.1,0.1,0.3,0.2,0.5,0.3
	C717.6,278.5,717.6,278.5,717.6,278.4z M891.3,371.6L891.3,371.6l-0.8-0.1l1-0.2l0,0c0.1,0,0.2,0,0.3-0.1l0,0
	c1.1-0.2,2.2-0.5,3.3-0.8l0,0l1.1-0.3l0,0l0.2,0c9.3-2.8-1.5-5.3-15.4-7.2h0c-14.9-2-33.2-3.3-33.2-3.3l-5.7,0.8H842
	c-7,0.9-18,2.4-19.8,3c-2.1,0.7-20.3,1.6-26.6,1.9c-0.2-0.4-0.5-0.8-0.9-1l-18.7-0.9v2.6l0,0l-0.1-0.1c-0.2-3.5-1-6.9-2.5-10
	l-0.1-0.3c-4.8-9.1-5.8-11.4-5.8-11.4l0,0c0-0.2-0.1-0.3-0.1-0.5c-1.6-5.6-7.6-15.4-17.7-29.4l-0.3-0.5l-1.3-6.2l-0.2-1.1h-6.4
	c0.9-5.4,2.4-10.7,4.4-15.8c0.1-0.3,0.3-0.6,0.4-1l0.1-0.2c0.1-0.3,0.3-0.7,0.5-1c0.4,0,0.7,0,1.1,0l0,0
	c15.5-0.6,28.2-12.8,29.2-28.3c0,0,0-0.1,0-0.1c0-0.6,0.1-1.2,0.1-1.9c0-5.3-1.4-10.4-4-15c-0.1-0.1-0.2-0.3-0.2-0.4l-0.2-0.3
	l-0.4-0.6c2.3-0.5,5,0.5,7-0.8c0.7-0.5,1.3-1.2,1.7-2.1c0.5-0.9,0.8-2,1-3l0,0l0,0l0,0c0-0.1,0-0.1,0-0.2c0,0,0,0,0-0.1
	c0.1-0.7,0.2-1.4,0.2-2.1c0-1.4-0.2-2.8-0.7-4.2c-1.2-3-3.5-5.3-6.4-6.5c-1.5-0.5-3.1-0.9-4.7-1.3c-6.4-1.7-11.8-5.9-18-8.3
	c-4.3-1.6-8.9-2.3-13.5-2.1c-2.8,0.1-5.5,0.8-8,2c-1.9,1.1-3.7,2.4-5.3,3.9c-4.5,3.5-9.5,6.5-13.4,10.7c-0.7,0.8-1.3,1.6-1.9,2.4
	c-0.3,0.5-0.7,1-1,1.5c-0.6-0.7-1.5-1.1-2.4-1l0,0c-0.2,0-0.3,0-0.5,0c-0.4,0-0.8,0.1-1.2,0.1c-1,0.2-8.5,2.1-8.5,3.2
	c-3.1,1.3-6,3.1-8.6,5.3c-6,5.5-7.3,14.2-8.1,22.2c-1,9.3-1.3,18.7-1,28c0.1,3.4,0.4,6.8,0.2,10.2c-0.3,4-0.9,8-1.8,11.9
	c-0.9,4.1-1.8,8.1-2.8,12.2c-0.5,2-1.2,4.2-3.2,4.9l0.7,0.1c-0.2,0.1-0.5,0.3-0.7,0.4c0.8,0.1,1.7,0.2,2.5,0.2h0.6
	c0.5,0,1-0.1,1.4-0.2c0.7-0.2,1.3-0.4,1.8-0.8c0.1-0.2,0.2-0.4,0.2-0.6c0.6-0.5,1-1.1,1.2-1.9c0.1,1.1,0,2.3-0.2,3.4
	c0,0.2-0.1,0.3-0.1,0.5c-0.5,2.4-1.7,4.7-3.4,6.5l1-0.8c-0.3,0.4-0.6,0.8-1,1.2c1.4-1.1,2.9-2.2,4.3-3.3l0,0
	c0.1-0.1,0.2-0.1,0.2-0.2l0,0l2.5-1.9c0,0.2,0,0.5,0,0.9s0,0.6,0,1l0,0c0,0.1,0,0.3,0,0.5c-0.2,6.9-0.5,23.8,1.1,27.9
	c0.1,0.2,0.2,0.5,0.3,0.7c1.8,4.6,2.6,6.6,2.3,9c-0.2,1.7,1.1,6.5,1.8,10.2c0.4,1.5,0.5,3.1,0.3,4.6c-0.1,0.9-0.1,1.9,0.2,2.8
	c0.1,0.4,0.2,0.9,0.3,1.4c0,0.2,0.1,0.3,0.1,0.5c0.9,3.6,2.2,8.1,0.8,9.9c-0.4,0.6-0.8,1.3-1,2c-1.1,3-1.3,7.1-2.6,8.8
	c-1.5,1.9-1,5.4-0.9,5.8c0,0,0,0,0,0c0,0-0.1,0.4-0.2,1c-0.2,0.8-0.4,2.1-0.8,3.6v0.1c-0.5,2-1,4-1.7,5.9l0,0
	c-0.5,1.4-1,2.3-1.6,2.5c-2,0.7-3,10.1-3,10.1s-4.6,7.4-3.7,9.3c0.2,0.4,0.4,0.8,0.7,1.2l-0.4,0.7c-2.5,3.9-6,11.1-2.6,14.9
	c1.2,1.2,2.6,2.3,4.1,3.1c-0.2,0.4-0.4,0.8-0.6,1.3c-3.8,8.9-9.6,29.4,12.8,38.1c2.2,0.9,4.5,1.6,6.8,2.2c3.6,1,7.2,1.8,10.9,2.3
	c5.3,0.8,10.6,1.3,16,1.4c2.4,0.1,4.7,0.1,7,0.1c2.3,0,4.3-0.1,6.4-0.2c1.2,0,2.4-0.1,3.6-0.2c6.9-0.4,13.7-1.1,20.5-2.3l32-5.7
	c0,0,13.4,0.5,18.4,3.3l0.2,0.1c0,0,0.8-0.5,2.2-1.4l0,0c0.6-0.4,1.3-0.9,2.1-1.5c5.1-3.7,13.5-11,19.1-21.2l0.1-0.2l1.1-0.1h0.2
	l0.8-0.1l1.6-0.2h0.1h0.2c4-0.6,7.9-1.2,7.9-1.2s0.2,4.5,0.3,9.7c0.1,1.6,0.1,3.2,0.2,4.8c0.2,5.5,0.4,10.5,0.4,10.6
	s4.1,11,8.7,21.9l3.6,0.3c9.5,0.8,19,1.4,28.5,1.9l3.5,0.2l2.2,0.1c-1.6-9.7-2.9-18.9-2.9-18.9l-5.9-27.7c0,0-0.6-5.7-5.1-31.2
	c-3.6-20.6-24.8-18.8-32.7-17.4c-0.8,0.2-1.5,0.3-2,0.4v-1.5c0,0-15.2,1.3-29,1.9l-3.3,0.1c-3.2,0.1-6.2,0.2-8.9,0.2
	c-2.3,0-4.7-0.1-7-0.3c-10.6-1.2-22.8,2.4-22.8,2.4s-15.5,2.5-17.6,1.6c-0.6-0.2-1.2-0.3-1.8-0.4c-0.3,0-0.6,0-1,0
	c0.7-0.3,1.1-1,1-1.8c-0.6-2.6-0.9-6.1,0.9-8.5c0.8-1.1,2-2.8,3.1-4.3l2.7-3.7v-0.3l0.1-1.1l0.7-9.7l1.6-9l0.1-0.6l0.1-0.8l0.1-0.6
	l0.3,0.1l0,0c4.4,1.5,9.5,2.6,13,1.4h0.1c0.3-0.1,0.6-0.2,0.8-0.3h0.2v0.7l0.1,1.2l16.7-0.9h0.2c0,0,0.7-3.2,1.3-7.7
	c0-0.4,0.1-0.7,0.2-1.1s0.2-1,0.2-1.5c0-0.2,0.1-0.5,0.1-0.7h0.7h0.3c7.7-0.3,18.5-0.9,22.9-2.5l0,0c0.5-0.2,1.1-0.5,1.5-0.8
	c1.9-1.6,8.6-3.9,15.2-5.9l0,0l2.6-0.8c1.9-0.6,3.8-1.1,5.4-1.5c3.8-1,6.5-1.7,6.5-1.7s26,2.4,45.4-3.2l0,0l0.3-0.1
	C904.6,375.2,900,373.3,891.3,371.6z M706.9,241.6c0,0.3,0.1,0.6,0.1,0.9l0,0l0,0l0,0l0,0c0,0.1,0,0.3,0.1,0.4c0,0.1,0,0.3,0.1,0.4
	c0.1,0.3,0.1,0.6,0.2,0.9c0.5,1.4,1.1,2.7,1.7,4c4.1,9.1,4.1,19.5,7.5,29c0.1,0.4,0.3,0.8,0.6,1.1c0.1,0.1,0.3,0.2,0.5,0.3l0.2,0.1
	l0,0h0.3l-0.1,0.2c0,0,0,0.1-0.1,0.1l-0.1,0.1c-1.3,2.3-2.8,4.5-4.2,6.4c-1.2,0.2-2.4,0.7-3.5,1.4l-0.6,0.4l-0.2,0.2
	c-0.3-1.7-0.8-3.4-1.3-5.1c-2.4-9.1-3.7-18.4-3.9-27.7c0-0.2,0-0.4,0-0.6c0-0.4,0-0.9,0-1.3c0-2.4,0.1-4.8,0.2-7.2
	c0-1.1,0.3-2.2,0.8-3.2l0,0C705.8,241.9,706.3,241.6,706.9,241.6L706.9,241.6z M717.6,278.4c-3.3-9.4-3.3-19.8-7.3-28.8
	c-0.6-1.3-1.2-2.6-1.7-4c-0.3-0.8-0.4-1.7-0.5-2.6l-0.2,0.1l-0.2,0.1l-0.2,0.1l0,0l-0.2,0.1c0.1,0.3,0.1,0.6,0.2,0.9
	c0.5,1.4,1.1,2.7,1.7,4c4.1,9.1,4.1,19.5,7.5,29c0.1,0.4,0.3,0.8,0.6,1.1c0.1,0.1,0.3,0.2,0.5,0.3
	C717.6,278.5,717.6,278.5,717.6,278.4L717.6,278.4z M717.6,278.4c-3.3-9.4-3.3-19.8-7.3-28.8c-0.6-1.3-1.2-2.6-1.7-4
	c-0.3-0.8-0.4-1.7-0.5-2.6l-0.2,0.1l-0.2,0.1l-0.2,0.1l0,0l-0.2,0.1c0.1,0.3,0.1,0.6,0.2,0.9c0.5,1.4,1.1,2.7,1.7,4
	c4.1,9.1,4.1,19.5,7.5,29c0.1,0.4,0.3,0.8,0.6,1.1c0.1,0.1,0.3,0.2,0.5,0.3C717.6,278.5,717.6,278.5,717.6,278.4L717.6,278.4z
	 M717.6,278.4c-3.3-9.4-3.3-19.8-7.3-28.8c-0.6-1.3-1.2-2.6-1.7-4c-0.3-0.8-0.4-1.7-0.5-2.6l-0.2,0.1l-0.2,0.1l-0.2,0.1l0,0
	l-0.2,0.1c0.1,0.3,0.1,0.6,0.2,0.9c0.5,1.4,1.1,2.7,1.7,4c4.1,9.1,4.1,19.5,7.5,29c0.1,0.4,0.3,0.8,0.6,1.1c0.1,0.1,0.3,0.2,0.5,0.3
	C717.6,278.5,717.6,278.5,717.6,278.4L717.6,278.4z M717.6,278.4c-3.3-9.4-3.3-19.8-7.3-28.8c-0.6-1.3-1.2-2.6-1.7-4
	c-0.3-0.8-0.4-1.7-0.5-2.6l-0.2,0.1l-0.2,0.1l-0.2,0.1l0,0l-0.2,0.1c0.1,0.3,0.1,0.6,0.2,0.9c0.5,1.4,1.1,2.7,1.7,4
	c4.1,9.1,4.1,19.5,7.5,29c0.1,0.4,0.3,0.8,0.6,1.1c0.1,0.1,0.3,0.2,0.5,0.3C717.6,278.5,717.6,278.5,717.6,278.4L717.6,278.4z
	 M717.6,278.4c-3.3-9.4-3.3-19.8-7.3-28.8c-0.6-1.3-1.2-2.6-1.7-4c-0.3-0.8-0.4-1.7-0.5-2.6l-0.2,0.1l-0.2,0.1l-0.2,0.1l0,0
	l-0.2,0.1c0.1,0.3,0.1,0.6,0.2,0.9c0.5,1.4,1.1,2.7,1.7,4c4.1,9.1,4.1,19.5,7.5,29c0.1,0.4,0.3,0.8,0.6,1.1c0.1,0.1,0.3,0.2,0.5,0.3
	C717.6,278.5,717.6,278.5,717.6,278.4L717.6,278.4z M717.6,278.4c-3.3-9.4-3.3-19.8-7.3-28.8c-0.6-1.3-1.2-2.6-1.7-4
	c-0.3-0.8-0.4-1.7-0.5-2.6l-0.2,0.1l-0.2,0.1l-0.2,0.1l0,0l-0.2,0.1c0.1,0.3,0.1,0.6,0.2,0.9c0.5,1.4,1.1,2.7,1.7,4
	c4.1,9.1,4.1,19.5,7.5,29c0.1,0.4,0.3,0.8,0.6,1.1c0.1,0.1,0.3,0.2,0.5,0.3C717.6,278.5,717.6,278.5,717.6,278.4L717.6,278.4z"/>
<path class="st32" d="M751,283.7c-1.6,1.8-2.9,3.8-3.8,5.9c-0.2,0.3-0.3,0.6-0.4,1c-4.4,10-5.9,24.1-5.9,24.1s-2.7-1.2-6.6-3.1
	c-7.2-3.6-18.4-9.5-22.9-14.3c-2-2.1-2.7-4-1.1-5.4c0.4-0.3,0.7-0.6,1.1-1c1.3-1.3,2.4-2.7,3.5-4.1c1.4-2,2.9-4.2,4.2-6.5
	c0.8-1.3,1.5-2.7,2.2-4l0.3-0.5c3-5.7,5.2-10.5,5.2-10.5s1,0.3,2.6,0.9C736.8,268.8,757.4,276.9,751,283.7z"/>
<path class="st32" d="M887.9,515.4c0,0,1.2,9.1,2.8,18.6l-3.5-0.2c-9.5-0.5-19-1.1-28.5-1.9c-5.4-12.5-11-27.4-11-27.6
	s-0.2-5.1-0.4-10.6c-0.1-1.9-0.1-3.9-0.2-5.8l0,0c-0.1-2.8-0.2-5.4-0.2-6.9c0-1.1-0.1-1.7-0.1-1.7s-5.1,0.9-9.8,1.5l-2,0.3
	c-1.1,0.1-2,0.2-2.8,0.3c-0.7,0.1-1.5,0.1-2.2,0c-1.6-0.6,1.7-16,1.7-16l8.2-19.8l2.3-5.5l1-0.2c0.5-0.1,1.2-0.3,1.9-0.4
	c7.8-1.4,28.6-3.2,32.1,17.3c4.4,25.4,5,31.1,5,31.1L887.9,515.4z"/>
<path class="st32" d="M895.8,556h-2.5l0,0H895.8L895.8,556z"/>
<path class="st33" d="M887.9,515.4c0,0,1.2,9.1,2.8,18.6l-3.5-0.2c-9.5-0.5-19-1.1-28.5-1.9c-5.4-12.5-11-27.4-11-27.6
	s-0.2-5.1-0.4-10.6c-0.1-1.9-0.1-3.9-0.2-5.8l0,0c-0.1-2.8-0.2-5.4-0.2-6.9c0-1.1-0.1-1.7-0.1-1.7s-5.1,0.9-9.8,1.5l-2,0.3
	c-1.1,0.1-2,0.2-2.8,0.3c-0.7,0.1-1.5,0.1-2.2,0c-1.6-0.6,1.7-16,1.7-16l8.2-19.8l2.3-5.5l1-0.2c0.5-0.1,1.2-0.3,1.9-0.4
	c7.8-1.4,28.6-3.2,32.1,17.3c4.4,25.4,5,31.1,5,31.1L887.9,515.4z"/>
<path class="st33" d="M895.8,556h-2.5l0,0H895.8L895.8,556z"/>
<path class="st32" d="M887.1,533.8c-9.5-0.5-19-1.1-28.5-1.9l-3.6-0.3l-1.6-0.1c-4.5-10.8-8.5-21.4-8.5-21.6s-0.2-5.1-0.4-10.6
	c-0.2-6.8-0.5-14.4-0.5-14.4l-0.7,0.1l-0.3,0h-0.1h-0.2l-1.6,0.3l-0.9,0.1c-1.6,0.3-3.5,0.5-5.4,0.8l-0.4,0.1l-1.1,0.1l-1,0.1l0,0
	c-0.8,0.1-1.5,0.2-2.2,0.2l-0.8,0.1c-0.7,0.1-1.5,0.1-2.2,0c-1.6-0.6,1.7-16,1.7-16l10.4-25.2l0.4-0.1c0.5-0.1,1.7-0.4,3.3-0.7
	c0.6-0.1,1.2-0.2,1.9-0.3c9.1-1.2,26.3-0.8,29.5,17.7c4.4,25.4,5,31.1,5,31.1l5.8,27.6C885.3,521,886,526.7,887.1,533.8z"/>
<path class="st3" d="M844.6,499.3c-0.2-6.8-0.5-14.4-0.5-14.4s-10,1.8-14.7,2.1l0.9-3.2c0,0,17.1-4.7,17.5-2.1
	C848.1,483.6,845.9,493.6,844.6,499.3z"/>
<path class="st3" d="M845,439.4v7.2c0,0-0.8,13-7.5,32.9c-0.1,0.4-0.3,0.8-0.5,1.3c-0.7,1.9-1.5,3.8-2.5,5.6c-1.9,0.3-3.7,0.5-5,0.6
	c-0.7,0.1-1.5,0.1-2.2,0c-1.6-0.6,1.7-16,1.7-16l10.4-25.2l0.4-0.1l2.3-5.5C842,440.2,843.1,439.8,845,439.4z"/>
<path class="st34" d="M843,438.3v8.4c0,0-0.8,13-7.5,32.9c-0.2,0.5-0.4,1-0.5,1.5s-0.4,1.2-0.7,1.7c-0.5,1.3-1.2,2.6-1.8,3.9l0,0
	c-5.2,9.9-13.2,17-18.3,20.9c-0.7,0.6-1.4,1.1-2,1.5h0c-1,0.7-1.7,1.2-2.2,1.5s-0.5,0.3-0.5,0.3c-4.7-2.9-18.2-3.4-18.2-3.4
	l-31.4,5.7c-6.9,1.2-13.8,2-20.8,2.4l-3.6,0.2c-2.1,0.1-4.2,0.1-6.4,0.1c-1.8,0-3.6,0-5.4-0.1l0,0c-5.9-0.1-11.8-0.7-17.6-1.7
	c-3.2-0.5-6.4-1.2-9.5-2.1c-2.2-0.6-4.4-1.4-6.6-2.2c-22-8.6-16.3-29.1-12.6-38c0.2-0.5,0.4-0.9,0.6-1.3c0.8-1.8,1.4-2.9,1.4-2.9
	l1.5-3.5l0,0l2.4-5.8l0.5-1.3l0.2-0.4l1.8-4.3l25-3.2l18.4-2.4l5.6-0.7l3.8-0.5l7.2-0.9l2.7-0.3c1.7-0.3,3.4-0.4,5.1-0.4
	c0.9,0,1.8,0.1,2.7,0.4c2,0.9,17.2-1.6,17.2-1.6s11.9-3.6,22.3-2.4c5.2,0.4,10.3,0.4,15.5,0.1l0,0l1.3-0.1l1.7-0.1h0.4
	C828,439.6,843,438.3,843,438.3z"/>
<path class="st3" d="M753.1,463.4c0,0-12,27.3-12.5,27.8s-0.5,9,0,8.5s17.1-37.4,17.1-37.4L753.1,463.4z"/>
<path class="st3" d="M811.2,440.3c0,0-6.1,3.9-7.9,7.1s-18.5,34.6-22.6,39.2c-3.4,4.1-6.5,8.5-9.2,13.1c-0.5,0.8-0.5,6,2.4,1.1
	s2.2-5.8,7.9-12s12-20.2,14.4-22.9s5.8-11.2,10.1-16.2l8.1-9.5L811.2,440.3z"/>
<path class="st3" d="M812.7,494.3c0,0-4.2-2.9-8.2,2.1S812.7,494.3,812.7,494.3z"/>
<path class="st3" d="M817.9,495.8c0,0-3.5,6.1-5.2,6.6S817.9,495.8,817.9,495.8z"/>
<path class="st3" d="M812.7,497.3c0,0-2.8,4.9-5.2,4.4L812.7,497.3z"/>
<path class="st32" d="M793,366.1c0,0,25.7-1.1,28.3-1.9s25.1-3.8,25.1-3.8s66.9,4.7,47.8,10.4s-44.9,3.3-44.9,3.3s-25.2,6.6-29.1,10
	s-32.5,3.5-32.5,3.5L793,366.1z"/>
<path class="st33" d="M793,366.1c0,0,25.7-1.1,28.3-1.9s25.1-3.8,25.1-3.8s66.9,4.7,47.8,10.4s-44.9,3.3-44.9,3.3s-25.2,6.6-29.1,10
	s-32.5,3.5-32.5,3.5L793,366.1z"/>
<path class="st17" d="M701.5,307.5c0,0-23.5,8-12.1,28.4s26.1,30,26.1,30l37.9,26.2c0,0,15.9,9.1,23.2,5.3l11.9-1l2-31.2
	c0,0-10,7.8-20.9-3s-24.3-18.1-25.4-23.9S715.2,302.5,701.5,307.5z"/>
<path class="st20" d="M775.9,373.5c0,0,12.3,4.4,11.8,4.6s-11.8,4.5-11.8,4.5l0.8,16.6l16.6-0.9c0,0,6.1-30.3,0.8-33.3l-18.3-0.8
	L775.9,373.5z"/>
<path class="st3" d="M775.9,373.5c0,0,12.3,4.4,11.8,4.6s-11.8,4.5-11.8,4.5l0.8,16.6l16.6-0.9c0,0,6.1-30.3,0.8-33.3l-18.3-0.8
	L775.9,373.5z"/>
<path class="st3" d="M751,283.7c-1.6,1.8-2.9,3.8-3.8,5.9c-0.2,0.3-0.3,0.6-0.4,1c-8.9,0-15.3-6.9-20.8-13.1c-1-1.1-3.5,0.6-4.4-0.7
	c-0.1-0.1-0.2-0.3-0.3-0.5l0.3-0.5c3-5.7,5.2-10.5,5.2-10.5s1,0.3,2.6,0.9C736.8,268.8,757.4,276.9,751,283.7z"/>
<path class="st32" d="M777,259.5c0,16.5-13.3,29.9-29.8,30.1h-0.3c-8.6,0-16.9-3.7-22.6-10.2c-1-1.1-1.9-2.4-2.8-3.6
	c-9-14-4.9-32.6,9.1-41.6c14-9,32.6-4.9,41.6,9.1C775.4,248.1,777,253.7,777,259.5z"/>
<path class="st3" d="M746.4,446.2c0,0-2.3,2.8-4.8,5.4c-1.9,2-4,3.8-5.3,4.3c-3,1.1-16.8,11.5-16.8,11.5s-10.9,7.4-13.7,9.6
	s-12.9,0.8-12.9,0.8s-9.7-2.1-15.7-6c0.6-1.4,1.3-2.8,2-4.2l6.3-15.3l25-3.2L746.4,446.2z"/>
<path class="st20" d="M745.9,444.3c0,0-2.3,2.8-4.8,5.4c-1.9,2-4,3.8-5.3,4.3c-3,1.1-16.8,11.5-16.8,11.5s-10.9,7.4-13.7,9.6
	s-12.9,0.8-12.9,0.8s-13.8-3-18.7-8.5c-3.4-3.8,0.1-10.9,2.5-14.8c1-1.7,1.8-2.8,1.8-2.8L745.9,444.3z"/>
<path class="st20" d="M763.9,350.2c-8.3-0.7-35.5-34-35.5-34l0.6-0.9l5.7-7.9h13.3l1.5,7.3c10.1,14.2,16.1,24.1,17.7,29.8
	C768.5,348.6,767.4,350.5,763.9,350.2z"/>
<path class="st3" d="M763.9,350.2c-8.3-0.7-35.5-34-35.5-34l0.6-0.9c4.9,4.5,9.5,9.3,13.7,14.3c19.9,23.4,23.8,16.9,24.5,14.8
	C768.5,348.6,767.4,350.5,763.9,350.2z"/>
<path class="st3" d="M745.9,444.3c0,0-2.3,2.8-4.8,5.4c-1.3,0.5-2.7,0.8-4.2,0.9c-3.2-0.1-10.4,4.9-10.4,4.9s-12.9-0.7-15.3,0.6
	s-11.8,1.6-11.8,1.6c-17.1,4.9-21.8-2.5-23.1-5c1-1.7,1.8-2.8,1.8-2.8L745.9,444.3z"/>
<path class="st35" d="M775.6,372c0,0.5-0.1,0.9-0.2,1.4s-0.1,0.9-0.2,1.3c-0.3,2.5-1.1,4.9-2.2,7.1c-2.2,3.6-8.9,17.8-8.9,17.8
	l-0.5,2.6l-0.2,1.4l-0.2,1.3l-1.6,9.6l-0.7,11c0,0-4,5.6-5.7,8s-1.5,6-0.8,8.5s-5.6,2.9-5.6,2.9s-8.7,4.2-11.9,4.1
	s-10.4,4.8-10.4,4.8s-12.9-0.7-15.3,0.6s-11.8,1.6-11.8,1.6c-18.3,5.2-22.5-3.7-23.3-5.5s3.6-9.2,3.6-9.2s1-9.3,2.9-10.1
	s4.2-13.1,4.2-13.1s-0.7-3.8,0.8-5.8s1.5-7.9,3.5-10.7s-2.2-12.1-1.5-14.6s-2.3-12.3-2.1-14.8s-0.6-4.6-2.5-9.7
	c-1.7-4.3-1.2-23.7-1-29.2c0-0.9,0-1.5,0-1.5s1.7-5.5,6.2-16.4c3.4-8.3,11-11.4,14.6-12.4c0.6-0.2,1.2-0.3,1.8-0.5
	c0.9,0.1,1.7,0.3,2.6,0.6c3.5,1.2,10.6,4.6,20.7,14c4.5,4.2,8.7,8.6,12.6,13.3c22.8,26.8,24.6,14.3,24.6,14.3s1,2.3,5.7,11.4
	C775.6,361.2,776.1,367,775.6,372z"/>
<path class="st3" d="M738.2,306l-22.8-18.2c0,0-8.2,1-11.6,14.8l23.5,20.6L738.2,306z"/>
<path class="st20" d="M738.2,306l-4,5.6l-4.1,5.7l-3.1,4.5L708.3,306l-3.2-2.8l-1.8-1.5c1.8-7.5,5.1-11.2,7.7-13
	c1.2-0.9,2.5-1.5,4-1.8L738.2,306z"/>
<path class="st32" d="M895.2,378.1c-19.1,5.7-44.9,3.3-44.9,3.3s-25.2,6.5-29.1,10c-2.5,2.2-15.3,3-24,3.3c-4.8,0.2-8.5,0.2-8.5,0.2
	l5.3-21.5l3.1-0.1c6.9-0.3,23.2-1.1,25.2-1.8c2.5-0.8,25.1-3.8,25.1-3.8S914.3,372.4,895.2,378.1z"/>
<path class="st3" d="M775.3,374.6c-0.3,2.5-1.1,4.9-2.2,7.1c-2.2,3.6-8.9,17.8-8.9,17.8l-0.9,5.4c-3.1-1.2-6.1-2.5-9-4.1l-37.9-26.2
	c0,0-14.7-9.6-26.1-30s12.1-28.4,12.1-28.4c13.7-5,41.5,25,42.6,30.8s14.5,13.1,25.4,23.9C771.9,372.4,773.5,373.6,775.3,374.6z"/>
<path class="st36" d="M791.3,372.5l-1.9,31.2l-11.9,1c-0.3,0.1-0.5,0.3-0.8,0.3c-7.6,2.8-22.4-5.7-22.4-5.7l-37.9-26.2
	c0,0-14.7-9.6-26.1-30s12.1-28.4,12.1-28.4c13.7-5,41.5,25,42.6,30.8c1.1,5.8,14.5,13.1,25.4,23.9c1.6,1.6,3.4,3,5.5,4
	C780.8,376,786.8,375.7,791.3,372.5z"/>
<path class="st3" d="M791.3,372.5l-1.9,31.2l-11.9,1c-0.3,0.1-0.5,0.3-0.8,0.3l-0.8-15.2c0,0,11.3-4.2,11.8-4.5s-11.8-4.6-11.8-4.6
	v-7.2C780.8,376.1,786.8,375.7,791.3,372.5z"/>
<path class="st3" d="M797.1,394.7c-4.8,0.2-8.5,0.2-8.5,0.2l5.4-21.5l3.1-0.1C799.1,376.6,798.2,386.7,797.1,394.7z"/>
<path class="st20" d="M776.9,380.8c0,0,12.3,4.4,11.8,4.6s-11.8,4.5-11.8,4.5l0.8,16.6l16.6-0.9c0,0,6.1-30.3,0.8-33.3l-18.3-0.8
	L776.9,380.8z"/>
<path class="st3" d="M704.2,400.7c0,0-4.1,3.9-7.5,4.9L704.2,400.7z"/>
<path class="st3" d="M694.3,412.2c0,0,10.1-0.4,11.3-2.4S694.3,412.2,694.3,412.2z"/>
<path class="st3" d="M689.4,426.6c0.6,0,12.7-1.7,13.2-3.3L689.4,426.6z"/>
<path class="st3" d="M685.6,435.9c4.4-0.1,11.8-4.9,11.8-4.9L685.6,435.9z"/>
<path class="st3" d="M713.9,438.3c0,0,26.3,0,27.5-4.8S713.9,438.3,713.9,438.3z"/>
<path class="st3" d="M733.7,370.4c0.5,0,20.8,0,22.7-2.8S733.7,370.4,733.7,370.4z"/>
<path class="st3" d="M711.3,291c0.2,1,0.3,2,0.3,3c0,1.1-0.1,2.2-0.3,3.3c-0.4,2.1-1,4.1-1.9,6.1l-0.2,0.5c-0.3,0.7-0.6,1.4-1,2.1
	c-1.5,3-3.2,5.9-5.2,8.6c-4.6,6.1-9.8,11.6-15.7,16.4c-1,0.9-2.1,1.7-3.1,2.5c0-0.9,0-1.5,0-1.5s1.7-5.5,6.2-16.4
	c3.4-8.3,11-11.4,14.6-12.4l-1.8-1.5c1.8-7.5,5.1-11.2,7.7-13C711,289.4,711.2,290.1,711.3,291z"/>
<path class="st3" d="M772.6,243.9c-0.3,0.1-0.6,0.2-0.9,0.4c-1.9,1-2.5,3.5-4,5.1c-1.8,1.9-4.6,2.1-7.1,2.5s-5.4,1-6.8,3.1
	c-1,1.6-0.9,3.7-1.3,5.6c0,0.3-0.2,0.7-0.4,0.9c-0.3,0.3-0.8,0.4-1.2,0.4c-5,0.4-8.6-1.4-13.3-2.6c-2.2-0.6-4.8-0.5-6.4,1
	c-1.5,1.4-1.9,3.6-1.9,5.7v0.2c0.2,2,0.3,4,0.2,6c-0.5,3.1-2.4,5.9-5.2,7.3c-1.2,0.6-2.5,1-3.8,1.1c-0.5,0.1-1,0-1.5-0.2
	c0.9-1.5,1.7-3,2.5-4.5c-9-14-5-32.6,8.9-41.6c14-9,32.6-5,41.6,8.9C772.3,243.3,772.4,243.6,772.6,243.9L772.6,243.9z"/>
<path class="st37" d="M780.9,240c-0.4,0.8-0.9,1.5-1.7,2c-2.3,1.5-5.5-0.1-7.9,1.2c-1.9,1-2.5,3.5-4,5.1c-1.8,1.9-4.6,2.1-7.1,2.5
	s-5.4,1-6.8,3.1c-1,1.6-0.9,3.7-1.3,5.6c0,0.3-0.2,0.7-0.4,0.9c-0.3,0.3-0.8,0.4-1.2,0.4c-5,0.4-8.6-1.4-13.3-2.6
	c-2.2-0.6-4.8-0.5-6.4,1s-1.9,3.6-1.9,5.7c0.2,2,0.3,4.1,0.2,6.2c-0.7,4.5-4.4,8-9,8.4c-0.7,0.1-1.3-0.1-1.8-0.5
	c-0.3-0.3-0.5-0.7-0.6-1.1c-3.3-9.4-3.3-19.8-7.3-28.8c-0.7-1.3-1.2-2.6-1.7-4c-0.1-0.3-0.2-0.6-0.2-0.9c-0.1-0.6-0.2-1.2-0.2-1.8
	c-0.4,0.1-0.8,0.2-1.1,0.5c-0.1,0.1-0.2,0.2-0.3,0.3c-0.6,1-0.9,2.1-0.8,3.2c-0.7,12.5,0.5,25,3.6,37.2c1,3,1.5,6.2,1.7,9.3
	c-0.1,3.4-0.9,6.8-2.4,9.9c-6.3,14.5-18.9,25-31.4,34.6c2.6-2.8,3.9-6.5,3.7-10.3c-0.4,1.5-1.7,2.6-3.2,2.8c-1.5,0.3-3,0.2-4.5-0.1
	c1.9-0.6,2.7-2.9,3.2-4.9c1-4,1.9-8,2.7-12.1c0.9-3.9,1.5-7.8,1.8-11.8c0.2-3.4-0.1-6.8-0.2-10.2c-0.3-9.3,0-18.6,1-27.9
	c0.7-8,2.1-16.6,8-22.1c2.5-2.1,5.4-3.9,8.4-5.2c0-1,7.3-3,8.3-3.1c0.4-0.1,0.8-0.1,1.2-0.1c1.1-0.2,2.1,0.4,2.6,1.4
	c0.4-0.6,0.8-1.3,1.2-1.9c0.6-0.8,1.2-1.6,1.9-2.4c3.8-4.2,8.8-7.2,13.2-10.7c1.6-1.5,3.4-2.7,5.2-3.9c2.4-1.2,5.1-1.9,7.8-2
	c4.5-0.3,9,0.5,13.2,2.1c6.1,2.3,11.4,6.5,17.7,8.2c1.6,0.3,3.1,0.8,4.6,1.3c5.7,2.3,8.5,8.7,6.2,14.4
	C781.2,239.4,781.1,239.7,780.9,240L780.9,240z"/>
<g class="st26">
	<path d="M679.6,329.6c0.7-1.9,1-3.9,0.9-5.9c-0.4,1.5-1.7,2.6-3.2,2.8c-0.4,0.1-0.8,0.1-1.2,0.2c-0.5,1.6-1.3,3.1-2.8,3.6
		c1.5,0.3,3,0.3,4.5,0.1C678.5,330.3,679.1,330,679.6,329.6z"/>
	<path d="M781.6,232.1c-0.1,1.6-0.5,3.1-1.2,4.5c-0.4,0.8-1,1.5-1.7,2c-2.3,1.5-5.5-0.1-7.9,1.2c-1.9,1-2.5,3.5-4,5.1
		c-1.8,1.9-4.6,2.1-7.1,2.5s-5.4,1-6.8,3.1c-1,1.6-0.9,3.7-1.3,5.6c0,0.8-0.7,1.4-1.5,1.3c-0.1,0-0.1,0-0.2,0
		c-5,0.4-8.6-1.4-13.3-2.6c-2.2-0.6-4.8-0.5-6.4,1c-1.5,1.4-1.9,3.6-1.9,5.7c0.2,2,0.3,4.1,0.2,6.1c-0.7,4.6-4.4,8-9,8.4
		c-0.7,0.1-1.3-0.1-1.8-0.5c-0.3-0.3-0.5-0.7-0.6-1.1c-3.3-9.4-3.3-19.8-7.3-28.8c-0.6-1.3-1.2-2.6-1.7-4c-0.3-0.8-0.4-1.7-0.5-2.6
		c-0.6,0.1-1.1,0.4-1.5,0.8c-0.6,1-0.9,2.1-0.8,3.2c-0.5,8-0.1,16.1,1,24c-0.7-6.7-0.9-13.4-0.5-20.1c0-1.1,0.3-2.2,0.8-3.2
		c0.4-0.5,0.9-0.8,1.5-0.8c0.1,0.9,0.2,1.8,0.5,2.6c0.5,1.4,1,2.7,1.7,4c4,9.1,4,19.5,7.3,28.8c0.1,0.4,0.3,0.8,0.6,1.1
		c0.5,0.4,1.2,0.6,1.8,0.5c4.6-0.4,8.3-3.9,9-8.4c0.1-2.1,0-4.1-0.2-6.2c0-2.1,0.4-4.3,1.9-5.7c1.7-1.5,4.2-1.6,6.4-1
		c4.7,1.2,8.3,2.9,13.3,2.6c0.4,0,0.9-0.1,1.2-0.4c0.2-0.3,0.4-0.6,0.4-0.9c0.4-1.9,0.3-3.9,1.3-5.5c1.4-2.2,4.2-2.8,6.8-3.1
		s5.4-0.6,7.2-2.4c1.5-1.6,2-4.1,4-5.1c2.4-1.3,5.7,0.3,7.9-1.2c0.7-0.5,1.3-1.2,1.7-2C782.2,237.9,782.5,234.9,781.6,232.1z"/>
	<path d="M710.6,289.6c-0.1,3.4-0.9,6.8-2.4,9.9c-5.6,12.9-16.3,22.8-27.4,31.5c-0.5,2.6-1.7,5-3.5,7c12.5-9.6,25.1-20.1,31.4-34.6
		c1.5-3.1,2.3-6.5,2.4-9.9c0-1.5-0.2-2.9-0.5-4.4C710.6,289.2,710.6,289.4,710.6,289.6z"/>
</g>
<path class="st3" d="M711.9,232c-0.9,4.1-2.1,9.5-3.1,12.3c-0.1-0.6-0.2-1.2-0.2-1.8c-0.4,0.1-0.8,0.2-1.1,0.5
	c0-2.9,0.3-7.2,0.7-10.5c1.1-0.2,2.1,0.4,2.6,1.4C711,233.2,711.5,232.6,711.9,232z"/>
<path class="st20" d="M711.4,232c-0.9,4.1-2.1,9.5-3.1,12.3c-0.1-0.6-0.2-1.2-0.2-1.8c-0.4,0.1-0.8,0.2-1.1,0.5
	c0-2.9,0.3-7.2,0.7-10.5c1.1-0.2,2.1,0.4,2.6,1.4C710.6,233.2,711,232.6,711.4,232z"/>
<g class="st38">
	<path class="st39" d="M915,7.5h165.7v161.1H915V7.5z"/>
	<path class="st40" d="M907.5,0v176.2h180.7V0H907.5z M915.1,7.5h165.7v161.2H915L915.1,7.5z"/>
	<path class="st41" d="M1038.8,74c-1.4-0.6-2.9-0.8-4.4-0.8c-9.5,0-15.8,7.3-15.8,19.4c0,13.9,6.5,19.4,14.9,19.4
		c1.8,0.1,3.5-0.2,5.2-0.8L1038.8,74L1038.8,74z M1005,93.3c0-17.6,11.3-31.3,29.8-31.3c1.3,0,2.6,0,3.9,0.2V42.6
		c0-0.4,0.3-0.8,0.8-0.8l0,0h12.1c0.6,0,0.8,0.2,0.8,0.6v68.8c0,2.5,0.1,4.9,0.4,7.4c0,0.5,0,0.6-0.4,0.8c-6,2.9-12.6,4.4-19.3,4.4
		C1016.7,123.9,1005,113.8,1005,93.3L1005,93.3z M979.4,81.1l21.1,40.9c0.4,0.6,0.2,1.2-0.5,1.2h-13.1c-0.7,0.1-1.4-0.3-1.6-1
		c-4.8-9.9-9.7-20.3-14.8-31h-0.2c-4.5,10.1-9.5,21.1-14.3,31c-0.2,0.5-0.8,0.8-1.4,0.8h-12.5c-0.8,0-0.8-0.6-0.5-1.1l20.6-39.7
		L942.5,43c-0.3-0.3-0.2-0.7,0-0.9c0.1-0.1,0.3-0.2,0.5-0.2h13c0.8,0,1.1,0.1,1.3,0.8c4.8,10,9.6,19.9,14.1,30h0.2
		c4.4-9.9,9.2-20,13.8-29.8c0.4-0.6,0.6-1,1.3-1h12.1c0.6,0,0.8,0.4,0.5,1.1L979.4,81.1L979.4,81.1z"/>
</g>
<g class="st38">
	<path id="_x38_8e22766-bb2e-4d8a-8c4e-873561c02ed1" class="st42" d="M228.4,72.4L285,183.2L189.8,72.4H228.4z"/>
	<path id="dcb2c17a-6570-4f03-a416-11c2a206e419" class="st43" d="M341.6,72.4L285,183.2l95.2-110.8H341.6z"/>
	<path id="d2c5ae9b-dccc-4d4c-8aa0-840002be2480" class="st44" d="M228.4,72.4h113.2L285,183.2L228.4,72.4z"/>
	<path id="_x36_16bf47a-f8e5-41ce-b525-03b6ad416eda" class="st45" d="M285,11l-53.6,5.7l-3,55.7L285,11z"/>
	<path id="ca73b31d-b223-4f6c-ac2e-edd2597912ec" class="st46" d="M285,11l53.6,5.7l3,55.7L285,11z"/>
	<path id="_x32_a7c7013-4804-45aa-950a-2b5376f70ef0" class="st47" d="M380.1,72.4l-41.5-55.7l3,55.7H380.1z"/>
	<path id="_x35_dac32ab-c712-4de9-a97f-2e05661e9f0b" class="st47" d="M189.8,72.4l41.5-55.7l-3,55.7H189.8z"/>
	<path id="_x32_d1bbfda-86f6-4da7-9bb0-15ddbbfa97e7" class="st48" d="M285,11l-56.6,61.4h113.2L285,11z"/>
</g>
</svg>
