<?xml version="1.0" encoding="utf-8"?>
<!-- Generator: Adobe Illustrator 22.0.1, SVG Export Plug-In . SVG Version: 6.00 Build 0)  -->
<svg version="1.1" id="ea1a5787-4807-42ae-aba3-2738e8ad7f96"
	 xmlns="http://www.w3.org/2000/svg" xmlns:xlink="http://www.w3.org/1999/xlink" x="0px" y="0px" viewBox="0 0 1150.4 675.6"
	 style="enable-background:new 0 0 1150.4 675.6;" xml:space="preserve">
<style type="text/css">
	.st0{opacity:0.1;fill:#A8DBF4;enable-background:new    ;}
	.st1{fill:none;stroke:#535461;stroke-width:2;stroke-miterlimit:10;}
	.st2{fill:#0D8CD8;}
	.st3{opacity:0.25;fill:#4A7D91;enable-background:new    ;}
	.st4{fill:#7DC5EA;}
	.st5{fill:#8B8BAF;}
	.st6{fill:#6D6D99;}
	.st7{fill:#9C9CB7;}
	.st8{fill:#8787AA;}
	.st9{fill:#514E7F;}
	.st10{fill:#8888A5;}
	.st11{opacity:0.1;enable-background:new    ;}
	.st12{fill:#7A7A9E;}
	.st13{fill:#5B5B7F;}
	.st14{fill:#5B5A6B;}
	.st15{fill:#B0D7EA;}
	.st16{opacity:0.5;fill:#0D8CD8;enable-background:new    ;}
	.st17{fill:url(#SVGID_1_);}
	.st18{fill:#464353;}
	.st19{fill:#E8E8EA;}
	.st20{fill:#A8A8A8;}
	.st21{fill:#A1616A;}
	.st22{fill:#B9B9BA;}
	.st23{fill:#B6B6B7;}
	.st24{fill:#EDEDED;}
	.st25{fill:#C9CBD3;}
	.st26{fill:#909091;}
	.st27{fill:#636363;}
	.st28{opacity:5.000000e-02;enable-background:new    ;}
	.st29{opacity:0.1;}
	.st30{fill:#87D0F4;}
	.st31{opacity:0.1;fill:#BCDCED;enable-background:new    ;}
</style>
<title>videographer</title>
<ellipse class="st0" cx="537.7" cy="650.7" rx="269.6" ry="9.2"/>
<g id="_x35_5bfdb31-36b5-4718-97dd-773b4157bdc7">
	<path class="st1" d="M751.9,644.6c0,0,58-73.5,53.5-146.5c-1.9-30.7,5.7-61.2,22.5-86.8c8-12.2,17.1-23.6,27.3-34.1"/>
	<path class="st2" d="M852.6,331.1c-4.1,10.2,2.5,47.3,2.5,47.3s30.4-22.2,34.5-32.4c4.1-10.2-0.9-21.8-11.1-25.9
		S856.7,320.9,852.6,331.1L852.6,331.1L852.6,331.1z"/>
	<path class="st2" d="M799.4,375.4c2.1,10.8,27.8,38.3,27.8,38.3s13.5-35.1,11.3-45.9s-12.8-17.7-23.6-15.5
		C804.3,354.5,797.4,364.8,799.4,375.4L799.4,375.4z"/>
	<path class="st2" d="M761.9,472.6c7.3,8.3,43.3,19,43.3,19s-6.1-37.1-13.4-45.4c-7.3-8.3-19.9-9.1-28.1-1.8
		S754.6,464.3,761.9,472.6L761.9,472.6L761.9,472.6z"/>
	<path class="st2" d="M750,552.6c5.8,9.4,39.5,26.1,39.5,26.1s0.2-37.6-5.5-47s-18-12.4-27.4-6.7s-12.4,18-6.7,27.4
		C749.9,552.4,750,552.5,750,552.6z"/>
	<path class="st2" d="M865.2,431.3c-10.2,4.2-47.3-2.2-47.3-2.2s22-30.5,32.2-34.7c10.2-4,21.8,1,25.8,11.3
		C879.9,415.8,875.1,427.1,865.2,431.3z"/>
	<path class="st2" d="M850.2,524.6c-11,0.9-44.5-16.2-44.5-16.2s30.1-22.6,41.1-23.5c11-1.1,20.7,6.9,21.9,17.8
		c1.1,11-6.9,20.7-17.8,21.9C850.7,524.6,850.4,524.6,850.2,524.6z"/>
	<path class="st2" d="M823.1,613.3c-10.7,2.8-46.5-8.5-46.5-8.5s25.9-27.3,36.5-30.1c10.7-2.5,21.4,4.2,23.9,14.9
		C839.4,600,833.3,610.4,823.1,613.3L823.1,613.3z"/>
	<path class="st3" d="M852.6,331.1c-4.1,10.2,2.5,47.3,2.5,47.3s30.4-22.2,34.5-32.4c4.1-10.2-0.9-21.8-11.1-25.9
		S856.7,320.9,852.6,331.1L852.6,331.1L852.6,331.1z"/>
	<path class="st3" d="M799.4,375.4c2.1,10.8,27.8,38.3,27.8,38.3s13.5-35.1,11.3-45.9s-12.8-17.7-23.6-15.5
		C804.3,354.5,797.4,364.8,799.4,375.4L799.4,375.4z"/>
	<path class="st3" d="M761.9,472.6c7.3,8.3,43.3,19,43.3,19s-6.1-37.1-13.4-45.4c-7.3-8.3-19.9-9.1-28.1-1.8
		S754.6,464.3,761.9,472.6L761.9,472.6L761.9,472.6z"/>
	<path class="st3" d="M750,552.6c5.8,9.4,39.5,26.1,39.5,26.1s0.2-37.6-5.5-47s-18-12.4-27.4-6.7s-12.4,18-6.7,27.4
		C749.9,552.4,750,552.5,750,552.6z"/>
	<path class="st3" d="M865.2,431.3c-10.2,4.2-47.3-2.2-47.3-2.2s22-30.5,32.2-34.7c10.2-4,21.8,1,25.8,11.3
		C879.9,415.8,875.1,427.1,865.2,431.3z"/>
	<path class="st3" d="M850.2,524.6c-11,0.9-44.5-16.2-44.5-16.2s30.1-22.6,41.1-23.5c11-1.1,20.7,6.9,21.9,17.8
		c1.1,11-6.9,20.7-17.8,21.9C850.7,524.6,850.4,524.6,850.2,524.6z"/>
	<path class="st3" d="M823.1,613.3c-10.7,2.8-46.5-8.5-46.5-8.5s25.9-27.3,36.5-30.1c10.7-2.5,21.4,4.2,23.9,14.9
		C839.4,600,833.3,610.4,823.1,613.3L823.1,613.3z"/>
	<path class="st1" d="M752.4,641.5c0,0,82.8-43.7,108.3-112.2c10.7-28.8,30-53.6,55.8-70.3c12.3-7.9,25.2-14.6,38.7-20.1"/>
	<path class="st4" d="M971.5,395.8c-7.9,7.7-16.9,44.2-16.9,44.2s36.8-8,44.7-15.6c7.8-7.8,7.8-20.4,0-28.2
		C991.7,388.5,979.4,388.4,971.5,395.8z"/>
	<path class="st4" d="M904.9,414.7c-2.5,10.7,9.9,46.3,9.9,46.3s26.5-26.7,29-37.4c2.7-10.7-3.8-21.5-14.5-24.2s-21.5,3.8-24.2,14.5
		C905,414.2,904.9,414.4,904.9,414.7L904.9,414.7z"/>
	<path class="st4" d="M831.2,488.4c3.3,10.5,31.9,35,31.9,35s9.4-36.4,6.1-46.9c-3.1-10.6-14.1-16.6-24.7-13.6
		c-10.6,3.1-16.6,14.1-13.6,24.7C831.1,487.9,831.1,488.2,831.2,488.4L831.2,488.4z"/>
	<path class="st4" d="M788,556.7c1.5,10.9,25.5,39.8,25.5,39.8s15.5-34.3,14-45.2s-11.5-18.6-22.4-17.1S786.5,545.7,788,556.7
		L788,556.7z"/>
	<path class="st4" d="M942.4,492.4c-11-0.3-42.3-21.1-42.3-21.1s32.5-19,43.5-18.7c11,0.5,19.5,9.8,19.1,20.8
		C962.1,484.1,953.2,492.6,942.4,492.4z"/>
	<path class="st4" d="M890.8,571.7c-10.4-3.6-34.1-32.8-34.1-32.8s36.7-8.4,47.1-4.8c10.3,3.8,15.6,15.3,11.8,25.6
		C911.9,569.6,901,574.9,890.8,571.7L890.8,571.7z"/>
	<path class="st4" d="M830.2,641.8c-10.9-1.8-39.1-26.6-39.1-26.6s34.7-14.5,45.6-12.7c10.8,2,18,12.3,16,23.2
		C850.8,636.2,840.8,643.3,830.2,641.8z"/>
</g>
<polygon class="st5" points="759.7,647.6 750.8,647.6 685.9,312.7 677.6,647.6 668.2,647.6 657.7,313.3 594.4,647.6 584.5,647.6 
	627.4,303.4 628.8,292.2 713.1,282.8 715.7,303.4 "/>
<rect x="527" y="215.6" class="st6" width="53.7" height="33.3"/>
<path class="st7" d="M838.3,201.1l32.4-13.1h7.1c2.2,0,3.9,1.8,3.9,3.9v91.4c0,2.2-1.8,3.9-3.9,3.9h-7.1l-32.4-13.5V201.1z"/>
<rect x="771.9" y="205.2" class="st8" width="66.3" height="64.2"/>
<rect x="656.8" y="84.6" class="st9" width="42.7" height="7.8"/>
<rect x="608.1" y="94.6" class="st10" width="120.2" height="87.8"/>
<rect x="608.1" y="172" class="st11" width="120.2" height="10.4"/>
<rect x="770.9" y="205.2" class="st11" width="2.7" height="64.2"/>
<rect x="562.3" y="215.6" class="st11" width="18.3" height="33.3"/>
<polygon class="st11" points="715.7,303.4 627.4,303.4 628.8,292.2 713.1,282.8 "/>
<path class="st7" d="M574.7,173.6h186.5c5.9,0,10.7,4.8,10.7,10.7V291c0,5.9-4.8,10.7-10.7,10.7H574.7c-5.9,0-10.7-4.8-10.7-10.7
	V184.3C564,178.4,568.8,173.6,574.7,173.6z"/>
<path class="st9" d="M837.6,201.1h0.6l0,0v72.6l0,0h-0.6c-2.9,0-5.2-2.3-5.2-5.2l0,0v-62.2C832.5,203.4,834.8,201.1,837.6,201.1z"/>
<path class="st12" d="M870.7,188h6.7c2.4,0,4.3,1.9,4.3,4.3v90.6c0,2.4-1.9,4.3-4.3,4.3h-6.7l0,0V188L870.7,188z"/>
<rect x="527" y="215.6" class="st11" width="9.6" height="33.3"/>
<path class="st13" d="M523.4,205.2h4.3c4,0,7.2,3.2,7.2,7.2v42.2c0,4-3.2,7.2-7.2,7.2h-4.3c-4,0-7.2-3.2-7.2-7.2v-42.2
	C516.2,208.5,519.4,205.2,523.4,205.2z"/>
<circle class="st14" cx="608.1" cy="94.6" r="59.9"/>
<circle class="st15" cx="608.1" cy="94.6" r="44.9"/>
<circle class="st14" cx="719.1" cy="95.8" r="43.7"/>
<circle class="st15" cx="719.1" cy="95.8" r="32.8"/>
<circle class="st2" cx="715.7" cy="192.7" r="5.8"/>
<circle class="st16" cx="734" cy="192.7" r="5.8"/>
<linearGradient id="SVGID_1_" gradientUnits="userSpaceOnUse" x1="501.8306" y1="490.8231" x2="501.8306" y2="-153.4652" gradientTransform="matrix(1 0 0 1 -24.78 163.78)">
	<stop  offset="0" style="stop-color:#808080;stop-opacity:0.25"/>
	<stop  offset="0.54" style="stop-color:#808080;stop-opacity:0.12"/>
	<stop  offset="1" style="stop-color:#808080;stop-opacity:0.1"/>
</linearGradient>
<path class="st17" d="M661.6,212.5l-0.4-0.8c2.5,0.8,5,2,7.3,3.3c-1-8.7-34.3-33.1-40.3-33.1s-12.7-10.4-12.7-10.4s-17.3-2.7-20-5.5
	s-20.7-1.2-25-0.2s-11-2.7-11-2.7s-3.7-6-8.3-6s-9.7-6.7-9.7-6.7s-4.3-4-8.3-4.7s-9-5-11.3-8.4s-14-5-20.7-4s-24.7-1.4-24.7-1.4
	c7.3-3.3,9.1-11.4,9.1-11.4c-6.6-0.3-23.8-14.8-23.8-14.8s0.7,4.7,1.5,11.2l-1.1-1.4l-0.1,0.1c-0.4-4.7-0.4-9.3-0.1-14
	c0-0.4,0.1-0.7,0.1-1.1c8.7-7.6,12.5-19.4,9.8-30.7c-0.2-0.8-0.4-1.5-0.6-2.2c1.3,0.5,2.6,0.9,4,1h0.7c1.7,0,3.3-0.7,4.4-1.9l0,0
	c0.2-0.2,0.4-0.5,0.5-0.8c0-0.1,0.1-0.1,0.1-0.2c0.1-0.2,0.2-0.5,0.3-0.8c0-0.1,0.1-0.2,0.1-0.3c0.1-0.2,0.1-0.4,0.1-0.6
	c0-0.2,0-0.4,0-0.5s0-0.3,0-0.4c0-1.5-0.4-3.1-1-4.5c-1-2.6-2.6-5.1-2.5-7.9c0-0.2,0-0.4,0.1-0.7c0.3-2.2,1.4-4.2,2.1-6.3V44
	c0.1-0.3,0.2-0.6,0.2-0.9c0-0.1,0.1-0.2,0.1-0.3c0.1-0.4,0.1-0.7,0.1-1.1v-0.1c0.3-4.2-3.1-7.8-6.9-9.5c-3.4-1.5-7.3-1.9-10.5-4
	c-3.6-2.4-5.5-6.4-8.2-9.8c-3.8-4.9-9.9-8.6-16-7.9c-3.8,0.4-7.2,2.4-11,3.2c-5.7,1.2-11.8-0.5-17.5,0.8c-1.4,0.2-2.6,0.9-3.6,2
	c-0.4,0.5-0.6,1.2-0.7,1.8l0,0c-0.1,0.6-0.1,1.2,0,1.8v0.1c0.1,0.6,0.2,1.1,0.3,1.7l0.1,0.4c0,0.1,0,0.2,0.1,0.4s0.1,0.5,0.2,0.7
	c0.1,0.4,0.2,0.8,0.3,1.2v0.1c0.1,0.4,0.2,0.8,0.2,1.2l0,0c0.2,0.9,0.3,1.7,0.3,2.6l0,0c0.2,2.5-0.3,5-1.5,7.1
	c-2.5,4-7.8,5.8-10.1,9.9c-0.5,1-0.9,2.1-1,3.2l0,0c0,0.4-0.1,0.8,0,1.1V50c0,0.3,0,0.7,0.1,1c0,0.1,0,0.2,0,0.2
	c0.1,0.3,0.1,0.6,0.2,0.9c0,0.1,0,0.2,0.1,0.3c0.1,0.3,0.2,0.7,0.4,1l0,0c1.1,2.2,3.1,4.1,3.5,6.5l0,0c0,0.1,0,0.1,0,0.2
	c0.2,1.8-0.5,3.6-0.9,5.4c-0.1,0.2-0.1,0.4-0.1,0.7l0,0c0,0.1,0,0.1,0,0.2s0,0.3,0,0.5s0,0.2,0,0.3s0,0.3,0,0.4s0,0.2,0,0.3
	c0,0.1,0,0.3,0,0.4s0,0.2,0,0.3s0.1,0.2,0.1,0.4l0.1,0.2c0,0.1,0.1,0.2,0.2,0.4l0.1,0.2c0.1,0.1,0.2,0.2,0.2,0.4
	c0,0.1,0.1,0.1,0.1,0.2c0.1,0.2,0.3,0.3,0.5,0.4c1.4,1,3.5,0.7,4.7,2c0.1,0.2,0.2,0.3,0.3,0.5l0.1,0.1c0.1,0.2,0.1,0.4,0.2,0.6l0,0
	c0.2,0.8,0.2,1.5,0,2.3c-0.4,2-1.2,3.8-1.7,5.8c-0.1,0.4-0.1,0.8-0.2,1.2l0,0c0,0.2,0,0.4,0,0.6V84c0,0.2,0,0.4,0,0.5s0,0.1,0,0.1
	c0,0.2,0,0.5,0.1,0.8s0,0.2,0.1,0.4l0.1,0.3c0,0.1,0.1,0.3,0.1,0.4l0.1,0.2c0,0.1,0.1,0.3,0.2,0.4c0,0.1,0.1,0.1,0.1,0.2
	c0.1,0.2,0.2,0.4,0.4,0.6c1.2,1.6,3.2,2.2,5.3,2.2c1.2,0,2.4-0.1,3.5-0.4c0.3,0.6,0.5,1.2,0.8,1.8c1.4,2.9,3.3,5.6,5.6,7.9
	c0,0.3-0.1,0.6-0.1,0.9c-0.2,2.3-0.5,4.7-0.8,7.2c-2.6-1.2-4.6-1.6-5.4-0.8c-3.4,3.7,0,16.4,0,16.4s-16.4,0-20.4,3.7
	c-4,3.7-11.3,0-11.3,0s-15,1.7-14,4.7s-8,0-8,0s-6.3,0.7-6,5s-9.7,6.3-8.3,9.3c1.3,3-6,5-6,5s-7.3-0.3-4.7,4l0,0c0,0-4,9.4-7.3,10
	s-7.7,8.4-7.7,8.4s-12.8,2.3-12.3,6.4s-19.7,32.7-19.7,32.7s-6.7,13.8-2,23.8s8,16.7,9,20.4s13.1,19.8,13,22.8c0,0.9,3,6,7.1,12.4
	l-1.2,1.2l-2.6,2.7c0,0-8.3,20.7,1.7,21.7c8.5,0.8,14.5,1.5,17.6,0.6c0.5-0.1,1-0.3,1.4-0.6l0.1-0.1c3.6,5.4,6.2,9.1,6.2,9.1
	s0.4-0.5,1-1.4l1,1.4c0,0,0.8-1.1,2.2-3c-0.4,9.1-0.5,18-0.5,18s4.3-0.7,2.3,19.4s12,36.4,12,36.4v29.8l0,0c0,0,0,0.8,0.1,2
	c0.4,4.3,1.6,14.3,5.2,21c4.7,8.7,0,31.4,0,31.4s-0.3,18.5,0.8,41.7c0,0.6,0.1,1.3,0.1,1.9c-20.2,16.9-41.9,39.3-41.9,39.3
	c1.1,0.3,2.1,0.8,3,1.3l-1.2,1.6l-5.5,6.8l0,0l-4.3,5.3l0,0l6.8,20.8l7.4-2.9c0,0,4,6.9,3.2,11.6c-0.1,0.8-0.5,1.7-1,2.3
	c-0.3,0.3-0.4,0.7-0.5,1.2c-1.9,7.5,6.1,40,18.9,41.4c0,0,4.3,1.4,5.7-2.5c0.7-1.9,0.7-5-0.8-10.1c0,0-6.8-8.1-2.4-16.9
	c2.6-5.1,6.8-12,9.9-16.8l1.3-2c2.8,3.5,4.4,5.7,4.4,5.7l9.8-10.6c0.2,0.4,0.4,0.9,0.6,1.3c0.7,1.5,1.6,2.9,2.5,4.2l6.7,26.4
	l2.7-0.6c-0.1,0.6-0.1,1.3-0.1,2c-0.2,4.7,0,10.9,2.2,15.3c1.6,3.4,4.4,5.7,8.9,5.6c15.5-0.4,20-8.8,20-8.8v-21l5.3-1.2
	c0,0-0.4-46.1-1.8-71.9c0-0.6-0.1-1.1-0.1-1.7c0-0.1,0-0.2,0-0.2l34.2-36.8l2.6-1.1c22-8.7,22.3-31.1,22.3-31.1s0-12.4,2.7-22.7
	s0.3-64.2-4.7-77.5s-6.7-28.4-6.7-28.4s5-7,0-12.8c-1.4-1.7-2.6-3.7-3.5-5.7l6.5-1.1l3.8-0.6l2-0.3c-1,8.8-1.2,15.6,1.2,17.2
	c7.3,5,32-11.7,32-11.7c-9,0-14-67.2-12.2-68.8s4.6-35.3,2.2-41.3s8.4-32.8,8.4-32.8l1.7-2.5l0,0c0,0,39.3,17.2,43.7,20.5
	s18-8,20.3-3.6s17,10.9,17,10.9s21.7-2.2,24,3.2s16.3,17.9,16.3,17.9c0-2.9,0.2-5.9,0.5-8.8c0.3,0.7,0.6,1.4,0.9,2.1
	c6.6,15.7,17.7,35.6,27.9,24.9C676.1,246.3,667.3,223.9,661.6,212.5z M365.2,283.5v0.2l-0.1-0.1L365.2,283.5z M357.4,206.4
	l-4.2,44.7l-8.3,8.6l-1,1.1l-8.6-9.4c0,0-4.3-2,0-5.7s-7.3-12-7.3-12s-0.3-6,4-7.7s10-12.7,10-12.7l15.7-8l0,0l0,0L357.4,206.4z
	 M413.2,435.3c0.3-0.3,0.6-0.5,1-0.7c1.9-1.1,3.1,0.1,3.7,2.1c0.8,3.4,0.6,7-0.7,10.3c-2.3,5.3,3.3,26.7,3.3,26.7s-7.3,3.3-8.7,9.7
	c-0.2,0.8-0.5,1.5-1,2.2c-0.1-0.6-0.2-1.1-0.2-1.6c-0.6-4-1-6.6-1-6.6c-1.2-5.1-1.4-10.5-0.7-15.7c1.1-6.4,3.2-19.5,4-24.4
	C413.1,436,413.2,435.3,413.2,435.3L413.2,435.3z"/>
<path class="st18" d="M459.6,109.7l2.2-1.4l6.1,12.9l-2.3,2.8h-7.1c0,0,0.2-7,0.4-7.2S459.6,109.7,459.6,109.7z"/>
<path class="st19" d="M417.8,619.1v27.5c0,0-4.5,8.4-20,8.8c-3.9,0.2-7.4-2-8.9-5.6c-2.2-4.4-2.4-10.5-2.2-15.2
	c0.1-2.4,0.4-4.7,0.8-7.1L417.8,619.1z"/>
<path class="st11" d="M417.8,619.1v8.5l-31.1,6.9c0.1-2.4,0.4-4.7,0.8-7.1L417.8,619.1z"/>
<path class="st20" d="M423.2,624.4l-39,8.7l-6.7-26.3c-1-1.3-1.8-2.7-2.5-4.2c-0.4-0.8-0.9-1.7-1.2-2.7
	c-7.3-16.6-10.5-46.6-11.9-72.1c-0.1-1.3-0.1-2.6-0.2-3.8c-1.1-23.1-0.8-41.6-0.8-41.6s4.7-22.7,0-31.3c-3.6-6.7-4.8-16.7-5.2-21
	c-0.1-1.3-0.1-2-0.1-2l0.7-1.9l2.9-7.8h32.3l18.8,15.9l2.9,2.4l-0.3,2c-0.8,4.9-3,18-4,24.4c-0.8,5.2-0.5,10.5,0.7,15.7
	c0,0,0.4,2.5,1,6.6c0.1,1,0.3,2.1,0.5,3.2c2.4,14.8,6.9,41.8,8.8,48.2c0.5,1.8,1,6.2,1.4,12.2c0.1,1.2,0.1,2.4,0.2,3.8
	C422.8,578.4,423.2,624.4,423.2,624.4z"/>
<path class="st11" d="M417.8,646.3v0.3c0,0-4.5,8.4-20,8.8c-3.9,0.2-7.4-2-8.9-5.6C395.9,651.4,407.1,652.5,417.8,646.3z"/>
<path class="st21" d="M664.5,260.4c-10.3,10.7-21.3-9.2-27.9-24.8c-3.7-8.8-6.1-16.3-6.1-16.3l27.4-11.6c0,0,1.7,2.7,3.8,6.9
	C667.3,225.8,676.1,248.2,664.5,260.4z"/>
<path class="st21" d="M462,104.2c-0.4,9.9,0.3,19.8,2.2,29.5c0,0-55.7,6-50.7-2.7c2.9-5.1,4.8-18.5,5.9-28.7
	c0.8-7.3,1.1-12.9,1.1-12.9S473.8,68,465.8,86C463.4,91.4,462.3,97.8,462,104.2z"/>
<polygon class="st22" points="466.6,247.4 459.2,336.7 493.5,331 487.5,257.4 489.5,237.7 "/>
<path class="st19" d="M349,624.8c-4.4,8.8,2.4,16.9,2.4,16.9c1.5,5.1,1.5,8.2,0.8,10c-1.4,3.9-5.7,2.5-5.7,2.5
	c-13.6-1.5-21.9-38.2-18.4-42.4s-2.1-13.9-2.1-13.9l-7.4,2.9l-6.8-20.7l4.3-5.2l5.5-6.8l3.7-4.6l37.2,38.9c0,0-1.6,2.4-3.8,5.8
	C355.7,612.8,351.5,619.7,349,624.8z"/>
<path class="st11" d="M421.4,552.7L375,602.5c-8.1-15.9-11.6-47.8-13.1-74.7c8.6-7.2,17-13.4,23.3-16.4c0,0,21.4-15.5,25.9-22.9
	c2.4,14.8,6.9,41.8,8.8,48.2C420.5,538.8,421,544.8,421.4,552.7z"/>
<polygon class="st11" points="410.3,434.3 356.2,426.2 359.2,418.4 391.5,418.4 "/>
<path class="st11" d="M421.2,548.9l-47.5,50.9c-7.3-16.6-10.5-46.6-11.9-72.1c-0.1-1.3-0.1-2.6-0.2-3.8c8.7-7.3,17.2-13.5,23.5-16.6
	c0,0,20-14.4,25.4-22.1c0.1,1,0.3,2.1,0.5,3.2c2.4,14.8,6.9,41.8,8.8,48.2C420.4,538.5,420.8,542.9,421.2,548.9z"/>
<path class="st11" d="M362.6,602.2c0,0-1.6,2.4-3.8,5.8c-8-10-26.8-33.2-37.2-40.1l3.7-4.6L362.6,602.2z"/>
<path class="st23" d="M483.2,459.4c-2.7,10.3-2.7,22.7-2.7,22.7s-0.3,22.3-22.3,31l-2.6,1l-91,97.6c0,0-33.7-44-44.7-46.7
	c0,0,44.3-45.7,65.3-55.7c0,0,25.3-18.3,26.7-24.7s8.7-9.7,8.7-9.7s-5.7-21.3-3.3-26.7c1.3-3.3,1.5-6.8,0.7-10.2
	c-0.6-2-1.8-3.2-3.7-2.1c-0.4,0.2-0.7,0.4-1,0.7l-57.7-8.7v-29.6c0,0-14-16.3-12-36.3s-2.3-19.3-2.3-19.3s0.2-33.8,3.1-36.6
	s30.2-15.7,30.2-15.7l85.8,15.2l3.5,16.4c0,0,3,13.1,8,18.9s0,12.8,0,12.8s1.7,15,6.7,28.4S485.8,449,483.2,459.4z"/>
<path class="st11" d="M465.8,86.1c-2.4,5.4-3.5,11.8-3.9,18.1c-12.4,10.8-31.1,10-42.6-1.9c0.8-7.3,1.1-12.9,1.1-12.9
	S473.8,68.1,465.8,86.1z"/>
<path class="st21" d="M472.6,79.8c0,17.1-13.9,31-31,31s-31-13.9-31-31s13.9-31,31-31c14.3,0,26.8,9.8,30.1,23.7
	C472.4,74.9,472.7,77.3,472.6,79.8z"/>
<path class="st11" d="M447.5,133.7c0,0-22.3-10.3-23.7-11.7s-47.6,117.3-47.6,117.3l-13,59c0,0,69.3,29.7,84.3,25.7s16.3,0,16.3,0
	s15.3-86,20.3-93.7s-4.7-85.7-4.7-85.7L462.2,122L447.5,133.7z"/>
<path class="st11" d="M447.5,129.7c0,0-22.3-10.3-23.7-11.7s-47.6,117.3-47.6,117.3l-13,59c0,0,69.3,29.7,84.3,25.7s16.3,0,16.3,0
	s15.3-86,20.3-93.7s-4.7-85.7-4.7-85.7L462.2,118L447.5,129.7z"/>
<path class="st24" d="M484.2,228.4c-1,1.6-2.5,6.5-4.2,13.4c-1.2,4.8-2.5,10.4-3.8,16.5c-5.9,27.5-12.4,63.8-12.4,63.8
	s-0.4-1.2-3.3-1.6c-2.3-0.3-6.3-0.1-13,1.6c-15,4-84.3-25.7-84.3-25.7l2-9l11-50c0,0,46.3-118.7,47.7-117.3c0.8,0.8,9.5,5,16.1,8.1
	c4.2,2,7.6,3.6,7.6,3.6l14-11.1l0.8-0.6l17.2,22.7C479.6,142.7,489.2,220.7,484.2,228.4z"/>
<path class="st11" d="M431.2,143.4c2,7.7-2.7,20.3-2.7,20.3s-16,39.3-20.7,57.5S376.4,276,376.4,276s-3.9,3.9-9.4,9.4
	c-0.6,0.6-1.2,1.2-1.9,1.9l11-50c0,0,46.3-118.7,47.7-117.3c0.8,0.8,9.5,5,16.1,8.1C435.8,131.9,429.8,138.3,431.2,143.4z"/>
<path class="st25" d="M429.2,143.4c2,7.7-2.7,20.3-2.7,20.3s-16,39.3-20.7,57.5S374.4,276,374.4,276s-3.9,3.9-9.4,9.4
	c-0.6,0.6-1.3,1.3-2,2c-10.7,10.7-25.8,25.6-30.5,30c-0.7,0.6-1.2,1.1-1.4,1.2c-0.4,0.3-0.9,0.5-1.4,0.6c-3.1,0.8-9.1,0.2-17.6-0.6
	c-10-1-1.7-21.7-1.7-21.7l2.6-2.7l2.4-2.5l27.2-28l2-2.1l8.3-8.6l4.2-44.6l0.1-1.1c0,0-1.2-2.8-3.1-7.1
	c-5.1-11.7-15.1-34.2-18.8-41.5c-0.4-0.9-0.8-1.5-1-1.9c0,0,0-0.1-0.1-0.1c-2.7-4.3,4.7-4,4.7-4s7.3-2,6-5s8.7-5,8.3-9.3s6-5,6-5
	s9,3,8,0s14-4.7,14-4.7s7.3,3.7,11.3,0s20.4-3.7,20.4-3.7s-3.4-12.7,0-16.3s28.5,16.3,28.5,16.3S427.2,135.7,429.2,143.4z"/>
<path class="st11" d="M345.8,314c0,0,27.7,39,47,26.3s-26-45.7-26-45.7L345.8,314z"/>
<path class="st21" d="M345.8,312c0,0,27.7,39,47,26.3s-26-45.7-26-45.7L345.8,312z"/>
<path class="st11" d="M478.6,333.5c2.1-18.4,8.2-46.1,3.2-54.5c-2.5-4.2-4.3-12.1-5.6-20.8c-0.7-4.7-1.3-9.6-1.8-14.2
	c-1.2-12.3-1.6-22.9-1.6-22.9s-12-53.5-9.7-64.5c1.5-6.9-0.2-24.1-1.7-36.1l0.8-0.6l17.2,22.7c0,0,9.7,78,4.7,85.7
	c-1,1.6-2.5,6.5-4.2,13.4l9.5-4l-2,19.7l6,73.7L478.6,333.5z"/>
<path class="st25" d="M461.8,108.3c0,0,17.2,14.4,23.8,14.8c0,0-1.8,8-9.1,11.3c0,0,18,2.4,24.7,1.4s18.3,0.6,20.7,4
	s7.4,7.7,11.4,8.3s8.3,4.7,8.3,4.7L512.2,196c0,0-10.7,26.7-8.3,32.7s-0.3,39.7-2.2,41.3s3.2,68.7,12.2,68.7c0,0-24.7,16.7-32,11.7
	s9.3-59,2-71.3s-9-57.8-9-57.8s-12-53.5-9.7-64.5S461.8,108.3,461.8,108.3z"/>
<path class="st11" d="M661.6,214.5c-8.9-2.8-22.6-2.9-25.1,21c-3.7-8.8-6.1-16.3-6.1-16.3l27.4-11.6
	C657.9,207.6,659.5,210.3,661.6,214.5z"/>
<path class="st25" d="M525.2,150.7l16.3,2c0,0,5,6.7,9.7,6.7s8.3,6,8.3,6s6.7,3.7,11,2.7s22.3-2.6,25,0.2s20,5.5,20,5.5
	s6.7,10.3,12.7,10.3s39.3,24.3,40.3,33c0,0-33-21-33.3,25.2c0,0-14-12.5-16.3-17.8s-24-3.2-24-3.2s-14.7-6.5-17-10.8
	s-16,6.9-20.3,3.6s-43.7-20.4-43.7-20.4l-12.2-22.9L525.2,150.7z"/>
<circle class="st26" cx="449.8" cy="188.4" r="2.8"/>
<circle class="st26" cx="447" cy="247.5" r="2.8"/>
<circle class="st26" cx="449.8" cy="216.4" r="2.8"/>
<circle class="st26" cx="441.7" cy="278.6" r="2.8"/>
<path class="st11" d="M471.8,72.5c-0.7-0.2-1.4-0.5-2-0.8c-2.3-0.9-4.7-2-6.1-4c-1.3-1.9-1.7-4.5-3.7-5.5c-2.3-1.2-5,0.4-7.5,1
	c-2.9,0.7-6-0.1-8.9-1.2c-4.3-1.6-10.2-4.5-14.6-1.5c-3.4,2.3-2.1,7.2-3,10.8c-1.4,5.4-7.1,9-8.2,14.5c-0.5,2.4-0.2,5.4-2.1,6.9
	c-0.6,0.4-1.2,0.7-1.9,0.8c-7.6-15.4-1.3-33.9,14.1-41.5s33.9-1.3,41.5,14.1C470.5,68.1,471.3,70.3,471.8,72.5L471.8,72.5z"/>
<path class="st27" d="M443.7,59.9c2.8,1.1,5.9,1.9,8.9,1.2c2.5-0.6,5.2-2.2,7.5-1c2,1.1,2.4,3.7,3.7,5.5c1.4,2,3.8,3.1,6.1,4
	c1.7,0.8,3.5,1.3,5.4,1.5s3.8-0.5,5.1-1.9c1.8-2.1,1.2-5.4,0.2-7.9s-2.6-5.1-2.5-7.9c0.1-3.3,2.5-6.2,2.7-9.5
	c0.3-4.2-3.1-7.8-6.9-9.5c-3.4-1.5-7.3-1.9-10.5-4c-3.6-2.3-5.5-6.4-8.2-9.8c-3.8-4.9-9.9-8.5-16-7.8c-3.8,0.4-7.2,2.4-11,3.2
	c-5.7,1.2-11.8-0.5-17.5,0.8c-1.4,0.2-2.6,0.9-3.6,1.9c-1.4,1.9-0.7,4.5-0.1,6.8c1.1,4.1,1.6,8.7-0.6,12.3
	c-2.5,4.1-7.8,5.8-10.1,9.9c-1.4,2.5-1.4,5.5-0.2,8c1.1,2.3,3.2,4.2,3.6,6.7c0.2,1.8-0.5,3.6-0.9,5.4s-0.3,4,1.2,5s3.5,0.8,4.7,2
	c0.7,1,0.9,2.3,0.5,3.4c-0.4,2-1.2,3.8-1.7,5.8c-0.6,1.9-0.3,4,0.8,5.8c1.9,2.6,5.9,2.5,9,1.8c0.9-0.1,1.8-0.5,2.5-1
	c2-1.5,1.6-4.5,2.1-6.9c1.1-5.5,6.9-9.1,8.2-14.5c0.9-3.5-0.5-8.4,3-10.8C433.5,55.5,439.4,58.4,443.7,59.9z"/>
<path class="st11" d="M438.8,421.7c0,0,31.4,20,32.4,27.7L438.8,421.7z"/>
<path class="st11" d="M437.2,437.7c0,0,36,17.3,34,23.3L437.2,437.7z"/>
<path class="st11" d="M434.8,453c0,0,20.3,10.7,21.7,17L434.8,453z"/>
<path class="st11" d="M443.5,477c0,0,13.3,11.7,16,8.7S443.5,477,443.5,477z"/>
<path class="st11" d="M424.8,484.4c0,0,10.4,16.7,5.4,17.7S424.8,484.4,424.8,484.4z"/>
<path class="st11" d="M379.2,188.4c0,0-17.7,10.7-12.3,13.3S379.2,188.4,379.2,188.4z"/>
<path class="st11" d="M379.2,149c0,0-18,33-9.7,30.7S379.2,149,379.2,149z"/>
<path class="st11" d="M570.5,182c0,0-11,12.9-9,20L570.5,182z"/>
<path class="st11" d="M599.2,188.4c0,0-16.5,14.7-14.1,16.3L599.2,188.4z"/>
<path class="st11" d="M609.5,206.4c0,0-1.7,9.6,1,10L609.5,206.4z"/>
<path class="st28" d="M429.3,409.8c-4.2,5.5-4.2,15.2-6.2,19.2c-1,2.2-3.4,6-5.3,9.1c-0.6-2-1.8-3.2-3.7-2.1
	c-1.2-9.2-3.4-25-4.1-28.2c-1-4.5,10-16.5,10-16.5s10.8,2.2,13.5,7.8S433.6,404.3,429.3,409.8z"/>
<path class="st11" d="M373.8,294c-12,1.7-34.3,33.7-34.3,33.7s-2.9-4.3-7-10.2c-5.1-7.5-12-17.8-17-25.6l29.3-30.2l5.3,5.7
	c0,0,10.3,10.3,10.3,12.3c0,0.8,2,3.1,4.5,5.7C368.9,289.5,373.8,294,373.8,294z"/>
<path class="st11" d="M335.6,158.7c-0.4-0.9-0.8-1.5-1-1.9l12.9,0.9l6.9,42.5C349.2,188.6,339.2,166,335.6,158.7z"/>
<path class="st11" d="M363,287.5c-10.7,10.7-25.8,25.6-30.5,30c-0.7,0.6-1.2,1.1-1.4,1.2c-0.4,0.3-0.9,0.5-1.4,0.6
	c-4.7-6.9-11.4-16.9-16.6-25l2.4-2.5l27.3-28l3.4,3.6c0,0,10.3,10.3,10.3,12.3C356.5,280.7,359.7,284.2,363,287.5z"/>
<path class="st25" d="M349.5,157.7l-15-1c0,0-4,9.3-7.3,10s-7.7,8.3-7.7,8.3s-12.8,2.3-12.3,6.3S287.5,214,287.5,214
	s-6.7,13.7-2,23.7s8,16.7,9,20.3s12.8,19.7,12.7,22.7s30.3,47,30.3,47s22.3-32,34.3-33.7c0,0-13.3-12.3-13.3-14.3
	s-10.3-12.3-10.3-12.3l-13-14c0,0-4.3-2,0-5.7s-7.3-12-7.3-12s-0.3-6,4-7.7s10-12.7,10-12.7l15.7-8L349.5,157.7z"/>
<path class="st11" d="M292.2,224c0,0,18-3.7,18.3-1.3S292.2,224,292.2,224z"/>
<path class="st11" d="M307.2,242.2c0,0,15.3,2,14.6,5.3S307.2,242.2,307.2,242.2z"/>
<path class="st11" d="M319.8,185.5c0,0,14.7,20.8,16.7,16.5L319.8,185.5z"/>
<g class="st29">
	<path d="M408,30.8c0.1-2.4-0.2-4.8-0.9-7.2c-0.3-1-0.5-2-0.7-3c-0.1,1.7,0.1,3.4,0.7,5C407.6,27.3,407.9,29,408,30.8z"/>
	<path d="M478.1,52.8c0.4-3,2.5-5.7,2.6-8.8c0-0.5,0-1-0.1-1.5c-0.4,3.1-2.5,5.9-2.7,9C478,51.9,478,52.3,478.1,52.8z"/>
	<path d="M480.3,67.3c-1.3,1.4-3.2,2.1-5.1,1.9s-3.7-0.7-5.4-1.5c-2.3-0.9-4.7-2-6.1-4c-1.3-1.9-1.7-4.5-3.7-5.5
		c-2.3-1.2-5,0.4-7.5,1c-2.9,0.7-6-0.1-8.9-1.2c-4.3-1.6-10.2-4.5-14.6-1.5c-3.4,2.3-2.1,7.2-3,10.8c-1.4,5.4-7.1,9-8.2,14.5
		c-0.5,2.4-0.2,5.4-2.1,6.9c-0.8,0.5-1.6,0.9-2.5,1c-3.2,0.7-7.1,0.9-9-1.8c-0.5-0.7-0.9-1.6-1-2.6c-0.3,1.6,0.1,3.2,1,4.6
		c1.9,2.6,5.9,2.5,9,1.8c0.9-0.1,1.8-0.5,2.5-1c2-1.5,1.6-4.5,2.1-6.9c1.1-5.5,6.9-9.1,8.2-14.5c0.9-3.5-0.5-8.4,3-10.8
		c4.4-3,10.3-0.1,14.6,1.5c2.8,1.1,5.9,1.9,8.9,1.2c2.5-0.6,5.2-2.2,7.5-1c2,1.1,2.4,3.7,3.7,5.5c1.4,2,3.8,3.1,6.1,4
		c1.7,0.8,3.5,1.3,5.4,1.5s3.8-0.5,5.1-1.9c1-1.3,1.4-3,1.1-4.6C481.3,65.6,480.9,66.5,480.3,67.3z"/>
	<path d="M399.7,60.4c-0.3-2.5-2.5-4.4-3.6-6.7c-0.4-0.9-0.7-1.8-0.8-2.8c-0.2,1.6,0.1,3.3,0.8,4.8c1.1,2.2,3.1,4.1,3.5,6.5
		C399.7,61.6,399.7,61,399.7,60.4z"/>
	<path d="M405.2,76.1c0.3-1.1,0.1-2.3-0.6-3.2c-1.1-1.3-3.3-1-4.7-2c-0.7-0.6-1.2-1.4-1.3-2.4c-0.2,1.6,0,3.4,1.3,4.4s3.5,0.8,4.7,2
		C404.9,75.2,405.1,75.6,405.2,76.1z"/>
</g>
<path class="st30" d="M167.8,594c0,0-41.4-2.5-36.5,26.5c0,0-1,5.1,3.7,7.5c0,0,0.1-2.2,4.2-1.4c1.5,0.2,3,0.3,4.5,0.2
	c2-0.1,4-0.9,5.5-2.3l0,0c0,0,11.6-4.8,16.1-23.8c0,0,3.3-4.2,3.2-5.2l-7,3c0,0,2.4,5,0.5,9.2c0,0-0.2-9-1.6-8.8
	c-0.3,0.1-3.6,1.8-3.6,1.8s4.1,8.8,1,15.2c0,0,1.2-10.8-2.3-14.5l-4.9,2.9c0,0,4.8,9.1,1.5,16.5c0,0,0.8-11.3-2.6-15.8l-4.5,3.5
	c0,0,4.5,8.9,1.8,15.1c0,0-0.4-13.2-2.7-14.2c0,0-3.9,3.4-4.5,4.8c0,0,3.1,6.5,1.2,9.9c0,0-1.2-8.8-2.1-8.8c0,0-3.9,5.8-4.3,9.8
	c0,0,0.2-5.9,3.3-10.4c-2.2,0.4-4.3,1.5-5.9,3.1c0,0,0.6-4.1,6.9-4.5c0,0,3.2-4.4,4.1-4.7c0,0-6.3-0.5-10.1,1.2
	c0,0,3.3-3.9,11.2-2.1l4.4-3.6c0,0-8.2-1.1-11.7,0.1c0,0,4-3.4,12.9-0.9l4.8-2.9c0,0-7-1.5-11.2-1c0,0,4.4-2.4,12.6,0.2l3.4-1.5
	c0,0-5.1-1-6.7-1.2c-1.5-0.2-1.6-0.6-1.6-0.6c3.3-0.5,6.6-0.2,9.7,1.1C160.7,597.2,168,594.4,167.8,594z"/>
<ellipse class="st31" cx="139.4" cy="630.5" rx="29.3" ry="5"/>
</svg>
