<?xml version="1.0" encoding="utf-8"?>
<!-- Generator: Adobe Illustrator 22.0.1, SVG Export Plug-In . SVG Version: 6.00 Build 0)  -->
<svg version="1.1" id="ad467010-4b2c-4db1-84f0-cd2022f75deb"
	 xmlns="http://www.w3.org/2000/svg" xmlns:xlink="http://www.w3.org/1999/xlink" x="0px" y="0px" viewBox="0 0 1072.3 780.1"
	 style="enable-background:new 0 0 1072.3 780.1;" xml:space="preserve">
<style type="text/css">
	.st0{opacity:0.1;fill:#D2ECF9;enable-background:new    ;}
	.st1{opacity:0.1;fill:#0D8CD8;enable-background:new    ;}
	.st2{opacity:0.1;fill:#E2F0F7;enable-background:new    ;}
	.st3{opacity:0.1;fill:#A3C3D3;enable-background:new    ;}
	.st4{fill:#CED7E7;}
	.st5{opacity:0.1;enable-background:new    ;}
	.st6{fill:#E5D4A8;}
	.st7{fill:#FFA2A2;}
	.st8{opacity:5.000000e-02;enable-background:new    ;}
	.st9{fill:#63667E;}
	.st10{fill:#BAAEAE;}
	.st11{opacity:0.1;}
	.st12{fill:#F7E5B7;}
	.st13{fill:#DDCEA8;}
	.st14{fill:#9CAFB5;}
</style>
<title>QA engineers</title>
<path class="st0" d="M1054.2,623.3c-26.6,54.8-80.5,91.5-136.4,115.6c-44.8,19.2-92.1,31.8-140.5,37.5c-9.3,1.1-18.6,2-27.9,2.6
	c-23.8,1.6-47.7,1.5-71.6-0.1c-14.3-1-28.6-2.5-42.8-4.6c-49.5-7.2-97.7-21.3-143.3-41.7c-13.2-5.9-26.1-12.4-38.7-19.4
	c-21.1-11.7-41.3-24.9-60.5-39.5c-4.2-3.2-8.4-6.5-12.6-9.9l-1.7-1.4c-3.2-2.7-6.5-5.4-9.7-8.1c-5.4-4.6-11.2-8.7-17.3-12.4
	c-0.4-0.2-0.8-0.5-1.2-0.7c-1.1-0.7-2.3-1.3-3.4-1.8c-2.4-1.2-4.8-2.3-7.3-3.2c-11.5-4.4-23.9-6-36.5-5.7c-2.1,0-4.2,0.1-6.2,0.3
	l0,0c-2.9,0.2-5.8,0.5-8.8,0.9l-1.1,0.2c-9.3,1.3-18.5,3.3-27.5,5.9c-13.9,4-27.6,9-41.4,13.5l0,0c-5.9,1.9-11.7,3.8-17.6,5.4
	l-1.3,0.4c-8.4,2.4-17,4.2-25.6,5.4c-19.7,2.5-39.6,0.9-58.6-4.7l-0.7-0.2l-1.2-0.4l-1.7-0.5c-2.8-0.9-5.6-1.8-8.3-2.9l-1.7-0.6
	c-2.7-1-5.3-2.1-7.8-3.3l-1.7-0.8c-2.7-1.2-5.3-2.5-7.8-3.9c-0.9-0.5-1.8-1-2.7-1.5c-2.7-1.5-5.4-3.1-8-4.8
	c-2.8-1.8-5.5-3.6-8.1-5.5c-1.2-0.9-2.4-1.8-3.6-2.7c-6.9-5.3-13.4-11.1-19.4-17.5c-0.3-0.3-0.6-0.7-0.9-1c-1.6-1.7-3.2-3.5-4.7-5.3
	c-0.6-0.7-1.1-1.3-1.7-2c-1.8-2.2-3.5-4.4-5.2-6.7c-0.2-0.3-0.5-0.7-0.7-1c-6.8-9.4-12.5-19.7-16.9-30.5c-0.1-0.3-0.3-0.7-0.4-1
	c-1.3-3.4-2.5-6.9-3.7-10.5c-0.4-1.5-0.9-3-1.3-4.5c-0.1-0.4-0.2-0.9-0.4-1.3C0.7,527.5,0,504.9,0,482.4c0-2.6,0-5.2,0-7.8
	c0.2-36.3,0.7-73.3,6.1-109.1c0-0.2,0.1-0.5,0.1-0.7c1.8-12.1,4.2-24,7.3-35.8c3.2-12.4,7.3-24.5,12.3-36.3
	c12.3-29,30.3-55.4,50.2-79.9c24-29.4,51.5-56.6,82.1-79c4.4-3.2,8.9-6.3,13.4-9.4l2.1-1.4c0.7-0.5,1.5-1,2.2-1.4l0,0
	c1.5-1,3-1.9,4.5-2.9l1.7-1.1l3.2-2l1-0.6l1.7-1l1.7-1c2-1.2,4-2.3,6.1-3.5c8.7-4.9,17.7-9.3,26.8-13.4c2.7-1.2,5.4-2.3,8.1-3.4
	c12.4-5.1,25.2-9.2,38.2-12.5c4.8-1.2,9.6-2.3,14.5-3.2c5.7-1.1,11.5-2,17.3-2.8c9.2-1.2,18.5-1.9,27.8-2.1
	c65.3-1.6,131.3,19.7,182.5,60.4c20.4,16.2,38.7,35.5,61.6,47.9c20,10.8,43.4,15.3,64.8,6.8c17.7-7,29.2-10.5,49.1-9.5
	c41.1,2.3,81.7,10.8,120.3,25.2c1.6,0.6,3.1,1.2,4.7,1.8c100.7,38.5,187.3,115.1,232.3,213.5c1.2,2.6,2.3,5.2,3.5,7.9
	C1074.1,488.8,1083.8,562.2,1054.2,623.3z"/>
<path class="st1" d="M200.2,277.4v379.2l-1.3,0.4c-8.4,2.4-17,4.2-25.6,5.4c-19.7,2.5-39.6,0.9-58.6-4.7l-0.7-0.2l-1.2-0.4l-1.7-0.5
	c-2.8-0.9-5.6-1.8-8.3-2.9l-1.7-0.6c-2.7-1-5.3-2.1-7.8-3.3l-1.7-0.8c-2.7-1.2-5.3-2.5-7.8-3.9c-0.9-0.5-1.8-1-2.7-1.5
	c-2.7-1.5-5.4-3.1-8-4.8c-2.8-1.8-5.5-3.6-8.1-5.5c-1.2-0.9-2.4-1.8-3.6-2.7c-6.9-5.3-13.4-11.1-19.4-17.5c-0.3-0.3-0.6-0.7-0.9-1
	c-1.6-1.7-3.2-3.5-4.7-5.3c-0.6-0.7-1.1-1.3-1.7-2c-1.8-2.2-3.5-4.4-5.2-6.7c-0.2-0.3-0.5-0.7-0.7-1c-6.8-9.4-12.5-19.7-16.9-30.5
	c-0.1-0.3-0.3-0.7-0.4-1c-1.3-3.4-2.5-6.9-3.7-10.5c-0.4-1.5-0.9-3-1.3-4.5c-0.1-0.4-0.2-0.9-0.4-1.3C0.6,527.5,0,504.9,0,482.4
	c0-2.6,0-5.2,0-7.8c0.2-36.3,0.7-73.3,6.1-109.1c0-0.2,0.1-0.5,0.1-0.7c1.8-12.1,4.2-24,7.3-35.8h102.1v-51.5H136V236h43.8v41.4
	H200.2z"/>
<path class="st2" d="M1054.2,623.3c-26.6,54.8-80.5,91.5-136.4,115.6c-44.8,19.2-92.1,31.8-140.5,37.5c-9.3,1.1-18.6,2-27.9,2.6
	c-23.8,1.6-47.7,1.5-71.6-0.1c-14.3-1-28.6-2.5-42.8-4.6c-49.5-7.2-97.7-21.3-143.3-41.7c-13.2-5.9-26.1-12.4-38.7-19.4
	c-21.1-11.7-41.3-24.9-60.5-39.5c-4.2-3.2-8.4-6.5-12.6-9.9l-1.7-1.4c-3.2-2.7-6.5-5.4-9.7-8.1c-5.4-4.6-11.2-8.7-17.3-12.4
	c-0.4-0.2-0.8-0.5-1.2-0.7c-1.1-0.7-2.3-1.3-3.4-1.8c-2.4-1.2-4.8-2.3-7.3-3.2V481h185.6v34.5h81.5V263h95.9v101h47.4v-59.8h39.2
	v-63.9h18v-37.2c1.6,0.6,3.1,1.2,4.7,1.8v35.5H829v63.9h39.2V364h57.7v227.8h91.8V426.1h29.6
	C1074.1,488.8,1083.8,562.2,1054.2,623.3z"/>
<rect x="635" y="301" class="st3" width="42.8" height="42.9"/>
<rect x="635" y="389.8" class="st3" width="42.8" height="42.9"/>
<rect x="635" y="478.6" class="st3" width="42.8" height="42.8"/>
<rect x="635" y="567.4" class="st3" width="42.8" height="42.8"/>
<rect x="635" y="656.3" class="st3" width="42.8" height="42.8"/>
<path class="st3" d="M677.9,745.1v33.8c-14.3-1-28.6-2.5-42.8-4.6v-29.3H677.9z"/>
<rect x="353.5" y="536.4" class="st1" width="150" height="19.4"/>
<rect x="353.5" y="595.3" class="st1" width="150" height="19.4"/>
<path class="st3" d="M503.4,654.3v19.4H392.6c-4.2-3.2-8.4-6.5-12.6-9.9l-1.7-1.4c-3.2-2.7-6.5-5.4-9.7-8.1H503.4z"/>
<path class="st3" d="M503.4,713.2v19.4h-11.7c-13.2-5.9-26.1-12.4-38.7-19.4H503.4z"/>
<rect x="749.4" y="417" class="st3" width="27.9" height="27.9"/>
<rect x="145.4" y="287" class="st1" width="27.9" height="27.9"/>
<rect x="145.4" y="351.8" class="st1" width="27.9" height="27.9"/>
<rect x="145.4" y="416.6" class="st1" width="27.9" height="27.9"/>
<rect x="145.4" y="481.4" class="st1" width="27.9" height="27.9"/>
<rect x="145.4" y="546.2" class="st1" width="27.9" height="27.9"/>
<rect x="145.4" y="611" class="st1" width="27.9" height="27.9"/>
<rect x="855.9" y="417" class="st3" width="27.9" height="27.9"/>
<rect x="749.4" y="485.8" class="st3" width="27.9" height="27.9"/>
<rect x="855.9" y="485.8" class="st3" width="27.9" height="27.9"/>
<rect x="749.4" y="554.6" class="st3" width="27.9" height="27.9"/>
<rect x="855.9" y="554.6" class="st3" width="27.9" height="27.9"/>
<rect x="749.4" y="623.4" class="st3" width="27.9" height="27.9"/>
<rect x="855.9" y="623.4" class="st3" width="27.9" height="27.9"/>
<rect x="749.4" y="692.2" class="st3" width="27.9" height="27.9"/>
<rect x="855.9" y="692.2" class="st3" width="27.9" height="27.9"/>
<polygon class="st3" points="749.4,779 749.4,761 777.3,761 777.3,776.4 "/>
<path class="st1" d="M6.1,364.8v16h106.7v-16H6.1z M15.6,379.8H7.8v-14h7.8V379.8z M25.1,379.8h-7.8v-14h7.8V379.8z M34.6,379.8
	h-7.8v-14h7.8V379.8z M44.1,379.8h-7.8v-14h7.8V379.8z M53.6,379.8h-7.8v-14h7.8V379.8z M63.1,379.8h-7.8v-14h7.8V379.8z
	 M72.6,379.8h-7.8v-14h7.8L72.6,379.8z M82.1,379.8h-7.8v-14h7.8L82.1,379.8z M91.6,379.8h-7.8v-14h7.8L91.6,379.8z M101.1,379.8
	h-7.8v-14h7.8L101.1,379.8z M111.1,379.8h-8.3v-14h8.3L111.1,379.8z"/>
<path class="st1" d="M6.1,411.2v16h106.7v-16H6.1z M15.6,426.2H7.8v-14h7.8V426.2z M25.1,426.2h-7.8v-14h7.8V426.2z M34.6,426.2
	h-7.8v-14h7.8V426.2z M44.1,426.2h-7.8v-14h7.8V426.2z M53.6,426.2h-7.8v-14h7.8V426.2z M63.1,426.2h-7.8v-14h7.8V426.2z
	 M72.6,426.2h-7.8v-14h7.8L72.6,426.2z M82.1,426.2h-7.8v-14h7.8L82.1,426.2z M91.6,426.2h-7.8v-14h7.8L91.6,426.2z M101.1,426.2
	h-7.8v-14h7.8L101.1,426.2z M111.1,426.2h-8.3v-14h8.3L111.1,426.2z"/>
<path class="st1" d="M6.1,457.7v16h106.7v-16H6.1z M15.6,472.6H7.8v-14h7.8V472.6z M25.1,472.6h-7.8v-14h7.8V472.6z M34.6,472.6
	h-7.8v-14h7.8V472.6z M44.1,472.6h-7.8v-14h7.8V472.6z M53.6,472.6h-7.8v-14h7.8V472.6z M63.1,472.6h-7.8v-14h7.8V472.6z
	 M72.6,472.6h-7.8v-14h7.8L72.6,472.6z M82.1,472.6h-7.8v-14h7.8L82.1,472.6z M91.6,472.6h-7.8v-14h7.8L91.6,472.6z M101.1,472.6
	h-7.8v-14h7.8L101.1,472.6z M111.1,472.6h-8.3v-14h8.3L111.1,472.6z"/>
<path class="st1" d="M6.1,504.1v16h106.7v-16H6.1z M15.6,519.1H7.8v-14h7.8V519.1z M25.1,519.1h-7.8v-14h7.8V519.1z M34.6,519.1
	h-7.8v-14h7.8V519.1z M44.1,519.1h-7.8v-14h7.8V519.1z M53.6,519.1h-7.8v-14h7.8V519.1z M63.1,519.1h-7.8v-14h7.8V519.1z
	 M72.6,519.1h-7.8v-14h7.8L72.6,519.1z M82.1,519.1h-7.8v-14h7.8L82.1,519.1z M91.6,519.1h-7.8v-14h7.8L91.6,519.1z M101.1,519.1
	h-7.8v-14h7.8L101.1,519.1z M111.1,519.1h-8.3v-14h8.3L111.1,519.1z"/>
<path class="st1" d="M6.5,550.6c0.4,1.5,0.8,3,1.3,4.5v-3.5h7.8v14h-4.2c0.1,0.3,0.2,0.7,0.4,1h101v-16H6.5z M25.1,565.6h-7.8v-14
	h7.8L25.1,565.6z M34.6,565.6h-7.8v-14h7.8L34.6,565.6z M44.1,565.6h-7.8v-14h7.8L44.1,565.6z M53.6,565.6h-7.8v-14h7.8L53.6,565.6z
	 M63.1,565.6h-7.8v-14h7.8L63.1,565.6z M72.6,565.6h-7.8v-14h7.8L72.6,565.6z M82.1,565.6h-7.8v-14h7.8L82.1,565.6z M91.6,565.6
	h-7.8v-14h7.8L91.6,565.6z M101.1,565.6h-7.8v-14h7.8L101.1,565.6z M111.1,565.6h-8.3v-14h8.3L111.1,565.6z"/>
<path class="st1" d="M28.7,597c0.2,0.3,0.5,0.7,0.7,1h5.2v6.7c0.6,0.7,1.1,1.3,1.7,2V598h7.8v14h-3.2c0.3,0.3,0.6,0.7,0.9,1h70.9
	v-16L28.7,597z M53.6,612h-7.8v-14h7.8V612z M63.1,612h-7.8v-14h7.8V612z M72.6,612h-7.8v-14h7.8L72.6,612z M82.1,612h-7.8v-14h7.8
	L82.1,612z M91.6,612h-7.8v-14h7.8L91.6,612z M101.1,612h-7.8v-14h7.8L101.1,612z M111.1,612h-8.3v-14h8.3L111.1,612z"/>
<path class="st1" d="M81,643.5c0.9,0.5,1.8,1,2.7,1.5v-0.5h7.8v4.4l1.7,0.8v-5.2h7.8v8.5l1.7,0.6v-9.1h8.3v12l1.7,0.5v-13.5H81z"/>
<path class="st1" d="M410,226.2c0,0-23.8-1.4-21,15.3c-0.3,1.7,0.6,3.5,2.1,4.3c0,0,0-1.2,2.4-0.8c0.9,0.1,1.7,0.2,2.6,0.1
	c1.2-0.1,2.3-0.5,3.2-1.3l0,0c0,0,6.7-2.8,9.3-13.7c0,0,1.9-2.4,1.8-3l-4,1.7c0,0,1.4,2.9,0.3,5.3c0,0-0.1-5.2-0.9-5.1
	c-0.2,0-2.1,1-2.1,1s2.4,5.1,0.6,8.7c0,0,0.7-6.2-1.3-8.4l-2.9,1.7c0,0,2.8,5.2,0.9,9.5c0,0,0.5-6.5-1.5-9.1l-2.6,2
	c0,0,2.6,5.1,1,8.7c0,0-0.2-7.6-1.6-8.2c-1,0.8-1.8,1.8-2.6,2.8c0,0,1.8,3.7,0.7,5.7c0,0-0.7-5.1-1.2-5.1c0,0-2.2,3.4-2.5,5.7
	c0.1-2.1,0.8-4.2,1.9-6c-1.3,0.2-2.5,0.9-3.4,1.8c0,0,0.3-2.4,4-2.6c0,0,1.8-2.5,2.3-2.7c0,0-3.6-0.3-5.8,0.7c0,0,1.9-2.2,6.5-1.2
	l2.5-2.1c0,0-4.8-0.6-6.8,0.1c0,0,2.3-2,7.4-0.5l2.8-1.6c-2.1-0.5-4.3-0.7-6.5-0.6c0,0,2.5-1.4,7.3,0.1l2-0.9c0,0-3-0.6-3.8-0.7
	c-0.8-0.1-0.9-0.3-0.9-0.3c1.9-0.3,3.8-0.1,5.6,0.6C405.9,228.1,410,226.5,410,226.2z"/>
<path class="st1" d="M347.4,307.5c0,0-8.2,22.4,8.7,24.5c1.6,0.8,3.5,0.5,4.7-0.8c0,0-1.2-0.4-0.1-2.6c0.4-0.8,0.7-1.6,0.9-2.4
	c0.3-1.1,0.1-2.3-0.4-3.4l0,0c0,0-0.8-7.2-10.5-12.8c0,0-1.7-2.5-2.3-2.6l0.5,4.4c0,0,3.2-0.5,5.2,1.2c0,0-5-1.4-5.1-0.6
	c0,0.1,0.4,2.3,0.4,2.3s5.5-0.8,8.5,1.9c0,0-5.8-2.4-8.4-1.1l0.8,3.2c0,0,5.8-1.2,9.3,1.8c0,0-6.1-2.3-9.1-1.1l1.2,3
	c0,0,5.7-1,8.6,1.5c0,0-7.4-2-8.3-0.8c0.5,1.2,1.2,2.3,1.9,3.3c0,0,4.1-0.6,5.7,1c0,0-5-0.8-5.2-0.3c0,0,2.6,3.1,4.7,4
	c-2-0.7-3.8-1.9-5.2-3.5c-0.1,1.3,0.1,2.6,0.7,3.8c0,0-2.2-1-1.4-4.5c0,0-1.9-2.5-1.9-3c0,0-1.3,3.4-1,5.8c0,0-1.6-2.5,0.7-6.5
	l-1.3-3c0,0-2,4.4-1.9,6.5c0,0-1.2-2.8,1.6-7.3l-0.8-3.1c-1,1.9-1.8,3.9-2.4,6c0,0-0.6-2.8,2.2-6.9l-0.3-2.1c0,0-1.4,2.7-1.7,3.5
	s-0.6,0.8-0.6,0.8c0.2-1.9,1-3.7,2.2-5.2C348,312,347.7,307.5,347.4,307.5z"/>
<path class="st1" d="M505.4,288.6c0,0-8.1,22.5,8.7,24.5c1.6,0.8,3.5,0.4,4.7-0.8c0,0-1.2-0.4-0.1-2.6c0.4-0.8,0.7-1.6,0.8-2.5
	c0.3-1.1,0.1-2.3-0.3-3.4l0,0c0,0-0.8-7.2-10.5-12.8c0,0-1.8-2.5-2.4-2.6l0.5,4.3c0,0,3.2-0.5,5.2,1.2c0,0-5-1.4-5.1-0.6
	c0,0.2,0.4,2.3,0.4,2.3s5.5-0.8,8.5,1.9c0,0-5.8-2.4-8.4-1.1l0.8,3.2c0,0,5.8-1.2,9.3,1.8c0,0-6.1-2.3-9.1-1.2l1.2,3
	c0,0,5.7-1,8.6,1.5c0,0-7.3-2-8.3-0.8c0.5,1.2,1.2,2.3,2,3.3c0,0,4.1-0.6,5.7,1c0,0-5-0.8-5.2-0.3c0,0,2.6,3.1,4.7,4
	c-2-0.7-3.8-1.9-5.2-3.5c-0.1,1.3,0.1,2.6,0.7,3.8c0,0-2.2-1-1.3-4.5c0,0-1.9-2.5-1.9-3c0,0-1.3,3.4-1,5.8c0,0-1.6-2.5,0.7-6.5
	l-1.3-3c0,0-2,4.4-1.9,6.5c0,0-1.2-2.8,1.6-7.3l-0.8-3.1c-1,1.9-1.8,3.9-2.4,6c0,0-0.6-2.8,2.2-6.9l-0.3-2.1c0,0-1.4,2.7-1.7,3.5
	s-0.6,0.8-0.6,0.8c0.2-1.9,1-3.7,2.2-5.2C506,293,505.7,288.6,505.4,288.6z"/>
<path class="st1" d="M279.5,472.1c0,0-8.2,22.5,8.7,24.5c1.6,0.8,3.5,0.4,4.7-0.8c0,0-1.2-0.4-0.1-2.6c0.4-0.8,0.7-1.6,0.9-2.5
	c0.3-1.1,0.1-2.3-0.4-3.4l0,0c0,0-0.8-7.2-10.5-12.8c0,0-1.7-2.5-2.3-2.6l0.5,4.3c0,0,3.2-0.5,5.2,1.2c0,0-5-1.3-5.1-0.6
	c0,0.2,0.4,2.3,0.4,2.3s5.5-0.8,8.5,1.9c0,0-5.8-2.4-8.4-1.1l0.8,3.2c0,0,5.8-1.2,9.3,1.8c0,0-6.1-2.3-9.1-1.2l1.2,3
	c0,0,5.7-1,8.6,1.5c0,0-7.3-2-8.3-0.8c0.5,1.2,1.2,2.3,1.9,3.3c0,0,4.1-0.7,5.7,1c0,0-5.1-0.8-5.2-0.3c0,0,2.6,3.1,4.7,4
	c-2-0.7-3.8-1.9-5.2-3.5c-0.1,1.3,0.1,2.6,0.7,3.8c0,0-2.2-1-1.3-4.5c0,0-1.9-2.5-1.9-3c0,0-1.3,3.4-1,5.8c0,0-1.6-2.5,0.7-6.5
	l-1.3-3c0,0-2,4.4-1.9,6.5c0,0-1.2-2.8,1.6-7.3l-0.8-3.1c-1,1.9-1.8,3.9-2.4,6c0,0-0.6-2.8,2.2-6.9l-0.3-2.2c0,0-1.4,2.7-1.7,3.5
	s-0.6,0.8-0.6,0.8c0.2-1.9,1-3.7,2.2-5.2C280.1,476.6,279.8,472.1,279.5,472.1z"/>
<path class="st1" d="M247.2,260.5c0,0-8.1,22.4,8.7,24.5c1.6,0.8,3.5,0.4,4.7-0.8c0,0-1.2-0.4-0.1-2.6c0.4-0.8,0.7-1.6,0.8-2.5
	c0.3-1.1,0.1-2.3-0.3-3.4l0,0c0,0-0.8-7.2-10.5-12.8c0,0-1.7-2.5-2.4-2.6l0.5,4.4c0,0,3.2-0.5,5.2,1.2c0,0-5-1.4-5.1-0.6
	c0,0.1,0.4,2.3,0.4,2.3s5.5-0.8,8.5,1.9c0,0-5.8-2.4-8.4-1.1l0.8,3.2c0,0,5.8-1.2,9.3,1.8c0,0-6.1-2.3-9.1-1.1l1.2,3
	c0,0,5.7-1,8.6,1.5c0,0-7.3-2-8.3-0.8c0.5,1.2,1.2,2.3,1.9,3.3c0,0,4.1-0.6,5.7,1c0,0-5-0.8-5.2-0.3c0,0,2.6,3.1,4.7,4
	c-2-0.7-3.8-1.9-5.2-3.5c-0.1,1.3,0.1,2.6,0.7,3.8c0,0-2.2-1-1.3-4.5c0,0-1.9-2.5-1.9-3c0,0-1.3,3.4-1,5.8c0,0-1.6-2.5,0.7-6.5
	l-1.3-3c0,0-2,4.4-1.9,6.5c0,0-1.2-2.8,1.6-7.3l-0.8-3.1c-1,1.9-1.8,3.9-2.4,6c0,0-0.6-2.8,2.2-6.9l-0.3-2.1c0,0-1.4,2.7-1.7,3.5
	s-0.6,0.8-0.6,0.8c0.2-1.9,1-3.7,2.2-5.2C247.8,265,247.4,260.5,247.2,260.5z"/>
<path class="st1" d="M307.6,382.7c0,0,6.3,23,21.2,15c1.7-0.3,3.1-1.6,3.4-3.4c0,0-1.2,0.4-1.5-2c-0.1-0.9-0.4-1.7-0.7-2.5
	c-0.4-1.1-1.2-2-2.2-2.6l0,0c0,0-4.8-5.5-16-4.4c0,0-2.9-1-3.4-0.8l2.9,3.2c0,0,2.3-2.2,4.9-2c0,0-4.9,1.8-4.5,2.5
	c0.1,0.1,1.6,1.7,1.6,1.7s4-3.9,8.1-3.4c0,0-6.1,1.4-7.5,3.9l2.5,2.1c0,0,4.1-4.3,8.7-3.9c0,0-6.3,1.6-8.1,4.3l2.7,1.8
	c0,0,4-4.1,7.9-3.7c0,0-7.1,2.6-7.2,4.1c1.1,0.7,2.3,1.2,3.5,1.5c0,0,3-2.9,5.2-2.5c0,0-4.6,2.3-4.4,2.8c0,0,3.9,1,6.1,0.5
	c-2,0.6-4.2,0.6-6.3,0.1c0.6,1.1,1.6,2.1,2.8,2.7c0,0-2.4,0.4-3.7-2.9c0,0-3-0.9-3.3-1.4c0,0,0.9,3.5,2.5,5.3c0,0-2.7-1.1-3.2-5.7
	l-2.8-1.7c0,0,0.9,4.7,2.2,6.4c0,0-2.6-1.6-2.9-6.9l-2.4-2.1c0.2,2.2,0.8,4.3,1.5,6.3c0,0-2.1-2-2.2-6.9l-1.5-1.6c0,0,0.4,3,0.6,3.9
	s0,1,0,1c-0.9-1.7-1.3-3.6-1.2-5.5C310.7,386,307.8,382.5,307.6,382.7z"/>
<path class="st1" d="M478.2,403.2c0,0,6.3,23,21.2,15c1.7-0.3,3.1-1.6,3.4-3.4c0,0-1.2,0.4-1.6-2c-0.1-0.9-0.4-1.7-0.7-2.5
	c-0.5-1.1-1.2-2-2.3-2.6l0,0c0,0-4.8-5.5-16-4.4c0,0-2.9-1.1-3.4-0.8l2.9,3.2c0,0,2.3-2.2,4.9-2c0,0-4.9,1.8-4.5,2.5
	c0.1,0.1,1.6,1.7,1.6,1.7s4-3.9,8.1-3.4c0,0-6.1,1.4-7.5,3.9l2.5,2.1c0,0,4-4.3,8.7-3.9c0,0-6.3,1.6-8.1,4.3l2.7,1.8
	c0,0,4-4.1,7.9-3.7c0,0-7.1,2.6-7.2,4.1c1.1,0.7,2.3,1.2,3.5,1.5c0,0,3-2.9,5.2-2.5c0,0-4.6,2.3-4.4,2.8c0,0,3.9,1,6.2,0.5
	c-2.1,0.6-4.2,0.6-6.3,0.1c0.6,1.1,1.6,2.1,2.8,2.7c0,0-2.4,0.4-3.7-2.9c0,0-3-0.9-3.3-1.4c0,0,0.9,3.5,2.5,5.3c0,0-2.7-1.1-3.2-5.7
	l-2.8-1.7c0,0,0.9,4.7,2.2,6.4c0,0-2.6-1.6-2.9-6.9l-2.5-2.1c0.2,2.2,0.8,4.3,1.5,6.3c0,0-2.1-2-2.2-6.9l-1.5-1.6c0,0,0.4,3,0.6,3.9
	s0,1,0,1c-0.9-1.7-1.3-3.6-1.2-5.5C481.3,406.5,478.5,403.1,478.2,403.2z"/>
<path class="st4" d="M414.2,634.2c0,0,51.9-17.5,41.1-79.4l-65.9-17.1l-15.3,50.8L414.2,634.2z"/>
<path class="st5" d="M374.2,588.5l40,45.7c0,0,51.9-17.5,41.1-79.4L374.2,588.5z"/>
<path class="st6" d="M156.2,131.2c0,0,7,11.4,16.6,5.7s0.4-21.4,0.4-21.4S154.8,113,156.2,131.2z"/>
<path class="st7" d="M419.3,551.9l36,2.9l67,0.5l-52.8,65c0,0-16.8,0.9-20.2,3.3s-51.9,1.1-51.9,1.1l-7.8-33.3L419.3,551.9z"/>
<path class="st8" d="M419.3,551.9l36,2.9l67,0.5l-52.8,65c0,0-16.8,0.9-20.2,3.3s-51.9,1.1-51.9,1.1l-7.8-33.3L419.3,551.9z"/>
<path class="st4" d="M382.9,377.2l8.4,14.2l1.8,24.8c0,0,5.8,21.1,10.2,27.3c4.4,6.2,6.2,22.6,6.2,22.6s1.8,15.3,4,18.6
	s5.1,27,5.1,27s19.3,38.6,36.8,43.3c0,0-86.6,28.4-41.1,79.4c0,0-32.4,8-40-1.1c-7.6-9.1-27.7-143.8-27.7-143.8l6.2-113.6
	L382.9,377.2z"/>
<path class="st8" d="M382.9,377.2l8.4,14.2l1.8,24.8c0,0,5.8,21.1,10.2,27.3c4.4,6.2,6.2,22.6,6.2,22.6s1.8,15.3,4,18.6
	s5.1,27,5.1,27s19.3,38.6,36.8,43.3c0,0-86.6,28.4-41.1,79.4c0,0-32.4,8-40-1.1c-7.6-9.1-27.7-143.8-27.7-143.8l6.2-113.6
	L382.9,377.2z"/>
<path class="st7" d="M277.8,238.8c-2.4,12.6-1.7,25.6,2.1,37.9l-13.5,38.6c0,0-102.7-57.2-93.9-71c4.9-7.9,5.6-28.6,5.2-45.1
	c-0.3-12.5-1.2-22.6-1.2-22.6s126,12.4,109.2,41.1C281.9,224.2,279.2,231.4,277.8,238.8z"/>
<path class="st5" d="M285.7,217.7c-3.8,6.5-6.5,13.7-7.9,21.1c-38.6,12.3-80.5-4.3-100.1-39.6c-0.3-12.5-1.2-22.6-1.2-22.6
	S302.5,188.9,285.7,217.7z"/>
<path class="st7" d="M336.7,155.8c0,46.9-37.9,84.9-84.8,84.9c-46.9,0-84.9-37.9-84.9-84.8c0-17.6,5.4-34.8,15.6-49.1
	c1.2-1.7,2.5-3.3,3.8-4.9c7.6-9.2,17-16.7,27.6-22l0,0c5.8-2.9,11.9-5.1,18.1-6.6c45.7-10.8,91.5,17.4,102.3,63.1
	c0.5,1.9,0.8,3.9,1.2,5.8C336.3,146.7,336.7,151.2,336.7,155.8z"/>
<path class="st4" d="M370.2,504.6c-1.3,6.8,0.3,19.2,2.7,31.8c0.1,0.5,0.2,1.1,0.3,1.7c0.1,0.6,0.3,1.4,0.4,2.1
	c1.1,5.4,2.3,10.8,3.5,15.7s2.2,9.1,3.1,12.5c1.4,5.2,2.3,8.4,2.3,8.4s0.1,3.2,0.3,8.2c0.1,2.9,0.2,6.5,0.3,10.4
	c0,1.1,0.1,2.3,0.1,3.5c0,2.1,0.1,4.3,0.2,6.5c0,0.7,0,1.4,0,2.2c0,2.4,0.1,4.8,0.1,7.3c0,3.3,0.1,6.7,0.1,9.9c0,1.2,0,2.5,0,3.7
	c0,3.1,0,6.1,0,8.8c-0.1,7.8-0.4,13.6-1.1,15.3c-0.2,0.6-0.4,1.2-0.6,1.9c-0.9,3.1-1.5,6.3-1.9,9.5l-1.7-1.4
	c-3.2-2.7-6.5-5.4-9.7-8.1c-5.4-4.6-11.2-8.7-17.3-12.4c-0.4-0.2-0.8-0.5-1.2-0.7c-1.1-0.7-2.3-1.3-3.4-1.8
	c-2.4-1.2-4.8-2.3-7.3-3.2c-11.5-4.4-23.9-6-36.5-5.7c-5,1.9-8.2,3.3-8.2,3.3l-6.4,1.9l-1.1,0.3c-6.9,2.1-16.6,5.1-20.1,6.3
	c-5.6,2-54.6,12.2-54.6,12.2c-4.5,1.2-9,2.1-13.7,2.5c-8.4,2.4-17,4.2-25.6,5.4c-19.7,2.5-39.6,0.9-58.6-4.7c-0.6,0-1.1,0-1.7,0
	c0.4,0,0.7-0.1,1-0.1l-1.2-0.4l-1.7-0.5c-2.8-0.9-5.6-1.8-8.3-2.9l-1.7-0.6c-2.7-1-5.3-2.1-7.8-3.3l-1.7-0.8
	c-2.7-1.2-5.3-2.5-7.8-3.9c-0.9-0.5-1.8-1-2.7-1.5c-2.7-1.5-5.4-3.1-8-4.8c-0.4-3.8-0.7-6.3-0.7-6.3L68.5,613l-0.2-1l-2.8-14l-0.2-1
	l-6.1-30.5l-0.2-1l-2.8-14l-0.2-1l-6.2-30.4l-0.2-1l-2.8-14l-0.2-1l-6.1-30.5l-0.2-1l-2.8-14l-0.2-1l-1.1-5.5l-1.7-8.3
	c0,0-5.3-7.6-11.3-16.6l-0.7-1c-1.7-2.5-3.5-5.2-5.2-7.7c-0.6-0.9-1.1-1.7-1.7-2.5c-0.8-1.3-1.6-2.5-2.4-3.7l-0.5-0.8l-0.1-0.2
	c-8.6-13.3-2.9-19.1-2.9-19.1s3.6-4.9,8.3-11.4c0.2-0.3,0.5-0.7,0.7-1c2-2.8,4.2-5.9,6.4-8.9l1.7-2.4c0.6-0.9,1.2-1.8,1.8-2.7
	c0.2-0.3,0.5-0.7,0.7-1c4.6-6.7,8.4-12.5,9.2-14.5c1.2-3.2,9-12.9,16.8-21.3c6.1-6.7,12.2-12.6,14.9-14c6.2-3.3,8.7-13.8,8.7-13.8
	s13.5-4.7,15.3-8.4s27.3-20,27.3-20s10.3-6.6,14.5-10.6c0.6-0.5,1.1-1.1,1.5-1.8c1.4-2.6,10.9-4.7,14.8-5.5c1-0.2,1.6-0.3,1.6-0.3
	c1.6-2.8,3.5-5.4,5.8-7.6c1.6-1.4,3.5-6.2,5.2-10.8c1.8-5.1,3.2-9.9,3.2-9.9c2.9-9.8,8.7-6.9,8.7-6.9c0,1.3,0.1,2.7,0.4,4l0,0
	c2.4,12,15.6,17,22.6,22.6c7.6,6.2,19.7,22.2,29.1,25.5c7.8,2.7,16.9,12.9,19.8,16.3l0.2,0.3c0.5,0.6,0.7,0.9,0.7,0.9
	s5.4-0.3,8.6-0.3h1.2c0.7-0.1,1.3-0.3,1.8-0.7c3.2-2.2,8.1-8.7,10.2-10.2c2.5-1.8,5.1-31.3,5.1-31.3l0.1-0.1
	c9.1-4.2,18.8,38.3,18.8,38.3s17.1,5.1,18.6,8.7c0.3,0.7,1.6,2,3.5,3.5c8.8,6.8,18.2,12.7,28.1,17.9c0.2,0.1,0.4,0.2,0.6,0.3
	c0.2,0.1,0.4,0.2,0.6,0.3c0.4,0.2,0.7,0.3,1.1,0.5c0.5,0.2,1,0.4,1.5,0.6l0.6,0.2c1.4,0.5,2.8,1.2,4,2.1c0.4,0.3,0.7,0.5,1.1,0.8
	c1.4,1.1,2.6,2.4,3.7,3.8c0.2,0.2,0.3,0.4,0.5,0.6l0,0c0.8,1,1.4,1.9,2,2.8c0.9,1.3,1.8,2.7,2.5,4.2c0,0,14.9,25.5,19.7,28.4
	s7.7,32.4,7.7,32.4l0,0l-16,59.3c0,0-0.8,15-2.2,30.3C372.3,489.6,371.3,498.3,370.2,504.6z"/>
<path class="st9" d="M249.7,290.5c0,0-10.7,5.8-19.1,6.4c-1.1,0.1-2.2,0-3.3-0.2c-8.8-1.3-21.7-8.5-21.7-8.5l15.1-16.6l18.4,9.1
	l6.8,6.3L249.7,290.5z"/>
<path class="st5" d="M335.6,142.2c-0.4,0.5-0.8,1-1.3,1.5c-5.3,5-14.6,2.9-21.8,1.8c-6.2-1-12.3-2.8-18.1-5.2
	c-5.1-2.2-11.1-4.8-15.7-1.7c-1.8,1.2-3,3.1-4.8,4.1c-1.8,1-4.1,1.1-6.3,1.1c-7,0-14,0.1-20.8-1.5c-10.2-2.4-20.7-8.4-30.4-4.4
	c-7.6,3.1-11.7,11.3-13.7,19.3c-1,3.9-1.7,8-4,11.3c-2.3,3.3-6.6,5.6-10.4,4.1c-5.5-2.3-6.3-11.6-12.9-12.1c-7.3-0.5-7.2,7-5.1,12.4
	c3.1,8,7.2,16,7.4,24.3c-15.9-28.6-14.1-63.7,4.8-90.4c1.6-1,2.9-2.5,3.6-4.2c0.1-0.2,0.1-0.5,0.2-0.7c0.6-2.8-1-5.7-1.1-8.6
	c-0.4-7.1,7.4-12.1,14.5-13c4.7-0.6,9.5-0.1,14.2-0.3l0,0c2.4-0.1,4.7-0.4,7-0.9c4-1.2,7.7-3.1,11-5.6
	c45.7-10.8,91.5,17.4,102.3,63.1C334.8,138.3,335.2,140.3,335.6,142.2L335.6,142.2z"/>
<path class="st10" d="M337.3,136.3c-0.5,2-1.5,3.8-3,5.2c-5.3,5-14.6,2.9-21.8,1.8c-6.2-1-12.3-2.7-18.1-5.2
	c-5.1-2.1-11.1-4.8-15.7-1.7c-1.8,1.2-3,3.1-4.8,4.1c-1.8,1-4.1,1.1-6.3,1.1c-7,0.1-14,0.1-20.8-1.5c-10.2-2.4-20.7-8.4-30.4-4.4
	c-7.6,3.1-11.7,11.3-13.7,19.3c-1,3.9-1.7,8-4,11.3c-2.3,3.3-6.6,5.6-10.4,4.1c-5.5-2.3-6.3-11.6-12.9-12.1c-7.3-0.5-7.2,7-5.1,12.4
	c3.7,9.5,8.8,18.9,7.1,28.9c-1.6,0-4.4-0.1-6-0.1c1.3-2.1-1.1-4.7-3.5-5.4c-2.4-0.7-5.2-0.7-7-2.5c-1.8-1.7-1.8-4.4-1.6-6.8
	c0.4-5.2,1.7-10.2,3.7-14.9c1.3-3,3-6.2,2-9.4c-0.6-1.4-1.3-2.8-2.2-4.1c-2.1-4-1.6-9,0.2-13.1c0.8-1.8,1.3-3.4,1.9-5
	c0.8-2.2,1.9-4.3,3.4-6.2c2.3-2.9,4.5-7.1,2-9.8c-0.6-0.7,0.6-1.1,0.2-2c-0.1-0.1-0.1-0.3-0.1-0.5c-0.1-1.1,0.1-2.1,0.7-3
	c0.1-0.2,0.2-0.5,0.4-0.7c0.1-0.2,0.2-0.4,0.4-0.7c2.2-3.7,5.2-6.9,8.6-9.4c2.2-1.6,4.7-3.1,5.6-5.6c1-3-0.8-6.2-0.9-9.4
	c-0.4-7.1,7.4-12.1,14.5-13s14.4,0.6,21.3-1.2c9.8-2.6,16.7-11.2,25.6-16.1c9.9-5.3,21.6-5.7,31.8-1.1c10.4,4.7,18.2,14.3,29,17.9
	c3.8,1.3,8,1.8,11.5,3.9c4,2.5,6.4,6.8,8.5,11c3.2,6.4,3.8,12.9,6,19.7c1.7,5.4,4.1,12.5,4.3,18.7
	C337.9,132.6,337.7,134.5,337.3,136.3z"/>
<g class="st11">
	<path d="M171.7,123.8c0.3-1.3,0-2.7-0.8-3.7c0.3,0.8-0.9,1.2-0.2,1.9C171.2,122.4,171.5,123.1,171.7,123.8z"/>
	<path d="M170.9,117.7L170.9,117.7c-0.1,0.3-0.2,0.7-0.2,1.1C170.9,118.5,171.2,118.2,170.9,117.7z"/>
	<path d="M334.6,139.1c-5.3,5-14.6,2.9-21.8,1.8c-6.2-1-12.3-2.8-18.1-5.2c-5.1-2.2-11.1-4.8-15.7-1.7c-1.7,1.2-2.9,3.1-4.8,4.1
		c-1.8,1-4.1,1.1-6.3,1.1c-7,0-14,0.1-20.8-1.5c-10.2-2.4-20.7-8.4-30.4-4.4c-7.6,3.1-11.7,11.3-13.7,19.3c-1,3.9-1.7,8-4,11.3
		c-2.3,3.3-6.6,5.6-10.4,4.1c-5.5-2.3-6.3-11.6-12.9-12.1c-5.2-0.4-6.6,3.3-6.3,7.4c0.3-3.1,2-5.6,6.3-5.3
		c6.6,0.5,7.4,9.8,12.9,12.1c3.7,1.5,8.1-0.8,10.4-4.1s3-7.4,4-11.3c2-7.9,6.2-16.2,13.7-19.3c9.7-3.9,20.2,2,30.4,4.4
		c6.8,1.6,13.9,1.5,20.8,1.5c2.2,0,4.4-0.1,6.3-1.1s3-2.9,4.8-4.1c4.6-3.1,10.6-0.5,15.7,1.7c5.8,2.5,11.9,4.2,18.1,5.2
		c7.2,1.2,16.5,3.2,21.8-1.8c2.9-2.7,3.7-6.7,3.5-11C338,133.7,337,136.8,334.6,139.1z"/>
	<path d="M185.6,89.2c-0.1,0.5-0.1,1-0.1,1.5c0.1,2.1,0.9,4.2,1.1,6.2C187.1,94.4,185.9,91.8,185.6,89.2z"/>
	<path d="M165.3,160.2c0.1,0.3,0.1,0.6,0.2,0.9c0.2-1,0.1-2.1-0.2-3.1c-0.6-1.4-1.3-2.8-2.2-4.1c-0.8-1.5-1.2-3.1-1.3-4.8
		c-0.2,2.4,0.2,4.8,1.3,6.9C164,157.4,164.7,158.7,165.3,160.2z"/>
	<path d="M177.7,197.1l-5.9-0.1c0.3,0.7,0.2,1.5-0.2,2.2c1.6,0,4.4,0.1,6,0.1c0.3-1.7,0.4-3.4,0.3-5.2
		C178,195.2,177.9,196.1,177.7,197.1z"/>
	<path d="M168.2,191.6c-2.4-0.7-5.2-0.7-6.9-2.5c-1-1.1-1.6-2.6-1.7-4.2c-0.1,2.3,0,4.8,1.7,6.4c1.8,1.8,4.6,1.8,6.9,2.5
		c1.6,0.5,2.9,1.5,3.6,3C172.8,194.7,170.5,192.3,168.2,191.6z"/>
</g>
<path class="st5" d="M350.1,641.2c-1.1-0.7-2.3-1.3-3.4-1.8c-2.4-1.2-4.8-2.3-7.3-3.2c-11.5-4.4-23.9-6-36.5-5.7
	c-5,1.9-8.2,3.3-8.2,3.3l-6.4,1.9l-1.1,0.3c-0.1-0.7-0.2-1.4-0.2-2.1s-0.1-1.4-0.2-2.1c-2.2-21.2-4-43-4-43v-18.8v-2.2l-0.1-55.5
	l-1-18.3l-0.5-8.1l-0.1-1.5l-0.2-3.2l-0.1-1.9c-0.2-0.6-0.4-1.2-0.6-1.8l0,0c-0.1-0.2-0.1-0.5-0.2-0.8c-0.2-1-0.5-2.3-0.8-3.7
	c-1.8-9.2-4.1-24.7-4.3-27.9c-0.2-4.2-3.8-29.3-3.8-29.3c-0.4-13.8-12-39.9-14.9-44.8c-2.9-4.9-6.2-34.4-5.1-36
	c0.6-0.9,0.9-5.9,1.2-10.5c0-0.5,0-1,0.1-1.6c0.1-3.6,0.2-6.7,0.2-6.7L264,314l3.1-0.6l0.2,0l0.1,0.2c0.3,0.6,1.4,2.6,2.6,5.1
	c0.1,0.3,0.3,0.6,0.4,0.9c0.1,0.1,0.1,0.3,0.2,0.4c2.2,4.9,4.8,11.4,4.7,15.1c-0.2,6.6,7.3,22.4,7.3,22.4
	c0.7,3.6,16.6,39.9,16.6,39.9s12.9,35.5,12.2,41.3s6.2,44.4,6.2,44.4l7.1,39.7c3.5,7.8,8,25.8,8,25.8l1.7,10.2l0.3,2l4.6,27.3
	l2.3,13.4c0,0,1,7.1,2.4,15c0.1,0.7,0.3,1.4,0.4,2.2c0.9,5.2,2.1,10.3,3.8,15.3C349,636.2,349.6,638.7,350.1,641.2z"/>
<path class="st9" d="M351.3,641.9c-0.4-0.2-0.8-0.5-1.2-0.7c-1.1-0.7-2.3-1.3-3.4-1.8c-2.4-1.2-4.8-2.3-7.3-3.2
	c-11.5-4.4-23.9-6-36.5-5.7c-5,1.9-8.2,3.3-8.2,3.3l-6.4,1.9c-0.1-0.7-0.1-1.4-0.2-2.1s-0.1-1.3-0.2-1.9c-2.2-21.2-4-42.8-4-42.8
	v-19v-2.2l-0.1-55.3l-1-17.5l-0.2-3.6l-0.1-2.5l-0.2-3.2l-0.2-3.3l-0.1-2.4v-0.5c0,0,0-0.1-0.1-0.2c-0.2-0.5-0.4-1.4-0.7-2.4
	l-0.1-0.5c0-0.2-0.1-0.5-0.2-0.7l0,0c-1.9-8.5-4.6-26.9-4.8-30.4c-0.2-4.2-3.8-29.3-3.8-29.3c-0.4-13.8-12-39.9-14.9-44.8
	c-2.9-4.9-6.2-34.4-5.1-36c0.6-1,1-7.1,1.2-12.1c0-0.4,0-0.8,0-1.2c0.1-3.1,0.2-5.5,0.2-5.5l10.6-2.1l2.7-0.5l0.4-0.1l1-0.2
	c0,0,1.3,2.4,2.9,5.8l0.2,0.4c2.3,4.9,5,11.7,4.9,15.5c-0.2,6.6,7.3,22.4,7.3,22.4c0.7,3.6,16.6,39.9,16.6,39.9s12.9,35.5,12.2,41.3
	s6.2,44.4,6.2,44.4l7.1,39.7c3.5,7.8,8,25.8,8,25.8l1.6,9.5l0.3,1.9l3.6,21.5l3.4,19.8c0,0,1,7.1,2.4,15c0.1,0.7,0.3,1.4,0.4,2.2
	c0.9,5.2,2.1,10.4,3.8,15.4C350.1,636.5,350.8,639.2,351.3,641.9z"/>
<path class="st12" d="M342.3,128.3c0,0-3.8,4.9-7.3,4.9c-3.4,0-16.9-0.6-23.9-2.7c-7-2.2-41.3-3.8-41.3-3.8s-48.6,0.2-50.2-1.5
	s-30.2-10.4-33.1-9.8c-0.6,0.1-2.1,0.4-4.1,0.7l-2.3,0.4c-3.4,0.6-7.8,1.2-11.7,1.7c-4.9,0.6-9.1,0.9-10.5,0.4v-4.2
	c0,0,5.6-8.2,6-10.6s5.1-36.4,17.5-48.6c5.1-9.8,13.4-17.5,23.5-22c16.8-7.3,33.5-13.5,33.5-13.5l2.9-0.4l9.5-1.4
	c0.3-0.3,0.6-0.5,0.9-0.8c2.6-2,10.6-6.3,20.9,3l1.8,2.9c0,0,31.9,7.5,46.6,33.5s15.5,51.5,16.6,63.2c0,0-0.7,3.3,0.7,4.6
	c0.5,0.5,1,1,1.5,1.5c0.1,0.1,0.3,0.3,0.4,0.4c0.4,0.4,0.8,0.9,1.1,1.2c0,0,0.1,0.1,0.1,0.1c0.1,0.1,0.2,0.2,0.2,0.3L342.3,128.3z"
	/>
<path class="st8" d="M342.3,128.3c0,0-3.8,4.9-7.3,4.9c-3.4,0-16.9-0.6-23.9-2.7c-7-2.2-41.3-3.8-41.3-3.8s-48.6,0.2-50.2-1.5
	s-30.2-10.4-33.1-9.8c-0.6,0.1-2.1,0.4-4.1,0.7l-0.5-3.2l-0.1-0.8c0,0,55.2-11.8,91.9-5.6s63.9,13.1,63.9,13.1s-0.7,3.3,0.7,4.6
	c0.5,0.5,1,1,1.5,1.5c0.1,0.1,0.3,0.3,0.4,0.4c0.4,0.4,0.8,0.9,1.1,1.2c0,0,0.1,0.1,0.1,0.1c0.1,0.1,0.2,0.2,0.2,0.3L342.3,128.3z"
	/>
<path class="st5" d="M337.3,136.3c-6.8,0.5-19.4-1.1-24.8-1.9c-1.6-0.2-3.1-0.5-4.6-0.9c-5.9-1.3-24-4.9-35-3.2
	c-13.3,2-50.8-1.6-50.8-1.6s-23.1-4.7-32.4-8.5c-3.4-1.4-9.1-1.9-14.8-1.1c-1.4,0.2-2.9,0.4-4.3,0.8c-7.7,1.8-14.3,6-13.1,13.1
	c-0.4-0.5-0.8-1.1-1.2-1.6c-0.5-6.5,1.5-10.4,4.3-12.7l0,0l0.7-0.3c3.4-1,6.9-1.7,10.4-2.2c0.6-0.1,1.1-0.2,1.7-0.2
	c9.9-1.3,24.3-1.6,36.5,4.5c0,0,11.3,5.3,18.9,5.3s69.9,0.6,84.5,4.7c2.9,0.8,5.9,1.5,8.8,1.9c5.3,0.7,10.7,0.2,15.8-1.5
	C338,132.6,337.8,134.5,337.3,136.3z"/>
<path class="st5" d="M342.3,128.3c0,0-3.8,4.9-7.3,4.9c-3.4,0-16.9-0.6-23.9-2.7c-7-2.2-41.3-3.8-41.3-3.8s-48.6,0.2-50.2-1.5
	s-30.2-10.4-33.1-9.8c-0.6,0.1-2.1,0.4-4.1,0.7l-2.3,0.4c-4,0-7.9,0.5-11.7,1.7c-4.9,0.6-9.1,0.9-10.5,0.4v-0.8
	c1-0.6,2.1-1.1,3.3-1.6c6.7-1.9,13.7-3,20.7-3.2c8.7-0.3,18.9,0.7,27.9,5.2c0,0,11.3,5.3,18.9,5.3s69.9,0.5,84.5,4.7
	c2.9,0.8,5.9,1.5,8.8,1.9c6.6,0.8,13.2-0.1,19.3-2.8c0,0,0.1,0.1,0.1,0.1c0.1,0.1,0.2,0.2,0.2,0.3L342.3,128.3z"/>
<path class="st13" d="M157.6,132.7c0,0-12.2-9.3,3.6-15.5c0,0,27.7-8.6,48.6,2c0,0,11.3,5.3,18.9,5.3s69.9,0.6,84.5,4.7
	c2.9,0.8,5.9,1.5,8.8,1.9c7.8,0.9,15.6-0.6,22.5-4.3c1-0.6,1.9-0.8,2.2-0.5c0.9,1.1,0.2,7.5-7.8,8.7c-6.2,1-20.5-0.9-26.4-1.8
	c-1.5-0.2-3.1-0.5-4.6-0.9c-5.9-1.3-24-4.9-35-3.2c-13.3,2-50.8-1.6-50.8-1.6s-23.1-4.7-32.4-8.6S154.1,118.5,157.6,132.7z"/>
<path class="st5" d="M260.4,35.1c-1-1.4-13.9-11.7-19.1-15.9l9.5-1.4c0.3-0.3,0.6-0.5,0.9-0.8C258.6,24.2,260.4,35.1,260.4,35.1z"/>
<polygon class="st5" points="218.7,90.3 214.5,96.4 230.6,95.9 230.9,89 "/>
<polygon class="st5" points="316.5,97.7 318.3,103.4 328.5,105 324.1,98.3 "/>
<path class="st5" d="M141.3,287.1c1.1,1.8,36.9,49,46.4,47.7C197.2,333.5,141.3,287.1,141.3,287.1z"/>
<path class="st5" d="M261.5,330.2c0,0,8.7,8.4,7.5,11.6C267.7,345.1,261.5,330.2,261.5,330.2z"/>
<path class="st5" d="M166.1,387.7c0,0-7.6,35.9-3.6,37S166.1,387.7,166.1,387.7z"/>
<path class="st5" d="M264.4,527c1.3,3.6,11.8,27.3,14.2,28.6C281,556.8,264.4,527,264.4,527z"/>
<path class="st5" d="M387.1,429.8c-0.4,1.3-9.5,8.7-7.5,11.5S387.1,429.8,387.1,429.8z"/>
<path class="st5" d="M316.5,496.2c-0.2,0.9-2,20,1.5,23.7C321.4,523.5,316.5,496.2,316.5,496.2z"/>
<path class="st5" d="M409.8,595.3c-2.6,1.5-5.4,2.9-8.2,4.2c-3,1.5-6,2.8-9.1,4.2c-1.2,0.5-2.4,1-3.6,1.5c-1.8,0.8-3.7,1.5-5.5,2.2
	c-5.5,2.1-10.7,4-15.4,5.6c-1.8,0.6-3.6,1.2-5.2,1.7c-8.2,2.6-13.6,4-13.6,4c-1.2-0.3-2.5-0.4-3.8-0.3c-0.3,0-0.7,0-1.1,0
	c-1.7,0.1-3.4,0.3-5,0.6c-11.2,2-27,7.6-36.5,11.3c-5,1.9-8.2,3.3-8.2,3.3l-6.4,1.9l-1.1,0.3c-6.9,2.1-16.6,5.1-20.1,6.3
	c-5.6,2-54.6,12.2-54.6,12.2c-4.5,1.2-9,2.1-13.7,2.5c-11.4,1-22.8,1.3-34.2,0.8c-11.5,0.7-30-1.8-40.8-3.5l-1.7-0.3
	c-4.2-0.7-6.8-1.2-6.8-1.2l1.4-1.9l28.7-39.6l0.2-0.2l26.7-36.9l1-1.3l2.4-3.3c0,0,1.5-2,7.1-2.1c0.7,0,1.4,0,2.2,0
	c4.7,0.4,9.4,1.3,13.9,2.8l1.3,0.4c19.4,5.5,49.3,4.2,49.3,4.2s18.6-3,33.3-4.8l1.1-0.1c4.8-0.7,9.6-1.1,14.4-1.2
	c8.9,0.2,28.2-4.5,28.2-4.5c4.1-0.9,5.9-1.6,8.2-3.3c0.3-0.2,0.6-0.5,1-0.7c1-0.8,2.1-1.7,3.6-2.8c2.7-2.1,6.5-4.9,12.5-8.8
	c0.5-0.3,1.1-0.7,1.7-1c0.6-0.3,1.3-0.8,2.1-1.1c5.8-2.7,11.9-4.7,18.1-6c5.2-1.1,10.5-1.8,15.8-2.2h0.8c15-0.8,30.3,1.8,39.3,10.2
	c1.6,1.5,2.9,3.2,4.1,5c0.5,0.9,1,1.8,1.5,2.7c0.8,1.8,1.4,3.7,1.8,5.6c0.1,0.4,0.1,0.7,0.2,1.1c0,0.1,0,0.2,0,0.3
	c0,0.3,0.1,0.6,0.1,0.9C437.9,575.7,425.5,586.5,409.8,595.3z"/>
<path class="st7" d="M115.3,650.6c0,0,32.4,6,49.3,4.9c0,0,31.1,1.6,47.9-3.3c0,0,49-10.2,54.6-12.2s27.5-8.6,27.5-8.6
	s42.6-17.8,54.6-14.9c0,0,94.3-24.4,87.6-57.3s-66.3-25.5-85-13.1s-16,13.7-25.3,15.7c0,0-19.3,4.7-28.2,4.5
	c-8.9-0.2-48.8,6.2-48.8,6.2s-31.3,1.5-50.6-4.5s-23.1-0.7-23.1-0.7L115.3,650.6z"/>
<path class="st5" d="M185.6,565.1c0,0,0,0.1,0,0.1c-0.1,0.7-0.3,1.5-0.6,2.2c-3.8,9.4-25.6,34.8-25.6,34.8c-1,3-2.2,6-3.6,8.8
	c-3,6.1-6.5,12-10.4,17.5c-5.8,8.4-12.1,16.3-18.8,23.9h-0.1c-0.9,0.6-1.8,1.2-2.7,1.8c-2.4,1.4-5.9,3.1-9.2,3.3c-0.6,0-1.1,0-1.7,0
	c0.4,0,0.7-0.1,1-0.1l-1.2-0.4l-1.7-0.5c-2.8-0.9-5.6-1.8-8.3-2.9l-1.7-0.6c-2.7-1-5.3-2.1-7.8-3.3l-1.7-0.8
	c-2.7-1.2-5.3-2.5-7.8-3.9c-0.9-0.5-1.8-1-2.7-1.5c-2.7-1.5-5.4-3.1-8-4.8c-2.8-1.8-5.5-3.6-8.1-5.5c-2-3.7-3.7-7-4.6-8.8
	c-1.6-3.3-1.8-8-1.6-11.4c0-0.3,0-0.7,0.1-1c0.2-2.1,0.4-3.6,0.4-3.6c-1.5-2-2.8-4.1-4-6.2c-0.7-1.1-1.1-2.3-1.1-3.6
	c0-0.5,0-1-0.1-1.5c-0.8-3.2-4.1-8.6-7.1-12c-2.3-2.5-2.4-11.9-2.2-18.5c0.1-4,0.4-6.9,0.4-6.9c-0.4-0.3-0.8-0.7-0.9-1.2
	c-0.8-2.2-1.3-4.5-1.6-6.8c0-0.3-0.1-0.7-0.1-1c-0.6-4.6-0.9-9.2-0.9-9.2c-7.4-5.4-10.9-13.8-12.6-21.3l-0.2-1
	c-0.9-4.6-1.3-9.3-1.1-14c0-0.5,0-0.8,0-1s0-0.2,0-0.2s1-21.7,3.7-30.1c0.1-0.4,0.2-0.7,0.3-1c0.2-0.5,0.5-1,0.8-1.5
	c1-1.3,1.7-3.8,2.3-6.8c0.4-2.1,0.8-4.3,1-6.6c0.2-1.9,0.4-3.8,0.6-5.5c0.4-4.7,0.5-8.3,0.5-8.3l-1.8-9.1c-0.5-2.5-0.9-5-1.2-7.5
	c0-0.3-0.1-0.7-0.1-1c-0.5-4.6-0.6-9.3-0.2-14c0-0.3,0-0.7,0.1-1c0.8-10.6,3.5-20.9,8.2-30.5l0.5-1c0.7-1.3,1.4-2.6,2.1-3.9
	c0.5-1,1.1-1.9,1.7-2.8c1.5-2.5,3.2-4.9,5-7.2c0.3-0.3,0.5-0.7,0.8-1c3.1-3.9,6.6-7.4,10.4-10.7c10.1-8.7,19.4-12.5,27.8-12.7
	c36.8-1.3,57.5,63.8,60.8,75.2c0.3,1.1,0.5,1.7,0.5,1.7s14.9,14.9,10.6,21.5c-0.8,1.4-1.4,3.1-1.5,4.7c-1.2,8.8,2.2,23.3,2.2,23.3
	s1.2,4,4.8,13.6l1.1,2.8c2.2,6,2.8,16.1,1.5,25.1c-1.2,8.6-4.1,16.3-8.8,18.2c-9.5,4-6.9,8-4.7,11.3c1.3,2.4,2.4,4.8,3.2,7.4
	c1.4,3.7,2.6,7.6,3.1,9.1c0.1,0.4,0.2,0.7,0.2,0.7c1.3-0.5,2.7-0.9,4.1-1.1c1.8-0.2,3.6-0.1,3.9,1.5c0.2,0.8,1.2,1.8,2.7,2.8
	C177.6,562,185.6,565.1,185.6,565.1z"/>
<path class="st4" d="M183.4,565.1L183.4,565.1c-0.1,0.8-0.3,1.5-0.6,2.2c-3.8,9.4-25.6,34.9-25.6,34.9c-1,3-2.2,6-3.6,8.8
	c-2.4,4.9-5.1,9.7-8.2,14.3c-6.3,9.5-13.2,18.4-20.8,26.9l-0.2,0.2c0,0-0.9,0.7-2.3,1.5c-2.5,1.6-5.3,2.8-8.1,3.4l-1.2-0.4l-1.7-0.5
	c-2.8-0.9-5.6-1.8-8.3-2.9l-1.7-0.6c-2.7-1-5.3-2.1-7.8-3.3l-1.7-0.8c-2.7-1.2-5.3-2.5-7.8-3.9c-0.9-0.5-1.8-1-2.7-1.5
	c-2.7-1.5-5.4-3.1-8-4.8c-2.8-1.8-5.5-3.6-8.1-5.5c-1.2-0.9-2.4-1.8-3.6-2.7c-1.3-2.6-2.4-4.7-3.1-6.1c-1.6-3.3-1.8-8-1.6-11.4
	c0-0.3,0-0.7,0.1-1c0.2-2.1,0.4-3.6,0.4-3.6s-0.8-1.1-1.8-2.6c-0.6-0.8-1.1-1.8-1.7-2.7c-1-1.8-1.8-3.5-1.6-4.5c0-0.2,0-0.3,0-0.5
	c0-0.3-0.1-0.7-0.2-1c-0.8-3.2-4.1-8.6-7.2-12c-2.3-2.5-2.4-11.9-2.2-18.5c0-0.3,0-0.7,0-1c0.1-3.5,0.3-5.9,0.3-5.9
	c-1.1-0.5-2-4.1-2.6-8l-0.2-1c-0.6-4.6-0.9-9.2-0.9-9.2c-7.4-5.4-10.9-13.8-12.6-21.3c-1.1-5.3-1.6-10.6-1.3-16c0-0.2,0-0.2,0-0.2
	s0.9-21.8,3.6-30.2c0.1-0.4,0.2-0.7,0.3-1c0.2-0.5,0.5-1,0.9-1.5c1.5-2.1,2.5-7.2,3.2-12.4l0.1-1c0.8-7,1.1-13.9,1.1-13.9l-1.9-9.1
	c-0.5-2.5-0.9-5-1.2-7.5c-0.1-0.3-0.1-0.7-0.1-1c-0.5-4.6-0.6-9.3-0.2-14c0-0.3,0-0.7,0.1-1c0.8-10.6,3.5-20.9,8.2-30.5
	c0.2-0.3,0.3-0.7,0.5-1c1.3-2.6,2.7-5.1,4.3-7.6c0.5-0.9,1.1-1.7,1.7-2.5c0.9-1.3,1.9-2.6,2.8-3.9l0.8-1c3.1-3.9,6.5-7.4,10.3-10.6
	c11-9.4,21-13.1,30-12.7c35.4,1.3,55.4,64,58.6,75.2c0.3,1.1,0.5,1.7,0.5,1.7s14.9,14.9,10.6,21.5c-0.8,1.4-1.4,3.1-1.5,4.7
	c-1.2,8.8,2.2,23.3,2.2,23.3s1.2,4,4.8,13.6c0.3,0.9,0.7,1.8,1,2.8c2.2,6,2.8,16.1,1.5,25.1c-1.2,8.7-4.1,16.3-8.8,18.2
	c-9.5,4-6.9,8-4.7,11.3c1.3,2.4,2.4,4.8,3.2,7.4c1.7,4.7,3.3,9.7,3.3,9.7c0.7-0.3,1.3-0.5,2-0.7c1.4-0.5,2.9-0.6,4.3-0.5
	c0.8,0.1,1.5,0.7,1.7,1.5c0.3,1.2,2.3,2.7,4.9,4.1C176.6,562.1,180,563.7,183.4,565.1z"/>
<path class="st5" d="M51.8,468.9c3.5-0.2,40.6-14.6,48.2-9.7s55,36.8,55,36.8s-29.7-38.8-55.5-47.9S51.8,468.9,51.8,468.9z"/>
<path class="st5" d="M105.2,527.5c0,0,37.1,7.5,42.8,12.6L105.2,527.5z"/>
<path class="st5" d="M98,583.1c-0.5,0.5-14,30.8-12.9,30.8s12.6-18,12.6-18L98,583.1z"/>
<path class="st5" d="M123.3,546.8c0,0-10.9,3.8-9.6,4.2S123,548.5,123.3,546.8z"/>
<path class="st5" d="M112.4,592.5c1.8,3.8,7.6,15.3,8.9,13.5S112.4,592.5,112.4,592.5z"/>
<path class="st5" d="M248.7,289.7l-1.6,2.2c0,0-12.4-8.7-17.5-13.1s-17.1,15.6-26.6,21.1s-25.5,6.9-25.5,6.9s-12.4-12.4-12-16
	s-5.8-4.7-6.2-7.3s-2.6-9.8-5.5-13.5c-1.5-1.9-1.8-7.9-1.6-13.2c1-0.2,1.6-0.3,1.6-0.3c1.6-2.8,3.5-5.4,5.8-7.6
	c3.3-2.9,8.4-20.8,8.4-20.8c2.9-9.8,8.7-6.9,8.7-6.9c0,14.9,15.3,20.4,22.9,26.6s19.7,22.2,29.1,25.5
	C236.7,276.1,245.8,286.3,248.7,289.7z"/>
<path class="st4" d="M248.7,287.6l-1.6,2.2c0,0-12.4-8.7-17.5-13.1s-17.1,15.6-26.6,21.1s-25.5,6.9-25.5,6.9s-12.4-12.4-12-16
	s-5.8-4.7-6.2-7.3s-2.6-9.8-5.5-13.5c-1.5-1.9-1.8-7.9-1.6-13.2l1.6-0.3c1.6-2.8,3.5-5.4,5.8-7.6c3.3-2.9,8.4-20.8,8.4-20.8
	c2.9-9.8,8.7-6.9,8.7-6.9c0,14.9,15.3,20.4,22.9,26.6c7.6,6.2,19.7,22.2,29.1,25.5C236.7,273.9,245.8,284.1,248.7,287.6z"/>
<path class="st5" d="M249.7,290.5c0,0-10.7,5.8-19.1,6.4c-1.1,0.1-2.2,0-3.3-0.2l0,0c0,0,9.2-6.9,17.8-8.3L249.7,290.5z"/>
<path class="st5" d="M271.5,320.2c0,0-13.5-5.3-18,2.7c0.1-3.6,0.2-6.7,0.2-6.7l14.7-2.9c0,0,1.4,2.6,3.1,6.2
	C271.5,319.9,271.5,320.2,271.5,320.2z"/>
<path class="st9" d="M227.3,296.7c0,0,16.2-9.7,24-8.9c8.2,0.9,24,1.5,24,1.5s-5.5,12.4-4.7,14.9s0.9,14.9,0.9,14.9
	s-16.4-6.4-19.1,5.5c0,0-8.9-13.3-14.9-17.3C233.4,304.4,230,300.8,227.3,296.7z"/>
<path class="st5" d="M318.8,308c-4.7,0-21.5-10.6-25.1-17.5c-3.6-6.9-8.7,0.7-13.5,3.3c-3,1.6-14.9-1.8-21.3-4.3
	c3.2-2.2,10.5-8.4,12.6-9.9c2.5-1.8,5.1-31.3,5.1-31.3c9.1-4.7,18.9,38.2,18.9,38.2s17.1,5.1,18.6,8.7c0.3,0.7,1.6,2,3.5,3.5
	C319.6,303.8,320.7,308,318.8,308z"/>
<path class="st4" d="M318.8,305.8c-4.7,0-21.5-10.6-25.1-17.5c-3.6-6.9-8.7,0.7-13.5,3.3c-3,1.6-12.5-1.5-18.9-4
	c3.2-2.2,8.1-8.7,10.2-10.2c2.5-1.8,5.1-31.3,5.1-31.3c9.1-4.7,18.9,38.2,18.9,38.2s17.1,5.1,18.6,8.7c0.3,0.7,1.6,2,3.5,3.5
	C319.6,301.6,320.7,305.8,318.8,305.8z"/>
<path class="st14" d="M383.5,624.8l158.3-132c1.6-1.3,3.6-2,5.7-2l59.1,1.5c0,0,4.1,3-1.9,9.6L455.3,624.4c-1.6,1.3-3.6,2.1-5.7,2.1
	l-64.6,2.1c-1.2,0-2.3-0.9-2.3-2.2C382.7,625.9,383,625.2,383.5,624.8z"/>
<path class="st7" d="M460.1,608.5c0,0,34.6,49.5,73,3.5s27.3-70.3,15.7-71.5S471.6,589.6,460.1,608.5z"/>
<path class="st1" d="M693.3,54.7c0,0,44.6-86.5,97.2-41.9c0,0,11.5,4.2,10.6,16.3c0,0-4.4-2.4-8,6.9c-1.3,3.3-3,6.4-5,9.3
	c-2.7,3.9-6.6,6.9-11.1,8.4l0,0c0,0-23.6,17.7-67.4,4.1c0,0-12.4,1.8-14.4,0.2l14.4-10.5c0,0,7.3,10.8,18,12.1
	c0,0-18-11.3-15.9-13.8c0.4-0.5,7.9-5.2,7.9-5.2s12.8,18.8,29.4,20.2c0,0-23.2-10.6-26.6-22l11.7-6.5c0,0,12.5,20.6,31.4,22.8
	c0,0-23.9-11.9-28.7-24.1l12.3-4.8c0,0,12.6,19.8,28.3,21.6c0,0-26.2-16.5-25.4-22.5c0,0,11.6-3.7,15.2-3.2c0,0,9.4,14,18.6,14.2
	c0,0-16.3-12.9-15.3-14.9c0,0,16.4-0.8,25,3.1c0,0-12.2-6.8-25-5.7c0,0,5.8-6.8,13.3-8.3c0,0-9-3.7-17.3,8.6c0,0-12.8,1.2-14.3,2.6
	c0,0,6.5-13.3,14.4-18.9c0,0-11.8,2.1-17.7,20.1l-12.5,4.6c0,0,7.6-18,14.3-23.6c0,0-11.8,4-17.4,25l-11.5,6.3c0,0,5.4-16,11.5-23.8
	c0,0-10.1,6.1-14.7,25.7l-7.2,5.1c0,0,4.1-11.6,5.6-14.8s0.7-3.9,0.7-3.9c-5,5.9-8.3,13.1-9.4,20.8
	C708.3,44.1,694.2,55.5,693.3,54.7z"/>
<path class="st1" d="M877.7,100.9c0,0,20.1-39.1,43.9-18.9c0,0,5.2,1.9,4.8,7.4c0,0-2-1.1-3.6,3.1c-0.6,1.5-1.3,2.9-2.2,4.2
	c-1.2,1.8-3,3.1-5,3.8l0,0c0,0-10.7,8-30.5,1.8c0,0-5.6,0.8-6.5,0.1l6.5-4.8c0,0,3.3,4.9,8.1,5.5c0,0-8.1-5.1-7.2-6.2
	c0.2-0.2,3.5-2.4,3.5-2.4s5.8,8.5,13.3,9.1c0,0-10.5-4.8-12-10l5.3-2.9c0,0,5.7,9.3,14.2,10.3c0,0-10.8-5.4-13-10.9l5.6-2.2
	c0,0,5.7,8.9,12.8,9.8c0,0-11.8-7.5-11.5-10.2c0,0,5.2-1.7,6.8-1.5c0,0,4.2,6.3,8.4,6.4c0,0-7.4-5.8-6.9-6.7c0,0,7.4-0.4,11.3,1.4
	c0,0-5.5-3.1-11.3-2.6c1.6-1.8,3.7-3.1,6-3.8c0,0-4.1-1.7-7.8,3.9c0,0-5.8,0.5-6.5,1.2c0,0,2.9-6,6.5-8.6c0,0-5.4,0.9-8,9.1
	l-5.6,2.1c0,0,3.4-8.1,6.5-10.6c0,0-5.3,1.8-7.9,11.3l-5.2,2.8c0,0,2.4-7.2,5.2-10.8c0,0-4.6,2.7-6.7,11.6l-3.3,2.3
	c0,0,1.9-5.2,2.5-6.7s0.3-1.8,0.3-1.8c-2.3,2.7-3.7,5.9-4.3,9.4C884.5,96.1,878,101.3,877.7,100.9z"/>
<path class="st1" d="M659.4,146.4c0,0,20.1-39.1,44-18.9c0,0,5.2,1.9,4.8,7.4c0,0-2-1.1-3.6,3.1c-0.6,1.5-1.3,2.9-2.2,4.2
	c-1.2,1.8-3,3.1-5,3.8l0,0c0,0-10.7,8-30.5,1.8c0,0-5.6,0.8-6.5,0.1l6.5-4.8c0,0,3.3,4.9,8.1,5.5c0,0-8.1-5.1-7.2-6.2
	c0.2-0.2,3.6-2.4,3.6-2.4s5.8,8.5,13.3,9.1c0,0-10.5-4.8-12-10l5.3-2.9c0,0,5.7,9.3,14.2,10.3c0,0-10.8-5.4-13-10.9l5.6-2.2
	c0,0,5.7,9,12.8,9.8c0,0-11.8-7.5-11.5-10.2c0,0,5.2-1.7,6.9-1.5c0,0,4.2,6.3,8.4,6.4c0,0-7.4-5.8-6.9-6.7c0,0,7.4-0.4,11.3,1.4
	c0,0-5.5-3.1-11.3-2.6c1.6-1.8,3.7-3.1,6-3.8c0,0-4.1-1.7-7.8,3.9c0,0-5.8,0.5-6.5,1.2c0,0,2.9-6,6.5-8.5c0,0-5.4,0.9-8,9.1
	l-5.7,2.1c0,0,3.4-8.1,6.5-10.6c0,0-5.3,1.8-7.8,11.3l-5.2,2.8c0,0,2.4-7.2,5.2-10.8c0,0-4.6,2.7-6.7,11.6l-3.3,2.3
	c0,0,1.9-5.2,2.5-6.7c0.7-1.5,0.3-1.8,0.3-1.8c-2.3,2.7-3.7,5.9-4.3,9.4C666.2,141.6,659.8,146.8,659.4,146.4z"/>
</svg>
