<?xml version="1.0" encoding="utf-8"?>
<!-- Generator: Adobe Illustrator 22.0.1, SVG Export Plug-In . SVG Version: 6.00 Build 0)  -->
<svg version="1.1" id="e76419e8-217f-4623-abeb-e9c3d79c6db7"
	 xmlns="http://www.w3.org/2000/svg" xmlns:xlink="http://www.w3.org/1999/xlink" x="0px" y="0px" viewBox="0 0 890.1 692.7"
	 style="enable-background:new 0 0 890.1 692.7;" xml:space="preserve">
<style type="text/css">
	.st0{opacity:0.1;fill:#0D8CD8;enable-background:new    ;}
	.st1{fill:url(#SVGID_1_);}
	.st2{fill:#F2F2F2;}
	.st3{opacity:0.1;fill:#CDCDD1;enable-background:new    ;}
	.st4{opacity:0.1;enable-background:new    ;}
	.st5{fill:#B6B6B7;}
	.st6{fill:#FDC2CC;}
	.st7{fill:#86BFDB;}
	.st8{fill:#DFE6F5;}
	.st9{fill:#53526B;}
	.st10{fill:#FFFFFF;}
	.st11{fill:#968C8E;}
	.st12{opacity:0.1;}
	.st13{fill:#6C6E7C;}
	.st14{fill:#A7A4C1;}
	.st15{fill:#747491;}
	.st16{fill:#87C0DD;}
	.st17{fill:none;stroke:#6C6E7C;stroke-width:2;stroke-miterlimit:10;}
</style>
<title>Chef</title>
<ellipse class="st0" cx="324" cy="676.4" rx="324" ry="11.5"/>
<ellipse class="st0" cx="803.4" cy="685.1" rx="86.7" ry="7.7"/>
<linearGradient id="SVGID_1_" gradientUnits="userSpaceOnUse" x1="507.865" y1="498.3063" x2="507.865" y2="-136.871" gradientTransform="matrix(1 0 0 1 -154.9654 188.3641)">
	<stop  offset="0" style="stop-color:#808080;stop-opacity:0.25"/>
	<stop  offset="0.5351" style="stop-color:#808080;stop-opacity:0.12"/>
	<stop  offset="1" style="stop-color:#808080;stop-opacity:0.1"/>
</linearGradient>
<path class="st1" d="M451.9,260.9c-1.4-2.7-8.9-19.7-8.9-19.7l-12.5-32.4c0,0-8.9-13.7-8.9-16.2s-16.1-12.7-16.1-12.7
	s-13.1-3.9-14.1-4.3s-16.5-5.5-16.5-5.5s-6.1-8-7-5.9l0,0c0-0.1-0.1-0.1-0.1-0.2c-1.2-2.3-2-4.9-2.3-7.5c0-0.2-0.1-0.5-0.1-0.7
	c8.2-5.5,13.1-14.8,13.1-24.6c0-1.3-0.1-2.6-0.3-3.8c0.1-0.1,0.2-0.1,0.3-0.2c0.3-0.1,0.2-0.2,0-0.3c0.1,0,0.1-0.1,0.2-0.1
	c0.3-0.1,0.1-0.3-0.2-0.4l0,0c0.5-0.2-0.1-0.3-0.6-0.5c0-0.1,0-0.3-0.1-0.4c0.1-0.3,0.2-0.5,0.2-0.8c0,0,0.1,0,0.1,0.1
	c0.1-0.5,0.1-1,0-1.5c0,0.1-0.1,0.2-0.1,0.3c0.1-0.9-0.4-1.8-1.2-2.3c0,0,0,0-0.1-0.1l0.9-8.8c12.6-0.6,14.8-22,11.9-23.2
	s0-3.8,0-8.9S380,69.4,380,69.4s-4,2-10.2-7.9s-29-11.5-30.5-8.9s-11.7,6-25,9.7c-13.3,3.8-10.8,19.5-8.6,22.8
	c1.8,2.8,2.9,6,3.1,9.3c0,2,4.2,10.3,4.2,10.3c-1.3,2.9,2,18.7,3,23.2c0,0.1,0,0.3,0,0.4l0,0c0,0.1-0.1,0.1-0.1,0.2
	c-0.2,0.5-0.3,1-0.2,1.5c-0.1,0.6,0,1.1,0.2,1.6c0.2,8.6,4,16.7,10.6,22.2c0,0.3,0,0.5,0,0.8c0.2,3.7,0.3,8,0.1,12.2
	c0,0.2,0,0.4,0,0.6c-1.5,0.3-2.7,1.3-3.4,2.7c-1.2,2.4-8.5,6.1-8.5,6.1s-12.7,0.6-13.9,2.9s-19.6,10.1-19.6,10.1s-9.7,5.7-8.3,12.1
	c0.7,3.4-1.3,8.6-3.5,12.8c-4.5-1.7-9.2-2.9-13.9-3.5l10.3,9.8c-0.2,0.3-0.3,0.5-0.3,0.5l-5.8,20.7c0,0-2,7.2-4,9s1.8,17.8,1.8,17.8
	s-2.2,11.3-4,14.2s2.8,10.1,2.8,10.1l9.3,21.1l24.6,6.2c0,0,1.6,0.3,4.3,0.9c-0.1,0.5-0.2,1-0.3,1.5c-1.2,6.7-2.7,12.9-4.6,14.6
	c-4.6,4.1-4.4,22.4-4.4,22.4l0.2,25.9c0,0,1.6,32,0.8,33.2c-0.5,0.7,0.5,1.9,3.2,3c-0.1,0.5-0.2,1-0.2,1.5c-0.8,5.3-1.1,11.4,0.6,14
	c0.8,1.4,1.2,3,1.2,4.7c0,2.5,3.8,7.8,3.8,7.8s-3,21.7,2,29.1s9.3,20.9,6.9,24c0,0-4.2,9.2-2.2,13.3s0,6.4-2.6,7.4s-2.4,9-2.4,9
	l4.8,38c0,0,2.6,7.8,0.4,10.5s-2.2,16.4,1.2,21.1c3.4,4.7-4.8,13.3-4.8,13.3s-5,7.2,3,9.6c0,0,1.6,0.4-1.4,3.5s-3.6,7-1.6,8.4
	c0.4,0.3,0.9,0.5,1.3,0.6c-0.1,0.5-0.2,0.9-0.3,1.4c-0.8,4.1-2.2,9.4-4.9,11.9c-5.1,5.3-9.6,11.2-13.2,17.6
	c-2.8,5.2-4,10.2-0.9,12.5c7.3,5.5,16.5,7.2,22,5.1c5.4-2.1,13.1-8.8,13.1-8.8l1.8-7.6c0,0-1.2-4.7,4.8-6.4c6-1.8,11.7-8,11.7-8v-10
	c1.5-0.8,2.9-1.8,4.2-2.8c0,0,2.8-9.9,0-13.3c-2.8-3.3-3.8-4.5-0.2-6.6c3.6-2.1,4.1-6.8,1.5-10.9c-2.7-4.1-6.9-10.1-3.3-18.7
	c3.6-8.6,5-34.9,5-34.9s-1.7-17.9,0-22s-1.9-12.3-1.9-12.3s1.2-10.1,3.4-14.8c2.2-4.7,4-29.5,4-29.5s4-10.5,4-17.4s-6.2-23.2,3-27.5
	c0,0,4,3.5,2.4,17.6c0,0,4.6,16.4,4.6,21.5s3.4,23.4,3.4,23.4s0.4,5.9,1.8,8s0,8,0,8s5.2,4.9,3.8,8s0.2,10.2,0.2,10.2l-1.2,43.7
	c0,0-3.6,18.7,4.8,30c0,0-3,16.6-4.8,17.8s6.7,11.3,6.7,11.3s-2.3,6.6,2.4,6.9v10.9c1.7,2.9,3.9,5.5,6.7,7.4
	c4.4,3.1,2.6,13.9,2.6,13.9s5.6,13.7,20.6,10.7s16.9-4.3,16.1-9.2c-0.3-1.8-0.9-5-1.9-8.6c-1.6-6.3-4.1-13.8-7-17.6
	c-4.6-5.9-8.5-18.2-8.5-18.2s-1.8-4.1,0-5.5s1-3.9,1-3.9s1.8-5.1,0.2-8.2s3-9.6,3-9.6l-1.4-30l1.4-43.7c0,0-6.2-7.2-3.6-11.5
	s-3-10.3-3-10.3s-0.6-0.2,1-5.1c1-2.9,0.8-6-0.4-8.8c0,0-3.4-12.1,2.6-21.3c0,0,2.6-12.1,3.4-18.3c0.6-4.3,4-20.5,6.1-30
	c0.1-0.5,0.2-1,0.3-1.5c3,0.2,5.2,0.4,5.2,0.4s-4.6-32.2,0-38.8s-3.6-57.4-3.6-57.4s-2-8.9-3.2-17.9c-0.1-0.5-0.1-1-0.2-1.5
	c3.7-0.3,7.5-0.4,11.3-0.2c9.7,0.6,19.1-3.1,19.4-6.8c0.2-3.7,5.4-18.3,6.2-21.7C452.7,274.9,453.3,263.6,451.9,260.9z"/>
<path class="st2" d="M334.3,637.2v18.1c0,0-5.4,6.2-11.3,8s-4.7,6.4-4.7,6.4l-1.7,7.6c0,0-7.4,6.6-12.6,8.7
	c-5.2,2.1-14.2,0.4-21.2-5c-3-2.3-1.8-7.2,0.9-12.4c3.5-6.4,7.7-12.2,12.7-17.5c2.6-2.6,4-7.8,4.7-11.9c0.6-3,0.7-5.4,0.7-5.4
	L334.3,637.2z"/>
<path class="st3" d="M334.3,650.7v4.6c0,0-5.4,6.2-11.3,8s-4.7,6.4-4.7,6.4l-1.7,7.6c0,0-7.4,6.6-12.6,8.7c-5.2,2.1-14.2,0.4-21.2-5
	c-3-2.3-1.8-7.2,0.9-12.4c-0.1,5.5,1.5,11.6,9.4,11.4c8.5-0.3,16.8-3.3,23.5-8.5c0,0-0.2-12.8,8.7-15.7
	C328.7,654.6,331.7,652.9,334.3,650.7z"/>
<path class="st2" d="M405.4,683.4c-14.4,2.9-19.8-10.7-19.8-10.7s1.7-10.7-2.5-13.8c-2.6-2-4.8-4.5-6.4-7.4v-17.9l17.5-12.4l9.5,8.4
	l0.6,0.6c0,0,3.7,12.2,8.2,18.1c2.8,3.7,5.2,11.2,6.8,17.5c0.9,3.6,1.5,6.8,1.8,8.5C421.7,679.2,419.8,680.5,405.4,683.4z"/>
<path class="st3" d="M405.4,683.4c-14.4,2.9-19.8-10.7-19.8-10.7s1.7-10.7-2.5-13.8c-2.6-2-4.8-4.5-6.4-7.4v-6.9
	c2.8,2.9,8,8.6,9.1,11c1.6,3.3,1.7,15.3,8.9,17.5s21.2,4.1,22.3-1.4c0.5-2.1,1.2-4.1,2.1-6c0.9,3.6,1.5,6.8,1.8,8.5
	C421.7,679.2,419.8,680.5,405.4,683.4z"/>
<path class="st4" d="M301.9,633.7l32.4,3.5v9.5c-3.7,2.2-8.9,4.5-11.8,2.1c-4.4-3.5-17.3-7.9-21.3-9.8
	C301.7,636.1,301.9,633.7,301.9,633.7z"/>
<path class="st4" d="M404.2,631.8c-4.5-1.6-12.4,5.2-22.9,9.5c-1.5,0.7-3,1-4.7,1v-8.6l17.5-12.4l9.5,8.4
	C403.8,630.4,404,631.1,404.2,631.8z"/>
<path class="st5" d="M415.7,417.9c0,0-0.6,2.9-1.5,7c-2,9.4-5.4,25.6-5.9,29.9c-0.8,6.2-3.3,18.3-3.3,18.3
	c-5.8,9.1-2.5,21.2-2.5,21.2c1.2,2.8,1.3,5.9,0.4,8.7c-1.6,4.9-1,5-1,5s5.4,6,2.9,10.3s3.5,11.5,3.5,11.5l-1.4,43.5l1.4,29.9
	c0,0-4.5,6.4-2.9,9.5s-0.2,8.2-0.2,8.2s0.8,2.5-1,3.9s0,5.4,0,5.4c-4.5-1.6-12.4,5.2-22.9,9.5s-7-5.8-7-5.8s-8.2-10.1-6.4-11.3
	s4.7-17.7,4.7-17.7c-8.2-11.3-4.7-29.9-4.7-29.9l1.2-43.5c0,0-1.6-7-0.2-10.1s-3.7-8-3.7-8s1.4-5.8,0-8s-1.7-8-1.7-8
	s-3.3-18.3-3.3-23.3s-4.5-21.4-4.5-21.4c1.6-14-2.3-17.5-2.3-17.5c-8.9,4.3-2.9,20.6-2.9,27.4s-3.9,17.3-3.9,17.3
	s-1.7,24.7-3.9,29.3c-2.1,4.7-3.3,14.8-3.3,14.8s3.5,8.2,1.9,12.2c-1.6,4.1,0,21.9,0,21.9s-1.3,26.2-4.8,34.8s0.6,14.6,3.2,18.6
	c2.6,4.1,2.1,8.7-1.4,10.9s-2.5,3.3,0.2,6.6s0,13.2,0,13.2s-11.1,8.7-15.9,4.9s-20.4-8.9-22.3-10.3c-1.9-1.4-1.4-5.2,1.6-8.4
	s1.4-3.5,1.4-3.5c-7.8-2.3-2.9-9.5-2.9-9.5s8-8.5,4.7-13.2s-3.3-18.3-1.2-21s-0.4-10.5-0.4-10.5l-4.6-37.9c0,0-0.2-8,2.3-8.9
	s4.5-3.3,2.5-7.4c-1.9-4.1,2.1-13.2,2.1-13.2c2.3-3.1-1.7-16.5-6.6-23.9s-1.9-28.9-1.9-28.9s-3.7-5.2-3.7-7.8c0-1.6-0.4-3.2-1.2-4.7
	c-1.7-2.7-1.4-8.7-0.6-14c0.7-5.1,1.8-9.5,1.8-9.5L415.7,417.9z"/>
<path class="st6" d="M377.6,197.9l-38.3,8.9c0,0-18.8-15.9-14.2-24.5c1.6-2.9,2.3-7.9,2.5-13.2c0.2-4.1,0.1-8.5-0.1-12.1
	c-0.3-5.3-0.7-9.2-0.7-9.2s39.2-22.1,37.9,0c-0.3,3.7-0.2,7.4,0.3,11.1c0.3,2.6,1,5.1,2.2,7.5c2.1,3.7,4.7,3.8,4.7,3.8L377.6,197.9z
	"/>
<path class="st4" d="M365.1,158.8c-11.4,8.2-26.9,7.4-37.4-1.9c-0.3-5.3-0.7-9.2-0.7-9.2s39.2-22.1,37.9,0
	C364.5,151.5,364.6,155.2,365.1,158.8z"/>
<circle class="st6" cx="347.5" cy="133.6" r="30.1"/>
<path class="st4" d="M377.6,197.9l-38.3,8.9c0,0-18.8-15.9-14.2-24.5c1.6-2.9,2.3-7.9,2.5-13.2c0.8,4.6,3.3,8.8,7,11.7
	c8.7,5.8,7.4,13,7.4,13l15.7-0.6c-1-6.4,4.9-9.9,6.8-10.7s1-4.3,1-4.3l1.7-11.9c2.1,3.7,4.7,3.8,4.7,3.8L377.6,197.9z"/>
<path class="st4" d="M415.7,417.9c0,0-0.6,2.9-1.5,7c-4.2-0.2-9.8-0.4-12.3,0.2c-4.3,1-21.4,1.4-21.4,1.4l-42.3,1.5v-1.3
	c-4.9,0-9.7,0.4-14.6,1c-7.2,1-18.5-0.4-25.6-1.6c-2.2-0.3-4.4-0.9-6.4-1.7c0.7-5.1,1.8-9.5,1.8-9.5L415.7,417.9z"/>
<path class="st7" d="M412.4,294.6c-0.6,3.6-0.2,9.6,0.6,15.6c1.2,9,3.1,17.8,3.1,17.8s8,50.5,3.5,57.1s0,38.7,0,38.7
	s-13.4-1.2-17.7-0.2s-21.4,1.4-21.4,1.4l-42.3,1.5v-1.3c-4.9,0-9.7,0.4-14.6,1c-7.2,1-18.5-0.4-25.6-1.6c-7.2-1.2-10.1-3.5-9.3-4.7
	c0.8-1.2-0.8-33-0.8-33l-0.2-25.8c0,0-0.2-18.3,4.3-22.3c1.8-1.7,3.3-7.8,4.5-14.5c1.6-9.7,2.5-20.5,2.5-20.5l-29.5-79l-0.6-1.6
	c0,0,8.5-13.2,7.2-19.6s8-12,8-12s17.7-7.8,18.8-10.1c1.2-2.3,13.4-2.9,13.4-2.9s7-3.7,8.2-6.1c0.6-1.4,1.8-2.3,3.3-2.6
	c0.8,4.7,3.3,8.9,7,11.8c8.7,5.8,7.4,13,7.4,13l15.7-0.6c-1-6.4,4.9-9.9,6.8-10.7s1-4.3,1-4.3l1.8-12.6c0.8-2.1,6.7,5.9,6.7,5.9
	s15,5.1,15.9,5.5s13.6,4.3,13.6,4.3s15.5,10.1,15.5,12.6s8.5,16.1,8.5,16.1s-0.1,0.5-0.3,1.5C425.5,223.1,413.8,286.3,412.4,294.6z"
	/>
<path class="st6" d="M350.3,263.1c0,0-33.6-8.9-36.9-11.1s-22.7,10.3,1,27.2c0,0,29,6,36.7,0C358.8,273.2,350.3,263.1,350.3,263.1z"
	/>
<path class="st4" d="M422.9,209.9l4.1,0.2l12,32.2c0,0,7.2,16.9,8.5,19.6c1.4,2.7,0.8,14,0,17.3s-5.8,17.9-6,21.6s-9.3,7.4-18.6,6.8
	s-31.1,2.3-31.1,2.3s-23.2-2.4-37.5,4.9c0,0-9.1-18.8-8.2-54c0,0,16.1-1,20.2,0.6s23.9,6,26.4,3.7s14,4.3,14,4.3
	c1.2-2.6,1.2-5.6,0-8.2c-1.9-4.7-5.2-19.2-1-23.9S422.9,209.9,422.9,209.9z"/>
<path class="st4" d="M413,310.2c-9.6,0.7-20.4,2.1-20.4,2.1s-23.2-2.4-37.5,4.9c0,0-9.1-18.8-8.2-54c0,0,16.1-1,20.2,0.6
	s23.9,6,26.4,3.7s14,4.3,14,4.3c1.2-2.6,1.2-5.6,0-8.2c-1.9-4.7-5.2-19.2-1-23.9s17.1-27.4,17.1-27.4l3.8,0.2
	c-2,10.7-13.6,73.8-15.1,82.2C411.8,298.2,412.2,304.2,413,310.2z"/>
<path class="st7" d="M423.7,210.7l4.1,0.2l12,32.2c0,0,7.2,16.9,8.5,19.6s0.8,14,0,17.3s-5.8,17.9-6,21.6s-9.3,7.4-18.6,6.8
	c-9.3-0.6-31.1,2.3-31.1,2.3s-23.2-2.4-37.5,4.9c0,0-9.1-18.8-8.2-54c0,0,16.1-1,20.2,0.6s23.9,6,26.4,3.7s14,4.3,14,4.3
	c1.2-2.6,1.2-5.6,0-8.2c-1.9-4.7-5.2-19.2-1-23.9S423.7,210.7,423.7,210.7z"/>
<rect x="372.9" y="258.9" transform="matrix(0.5264 -0.8502 0.8502 0.5264 -33.7955 462.8171)" class="st8" width="51.3" height="5.7"/>
<ellipse transform="matrix(0.5264 -0.8502 0.8502 0.5264 3.0744 464.5474)" class="st8" cx="418.5" cy="229.5" rx="16.4" ry="11.5"/>
<ellipse transform="matrix(0.5264 -0.8502 0.8502 0.5264 3.0744 464.5474)" class="st4" cx="418.5" cy="229.5" rx="11.8" ry="8.3"/>
<rect x="363.7" y="289.4" transform="matrix(0.5264 -0.8502 0.8502 0.5264 -68.6997 461.1726)" class="st9" width="31.9" height="5.7"/>
<path class="st6" d="M340.3,306.3l11.8-3.3c0,0,58.5,1.6,38.8-22.5c0,0-10.3-9.9-31.9-1.9s-27.6,8.9-27.6,8.9L340.3,306.3z"/>
<circle class="st4" cx="331.6" cy="202.3" r="2.3"/>
<circle class="st4" cx="371.6" cy="201" r="2.3"/>
<circle class="st10" cx="331.6" cy="201.6" r="2.3"/>
<circle class="st4" cx="334.9" cy="234.6" r="2.3"/>
<circle class="st4" cx="372.8" cy="232.3" r="2.3"/>
<circle class="st10" cx="334.9" cy="233.8" r="2.3"/>
<circle class="st4" cx="371.8" cy="344.7" r="2.3"/>
<circle class="st4" cx="341.1" cy="344.7" r="2.3"/>
<circle class="st10" cx="371.8" cy="343.9" r="2.3"/>
<circle class="st4" cx="343.5" cy="383.8" r="2.3"/>
<circle class="st4" cx="372.8" cy="381.4" r="2.3"/>
<circle class="st10" cx="343.5" cy="383" r="2.3"/>
<circle class="st10" cx="341.1" cy="343.9" r="2.3"/>
<circle class="st10" cx="372.8" cy="380.6" r="2.3"/>
<circle class="st10" cx="371.6" cy="200.2" r="2.3"/>
<circle class="st10" cx="372.8" cy="231.5" r="2.3"/>
<path class="st4" d="M376.3,313.2c0,0,0.4,53.2,1.6,62.7C377.8,376,378.3,315.8,376.3,313.2z"/>
<path class="st4" d="M386.2,337.9c-0.8,0,15.9,62.3,16.7,66.8S390.8,337.9,386.2,337.9z"/>
<path class="st4" d="M399.4,327.8c0,0.6,9.3,33.8,14,35.5C418,365.1,399.4,327.8,399.4,327.8z"/>
<path class="st4" d="M436.1,263.1c0,0-19.8,0.9-20.4,3.7C415.1,269.7,436.1,263.1,436.1,263.1z"/>
<path class="st4" d="M401.1,516.4c0,0-14.2,6-12,6.4S401.1,516.4,401.1,516.4z"/>
<path class="st4" d="M371.8,507.5c-0.6-1.2,9.5,5,9.5,5.8S372.6,509.2,371.8,507.5z"/>
<path class="st4" d="M385,527.9c0,0,11.1-0.6,11.8,3.7S385,527.9,385,527.9z"/>
<path class="st4" d="M305.4,527.8c0,0,12-2.4,13,0S305.4,527.8,305.4,527.8z"/>
<path class="st4" d="M309.9,601.1c0,0,0.8,9.9-2.1,12.2C304.8,615.7,309.9,601.1,309.9,601.1z"/>
<path class="st4" d="M308.4,622.1c3.8,0.4,23.8-3.1,23.6,0S308.4,622.1,308.4,622.1z"/>
<path class="st4" d="M400.2,610c0,0-6.8-1-5.2,3.6L400.2,610z"/>
<path class="st4" d="M273.3,222.4h-3.7L264,243c0,0-1.9,7.2-3.9,8.9c-1.9,1.7,1.7,17.7,1.7,17.7s-2.1,11.3-3.9,14.2
	s2.7,10.1,2.7,10.1l8.9,21l23.7,6.2c0,0,41.8,9.1,43.7,10.5c1.9,1.4,3.7-0.6,5-13.2s5-37.1,8-38.3c0,0-23.3,2.5-25.2,2.1
	s-11.3,0.2-11.3,0.2s-12.2-0.8-14.2,0.4c-1.9,1.2,2.5-5.6,2.5-5.6c0.8-3.1,0.8-6.4,0-9.5C300.5,262.4,299.8,202.9,273.3,222.4z"/>
<path class="st4" d="M349.3,282.4c-2.9,1.2-6.6,25.6-8,38.3s-3.1,14.6-5,13.2c-1.6-1.1-29.4-7.3-39.8-9.6c1.6-9.7,2.5-20.5,2.5-20.5
	l-29.5-79h3.1c26.4-19.4,27.2,40,28.6,45.3c0.8,3.1,0.8,6.4,0,9.5c0,0-4.5,6.8-2.5,5.6c1.9-1.2,14.2-0.4,14.2-0.4s9.3-0.6,11.3-0.2
	C326,284.9,349.3,282.4,349.3,282.4z"/>
<path class="st7" d="M272.6,223.1h-3.7l-5.6,20.6c0,0-1.9,7.2-3.9,8.9c-1.9,1.7,1.7,17.7,1.7,17.7s-2.1,11.3-3.9,14.2
	c-1.7,2.9,2.7,10.1,2.7,10.1l8.9,21l23.7,6.2c0,0,41.8,9.1,43.7,10.5s3.7-0.6,5-13.2s5-37.1,8-38.3c0,0-23.3,2.5-25.2,2.1
	s-11.3,0.2-11.3,0.2s-12.2-0.8-14.2,0.4c-1.9,1.2,2.5-5.6,2.5-5.6c0.8-3.1,0.8-6.4,0-9.5C299.8,263.1,299,203.7,272.6,223.1z"/>
<path class="st4" d="M285.2,293.4c0,0-10.7,20.2-12.6,17.9S285.2,293.4,285.2,293.4z"/>
<path class="st4" d="M274.1,281.9c0,0-9.9,8.2-5.2,10.3C273.5,294.4,274.1,281.9,274.1,281.9z"/>
<path class="st4" d="M283.4,271.9c0.8,0.2,14.4,2.9,14.6,4.1S283.4,271.9,283.4,271.9z"/>
<path class="st4" d="M377.7,129.6c-0.9,0.3-1.4,1.2-1.3,2.1c-0.8,0.7-1.9-0.1-2.5-1c-0.7-0.9-1.4-2-2.4-1.9
	c-0.5,0.1-0.9,0.3-1.4,0.6c-1.6,0.5-2.9-1.3-3.7-2.9c-1.5-2.8-3-5.6-4.5-8.4c-3,1.8-6.6-0.1-9.6-1.9s-6.6-3.7-9.6-1.9
	c-4.5,2.6-4.6,11.2-9.3,13.3c-1.5,0.7-3.2,0.5-4.6,1.5c-1.4,0.9-2.1,2.7-2.7,4.4c-0.2,1-0.8,1.9-1.5,2.5c-0.5,0.3-1,0.4-1.6,0.4
	c-1.4,0.2-2.8,0-4-0.6c-1.4-0.9-1.9-2.5-1.4-4c0-0.1,0.1-0.2,0.1-0.2c0.5-0.6,0.9-1.2,1.3-1.9c0.5-1.2-0.2-2.7-0.1-4
	c0.2-2.3,2.7-3.5,3.1-5.7c0.2-0.9,0-1.8,0.2-2.7c0-0.1,0.1-0.2,0.1-0.3l-1.4,1c1.6-1.9,2.4-4.4,3.6-6.7c2.6-5,7.2-8.7,12.6-10.2
	c5.1-1.5,10.4-1.1,15.5,0.2c4.9,1.2,9.5,3.1,13.8,5.7c1.5,0.8,2.9,1.9,4,3.3c0.9,1.4,1.7,2.9,2.4,4.4c1.5,3.1,5.6,6,2.3,6.4
	c-2.7,0.4-0.2,2.3,1.2,3.6c0.3,0.3,0.6,0.6,0.8,0.9c0.5,1,0.4,2.2-0.2,3.1C376.2,129.1,378.5,129.3,377.7,129.6z"/>
<path class="st11" d="M377.7,128.8c-0.9,0.3-1.4,1.2-1.3,2.1c-0.8,0.7-1.9-0.1-2.5-1c-0.7-0.9-1.4-2-2.4-1.9
	c-0.5,0.1-0.9,0.3-1.4,0.6c-1.6,0.5-2.9-1.3-3.7-2.9c-1.5-2.8-3-5.6-4.5-8.4c-3,1.8-6.6-0.1-9.6-1.9s-6.6-3.7-9.6-1.9
	c-4.5,2.6-4.6,11.2-9.3,13.3c-1.5,0.7-3.2,0.5-4.6,1.5c-1.4,0.9-2.1,2.7-2.7,4.4c-0.2,1-0.8,1.9-1.5,2.5c-0.5,0.3-1,0.4-1.6,0.4
	c-1.4,0.2-2.8,0-4-0.6c-1.4-0.9-1.9-2.5-1.4-4c0-0.1,0.1-0.2,0.1-0.2c0.5-0.6,0.9-1.2,1.3-1.9c0.5-1.2-0.2-2.7-0.1-4
	c0.2-2.3,2.7-3.5,3.1-5.7c0.2-0.9,0-1.8,0.2-2.7c0-0.1,0.1-0.2,0.1-0.3l-1.4,1c1.6-1.9,2.4-4.4,3.6-6.7c2.6-5,7.2-8.7,12.6-10.2
	c5.1-1.5,10.4-1.1,15.5,0.2c4.9,1.2,9.5,3.1,13.8,5.7c1.5,0.8,2.9,1.9,4,3.3c0.9,1.4,1.7,2.9,2.4,4.4c1.5,3.1,5.6,6,2.3,6.4
	c-2.7,0.4-0.2,2.3,1.2,3.6c0.3,0.3,0.6,0.6,0.8,0.9c0.5,1,0.4,2.2-0.2,3.1C376.2,128.3,378.5,128.5,377.7,128.8z"/>
<path class="st4" d="M376.1,123.6l-0.3,3.3c0,0-32.6-41.3-58,5.3c0,0-0.1-0.6-0.3-1.5c0.5-0.6,0.9-1.2,1.3-1.9
	c0.5-1.2-0.2-2.7-0.1-4c0.2-2.3,2.7-3.5,3.1-5.7c0.2-0.9,0-1.8,0.2-2.7c0-0.1,0.1-0.2,0.1-0.3l-1.4,1c1.6-1.9,2.4-4.4,3.6-6.7
	c2.6-5,7.2-8.7,12.6-10.2c5.1-1.5,10.4-1.1,15.5,0.2c4.9,1.2,9.5,3.1,13.8,5.7c1.5,0.8,2.9,1.9,4,3.3c0.9,1.4,1.7,2.9,2.4,4.4
	c1.5,3.1,5.6,6,2.3,6.4C372.2,120.4,374.7,122.3,376.1,123.6z"/>
<g class="st12">
	<path d="M376.9,128.4c-0.3,0.4-0.5,0.9-0.4,1.3c-0.8,0.7-1.9-0.1-2.5-1c-0.7-0.9-1.4-2-2.4-1.9c-0.5,0.1-0.9,0.3-1.4,0.6
		c-1.6,0.5-2.9-1.3-3.7-2.9c-1.5-2.8-3-5.6-4.5-8.4c-3,1.8-6.6-0.1-9.6-1.9s-6.6-3.7-9.6-1.9c-4.5,2.6-4.6,11.2-9.3,13.3
		c-1.5,0.7-3.2,0.5-4.6,1.5c-1.4,0.9-2.1,2.7-2.7,4.4c-0.2,1-0.8,1.9-1.5,2.5c-0.5,0.3-1,0.4-1.6,0.4c-1.4,0.2-2.8,0-4-0.6
		c-0.8-0.5-1.3-1.3-1.5-2.1c-0.3,1.4,0.3,2.9,1.5,3.7c1.3,0.6,2.7,0.8,4,0.6c0.5,0,1.1-0.1,1.6-0.4c0.8-0.7,1.3-1.5,1.5-2.5
		c0.6-1.7,1.4-3.5,2.7-4.4c1.4-0.9,3.1-0.8,4.6-1.5c4.6-2.1,4.8-10.7,9.3-13.3c3-1.8,6.6,0.1,9.6,1.9s6.6,3.7,9.6,1.9
		c1.5,2.8,3,5.6,4.5,8.4c0.9,1.6,2.2,3.4,3.7,2.9c0.4-0.2,0.9-0.4,1.4-0.6c1-0.1,1.7,1,2.4,1.9c0.6,0.9,1.8,1.7,2.5,1
		c-0.1-0.9,0.5-1.8,1.3-2.1C378.5,128.9,377.2,128.8,376.9,128.4z"/>
	<path d="M374.4,120.6c0.2-0.1,0.5-0.2,0.7-0.2c1.4-0.2,1.5-0.9,0.9-1.8c-0.3,0.1-0.6,0.2-0.9,0.3
		C373.6,119.1,373.7,119.8,374.4,120.6z"/>
	<path d="M377.4,127.1c0.1-0.5,0.1-1,0-1.5c-0.1,0.3-0.2,0.6-0.4,0.9C376.7,126.8,377,127,377.4,127.1z"/>
	<path d="M319.1,124.9c0,0.1,0,0.2,0,0.3c0,0.7,0,1.4,0.2,2.1C319.3,126.5,319.2,125.7,319.1,124.9z"/>
	<path d="M322.2,115.4c-0.4,0.7-0.8,1.3-1.3,1.9l1.3-0.9C322.2,116.2,322.2,115.8,322.2,115.4z"/>
</g>
<path class="st7" d="M317.9,131.5c0,0-4.7-21-3.2-24.3c0,0-4-8.3-4-10.3c-0.2-3.3-1.2-6.5-3-9.3c-2.1-3.4-4.5-19,8.3-22.7
	s22.6-7.1,24.1-9.7c1.5-2.6,23.4-1,29.4,8.9s9.8,7.9,9.8,7.9s9.2,5.7,9.2,10.9s-2.8,7.7,0,8.9s0.6,22.5-11.5,23.1l-1.1,11.3
	C375.8,126.1,343.2,84.8,317.9,131.5z"/>
<path class="st4" d="M319.3,68.9c0,0-2.8,16.5,2.3,22L319.3,68.9z"/>
<path class="st4" d="M332.5,65.1c0,0-7.2,17.7-5.4,21.1L332.5,65.1z"/>
<path class="st4" d="M338.7,59.5c0,0-4.9,23-2.5,24.9L338.7,59.5z"/>
<path class="st4" d="M347,65.7c0,0-6,14.8-3.6,16.8L347,65.7z"/>
<path class="st4" d="M358.4,67.5c0,0-7.1,12-5.6,14.2L358.4,67.5z"/>
<path class="st4" d="M373,79.2c0,0-7.6,2-6,4.5L373,79.2z"/>
<path class="st4" d="M380.2,91.7c0,0-6.8,3.3-5.5,5L380.2,91.7z"/>
<path class="st4" d="M314.7,107.1c0,0,43.4-17.6,62.2,7.7C376.9,114.9,354.1,95.4,314.7,107.1z"/>
<polygon class="st9" points="299,252.1 305,245.9 322.1,262.8 316.1,269 300.4,253.4 "/>
<path class="st8" d="M259.3,212.8c0,0,26.5,2.3,51.1,30l-10.3,10.4L259.3,212.8z"/>
<path class="st6" d="M338.7,262.4c0,0-25.5-9.3-28-11.5s-17.2,10.7,0.7,28.2c0,0,21.9,6.3,27.8,0
	C345.2,272.9,338.7,262.4,338.7,262.4z"/>
<rect x="804.6" y="439.7" class="st13" width="5.2" height="116.4"/>
<path class="st14" d="M842.3,555.8L842,561l-0.5,7.4l-0.2,3.1l-0.5,7.4l-0.2,3.1l-0.5,7.4l-5.2,84.2c-0.5,7.5-6.7,13.4-14.2,13.4
	h-27.1c-7.5,0-13.8-5.9-14.2-13.4l-5.2-84.2l-0.5-7.4l-0.2-3.1l-0.5-7.4l-0.2-3.1l-0.5-7.4l-0.3-5.2c-0.3-4.1,2.8-7.6,6.9-7.8
	c0.2,0,0.3,0,0.5,0H835c4.1,0,7.4,3.3,7.4,7.4C842.3,555.5,842.3,555.7,842.3,555.8z"/>
<polygon class="st15" points="842,561.1 841.5,568.5 772.9,568.5 772.5,561.1 "/>
<polygon class="st15" points="841.4,571.6 840.9,579 773.6,579 773.1,571.6 "/>
<polygon class="st15" points="840.7,582 840.2,589.4 774.2,589.4 773.8,582 "/>
<path class="st16" d="M764.6,483.4c30.1,21.8,42.7,55.9,42.7,55.9s-36.3-1.2-66.4-23s-42.7-55.9-42.7-55.9S734.5,461.6,764.6,483.4z
	"/>
<path class="st17" d="M698.2,460.3c0,0,37.7,20.9,49.8,38.2c12.1,17.3,59.3,40.7,59.3,40.7"/>
<path class="st16" d="M784,439.5c16.4,11.9,23.2,30.4,23.2,30.4s-19.8-0.7-36.1-12.5S747.9,427,747.9,427S767.6,427.6,784,439.5z"/>
<path class="st17" d="M747.9,426.9c0,0,20.5,11.4,27.1,20.8s32.3,22.1,32.3,22.1"/>
<path class="st16" d="M831.1,468.9c-18.8,20.7-22.8,47.7-22.8,47.7s26.5-6.5,45.4-27.2s22.8-47.7,22.8-47.7S849.9,448.2,831.1,468.9
	z"/>
<path class="st17" d="M876.4,441.7c0,0-24.5,21.2-30.8,35.8s-37.4,39.1-37.4,39.1"/>
</svg>
