<?xml version="1.0" encoding="utf-8"?>
<!-- Generator: Adobe Illustrator 22.0.1, SVG Export Plug-In . SVG Version: 6.00 Build 0)  -->
<svg version="1.1" id="d73490ac-7a9f-41f3-9c2f-a04fe0e68190"
	 xmlns="http://www.w3.org/2000/svg" xmlns:xlink="http://www.w3.org/1999/xlink" x="0px" y="0px" viewBox="0 0 976.7 840.3"
	 style="enable-background:new 0 0 976.7 840.3;" xml:space="preserve">
<style type="text/css">
	.st0{fill:none;stroke:#535461;stroke-width:2;stroke-miterlimit:10;}
	.st1{fill:#0D8CD8;}
	.st2{fill:#53A8D3;}
	.st3{fill:#FC6681;}
	.st4{opacity:0.1;fill:#8BBFD8;enable-background:new    ;}
	.st5{fill:url(#SVGID_1_);}
	.st6{fill:#555388;}
	.st7{fill:#D3D3D3;}
	.st8{opacity:0.1;enable-background:new    ;}
	.st9{fill:url(#SVGID_2_);}
	.st10{fill:#535461;}
	.st11{fill:#E2E2EC;}
	.st12{opacity:0.1;fill:none;stroke:#000000;stroke-width:2;stroke-miterlimit:10;enable-background:new    ;}
	.st13{fill:none;stroke:#E2E2EC;stroke-width:2;stroke-miterlimit:10;}
	.st14{fill:#C87486;}
	.st15{fill:none;}
	.st16{fill:#B6B6B7;}
	.st17{fill:#DFE5EE;}
	.st18{fill:#3D3D3D;}
</style>
<title>gaming</title>
<path class="st0" d="M162.8,660c0,0-66.7-110.5-48-209.7c7.9-41.6,2.8-84.7-15.9-122.7c-8.9-18-19.4-35.2-31.4-51.3"/>
<path class="st1" d="M78.9,213.8c3.9,14.7-11.6,64.2-11.6,64.2s-37.8-35.6-41.6-50.3c-3.9-14.7,4.9-29.7,19.6-33.6
	S75.1,199,78.9,213.8L78.9,213.8L78.9,213.8z"/>
<path class="st1" d="M144.2,283.5c-4.7,14.4-44.6,47.6-44.6,47.6s-12.4-50.4-7.6-64.8c4.5-14.5,20-22.5,34.4-18
	c14.5,4.5,22.5,20,18,34.4C144.4,283,144.3,283.3,144.2,283.5L144.2,283.5z"/>
<path class="st1" d="M178.8,423c-11.4,10-62.6,18.6-62.6,18.6s14.8-49.7,26.1-59.8c11.5-9.9,28.9-8.6,38.8,2.9
	C190.8,396,189.8,413,178.8,423L178.8,423z"/>
<path class="st1" d="M181.2,534.4c-9.5,11.8-58.5,28.9-58.5,28.9s6.2-51.5,15.7-63.3c9.6-11.8,26.9-13.6,38.7-4
	C188.7,505.5,190.5,522.6,181.2,534.4z"/>
<path class="st1" d="M44.6,348.7c13.2,7.5,65,5.2,65,5.2s-24.8-45.6-38-53c-13-7.8-29.9-3.6-37.7,9.5c-7.8,13-3.6,29.9,9.5,37.7
	C43.7,348.2,44.1,348.5,44.6,348.7L44.6,348.7z"/>
<path class="st1" d="M49,478.9c14.8,3.2,63.6-14.5,63.6-14.5s-37.3-36.1-52.1-39.2c-14.8-3.2-29.4,6.3-32.6,21.1
	S34.2,475.7,49,478.9L49,478.9z"/>
<path class="st1" d="M70.7,604.9c14.1,5.6,65.2-3.6,65.2-3.6s-30.7-41.8-44.8-47.5c-14.3-5.1-30,2.3-35.1,16.6
	C51.1,584,57.5,599,70.7,604.9L70.7,604.9z"/>
<path class="st2" d="M78.9,213.8c3.9,14.7-11.6,64.2-11.6,64.2s-37.8-35.6-41.6-50.3c-3.9-14.7,4.9-29.7,19.6-33.6
	S75.1,199,78.9,213.8L78.9,213.8L78.9,213.8z"/>
<path class="st2" d="M144.2,283.5c-4.7,14.4-44.6,47.6-44.6,47.6s-12.4-50.4-7.6-64.8c4.5-14.5,20-22.5,34.4-18
	c14.5,4.5,22.5,20,18,34.4C144.4,283,144.3,283.3,144.2,283.5L144.2,283.5z"/>
<path class="st3" d="M178.8,423c-11.4,10-62.6,18.6-62.6,18.6s14.8-49.7,26.1-59.8c11.5-9.9,28.9-8.6,38.8,2.9
	C190.8,396,189.8,413,178.8,423L178.8,423z"/>
<path class="st3" d="M181.2,534.4c-9.5,11.8-58.5,28.9-58.5,28.9s6.2-51.5,15.7-63.3c9.6-11.8,26.9-13.6,38.7-4
	C188.7,505.5,190.5,522.6,181.2,534.4z"/>
<path class="st2" d="M44.6,348.7c13.2,7.5,65,5.2,65,5.2s-24.8-45.6-38-53c-13-7.8-29.9-3.6-37.7,9.5c-7.8,13-3.6,29.9,9.5,37.7
	C43.7,348.2,44.1,348.5,44.6,348.7L44.6,348.7z"/>
<path class="st2" d="M49,478.9c14.8,3.2,63.6-14.5,63.6-14.5s-37.3-36.1-52.1-39.2c-14.8-3.2-29.4,6.3-32.6,21.1
	S34.2,475.7,49,478.9L49,478.9z"/>
<path class="st2" d="M70.7,604.9c14.1,5.6,65.2-3.6,65.2-3.6s-30.7-41.8-44.8-47.5c-14.3-5.1-30,2.3-35.1,16.6
	C51.1,584,57.5,599,70.7,604.9L70.7,604.9z"/>
<ellipse class="st4" cx="496.2" cy="672.6" rx="480.5" ry="33"/>
<linearGradient id="SVGID_1_" gradientUnits="userSpaceOnUse" x1="915.8236" y1="267.3769" x2="915.8236" y2="-187.6501" gradientTransform="matrix(1 0 0 1 -111.66 410.15)">
	<stop  offset="0" style="stop-color:#808080;stop-opacity:0.25"/>
	<stop  offset="0.54" style="stop-color:#808080;stop-opacity:0.12"/>
	<stop  offset="1" style="stop-color:#808080;stop-opacity:0.1"/>
</linearGradient>
<path class="st5" d="M909.7,644.3c0,0-0.8-1.1-1.9-2.3l0.3-0.1c0,0-14.3-35.7-11.1-50.8s-12.7-51.5-12.7-51.5s-23.4-47.9-12.3-86.2
	c1.3-4.5,2.2-9.1,2.9-13.7c3.3-22.7,2.1-27.3-3.4-35.6l-0.6-0.9c0.7-0.7,1.2-1.5,1.6-2.4c4.8-12.7-22.2-35.7-15-57.1
	c6.6-19.9-10.6-60.8-13.2-66.7l0,0l-0.3-0.7l-0.9,0.3c0.1-5.1,2.2-10,5.7-13.7l0.2-0.2c2.4-2.2,5.3-3.8,7.5-6.1l0.1-0.1
	c0.2-0.2,0.5-0.4,0.7-0.6c2.2-2.3,3.7-5.8,2.5-8.7c-1.1-2.7-4.2-4.4-4.9-7.2c-0.2-1.3-0.3-2.6-0.3-3.9c-0.6-4-4.5-6.5-8-8.5
	c-4.4-2.5-9-5-14.1-5.1c-6.9,0-13,4.6-19.8,5.2c-2.3,0.2-4.7-0.1-6.9,0.7c-1.7,0.7-3.2,1.7-4.6,2.9c-0.8,0.6-1.5,1.3-2.2,2
	c-1.5,1.4-2.8,3.1-2.8,5.2c0.1,1.5,0.8,2.9,1.9,3.9c-8.3,11.3-5.9,27.2,5.4,35.5c1.2,0.9,2.5,1.6,3.8,2.3c0.1,0.5,0.2,1.1,0.2,1.7
	c1,7.5,1.6,18.1-1.1,26.5c-11.4,5.9-29.1,15.4-32.3,19.7c-0.5,0.7-0.7,1.6-0.4,2.5c-0.1,0.4-0.1,0.8-0.1,1.2c-2.5,0.6-5.8,0-9.8-3.7
	c-9.5-8.7-39.7-34.9-39.7-34.9s-13.5-33.3-23-27s11.1,37.3,11.1,37.3l45.1,48.4c0,0,1.6,10.3,18.2,4.8c5.5-1.8,10.5-3.6,14.7-5.1
	l1,0.9c-3.8,21.9-5.7,51.2,8.1,59.8c1.1,1.4,1.9,3.1,2.3,4.8c-0.1,0.3-0.1,0.5-0.2,0.8c-1.1,4.4-1.7,8.8-2,13.3
	c-2.6,6-3.8,12.4-3.5,18.9l-5.3,75.5c0,0-0.8,16.7,4.8,29.3c5.6,12.7,23,76.1,11.1,80.9l1.1,0.2c-3.4,3.5-9.2,8.8-13.5,9.9
	c-6.6,1.6-4.8,11.8,9.9,13.5s16.5,1.6,26.8-7.1c9.1-7.6,10.6-11,10.8-11.7l0.5,0.1c0,0-5.5-20.6,0-29.3c5.6-8.7-12.7-61.9-12.7-61.9
	c-0.2-6.8,0.1-13.6,0.8-20.3c2.8,7.3,4.8,12.4,4.8,12.4s4.8,23,10.3,27s34.9,58.7,30.1,82.5l-0.6,2.8l1.3-0.4h0.1
	c-1.8,4.5-5.2,11.7-8.8,14.3c-5.5,4,0,12.7,14.3,8.7s15.9-4.8,22.2-16.7C910.5,647.6,909.7,644.3,909.7,644.3z"/>
<path class="st6" d="M804.6,432.5l-3.5-4.3c-3.6,6.6-5.3,14.1-4.9,21.6l-5.2,73.8c0,0-0.8,16.3,4.7,28.7s22.5,74.4,10.9,79.1
	l34.8,4.7c0,0-5.4-20.2,0-28.7S829,546.9,829,546.9s-1.6-43.4,13.2-53.5S804.6,432.5,804.6,432.5z"/>
<path class="st7" d="M810.4,628.5c0,0-9.6,11.2-16.1,12.7s-4.7,11.5,9.7,13.2s16.1,1.5,26.2-6.9s10.6-11.6,10.6-11.6s-2-7.5-4.4-7.7
	C834.1,628.1,810.4,628.5,810.4,628.5z"/>
<path class="st8" d="M806.9,434.9l-5.8-6.6c-3.6,6.6-5.3,14.1-4.9,21.6l-5.2,73.8c0,0-0.8,16.3,4.7,28.7s22.5,74.4,10.9,79.1
	l34.8,4.7c0,0-5.4-20.2,0-28.7S829,547,829,547s-1.6-43.4,13.2-53.5S806.9,434.9,806.9,434.9z"/>
<linearGradient id="SVGID_2_" gradientUnits="userSpaceOnUse" x1="582.9328" y1="266.7531" x2="582.9328" y2="-218.7723" gradientTransform="matrix(1 0 0 1 -111.66 410.15)">
	<stop  offset="0" style="stop-color:#808080;stop-opacity:0.25"/>
	<stop  offset="0.54" style="stop-color:#808080;stop-opacity:0.12"/>
	<stop  offset="1" style="stop-color:#808080;stop-opacity:0.1"/>
</linearGradient>
<path class="st9" d="M841.4,536.1c0,0-9.7-190.2-49.5-257.5c0,0-29.2-53.3-53.5-68.8v-6.1c-39.8-27.5-88.7,0-88.7,0v2.7l-10.2,8.5
	l-45.9-0.2c-4.2-5.1-10.5-8-17.1-8H366.9c-6.2,0-12.1,2.6-16.3,7.1h-47.7c0,0-2.8-3.3-10.2-6.6v-3.6c-39.8-27.5-88.7,0-88.7,0v7.4
	c-1.2,0.8-2.2,1.7-3.1,2.8c0,0-40.3,27-49.5,60.7c0,0-49.5,148.4-50.5,264.7s43.9,132.6,67.3,135.7s65.3-1,106.1-104l17.3-60.2
	c0,0,3.1-35.7,39.8-13.3s69.3-12.2,69.3-12.2h137.7c0,0,45.8,28.5,87.7,6c0,0,16.3-21.4,31.6,51c0,0,46.9,148.9,119.3,133.6
	S841.4,536.1,841.4,536.1z"/>
<path class="st10" d="M209.2,219.1v-11c0,0,48-27,87,0v10L209.2,219.1z"/>
<path class="st10" d="M646.2,219.1v-11c0,0,48-27,87,0v10L646.2,219.1z"/>
<path class="st8" d="M209.2,219.1v-11c0,0,48-27,87,0v10L209.2,219.1z"/>
<path class="st8" d="M646.2,219.1v-11c0,0,48-27,87,0v10L646.2,219.1z"/>
<path class="st10" d="M353.2,218.1h-47c0,0-12-14-52-13s-48,13-48,13s-39.5,26.5-48.5,59.5c0,0-48.5,145.5-49.5,259.5s43,130,66,133
	s64-1,104-102l17-59c0,0,3-35,39-13s68-12,68-12h135c0,0,45,28,86,6c0,0,16-21,31,50c0,0,46,146,117,131s63-137,63-137
	s-9.5-186.5-48.5-252.5c0,0-37.5-68.5-62.5-71.5c0,0-54-10-75-1l-12,10L353.2,218.1z"/>
<circle class="st11" cx="244.2" cy="316.1" r="87"/>
<circle class="st11" cx="698.2" cy="316.1" r="87"/>
<path class="st10" d="M259.3,296.7L247.7,307c-2,1.8-5.1,1.8-7.1,0L229,296.7c-1.1-1-1.8-2.5-1.8-4v-28.2c0-3,2.4-5.4,5.4-5.4h23.2
	c3,0,5.4,2.4,5.4,5.4l0,0v28.2C261.2,294.2,260.5,295.7,259.3,296.7z"/>
<path class="st10" d="M259.3,335.5l-11.6-10.2c-2-1.8-5.1-1.8-7.1,0L229,335.5c-1.1,1-1.8,2.5-1.8,4v28.2c0,3,2.4,5.4,5.4,5.4l0,0
	h23.2c3,0,5.4-2.4,5.4-5.4l0,0v-28.2C261.2,337.9,260.5,336.5,259.3,335.5z"/>
<path class="st10" d="M224.8,331.3l10.3-11.6c1.8-2,1.8-5.1,0-7.1L224.8,301c-1-1.1-2.5-1.8-4-1.8h-28.2c-3,0-5.4,2.4-5.4,5.4v23.2
	c0,3,2.4,5.4,5.4,5.4l0,0h28.2C222.3,333.1,223.8,332.4,224.8,331.3z"/>
<path class="st10" d="M263.6,331.3l-10.2-11.6c-1.8-2-1.8-5.1,0-7.1l10.3-11.6c1-1.1,2.5-1.8,4-1.8h28.2c3,0,5.4,2.4,5.4,5.4l0,0
	v23.2c0,3-2.4,5.4-5.4,5.4l0,0h-28.2C266.1,333.1,264.6,332.4,263.6,331.3z"/>
<polygon class="st0" points="229.2,252.1 259.2,252.1 244.2,239.1 "/>
<polygon class="st0" points="229.2,380.1 259.2,380.1 244.2,393.1 "/>
<polygon class="st0" points="180.2,301.1 180.2,331.1 167.2,316.1 "/>
<polygon class="st0" points="308.2,301.1 308.2,331.1 321.2,316.1 "/>
<circle class="st11" cx="362.2" cy="411.1" r="63"/>
<circle class="st10" cx="360.2" cy="401.1" r="42"/>
<circle class="st11" cx="580.2" cy="411.1" r="63"/>
<circle class="st10" cx="578.2" cy="401.1" r="42"/>
<circle class="st12" cx="360.2" cy="401.1" r="28"/>
<circle class="st12" cx="578.2" cy="401.1" r="28"/>
<circle class="st11" cx="473.2" cy="418.1" r="18"/>
<circle class="st11" cx="445.7" cy="358" r="3.9"/>
<circle class="st11" cx="460.4" cy="358" r="3.9"/>
<circle class="st11" cx="458.4" cy="376.6" r="3.9"/>
<circle class="st11" cx="472.2" cy="377.1" r="4"/>
<circle class="st11" cx="485.9" cy="376.6" r="3.9"/>
<circle class="st11" cx="452.5" cy="367.8" r="3.9"/>
<circle class="st11" cx="465.2" cy="368.1" r="4"/>
<circle class="st11" cx="478.2" cy="368.1" r="4"/>
<circle class="st11" cx="491.8" cy="367.8" r="3.9"/>
<circle class="st11" cx="472.2" cy="358.1" r="4"/>
<circle class="st11" cx="486.2" cy="358.1" r="4"/>
<circle class="st11" cx="497.7" cy="358" r="3.9"/>
<path class="st11" d="M323.7,225.1h5c4.7,0,8.5,3.8,8.5,8.5v21c0,4.7-3.8,8.5-8.5,8.5h-5c-4.7,0-8.5-3.8-8.5-8.5v-21
	C315.2,228.9,319,225.1,323.7,225.1z"/>
<path class="st11" d="M615.7,225.1h5c4.7,0,8.5,3.8,8.5,8.5v21c0,4.7-3.8,8.5-8.5,8.5h-5c-4.7,0-8.5-3.8-8.5-8.5v-21
	C607.2,228.9,611,225.1,615.7,225.1z"/>
<circle class="st10" cx="699.2" cy="263.1" r="24"/>
<circle class="st10" cx="648.2" cy="314.1" r="24"/>
<circle class="st10" cx="752.2" cy="311.1" r="24"/>
<circle class="st10" cx="703.2" cy="364.1" r="24"/>
<path class="st11" d="M368.9,211.1h205.5c12,0,21.8,9.7,21.8,21.8v89.5c0,12-9.7,21.8-21.8,21.8H368.9c-12,0-21.8-9.7-21.8-21.8
	v-89.5C347.2,220.8,356.9,211.1,368.9,211.1z"/>
<polygon class="st13" points="684.7,273.1 698.7,249.1 713.7,273.1 "/>
<rect x="635.7" y="303.1" class="st13" width="25" height="22"/>
<circle class="st13" cx="752.2" cy="311.1" r="14"/>
<line class="st13" x1="691.7" y1="352.8" x2="714.2" y2="375.3"/>
<line class="st13" x1="714.7" y1="352.8" x2="691.7" y2="374.8"/>
<path class="st2" d="M344,664.6c3-2.3,5.9-5,6.7-8.3c0.9-3.6-1.1-7.3-4.7-8.4c-4.3-1.3-8.9,1.1-12.4,3.5s-7.5,5.3-12.1,4.8
	c4.7-3.4,7-9,5.7-14c-0.2-1.1-0.8-2.1-1.6-2.8c-2.4-2.1-6.7-1.2-9.6,0.5c-9.1,5.2-11.6,15.3-11.7,24.4c-0.9-3.3-0.1-6.7-0.2-10.1
	s-1.1-7.1-4.6-8.9c-2.2-1-4.6-1.4-7.1-1.3c-4.1-0.1-8.7,0.2-11.5,2.7c-3.5,3-2.6,8.1,0.5,11.5s7.6,5.4,11.9,7.8
	c3.2,1.8,6.5,3.8,8.5,6.6c0.3,0.4,0.5,0.8,0.6,1.2h25.7C333.8,671.3,339.1,668.3,344,664.6z"/>
<path class="st7" d="M876.3,644.6c0,0-4.7,14-10.1,17.8c-5.4,3.8,0,12.4,14,8.5s15.5-4.7,21.7-16.3s5.4-14.7,5.4-14.7
	s-4.7-6.2-7-5.4S876.3,644.6,876.3,644.6z"/>
<path class="st14" d="M847.6,296.5c0,0-62.8,34.9-48.1,24.8c9.9-6.8,9.3-24.7,7.8-35.8c-0.5-3.5-1-6.2-1.3-7.8
	c-0.2-0.9-0.3-1.4-0.3-1.4s30.5-18.3,28.8-7.3l0,0c0,0.1,0,0.2,0,0.3c-0.1,0.7-0.2,1.5-0.2,2.2C834,282.8,847.6,296.5,847.6,296.5z"
	/>
<path class="st14" d="M779.3,330.6c0,0-5.4,8.5-14.7,0s-38.8-34.1-38.8-34.1s-13.2-32.6-22.5-26.4s10.9,36.5,10.9,36.5l44.2,47.3
	c0,0,1.5,10.1,17.8,4.6s27.9-10.1,27.9-10.1L779.3,330.6z"/>
<path class="st15" d="M804.2,409.7"/>
<path class="st16" d="M905.8,637.7l-31,10.9l-1.3,0.4l0.5-2.7c4.7-23.3-24-76.8-29.5-80.7s-10.1-26.4-10.1-26.4s-10.2-51.2-11.7-62
	c-0.4-2.7-1.8-4.9-3.5-7.9c-2.6-4.5-4.6-9.3-6-14.4c-3.4-12-11.4-33.3-8.4-45.4c0.6-2.5-1.8,3.8-1,1.4l0.5-1.3l62.8-8.5
	c1,1.3,2,2.6,2.9,4c4.8,7,4.4,7,5.4,20.4c-0.4,8.1-1.6,16.1-3.4,24c-8.5,37.6,10.6,88,10.6,88s15.5,35.7,12.4,50.4
	C891.8,602.7,905.8,637.7,905.8,637.7z"/>
<path class="st8" d="M869.9,405.1c-9.3,11.6-68.8,20.7-68.1,17c0.2-1.3,0.1-2.6-0.3-3.8c0.6-2.5,1.3-4.9,2.1-7.3l0.5-1.3l62.8-8.5
	C868,402.4,869,403.7,869.9,405.1z"/>
<path class="st17" d="M842.9,280.1c0,0-25.6,7.8-32.6,25.6s5.3,18.8,5.3,18.8s-22,58-16.2,88.2c0,0,3.1,3.9,2.3,7.8
	s64.4-6.2,69-18.6S849,367,856,346.1C863.1,325.1,842.9,280.1,842.9,280.1z"/>
<path class="st8" d="M834.4,270.9c0,0.2-0.1,0.5-0.2,0.7c-1.1,2-4.4-0.2-3.3,2.8c-4.5,4.5-5.9,13.6-12.8,13.6
	c-3.7,0-7.4-0.8-10.8-2.5c-0.5-3.5-1-6.2-1.3-7.8c3-1.8,27-15.7,28.4-8.7l0,0C834.6,269.6,834.5,270.3,834.4,270.9z"/>
<circle class="st14" cx="818.1" cy="261.6" r="24.8"/>
<path class="st8" d="M842.9,340.7l-43.4,20.2c0,0-29.5-22.5-24.8-28.7s41.1-24,41.1-24S853,315.9,842.9,340.7z"/>
<path class="st17" d="M842.9,339.1l-43.4,20.2c0,0-29.5-22.5-24.8-28.7s41.1-24,41.1-24S853,314.3,842.9,339.1z"/>
<path class="st8" d="M811,250.9c-3.8-0.4-7.7-0.8-11-2.7c-1.9-1.1-3.7-2.9-3.7-5.1c-0.1-2.6,2.1-4.6,4.1-6.3
	c1.3-1.2,2.8-2.2,4.5-2.9c2.2-0.8,4.5-0.5,6.8-0.7c6.7-0.6,12.7-5.1,19.4-5.1c4.9,0,9.5,2.5,13.8,5c3.4,1.9,7.2,4.4,7.8,8.3
	c0,1.3,0.1,2.5,0.3,3.8c0.7,2.8,3.7,4.4,4.8,7.1c1.2,2.9-0.3,6.3-2.5,8.5c-2.2,2.3-5,3.8-7.3,6c-4.3,4-6.6,9.5-6.5,15.3
	c0.1,0.4,0,0.8-0.2,1.1c-0.3,0.4-0.9,0.7-1.4,0.7c-2.5,0.5-5.5,0.7-7-1.3s-0.3-5.4-2-7.5c-2.2-2.6-6.7-0.5-9.6-2.2
	c-1-0.6-1.7-1.6-2.2-2.6c-2.4-5.2,0.3-9.2,1.3-14.2C821.5,250.4,815,251.4,811,250.9z"/>
<path class="st18" d="M811.7,250.1c-3.8-0.4-7.7-0.8-11-2.7c-1.9-1.1-3.7-2.9-3.7-5.1c-0.1-2.6,2.1-4.6,4.1-6.3
	c1.3-1.2,2.8-2.2,4.5-2.9c2.2-0.8,4.5-0.5,6.8-0.7c6.7-0.6,12.7-5.1,19.4-5.1c4.9,0,9.5,2.5,13.8,5c3.4,1.9,7.2,4.4,7.8,8.3
	c0,1.3,0.1,2.5,0.3,3.8c0.7,2.8,3.7,4.4,4.8,7.1c1.2,2.9-0.3,6.3-2.5,8.5c-2.2,2.3-5,3.8-7.3,6c-4.3,4-6.7,9.6-6.5,15.4
	c0.1,0.4,0,0.8-0.2,1.1c-0.3,0.4-0.9,0.7-1.4,0.7c-2.5,0.5-5.5,0.7-7-1.3s-0.3-5.4-2-7.5c-2.2-2.6-6.7-0.5-9.6-2.2
	c-1-0.6-1.7-1.6-2.2-2.6c-2.4-5.2,0.3-9.3,1.3-14.3C822.3,249.6,815.8,250.6,811.7,250.1z"/>
</svg>
