<?xml version="1.0" encoding="utf-8"?>
<!-- Generator: Adobe Illustrator 22.0.1, SVG Export Plug-In . SVG Version: 6.00 Build 0)  -->
<svg version="1.1" id="a80b827c-b8c0-47ab-84ce-d2a47a152c7c"
	 xmlns="http://www.w3.org/2000/svg" xmlns:xlink="http://www.w3.org/1999/xlink" x="0px" y="0px" viewBox="0 0 860 653"
	 style="enable-background:new 0 0 860 653;" xml:space="preserve">
<style type="text/css">
	.st0{fill:#B5D5E5;}
	.st1{fill:#E6E6E6;}
	.st2{fill:#0D8CD8;}
	.st3{fill:#FFB8B8;}
	.st4{opacity:0.1;enable-background:new    ;}
	.st5{fill:#B6B6B7;}
	.st6{fill:#FFFFFF;}
	.st7{fill:#2F2E41;}
	.st8{fill:#D0CDE1;}
	.st9{fill:#E5E5E5;}
	.st10{fill:#9F9EAF;}
	.st11{fill:#A8D8EF;}
	.st12{fill:#8F8F9B;}
	.st13{fill:#3F3D56;}
	.st14{fill:#89C6E5;}
	.st15{fill:#7F7F87;}
	.st16{fill:#7D7C9B;}
	.st17{fill:#F2F2F2;}
	.st18{fill:#BDD8E5;}
</style>
<title>steps</title>
<path class="st0" d="M218.5,65.7C225,74.3,232,84.2,238.9,95l1-49.7l0.5,0.3c-7.4-5.4-15.4-9.7-24-12.8l0.5,0.3L218.5,65.7z"/>
<path class="st0" d="M215.8,32.7c-8.9-3-17.5-4-25.4-2.6c-0.4,0.1-0.8,0.2-1.2,0.2c2,2.1,13.7,14.8,28.1,33.9L215.8,32.7z"/>
<path class="st0" d="M267.8,149.3c1.1,2.5,2.1,5.1,3,7.6l18.2-53.8l0.5,0.5c-2.2-4-4.4-8-6.8-11.8L268,149.5L267.8,149.3z"/>
<path class="st0" d="M257.1,126.6l9.5-56.4l0.5,0.4c-7.8-9.2-16.6-17.4-26.3-24.6l-1,50.6C246.3,106.8,252.1,116.8,257.1,126.6z"/>
<path class="st0" d="M160.4,86.7l-0.2-0.7c0.8,8.5,2.5,17,5,25.2l87.6,9c-4.6-8.4-9.3-16.3-13.9-23.5L160.4,86.7z"/>
<path class="st0" d="M165.6,112.6l-0.2-0.7c0.9,2.9,1.9,5.8,3,8.8l-0.2-0.7l88.6,7.9c-1.1-2.1-2.2-4.2-3.2-6.2L165.6,112.6z"/>
<path class="st0" d="M267.2,147.9l14.6-57.3l0.5,0.5c-4.4-6.9-9.2-13.5-14.5-19.8l-9.7,57.2C261.4,135,264.4,141.5,267.2,147.9z"/>
<path class="st0" d="M270.9,159.7l-86.2-8.3c4.7,6.3,9.8,12.3,15.3,17.9l-0.2-0.8l78.8,16.2C276.5,176.3,273.9,168,270.9,159.7z"/>
<path class="st0" d="M188.5,30.8l0.2-0.4c-11.9,2.7-20.2,10.8-24.8,22.4l52.7,11.9C201,44.1,188.7,31,188.5,30.8z"/>
<path class="st0" d="M272.4,161.1c2.7,7.4,5,15,6.9,22.6l20.5-51.5l0.5,0.5c-1.3-7.2-3.5-14.1-6.6-20.8c-1.2-2.6-2.5-5.1-3.8-7.7
	l-18.4,54.4C271.8,159.6,272.1,160.4,272.4,161.1z"/>
<path class="st0" d="M238,95.2c-6.8-10.6-13.7-20.4-20.1-28.9l-54-12.2l-0.2-0.7c-3.4,8.9-4.6,19.8-3.6,31.9L238,95.2z"/>
<path class="st0" d="M183.6,150l86.7,8.4v-0.1c-3.8-9.9-8.1-19.6-12.9-29.1l-88.8-7.9c1.5,4,3.2,8,5.1,12.1
	C176.5,139.3,179.8,144.8,183.6,150z"/>
<path class="st0" d="M393.2,166.8l0.2,0.6c-2.2-8.8-5.7-17.3-10.3-25.2l0.2,0.6l-19.6,26.1c-0.5,10.8-1.4,22.8-3,35.5L393.2,166.8z"
	/>
<path class="st0" d="M382.8,141.8c-4.9-8-10.9-14.3-17.9-18.2c-0.4-0.2-0.7-0.4-1.1-0.6c0.2,2.9,1.1,20.1,0,44L382.8,141.8z"/>
<path class="st1" d="M348.4,264.7c-0.8,2.6-1.6,5.2-2.5,7.7l48.3-29.8l0.1,0.7c0.9-4.5,1.7-9,2.3-13.5l-48.2,35.1L348.4,264.7z"/>
<path class="st0" d="M354.7,240.5l43.3-37.4l0.1,0.7c-0.1-12-1.6-24-4.6-35.7l-33.1,38.3C359,218.3,357,229.7,354.7,240.5z"/>
<path class="st1" d="M398.1,204.6l-43.9,37.9c-1.6,7.2-3.4,14.1-5.4,20.8l47.8-34.8l0.1,0.7C397.7,221,398.2,212.8,398.1,204.6z"/>
<path class="st0" d="M313.4,332.5c0-0.6,0.1-1.2,0.1-1.8c7.8-9.3,14.5-19.5,19.9-30.5l-26.5-33c-0.3-1.1-0.7-2.3-1.1-3.4L334,299
	c3.8-7.9,7.2-15.9,10.1-24.2l-55.8-56.1c0.2-0.4,0.4-0.9,0.5-1.4l55.7,56l0,0c3.4-10,6.3-20.3,8.6-30.6l-55.3-54.8
	c0.1-0.5,0.2-1,0.3-1.5l55.4,54.8c0.5-2.3,1-4.6,1.5-6.8l-55.2-56.2c0.1-0.5,0.2-1.1,0.3-1.6l55.2,56.2c1.9-9.4,3.3-18.5,4.3-27
	l-54-57.8l0.3-0.7c-1.3,1.9-2.5,3.8-3.7,5.9c0-6.4-0.5-12.8-1.6-19.1l-20.7,52c1.7,7.2,2.9,14.4,3.6,21.8c-0.1,1.2-0.2,2.5-0.3,3.7
	l0.7,0.7c0,0.7,0.1,1.3,0.1,2l-0.9-0.9c0,0.7-0.1,1.5-0.1,2.2c-0.4-9.9-1.8-19.7-4-29.4l-78.2-16.1c3.9,4,8.1,8,12.3,11.8
	c-8.2-2.6-16.7-4-25.3-4.3l0.6,0.1l11.6,30.5c8.8,6.2,18.5,13.4,28.4,21.6l-14.4-47c0.5,0.5,1.1,0.9,1.6,1.4l14.2,46.8
	c9.2,7.6,17.8,15.4,25.6,23.1l-6.5-44c0.5,0.3,0.9,0.6,1.4,0.9l6.6,44.5c5.2,5.2,10.1,10.4,14.6,15.7l-3.2-48.3
	c0.4,0.3,0.9,0.6,1.3,0.8l3.2,48.8l-0.3-0.1c1.8,2.1,3.5,4.2,5.2,6.2l0.6-49.6c0.5,0.3,0.9,0.5,1.3,0.8l-0.6,50.5
	c0.5,0.6,1,1.3,1.5,1.9c4.9,6.2,9.4,12.7,13.6,19.4l0.3-4.5c0.4,1.3,0.7,2.7,1.1,3.9l-0.2,2.6c0.6,1,1.2,2,1.8,3
	c0.5,1.5,0.9,3,1.3,4.5c-1.3-2.4-2.6-4.7-4-7.1l-79.4,8.9c41.7,22,93.5,32.4,96.8,33c-0.8-3.5-1.7-6.9-2.8-10.3
	c0.3-0.3,0.6-0.6,0.8-0.9c0.1,0.4,0.3,0.8,0.4,1.2c-0.1,0.2-0.3,0.3-0.4,0.5c0.2-0.1,0.3-0.2,0.5-0.2c0.8,2.4,1.4,4.8,2.1,7.1
	c0.2-1.9,0.6-4.9,0.8-8.6c14.3-7.2,51.3-28.1,70.1-60.9l-49.1,26.8C328.7,312.1,321.7,322.8,313.4,332.5z M297.1,255l0.1-1.9
	l1.2,1.6l-0.1,1.9L297.1,255z"/>
<path class="st0" d="M362.9,123l0.4-0.2c-10.8-5.5-22.4-4.6-33.4,1.4l33,42.8C364.1,141.1,362.9,123.2,362.9,123z"/>
<path class="st1" d="M344.4,276.8c-2.6,7.4-5.7,14.7-9.1,21.8L384,272l0.1,0.7c3.6-6.3,6.3-13.1,8.2-20.2c0.7-2.8,1.4-5.5,2-8.3
	l-48.9,30.2C345,275.2,344.7,276,344.4,276.8z"/>
<path class="st0" d="M362.9,168.9l-33.8-43.8l0.3-0.6c-8.3,4.7-16.2,12.3-23.1,22.3l53.7,57.3C361.5,191.5,362.4,179.6,362.9,168.9z
	"/>
<path class="st0" d="M187,177.5c-9.4-0.1-17.9,1.6-24.9,5.3c-0.4,0.2-0.7,0.4-1.1,0.6c2.6,1.4,17.6,9.9,37.2,23.6L187,177.5z"/>
<path class="st1" d="M228.7,231.3L151,246.1l-0.4-0.6c3.4,7.9,7.6,15.4,12.6,22.4l86.1-18.5C242.2,242.8,235.3,236.7,228.7,231.3z"
	/>
<path class="st1" d="M255.4,255.4c-1.7-1.7-3.3-3.3-5-4.9L164,269l-0.4-0.6c1.7,2.5,3.6,4.9,5.5,7.4l-0.4-0.6L255.4,255.4z"/>
<path class="st1" d="M293.7,302.9c-4.6-7.5-9.6-14.6-15-21.5l-84.6,18.8c6.4,4.6,13.1,8.7,20.1,12.3l-0.4-0.7L293.7,302.9z"/>
<path class="st0" d="M160.5,184.2l0.1-0.5c-10.4,6.2-15.9,16.5-16.7,29l53.9-5C176.5,193,160.7,184.3,160.5,184.2z"/>
<path class="st1" d="M199.3,208.9l-55.1,5.1l-0.4-0.6c-0.5,9.5,1.7,20.2,6.5,31.5l77.1-14.7C217.6,222.2,208,215,199.3,208.9z"/>
<path class="st1" d="M277.7,280.2c-6.6-8.3-13.7-16.2-21.2-23.7l-86.9,19.9c2.7,3.3,5.5,6.6,8.6,9.9c4.4,4.7,9.3,8.9,14.5,12.7
	L277.7,280.2L277.7,280.2z"/>
<path class="st0" d="M218.5,65.7C225,74.3,232,84.2,238.9,95l1-49.7l0.5,0.3c-7.4-5.4-15.4-9.7-24-12.8l0.5,0.3L218.5,65.7z"/>
<path class="st0" d="M215.8,32.7c-8.9-3-17.5-4-25.4-2.6c-0.4,0.1-0.8,0.2-1.2,0.2c2,2.1,13.7,14.8,28.1,33.9L215.8,32.7z"/>
<path class="st0" d="M267.8,149.3c1.1,2.5,2.1,5.1,3,7.6l18.2-53.8l0.5,0.5c-2.2-4-4.4-8-6.8-11.8L268,149.5L267.8,149.3z"/>
<path class="st0" d="M257.1,126.6l9.5-56.4l0.5,0.4c-7.8-9.2-16.6-17.4-26.3-24.6l-1,50.6C246.3,106.8,252.1,116.8,257.1,126.6z"/>
<path class="st0" d="M160.4,86.7l-0.2-0.7c0.8,8.5,2.5,17,5,25.2l87.6,9c-4.6-8.4-9.3-16.3-13.9-23.5L160.4,86.7z"/>
<path class="st0" d="M165.6,112.6l-0.2-0.7c0.9,2.9,1.9,5.8,3,8.8l-0.2-0.7l88.6,7.9c-1.1-2.1-2.2-4.2-3.2-6.2L165.6,112.6z"/>
<path class="st0" d="M267.2,147.9l14.6-57.3l0.5,0.5c-4.4-6.9-9.2-13.5-14.5-19.8l-9.7,57.2C261.4,135,264.4,141.5,267.2,147.9z"/>
<path class="st0" d="M270.9,159.7l-86.2-8.3c4.7,6.3,9.8,12.3,15.3,17.9l-0.2-0.8l78.8,16.2C276.5,176.3,273.9,168,270.9,159.7z"/>
<path class="st0" d="M188.5,30.8l0.2-0.4c-11.9,2.7-20.2,10.8-24.8,22.4l52.7,11.9C201,44.1,188.7,31,188.5,30.8z"/>
<path class="st0" d="M272.4,161.1c2.7,7.4,5,15,6.9,22.6l20.5-51.5l0.5,0.5c-1.3-7.2-3.5-14.1-6.6-20.8c-1.2-2.6-2.5-5.1-3.8-7.7
	l-18.4,54.4C271.8,159.6,272.1,160.4,272.4,161.1z"/>
<path class="st0" d="M238,95.2c-6.8-10.6-13.7-20.4-20.1-28.9l-54-12.2l-0.2-0.7c-3.4,8.9-4.6,19.8-3.6,31.9L238,95.2z"/>
<path class="st0" d="M183.6,150l86.7,8.4v-0.1c-3.8-9.9-8.1-19.6-12.9-29.1l-88.8-7.9c1.5,4,3.2,8,5.1,12.1
	C176.5,139.3,179.8,144.8,183.6,150z"/>
<path class="st0" d="M393.2,166.8l0.2,0.6c-2.2-8.8-5.7-17.3-10.3-25.2l0.2,0.6l-19.6,26.1c-0.5,10.8-1.4,22.8-3,35.5L393.2,166.8z"
	/>
<path class="st0" d="M382.8,141.8c-4.9-8-10.9-14.3-17.9-18.2c-0.4-0.2-0.7-0.4-1.1-0.6c0.2,2.9,1.1,20.1,0,44L382.8,141.8z"/>
<path class="st2" d="M348.4,264.7c-0.8,2.6-1.6,5.2-2.5,7.7l48.3-29.8l0.1,0.7c0.9-4.5,1.7-9,2.3-13.5l-48.2,35.1L348.4,264.7z"/>
<path class="st0" d="M354.7,240.5l43.3-37.4l0.1,0.7c-0.1-12-1.6-24-4.6-35.7l-33.1,38.3C359,218.3,357,229.7,354.7,240.5z"/>
<path class="st0" d="M398.1,204.6l-43.9,37.9c-1.6,7.2-3.4,14.1-5.4,20.8l47.8-34.8l0.1,0.7C397.7,221,398.2,212.8,398.1,204.6z"/>
<path class="st0" d="M313.4,332.5c0-0.6,0.1-1.2,0.1-1.8c7.8-9.3,14.5-19.5,19.9-30.5l-26.5-33c-0.3-1.1-0.7-2.3-1.1-3.4L334,299
	c3.8-7.9,7.2-15.9,10.1-24.2l-55.8-56.1c0.2-0.4,0.4-0.9,0.5-1.4l55.7,56l0,0c3.4-10,6.3-20.3,8.6-30.6l-55.3-54.8
	c0.1-0.5,0.2-1,0.3-1.5l55.4,54.8c0.5-2.3,1-4.6,1.5-6.8l-55.2-56.2c0.1-0.5,0.2-1.1,0.3-1.6l55.2,56.2c1.9-9.4,3.3-18.5,4.3-27
	l-54-57.8l0.3-0.7c-1.3,1.9-2.5,3.8-3.7,5.9c0-6.4-0.5-12.8-1.6-19.1l-20.7,52c1.7,7.2,2.9,14.4,3.6,21.8c-0.1,1.2-0.2,2.5-0.3,3.7
	l0.7,0.7c0,0.7,0.1,1.3,0.1,2l-0.9-0.9c0,0.7-0.1,1.5-0.1,2.2c-0.4-9.9-1.8-19.7-4-29.4l-78.2-16.1c3.9,4,8.1,8,12.3,11.8
	c-8.2-2.6-16.7-4-25.3-4.3l0.6,0.1l11.6,30.5c8.8,6.2,18.5,13.4,28.4,21.6l-14.4-47c0.5,0.5,1.1,0.9,1.6,1.4l14.2,46.8
	c9.2,7.6,17.8,15.4,25.6,23.1l-6.5-44c0.5,0.3,0.9,0.6,1.4,0.9l6.6,44.5c5.2,5.2,10.1,10.4,14.6,15.7l-3.2-48.3
	c0.4,0.3,0.9,0.6,1.3,0.8l3.2,48.8l-0.3-0.1c1.8,2.1,3.5,4.2,5.2,6.2l0.6-49.6c0.5,0.3,0.9,0.5,1.3,0.8l-0.6,50.5
	c0.5,0.6,1,1.3,1.5,1.9c4.9,6.2,9.4,12.7,13.6,19.4l0.3-4.5c0.4,1.3,0.7,2.7,1.1,3.9l-0.2,2.6c0.6,1,1.2,2,1.8,3
	c0.5,1.5,0.9,3,1.3,4.5c-1.3-2.4-2.6-4.7-4-7.1l-79.4,8.9c41.7,22,93.5,32.4,96.8,33c-0.8-3.5-1.7-6.9-2.8-10.3
	c0.3-0.3,0.6-0.6,0.8-0.9c0.1,0.4,0.3,0.8,0.4,1.2c-0.1,0.2-0.3,0.3-0.4,0.5c0.2-0.1,0.3-0.2,0.5-0.2c0.8,2.4,1.4,4.8,2.1,7.1
	c0.2-1.9,0.6-4.9,0.8-8.6c14.3-7.2,51.3-28.1,70.1-60.9l-49.1,26.8C328.7,312.1,321.7,322.8,313.4,332.5z M297.1,255l0.1-1.9
	l1.2,1.6l-0.1,1.9L297.1,255z"/>
<path class="st0" d="M362.9,123l0.4-0.2c-10.8-5.5-22.4-4.6-33.4,1.4l33,42.8C364.1,141.1,362.9,123.2,362.9,123z"/>
<path class="st2" d="M344.4,276.8c-2.6,7.4-5.7,14.7-9.1,21.8L384,272l0.1,0.7c3.6-6.3,6.3-13.1,8.2-20.2c0.7-2.8,1.4-5.5,2-8.3
	l-48.9,30.2C345,275.2,344.7,276,344.4,276.8z"/>
<path class="st0" d="M362.9,168.9l-33.8-43.8l0.3-0.6c-8.3,4.7-16.2,12.3-23.1,22.3l53.7,57.3C361.5,191.5,362.4,179.6,362.9,168.9z
	"/>
<path class="st0" d="M187,177.5c-9.4-0.1-17.9,1.6-24.9,5.3c-0.4,0.2-0.7,0.4-1.1,0.6c2.6,1.4,17.6,9.9,37.2,23.6L187,177.5z"/>
<path class="st2" d="M228.7,231.3L151,246.1l-0.4-0.6c3.4,7.9,7.6,15.4,12.6,22.4l86.1-18.5C242.2,242.8,235.3,236.7,228.7,231.3z"
	/>
<path class="st2" d="M255.4,255.4c-1.7-1.7-3.3-3.3-5-4.9L164,269l-0.4-0.6c1.7,2.5,3.6,4.9,5.5,7.4l-0.4-0.6L255.4,255.4z"/>
<path class="st2" d="M293.7,302.9c-4.6-7.5-9.6-14.6-15-21.5l-84.6,18.8c6.4,4.6,13.1,8.7,20.1,12.3l-0.4-0.7L293.7,302.9z"/>
<path class="st0" d="M160.5,184.2l0.1-0.5c-10.4,6.2-15.9,16.5-16.7,29l53.9-5C176.5,193,160.7,184.3,160.5,184.2z"/>
<path class="st0" d="M199.3,208.9l-55.1,5.1l-0.4-0.6c-0.5,9.5,1.7,20.2,6.5,31.5l77.1-14.7C217.6,222.2,208,215,199.3,208.9z"/>
<path class="st2" d="M277.7,280.2c-6.6-8.3-13.7-16.2-21.2-23.7l-86.9,19.9c2.7,3.3,5.5,6.6,8.6,9.9c4.4,4.7,9.3,8.9,14.5,12.7
	L277.7,280.2L277.7,280.2z"/>
<path class="st3" d="M780.7,53.9c0,0-12.7,36.3-4.9,41.8s-26.5,51.1-26.5,51.1l-41.2-11.2l22.5-38.1c0,0,2.9-38.1,2.9-43.7
	S780.7,53.9,780.7,53.9z"/>
<path class="st4" d="M780.7,53.9c0,0-12.7,36.3-4.9,41.8s-26.5,51.1-26.5,51.1l-41.2-11.2l22.5-38.1c0,0,2.9-38.1,2.9-43.7
	S780.7,53.9,780.7,53.9z"/>
<path class="st5" d="M802.1,312.4c0,0,3.7,46.5,0,70.7s-9.3,91.1-9.3,91.1s0,126.5-20.5,128.3s-35.3,3.7-37.2-3.7s9.3-11.2,3.7-14.9
	s-7.4-16.7,0-31.6s0-165.5,0-165.5l-35.3,94.9c0,0-3.7,78.1-7.4,89.3s3.7,31.6-9.3,33.5s-27.9-9.3-35.3-13s11.2-3.7,7.4-5.6
	s-14.9-7.4-11.2-9.3s7.4-91.1,7.4-91.1s10.2-190.6,23.2-198.1s21.4,5.4,21.4,5.4L802.1,312.4z"/>
<path class="st6" d="M768.7,596.1V611c0,0,16.7,40.4,0,40.4s-29.8,4.2-29.8-1.4v-50.2L768.7,596.1z"/>
<path class="st7" d="M658.9,595.1V610c0,0-16.7,40.4,0,40.4s29.8,4.2,29.8-1.4v-50.2L658.9,595.1z"/>
<circle class="st3" cx="754.7" cy="47.4" r="33.5"/>
<path class="st8" d="M764.9,109.7c0,0-9.3,27.9-24.2,22.3l-14.9-5.6l-26,178.5c0,0,20.5,29.8,50.2,11.2S764.9,109.7,764.9,109.7z"/>
<path class="st9" d="M738.9,104.1l-8.4-17.7c0,0-49.3,23.2-56.7,30.7s-7.4,18.6-7.4,18.6l13,46.5c0,0-3.7,102.3-3.7,106
	s-13,24.2-3.7,16.7s11.2-14.9,18.6-3.7s24.2,24.2,24.2,24.2L738.9,104.1z"/>
<path class="st3" d="M673.8,238.1l5.6,52.1c0,0,33.5,29.8,26,31.6s-11.2-5.6-11.2-5.6s-13,13-20.5,5.6s-26-78.1-26-78.1L673.8,238.1
	z"/>
<path class="st7" d="M754,0.1c7.4-0.3,15.4-0.4,21.6,3.6c2.9,2,5.4,4.5,7.5,7.3c6.1,7.7,11.4,17.4,9.1,27l-2.6-1
	c0,2.6,0.6,5.1,1.7,7.4c-0.4-1.1-1.6,0.7-1.3,1.8l2.9,9.5c-4.8-1.7-10.7,1.8-11.4,6.8c-0.3-11-1.5-23.7-10.4-30.2
	c-4.5-3.3-10.2-4.3-15.7-5.1c-5.1-0.8-10.4-1.6-15.2,0.1s-9,6.6-7.9,11.7c-2.2-0.8-4.7,0.8-5.9,2.9s-1.2,4.6-1.2,6.9
	c-2.4,1.7-5.1-1.7-6.1-4.4c-2.3-6.5-4.3-13.4-3.1-20.1s6.7-13.2,13.6-13.2c-0.8-0.9-1.3-2.1-1.2-3.4l5.7-0.5c-1.4-0.2-2.8-0.9-3.7-2
	C732.5,7.6,750.3,0.2,754,0.1z"/>
<path class="st9" d="M755.6,98.6c0,0,15.1-14.8,20.6-13.9s12.9,13.9,12.9,13.9s44.6,14.9,42.8,29.8s-22.3,87.4-22.3,87.4
	s-16.7,87.4-1.9,96.7S737,346,735.2,334.8s-5.6-122.7,0-139.5S755.6,98.6,755.6,98.6z"/>
<path class="st9" d="M690.5,128.3h-23c0,0-16.1,70.7-17.9,78.1s-5.6,42.8-3.7,42.8s39.1-7.4,39.1-1.9L690.5,128.3z"/>
<circle class="st10" cx="27.4" cy="149.8" r="18"/>
<circle class="st11" cx="27.4" cy="219.1" r="18"/>
<ellipse class="st12" cx="27.4" cy="288.4" rx="18" ry="18"/>
<ellipse class="st12" cx="27.4" cy="357.7" rx="18" ry="18"/>
<ellipse class="st12" cx="27.4" cy="427" rx="18" ry="18"/>
<rect x="25" y="651" class="st13" width="835" height="2"/>
<polygon class="st14" points="26.1,157 17.6,145.6 19.6,144 26.6,153.3 54,130.9 55.6,132.9 "/>
<polygon class="st15" points="137.8,215.7 75.3,216.5 137.8,242 137.8,652.1 759,652.1 759,215.7 "/>
<rect y="166.9" class="st16" width="55.6" height="1.7"/>
<rect y="236.2" class="st16" width="55.6" height="1.7"/>
<rect y="305.5" class="st16" width="55.6" height="1.7"/>
<rect y="374.8" class="st16" width="55.6" height="1.7"/>
<rect y="444.1" class="st16" width="55.6" height="1.7"/>
<circle class="st17" cx="27.4" cy="219.1" r="8.6"/>
<rect x="253.3" y="238.8" class="st6" width="390.2" height="32.5"/>
<rect x="614.4" y="585.3" class="st18" width="115.5" height="39.4"/>
<rect x="166.9" y="320" class="st6" width="290.1" height="236.2"/>
<rect x="311.1" y="251.1" transform="matrix(0.6314 -0.7755 0.7755 0.6314 -224.833 403.3969)" class="st17" width="1.7" height="374.1"/>
<rect x="124.9" y="437.3" transform="matrix(0.7755 -0.6314 0.6314 0.7755 -206.5848 295.3396)" class="st17" width="374.1" height="1.7"/>
<rect x="522" y="340.6" class="st6" width="208.8" height="6"/>
<rect x="522" y="359.4" class="st6" width="208.8" height="6"/>
<rect x="522" y="378.2" class="st6" width="208.8" height="6"/>
<rect x="522" y="397.1" class="st6" width="208.8" height="6"/>
<rect x="522" y="415.9" class="st6" width="208.8" height="6"/>
<rect x="522" y="434.7" class="st6" width="208.8" height="6"/>
<rect x="522" y="453.5" class="st6" width="208.8" height="6"/>
<rect x="522" y="472.4" class="st6" width="208.8" height="6"/>
<rect x="522" y="491.2" class="st6" width="208.8" height="6"/>
<rect x="522" y="510" class="st6" width="208.8" height="6"/>
<rect x="522" y="528.8" class="st6" width="208.8" height="6"/>
<rect x="522" y="547.7" class="st6" width="208.8" height="6"/>
<path class="st3" d="M815.2,254.8l-26,11.2c0,0-50.2,7.4-50.2-13s50.2-9.3,50.2-9.3l16.7-5.4L815.2,254.8z"/>
<path class="st9" d="M809.6,117.2l22.3,5.6l16.7,98.6c0,0,5.6,26-3.7,27.9S809.6,266,809.6,266s-3.7-27.9-11.2-27.9l18.6-14.9
	l-11.2-65.1L809.6,117.2z"/>
</svg>
