<?xml version="1.0" encoding="utf-8"?>
<!-- Generator: Adobe Illustrator 22.0.1, SVG Export Plug-In . SVG Version: 6.00 Build 0)  -->
<svg version="1.1" id="e9b383de-0ed4-41c7-955a-d31167ca9f18"
	 xmlns="http://www.w3.org/2000/svg" xmlns:xlink="http://www.w3.org/1999/xlink" x="0px" y="0px" viewBox="0 0 844.5 494.2"
	 style="enable-background:new 0 0 844.5 494.2;" xml:space="preserve">
<style type="text/css">
	.st0{fill:#61B0D8;}
	.st1{fill:#3F3D56;}
	.st2{fill:#747475;}
	.st3{opacity:0.2;fill:#F2F2F2;enable-background:new    ;}
	.st4{fill:#E8F4F9;}
	.st5{fill:#5B5A6B;}
	.st6{fill:#0D8CD8;}
	.st7{fill:#E5E4EF;}
	.st8{fill:#2F2E41;}
	.st9{fill:#FFB9B9;}
	.st10{fill:#A3A3A3;}
	.st11{fill:#E5E5E5;}
	.st12{fill:#D0CDE1;}
	.st13{fill:#8B8B91;}
</style>
<title>chat_bot</title>
<path class="st0" d="M47.6,463.1c-1,0-2,0.4-2.8,1c-2.4-6.3-6.1-10.4-10.3-10.4s-7.9,4.1-10.3,10.4c-0.8-0.6-1.8-1-2.8-1
	c-4.7,0-8.6,8-8.6,17.9h43.4C56.2,471.1,52.3,463.1,47.6,463.1z"/>
<rect y="480" class="st1" width="220" height="2"/>
<path class="st0" d="M829.6,421c-1,0-2,0.4-2.8,1c-2.4-6.3-6.1-10.4-10.3-10.4s-7.9,4.1-10.3,10.4c-0.8-0.6-1.8-1-2.8-1
	c-4.7,0-8.6,8-8.6,17.9h43.4C838.2,429.1,834.3,421,829.6,421z"/>
<path class="st2" d="M736.2,91.9H526.7v-4.3h-95v4.3H221.4c-7.8,0-14.2,6.3-14.2,14.2l0,0V393c0,7.8,6.3,14.2,14.2,14.2l0,0h514.8
	c7.8,0,14.2-6.3,14.2-14.2l0,0V106C750.4,98.2,744.1,91.9,736.2,91.9L736.2,91.9z"/>
<rect x="226.2" y="116.9" class="st3" width="505.2" height="285"/>
<circle class="st4" cx="478.4" cy="103.9" r="5.2"/>
<rect x="111.5" y="436.9" class="st1" width="733" height="2"/>
<path class="st4" d="M547.8,223.4v-21.1c0-14.3-11.6-25.9-25.9-25.9l0,0h-21.1c0-2.8-9.1-5.2-20.8-5.4v-25.4
	c7.9-1,13.5-8.2,12.5-16.1s-8.2-13.5-16.1-12.5s-13.5,8.2-12.5,16.1c0.8,6.5,6,11.7,12.5,12.5V171c-11.6,0.2-20.8,2.6-20.8,5.4H431
	c-14.3,0-25.9,11.6-25.9,25.9l0,0v21.1c-3,0-5.4,10.1-5.4,22.6s2.4,22.6,5.4,22.6v24.7c0,14.3,11.6,25.9,25.9,25.9l0,0h91
	c14.3,0,25.9-11.6,25.9-25.9l0,0v-24.7c3,0,5.4-10.1,5.4-22.6S550.8,223.4,547.8,223.4z"/>
<path class="st5" d="M436.2,184.5h80.6c12.7,0,22.9,10.3,22.9,22.9l0,0V288c0,12.7-10.3,22.9-22.9,22.9l0,0h-80.6
	c-12.7,0-22.9-10.3-22.9-22.9l0,0v-80.6C413.3,194.8,423.6,184.5,436.2,184.5z"/>
<path class="st4" d="M447.6,244.6c-9,0-16.2-7.3-16.3-16.3c0-0.5,0.4-0.9,0.9-0.9s0.9,0.4,0.9,0.9c0,8,6.5,14.5,14.4,14.5
	c8,0,14.5-6.5,14.5-14.4l0,0c0-0.5,0.4-0.9,0.9-0.9s0.9,0.4,0.9,0.9C463.8,237.3,456.6,244.6,447.6,244.6z"/>
<path class="st4" d="M476.5,275.3c-7,0-12.6-5.7-12.6-12.6c0-0.5,0.4-0.9,0.9-0.9s0.9,0.4,0.9,0.9c0,6,4.9,10.8,10.8,10.8
	s10.8-4.9,10.8-10.8c0-0.5,0.4-0.9,0.9-0.9s0.9,0.4,0.9,0.9l0,0C489.1,269.6,483.5,275.3,476.5,275.3z"/>
<path class="st4" d="M505.4,244.6c-9,0-16.2-7.3-16.3-16.3c0-0.5,0.4-0.9,0.9-0.9s0.9,0.4,0.9,0.9c0,8,6.5,14.5,14.4,14.5
	c8,0,14.5-6.5,14.5-14.4l0,0c0-0.5,0.4-0.9,0.9-0.9s0.9,0.4,0.9,0.9C521.6,237.3,514.4,244.6,505.4,244.6z"/>
<circle class="st4" cx="447.6" cy="229.2" r="8.1"/>
<circle class="st4" cx="505.4" cy="229.2" r="8.1"/>
<ellipse class="st4" cx="476.5" cy="267.2" rx="7.2" ry="3.6"/>
<path class="st2" d="M764.6,396.7h-49.3v-3.6c0-0.4-0.3-0.7-0.7-0.7l0,0h-16.9c-0.4,0-0.7,0.3-0.7,0.7l0,0v3.6h-10.6v-3.6
	c0-0.4-0.3-0.7-0.7-0.7h-16.9c-0.4,0-0.7,0.3-0.7,0.7l0,0v3.6h-10.6v-3.6c0-0.4-0.3-0.7-0.7-0.7l0,0h-16.9c-0.4,0-0.7,0.3-0.7,0.7
	l0,0v3.6h-10.6v-3.6c0-0.4-0.3-0.7-0.7-0.7l0,0H611c-0.4,0-0.7,0.3-0.7,0.7l0,0v3.6h-10.6v-3.6c0-0.4-0.3-0.7-0.7-0.7l0,0h-16.9
	c-0.4,0-0.7,0.3-0.7,0.7l0,0v3.6h-10.6v-3.6c0-0.4-0.3-0.7-0.7-0.7l0,0h-16.9c-0.4,0-0.7,0.3-0.7,0.7l0,0v3.6H542v-3.6
	c0-0.4-0.3-0.7-0.7-0.7l0,0H408.9c-0.4,0-0.7,0.3-0.7,0.7l0,0v3.6h-10.6v-3.6c0-0.4-0.3-0.7-0.7-0.7l0,0H380c-0.4,0-0.7,0.3-0.7,0.7
	v3.6h-10.6v-3.6c0-0.4-0.3-0.7-0.7-0.7l0,0h-16.9c-0.4,0-0.7,0.3-0.7,0.7l0,0v3.6h-10.6v-3.6c0-0.4-0.3-0.7-0.7-0.7l0,0h-16.9
	c-0.4,0-0.7,0.3-0.7,0.7l0,0v3.6H311v-3.6c0-0.4-0.3-0.7-0.7-0.7l0,0h-16.9c-0.4,0-0.7,0.3-0.7,0.7l0,0v3.6h-10.6v-3.6
	c0-0.4-0.3-0.7-0.7-0.7l0,0h-16.9c-0.4,0-0.7,0.3-0.7,0.7l0,0v3.6h-10.6v-3.6c0-0.4-0.3-0.7-0.7-0.7l0,0h-16.9
	c-0.4,0-0.7,0.3-0.7,0.7l0,0v3.6h-32.4c-9.3,0-16.9,7.6-16.9,16.9l0,0v7.6c0,9.3,7.6,16.9,16.9,16.9h562c9.3,0,16.9-7.6,16.9-16.9
	v-7.6C781.5,404.3,773.9,396.7,764.6,396.7L764.6,396.7z"/>
<rect x="303.5" y="317.9" class="st6" width="337" height="2"/>
<path class="st7" d="M327.5,316.9h-83c2.7-31.3,2.7-62.7,0-94h83C322.9,255.1,322.7,286.5,327.5,316.9z"/>
<rect x="256.5" y="241.9" class="st1" width="60" height="4"/>
<rect x="256.5" y="254.9" class="st1" width="60" height="4"/>
<rect x="256.5" y="267.9" class="st1" width="60" height="4"/>
<rect x="256.5" y="280.9" class="st1" width="60" height="4"/>
<rect x="256.5" y="293.9" class="st1" width="60" height="4"/>
<path class="st8" d="M106.9,3.2c0,0-13-4.7-21.4,14S64.1,56.3,64.1,56.3l7.5,1.9c0,0,1.9-13,6.5-14.9L76.2,60c0,0,55.9,19.6,81-1.9
	l-0.9-6.5c0,0,3.7,0.9,3.7,6.5l2.8-2.8c0,0-2.8-5.6-11.2-13c-5.5-4.9-7.4-14.2-8-20c-0.5-4.9-2.4-9.5-5.6-13.2
	C132.5,2.7,122.3-4.2,106.9,3.2z"/>
<polygon class="st9" points="69.3,414.1 73.3,437.1 89.3,434.1 92.3,414.1 "/>
<path class="st10" d="M92.3,427.1l-22,2l1,18l-1,23c0,0-13,26,6,24s17-12,17-12l5-6l-3-15L92.3,427.1z"/>
<polygon class="st9" points="159.3,414.1 155.3,437.1 139.3,434.1 136.3,414.1 "/>
<path class="st10" d="M136.3,427.1l22,2l-1,18l1,23c0,0,13,26-6,24s-17-12-17-12l-5-6l3-15L136.3,427.1z"/>
<ellipse class="st9" cx="113.3" cy="42.2" rx="23" ry="23"/>
<path class="st9" d="M98.3,54.1l3,36l28-1c0,0-8-23-3-32L98.3,54.1z"/>
<path class="st11" d="M114.3,83.1l11.5-7.2l12.5,6.2l20,9l-7,85c0,0,16,53,13,79s33,156,4,162s-50,12-51,2s-3-163-3-163
	s-3,162-15,164s-64,10-60-2s31-222,44-234l2-10l-17-81l31.9-15.9L114.3,83.1z"/>
<path class="st9" d="M54.3,207.1l-1,41c0,0-9.6,40.5,6.7,40.2s4.3-40.2,4.3-40.2l7-40L54.3,207.1z"/>
<path class="st9" d="M205.5,164.1l28.1,29.9c0,0,34.2,23.7,21.9,34.4s-30.1-27.1-30.1-27.1l-31.9-25.1L205.5,164.1z"/>
<polygon class="st12" points="83.8,181.6 152.3,179.5 151.4,174.9 151.4,174.9 85.2,173.7 "/>
<circle class="st13" cx="97.8" cy="177.6" r="6"/>
<path class="st11" d="M76.3,94.1l-6.5-1.5c0,0-8.5,3.5-10.5,14.5s-28,97-15,102s32,7,32,5s8-77,8-77L76.3,94.1z"/>
<path class="st11" d="M137.5,97.9l20.8-6.8c0,0,10,0,10,11c0,4.5,19.2,41.8,19.2,41.8s46,32.8,39,34c-12,2-19,23-19,23l-45-40
	L137.5,97.9z"/>
<path class="st8" d="M85.3,43.8c0,0,7.5-10.2,14-12.1s7.5-11.2,7.5-11.2s16.8,18.6,27,19.6s0.9-22.4,0.9-22.4L116,13.1L98.3,15
	l-14,9.3L85.3,43.8z"/>
<ellipse class="st9" cx="90.8" cy="38.6" rx="3" ry="4.5"/>
</svg>
