<?xml version="1.0" encoding="utf-8"?>
<!-- Generator: Adobe Illustrator 22.0.1, SVG Export Plug-In . SVG Version: 6.00 Build 0)  -->
<svg version="1.1" id="e8806aae-1dd3-4f44-829b-8bd04a0ec3ea"
	 xmlns="http://www.w3.org/2000/svg" xmlns:xlink="http://www.w3.org/1999/xlink" x="0px" y="0px" viewBox="0 0 896 529.1"
	 style="enable-background:new 0 0 896 529.1;" xml:space="preserve">
<style type="text/css">
	.st0{fill:#828196;}
	.st1{fill:#A9CBDB;}
	.st2{fill:#2F2E41;}
	.st3{fill:#DDDDDD;}
	.st4{fill:#B1B1B2;}
	.st5{fill:#A0616A;}
	.st6{fill:#B6B6B7;}
	.st7{fill:#DCEFF9;}
	.st8{fill:#E3E3E5;}
	.st9{fill:#595959;}
</style>
<path class="st0" d="M674.1,437.3c0,0-26.4,9.9-38.8,32.9s-6.2,50.5-6.2,50.5s26.4-9.9,38.8-32.9S674.1,437.3,674.1,437.3z"/>
<path class="st1" d="M709.5,471.7c0,0-8.6,26.8-31.1,40.3s-50.2,8.6-50.2,8.6s8.6-26.8,31.1-40.3S709.5,471.7,709.5,471.7z"/>
<rect y="527.1" class="st2" width="896" height="2"/>
<path class="st3" d="M361.9,435.1c-12.8-2.3-24.9-7.2-35.7-14.4l1.2-1.6c10.6,7,22.5,11.8,35,14.1c18.9,3.4,47.3,1.7,74.7-25.5
	c53.4-53,104.4-58.4,104.9-58.4l0.2,2c-0.5,0-50.8,5.3-103.7,57.9c-21.6,21.5-43.8,27.4-61.7,27.4
	C371.7,436.4,366.8,436,361.9,435.1z"/>
<circle class="st3" cx="515.2" cy="381.1" r="12"/>
<circle class="st3" cx="430.2" cy="437.1" r="12"/>
<path class="st4" d="M683.5,528.1c0,0-17.5-5.4-52.3-10.8l0.8-10.7c6-60-34-150-34-150c15.3,44.7,22.5,91.8,21.5,139
	c-5.3-9.3-15.6-19.4-35.5-25.5c0,0,25.8,22.1,33.2,45.1c-33.8-4.5-67.9-7.2-102-8.2l8.9-20.4l-17,17c0,0-7-51-22-53l11,50
	c0,0-13-10-16-9l7.4,14.8c-49.8-0.5-109.1,1.7-177.8,9l8.4-19.2l-17,17c0,0-7-51-22-53l11,50c0,0-13-10-16-9l8.6,17.3
	c-22.4,2.7-45.8,5.9-70.1,9.7H683.5z"/>
<path class="st5" d="M407.6,44.5c-10.9,11.7,17.6,40.3,17.6,40.3s-57.7,9.7-53.1,9.1s2.2-49.1,2.2-49.1S418.5,32.7,407.6,44.5z"/>
<path class="st6" d="M447.8,170.2l-50.1,25.6l-27.2,15.6c0,0-32.1,40.4-38.1,64.4s25.9,68.2,29.5,72.8c1.9,2.3,3.5,4.8,5,7.4
	c1.2,1.9,12-0.5,23.8-3.1s-1.6-20-1.6-20s-15-38.4-16.1-39.3c-1-0.8-4.6-7.4-2-10.4c2.4-2.6,4.3-5.6,5.4-8.9c1-2.8,2.4-5.5,4.2-7.9
	c0,0,45.4-36.8,59.5-49.4s51.8-4.7,51.8-4.7s-17.8,68.2-22.2,72.8c-4.4,4.6-4.9,8.7-2.9,16.5s28.3,0.4,28.3,0.4l9.7-26.5
	c0,0,15.7-34.3,24.3-69.7c4.3-17.7-3.9-28.2-13.1-34.4c-8.9-5.8-19.6-7.9-30-6l-46.3,8.1l32.1-13.8L447.8,170.2z"/>
<path class="st5" d="M262.9,104.3L203,85.8c0,0-24.2-31.2-12.8-36.7s25.7,26.9,25.7,26.9l41.7,2.7L262.9,104.3z"/>
<path class="st5" d="M514.5,71.9l53.2-33.1c0,0,15.5-36.3,3.1-38.7s-18,32.6-18,32.6l-39.6,13.2L514.5,71.9z"/>
<path class="st7" d="M524.5,34.5l1,39.2l-89.7,16c13.2,28.2,9.8,60.3,43,74.4l-111.9,54.7c5-43-15.8-75.5-35.3-115.8
	c-23.7-8.6-51.2-2.3-80.3,10.3l-5.2-40.7l123.9-8.9l20.3,7.8l21.8-9.2C444.2,53,490.2,34.9,524.5,34.5z"/>
<path class="st8" d="M468.6,300.6c-2.7,2.4-5.3,21.8-5.3,28.9s9.2,8.9,14.3,9.2s4.5,3.5,7.8,6s14.4,2.2,28.9-2.7
	s-9.8-20.9-11.9-21.7c-2.1-0.7-11-22.8-11-22.8S471.4,298.3,468.6,300.6z"/>
<path class="st8" d="M389.4,345.1c3.2,1.6,10.6,19.8,12.5,26.6s-6.7,10.9-11.5,12.6s-3.5,4.5-6,7.8s-13.4,5.8-28.6,4.7
	s4.1-22.7,6-24s4.9-24.8,4.9-24.8S386.1,343.5,389.4,345.1z"/>
<circle class="st5" cx="389.5" cy="35.4" r="24"/>
<path class="st9" d="M361.7,33c-2.9-5.8-3.2-12.6-0.8-18.6c2.4-5.8,7.6-11.7,18.9-13.4c24.6-3.8,37.7,13.4,37,19.1s-4,19.3-4,19.3
	s1.5-12.9-4.9-13.4s-30.9-2.4-37.1,4.1c-3.6,3.6-5.1,8.9-3.7,13.8L361.7,33z"/>
</svg>
