<?xml version="1.0" encoding="utf-8"?>
<!-- Generator: Adobe Illustrator 22.0.1, SVG Export Plug-In . SVG Version: 6.00 Build 0)  -->
<svg version="1.1" id="a98b94c8-3ab5-4721-96c2-a749f3d38b5b"
	 xmlns="http://www.w3.org/2000/svg" xmlns:xlink="http://www.w3.org/1999/xlink" x="0px" y="0px" viewBox="0 0 846 605"
	 style="enable-background:new 0 0 846 605;" xml:space="preserve">
<style type="text/css">
	.st0{fill:none;stroke:#ACABC6;stroke-width:2;stroke-miterlimit:10;}
	.st1{fill:#ABCBDB;}
	.st2{fill:#9695AF;}
	.st3{fill:#58B1DD;}
	.st4{fill:#3F3D56;}
	.st5{fill:#575A89;}
	.st6{fill:#787793;}
	.st7{fill:#FFB9B9;}
	.st8{fill:#E5E5E5;}
	.st9{fill:#9A9A9B;}
	.st10{fill:#C6C8E5;}
	.st11{fill:#B6B6B7;}
	.st12{fill:#B9BCDB;}
	.st13{fill:#2F2E41;}
	.st14{opacity:0.1;enable-background:new    ;}
	.st15{fill:#757AA0;}
	.st16{fill:none;stroke:#3F3D56;stroke-width:2;stroke-miterlimit:10;}
</style>
<title>pie graph</title>
<rect x="23" y="1" class="st0" width="822" height="470"/>
<line class="st0" x1="23" y1="26.1" x2="845" y2="26.1"/>
<circle class="st1" cx="42" cy="14" r="7"/>
<circle class="st1" cx="63" cy="14" r="7"/>
<circle class="st1" cx="84" cy="14" r="7"/>
<path class="st2" d="M526.1,326.3c51-51,51-133.7,0-184.7c-24.5-24.5-57.7-38.3-92.4-38.3V234L526.1,326.3z"/>
<path class="st1" d="M433.7,103.3c-72.1,0-130.6,58.5-130.6,130.7c0,47.8,26.1,91.8,68.1,114.7L433.7,234V103.3z"/>
<rect x="153" y="345.1" class="st3" width="25" height="25"/>
<rect x="189.1" y="345.1" class="st4" width="25" height="25"/>
<rect x="225.3" y="345.1" class="st5" width="25" height="25"/>
<rect x="585.2" y="350.7" class="st6" width="102.8" height="4.2"/>
<rect x="585.2" y="363.2" class="st6" width="102.8" height="4.2"/>
<rect x="585.2" y="375.7" class="st6" width="102.8" height="4.2"/>
<polygon class="st7" points="630.3,561.2 632,575 641.4,579.4 651.8,576.1 659,579.4 661.2,566.7 648.5,552.4 "/>
<path class="st8" d="M637,571.7c0,0-8.5-10-8.7-5s-18.9,22.1-18.9,22.1s-29.2,8.8-6.6,14.3s72.2-10.5,73.8-13.8
	s-13.8-28.6-15.4-26.4S651.3,572.8,637,571.7z"/>
<path class="st9" d="M616,408.1c0,0-3.3,25.9,0,29.7s1.7,11.6,0,12.7s2.2,5.5,5,7.7s6.6,12.1,6.6,12.1s14.9,39.1,14.9,43
	s6.6,12.1,6.1,14.9s3.9,11.6,3.3,13.2s7.2,16.5,5,18.7s-32.5,9.9-30.8,5s2.8-11,1.7-11s-6.1-6.1-5-8.3s-33.1-60-33.1-60L616,408.1z"
	/>
<polygon class="st7" points="559.8,554.4 553.8,569.8 556.5,591.3 574.2,590.2 584.1,581.4 584.1,562.6 "/>
<path class="st8" d="M563.1,573.1c0,0-6.1-19.8-9.4-14.3c-2.1,3.5-3.9,7.2-5.5,11c0,0-27,17.6-34.2,17.6s-13.8,8.8-4.4,12.1
	s81,7.7,82.1,0s-1.1-32.5-4.4-29.7S567,578.6,563.1,573.1z"/>
<path class="st7" d="M549.4,329.1c0,0-11.6,19.8-12.7,22s-7.2,16.5,4.4,22s21.5-40.2,21.5-40.2L549.4,329.1z"/>
<path class="st10" d="M561.5,297.1c0,0-17.6,34.2-14.3,35.3s16.5,7.7,16.5,7.7l6.1-34.7L561.5,297.1z"/>
<path class="st11" d="M562.6,325.8c0,0-3.9,28.6-2.2,34.7s-1.1,97,1.1,101.9s3.9,36.9,3.9,40.8s-4.4,35.3-5.5,38s-4.4,12.1-2.8,16.5
	s24.2,15.4,27.5,11.6s0.6-16,3.3-16.5s6.1-26.4,6.1-26.4l18.2-101.4c0,0,34.2-84.8,26.4-93.1S562.6,325.8,562.6,325.8z"/>
<circle class="st7" cx="583" cy="103.2" r="27"/>
<path class="st7" d="M573.1,125.3c0,0,8.8,23.1,7.7,28.1s25.9-8.8,25.9-8.8s-1.7-27,0-34.2S573.1,125.3,573.1,125.3z"/>
<path class="st12" d="M647.1,276c-0.1,4.6-0.2,7.4-0.2,7.4s1.7,25.3-1.1,33.6s-2.8,14.3-4.4,19.8c-0.5,1.6-7.1,2.5-16.3,2.8
	c-8.5,0.3-19.2,0.3-29.5,0.1c-17.1-0.4-33-1.3-35.7-1.8c-6.1-1.1,1.1-10.5-1.1-15.4s3.9-68.3,3.9-68.3s-0.6-35.8,2.2-49.6
	s13.2-35.8,15.4-38.6s0.6-4.4-4.4-7.7s0-16,0-16c9.4-7.7,33.1-8.8,33.1-8.8s36.4,37.5,38.6,45.2c1.3,4.7,0.9,41.9,0.3,70.6
	C647.5,260.1,647.2,269.8,647.1,276z"/>
<path class="st7" d="M600.6,344.5c0,0-20.9,43-4.4,45.7s24.8-39.1,24.8-39.1L600.6,344.5z"/>
<path class="st13" d="M557.7,89.5c-1-4.6,2.6-9,6.3-11.9c8.1-6.3,18.1-9.7,28.4-9.7c7.2,0,14.7,2,20.1,6.7
	c6.4,5.5,9.3,14.4,8.7,22.8s-4.2,16.4-9.1,23.2c-2.4,3.3-6.2,6.7-10,5.2c-1.5-0.7-2.8-1.8-3.7-3.1c-2.4-3-4.5-6.3-6.3-9.7
	c-1.4-2.6-2.5-5.4-4.4-7.7s-4.8-3.9-7.7-3.5c-2.4,0.3-4.8,2-7.1,1.2c-2.6-0.9-3.2-4.2-3.4-6.9c-0.2-3-0.1-6.4-0.9-9.2
	C567.7,87.5,558.2,91.8,557.7,89.5z"/>
<path class="st14" d="M647.1,276c-6.2,22.2-20.3,59.7-21.1,61.4c-0.2,0.4-0.5,1.2-0.9,2.3c-8.5,0.3-19.2,0.3-29.5,0.1
	c1.6-4.2,3.5-8.2,3.5-9.5c0-2.8,13.2-73.8,13.2-73.8s-10.5-31.4-19.8-57.8s27.8-21.2,27.8-21.2c19.8-5,23.4,3.6,23.4,3.6
	s1.7,46.4,4.1,68.4c0.6,5.6,1.3,9.7,1.9,10.9C650.5,261.8,649.3,267.9,647.1,276z"/>
<path class="st10" d="M612.2,159.4c0,0-25.3,10.5-16,36.9s19.8,57.8,19.8,57.8s-13.2,71.1-13.2,73.8s-8.3,17.6-5,20.4
	s25.3,8.3,25.9,5.5c1.7-6.3,3.7-12.6,6.1-18.7c1.1-2.2,27-71.1,23.7-77.1s-6.1-79.3-6.1-79.3S632,154.5,612.2,159.4z"/>
<path class="st5" d="M556.1,367.3L458.7,276l-57.5,118.7c19.2,10.5,40.7,15.9,62.5,15.9C499.8,410.6,532.4,391,556.1,367.3z"/>
<path class="st14" d="M556.1,367.3L458.7,276l-57.5,118.7c19.2,10.5,40.7,15.9,62.5,15.9C499.8,410.6,532.4,391,556.1,367.3z"/>
<path class="st15" d="M548.1,374.3L455.7,282l-62.5,114.7C444.1,424.4,507.1,415.3,548.1,374.3z"/>
<line class="st16" x1="397" y1="604" x2="793" y2="604"/>
</svg>
