<?xml version="1.0" encoding="utf-8"?>
<!-- Generator: Adobe Illustrator 22.0.1, SVG Export Plug-In . SVG Version: 6.00 Build 0)  -->
<svg version="1.1" id="f65dcaaa-a43f-44d9-8793-dc16a3dce27d"
	 xmlns="http://www.w3.org/2000/svg" xmlns:xlink="http://www.w3.org/1999/xlink" x="0px" y="0px" viewBox="0 0 888 476.8"
	 style="enable-background:new 0 0 888 476.8;" xml:space="preserve">
<style type="text/css">
	.st0{fill:#F7F8F9;}
	.st1{fill:#B4DAED;}
	.st2{fill:#FFFFFF;}
	.st3{fill:#8F8EAF;}
	.st4{fill:#A0616A;}
	.st5{fill:#B6B6B7;}
	.st6{fill:#EFEFEF;}
	.st7{opacity:0.2;enable-background:new    ;}
	.st8{fill:#E6E6E6;}
	.st9{fill:#ABAFCE;}
	.st10{fill:#2F2E41;}
	.st11{fill:#B9BCDB;}
</style>
<title>circuit_board</title>
<path class="st0" d="M552.6,164.1c-2.3-41.4-37.8-73.1-79.3-70.8c-32.1,1.8-59.6,23.9-68.2,54.9c-0.9,0-1.8-0.1-2.7-0.1
	c-33.3,0-62.7,22-72.1,54c-22.1-9.7-48-3.3-63,15.7h234.4c28.8,0,52.1-23.9,50.9-52.6C552.7,164.8,552.7,164.4,552.6,164.1z"/>
<path class="st0" d="M0.1,70.9C2.4,29.5,37.9-2.2,79.4,0.1c32.1,1.8,59.6,23.9,68.2,54.9c0.9,0,1.8-0.1,2.7-0.1
	c33.3,0,62.7,22,72.1,54c22.1-9.7,48-3.3,63,15.7H51C22.2,124.6-1.1,100.8,0,72C0.1,71.6,0.1,71.3,0.1,70.9z"/>
<polygon class="st1" points="336.4,145 151.7,145 59.4,304.9 151.7,464.8 336.4,464.8 428.7,304.9 "/>
<path class="st2" d="M167.2,438h153.7l76.9-133.1l-76.9-133.1H167.2L90.3,304.9L167.2,438z"/>
<rect y="463.7" class="st3" width="888" height="2.2"/>
<polygon class="st4" points="697.7,58.3 705.7,81 692.3,107.8 669.6,69 "/>
<path class="st5" d="M765.2,333.1c-4.4,6.2-38.3,41.8-61,65.5c-6.3,6.6-11.7,12.2-15.4,16.1c-3.2,3.4-5.1,5.3-5.1,5.3l-10.3-21.4
	l-4.5-9.3l0.1-0.1l2.8-3.6l26.6-34.1l28-35.8l-22.7-45.5l28.1-4l18.7,1.1l4.1,0.2C754.5,267.5,771.9,323.7,765.2,333.1z"/>
<path class="st6" d="M686.3,442.7c-1.7,1.7-4.8-0.5-8-4.3c-6.8-7.9-14.7-22.5-14.7-22.5l-9.4-20.1c1-6,10.2-6.8,14.8-6.8
	c1.6,0,2.6,0.1,2.6,0.1l0.8,1.1l16.4,24.3C688.8,414.7,691.7,437.4,686.3,442.7z"/>
<path class="st7" d="M688.8,414.7c0,0,2.9,22.7-2.5,28.1c-1.7,1.7-4.8-0.5-8-4.3l-4.9-39.9l-1-8.2l-0.6-4.8l26.6-34.1l5.7,47.1
	C697.9,405.2,692.5,410.8,688.8,414.7z"/>
<polygon class="st7" points="707.3,277.4 703.7,270.2 731.8,266.2 750.4,267.3 750.5,267.5 "/>
<polygon class="st5" points="671.6,208.7 662.2,208.7 664.9,297 683.6,449.4 714.4,449.4 701,339.7 707.7,278.2 754.5,267.5 
	741.1,206 "/>
<path class="st6" d="M686.3,445.4c0,0-2.7,18.7-1.3,20.1s2.7,2.7,2.7,5.3s16,9.4,24.1,4s2.7-13.4,2.7-13.4l-8-16L686.3,445.4z"/>
<circle class="st4" cx="681" cy="52.3" r="22.7"/>
<polygon class="st8" points="694.3,88.4 676.8,81.3 666.3,212.7 739.8,218.1 714.4,83 703,72.3 "/>
<path class="st9" d="M674.5,77.4l-13.6,11l-25.4,13.4l9.4,84.2l1.3,48.1c0,0-17.4,42.8-4,53.5s28.1,6.7,25.4-16s-8-38.8,17.4-62.8
	S688.1,71.7,674.5,77.4z"/>
<path class="st9" d="M701.6,69.5l16.8,10.8l22.7,12l17.4,192.5l-38.8,12C719.7,297,698.3,74.7,701.6,69.5z"/>
<path class="st4" d="M745.1,228.8c0,0-20.1,30.8-5.3,30.8s18.7-25.4,18.7-25.4L745.1,228.8z"/>
<path class="st4" d="M662.2,228.8c0,0,20.1,30.8,5.3,30.8s-18.7-25.4-18.7-25.4L662.2,228.8z"/>
<path class="st10" d="M682.3,18.8l-6.7-4l1.3,2.7l-5.3-1.3l1.3,1.3l-6.7-1.3l2.7,2.7c0,0-10.7,0-12,10.7l-6.7,1.3l2.7,4v4l2.7,2.7v4
	l2.7,6.7l2.7-9.4c0,0,12,2.7,17.4-8c0,0,1.3,4,8,2.7L697,56.3c0,0,1.3-8.3,6-9.5s2-11.9,2-11.9s-4-4-4-6.7s-4-5.3-6.7-5.3
	s-9.4-5.3-9.4-5.3L682.3,18.8z"/>
<path class="st11" d="M646.2,103.1l-6.2-3.7l-4.5,2.4c0,0-5.3,2.7-6.7,12s-14.7,66.9-14.7,66.9s-1.3,9.4,5.3,25.4
	s32.1,44.1,32.1,44.1l24.1-20.1L639.5,186l9.4-36.1L646.2,103.1z"/>
<polygon class="st11" points="730.4,92.4 741.1,92.4 758.5,157.9 763.9,239.5 738.5,230.1 738.5,171.3 "/>
<rect x="184.7" y="171.6" class="st3" width="2" height="82.6"/>
<circle class="st1" cx="185.7" cy="258.9" r="5.7"/>
<rect x="227.4" y="171.6" class="st3" width="2" height="82.6"/>
<circle class="st3" cx="228.4" cy="258.9" r="5.7"/>
<rect x="302.4" y="171.6" class="st3" width="2" height="82.6"/>
<circle class="st3" cx="303.4" cy="258.9" r="5.7"/>
<circle class="st3" cx="272.1" cy="340.5" r="5.7"/>
<circle class="st3" cx="156.3" cy="288.3" r="5.7"/>
<polygon class="st3" points="273.1,335.8 271.1,335.8 271.1,236.3 228.4,236.3 228.4,234.3 273.1,234.3 "/>
<circle class="st1" cx="199" cy="376.6" r="5.7"/>
<polygon class="st3" points="200,371.8 198,371.8 198,272.3 155.3,272.3 155.3,270.3 200,270.3 "/>
<circle class="st1" cx="330.9" cy="332" r="5.7"/>
<polygon class="st3" points="331.9,327.2 329.9,327.2 329.9,227.7 302.4,227.7 302.4,225.7 331.9,225.7 "/>
<polygon class="st3" points="157.3,282.6 155.3,282.6 155.3,233.2 185.7,233.2 185.7,235.2 157.3,235.2 "/>
<circle class="st3" cx="228.9" cy="398.9" r="5.7"/>
<polygon class="st3" points="229.9,393.2 227.9,393.2 227.9,345.7 199.5,345.7 199.5,343.7 229.9,343.7 "/>
<circle class="st3" cx="301.5" cy="356.6" r="5.7"/>
<polygon class="st3" points="302.5,350.9 300.5,350.9 300.5,301.5 330.9,301.5 330.9,303.5 302.5,303.5 "/>
</svg>
