<?xml version="1.0" encoding="utf-8"?>
<!-- Generator: Adobe Illustrator 22.0.1, SVG Export Plug-In . SVG Version: 6.00 Build 0)  -->
<svg version="1.1" id="ae5f5559-570c-4c14-9324-22f1786600a2"
	 xmlns="http://www.w3.org/2000/svg" xmlns:xlink="http://www.w3.org/1999/xlink" x="0px" y="0px" viewBox="0 0 1015.1 526"
	 style="enable-background:new 0 0 1015.1 526;" xml:space="preserve">
<style type="text/css">
	.st0{fill:#9B9B9E;}
	.st1{fill:#D3EAF4;}
	.st2{fill:#E5E5E5;}
	.st3{fill:#B5B5C4;}
	.st4{fill:#ADA3A3;}
	.st5{fill:#B6B6B7;}
	.st6{fill:#E3E3E5;}
	.st7{fill:#FFB8B8;}
	.st8{fill:#EFEFEF;}
	.st9{fill:#C9CBD3;}
	.st10{fill:#5F5F6B;}
	.st11{opacity:0.2;enable-background:new    ;}
</style>
<title>static_website</title>
<rect x="508.2" y="-43.1" transform="matrix(0.2721 -0.9623 0.9623 0.2721 264.5492 795.9564)" class="st0" width="300.3" height="532.4"/>
<circle class="st1" cx="451.9" cy="18.2" r="4.2"/>
<circle class="st1" cx="465" cy="21.9" r="4.2"/>
<circle class="st1" cx="478.1" cy="25.6" r="4.2"/>
<path class="st1" d="M715,189.5c-6.9-1.3-13.9-1.1-20.7,0.5c2-6.8,2.5-13.9,1.5-20.9c-7,2.5-13.3,6.6-18.5,11.9
	c-1.6-7.3-4.9-14-9.5-19.9c-4.5,5.4-7.8,11.8-9.7,18.6c-4.9-4.9-10.9-8.8-17.4-11.3c0,0-3.1,15.7,4.3,28.6
	c6.6,11.5,19.3,16.8,22.1,17.9l0.1,0.1l0,0c0.3,0.1,0.4,0.2,0.4,0.2s0.1-0.3,0.1-0.8c0-0.1,0.1-0.1,0.2-0.2c0,0.1,0,0.2,0,0.2
	c-0.2,0.5-0.3,0.8-0.3,0.8s0.2,0,0.4,0.1v0.1h0.1c2.9,0.5,16.5,2.6,28.2-3.7C709.4,204.5,715,189.5,715,189.5z"/>
<circle class="st1" cx="689.6" cy="138.4" r="11"/>
<rect x="657.5" y="66" transform="matrix(0.2721 -0.9623 0.9623 0.2721 252.0912 809.7436)" class="st1" width="7.5" height="344.5"/>
<rect x="508.2" y="239.5" transform="matrix(0.2721 -0.9623 0.9623 0.2721 132.4839 713.5884)" class="st1" width="59.4" height="59.4"/>
<rect x="614.4" y="269.5" transform="matrix(0.2721 -0.9623 0.9623 0.2721 180.9808 837.5608)" class="st1" width="59.4" height="59.4"/>
<rect x="720.6" y="299.5" transform="matrix(0.2721 -0.9623 0.9623 0.2721 229.365 961.5768)" class="st1" width="59.4" height="59.4"/>
<rect x="523.4" y="289.5" transform="matrix(0.2721 -0.9623 0.9623 0.2721 83.0228 732.9324)" class="st1" width="5.1" height="44.1"/>
<rect x="629.5" y="319.6" transform="matrix(0.2721 -0.9623 0.9623 0.2721 131.283 856.8721)" class="st1" width="5.1" height="44.1"/>
<rect x="735.6" y="349.6" transform="matrix(0.2721 -0.9623 0.9623 0.2721 179.6674 980.8883)" class="st1" width="5.1" height="44.1"/>
<ellipse class="st2" cx="289.6" cy="396.5" rx="284" ry="10.5"/>
<ellipse class="st2" cx="794.1" cy="515.5" rx="221" ry="10.5"/>
<path class="st3" d="M685.7,434h63.8v26.7h-37.1v26.7h37.1V514h-63.8V434z M762.2,434H826v23.2h-37.1v4.6H826v53.3h-63.8v-24.3h37.1
	v-4.6h-37.1V434L762.2,434z M838.8,434h63.8v23.2h-37.1v4.6h37.1v53.3h-63.8v-24.3h37.1v-4.6h-37.1V434L838.8,434z"/>
<path class="st3" d="M128.5,312h26.3v26h24.1v-26h26.3v78.7h-26.3v-26.4h-24.1v26.4h-26.3V312L128.5,312z M239.7,338.1h-23.2V312
	h72.6v26.1h-23.2v52.6h-26.3L239.7,338.1L239.7,338.1L239.7,338.1z M300.7,312h27.4l16.9,27.7l16.9-27.7h27.4v78.7h-26.2v-39
	l-18.1,28h-0.5l-18.1-28v39h-25.7L300.7,312L300.7,312z M402.4,312h26.3v52.7h37v26h-63.3V312L402.4,312z"/>
<polygon class="st4" points="82,366.1 79.9,390.6 97.1,389.1 97.1,368.2 "/>
<polygon class="st4" points="66.2,366.1 68.4,390.6 51.1,389.1 51.1,368.2 "/>
<path class="st5" d="M111.5,178.3c0,0,5.8,34.5,5.8,39.6s-2.2,37.4-5.8,43.9s-4.3,9.4-2.9,12.2s0.7,2.2,0,4.3s-2.2,1.4,0,4.3
	c1.8,2.6,1.8,6,0,8.6c-1.4,2.2,2.9,60.4-2.9,64.8s-7.2,18.7-7.2,18.7l-18.7-2.2v-15.8c0,0-4.3-11.5-1.4-18.7s4.3-45.3,4.3-45.3
	s-0.7-3.6,0-5.8s0-3.6-1.4-4.3s-2.2-3.6-2.2-3.6L77,226.5l-8.6,51.8c0,0,8.6,70.5,0,79.9v16.6H49.7l2.9-18c0,0-5.8-16.6-2.9-20.1
	s-8.6-61.2-7.2-63.3s0.7-2.9,0-4.3s-2.9-2.9-2.2-4.3s0-4.3,0-4.3s-13.7-67.6-7.2-74.1C39.6,179.7,111.5,178.3,111.5,178.3z"/>
<path class="st6" d="M84.2,381.2c0,0,1.4-6.9,13-4.5c0,0,2.9,6,2.9,8.8s2.9,22.3,2.9,22.3s11.5,19.4-2.9,19.4s-19.4-5-20.1-10.1
	s0.7-6.5-2.2-8.6s-4.3-2.2-3.6-5s2.2-17.3,2.2-17.3s0.7-10.8,4.7-7.9l4,2.9"/>
<path class="st6" d="M64,381.2c0,0-1.4-6.9-13-4.5c0,0-2.9,6-2.9,8.8s-2.9,22.3-2.9,22.3s-11.5,19.4,2.9,19.4s19.4-5,20.1-10.1
	s-0.7-6.5,2.2-8.6s4.3-2.2,3.6-5s-2-17.3-2-17.3s-0.7-10.8-4.7-7.9l-4,2.9"/>
<circle class="st7" cx="84.9" cy="26.4" r="19.4"/>
<path class="st7" d="M69.1,29.3c0,0-7.9,30.9-9.4,31.7s33.1,3.6,33.1,3.6s-8.6-26.6,0-30.9L69.1,29.3z"/>
<path class="st8" d="M64,48.2L64,48.2L40.3,64.6l4.3,128.8c0,0,31.7-3.6,38.9-2.9s30.2-6.5,30.2-6.5L103.6,63
	c-0.4-4.9-4.3-8.7-9.2-9.1l-4.3-0.3c0,0-4.3,10.7-17.3,5.2C68.3,56.8,65.1,52.9,64,48.2z"/>
<path class="st9" d="M64.6,47L35.3,61l-5.8,82.8c0,0-11.5,49.7-2.2,64s25.2,15.8,25.2,15.8s20.9-82.8,15.1-110.8S64.6,47,64.6,47z"
	/>
<path class="st7" d="M9.4,171.8v10.8c0,0-4.3,23.7,9.4,23s7.2-25.9,7.2-25.9l-4.3-7.9L9.4,171.8z"/>
<path class="st7" d="M136,193.4l-1.4,12.2c0,0,7.2,24.5-6.5,25.2s-3.7-25-3.7-25l4.5-13.8L136,193.4z"/>
<path class="st9" d="M89.6,51.1L89.6,51.1c13.1,3.2,25.3,9.5,35.4,18.4l0.1,0.1L115,122.9l-1.4,19.4c0,0,26.6,95-4.3,81.3
	c0,0-26.6-82.8-23-120.9S89.6,51.1,89.6,51.1z"/>
<path class="st9" d="M115.9,68.9c0.7-0.7,9.4,1,9.4,1s15.8,55.8,15.8,65.2s2.2,62.6,2.2,62.6l-19,1.9l-15.4-74L115.9,68.9z"/>
<path class="st9" d="M40.3,61h-5c0,0-14.4,5.8-15.1,12.2S0,145.2,0,145.2l5,33.1l18.7-2.9l3.6-36.7L46,98.4L40.3,61z"/>
<path class="st10" d="M81.1,31.9l0.7-5.2c0.2-1.2,0.9-2.8,2.1-2.5c1,0.3,3.2,1.1,3.5,0.9c1.4-1,3.4,0.7,4.9-0.1
	c0.6-0.4,1-1.1,1.7-1.2c0.5,0,0.9,0.2,1.2,0.6c0.9,0.8,2,1.4,3.2,1.8c1.2,0.3,2.5,0,3.4-0.9c0.2-0.2,0.4-0.4,0.6-0.6
	c0.3-0.1,0.6-0.1,0.9,0l3.7,1c1.1-4,0.4-8.2-1.9-11.6c-1.5-2-3.3-3.8-5.4-5.2c-2.3-1.7-4.6-3.4-7-4.9c-2.6-1.8-5.5-3.1-8.6-3.7
	c-3.1-0.5-6.6,0.4-8.5,2.8c-0.9-0.7-1.6-1.6-2-2.7c-0.8,0.8-0.9,2-0.1,2.9c0.1,0.1,0.2,0.2,0.3,0.2l-3.1-2C69.9,2.3,71.6,4,70.8,5
	c-0.2,0.3-0.5,0.4-0.8,0.5c-1.7,0.7-3.2,1.6-4.6,2.9c-1.7,1.9-2.9,4.2-3.6,6.6c-1.9,5.3-3.2,11.4-0.6,16.4c0.3,0.6,4.2,9.9,4.8,10.2
	c1.8,1.2,0.6-1.7,1.9,0c1,1.4,0.8-3.9,2.3-2.7c1.2,0.8,2.8,0.9,4,0.2c0.6-0.4,0.4-2.8,0.1-5c-0.2-1.4,0.7-2.7,2.1-2.9
	c0.3,0,0.7,0,1,0C79.3,31.7,81.1,32.1,81.1,31.9z"/>
<polygon class="st11" points="117.7,134 125.6,199.5 120.5,199.5 "/>
<polygon class="st11" points="34.2,108.8 30.2,134 37.8,108.8 35.6,108.8 "/>
</svg>
