<?xml version="1.0" encoding="utf-8"?>
<!-- Generator: Adobe Illustrator 22.0.1, SVG Export Plug-In . SVG Version: 6.00 Build 0)  -->
<svg version="1.1" id="fb137f74-5dac-4b98-b1c7-12f1e4e536de"
	 xmlns="http://www.w3.org/2000/svg" xmlns:xlink="http://www.w3.org/1999/xlink" x="0px" y="0px" viewBox="0 0 752 613.1"
	 style="enable-background:new 0 0 752 613.1;" xml:space="preserve">
<style type="text/css">
	.st0{fill:#3F3D56;}
	.st1{opacity:0.1;fill:#9796B5;enable-background:new    ;}
	.st2{fill:#9796B5;}
	.st3{opacity:0.1;enable-background:new    ;}
	.st4{fill:#F2F2F2;}
	.st5{fill:#5D5D5E;}
	.st6{fill:#929A9E;}
	.st7{fill:#575A5B;}
	.st8{fill:#FFB8B8;}
	.st9{fill:#9D9DA5;}
	.st10{fill:#747477;}
	.st11{fill:#2F2E41;}
	.st12{fill:#BABEDD;}
	.st13{fill:#B4B7D1;}
	.st14{fill:#C6D4DB;}
</style>
<title>preservation</title>
<path class="st0" d="M712.1,501.4c13.2,46.8-113.4,153.8-336.2,94.1C196.6,547.4,39.7,527,39.7,501.4c0-25.6,150.5,1.3,336.2,1.3
	S705.1,476.7,712.1,501.4z"/>
<path class="st1" d="M712.1,501.4c13.2,46.8-113.4,153.8-336.2,94.1C196.6,547.4,39.7,527,39.7,501.4c0-25.6,150.5,1.3,336.2,1.3
	S705.1,476.7,712.1,501.4z"/>
<path class="st2" d="M712.1,501.4c13.2,46.8-113.4,106.1-336.2,46.4C196.6,499.7,39.7,527,39.7,501.4c0-25.6,150.5-46.4,336.2-46.4
	S705.1,476.7,712.1,501.4z"/>
<ellipse class="st3" cx="484" cy="526" rx="26" ry="9"/>
<ellipse class="st3" cx="590" cy="526" rx="26" ry="9"/>
<ellipse class="st3" cx="376" cy="486" rx="85" ry="23"/>
<path class="st2" d="M752,416V0H0v416h347v55.6c-17.3,2.1-29,5.9-29,10.4c0,6.6,26,12,58,12s58-5.4,58-12c0-4.4-11.7-8.3-29-10.4
	V416H752z"/>
<rect x="39" y="14.6" class="st4" width="674" height="372.9"/>
<path class="st3" d="M713,15c0,0-280,29-331,141S39,387,39,387h674V15z"/>
<path class="st5" d="M587.2,193v27.6H483.8v-26h-3V526h3v-59.3h103.5V526h3V193L587.2,193z M587.2,223.6v45.6H483.8v-45.6
	L587.2,223.6z M483.8,366.5v-45.6h103.5v45.6H483.8z M587.2,369.5v45.6H483.8v-45.6H587.2z M483.8,317.9v-45.6h103.5v45.6H483.8z
	 M483.8,463.7v-45.6h103.5v45.6H483.8z"/>
<path class="st6" d="M451.1,199.6v4.1c0,0-3,1.2-3,5.9s-2.4,22.5-2.4,22.5s4.1,3.6,7.7,2.4c2-0.6,3.8-1.6,5.3-3l0.6-18.4l-2.4-4.7
	v-8.3L451.1,199.6z"/>
<path class="st7" d="M564.4,35c0,0-10.3,1.2-10.3,5.9s-8.2,22.5-8.2,22.5s14.4,3.6,26.8,2.4s18.5-3,18.5-3l2.1-18.4l-8.2-4.7
	L564.4,35z"/>
<path class="st8" d="M565.4,76.4V65.2c0,0-12.4-24.9-2.4-24.9s11.2,22.5,11.2,22.5v16L565.4,76.4z"/>
<path class="st8" d="M458.8,194.3c0,0-6.5-3.6-7.7,0s-4.7,11.2,0,11.8s9.5-3.6,9.5-3.6L458.8,194.3z"/>
<path class="st9" d="M490.9,218.2c0,0-3.6,4.7,1.6,50.6s2.2,79.4,12,78.9c0,0-2.6,10,5.8,10.3s12.2,0.9,12.8-1.4s1.7-12.9-0.6-12.8
	c0,0,0.1,3,1.1-9.1s-1.7-69.6,1.7-77.3l13.4,27.4c0,0,0.6,12.8,3.1,18.8s7.9,40.5,7.9,40.5l-0.5,5.3c0,0,18.3,2.2,18.9-0.9
	s0.4-7.6-0.4-9.1s-0.8-1.5,0.5-4.6c1.2-2.4,1.4-5.1,0.4-7.6c-0.9-2.2-3.2-51.3-3.2-51.3s-4.3-59.6-13.5-62.2
	S490.9,218.2,490.9,218.2z"/>
<path class="st10" d="M507,352.2l-5.5,10.9c0,0-9.6-3-7.3,5.6c9.2,0.3,18.4-0.3,27.6-1.7c0,0,3.8,1.3,4.5-1s-2.4-10.1-4.6-10
	S507,352.2,507,352.2z"/>
<path class="st10" d="M550.6,347.2c0,0-5.4,13.9-3.1,14.5s22.8,2.7,24.4,3.4s9.1,1.1,9.7-3.5s-4.1-5.9-4.1-5.9s-8.4-1.1-11-8.6
	S550.6,347.2,550.6,347.2z"/>
<circle class="st8" cx="499.4" cy="89.8" r="15.8"/>
<path class="st8" d="M491,97.3c0,0,4.2,21.6,2.5,25.8s23.3-1.7,23.3-1.7s-5-21.6-4.2-26.6S491,97.3,491,97.3z"/>
<path class="st11" d="M498.9,70.3c-1.3-0.2-2.7-0.2-4,0.2c-1,0.5-2,1.1-2.8,1.8c-1.5,1.2-3.1,2.3-4.8,3.2c-1.4,0.6-2.7,1.5-3.7,2.6
	c-0.4,0.6-0.8,1.3-1.1,2c-1.6,4.1-2.1,8.7-1.3,13c0.1,0.6,0.3,1.2,0.6,1.8c0.9,1.6,2.8,2.2,4.4,3.1c3.1,1.6,5.4,4.3,7.9,6.6
	c0.9,0.9,2,1.7,3.1,2.4c3.6,1.9,7.9,1.3,12,0.6c1.2,0,2.2-1,2.2-2.2c0,0,0,0,0,0l3.2-14.3c0.6-2.1,0.8-4.3,0.8-6.5
	c-0.2-3.5-2.1-8.3-4.6-10.7C507.7,71.2,502.7,70.7,498.9,70.3z"/>
<path class="st12" d="M487.2,124.4c0,0,1.2-8.3,8.3-8.9c4-0.4,8-1.2,11.8-2.4c0.6,0,8.3,0.6,11.8,4.1c0,0,2.4,3.6,3.6,1.2
	s1.2-3.6,3.6-2.4s2.4-3.6,6.5-3s14.8,27.2,14.8,27.2l-3.6,4.1c0,0-4.7,32,3.6,45.6s11.8,28.4,3.6,31.4s-66.3,29.6-63.9,13
	s0.6-42.6-1.8-43.2s-15.4-47.4-15.4-47.4c1.1-6,5.1-11.1,10.7-13.6C490.2,126.2,487.2,124.4,487.2,124.4z"/>
<path class="st13" d="M529.9,115.5l3-2.4c0,0,5.3,0,5.9-1.2s3.6-1.2,5.9-2.4s-0.6-3,2.4-4.1s3,0,3-3s7.7-5.9,8.3-9.5
	s6.5-20.1,6.5-20.1l11.2,3.6l-3,21.3c0,0,0,10.7-5.3,17.8s-17.2,24.9-23.1,25.5S529.9,115.5,529.9,115.5z"/>
<path class="st13" d="M473.6,141l-3.6,3c0,0-1.2,13-1.2,13.6s1.2,7.7,0,8.3s-3.6,12.4-3,13l0,0v1.8l-8.3,13v12.4l19.5-12.4
	c0,0,11.2-1.2,9.5-11.2S473.6,141,473.6,141z"/>
<circle class="st14" cx="376" cy="405" r="11"/>
</svg>
