<?xml version="1.0" encoding="utf-8"?>
<!-- Generator: Adobe Illustrator 22.0.1, SVG Export Plug-In . SVG Version: 6.00 Build 0)  -->
<svg version="1.1" id="bc263456-463a-4a26-ab4e-25ee29596588"
	 xmlns="http://www.w3.org/2000/svg" xmlns:xlink="http://www.w3.org/1999/xlink" x="0px" y="0px" viewBox="0 0 1028.5 752.5"
	 style="enable-background:new 0 0 1028.5 752.5;" xml:space="preserve">
<style type="text/css">
	.st0{opacity:0.5;fill:#DEE3F3;enable-background:new    ;}
	.st1{opacity:0.45;}
	.st2{fill:#B8D2DD;}
	.st3{opacity:0.1;fill:#B8D2DD;enable-background:new    ;}
	.st4{fill:#7DBAD8;}
	.st5{opacity:0.1;enable-background:new    ;}
	.st6{opacity:0.3;enable-background:new    ;}
	.st7{fill:#F7D5DD;}
	.st8{fill:#FFD037;}
	.st9{fill:#DBDBDB;}
	.st10{opacity:0.2;enable-background:new    ;}
</style>
<title>Artificial intelligence</title>
<ellipse class="st0" cx="512.3" cy="706.4" rx="256" ry="43"/>
<g class="st1">
	<path class="st2" d="M450.8,259c0,0.5,0,1,0.1,1.4C450.8,259.9,450.8,259.4,450.8,259z"/>
	<path class="st2" d="M579.7,228.1c0,0.1,0,0.3,0.1,0.4C579.7,228.3,579.7,228.2,579.7,228.1z"/>
	<path class="st2" d="M579.4,226.8c0,0.1,0.1,0.3,0.1,0.4C579.5,227.1,579.5,226.9,579.4,226.8z"/>
	<path class="st2" d="M579.5,261.4c0,0.2-0.1,0.4-0.2,0.7C579.4,261.8,579.5,261.6,579.5,261.4z"/>
	<path class="st2" d="M579.7,260.3c0,0.2-0.1,0.5-0.1,0.7C579.7,260.8,579.7,260.6,579.7,260.3z"/>
	<path class="st2" d="M456.7,268.8c-0.9-0.4-1.7-1-2.4-1.7C455.1,267.8,455.9,268.3,456.7,268.8z"/>
	<path class="st2" d="M454.3,267c-0.3-0.3-0.7-0.6-0.9-1C453.6,266.4,453.9,266.7,454.3,267z"/>
	<path class="st2" d="M644.5,478.4c-0.1-0.4-0.3-0.9-0.5-1.3C644.2,477.6,644.4,478,644.5,478.4z"/>
	<path class="st2" d="M639,471.8c0.4,0.2,0.9,0.5,1.3,0.8C639.9,472.3,639.4,472,639,471.8z"/>
	<path class="st2" d="M641.5,473.5c0.7,0.6,1.3,1.4,1.8,2.1C642.8,474.9,642.2,474.2,641.5,473.5z"/>
	<path class="st2" d="M640.3,472.6c0.4,0.3,0.7,0.5,1.1,0.9C641,473.1,640.7,472.8,640.3,472.6z"/>
	<path class="st2" d="M643.9,477c-0.2-0.4-0.4-0.7-0.6-1C643.6,476.2,643.8,476.6,643.9,477z"/>
	<path class="st2" d="M644.8,479.8c-0.1-0.4-0.1-0.7-0.2-1.1C644.7,479.1,644.8,479.4,644.8,479.8z"/>
	<path class="st2" d="M978.5,419.1h-63.7c3-2.1,4.8-5.5,4.8-9.1v-29.2c0-6.1-5-11.1-11.1-11.1c0,0,0,0,0,0h-73.3
		c4.6-1.5,7.7-5.7,7.7-10.5V330c0-3.6-1.8-7-4.8-9.1h70.3c6.1,0,11.1-5,11.1-11.1c0,0,0,0,0,0v-29.2c0-6.1-5-11.1-11.1-11.1
		c0,0,0,0,0,0h-78.3c4.6-1.5,7.7-5.7,7.7-10.5v-29.2c0-3.6-1.8-7-4.8-9.1h75.3c6.1,0,11.1-5,11.1-11.1c0,0,0,0,0,0v-29.2
		c0-6.1-5-11.1-11.1-11.1c0,0,0,0,0,0h-39.4c4.6-1.5,7.7-5.7,7.7-10.5v-29.2c0-6.1-5-11.1-11.1-11.1c0,0,0,0,0,0H758.8
		c-6.1,0-11.1,5-11.1,11.1c0,0,0,0,0,0c0-6.1-5-11.1-11.1-11.1c0,0,0,0,0,0H629.7c-4.3,0-8.2,2.5-10,6.4c0.1,0.7,0.2,1.4,0.2,2.2
		v29.2c0,1.6-0.4,3.2-1,4.7c0.5,2.5,1.9,4.8,3.9,6.4h27.5c2.6,0,5,0.9,7,2.5h12c-4.6,1.5-7.7,5.7-7.7,10.5c0-0.7-0.1-1.4-0.2-2.1
		c0,0,0,0.1,0,0.1v29.2c0,0.9-0.1,1.9-0.4,2.8c0.2,0.2,0.3,0.4,0.5,0.6c0.1-0.5,0.1-0.9,0.1-1.4c0,0.6,0.1,1.3,0.2,1.9
		c0.1,0.4,0.2,0.7,0.2,1.1c0.7,2.5,2.2,4.6,4.3,6.1h-9.5c0.1-0.1,0.2-0.1,0.2-0.2c-0.9,0-1.8-0.1-2.7-0.1c-0.3,0-0.6-0.1-0.9-0.2
		c-1,0.3-2.1,0.5-3.2,0.5l-65.6,2c-3,2.1-4.8,5.5-4.8,9.1V259c0,4.8,3.1,9.1,7.7,10.5l62.7,0.5c1.1,0,2.2,0.2,3.3,0.5
		c0.7,0.1,1.4,0.2,2.1,0.4c0.1,0,0.1,0,0.2,0c-0.6-0.3-1.2-0.6-1.9-0.8h15.4c-4.6,1.5-7.7,5.7-7.7,10.5c0-0.6-0.1-1.3-0.2-1.9
		c-0.1,0.1-0.2,0.2-0.2,0.3c0.1,0.7,0.2,1.4,0.2,2.1v29.2c0,1.4,0.2,1,0.2-0.5c0,3.6,1.8,7,4.8,9.1l39.1,1.3c1.3,0,2.7,0.2,3.9,0.7
		h9.4c-1.7,1.2-3,2.8-3.8,4.7c1,1.7,1.6,3.7,1.6,5.7v29.2c0,1.5-0.3,3-0.9,4.4c1.4,2.3,3.6,4,6.1,4.9h-10.3c-1.8,1.2-3.9,1.8-6,1.8
		h-38.8c-3.2,2-5.1,5.5-5.1,9.3c0-3.9-1.5,34.6-1.5,34.6c0,3.5,60.3,5,60.3,5c1.5,0,3,0.3,4.5,0.9c0.6-0.1,1.3-0.2,1.9-0.2
		c0,0,0,0-0.1,0h9.5c-3,2.1-4.8,5.5-4.8,9.1c0-0.5,0-1.1-0.1-1.6c-0.1,0.1-0.1,0.2-0.2,0.4c0.2,0.8,0.3,1.6,0.3,2.5v28
		c0,6.1,5,11.1,11.1,11.1c0,0,0,0,0,0h-17c-1.6,0.8-3.3,1.3-5.1,1.3h-69.4c-3.7,1.9-6,5.7-6,9.8v29.2c0,6.1,5,11.1,11.1,11.1h0H763
		c6.1,0,11.1-5,11.1-11.1c0,0,0,0,0,0c0,6.1,5,11.1,11.1,11.1c0,0,0,0,0,0H892c6.1,0,11.1-5,11.1-11.1c0,0,0,0,0,0v-29.2
		c0-6.1-5-11.1-11.1-11.1c0,0,0,0,0,0h86.5c6.1,0,11.1-5,11.1-11.1c0,0,0,0,0,0v-29.2C989.5,424.1,984.6,419.1,978.5,419.1
		C978.5,419.1,978.5,419.1,978.5,419.1z M713.6,220.7c-3,2.1-4.8,5.5-4.8,9.1c0-3.6-1.8-7-4.8-9.1H713.6z M701.2,269.5
		c4.6-1.5,7.7-5.7,7.7-10.5c0,4.8,3.1,9.1,7.7,10.5H701.2z M740,169.3c4.6-1.5,7.7-5.7,7.7-10.5c0,4.8,3.1,9.1,7.7,10.5H740z
		 M774,481.6c0-6.1-5-11.1-11.1-11.1c0,0,0,0,0,0h22.1C779,470.5,774,475.5,774,481.6C774,481.6,774,481.6,774,481.6z M785.8,419.1
		c3-2.1,4.8-5.5,4.8-9.1c0,3.6,1.8,7,4.8,9.1H785.8z M790.5,380.8c0-4.8-3.1-9.1-7.7-10.5h15.4C793.6,371.7,790.5,376,790.5,380.8z
		 M785.8,318.9c3-2.1,4.8-5.5,4.8-9.1c0,3.6,1.8,7,4.8,9.1H785.8z M790.5,280.6c0-4.8-3.1-9.1-7.7-10.5h15.4
		C793.6,271.5,790.5,275.8,790.5,280.6L790.5,280.6z M785.8,218.7c3-2.1,4.8-5.5,4.8-9.1c0,3.6,1.8,7,4.8,9.1H785.8z M790.5,180.4
		c0-4.8-3.1-9.1-7.7-10.5h15.4C793.6,171.3,790.5,175.5,790.5,180.4z M865.2,421.1c-3,2.1-4.8,5.5-4.8,9.1c0-3.6-1.8-7-4.8-9.1
		H865.2z M849.4,470.5c6.1,0,11.1-5,11.1-11.1c0,0,0,0,0,0c0,6.1,5,11.1,11.1,11.1c0,0,0,0,0,0H849.4z"/>
	<path class="st2" d="M661.5,410.1"/>
	<path class="st2" d="M645,481.6c0-0.5,0-0.9-0.1-1.4C644.9,480.6,645,481.1,645,481.6z"/>
	<path class="st2" d="M579.8,259c0,0.4,0,0.7-0.1,1C579.8,259.7,579.8,259.3,579.8,259z"/>
	<path class="st2" d="M450.9,260.6c0.1,0.4,0.2,0.9,0.3,1.3C451.1,261.5,451,261.1,450.9,260.6z"/>
	<path class="st2" d="M327,325.9c-0.2-0.2-0.3-0.4-0.5-0.6c-0.2-0.3-0.3-0.6-0.3-0.9c0,0.8,0,1.5,0,2.3c0.3,1.1,0.5,2.2,0.5,3.3
		c0-1.1,0.2-2.2,0.5-3.2c-0.1-0.3-0.2-0.5-0.2-0.8C327,326,327,326,327,325.9z"/>
	<path class="st2" d="M478.5,118.4H371.6c-6.1,0-11.1,5-11.1,11.1c0,0,0,0,0,0c0-6.1-5-11.1-11.1-11.1c0,0,0,0,0,0H242.6
		c-6.1,0-11.1,5-11.1,11.1c0,0,0,0,0,0v29.2c0,4.8,3.1,9.1,7.7,10.5h-82.9c-6.1,0-11.1,5-11.1,11.1c0,0,0,0,0,0v29.2
		c0,3.6,1.8,7,4.8,9.1H74.7c-6.1,0-11.1,5-11.1,11.1c0,0,0,0,0,0V259c0,6.1,5,11.1,11.1,11.1c0,0,0,0,0,0H153
		c-4.6,1.5-7.7,5.7-7.7,10.5v29.2c0,3.6,1.8,7,4.8,9.1H79.7c-6.1,0-11.1,5-11.1,11.1c0,0,0,0,0,0v29.2c0,6.1,5,11.1,11.1,11.1
		c0,0,0,0,0,0H153c-4.6,1.5-7.7,5.7-7.7,10.5v29.2c0,6.1,5,11.1,11.1,11.1l0,0H220c-3,2.1-4.8,5.5-4.8,9.1v29.2
		c0,6.1,5,11.1,11.1,11.1h-86.5c-6.1,0-11.1,5-11.1,11.1c0,0,0,0,0,0v29.2c0,6.1,5,11.1,11.1,11.1c0,0,0,0,0,0h106.9
		c6.1,0,11.1-5,11.1-11.1v0c0,6.1,5,11.1,11.1,11.1c0,0,0,0,0,0h106.9c6.1,0,11.1-5,11.1-11.1v0v-29.2c0-4.1-2.3-7.9-6-9.8h-23.1
		c-1.8,0-3.5-0.4-5.1-1.3h-19.5c6.1,0,11.1-5,11.1-11.1l0,0c0,4.8,2.5-28,2.5-28c0-6.1,5-11.1,11.1-11.1c0,0,0,0,0,0l40.7-1.3
		c1.2-0.8,2.2-1.8,2.9-3c-0.6-1.4-0.9-2.8-0.9-4.3v-29.2c0-2.2,0.6-4.3,1.8-6.1c-0.9-2-2.3-3.8-4.2-5h-58c-2.1,0-4.2-0.6-6-1.8H319
		c4.6-1.5,7.7-5.7,7.7-10.5l-0.4-29c0-1.3-0.1-2.5-0.1-3.5c-0.7-2.4-2.2-4.4-4.2-5.8h9.5c-0.1,0-0.1,0.1-0.2,0.2
		c5.4-0.3,67.1-3.9,72.1-8c-0.1-0.8-0.2-1.5-0.1-2.3c-0.1-0.6-0.1-1.1-0.1-1.7v-29.2c0-0.4,0-0.7,0.1-1.1c-0.7-4.1-3.6-7.5-7.6-8.7
		h13.5c1.6-0.8,3.3-1.3,5.1-1.3h30.6c3.7-1.9,6-5.7,6-9.8v-29.2c0-3.6-1.8-7-4.8-9.1l-31.8-2c-5.4,0-8.9-2-6.1,0h-9.5
		c3-2.1,4.7-5.4,4.8-9c-0.1-0.7-0.2-1.4-0.2-2v-29.2c0,0,0,0,0-0.1c-0.8-4-3.6-7.3-7.5-8.5h11.6c2-1.6,4.5-2.5,7-2.5h71.3
		c2.6-2.1,4.1-5.2,4.1-8.6v-29.2C489.6,123.4,484.7,118.4,478.5,118.4L478.5,118.4z M197.4,220.7c-3,2.1-4.8,5.5-4.8,9.1
		c0-3.6-1.8-7-4.8-9.1H197.4z M192.7,259c0,4.8,3.1,9.1,7.7,10.5H185C189.5,268.1,192.7,263.8,192.7,259z M202.4,320.9
		c-3,2.1-4.8,5.5-4.8,9.1c0-3.6-1.8-7-4.8-9.1H202.4z M190,369.8c4.6-1.5,7.7-5.7,7.7-10.5c0,4.8,3.1,9.1,7.7,10.5H190z
		 M326.5,220.7c-3,2.1-4.8,5.5-4.8,9.1c0-3.6-1.8-7-4.8-9.1H326.5z M257.8,481.6c0-6.1-5-11.1-11.1-11.1c0,0,0,0,0,0h22.1
		C262.8,470.5,257.8,475.5,257.8,481.6C257.8,481.6,257.8,481.6,257.8,481.6z M269.5,419.1c3-2.1,4.8-5.5,4.8-9.1
		c0,3.6,1.8,7,4.8,9.1H269.5z M274.3,380.8c0-4.8-3.1-9.1-7.7-10.5H282C277.4,371.7,274.3,376,274.3,380.8L274.3,380.8z
		 M269.5,318.9c3-2.1,4.8-5.5,4.8-9.1c0,3.6,1.8,7,4.8,9.1H269.5z M274.3,280.6c0-4.8-3.1-9.1-7.7-10.5H282
		C277.4,271.5,274.3,275.8,274.3,280.6L274.3,280.6z M269.5,218.7c3-2.1,4.8-5.5,4.8-9.1c0,3.6,1.8,7,4.8,9.1H269.5z M274.3,180.4
		c0-4.8-3.1-9.1-7.7-10.5H282C277.4,171.3,274.3,175.5,274.3,180.4L274.3,180.4z M314,269.5c4.6-1.5,7.7-5.7,7.7-10.5
		c0,4.8,3.1,9.1,7.7,10.5H314z M352.8,169.3c4.6-1.5,7.7-5.7,7.7-10.5c0,4.8,3.1,9.1,7.7,10.5H352.8z"/>
	<path class="st2" d="M454.4,221.6c0.1,0,0.1-0.1,0.2-0.1C454.5,221.5,454.5,221.5,454.4,221.6z"/>
	<path class="st2" d="M453.7,222.3c-0.1,0.1-0.1,0.1-0.2,0.2C453.6,222.4,453.6,222.3,453.7,222.3z"/>
	<path class="st2" d="M452.7,223.4c0,0,0.1-0.1,0.1-0.1C452.8,223.4,452.8,223.4,452.7,223.4z"/>
	<path class="st2" d="M451.2,262.2c0.1,0.4,0.3,0.9,0.5,1.3C451.5,263,451.4,262.6,451.2,262.2z"/>
	<path class="st2" d="M452.4,264.8c0.2,0.4,0.5,0.8,0.8,1.1C452.9,265.6,452.7,265.2,452.4,264.8z"/>
	<path class="st2" d="M451.8,263.5c0.2,0.4,0.4,0.8,0.7,1.2C452.2,264.4,452,264,451.8,263.5z"/>
	<path class="st2" d="M451.1,227.2c0-0.1,0.1-0.3,0.1-0.4C451.1,226.9,451.1,227.1,451.1,227.2z"/>
	<path class="st2" d="M451.4,226c0-0.1,0.1-0.2,0.1-0.3C451.5,225.7,451.5,225.9,451.4,226z"/>
	<path class="st2" d="M450.8,228.5c0-0.1,0-0.3,0.1-0.4C450.9,228.2,450.9,228.3,450.8,228.5z"/>
	<path class="st2" d="M452.1,224.6C452.1,224.6,452.1,224.5,452.1,224.6C452.1,224.5,452.1,224.6,452.1,224.6z"/>
	<path class="st3" d="M353,169.8H241.6c-4.9,0-8.8-4-8.8-8.8v-33.7c0-4.9,4-8.8,8.8-8.8H353c4.9,0,8.8,4,8.8,8.8V161
		C361.8,165.8,357.9,169.8,353,169.8z"/>
	<path class="st3" d="M738.9,169.8H627.5c-4.9,0-8.8-4-8.8-8.8v-33.7c0-4.9,4-8.8,8.8-8.8h111.4c4.9,0,8.8,4,8.8,8.8V161
		C747.7,165.8,743.8,169.8,738.9,169.8z"/>
	<path class="st3" d="M910.5,219.9H799.2c-4.9,0-8.8-4-8.8-8.8v-33.7c0-4.9,4-8.8,8.8-8.8h111.4c4.9,0,8.8,4,8.8,8.8v33.7
		C919.4,216,915.4,219.9,910.5,219.9z"/>
	<path class="st3" d="M700,270H588.7c-4.9,0-8.8-4-8.8-8.8v-33.7c0-4.9,4-8.8,8.8-8.8H700c4.9,0,8.8,4,8.8,8.8v33.7
		C708.9,266.1,704.9,270,700,270z"/>
	<path class="st3" d="M910.5,321.4H799.2c-4.9,0-8.8-4-8.8-8.8v-33.7c0-4.9,4-8.8,8.8-8.8h111.4c4.9,0,8.8,4,8.8,8.8v33.7
		C919.4,317.5,915.4,321.4,910.5,321.4z"/>
	<path class="st3" d="M910.5,421.6H799.2c-4.9,0-8.8-4-8.8-8.8v-33.7c0-4.9,4-8.8,8.8-8.8h111.4c4.9,0,8.8,4,8.8,8.8v33.7
		C919.4,417.7,915.4,421.6,910.5,421.6z"/>
	<path class="st3" d="M852.4,420.4H739.5c-3.6,0-6.7,2.4-7.7,5.8c0,0.5,0,0.9-0.1,1.4c-0.1,0.3-0.1,0.5-0.2,0.8c0,0,0,0.1,0,0.1
		v35.2c0,4.5,3.6,8.1,8.1,8.1h112.9c4.5,0,8.1-3.6,8.1-8.1v-35.2C860.5,424,856.9,420.4,852.4,420.4L852.4,420.4z"/>
	<path class="st3" d="M765.2,521.9H653.8c-4.9,0-8.8-4-8.8-8.8v-33.7c0-4.9,4-8.8,8.8-8.8h111.4c4.9,0,8.8,4,8.8,8.8V513
		C774,517.9,770.1,521.9,765.2,521.9z"/>
	<path class="st3" d="M394.3,219.9H282.9c-4.9,0-8.8-4-8.8-8.8v-33.7c0-4.9,4-8.8,8.8-8.8h111.4c4.9,0,8.8,4,8.8,8.8v33.7
		C403.2,216,399.2,219.9,394.3,219.9z"/>
	<path class="st3" d="M314.1,270H202.8c-4.9,0-8.8-4-8.8-8.8v-33.7c0-4.9,4-8.8,8.8-8.8h111.4c4.9,0,8.8,4,8.8,8.8v33.7
		C323,266.1,319,270,314.1,270z"/>
	<path class="st3" d="M265.3,321.4H153.9c-4.9,0-8.8-4-8.8-8.8v-33.7c0-4.9,4-8.8,8.8-8.8h111.4c4.9,0,8.8,4,8.8,8.8v33.7
		C274.1,317.5,270.1,321.4,265.3,321.4z"/>
	<path class="st3" d="M317.9,371.5H206.5c-4.9,0-8.8-4-8.8-8.8V329c0-4.9,4-8.8,8.8-8.8h111.4c4.9,0,8.8,4,8.8,8.8v33.7
		C326.7,367.6,322.8,371.5,317.9,371.5z"/>
	<path class="st3" d="M265.3,421.6H153.9c-4.9,0-8.8-4-8.8-8.8v-33.7c0-4.9,4-8.8,8.8-8.8h111.4c4.9,0,8.8,4,8.8,8.8v33.7
		C274.1,417.7,270.1,421.6,265.3,421.6z"/>
	<path class="st2" d="M206.9,471.8H95.5c-4.9,0-8.8-4-8.8-8.8v-33.7c0-4.9,4-8.8,8.8-8.8h111.4c4.9,0,8.8,4,8.8,8.8V463
		C215.7,467.9,211.8,471.8,206.9,471.8z"/>
	<path class="st2" d="M960.4,371.5H849c-4.9,0-8.8-4-8.8-8.8v-33.7c0-4.9,4-8.8,8.8-8.8h111.4c4.9,0,8.8,4,8.8,8.8v33.7
		C969.2,367.5,965.3,371.5,960.4,371.5z"/>
	<path class="st2" d="M954.9,270.2H843.5c-4.9,0-8.8-4-8.8-8.8v-33.7c0-4.9,4-8.8,8.8-8.8h111.4c4.9,0,8.8,4,8.8,8.8v33.7
		C963.8,266.3,959.8,270.2,954.9,270.2z"/>
	<path class="st2" d="M1019.7,521.1H908.3c-4.9,0-8.8-4-8.8-8.8v-33.7c0-4.9,4-8.8,8.8-8.8h111.4c4.9,0,8.8,4,8.8,8.8v33.7
		C1028.5,517.1,1024.6,521.1,1019.7,521.1z"/>
	<path class="st2" d="M120.2,522H8.8C4,522,0,518,0,513.2v-33.7c0-4.9,4-8.8,8.8-8.8h111.4c4.9,0,8.8,4,8.8,8.8v33.7
		C129.1,518,125.1,522,120.2,522z"/>
	<path class="st2" d="M137.5,420.7H26.2c-4.9,0-8.8-4-8.8-8.8v-33.7c0-4.9,4-8.8,8.8-8.8h111.4c4.9,0,8.8,4,8.8,8.8v33.7
		C146.4,416.8,142.4,420.7,137.5,420.7z"/>
	<path class="st2" d="M137.5,321.3H26.2c-4.9,0-8.8-4-8.8-8.8v-33.7c0-4.9,4-8.8,8.8-8.8h111.4c4.9,0,8.8,4,8.8,8.8v33.7
		C146.4,317.3,142.4,321.3,137.5,321.3z"/>
	<path class="st2" d="M142.1,220H30.7c-4.9,0-8.8-4-8.8-8.8v-33.7c0-4.9,4-8.8,8.8-8.8h111.4c4.9,0,8.8,4,8.8,8.8v33.7
		C150.9,216.1,147,220,142.1,220z"/>
	<path class="st3" d="M142.1,220H30.7c-4.9,0-8.8-4-8.8-8.8v-33.7c0-4.9,4-8.8,8.8-8.8h111.4c4.9,0,8.8,4,8.8,8.8v33.7
		C150.9,216.1,147,220,142.1,220z"/>
	<path class="st2" d="M224.2,169.9H112.8c-4.9,0-8.8-4-8.8-8.8v-33.7c0-4.9,4-8.8,8.8-8.8h111.4c4.9,0,8.8,4,8.8,8.8V161
		C233.1,165.9,229.1,169.9,224.2,169.9z"/>
	<path class="st3" d="M336.7,471.8H225.3c-4.9,0-8.8-4-8.8-8.8v-33.7c0-4.9,4-8.8,8.8-8.8h111.4c4.9,0,8.8,4,8.8,8.8v33.7
		C345.5,467.8,341.6,471.8,336.7,471.8z"/>
	<path class="st3" d="M249,521.9H137.6c-4.9,0-8.8-4-8.8-8.8v-33.7c0-4.9,4-8.8,8.8-8.8H249c4.9,0,8.8,4,8.8,8.8V513
		C257.8,517.9,253.9,521.9,249,521.9z"/>
</g>
<path class="st4" d="M390.9,264.7h206.1c7.2,0,13,5.8,13,13v81.7c0,7.2-5.8,13-13,13H390.9c-7.2,0-13-5.8-13-13v-81.7
	C377.9,270.5,383.7,264.7,390.9,264.7z"/>
<rect x="396.4" y="355.8" class="st5" width="195" height="2"/>
<rect x="396.4" y="281.6" class="st6" width="195" height="74"/>
<circle class="st5" cx="441.8" cy="320.1" r="26.9"/>
<circle class="st5" cx="546" cy="320.1" r="26.9"/>
<rect x="473.7" y="372.3" class="st4" width="40.3" height="23.5"/>
<rect x="409.8" y="389.2" class="st4" width="168.1" height="134.5"/>
<rect x="406.5" y="550.6" class="st4" width="174.8" height="16.8"/>
<polygon class="st4" points="435.1,607.7 435.1,627.9 435.1,658.1 435.1,675 435.1,685 465.3,685 465.3,675 465.3,658.1 
	465.3,627.9 465.3,607.7 465.3,584.2 435.1,584.2 "/>
<polygon class="st4" points="525.9,584.2 525.9,607.7 525.9,627.9 525.9,658.1 525.9,675 525.9,685 556.1,685 556.1,675 
	556.1,658.1 556.1,627.9 556.1,607.7 556.1,584.2 "/>
<path class="st4" d="M386.9,419.4v31.1c-8.3,1.5-16,5.2-22.4,10.8c-5.9,5.4-10.4,12.1-13.3,19.5c-3.9,9.4-5.8,19.9-6.6,29.8
	c-1,13.3-0.3,26.8,1.9,40H313c-1.4-18.6-1-34.5,0.9-48.2c2.1-15.4,5.9-28,10.8-38.2c9.7-20.4,23.6-31.5,35.8-37.5
	C374.9,419.4,386.9,419.4,386.9,419.4z"/>
<rect x="435.1" y="584.2" class="st6" width="30.3" height="23.5"/>
<rect x="435.1" y="627.9" class="st6" width="30.3" height="30.3"/>
<rect x="435.1" y="675" class="st6" width="30.3" height="10.1"/>
<rect x="525.9" y="584.2" class="st6" width="30.3" height="23.5"/>
<rect x="525.9" y="627.9" class="st6" width="30.3" height="30.3"/>
<rect x="525.9" y="675" class="st6" width="30.3" height="10.1"/>
<path class="st6" d="M386.9,419.4v31.1c-8.3,1.5-16,5.2-22.4,10.8l-4.2-34.7C374.9,419.4,386.9,419.4,386.9,419.4z"/>
<path class="st6" d="M351.3,480.8c-3.9,9.4-5.8,19.9-6.6,29.8l-30.9-8.3c2.1-15.4,5.9-28,10.8-38.2L351.3,480.8z"/>
<path class="st4" d="M600.9,419.4v31.1c8.3,1.5,16,5.2,22.4,10.8c5.9,5.4,10.4,12.1,13.3,19.5c3.9,9.4,5.8,19.9,6.6,29.8
	c1,13.3,0.3,26.8-1.9,40h33.6c1.4-18.6,1-34.5-0.9-48.2c-2.1-15.4-5.9-28-10.8-38.2c-9.7-20.4-23.6-31.5-35.8-37.5
	C613,419.4,600.9,419.4,600.9,419.4z"/>
<path class="st6" d="M600.9,419.4v31.1c8.3,1.5,16,5.2,22.4,10.8l4.2-34.7C613,419.4,600.9,419.4,600.9,419.4z"/>
<path class="st6" d="M636.5,480.8c3.9,9.4,5.8,19.9,6.6,29.8l30.9-8.3c-2.1-15.4-5.9-28-10.8-38.2L636.5,480.8z"/>
<path class="st5" d="M581,413.1v56.3c-2-2.2-3.1-5-3.1-8v-40.4C577.8,418.1,578.9,415.3,581,413.1z"/>
<path class="st5" d="M410.4,416.8V459c-0.2,2.7-1.3,5.2-3.1,7.1v-56.4C409.1,411.6,410.2,414.2,410.4,416.8z"/>
<rect x="418.3" y="523.7" class="st5" width="151.3" height="2"/>
<rect x="414.9" y="567.4" class="st5" width="74" height="1.5"/>
<rect x="495.6" y="567.4" class="st5" width="74" height="1.5"/>
<rect x="423.1" y="165.2" class="st4" width="11.6" height="99.6"/>
<rect x="555.9" y="165.2" class="st4" width="11.6" height="99.6"/>
<circle class="st5" cx="428.5" cy="165.9" r="13.1"/>
<circle class="st4" cx="428.5" cy="165.2" r="13.1"/>
<circle class="st5" cx="562.1" cy="165.9" r="13.1"/>
<circle class="st4" cx="562.1" cy="165.2" r="13.1"/>
<path class="st7" d="M914.6,483.5c0,0,13.3,17.5-6.2,43.8s-35.6,48.6-29.1,65c0,0,29.4-48.9,53.4-49.6S941,513,914.6,483.5z"/>
<path class="st5" d="M914.6,483.5c1.2,1.7,2.1,3.5,2.7,5.5c23.4,27.5,35.8,53.1,13.4,53.7c-20.9,0.6-46,38-52,47.5
	c0.2,0.7,0.4,1.4,0.7,2.2c0,0,29.4-48.9,53.4-49.6C956.7,542,941,513,914.6,483.5z"/>
<path class="st8" d="M939.5,505.8c0,6.1-0.7,11.1-1.5,11.1s-1.5-5-1.5-11.1s0.9-3.3,1.7-3.3S939.5,499.6,939.5,505.8z"/>
<path class="st8" d="M948,513.1c-5.4,2.9-10.1,4.7-10.5,4s3.6-3.7,9-6.7s3.3-0.8,3.7-0.1S953.4,510.2,948,513.1z"/>
<path class="st7" d="M844.2,483.5c0,0-13.3,17.5,6.2,43.8s35.6,48.6,29.1,65c0,0-29.4-48.9-53.4-49.6S817.8,513,844.2,483.5z"/>
<path class="st5" d="M844.2,483.5c-1.2,1.7-2.1,3.5-2.7,5.5c-23.4,27.5-35.8,53.1-13.4,53.7c20.9,0.6,46,38,52,47.5
	c-0.2,0.7-0.4,1.4-0.7,2.2c0,0-29.4-48.9-53.4-49.6S817.8,513,844.2,483.5z"/>
<path class="st8" d="M819.3,505.8c0,6.1,0.7,11.1,1.5,11.1s1.5-5,1.5-11.1s-0.9-3.3-1.7-3.3S819.3,499.6,819.3,505.8z"/>
<path class="st8" d="M810.8,513.1c5.4,2.9,10.1,4.7,10.5,4s-3.6-3.7-9-6.7s-3.3-0.8-3.7-0.1S805.4,510.2,810.8,513.1z"/>
<path class="st9" d="M823.6,590.1c0,0,37.3-1.1,48.6-9.2s57.4-17.6,60.2-4.7s56.1,63.9,13.9,64.2s-97.9-6.6-109.1-13.4
	S823.6,590.1,823.6,590.1z"/>
<path class="st10" d="M947,635.9c-42.1,0.3-97.9-6.6-109.1-13.4c-8.5-5.2-12-23.9-13.1-32.5c-0.8,0-1.2,0-1.2,0s2.4,30.1,13.6,36.9
	s67,13.7,109.1,13.4c12.2-0.1,16.4-4.4,16.1-10.8C960.7,633.4,956.1,635.9,947,635.9z"/>
</svg>
