<?xml version="1.0" encoding="utf-8"?>
<!-- Generator: Adobe Illustrator 22.0.1, SVG Export Plug-In . SVG Version: 6.00 Build 0)  -->
<svg version="1.1" id="a2942aa7-bf0d-42c0-bc52-bf4c952347c5"
	 xmlns="http://www.w3.org/2000/svg" xmlns:xlink="http://www.w3.org/1999/xlink" x="0px" y="0px" viewBox="0 0 925.5 645.2"
	 style="enable-background:new 0 0 925.5 645.2;" xml:space="preserve">
<style type="text/css">
	.st0{fill:#F2F2F2;}
	.st1{fill:#D7D7DB;}
	.st2{fill:#696872;}
	.st3{fill:#A3C3D3;}
	.st4{fill:#3F3D56;}
	.st5{fill:#909293;}
	.st6{fill:#B6B6B7;}
	.st7{fill:#E3E3E5;}
	.st8{fill:#FFB9B9;}
	.st9{opacity:0.1;enable-background:new    ;}
	.st10{fill:#EDF2F4;}
	.st11{fill:#B4B6CC;}
	.st12{fill:#BFD2D8;}
	.st13{opacity:0.1;fill:#B4B6CC;enable-background:new    ;}
	.st14{fill:#AAACBA;}
	.st15{fill:#2F2E41;}
</style>
<title>percentages</title>
<circle class="st0" cx="233.1" cy="328.5" r="18.4"/>
<circle class="st0" cx="170.1" cy="540.5" r="11.4"/>
<rect x="380" y="21.5" class="st0" width="140" height="2"/>
<rect x="418" y="3.5" class="st0" width="2" height="18.5"/>
<rect x="479" y="3.5" class="st0" width="2" height="18.5"/>
<rect x="705" y="487.5" class="st0" width="2" height="18.5"/>
<rect x="613" y="200.5" class="st0" width="140" height="2"/>
<rect x="651" y="182.5" class="st0" width="2" height="18.5"/>
<rect x="712" y="182.5" class="st0" width="2" height="18.5"/>
<rect x="613" y="128.5" class="st0" width="140" height="2"/>
<rect x="651" y="110.5" class="st0" width="2" height="18.5"/>
<rect x="712" y="110.5" class="st0" width="2" height="18.5"/>
<rect x="306" y="138.5" class="st0" width="140" height="2"/>
<rect x="344" y="120.5" class="st0" width="2" height="18.5"/>
<rect x="405" y="120.5" class="st0" width="2" height="18.5"/>
<rect x="204" y="91.5" class="st0" width="140" height="2"/>
<rect x="242" y="73.5" class="st0" width="2" height="18.5"/>
<rect x="303" y="73.5" class="st0" width="2" height="18.5"/>
<rect x="141" y="276.5" class="st0" width="140" height="2"/>
<rect x="179" y="258.5" class="st0" width="2" height="18.5"/>
<rect x="240" y="258.5" class="st0" width="2" height="18.5"/>
<rect x="71" y="480.5" class="st0" width="140" height="2"/>
<rect x="109" y="462.5" class="st0" width="2" height="18.5"/>
<rect x="170" y="462.5" class="st0" width="2" height="18.5"/>
<rect x="733" y="396.5" class="st0" width="140" height="2"/>
<rect x="771" y="378.5" class="st0" width="2" height="18.5"/>
<rect x="832" y="378.5" class="st0" width="2" height="18.5"/>
<rect x="692" y="268.5" class="st0" width="140" height="2"/>
<rect x="792" y="270" class="st0" width="2" height="18.5"/>
<rect x="731" y="270" class="st0" width="2" height="18.5"/>
<rect x="14" y="118.5" class="st0" width="140" height="2"/>
<rect x="114" y="120" class="st0" width="2" height="18.5"/>
<rect x="53" y="120" class="st0" width="2" height="18.5"/>
<rect x="23" y="380.5" class="st0" width="140" height="2"/>
<rect x="123" y="382" class="st0" width="2" height="18.5"/>
<rect x="62" y="382" class="st0" width="2" height="18.5"/>
<rect x="464" y="53.5" class="st0" width="140" height="2"/>
<rect x="564" y="55" class="st0" width="2" height="18.5"/>
<rect x="503" y="55" class="st0" width="2" height="18.5"/>
<rect x="71" y="192.5" class="st0" width="140" height="2"/>
<rect x="109" y="174.5" class="st0" width="2" height="18.5"/>
<rect x="170" y="174.5" class="st0" width="2" height="18.5"/>
<path class="st1" d="M232.5,173v471h436V173H232.5z M450.5,207c-8.3,0-15-6.7-15-15s6.7-15,15-15s15,6.7,15,15S458.8,207,450.5,207
	L450.5,207L450.5,207z"/>
<path class="st2" d="M37.3,603.8c6.9,25.6,30.6,41.4,30.6,41.4s12.5-25.6,5.6-51.2s-30.6-41.4-30.6-41.4S30.3,578.2,37.3,603.8z"/>
<path class="st3" d="M47.4,598.3c19,18.5,21.3,46.9,21.3,46.9s-28.4-1.6-47.4-20S0,578.3,0,578.3S28.4,579.8,47.4,598.3z"/>
<rect x="16.5" y="643" class="st4" width="909" height="2"/>
<path class="st4" d="M192,581.3c0-9.1-5.6-17.2-14-20.5c11.3-4.4,16.9-17.1,12.5-28.5c-4.4-11.3-17.1-16.9-28.5-12.5
	c-11.3,4.4-16.9,17.1-12.5,28.5c2.2,5.8,6.8,10.3,12.5,12.5c-11.3,4.4-16.9,17.1-12.5,28.5c2.2,5.8,6.8,10.3,12.5,12.5
	c-11.3,4.4-16.9,17.1-12.5,28.5c4.4,11.3,17.1,16.9,28.5,12.5c11.3-4.4,16.9-17.1,12.5-28.5c-2.2-5.8-6.8-10.3-12.5-12.5
	C186.4,598.5,192,590.4,192,581.3z M150,540.3c0-11,8.9-20,20-20c11,0,20,8.9,20,20c0,9.3-6.4,17.4-15.5,19.5c-3-0.6-6-0.6-9,0
	C156.4,557.7,150,549.6,150,540.3z M190,622.3c0,11-8.9,20-20,20c-11,0-20-8.9-20-20c0-9.3,6.4-17.4,15.5-19.5c3,0.6,6,0.6,9,0
	C183.6,605,190,613,190,622.3z M174.5,600.8c-3-0.6-6-0.6-9,0c-10.8-2.5-17.5-13.2-15-24c1.7-7.4,7.5-13.3,15-15c3,0.6,6,0.6,9,0
	c10.8,2.5,17.5,13.2,15,24C187.8,593.3,182,599.1,174.5,600.8z"/>
<path class="st0" d="M511,271.5H282c-3.9,0-7-3.1-7-7c0-3.9,3.1-7,7-7h229c3.9,0,7,3.1,7,7C518,268.4,514.9,271.5,511,271.5z"/>
<path class="st0" d="M511,343.5H282c-3.9,0-7-3.1-7-7c0-3.9,3.1-7,7-7h229c3.9,0,7,3.1,7,7C518,340.4,514.9,343.5,511,343.5z"/>
<path class="st0" d="M511,415.5H282c-3.9,0-7-3.1-7-7s3.1-7,7-7h229c3.9,0,7,3.1,7,7S514.9,415.5,511,415.5z"/>
<path class="st0" d="M511,487.5H282c-3.9,0-7-3.1-7-7s3.1-7,7-7h229c3.9,0,7,3.1,7,7S514.9,487.5,511,487.5z"/>
<path class="st0" d="M511,559.5H282c-3.9,0-7-3.1-7-7s3.1-7,7-7h229c3.9,0,7,3.1,7,7S514.9,559.5,511,559.5z"/>
<path class="st5" d="M471,271.5H281c-3.9,0-7-3.1-7-7c0-3.9,3.1-7,7-7h190c3.9,0,7,3.1,7,7C478,268.4,474.9,271.5,471,271.5z"/>
<path class="st5" d="M412,343.5H281c-3.9,0-7-3.1-7-7c0-3.9,3.1-7,7-7h131c3.9,0,7,3.1,7,7C419,340.4,415.9,343.5,412,343.5z"/>
<path class="st5" d="M340,415.5h-59c-3.9,0-7-3.1-7-7c0-3.9,3.1-7,7-7l0,0h59c3.9,0,7,3.1,7,7S343.9,415.5,340,415.5z"/>
<path class="st5" d="M489,487.5H281c-3.9,0-7-3.1-7-7s3.1-7,7-7h208c3.9,0,7,3.1,7,7S492.9,487.5,489,487.5z"/>
<path class="st5" d="M443,559.5H281c-3.9,0-7-3.1-7-7s3.1-7,7-7h162c3.9,0,7,3.1,7,7S446.9,559.5,443,559.5z"/>
<rect x="604" y="257.5" class="st5" width="2" height="14"/>
<path class="st5" d="M621,272.5c-4.4,0-8-3.6-8-8s3.6-8,8-8c4.4,0,8,3.6,8,8C629,268.9,625.4,272.5,621,272.5z M621,258.5
	c-3.3,0-6,2.7-6,6s2.7,6,6,6s6-2.7,6-6C627,261.2,624.3,258.5,621,258.5z"/>
<rect x="604" y="329.5" class="st5" width="2" height="14"/>
<path class="st5" d="M621,344.5c-4.4,0-8-3.6-8-8s3.6-8,8-8c4.4,0,8,3.6,8,8C629,340.9,625.4,344.5,621,344.5z M621,330.5
	c-3.3,0-6,2.7-6,6s2.7,6,6,6s6-2.7,6-6C627,333.2,624.3,330.5,621,330.5z"/>
<rect x="604" y="401.5" class="st5" width="2" height="14"/>
<path class="st5" d="M621,416.5c-4.4,0-8-3.6-8-8s3.6-8,8-8c4.4,0,8,3.6,8,8C629,412.9,625.4,416.5,621,416.5z M621,402.5
	c-3.3,0-6,2.7-6,6s2.7,6,6,6s6-2.7,6-6C627,405.2,624.3,402.5,621,402.5z"/>
<rect x="604" y="473.5" class="st5" width="2" height="14"/>
<path class="st5" d="M621,488.5c-4.4,0-8-3.6-8-8s3.6-8,8-8c4.4,0,8,3.6,8,8C629,484.9,625.4,488.5,621,488.5z M621,474.5
	c-3.3,0-6,2.7-6,6s2.7,6,6,6s6-2.7,6-6C627,477.2,624.3,474.5,621,474.5z"/>
<rect x="604" y="545.5" class="st5" width="2" height="14"/>
<path class="st5" d="M621,560.5c-4.4,0-8-3.6-8-8s3.6-8,8-8c4.4,0,8,3.6,8,8C629,556.9,625.4,560.5,621,560.5z M621,546.5
	c-3.3,0-6,2.7-6,6s2.7,6,6,6s6-2.7,6-6C627,549.2,624.3,546.5,621,546.5z"/>
<circle class="st5" cx="621" cy="264.5" r="4"/>
<circle class="st5" cx="621" cy="480.5" r="4"/>
<circle class="st5" cx="621" cy="552.5" r="4"/>
<circle class="st4" cx="451.5" cy="192" r="7"/>
<circle class="st4" cx="451.5" cy="7" r="7"/>
<rect x="450.5" y="7" class="st4" width="2" height="185"/>
<path class="st6" d="M856.6,384.5v24.8c0,0,6,39.9,6,74.8s-9.6,116.1-9.6,116.1s-19.3,6.9-20.6-3.7c-1.4-10.6-5-66.5-5-74.8
	s-16.1-71.1-16.1-71.1l-10.1,69.7c0,0,3.2,82.6,0,84.9s-18.8,6.4-20.6,2.3S769,514.8,769,514.8s-7.8-115.6-3.2-122.5
	c4.6-6.9,8.7-12.4,8.7-12.4S840.1,363.8,856.6,384.5z"/>
<path class="st7" d="M850.6,597.4l1.2,7.5c0.4,2.6,0.6,5.1,0.8,7.7c0.2,3.8,0.8,9.5,2.9,10.5c3.2,1.4,24.1,19,9.4,19.9
	c-14.7,0.9-22,2.5-26.4-0.9c-5.1-4,0.7-2.2-1.6-2.2s-5,0-6-3.7c-0.9-3.7,1.4-10.1,1.4-10.1v-28.7H850.6z"/>
<path class="st7" d="M782.1,597l-1.2,7.5c-0.4,2.6-0.6,5.1-0.8,7.7c-0.2,3.8-0.8,9.5-2.9,10.5c-3.2,1.4-24.1,19-9.4,19.9
	c14.7,0.9,22,2.5,26.4-0.9c5.1-4-0.7-2.2,1.6-2.2s5,0,6-3.7c0.9-3.7-1.4-10.1-1.4-10.1V597H782.1z"/>
<path class="st8" d="M795.1,185.4c0,0,7.8,19.3,13.3,22.5s2.8,17.9,2.8,17.9L797.4,245h-11l-13.3-22.9c0,0-0.9-15.1-3.7-18.8
	C766.7,199.6,795.1,185.4,795.1,185.4z"/>
<path class="st9" d="M795.1,185.4c0,0,7.8,19.3,13.3,22.5s2.8,17.9,2.8,17.9L797.4,245h-11l-13.3-22.9c0,0-0.9-15.1-3.7-18.8
	C766.7,199.6,795.1,185.4,795.1,185.4z"/>
<path class="st10" d="M806.6,224.8l20.6,4.6l15.1,152.3c0,0-8.3,1.4-16.5,12.4s-18.4,9.2-23.4,6.4s-25.2-10.6-25.7-13.8
	c-0.5-3.2,0.9-59.6,0.9-59.6L764.9,239l6.4-9.6h11.5l9.2,7.8L806.6,224.8z"/>
<circle class="st8" cx="775.4" cy="185.4" r="23.9"/>
<path class="st11" d="M809.8,217c0,0,45,4.6,49.1,14.2c4.1,9.6-2.8,52.3-2.8,52.3s16.5,37.2,16.1,45.9c-0.5,8.7,15.6,68.4-1.8,61.5
	s-11.9-24.8-20.6-11.9c-8.7,12.8-12.4,11-12.4,11s-8.7,14.2-11.5,12.8c-2.8-1.4-4.6-11.9,1.4-17s5-13.8-6.4-30.3
	c-11.5-16.5-23.4-103.2-16.5-116.5S809.8,217,809.8,217z"/>
<polygon class="st8" points="856.6,393.2 848.8,400.5 839.2,394.1 843.3,384.5 "/>
<path class="st11" d="M776.8,224.8c0,0-34.9,12.8-34.9,26.6c0,13.8,21.1,73.9,21.1,73.9s0,15.6-0.9,19.3s-15.4,35.7-2.8,38.5
	c7.9,1.8,14.3,6.5,14.9,13.1c0.7,7.8-5.3,17.8-4.8,19.5c0.9,3.2,6.4,7.8,6,5.5c-0.5-2.3,3.7-35.3,10.1-50s-2.8-113.3-4.6-126.2
	C780,238.2,778.6,231.4,776.8,224.8z"/>
<polygon class="st8" points="758.4,392.3 766.7,412 772.9,399.4 765.8,383.6 "/>
<path class="st12" d="M802.3,200.1c0,0,7.5,3.1,12.1,3.1s23.4,9.6,17,15.6c-6.4,6-16.1,7.3-20.6,16.1c-4.6,8.7-6.9,10.1-6.9,10.1
	l-8.2-11c0,0,11.4-12.9,10.9-17S802.3,200.1,802.3,200.1z"/>
<path class="st12" d="M771.9,211.2c0,0-5.6,2.2-7,5.8s-10.1,10.6-6.4,12.4c3.7,1.8,19.7,9.2,22.9,10.6s9.2-3.9,9.2-3.9s-8-4.6-8-7.8
	S771.9,211.2,771.9,211.2z"/>
<path class="st11" d="M752.9,245l-11,2.8c0,0-15.1,67.9-10.6,84.9c4.6,17,26.2,67.9,26.2,67.9l13.8-16.1c0,0-6-36.5-9.4-38.9
	c-3.4-2.4-1.1-7.4-1.1-8.8c0-1.4,1.4-0.5-1.8-3.7s11.9-21.1,7.8-26.2S752.9,245,752.9,245z"/>
<path class="st13" d="M861.4,257.6l-6.7-25c0,0,17.9,12.8,21.6,31.7s17.9,56.4,8.7,72.9c-9.2,16.5-25.2,64.2-30.7,63.3
	c-5.5-0.9-18.8-12.4-19.3-14.2c-0.5-1.8,23.9-44,20.2-47.3c-3.7-3.2-2.8-11.5,0-13.3c2.8-1.8,6-10.6,3.7-10.1
	c-2.3,0.5-9.2-4.1-7.8-9.2c1.4-5-6.9-39-6.9-39L861.4,257.6z"/>
<path class="st14" d="M852.5,229.4l6.4,1.8c0,0,17.9,12.8,21.6,31.7s17.9,56.4,8.7,72.9c-9.2,16.5-25.2,64.2-30.7,63.3
	c-5.5-0.9-18.8-12.4-19.3-14.2c-0.5-1.8,23.9-44,20.2-47.3c-3.7-3.2-2.8-11.5,0-13.3c2.8-1.8,6-10.6,3.7-10.1
	c-2.3,0.5-9.2-4.1-7.8-9.2c1.4-5-6.9-39-6.9-39L852.5,229.4z"/>
<path class="st15" d="M793.9,163.8l4.5-1.6c0,0-9.4-9.4-22.4-8.5l3.7-3.7c0,0-8.9-3.3-17.1,5.3c-4.3,4.5-9.2,9.8-12.3,15.7h-4.8l2,4
	l-7,4l7.2-0.7c-0.7,3.5-0.4,7,0.7,10.4l1.6,4.5c0,0,6.5-13,6.5-14.6v4.1c0,0,4.5-3.7,4.5-6.1l2.4,2.8l1.2-4.5l15.1,4.5l-2.4-3.7
	l9.4,1.2l-3.7-4.5c0,0,10.6,5.3,11,9.8s5.7,10.2,5.7,10.2l2.4-4.1C802.1,188.2,805.7,169.9,793.9,163.8z"/>
<ellipse class="st8" cx="793" cy="182.5" rx="3.5" ry="5.5"/>
</svg>
