<?xml version="1.0" encoding="utf-8"?>
<!-- Generator: Adobe Illustrator 22.0.1, SVG Export Plug-In . SVG Version: 6.00 Build 0)  -->
<svg version="1.1" id="Layer_1" xmlns="http://www.w3.org/2000/svg" xmlns:xlink="http://www.w3.org/1999/xlink" x="0px" y="0px"
	 viewBox="0 0 1300 400" style="enable-background:new 0 0 1300 400;" xml:space="preserve">
<style type="text/css">
	.st0{fill:url(#SVGID_1_);stroke:#000000;stroke-width:1.6452;stroke-miterlimit:10;}
	.st1{fill:none;stroke:#535461;stroke-width:0.6159;stroke-miterlimit:10;}
	.st2{fill:#0D8CD8;}
	.st3{opacity:0.25;enable-background:new    ;}
	.st4{opacity:0.1;fill:#0D8CD8;enable-background:new    ;}
	.st5{fill:#B77B7F;}
	.st6{fill:#DDA2A6;}
	.st7{opacity:0.1;enable-background:new    ;}
	.st8{fill:#0071B7;}
	.st9{fill:#FFD037;}
	.st10{fill:#65617D;}
	.st11{fill:#9D9CB5;}
	.st12{fill:#3F3D56;}
	.st13{fill:#FFB9B9;}
	.st14{fill:#575A89;}
	.st15{fill:#2F2E41;}
</style>
<linearGradient id="SVGID_1_" gradientUnits="userSpaceOnUse" x1="0" y1="200" x2="1300" y2="200">
	<stop  offset="0" style="stop-color:#007194"/>
	<stop  offset="1" style="stop-color:#41C1C9"/>
</linearGradient>
<rect class="st0" width="1300" height="400"/>
<path class="st1" d="M1128.8,278c0,0,8.4-12.5,21.1-16.1c5.3-1.5,10-4.4,13.1-8.3c1.5-1.9,2.8-3.8,3.9-5.9"/>
<path class="st2" d="M1174.9,245.4c-1.4,1.2-8.2,2.4-8.2,2.4s1.6-5.6,3.1-6.8c1.4-1.2,3.8-1.2,5.1,0.1
	C1176.4,242.3,1176.3,244.2,1174.9,245.4L1174.9,245.4z"/>
<path class="st2" d="M1171.1,255.6c-2,0.3-8.4-1.7-8.4-1.7s5-3.9,7-4.3c2-0.3,3.9,0.8,4.3,2.4
	C1174.4,253.6,1173.1,255.2,1171.1,255.6L1171.1,255.6L1171.1,255.6z"/>
<path class="st2" d="M1157.2,266.5c-1.9-0.6-6.2-5-6.2-5s6.7-1.3,8.6-0.7c1.9,0.5,3,2.2,2.4,3.9c-0.6,1.6-2.7,2.5-4.6,2
	C1157.3,266.6,1157.3,266.6,1157.2,266.5L1157.2,266.5z"/>
<path class="st2" d="M1144.5,272.9c-2-0.3-7.2-4.1-7.2-4.1s6.4-2.2,8.3-1.9c2,0.3,3.4,1.8,3.1,3.5
	C1148.4,272,1146.6,273.1,1144.5,272.9C1144.5,272.9,1144.5,272.9,1144.5,272.9L1144.5,272.9z"/>
<path class="st2" d="M1157.1,249.4c0,1.7,3.6,6.6,3.6,6.6s3.7-4.9,3.7-6.6c0-1.7-1.6-3-3.7-3
	C1158.7,246.4,1157.1,247.8,1157.1,249.4L1157.1,249.4z"/>
<path class="st2" d="M1142.3,257c0.6,1.6,5.8,5.4,5.8,5.4s1.7-5.6,1.1-7.2c-0.6-1.6-2.7-2.5-4.6-2
	C1142.8,253.7,1141.7,255.4,1142.3,257L1142.3,257z"/>
<path class="st2" d="M1129.1,266c0.3,1.7,4.7,6.1,4.7,6.1s2.8-5.3,2.6-6.9c-0.3-1.7-2.1-2.8-4.1-2.6
	C1130.3,262.8,1128.9,264.3,1129.1,266z"/>
<path class="st3" d="M1174.9,245.4c-1.4,1.2-8.2,2.4-8.2,2.4s1.6-5.6,3.1-6.8c1.4-1.2,3.8-1.2,5.1,0.1
	C1176.4,242.3,1176.3,244.2,1174.9,245.4L1174.9,245.4z"/>
<path class="st3" d="M1171.1,255.6c-2,0.3-8.4-1.7-8.4-1.7s5-3.9,7-4.3c2-0.3,3.9,0.8,4.3,2.4
	C1174.4,253.6,1173.1,255.2,1171.1,255.6L1171.1,255.6L1171.1,255.6z"/>
<path class="st3" d="M1157.2,266.5c-1.9-0.6-6.2-5-6.2-5s6.7-1.3,8.6-0.7c1.9,0.5,3,2.2,2.4,3.9c-0.6,1.6-2.7,2.5-4.6,2
	C1157.3,266.6,1157.3,266.6,1157.2,266.5L1157.2,266.5z"/>
<path class="st3" d="M1144.5,272.9c-2-0.3-7.2-4.1-7.2-4.1s6.4-2.2,8.3-1.9c2,0.3,3.4,1.8,3.1,3.5
	C1148.4,272,1146.6,273.1,1144.5,272.9C1144.5,272.9,1144.5,272.9,1144.5,272.9L1144.5,272.9z"/>
<path class="st3" d="M1157.1,249.4c0,1.7,3.6,6.6,3.6,6.6s3.7-4.9,3.7-6.6c0-1.7-1.6-3-3.7-3
	C1158.7,246.4,1157.1,247.8,1157.1,249.4L1157.1,249.4z"/>
<path class="st3" d="M1142.3,257c0.6,1.6,5.8,5.4,5.8,5.4s1.7-5.6,1.1-7.2c-0.6-1.6-2.7-2.5-4.6-2
	C1142.8,253.7,1141.7,255.4,1142.3,257L1142.3,257z"/>
<path class="st3" d="M1129.1,266c0.3,1.7,4.7,6.1,4.7,6.1s2.8-5.3,2.6-6.9c-0.3-1.7-2.1-2.8-4.1-2.6
	C1130.3,262.8,1128.9,264.3,1129.1,266z"/>
<path class="st1" d="M1129.3,277.7c0,0,1.6-14.3,11.5-21.9c4.2-3.2,7-7.4,8-12c0.5-2.2,0.7-4.4,0.7-6.7"/>
<path class="st2" d="M1155.7,232.3c-0.7,1.6-6.3,5-6.3,5s-1.2-5.7-0.4-7.2c0.7-1.6,2.8-2.4,4.7-1.8c1.9,0.6,2.9,2.3,2.2,3.9
	C1155.8,232.2,1155.7,232.2,1155.7,232.3z"/>
<path class="st2" d="M1157.1,242.8c-1.6,1-8.5,1.3-8.5,1.3s2.7-5.3,4.3-6.3c1.6-1,3.9-0.6,5.1,0.7
	C1159.2,240,1158.8,241.9,1157.1,242.8z"/>
<path class="st2" d="M1149.7,257.6c-2,0.1-8.1-2.5-8.1-2.5s5.5-3.5,7.5-3.6c2-0.1,3.8,1.1,3.9,2.8
	C1153.2,256,1151.8,257.4,1149.7,257.6L1149.7,257.6z"/>
<path class="st2" d="M1141.2,267.7c-2,0.4-8.5-1.3-8.5-1.3s4.7-4.2,6.7-4.6c2-0.5,4,0.5,4.5,2.1s-0.6,3.3-2.5,3.8
	C1141.3,267.7,1141.2,267.7,1141.2,267.7L1141.2,267.7z"/>
<path class="st2" d="M1141.3,242c0.8,1.6,6.5,4.8,6.5,4.8s1-5.7,0.2-7.3c-0.8-1.5-3-2.2-4.8-1.5
	C1141.4,238.8,1140.6,240.5,1141.3,242L1141.3,242z"/>
<path class="st2" d="M1131.5,254c1.3,1.3,7.9,2.9,7.9,2.9s-1.1-5.7-2.5-7c-1.3-1.3-3.6-1.4-5.1-0.4c-1.5,1.1-1.7,3-0.4,4.3
	C1131.5,253.9,1131.5,253.9,1131.5,254L1131.5,254z"/>
<path class="st2" d="M1123.8,266.7c1,1.4,7.2,4,7.2,4s0.1-5.8-1-7.2c-1-1.4-3.3-1.9-5-1S1122.8,265.2,1123.8,266.7L1123.8,266.7
	L1123.8,266.7z"/>
<ellipse class="st4" cx="1103" cy="275.8" rx="40" ry="5.6"/>
<polygon class="st5" points="1105.6,201.5 1105.6,202.6 1103.3,269.9 1099.5,269.9 1101.4,202.6 1101.4,201.4 "/>
<polygon class="st6" points="1127.7,258.5 1124.9,258.5 1082.4,258.5 1080.1,258.5 1081.3,255.3 1127.4,255.3 "/>
<polygon class="st7" points="1105.6,201.5 1105.6,202.6 1101.4,202.6 1101.4,201.4 "/>
<rect x="1100.1" y="199.9" class="st5" width="7.1" height="2.2"/>
<polygon class="st7" points="1082.7,255.3 1082.4,258.5 1080.1,258.5 1081.3,255.3 "/>
<polygon class="st6" points="1088.8,199.8 1088.7,200.8 1079.3,278.9 1075,278.7 1084.9,200.8 1085,200 "/>
<polygon class="st7" points="1127.7,258.5 1124.9,258.5 1124.5,255.3 1127.4,255.3 "/>
<polygon class="st6" points="1132.3,278.7 1127.9,278.9 1118.5,200.8 1118.4,199.8 1122.2,200 1122.3,200.8 "/>
<rect x="1055.4" y="122.9" class="st8" width="95.3" height="76.6"/>
<path class="st6" d="M1104.9,97.3v18.5h-3.7V97.3c0-0.9,0.7-1.6,1.8-1.6c1,0,1.9,0.6,2,1.5C1104.9,97.2,1104.9,97.3,1104.9,97.3z"/>
<rect x="1101.2" y="114.1" class="st7" width="3.7" height="1.7"/>
<path class="st6" d="M1106.3,115.4v6.1h-6.6v-6.1c0-0.4,0.4-0.8,0.9-0.8l0,0h4.8C1105.9,114.6,1106.3,115,1106.3,115.4z"/>
<ellipse class="st7" cx="1103" cy="118.5" rx="1.4" ry="1.2"/>
<ellipse class="st5" cx="1103" cy="118.2" rx="1.4" ry="1.2"/>
<rect x="1099.7" y="120.7" class="st7" width="6.6" height="0.8"/>
<rect x="1097" y="121.7" class="st7" width="12.1" height="1.7"/>
<rect x="1097" y="121.2" class="st6" width="12.1" height="1.7"/>
<path class="st7" d="M1078.6,197.6h50.7c1.2,0,2.2,0.8,2.2,1.8v0.4l0,0h-55l0,0v-0.4C1076.4,198.4,1077.4,197.6,1078.6,197.6z"/>
<polygon class="st7" points="1085,200 1088.8,199.8 1088.7,200.8 1084.9,200.8 "/>
<rect x="1100.1" y="199.9" class="st7" width="7.1" height="0.9"/>
<polygon class="st7" points="1122.3,200.8 1118.5,200.8 1118.4,199.8 1122.2,200 "/>
<path class="st6" d="M1078.6,198.1h50.7c1.2,0,2.2,0.8,2.2,1.8v0.4l0,0h-55l0,0v-0.4C1076.4,198.9,1077.4,198.1,1078.6,198.1z"/>
<ellipse class="st4" cx="929" cy="304.5" rx="14.9" ry="2.4"/>
<ellipse class="st4" cx="1176.6" cy="288.5" rx="10.8" ry="1.8"/>
<ellipse class="st4" cx="1237.6" cy="122.6" rx="7.2" ry="1.4"/>
<path class="st2" d="M943.1,236.9c0,0,2.4,2.7-1.1,6.7c-3.6,4-6.5,7.4-5.3,9.9c0,0,5.3-7.5,9.7-7.6S947.9,241.4,943.1,236.9z"/>
<path class="st7" d="M943.1,236.9c0.2,0.3,0.4,0.5,0.5,0.8c4.3,4.2,6.5,8.1,2.4,8.2c-3.8,0.1-8.4,5.8-9.5,7.2c0,0.1,0.1,0.2,0.1,0.3
	c0,0,5.4-7.5,9.7-7.6C950.7,245.9,947.9,241.4,943.1,236.9z"/>
<path class="st9" d="M947.6,240.3c0,0.9-0.1,1.7-0.3,1.7c-0.2,0-0.3-0.8-0.3-1.7c0-0.9,0.2-0.5,0.3-0.5
	C947.5,239.8,947.6,239.3,947.6,240.3z"/>
<path class="st9" d="M949.1,241.4c-1,0.5-1.8,0.7-1.9,0.6c-0.1-0.1,0.7-0.6,1.6-1c1-0.5,0.6-0.1,0.7,0
	C949.6,241.1,950.1,240.9,949.1,241.4z"/>
<path class="st2" d="M930.2,236.9c0,0-2.4,2.7,1.1,6.7c3.5,4,6.5,7.4,5.3,9.9c0,0-5.4-7.5-9.8-7.6
	C922.5,245.8,925.4,241.4,930.2,236.9z"/>
<path class="st7" d="M930.2,236.9c-0.2,0.3-0.4,0.5-0.5,0.8c-4.3,4.2-6.5,8.1-2.4,8.2c3.8,0.1,8.4,5.8,9.5,7.2
	c0,0.1-0.1,0.2-0.1,0.3c0,0-5.4-7.5-9.8-7.6C922.5,245.8,925.4,241.4,930.2,236.9z"/>
<ellipse class="st4" cx="936.6" cy="270.7" rx="25.5" ry="3.3"/>
<path class="st10" d="M949.7,249.9l-0.1,0.8l-0.2,1.2l-0.1,0.5l-0.2,1.2l-0.1,0.5l-0.2,1.2l-2,13.4c-0.2,1.2-2.5,2.1-5.3,2.1h-10.1
	c-2.8,0-5.1-0.9-5.3-2.1l-2-13.4l-0.2-1.2l-0.1-0.5l-0.2-1.2l-0.1-0.5l-0.2-1.2l-0.1-0.8c-0.1-0.7,1.1-1.2,2.8-1.2H947
	C948.6,248.7,949.8,249.2,949.7,249.9z"/>
<polygon class="st11" points="949.6,250.8 949.4,251.9 923.8,251.9 923.7,250.8 "/>
<polygon class="st11" points="949.3,252.4 949.2,253.6 924.1,253.6 923.9,252.4 "/>
<polygon class="st11" points="949.1,254.1 948.9,255.3 924.3,255.3 924.1,254.1 "/>
<ellipse class="st4" cx="959" cy="124.4" rx="10.6" ry="8.9"/>
<ellipse class="st4" cx="936.8" cy="103.2" rx="6.6" ry="5.5"/>
<ellipse transform="matrix(0.8266 -0.5628 0.5628 0.8266 103.7836 625.7302)" class="st12" cx="1067.4" cy="144.4" rx="10" ry="2"/>
<path class="st13" d="M1055.1,157.1c0,0,1-15.3,6.5-11.8c5.4,3.5-2.4,13.2-2.4,13.2L1055.1,157.1z"/>
<path class="st13" d="M1034.8,202.3c0,0,12.1,11.4,5.3,12.2s-9.4-10.7-9.4-10.7L1034.8,202.3z"/>
<path class="st14" d="M1019,148.3L1019,148.3c3.1,0.7,5.4,2.9,5.9,5.6l3.9,23l5.4,18.4c0,0,2.7,2,1.6,3.2c-1.1,1.1,1.3,5.9,1.3,5.9
	l-6.8,1.8c0,0-0.8-4.8-2.2-5c-1.2-0.2-14.5-30-17.7-37.2c-0.4-1-0.7-1.6-0.7-1.6S1010.4,147.2,1019,148.3z"/>
<path class="st13" d="M1020.3,268.3l4.1,6.2c3.2,5.8,0.4,6.8-7.5,3.9l-1.8-7.3L1020.3,268.3z"/>
<path class="st15" d="M1022.3,276.5c0,0,2-2.7,2.7-2.2c0.7,0.5,3.7,2.4,3.7,2.4l3.8,3.1c0,0,12.9,1.2,4.7,4.9
	c-8.2,3.8-12.7,0.6-12.7,0.6s-11.5,0.5-11.3-2.2s3.9-7,3.9-7S1021.7,278.9,1022.3,276.5z"/>
<path class="st15" d="M1001.8,198.6l3.9,39.5c0,0,0.1,23.6,4.3,28.2c4.1,4.6,4.3,6.9,4.3,6.9l8.5-3.7c0,0-4.4-6.1-3.5-7.1
	c0.6-0.6,0.9-1.3,1.2-2l-2.3-24.4l4.4-42.4L1001.8,198.6z"/>
<polygon class="st13" points="1012.5,268.3 1008.8,276.4 1000.6,273.5 1005,267.5 "/>
<path class="st15" d="M1006.4,273.7c0,0,3.1-1.6,3.5-1c0.4,0.6,1.9,3.4,1.9,3.4l1.7,4c0,0,10.6,5.7,1.5,6c-9.1,0.3-11.4-4-11.4-4
	s-10.2-3.7-8.7-6s7-4.6,7-4.6S1004.7,275.4,1006.4,273.7z"/>
<path class="st15" d="M1034.8,198.7l2.1,36.3c0,0-18.9,32.8-21,33.7c-1.2,0.5-2.2,1.5-2.6,2.6l-11.4-2.4l5.2-7l11.4-23.3
	c0,0,1.8-0.6,2.3-2.8s1.5-2.2-1-2.6c-2.6-0.4-2.6-2.6-2.6-2.6l-8.5-33.1L1034.8,198.7z"/>
<ellipse class="st13" cx="1025.4" cy="133" rx="10.4" ry="8.7"/>
<path class="st13" d="M1016.2,133.6c0,0-0.8,11.1-1.8,12.2c-1,1.1,10.9,0.9,10.9,0.9s-0.8-9.4,0-10.2
	C1026.1,135.6,1016.2,133.6,1016.2,133.6z"/>
<path class="st14" d="M1035.6,201.1c0,0-29.3-2.2-34.7,0c0,0,2-6.2,1.5-6.9c-0.4-0.5,0.7-18.3,0.3-28.5c-0.2-5.8-1.8-11.4,2.9-15.7
	c1.6-1.5,3.3-2.7,5.2-3.3c0,0-0.5-4.1,2.1-4.3c0,0,9.9-0.9,13.5,1.7c1.1,0.8,1.9,3.4,2,5.5c-1.8,7.4-1.2,15.6,0.5,24.1
	c0.1,0.5,0.2,1.1,0.3,1.6C1030.8,183.9,1033.4,192.6,1035.6,201.1z"/>
<path class="st15" d="M1020,135.6c0.9-0.1,1.7,0.2,2.6,0.3c3.1,0.3,6.4-1.6,7.1-4.1c0.1-0.3,0.2-0.7,0.4-1c0.5-0.6,1.6-0.8,2.5-0.6
	c0.9,0.1,1.7,0.5,2.7,0.5c1.4,0.1,2.8-0.7,3.5-1.7c0.7-1,1-2.2,0.9-3.4l-0.7,0.6c-0.3-0.5-0.4-1-0.3-1.6c-0.7-0.2-1.5,0-2.1,0.5
	c-0.6,0.1-0.1-0.9-0.6-1.3c-0.2-0.1-0.5-0.1-0.7-0.1c-1.3,0-2.3-0.8-3.3-1.5c-1.7-1.1-3.8-1.9-5.9-2.3c-1.4-0.2-3-0.3-4.3,0.2
	c-1.1,0.4-2.1,1-2.9,1.7c-2.1,1.7-4,3.8-4.9,6.1c-0.7,1.9-0.7,4-0.1,6c0.4,1,1.4,4.5,3,4.6C1018.7,138.6,1017.5,135.7,1020,135.6z"
	/>
<path class="st14" d="M1024.3,149.4l3.7,0.3c0,0,3.6,5.9,3.4,7.2c-0.2,1.2-0.8,0.5,0.8,2.5c1.6,2,6.3,7.1,6.9,7.8
	c0.6,0.7,16.3-9.3,15.3-12.3c0,0,5,3,7.1,3.4c0,0-16.2,17.8-18.5,20.1c-2.3,2.3-4.1,1.8-7.2,0.5c-3.1-1.4-18.8-14.8-18.8-14.8
	L1024.3,149.4z"/>
<path class="st7" d="M1029,175.4l-12.9-10.8l3.3-0.9l9.3,10.1C1028.8,174.4,1028.9,174.9,1029,175.4z"/>
</svg>
