<?xml version="1.0" encoding="utf-8"?>
<!-- Generator: Adobe Illustrator 22.0.1, SVG Export Plug-In . SVG Version: 6.00 Build 0)  -->
<svg version="1.1" id="Layer_1" xmlns="http://www.w3.org/2000/svg" xmlns:xlink="http://www.w3.org/1999/xlink" x="0px" y="0px"
	 viewBox="0 0 1300 400" style="enable-background:new 0 0 1300 400;" xml:space="preserve">
<style type="text/css">
	.st0{fill:url(#SVGID_1_);stroke:#000000;stroke-width:1.6452;stroke-miterlimit:10;}
	.st1{fill:#3F3D56;}
	.st2{fill:#0D8CD8;}
	.st3{fill:#F2F2F2;}
	.st4{opacity:3.000000e-02;enable-background:new    ;}
</style>
<linearGradient id="SVGID_1_" gradientUnits="userSpaceOnUse" x1="0" y1="200" x2="1300" y2="200">
	<stop  offset="0" style="stop-color:#007194"/>
	<stop  offset="1" style="stop-color:#41C1C9"/>
</linearGradient>
<rect class="st0" width="1300" height="400"/>
<path class="st1" d="M1158.8,209.7c-3.1,1.1-8.7,2-15,2.6c-17.3,1.8-41.1,2.2-41.1,2.2s-122.1,8.3-213-30.7c0,0-13.2-7.2-0.7-16.4
	c1.9-1.4,4-2.6,6.1-3.6l0.2-0.1c1.4-1.3,3-2.4,4.6-3.4c4.8-3,12.8-6.5,22.5-4.7l239.5,42.4C1161.8,198.1,1170.5,205.6,1158.8,209.7z
	"/>
<path class="st1" d="M1111.2,191.4l50.8-34.9l22.1,4.2l-22.3,37.4C1161.8,198.1,1111.7,197.7,1111.2,191.4z"/>
<polygon class="st1" points="985,167.8 1085.5,141.3 1101.6,144.9 1056.1,164.6 1041.7,180.2 "/>
<path class="st2" d="M1143.7,212.4c-17.3,1.8-41.1,2.2-41.1,2.2s-122.1,8.3-213-30.7c0,0-13.2-7.2-0.7-16.4l0,0.2
	c0,0,19.5,13.6,113.6,26.2L1143.7,212.4z"/>
<path class="st1" d="M1127.7,211.4l44.5,18.9l11.3-1.1l-26.5-20.5C1156.9,208.7,1124.7,201.3,1127.7,211.4z"/>
<path class="st2" d="M905.2,169.9c-2.1,0-7-3.7-10-6.1c1.4-1.3,3-2.4,4.6-3.4c2.4,1.9,6.7,5,9.2,4.9
	C912.5,165.2,908.4,169.8,905.2,169.9z"/>
<path class="st1" d="M1107,274.2l-28.8,1.1l-80-55.7l-14.8-10.3l-7.2-5c13.8-11.3,69.4,5.4,69.4,5.4c1.1,0.9,1.4,2.4,1.3,4.1
	c-0.1,3.1-1.6,6.7-2.2,8c-0.1,0.3-0.2,0.5-0.2,0.5L1107,274.2z"/>
<path class="st3" d="M1012.8,244.6l-5,3.1l3.1-5.4c-0.8-0.7-1.9-1.1-3-1.1l-0.1,0c-0.3,0-0.7,0-1-0.1l-1.7,1l0.7-1.3
	c-1.2-0.4-2.2-1.2-2.9-2.3l-3,1.9l2-3.4c-1.7-2.1-4.1-3.5-6.7-3.5c-3.1,0-6,1.8-7.8,4.7c-1.1,1.8-3.1,2.8-5.2,2.7l-0.2,0
	c-3.5-0.1-6.3,3.8-6.4,8.7c-0.1,4.8,2.7,8.8,6.1,8.9c0.8,0,1.5-0.2,2.2-0.5c2.4-1.1,5.2-1.1,7.6,0c2,0.9,4.4,1,6.5,0.1
	c2.4-1,5.2-0.9,7.5,0.3c0.7,0.4,1.4,0.6,2.2,0.6c3.5,0.1,6.3-3.8,6.4-8.7C1014.1,248.1,1013.7,246.2,1012.8,244.6z"/>
<path class="st4" d="M1003.2,257.3c-1.8-0.4-3.7-0.2-5.4,0.5c-2.1,0.9-4.4,0.9-6.5-0.1c-2.4-1.1-5.2-1.1-7.6,0
	c-0.7,0.3-1.4,0.5-2.2,0.5c-3.1,0-5.6-3.2-6.1-7.3c0.6-0.4,1.2-1,1.6-1.6c1.8-2.9,4.7-4.7,7.8-4.7c3.1,0,5.9,1.9,7.6,4.8
	c1.1,1.8,3,2.9,5.1,2.9l0.1,0C1000.2,252.4,1002.2,254.4,1003.2,257.3z"/>
<path class="st3" d="M1153.6,242.5l-5,3.1l3.1-5.4c-0.8-0.7-1.9-1.1-3-1.1l-0.1,0c-0.3,0-0.7,0-1-0.1l-1.7,1l0.7-1.3
	c-1.2-0.4-2.2-1.2-2.9-2.3l-3,1.9l2-3.4c-1.7-2.1-4.1-3.5-6.7-3.5c-3.1,0-6,1.8-7.8,4.7c-1.1,1.8-3.1,2.8-5.2,2.7l-0.2,0
	c-3.5-0.1-6.3,3.8-6.4,8.7s2.7,8.8,6.1,8.9c0.8,0,1.5-0.2,2.2-0.5c2.4-1.1,5.2-1.1,7.6,0c2,0.9,4.4,1,6.5,0.1c2.4-1,5.2-0.9,7.5,0.3
	c0.7,0.4,1.4,0.6,2.2,0.6c3.5,0.1,6.3-3.8,6.4-8.7C1154.9,246,1154.5,244.2,1153.6,242.5z"/>
<path class="st4" d="M1144.1,255.2c-1.8-0.4-3.7-0.2-5.4,0.5c-2.1,0.9-4.4,0.9-6.5-0.1c-2.4-1.1-5.2-1.1-7.6,0
	c-0.7,0.3-1.4,0.5-2.2,0.5c-3.1,0-5.6-3.2-6.1-7.3c0.6-0.4,1.2-1,1.6-1.6c1.8-2.9,4.7-4.7,7.8-4.7c3.1,0,5.9,1.9,7.6,4.8
	c1.1,1.8,3,2.9,5.1,2.9l0.1,0C1141,250.3,1143.1,252.3,1144.1,255.2z"/>
<path class="st3" d="M1155.2,137.3l-5,3.1l3.1-5.4c-0.8-0.7-1.9-1.1-3-1.1l-0.1,0c-0.3,0-0.7,0-1-0.1l-1.7,1l0.7-1.3
	c-1.2-0.4-2.2-1.2-2.9-2.3l-3,1.9l2-3.4c-1.7-2.1-4.1-3.5-6.7-3.5c-3.1,0-6,1.8-7.8,4.7c-1.1,1.8-3.1,2.8-5.2,2.7l-0.2,0
	c-3.5-0.1-6.3,3.8-6.4,8.7c-0.1,4.8,2.7,8.8,6.1,8.9c0.8,0,1.5-0.2,2.2-0.5c2.4-1.1,5.2-1.1,7.6,0c2,1,4.4,1,6.5,0.1
	c2.4-1,5.2-0.9,7.5,0.3c0.7,0.4,1.4,0.6,2.2,0.6c3.5,0.1,6.3-3.8,6.4-8.7C1156.5,140.9,1156.1,139,1155.2,137.3z"/>
<path class="st4" d="M1145.6,150c-1.8-0.4-3.7-0.2-5.4,0.5c-2.1,0.9-4.4,0.9-6.5-0.1c-2.4-1.1-5.2-1.1-7.6,0
	c-0.7,0.3-1.4,0.5-2.2,0.5c-3.1,0-5.6-3.2-6.1-7.3c0.6-0.4,1.2-1,1.6-1.6c1.8-2.9,4.7-4.7,7.8-4.7c3.1,0,5.9,1.9,7.6,4.8
	c1.1,1.8,3,2.9,5.1,2.9l0.1,0C1142.6,145.2,1144.7,147.2,1145.6,150z"/>
<path class="st3" d="M949.5,122.9l-2.5,1.5l1.5-2.7c-0.4-0.3-0.9-0.5-1.5-0.6l0,0c-0.2,0-0.3,0-0.5,0l-0.8,0.5l0.4-0.6
	c-0.6-0.2-1.1-0.6-1.5-1.1l-1.5,0.9l1-1.7c-0.8-1.1-2-1.7-3.3-1.8c-1.6,0-3,0.9-3.9,2.3c-0.6,0.9-1.5,1.4-2.6,1.3l-0.1,0
	c-1.7,0-3.2,1.9-3.2,4.3c0,2.4,1.3,4.4,3.1,4.4c0.4,0,0.8-0.1,1.1-0.3c1.2-0.6,2.6-0.6,3.8,0c1,0.5,2.2,0.5,3.2,0
	c1.2-0.5,2.6-0.5,3.8,0.1c0.3,0.2,0.7,0.3,1.1,0.3c1.7,0,3.2-1.9,3.2-4.3C950.2,124.7,950,123.7,949.5,122.9z"/>
<path class="st4" d="M944.8,129.2c-0.9-0.2-1.8-0.1-2.7,0.3c-0.5,0.2-1.1,0.3-1.6,0.3c-0.6,0-1.1-0.1-1.6-0.4
	c-1.2-0.5-2.6-0.5-3.8,0c-0.3,0.2-0.7,0.3-1.1,0.3c-1.5,0-2.8-1.6-3-3.6c0.3-0.2,0.6-0.5,0.8-0.8c0.9-1.4,2.3-2.3,3.9-2.3
	c1.6,0,2.9,1,3.8,2.4c0.5,0.9,1.5,1.4,2.5,1.4l0,0C943.2,126.8,944.3,127.8,944.8,129.2z"/>
<path class="st3" d="M1168.4,283l-2.5,1.5l1.5-2.7c-0.4-0.3-0.9-0.5-1.5-0.6l0,0c-0.2,0-0.3,0-0.5,0l-0.8,0.5l0.4-0.6
	c-0.6-0.2-1.1-0.6-1.5-1.1l-1.5,0.9l1-1.7c-0.8-1.1-2-1.7-3.3-1.8c-1.6,0-3,0.9-3.9,2.3c-0.6,0.9-1.5,1.4-2.6,1.3l-0.1,0
	c-1.7,0-3.2,1.9-3.2,4.3c0,2.4,1.3,4.4,3.1,4.4c0.4,0,0.8-0.1,1.1-0.3c1.2-0.6,2.6-0.6,3.8,0c1,0.5,2.2,0.5,3.2,0
	c1.2-0.5,2.6-0.5,3.8,0.1c0.3,0.2,0.7,0.3,1.1,0.3c1.7,0,3.2-1.9,3.2-4.3C1169,284.8,1168.8,283.9,1168.4,283z"/>
<path class="st4" d="M1163.6,289.4c-0.9-0.2-1.8-0.1-2.7,0.3c-0.5,0.2-1.1,0.3-1.6,0.3c-0.6,0-1.1-0.1-1.6-0.4
	c-1.2-0.5-2.6-0.5-3.8,0c-0.3,0.2-0.7,0.3-1.1,0.3c-1.5,0-2.8-1.6-3-3.6c0.3-0.2,0.6-0.5,0.8-0.8c0.9-1.4,2.3-2.3,3.9-2.3
	c1.6,0,2.9,1,3.8,2.4c0.5,0.9,1.5,1.4,2.5,1.4l0,0C1162.1,286.9,1163.1,287.9,1163.6,289.4z"/>
<path class="st3" d="M937.4,287.9l-2.5,1.5l1.5-2.7c-0.4-0.3-0.9-0.5-1.5-0.6l0,0c-0.2,0-0.3,0-0.5,0l-0.8,0.5l0.4-0.6
	c-0.6-0.2-1.1-0.6-1.5-1.1l-1.5,0.9l1-1.7c-0.8-1.1-2-1.7-3.3-1.8c-1.6,0-3,0.9-3.9,2.3c-0.6,0.9-1.5,1.4-2.6,1.3l-0.1,0
	c-1.7,0-3.2,1.9-3.2,4.3c0,2.4,1.3,4.4,3.1,4.4c0.4,0,0.8-0.1,1.1-0.3c1.2-0.6,2.6-0.6,3.8,0c1,0.5,2.2,0.5,3.2,0
	c1.2-0.5,2.6-0.5,3.8,0.1c0.3,0.2,0.7,0.3,1.1,0.3c1.7,0,3.2-1.9,3.2-4.3C938.1,289.7,937.9,288.7,937.4,287.9z"/>
<path class="st4" d="M932.7,294.2c-0.9-0.2-1.8-0.1-2.7,0.3c-0.5,0.2-1.1,0.3-1.6,0.3c-0.6,0-1.1-0.1-1.6-0.4
	c-1.2-0.5-2.6-0.5-3.8,0c-0.3,0.2-0.7,0.3-1.1,0.3c-1.5,0-2.8-1.6-3-3.6c0.3-0.2,0.6-0.5,0.8-0.8c0.9-1.4,2.3-2.3,3.9-2.3
	c1.6,0,2.9,1,3.8,2.4c0.5,0.9,1.5,1.4,2.5,1.4l0,0C931.1,291.8,932.2,292.8,932.7,294.2z"/>
<path class="st3" d="M1055.2,91.9l-5,3.1l3.1-5.4c-0.8-0.7-1.9-1.1-3-1.1l-0.1,0c-0.3,0-0.7,0-1-0.1l-1.7,1l0.7-1.3
	c-1.2-0.4-2.2-1.2-2.9-2.3l-3,1.9l2-3.4c-1.7-2.1-4.1-3.5-6.7-3.5c-3.1,0-6,1.8-7.8,4.7c-1.1,1.8-3.1,2.8-5.2,2.7l-0.2,0
	c-3.5-0.1-6.3,3.8-6.4,8.7c-0.1,4.8,2.7,8.8,6.1,8.9c0.8,0,1.5-0.2,2.2-0.5c2.4-1.1,5.2-1.1,7.6,0c2,1,4.4,1,6.5,0.1
	c2.4-1,5.2-0.9,7.5,0.3c0.7,0.4,1.4,0.6,2.2,0.6c3.5,0.1,6.3-3.8,6.4-8.7C1056.5,95.4,1056,93.6,1055.2,91.9z"/>
<path class="st4" d="M1045.6,104.6c-1.8-0.4-3.7-0.2-5.4,0.5c-2.1,0.9-4.4,0.9-6.5-0.1c-2.4-1.1-5.2-1.1-7.6,0
	c-0.7,0.3-1.4,0.5-2.2,0.5c-3.1,0-5.6-3.2-6.1-7.3c0.6-0.4,1.2-1,1.6-1.6c1.8-2.9,4.7-4.7,7.8-4.7c3.1,0,5.9,1.9,7.6,4.8
	c1.1,1.8,3,2.9,5.1,2.9l0.1,0C1042.5,99.7,1044.6,101.7,1045.6,104.6z"/>
<path class="st3" d="M1224.3,149.5l-2.5,1.5l1.5-2.7c-0.4-0.3-0.9-0.5-1.5-0.6l0,0c-0.2,0-0.3,0-0.5,0l-0.8,0.5l0.4-0.6
	c-0.6-0.2-1.1-0.6-1.5-1.1l-1.5,0.9l1-1.7c-0.8-1.1-2-1.7-3.3-1.8c-1.6,0-3,0.9-3.9,2.3c-0.6,0.9-1.5,1.4-2.6,1.3l-0.1,0
	c-1.7,0-3.2,1.9-3.2,4.3c0,2.4,1.3,4.4,3.1,4.4c0.4,0,0.8-0.1,1.1-0.3c1.2-0.6,2.6-0.6,3.8,0c1,0.5,2.2,0.5,3.2,0
	c1.2-0.5,2.6-0.5,3.8,0.1c0.3,0.2,0.7,0.3,1.1,0.3c1.7,0,3.2-1.9,3.2-4.3C1224.9,151.2,1224.7,150.3,1224.3,149.5z"/>
<path class="st4" d="M1219.5,155.8c-0.9-0.2-1.8-0.1-2.7,0.3c-0.5,0.2-1.1,0.3-1.6,0.3c-0.6,0-1.1-0.1-1.6-0.4
	c-1.2-0.5-2.6-0.5-3.8,0c-0.3,0.2-0.7,0.3-1.1,0.3c-1.5,0-2.8-1.6-3-3.6c0.3-0.2,0.6-0.5,0.8-0.8c0.9-1.4,2.3-2.3,3.9-2.3
	c1.6,0,2.9,1,3.8,2.4c0.5,0.9,1.5,1.4,2.5,1.4l0,0C1218,153.4,1219,154.4,1219.5,155.8z"/>
</svg>
