<?xml version="1.0" encoding="utf-8"?>
<!-- Generator: Adobe Illustrator 22.0.1, SVG Export Plug-In . SVG Version: 6.00 Build 0)  -->
<svg version="1.1" id="Layer_1" xmlns="http://www.w3.org/2000/svg" xmlns:xlink="http://www.w3.org/1999/xlink" x="0px" y="0px"
	 viewBox="0 0 1300 400" style="enable-background:new 0 0 1300 400;" xml:space="preserve">
<style type="text/css">
	.st0{fill:url(#SVGID_1_);stroke:#000000;stroke-width:1.6452;stroke-miterlimit:10;}
	.st1{opacity:0.1;fill:#0D8CD8;enable-background:new    ;}
	.st2{fill:#EAECF0;}
	.st3{fill:#3A3768;}
	.st4{opacity:0.1;enable-background:new    ;}
	.st5{fill:#EFC6CD;}
	.st6{fill:#D48A9B;}
	.st7{fill:#DFE6F5;}
	.st8{opacity:0.15;enable-background:new    ;}
	.st9{fill:#4C4C56;}
	.st10{fill:#D1D9EC;}
	.st11{fill:#0D8CD8;}
	.st12{fill:url(#SVGID_2_);}
	.st13{fill:url(#SVGID_3_);}
	.st14{fill:#D38884;}
	.st15{fill:#A36468;}
	.st16{fill:#444053;}
	.st17{fill:#67647E;}
	.st18{opacity:0.1;}
	.st19{fill:#D3DAE1;}
	.st20{fill:#FFFFFF;}
	.st21{fill:#D5E1F4;}
	.st22{fill:url(#SVGID_4_);}
	.st23{fill:#EFB7B9;}
	.st24{opacity:5.000000e-02;enable-background:new    ;}
	.st25{opacity:0.7;}
	.st26{fill:#2E001E;}
	.st27{fill:#FF2BC2;}
	.st28{fill:#EA6C00;}
	.st29{fill:#FDAD00;}
	.st30{fill:#FDD231;}
	.st31{fill:#FEEEB7;}
</style>
<linearGradient id="SVGID_1_" gradientUnits="userSpaceOnUse" x1="0" y1="200" x2="1300" y2="200" gradientTransform="matrix(1 0 0 -1 0 400)">
	<stop  offset="0" style="stop-color:#007194"/>
	<stop  offset="1" style="stop-color:#41C1C9"/>
</linearGradient>
<rect class="st0" width="1300" height="400"/>
<path class="st1" d="M1230.9,289.2c-1.7,3.7-4.2,6.9-7.1,9.4c-0.4,0.4-0.9,0.7-1.3,1.1c-0.6,0.5-1.2,0.9-1.8,1.3
	c-4.8,3.4-10.4,5.7-15.9,7.3c-1.5,0.5-3,0.9-4.5,1.3c-1.3,0.3-2.5,0.7-3.8,0.9c-0.5,0.1-1,0.2-1.4,0.3c-0.5,0.1-1,0.2-1.5,0.3
	l-0.7,0.2c-14.2,2.9-28.5,3.4-43,2.7l-0.7,0l-1.1-0.1c-2.9-0.2-5.9-0.4-8.8-0.6l-1.1-0.1l-0.5,0c-1.6-0.2-3.3-0.3-4.9-0.5
	c-2.2-0.2-4.3-0.5-6.5-0.8l-0.3,0l-0.2,0l0,0c-7.8-1-15.6-2.1-23.4-3.3l-1.1-0.2l-2-0.3l-1.7-0.3l0,0l-0.5-0.1
	c-2.6-0.4-5.3-0.8-7.9-1.2l-0.4-0.1c-4.9-0.7-9.9-1.5-14.9-2.1l-0.6-0.1l0,0c-2-0.3-4.1-0.5-6.1-0.8l-1.5-0.2l-2.1-0.2
	c-5.7-0.6-11.4-1.1-17.1-1.4c-2.7-0.2-5.5-0.3-8.2-0.3c-2.3-0.1-4.5-0.1-6.8-0.1c-3.1,0-6.2,0-9.2,0.1l0,0h-0.7
	c-4.4,0.1-8.7,0.2-13.1,0.4l-0.8,0h-0.3c-9.3,0.4-18.6,0.8-27.8,1.2l-2.3,0.1h-0.3c-3.2,0.1-6.4,0.2-9.6,0.3h-0.9h0h-1l-1.4,0
	c-1.5,0-3,0-4.5,0h-1.8c-5.4,0-10.9-0.2-16.3-0.5l-0.6,0c-10.5-0.6-20.8-1.9-31-4.3c-1.1-0.2-2.1-0.5-3.2-0.8
	c-7-1.7-13.9-4.1-20.7-6.9c-3.2-1.4-6.4-2.9-8.8-5.6c-6.1-6.8-3.8-20.2,4.1-24.1c6.2-3,13.5-0.6,20.2-1.9c0.4-0.1,0.8-0.2,1.2-0.3
	c0.9-0.3,1.7-0.7,2.5-1.1c0.3-0.2,0.5-0.3,0.8-0.5c0.6-0.4,1.2-0.8,1.8-1.2c1-0.7,1.9-1.5,2.8-2.3c0.4-0.4,0.8-0.8,1.1-1.1
	c1.3-1.3,2.4-2.8,3.4-4.5c0.3-0.6,0.7-1.3,0.9-1.9c0.1-0.3,0.3-0.7,0.4-1.1c0.2-0.5,0.3-1,0.4-1.6c0.4-2.5-0.2-5-2.4-7.1
	c-0.2-0.2-0.4-0.4-0.6-0.5c-0.4-0.3-0.9-0.6-1.3-0.9c-0.2-0.1-0.4-0.2-0.6-0.3c-2.8-1.3-6.5-1.8-9.5-2.7l0,0c-0.9-0.3-1.9-0.6-2.7-1
	c-0.6-0.3-1.1-0.6-1.7-0.9l0,0l-0.1-0.1l0,0c-4.7-2.7-8.8-6.4-12.1-10.9c-0.8-1.1-1.6-2.4-2.2-3.6c-0.2-0.4-0.4-0.8-0.6-1.1
	c-5.4-10.8-6-24.7-0.3-35.3c0.7-1.3,1.5-2.5,2.3-3.7c0.3-0.4,0.6-0.8,0.8-1.1c5.4-7,13.1-11.8,20.9-15.3c10.5-4.7,21.5-7.7,32.6-9.7
	c2.3-0.4,4.5-0.8,6.8-1.1c9.5-1.3,19.1-2,28.6-2.6c8.9-0.5,17.9-0.8,26.9-1c3,0,6.1-0.1,9.2-0.1c6.9,0,13.8,0.1,20.7,0.4
	c2.3,0.1,4.5,0.2,6.8,0.3c5.8,0.3,11.6,0.8,17.4,1.4c2.8,0.3,5.6,0.6,8.3,0.9c21.1,2.5,41.9,6.9,62,13.6c2.3,0.8,4.5,1.6,6.8,2.4
	c8.4,3.1,16.7,6.6,24.9,10.6c0.8,0.4,1.5,0.8,2.3,1.1c5.1,2.6,10.1,5.3,15,8.3c6.5,3.9,12.8,8.2,18.7,13c2.3,1.9,4.6,3.9,6.8,5.9
	c3.9,3.6,7.5,7.6,10.9,11.8c0.3,0.4,0.6,0.8,0.9,1.1c1.5,2,2.9,4.1,4.3,6.2c6.6,10.5,11.1,22.5,14.3,34.8
	C1233.6,267.2,1235.5,279.2,1230.9,289.2z"/>
<path class="st1" d="M1226.8,252.6h-26.4v-37.1h11.8c-0.3-0.4-0.6-0.8-0.9-1.1h-10.9v-11.8c-2.2-2-4.5-4-6.8-5.9v17.8h-60.9v-39
	h27.2c-0.8-0.4-1.5-0.8-2.3-1.1h-24.9v-10.6c-2.3-0.8-4.5-1.6-6.8-2.4v13h-86.9l-0.2-0.2l25.1-26.4c-2.8-0.3-5.5-0.6-8.3-0.9
	l-17.4,18.3v-19.6c-2.3-0.1-4.5-0.2-6.8-0.3v21.2l-20.7-21.6c-3.1,0-6.1,0-9.2,0.1l28,29.4l-0.2,0.2h-83.3v-26
	c-2.3,0.3-4.5,0.7-6.8,1.1v24.9h-53.6c-0.3,0.4-0.6,0.8-0.8,1.1h54.4v39h-56.4c0.2,0.4,0.4,0.8,0.6,1.1h55.8v37.1h-27.4
	c-0.4,0.4-0.8,0.8-1.1,1.1h28.6v38c2.3,0.4,4.5,0.7,6.8,1.1v-39.1h85.3v47.6c2.3,0,4.5,0,6.8,0.1v-47.7h87.7V312l0.3,0
	c2.2,0.3,4.4,0.5,6.5,0.8v-59h60.9v57.6c0.5-0.1,1-0.2,1.5-0.3c0.5-0.1,1-0.2,1.4-0.3c1.3-0.3,2.5-0.6,3.8-0.9v-55.9h26.6
	C1226.9,253.3,1226.8,253,1226.8,252.6z M1031.3,252.6h-85.3v-37.1h85.3V252.6z M1031.3,214.3h-85.3v-39h84.1l1.2,1L1031.3,214.3z
	 M1125.8,252.6h-87.7v-37.1h87.7V252.6z M1125.8,214.3h-87.7v-39h87.7V214.3z M1193.5,252.6h-60.9v-37.1h60.9V252.6z"/>
<path class="st2" d="M965.5,305c0,0,0,0.1,0,0.1l0,0C965.5,305.1,965.5,305,965.5,305L965.5,305z"/>
<path class="st2" d="M967.2,303.3h-0.9h0h-1l-1.4,0l-0.2-1.8l-0.1-1.7l-0.7-7.8l0-0.2v-0.1l-0.2-2.2l2.9-1.2l0.4,3.2l0,0.2v0
	l0.7,6.5l0.2,2l0.1,1.2l0.1,1v0L967.2,303.3z"/>
<polygon class="st3" points="977.5,305 977.6,305.1 977.3,305.1 977.3,305 "/>
<path class="st3" d="M1004,305.1L1004,305.1L1004,305.1z"/>
<path class="st3" d="M1022.3,260c0,0.1,0,0.1,0,0.1v0c0,0-2.7,8.1-3.6,15.1c-0.1,0.5-0.1,0.9-0.1,1.4c0,0.5-0.1,1-0.1,1.4
	c0,0.5,0,1.1,0,1.6c0,0.1,0,0.2,0,0.3c0,0.2,0,0.5,0,0.7c0,0.2,0,0.5,0,0.7s0,0.5,0.1,0.7c0.7,7.5,3.2,18.5,3.2,18.5
	s0.1,0.3,0.2,0.8h-0.7c-4.4,0.1-8.7,0.2-13.1,0.4l-0.8,0h-0.3c-9.3,0.4-18.6,0.8-27.8,1.2l-2.3,0.1h-0.3c-3.2,0.1-6.4,0.2-9.6,0.3
	h-0.9c0.2-0.3,0.5-0.7,0.7-0.9c0.2-0.2,0.5-0.5,0.8-0.6c1.5-1,3.1-1.8,4.7-2.3c0.4-0.1,0.7-0.2,1.1-0.1l2.2,0h0.3l3.3,0.1l28.5,0.6
	h0.1l0.2,0c0.3-0.1,0.7-0.2,1-0.4c1.1-0.5,1.9-1.6,2-2.9c0-0.1,0-0.2,0-0.3c0-0.2,0-0.3,0-0.5c0-0.1,0-0.2,0-0.4s0-0.3-0.1-0.4
	c-0.7-4.2-1.9-17.3-1.9-17.3v0c0,0,0-0.6,0-1.5c0-0.1,0-0.2,0-0.2V276c0-0.2,0-0.4,0-0.7c0-0.1,0-0.3,0-0.5c0-0.2,0-0.5,0.1-0.7
	c0,0,0,0,0,0c0-0.2,0-0.3,0-0.5c0-0.2,0,0,0-0.1c0.5-5,1.9-13,6.5-16c2.1-1.4,3.6-1.7,4.5-1.4c1.4,0.4,1.7,2,1.8,3
	c0,0.1,0,0.1,0,0.2C1022.3,259.6,1022.3,259.8,1022.3,260z"/>
<path class="st4" d="M965.5,305c0,0,0,0.1,0,0.1l0,0C965.5,305.1,965.5,305,965.5,305L965.5,305z"/>
<polygon class="st4" points="977.5,305 977.6,305.1 977.3,305.1 977.3,305 "/>
<path class="st4" d="M1004,305.1L1004,305.1L1004,305.1z"/>
<path class="st4" d="M1022.3,260c0,0.1,0,0.1,0,0.1s-2.2,6.7-3.3,13.1l0,0c-0.1,0.5-0.1,0.9-0.2,1.3c0,0.2-0.1,0.4-0.1,0.7
	c-0.1,0.5-0.1,0.9-0.1,1.4c0,0.5-0.1,1-0.1,1.4c0,0.5,0,1.1,0,1.6c0,0.1,0,0.2,0,0.3c0,0.2,0,0.5,0,0.7c0,0.2,0,0.5,0,0.7
	s0,0.5,0.1,0.7c0,0.2,0,0.5,0.1,0.7c0.1,1,0.2,2,0.4,3c1,7,2.8,14.8,2.8,14.8s0.1,0.3,0.2,0.8l0,0h-0.7c-4.4,0.1-8.7,0.2-13.1,0.4
	l-0.8,0h-0.3c-9.3,0.4-18.6,0.8-27.8,1.2l-2.3,0.1h-0.3c-3.2,0.1-6.4,0.2-9.6,0.3h-0.9h0c0.2-0.4,0.5-0.7,0.8-1
	c0.2-0.2,0.5-0.5,0.8-0.7c1.5-1,3.1-1.8,4.7-2.3c0.4-0.1,0.7-0.2,1.1-0.1l2.2,0h0.3l3.3,0.1l28.5,0.6h0c0,0,0.1,0,0.2-0.1
	c0.3-0.1,0.7-0.2,1-0.4c1.1-0.5,1.8-1.6,2-2.8c0-0.1,0-0.2,0-0.3c0-0.2,0-0.3,0-0.5c0-0.1,0-0.2,0-0.4c0-0.1,0-0.3-0.1-0.4
	c-0.7-4.2-1.9-17.3-1.9-17.3s0-0.6,0-1.5c0-0.1,0-0.2,0-0.2v-0.2c0-0.2,0-0.4,0-0.7c0-0.1,0-0.3,0-0.5c0-0.2,0-0.5,0.1-0.7
	c0,0,0,0,0,0c0-0.2,0-0.3,0-0.5c0-0.2,0,0,0-0.1c0.1-0.6,0.1-1.3,0.2-2c0.6-4.9,2.3-11.4,6.3-14c2.1-1.4,3.5-1.7,4.4-1.4
	c1.4,0.4,1.8,2,1.9,3c0,0.1,0,0.1,0,0.2C1022.3,259.5,1022.3,259.8,1022.3,260z"/>
<path class="st3" d="M965.5,305c0,0,0,0.1,0,0.1l0,0C965.5,305.1,965.5,305,965.5,305L965.5,305z"/>
<polygon class="st3" points="977.5,305 977.6,305.1 977.3,305.1 977.3,305 "/>
<path class="st3" d="M1004,305.1L1004,305.1L1004,305.1z"/>
<path class="st3" d="M1021.5,259.7c0,0-4,12.2-3.8,19.5c0.2,7.3,3.3,21,3.3,21s0.1,0.5,0.3,1.3c-4.4,0.1-8.7,0.2-13.1,0.4l-0.8,0
	h-0.3c-9.3,0.4-18.6,0.8-27.8,1.2l-2.3,0.1h-0.3c-3.2,0.1-6.4,0.2-9.6,0.3h-0.9h0h-1c0.4-0.8,1-1.5,1.7-2l0.1-0.1
	c1.5-1,3.1-1.7,4.7-2.2c0.4-0.1,0.7-0.2,1.1-0.1l2.9,0.1h0.3l3.4,0.1l27.8,0.6c0.4-0.1,0.8-0.2,1.1-0.4c0.1-0.1,0.2-0.1,0.4-0.2l0,0
	c0.3-0.2,0.7-0.5,0.9-0.8c0.6-0.7,1-1.8,0.7-3.4c-0.7-4.2-1.9-17.3-1.9-17.3s-0.2-15.9,6.7-20.3c2.8-1.8,4.3-1.7,5.2-1
	c0,0,0.1,0,0.1,0.1C1021.7,257.3,1021.5,259.7,1021.5,259.7z"/>
<path class="st2" d="M910.5,289.6l-0.1,1.3l-0.7,7.8c-1.1-0.2-2.1-0.5-3.2-0.8l0.8-7.1l0.3-2.4L910.5,289.6z"/>
<polygon class="st5" points="890.7,287 907.5,247.5 975.4,253.3 981.6,287 "/>
<polygon class="st6" points="890.7,290.5 890.7,287 981.6,287 981.6,292.1 "/>
<path class="st7" d="M916.3,281.3l40.7,0.9c0.3,0,0.6-0.3,0.6-0.6c0-0.1,0-0.1,0-0.2l-6.3-18.9l-27.4-0.6l-8.1,18.3
	c-0.2,0.4,0,0.8,0.3,1C916.1,281.2,916.2,281.3,916.3,281.3z"/>
<path class="st8" d="M916.3,281.3l40.7,0.9c0.3,0,0.6-0.3,0.6-0.6c0-0.1,0-0.1,0-0.2l-6.3-18.9l-27.4-0.6l-8.1,18.3
	c-0.2,0.4,0,0.8,0.3,1C916.1,281.2,916.2,281.3,916.3,281.3z"/>
<path class="st7" d="M916,280.5l41.1,1l-5.6-18.7c-0.2-0.6-0.7-1-1.3-1.1l-26.4-0.6L916,280.5z"/>
<path class="st9" d="M919.4,276.2l4.9-12c0.2-0.5,0.7-0.8,1.2-0.8h12.2c0.7,0,1.3,0.6,1.3,1.4v12.9c0,0.8-0.6,1.4-1.3,1.4
	c0,0,0,0-0.1,0l-17.2-1c-0.7,0-1.3-0.7-1.2-1.5C919.3,276.6,919.3,276.4,919.4,276.2z"/>
<path class="st10" d="M943.5,274.7l0.2-6.8c0-0.6,0.4-1,0.9-1h3.6c0.5,0,0.8,0.4,0.9,0.9l1.1,6.8c0.1,0.6-0.3,1.1-0.8,1.2
	c-0.1,0-0.1,0-0.2,0l-4.9,0C944,275.8,943.5,275.3,943.5,274.7C943.5,274.7,943.5,274.7,943.5,274.7z"/>
<path class="st9" d="M895.6,230.3l13.6-1.3c0.4-0.1,0.8,0.2,1,0.6l12.9,32.2l-7.2,17.8c0.2-0.6,0.4,3.8-1.2,0l-20.5-47.2
	C893.9,231.9,895,230.4,895.6,230.3z"/>
<path class="st8" d="M895.6,230.3l13.6-1.3c0.4-0.1,0.8,0.2,1,0.6l12.9,32.2l-7.2,17.8c0.2-0.6,0.4,3.8-1.2,0l-20.5-47.2
	C893.9,231.9,895,230.4,895.6,230.3z"/>
<path class="st9" d="M895.6,230.3l14.3-2c0.4-0.1,0.8,0.2,1,0.6l12.9,32.2l-7.8,19.3l-21.1-48.7c-0.2-0.5,0-1.1,0.4-1.4
	C895.4,230.3,895.5,230.3,895.6,230.3z"/>
<path class="st11" d="M899.2,232.6l10.4-1.8c0.4-0.1,0.8,0.2,1,0.6l10.9,29.3c0.1,0.2,0.1,0.5,0,0.8l-5,11.5
	c-0.2,0.5-0.7,0.7-1.1,0.4c-0.2-0.1-0.3-0.2-0.4-0.4L898.5,234c-0.2-0.5,0-1.1,0.4-1.4C899,232.6,899.1,232.6,899.2,232.6z"/>
<linearGradient id="SVGID_2_" gradientUnits="userSpaceOnUse" x1="1021.9303" y1="-77.114" x2="1021.9303" y2="-77.114" gradientTransform="matrix(1 0 0 -1 -17.96 227.97)">
	<stop  offset="0" style="stop-color:#808080;stop-opacity:0.25"/>
	<stop  offset="0.54" style="stop-color:#808080;stop-opacity:0.12"/>
	<stop  offset="1" style="stop-color:#808080;stop-opacity:0.1"/>
</linearGradient>
<path class="st12" d="M1004,305.1L1004,305.1L1004,305.1z"/>
<linearGradient id="SVGID_3_" gradientUnits="userSpaceOnUse" x1="943.8248" y1="-27.2397" x2="1027.7205" y2="-27.2397" gradientTransform="matrix(1 0 0 -1 -17.96 227.97)">
	<stop  offset="0" style="stop-color:#808080;stop-opacity:0.25"/>
	<stop  offset="0.54" style="stop-color:#808080;stop-opacity:0.12"/>
	<stop  offset="1" style="stop-color:#808080;stop-opacity:0.1"/>
</linearGradient>
<path class="st13" d="M1009.8,298.6c0,0-0.2,0.4-0.5,1l0,0.1c-0.3,0.5-0.6,1.3-1,2l-0.8,0h-0.3c-9.3,0.4-18.6,0.8-27.8,1.2l-2.3,0.1
	h-0.3c-3.2,0.1-6.4,0.2-9.6,0.3h-0.9h0h-1l-1.4,0c-1.5,0-3,0-4.5,0h-1.8c-5.4,0-10.9-0.2-16.3-0.5l-0.6,0c1.1-2.5,3-6.7,4.5-8.1
	c1.2-1,9.7-2.2,17.6-3l0.8-0.1h0l2.2-0.2c3-0.3,5.7-0.5,7.7-0.7l0.2,0l-1-3.8l-1.5-5.5l0.4-4.6l0-0.4h0c-0.4,0-0.8,0-1.2-0.2
	l-14.7-0.6h-0.3l0,0l-5.6-0.2l0,0c-3-0.1-5.2-0.2-5.3-0.2c-0.1,0-0.2,0-0.3-0.1c-0.1-0.1-0.3-0.1-0.4-0.2c-0.1-0.1-0.2-0.3-0.3-0.4
	h-0.1h-0.1l-0.8,0.1l-0.4,0c0,0,0-0.1,0-0.1c0-0.1-0.1-0.3-0.1-0.4h-0.2l-2.8-0.1h0c0,0-7.2,0.6-10.9-0.9l0,0
	c-1.4-0.6-2.3-1.4-2.2-2.6c0-0.3,0.1-0.6,0.2-0.8c-1.2-2.5,4.7-7,9.2-5.8c1.2,0.4,2.5,0.4,3.7,0.2c0.7-0.2,1.3-0.5,1.9-0.9
	c0.1,0,0.1-0.1,0.2-0.1c-0.1-0.1-0.2-0.1-0.2-0.1c-0.3-0.2-0.6-0.3-1-0.4l1.2-0.4h0c0,0,4.3-0.4,7.1-0.6h0c0.8,0,1.5-0.1,2-0.1
	c1.9,0.1,5.5-1.4,5.6-1.9s1.8,0,1.8,0l1.4-0.6c1.4-0.6,2.3-1.5,2.3-2.1s1.3-1.3,1.3-1.3c0.6-1.1,1.7-2.2,2.9-3.3
	c1-0.9,2.1-1.7,2.9-2.2c0.3-2.2,0.7-4.4,1.2-6.6c0.5-2,2.2-3.5,2.9-4l0.2-0.2c-0.2-0.9-0.4-1.7-0.7-2.5c0-0.1,0-0.1-0.1-0.2
	c-0.1-0.2-0.1-0.3-0.2-0.5l-0.1-0.2c-0.2,0-0.3,0.1-0.5,0.1c-0.5,0.1-1,0.1-1.5,0.1c-4.8,0-9-3.5-10.3-8.5c0,0,0,0,0,0
	c-0.2-1-0.4-2-0.4-3.1c0-1,0.1-2,0.4-3l0,0c0-0.2,0.1-0.4,0.2-0.6c0,0,0,0,0-0.1c0-0.1,0.1-0.2,0.1-0.3c-0.5,0.1-0.9,0.1-1.4,0.1
	h-0.3c-0.9,0-1.8-0.1-2.6-0.5l0,0c-0.2-0.1-0.4-0.2-0.6-0.3c0,0,0,0,0,0c-0.2-0.2-0.4-0.3-0.6-0.6c0.7-0.6,1.1-1.5,1.3-2.4
	c0.1-0.7,0-1.6,0.4-2.2c0.2-0.3,0.4-0.5,0.7-0.7c1.6-1.2,3-2.9,4.4-4.4c1.5-1.5,3.3-2.7,5.3-2.8c2.7-0.1,5,2,7.7,2.4
	c0.8,0.1,1.7,0.1,2.5,0.3c0.9,0.3,1.7,0.8,2.5,1.4c0.7,0.4,1.3,1,1.8,1.7c0.3,0.6,0.6,1.2,0.7,1.9c0.3,1.4,0.6,2.9,0.6,4.4
	c0.1,1.5,0,3.1,0.1,4.6c0.1,1.3,0.5,2.6,1.2,3.7h0c0.1,0.2,0.2,0.4,0.4,0.5c-0.3,0.1-0.5,0.2-0.8,0.2c-0.4,0.1-0.9,0.2-1.4,0.3
	c-0.2,0-0.4,0.1-0.6,0.1c-0.1,0-0.3,0-0.4,0l0.3,0.2l0.8,0.6l0,0l0.3,0.2l0.6,0.4c0.1-0.4,0.3-0.5,0.5-0.5c0.4-0.4,1,0.5,1,0.5
	c0.4,0.8,1.4,1.6,2.2,2.1c0.5,0.3,1,0.6,1.6,0.9c11.6,7.6,10.8,19,11.5,19.9s0.7,4.2,0.7,4.2s1.7,11.1,2.5,12.1c0.8,1,0,1.3,0.7,2.4
	s0.5,3.9,0.5,3.9s0.5,6.8,2.1,8.2c1.5,1.3,3.5,12.4,3.9,14.6L1009.8,298.6z"/>
<path class="st14" d="M942,263c0,0-1.6,2.8-6.2,1.5s-10.6,3.6-8.8,6c1.7,2.4,12.8-0.7,12.8-0.7l4.2-0.9l-0.3-3.9L942,263z"/>
<path class="st4" d="M942,263c0,0-1.6,2.8-6.2,1.5s-10.6,3.6-8.8,6c1.7,2.4,12.8-0.7,12.8-0.7l4.2-0.9l-0.3-3.9L942,263z"/>
<path class="st15" d="M943.5,262.9l-2-0.1l-1.2,0.4c0,0,3.8,0.6,2.8,6.4l4.1-0.3L943.5,262.9z"/>
<path class="st4" d="M943.5,262.9l-2-0.1l-1.2,0.4c0,0,3.8,0.6,2.8,6.4l4.1-0.3L943.5,262.9z"/>
<path class="st16" d="M969.6,250c0,0-5.4,3.4-6.9,6.3c0,0-1.3,0.7-1.3,1.3s-0.8,1.4-2.2,2l-1.4,0.6c0,0-1.6-0.4-1.8,0
	c-0.2,0.4-3.7,1.9-5.5,1.8c-1.8-0.1-8.9,0.7-8.9,0.7c2.7,1.3,4.2,4.6,3.6,7.8l16.8-0.8l6.4-1.6l3.7-4.1L969.6,250z"/>
<path class="st4" d="M969.6,250c0,0-5.4,3.4-6.9,6.3c0,0-1.3,0.7-1.3,1.3s-0.8,1.4-2.2,2l-1.4,0.6c0,0-1.6-0.4-1.8,0
	c-0.2,0.4-3.7,1.9-5.5,1.8c-1.8-0.1-8.9,0.7-8.9,0.7c2.7,1.3,4.2,4.6,3.6,7.8l16.8-0.8l6.4-1.6l3.7-4.1L969.6,250z"/>
<path class="st14" d="M944.8,274.7l-2.4-0.1l-2.8-0.1c0,0-13.1,1.1-12.9-3.5c0.3-4.6,10.4-6.3,11.8-4.9c1.1,1,3.5,1.8,4.7,2.2
	c0.4,0.1,0.6,0.2,0.6,0.2L944.8,274.7z"/>
<path class="st4" d="M944.8,274.7l-2.4-0.1c-0.9-3.6,0.2-5.6,0.8-6.4c0.4,0.1,0.6,0.2,0.6,0.2L944.8,274.7z"/>
<path class="st15" d="M946.4,274.9l-2.5,0.2l-1.2,0.1c-1.6-5.2,1-7.3,1-7.3h0.8l1.3,0.2L946.4,274.9z"/>
<path class="st14" d="M976.3,240.1l-2.9,6.1c0,0-0.4-6.2-1.8-9.2c-0.3-0.8-0.7-1.3-1.2-1.4c-1.2-0.4,5.9-9,5.9-9
	c0.2,0.1,1.6,1,3.3,2.3c1.8,1.4,4,3,5.5,4.1C988,235,976.3,240.1,976.3,240.1z"/>
<path class="st16" d="M972.6,240.2c0,0-2.4,1.7-3,4.1c-0.7,2.5-1.3,6.9-1.3,6.9s1.1,10.5,1.6,11s2.7,11,2.7,11l2-1.5l-2.7-13.3
	C971.9,258.5,973.7,241.4,972.6,240.2z"/>
<path class="st4" d="M972.6,240.2c0,0-2.4,1.7-3,4.1c-0.7,2.5-1.3,6.9-1.3,6.9s1.1,10.5,1.6,11s2.7,11,2.7,11l2-1.5l-2.7-13.3
	C971.9,258.5,973.7,241.4,972.6,240.2z"/>
<polygon class="st15" points="982.8,263.7 971.1,263.7 973,243.2 982.8,243.2 "/>
<path class="st17" d="M955.5,305h0.1l-0.3,0.1L955.5,305z"/>
<path class="st17" d="M977.7,295.6l-2.3,1l-0.3,0.1l-8.3,3.5l-3.2,1.3l-4.3,1.8h-1.8c-5.4,0-10.9-0.2-16.3-0.5
	c1-2.5,2.9-6.6,4.4-7.9c1.2-1,9.5-2.1,17.2-3c1-0.1,1.9-0.2,2.8-0.3l0.2,0c3-0.3,5.8-0.6,7.7-0.7l0.3,0l2.4-0.2l0.3-0.3l0.3,1.5
	l0.3,1.2L977.7,295.6z"/>
<path class="st4" d="M955.5,305h0.1l-0.3,0.1L955.5,305z"/>
<path class="st4" d="M977.7,295.6l-2.3,1l-0.3,0.1l-8.3,3.5l-3.2,1.3l-4.3,1.8h-1.8c-5.4,0-10.9-0.2-16.3-0.5c1-2.5,2.9-6.6,4.4-7.9
	c1.2-1,9.5-2.1,17.2-3c1-0.1,1.9-0.2,2.8-0.3l0.2,0c3-0.3,5.8-0.6,7.7-0.7l0.3,0l2.4-0.2l0.3-0.3l0.3,1.5l0.3,1.2L977.7,295.6z"/>
<path class="st17" d="M955.5,305h0.1l-0.3,0.1L955.5,305z"/>
<path class="st17" d="M965.5,305c0,0,0,0.1,0,0.1l0,0C965.5,305.1,965.5,305,965.5,305L965.5,305z"/>
<polygon class="st17" points="977.6,305.1 977.3,305.1 977.3,305 977.5,305 "/>
<path class="st17" d="M979.7,292.1l-0.2,7v0.4v0l-0.1,3.5l-2.3,0.1h-0.3c-3.2,0.1-6.4,0.2-9.6,0.3h-0.9h0h-1l-1.4,0
	c-1.5,0-3,0-4.5,0h-1.8c1.6-1.1,3.7-2.3,5.9-3.5c1-0.5,2-1.1,3.1-1.6c2.8-1.4,5.6-2.8,7.9-3.9l0.3-0.1c0.9-0.4,1.7-0.8,2.4-1.1
	C978.7,292.5,979.6,292,979.7,292.1L979.7,292.1z"/>
<path class="st4" d="M959,263.2c0.6,1.3,1.2,2.7,2.1,3.7c0.2,0.2,0.4,0.3,0.6,0.1c0-0.1,0.1-0.2,0.1-0.3c0-0.6-0.2-1.2-0.6-1.7
	c-0.3-0.5-0.7-1-0.9-1.6s-0.6-1.6-1.2-1.7C958.3,261.6,958.8,262.8,959,263.2z"/>
<path class="st4" d="M979.6,228.9c0,0.2-0.1,0.3-0.1,0.5c-1.2,3.9-4.1,6.9-7.8,7.7c-0.3-0.8-0.7-1.3-1.2-1.4c-1.2-0.4,5.9-9,5.9-9
	C976.6,226.6,977.9,227.6,979.6,228.9z"/>
<path class="st14" d="M980,225.6c0,6.3-4.7,11.5-10.4,11.5s-10.4-5.1-10.4-11.5s4.7-11.5,10.4-11.5C975.3,214.1,980,219.2,980,225.6
	C980,225.6,980,225.6,980,225.6z"/>
<path class="st17" d="M973.6,242.7c0,0-2.2,2.9-1.8,4.8h2.6l1.9-2.4L973.6,242.7z"/>
<path class="st4" d="M981.3,230.4l-8.3,12.5c0,0,2.1,3.4,3.1,3.5c1,0.2,6.8-14.8,6.8-14.8L981.3,230.4z"/>
<path class="st15" d="M981.4,230.2l-8.3,12.6c0,0,2.1,3.3,3.1,3.5s6.8-14.8,6.8-14.8L981.4,230.2z"/>
<path class="st17" d="M972.1,246.2c0,0-0.4,7-0.8,8.4c-0.4,1.4,0,14.2,0,14.2l3.8-1.7l-0.7-19.7L972.1,246.2z"/>
<polygon class="st4" points="977.5,305 977.6,305.1 977.3,305.1 977.3,305 "/>
<path class="st4" d="M1004,305.1L1004,305.1L1004,305.1z"/>
<path class="st4" d="M1008.6,298.9c0,0-0.1,0.1-0.2,0.3c-0.1,0.2-0.2,0.5-0.4,0.8c0,0,0,0,0,0c-0.2,0.5-0.5,1-0.8,1.7
	c-9.3,0.4-18.6,0.8-27.8,1.2l-2.3,0.1h-0.3l-1-3.6v0l-0.1-0.4l-0.6-2.3l-0.6-2.3l-0.6-2.5l-0.2-0.9l-0.1-0.2l-1-3.8l-1.4-5.1
	l0.4-4.9l0,0l0-0.4l0.4-4.4l0.1-1.3l0,0l0-0.7V270l0,0l0.1-1.6l0.2-4.7l0.1-2.4l0,0l0-0.4l0,0l0.2-4.8l0.6-2l0.3-1l0.7-2.3l0.1-0.6
	l0,0c0.2-0.9,0.7-2.6,1.1-4.2l0,0l0-0.1l0,0l0-0.1l0.3-1.2l0.4-1.5c0.1-0.6,0.2-1,0.2-1.1c0-0.2,0.6-1.3,1.4-2.7l0,0
	c1.5-2.8,3.9-7,4.1-8.4c0,0,0,0,0,0c0-0.1,0-0.2,0.1-0.2c0.1-0.4,0.3-0.5,0.5-0.5c0.1,0,0.2,0.1,0.2,0.1c0.2,0.1,0.3,0.3,0.5,0.5
	c0.4,0.8,1.3,1.5,2.2,2.1l0.2,0.1l0.1,0.1c0.7,0.4,1.3,0.7,1.3,0.7c11.3,7.5,10.6,18.8,11.3,19.7c0.7,0.9,0.7,4.1,0.7,4.1
	s1.7,11,2.4,12c0.8,1,0.1,1.3,0.7,2.3c0.7,1.1,0.5,3.9,0.5,3.9s0.5,6.7,2.1,8.1C1006.4,285.5,1008.6,298.9,1008.6,298.9z"/>
<path class="st16" d="M1008.9,298.8l-0.1,0.3l0,0c-0.1,0.2-0.3,0.5-0.5,1l0,0c-0.2,0.5-0.5,1.1-0.8,1.7h-0.3
	c-9.3,0.4-18.6,0.8-27.8,1.2l-2.3,0.1l-1-3.6v0l-0.1-0.4l-0.6-2.4l-0.6-2.3l-0.6-2.3l-0.2-0.9l0,0l-1.1-4l-1.4-5.3l0.4-4.3l0.1-0.6
	l0.4-4.9l0,0l0.2-3.8l0.2-4.6l0.1-1.2l0.1-1.4l0-0.6l0.2-4.6l0.6-2l0.3-0.9l0.6-2l0.1-0.4c0,0,0.6-2.2,1.1-4.5c0-0.1,0-0.2,0.1-0.2
	c0-0.2,0.1-0.4,0.1-0.6l0,0c0-0.2,0.1-0.4,0.1-0.6c0.2-0.6,0.3-1.2,0.4-1.7c0.2-0.6,0.3-1.1,0.3-1.2c0-0.2,0.6-1.3,1.4-2.8
	c1.5-2.7,3.6-6.5,4-8.1c0-0.1,0-0.2,0.1-0.2l0,0c0-0.3,0.1-0.5,0.3-0.7c0.4-0.4,1,0.5,1,0.5c0.4,0.8,1.3,1.5,2.2,2.1
	c0.5,0.3,1,0.6,1.5,0.9c11.3,7.5,10.6,18.8,11.3,19.7c0.7,0.9,0.7,4.1,0.7,4.1s1.7,11,2.4,12c0.8,1,0.1,1.3,0.7,2.3
	c0.7,1.1,0.5,3.9,0.5,3.9s0.5,6.7,2.1,8.1C1006.7,285.4,1008.9,298.8,1008.9,298.8z"/>
<path class="st4" d="M985.8,233.1c-1.1,1.8-2.9,4.9-3.4,7.2c0,0-1.8,2-2.4,1.9c-0.7-0.1,0.6,1.5,0.6,1.5l-6.9,10.6l1-3.3
	c0,0,2.1-8,2.2-8.8c0.1-0.7,5.1-9,5.5-11.1c0.3-1.7,1.3-0.2,1.3-0.2C984,231.7,985,232.5,985.8,233.1z"/>
<path class="st16" d="M985.8,232.8c-1.1,1.8-2.9,4.9-3.4,7.2c0,0-1.8,2-2.4,1.9s0.6,1.5,0.6,1.5l-6.9,10.6l1-3.3c0,0,2.1-8,2.2-8.8
	c0.1-0.7,5.1-9,5.5-11.1c0.3-1.7,1.3-0.2,1.3-0.2C984,231.5,985,232.3,985.8,232.8z"/>
<path class="st4" d="M995.1,254.9c0.1,2.4-3.2,5.8-3.3,6s-10.1,9.2-10.1,9.2l-7.1,6c-0.8,0.7-1.8,1.2-2.8,1.4l0.5-5.4l0.5-10.9
	c1.1-1.4,2.2-2.8,2.2-3.3c0-0.9,1.9-2,1.9-2s1.3-1.2,1.1-1.8c-0.2-0.7,0.7-3.9,0.7-3.9c0.5-9.1,8.9-10,8.9-10s4.1,1.8,7,3.7
	S995.1,252.4,995.1,254.9z"/>
<path class="st4" d="M946.4,274.9l-2.5,0.2c-1-2,0.4-7.2,0.4-7.2h0.2l1.3,0.2L946.4,274.9z"/>
<path class="st16" d="M987.6,239.7c0,0-8.5,0.9-8.9,10c0,0-0.9,3.2-0.7,3.9s-1.1,1.8-1.1,1.8s-1.8,1-1.9,2c0,0.9-4.6,6.1-4.6,6.1
	s-1.9,2.4-6.4,2.7c-4.4,0.3-6.5,1.8-6.5,1.8s-2.2-1.7-3.7-1.2s-9.2,1.2-9.2,1.2s-2,7.5,0.5,7.9c0.3,0.1,25.3,1,25.3,1
	s1.7,0.9,4.3-1.3c2.6-2.2,7.1-6,7.1-6s9.9-9,10.1-9.2c0.2-0.2,3.4-3.5,3.3-6s2.3-9-0.6-10.9C991.6,241.5,987.6,239.7,987.6,239.7z"
	/>
<path class="st4" d="M980,225.6c0,1.2-0.2,2.4-0.5,3.6c-0.1-0.2-0.3-0.4-0.4-0.6c-0.5-0.8-1-1.6-1.5-2.5c-0.4-0.7-0.9-1.4-1.5-1.9
	c-0.6-0.5-1.5-0.7-2.2-0.3c-0.6,0.4-0.9,1.2-0.9,1.9c0,0.8,0,1.5,0.1,2.3c0,0.3,0,0.6-0.2,0.8c-0.2,0.2-0.5,0.3-0.8,0.3l-0.9,0.1
	c-0.3,0.1-0.7-0.1-0.8-0.4c0,0,0,0,0,0c-0.8-1.5-1.3-3.5-2.7-4.2c-0.9-0.5-2.1-0.4-2.6-1.3c-0.4-0.6-0.3-1.4-0.2-2.1
	c0.1-0.8,0.3-1.6,0.5-2.4c0.2-0.6,0.5-1.7-0.3-1.8c-0.6-0.1-1.3,0.6-1.6,1s-0.3,1.1-0.5,1.6c-0.4,0.9-1.1,1.6-1.9,2
	c-0.4,0.2-0.9,0.3-1.3,0.4c1.8-6,7.6-9.4,13.1-7.4C977.1,216.1,980,220.6,980,225.6L980,225.6z"/>
<path class="st16" d="M963.4,217.8c-0.3,0.5-0.3,1.1-0.5,1.6c-0.4,0.9-1.1,1.6-1.9,2c-0.8,0.3-1.7,0.5-2.6,0.5c-1.4,0-3-0.2-4-1.4
	c0.7-0.6,1.1-1.4,1.2-2.4c0.1-0.7,0-1.5,0.4-2.1c0.2-0.3,0.4-0.5,0.7-0.7c1.6-1.2,2.9-2.9,4.3-4.4c1.5-1.4,3.2-2.7,5.2-2.8
	c2.6-0.1,4.9,2,7.5,2.3c0.8,0.1,1.6,0.1,2.4,0.3c0.9,0.3,1.7,0.8,2.4,1.4c0.7,0.4,1.3,1,1.7,1.7c0.3,0.6,0.6,1.2,0.7,1.9
	c0.3,1.4,0.5,2.9,0.6,4.3c0.1,1.5,0,3.1,0.1,4.6c0.1,1.5,0.6,3.1,1.5,4.2c-0.7,0.2-1.4,0.4-2.1,0.5c-0.4,0.1-0.9,0.1-1.3-0.1
	c-0.3-0.2-0.6-0.6-0.8-1l-1.5-2.5c-0.4-0.7-0.9-1.4-1.5-1.9c-0.6-0.5-1.5-0.7-2.2-0.3c-0.6,0.4-0.9,1.2-0.9,1.9c0,0.8,0,1.5,0.1,2.3
	c0,0.3,0,0.6-0.2,0.8c-0.2,0.2-0.5,0.3-0.8,0.3l-0.9,0.1c-0.3,0.1-0.7-0.1-0.8-0.4c0,0,0,0,0,0c-0.8-1.5-1.3-3.5-2.7-4.2
	c-0.9-0.5-2.1-0.4-2.6-1.3c-0.4-0.6-0.3-1.4-0.2-2.1c0.1-0.8,0.3-1.6,0.5-2.4c0.2-0.6,0.5-1.7-0.3-1.8
	C964.5,216.7,963.7,217.3,963.4,217.8z"/>
<path class="st4" d="M987,244.8c0.8-0.1,1.6-0.2,2.3,0.1c-1.9-0.9-5-0.5-6.8,0.7C982.7,246,986.4,244.9,987,244.8z"/>
<path class="st4" d="M987.9,247.6c1.9,0.1,3.9,0.4,5.7-0.2c-1.5-0.6-3.2-0.2-4.8-0.4c-1.3-0.1-2.6-0.6-3.8-0.3
	c-0.5,0.1-2.4,1.1-2.3,1.8C984.3,247.7,986.1,247.4,987.9,247.6z"/>
<path class="st4" d="M982.8,252.2c0.4,0,0.8,0,1.2,0.1c1.4,0.4,2.9,0.5,4.4,0.5c1.1,0,2.3-0.2,3.1-1L982.8,252.2z"/>
<path class="st4" d="M976.7,262.9c1.3,0.7,2.8,1,4.3,0.9c1.5-0.1,2.9-0.4,4.3-0.9c0.6-0.2,1.3-0.5,1.7-1L976.7,262.9z"/>
<path class="st4" d="M990.4,264.4c2.9,1.8,6.1,2.9,9.4,3.2c-1.7-0.7-3.4-1.4-5.1-2.1c-1.7-0.7-3.5-1.2-5.3-1.6
	C989.8,264,990.1,264.2,990.4,264.4z"/>
<path class="st4" d="M995.1,262.4c0.6,0.1,1.2,0.1,1.8,0.1c0.3,0,0.7,0,0.9-0.3c-1.3,0.1-2.6-0.3-3.9-0.6c-0.4-0.1-1-0.3-1.3-0.1
	C993,261.9,994.3,262.3,995.1,262.4z"/>
<path class="st4" d="M1003.1,292.9c0.7,1.3,1.4,2.7,2.4,3.8c0.6,0.6,1.1,1.2,1.8,1.7c-1.1-3.2-2.3-6.5-4.2-9.3
	c-0.5-0.7-1.2-1.7-2-1.9c-0.2,0.8,0.4,2.2,0.7,2.9C1002.1,291.1,1002.6,292,1003.1,292.9z"/>
<path class="st4" d="M969.2,268.8c-0.1,0.5-0.1,1.2,0.2,1.6c0.1,0.2,0.4,0.4,0.6,0.4c-0.1,0-0.3-1.6-0.3-1.9c-0.1-0.4,0-1.3-0.3-1.6
	C969.3,267.8,969.3,268.3,969.2,268.8z"/>
<path class="st4" d="M970.9,268.2c0.2,1,0.8,1.8,1.5,2.3c-0.5-0.7-0.7-1.7-1.2-2.5c-0.2-0.3-0.3-0.6-0.6-0.7
	C970.7,267.6,970.8,267.9,970.9,268.2z"/>
<path class="st4" d="M969.5,258.3c-0.9,0.6-2,0.8-3.1,0.4c-0.2-0.1-0.8-0.3-0.6-0.7c0.1-0.4,0.8-0.1,1-0.1l1.3,0.2
	C968.4,258.2,969.3,258.4,969.5,258.3z"/>
<path class="st4" d="M964.9,260.7c0.6-0.1,1.2,0.4,1.8,0.7c0.7,0.2,1.3,0.3,2,0.3c0.3,0,0.7,0,1-0.3
	C968.1,261,966.6,260.5,964.9,260.7z"/>
<polygon class="st15" points="972.6,240.2 972.7,240.2 973.4,243.2 972.6,244.2 "/>
<g class="st18">
	<path d="M955.8,216.4c-0.1,0.5-0.1,1-0.1,1.5c0-0.2,0.1-0.3,0.1-0.5C955.8,217,955.8,216.7,955.8,216.4z"/>
	<path d="M965.1,216.7c0.3,0,0.5,0.3,0.5,0.6c0,0,0,0,0,0c0.1-0.6,0.2-1.3-0.4-1.4c-0.6-0.1-1.3,0.6-1.6,1c-0.3,0.5-0.3,1.1-0.5,1.6
		c-0.4,0.9-1.1,1.6-1.9,2c-0.8,0.3-1.7,0.5-2.6,0.5c-1.3,0-2.8-0.2-3.7-1.1c-0.1,0.1-0.2,0.3-0.4,0.4c0.9,1.2,2.5,1.5,4,1.4
		c0.9,0,1.8-0.2,2.6-0.5c0.8-0.4,1.5-1.1,1.9-2c0.2-0.5,0.3-1.1,0.5-1.6C963.7,217.3,964.5,216.7,965.1,216.7z"/>
	<path d="M981.4,228.7c-0.4,0.1-0.9,0.1-1.3-0.1c-0.3-0.2-0.6-0.6-0.8-1c-0.5-0.8-1-1.6-1.5-2.5c-0.4-0.7-0.9-1.4-1.5-1.9
		c-0.6-0.5-1.5-0.7-2.2-0.3c-0.6,0.4-0.9,1.2-0.9,1.9c0,0,0,0.1,0,0.1c0.1-0.6,0.4-1,0.8-1.3c0.7-0.4,1.5-0.2,2.2,0.3
		c0.6,0.5,1.1,1.2,1.5,1.9c0.5,0.8,1,1.6,1.5,2.5c0.2,0.4,0.5,0.7,0.8,1c0.4,0.2,0.9,0.2,1.3,0.1c0.7-0.1,1.4-0.3,2.1-0.5
		c-0.1-0.2-0.3-0.3-0.4-0.5C982.5,228.4,981.9,228.6,981.4,228.7z"/>
	<path d="M973.1,227.9c-0.2,0.2-0.5,0.3-0.8,0.3l-0.9,0.1c-0.3,0.1-0.7-0.1-0.8-0.4c0,0,0,0,0,0c-0.8-1.5-1.3-3.5-2.7-4.2
		c-0.9-0.5-2.1-0.4-2.6-1.3c-0.3-0.5-0.4-1.2-0.3-1.8c0,0.1,0,0.2-0.1,0.3c-0.1,0.7-0.2,1.5,0.2,2.1c0.6,0.9,1.7,0.9,2.6,1.3
		c1.4,0.7,2,2.7,2.7,4.2c0.1,0.2,0.2,0.4,0.4,0.5c0.2,0.1,0.3,0.1,0.5,0l0.9-0.1c0.3,0,0.6-0.1,0.8-0.3c0.1-0.2,0.2-0.5,0.2-0.8l0,0
		C973.1,227.8,973.1,227.9,973.1,227.9z"/>
</g>
<path class="st2" d="M1101.1,308.5l-2-0.3v-32.3l0.4,0.1l1.2,0.4v1.1v0.8v1.2l0,1.4l0,2.9v0.3v0.4v0.8v0.5v1.2v0.8l0.1,14.6v0.4
	l0.1,5.1v0.1L1101.1,308.5z"/>
<path class="st19" d="M1102.2,308.6l-1.1-0.2v-0.6v-0.1l-0.1-5.1v-0.4l-0.1-14.6V287v-1.2v-0.5v-0.8v-0.4v-0.3l0-2.9l0-1.4v-1.2
	v-0.8v-1.1h1.2v1.2v0.8v0.9v1.2l0,3.1v0.7v0.7v0.5v0.6v0.8l0,0l0.1,15.3v0.4l0,5.1v0.1L1102.2,308.6z"/>
<path class="st19" d="M1102.2,310.5L1102.2,310.5z"/>
<path class="st2" d="M1222.5,271.8v27.9c-0.6,0.5-1.2,0.9-1.8,1.3l0-23.2v-2.5L1222.5,271.8z"/>
<path class="st19" d="M1223.8,271.4v27.2c-0.4,0.4-0.9,0.7-1.3,1.1v-27.9L1223.8,271.4z"/>
<path class="st2" d="M1195.1,311c-0.8,0.2-1.5,0.3-2.3,0.5l0-25.2v-1.1l2.2-1v2.3L1195.1,311z"/>
<path class="st19" d="M1196.5,283.3v27.3c-0.5,0.1-1,0.2-1.4,0.3l-0.1-24.5v-2.3l0.1-0.1l0,0L1196.5,283.3z"/>
<path class="st2" d="M1065.4,303.4l-2.1-0.2l-0.3-28.5v-0.8v-0.5h2v0.7v0.8L1065.4,303.4z"/>
<path class="st19" d="M1067,303.6l-1.5-0.2l-0.3-28.5v-0.8v-0.7h1.6v0.9v0.8L1067,303.6z"/>
<polygon class="st4" points="1195.1,284 1196.5,283.3 1196.5,286.7 1195.2,287.2 "/>
<polygon class="st4" points="1223.8,271.4 1223.8,276.7 1222.5,277.2 1220.7,277.8 1220.7,275.4 1222.5,271.8 "/>
<polygon class="st6" points="1223.8,261.3 1223.8,275.9 1195.2,286.4 1195,270.8 "/>
<polygon class="st5" points="1062.7,260.3 1100.4,252.4 1223.8,261.3 1195,270.8 "/>
<polygon class="st4" points="1066.7,273.3 1066.7,275 1065.1,274.9 1063.1,274.7 1063.1,273.3 "/>
<polygon class="st4" points="1102,278.4 1100.8,278.3 1099.1,278.1 1099.1,275.8 1100.8,276.4 1102,276.4 "/>
<polygon class="st6" points="1062.7,260.3 1062.7,273.9 1195.2,286.4 1195,270.8 "/>
<polygon class="st6" points="1167.7,276.4 1150.4,276.4 1150.4,269.5 1167.7,270.8 "/>
<polygon class="st4" points="1167.7,276.4 1150.4,276.4 1150.4,269.5 1167.7,270.8 "/>
<polygon class="st4" points="1127.2,268 1127.2,278.9 1193.6,284.5 1193.6,272.8 1167.7,271.2 1165.1,273.8 1154.6,272.9 
	1150.8,269.9 "/>
<polygon class="st20" points="1126.8,267.6 1126.8,278.5 1193.2,284.1 1193.2,272.4 1167.3,270.8 1164.8,273.3 1154.2,272.5 
	1150.4,269.5 "/>
<polygon class="st6" points="1085.9,264.6 1101.6,265.8 1101.4,271.4 1091.2,271.4 1084.3,268.4 "/>
<polygon class="st4" points="1085.9,264.6 1101.6,265.8 1101.4,271.4 1091.2,271.4 1084.3,268.4 "/>
<polygon class="st4" points="1064.9,263.1 1064.9,272.9 1125.2,278.2 1125.2,267.8 1102,266.2 1099.5,268.3 1090.1,267.7 
	1086.3,265 "/>
<polygon class="st20" points="1064.6,262.7 1064.6,272.5 1124.8,277.8 1124.8,267.4 1101.6,265.8 1099.1,267.9 1089.7,267.3 
	1085.9,264.6 "/>
<polygon class="st4" points="1193.6,262.7 1202,263.3 1188.1,268 1180.9,267.4 "/>
<polygon class="st20" points="1193.6,262.3 1202,262.9 1188.1,267.6 1180.9,267 "/>
<path class="st19" d="M1192.6,263.4c0.3-0.2,0.7,0.1,1,0.2c0.2,0,0.4,0,0.6,0c0.4,0.1,0.8,0.4,1.2,0.2L1192.6,263.4z"/>
<path class="st19" d="M1192.2,263.7c0.3-0.2,0.7,0.1,1,0.2c0.2,0,0.4,0,0.6,0c0.4,0.1,0.8,0.4,1.2,0.2L1192.2,263.7z"/>
<path class="st19" d="M1191.2,264.2c0.3-0.2,0.7,0.1,1,0.2c0.2,0,0.4,0,0.6,0c0.4,0.1,0.8,0.4,1.2,0.2L1191.2,264.2z"/>
<polygon class="st4" points="1136.6,257.6 1155.5,259 1151.4,265.3 1130.7,262.9 "/>
<polygon class="st3" points="1136.3,257.2 1155.1,258.6 1151.1,264.9 1130.4,262.5 "/>
<polygon class="st21" points="1137.1,257.7 1153.5,258.8 1150,264 1132,262 "/>
<path class="st3" d="M1102.2,310.5L1102.2,310.5z"/>
<path class="st4" d="M1102.2,310.5L1102.2,310.5z"/>
<path class="st3" d="M1102.1,310.5L1102.1,310.5z"/>
<path class="st3" d="M1126.1,309.7c0,0.1,0,0.2,0,0.3s0,0.2,0,0.3c-0.1,0.6-0.2,1.2-0.4,1.7l0,0c-7.8-1-15.6-2.1-23.4-3.3l-1.1-0.2
	l-2-0.3l-1.7-0.3l0,0c-1.8-0.1-3.7-0.2-5.5-0.6c-1.1-0.2-2.3-0.4-3.4-0.8c-4.9-0.7-9.9-1.5-14.9-2.1l-0.6-0.1
	c0.1-0.6,0.2-0.9,0.2-0.9s1.1-4.6,1.9-9.8l0,0c0.2-1.1,0.4-2.3,0.5-3.4c0.1-0.9,0.2-1.8,0.3-2.7c0.1-0.5,0.1-0.9,0.1-1.4
	c0-0.2,0-0.5,0.1-0.7c0-0.2,0-0.5,0-0.7s0-0.4,0-0.7v-0.3c0-0.5,0-0.9,0-1.4c-0.2-2.5-0.5-4.9-1.1-7.3c-0.1-0.4-0.2-0.8-0.3-1.2
	c0-0.1-0.1-0.3-0.1-0.4c-1-4.3-2.2-7.8-2.2-7.8c0,0,0,0,0-0.1c0,0,0,0,0,0c0,0,0-0.1,0-0.1c0-0.1,0-0.3,0-0.5c0,0,0-0.1,0-0.1
	c0-0.4,0.1-0.7,0.2-1.1c0-0.1,0.1-0.2,0.1-0.4c0.2-0.7,0.7-1.2,1.4-1.4l0,0c0.9-0.2,2.2,0,4.2,1.3c0.3,0.2,0.6,0.4,0.9,0.7
	c0.1,0.1,0.3,0.3,0.4,0.4c2.3,2.4,3.5,6.2,4.2,9.8c0,0.1,0,0.3,0.1,0.4c0.1,0.4,0.1,0.9,0.2,1.3c0.1,0.7,0.2,1.4,0.3,2.1
	c0,0.2,0,0.3,0,0.5s0,0.3,0,0.5c0,0.5,0.1,1,0.1,1.4c0.1,1.1,0,1.8,0,1.8v0c0,0,0,0.1,0,0.1c0,0,0,0,0,0c0,0,0,0.1,0,0.2
	s0,0.1,0,0.2c0,0.1,0,0.3,0,0.5c0,0.3-0.1,0.6-0.1,1l0,0c0,0.3-0.1,0.6-0.1,0.9c-0.1,0.7-0.1,1.5-0.2,2.3c0,0.2,0,0.3,0,0.5
	c-0.1,0.7-0.1,1.5-0.2,2.2l0,0c-0.1,0.9-0.2,1.7-0.3,2.6c0,0.2,0,0.4-0.1,0.5c-0.2,2-0.5,3.9-0.6,5.1c0,0.2,0,0.3-0.1,0.5
	c0,0.1,0,0.1,0,0.2c0,0.2,0,0.3,0,0.5c0.2,2.9,3,3.4,3,3.4l13-0.3l1.9,0l1.1,0l10.1-0.2l0,0l0.9,0l5-0.1c0.3,0,0.7,0,1,0.1
	c1.6,0.5,3,1.2,4.4,2.1c0.4,0.3,0.8,0.7,1.1,1.1c0,0,0,0,0,0.1c0.7,0.9,1.1,2,1.2,3.2c0,0.1,0,0.2,0,0.2
	C1126.1,309.3,1126.1,309.5,1126.1,309.7z"/>
<path class="st4" d="M1102.1,310.5L1102.1,310.5z"/>
<path class="st4" d="M1126.1,309.7c0,0.1,0,0.2,0,0.3s0,0.2,0,0.3c-0.1,0.6-0.2,1.2-0.5,1.7c-7.8-1-15.6-2.1-23.4-3.3l-1.1-0.2
	l-2-0.3l-1.7-0.3l0,0c-1.8-0.1-3.7-0.2-5.5-0.6c-1.1-0.2-2.3-0.4-3.4-0.8c-4.9-0.7-9.9-1.5-14.9-2.1l-0.6-0.1l0,0
	c0.1-0.6,0.2-1,0.2-1s0.9-3.8,1.7-8.3l0,0c0.1-0.3,0.1-0.6,0.2-0.9l0.1-0.5l0,0c0.2-1.1,0.4-2.3,0.5-3.4c0.1-0.9,0.2-1.8,0.3-2.7
	c0.1-0.5,0.1-0.9,0.1-1.4c0-0.2,0-0.5,0.1-0.7c0-0.2,0-0.5,0-0.7c0-0.2,0-0.4,0-0.7v-0.3c0-0.5,0-0.9,0-1.4c-0.2-2.5-0.5-4.9-1-7.3
	c-0.1-0.4-0.2-0.8-0.3-1.2c0-0.1-0.1-0.3-0.1-0.4c-1-4.3-2.2-7.8-2.2-7.8c0,0,0,0,0,0c0,0,0,0,0,0c0,0,0-0.1,0-0.1
	c0-0.1,0-0.3,0-0.5c0,0,0-0.1,0-0.1c0-0.4,0.1-0.7,0.2-1.1c0-0.1,0.1-0.2,0.1-0.4c0.2-0.7,0.8-1.3,1.5-1.5c0.9-0.2,2.2,0.1,4.1,1.3
	c0.3,0.2,0.7,0.5,1,0.7l0,0c0.1,0.1,0.3,0.3,0.4,0.4c2.3,2.4,3.5,6.2,4.1,9.8c0,0.1,0,0.3,0.1,0.4c0.1,0.4,0.1,0.9,0.2,1.3
	c0.1,0.7,0.2,1.4,0.2,2.1c0,0.2,0,0.4,0,0.5c0,0.2,0,0.3,0,0.5c0,0.5,0.1,1,0.1,1.4c0.1,1.1,0,1.8,0,1.8v0.1c0,0,0,0,0,0.1
	c0,0,0,0,0,0c0,0,0,0.1,0,0.2c0,0.1,0,0.1,0,0.2c0,0.1,0,0.3,0,0.5c0,0.3-0.1,0.6-0.1,1l0,0c0,0.3-0.1,0.6-0.1,0.9
	c-0.1,0.7-0.1,1.5-0.2,2.3c0,0.2,0,0.3,0,0.5c-0.1,0.7-0.1,1.5-0.2,2.2l0,0c-0.1,0.9-0.2,1.7-0.3,2.5c0,0.2,0,0.4-0.1,0.5
	c-0.2,2-0.5,3.9-0.6,5c0,0.2-0.1,0.4-0.1,0.6c0,0.1,0,0.1,0,0.2c0,0.2,0,0.3,0,0.5c0.2,2.9,3,3.4,3,3.4l13-0.3l1.9,0l1.1,0l10.1-0.2
	l0.9,0l5-0.1c0.3,0,0.7,0,1,0.1c1.6,0.4,3.1,1.2,4.4,2.1c0.4,0.3,0.8,0.7,1.2,1.1c0,0,0,0,0,0.1c0.7,0.9,1.1,2,1.2,3.2
	c0,0.1,0,0.2,0,0.2C1126.1,309.3,1126.1,309.5,1126.1,309.7z"/>
<path class="st3" d="M1102.1,310.5L1102.1,310.5z"/>
<path class="st3" d="M1126.1,312l-0.5-0.1l0,0c-7.8-1-15.6-2.1-23.4-3.3l-1.1-0.2l-2-0.3l-1.7-0.3l0,0c-1.8-0.1-3.7-0.2-5.5-0.6
	c-1.1-0.2-2.3-0.4-3.4-0.8c-4.9-0.7-9.9-1.5-14.9-2.1c0.1-0.5,0.2-1,0.3-1.4c0,0,2.9-12.8,3.1-19.6c0.1-2.4-0.4-5.4-1-8.3l0,0
	c-0.1-0.4-0.2-0.8-0.3-1.2l-0.1-0.4c-1-4.5-2.3-8.2-2.3-8.2c0-0.5,0-0.9,0.1-1.4c0-0.1,0-0.2,0.1-0.4c0.1-0.6,0.4-1.1,0.8-1.5l0,0
	c0,0,0,0,0.1,0c0.8-0.7,2.3-0.7,4.9,0.9c0.5,0.3,1,0.8,1.5,1.2c0.1,0.1,0.2,0.3,0.4,0.4c2.1,2.5,3.2,6.3,3.8,9.7l0.1,0.4
	c0.1,0.4,0.1,0.8,0.2,1.3c0,0,0,0,0,0l0,0c0.1,0.5,0.1,1.1,0.2,1.5l0,0c0.1,1.4,0.2,2.9,0.2,4.4c0,0-0.1,1.3-0.3,3.3
	c-0.1,0.8-0.2,1.6-0.2,2.5c0,0,0,0.1,0,0.1l0,0.5c-0.2,1.6-0.3,3.3-0.5,4.8c0,0.2,0,0.4-0.1,0.6c-0.2,1.8-0.4,3.3-0.6,4.3
	c-0.6,4,2.9,4.6,2.9,4.6l12.2-0.3l1.9,0l1.1,0h0.5h0.2l9.7-0.2h0.9l5.6-0.1c0.3,0,0.7,0,1,0.1c1.6,0.4,3.1,1.2,4.4,2.1
	c0.4,0.3,0.7,0.6,1,1c0,0,0,0,0.1,0.1C1127,307.1,1127.2,309.8,1126.1,312z"/>
<polygon class="st9" points="1169.8,250.3 1173.6,259.2 1173,259.2 1168.5,250.4 "/>
<polygon class="st4" points="1169.8,250.3 1173.6,259.2 1173,259.2 1168.5,250.4 "/>
<polygon class="st9" points="1169.8,259.2 1173.6,259.2 1173.6,260.2 1169.8,260.3 "/>
<polygon class="st4" points="1169.8,259.2 1173.6,259.2 1173.6,260.2 1169.8,260.3 "/>
<path class="st9" d="M1140.4,217.4v31.2c0,1.3,0.9,2.3,2.1,2.3h47.2c1.2,0,2.1-1,2.1-2.3c0,0,0,0,0,0l-0.5-31.3c0-1.3-1-2.3-2.1-2.3
	h-46.6C1141.3,215,1140.4,216.1,1140.4,217.4z"/>
<path class="st4" d="M1140.4,217.4v31.2c0,1.3,0.9,2.3,2.1,2.3h47.2c1.2,0,2.1-1,2.1-2.3c0,0,0,0,0,0l-0.5-31.3c0-1.3-1-2.3-2.1-2.3
	h-46.6C1141.3,215,1140.4,216.1,1140.4,217.4z"/>
<path class="st9" d="M1138.7,217.4v31.2c0,1.3,0.9,2.3,2.1,2.3h47.2c1.2,0,2.1-1,2.1-2.3c0,0,0,0,0,0l-0.5-31.3
	c0-1.3-0.9-2.3-2.1-2.3h-46.6C1139.7,215,1138.7,216.1,1138.7,217.4C1138.7,217.3,1138.7,217.3,1138.7,217.4z"/>
<path class="st11" d="M1140.6,219.3v27.5c0,1.3,0.9,2.3,2.1,2.3h43.7c1.2,0,2.1-1,2.1-2.3l0,0v-27.5c0-1.3-0.9-2.3-2.1-2.3h-43.7
	C1141.5,217,1140.6,218,1140.6,219.3z"/>
<polygon class="st9" points="1159.5,250.4 1163.6,259.2 1173,259.2 1168.3,249.1 "/>
<polygon class="st9" points="1156.2,259.2 1155.5,260.2 1169.8,260.2 1169.8,259.2 "/>
<linearGradient id="SVGID_4_" gradientUnits="userSpaceOnUse" x1="-862.7191" y1="-86.2194" x2="-862.7191" y2="23.9754" gradientTransform="matrix(1 0 0 -1 1979.37 227.97)">
	<stop  offset="0" style="stop-color:#808080;stop-opacity:0.25"/>
	<stop  offset="0.54" style="stop-color:#808080;stop-opacity:0.12"/>
	<stop  offset="1" style="stop-color:#808080;stop-opacity:0.1"/>
</linearGradient>
<path class="st22" d="M1095.6,226.8c-1-3.2-1-6.7-2.3-9.8c-0.2-0.4-0.4-0.9-0.5-1.4c-0.1-0.3-0.1-0.6-0.1-0.9l-0.1,0l-0.1,0l-0.1,0
	l0,0l-0.1,0c0,0.1,0,0.2,0.1,0.3c0.1,0.5,0.3,0.9,0.5,1.4c1.3,3.1,1.3,6.7,2.3,9.9c0,0.1,0.1,0.3,0.2,0.4
	C1095.5,226.9,1095.5,226.9,1095.6,226.8C1095.6,226.9,1095.6,226.9,1095.6,226.8z M1095.6,226.8c-1-3.2-1-6.7-2.3-9.8
	c-0.2-0.4-0.4-0.9-0.5-1.4c-0.1-0.3-0.1-0.6-0.1-0.9l-0.1,0l-0.1,0l-0.1,0l0,0l-0.1,0c0,0.1,0,0.2,0.1,0.3c0.1,0.5,0.3,0.9,0.5,1.4
	c1.3,3.1,1.3,6.7,2.3,9.9c0,0.1,0.1,0.3,0.2,0.4C1095.5,226.9,1095.5,226.9,1095.6,226.8C1095.6,226.9,1095.6,226.9,1095.6,226.8z
	 M1095.6,226.8c-1-3.2-1-6.7-2.3-9.8c-0.2-0.4-0.4-0.9-0.5-1.4c-0.1-0.3-0.1-0.6-0.1-0.9l-0.1,0l-0.1,0l-0.1,0l0,0l-0.1,0
	c0,0.1,0,0.2,0.1,0.3c0.1,0.5,0.3,0.9,0.5,1.4c1.3,3.1,1.3,6.7,2.3,9.9c0,0.1,0.1,0.3,0.2,0.4
	C1095.5,226.9,1095.5,226.9,1095.6,226.8C1095.6,226.9,1095.6,226.9,1095.6,226.8z M1095.6,226.8c-1-3.2-1-6.7-2.3-9.8
	c-0.2-0.4-0.4-0.9-0.5-1.4c-0.1-0.3-0.1-0.6-0.1-0.9l-0.1,0l-0.1,0l-0.1,0l0,0l-0.1,0c0,0.1,0,0.2,0.1,0.3c0.1,0.5,0.3,0.9,0.5,1.4
	c1.3,3.1,1.3,6.7,2.3,9.9c0,0.1,0.1,0.3,0.2,0.4C1095.5,226.9,1095.5,226.9,1095.6,226.8C1095.6,226.9,1095.6,226.9,1095.6,226.8z
	 M1095.6,226.8c-1-3.2-1-6.7-2.3-9.8c-0.2-0.4-0.4-0.9-0.5-1.4c-0.1-0.3-0.1-0.6-0.1-0.9l-0.1,0l-0.1,0l-0.1,0l0,0l-0.1,0
	c0,0.1,0,0.2,0.1,0.3c0.1,0.5,0.3,0.9,0.5,1.4c1.3,3.1,1.3,6.7,2.3,9.9c0,0.1,0.1,0.3,0.2,0.4
	C1095.5,226.9,1095.5,226.9,1095.6,226.8C1095.6,226.9,1095.6,226.9,1095.6,226.8z M1095.6,226.8c-1-3.2-1-6.7-2.3-9.8
	c-0.2-0.4-0.4-0.9-0.5-1.4c-0.1-0.3-0.1-0.6-0.1-0.9l-0.1,0l-0.1,0l-0.1,0l0,0l-0.1,0c0,0.1,0,0.2,0.1,0.3c0.1,0.5,0.3,0.9,0.5,1.4
	c1.3,3.1,1.3,6.7,2.3,9.9c0,0.1,0.1,0.3,0.2,0.4C1095.5,226.9,1095.5,226.9,1095.6,226.8C1095.6,226.9,1095.6,226.9,1095.6,226.8z
	 M1095.6,226.8c-1-3.2-1-6.7-2.3-9.8c-0.2-0.4-0.4-0.9-0.5-1.4c-0.1-0.3-0.1-0.6-0.1-0.9l-0.1,0l-0.1,0l-0.1,0l0,0l-0.1,0
	c0,0.1,0,0.2,0.1,0.3c0.1,0.5,0.3,0.9,0.5,1.4c1.3,3.1,1.3,6.7,2.3,9.9c0,0.1,0.1,0.3,0.2,0.4
	C1095.5,226.9,1095.5,226.9,1095.6,226.8C1095.6,226.9,1095.6,226.9,1095.6,226.8z M1149.3,258.7L1149.3,258.7l-0.2,0l0.3-0.1l0,0
	c0,0,0.1,0,0.1,0l0,0c0.3-0.1,0.7-0.2,1-0.3l0,0l0.3-0.1l0,0l0,0c2.9-0.9-0.5-1.8-4.8-2.4h0c-4.6-0.7-10.3-1.1-10.3-1.1l-1.8,0.3h0
	c-2.2,0.3-5.6,0.8-6.1,1c-0.7,0.2-6.3,0.5-8.2,0.6c-0.1-0.1-0.2-0.3-0.3-0.3l-5.8-0.3v0.9l0,0l0,0c0-1.2-0.3-2.3-0.8-3.4l0-0.1
	c-1.5-3.1-1.8-3.9-1.8-3.9l0,0c0-0.1,0-0.1,0-0.2c-0.5-1.9-2.3-5.3-5.5-10l-0.1-0.2l-0.4-2.1l-0.1-0.4h-2c0.3-1.8,0.8-3.7,1.4-5.4
	c0-0.1,0.1-0.2,0.1-0.3l0-0.1c0-0.1,0.1-0.2,0.1-0.3c0.1,0,0.2,0,0.3,0l0,0c4.8-0.2,8.7-4.4,9-9.7c0,0,0,0,0,0c0-0.2,0-0.4,0-0.6
	c0-1.8-0.4-3.6-1.2-5.1c0,0,0-0.1-0.1-0.1l0-0.1l-0.1-0.2c0.7-0.2,1.5,0.2,2.2-0.3c0.2-0.2,0.4-0.4,0.5-0.7c0.1-0.3,0.3-0.7,0.3-1
	l0,0l0,0l0,0c0,0,0,0,0-0.1c0,0,0,0,0,0c0-0.2,0-0.5,0-0.7c0-0.5-0.1-1-0.2-1.4c-0.4-1-1.1-1.8-2-2.2c-0.5-0.2-1-0.3-1.4-0.4
	c-2-0.6-3.7-2-5.6-2.8c-1.3-0.6-2.8-0.8-4.2-0.7c-0.9,0-1.7,0.3-2.5,0.7c-0.6,0.4-1.1,0.8-1.7,1.3c-1.4,1.2-2.9,2.2-4.1,3.7
	c-0.2,0.3-0.4,0.5-0.6,0.8c-0.1,0.2-0.2,0.3-0.3,0.5c-0.2-0.2-0.5-0.4-0.7-0.3l0,0c-0.1,0-0.1,0-0.2,0c-0.1,0-0.3,0-0.4,0
	c-0.3,0.1-2.6,0.7-2.6,1.1c-1,0.5-1.8,1.1-2.6,1.8c-1.9,1.9-2.3,4.8-2.5,7.6c-0.3,3.2-0.4,6.4-0.3,9.6c0,1.2,0.1,2.3,0.1,3.5
	c-0.1,1.4-0.3,2.7-0.5,4.1c-0.3,1.4-0.6,2.8-0.9,4.2c-0.1,0.7-0.4,1.4-1,1.7l0.2,0c-0.1,0-0.1,0.1-0.2,0.1c0.3,0,0.5,0.1,0.8,0.1
	h0.2c0.1,0,0.3,0,0.4-0.1c0.2-0.1,0.4-0.2,0.6-0.3c0-0.1,0-0.1,0.1-0.2c0.2-0.2,0.3-0.4,0.4-0.6c0,0.4,0,0.8-0.1,1.2
	c0,0.1,0,0.1,0,0.2c-0.2,0.8-0.5,1.6-1.1,2.2l0.3-0.3c-0.1,0.1-0.2,0.3-0.3,0.4c0.4-0.4,0.9-0.7,1.3-1.1l0,0c0,0,0.1,0,0.1-0.1l0,0
	l0.8-0.7c0,0.1,0,0.2,0,0.3c0,0.1,0,0.2,0,0.3l0,0c0,0,0,0.1,0,0.2c-0.1,2.4-0.2,8.1,0.3,9.5c0,0.1,0.1,0.2,0.1,0.2
	c0.6,1.6,0.8,2.3,0.7,3.1c0,0.6,0.3,2.2,0.6,3.5c0.1,0.5,0.2,1.1,0.1,1.6c0,0.3,0,0.6,0.1,0.9c0,0.2,0.1,0.3,0.1,0.5
	c0,0.1,0,0.1,0,0.2c0.3,1.2,0.7,2.8,0.3,3.4c-0.1,0.2-0.2,0.4-0.3,0.7c-0.3,1-0.4,2.4-0.8,3c-0.5,0.7-0.3,1.8-0.3,2c0,0,0,0,0,0
	c0,0,0,0.1-0.1,0.3c-0.1,0.3-0.1,0.7-0.2,1.2v0c-0.1,0.7-0.3,1.4-0.5,2l0,0c-0.2,0.5-0.3,0.8-0.5,0.9c-0.6,0.2-0.9,3.5-0.9,3.5
	s-1.4,2.5-1.1,3.2c0.1,0.1,0.1,0.3,0.2,0.4l-0.1,0.2c-0.8,1.3-1.9,3.8-0.8,5.1c0.4,0.4,0.8,0.8,1.3,1.1c-0.1,0.1-0.1,0.3-0.2,0.4
	c-1.2,3-3,10.1,4,13c0.7,0.3,1.4,0.5,2.1,0.8c1.1,0.3,2.2,0.6,3.4,0.8c1.6,0.3,3.3,0.4,4.9,0.5c0.7,0,1.5,0,2.2,0c0.7,0,1.3,0,2-0.1
	c0.4,0,0.7,0,1.1-0.1c2.1-0.1,4.2-0.4,6.3-0.8l9.9-2c0,0,4.2,0.2,5.7,1.1l0,0c0,0,0.3-0.2,0.7-0.5l0,0c0.2-0.1,0.4-0.3,0.6-0.5
	c1.6-1.3,4.2-3.8,5.9-7.2l0-0.1l0.3,0h0.1l0.2,0l0.5-0.1h0h0.1c1.3-0.2,2.4-0.4,2.4-0.4s0,1.5,0.1,3.3c0,0.5,0,1.1,0.1,1.6
	c0.1,1.9,0.1,3.6,0.1,3.6c0,0.1,1.3,3.8,2.7,7.5l1.1,0.1c2.9,0.3,5.9,0.5,8.8,0.6l1.1,0.1l0.7,0c-0.5-3.3-0.9-6.5-0.9-6.5l-1.8-9.5
	c0,0-0.2-2-1.6-10.7c-1.1-7-7.7-6.4-10.1-5.9c-0.3,0.1-0.5,0.1-0.6,0.1v-0.5c0,0-4.7,0.4-9,0.6l-1,0c-1,0-1.9,0.1-2.7,0.1
	c-0.7,0-1.4,0-2.2-0.1c-3.3-0.4-7,0.8-7,0.8s-4.8,0.9-5.4,0.5c-0.2-0.1-0.4-0.1-0.5-0.1c-0.1,0-0.2,0-0.3,0c0.2-0.1,0.4-0.3,0.3-0.6
	c-0.2-0.9-0.3-2.1,0.3-2.9c0.2-0.4,0.6-0.9,1-1.5l0.8-1.3v-0.1l0-0.4l0.2-3.3l0.5-3.1l0-0.2l0-0.3l0-0.2l0.1,0l0,0
	c1.4,0.5,2.9,0.9,4,0.5h0c0.1,0,0.2-0.1,0.3-0.1h0v0.2l0,0.4l5.2-0.3h0.1c0,0,0.2-1.1,0.4-2.6c0-0.1,0-0.2,0.1-0.4s0-0.3,0.1-0.5
	c0-0.1,0-0.2,0-0.2h0.2h0.1c2.4-0.1,5.7-0.3,7.1-0.9l0,0c0.2-0.1,0.3-0.2,0.5-0.3c0.6-0.6,2.7-1.3,4.7-2l0,0l0.8-0.3
	c0.6-0.2,1.2-0.4,1.7-0.5c1.2-0.3,2-0.6,2-0.6s8,0.8,14-1.1l0,0l0.1,0C1153.4,259.9,1152,259.2,1149.3,258.7z M1092.3,214.3
	c0,0.1,0,0.2,0,0.3l0,0l0,0l0,0l0,0c0,0,0,0.1,0,0.1c0,0,0,0.1,0,0.1c0,0.1,0,0.2,0.1,0.3c0.1,0.5,0.3,0.9,0.5,1.4
	c1.3,3.1,1.3,6.7,2.3,9.9c0,0.1,0.1,0.3,0.2,0.4c0,0,0.1,0.1,0.2,0.1l0.1,0l0,0h0.1l0,0.1c0,0,0,0,0,0l0,0c-0.4,0.8-0.9,1.5-1.3,2.2
	c-0.4,0.1-0.7,0.2-1.1,0.5l-0.2,0.1l-0.1,0.1c-0.1-0.6-0.3-1.2-0.4-1.7c-0.7-3.1-1.1-6.3-1.2-9.5c0-0.1,0-0.1,0-0.2
	c0-0.1,0-0.3,0-0.4c0-0.8,0-1.6,0.1-2.5c0-0.4,0.1-0.8,0.3-1.1l0,0C1091.9,214.4,1092.1,214.3,1092.3,214.3L1092.3,214.3z
	 M1095.6,226.8c-1-3.2-1-6.7-2.3-9.8c-0.2-0.4-0.4-0.9-0.5-1.4c-0.1-0.3-0.1-0.6-0.1-0.9l-0.1,0l-0.1,0l-0.1,0l0,0l-0.1,0
	c0,0.1,0,0.2,0.1,0.3c0.1,0.5,0.3,0.9,0.5,1.4c1.3,3.1,1.3,6.7,2.3,9.9c0,0.1,0.1,0.3,0.2,0.4
	C1095.5,226.9,1095.5,226.9,1095.6,226.8C1095.6,226.9,1095.6,226.9,1095.6,226.8L1095.6,226.8z M1095.6,226.8c-1-3.2-1-6.7-2.3-9.8
	c-0.2-0.4-0.4-0.9-0.5-1.4c-0.1-0.3-0.1-0.6-0.1-0.9l-0.1,0l-0.1,0l-0.1,0l0,0l-0.1,0c0,0.1,0,0.2,0.1,0.3c0.1,0.5,0.3,0.9,0.5,1.4
	c1.3,3.1,1.3,6.7,2.3,9.9c0,0.1,0.1,0.3,0.2,0.4C1095.5,226.9,1095.5,226.9,1095.6,226.8C1095.6,226.9,1095.6,226.9,1095.6,226.8
	L1095.6,226.8z M1095.6,226.8c-1-3.2-1-6.7-2.3-9.8c-0.2-0.4-0.4-0.9-0.5-1.4c-0.1-0.3-0.1-0.6-0.1-0.9l-0.1,0l-0.1,0l-0.1,0l0,0
	l-0.1,0c0,0.1,0,0.2,0.1,0.3c0.1,0.5,0.3,0.9,0.5,1.4c1.3,3.1,1.3,6.7,2.3,9.9c0,0.1,0.1,0.3,0.2,0.4
	C1095.5,226.9,1095.5,226.9,1095.6,226.8C1095.6,226.9,1095.6,226.9,1095.6,226.8L1095.6,226.8z M1095.6,226.8c-1-3.2-1-6.7-2.3-9.8
	c-0.2-0.4-0.4-0.9-0.5-1.4c-0.1-0.3-0.1-0.6-0.1-0.9l-0.1,0l-0.1,0l-0.1,0l0,0l-0.1,0c0,0.1,0,0.2,0.1,0.3c0.1,0.5,0.3,0.9,0.5,1.4
	c1.3,3.1,1.3,6.7,2.3,9.9c0,0.1,0.1,0.3,0.2,0.4C1095.5,226.9,1095.5,226.9,1095.6,226.8C1095.6,226.9,1095.6,226.9,1095.6,226.8
	L1095.6,226.8z M1095.6,226.8c-1-3.2-1-6.7-2.3-9.8c-0.2-0.4-0.4-0.9-0.5-1.4c-0.1-0.3-0.1-0.6-0.1-0.9l-0.1,0l-0.1,0l-0.1,0l0,0
	l-0.1,0c0,0.1,0,0.2,0.1,0.3c0.1,0.5,0.3,0.9,0.5,1.4c1.3,3.1,1.3,6.7,2.3,9.9c0,0.1,0.1,0.3,0.2,0.4
	C1095.5,226.9,1095.5,226.9,1095.6,226.8C1095.6,226.9,1095.6,226.9,1095.6,226.8L1095.6,226.8z M1095.6,226.8c-1-3.2-1-6.7-2.3-9.8
	c-0.2-0.4-0.4-0.9-0.5-1.4c-0.1-0.3-0.1-0.6-0.1-0.9l-0.1,0l-0.1,0l-0.1,0l0,0l-0.1,0c0,0.1,0,0.2,0.1,0.3c0.1,0.5,0.3,0.9,0.5,1.4
	c1.3,3.1,1.3,6.7,2.3,9.9c0,0.1,0.1,0.3,0.2,0.4C1095.5,226.9,1095.5,226.9,1095.6,226.8C1095.6,226.9,1095.6,226.9,1095.6,226.8
	L1095.6,226.8z"/>
<path class="st23" d="M1105.9,228.6c-0.5,0.6-0.9,1.3-1.2,2c0,0.1-0.1,0.2-0.1,0.3c-1.4,3.4-1.8,8.2-1.8,8.2s-0.8-0.4-2-1.1
	c-2.2-1.2-5.7-3.3-7.1-4.9c-0.6-0.7-0.8-1.4-0.3-1.8c0.1-0.1,0.2-0.2,0.3-0.3c0.4-0.4,0.8-0.9,1.1-1.4c0.4-0.7,0.9-1.4,1.3-2.2
	c0.2-0.5,0.5-0.9,0.7-1.4l0.1-0.2c0.9-1.9,1.6-3.6,1.6-3.6s0.3,0.1,0.8,0.3C1101.5,223.5,1107.9,226.3,1105.9,228.6z"/>
<path class="st23" d="M1148.3,307.8c0,0,0.4,3.1,0.9,6.4l-1.1-0.1c-2.9-0.2-5.9-0.4-8.8-0.6c-1.7-4.3-3.4-9.3-3.4-9.4
	c0-0.1-0.1-1.7-0.1-3.6c0-0.7,0-1.3-0.1-2l0,0c0-1-0.1-1.8-0.1-2.4c0-0.4,0-0.6,0-0.6s-1.6,0.3-3,0.5l-0.6,0.1
	c-0.3,0-0.6,0.1-0.9,0.1c-0.2,0-0.5,0-0.7,0c-0.5-0.2,0.5-5.5,0.5-5.5l2.5-6.7l0.7-1.9l0.3-0.1c0.2,0,0.4-0.1,0.6-0.1
	c2.4-0.5,8.8-1.1,9.9,5.9c1.4,8.7,1.5,10.6,1.5,10.6L1148.3,307.8z"/>
<path class="st23" d="M1150.7,321.6h-0.8l0,0H1150.7L1150.7,321.6z"/>
<path class="st24" d="M1148.3,307.8c0,0,0.4,3.1,0.9,6.4l-1.1-0.1c-2.9-0.2-5.9-0.4-8.8-0.6c-1.7-4.3-3.4-9.3-3.4-9.4
	c0-0.1-0.1-1.7-0.1-3.6c0-0.7,0-1.3-0.1-2l0,0c0-1-0.1-1.8-0.1-2.4c0-0.4,0-0.6,0-0.6s-1.6,0.3-3,0.5l-0.6,0.1
	c-0.3,0-0.6,0.1-0.9,0.1c-0.2,0-0.5,0-0.7,0c-0.5-0.2,0.5-5.5,0.5-5.5l2.5-6.7l0.7-1.9l0.3-0.1c0.2,0,0.4-0.1,0.6-0.1
	c2.4-0.5,8.8-1.1,9.9,5.9c1.4,8.7,1.5,10.6,1.5,10.6L1148.3,307.8z"/>
<path class="st24" d="M1150.7,321.6h-0.8l0,0H1150.7L1150.7,321.6z"/>
<path class="st23" d="M1148,314.1c-2.9-0.2-5.9-0.4-8.8-0.6l-1.1-0.1l-0.5,0c-1.4-3.7-2.6-7.3-2.6-7.4c0-0.1-0.1-1.7-0.1-3.6
	c-0.1-2.3-0.2-4.9-0.2-4.9l-0.2,0l-0.1,0h0h-0.1l-0.5,0.1l-0.3,0c-0.5,0.1-1.1,0.2-1.7,0.3l-0.1,0l-0.3,0l-0.3,0l0,0
	c-0.2,0-0.5,0.1-0.7,0.1l-0.3,0c-0.2,0-0.5,0-0.7,0c-0.5-0.2,0.5-5.5,0.5-5.5l3.2-8.6l0.1,0c0.2,0,0.5-0.1,1-0.2
	c0.2,0,0.4-0.1,0.6-0.1c2.8-0.4,8.1-0.3,9.1,6c1.4,8.7,1.5,10.6,1.5,10.6l1.8,9.4C1147.4,309.7,1147.7,311.6,1148,314.1z"/>
<path class="st4" d="M1134.9,302.3c-0.1-2.3-0.2-4.9-0.2-4.9s-3.1,0.6-4.5,0.7l0.3-1.1c0,0,5.3-1.6,5.4-0.7
	C1136,296.9,1135.3,300.3,1134.9,302.3z"/>
<path class="st4" d="M1135,281.8v2.5c0,0-0.3,4.4-2.3,11.2c0,0.1-0.1,0.3-0.1,0.4c-0.2,0.7-0.5,1.3-0.8,1.9
	c-0.6,0.1-1.1,0.2-1.6,0.2c-0.2,0-0.5,0-0.7,0c-0.5-0.2,0.5-5.5,0.5-5.5l3.2-8.6l0.1,0l0.7-1.9C1134.1,282.1,1134.4,282,1135,281.8z
	"/>
<path class="st16" d="M1134.4,281.4v2.9c0,0-0.3,4.4-2.3,11.2c-0.1,0.2-0.1,0.3-0.2,0.5c-0.1,0.2-0.1,0.4-0.2,0.6
	c-0.2,0.5-0.4,0.9-0.6,1.3l0,0c-1.6,3.4-4.1,5.8-5.6,7.1c-0.2,0.2-0.4,0.4-0.6,0.5h0c-0.3,0.2-0.5,0.4-0.7,0.5
	c-0.1,0.1-0.2,0.1-0.2,0.1c-1.5-1-5.6-1.2-5.6-1.2l-9.7,2c-2.1,0.4-4.3,0.7-6.4,0.8l-1.1,0.1c-0.6,0-1.3,0-2,0c-0.5,0-1.1,0-1.7,0
	l0,0c-1.8-0.1-3.7-0.2-5.5-0.6c-1-0.2-2-0.4-2.9-0.7c-0.7-0.2-1.4-0.5-2-0.8c-6.8-3-5-9.9-3.9-13c0.1-0.2,0.1-0.3,0.2-0.4
	c0.3-0.6,0.4-1,0.4-1l0.5-1.2l0,0l0.7-2l0.2-0.4l0-0.1l0.5-1.5l7.7-1.1l5.7-0.8l1.7-0.2l1.2-0.2l2.2-0.3l0.8-0.1
	c0.5-0.1,1-0.1,1.6-0.1c0.3,0,0.6,0,0.8,0.1c0.6,0.3,5.3-0.5,5.3-0.5s3.7-1.2,6.9-0.8c1.6,0.1,3.2,0.1,4.8,0l0,0l0.4,0l0.5,0h0.1
	C1129.7,281.9,1134.4,281.4,1134.4,281.4z"/>
<path class="st4" d="M1106.6,290c0,0-3.7,9.3-3.9,9.5c-0.2,0.2-0.1,3.1,0,2.9s5.3-12.8,5.3-12.8L1106.6,290z"/>
<path class="st4" d="M1124.5,282.1c0,0-1.9,1.3-2.4,2.4c-0.6,1.1-5.7,11.8-7,13.4c-1.1,1.4-2,2.9-2.9,4.5c-0.1,0.3-0.1,2.1,0.8,0.4
	s0.7-2,2.4-4.1c1.8-2.1,3.7-6.9,4.5-7.8c0.8-1,1.8-3.8,3.1-5.5l2.5-3.2L1124.5,282.1z"/>
<path class="st4" d="M1125,300.6c0,0-1.3-1-2.6,0.7C1121.2,303,1125,300.6,1125,300.6z"/>
<path class="st4" d="M1126.6,301.1c0,0-1.1,2.1-1.6,2.3C1124.5,303.5,1126.6,301.1,1126.6,301.1z"/>
<path class="st4" d="M1125,301.6c0,0-0.9,1.7-1.6,1.5L1125,301.6z"/>
<path class="st23" d="M1118.9,256.8c0,0,8-0.4,8.7-0.7c0.8-0.3,7.8-1.3,7.8-1.3s20.7,1.6,14.8,3.6c-5.9,2-13.9,1.1-13.9,1.1
	s-7.8,2.2-9,3.4c-1.2,1.2-10.1,1.2-10.1,1.2L1118.9,256.8z"/>
<path class="st24" d="M1118.9,256.8c0,0,8-0.4,8.7-0.7c0.8-0.3,7.8-1.3,7.8-1.3s20.7,1.6,14.8,3.6c-5.9,2-13.9,1.1-13.9,1.1
	s-7.8,2.2-9,3.4c-1.2,1.2-10.1,1.2-10.1,1.2L1118.9,256.8z"/>
<path class="st15" d="M1090.6,236.8c0,0-7.3,2.7-3.8,9.7c3.5,7,8.1,10.2,8.1,10.2l11.7,9c0,0,4.9,3.1,7.2,1.8l3.7-0.3l0.6-10.7
	c0,0-3.1,2.7-6.5-1c-3.4-3.7-7.5-6.2-7.8-8.2C1103.5,245.3,1094.8,235.1,1090.6,236.8z"/>
<path class="st17" d="M1113.6,259.3c0,0,3.8,1.5,3.6,1.6c-0.1,0.1-3.6,1.5-3.6,1.5l0.3,5.7l5.1-0.3c0,0,1.9-10.3,0.3-11.4l-5.7-0.3
	L1113.6,259.3z"/>
<path class="st4" d="M1113.6,259.3c0,0,3.8,1.5,3.6,1.6c-0.1,0.1-3.6,1.5-3.6,1.5l0.3,5.7l5.1-0.3c0,0,1.9-10.3,0.3-11.4l-5.7-0.3
	L1113.6,259.3z"/>
<path class="st4" d="M1105.9,228.6c-0.5,0.6-0.9,1.3-1.2,2c0,0.1-0.1,0.2-0.1,0.3c-2.8,0-4.7-2.4-6.4-4.5c-0.3-0.4-1.1,0.2-1.3-0.2
	c0-0.1-0.1-0.1-0.1-0.2l0.1-0.2c0.9-1.9,1.6-3.6,1.6-3.6s0.3,0.1,0.8,0.3C1101.5,223.5,1107.9,226.3,1105.9,228.6z"/>
<path class="st23" d="M1114,220.4c0,5.6-4.1,10.2-9.2,10.3h-0.1c-2.7,0-5.2-1.3-7-3.5c-0.3-0.4-0.6-0.8-0.9-1.2
	c-2.8-4.8-1.5-11.1,2.8-14.2c4.3-3.1,10.1-1.7,12.9,3.1C1113.4,216.5,1114,218.4,1114,220.4z"/>
<path class="st4" d="M1104.5,284.1c0,0-0.7,1-1.5,1.8c-0.6,0.7-1.2,1.3-1.6,1.5c-0.9,0.4-5.2,3.9-5.2,3.9s-3.4,2.5-4.2,3.3
	c-0.9,0.7-4,0.3-4,0.3s-3-0.7-4.9-2c0.2-0.5,0.4-1,0.6-1.4l2-5.2l7.7-1.1L1104.5,284.1z"/>
<path class="st17" d="M1104.3,283.5c0,0-0.7,1-1.5,1.8c-0.6,0.7-1.2,1.3-1.6,1.5c-0.9,0.4-5.2,3.9-5.2,3.9s-3.4,2.5-4.2,3.3
	c-0.9,0.7-4,0.3-4,0.3s-4.3-1-5.8-2.9c-1.1-1.3,0-3.7,0.8-5.1c0.3-0.6,0.6-0.9,0.6-0.9L1104.3,283.5z"/>
<path class="st17" d="M1109.9,251.3c-2.6-0.2-11-11.6-11-11.6l0.2-0.3l1.8-2.7h4.1l0.5,2.5c3.1,4.9,5,8.2,5.5,10.2
	C1111.3,250.8,1111,251.5,1109.9,251.3z"/>
<path class="st4" d="M1109.9,251.3c-2.6-0.2-11-11.6-11-11.6l0.2-0.3c1.5,1.5,2.9,3.2,4.2,4.9c6.2,8,7.4,5.8,7.6,5.1
	C1111.3,250.8,1111,251.5,1109.9,251.3z"/>
<path class="st4" d="M1104.3,283.5c0,0-0.7,1-1.5,1.8c-0.4,0.2-0.8,0.3-1.3,0.3c-1,0-3.2,1.7-3.2,1.7s-4-0.2-4.7,0.2
	c-0.8,0.5-3.6,0.5-3.6,0.5c-5.3,1.7-6.8-0.9-7.1-1.7c0.3-0.6,0.6-0.9,0.6-0.9L1104.3,283.5z"/>
<path class="st15" d="M1113.5,258.8c0,0.2,0,0.3,0,0.5s0,0.3-0.1,0.5c-0.1,0.8-0.3,1.7-0.7,2.4c-0.7,1.2-2.7,6.1-2.7,6.1l-0.1,0.9
	l-0.1,0.5l-0.1,0.5l-0.5,3.3l-0.2,3.8c0,0-1.2,1.9-1.8,2.7c-0.5,0.8-0.5,2-0.3,2.9c0.2,0.9-1.7,1-1.7,1s-2.7,1.5-3.7,1.4
	s-3.2,1.7-3.2,1.7s-4-0.2-4.7,0.2s-3.6,0.5-3.6,0.5c-5.7,1.8-6.9-1.2-7.2-1.9c-0.3-0.6,1.1-3.1,1.1-3.1s0.3-3.2,0.9-3.4
	c0.6-0.2,1.3-4.5,1.3-4.5s-0.2-1.3,0.3-2c0.5-0.7,0.5-2.7,1.1-3.6c0.6-1-0.7-4.1-0.4-5c0.2-0.8-0.7-4.2-0.6-5.1s-0.2-1.6-0.8-3.3
	c-0.5-1.5-0.4-8.1-0.3-10c0-0.3,0-0.5,0-0.5s0.5-1.9,1.9-5.6c1.1-2.8,3.4-3.9,4.5-4.2c0.2-0.1,0.4-0.1,0.6-0.2
	c0.3,0,0.5,0.1,0.8,0.2c1.1,0.4,3.3,1.6,6.4,4.8c1.4,1.4,2.7,2.9,3.9,4.5c7,9.1,7.6,4.9,7.6,4.9s0.3,0.8,1.8,3.9
	C1113.5,255.1,1113.7,257.1,1113.5,258.8z"/>
<path class="st4" d="M1101.9,236.2l-7.1-6.2c0,0-2.5,0.3-3.6,5.1l7.3,7L1101.9,236.2z"/>
<path class="st17" d="M1101.9,236.2l-1.2,1.9l-1.3,2l-0.9,1.5l-5.8-5.4l-1-1l-0.6-0.5c0.6-2.6,1.6-3.8,2.4-4.4
	c0.4-0.3,0.8-0.5,1.2-0.6L1101.9,236.2z"/>
<path class="st23" d="M1150.5,260.9c-5.9,1.9-13.9,1.1-13.9,1.1s-7.8,2.2-9,3.4c-0.8,0.7-4.7,1-7.4,1.1c-1.5,0.1-2.6,0.1-2.6,0.1
	l1.6-7.4l1,0c2.1-0.1,7.2-0.4,7.8-0.6c0.8-0.3,7.8-1.3,7.8-1.3S1156.4,258.9,1150.5,260.9z"/>
<path class="st4" d="M1113.4,259.7c-0.1,0.8-0.3,1.7-0.7,2.4c-0.7,1.2-2.7,6.1-2.7,6.1l-0.3,1.8c-1-0.4-1.9-0.9-2.8-1.4l-11.7-9
	c0,0-4.5-3.3-8.1-10.2c-3.5-7,3.8-9.7,3.8-9.7c4.2-1.7,12.8,8.5,13.2,10.5s4.5,4.5,7.8,8.2C1112.4,258.9,1112.9,259.4,1113.4,259.7z
	"/>
<path class="st4" d="M1113.5,258.8c0,0.3-0.1,0.6-0.1,0.9c-0.1,0.8-0.3,1.7-0.7,2.4c-0.7,1.2-2.7,6.1-2.7,6.1l-0.1,0.9
	c-1-0.4-2-0.9-2.9-1.5l-11.7-9c0,0-4.5-3.3-8.1-10.2c-3.5-7,3.8-9.7,3.8-9.7c4.2-1.7,12.8,8.5,13.2,10.5s4.5,4.5,7.8,8.2
	C1112.4,258,1112.9,258.4,1113.5,258.8z"/>
<path class="st15" d="M1118.4,259l-0.6,10.7l-3.7,0.3c-0.1,0-0.2,0.1-0.3,0.1c-2.3,0.9-6.9-1.9-6.9-1.9l-11.7-9
	c0,0-4.5-3.3-8.1-10.2c-3.5-7,3.8-9.7,3.8-9.7c4.2-1.7,12.8,8.5,13.2,10.5s4.5,4.5,7.8,8.2c0.5,0.5,1.1,1,1.7,1.4
	C1115.1,260.2,1117,260.1,1118.4,259z"/>
<path class="st4" d="M1118.4,259l-0.6,10.7l-3.7,0.3c-0.1,0-0.2,0.1-0.3,0.1l-0.2-5.2c0,0,3.5-1.5,3.6-1.5c0.2-0.1-3.6-1.6-3.6-1.6
	v-2.5C1115.1,260.2,1117,260.1,1118.4,259z"/>
<path class="st4" d="M1120.2,266.5c-1.5,0.1-2.6,0.1-2.6,0.1l1.7-7.3l1,0C1120.8,260.4,1120.5,263.8,1120.2,266.5z"/>
<path class="st17" d="M1113.9,261.8c0,0,3.8,1.5,3.6,1.6c-0.1,0.1-3.6,1.5-3.6,1.5l0.3,5.7l5.1-0.3c0,0,1.9-10.3,0.3-11.4l-5.7-0.3
	V261.8z"/>
<path class="st4" d="M1091.4,268.6c0,0-1.3,1.3-2.3,1.7L1091.4,268.6z"/>
<path class="st4" d="M1088.4,272.5c0,0,3.1-0.1,3.5-0.8C1092.2,271,1088.4,272.5,1088.4,272.5z"/>
<path class="st4" d="M1086.8,277.5c0.2,0,3.9-0.6,4.1-1.1L1086.8,277.5z"/>
<path class="st4" d="M1085.7,280.6c1.4,0,3.6-1.7,3.6-1.7L1085.7,280.6z"/>
<path class="st4" d="M1094.4,281.4c0,0,8.1,0,8.5-1.7C1103.3,278.1,1094.4,281.4,1094.4,281.4z"/>
<path class="st4" d="M1100.5,258.3c0.2,0,6.4,0,7-1C1108.2,256.4,1100.5,258.3,1100.5,258.3z"/>
<path class="st4" d="M1093.6,231.1c0.1,0.3,0.1,0.7,0.1,1c0,0.4,0,0.8-0.1,1.1c-0.1,0.7-0.3,1.4-0.6,2.1l-0.1,0.2
	c-0.1,0.2-0.2,0.5-0.3,0.7c-0.5,1-1,2-1.6,3c-1.4,2.1-3,3.9-4.9,5.6c-0.3,0.3-0.6,0.6-1,0.9c0-0.3,0-0.5,0-0.5s0.5-1.9,1.9-5.6
	c1.1-2.8,3.4-3.9,4.5-4.2l-0.6-0.5c0.6-2.6,1.6-3.8,2.4-4.4C1093.5,230.6,1093.6,230.8,1093.6,231.1z"/>
<path class="st4" d="M1112.6,215c-0.1,0-0.2,0.1-0.3,0.1c-0.6,0.4-0.8,1.2-1.2,1.7c-0.6,0.6-1.4,0.7-2.2,0.8s-1.7,0.3-2.1,1.1
	c-0.3,0.6-0.3,1.3-0.4,1.9c0,0.1-0.1,0.2-0.1,0.3c-0.1,0.1-0.2,0.1-0.4,0.1c-1.5,0.1-2.7-0.5-4.1-0.9c-0.7-0.2-1.5-0.2-2,0.3
	c-0.5,0.5-0.6,1.2-0.6,1.9v0.1c0.1,0.7,0.1,1.4,0.1,2c-0.1,1.1-0.7,2-1.6,2.5c-0.4,0.2-0.8,0.3-1.2,0.4c-0.2,0-0.3,0-0.5-0.1
	c0.3-0.5,0.5-1,0.8-1.5c-2.8-4.8-1.6-11.1,2.8-14.2c4.3-3.1,10.1-1.7,12.9,3C1112.5,214.9,1112.5,214.9,1112.6,215L1112.6,215z"/>
<path class="st16" d="M1115.1,213.7c-0.1,0.3-0.3,0.5-0.5,0.7c-0.7,0.5-1.7-0.1-2.5,0.4c-0.6,0.4-0.8,1.2-1.2,1.7
	c-0.6,0.6-1.4,0.7-2.2,0.8c-0.8,0.1-1.7,0.3-2.1,1.1c-0.3,0.6-0.3,1.3-0.4,1.9c0,0.1-0.1,0.2-0.1,0.3c-0.1,0.1-0.2,0.1-0.4,0.1
	c-1.5,0.1-2.7-0.5-4.1-0.9c-0.7-0.2-1.5-0.2-2,0.3c-0.5,0.5-0.6,1.2-0.6,1.9c0.1,0.7,0.1,1.4,0.1,2.1c-0.2,1.5-1.4,2.7-2.8,2.9
	c-0.2,0-0.4,0-0.6-0.2c-0.1-0.1-0.2-0.2-0.2-0.4c-1-3.2-1-6.7-2.3-9.8c-0.2-0.4-0.4-0.9-0.5-1.4c0-0.1,0-0.2-0.1-0.3
	c0-0.2-0.1-0.4-0.1-0.6c-0.1,0-0.2,0.1-0.4,0.2c0,0-0.1,0.1-0.1,0.1c-0.2,0.3-0.3,0.7-0.3,1.1c-0.2,4.3,0.1,8.6,1.1,12.7
	c0.3,1,0.5,2.1,0.5,3.2c0,1.2-0.3,2.3-0.7,3.4c-1.9,4.9-5.8,8.6-9.7,11.8c0.8-1,1.2-2.2,1.2-3.5c-0.1,0.5-0.5,0.9-1,1
	c-0.5,0.1-0.9,0.1-1.4,0c0.6-0.2,0.8-1,1-1.7c0.3-1.4,0.6-2.7,0.8-4.1c0.3-1.3,0.5-2.7,0.5-4c0-1.2,0-2.3-0.1-3.5
	c-0.1-3.2,0-6.4,0.3-9.5c0.2-2.7,0.6-5.7,2.5-7.6c0.8-0.7,1.7-1.3,2.6-1.8c0-0.3,2.3-1,2.6-1.1c0.1,0,0.3,0,0.4,0
	c0.3-0.1,0.7,0.1,0.8,0.5c0.1-0.2,0.2-0.4,0.4-0.6c0.2-0.3,0.4-0.6,0.6-0.8c1.2-1.4,2.7-2.4,4.1-3.7c0.5-0.5,1-0.9,1.6-1.3
	c0.8-0.4,1.6-0.7,2.4-0.7c1.4-0.1,2.8,0.2,4.1,0.7c1.9,0.8,3.5,2.2,5.5,2.8c0.5,0.1,1,0.3,1.4,0.4c1.8,0.8,2.6,3,1.9,4.9
	C1115.3,213.5,1115.2,213.6,1115.1,213.7L1115.1,213.7z"/>
<g class="st18">
	<path d="M1083.8,244.3c0.2-0.6,0.3-1.3,0.3-2c-0.1,0.5-0.5,0.9-1,1c-0.1,0-0.2,0.1-0.4,0.1c-0.2,0.5-0.4,1.1-0.9,1.2
		c0.5,0.1,0.9,0.1,1.4,0C1083.5,244.6,1083.7,244.5,1083.8,244.3z"/>
	<path d="M1115.4,211c0,0.5-0.1,1.1-0.4,1.6c-0.1,0.3-0.3,0.5-0.5,0.7c-0.7,0.5-1.7,0-2.5,0.4c-0.6,0.4-0.8,1.2-1.2,1.7
		c-0.6,0.6-1.4,0.7-2.2,0.8c-0.8,0.1-1.7,0.3-2.1,1.1c-0.3,0.6-0.3,1.3-0.4,1.9c0,0.3-0.2,0.5-0.4,0.5c0,0,0,0,0,0
		c-1.5,0.1-2.7-0.5-4.1-0.9c-0.7-0.2-1.5-0.2-2,0.3c-0.5,0.5-0.6,1.2-0.6,1.9c0.1,0.7,0.1,1.4,0.1,2.1c-0.2,1.6-1.4,2.7-2.8,2.9
		c-0.2,0-0.4,0-0.6-0.2c-0.1-0.1-0.2-0.2-0.2-0.4c-1-3.2-1-6.7-2.3-9.8c-0.2-0.4-0.4-0.9-0.5-1.4c-0.1-0.3-0.1-0.6-0.1-0.9
		c-0.2,0-0.3,0.1-0.5,0.3c-0.2,0.3-0.3,0.7-0.3,1.1c-0.1,2.7,0,5.5,0.3,8.2c-0.2-2.3-0.3-4.6-0.2-6.9c0-0.4,0.1-0.8,0.3-1.1
		c0.1-0.2,0.3-0.3,0.5-0.3c0,0.3,0.1,0.6,0.1,0.9c0.1,0.5,0.3,0.9,0.5,1.4c1.2,3.1,1.2,6.6,2.3,9.8c0,0.1,0.1,0.3,0.2,0.4
		c0.2,0.1,0.4,0.2,0.6,0.2c1.4-0.1,2.6-1.3,2.8-2.9c0-0.7,0-1.4-0.1-2.1c0-0.7,0.1-1.5,0.6-1.9c0.5-0.5,1.3-0.5,2-0.3
		c1.4,0.4,2.6,1,4.1,0.9c0.1,0,0.3,0,0.4-0.1c0.1-0.1,0.1-0.2,0.1-0.3c0.1-0.6,0.1-1.3,0.4-1.9c0.4-0.7,1.3-1,2.1-1.1
		c0.8-0.1,1.7-0.2,2.2-0.8c0.5-0.5,0.6-1.4,1.2-1.7c0.7-0.4,1.7,0.1,2.5-0.4c0.2-0.2,0.4-0.4,0.5-0.7
		C1115.6,213,1115.6,212,1115.4,211z"/>
	<path d="M1093.4,230.6c0,1.2-0.3,2.3-0.7,3.4c-1.7,4.4-5,7.8-8.5,10.8c-0.1,0.9-0.5,1.7-1.1,2.4c3.9-3.3,7.8-6.9,9.7-11.8
		c0.5-1.1,0.7-2.2,0.7-3.4c0-0.5-0.1-1-0.2-1.5C1093.4,230.5,1093.4,230.6,1093.4,230.6z"/>
</g>
<path class="st4" d="M1093.8,211c-0.3,1.4-0.7,3.3-0.9,4.2c0-0.2-0.1-0.4-0.1-0.6c-0.1,0-0.2,0.1-0.3,0.2c0-1,0.1-2.5,0.2-3.6
	c0.3-0.1,0.7,0.1,0.8,0.5C1093.5,211.4,1093.7,211.2,1093.8,211z"/>
<path class="st17" d="M1093.7,211c-0.3,1.4-0.7,3.3-0.9,4.2c0-0.2-0.1-0.4-0.1-0.6c-0.1,0-0.2,0.1-0.4,0.2c0-1,0.1-2.5,0.2-3.6
	c0.3-0.1,0.7,0.1,0.8,0.5C1093.4,211.4,1093.5,211.2,1093.7,211z"/>
<g class="st25">
	<path class="st26" d="M1156.6,134.3h51.2v55h-51.2V134.3z"/>
	<path class="st27" d="M1154.3,131.7v60.2h55.9v-60.2H1154.3z M1156.7,134.3h51.2v55h-51.3L1156.7,134.3z"/>
	<path class="st27" d="M1194.9,157c-0.4-0.2-0.9-0.3-1.4-0.3c-2.9,0-4.9,2.5-4.9,6.6c0,4.7,2,6.6,4.6,6.6c0.5,0,1.1-0.1,1.6-0.3
		L1194.9,157L1194.9,157z M1184.5,163.6c0-6,3.5-10.7,9.2-10.7c0.4,0,0.8,0,1.2,0.1v-6.7c0-0.1,0.1-0.3,0.2-0.3l0,0h3.7
		c0.2,0,0.2,0.1,0.2,0.2v23.5c0,0.8,0,1.7,0.1,2.5c0,0.2,0,0.2-0.1,0.3c-1.9,1-3.9,1.5-6,1.5
		C1188.1,174.1,1184.5,170.6,1184.5,163.6L1184.5,163.6z M1176.5,159.4l6.5,14c0.1,0.2,0,0.4-0.1,0.4h-4.1c-0.2,0-0.4-0.1-0.5-0.3
		c-1.5-3.4-3-6.9-4.6-10.6h0c-1.4,3.4-2.9,7.2-4.4,10.6c-0.1,0.2-0.2,0.3-0.4,0.3h-3.9c-0.2,0-0.3-0.2-0.1-0.4l6.4-13.6l-6.2-13.4
		c-0.1-0.1-0.1-0.2,0-0.3c0,0,0.1-0.1,0.2-0.1h4c0.2,0,0.3,0.1,0.4,0.3c1.5,3.4,3,6.8,4.4,10.2h0c1.3-3.4,2.8-6.8,4.3-10.2
		c0.1-0.2,0.2-0.3,0.4-0.3h3.8c0.2,0,0.3,0.2,0.1,0.4L1176.5,159.4L1176.5,159.4z"/>
</g>
<g class="st25">
	<path id="_x38_8e22766-bb2e-4d8a-8c4e-873561c02ed1" class="st28" d="M944.2,156.5l17.5,37.8l-29.4-37.8H944.2z"/>
	<path id="dcb2c17a-6570-4f03-a416-11c2a206e419" class="st28" d="M979.3,156.5l-17.5,37.8l29.4-37.8H979.3z"/>
	<path id="d2c5ae9b-dccc-4d4c-8aa0-840002be2480" class="st29" d="M944.2,156.5h35l-17.5,37.8L944.2,156.5z"/>
	<path id="_x36_16bf47a-f8e5-41ce-b525-03b6ad416eda" class="st30" d="M961.8,135.5l-16.6,1.9l-0.9,19L961.8,135.5z"/>
	<path id="ca73b31d-b223-4f6c-ac2e-edd2597912ec" class="st30" d="M961.8,135.5l16.6,1.9l0.9,19L961.8,135.5z"/>
	<path id="_x32_a7c7013-4804-45aa-950a-2b5376f70ef0" class="st29" d="M991.2,156.5l-12.8-19l0.9,19H991.2z"/>
	<path id="_x35_dac32ab-c712-4de9-a97f-2e05661e9f0b" class="st29" d="M932.3,156.5l12.8-19l-0.9,19H932.3z"/>
	<path id="_x32_d1bbfda-86f6-4da7-9bb0-15ddbbfa97e7" class="st31" d="M961.8,135.5l-17.5,21h35L961.8,135.5z"/>
</g>
</svg>
