<?xml version="1.0" encoding="utf-8"?>
<!-- Generator: Adobe Illustrator 22.0.1, SVG Export Plug-In . SVG Version: 6.00 Build 0)  -->
<svg version="1.1" id="Layer_1" xmlns="http://www.w3.org/2000/svg" xmlns:xlink="http://www.w3.org/1999/xlink" x="0px" y="0px"
	 viewBox="0 0 1300 400" style="enable-background:new 0 0 1300 400;" xml:space="preserve">
<style type="text/css">
	.st0{fill:url(#SVGID_1_);stroke:#000000;stroke-width:1.6452;stroke-miterlimit:10;}
	.st1{fill:#E6E6E6;}
	.st2{fill:#FFFFFF;}
	.st3{fill:#0D8CD8;}
	.st4{fill:#3F3D56;}
	.st5{fill:#9F616A;}
	.st6{opacity:0.1;enable-background:new    ;}
	.st7{fill:#2F2E41;}
</style>
<linearGradient id="SVGID_1_" gradientUnits="userSpaceOnUse" x1="0" y1="200" x2="1300" y2="200" gradientTransform="matrix(1 0 0 -1 0 400)">
	<stop  offset="0" style="stop-color:#007194"/>
	<stop  offset="1" style="stop-color:#41C1C9"/>
</linearGradient>
<rect class="st0" width="1300" height="400"/>
<path class="st1" d="M1150.4,297.9l17.5-26.1l-17.5,28.9l0,2.9c-1.3,0-2.5,0-3.8-0.1l0.9-37.7l0-0.3l0-0.1l0.1-3.6l-19.2-27.9
	l19.2,25.2l0.1,0.8l0.7-28.5l-16.6-28.9l16.6,23.9l-0.2-59.1l0-0.2l0,0.2l1.1,46.5l15.1-18.9l-15.1,22.9l0.3,25.5l13.9-24.9
	l-13.9,28.6l0.2,14.2l20.2-34.7l-20.2,39.6L1150.4,297.9z"/>
<path class="st1" d="M1209.5,298.7l17.5-26.1l-17.5,28.9l0,2.9c-1.3,0-2.5,0-3.8-0.1l0.9-37.7l0-0.3l0-0.1l0.1-3.6l-19.2-27.9
	l19.2,25.2l0.1,0.8l0.7-28.5l-16.6-28.9l16.6,23.9l-0.2-59.1l0-0.2l0,0.2l1.1,46.5l15.1-18.9l-15.1,22.9l0.3,25.5l13.9-24.9
	l-13.9,28.6l0.2,14.2l20.2-34.7l-20.2,39.6L1209.5,298.7z"/>
<rect x="927.1" y="90.8" class="st1" width="105" height="142"/>
<rect x="930.8" y="95.8" class="st2" width="97.6" height="132"/>
<path class="st1" d="M1015.5,119h-71.6c-1.2,0-2.2-1-2.2-2.2c0-1.2,1-2.2,2.2-2.2h71.6c1.2,0,2.2,1,2.2,2.2
	C1017.7,118,1016.7,119,1015.5,119C1015.5,119,1015.5,119,1015.5,119z"/>
<path class="st1" d="M1015.5,141.5h-71.6c-1.2,0-2.2-1-2.2-2.2c0-1.2,1-2.2,2.2-2.2h71.6c1.2,0,2.2,1,2.2,2.2
	C1017.7,140.5,1016.7,141.5,1015.5,141.5C1015.5,141.5,1015.5,141.5,1015.5,141.5z"/>
<path class="st1" d="M1015.5,164h-71.6c-1.2,0-2.2-1-2.2-2.2c0-1.2,1-2.2,2.2-2.2h71.6c1.2,0,2.2,1,2.2,2.2
	C1017.7,163,1016.7,164,1015.5,164C1015.5,164,1015.5,164,1015.5,164z"/>
<path class="st1" d="M1015.5,186.5h-71.6c-1.2,0-2.2-1-2.2-2.2c0-1.2,1-2.2,2.2-2.2h71.6c1.2,0,2.2,1,2.2,2.2
	C1017.7,185.5,1016.7,186.5,1015.5,186.5C1015.5,186.5,1015.5,186.5,1015.5,186.5z"/>
<path class="st1" d="M1015.5,209h-71.6c-1.2,0-2.2-1-2.2-2.2c0-1.2,1-2.2,2.2-2.2h71.6c1.2,0,2.2,1,2.2,2.2
	C1017.7,208,1016.7,209,1015.5,209C1015.5,209,1015.5,209,1015.5,209z"/>
<path class="st3" d="M1003,119h-59.4c-1.2,0-2.2-1-2.2-2.2c0-1.2,1-2.2,2.2-2.2c0,0,0,0,0,0h59.4c1.2,0,2.2,1,2.2,2.2
	C1005.2,118,1004.2,119,1003,119z"/>
<path class="st3" d="M984.6,141.5h-41c-1.2,0-2.2-1-2.2-2.2c0-1.2,1-2.2,2.2-2.2h41c1.2,0,2.2,1,2.2,2.2
	C986.8,140.5,985.8,141.5,984.6,141.5C984.6,141.5,984.6,141.5,984.6,141.5z"/>
<path class="st3" d="M962,164h-18.4c-1.2,0-2.2-1-2.2-2.2c0-1.2,1-2.2,2.2-2.2c0,0,0,0,0,0H962c1.2,0,2.2,1,2.2,2.2
	C964.2,163,963.3,164,962,164z"/>
<path class="st3" d="M1008.6,186.5h-65c-1.2,0-2.2-1-2.2-2.2c0-1.2,1-2.2,2.2-2.2h65c1.2,0,2.2,1,2.2,2.2
	C1010.8,185.5,1009.8,186.5,1008.6,186.5L1008.6,186.5z"/>
<path class="st3" d="M994.3,209h-50.6c-1.2,0-2.2-1-2.2-2.2s1-2.2,2.2-2.2c0,0,0,0,0,0h50.6c1.2,0,2.2,1,2.2,2.2
	C996.4,208,995.5,209,994.3,209C994.3,209,994.3,209,994.3,209z"/>
<rect x="892.3" y="303.6" class="st4" width="335.2" height="0.8"/>
<path class="st5" d="M1083.4,193.1c0,0-2.4-17.4-6.3-12.7c-4,4.7,0,11.9,0,11.9l3.2,4l3.2-2.4V193.1z"/>
<path class="st3" d="M1092.9,198.6c0,0-7.9-8.7-9.5-7.1c-1.6,1.6-6.3,2.4-5.5,5.5c0.8,3.2,17.4,13.4,17.4,13.4L1092.9,198.6z"/>
<path class="st6" d="M1092.9,198.6c0,0-7.9-8.7-9.5-7.1c-1.6,1.6-6.3,2.4-5.5,5.5c0.8,3.2,17.4,13.4,17.4,13.4L1092.9,198.6z"/>
<path class="st5" d="M1137.9,197.8v6.3c0,0,0.8,14.2-4,13.4s-2.4-12.7-2.4-12.7l0.8-7.1L1137.9,197.8z"/>
<path class="st5" d="M1135.6,243.7c0,0,7.1,11.1,9.5,11.9c2.4,0.8,15,7.9,16.6,15l11.1,14.2l-5.5,7.1c0,0-25.3-26.9-32.4-29.3
	c-7.1-2.4-14.2-14.2-14.2-14.2L1135.6,243.7z"/>
<path class="st5" d="M1079.4,225.5c0,0-15,2.4-12.7,11.9c2.4,9.5,25.3,29.3,25.3,29.3l0.8,4.7l8.7,1.6l4-4l-0.8-2.4
	c0,0-9.5-8.7-10.3-11.9c-0.8-3.2-9.5-15.8-13.4-16.6l5.5-3.2L1079.4,225.5z"/>
<path class="st7" d="M1170.4,284.8c0,0-3.2-4.7,1.6-4c4.7,0.8,7.9,1.6,7.9,4.7s-4,25.3-8.7,23.7s-0.8-8.7-0.8-8.7s-2.4-6.3-4-7.1
	c-1.6-0.8-1.6-4.7,0-4.7S1171.2,286.4,1170.4,284.8z"/>
<path class="st7" d="M1103.1,267.4c0,0,0-4,3.2,0s4.7,7.1,1.6,9.5c-3.2,2.4-14.2,7.9-14.2,7.9s-11.9,2.4-10.3-3.2c0,0,7.9-4,7.9-7.1
	s0-8.7,2.4-7.1S1103.1,269.8,1103.1,267.4z"/>
<path class="st7" d="M1118.2,208.1c0,0,11.1,1.6,10.3,17.4c0,0,14.2,14.2,10.3,19c-4,4.7-12.7,13.4-15.8,11.1
	c-3.2-2.4-12.7-20.6-12.7-20.6s-22.1,7.9-26.1,4c-4-4-7.9-13.4-7.9-13.4l19.8-10.3L1118.2,208.1z"/>
<circle class="st5" cx="1087.3" cy="153.5" r="9.5"/>
<path class="st5" d="M1094.4,154.3c0,0,5.5,8.7,7.1,9.5s-11.1,8.7-11.1,8.7s0-10.3-4-12.7L1094.4,154.3z"/>
<path class="st3" d="M1095.2,163c0,0,12.7-4,15,2.4c2.4,6.3,7.9,18.2,7.1,26.1c-0.8,7.9-2.4,6.3,0,8.7s4,0.8,3.2,4
	c-0.8,3.2-1.6,3.2-0.8,4.7c0.8,1.6-9.5,7.1-18.2,7.9l-8.7,0.8c0,0,0-14.2-1.6-17.4c-1.6-3.2-4.7-9.5-4.7-11.9v-6.3
	c0-4.2,1.1-8.3,3.2-11.9l0,0C1089.7,170.1,1094.4,163,1095.2,163z"/>
<path class="st3" d="M1104.7,166.2c0,0,29.3,2.4,32.4,10.3s4.7,23.7,1.6,23.7s-7.1,1.6-7.9,0c-0.8-1.6-4-17.4-4.7-17.4
	c-0.8,0-24.5-2.4-24.5-2.4S1091.3,167.8,1104.7,166.2z"/>
<path class="st7" d="M1086.9,151.2c0,0-2.5-4.4-5.7-0.6s-8.3-3.2-7.5-4.7s3.6,0.1,8.3-1.5s13.9-4.7,15.5,5.6
	c1.5,10.3-2.1,9.3-2.1,9.3s-1.7-9.2-3.2-6.5l-1.5,2.6l-1.3,0.3L1086.9,151.2z"/>
</svg>
