<?xml version="1.0" encoding="utf-8"?>
<!-- Generator: Adobe Illustrator 22.0.1, SVG Export Plug-In . SVG Version: 6.00 Build 0)  -->
<svg version="1.1" id="Layer_1" xmlns="http://www.w3.org/2000/svg" xmlns:xlink="http://www.w3.org/1999/xlink" x="0px" y="0px"
	 viewBox="0 0 1300 400" style="enable-background:new 0 0 1300 400;" xml:space="preserve">
<style type="text/css">
	.st0{fill:url(#SVGID_1_);stroke:#000000;stroke-width:1.6452;stroke-miterlimit:10;}
	.st1{fill:#E6E6E6;}
	.st2{fill:#0D8CD8;}
	.st3{fill:#FFB8B8;}
	.st4{opacity:0.1;enable-background:new    ;}
	.st5{fill:#2F2E41;}
	.st6{fill:#D0CDE1;}
	.st7{fill:#3F3D56;}
	.st8{fill:#F2F2F2;}
	.st9{fill:#FFFFFF;}
</style>
<linearGradient id="SVGID_1_" gradientUnits="userSpaceOnUse" x1="0" y1="200" x2="1300" y2="200" gradientTransform="matrix(1 0 0 -1 0 400)">
	<stop  offset="0" style="stop-color:#007194"/>
	<stop  offset="1" style="stop-color:#41C1C9"/>
</linearGradient>
<rect class="st0" width="1300" height="400"/>
<path class="st1" d="M1017.6,103c2.2,2.9,4.5,6.2,6.8,9.8l0.3-16.7l0.2,0.1c-2.5-1.8-5.2-3.3-8.1-4.3l0.2,0.1L1017.6,103z"/>
<path class="st1" d="M1016.7,91.9c-3-1-5.9-1.4-8.5-0.9c-0.1,0-0.3,0.1-0.4,0.1c0.7,0.7,4.6,5,9.4,11.4L1016.7,91.9z"/>
<path class="st1" d="M1034.2,131.1c0.4,0.9,0.7,1.7,1,2.5l6.1-18.1l0.2,0.2c-0.7-1.4-1.5-2.7-2.3-4L1034.2,131.1L1034.2,131.1z"/>
<path class="st1" d="M1030.6,123.5l3.2-19l0.2,0.1c-2.6-3.1-5.6-5.9-8.8-8.3l-0.3,17C1027,116.9,1028.9,120.2,1030.6,123.5z"/>
<path class="st1" d="M998.1,110.1l-0.1-0.2c0.3,2.9,0.8,5.7,1.7,8.5l29.4,3c-1.5-2.8-3.1-5.5-4.7-7.9L998.1,110.1z"/>
<path class="st1" d="M999.9,118.8l-0.1-0.2c0.3,1,0.6,2,1,2.9l-0.1-0.2l29.8,2.6c-0.4-0.7-0.7-1.4-1.1-2.1L999.9,118.8z"/>
<path class="st1" d="M1034,130.6l4.9-19.3l0.2,0.2c-1.5-2.3-3.1-4.5-4.9-6.6l-3.2,19.2C1032,126.3,1033.1,128.5,1034,130.6z"/>
<path class="st1" d="M1035.2,134.6l-29-2.8c1.6,2.1,3.3,4.1,5.1,6l-0.1-0.3l26.5,5.4C1037.1,140.2,1036.3,137.4,1035.2,134.6z"/>
<path class="st1" d="M1007.6,91.3l0.1-0.1c-4,0.9-6.8,3.6-8.3,7.5l17.7,4C1011.8,95.8,1007.6,91.4,1007.6,91.3z"/>
<path class="st1" d="M1035.7,135.1c0.9,2.5,1.7,5,2.3,7.6l6.9-17.3l0.2,0.2c-0.4-2.4-1.2-4.8-2.2-7c-0.4-0.9-0.8-1.7-1.3-2.6
	l-6.2,18.3C1035.6,134.6,1035.7,134.8,1035.7,135.1z"/>
<path class="st1" d="M1024.2,113c-2.3-3.6-4.6-6.9-6.8-9.7l-18.1-4.1l-0.1-0.2c-1.1,3-1.5,6.6-1.2,10.7L1024.2,113z"/>
<path class="st1" d="M1005.9,131.4l29.1,2.8l0,0c-1.3-3.3-2.7-6.6-4.3-9.8l-29.9-2.7c0.5,1.3,1.1,2.7,1.7,4.1
	C1003.5,127.7,1004.6,129.6,1005.9,131.4z"/>
<path class="st1" d="M1076.3,137l0.1,0.2c-0.8-3-1.9-5.8-3.5-8.5l0.1,0.2l-6.6,8.8c-0.2,3.6-0.5,7.7-1,11.9L1076.3,137z"/>
<path class="st1" d="M1072.8,128.6c-1.6-2.7-3.7-4.8-6-6.1c-0.1-0.1-0.2-0.1-0.4-0.2c0.1,1,0.4,6.8,0,14.8L1072.8,128.6z"/>
<path class="st1" d="M1061.3,169.9c-0.3,0.9-0.5,1.8-0.8,2.6l16.2-10l0,0.2c0.3-1.5,0.6-3,0.8-4.5l-16.2,11.8L1061.3,169.9z"/>
<path class="st1" d="M1063.4,161.8l14.6-12.6l0,0.2c0-4-0.6-8.1-1.5-12l-11.1,12.9C1064.8,154.3,1064.2,158.1,1063.4,161.8z"/>
<path class="st1" d="M1078,149.7l-14.8,12.7c-0.5,2.4-1.1,4.7-1.8,7l16-11.7l0,0.2C1077.9,155.2,1078,152.5,1078,149.7z"/>
<path class="st1" d="M1049.5,192.7c0-0.2,0-0.4,0-0.6c2.6-3.1,4.9-6.6,6.7-10.2l-8.9-11.1c-0.1-0.4-0.2-0.8-0.4-1.1l9.5,11.8
	c1.3-2.6,2.4-5.4,3.4-8.1l-18.8-18.8c0.1-0.1,0.1-0.3,0.2-0.5l18.7,18.8l0,0c1.2-3.4,2.1-6.8,2.9-10.3l-18.6-18.4
	c0-0.2,0.1-0.3,0.1-0.5L1063,162c0.2-0.8,0.3-1.5,0.5-2.3l-18.5-18.9c0-0.2,0.1-0.4,0.1-0.5l18.6,18.9c0.6-3.2,1.1-6.2,1.5-9.1
	l-18.2-19.4l0.1-0.2c-0.4,0.6-0.8,1.3-1.3,2c0-2.2-0.2-4.3-0.5-6.4l-7,17.5c0.6,2.4,1,4.9,1.2,7.3c0,0.4-0.1,0.8-0.1,1.3l0.2,0.2
	c0,0.2,0,0.4,0,0.7l-0.3-0.3c0,0.2,0,0.5,0,0.7c-0.1-3.3-0.6-6.6-1.4-9.9l-26.3-5.4c1.3,1.4,2.7,2.7,4.1,4c-2.8-0.9-5.6-1.4-8.5-1.5
	l0.2,0l3.9,10.2c3,2.1,6.2,4.5,9.5,7.2l-4.8-15.8c0.2,0.2,0.4,0.3,0.5,0.5l4.8,15.7c3.1,2.6,6,5.2,8.6,7.8l-2.2-14.8
	c0.2,0.1,0.3,0.2,0.5,0.3l2.2,15c1.8,1.8,3.4,3.5,4.9,5.3l-1.1-16.2c0.2,0.1,0.3,0.2,0.4,0.3l1.1,16.4l-0.1,0
	c0.6,0.7,1.2,1.4,1.8,2.1l0.2-16.7c0.2,0.1,0.3,0.2,0.4,0.3l-0.2,17c0.2,0.2,0.3,0.4,0.5,0.7c1.6,2.1,3.2,4.3,4.6,6.5l0.1-1.5
	c0.1,0.4,0.2,0.9,0.4,1.3l-0.1,0.9c0.2,0.3,0.4,0.7,0.6,1c0.2,0.5,0.3,1,0.5,1.5c-0.4-0.8-0.9-1.6-1.4-2.4l-26.7,3
	c14,7.4,31.4,10.9,32.5,11.1c-0.3-1.2-0.6-2.3-1-3.5c0.1-0.1,0.2-0.2,0.3-0.3c0,0.1,0.1,0.3,0.1,0.4c0,0.1-0.1,0.1-0.1,0.2
	c0.1,0,0.1-0.1,0.2-0.1c0.3,0.8,0.5,1.6,0.7,2.4c0.1-0.6,0.2-1.6,0.3-2.9c4.8-2.4,17.2-9.4,23.6-20.5l-16.5,9
	C1054.6,185.8,1052.3,189.4,1049.5,192.7z M1044.1,166.7l0-0.6l0.4,0.5l0,0.6L1044.1,166.7z"/>
<path class="st1" d="M1066.2,122.3l0.1-0.1c-3.6-1.8-7.5-1.6-11.2,0.5l11.1,14.4C1066.6,128.4,1066.2,122.4,1066.2,122.3z"/>
<path class="st1" d="M1059.9,174c-0.9,2.5-1.9,4.9-3.1,7.3l16.4-8.9l0,0.2c1.2-2.1,2.1-4.4,2.8-6.8c0.2-0.9,0.5-1.9,0.7-2.8
	l-16.4,10.1C1060.1,173.4,1060,173.7,1059.9,174z"/>
<path class="st1" d="M1066.1,137.7l-11.4-14.7l0.1-0.2c-2.8,1.6-5.4,4.1-7.8,7.5l18,19.2C1065.7,145.3,1066,141.3,1066.1,137.7z"/>
<path class="st1" d="M1007.1,140.6c-3.2,0-6,0.5-8.4,1.8c-0.1,0.1-0.2,0.1-0.4,0.2c0.9,0.5,5.9,3.3,12.5,7.9L1007.1,140.6z"/>
<path class="st1" d="M1021.1,158.7l-26.1,5l-0.1-0.2c1.1,2.6,2.6,5.2,4.2,7.5l28.9-6.2C1025.6,162.5,1023.3,160.5,1021.1,158.7z"/>
<path class="st1" d="M1030,166.8c-0.6-0.6-1.1-1.1-1.7-1.6l-29,6.2l-0.1-0.2c0.6,0.8,1.2,1.7,1.9,2.5l-0.1-0.2L1030,166.8z"/>
<path class="st1" d="M1042.9,182.7c-1.5-2.5-3.2-4.9-5.1-7.2l-28.4,6.3c2.2,1.5,4.4,2.9,6.7,4.1l-0.1-0.2L1042.9,182.7z"/>
<path class="st1" d="M998.1,142.9l0-0.2c-3.5,2.1-5.3,5.5-5.6,9.7l18.1-1.7C1003.5,145.8,998.2,142.9,998.1,142.9z"/>
<path class="st1" d="M1011.2,151.1l-18.5,1.7l-0.1-0.2c-0.2,3.2,0.6,6.8,2.2,10.6l25.9-4.9C1017.3,155.6,1014.1,153.2,1011.2,151.1z
	"/>
<path class="st1" d="M1037.5,175.1c-2.2-2.8-4.6-5.4-7.1-8l-29.2,6.7c0.9,1.1,1.9,2.2,2.9,3.3c1.5,1.6,3.1,3,4.9,4.3L1037.5,175.1
	L1037.5,175.1z"/>
<path class="st2" d="M1017.6,103c2.2,2.9,4.5,6.2,6.8,9.8l0.3-16.7l0.2,0.1c-2.5-1.8-5.2-3.3-8.1-4.3l0.2,0.1L1017.6,103z"/>
<path class="st2" d="M1016.7,91.9c-3-1-5.9-1.4-8.5-0.9c-0.1,0-0.3,0.1-0.4,0.1c0.7,0.7,4.6,5,9.4,11.4L1016.7,91.9z"/>
<path class="st2" d="M1034.2,131.1c0.4,0.9,0.7,1.7,1,2.5l6.1-18.1l0.2,0.2c-0.7-1.4-1.5-2.7-2.3-4L1034.2,131.1L1034.2,131.1z"/>
<path class="st2" d="M1030.6,123.5l3.2-19l0.2,0.1c-2.6-3.1-5.6-5.9-8.8-8.3l-0.3,17C1027,116.9,1028.9,120.2,1030.6,123.5z"/>
<path class="st2" d="M998.1,110.1l-0.1-0.2c0.3,2.9,0.8,5.7,1.7,8.5l29.4,3c-1.5-2.8-3.1-5.5-4.7-7.9L998.1,110.1z"/>
<path class="st2" d="M999.9,118.8l-0.1-0.2c0.3,1,0.6,2,1,2.9l-0.1-0.2l29.8,2.6c-0.4-0.7-0.7-1.4-1.1-2.1L999.9,118.8z"/>
<path class="st2" d="M1034,130.6l4.9-19.3l0.2,0.2c-1.5-2.3-3.1-4.5-4.9-6.6l-3.2,19.2C1032,126.3,1033.1,128.5,1034,130.6z"/>
<path class="st2" d="M1035.2,134.6l-29-2.8c1.6,2.1,3.3,4.1,5.1,6l-0.1-0.3l26.5,5.4C1037.1,140.2,1036.3,137.4,1035.2,134.6z"/>
<path class="st2" d="M1007.6,91.3l0.1-0.1c-4,0.9-6.8,3.6-8.3,7.5l17.7,4C1011.8,95.8,1007.6,91.4,1007.6,91.3z"/>
<path class="st2" d="M1035.7,135.1c0.9,2.5,1.7,5,2.3,7.6l6.9-17.3l0.2,0.2c-0.4-2.4-1.2-4.8-2.2-7c-0.4-0.9-0.8-1.7-1.3-2.6
	l-6.2,18.3C1035.6,134.6,1035.7,134.8,1035.7,135.1z"/>
<path class="st2" d="M1024.2,113c-2.3-3.6-4.6-6.9-6.8-9.7l-18.1-4.1l-0.1-0.2c-1.1,3-1.5,6.6-1.2,10.7L1024.2,113z"/>
<path class="st2" d="M1005.9,131.4l29.1,2.8l0,0c-1.3-3.3-2.7-6.6-4.3-9.8l-29.9-2.7c0.5,1.3,1.1,2.7,1.7,4.1
	C1003.5,127.7,1004.6,129.6,1005.9,131.4z"/>
<path class="st2" d="M1076.3,137l0.1,0.2c-0.8-3-1.9-5.8-3.5-8.5l0.1,0.2l-6.6,8.8c-0.2,3.6-0.5,7.7-1,11.9L1076.3,137z"/>
<path class="st2" d="M1072.8,128.6c-1.6-2.7-3.7-4.8-6-6.1c-0.1-0.1-0.2-0.1-0.4-0.2c0.1,1,0.4,6.8,0,14.8L1072.8,128.6z"/>
<path class="st2" d="M1061.3,169.9c-0.3,0.9-0.5,1.8-0.8,2.6l16.2-10l0,0.2c0.3-1.5,0.6-3,0.8-4.5l-16.2,11.8L1061.3,169.9z"/>
<path class="st2" d="M1063.4,161.8l14.6-12.6l0,0.2c0-4-0.6-8.1-1.5-12l-11.1,12.9C1064.8,154.3,1064.2,158.1,1063.4,161.8z"/>
<path class="st2" d="M1078,149.7l-14.8,12.7c-0.5,2.4-1.1,4.7-1.8,7l16-11.7l0,0.2C1077.9,155.2,1078,152.5,1078,149.7z"/>
<path class="st2" d="M1049.5,192.7c0-0.2,0-0.4,0-0.6c2.6-3.1,4.9-6.6,6.7-10.2l-8.9-11.1c-0.1-0.4-0.2-0.8-0.4-1.1l9.5,11.8
	c1.3-2.6,2.4-5.4,3.4-8.1l-18.8-18.8c0.1-0.1,0.1-0.3,0.2-0.5l18.7,18.8l0,0c1.2-3.4,2.1-6.8,2.9-10.3l-18.6-18.4
	c0-0.2,0.1-0.3,0.1-0.5L1063,162c0.2-0.8,0.3-1.5,0.5-2.3l-18.5-18.9c0-0.2,0.1-0.4,0.1-0.5l18.6,18.9c0.6-3.2,1.1-6.2,1.5-9.1
	l-18.2-19.4l0.1-0.2c-0.4,0.6-0.8,1.3-1.3,2c0-2.2-0.2-4.3-0.5-6.4l-7,17.5c0.6,2.4,1,4.9,1.2,7.3c0,0.4-0.1,0.8-0.1,1.3l0.2,0.2
	c0,0.2,0,0.4,0,0.7l-0.3-0.3c0,0.2,0,0.5,0,0.7c-0.1-3.3-0.6-6.6-1.4-9.9l-26.3-5.4c1.3,1.4,2.7,2.7,4.1,4c-2.8-0.9-5.6-1.4-8.5-1.5
	l0.2,0l3.9,10.2c3,2.1,6.2,4.5,9.5,7.2l-4.8-15.8c0.2,0.2,0.4,0.3,0.5,0.5l4.8,15.7c3.1,2.6,6,5.2,8.6,7.8l-2.2-14.8
	c0.2,0.1,0.3,0.2,0.5,0.3l2.2,15c1.8,1.8,3.4,3.5,4.9,5.3l-1.1-16.2c0.2,0.1,0.3,0.2,0.4,0.3l1.1,16.4l-0.1,0
	c0.6,0.7,1.2,1.4,1.8,2.1l0.2-16.7c0.2,0.1,0.3,0.2,0.4,0.3l-0.2,17c0.2,0.2,0.3,0.4,0.5,0.7c1.6,2.1,3.2,4.3,4.6,6.5l0.1-1.5
	c0.1,0.4,0.2,0.9,0.4,1.3l-0.1,0.9c0.2,0.3,0.4,0.7,0.6,1c0.2,0.5,0.3,1,0.5,1.5c-0.4-0.8-0.9-1.6-1.4-2.4l-26.7,3
	c14,7.4,31.4,10.9,32.5,11.1c-0.3-1.2-0.6-2.3-1-3.5c0.1-0.1,0.2-0.2,0.3-0.3c0,0.1,0.1,0.3,0.1,0.4c0,0.1-0.1,0.1-0.1,0.2
	c0.1,0,0.1-0.1,0.2-0.1c0.3,0.8,0.5,1.6,0.7,2.4c0.1-0.6,0.2-1.6,0.3-2.9c4.8-2.4,17.2-9.4,23.6-20.5l-16.5,9
	C1054.6,185.8,1052.3,189.4,1049.5,192.7z M1044.1,166.7l0-0.6l0.4,0.5l0,0.6L1044.1,166.7z"/>
<path class="st2" d="M1066.2,122.3l0.1-0.1c-3.6-1.8-7.5-1.6-11.2,0.5l11.1,14.4C1066.6,128.4,1066.2,122.4,1066.2,122.3z"/>
<path class="st2" d="M1059.9,174c-0.9,2.5-1.9,4.9-3.1,7.3l16.4-8.9l0,0.2c1.2-2.1,2.1-4.4,2.8-6.8c0.2-0.9,0.5-1.9,0.7-2.8
	l-16.4,10.1C1060.1,173.4,1060,173.7,1059.9,174z"/>
<path class="st2" d="M1066.1,137.7l-11.4-14.7l0.1-0.2c-2.8,1.6-5.4,4.1-7.8,7.5l18,19.2C1065.7,145.3,1066,141.3,1066.1,137.7z"/>
<path class="st2" d="M1007.1,140.6c-3.2,0-6,0.5-8.4,1.8c-0.1,0.1-0.2,0.1-0.4,0.2c0.9,0.5,5.9,3.3,12.5,7.9L1007.1,140.6z"/>
<path class="st2" d="M1021.1,158.7l-26.1,5l-0.1-0.2c1.1,2.6,2.6,5.2,4.2,7.5l28.9-6.2C1025.6,162.5,1023.3,160.5,1021.1,158.7z"/>
<path class="st2" d="M1030,166.8c-0.6-0.6-1.1-1.1-1.7-1.6l-29,6.2l-0.1-0.2c0.6,0.8,1.2,1.7,1.9,2.5l-0.1-0.2L1030,166.8z"/>
<path class="st2" d="M1042.9,182.7c-1.5-2.5-3.2-4.9-5.1-7.2l-28.4,6.3c2.2,1.5,4.4,2.9,6.7,4.1l-0.1-0.2L1042.9,182.7z"/>
<path class="st2" d="M998.1,142.9l0-0.2c-3.5,2.1-5.3,5.5-5.6,9.7l18.1-1.7C1003.5,145.8,998.2,142.9,998.1,142.9z"/>
<path class="st2" d="M1011.2,151.1l-18.5,1.7l-0.1-0.2c-0.2,3.2,0.6,6.8,2.2,10.6l25.9-4.9C1017.3,155.6,1014.1,153.2,1011.2,151.1z
	"/>
<path class="st2" d="M1037.5,175.1c-2.2-2.8-4.6-5.4-7.1-8l-29.2,6.7c0.9,1.1,1.9,2.2,2.9,3.3c1.5,1.6,3.1,3,4.9,4.3L1037.5,175.1
	L1037.5,175.1z"/>
<path class="st3" d="M1206.6,99.1c0,0-4.3,12.2-1.6,14.1c2.6,1.9-8.9,17.2-8.9,17.2l-13.8-3.7l7.6-12.8c0,0,1-12.8,1-14.7
	S1206.6,99.1,1206.6,99.1z"/>
<path class="st4" d="M1206.6,99.1c0,0-4.3,12.2-1.6,14.1c2.6,1.9-8.9,17.2-8.9,17.2l-13.8-3.7l7.6-12.8c0,0,1-12.8,1-14.7
	S1206.6,99.1,1206.6,99.1z"/>
<path class="st5" d="M1213.8,186c0,0,1.2,15.6,0,23.7c-1.2,8.1-3.1,30.6-3.1,30.6s0,42.5-6.9,43.1s-11.9,1.2-12.5-1.2
	c-0.6-2.5,3.1-3.7,1.2-5c-1.9-1.2-2.5-5.6,0-10.6c2.5-5,0-55.6,0-55.6l-11.9,31.9c0,0-1.2,26.2-2.5,30c-1.2,3.7,1.2,10.6-3.1,11.2
	s-9.4-3.1-11.9-4.4c-2.5-1.2,3.7-1.2,2.5-1.9c-1.2-0.6-5-2.5-3.7-3.1c1.2-0.6,2.5-30.6,2.5-30.6s3.4-64.1,7.8-66.6
	c4.4-2.5,7.2,1.8,7.2,1.8L1213.8,186z"/>
<path class="st5" d="M1202.5,281.3v5c0,0,5.6,13.6,0,13.6c-5.6,0-10,1.4-10-0.5v-16.9L1202.5,281.3z"/>
<path class="st5" d="M1165.6,280.9v5c0,0-5.6,13.6,0,13.6c5.6,0,10,1.4,10-0.5v-16.9L1165.6,280.9z"/>
<circle class="st3" cx="1197.8" cy="96.9" r="11.2"/>
<path class="st6" d="M1201.3,117.8c0,0-3.1,9.4-8.1,7.5l-5-1.9l-8.7,60c0,0,6.9,10,16.9,3.7S1201.3,117.8,1201.3,117.8z"/>
<path class="st6" d="M1192.5,116l-2.8-5.9c0,0-16.6,7.8-19.1,10.3c-2.5,2.5-2.5,6.2-2.5,6.2l4.4,15.6c0,0-1.2,34.4-1.2,35.6
	s-4.4,8.1-1.2,5.6c3.1-2.5,3.7-5,6.2-1.2s8.1,8.1,8.1,8.1L1192.5,116z"/>
<path class="st3" d="M1170.6,161l1.9,17.5c0,0,11.2,10,8.7,10.6c-2.5,0.6-3.7-1.9-3.7-1.9s-4.4,4.4-6.9,1.9
	c-2.5-2.5-8.7-26.2-8.7-26.2L1170.6,161z"/>
<path class="st5" d="M1197.6,81c2.5-0.1,5.2-0.1,7.3,1.2c1,0.7,1.8,1.5,2.5,2.5c2,2.6,3.8,5.8,3.1,9.1l-0.9-0.3
	c0,0.9,0.2,1.7,0.6,2.5c-0.1-0.4-0.5,0.2-0.4,0.6l1,3.2c-1.6-0.6-3.6,0.6-3.8,2.3c-0.1-3.7-0.5-8-3.5-10.1c-1.5-1.1-3.4-1.4-5.3-1.7
	c-1.7-0.3-3.5-0.5-5.1,0s-3,2.2-2.7,3.9c-0.8-0.3-1.6,0.3-2,1c-0.4,0.7-0.4,1.5-0.4,2.3c-0.8,0.6-1.7-0.6-2-1.5
	c-0.8-2.2-1.4-4.5-1-6.8c0.4-2.3,2.3-4.4,4.6-4.4c-0.3-0.3-0.4-0.7-0.4-1.1l1.9-0.2c-0.5-0.1-0.9-0.3-1.3-0.7
	C1190.3,83.5,1196.3,81,1197.6,81z"/>
<path class="st6" d="M1198.1,114.1c0,0,5.1-5,6.9-4.7s4.3,4.7,4.3,4.7s15,5,14.4,10s-7.5,29.4-7.5,29.4s-5.6,29.4-0.6,32.5
	c5,3.1-23.7,11.2-24.4,7.5s-1.9-41.2,0-46.9C1193.1,141,1198.1,114.1,1198.1,114.1z"/>
<path class="st6" d="M1176.3,124.1h-7.7c0,0-5.4,23.7-6,26.2c-0.6,2.5-1.9,14.4-1.2,14.4s13.1-2.5,13.1-0.6L1176.3,124.1z"/>
<circle class="st7" cx="953.4" cy="131.3" r="6"/>
<circle class="st2" cx="953.4" cy="154.6" r="6"/>
<circle class="st7" cx="953.4" cy="177.9" r="6"/>
<circle class="st7" cx="953.4" cy="201.2" r="6"/>
<circle class="st7" cx="953.4" cy="224.4" r="6"/>
<rect x="952.6" y="299.7" class="st7" width="280.6" height="0.7"/>
<polygon class="st2" points="953,133.7 950.1,129.9 950.8,129.4 953.1,132.5 962.4,124.9 962.9,125.6 "/>
<polygon class="st7" points="990.5,153.4 969.5,153.7 990.5,162.3 990.5,300.1 1199.3,300.1 1199.3,153.4 "/>
<rect x="944.2" y="137" class="st7" width="18.7" height="0.6"/>
<rect x="944.2" y="160.3" class="st7" width="18.7" height="0.6"/>
<rect x="944.2" y="183.6" class="st7" width="18.7" height="0.6"/>
<rect x="944.2" y="206.9" class="st7" width="18.7" height="0.6"/>
<rect x="944.2" y="230.2" class="st7" width="18.7" height="0.6"/>
<circle class="st8" cx="953.4" cy="154.6" r="2.9"/>
<rect x="1029.3" y="161.2" class="st9" width="131.1" height="10.9"/>
<rect x="1150.7" y="277.6" class="st2" width="38.8" height="13.2"/>
<rect x="1000.3" y="188.5" class="st9" width="97.5" height="79.4"/>
<rect x="1048.7" y="165.3" transform="matrix(0.6314 -0.7755 0.7755 0.6314 209.7475 897.6109)" class="st8" width="0.6" height="125.7"/>
<rect x="986.2" y="227.9" transform="matrix(0.7755 -0.6314 0.6314 0.7755 91.4737 713.5874)" class="st8" width="125.7" height="0.6"/>
<rect x="1119.6" y="195.4" class="st9" width="70.2" height="2"/>
<rect x="1119.6" y="201.7" class="st9" width="70.2" height="2"/>
<rect x="1119.6" y="208.1" class="st9" width="70.2" height="2"/>
<rect x="1119.6" y="214.4" class="st9" width="70.2" height="2"/>
<rect x="1119.6" y="220.7" class="st9" width="70.2" height="2"/>
<rect x="1119.6" y="227" class="st9" width="70.2" height="2"/>
<rect x="1119.6" y="233.4" class="st9" width="70.2" height="2"/>
<rect x="1119.6" y="239.7" class="st9" width="70.2" height="2"/>
<rect x="1119.6" y="246" class="st9" width="70.2" height="2"/>
<rect x="1119.6" y="252.3" class="st9" width="70.2" height="2"/>
<rect x="1119.6" y="258.7" class="st9" width="70.2" height="2"/>
<rect x="1119.6" y="265" class="st9" width="70.2" height="2"/>
<path class="st3" d="M1218.1,166.6l-8.7,3.7c0,0-16.9,2.5-16.9-4.4c0-6.9,16.9-3.1,16.9-3.1l5.6-1.8L1218.1,166.6z"/>
<path class="st6" d="M1216.3,120.3l7.5,1.9l5.6,33.1c0,0,1.9,8.7-1.2,9.4c-3.1,0.6-11.9,5.6-11.9,5.6s-1.2-9.4-3.7-9.4l6.2-5
	l-3.7-21.9L1216.3,120.3z"/>
</svg>
