<?xml version="1.0" encoding="utf-8"?>
<!-- Generator: Adobe Illustrator 22.0.1, SVG Export Plug-In . SVG Version: 6.00 Build 0)  -->
<svg version="1.1" id="Layer_1" xmlns="http://www.w3.org/2000/svg" xmlns:xlink="http://www.w3.org/1999/xlink" x="0px" y="0px"
	 viewBox="0 0 1300 400" style="enable-background:new 0 0 1300 400;" xml:space="preserve">
<style type="text/css">
	.st0{fill:url(#SVGID_1_);stroke:#000000;stroke-width:1.6452;stroke-miterlimit:10;}
	.st1{fill:#3F3D56;}
	.st2{fill:#0D8CD8;}
	.st3{fill:#2F2E41;}
	.st4{fill:#A0616A;}
</style>
<linearGradient id="SVGID_1_" gradientUnits="userSpaceOnUse" x1="0" y1="200" x2="1300" y2="200" gradientTransform="matrix(1 0 0 -1 0 400)">
	<stop  offset="0" style="stop-color:#007194"/>
	<stop  offset="1" style="stop-color:#41C1C9"/>
</linearGradient>
<rect class="st0" width="1300" height="400"/>
<path class="st1" d="M1177.6,273.7c0,0-10.8,4-15.9,13.5c-5.1,9.4-2.5,20.6-2.5,20.6s10.8-4,15.9-13.5
	C1180.2,284.9,1177.6,273.7,1177.6,273.7z"/>
<path class="st2" d="M1192.1,287.7c0,0-3.5,11-12.7,16.5s-20.5,3.5-20.5,3.5s3.5-11,12.7-16.5S1192.1,287.7,1192.1,287.7z"/>
<rect x="902.1" y="310.4" class="st3" width="366.2" height="0.8"/>
<path class="st3" d="M1050,272.8c-5.2-1-10.2-3-14.6-5.9l0.5-0.7c4.3,2.9,9.2,4.8,14.3,5.8c7.7,1.4,19.3,0.7,30.5-10.4
	c21.8-21.7,42.7-23.9,42.9-23.9l0.1,0.8c-0.2,0-20.7,2.2-42.4,23.7c-8.8,8.8-17.9,11.2-25.2,11.2C1054,273.3,1052,273.1,1050,272.8z
	"/>
<circle class="st3" cx="1112.7" cy="250.7" r="4.9"/>
<circle class="st3" cx="1077.9" cy="273.6" r="4.9"/>
<path class="st1" d="M1181.5,310.8c0,0-7.1-2.2-21.4-4.4l0.3-4.4c2.5-24.5-13.9-61.3-13.9-61.3c6.2,18.3,9.2,37.5,8.8,56.8
	c-2.2-3.8-6.4-7.9-14.5-10.4c0,0,10.5,9,13.6,18.4c-13.8-1.8-27.7-3-41.7-3.4l3.6-8.3l-6.9,6.9c0,0-2.9-20.8-9-21.7l4.5,20.4
	c0,0-5.3-4.1-6.5-3.7l3,6c-20.4-0.2-44.6,0.7-72.7,3.7l3.4-7.9l-6.9,6.9c0,0-2.9-20.8-9-21.7l4.5,20.4c0,0-5.3-4.1-6.5-3.7l3.5,7.1
	c-9.2,1.1-18.7,2.4-28.7,4H1181.5z"/>
<path class="st4" d="M1068.7,113.1c-4.5,4.8,7.2,16.5,7.2,16.5s-23.6,4-21.7,3.7s0.9-20.1,0.9-20.1S1073.2,108.3,1068.7,113.1z"/>
<path class="st3" d="M1085.1,164.5l-20.5,10.5l-11.1,6.4c0,0-13.1,16.5-15.6,26.3c-2.4,9.8,10.6,27.9,12.1,29.8c0.8,1,1.4,2,2,3
	c0.5,0.8,4.9-0.2,9.7-1.3c4.8-1-0.6-8.2-0.6-8.2s-6.1-15.7-6.6-16c-0.4-0.3-1.9-3-0.8-4.2c1-1,1.7-2.3,2.2-3.6
	c0.4-1.2,1-2.3,1.7-3.2c0,0,18.5-15.1,24.3-20.2c5.8-5.1,21.2-1.9,21.2-1.9s-7.3,27.9-9.1,29.8c-1.8,1.9-2,3.6-1.2,6.7
	c0.8,3.2,11.6,0.2,11.6,0.2l4-10.8c0,0,6.4-14,9.9-28.5c1.7-7.2-1.6-11.5-5.4-14c-3.6-2.4-8-3.2-12.3-2.4l-18.9,3.3l13.1-5.7
	L1085.1,164.5z"/>
<path class="st4" d="M1009.6,137.6l-24.5-7.6c0,0-9.9-12.7-5.2-15c4.7-2.2,10.5,11,10.5,11l17,1.1L1009.6,137.6z"/>
<path class="st4" d="M1112.4,124.3l21.7-13.5c0,0,6.3-14.8,1.3-15.8s-7.4,13.3-7.4,13.3l-16.2,5.4L1112.4,124.3z"/>
<path class="st2" d="M1116.5,109.1l0.4,16l-36.7,6.5c5.4,11.5,4,24.7,17.6,30.4l-45.7,22.4c2-17.6-6.5-30.8-14.4-47.3
	c-9.7-3.5-20.9-0.9-32.8,4.2l-2.1-16.6l50.6-3.6l8.3,3.2l8.9-3.8C1083.7,116.6,1102.5,109.2,1116.5,109.1z"/>
<path class="st3" d="M1093.7,217.8c-1.1,1-2.1,8.9-2.2,11.8s3.8,3.6,5.8,3.8c2.1,0.1,1.8,1.4,3.2,2.5s5.9,0.9,11.8-1.1
	c5.9-2-4-8.6-4.8-8.9c-0.9-0.3-4.5-9.3-4.5-9.3S1094.8,216.9,1093.7,217.8z"/>
<path class="st3" d="M1061.3,236c1.3,0.7,4.3,8.1,5.1,10.9c0.8,2.8-2.7,4.5-4.7,5.1c-2,0.7-1.4,1.8-2.5,3.2s-5.5,2.4-11.7,1.9
	c-6.2-0.4,1.7-9.3,2.4-9.8c0.8-0.5,2-10.1,2-10.1S1059.9,235.4,1061.3,236z"/>
<circle class="st4" cx="1061.3" cy="109.4" r="9.8"/>
<path class="st3" d="M1050,108.5c-1.2-2.4-1.3-5.1-0.3-7.6c1-2.4,3.1-4.8,7.7-5.5c10.1-1.6,15.4,5.5,15.1,7.8
	c-0.3,2.3-1.6,7.9-1.6,7.9s0.6-5.3-2-5.5c-2.6-0.2-12.6-1-15.2,1.7c-1.5,1.5-2.1,3.6-1.5,5.7L1050,108.5z"/>
</svg>
