<?xml version="1.0" encoding="utf-8"?>
<!-- Generator: Adobe Illustrator 22.0.1, SVG Export Plug-In . SVG Version: 6.00 Build 0)  -->
<svg version="1.1" id="Layer_1" xmlns="http://www.w3.org/2000/svg" xmlns:xlink="http://www.w3.org/1999/xlink" x="0px" y="0px"
	 viewBox="0 0 1300 400" style="enable-background:new 0 0 1300 400;" xml:space="preserve">
<style type="text/css">
	.st0{fill:url(#SVGID_1_);stroke:#000000;stroke-width:1.6452;stroke-miterlimit:10;}
	.st1{fill:#F1F1F1;}
	.st2{fill:none;stroke:#3F3D56;stroke-width:0.6896;stroke-miterlimit:10;}
	.st3{fill:#0D8CD8;}
	.st4{fill:#3F3D56;}
	.st5{fill:#575A89;}
	.st6{fill:#FFB9B9;}
	.st7{fill:#2F2E41;}
	.st8{opacity:0.1;enable-background:new    ;}
	.st9{fill:#575A88;}
</style>
<linearGradient id="SVGID_1_" gradientUnits="userSpaceOnUse" x1="0" y1="203.2158" x2="1300" y2="203.2158" gradientTransform="matrix(1 0 0 -1 0 400)">
	<stop  offset="0" style="stop-color:#007194"/>
	<stop  offset="1" style="stop-color:#41C1C9"/>
</linearGradient>
<rect y="-3.2" class="st0" width="1300" height="400"/>
<rect x="927.8" y="99.9" class="st1" width="283.4" height="162.1"/>
<rect x="935.7" y="92.7" class="st2" width="283.4" height="162.1"/>
<line class="st2" x1="935.7" y1="101.3" x2="1219.2" y2="101.3"/>
<circle class="st3" cx="942.3" cy="97.1" r="2.4"/>
<circle class="st3" cx="949.5" cy="97.1" r="2.4"/>
<circle class="st3" cx="956.8" cy="97.1" r="2.4"/>
<path class="st4" d="M1109.2,204.8c17.6-17.6,17.6-46.1,0-63.7c-8.4-8.4-19.9-13.2-31.8-13.2v45L1109.2,204.8z"/>
<path class="st3" d="M1077.4,127.9c-24.9,0-45,20.2-45,45.1c0,16.5,9,31.7,23.5,39.6l21.5-39.6V127.9z"/>
<rect x="980.6" y="211.3" class="st3" width="8.6" height="8.6"/>
<rect x="993" y="211.3" class="st4" width="8.6" height="8.6"/>
<rect x="1005.5" y="211.3" class="st5" width="8.6" height="8.6"/>
<rect x="1129.6" y="213.2" class="st4" width="35.5" height="1.4"/>
<rect x="1129.6" y="217.5" class="st4" width="35.5" height="1.4"/>
<rect x="1129.6" y="221.9" class="st4" width="35.5" height="1.4"/>
<polygon class="st6" points="1145.2,285.8 1145.7,290.6 1149,292.1 1152.6,291 1155,292.1 1155.8,287.7 1151.4,282.8 "/>
<path class="st7" d="M1147.4,289.4c0,0-2.9-3.4-3-1.7c0,1.7-6.5,7.6-6.5,7.6s-10.1,3-2.3,4.9c7.8,1.9,24.9-3.6,25.5-4.7
	c0.6-1.1-4.7-9.9-5.3-9.1C1155.2,287.2,1152.4,289.8,1147.4,289.4z"/>
<path class="st7" d="M1140.2,233c0,0-1.1,8.9,0,10.3c1.1,1.3,0.6,4,0,4.4c-0.6,0.4,0.8,1.9,1.7,2.7s2.3,4.2,2.3,4.2
	s5.1,13.5,5.1,14.8c0,1.3,2.3,4.2,2.1,5.1s1.3,4,1.1,4.6c-0.2,0.6,2.5,5.7,1.7,6.5s-11.2,3.4-10.6,1.7c0.6-1.7,0.9-3.8,0.6-3.8
	s-2.1-2.1-1.7-2.8c0.4-0.8-11.4-20.7-11.4-20.7L1140.2,233z"/>
<path class="st8" d="M1147.4,289.4c0,0-2.9-3.4-3-1.7c0,1.7-6.5,7.6-6.5,7.6s-10.1,3-2.3,4.9c7.8,1.9,24.9-3.6,25.5-4.7
	c0.6-1.1-4.7-9.9-5.3-9.1C1155.2,287.2,1152.4,289.8,1147.4,289.4z"/>
<path class="st8" d="M1140.2,233c0,0-1.1,8.9,0,10.3c1.1,1.3,0.6,4,0,4.4c-0.6,0.4,0.8,1.9,1.7,2.7s2.3,4.2,2.3,4.2
	s5.1,13.5,5.1,14.8c0,1.3,2.3,4.2,2.1,5.1s1.3,4,1.1,4.6c-0.2,0.6,2.5,5.7,1.7,6.5s-11.2,3.4-10.6,1.7c0.6-1.7,0.9-3.8,0.6-3.8
	s-2.1-2.1-1.7-2.8c0.4-0.8-11.4-20.7-11.4-20.7L1140.2,233z"/>
<polygon class="st6" points="1120.8,283.5 1118.8,288.8 1119.7,296.2 1125.8,295.8 1129.2,292.8 1129.2,286.3 "/>
<path class="st7" d="M1122,289.9c0,0-2.1-6.8-3.2-4.9c-0.7,1.2-1.4,2.5-1.9,3.8c0,0-9.3,6.1-11.8,6.1s-4.7,3-1.5,4.2
	c3.2,1.1,27.9,2.7,28.3,0c0.4-2.7-0.4-11.2-1.5-10.3C1129.2,289.7,1123.3,291.8,1122,289.9z"/>
<path class="st6" d="M1117.2,205.8c0,0-4,6.8-4.4,7.6c-0.4,0.8-2.5,5.7,1.5,7.6s7.4-13.9,7.4-13.9L1117.2,205.8z"/>
<path class="st9" d="M1121.4,194.8c0,0-6.1,11.8-4.9,12.2c1.1,0.4,5.7,2.7,5.7,2.7l2.1-12L1121.4,194.8z"/>
<path class="st8" d="M1121.4,194.8c0,0-6.1,11.8-4.9,12.2c1.1,0.4,5.7,2.7,5.7,2.7l2.1-12L1121.4,194.8z"/>
<path class="st7" d="M1121.8,204.6c0,0-1.3,9.9-0.8,12c0.6,2.1-0.4,33.4,0.4,35.1s1.3,12.7,1.3,14.1s-1.5,12.2-1.9,13.1
	s-1.5,4.2-0.9,5.7c0.6,1.5,8.4,5.3,9.5,4c1.1-1.3,0.2-5.5,1.1-5.7c0.9-0.2,2.1-9.1,2.1-9.1l6.3-35c0,0,11.8-29.3,9.1-32.1
	S1121.8,204.6,1121.8,204.6z"/>
<circle class="st6" cx="1128.8" cy="127.9" r="9.3"/>
<path class="st6" d="M1125.4,135.5c0,0,3,8,2.7,9.7s8.9-3,8.9-3s-0.6-9.3,0-11.8C1137.6,127.9,1125.4,135.5,1125.4,135.5z"/>
<path class="st9" d="M1150.9,187.5c0,1.6-0.1,2.5-0.1,2.5s0.6,8.7-0.4,11.6c-0.9,2.8-0.9,4.9-1.5,6.8c-0.2,0.6-2.4,0.8-5.6,1
	c-2.9,0.1-6.6,0.1-10.2,0c-5.9-0.1-11.4-0.5-12.3-0.6c-2.1-0.4,0.4-3.6-0.4-5.3c-0.8-1.7,1.3-23.6,1.3-23.6s-0.2-12.3,0.8-17.1
	c0.9-4.7,4.6-12.3,5.3-13.3c0.8-0.9,0.2-1.5-1.5-2.7c-1.7-1.1,0-5.5,0-5.5c3.2-2.7,11.4-3,11.4-3s12.5,12.9,13.3,15.6
	c0.5,1.6,0.3,14.4,0.1,24.4C1151.1,182,1151,185.3,1150.9,187.5z"/>
<path class="st6" d="M1134.9,211.1c0,0-7.2,14.8-1.5,15.8c5.7,0.9,8.5-13.5,8.5-13.5L1134.9,211.1z"/>
<path class="st7" d="M1120.1,123.2c-0.3-1.6,0.9-3.1,2.2-4.1c2.8-2.2,6.2-3.3,9.8-3.3c2.5,0,5.1,0.7,6.9,2.3c2.2,1.9,3.2,5,3,7.9
	s-1.4,5.6-3.1,8c-0.8,1.1-2.1,2.3-3.4,1.8c-0.5-0.2-0.9-0.6-1.3-1.1c-0.8-1-1.6-2.2-2.2-3.3c-0.5-0.9-0.9-1.9-1.5-2.6
	c-0.7-0.8-1.7-1.4-2.7-1.2c-0.8,0.1-1.7,0.7-2.5,0.4c-0.9-0.3-1.1-1.4-1.2-2.4c-0.1-1,0-2.2-0.3-3.2
	C1123.6,122.5,1120.3,124,1120.1,123.2z"/>
<path class="st8" d="M1150.9,187.5c-2.1,7.7-7,20.6-7.3,21.2c-0.1,0.1-0.2,0.4-0.3,0.8c-2.9,0.1-6.6,0.1-10.2,0
	c0.6-1.4,1.2-2.8,1.2-3.3c0-0.9,4.6-25.5,4.6-25.5s-3.6-10.8-6.8-19.9s9.6-7.3,9.6-7.3c6.8-1.7,8.1,1.2,8.1,1.2s0.6,16,1.4,23.6
	c0.2,1.9,0.4,3.3,0.7,3.8C1152.1,182.6,1151.7,184.7,1150.9,187.5z"/>
<path class="st9" d="M1138.9,147.3c0,0-8.7,3.6-5.5,12.7c3.2,9.1,6.8,19.9,6.8,19.9s-4.6,24.5-4.6,25.5s-2.8,6.1-1.7,7
	s8.7,2.8,8.9,1.9c0.6-2.2,1.3-4.3,2.1-6.5c0.4-0.8,9.3-24.5,8.2-26.6c-1.1-2.1-2.1-27.4-2.1-27.4S1145.7,145.6,1138.9,147.3z"/>
<path class="st5" d="M1119.5,219l-33.6-31.5l-19.8,40.9c6.6,3.6,14,5.5,21.5,5.5C1100.1,233.9,1111.4,227.1,1119.5,219z"/>
<path class="st8" d="M1119.5,219l-33.6-31.5l-19.8,40.9c6.6,3.6,14,5.5,21.5,5.5C1100.1,233.9,1111.4,227.1,1119.5,219z"/>
<path class="st5" d="M1116.8,221.4l-31.8-31.8l-21.5,39.6C1080.9,238.6,1102.7,235.5,1116.8,221.4z"/>
<line class="st2" x1="1064.7" y1="300.6" x2="1201.2" y2="300.6"/>
<line class="st2" x1="1182.3" y1="300.9" x2="1182.3" y2="260.9"/>
<circle class="st4" cx="1182.3" cy="260.9" r="5.7"/>
<path class="st4" d="M1182.3,285.6c0,0-0.8-17.4-17.4-15.4"/>
</svg>
