<?xml version="1.0" encoding="utf-8"?>
<!-- Generator: Adobe Illustrator 22.0.1, SVG Export Plug-In . SVG Version: 6.00 Build 0)  -->
<svg version="1.1" id="Layer_1" xmlns="http://www.w3.org/2000/svg" xmlns:xlink="http://www.w3.org/1999/xlink" x="0px" y="0px"
	 viewBox="0 0 1300 400" style="enable-background:new 0 0 1300 400;" xml:space="preserve">
<style type="text/css">
	.st0{fill:url(#SVGID_1_);stroke:#000000;stroke-width:1.6452;stroke-miterlimit:10;}
	.st1{fill:#E6E6E6;}
	.st2{fill:#0D8CD8;}
	.st3{fill:#FFFFFF;}
	.st4{fill:#3F3D56;}
	.st5{fill:#A0616A;}
	.st6{fill:#2F2E41;}
	.st7{opacity:0.2;enable-background:new    ;}
</style>
<linearGradient id="SVGID_1_" gradientUnits="userSpaceOnUse" x1="0" y1="196.8813" x2="1300" y2="196.8813" gradientTransform="matrix(1 0 0 -1 0 400)">
	<stop  offset="0" style="stop-color:#007194"/>
	<stop  offset="1" style="stop-color:#41C1C9"/>
</linearGradient>
<rect y="3.1" class="st0" width="1300" height="400"/>
<path class="st1" d="M1098.1,170.6c-1-18-16.5-31.8-34.5-30.8c-14,0.8-25.9,10.4-29.6,23.9c-0.4,0-0.8,0-1.2,0
	c-14.5,0-27.3,9.6-31.4,23.5c-9.6-4.2-20.9-1.4-27.4,6.8h101.9c12.5,0,22.7-10.4,22.2-22.9C1098.1,170.9,1098.1,170.8,1098.1,170.6z
	"/>
<path class="st1" d="M857.7,130.1c1-18,16.5-31.8,34.5-30.8c14,0.8,25.9,10.4,29.6,23.9c0.4,0,0.8,0,1.2,0
	c14.5,0,27.3,9.6,31.4,23.5c9.6-4.2,20.9-1.4,27.4,6.8H879.9c-12.5,0-22.7-10.4-22.2-22.9C857.7,130.4,857.7,130.2,857.7,130.1z"/>
<polygon class="st2" points="1004,162.3 923.7,162.3 883.5,231.9 923.7,301.4 1004,301.4 1044.1,231.9 "/>
<path class="st3" d="M930.4,289.8h66.9l33.4-57.9l-33.4-57.9h-66.9L897,231.9L930.4,289.8z"/>
<rect x="857.7" y="300.9" class="st4" width="386.2" height="1"/>
<polygon class="st5" points="1161.1,124.6 1164.6,134.5 1158.8,146.1 1148.9,129.2 "/>
<path class="st6" d="M1190.5,244.1c-1.9,2.7-16.7,18.2-26.5,28.5c-2.7,2.9-5.1,5.3-6.7,7c-1.4,1.5-2.2,2.3-2.2,2.3l-4.5-9.3l-1.9-4
	l0,0l1.2-1.6l11.6-14.8l12.2-15.6l-9.9-19.8l12.2-1.7l8.1,0.5l1.8,0.1C1185.9,215.6,1193.4,240,1190.5,244.1z"/>
<path class="st6" d="M1156.2,291.8c-0.8,0.8-2.1-0.2-3.5-1.9c-2.9-3.4-6.4-9.8-6.4-9.8l-4.1-8.7c0.4-2.6,4.4-2.9,6.4-2.9
	c0.7,0,1.1,0,1.1,0l0.3,0.5l7.1,10.6C1157.3,279.6,1158.5,289.5,1156.2,291.8z"/>
<path class="st7" d="M1157.3,279.6c0,0,1.3,9.9-1.1,12.2c-0.8,0.8-2.1-0.2-3.5-1.9l-2.1-17.4l-0.4-3.5l-0.3-2.1l11.6-14.8l2.5,20.5
	C1161.2,275.5,1158.9,277.9,1157.3,279.6z"/>
<polygon class="st7" points="1165.3,219.9 1163.8,216.8 1176,215 1184.1,215.5 1184.1,215.6 "/>
<polygon class="st6" points="1149.8,190 1145.7,190 1146.9,228.4 1155,294.7 1168.4,294.7 1162.6,247 1165.5,220.2 1185.9,215.6 
	1180,188.8 "/>
<path class="st6" d="M1156.2,292.9c0,0-1.2,8.1-0.6,8.7c0.6,0.6,1.2,1.2,1.2,2.3c0,1.2,7,4.1,10.5,1.7c3.5-2.3,1.2-5.8,1.2-5.8
	l-3.5-7L1156.2,292.9z"/>
<circle class="st5" cx="1153.9" cy="122" r="9.9"/>
<polygon class="st1" points="1159.7,137.7 1152.1,134.6 1147.5,191.7 1179.5,194.1 1168.4,135.3 1163.5,130.7 "/>
<path class="st6" d="M1151.1,132.9l-5.9,4.8l-11.1,5.8l4.1,36.6l0.6,20.9c0,0-7.6,18.6-1.7,23.3c5.8,4.7,12.2,2.9,11.1-7
	c-1.2-9.9-3.5-16.9,7.6-27.3C1166.7,179.5,1157,130.4,1151.1,132.9z"/>
<path class="st6" d="M1162.9,129.5l7.3,4.7l9.9,5.2l7.6,83.8l-16.9,5.2C1170.7,228.4,1161.4,131.7,1162.9,129.5z"/>
<path class="st5" d="M1181.8,198.7c0,0-8.7,13.4-2.3,13.4c6.4,0,8.1-11.1,8.1-11.1L1181.8,198.7z"/>
<path class="st5" d="M1145.7,198.7c0,0,8.7,13.4,2.3,13.4c-6.4,0-8.1-11.1-8.1-11.1L1145.7,198.7z"/>
<path class="st6" d="M1154.5,107.4l-2.9-1.7l0.6,1.2l-2.3-0.6l0.6,0.6l-2.9-0.6l1.2,1.2c0,0-4.7,0-5.2,4.7l-2.9,0.6l1.2,1.7v1.7
	l1.2,1.2v1.7l1.2,2.9l1.2-4.1c0,0,5.2,1.2,7.6-3.5c0,0,0.6,1.7,3.5,1.2l4.7,8.1c0,0,0.6-3.6,2.6-4.1c2-0.5,0.9-5.2,0.9-5.2
	s-1.7-1.7-1.7-2.9s-1.7-2.3-2.9-2.3s-4.1-2.3-4.1-2.3L1154.5,107.4z"/>
<path class="st6" d="M1138.8,144.1l-2.7-1.6l-1.9,1c0,0-2.3,1.2-2.9,5.2c-0.6,4.1-6.4,29.1-6.4,29.1s-0.6,4.1,2.3,11.1
	c2.9,7,14,19.2,14,19.2l10.5-8.7l-15.7-19.2l4.1-15.7L1138.8,144.1z"/>
<polygon class="st6" points="1175.4,139.4 1180,139.4 1187.6,167.9 1189.9,203.4 1178.9,199.3 1178.9,173.7 "/>
<rect x="938" y="173.9" class="st4" width="0.9" height="35.9"/>
<circle class="st2" cx="938.5" cy="211.8" r="2.5"/>
<rect x="956.6" y="173.9" class="st4" width="0.9" height="35.9"/>
<circle class="st4" cx="957" cy="211.8" r="2.5"/>
<rect x="989.2" y="173.9" class="st4" width="0.9" height="35.9"/>
<circle class="st4" cx="989.6" cy="211.8" r="2.5"/>
<circle class="st4" cx="976" cy="247.3" r="2.5"/>
<circle class="st4" cx="925.7" cy="224.6" r="2.5"/>
<polygon class="st4" points="976.4,245.3 975.6,245.3 975.6,202 957,202 957,201.1 976.4,201.1 "/>
<circle class="st2" cx="944.2" cy="263" r="2.5"/>
<polygon class="st4" points="944.7,260.9 943.8,260.9 943.8,217.7 925.2,217.7 925.2,216.8 944.7,216.8 "/>
<circle class="st2" cx="1001.6" cy="243.6" r="2.5"/>
<polygon class="st4" points="1002,241.6 1001.2,241.6 1001.2,198.3 989.2,198.3 989.2,197.4 1002,197.4 "/>
<polygon class="st4" points="926.1,222.2 925.2,222.2 925.2,200.6 938.5,200.6 938.5,201.5 926.1,201.5 "/>
<circle class="st4" cx="957.2" cy="272.7" r="2.5"/>
<polygon class="st4" points="957.7,270.2 956.8,270.2 956.8,249.6 944.4,249.6 944.4,248.7 957.7,248.7 "/>
<circle class="st4" cx="988.8" cy="254.3" r="2.5"/>
<polygon class="st4" points="989.2,251.9 988.4,251.9 988.4,230.4 1001.6,230.4 1001.6,231.2 989.2,231.2 "/>
</svg>
