<?xml version="1.0" encoding="utf-8"?>
<!-- Generator: Adobe Illustrator 22.0.1, SVG Export Plug-In . SVG Version: 6.00 Build 0)  -->
<svg version="1.1" id="Layer_1" xmlns="http://www.w3.org/2000/svg" xmlns:xlink="http://www.w3.org/1999/xlink" x="0px" y="0px"
	 viewBox="0 0 1300 400" style="enable-background:new 0 0 1300 400;" xml:space="preserve">
<style type="text/css">
	.st0{fill:url(#SVGID_1_);stroke:#000000;stroke-width:1.6452;stroke-miterlimit:10;}
	.st1{fill:#3F3D56;}
	.st2{fill:#0D8CD8;}
	.st3{fill:#D0CDE1;}
	.st4{fill:#FFB8B8;}
	.st5{fill:#2F2E41;}
	.st6{fill:#575A89;}
	.st7{opacity:0.2;enable-background:new    ;}
</style>
<linearGradient id="SVGID_1_" gradientUnits="userSpaceOnUse" x1="0" y1="200" x2="1300" y2="200" gradientTransform="matrix(1 0 0 -1 0 400)">
	<stop  offset="0" style="stop-color:#007194"/>
	<stop  offset="1" style="stop-color:#41C1C9"/>
</linearGradient>
<rect class="st0" width="1300" height="400"/>
<polygon class="st1" points="969.7,203.5 1001.5,87.2 1200.9,145.5 1169.1,261.8 "/>
<ellipse class="st2" cx="1005" cy="92.1" rx="1.7" ry="1.7"/>
<ellipse class="st2" cx="1010.1" cy="93.6" rx="1.7" ry="1.7"/>
<ellipse class="st2" cx="1015.1" cy="95" rx="1.7" ry="1.7"/>
<path class="st2" d="M1107.3,161c-2.7-0.5-5.4-0.5-8.1,0.2c0.8-2.7,1-5.6,0.6-8.4c-2.7,1-5.2,2.7-7.2,4.8c-0.6-2.9-1.9-5.7-3.7-8
	c-1.8,2.2-3,4.7-3.8,7.5c-1.9-2-4.2-3.5-6.8-4.5c0,0-1.2,6.3,1.7,11.5c2.6,4.6,7.5,6.8,8.6,7.2l0,0l0,0c0.1,0,0.2,0.1,0.2,0.1
	s0-0.1,0.1-0.3c0,0,0,0,0.1-0.1c0,0,0,0.1,0,0.1c-0.1,0.2-0.1,0.3-0.1,0.3s0.1,0,0.2,0l0,0l0,0c1.1,0.2,6.4,1.1,11-1.5
	C1105.1,167,1107.3,161,1107.3,161z"/>
<ellipse class="st2" cx="1097.4" cy="140.4" rx="4.3" ry="4.4"/>
<polygon class="st2" points="1022.3,160.3 1151.3,198.1 1150.5,201 1021.5,163.2 "/>
<polygon class="st2" points="1030.5,178.3 1052.7,184.8 1046.4,207.8 1024.2,201.3 "/>
<polygon class="st2" points="1071.8,190.4 1094,196.9 1087.7,219.9 1065.5,213.4 "/>
<polygon class="st2" points="1113.1,202.5 1135.3,209 1129,232 1106.8,225.5 "/>
<polygon class="st2" points="1025.8,206.8 1042.3,211.6 1041.8,213.6 1025.2,208.7 "/>
<polygon class="st2" points="1067.1,218.8 1083.6,223.7 1083.1,225.6 1066.5,220.8 "/>
<polygon class="st2" points="1108.4,230.9 1124.9,235.7 1124.4,237.7 1107.8,232.9 "/>
<ellipse class="st3" cx="941.8" cy="244.3" rx="110.5" ry="4.2"/>
<ellipse class="st3" cx="1138.1" cy="292.2" rx="86" ry="4.2"/>
<path class="st1" d="M1095.9,259.4h24.8v10.7h-14.4v10.7h14.4v10.7h-24.8V259.4z M1125.7,259.4h24.8v9.3h-14.4v1.9h14.4V292h-24.8
	v-9.8h14.4v-1.9h-14.4L1125.7,259.4L1125.7,259.4z M1155.5,259.4h24.8v9.3h-14.4v1.9h14.4V292h-24.8v-9.8h14.4v-1.9h-14.4
	L1155.5,259.4L1155.5,259.4z"/>
<path class="st1" d="M879.1,210.3h10.2v10.5h9.4v-10.5H909V242h-10.2v-10.6h-9.4V242h-10.2L879.1,210.3L879.1,210.3z M922.4,220.8
	h-9v-10.5h28.3v10.5h-9V242h-10.2L922.4,220.8L922.4,220.8L922.4,220.8z M946.2,210.3h10.7l6.6,11.1l6.6-11.1h10.7V242h-10.2v-15.7
	l-7,11.3h-0.2l-7-11.3V242h-10V210.3z M985.7,210.3h10.2v21.2h14.4V242h-24.6L985.7,210.3L985.7,210.3z"/>
<polygon class="st4" points="861.1,232.1 860.2,241.9 866.9,241.3 866.9,232.9 "/>
<polygon class="st4" points="854.9,232.1 855.7,241.9 849,241.3 849,232.9 "/>
<path class="st5" d="M872.5,156.5c0,0,2.2,13.9,2.2,15.9c0,2-0.8,15.1-2.2,17.7c-1.4,2.6-1.7,3.8-1.1,4.9c0.6,1.2,0.3,0.9,0,1.7
	s-0.8,0.6,0,1.7c0.7,1,0.7,2.4,0,3.5c-0.6,0.9,1.1,24.3-1.1,26.1c-2.2,1.7-2.8,7.5-2.8,7.5l-7.3-0.9v-6.4c0,0-1.7-4.6-0.6-7.5
	c1.1-2.9,1.7-18.2,1.7-18.2s-0.3-1.4,0-2.3c0.3-0.9,0-1.4-0.6-1.7c-0.6-0.3-0.8-1.4-0.8-1.4l-0.8-21.1l-3.4,20.9
	c0,0,3.4,28.4,0,32.1v6.7h-7.3l1.1-7.2c0,0-2.2-6.7-1.1-8.1s-3.4-24.6-2.8-25.5c0.6-0.9,0.3-1.2,0-1.7c-0.3-0.6-1.1-1.2-0.8-1.7
	s0-1.7,0-1.7s-5.3-27.2-2.8-29.8C844.6,157.1,872.5,156.5,872.5,156.5z"/>
<path class="st5" d="M861.9,238.1c0,0,0.6-2.8,5-1.8c0,0,1.1,2.4,1.1,3.6c0,1.2,1.1,9,1.1,9s4.5,7.8-1.1,7.8s-7.6-2-7.8-4.1
	c-0.3-2,0.3-2.6-0.8-3.5s-1.7-0.9-1.4-2c0.3-1.2,0.8-7,0.8-7s0.3-4.3,1.8-3.2l1.5,1.2"/>
<path class="st5" d="M854.1,238.1c0,0-0.6-2.8-5-1.8c0,0-1.1,2.4-1.1,3.6c0,1.2-1.1,9-1.1,9s-4.5,7.8,1.1,7.8c5.6,0,7.6-2,7.8-4.1
	c0.3-2-0.3-2.6,0.8-3.5s1.7-0.9,1.4-2c-0.3-1.2-0.8-7-0.8-7s-0.3-4.3-1.8-3.2l-1.5,1.2"/>
<ellipse class="st4" cx="862.2" cy="95.4" rx="7.6" ry="7.8"/>
<path class="st4" d="M856,96.5c0,0-3.1,12.5-3.6,12.7c-0.6,0.3,12.9,1.4,12.9,1.4s-3.4-10.7,0-12.5L856,96.5z"/>
<path class="st3" d="M854.1,104.1L854.1,104.1l-9.2,6.6l1.7,51.8c0,0,12.3-1.4,15.1-1.2c2.8,0.3,11.8-2.6,11.8-2.6l-3.9-48.7
	c-0.2-2-1.7-3.5-3.6-3.7l-1.7-0.1c0,0-1.7,4.3-6.7,2.1C855.7,107.6,854.5,106,854.1,104.1z"/>
<path class="st6" d="M854.3,103.6l-11.4,5.6l-2.2,33.3c0,0-4.5,20-0.8,25.8c3.6,5.8,9.8,6.4,9.8,6.4s8.1-33.3,5.9-44.6
	S854.3,103.6,854.3,103.6z"/>
<path class="st4" d="M832.8,153.9v4.3c0,0-1.7,9.6,3.6,9.3c5.3-0.3,2.8-10.4,2.8-10.4l-1.7-3.2L832.8,153.9z"/>
<path class="st4" d="M882.1,162.6l-0.6,4.9c0,0,2.8,9.8-2.5,10.1c-5.3,0.3-1.5-10.1-1.5-10.1l1.7-5.6L882.1,162.6z"/>
<path class="st6" d="M864,105.3L864,105.3c5.1,1.3,9.8,3.8,13.8,7.4l0,0l-3.9,21.4l-0.6,7.8c0,0,10.4,38.2-1.7,32.7
	c0,0-10.4-33.3-9-48.7C864.1,110.7,864,105.3,864,105.3z"/>
<path class="st6" d="M874.2,112.5c0.3-0.3,3.6,0.4,3.6,0.4s6.2,22.5,6.2,26.2c0,3.8,0.8,25.2,0.8,25.2l-7.4,0.8l-6-29.8L874.2,112.5
	z"/>
<path class="st6" d="M844.8,109.3h-2c0,0-5.6,2.3-5.9,4.9c-0.3,2.6-7.8,29-7.8,29l2,13.3l7.3-1.2l1.4-14.8l7.3-16.2L844.8,109.3z"/>
<path class="st5" d="M860.7,97.5l0.3-2.1c0.1-0.5,0.3-1.1,0.8-1c0.4,0.1,1.2,0.5,1.4,0.4c0.5-0.4,1.3,0.3,1.9-0.1
	c0.2-0.1,0.4-0.5,0.7-0.5c0.2,0,0.4,0.1,0.5,0.2c0.4,0.3,0.8,0.6,1.3,0.7c0.5,0.1,1,0,1.3-0.4c0.1-0.1,0.1-0.2,0.2-0.2
	c0.1,0,0.2,0,0.3,0l1.4,0.4c0.4-1.6,0.2-3.3-0.7-4.7c-0.6-0.8-1.3-1.5-2.1-2.1c-0.9-0.7-1.8-1.4-2.7-2c-1-0.7-2.1-1.2-3.3-1.5
	c-1.2-0.2-2.6,0.1-3.3,1.1c-0.4-0.3-0.6-0.6-0.8-1.1c-0.3,0.3-0.3,0.8-0.1,1.1c0,0,0.1,0.1,0.1,0.1l-1.2-0.8c-0.3,0.4,0.3,1,0,1.5
	c-0.1,0.1-0.2,0.2-0.3,0.2c-0.7,0.3-1.3,0.7-1.8,1.2c-0.7,0.8-1.1,1.7-1.4,2.7c-0.7,2.1-1.2,4.6-0.2,6.6c0.1,0.2,1.6,4,1.9,4.1
	c0.7,0.5,0.2-0.7,0.7,0c0.4,0.5,0.3-1.6,0.9-1.1c0.5,0.3,1.1,0.4,1.6,0.1c0.2-0.2,0.2-1.1,0-2c-0.1-0.6,0.3-1.1,0.8-1.2
	c0.1,0,0.3,0,0.4,0C860,97.5,860.7,97.6,860.7,97.5z"/>
<polygon class="st7" points="874.9,138.7 878,165 876,165 "/>
<polygon class="st7" points="842.5,128.5 840.9,138.7 843.9,128.5 843,128.5 "/>
</svg>
