<?xml version="1.0" encoding="utf-8"?>
<!-- Generator: Adobe Illustrator 22.0.1, SVG Export Plug-In . SVG Version: 6.00 Build 0)  -->
<svg version="1.1" id="Layer_1" xmlns="http://www.w3.org/2000/svg" xmlns:xlink="http://www.w3.org/1999/xlink" x="0px" y="0px"
	 viewBox="0 0 1300 400" style="enable-background:new 0 0 1300 400;" xml:space="preserve">
<style type="text/css">
	.st0{fill:url(#SVGID_1_);stroke:#000000;stroke-width:1.6452;stroke-miterlimit:10;}
	.st1{opacity:0.1;fill:#0D8CD8;enable-background:new    ;}
	.st2{fill:#0D8CD8;}
	.st3{fill:#46455B;}
	.st4{fill:#3F3D56;}
	.st5{opacity:0.1;enable-background:new    ;}
	.st6{fill:#323444;}
	.st7{fill:#FBB3B2;}
	.st8{fill:#5B5583;}
	.st9{fill:#3C354C;}
	.st10{fill:#CBCEDA;}
	.st11{fill:#A8A8A8;}
	.st12{opacity:0.2;enable-background:new    ;}
</style>
<linearGradient id="SVGID_1_" gradientUnits="userSpaceOnUse" x1="0" y1="200" x2="1300" y2="200" gradientTransform="matrix(1 0 0 -1 0 400)">
	<stop  offset="0" style="stop-color:#007194"/>
	<stop  offset="1" style="stop-color:#41C1C9"/>
</linearGradient>
<rect class="st0" width="1300" height="400"/>
<path class="st1" d="M1025.2,121h19.6c1.1,0,2,1,2,2.1v3.2c0,1.2-0.9,2.1-2,2.1h-19.6c-1.1,0-2.1-1-2.1-2.1v-3.2
	C1023.1,121.9,1024,121,1025.2,121z"/>
<path class="st1" d="M1050,128.5h19.6c1.1,0,2,1,2,2.1v3.2c0,1.2-0.9,2.1-2,2.1H1050c-1.1,0-2.1-1-2.1-2.1v-3.2
	C1047.9,129.4,1048.9,128.5,1050,128.5z"/>
<path class="st1" d="M1074.8,135.9h19.6c1.1,0,2.1,1,2.1,2.1v3.2c0,1.2-0.9,2.1-2.1,2.1h-19.6c-1.1,0-2-1-2-2.1v-3.2
	C1072.8,136.9,1073.7,135.9,1074.8,135.9z"/>
<path class="st1" d="M1025.2,109.8h19.6c1.1,0,2,1,2,2.1v3.2c0,1.2-0.9,2.1-2,2.1h-19.6c-1.1,0-2.1-1-2.1-2.1v-3.2
	C1023.1,110.7,1024,109.8,1025.2,109.8z"/>
<path class="st1" d="M1050,117.3h19.6c1.1,0,2,1,2,2.1v3.2c0,1.2-0.9,2.1-2,2.1H1050c-1.1,0-2.1-1-2.1-2.1v-3.2
	C1047.9,118.2,1048.9,117.3,1050,117.3z"/>
<path class="st1" d="M1074.8,124.7h19.6c1.1,0,2.1,1,2.1,2.1v3.2c0,1.2-0.9,2.1-2.1,2.1h-19.6c-1.1,0-2-1-2-2.1v-3.2
	C1072.8,125.7,1073.7,124.7,1074.8,124.7z"/>
<path class="st1" d="M1102.4,121h19.6c1.1,0,2,1,2,2.1v3.2c0,1.2-0.9,2.1-2,2.1h-19.6c-1.1,0-2.1-1-2.1-2.1v-3.2
	C1100.4,121.9,1101.3,121,1102.4,121z"/>
<path class="st1" d="M1127.3,128.5h19.6c1.1,0,2.1,1,2.1,2.1v3.2c0,1.2-0.9,2.1-2.1,2.1h-19.6c-1.1,0-2-1-2-2.1v-3.2
	C1125.2,129.4,1126.1,128.5,1127.3,128.5z"/>
<path class="st1" d="M1152.1,135.9h19.6c1.1,0,2.1,1,2.1,2.1v3.2c0,1.2-0.9,2.1-2.1,2.1h-19.6c-1.1,0-2-1-2-2.1v-3.2
	C1150,136.9,1151,135.9,1152.1,135.9z"/>
<path class="st1" d="M1102.4,109.8h19.6c1.1,0,2,1,2,2.1v3.2c0,1.2-0.9,2.1-2,2.1h-19.6c-1.1,0-2.1-1-2.1-2.1v-3.2
	C1100.4,110.7,1101.3,109.8,1102.4,109.8z"/>
<path class="st1" d="M1127.3,117.3h19.6c1.1,0,2.1,1,2.1,2.1v3.2c0,1.2-0.9,2.1-2.1,2.1h-19.6c-1.1,0-2-1-2-2.1v-3.2
	C1125.2,118.2,1126.1,117.3,1127.3,117.3z"/>
<path class="st1" d="M1152.1,124.7h19.6c1.1,0,2.1,1,2.1,2.1v3.2c0,1.2-0.9,2.1-2.1,2.1h-19.6c-1.1,0-2-1-2-2.1v-3.2
	C1150,125.7,1151,124.7,1152.1,124.7z"/>
<path class="st1" d="M1025.2,94.8h19.6c1.1,0,2,1,2,2.1v3.2c0,1.2-0.9,2.1-2,2.1h-19.6c-1.1,0-2.1-1-2.1-2.1V97
	C1023.1,95.8,1024,94.8,1025.2,94.8z"/>
<path class="st1" d="M1050,102.3h19.6c1.1,0,2,1,2,2.1v3.2c0,1.2-0.9,2.1-2,2.1H1050c-1.1,0-2.1-1-2.1-2.1v-3.2
	C1047.9,103.3,1048.9,102.3,1050,102.3z"/>
<path class="st1" d="M1074.8,109.8h19.6c1.1,0,2.1,1,2.1,2.1v3.2c0,1.2-0.9,2.1-2.1,2.1h-19.6c-1.1,0-2-1-2-2.1v-3.2
	C1072.8,110.7,1073.7,109.8,1074.8,109.8z"/>
<path class="st1" d="M1025.2,83.6h19.6c1.1,0,2,1,2,2.1V89c0,1.2-0.9,2.1-2,2.1h-19.6c-1.1,0-2.1-1-2.1-2.1v-3.2
	C1023.1,84.6,1024,83.6,1025.2,83.6z"/>
<path class="st1" d="M1050,91.1h19.6c1.1,0,2,1,2,2.1v3.2c0,1.2-0.9,2.1-2,2.1H1050c-1.1,0-2.1-1-2.1-2.1v-3.2
	C1047.9,92.1,1048.9,91.1,1050,91.1z"/>
<path class="st1" d="M1074.8,98.6h19.6c1.1,0,2.1,1,2.1,2.1v3.2c0,1.2-0.9,2.1-2.1,2.1h-19.6c-1.1,0-2-1-2-2.1v-3.2
	C1072.8,99.5,1073.7,98.6,1074.8,98.6z"/>
<path class="st1" d="M1102.4,94.8h19.6c1.1,0,2,1,2,2.1v3.2c0,1.2-0.9,2.1-2,2.1h-19.6c-1.1,0-2.1-1-2.1-2.1V97
	C1100.4,95.8,1101.3,94.8,1102.4,94.8z"/>
<path class="st1" d="M1127.3,102.3h19.6c1.1,0,2.1,1,2.1,2.1v3.2c0,1.2-0.9,2.1-2.1,2.1h-19.6c-1.1,0-2-1-2-2.1v-3.2
	C1125.2,103.3,1126.1,102.3,1127.3,102.3z"/>
<path class="st1" d="M1152.1,109.8h19.6c1.1,0,2.1,1,2.1,2.1v3.2c0,1.2-0.9,2.1-2.1,2.1h-19.6c-1.1,0-2-1-2-2.1v-3.2
	C1150,110.7,1151,109.8,1152.1,109.8z"/>
<path class="st1" d="M1102.4,83.6h19.6c1.1,0,2,1,2,2.1V89c0,1.2-0.9,2.1-2,2.1h-19.6c-1.1,0-2.1-1-2.1-2.1v-3.2
	C1100.4,84.6,1101.3,83.6,1102.4,83.6z"/>
<path class="st1" d="M1127.3,91.1h19.6c1.1,0,2.1,1,2.1,2.1v3.2c0,1.2-0.9,2.1-2.1,2.1h-19.6c-1.1,0-2-1-2-2.1v-3.2
	C1125.2,92.1,1126.1,91.1,1127.3,91.1z"/>
<path class="st1" d="M1152.1,98.6h19.6c1.1,0,2.1,1,2.1,2.1v3.2c0,1.2-0.9,2.1-2.1,2.1h-19.6c-1.1,0-2-1-2-2.1v-3.2
	C1150,99.5,1151,98.6,1152.1,98.6z"/>
<path class="st1" d="M1025.2,254.1h19.6c1.1,0,2,1,2,2.1v3.2c0,1.2-0.9,2.1-2,2.1h-19.6c-1.1,0-2.1-1-2.1-2.1v-3.2
	C1023.1,255,1024,254.1,1025.2,254.1z"/>
<path class="st1" d="M1050,261.5h19.6c1.1,0,2,1,2,2.1v3.2c0,1.2-0.9,2.1-2,2.1H1050c-1.1,0-2.1-1-2.1-2.1v-3.2
	C1047.9,262.5,1048.9,261.5,1050,261.5z"/>
<path class="st1" d="M1074.8,269h19.6c1.1,0,2.1,1,2.1,2.1v3.2c0,1.2-0.9,2.1-2.1,2.1h-19.6c-1.1,0-2-1-2-2.1v-3.2
	C1072.8,270,1073.7,269,1074.8,269z"/>
<path class="st1" d="M1025.2,242.9h19.6c1.1,0,2,1,2,2.1v3.2c0,1.2-0.9,2.1-2,2.1h-19.6c-1.1,0-2.1-1-2.1-2.1V245
	C1023.1,243.8,1024,242.9,1025.2,242.9z"/>
<path class="st1" d="M1050,250.3h19.6c1.1,0,2,1,2,2.1v3.2c0,1.2-0.9,2.1-2,2.1H1050c-1.1,0-2.1-1-2.1-2.1v-3.2
	C1047.9,251.3,1048.9,250.3,1050,250.3z"/>
<path class="st1" d="M1074.8,257.8h19.6c1.1,0,2.1,1,2.1,2.1v3.2c0,1.2-0.9,2.1-2.1,2.1h-19.6c-1.1,0-2-1-2-2.1v-3.2
	C1072.8,258.8,1073.7,257.8,1074.8,257.8z"/>
<path class="st1" d="M1102.4,254.1h19.6c1.1,0,2,1,2,2.1v3.2c0,1.2-0.9,2.1-2,2.1h-19.6c-1.1,0-2.1-1-2.1-2.1v-3.2
	C1100.4,255,1101.3,254.1,1102.4,254.1z"/>
<path class="st1" d="M1127.3,261.5h19.6c1.1,0,2.1,1,2.1,2.1v3.2c0,1.2-0.9,2.1-2.1,2.1h-19.6c-1.1,0-2-1-2-2.1v-3.2
	C1125.2,262.5,1126.1,261.5,1127.3,261.5z"/>
<path class="st1" d="M1152.1,269h19.6c1.1,0,2.1,1,2.1,2.1v3.2c0,1.2-0.9,2.1-2.1,2.1h-19.6c-1.1,0-2-1-2-2.1v-3.2
	C1150,270,1151,269,1152.1,269z"/>
<path class="st1" d="M1102.4,242.9h19.6c1.1,0,2,1,2,2.1v3.2c0,1.2-0.9,2.1-2,2.1h-19.6c-1.1,0-2.1-1-2.1-2.1V245
	C1100.4,243.8,1101.3,242.9,1102.4,242.9z"/>
<path class="st1" d="M1127.3,250.3h19.6c1.1,0,2.1,1,2.1,2.1v3.2c0,1.2-0.9,2.1-2.1,2.1h-19.6c-1.1,0-2-1-2-2.1v-3.2
	C1125.2,251.3,1126.1,250.3,1127.3,250.3z"/>
<path class="st1" d="M1152.1,257.8h19.6c1.1,0,2.1,1,2.1,2.1v3.2c0,1.2-0.9,2.1-2.1,2.1h-19.6c-1.1,0-2-1-2-2.1v-3.2
	C1150,258.8,1151,257.8,1152.1,257.8z"/>
<path class="st1" d="M1025.2,227.9h19.6c1.1,0,2,1,2,2.1v3.2c0,1.2-0.9,2.1-2,2.1h-19.6c-1.1,0-2.1-1-2.1-2.1V230
	C1023.1,228.9,1024,227.9,1025.2,227.9z"/>
<path class="st1" d="M1050,235.4h19.6c1.1,0,2,1,2,2.1v3.2c0,1.2-0.9,2.1-2,2.1H1050c-1.1,0-2.1-1-2.1-2.1v-3.2
	C1047.9,236.3,1048.9,235.4,1050,235.4z"/>
<path class="st1" d="M1074.8,242.9h19.6c1.1,0,2.1,1,2.1,2.1v3.2c0,1.2-0.9,2.1-2.1,2.1h-19.6c-1.1,0-2-1-2-2.1V245
	C1072.8,243.8,1073.7,242.9,1074.8,242.9z"/>
<path class="st1" d="M1025.2,216.7h19.6c1.1,0,2,1,2,2.1v3.2c0,1.2-0.9,2.1-2,2.1h-19.6c-1.1,0-2.1-1-2.1-2.1v-3.2
	C1023.1,217.7,1024,216.7,1025.2,216.7z"/>
<path class="st1" d="M1050,224.2h19.6c1.1,0,2,1,2,2.1v3.2c0,1.2-0.9,2.1-2,2.1H1050c-1.1,0-2.1-1-2.1-2.1v-3.2
	C1047.9,225.1,1048.9,224.2,1050,224.2z"/>
<path class="st1" d="M1074.8,231.6h19.6c1.1,0,2.1,1,2.1,2.1v3.2c0,1.2-0.9,2.1-2.1,2.1h-19.6c-1.1,0-2-1-2-2.1v-3.2
	C1072.8,232.6,1073.7,231.6,1074.8,231.6z"/>
<path class="st1" d="M1102.4,227.9h19.6c1.1,0,2,1,2,2.1v3.2c0,1.2-0.9,2.1-2,2.1h-19.6c-1.1,0-2.1-1-2.1-2.1V230
	C1100.4,228.9,1101.3,227.9,1102.4,227.9z"/>
<path class="st1" d="M1127.3,235.4h19.6c1.1,0,2.1,1,2.1,2.1v3.2c0,1.2-0.9,2.1-2.1,2.1h-19.6c-1.1,0-2-1-2-2.1v-3.2
	C1125.2,236.3,1126.1,235.4,1127.3,235.4z"/>
<path class="st1" d="M1152.1,242.9h19.6c1.1,0,2.1,1,2.1,2.1v3.2c0,1.2-0.9,2.1-2.1,2.1h-19.6c-1.1,0-2-1-2-2.1V245
	C1150,243.8,1151,242.9,1152.1,242.9z"/>
<path class="st1" d="M1102.4,216.7h19.6c1.1,0,2,1,2,2.1v3.2c0,1.2-0.9,2.1-2,2.1h-19.6c-1.1,0-2.1-1-2.1-2.1v-3.2
	C1100.4,217.7,1101.3,216.7,1102.4,216.7z"/>
<path class="st1" d="M1127.3,224.2h19.6c1.1,0,2.1,1,2.1,2.1v3.2c0,1.2-0.9,2.1-2.1,2.1h-19.6c-1.1,0-2-1-2-2.1v-3.2
	C1125.2,225.1,1126.1,224.2,1127.3,224.2z"/>
<path class="st1" d="M1152.1,231.6h19.6c1.1,0,2.1,1,2.1,2.1v3.2c0,1.2-0.9,2.1-2.1,2.1h-19.6c-1.1,0-2-1-2-2.1v-3.2
	C1150,232.6,1151,231.6,1152.1,231.6z"/>
<ellipse class="st1" cx="1102.7" cy="291.1" rx="121" ry="10.3"/>
<path class="st2" d="M993,137.3c11.4,5.2,18,15.8,18,15.8s-11.9,2.3-23.4-2.8c-11.4-5.1-18-15.8-18-15.8S981.6,132.2,993,137.3z"/>
<path class="st2" d="M1028,117.5c3.5-6,9.5-8.9,9.5-8.9s0.3,6.9-3.2,12.9c-3.5,6-9.5,8.9-9.5,8.9S1024.5,123.5,1028,117.5z"/>
<path class="st3" d="M1002.1,124c2.5,9.4,9.5,15.6,9.5,15.6s2.9-9,0.3-18.4s-9.5-15.6-9.5-15.6S999.5,114.6,1002.1,124z"/>
<path class="st4" d="M1004.4,123.6h197.2c1.1,0,2,0.9,2,2.1v100.8c0,1.1-0.9,2.1-2,2.1h-197.2c-1.1,0-2-0.9-2-2.1V125.7
	C1002.4,124.5,1003.3,123.6,1004.4,123.6z"/>
<path class="st5" d="M1002.4,222.2h201.1l0,0v4.3c0,1.1-0.9,2.1-2,2.1l0,0h-197.2c-1.1,0-2-0.9-2-2.1V222.2L1002.4,222.2z"/>
<path class="st2" d="M1022.7,214.4h13.5c0.4,0,0.7,0.3,0.7,0.7v6.3c0,0.4-0.3,0.7-0.7,0.7h-13.5c-0.4,0-0.7-0.3-0.7-0.7v-6.3
	C1022,214.7,1022.3,214.4,1022.7,214.4z"/>
<path class="st2" d="M1041.6,221h9.1c0.3,0,0.6,0.3,0.6,0.6l0,0c0,0.3-0.2,0.6-0.6,0.6h-9.1c-0.3,0-0.6-0.3-0.6-0.6l0,0
	C1041,221.3,1041.3,221,1041.6,221z"/>
<path class="st2" d="M1032,144.1c7.3,1.4,14.7,0,22-0.9l22-2.9c0.9-0.1,2.2-0.7,2.7,0.5c0.3,0.6,0.1,2,0.1,2.7c0.1,2,0.1,4,0,6
	c-0.1,3.8-0.4,7.7-0.7,11.5c-0.7,7.5-1.6,14.9-2.1,22.5c-0.2,3.8-0.4,7.7-0.3,11.5c0,0.9,0.1,1.8,0.1,2.7c0.1,1,0.5,2.5-0.6,3.2
	c-0.6,0.4-1.8,0.4-2.5,0.5c-1.1,0.2-2.2,0.3-3.3,0.4c-7.4,0.8-14.9,0.5-22.4,0.4l-22.5-0.1l-5.5,0c-0.5,0-2.3,0.3-2.6-0.3
	c-0.1-0.3,0.2-1.5,0.3-1.8c0.1-0.5,0.2-1.1,0.3-1.6c0.6-3.8,1.4-7.5,2.2-11.3c1.6-8,3.3-16.1,4-24.4c0.3-4.1,0.1-8.3,0.5-12.4
	c0.2-1.9,0.4-6.2,2.9-6.3c2.1-0.1,4.2,0,6.3,0c0.2,0,0.4-0.2,0.4-0.4c0-0.2-0.2-0.4-0.4-0.4c-2,0-3.9-0.1-5.9,0
	c-1.3,0-2.2,0.3-2.8,1.6c-1.6,3.2-1.4,7.5-1.5,11c-0.1,8.4-1.4,16.6-3,24.7c-0.8,4.1-1.7,8.2-2.5,12.3c-0.4,2-0.7,3.9-1.1,5.9
	c-0.2,0.9-0.9,3-0.2,3.9c0.7,0.9,2.8,0.4,3.7,0.4l6.6,0l12.6,0.1c8.2,0,16.3,0.3,24.5,0c3.9-0.1,8-0.3,11.8-1.3
	c1.1-0.3,1.7-0.8,1.7-2.1c0.1-1.9-0.2-3.9-0.3-5.9c-0.3-16.7,3.5-33.2,3.1-49.9c0-1.1,0.4-4-0.8-4.7c-0.5-0.3-1.2-0.1-1.8-0.1
	c-1.1,0.1-2.1,0.3-3.2,0.4l-14,1.8c-4.5,0.6-8.9,1.2-13.4,1.7c-4.7,0.6-9.5,0.9-14.2,0C1031.7,143.1,1031.5,144,1032,144.1
	L1032,144.1z"/>
<path class="st2" d="M1023.2,154.3l55.1-2.8c0.5,0,0.5-0.9,0-0.9l-55.1,2.8C1022.7,153.4,1022.7,154.3,1023.2,154.3z"/>
<path class="st2" d="M1040.2,147.1c-0.5,0.6-0.5,1.5,0.1,2c0.1,0.1,0.3,0.2,0.4,0.3c0.7,0.4,1.6,0.1,2.4-0.1
	c1.1-0.3,2.2-0.5,3.3-0.8c2.5-0.5,5-0.7,7.5-0.7c1.1,0,2.3,0,3.4,0.1c0.8,0,1.7,0.1,2.4-0.4c0.8-0.6,1.1-1.8,0.3-2.5
	c-1.1-1-3.5-0.4-4.8-0.3c-4.6,0.4-9.2,1.1-13.8,2.1c-0.5,0.1-0.3,0.9,0.2,0.8c3-0.7,6-1.2,9-1.6c1.5-0.2,3-0.4,4.5-0.5
	c0.7-0.1,1.4-0.1,2.1-0.2c0.3,0,0.6,0,0.8,0c0.9,0,1-0.1,0.5,1c-0.5,1-0.3,0.9-1.1,0.8c-0.3,0-0.7,0-1-0.1c-0.7,0-1.4,0-2.1,0
	c-1.5,0-3,0.1-4.5,0.2c-1.3,0.1-2.5,0.3-3.8,0.5c-0.8,0.1-1.6,0.3-2.3,0.5c-0.3,0.1-0.7,0.2-1,0.3c-0.2,0-0.3,0.1-0.5,0.1
	c-0.6,0.2-1.1-0.1-1.5-0.9C1041.1,147.4,1040.6,146.8,1040.2,147.1L1040.2,147.1z"/>
<path class="st2" d="M1050.2,159.4c-4-0.2-8.3,1-10.9,4.3c-2.1,2.6-3.2,7.1-1.1,10.1c2.3,3.2,7.5,2.6,10.6,1.3
	c3.3-1.4,6.9-4.4,7.8-8.1c1.2-4.6-2.8-8.1-6.9-8.2c-0.5,0-0.5,0.9,0,0.9c2.4,0,4.7,1.1,5.8,3.4c1.2,2.4,0.2,5-1.4,6.9
	c-2.5,3.1-6.3,5.4-10.3,5.3c-2.4,0-5-0.9-5.7-3.5c-0.6-2.1-0.1-4.4,0.9-6.3c2.3-4,6.9-5.4,11.1-5.2
	C1050.7,160.3,1050.7,159.4,1050.2,159.4L1050.2,159.4z"/>
<path class="st2" d="M1046.2,165.8c-0.6-0.2-1.2,0.1-1.4,0.7c-0.1,0.2-0.1,0.3-0.1,0.5c0.1,1.1,1.3,1.4,2.2,1.4
	c0.8-0.1,1.7-0.4,1.4-1.4c-0.1-0.4-0.3-0.7-0.7-0.8c-0.2-0.1-0.5-0.1-0.8-0.1c-0.1,0-1,0.4-0.6-0.1l-0.7-0.1
	c0.1,0.2,0.2,0.4,0.2,0.6c0,0.2,0.2,0.4,0.4,0.4c0.1,0,0.1,0,0.2-0.1c0.3-0.1,0.6,0,0.7,0.3c0,0.1,0.1,0.2,0,0.4
	c-0.1,0.2,0.1,0.5,0.3,0.5c0.2,0,0.3,0,0.4-0.2c0.3-0.5,0.6-1.5,0.2-2.1c-0.3-0.4-0.8-0.3-1.1,0c-0.2,0.2-0.4,0.3-0.6,0.5
	c-0.3,0.3-0.6,0.5-0.4-0.1c0.2-1.1,1.2-1.9,2.1-2.4l-0.6-0.5c-0.3,1.2-0.9,2.4-1.7,3.4l0.7,0.3c0-0.8,0.4-1.6,1.1-1.9h-0.4l0.2,0.4
	c-0.1,0.5,0.7,0.8,0.8,0.2c0.1-0.7-0.3-1.6-1.1-1.3c-1,0.4-1.4,1.5-1.4,2.6c0,0.3,0.5,0.6,0.7,0.3c0.9-1.1,1.5-2.4,1.9-3.8
	c0.1-0.2-0.1-0.5-0.3-0.5c-0.1,0-0.2,0-0.3,0c-0.8,0.4-1.5,1-2,1.8c-0.3,0.6-0.8,1.5-0.4,2.1c0.2,0.4,0.8,0.6,1.2,0.4c0,0,0,0,0,0
	c0.3-0.2,0.5-0.4,0.7-0.6c0.1-0.1,0.2-0.3,0.4-0.3c0.1-0.1,0.1,0,0,0.2c0,0.3-0.1,0.6-0.2,0.8l0.8,0.3c0.2-0.8-0.2-1.6-1-1.8
	c-0.3-0.1-0.7-0.1-1,0.1l0.6,0.4c0-0.4-0.1-0.7-0.3-1c-0.1-0.2-0.4-0.3-0.6-0.1c0,0-0.1,0-0.1,0.1c-0.4,0.5-0.5,1.2,0,1.7
	c0.4,0.3,0.6,0,1-0.1c1.5-0.2,0.6,0.5,0.1,0.5c-0.2,0-0.5,0-0.7-0.1c-0.6-0.2-0.6-0.5-0.1-0.8C1046.5,166.9,1046.7,166,1046.2,165.8
	L1046.2,165.8z"/>
<path class="st2" d="M1045.5,167.4c0.3,1.1-1.1,1.5-1.7,1.9c-0.5,0.3-0.9,0.6-1.2,1.1c-0.7,1-1,2.2-1.2,3.4
	c-0.1,0.5,0.7,0.8,0.8,0.2c0.1-0.9,0.4-1.7,0.7-2.5c0.5-1,1.2-1.4,2.1-1.9c0.9-0.5,1.6-1.3,1.3-2.5
	C1046.2,166.6,1045.4,166.8,1045.5,167.4L1045.5,167.4z"/>
<path class="st2" d="M1046.9,166.8c-0.4,0.1-0.7,0.4-0.7,0.9c0,0.3,0.2,0.6,0.4,0.8c0.4,0.6,0.6,1.2,0.8,1.8c0.1,0.6,0.3,1.7,0,2.3
	c-0.6,1.1-1.6,0.9-2.5,0.9c-0.8,0-1.5,0.3-1.4-0.9c0-0.7,0.5-1.4,0.8-1.9l-0.8-0.1c0.2,0.9,0.2,1.8,0.3,2.7c0,0.4,0.6,0.6,0.8,0.2
	c0.4-1,0.8-2,1.1-3l-0.8-0.1l0.1,2.2c0,0.2,0.2,0.4,0.4,0.4c0.1,0,0.3-0.1,0.3-0.2c0.1-0.1,0.2-0.2,0.2-0.4c0-0.1-0.2-1-0.3-0.7
	l0.8,0.1l0.1-2.1l-0.8,0.1c0.2,0.6,0.2,1.2,0.2,1.8c-0.1,0.5,0.7,0.6,0.8,0.1l0.5-2.8l-0.8,0.1c0.2,0.4,0.2,0.8,0.1,1.2
	c-0.1,0.6,0.8,0.5,0.8,0c0.1-0.6,0-1.2-0.3-1.7c-0.1-0.2-0.4-0.3-0.6-0.1c-0.1,0.1-0.2,0.1-0.2,0.2l-0.5,2.8l0.8,0.1
	c0.1-0.7,0-1.4-0.2-2c-0.1-0.2-0.3-0.4-0.5-0.3c-0.2,0.1-0.3,0.2-0.3,0.4l-0.1,2.1c0,0.5,0.7,0.6,0.8,0.1l0-0.1c0-0.1,0-0.3-0.1-0.4
	c-0.9-1-1,0.6-1.3,1l0.8,0.2l-0.1-2.2c0-0.5-0.7-0.6-0.8-0.1c-0.2,1-0.6,1.9-1,2.8l0.8,0.2c0-1-0.1-1.9-0.3-2.9
	c-0.1-0.4-0.6-0.4-0.8-0.1c-0.6,0.8-1.5,2.6-0.8,3.6c0.6,0.9,2.7,0.5,3.5,0.5c1.4-0.1,1.9-1,2-2.3c0.1-0.6,0-1.3-0.1-1.9
	c-0.1-0.3-0.8-2.5-1.1-2.4C1047.7,167.5,1047.5,166.7,1046.9,166.8L1046.9,166.8z"/>
<path class="st2" d="M1045.3,168.7l-2.3,3.1l0.7,0.4l1.7-2.5l-0.8-0.3l-0.8,3.3c-0.1,0.2,0.1,0.5,0.3,0.5c0.2,0,0.3,0,0.4-0.2
	c0.4-0.6,0.8-1.3,1.3-1.8l-0.7-0.4c-0.2,0.7-0.5,1.4-1,2l0.7,0.4c0-0.4,0.1-0.8,0.3-1.1c0.2-0.5-0.5-0.9-0.7-0.4
	c-0.2,0.5-0.5,0.9-0.8,1.3l0.8,0.1l0.2-0.8l-0.8-0.1l0.1,0.7c0.1,0.2,0.3,0.4,0.5,0.3c0.1,0,0.1-0.1,0.2-0.1
	c0.7-0.8,1.3-1.6,1.7-2.6h-0.7c0.2,0.4,0.3,0.7,0.4,1.1c0.1,0.5,0.8,0.3,0.8-0.1c0.1-1,0.2-1.9,0.2-2.9h-0.8v1.8
	c0,0.5,0.7,0.6,0.8,0.1c0.1-0.4,0.2-0.9,0.4-1.2h-0.7c0.2,0.3,0.3,0.6,0.3,1c0,0.2,0.2,0.4,0.4,0.4c0.2,0,0.4-0.2,0.4-0.4l0.1-0.6
	h-0.8c0.1,0.5,0.4,3.4-0.7,3c-0.2,0-0.2,0-0.2,0l0.2-0.5l0.6-1.3l-0.8-0.2c0,0.6,0.1,1.4-0.2,1.9c-0.3,0.4-1.1,0.6-1.6,0.3
	c-0.3-0.2-0.5-0.5-0.7-0.8l-0.6,0.6c0.5,0.3,1.2,1.2,1.8,1.3c0.4,0,0.8-0.4,1.1-0.7c0.9-1,1.4-2.3,1.3-3.7c0-0.2-0.2-0.4-0.4-0.4
	c-0.2,0-0.4,0.2-0.4,0.4v1c0,0.2,0.2,0.4,0.4,0.4c0.2,0,0.4-0.2,0.4-0.4v-2.4c0-0.2-0.2-0.4-0.4-0.4c-0.2,0-0.4,0.2-0.4,0.4
	c0,0.6,0,1.2-0.1,1.7l0.8,0.1c-0.1-0.7-0.1-1.4-0.1-2.1c0-0.2-0.2-0.4-0.4-0.4c-0.2,0-0.3,0.1-0.4,0.3c-0.1,0.5-0.3,1.1-0.4,1.6
	l0.8-0.1l-0.1-0.2c0-0.5-0.9-0.6-0.8,0c0,0.2,0.1,0.5,0.2,0.7c0.2,0.4,0.7,0.2,0.8-0.1c0.2-0.5,0.3-1.1,0.4-1.6l-0.8-0.1
	c0,0.7,0,1.4,0.1,2.1c0,0.4,0.7,0.6,0.8,0.1c0.1-0.6,0.2-1.3,0.2-2h-0.8v2.4h0.8v-1h-0.8c0,1.1-0.3,2.1-1,3
	c-0.1,0.1-0.2,0.2-0.3,0.4c-0.2,0.2-0.4,0.2-0.5-0.1c-0.4-0.2-0.8-0.6-1.1-0.9c-0.3-0.3-0.8,0.3-0.6,0.6c0.6,0.9,1.6,1.9,2.8,1.4
	c1.2-0.5,1.4-2.2,1.3-3.4c0-0.4-0.6-0.6-0.8-0.2c-0.3,0.6-0.6,1.2-0.8,1.8c-0.1,0.2-0.3,0.5-0.2,0.8c0.1,0.6,0.8,0.5,1.3,0.5
	c1.8-0.1,1.5-2.8,1.3-4.1c-0.1-0.4-0.7-0.4-0.8,0c-0.1,0.3-0.1,0.5-0.1,0.8h0.8c0-0.5-0.2-1-0.4-1.4c-0.1-0.2-0.4-0.3-0.6-0.1
	c-0.1,0-0.1,0.1-0.1,0.1c-0.2,0.4-0.4,0.9-0.5,1.4l0.8,0.1v-1.8c0-0.2-0.2-0.4-0.4-0.4c-0.2,0-0.4,0.2-0.4,0.4c0,1-0.1,1.9-0.2,2.9
	l0.8-0.1c-0.1-0.5-0.3-0.9-0.5-1.3c-0.1-0.2-0.4-0.3-0.6-0.1c-0.1,0-0.1,0.1-0.1,0.1c-0.4,0.9-0.9,1.7-1.5,2.4l0.7,0.2l-0.1-0.7
	c-0.1-0.4-0.6-0.4-0.8-0.1c-0.3,0.4-0.4,1-0.3,1.5c0.1,0.4,0.6,0.4,0.8,0.1c0.3-0.4,0.6-0.8,0.8-1.3l-0.7-0.4
	c-0.2,0.4-0.3,0.9-0.4,1.4c0,0.4,0.4,0.8,0.7,0.4c0.6-0.7,1-1.5,1.3-2.4c0.1-0.4-0.4-0.8-0.7-0.4c-0.5,0.6-1,1.3-1.4,2l0.8,0.3
	l0.8-3.3c0.1-0.2-0.1-0.5-0.3-0.5c-0.2,0-0.3,0-0.4,0.2l-1.7,2.5c-0.3,0.5,0.4,0.9,0.7,0.4l2.3-3.1
	C1046.4,168.7,1045.7,168.3,1045.3,168.7L1045.3,168.7z"/>
<path class="st2" d="M1080.5,179.1c3.3-2.1,5.9-5.3,8.9-7.9c3.2-2.9,6.5-5.5,9.9-8c6.7-4.9,13.7-9.3,20.6-13.6
	c0.2-0.1,0.3-0.4,0.1-0.6c-0.1-0.2-0.4-0.3-0.5-0.1c-7,4.4-14,8.7-20.6,13.6c-3.1,2.3-6.2,4.7-9.2,7.3c-3.2,2.8-6.1,6.3-9.7,8.6
	C1079.6,178.6,1080.1,179.4,1080.5,179.1L1080.5,179.1z"/>
<path class="st2" d="M1130.7,136.2c-3.6,0.4-7.4,1.3-9.7,4.6c-1.9,2.8-1.9,7.7-0.1,10.6c2,3.3,6.2,3.4,9.4,2.3
	c3.2-1.1,6.6-2.9,6.5-6.9c0-2.2-0.8-4.4-1.6-6.4c-0.7-1.7-2-3.2-3.9-3c-0.5,0.1-0.5,0.9,0,0.9c2.6-0.2,3.4,2.9,4,4.9
	c0.6,1.9,1.1,4.1,0.2,5.9s-3,2.8-4.7,3.5c-1.9,0.7-4.1,1.2-6.1,0.6c-4-1.2-5.1-6.4-3.9-10.2c1.3-4.3,6-5.6,9.8-6
	C1131.2,137,1131.2,136.1,1130.7,136.2L1130.7,136.2z"/>
<path class="st2" d="M1136.2,169.5c-3.6,0.4-7.4,1.3-9.7,4.6c-1.9,2.8-1.9,7.7-0.1,10.6c2,3.3,6.2,3.4,9.4,2.3s6.6-2.9,6.5-6.9
	c0-2.2-0.8-4.4-1.6-6.4c-0.7-1.7-2-3.2-3.9-3c-0.5,0.1-0.5,0.9,0,0.9c2.6-0.2,3.4,2.9,4,4.9c0.6,1.9,1.1,4.1,0.2,5.9s-3,2.8-4.7,3.5
	c-1.9,0.7-4.1,1.2-6.1,0.6c-4-1.2-5.1-6.4-3.9-10.2c1.3-4.3,6-5.6,9.8-6C1136.7,170.3,1136.7,169.5,1136.2,169.5L1136.2,169.5z"/>
<path class="st2" d="M1125.2,144.6l2.6,3.1c0.2,0.2,0.4,0.2,0.6,0c0-0.1,0.1-0.1,0.1-0.2c0.6-1.5,0.4-3.1,0.6-4.7
	c0.1-1.6,0.5-3.3,1.2-4.8c1.3-3.1,3.4-5.6,6.2-7.4c0.5-0.3,0-1-0.4-0.7c-2.7,1.7-4.9,4.2-6.2,7.1c-0.7,1.4-1.1,3-1.4,4.6
	c-0.3,1.9,0,3.8-0.7,5.6l0.7-0.2l-2.6-3.1C1125.5,143.6,1124.9,144.2,1125.2,144.6L1125.2,144.6z"/>
<path class="st2" d="M1081.9,182.5c14.2-0.5,28.5-0.5,42.7-0.3c0.5,0,0.5-0.9,0-0.9c-14.2-0.3-28.5-0.2-42.7,0.3
	C1081.3,181.6,1081.3,182.5,1081.9,182.5z"/>
<path class="st2" d="M1127.5,174c4.9,2,9.5,4.4,14,7.3c0.5,0.3,0.9-0.5,0.4-0.7c-4.5-2.9-9.2-5.4-14.2-7.4
	C1127.3,172.9,1127.1,173.8,1127.5,174L1127.5,174z"/>
<path class="st2" d="M1136.4,170.1c-4.9,6-7.8,13.5-8.1,21.4c0,0.6,0.8,0.6,0.8,0c0.3-7.7,3.1-15,7.9-20.8
	C1137.3,170.2,1136.7,169.6,1136.4,170.1L1136.4,170.1z"/>
<path class="st2" d="M1026,179.3l30.8-0.4l3.5,0c0.6,0,1.3,0,1.9,0c0.9,0,1.5,0.8,1.5,1.7c0,2-1.3,1.9-2.8,2l-3.8,0.2l-15.6,0.7
	c-2.8,0.1-5.6,0.3-8.4,0.4c-2.5,0.1-7.3-0.8-6.2-4.6c0.2-0.5-0.6-0.8-0.8-0.2c-0.6,1.9,0.4,3.8,2,4.8c2.2,1.4,5.2,0.9,7.6,0.8
	l19.2-0.9l4.7-0.2c1.2-0.1,2.9,0.2,3.9-0.4c1.3-0.7,1.5-3.4,0.7-4.5c-0.4-0.6-1-0.6-1.7-0.7c-1.7-0.1-3.5,0-5.2,0.1l-9.6,0.1
	l-21.8,0.3C1025.5,178.5,1025.5,179.3,1026,179.3L1026,179.3z"/>
<g id="b30eccf6-7cfe-48df-9caa-415a128bd568">
	<path class="st6" d="M1150.6,285c-0.7,0.5-1.5,0.7-2.2,1.1c-0.7,0.4-1.4,1-1.6,1.8c-0.1,0.3-0.1,0.5,0,0.8c0.2,0.3,0.5,0.5,0.8,0.6
		c2.9,1.4,6.3,1.4,9.3,0.1c0.5-0.3,1.1-0.5,1.6-0.7c0.7-0.1,1.4-0.2,2.1-0.2c0.7,0,1.4-0.1,2.2-0.3c0.4,0,0.7-0.2,1-0.4
		c0.3-0.3,0.4-0.7,0.4-1.1c0.3-2.2-0.2-4.5-1.4-6.4c-0.2-0.3-0.4-0.5-0.6-0.7c-0.3-0.2-0.6-0.3-1-0.3c-1.4-0.2-2.8-0.5-4.2-0.5
		c-1,0-1.5,0.5-2.2,1.2C1153.3,281.6,1152.4,283.8,1150.6,285z"/>
	<path class="st6" d="M1171,284.7c0,1.4,0.2,2.9,1,4c0.4,0.5,0.8,0.9,1.3,1.2c1.7,1.1,4,1.6,5.9,0.6c0.3-0.1,0.5-0.4,0.7-0.6
		c0.3-0.5,0.1-1.1,0-1.7l-2.6-9.5c-1.7,0.3-4.2,0.5-5.7,1.4C1170.4,280.8,1171,283.5,1171,284.7z"/>
	<path class="st7" d="M1149.1,226c-0.2,0.5-0.7,0.8-1.1,1.2c-0.4,0.5-0.3,1.2-0.2,1.9c0.2,0.9,0.6,1.8,1.2,2.5
		c0.6,0.7,1.6,1,2.5,0.9c0.9-0.2,1.7-1,1.7-1.9c0-0.4-0.1-0.8-0.3-1.2l-1.9-5.7c0-0.1-0.1-0.2-0.1-0.2c-0.1,0-0.1,0-0.2,0
		c-0.4,0.2-1.3,0.4-1.6,0.9C1148.9,224.8,1149.3,225.5,1149.1,226z"/>
	<path class="st6" d="M1148.2,225.7c0.7-0.1,1.3-0.5,1.9-0.8c0.6-0.3,1.4-0.4,2,0.1c0.2,0.1,0.3,0.3,0.5,0.3
		c-0.3-1.4-0.7-2.8-1.2-4.1c0-0.1-0.1-0.1-0.1-0.2c-0.1,0-0.2,0-0.2,0l-1.9,0.5c-0.7,0.2-0.8,0.1-0.7,0.8
		C1148.5,222.7,1148.6,225.7,1148.2,225.7z"/>
	<path class="st8" d="M1148,184.8c-0.3,0.4-0.3,1-0.3,1.5c0,2.5,0,5.1,0.4,7.6c0.1,0.6,0.2,1.2,0.2,1.8c0.1,0.8,0.1,1.7,0,2.5
		l-0.3,11.1c0,1.4-0.1,2.8-0.9,3.9c-0.2,0.4-0.4,0.8-0.3,1.2c0.2,2.8,0.7,5.5,1.1,8.3c1.4-0.7,3.1-0.6,4.5,0.2
		c1.4-4.6,2.2-9.3,2.3-14.1c0.1-2.4,0-4.7,0.3-7c0.6-3.9,0.3-7.9-0.1-11.9c-0.1-1.2-0.4-2.5-1.2-3.5c-0.7-0.8-1.7-1.4-2.8-1.7
		C1150,184.5,1149.1,184.8,1148,184.8z"/>
	<path class="st5" d="M1148,184.8c-0.3,0.4-0.3,1-0.3,1.5c0,2.5,0,5.1,0.4,7.6c0.1,0.6,0.2,1.2,0.2,1.8c0.1,0.8,0.1,1.7,0,2.5
		l-0.3,11.1c0,1.4-0.1,2.8-0.9,3.9c-0.2,0.4-0.4,0.8-0.3,1.2c0.2,2.8,0.7,5.5,1.1,8.3c1.4-0.7,3.1-0.6,4.5,0.2
		c1.4-4.6,2.2-9.3,2.3-14.1c0.1-2.4,0-4.7,0.3-7c0.6-3.9,0.3-7.9-0.1-11.9c-0.1-1.2-0.4-2.5-1.2-3.5c-0.7-0.8-1.7-1.4-2.8-1.7
		C1150,184.5,1149.1,184.8,1148,184.8z"/>
	<path class="st9" d="M1151.4,216.9c-1.9,9.9-0.8,20.1,2.9,29.4c0.3,0.7,0.6,1.4,0.7,2.2c0.2,1.4-0.5,2.8-0.8,4.1
		c-0.8,3.1-0.4,6.4,0.2,9.6c0.2,1.3,0.4,2.6,0.7,4c0.2,1.3,0.4,2.7-0.1,3.9c0.5,2.1,0.8,4.3,1.3,6.4c0.1,0.2,0.1,0.3,0,0.5
		c-0.1,0.3-0.3,0.5-0.5,0.7c-0.7,0.8-1,1.9-0.8,3c1.3-0.9,3-0.6,4.5,0c1.4,0.6,2.9,1.4,4.4,1.4c-0.2-1.9-0.4-3.9,0.2-5.7
		c0.4-1,1.1-2,1.1-3.1c0-1-0.6-1.9-0.7-2.9c-0.1-0.6,0-1.2,0.1-1.8c0.4-3.5,0-7.1-0.5-10.6c0-0.7-0.2-1.4-0.5-2
		c-0.2-0.4-0.5-0.8-0.5-1.3c0-0.5,0.4-1,0.6-1.5c0.3-0.9-0.2-2.2,0.5-2.8c2-1.5,1.2-5.2,1.2-7.8c0-2.2-0.1-4.5-0.3-6.7
		c1.3,3.7,1.8,7.7,1.5,11.6c-0.1,1.3-0.3,2.6,0.2,3.8c0.4,0.9,1.1,1.7,1.3,2.6c0.1,0.6,0,1.2,0.1,1.8c0,0.6,0.2,1.3,0.7,1.6
		c0,2.8,0.3,5.7,0.3,8.5c0,1.4,0.1,2.8,0.3,4.2c0.1,0.4,0.2,0.9,0.2,1.4c-0.1,0.6-0.2,1.1-0.4,1.7c-1,3-0.5,6.3,1.4,8.9
		c0.7-1.2,2-1.8,3.3-1.9c1.3-0.1,2.6,0.2,3.9,0.6c-0.2-1.7,0.1-3.4,0.9-4.9c0.2-0.3,0.4-0.7,0.5-1.1c0.1-0.7-0.2-1.5-0.4-2.2
		c-0.3-1.1-0.2-2.4-0.1-3.6c0.2-4,0.1-8.1-0.5-12c-0.1-0.8-0.3-1.6-0.5-2.3c-0.1-0.3-0.2-0.5-0.3-0.8c-0.1-0.5-0.2-1-0.2-1.5
		l-0.3-4.6c-0.2-3.2,0.8-6.4,1.5-9.5c0.3-1.4,0.7-2.8,0.9-4.2c0.3-1.9,0.3-3.9,0.8-5.9c0.4-1.7,1.1-3.4,1.2-5.2
		c0.2-2.7-0.9-5.4-1.9-7.9c-0.4-1-2.1-0.9-3.2-1.1c-7.6-1.3-15.6-1.3-22.8,1.6C1152.6,215.8,1151.9,216.3,1151.4,216.9z"/>
	<path class="st7" d="M1156.8,165.9l0.8,3.4c0.2,0.8,0.4,1.6,0.4,2.4c0,0.3-0.1,0.6-0.2,0.9c-0.1,0.2-0.3,0.4-0.5,0.6
		c-0.6,0.5-1,1.5-1.6,1.8c0.3,0.6,0.8,0.2,1.4,0.5c1.1,0.5,2.1,1.3,3.2,1.6c1.1,0.3,2.3,0,3.4-0.3c1.6-0.4,3.1-1,4.3-2.1
		c1.2-1.1,2-2,2-3.7c-1.4,0.2-2.6-1.3-3.2-2.6c-0.2-0.5-0.4-1-0.5-1.5l-0.7-3.4c-0.8,0.2-1.5,0.8-2.2,1.1c-0.8,0.3-1.7,0.3-2.5,0.4
		c-1.5,0.1-3,0.3-4.5,0.6c-0.2,0-0.5,0.2-0.4,0.4"/>
	<path class="st5" d="M1156.8,165.9l0.8,3.4c0.2,0.8,0.4,1.6,0.4,2.4c0,0.3-0.1,0.6-0.2,0.9c-0.1,0.2-0.3,0.4-0.5,0.6
		c-0.6,0.5-1,1.5-1.6,1.8c0.3,0.6,0.8,0.2,1.4,0.5c1.1,0.5,2.1,1.3,3.2,1.6c1.1,0.3,2.3,0,3.4-0.3c1.6-0.4,3.1-1,4.3-2.1
		c1.2-1.1,2-2,2-3.7c-1.4,0.2-2.6-1.3-3.2-2.6c-0.2-0.5-0.4-1-0.5-1.5l-0.7-3.4c-0.8,0.2-1.5,0.8-2.2,1.1c-0.8,0.3-1.7,0.3-2.5,0.4
		c-1.5,0.1-3,0.3-4.5,0.6c-0.2,0-0.5,0.2-0.4,0.4"/>
	<ellipse class="st7" cx="1160.5" cy="160.1" rx="7.3" ry="7.6"/>
	<path class="st6" d="M1162.5,172.7c0.4-0.9,1-1.7,1.7-2.3c1-0.9,2.4-1.7,2.7-3.1l2.2,2.7c0.1,0.1,0.2,0.3,0.3,0.4
		c0.1,0.3,0,0.6-0.2,0.9c-0.6,0.9-1.4,1.6-2.2,2.2c-1.9,1.6-3.7,3.2-5.4,5c-0.1,0.1-0.2,0.2-0.3,0.2c-0.1,0-0.2,0-0.3-0.1
		c-1.5-0.8-2.8-1.9-3.9-3.3c-0.1-0.1-0.2-0.2-0.3-0.2c-0.1,0-0.2,0.1-0.2,0.1c-0.7,0.6-1.6,1.4-2.5,1.3c1.2-0.9,1.9-2.5,2.2-4
		c0.1-0.5,0.2-1.1,0.3-1.6c0.2-0.5,0.6-0.9,1.1-1.1c-0.6,1-0.2,2.3,0.6,3.1c0.8,0.7,1.7,1.2,2.7,1.4
		C1161.9,174.5,1162.1,173.4,1162.5,172.7z"/>
	<path class="st6" d="M1153,217.7c1,0.3,2,0.7,3,1.1c1.8,0.6,3.8,0.8,5.7,0.6c0.6,0,1.2-0.2,1.7-0.5c0.1-0.1,0.2-0.2,0.4-0.3
		c0.2-0.1,0.5-0.3,0.7-0.3c2.5-0.8,4.6-2.6,6.7-4.3c0.1-0.1,0.1-0.1,0.1-0.2c0-0.1,0-0.1-0.1-0.2l-1.1-1.3c-2.8,0.5-5.7,0.3-8.6,0.2
		c-0.6,0-1.2,0-1.8,0c-0.6,0.1-1.1,0.2-1.7,0.3c-2.1,0.5-4.3,0.7-6.5,1c-0.2,0-0.3,0.1-0.4,0.1c-0.1,0.1-0.2,0.2-0.2,0.3l-0.8,1.1
		c-0.3,0.4-0.5,0.8-0.6,1.3c-0.2,0.9,0.2,1.1,0.9,1C1151.3,217.4,1152.2,217.4,1153,217.7z"/>
	<path class="st8" d="M1161.4,177.2c-0.8-0.9-1.8-1.7-2.8-2.3c-0.4-0.3-0.9-0.5-1.4-0.6c-0.5-0.1-1,0-1.4,0.4
		c-0.2,0.2-0.4,0.5-0.6,0.8c-0.3,0.3-0.6,0.5-1,0.6c-1.3,0.6-2.4,1.3-3.5,2.1c-0.6,0.4-1.1,1-1.6,1.5c-1.2,1.7-1.4,3.9-1.4,6
		c0,1.5,1.4,2.6,2.3,3.7c0.9,1.1,1.7,2.2,2.4,3.4c0.5,0.8,1,1.7,1,2.7c-0.1,0.8-0.5,1.6-0.4,2.4c0,0.3,0.1,0.6,0.1,0.8
		c0,0.6-0.2,1.1-0.2,1.7c-0.1,0.8,0.2,1.6,0.2,2.4c0,0.6-0.1,1.1-0.2,1.7c-0.5,2.6-1.2,5.3-1.1,7.9l-1.5,0.3c0.5,0.5,0.5,1.4,0,1.9
		c-0.1,0.1-0.2,0.2-0.3,0.2c2.4,0.8,5,0.4,7.5,0.4c2.1,0,4.2,0.3,6.3,0.2c2.1,0,4.2-0.4,6-1.7c0.5-0.3,0.9-0.7,1.4-1
		c0.7-0.4,1.4-0.6,2.1-0.7c1.4-0.3,2.8-0.4,4.1-0.4c0.7,0,1.4,0,2-0.4c0.6-0.5,0.7-1.3,0.8-2.1c0.1-0.8,0.1-1.6,0.1-2.5
		c0-0.6,0-1.3-0.1-1.9c-0.1-0.5-0.2-0.9-0.3-1.4l-1-3.8c-0.4-1.6,0.2-3.3,0.3-4.9c0-0.4,0-0.8-0.2-1.1c-0.1-0.1-0.2-0.1-0.3-0.3
		c0-0.1,0-0.3,0.1-0.4c0.6-1.1,1.4-2.2,2.1-3.2c1.3-1.8,2.4-3.7,3.5-5.7c-0.3-4.1-2-7.9-4.7-10.9c-0.6-0.6-1.2-1.2-2-1.5
		c-0.5-0.2-1-0.2-1.6-0.3c-2.2-0.2-4.4-0.3-6.3-1.4c-0.1-0.1-0.3-0.2-0.4-0.2c-0.4,0-0.7,0.4-1,0.7c-0.7,0.9-1.7,1.4-2.6,2
		C1164,173.9,1162.6,175.5,1161.4,177.2z"/>
	<path class="st8" d="M1184.4,185.5c0.4,1.4,0.4,2.9,0.5,4.4c0.1,0.9,0.2,1.8,0.4,2.6c0.1,0.5,0.3,0.9,0.5,1.3
		c0.2,0.4,0.6,0.7,0.8,1.1c0.1,0.3,0.1,0.6,0.1,0.9l0,2c0.1,1.1-0.1,2.1-0.4,3.1l-1.2,3.8c-0.6,2-1.3,4.1-2.5,5.9
		c-0.2,0.3-0.4,0.5-0.7,0.7c-0.2,0.1-0.5,0.1-0.7,0.1c-0.9,0.2-1.5,0.9-1.5,1.9c-0.3-0.4-0.6-0.8-1-1.1l-2.4-2
		c-0.8-0.7-1.7-1.4-2.7-1.8c2.8-0.9,4.8-3.4,5.1-6.4c0-0.4,0.1-0.9,0.3-1.3c0.2-0.3,0.6-0.6,0.6-1c0-0.5-0.5-0.9-0.5-1.4
		c0-0.3,0.2-0.6,0.3-0.9c0.1-0.4,0.1-0.8,0-1.2l-0.3-1.9c0-0.2-0.1-0.4-0.2-0.6c-0.1-0.2-0.3-0.3-0.4-0.5c-0.6-0.7-0.3-1.7,0-2.5
		c0.7-1.8,1.7-3.6,2.8-5.2c0.4-0.5,0.8-1.1,1.1-1.7c0.3-0.5,0.4-1.3,0.7-1.7C1183.5,183.3,1184,184.3,1184.4,185.5z"/>
	<path class="st6" d="M1173.5,208.5c-0.1,0.1-0.2,0.2-0.3,0.3c-0.3,0.4-0.8,0.7-1.2,0.9c0.3,0.2,0.5,0.4,0.8,0.6
		c1.9,1.5,3.7,3.3,5.2,5.2c0.2-0.6,1.2-0.6,1.5-1.2c0.1-0.2,0.1-0.4,0.1-0.6c-0.1-1-0.2-1.9-0.4-2.9c-0.1-0.5-0.3-0.9-0.6-1.3
		c-0.4-0.5-1-0.7-1.6-0.9C1176.1,208.4,1174.4,207.9,1173.5,208.5z"/>
	<path class="st7" d="M1170.1,210.7c-0.8,0.6-1.6,1.4-2.5,1.9c-0.7,0.3-1.4,0.4-2,0.9c0.3,0.7,1.1,1.1,1.9,1.1
		c0.8-0.1,1.5-0.4,2.1-0.8c0.5-0.3,1.1-0.7,1.6-0.5c0.1,0.4-0.3,0.8-0.3,1.3s0.4,0.8,0.7,1c1.7,1.1,3.8,1,5.8,0.9
		c0.1,0,0.2,0,0.3-0.1c0.1-0.1,0.1-0.2,0.1-0.4c0-0.5,0-0.9,0-1.4c0.1-0.7-0.2-1.5-0.8-1.9c-1.1-1-2.2-1.8-3.4-2.5
		C1172.4,209.5,1171.2,209.9,1170.1,210.7z"/>
	<path class="st9" d="M1163,157c-1.2,0.2-2.1,1.1-2,2.2c0.1,1.1,1.2,1.8,2.4,1.7c1.2-0.2,2.1-1.1,2-2.2
		C1165.4,157.5,1164.3,156.8,1163,157z M1163.5,160.6c-1,0.1-2-0.5-2.1-1.4c-0.1-0.9,0.7-1.8,1.7-1.9s2,0.5,2.1,1.4
		C1165.2,159.6,1164.5,160.4,1163.5,160.6L1163.5,160.6z"/>
	<path class="st9" d="M1157.1,157.7c-1.2,0.2-2.1,1.1-2,2.2c0.1,1.1,1.2,1.8,2.4,1.7c1.2-0.2,2.1-1.1,2-2.2
		C1159.4,158.3,1158.3,157.5,1157.1,157.7z M1157.5,161.3c-1,0.1-2-0.5-2.1-1.4s0.6-1.8,1.7-1.9c1-0.1,2,0.5,2.1,1.4
		C1159.3,160.3,1158.5,161.2,1157.5,161.3L1157.5,161.3z"/>
	<polygon class="st9" points="1152.6,158.3 1155.3,158.8 1155,159.6 1152.5,158.8 	"/>
	<polygon class="st9" points="1167.5,156.4 1165,157.6 1165.4,158.3 1167.7,156.9 	"/>
	<polygon class="st9" points="1159.3,158.7 1161.1,158.4 1161,158.9 1159.4,159 	"/>
	<path class="st10" d="M1155.6,158c0.2-0.4,0.3-0.8,0.3-1.3c0-0.3,0-0.5,0.1-0.8c0.1-0.3,0.3-0.6,0.6-0.8c0.9-0.8,2.1-1.1,3.3-1.2
		c1.3-0.1,2.6,0.2,3.8,0.9c0.4,0.2,0.7,0.4,1,0.7c0.4,0.5,0.5,1.1,0.9,1.6c0.5,0.6,1.3,0.9,2.1,0.7c0.1-0.5,0-1,0-1.5
		c0.1-0.4,0.3-0.9,0.4-1.3c0.4-1.3-0.2-2.8-1.5-3.6c-0.4-0.3-1-0.5-1.3-0.9s-0.4-0.8-0.6-1.2c-0.6-1-2.2-1.5-3.4-1
		c-0.4,0.1-0.7,0.4-1.1,0.5c-0.7,0.3-1.5,0.4-2.3,0.5c-0.8,0.1-1.5,0.3-2.3,0.6c-0.7,0.4-1.3,0.9-1.4,1.6c-0.1,0.3-0.1,0.6-0.1,0.9
		c-0.4,1.6-2.8,2.3-3,3.9c0,0.6,0.3,1.1,0.6,1.6c0.3,0.3,0.9,1.2,1.3,1.3c0.4,0.1,0.8-0.3,1.2-0.5
		C1154.9,158.6,1155.3,158.6,1155.6,158z"/>
</g>
<path class="st3" d="M1186.8,259.2c0,14.4,8.7,26.1,19.4,26.1"/>
<path class="st2" d="M1206.2,285.4c0-14.6,9.7-26.4,21.7-26.4"/>
<path class="st2" d="M1193.8,260.5c0,13.7,5.5,24.8,12.4,24.8"/>
<path class="st3" d="M1206.2,285.4c0-18.7,11.2-33.8,25.1-33.8"/>
<ellipse class="st1" cx="1205.4" cy="289.5" rx="4.8" ry="0.9"/>
<path class="st11" d="M1202.1,285.5c0,0,2.8-0.1,3.6-0.7c0.8-0.6,4.2-1.4,4.4-0.4c0.2,1,4.1,4.9,1,4.9c-3.1,0-7.2-0.5-8.1-1
	C1202.3,287.9,1202.1,285.5,1202.1,285.5z"/>
<path class="st12" d="M1211.2,289.1c-3.1,0-7.2-0.5-8.1-1c-0.6-0.4-0.9-1.8-1-2.5h-0.1c0,0,0.2,2.3,1,2.8c0.8,0.5,4.9,1.1,8.1,1
	c0.9,0,1.2-0.3,1.2-0.8C1212.3,288.9,1211.9,289.1,1211.2,289.1z"/>
<path class="st3" d="M975.8,267.7c0,11.5,6.9,20.8,15.5,20.8"/>
<path class="st2" d="M991.3,288.5c0-11.6,7.7-21,17.3-21"/>
<path class="st2" d="M981.4,268.7c0,10.9,4.4,19.7,9.9,19.7"/>
<path class="st3" d="M991.3,288.5c0-14.8,8.9-26.9,20-26.9"/>
<ellipse class="st1" cx="990.6" cy="291.8" rx="3.8" ry="0.7"/>
<path class="st11" d="M988,288.6c0,0,2.2-0.1,2.9-0.6s3.4-1.1,3.5-0.3c0.2,0.8,3.3,3.9,0.8,3.9c-2.5,0-5.8-0.4-6.4-0.8
	S988,288.6,988,288.6z"/>
<path class="st12" d="M995.3,291.4c-2.5,0-5.8-0.4-6.4-0.8c-0.5-0.3-0.7-1.5-0.8-2H988c0,0,0.1,1.8,0.8,2.3c0.7,0.4,3.9,0.8,6.4,0.8
	c0.7,0,1-0.3,0.9-0.7C996.1,291.3,995.8,291.4,995.3,291.4z"/>
</svg>
