<?xml version="1.0" encoding="utf-8"?>
<!-- Generator: Adobe Illustrator 22.0.1, SVG Export Plug-In . SVG Version: 6.00 Build 0)  -->
<svg version="1.1" id="Layer_1" xmlns="http://www.w3.org/2000/svg" xmlns:xlink="http://www.w3.org/1999/xlink" x="0px" y="0px"
	 viewBox="0 0 1300 400" style="enable-background:new 0 0 1300 400;" xml:space="preserve">
<style type="text/css">
	.st0{fill:url(#SVGID_1_);stroke:#000000;stroke-width:1.6452;stroke-miterlimit:10;}
	.st1{fill:#F2F2F2;}
	.st2{fill:none;stroke:#3F3D56;stroke-width:0.2984;stroke-miterlimit:10;}
	.st3{fill:none;stroke:#2F2E41;stroke-width:0.2984;stroke-miterlimit:10;}
	.st4{fill:#0D8CD8;}
	.st5{fill:#2F2E41;}
	.st6{fill:#FFB8B8;}
	.st7{fill:#3F3D56;}
	.st8{fill:#260303;}
</style>
<linearGradient id="SVGID_1_" gradientUnits="userSpaceOnUse" x1="9.094947e-13" y1="199.3478" x2="1300" y2="199.3478" gradientTransform="matrix(1 0 0 -1 0 400)">
	<stop  offset="0" style="stop-color:#007194"/>
	<stop  offset="1" style="stop-color:#41C1C9"/>
</linearGradient>
<rect x="0" y="0.7" class="st0" width="1300" height="400"/>
<ellipse class="st1" cx="1067.6" cy="178.7" rx="120" ry="87.7"/>
<ellipse class="st2" cx="1077.4" cy="167.6" rx="120" ry="87.7"/>
<path class="st3" d="M996.5,129.9c3.7-0.7,7.6,0,10.9,1.8c1.7,0.9,3.3,2.3,3.8,4.2s-0.6,4.2-2.6,4.5c-2.9,0.4-4.4-4-2.4-6.1
	c2-2.1,5.4-2.2,8.2-1.4c5.1,1.4,9.4,4.7,13.9,7.5c22.2,13.6,50.2,13.5,76.3,10.9c2.7-0.3,5.5-0.7,7.6-2.4c2-1.7,2.6-5.4,0.4-6.9
	c-2.2-1.5-5.5,0.3-6,2.8c-0.5,2.5,1.2,5.1,3.5,6.4s5.1,1.5,7.7,1.4c11.3-0.1,22.2-3.8,32-9.2c3.3-1.8,6.7-4.2,7.8-7.8
	c1-3.6-2.1-8.3-5.8-7.3c-2.4,0.6-3.7,3.3-3.9,5.7c-0.1,2,0.2,3.9,1,5.7c1.3,3.2,3.6,5.8,5.8,8.4c11.6,14.7,17.4,33.1,16.2,51.6
	c-0.5,7.6-3.2,16.5-10.6,18.9c-3,1-6.3,0.7-9.4,0.1c-2.6-0.5-5.7-1.9-5.7-4.5c-0.1-1.8,1.5-3.4,3.3-3.9c4.5-1.4,9.4,3,9.3,7.7
	c-0.1,4.6-3.9,8.6-8.4,10.1s-9.4,0.8-13.9-0.5c-14.7-4.2-27-14.6-41.8-18.7c-17.4-4.7-36.1,0-52.3,7.8"/>
<path class="st4" d="M1188.9,263.2c3.2,1.2,6.8-0.5,8-3.7c1.2-3.2-0.5-6.7-3.7-7.9c-1.1-0.4-2.3-0.5-3.5-0.2l0.2,3.2l-1.5-2.7
	c-1.5,0.7-2.6,2-3.2,3.5c-0.2,0.5-0.3,1.1-0.4,1.7C1184.6,259.7,1186.3,262.2,1188.9,263.2z"/>
<path class="st2" d="M1196.4,299.9c-0.5-2.7,1.8-5.1,4.1-6.6c2.3-1.5,5-3.1,5.8-5.7c1.1-3.8-2.2-7.3-4.8-10.2c-2-2.2-3.6-4.6-5-7.3
	c-0.5-1-1.1-2.1-1.2-3.3c-0.2-1.7,0.3-3.3,0.9-4.9c1.8-5.3,3.8-10.6,5.9-15.9"/>
<path class="st2" d="M1189.1,262.3c3.2,1.2,6.8-0.5,8-3.7c1.2-3.2-0.5-6.7-3.7-7.9c-1.1-0.4-2.3-0.5-3.5-0.2l0.2,3.2l-1.5-2.7
	c-1.5,0.7-2.6,2-3.2,3.5c-0.2,0.5-0.3,1.1-0.4,1.7C1184.8,258.8,1186.5,261.4,1189.1,262.3z"/>
<path class="st4" d="M1195.6,244.8c0.7-2,2.4-3.4,4.5-3.9l0.5,3l1-3.2c3.5,0.1,6.2,2.8,6.2,6.2c-0.1,3.4-2.9,6.1-6.3,6.1
	s-6.2-2.8-6.2-6.2C1195.3,246.1,1195.4,245.5,1195.6,244.8L1195.6,244.8z"/>
<path class="st2" d="M1196,243.7c0.7-2,2.4-3.4,4.5-3.9l0.5,3l1-3.2c3.5,0.1,6.2,2.8,6.2,6.2c-0.1,3.4-2.9,6.1-6.3,6.1
	s-6.2-2.8-6.2-6.2C1195.6,245,1195.8,244.4,1196,243.7z"/>
<path class="st4" d="M1200.3,277.4c3.2,1.2,6.8-0.5,8-3.7c1-2.7,0-5.7-2.5-7.3l-0.7,2.4l-0.5-3c0,0,0,0,0,0c-3.2-1.2-6.8,0.5-8,3.7
	C1195.4,272.7,1197.1,276.2,1200.3,277.4L1200.3,277.4L1200.3,277.4z"/>
<path class="st2" d="M1200.6,276.3c3.2,1.2,6.8-0.5,8-3.7c1-2.7,0-5.7-2.5-7.3l-0.7,2.4l-0.5-3c0,0,0,0,0,0c-3.2-1.2-6.8,0.5-8,3.7
	C1195.7,271.6,1197.4,275.1,1200.6,276.3L1200.6,276.3z"/>
<path class="st4" d="M1193.8,287.6c0.6,3.3,3.9,5.6,7.2,5c3.4-0.6,5.7-3.8,5.1-7.1c-0.6-3.3-3.9-5.6-7.2-5c-1.5,0.3-2.9,1.1-3.9,2.3
	l2.8,4.1l-3.8-2.2C1193.7,285.7,1193.7,286.6,1193.8,287.6z"/>
<path class="st2" d="M1194.1,286.8c0.6,3.3,3.9,5.6,7.2,5s5.7-3.8,5.1-7.1c-0.6-3.3-3.9-5.6-7.2-5c-1.5,0.3-2.9,1.1-3.9,2.3l2.8,4.1
	l-3.8-2.2C1194,284.8,1193.9,285.8,1194.1,286.8z"/>
<line class="st3" x1="1051.6" y1="299.9" x2="1230.5" y2="299.9"/>
<path class="st4" d="M1151.7,123.8l11.7-2.1c0,0,1.2-0.2,1.4,0.6l-13.5,3.8l-0.3-1.8L1151.7,123.8z"/>
<path class="st5" d="M1152.2,123.7c-4.2,0.1-3.4,1.5-3.9,2.4c-0.5,0.9-4.5,1-4.5,1l0,0c-1.7,0-3,1.4-3,3c0,1.7,1.4,3,3.1,2.9
	c1.6,0,2.9-1.3,2.9-2.8c0-0.3,0-0.6-0.1-0.8c-0.4-2.7,5-3.3,5-3.3l-0.2-0.9C1151.5,124.7,1151.8,124.1,1152.2,123.7z M1143.9,132.1
	c-1.2,0-2.1-0.9-2.1-2.1c0-1.2,1-2.1,2.1-2.1c1.2,0,2.1,0.9,2.1,2.1l0,0C1146,131.1,1145.1,132.1,1143.9,132.1z"/>
<path class="st4" d="M1152.1,126.2l11.9,0.8c0,0,1.3,0.1,1.4-0.7l-14-2.4l0.1,2L1152.1,126.2z"/>
<path class="st5" d="M1151.8,124.8l0.1-0.9c0,0-5.4,0-5.4-2.7c0-0.3,0-0.6,0-0.8c-0.2-1.7-1.8-2.8-3.5-2.6c-1.7,0.2-2.9,1.7-2.6,3.4
	c0.2,1.6,1.7,2.8,3.4,2.6l0,0c0,0,4-0.4,4.6,0.5c0.6,0.9,0,2.4,4.1,2C1152.1,125.9,1151.8,125.4,1151.8,124.8z M1145.7,120.7
	c0.1,1.2-0.7,2.2-1.9,2.3s-2.2-0.7-2.3-1.8c-0.1-1.2,0.7-2.2,1.9-2.3l0,0C1144.6,118.8,1145.6,119.6,1145.7,120.7z"/>
<path class="st6" d="M1098.8,285c-2.6,0.5-2.1,1.4-2.1,1.4l0.8,1.6l-2.1-11.2l5-0.1l1.4,10.2C1101,286.4,1100.1,284.7,1098.8,285z"
	/>
<path class="st5" d="M1095.5,285.9l1.1-0.4c0,0-0.5-0.9,2.1-1.4c1.1-0.2,2.2,0,3.2,0.6l1,5.1c0,0,4.5,7-1.2,7s-5.9-1.6-5.9-1.6v-1.9
	c0,0-1.4,0.7-1.7-1.2c-0.2-1.9,1.4-5.8,1.4-5.8L1095.5,285.9z"/>
<path class="st6" d="M1064.9,285c2.6,0.5,2.1,1.4,2.1,1.4l-0.8,1.6l2.1-10l-5-1.3l-1.4,10.2C1062.6,286.4,1063.5,284.7,1064.9,285z"
	/>
<ellipse class="st6" cx="1088.8" cy="164.1" rx="7.2" ry="7.1"/>
<path class="st6" d="M1085.5,169.3c0,0,1.2,5.1-3.1,7c-4.3,1.9,14,2.3,14,2.3s-4.5-4.9-3.3-10L1085.5,169.3z"/>
<path class="st4" d="M1083.8,175.3l-9.3,1.9l2.1,13.8c0,0,2.9,6.3,1.2,8.9c-1.7,2.6,0.5,3.5,0.5,3.5l21.4,1.2c0,0,2.4-1.2,1.9-2.3
	c-0.5-1.2-0.1-10.2-0.1-10.2s0-0.9,0.6-3.8l-0.1-9.5l-6.3-1.1C1095.7,177.7,1092.1,179.1,1083.8,175.3z"/>
<path class="st5" d="M1078.4,202.6l-11.9,49l-6.9,24.3l15.4,4.9c0,0,15-43.2,14-52.3l-0.5,52.3l16.6-0.9c0,0,4-68.9-5.4-76.8
	L1078.4,202.6z"/>
<path class="st6" d="M1070.1,185.8l-4.5,14.5c-0.3,1-0.1,2.1,0.5,3c0.8,1.3,6.8,10,9.1,13.3c0.3,0.5,1,0.6,1.5,0.3
	c0.1-0.1,0.2-0.1,0.3-0.3l2.9-4.1c0,0,2.9,1.6,3.5,0.9c0.3-0.3-0.3-0.8-1.1-1.3c-1.8-1.2-4-2-6.2-2.2h0l-5-8.6l5-12.1L1070.1,185.8z
	"/>
<path class="st4" d="M1076.5,177.9l-0.8-0.9l-1.1,0.2c0,0-2.1,0.7-3.3,4c-1.2,3.3-5,10.5-5,10.5l7.1,4.2l4.5-9.6L1076.5,177.9z"/>
<path class="st6" d="M1107.4,187.1l4.9,14.1c0.3,1,0.1,2.1-0.5,3c-0.8,1.3-6.8,10-9.1,13.3c-0.3,0.5-1,0.6-1.5,0.3
	c-0.1-0.1-0.2-0.1-0.3-0.3l-2.9-4.1c0,0-2.9,1.6-3.5,0.9c-0.3-0.3,0.3-0.8,1.1-1.3c1.8-1.2,4-2,6.2-2.2h0l5-8.6l-5-12.1
	L1107.4,187.1z"/>
<path class="st4" d="M1100.7,179.5l0.8-0.9l1.1,0.2c0,0,2.1,0.7,3.3,4c1.2,3.3,5.4,10.6,5.4,10.6l-7.1,3l-4-8.9L1100.7,179.5z"/>
<path class="st5" d="M1088.8,155c0,0-7.4-1.3-8.8,5.2c-0.3,1.5-0.5,3-0.6,4.6c-0.2,3.8-1.3,7.5-3.1,10.8l0,0l11.9,3.4
	c0,0-3.2-4.9-2.6-7c0.1-0.5,0.1-1.1,0-1.6c-3-1.8-3.9-5.7-2.1-8.6c1.8-2.9,5.8-3.8,8.8-2c3,1.8,3.9,5.7,2.1,8.6
	c-0.8,1.3-2,2.2-3.5,2.7c-0.9,1.9-1.4,4-0.2,5.4c1.5,1.8,3.3,3.4,5.3,4.7c0,0-1.3-6.3,0.8-9.9C1098.8,167.5,1096.7,155.5,1088.8,155
	z"/>
<polygon class="st5" points="1095.4,163.4 1082.9,164.1 1082.6,158.3 1093.4,158 "/>
<path class="st5" d="M1068.1,285.9l-1.1-0.4c0,0,0.5-0.9-2.1-1.4c-1.1-0.2-2.2,0-3.2,0.6l-1,5.1c0,0-4.5,7,1.2,7s5.9-1.6,5.9-1.6
	v-1.9c0,0,1.4,0.7,1.7-1.2s-1.4-5.8-1.4-5.8L1068.1,285.9z"/>
<path class="st7" d="M1040.1,205.7c0,0-3,2.8-2.3,5.1l-3.3,3.5c0,0-2.2,14.7-4.4,15.8c0,0-5.7,0-13.2-7.6l10.9-12.3l2.5-6.2l2.2-2.4
	l1.7,0.7c0,0-2.8,3.1-1.3,4.6c1.5,1.5,5.6-2.3,5.6-2.3L1040.1,205.7z"/>
<path class="st8" d="M994.9,123.5c-0.4-0.6-1.2-0.9-1.9-1c0-0.1-2.2-0.6-2.2-0.5l-0.8-0.7l-2.6,1.5l-1.4-1.1l-0.7,0.3
	c0-0.1-2.1,0.3-2.1,0.3c-0.4,0-0.9,0-1.5,0.1c-2,0.2-2.2,5.9-2.2,5.9c0.9-0.4,1.9-0.7,2.9-0.7l0.5,16.7c2.8-0.3,5.7,0,8.8,0.8
	l1.4-15.2l3.3-1.4C996.5,128.3,995.9,124.9,994.9,123.5z"/>
</svg>
