<?xml version="1.0" encoding="utf-8"?>
<!-- Generator: Adobe Illustrator 22.0.1, SVG Export Plug-In . SVG Version: 6.00 Build 0)  -->
<svg version="1.1" id="Layer_1" xmlns="http://www.w3.org/2000/svg" xmlns:xlink="http://www.w3.org/1999/xlink" x="0px" y="0px"
	 viewBox="0 0 1300 400" style="enable-background:new 0 0 1300 400;" xml:space="preserve">
<style type="text/css">
	.st0{fill:url(#SVGID_1_);stroke:#000000;stroke-width:1.6452;stroke-miterlimit:10;}
	.st1{fill:#3F3D56;}
	.st2{fill:#F2F2F2;}
	.st3{opacity:0.1;enable-background:new    ;}
	.st4{fill:#0D8CD8;}
	.st5{fill:#FFFFFF;}
	.st6{fill:#D0CDE1;}
	.st7{fill:#FFB9B9;}
	.st8{fill:#2F2E41;}
</style>
<linearGradient id="SVGID_1_" gradientUnits="userSpaceOnUse" x1="9.094947e-13" y1="200" x2="1300" y2="200" gradientTransform="matrix(1 0 0 -1 0 400)">
	<stop  offset="0" style="stop-color:#007194"/>
	<stop  offset="1" style="stop-color:#41C1C9"/>
</linearGradient>
<rect x="0" class="st0" width="1300" height="400"/>
<path class="st1" d="M1195,162.3c-19,0-34.4-15.4-34.4-34.4s15.4-34.4,34.4-34.4c19,0,34.4,15.4,34.4,34.4
	C1229.4,146.9,1214,162.3,1195,162.3z M1195,94c-18.7,0-33.9,15.2-33.9,33.9s15.2,33.9,33.9,33.9c18.7,0,33.9-15.2,33.9-33.9
	C1228.8,109.2,1213.7,94,1195,94z"/>
<circle class="st2" cx="1195.1" cy="128" r="17.3"/>
<rect x="932.3" y="128" class="st1" width="263.9" height="132.6"/>
<rect x="1006.5" y="166.4" class="st3" width="99" height="67.9"/>
<circle class="st4" cx="1218.7" cy="103.7" r="7"/>
<circle class="st4" cx="940.2" cy="133.1" r="3.1"/>
<circle class="st4" cx="949.9" cy="133.1" r="3.1"/>
<circle class="st4" cx="959.7" cy="133.1" r="3.1"/>
<rect x="962.8" y="177.4" class="st4" width="6.3" height="6.3"/>
<rect x="1154.1" y="232" class="st5" width="6.3" height="6.3"/>
<rect x="1134.6" y="189.6" transform="matrix(0.7774 -0.629 0.629 0.7774 132.0217 758.5828)" class="st4" width="6.3" height="6.3"/>
<polygon class="st1" points="1116.1,273.8 918.8,273.8 918.8,167.6 919.4,167.6 919.4,273.2 1116.1,273.2 "/>
<path class="st1" d="M1119.9,277.6c-2.3,0-4.1-1.8-4.1-4.1c0-2.3,1.8-4.1,4.1-4.1s4.1,1.8,4.1,4.1l0,0
	C1124,275.8,1122.1,277.6,1119.9,277.6z M1119.9,270c-1.9,0-3.5,1.5-3.5,3.5s1.5,3.5,3.5,3.5c1.9,0,3.5-1.5,3.5-3.5
	C1123.3,271.6,1121.8,270,1119.9,270L1119.9,270z"/>
<path class="st1" d="M919.1,167.9c-2.3,0-4.1-1.8-4.1-4.1c0-2.3,1.8-4.1,4.1-4.1s4.1,1.8,4.1,4.1l0,0
	C923.2,166.1,921.4,167.9,919.1,167.9z M919.1,160.4c-1.9,0-3.5,1.5-3.5,3.5c0,1.9,1.5,3.5,3.5,3.5c1.9,0,3.5-1.5,3.5-3.5l0,0
	C922.6,162,921,160.4,919.1,160.4z"/>
<path class="st2" d="M978.2,252.8l-2.8,7.9h-6.3v-8c0.5-10,6.1-14.8,6.3-14.9c-4.2,4.1-3.8,18.2-3.8,18.2
	c2.8-12.3,5.3-12.6,5.3-12.6c-1.5,2.3-2.3,12.7-2.4,13.3C974.8,254.5,978.2,252.8,978.2,252.8z"/>
<path class="st2" d="M1173.3,253.8v6.8h-4.8l-2.4-6.7c0,0,2.7,1.4,2.9,3.1c0-0.5-0.7-8.8-1.9-10.6c0,0,2,0.2,4.2,10
	c0,0,0.4-11.2-3-14.4C1168.4,242.1,1172.9,245.9,1173.3,253.8z"/>
<path class="st6" d="M1088.4,234.2h-7.6l-0.1-0.6l-0.6-7v0l-0.6-7.3l3.5-15l3,3v14.3c0,0,1.8,2.6,1.4,3.3c-0.4,0.7-0.7,0.7-0.4,1.2
	c0.4,0.5,0.7,0.9,0.4,1.2c-0.4,0.5-0.4,1.1,0,1.6c0.4,0.4,1.1,0.9,0.5,1.4c-0.5,0.5-1.2,0.2-0.5,2.1c0.1,0.4,0.3,0.7,0.5,1
	C1088.2,233.8,1088.3,234,1088.4,234.2z"/>
<polygon class="st7" points="1064.9,186 1063.8,196.5 1074.6,198.1 1075.4,192 1076.2,186 "/>
<polygon class="st3" points="1064.9,186 1063.8,196.5 1074.6,198.1 1075.4,192 1076.2,186 "/>
<circle class="st7" cx="1070.8" cy="180.9" r="8.5"/>
<path class="st6" d="M1049.4,234.2c0-0.1-0.1-0.1-0.1-0.2c-0.1-0.1-0.1-0.3-0.2-0.4c-0.5-1-1-2.5-0.7-3c0.5-0.7,0.7-1.4,0.4-1.8
	c-0.4-0.4-1.4,0.4-0.4-0.5c1.1-0.9,1.4-0.4,1.1-1.4c-0.4-1.1-1.1-0.5-0.4-1.1c0.7-0.5,1.2-0.4,0.9-0.9c-0.4-0.5-1.1-0.5-0.4-0.9
	c0.7-0.4,1.2,0,1.1-0.9c-0.2-0.9-0.4-0.5,0-0.9c0.1-0.1,0.4-1,0.8-2.2c1.2-3.6,3.2-10.2,3.2-10.4c0-0.4-2.8-11.5-2.8-11.5l-1.2-0.7
	c0,0-5.5,3.7-7.2,12c-1.8,8.3-3,10.4-3,10.4s-1.8,0.4-0.5,1.6c1.2,1.2,1.2,1.1,0.2,1.8c-1.1,0.7-1.8-0.7-1.1,0.7
	c0.7,1.4,1.6,1.1,0.9,1.9c-0.7,0.9-1.9,0.9-1.2,1.6c0.7,0.7-0.7,2.3,0.2,3c0.9,0.7,1.2,0.9,1.2,2.1c0,0.3,0,0.7,0.1,1
	c0,0.2,0.1,0.4,0.1,0.6c0,0.2,0.1,0.3,0.1,0.4L1049.4,234.2z"/>
<polygon class="st1" points="1049.4,234.2 1050.2,234.2 1050.2,234 1049.3,234 1046.2,234.2 1040.5,234.6 "/>
<path class="st6" d="M1053.2,226.8l-1.6-5.5l0-1.2l-0.8-22.6l10.4-3.7l1.8-1.4c0,0,0.4-4.1,0.9-4.4c0.2-0.1,0.5,0,0.9,0.4
	c0.7,0.6,1.7,1.8,3,3.2c1.9,2.1,6,1.8,7.2,1.1c0.2-0.1,0.3-0.2,0.5-0.2c0.9-0.4,1.3-0.1,1.3-0.1c0.9,0.7-1.2,3-1.2,3
	s0.7,1.6,5.3,3.2c4.6,1.6,5.5,9,5.5,9s-5.5,14.8-5.3,15.9c0.2,0.9-0.5,2.8-0.7,3.4v0c0,0.1,0,0.1,0,0.1l0.4,6.8l0,0.6h-26.7
	c-0.1-0.2-0.2-0.4-0.3-0.6c0,0-0.1-0.1-0.1-0.2C1052,231,1053.2,226.8,1053.2,226.8z"/>
<path class="st8" d="M1062.3,182c0,0-0.9-1.3-0.5-2.7c0.2-0.8,0.3-1.6,0.2-2.5c0,0,0.7-2.3,1.4-3.6c0.7-1.3,0.4-1.8,2.6-2.2
	c2.2-0.4,1.3-3.3,7.2-0.2c0.4,0.6,1.1,0.8,1.8,0.7c1.2-0.2,1.7,1.5,1.7,1.5s0.8-0.5,1.1,0.2c0.3,0.7,2.5-0.4,2.5,4.2
	c0,4.6-2.5,8.6-2.5,8.6s0.2-7.7-3.8-8.4c-4-0.8-8.3-3-9.4-0.1C1064,179,1063.2,180.6,1062.3,182z"/>
<ellipse class="st7" cx="1077.9" cy="182.8" rx="0.8" ry="1.1"/>
<path class="st5" d="M1006.5,161.3v72.9h115.6v-72.9H1006.5z M1121.4,233.6h-114.4V162h114.4V233.6z"/>
</svg>
