<svg xmlns="http://www.w3.org/2000/svg" viewBox="0 0 243.03 136.6"><defs><style>.cls-1{fill:#183154;}.cls-2{opacity:0.3;}.cls-3{fill:#bddfe9;}.cls-4{fill:#8bbbc6;}.cls-5{fill:#ebeded;}.cls-6{fill:#6798a0;}.cls-7{fill:#eef0f1;}.cls-15,.cls-8{fill:#fff;}.cls-14,.cls-9{fill:#c5d1d1;}.cls-10{fill:#ffadad;}.cls-11{fill:#7dadb5;}.cls-12{fill:#99394c;opacity:0.7;}.cls-13{fill:#fdfeff;}.cls-14,.cls-15{opacity:0.5;}.cls-16{opacity:0.4;}.cls-17{fill:#e0f0f5;}</style></defs><title>Asset 7</title><g id="Layer_2" data-name="Layer 2"><g id="Layer_1-2" data-name="Layer 1"><path class="cls-1" d="M18.55,38a1,1,0,0,1-.64-.23,1,1,0,0,1-.14-1.4,19.14,19.14,0,0,1,1.74-1.86,1,1,0,0,1,1.41,0,1,1,0,0,1,0,1.42,18.8,18.8,0,0,0-1.56,1.66A1,1,0,0,1,18.55,38Z"/><g class="cls-2"><path class="cls-3" d="M54.56,57.05v73.06A5.52,5.52,0,0,1,49,135.64H39.47a7,7,0,1,0,0-14H7a7,7,0,1,1,0-14H24.74a7,7,0,0,0,7-7,7,7,0,0,0-7-7H7a7,7,0,0,1,0-14H29.85a7,7,0,1,0,0-14H16.63a7,7,0,0,1,0-14H49A5.52,5.52,0,0,1,54.56,57.05Z"/><path class="cls-3" d="M188.47,27v73.06a5.52,5.52,0,0,0,5.52,5.52h9.56a7,7,0,0,1,0-14H236a7,7,0,0,0,0-14H218.29a7,7,0,1,1,0-14H236a7,7,0,0,0,0-14H213.17a7,7,0,0,1,0-14H226.4a7,7,0,0,0,0-14H194A5.52,5.52,0,0,0,188.47,27Z"/></g><rect class="cls-4" x="53.16" y="75.19" width="140.88" height="44.51"/><rect class="cls-5" x="38.55" y="95.05" width="167.09" height="40.31" rx="8.01"/><rect class="cls-6" x="54.19" y="69.63" width="140.88" height="21.59"/><path class="cls-3" d="M19,55.41A18.72,18.72,0,0,1,30.52,38.13a23,23,0,0,1-.4-4.33A24,24,0,0,1,77,26.89a24.22,24.22,0,0,1,5.69-.68c10.12,0,6.1,13.42,9.6,22.3,1.08,2.72,14.35-1.45,14.35,1.65a24,24,0,0,1-24,24L40.39,75.19V60.5"/><polygon class="cls-7" points="50.1 18.27 45.52 15.88 40.38 16.34 42.77 11.76 42.31 6.62 46.89 9.01 52.03 8.55 49.64 13.13 50.1 18.27"/><circle class="cls-7" cx="39.57" cy="35.26" r="1.73"/><path class="cls-8" d="M159.36,58.35a15.71,15.71,0,0,0,6-30.21,19.79,19.79,0,0,0,.33-3.64,20.11,20.11,0,0,0-39.36-5.8,20.83,20.83,0,0,0-4.77-.57,20.11,20.11,0,1,0,0,40.22Z"/><path class="cls-3" d="M173.23,41.56a15.37,15.37,0,0,1-15.37,15.36h-37a19.62,19.62,0,0,1-16.59-9.11,19.53,19.53,0,0,0,10.56,3.08h37A15.37,15.37,0,0,0,167.2,35.53a15.21,15.21,0,0,0-1.91-7.41A15.32,15.32,0,0,1,173.23,41.56Z"/><path class="cls-1" d="M158.41,58.06h-37a20.68,20.68,0,1,1,4-41A20.67,20.67,0,0,1,165.63,24a20.52,20.52,0,0,1-.21,3,16.36,16.36,0,0,1-7,31.15Zm-37-39.35a18.68,18.68,0,0,0,0,37.35h37a14.37,14.37,0,0,0,5.51-27.63l-.75-.32.15-.8a17.5,17.5,0,0,0,.31-3.36,18.67,18.67,0,0,0-36.54-5.39l-.28.91-.92-.23A18.92,18.92,0,0,0,121.45,18.71Z"/><rect class="cls-8" x="38.84" y="48.53" width="167.09" height="40.31" rx="8.01"/><rect class="cls-5" x="39.57" y="47.85" width="167.09" height="40.31" rx="8.01"/><path class="cls-9" d="M109.52,48.09a24,24,0,0,1-24,24h-45l-.8,0V67.16H78.22a23.93,23.93,0,0,0,23.52-19.48h7.77C109.52,47.81,109.52,48,109.52,48.09Z"/><circle class="cls-8" cx="53.16" cy="67.53" r="7.11"/><circle class="cls-8" cx="74.48" cy="67.53" r="7.11"/><path class="cls-9" d="M205.73,55.87V80.15a8,8,0,0,1-8,8H153.38a4,4,0,1,1,0-8.06h40.78a4,4,0,1,0,0-8.06h-26a4,4,0,1,1,0-8.06h12.49a4,4,0,0,0,0-8.07H162.11a4,4,0,1,1,0-8.06h35.6A8,8,0,0,1,205.73,55.87Z"/><path class="cls-1" d="M128.6,49.09h-6.5a1,1,0,0,1,0-2h6.5a1,1,0,0,1,0,2Z"/><path class="cls-1" d="M198.06,89.41H47a9,9,0,0,1-9-9V56.11a9,9,0,0,1,9-9h68.06a1,1,0,0,1,0,2H47a7,7,0,0,0-7,7V80.39a7,7,0,0,0,7,7H198.06a7,7,0,0,0,7-7V56.11a7,7,0,0,0-7-7H141a1,1,0,0,1,0-2h57.07a9,9,0,0,1,9,9V80.39A9,9,0,0,1,198.06,89.41Z"/><path class="cls-1" d="M134.57,49.09h-2.34a1,1,0,0,1,0-2h2.34a1,1,0,0,1,0,2Z"/><path class="cls-9" d="M205.06,104.07v24.28a8,8,0,0,1-8,8H152.71a4,4,0,1,1,0-8.06h40.78a4,4,0,1,0,0-8.06h-26a4,4,0,1,1,0-8.06H180a4,4,0,0,0,0-8.07H161.44a4,4,0,1,1,0-8.06H197A8,8,0,0,1,205.06,104.07Z"/><path class="cls-1" d="M186.29,48.32a1,1,0,0,1-1-1V25.25a1,1,0,0,1,2,0V47.32A1,1,0,0,1,186.29,48.32Z"/><path class="cls-1" d="M194.52,48.57a1,1,0,0,1-1-1V6.81a1,1,0,0,1,2,0V47.57A1,1,0,0,1,194.52,48.57Z"/><circle class="cls-10" cx="194.04" cy="4.71" r="4.23"/><path class="cls-1" d="M194.39,10.45a5.23,5.23,0,1,1,5.22-5.22A5.23,5.23,0,0,1,194.39,10.45Zm0-8.45a3.23,3.23,0,1,0,3.22,3.23A3.23,3.23,0,0,0,194.39,2Z"/><rect class="cls-11" x="115.18" y="107.23" width="36.54" height="14.23" rx="7.11"/><path class="cls-1" d="M144.6,122.45H122.29a8.11,8.11,0,0,1,0-16.22H144.6a8.11,8.11,0,1,1,0,16.22Zm-22.31-14.22a6.11,6.11,0,0,0,0,12.22H144.6a6.11,6.11,0,1,0,0-12.22Z"/><path class="cls-1" d="M53.32,75.65a8.12,8.12,0,1,1,8.11-8.12A8.12,8.12,0,0,1,53.32,75.65Zm0-14.23a6.12,6.12,0,1,0,6.11,6.11A6.12,6.12,0,0,0,53.32,61.42Z"/><path class="cls-1" d="M74.64,75.65a8.12,8.12,0,1,1,8.11-8.12A8.12,8.12,0,0,1,74.64,75.65Zm0-14.23a6.12,6.12,0,1,0,6.11,6.11A6.12,6.12,0,0,0,74.64,61.42Z"/><circle class="cls-7" cx="95.96" cy="67.53" r="7.11"/><path class="cls-1" d="M96.83,75.73A8.12,8.12,0,1,1,105,67.62,8.12,8.12,0,0,1,96.83,75.73Zm0-14.23A6.12,6.12,0,1,0,103,67.62,6.12,6.12,0,0,0,96.83,61.5Z"/><rect class="cls-7" x="119.42" y="60.5" width="76.54" height="14.23" rx="7.11"/><path class="cls-1" d="M188,75.69h-62.3a8.12,8.12,0,1,1,0-16.23H188a8.12,8.12,0,1,1,0,16.23Zm-62.3-14.23a6.12,6.12,0,1,0,0,12.23H188a6.12,6.12,0,1,0,0-12.23Z"/><path class="cls-1" d="M53.32,96.05a1,1,0,0,1-1-1V88.73a1,1,0,0,1,2,0v6.32A1,1,0,0,1,53.32,96.05Z"/><path class="cls-1" d="M194,96.05a1,1,0,0,1-1-1V88.73a1,1,0,1,1,2,0v6.32A1,1,0,0,1,194,96.05Z"/><path class="cls-10" d="M32.73,67.87a18.71,18.71,0,0,1-7.18-36,23,23,0,0,1-.4-4.33A24,24,0,0,1,72,20.64,24.22,24.22,0,0,1,77.73,20a24,24,0,0,1,0,47.91Z"/><path class="cls-12" d="M90.59,23.15A24,24,0,0,1,70.27,59.79h-45a18.73,18.73,0,0,1-8.85-2.22,18.73,18.73,0,0,0,16.49,9.86h45A24,24,0,0,0,90.59,23.15Z"/><path class="cls-13" d="M43.64,9.91a1.5,1.5,0,0,0,0-3,1.5,1.5,0,0,0,0,3Z"/><path class="cls-13" d="M34.44,17.05a21,21,0,0,1,5.09-4.72c1.2-.8.07-2.75-1.13-1.94a24.06,24.06,0,0,0-5.91,5.52c-.87,1.16,1.08,2.28,1.95,1.14Z"/><circle class="cls-9" cx="149.49" cy="101.58" r="3.18"/><circle class="cls-14" cx="142.73" cy="102.6" r="1.59"/><circle class="cls-9" cx="150.16" cy="53.39" r="3.18"/><circle class="cls-14" cx="143.4" cy="54.41" r="1.59"/><circle class="cls-8" cx="48.07" cy="102.12" r="2.57"/><circle class="cls-15" cx="44.8" cy="106.57" r="1.29"/><circle class="cls-8" cx="60.32" cy="101.78" r="2.57"/><circle class="cls-15" cx="54.8" cy="101.62" r="1.29"/><circle class="cls-8" cx="115.07" cy="57.04" r="4.34"/><circle class="cls-15" cx="113.23" cy="65.36" r="2.17"/><circle class="cls-10" cx="54.32" cy="114.34" r="7.11"/><path class="cls-12" d="M61.17,113.91A7.11,7.11,0,0,1,48,117.55a7,7,0,0,0,3.63,1,7.11,7.11,0,0,0,7.11-7.11,7,7,0,0,0-1-3.63A7.09,7.09,0,0,1,61.17,113.91Z"/><path class="cls-1" d="M54.19,122.54a8.12,8.12,0,1,1,8.12-8.12A8.12,8.12,0,0,1,54.19,122.54Zm0-14.23a6.12,6.12,0,1,0,6.12,6.11A6.12,6.12,0,0,0,54.19,108.31Z"/><circle class="cls-10" cx="74.64" cy="114.34" r="7.11"/><circle class="cls-7" cx="95.96" cy="114.34" r="7.11"/><path class="cls-1" d="M96.83,122.54a8.12,8.12,0,1,1,8.12-8.12A8.12,8.12,0,0,1,96.83,122.54Zm0-14.23a6.12,6.12,0,1,0,6.12,6.11A6.12,6.12,0,0,0,96.83,108.31Z"/><g class="cls-16"><circle class="cls-8" cx="35.23" cy="41.08" r="6.36"/><circle class="cls-8" cx="27.91" cy="50.47" r="3.18"/></g><path class="cls-1" d="M78,68.57H33A19.71,19.71,0,0,1,15.17,40.5a1,1,0,0,1,1.81.85,17.49,17.49,0,0,0-1.67,7.51A17.73,17.73,0,0,0,33,66.57H78a23,23,0,1,0-5.45-45.25l-.92.22-.28-.91a23,23,0,0,0-44.93,6.62,22.48,22.48,0,0,0,.38,4.15l.16.79-.75.32A17.12,17.12,0,0,0,23.45,34a1,1,0,0,1-1.39-.3,1,1,0,0,1,.3-1.38A20.19,20.19,0,0,1,24.72,31,25,25,0,0,1,73,19.17a25,25,0,1,1,5,49.4Z"/><path class="cls-9" d="M114.62,132.91h22.71a2.44,2.44,0,0,1,2.44,2.44v0a0,0,0,0,1,0,0H112.18a0,0,0,0,1,0,0v0A2.44,2.44,0,0,1,114.62,132.91Z"/><path class="cls-9" d="M84.19,132.91h22.71a2.44,2.44,0,0,1,2.44,2.44v0a0,0,0,0,1,0,0H81.75a0,0,0,0,1,0,0v0A2.44,2.44,0,0,1,84.19,132.91Z"/><path class="cls-1" d="M197,136.6H46a9,9,0,0,1-9-9V103.31a9,9,0,0,1,9-9H197a9,9,0,0,1,9,9v24.28A9,9,0,0,1,197,136.6ZM46,96.29a7,7,0,0,0-7,7v24.28a7,7,0,0,0,7,7H197a7,7,0,0,0,7-7V103.31a7,7,0,0,0-7-7Z"/><circle class="cls-17" cx="95.55" cy="13.15" r="2.24"/><path class="cls-12" d="M81.75,114.69a7.11,7.11,0,0,1-13.22,3.64,7,7,0,0,0,3.63,1,7.11,7.11,0,0,0,7.11-7.11,7,7,0,0,0-1-3.63A7.09,7.09,0,0,1,81.75,114.69Z"/><path class="cls-1" d="M75.51,122.54a8.12,8.12,0,1,1,8.12-8.12A8.12,8.12,0,0,1,75.51,122.54Zm0-14.23a6.12,6.12,0,1,0,6.12,6.11A6.12,6.12,0,0,0,75.51,108.31Z"/></g></g></svg>