<svg xmlns="http://www.w3.org/2000/svg" viewBox="0 0 243.03 129.12"><defs><style>.cls-1{fill:#e0f0f5;}.cls-10,.cls-2,.cls-9{fill:#bddfe9;}.cls-3{fill:#eef0f1;}.cls-4{fill:#a3cad3;}.cls-5{fill:#fff;}.cls-6{fill:#183154;}.cls-7{fill:#8fdaff;}.cls-8{fill:#38609b;}.cls-9{opacity:0.3;}.cls-10{opacity:0.5;}.cls-11{opacity:0.15;}.cls-12{fill:#fdfeff;}</style></defs><title>Asset 8</title><g id="Layer_2" data-name="Layer 2"><g id="Layer_1-2" data-name="Layer 1"><rect class="cls-1" x="55.06" y="51" width="36" height="76" rx="3.66"/><rect class="cls-1" x="104.06" y="28" width="36" height="100" rx="3.33"/><rect class="cls-1" x="152.06" y="1" width="36" height="126" rx="3.72"/><path class="cls-2" d="M188.56,81.51v42.12a3.71,3.71,0,0,1-3.72,3.72H156.29a3.72,3.72,0,0,1-3.73-3.72V84.82a6,6,0,1,1,12,0v8.35a6,6,0,1,0,12,0V81.51a6,6,0,0,1,12,0Z"/><path class="cls-2" d="M139.51,64.12v60.12a3.71,3.71,0,0,1-3.72,3.72H107.24a3.72,3.72,0,0,1-3.73-3.72V89.43a6,6,0,1,1,12,0v4.35a6,6,0,0,0,12,0V64.12a6,6,0,0,1,12,0Z"/><path class="cls-2" d="M91.56,82.51v40.12a3.71,3.71,0,0,1-3.72,3.72H59.29a3.72,3.72,0,0,1-3.73-3.72V87.82a6,6,0,1,1,12,0v4.35a6,6,0,1,0,12,0V82.51a6,6,0,0,1,12,0Z"/><circle class="cls-3" cx="195.94" cy="16.78" r="1.73"/><path class="cls-3" d="M201,29.19h0A4.11,4.11,0,1,1,203.92,28,4.12,4.12,0,0,1,201,29.19ZM201,22a3.12,3.12,0,0,0,0,6.23,3.11,3.11,0,0,0,3.14-3.09h0A3.12,3.12,0,0,0,201.06,22Z"/><circle class="cls-4" cx="72.56" cy="103.5" r="11.5"/><circle class="cls-5" cx="73.56" cy="97.5" r="11.5"/><path class="cls-6" d="M72.56,111a12.5,12.5,0,1,1,12.5-12.5A12.52,12.52,0,0,1,72.56,111Zm0-23a10.5,10.5,0,1,0,10.5,10.5A10.51,10.51,0,0,0,72.56,88Z"/><circle class="cls-2" cx="170.56" cy="36.5" r="11.5"/><circle class="cls-7" cx="171.56" cy="31.5" r="11.5"/><path class="cls-8" d="M182.06,31.9a11.49,11.49,0,0,1-21.65,5.39,11.36,11.36,0,0,0,5.39,1.35A11.49,11.49,0,0,0,176,21.75,11.46,11.46,0,0,1,182.06,31.9Z"/><path class="cls-6" d="M170.55,44a12.51,12.51,0,1,1,11.8-16.65h0A12.53,12.53,0,0,1,170.55,44Zm0-23a10.51,10.51,0,1,0,9.9,7h0a10.53,10.53,0,0,0-9.9-7Z"/><path class="cls-6" d="M133,49a1,1,0,0,1-.42-1.9l26-12.37a1,1,0,0,1,.86,1.8L133.44,48.9A.94.94,0,0,1,133,49Z"/><polygon class="cls-2" points="54.56 18.42 63.67 36.89 78.06 38 68.06 45 74.06 72 56.56 63.11 56.55 57.1 38.06 64 39.81 54.23 41.06 41 45.44 36.89 54.56 18.42"/><path class="cls-9" d="M2.05,75.11a7,7,0,0,1,5-2H29.85a7,7,0,1,0,0-14H16.63a7,7,0,0,1,0-14H49a5.52,5.52,0,0,1,5.52,5.52V123.6A5.52,5.52,0,0,1,49,129.12H39.47a7,7,0,1,0,0-14H7a7,7,0,1,1,0-14H24.74a7,7,0,0,0,0-14H7a7,7,0,0,1-7-7,6.94,6.94,0,0,1,2.05-5"/><path class="cls-9" d="M188.47,20.52V93.57A5.52,5.52,0,0,0,194,99.1h9.56a7,7,0,0,1,0-14H236a7,7,0,0,0,0-14H218.29a7,7,0,0,1-7-7,7,7,0,0,1,7-7H236a7,7,0,0,0,0-14H213.17a7,7,0,0,1,0-14H226.4a7,7,0,0,0,7-7,7,7,0,0,0-7-7H194A5.52,5.52,0,0,0,188.47,20.52Z"/><circle class="cls-2" cx="179.64" cy="69.11" r="3.18"/><circle class="cls-10" cx="174.09" cy="73.08" r="1.59"/><circle class="cls-2" cx="117.16" cy="76.81" r="3.18"/><circle class="cls-10" cx="111.6" cy="80.78" r="1.59"/><circle class="cls-2" cx="71.73" cy="75.62" r="3.18"/><circle class="cls-10" cx="66.17" cy="79.59" r="1.59"/><path class="cls-5" d="M117.16,29.3H136.5a0,0,0,0,1,0,0v0a2.2,2.2,0,0,1-2.2,2.2H119.37a2.2,2.2,0,0,1-2.2-2.2v0a0,0,0,0,1,0,0Z"/><path class="cls-6" d="M87.48,128H58.79a4.73,4.73,0,0,1-4.73-4.73v-68a4.73,4.73,0,0,1,4.73-4.73H87.48a4.73,4.73,0,0,1,4.73,4.73v68A4.73,4.73,0,0,1,87.48,128ZM58.79,52.51a2.73,2.73,0,0,0-2.73,2.73v68A2.73,2.73,0,0,0,58.79,126H87.48a2.74,2.74,0,0,0,2.73-2.73v-68a2.73,2.73,0,0,0-2.73-2.73Z"/><path class="cls-6" d="M135.86,128H107.17a4.73,4.73,0,0,1-4.73-4.73V32.38a4.73,4.73,0,0,1,4.73-4.73h28.69a4.73,4.73,0,0,1,4.73,4.73v90.89A4.73,4.73,0,0,1,135.86,128ZM107.17,29.65a2.73,2.73,0,0,0-2.73,2.73v90.89a2.73,2.73,0,0,0,2.73,2.73h28.69a2.74,2.74,0,0,0,2.73-2.73V32.38a2.73,2.73,0,0,0-2.73-2.73Z"/><path class="cls-6" d="M152.35,29a1,1,0,0,1-1-1V24.17a1,1,0,1,1,2,0V28A1,1,0,0,1,152.35,29Z"/><path class="cls-6" d="M152.35,33.49a1,1,0,0,1-1-1v-.83a1,1,0,1,1,2,0v.83A1,1,0,0,1,152.35,33.49Z"/><path class="cls-6" d="M184.77,128H156.08a4.73,4.73,0,0,1-4.73-4.73V35.86a1,1,0,1,1,2,0v87.41a2.74,2.74,0,0,0,2.73,2.73h28.69a2.73,2.73,0,0,0,2.73-2.73v-2.13a1,1,0,1,1,2,0v2.13A4.73,4.73,0,0,1,184.77,128Z"/><path class="cls-6" d="M188.5,98.41a1,1,0,0,1-1-1V4.73A2.73,2.73,0,0,0,184.77,2H156.08a2.74,2.74,0,0,0-2.73,2.73V20.51a1,1,0,0,1-2,0V4.73A4.73,4.73,0,0,1,156.08,0h28.69a4.73,4.73,0,0,1,4.73,4.73V97.41A1,1,0,0,1,188.5,98.41Z"/><path class="cls-5" d="M167.46,23.88a.5.5,0,0,1-.13-1l.29-.07a.49.49,0,0,1,.6.37.5.5,0,0,1-.37.6l-.26.07Z"/><path class="cls-5" d="M162.15,30.86h0a.5.5,0,0,1-.48-.52c0-.2.25-4.88,4.23-6.89a.5.5,0,0,1,.67.22.49.49,0,0,1-.22.67c-3.47,1.76-3.68,6-3.68,6A.5.5,0,0,1,162.15,30.86Z"/><circle class="cls-2" cx="121.51" cy="56.29" r="11.5"/><circle class="cls-5" cx="121.51" cy="51.51" r="11.5"/><path class="cls-6" d="M82.54,94a1,1,0,0,1-.61-.21,1,1,0,0,1-.18-1.41l28.52-36.74a1,1,0,0,1,1.58,1.22L83.33,93.65A1,1,0,0,1,82.54,94Z"/><path class="cls-2" d="M127.09,41.69a11.48,11.48,0,0,1-15.45,15.45,11.5,11.5,0,1,0,15.45-15.45Z"/><polygon class="cls-7" points="53.56 9.42 62.67 27.89 83.06 30.85 68.31 45.23 71.79 65.53 53.56 55.95 35.33 65.53 38.81 45.23 24.06 30.85 44.44 27.89 53.56 9.42"/><path class="cls-8" d="M68.31,45.64,71.79,66,53.56,56.36,35.33,66l1.85-10.81A54.85,54.85,0,0,0,57,48.29,55,55,0,0,0,75.73,30.2l7.33,1.07Z"/><path class="cls-6" d="M58.37,21a1,1,0,0,1-.9-.55L56.3,18.06a1,1,0,0,1,1.79-.89l1.18,2.39a1,1,0,0,1-.46,1.34A1,1,0,0,1,58.37,21Z"/><path class="cls-6" d="M73.12,68.19,53.56,57.91,34,68.19l3.73-21.78L21.91,31l21.87-3.18L53.56,8l2.78,5.64a1,1,0,0,1-1.79.89l-1-2L45.11,29.64l-18.9,2.74L39.88,45.71,36.65,64.54l16.91-8.89,16.9,8.89L67.23,45.71,80.91,32.38,62,29.64l-.92-1.87a1,1,0,0,1,.45-1.34,1,1,0,0,1,1.34.46l.46.92L85.21,31,69.38,46.41Z"/><path class="cls-6" d="M60.45,25.22a1,1,0,0,1-.89-.55l-.37-.75A1,1,0,1,1,61,23l.37.75a1,1,0,0,1-.45,1.34A1,1,0,0,1,60.45,25.22Z"/><g class="cls-11"><circle class="cls-5" cx="51.95" cy="36.9" r="6.36"/><circle class="cls-5" cx="44.63" cy="46.29" r="3.18"/></g><path class="cls-12" d="M53.87,23.65a1.5,1.5,0,0,0,0-3,1.5,1.5,0,0,0,0,3Z"/><path class="cls-12" d="M48.94,34a21.85,21.85,0,0,1,2.83-6.65c.77-1.23-1.18-2.36-1.94-1.13a23.77,23.77,0,0,0-3.06,7.18c-.32,1.41,1.84,2,2.17.6Z"/><path class="cls-6" d="M121.51,64A12.5,12.5,0,1,1,134,51.51,12.52,12.52,0,0,1,121.51,64Zm0-23A10.5,10.5,0,1,0,132,51.51,10.51,10.51,0,0,0,121.51,41Z"/><path class="cls-6" d="M188.56,116.27a1,1,0,0,1-1-1v-6.2a1,1,0,0,1,2,0v6.2A1,1,0,0,1,188.56,116.27Z"/><path class="cls-6" d="M188.56,105.29a1,1,0,0,1-1-1V103.1a1,1,0,1,1,2,0v1.19A1,1,0,0,1,188.56,105.29Z"/></g></g></svg>