<svg xmlns="http://www.w3.org/2000/svg" viewBox="0 0 243.03 130.31"><defs><style>.cls-1,.cls-12{opacity:0.3;}.cls-2{fill:#bddfe9;}.cls-3{fill:#e0f0f5;}.cls-4{fill:#a8ff8c;}.cls-5,.cls-6{fill:#fff;}.cls-6{opacity:0.7;}.cls-7{fill:#eef0f1;}.cls-8{fill:#183154;}.cls-11,.cls-12,.cls-9{fill:#8bbbc6;}.cls-10{fill:#389d9c;}.cls-11{opacity:0.8;}.cls-13{opacity:0.15;}.cls-14{fill:#fdfeff;}.cls-15{opacity:0.4;}</style></defs><title>Asset 6</title><g id="Layer_2" data-name="Layer 2"><g id="Layer_1-2" data-name="Layer 1"><g class="cls-1"><path class="cls-2" d="M54.56,45.05v73.06A5.52,5.52,0,0,1,49,123.63H39.47a7,7,0,1,0,0-14H7a7,7,0,1,1,0-14H24.74a7,7,0,0,0,0-14H7a7,7,0,0,1-7-7,7,7,0,0,1,7-7H29.85a7,7,0,1,0,0-14H16.63a7,7,0,0,1,0-14H49A5.52,5.52,0,0,1,54.56,45.05Z"/><path class="cls-2" d="M188.47,15V88.09A5.52,5.52,0,0,0,194,93.61h9.56a7,7,0,0,1,0-14H236a7,7,0,0,0,0-14H218.29a7,7,0,0,1-7-7,7,7,0,0,1,7-7H236a7,7,0,0,0,0-14H213.17a7,7,0,0,1,0-14H226.4a7,7,0,0,0,0-14H194A5.52,5.52,0,0,0,188.47,15Z"/></g><path class="cls-3" d="M191.61,119.61A10.38,10.38,0,0,1,181.24,130H44.91a8.17,8.17,0,0,1-8.17-8.18V13.67A8.17,8.17,0,0,1,44.91,5.5H147.43a10.38,10.38,0,0,0,0,20.75H167A10.38,10.38,0,0,1,167,47H133.19a10.37,10.37,0,1,0,0,20.74h26.24a10.38,10.38,0,0,1,0,20.75H133.19a10.38,10.38,0,1,0,0,20.75h48.05A10.37,10.37,0,0,1,191.61,119.61Z"/><path class="cls-2" d="M79.3,42.34A34.9,34.9,0,0,1,37,76.41l-.3-.07V70.46a34.59,34.59,0,0,1-19.41-7.17L17,63.08c-.47-.35-.94-.71-1.39-1.09l-.13-.18A34.87,34.87,0,0,1,44.44,7.48h.43a35.21,35.21,0,0,1,4.13.3h0A34.75,34.75,0,0,1,66.7,15.52c.26.2.51.42.75.64h0a34.84,34.84,0,0,1,8.69,11.67c.2.43.39.87.56,1.31A34.65,34.65,0,0,1,79.3,42.34Z"/><polygon class="cls-4" points="93.84 102.77 87.79 92.29 82.68 101.14 79.4 95.46 69.13 77.68 58.87 95.46 48.6 113.24 69.13 113.24 75.69 113.24 75.68 113.25 87.79 113.25 99.89 113.25 93.84 102.77"/><path class="cls-2" d="M203.57,13.67V121.81A8.17,8.17,0,0,1,195.4,130H181.24a10.38,10.38,0,0,0,0-20.75H133.19a10.38,10.38,0,1,1,0-20.75h26.24a10.38,10.38,0,0,0,0-20.75H133.19a10.37,10.37,0,1,1,0-20.74H167a10.38,10.38,0,0,0,0-20.75H147.43a10.38,10.38,0,0,1,0-20.75h48A8.17,8.17,0,0,1,203.57,13.67Z"/><path class="cls-5" d="M76.92,5.28H96.26a0,0,0,0,1,0,0v0a2.2,2.2,0,0,1-2.2,2.2H79.12a2.2,2.2,0,0,1-2.2-2.2v0A0,0,0,0,1,76.92,5.28Z"/><path class="cls-5" d="M76.92,19H96.26a0,0,0,0,1,0,0v0a2.2,2.2,0,0,1-2.2,2.2H79.12a2.2,2.2,0,0,1-2.2-2.2v0a0,0,0,0,1,0,0Z"/><path class="cls-6" d="M98.41,19h19.33a0,0,0,0,1,0,0v0a2.2,2.2,0,0,1-2.2,2.2H100.61a2.2,2.2,0,0,1-2.2-2.2v0A0,0,0,0,1,98.41,19Z"/><path class="cls-5" d="M54.56,5.28H73.89a0,0,0,0,1,0,0v0a2.2,2.2,0,0,1-2.2,2.2H56.76a2.2,2.2,0,0,1-2.2-2.2v0A0,0,0,0,1,54.56,5.28Z"/><polygon class="cls-7" points="25.07 36.67 20.5 34.28 15.36 34.74 17.74 30.17 17.28 25.03 21.86 27.41 27 26.95 24.61 31.53 25.07 36.67"/><circle class="cls-7" cx="21.75" cy="44.3" r="1.73"/><path class="cls-8" d="M113.41,5.83H105a1,1,0,0,1,0-2h8.38a1,1,0,0,1,0,2Z"/><path class="cls-8" d="M106.46,130.31H45.14A9.18,9.18,0,0,1,36,121.14V13a9.18,9.18,0,0,1,9.17-9.17H97.07a1,1,0,0,1,0,2H45.14A7.18,7.18,0,0,0,38,13V121.14a7.18,7.18,0,0,0,7.17,7.17h61.32a1,1,0,0,1,0,2Z"/><path class="cls-8" d="M123.11,130.31h-11a1,1,0,0,1,0-2h11a1,1,0,1,1,0,2Z"/><path class="cls-8" d="M128.15,130.31h-.82a1,1,0,1,1,0-2h.82a1,1,0,1,1,0,2Z"/><path class="cls-8" d="M195.63,130.31H132.9a1,1,0,0,1,0-2h62.73a7.17,7.17,0,0,0,7.17-7.17V63.77a1,1,0,1,1,2,0v57.37A9.18,9.18,0,0,1,195.63,130.31Z"/><path class="cls-8" d="M203.8,59.39a1,1,0,0,1-1-1V56.81a1,1,0,0,1,2,0v1.58A1,1,0,0,1,203.8,59.39Z"/><path class="cls-8" d="M203.8,52.56a1,1,0,0,1-1-1V43.14a1,1,0,1,1,2,0v8.42A1,1,0,0,1,203.8,52.56Z"/><path class="cls-8" d="M203.8,36.34a1,1,0,0,1-1-1V13a7.17,7.17,0,0,0-7.17-7.17H124.7a1,1,0,0,1,0-2h70.93A9.18,9.18,0,0,1,204.8,13V35.34A1,1,0,0,1,203.8,36.34Z"/><path class="cls-8" d="M119,5.83h-1.21a1,1,0,0,1,0-2H119a1,1,0,0,1,0,2Z"/><circle class="cls-9" cx="71.99" cy="12.02" r="2.12"/><circle class="cls-9" cx="78.09" cy="12.02" r="2.12"/><circle class="cls-9" cx="84.47" cy="12.02" r="2.12"/><path class="cls-8" d="M72.13,14.63A2.62,2.62,0,1,1,74.75,12,2.62,2.62,0,0,1,72.13,14.63Zm0-4.23A1.62,1.62,0,1,0,73.75,12,1.63,1.63,0,0,0,72.13,10.4Z"/><path class="cls-8" d="M78.23,14.63A2.62,2.62,0,1,1,80.85,12,2.62,2.62,0,0,1,78.23,14.63Zm0-4.23A1.62,1.62,0,1,0,79.85,12,1.63,1.63,0,0,0,78.23,10.4Z"/><path class="cls-8" d="M84.61,14.63A2.62,2.62,0,1,1,87.23,12,2.61,2.61,0,0,1,84.61,14.63Zm0-4.23A1.62,1.62,0,1,0,86.23,12,1.62,1.62,0,0,0,84.61,10.4Z"/><path class="cls-9" d="M181,41.39H120.39a2,2,0,0,1,0-4H181a2,2,0,0,1,0,4Z"/><path class="cls-9" d="M141,50.89H120.39a2,2,0,0,1,0-4H141a2,2,0,0,1,0,4Z"/><path class="cls-10" d="M141,72.51H120.39a2,2,0,0,1,0-4H141a2,2,0,0,1,0,4Z"/><path class="cls-9" d="M168.54,60.39H156.92a2,2,0,0,1,0-4h11.62a2,2,0,0,1,0,4Z"/><path class="cls-11" d="M186.81,60.39H175.19a2,2,0,0,1,0-4h11.62a2,2,0,0,1,0,4Z"/><path class="cls-9" d="M132,60.39H120.39a2,2,0,0,1,0-4H132a2,2,0,0,1,0,4Z"/><path class="cls-12" d="M150.27,60.39H138.66a2,2,0,0,1,0-4h11.61a2,2,0,0,1,0,4Z"/><path class="cls-9" d="M181,83.1H120.39a2,2,0,0,1,0-4H181a2,2,0,0,1,0,4Z"/><path class="cls-9" d="M141,92.6H120.39a2,2,0,0,1,0-4H141a2,2,0,0,1,0,4Z"/><path class="cls-10" d="M141,114.22H120.39a2,2,0,0,1,0-4H141a2,2,0,0,1,0,4Z"/><path class="cls-9" d="M168.54,102.1H156.92a2,2,0,0,1,0-4h11.62a2,2,0,0,1,0,4Z"/><path class="cls-11" d="M186.81,102.1H175.19a2,2,0,0,1,0-4h11.62a2,2,0,0,1,0,4Z"/><path class="cls-9" d="M132,102.1H120.39a2,2,0,0,1,0-4H132a2,2,0,0,1,0,4Z"/><path class="cls-12" d="M150.27,102.1H138.66a2,2,0,0,1,0-4h11.61a2,2,0,0,1,0,4Z"/><path class="cls-4" d="M74.19,35.66A34.85,34.85,0,0,1,39.33,70.51c-.51,0-1,0-1.53,0h-.3a34.59,34.59,0,0,1-19.41-7.17l-.28-.21c-.52-.41-1-.84-1.52-1.27a34.86,34.86,0,0,1,41-56.06c.9.54,1.77,1.12,2.61,1.73l.13.09a35.22,35.22,0,0,1,8.24,8.59h0a34.58,34.58,0,0,1,5.07,11.67c.1.43.19.87.27,1.31A34.88,34.88,0,0,1,74.19,35.66Z"/><path class="cls-10" d="M74.54,36.16A34.86,34.86,0,0,1,39.68,71c-.29,0-.59,0-.88,0-.1,0-.2,0-.3,0a34.61,34.61,0,0,1-19.41-6.71l-.28-.21c-.47-.35-.94-.71-1.39-1.09a35.12,35.12,0,0,1-7.3-8.35c.18.12.37.23.56.34A31.59,31.59,0,0,0,14,56.75a34.71,34.71,0,0,0,14.55,3.19,34.87,34.87,0,0,0,9.91-1.43l.3-.09A34.88,34.88,0,0,0,63.08,30.15c.07-.44.12-.87.17-1.31a35.84,35.84,0,0,0,.2-3.76,34.77,34.77,0,0,0-.61-6.5,34.35,34.35,0,0,0-2.07-6.92,33.12,33.12,0,0,0-1.52-3.18c-.32-.59-.65-1.17-1-1.73l-.1-.16a31.3,31.3,0,0,1,2.71,1.89h0l.12.09a34.92,34.92,0,0,1,7.49,8,34.41,34.41,0,0,1,5.28,12.32c.1.43.19.87.26,1.31A35,35,0,0,1,74.54,36.16Z"/><path class="cls-5" d="M39.34,47.89a3.21,3.21,0,0,1-2.09-.77l-8.14-7A3,3,0,1,1,33,35.59l5.77,4.95L47,28.46a3,3,0,1,1,5,3.37L42,46.49a3.24,3.24,0,0,1-2.24,1.38A3,3,0,0,1,39.34,47.89Z"/><g class="cls-13"><circle class="cls-5" cx="25.95" cy="16.02" r="6.36"/><circle class="cls-5" cx="18.62" cy="25.41" r="3.18"/></g><path class="cls-8" d="M4.82,41.81a1,1,0,0,1-1-.86,37.63,37.63,0,0,1-.35-5.09,1,1,0,0,1,2,0,35.13,35.13,0,0,0,.33,4.81A1,1,0,0,1,5,41.8Z"/><path class="cls-8" d="M6.69,49.13a1,1,0,0,1-.93-.65A37,37,0,0,1,4.6,44.82a1,1,0,0,1,.72-1.22,1,1,0,0,1,1.22.72,35.55,35.55,0,0,0,1.09,3.46,1,1,0,0,1-.58,1.28A.92.92,0,0,1,6.69,49.13Z"/><path class="cls-14" d="M15.88,33.68a1.5,1.5,0,0,0,0-3,1.5,1.5,0,0,0,0,3Z"/><path class="cls-14" d="M18.77,44.46a21.19,21.19,0,0,1-1.54-6.75c-.1-1.44-2.35-1.45-2.25,0a24.63,24.63,0,0,0,1.85,7.89c.56,1.33,2.5.18,1.94-1.14Z"/><path class="cls-8" d="M203.8,19.08H70.06a1,1,0,0,1,0-2H203.8a1,1,0,0,1,0,2Z"/><path class="cls-8" d="M101.56,114.73H73.91v0H46.81L69.07,76.16,82.61,99.62l5.12-8.86Zm-24.23-2H98.1l-10.37-18-5.12,8.86L69.07,80.16l-18.8,32.55H77.34Z"/><path class="cls-8" d="M39.33,71.71c-.53,0-1.07,0-1.59,0H37.4a35.43,35.43,0,0,1-19.92-7.38l-.25-.18c-.58-.45-1.09-.89-1.6-1.33a35.82,35.82,0,0,1-6.8-8.06A34,34,0,0,1,7.1,51.58a1,1,0,1,1,1.79-.88c.5,1,1,2,1.64,2.95A33.58,33.58,0,0,0,17,61.26c.48.41,1,.83,1.47,1.24l.28.2a33.54,33.54,0,0,0,18.85,7h.25c.54,0,1,0,1.53,0A33.89,33.89,0,0,0,73.19,35.86a33.42,33.42,0,0,0-.6-6.32c-.08-.43-.16-.86-.26-1.27A33.42,33.42,0,0,0,67.46,17l-.06-.09a34,34,0,0,0-7.94-8.3l-.15-.1q-1.32-1-2.58-1.71a33.86,33.86,0,0,0-50.8,23.5A1,1,0,0,1,4,30,35.88,35.88,0,0,1,57.76,5.09c.89.54,1.8,1.14,2.68,1.78l.14.1A36,36,0,0,1,69,15.71l.07.1a35.27,35.27,0,0,1,5.22,12c.1.44.2.89.28,1.35a36.45,36.45,0,0,1,.63,6.69A35.9,35.9,0,0,1,39.33,71.71Z"/><g class="cls-15"><circle class="cls-5" cx="34.91" cy="18.08" r="6.36"/><circle class="cls-5" cx="27.58" cy="27.47" r="3.18"/></g><circle class="cls-4" cx="81.14" cy="74.8" r="6.3"/><path class="cls-8" d="M81.49,82.1a7.3,7.3,0,1,1,7.3-7.3A7.31,7.31,0,0,1,81.49,82.1Zm0-12.59a5.3,5.3,0,1,0,5.3,5.29A5.3,5.3,0,0,0,81.49,69.51Z"/></g></g></svg>