<?xml version="1.0" encoding="utf-8"?>
<!-- Generator: Adobe Illustrator 22.0.1, SVG Export Plug-In . SVG Version: 6.00 Build 0)  -->
<svg version="1.1" id="Calque_1" xmlns="http://www.w3.org/2000/svg" xmlns:xlink="http://www.w3.org/1999/xlink" x="0px" y="0px"
	 viewBox="0 0 72 72" style="enable-background:new 0 0 72 72;" xml:space="preserve">
<style type="text/css">
	.st0{fill:#B8E9F4;}
	.st1{fill:#BAC3C6;}
	.st2{fill:#014F7A;}
</style>
<path class="st0" d="M36.2,72c19.9,0,36-16.1,36-36S56.1,0,36.2,0s-36,16.1-36,36S16.3,72,36.2,72z"/>
<g>
	<path class="st1" d="M30.3,45.7c0-2-1.6-3.6-3.6-3.6s-3.6,1.6-3.6,3.6v1.8c0,1-0.9,1.9-1.9,1.9v1.8h3.7
		C27.9,51.2,30.3,48.7,30.3,45.7L30.3,45.7z"/>
	<path class="st1" d="M36.3,27.9c-0.5,0.1-0.8,0.6-0.6,1.1c0.1,0.5,0.6,0.8,1.1,0.6c0.5-0.1,0.8-0.6,0.6-1.1
		C37.3,28.1,36.8,27.8,36.3,27.9z"/>
	<path class="st1" d="M31.2,34.8c0.5,0.1,1-0.2,1.1-0.6c0.1-0.5-0.2-1-0.6-1.1h0c-0.3-0.1-0.3,0-0.5,0
		C31.2,33.6,31.2,34.2,31.2,34.8C31.2,34.8,31.2,34.8,31.2,34.8z"/>
	<path class="st1" d="M41.2,42.5c-0.1-0.5-0.6-0.8-1.1-0.6c-0.5,0.1-0.8,0.6-0.6,1.1c0.1,0.5,0.6,0.8,1.1,0.6
		C41,43.5,41.3,43,41.2,42.5L41.2,42.5z"/>
	<path class="st1" d="M44.2,31.3c0.4-0.4,0.4-0.9,0-1.3c-0.4-0.4-0.9-0.4-1.3,0c-0.4,0.4-0.4,0.9,0,1.3
		C43.3,31.6,43.8,31.6,44.2,31.3z"/>
	<path class="st1" d="M38.5,22.2c-3,0.1-5.7,1.3-7.9,2.8c0.2,1.7,0.4,3.7,0.5,6.3c0.3,0,0.7,0,1,0.1c1.4,0.4,2.3,1.9,1.9,3.3
		c-0.3,1.2-1.4,2-2.6,2c-0.1,0-0.2,0-0.3,0c0,1.4,0,2.9-0.1,4.2c0.9,0.4,1.7,0.9,2.1,1.6c1,1.3,0.7,2.9,0.6,3.4
		c-0.3,1.5,0.6,3,2.1,3.3c0.9,0.2,1.7,0.2,2.6,0.2c7.4,0,13.7-6,13.6-13.7C52,27.9,45.3,21.9,38.5,22.2z M41.6,28.7
		c1.1-1.1,2.8-1.1,3.8,0c1.1,1.1,1.1,2.8,0,3.8v0c-1.1,1.1-2.8,1.1-3.8,0C40.6,31.5,40.6,29.8,41.6,28.7L41.6,28.7z M33.9,29.5
		c-0.4-1.4,0.5-2.9,1.9-3.3c1.4-0.4,2.9,0.5,3.3,1.9c0.4,1.4-0.5,2.9-1.9,3.3C35.8,31.8,34.3,30.9,33.9,29.5L33.9,29.5z M41,45.4
		c-1.4,0.4-2.9-0.5-3.3-1.9c-0.4-1.4,0.5-2.9,1.9-3.3c1.5-0.4,2.9,0.5,3.3,1.9C43.3,43.5,42.5,45,41,45.4z M48,38.3
		c-0.4,1.4-1.9,2.3-3.3,1.9c-1.4-0.4-2.3-1.9-1.9-3.3c0.4-1.5,1.9-2.3,3.3-1.9C47.6,35.4,48.4,36.9,48,38.3L48,38.3z"/>
	<path class="st1" d="M45.7,36.8c-0.5-0.1-1,0.1-1.1,0.6c-0.1,0.5,0.2,1,0.6,1.1c0.5,0.1,1-0.2,1.1-0.6
		C46.4,37.4,46.1,36.9,45.7,36.8L45.7,36.8z"/>
	<path class="st1" d="M29.4,36.7c0-0.3,0-0.6,0-0.9c0-7-0.5-15.4-2.7-15.4S24,28.8,24,35.8c0,0.3,0,0.6,0,0.9H29.4z"/>
	<path class="st1" d="M26.7,40.3c0.9,0,1.8,0.3,2.6,0.7c0-0.8,0.1-1.6,0.1-2.5H24c0,0.8,0.1,1.7,0.1,2.5
		C24.9,40.6,25.7,40.3,26.7,40.3z"/>
</g>
<g>
	<path class="st2" d="M29.3,47.7c0-2-1.6-3.6-3.6-3.6s-3.6,1.6-3.6,3.6v1.8c0,1-0.9,1.9-1.9,1.9v1.8h3.7
		C26.9,53.2,29.3,50.7,29.3,47.7L29.3,47.7z"/>
	<path class="st2" d="M35.3,29.9c-0.5,0.1-0.8,0.6-0.6,1.1c0.1,0.5,0.6,0.8,1.1,0.6c0.5-0.1,0.8-0.6,0.6-1.1
		C36.3,30.1,35.8,29.8,35.3,29.9z"/>
	<path class="st2" d="M30.2,36.8c0.5,0.1,1-0.2,1.1-0.6c0.1-0.5-0.2-1-0.6-1.1h0c-0.3-0.1-0.3,0-0.5,0
		C30.2,35.6,30.2,36.2,30.2,36.8C30.2,36.8,30.2,36.8,30.2,36.8z"/>
	<path class="st2" d="M40.2,44.5c-0.1-0.5-0.6-0.8-1.1-0.6c-0.5,0.1-0.8,0.6-0.6,1.1c0.1,0.5,0.6,0.8,1.1,0.6
		C40,45.5,40.3,45,40.2,44.5L40.2,44.5z"/>
	<path class="st2" d="M43.2,33.3c0.4-0.4,0.4-0.9,0-1.3c-0.4-0.4-0.9-0.4-1.3,0c-0.4,0.4-0.4,0.9,0,1.3
		C42.3,33.6,42.8,33.6,43.2,33.3z"/>
	<path class="st2" d="M37.5,24.2c-3,0.1-5.7,1.3-7.9,2.8c0.2,1.7,0.4,3.7,0.5,6.3c0.3,0,0.7,0,1,0.1c1.4,0.4,2.3,1.9,1.9,3.3
		c-0.3,1.2-1.4,2-2.6,2c-0.1,0-0.2,0-0.3,0c0,1.4,0,2.9-0.1,4.2c0.9,0.4,1.7,0.9,2.1,1.6c1,1.3,0.7,2.9,0.6,3.4
		c-0.3,1.5,0.6,3,2.1,3.3c0.9,0.2,1.7,0.2,2.6,0.2c7.4,0,13.7-6,13.6-13.7C51,29.9,44.3,23.9,37.5,24.2z M40.6,30.7
		c1.1-1.1,2.8-1.1,3.8,0c1.1,1.1,1.1,2.8,0,3.8v0c-1.1,1.1-2.8,1.1-3.8,0C39.6,33.5,39.6,31.8,40.6,30.7L40.6,30.7z M32.9,31.5
		c-0.4-1.4,0.5-2.9,1.9-3.3c1.4-0.4,2.9,0.5,3.3,1.9c0.4,1.4-0.5,2.9-1.9,3.3C34.8,33.8,33.3,32.9,32.9,31.5L32.9,31.5z M40,47.4
		c-1.4,0.4-2.9-0.5-3.3-1.9c-0.4-1.4,0.5-2.9,1.9-3.3c1.5-0.4,2.9,0.5,3.3,1.9C42.3,45.5,41.5,47,40,47.4z M47,40.3
		c-0.4,1.4-1.9,2.3-3.3,1.9c-1.4-0.4-2.3-1.9-1.9-3.3c0.4-1.5,1.9-2.3,3.3-1.9C46.6,37.4,47.4,38.9,47,40.3L47,40.3z"/>
	<path class="st2" d="M44.7,38.8c-0.5-0.1-1,0.1-1.1,0.6c-0.1,0.5,0.2,1,0.6,1.1c0.5,0.1,1-0.2,1.1-0.6
		C45.4,39.4,45.1,38.9,44.7,38.8L44.7,38.8z"/>
	<path class="st2" d="M28.4,38.7c0-0.3,0-0.6,0-0.9c0-7-0.5-15.4-2.7-15.4S23,30.8,23,37.8c0,0.3,0,0.6,0,0.9H28.4z"/>
	<path class="st2" d="M25.7,42.3c0.9,0,1.8,0.3,2.6,0.7c0-0.8,0.1-1.6,0.1-2.5H23c0,0.8,0.1,1.7,0.1,2.5
		C23.9,42.6,24.7,42.3,25.7,42.3z"/>
</g>
</svg>
