<?xml version="1.0" encoding="utf-8"?>
<!-- Generator: Adobe Illustrator 22.0.1, SVG Export Plug-In . SVG Version: 6.00 Build 0)  -->
<svg version="1.1" id="Calque_1" xmlns="http://www.w3.org/2000/svg" xmlns:xlink="http://www.w3.org/1999/xlink" x="0px" y="0px"
	 viewBox="0 0 72 72" style="enable-background:new 0 0 72 72;" xml:space="preserve">
<style type="text/css">
	.st0{fill:#B8E9F4;}
	.st1{fill:#BAC3C6;}
	.st2{fill:#014F7A;}
</style>
<path class="st0" d="M36,72c19.9,0,36-16.1,36-36S55.9,0,36,0S0,16.1,0,36S16.1,72,36,72z"/>
<g>
	<g>
		<path class="st1" d="M44,36.1c19-12.2,12.9-10.2,11-11.4c-0.9-0.5-4.7-1.5-18.3,6.8l-16.1-4.1c-0.5-0.1-1,0-1.4,0.2l-3.6,2.3
			c-0.6,0.4-0.5,1,0.3,1.3l13.9,4.9c-3.2,2.2-6.1,4.4-8.3,6.2h-6.8c-0.3,0-0.7,0.1-0.9,0.2l-1.8,1.1c-0.3,0.2-0.4,0.5-0.3,0.8
			c0.1,0.3,0.4,0.5,0.8,0.6l5.1,1.1c-0.6,0.8-1,1.6-0.1,2.2c0.9,0.5,2.2,0.3,3.5-0.1l1.7,3.2c0.1,0.3,0.5,0.5,0.9,0.5
			c0.4,0.1,0.9,0,1.2-0.2l1.8-1.1c0.2-0.2,0.4-0.4,0.4-0.6v-4.3c2.9-1.4,6.4-3.2,9.9-5.2l7.7,8.7c0.4,0.5,1.4,0.5,2,0.2l3.6-2.3
			c0.4-0.2,0.5-0.6,0.3-0.9L44,36.1z"/>
	</g>
</g>
<g>
	<g>
		<path class="st2" d="M44.5,33.7c13.3-8.5,11.9-10.9,11-11.4c-0.9-0.5-4.7-1.5-18.3,6.8l-16.1-4.1c-0.5-0.1-1,0-1.4,0.2L16,27.5
			c-0.6,0.4-0.5,1,0.3,1.3l13.9,4.9c-3.2,2.2-6.1,4.4-8.3,6.2h-6.8c-0.3,0-0.7,0.1-0.9,0.2l-1.8,1.1c-0.3,0.2-0.4,0.5-0.3,0.8
			c0.1,0.3,0.4,0.5,0.8,0.6l5.1,1.1c-0.6,0.8-1,1.6-0.1,2.2c0.9,0.5,2.2,0.3,3.5-0.1l1.7,3.2c0.1,0.3,0.5,0.5,0.9,0.5
			c0.4,0.1,0.9,0,1.2-0.2l1.8-1.1c0.2-0.2,0.4-0.4,0.4-0.6v-4.3c2.9-1.4,6.4-3.2,9.9-5.2l7.7,8.7c0.4,0.5,1.4,0.5,2,0.2l3.6-2.3
			c0.4-0.2,0.5-0.6,0.3-0.9L44.5,33.7z"/>
	</g>
</g>
</svg>
