<?xml version="1.0" encoding="utf-8"?>
<!-- Generator: Adobe Illustrator 22.0.1, SVG Export Plug-In . SVG Version: 6.00 Build 0)  -->
<svg version="1.1" id="Calque_1" xmlns="http://www.w3.org/2000/svg" xmlns:xlink="http://www.w3.org/1999/xlink" x="0px" y="0px"
	 viewBox="0 0 72 72" style="enable-background:new 0 0 72 72;" xml:space="preserve">
<style type="text/css">
	.st0{fill:#B8E9F4;}
	.st1{fill:#014F7A;}
</style>
<path class="st0" d="M36,72c19.9,0,36-16.1,36-36S55.9,0,36,0S0,16.1,0,36S16.1,72,36,72z"/>
<g transform="translate(-1 -1)">
	<g>
		<g>
			<path class="st1" d="M36.3,27.2l1-1.6c-0.3-0.2-0.5-0.4-0.7-0.8l-1.7,0.3c0,0,0,0.1,0,0.1c0,0.3-0.1,0.6-0.2,0.8L36.3,27.2z"/>
			<circle class="st1" cx="40.7" cy="29" r="0.5"/>
			<circle class="st1" cx="38.1" cy="24.2" r="0.5"/>
			<path class="st1" d="M38,28.5h1.3c0.1-0.3,0.3-0.6,0.5-0.7l-1.6-1.6l-0.9,1.5C37.6,27.8,37.8,28.1,38,28.5z"/>
			<path class="st1" d="M32.6,28.5H35c0.1-0.2,0.2-0.4,0.4-0.6l-1.7-1.1c-0.3,0.1-0.7,0.1-1,0L32,27.7
				C32.3,27.9,32.5,28.2,32.6,28.5z"/>
			<circle class="st1" cx="33.3" cy="25.3" r="0.5"/>
			<circle class="st1" cx="36.5" cy="29" r="0.5"/>
			<path class="st1" d="M46.7,32.4C46.7,32.4,46.7,32.4,46.7,32.4c0.1,0.3,0.4,0.4,0.7,0.3c0.3-0.1,0.4-0.4,0.4-0.6
				c-0.1-0.3-0.3-0.4-0.6-0.4c-0.3,0-0.5,0.3-0.5,0.5C46.6,32.3,46.6,32.4,46.7,32.4L46.7,32.4z"/>
			<path class="st1" d="M45.4,28.4C45.4,28.4,45.4,28.4,45.4,28.4L45.4,28.4c0.1,0,0.1,0,0.2,0c0.3,0,0.5-0.2,0.5-0.5
				c0-0.3-0.2-0.5-0.4-0.6c-0.3-0.1-0.5,0.1-0.6,0.4C45,28.1,45.1,28.3,45.4,28.4z"/>
			<circle class="st1" cx="42.4" cy="25.3" r="0.5"/>
			<path class="st1" d="M42.2,28.4L44,28c0,0,0-0.1,0-0.1c0-0.2,0-0.4,0.1-0.6l-0.9-0.7c-0.2,0.1-0.5,0.2-0.8,0.2
				c-0.9,0-1.6-0.7-1.6-1.6c0,0,0-0.1,0-0.1l-1.2-0.3c-0.1,0.2-0.3,0.5-0.5,0.6l2,2C41.5,27.5,42,27.9,42.2,28.4z"/>
			<path class="st1" d="M43.6,32.8L43.6,32.8c-0.1,0-0.1,0-0.2,0c-0.3,0-0.5,0.2-0.5,0.5c0,0.3,0.2,0.5,0.4,0.6
				c0.3,0.1,0.5-0.1,0.6-0.4C44,33.2,43.9,32.9,43.6,32.8C43.6,32.8,43.6,32.8,43.6,32.8z"/>
			<path class="st1" d="M41.8,30.2l1.7,1.4l1-2.5c0,0-0.1-0.1-0.1-0.1l-2.1,0.4C42.2,29.8,42,30,41.8,30.2z"/>
			<path class="st1" d="M43.4,34.9c-0.6,0-1.2-0.4-1.5-1l-1.8,0.4c-0.1,0.2-0.2,0.4-0.3,0.6l1.8,2.7c0.6-0.1,1.2,0.2,1.6,0.7
				l0.9-0.7C44,37.4,44,37.2,44,37.1c0-0.5,0.3-1.1,0.7-1.4L44,34.8C43.8,34.9,43.6,34.9,43.4,34.9z"/>
			<path class="st1" d="M41.9,32.9c0.1-0.3,0.3-0.6,0.5-0.8l-1.5-1.2l-1.1,1.9c0.1,0.1,0.2,0.3,0.3,0.5L41.9,32.9z"/>
			<path class="st1" d="M45.6,32.3C45.6,32.3,45.6,32.3,45.6,32.3c0-0.6,0.3-1.2,0.8-1.5l-0.6-1.3c-0.1,0-0.1,0-0.2,0c0,0,0,0-0.1,0
				l-1,2.6c0.2,0.1,0.3,0.3,0.4,0.5L45.6,32.3z"/>
			<circle class="st1" cx="41.8" cy="39.2" r="0.5"/>
			<path class="st1" d="M46.9,43.4c1.3-2.4,2.3-4.9,2.8-7.6c0.8-4.2-0.5-9.9-5-12.6c-2.9-1.6-6.3-2-9.5-1.2
				c-4.5,1.2-7.7,4.3-8.7,8.5c-0.2,0.8-0.3,1.6-0.3,2.5c0,0.3,0.1,0.6,0.1,0.9c0.6-0.5,1.3-0.8,2.1-1c0.4-0.1,0.9-0.1,1.3,0.1
				c0.2,0.1,0.3,0.2,0.4,0.4c0,0.2,0,0.4-0.1,0.5c-0.1,0.1-0.3,0.2-0.5,0.1c-0.3-0.1-0.5-0.1-0.8-0.1c-0.7,0.2-1.4,0.6-2,1.1
				c0.2,0.6,0.2,1.3,0.2,2c0,1.2-0.8,2.3-1.4,3.2c-0.3,0.4-0.8,1.2-0.7,1.4c0,0,0.1,0.1,0.5,0.2c0.4,0,0.8,0.2,1.1,0.5
				c0.3,0.3,0.5,0.7,0.4,1.1c0,0.4,0,0.7,0,1.1c0.1,0,0.3,0,0.5,0c0.2,0,0.5,0.2,0.5,0.4c0.1,0.2-0.1,0.5-0.3,0.6
				c-0.1,0.1-0.2,0.2-0.4,0.3c0.1,0.1,0.2,0.1,0.3,0.1c0.5,0.1,0.9,0.4,0.9,1.3c0,0.2,0,0.5,0,0.7c-0.1,0.8-0.1,1.2,0.8,1.5
				c1.4,0.5,7.7-1,9.2-3c0.2-0.2,0.5-0.3,0.7-0.1c0.2,0.2,0.3,0.5,0.1,0.7c-0.7,0.9-2,1.6-3.6,2.2c0.4,0.7,0.7,1.5,0.8,2.3h11.8
				c-1-1.7-2.1-5.1-2.2-6.4c0-0.1,0-0.2,0-0.2C46.3,44.4,46.6,43.9,46.9,43.4z M45.6,38.7c-0.3,0-0.6-0.1-0.8-0.2l-1.3,1.1
				c-0.1,0.7-0.6,1.2-1.3,1.3c-0.7,0.1-1.3-0.2-1.7-0.8c-0.3-0.6-0.2-1.3,0.2-1.8l-1.8-2.7c-0.8,0.1-1.5-0.3-1.8-1h-2.9
				c-0.2,0.6-0.8,1-1.5,1.1c-0.7,0-1.3-0.4-1.5-1c-0.3-0.6-0.1-1.3,0.3-1.8l-0.9-2.1c-0.7-0.2-1.2-0.8-1.2-1.6
				c0-0.8,0.6-1.4,1.3-1.5l1-1.4c-0.1-0.2-0.2-0.5-0.2-0.8c0-0.7,0.4-1.2,1-1.5c0.6-0.2,1.3-0.1,1.8,0.4l2.1-0.4
				c0.2-0.7,0.8-1.2,1.5-1.2c0.7,0,1.3,0.5,1.5,1.2l1.6,0.4c0.5-0.6,1.4-0.7,2-0.3s0.9,1.2,0.6,1.9l0.9,0.7c0.2-0.1,0.5-0.2,0.8-0.2
				c0.6,0,1.2,0.4,1.5,1c0.3,0.6,0.1,1.3-0.3,1.7l0.8,1.6c0.7,0.1,1.2,0.7,1.3,1.4c0.1,0.7-0.3,1.4-1,1.6c-0.6,0.3-1.4,0.1-1.8-0.4
				l-1,0.4c0,0.1-0.1,0.3-0.1,0.4l1,1.4c0.8,0.2,1.4,0.9,1.3,1.7C47.1,38,46.4,38.7,45.6,38.7z"/>
			<circle class="st1" cx="31.1" cy="29" r="0.5"/>
			<circle class="st1" cx="45.6" cy="37" r="0.5"/>
			<circle class="st1" cx="38.6" cy="33.8" r="0.5"/>
			<path class="st1" d="M35,29.6h-2.3c-0.1,0.4-0.4,0.7-0.8,0.9l0.7,1.8c0.1,0,0.1,0,0.2,0c0.1,0,0.2,0,0.3,0l2.4-2
				C35.2,30.1,35.1,29.8,35,29.6z"/>
			<circle class="st1" cx="32.7" cy="33.8" r="0.5"/>
			<path class="st1" d="M34,32.9c0.1,0.1,0.2,0.3,0.2,0.4h2.9c0.1-0.2,0.2-0.5,0.4-0.6l-0.9-2L34,32.9z"/>
			<path class="st1" d="M38.6,32.2c0.1,0,0.1,0,0.2,0l1.1-1.9c-0.3-0.2-0.6-0.5-0.7-0.8H38c-0.1,0.2-0.2,0.5-0.4,0.6l0.9,2.1
				C38.5,32.2,38.6,32.2,38.6,32.2z"/>
		</g>
	</g>
</g>
</svg>
