<?xml version="1.0" encoding="utf-8"?>
<!-- Generator: Adobe Illustrator 22.0.1, SVG Export Plug-In . SVG Version: 6.00 Build 0)  -->
<svg version="1.1" id="Calque_1" xmlns="http://www.w3.org/2000/svg" xmlns:xlink="http://www.w3.org/1999/xlink" x="0px" y="0px"
	 viewBox="0 0 72 72" style="enable-background:new 0 0 72 72;" xml:space="preserve">
<style type="text/css">
	.st0{fill:#5EA4DD;}
	.st1{fill:none;stroke:#014F7A;stroke-width:4.7418;stroke-linecap:round;stroke-linejoin:round;}
	.st2{fill:#014F7A;}
</style>
<circle class="st0" cx="36" cy="36" r="36"/>
<polyline class="st1" points="47.2,51.4 61.5,37.3 47.2,23.2 "/>
<polyline class="st1" points="28,23.2 13.7,37.3 28,51.4 "/>
<g>
	<path class="st2" d="M65.2,38.1c-0.8,1.9-1.9,3.5-3,5c-0.5,0.8-1.2,1.5-1.8,2.2c-0.6,0.7-1.3,1.4-1.9,2.1c-0.7,0.7-1.4,1.3-2.1,2
		c-0.7,0.6-1.4,1.3-2.2,1.9c-1.5,1.2-3.1,2.3-4.9,3.2l-0.1-0.1l7.9-8.3l8-8.1L65.2,38.1z"/>
</g>
<g>
	<path class="st2" d="M31.1,24.2c-0.6,1.6-1.3,2.9-2.2,4.2c-0.4,0.7-0.9,1.2-1.4,1.8c-0.5,0.6-1,1.1-1.5,1.7
		c-0.6,0.5-1.1,1.1-1.7,1.6c-0.6,0.5-1.2,1-1.8,1.4c-1.2,0.9-2.6,1.8-4.1,2.4l-0.1-0.1l6.3-6.6l6.4-6.5L31.1,24.2z"/>
</g>
</svg>
