<?xml version="1.0" encoding="utf-8"?>
<!-- Generator: Adobe Illustrator 22.0.1, SVG Export Plug-In . SVG Version: 6.00 Build 0)  -->
<svg version="1.1" id="Calque_1" xmlns="http://www.w3.org/2000/svg" xmlns:xlink="http://www.w3.org/1999/xlink" x="0px" y="0px"
	 viewBox="0 0 72 72" style="enable-background:new 0 0 72 72;" xml:space="preserve">
<style type="text/css">
	.st0{fill:#B8E9F4;}
	.st1{fill:#014F7A;}
</style>
<path class="st0" d="M36,72c19.9,0,36-16.1,36-36S55.9,0,36,0S0,16.1,0,36S16.1,72,36,72z"/>
<path class="st1" d="M34.4,21.1c-3.9,0-6.8,3.5-6.2,7.3c0.1,0.5,0.5,0.8,1,0.7c0.5-0.1,0.8-0.5,0.7-1c-0.5-2.8,1.6-5.3,4.4-5.3
	c2.8,0,4.9,2.5,4.4,5.2c-0.1,0.5,0.2,0.9,0.7,1c0.5,0.1,0.9-0.2,1-0.7C41.3,24.6,38.3,21.1,34.4,21.1z"/>
<path class="st1" d="M43.9,35.4c-0.7-1.3-2.3-1.8-3.6-1.2c-0.6-1.2-2-1.8-3.3-1.3v-5.5c0-1.5-1.2-2.7-2.6-2.7
	c-1.5,0-2.8,1.2-2.8,2.7v13.7l-1-1.1c-1-1.1-2.7-1.1-3.8-0.2c-1.1,1-1.2,2.7-0.1,3.8l6,6.4c0.8,0.9,2,1.4,3.3,1.4h7.3
	c2.5,0,4.5-2,4.5-4.5v-9.3C47.8,35.8,45.7,34.5,43.9,35.4z"/>
</svg>
