<?xml version="1.0" encoding="utf-8"?>
<!-- Generator: Adobe Illustrator 22.0.1, SVG Export Plug-In . SVG Version: 6.00 Build 0)  -->
<svg version="1.1" id="Layer_1" xmlns="http://www.w3.org/2000/svg" xmlns:xlink="http://www.w3.org/1999/xlink" x="0px" y="0px"
	 viewBox="0 0 400 450" style="enable-background:new 0 0 400 450;" xml:space="preserve">
<style type="text/css">
	.st0{fill:#F3F3F3;}
	.st1{opacity:0.45;}
	.st2{fill:#B9BAC6;}
	.st3{fill:#FFFFFF;}
	.st4{fill:#71C8EC;}
	.st5{fill:#F2F2F2;}
	.st6{fill:#63B7FF;}
	.st7{opacity:0.1;enable-background:new    ;}
	.st8{fill:none;}
	.st9{fill:#3F3D56;}
	.st10{fill:#FF6584;}
</style>
<rect x="287.8" y="152.6" class="st0" width="92.5" height="1.3"/>
<rect x="312.9" y="141.1" class="st0" width="1.3" height="11.9"/>
<rect x="353.2" y="141.1" class="st0" width="1.3" height="11.9"/>
<g class="st1">
	<path class="st2" d="M195.1,111.9l8.7-25.9c6.2-18.5-0.5-38.9-16.4-50.2h0.1c-3.4-2.4-7.2-4.3-11.2-5.7l0,0h-0.1h-0.1l0,0
		c-3.9-1.3-7.9-2.1-12-2.3c-1.4-0.1-2.9-0.1-4.3,0c-2.5,0.1-5,0.5-7.4,1c-0.7,0.2-1.4,0.3-2.1,0.5c-0.6,0.2-1.4,0.4-2,0.6
		c-1.3,0.4-2.7,0.9-4,1.5c-0.7,0.3-1.3,0.6-1.9,0.9c-1.9,0.9-3.7,2-5.5,3.2c-0.6,0.4-1.2,0.8-1.7,1.2c-7,5.3-12.3,12.6-15.1,21
		l-13.7,40.9c-2.2,6.4-2.8,13.2-1.9,19.9c0.1,1,0.3,2,0.5,3.1c0.2,1,0.5,2,0.7,3c0.2,0.7,0.4,1.3,0.6,2c0.3,1,0.7,1.9,1.1,2.9
		c0.3,0.6,0.5,1.3,0.8,1.9c0.6,1.2,1.2,2.5,1.9,3.6c0.7,1.2,1.4,2.3,2.2,3.5c0.6,0.8,1.2,1.7,1.9,2.5c0.9,1.1,1.8,2.1,2.8,3.1
		c4.2,4.3,9.3,7.6,14.9,9.8l0,0l0,0l0.2,0.1c0.3-0.5,0.6-1,1-1.5c2.1-2.9,5.8-5,9.3-4.2c0.3,0.1,0.5,0.1,0.8,0.2
		c1.8,0.6,3.5,1.8,5.3,2.3c1.3,0.6,2.7,0.6,4,0c3.4-1.8,2.2-7.6,5.1-10.2c0.1-0.1,0.3-0.2,0.4-0.3c0-0.1-0.1-0.1-0.1-0.2
		c2.3-1.4,5.4-0.5,8.1,0.4c2.8,1,6.5,1.7,8.5-0.6c1.3-1.6,1.2-4,2.5-5.7c1.5-1.9,4.3-2.1,6.7-1.8h0.1c4.6,1.9,9.6-1.3,9.3-6.2
		C192.6,119.5,194.6,113.3,195.1,111.9z"/>
</g>
<path class="st3" d="M133.9,149c2.1-2.8,5.6-4.8,9-4s6.6,4,9.7,2.4c4.1-2.2,1.2-10.3,7.9-10.9c1.4-0.1,2.8,0.2,4.1,0.7
	c2.8,1.2,7.3,2.5,9.5-0.1c1.3-1.5,1.2-3.9,2.4-5.5c1.4-1.8,4.1-2.1,6.4-1.7h0.1c4.4,1.8,9.3-1.2,9-6c-0.4-6.4,1.6-12.4,2-13.7
	l8.4-25c7.5-22.3-4.5-46.5-26.8-54.1l0,0c-22.3-7.4-46.5,4.5-54.1,26.8l-13.3,39.4c-7.2,21.5,3.7,44.8,24.7,53.3
	C133.2,150,133.5,149.5,133.9,149z"/>
<g id="Layer_5_1_">
	<path class="st4" d="M186.6,99.9c0,0-12.9-9.6-26.7-14s-24-6.1-34.6-4.6c0,0,14.6-19.1,36.1-9.9S186.6,99.9,186.6,99.9z"/>
	<ellipse transform="matrix(0.3955 -0.9185 0.9185 0.3955 35.6492 173.7259)" class="st4" cx="149.8" cy="59.8" rx="4.1" ry="4.8"/>
	<ellipse transform="matrix(1 -9.101890e-03 9.101890e-03 1 -0.6144 1.6057)" class="st4" cx="176.1" cy="68.3" rx="4.8" ry="4.1"/>
</g>
<path class="st5" d="M193.3,187.2"/>
<path class="st5" d="M167.8,221.3c57.5,0,104.2,46.6,104.2,104.2s-46.6,90.2-104.2,90.2S63.6,406.3,63.6,311.5
	C63.6,254,110.3,221.3,167.8,221.3z"/>
<path class="st6" d="M307.8,248.8l-10.9,12.9c-0.6,5.5-1.4,11.8-2.6,18.2l17.8-18.5l0.1,0.3c-1-5-2.6-9.5-4.6-13.3L307.8,248.8z"/>
<path class="st6" d="M297,260.7l10.5-12.5c-2.3-4.3-5.2-7.7-8.7-9.9c-0.2-0.1-0.4-0.2-0.5-0.3C298.3,239.5,298.3,248.4,297,260.7z"
	/>
<path class="st6" d="M310.5,300.6l0,0.4c0.6-2.3,1.1-4.6,1.6-6.9l-25.9,16.7l0-0.2c-0.5,1.3-1,2.6-1.5,3.9L310.5,300.6z"/>
<path class="st6" d="M313.6,280.3l0.1,0.4c0.3-6.2-0.2-12.5-1.3-18.5L294.2,281c-1.1,6.1-2.5,11.9-4,17.4L313.6,280.3z"/>
<path class="st6" d="M267.7,248.8c-2.7,3.5-5,7.3-6.9,11.3l30,34.2c1.2-4.8,2.2-9.5,3-13.8l-26.2-31.4L267.7,248.8z"/>
<path class="st6" d="M258.6,264.8l0.2-0.3l30.8,34.2c0.3-1.2,0.6-2.3,0.9-3.5l-30.1-34.4l0.2-0.3
	C259.9,261.9,259.3,263.3,258.6,264.8z"/>
<path class="st6" d="M312.2,293.3l0,0.4c0.8-4.2,1.2-8.4,1.5-12.6l-23.8,18.3c-1,3.7-2.2,7.2-3.4,10.6L312.2,293.3z"/>
<path class="st6" d="M277.8,328.8c-4,7-8.6,12.9-13.6,17.7c5.6-2.3,28.1-12.2,39.8-30.1L277.8,328.8z"/>
<path class="st6" d="M254,282.2c-0.5,4.1-0.6,8.1-0.5,12.2l0.2-0.4l24.2,33.9c2.2-4,4.2-8,5.9-12.2L254,282.2z"/>
<path class="st6" d="M296.6,260.7c1.3-13.3,1.3-22.6,1.3-22.7l0.2-0.1c-5.5-3.1-11.5-3-17.3-0.2L296.6,260.7z"/>
<path class="st6" d="M284.3,315.6c-0.2,0.4-0.3,0.8-0.5,1.2c-1.6,3.8-3.4,7.4-5.4,11l25.9-12.3v0.4c2-3.2,3.7-6.6,4.8-10.2
	c0.5-1.4,0.9-2.8,1.2-4.2L284.3,315.6z"/>
<path class="st6" d="M293.9,279.7c1.2-6.4,2-12.5,2.6-18l-16.1-23.6l0.2-0.3c-4.4,2.2-8.7,5.9-12.6,10.8L293.9,279.7z"/>
<path class="st6" d="M277.4,328.5l-24-33.6c0.6,24.4,8.9,50.4,9.4,52C268.6,341.8,273.4,335.5,277.4,328.5z"/>
<path class="st6" d="M284,315L284,315c2.1-5.1,3.9-10.3,5.4-15.6l-30.9-34.3c-0.8,2-1.6,4.2-2.3,6.4c-1,3.2-1.7,6.4-2.1,9.7L284,315
	z"/>
<path class="st6" d="M332.2,334.9l-16.6,17c-4,3.9-8.6,8.1-13.6,12.4l25.5-16.8l-0.2,0.3c2.4-4.5,4.1-8.9,5-13.2L332.2,334.9z"/>
<path class="st6" d="M316.4,351.2l16.1-16.9c0.9-4.8,0.9-9.2-0.4-13.2c-0.1-0.2-0.1-0.4-0.2-0.6
	C330.9,321.7,325.2,342.5,316.4,351.2z"/>
<path class="st6" d="M301.3,390.5l-0.2,0.3c1.9-1.4,3.8-2.8,5.6-4.3l-30.6-3.6l0.1-0.2c-1.2,0.7-2.4,1.4-3.7,2.1L301.3,390.5z"/>
<path class="st6" d="M316.6,376.9l-0.2,0.3c4.2-4.6,7.8-23.7,10.8-29.1l-26,16.9c-4.8,4-9.5,7.6-14.2,10.8L316.6,376.9z"/>
<path class="st6" d="M301.3,323.3c-4.3,1-8.5,2.4-12.5,4.3l1.2,45.5c4-2.9,7.7-5.8,11.1-8.7l-0.2-40.9L301.3,323.3z"/>
<path class="st6" d="M284.1,329.9l0.3-0.2l1.9,46c1-0.7,2-1.4,3-2.1l-1.2-45.7l0.3-0.2C287,328.4,285.6,329.1,284.1,329.9z"/>
<path class="st6" d="M307.2,386l-0.2,0.3c3.3-2.7,6.3-5.7,9.2-8.8l-30-1.1c-3.1,2.2-6.2,4.1-9.3,6L307.2,386z"/>
<path class="st6" d="M258.1,391.4c-7.6,2.8-14.9,4.5-21.8,4.9c5.8,1.8,29.4,8.6,49.9,2.2L258.1,391.4z"/>
<path class="st6" d="M269.4,340.3c-2.9,2.8-5.7,5.8-8.2,9l0.4-0.2l-3,41.5c4.2-1.6,8.3-3.5,12.3-5.6L269.4,340.3z"/>
<path class="st6" d="M316,350.9c9.5-9.4,15.4-30.6,15.5-30.7l0.2,0.1c-2.2-5.9-6.9,4.3-13.2,2.8L316,350.9z"/>
<path class="st6" d="M271.5,385.3c-0.4,0.2-0.8,0.4-1.1,0.6c-3.6,1.9-7.3,3.6-11.1,5.1L287,398l-0.2,0.3c3.6-1.2,7-2.7,10.2-4.8
	c1.2-0.8,2.5-1.6,3.7-2.5L271.5,385.3z"/>
<path class="st6" d="M301.8,363.8c5-4.2,9.5-8.4,13.5-12.3l2.6-28.5l0.3-0.2c-4.8-1.1-10.4-1-16.6,0.3L301.8,363.8z"/>
<path class="st6" d="M258,390.9l3-41.2c-15.1,19.2-25.3,44.5-25.9,46.1C242.7,395.5,250.5,393.7,258,390.9z"/>
<path class="st6" d="M271.6,384.6L271.6,384.6c4.9-2.6,9.5-5.5,14.1-8.6l-1.9-46.1c-1.9,1-3.9,2.2-5.9,3.4c-2.8,1.8-5.4,3.9-7.8,6.2
	L271.6,384.6z"/>
<path class="st6" d="M246.1,293.4l-6.4,15.6c1.2,5.5,2.3,11.6,3.2,18.2l11.3-23.1l0.2,0.3c-2.5-4.4-5.4-8.2-8.5-11.2L246.1,293.4z"
	/>
<path class="st6" d="M239.5,308.1l6.2-15.1c-3.5-3.3-7.3-5.7-11.3-6.8c-0.2-0.1-0.4-0.1-0.6-0.2C234.2,287.5,236.9,296,239.5,308.1z
	"/>
<path class="st6" d="M264.7,341.9l0.1,0.3c-0.1-2.4-0.3-4.7-0.6-7l-19.5,23.9l-0.1-0.2c-0.1,1.4-0.1,2.8-0.2,4.2L264.7,341.9z"/>
<path class="st6" d="M261.4,321.6l0.2,0.3c-1.6-6-4-11.8-7-17.2l-11.5,23.5c0.8,6.2,1.3,12.1,1.6,17.8L261.4,321.6z"/>
<path class="st6" d="M208,305.9c-1.5,4.2-2.5,8.5-3.1,12.9l39.1,23.3c-0.3-4.9-0.8-9.7-1.4-14.1l-34.7-21.7L208,305.9z"/>
<path class="st6" d="M204.3,323.9l0-0.4l39.8,23c-0.1-1.2-0.1-2.4-0.2-3.6l-39.3-23.4l0-0.4C204.6,320.7,204.4,322.2,204.3,323.9z"
	/>
<path class="st6" d="M264,334.4l0.2,0.3c-0.5-4.2-1.4-8.3-2.5-12.4l-17,24.7c0.2,3.8,0.2,7.5,0,11.1L264,334.4z"/>
<path class="st6" d="M242.3,378.8c-1.7,7.9-4.2,15-7.5,21.1c4.6-3.9,23-20.3,28.5-40.9L242.3,378.8z"/>
<path class="st6" d="M205.2,341.9c0.8,4,1.9,7.9,3.3,11.8l0.1-0.4L242,378c0.9-4.4,1.5-8.9,1.9-13.4L205.2,341.9z"/>
<path class="st6" d="M239.1,308.2c-2.8-13.1-5.8-21.9-5.8-22l0.2-0.2c-6.2-1.3-11.8,0.6-16.5,5.1L239.1,308.2z"/>
<path class="st6" d="M244.4,364.2c0,0.4-0.1,0.9-0.1,1.3c-0.3,4.1-0.9,8.1-1.7,12.1l20.8-19.7l0.1,0.3c0.9-3.7,1.4-7.4,1.4-11.1
	c0-1.5,0-3-0.1-4.4L244.4,364.2z"/>
<path class="st6" d="M242.4,327.1c-0.9-6.5-2-12.5-3.1-17.9l-22.7-17.5l0.1-0.4c-3.5,3.4-6.5,8.3-8.6,14.2L242.4,327.1z"/>
<path class="st6" d="M241.8,378.6l-33.2-24.6c8.1,23,24,45.2,25.1,46.6C237.6,394,240.2,386.5,241.8,378.6z"/>
<path class="st6" d="M243.9,363.7L243.9,363.7c0.4-5.5,0.5-11,0.3-16.4l-40-23c-0.2,2.2-0.2,4.5-0.2,6.8c0,3.3,0.4,6.6,1,9.9
	L243.9,363.7z"/>
<circle class="st6" cx="159.7" cy="342.7" r="26.2"/>
<path class="st6" d="M146.4,303.9L146.4,303.9c-10,3.4-21-1.4-25.3-11.1L92.8,229c-6.2-13.9,0.1-30.1,13.9-36.3
	c0.8-0.4,1.6-0.7,2.4-0.9l0,0c14.4-4.8,30,2.9,34.8,17.3c0.3,0.9,0.5,1.8,0.8,2.7l15.2,68.1C162.2,290.1,156.4,300.5,146.4,303.9z"
	/>
<circle class="st7" cx="159.7" cy="342.7" r="26.2"/>
<path class="st7" d="M146.4,303.9L146.4,303.9c-10,3.4-21-1.4-25.3-11.1L92.8,229c-6.2-13.9,0.1-30.1,13.9-36.3
	c0.8-0.4,1.6-0.7,2.4-0.9l0,0c14.4-4.8,30,2.9,34.8,17.3c0.3,0.9,0.5,1.8,0.8,2.7l15.2,68.1C162.2,290.1,156.4,300.5,146.4,303.9z"
	/>
<circle class="st6" cx="158.8" cy="339.8" r="21"/>
<path class="st6" d="M143.9,296.3L143.9,296.3c-9.2,3.1-19.2-1.3-23.2-10.2l-26-58.5c-5.7-12.7,0.1-27.7,12.8-33.3
	c0.7-0.3,1.5-0.6,2.2-0.9l0,0c13.2-4.4,27.5,2.7,31.9,15.9c0.3,0.8,0.5,1.7,0.7,2.5l14,62.5C158.4,283.8,153.1,293.3,143.9,296.3z"
	/>
<line class="st8" x1="296.9" y1="332.9" x2="296.9" y2="332.5"/>
<path class="st9" d="M289.1,301.2"/>
<path class="st9" d="M298.7,282.2"/>
<path class="st9" d="M298.1,333.7"/>
<path class="st5" d="M315.4,262.7"/>
<path class="st10" d="M308.7,266.7l-2.1-2.1c-2.5-2.5-6.7-2.5-9.2,0l-40.5,40.6l-40.5-40.6c-2.5-2.5-6.7-2.5-9.2,0l-2.1,2.1
	c-2.5,2.5-2.5,6.7,0,9.2l0,0l40.5,40.5L205,357c-2.5,2.5-2.5,6.7,0,9.2l2.1,2.1c2.5,2.5,6.7,2.5,9.2,0l40.5-40.5l40.5,40.5
	c2.5,2.5,6.7,2.5,9.2,0l2.1-2.1c2.5-2.5,2.5-6.7,0-9.2l-40.6-40.5l40.6-40.5C311.2,273.4,311.2,269.2,308.7,266.7z"/>
<path class="st7" d="M203.6,359.2l39.3-39.3l-0.4-0.4L205,357C204.4,357.6,203.9,358.3,203.6,359.2z"/>
<path class="st7" d="M204.5,268c2.5-2.5,6.7-2.5,9.2,0l0,0l40.5,40.5l40.5-40.5c2.5-2.5,6.7-2.5,9.2,0l0,0l2.1,2.1
	c1.8,1.8,2.4,4.6,1.5,7l1.2-1.2c2.5-2.5,2.5-6.7,0-9.2l0,0l-2.1-2.1c-2.5-2.5-6.7-2.5-9.2,0l-40.6,40.6l-40.5-40.6
	c-2.5-2.5-6.7-2.5-9.2,0l-2.1,2.1c-0.6,0.6-1.1,1.4-1.5,2.2L204.5,268z"/>
<path class="st7" d="M268.5,316.8l-3,3l40.5,40.5c1.8,1.8,2.4,4.6,1.5,7l1.2-1.2c2.5-2.5,2.5-6.7,0-9.2l0,0L268.5,316.8z"/>
</svg>
