<?xml version="1.0" encoding="utf-8"?>
<!-- Generator: Adobe Illustrator 22.0.1, SVG Export Plug-In . SVG Version: 6.00 Build 0)  -->
<svg version="1.1" id="Calque_1" xmlns="http://www.w3.org/2000/svg" xmlns:xlink="http://www.w3.org/1999/xlink" x="0px" y="0px"
	 viewBox="0 0 72 72" style="enable-background:new 0 0 72 72;" xml:space="preserve">
<style type="text/css">
	.st0{fill:#B8E9F4;}
	.st1{fill:none;stroke:#014F7A;stroke-width:2.381;stroke-linecap:round;stroke-linejoin:round;}
</style>
<path class="st0" d="M36,72c19.9,0,36-16.1,36-36S55.9,0,36,0S0,16.1,0,36S16.1,72,36,72z"/>
<path class="st1" d="M26.3,29.5h19.4c1.3,0,2.4,1,2.4,2.3v11.7c0,1.3-1.1,2.3-2.4,2.3H26.3c-1.3,0-2.4-1-2.4-2.3V31.9
	C23.9,30.6,24.9,29.5,26.3,29.5z"/>
<path class="st1" d="M40.9,45.9V27.2c0-1.3-1.1-2.3-2.4-2.3h-4.9c-1.3,0-2.4,1-2.4,2.3v18.7"/>
</svg>
