<?xml version="1.0" encoding="utf-8"?>
<!-- Generator: Adobe Illustrator 22.0.1, SVG Export Plug-In . SVG Version: 6.00 Build 0)  -->
<svg version="1.1" id="Calque_1" xmlns="http://www.w3.org/2000/svg" xmlns:xlink="http://www.w3.org/1999/xlink" x="0px" y="0px"
	 viewBox="0 0 72 72" style="enable-background:new 0 0 72 72;" xml:space="preserve">
<style type="text/css">
	.st0{fill:#B8E9F4;}
	.st1{fill:#014F7A;}
</style>
<path class="st0" d="M36,72c19.9,0,36-16.1,36-36S55.9,0,36,0S0,16.1,0,36S16.1,72,36,72z"/>
<path class="st1" d="M41.2,27.7c-0.8,0-1.4-0.7-1.4-1.5V24h-5.6v2.2c0,0.8-0.6,1.5-1.4,1.5s-1.4-0.7-1.4-1.5V24
	c0-1.6,1.3-2.9,2.8-2.9h5.6c1.5,0,2.8,1.3,2.8,2.9v2.2C42.6,27,41.9,27.7,41.2,27.7z"/>
<path class="st1" d="M38,40.7c-0.3,0.1-0.6,0.2-1,0.2s-0.7-0.1-1.1-0.2l-15.6-5.5v11.2c0,2.2,1.7,4,3.8,4h25.8c2.1,0,3.8-1.8,3.8-4
	V35.2L38,40.7z"/>
<path class="st1" d="M53.7,29.5v3.4l-16.4,5.7c-0.1,0-0.2,0.1-0.3,0.1s-0.2,0-0.3-0.1l-16.4-5.7v-3.4c0-2.2,1.7-4,3.8-4h25.8
	C52,25.5,53.7,27.3,53.7,29.5z"/>
</svg>
