<?xml version="1.0" encoding="utf-8"?>
<!-- Generator: Adobe Illustrator 22.0.1, SVG Export Plug-In . SVG Version: 6.00 Build 0)  -->
<svg version="1.1" id="Calque_1" xmlns="http://www.w3.org/2000/svg" xmlns:xlink="http://www.w3.org/1999/xlink" x="0px" y="0px"
	 viewBox="0 0 72 72" style="enable-background:new 0 0 72 72;" xml:space="preserve">
<style type="text/css">
	.st0{fill:#B8E9F4;}
	.st1{fill:#BAC3C6;}
	.st2{fill:#014F7A;}
</style>
<path class="st0" d="M36.3,71.9c19.9,0,36-16.1,36-36s-16.1-36-36-36s-36,16.1-36,36S16.4,71.9,36.3,71.9z"/>
<path class="st1" d="M57.6,21.4H23.1v19.9c0,1.1,0.9,1.9,2,1.9h30.5c1.1,0,2-0.9,2-1.9V21.4z M35.5,35.3c0.4,0.3,0.5,0.9,0.2,1.4
	c-0.2,0.2-0.5,0.4-0.8,0.4c-0.2,0-0.4-0.1-0.6-0.2l-4.2-3.1c-0.2-0.2-0.4-0.5-0.4-0.8c0-0.3,0.1-0.6,0.4-0.8l4.2-3.1
	c0.4-0.3,1.1-0.3,1.4,0.2c0.3,0.4,0.3,1-0.2,1.4l-3.2,2.4L35.5,35.3z M42.7,28.2l-2.8,10c-0.1,0.4-0.5,0.7-1,0.7c-0.1,0-0.2,0-0.3,0
	c-0.5-0.1-0.9-0.7-0.7-1.2l2.8-10c0.1-0.5,0.7-0.8,1.2-0.7C42.6,27.2,42.9,27.7,42.7,28.2L42.7,28.2z M50.6,33.7l-4.2,3.1
	C46.2,37,46,37,45.8,37c-0.3,0-0.6-0.1-0.8-0.4c-0.3-0.4-0.3-1,0.2-1.4l3.2-2.4l-3.2-2.4c-0.5-0.3-0.5-1-0.1-1.4
	c0.4-0.4,1-0.4,1.4-0.1l4.2,3.1c0.2,0.2,0.4,0.5,0.4,0.8C51,33.2,50.8,33.5,50.6,33.7L50.6,33.7z"/>
<path class="st2" d="M53.2,26.2H18.6v19.9c0,1.1,0.9,1.9,2,1.9h30.5c1.1,0,2-0.9,2-1.9V26.2z M31.1,40.1c0.4,0.3,0.5,0.9,0.2,1.4
	c-0.2,0.2-0.5,0.4-0.8,0.4c-0.2,0-0.4-0.1-0.6-0.2l-4.2-3.1c-0.2-0.2-0.4-0.5-0.4-0.8c0-0.3,0.1-0.6,0.4-0.8l4.2-3.1
	c0.4-0.3,1.1-0.3,1.4,0.2c0.3,0.4,0.3,1-0.2,1.4l-3.2,2.4L31.1,40.1z M38.3,33l-2.8,10c-0.1,0.4-0.5,0.7-1,0.7c-0.1,0-0.2,0-0.3,0
	c-0.5-0.1-0.9-0.7-0.7-1.2l2.8-10c0.1-0.5,0.7-0.8,1.2-0.7C38.1,31.9,38.5,32.4,38.3,33L38.3,33z M46.2,38.5L42,41.6
	c-0.2,0.1-0.4,0.2-0.6,0.2c-0.3,0-0.6-0.1-0.8-0.4c-0.3-0.4-0.3-1,0.2-1.4l3.2-2.4l-3.2-2.4c-0.5-0.3-0.5-1-0.1-1.4
	c0.4-0.4,1-0.4,1.4-0.1l4.2,3.1c0.2,0.2,0.4,0.5,0.4,0.8C46.6,38,46.4,38.3,46.2,38.5L46.2,38.5z"/>
</svg>
