<?xml version="1.0" encoding="utf-8"?>
<!-- Generator: Adobe Illustrator 22.0.1, SVG Export Plug-In . SVG Version: 6.00 Build 0)  -->
<svg version="1.1" id="Calque_1" xmlns="http://www.w3.org/2000/svg" xmlns:xlink="http://www.w3.org/1999/xlink" x="0px" y="0px"
	 viewBox="0 0 72 72" style="enable-background:new 0 0 72 72;" xml:space="preserve">
<style type="text/css">
	.st0{fill:#B8E9F4;}
	.st1{fill:#BAC3C6;}
	.st2{fill:#014F7A;}
</style>
<path class="st0" d="M36,72c19.9,0,36-16.1,36-36S55.9,0,36,0S0,16.1,0,36S16.1,72,36,72z"/>
<g>
	<path class="st1" d="M56.1,43.6l-2.3-13.2c-0.6-3.5-3.7-5.2-6.9-3.7l-2.6,1.2c-3.2,1.5-8.4,1.5-11.6,0l-2.6-1.2
		c-3.2-1.5-6.3,0.2-6.9,3.7l-2.3,13.2c-0.6,3.5,1.4,4.9,4.4,3.2l0.2-0.1c3-1.8,8.4-3.2,11.8-3.2h2.2c3.5,0,8.8,1.4,11.8,3.2l0.2,0.1
		C54.7,48.5,56.7,47.1,56.1,43.6z M32.3,38.2H31v1.3c0,1-0.6,1.7-1.3,1.7s-1.3-0.8-1.3-1.7v-1.3h-1.3c-0.9,0-1.7-0.6-1.7-1.3
		c0-0.7,0.8-1.3,1.7-1.3h1.3v-1.3c0-1,0.6-1.7,1.3-1.7s1.3,0.8,1.3,1.7v1.3h1.3c0.9,0,1.7,0.6,1.7,1.3C34,37.6,33.2,38.2,32.3,38.2z
		 M44.5,38.2c-0.7,0-1.3-0.6-1.3-1.3c0-0.7,0.6-1.3,1.3-1.3c0.7,0,1.3,0.6,1.3,1.3S45.2,38.2,44.5,38.2z M47.4,41.2
		c-0.7,0-1.3-0.6-1.3-1.3s0.6-1.3,1.3-1.3c0.7,0,1.3,0.6,1.3,1.3C48.7,40.6,48.1,41.2,47.4,41.2z M47.4,35.1c-0.7,0-1.3-0.6-1.3-1.3
		c0-0.7,0.6-1.3,1.3-1.3c0.7,0,1.3,0.6,1.3,1.3C48.7,34.5,48.1,35.1,47.4,35.1z M50.4,38.2c-0.7,0-1.3-0.6-1.3-1.3
		c0-0.7,0.6-1.3,1.3-1.3c0.7,0,1.3,0.6,1.3,1.3S51.1,38.2,50.4,38.2z"/>
</g>
<g>
	<path class="st2" d="M52.3,40.6L50,27.4c-0.6-3.5-3.7-5.2-6.9-3.7l-2.6,1.2c-3.2,1.5-8.4,1.5-11.6,0l-2.6-1.2
		c-3.2-1.5-6.3,0.2-6.9,3.7l-2.3,13.2c-0.6,3.5,1.4,4.9,4.4,3.2l0.2-0.1c3-1.8,8.4-3.2,11.8-3.2h2.2c3.5,0,8.8,1.4,11.8,3.2l0.2,0.1
		C50.9,45.5,52.9,44.1,52.3,40.6z M28.5,35.1h-1.3v1.3c0,1-0.6,1.7-1.3,1.7s-1.3-0.8-1.3-1.7v-1.3h-1.3c-0.9,0-1.7-0.6-1.7-1.3
		c0-0.7,0.8-1.3,1.7-1.3h1.3v-1.3c0-1,0.6-1.7,1.3-1.7c0.7,0,1.3,0.8,1.3,1.7v1.3h1.3c0.9,0,1.7,0.6,1.7,1.3
		C30.2,34.5,29.4,35.1,28.5,35.1z M40.7,35.1c-0.7,0-1.3-0.6-1.3-1.3c0-0.7,0.6-1.3,1.3-1.3s1.3,0.6,1.3,1.3S41.4,35.1,40.7,35.1z
		 M43.6,38.2c-0.7,0-1.3-0.6-1.3-1.3c0-0.7,0.6-1.3,1.3-1.3c0.7,0,1.3,0.6,1.3,1.3C44.9,37.6,44.3,38.2,43.6,38.2z M43.6,32.1
		c-0.7,0-1.3-0.6-1.3-1.3c0-0.7,0.6-1.3,1.3-1.3c0.7,0,1.3,0.6,1.3,1.3C44.9,31.5,44.3,32.1,43.6,32.1z M46.6,35.1
		c-0.7,0-1.3-0.6-1.3-1.3c0-0.7,0.6-1.3,1.3-1.3c0.7,0,1.3,0.6,1.3,1.3S47.3,35.1,46.6,35.1z"/>
</g>
</svg>
