<?xml version="1.0" encoding="utf-8"?>
<!-- Generator: Adobe Illustrator 22.0.1, SVG Export Plug-In . SVG Version: 6.00 Build 0)  -->
<svg version="1.1" id="Calque_1" xmlns="http://www.w3.org/2000/svg" xmlns:xlink="http://www.w3.org/1999/xlink" x="0px" y="0px"
	 viewBox="0 0 72 72" style="enable-background:new 0 0 72 72;" xml:space="preserve">
<style type="text/css">
	.st0{fill:#B8E9F4;}
	.st1{fill:#BAC3C6;}
	.st2{fill:#014F7A;}
</style>
<path class="st0" d="M36,72c19.9,0,36-16.1,36-36S55.9,0,36,0S0,16.1,0,36S16.1,72,36,72z"/>
<g>
	<g>
		<path class="st1" d="M43.5,25.6l-13.6-0.3l0-1.9c-1.3-0.7-2.1-2-2.1-3.5c0-2.2,1.9-3.9,4-3.8c0.5,0,1,0.1,1.4,0.3
			c0.9-1,2.2-1.7,3.6-1.6s2.7,0.7,3.6,1.8c0.5-0.2,0.9-0.3,1.4-0.2c2.2,0,3.9,1.9,3.9,4c0,1.5-0.9,2.8-2.2,3.4L43.5,25.6z"/>
	</g>
	<g>
		<path class="st1" d="M33.1,38.4l0,1c0,1.8,1.4,3.3,3.2,3.3s3.3-1.4,3.3-3.1l0-1c-1,0.4-2.1,0.6-3.2,0.5S34.1,38.8,33.1,38.4z"/>
	</g>
	<path class="st1" d="M29.8,27.5L29.7,30c-0.1,3.7,2.9,6.9,6.7,6.9c3.8,0.1,6.9-2.9,7-6.6l0.1-2.5L29.8,27.5z"/>
	<path class="st1" d="M36.2,44.8c-3-0.1-5.3-2.5-5.3-5.5l0-0.4l-0.4,0c-4.6-0.1-8.3,3.5-8.4,8l-0.1,3c0,0.6,0.5,1.1,1.1,1.1l3.9,0.1
		l0.1-2.6c0-0.6,0.5-1.1,1.1-1c0.6,0,1.1,0.5,1.1,1.1l-0.1,2.6l7.9,0.2l0.1-6.7C37,44.8,36.6,44.8,36.2,44.8z M34.7,49.1
		c-0.6,0-1.1-0.5-1.1-1.1c0-0.6,0.5-1.1,1.1-1c0.6,0,1.1,0.5,1.1,1.1C35.8,48.6,35.3,49.1,34.7,49.1z"/>
	<path class="st1" d="M42.1,39.2l-0.4,0l0,0.4c0,1.8-0.9,3.3-2.2,4.2l-0.2,7.7l3.6,0.1l0.1-2.6c0-0.6,0.5-1.1,1.1-1
		c0.6,0,1.1,0.5,1.1,1.1l-0.1,2.6l3.9,0.1c0.6,0,1.1-0.5,1.1-1l0.1-3C50.3,43.1,46.7,39.3,42.1,39.2z"/>
</g>
<g>
	<g>
		<path class="st2" d="M41.7,26.5H28.6v-1.8c-1.3-0.6-2.1-1.9-2.1-3.4c0-2.1,1.7-3.8,3.8-3.8c0.5,0,0.9,0.1,1.4,0.3
			c0.8-1,2.1-1.7,3.5-1.7c1.4,0,2.6,0.6,3.5,1.7c0.4-0.2,0.9-0.3,1.4-0.3c2.1,0,3.8,1.7,3.8,3.8c0,1.5-0.8,2.7-2.1,3.4V26.5z"/>
	</g>
	<g>
		<path class="st2" d="M32,39.1V40c0,1.7,1.4,3.1,3.1,3.1c1.7,0,3.1-1.4,3.1-3.1v-0.9c-1,0.4-2,0.6-3.1,0.6S33,39.5,32,39.1z"/>
	</g>
	<path class="st2" d="M28.6,28.6V31c0,3.6,3,6.6,6.6,6.6s6.6-3,6.6-6.6v-2.4H28.6z"/>
	<path class="st2" d="M35.1,45.2c-2.9,0-5.2-2.3-5.2-5.2v-0.3h-0.3c-4.4,0-8,3.6-8,8v2.9c0,0.6,0.5,1,1,1h3.8v-2.6c0-0.6,0.5-1,1-1
		c0.6,0,1,0.5,1,1v2.6h7.6v-6.5C35.8,45.2,35.5,45.2,35.1,45.2z M33.8,49.4c-0.6,0-1-0.5-1-1s0.5-1,1-1c0.6,0,1,0.5,1,1
		S34.3,49.4,33.8,49.4z"/>
	<path class="st2" d="M40.7,39.7h-0.3V40c0,1.7-0.8,3.2-2.1,4.2v7.4h3.5v-2.6c0-0.6,0.5-1,1-1s1,0.5,1,1v2.6h3.8c0.6,0,1-0.5,1-1
		v-2.9C48.7,43.3,45.1,39.7,40.7,39.7z"/>
</g>
</svg>
