<?xml version="1.0" encoding="utf-8"?>
<!-- Generator: Adobe Illustrator 22.0.1, SVG Export Plug-In . SVG Version: 6.00 Build 0)  -->
<svg version="1.1" id="Calque_1" xmlns="http://www.w3.org/2000/svg" xmlns:xlink="http://www.w3.org/1999/xlink" x="0px" y="0px"
	 viewBox="0 0 72 72" style="enable-background:new 0 0 72 72;" xml:space="preserve">
<style type="text/css">
	.st0{fill:#B8E9F4;}
	.st1{fill:#BAC3C6;}
	.st2{fill:#014F7A;}
	.st3{fill:#61BEF7;}
</style>
<path class="st0" d="M36,72c19.9,0,36-16.1,36-36S55.9,0,36,0S0,16.1,0,36S16.1,72,36,72z"/>
<g>
	<g>
		<polygon class="st1" points="43.1,36.4 43.1,43.1 50.8,45.6 50.8,34 		"/>
	</g>
</g>
<g>
	<g>
		<polygon class="st1" points="24.4,34.4 24.4,44.9 29.5,44.9 29.5,48 36.4,48 36.4,44.9 41.6,44.9 41.6,34.4 		"/>
	</g>
</g>
<g>
	<g>
		<path class="st1" d="M37.3,24.5c-2.5,0-4.5,1.9-4.7,4.3c-0.6-1.6-2.1-2.7-3.9-2.7c-2.3,0-4.2,1.9-4.2,4.2c0,1,0.3,1.9,0.9,2.6h6.5
			c0.5-0.6,0.8-1.3,0.9-2.1c0.3,0.8,0.8,1.6,1.5,2.1h6.1c1-0.9,1.7-2.2,1.7-3.6C42,26.6,39.9,24.5,37.3,24.5z"/>
	</g>
</g>
<g>
	<g>
		<polygon class="st2" points="42.1,35.4 42.1,42.2 49.8,44.6 49.8,33 		"/>
	</g>
</g>
<g>
	<g>
		<polygon class="st2" points="23.5,33.5 23.5,44 28.5,44 28.5,47 35.5,47 35.5,44 40.6,44 40.6,33.5 		"/>
	</g>
</g>
<g>
	<g>
		<path class="st2" d="M36.3,23.5c-2.5,0-4.5,1.9-4.7,4.3c-0.6-1.6-2.1-2.7-3.9-2.7c-2.3,0-4.2,1.9-4.2,4.2c0,1,0.3,1.9,0.9,2.6h6.5
			c0.5-0.6,0.8-1.3,0.9-2.1c0.3,0.8,0.8,1.6,1.5,2.1h6.1c1-0.9,1.7-2.2,1.7-3.6C41,25.6,38.9,23.5,36.3,23.5z"/>
	</g>
</g>
<circle class="st3" cx="49.5" cy="33" r="1.9"/>
</svg>
