<?xml version="1.0" encoding="utf-8"?>
<!-- Generator: Adobe Illustrator 22.0.1, SVG Export Plug-In . SVG Version: 6.00 Build 0)  -->
<svg version="1.1" id="Calque_1" xmlns="http://www.w3.org/2000/svg" xmlns:xlink="http://www.w3.org/1999/xlink" x="0px" y="0px"
	 viewBox="0 0 72 72" style="enable-background:new 0 0 72 72;" xml:space="preserve">
<style type="text/css">
	.st0{fill:#B8E9F4;}
	.st1{fill:#014F7A;}
</style>
<path class="st0" d="M36.2,72c19.9,0,36-16.1,36-36S56.1,0,36.2,0s-36,16.1-36,36S16.3,72,36.2,72z"/>
<path class="st1" d="M41.1,27.8c-0.3-0.2-0.4-0.5-0.4-0.8v-2.5c0-1.2-1-2.2-2.2-2.2H25.3c-1.2,0-2.2,1-2.2,2.2v10.2
	c0,1.2,1,2.2,2.2,2.2h13.2c1.2,0,2.2-0.9,2.2-2.2v-2.5c0-0.3,0.2-0.6,0.4-0.8l2.2-1.4c0.3-0.2,0.3-0.6,0-0.8L41.1,27.8z M35.3,34.5
	c-0.5,0.2-1-0.1-1.2-0.5l-0.5-1.5h-3.3L29.7,34c-0.2,0.5-0.7,0.7-1.2,0.5c-0.5-0.2-0.7-0.7-0.5-1.2l3.1-8.2c0.3-0.8,1.4-0.8,1.7,0
	l3.1,8.2C36,33.8,35.8,34.3,35.3,34.5z"/>
<path class="st1" d="M32.9,30.7h-2l1-2.7L32.9,30.7z"/>
<path class="st1" d="M50.2,36h-7.8c-0.7,1.2-2,2-3.5,2h-4.2c0,0.1,0-0.1,0,2.7c0,0.3-0.2,0.6-0.4,0.8l-2.2,1.4
	c-0.3,0.2-0.3,0.6,0,0.8l2.2,1.4c0.3,0.2,0.4,0.5,0.4,0.8v2.5c0,1.2,1,2.2,2.2,2.2h13.2c1.2,0,2.2-1,2.2-2.2V38.2
	C52.4,37,51.4,36,50.2,36L50.2,36z M47.3,48c-0.4,0.4-0.9,0.4-1.3,0c-0.4-0.4-0.4-0.9,0-1.3c0.4-0.4,0.8-1,0.8-1.4
	c0-0.8-0.3-1.7-2.2-1.7c-0.3,0-0.5,0-0.8,0c0,0.8,0,1.4,0.1,1.9c0.2-0.2,0.3-0.3,0.3-0.5c0.1-0.5,0.6-0.8,1.1-0.7
	c0.5,0.1,0.8,0.6,0.7,1.1c-0.2,0.8-0.9,1.5-1.8,2c0,0.1,0.1,0.2,0.1,0.2c0.9,1-1.1,2.6-1.8,0.4c-2.5,0.5-4.1-0.8-3.3-3.2
	c0.4-1.3,1.5-2.3,2.9-2.8c0-0.4,0-0.9,0-1.3c-2,0.4-2.2,0.6-2.6,0.6c-0.4,0-0.7-0.2-0.9-0.6c-0.1-0.5,0.1-1,0.6-1.1
	c0.1,0,1.4-0.4,2.9-0.7c0-0.6,0-1,0-1c0-0.5,0.5-0.9,0.9-0.8c0.5,0,0.9,0.5,0.8,0.9c0,0,0,0.2,0,0.6c1.6-0.2,3.2-0.1,3.6,1.1
	c0.2,0.5-0.1,1-0.6,1.1c-0.4,0.1-0.9-0.1-1.1-0.4c-0.1-0.1-0.6-0.2-2,0c0,0.4,0,0.8,0,1.2c3.2-0.3,4.7,1.3,4.7,3.4
	C48.6,46.3,47.9,47.4,47.3,48L47.3,48z"/>
<path class="st1" d="M43.8,47.4c-0.7,0.2-1.2,0.1-1.4-0.1c-0.2-0.2,0-1.5,1.2-2.2"/>
</svg>
