<?xml version="1.0" encoding="utf-8"?>
<!-- Generator: Adobe Illustrator 22.0.1, SVG Export Plug-In . SVG Version: 6.00 Build 0)  -->
<svg version="1.1" id="Calque_1" xmlns="http://www.w3.org/2000/svg" xmlns:xlink="http://www.w3.org/1999/xlink" x="0px" y="0px"
	 viewBox="0 0 72 72" style="enable-background:new 0 0 72 72;" xml:space="preserve">
<style type="text/css">
	.st0{fill:#B8E9F4;}
	.st1{fill:#014F7A;}
</style>
<path class="st0" d="M36,72c19.9,0,36-16.1,36-36S55.9,0,36,0S0,16.1,0,36S16.1,72,36,72z"/>
<path class="st1" d="M30.1,29.3l3.9,3.9l1.2-1.2l-3.9-3.9V25l-5.8-4.2l-2.6,2.6l4.2,5.8H30.1z"/>
<path class="st1" d="M42.5,22.2c-2.5,2.5-1,5.5-1,5.7L29.9,39.5c-0.2,0-3.1-1.5-5.7,1c-1.5,1.5-1.9,3.8-1,5.6l3.3-3.3l2.3,2.3
	l-3.3,3.3c1.9,0.9,4.1,0.6,5.6-1c2.5-2.5,1-5.5,1-5.7l11.6-11.6c0.2,0,3.1,1.5,5.7-1c1.5-1.5,1.9-3.8,1-5.6l-3.3,3.3l-2.3-2.3
	l3.3-3.3C46.3,20.4,44,20.7,42.5,22.2z"/>
<path class="st1" d="M37.4,39l3.5-3.5l1.2,1.2l-3.5,3.5L37.4,39z"/>
<path class="st1" d="M47.5,49l-7.7-7.7l3.5-3.5l7.7,7.7L47.5,49z"/>
</svg>
