<?xml version="1.0" encoding="utf-8"?>
<!-- Generator: Adobe Illustrator 22.0.1, SVG Export Plug-In . SVG Version: 6.00 Build 0)  -->
<svg version="1.1" id="Calque_1" xmlns="http://www.w3.org/2000/svg" xmlns:xlink="http://www.w3.org/1999/xlink" x="0px" y="0px"
	 viewBox="0 0 72 72" style="enable-background:new 0 0 72 72;" xml:space="preserve">
<style type="text/css">
	.st0{fill:#B8E9F4;}
	.st1{fill:#BAC3C6;}
	.st2{fill:#014F7A;}
	.st3{fill:#00BCD4;}
	.st4{fill:#FAFAFA;}
	.st5{fill:#90A4AE;}
</style>
<path class="st0" d="M35.6,72c19.9,0,36-16.1,36-36S55.5,0,35.6,0s-36,16.1-36,36S15.7,72,35.6,72z"/>
<path class="st1" d="M34,16.8h13c2.3,0,4.1,1.8,4.1,4.1V41c0,2.3-1.8,4.1-4.1,4.1H34c-2.3,0-4.1-1.8-4.1-4.1V21
	C29.9,18.7,31.7,16.8,34,16.8z"/>
<path class="st2" d="M30.5,20.8h13c2.3,0,4.1,1.8,4.1,4.1V45c0,2.3-1.8,4.1-4.1,4.1h-13c-2.3,0-4.1-1.8-4.1-4.1V25
	C26.4,22.7,28.2,20.8,30.5,20.8z"/>
<path class="st3" d="M30.5,23.2h13c1,0,1.8,0.8,1.8,1.8v5.9c0,1-0.8,1.8-1.8,1.8h-13c-1,0-1.8-0.8-1.8-1.8V25
	C28.7,24,29.5,23.2,30.5,23.2z"/>
<g>
	<path class="st4" d="M41.1,26.7c-0.3,0-0.6-0.3-0.6-0.6c0-0.2,0.1-0.3,0.2-0.4c0.2-0.2,0.6-0.2,0.8,0c0.2,0.2,0.2,0.6,0,0.8
		C41.4,26.7,41.3,26.7,41.1,26.7z"/>
	<path class="st4" d="M41.1,30.3c-0.3,0-0.6-0.3-0.6-0.6c0-0.2,0.1-0.3,0.2-0.4c0.2-0.2,0.6-0.2,0.8,0c0.2,0.2,0.2,0.6,0,0.8
		C41.4,30.2,41.3,30.3,41.1,30.3z"/>
	<path class="st4" d="M42.3,29.1c-0.3,0-0.6-0.3-0.6-0.6v-1.2c0-0.3,0.3-0.6,0.6-0.6c0.3,0,0.6,0.3,0.6,0.6v1.2
		C42.9,28.8,42.6,29.1,42.3,29.1z"/>
	<path class="st4" d="M39.9,29.1c-0.3,0-0.6-0.3-0.6-0.6v-1.2c0-0.3,0.3-0.6,0.6-0.6s0.6,0.3,0.6,0.6v1.2
		C40.5,28.8,40.3,29.1,39.9,29.1z"/>
</g>
<g>
	<path class="st5" d="M32.9,39.7c-0.3,0-0.6-0.3-0.6-0.6v-4.7c0-0.3,0.3-0.6,0.6-0.6c0.3,0,0.6,0.3,0.6,0.6v4.7
		C33.5,39.5,33.2,39.7,32.9,39.7z"/>
	<path class="st5" d="M35.2,37.4h-4.7c-0.3,0-0.6-0.3-0.6-0.6c0-0.3,0.3-0.6,0.6-0.6h4.7c0.3,0,0.6,0.3,0.6,0.6
		C35.8,37.1,35.6,37.4,35.2,37.4z"/>
	<path class="st5" d="M43.5,37.4h-4.7c-0.3,0-0.6-0.3-0.6-0.6c0-0.3,0.3-0.6,0.6-0.6h4.7c0.3,0,0.6,0.3,0.6,0.6
		C44.1,37.1,43.8,37.4,43.5,37.4z"/>
	<path class="st5" d="M31.7,45.6c-0.3,0-0.6-0.3-0.6-0.6c0-0.1,0-0.2,0.1-0.3l2.4-3.5c0.2-0.3,0.5-0.3,0.8-0.2
		c0.3,0.2,0.3,0.5,0.2,0.8l0,0l-2.4,3.5C32.1,45.5,31.9,45.6,31.7,45.6z"/>
	<path class="st5" d="M34.1,45.6c-0.2,0-0.4-0.1-0.5-0.3l-2.4-3.5c-0.2-0.3-0.1-0.6,0.2-0.8c0.3-0.2,0.6-0.1,0.8,0.2l2.4,3.5
		c0.2,0.3,0.1,0.6-0.2,0.8C34.3,45.6,34.2,45.6,34.1,45.6z"/>
	<path class="st5" d="M42.3,45.6c-0.2,0-0.4-0.1-0.5-0.3l-2.4-3.5c-0.2-0.3-0.1-0.6,0.2-0.8s0.6-0.1,0.8,0.2l2.4,3.5
		c0.2,0.3,0.1,0.6-0.2,0.8C42.5,45.6,42.4,45.6,42.3,45.6z"/>
</g>
</svg>
