<?xml version="1.0" encoding="utf-8"?>
<!-- Generator: Adobe Illustrator 22.0.1, SVG Export Plug-In . SVG Version: 6.00 Build 0)  -->
<svg version="1.1" id="Calque_1" xmlns="http://www.w3.org/2000/svg" xmlns:xlink="http://www.w3.org/1999/xlink" x="0px" y="0px"
	 viewBox="0 0 72 72" style="enable-background:new 0 0 72 72;" xml:space="preserve">
<style type="text/css">
	.st0{fill:#B8E9F4;}
	.st1{fill:#014F7A;}
</style>
<path class="st0" d="M36,72c19.9,0,36-16.1,36-36S55.9,0,36,0S0,16.1,0,36S16.1,72,36,72z"/>
<path class="st1" d="M51.6,39.2c0-0.6,0-1.6,0-1.7c-0.2-4.2-3.8-7.5-8-7.5c-0.1,0-0.1,0-0.2,0c-2.5,0.1-4.7,1.4-6,3.6
	c-1.2,2-1.3,4.3-0.5,6.5c0.1,0.3,0.2,0.5,0.3,0.8L38,43c0.2,0.7,0.3,1.4,0.4,2.2c0.1,2.5,0,5.4-0.1,6.5h6.6v-2.4c0,0,0-0.1,0-0.1
	c0.2-0.7,0.8-1.2,1.6-1.2h0c1.5,0,2.3,0,2.4,0c0.4,0,0.8-0.1,1-0.4c0.3-0.3,0.5-0.7,0.4-1.1v-2.7c0-0.2,0.2-0.4,0.4-0.4h2.4
	l-1.6-4.1C51.6,39.3,51.6,39.2,51.6,39.2z"/>
<path class="st1" d="M33.9,39.3c-4.1,0-7.4-3.3-7.4-7.4c0-4.1,3.3-7.4,7.4-7.4c3.2,0,6.1,2.1,7.1,5.2c0.6-0.2,1.3-0.4,1.9-0.4
	c-0.3-0.9-0.6-1.7-1.1-2.4c-0.1-0.1-0.1-0.3,0-0.5l1.5-1.8l-2-2l-1.8,1.5c-0.1,0.1-0.3,0.1-0.5,0c-1-0.6-2-1.1-3.2-1.3
	c-0.2,0-0.3-0.2-0.3-0.4L35.3,20h-2.9l-0.2,2.3c0,0.2-0.1,0.3-0.3,0.4c-1.1,0.2-2.2,0.7-3.2,1.3c-0.1,0.1-0.3,0.1-0.5,0l-1.8-1.5
	l-2,2l1.5,1.8c0.1,0.1,0.1,0.3,0,0.5c-0.6,1-1.1,2-1.3,3.2c0,0.2-0.2,0.3-0.4,0.3l-2.3,0.2v2.9l2.3,0.2c0.2,0,0.3,0.1,0.4,0.3
	c0.2,1.1,0.7,2.2,1.3,3.2c0.1,0.1,0.1,0.3,0,0.5l-1.5,1.8l2,2l1.8-1.5c0.1-0.1,0.3-0.1,0.5,0c1,0.6,2,1.1,3.2,1.3
	c0.2,0,0.3,0.2,0.3,0.4l0.2,2.3h2.9l0.2-2.3c0-0.2,0.1-0.3,0.3-0.4c0.2,0,0.4-0.1,0.6-0.2c-0.3-0.6-0.5-1.2-0.7-1.9
	C35.2,39.2,34.5,39.3,33.9,39.3z"/>
<path class="st1" d="M40.2,29.9c-1.1-3.5-4.8-5.4-8.3-4.4c-3.5,1.1-5.4,4.8-4.4,8.3c1.1,3.4,4.7,5.4,8.1,4.4
	c-0.2-1.8,0.1-3.6,1.1-5.1C37.5,31.7,38.7,30.6,40.2,29.9z M33.3,34c-0.2,0.2-0.4,0.2-0.6,0l-2.1-2c-0.2-0.2-0.2-0.4,0-0.6
	c0.2-0.2,0.4-0.2,0.6,0l1.8,1.8l3.5-3.4c0.2-0.2,0.4-0.2,0.6,0c0.2,0.2,0.2,0.4,0,0.6c0,0,0,0,0,0L33.3,34z"/>
</svg>
