<?xml version="1.0" encoding="utf-8"?>
<!-- Generator: Adobe Illustrator 22.0.1, SVG Export Plug-In . SVG Version: 6.00 Build 0)  -->
<svg version="1.1" id="Layer_1" xmlns="http://www.w3.org/2000/svg" xmlns:xlink="http://www.w3.org/1999/xlink" x="0px" y="0px"
	 viewBox="0 0 700 800" style="enable-background:new 0 0 700 800;" xml:space="preserve">
<style type="text/css">
	.st0{opacity:0.8;}
	.st1{fill:url(#SVGID_1_);}
	.st2{fill:#278ACB;}
	.st3{opacity:0.1;fill:#FFFFFF;enable-background:new    ;}
	.st4{opacity:0.1;fill:#527FC1;enable-background:new    ;}
	.st5{opacity:0.3;}
	.st6{fill:url(#SVGID_2_);}
	.st7{fill:#FFFFFF;}
	.st8{opacity:0.1;fill:#010101;enable-background:new    ;}
	.st9{fill:url(#SVGID_3_);}
	.st10{opacity:5.000000e-02;fill:#010101;enable-background:new    ;}
	.st11{opacity:0.5;fill:#5D84C3;enable-background:new    ;}
	.st12{opacity:0.5;}
	.st13{fill:#6EC5A4;}
	.st14{opacity:0.5;fill:#F16046;enable-background:new    ;}
	.st15{fill:#72CAED;}
	.st16{fill:#F16584;}
	.st17{fill:url(#SVGID_4_);}
	.st18{fill:url(#SVGID_5_);}
	.st19{fill:#F3F3F3;}
	.st20{fill:#302E41;}
	.st21{fill:#75ABDC;}
	.st22{fill:none;stroke:#403E56;stroke-width:0.3434;stroke-miterlimit:10;}
	.st23{fill:#56B894;}
</style>
<g class="st0">
	
		<linearGradient id="SVGID_1_" gradientUnits="userSpaceOnUse" x1="361.4" y1="422.7" x2="361.4" y2="278.5" gradientTransform="matrix(1 0 0 1 0 2)">
		<stop  offset="0" style="stop-color:#818181;stop-opacity:0.25"/>
		<stop  offset="0.54" style="stop-color:#818181;stop-opacity:0.12"/>
		<stop  offset="1" style="stop-color:#818181;stop-opacity:0.1"/>
	</linearGradient>
	<ellipse class="st1" cx="361.4" cy="352.6" rx="93.1" ry="72.1"/>
</g>
<ellipse class="st2" cx="361.4" cy="352.6" rx="91" ry="70.5"/>
<path class="st3" d="M285.1,360.4c0-38.9,40.7-70.5,91-70.5c15.6-0.1,31.1,3.1,45.4,9.4c-16-10.8-36.9-17.4-59.8-17.4
	c-50.3,0-91,31.6-91,70.5c0,26.1,18.4,49,45.7,61.2C297.1,400.6,285.1,381.6,285.1,360.4z"/>
<polygon class="st4" points="548.6,735.5 347,727.2 145.3,718.9 253.3,548.4 361.4,377.9 455,556.7 "/>
<g class="st5">
	
		<linearGradient id="SVGID_2_" gradientUnits="userSpaceOnUse" x1="361.0689" y1="2024.8607" x2="361.0689" y2="1906.9993" gradientTransform="matrix(0.95 0.32 -0.32 0.95 635.94 -1369.21)">
		<stop  offset="0" style="stop-color:#818181;stop-opacity:0.25"/>
		<stop  offset="0.54" style="stop-color:#818181;stop-opacity:0.12"/>
		<stop  offset="1" style="stop-color:#818181;stop-opacity:0.1"/>
	</linearGradient>
	<path class="st6" d="M385.3,628.4l7.8-23.3c5.5-16.6-0.5-34.9-14.7-45.1h0.1c-3.1-2.2-6.5-3.9-10-5.1l0,0h-0.1h-0.1l0,0
		c-3.5-1.2-7.1-1.9-10.7-2c-1.3-0.1-2.6-0.1-3.9,0c-2.2,0.1-4.5,0.4-6.7,0.9c-0.6,0.1-1.3,0.3-1.8,0.5s-1.2,0.4-1.8,0.6
		c-1.2,0.4-2.4,0.9-3.6,1.4c-0.6,0.3-1.2,0.5-1.7,0.8c-1.7,0.8-3.4,1.8-4.9,2.9c-0.5,0.4-1,0.7-1.6,1.1c-6.3,4.8-11,11.3-13.5,18.8
		l-12.3,36.6c-1.9,5.7-2.5,11.9-1.7,17.9c0.1,0.9,0.3,1.8,0.5,2.7s0.4,1.8,0.6,2.7c0.2,0.6,0.3,1.2,0.5,1.8c0.3,0.9,0.6,1.7,1,2.6
		c0.2,0.6,0.5,1.1,0.7,1.7c0.5,1.1,1.1,2.2,1.7,3.3s1.3,2.1,2,3.1c0.5,0.8,1.1,1.5,1.7,2.2c0.8,1,1.6,1.9,2.5,2.8
		c3.8,3.8,8.3,6.8,13.3,8.8l0,0l0,0l0.2,0.1c0.3-0.5,0.6-0.9,0.9-1.4c1.9-2.6,5.2-4.4,8.4-3.8c0.2,0.1,0.5,0.1,0.7,0.2
		c1.6,0.6,3.2,1.6,4.7,2.1c1.1,0.5,2.4,0.5,3.6,0c3.1-1.6,1.9-6.8,4.6-9.1c0.1-0.1,0.3-0.2,0.4-0.3l-0.1-0.1c2-1.3,4.9-0.4,7.2,0.4
		c2.5,0.9,5.9,1.5,7.6-0.6c1.2-1.4,1.1-3.6,2.2-5.1c1.3-1.7,3.8-1.9,6-1.6h0.1c4.1,1.7,8.6-1.1,8.3-5.6
		C383,635.2,384.9,629.6,385.3,628.4z"/>
</g>
<path class="st7" d="M330.4,662.7c1.9-2.5,5-4.3,8.1-3.6s5.9,3.6,8.7,2.1c3.7-2,1.1-9.3,7.1-9.8c1.3-0.1,2.5,0.1,3.7,0.6
	c2.5,1,6.5,2.2,8.5-0.1c1.2-1.4,1.1-3.5,2.2-4.9c1.3-1.7,3.7-1.9,5.8-1.5h0.1c4,1.6,8.3-1.1,8-5.4c-0.4-5.7,1.4-11.1,1.8-12.3
	l7.6-22.4c6.7-20-4.1-41.7-24.1-48.5l0,0c-20-6.7-41.7,4.1-48.5,24.1l-11.9,35.3c-6.4,19.3,3.3,40.2,22.1,47.8
	C329.8,663.6,330.1,663.1,330.4,662.7z"/>
<circle class="st7" cx="438" cy="578.3" r="6.2"/>
<circle class="st7" cx="457.6" cy="568.6" r="3.1"/>
<path class="st8" d="M448.8,331.7c1.2,4.6,1.8,9.3,1.8,14c0,38.9-40.7,70.5-91,70.5c-41.1,0-75.9-21.2-87.1-50.2
	c8.4,32.3,45.1,56.6,89.2,56.6c50.3,0,91-31.6,91-70.5C452.7,345.1,451.3,338.2,448.8,331.7z"/>
<g class="st0">
	
		<linearGradient id="SVGID_3_" gradientUnits="userSpaceOnUse" x1="361.4" y1="430.5" x2="361.4" y2="332.1" gradientTransform="matrix(1 0 0 1 0 2)">
		<stop  offset="0" style="stop-color:#818181;stop-opacity:0.25"/>
		<stop  offset="0.54" style="stop-color:#818181;stop-opacity:0.12"/>
		<stop  offset="1" style="stop-color:#818181;stop-opacity:0.1"/>
	</linearGradient>
	<ellipse class="st9" cx="361.4" cy="383.3" rx="188.3" ry="49.2"/>
</g>
<path class="st7" d="M361.4,335.7c-100.5,0-182.1,21.3-182.1,47.6h364.1C543.4,357,461.9,335.7,361.4,335.7z"/>
<path class="st7" d="M361.4,430.9c100.5,0,182.1-21.3,182.1-47.6H179.3C179.3,409.6,260.8,430.9,361.4,430.9z"/>
<path class="st10" d="M361.4,430.9c100.5,0,182.1-21.3,182.1-47.6H179.3C179.3,409.6,260.8,430.9,361.4,430.9z"/>
<path class="st10" d="M285.4,370.9h151.9c6,0,10.9,4.9,10.9,10.9v2.9c0,6-4.9,10.9-10.9,10.9H285.4c-6,0-10.9-4.9-10.9-10.9v-2.9
	C274.5,375.8,279.4,370.9,285.4,370.9z"/>
<path class="st11" d="M171.9,305.2c-1.1-0.5-1.6-1.7-1.3-2.8c0-0.1,0-0.2,0.1-0.3l0,0c0-0.6-0.4-1.2-1.1-1.2c-0.4,0-0.8,0.2-1,0.5
	l0,0c-0.1,0.1-0.1,0.1-0.1,0.2c-0.5,1.1-1.7,1.7-2.8,1.3c-0.1,0-0.2,0-0.3-0.1l0,0c-0.6,0-1.2,0.4-1.2,1.1c0,0.4,0.2,0.8,0.5,1l0,0
	c0.1,0.1,0.1,0.1,0.2,0.1c1.1,0.5,1.6,1.7,1.3,2.8c0,0.1,0,0.2-0.1,0.3l0,0c0,0.6,0.4,1.2,1.1,1.2c0.4,0,0.8-0.1,1-0.5l0,0
	c0.1-0.1,0.1-0.2,0.1-0.2c0.5-1.1,1.7-1.6,2.8-1.3c0.1,0,0.2,0,0.3,0.1l0,0c0.6,0,1.2-0.4,1.2-1.1c0-0.4-0.2-0.8-0.5-1l0,0
	C172.1,305.3,172,305.2,171.9,305.2z"/>
<path class="st11" d="M495.4,499.7c-1.1-0.5-1.6-1.7-1.3-2.8c0-0.1,0-0.2,0.1-0.3l0,0c0-0.6-0.4-1.2-1.1-1.2c-0.4,0-0.8,0.2-1,0.5
	l0,0c-0.1,0.1-0.1,0.1-0.1,0.2c-0.5,1.1-1.7,1.7-2.8,1.3c-0.1,0-0.2,0-0.3-0.1l0,0c-0.6,0-1.2,0.4-1.2,1.1c0,0.4,0.2,0.8,0.5,1l0,0
	c0.1,0.1,0.1,0.1,0.2,0.1c1.1,0.5,1.6,1.7,1.3,2.8c0,0.1,0,0.2-0.1,0.3l0,0c0,0.6,0.4,1.2,1.1,1.2c0.4,0,0.8-0.1,1-0.5l0,0
	c0.1-0.1,0.1-0.2,0.1-0.2c0.5-1.1,1.7-1.6,2.8-1.3c0.1,0,0.2,0,0.3,0.1l0,0c0.6,0,1.2-0.4,1.2-1.1c0-0.4-0.2-0.8-0.5-1l0,0
	C495.6,499.8,495.5,499.7,495.4,499.7z"/>
<path class="st11" d="M138.2,590c-1.1-0.5-1.6-1.7-1.3-2.8c0-0.1,0-0.2,0.1-0.3l0,0c0-0.6-0.4-1.2-1.1-1.2c-0.4,0-0.8,0.2-1,0.5l0,0
	c-0.1,0.1-0.1,0.1-0.1,0.2c-0.5,1.1-1.7,1.7-2.8,1.3c-0.1,0-0.2,0-0.3-0.1l0,0c-0.6,0-1.2,0.4-1.2,1.1c0,0.4,0.2,0.8,0.5,1l0,0
	c0.1,0.1,0.1,0.1,0.2,0.1c1.1,0.5,1.6,1.7,1.3,2.8c0,0.1,0,0.2-0.1,0.3l0,0c0,0.6,0.4,1.2,1.1,1.2c0.4,0,0.8-0.1,1-0.5l0,0
	c0.1-0.1,0.1-0.2,0.1-0.2c0.5-1.1,1.7-1.6,2.8-1.3c0.1,0,0.2,0,0.3,0.1l0,0c0.6,0,1.2-0.4,1.2-1.1c0-0.4-0.2-0.8-0.5-1l0,0
	C138.4,590.1,138.3,590,138.2,590z"/>
<path class="st11" d="M103.3,379.6c-1.1-0.5-1.6-1.7-1.3-2.8c0-0.1,0-0.2,0.1-0.3l0,0c0-0.6-0.4-1.2-1.1-1.2c-0.4,0-0.8,0.2-1,0.5
	l0,0c-0.1,0.1-0.1,0.1-0.1,0.2c-0.5,1.1-1.7,1.7-2.8,1.3c-0.1,0-0.2,0-0.3-0.1l0,0c-0.6,0-1.2,0.4-1.2,1.1c0,0.4,0.2,0.8,0.5,1l0,0
	c0.1,0.1,0.1,0.1,0.2,0.1c1.1,0.5,1.6,1.7,1.3,2.8c0,0.1,0,0.2-0.1,0.3l0,0c0,0.6,0.4,1.2,1.1,1.2c0.4,0,0.8-0.1,1-0.5l0,0
	c0.1-0.1,0.1-0.2,0.1-0.2c0.5-1.1,1.7-1.6,2.8-1.3c0.1,0,0.2,0,0.3,0.1l0,0c0.6,0,1.2-0.4,1.2-1.1c0-0.4-0.2-0.8-0.5-1l0,0
	C103.4,379.7,103.3,379.6,103.3,379.6z"/>
<path class="st11" d="M489.1,272.8c-1.1-0.5-1.6-1.7-1.3-2.8c0-0.1,0-0.2,0.1-0.3l0,0c0-0.6-0.4-1.2-1.1-1.2c-0.4,0-0.8,0.2-1,0.5
	l0,0c-0.1,0.1-0.1,0.1-0.1,0.2c-0.5,1.1-1.7,1.6-2.8,1.3c-0.1,0-0.2,0-0.3-0.1l0,0c-0.6-0.1-1.3,0.3-1.4,0.9c-0.1,0.5,0.1,1,0.6,1.3
	l0,0c0.1,0.1,0.1,0.1,0.2,0.1c1.1,0.5,1.6,1.7,1.3,2.8c0,0.1,0,0.2-0.1,0.3l0,0c-0.1,0.6,0.4,1.2,1,1.3c0.4,0,0.9-0.2,1.1-0.5l0,0
	c0.1-0.1,0.1-0.2,0.1-0.2c0.5-1.1,1.7-1.6,2.8-1.3c0.1,0,0.2,0,0.3,0.1l0,0c0.6,0,1.2-0.4,1.2-1.1c0-0.4-0.2-0.8-0.5-1l0,0
	C489.2,272.9,489.2,272.8,489.1,272.8z"/>
<g class="st12">
	<rect x="156.7" y="432.4" class="st13" width="1.9" height="10.8"/>
	<rect x="152.3" y="436.8" class="st13" width="10.8" height="1.9"/>
</g>
<g class="st12">
	<rect x="614.4" y="381.5" class="st13" width="1.9" height="10.8"/>
	<rect x="609.9" y="386" class="st13" width="10.8" height="1.9"/>
</g>
<circle class="st14" cx="546.3" cy="320.5" r="3.8"/>
<circle class="st14" cx="90.6" cy="276.6" r="3.8"/>
<circle class="st14" cx="205" cy="495.9" r="3.8"/>
<ellipse class="st10" cx="235.5" cy="366.6" rx="21.6" ry="4.4"/>
<ellipse class="st10" cx="235.5" cy="400.3" rx="21.6" ry="4.4"/>
<ellipse class="st10" cx="481.5" cy="366.6" rx="21.6" ry="4.4"/>
<ellipse class="st10" cx="481.5" cy="400.3" rx="21.6" ry="4.4"/>
<ellipse class="st10" cx="361.4" cy="347.6" rx="21.6" ry="4.4"/>
<ellipse class="st10" cx="377.3" cy="301.2" rx="21.6" ry="4.4"/>
<ellipse class="st10" cx="336" cy="320.2" rx="21.6" ry="4.4"/>
<ellipse class="st10" cx="415.4" cy="328.5" rx="21.6" ry="4.4"/>
<ellipse class="st10" cx="361.4" cy="413.7" rx="21.6" ry="4.4"/>
<g id="Layer_5_1_">
	<path class="st15" d="M381.5,611.5c0,0-12.7-9.6-26.3-14c-13.6-4.4-23.7-6-34.1-4.6c0,0,14.4-19.1,35.5-9.9
		C377.7,592.1,381.5,611.5,381.5,611.5z"/>
	
		<ellipse transform="matrix(0.4331 -0.9013 0.9013 0.4331 -319.3458 635.0753)" class="st15" cx="345.2" cy="571.4" rx="4.1" ry="4.7"/>
	
		<ellipse transform="matrix(0.9999 -1.014020e-02 1.014020e-02 0.9999 -5.8609 3.7937)" class="st15" cx="371.2" cy="579.9" rx="4.7" ry="4.1"/>
</g>
<path class="st16" d="M228.2,538.5l-0.7-0.3c-0.8-0.3-1.7,0.1-1.9,0.9l-4.1,13.5l-13.1-5.2c-0.8-0.3-1.7,0.1-1.9,0.9l-0.2,0.7
	c-0.3,0.8,0.2,1.8,1,2.1l0,0l13.1,5.2l-4.1,13.5c-0.3,0.8,0.2,1.8,1,2.1l0.7,0.3c0.8,0.3,1.7-0.1,1.9-0.9l4.1-13.5l13.1,5.2
	c0.8,0.3,1.7-0.1,1.9-0.9l0.2-0.7c0.3-0.8-0.2-1.8-1-2.1l-13.1-5.2l4.1-13.5C229.5,539.7,229.1,538.8,228.2,538.5z"/>
<path class="st2" d="M250.4,526.8c-14.2-16.4-39-18.2-55.3-4c-0.2,0.2-0.5,0.4-0.7,0.6c-15.6,14.2-17.2,38.5-3.5,54.5
	c12.4,14.5,33.5,18,50,8.2l26.8,31c0.7,0.8,1.9,0.9,2.7,0.2l7.4-6.4c0.8-0.7,0.9-1.9,0.2-2.7l-26.8-31
	C263.2,562.5,262.9,541.2,250.4,526.8z M239.1,573.7c-11.7,10.1-29.5,8.9-39.6-2.9s-8.9-29.5,2.9-39.6c11.7-10.1,29.4-8.9,39.6,2.9
	C252.1,545.8,250.8,563.5,239.1,573.7L239.1,573.7z"/>
<linearGradient id="SVGID_4_" gradientUnits="userSpaceOnUse" x1="424.4648" y1="608.6844" x2="424.4648" y2="589.4759" gradientTransform="matrix(0.9991 -4.238051e-02 4.238051e-02 0.9991 -229.925 -42.1604)">
	<stop  offset="0" style="stop-color:#010101;stop-opacity:0.12"/>
	<stop  offset="0.55" style="stop-color:#010101;stop-opacity:9.000000e-02"/>
	<stop  offset="1" style="stop-color:#010101;stop-opacity:2.000000e-02"/>
</linearGradient>
<path class="st17" d="M218.6,528.8c-9,0.1-16.9,5.9-20.9,14.4c-1.3,2.7,2.8,4.9,4.1,2.2c3.3-7,9.9-11.6,17.3-11.7
	c7.7-0.1,15,5,19.1,12.3c1.5,2.8,5.1,0,3.6-2.7C236.9,534.5,227.8,528.7,218.6,528.8z"/>
<path class="st2" d="M219.1,526.5c-8.9,0.1-16.8,5.6-20.8,13.5c-1.3,2.6,2.8,4.6,4.1,2.1c3.3-6.5,9.9-10.9,17.2-11
	c7.7-0.1,14.9,4.6,18.9,11.5c1.5,2.6,5.1,0,3.6-2.5C237.2,531.7,228.3,526.3,219.1,526.5z"/>
<linearGradient id="SVGID_5_" gradientUnits="userSpaceOnUse" x1="401.6935" y1="613.2276" x2="401.6935" y2="608.6844" gradientTransform="matrix(0.9991 -4.238051e-02 4.238051e-02 0.9991 -229.925 -42.1604)">
	<stop  offset="0" style="stop-color:#010101;stop-opacity:0.12"/>
	<stop  offset="0.55" style="stop-color:#010101;stop-opacity:9.000000e-02"/>
	<stop  offset="1" style="stop-color:#010101;stop-opacity:2.000000e-02"/>
</linearGradient>
<path class="st18" d="M197.2,549c-2.9,0.1-2.7,4.7,0.2,4.5S200.1,548.8,197.2,549z"/>
<path class="st2" d="M196.9,547.2c-3.2,0.1-3,5.1,0.2,5S200.1,547,196.9,547.2z"/>
<ellipse class="st19" cx="359.6" cy="216.9" rx="181.2" ry="12"/>
<path class="st20" d="M352.7,85.6c-29.5,0-50.7,18.9-50.7,63.1c0,50.1,21.2,63.3,50.7,63.3s52-14.5,52-63.3
	C404.7,96.5,382.2,85.6,352.7,85.6z M352.9,195.4c-20.4,0-31.1-12-31.1-46.7c0-30.6,11.1-46.7,31.6-46.7c20.4,0,31.6,10.6,31.6,46.7
	C384.9,182.6,373.3,195.4,352.9,195.4z"/>
<path class="st21" d="M284.3,177.1h-12.2v-35.9c0-4-3.2-7.2-7.2-7.2H262c-4,0-7.2,3.2-7.2,7.2l0,0v35.9h-34.4
	c-2.3,0-4.1-1.8-4.1-4.1c0-0.7,0.2-1.3,0.5-1.9l36.4-69c1.9-3.5,0.5-7.9-3-9.7c-0.1-0.1-0.2-0.1-0.3-0.1l-2.2-1
	c-3.5-1.6-7.6-0.3-9.4,3.1L194,177.5c-0.8,1.4-1.2,3-1.2,4.6l0,0c0,5.4,4.4,9.8,9.8,9.8l0,0h52.3v22.7c0,4.8,3.9,8.6,8.6,8.6l0,0
	l0,0c4.8,0,8.6-3.9,8.6-8.6l0,0v-22.7h12.2c4.1,0,7.4-3.3,7.4-7.4l0,0C291.7,180.4,288.4,177.1,284.3,177.1L284.3,177.1z"/>
<path class="st21" d="M510.3,177.1h-12.2v-35.9c0-4-3.2-7.2-7.2-7.2H488c-4,0-7.2,3.2-7.2,7.2l0,0v35.9h-34.4
	c-2.3,0-4.1-1.8-4.1-4.1c0-0.7,0.2-1.3,0.5-1.9l36.4-69c1.9-3.5,0.5-7.9-3-9.7c-0.1-0.1-0.2-0.1-0.3-0.1l-2.2-1
	c-3.5-1.6-7.6-0.3-9.4,3.1l-44.4,83.1c-0.8,1.4-1.2,3-1.2,4.6l0,0c0,5.4,4.4,9.8,9.8,9.8l0,0h52.3v22.7c0,4.8,3.9,8.6,8.6,8.6l0,0
	l0,0c4.8,0,8.6-3.9,8.6-8.6l0,0v-22.7h12.2c4.1,0,7.4-3.3,7.4-7.4l0,0l0,0C517.7,180.4,514.4,177.1,510.3,177.1L510.3,177.1z"/>
<path class="st22" d="M287.7,172.9h-12.2V137c0-4-3.2-7.2-7.2-7.2l0,0h-2.9c-4,0-7.2,3.2-7.2,7.2l0,0v35.9h-34.4
	c-2.3,0-4.1-1.8-4.1-4.1c0-0.7,0.2-1.3,0.5-1.9l36.4-69c1.9-3.5,0.5-7.9-3-9.7c-0.1-0.1-0.2-0.1-0.3-0.1l-2.2-1
	c-3.5-1.6-7.6-0.3-9.4,3.1l-44.4,83.1c-0.8,1.4-1.2,3-1.2,4.6l0,0c0,5.4,4.4,9.8,9.8,9.8h52.3v22.7c0,4.8,3.9,8.6,8.6,8.6l0,0l0,0
	c4.8,0,8.6-3.9,8.6-8.6l0,0v-22.7h12.2c4.1,0,7.4-3.3,7.4-7.4l0,0C295.1,176.2,291.8,172.9,287.7,172.9z"/>
<path class="st22" d="M516.6,172.9h-12.2V137c0-4-3.2-7.2-7.2-7.2l0,0h-2.9c-4,0-7.2,3.2-7.2,7.2l0,0v35.9h-34.4
	c-2.3,0-4.1-1.8-4.1-4.1c0-0.7,0.2-1.3,0.5-1.9l36.4-69c1.9-3.5,0.5-7.9-3-9.7c-0.1-0.1-0.2-0.1-0.3-0.1l-2.2-1
	c-3.5-1.6-7.6-0.3-9.4,3.1l-44.4,83.1c-0.8,1.4-1.2,3-1.2,4.6l0,0c0,5.4,4.4,9.8,9.8,9.8l0,0h52.3v22.7c0,4.8,3.9,8.6,8.6,8.6l0,0
	l0,0c4.8,0,8.6-3.9,8.6-8.6l0,0v-22.7h12.2c4.1,0,7.4-3.3,7.4-7.4l0,0l0,0C524,176.2,520.7,172.9,516.6,172.9L516.6,172.9z"/>
<path class="st23" d="M519.8,172.3c3.7,1.3,7.8-0.6,9.2-4.3s-0.6-7.8-4.3-9.2c-1.3-0.5-2.6-0.6-3.9-0.3l0.2,3.7l-1.7-3.2
	c-1.7,0.8-3,2.3-3.7,4c-0.2,0.6-0.4,1.3-0.4,1.9C514.8,168.3,516.8,171.2,519.8,172.3z"/>
<path class="st22" d="M528.4,215c-0.6-3.1,2-5.9,4.7-7.7c2.6-1.8,5.7-3.6,6.6-6.6c1.3-4.4-2.6-8.4-5.5-11.9
	c-2.2-2.6-4.1-5.4-5.7-8.4c-0.6-1.2-1.2-2.5-1.4-3.8c-0.2-1.9,0.4-3.9,1-5.7c2.1-6.2,4.3-12.3,6.7-18.4"/>
<path class="st22" d="M520,171.4c3.7,1.3,7.8-0.6,9.2-4.3c1.3-3.7-0.6-7.8-4.3-9.2c-1.3-0.5-2.6-0.6-3.9-0.3l0.2,3.7l-1.7-3.2
	c-1.7,0.8-3,2.3-3.7,4c-0.2,0.6-0.4,1.3-0.4,1.9C515.1,167.3,517,170.3,520,171.4z"/>
<path class="st23" d="M527.5,151c0.8-2.3,2.8-4,5.1-4.5l0.6,3.5l1.1-3.7c3.9,0.1,7.1,3.3,7,7.3c-0.1,3.9-3.3,7.1-7.3,7
	c-3.9-0.1-7.1-3.3-7-7.3C527.1,152.6,527.2,151.8,527.5,151z"/>
<path class="st22" d="M527.9,149.8c0.8-2.3,2.8-4,5.1-4.5l0.6,3.5l1.1-3.7c3.9,0.1,7.1,3.3,7,7.3c-0.1,3.9-3.3,7.1-7.3,7
	c-3.9-0.1-7.1-3.3-7-7.3C527.5,151.3,527.6,150.5,527.9,149.8z"/>
<path class="st23" d="M532.8,188.8c3.7,1.3,7.8-0.6,9.2-4.3c1.1-3.1,0-6.6-2.8-8.4l-0.8,2.8l-0.6-3.5l0,0c-3.7-1.3-7.8,0.6-9.2,4.3
	C527.2,183.4,529.1,187.5,532.8,188.8L532.8,188.8L532.8,188.8z"/>
<path class="st22" d="M533.2,187.6c3.7,1.3,7.8-0.6,9.2-4.3c1.1-3.1,0-6.6-2.8-8.4l-0.8,2.8l-0.6-3.5l0,0c-3.7-1.3-7.8,0.6-9.2,4.3
	C527.6,182.1,529.5,186.2,533.2,187.6L533.2,187.6L533.2,187.6z"/>
<path class="st23" d="M525.4,200.7c0.7,3.9,4.4,6.5,8.3,5.8c3.9-0.7,6.5-4.4,5.8-8.3c-0.7-3.9-4.4-6.5-8.3-5.8
	c-1.8,0.3-3.3,1.3-4.4,2.7l3.2,4.8l-4.4-2.5C525.3,198.4,525.2,199.6,525.4,200.7z"/>
<path class="st22" d="M525.7,199.8c0.7,3.9,4.4,6.5,8.3,5.8c3.9-0.7,6.5-4.4,5.8-8.3c-0.7-3.9-4.4-6.5-8.3-5.8
	c-1.8,0.3-3.3,1.3-4.4,2.7l3.2,4.8l-4.4-2.5C525.6,197.5,525.5,198.6,525.7,199.8z"/>
<path class="st23" d="M177.1,189.7c2.4,0.9,5.1-0.4,6-2.8c0.9-2.4-0.4-5.1-2.8-6c-0.8-0.3-1.7-0.4-2.6-0.2l0.1,2.4l-1.1-2.1
	c-1.1,0.5-2,1.5-2.4,2.6c-0.1,0.4-0.2,0.8-0.3,1.3C173.8,187.1,175.1,189,177.1,189.7z"/>
<path class="st22" d="M182.7,217.8c-0.4-2.1,1.3-3.9,3.1-5.1s3.7-2.3,4.3-4.4c0.8-2.9-1.7-5.5-3.6-7.8c-1.5-1.7-2.7-3.6-3.7-5.5
	c-0.4-0.8-0.7-1.6-0.9-2.5c-0.2-1.3,0.3-2.6,0.7-3.8c1.4-4.1,2.9-8.1,4.4-12.1"/>
<path class="st22" d="M177.3,189.1c2.4,0.9,5.1-0.4,6-2.8c0.9-2.4-0.4-5.1-2.8-6c-0.8-0.3-1.7-0.4-2.6-0.2l0.1,2.4l-1.1-2.1
	c-1.1,0.5-2,1.5-2.4,2.6c-0.1,0.4-0.2,0.8-0.3,1.3C174,186.5,175.3,188.4,177.3,189.1z"/>
<path class="st23" d="M182.2,175.8c0.5-1.5,1.8-2.6,3.4-3l0.4,2.3l0.7-2.4c2.6,0,4.7,2.2,4.6,4.8c0,2.6-2.2,4.7-4.8,4.6
	c-2.6,0-4.7-2.2-4.6-4.8C181.9,176.8,182,176.2,182.2,175.8z"/>
<path class="st22" d="M182.4,174.9c0.5-1.5,1.8-2.6,3.4-3l0.4,2.3l0.7-2.4c2.6,0,4.7,2.2,4.6,4.8c0,2.6-2.2,4.7-4.8,4.6
	c-2.6,0-4.7-2.2-4.6-4.8C182.1,175.9,182.2,175.4,182.4,174.9z"/>
<path class="st23" d="M185.7,200.6c2.4,0.9,5.1-0.4,6-2.8c0.7-2.1,0-4.4-1.9-5.5l-0.6,1.9l-0.4-2.3l0,0c-2.4-0.9-5.1,0.4-6,2.8
	C182,197,183.2,199.7,185.7,200.6L185.7,200.6z"/>
<path class="st22" d="M185.9,199.7c2.4,0.9,5.1-0.4,6-2.8c0.7-2.1,0-4.4-1.9-5.5l-0.6,1.9L189,191l0,0c-2.4-0.9-5.1,0.4-6,2.8
	C182.2,196.2,183.5,198.9,185.9,199.7L185.9,199.7L185.9,199.7z"/>
<path class="st23" d="M180.8,208.4c0.4,2.6,2.9,4.3,5.4,3.8c2.6-0.4,4.3-2.9,3.8-5.4c-0.4-2.6-2.9-4.3-5.4-3.8
	c-1.2,0.2-2.2,0.8-2.9,1.8l2.1,3.1l-2.9-1.7C180.7,206.9,180.7,207.6,180.8,208.4z"/>
<path class="st22" d="M181,207.8c0.4,2.6,2.9,4.3,5.4,3.8c2.6-0.4,4.3-2.9,3.8-5.4c-0.4-2.6-2.9-4.3-5.4-3.8
	c-1.2,0.2-2.2,0.8-2.9,1.8l2.1,3.1l-2.9-1.7C180.9,206.3,180.9,207,181,207.8z"/>
<circle class="st7" cx="372.5" cy="134.1" r="1.7"/>
</svg>
