<?xml version="1.0" encoding="utf-8"?>
<!-- Generator: Adobe Illustrator 22.0.1, SVG Export Plug-In . SVG Version: 6.00 Build 0)  -->
<svg version="1.1" id="Layer_1" xmlns="http://www.w3.org/2000/svg" xmlns:xlink="http://www.w3.org/1999/xlink" x="0px" y="0px"
	 viewBox="0 0 1300 400" style="enable-background:new 0 0 1300 400;" xml:space="preserve">
<style type="text/css">
	.st0{fill:url(#SVGID_1_);stroke:#000000;stroke-width:1.6452;stroke-miterlimit:10;}
	.st1{fill:#E9E8E8;}
	.st2{fill:none;stroke:#E9E8E8;stroke-width:0.8937;stroke-miterlimit:10;}
	.st3{fill:#919191;}
	.st4{fill:#B7B7B8;}
	.st5{fill:#4BA5DC;}
	.st6{fill:#564B9F;}
	.st7{fill:#191919;}
	.st8{fill:#2B2C2B;}
	.st9{fill:#171717;}
	.st10{fill:#FFFFFF;stroke:#171717;stroke-width:0.5958;stroke-miterlimit:10;}
	.st11{opacity:0.23;fill:#6D6C6D;enable-background:new    ;}
	.st12{opacity:0.24;fill:#6D6C6D;enable-background:new    ;}
	.st13{fill:#FFFFFF;}
	.st14{opacity:0.19;fill:#6D6C6D;enable-background:new    ;}
	.st15{opacity:0.29;fill:#6D6C6D;enable-background:new    ;}
	.st16{opacity:0.26;fill:#6D6C6D;enable-background:new    ;}
	.st17{opacity:0.34;fill:#6D6C6D;enable-background:new    ;}
	.st18{opacity:0.47;fill:#6D6C6D;enable-background:new    ;}
	.st19{fill:#171717;stroke:#171717;stroke-width:0.5958;stroke-miterlimit:10;}
	.st20{opacity:0.18;fill:#6D6C6D;enable-background:new    ;}
	.st21{opacity:0.28;fill:#6D6C6D;enable-background:new    ;}
	.st22{opacity:0.33;fill:#6D6C6D;enable-background:new    ;}
	.st23{opacity:0.38;fill:#6D6C6D;enable-background:new    ;}
	.st24{opacity:0.25;fill:#6D6C6D;enable-background:new    ;}
	.st25{fill:#72CAED;}
</style>
<linearGradient id="SVGID_1_" gradientUnits="userSpaceOnUse" x1="0" y1="200" x2="1300" y2="200">
	<stop  offset="0" style="stop-color:#282973"/>
	<stop  offset="1" style="stop-color:#44BDED"/>
</linearGradient>
<rect class="st0" width="1300" height="400"/>
<g id="background_n3">
	<g>
		<g>
			<path class="st1" d="M953,330.3c-0.4,3.3-1.7,6.3-3.8,8.7c-0.4,0.4,0.2,1.1,0.6,0.7c2.2-2.5,3.6-5.6,4-9.1
				C953.8,330,953,329.7,953,330.3L953,330.3z"/>
		</g>
	</g>
	<g>
		<g>
			<path class="st1" d="M953.1,330.8c1.1,2.7,2.5,5.1,4.3,7.3c0.4,0.5,1-0.2,0.6-0.7c-1.7-2.1-3.1-4.5-4.1-7.1
				C953.6,329.8,952.9,330.3,953.1,330.8L953.1,330.8z"/>
		</g>
	</g>
	<g>
		<g>
			<path class="st1" d="M950,339.4c0-0.1-0.1-0.2-0.1-0.2c-0.2,0.2-0.5,0.4-0.7,0.6c1.9,1.7,3.3,3.8,4.4,6.2c0.2,0.5,1,0.1,0.7-0.5
				c-1.1-2.5-2.6-4.6-4.5-6.4c-0.4-0.3-0.9,0.1-0.7,0.6c0,0.1,0.1,0.2,0.1,0.2C949.5,340.4,950.2,340,950,339.4L950,339.4z"/>
		</g>
	</g>
	<g>
		<g>
			<path class="st1" d="M954.4,345.7c0.9-2.6,2.1-5,3.4-7.3c0.3-0.5-0.4-1-0.7-0.5c-1.4,2.4-2.6,4.9-3.5,7.5
				C953.4,346,954.2,346.3,954.4,345.7L954.4,345.7z"/>
		</g>
	</g>
	<g>
		<g>
			<path class="st1" d="M856.1,227c-1,3.1-2.1,6.2-4,8.8c-0.3,0.5,0.3,1.1,0.6,0.7c2-2.7,3.2-6,4.2-9.2
				C857.1,226.7,856.2,226.5,856.1,227L856.1,227z"/>
		</g>
	</g>
	<g>
		<g>
			<path class="st1" d="M856.1,227.3c0.6,1.5,0.8,3.3,1.3,4.9c0.5,1.5,1,2.9,1.6,4.3c0.2,0.5,1,0.1,0.7-0.5
				c-0.7-1.7-1.4-3.4-1.9-5.1c-0.4-1.3-0.6-2.8-1.1-4C856.6,226.2,855.9,226.7,856.1,227.3L856.1,227.3z"/>
		</g>
	</g>
	<g>
		<g>
			<path class="st1" d="M852.3,236.5c0.8,0.4,1.4,2.1,1.7,3c0.5,1.2,0.9,2.5,1.2,3.8c0.1,0.6,1,0.3,0.8-0.2
				c-0.4-1.6-0.9-3.1-1.5-4.6c-0.5-1-0.9-2.3-2-2.8C852,235.3,851.8,236.2,852.3,236.5L852.3,236.5z"/>
		</g>
	</g>
	<g>
		<g>
			<path class="st1" d="M856,243.4c1-2.4,2.2-4.7,3.5-6.9c0.3-0.5-0.4-1-0.7-0.5c-1.3,2.2-2.5,4.5-3.5,6.9
				C855.1,243.5,855.8,244,856,243.4L856,243.4z"/>
		</g>
	</g>
	<g>
		<g>
			<path class="st1" d="M891.5,173.9c-0.7,2.6-1.8,4.8-3.3,6.8c-0.4,0.5,0.3,1.1,0.6,0.7c1.7-2.1,2.9-4.5,3.6-7.2
				C892.5,173.6,891.7,173.4,891.5,173.9L891.5,173.9z"/>
		</g>
	</g>
	<g>
		<g>
			<path class="st1" d="M891.5,174.4c0.5,2.3,1,5.1,2.4,7c0.3,0.5,0.9-0.2,0.6-0.7c-1.3-1.7-1.8-4.4-2.2-6.5
				C892.2,173.6,891.4,173.8,891.5,174.4L891.5,174.4z"/>
		</g>
	</g>
	<g>
		<g>
			<path class="st1" d="M888,181.7c0.8,0.5,1.4,2.3,1.8,3.2c0.5,1.2,0.9,2.4,1.2,3.6c0.1,0.6,1,0.3,0.8-0.2
				c-0.4-1.5-0.9-2.9-1.5-4.3c-0.4-1-1-2.6-1.9-3.1C888,180.6,887.5,181.3,888,181.7L888,181.7z"/>
		</g>
	</g>
	<g>
		<g>
			<path class="st1" d="M891.9,188.3c0.7-2.4,1.6-4.6,2.6-6.9c0.3-0.5-0.5-1-0.7-0.5c-1.1,2.3-2,4.6-2.7,7.1
				C890.9,188.6,891.7,188.9,891.9,188.3L891.9,188.3z"/>
		</g>
	</g>
	<g>
		<g>
			<path class="st1" d="M1070.7,262.1c-0.6,1.7-1.3,3.5-2.7,4.7c-0.4,0.4,0.2,1,0.6,0.7c1.5-1.3,2.3-3.2,2.9-5.1
				C1071.7,261.7,1070.9,261.5,1070.7,262.1L1070.7,262.1z"/>
		</g>
	</g>
	<g>
		<g>
			<path class="st1" d="M1071,262.5c0.4,1.6,1.1,3.1,2,4.4c0.3,0.5,1.1,0,0.7-0.5c-0.9-1.2-1.5-2.6-1.9-4.1
				C1071.7,261.7,1070.8,261.9,1071,262.5L1071,262.5z"/>
		</g>
	</g>
	<g>
		<g>
			<path class="st1" d="M1068.2,267.5c0.9,1.3,1.6,2.7,2,4.3c0.1,0.6,1,0.3,0.8-0.2c-0.4-1.7-1.2-3.3-2.2-4.7
				C1068.4,266.4,1067.8,267,1068.2,267.5L1068.2,267.5z"/>
		</g>
	</g>
	<g>
		<g>
			<path class="st1" d="M1071,272.1c0.8-1.9,1.7-3.7,2.8-5.3c0.3-0.5-0.4-0.9-0.7-0.5c-1.1,1.7-2.1,3.4-2.8,5.3
				C1070,272.2,1070.7,272.6,1071,272.1L1071,272.1z"/>
		</g>
	</g>
	<g>
		<g>
			<path class="st1" d="M1122.4,334.4c-0.6,1.8-1.5,3.5-2.6,5c-0.4,0.5,0.3,1.1,0.6,0.7c1.3-1.6,2.2-3.4,2.8-5.4
				C1123.4,334.1,1122.5,333.9,1122.4,334.4L1122.4,334.4z"/>
		</g>
	</g>
	<g>
		<g>
			<path class="st1" d="M1122.3,335.2c0.4,0.8,0.5,1.8,0.8,2.6c0.3,0.8,0.7,1.6,1.2,2.3c0.3,0.5,1.1,0,0.7-0.5
				c-0.5-0.8-1-1.6-1.3-2.6c-0.3-0.8-0.4-1.6-0.7-2.4C1122.8,334.2,1122.1,334.7,1122.3,335.2L1122.3,335.2z"/>
		</g>
	</g>
	<g>
		<g>
			<path class="st1" d="M1119.8,339.8c0.7,1.2,1.3,2.4,1.6,3.8c0.1,0.4,0.6,0.5,0.8,0.1c0.6-1.3,1.4-2.4,2.5-3.3
				c0.5-0.3,0-1.2-0.4-0.8c-1.2,1-2.2,2.1-2.8,3.6c0.3,0,0.5,0.1,0.8,0.1c-0.4-1.4-1-2.8-1.7-4
				C1120.2,338.9,1119.5,339.3,1119.8,339.8L1119.8,339.8z"/>
		</g>
	</g>
	<polygon class="st2" points="1131.3,208.8 1128.3,207.5 1125.7,209.4 1125.9,206 1123.4,203.9 1126.5,203 1127.6,199.8 
		1129.3,202.7 1132.4,202.8 1130.4,205.5 	"/>
	<g>
		<g>
			<path class="st1" d="M1126.2,197.9c4.3-8,9.6-15.3,15.8-21.7c0.4-0.4-0.2-1.1-0.6-0.7c-6.2,6.4-11.6,13.8-16,21.9
				C1125.2,198,1126,198.5,1126.2,197.9L1126.2,197.9z"/>
		</g>
	</g>
	<g>
		<g>
			<path class="st1" d="M1132.4,196.4c7-11.4,15.7-21.3,25.8-29.3c0.4-0.3,0-1.2-0.4-0.8c-10.2,8.1-19.1,18.2-26.1,29.7
				C1131.3,196.4,1132.1,196.9,1132.4,196.4L1132.4,196.4z"/>
		</g>
	</g>
	<g>
		<g>
			<path class="st1" d="M1133.9,205.4c3.4-4.5,7-8.9,10.7-13c0.4-0.4-0.2-1.1-0.6-0.7c-3.8,4.1-7.3,8.5-10.7,13
				C1133,205.1,1133.6,205.8,1133.9,205.4L1133.9,205.4z"/>
		</g>
	</g>
	<g>
		<g>
			<path class="st1" d="M1036.4,149.4c-2.3-5.1,2.6-9.9,6.8-10.7c5.2-1,10.7,1,16,1.5c10,0.9,20.1-0.4,29.7-3.7
				c4.8-1.7,9.4-3.9,13.8-6.5c4.7-2.8,9.3-6,14-8.8c4.8-2.8,9.8-5.2,15.2-6.1c5.3-1,10.6-0.2,15.5,2c4.6,2.1,9.4,5.2,13,9
				c3.7,4,4.9,9.3,2.8,14.6c-4.3,10.5-16.6,12.1-25.8,12.5c-9.9,0.4-20.1-0.6-29.8,2.4c-9.8,3.1-17.1,10.9-25.7,16.6
				c-8.7,5.8-18.8,9.7-29.1,9c-8.7-0.6-17.5-5-22.9-12.6c-1.3-1.9-2.4-3.9-3.3-6.1c-0.2-0.6-1-0.1-0.7,0.5
				c3.6,8.9,11.2,15.1,19.6,17.8c9.7,3.1,20.1,1.1,29.1-3.3c5-2.4,9.7-5.6,14.2-9.1c4.4-3.4,8.7-7,13.6-9.5c10.3-5.3,22-4.2,33-4.5
				c9.2-0.2,21-1.1,27-10c2.5-3.7,3.7-8.7,2.2-13.2c-1.7-4.9-5.9-8.1-9.7-10.7c-4.4-3.1-9.3-5.5-14.4-6.3
				c-5.4-0.8-10.8,0.3-15.9,2.3c-10.8,4.3-19.8,12.5-30.4,17.2c-10.2,4.5-21.4,6.6-32.4,6c-3-0.2-6-0.6-8.9-1.1
				c-2.6-0.5-5.2-1-7.9-0.8c-4.1,0.3-8.1,2.5-9.5,7c-0.6,1.8-0.5,3.6,0.3,5.4C1035.9,150.3,1036.6,149.9,1036.4,149.4L1036.4,149.4z
				"/>
		</g>
	</g>
	<g>
		<g>
			<path class="st1" d="M1048.8,145.6c14.7,2.1,29.9,0.5,43.9-4.8c13.6-5.1,25.9-15.3,40.5-16.6c7.3-0.7,14.9,0.9,20.5,6.3
				c0.4,0.4,1-0.2,0.6-0.7c-10.1-9.7-24.8-7.3-36.3-2.2c-7,3.1-13.6,7.2-20.7,10.3c-7.2,3.2-14.7,5.4-22.4,6.6
				c-8.7,1.4-17.5,1.4-26.1,0.2C1048.3,144.6,1048.3,145.5,1048.8,145.6L1048.8,145.6z"/>
		</g>
	</g>
	<g>
		<g>
			<path class="st1" d="M1071.3,163.6c5.7-0.5,10.8-3.4,15.7-6.5c5.3-3.4,10.5-6.9,16.6-8.4c13.1-3.3,26.7,0.4,39.8-2.6
				c5.8-1.3,12.9-5.2,12.3-12.9c-0.1-0.6-0.9-0.6-0.9,0c0.6,7.9-7.2,11.2-12.9,12.3c-6.3,1.2-12.8,1-19.2,0.9
				c-6.2-0.1-12.4-0.2-18.5,1.2c-5.6,1.3-10.5,4.1-15.4,7.2c-5.5,3.5-11.1,7.3-17.6,7.9C1070.8,162.7,1070.8,163.7,1071.3,163.6
				L1071.3,163.6z"/>
		</g>
	</g>
	<g>
		<g>
			<path class="st1" d="M1093.7,170.7c6.6-5,13.6-9.7,21.5-11.9c8.5-2.4,17.4-1.6,26.1-0.8c0.5,0.1,0.5-0.9,0-0.9
				c-8.8-0.8-17.7-1.5-26.4,0.9c-7.9,2.2-15,6.9-21.7,12C1092.8,170.3,1093.2,171.1,1093.7,170.7L1093.7,170.7z"/>
		</g>
	</g>
	<g>
		<g>
			<path class="st1" d="M914.1,153.3c-1.7-1.2-3.2-2.9-3.6-5.2c-0.5-2.1,0.2-4.5,1.9-5.8c1.7-1.3,4-0.7,5.9-0.9
				c1.6-0.1,3.1-0.6,4.5-1.2c6.5-3,10.4-9.8,15.3-14.9c2.5-2.6,5.4-5.2,8.9-6c3.2-0.8,7.4,0.1,8.2,4.1c0.9,4.8-3.1,8.3-6.3,10.6
				c-3.6,2.6-7.2,5.3-10.9,7.9c-3.9,2.9-7.8,5.9-11.9,8.6c-3.8,2.5-8.5,4.5-12.7,1.8c-0.5-0.3-0.9,0.5-0.4,0.8
				c3.4,2.2,7.5,1.6,10.9-0.2c4.4-2.3,8.5-5.8,12.6-8.8c4.2-3.1,8.5-6.1,12.7-9.3c3.1-2.3,6.4-5.1,6.8-9.5c0.3-3.7-2-6.5-5.2-7.1
				c-3.5-0.7-7,0.9-9.8,3.1c-6.9,5.3-11,14.8-19.1,18.3c-1.2,0.5-2.5,0.9-3.8,1c-1.3,0.1-2.5-0.1-3.8,0.1c-1.9,0.2-3.4,1.2-4.3,3.1
				c-1.9,4,0.4,8.2,3.5,10.4C914.1,154.4,914.6,153.6,914.1,153.3L914.1,153.3z"/>
		</g>
	</g>
	<g>
		<g>
			<path class="st1" d="M938.6,115.3c-0.5-4.1,4.1-5.3,6.7-6.6c1.3-0.7,2.5-1.6,3.7-2.5c0.6-0.4,1.2-0.9,1.8-1.2
				c0.7-0.4,1.7-1.1,2.3-0.2c0.5,0.6,0.3,0.8,0,1.5c-0.1,0.3-0.3,0.7-0.5,1c-0.4,0.8-0.9,1.6-1.4,2.2c-1.2,1.3-2.8,1.5-4.4,2.2
				c-1.2,0.5-2.3,1.1-3.4,1.8C942.1,114.4,940.4,116.5,938.6,115.3c-0.4-0.2-0.8,0.6-0.3,0.9c1.5,0.9,2.9,0.1,4.2-0.9
				c2-1.6,4-2.7,6.4-3.5c1.9-0.6,3-1.7,4.1-3.5c0.6-1,2-3.1,1.1-4.4c-0.8-1.1-2.3-0.5-3.3,0c-2,1.1-3.7,2.7-5.7,3.8
				c-3,1.6-7.9,2.9-7.3,7.8C937.9,116.1,938.7,115.9,938.6,115.3L938.6,115.3z"/>
		</g>
	</g>
	<g>
		<g>
			<path class="st1" d="M915.6,147.6c-0.9-0.2-0.8-1-0.6-1.6c0.3-0.7,0.8-0.9,1.4-1.2c0.7-0.2,1.5-0.2,2.2-0.3
				c1.6-0.3,3.1-0.7,4.6-1.4c2.8-1.3,5.4-3.1,7.8-5.2c2.7-2.4,5.2-5,7.7-7.6c2.5-2.6,5.2-5.8,8.9-5.6c-0.1-0.2-0.3-0.3-0.4-0.5
				c0.3,3.6-2.8,6.1-5.2,7.9c-2.9,2.2-5.8,4.5-8.7,6.8c-2.7,2.1-5.3,4.3-8.1,6.2c-1.4,1-2.8,1.9-4.3,2.5c-1.5,0.6-3.8,1.5-5,0
				c-0.4-0.4-1,0.2-0.6,0.7c1.9,2.4,5.8,0.4,7.9-0.7c3.6-2,6.8-4.9,10.1-7.5c3.4-2.7,6.9-5.3,10.3-8c2.3-1.9,4.7-4.4,4.4-7.9
				c0-0.2-0.2-0.5-0.4-0.5c-3.8-0.1-6.8,3.1-9.3,5.7c-3.3,3.4-6.4,6.9-10.1,9.7c-1.8,1.3-3.6,2.5-5.6,3.3c-1.9,0.8-3.9,1.1-5.9,1.5
				c-1.2,0.2-2.4,0.8-2.6,2.2c-0.2,1.1,0.3,2.2,1.3,2.4C915.9,148.6,916.1,147.7,915.6,147.6L915.6,147.6z"/>
		</g>
	</g>
	<g>
		<g>
			<path class="st1" d="M891.7,198.9c-0.9,1.6-0.5,3.6,0.9,4.8c1.9,1.7,4-0.1,5.7-1.3c1.4-1,3.3-1.7,4.3,0.3c0.4,0.9,0.6,2,1,3
				c0.3,0.7,0.7,1.3,1.4,1.7c1.3,0.6,2.6-0.5,3.9-0.2c0.5,0.1,0.8-0.8,0.2-0.9c-1-0.2-1.7,0.2-2.7,0.4c-1.6,0.2-2-0.9-2.4-2.3
				c-0.4-1.4-0.8-3-2.1-3.6c-1.7-0.8-3.4,0.5-4.7,1.5c-1.1,0.8-2.5,1.9-3.8,1c-1.1-0.8-1.5-2.5-0.8-3.7
				C892.7,198.9,892,198.4,891.7,198.9L891.7,198.9z"/>
		</g>
	</g>
	<g>
		<g>
			<path class="st1" d="M908.1,197.1c-0.6,1.7,0.5,3,1.9,3.6c1.2,0.5,7.5,0.8,7.1,3c-0.1,0.6,0.7,0.8,0.8,0.2c0.8-4.8-10.6-2-9-6.5
				C909.1,196.8,908.3,196.5,908.1,197.1L908.1,197.1z"/>
		</g>
	</g>
	<g>
		<g>
			<path class="st1" d="M922.4,319.1c0.5,0.9,1.5,0.6,1.9-0.3c0.9-2,0.9-4.4,2.9-5.7c2.1-1.3,3.5,0.9,5.5,1.1
				c1.6,0.2,3.1-0.7,4.2-1.9c1.3-1.5,2-3.4,2.8-5.2c0.5-1,1.2-1.6,2.2-0.7c0.3,0.3,0.6,0.6,0.9,0.9c0.4,0.4,0.8,0.7,1.3,0.9
				c2.4,1.2,5.5,0.1,6.8-2.4c0.3-0.5-0.5-1-0.7-0.5c-0.8,1.5-2.3,2.4-3.9,2.4c-1.9,0-2.6-1.2-4-2.3c-2.6-2.1-3.8,2.6-4.7,4.4
				c-1.1,2-3,4-5.4,3.2c-1.3-0.5-2.3-1.6-3.8-1.3c-1.2,0.2-2.3,1-3,2.1c-0.4,0.6-0.7,1.2-0.9,1.9c-0.2,0.5-0.3,0.9-0.5,1.4
				c-0.1,0.2-0.5,1.7-0.7,1.5C922.8,318.2,922.1,318.6,922.4,319.1L922.4,319.1z"/>
		</g>
	</g>
	<g>
		<g>
			<path class="st1" d="M940.7,315.4c0.4-3.5,5-1,6.7-0.8c1.6,0.2,3-0.4,3.7-2c0.5-1.1,0.7-2.4,1.9-2.9c1-0.4,2.3-0.1,3.3-0.3
				c2-0.3,3.8-1.1,5.4-2.4c0.5-0.3,0-1.2-0.4-0.8c-1.1,0.9-2.4,1.6-3.7,2c-1.3,0.4-2.6,0.3-3.9,0.5c-2.1,0.2-2.4,1.7-3.3,3.5
				c-1.6,3.3-5,0.4-7.5,0.5c-1.5,0.1-2.9,1.1-3.1,2.8C939.7,316,940.6,316,940.7,315.4L940.7,315.4z"/>
		</g>
	</g>
	<g>
		<g>
			<path class="st1" d="M957,244.5c-0.2,1.8-1,3.5-2.2,4.7c-0.4,0.4,0.2,1.1,0.6,0.7c1.5-1.4,2.3-3.2,2.5-5.3
				C957.9,243.9,957.1,243.9,957,244.5L957,244.5z"/>
		</g>
	</g>
	<g>
		<g>
			<path class="st1" d="M957.4,245.6c0.2,1.5,0.9,2.8,2,3.8c0.4,0.4,1-0.3,0.6-0.7c-0.9-0.9-1.5-2-1.7-3.4
				C958.1,244.8,957.3,245,957.4,245.6L957.4,245.6z"/>
		</g>
	</g>
	<g>
		<g>
			<path class="st1" d="M954.7,250.5c0.9,1.2,1.5,2.6,1.8,4.2c0.1,0.6,0.9,0.3,0.8-0.2c-0.3-1.7-1-3.2-2-4.6
				C955,249.4,954.4,250.1,954.7,250.5L954.7,250.5z"/>
		</g>
	</g>
	<g>
		<g>
			<path class="st1" d="M957.8,254.5c0.4-1.6,1-3,1.9-4.2c0.3-0.5-0.3-1.1-0.6-0.7c-1,1.4-1.7,2.9-2.1,4.6
				C956.8,254.9,957.6,255.1,957.8,254.5L957.8,254.5z"/>
		</g>
	</g>
	<g>
		<g>
			<path class="st1" d="M1068.2,305.6c-0.2,1.9,1.3,3.4,3,3.5c3,0.2,4.8-3.3,7.6-3.9c2.1-0.4,2.8,1.4,4,2.9c0.7,0.8,1.5,1.5,2.4,1.8
				c2,0.7,4.2,0,5.6-1.6c0.4-0.4-0.2-1.1-0.6-0.7c-1.5,1.7-3.9,2.1-5.8,0.8c-1.6-1.1-2.1-3.6-4-4.1c-1.8-0.5-3.5,0.6-4.9,1.7
				c-0.9,0.7-1.8,1.5-2.8,1.9c-1.3,0.5-3.8,0.1-3.5-2.1C1069.1,305.3,1068.3,305,1068.2,305.6L1068.2,305.6z"/>
		</g>
	</g>
	<g>
		<g>
			<path class="st1" d="M1078.4,315c2.1-1.2,4.5-1.3,6.6-0.3c1.6,0.7,2.7,2.1,4.6,2c1.6-0.1,3.1-1,4.5-1.9c1.7-1,5.1-2.4,6,0.6
				c0.2,0.6,1,0.3,0.8-0.2c-0.5-1.6-1.9-2.5-3.4-2.5c-2.3-0.1-4.2,1.8-6.3,2.7c-1.6,0.7-2.8,0.4-4.3-0.5c-0.9-0.6-1.9-1.2-2.9-1.5
				c-2.1-0.5-4.2-0.2-6.1,0.8C1077.4,314.5,1077.9,315.3,1078.4,315L1078.4,315z"/>
		</g>
	</g>
	<g>
		<g>
			<path class="st1" d="M1045,369.7c0.1,2.8-0.7,5.5-2.5,7.5c0.2,0.2,0.5,0.4,0.7,0.6c0.8-1.2,1.3-2.5,1.8-3.9
				c0.2-0.6-0.7-0.8-0.8-0.2c-0.4,1.3-0.9,2.6-1.7,3.7c-0.3,0.4,0.3,0.9,0.7,0.6c1.9-2.2,2.9-5.1,2.8-8.2
				C1045.9,369.1,1045,369.1,1045,369.7L1045,369.7z"/>
		</g>
	</g>
	<g>
		<g>
			<path class="st1" d="M1045.1,369.8c0.5,2.6,1.6,4.9,3.3,6.8c0.4,0.4,1-0.2,0.6-0.7c-1.6-1.8-2.6-4-3.1-6.4
				C1045.8,369,1044.9,369.2,1045.1,369.8L1045.1,369.8z"/>
		</g>
	</g>
	<g>
		<g>
			<path class="st1" d="M1042.4,378.6c1.5,1.8,2.7,3.7,3.7,6c0.2,0.6,1,0.1,0.7-0.5c-1-2.3-2.2-4.3-3.8-6.1
				C1042.6,377.5,1042,378.2,1042.4,378.6L1042.4,378.6z"/>
		</g>
	</g>
	<g>
		<g>
			<path class="st1" d="M1046.7,384.6c0.9-2.4,1.9-4.7,2.8-7.1c0.2-0.6-0.5-1-0.7-0.5c-0.9,2.4-1.9,4.7-2.8,7.1
				C1045.8,384.6,1046.5,385.1,1046.7,384.6L1046.7,384.6z"/>
		</g>
	</g>
	<g>
		<g>
			<path class="st1" d="M972.2,378.7c3.9,4.1,8.5,7.2,13.6,9.1c0.5,0.2,0.7-0.7,0.2-0.9c-5-1.8-9.5-4.8-13.3-8.9
				C972.4,377.6,971.8,378.3,972.2,378.7L972.2,378.7z"/>
		</g>
	</g>
	<g>
		<g>
			<path class="st1" d="M981.5,380.8c4.5,2.7,9.4,4.3,14.6,4.7c0.5,0,0.5-0.9,0-0.9c-5-0.4-9.8-1.9-14.1-4.6
				C981.5,379.7,981.1,380.5,981.5,380.8L981.5,380.8z"/>
		</g>
	</g>
	<g>
		<g>
			<path class="st1" d="M1090.5,253.4c0.8,6.1,2.5,12.1,4.9,17.7c0.2,0.5,1,0.1,0.7-0.5c-2.4-5.5-4-11.4-4.8-17.5
				C1091.2,252.5,1090.4,252.8,1090.5,253.4L1090.5,253.4z"/>
		</g>
	</g>
	<g>
		<g>
			<path class="st1" d="M1109.3,236.1c1.1,5.9,2.6,11.7,4.6,17.3c0.2,0.6,1,0.3,0.8-0.2c-2-5.6-3.6-11.4-4.6-17.3
				C1110,235.3,1109.2,235.5,1109.3,236.1L1109.3,236.1z"/>
		</g>
	</g>
	<g>
		<g>
			<path class="st1" d="M1115.1,250.3c2,5.8,4.7,11.2,8,16.2c0.3,0.5,1.1,0,0.7-0.5c-3.3-4.9-6-10.2-7.9-16
				C1115.7,249.5,1114.9,249.8,1115.1,250.3L1115.1,250.3z"/>
		</g>
	</g>
	<g>
		<g>
			<path class="st1" d="M986.9,190.2c0.9-5,2.8-9.5,5.9-13.3c0.4-0.5-0.3-1.1-0.6-0.7c-3.1,3.9-5.2,8.6-6.1,13.7
				C985.9,190.5,986.7,190.8,986.9,190.2L986.9,190.2z"/>
		</g>
	</g>
	<g>
		<g>
			<path class="st1" d="M983.5,190.3c0.3-2.6,1.3-4.8,2.8-6.8c0.4-0.5-0.3-1.1-0.6-0.7c-1.6,2.1-2.7,4.5-3,7.2
				C982.6,190.6,983.4,190.9,983.5,190.3L983.5,190.3z"/>
		</g>
	</g>
	<g>
		<g>
			<path class="st1" d="M1044.3,97.6c3,3.7,5.2,8.1,6.2,13c0.1,0.6,1,0.3,0.8-0.2c-1.1-5-3.3-9.5-6.4-13.4
				C1044.5,96.5,1043.9,97.2,1044.3,97.6L1044.3,97.6z"/>
		</g>
	</g>
	<g>
		<g>
			<path class="st1" d="M1051.6,101.6c1.7,4.1,2.7,8.4,3,12.9c0.1,0.6,0.9,0.6,0.9,0c-0.3-4.6-1.4-9.1-3.2-13.4
				C1052.1,100.6,1051.4,101.1,1051.6,101.6L1051.6,101.6z"/>
		</g>
	</g>
</g>
<g id="background_n2">
	<ellipse class="st3" cx="1131.6" cy="126.2" rx="15.1" ry="16.2"/>
	<ellipse class="st4" cx="1124.7" cy="177.4" rx="8.2" ry="9.2"/>
	<ellipse class="st5" cx="878" cy="146.1" rx="17.7" ry="19"/>
	<g>
		<g>
			<path class="st6" d="M878.2,193.6c0.5,0,0.5-0.9,0-0.9S877.6,193.6,878.2,193.6L878.2,193.6z"/>
		</g>
	</g>
	<g>
		<g>
			<path class="st7" d="M877.8,195.1c2.2,0,2.2-3.7,0-3.7S875.6,195.1,877.8,195.1L877.8,195.1z"/>
		</g>
	</g>
	<g>
		<g>
			<path class="st7" d="M1093.2,137.3c2.2,0,2.2-3.7,0-3.7C1091,133.5,1091,137.3,1093.2,137.3L1093.2,137.3z"/>
		</g>
	</g>
	<g>
		<g>
			<path class="st7" d="M1086.3,260.4c2.2,0,2.2-3.7,0-3.7C1084.1,256.6,1084.1,260.4,1086.3,260.4L1086.3,260.4z"/>
		</g>
	</g>
	<g>
		<g>
			<path class="st7" d="M841.8,263.1c-1.8,1.9-0.3,5,1.9,5.3c0.7,0.1,1.4-0.1,2.1-0.2c0.2-0.1,0.6-0.2,0.8-0.2c0,0-0.1-0.2,0,0.2
				c0.1,1.2-0.2,2.2,0.4,3.3c0.5,1,1.6,1.5,2.6,1.5c0.5,0,1.1-0.2,1.6-0.4c0.1,0,0.6-0.1,0.6-0.2c0.3-0.1,0.2-0.1-0.3-0.2
				c0,0.1,0.1,0.2,0.1,0.4c-0.1,1.1,1,2.3,1.9,2.7c1.2,0.6,2.3,0.2,3.1-1c1.3-2-1.7-3.8-3-1.9c1.2,0.2,1.6-0.1,1.3-0.8
				c0-0.1-0.1-0.2-0.1-0.4c-0.1-0.4-0.3-0.8-0.5-1.1c-0.4-0.7-1.1-1.2-1.8-1.3s-1.5,0-2.1,0.2c0,0-1,0.3-1,0.3
				c0.3,0.5,0.5,0.6,0.5,0.3c0-0.2,0-0.3,0-0.4c0.4-1.5-0.2-3.5-1.4-4.3c-0.7-0.4-1.4-0.6-2.2-0.5c-0.4,0-0.9,0.1-1.3,0.2
				c-0.2,0.1-0.5,0.1-0.7,0.2c-0.2,0.3-0.3,0.7-0.2,1.1C845.8,264.1,843.4,261.4,841.8,263.1L841.8,263.1z"/>
		</g>
	</g>
	<g>
		<g>
			<path class="st7" d="M850.5,263c0.2,1.1,0.4,2.1,0.5,3.2c0.1,0.8,0.9,1.4,1.7,1.4c1,0,2.3-0.4,3-1.2c0.1-0.1,0.3-0.2,0.5-0.2
				c-0.5-0.6-0.6-0.6-0.5,0c-0.1,0.4,0,1.1,0.1,1.5c0.6,2.9,3.4,2.1,5.2,3.6c1.7,1.5,4.1-1.1,2.4-2.6c-1.1-0.9-2.2-1.7-3.5-2
				c0.1,0-1.3-0.2-0.8,0.1c0.1,0.2,0.1,0.3,0.1,0.1c0-0.2,0-0.3,0-0.5c0-0.6-0.1-1.2-0.3-1.8c-0.5-1.2-1.6-1.9-2.8-1.8
				c-0.6,0-1.2,0.2-1.7,0.5c-0.5,0.3-1,0.9-1.6,0.9c0.5,0.5,1.1,0.9,1.7,1.4c-0.2-1.1-0.4-2.1-0.5-3.2
				C853.4,259.6,850.1,260.6,850.5,263L850.5,263z"/>
		</g>
	</g>
	<g>
		<g>
			<path class="st8" d="M948.5,134.9c0.5-0.7,1.1-0.9,1.7-0.3c0.3,0.5,0.5,1,0.5,1.6c0,0.6-0.2,1.1-0.2,1.7c0,0.5,0,1,0.4,1.3
				c0.8,0.7,1.9-0.2,2.4-0.9c0.2-0.3,0.4-1,0.7-1.2c1.3-0.9,1.2,0.4,1.4,1c0.2,0.5,0.4,0.8,0.8,1c1.4,0.7,2.5-0.7,3.2-1.9
				c0.3-0.5-0.5-1-0.7-0.5c-0.4,0.7-1.5,2.6-2.5,0.9c-0.2-0.3-0.1-0.8-0.3-1.1c-0.2-0.4-0.5-0.8-1-0.9c-0.6-0.1-1.1,0.3-1.4,0.8
				c-0.5,0.6-1.9,3.4-2,1c0-1.4,0.3-3.1-1.2-3.8c-1-0.5-2.2,0-2.6,1.2C947.5,135.2,948.3,135.5,948.5,134.9L948.5,134.9z"/>
		</g>
	</g>
	<g>
		<g>
			<path class="st8" d="M948.9,130.9c0.9-0.9,2.4-0.7,3.1,0.4c0.4,0.7,0.1,1.6,0.5,2.2c0.3,0.4,0.6,0.5,1,0.4
				c0.3-0.1,0.4-0.2,0.7-0.4c0.9-0.6,1.7-0.9,2.6,0.1c0.4,0.4,1-0.2,0.6-0.7c-0.7-0.8-1.7-1.2-2.6-0.9c-0.5,0.2-1.3,1-1.6,0.4
				c-0.2-0.4-0.1-1-0.3-1.5c-0.8-1.9-3.2-2.3-4.6-0.9C947.9,130.7,948.5,131.3,948.9,130.9L948.9,130.9z"/>
		</g>
	</g>
	<g>
		<g>
			<path class="st8" d="M1060.2,268.6c0.3,1.1,0.7,5.6,2.6,4.8c0.8-0.3,1.2-2.2,1.9-2.1c0.5,0.1,0.4,0.3,0.5,0.8
				c0.1,0.4,0.2,0.8,0.4,1.2c0.3,0.7,0.6,1.3,1,1.9c0.2,0.2,0.6,0.3,0.7,0c0.7-1.7,2.7-1.4,3.1,0.4c0.1,0.6,0.9,0.3,0.8-0.2
				c-0.5-2.6-3.6-3.1-4.6-0.6c0.3,0,0.5,0,0.7,0c-0.5-0.7-0.9-1.4-1.1-2.2c-0.2-0.6-0.2-1.6-0.5-2.1c-0.3-0.5-0.8-0.6-1.3-0.4
				c-0.7,0.3-0.9,1-1.3,1.6c-0.2,0.2-0.8,0.9-1.1,0.7c-0.2-0.1-0.3-1.1-0.4-1.4c-0.2-0.8-0.4-1.7-0.6-2.5
				C1060.9,267.8,1060,268,1060.2,268.6L1060.2,268.6z"/>
		</g>
	</g>
	<g>
		<g>
			<path class="st8" d="M1067.7,270.2c0.6-1.6,2.2-0.9,2.7,0.3c0.2,0.5,0.3,1.1,0.8,1.4c1.2,1,2.6-1.2,3.4,1c0.7,2,2.9,2.9,4.2,0.9
				c0.3-0.5-0.4-1-0.7-0.5c-0.4,0.6-1,0.8-1.7,0.6c-0.7-0.2-0.9-1-1.1-1.7c-0.2-0.5-0.3-1-0.7-1.3c-0.4-0.3-0.8-0.4-1.3-0.3
				c-0.3,0.1-0.5,0.3-0.8,0.4c-0.9,0.2-1.1-0.4-1.5-1.1c-0.9-2-3.4-2-4.2,0.1C1066.6,270.5,1067.5,270.8,1067.7,270.2L1067.7,270.2z
				"/>
		</g>
	</g>
	<g>
		<g>
			<path class="st8" d="M1152.3,163.1c-1.2-1.3-0.7-3.9,0.9-4.5c2-0.7,3.7,2.2,2.7,4c-0.3,0.5,0.5,1,0.7,0.5
				c1.3-2.5-0.8-6.1-3.5-5.5c-2.4,0.6-3.2,4.4-1.5,6.2C1152,164.1,1152.6,163.5,1152.3,163.1L1152.3,163.1z"/>
		</g>
	</g>
	<g>
		<g>
			<path class="st8" d="M929.2,349.6c-1.7-2.1-0.7-5.9,2.2-5.8c2.5,0.1,3.4,3.9,1.1,5.2c-0.5,0.3-0.1,1.1,0.4,0.8
				c2.9-1.7,1.9-6.5-1.3-6.9c-3.8-0.4-5.3,4.5-3,7.4C929,350.8,929.6,350.1,929.2,349.6L929.2,349.6z"/>
		</g>
	</g>
	<g>
		<g>
			<path class="st8" d="M925.5,306.4c-1-0.8-3-3.1-0.3-3.7c0.5-0.1,1,0.1,1.5-0.1c1-0.4,1.4-1.7,1.3-2.8c0-0.7-0.3-1.5-0.4-2.2
				c-0.2-0.8-0.5-1.8,0.6-1.8c0.2,0,0.4,0.1,0.6,0.1c1,0,1.7-0.7,2.1-1.7c0.2-0.6-0.6-0.8-0.8-0.2c-0.7,2.1-2.9-0.4-3.4,2
				c-0.3,1.8,1.9,5.6-1.1,5.8c-1.2,0.1-2.2,0-2.5,1.6c-0.3,1.6,0.8,2.8,1.8,3.7C925.3,307.4,925.9,306.7,925.5,306.4L925.5,306.4z"
				/>
		</g>
	</g>
	<g>
		<g>
			<path class="st8" d="M931.8,302c-0.4-0.8-1.1-2.1-0.8-3.1c0.3-1,1.9-0.9,2.7-1.6c1-0.9,1.4-2.3,1-3.7c-0.1-0.6-1-0.3-0.8,0.2
				c0.2,0.9,0.1,1.7-0.5,2.4c-0.5,0.7-1.1,0.6-1.8,0.9c-0.5,0.2-1,0.5-1.3,1.1c-0.6,1.4,0.1,3.1,0.8,4.3
				C931.3,303,932.1,302.5,931.8,302L931.8,302z"/>
		</g>
	</g>
	<g>
		<g>
			<path class="st9" d="M862.7,164.9c-0.8,0.6-2.3,1.8-3.3,1c-1.2-0.9,0.1-3.2,0.6-4.1c1-2.1,2.2-4,3.5-5.8c2.7-3.6,5.9-6.7,9.2-9.8
				c0.8-0.8-0.4-2.1-1.2-1.3c-4.5,4.2-8.9,8.6-12.1,14.1c-1.1,1.9-3,5.1-1.8,7.4c1.4,2.6,4.2,1.3,6,0
				C864.4,165.8,863.6,164.2,862.7,164.9L862.7,164.9z"/>
		</g>
	</g>
	<g>
		<g>
			<path class="st9" d="M878.9,140.3c2.6-2.3,5.1-4.5,7.7-6.8c0.9-0.7-0.4-2.1-1.2-1.3c-2.6,2.3-5.1,4.5-7.7,6.8
				C876.9,139.7,878.1,141,878.9,140.3L878.9,140.3z"/>
		</g>
	</g>
	<g>
		<g>
			<path class="st9" d="M893.6,129.8c1.3-0.7,6.1-3.8,6.9-1.3c0.7,2.1-1.1,5.2-2.3,6.8c-0.7,0.9,0.5,2.2,1.2,1.3
				c1.7-2.3,4-6.5,2.3-9.5c-1.9-3.4-6.9-0.2-9.1,1.1C891.7,128.7,892.6,130.3,893.6,129.8L893.6,129.8z"/>
		</g>
	</g>
	<g>
		<g>
			<path class="st9" d="M869.6,156c3.9-4.8,8.2-9.2,12.9-13.1c0.9-0.7,0-2.3-0.9-1.6c-4.8,3.9-9.3,8.4-13.3,13.4
				C867.7,155.5,868.9,156.9,869.6,156L869.6,156z"/>
		</g>
	</g>
</g>
<g id="background">
	<g>
		<path class="st9" d="M895.8,146.1c0,0,0,0.1,0,0.4s0,0.6,0,1.1c-0.1,1-0.2,2.4-0.6,4.1c-0.4,1.7-1.1,3.8-2.3,6
			c-1.2,2.1-3,4.3-5.4,6.1c-1.2,0.9-2.5,1.7-4,2.2c-0.4,0.2-0.7,0.3-1.1,0.4c-0.4,0.1-0.8,0.2-1.1,0.3c-0.2,0.1-0.4,0.1-0.6,0.2
			c-0.2,0-0.4,0.1-0.6,0.1c-0.4,0.1-0.8,0.1-1.2,0.2c-0.4,0.1-0.8,0.1-1.2,0.1c-0.4,0-0.8,0-1.3,0c-0.2,0-0.4,0-0.6,0
			c-0.2,0-0.4,0-0.6-0.1c-0.4,0-0.9-0.1-1.3-0.2c-0.9-0.2-1.7-0.4-2.5-0.7c-0.8-0.3-1.7-0.6-2.5-1c-3.2-1.6-6.1-4.3-8.2-7.6
			c-2.1-3.4-3.3-7.4-3.4-11.6c0-1,0-2.1,0.1-3.1c0.1-1,0.3-2.1,0.6-3.1c0.3-1,0.6-2,1-2.9c0.4-0.9,0.9-1.8,1.4-2.7
			c2.1-3.5,5.1-6.1,8.4-7.7c3.3-1.6,6.9-2.1,10.2-1.7c1.7,0.2,3.2,0.6,4.7,1.2c1.5,0.6,2.8,1.4,4,2.3c2.4,1.8,4.1,4,5.4,6.1
			c1.3,2.1,1.9,4.2,2.3,6c0.4,1.7,0.6,3.1,0.6,4.1c0,0.5,0,0.8,0,1.1C895.8,146,895.8,146.1,895.8,146.1L895.8,146.1z M895.6,146.1
			c0,0,0-0.1,0-0.4s0-0.6-0.1-1.1c-0.1-0.9-0.2-2.3-0.7-4c-0.2-0.8-0.5-1.8-1-2.7s-0.9-2-1.6-3c-1.3-2-3.1-4-5.4-5.5
			c-1.2-0.8-2.4-1.5-3.8-2c-1.4-0.5-2.9-0.9-4.4-1.1c-0.4-0.1-0.8-0.1-1.2-0.1c-0.2,0-0.4,0-0.6,0h-0.3h-0.3c-0.2,0-0.4,0-0.6,0
			c-0.2,0-0.4,0-0.6,0c-0.4,0-0.8,0.1-1.2,0.2c-0.8,0.1-1.6,0.3-2.4,0.6c-0.4,0.1-0.8,0.3-1.2,0.4c-0.2,0.1-0.4,0.2-0.6,0.2
			c-0.2,0.1-0.4,0.2-0.6,0.2c-3.1,1.4-6,3.9-8,7.1c-0.5,0.8-1,1.7-1.4,2.5c-0.4,0.9-0.7,1.8-1,2.7c-0.3,0.9-0.5,1.9-0.7,2.9
			s-0.2,2-0.3,3c0,1,0,2,0.1,3c0.1,1,0.3,2,0.6,3c0.3,1,0.6,1.9,1,2.8c0.4,0.9,0.9,1.8,1.4,2.6c1,1.7,2.3,3.1,3.6,4.3
			c1.4,1.2,2.9,2.2,4.5,2.9c0.8,0.3,1.6,0.7,2.4,0.9c0.8,0.2,1.7,0.4,2.4,0.5c0.4,0,0.8,0.1,1.2,0.1c0.2,0,0.4,0,0.6,0s0.4,0,0.6,0
			c0.4,0,0.8,0,1.2,0c0.4,0,0.8-0.1,1.2-0.1c1.5-0.2,3-0.6,4.4-1.2c1.4-0.6,2.6-1.2,3.8-2.1c2.3-1.6,4.1-3.6,5.4-5.6
			c0.7-1,1.2-2,1.6-3c0.4-1,0.7-1.9,1-2.7c0.5-1.7,0.6-3.1,0.7-4c0.1-0.5,0-0.8,0.1-1.1C895.6,146.2,895.6,146.1,895.6,146.1
			L895.6,146.1z"/>
	</g>
	<g>
		<path class="st9" d="M1131.8,178c0,0,0,0.2,0,0.7c0,0.1,0,0.2,0,0.4c0,0.1,0,0.3-0.1,0.5c0,0.2,0,0.3-0.1,0.5s-0.1,0.4-0.1,0.6
			c-0.2,0.8-0.5,1.8-1.1,2.9s-1.4,2.1-2.5,3c-1.1,0.9-2.6,1.5-4.2,1.7c-0.2,0-0.4,0-0.6,0h-0.3h-0.1h0h0h0h-0.1
			c-0.4,0-0.8-0.1-1.2-0.2c-0.9-0.2-1.6-0.5-2.4-0.9c-0.8-0.4-1.5-1-2.2-1.6c-0.7-0.6-1.3-1.3-1.8-2.1c-0.2-0.4-0.5-0.8-0.7-1.3
			c-0.1-0.2-0.2-0.4-0.3-0.7c-0.1-0.2-0.2-0.5-0.3-0.7c-0.3-0.9-0.5-1.9-0.5-2.9c0-0.5,0-1,0.1-1.5c0-0.5,0.1-1,0.3-1.5
			c0.3-1,0.6-1.9,1.1-2.7c0.5-0.8,1.1-1.6,1.8-2.2c0.7-0.6,1.5-1.2,2.3-1.6c0.8-0.4,1.7-0.7,2.5-0.8c0.4-0.1,0.9-0.1,1.3-0.1h0.1h0
			h0h0.1h0.1l0.3,0c0.2,0,0.4,0,0.6,0.1c0.2,0,0.4,0.1,0.6,0.1c0.1,0,0.2,0,0.3,0.1l0.3,0.1c0.2,0.1,0.4,0.1,0.6,0.2
			c0.2,0.1,0.4,0.2,0.5,0.2c0.7,0.3,1.3,0.7,1.9,1.2c1.1,0.9,1.9,2,2.5,3.1c0.6,1.1,0.9,2.1,1.1,2.9c0,0.2,0.1,0.4,0.1,0.6
			c0,0.2,0.1,0.4,0.1,0.5c0,0.2,0,0.3,0.1,0.5c0,0.1,0,0.3,0,0.4C1131.8,177.8,1131.8,178,1131.8,178L1131.8,178z M1131.7,178
			c0,0,0-0.2,0-0.7c0-0.1,0-0.2,0-0.4c0-0.1-0.1-0.3-0.1-0.4c0-0.2-0.1-0.3-0.1-0.5c-0.1-0.2-0.1-0.4-0.1-0.6c0-0.1-0.1-0.2-0.1-0.3
			c0-0.1-0.1-0.2-0.1-0.3c-0.1-0.2-0.2-0.4-0.3-0.7c-0.1-0.2-0.2-0.4-0.3-0.7c-0.1-0.2-0.3-0.4-0.5-0.7c-0.6-0.9-1.5-1.8-2.6-2.5
			c-0.5-0.3-1.1-0.7-1.8-0.9c-0.2-0.1-0.3-0.1-0.5-0.2c-0.2,0-0.3-0.1-0.5-0.1l-0.3-0.1c-0.1,0-0.2,0-0.3,0c-0.2,0-0.3-0.1-0.5-0.1
			c-0.2,0-0.4,0-0.6,0h-0.3h-0.1c0,0,0,0,0,0h0h0h-0.1c-0.4,0-0.7,0-1.1,0.1c-0.7,0.1-1.5,0.3-2.2,0.7c-0.7,0.3-1.4,0.8-2,1.3
			c-0.6,0.6-1.2,1.2-1.7,1.9c-0.5,0.7-0.9,1.6-1.1,2.4c-0.1,0.4-0.3,0.9-0.3,1.3c-0.1,0.4-0.1,1-0.2,1.4c0,0.9,0.1,1.9,0.3,2.8
			c0.3,0.9,0.6,1.8,1.1,2.6c0.3,0.4,0.5,0.7,0.8,1.1c0.1,0.2,0.3,0.3,0.5,0.5l0.5,0.4c0.7,0.6,1.4,1,2.1,1.3
			c0.7,0.3,1.5,0.5,2.3,0.6c0.3,0.1,0.8,0,1.2,0.1h0.1h0h0c0,0,0,0,0,0h0.1l0.3,0c0.2,0,0.4,0,0.5-0.1c1.4-0.2,2.7-0.7,3.8-1.4
			c1.1-0.7,2-1.6,2.6-2.5c0.1-0.2,0.3-0.5,0.5-0.7c0.1-0.2,0.2-0.5,0.3-0.7c0.1-0.2,0.2-0.4,0.3-0.7c0-0.1,0.1-0.2,0.1-0.3
			c0-0.1,0.1-0.2,0.1-0.3c0.1-0.2,0.1-0.4,0.1-0.6c0.1-0.2,0.1-0.3,0.1-0.5c0-0.2,0.1-0.3,0.1-0.4c0-0.1,0-0.2,0-0.4
			C1131.7,178.3,1131.7,178,1131.7,178L1131.7,178z"/>
	</g>
	<g>
		<path class="st9" d="M1149,126.2c0,0,0,0.4-0.1,1.2c0,0.2,0,0.4,0,0.6c0,0.2-0.1,0.5-0.1,0.7c-0.1,0.3-0.1,0.6-0.1,0.9
			s-0.1,0.7-0.2,1c-0.3,1.4-0.9,3.1-1.9,4.8c-0.2,0.4-0.5,0.8-0.8,1.3c-0.1,0.2-0.3,0.4-0.5,0.6c-0.2,0.2-0.3,0.4-0.5,0.7
			c-0.3,0.4-0.7,0.8-1.1,1.2c-0.4,0.4-0.9,0.8-1.3,1.1c-1.9,1.4-4.3,2.5-6.9,2.8c-0.3,0.1-0.7,0-1,0.1c-0.2,0-0.3,0-0.5,0h-0.3h-0.1
			h0h-0.1h-0.1c-0.7-0.1-1.3-0.1-2-0.2c-1.4-0.2-2.7-0.7-4-1.4c-0.3-0.2-0.6-0.3-0.9-0.5c-0.2-0.1-0.3-0.2-0.5-0.3l-0.5-0.3
			l-0.5-0.3c-0.1-0.1-0.3-0.2-0.4-0.3c-0.3-0.2-0.6-0.5-0.9-0.7c-1.1-1.1-2.1-2.2-2.9-3.6c-0.2-0.3-0.4-0.7-0.6-1l-0.1-0.2l-0.1-0.3
			l-0.3-0.6l-0.3-0.6c-0.1-0.2-0.1-0.4-0.2-0.6c-0.1-0.4-0.3-0.7-0.4-1.2l-0.3-1.2l-0.1-0.3l-0.1-0.3l-0.1-0.6
			c-0.1-0.4-0.1-0.8-0.1-1.2l-0.1-1.2l0-1.2c0-0.2,0-0.4,0-0.6l0.1-0.6l0.1-0.6l0-0.3l0.1-0.3l0.3-1.2c0.4-1.6,1.1-3.1,1.9-4.5
			c0.9-1.4,1.9-2.6,3-3.6c0.3-0.2,0.6-0.5,0.9-0.7c0.1-0.1,0.3-0.2,0.5-0.3l0.5-0.3l0.5-0.3c0.1-0.1,0.3-0.2,0.5-0.3
			c0.3-0.2,0.7-0.3,1-0.5c1.3-0.6,2.7-1.1,4.1-1.3c0.7-0.2,1.4-0.2,2.1-0.2h0.1h0.1h0c0,0,0.1,0,0.1,0h0.3c0.2,0,0.3,0,0.5,0
			c0.2,0,0.3,0,0.5,0c0.2,0,0.3,0,0.5,0.1c0.3,0.1,0.7,0.1,1,0.2c0.2,0,0.3,0.1,0.5,0.1c0.2,0,0.3,0.1,0.5,0.1
			c0.3,0.1,0.6,0.2,0.9,0.3c0.3,0.1,0.6,0.2,0.9,0.3c1.2,0.5,2.2,1.1,3.2,1.8c0.5,0.4,0.9,0.7,1.3,1.2c0.4,0.4,0.8,0.8,1.1,1.2
			c0.2,0.2,0.3,0.4,0.5,0.7c0.2,0.2,0.3,0.4,0.5,0.6c0.3,0.4,0.6,0.9,0.8,1.3c1,1.7,1.5,3.4,1.9,4.8c0.1,0.3,0.1,0.7,0.2,1
			c0.1,0.3,0.1,0.6,0.1,0.9c0,0.3,0.1,0.5,0.1,0.7c0,0.2,0,0.4,0,0.6C1148.9,125.8,1149,126.2,1149,126.2L1149,126.2z M1148.8,126.2
			c0,0,0-0.4-0.1-1.2c0-0.2,0-0.4-0.1-0.6c0-0.2-0.1-0.5-0.1-0.7c-0.1-0.3-0.1-0.6-0.1-0.9c-0.1-0.3-0.2-0.6-0.3-1
			c-0.1-0.2-0.1-0.3-0.1-0.5c-0.1-0.2-0.1-0.3-0.2-0.5c-0.1-0.2-0.1-0.4-0.2-0.6c-0.1-0.2-0.1-0.4-0.2-0.6c-0.2-0.4-0.4-0.8-0.6-1.2
			c-0.2-0.4-0.5-0.8-0.7-1.2c-1.1-1.6-2.5-3.1-4.3-4.4c-0.9-0.6-1.9-1.2-3-1.6c-0.3-0.1-0.5-0.2-0.8-0.3c-0.3-0.1-0.6-0.2-0.9-0.2
			c-0.1,0-0.3-0.1-0.4-0.1c-0.1,0-0.3-0.1-0.4-0.1c-0.3,0-0.6-0.1-0.9-0.1c-0.1,0-0.3,0-0.5,0c-0.2,0-0.3,0-0.5,0
			c-0.2,0-0.3,0-0.5,0h-0.3h-0.2c-0.6,0.1-1.3,0-1.9,0.2c-1.3,0.2-2.5,0.6-3.8,1.2c-0.3,0.2-0.6,0.3-0.9,0.5
			c-0.2,0.1-0.3,0.2-0.5,0.2l-0.4,0.3l-0.5,0.3c-0.1,0.1-0.3,0.2-0.4,0.3c-0.3,0.2-0.6,0.4-0.8,0.7c-1.1,1-2,2.1-2.8,3.3
			c-0.8,1.3-1.4,2.7-1.9,4.2c-0.5,1.5-0.7,3-0.8,4.7c0,1.6,0.2,3.2,0.5,4.7c0.4,1.5,1.1,3,1.9,4.3c0.2,0.3,0.4,0.6,0.7,0.9
			c0.2,0.3,0.5,0.6,0.7,0.9l0.4,0.4c0.1,0.1,0.1,0.2,0.2,0.2l0.2,0.2c0.3,0.2,0.5,0.5,0.8,0.8c0.3,0.2,0.6,0.4,0.9,0.7
			c0.1,0.1,0.3,0.2,0.4,0.3l0.5,0.3l0.5,0.3c0.1,0.1,0.3,0.2,0.5,0.2c0.3,0.2,0.6,0.3,0.9,0.5c0.1,0.1,0.3,0.2,0.5,0.2l0.5,0.2
			c0.3,0.1,0.6,0.2,1,0.3c0.3,0.1,0.7,0.2,1,0.2c0.3,0.1,0.7,0.1,1,0.2c0.6,0.1,1.3,0.1,2,0.1h0.1h0.1h0c0,0,0,0,0,0l0.2,0
			c0.2,0,0.3,0,0.5,0c0.3,0,0.6,0,0.9-0.1c2.4-0.3,4.7-1.3,6.5-2.5s3.3-2.8,4.3-4.4c0.3-0.4,0.5-0.8,0.7-1.2
			c0.2-0.4,0.4-0.8,0.6-1.2c0.1-0.2,0.2-0.4,0.2-0.6c0.1-0.2,0.1-0.4,0.2-0.6c0.1-0.2,0.1-0.4,0.2-0.5c0.1-0.2,0.1-0.3,0.1-0.5
			c0.1-0.3,0.2-0.7,0.3-1c0.1-0.3,0.1-0.6,0.1-0.9c0-0.3,0.1-0.5,0.1-0.7c0-0.2,0-0.4,0.1-0.6
			C1148.8,126.6,1148.8,126.2,1148.8,126.2L1148.8,126.2z"/>
	</g>
	<g>
		<g>
			<path class="st9" d="M934.7,183.8c-0.3-0.2-0.2-0.7-0.1-0.9c0.2-0.4,0.8-0.6,1.2-0.6c0.8,0,1.6,0.4,2.3,0.6
				c1,0.3,2.1,0.5,3.2,0.2c1.9-0.7,2.6-2.9,3.3-4.7c0.4-1.1,1.3-3,2.6-3c1.1,0.1,1.8,1.5,3,1.5c2.1,0.1,3.4-2.3,4.1-4
				c0.4-1.1-1-2.1-1.5-0.9c-0.6,1.5-1.8,4-3.4,2.6c-0.9-0.7-1.7-1.3-2.9-1c-2.5,0.7-3.1,3.7-4.1,6c-0.9,1.9-2.1,2.1-3.9,1.5
				c-1.3-0.4-2.6-0.9-3.9-0.3c-1.8,0.7-2.4,3.5-0.7,4.7C934.8,186,935.6,184.5,934.7,183.8L934.7,183.8z"/>
		</g>
	</g>
	<g>
		<g>
			<path class="st9" d="M947.7,183.7c-0.2-1.2,0.7-2.4,1.8-2.5c0.9-0.2,1.7,0.7,2.5,0.9c1.6,0.3,2.9-1.2,3.5-2.6
				c0.4-0.9,0.6-2,1.3-2.7c0.6-0.6,1.5-0.7,2.3-0.9c1.5-0.3,2.9-0.5,4-1.8c0.7-0.9-0.5-2.2-1.2-1.3c-1.2,1.5-3.4,1.1-5.1,1.8
				c-2.1,1-2.1,3.1-3.3,4.8c-1.1,1.5-2.1,0.1-3.4-0.1c-0.7-0.1-1.5,0.1-2.2,0.5c-1.5,0.9-2.2,2.6-1.9,4.4
				C946.3,185.4,947.9,184.9,947.7,183.7L947.7,183.7z"/>
		</g>
	</g>
	<g>
		<g>
			<path class="st9" d="M951.4,275.5c-1.1-1.7,0-4.2,2-3.6c2,0.6,1.8,3.6-0.1,4.2c-1.1,0.3-0.6,2.1,0.5,1.8c3.4-1.1,3.8-6.4,0.3-7.7
				c-3.4-1.3-6.3,3.1-4.2,6.2C950.6,277.4,952.1,276.5,951.4,275.5L951.4,275.5z"/>
		</g>
	</g>
	<g>
		<g>
			<path class="st9" d="M1117.6,234.3c-0.1-0.6,0.2-0.7,1.1-0.4c0.4,0.2,0.8,0.3,1.1,0.5c0.4,0.2,0.8,0.3,1.2,0.4
				c0.8,0.2,1.6,0,2.3-0.6c1.4-1.2,1.2-3.2,2.1-4.7c0.9-1.6,1.6-0.5,2.3,0.5c0.4,0.5,0.8,1,1.4,1.1c0.7,0.2,1.3-0.1,1.8-0.6
				c0.3-0.3,0.6-0.7,0.9-1.1c0-0.1,1.3-2.1,1.3-1.5c0.1,1.2,1.8,1.2,1.7,0c0-1.1-0.8-1.9-1.8-1.9c-1.2,0-1.9,1-2.4,2
				c-0.5,0.9-1.1,1.7-1.8,0.6c-0.3-0.4-0.5-0.9-0.9-1.2c-0.9-0.8-2-0.7-2.9,0c-1,0.8-1.4,2.1-1.7,3.3c-0.2,0.7-0.3,1.7-0.9,2.2
				c-0.8,0.8-1.9-0.1-2.7-0.4c-1.1-0.5-2.5-0.6-3.3,0.6c-0.6,0.9-0.6,2,0.1,2.8C1117.2,236.5,1118.4,235.1,1117.6,234.3
				L1117.6,234.3z"/>
		</g>
	</g>
	<g>
		<g>
			<path class="st9" d="M1131.4,236.2c-0.3-1.3,1.4-1.6,2.1-1.4c0.7,0.1,1.3,0.4,1.9,0.6c1,0.3,2.2,0.5,3.2,0.1
				c0.8-0.3,1.4-0.9,1.8-1.7c0.5-0.9,0.7-2.2,1.6-2.9c0.9-0.7,0.1-2.3-0.9-1.6c-1.1,0.7-1.4,1.8-1.9,3c-1,2.2-2.7,1.4-4.5,0.9
				c-1.3-0.4-2.7-0.6-3.9,0.3c-1,0.7-1.4,1.9-1.1,3.2C1130,237.8,1131.7,237.3,1131.4,236.2L1131.4,236.2z"/>
		</g>
	</g>
</g>
<g id="leg_r">
	<path class="st10" d="M1001.1,223.1c-3.8,3.6-8.8,9-13.6,16.6c-3.4,5.5-9.2,15.1-11.3,28.9c-2.9,19.9,3.9,35.7,6.2,40.5
		c8.3,17.4,21.2,25.5,26,28.2c-1.1,1.9-2.5,4.8-3.9,8.5c-0.3,0.9-6.5,18.2-2.3,21.4c3.2,2.4,10.8-4.2,11.9-5.3
		c7-6.1,10.2-14.2,13.8-23.6c1.5-4,2.6-7.3,3.2-9.6c-4-3-9.8-8.2-14.9-16.3c-3.2-5-14.1-22.3-9.4-38.2c2.1-7.3,5.1-6.2,13.3-20.9
		c6-10.8,9.4-16.9,7.6-21.9C1025.3,224.6,1014.2,221.7,1001.1,223.1z"/>
	<g>
		<g>
			<path class="st9" d="M1001.7,332.4c6.5-3.3,12.1-8.6,15.9-15.3c0.2-0.4-0.3-0.7-0.5-0.3c-3.8,6.6-9.2,11.8-15.6,15
				C1001,332,1001.4,332.6,1001.7,332.4L1001.7,332.4z"/>
		</g>
	</g>
	<g>
		<g>
			<path class="st9" d="M999.8,295.2c3.8,8.8,8.8,16.9,14.9,24c0.3,0.3,0.7-0.2,0.5-0.5c-6.1-7-11.1-15.1-14.8-23.9
				C1000.2,294.5,999.7,294.8,999.8,295.2L999.8,295.2z"/>
		</g>
	</g>
	<g>
		<g>
			<path class="st9" d="M978.1,295.8c1.1-1.8,3.2-2.5,5.2-1.9c1.9,0.7,3.4,2.5,4.2,4.5c0.9,2.2,1.1,4.8,0.5,7.2
				c-0.6,2.4-2.6,4.8-5,3.7c-0.4-0.2-0.5,0.5-0.2,0.7c2.2,1,4.4-0.5,5.4-2.7c1.3-2.8,1.1-6.3,0-9.1c-0.9-2.3-2.8-4.5-5.1-5
				c-2.1-0.4-4.2,0.4-5.3,2.3C977.3,295.8,977.9,296.2,978.1,295.8L978.1,295.8z"/>
		</g>
	</g>
	<g>
		<g>
			<path class="st9" d="M979.2,257.5c2.9-0.4,5.8-0.3,8.6,0.3c2.7,0.6,5.6,1.5,7.3,3.9c0.3,0.3,0.7-0.2,0.5-0.5
				c-1.7-2.4-4.5-3.3-7.1-4c-3-0.7-6.2-0.9-9.3-0.4C978.8,256.9,978.8,257.6,979.2,257.5L979.2,257.5z"/>
		</g>
	</g>
	<g>
		<g>
			<path class="st9" d="M978.2,260.5c3-0.2,6,0.1,8.9,1.1c0.4,0.1,0.6-0.5,0.2-0.7c-2.9-1-6-1.4-9-1.2
				C977.8,259.8,977.8,260.5,978.2,260.5L978.2,260.5z"/>
		</g>
	</g>
	<g>
		<g>
			<path class="st9" d="M1005.1,235.5c-2.8,4.3-5.9,8.5-9.2,12.5c-0.3,0.3,0.2,0.8,0.5,0.5c3.3-4,6.4-8.2,9.3-12.6
				C1005.9,235.5,1005.4,235.1,1005.1,235.5L1005.1,235.5z"/>
		</g>
	</g>
	<g>
		<g>
			<path class="st9" d="M997.9,269.4c-2.2,4.9-3.4,10.2-3.5,15.6c0,0.4,0.6,0.4,0.7,0c0.1-5.3,1.3-10.5,3.4-15.3
				C998.6,269.3,998.1,268.9,997.9,269.4L997.9,269.4z"/>
		</g>
	</g>
	<g>
		<g>
			<path class="st9" d="M1002.4,259.5c2.8,2.3,5.1,5.2,6.9,8.5c0.2,0.4,0.8,0,0.5-0.3c-1.8-3.4-4.2-6.4-7.2-8.8
				C1002.4,258.7,1002.1,259.3,1002.4,259.5L1002.4,259.5z"/>
		</g>
	</g>
	<g>
		<g>
			<path class="st9" d="M1028.1,326.6c-3.4,3.9-2.2,9.4-3.4,14.1c-0.7,3-2.1,5.7-3.3,8.5c-1.1,2.7-2.3,5.5-3.4,8.2
				c-0.2,0.4,0.4,0.8,0.5,0.3c2.1-5,4.5-10,6.3-15.2c1.7-5,0.2-11.4,3.7-15.5C1028.8,326.8,1028.4,326.3,1028.1,326.6L1028.1,326.6z
				"/>
		</g>
	</g>
	<g>
		<g>
			<path class="st9" d="M1008.3,337.6c2.1-1.4,4.2-2.4,6.6-3c0.4-0.1,0.2-0.8-0.2-0.7c-2.4,0.6-4.7,1.6-6.8,3
				C1007.7,337.2,1008,337.9,1008.3,337.6L1008.3,337.6z"/>
		</g>
	</g>
	<path class="st11" d="M1015.8,256.4c-2.9,1.4-13.3,6.8-18.1,19.3c-4,10.6-1.8,20.1-0.1,27.1c3.8,16,12.7,26.3,17.8,31.3
		c-0.1,1.7-0.5,4.3-1.7,7.2c-2.3,5.5-5.6,7-8.1,11.1c-1.7,2.7-3.4,7.2-3,14.6c0.8,0.1,2,0.1,3.4-0.2c2.1-0.4,5.4-1.7,10.4-7.9
		c3.3-4.1,5.4-8.1,7.1-11.5c2.2-4.5,4.9-10.8,7.1-19c-8.3-7-13.6-14.2-16.8-19.3c-4.3-6.9-5.9-11.6-6.4-13.2
		c-1.1-3.7-3.1-10.2-1.9-18.2c0.5-2.8,0.7-4.4,1.7-6.4c2.6-5.1,6.7-6.1,8.1-11.2C1015.8,258.5,1015.8,257.2,1015.8,256.4z"/>
	<path class="st12" d="M1007.6,268.7c-1.9,4.7-4.2,12.3-3.9,21.8c0.5,19.8,11.7,32.9,14.8,36.3c1,3.3,2,8.5,1.3,14.6
		c-1.7,14.5-11.7,22.8-13.9,24.6c2-0.7,5.1-2,8.4-4.7c6.3-5.1,9.1-11.9,12.5-20.3c1.2-3,2.8-7.4,4.3-13.1
		c-8.5-7.2-13.7-14.6-16.8-19.7c-3.2-5.4-6.2-10.5-7.7-18.1C1004.8,280.9,1006.4,273,1007.6,268.7z"/>
</g>
<g id="leg_l">
	<path class="st10" d="M1057,237.9c2.4,5.6,1.4,12.1,0.7,17.1c-1,7-3.3,12.4-5,15.7c-0.7,4-1.5,10.7,0.4,18.4
		c2.2,9.3,7,15.2,11.5,20.6c3.8,4.6,10.3,11.5,20.4,17.2c-0.6,2.3-1.5,5.8-2.7,10c-5.2,17.7-8.5,21.2-9.7,22.3
		c-3.3,3.1-9.3,6.8-11.9,4.7c-2.1-1.7-2.6-7.6,4.7-26.8c-3.1-1.2-7.4-3.1-12.2-6c-5-2.9-18.8-11-27.5-24.2
		c-13.2-20-9.9-44.7-8.7-51.5c-2-1-5.7-3.3-7-7.4c-2.3-7.5,4.6-16.2,10.2-20C1032.2,219.9,1051.9,225.7,1057,237.9z"/>
	<g>
		<g>
			<path class="st13" d="M1010.5,238.1c-1.7,2.8-1.9,6.4-0.7,9.6c0.6,1.5,1.5,2.9,2.6,4c0.5,0.6,1.1,1.1,1.7,1.6
				c0.3,0.2,2.4,1.4,2,1.8c0.2,0,0.3-0.1,0.5-0.1c-3.7-3-6.5-7.4-6.4-12.5c0-0.5-0.8-0.7-0.8-0.1c-0.7,4.4,0.9,8.8,4.3,11.5
				c0.1-0.3,0.2-0.6,0.3-0.8c-4-1.3-4.9-6.2-3.8-10.1c-0.3,0-0.6-0.1-0.8-0.1c0.3,4.1,0.7,8.5,3.7,11.4c0.4,0.4,1-0.2,0.6-0.7
				c-3.3-3.4-5.3-8.8-2.5-13.3c-0.3,0-0.5-0.1-0.8-0.1c0.1,0.7,0.1,1.4,0,2.1c0.3,0,0.5,0,0.8,0c-0.5-2-0.3-3.9,0.7-5.7
				c-0.3,0-0.5-0.1-0.8-0.1c0.5,3.3-0.6,6.7-0.2,10c0.1,1.1,0.4,2.3,1,3.3c0.3,0.5,0.6,0.9,1,1.3c0.4,0.4,1.4,0.8,1.5,1.5
				c0.2-0.2,0.3-0.4,0.5-0.6c-0.6-0.1-1.2-0.2-1.8-0.3c-0.3,0-0.7,0.2-0.5,0.6c0.5,1.3,1.3,2.3,2.4,2.9c0-0.3,0-0.5,0-0.8
				c-0.3,0-0.6,0-0.9,0c-0.1,0.3-0.2,0.5-0.3,0.8c0.3,0.2,0.7,0.4,1,0.6c0.1-0.3,0.2-0.5,0.3-0.8c-0.7,0-1.4-1.6-1.6-2.1
				c-0.4-0.7-0.7-1.6-0.9-2.4c-0.4-1.7-0.5-3.4-0.3-5.1c-0.3,0-0.5,0.1-0.8,0.1c1,2,1.3,4.1,0.9,6.3c0.2-0.1,0.4-0.2,0.6-0.3
				c-0.1-0.3-0.3-0.6-0.5-0.8c-0.2,0.1-0.4,0.3-0.7,0.4c0.5,0.3,0.9,0.6,1.4,0.9c0.5,0.3,0.9-0.5,0.4-0.8c-0.5-0.3-0.9-0.6-1.4-0.9
				c-0.3-0.2-0.7,0-0.7,0.4c0.1,0.7,0.3,1.2,0.9,1.7c0.2,0.2,0.6,0,0.6-0.3c0.5-2.5,0.1-4.9-1-7c-0.2-0.3-0.7-0.3-0.8,0.1
				c-0.3,2.3-0.1,4.6,0.6,6.8c0.5,1.3,1.4,4,3,4c0.4,0,0.5-0.5,0.3-0.8c-0.5-0.6-0.9-0.8-1.6-0.8c-0.4,0-0.6,0.5-0.3,0.8
				c0.6,0.6,1.3,0.7,1.9,0.2c0.2-0.2,0.3-0.7,0-0.8c-1-0.5-1.7-1.2-2.1-2.3c-0.2,0.2-0.3,0.4-0.5,0.6c0.6,0.1,1.2,0.2,1.8,0.3
				c0.3,0.1,0.6-0.2,0.5-0.6c-0.1-1.1-1.2-1.3-1.9-2c-1.1-1.1-1.5-2.8-1.7-4.3c-0.3-3.3,0.7-6.4,0.2-9.7c-0.1-0.4-0.6-0.4-0.8-0.1
				c-1.1,2-1.4,4.2-0.8,6.4c0.1,0.4,0.8,0.5,0.8,0c0.1-0.9,0.1-1.7,0-2.6c-0.1-0.4-0.6-0.4-0.8-0.1c-3,4.9-0.9,10.7,2.6,14.5
				c0.2-0.2,0.4-0.4,0.6-0.7c-2.8-2.7-3.2-6.8-3.5-10.7c0-0.5-0.7-0.7-0.8-0.1c-1.2,4.5,0,9.8,4.4,11.2c0.5,0.2,0.7-0.6,0.3-0.8
				c-3-2.4-4.5-6.4-3.9-10.4c-0.3,0-0.6-0.1-0.8-0.1c-0.1,5.5,3,10.2,6.9,13.3c0.1,0.1,0.4,0.1,0.5-0.1c0.6-0.7,0.4-1.5-0.3-2
				c-1.4-1.2-2.8-1.9-4-3.3c-2.7-3.2-3.5-8-1.2-11.8C1011.6,238,1010.8,237.6,1010.5,238.1L1010.5,238.1z"/>
		</g>
	</g>
	<g>
		<g>
			<path class="st9" d="M1049.3,244.9c0.6,3.6-1.1,7.1-2.4,10.3c-1.1,2.7-2.2,5.4-3.2,8.2c-1.8,5.3-2.9,10.8-2.8,16.5
				c0.3,10.3,4.2,20.5,11,27.8c4.5,4.7,9.9,8.2,15.2,11.6c0.4,0.2,0.7-0.4,0.3-0.6c-4.8-3-9.5-6-13.6-10c-3.8-3.7-6.9-8.1-9-13.2
				c-2.1-5-3.2-10.4-3.3-15.8c-0.1-5.7,1.1-11.2,2.9-16.6c1.2-3.3,2.6-6.6,3.8-9.8c1.1-2.7,2.1-5.5,1.6-8.5
				C1049.8,244.3,1049.2,244.5,1049.3,244.9L1049.3,244.9z"/>
		</g>
	</g>
	<g>
		<g>
			<path class="st9" d="M1061.1,334.9c0.8-3.6,2.3-6.9,3.9-10.1c1.5-2.9,3.3-5.7,6.1-7.3c0.4-0.2,0.1-0.8-0.3-0.6
				c-2.8,1.5-4.6,4.2-6.1,7.1c-1.8,3.3-3.3,6.9-4.2,10.7C1060.4,335.1,1061,335.3,1061.1,334.9L1061.1,334.9z"/>
		</g>
	</g>
	<g>
		<g>
			<path class="st9" d="M1080,324.4c-1.3,1.9-2,4.3-1.8,6.7c0.1,1.1,0.4,2.1,0.8,3.1c0.5,1.2,0.4,2,0.1,3.2
				c-0.2,0.9-0.5,1.7-0.7,2.6c-1.9,6.7-4.1,13.3-6.6,19.8c-0.2,0.4,0.4,0.8,0.5,0.3c2.4-6.1,4.5-12.4,6.3-18.8
				c0.5-1.6,1-3.2,1.3-4.9c0.2-1.1-0.1-1.8-0.5-2.8c-1.2-3-0.7-6.3,1.1-8.8C1080.8,324.4,1080.3,324.1,1080,324.4L1080,324.4z"/>
		</g>
	</g>
	<g>
		<g>
			<path class="st9" d="M1065.6,337.5c1.3-1.4,2.9-2.4,4.8-2.7c0.4-0.1,0.2-0.7-0.2-0.7c-1.9,0.4-3.6,1.4-5,2.9
				C1064.8,337.3,1065.3,337.8,1065.6,337.5L1065.6,337.5z"/>
		</g>
	</g>
	<g>
		<g>
			<path class="st9" d="M1047.1,301.1c1.3,0.6,3.1-1.2,4-2c1.5-1.2,2.8-2.7,3.8-4.5c0.2-0.4-0.3-0.7-0.5-0.3
				c-0.8,1.5-1.9,2.7-3.1,3.8c-0.6,0.5-3,2.8-3.8,2.4C1047.1,300.3,1046.7,300.9,1047.1,301.1L1047.1,301.1z"/>
		</g>
	</g>
	<g>
		<g>
			<path class="st9" d="M1020,295c-0.6-2.8,2.6-3.7,4.4-2.7c1.5,0.9,2.5,2.5,3,4.3c0.4,1.6,0.6,3.2,0.6,4.9c0.1,2.2-1.5,4-3.5,3.1
				c-0.4-0.2-0.5,0.5-0.2,0.7c1.6,0.7,3.6-0.2,4.2-2c0.4-1.3,0.1-3.1-0.1-4.5c-0.2-1.4-0.4-2.7-1-4c-0.9-2.1-2.9-3.9-5.1-3.7
				c-1.9,0.1-3.5,1.9-3.1,4.1C1019.5,295.6,1020.1,295.5,1020,295L1020,295z"/>
		</g>
	</g>
	<g>
		<g>
			<path class="st9" d="M1030,275c0.2,0.9,0.3,1.8,0.3,2.7c0,0.4,0.6,0.5,0.7,0c0-1-0.1-1.9-0.3-2.9
				C1030.5,274.3,1029.9,274.5,1030,275L1030,275z"/>
		</g>
	</g>
	<g>
		<g>
			<path class="st9" d="M1039.5,322c3.9-2.3,7.2-5.5,9.8-9.3c0.3-0.4-0.3-0.7-0.5-0.3c-2.5,3.8-5.8,6.9-9.5,9.1
				C1038.8,321.6,1039.1,322.2,1039.5,322L1039.5,322z"/>
		</g>
	</g>
	<g>
		<g>
			<path class="st9" d="M1038.2,258.3c0.5,6.4-2.5,12.3-3.4,18.5c-0.9,5.7,0.1,11.5,2.5,16.6c0.2,0.4,0.7,0,0.5-0.3
				c-2.7-5.6-3.4-12.1-2.1-18.2c1.2-5.5,3.5-10.8,3-16.6C1038.8,257.9,1038.1,257.9,1038.2,258.3L1038.2,258.3z"/>
		</g>
	</g>
	<path class="st14" d="M1023.6,232.5c-1.9,8.5-6.3,33.7,5.2,59.4c1.6,3.6,7.8,16.9,20.9,29c7.5,6.9,14.8,11.2,20.1,13.9
		c-1.1,0.7-2.2,1.4-3.3,2.1c-1.3,6.6-2.2,11.5-2.7,13.9c-1.6,8.4-2.4,12.6-1.1,13.6c2,1.7,7.2-1.4,10.4-4.8
		c2.8-3.1,3.9-6.3,6.3-14.3c2.2-7.1,3.9-13.1,5.2-17.4c-3.1-2-7.3-4.9-11.9-9c-4.5-4-10.2-9.1-14.4-16.6c-6-10.5-6.8-21.7-6.5-29.2
		c1-1.8,2.4-4.5,3.6-8c1.1-3.1,6-16.9,1.7-25.4C1052.8,231,1038.7,227.1,1023.6,232.5z"/>
	<path class="st15" d="M1043.3,240.6c-2.2,6.6-5,17.9-3.6,32c1.4,15,6.9,25.3,10.5,32c7.5,13.9,16.8,23.1,23.8,28.7
		c-0.2,3.7-0.7,8.1-1.9,12.9c-1.6,6.8-3.8,12.3-5.9,16.4c0.4,0,0.9,0,1.5-0.1c1.9-0.4,3-2,3.4-2.6c1.2-1.2,2.9-3.1,4.5-5.7
		c2.2-3.6,3.2-6.9,5-13.4c2.1-7.4,3.4-12.2,3.9-14.2c-4.3-2.4-10.4-6.3-16.7-12.6c-3-3-6.9-6.9-10.2-12.6
		c-6.1-10.7-6.7-22.3-6.3-29.7c2.5-3.9,7.2-12.5,6.8-23.7c-0.1-2.8-0.5-5.3-1.1-7.4C1052.4,240.6,1047.9,240.6,1043.3,240.6z"/>
</g>
<g id="hand_r">
	<path class="st10" d="M1014.2,154.3c-4.4-1.9-13.9,14.3-15.4,16.8c-3,5.1-6.9,12.9-9.9,23.4c-7.8,2.1-15.6,4.3-23.4,6.4
		c-7.6-5.2-10.2-6-10.8-5.2c-0.4,0.6-0.1,2.3,0.5,3.4c0.7,1.3,1.5,1.5,1.5,2c-0.1,1.2-4.3,1.3-7.7,2.4c-6.9,2.2-11.6,8.9-11,10
		c0.9,1.4,12.8-4.9,12.8-4.8c0,0.1-5.9,1.6-8,6.6c-0.8,1.9-1.3,4.6-0.2,5.6c0.6,0.5,1.6,0.4,5.1-1.2c4.5-2,7.3-3.7,7.5-3.5
		c0.2,0.4-9,6.3-8.4,7.8c0.5,1.2,7.1-1.2,7.8-1.4c5.1-1.8,9-4.1,11.8-6c2.9,1.2,8,2.8,14.4,2.2c11.5-1.1,18.8-8.6,20.7-10.6
		c3.9-4.1,6.2-10.4,10.8-23c2.7-7.4,6-17.8,3.6-27.6C1015.7,156.2,1015.3,154.8,1014.2,154.3z"/>
	<g>
		<g>
			<path class="st9" d="M943.2,220.3c2.4-3.7,6.6-5.1,10.3-6.9c0.5-0.2,0.1-1.1-0.4-0.8c-3.8,1.9-8,3.4-10.5,7.3
				C942.2,220.3,942.9,220.8,943.2,220.3L943.2,220.3z"/>
		</g>
	</g>
	<g>
		<g>
			<path class="st9" d="M956.7,206.2c1.7,2.4,4.2,3.6,7,3.5c0.5,0,0.5-1,0-0.9c-2.5,0.1-4.8-1-6.4-3.2
				C957,205.1,956.4,205.7,956.7,206.2L956.7,206.2z"/>
		</g>
	</g>
	<g>
		<g>
			<path class="st9" d="M998.8,171.4c1.3,1.9,3,3.4,5,4.5c-0.1-0.2-0.1-0.3-0.2-0.5c-0.6,2.9-1.5,5.6-2.7,8.2
				c-0.3,0.5,0.5,1,0.7,0.5c1.2-2.7,2.2-5.5,2.8-8.4c0-0.2,0-0.4-0.2-0.5c-1.9-1-3.4-2.4-4.7-4.2
				C999.2,170.5,998.5,170.9,998.8,171.4L998.8,171.4z"/>
		</g>
	</g>
	<g>
		<g>
			<path class="st9" d="M997.5,211.9c-0.6-4.7,2.9-8.5,7.2-8c0.5,0.1,0.5-0.9,0-0.9c-4.9-0.6-8.7,3.9-8,9.2
				C996.7,212.7,997.5,212.5,997.5,211.9L997.5,211.9z"/>
		</g>
	</g>
	<g>
		<g>
			<path class="st9" d="M972.3,199.3c-0.5,3.1-0.6,6.2-0.3,9.3c0.1,0.6,0.9,0.6,0.9,0c-0.3-3.1-0.3-6,0.2-9.1
				C973.2,198.9,972.4,198.7,972.3,199.3L972.3,199.3z"/>
		</g>
	</g>
	<path class="st12" d="M1016.8,162.6c-3.2,4.7-5.4,8.8-6.7,11.6c-4.8,9.9-5.8,14.6-10.5,21.3c-1.7,2.5-4.7,6.2-9.3,10
		c-3.5,0.8-8.5,2-14.5,3.7c-7.3,2.1-11,3.2-15.2,5.2c-3.4,1.7-8.3,4.5-13.6,9.5c2.6-0.2,6-0.8,9.7-2.2c4.2-1.5,7.5-3.5,9.8-5.2
		c2,0.8,5,1.8,8.7,2.2c9.4,0.9,16.4-3.2,18.7-4.5c2.1-1.3,6-3.6,9.4-8.4c1-1.4,2-3,4.4-8.9c3.8-9.3,6-14.7,7.5-22.6
		C1015.9,171.5,1016.5,167.5,1016.8,162.6z"/>
	<path class="st16" d="M943.9,218.3c0.4-0.6,1.7-2.2,5.9-4c1.6-0.7,6-2.5,6.5-1.4c0.2,0.3,0.1,1-1.4,2.7c-1.9,1.4-4.5,2.9-7.7,4.1
		c-1.7,0.7-3.3,1.1-4.8,1.4C942.8,220.4,943.2,219.4,943.9,218.3z"/>
	<path class="st17" d="M1016.2,172.2c-1.8,3.5-5,9.5-8.9,17c-5.6,10.9-8.7,16.2-11.4,18.9c-3.2,3.3-11.4,9.9-29.8,8
		c3,1.2,12.3,4.5,22.9,0.5c7.6-2.9,12.1-8.1,13.2-9.4c1.1-1.3,3.4-4.2,7.4-14.9C1011.6,187.4,1014,180.6,1016.2,172.2z"/>
	<path class="st18" d="M948.5,223.6c3.4-1.2,7.5-2.9,12.1-5.2c3.3-1.7,5.5-2.9,5.6-2.7c0.1,0.2-3.2,2.9-7.1,4.9
		C955,222.7,951.2,223.4,948.5,223.6z"/>
</g>
<g id="backbag">
	<path class="st19" d="M1037.9,155c1.6-0.6,25.2-8.3,40,6.6c16.1,16.1,7.9,44.6,4.1,57.8c-4.1,14.1-9.4,18.1-12.2,19.6
		c-5.4,3-10.7,2-15.9,1.1c-9-1.4-21.7-3-38.1-3.5c1.8-24.8,3.6-49.7,5.4-74.5C1026.8,159.8,1032.4,157.4,1037.9,155z"/>
</g>
<g id="tube">
	<path class="st10" d="M1059.2,166.4c6.3,0.1,16.2,1.3,24.8,8.4c5.4,4.5,10.6,11.4,18.1,39c9.7,36,6,43,14.9,55.3
		c1.3,1.7,13.1,17.7,31.6,19.8c23,2.5,40.7-18.3,52.8-32.6c21-24.7,29.4-52.7,33-71.1c3.5,1.2,6.9,2.3,10.4,3.5
		c-11,30.7-23.9,53.6-33.9,69.2c-19.1,29.6-30.4,36.4-37.5,39.5c-5.1,2.3-22.3,10-41.1,2c-17.4-7.4-25.4-23.8-28-29.1
		c-3-6.1-3.2-8.8-7.7-30.6c-8.8-42.5-11.8-50.4-18.5-55.3c-3.8-2.8-10.5-5.8-22.1-4C1057.1,175.6,1058.2,171,1059.2,166.4z"/>
	<g>
		<g>
			<path class="st9" d="M1078.5,183.7c0.3-3.3,2-6.1,4.5-7.9c0.5-0.3,0-1.1-0.4-0.8c-2.8,2-4.6,5.1-4.9,8.7
				C1077.6,184.4,1078.4,184.3,1078.5,183.7L1078.5,183.7z"/>
		</g>
	</g>
	<g>
		<g>
			<path class="st9" d="M1087.1,195.8c1.4-2.9,3.7-5,6.6-5.9c0.5-0.2,0.3-1.1-0.2-0.9c-3.1,0.9-5.7,3.2-7.2,6.3
				C1086.1,195.8,1086.8,196.3,1087.1,195.8L1087.1,195.8z"/>
		</g>
	</g>
	<g>
		<g>
			<path class="st9" d="M1085.5,188.4c1.2-2.3,3.2-3.8,5.6-4.1c0.5-0.1,0.5-1,0-0.9c-2.7,0.4-5,2-6.3,4.6
				C1084.5,188.5,1085.3,188.9,1085.5,188.4L1085.5,188.4z"/>
		</g>
	</g>
	<g>
		<g>
			<path class="st9" d="M1093.2,218.4c1.8-2.7,4.6-4.2,7.7-4.1c0.5,0,0.5-0.9,0-0.9c-3.4-0.2-6.5,1.6-8.4,4.5
				C1092.1,218.4,1092.9,218.9,1093.2,218.4L1093.2,218.4z"/>
		</g>
	</g>
	<g>
		<g>
			<path class="st9" d="M1092.1,208.4c1.5-2.6,4.2-3.5,6.8-3.9c0.5-0.1,0.3-1-0.2-0.9c-2.8,0.4-5.7,1.5-7.3,4.3
				C1091.1,208.4,1091.8,208.9,1092.1,208.4L1092.1,208.4z"/>
		</g>
	</g>
	<g>
		<g>
			<path class="st9" d="M1089,203.1c1.4-2.6,3.8-4.1,6.6-4.2c0.5,0,0.5-1,0-0.9c-3,0.1-5.7,1.8-7.3,4.6
				C1087.9,203.1,1088.7,203.6,1089,203.1L1089,203.1z"/>
		</g>
	</g>
	<g>
		<g>
			<path class="st9" d="M1097.1,239.2c2.4-2.8,5.7-4.3,9.2-4.1c0.5,0,0.5-0.9,0-0.9c-3.7-0.2-7.3,1.4-9.8,4.4
				C1096.1,239,1096.7,239.6,1097.1,239.2L1097.1,239.2z"/>
		</g>
	</g>
	<g>
		<g>
			<path class="st9" d="M1095.9,233.5c2.2-2.9,5.4-4.4,8.8-4.1c0.5,0.1,0.5-0.9,0-0.9c-3.6-0.3-7.1,1.3-9.4,4.4
				C1094.9,233.3,1095.5,234,1095.9,233.5L1095.9,233.5z"/>
		</g>
	</g>
	<g>
		<g>
			<path class="st9" d="M1094.7,227.3c1.6-2.1,3.8-3.3,6.2-3.6c0.5-0.1,0.5-1,0-0.9c-2.7,0.3-5.1,1.6-6.8,3.9
				C1093.7,227.1,1094.3,227.8,1094.7,227.3L1094.7,227.3z"/>
		</g>
	</g>
	<g>
		<g>
			<path class="st9" d="M1097.1,222.2c1.8-1.3,3.8-1.9,5.9-1.7c0.5,0.1,0.5-0.9,0-0.9c-2.3-0.2-4.4,0.3-6.3,1.8
				C1096.2,221.7,1096.6,222.6,1097.1,222.2L1097.1,222.2z"/>
		</g>
	</g>
	<g>
		<g>
			<path class="st9" d="M1105.9,272.1c1.7-3.1,4.3-5.4,7.4-6.5c0.5-0.2,0.3-1.1-0.2-0.9c-3.4,1.1-6.2,3.6-7.9,6.9
				C1104.8,272.2,1105.6,272.7,1105.9,272.1L1105.9,272.1z"/>
		</g>
	</g>
	<g>
		<g>
			<path class="st9" d="M1102.3,263.9c1.7-3.2,4.8-5.3,8.1-5.5c0.5,0,0.5-1,0-0.9c-3.7,0.3-7,2.5-8.9,6
				C1101.3,263.9,1102,264.4,1102.3,263.9L1102.3,263.9z"/>
		</g>
	</g>
	<g>
		<g>
			<path class="st9" d="M1100.1,253.4c2-3,5.3-4.6,8.7-4.3c0.5,0.1,0.5-0.9,0-0.9c-3.7-0.3-7.2,1.5-9.4,4.7
				C1099,253.5,1099.8,253.9,1100.1,253.4L1100.1,253.4z"/>
		</g>
	</g>
	<g>
		<g>
			<path class="st9" d="M1102.7,255.7c2.2-1.7,4.6-2.5,7.3-2.5c0.5,0,0.5-0.9,0-0.9c-2.8,0-5.4,0.8-7.7,2.6
				C1101.8,255.3,1102.2,256.1,1102.7,255.7L1102.7,255.7z"/>
		</g>
	</g>
	<g>
		<g>
			<path class="st9" d="M1135.2,285.8c0.6,2,0.9,4,0.8,6.1c-0.1,1.9-0.4,4.4-1.8,5.6c-0.4,0.4,0.2,1,0.6,0.7c1.4-1.3,1.8-3.3,2-5.2
				c0.3-2.5,0-5-0.7-7.4C1135.8,285,1135,285.2,1135.2,285.8L1135.2,285.8z"/>
		</g>
	</g>
	<g>
		<g>
			<path class="st9" d="M1145.4,290.4c1.3,3.1,1,6.7-0.7,9.6c-0.3,0.5,0.5,1,0.7,0.5c1.9-3.2,2.1-7.1,0.7-10.5
				C1146,289.4,1145.2,289.8,1145.4,290.4L1145.4,290.4z"/>
		</g>
	</g>
	<g>
		<g>
			<path class="st9" d="M1163.6,288.1c2.3,3.1,2.9,7.4,1.7,11.2c-0.2,0.6,0.6,0.8,0.8,0.2c1.4-4.1,0.7-8.7-1.9-12.1
				C1163.8,287,1163.2,287.7,1163.6,288.1L1163.6,288.1z"/>
		</g>
	</g>
	<g>
		<g>
			<path class="st9" d="M1203.4,254.9c1.9,0.8,3.2,2.7,3.5,4.9c0.1,0.6,0.9,0.3,0.8-0.2c-0.3-2.6-1.9-4.6-4.1-5.6
				C1203.2,253.8,1202.9,254.7,1203.4,254.9L1203.4,254.9z"/>
		</g>
	</g>
	<g>
		<g>
			<path class="st9" d="M1218.4,232.4c1.9,0.8,3.3,2.5,3.9,4.5c0.2,0.6,1,0.3,0.8-0.2c-0.7-2.4-2.4-4.2-4.5-5.2
				C1218.1,231.3,1217.9,232.2,1218.4,232.4L1218.4,232.4z"/>
		</g>
	</g>
	<g>
		<g>
			<path class="st9" d="M1182.8,276.4c2.1,3.1,3,6.9,2.4,10.7c-0.1,0.6,0.7,0.8,0.8,0.2c0.6-4-0.3-8.1-2.5-11.4
				C1183.2,275.5,1182.5,276,1182.8,276.4L1182.8,276.4z"/>
		</g>
	</g>
	<g>
		<g>
			<path class="st9" d="M1174.6,283.6c2.2,2.7,4.5,6.1,3.2,9.9c-0.2,0.6,0.7,0.8,0.8,0.2c1.3-4.1-1.1-7.8-3.5-10.8
				C1174.8,282.5,1174.2,283.1,1174.6,283.6L1174.6,283.6z"/>
		</g>
	</g>
	<g>
		<g>
			<path class="st9" d="M1114,284.4c0.8-3.4,2.9-6.1,5.8-7.7c0.5-0.2,0.1-1.1-0.4-0.8c-3.1,1.6-5.3,4.6-6.2,8.2
				C1113,284.7,1113.8,285,1114,284.4L1114,284.4z"/>
		</g>
	</g>
	<g>
		<g>
			<path class="st9" d="M1118.9,289.8c1.7-3.7,4.2-6.8,7.5-8.9c0.5-0.3,0.1-1.1-0.4-0.8c-3.4,2.1-6.1,5.3-7.8,9.2
				C1117.9,289.8,1118.7,290.3,1118.9,289.8L1118.9,289.8z"/>
		</g>
	</g>
	<g>
		<g>
			<path class="st9" d="M1110.4,276.8c1.1-2.2,2.7-3.9,4.8-4.8c0.5-0.2,0.3-1.1-0.2-0.9c-2.3,1-4.2,2.8-5.3,5.3
				C1109.4,276.9,1110.1,277.4,1110.4,276.8L1110.4,276.8z"/>
		</g>
	</g>
	<g>
		<g>
			<path class="st9" d="M1193.4,266.3c2.9,1.1,5.1,3.7,5.8,7c0.1,0.6,0.9,0.3,0.8-0.2c-0.7-3.6-3.2-6.5-6.4-7.7
				C1193.2,265.2,1192.9,266.1,1193.4,266.3L1193.4,266.3z"/>
		</g>
	</g>
	<g>
		<g>
			<path class="st9" d="M1198.7,263.7c1.4,0.8,2.4,2.1,2.9,3.7c0.2,0.6,1,0.3,0.8-0.2c-0.6-1.8-1.7-3.3-3.3-4.3
				C1198.7,262.6,1198.3,263.4,1198.7,263.7L1198.7,263.7z"/>
		</g>
	</g>
	<g>
		<g>
			<path class="st9" d="M1208.8,247.8c1.5,0.6,2.8,1.7,3.8,3.1c0.3,0.5,1.1,0,0.7-0.5c-1.1-1.7-2.5-2.9-4.3-3.6
				C1208.5,246.7,1208.3,247.6,1208.8,247.8L1208.8,247.8z"/>
		</g>
	</g>
	<g>
		<g>
			<path class="st9" d="M1225.5,215.6c2.4,0.4,4.4,1.8,5.8,3.9c0.3,0.5,1.1,0,0.7-0.5c-1.5-2.3-3.8-3.9-6.4-4.3
				C1225.2,214.6,1225,215.5,1225.5,215.6L1225.5,215.6z"/>
		</g>
	</g>
	<g>
		<g>
			<path class="st9" d="M1157.1,291.5c1.3,2.6,1.4,5.5,0.4,8.2c-0.2,0.6,0.6,0.8,0.8,0.2c1.1-3,0.9-6.2-0.5-8.9
				C1157.6,290.5,1156.8,290.9,1157.1,291.5L1157.1,291.5z"/>
		</g>
	</g>
	<g>
		<g>
			<path class="st9" d="M1192.2,273.4c1.6,1.7,2.4,3.9,2.4,6.3c0,0.6,0.9,0.6,0.9,0c0.1-2.6-0.9-5.1-2.6-6.9
				C1192.4,272.3,1191.8,273,1192.2,273.4L1192.2,273.4z"/>
		</g>
	</g>
	<path class="st15" d="M1057.7,170.4c9.9,3.1,24.2,9.6,33,24.1c8.4,13.8,5,22.6,12.2,49.3c5.2,19.4,10.2,37.9,24.7,46.9
		c18.5,11.5,41.3,0.7,45.4-1.4c11.4-5.7,18.5-14.5,29.4-28c8.1-10,13.4-18.8,16-23.3c6.3-10.9,14.6-28.1,20-51.2
		c2.1,0.6,4.2,1.3,6.3,1.9c-3.9,12-7.9,21.6-11.1,28.5c-6.5,14.3-12.5,23.8-24.4,42.8c-4.7,7.4-8,12.5-13,18.3
		c-4.6,5.4-8.6,10-14.8,14.3c-3.9,2.7-16.3,11-33.3,10c-9.7-0.6-16.8-4-19.1-5.2c-2.1-1.1-12.2-6.5-20.4-19.3
		c-5.6-8.7-7.5-17.6-11.3-35.4c-3.3-15.4-3.6-22.6-8.3-38.5c-3.4-11.6-5.4-15.4-8.5-18.5c-8-8.3-19.3-8.4-24.4-8.1
		C1056.7,175.1,1057.2,172.7,1057.7,170.4z"/>
</g>
<g id="torso">
	<path class="st10" d="M1012.1,155.2c-3.7,5.1-3.8,15.7-4,37.1c-0.1,6.9,0.1,12.7,0.2,16.5c-3.9,6.3-7.9,12.6-11.8,19
		c4.1,3.5,9.3,7.1,15.6,10.1c18.9,9,36.7,7.1,45.6,5.4c3.7-11.4,6.3-21,8.1-28c8.4-32.9,6.6-41.7,3.9-47.7
		c-2.7-6.1-6.6-9.7-8.4-11.3C1046.8,143.1,1021.2,142.7,1012.1,155.2z"/>
	<g>
		<g>
			<path class="st9" d="M1014.3,215.1c0.7,0.8,1.6,1.4,2.5,1.8c0.5,0.2,0.7-0.7,0.2-0.9c-0.8-0.4-1.5-0.9-2.2-1.6
				C1014.5,214,1013.9,214.7,1014.3,215.1L1014.3,215.1z"/>
		</g>
	</g>
	<g>
		<g>
			<path class="st9" d="M1008,205.5c-0.1,2.5,0.6,4.8,1.9,6.8c0.2,0.4,0.8,0,0.5-0.3c-1.3-1.9-1.9-4.1-1.8-6.4
				C1008.6,205,1008,205,1008,205.5L1008,205.5z"/>
		</g>
	</g>
	<g>
		<g>
			<path class="st9" d="M1041.6,202c-0.2,0.9-0.9,2.7-0.4,3.6c0.5,0.9,2.2,1,3,1.2c2.8,0.6,5.7,0.8,8.5,0.6
				c5.8-0.4,11.4-2.5,16.2-6.1c0.3-0.2,0-0.9-0.3-0.6c-4.2,3.1-8.9,5.1-13.9,5.8c-2.4,0.3-4.9,0.4-7.3,0.1c-1.3-0.2-2.7-0.4-4-0.7
				c-1-0.2-1.6-0.1-1.7-1.6c0-0.7,0.3-1.4,0.4-2.1C1042.3,201.7,1041.7,201.5,1041.6,202L1041.6,202z"/>
		</g>
	</g>
	<g>
		<g>
			<path class="st9" d="M1003.5,216.8c3.4,4,7.5,7.3,12,9.6c0.4,0.2,0.7-0.4,0.3-0.6c-4.5-2.3-8.5-5.5-11.9-9.4
				C1003.6,216,1003.2,216.5,1003.5,216.8L1003.5,216.8z"/>
		</g>
	</g>
	<g>
		<g>
			<path class="st9" d="M1015.2,175.5c-0.9,0.1-1.8-1.7-2-2.5c-0.3-1.1-0.3-2.3,0.1-3.4c0.8-2.2,2.9-3.6,5-2.7c2,0.8,3,3.3,2.3,5.4
				c-0.4,1.2-1.2,2.1-2.3,2.7c-0.9,0.5-2.5,1-3.5,0.4c-0.4-0.2-0.7,0.4-0.3,0.6c1.1,0.7,2.9,0.2,4-0.3c1.1-0.5,2-1.5,2.5-2.7
				c1-2.5,0-5.6-2.4-6.7c-2.6-1.2-5.2,0.6-6.1,3.3c-0.4,1.3-0.4,2.8,0.1,4.1c0.4,1,1.3,2.6,2.4,2.5
				C1015.6,176.2,1015.6,175.5,1015.2,175.5L1015.2,175.5z"/>
		</g>
	</g>
	<g>
		<g>
			<path class="st9" d="M1008.1,198.1c3.5,3.1,7.8,4.7,12.3,4.6c0.4,0,0.4-0.7,0-0.7c-4.3,0.1-8.4-1.5-11.8-4.4
				C1008.2,197.3,1007.8,197.8,1008.1,198.1L1008.1,198.1z"/>
		</g>
	</g>
	<g>
		<g>
			<path class="st9" d="M1024.1,219.8c7.7,3,15.9,4.4,24,4c0.4,0,0.4-0.7,0-0.7c-8.1,0.4-16.2-1-23.9-4
				C1023.8,219,1023.7,219.7,1024.1,219.8L1024.1,219.8z"/>
		</g>
	</g>
	<g>
		<g>
			<path class="st9" d="M1049.4,241.5c-0.1,0.9-0.3,1.7-0.6,2.6c-0.1,0.4,0.5,0.6,0.6,0.2c0.3-0.8,0.5-1.7,0.6-2.6
				C1050.1,241.3,1049.5,241.1,1049.4,241.5L1049.4,241.5z"/>
		</g>
	</g>
	<g>
		<g>
			<path class="st9" d="M1052.5,241.4c0,0.7-0.1,1.5-0.5,2.1c-0.2,0.4,0.4,0.7,0.5,0.3c0.4-0.8,0.6-1.6,0.5-2.5
				C1053.2,240.9,1052.5,240.9,1052.5,241.4L1052.5,241.4z"/>
		</g>
	</g>
	<g>
		<g>
			<path class="st9" d="M1055.7,240.8c0,0.6-0.1,1.2-0.5,1.7c-0.2,0.4,0.3,0.7,0.5,0.3c0.4-0.6,0.5-1.4,0.5-2.1
				C1056.4,240.4,1055.7,240.4,1055.7,240.8L1055.7,240.8z"/>
		</g>
	</g>
	<g>
		<g>
			<path class="st9" d="M1031.3,174.1c-0.3,3-0.7,6-1,9c-0.1,0.6-0.3,1.6,0,2.1c0.5,0.7,1.8,0.6,2.4,0.7c5.1,0.9,10.3,1.5,15.5,1.8
				c0.4,0,0.4-0.7,0-0.7c-4.6-0.3-9.1-0.8-13.7-1.6c-0.5-0.1-1.1-0.2-1.7-0.3c-0.5-0.1-1.3,0-1.7-0.3c-0.9-0.6-0.3-2.7-0.2-3.7
				c0.3-2.4,0.5-4.8,0.8-7.2C1032,173.6,1031.3,173.6,1031.3,174.1L1031.3,174.1z"/>
		</g>
	</g>
	<g>
		<g>
			<path class="st9" d="M1031.8,174c5-0.9,10-0.3,14.9,0.6c1.1,0.2,2.9,0.1,3.3,1.5c0.2,1-0.1,2.4-0.1,3.4c-0.2,2.6-0.8,5.2-1.5,7.7
				c-0.1,0.4,0.5,0.6,0.6,0.2c0.9-2.8,1.4-5.8,1.6-8.8c0.1-1,0.4-2.5,0-3.4c-0.3-0.8-1-0.8-1.7-1c-5.7-1.1-11.4-2-17.1-0.9
				C1031.2,173.4,1031.4,174.1,1031.8,174L1031.8,174z"/>
		</g>
	</g>
	<g>
		<g>
			<path class="st9" d="M1031.4,177.8c6.2-1.2,12.5-0.6,18.5,1.8c0.4,0.2,0.5-0.5,0.2-0.7c-6-2.4-12.5-3-18.8-1.8
				C1030.8,177.2,1031,177.8,1031.4,177.8L1031.4,177.8z"/>
		</g>
	</g>
	<g>
		<g>
			<path class="st9" d="M1040.2,180.7c-0.2,1.8-0.5,3.7-0.6,5.5c-0.1,0.4,0.6,0.4,0.7,0c0.2-1.8,0.4-3.6,0.6-5.4
				C1040.9,180.5,1040.3,180.3,1040.2,180.7L1040.2,180.7z"/>
		</g>
	</g>
	<g>
		<g>
			<path class="st9" d="M1040.5,181.1c2.8,0.5,5.6,1.1,8.5,1.6c0.4,0.1,0.6-0.6,0.2-0.7c-2.8-0.5-5.6-1.1-8.5-1.6
				C1040.3,180.3,1040.1,181,1040.5,181.1L1040.5,181.1z"/>
		</g>
	</g>
	<g>
		<g>
			<path class="st9" d="M1032.8,229.1c-0.1,2.4-1.1,4.8-1.8,7.1c-0.7,2.3-1.5,4.6-2.3,6.9c-0.1,0.4,0.5,0.6,0.6,0.2
				c0.9-2.5,1.7-5,2.4-7.5c0.7-2.1,1.5-4.4,1.6-6.7C1033.5,228.7,1032.9,228.7,1032.8,229.1L1032.8,229.1z"/>
		</g>
	</g>
	<g>
		<g>
			<path class="st9" d="M1033.1,229.1c5,1,10.1,1.6,15.1,1.8c-0.1-0.1-0.2-0.2-0.3-0.3c0.2,4.8-0.7,9.5-2.6,13.8
				c-0.2,0.4,0.4,0.7,0.5,0.3c1.9-4.5,2.8-9.3,2.6-14.2c0-0.2-0.1-0.3-0.3-0.3c-5-0.2-10-0.8-15-1.8
				C1032.9,228.3,1032.7,229,1033.1,229.1L1033.1,229.1z"/>
		</g>
	</g>
	<g>
		<g>
			<path class="st9" d="M1031.6,236.4c4.8,2.1,10.1,2.8,15.2,2.1c0.4-0.1,0.4-0.7,0-0.7c-5.1,0.7-10.3,0-15.1-2.1
				C1031.4,235.5,1031.3,236.2,1031.6,236.4L1031.6,236.4z"/>
		</g>
	</g>
	<g>
		<g>
			<path class="st9" d="M1041.9,235.1c-0.2,1-0.3,1.9-0.5,2.9c-0.1,0.4,0.5,0.6,0.6,0.2c0.2-1,0.3-1.9,0.5-2.9
				C1042.6,234.8,1042,234.6,1041.9,235.1L1041.9,235.1z"/>
		</g>
	</g>
	<g>
		<g>
			<path class="st9" d="M1033.1,242c-0.3,0-0.3-0.4-0.2-0.6c0.1-0.2,0.2-0.4,0.4-0.6c0.4-0.3,0.9-0.2,1.1,0.3
				c0.5,0.9-0.5,1.8-1.2,1.2c-0.3-0.3-0.8,0.2-0.5,0.5c0.6,0.5,1.5,0.5,2.1-0.1c0.6-0.7,0.4-1.8-0.2-2.3c-0.7-0.6-1.6-0.4-2.1,0.4
				c-0.5,0.7-0.3,1.9,0.6,2.1C1033.5,242.7,1033.5,242.1,1033.1,242L1033.1,242z"/>
		</g>
	</g>
	<g>
		<g>
			<path class="st9" d="M1037.9,242.5c-0.4-0.1-0.7-0.6-0.4-1c0.3-0.5,0.8-0.5,1.2-0.1c0.3,0.3,0.4,0.8,0,1.1
				c-0.3,0.2-0.7,0.2-1,0.2c-0.4,0-0.4,0.7,0,0.7c0.6,0,1.5-0.1,1.8-0.7c0.4-0.8-0.1-1.7-0.8-2s-1.5,0-1.8,0.8
				c-0.3,0.8,0.2,1.7,0.9,1.8C1038.1,243.3,1038.3,242.6,1037.9,242.5L1037.9,242.5z"/>
		</g>
	</g>
	<g>
		<g>
			<path class="st9" d="M1042.6,242.7c-0.9-0.2-0.5-1.7,0.4-1.3c0.3,0.1,0.5,0.6,0.4,0.9c-0.1,0.4-0.6,0.7-1,0.6
				c-0.4-0.1-0.6,0.6-0.2,0.7c0.7,0.2,1.5-0.2,1.7-1.1c0.2-0.7-0.2-1.6-0.9-1.8c-0.7-0.2-1.5,0.2-1.7,0.9c-0.2,0.8,0.3,1.6,0.9,1.8
				C1042.9,243.5,1043,242.9,1042.6,242.7L1042.6,242.7z"/>
		</g>
	</g>
	<g>
		<g>
			<path class="st9" d="M1046.3,155.5c4.2,1.9,8.1,4.5,11.7,7.8c0.4,0.4,1-0.3,0.6-0.7c-3.6-3.4-7.6-6-12-8
				C1046,154.4,1045.8,155.3,1046.3,155.5L1046.3,155.5z"/>
		</g>
	</g>
	<g>
		<g>
			<path class="st9" d="M1046.6,154.9c0.5-0.6,1.1-1.2,1.8-1.6c1-0.5,1.7-0.2,2.7,0.3c1,0.5,1.9,1.2,2.8,1.9c2,1.6,3.8,3.6,5.6,5.5
				c0.4,0.4,1-0.2,0.6-0.7c-2.3-2.5-4.6-5-7.3-6.8c-0.9-0.6-2.4-1.7-3.6-1.6c-1.2,0.1-2.4,1.5-3.2,2.3
				C1045.6,154.6,1046.2,155.3,1046.6,154.9L1046.6,154.9z"/>
		</g>
	</g>
	<g>
		<g>
			<path class="st9" d="M1058.6,163.3c0.5-0.6,0.9-1.3,1.4-1.9c0.3-0.5-0.3-1.1-0.6-0.7c-0.5,0.7-1,1.4-1.5,2.1
				c-0.1,0.2,0,0.5,0.1,0.7C1058.3,163.6,1058.5,163.5,1058.6,163.3L1058.6,163.3z"/>
		</g>
	</g>
	<path class="st20" d="M1013,156.3c3.8,1.2,8,2.3,12.3,3.3c5.3,1.2,10.3,2.1,15,2.8c-4.5,28-6.1,38.5-6.6,42.5
		c-0.1,0.7-0.7,5.3-1.6,11.4c-0.3,1.9-0.5,3.4-0.6,4.3c-1.3,0.1-2.6,0.2-4,0.3c-3.4,6-6.8,12.1-10.1,18.1c3.8,1.8,8.7,3.7,14.5,4.7
		c10.7,2,19.8,0.5,25.4-1.1c1-3.1,2.4-7.8,4.2-13.6c8.5-28.5,9.3-36.3,9.5-39.9c0.6-9.9,1-16.2-2.3-23.2
		c-6.5-14.1-24.4-18.4-25.3-18.6C1027.2,144.5,1015.1,154.5,1013,156.3z"/>
	<path class="st21" d="M1008.3,209.1c-0.2,0.1,0.4,3.8,3,5.9c1.1,0.9,2.4,1.3,2.5,1.2c0.1-0.2-1.6-1.1-3.3-3.1
		C1008.8,210.9,1008.4,209,1008.3,209.1z"/>
	<path class="st22" d="M1024.1,219.7c1.7,1.6,4.3,3.5,7.8,4.8c7.7,2.8,14.6,0.2,16.9-0.7c-3.4,0.2-7.7,0.2-12.5-0.6
		C1031.4,222.4,1027.3,221,1024.1,219.7z"/>
	<path class="st23" d="M1068.9,175c-2.3,14.4-5.2,26.2-7.4,34.6c-4.5,16.9-7.2,20.8-9.7,23.6c-8.6,9.4-21.2,9.7-26.9,9.4
		c4.2,1,9.4,1.9,15.2,2.1c6.8,0.2,12.7-0.4,17.4-1.2c3.5-10.1,5.9-18.8,7.6-25.6c4.9-19.9,5-28.9,4.7-34.6
		C1069.6,179.8,1069.2,177,1068.9,175z"/>
</g>
<g id="hand_l">
	<path class="st10" d="M1063.3,157.5c4.6,0.3,7.5,10.4,9.3,16.7c2,7,6.5,23.1-0.3,39.3c-4.2,9.8-10.8,16-17.8,22.4
		c-4.1,3.8-7.8,6.5-10.5,8.3c0.1,1.2,0.6,6-2.3,10.4c-3.6,5.7-9.5,6.2-10.3,6.3c3.5-5.1,4.1-6.2,3.9-6.3c-0.2-0.2-1.9,2.6-4.8,3.8
		c-3,1.2-6,0.2-8.1-0.7c1.5-0.7,3.7-2,5.7-4.3c1.2-1.3,2.1-2.9,1.9-3.1c-0.3-0.4-2.5,2.6-5.6,2.7c-2,0.1-3.6-1-4.6-1.8
		c1.1-0.2,3.8-0.8,6.2-3.2c1.4-1.4,2.2-3,2.7-4c-0.7-0.2-1.6-0.4-2.5-0.5c-2.2-0.2-4,0.2-5.2,0.5c2.8-4,5.6-5.8,7.7-6.6
		c3.6-1.6,6-0.9,9.4-3.2c2-1.4,3.2-3,4.6-5c6.9-10.4,11.8-17.8,12.3-27.7c0.5-10-4.1-10.4-3.8-20.5
		C1051.6,169.4,1058.1,157.2,1063.3,157.5z"/>
	<g>
		<g>
			<path class="st9" d="M1023,258c3.5,0.9,7.9-1.7,10.1-4.6c0.3-0.5-0.3-1.1-0.6-0.7c-1.9,2.6-6,5.2-9.2,4.4
				C1022.7,257,1022.5,257.9,1023,258L1023,258z"/>
		</g>
	</g>
	<g>
		<g>
			<path class="st9" d="M1055.1,195.5c2.8-3.6,7.2-4.5,11.3-4.8c0.4,0,0.4-0.7,0-0.7c-4.3,0.3-8.8,1.2-11.7,5
				C1054.4,195.3,1054.9,195.8,1055.1,195.5L1055.1,195.5z"/>
		</g>
	</g>
	<g>
		<g>
			<path class="st9" d="M1066.2,190.8c0.5,2.8,0.6,5.5,0.3,8.4c-0.1,0.4,0.6,0.4,0.7,0c0.3-2.9,0.2-5.7-0.3-8.6
				C1066.7,190.2,1066.1,190.3,1066.2,190.8L1066.2,190.8z"/>
		</g>
	</g>
	<g>
		<g>
			<path class="st9" d="M1055.3,203.2c3.1-2.8,7.1-3.3,11-3.8c0.4,0,0.4-0.7,0-0.7c-4.1,0.4-8.2,1-11.5,4
				C1054.5,203,1055,203.5,1055.3,203.2L1055.3,203.2z"/>
		</g>
	</g>
	<g>
		<g>
			<path class="st9" d="M1055.4,198.5c3-3.1,7-4.8,11.1-4.8c0.4,0,0.4-0.7,0-0.7c-4.3-0.1-8.5,1.7-11.6,5
				C1054.7,198.3,1055.1,198.8,1055.4,198.5L1055.4,198.5z"/>
		</g>
	</g>
	<g>
		<g>
			<path class="st9" d="M1070.7,170.7c0.2,0.6,0.5,1.1,0.9,1.6c0.3,0.3,0.8-0.2,0.5-0.5c-0.3-0.3-0.6-0.8-0.8-1.2
				C1071.2,170.1,1070.6,170.3,1070.7,170.7L1070.7,170.7z"/>
		</g>
	</g>
	<g>
		<g>
			<path class="st9" d="M1074.4,204.6c-5.4,2.6-7.9,9.2-5.9,15.2c0.1,0.4,0.8,0.2,0.6-0.2c-2-5.8,0.4-12,5.6-14.4
				C1075.1,205.1,1074.8,204.4,1074.4,204.6L1074.4,204.6z"/>
		</g>
	</g>
	<g>
		<g>
			<path class="st9" d="M1041.8,231c1,2,1.9,4.4,3.4,6c1.3,1.4,3,2.2,4.6,2.7c0.4,0.1,0.6-0.5,0.2-0.7c-1.7-0.6-3.4-1.4-4.6-2.9
				c-1.3-1.6-2.1-3.7-3-5.6C1042.1,230.2,1041.6,230.6,1041.8,231L1041.8,231z"/>
		</g>
	</g>
	<g>
		<g>
			<path class="st9" d="M1054.6,227.1c1.2,1.6,2.5,3.1,3.9,4.5c0.3,0.3,0.8-0.2,0.5-0.5c-1.5-1.3-2.8-2.8-3.9-4.5
				C1054.8,226.3,1054.3,226.8,1054.6,227.1L1054.6,227.1z"/>
		</g>
	</g>
	<g>
		<g>
			<path class="st9" d="M1055.2,226.9c0.3-0.5,0.7-1.3,1.3-1.7c0.8-0.6,1.2,0,1.8,0.4c1.1,0.8,2.2,1.7,3.3,2.7
				c0.3,0.3,0.8-0.2,0.5-0.5c-0.8-0.7-1.6-1.4-2.4-2.1c-0.7-0.5-1.6-1.5-2.4-1.7c-1.1-0.3-2.1,1.6-2.6,2.4
				C1054.4,226.9,1055,227.2,1055.2,226.9L1055.2,226.9z"/>
		</g>
	</g>
	<path class="st24" d="M1056.1,163.3c2.7,3.2,8.6,10.9,10.5,22.7c1.8,11-0.9,19.5-2.4,24.5c-5.7,18.3-18.5,28.1-23.2,31.2
		c-0.4,1.6-1,4-1.6,6.9c-0.9,4-1,4.6-1.5,5.7c-2,4.6-5.8,6.1-5.6,6.5c0.3,0.5,6.4-1,9.8-6.5c2.5-4.2,2.2-8.8,2.1-10.4
		c4.5-2.8,9.5-6.5,14.4-11.5c4.6-4.6,9.3-9.4,13-17.6c3.6-8,4.3-15.1,4.5-18.7c0.4-7.3-0.8-12.7-2.1-17.9c-2-8.6-4.7-19.7-10.1-20.4
		C1062.9,157.8,1060.1,157.8,1056.1,163.3z"/>
	<path class="st21" d="M1073.3,208.9c-3.9,7.3-8,12.8-11.2,16.6c-5.8,6.9-10.9,12.7-18.7,14c-2.1,0.3-3.9,0.2-5.1,0.1
		c0.9,0.3,2.8,1.2,3.9,3.3c1.5,2.9,0.3,6.2-0.5,8.6c-1.5,4.1-4.1,6.7-5.8,8.1c1.3-0.6,3.3-1.7,5-3.8c3.9-4.9,3.4-11,3.3-12.2
		c6.5-4,11.3-8.2,14.5-11.5c4.2-4.1,8.6-8.6,12-16.1C1072,213.2,1072.8,210.7,1073.3,208.9z"/>
</g>
<g id="head">
	<path class="st10" d="M1007.3,123.9c-1.5,7,1.4,12.7,3.8,17.5c2.3,4.6,4.3,8.5,8.6,10.3c0.4,0.2,6.1,2.5,11.5-0.7
		c6-3.6,7-11.3,7.4-14.8c0.3-2.7,1.3-10.4-3.3-16.7c-4.9-6.8-14.9-10.3-21.7-5.8C1008.8,116.8,1007.5,122.7,1007.3,123.9z"/>
	<path class="st9" d="M1005.1,134.4c-0.2-2.1-1.1-14.4,6.7-19.5c7-4.6,15.2,0.3,16.4,1c6.5,3.9,9.8,11.5,10,18.4
		c0,1.7,0.2,9-4.5,13.3c-2.4,2.2-5,2.7-8.4,3.4c-5.1,1-9.4,0.5-12.2,0c0.2,1.8,0.3,3.6,0.5,5.5c6,1.4,11,1.4,14.4,1.1
		c4.8-0.3,8.5-1.4,11-2.1c4.3-1.2,7.8-2.7,10.5-4c0.6-3.6,1.2-8.7,1.2-14.8c0-8.7,0.1-14.5-2.6-20.7c-1.1-2.5-5-11.8-14.6-15.3
		c-10.8-4-20.1,2.6-21.7,3.8c-2.2,1.6-7.5,6.1-10,14.3c-0.4,1.2-2.2,7.7-0.3,15.6c2.8,12.2,12.4,19.1,12.8,18.7
		C1012.8,151.5,1006,145.1,1005.1,134.4z"/>
	<g id="Layer_5">
		<path class="st25" d="M1010.2,134.6c0,0,5.9,2.3,11.2,0.9c5.4-1.4,9.1-3.5,12.5-7.8c0,0-2,17.1-10.7,17.8
			C1014.5,146.2,1010.2,134.6,1010.2,134.6z"/>
		
			<ellipse transform="matrix(1.512428e-02 -0.9999 0.9999 1.512428e-02 873.5153 1139.1562)" class="st25" cx="1015" cy="126.2" rx="3" ry="1.8"/>
		<path class="st25" d="M1026.6,125.8c0.9,0,1.9,0.5,2.7,0.9c-0.1-2.1-1.3-4-2.6-4.1c-1.4-0.1-2.9,1.8-3.2,4.1
			C1024.4,126.3,1025.6,125.8,1026.6,125.8z"/>
	</g>
</g>
</svg>
