<?xml version="1.0" encoding="utf-8"?>
<!-- Generator: Adobe Illustrator 22.0.1, SVG Export Plug-In . SVG Version: 6.00 Build 0)  -->
<svg version="1.1" id="Layer_1" xmlns="http://www.w3.org/2000/svg" xmlns:xlink="http://www.w3.org/1999/xlink" x="0px" y="0px"
	 viewBox="0 0 1300 400" style="enable-background:new 0 0 1300 400;" xml:space="preserve">
<style type="text/css">
	.st0{fill:#1B75BC;stroke:#000000;stroke-width:1.6452;stroke-miterlimit:10;}
	.st1{fill:#E9E8E8;}
	.st2{fill:none;stroke:#E9E8E8;stroke-width:1.0228;stroke-miterlimit:10;}
	.st3{fill:#919191;}
	.st4{fill:#B7B7B8;}
	.st5{fill:#4BA5DC;}
	.st6{fill:#564B9F;}
	.st7{fill:#191919;}
	.st8{fill:#2B2C2B;}
	.st9{fill:#171717;}
	.st10{fill:#FFFFFF;stroke:#171717;stroke-width:0.6818;stroke-miterlimit:10;}
	.st11{opacity:0.23;fill:#6D6C6D;enable-background:new    ;}
	.st12{opacity:0.24;fill:#6D6C6D;enable-background:new    ;}
	.st13{fill:#FFFFFF;}
	.st14{opacity:0.19;fill:#6D6C6D;enable-background:new    ;}
	.st15{opacity:0.29;fill:#6D6C6D;enable-background:new    ;}
	.st16{opacity:0.26;fill:#6D6C6D;enable-background:new    ;}
	.st17{opacity:0.34;fill:#6D6C6D;enable-background:new    ;}
	.st18{opacity:0.47;fill:#6D6C6D;enable-background:new    ;}
	.st19{fill:#171717;stroke:#171717;stroke-width:0.6818;stroke-miterlimit:10;}
	.st20{opacity:0.18;fill:#6D6C6D;enable-background:new    ;}
	.st21{opacity:0.28;fill:#6D6C6D;enable-background:new    ;}
	.st22{opacity:0.33;fill:#6D6C6D;enable-background:new    ;}
	.st23{opacity:0.38;fill:#6D6C6D;enable-background:new    ;}
	.st24{opacity:0.25;fill:#6D6C6D;enable-background:new    ;}
	.st25{fill:#72CAED;}
</style>
<rect class="st0" width="1300" height="400"/>
<g id="background_n3">
	<g>
		<g>
			<path class="st1" d="M820.9,314.6c-0.5,3.6-2,6.9-4.5,9.6c-0.4,0.5,0.3,1.2,0.7,0.7c2.6-2.8,4.3-6.2,4.8-10.1
				C822,314.3,821,314,820.9,314.6L820.9,314.6z"/>
		</g>
	</g>
	<g>
		<g>
			<path class="st1" d="M821.1,315.2c1.3,3,3,5.6,5.1,8.1c0.4,0.5,1.1-0.2,0.7-0.7c-2.1-2.4-3.7-5-4.9-7.9
				C821.7,314.1,820.8,314.6,821.1,315.2L821.1,315.2z"/>
		</g>
	</g>
	<g>
		<g>
			<path class="st1" d="M817.4,324.7c0-0.1-0.1-0.2-0.1-0.2c-0.3,0.2-0.5,0.4-0.8,0.6c2.2,1.9,4,4.2,5.2,6.9
				c0.3,0.6,1.1,0.1,0.9-0.5c-1.3-2.7-3.1-5.1-5.4-7.1c-0.4-0.4-1.1,0.1-0.8,0.6c0,0.1,0.1,0.2,0.1,0.2
				C816.8,325.8,817.7,325.3,817.4,324.7L817.4,324.7z"/>
		</g>
	</g>
	<g>
		<g>
			<path class="st1" d="M822.7,331.7c1.1-2.8,2.5-5.5,4.1-8c0.3-0.6-0.5-1.1-0.9-0.5c-1.7,2.6-3,5.4-4.2,8.3
				C821.4,332,822.4,332.3,822.7,331.7L822.7,331.7z"/>
		</g>
	</g>
	<g>
		<g>
			<path class="st1" d="M706.1,200.5c-1.2,3.4-2.4,6.9-4.7,9.7c-0.4,0.5,0.3,1.2,0.7,0.7c2.4-3,3.7-6.6,5-10.2
				C707.3,200.2,706.3,199.9,706.1,200.5L706.1,200.5z"/>
		</g>
	</g>
	<g>
		<g>
			<path class="st1" d="M706.1,200.8c0.7,1.7,1,3.6,1.6,5.4c0.5,1.6,1.2,3.2,1.9,4.7c0.3,0.6,1.1,0.1,0.9-0.5
				c-0.9-1.9-1.6-3.8-2.2-5.7c-0.4-1.5-0.7-3.1-1.3-4.5C706.7,199.7,705.8,200.2,706.1,200.8L706.1,200.8z"/>
		</g>
	</g>
	<g>
		<g>
			<path class="st1" d="M701.6,210.9c1,0.4,1.7,2.4,2.1,3.3c0.6,1.3,1,2.7,1.4,4.2c0.2,0.7,1.1,0.4,1-0.3c-0.4-1.8-1-3.5-1.8-5.1
				c-0.5-1.1-1.1-2.5-2.3-3.1C701.3,209.7,701,210.7,701.6,210.9L701.6,210.9z"/>
		</g>
	</g>
	<g>
		<g>
			<path class="st1" d="M706,218.6c1.2-2.7,2.6-5.2,4.1-7.6c0.4-0.6-0.5-1.1-0.9-0.5c-1.6,2.4-2.9,5-4.1,7.6
				C704.9,218.7,705.8,219.2,706,218.6L706,218.6z"/>
		</g>
	</g>
	<g>
		<g>
			<path class="st1" d="M748.1,141.9c-0.8,2.8-2.1,5.3-4,7.5c-0.4,0.5,0.3,1.2,0.7,0.7c2-2.3,3.4-5,4.2-8
				C749.3,141.5,748.3,141.3,748.1,141.9L748.1,141.9z"/>
		</g>
	</g>
	<g>
		<g>
			<path class="st1" d="M748.1,142.4c0.6,2.6,1.2,5.6,2.9,7.7c0.4,0.5,1.1-0.2,0.7-0.7c-1.6-1.9-2.1-4.9-2.6-7.2
				C748.9,141.5,747.9,141.7,748.1,142.4L748.1,142.4z"/>
		</g>
	</g>
	<g>
		<g>
			<path class="st1" d="M743.9,150.4c0.9,0.5,1.7,2.6,2.1,3.5c0.6,1.3,1.1,2.7,1.5,4c0.2,0.7,1.1,0.4,1-0.3c-0.5-1.7-1-3.2-1.8-4.8
				c-0.5-1.1-1.1-2.8-2.2-3.4C743.9,149.2,743.4,150.1,743.9,150.4L743.9,150.4z"/>
		</g>
	</g>
	<g>
		<g>
			<path class="st1" d="M748.5,157.7c0.8-2.6,1.9-5.1,3.1-7.6c0.3-0.6-0.6-1.1-0.9-0.5c-1.3,2.5-2.4,5.1-3.2,7.8
				C747.3,158.1,748.3,158.4,748.5,157.7L748.5,157.7z"/>
		</g>
	</g>
	<g>
		<g>
			<path class="st1" d="M960.5,239.2c-0.7,1.9-1.6,3.9-3.2,5.2c-0.5,0.4,0.2,1.1,0.7,0.7c1.8-1.4,2.7-3.5,3.4-5.6
				C961.7,238.9,960.7,238.6,960.5,239.2L960.5,239.2z"/>
		</g>
	</g>
	<g>
		<g>
			<path class="st1" d="M960.9,239.8c0.5,1.8,1.3,3.4,2.4,4.8c0.4,0.5,1.3,0,0.9-0.5c-1-1.4-1.8-2.9-2.3-4.6
				C961.6,238.8,960.7,239.1,960.9,239.8L960.9,239.8z"/>
		</g>
	</g>
	<g>
		<g>
			<path class="st1" d="M957.5,245.3c1.1,1.4,1.9,3,2.4,4.7c0.2,0.7,1.1,0.4,1-0.3c-0.5-1.9-1.4-3.6-2.6-5.2
				C957.8,244,957.1,244.7,957.5,245.3L957.5,245.3z"/>
		</g>
	</g>
	<g>
		<g>
			<path class="st1" d="M960.8,250.3c0.9-2.1,2-4.1,3.4-5.9c0.4-0.5-0.5-1-0.9-0.5c-1.4,1.8-2.5,3.8-3.4,5.9
				C959.7,250.4,960.5,250.9,960.8,250.3L960.8,250.3z"/>
		</g>
	</g>
	<g>
		<g>
			<path class="st1" d="M1021.8,319.2c-0.7,2-1.7,3.9-3.1,5.5c-0.4,0.5,0.3,1.2,0.7,0.7c1.5-1.8,2.6-3.8,3.4-6
				C1022.9,318.8,1022,318.6,1021.8,319.2L1021.8,319.2z"/>
		</g>
	</g>
	<g>
		<g>
			<path class="st1" d="M1021.7,320.1c0.5,0.9,0.6,2,1,2.9c0.4,0.9,0.8,1.7,1.4,2.5c0.4,0.5,1.2,0,0.9-0.5c-0.6-0.9-1.1-1.8-1.5-2.8
				c-0.3-0.9-0.4-1.8-0.9-2.6C1022.3,319,1021.4,319.5,1021.7,320.1L1021.7,320.1z"/>
		</g>
	</g>
	<g>
		<g>
			<path class="st1" d="M1018.7,325.1c0.8,1.3,1.5,2.7,1.9,4.2c0.1,0.4,0.7,0.6,0.9,0.1c0.7-1.4,1.7-2.7,3-3.6
				c0.5-0.4,0-1.3-0.5-0.9c-1.5,1.1-2.6,2.4-3.4,4c0.3,0,0.6,0.1,0.9,0.1c-0.5-1.6-1.1-3.1-2-4.4
				C1019.2,324.1,1018.3,324.6,1018.7,325.1L1018.7,325.1z"/>
		</g>
	</g>
	<polygon class="st2" points="1032.3,180.3 1028.8,179 1025.7,181.1 1025.9,177.3 1023,174.9 1026.6,174 1027.9,170.4 1029.9,173.6 
		1033.6,173.8 1031.3,176.7 	"/>
	<g>
		<g>
			<path class="st1" d="M1026.3,168.4c5.1-8.8,11.4-16.9,18.8-24c0.5-0.4-0.2-1.2-0.7-0.7c-7.4,7.1-13.8,15.2-18.9,24.2
				C1025.1,168.5,1026,169,1026.3,168.4L1026.3,168.4z"/>
		</g>
	</g>
	<g>
		<g>
			<path class="st1" d="M1033.6,166.7c8.2-12.6,18.6-23.5,30.6-32.4c0.5-0.4,0-1.3-0.5-0.9c-12.1,9-22.6,20.1-30.9,32.8
				C1032.4,166.7,1033.3,167.2,1033.6,166.7L1033.6,166.7z"/>
		</g>
	</g>
	<g>
		<g>
			<path class="st1" d="M1035.5,176.6c4-5,8.2-9.8,12.7-14.4c0.5-0.5-0.3-1.2-0.7-0.7c-4.5,4.6-8.7,9.4-12.7,14.4
				C1034.4,176.4,1035.1,177.1,1035.5,176.6L1035.5,176.6z"/>
		</g>
	</g>
	<g>
		<g>
			<path class="st1" d="M919.8,114.7c-2.7-5.6,3.1-10.9,8.1-11.8c6.2-1.1,12.7,1.1,18.9,1.6c11.8,1,23.9-0.4,35.2-4.1
				c5.7-1.9,11.2-4.3,16.4-7.2c5.6-3.1,11-6.7,16.6-9.7c5.6-3.1,11.7-5.7,18-6.8c6.3-1.1,12.5-0.2,18.4,2.2
				c5.5,2.3,11.1,5.7,15.4,10c4.4,4.4,5.8,10.3,3.3,16.1c-5.1,11.6-19.7,13.4-30.6,13.8c-11.8,0.5-23.9-0.7-35.4,2.6
				c-11.7,3.4-20.3,12.1-30.4,18.3c-10.3,6.4-22.3,10.7-34.5,9.9c-10.3-0.7-20.7-5.6-27.2-13.9c-1.6-2.1-2.9-4.3-3.9-6.7
				c-0.3-0.6-1.1-0.1-0.9,0.5c4.2,9.9,13.3,16.7,23.2,19.6c11.5,3.4,23.8,1.2,34.5-3.6c6-2.7,11.5-6.2,16.8-10.1
				c5.2-3.8,10.3-7.8,16.1-10.5c12.2-5.9,26.1-4.6,39.2-5c10.9-0.3,24.9-1.2,32-11.1c2.9-4.1,4.4-9.6,2.6-14.6
				c-2-5.4-7-8.9-11.5-11.9c-5.2-3.4-11-6.1-17.1-7c-6.4-0.9-12.8,0.3-18.8,2.6c-12.8,4.8-23.4,13.8-36,19
				c-12.1,5-25.3,7.3-38.4,6.6c-3.5-0.2-7.1-0.6-10.6-1.2c-3.1-0.5-6.2-1.1-9.3-0.9c-4.9,0.3-9.6,2.8-11.3,7.7c-0.7,2-0.6,4,0.3,5.9
				C919.2,115.8,920.1,115.3,919.8,114.7L919.8,114.7z"/>
		</g>
	</g>
	<g>
		<g>
			<path class="st1" d="M934.6,110.6c17.5,2.3,35.4,0.5,52-5.3c16.1-5.6,30.7-16.9,48-18.4c8.6-0.8,17.6,1,24.3,6.9
				c0.5,0.4,1.2-0.3,0.7-0.7c-12-10.7-29.4-8.1-43.1-2.4c-8.3,3.4-16.2,8-24.5,11.4c-8.5,3.5-17.4,6-26.5,7.3
				c-10.3,1.5-20.7,1.5-31,0.2C934,109.5,934,110.5,934.6,110.6L934.6,110.6z"/>
		</g>
	</g>
	<g>
		<g>
			<path class="st1" d="M961.2,130.5c6.8-0.6,12.8-3.8,18.6-7.2c6.3-3.8,12.5-7.6,19.7-9.3c15.5-3.7,31.6,0.4,47.2-2.9
				c6.9-1.5,15.3-5.8,14.6-14.3c-0.1-0.7-1.1-0.7-1,0c0.7,8.7-8.5,12.3-15.3,13.6c-7.5,1.3-15.2,1.1-22.7,1
				c-7.3-0.1-14.7-0.2-21.9,1.3c-6.7,1.4-12.5,4.5-18.3,8c-6.5,3.9-13.2,8.1-20.9,8.7C960.6,129.5,960.6,130.5,961.2,130.5
				L961.2,130.5z"/>
		</g>
	</g>
	<g>
		<g>
			<path class="st1" d="M987.7,138.3c7.8-5.6,16.1-10.7,25.5-13.1c10.1-2.6,20.7-1.8,31-0.9c0.6,0.1,0.6-1,0-1
				c-10.4-0.9-21-1.7-31.2,1c-9.4,2.4-17.8,7.6-25.7,13.2C986.7,137.8,987.2,138.7,987.7,138.3L987.7,138.3z"/>
		</g>
	</g>
	<g>
		<g>
			<path class="st1" d="M774.9,119.1c-2-1.3-3.7-3.2-4.3-5.7c-0.5-2.3,0.2-5,2.2-6.4c2-1.4,4.7-0.8,7-1c1.9-0.1,3.7-0.6,5.4-1.4
				c7.7-3.3,12.4-10.8,18.1-16.5c2.9-2.9,6.4-5.7,10.5-6.6c3.8-0.9,8.8,0.1,9.8,4.6c1.1,5.3-3.7,9.2-7.4,11.7
				c-4.3,2.9-8.6,5.8-12.9,8.7c-4.7,3.2-9.3,6.5-14,9.5c-4.5,2.8-10.1,5-15,2c-0.6-0.3-1.1,0.6-0.5,0.9c4.1,2.4,8.9,1.7,13-0.3
				c5.3-2.5,10.1-6.4,14.9-9.7c5-3.4,10.1-6.8,15.1-10.2c3.7-2.5,7.6-5.6,8-10.5c0.4-4.1-2.3-7.2-6.2-7.8c-4.2-0.8-8.2,1-11.6,3.4
				c-8.2,5.9-13,16.3-22.6,20.2c-1.5,0.6-3,1-4.5,1.1c-1.5,0.1-3-0.1-4.5,0.1c-2.2,0.2-4.1,1.3-5.1,3.4c-2.3,4.4,0.4,9.1,4.2,11.5
				C774.9,120.3,775.4,119.4,774.9,119.1L774.9,119.1z"/>
		</g>
	</g>
	<g>
		<g>
			<path class="st1" d="M803.9,77.1c-0.6-4.5,4.9-5.8,7.9-7.3c1.6-0.8,2.9-1.8,4.4-2.7c0.7-0.5,1.4-1,2.2-1.4c0.9-0.5,2-1.2,2.7-0.3
				c0.5,0.7,0.3,0.9,0,1.6c-0.2,0.3-0.3,0.7-0.5,1.1c-0.5,0.9-1,1.7-1.7,2.4c-1.4,1.5-3.4,1.7-5.2,2.4c-1.4,0.6-2.7,1.2-4,2
				c-1.6,1-3.6,3.3-5.6,2.2c-0.6-0.3-1.1,0.6-0.5,0.9c1.8,1,3.5,0.1,5-1c2.4-1.7,4.8-3,7.6-3.8c2.2-0.7,3.6-1.8,4.8-3.8
				c0.7-1.1,2.3-3.5,1.3-4.9c-0.9-1.2-2.8-0.6-3.9,0c-2.4,1.2-4.4,3-6.8,4.2c-3.6,1.8-9.4,3.2-8.6,8.6C803,78,804,77.7,803.9,77.1
				L803.9,77.1z"/>
		</g>
	</g>
	<g>
		<g>
			<path class="st1" d="M776.6,112.8c-1-0.2-0.9-1.1-0.7-1.7c0.3-0.8,0.9-1,1.7-1.3c0.8-0.2,1.7-0.3,2.6-0.4
				c1.9-0.3,3.7-0.8,5.5-1.5c3.4-1.4,6.4-3.4,9.3-5.7c3.2-2.6,6.1-5.5,9.1-8.4c2.9-2.8,6.2-6.4,10.6-6.2c-0.2-0.2-0.3-0.3-0.5-0.5
				c0.4,4-3.3,6.7-6.1,8.8c-3.4,2.5-6.9,5-10.3,7.5c-3.2,2.3-6.3,4.7-9.6,6.9c-1.6,1.1-3.3,2.1-5.1,2.8c-1.8,0.7-4.5,1.7-5.9,0
				c-0.4-0.5-1.1,0.2-0.7,0.7c2.3,2.7,6.9,0.5,9.4-0.8c4.3-2.2,8.1-5.4,12-8.3c4.1-3,8.2-5.8,12.2-8.9c2.7-2.1,5.6-4.9,5.3-8.7
				c0-0.3-0.2-0.5-0.5-0.5c-4.6-0.1-8,3.4-11.1,6.3c-3.9,3.7-7.6,7.6-12,10.7c-2.1,1.4-4.3,2.7-6.7,3.6c-2.3,0.9-4.6,1.2-7,1.7
				c-1.4,0.3-2.8,0.9-3.1,2.5c-0.2,1.2,0.3,2.4,1.6,2.6C777,113.9,777.3,112.9,776.6,112.8L776.6,112.8z"/>
		</g>
	</g>
	<g>
		<g>
			<path class="st1" d="M748.3,169.5c-1,1.7-0.5,4,1,5.3c2.3,1.9,4.8-0.1,6.7-1.5c1.6-1.1,4-1.9,5.1,0.3c0.5,1,0.7,2.2,1.1,3.3
				c0.3,0.8,0.8,1.5,1.6,1.8c1.6,0.7,3.1-0.5,4.7-0.3c0.6,0.1,0.9-0.9,0.3-1c-1.1-0.2-2.1,0.2-3.2,0.4c-1.9,0.2-2.4-1-2.9-2.5
				c-0.5-1.5-0.9-3.3-2.5-4c-2-0.9-4,0.6-5.6,1.7c-1.3,0.9-3,2.1-4.6,1.1c-1.3-0.9-1.8-2.7-0.9-4.1
				C749.5,169.4,748.6,168.9,748.3,169.5L748.3,169.5z"/>
		</g>
	</g>
	<g>
		<g>
			<path class="st1" d="M767.7,167.4c-0.7,1.8,0.6,3.3,2.2,4c1.4,0.6,8.8,0.9,8.4,3.3c-0.1,0.7,0.8,0.9,1,0.3
				c1-5.3-12.5-2.2-10.7-7.2C769,167.1,768,166.8,767.7,167.4L767.7,167.4z"/>
		</g>
	</g>
	<g>
		<g>
			<path class="st1" d="M784.7,302.3c0.6,1,1.7,0.7,2.2-0.3c1.1-2.2,1-4.9,3.4-6.3c2.5-1.5,4.2,1,6.6,1.2c1.9,0.2,3.7-0.8,4.9-2.1
				c1.5-1.6,2.3-3.8,3.4-5.7c0.6-1.1,1.4-1.7,2.6-0.8c0.4,0.3,0.7,0.7,1,1c0.5,0.4,1,0.8,1.6,1c2.9,1.3,6.5,0.1,8-2.7
				c0.3-0.6-0.5-1.1-0.9-0.5c-0.9,1.7-2.7,2.7-4.7,2.7c-2.2,0-3.1-1.3-4.8-2.5c-3.1-2.3-4.5,2.9-5.6,4.9c-1.3,2.2-3.6,4.5-6.4,3.5
				c-1.6-0.6-2.7-1.7-4.5-1.5c-1.5,0.2-2.7,1.1-3.5,2.3c-0.5,0.7-0.8,1.4-1.1,2.1c-0.2,0.5-0.4,1-0.5,1.6c-0.1,0.2-0.6,1.9-0.8,1.7
				C785.2,301.2,784.4,301.7,784.7,302.3L784.7,302.3z"/>
		</g>
	</g>
	<g>
		<g>
			<path class="st1" d="M806.3,298.2c0.5-3.9,5.9-1.1,8-0.9c1.9,0.2,3.5-0.4,4.4-2.2c0.6-1.2,0.8-2.7,2.3-3.2
				c1.2-0.4,2.7-0.1,3.9-0.3c2.3-0.3,4.5-1.2,6.4-2.6c0.5-0.4,0-1.3-0.5-0.9c-1.4,1-2.8,1.7-4.4,2.2c-1.6,0.4-3,0.4-4.6,0.5
				c-2.5,0.2-2.9,1.9-4,3.9c-1.9,3.6-6,0.4-8.9,0.5c-1.8,0.1-3.4,1.2-3.6,3.1C805.2,298.9,806.2,298.9,806.3,298.2L806.3,298.2z"/>
		</g>
	</g>
	<g>
		<g>
			<path class="st1" d="M825.8,219.8c-0.2,2-1.1,3.8-2.6,5.2c-0.5,0.4,0.2,1.2,0.7,0.7c1.7-1.5,2.7-3.6,2.9-5.9
				C826.8,219.1,825.8,219.1,825.8,219.8L825.8,219.8z"/>
		</g>
	</g>
	<g>
		<g>
			<path class="st1" d="M826.2,221.1c0.3,1.6,1.1,3.1,2.3,4.2c0.5,0.4,1.2-0.3,0.7-0.7c-1.1-1-1.8-2.2-2.1-3.7
				C827.1,220.1,826.1,220.4,826.2,221.1L826.2,221.1z"/>
		</g>
	</g>
	<g>
		<g>
			<path class="st1" d="M823,226.5c1.1,1.3,1.8,2.9,2.1,4.6c0.1,0.7,1.1,0.4,1-0.3c-0.4-1.9-1.2-3.6-2.4-5.1
				C823.3,225.3,822.6,226,823,226.5L823,226.5z"/>
		</g>
	</g>
	<g>
		<g>
			<path class="st1" d="M826.6,230.9c0.4-1.7,1.2-3.3,2.3-4.7c0.4-0.5-0.3-1.2-0.7-0.7c-1.2,1.5-2.1,3.2-2.5,5.1
				C825.5,231.3,826.5,231.6,826.6,230.9L826.6,230.9z"/>
		</g>
	</g>
	<g>
		<g>
			<path class="st1" d="M957.6,287.4c-0.3,2.1,1.5,3.7,3.5,3.9c3.5,0.2,5.7-3.7,9-4.3c2.5-0.4,3.4,1.5,4.7,3.2
				c0.8,0.9,1.8,1.6,2.9,2c2.3,0.7,4.9,0,6.6-1.8c0.4-0.5-0.3-1.2-0.7-0.7c-1.7,1.9-4.7,2.4-6.8,0.9c-1.9-1.2-2.4-3.9-4.8-4.6
				c-2.1-0.6-4.2,0.6-5.8,1.8c-1,0.8-2.1,1.7-3.3,2.1c-1.6,0.6-4.5,0.1-4.2-2.3C958.6,287,957.7,286.7,957.6,287.4L957.6,287.4z"/>
		</g>
	</g>
	<g>
		<g>
			<path class="st1" d="M969.6,297.7c2.5-1.3,5.3-1.4,7.9-0.3c1.9,0.8,3.2,2.3,5.4,2.2c1.9-0.1,3.6-1.1,5.3-2.1
				c2.1-1.1,6-2.6,7.1,0.7c0.2,0.6,1.2,0.3,1-0.3c-0.6-1.8-2.2-2.7-4-2.8c-2.8-0.1-5,2-7.4,3c-1.9,0.7-3.4,0.4-5.1-0.6
				c-1.1-0.7-2.2-1.3-3.5-1.6c-2.5-0.6-5-0.2-7.2,0.9C968.5,297.2,969,298,969.6,297.7L969.6,297.7z"/>
		</g>
	</g>
	<g>
		<g>
			<path class="st1" d="M930.1,358.2c0.2,3.1-0.9,6-3,8.3c0.3,0.2,0.5,0.4,0.8,0.6c0.9-1.3,1.6-2.8,2.1-4.3c0.2-0.6-0.8-0.9-1-0.3
				c-0.5,1.5-1.1,2.8-2,4.1c-0.3,0.5,0.4,1,0.8,0.6c2.3-2.5,3.4-5.6,3.3-9C931.1,357.5,930,357.5,930.1,358.2L930.1,358.2z"/>
		</g>
	</g>
	<g>
		<g>
			<path class="st1" d="M930.1,358.3c0.6,2.9,1.9,5.4,3.9,7.5c0.4,0.5,1.2-0.2,0.7-0.7c-1.9-2-3.1-4.4-3.6-7.1
				C931,357.4,930,357.6,930.1,358.3L930.1,358.3z"/>
		</g>
	</g>
	<g>
		<g>
			<path class="st1" d="M926.9,368c1.8,2,3.2,4.1,4.4,6.6c0.3,0.6,1.1,0.1,0.9-0.5c-1.1-2.5-2.6-4.8-4.5-6.8
				C927.2,366.8,926.5,367.5,926.9,368L926.9,368z"/>
		</g>
	</g>
	<g>
		<g>
			<path class="st1" d="M932.1,374.6c1.1-2.6,2.2-5.2,3.3-7.8c0.3-0.6-0.6-1.1-0.9-0.5c-1.1,2.6-2.2,5.2-3.3,7.8
				C931,374.7,931.8,375.2,932.1,374.6L932.1,374.6z"/>
		</g>
	</g>
	<g>
		<g>
			<path class="st1" d="M843.7,368.1c4.6,4.6,10.1,8,16.2,10.1c0.6,0.2,0.9-0.8,0.3-1c-5.9-2-11.3-5.3-15.7-9.8
				C844,366.9,843.3,367.7,843.7,368.1L843.7,368.1z"/>
		</g>
	</g>
	<g>
		<g>
			<path class="st1" d="M854.8,370.4c5.3,3,11.2,4.7,17.3,5.2c0.6,0,0.6-1,0-1c-5.9-0.4-11.6-2.1-16.7-5.1
				C854.8,369.2,854.3,370.1,854.8,370.4L854.8,370.4z"/>
		</g>
	</g>
	<g>
		<g>
			<path class="st1" d="M984,229.6c1,6.8,2.9,13.4,5.8,19.5c0.3,0.6,1.1,0.1,0.9-0.5c-2.8-6.1-4.8-12.6-5.7-19.3
				C984.8,228.7,983.9,229,984,229.6L984,229.6z"/>
		</g>
	</g>
	<g>
		<g>
			<path class="st1" d="M1006.3,210.6c1.2,6.5,3.1,12.9,5.5,19.1c0.2,0.6,1.2,0.3,1-0.3c-2.4-6.2-4.3-12.6-5.5-19.1
				C1007.1,209.7,1006.2,209.9,1006.3,210.6L1006.3,210.6z"/>
		</g>
	</g>
	<g>
		<g>
			<path class="st1" d="M1013.1,226.3c2.4,6.4,5.5,12.4,9.5,17.9c0.4,0.5,1.2,0,0.9-0.5c-3.9-5.4-7.1-11.3-9.4-17.6
				C1013.8,225.4,1012.8,225.7,1013.1,226.3L1013.1,226.3z"/>
		</g>
	</g>
	<g>
		<g>
			<path class="st1" d="M861.1,159.8c1-5.5,3.4-10.5,7-14.7c0.4-0.5-0.3-1.2-0.7-0.7c-3.7,4.3-6.2,9.5-7.2,15.1
				C860,160.2,861,160.5,861.1,159.8L861.1,159.8z"/>
		</g>
	</g>
	<g>
		<g>
			<path class="st1" d="M857.1,159.9c0.4-2.8,1.5-5.3,3.3-7.5c0.4-0.5-0.3-1.2-0.7-0.7c-1.9,2.3-3.2,5-3.6,8
				C856,160.3,857,160.6,857.1,159.9L857.1,159.9z"/>
		</g>
	</g>
	<g>
		<g>
			<path class="st1" d="M929.2,57.6c3.6,4.1,6.1,9,7.4,14.4c0.2,0.7,1.1,0.4,1-0.3c-1.3-5.5-3.9-10.5-7.6-14.8
				C929.5,56.4,928.7,57.1,929.2,57.6L929.2,57.6z"/>
		</g>
	</g>
	<g>
		<g>
			<path class="st1" d="M937.8,62c2,4.5,3.2,9.3,3.6,14.2c0.1,0.7,1.1,0.7,1,0c-0.4-5.1-1.7-10.1-3.7-14.8
				C938.4,60.9,937.6,61.4,937.8,62L937.8,62z"/>
		</g>
	</g>
</g>
<g id="background_n2">
	<ellipse class="st3" cx="1032.7" cy="89.2" rx="17.9" ry="17.9"/>
	<ellipse class="st4" cx="1024.5" cy="145.7" rx="9.7" ry="10.1"/>
	<ellipse class="st5" cx="732.1" cy="111.1" rx="21" ry="21"/>
	<g>
		<g>
			<path class="st6" d="M732.3,163.7c0.6,0,0.6-1,0-1S731.6,163.7,732.3,163.7L732.3,163.7z"/>
		</g>
	</g>
	<g>
		<g>
			<path class="st7" d="M731.9,165.2c2.6,0,2.6-4.1,0-4.1S729.3,165.2,731.9,165.2L731.9,165.2z"/>
		</g>
	</g>
	<g>
		<g>
			<path class="st7" d="M987.1,101.4c2.6,0,2.6-4.1,0-4.1C984.5,97.2,984.5,101.4,987.1,101.4L987.1,101.4z"/>
		</g>
	</g>
	<g>
		<g>
			<path class="st7" d="M978.9,237.4c2.6,0,2.6-4.1,0-4.1S976.3,237.4,978.9,237.4L978.9,237.4z"/>
		</g>
	</g>
	<g>
		<g>
			<path class="st7" d="M689.2,240.4c-2.2,2.1-0.4,5.5,2.3,5.8c0.8,0.1,1.7-0.1,2.5-0.3c0.3-0.1,0.7-0.3,1-0.2c0,0-0.1-0.3,0,0.2
				c0.2,1.3-0.3,2.4,0.4,3.7c0.6,1.1,1.9,1.7,3.1,1.7c0.6,0,1.2-0.2,1.9-0.4c0.1,0,0.7-0.1,0.7-0.2c0.4-0.1,0.3-0.1-0.3-0.3
				c0,0.1,0.1,0.3,0.1,0.4c-0.1,1.2,1.2,2.5,2.2,3c1.5,0.7,2.8,0.2,3.6-1.1c1.5-2.2-2-4.2-3.5-2.1c1.4,0.2,1.9-0.1,1.6-0.9
				c0-0.1-0.1-0.3-0.1-0.4c-0.1-0.4-0.3-0.9-0.5-1.2c-0.5-0.8-1.3-1.3-2.2-1.5s-1.7,0-2.5,0.3c0,0-1.1,0.3-1.1,0.3
				c0.4,0.5,0.6,0.6,0.6,0.3c0-0.2,0-0.3,0-0.5c0.4-1.7-0.2-3.8-1.7-4.7c-0.8-0.5-1.7-0.7-2.6-0.6c-0.5,0-1,0.1-1.5,0.2
				c-0.3,0.1-0.5,0.1-0.8,0.2c-0.3,0.3-0.3,0.8-0.3,1.2C694,241.5,691.1,238.6,689.2,240.4L689.2,240.4z"/>
		</g>
	</g>
	<g>
		<g>
			<path class="st7" d="M699.5,240.2c0.2,1.2,0.4,2.4,0.6,3.5c0.2,0.9,1.1,1.5,2,1.5c1.2,0,2.7-0.5,3.6-1.4c0.2-0.1,0.3-0.2,0.5-0.2
				c-0.5-0.7-0.7-0.7-0.6,0c-0.1,0.4,0,1.2,0.1,1.6c0.7,3.2,4.1,2.3,6.1,4c2,1.7,4.9-1.2,2.9-2.9c-1.2-1-2.6-1.9-4.2-2.2
				c0.1,0-1.6-0.2-0.9,0.1c0.1,0.3,0.1,0.3,0.1,0.1c0-0.2,0-0.4,0-0.6c0-0.7-0.1-1.4-0.3-2c-0.6-1.3-1.9-2.1-3.3-2
				c-0.7,0-1.4,0.2-2,0.6c-0.6,0.3-1.2,1-1.9,1c0.6,0.5,1.3,1,2,1.5c-0.2-1.2-0.4-2.4-0.6-3.5C702.9,236.5,699,237.6,699.5,240.2
				L699.5,240.2z"/>
		</g>
	</g>
	<g>
		<g>
			<path class="st8" d="M815.7,98.7c0.6-0.8,1.3-1,2-0.3c0.4,0.5,0.6,1.1,0.6,1.7c0,0.6-0.2,1.2-0.3,1.8c0,0.6,0,1.1,0.5,1.4
				c0.9,0.7,2.2-0.2,2.8-1c0.3-0.4,0.5-1.1,0.9-1.3c1.5-1,1.4,0.4,1.7,1.1c0.2,0.5,0.5,0.9,0.9,1.1c1.7,0.8,3-0.8,3.8-2.1
				c0.3-0.6-0.5-1.1-0.9-0.5c-0.5,0.8-1.8,2.9-3,1c-0.2-0.3-0.2-0.9-0.4-1.2c-0.3-0.5-0.6-0.9-1.2-1c-0.7-0.1-1.2,0.4-1.7,0.9
				c-0.6,0.7-2.2,3.8-2.3,1.1c0-1.6,0.3-3.4-1.5-4.2c-1.2-0.6-2.6,0-3,1.3C814.5,99.1,815.5,99.4,815.7,98.7L815.7,98.7z"/>
		</g>
	</g>
	<g>
		<g>
			<path class="st8" d="M816.1,94.3c1-1,2.9-0.8,3.6,0.5c0.5,0.8,0.1,1.8,0.6,2.5c0.3,0.4,0.7,0.6,1.2,0.5c0.3-0.1,0.5-0.2,0.8-0.4
				c1.1-0.7,2-1,3,0.1c0.4,0.5,1.1-0.2,0.7-0.7c-0.8-0.9-2-1.3-3.1-1c-0.6,0.2-1.5,1.1-1.9,0.4c-0.2-0.4-0.1-1.1-0.3-1.6
				c-0.9-2.1-3.8-2.5-5.4-1C814.9,94.1,815.6,94.8,816.1,94.3L816.1,94.3z"/>
		</g>
	</g>
	<g>
		<g>
			<path class="st8" d="M948,246.4c0.3,1.2,0.8,6.2,3.1,5.3c0.9-0.4,1.4-2.5,2.2-2.4c0.6,0.1,0.4,0.3,0.6,0.9
				c0.1,0.5,0.3,0.9,0.5,1.4c0.3,0.8,0.7,1.4,1.2,2.1c0.2,0.3,0.7,0.4,0.9,0c0.9-1.9,3.2-1.5,3.6,0.4c0.1,0.7,1.1,0.4,1-0.3
				c-0.6-2.9-4.3-3.4-5.5-0.7c0.3,0,0.6,0,0.9,0c-0.5-0.8-1-1.5-1.4-2.4c-0.2-0.7-0.2-1.7-0.6-2.3c-0.3-0.6-0.9-0.7-1.5-0.5
				c-0.9,0.3-1,1.1-1.6,1.8c-0.2,0.3-0.9,1-1.3,0.7c-0.2-0.1-0.4-1.2-0.5-1.5c-0.2-0.9-0.5-1.9-0.7-2.8
				C948.8,245.5,947.9,245.8,948,246.4L948,246.4z"/>
		</g>
	</g>
	<g>
		<g>
			<path class="st8" d="M956.9,248.2c0.7-1.7,2.6-1,3.2,0.3c0.2,0.6,0.4,1.2,0.9,1.5c1.5,1.1,3-1.4,4,1.1c0.8,2.2,3.4,3.2,5,1
				c0.4-0.6-0.5-1.1-0.9-0.5c-0.4,0.6-1.2,0.9-2,0.7c-0.9-0.3-1-1.1-1.3-1.8c-0.2-0.5-0.4-1.1-0.8-1.4c-0.4-0.4-0.9-0.4-1.5-0.3
				c-0.3,0.1-0.6,0.3-0.9,0.4c-1.1,0.2-1.3-0.4-1.7-1.2c-1-2.2-4-2.2-5,0.1C955.7,248.6,956.6,248.8,956.9,248.2L956.9,248.2z"/>
		</g>
	</g>
	<g>
		<g>
			<path class="st8" d="M1057.2,129.9c-1.4-1.4-0.8-4.3,1.1-5c2.4-0.8,4.4,2.4,3.2,4.4c-0.3,0.6,0.5,1.1,0.9,0.5
				c1.5-2.7-0.9-6.8-4.2-6c-2.8,0.7-3.8,4.8-1.8,6.8C1056.9,131.1,1057.6,130.3,1057.2,129.9L1057.2,129.9z"/>
		</g>
	</g>
	<g>
		<g>
			<path class="st8" d="M792.8,336c-2-2.4-0.8-6.5,2.6-6.4c3,0.1,4,4.3,1.3,5.7c-0.6,0.3-0.1,1.2,0.5,0.9c3.4-1.9,2.3-7.2-1.6-7.6
				c-4.5-0.4-6.3,5-3.6,8.1C792.5,337.2,793.2,336.5,792.8,336L792.8,336z"/>
		</g>
	</g>
	<g>
		<g>
			<path class="st8" d="M788.3,288.2c-1.1-0.9-3.5-3.4-0.4-4.1c0.6-0.1,1.2,0.1,1.8-0.1c1.2-0.5,1.6-1.8,1.6-3.1
				c0-0.8-0.3-1.6-0.5-2.4c-0.2-0.9-0.6-2,0.7-2c0.2,0,0.5,0.1,0.7,0.1c1.2,0,2-0.8,2.4-1.9c0.2-0.6-0.7-0.9-1-0.3
				c-0.8,2.3-3.5-0.4-4,2.2c-0.4,2,2.2,6.2-1.2,6.4c-1.4,0.1-2.6,0-3,1.7c-0.4,1.8,0.9,3.1,2.2,4.1
				C788.1,289.3,788.9,288.6,788.3,288.2L788.3,288.2z"/>
		</g>
	</g>
	<g>
		<g>
			<path class="st8" d="M795.8,283.4c-0.5-0.9-1.4-2.4-1-3.4c0.4-1.1,2.3-1,3.2-1.8c1.2-1,1.6-2.5,1.2-4.1c-0.2-0.7-1.1-0.4-1,0.3
				c0.3,1,0.1,1.9-0.5,2.7c-0.6,0.7-1.4,0.7-2.2,1c-0.6,0.2-1.2,0.6-1.5,1.2c-0.7,1.5,0.1,3.4,0.9,4.7
				C795.3,284.4,796.2,283.9,795.8,283.4L795.8,283.4z"/>
		</g>
	</g>
	<g>
		<g>
			<path class="st9" d="M713.9,131.9c-0.9,0.7-2.7,2-3.9,1.1c-1.4-1,0.2-3.5,0.7-4.5c1.1-2.3,2.6-4.4,4.2-6.4c3.2-4,7-7.4,10.9-10.8
				c1-0.9-0.4-2.3-1.4-1.4c-5.3,4.6-10.6,9.5-14.3,15.6c-1.2,2.1-3.6,5.6-2.2,8.1c1.6,2.9,5,1.4,7.1,0
				C716,132.9,715,131.1,713.9,131.9L713.9,131.9z"/>
		</g>
	</g>
	<g>
		<g>
			<path class="st9" d="M733.2,104.7c3-2.5,6.1-5,9.1-7.5c1-0.8-0.4-2.3-1.4-1.4c-3,2.5-6.1,5-9.1,7.5
				C730.7,104.1,732.2,105.5,733.2,104.7L733.2,104.7z"/>
		</g>
	</g>
	<g>
		<g>
			<path class="st9" d="M750.5,93.1c1.6-0.8,7.2-4.2,8.2-1.5c0.9,2.3-1.3,5.7-2.7,7.5c-0.8,1,0.6,2.5,1.4,1.4
				c2-2.5,4.7-7.2,2.8-10.5c-2.2-3.7-8.1-0.2-10.8,1.2C748.3,91.9,749.4,93.7,750.5,93.1L750.5,93.1z"/>
		</g>
	</g>
	<g>
		<g>
			<path class="st9" d="M722.1,122c4.6-5.3,9.7-10.2,15.3-14.4c1-0.8,0-2.6-1-1.8c-5.7,4.3-11,9.3-15.7,14.8
				C719.8,121.5,721.2,123,722.1,122L722.1,122z"/>
		</g>
	</g>
</g>
<g id="background">
	<g>
		<path class="st9" d="M753.1,111.1c0,0,0,0.1,0,0.4c0,0.3,0,0.7,0,1.2c-0.1,1.1-0.2,2.6-0.7,4.5c-0.5,1.9-1.3,4.2-2.8,6.6
			c-1.5,2.3-3.5,4.8-6.3,6.7c-1.4,1-3,1.8-4.7,2.5c-0.4,0.2-0.9,0.3-1.3,0.4c-0.4,0.1-0.9,0.3-1.4,0.4c-0.2,0.1-0.5,0.1-0.7,0.2
			c-0.2,0-0.5,0.1-0.7,0.1c-0.5,0.1-0.9,0.1-1.5,0.2c-0.5,0.1-1,0.1-1.5,0.1c-0.5,0-1,0-1.5,0c-0.2,0-0.5,0-0.7,0
			c-0.2,0-0.5,0-0.7-0.1c-0.5,0-1-0.1-1.5-0.2c-1-0.2-2-0.4-3-0.7c-1-0.3-2-0.7-2.9-1.1c-3.8-1.8-7.3-4.7-9.8-8.4
			c-2.5-3.7-4-8.2-4-12.8c0-1.1,0-2.3,0.2-3.4c0.2-1.1,0.4-2.3,0.7-3.4c0.3-1.1,0.7-2.2,1.2-3.2c0.5-1,1-2,1.6-3
			c2.5-3.8,6-6.8,9.9-8.5c3.9-1.8,8.2-2.3,12.1-1.9c2,0.2,3.8,0.7,5.5,1.4c1.7,0.7,3.3,1.5,4.7,2.5c2.8,2,4.9,4.4,6.3,6.8
			c1.5,2.3,2.3,4.7,2.8,6.6c0.5,1.9,0.7,3.5,0.7,4.5c0,0.5,0,0.9,0,1.2C753.1,111,753.1,111.1,753.1,111.1L753.1,111.1z M753,111.1
			c0,0,0-0.1,0-0.4c0-0.3,0-0.7-0.1-1.2c-0.1-1-0.2-2.6-0.8-4.5c-0.3-0.9-0.6-2-1.1-3c-0.5-1.1-1.1-2.2-1.9-3.3
			c-1.6-2.2-3.7-4.4-6.4-6.1c-1.4-0.9-2.9-1.6-4.5-2.2c-1.6-0.6-3.4-1-5.2-1.2c-0.5-0.1-0.9-0.1-1.4-0.1c-0.2,0-0.5,0-0.7,0h-0.4
			h-0.3c-0.2,0-0.5,0-0.7,0c-0.2,0-0.5,0-0.7,0c-0.5,0-0.9,0.1-1.4,0.2c-0.9,0.1-1.9,0.3-2.9,0.6c-0.5,0.1-0.9,0.3-1.4,0.4
			c-0.2,0.1-0.5,0.2-0.7,0.3c-0.2,0.1-0.5,0.2-0.7,0.3c-3.7,1.6-7.1,4.3-9.5,7.9c-0.6,0.9-1.1,1.8-1.6,2.8c-0.5,1-0.9,2-1.2,3
			c-0.3,1-0.6,2.1-0.8,3.2c-0.2,1.1-0.3,2.2-0.3,3.3c0,1.1,0,2.2,0.2,3.3c0.2,1.1,0.4,2.2,0.7,3.3c0.3,1.1,0.7,2.1,1.1,3.1
			c0.5,1,1,2,1.6,2.9c1.2,1.8,2.7,3.4,4.3,4.8s3.5,2.4,5.4,3.2c0.9,0.4,1.9,0.7,2.9,1c1,0.3,2,0.4,2.9,0.6c0.5,0,1,0.1,1.5,0.1
			c0.2,0,0.5,0,0.7,0s0.5,0,0.7,0c0.5,0,0.9,0,1.4,0c0.5,0,0.9-0.1,1.4-0.1c1.8-0.2,3.6-0.7,5.2-1.3s3.1-1.4,4.5-2.3
			c2.7-1.8,4.9-4,6.4-6.2c0.8-1.1,1.4-2.2,1.9-3.3s0.9-2.1,1.1-3c0.6-1.9,0.7-3.4,0.8-4.5c0.1-0.5,0-0.9,0.1-1.2
			C753,111.2,753,111.1,753,111.1L753,111.1z"/>
	</g>
	<g>
		<path class="st9" d="M1033,146.4c0,0,0,0.3,0,0.8c0,0.1,0,0.3,0,0.4c0,0.1,0,0.3-0.1,0.5c0,0.2,0,0.4-0.1,0.6
			c0,0.2-0.1,0.4-0.1,0.7c-0.2,0.9-0.6,2-1.2,3.2c-0.7,1.1-1.6,2.4-3,3.3c-1.4,1-3.1,1.7-5,1.9c-0.2,0-0.5,0-0.7,0h-0.4h-0.2h0h0h0
			h-0.1c-0.5,0-0.9-0.1-1.4-0.2c-1-0.2-1.9-0.5-2.9-1c-0.9-0.4-1.8-1.1-2.6-1.7c-0.8-0.7-1.5-1.5-2.1-2.4c-0.3-0.4-0.6-0.9-0.8-1.4
			c-0.1-0.2-0.2-0.5-0.3-0.7c-0.1-0.2-0.2-0.5-0.3-0.8c-0.3-1-0.5-2.1-0.6-3.2c0-0.6,0-1.1,0.1-1.7c0-0.6,0.2-1.1,0.3-1.7
			c0.3-1.1,0.7-2.1,1.4-3c0.6-0.9,1.3-1.8,2.1-2.5c0.8-0.7,1.7-1.3,2.7-1.7c0.9-0.4,2-0.8,3-0.9c0.5-0.1,1-0.1,1.5-0.1h0.1h0h0h0.1
			h0.2l0.3,0c0.2,0,0.4,0,0.7,0.1c0.2,0,0.5,0.1,0.7,0.1c0.1,0,0.2,0,0.4,0.1l0.3,0.1c0.2,0.1,0.4,0.1,0.7,0.2
			c0.2,0.1,0.4,0.2,0.6,0.2c0.8,0.3,1.6,0.8,2.3,1.3c1.4,1,2.3,2.2,3,3.4c0.7,1.2,1,2.3,1.2,3.2c0,0.2,0.1,0.4,0.1,0.7
			c0,0.2,0.1,0.4,0.1,0.6c0,0.2,0,0.3,0.1,0.5c0,0.1,0,0.3,0,0.4C1032.9,146.1,1033,146.4,1033,146.4L1033,146.4z M1032.8,146.4
			c0,0,0-0.3,0-0.8c0-0.1,0-0.3,0-0.4c0-0.1-0.1-0.3-0.1-0.5c0-0.2-0.1-0.4-0.1-0.6c-0.1-0.2-0.1-0.4-0.2-0.6c0-0.1-0.1-0.2-0.1-0.3
			c0-0.1-0.1-0.2-0.1-0.3c-0.1-0.2-0.2-0.5-0.3-0.7c-0.1-0.2-0.3-0.5-0.4-0.8c-0.2-0.2-0.3-0.5-0.5-0.8c-0.7-1-1.8-2-3.1-2.8
			c-0.6-0.4-1.4-0.7-2.1-1c-0.2-0.1-0.4-0.1-0.6-0.2c-0.2,0-0.4-0.1-0.6-0.1l-0.3-0.1c-0.1,0-0.2,0-0.3,0c-0.2,0-0.4-0.1-0.6-0.1
			c-0.2,0-0.4,0-0.7,0h-0.3h-0.2c0,0,0,0,0,0h0h0h-0.1c-0.4,0-0.9,0-1.3,0.1c-0.9,0.1-1.8,0.4-2.6,0.7c-0.8,0.3-1.7,0.9-2.4,1.4
			c-0.7,0.6-1.4,1.3-2,2.1c-0.5,0.8-1,1.7-1.4,2.7c-0.1,0.5-0.3,1-0.4,1.4c-0.1,0.5-0.1,1.1-0.2,1.5c0,1,0.1,2.1,0.3,3.1
			c0.3,1,0.7,2,1.3,2.8c0.3,0.4,0.6,0.8,0.9,1.2c0.2,0.2,0.3,0.4,0.5,0.6l0.6,0.5c0.8,0.6,1.7,1.1,2.5,1.4c0.9,0.3,1.8,0.6,2.7,0.6
			c0.4,0.1,0.9,0,1.4,0.1h0.1h0h0c0,0,0,0,0,0h0.2l0.3,0c0.2,0,0.4,0,0.6-0.1c1.7-0.2,3.2-0.8,4.5-1.6c1.3-0.8,2.3-1.8,3.1-2.8
			c0.2-0.3,0.4-0.5,0.5-0.8c0.1-0.3,0.3-0.5,0.4-0.8c0.1-0.2,0.2-0.5,0.3-0.7c0-0.1,0.1-0.2,0.1-0.3c0-0.1,0.1-0.2,0.1-0.3
			c0.1-0.2,0.1-0.4,0.2-0.6c0.1-0.2,0.1-0.4,0.1-0.6s0.1-0.3,0.1-0.5c0-0.1,0-0.3,0-0.4C1032.8,146.7,1032.8,146.4,1032.8,146.4
			L1032.8,146.4z"/>
	</g>
	<g>
		<path class="st9" d="M1053.3,89.2c0,0,0,0.4-0.1,1.3c0,0.2,0,0.4,0,0.7c0,0.2-0.1,0.6-0.1,0.8c-0.1,0.3-0.1,0.6-0.1,1
			c-0.1,0.3-0.2,0.7-0.3,1.1c-0.4,1.5-1,3.4-2.2,5.3c-0.3,0.5-0.6,0.9-0.9,1.4c-0.2,0.2-0.4,0.5-0.6,0.7c-0.2,0.2-0.4,0.5-0.6,0.7
			c-0.4,0.5-0.9,0.9-1.4,1.3c-0.5,0.4-1,0.9-1.6,1.2c-2.2,1.6-5.1,2.7-8.2,3.1c-0.4,0.1-0.8,0-1.2,0.1c-0.2,0-0.4,0-0.6,0h-0.3h-0.1
			h0h-0.1h-0.1c-0.8-0.1-1.6-0.1-2.4-0.3c-1.7-0.2-3.2-0.8-4.8-1.5c-0.4-0.2-0.7-0.4-1.1-0.6c-0.2-0.1-0.4-0.2-0.5-0.3l-0.5-0.3
			l-0.5-0.3c-0.2-0.1-0.3-0.3-0.5-0.4c-0.3-0.3-0.7-0.5-1-0.8c-1.3-1.2-2.5-2.5-3.5-4c-0.2-0.4-0.5-0.8-0.7-1.1l-0.2-0.3l-0.1-0.3
			l-0.3-0.6l-0.3-0.6c-0.1-0.2-0.2-0.4-0.2-0.6c-0.2-0.4-0.3-0.8-0.5-1.3l-0.4-1.3l-0.1-0.3l-0.1-0.3l-0.1-0.7
			c-0.1-0.4-0.2-0.9-0.2-1.3l-0.1-1.4l0-1.3c0-0.2,0-0.4,0-0.7l0.1-0.7l0.1-0.7l0-0.3l0.1-0.3l0.3-1.3c0.5-1.8,1.3-3.4,2.3-5
			c1-1.5,2.2-2.9,3.5-4c0.3-0.3,0.7-0.6,1-0.8c0.2-0.1,0.3-0.3,0.5-0.4l0.5-0.3l0.5-0.3c0.2-0.1,0.4-0.2,0.6-0.3
			c0.4-0.2,0.8-0.4,1.1-0.6c1.6-0.7,3.2-1.2,4.8-1.4c0.8-0.2,1.6-0.2,2.4-0.2h0.1h0.1h0c0,0,0.1,0,0.1,0h0.3c0.2,0,0.4,0,0.6,0
			c0.2,0,0.4,0,0.6,0c0.2,0,0.4,0,0.6,0.1c0.4,0.1,0.8,0.1,1.2,0.2c0.2,0,0.4,0.1,0.6,0.1c0.2,0,0.4,0.1,0.5,0.1
			c0.4,0.1,0.7,0.2,1.1,0.3c0.4,0.1,0.7,0.3,1,0.4c1.4,0.5,2.6,1.2,3.7,2c0.5,0.4,1.1,0.8,1.6,1.3c0.5,0.5,0.9,0.9,1.4,1.4
			c0.2,0.2,0.4,0.5,0.6,0.7s0.4,0.4,0.5,0.7c0.3,0.5,0.7,1,0.9,1.4c1.2,1.9,1.8,3.8,2.2,5.3c0.1,0.4,0.2,0.8,0.3,1.1
			c0.1,0.3,0.1,0.7,0.1,1c0,0.3,0.1,0.6,0.1,0.8c0,0.2,0,0.5,0,0.7C1053.2,88.7,1053.3,89.2,1053.3,89.2L1053.3,89.2z M1053.1,89.2
			c0,0,0-0.4-0.1-1.3c0-0.2,0-0.4-0.1-0.7c0-0.2-0.1-0.5-0.1-0.8c-0.1-0.3-0.1-0.6-0.2-1c-0.1-0.3-0.2-0.7-0.3-1.1
			c-0.1-0.2-0.1-0.4-0.2-0.6c-0.1-0.2-0.1-0.4-0.2-0.6c-0.1-0.2-0.2-0.4-0.2-0.6c-0.1-0.2-0.2-0.4-0.3-0.6c-0.2-0.4-0.4-0.9-0.7-1.3
			c-0.3-0.4-0.6-0.9-0.8-1.3c-1.2-1.7-3-3.5-5.1-4.8c-1.1-0.7-2.3-1.3-3.6-1.7c-0.3-0.1-0.6-0.2-1-0.3c-0.3-0.1-0.7-0.2-1-0.2
			c-0.2,0-0.3-0.1-0.5-0.1c-0.2,0-0.3-0.1-0.5-0.1c-0.3,0-0.7-0.1-1-0.1c-0.2,0-0.4,0-0.5,0c-0.2,0-0.4,0-0.6,0c-0.2,0-0.4,0-0.6,0
			h-0.3h-0.2c-0.7,0.1-1.5,0-2.3,0.2c-1.5,0.2-3,0.7-4.5,1.3c-0.4,0.2-0.7,0.3-1.1,0.5c-0.2,0.1-0.4,0.2-0.5,0.3l-0.5,0.3l-0.5,0.3
			c-0.2,0.1-0.3,0.2-0.5,0.3c-0.3,0.2-0.7,0.5-1,0.7c-1.3,1.1-2.4,2.3-3.4,3.7c-0.9,1.4-1.7,3-2.3,4.6c-0.5,1.7-0.8,3.3-0.9,5.2
			c0,1.7,0.2,3.5,0.6,5.2c0.5,1.7,1.2,3.3,2.2,4.7c0.2,0.3,0.5,0.7,0.8,1c0.2,0.3,0.5,0.7,0.8,1l0.4,0.5c0.1,0.1,0.1,0.2,0.2,0.2
			l0.2,0.2c0.3,0.3,0.6,0.6,0.9,0.9c0.3,0.3,0.7,0.5,1,0.8c0.2,0.1,0.3,0.2,0.5,0.3l0.5,0.3l0.5,0.3c0.2,0.1,0.3,0.2,0.5,0.3
			c0.4,0.2,0.7,0.3,1.1,0.5c0.2,0.1,0.4,0.2,0.6,0.2l0.6,0.2c0.4,0.1,0.7,0.3,1.1,0.3c0.4,0.1,0.8,0.2,1.1,0.3
			c0.4,0.1,0.8,0.1,1.1,0.2c0.7,0.1,1.6,0.1,2.3,0.1h0.1h0.1h0c0,0,0,0,0,0l0.3,0c0.2,0,0.4,0,0.6,0c0.4,0,0.7,0,1.1-0.1
			c2.9-0.4,5.5-1.4,7.7-2.8c2.2-1.4,3.9-3.1,5.1-4.9c0.3-0.4,0.6-0.9,0.8-1.3c0.2-0.4,0.4-0.9,0.7-1.3c0.1-0.2,0.2-0.4,0.3-0.6
			s0.2-0.4,0.2-0.6c0.1-0.2,0.2-0.4,0.2-0.6c0.1-0.2,0.1-0.4,0.2-0.6c0.1-0.4,0.2-0.7,0.3-1.1c0.1-0.3,0.1-0.7,0.2-1
			s0.1-0.6,0.1-0.8c0-0.2,0-0.5,0.1-0.7C1053.1,89.6,1053.1,89.2,1053.1,89.2L1053.1,89.2z"/>
	</g>
	<g>
		<g>
			<path class="st9" d="M799.3,152.8c-0.3-0.2-0.2-0.7-0.1-1c0.2-0.5,1-0.6,1.5-0.6c0.9,0,1.9,0.4,2.8,0.7c1.2,0.4,2.5,0.6,3.7,0.2
				c2.2-0.8,3.1-3.2,3.9-5.2c0.5-1.2,1.5-3.3,3.1-3.3c1.3,0.1,2.1,1.7,3.5,1.7c2.4,0.1,4.1-2.5,4.9-4.5c0.5-1.2-1.2-2.3-1.8-1
				c-0.7,1.7-2.1,4.4-4.1,2.9c-1.1-0.8-2.1-1.5-3.5-1.1c-3,0.8-3.7,4.1-4.9,6.6c-1,2.1-2.5,2.3-4.6,1.7c-1.5-0.4-3.1-1-4.6-0.4
				c-2.1,0.8-2.8,3.9-0.8,5.2C799.4,155.3,800.4,153.5,799.3,152.8L799.3,152.8z"/>
		</g>
	</g>
	<g>
		<g>
			<path class="st9" d="M814.7,152.6c-0.2-1.3,0.8-2.6,2.1-2.8c1.1-0.2,2,0.8,3,1c1.9,0.3,3.4-1.3,4.2-2.9c0.5-1,0.7-2.2,1.6-3
				c0.7-0.7,1.8-0.8,2.8-1c1.8-0.3,3.4-0.6,4.7-2c0.8-1-0.6-2.4-1.4-1.4c-1.5,1.7-4.1,1.2-6,2c-2.4,1.1-2.5,3.4-3.9,5.3
				c-1.2,1.7-2.5,0.1-4-0.1c-0.9-0.1-1.8,0.1-2.6,0.5c-1.8,1-2.6,2.9-2.3,4.9C813,154.5,815,154,814.7,152.6L814.7,152.6z"/>
		</g>
	</g>
	<g>
		<g>
			<path class="st9" d="M819.1,254.1c-1.3-1.8,0-4.7,2.4-4c2.3,0.7,2.2,4-0.1,4.6c-1.2,0.4-0.7,2.4,0.5,2c4-1.2,4.5-7.1,0.4-8.5
				c-4-1.5-7.5,3.4-5,6.9C818.1,256.2,819.9,255.2,819.1,254.1L819.1,254.1z"/>
		</g>
	</g>
	<g>
		<g>
			<path class="st9" d="M1016.1,208.5c-0.2-0.6,0.3-0.8,1.3-0.5c0.5,0.2,0.9,0.3,1.4,0.6c0.5,0.2,0.9,0.4,1.5,0.5
				c0.9,0.2,1.9,0,2.7-0.7c1.7-1.3,1.4-3.6,2.4-5.2c1.1-1.8,1.9-0.5,2.7,0.5c0.4,0.6,0.9,1.1,1.7,1.2c0.8,0.2,1.6-0.1,2.2-0.6
				c0.4-0.3,0.7-0.8,1-1.2c0-0.1,1.5-2.3,1.6-1.7c0.1,1.3,2.1,1.3,2,0c0-1.2-0.9-2.1-2.2-2.1c-1.4,0-2.2,1.1-2.8,2.2
				c-0.6,1-1.3,1.9-2.1,0.6c-0.3-0.5-0.6-1-1.1-1.3c-1-0.9-2.4-0.8-3.4,0c-1.2,0.9-1.7,2.3-2.1,3.6c-0.2,0.8-0.4,1.8-1,2.4
				c-0.9,0.9-2.3-0.1-3.2-0.5c-1.3-0.5-3-0.7-3.9,0.7c-0.7,1-0.7,2.2,0.1,3.1C1015.6,210.9,1017,209.5,1016.1,208.5L1016.1,208.5z"
				/>
		</g>
	</g>
	<g>
		<g>
			<path class="st9" d="M1032.4,210.6c-0.4-1.5,1.6-1.7,2.5-1.5c0.8,0.1,1.5,0.4,2.3,0.7c1.2,0.3,2.6,0.6,3.8,0.1
				c0.9-0.3,1.6-1,2.1-1.9c0.6-1,0.8-2.5,1.9-3.2c1.1-0.7,0.1-2.5-1-1.8c-1.2,0.8-1.7,2-2.3,3.3c-1.2,2.4-3.2,1.6-5.3,1
				c-1.6-0.4-3.2-0.6-4.6,0.4c-1.1,0.8-1.7,2.1-1.3,3.5C1030.8,212.5,1032.8,211.9,1032.4,210.6L1032.4,210.6z"/>
		</g>
	</g>
</g>
<g id="leg_r">
	<path class="st10" d="M878,196.2c-4.5,3.9-10.5,9.9-16.1,18.3c-4.1,6.1-10.9,16.7-13.3,31.9c-3.5,22,4.7,39.4,7.4,44.7
		c9.8,19.2,25.1,28.1,30.8,31.1c-1.2,2.1-3,5.3-4.6,9.4c-0.4,1-7.7,20.1-2.7,23.6c3.7,2.6,12.8-4.7,14.1-5.8
		c8.2-6.7,12.1-15.7,16.3-26.1c1.8-4.4,3-8.1,3.8-10.6c-4.7-3.3-11.7-9.1-17.7-18c-3.8-5.6-16.7-24.6-11.2-42.2
		c2.5-8.1,6.1-6.8,15.8-23.1c7.1-11.9,11.1-18.6,9-24.2C906.7,197.9,893.5,194.7,878,196.2z"/>
	<g>
		<g>
			<path class="st9" d="M878.7,317c7.7-3.6,14.3-9.5,18.8-16.9c0.3-0.4-0.4-0.8-0.6-0.4c-4.5,7.3-10.9,13-18.5,16.6
				C877.9,316.5,878.3,317.2,878.7,317L878.7,317z"/>
		</g>
	</g>
	<g>
		<g>
			<path class="st9" d="M876.5,275.9c4.5,9.8,10.4,18.7,17.7,26.5c0.3,0.4,0.9-0.2,0.5-0.6c-7.2-7.8-13.1-16.7-17.6-26.4
				C877,275,876.3,275.4,876.5,275.9L876.5,275.9z"/>
		</g>
	</g>
	<g>
		<g>
			<path class="st9" d="M850.7,276.5c1.3-2,3.8-2.8,6.1-2.1c2.3,0.7,4,2.8,4.9,5c1,2.5,1.3,5.3,0.6,8c-0.7,2.7-3,5.3-6,4.1
				c-0.4-0.2-0.6,0.6-0.2,0.8c2.6,1.1,5.2-0.6,6.3-3c1.5-3.1,1.3-7,0-10.1c-1.1-2.6-3.3-5-6.1-5.5c-2.4-0.5-5,0.5-6.3,2.6
				C849.8,276.5,850.4,276.9,850.7,276.5L850.7,276.5z"/>
		</g>
	</g>
	<g>
		<g>
			<path class="st9" d="M852,234.2c3.4-0.4,6.8-0.4,10.2,0.3c3.2,0.7,6.6,1.6,8.7,4.3c0.3,0.4,0.8-0.2,0.5-0.6
				c-2-2.7-5.3-3.7-8.4-4.4c-3.6-0.8-7.3-1-11-0.5C851.6,233.5,851.6,234.3,852,234.2L852,234.2z"/>
		</g>
	</g>
	<g>
		<g>
			<path class="st9" d="M850.9,237.5c3.6-0.3,7.1,0.1,10.5,1.2c0.5,0.1,0.7-0.6,0.2-0.8c-3.5-1.1-7.1-1.5-10.7-1.3
				C850.4,236.8,850.4,237.5,850.9,237.5L850.9,237.5z"/>
		</g>
	</g>
	<g>
		<g>
			<path class="st9" d="M882.8,209.9c-3.4,4.8-7,9.4-10.9,13.8c-0.3,0.4,0.2,0.9,0.5,0.6c3.9-4.4,7.6-9.1,11-13.9
				C883.7,209.8,883.1,209.5,882.8,209.9L882.8,209.9z"/>
		</g>
	</g>
	<g>
		<g>
			<path class="st9" d="M874.2,247.3c-2.6,5.4-4,11.3-4.2,17.3c0,0.5,0.7,0.5,0.8,0c0.2-5.9,1.6-11.6,4.1-16.9
				C875,247.2,874.4,246.8,874.2,247.3L874.2,247.3z"/>
		</g>
	</g>
	<g>
		<g>
			<path class="st9" d="M879.5,236.5c3.3,2.5,6.1,5.7,8.2,9.4c0.2,0.4,0.9,0,0.6-0.4c-2.2-3.8-5-7.1-8.5-9.7
				C879.5,235.5,879.1,236.1,879.5,236.5L879.5,236.5z"/>
		</g>
	</g>
	<g>
		<g>
			<path class="st9" d="M910,310.6c-4,4.3-2.6,10.4-4.1,15.6c-0.9,3.3-2.5,6.3-3.9,9.4c-1.4,3-2.7,6-4.1,9.1
				c-0.2,0.4,0.4,0.9,0.6,0.4c2.5-5.6,5.4-11.1,7.5-16.8c2-5.5,0.2-12.6,4.4-17.1C910.9,310.8,910.4,310.2,910,310.6L910,310.6z"/>
		</g>
	</g>
	<g>
		<g>
			<path class="st9" d="M886.6,322.7c2.4-1.5,5-2.7,7.8-3.3c0.5-0.1,0.3-0.9-0.2-0.8c-2.9,0.6-5.5,1.8-8,3.3
				C885.8,322.3,886.2,323,886.6,322.7L886.6,322.7z"/>
		</g>
	</g>
	<path class="st11" d="M895.4,233c-3.5,1.5-15.8,7.5-21.4,21.3c-4.8,11.7-2.1,22.2-0.2,29.9c4.5,17.6,15.1,29.1,21.1,34.6
		c-0.2,1.9-0.6,4.7-2,7.9c-2.7,6.1-6.6,7.8-9.6,12.2c-2,3-4.1,7.9-3.5,16.2c1,0.1,2.4,0.1,4.1-0.2c2.5-0.4,6.4-1.9,12.3-8.8
		c3.9-4.6,6.4-8.9,8.4-12.7c2.6-4.9,5.8-12,8.4-21c-9.9-7.8-16.1-15.7-19.9-21.3c-5.1-7.6-7-12.8-7.6-14.6
		c-1.4-4.1-3.7-11.3-2.2-20.1c0.5-3.1,0.8-4.9,2-7.1c3-5.6,7.9-6.8,9.6-12.4C895.4,235.3,895.5,233.8,895.4,233z"/>
	<path class="st12" d="M885.7,246.6c-2.2,5.2-4.9,13.6-4.7,24.1c0.6,21.9,13.9,36.3,17.6,40.1c1.1,3.7,2.3,9.4,1.5,16.2
		c-2,16-13.8,25.2-16.5,27.2c2.3-0.8,6.1-2.2,9.9-5.2c7.4-5.6,10.8-13.1,14.8-22.4c1.5-3.3,3.4-8.2,5.1-14.5
		c-10-7.9-16.3-16.1-19.9-21.8c-3.8-5.9-7.4-11.6-9.1-20C882.4,260,884.3,251.3,885.7,246.6z"/>
</g>
<g id="leg_l">
	<path class="st10" d="M944.3,212.5c2.8,6.2,1.7,13.4,0.8,18.9c-1.2,7.8-4,13.7-6,17.3c-0.9,4.4-1.7,11.8,0.5,20.4
		c2.6,10.3,8.3,16.8,13.6,22.7c4.5,5.1,12.3,12.7,24.1,19c-0.7,2.5-1.8,6.4-3.2,11.1c-6.2,19.5-10.1,23.4-11.5,24.6
		c-3.9,3.5-11,7.5-14,5.2c-2.5-1.9-3.1-8.4,5.6-29.6c-3.6-1.3-8.7-3.4-14.5-6.6c-5.9-3.2-22.3-12.1-32.7-26.7
		c-15.6-22.1-11.7-49.4-10.3-56.9c-2.4-1.1-6.7-3.6-8.2-8.2c-2.8-8.3,5.4-17.9,12.1-22.1C914.8,192.6,938.2,199.1,944.3,212.5z"/>
	<g>
		<g>
			<path class="st13" d="M889.1,212.7c-2,3.1-2.2,7.1-0.8,10.6c0.7,1.7,1.8,3.2,3.1,4.5c0.6,0.6,1.3,1.2,2.1,1.7
				c0.3,0.2,2.8,1.5,2.3,2c0.2,0,0.4-0.1,0.6-0.1c-4.4-3.3-7.7-8.2-7.6-13.8c0-0.6-0.9-0.7-1-0.1c-0.8,4.9,1.1,9.8,5.1,12.7
				c0.1-0.3,0.3-0.6,0.4-0.9c-4.7-1.5-5.8-6.8-4.6-11.2c-0.3,0-0.7-0.1-1-0.1c0.3,4.5,0.9,9.4,4.4,12.6c0.5,0.4,1.2-0.3,0.7-0.7
				c-3.9-3.8-6.2-9.7-3-14.7c-0.3,0-0.6-0.1-0.9-0.1c0.1,0.8,0.2,1.5,0,2.3c0.3,0,0.6,0,1,0c-0.6-2.2-0.4-4.3,0.8-6.3
				c-0.3,0-0.6-0.1-0.9-0.1c0.6,3.7-0.7,7.4-0.2,11c0.2,1.2,0.5,2.5,1.2,3.6c0.3,0.6,0.7,1,1.2,1.4c0.5,0.4,1.7,0.9,1.8,1.6
				c0.2-0.2,0.4-0.4,0.6-0.6c-0.7-0.1-1.5-0.2-2.2-0.3c-0.3,0-0.8,0.2-0.6,0.6c0.6,1.5,1.5,2.5,2.9,3.2c0-0.3,0-0.6,0-0.9
				c-0.3,0-0.7,0-1,0c-0.1,0.3-0.2,0.6-0.4,0.9c0.4,0.2,0.8,0.4,1.2,0.6c0.1-0.3,0.2-0.6,0.4-0.9c-0.8,0-1.6-1.7-1.9-2.3
				c-0.4-0.8-0.8-1.7-1-2.7c-0.5-1.9-0.6-3.8-0.3-5.6c-0.3,0-0.6,0.1-0.9,0.1c1.2,2.2,1.6,4.5,1,7c0.2-0.1,0.5-0.2,0.7-0.3
				c-0.2-0.3-0.3-0.6-0.5-0.9c-0.3,0.1-0.5,0.3-0.8,0.4c0.6,0.3,1.1,0.7,1.7,1c0.6,0.3,1.1-0.6,0.5-0.9s-1.1-0.7-1.7-1
				c-0.3-0.2-0.8,0-0.8,0.4c0.1,0.8,0.4,1.3,1,1.8c0.3,0.2,0.7,0,0.7-0.3c0.5-2.7,0.2-5.4-1.1-7.8c-0.2-0.3-0.8-0.3-0.9,0.1
				c-0.4,2.5-0.2,5.1,0.7,7.5c0.5,1.4,1.7,4.5,3.5,4.4c0.5,0,0.6-0.6,0.4-0.9c-0.5-0.7-1.1-0.9-1.9-0.9c-0.4,0-0.7,0.6-0.4,0.9
				c0.7,0.7,1.5,0.8,2.3,0.2c0.3-0.2,0.4-0.7,0-0.9c-1.2-0.6-2-1.3-2.4-2.6c-0.2,0.2-0.4,0.4-0.6,0.6c0.7,0.1,1.5,0.2,2.2,0.3
				c0.4,0.1,0.7-0.2,0.6-0.6c-0.2-1.2-1.4-1.5-2.2-2.2c-1.3-1.2-1.8-3.1-2-4.8c-0.3-3.6,0.9-7.1,0.2-10.7c-0.1-0.4-0.7-0.5-0.9-0.1
				c-1.3,2.2-1.7,4.6-0.9,7.1c0.1,0.4,0.9,0.6,1,0c0.1-1,0.1-1.9,0-2.9c-0.1-0.5-0.7-0.4-0.9-0.1c-3.5,5.4-1.1,11.9,3.1,16
				c0.2-0.2,0.5-0.5,0.7-0.7c-3.3-3-3.8-7.5-4.1-11.8c0-0.6-0.8-0.7-1-0.1c-1.4,4.9,0,10.8,5.3,12.4c0.6,0.2,0.8-0.6,0.4-0.9
				c-3.5-2.6-5.3-7.1-4.6-11.5c-0.3,0-0.7-0.1-1-0.1c-0.1,6.1,3.5,11.3,8.1,14.7c0.2,0.1,0.5,0.1,0.6-0.1c0.7-0.8,0.5-1.6-0.3-2.2
				c-1.6-1.3-3.4-2.1-4.8-3.6c-3.2-3.6-4.2-8.9-1.5-13C890.4,212.7,889.5,212.2,889.1,212.7L889.1,212.7z"/>
		</g>
	</g>
	<g>
		<g>
			<path class="st9" d="M935.1,220.3c0.7,4-1.4,7.8-2.9,11.4c-1.3,3-2.6,6-3.7,9.1c-2.2,5.9-3.5,11.9-3.3,18.2
				c0.3,11.4,5,22.7,13.1,30.7c5.3,5.2,11.7,9.1,18.1,12.8c0.4,0.2,0.8-0.4,0.4-0.7c-5.6-3.3-11.3-6.6-16.2-11
				c-4.5-4.1-8.1-9-10.7-14.6c-2.4-5.5-3.8-11.5-3.9-17.4c-0.1-6.3,1.2-12.4,3.5-18.3c1.4-3.7,3-7.3,4.5-10.9c1.2-3,2.5-6.1,1.9-9.4
				C935.7,219.6,935,219.8,935.1,220.3L935.1,220.3z"/>
		</g>
	</g>
	<g>
		<g>
			<path class="st9" d="M949.2,319.7c0.9-3.9,2.7-7.6,4.6-11.1c1.8-3.2,3.9-6.3,7.2-8c0.4-0.2,0.1-0.9-0.4-0.7
				c-3.3,1.7-5.4,4.6-7.2,7.8c-2.1,3.7-4,7.6-4.9,11.8C948.3,320,949,320.2,949.2,319.7L949.2,319.7z"/>
		</g>
	</g>
	<g>
		<g>
			<path class="st9" d="M971.6,308.1c-1.6,2.1-2.4,4.7-2.1,7.4c0.1,1.2,0.4,2.3,0.9,3.4c0.6,1.4,0.5,2.2,0.1,3.6
				c-0.3,1-0.5,1.9-0.8,2.8c-2.2,7.4-4.8,14.7-7.8,21.8c-0.2,0.4,0.5,0.9,0.6,0.4c2.8-6.8,5.3-13.7,7.5-20.8
				c0.5-1.8,1.1-3.5,1.6-5.4c0.3-1.2-0.1-2-0.6-3.1c-1.4-3.3-0.8-7,1.3-9.8C972.5,308.1,971.8,307.7,971.6,308.1L971.6,308.1z"/>
		</g>
	</g>
	<g>
		<g>
			<path class="st9" d="M954.4,322.6c1.6-1.6,3.5-2.6,5.6-3c0.5-0.1,0.3-0.8-0.2-0.8c-2.3,0.4-4.3,1.5-6,3.2
				C953.5,322.4,954.1,322.9,954.4,322.6L954.4,322.6z"/>
		</g>
	</g>
	<g>
		<g>
			<path class="st9" d="M932.5,282.3c1.5,0.7,3.6-1.3,4.8-2.2c1.8-1.3,3.3-3,4.5-4.9c0.2-0.4-0.4-0.8-0.6-0.4
				c-0.9,1.7-2.2,3-3.6,4.2c-0.7,0.6-3.6,3.1-4.6,2.6C932.5,281.5,932.1,282.1,932.5,282.3L932.5,282.3z"/>
		</g>
	</g>
	<g>
		<g>
			<path class="st9" d="M900.4,275.7c-0.7-3.1,3.1-4.1,5.3-3c1.8,1,3,2.8,3.5,4.7c0.5,1.7,0.7,3.6,0.7,5.4c0.1,2.4-1.7,4.4-4.2,3.4
				c-0.4-0.2-0.6,0.6-0.2,0.8c1.9,0.8,4.3-0.2,5-2.2c0.5-1.5,0.1-3.4-0.1-4.9c-0.2-1.5-0.5-3-1.2-4.4c-1.1-2.3-3.4-4.3-6-4.1
				c-2.3,0.1-4.2,2.1-3.6,4.5C899.8,276.3,900.5,276.1,900.4,275.7L900.4,275.7z"/>
		</g>
	</g>
	<g>
		<g>
			<path class="st9" d="M912.2,253.5c0.2,1,0.4,2,0.4,3c0,0.5,0.7,0.5,0.8,0c0-1.1-0.1-2.1-0.4-3.2
				C912.9,252.8,912.1,253,912.2,253.5L912.2,253.5z"/>
		</g>
	</g>
	<g>
		<g>
			<path class="st9" d="M923.5,305.4c4.6-2.5,8.5-6,11.6-10.3c0.3-0.4-0.4-0.8-0.6-0.4c-3,4.2-6.8,7.6-11.3,10.1
				C922.7,305,923.1,305.7,923.5,305.4L923.5,305.4z"/>
		</g>
	</g>
	<g>
		<g>
			<path class="st9" d="M921.9,235.1c0.6,7.1-3,13.6-4.1,20.4c-1,6.3,0.1,12.7,3,18.4c0.2,0.4,0.9,0,0.6-0.4
				c-3.2-6.2-4-13.3-2.4-20.1c1.4-6.1,4.2-11.9,3.6-18.3C922.6,234.6,921.9,234.6,921.9,235.1L921.9,235.1z"/>
		</g>
	</g>
	<path class="st14" d="M904.6,206.6c-2.2,9.4-7.5,37.2,6.1,65.6c1.9,4,9.3,18.6,24.8,32c8.9,7.7,17.6,12.4,23.9,15.3
		c-1.3,0.8-2.6,1.5-3.9,2.3c-1.5,7.3-2.6,12.7-3.2,15.3c-1.9,9.3-2.8,13.9-1.4,15.1c2.4,1.9,8.5-1.5,12.3-5.3
		c3.4-3.4,4.6-6.9,7.5-15.8c2.6-7.8,4.6-14.4,6.1-19.2c-3.7-2.2-8.7-5.4-14.1-10c-5.3-4.4-12.1-10.1-17.1-18.3
		c-7.1-11.6-8-23.9-7.7-32.2c1.2-2,2.9-5,4.3-8.8c1.3-3.4,7.1-18.7,2.1-28.1C939.3,204.9,922.6,200.6,904.6,206.6z"/>
	<path class="st15" d="M928,215.5c-2.6,7.3-5.9,19.8-4.3,35.3c1.7,16.5,8.1,27.9,12.4,35.3c8.8,15.4,20,25.5,28.2,31.7
		c-0.3,4.1-0.9,8.9-2.2,14.2c-1.9,7.5-4.6,13.6-7,18.2c0.5,0,1.1,0,1.7-0.1c2.3-0.5,3.6-2.2,4.1-2.8c1.4-1.3,3.4-3.4,5.3-6.3
		c2.6-4,3.7-7.7,5.9-14.8c2.4-8.1,4-13.5,4.7-15.7c-5.1-2.7-12.4-7-19.8-13.9c-3.5-3.3-8.2-7.6-12.1-13.9
		c-7.3-11.8-7.9-24.6-7.4-32.8c3-4.3,8.6-13.8,8-26.2c-0.1-3.1-0.6-5.8-1.2-8.2C938.8,215.5,933.4,215.5,928,215.5z"/>
</g>
<g id="hand_r">
	<path class="st10" d="M893.5,120.2c-5.2-2.1-16.5,15.8-18.2,18.6c-3.5,5.6-8.2,14.2-11.7,25.8c-9.3,2.3-18.5,4.7-27.7,7.1
		c-9.1-5.7-12.1-6.6-12.8-5.7c-0.5,0.6-0.1,2.5,0.6,3.8c0.8,1.4,1.8,1.7,1.7,2.2c-0.1,1.3-5.1,1.4-9.1,2.7c-8.1,2.5-13.7,9.8-13,11
		c1,1.6,15.1-5.4,15.2-5.3c0,0.1-7,1.8-9.5,7.3c-1,2.1-1.5,5.1-0.2,6.2c0.7,0.6,1.9,0.4,6.1-1.3c5.3-2.2,8.7-4.1,8.8-3.9
		c0.2,0.4-10.7,7-10,8.6c0.6,1.3,8.4-1.3,9.3-1.6c6-2,10.7-4.6,13.9-6.7c3.4,1.3,9.5,3.1,17.1,2.4c13.6-1.2,22.3-9.5,24.5-11.7
		c4.6-4.6,7.3-11.5,12.8-25.4c3.2-8.2,7.1-19.7,4.3-30.5C895.3,122.3,894.8,120.7,893.5,120.2z"/>
	<g>
		<g>
			<path class="st9" d="M809.4,193.1c2.8-4.1,7.8-5.6,12.2-7.7c0.6-0.3,0.1-1.2-0.5-0.9c-4.5,2.1-9.5,3.7-12.5,8.1
				C808.1,193.1,809,193.6,809.4,193.1L809.4,193.1z"/>
		</g>
	</g>
	<g>
		<g>
			<path class="st9" d="M825.4,177.5c2,2.6,5,4,8.3,3.9c0.6,0,0.6-1.1,0-1c-3,0.1-5.7-1.1-7.5-3.5C825.7,176.3,825,177,825.4,177.5
				L825.4,177.5z"/>
		</g>
	</g>
	<g>
		<g>
			<path class="st9" d="M875.3,139.1c1.6,2.1,3.5,3.8,5.9,5c-0.1-0.2-0.2-0.4-0.2-0.6c-0.7,3.2-1.8,6.2-3.2,9.1
				c-0.3,0.6,0.6,1.1,0.9,0.5c1.5-3,2.6-6.1,3.3-9.3c0-0.2,0-0.5-0.2-0.6c-2.2-1.1-4.1-2.6-5.5-4.6
				C875.8,138.1,874.9,138.6,875.3,139.1L875.3,139.1z"/>
		</g>
	</g>
	<g>
		<g>
			<path class="st9" d="M873.7,183.8c-0.7-5.2,3.5-9.4,8.5-8.8c0.6,0.1,0.6-1,0-1c-5.8-0.7-10.3,4.3-9.5,10.1
				C872.8,184.8,873.8,184.5,873.7,183.8L873.7,183.8z"/>
		</g>
	</g>
	<g>
		<g>
			<path class="st9" d="M843.8,169.9c-0.6,3.4-0.7,6.8-0.3,10.3c0.1,0.7,1.1,0.7,1,0c-0.4-3.4-0.3-6.7,0.3-10
				C844.9,169.5,843.9,169.2,843.8,169.9L843.8,169.9z"/>
		</g>
	</g>
	<path class="st12" d="M896.6,129.3c-3.8,5.2-6.3,9.7-8,12.8c-5.7,11-6.9,16.1-12.4,23.5c-2.1,2.8-5.5,6.9-11,11.1
		c-4.2,0.9-10.1,2.2-17.2,4.1c-8.6,2.3-13,3.5-18,5.8c-4.1,1.9-9.9,5-16.2,10.5c3.1-0.3,7.1-0.9,11.5-2.4c5-1.7,8.8-3.9,11.6-5.8
		c2.4,0.9,5.9,2,10.3,2.4c11.1,1,19.5-3.5,22.2-5c2.5-1.4,7.2-4,11.2-9.3c1.2-1.5,2.3-3.3,5.2-9.9c4.6-10.3,7.1-16.2,8.9-24.9
		C895.5,139.2,896.2,134.8,896.6,129.3z"/>
	<path class="st16" d="M810.2,190.8c0.5-0.6,2-2.4,7-4.4c1.9-0.7,7.1-2.7,7.7-1.5c0.2,0.4,0.1,1.1-1.7,3c-2.3,1.5-5.3,3.2-9.1,4.5
		c-2,0.7-4,1.2-5.7,1.5C808.8,193.2,809.3,192.1,810.2,190.8z"/>
	<path class="st17" d="M895.9,139.9c-2.2,3.8-5.9,10.5-10.5,18.8c-6.6,12-10.4,17.9-13.5,20.9c-3.7,3.6-13.5,10.9-35.3,8.8
		c3.5,1.3,14.6,4.9,27.2,0.5c9.1-3.2,14.4-8.9,15.7-10.4c1.3-1.5,4-4.7,8.8-16.5C890.5,156.7,893.3,149.2,895.9,139.9z"/>
	<path class="st18" d="M815.7,196.8c4-1.3,8.9-3.2,14.4-5.7c4-1.8,6.5-3.2,6.6-3c0.2,0.3-3.8,3.2-8.4,5.4
		C823.4,195.7,818.9,196.5,815.7,196.8z"/>
</g>
<g id="backbag">
	<path class="st19" d="M921.7,121c1.9-0.6,29.8-9.2,47.4,7.3c19.1,17.8,9.4,49.3,4.8,63.8c-4.8,15.6-11.1,20-14.5,21.7
		c-6.4,3.3-12.6,2.2-18.9,1.2c-10.6-1.6-25.7-3.3-45.2-3.9c2.1-27.4,4.3-54.9,6.4-82.3C908.4,126.2,915,123.6,921.7,121z"/>
</g>
<g id="tube">
	<path class="st10" d="M946.9,133.6c7.5,0.1,19.2,1.5,29.4,9.3c6.4,4.9,12.6,12.6,21.4,43.1c11.5,39.8,7.1,47.5,17.7,61.1
		c1.5,1.9,15.6,19.6,37.5,21.8c27.3,2.8,48.3-20.2,62.6-36c24.9-27.3,34.8-58.3,39.1-78.6c4.1,1.3,8.2,2.5,12.3,3.8
		c-13,33.9-28.3,59.3-40.2,76.4c-22.7,32.7-36.1,40.2-44.4,43.6c-6,2.5-26.5,11-48.7,2.2c-20.7-8.2-30.1-26.3-33.2-32.2
		c-3.5-6.7-3.7-9.7-9.1-33.8c-10.4-46.9-14-55.7-21.9-61.1c-4.5-3.1-12.4-6.4-26.2-4.4C944.4,143.8,945.7,138.7,946.9,133.6z"/>
	<g>
		<g>
			<path class="st9" d="M969.7,152.7c0.4-3.6,2.4-6.8,5.3-8.7c0.5-0.3,0-1.2-0.5-0.9c-3.3,2.2-5.4,5.6-5.8,9.6
				C968.6,153.4,969.7,153.4,969.7,152.7L969.7,152.7z"/>
		</g>
	</g>
	<g>
		<g>
			<path class="st9" d="M979.9,166c1.7-3.2,4.4-5.5,7.9-6.5c0.6-0.2,0.4-1.2-0.3-1c-3.7,1-6.7,3.5-8.5,7
				C978.7,166.1,979.6,166.6,979.9,166L979.9,166z"/>
		</g>
	</g>
	<g>
		<g>
			<path class="st9" d="M978.1,157.9c1.4-2.5,3.8-4.2,6.6-4.6c0.6-0.1,0.6-1.1,0-1c-3.2,0.4-5.9,2.2-7.5,5.1
				C976.9,157.9,977.8,158.5,978.1,157.9L978.1,157.9z"/>
		</g>
	</g>
	<g>
		<g>
			<path class="st9" d="M987.2,191c2.1-3,5.5-4.6,9.1-4.5c0.6,0,0.6-1,0-1c-4-0.2-7.7,1.7-10,5C985.9,191.1,986.8,191.6,987.2,191
				L987.2,191z"/>
		</g>
	</g>
	<g>
		<g>
			<path class="st9" d="M985.9,180c1.7-2.9,5-3.8,8.1-4.3c0.6-0.1,0.4-1.1-0.3-1c-3.4,0.5-6.8,1.7-8.7,4.7
				C984.7,180,985.6,180.5,985.9,180L985.9,180z"/>
		</g>
	</g>
	<g>
		<g>
			<path class="st9" d="M982.1,174.1c1.7-2.8,4.6-4.5,7.8-4.6c0.6,0,0.6-1.1,0-1c-3.6,0.1-6.8,2-8.6,5.1
				C980.9,174.1,981.8,174.6,982.1,174.1L982.1,174.1z"/>
		</g>
	</g>
	<g>
		<g>
			<path class="st9" d="M991.8,214c2.8-3.1,6.7-4.7,10.9-4.6c0.6,0,0.6-1,0-1c-4.4-0.2-8.6,1.6-11.6,4.9
				C990.6,213.7,991.3,214.5,991.8,214L991.8,214z"/>
		</g>
	</g>
	<g>
		<g>
			<path class="st9" d="M990.4,207.7c2.6-3.2,6.4-4.9,10.5-4.5c0.6,0.1,0.6-1,0-1c-4.3-0.4-8.4,1.4-11.2,4.8
				C989.2,207.5,989.9,208.2,990.4,207.7L990.4,207.7z"/>
		</g>
	</g>
	<g>
		<g>
			<path class="st9" d="M988.9,200.8c1.9-2.3,4.5-3.7,7.4-4c0.6-0.1,0.6-1.1,0-1c-3.2,0.3-6,1.8-8.1,4.3
				C987.8,200.6,988.5,201.3,988.9,200.8L988.9,200.8z"/>
		</g>
	</g>
	<g>
		<g>
			<path class="st9" d="M991.8,195.2c2.1-1.5,4.5-2.1,7-1.8c0.6,0.1,0.6-1,0-1c-2.7-0.3-5.3,0.4-7.5,2
				C990.8,194.7,991.3,195.6,991.8,195.2L991.8,195.2z"/>
		</g>
	</g>
	<g>
		<g>
			<path class="st9" d="M1002.2,250.4c2-3.5,5.1-6,8.8-7.2c0.6-0.2,0.4-1.2-0.3-1c-4,1.2-7.3,3.9-9.4,7.6
				C1001,250.4,1001.8,250.9,1002.2,250.4L1002.2,250.4z"/>
		</g>
	</g>
	<g>
		<g>
			<path class="st9" d="M998,241.3c2.1-3.5,5.6-5.8,9.7-6.1c0.6,0,0.6-1.1,0-1c-4.4,0.3-8.3,2.8-10.5,6.6
				C996.8,241.3,997.6,241.8,998,241.3L998,241.3z"/>
		</g>
	</g>
	<g>
		<g>
			<path class="st9" d="M995.3,229.7c2.4-3.3,6.3-5.1,10.3-4.7c0.6,0.1,0.6-1,0-1c-4.4-0.4-8.6,1.6-11.2,5.2
				C994.1,229.7,994.9,230.3,995.3,229.7L995.3,229.7z"/>
		</g>
	</g>
	<g>
		<g>
			<path class="st9" d="M998.4,232.3c2.6-1.9,5.5-2.8,8.6-2.8c0.6,0,0.6-1,0-1c-3.3,0-6.4,0.9-9.1,2.9
				C997.3,231.7,997.8,232.6,998.4,232.3L998.4,232.3z"/>
		</g>
	</g>
	<g>
		<g>
			<path class="st9" d="M1037,265.5c0.7,2.2,1,4.4,0.9,6.7c-0.1,2.1-0.4,4.8-2.2,6.2c-0.5,0.4,0.2,1.1,0.7,0.7
				c1.7-1.4,2.1-3.7,2.4-5.8c0.3-2.8,0-5.5-0.8-8.2C1037.7,264.6,1036.8,264.8,1037,265.5L1037,265.5z"/>
		</g>
	</g>
	<g>
		<g>
			<path class="st9" d="M1049.1,270.5c1.5,3.5,1.2,7.4-0.8,10.6c-0.3,0.6,0.5,1.1,0.9,0.5c2.2-3.5,2.5-7.8,0.8-11.6
				C1049.7,269.4,1048.8,269.9,1049.1,270.5L1049.1,270.5z"/>
		</g>
	</g>
	<g>
		<g>
			<path class="st9" d="M1070.6,268c2.8,3.5,3.4,8.1,2,12.3c-0.2,0.6,0.7,0.9,1,0.3c1.7-4.5,0.8-9.6-2.2-13.3
				C1070.9,266.8,1070.2,267.5,1070.6,268L1070.6,268z"/>
		</g>
	</g>
	<g>
		<g>
			<path class="st9" d="M1117.9,231.4c2.3,0.9,3.7,3,4.1,5.4c0.1,0.7,1.1,0.4,1-0.3c-0.4-2.8-2.3-5.1-4.8-6.2
				C1117.5,230.1,1117.3,231.1,1117.9,231.4L1117.9,231.4z"/>
		</g>
	</g>
	<g>
		<g>
			<path class="st9" d="M1135.6,206.5c2.2,0.9,3.9,2.7,4.7,5c0.2,0.6,1.2,0.3,1-0.3c-0.9-2.7-2.8-4.7-5.4-5.7
				C1135.3,205.3,1135,206.3,1135.6,206.5L1135.6,206.5z"/>
		</g>
	</g>
	<g>
		<g>
			<path class="st9" d="M1093.4,255.1c2.5,3.4,3.6,7.6,2.9,11.8c-0.1,0.7,0.9,0.9,1,0.3c0.7-4.5-0.3-8.9-3-12.6
				C1093.9,254.1,1093,254.6,1093.4,255.1L1093.4,255.1z"/>
		</g>
	</g>
	<g>
		<g>
			<path class="st9" d="M1083.7,263c2.6,3,5.3,6.7,3.8,10.9c-0.2,0.6,0.8,0.9,1,0.3c1.6-4.6-1.3-8.6-4.1-11.9
				C1084,261.8,1083.3,262.5,1083.7,263L1083.7,263z"/>
		</g>
	</g>
	<g>
		<g>
			<path class="st9" d="M1011.8,263.9c0.9-3.8,3.4-6.8,6.8-8.5c0.6-0.3,0.1-1.2-0.5-0.9c-3.6,1.8-6.3,5.1-7.3,9.1
				C1010.6,264.3,1011.6,264.6,1011.8,263.9L1011.8,263.9z"/>
		</g>
	</g>
	<g>
		<g>
			<path class="st9" d="M1017.7,269.8c2-4.1,5-7.5,8.9-9.8c0.6-0.3,0.1-1.2-0.5-0.9c-4.1,2.4-7.3,5.9-9.3,10.2
				C1016.5,269.9,1017.4,270.5,1017.7,269.8L1017.7,269.8z"/>
		</g>
	</g>
	<g>
		<g>
			<path class="st9" d="M1007.5,255.6c1.2-2.4,3.2-4.3,5.7-5.3c0.6-0.2,0.3-1.2-0.3-1c-2.7,1.1-5,3.1-6.3,5.8
				C1006.4,255.6,1007.2,256.1,1007.5,255.6L1007.5,255.6z"/>
		</g>
	</g>
	<g>
		<g>
			<path class="st9" d="M1106,243.9c3.5,1.2,6,4.1,6.9,7.7c0.1,0.7,1.1,0.4,1-0.3c-0.9-4-3.7-7.2-7.5-8.5
				C1105.7,242.7,1105.4,243.7,1106,243.9L1106,243.9z"/>
		</g>
	</g>
	<g>
		<g>
			<path class="st9" d="M1112.3,241c1.6,0.9,2.8,2.3,3.4,4.1c0.2,0.6,1.2,0.3,1-0.3c-0.7-2-2-3.7-3.9-4.7
				C1112.2,239.8,1111.7,240.7,1112.3,241L1112.3,241z"/>
		</g>
	</g>
	<g>
		<g>
			<path class="st9" d="M1124.2,223.5c1.8,0.7,3.3,1.9,4.5,3.5c0.4,0.6,1.2,0,0.9-0.5c-1.3-1.9-3-3.2-5.1-4
				C1123.9,222.3,1123.6,223.3,1124.2,223.5L1124.2,223.5z"/>
		</g>
	</g>
	<g>
		<g>
			<path class="st9" d="M1144,187.9c2.8,0.5,5.3,2,6.9,4.3c0.4,0.5,1.2,0,0.9-0.5c-1.8-2.5-4.5-4.3-7.5-4.8
				C1143.7,186.8,1143.4,187.8,1144,187.9L1144,187.9z"/>
		</g>
	</g>
	<g>
		<g>
			<path class="st9" d="M1062.9,271.7c1.5,2.9,1.7,6.1,0.5,9.1c-0.2,0.6,0.7,0.9,1,0.3c1.2-3.3,1-6.8-0.6-9.9
				C1063.5,270.6,1062.6,271.1,1062.9,271.7L1062.9,271.7z"/>
		</g>
	</g>
	<g>
		<g>
			<path class="st9" d="M1104.6,251.7c1.9,1.9,2.9,4.3,2.8,7c0,0.7,1,0.7,1,0c0.1-2.9-1-5.6-3.1-7.7
				C1104.8,250.5,1104.1,251.3,1104.6,251.7L1104.6,251.7z"/>
		</g>
	</g>
	<path class="st15" d="M945.1,137.9c11.8,3.5,28.6,10.6,39.1,26.6c10,15.2,6,25,14.5,54.4c6.2,21.5,12.1,41.8,29.3,51.8
		c21.9,12.7,48.9,0.8,53.8-1.5c13.5-6.3,21.9-16,34.8-31c9.6-11.1,15.9-20.8,18.9-25.7c7.5-12.1,17.3-31,23.7-56.5
		c2.5,0.7,5,1.4,7.5,2.1c-4.6,13.2-9.4,23.9-13.1,31.5c-7.7,15.8-14.8,26.3-28.9,47.3c-5.5,8.2-9.5,13.8-15.5,20.2
		c-5.5,5.9-10.2,11-17.5,15.8c-4.6,3-19.3,12.2-39.4,11c-11.5-0.7-19.9-4.4-22.7-5.8c-2.4-1.2-14.5-7.2-24.2-21.3
		c-6.6-9.6-8.9-19.4-13.4-39.1c-3.9-17-4.3-24.9-9.8-42.5c-4-12.8-6.4-17-10.1-20.5c-9.5-9.2-22.9-9.3-28.9-8.9
		C943.9,143.2,944.5,140.6,945.1,137.9z"/>
</g>
<g id="torso">
	<path class="st10" d="M891,121.2c-4.4,5.6-4.5,17.4-4.8,41c-0.1,7.7,0.1,14,0.3,18.3c-4.7,7-9.3,14-14,21c4.9,3.8,11,7.8,18.5,11.1
		c22.4,10,43.5,7.8,54,6c4.4-12.6,7.5-23.2,9.6-30.9c9.9-36.3,7.8-46.1,4.7-52.7c-3.2-6.8-7.8-10.7-9.9-12.5
		C932.2,107.8,901.8,107.3,891,121.2z"/>
	<g>
		<g>
			<path class="st9" d="M893.6,187.3c0.9,0.9,1.9,1.5,3,2c0.6,0.2,0.9-0.8,0.3-1c-1-0.4-1.8-1-2.6-1.8
				C893.8,186.2,893.1,186.9,893.6,187.3L893.6,187.3z"/>
		</g>
	</g>
	<g>
		<g>
			<path class="st9" d="M886.1,176.7c-0.1,2.7,0.7,5.3,2.3,7.5c0.3,0.4,0.9,0,0.6-0.4c-1.5-2.1-2.3-4.5-2.2-7.1
				C886.9,176.2,886.2,176.2,886.1,176.7L886.1,176.7z"/>
		</g>
	</g>
	<g>
		<g>
			<path class="st9" d="M926,172.8c-0.2,1-1,3-0.5,4c0.6,1,2.6,1.1,3.6,1.3c3.3,0.7,6.7,0.9,10.1,0.7c6.9-0.4,13.5-2.8,19.2-6.7
				c0.4-0.3,0-1-0.4-0.7c-4.9,3.4-10.6,5.6-16.5,6.4c-2.9,0.4-5.8,0.4-8.6,0.1c-1.6-0.2-3.2-0.4-4.7-0.8c-1.1-0.3-1.9-0.1-2-1.8
				c0-0.7,0.3-1.6,0.4-2.3C926.8,172.6,926.1,172.4,926,172.8L926,172.8z"/>
		</g>
	</g>
	<g>
		<g>
			<path class="st9" d="M880.8,189.3c4.1,4.4,8.8,8,14.3,10.6c0.4,0.2,0.8-0.4,0.4-0.7c-5.3-2.5-10.1-6-14.1-10.4
				C881,188.3,880.5,188.9,880.8,189.3L880.8,189.3z"/>
		</g>
	</g>
	<g>
		<g>
			<path class="st9" d="M894.7,143.6c-1.1,0.1-2.1-1.9-2.3-2.7c-0.4-1.2-0.3-2.6,0.2-3.8c0.9-2.4,3.5-3.9,6-3c2.3,0.9,3.5,3.6,2.7,6
				c-0.4,1.3-1.5,2.4-2.7,3c-1.1,0.5-3,1.1-4.2,0.4c-0.4-0.2-0.8,0.4-0.4,0.7c1.4,0.8,3.4,0.2,4.8-0.4c1.3-0.6,2.4-1.6,3-3
				c1.2-2.8,0-6.2-2.8-7.4c-3-1.3-6.2,0.6-7.2,3.6c-0.5,1.5-0.5,3.1,0.1,4.6c0.4,1.1,1.6,2.9,2.9,2.7
				C895.2,144.3,895.2,143.6,894.7,143.6L894.7,143.6z"/>
		</g>
	</g>
	<g>
		<g>
			<path class="st9" d="M886.3,168.5c4.2,3.4,9.2,5.2,14.6,5.1c0.5,0,0.5-0.8,0-0.8c-5.1,0.1-10-1.6-14-4.9
				C886.4,167.7,885.9,168.2,886.3,168.5L886.3,168.5z"/>
		</g>
	</g>
	<g>
		<g>
			<path class="st9" d="M905.2,192.6c9.2,3.3,18.8,4.8,28.5,4.4c0.5,0,0.5-0.8,0-0.8c-9.6,0.4-19.2-1.1-28.3-4.4
				C904.9,191.7,904.7,192.4,905.2,192.6L905.2,192.6z"/>
		</g>
	</g>
	<g>
		<g>
			<path class="st9" d="M935.3,216.6c-0.1,1-0.4,1.9-0.7,2.9c-0.2,0.5,0.6,0.7,0.7,0.2c0.3-0.9,0.6-1.9,0.7-2.9
				C936.1,216.3,935.4,216.1,935.3,216.6L935.3,216.6z"/>
		</g>
	</g>
	<g>
		<g>
			<path class="st9" d="M939,216.4c0,0.8-0.2,1.6-0.5,2.3c-0.2,0.4,0.4,0.8,0.6,0.4c0.4-0.9,0.7-1.8,0.6-2.8
				C939.7,215.9,939,215.9,939,216.4L939,216.4z"/>
		</g>
	</g>
	<g>
		<g>
			<path class="st9" d="M942.7,215.8c0,0.7-0.2,1.3-0.5,1.9c-0.3,0.4,0.4,0.8,0.6,0.4c0.4-0.7,0.6-1.5,0.6-2.3
				C943.5,215.3,942.7,215.3,942.7,215.8L942.7,215.8z"/>
		</g>
	</g>
	<g>
		<g>
			<path class="st9" d="M913.8,142c-0.4,3.3-0.8,6.6-1.2,10c-0.1,0.7-0.4,1.8,0,2.3c0.6,0.8,2.1,0.7,2.9,0.8c6.1,1,12.2,1.6,18.3,2
				c0.5,0,0.5-0.8,0-0.8c-5.4-0.4-10.8-0.9-16.2-1.7c-0.6-0.1-1.3-0.2-2-0.3c-0.5-0.1-1.5,0-2-0.3c-1.1-0.7-0.3-3-0.2-4.1
				c0.3-2.7,0.6-5.3,0.9-8C914.6,141.5,913.8,141.5,913.8,142L913.8,142z"/>
		</g>
	</g>
	<g>
		<g>
			<path class="st9" d="M914.3,142c5.9-1,11.8-0.3,17.7,0.7c1.3,0.2,3.5,0.1,3.9,1.7c0.3,1.1-0.1,2.7-0.2,3.8
				c-0.3,2.9-0.9,5.7-1.8,8.5c-0.1,0.5,0.6,0.7,0.7,0.2c1-3.1,1.7-6.4,1.9-9.7c0.1-1.1,0.4-2.7,0-3.8c-0.4-0.9-1.2-0.9-2-1.1
				c-6.7-1.2-13.5-2.2-20.3-1C913.7,141.3,913.9,142.1,914.3,142L914.3,142z"/>
		</g>
	</g>
	<g>
		<g>
			<path class="st9" d="M913.9,146.1c7.4-1.3,14.9-0.6,21.9,2c0.5,0.2,0.6-0.6,0.2-0.8c-7.2-2.7-14.8-3.3-22.3-2
				C913.3,145.4,913.5,146.2,913.9,146.1L913.9,146.1z"/>
		</g>
	</g>
	<g>
		<g>
			<path class="st9" d="M924.4,149.4c-0.3,2-0.5,4.1-0.7,6.1c-0.1,0.5,0.7,0.5,0.8,0c0.2-2,0.4-4,0.7-5.9
				C925.2,149.1,924.4,148.9,924.4,149.4L924.4,149.4z"/>
		</g>
	</g>
	<g>
		<g>
			<path class="st9" d="M924.7,149.8c3.3,0.6,6.7,1.2,10,1.8c0.5,0.1,0.7-0.7,0.2-0.8c-3.3-0.6-6.7-1.2-10-1.8
				C924.4,148.9,924.2,149.6,924.7,149.8L924.7,149.8z"/>
		</g>
	</g>
	<g>
		<g>
			<path class="st9" d="M915.6,202.9c-0.2,2.7-1.3,5.3-2.1,7.8c-0.8,2.5-1.7,5.1-2.7,7.6c-0.2,0.5,0.6,0.7,0.7,0.2
				c1-2.7,2-5.5,2.9-8.3c0.8-2.4,1.8-4.9,1.9-7.4C916.4,202.4,915.7,202.4,915.6,202.9L915.6,202.9z"/>
		</g>
	</g>
	<g>
		<g>
			<path class="st9" d="M915.9,202.8c5.9,1.1,11.9,1.8,17.9,2c-0.1-0.1-0.3-0.3-0.4-0.4c0.2,5.3-0.8,10.5-3,15.3
				c-0.2,0.4,0.4,0.8,0.6,0.4c2.3-4.9,3.3-10.3,3.1-15.7c0-0.2-0.2-0.4-0.4-0.4c-5.9-0.3-11.9-0.9-17.7-2
				C915.7,202,915.5,202.7,915.9,202.8L915.9,202.8z"/>
		</g>
	</g>
	<g>
		<g>
			<path class="st9" d="M914.2,210.9c5.7,2.3,11.9,3.1,18.1,2.3c0.5-0.1,0.5-0.8,0-0.8c-6.1,0.8-12.2,0-17.9-2.3
				C914,209.9,913.8,210.7,914.2,210.9L914.2,210.9z"/>
		</g>
	</g>
	<g>
		<g>
			<path class="st9" d="M926.4,209.4c-0.2,1.1-0.4,2.1-0.6,3.2c-0.1,0.5,0.6,0.7,0.7,0.2c0.2-1.1,0.4-2.1,0.6-3.2
				C927.2,209.2,926.5,209,926.4,209.4L926.4,209.4z"/>
		</g>
	</g>
	<g>
		<g>
			<path class="st9" d="M915.9,217.1c-0.3,0-0.3-0.5-0.3-0.7c0.1-0.3,0.2-0.5,0.5-0.6c0.5-0.3,1-0.2,1.3,0.3c0.6,1-0.6,2-1.5,1.3
				c-0.4-0.3-0.9,0.2-0.5,0.6c0.7,0.6,1.8,0.6,2.5-0.1c0.7-0.7,0.5-2-0.2-2.6c-0.8-0.7-1.9-0.4-2.5,0.4c-0.6,0.8-0.3,2.1,0.7,2.3
				C916.4,217.9,916.4,217.1,915.9,217.1L915.9,217.1z"/>
		</g>
	</g>
	<g>
		<g>
			<path class="st9" d="M921.6,217.6c-0.5-0.1-0.8-0.7-0.5-1.1c0.3-0.5,1-0.5,1.4-0.1c0.3,0.3,0.5,0.9,0,1.2
				c-0.3,0.2-0.8,0.2-1.2,0.2c-0.5,0-0.5,0.8,0,0.8c0.7,0,1.7-0.1,2.1-0.8c0.4-0.9-0.1-1.9-0.9-2.2c-0.8-0.3-1.8,0-2.1,0.9
				c-0.3,0.9,0.2,1.9,1.1,2C921.9,218.5,922.1,217.7,921.6,217.6L921.6,217.6z"/>
		</g>
	</g>
	<g>
		<g>
			<path class="st9" d="M927.2,217.9c-1.1-0.3-0.5-1.9,0.5-1.5c0.4,0.1,0.6,0.7,0.5,1c-0.1,0.5-0.7,0.8-1.1,0.7
				c-0.5-0.1-0.7,0.7-0.2,0.8c0.9,0.2,1.8-0.3,2.1-1.2c0.2-0.8-0.3-1.8-1-2c-0.8-0.2-1.7,0.2-2,1c-0.3,0.9,0.3,1.8,1.1,2
				C927.5,218.8,927.7,218,927.2,217.9L927.2,217.9z"/>
		</g>
	</g>
	<g>
		<g>
			<path class="st9" d="M931.5,121.5c5,2.1,9.7,5,13.8,8.6c0.5,0.4,1.2-0.3,0.7-0.7c-4.3-3.7-9.1-6.7-14.3-8.9
				C931.2,120.3,931,121.3,931.5,121.5L931.5,121.5z"/>
		</g>
	</g>
	<g>
		<g>
			<path class="st9" d="M931.9,120.8c0.6-0.6,1.3-1.4,2.1-1.8c1.2-0.6,2.1-0.2,3.2,0.3c1.2,0.6,2.3,1.3,3.3,2.1
				c2.4,1.8,4.5,3.9,6.7,6.1c0.5,0.5,1.2-0.3,0.7-0.7c-2.7-2.7-5.4-5.5-8.7-7.5c-1.1-0.7-2.9-1.9-4.3-1.8c-1.4,0.1-2.8,1.6-3.7,2.5
				C930.7,120.6,931.4,121.3,931.9,120.8L931.9,120.8z"/>
		</g>
	</g>
	<g>
		<g>
			<path class="st9" d="M946.2,130.1c0.5-0.7,1.1-1.4,1.7-2.1c0.4-0.5-0.3-1.2-0.7-0.7c-0.6,0.8-1.2,1.5-1.8,2.3
				c-0.2,0.2,0,0.6,0.2,0.7C945.8,130.4,946,130.3,946.2,130.1L946.2,130.1z"/>
		</g>
	</g>
	<path class="st20" d="M892.2,122.4c4.6,1.3,9.5,2.5,14.6,3.6c6.3,1.3,12.2,2.3,17.8,3.1c-5.4,30.9-7.2,42.5-7.9,47
		c-0.1,0.8-0.8,5.9-1.9,12.6c-0.3,2.1-0.6,3.8-0.7,4.8c-1.6,0.1-3.1,0.2-4.7,0.3c-4,6.7-8,13.4-12,20c4.5,2,10.3,4.1,17.2,5.2
		c12.7,2.2,23.4,0.5,30.1-1.2c1.2-3.4,2.9-8.6,5-15c10.1-31.5,11-40.1,11.2-44.1c0.7-11,1.1-17.9-2.7-25.6
		c-7.7-15.6-29-20.3-30-20.5C908.9,109.3,894.6,120.4,892.2,122.4z"/>
	<path class="st21" d="M886.5,180.7c-0.2,0.1,0.4,4.2,3.5,6.5c1.4,1,2.9,1.4,3,1.3c0.1-0.2-1.9-1.2-3.9-3.4
		C887.1,182.7,886.6,180.7,886.5,180.7z"/>
	<path class="st22" d="M905.3,192.5c2,1.7,5.1,3.9,9.3,5.3c9.2,3.1,17.3,0.3,20-0.8c-4,0.2-9.1,0.2-14.8-0.7
		C914,195.4,909.1,193.9,905.3,192.5z"/>
	<path class="st23" d="M958.4,143.1c-2.8,15.9-6.1,28.9-8.8,38.2c-5.4,18.6-8.5,23-11.5,26c-10.2,10.4-25.2,10.7-31.9,10.4
		c5,1.1,11.1,2.1,18.1,2.3c8,0.3,15-0.4,20.7-1.4c4.2-11.2,7-20.8,9.1-28.3c5.8-22,5.9-31.9,5.5-38.2
		C959.1,148.3,958.7,145.2,958.4,143.1z"/>
</g>
<g id="hand_l">
	<path class="st10" d="M951.8,123.7c5.5,0.3,8.9,11.5,11,18.5c2.4,7.8,7.7,25.5-0.4,43.5c-4.9,10.9-12.8,17.7-21.1,24.7
		c-4.9,4.2-9.3,7.2-12.4,9.2c0.2,1.3,0.7,6.6-2.7,11.5c-4.3,6.3-11.3,6.9-12.3,7c4.2-5.6,4.8-6.8,4.7-7c-0.2-0.2-2.3,2.9-5.6,4.2
		c-3.5,1.3-7.2,0.2-9.6-0.8c1.8-0.8,4.4-2.2,6.8-4.7c1.4-1.5,2.5-3.2,2.3-3.4c-0.4-0.4-3,2.8-6.7,3c-2.3,0.1-4.3-1.1-5.4-2
		c1.4-0.2,4.6-0.9,7.4-3.6c1.7-1.6,2.6-3.3,3.2-4.4c-0.9-0.2-1.9-0.4-3-0.5c-2.6-0.2-4.7,0.2-6.2,0.6c3.3-4.4,6.7-6.4,9.2-7.3
		c4.3-1.7,7.1-1,11.2-3.6c2.4-1.5,3.8-3.3,5.4-5.5c8.1-11.5,14-19.7,14.6-30.6c0.6-11-4.8-11.5-4.5-22.6
		C937.8,136.8,945.6,123.4,951.8,123.7z"/>
	<g>
		<g>
			<path class="st9" d="M904,234.8c4.1,1,9.4-1.9,11.9-5.1c0.4-0.5-0.3-1.2-0.7-0.7c-2.3,2.9-7.2,5.7-10.9,4.9
				C903.6,233.7,903.4,234.7,904,234.8L904,234.8z"/>
		</g>
	</g>
	<g>
		<g>
			<path class="st9" d="M942.1,165.7c3.3-4,8.5-5,13.4-5.3c0.5,0,0.5-0.8,0-0.8c-5.1,0.4-10.4,1.3-13.9,5.5
				C941.2,165.5,941.8,166,942.1,165.7L942.1,165.7z"/>
		</g>
	</g>
	<g>
		<g>
			<path class="st9" d="M955.1,160.5c0.6,3.1,0.7,6.1,0.4,9.3c-0.1,0.5,0.7,0.5,0.8,0c0.4-3.2,0.2-6.3-0.4-9.5
				C955.8,159.8,955,160,955.1,160.5L955.1,160.5z"/>
		</g>
	</g>
	<g>
		<g>
			<path class="st9" d="M942.3,174.2c3.7-3.1,8.4-3.7,13-4.2c0.5,0,0.5-0.8,0-0.8c-4.8,0.5-9.7,1.1-13.6,4.4
				C941.4,173.9,941.9,174.5,942.3,174.2L942.3,174.2z"/>
		</g>
	</g>
	<g>
		<g>
			<path class="st9" d="M942.4,169c3.6-3.5,8.3-5.3,13.2-5.3c0.5,0,0.5-0.8,0-0.8c-5.1-0.1-10,1.9-13.7,5.5
				C941.5,168.8,942,169.4,942.4,169L942.4,169z"/>
		</g>
	</g>
	<g>
		<g>
			<path class="st9" d="M960.5,138.3c0.2,0.7,0.6,1.2,1.1,1.7c0.4,0.3,0.9-0.2,0.5-0.6c-0.4-0.4-0.7-0.9-0.9-1.4
				C961,137.6,960.3,137.8,960.5,138.3L960.5,138.3z"/>
		</g>
	</g>
	<g>
		<g>
			<path class="st9" d="M964.9,175.8c-6.4,2.8-9.4,10.2-7,16.8c0.2,0.4,0.9,0.3,0.7-0.2c-2.3-6.4,0.5-13.2,6.6-15.9
				C965.7,176.3,965.3,175.6,964.9,175.8L964.9,175.8z"/>
		</g>
	</g>
	<g>
		<g>
			<path class="st9" d="M926.2,204.9c1.2,2.2,2.3,4.9,4,6.7c1.5,1.5,3.5,2.4,5.5,3c0.5,0.1,0.7-0.6,0.2-0.8
				c-2.1-0.6-4.1-1.5-5.5-3.2c-1.5-1.8-2.5-4.1-3.6-6.2C926.6,204.1,926,204.5,926.2,204.9L926.2,204.9z"/>
		</g>
	</g>
	<g>
		<g>
			<path class="st9" d="M941.4,200.7c1.4,1.8,2.9,3.4,4.7,4.9c0.4,0.3,0.9-0.2,0.5-0.6c-1.7-1.5-3.3-3.1-4.7-4.9
				C941.6,199.7,941.1,200.2,941.4,200.7L941.4,200.7z"/>
		</g>
	</g>
	<g>
		<g>
			<path class="st9" d="M942.2,200.3c0.4-0.6,0.9-1.5,1.5-1.9c1-0.7,1.4,0,2.2,0.5c1.4,0.9,2.6,1.9,3.9,3c0.4,0.3,0.9-0.2,0.5-0.6
				c-0.9-0.8-1.9-1.5-2.8-2.3c-0.8-0.6-1.9-1.7-2.8-1.9c-1.4-0.3-2.5,1.8-3.1,2.7C941.2,200.3,941.9,200.8,942.2,200.3L942.2,200.3z
				"/>
		</g>
	</g>
	<path class="st24" d="M943.2,130.1c3.2,3.5,10.2,12.1,12.5,25.1c2.1,12.1-1.1,21.6-2.9,27.1c-6.8,20.2-21.9,31-27.5,34.5
		c-0.5,1.8-1.1,4.4-1.9,7.6c-1.1,4.5-1.1,5.1-1.7,6.3c-2.3,5.1-6.8,6.8-6.6,7.2c0.3,0.5,7.6-1.1,11.6-7.2c3-4.7,2.6-9.7,2.4-11.5
		c5.3-3.1,11.2-7.2,17.1-12.7c5.4-5.1,11-10.4,15.4-19.4c4.3-8.8,5.1-16.7,5.4-20.6c0.5-8.1-1-14-2.4-19.8
		c-2.4-9.5-5.6-21.8-12-22.6C951.3,124,948,124.1,943.2,130.1z"/>
	<path class="st21" d="M963.5,180.6c-4.7,8.1-9.5,14.1-13.3,18.3c-6.9,7.6-12.9,14-22.1,15.4c-2.5,0.4-4.6,0.3-6.1,0.1
		c1.1,0.4,3.4,1.4,4.7,3.7c1.8,3.2,0.4,6.9-0.6,9.5c-1.8,4.5-4.8,7.4-6.9,8.9c1.5-0.6,3.9-1.9,5.9-4.2c4.7-5.4,4-12.1,3.9-13.5
		c7.7-4.4,13.3-9.1,17.2-12.7c4.9-4.6,10.2-9.5,14.2-17.8C962,185.3,963,182.5,963.5,180.6z"/>
</g>
<g id="head">
	<path class="st10" d="M885.3,86.6c-1.8,7.7,1.7,14.1,4.5,19.3c2.8,5.1,5.1,9.4,10.2,11.4c0.5,0.2,7.2,2.8,13.6-0.8
		c7.1-4,8.2-12.5,8.7-16.4c0.4-3,1.5-11.5-3.9-18.5c-5.8-7.5-17.6-11.4-25.7-6.4C887.2,78.7,885.6,85.3,885.3,86.6z"/>
	<path class="st9" d="M882.8,98.2c-0.2-2.3-1.3-15.9,7.9-21.5c8.2-5.1,18,0.3,19.5,1.1c7.7,4.3,11.7,12.7,11.8,20.3
		c0,1.8,0.2,9.9-5.3,14.7c-2.8,2.4-5.9,3-10,3.8c-6,1.1-11.1,0.6-14.5,0c0.2,2,0.4,4,0.6,6c7.1,1.5,13,1.5,17.1,1.2
		c5.7-0.4,10.1-1.5,13-2.3c5.1-1.3,9.3-3,12.4-4.4c0.7-3.9,1.4-9.6,1.4-16.4c0-9.6,0.1-16-3.1-22.9c-1.3-2.8-6-13-17.3-16.9
		c-12.8-4.4-23.8,2.9-25.7,4.2c-2.6,1.8-8.9,6.7-11.8,15.8c-0.4,1.3-2.6,8.5-0.4,17.2c3.4,13.5,14.7,21.1,15.2,20.7
		C891.9,117.1,883.8,110,882.8,98.2z"/>
	<g id="Layer_5">
		<path class="st25" d="M888.8,98.4c0,0,7,2.6,13.3,1c6.4-1.6,10.8-3.9,14.8-8.6c0,0-2.3,18.9-12.7,19.7S888.8,98.4,888.8,98.4z"/>
		
			<ellipse transform="matrix(1.763628e-02 -0.9998 0.9998 1.763628e-02 789.6349 981.882)" class="st25" cx="894.5" cy="89.1" rx="3.3" ry="2.1"/>
		<path class="st25" d="M908.3,88.7c1.1,0,2.3,0.6,3.2,1c-0.2-2.3-1.5-4.4-3-4.5c-1.7-0.2-3.5,2-3.8,4.5
			C905.6,89.2,907.1,88.7,908.3,88.7z"/>
	</g>
</g>
</svg>
