<?xml version="1.0" encoding="utf-8"?>
<!-- Generator: Adobe Illustrator 23.0.1, SVG Export Plug-In . SVG Version: 6.00 Build 0)  -->
<svg version="1.1" xmlns="http://www.w3.org/2000/svg" xmlns:xlink="http://www.w3.org/1999/xlink" x="0px" y="0px"
	 viewBox="0 0 500 500" style="enable-background:new 0 0 500 500;" xml:space="preserve">
<style type="text/css">
	.st0{fill:#EBEBEB;}
	.st1{fill:#FAFAFA;}
	.st2{fill:#F5F5F5;}
	.st3{fill:#E0E0E0;}
	.st4{fill:#E6E6E6;}
	.st5{fill:#F0F0F0;}
	.st6{fill:#FFFFFF;}
	.st7{display:none;}
	.st8{display:inline;}
	.st9{fill:#407BFF;}
	.st10{opacity:0.9;fill:#FFFFFF;}
	.st11{fill:#7FB8EF;enable-background:new    ;}
	.st12{fill:#3D94C4;enable-background:new    ;}
	.st13{enable-background:new    ;}
	.st14{fill:#3D94C4;}
	.st15{fill:#5596E6;enable-background:new    ;}
	.st16{fill:none;stroke:#3D94C4;stroke-miterlimit:10;}
	.st17{fill:#263238;}
	.st18{opacity:0.3;fill:#FFFFFF;enable-background:new    ;}
	.st19{opacity:0.2;enable-background:new    ;}
	.st20{opacity:0.6;fill:#FFFFFF;enable-background:new    ;}
	.st21{fill:#EBB376;}
	.st22{fill:#5596E6;}
	.st23{opacity:0.8;fill:#FFFFFF;}
	.st24{opacity:0.4;fill:#FFFFFF;}
	.st25{opacity:0.2;fill:#FFFFFF;}
	.st26{fill:#D58745;}
	.st27{fill:#DE5753;}
	.st28{opacity:0.7;fill:#FFFFFF;enable-background:new    ;}
	.st29{opacity:0.3;fill:#FFFFFF;}
	.st30{opacity:0.4;enable-background:new    ;}
	.st31{opacity:0.4;fill:#FFFFFF;enable-background:new    ;}
	.st32{fill:#E4897B;}
	.st33{opacity:0.1;enable-background:new    ;}
	.st34{opacity:0.2;fill:#FFFFFF;enable-background:new    ;}
	.st35{opacity:0.5;fill:#FFFFFF;}
	.st36{fill:none;stroke:#263238;stroke-width:0.7247;stroke-linecap:round;stroke-linejoin:round;stroke-miterlimit:10;}
	.st37{fill:none;stroke:#263238;stroke-width:0.5;stroke-linecap:round;stroke-linejoin:round;stroke-miterlimit:10;}
	.st38{opacity:0.4;}
	.st39{opacity:0.5;fill:#FFFFFF;enable-background:new    ;}
</style>
<g id="Background_Complete">
	<g>
		<rect y="382.4" class="st0" width="500" height="0.3"/>
		<rect x="50.1" y="398.5" class="st0" width="33.1" height="0.3"/>
		<rect x="168.8" y="401.2" class="st0" width="8.7" height="0.3"/>
		<rect x="84.2" y="389.2" class="st0" width="19.2" height="0.3"/>
		<rect x="404.3" y="390.9" class="st0" width="43.2" height="0.3"/>
		<rect x="389.1" y="390.9" class="st0" width="6.3" height="0.3"/>
		<rect x="274.9" y="395.1" class="st0" width="93.7" height="0.3"/>
		<path class="st0" d="M257.3,332.1V60.7c0-3.1,2.6-5.7,5.7-5.7h193.1c3.1,0,5.7,2.6,5.7,5.7v271.4c0,3.1-2.6,5.7-5.7,5.7H263
			C259.8,337.8,257.3,335.2,257.3,332.1z M263,55.2c-3,0-5.5,2.4-5.5,5.5v271.4c0,3,2.4,5.5,5.5,5.5h193.1c3,0,5.5-2.4,5.5-5.5V60.7
			c0-3-2.4-5.5-5.5-5.5H263z"/>
		<path class="st0" d="M41,332.1V60.7c0-3.1,2.6-5.7,5.7-5.7h193.1c3.1,0,5.7,2.6,5.7,5.7v271.4c0,3.1-2.6,5.7-5.7,5.7H46.7
			C43.5,337.8,41,335.2,41,332.1z M46.7,55.2c-3,0-5.5,2.4-5.5,5.5v271.4c0,3,2.4,5.5,5.5,5.5h193.1c3,0,5.5-2.4,5.5-5.5V60.7
			c0-3-2.4-5.5-5.5-5.5H46.7z"/>
	</g>
	<g>
		<g>
			<g>
				<rect x="126.2" y="219" class="st1" width="25.5" height="10.8"/>
				<rect x="157" y="219" class="st1" width="25.5" height="10.8"/>
				<rect x="187.8" y="219" class="st1" width="25.5" height="10.8"/>
				<rect x="110.8" y="234.1" class="st1" width="25.5" height="10.8"/>
				<rect x="141.6" y="234.1" class="st1" width="25.5" height="10.8"/>
				<rect x="172.4" y="234.1" class="st1" width="25.5" height="10.8"/>
				<rect x="203.2" y="234.1" class="st1" width="25.5" height="10.8"/>
				<rect x="95.4" y="249.1" class="st1" width="25.5" height="10.8"/>
				<rect x="126.2" y="249.1" class="st1" width="25.5" height="10.8"/>
				<rect x="157" y="249.1" class="st1" width="25.5" height="10.8"/>
				<rect x="187.8" y="249.1" class="st1" width="25.5" height="10.8"/>
				<rect x="218.6" y="249.1" class="st1" width="25.5" height="10.8"/>
				<rect x="110.8" y="264.2" class="st1" width="25.5" height="10.8"/>
				<rect x="141.6" y="264.2" class="st1" width="25.5" height="10.8"/>
				<rect x="172.4" y="264.2" class="st1" width="25.5" height="10.8"/>
				<rect x="203.2" y="264.2" class="st1" width="25.5" height="10.8"/>
			</g>
			<g>
				<rect x="323.4" y="65.4" class="st1" width="25.5" height="10.8"/>
				<rect x="354.2" y="65.4" class="st1" width="25.5" height="10.8"/>
				<rect x="308" y="80.4" class="st1" width="25.5" height="10.8"/>
				<rect x="338.8" y="80.4" class="st1" width="25.5" height="10.8"/>
				<rect x="400.4" y="80.4" class="st1" width="25.5" height="10.8"/>
				<rect x="431.2" y="80.4" class="st1" width="25.5" height="10.8"/>
				<rect x="323.4" y="95.5" class="st1" width="25.5" height="10.8"/>
				<rect x="354.2" y="95.5" class="st1" width="25.5" height="10.8"/>
				<rect x="415.8" y="95.5" class="st1" width="25.5" height="10.8"/>
				<rect x="55.1" y="65.8" class="st1" width="25.5" height="10.8"/>
				<rect x="85.9" y="65.8" class="st1" width="25.5" height="10.8"/>
				<rect x="70.5" y="80.8" class="st1" width="25.5" height="10.8"/>
			</g>
			<g>
				<rect x="193.1" y="66" class="st1" width="25.5" height="10.8"/>
				<rect x="223.9" y="66" class="st1" width="25.5" height="10.8"/>
				<rect x="177.7" y="81.1" class="st1" width="25.5" height="10.8"/>
				<rect x="208.5" y="81.1" class="st1" width="25.5" height="10.8"/>
				<rect x="239.3" y="81.1" class="st1" width="25.5" height="10.8"/>
				<rect x="162.3" y="96.2" class="st1" width="25.5" height="10.8"/>
				<rect x="193.1" y="96.2" class="st1" width="25.5" height="10.8"/>
				<rect x="223.9" y="96.2" class="st1" width="25.5" height="10.8"/>
				<rect x="177.7" y="111.2" class="st1" width="25.5" height="10.8"/>
				<rect x="208.5" y="111.2" class="st1" width="25.5" height="10.8"/>
			</g>
			<g>
				<rect x="373.3" y="201.2" class="st1" width="25.5" height="10.8"/>
				<rect x="404.1" y="201.2" class="st1" width="25.5" height="10.8"/>
				<rect x="296.3" y="216.3" class="st1" width="25.5" height="10.8"/>
				<rect x="357.9" y="216.3" class="st1" width="25.5" height="10.8"/>
				<rect x="388.7" y="216.3" class="st1" width="25.5" height="10.8"/>
				<rect x="280.9" y="231.3" class="st1" width="25.5" height="10.8"/>
				<rect x="311.7" y="231.3" class="st1" width="25.5" height="10.8"/>
				<rect x="373.3" y="231.3" class="st1" width="25.5" height="10.8"/>
				<rect x="404.1" y="231.3" class="st1" width="25.5" height="10.8"/>
				<rect x="357.9" y="246.4" class="st1" width="25.5" height="10.8"/>
				<rect x="388.7" y="246.4" class="st1" width="25.5" height="10.8"/>
			</g>
			<g>
				<rect x="256.4" y="301.8" class="st1" width="25.5" height="10.8"/>
				<rect x="287.2" y="301.8" class="st1" width="25.5" height="10.8"/>
				<rect x="318" y="301.8" class="st1" width="25.5" height="10.8"/>
				<rect x="348.8" y="301.8" class="st1" width="25.5" height="10.8"/>
				<rect x="241" y="316.9" class="st1" width="25.5" height="10.8"/>
				<rect x="271.8" y="316.9" class="st1" width="25.5" height="10.8"/>
				<rect x="333.4" y="316.9" class="st1" width="25.5" height="10.8"/>
				<rect x="225.6" y="332" class="st1" width="25.5" height="10.8"/>
				<rect x="256.4" y="332" class="st1" width="25.5" height="10.8"/>
				<rect x="287.2" y="332" class="st1" width="25.5" height="10.8"/>
				<rect x="241" y="347.1" class="st1" width="25.5" height="10.8"/>
				<rect x="271.8" y="347.1" class="st1" width="25.5" height="10.8"/>
				<rect x="302.6" y="347.1" class="st1" width="25.5" height="10.8"/>
			</g>
			<g>
				<rect x="82.3" y="301.2" class="st1" width="25.5" height="10.8"/>
				<rect x="113.1" y="301.2" class="st1" width="25.5" height="10.8"/>
				<rect x="143.9" y="301.2" class="st1" width="25.5" height="10.8"/>
				<rect x="66.8" y="316.2" class="st1" width="25.5" height="10.8"/>
				<rect x="97.7" y="316.2" class="st1" width="25.5" height="10.8"/>
				<rect x="128.5" y="316.2" class="st1" width="25.5" height="10.8"/>
				<rect x="159.3" y="316.2" class="st1" width="25.5" height="10.8"/>
				<rect x="51.4" y="331.3" class="st1" width="25.5" height="10.8"/>
				<rect x="82.3" y="331.3" class="st1" width="25.5" height="10.8"/>
				<rect x="113.1" y="331.3" class="st1" width="25.5" height="10.8"/>
				<rect x="143.9" y="331.3" class="st1" width="25.5" height="10.8"/>
				<rect x="66.8" y="346.4" class="st1" width="25.5" height="10.8"/>
				<rect x="97.7" y="346.4" class="st1" width="25.5" height="10.8"/>
				<rect x="128.5" y="346.4" class="st1" width="25.5" height="10.8"/>
				<rect x="159.3" y="346.4" class="st1" width="25.5" height="10.8"/>
			</g>
		</g>
		<g>
			
				<rect x="279.2" y="79.8" transform="matrix(-1 -1.224647e-16 1.224647e-16 -1 630.458 254.6271)" class="st2" width="72.1" height="95.1"/>
			<polygon class="st0" points="326.8,89.9 326.8,131.7 310.1,130.8 308.2,89.9 			"/>
			<polygon class="st3" points="313.3,98 287.6,98 287.9,134.6 301.1,134.8 			"/>
			<polygon class="st4" points="338.2,92.6 331.5,92.6 333.8,125.2 342.3,127.3 			"/>
		</g>
		<g>
			<rect x="373.3" y="116.1" class="st4" width="71.8" height="87.4"/>
			<polygon class="st3" points="428.7,181.8 390.9,144.7 431.7,138 			"/>
			<polygon class="st5" points="391.8,173 389.9,144.6 418.4,151.6 420.4,173.3 			"/>
			
				<ellipse transform="matrix(0.9732 -0.2298 0.2298 0.9732 -19.0821 102.1202)" class="st1" cx="429" cy="133" rx="11.5" ry="11.5"/>
			<path class="st3" d="M395.5,183.2c0-3.1-2.5-5.6-5.6-5.6s-5.6,2.5-5.6,5.6c0,3.1,2.5,5.6,5.6,5.6S395.5,186.3,395.5,183.2z"/>
			<polygon class="st2" points="391.3,193 407.4,183.2 393.8,172.1 			"/>
			
				<rect x="410.3" y="127.2" transform="matrix(-1 -1.224647e-16 1.224647e-16 -1 823.682 324.1794)" class="st3" width="3.2" height="69.8"/>
			
				<rect x="380" y="127.2" transform="matrix(-1 -1.224647e-16 1.224647e-16 -1 764.0876 321.092)" class="st0" width="4.1" height="66.7"/>
			
				<rect x="417" y="173.3" transform="matrix(-1 -1.224647e-16 1.224647e-16 -1 854.8704 367.5462)" class="st0" width="20.9" height="20.9"/>
		</g>
		<g>
			
				<rect x="52.9" y="98.5" transform="matrix(-1 -1.224647e-16 1.224647e-16 -1 270.3281 343)" class="st4" width="164.4" height="145.9"/>
			<rect x="57.3" y="102.5" class="st5" width="156" height="138"/>
			<polygon class="st6" points="176.7,102.5 213.3,240.2 213.3,175.5 193.9,102.5 			"/>
			<polygon class="st6" points="163.7,102.5 200.6,240.5 206.5,240.5 169.6,102.5 			"/>
			<polygon class="st6" points="57.3,189.6 57.3,211.7 64.7,240.5 70.6,240.5 			"/>
			
				<rect x="158.9" y="100.1" transform="matrix(-1 -1.224647e-16 1.224647e-16 -1 320.3453 343.6802)" class="st4" width="2.6" height="143.6"/>
			
				<rect x="107.9" y="100.1" transform="matrix(-1 -1.224647e-16 1.224647e-16 -1 218.4918 343.6802)" class="st4" width="2.6" height="143.6"/>
		</g>
	</g>
</g>
<g id="Background_Simple" class="st7">
	<g class="st8">
		<path class="st9" d="M125.9,190.9c-6-1.1-12.1-1.2-18.5,0.5c-31.7,8.5-32,48.7-22.8,73.9c14.8,40.8,49.3,73.5,90,88.5
			c40.8,15,87.1,12.8,127.3-3.6c40.2-16.4,74.3-46.4,97.9-82.9c26.3-40.6,50.3-99.6,21.8-145.2c-21.1-33.7-65.5-51.1-103.8-40
			c-7.9,2.3-15.4,5.8-22.2,10.3c-26.6,17.7-37.7,48.3-54.4,74.2c-11.4,17.7-28.1,35.5-49.5,39.9C168.3,211.5,148,195.1,125.9,190.9z
			"/>
		<path class="st10" d="M125.9,190.9c-6-1.1-12.1-1.2-18.5,0.5c-31.7,8.5-32,48.7-22.8,73.9c14.8,40.8,49.3,73.5,90,88.5
			c40.8,15,87.1,12.8,127.3-3.6c40.2-16.4,74.3-46.4,97.9-82.9c26.3-40.6,50.3-99.6,21.8-145.2c-21.1-33.7-65.5-51.1-103.8-40
			c-7.9,2.3-15.4,5.8-22.2,10.3c-26.6,17.7-37.7,48.3-54.4,74.2c-11.4,17.7-28.1,35.5-49.5,39.9C168.3,211.5,148,195.1,125.9,190.9z
			"/>
	</g>
</g>
<g id="Shadow_1_">
	<ellipse id="_x3C_Path_x3E__359_" class="st2" cx="250" cy="416.2" rx="193.9" ry="11.3"/>
</g>
<g id="Plant_1">
	<g>
		<g>
			<path class="st9" d="M69.3,339.5c0.2,1.5-3.8,2.4-7,3c0.3,2.7,2,5.4,4.5,7.9c3.1-1.7,7.5-4,8.3-3.5c0.9,0.6-3.6,3.5-6.4,5.2
				c2,1.8,4.2,3.4,6.4,4.8c1.4-1.3,3-2.4,4-1.8c1,0.6,0.7,2.6,0.2,4.4c3.4,2,5.9,3.1,5.9,3.1s1.4-4.3,2.2-9.5
				c-0.2-0.3-0.3-0.7-0.5-1c-0.5-1.3,0-1.8,0.9-2c0.2-2.3,0.3-4.7,0.1-6.9c-3.8-0.8-8.4-2.3-6.7-4.6c1-1.4,3-1.5,4.9-1.2
				c-0.3-0.5-0.6-0.9-0.9-1.3c-6.9-7.6-11.7,0-11.7,0c-4-3.3-9.7-2.4-10.9,2.8C64.7,338.6,69,337.7,69.3,339.5z"/>
			<path class="st11" d="M69.3,339.5c0.2,1.5-3.8,2.4-7,3c0.3,2.7,2,5.4,4.5,7.9c3.1-1.7,7.5-4,8.3-3.5c0.9,0.6-3.6,3.5-6.4,5.2
				c2,1.8,4.2,3.4,6.4,4.8c1.4-1.3,3-2.4,4-1.8c1,0.6,0.7,2.6,0.2,4.4c3.4,2,5.9,3.1,5.9,3.1s1.4-4.3,2.2-9.5
				c-0.2-0.3-0.3-0.7-0.5-1c-0.5-1.3,0-1.8,0.9-2c0.2-2.3,0.3-4.7,0.1-6.9c-3.8-0.8-8.4-2.3-6.7-4.6c1-1.4,3-1.5,4.9-1.2
				c-0.3-0.5-0.6-0.9-0.9-1.3c-6.9-7.6-11.7,0-11.7,0c-4-3.3-9.7-2.4-10.9,2.8C64.7,338.6,69,337.7,69.3,339.5z"/>
		</g>
		<g>
			<g>
				<path class="st12" d="M77.9,395.5l-1-0.1c0-0.5,4.1-51.5-7.4-56.3c-1.2-0.5-2.4-0.5-3.5,0.1c-4.1,2.2-6.1,11.1-6.1,11.2l-1-0.2
					c0.1-0.4,2.1-9.5,6.7-11.8c1.4-0.7,2.8-0.8,4.3-0.1C82.1,343.3,78.1,393.4,77.9,395.5z"/>
			</g>
			<g class="st13">
				<path class="st14" d="M79.4,394.4c-0.2-2.3-4.9-56.3,3.9-62c2.1-1.4,4-1.7,5.5-0.9c4.1,2.1,4.7,10.9,4.7,11.3l-1,0.1
					c0-0.1-0.5-8.6-4.1-10.4c-1.2-0.6-2.8-0.4-4.5,0.8c-8.2,5.4-3.5,60.5-3.4,61.1L79.4,394.4z"/>
			</g>
			<g class="st13">
				<path class="st14" d="M80.7,398.8c-0.1-1.8-1.5-43.1,6.5-46.7c1.6-0.7,3.2-0.7,4.7,0c5.5,2.4,8.8,12.6,9,13l-1,0.3
					c0-0.1-3.4-10.2-8.4-12.4c-1.3-0.6-2.6-0.6-3.9,0c-6.1,2.8-6.3,34-5.9,45.7L80.7,398.8z"/>
			</g>
			<g>
				<path class="st12" d="M78.7,396.9l-1-0.1c1.4-12.3,4.1-45.1-0.3-49c-0.7-0.6-1.2-0.8-1.8-0.6c-2.9,1.1-4.7,11.8-5.2,15.8l-1-0.1
					c0.2-1.5,1.8-15.1,5.8-16.6c0.9-0.4,1.9-0.1,2.8,0.7C83.7,352.1,78.9,395.1,78.7,396.9z"/>
			</g>
		</g>
		<g>
			<polygon class="st12" points="62,373.6 97.9,373.6 94.9,413.8 65,413.8 			"/>
			<polygon class="st15" points="72.9,373.6 73.9,413.8 94.9,413.8 97.9,373.6 			"/>
		</g>
		<g>
			<path class="st9" d="M66.9,358.8c-0.4,1-3.2,0.2-5.4-0.6c-0.8,1.7-0.6,4,0.1,6.4c2.5,0,6,0.1,6.3,0.7c0.3,0.7-3.4,0.9-5.8,1
				c0.6,1.8,1.4,3.5,2.3,5.2c1.3-0.3,2.7-0.5,3.1,0.2c0.4,0.7-0.5,1.9-1.4,2.8c1.4,2.4,2.5,4,2.5,4s2.3-2.2,4.7-5.1
				c0-0.3,0-0.5,0-0.8c0.1-1,0.6-1.1,1.2-0.9c0.9-1.3,1.8-2.8,2.4-4.2c-2.1-1.8-4.4-4.3-2.6-5.1c1.1-0.5,2.3,0.1,3.5,1
				c0-0.4-0.1-0.7-0.1-1.1c-1.7-7.1-7.2-4-7.2-4c-1.3-3.4-5.1-4.8-7.7-2C64.4,356.7,67.3,357.6,66.9,358.8z"/>
			<path class="st11" d="M66.9,358.8c-0.4,1-3.2,0.2-5.4-0.6c-0.8,1.7-0.6,4,0.1,6.4c2.5,0,6,0.1,6.3,0.7c0.3,0.7-3.4,0.9-5.8,1
				c0.6,1.8,1.4,3.5,2.3,5.2c1.3-0.3,2.7-0.5,3.1,0.2c0.4,0.7-0.5,1.9-1.4,2.8c1.4,2.4,2.5,4,2.5,4s2.3-2.2,4.7-5.1
				c0-0.3,0-0.5,0-0.8c0.1-1,0.6-1.1,1.2-0.9c0.9-1.3,1.8-2.8,2.4-4.2c-2.1-1.8-4.4-4.3-2.6-5.1c1.1-0.5,2.3,0.1,3.5,1
				c0-0.4-0.1-0.7-0.1-1.1c-1.7-7.1-7.2-4-7.2-4c-1.3-3.4-5.1-4.8-7.7-2C64.4,356.7,67.3,357.6,66.9,358.8z"/>
		</g>
		<g>
			<path class="st9" d="M93.5,363.6c-1.1,0.1-2.2,0.3-3.3,0.7c-0.3-0.8-0.5-1.5-0.5-2.4c-0.2-7.2,5-4.2,7.7-6.3
				c1.4-1.1,3-1.7,4.6-1.4c-0.2,0.4-0.4,0.8-0.6,1.2c-0.3,0.7,0.2,1.4,0.9,1.5c0.7,0.1,1.4,0.1,2-0.2c0.2-0.1,0.4-0.2,0.5-0.4
				c0.4,0.6,0.7,1.4,1,2.4c0.3,1,0.4,2.1,0.5,3.1c-0.4,0.1-0.8,0.2-1.2,0.3c-0.6,0.2-1,1.2-0.5,1.7c0.4,0.4,0.9,0.8,1.5,1
				c-0.2,1.2-0.5,2.3-0.9,3.4c-0.1,0-0.2,0-0.4,0.1c-0.3,0.1-0.5,0.1-0.8,0.2c-0.1,0-0.3,0.1-0.4,0.2c-0.4,0.2-0.6,0.5-0.7,0.9
				c-0.1,0.4,0.1,0.8,0.4,1c0.2,0.1,0.4,0.2,0.5,0.3c-0.8,1.3-1.8,2.3-2.9,2.9c0,0-1.3-0.6-3.1-1.6c0.2-0.3,0.4-0.6,0.6-0.9
				c0.2-0.4,0.3-0.7,0.3-1.1c0-0.4-0.3-0.8-0.6-1c-0.3-0.2-0.8-0.4-1.1-0.3c-0.4,0-0.8,0.3-1,0.6c-0.2,0.4-0.5,0.7-0.8,1
				c-1.3-1-2.6-2.2-3.7-3.6c0,0,0.1,0,0.1,0c0.7-0.2,1.4-0.3,2-0.3c0.9-0.1,1.4-0.9,1.3-1.7C95.2,364.1,94.3,363.5,93.5,363.6z"/>
			<path class="st11" d="M93.5,363.6c-1.1,0.1-2.2,0.3-3.3,0.7c-0.3-0.8-0.5-1.5-0.5-2.4c-0.2-7.2,5-4.2,7.7-6.3
				c1.4-1.1,3-1.7,4.6-1.4c-0.2,0.4-0.4,0.8-0.6,1.2c-0.3,0.7,0.2,1.4,0.9,1.5c0.7,0.1,1.4,0.1,2-0.2c0.2-0.1,0.4-0.2,0.5-0.4
				c0.4,0.6,0.7,1.4,1,2.4c0.3,1,0.4,2.1,0.5,3.1c-0.4,0.1-0.8,0.2-1.2,0.3c-0.6,0.2-1,1.2-0.5,1.7c0.4,0.4,0.9,0.8,1.5,1
				c-0.2,1.2-0.5,2.3-0.9,3.4c-0.1,0-0.2,0-0.4,0.1c-0.3,0.1-0.5,0.1-0.8,0.2c-0.1,0-0.3,0.1-0.4,0.2c-0.4,0.2-0.6,0.5-0.7,0.9
				c-0.1,0.4,0.1,0.8,0.4,1c0.2,0.1,0.4,0.2,0.5,0.3c-0.8,1.3-1.8,2.3-2.9,2.9c0,0-1.3-0.6-3.1-1.6c0.2-0.3,0.4-0.6,0.6-0.9
				c0.2-0.4,0.3-0.7,0.3-1.1c0-0.4-0.3-0.8-0.6-1c-0.3-0.2-0.8-0.4-1.1-0.3c-0.4,0-0.8,0.3-1,0.6c-0.2,0.4-0.5,0.7-0.8,1
				c-1.3-1-2.6-2.2-3.7-3.6c0,0,0.1,0,0.1,0c0.7-0.2,1.4-0.3,2-0.3c0.9-0.1,1.4-0.9,1.3-1.7C95.2,364.1,94.3,363.5,93.5,363.6z"/>
		</g>
		<g>
			<path class="st9" d="M95.6,338.6c0.6-0.5,1.3-0.8,2-1.1c-0.2-0.5-0.4-1-0.8-1.5c-3.1-3.9-4.4,0-6.8,0.1c-1.2,0-2.4,0.4-3,1.3
				c0.3,0.1,0.6,0.2,0.9,0.4c0.5,0.2,0.5,0.8,0.2,1.2c-0.3,0.4-0.7,0.7-1.2,0.8c-0.1,0-0.3,0-0.4,0c0.1,0.5,0.3,1.1,0.5,1.7
				c0.3,0.7,0.7,1.3,1.1,1.8c0.3-0.1,0.5-0.3,0.8-0.4c0.4-0.2,1,0.2,1,0.7c0,0.4-0.1,0.8-0.3,1.2c0.6,0.5,1.3,1,2,1.4
				c0.1,0,0.1-0.1,0.2-0.1c0.2-0.1,0.3-0.2,0.5-0.2c0.1,0,0.2-0.1,0.3-0.1c0.3-0.1,0.5,0,0.7,0.2c0.2,0.2,0.3,0.5,0.2,0.7
				c0,0.1-0.1,0.3-0.1,0.4c1,0.3,2,0.4,2.8,0.3c0,0,0.4-0.9,0.9-2.2c-0.2-0.1-0.5-0.1-0.7-0.2c-0.3-0.1-0.5-0.2-0.7-0.5
				c-0.2-0.2-0.2-0.5-0.1-0.8c0-0.3,0.2-0.5,0.5-0.7c0.2-0.1,0.5-0.2,0.8-0.1c0.3,0.1,0.6,0.1,0.9,0.2c0.3-1.1,0.4-2.3,0.4-3.5
				c0,0-0.1,0-0.1,0c-0.4,0.2-0.8,0.4-1.2,0.7c-0.5,0.3-1.1,0.1-1.5-0.3C94.9,339.6,95.2,338.9,95.6,338.6z"/>
			<path class="st11" d="M95.6,338.6c0.6-0.5,1.3-0.8,2-1.1c-0.2-0.5-0.4-1-0.8-1.5c-3.1-3.9-4.4,0-6.8,0.1c-1.2,0-2.4,0.4-3,1.3
				c0.3,0.1,0.6,0.2,0.9,0.4c0.5,0.2,0.5,0.8,0.2,1.2c-0.3,0.4-0.7,0.7-1.2,0.8c-0.1,0-0.3,0-0.4,0c0.1,0.5,0.3,1.1,0.5,1.7
				c0.3,0.7,0.7,1.3,1.1,1.8c0.3-0.1,0.5-0.3,0.8-0.4c0.4-0.2,1,0.2,1,0.7c0,0.4-0.1,0.8-0.3,1.2c0.6,0.5,1.3,1,2,1.4
				c0.1,0,0.1-0.1,0.2-0.1c0.2-0.1,0.3-0.2,0.5-0.2c0.1,0,0.2-0.1,0.3-0.1c0.3-0.1,0.5,0,0.7,0.2c0.2,0.2,0.3,0.5,0.2,0.7
				c0,0.1-0.1,0.3-0.1,0.4c1,0.3,2,0.4,2.8,0.3c0,0,0.4-0.9,0.9-2.2c-0.2-0.1-0.5-0.1-0.7-0.2c-0.3-0.1-0.5-0.2-0.7-0.5
				c-0.2-0.2-0.2-0.5-0.1-0.8c0-0.3,0.2-0.5,0.5-0.7c0.2-0.1,0.5-0.2,0.8-0.1c0.3,0.1,0.6,0.1,0.9,0.2c0.3-1.1,0.4-2.3,0.4-3.5
				c0,0-0.1,0-0.1,0c-0.4,0.2-0.8,0.4-1.2,0.7c-0.5,0.3-1.1,0.1-1.5-0.3C94.9,339.6,95.2,338.9,95.6,338.6z"/>
		</g>
		<g>
			<path class="st9" d="M66.3,345.9c-0.2,1.5,3.8,2.4,7,3c-0.3,2.7-2,5.4-4.5,7.9c-3.1-1.7-7.5-4-8.3-3.5c-0.9,0.6,3.6,3.5,6.4,5.2
				c-2,1.8-4.2,3.4-6.4,4.8c-1.4-1.3-3-2.4-4-1.8c-1,0.6-0.7,2.6-0.2,4.4c-3.4,2-5.9,3.1-5.9,3.1s-1.4-4.3-2.2-9.5
				c0.2-0.3,0.3-0.7,0.5-1c0.5-1.3,0-1.8-0.9-2c-0.2-2.3-0.3-4.7-0.1-6.9c3.8-0.8,8.4-2.3,6.7-4.5c-1-1.4-3-1.5-4.9-1.2
				c0.3-0.5,0.6-0.9,0.9-1.3c6.9-7.6,11.7,0,11.7,0c4-3.3,9.7-2.4,10.9,2.8C70.9,344.9,66.6,344.1,66.3,345.9z"/>
			<path class="st15" d="M66.3,345.9c-0.2,1.5,3.8,2.4,7,3c-0.3,2.7-2,5.4-4.5,7.9c-3.1-1.7-7.5-4-8.3-3.5c-0.9,0.6,3.6,3.5,6.4,5.2
				c-2,1.8-4.2,3.4-6.4,4.8c-1.4-1.3-3-2.4-4-1.8c-1,0.6-0.7,2.6-0.2,4.4c-3.4,2-5.9,3.1-5.9,3.1s-1.4-4.3-2.2-9.5
				c0.2-0.3,0.3-0.7,0.5-1c0.5-1.3,0-1.8-0.9-2c-0.2-2.3-0.3-4.7-0.1-6.9c3.8-0.8,8.4-2.3,6.7-4.5c-1-1.4-3-1.5-4.9-1.2
				c0.3-0.5,0.6-0.9,0.9-1.3c6.9-7.6,11.7,0,11.7,0c4-3.3,9.7-2.4,10.9,2.8C70.9,344.9,66.6,344.1,66.3,345.9z"/>
		</g>
	</g>
</g>
<g id="Plant_2">
	<g>
		<g>
			<path class="st16" d="M403.3,345.6c0,0,6.3-5.3,11.8,0c5.4,5.3,6.5,38.1,6.5,38.1"/>
			<path class="st16" d="M422.1,390c0,0-3.7-38.5,10.3-54.6"/>
			<path class="st16" d="M420.7,385.9c0,0,2.9-43.8-7.7-53.5"/>
			<path class="st16" d="M422.1,385.9c0,0,0.2-28.9,8.1-33.4c7.9-4.5,11.9,10.2,11.9,10.2"/>
			<path class="st16" d="M418.9,385.9c0,0,1.3-22.2-4.8-30.2s-12.5,3.4-12.5,3.4"/>
			<path class="st16" d="M421.1,388.9c0,0-3.9-52,2.6-60.8"/>
		</g>
		<g>
			<path class="st9" d="M436.9,356.7c0,0-3.9,1.4-2.8,4.9c1.2,3.4,13.5,9,13.5,9s5.2-4.8,0.4-12.5
				C443.3,350.4,437,354.3,436.9,356.7z"/>
			<path class="st11" d="M436.9,356.7c0,0-3.9,1.4-2.8,4.9c1.2,3.4,13.5,9,13.5,9s5.2-4.8,0.4-12.5
				C443.3,350.4,437,354.3,436.9,356.7z"/>
		</g>
		<g>
			<path class="st9" d="M419.9,350.2c0,0,4.2-0.2,4.4,3.4c0.2,3.6-9,13.5-9,13.5s-6.6-2.4-5.2-11.4S418.8,348,419.9,350.2z"/>
			<path class="st11" d="M419.9,350.2c0,0,4.2-0.2,4.4,3.4c0.2,3.6-9,13.5-9,13.5s-6.6-2.4-5.2-11.4S418.8,348,419.9,350.2z"/>
		</g>
		<g>
			<path class="st9" d="M416.3,333c0,0,2.8-0.3,2.6-2c-0.2-1.7-10.8-6.1-17,1c0,0,4,6.9,9.8,7C417.4,339.1,416.3,333,416.3,333z"/>
			<path class="st11" d="M416.3,333c0,0,2.8-0.3,2.6-2c-0.2-1.7-10.8-6.1-17,1c0,0,4,6.9,9.8,7C417.4,339.1,416.3,333,416.3,333z"/>
		</g>
		<g>
			<path class="st9" d="M421.5,328.9c0,0-2.5,1.2-3.2-0.3c-0.7-1.6,6-10.8,15-8.2c0,0,0.2,7.9-4.6,11.1
				C423.8,334.6,421.5,328.9,421.5,328.9z"/>
			<path class="st11" d="M421.5,328.9c0,0-2.5,1.2-3.2-0.3c-0.7-1.6,6-10.8,15-8.2c0,0,0.2,7.9-4.6,11.1
				C423.8,334.6,421.5,328.9,421.5,328.9z"/>
		</g>
		<g>
			<path class="st9" d="M408.3,355.4c0,0,1.9-1.5-0.2-2.3c-2.1-0.8-12.2-0.5-12.3,9.5c0,0,11.8,2,13.3-1.9
				C410.6,356.9,408.3,355.4,408.3,355.4z"/>
			<path class="st11" d="M408.3,355.4c0,0,1.9-1.5-0.2-2.3c-2.1-0.8-12.2-0.5-12.3,9.5c0,0,11.8,2,13.3-1.9
				C410.6,356.9,408.3,355.4,408.3,355.4z"/>
		</g>
		<g>
			<path class="st9" d="M432.5,332.8c0,0-1.9-1.5,0.2-2.3c2.1-0.8,12.2-0.5,12.3,9.5c0,0-11.8,2-13.3-1.9
				C430.2,334.3,432.5,332.8,432.5,332.8z"/>
			<path class="st11" d="M432.5,332.8c0,0-1.9-1.5,0.2-2.3c2.1-0.8,12.2-0.5,12.3,9.5c0,0-11.8,2-13.3-1.9
				C430.2,334.3,432.5,332.8,432.5,332.8z"/>
		</g>
		<g>
			<path class="st9" d="M426.2,340.9c0,0-0.2-1.9,1.4-1.1c1.5,0.7,6.8,6.5,1.3,11.9c0,0-7.4-5.5-6.1-8.3
				C424.2,340.4,426.2,340.9,426.2,340.9z"/>
			<path class="st11" d="M426.2,340.9c0,0-0.2-1.9,1.4-1.1c1.5,0.7,6.8,6.5,1.3,11.9c0,0-7.4-5.5-6.1-8.3
				C424.2,340.4,426.2,340.9,426.2,340.9z"/>
		</g>
		<g>
			<path class="st9" d="M406.6,343.6c0,0,1.1-1.5-0.5-1.7c-1.7-0.2-9.2,1.8-7.5,9.3c0,0,9.2-0.7,9.6-3.8
				C408.6,344.3,406.6,343.6,406.6,343.6z"/>
			<path class="st11" d="M406.6,343.6c0,0,1.1-1.5-0.5-1.7c-1.7-0.2-9.2,1.8-7.5,9.3c0,0,9.2-0.7,9.6-3.8
				C408.6,344.3,406.6,343.6,406.6,343.6z"/>
		</g>
		<polygon class="st9" points="437.6,413.8 406.1,413.8 402.8,379.4 441,379.4 		"/>
		<polygon class="st11" points="437.6,413.8 406.1,413.8 402.8,379.4 441,379.4 		"/>
		<rect x="401.1" y="375.6" class="st9" width="41.6" height="7.6"/>
		<rect x="401.1" y="375.6" class="st15" width="41.6" height="7.6"/>
	</g>
</g>
<g id="Character_2">
	<g>
		<g>
			<polygon class="st17" points="300.4,416 321.8,329 315.3,329 295,416 			"/>
			<polygon class="st18" points="300.4,416 320.3,335 321.8,329.2 315.3,329.2 313.9,335 295,416 			"/>
			<polygon class="st19" points="314,334.7 320.4,334.7 321.8,329.2 315.3,329.2 			"/>
		</g>
		<g>
			<polygon class="st17" points="337.1,416 337.6,329 331.2,329 331.8,416 			"/>
			<polygon class="st18" points="331.8,416 337.1,416 337.5,348.8 337.6,329.2 331.2,329.2 331.3,348.8 			"/>
			<polygon class="st19" points="337.6,329.2 337.5,349 331.3,349 331.2,329.2 			"/>
		</g>
		<g>
			<polygon class="st17" points="367.8,415.2 351.8,327.3 345.4,327 362.4,415 			"/>
			<polygon class="st18" points="362.4,415 367.8,415.2 352.9,333.4 351.9,327.5 345.4,327.2 346.6,333.1 			"/>
			<polygon class="st19" points="352.9,333.2 346.5,332.8 345.4,327.2 351.9,327.5 			"/>
		</g>
		<path class="st9" d="M379.8,254.2h-43.5c-4,0-7.6,2.6-9,6.4l-15.8,45.5c-1.2,3.4-4.4,5.7-8,5.7h-10.2c-3.3,0-5.5,3.5-4.1,6.5
			l3.9,8.1c1.8,3.8,5.7,6.3,10,6.3l60.3-0.2c5,0,9.4-3.4,10.7-8.3L389,266C390.5,260,386,254.2,379.8,254.2z"/>
		<path class="st20" d="M389,266l-14.9,58.1c-1.3,4.9-5.6,8.3-10.7,8.3l-60.3,0.2c-4.3,0-8.1-2.4-10-6.3l-0.3-0.7l-3.5-7.4
			c-1.4-3,0.8-6.5,4.1-6.5h10.2c3.6,0,6.8-2.3,8-5.7l15.8-45.5c1.3-3.8,4.9-6.4,9-6.4h43.5C386,254.2,390.5,260,389,266z"/>
		<path class="st19" d="M378.7,259.1l-14.9,58.1c-1.3,4.9-5.6,8.3-10.7,8.3l-60.3,0.2l-3.5-7.4c-1.4-3,0.8-6.5,4.1-6.5h10.2
			c3.6,0,6.8-2.3,8-5.7l15.8-45.5c1.3-3.8,4.9-6.4,9-6.4h42.3C379,255.7,379.1,257.4,378.7,259.1z"/>
	</g>
	<g id="_x3C_Group_x3E__12_">
		<path class="st21" d="M268.5,212.8l-20.8-32.3c0,0,0.9-4.4,0.7-5.5c-0.2-1.1-11-5.1-11.4-4.3c-0.4,0.7-3.2,9.5-1.4,11.3
			c1.8,1.8,7.2,4.5,7.2,4.5l18.1,34.2L268.5,212.8z"/>
		<polygon class="st21" points="314.1,405.9 305.4,404.7 304.2,383.9 312.9,385.2 		"/>
		<polygon class="st19" points="312.9,385.2 304.2,384 304.9,395.8 313.6,396.6 		"/>
		<path class="st17" d="M314,295.3l1.9-12.2l44.7-2.7c0,0,4.7,25.3,1.1,32.1c-6.5,12.1-41.6,6-51.9,7.2c6.1,25.1,5.5,74.2,5.5,74.2
			l-14.7,1.1c0,0-11.3-52.9-13.6-78C285.6,300,299.6,300.5,314,295.3z"/>
		<polygon class="st9" points="317.1,394.6 299.5,395.7 297.9,388.2 317.3,387.3 		"/>
		<polygon class="st21" points="294.8,399.8 286,400.4 280.5,380.4 289.2,379.7 		"/>
		<g>
			<path class="st9" d="M284.8,400.7c0,0-0.1,0-0.1,0c0,0-0.2,0-0.2,0c0,0,0,0,0,0c0,0,0.2,0,0.2,0c0-0.1-0.4-2.6-1.5-3.2
				c-0.3-0.1-0.6-0.2-0.9,0c-0.3,0.1-0.6,0.4-0.5,0.8c0,0.5,0.6,1.2,1.3,1.8c-0.9-0.2-2-0.3-2.5,0.1c-0.2,0.2-0.3,0.4-0.3,0.7
				c0,0.4,0.2,0.8,0.6,1c0.6,0.2,1.2,0.2,1.7,0c0.7-0.2,1.5-0.5,2.2-0.9c0,0,0.1,0,0.1,0C284.7,400.9,284.7,400.9,284.8,400.7
				C284.8,400.8,284.8,400.8,284.8,400.7z M282.1,398.3c0-0.1,0-0.3,0.3-0.4l0.1,0c0.2,0,0.3,0,0.5,0.1c0.6,0.3,1.1,1.7,1.3,2.5
				c-0.1,0-0.1,0-0.2-0.1C283.2,399.9,282.2,398.9,282.1,398.3z M281,401.5c-0.2-0.1-0.3-0.4-0.3-0.7c0-0.1,0-0.3,0.1-0.3
				c0.5-0.4,2.1-0.1,3.3,0.3C282.6,401.5,281.5,401.8,281,401.5z"/>
		</g>
		<polygon class="st19" points="289.2,379.7 280.5,380.4 283.6,391.9 292.3,390.8 		"/>
		<path class="st17" d="M280.2,391l14.1-4.1c0,0-8.4-47.6-17-64.1c0.6-0.2,1.5-0.5,2.5-0.8c1.9-0.6,4.4-1.3,7.4-2.1
			c20.5-5.7,62.1-16.4,62.1-16.4l-19-17.7c0,0-75.7,11.5-77.3,31.5C252.3,326.9,280.2,391,280.2,391z"/>
		<polygon class="st9" points="296.1,387.2 279.1,392 276.1,384.9 294.8,380 		"/>
		<path class="st19" d="M279.9,322c1.9-0.6,4.4-1.3,7.4-2.1c-0.6-4.8-0.6-10.4,1.7-13.2c4.6-5.6,16.5-9,23.3-10.1
			c5.7-1,24.7-3,24.7-3s-24.7-2.4-50,5C274.5,302.2,276.9,314.4,279.9,322z"/>
		<g>
			<path class="st22" d="M363.1,288c2.3-2.9-9.3-26-13-46.6c-5.6-31.5-10.4-40.8-12.9-41.2c-4.4,0.3-8.7,1-13,2
				c-6.3,1.4-12.5,3.1-18.6,5.2c-4.1,1.6-8.1,3.5-12,5.8c0,0-1.9,35.1,16.5,80.2L363.1,288z"/>
			<path class="st23" d="M346.9,225.2C346.9,225.2,346.9,225.2,346.9,225.2c1,4.6,2.1,9.9,3.2,16.1c3.7,20.7,15.3,43.7,13,46.6
				l-53,5.2c-10.1-24.8-14.1-46.6-15.6-61.2c2.4-7.1,8.2-16.1,10.9-20.1c1.1,0.8,2.7,1.3,5,1.2c4-0.2,7.8-3.1,10.8-6.1
				c3.5,2.1,10.3,6.4,13.9,10.6c0.4,0.5,0.7,0.9,1,1.4c2.5,3.8,5.8-2.5,6.4-9.8C343.9,213,345.3,218.2,346.9,225.2z"/>
			
				<ellipse transform="matrix(0.9976 -6.862800e-02 6.862800e-02 0.9976 -16.5308 22.5132)" class="st9" cx="319.4" cy="251.8" rx="12.8" ry="14.6"/>
			<path class="st24" d="M331.7,256.1L331.7,256.1c-1.4,5.7-5.8,9.9-11.3,10.3c-1.6,0.1-3.2-0.1-4.7-0.7c-3.6-1.3-6.6-4.3-8.1-8.2
				c-0.6-1.5-0.9-3.1-1.1-4.8c-0.1-1.1,0-2.2,0.1-3.2c0.8-6.6,5.6-11.8,11.7-12.2c2.6-0.2,5,0.5,7.2,1.9c3.6,2.3,6.3,6.6,6.6,11.7
				c0,0,0,0.1,0,0.1C332.3,252.7,332.1,254.5,331.7,256.1z"/>
			<path class="st24" d="M313.9,252.4c-0.1,2.2-0.5,0-1.1,0.1c-0.6,0.1-0.3,1.3-0.1,1.8c0.2,0.5-0.2,1.6-0.3,2.1
				c-0.1,0.5-0.8,0.3-1.1,0c-0.3-0.3-1.3-1.4-2.3-1.5c-0.6-0.1-1,1.3-1.4,2.6c-0.6-1.5-0.9-3.1-1.1-4.8c-0.1-1.1,0-2.2,0.1-3.2
				c0.4,0.3,0.7,0.5,0.8,0.6c0.3,0.2,1,0.5,1,0.5s1.6-0.5,1.9-1.1c0.3-0.6,1.3-0.4,2.2,0C313.4,249.9,314,250.3,313.9,252.4z"/>
			<path class="st24" d="M331.7,256.1c-1.4,5.7-5.8,9.9-11.3,10.3c-1.6,0.1-3.2-0.1-4.7-0.7c-0.1-0.3-0.2-0.5-0.4-0.7
				c-0.5-0.8-0.3-1.7-0.4-2c-0.1-0.3,0-0.9,0.4-0.8c0.4,0.1,1.7,0,1.7,0s0.3-1.4,0.3-1.8c0-0.4-1.2-0.3-1.2-0.3l-0.8-1
				c0,0,0.3-1.3,0-2c-0.3-0.7,0.8-0.7,1.8-0.7c1,0,1.9,0.4,2.3,0.7c0.4,0.3,0.9,2.7,0,3.1c-0.9,0.4,0.5,1.1,1,1.7c0.5,0.6,1,0.1,2,0
				c1-0.1,1.6,0,1.6-0.5c0-0.5-0.2-1-0.8-1.2c-0.6-0.2-0.1-1.2,0-1.7c0.2-0.5,1-0.7,1.2-0.4c0.2,0.3,1.1,0.3,2.6,1
				c1.5,0.7,0.7,0,2.3,0c1.6,0,0.6-1.7,1-3.1C330.7,254.8,330.7,256,331.7,256.1z"/>
			<path class="st24" d="M322.8,246.6c-0.5-0.6-0.6-1.4,0.5-1.8c1-0.4,1.7-1.9,1.2-3.6c-0.2-0.8,0.4-1.5,1.1-2.1
				c3.6,2.3,6.3,6.6,6.6,11.7c-0.4-0.1-0.8-0.2-1.1-0.3c-1.1-0.4-0.7-1.1-1.4-2.1c-0.7-1-2.2,0.3-3.2,0c-1-0.3-0.3-1.3-1-1.8
				C324.9,246.1,323.3,247.2,322.8,246.6z"/>
			<path class="st24" d="M313,244.2c0.2-1.1,1.9-1,1.9-1s1.8-0.4,1.8,0.5c0,0.9-0.2,1.4,0,2.3c0.2,0.9-0.2,0.8-1,0.7
				c-0.8,0-1.3-0.6-1.3-0.6l-1.5-0.4V244.2z"/>
			<path class="st24" d="M316,253.5c-0.3-0.5,1.1-2.2,1.9-1.7c0.8,0.5,1.3,1.3,1.5,1.5c0.2,0.1,0.7-0.4,0.6,0.2s-1.1,1.6-1.7,1.4
				c-0.6-0.3-1.1-0.5-1.1-0.5S316.4,254.1,316,253.5z"/>
		</g>
		<g>
			<path class="st9" d="M323.2,197.5c-3.4-1.7-15.9,0.7-20.8,10.5l1.6,2.1c0,0,1.6-6.5,10.2-9.6c8.6-3.1,11.3,1.4,11.3,1.4
				S326.3,199,323.2,197.5z"/>
			<path class="st18" d="M323.2,197.5c-3.4-1.7-15.9,0.7-20.8,10.5l1.6,2.1c0,0,1.6-6.5,10.2-9.6c8.6-3.1,11.3,1.4,11.3,1.4
				S326.3,199,323.2,197.5z"/>
		</g>
		<path class="st21" d="M324.1,202.1c0,0-3.2,7-12,9.6c-7.6,2.3-6.6-4.5-6.6-4.5c3.5-2,3.4-3.4,2.2-5.1c-0.9-1.3-2.4-2.7-3.5-4.5
			l4.4-5.3l4.6-5.6C313.7,193,318.9,199.3,324.1,202.1z"/>
		<polygon class="st25" points="317.1,394.6 299.5,395.7 297.9,388.2 317.3,387.3 		"/>
		<polygon class="st25" points="296.1,387.2 279.1,392 276.1,384.9 294.8,380 		"/>
		<path class="st17" d="M285.1,399.5l9.5-2.7c0.3-0.1,0.7,0.1,0.8,0.4c0,0,0,0,0,0l2.6,7.4c0.2,0.8-0.2,1.7-1.1,1.9
			c-3.3,0.9-5,1.1-9.2,2.3c-2.6,0.7-7.6,2.4-11.3,2.8c-3.7,0.4-4-3.2-2.5-3.7c3.6-1.2,7.9-5,9.8-7.5
			C284.1,400,284.6,399.7,285.1,399.5z"/>
		<g>
			<path class="st9" d="M304.5,404.7C304.5,404.7,304.5,404.7,304.5,404.7C304.5,404.7,304.5,404.7,304.5,404.7
				c0-0.2-0.1-2.7-1.1-3.4c-0.2-0.2-0.7-0.3-1-0.2c-0.4,0-0.7,0.3-0.7,0.7c-0.1,0.5,0.3,1.3,0.9,2c-0.9-0.4-1.9-0.7-2.4-0.4
				c-0.2,0.1-0.4,0.3-0.4,0.6c-0.1,0.4,0,0.8,0.3,1.1c0.5,0.3,1.1,0.4,1.7,0.3c0.8-0.1,1.5-0.2,2.3-0.5c0,0,0,0,0.1,0c0,0,0,0,0-0.1
				c0,0,0.2-0.1,0.2-0.1C304.4,404.8,304.5,404.7,304.5,404.7C304.5,404.7,304.5,404.7,304.5,404.7z M302.1,401.8
				c0-0.1,0.1-0.3,0.4-0.3l0.1,0c0.2,0,0.3,0,0.4,0.2c0.6,0.5,0.7,1.9,0.7,2.7c-0.1,0-0.1-0.1-0.2-0.1
				C302.8,403.6,302.1,402.4,302.1,401.8z M300.3,404.7c-0.2-0.2-0.3-0.5-0.2-0.7c0-0.1,0.1-0.2,0.2-0.3c0.6-0.3,2.1,0.4,3.1,1
				C301.9,405.1,300.8,405.1,300.3,404.7z"/>
		</g>
		<path class="st17" d="M304.7,403.7l9.9-0.6c0.3,0,0.7,0.2,0.7,0.6c0,0,0,0,0,0l1,7.8c0.1,0.9-0.6,1.6-1.4,1.7
			c-3.4,0.2-5.1,0.1-9.4,0.3c-2.7,0.2-7.9,0.7-11.6,0.4c-3.7-0.4-3.2-4-1.6-4.2c3.8-0.4,8.8-3.2,11.1-5.3
			C303.7,403.9,304.2,403.7,304.7,403.7z"/>
		<path class="st19" d="M307.8,202.2c-0.9-1.3-2.4-2.7-3.5-4.5l4.4-5.3l3.9-1C312.6,191.3,313,198.3,307.8,202.2z"/>
		<g>
			<path class="st17" d="M320.5,180.5l0.5,6.2c0,0,2.7,1.9,2.4,2.8c-0.3,0.9-2.9-0.5-2.9-0.5s1.8,2.1,0.9,2.7
				c-0.9,0.6-2.5-0.9-2.5-0.9s0.2,2.6-0.6,3.2c-0.8,0.6-1.6-1.5-1.6-1.5s0,2.3-0.9,2.2c-3.2-0.4-4.7-17.7-4.7-17.7L320.5,180.5z"/>
			<path class="st17" d="M300.8,172.7c3.3,2.5,1.6,6.4-6.4,12.3c-3-4.2-3.2-12.2-0.6-14.1C296.4,169,297.9,170.6,300.8,172.7z"/>
			<path class="st21" d="M315.4,179.8c-0.7,8.4-0.7,13.4-5.1,17.6c-6.5,6.3-16.8,2.2-18.7-6.2c-1.6-7.6-0.2-20.1,8.1-23.2
				c5.9-2.3,12.6,0.7,14.9,6.6C315.3,176.2,315.5,178,315.4,179.8z"/>
			<path class="st17" d="M302.7,181.8c0,0.7-0.4,1.2-0.8,1.2c-0.4,0-0.8-0.6-0.8-1.3c0-0.7,0.4-1.2,0.8-1.2
				C302.4,180.5,302.7,181.1,302.7,181.8z"/>
			<path class="st17" d="M294.9,181.6c0,0.7-0.4,1.2-0.8,1.2c-0.4,0-0.8-0.6-0.8-1.3c0-0.7,0.4-1.2,0.8-1.2
				C294.6,180.4,295,180.9,294.9,181.6z"/>
			<path class="st26" d="M297.5,182c-0.9,2.1-2,4-3.4,5.8c1.2,1.2,3.3,0.7,3.3,0.7L297.5,182z"/>
			<path class="st17" d="M304.9,179.4c0.1,0,0.2,0,0.3,0c0.2-0.1,0.2-0.4,0.1-0.6c-0.7-1.1-1.9-1.7-3.2-1.7c-0.2,0-0.4,0.2-0.4,0.4
				c0,0,0,0,0,0c0,0.2,0.2,0.4,0.4,0.4l0,0c1,0,2,0.6,2.5,1.4C304.7,179.3,304.8,179.4,304.9,179.4z"/>
			<path class="st17" d="M291.5,178.9c0.2,0,0.3-0.1,0.4-0.2c0.4-0.9,1.3-1.6,2.3-1.8c0.2,0,0.4-0.2,0.4-0.4c0-0.2-0.2-0.4-0.4-0.4
				c-1.3,0.2-2.4,1-2.9,2.2c-0.1,0.2,0,0.4,0.2,0.5c0,0,0,0,0,0C291.3,178.9,291.4,178.9,291.5,178.9z"/>
			<path class="st17" d="M312.2,172.2c-4,1.3-3.6,5.5,2.1,13.7c4.2-3,7-10.5,5.1-13.2C317.6,170.1,315.6,171.1,312.2,172.2z"/>
			<path class="st21" d="M319.2,186.6c-0.6,2-2,3.7-3.9,4.7c-2.5,1.3-4.3-0.8-4.1-3.5c0.2-2.4,1.8-5.9,4.5-6.1
				C318.4,181.5,320,184.1,319.2,186.6z"/>
			<g>
				<path class="st22" d="M322.7,169c-1.1-3-10.7-9.7-20.3-10.8c-5.6-0.7-11.3,12.8-11.3,12.8s15.7-1.6,28.9,10.8
					C320,181.8,323.8,172,322.7,169z M302.2,167.8l-0.5,2.6c-3.4-0.8-7.6-1-7.6-1l1.6-3c0.2-0.4,0.7-0.7,1.2-0.7
					c2-0.1,3.5,0.2,4.5,0.5C301.9,166.4,302.3,167.1,302.2,167.8z"/>
				<path class="st9" d="M313.9,177l7,2.4c0,0,10.8,4.8,10.6,5.9C331.3,186.4,319.2,183.4,313.9,177z"/>
				<path class="st19" d="M313.9,177l7,2.4c0,0,10.8,4.8,10.6,5.9C331.3,186.4,319.2,183.4,313.9,177z"/>
			</g>
			<path class="st17" d="M302.2,167.3c0,0-3.4-7.1-5.4-7.5c-2.1-0.4,0.4,3.8,0.4,3.8s-6.2-2.6-6.7-1.6c-0.6,1,4,2.7,4,2.7
				s-5.2,1.1-5.2,2.7c0,1.6,4.8,0,4.8,0s-3.2,2.4-3,3.7c0.3,1.3,6.4-1.3,6.4-1.3l4.2,0.7L302.2,167.3z"/>
			<g>
				<path class="st17" d="M297.3,190.4c0.9,1.1,2.1,3.3,2.1,3.3c0.2-0.1,0.4-0.1,0.6-0.2c2.9-1.1,3.9-2.6,4.1-3.8
					c0.1-0.7,0-1.4-0.2-1.9c-0.2-0.6-0.5-1-0.5-1c-1.2,1.5-3.8,2.7-5.3,3.3C297.7,190.3,297.3,190.4,297.3,190.4z"/>
				<path class="st6" d="M298.3,190l0.7,0.9c2.7-1,4.5-2.1,5.1-3.3c-0.2-0.6-0.5-1-0.5-1C302.4,188.2,299.7,189.4,298.3,190z"/>
				<path class="st27" d="M300.1,193.4c2.9-1.1,3.9-2.6,4.1-3.8c-1,0.4-2.1,1-3,1.8C300.5,192.1,300.2,192.8,300.1,193.4z"/>
			</g>
		</g>
		<path class="st22" d="M305.5,207.3c0,0-29.3,1.8-35.6,2.4c-1.3,0.1-5.5-4.6-5.5-4.6l-8.8,15.6c0,0,6.1,8,13.3,9.1
			c7.3,1.1,25.4,2.2,25.4,2.2L305.5,207.3z"/>
		<g>
			<g>
				<path class="st9" d="M239.9,181.9l-4.8-0.6l1.3-11l4.8,0.6c1.8,0.2,3.2,1.9,2.9,3.7l-0.5,4.4
					C243.4,180.8,241.8,182.2,239.9,181.9z M237.4,179.6l2.8,0.3c0.7,0.1,1.4-0.4,1.5-1.2l0.5-4.4c0.1-0.7-0.4-1.4-1.2-1.5l-2.8-0.3
					L237.4,179.6z"/>
			</g>
			<g>
				<path class="st22" d="M239.9,181.9l-4.8-0.6l1.3-11l4.8,0.6c1.8,0.2,3.2,1.9,2.9,3.7l-0.5,4.4
					C243.4,180.8,241.8,182.2,239.9,181.9z M237.4,179.6l2.8,0.3c0.7,0.1,1.4-0.4,1.5-1.2l0.5-4.4c0.1-0.7-0.4-1.4-1.2-1.5l-2.8-0.3
					L237.4,179.6z"/>
			</g>
			<path class="st22" d="M236.7,183.5l-12.5-1.4c-0.6-0.1-1-0.6-0.9-1.2l1.4-12.5c0.1-0.6,0.6-1,1.2-0.9l12.5,1.4
				c0.6,0.1,1,0.6,0.9,1.2l-1.4,12.5C237.8,183.1,237.3,183.5,236.7,183.5z"/>
			<path class="st28" d="M234.8,148.1c0,0-4.8,1.6-3.7,5.7c1.1,4.1,4.6,6.1,0.6,10.6c0,0,4.4-0.8,3.2-5.4c-1.2-4.6-4.2-7.6,0.3-10.8
				"/>
		</g>
		<polygon class="st9" points="263.8,204.2 265.2,204.7 256.1,222.6 254.3,219.8 		"/>
		<polygon class="st25" points="263.8,204.2 265.2,204.7 256.1,222.6 254.3,219.8 		"/>
		<path class="st21" d="M376.9,242.5l-30.7,33.6c0,0-0.3,2-0.7,3.8s-1,7.5-3.9,8c-2.9,0.5-13.5-2.1-13.3-3.5
			c0.2-1.4,5.5-10.9,8.8-11.7l26.1-34.6L376.9,242.5z"/>
		<path class="st22" d="M337.2,200.1c11,0.2,41,30.3,41.8,36c0.8,5.7-5.6,15.1-5.6,15.1l-16.8-7.2c0,0,2.3-6.2,1.4-6.9
			c-1-0.7-10.2-8.1-10.2-8.1s-7-5.3-11.6-10.1C331.6,214.2,337.2,200.1,337.2,200.1z"/>
		<polygon class="st9" points="355.3,242.5 375.5,251.3 373.3,253.5 354.5,244.6 		"/>
		<polygon class="st25" points="355.3,242.5 375.5,251.3 373.3,253.5 354.5,244.6 		"/>
		<g>
			<path class="st9" d="M303.2,213.4c-0.9,2.9-3.1,4.7-5,4.2c-1.9-0.6-2.6-3.4-1.7-6.3c0.9-2.9,3.1-4.7,5-4.2
				C303.3,207.7,304.1,210.5,303.2,213.4z"/>
			<path class="st29" d="M303.2,213.4c-0.9,2.9-3.1,4.7-5,4.2c-1.9-0.6-2.6-3.4-1.7-6.3c0.9-2.9,3.1-4.7,5-4.2
				C303.3,207.7,304.1,210.5,303.2,213.4z"/>
			<g>
				<path class="st9" d="M327.9,210.5c0.8,4.2-1.3,8.1-4.7,8.7c-3.4,0.6-6.7-2.2-7.5-6.4c-0.8-4.2,1.3-8.1,4.7-8.7
					C323.8,203.5,327.1,206.3,327.9,210.5z"/>
				<path class="st30" d="M327.9,210.5c0.8,4.2-1.3,8.1-4.7,8.7c-3.4,0.6-6.7-2.2-7.5-6.4c-0.8-4.2,1.3-8.1,4.7-8.7
					C323.8,203.5,327.1,206.3,327.9,210.5z"/>
				<path class="st9" d="M323.2,207.3c0,0,2.7-7.7,0-9.9c0,0,1.1,0.3,2.7,2.2c1.7,1.9,0,9.4,0,9.4L323.2,207.3z"/>
				<path class="st31" d="M323.2,207.3c0,0,2.7-7.7,0-9.9c0,0,1.1,0.3,2.7,2.2c1.7,1.9,0,9.4,0,9.4L323.2,207.3z"/>
				<path class="st9" d="M327.8,210.1c0.6,3.1-1,6.1-3.5,6.5c-2.5,0.5-5.1-1.7-5.6-4.8c-0.6-3.1,1-6.1,3.5-6.5
					C324.7,204.8,327.2,207,327.8,210.1z"/>
			</g>
			
				<ellipse transform="matrix(0.2969 -0.9549 0.9549 0.2969 8.2137 437.9949)" class="st9" cx="301.5" cy="213.4" rx="7.3" ry="4.7"/>
			
				<ellipse transform="matrix(0.2969 -0.9549 0.9549 0.2969 8.2137 437.9949)" class="st30" cx="301.5" cy="213.4" rx="7.3" ry="4.7"/>
			<path class="st30" d="M304.8,214.4c-0.6,2-2.2,3.3-3.5,2.9c-1.3-0.4-1.9-2.4-1.2-4.4c0.6-2,2.2-3.3,3.5-2.9
				C304.9,210.4,305.4,212.4,304.8,214.4z"/>
			<path class="st29" d="M327.8,210.1c0.6,3.1-1,6.1-3.5,6.5c-2.5,0.5-5.1-1.7-5.6-4.8c-0.6-3.1,1-6.1,3.5-6.5
				C324.7,204.8,327.2,207,327.8,210.1z"/>
		</g>
	</g>
</g>
<g id="Character_1">
	<g>
		<path class="st9" d="M125.6,342l-2.8-4.8c0,0,0.9-67.2,7.7-83.8l-3.2-2.3c0,0-8.7,22.7-8.9,85.9l-1.7,2.2l1.7,15L125.6,342z"/>
		<path class="st30" d="M125.6,342l-2.8-4.8c0,0,0.9-67.2,7.7-83.8l-3.2-2.3c0,0-8.7,22.7-8.9,85.9l-1.7,2.2l1.7,15L125.6,342z"/>
		<g>
			<polygon class="st17" points="203.1,413.8 181.6,326.8 188.1,326.8 208.4,413.8 			"/>
			<polygon class="st18" points="203.1,413.8 183.1,332.9 181.7,327 188.1,327 189.5,332.9 208.4,413.8 			"/>
			<polygon class="st19" points="189.4,332.6 183.1,332.6 181.7,327 188.1,327 			"/>
		</g>
		<g>
			<polygon class="st17" points="166.3,413.8 165.8,326.8 172.2,326.8 171.7,413.8 			"/>
			<polygon class="st18" points="171.7,413.8 166.3,413.8 165.9,346.7 165.8,327 172.2,327 172.1,346.7 			"/>
			<polygon class="st19" points="165.8,327 165.9,346.9 172.1,346.9 172.2,327 			"/>
		</g>
		<g>
			<polygon class="st17" points="135.7,413.1 151.6,325.2 158,324.9 141,412.8 			"/>
			<polygon class="st18" points="141,412.8 135.7,413.1 150.5,331.3 151.6,325.4 158,325.1 156.8,331 			"/>
			<polygon class="st19" points="150.5,331 156.9,330.7 158,325.1 151.6,325.4 			"/>
		</g>
		<path class="st9" d="M123.6,252.1h43.5c4,0,7.6,2.6,9,6.4l15.8,45.5c1.2,3.4,4.4,5.7,8,5.7H210c3.3,0,5.5,3.5,4.1,6.5l-3.9,8.1
			c-1.8,3.8-5.7,6.3-10,6.3l-60.3-0.2c-5,0-9.4-3.4-10.7-8.3l-14.9-58.1C112.9,257.9,117.4,252.1,123.6,252.1z"/>
		<path class="st20" d="M114.4,263.9l14.9,58.1c1.3,4.9,5.6,8.3,10.7,8.3l60.3,0.2c4.3,0,8.1-2.4,10-6.3l0.3-0.7l3.5-7.4
			c1.4-3-0.8-6.5-4.1-6.5h-10.2c-3.6,0-6.8-2.3-8-5.7l-15.8-45.5c-1.3-3.8-4.9-6.4-9-6.4h-43.5C117.4,252.1,112.9,257.9,114.4,263.9
			z"/>
		<path class="st19" d="M124.8,256.9l14.9,58.1c1.3,4.9,5.6,8.3,10.7,8.3l60.3,0.2l3.5-7.4c1.4-3-0.8-6.5-4.1-6.5h-10.2
			c-3.6,0-6.8-2.3-8-5.7l-15.8-45.5c-1.3-3.8-4.9-6.4-9-6.4h-42.3C124.4,253.6,124.3,255.2,124.8,256.9z"/>
		<path class="st9" d="M132,251.4c0,0,6.9,19.3-0.1,87l-3.9,0.2c0,0,7.4-69.1-0.7-87.4L132,251.4z"/>
		<path class="st15" d="M132,251.4c0,0,6.9,19.3-0.1,87l-3.9,0.2c0,0,7.4-69.1-0.7-87.4L132,251.4z"/>
		<path class="st15" d="M130.1,336.4c0,0,4.2,0.1,4.6,1.8c0.5,1.7,0.7,38.2-2.4,43.7c-3.1,5.5-16.8,5.6-20.6-0.2
			c-3.9-5.7,5-42.6,5-42.6s2.3,3.6,5.3,3.5C125.1,342.5,126.4,336.9,130.1,336.4z"/>
		<g>
			<path class="st31" d="M119,354.2c-0.1-0.5-0.2-0.5-0.3-0.1l-2.8,9.8l0.9,0.6l-2.2,1.6l-0.2-3.2l0.7,0.4l3.4-11.9
				c0.2-0.6,1.1-0.6,1.2,0l0.7,3.5l-0.9,0.8L119,354.2z"/>
			<path class="st31" d="M113.5,368.7l0.5-1.8l0.9,0.5l-0.1,0.4c-0.2,0.6,0.2,1.2,0.9,1.3l3,0.3l0.2-1.1l1.3,1.9l-1.8,1.6l0.1-0.9
				l-3.8-0.4C113.9,370.4,113.3,369.6,113.5,368.7z"/>
			<path class="st31" d="M121.9,368.4l-1.8-9.1l-0.7,0.4l0.6-3.7l1.9,2l-0.9,0.6l2.2,10.9c0.2,0.9-0.6,1.8-1.5,1.7l-1-0.1l0.1-1.5
				C121.5,369.6,122.1,369,121.9,368.4z"/>
		</g>
	</g>
	<g>
		<path class="st17" d="M191.9,213c-2,1.7-0.8,3.7,0.4,5.1s3.5,3.3,0.4,5.8c-3.1,2.6-0.5,6.5-0.5,6.5l-36.7-0.3
			c0,0-6.5-9.2-1.1-12.9c5.4-3.6,5.6-2.7,5.2-7.1c-0.4-4.4,3.8-5.4,5.3-8.3c1.5-2.9,1.4-3.8,1.1-6.9c-0.4-3,8.4-4.2,11.7-2.3
			c3.3,2,20.9,7.8,20.9,7.8S194.9,210.4,191.9,213z"/>
		<g>
			<path class="st32" d="M258.6,380l-6.9-0.7c0,0-8.1-22.2-16.3-42.1c-6.6-16-13.1-30.6-15.3-30.7c-0.5,0-1.4,0.2-2.8,0.6
				c-12.4,3.6-57.6,22.4-69.1,10.7c-12.8-13,5.7-44.2,5.7-44.2s30.7-4.4,33,2.5c0.5,1.3,0.9,4,1.3,6.2c0.3,2.1,0.6,3.9,0.6,3.9
				s0,0,0,0c0.9-0.2,31.8-8.2,43.9,0C244.9,294.6,258.6,380,258.6,380z"/>
			<path class="st19" d="M235.3,337.2c-6.6-16-13.1-30.6-15.3-30.7c-0.5,0-1.4,0.2-2.8,0.6l0.1-3.6c0,0,8.6,0.3,14.9,7.1
				C236.5,315.3,236.1,329,235.3,337.2z"/>
			<g>
				<path class="st32" d="M170.1,321c0,0,34.8-3.6,38.4-0.5c3.8,3.3-5.4,9.9-11.7,81.4l6.6,2.3c0,0,26.1-77.2,25.9-87.4
					s-12-13.3-12-13.3S194.4,316.8,170.1,321z"/>
				<path class="st33" d="M229.3,316.8c0.3,10.3-25.9,87.4-25.9,87.4l-6.6-2.3c6.3-71.5,15.5-78.1,11.7-81.4
					c-0.8-0.7-3.3-1.1-6.6-1.2c-5.9-0.3-14.4,0.2-21.2,0.8c-6,0.5-10.6,0.9-10.6,0.9c3.1-0.5,6.1-1.2,9.1-2
					c20.2-5.3,37.5-15.1,38.1-15.4c0,0,0,0,0,0S229.1,306.5,229.3,316.8z"/>
			</g>
			<path class="st19" d="M217.3,303.5c-0.5,0.4-10.1,8.7-15.3,15.7c-5.9-0.3-14.4,0.2-21.2,0.8c-0.7-0.4-1.2-0.8-1.5-1.1
				C199.5,313.7,216.7,303.9,217.3,303.5z"/>
			<path class="st9" d="M193.2,314l-0.7,6.8c0,0-14.1,1.8-20.7-0.2C165.3,318.7,193.2,314,193.2,314z"/>
			<polygon class="st9" points="191.6,313.3 190.7,321.6 193.2,321.6 194.2,312.2 			"/>
			<polygon class="st34" points="191.6,313.3 190.7,321.6 193.2,321.6 194.2,312.2 			"/>
			<path class="st9" d="M194.7,284.3l3.6,29.2c0,0-26.2,12.1-46.6,8.5c-20.4-3.7-5.9-38.1,2.1-48.4l33.6,0.6l2.4,9.9L194.7,284.3z"
				/>
			<path class="st15" d="M151.7,322c20.4,3.6,46.6-8.5,46.6-8.5l-3.6-29.2l-4.9-0.2l-1-3.9l-1.5-6l-33.6-0.6
				C145.8,283.9,131.3,318.4,151.7,322z"/>
			<polygon class="st9" points="194,283.5 196.9,315.1 199.7,314 195.9,283.5 			"/>
			<polygon class="st18" points="194,283.5 196.9,315.1 199.7,314 195.9,283.5 			"/>
			<polygon class="st19" points="174.4,284.1 189.8,284.1 188.8,280.1 			"/>
			<path class="st17" d="M195.4,400.7c0.1-0.7,9.2,0.7,9.2,0.7s5,6.3,10.4,8.1c5.3,1.8,2,4.8-4.1,4.2c-6.1-0.6-10.7-1.1-15.1-1.5
				C191.3,411.8,194.4,408.4,195.4,400.7z"/>
			<g>
				<path class="st9" d="M208.4,404.2c-1.2-0.3-2.6-1.2-3-1.4c0,0,0,0-0.1-0.1l0,0l0,0c0,0,0-0.1,0-0.1l0,0c0,0,0,0,0,0
					c0,0,0,0,0-0.1c0,0,0,0,0,0l0,0c0,0,0-0.1,0-0.1c0-0.1,1-2.1,2.3-2.5c0.4-0.1,0.8-0.1,1.2,0.1c0.4,0.2,0.6,0.5,0.5,0.8
					c-0.1,0.5-0.8,0.9-1.6,1.2c0.8,0,1.6,0.1,2,0.4c0.2,0.2,0.4,0.4,0.4,0.7c0.1,0.6-0.1,0.8-0.3,1
					C209.6,404.4,209,404.3,208.4,404.2z M206.3,402.7c1.3,0.7,2.9,1.4,3.4,1.1c0,0,0.2-0.1,0.1-0.5c0-0.1-0.1-0.2-0.2-0.3
					C208.9,402.5,207.3,402.6,206.3,402.7z M208.3,400.4c-0.2,0-0.3,0-0.5,0c-0.7,0.2-1.4,1.1-1.8,1.8c1.4-0.4,2.8-1,2.8-1.4
					c0-0.1-0.2-0.3-0.3-0.3C208.5,400.4,208.4,400.4,208.3,400.4z"/>
			</g>
			<path class="st17" d="M250.2,378.5c0.1-0.7,9.2,0.7,9.2,0.7s5,6.3,10.4,8.1c5.3,1.8,2,4.8-4.1,4.2s-10.7-1.1-15.1-1.5
				C246.1,389.6,249.2,386.2,250.2,378.5z"/>
			<g>
				<path class="st9" d="M263.2,381.9c-1.2-0.3-2.6-1.2-3-1.4c0,0,0,0-0.1-0.1l0,0l0,0c0,0,0-0.1,0-0.1l0,0c0,0,0,0,0,0
					c0,0,0,0,0-0.1c0,0,0,0,0,0l0,0c0,0,0-0.1,0-0.1c0-0.1,1-2.1,2.3-2.5c0.4-0.1,0.8-0.1,1.2,0.1c0.4,0.2,0.6,0.5,0.5,0.8
					c-0.1,0.5-0.8,0.9-1.6,1.2c0.8,0,1.6,0.1,2,0.4c0.2,0.2,0.4,0.4,0.4,0.7c0.1,0.6-0.1,0.8-0.3,1
					C264.4,382.1,263.8,382.1,263.2,381.9z M261.1,380.4c1.3,0.7,2.9,1.4,3.4,1.1c0,0,0.2-0.1,0.1-0.5c0-0.1-0.1-0.2-0.2-0.3
					C263.7,380.2,262.1,380.3,261.1,380.4z M263.1,378.1c-0.2,0-0.3,0-0.5,0c-0.7,0.2-1.4,1.1-1.8,1.8c1.4-0.4,2.8-1,2.8-1.4
					c0-0.1-0.2-0.3-0.3-0.3C263.3,378.2,263.2,378.1,263.1,378.1z"/>
			</g>
		</g>
		<path class="st32" d="M186.8,276.2l-33-2.5l-1.3-16.4l-1.4-18.3l-1.2-15.3c0,0,12.7-5.1,23.2-4.6c10.6,0.5,19,1.9,19,1.9
			C198.8,236.8,186.8,276.2,186.8,276.2z"/>
		<g>
			<path class="st17" d="M108.6,184.3c-0.1,0.5-0.7,0.7-1.1,0.5l-8.4-3.6c-0.5-0.2-0.7-0.8-0.6-1.3l5.3-17.4
				c0.1-0.5,0.7-0.8,1.2-0.6l8.4,3.6c0.5,0.2,0.7,0.9,0.5,1.4L108.6,184.3z"/>
			<path class="st35" d="M113,166.4l-5.4,17.5c-0.2,0.5-0.5,0.7-1,0.5l-7.1-3.1c-0.5-0.2-1.2-0.9-1.1-1.3l5.4-17.6
				c0.2-0.5,1.1-0.5,1.6-0.3l7.1,3.1C113,165.4,113.2,165.9,113,166.4z"/>
		</g>
		<path class="st17" d="M178.8,182.7c0,0,7.8-5.8,17.2,5.4c9.5,11.2-3.9,26.3-12.8,23.6C174.4,209,178.8,182.7,178.8,182.7z"/>
		<path class="st32" d="M180,217.5c0.1,2.1,0.9,3.7,0.9,3.7l-5.5,10.4l-10.9-11.7c4.1-0.5,6.5-5.6,7.7-9.4c0.6-1.9,1-3.6,1-4
			c0-0.1,0-0.1,0-0.1l0.3,0.2l9.3,5.2C180.5,213.4,180,215.6,180,217.5z"/>
		<path class="st19" d="M182.9,211.8c-2.4,1.6-3,3.8-2.9,5.7c-4.4-1.3-6.6-4.4-7.7-6.9c0.6-1.9,1-3.6,1-4l0.3,0L182.9,211.8z"/>
		<g>
			<path class="st17" d="M189,185c0,0-5.3-7.5-14.1-5.6c-8.8,1.9-11.6,13.7-7.4,19C171.8,203.6,189,185,189,185z"/>
			<path class="st32" d="M183.6,186.2c-8-2.9-12.1,0.5-15.7,8.6c-4.4,10.1-4.8,18.2,6.1,19.6C188.7,216.3,197,191,183.6,186.2z"/>
			<path class="st27" d="M173.3,196.2c0,0-1.9,1.7-3.5,2.5c0,0,0.3,1.3,1.8,1.7L173.3,196.2z"/>
			<g>
				<path class="st17" d="M178.4,197.3c-0.3,0.7-0.1,1.3,0.3,1.5c0.4,0.2,1-0.2,1.2-0.9c0.3-0.7,0.1-1.3-0.3-1.5
					C179.2,196.2,178.7,196.6,178.4,197.3z"/>
				<path class="st17" d="M179.8,196.5l-1.2-1.1C178.6,195.4,178.9,196.9,179.8,196.5z"/>
			</g>
			<g>
				<path class="st17" d="M170.4,194c-0.3,0.7-0.1,1.3,0.3,1.5c0.4,0.2,1-0.2,1.2-0.9c0.3-0.7,0.1-1.3-0.3-1.5
					C171.2,193,170.6,193.4,170.4,194z"/>
				<path class="st17" d="M171.8,193.2l-1.2-1.1C170.6,192.1,170.8,193.6,171.8,193.2z"/>
			</g>
			<path class="st36" d="M180.5,191.8c0,0,2.4,0.5,3,2.5"/>
			<path class="st36" d="M174.8,189.3c0,0-1.2-1-3.4-0.5"/>
			<path class="st17" d="M187.6,202.9c0,0-1.4-7.9,1-12.8c0,0-13.6-12.2-20.1,3.7c0,0,3.6-14.9,17.5-10.3
				c13.9,4.6,6.6,24.8-2.6,28.2C183.3,211.7,188.4,207.8,187.6,202.9z"/>
			<path class="st32" d="M185.6,204.1c0.5-1.3,2.6-3,4.9-1.9c2.4,1.2,1.7,6.7-4.9,5.7C184.8,207.8,184.6,206.8,185.6,204.1z"/>
			<g>
				<path class="st17" d="M169.7,203.3c0.2,1.1,0,3.1,0,3.1c0.2,0,0.4,0.1,0.5,0.1c2.4,0.5,3.7,0,4.4-0.8c0.4-0.4,0.6-0.9,0.7-1.4
					c0.1-0.5,0.1-0.9,0.1-0.9c-1.5,0.5-3.8,0.2-5,0C170,203.4,169.7,203.3,169.7,203.3z"/>
				<path class="st6" d="M170.5,203.5l0,0.9c2.3,0.5,4,0.5,4.8,0c0.1-0.5,0.1-0.9,0.1-0.9C174,204,171.7,203.7,170.5,203.5z"/>
				<path class="st27" d="M170.2,206.5c2.4,0.5,3.7,0,4.4-0.8c-0.8-0.1-1.9-0.2-2.8,0C171.1,205.8,170.6,206.2,170.2,206.5z"/>
			</g>
			<path class="st37" d="M184,186c0,0-4.2,8.7,1.2,14.2"/>
			<path class="st17" d="M183.6,186.9c0,0-1.5,14.4,6.9,17.2c8.4,2.8,4.1-14.7,1.5-18.5C190.8,183.8,185.9,180.5,183.6,186.9z"/>
		</g>
		<path class="st32" d="M192.2,220.9c6.5,1,23,28.9,23,28.9l-4.8,8.4c0,0-16.2-21-19.6-23C187.3,233.2,192.2,220.9,192.2,220.9z"/>
		<g class="st38">
			<path d="M195.3,228.7c0,0,0.4,1,2.1,1.4c0.2,0,0.3,0.1,0.5,0.1c0.6,0,1.1-0.2,1.2-0.3c0.3,0.1,0.5,0.2,0.8,0.3
				c-0.2,0-0.3,0.1-0.4,0.2c-0.1,0.1-0.1,0.3-0.1,0.4c-0.4-0.1-1.3-0.2-2.4-0.1c0,0,0,0,0,0c0,0-0.1,0-0.1,0c-0.1,0-0.2,0.1-0.2,0.2
				c0,0.1,0.1,0.2,0.2,0.2c0.1,0,0.1,0,0.1-0.1c0,0,0,0,0,0c1.2-0.1,2.2,0.1,2.4,0.1c0,0,0,0.1,0.1,0.1c0.1,0.2,0.3,0.5,0.6,0.7
				c-0.3,0.1-0.5,0.1-0.8,0.2c-0.2-0.3-0.9-1-1.6-0.7c-0.8,0.3-1.3,1.4-1.3,1.4c0,0.1,0,0.2,0.1,0.2c0,0,0.9,0.7,1.7,0.7
				c0.1,0,0.1,0,0.2,0c0.7-0.1,0.9-1,1-1.3c0.4-0.1,0.8-0.2,1.1-0.3c-0.1,0.2-0.2,0.6,0.1,1.1c-0.2,0.2-0.8,0.7-1.4,1.1c0,0,0,0,0,0
				c-0.1,0-0.2,0.1-0.2,0.2s0.1,0.2,0.2,0.2c0.1,0,0.2-0.1,0.2-0.1c0.6-0.3,1.2-0.9,1.4-1.1c0.2,0.2,0.4,0.2,0.5,0.2
				c0.3,0,0.6-0.2,0.7-0.4c0.1,0.5,0.5,1.3,1,1.6c0.1,0.1,0.3,0.1,0.4,0.1c0.1,0,0.1,0,0.2,0c0.3-0.1,0.5-0.3,0.5-0.4
				c0.1-0.2,0.1-0.3,0.1-0.5c0.3,0.3,0.6,0.5,0.9,0.5c0.1,0,0.2,0,0.3-0.1c-0.1-0.1-0.1-0.2-0.2-0.3c0,0,0,0-0.1,0
				c-0.5,0-1.1-0.8-1.3-1.1c0,0-0.1-0.1-0.2-0.1c0,0-0.1,0-0.1,0c-0.1,0-0.1,0.1-0.1,0.2c0.1,0.2,0.4,0.8,0.2,1.1
				c0,0.1-0.1,0.2-0.3,0.2c-0.1,0-0.2,0-0.3-0.1c-0.5-0.3-0.8-1.4-0.9-1.8c0-0.1-0.1-0.1-0.1-0.1c-0.1,0-0.1,0-0.2,0.1
				c-0.1,0.1-0.4,0.6-0.7,0.6c0,0-0.2,0-0.3-0.2c-0.5-0.7,0-1.1,0-1.1c0,0,0,0,0,0c0,0,0,0,0,0c0,0,0-0.1,0-0.1c0,0,0,0,0,0
				c0,0,0,0,0,0c0,0,0,0,0,0c0,0,0,0,0,0c0,0,0,0,0,0c0,0-0.1,0-0.1-0.1c-0.5,0-0.9-0.4-1.1-0.7c-0.1-0.2-0.1-0.5,0-0.6
				c0.2-0.2,0.9-0.1,1.2,0.1c0.1,0,0.1,0,0.2-0.1c0-0.1,0-0.1,0-0.2c-0.4-0.6-1-1.6-0.8-2c0-0.1,0.1-0.1,0.1-0.2c0,0,0,0,0.1,0
				c-0.1-0.1-0.2-0.2-0.2-0.3c0,0,0,0,0,0c-0.1-0.1-0.2-0.2-0.3-0.4c-0.1-0.1-0.1-0.2-0.2-0.2c-0.6-0.7-1.2-1.4-1.7-2
				c0.2,0.5,0.6,1,0.9,1.5c0,0-0.1,0-0.1,0c-1-0.2-1.3-1.2-1.3-2c-0.1-0.1-0.3-0.3-0.4-0.4c0,0.9,0.3,2.4,1.6,2.8
				c0.1,0,0.3,0.1,0.3,0.1c0,0,0.1,0,0.1,0c0.3,0.5,0.6,0.8,0.8,1c0,0,0,0,0,0.1c-0.1,0.2,0,0.4,0,0.6c-0.6-0.6-1.5-1.3-2.6-1.5
				c0,0,0,0-0.1,0c0,0-0.1-0.1-0.1-0.1c-0.1,0-0.2,0.1-0.2,0.2c0,0.1,0.1,0.2,0.2,0.2c0,0,0.1,0,0.1-0.1c1.7,0.4,3,2,3.1,2.1
				c0.1,0.1,0.1,0.2,0.2,0.3c-0.3-0.1-0.8-0.4-1.3-0.6c-0.1-0.2-0.6-1-1.5-1.3c-1.3-0.5-2.3,0.3-2.4,0.3
				C195.3,228.5,195.3,228.6,195.3,228.7z M197.6,232.8c0,0.1,0.1,0.2,0.2,0.2c0,0,0,0,0,0c0,0,0.6-0.1,1.2-0.3
				c-0.1,0.3-0.3,0.7-0.7,0.8c-0.5,0.1-1.3-0.3-1.5-0.5c0.1-0.3,0.5-0.9,1-1.1c0.4-0.2,0.9,0.3,1.1,0.5c-0.6,0.2-1.1,0.3-1.1,0.3
				C197.6,232.6,197.5,232.7,197.6,232.8z M195.7,228.7c0.3-0.2,1-0.5,1.9-0.2c0.5,0.2,0.9,0.5,1.1,0.8c-0.6-0.2-1.2-0.4-1.9-0.5
				c-0.1,0-0.2,0.1-0.2,0.1c0,0.1,0.1,0.2,0.1,0.2c0.6,0.1,1.3,0.3,1.9,0.5c-0.3,0.1-0.7,0.2-1.2,0.1
				C196.3,229.5,195.9,228.9,195.7,228.7z M200.5,231c0,0.1,0,0.2,0.1,0.2c0,0,0.3,0.1,0.7,0.1c-0.1,0.1-0.2,0.1-0.3,0.1
				c-0.1,0-0.2,0.1-0.1,0.2c0,0.1,0.1,0.1,0.2,0.1h0c0.3-0.1,0.6-0.2,0.7-0.4c0.1,0.2,0.2,0.4,0.3,0.6c-0.6,0.2-1,0.5-1,0.5
				c-0.1,0.1-0.1,0.2,0,0.2c0.1,0.1,0.2,0.1,0.3,0c0,0,0.4-0.3,1-0.5c0.2,0.4,0.6,1.2,0.6,1.6c0,0.1,0.1,0.2,0.2,0.2h0
				c0.1,0,0.2-0.1,0.2-0.2c0-0.3-0.3-0.9-0.5-1.3c0.1,0,0.1,0,0.2,0c0,0,0,0,0,0c0.2,0,0.3-0.1,0.4-0.2c0.1,0.1,0.3,0.2,0.5,0.4
				c-0.2-0.3-0.4-0.6-0.6-0.8c0,0,0,0.1,0,0.1c0,0.1-0.1,0.2-0.2,0.2c-0.3,0-0.7-0.3-1-1c-0.2-0.4-0.1-0.6-0.1-0.6
				c0.1-0.1,0.2-0.1,0.4,0c-0.1-0.1-0.2-0.2-0.3-0.3h0c0-0.1-0.1-0.1-0.1-0.2c0,0,0,0,0,0c-0.2-0.3-0.5-0.6-0.7-0.9c0,0,0,0.1,0,0.1
				c0,0.1,0.1,0.2,0.1,0.3c-0.2-0.2-0.3-0.4-0.4-0.5c-0.1-0.1-0.2-0.1-0.2,0c-0.1,0.1-0.1,0.2,0,0.2c0,0,0.6,0.8,1.1,1.2
				c-0.1,0.1-0.1,0.3-0.1,0.5c-0.6,0-0.9-0.1-0.9-0.1C200.7,230.8,200.6,230.9,200.5,231z"/>
			<path d="M212.1,244.8c0.1,0.1,0.1,0.3,0.1,0.4c0,0,0,0.1,0.1,0.1c0.1,0.1,0.2,0.3,0.4,0.4C212.5,245.4,212.3,245.1,212.1,244.8z
				 M210.1,243.9c-0.4,0.5-0.8,0.7-0.8,0.7c-0.1,0-0.1,0.2-0.1,0.2c0,0.1,0.1,0.1,0.2,0.1c0,0,0.4-0.2,0.9-0.7
				c0.1,0.2,0.2,0.3,0.4,0.5c-0.2,0.1-0.4,0.2-0.6,0.5c0,0,0,0,0,0c0,0.1,0,0.2,0.1,0.2c0.1,0.1,0.2,0,0.2-0.1
				c0.1-0.1,0.1-0.2,0.2-0.2c-0.1,0.4-0.2,0.7-0.2,0.7c0,0.1,0.1,0.2,0.2,0.2c0.1,0,0.2-0.1,0.2-0.2c0,0,0-0.3,0.2-0.9
				c0.2,0.1,0.4,0.2,0.5,0.1c0.1,0.6,0.7,1.4,0.7,1.4c0.1,0.1,0.1,0.1,0.2,0.1c0.1-0.1,0.1-0.2,0-0.2c-0.1-0.1-0.2-0.3-0.3-0.5
				c0.1,0.1,0.2,0.2,0.3,0.2c0.1,0.1,0.2,0,0.2-0.1c0-0.1,0-0.1,0-0.2c0,0,0,0,0,0c0,0,0,0-0.1,0c-0.3-0.2-0.6-0.7-0.8-0.9
				c0.1-0.1,0.1-0.2,0.1-0.3c-0.2-0.2-0.3-0.5-0.5-0.8c0.1,0.2,0.1,0.3,0.2,0.5c0,0.2-0.1,0.4-0.2,0.4c0,0-0.2,0-0.5-0.3
				c-0.5-0.6-0.7-1.1-0.6-1.3c0.1-0.1,0.2-0.2,0.3-0.2c0.2,0,0.3,0.1,0.4,0.2c-0.1-0.2-0.2-0.3-0.3-0.5c0,0,0,0,0,0
				c-0.3-0.4-0.5-0.8-0.8-1.2c0,0,0,0,0,0c0.2,0.3,0.3,0.9,0.4,1.2c-0.1,0-0.3,0.1-0.3,0.3c0,0,0,0,0,0c0,0.1,0,0.1,0,0.2
				c-0.3-0.3-0.7-0.8-1-0.9c-0.1,0-0.2,0-0.2,0.1v0c0,0.1,0,0.2,0.1,0.2C209.2,242.9,209.8,243.5,210.1,243.9z M206.5,245.9
				c-0.1,0.1,0,0.2,0.1,0.3c0.1,0,0.2,0,0.3-0.1c0,0,0,0,0,0c0.5-0.4,1.3-0.8,1.5-0.9c0.3,0.4,0.7,0.5,1,0.5c-0.2,0.3-0.4,0.6-0.7,1
				c-0.3-0.1-1.2-0.2-1.6,0.4c0,0.1-0.1,0.1-0.1,0.2c-0.3,0.7,0,1.8,0,1.9c0,0.1,0.1,0.1,0.2,0.1c0,0,1.3,0,1.8-0.6
				c0.5-0.6,0.1-1.4-0.1-1.7c0.2-0.2,0.4-0.5,0.5-0.7c0.1,0.3,0.2,0.6,0.4,0.8c0,0,0.1,0.1,0.1,0.1c-0.1,0.3-0.3,1.3-0.8,2.3v0
				c0,0-0.1,0.1-0.1,0.1c0,0.1,0,0.2,0.1,0.3c0.1,0.1,0.2,0,0.3-0.1v-0.1c0.5-0.9,0.7-1.8,0.8-2.2c0.2,0.1,0.3,0.1,0.5,0.1
				c0.2,0,0.3-0.2,0.4-0.3c0,0.2,0,0.5,0,0.8c-0.1,0.1-0.5,0.5-0.7,1c-0.1,0.2-0.1,0.3-0.1,0.5c-0.3,1.6,0.5,2.4,0.5,2.4
				c0.1,0.1,0.1,0.1,0.2,0c0,0,1.1-0.7,1.2-2.1c0-1-0.5-1.7-0.7-1.9c0-0.6,0-1.1,0-1.4c0.1,0.1,0.1,0.2,0.2,0.3
				c0.1,0.1,1.1,1.9,0.8,3.6c0,0-0.1,0.1-0.1,0.1c-0.1,0.1,0,0.2,0.1,0.3c0.1,0,0.2,0,0.3-0.1c0-0.1,0-0.1,0-0.2c0,0,0,0,0-0.1
				c0.2-1.1-0.1-2.3-0.4-3c0.2,0.2,0.4,0.3,0.6,0.3c0,0,0.1,0,0.1,0c0.1,0.2,0.3,0.6,0.6,1.1c0,0,0,0.1-0.1,0.1
				c0,0.1-0.1,0.2-0.1,0.3c-0.1,0.9,0.4,1.6,1,2l0.2-0.3c-0.5-0.4-0.9-0.9-0.8-1.6c0-0.1,0-0.1,0-0.1c0.3,0.5,0.6,1,1,1.4l0.2-0.3
				c-0.3-0.4-0.7-0.9-0.9-1.4c0,0,0.1,0,0.1,0c0.2,0,0.4,0.2,0.7,0.5c-0.1-0.2-0.3-0.5-0.5-0.8c-0.1,0-0.1,0-0.2,0
				c-0.1,0-0.2,0-0.3,0c-0.3-0.4-0.4-0.8-0.5-0.9c0,0,0,0,0.1,0c0.1-0.1,0.1-0.2,0.2-0.3c-0.1-0.2-0.3-0.4-0.4-0.7
				c0.1,0.1,0.1,0.3,0.1,0.4c0,0.1,0,0.2-0.1,0.3c-0.1,0.1-0.1,0.1-0.2,0.1c-0.5-0.1-1.2-1-1.6-1.6c-0.1-0.1-0.1-0.1-0.2-0.1
				c-0.1,0-0.1,0.1-0.1,0.2c0,0.3-0.1,1.1-0.4,1.1c-0.1,0-0.3-0.1-0.5-0.3c-0.2-0.3-0.5-0.8-0.3-1.3c0,0,0-0.1,0-0.1c0,0,0,0,0,0
				c0,0,0,0,0,0c0,0,0,0,0,0c0,0,0,0,0,0c0,0,0,0,0,0c0,0-0.1,0-0.1,0h0c0,0,0,0,0,0c0,0-0.5,0.3-1-0.4c-0.2-0.2-0.1-0.3-0.1-0.4
				c0.1-0.3,0.6-0.4,0.8-0.4c0.1,0,0.1-0.1,0.1-0.1c0-0.1,0-0.1-0.1-0.2c-0.3-0.2-1.2-0.9-1.3-1.5c0-0.1,0-0.2,0.1-0.3
				c0.1-0.1,0.2-0.2,0.3-0.2c0.4,0,0.8,0.5,1,0.7c0.1,0.1,0.2,0.1,0.2,0c0,0,0-0.1,0.1-0.1c0,0,0-0.1,0-0.2
				c-0.2-0.3-0.7-1.2-0.5-1.6c0-0.1,0.1-0.1,0.1-0.1c-0.1-0.1-0.1-0.2-0.2-0.3c-0.1,0.1-0.2,0.2-0.2,0.3c-0.1,0.3,0,0.7,0.1,1.1
				c-0.2-0.1-0.3-0.1-0.5-0.1c-0.2,0-0.4,0.1-0.6,0.3c0,0.1-0.1,0.1-0.1,0.2c-0.1,0.1-0.1,0.3-0.1,0.4c0.1,0.6,0.7,1.2,1.1,1.5
				c-0.3,0.1-0.6,0.2-0.7,0.5c0,0.1-0.1,0.3,0,0.5c-0.3,0.1-1,0.5-1.6,0.9C206.6,245.8,206.5,245.8,206.5,245.9z M211.2,250.4
				c0.1-0.6,0.2-1.3,0.3-1.9c0.2,0.3,0.3,0.7,0.3,1.3c0,0.9-0.6,1.5-0.9,1.7c-0.2-0.2-0.5-0.9-0.3-2c0.1-0.4,0.3-0.8,0.5-1
				c0,0.6-0.1,1.3-0.3,1.9c0,0.1,0,0.2,0.1,0.2C211.1,250.5,211.2,250.5,211.2,250.4z M208.8,248.3c-0.4,0.4-1.1,0.5-1.4,0.5
				c-0.1-0.3-0.2-1.2,0.1-1.6c0.2-0.3,0.7-0.3,1-0.3c-0.4,0.5-0.7,1-0.7,1c0,0,0,0,0,0c0,0.1,0,0.2,0.1,0.2c0.1,0,0.2,0,0.2-0.1
				c0,0,0.3-0.5,0.7-1C208.9,247.4,209.1,248,208.8,248.3z"/>
		</g>
		<polygon class="st19" points="192.5,234.3 190.7,231.5 188.4,239.7 		"/>
		<path class="st32" d="M95.5,185.6c-1.8-3.1-1.9-6.9-0.2-10c0.2-0.3,0.3-0.6,0.4-0.7c0.6-0.7,10.2-6.6,11.7-4.8
			c1.5,1.9-0.6,6.1-0.4,7.9c0.1,1-2.9,2.7-5.5,4c6.3,8.7,20.6,28.3,22.9,29.7c1.2,0.7,5.6,2.1,11.1,3.6c8.2,2.2,18.8,4.5,24.8,5.2
			l-6.8,16.3c0,0-5.2-2.2-11.8-5.3c-1.9-0.9-3.9-1.8-6-2.8v0c-8.9-4.2-18.2-8.9-20.4-11.2C111.8,213.9,100.6,194.5,95.5,185.6z"/>
		<g>
			<path class="st9" d="M155.3,219c0,0,12.8,12.8,30,14.7s19.5-1.3,19.5-1.3l7.5,11.2c0,0-6.8,9.2-16.8,10l-5.7,28c0,0,2.3,0,1,2.7
				l-50.5,21.5c5.6-23.7,12.3-36.7,12.3-36.7s-1.6-8.8-3.7-28.5c0,0-10-9.1-13.4-25.3C135.5,215.3,146.5,218.3,155.3,219z"/>
			<path class="st28" d="M155.3,219c0,0,12.8,12.8,30,14.7s19.5-1.3,19.5-1.3l7.5,11.2c0,0-6.8,9.2-16.8,10l-5.7,28c0,0,2.3,0,1,2.7
				l-50.5,21.5c5.6-23.7,12.3-36.7,12.3-36.7s-1.6-8.8-3.7-28.5c0,0-10-9.1-13.4-25.3C135.5,215.3,146.5,218.3,155.3,219z"/>
		</g>
		<g>
			<path class="st9" d="M212.3,240.6c0,0-6.2,8.6-16.8,13l1.6,1.6c0,0,10.5-2.2,16.4-10.4L212.3,240.6z"/>
			<path class="st39" d="M195.5,253.6l1.6,1.6c0,0,2.1-0.4,5-1.7c3.5-1.5,8.1-4.2,11.3-8.7l-1.2-4.2c0,0-0.4,0.5-1.1,1.4
				c-1.6,1.9-4.9,5.4-9.6,8.4C199.7,251.6,197.7,252.7,195.5,253.6z"/>
		</g>
		<path class="st22" d="M180.1,179.3c0,0,17.3,5.1,15.3,20c-1.8,12.7-3.6,13.7-3.6,13.7s3.1-1.6,4.3-2.5s0.8-2.5,0.8-2.5
			s4.9-3.4,4.2-13.8c0,0,3.2-2.4,2.2-5.5c-0.9-3.1-5-3.5-5-3.5s-4.4-5.3-7.3-6.1c-2.9-0.9-5.9,0-5.9,0S182.4,177.2,180.1,179.3z"/>
		<g>
			<path class="st9" d="M167.8,262.1c1.1-8.3,7.5-8.9,8.8-17.5c0,0,8.5,6.2,6.3,18.2c-1.3,6.9-6.4,9.8-8.3,10.7
				c1-2.6,1.7-5.1,2.2-7.3c0.4-0.1,0.8-0.2,1.2-0.4c0.5-0.2,1-0.5,1.4-0.9c0.4-0.4,0.8-0.7,1.1-1.2c0.3-0.4,0.6-0.9,0.9-1.4
				c-0.3,0.4-0.6,0.8-1,1.2c-0.4,0.4-0.8,0.7-1.2,0.9c-0.4,0.3-0.9,0.5-1.4,0.6c-0.2,0.1-0.4,0.1-0.7,0.2c0.6-3,0.9-5.6,1-7.7
				c0.5-0.4,1-0.9,1.4-1.4c0.4-0.5,0.8-1.1,1-1.7c-0.3,0.6-0.8,1-1.3,1.4c-0.3,0.2-0.7,0.4-1,0.6c0.1-4-0.6-6.1-0.6-6.1
				c0.2,3.4-0.1,6.9-0.7,10.1c-0.2-0.2-0.4-0.4-0.5-0.6c-0.4-0.4-0.7-0.9-1.1-1.4c-0.7-1-1.2-2-1.7-3.1c0.4,1.1,0.8,2.3,1.3,3.3
				c0.3,0.5,0.6,1.1,0.9,1.6c0.3,0.4,0.6,0.8,0.9,1.2c-0.5,2.5-1,4.9-1.6,6.9c-0.8-0.7-1.6-1.4-2.3-2.2c-0.9-1-1.7-2.1-2.1-3.4
				c0.2,1.4,0.9,2.6,1.7,3.8c0.7,1,1.5,1.9,2.4,2.8c-0.5,1.8-1,3.2-1.4,4.2C171.8,272.7,166.8,269.4,167.8,262.1z"/>
			<path class="st18" d="M167.8,262.1c1.1-8.3,7.5-8.9,8.8-17.5c0,0,8.5,6.2,6.3,18.2c-1.3,6.9-6.4,9.8-8.3,10.7
				c1-2.6,1.7-5.1,2.2-7.3c0.4-0.1,0.8-0.2,1.2-0.4c0.5-0.2,1-0.5,1.4-0.9c0.4-0.4,0.8-0.7,1.1-1.2c0.3-0.4,0.6-0.9,0.9-1.4
				c-0.3,0.4-0.6,0.8-1,1.2c-0.4,0.4-0.8,0.7-1.2,0.9c-0.4,0.3-0.9,0.5-1.4,0.6c-0.2,0.1-0.4,0.1-0.7,0.2c0.6-3,0.9-5.6,1-7.7
				c0.5-0.4,1-0.9,1.4-1.4c0.4-0.5,0.8-1.1,1-1.7c-0.3,0.6-0.8,1-1.3,1.4c-0.3,0.2-0.7,0.4-1,0.6c0.1-4-0.6-6.1-0.6-6.1
				c0.2,3.4-0.1,6.9-0.7,10.1c-0.2-0.2-0.4-0.4-0.5-0.6c-0.4-0.4-0.7-0.9-1.1-1.4c-0.7-1-1.2-2-1.7-3.1c0.4,1.1,0.8,2.3,1.3,3.3
				c0.3,0.5,0.6,1.1,0.9,1.6c0.3,0.4,0.6,0.8,0.9,1.2c-0.5,2.5-1,4.9-1.6,6.9c-0.8-0.7-1.6-1.4-2.3-2.2c-0.9-1-1.7-2.1-2.1-3.4
				c0.2,1.4,0.9,2.6,1.7,3.8c0.7,1,1.5,1.9,2.4,2.8c-0.5,1.8-1,3.2-1.4,4.2C171.8,272.7,166.8,269.4,167.8,262.1z"/>
		</g>
		<path class="st19" d="M195.5,253.6l1.6,1.6c0,0,2.1-0.4,5-1.7c0-0.5-0.1-1.1-0.2-1.6c-0.1-0.5-0.2-1-0.3-1.5
			c-0.7-2.8-1.8-5.2-1.8-5.2C198.5,250.4,195.5,253.6,195.5,253.6z"/>
		<path class="st19" d="M135.7,228.7L135.7,228.7c2,1,4.1,1.9,6,2.8l-6.2-16.2C135.5,215.3,133.8,222.5,135.7,228.7z"/>
		<g>
			<path class="st9" d="M148.8,240.6c0,0-9-16.1-9.6-25.3l-4.6-0.8c0,0-1.8,5.8,8.6,23.1L148.8,240.6z"/>
			<path class="st39" d="M148.8,240.6c0,0-9-16.1-9.6-25.3l-4.6-0.8c0,0-1.8,5.8,8.6,23.1L148.8,240.6z"/>
		</g>
		<path class="st32" d="M210.4,258.2c3.7,3.5,10,3.7,13-1c3-4.7,13.3-34.4,13.3-34.4l-7.1-1.8c0,0-10,25.5-14.5,29.2
			C210.6,253.8,210.4,258.2,210.4,258.2z"/>
		<path class="st32" d="M229.5,220.9c0,0-1.7-2.9,0-4.8c1.7-1.8,10.1-11.8,11.2-11.8c1.2,0,8,8.7,7.7,9.9
			c-0.3,1.2-10.7,9.7-13.8,10.8C231.5,226.1,229.5,220.9,229.5,220.9z"/>
		<g>
			<path class="st17" d="M224.2,203.2l-3.5,7.8c-0.5,1.2,0,2.5,1.2,3l18.4,8.1c1.2,0.5,2.5,0,3-1.2l3.5-7.8c0.5-1.2,0-2.5-1.2-3
				l-18.4-8.1C226.1,201.6,224.7,202.1,224.2,203.2z"/>
			
				<rect x="227.2" y="206.8" transform="matrix(-0.9144 -0.4049 0.4049 -0.9144 361.6213 500.7688)" class="st18" width="13.1" height="10.6"/>
			<path class="st22" d="M224.2,203.2l-3.5,7.8c-0.5,1.2,0,2.5,1.2,3l2.1,0.9l5.3-12l-2.1-0.9C226.1,201.6,224.7,202.1,224.2,203.2z
				"/>
			<path class="st17" d="M225.2,205.2c-0.2,0.4,0,0.9,0.4,1.1c0.4,0.2,0.9,0,1.1-0.4c0.2-0.4,0-0.9-0.4-1.1
				C225.9,204.6,225.4,204.7,225.2,205.2z"/>
			<g>
				<path class="st17" d="M224.8,210.3c0.2,0.1,0.3,0.4,0.2,0.6c-0.1,0.2-0.4,0.3-0.6,0.2c-0.2-0.1-0.3-0.4-0.2-0.6
					C224.3,210.3,224.6,210.2,224.8,210.3z"/>
				<path class="st17" d="M223.2,209.6c0.2,0.1,0.3,0.4,0.2,0.6c-0.1,0.2-0.4,0.3-0.6,0.2c-0.2-0.1-0.3-0.4-0.2-0.6
					C222.7,209.6,222.9,209.5,223.2,209.6z"/>
				<path class="st17" d="M224,209.9c-0.2-0.1-0.3-0.4-0.2-0.6c0.1-0.2,0.4-0.3,0.6-0.2c0.2,0.1,0.3,0.4,0.2,0.6
					S224.2,210,224,209.9z"/>
				<path class="st17" d="M223.6,210.8c0.2,0.1,0.3,0.4,0.2,0.6c-0.1,0.2-0.4,0.3-0.6,0.2c-0.2-0.1-0.3-0.4-0.2-0.6
					C223.1,210.8,223.4,210.7,223.6,210.8z"/>
			</g>
			<path class="st22" d="M243.6,221.2l3.5-7.8c0.5-1.2,0-2.5-1.2-3l-2.1-0.9l-5.3,12l2.1,0.9C241.7,222.9,243.1,222.3,243.6,221.2z"
				/>
			<path class="st17" d="M242.6,219.2c0.2-0.4,0-0.9-0.4-1.1c-0.4-0.2-0.9,0-1.1,0.4c-0.2,0.4,0,0.9,0.4,1.1
				C241.9,219.9,242.4,219.7,242.6,219.2z"/>
			<g>
				<path class="st17" d="M243,214.1c-0.2-0.1-0.3-0.4-0.2-0.6c0.1-0.2,0.4-0.3,0.6-0.2c0.2,0.1,0.3,0.4,0.2,0.6
					C243.5,214.1,243.2,214.2,243,214.1z"/>
				<path class="st17" d="M244.6,214.8c-0.2-0.1-0.3-0.4-0.2-0.6c0.1-0.2,0.4-0.3,0.6-0.2c0.2,0.1,0.3,0.4,0.2,0.6
					C245.1,214.8,244.9,214.9,244.6,214.8z"/>
				<path class="st17" d="M243.8,214.5c0.2,0.1,0.3,0.4,0.2,0.6c-0.1,0.2-0.4,0.3-0.6,0.2c-0.2-0.1-0.3-0.4-0.2-0.6
					C243.3,214.5,243.6,214.4,243.8,214.5z"/>
				<path class="st17" d="M244.2,213.6c-0.2-0.1-0.3-0.4-0.2-0.6c0.1-0.2,0.4-0.3,0.6-0.2c0.2,0.1,0.3,0.4,0.2,0.6
					C244.7,213.6,244.4,213.7,244.2,213.6z"/>
			</g>
		</g>
	</g>
</g>
<g id="Table">
	<g>
		<g>
			<g>
				<polygon class="st17" points="299.1,413.8 262.8,266.7 270.9,266.7 305.3,413.8 				"/>
				<polygon class="st39" points="299.1,413.8 264.7,274.3 262.8,266.9 271,266.9 272.7,274.3 305.3,413.8 				"/>
				<polygon class="st19" points="272.6,273.9 264.6,273.9 262.8,266.9 271,266.9 				"/>
			</g>
			<g>
				<polygon class="st17" points="243.8,413.8 242.8,266.7 251,266.7 250,413.8 				"/>
				<polygon class="st39" points="250,413.8 243.8,413.8 243,291.6 242.8,266.9 251,266.9 250.8,291.6 				"/>
				<polygon class="st19" points="242.8,266.9 243,291.9 250.8,291.9 251,266.9 				"/>
			</g>
			<g>
				<polygon class="st17" points="190.2,413.8 224.6,266.7 232.7,266.7 196.4,413.8 				"/>
				<polygon class="st39" points="196.4,413.8 190.2,413.8 222.8,274.3 224.5,266.9 232.6,266.9 230.8,274.3 				"/>
				<polygon class="st19" points="222.8,273.9 230.9,273.9 232.6,266.9 224.5,266.9 				"/>
			</g>
			<g>
				<path class="st9" d="M183.5,270.5h128.8c1.2,0,2.2-1,2.2-2.2v-5.5H181.4v5.5C181.4,269.5,182.3,270.5,183.5,270.5z"/>
				<path class="st20" d="M183.5,270.5h128.8c1.2,0,2.2-1,2.2-2.2v-5.5H181.4v5.5C181.4,269.5,182.3,270.5,183.5,270.5z"/>
			</g>
			
				<rect x="181.4" y="262.8" transform="matrix(-1 -1.224647e-16 1.224647e-16 -1 495.7929 529.4984)" class="st19" width="133.1" height="3.8"/>
			<g>
				<path class="st9" d="M177.6,263.8h140.7c1.2,0,2.2-1,2.2-2.2l0,0c0-1.2-1-2.2-2.2-2.2H177.6c-1.2,0-2.2,1-2.2,2.2l0,0
					C175.4,262.9,176.4,263.8,177.6,263.8z"/>
				<path class="st20" d="M177.6,263.8h140.7c1.2,0,2.2-1,2.2-2.2l0,0c0-1.2-1-2.2-2.2-2.2H177.6c-1.2,0-2.2,1-2.2,2.2l0,0
					C175.4,262.9,176.4,263.8,177.6,263.8z"/>
			</g>
		</g>
		<g>
			<path class="st17" d="M241.4,255.4v2.6c0,0.8,1.4,1.4,2.1,1.4h61.8c0.8,0,2.1-0.6,2.1-1.4v-2.6H241.4z"/>
			<path class="st20" d="M241.4,255.4v2.6c0,0.8,1.4,1.4,2.1,1.4h61.8c0.8,0,2.1-0.6,2.1-1.4v-2.6H241.4z"/>
			<path class="st19" d="M241.4,255.4v2.6c0,0.8,1.4,1.4,2.1,1.4h40.8c0.8,0,2.1-0.6,2.1-1.4v-2.6H241.4z"/>
			<path class="st17" d="M231.4,222.9l7.4,33.5c0.2,1.1,1.3,2,2.4,2h40.2c1.1,0,1.8-1.1,1.5-2.2l-7.3-33.1c-0.2-1.1-1.3-1.6-2.4-1.6
				H233C231.9,221.4,231.2,221.8,231.4,222.9z"/>
			<path class="st20" d="M231.4,222.9l7.4,33.5c0.2,1.1,1.3,2,2.4,2h40.2c1.1,0,1.8-1.1,1.5-2.2l-7.3-33.1c-0.2-1.1-1.3-1.6-2.4-1.6
				H233C231.9,221.4,231.2,221.8,231.4,222.9z"/>
			<path class="st31" d="M231.4,222.9l7.4,33.5c0.2,1.1,1.3,2,2.4,2H280c1.1,0,1.8-1.1,1.5-2.2l-7.4-33.1c-0.2-1.1-1.3-1.6-2.4-1.6
				H233C231.9,221.4,231.2,221.8,231.4,222.9z"/>
			<path class="st19" d="M255.1,244.4c-1.9,0-3.8-2-4.3-4.5c-0.5-2.5,0.6-4.5,2.5-4.5c0.4,0,0.7,0.1,1,0.2c0.4,1.9,1.8,3.6,3.2,4.1
				c0,0.1,0,0.1,0,0.2C258.1,242.4,257,244.4,255.1,244.4z"/>
		</g>
		<g>
			<g>
				<path class="st9" d="M215.9,254.3v-4.4c0-1.8,1.5-3.4,3.4-3.4h4.8v11.1h-4.8C217.4,257.6,215.9,256.1,215.9,254.3z M222,248.5
					h-2.8c-0.7,0-1.4,0.6-1.4,1.4v4.4c0,0.7,0.6,1.4,1.4,1.4h2.8V248.5z"/>
			</g>
			<g>
				<path class="st22" d="M215.9,254.3v-4.4c0-1.8,1.5-3.4,3.4-3.4h4.8v11.1h-4.8C217.4,257.6,215.9,256.1,215.9,254.3z M222,248.5
					h-2.8c-0.7,0-1.4,0.6-1.4,1.4v4.4c0,0.7,0.6,1.4,1.4,1.4h2.8V248.5z"/>
			</g>
			<path class="st22" d="M222.2,259.5h12.5c0.6,0,1.1-0.5,1.1-1.1v-12.5c0-0.6-0.5-1.1-1.1-1.1h-12.5c-0.6,0-1.1,0.5-1.1,1.1v12.5
				C221.2,259,221.6,259.5,222.2,259.5z"/>
			<path class="st28" d="M228.2,224.6c0,0,4.6,2.1,3,6.1c-1.6,4-5.2,5.5-1.8,10.4c0,0-4.3-1.3-2.6-5.7c1.7-4.4,5-7.1,0.9-10.8"/>
		</g>
	</g>
</g>
</svg>
