<?xml version="1.0" encoding="utf-8"?>
<!-- Generator: Adobe Illustrator 22.0.1, SVG Export Plug-In . SVG Version: 6.00 Build 0)  -->
<svg version="1.1" id="Layer_1" xmlns="http://www.w3.org/2000/svg" xmlns:xlink="http://www.w3.org/1999/xlink" x="0px" y="0px"
	 viewBox="0 0 700 800" style="enable-background:new 0 0 700 800;" xml:space="preserve">
<style type="text/css">
	.st0{fill:#E6E6E6;}
	.st1{fill:#FFFFFF;}
	.st2{fill:#63B0FF;}
	.st3{fill:#FFB8B8;}
	.st4{fill:#2F2E41;}
	.st5{fill:#3F3D56;}
	.st6{opacity:0.3;enable-background:new    ;}
	.st7{opacity:0.5;fill:#5D84C3;enable-background:new    ;}
	.st8{opacity:0.5;}
	.st9{fill:#6EC5A4;}
	.st10{opacity:0.5;fill:#F16046;enable-background:new    ;}
	.st11{fill:url(#SVGID_1_);}
	.st12{fill:#278ACB;}
	.st13{fill:url(#SVGID_2_);}
	.st14{fill:url(#SVGID_3_);}
	.st15{fill:url(#SVGID_4_);}
	.st16{fill:url(#SVGID_5_);}
	.st17{fill:#575A89;}
	.st18{fill:#AFD2F2;}
	.st19{opacity:5.000000e-02;enable-background:new    ;}
	.st20{fill:#297187;}
	.st21{fill:none;}
	.st22{fill:#FF6584;}
	.st23{opacity:0.1;enable-background:new    ;}
	.st24{opacity:0.4;fill:#FF6584;}
</style>
<rect x="128.4" y="239.2" class="st0" width="376.3" height="241"/>
<rect x="139.2" y="269.4" class="st1" width="354.8" height="196.5"/>
<rect x="128.3" y="239" class="st2" width="376.3" height="16"/>
<circle class="st1" cx="140.2" cy="247.1" r="3"/>
<circle class="st1" cx="151.4" cy="247.1" r="3"/>
<circle class="st1" cx="162.6" cy="247.1" r="3"/>
<rect x="171.4" y="289.8" class="st0" width="91.2" height="155.7"/>
<rect x="278.3" y="289.8" class="st2" width="76" height="42.9"/>
<rect x="278.3" y="344.6" class="st0" width="76" height="46.1"/>
<rect x="278.3" y="402.7" class="st0" width="76" height="42.9"/>
<rect x="370.6" y="289.8" class="st0" width="91.2" height="67.9"/>
<rect x="370.6" y="377.7" class="st2" width="91.2" height="67.9"/>
<path class="st3" d="M501.8,414.5l-5.3,13.4l-26.3,24.5c0,0-15.8,11.7-8.8,15.2s13.4-12.9,13.4-12.9l28.1-16.9l5.8-19.3L501.8,414.5
	z"/>
<polygon class="st3" points="510.6,563.5 515.8,577 523.4,577 517,561.2 "/>
<polygon class="st3" points="533.3,569.4 538.6,582.8 546.2,582.8 539.8,567 "/>
<path class="st4" d="M532.8,571.7l9.9-2.3l-12.9-52l4.3-40h0.1c0,0,7.3-28.3,1.5-35.9s-35.1-4.7-35.1-4.7s-11.1,11.1-10.5,36.2
	s0,46.8,4.1,56.7c4.1,9.9,15.8,36.2,15.8,36.2l9.4-1.2l-9.9-43.3l-1.6-37.6c1.3,15.1,3.8,43.6,5.1,45.8
	C514.6,532.5,532.8,571.7,532.8,571.7z"/>
<path class="st3" d="M562.6,426.8l4.1,14.6l18.1,32.7c0,0,15.8,14,9.4,15.8c-6.4,1.8-16.4-12.9-16.4-12.9l-20.5-28.6l-5.3-21
	L562.6,426.8z"/>
<circle class="st3" cx="541.5" cy="370.6" r="14.6"/>
<path class="st3" d="M533.9,378.2l-3.5,11.1l-5.8,12.9l21.6-8.8c0,0-1.2-9.4,0-11.7L533.9,378.2z"/>
<path class="st2" d="M559.1,401.6l-13.4-11.1l-15.2,6.4l0.6-9.5l-16.2,5.2l-2.5,0.8l-3.5,18.1c0,0-2.3,1.8-4.7,11.7
	c-1.3,5.8-3.3,11.5-5.8,16.9c0,0,25.1-9.9,37.4,3.5c0,0,1.8-1.2,1.2-2.9s5.3-10.5,5.3-10.5s0,1.8,2.3-1.8s4.1-4.1,4.1-4.1
	L559.1,401.6z"/>
<path class="st2" d="M515.8,395.2l-2.6-2.1c0,0-2.1-0.9-3.9,2.1c-1.8,2.9-10.5,21-10.5,21l10.5,5.3L515.8,395.2z"/>
<path class="st2" d="M550.9,401l8.2,0.6c0,0,4.7,2.3,4.7,5.8s1.2,22.2,1.2,22.2l-12.9,4.1l-5.3-16.4L550.9,401z"/>
<path class="st4" d="M514.1,574.9l-9.9,4.1c0,0-11.7,0.6-9.9,6.4c1.8,5.8,19.3,1.8,19.3,1.8s15.8,0.6,15.8-3.5s-2.3-8.8-4.7-8.8
	H514.1z"/>
<path class="st4" d="M536.3,580.2l-9.9,4.1c0,0-11.7,0.6-9.9,6.4c1.8,5.8,19.3,1.8,19.3,1.8s15.8,0.6,15.8-3.5s-2.3-8.8-4.7-8.8
	H536.3z"/>
<polygon class="st4" points="556.2,358.8 544.4,352.6 528.2,355.1 524.8,370.1 533.2,369.7 535.5,364.2 535.5,369.6 539.4,369.5 
	541.6,360.7 543,370.1 556.7,369.8 "/>
<path class="st5" d="M477.5,287.8c-33.3-28.1-83.1-23.9-111.2,9.4s-23.9,83.1,9.4,111.2c31.2,26.3,77.2,24.5,106.3-4.1l96.8,81.7
	c3.1,2.6,7.7,2.2,10.2-0.9c2.6-3.1,2.2-7.7-0.9-10.2l0,0l-96.8-81.7C514.7,359.8,508.7,314.1,477.5,287.8z M471.3,385.4
	c-21.1,25-58.4,28.1-83.3,7.1c-25-21.1-28.1-58.4-7.1-83.3c21.1-25,58.4-28.1,83.3-7.1l0,0C489.2,323.1,492.4,360.4,471.3,385.4z"/>
<path class="st6" d="M388,392.4c-23.5-19.8-27.9-54.4-10-79.5c-1.1,1.1-2.2,2.3-3.3,3.6c-21.1,25-17.9,62.3,7.1,83.3
	c25,21.1,62.3,17.9,83.3-7.1c1.1-1.2,2-2.5,3-3.8C446.3,410.7,411.5,412.3,388,392.4z"/>
<path class="st7" d="M138.9,293.2c-1.1-0.5-1.6-1.7-1.3-2.8c0-0.1,0-0.2,0.1-0.3l0,0c0-0.6-0.4-1.2-1.1-1.2c-0.4,0-0.8,0.2-1,0.5
	l0,0c-0.1,0.1-0.1,0.1-0.1,0.2c-0.5,1.1-1.7,1.7-2.8,1.3c-0.1,0-0.2,0-0.3-0.1l0,0c-0.6,0-1.2,0.4-1.2,1.1c0,0.4,0.2,0.8,0.5,1l0,0
	c0.1,0.1,0.1,0.1,0.2,0.1c1.1,0.5,1.6,1.7,1.3,2.8c0,0.1,0,0.2-0.1,0.3l0,0c0,0.6,0.4,1.2,1.1,1.2c0.4,0,0.8-0.1,1-0.5l0,0
	c0.1-0.1,0.1-0.2,0.1-0.2c0.5-1.1,1.7-1.6,2.8-1.3c0.1,0,0.2,0,0.3,0.1l0,0c0.6,0,1.2-0.4,1.2-1.1c0-0.4-0.2-0.8-0.5-1l0,0
	C139.1,293.3,139,293.2,138.9,293.2z"/>
<path class="st7" d="M105.2,578c-1.1-0.5-1.6-1.7-1.3-2.8c0-0.1,0-0.2,0.1-0.3l0,0c0-0.6-0.4-1.2-1.1-1.2c-0.4,0-0.8,0.2-1,0.5l0,0
	c-0.1,0.1-0.1,0.1-0.1,0.2c-0.5,1.1-1.7,1.7-2.8,1.3c-0.1,0-0.2,0-0.3-0.1l0,0c-0.6,0-1.2,0.4-1.2,1.1c0,0.4,0.2,0.8,0.5,1l0,0
	c0.1,0.1,0.1,0.1,0.2,0.1c1.1,0.5,1.6,1.7,1.3,2.8c0,0.1,0,0.2-0.1,0.3l0,0c0,0.6,0.4,1.2,1.1,1.2c0.4,0,0.8-0.1,1-0.5l0,0
	c0.1-0.1,0.1-0.2,0.1-0.2c0.5-1.1,1.7-1.6,2.8-1.3c0.1,0,0.2,0,0.3,0.1l0,0c0.6,0,1.2-0.4,1.2-1.1c0-0.4-0.2-0.8-0.5-1l0,0
	C105.4,578.1,105.3,578,105.2,578z"/>
<path class="st7" d="M70.3,367.6c-1.1-0.5-1.6-1.7-1.3-2.8c0-0.1,0-0.2,0.1-0.3l0,0c0-0.6-0.4-1.2-1.1-1.2c-0.4,0-0.8,0.2-1,0.5l0,0
	c-0.1,0.1-0.1,0.1-0.1,0.2c-0.5,1.1-1.7,1.7-2.8,1.3c-0.1,0-0.2,0-0.3-0.1l0,0c-0.6,0-1.2,0.4-1.2,1.1c0,0.4,0.2,0.8,0.5,1l0,0
	c0.1,0.1,0.1,0.1,0.2,0.1c1.1,0.5,1.6,1.7,1.3,2.8c0,0.1,0,0.2-0.1,0.3l0,0c0,0.6,0.4,1.2,1.1,1.2c0.4,0,0.8-0.1,1-0.5l0,0
	c0.1-0.1,0.1-0.2,0.1-0.2c0.5-1.1,1.7-1.6,2.8-1.3c0.1,0,0.2,0,0.3,0.1l0,0c0.6,0,1.2-0.4,1.2-1.1c0-0.4-0.2-0.8-0.5-1l0,0
	C70.4,367.7,70.3,367.6,70.3,367.6z"/>
<g class="st8">
	<rect x="123.7" y="420.4" class="st9" width="1.9" height="10.8"/>
	<rect x="119.3" y="424.8" class="st9" width="10.8" height="1.9"/>
</g>
<circle class="st10" cx="57.6" cy="264.6" r="3.8"/>
<circle class="st10" cx="172" cy="483.9" r="3.8"/>
<linearGradient id="SVGID_1_" gradientUnits="userSpaceOnUse" x1="377.4844" y1="210.572" x2="377.4844" y2="206.0288" gradientTransform="matrix(0.9991 -4.238051e-02 4.238051e-02 0.9991 -221.673 347.1069)">
	<stop  offset="0" style="stop-color:#010101;stop-opacity:0.12"/>
	<stop  offset="0.55" style="stop-color:#010101;stop-opacity:9.000000e-02"/>
	<stop  offset="1" style="stop-color:#010101;stop-opacity:2.000000e-02"/>
</linearGradient>
<path class="st11" d="M164.2,537c-2.9,0.1-2.7,4.7,0.2,4.5S167.1,536.8,164.2,537z"/>
<path class="st12" d="M163.9,535.2c-3.2,0.1-3,5.1,0.2,5S167.1,535,163.9,535.2z"/>
<path class="st7" d="M138.8,293.8c-1.1-0.5-1.6-1.7-1.3-2.8c0-0.1,0-0.2,0.1-0.3l0,0c0-0.6-0.4-1.2-1.1-1.2c-0.4,0-0.8,0.2-1,0.5
	l0,0c-0.1,0.1-0.1,0.1-0.1,0.2c-0.5,1.1-1.7,1.7-2.8,1.3c-0.1,0-0.2,0-0.3-0.1l0,0c-0.6,0-1.2,0.4-1.2,1.1c0,0.4,0.2,0.8,0.5,1l0,0
	c0.1,0.1,0.1,0.1,0.2,0.1c1.1,0.5,1.6,1.7,1.3,2.8c0,0.1,0,0.2-0.1,0.3l0,0c0,0.6,0.4,1.2,1.1,1.2c0.4,0,0.8-0.1,1-0.5l0,0
	c0.1-0.1,0.1-0.2,0.1-0.2c0.5-1.1,1.7-1.6,2.8-1.3c0.1,0,0.2,0,0.3,0.1l0,0c0.6,0,1.2-0.4,1.2-1.1c0-0.4-0.2-0.8-0.5-1l0,0
	C139,293.9,138.9,293.8,138.8,293.8z"/>
<path class="st7" d="M105.1,578.6c-1.1-0.5-1.6-1.7-1.3-2.8c0-0.1,0-0.2,0.1-0.3l0,0c0-0.6-0.4-1.2-1.1-1.2c-0.4,0-0.8,0.2-1,0.5
	l0,0c-0.1,0.1-0.1,0.1-0.1,0.2c-0.5,1.1-1.7,1.7-2.8,1.3c-0.1,0-0.2,0-0.3-0.1l0,0c-0.6,0-1.2,0.4-1.2,1.1c0,0.4,0.2,0.8,0.5,1l0,0
	c0.1,0.1,0.1,0.1,0.2,0.1c1.1,0.5,1.6,1.7,1.3,2.8c0,0.1,0,0.2-0.1,0.3l0,0c0,0.6,0.4,1.2,1.1,1.2c0.4,0,0.8-0.1,1-0.5l0,0
	c0.1-0.1,0.1-0.2,0.1-0.2c0.5-1.1,1.7-1.6,2.8-1.3c0.1,0,0.2,0,0.3,0.1l0,0c0.6,0,1.2-0.4,1.2-1.1c0-0.4-0.2-0.8-0.5-1l0,0
	C105.3,578.7,105.2,578.6,105.1,578.6z"/>
<path class="st7" d="M70.2,368.2c-1.1-0.5-1.6-1.7-1.3-2.8c0-0.1,0-0.2,0.1-0.3l0,0c0-0.6-0.4-1.2-1.1-1.2c-0.4,0-0.8,0.2-1,0.5l0,0
	c-0.1,0.1-0.1,0.1-0.1,0.2c-0.5,1.1-1.7,1.7-2.8,1.3c-0.1,0-0.2,0-0.3-0.1l0,0c-0.6,0-1.2,0.4-1.2,1.1c0,0.4,0.2,0.8,0.5,1l0,0
	c0.1,0.1,0.1,0.1,0.2,0.1c1.1,0.5,1.6,1.7,1.3,2.8c0,0.1,0,0.2-0.1,0.3l0,0c0,0.6,0.4,1.2,1.1,1.2c0.4,0,0.8-0.1,1-0.5l0,0
	c0.1-0.1,0.1-0.2,0.1-0.2c0.5-1.1,1.7-1.6,2.8-1.3c0.1,0,0.2,0,0.3,0.1l0,0c0.6,0,1.2-0.4,1.2-1.1c0-0.4-0.2-0.8-0.5-1l0,0
	C70.3,368.3,70.2,368.2,70.2,368.2z"/>
<g class="st8">
	<rect x="123.6" y="421" class="st9" width="1.9" height="10.8"/>
	<rect x="119.2" y="425.4" class="st9" width="10.8" height="1.9"/>
</g>
<circle class="st10" cx="57.5" cy="265.2" r="3.8"/>
<circle class="st10" cx="171.9" cy="484.5" r="3.8"/>
<linearGradient id="SVGID_2_" gradientUnits="userSpaceOnUse" x1="377.3591" y1="211.1654" x2="377.3591" y2="206.6222" gradientTransform="matrix(0.9991 -4.238051e-02 4.238051e-02 0.9991 -221.673 347.1069)">
	<stop  offset="0" style="stop-color:#010101;stop-opacity:0.12"/>
	<stop  offset="0.55" style="stop-color:#010101;stop-opacity:9.000000e-02"/>
	<stop  offset="1" style="stop-color:#010101;stop-opacity:2.000000e-02"/>
</linearGradient>
<path class="st13" d="M164.1,537.6c-2.9,0.1-2.7,4.7,0.2,4.5S167,537.4,164.1,537.6z"/>
<path class="st12" d="M163.8,535.8c-3.2,0.1-3,5.1,0.2,5S167,535.6,163.8,535.8z"/>
<path class="st7" d="M600,351.9c-1.1-0.5-1.6-1.7-1.3-2.8c0-0.1,0-0.2,0.1-0.3l0,0c0-0.6-0.4-1.2-1.1-1.2c-0.4,0-0.8,0.2-1,0.5l0,0
	c-0.1,0.1-0.1,0.1-0.1,0.2c-0.5,1.1-1.7,1.7-2.8,1.3c-0.1,0-0.2,0-0.3-0.1l0,0c-0.6,0-1.2,0.4-1.2,1.1c0,0.4,0.2,0.8,0.5,1l0,0
	c0.1,0.1,0.1,0.1,0.2,0.1c1.1,0.5,1.6,1.7,1.3,2.8c0,0.1,0,0.2-0.1,0.3l0,0c0,0.6,0.4,1.2,1.1,1.2c0.4,0,0.8-0.1,1-0.5l0,0
	c0.1-0.1,0.1-0.2,0.1-0.2c0.5-1.1,1.7-1.6,2.8-1.3c0.1,0,0.2,0,0.3,0.1l0,0c0.6,0,1.2-0.4,1.2-1.1c0-0.4-0.2-0.8-0.5-1l0,0
	C600.2,352,600.1,351.9,600,351.9z"/>
<path class="st7" d="M566.3,636.7c-1.1-0.5-1.6-1.7-1.3-2.8c0-0.1,0-0.2,0.1-0.3l0,0c0-0.6-0.4-1.2-1.1-1.2c-0.4,0-0.8,0.2-1,0.5
	l0,0c-0.1,0.1-0.1,0.1-0.1,0.2c-0.5,1.1-1.7,1.7-2.8,1.3c-0.1,0-0.2,0-0.3-0.1l0,0c-0.6,0-1.2,0.4-1.2,1.1c0,0.4,0.2,0.8,0.5,1l0,0
	c0.1,0.1,0.1,0.1,0.2,0.1c1.1,0.5,1.6,1.7,1.3,2.8c0,0.1,0,0.2-0.1,0.3l0,0c0,0.6,0.4,1.2,1.1,1.2c0.4,0,0.8-0.1,1-0.5l0,0
	c0.1-0.1,0.1-0.2,0.1-0.2c0.5-1.1,1.7-1.6,2.8-1.3c0.1,0,0.2,0,0.3,0.1l0,0c0.6,0,1.2-0.4,1.2-1.1c0-0.4-0.2-0.8-0.5-1l0,0
	C566.5,636.8,566.4,636.7,566.3,636.7z"/>
<path class="st7" d="M531.4,426.2c-1.1-0.5-1.6-1.7-1.3-2.8c0-0.1,0-0.2,0.1-0.3l0,0c0-0.6-0.4-1.2-1.1-1.2c-0.4,0-0.8,0.2-1,0.5
	l0,0c-0.1,0.1-0.1,0.1-0.1,0.2c-0.5,1.1-1.7,1.7-2.8,1.3c-0.1,0-0.2,0-0.3-0.1l0,0c-0.6,0-1.2,0.4-1.2,1.1c0,0.4,0.2,0.8,0.5,1l0,0
	c0.1,0.1,0.1,0.1,0.2,0.1c1.1,0.5,1.6,1.7,1.3,2.8c0,0.1,0,0.2-0.1,0.3l0,0c0,0.6,0.4,1.2,1.1,1.2c0.4,0,0.8-0.1,1-0.5l0,0
	c0.1-0.1,0.1-0.2,0.1-0.2c0.5-1.1,1.7-1.6,2.8-1.3c0.1,0,0.2,0,0.3,0.1l0,0c0.6,0,1.2-0.4,1.2-1.1c0-0.4-0.2-0.8-0.5-1l0,0
	C531.5,426.4,531.4,426.2,531.4,426.2z"/>
<g class="st8">
	<rect x="584.8" y="479" class="st9" width="1.9" height="10.8"/>
	<rect x="580.4" y="483.5" class="st9" width="10.8" height="1.9"/>
</g>
<circle class="st10" cx="518.7" cy="323.2" r="3.8"/>
<circle class="st10" cx="633.1" cy="542.5" r="3.8"/>
<linearGradient id="SVGID_3_" gradientUnits="userSpaceOnUse" x1="835.6831" y1="288.7097" x2="835.6831" y2="284.1665" gradientTransform="matrix(0.9991 -4.238051e-02 4.238051e-02 0.9991 -221.673 347.1069)">
	<stop  offset="0" style="stop-color:#010101;stop-opacity:0.12"/>
	<stop  offset="0.55" style="stop-color:#010101;stop-opacity:9.000000e-02"/>
	<stop  offset="1" style="stop-color:#010101;stop-opacity:2.000000e-02"/>
</linearGradient>
<path class="st14" d="M625.3,595.7c-2.9,0.1-2.7,4.7,0.2,4.5S628.2,595.5,625.3,595.7z"/>
<path class="st12" d="M625,593.9c-3.2,0.1-3,5.1,0.2,5C628.4,598.8,628.2,593.7,625,593.9z"/>
<path class="st7" d="M228.8,57.7c-0.7,1-2,1.2-3,0.7c-0.1,0-0.2,0-0.3-0.2l0,0c-0.6-0.1-1.3,0.2-1.4,0.8c-0.1,0.4,0,0.8,0.3,1.1l0,0
	c0.1,0.1,0.1,0.1,0.2,0.1c1,0.7,1.3,2,0.7,3c0,0.1,0,0.2-0.2,0.3l0,0c-0.1,0.6,0.2,1.3,0.8,1.4c0.4,0.1,0.8,0,1.1-0.3l0,0
	c0.1-0.1,0.1-0.1,0.1-0.2c0.7-1,2-1.2,3-0.7c0.1,0,0.2,0,0.3,0.2l0,0c0.6,0.1,1.3-0.2,1.4-0.8c0.1-0.4,0.1-0.8-0.3-1.1l0,0
	c-0.1-0.1-0.2-0.1-0.2-0.1c-1-0.7-1.2-2-0.7-3c0-0.1,0-0.2,0.2-0.3l0,0c0.1-0.6-0.2-1.3-0.8-1.4c-0.4-0.1-0.8,0-1.1,0.3l0,0
	C228.9,57.5,228.8,57.6,228.8,57.7z"/>
<path class="st7" d="M501.3,147c-0.7,1-2,1.2-3,0.7c-0.1,0-0.2,0-0.3-0.2l0,0c-0.6-0.1-1.3,0.2-1.4,0.8c-0.1,0.4,0,0.8,0.3,1.1l0,0
	c0.1,0.1,0.1,0.1,0.2,0.1c1,0.7,1.3,2,0.7,3c0,0.1,0,0.2-0.2,0.3l0,0c-0.1,0.6,0.2,1.3,0.8,1.4c0.4,0.1,0.8,0,1.1-0.3l0,0
	c0.1-0.1,0.1-0.1,0.1-0.2c0.7-1,2-1.2,3-0.7c0.1,0,0.2,0,0.3,0.2l0,0c0.6,0.1,1.3-0.2,1.4-0.8c0.1-0.4,0.1-0.8-0.3-1.1l0,0
	c-0.1-0.1-0.2-0.1-0.2-0.1c-1-0.7-1.2-2-0.7-3c0-0.1,0-0.2,0.2-0.3l0,0c0.1-0.6-0.2-1.3-0.8-1.4c-0.4-0.1-0.8,0-1.1,0.3l0,0
	C501.4,146.8,501.3,146.9,501.3,147z"/>
<path class="st7" d="M288.1,139.7c-0.7,1-2,1.2-3,0.7c-0.1,0-0.2,0-0.3-0.2l0,0c-0.6-0.1-1.3,0.2-1.4,0.8c-0.1,0.4,0,0.8,0.3,1.1
	l0,0c0.1,0.1,0.1,0.1,0.2,0.1c1,0.7,1.3,2,0.7,3c0,0.1,0,0.2-0.2,0.3l0,0c-0.1,0.6,0.2,1.3,0.8,1.4c0.4,0.1,0.8,0,1.1-0.3l0,0
	c0.1-0.1,0.1-0.1,0.1-0.2c0.7-1,2-1.2,3-0.7c0.1,0,0.2,0,0.3,0.2l0,0c0.6,0.1,1.3-0.2,1.4-0.8c0.1-0.4,0.1-0.8-0.3-1.1l0,0
	c-0.1-0.1-0.2-0.1-0.2-0.1c-1-0.7-1.2-2-0.7-3c0-0.1,0-0.2,0.2-0.3l0,0c0.1-0.6-0.2-1.3-0.8-1.4c-0.4-0.1-0.8,0-1.1,0.3l0,0
	C288.3,139.6,288.1,139.7,288.1,139.7z"/>
<g class="st8">
	
		<rect x="355" y="92.5" transform="matrix(0.1976 -0.9803 0.9803 0.1976 189.6881 427.4495)" class="st9" width="1.9" height="10.8"/>
	
		<rect x="350.5" y="96.9" transform="matrix(0.1976 -0.9803 0.9803 0.1976 189.7075 427.3802)" class="st9" width="10.8" height="1.9"/>
</g>
<ellipse class="st10" cx="184.7" cy="131.7" rx="3.8" ry="3.8"/>
<ellipse transform="matrix(0.1976 -0.9803 0.9803 0.1976 277.0331 464.3824)" class="st10" cx="422.2" cy="63" rx="3.8" ry="3.8"/>
<linearGradient id="SVGID_4_" gradientUnits="userSpaceOnUse" x1="604.9761" y1="309.9204" x2="604.9761" y2="305.3772" gradientTransform="matrix(0.1559 -0.9878 0.9878 0.1559 76.7205 631.0732)">
	<stop  offset="0" style="stop-color:#010101;stop-opacity:0.12"/>
	<stop  offset="0.55" style="stop-color:#010101;stop-opacity:9.000000e-02"/>
	<stop  offset="1" style="stop-color:#010101;stop-opacity:2.000000e-02"/>
</linearGradient>
<path class="st15" d="M472.8,81.1c-0.5,2.9,4.1,3.6,4.5,0.7C477.6,78.9,473.1,78.2,472.8,81.1z"/>
<path class="st12" d="M470.9,81c-0.5,3.2,4.4,3.9,4.9,0.8C476.4,78.7,471.4,77.8,470.9,81z"/>
<path class="st7" d="M229.3,58c-0.7,1-2,1.2-3,0.7c-0.1,0-0.2,0-0.3-0.2l0,0c-0.6-0.1-1.3,0.2-1.4,0.8c-0.1,0.4,0,0.8,0.3,1.1l0,0
	c0.1,0.1,0.1,0.1,0.2,0.1c1,0.7,1.3,2,0.7,3c0,0.1,0,0.2-0.2,0.3l0,0c-0.1,0.6,0.2,1.3,0.8,1.4c0.4,0.1,0.8,0,1.1-0.3l0,0
	c0.1-0.1,0.1-0.1,0.1-0.2c0.7-1,2-1.2,3-0.7c0.1,0,0.2,0,0.3,0.2l0,0c0.6,0.1,1.3-0.2,1.4-0.8c0.1-0.4,0.1-0.8-0.3-1.1l0,0
	c-0.1-0.1-0.2-0.1-0.2-0.1c-1-0.7-1.2-2-0.7-3c0-0.1,0-0.2,0.2-0.3l0,0c0.1-0.6-0.2-1.3-0.8-1.4c-0.4-0.1-0.8,0-1.1,0.3l0,0
	C229.5,57.8,229.3,57.9,229.3,58z"/>
<path class="st7" d="M501.8,147.3c-0.7,1-2,1.2-3,0.7c-0.1,0-0.2,0-0.3-0.2l0,0c-0.6-0.1-1.3,0.2-1.4,0.8c-0.1,0.4,0,0.8,0.3,1.1
	l0,0c0.1,0.1,0.1,0.1,0.2,0.1c1,0.7,1.3,2,0.7,3c0,0.1,0,0.2-0.2,0.3l0,0c-0.1,0.6,0.2,1.3,0.8,1.4c0.4,0.1,0.8,0,1.1-0.3l0,0
	c0.1-0.1,0.1-0.1,0.1-0.2c0.7-1,2-1.2,3-0.7c0.1,0,0.2,0,0.3,0.2l0,0c0.6,0.1,1.3-0.2,1.4-0.8c0.1-0.4,0.1-0.8-0.3-1.1l0,0
	c-0.1-0.1-0.2-0.1-0.2-0.1c-1-0.7-1.2-2-0.7-3c0-0.1,0-0.2,0.2-0.3l0,0c0.1-0.6-0.2-1.3-0.8-1.4c-0.4-0.1-0.8,0-1.1,0.3l0,0
	C502,147.1,501.9,147.2,501.8,147.3z"/>
<path class="st7" d="M288.7,139.9c-0.7,1-2,1.2-3,0.7c-0.1,0-0.2,0-0.3-0.2l0,0c-0.6-0.1-1.3,0.2-1.4,0.8c-0.1,0.4,0,0.8,0.3,1.1
	l0,0c0.1,0.1,0.1,0.1,0.2,0.1c1,0.7,1.3,2,0.7,3c0,0.1,0,0.2-0.2,0.3l0,0c-0.1,0.6,0.2,1.3,0.8,1.4c0.4,0.1,0.8,0,1.1-0.3l0,0
	c0.1-0.1,0.1-0.1,0.1-0.2c0.7-1,2-1.2,3-0.7c0.1,0,0.2,0,0.3,0.2l0,0c0.6,0.1,1.3-0.2,1.4-0.8c0.1-0.4,0.1-0.8-0.3-1.1l0,0
	c-0.1-0.1-0.2-0.1-0.2-0.1c-1-0.7-1.2-2-0.7-3c0-0.1,0-0.2,0.2-0.3l0,0c0.1-0.6-0.2-1.3-0.8-1.4c-0.4-0.1-0.8,0-1.1,0.3l0,0
	C288.8,139.8,288.7,139.9,288.7,139.9z"/>
<g class="st8">
	
		<rect x="355.5" y="92.8" transform="matrix(0.1976 -0.9803 0.9803 0.1976 189.779 428.1746)" class="st9" width="1.9" height="10.8"/>
	
		<rect x="351" y="97.1" transform="matrix(0.1976 -0.9803 0.9803 0.1976 189.9104 428.046)" class="st9" width="10.8" height="1.9"/>
</g>
<ellipse class="st10" cx="185.2" cy="132" rx="3.8" ry="3.8"/>
<ellipse transform="matrix(0.1976 -0.9803 0.9803 0.1976 277.2953 465.1602)" class="st10" cx="422.8" cy="63.2" rx="3.8" ry="3.8"/>
<linearGradient id="SVGID_5_" gradientUnits="userSpaceOnUse" x1="604.8224" y1="310.5138" x2="604.8224" y2="305.9706" gradientTransform="matrix(0.1559 -0.9878 0.9878 0.1559 76.7205 631.0732)">
	<stop  offset="0" style="stop-color:#010101;stop-opacity:0.12"/>
	<stop  offset="0.55" style="stop-color:#010101;stop-opacity:9.000000e-02"/>
	<stop  offset="1" style="stop-color:#010101;stop-opacity:2.000000e-02"/>
</linearGradient>
<path class="st16" d="M473.3,81.3c-0.5,2.9,4.1,3.6,4.5,0.7C478.1,79.2,473.7,78.5,473.3,81.3z"/>
<path class="st12" d="M471.5,81.3c-0.5,3.2,4.4,3.9,4.9,0.8C477,78.9,471.9,78.1,471.5,81.3z"/>
<ellipse class="st17" cx="333.3" cy="694.8" rx="1.9" ry="1.3"/>
<circle class="st18" cx="135.3" cy="218.7" r="64.1"/>
<path class="st19" d="M86.9,189.7c0,0-13.1,18.8-5.6,36.6S86.9,189.7,86.9,189.7z"/>
<g id="Layer_5_1_">
	<path class="st20" d="M190.6,225.2c0,0-24.1-0.9-44.7,5.4s-34.6,12.9-46.2,23.8c0,0,1.3-36.1,35.5-43S190.6,225.2,190.6,225.2z"/>
	<ellipse transform="matrix(0.9864 -0.1645 0.1645 0.9864 -32.5066 21.0764)" class="st20" cx="111" cy="206.8" rx="7.2" ry="6.2"/>
	
		<ellipse transform="matrix(0.8141 -0.5807 0.5807 0.8141 -85.2544 123.6521)" class="st20" cx="150.5" cy="195" rx="7.1" ry="6.2"/>
</g>
<line class="st21" x1="452.3" y1="353.6" x2="452.2" y2="353.4"/>
<path class="st5" d="M444.7,334.8"/>
<path class="st5" d="M449.1,322.3"/>
<path class="st5" d="M453.1,354"/>
<path class="st22" d="M454.2,311.9l-1.5-1.1c-1.8-1.3-4.4-1-5.7,0.8l-22,28.3l-28.7-21.5c-1.8-1.3-4.4-1-5.7,0.8l-1.1,1.5
	c-1.3,1.8-1,4.3,0.8,5.6l0,0l28.7,21.6l-22,28.3c-1.3,1.8-1,4.3,0.8,5.6l1.5,1.1c1.8,1.3,4.4,1,5.7-0.8l22-28.3l28.7,21.5
	c1.8,1.3,4.4,1,5.7-0.8l1.1-1.5c1.3-1.8,1-4.3-0.8-5.6L433,345.9l22-28.3C456.3,315.8,455.9,313.3,454.2,311.9z"/>
<path class="st23" d="M396,377.6l21.4-27.5l-0.2-0.2l-20.4,26.2C396.3,376.5,396.1,377.1,396,377.6z"/>
<path class="st23" d="M389,321.5c1.3-1.8,4-2.1,5.7-0.8l0,0l28.7,21.5l22-28.3c1.3-1.8,4-2.1,5.7-0.8l0,0l1.5,1.1
	c1.3,1,1.9,2.6,1.5,4.2l0.7-0.9c1.3-1.8,1-4.3-0.8-5.6l0,0l-1.5-1.1c-1.8-1.3-4.4-1-5.7,0.8l-22,28.3l-28.7-21.6
	c-1.8-1.3-4.4-1-5.7,0.8l-1.1,1.5c-0.4,0.4-0.6,0.9-0.7,1.5L389,321.5z"/>
<path class="st23" d="M433.1,346.1l-1.7,2.1l28.7,21.5c1.3,1,1.9,2.6,1.5,4.2l0.7-0.9c1.3-1.8,1-4.3-0.8-5.6l0,0L433.1,346.1z"/>
<path class="st24" d="M335.7,381.8c-17.9-31.8-58.2-43-89.9-25.1l0,0c-18.4-31.5-58.8-42.1-90.2-23.7c-30.8,18-41.8,57.2-24.7,88.5
	l0,0l64.8,115l115-64.8C342.4,453.9,353.6,413.6,335.7,381.8C335.7,381.8,335.7,381.8,335.7,381.8z"/>
</svg>
