<?xml version="1.0" encoding="utf-8"?>
<!-- Generator: Adobe Illustrator 22.0.1, SVG Export Plug-In . SVG Version: 6.00 Build 0)  -->
<svg version="1.1" id="Layer_1" xmlns="http://www.w3.org/2000/svg" xmlns:xlink="http://www.w3.org/1999/xlink" x="0px" y="0px"
	 viewBox="0 0 450 500" style="enable-background:new 0 0 450 500;" xml:space="preserve">
<style type="text/css">
	.st0{opacity:0.5;fill:#5D84C3;enable-background:new    ;}
	.st1{opacity:0.5;fill:#F26248;enable-background:new    ;}
	.st2{opacity:0.5;}
	.st3{fill:url(#SVGID_1_);}
	.st4{fill:#FFFFFF;}
	.st5{fill:#BCBCBB;}
	.st6{fill:#DCDBDB;}
	.st7{fill:#E0E1E0;}
	.st8{fill:#F5F6F6;}
	.st9{fill:#75ABDC;}
	.st10{fill:#333333;}
	.st11{opacity:0.1;fill:#010101;enable-background:new    ;}
	.st12{fill:#F8A57E;}
	.st13{fill:url(#SVGID_2_);}
	.st14{fill:#FAFBFC;}
	.st15{fill:url(#SVGID_3_);}
	.st16{fill:#EEEDEE;}
	.st17{fill:#70C6A6;}
	.st18{opacity:5.000000e-02;fill:#030303;enable-background:new    ;}
	.st19{fill:#F16584;}
	.st20{fill:#2D8ACA;}
	.st21{fill:url(#SVGID_4_);}
	.st22{fill:url(#SVGID_5_);}
</style>
<path class="st0" d="M-24.6,127.9c-1.1-0.5-1.6-1.7-1.3-2.8c0-0.1,0-0.2,0.1-0.3l0,0c0-0.6-0.4-1.2-1.1-1.2c-0.4,0-0.8,0.2-1,0.5
	l0,0c-0.1,0.1-0.1,0.1-0.1,0.2c-0.5,1.1-1.7,1.7-2.8,1.3c-0.1,0-0.2,0-0.3-0.1l0,0c-0.6,0-1.2,0.4-1.2,1.1c0,0.4,0.2,0.8,0.5,1l0,0
	c0.1,0.1,0.1,0.1,0.2,0.1c1.1,0.5,1.6,1.7,1.3,2.8c0,0.1,0,0.2-0.1,0.3l0,0c0,0.6,0.4,1.2,1.1,1.2c0.4,0,0.8-0.1,1-0.5l0,0
	c0.1-0.1,0.1-0.2,0.1-0.2c0.5-1.1,1.7-1.6,2.8-1.3c0.1,0,0.2,0,0.3,0.1l0,0c0.6,0,1.2-0.4,1.2-1.1c0-0.4-0.2-0.8-0.5-1l0,0
	C-24.5,128-24.6,127.9-24.6,127.9z"/>
<circle class="st1" cx="-37.3" cy="24.9" r="3.8"/>
<g class="st2">
	
		<linearGradient id="SVGID_1_" gradientUnits="userSpaceOnUse" x1="335.7172" y1="7.025" x2="497.5003" y2="389.05" gradientTransform="matrix(1 -2.443458e-03 -2.443458e-03 -1 -280.528 438.8261)">
		<stop  offset="0" style="stop-color:#818181;stop-opacity:0.25"/>
		<stop  offset="0.54" style="stop-color:#818181;stop-opacity:0.12"/>
		<stop  offset="1" style="stop-color:#818181;stop-opacity:0.1"/>
	</linearGradient>
	<path class="st3" d="M230.8,55.4L39.5,55.9c-4.3,0-7.9,3.5-7.8,7.9l0.9,352.5c0,4.3,3.5,7.9,7.9,7.8c0,0,0,0,0,0l191.2-0.5
		c4.3,0,7.8-3.5,7.8-7.9l-0.9-352.5C238.6,58.9,235.1,55.4,230.8,55.4z"/>
	<path class="st4" d="M41.7,55.6l187-0.5c4,0,7.2,3.2,7.2,7.2l0.9,349.1c0,4-3.2,7.2-7.2,7.2l-187,0.5c-4,0-7.2-3.2-7.2-7.2
		L34.5,62.8C34.5,58.8,37.7,55.6,41.7,55.6z"/>
	<path class="st5" d="M231,155.8L231,155.8l-0.2-83.9c0-4.2-3.4-7.6-7.7-7.6l-37.4,0.1c-1.2,8-8,13.9-16.1,13.9l-69.6,0.2
		c-8.1,0-14.9-5.9-16.1-13.8l-36.8,0.1c-4.2,0-7.6,3.4-7.6,7.7l0.2,84.6l0.6,245.3c0,4.2,3.5,7.6,7.7,7.6l176-0.4
		c4.2,0,7.6-3.4,7.6-7.6L231,155.8z"/>
	<path class="st6" d="M112,69.2l42.8-0.6c0.6,0,1.1,0.5,1.1,1l0,0.7c0,0.6-0.5,1.1-1,1.1L112,72c-0.6,0-1.1-0.5-1.1-1l0-0.7
		C110.9,69.7,111.4,69.2,112,69.2z"/>
	<circle class="st6" cx="165.3" cy="69.5" r="1.7"/>
	<rect x="119.4" y="109.8" class="st7" width="93.8" height="7.5"/>
	<rect x="119.4" y="124.7" class="st7" width="93.8" height="7.5"/>
	<ellipse class="st8" cx="72.9" cy="117.9" rx="17.7" ry="17.8"/>
	<path class="st9" d="M80.5,130.4H65.2c-1.5,0-2.9,0.8-3.7,2c7,4,15.6,4.1,22.7,0.1C83.4,131.2,82,130.4,80.5,130.4z"/>
	<path class="st10" d="M65.3,118.4c0,0-2.2,6.5-3.5,5.9c0,0,11.8,10.2,22.3,0c-1.3-2.2-2.8-4.1-4.5-5.9H65.3z"/>
	<circle class="st10" cx="72.9" cy="117.8" r="8.8"/>
	<path class="st11" d="M69.8,127.3h6.1l0,0v2.4c0,1.6-1.3,2.8-2.8,2.8h-0.5c-1.6,0-2.8-1.3-2.8-2.8L69.8,127.3L69.8,127.3z"/>
	<path class="st12" d="M70.5,127.2h4.8c0.4,0,0.6,0.3,0.6,0.6v1.8c0,1.6-1.3,2.8-2.8,2.8h-0.5c-1.5,0-2.8-1.3-2.8-2.8v-1.7
		C69.8,127.5,70.1,127.2,70.5,127.2C70.4,127.2,70.4,127.2,70.5,127.2z"/>
	<path class="st11" d="M69.8,128.1c2,0.7,4.2,0.7,6.1,0v-0.7h-6.1V128.1z"/>
	<circle class="st12" cx="72.9" cy="119.7" r="8.8"/>
	<path class="st10" d="M64.5,116.3h16.8c0,0-1.4-6.8-7.8-6.3S64.5,116.3,64.5,116.3z"/>
	<ellipse class="st12" cx="64.3" cy="119.3" rx="0.8" ry="1.5"/>
	<ellipse class="st12" cx="81.5" cy="119.3" rx="0.8" ry="1.5"/>
	<path class="st11" d="M64.5,116.6h16.8c0,0-1.4-6.8-7.8-6.3S64.5,116.6,64.5,116.6z"/>
	<rect x="119.4" y="166.7" class="st7" width="93.8" height="7.5"/>
	<rect x="119.4" y="181.7" class="st7" width="93.8" height="7.5"/>
	<ellipse class="st7" cx="72.9" cy="174.9" rx="17.7" ry="17.8"/>
	<rect x="119.4" y="223.7" class="st7" width="93.8" height="7.5"/>
	<rect x="119.4" y="238.6" class="st7" width="93.8" height="7.5"/>
	<ellipse class="st7" cx="72.9" cy="231.8" rx="17.7" ry="17.8"/>
	<rect x="119.4" y="280.6" class="st7" width="93.8" height="7.5"/>
	<rect x="119.4" y="295.6" class="st7" width="93.8" height="7.5"/>
	<ellipse class="st7" cx="72.9" cy="288.7" rx="17.7" ry="17.8"/>
	<rect x="119.4" y="337.5" class="st7" width="93.8" height="7.5"/>
	<rect x="119.4" y="352.5" class="st7" width="93.8" height="7.5"/>
	<ellipse class="st7" cx="72.9" cy="345.7" rx="17.7" ry="17.8"/>
</g>
<linearGradient id="SVGID_2_" gradientUnits="userSpaceOnUse" x1="459.0029" y1="-35.9713" x2="620.1666" y2="344.5996" gradientTransform="matrix(1 -2.443458e-03 -2.443458e-03 -1 -280.528 438.8261)">
	<stop  offset="0" style="stop-color:#818181;stop-opacity:0.25"/>
	<stop  offset="0.54" style="stop-color:#818181;stop-opacity:0.12"/>
	<stop  offset="1" style="stop-color:#818181;stop-opacity:0.1"/>
</linearGradient>
<path class="st13" d="M353.8,99.7l-191.2,0.5c-4.3,0-7.8,3.5-7.8,7.9l0.9,350.8c0,4.3,3.5,7.9,7.9,7.8h0l191.2-0.5
	c4.3,0,7.8-3.5,7.8-7.9l-0.9-350.8C361.7,103.2,358.2,99.7,353.8,99.7C353.8,99.7,353.8,99.7,353.8,99.7z"/>
<path class="st4" d="M164.8,98.1l187-0.5c4,0,7.2,3.2,7.2,7.2l0.9,349.1c0,4-3.2,7.2-7.2,7.2l-187,0.5c-4,0-7.2-3.2-7.2-7.2
	l-0.9-349.1C157.6,101.4,160.8,98.2,164.8,98.1z"/>
<path id="_x39_f21819d-df43-48b3-835e-9020276cbed3" class="st14" d="M354.1,199l-0.2-84.5c0-4.2-3.4-7.6-7.7-7.6l-37.4,0.1
	c-1.2,8-8,13.9-16.1,13.9l-69.5,0.2c-8.1,0-14.9-5.9-16.1-13.8l-36.8,0.1c-4.2,0-7.6,3.4-7.6,7.7l0.2,84.6"/>
<path id="c36a71a1-8927-4a8e-aa0b-340c78108d04" class="st14" d="M162.8,199.6l0.6,245.3c0,4.2,3.4,7.6,7.7,7.6l176-0.4
	c4.2,0,7.6-3.4,7.6-7.7l-0.6-246"/>
<rect x="179.8" y="142" class="st7" width="37.4" height="37.4"/>
<g class="st2">
	
		<linearGradient id="SVGID_3_" gradientUnits="userSpaceOnUse" x1="258.7826" y1="207.5911" x2="258.7826" y2="291.5653" gradientTransform="matrix(1 0 0 -1 0 502)">
		<stop  offset="0" style="stop-color:#818181;stop-opacity:0.25"/>
		<stop  offset="0.54" style="stop-color:#818181;stop-opacity:0.12"/>
		<stop  offset="1" style="stop-color:#818181;stop-opacity:0.1"/>
	</linearGradient>
	<rect x="135.3" y="210.4" class="st15" width="246.9" height="84"/>
</g>
<rect x="138.3" y="213.9" class="st4" width="241" height="77.6"/>
<rect x="234.4" y="242.6" class="st9" width="93.8" height="7.5"/>
<rect x="234.4" y="257.6" class="st9" width="93.8" height="7.5"/>
<rect x="234.4" y="325.5" class="st7" width="93.8" height="7.5"/>
<rect x="234.4" y="340.4" class="st16" width="93.8" height="7.5"/>
<rect x="260.3" y="171.9" class="st9" width="42" height="13.2"/>
<ellipse class="st8" cx="187.9" cy="250.8" rx="17.7" ry="17.8"/>
<path class="st9" d="M195.6,263.2h-15.4c-1.5,0-2.9,0.8-3.7,2c7,4,15.6,4.1,22.7,0.1C198.4,264.1,197,263.3,195.6,263.2z"/>
<path class="st10" d="M180.3,251.2c0,0-2.2,6.5-3.5,5.9c0,0,11.8,10.2,22.3,0c-1.3-2.2-2.8-4.1-4.5-5.9H180.3z"/>
<circle class="st10" cx="187.9" cy="250.6" r="8.8"/>
<path class="st11" d="M184.8,260.2h6.1l0,0v2.4c0,1.6-1.3,2.8-2.8,2.8h-0.5c-1.6,0-2.8-1.3-2.8-2.8L184.8,260.2L184.8,260.2z"/>
<path class="st12" d="M185.5,260h4.8c0.4,0,0.6,0.3,0.6,0.6c0,0,0,0,0,0v1.7c0,1.6-1.3,2.8-2.8,2.8c0,0,0,0,0,0h-0.5
	c-1.6,0-2.8-1.3-2.8-2.8v-1.7C184.8,260.3,185.1,260,185.5,260C185.5,260,185.5,260,185.5,260L185.5,260z"/>
<path class="st11" d="M184.8,260.9c2,0.7,4.2,0.7,6.1,0v-0.8h-6.1V260.9z"/>
<circle class="st12" cx="187.9" cy="252.5" r="8.8"/>
<path class="st10" d="M179.5,249.2h16.8c0,0-1.4-6.8-7.8-6.3S179.5,249.2,179.5,249.2z"/>
<ellipse class="st12" cx="179.3" cy="252.1" rx="0.8" ry="1.5"/>
<ellipse class="st12" cx="196.5" cy="252.1" rx="0.8" ry="1.5"/>
<path class="st11" d="M179.5,249.4h16.8c0,0-1.4-6.8-7.8-6.3S179.5,249.4,179.5,249.4z"/>
<ellipse class="st7" cx="199.4" cy="334.2" rx="17.7" ry="17.8"/>
<ellipse class="st7" cx="199.4" cy="402.6" rx="17.7" ry="17.8"/>
<rect x="234.4" y="391.6" class="st7" width="93.8" height="7.5"/>
<rect x="234.4" y="406.6" class="st16" width="93.8" height="7.5"/>
<rect x="234.4" y="142" class="st7" width="93.8" height="7.5"/>
<rect x="234.4" y="156.9" class="st7" width="93.8" height="7.5"/>
<path class="st6" d="M235.1,111.7l42.8-0.6c0.6,0,1.1,0.5,1.1,1l0,0.7c0,0.6-0.5,1.1-1,1.1l-42.8,0.6c-0.6,0-1.1-0.5-1.1-1l0-0.7
	C234,112.2,234.5,111.7,235.1,111.7z"/>
<circle class="st6" cx="288.4" cy="112.1" r="1.7"/>
<circle class="st4" cx="287.4" cy="393.3" r="6.2"/>
<circle class="st4" cx="307" cy="383.6" r="3.1"/>
<path class="st0" d="M21.3,120.2c-1.1-0.5-1.6-1.7-1.3-2.8c0-0.1,0-0.2,0.1-0.3l0,0c0-0.6-0.4-1.2-1.1-1.2c-0.4,0-0.8,0.2-1,0.5l0,0
	c-0.1,0.1-0.1,0.1-0.1,0.2c-0.5,1.1-1.7,1.7-2.8,1.3c-0.1,0-0.2,0-0.3-0.1l0,0c-0.6,0-1.2,0.4-1.2,1.1c0,0.4,0.2,0.8,0.5,1l0,0
	c0.1,0.1,0.1,0.1,0.2,0.1c1.1,0.5,1.6,1.7,1.3,2.8c0,0.1,0,0.2-0.1,0.3l0,0c0,0.6,0.4,1.2,1.1,1.2c0.4,0,0.8-0.1,1-0.5l0,0
	c0.1-0.1,0.1-0.2,0.1-0.2c0.5-1.1,1.7-1.6,2.8-1.3c0.1,0,0.2,0,0.3,0.1l0,0c0.6,0,1.2-0.4,1.2-1.1c0-0.4-0.2-0.8-0.5-1l0,0
	C21.5,120.3,21.4,120.2,21.3,120.2z"/>
<path class="st0" d="M344.8,314.7c-1.1-0.5-1.6-1.7-1.3-2.8c0-0.1,0-0.2,0.1-0.3l0,0c0-0.6-0.4-1.2-1.1-1.2c-0.4,0-0.8,0.2-1,0.5
	l0,0c-0.1,0.1-0.1,0.1-0.1,0.2c-0.5,1.1-1.7,1.7-2.8,1.3c-0.1,0-0.2,0-0.3-0.1l0,0c-0.6,0-1.2,0.4-1.2,1.1c0,0.4,0.2,0.8,0.5,1l0,0
	c0.1,0.1,0.1,0.1,0.2,0.1c1.1,0.5,1.6,1.7,1.3,2.8c0,0.1,0,0.2-0.1,0.3l0,0c0,0.6,0.4,1.2,1.1,1.2c0.4,0,0.8-0.1,1-0.5l0,0
	c0.1-0.1,0.1-0.2,0.1-0.2c0.5-1.1,1.7-1.6,2.8-1.3c0.1,0,0.2,0,0.3,0.1l0,0c0.6,0,1.2-0.4,1.2-1.1c0-0.4-0.2-0.8-0.5-1l0,0
	C345,314.8,344.9,314.7,344.8,314.7z"/>
<path class="st0" d="M-12.4,405c-1.1-0.5-1.6-1.7-1.3-2.8c0-0.1,0-0.2,0.1-0.3l0,0c0-0.6-0.4-1.2-1.1-1.2c-0.4,0-0.8,0.2-1,0.5l0,0
	c-0.1,0.1-0.1,0.1-0.1,0.2c-0.5,1.1-1.7,1.7-2.8,1.3c-0.1,0-0.2,0-0.3-0.1l0,0c-0.6,0-1.2,0.4-1.2,1.1c0,0.4,0.2,0.8,0.5,1l0,0
	c0.1,0.1,0.1,0.1,0.2,0.1c1.1,0.5,1.6,1.7,1.3,2.8c0,0.1,0,0.2-0.1,0.3l0,0c0,0.6,0.4,1.2,1.1,1.2c0.4,0,0.8-0.1,1-0.5l0,0
	c0.1-0.1,0.1-0.2,0.1-0.2c0.5-1.1,1.7-1.6,2.8-1.3c0.1,0,0.2,0,0.3,0.1l0,0c0.6,0,1.2-0.4,1.2-1.1c0-0.4-0.2-0.8-0.5-1l0,0
	C-12.2,405.1-12.3,405-12.4,405z"/>
<path class="st0" d="M338.5,87.8c-1.1-0.5-1.6-1.7-1.3-2.8c0-0.1,0-0.2,0.1-0.3l0,0c0-0.6-0.4-1.2-1.1-1.2c-0.4,0-0.8,0.2-1,0.5l0,0
	c-0.1,0.1-0.1,0.1-0.1,0.2c-0.5,1.1-1.7,1.6-2.8,1.3c-0.1,0-0.2,0-0.3-0.1l0,0c-0.6-0.1-1.3,0.3-1.4,0.9c-0.1,0.5,0.1,1,0.6,1.3l0,0
	c0.1,0.1,0.1,0.1,0.2,0.1c1.1,0.5,1.6,1.7,1.3,2.8c0,0.1,0,0.2-0.1,0.3l0,0c-0.1,0.6,0.4,1.2,1,1.3c0.4,0,0.9-0.2,1.1-0.5l0,0
	c0.1-0.1,0.1-0.2,0.1-0.2c0.5-1.1,1.7-1.6,2.8-1.3c0.1,0,0.2,0,0.3,0.1l0,0c0.6,0,1.2-0.4,1.2-1.1c0-0.4-0.2-0.8-0.5-1l0,0
	C338.6,87.9,338.6,87.8,338.5,87.8z"/>
<g class="st2">
	<rect x="6.1" y="247.4" class="st17" width="1.9" height="10.8"/>
	<rect x="1.7" y="251.8" class="st17" width="10.8" height="1.9"/>
</g>
<g class="st2">
	<rect x="463.8" y="196.5" class="st17" width="1.9" height="10.8"/>
	<rect x="459.3" y="201" class="st17" width="10.8" height="1.9"/>
</g>
<circle class="st1" cx="395.7" cy="135.5" r="3.8"/>
<circle class="st1" cx="54.4" cy="310.9" r="3.8"/>
<ellipse class="st18" cx="84.9" cy="181.6" rx="21.6" ry="4.4"/>
<ellipse class="st18" cx="84.9" cy="215.3" rx="21.6" ry="4.4"/>
<path class="st19" d="M77.6,353.5l-0.7-0.3c-0.8-0.3-1.7,0.1-1.9,0.9l-4.1,13.5l-13.1-5.2c-0.8-0.3-1.7,0.1-1.9,0.9l-0.2,0.7
	c-0.3,0.8,0.2,1.8,1,2.1l0,0l13.1,5.2l-4.1,13.5c-0.3,0.8,0.2,1.8,1,2.1l0.7,0.3c0.8,0.3,1.7-0.1,1.9-0.9l4.1-13.5l13.1,5.2
	c0.8,0.3,1.7-0.1,1.9-0.9l0.2-0.7c0.3-0.8-0.2-1.8-1-2.1l-13.1-5.2l4.1-13.5C78.9,354.7,78.5,353.8,77.6,353.5z"/>
<path class="st20" d="M99.8,341.8c-14.2-16.4-39-18.2-55.3-4c-0.2,0.2-0.5,0.4-0.7,0.6c-15.6,14.2-17.2,38.5-3.5,54.5
	c12.4,14.5,33.5,18,50,8.2l26.8,31c0.7,0.8,1.9,0.9,2.7,0.2l7.4-6.4c0.8-0.7,0.9-1.9,0.2-2.7l-26.8-31
	C112.6,377.5,112.3,356.2,99.8,341.8z M88.5,388.7c-11.7,10.1-29.5,8.9-39.6-2.9s-8.9-29.5,2.9-39.6c11.7-10.1,29.4-8.9,39.6,2.9
	C101.5,360.8,100.2,378.5,88.5,388.7L88.5,388.7z"/>
<linearGradient id="SVGID_4_" gradientUnits="userSpaceOnUse" x1="283.7109" y1="68.687" x2="283.7109" y2="87.8955" gradientTransform="matrix(0.9991 -4.238051e-02 -4.238051e-02 -0.9991 -211.1895 443.6267)">
	<stop  offset="0" style="stop-color:#030303;stop-opacity:0.12"/>
	<stop  offset="0.55" style="stop-color:#030303;stop-opacity:9.000000e-02"/>
	<stop  offset="1" style="stop-color:#030303;stop-opacity:2.000000e-02"/>
</linearGradient>
<path class="st21" d="M68,343.8c-9,0.1-16.9,5.9-20.9,14.4c-1.3,2.7,2.8,4.9,4.1,2.2c3.3-7,9.9-11.6,17.3-11.7
	c7.7-0.1,15,5,19.1,12.3c1.5,2.8,5.1,0,3.6-2.7C86.3,349.5,77.2,343.7,68,343.8z"/>
<path class="st20" d="M68.5,341.5c-8.9,0.1-16.8,5.6-20.8,13.5c-1.3,2.6,2.8,4.6,4.1,2.1c3.3-6.5,9.9-10.9,17.2-11
	c7.7-0.1,14.9,4.6,18.9,11.5c1.5,2.6,5.1,0,3.6-2.5C86.6,346.7,77.7,341.3,68.5,341.5z"/>
<linearGradient id="SVGID_5_" gradientUnits="userSpaceOnUse" x1="260.9396" y1="64.145" x2="260.9396" y2="68.6882" gradientTransform="matrix(0.9991 -4.238051e-02 -4.238051e-02 -0.9991 -211.1895 443.6267)">
	<stop  offset="0" style="stop-color:#030303;stop-opacity:0.12"/>
	<stop  offset="0.55" style="stop-color:#030303;stop-opacity:9.000000e-02"/>
	<stop  offset="1" style="stop-color:#030303;stop-opacity:2.000000e-02"/>
</linearGradient>
<path class="st22" d="M46.6,364c-2.9,0.1-2.7,4.7,0.2,4.5S49.5,363.8,46.6,364z"/>
<path class="st20" d="M46.3,362.2c-3.2,0.1-3,5.1,0.2,5S49.5,362,46.3,362.2z"/>
</svg>
