<?xml version="1.0" encoding="utf-8"?>
<!-- Generator: Adobe Illustrator 22.0.1, SVG Export Plug-In . SVG Version: 6.00 Build 0)  -->
<svg version="1.1" id="Layer_1" xmlns="http://www.w3.org/2000/svg" xmlns:xlink="http://www.w3.org/1999/xlink" x="0px" y="0px"
	 viewBox="0 0 450 500" style="enable-background:new 0 0 450 500;" xml:space="preserve">
<style type="text/css">
	.st0{opacity:0.5;}
	.st1{fill:#70C6A6;}
	.st2{fill:#E6E6E5;}
	.st3{fill:#F9B7B8;}
	.st4{fill:#302E41;}
	.st5{fill:#403E56;}
	.st6{fill:#75ABDC;}
	.st7{fill:#FFFFFF;}
	.st8{opacity:0.5;fill:#5D84C3;enable-background:new    ;}
	.st9{opacity:0.5;fill:#F26248;enable-background:new    ;}
	.st10{opacity:5.000000e-02;fill:#030303;enable-background:new    ;}
	.st11{fill:#F16584;}
	.st12{fill:#2D8ACA;}
	.st13{fill:url(#SVGID_1_);}
	.st14{fill:url(#SVGID_2_);}
</style>
<g class="st0">
	<rect x="463.8" y="196.5" class="st1" width="1.9" height="10.8"/>
	<rect x="459.3" y="201" class="st1" width="10.8" height="1.9"/>
</g>
<path class="st2" d="M421.1,447.8c-0.5,17.9-3.5,35.6-8.9,52.6c-0.1,0.4-0.3,0.8-0.4,1.2h-33.2c0-0.4,0.1-0.7,0.1-1.2
	c2.2-25.4,15-180.2-0.3-206.6C379.8,295.9,423.7,367,421.1,447.8z"/>
<path class="st2" d="M418.6,500.4c-0.3,0.4-0.6,0.8-0.9,1.2h-24.9c0.2-0.3,0.4-0.7,0.7-1.2c4.1-7.4,16.3-29.6,27.6-52.6
	c12.1-24.7,23.3-50.4,22.3-59.6C443.7,390.2,452.1,454.1,418.6,500.4z"/>
<path class="st2" d="M38.1,474.9c0.2,8.8,1.7,17.5,4.4,25.8c0.1,0.2,0.1,0.4,0.2,0.6h16.3c0-0.2,0-0.4-0.1-0.6
	c-1.1-12.5-7.3-88.5,0.1-101.4C58.3,400.3,36.8,435.2,38.1,474.9z"/>
<path class="st2" d="M39.3,500.7c0.1,0.2,0.3,0.4,0.4,0.6h12.2c-0.1-0.2-0.2-0.4-0.3-0.6c-2-3.6-8-14.5-13.5-25.8
	c-6-12.1-11.4-24.7-11-29.3C27,446.7,22.8,478,39.3,500.7z"/>
<path class="st2" d="M349.6,501.5h-170c-1.7,0-3.1-1.4-3.1-3.1v-42.2c0-1.7,1.4-3.1,3.1-3.1h170c1.7,0,3.1,1.4,3.1,3.1v42.2
	C352.7,500.1,351.3,501.5,349.6,501.5z M179.6,454.3c-1,0-1.9,0.8-1.9,1.9v42.2c0,1,0.8,1.9,1.9,1.9h170c1,0,1.9-0.8,1.9-1.9v-42.2
	c0-1-0.8-1.9-1.9-1.9H179.6z"/>
<circle class="st2" cx="206" cy="475.7" r="12.8"/>
<path class="st2" d="M235.6,467.1c-1.2,0-2.1,1-2.1,2.1c0,1.2,1,2.1,2.1,2.1h100.8c1.2,0,2.1-1,2.1-2.1c0-1.2-1-2.1-2.1-2.1H235.6z"
	/>
<path class="st2" d="M235.6,479.9c-1.2,0-2.1,1-2.1,2.1c0,1.2,1,2.1,2.1,2.1H279c1.2,0,2.1-1,2.1-2.1s-1-2.1-2.1-2.1c0,0,0,0,0,0
	H235.6z"/>
<path class="st2" d="M392.1,439h-170c-1.7,0-3.1-1.4-3.1-3.1v-42.2c0-1.7,1.4-3.1,3.1-3.1h170c1.7,0,3.1,1.4,3.1,3.1v42.2
	C395.2,437.6,393.8,439,392.1,439z M222.1,391.8c-1,0-1.9,0.8-1.9,1.9v42.2c0,1,0.8,1.9,1.9,1.9h170c1,0,1.9-0.8,1.9-1.9v-42.2
	c0-1-0.8-1.9-1.9-1.9H222.1z"/>
<circle class="st2" cx="248.5" cy="413.2" r="12.8"/>
<path class="st2" d="M278.1,404.6c-1.2,0-2.1,1-2.1,2.1c0,1.2,1,2.1,2.1,2.1h100.8c1.2,0,2.1-1,2.1-2.1c0-1.2-1-2.1-2.1-2.1l0,0
	H278.1z"/>
<path class="st2" d="M278.1,417.4c-1.2,0-2.1,1-2.1,2.1c0,1.2,1,2.1,2.1,2.1h43.4c1.2,0,2.1-1,2.1-2.1c0-1.2-1-2.1-2.1-2.1
	c0,0,0,0,0,0H278.1z"/>
<path class="st2" d="M359,333.4H189c-1.7,0-3.1-1.4-3.1-3.1V184.9c0-1.7,1.4-3.1,3.1-3.1h170c1.7,0,3.1,1.4,3.1,3.1v145.4
	C362.2,332,360.8,333.4,359,333.4z M189,183c-1,0-1.9,0.8-1.9,1.9v145.4c0,1,0.8,1.9,1.9,1.9h170c1,0,1.9-0.8,1.9-1.9V184.9
	c0-1-0.8-1.9-1.9-1.9L189,183z"/>
<circle class="st2" cx="215.4" cy="307.6" r="12.8"/>
<path class="st2" d="M245.1,299c-1.2,0-2.1,1-2.1,2.1c0,1.2,1,2.1,2.1,2.1h100.8c1.2,0,2.1-1,2.1-2.1c0-1.2-1-2.1-2.1-2.1H245.1z"/>
<path class="st2" d="M245.1,311.9c-1.2,0-2.1,1-2.1,2.1s1,2.1,2.1,2.1h43.4c1.2,0,2.1-1,2.1-2.1s-1-2.1-2.1-2.1H245.1z"/>
<path class="st3" d="M80.5,348.5l1.9,14.9c0.5,4.3,4.5,7.3,8.8,6.8c0.8-0.1,1.5-0.3,2.2-0.6l0,0c4-1.8,5.7-6.4,4-10.4
	c-0.1-0.2-0.2-0.4-0.3-0.6l-7.9-14.3l-2.6-61.6l-16.7,3.9L80.5,348.5z"/>
<polygon class="st4" points="143,486.9 130,488 122.3,381.3 122,408.7 93.7,484.2 82.5,475.4 101.1,400.2 92.2,358.3 150,358.3 "/>
<path class="st4" d="M155.8,501.3l-24.1-0.6c-3.6,0.3-6.7-2.4-7-6c0-0.5,0-1,0.1-1.5l1-6.2c0.4-2.4,2.4-4.3,4.9-4.5l0,0
	c4.1,4.3,8.4,3.6,12.7-0.9l9.9,10.1l1.5-0.2c2.4-0.3,4.7,1.2,5.4,3.5l0,0c0.8,2.6-0.8,5.4-3.4,6.1
	C156.5,501.2,156.2,501.3,155.8,501.3z"/>
<path class="st4" d="M100.9,500.5l-24.2-9.1c-3.6-1.4-5.4-5.4-4.1-9c0.2-0.5,0.4-1,0.7-1.4l3.8-5.6c1.5-2.2,4.3-3.1,6.7-2.1l0,0
	c2.1,6,6.5,7.3,12.8,4.8l6.2,12l1.5,0.5c2.5,0.8,4.1,3.3,3.7,5.9l0,0c-0.4,2.9-3.1,4.9-6,4.4C101.6,500.7,101.2,500.6,100.9,500.5z"
	/>
<circle class="st3" cx="122.3" cy="209.7" r="15.3"/>
<path class="st3" d="M124.1,238l-26.5-0.6c7.3-8.1,11.7-16.5,12.4-25.4h14.2V238z"/>
<path class="st5" d="M151.8,366.6c-25.1-6.4-48.6-10.8-63.1-2.9c2.5-26.8-0.4-61-9.1-96.7c-2.8-11.6-0.9-22.1,9.4-28l13.9-8
	l21.2,0.6l11.1,6.1c11.1,5.6,17.2,17.8,14.9,30.1C144.1,299,147.3,332.8,151.8,366.6z"/>
<path class="st3" d="M157.1,347.7l2.1,14.9c0.6,4.3-2.4,8.3-6.7,8.9c-0.8,0.1-1.5,0.1-2.3,0l0,0c-4.3-0.7-7.2-4.7-6.5-9
	c0-0.2,0.1-0.4,0.1-0.6l3.9-15.9l-13.6-60.2l17.1-0.6L157.1,347.7z"/>
<path class="st5" d="M94.6,291.7l-27.7-1.8c2.2-27.3,8.3-42.2,17.7-47.2l10,11.8V291.7z"/>
<path class="st4" d="M132.9,204.4c-5.4-1.7-8.2,9.3-16.2,16.2c-1.8,1.6-6.4-4.5-8-2.7l-2.6-7.9c-3.1-9.3,2.5-19.5,12-21.5
	c0.3-0.1,0.5-0.1,0.8-0.1l0,0c8.7-1.4,17,3.9,19.4,12.3c0.3,1.2-0.4,2.5-1.6,2.8c0,0-0.1,0-0.1,0L132.9,204.4z"/>
<polygon class="st5" points="157.1,286.3 131.2,292.2 130,249.8 144.7,250.4 "/>
<rect x="5.4" y="500.4" class="st5" width="435.4" height="1.2"/>
<path class="st6" d="M399.4,282.7h-170c-1.7,0-3.1-1.4-3.1-3.1V205c0-1.7,1.4-3.1,3.1-3.1h170c1.7,0,3.1,1.4,3.1,3.1v74.6
	C402.6,281.3,401.2,282.7,399.4,282.7z"/>
<path class="st7" d="M264,227.8c-1.2,0-2.1,1-2.1,2.1s1,2.1,2.1,2.1c0,0,0,0,0,0h100.8c1.2,0,2.1-1,2.1-2.1s-1-2.1-2.1-2.1l0,0H264z
	"/>
<path class="st7" d="M264,240.2c-1.2,0-2.1,1-2.1,2.1c0,1.2,1,2.1,2.1,2.1c0,0,0,0,0,0h100.8c1.2,0,2.1-1,2.1-2.1
	c0-1.2-1-2.1-2.1-2.1l0,0H264z"/>
<path class="st7" d="M264,252.5c-1.2,0-2.1,1-2.1,2.1s1,2.1,2.1,2.1h43.4c1.2,0,2.1-1,2.1-2.1s-1-2.1-2.1-2.1H264z"/>
<path class="st8" d="M-33.6,154.9c-1.1-0.5-1.6-1.7-1.3-2.8c0-0.1,0-0.2,0.1-0.3l0,0c0-0.6-0.4-1.2-1.1-1.2c-0.4,0-0.8,0.2-1,0.5
	l0,0c-0.1,0.1-0.1,0.1-0.1,0.2c-0.5,1.1-1.7,1.7-2.8,1.3c-0.1,0-0.2,0-0.3-0.1l0,0c-0.6,0-1.2,0.4-1.2,1.1c0,0.4,0.2,0.8,0.5,1l0,0
	c0.1,0.1,0.1,0.1,0.2,0.1c1.1,0.5,1.6,1.7,1.3,2.8c0,0.1,0,0.2-0.1,0.3l0,0c0,0.6,0.4,1.2,1.1,1.2c0.4,0,0.8-0.1,1-0.5l0,0
	c0.1-0.1,0.1-0.2,0.1-0.2c0.5-1.1,1.7-1.6,2.8-1.3c0.1,0,0.2,0,0.3,0.1l0,0c0.6,0,1.2-0.4,1.2-1.1c0-0.4-0.2-0.8-0.5-1l0,0
	C-33.5,155-33.6,154.9-33.6,154.9z"/>
<circle class="st9" cx="-46.3" cy="51.9" r="3.8"/>
<circle class="st7" cx="278.4" cy="420.3" r="6.2"/>
<circle class="st7" cx="298" cy="410.6" r="3.1"/>
<path class="st8" d="M12.3,147.2c-1.1-0.5-1.6-1.7-1.3-2.8c0-0.1,0-0.2,0.1-0.3l0,0c0-0.6-0.4-1.2-1.1-1.2c-0.4,0-0.8,0.2-1,0.5l0,0
	c-0.1,0.1-0.1,0.1-0.1,0.2c-0.5,1.1-1.7,1.7-2.8,1.3c-0.1,0-0.2,0-0.3-0.1l0,0c-0.6,0-1.2,0.4-1.2,1.1c0,0.4,0.2,0.8,0.5,1l0,0
	c0.1,0.1,0.1,0.1,0.2,0.1c1.1,0.5,1.6,1.7,1.3,2.8c0,0.1,0,0.2-0.1,0.3l0,0c0,0.6,0.4,1.2,1.1,1.2c0.4,0,0.8-0.1,1-0.5l0,0
	c0.1-0.1,0.1-0.2,0.1-0.2c0.5-1.1,1.7-1.6,2.8-1.3c0.1,0,0.2,0,0.3,0.1l0,0c0.6,0,1.2-0.4,1.2-1.1c0-0.4-0.2-0.8-0.5-1l0,0
	C12.5,147.3,12.4,147.2,12.3,147.2z"/>
<path class="st8" d="M335.8,341.7c-1.1-0.5-1.6-1.7-1.3-2.8c0-0.1,0-0.2,0.1-0.3l0,0c0-0.6-0.4-1.2-1.1-1.2c-0.4,0-0.8,0.2-1,0.5
	l0,0c-0.1,0.1-0.1,0.1-0.1,0.2c-0.5,1.1-1.7,1.7-2.8,1.3c-0.1,0-0.2,0-0.3-0.1l0,0c-0.6,0-1.2,0.4-1.2,1.1c0,0.4,0.2,0.8,0.5,1l0,0
	c0.1,0.1,0.1,0.1,0.2,0.1c1.1,0.5,1.6,1.7,1.3,2.8c0,0.1,0,0.2-0.1,0.3l0,0c0,0.6,0.4,1.2,1.1,1.2c0.4,0,0.8-0.1,1-0.5l0,0
	c0.1-0.1,0.1-0.2,0.1-0.2c0.5-1.1,1.7-1.6,2.8-1.3c0.1,0,0.2,0,0.3,0.1l0,0c0.6,0,1.2-0.4,1.2-1.1c0-0.4-0.2-0.8-0.5-1l0,0
	C336,341.8,335.9,341.7,335.8,341.7z"/>
<path class="st8" d="M-21.4,432c-1.1-0.5-1.6-1.7-1.3-2.8c0-0.1,0-0.2,0.1-0.3l0,0c0-0.6-0.4-1.2-1.1-1.2c-0.4,0-0.8,0.2-1,0.5l0,0
	c-0.1,0.1-0.1,0.1-0.1,0.2c-0.5,1.1-1.7,1.7-2.8,1.3c-0.1,0-0.2,0-0.3-0.1l0,0c-0.6,0-1.2,0.4-1.2,1.1c0,0.4,0.2,0.8,0.5,1l0,0
	c0.1,0.1,0.1,0.1,0.2,0.1c1.1,0.5,1.6,1.7,1.3,2.8c0,0.1,0,0.2-0.1,0.3l0,0c0,0.6,0.4,1.2,1.1,1.2c0.4,0,0.8-0.1,1-0.5l0,0
	c0.1-0.1,0.1-0.2,0.1-0.2c0.5-1.1,1.7-1.6,2.8-1.3c0.1,0,0.2,0,0.3,0.1l0,0c0.6,0,1.2-0.4,1.2-1.1c0-0.4-0.2-0.8-0.5-1l0,0
	C-21.2,432.1-21.3,432-21.4,432z"/>
<path class="st8" d="M329.5,114.8c-1.1-0.5-1.6-1.7-1.3-2.8c0-0.1,0-0.2,0.1-0.3l0,0c0-0.6-0.4-1.2-1.1-1.2c-0.4,0-0.8,0.2-1,0.5
	l0,0c-0.1,0.1-0.1,0.1-0.1,0.2c-0.5,1.1-1.7,1.6-2.8,1.3c-0.1,0-0.2,0-0.3-0.1l0,0c-0.6-0.1-1.3,0.3-1.4,0.9c-0.1,0.5,0.1,1,0.6,1.3
	l0,0c0.1,0.1,0.1,0.1,0.2,0.1c1.1,0.5,1.6,1.7,1.3,2.8c0,0.1,0,0.2-0.1,0.3l0,0c-0.1,0.6,0.4,1.2,1,1.3c0.4,0,0.9-0.2,1.1-0.5l0,0
	c0.1-0.1,0.1-0.2,0.1-0.2c0.5-1.1,1.7-1.6,2.8-1.3c0.1,0,0.2,0,0.3,0.1l0,0c0.6,0,1.2-0.4,1.2-1.1c0-0.4-0.2-0.8-0.5-1l0,0
	C329.6,114.9,329.6,114.8,329.5,114.8z"/>
<g class="st0">
	<rect x="-2.9" y="274.4" class="st1" width="1.9" height="10.8"/>
	<rect x="-7.3" y="278.8" class="st1" width="10.8" height="1.9"/>
</g>
<circle class="st9" cx="386.7" cy="162.5" r="3.8"/>
<circle class="st9" cx="45.4" cy="337.9" r="3.8"/>
<ellipse class="st10" cx="75.9" cy="208.6" rx="21.6" ry="4.4"/>
<ellipse class="st10" cx="75.9" cy="242.3" rx="21.6" ry="4.4"/>
<path class="st11" d="M232.1,395.8l-0.2-0.2c-0.2-0.2-0.5-0.2-0.7,0l-3,3.7l-3.5-3.3c-0.2-0.2-0.5-0.2-0.7,0l-0.2,0.2
	c-0.2,0.2-0.2,0.6,0.1,0.8l0,0l3.5,3.3l-3,3.7c-0.2,0.2-0.2,0.6,0.1,0.8l0.2,0.2c0.2,0.2,0.5,0.2,0.7,0l3-3.7l3.5,3.3
	c0.2,0.2,0.5,0.2,0.7,0l0.2-0.2c0.2-0.2,0.2-0.6-0.1-0.8l-3.5-3.3l3-3.7C232.3,396.3,232.3,396,232.1,395.8z"/>
<path class="st11" d="M128.2,63.6l-0.7-0.3c-0.8-0.3-1.7,0.1-1.9,0.9l-4.1,13.5l-13.1-5.2c-0.8-0.3-1.7,0.1-1.9,0.9l-0.2,0.7
	c-0.3,0.8,0.2,1.8,1,2.1l0,0l13.1,5.2l-4.1,13.5c-0.3,0.8,0.2,1.8,1,2.1l0.7,0.3c0.8,0.3,1.7-0.1,1.9-0.9l4.1-13.5l13.1,5.2
	c0.8,0.3,1.7-0.1,1.9-0.9l0.2-0.7c0.3-0.8-0.2-1.8-1-2.1l-13.1-5.2l4.1-13.5C129.5,64.8,129.1,63.9,128.2,63.6z"/>
<path class="st12" d="M150.4,51.9c-14.2-16.4-39-18.2-55.3-4c-0.2,0.2-0.5,0.4-0.7,0.6C78.8,62.7,77.2,87,90.9,103
	c12.4,14.5,33.5,18,50,8.2l26.8,31c0.7,0.8,1.9,0.9,2.7,0.2l7.4-6.4c0.8-0.7,0.9-1.9,0.2-2.7l-26.8-31
	C163.2,87.6,162.9,66.3,150.4,51.9z M139.1,98.8c-11.7,10.1-29.5,8.9-39.6-2.9s-8.9-29.5,2.9-39.6c11.7-10.1,29.4-8.9,39.6,2.9
	C152.1,70.9,150.8,88.6,139.1,98.8L139.1,98.8z"/>
<linearGradient id="SVGID_1_" gradientUnits="userSpaceOnUse" x1="346.507" y1="356.1526" x2="346.507" y2="375.3611" gradientTransform="matrix(0.9991 -4.238051e-02 -4.238051e-02 -0.9991 -211.1895 443.6267)">
	<stop  offset="0" style="stop-color:#030303;stop-opacity:0.12"/>
	<stop  offset="0.55" style="stop-color:#030303;stop-opacity:9.000000e-02"/>
	<stop  offset="1" style="stop-color:#030303;stop-opacity:2.000000e-02"/>
</linearGradient>
<path class="st13" d="M118.6,53.9c-9,0.1-16.9,5.9-20.9,14.4c-1.3,2.7,2.8,4.9,4.1,2.2c3.3-7,9.9-11.6,17.3-11.7
	c7.7-0.1,15,5,19.1,12.3c1.5,2.8,5.1,0,3.6-2.7C136.9,59.6,127.8,53.8,118.6,53.9z"/>
<path class="st12" d="M119.1,51.6c-8.9,0.1-16.8,5.6-20.8,13.5c-1.3,2.6,2.8,4.6,4.1,2.1c3.3-6.5,9.9-10.9,17.2-11
	c7.7-0.1,14.9,4.6,18.9,11.5c1.5,2.6,5.1,0,3.6-2.5C137.2,56.8,128.3,51.4,119.1,51.6z"/>
<linearGradient id="SVGID_2_" gradientUnits="userSpaceOnUse" x1="323.7357" y1="351.6105" x2="323.7357" y2="356.1537" gradientTransform="matrix(0.9991 -4.238051e-02 -4.238051e-02 -0.9991 -211.1895 443.6267)">
	<stop  offset="0" style="stop-color:#030303;stop-opacity:0.12"/>
	<stop  offset="0.55" style="stop-color:#030303;stop-opacity:9.000000e-02"/>
	<stop  offset="1" style="stop-color:#030303;stop-opacity:2.000000e-02"/>
</linearGradient>
<path class="st14" d="M97.2,74.1c-2.9,0.1-2.7,4.7,0.2,4.5S100.1,73.9,97.2,74.1z"/>
<path class="st12" d="M96.9,72.3c-3.2,0.1-3,5.1,0.2,5S100.1,72.1,96.9,72.3z"/>
<path class="st11" d="M189.7,458.3l-0.2-0.2c-0.2-0.2-0.5-0.2-0.7,0l-3,3.7l-3.5-3.3c-0.2-0.2-0.5-0.2-0.7,0l-0.2,0.2
	c-0.2,0.2-0.2,0.6,0.1,0.8l0,0l3.5,3.3l-3,3.7c-0.2,0.2-0.2,0.6,0.1,0.8l0.2,0.2c0.2,0.2,0.5,0.2,0.7,0l3-3.7l3.5,3.3
	c0.2,0.2,0.5,0.2,0.7,0l0.2-0.2c0.2-0.2,0.2-0.6-0.1-0.8l-3.5-3.3l3-3.7C189.9,458.8,189.9,458.5,189.7,458.3z"/>
<path class="st11" d="M204.4,189.8l-0.2-0.2c-0.2-0.2-0.5-0.2-0.7,0l-3,3.7l-3.5-3.3c-0.2-0.2-0.5-0.2-0.7,0l-0.2,0.2
	c-0.2,0.2-0.2,0.6,0.1,0.8l0,0l3.5,3.3l-3,3.7c-0.2,0.2-0.2,0.6,0.1,0.8l0.2,0.2c0.2,0.2,0.5,0.2,0.7,0l3-3.7l3.5,3.3
	c0.2,0.2,0.5,0.2,0.7,0l0.2-0.2c0.2-0.2,0.2-0.6-0.1-0.8l-3.5-3.3l3-3.7C204.7,190.3,204.7,190,204.4,189.8z"/>
</svg>
