<?xml version="1.0" encoding="utf-8"?>
<!-- Generator: Adobe Illustrator 22.0.1, SVG Export Plug-In . SVG Version: 6.00 Build 0)  -->
<svg version="1.1" id="Layer_1" xmlns="http://www.w3.org/2000/svg" xmlns:xlink="http://www.w3.org/1999/xlink" x="0px" y="0px"
	 viewBox="0 0 1300 400" style="enable-background:new 0 0 1300 400;" xml:space="preserve">
<style type="text/css">
	.st0{fill:#27AAE1;stroke:#000000;stroke-width:1.6452;stroke-miterlimit:10;}
	.st1{fill:#E9E8E8;}
	.st2{fill:none;stroke:#E9E8E8;stroke-width:1.0228;stroke-miterlimit:10;}
	.st3{fill:#919191;}
	.st4{fill:#B7B7B8;}
	.st5{fill:#4BA5DC;}
	.st6{fill:#564B9F;}
	.st7{fill:#191919;}
	.st8{fill:#2B2C2B;}
	.st9{fill:#171717;}
	.st10{fill:#FFFFFF;stroke:#171717;stroke-width:0.6818;stroke-miterlimit:10;}
	.st11{opacity:0.23;fill:#6D6C6D;enable-background:new    ;}
	.st12{opacity:0.24;fill:#6D6C6D;enable-background:new    ;}
	.st13{fill:#FFFFFF;}
	.st14{opacity:0.19;fill:#6D6C6D;enable-background:new    ;}
	.st15{opacity:0.29;fill:#6D6C6D;enable-background:new    ;}
	.st16{opacity:0.26;fill:#6D6C6D;enable-background:new    ;}
	.st17{opacity:0.34;fill:#6D6C6D;enable-background:new    ;}
	.st18{opacity:0.47;fill:#6D6C6D;enable-background:new    ;}
	.st19{fill:#171717;stroke:#171717;stroke-width:0.6818;stroke-miterlimit:10;}
	.st20{opacity:0.18;fill:#6D6C6D;enable-background:new    ;}
	.st21{opacity:0.28;fill:#6D6C6D;enable-background:new    ;}
	.st22{opacity:0.33;fill:#6D6C6D;enable-background:new    ;}
	.st23{opacity:0.38;fill:#6D6C6D;enable-background:new    ;}
	.st24{opacity:0.25;fill:#6D6C6D;enable-background:new    ;}
	.st25{fill:#72CAED;}
</style>
<rect class="st0" width="1300" height="400"/>
<g id="background_n3">
	<g>
		<g>
			<path class="st1" d="M970.2,317.4c-0.5,3.6-2,6.9-4.5,9.6c-0.4,0.5,0.3,1.2,0.7,0.7c2.6-2.8,4.3-6.2,4.8-10.1
				C971.2,317,970.2,316.7,970.2,317.4L970.2,317.4z"/>
		</g>
	</g>
	<g>
		<g>
			<path class="st1" d="M970.3,317.9c1.3,3,3,5.6,5.1,8.1c0.4,0.5,1.1-0.2,0.7-0.7c-2.1-2.4-3.7-5-4.9-7.9
				C970.9,316.8,970.1,317.3,970.3,317.9L970.3,317.9z"/>
		</g>
	</g>
	<g>
		<g>
			<path class="st1" d="M966.6,327.4c0-0.1-0.1-0.2-0.1-0.2c-0.3,0.2-0.5,0.4-0.8,0.6c2.2,1.9,4,4.2,5.2,6.9
				c0.3,0.6,1.1,0.1,0.9-0.5c-1.3-2.7-3.1-5.1-5.4-7.1c-0.4-0.4-1.1,0.1-0.8,0.6c0,0.1,0.1,0.2,0.1,0.2
				C966,328.5,966.9,328,966.6,327.4L966.6,327.4z"/>
		</g>
	</g>
	<g>
		<g>
			<path class="st1" d="M971.9,334.4c1.1-2.8,2.5-5.5,4.1-8c0.3-0.6-0.5-1.1-0.9-0.5c-1.7,2.6-3,5.4-4.2,8.3
				C970.7,334.7,971.7,335,971.9,334.4L971.9,334.4z"/>
		</g>
	</g>
	<g>
		<g>
			<path class="st1" d="M855.3,203.2c-1.2,3.4-2.4,6.9-4.7,9.7c-0.4,0.5,0.3,1.2,0.7,0.7c2.4-3,3.7-6.6,5-10.2
				C856.5,202.9,855.5,202.6,855.3,203.2L855.3,203.2z"/>
		</g>
	</g>
	<g>
		<g>
			<path class="st1" d="M855.3,203.5c0.7,1.7,1,3.6,1.6,5.4c0.5,1.6,1.2,3.2,1.9,4.7c0.3,0.6,1.1,0.1,0.9-0.5
				c-0.9-1.9-1.6-3.8-2.2-5.7c-0.4-1.5-0.7-3.1-1.3-4.5C855.9,202.4,855.1,202.9,855.3,203.5L855.3,203.5z"/>
		</g>
	</g>
	<g>
		<g>
			<path class="st1" d="M850.8,213.7c1,0.4,1.7,2.4,2.1,3.3c0.6,1.3,1,2.7,1.4,4.2c0.2,0.7,1.1,0.4,1-0.3c-0.4-1.8-1-3.5-1.8-5.1
				c-0.5-1.1-1.1-2.5-2.3-3.1C850.5,212.4,850.3,213.4,850.8,213.7L850.8,213.7z"/>
		</g>
	</g>
	<g>
		<g>
			<path class="st1" d="M855.3,221.3c1.2-2.7,2.6-5.2,4.1-7.6c0.4-0.6-0.5-1.1-0.9-0.5c-1.6,2.4-2.9,5-4.1,7.6
				C854.1,221.4,855,222,855.3,221.3L855.3,221.3z"/>
		</g>
	</g>
	<g>
		<g>
			<path class="st1" d="M897.4,144.6c-0.8,2.8-2.1,5.3-4,7.5c-0.4,0.5,0.3,1.2,0.7,0.7c2-2.3,3.4-5,4.2-8
				C898.5,144.2,897.5,144,897.4,144.6L897.4,144.6z"/>
		</g>
	</g>
	<g>
		<g>
			<path class="st1" d="M897.3,145.1c0.6,2.6,1.2,5.6,2.9,7.7c0.4,0.5,1.1-0.2,0.7-0.7c-1.6-1.9-2.1-4.9-2.6-7.2
				C898.1,144.2,897.2,144.4,897.3,145.1L897.3,145.1z"/>
		</g>
	</g>
	<g>
		<g>
			<path class="st1" d="M893.2,153.1c0.9,0.5,1.7,2.6,2.1,3.5c0.6,1.3,1.1,2.7,1.5,4c0.2,0.7,1.1,0.4,1-0.3c-0.5-1.7-1-3.2-1.8-4.8
				c-0.5-1.1-1.1-2.8-2.2-3.4C893.1,151.9,892.6,152.8,893.2,153.1L893.2,153.1z"/>
		</g>
	</g>
	<g>
		<g>
			<path class="st1" d="M897.8,160.5c0.8-2.6,1.9-5.1,3.1-7.6c0.3-0.6-0.6-1.1-0.9-0.5c-1.3,2.5-2.4,5.1-3.2,7.8
				C896.6,160.8,897.6,161.1,897.8,160.5L897.8,160.5z"/>
		</g>
	</g>
	<g>
		<g>
			<path class="st1" d="M1109.7,242c-0.7,1.9-1.6,3.9-3.2,5.2c-0.5,0.4,0.2,1.1,0.7,0.7c1.8-1.4,2.7-3.5,3.4-5.6
				C1111,241.6,1110,241.3,1109.7,242L1109.7,242z"/>
		</g>
	</g>
	<g>
		<g>
			<path class="st1" d="M1110.1,242.5c0.5,1.8,1.3,3.4,2.4,4.8c0.4,0.5,1.3,0,0.9-0.5c-1-1.4-1.8-2.9-2.3-4.6
				C1110.9,241.5,1109.9,241.8,1110.1,242.5L1110.1,242.5z"/>
		</g>
	</g>
	<g>
		<g>
			<path class="st1" d="M1106.7,248c1.1,1.4,1.9,3,2.4,4.7c0.2,0.7,1.1,0.4,1-0.3c-0.5-1.9-1.4-3.6-2.6-5.2
				C1107,246.7,1106.3,247.5,1106.7,248L1106.7,248z"/>
		</g>
	</g>
	<g>
		<g>
			<path class="st1" d="M1110,253c0.9-2.1,2-4.1,3.4-5.9c0.4-0.5-0.5-1-0.9-0.5c-1.4,1.8-2.5,3.8-3.4,5.9
				C1108.9,253.1,1109.8,253.6,1110,253L1110,253z"/>
		</g>
	</g>
	<g>
		<g>
			<path class="st1" d="M1171,321.9c-0.7,2-1.7,3.9-3.1,5.5c-0.4,0.5,0.3,1.2,0.7,0.7c1.5-1.8,2.6-3.8,3.4-6
				C1172.2,321.6,1171.2,321.3,1171,321.9L1171,321.9z"/>
		</g>
	</g>
	<g>
		<g>
			<path class="st1" d="M1170.9,322.8c0.5,0.9,0.6,2,1,2.9c0.4,0.9,0.8,1.7,1.4,2.5c0.4,0.5,1.2,0,0.9-0.5c-0.6-0.9-1.1-1.8-1.5-2.8
				c-0.3-0.9-0.4-1.8-0.9-2.6C1171.5,321.7,1170.6,322.2,1170.9,322.8L1170.9,322.8z"/>
		</g>
	</g>
	<g>
		<g>
			<path class="st1" d="M1167.9,327.9c0.8,1.3,1.5,2.7,1.9,4.2c0.1,0.4,0.7,0.6,0.9,0.1c0.7-1.4,1.7-2.7,3-3.6
				c0.5-0.4,0-1.3-0.5-0.9c-1.5,1.1-2.6,2.4-3.4,4c0.3,0,0.6,0.1,0.9,0.1c-0.5-1.6-1.1-3.1-2-4.4
				C1168.4,326.8,1167.5,327.3,1167.9,327.9L1167.9,327.9z"/>
		</g>
	</g>
	<polygon class="st2" points="1181.5,183.1 1178.1,181.7 1175,183.8 1175.2,180 1172.2,177.7 1175.9,176.7 1177.1,173.1 
		1179.2,176.4 1182.9,176.5 1180.5,179.4 	"/>
	<g>
		<g>
			<path class="st1" d="M1175.6,171.1c5.1-8.8,11.4-16.9,18.8-24c0.5-0.4-0.2-1.2-0.7-0.7c-7.4,7.1-13.8,15.2-18.9,24.2
				C1174.4,171.2,1175.2,171.7,1175.6,171.1L1175.6,171.1z"/>
		</g>
	</g>
	<g>
		<g>
			<path class="st1" d="M1182.9,169.4c8.2-12.6,18.6-23.5,30.6-32.4c0.5-0.4,0-1.3-0.5-0.9c-12.1,9-22.6,20.1-30.9,32.8
				C1181.6,169.4,1182.5,170,1182.9,169.4L1182.9,169.4z"/>
		</g>
	</g>
	<g>
		<g>
			<path class="st1" d="M1184.7,179.3c4-5,8.2-9.8,12.7-14.4c0.5-0.5-0.3-1.2-0.7-0.7c-4.5,4.6-8.7,9.4-12.7,14.4
				C1183.6,179.1,1184.3,179.8,1184.7,179.3L1184.7,179.3z"/>
		</g>
	</g>
	<g>
		<g>
			<path class="st1" d="M1069,117.4c-2.7-5.6,3.1-10.9,8.1-11.8c6.2-1.1,12.7,1.1,18.9,1.6c11.8,1,23.9-0.4,35.2-4.1
				c5.7-1.9,11.2-4.3,16.4-7.2c5.6-3.1,11-6.7,16.6-9.7c5.6-3.1,11.7-5.7,18-6.8c6.3-1.1,12.5-0.2,18.4,2.2
				c5.5,2.3,11.1,5.7,15.4,10c4.4,4.4,5.8,10.3,3.3,16.1c-5.1,11.6-19.7,13.4-30.6,13.8c-11.8,0.5-23.9-0.7-35.4,2.6
				c-11.7,3.4-20.3,12.1-30.4,18.3c-10.3,6.4-22.3,10.7-34.5,9.9c-10.3-0.7-20.7-5.6-27.2-13.9c-1.6-2.1-2.9-4.3-3.9-6.7
				c-0.3-0.6-1.1-0.1-0.9,0.5c4.2,9.9,13.3,16.7,23.2,19.6c11.5,3.4,23.8,1.2,34.5-3.6c6-2.7,11.5-6.2,16.8-10.1
				c5.2-3.8,10.3-7.8,16.1-10.5c12.2-5.9,26.1-4.6,39.2-5c10.9-0.3,24.9-1.2,32-11.1c2.9-4.1,4.4-9.6,2.6-14.6
				c-2-5.4-7-8.9-11.5-11.9c-5.2-3.4-11-6.1-17.1-7c-6.4-0.9-12.8,0.3-18.8,2.6c-12.8,4.8-23.4,13.8-36,19
				c-12.1,5-25.3,7.3-38.4,6.6c-3.5-0.2-7.1-0.6-10.6-1.2c-3.1-0.5-6.2-1.1-9.3-0.9c-4.9,0.3-9.6,2.8-11.3,7.7c-0.7,2-0.6,4,0.3,5.9
				C1068.5,118.5,1069.3,118,1069,117.4L1069,117.4z"/>
		</g>
	</g>
	<g>
		<g>
			<path class="st1" d="M1083.8,113.3c17.5,2.3,35.4,0.5,52-5.3c16.1-5.6,30.7-16.9,48-18.4c8.6-0.8,17.6,1,24.3,6.9
				c0.5,0.4,1.2-0.3,0.7-0.7c-12-10.7-29.4-8.1-43.1-2.4c-8.3,3.4-16.2,8-24.5,11.4c-8.5,3.5-17.4,6-26.5,7.3
				c-10.3,1.5-20.7,1.5-31,0.2C1083.2,112.2,1083.2,113.2,1083.8,113.3L1083.8,113.3z"/>
		</g>
	</g>
	<g>
		<g>
			<path class="st1" d="M1110.5,133.2c6.8-0.6,12.8-3.8,18.6-7.2c6.3-3.8,12.5-7.6,19.7-9.3c15.5-3.7,31.6,0.4,47.2-2.9
				c6.9-1.5,15.3-5.8,14.6-14.3c-0.1-0.7-1.1-0.7-1,0c0.7,8.7-8.5,12.3-15.3,13.6c-7.5,1.3-15.2,1.1-22.7,1
				c-7.3-0.1-14.7-0.2-21.9,1.3c-6.7,1.4-12.5,4.5-18.3,8c-6.5,3.9-13.2,8.1-20.9,8.7C1109.8,132.2,1109.8,133.3,1110.5,133.2
				L1110.5,133.2z"/>
		</g>
	</g>
	<g>
		<g>
			<path class="st1" d="M1137,141c7.8-5.6,16.1-10.7,25.5-13.1c10.1-2.6,20.7-1.8,31-0.9c0.6,0.1,0.6-1,0-1c-10.4-0.9-21-1.7-31.2,1
				c-9.4,2.4-17.8,7.6-25.7,13.2C1135.9,140.5,1136.4,141.4,1137,141L1137,141z"/>
		</g>
	</g>
	<g>
		<g>
			<path class="st1" d="M924.1,121.8c-2-1.3-3.7-3.2-4.3-5.7c-0.5-2.3,0.2-5,2.2-6.4c2-1.4,4.7-0.8,7-1c1.9-0.1,3.7-0.6,5.4-1.4
				c7.7-3.3,12.4-10.8,18.1-16.5c2.9-2.9,6.4-5.7,10.5-6.6c3.8-0.9,8.8,0.1,9.8,4.6c1.1,5.3-3.7,9.2-7.4,11.7
				c-4.3,2.9-8.6,5.8-12.9,8.7c-4.7,3.2-9.3,6.5-14,9.5c-4.5,2.8-10.1,5-15,2c-0.6-0.3-1.1,0.6-0.5,0.9c4.1,2.4,8.9,1.7,13-0.3
				c5.3-2.5,10.1-6.4,14.9-9.7c5-3.4,10.1-6.8,15.1-10.2c3.7-2.5,7.6-5.6,8-10.5c0.4-4.1-2.3-7.2-6.2-7.8c-4.2-0.8-8.2,1-11.6,3.4
				c-8.2,5.9-13,16.3-22.6,20.2c-1.5,0.6-3,1-4.5,1.1c-1.5,0.1-3-0.1-4.5,0.1c-2.2,0.2-4.1,1.3-5.1,3.4c-2.3,4.4,0.4,9.1,4.2,11.5
				C924.1,123,924.6,122.1,924.1,121.8L924.1,121.8z"/>
		</g>
	</g>
	<g>
		<g>
			<path class="st1" d="M953.1,79.8c-0.6-4.5,4.9-5.8,7.9-7.3c1.6-0.8,2.9-1.8,4.4-2.7c0.7-0.5,1.4-1,2.2-1.4c0.9-0.5,2-1.2,2.7-0.3
				c0.5,0.7,0.3,0.9,0,1.6c-0.2,0.3-0.3,0.7-0.5,1.1c-0.5,0.9-1,1.7-1.7,2.4c-1.4,1.5-3.4,1.7-5.2,2.4c-1.4,0.6-2.7,1.2-4,2
				c-1.6,1-3.6,3.3-5.6,2.2c-0.6-0.3-1.1,0.6-0.5,0.9c1.8,1,3.5,0.1,5-1c2.4-1.7,4.8-3,7.6-3.8c2.2-0.7,3.6-1.8,4.8-3.8
				c0.7-1.1,2.3-3.5,1.3-4.9c-0.9-1.2-2.8-0.6-3.9,0c-2.4,1.2-4.4,3-6.8,4.2c-3.6,1.8-9.4,3.2-8.6,8.6
				C952.3,80.7,953.2,80.5,953.1,79.8L953.1,79.8z"/>
		</g>
	</g>
	<g>
		<g>
			<path class="st1" d="M925.8,115.5c-1-0.2-0.9-1.1-0.7-1.7c0.3-0.8,0.9-1,1.7-1.3c0.8-0.2,1.7-0.3,2.6-0.4
				c1.9-0.3,3.7-0.8,5.5-1.5c3.4-1.4,6.4-3.4,9.3-5.7c3.2-2.6,6.1-5.5,9.1-8.4c2.9-2.8,6.2-6.4,10.6-6.2c-0.2-0.2-0.3-0.3-0.5-0.5
				c0.4,4-3.3,6.7-6.1,8.8c-3.4,2.5-6.9,5-10.3,7.5c-3.2,2.3-6.3,4.7-9.6,6.9c-1.6,1.1-3.3,2.1-5.1,2.8c-1.8,0.7-4.5,1.7-5.9,0
				c-0.4-0.5-1.1,0.2-0.7,0.7c2.3,2.7,6.9,0.5,9.4-0.8c4.3-2.2,8.1-5.4,12-8.3c4.1-3,8.2-5.8,12.2-8.9c2.7-2.1,5.6-4.9,5.3-8.7
				c0-0.3-0.2-0.5-0.5-0.5c-4.6-0.1-8,3.4-11.1,6.3c-3.9,3.7-7.6,7.6-12,10.7c-2.1,1.4-4.3,2.7-6.7,3.6c-2.3,0.9-4.6,1.2-7,1.7
				c-1.4,0.3-2.8,0.9-3.1,2.5c-0.2,1.2,0.3,2.4,1.6,2.6C926.2,116.6,926.5,115.6,925.8,115.5L925.8,115.5z"/>
		</g>
	</g>
	<g>
		<g>
			<path class="st1" d="M897.5,172.2c-1,1.7-0.5,4,1,5.3c2.3,1.9,4.8-0.1,6.7-1.5c1.6-1.1,4-1.9,5.1,0.3c0.5,1,0.7,2.2,1.1,3.3
				c0.3,0.8,0.8,1.5,1.6,1.8c1.6,0.7,3.1-0.5,4.7-0.3c0.6,0.1,0.9-0.9,0.3-1c-1.1-0.2-2.1,0.2-3.2,0.4c-1.9,0.2-2.4-1-2.9-2.5
				c-0.5-1.5-0.9-3.3-2.5-4c-2-0.9-4,0.6-5.6,1.7c-1.3,0.9-3,2.1-4.6,1.1c-1.3-0.9-1.8-2.7-0.9-4.1
				C898.7,172.1,897.9,171.6,897.5,172.2L897.5,172.2z"/>
		</g>
	</g>
	<g>
		<g>
			<path class="st1" d="M917,170.2c-0.7,1.8,0.6,3.3,2.2,4c1.4,0.6,8.8,0.9,8.4,3.3c-0.1,0.7,0.8,0.9,1,0.3c1-5.3-12.5-2.2-10.7-7.2
				C918.2,169.8,917.2,169.5,917,170.2L917,170.2z"/>
		</g>
	</g>
	<g>
		<g>
			<path class="st1" d="M934,305c0.6,1,1.7,0.7,2.2-0.3c1.1-2.2,1-4.9,3.4-6.3c2.5-1.5,4.2,1,6.6,1.2c1.9,0.2,3.7-0.8,4.9-2.1
				c1.5-1.6,2.3-3.8,3.4-5.7c0.6-1.1,1.4-1.7,2.6-0.8c0.4,0.3,0.7,0.7,1,1c0.5,0.4,1,0.8,1.6,1c2.9,1.3,6.5,0.1,8-2.7
				c0.3-0.6-0.5-1.1-0.9-0.5c-0.9,1.7-2.7,2.7-4.7,2.7c-2.2,0-3.1-1.3-4.8-2.5c-3.1-2.3-4.5,2.9-5.6,4.9c-1.3,2.2-3.6,4.5-6.4,3.5
				c-1.6-0.6-2.7-1.7-4.5-1.5c-1.5,0.2-2.7,1.1-3.5,2.3c-0.5,0.7-0.8,1.4-1.1,2.1c-0.2,0.5-0.4,1-0.5,1.6c-0.1,0.2-0.6,1.9-0.8,1.7
				C934.5,303.9,933.6,304.5,934,305L934,305z"/>
		</g>
	</g>
	<g>
		<g>
			<path class="st1" d="M955.6,300.9c0.5-3.9,5.9-1.1,8-0.9c1.9,0.2,3.5-0.4,4.4-2.2c0.6-1.2,0.8-2.7,2.3-3.2
				c1.2-0.4,2.7-0.1,3.9-0.3c2.3-0.3,4.5-1.2,6.4-2.6c0.5-0.4,0-1.3-0.5-0.9c-1.4,1-2.8,1.7-4.4,2.2c-1.6,0.4-3,0.4-4.6,0.5
				c-2.5,0.2-2.9,1.9-4,3.9c-1.9,3.6-6,0.4-8.9,0.5c-1.8,0.1-3.4,1.2-3.6,3.1C954.5,301.6,955.5,301.6,955.6,300.9L955.6,300.9z"/>
		</g>
	</g>
	<g>
		<g>
			<path class="st1" d="M975,222.5c-0.2,2-1.1,3.8-2.6,5.2c-0.5,0.4,0.2,1.2,0.7,0.7c1.7-1.5,2.7-3.6,2.9-5.9
				C976.1,221.9,975.1,221.9,975,222.5L975,222.5z"/>
		</g>
	</g>
	<g>
		<g>
			<path class="st1" d="M975.4,223.8c0.3,1.6,1.1,3.1,2.3,4.2c0.5,0.4,1.2-0.3,0.7-0.7c-1.1-1-1.8-2.2-2.1-3.7
				C976.3,222.9,975.3,223.1,975.4,223.8L975.4,223.8z"/>
		</g>
	</g>
	<g>
		<g>
			<path class="st1" d="M972.2,229.2c1.1,1.3,1.8,2.9,2.1,4.6c0.1,0.7,1.1,0.4,1-0.3c-0.4-1.9-1.2-3.6-2.4-5.1
				C972.5,228,971.8,228.7,972.2,229.2L972.2,229.2z"/>
		</g>
	</g>
	<g>
		<g>
			<path class="st1" d="M975.9,233.6c0.4-1.7,1.2-3.3,2.3-4.7c0.4-0.5-0.3-1.2-0.7-0.7c-1.2,1.5-2.1,3.2-2.5,5.1
				C974.7,234,975.7,234.3,975.9,233.6L975.9,233.6z"/>
		</g>
	</g>
	<g>
		<g>
			<path class="st1" d="M1106.8,290.1c-0.3,2.1,1.5,3.7,3.5,3.9c3.5,0.2,5.7-3.7,9-4.3c2.5-0.4,3.4,1.5,4.7,3.2
				c0.8,0.9,1.8,1.6,2.9,2c2.3,0.7,4.9,0,6.6-1.8c0.4-0.5-0.3-1.2-0.7-0.7c-1.7,1.9-4.7,2.4-6.8,0.9c-1.9-1.2-2.4-3.9-4.8-4.6
				c-2.1-0.6-4.2,0.6-5.8,1.8c-1,0.8-2.1,1.7-3.3,2.1c-1.6,0.6-4.5,0.1-4.2-2.3C1107.8,289.7,1106.9,289.4,1106.8,290.1
				L1106.8,290.1z"/>
		</g>
	</g>
	<g>
		<g>
			<path class="st1" d="M1118.8,300.5c2.5-1.3,5.3-1.4,7.9-0.3c1.9,0.8,3.2,2.3,5.4,2.2c1.9-0.1,3.6-1.1,5.3-2.1
				c2.1-1.1,6-2.6,7.1,0.7c0.2,0.6,1.2,0.3,1-0.3c-0.6-1.8-2.2-2.7-4-2.8c-2.8-0.1-5,2-7.4,3c-1.9,0.7-3.4,0.4-5.1-0.6
				c-1.1-0.7-2.2-1.3-3.5-1.6c-2.5-0.6-5-0.2-7.2,0.9C1117.7,299.9,1118.2,300.7,1118.8,300.5L1118.8,300.5z"/>
		</g>
	</g>
	<g>
		<g>
			<path class="st1" d="M1079.3,360.9c0.2,3.1-0.9,6-3,8.3c0.3,0.2,0.5,0.4,0.8,0.6c0.9-1.3,1.6-2.8,2.1-4.3c0.2-0.6-0.8-0.9-1-0.3
				c-0.5,1.5-1.1,2.8-2,4.1c-0.3,0.5,0.4,1,0.8,0.6c2.3-2.5,3.4-5.6,3.3-9C1080.3,360.2,1079.3,360.2,1079.3,360.9L1079.3,360.9z"/>
		</g>
	</g>
	<g>
		<g>
			<path class="st1" d="M1079.3,361c0.6,2.9,1.9,5.4,3.9,7.5c0.4,0.5,1.2-0.2,0.7-0.7c-1.9-2-3.1-4.4-3.6-7.1
				C1080.2,360.1,1079.2,360.4,1079.3,361L1079.3,361z"/>
		</g>
	</g>
	<g>
		<g>
			<path class="st1" d="M1076.2,370.7c1.8,2,3.2,4.1,4.4,6.6c0.3,0.6,1.1,0.1,0.9-0.5c-1.1-2.5-2.6-4.8-4.5-6.8
				C1076.4,369.5,1075.7,370.2,1076.2,370.7L1076.2,370.7z"/>
		</g>
	</g>
	<g>
		<g>
			<path class="st1" d="M1081.3,377.3c1.1-2.6,2.2-5.2,3.3-7.8c0.3-0.6-0.6-1.1-0.9-0.5c-1.1,2.6-2.2,5.2-3.3,7.8
				C1080.2,377.4,1081.1,377.9,1081.3,377.3L1081.3,377.3z"/>
		</g>
	</g>
	<g>
		<g>
			<path class="st1" d="M992.9,370.8c4.6,4.6,10.1,8,16.2,10.1c0.6,0.2,0.9-0.8,0.3-1c-5.9-2-11.3-5.3-15.7-9.8
				C993.2,369.6,992.5,370.4,992.9,370.8L992.9,370.8z"/>
		</g>
	</g>
	<g>
		<g>
			<path class="st1" d="M1004,373.1c5.3,3,11.2,4.7,17.3,5.2c0.6,0,0.6-1,0-1c-5.9-0.4-11.6-2.1-16.7-5.1
				C1004,371.9,1003.5,372.8,1004,373.1L1004,373.1z"/>
		</g>
	</g>
	<g>
		<g>
			<path class="st1" d="M1133.2,232.3c1,6.8,2.9,13.4,5.8,19.5c0.3,0.6,1.1,0.1,0.9-0.5c-2.8-6.1-4.8-12.6-5.7-19.3
				C1134.1,231.4,1133.1,231.7,1133.2,232.3L1133.2,232.3z"/>
		</g>
	</g>
	<g>
		<g>
			<path class="st1" d="M1155.5,213.3c1.2,6.5,3.1,12.9,5.5,19.1c0.2,0.6,1.2,0.3,1-0.3c-2.4-6.2-4.3-12.6-5.5-19.1
				C1156.4,212.4,1155.4,212.7,1155.5,213.3L1155.5,213.3z"/>
		</g>
	</g>
	<g>
		<g>
			<path class="st1" d="M1162.3,229c2.4,6.4,5.5,12.4,9.5,17.9c0.4,0.5,1.2,0,0.9-0.5c-3.9-5.4-7.1-11.3-9.4-17.6
				C1163.1,228.1,1162.1,228.4,1162.3,229L1162.3,229z"/>
		</g>
	</g>
	<g>
		<g>
			<path class="st1" d="M1010.4,162.6c1-5.5,3.4-10.5,7-14.7c0.4-0.5-0.3-1.2-0.7-0.7c-3.7,4.3-6.2,9.5-7.2,15.1
				C1009.2,162.9,1010.2,163.2,1010.4,162.6L1010.4,162.6z"/>
		</g>
	</g>
	<g>
		<g>
			<path class="st1" d="M1006.3,162.7c0.4-2.8,1.5-5.3,3.3-7.5c0.4-0.5-0.3-1.2-0.7-0.7c-1.9,2.3-3.2,5-3.6,8
				C1005.3,163,1006.2,163.3,1006.3,162.7L1006.3,162.7z"/>
		</g>
	</g>
	<g>
		<g>
			<path class="st1" d="M1078.4,60.3c3.6,4.1,6.1,9,7.4,14.4c0.2,0.7,1.1,0.4,1-0.3c-1.3-5.5-3.9-10.5-7.6-14.8
				C1078.7,59.1,1078,59.8,1078.4,60.3L1078.4,60.3z"/>
		</g>
	</g>
	<g>
		<g>
			<path class="st1" d="M1087.1,64.7c2,4.5,3.2,9.3,3.6,14.2c0.1,0.7,1.1,0.7,1,0c-0.4-5.1-1.7-10.1-3.7-14.8
				C1087.7,63.6,1086.8,64.1,1087.1,64.7L1087.1,64.7z"/>
		</g>
	</g>
</g>
<g id="background_n2">
	<ellipse class="st3" cx="1181.9" cy="91.9" rx="17.9" ry="17.9"/>
	<ellipse class="st4" cx="1173.8" cy="148.4" rx="9.7" ry="10.1"/>
	<ellipse class="st5" cx="881.3" cy="113.8" rx="21" ry="21"/>
	<g>
		<g>
			<path class="st6" d="M881.6,166.4c0.6,0,0.6-1,0-1C880.9,165.3,880.9,166.4,881.6,166.4L881.6,166.4z"/>
		</g>
	</g>
	<g>
		<g>
			<path class="st7" d="M881.1,167.9c2.6,0,2.6-4.1,0-4.1S878.5,167.9,881.1,167.9L881.1,167.9z"/>
		</g>
	</g>
	<g>
		<g>
			<path class="st7" d="M1136.4,104.1c2.6,0,2.6-4.1,0-4.1C1133.8,99.9,1133.8,104.1,1136.4,104.1L1136.4,104.1z"/>
		</g>
	</g>
	<g>
		<g>
			<path class="st7" d="M1128.2,240.1c2.6,0,2.6-4.1,0-4.1S1125.6,240.1,1128.2,240.1L1128.2,240.1z"/>
		</g>
	</g>
	<g>
		<g>
			<path class="st7" d="M838.4,243.1c-2.2,2.1-0.4,5.5,2.3,5.8c0.8,0.1,1.7-0.1,2.5-0.3c0.3-0.1,0.7-0.3,1-0.2c0,0-0.1-0.3,0,0.2
				c0.2,1.3-0.3,2.4,0.4,3.7c0.6,1.1,1.9,1.7,3.1,1.7c0.6,0,1.2-0.2,1.9-0.4c0.1,0,0.7-0.1,0.7-0.2c0.4-0.1,0.3-0.1-0.3-0.3
				c0,0.1,0.1,0.3,0.1,0.4c-0.1,1.2,1.2,2.5,2.2,3c1.5,0.7,2.8,0.2,3.6-1.1c1.5-2.2-2-4.2-3.5-2.1c1.4,0.2,1.9-0.1,1.6-0.9
				c0-0.1-0.1-0.3-0.1-0.4c-0.1-0.4-0.3-0.9-0.5-1.2c-0.5-0.8-1.3-1.3-2.2-1.5c-0.9-0.2-1.7,0-2.5,0.3c0,0-1.1,0.3-1.1,0.3
				c0.4,0.5,0.6,0.6,0.6,0.3c0-0.2,0-0.3,0-0.5c0.4-1.7-0.2-3.8-1.7-4.7c-0.8-0.5-1.7-0.7-2.6-0.6c-0.5,0-1,0.1-1.5,0.2
				c-0.3,0.1-0.5,0.1-0.8,0.2c-0.3,0.3-0.3,0.8-0.3,1.2C843.2,244.2,840.3,241.3,838.4,243.1L838.4,243.1z"/>
		</g>
	</g>
	<g>
		<g>
			<path class="st7" d="M848.7,243c0.2,1.2,0.4,2.4,0.6,3.5c0.2,0.9,1.1,1.5,2,1.5c1.2,0,2.7-0.5,3.6-1.4c0.2-0.1,0.3-0.2,0.5-0.2
				c-0.5-0.7-0.7-0.7-0.6,0c-0.1,0.4,0,1.2,0.1,1.6c0.7,3.2,4.1,2.3,6.1,4c2,1.7,4.9-1.2,2.9-2.9c-1.2-1-2.6-1.9-4.2-2.2
				c0.1,0-1.6-0.2-0.9,0.1c0.1,0.3,0.1,0.3,0.1,0.1c0-0.2,0-0.4,0-0.6c0-0.7-0.1-1.4-0.3-2c-0.6-1.3-1.9-2.1-3.3-2
				c-0.7,0-1.4,0.2-2,0.6c-0.6,0.3-1.2,1-1.9,1c0.6,0.5,1.3,1,2,1.5c-0.2-1.2-0.4-2.4-0.6-3.5C852.1,239.2,848.2,240.3,848.7,243
				L848.7,243z"/>
		</g>
	</g>
	<g>
		<g>
			<path class="st8" d="M964.9,101.5c0.6-0.8,1.3-1,2-0.3c0.4,0.5,0.6,1.1,0.6,1.7c0,0.6-0.2,1.2-0.3,1.8c0,0.6,0,1.1,0.5,1.4
				c0.9,0.7,2.2-0.2,2.8-1c0.3-0.4,0.5-1.1,0.9-1.3c1.5-1,1.4,0.4,1.7,1.1c0.2,0.5,0.5,0.9,0.9,1.1c1.7,0.8,3-0.8,3.8-2.1
				c0.3-0.6-0.5-1.1-0.9-0.5c-0.5,0.8-1.8,2.9-3,1c-0.2-0.3-0.2-0.9-0.4-1.2c-0.3-0.5-0.6-0.9-1.2-1c-0.7-0.1-1.2,0.4-1.7,0.9
				c-0.6,0.7-2.2,3.8-2.3,1.1c0-1.6,0.3-3.4-1.5-4.2c-1.2-0.6-2.6,0-3,1.3C963.7,101.8,964.7,102.1,964.9,101.5L964.9,101.5z"/>
		</g>
	</g>
	<g>
		<g>
			<path class="st8" d="M965.3,97.1c1-1,2.9-0.8,3.6,0.5c0.5,0.8,0.1,1.8,0.6,2.5c0.3,0.4,0.7,0.6,1.2,0.5c0.3-0.1,0.5-0.2,0.8-0.4
				c1.1-0.7,2-1,3,0.1c0.4,0.5,1.1-0.2,0.7-0.7c-0.8-0.9-2-1.3-3.1-1c-0.6,0.2-1.5,1.1-1.9,0.4c-0.2-0.4-0.1-1.1-0.3-1.6
				c-0.9-2.1-3.8-2.5-5.4-1C964.1,96.8,964.9,97.5,965.3,97.1L965.3,97.1z"/>
		</g>
	</g>
	<g>
		<g>
			<path class="st8" d="M1097.3,249.1c0.3,1.2,0.8,6.2,3.1,5.3c0.9-0.4,1.4-2.5,2.2-2.4c0.6,0.1,0.4,0.3,0.6,0.9
				c0.1,0.5,0.3,0.9,0.5,1.4c0.3,0.8,0.7,1.4,1.2,2.1c0.2,0.3,0.7,0.4,0.9,0c0.9-1.9,3.2-1.5,3.6,0.4c0.1,0.7,1.1,0.4,1-0.3
				c-0.6-2.9-4.3-3.4-5.5-0.7c0.3,0,0.6,0,0.9,0c-0.5-0.8-1-1.5-1.4-2.4c-0.2-0.7-0.2-1.7-0.6-2.3c-0.3-0.6-0.9-0.7-1.5-0.5
				c-0.9,0.3-1,1.1-1.6,1.8c-0.2,0.3-0.9,1-1.3,0.7c-0.2-0.1-0.4-1.2-0.5-1.5c-0.2-0.9-0.5-1.9-0.7-2.8
				C1098.1,248.3,1097.1,248.5,1097.3,249.1L1097.3,249.1z"/>
		</g>
	</g>
	<g>
		<g>
			<path class="st8" d="M1106.2,250.9c0.7-1.7,2.6-1,3.2,0.3c0.2,0.6,0.4,1.2,0.9,1.5c1.5,1.1,3-1.4,4,1.1c0.8,2.2,3.4,3.2,5,1
				c0.4-0.6-0.5-1.1-0.9-0.5c-0.4,0.6-1.2,0.9-2,0.7c-0.9-0.3-1-1.1-1.3-1.8c-0.2-0.5-0.4-1.1-0.8-1.4c-0.4-0.4-0.9-0.4-1.5-0.3
				c-0.3,0.1-0.6,0.3-0.9,0.4c-1.1,0.2-1.3-0.4-1.7-1.2c-1-2.2-4-2.2-5,0.1C1104.9,251.3,1105.9,251.6,1106.2,250.9L1106.2,250.9z"
				/>
		</g>
	</g>
	<g>
		<g>
			<path class="st8" d="M1206.4,132.6c-1.4-1.4-0.8-4.3,1.1-5c2.4-0.8,4.4,2.4,3.2,4.4c-0.3,0.6,0.5,1.1,0.9,0.5
				c1.5-2.7-0.9-6.8-4.2-6c-2.8,0.7-3.8,4.8-1.8,6.8C1206.1,133.8,1206.9,133.1,1206.4,132.6L1206.4,132.6z"/>
		</g>
	</g>
	<g>
		<g>
			<path class="st8" d="M942,338.7c-2-2.4-0.8-6.5,2.6-6.4c3,0.1,4,4.3,1.3,5.7c-0.6,0.3-0.1,1.2,0.5,0.9c3.4-1.9,2.3-7.2-1.6-7.6
				c-4.5-0.4-6.3,5-3.6,8.1C941.7,339.9,942.4,339.2,942,338.7L942,338.7z"/>
		</g>
	</g>
	<g>
		<g>
			<path class="st8" d="M937.6,290.9c-1.1-0.9-3.5-3.4-0.4-4.1c0.6-0.1,1.2,0.1,1.8-0.1c1.2-0.5,1.6-1.8,1.6-3.1
				c0-0.8-0.3-1.6-0.5-2.4c-0.2-0.9-0.6-2,0.7-2c0.2,0,0.5,0.1,0.7,0.1c1.2,0,2-0.8,2.4-1.9c0.2-0.6-0.7-0.9-1-0.3
				c-0.8,2.3-3.5-0.4-4,2.2c-0.4,2,2.2,6.2-1.2,6.4c-1.4,0.1-2.6,0-3,1.7c-0.4,1.8,0.9,3.1,2.2,4.1
				C937.3,292,938.1,291.3,937.6,290.9L937.6,290.9z"/>
		</g>
	</g>
	<g>
		<g>
			<path class="st8" d="M945.1,286.1c-0.5-0.9-1.4-2.4-1-3.4c0.4-1.1,2.3-1,3.2-1.8c1.2-1,1.6-2.5,1.2-4.1c-0.2-0.7-1.1-0.4-1,0.3
				c0.3,1,0.1,1.9-0.5,2.7c-0.6,0.7-1.4,0.7-2.2,1c-0.6,0.2-1.2,0.6-1.5,1.2c-0.7,1.5,0.1,3.4,0.9,4.7
				C944.5,287.1,945.4,286.6,945.1,286.1L945.1,286.1z"/>
		</g>
	</g>
	<g>
		<g>
			<path class="st9" d="M863.1,134.6c-0.9,0.7-2.7,2-3.9,1.1c-1.4-1,0.2-3.5,0.7-4.5c1.1-2.3,2.6-4.4,4.2-6.4c3.2-4,7-7.4,10.9-10.8
				c1-0.9-0.4-2.3-1.4-1.4c-5.3,4.6-10.6,9.5-14.3,15.6c-1.2,2.1-3.6,5.6-2.2,8.1c1.6,2.9,5,1.4,7.1,0
				C865.2,135.6,864.2,133.8,863.1,134.6L863.1,134.6z"/>
		</g>
	</g>
	<g>
		<g>
			<path class="st9" d="M882.4,107.4c3-2.5,6.1-5,9.1-7.5c1-0.8-0.4-2.3-1.4-1.4c-3,2.5-6.1,5-9.1,7.5
				C880,106.8,881.4,108.2,882.4,107.4L882.4,107.4z"/>
		</g>
	</g>
	<g>
		<g>
			<path class="st9" d="M899.8,95.8c1.6-0.8,7.2-4.2,8.2-1.5c0.9,2.3-1.3,5.7-2.7,7.5c-0.8,1,0.6,2.5,1.4,1.4
				c2-2.5,4.7-7.2,2.8-10.5c-2.2-3.7-8.1-0.2-10.8,1.2C897.6,94.6,898.6,96.4,899.8,95.8L899.8,95.8z"/>
		</g>
	</g>
	<g>
		<g>
			<path class="st9" d="M871.4,124.7c4.6-5.3,9.7-10.2,15.3-14.4c1-0.8,0-2.6-1-1.8c-5.7,4.3-11,9.3-15.7,14.8
				C869.1,124.2,870.5,125.7,871.4,124.7L871.4,124.7z"/>
		</g>
	</g>
</g>
<g id="background">
	<g>
		<path class="st9" d="M902.4,113.8c0,0,0,0.1,0,0.4c0,0.3,0,0.7,0,1.2c-0.1,1.1-0.2,2.6-0.7,4.5c-0.5,1.9-1.3,4.2-2.8,6.6
			c-1.5,2.3-3.5,4.8-6.3,6.7c-1.4,1-3,1.8-4.7,2.5c-0.4,0.2-0.9,0.3-1.3,0.4c-0.4,0.1-0.9,0.3-1.4,0.4c-0.2,0.1-0.5,0.1-0.7,0.2
			c-0.2,0-0.5,0.1-0.7,0.1c-0.5,0.1-0.9,0.1-1.5,0.2c-0.5,0.1-1,0.1-1.5,0.1c-0.5,0-1,0-1.5,0c-0.2,0-0.5,0-0.7,0
			c-0.2,0-0.5,0-0.7-0.1c-0.5,0-1-0.1-1.5-0.2c-1-0.2-2-0.4-3-0.7c-1-0.3-2-0.7-2.9-1.1c-3.8-1.8-7.3-4.7-9.8-8.4
			c-2.5-3.7-4-8.2-4-12.8c0-1.1,0-2.3,0.2-3.4c0.2-1.1,0.4-2.3,0.7-3.4c0.3-1.1,0.7-2.2,1.2-3.2c0.5-1,1-2,1.6-3
			c2.5-3.8,6-6.8,9.9-8.5c3.9-1.8,8.2-2.3,12.1-1.9c2,0.2,3.8,0.7,5.5,1.4c1.7,0.7,3.3,1.5,4.7,2.5c2.8,2,4.9,4.4,6.3,6.8
			c1.5,2.3,2.3,4.7,2.8,6.6c0.5,1.9,0.7,3.5,0.7,4.5c0,0.5,0,0.9,0,1.2C902.4,113.7,902.4,113.8,902.4,113.8L902.4,113.8z
			 M902.2,113.8c0,0,0-0.1,0-0.4c0-0.3,0-0.7-0.1-1.2c-0.1-1-0.2-2.6-0.8-4.5c-0.3-0.9-0.6-2-1.1-3c-0.5-1.1-1.1-2.2-1.9-3.3
			c-1.6-2.2-3.7-4.4-6.4-6.1c-1.4-0.9-2.9-1.6-4.5-2.2c-1.6-0.6-3.4-1-5.2-1.2c-0.5-0.1-0.9-0.1-1.4-0.1c-0.2,0-0.5,0-0.7,0h-0.4
			h-0.3c-0.2,0-0.5,0-0.7,0c-0.2,0-0.5,0-0.7,0c-0.5,0-0.9,0.1-1.4,0.2c-0.9,0.1-1.9,0.3-2.9,0.6c-0.5,0.1-0.9,0.3-1.4,0.4
			c-0.2,0.1-0.5,0.2-0.7,0.3s-0.5,0.2-0.7,0.3c-3.7,1.6-7.1,4.3-9.5,7.9c-0.6,0.9-1.1,1.8-1.6,2.8c-0.5,1-0.9,2-1.2,3
			c-0.3,1-0.6,2.1-0.8,3.2c-0.2,1.1-0.3,2.2-0.3,3.3c0,1.1,0,2.2,0.2,3.3c0.2,1.1,0.4,2.2,0.7,3.3c0.3,1.1,0.7,2.1,1.1,3.1
			c0.5,1,1,2,1.6,2.9c1.2,1.8,2.7,3.4,4.3,4.8c1.7,1.3,3.5,2.4,5.4,3.2c0.9,0.4,1.9,0.7,2.9,1c1,0.3,2,0.4,2.9,0.6
			c0.5,0,1,0.1,1.5,0.1c0.2,0,0.5,0,0.7,0s0.5,0,0.7,0c0.5,0,0.9,0,1.4,0c0.5,0,0.9-0.1,1.4-0.1c1.8-0.2,3.6-0.7,5.2-1.3
			c1.6-0.6,3.1-1.4,4.5-2.3c2.7-1.8,4.9-4,6.4-6.2c0.8-1.1,1.4-2.2,1.9-3.3c0.5-1.1,0.9-2.1,1.1-3c0.6-1.9,0.7-3.4,0.8-4.5
			c0.1-0.5,0-0.9,0.1-1.2C902.2,114,902.2,113.8,902.2,113.8L902.2,113.8z"/>
	</g>
	<g>
		<path class="st9" d="M1182.2,149.1c0,0,0,0.3,0,0.8c0,0.1,0,0.3,0,0.4c0,0.1,0,0.3-0.1,0.5c0,0.2,0,0.4-0.1,0.6
			c0,0.2-0.1,0.4-0.1,0.7c-0.2,0.9-0.6,2-1.2,3.2c-0.7,1.1-1.6,2.4-3,3.3c-1.4,1-3.1,1.7-5,1.9c-0.2,0-0.5,0-0.7,0h-0.4h-0.2h0h0h0
			h-0.1c-0.5,0-0.9-0.1-1.4-0.2c-1-0.2-1.9-0.5-2.9-1c-0.9-0.4-1.8-1.1-2.6-1.7c-0.8-0.7-1.5-1.5-2.1-2.4c-0.3-0.4-0.6-0.9-0.8-1.4
			c-0.1-0.2-0.2-0.5-0.3-0.7c-0.1-0.2-0.2-0.5-0.3-0.8c-0.3-1-0.5-2.1-0.6-3.2c0-0.6,0-1.1,0.1-1.7c0-0.6,0.2-1.1,0.3-1.7
			c0.3-1.1,0.7-2.1,1.4-3c0.6-0.9,1.3-1.8,2.1-2.5c0.8-0.7,1.7-1.3,2.7-1.7c0.9-0.4,2-0.8,3-0.9c0.5-0.1,1-0.1,1.5-0.1h0.1h0h0h0.1
			h0.2l0.3,0c0.2,0,0.4,0,0.7,0.1c0.2,0,0.5,0.1,0.7,0.1c0.1,0,0.2,0,0.4,0.1l0.3,0.1c0.2,0.1,0.4,0.1,0.7,0.2
			c0.2,0.1,0.4,0.2,0.6,0.2c0.8,0.3,1.6,0.8,2.3,1.3c1.4,1,2.3,2.2,3,3.4c0.7,1.2,1,2.3,1.2,3.2c0,0.2,0.1,0.4,0.1,0.7
			c0,0.2,0.1,0.4,0.1,0.6c0,0.2,0,0.3,0.1,0.5c0,0.1,0,0.3,0,0.4C1182.2,148.8,1182.2,149.1,1182.2,149.1L1182.2,149.1z
			 M1182.1,149.1c0,0,0-0.3,0-0.8c0-0.1,0-0.3,0-0.4c0-0.1-0.1-0.3-0.1-0.5c0-0.2-0.1-0.4-0.1-0.6c-0.1-0.2-0.1-0.4-0.2-0.6
			c0-0.1-0.1-0.2-0.1-0.3c0-0.1-0.1-0.2-0.1-0.3c-0.1-0.2-0.2-0.5-0.3-0.7c-0.1-0.2-0.3-0.5-0.4-0.8c-0.2-0.2-0.3-0.5-0.5-0.8
			c-0.7-1-1.8-2-3.1-2.8c-0.6-0.4-1.4-0.7-2.1-1c-0.2-0.1-0.4-0.1-0.6-0.2c-0.2,0-0.4-0.1-0.6-0.1l-0.3-0.1c-0.1,0-0.2,0-0.3,0
			c-0.2,0-0.4-0.1-0.6-0.1c-0.2,0-0.4,0-0.7,0h-0.3h-0.2c0,0,0,0,0,0h0h0h-0.1c-0.4,0-0.9,0-1.3,0.1c-0.9,0.1-1.8,0.4-2.6,0.7
			s-1.7,0.9-2.4,1.4c-0.7,0.6-1.4,1.3-2,2.1c-0.5,0.8-1,1.7-1.4,2.7c-0.1,0.5-0.3,1-0.4,1.4c-0.1,0.5-0.1,1.1-0.2,1.5
			c0,1,0.1,2.1,0.3,3.1c0.3,1,0.7,2,1.3,2.8c0.3,0.4,0.6,0.8,0.9,1.2c0.2,0.2,0.3,0.4,0.5,0.6l0.6,0.5c0.8,0.6,1.7,1.1,2.5,1.4
			c0.9,0.3,1.8,0.6,2.7,0.6c0.4,0.1,0.9,0,1.4,0.1h0.1h0h0c0,0,0,0,0,0h0.2l0.3,0c0.2,0,0.4,0,0.6-0.1c1.7-0.2,3.2-0.8,4.5-1.6
			c1.3-0.8,2.3-1.8,3.1-2.8c0.2-0.3,0.4-0.5,0.5-0.8c0.1-0.3,0.3-0.5,0.4-0.8c0.1-0.2,0.2-0.5,0.3-0.7c0-0.1,0.1-0.2,0.1-0.3
			c0-0.1,0.1-0.2,0.1-0.3c0.1-0.2,0.1-0.4,0.2-0.6c0.1-0.2,0.1-0.4,0.1-0.6s0.1-0.3,0.1-0.5c0-0.1,0-0.3,0-0.4
			C1182,149.4,1182.1,149.1,1182.1,149.1L1182.1,149.1z"/>
	</g>
	<g>
		<path class="st9" d="M1202.5,91.9c0,0,0,0.4-0.1,1.3c0,0.2,0,0.4,0,0.7c0,0.2-0.1,0.6-0.1,0.8c-0.1,0.3-0.1,0.6-0.1,1
			s-0.2,0.7-0.3,1.1c-0.4,1.5-1,3.4-2.2,5.3c-0.3,0.5-0.6,0.9-0.9,1.4c-0.2,0.2-0.4,0.5-0.6,0.7c-0.2,0.2-0.4,0.5-0.6,0.7
			c-0.4,0.5-0.9,0.9-1.4,1.3c-0.5,0.4-1,0.9-1.6,1.2c-2.2,1.6-5.1,2.7-8.2,3.1c-0.4,0.1-0.8,0-1.2,0.1c-0.2,0-0.4,0-0.6,0h-0.3h-0.1
			h0h-0.1h-0.1c-0.8-0.1-1.6-0.1-2.4-0.3c-1.7-0.2-3.2-0.8-4.8-1.5c-0.4-0.2-0.7-0.4-1.1-0.6c-0.2-0.1-0.4-0.2-0.5-0.3l-0.5-0.3
			l-0.5-0.3c-0.2-0.1-0.3-0.3-0.5-0.4c-0.3-0.3-0.7-0.5-1-0.8c-1.3-1.2-2.5-2.5-3.5-4c-0.2-0.4-0.5-0.8-0.7-1.1l-0.2-0.3l-0.1-0.3
			l-0.3-0.6l-0.3-0.6c-0.1-0.2-0.2-0.4-0.2-0.6c-0.2-0.4-0.3-0.8-0.5-1.3l-0.4-1.3l-0.1-0.3l-0.1-0.3l-0.1-0.7
			c-0.1-0.4-0.2-0.9-0.2-1.3l-0.1-1.4l0-1.3c0-0.2,0-0.4,0-0.7l0.1-0.7l0.1-0.7l0-0.3l0.1-0.3l0.3-1.3c0.5-1.8,1.3-3.4,2.3-5
			c1-1.5,2.2-2.9,3.5-4c0.3-0.3,0.7-0.6,1-0.8c0.2-0.1,0.3-0.3,0.5-0.4l0.5-0.3l0.5-0.3c0.2-0.1,0.4-0.2,0.6-0.3
			c0.4-0.2,0.8-0.4,1.1-0.6c1.6-0.7,3.2-1.2,4.8-1.4c0.8-0.2,1.6-0.2,2.4-0.2h0.1h0.1h0c0,0,0.1,0,0.1,0h0.3c0.2,0,0.4,0,0.6,0
			c0.2,0,0.4,0,0.6,0s0.4,0,0.6,0.1c0.4,0.1,0.8,0.1,1.2,0.2c0.2,0,0.4,0.1,0.6,0.1c0.2,0,0.4,0.1,0.5,0.1c0.4,0.1,0.7,0.2,1.1,0.3
			c0.4,0.1,0.7,0.3,1,0.4c1.4,0.5,2.6,1.2,3.7,2c0.5,0.4,1.1,0.8,1.6,1.3c0.5,0.5,0.9,0.9,1.4,1.4c0.2,0.2,0.4,0.5,0.6,0.7
			s0.4,0.4,0.5,0.7c0.3,0.5,0.7,1,0.9,1.4c1.2,1.9,1.8,3.8,2.2,5.3c0.1,0.4,0.2,0.8,0.3,1.1c0.1,0.3,0.1,0.7,0.1,1
			c0,0.3,0.1,0.6,0.1,0.8c0,0.2,0,0.5,0,0.7C1202.5,91.4,1202.5,91.9,1202.5,91.9L1202.5,91.9z M1202.4,91.9c0,0,0-0.4-0.1-1.3
			c0-0.2,0-0.4-0.1-0.7c0-0.2-0.1-0.5-0.1-0.8c-0.1-0.3-0.1-0.6-0.2-1c-0.1-0.3-0.2-0.7-0.3-1.1c-0.1-0.2-0.1-0.4-0.2-0.6
			c-0.1-0.2-0.1-0.4-0.2-0.6c-0.1-0.2-0.2-0.4-0.2-0.6c-0.1-0.2-0.2-0.4-0.3-0.6c-0.2-0.4-0.4-0.9-0.7-1.3c-0.3-0.4-0.6-0.9-0.8-1.3
			c-1.2-1.7-3-3.5-5.1-4.8c-1.1-0.7-2.3-1.3-3.6-1.7c-0.3-0.1-0.6-0.2-1-0.3c-0.3-0.1-0.7-0.2-1-0.2c-0.2,0-0.3-0.1-0.5-0.1
			c-0.2,0-0.3-0.1-0.5-0.1c-0.3,0-0.7-0.1-1-0.1c-0.2,0-0.4,0-0.5,0c-0.2,0-0.4,0-0.6,0c-0.2,0-0.4,0-0.6,0h-0.3h-0.2
			c-0.7,0.1-1.5,0-2.3,0.2c-1.5,0.2-3,0.7-4.5,1.3c-0.4,0.2-0.7,0.3-1.1,0.5c-0.2,0.1-0.4,0.2-0.5,0.3l-0.5,0.3l-0.5,0.3
			c-0.2,0.1-0.3,0.2-0.5,0.3c-0.3,0.2-0.7,0.5-1,0.7c-1.3,1.1-2.4,2.3-3.4,3.7c-0.9,1.4-1.7,3-2.3,4.6c-0.5,1.7-0.8,3.3-0.9,5.2
			c0,1.7,0.2,3.5,0.6,5.2c0.5,1.7,1.2,3.3,2.2,4.7c0.2,0.3,0.5,0.7,0.8,1c0.2,0.3,0.5,0.7,0.8,1l0.4,0.5c0.1,0.1,0.1,0.2,0.2,0.2
			l0.2,0.2c0.3,0.3,0.6,0.6,0.9,0.9c0.3,0.3,0.7,0.5,1,0.8c0.2,0.1,0.3,0.2,0.5,0.3l0.5,0.3l0.5,0.3c0.2,0.1,0.3,0.2,0.5,0.3
			c0.4,0.2,0.7,0.3,1.1,0.5c0.2,0.1,0.4,0.2,0.6,0.2l0.6,0.2c0.4,0.1,0.7,0.3,1.1,0.3c0.4,0.1,0.8,0.2,1.1,0.3
			c0.4,0.1,0.8,0.1,1.1,0.2c0.7,0.1,1.6,0.1,2.3,0.1h0.1h0.1h0c0,0,0,0,0,0l0.3,0c0.2,0,0.4,0,0.6,0c0.4,0,0.7,0,1.1-0.1
			c2.9-0.4,5.5-1.4,7.7-2.8c2.2-1.4,3.9-3.1,5.1-4.9c0.3-0.4,0.6-0.9,0.8-1.3c0.2-0.4,0.4-0.9,0.7-1.3c0.1-0.2,0.2-0.4,0.3-0.6
			c0.1-0.2,0.2-0.4,0.2-0.6c0.1-0.2,0.2-0.4,0.2-0.6c0.1-0.2,0.1-0.4,0.2-0.6c0.1-0.4,0.2-0.7,0.3-1.1c0.1-0.3,0.1-0.7,0.2-1
			c0-0.3,0.1-0.6,0.1-0.8c0-0.2,0-0.5,0.1-0.7C1202.3,92.3,1202.4,91.9,1202.4,91.9L1202.4,91.9z"/>
	</g>
	<g>
		<g>
			<path class="st9" d="M948.5,155.5c-0.3-0.2-0.2-0.7-0.1-1c0.2-0.5,1-0.6,1.5-0.6c0.9,0,1.9,0.4,2.8,0.7c1.2,0.4,2.5,0.6,3.7,0.2
				c2.2-0.8,3.1-3.2,3.9-5.2c0.5-1.2,1.5-3.3,3.1-3.3c1.3,0.1,2.1,1.7,3.5,1.7c2.4,0.1,4.1-2.5,4.9-4.5c0.5-1.2-1.2-2.3-1.8-1
				c-0.7,1.7-2.1,4.4-4.1,2.9c-1.1-0.8-2.1-1.5-3.5-1.1c-3,0.8-3.7,4.1-4.9,6.6c-1,2.1-2.5,2.3-4.6,1.7c-1.5-0.4-3.1-1-4.6-0.4
				c-2.1,0.8-2.8,3.9-0.8,5.2C948.6,158,949.6,156.2,948.5,155.5L948.5,155.5z"/>
		</g>
	</g>
	<g>
		<g>
			<path class="st9" d="M964,155.4c-0.2-1.3,0.8-2.6,2.1-2.8c1.1-0.2,2,0.8,3,1c1.9,0.3,3.4-1.3,4.2-2.9c0.5-1,0.7-2.2,1.6-3
				c0.7-0.7,1.8-0.8,2.8-1c1.8-0.3,3.4-0.6,4.7-2c0.8-1-0.6-2.4-1.4-1.4c-1.5,1.7-4.1,1.2-6,2c-2.4,1.1-2.5,3.4-3.9,5.3
				c-1.2,1.7-2.5,0.1-4-0.1c-0.9-0.1-1.8,0.1-2.6,0.5c-1.8,1-2.6,2.9-2.3,4.9C962.2,157.2,964.2,156.7,964,155.4L964,155.4z"/>
		</g>
	</g>
	<g>
		<g>
			<path class="st9" d="M968.3,256.9c-1.3-1.8,0-4.7,2.4-4c2.3,0.7,2.2,4-0.1,4.6c-1.2,0.4-0.7,2.4,0.5,2c4-1.2,4.5-7.1,0.4-8.5
				c-4-1.5-7.5,3.4-5,6.9C967.3,259,969.1,257.9,968.3,256.9L968.3,256.9z"/>
		</g>
	</g>
	<g>
		<g>
			<path class="st9" d="M1165.3,211.3c-0.2-0.6,0.3-0.8,1.3-0.5c0.5,0.2,0.9,0.3,1.4,0.6c0.5,0.2,0.9,0.4,1.5,0.5
				c0.9,0.2,1.9,0,2.7-0.7c1.7-1.3,1.4-3.6,2.4-5.2c1.1-1.8,1.9-0.5,2.7,0.5c0.4,0.6,0.9,1.1,1.7,1.2c0.8,0.2,1.6-0.1,2.2-0.6
				c0.4-0.3,0.7-0.8,1-1.2c0-0.1,1.5-2.3,1.6-1.7c0.1,1.3,2.1,1.3,2,0c0-1.2-0.9-2.1-2.2-2.1c-1.4,0-2.2,1.1-2.8,2.2
				c-0.6,1-1.3,1.9-2.1,0.6c-0.3-0.5-0.6-1-1.1-1.3c-1-0.9-2.4-0.8-3.4,0c-1.2,0.9-1.7,2.3-2.1,3.6c-0.2,0.8-0.4,1.8-1,2.4
				c-0.9,0.9-2.3-0.1-3.2-0.5c-1.3-0.5-3-0.7-3.9,0.7c-0.7,1-0.7,2.2,0.1,3.1C1164.8,213.7,1166.2,212.2,1165.3,211.3L1165.3,211.3z
				"/>
		</g>
	</g>
	<g>
		<g>
			<path class="st9" d="M1181.7,213.4c-0.4-1.5,1.6-1.7,2.5-1.5c0.8,0.1,1.5,0.4,2.3,0.7c1.2,0.3,2.6,0.6,3.8,0.1
				c0.9-0.3,1.6-1,2.1-1.9c0.6-1,0.8-2.5,1.9-3.2c1.1-0.7,0.1-2.5-1-1.8c-1.2,0.8-1.7,2-2.3,3.3c-1.2,2.4-3.2,1.6-5.3,1
				c-1.6-0.4-3.2-0.6-4.6,0.4c-1.1,0.8-1.7,2.1-1.3,3.5C1180,215.2,1182,214.6,1181.7,213.4L1181.7,213.4z"/>
		</g>
	</g>
</g>
<g id="leg_r">
	<path class="st10" d="M1027.2,198.9c-4.5,3.9-10.5,9.9-16.1,18.3c-4.1,6.1-10.9,16.7-13.3,31.9c-3.5,22,4.7,39.4,7.4,44.7
		c9.8,19.2,25.1,28.1,30.8,31.1c-1.2,2.1-3,5.3-4.6,9.4c-0.4,1-7.7,20.1-2.7,23.6c3.7,2.6,12.8-4.7,14.1-5.8
		c8.2-6.7,12.1-15.7,16.3-26.1c1.8-4.4,3-8.1,3.8-10.6c-4.7-3.3-11.7-9.1-17.7-18c-3.8-5.6-16.7-24.6-11.2-42.2
		c2.5-8.1,6.1-6.8,15.8-23.1c7.1-11.9,11.1-18.6,9-24.2C1055.9,200.6,1042.7,197.4,1027.2,198.9z"/>
	<g>
		<g>
			<path class="st9" d="M1028,319.7c7.7-3.6,14.3-9.5,18.8-16.9c0.3-0.4-0.4-0.8-0.6-0.4c-4.5,7.3-10.9,13-18.5,16.6
				C1027.2,319.3,1027.5,319.9,1028,319.7L1028,319.7z"/>
		</g>
	</g>
	<g>
		<g>
			<path class="st9" d="M1025.8,278.6c4.5,9.8,10.4,18.7,17.7,26.5c0.3,0.4,0.9-0.2,0.5-0.6c-7.2-7.8-13.1-16.7-17.6-26.4
				C1026.2,277.7,1025.5,278.1,1025.8,278.6L1025.8,278.6z"/>
		</g>
	</g>
	<g>
		<g>
			<path class="st9" d="M1000,279.2c1.3-2,3.8-2.8,6.1-2.1c2.3,0.7,4,2.8,4.9,5c1,2.5,1.3,5.3,0.6,8c-0.7,2.7-3,5.3-6,4.1
				c-0.4-0.2-0.6,0.6-0.2,0.8c2.6,1.1,5.2-0.6,6.3-3c1.5-3.1,1.3-7,0-10.1c-1.1-2.6-3.3-5-6.1-5.5c-2.4-0.5-5,0.5-6.3,2.6
				C999,279.2,999.7,279.6,1000,279.2L1000,279.2z"/>
		</g>
	</g>
	<g>
		<g>
			<path class="st9" d="M1001.3,236.9c3.4-0.4,6.8-0.4,10.2,0.3c3.2,0.7,6.6,1.6,8.7,4.3c0.3,0.4,0.8-0.2,0.5-0.6
				c-2-2.7-5.3-3.7-8.4-4.4c-3.6-0.8-7.3-1-11-0.5C1000.8,236.2,1000.8,237,1001.3,236.9L1001.3,236.9z"/>
		</g>
	</g>
	<g>
		<g>
			<path class="st9" d="M1000.1,240.2c3.6-0.3,7.1,0.1,10.5,1.2c0.5,0.1,0.7-0.6,0.2-0.8c-3.5-1.1-7.1-1.5-10.7-1.3
				C999.6,239.5,999.6,240.2,1000.1,240.2L1000.1,240.2z"/>
		</g>
	</g>
	<g>
		<g>
			<path class="st9" d="M1032,212.6c-3.4,4.8-7,9.4-10.9,13.8c-0.3,0.4,0.2,0.9,0.5,0.6c3.9-4.4,7.6-9.1,11-13.9
				C1032.9,212.6,1032.3,212.2,1032,212.6L1032,212.6z"/>
		</g>
	</g>
	<g>
		<g>
			<path class="st9" d="M1023.4,250c-2.6,5.4-4,11.3-4.2,17.3c0,0.5,0.7,0.5,0.8,0c0.2-5.9,1.6-11.6,4.1-16.9
				C1024.3,249.9,1023.6,249.6,1023.4,250L1023.4,250z"/>
		</g>
	</g>
	<g>
		<g>
			<path class="st9" d="M1028.8,239.2c3.3,2.5,6.1,5.7,8.2,9.4c0.2,0.4,0.9,0,0.6-0.4c-2.2-3.8-5-7.1-8.5-9.7
				C1028.8,238.2,1028.4,238.9,1028.8,239.2L1028.8,239.2z"/>
		</g>
	</g>
	<g>
		<g>
			<path class="st9" d="M1059.3,313.3c-4,4.3-2.6,10.4-4.1,15.6c-0.9,3.3-2.5,6.3-3.9,9.4c-1.4,3-2.7,6-4.1,9.1
				c-0.2,0.4,0.4,0.9,0.6,0.4c2.5-5.6,5.4-11.1,7.5-16.8c2-5.5,0.2-12.6,4.4-17.1C1060.1,313.5,1059.6,312.9,1059.3,313.3
				L1059.3,313.3z"/>
		</g>
	</g>
	<g>
		<g>
			<path class="st9" d="M1035.8,325.4c2.4-1.5,5-2.7,7.8-3.3c0.5-0.1,0.3-0.9-0.2-0.8c-2.9,0.6-5.5,1.8-8,3.3
				C1035,325,1035.4,325.7,1035.8,325.4L1035.8,325.4z"/>
		</g>
	</g>
	<path class="st11" d="M1044.7,235.7c-3.5,1.5-15.8,7.5-21.4,21.3c-4.8,11.7-2.1,22.2-0.2,29.9c4.5,17.6,15.1,29.1,21.1,34.6
		c-0.2,1.9-0.6,4.7-2,7.9c-2.7,6.1-6.6,7.8-9.6,12.2c-2,3-4.1,7.9-3.5,16.2c1,0.1,2.4,0.1,4.1-0.2c2.5-0.4,6.4-1.9,12.3-8.8
		c3.9-4.6,6.4-8.9,8.4-12.7c2.6-4.9,5.8-12,8.4-21c-9.9-7.8-16.1-15.7-19.9-21.3c-5.1-7.6-7-12.8-7.6-14.6
		c-1.4-4.1-3.7-11.3-2.2-20.1c0.5-3.1,0.8-4.9,2-7.1c3-5.6,7.9-6.8,9.6-12.4C1044.7,238,1044.7,236.5,1044.7,235.7z"/>
	<path class="st12" d="M1035,249.3c-2.2,5.2-4.9,13.6-4.7,24.1c0.6,21.9,13.9,36.3,17.6,40.1c1.1,3.7,2.3,9.4,1.5,16.2
		c-2,16-13.8,25.2-16.5,27.2c2.3-0.8,6.1-2.2,9.9-5.2c7.4-5.6,10.8-13.1,14.8-22.4c1.5-3.3,3.4-8.2,5.1-14.5
		c-10-7.9-16.3-16.1-19.9-21.8c-3.8-5.9-7.4-11.6-9.1-20C1031.6,262.7,1033.6,254,1035,249.3z"/>
</g>
<g id="leg_l">
	<path class="st10" d="M1093.5,215.2c2.8,6.2,1.7,13.4,0.8,18.9c-1.2,7.8-4,13.7-6,17.3c-0.9,4.4-1.7,11.8,0.5,20.4
		c2.6,10.3,8.3,16.8,13.6,22.7c4.5,5.1,12.3,12.7,24.1,19c-0.7,2.5-1.8,6.4-3.2,11.1c-6.2,19.5-10.1,23.4-11.5,24.6
		c-3.9,3.5-11,7.5-14,5.2c-2.5-1.9-3.1-8.4,5.6-29.6c-3.6-1.3-8.7-3.4-14.5-6.6c-5.9-3.2-22.3-12.1-32.7-26.7
		c-15.6-22.1-11.7-49.4-10.3-56.9c-2.4-1.1-6.7-3.6-8.2-8.2c-2.8-8.3,5.4-17.9,12.1-22.1C1064.1,195.4,1087.4,201.8,1093.5,215.2z"
		/>
	<g>
		<g>
			<path class="st13" d="M1038.4,215.5c-2,3.1-2.2,7.1-0.8,10.6c0.7,1.7,1.8,3.2,3.1,4.5c0.6,0.6,1.3,1.2,2.1,1.7
				c0.3,0.2,2.8,1.5,2.3,2c0.2,0,0.4-0.1,0.6-0.1c-4.4-3.3-7.7-8.2-7.6-13.8c0-0.6-0.9-0.7-1-0.1c-0.8,4.9,1.1,9.8,5.1,12.7
				c0.1-0.3,0.3-0.6,0.4-0.9c-4.7-1.5-5.8-6.8-4.6-11.2c-0.3,0-0.7-0.1-1-0.1c0.3,4.5,0.9,9.4,4.4,12.6c0.5,0.4,1.2-0.3,0.7-0.7
				c-3.9-3.8-6.2-9.7-3-14.7c-0.3,0-0.6-0.1-0.9-0.1c0.1,0.8,0.2,1.5,0,2.3c0.3,0,0.6,0,1,0c-0.6-2.2-0.4-4.3,0.8-6.3
				c-0.3,0-0.6-0.1-0.9-0.1c0.6,3.7-0.7,7.4-0.2,11c0.2,1.2,0.5,2.5,1.2,3.6c0.3,0.6,0.7,1,1.2,1.4c0.5,0.4,1.7,0.9,1.8,1.6
				c0.2-0.2,0.4-0.4,0.6-0.6c-0.7-0.1-1.5-0.2-2.2-0.3c-0.3,0-0.8,0.2-0.6,0.6c0.6,1.5,1.5,2.5,2.9,3.2c0-0.3,0-0.6,0-0.9
				c-0.3,0-0.7,0-1,0c-0.1,0.3-0.2,0.6-0.4,0.9c0.4,0.2,0.8,0.4,1.2,0.6c0.1-0.3,0.2-0.6,0.4-0.9c-0.8,0-1.6-1.7-1.9-2.3
				c-0.4-0.8-0.8-1.7-1-2.7c-0.5-1.9-0.6-3.8-0.3-5.6c-0.3,0-0.6,0.1-0.9,0.1c1.2,2.2,1.6,4.5,1,7c0.2-0.1,0.5-0.2,0.7-0.3
				c-0.2-0.3-0.3-0.6-0.5-0.9c-0.3,0.1-0.5,0.3-0.8,0.4c0.6,0.3,1.1,0.7,1.7,1c0.6,0.3,1.1-0.6,0.5-0.9s-1.1-0.7-1.7-1
				c-0.3-0.2-0.8,0-0.8,0.4c0.1,0.8,0.4,1.3,1,1.8c0.3,0.2,0.7,0,0.7-0.3c0.5-2.7,0.2-5.4-1.1-7.8c-0.2-0.3-0.8-0.3-0.9,0.1
				c-0.4,2.5-0.2,5.1,0.7,7.5c0.5,1.4,1.7,4.5,3.5,4.4c0.5,0,0.6-0.6,0.4-0.9c-0.5-0.7-1.1-0.9-1.9-0.9c-0.4,0-0.7,0.6-0.4,0.9
				c0.7,0.7,1.5,0.8,2.3,0.2c0.3-0.2,0.4-0.7,0-0.9c-1.2-0.6-2-1.3-2.4-2.6c-0.2,0.2-0.4,0.4-0.6,0.6c0.7,0.1,1.5,0.2,2.2,0.3
				c0.4,0.1,0.7-0.2,0.6-0.6c-0.2-1.2-1.4-1.5-2.2-2.2c-1.3-1.2-1.8-3.1-2-4.8c-0.3-3.6,0.9-7.1,0.2-10.7c-0.1-0.4-0.7-0.5-0.9-0.1
				c-1.3,2.2-1.7,4.6-0.9,7.1c0.1,0.4,0.9,0.6,1,0c0.1-1,0.1-1.9,0-2.9c-0.1-0.5-0.7-0.4-0.9-0.1c-3.5,5.4-1.1,11.9,3.1,16
				c0.2-0.2,0.5-0.5,0.7-0.7c-3.3-3-3.8-7.5-4.1-11.8c0-0.6-0.8-0.7-1-0.1c-1.4,4.9,0,10.8,5.3,12.4c0.6,0.2,0.8-0.6,0.4-0.9
				c-3.5-2.6-5.3-7.1-4.6-11.5c-0.3,0-0.7-0.1-1-0.1c-0.1,6.1,3.5,11.3,8.1,14.7c0.2,0.1,0.5,0.1,0.6-0.1c0.7-0.8,0.5-1.6-0.3-2.2
				c-1.6-1.3-3.4-2.1-4.8-3.6c-3.2-3.6-4.2-8.9-1.5-13C1039.6,215.4,1038.8,214.9,1038.4,215.5L1038.4,215.5z"/>
		</g>
	</g>
	<g>
		<g>
			<path class="st9" d="M1084.3,223c0.7,4-1.4,7.8-2.9,11.4c-1.3,3-2.6,6-3.7,9.1c-2.2,5.9-3.5,11.9-3.3,18.2
				c0.3,11.4,5,22.7,13.1,30.7c5.3,5.2,11.7,9.1,18.1,12.8c0.4,0.2,0.8-0.4,0.4-0.7c-5.6-3.3-11.3-6.6-16.2-11
				c-4.5-4.1-8.1-9-10.7-14.6c-2.4-5.5-3.8-11.5-3.9-17.4c-0.1-6.3,1.2-12.4,3.5-18.3c1.4-3.7,3-7.3,4.5-10.9c1.2-3,2.5-6.1,1.9-9.4
				C1085,222.3,1084.2,222.5,1084.3,223L1084.3,223z"/>
		</g>
	</g>
	<g>
		<g>
			<path class="st9" d="M1098.4,322.4c0.9-3.9,2.7-7.6,4.6-11.1c1.8-3.2,3.9-6.3,7.2-8c0.4-0.2,0.1-0.9-0.4-0.7
				c-3.3,1.7-5.4,4.6-7.2,7.8c-2.1,3.7-4,7.6-4.9,11.8C1097.5,322.7,1098.3,322.9,1098.4,322.4L1098.4,322.4z"/>
		</g>
	</g>
	<g>
		<g>
			<path class="st9" d="M1120.8,310.9c-1.6,2.1-2.4,4.7-2.1,7.4c0.1,1.2,0.4,2.3,0.9,3.4c0.6,1.4,0.5,2.2,0.1,3.6
				c-0.3,1-0.5,1.9-0.8,2.8c-2.2,7.4-4.8,14.7-7.8,21.8c-0.2,0.4,0.5,0.9,0.6,0.4c2.8-6.8,5.3-13.7,7.5-20.8
				c0.5-1.8,1.1-3.5,1.6-5.4c0.3-1.2-0.1-2-0.6-3.1c-1.4-3.3-0.8-7,1.3-9.8C1121.8,310.9,1121.1,310.4,1120.8,310.9L1120.8,310.9z"
				/>
		</g>
	</g>
	<g>
		<g>
			<path class="st9" d="M1103.7,325.3c1.6-1.6,3.5-2.6,5.6-3c0.5-0.1,0.3-0.8-0.2-0.8c-2.3,0.4-4.3,1.5-6,3.2
				C1102.8,325.1,1103.3,325.6,1103.7,325.3L1103.7,325.3z"/>
		</g>
	</g>
	<g>
		<g>
			<path class="st9" d="M1081.7,285c1.5,0.7,3.6-1.3,4.8-2.2c1.8-1.3,3.3-3,4.5-4.9c0.2-0.4-0.4-0.8-0.6-0.4c-0.9,1.7-2.2,3-3.6,4.2
				c-0.7,0.6-3.6,3.1-4.6,2.6C1081.7,284.2,1081.3,284.8,1081.7,285L1081.7,285z"/>
		</g>
	</g>
	<g>
		<g>
			<path class="st9" d="M1049.6,278.4c-0.7-3.1,3.1-4.1,5.3-3c1.8,1,3,2.8,3.5,4.7c0.5,1.7,0.7,3.6,0.7,5.4c0.1,2.4-1.7,4.4-4.2,3.4
				c-0.4-0.2-0.6,0.6-0.2,0.8c1.9,0.8,4.3-0.2,5-2.2c0.5-1.5,0.1-3.4-0.1-4.9c-0.2-1.5-0.5-3-1.2-4.4c-1.1-2.3-3.4-4.3-6-4.1
				c-2.3,0.1-4.2,2.1-3.6,4.5C1049,279.1,1049.7,278.8,1049.6,278.4L1049.6,278.4z"/>
		</g>
	</g>
	<g>
		<g>
			<path class="st9" d="M1061.5,256.2c0.2,1,0.4,2,0.4,3c0,0.5,0.7,0.5,0.8,0c0-1.1-0.1-2.1-0.4-3.2
				C1062.1,255.5,1061.4,255.7,1061.5,256.2L1061.5,256.2z"/>
		</g>
	</g>
	<g>
		<g>
			<path class="st9" d="M1072.8,308.1c4.6-2.5,8.5-6,11.6-10.3c0.3-0.4-0.4-0.8-0.6-0.4c-3,4.2-6.8,7.6-11.3,10.1
				C1071.9,307.7,1072.3,308.4,1072.8,308.1L1072.8,308.1z"/>
		</g>
	</g>
	<g>
		<g>
			<path class="st9" d="M1071.2,237.8c0.6,7.1-3,13.6-4.1,20.4c-1,6.3,0.1,12.7,3,18.4c0.2,0.4,0.9,0,0.6-0.4
				c-3.2-6.2-4-13.3-2.4-20.1c1.4-6.1,4.2-11.9,3.6-18.3C1071.9,237.3,1071.1,237.3,1071.2,237.8L1071.2,237.8z"/>
		</g>
	</g>
	<path class="st14" d="M1053.8,209.3c-2.2,9.4-7.5,37.2,6.1,65.6c1.9,4,9.3,18.6,24.8,32c8.9,7.7,17.6,12.4,23.9,15.3
		c-1.3,0.8-2.6,1.5-3.9,2.3c-1.5,7.3-2.6,12.7-3.2,15.3c-1.9,9.3-2.8,13.9-1.4,15.1c2.4,1.9,8.5-1.5,12.3-5.3
		c3.4-3.4,4.6-6.9,7.5-15.8c2.6-7.8,4.6-14.4,6.1-19.2c-3.7-2.2-8.7-5.4-14.1-10c-5.3-4.4-12.1-10.1-17.1-18.3
		c-7.1-11.6-8-23.9-7.7-32.2c1.2-2,2.9-5,4.3-8.8c1.3-3.4,7.1-18.7,2.1-28.1C1088.6,207.6,1071.8,203.3,1053.8,209.3z"/>
	<path class="st15" d="M1077.3,218.2c-2.6,7.3-5.9,19.8-4.3,35.3c1.7,16.5,8.1,27.9,12.4,35.3c8.8,15.4,20,25.5,28.2,31.7
		c-0.3,4.1-0.9,8.9-2.2,14.2c-1.9,7.5-4.6,13.6-7,18.2c0.5,0,1.1,0,1.7-0.1c2.3-0.5,3.6-2.2,4.1-2.8c1.4-1.3,3.4-3.4,5.3-6.3
		c2.6-4,3.7-7.7,5.9-14.8c2.4-8.1,4-13.5,4.7-15.7c-5.1-2.7-12.4-7-19.8-13.9c-3.5-3.3-8.2-7.6-12.1-13.9
		c-7.3-11.8-7.9-24.6-7.4-32.8c3-4.3,8.6-13.8,8-26.2c-0.1-3.1-0.6-5.8-1.2-8.2C1088,218.2,1082.7,218.2,1077.3,218.2z"/>
</g>
<g id="hand_r">
	<path class="st10" d="M1042.8,122.9c-5.2-2.1-16.5,15.8-18.2,18.6c-3.5,5.6-8.2,14.2-11.7,25.8c-9.3,2.3-18.5,4.7-27.7,7.1
		c-9.1-5.7-12.1-6.6-12.8-5.7c-0.5,0.6-0.1,2.5,0.6,3.8c0.8,1.4,1.8,1.7,1.7,2.2c-0.1,1.3-5.1,1.4-9.1,2.7c-8.1,2.5-13.7,9.8-13,11
		c1,1.6,15.1-5.4,15.2-5.3c0,0.1-7,1.8-9.5,7.3c-1,2.1-1.5,5.1-0.2,6.2c0.7,0.6,1.9,0.4,6.1-1.3c5.3-2.2,8.7-4.1,8.8-3.9
		c0.2,0.4-10.7,7-10,8.6c0.6,1.3,8.4-1.3,9.3-1.6c6-2,10.7-4.6,13.9-6.7c3.4,1.3,9.5,3.1,17.1,2.4c13.6-1.2,22.3-9.5,24.5-11.7
		c4.6-4.6,7.3-11.5,12.8-25.4c3.2-8.2,7.1-19.7,4.3-30.5C1044.6,125,1044,123.5,1042.8,122.9z"/>
	<g>
		<g>
			<path class="st9" d="M958.6,195.8c2.8-4.1,7.8-5.6,12.2-7.7c0.6-0.3,0.1-1.2-0.5-0.9c-4.5,2.1-9.5,3.7-12.5,8.1
				C957.4,195.8,958.2,196.3,958.6,195.8L958.6,195.8z"/>
		</g>
	</g>
	<g>
		<g>
			<path class="st9" d="M974.7,180.2c2,2.6,5,4,8.3,3.9c0.6,0,0.6-1.1,0-1c-3,0.1-5.7-1.1-7.5-3.5C975,179,974.3,179.7,974.7,180.2
				L974.7,180.2z"/>
		</g>
	</g>
	<g>
		<g>
			<path class="st9" d="M1024.5,141.8c1.6,2.1,3.5,3.8,5.9,5c-0.1-0.2-0.2-0.4-0.2-0.6c-0.7,3.2-1.8,6.2-3.2,9.1
				c-0.3,0.6,0.6,1.1,0.9,0.5c1.5-3,2.6-6.1,3.3-9.3c0-0.2,0-0.5-0.2-0.6c-2.2-1.1-4.1-2.6-5.5-4.6
				C1025,140.8,1024.1,141.3,1024.5,141.8L1024.5,141.8z"/>
		</g>
	</g>
	<g>
		<g>
			<path class="st9" d="M1022.9,186.5c-0.7-5.2,3.5-9.4,8.5-8.8c0.6,0.1,0.6-1,0-1c-5.8-0.7-10.3,4.3-9.5,10.1
				C1022,187.5,1023,187.2,1022.9,186.5L1022.9,186.5z"/>
		</g>
	</g>
	<g>
		<g>
			<path class="st9" d="M993.1,172.6c-0.6,3.4-0.7,6.8-0.3,10.3c0.1,0.7,1.1,0.7,1,0c-0.4-3.4-0.3-6.7,0.3-10
				C994.1,172.2,993.2,171.9,993.1,172.6L993.1,172.6z"/>
		</g>
	</g>
	<path class="st12" d="M1045.8,132c-3.8,5.2-6.3,9.7-8,12.8c-5.7,11-6.9,16.1-12.4,23.5c-2.1,2.8-5.5,6.9-11,11.1
		c-4.2,0.9-10.1,2.2-17.2,4.1c-8.6,2.3-13,3.5-18,5.8c-4.1,1.9-9.9,5-16.2,10.5c3.1-0.3,7.1-0.9,11.5-2.4c5-1.7,8.8-3.9,11.6-5.8
		c2.4,0.9,5.9,2,10.3,2.4c11.1,1,19.5-3.5,22.2-5c2.5-1.4,7.2-4,11.2-9.3c1.2-1.5,2.3-3.3,5.2-9.9c4.6-10.3,7.1-16.2,8.9-24.9
		C1044.7,141.9,1045.5,137.5,1045.8,132z"/>
	<path class="st16" d="M959.5,193.6c0.5-0.6,2-2.4,7-4.4c1.9-0.7,7.1-2.7,7.7-1.5c0.2,0.4,0.1,1.1-1.7,3c-2.3,1.5-5.3,3.2-9.1,4.5
		c-2,0.7-4,1.2-5.7,1.5C958.1,195.9,958.6,194.8,959.5,193.6z"/>
	<path class="st17" d="M1045.1,142.7c-2.2,3.8-5.9,10.5-10.5,18.8c-6.6,12-10.4,17.9-13.5,20.9c-3.7,3.6-13.5,10.9-35.3,8.8
		c3.5,1.3,14.6,4.9,27.2,0.5c9.1-3.2,14.4-8.9,15.7-10.4c1.3-1.5,4-4.7,8.8-16.5C1039.7,159.5,1042.5,151.9,1045.1,142.7z"/>
	<path class="st18" d="M964.9,199.5c4-1.3,8.9-3.2,14.4-5.7c4-1.8,6.5-3.2,6.6-3c0.2,0.3-3.8,3.2-8.4,5.4
		C972.6,198.4,968.1,199.2,964.9,199.5z"/>
</g>
<g id="backbag">
	<path class="st19" d="M1070.9,123.7c1.9-0.6,29.8-9.2,47.4,7.3c19.1,17.8,9.4,49.3,4.8,63.8c-4.8,15.6-11.1,20-14.5,21.7
		c-6.4,3.3-12.6,2.2-18.9,1.2c-10.6-1.6-25.7-3.3-45.2-3.9c2.1-27.4,4.3-54.9,6.4-82.3C1057.7,128.9,1064.3,126.3,1070.9,123.7z"/>
</g>
<g id="tube">
	<path class="st10" d="M1096.2,136.3c7.5,0.1,19.2,1.5,29.4,9.3c6.4,4.9,12.6,12.6,21.4,43.1c11.5,39.8,7.1,47.5,17.7,61.1
		c1.5,1.9,15.6,19.6,37.5,21.8c27.3,2.8,48.3-20.2,62.6-36c24.9-27.3,34.8-58.3,39.1-78.6c4.1,1.3,8.2,2.5,12.3,3.8
		c-13,33.9-28.3,59.3-40.2,76.4c-22.7,32.7-36.1,40.2-44.4,43.6c-6,2.5-26.5,11-48.7,2.2c-20.7-8.2-30.1-26.3-33.2-32.2
		c-3.5-6.7-3.7-9.7-9.1-33.8c-10.4-46.9-14-55.7-21.9-61.1c-4.5-3.1-12.4-6.4-26.2-4.4C1093.7,146.5,1094.9,141.4,1096.2,136.3z"/>
	<g>
		<g>
			<path class="st9" d="M1119,155.4c0.4-3.6,2.4-6.8,5.3-8.7c0.5-0.3,0-1.2-0.5-0.9c-3.3,2.2-5.4,5.6-5.8,9.6
				C1117.9,156.1,1118.9,156.1,1119,155.4L1119,155.4z"/>
		</g>
	</g>
	<g>
		<g>
			<path class="st9" d="M1129.2,168.7c1.7-3.2,4.4-5.5,7.9-6.5c0.6-0.2,0.4-1.2-0.3-1c-3.7,1-6.7,3.5-8.5,7
				C1128,168.8,1128.8,169.3,1129.2,168.7L1129.2,168.7z"/>
		</g>
	</g>
	<g>
		<g>
			<path class="st9" d="M1127.3,160.6c1.4-2.5,3.8-4.2,6.6-4.6c0.6-0.1,0.6-1.1,0-1c-3.2,0.4-5.9,2.2-7.5,5.1
				C1126.1,160.7,1127,161.2,1127.3,160.6L1127.3,160.6z"/>
		</g>
	</g>
	<g>
		<g>
			<path class="st9" d="M1136.4,193.7c2.1-3,5.5-4.6,9.1-4.5c0.6,0,0.6-1,0-1c-4-0.2-7.7,1.7-10,5
				C1135.2,193.8,1136,194.3,1136.4,193.7L1136.4,193.7z"/>
		</g>
	</g>
	<g>
		<g>
			<path class="st9" d="M1135.1,182.7c1.7-2.9,5-3.8,8.1-4.3c0.6-0.1,0.4-1.1-0.3-1c-3.4,0.5-6.8,1.7-8.7,4.7
				C1133.9,182.7,1134.8,183.2,1135.1,182.7L1135.1,182.7z"/>
		</g>
	</g>
	<g>
		<g>
			<path class="st9" d="M1131.4,176.8c1.7-2.8,4.6-4.5,7.8-4.6c0.6,0,0.6-1.1,0-1c-3.6,0.1-6.8,2-8.6,5.1
				C1130.2,176.8,1131,177.4,1131.4,176.8L1131.4,176.8z"/>
		</g>
	</g>
	<g>
		<g>
			<path class="st9" d="M1141,216.7c2.8-3.1,6.7-4.7,10.9-4.6c0.6,0,0.6-1,0-1c-4.4-0.2-8.6,1.6-11.6,4.9
				C1139.8,216.4,1140.6,217.2,1141,216.7L1141,216.7z"/>
		</g>
	</g>
	<g>
		<g>
			<path class="st9" d="M1139.6,210.4c2.6-3.2,6.4-4.9,10.5-4.5c0.6,0.1,0.6-1,0-1c-4.3-0.4-8.4,1.4-11.2,4.8
				C1138.5,210.2,1139.2,210.9,1139.6,210.4L1139.6,210.4z"/>
		</g>
	</g>
	<g>
		<g>
			<path class="st9" d="M1138.1,203.5c1.9-2.3,4.5-3.7,7.4-4c0.6-0.1,0.6-1.1,0-1c-3.2,0.3-6,1.8-8.1,4.3
				C1137,203.3,1137.7,204.1,1138.1,203.5L1138.1,203.5z"/>
		</g>
	</g>
	<g>
		<g>
			<path class="st9" d="M1141,197.9c2.1-1.5,4.5-2.1,7-1.8c0.6,0.1,0.6-1,0-1c-2.7-0.3-5.3,0.4-7.5,2
				C1140,197.4,1140.5,198.3,1141,197.9L1141,197.9z"/>
		</g>
	</g>
	<g>
		<g>
			<path class="st9" d="M1151.4,253.1c2-3.5,5.1-6,8.8-7.2c0.6-0.2,0.4-1.2-0.3-1c-4,1.2-7.3,3.9-9.4,7.6
				C1150.2,253.1,1151.1,253.7,1151.4,253.1L1151.4,253.1z"/>
		</g>
	</g>
	<g>
		<g>
			<path class="st9" d="M1147.2,244c2.1-3.5,5.6-5.8,9.7-6.1c0.6,0,0.6-1.1,0-1c-4.4,0.3-8.3,2.8-10.5,6.6
				C1146,244,1146.9,244.5,1147.2,244L1147.2,244z"/>
		</g>
	</g>
	<g>
		<g>
			<path class="st9" d="M1144.6,232.4c2.4-3.3,6.3-5.1,10.3-4.7c0.6,0.1,0.6-1,0-1c-4.4-0.4-8.6,1.6-11.2,5.2
				C1143.3,232.5,1144.2,233,1144.6,232.4L1144.6,232.4z"/>
		</g>
	</g>
	<g>
		<g>
			<path class="st9" d="M1147.6,235c2.6-1.9,5.5-2.8,8.6-2.8c0.6,0,0.6-1,0-1c-3.3,0-6.4,0.9-9.1,2.9
				C1146.6,234.4,1147.1,235.3,1147.6,235L1147.6,235z"/>
		</g>
	</g>
	<g>
		<g>
			<path class="st9" d="M1186.2,268.2c0.7,2.2,1,4.4,0.9,6.7c-0.1,2.1-0.4,4.8-2.2,6.2c-0.5,0.4,0.2,1.1,0.7,0.7
				c1.7-1.4,2.1-3.7,2.4-5.8c0.3-2.8,0-5.5-0.8-8.2C1187,267.3,1186,267.6,1186.2,268.2L1186.2,268.2z"/>
		</g>
	</g>
	<g>
		<g>
			<path class="st9" d="M1198.3,273.2c1.5,3.5,1.2,7.4-0.8,10.6c-0.3,0.6,0.5,1.1,0.9,0.5c2.2-3.5,2.5-7.8,0.8-11.6
				C1199,272.1,1198.1,272.6,1198.3,273.2L1198.3,273.2z"/>
		</g>
	</g>
	<g>
		<g>
			<path class="st9" d="M1219.8,270.8c2.8,3.5,3.4,8.1,2,12.3c-0.2,0.6,0.7,0.9,1,0.3c1.7-4.5,0.8-9.6-2.2-13.3
				C1220.1,269.5,1219.4,270.2,1219.8,270.8L1219.8,270.8z"/>
		</g>
	</g>
	<g>
		<g>
			<path class="st9" d="M1267.1,234.1c2.3,0.9,3.7,3,4.1,5.4c0.1,0.7,1.1,0.4,1-0.3c-0.4-2.8-2.3-5.1-4.8-6.2
				C1266.8,232.8,1266.5,233.8,1267.1,234.1L1267.1,234.1z"/>
		</g>
	</g>
	<g>
		<g>
			<path class="st9" d="M1284.8,209.2c2.2,0.9,3.9,2.7,4.7,5c0.2,0.6,1.2,0.3,1-0.3c-0.9-2.7-2.8-4.7-5.4-5.7
				C1284.5,208,1284.3,209,1284.8,209.2L1284.8,209.2z"/>
		</g>
	</g>
	<g>
		<g>
			<path class="st9" d="M1242.6,257.8c2.5,3.4,3.6,7.6,2.9,11.8c-0.1,0.7,0.9,0.9,1,0.3c0.7-4.5-0.3-8.9-3-12.6
				C1243.1,256.8,1242.2,257.3,1242.6,257.8L1242.6,257.8z"/>
		</g>
	</g>
	<g>
		<g>
			<path class="st9" d="M1232.9,265.7c2.6,3,5.3,6.7,3.8,10.9c-0.2,0.6,0.8,0.9,1,0.3c1.6-4.6-1.3-8.6-4.1-11.9
				C1233.2,264.5,1232.5,265.2,1232.9,265.7L1232.9,265.7z"/>
		</g>
	</g>
	<g>
		<g>
			<path class="st9" d="M1161,266.6c0.9-3.8,3.4-6.8,6.8-8.5c0.6-0.3,0.1-1.2-0.5-0.9c-3.6,1.8-6.3,5.1-7.3,9.1
				C1159.9,267,1160.9,267.3,1161,266.6L1161,266.6z"/>
		</g>
	</g>
	<g>
		<g>
			<path class="st9" d="M1166.9,272.6c2-4.1,5-7.5,8.9-9.8c0.6-0.3,0.1-1.2-0.5-0.9c-4.1,2.4-7.3,5.9-9.3,10.2
				C1165.7,272.6,1166.6,273.2,1166.9,272.6L1166.9,272.6z"/>
		</g>
	</g>
	<g>
		<g>
			<path class="st9" d="M1156.8,258.3c1.2-2.4,3.2-4.3,5.7-5.3c0.6-0.2,0.3-1.2-0.3-1c-2.7,1.1-5,3.1-6.3,5.8
				C1155.6,258.3,1156.5,258.9,1156.8,258.3L1156.8,258.3z"/>
		</g>
	</g>
	<g>
		<g>
			<path class="st9" d="M1255.2,246.6c3.5,1.2,6,4.1,6.9,7.7c0.1,0.7,1.1,0.4,1-0.3c-0.9-4-3.7-7.2-7.5-8.5
				C1254.9,245.4,1254.6,246.4,1255.2,246.6L1255.2,246.6z"/>
		</g>
	</g>
	<g>
		<g>
			<path class="st9" d="M1261.5,243.7c1.6,0.9,2.8,2.3,3.4,4.1c0.2,0.6,1.2,0.3,1-0.3c-0.7-2-2-3.7-3.9-4.7
				C1261.5,242.5,1261,243.4,1261.5,243.7L1261.5,243.7z"/>
		</g>
	</g>
	<g>
		<g>
			<path class="st9" d="M1273.4,226.2c1.8,0.7,3.3,1.9,4.5,3.5c0.4,0.6,1.2,0,0.9-0.5c-1.3-1.9-3-3.2-5.1-4
				C1273.1,225,1272.8,226,1273.4,226.2L1273.4,226.2z"/>
		</g>
	</g>
	<g>
		<g>
			<path class="st9" d="M1293.3,190.6c2.8,0.5,5.3,2,6.9,4.3c0.4,0.5,1.2,0,0.9-0.5c-1.8-2.5-4.5-4.3-7.5-4.8
				C1292.9,189.5,1292.6,190.5,1293.3,190.6L1293.3,190.6z"/>
		</g>
	</g>
	<g>
		<g>
			<path class="st9" d="M1212.1,274.4c1.5,2.9,1.7,6.1,0.5,9.1c-0.2,0.6,0.7,0.9,1,0.3c1.2-3.3,1-6.8-0.6-9.9
				C1212.7,273.3,1211.8,273.9,1212.1,274.4L1212.1,274.4z"/>
		</g>
	</g>
	<g>
		<g>
			<path class="st9" d="M1253.8,254.4c1.9,1.9,2.9,4.3,2.8,7c0,0.7,1,0.7,1,0c0.1-2.9-1-5.6-3.1-7.7
				C1254,253.2,1253.3,254,1253.8,254.4L1253.8,254.4z"/>
		</g>
	</g>
	<path class="st15" d="M1094.3,140.7c11.8,3.5,28.6,10.6,39.1,26.6c10,15.2,6,25,14.5,54.4c6.2,21.5,12.1,41.8,29.3,51.8
		c21.9,12.7,48.9,0.8,53.8-1.5c13.5-6.3,21.9-16,34.8-31c9.6-11.1,15.9-20.8,18.9-25.7c7.5-12.1,17.3-31,23.7-56.5
		c2.5,0.7,5,1.4,7.5,2.1c-4.6,13.2-9.4,23.9-13.1,31.5c-7.7,15.8-14.8,26.3-28.9,47.3c-5.5,8.2-9.5,13.8-15.5,20.2
		c-5.5,5.9-10.2,11-17.5,15.8c-4.6,3-19.3,12.2-39.4,11c-11.5-0.7-19.9-4.4-22.7-5.8c-2.4-1.2-14.5-7.2-24.2-21.3
		c-6.6-9.6-8.9-19.4-13.4-39.1c-3.9-17-4.3-24.9-9.8-42.5c-4-12.8-6.4-17-10.1-20.5c-9.5-9.2-22.9-9.3-28.9-8.9
		C1093.1,145.9,1093.7,143.3,1094.3,140.7z"/>
</g>
<g id="torso">
	<path class="st10" d="M1040.2,123.9c-4.4,5.6-4.5,17.4-4.8,41c-0.1,7.7,0.1,14,0.3,18.3c-4.7,7-9.3,14-14,21
		c4.9,3.8,11,7.8,18.5,11.1c22.4,10,43.5,7.8,54,6c4.4-12.6,7.5-23.2,9.6-30.9c9.9-36.3,7.8-46.1,4.7-52.7
		c-3.2-6.8-7.8-10.7-9.9-12.5C1081.4,110.5,1051,110,1040.2,123.9z"/>
	<g>
		<g>
			<path class="st9" d="M1042.8,190.1c0.9,0.9,1.9,1.5,3,2c0.6,0.2,0.9-0.8,0.3-1c-1-0.4-1.8-1-2.6-1.8
				C1043.1,188.9,1042.4,189.6,1042.8,190.1L1042.8,190.1z"/>
		</g>
	</g>
	<g>
		<g>
			<path class="st9" d="M1035.4,179.4c-0.1,2.7,0.7,5.3,2.3,7.5c0.3,0.4,0.9,0,0.6-0.4c-1.5-2.1-2.3-4.5-2.2-7.1
				C1036.2,178.9,1035.4,178.9,1035.4,179.4L1035.4,179.4z"/>
		</g>
	</g>
	<g>
		<g>
			<path class="st9" d="M1075.2,175.6c-0.2,1-1,3-0.5,4c0.6,1,2.6,1.1,3.6,1.3c3.3,0.7,6.7,0.9,10.1,0.7c6.9-0.4,13.5-2.8,19.2-6.7
				c0.4-0.3,0-1-0.4-0.7c-4.9,3.4-10.6,5.6-16.5,6.4c-2.9,0.4-5.8,0.4-8.6,0.1c-1.6-0.2-3.2-0.4-4.7-0.8c-1.1-0.3-1.9-0.1-2-1.8
				c0-0.7,0.3-1.6,0.4-2.3C1076.1,175.3,1075.3,175.1,1075.2,175.6L1075.2,175.6z"/>
		</g>
	</g>
	<g>
		<g>
			<path class="st9" d="M1030,192c4.1,4.4,8.8,8,14.3,10.6c0.4,0.2,0.8-0.4,0.4-0.7c-5.3-2.5-10.1-6-14.1-10.4
				C1030.2,191,1029.7,191.6,1030,192L1030,192z"/>
		</g>
	</g>
	<g>
		<g>
			<path class="st9" d="M1043.9,146.3c-1.1,0.1-2.1-1.9-2.3-2.7c-0.4-1.2-0.3-2.6,0.2-3.8c0.9-2.4,3.5-3.9,6-3
				c2.3,0.9,3.5,3.6,2.7,6c-0.4,1.3-1.5,2.4-2.7,3c-1.1,0.5-3,1.1-4.2,0.4c-0.4-0.2-0.8,0.4-0.4,0.7c1.4,0.8,3.4,0.2,4.8-0.4
				c1.3-0.6,2.4-1.6,3-3c1.2-2.8,0-6.2-2.8-7.4c-3-1.3-6.2,0.6-7.2,3.6c-0.5,1.5-0.5,3.1,0.1,4.6c0.4,1.1,1.6,2.9,2.9,2.7
				C1044.4,147.1,1044.4,146.3,1043.9,146.3L1043.9,146.3z"/>
		</g>
	</g>
	<g>
		<g>
			<path class="st9" d="M1035.5,171.3c4.2,3.4,9.2,5.2,14.6,5.1c0.5,0,0.5-0.8,0-0.8c-5.1,0.1-10-1.6-14-4.9
				C1035.7,170.4,1035.1,170.9,1035.5,171.3L1035.5,171.3z"/>
		</g>
	</g>
	<g>
		<g>
			<path class="st9" d="M1054.5,195.3c9.2,3.3,18.8,4.8,28.5,4.4c0.5,0,0.5-0.8,0-0.8c-9.6,0.4-19.2-1.1-28.3-4.4
				C1054.2,194.4,1054,195.1,1054.5,195.3L1054.5,195.3z"/>
		</g>
	</g>
	<g>
		<g>
			<path class="st9" d="M1084.5,219.3c-0.1,1-0.4,1.9-0.7,2.9c-0.2,0.5,0.6,0.7,0.7,0.2c0.3-0.9,0.6-1.9,0.7-2.9
				C1085.4,219,1084.6,218.8,1084.5,219.3L1084.5,219.3z"/>
		</g>
	</g>
	<g>
		<g>
			<path class="st9" d="M1088.2,219.1c0,0.8-0.2,1.6-0.5,2.3c-0.2,0.4,0.4,0.8,0.6,0.4c0.4-0.9,0.7-1.8,0.6-2.8
				C1089,218.6,1088.2,218.6,1088.2,219.1L1088.2,219.1z"/>
		</g>
	</g>
	<g>
		<g>
			<path class="st9" d="M1092,218.5c0,0.7-0.2,1.3-0.5,1.9c-0.3,0.4,0.4,0.8,0.6,0.4c0.4-0.7,0.6-1.5,0.6-2.3
				C1092.7,218,1092,218,1092,218.5L1092,218.5z"/>
		</g>
	</g>
	<g>
		<g>
			<path class="st9" d="M1063,144.7c-0.4,3.3-0.8,6.6-1.2,10c-0.1,0.7-0.4,1.8,0,2.3c0.6,0.8,2.1,0.7,2.9,0.8c6.1,1,12.2,1.6,18.3,2
				c0.5,0,0.5-0.8,0-0.8c-5.4-0.4-10.8-0.9-16.2-1.7c-0.6-0.1-1.3-0.2-2-0.3c-0.5-0.1-1.5,0-2-0.3c-1.1-0.7-0.3-3-0.2-4.1
				c0.3-2.7,0.6-5.3,0.9-8C1063.8,144.2,1063.1,144.2,1063,144.7L1063,144.7z"/>
		</g>
	</g>
	<g>
		<g>
			<path class="st9" d="M1063.6,144.7c5.9-1,11.8-0.3,17.7,0.7c1.3,0.2,3.5,0.1,3.9,1.7c0.3,1.1-0.1,2.7-0.2,3.8
				c-0.3,2.9-0.9,5.7-1.8,8.5c-0.1,0.5,0.6,0.7,0.7,0.2c1-3.1,1.7-6.4,1.9-9.7c0.1-1.1,0.4-2.7,0-3.8c-0.4-0.9-1.2-0.9-2-1.1
				c-6.7-1.2-13.5-2.2-20.3-1C1062.9,144,1063.1,144.8,1063.6,144.7L1063.6,144.7z"/>
		</g>
	</g>
	<g>
		<g>
			<path class="st9" d="M1063.2,148.8c7.4-1.3,14.9-0.6,21.9,2c0.5,0.2,0.6-0.6,0.2-0.8c-7.2-2.7-14.8-3.3-22.3-2
				C1062.5,148.2,1062.7,148.9,1063.2,148.8L1063.2,148.8z"/>
		</g>
	</g>
	<g>
		<g>
			<path class="st9" d="M1073.6,152.1c-0.3,2-0.5,4.1-0.7,6.1c-0.1,0.5,0.7,0.5,0.8,0c0.2-2,0.4-4,0.7-5.9
				C1074.4,151.8,1073.7,151.6,1073.6,152.1L1073.6,152.1z"/>
		</g>
	</g>
	<g>
		<g>
			<path class="st9" d="M1073.9,152.5c3.3,0.6,6.7,1.2,10,1.8c0.5,0.1,0.7-0.7,0.2-0.8c-3.3-0.6-6.7-1.2-10-1.8
				C1073.7,151.6,1073.5,152.4,1073.9,152.5L1073.9,152.5z"/>
		</g>
	</g>
	<g>
		<g>
			<path class="st9" d="M1064.9,205.6c-0.2,2.7-1.3,5.3-2.1,7.8c-0.8,2.5-1.7,5.1-2.7,7.6c-0.2,0.5,0.6,0.7,0.7,0.2
				c1-2.7,2-5.5,2.9-8.3c0.8-2.4,1.8-4.9,1.9-7.4C1065.6,205.1,1064.9,205.1,1064.9,205.6L1064.9,205.6z"/>
		</g>
	</g>
	<g>
		<g>
			<path class="st9" d="M1065.2,205.5c5.9,1.1,11.9,1.8,17.9,2c-0.1-0.1-0.3-0.3-0.4-0.4c0.2,5.3-0.8,10.5-3,15.3
				c-0.2,0.4,0.4,0.8,0.6,0.4c2.3-4.9,3.3-10.3,3.1-15.7c0-0.2-0.2-0.4-0.4-0.4c-5.9-0.3-11.9-0.9-17.7-2
				C1064.9,204.7,1064.7,205.4,1065.2,205.5L1065.2,205.5z"/>
		</g>
	</g>
	<g>
		<g>
			<path class="st9" d="M1063.4,213.6c5.7,2.3,11.9,3.1,18.1,2.3c0.5-0.1,0.5-0.8,0-0.8c-6.1,0.8-12.2,0-17.9-2.3
				C1063.2,212.7,1063,213.4,1063.4,213.6L1063.4,213.6z"/>
		</g>
	</g>
	<g>
		<g>
			<path class="st9" d="M1075.6,212.1c-0.2,1.1-0.4,2.1-0.6,3.2c-0.1,0.5,0.6,0.7,0.7,0.2c0.2-1.1,0.4-2.1,0.6-3.2
				C1076.4,211.9,1075.7,211.7,1075.6,212.1L1075.6,212.1z"/>
		</g>
	</g>
	<g>
		<g>
			<path class="st9" d="M1065.1,219.8c-0.3,0-0.3-0.5-0.3-0.7c0.1-0.3,0.2-0.5,0.5-0.6c0.5-0.3,1-0.2,1.3,0.3c0.6,1-0.6,2-1.5,1.3
				c-0.4-0.3-0.9,0.2-0.5,0.6c0.7,0.6,1.8,0.6,2.5-0.1c0.7-0.7,0.5-2-0.2-2.6c-0.8-0.7-1.9-0.4-2.5,0.4c-0.6,0.8-0.3,2.1,0.7,2.3
				C1065.6,220.6,1065.6,219.9,1065.1,219.8L1065.1,219.8z"/>
		</g>
	</g>
	<g>
		<g>
			<path class="st9" d="M1070.9,220.3c-0.5-0.1-0.8-0.7-0.5-1.1c0.3-0.5,1-0.5,1.4-0.1c0.3,0.3,0.5,0.9,0,1.2
				c-0.3,0.2-0.8,0.2-1.2,0.2c-0.5,0-0.5,0.8,0,0.8c0.7,0,1.7-0.1,2.1-0.8c0.4-0.9-0.1-1.9-0.9-2.2c-0.8-0.3-1.8,0-2.1,0.9
				c-0.3,0.9,0.2,1.9,1.1,2C1071.1,221.2,1071.3,220.4,1070.9,220.3L1070.9,220.3z"/>
		</g>
	</g>
	<g>
		<g>
			<path class="st9" d="M1076.5,220.6c-1.1-0.3-0.5-1.9,0.5-1.5c0.4,0.1,0.6,0.7,0.5,1c-0.1,0.5-0.7,0.8-1.1,0.7
				c-0.5-0.1-0.7,0.7-0.2,0.8c0.9,0.2,1.8-0.3,2.1-1.2c0.2-0.8-0.3-1.8-1-2c-0.8-0.2-1.7,0.2-2,1c-0.3,0.9,0.3,1.8,1.1,2
				C1076.7,221.5,1076.9,220.8,1076.5,220.6L1076.5,220.6z"/>
		</g>
	</g>
	<g>
		<g>
			<path class="st9" d="M1080.8,124.2c5,2.1,9.7,5,13.8,8.6c0.5,0.4,1.2-0.3,0.7-0.7c-4.3-3.7-9.1-6.7-14.3-8.9
				C1080.4,123,1080.2,124,1080.8,124.2L1080.8,124.2z"/>
		</g>
	</g>
	<g>
		<g>
			<path class="st9" d="M1081.1,123.6c0.6-0.6,1.3-1.4,2.1-1.8c1.2-0.6,2.1-0.2,3.2,0.3c1.2,0.6,2.3,1.3,3.3,2.1
				c2.4,1.8,4.5,3.9,6.7,6.1c0.5,0.5,1.2-0.3,0.7-0.7c-2.7-2.7-5.4-5.5-8.7-7.5c-1.1-0.7-2.9-1.9-4.3-1.8c-1.4,0.1-2.8,1.6-3.7,2.5
				C1080,123.3,1080.7,124,1081.1,123.6L1081.1,123.6z"/>
		</g>
	</g>
	<g>
		<g>
			<path class="st9" d="M1095.4,132.8c0.5-0.7,1.1-1.4,1.7-2.1c0.4-0.5-0.3-1.2-0.7-0.7c-0.6,0.8-1.2,1.5-1.8,2.3
				c-0.2,0.2,0,0.6,0.2,0.7C1095,133.2,1095.2,133,1095.4,132.8L1095.4,132.8z"/>
		</g>
	</g>
	<path class="st20" d="M1041.4,125.1c4.6,1.3,9.5,2.5,14.6,3.6c6.3,1.3,12.2,2.3,17.8,3.1c-5.4,30.9-7.2,42.5-7.9,47
		c-0.1,0.8-0.8,5.9-1.9,12.6c-0.3,2.1-0.6,3.8-0.7,4.8c-1.6,0.1-3.1,0.2-4.7,0.3c-4,6.7-8,13.4-12,20c4.5,2,10.3,4.1,17.2,5.2
		c12.7,2.2,23.4,0.5,30.1-1.2c1.2-3.4,2.9-8.6,5-15c10.1-31.5,11-40.1,11.2-44.1c0.7-11,1.1-17.9-2.7-25.6
		c-7.7-15.6-29-20.3-30-20.5C1058.1,112.1,1043.9,123.1,1041.4,125.1z"/>
	<path class="st21" d="M1035.7,183.4c-0.2,0.1,0.4,4.2,3.5,6.5c1.4,1,2.9,1.4,3,1.3c0.1-0.2-1.9-1.2-3.9-3.4
		C1036.3,185.4,1035.8,183.4,1035.7,183.4z"/>
	<path class="st22" d="M1054.5,195.2c2,1.7,5.1,3.9,9.3,5.3c9.2,3.1,17.3,0.3,20-0.8c-4,0.2-9.1,0.2-14.8-0.7
		C1063.2,198.1,1058.3,196.6,1054.5,195.2z"/>
	<path class="st23" d="M1107.6,145.8c-2.8,15.9-6.1,28.9-8.8,38.2c-5.4,18.6-8.5,23-11.5,26c-10.2,10.4-25.2,10.7-31.9,10.4
		c5,1.1,11.1,2.1,18.1,2.3c8,0.3,15-0.4,20.7-1.4c4.2-11.2,7-20.8,9.1-28.3c5.8-22,5.9-31.9,5.5-38.2
		C1108.4,151,1107.9,147.9,1107.6,145.8z"/>
</g>
<g id="hand_l">
	<path class="st10" d="M1101,126.4c5.5,0.3,8.9,11.5,11,18.5c2.4,7.8,7.7,25.5-0.4,43.5c-4.9,10.9-12.8,17.7-21.1,24.7
		c-4.9,4.2-9.3,7.2-12.4,9.2c0.2,1.3,0.7,6.6-2.7,11.5c-4.3,6.3-11.3,6.9-12.3,7c4.2-5.6,4.8-6.8,4.7-7c-0.2-0.2-2.3,2.9-5.6,4.2
		c-3.5,1.3-7.2,0.2-9.6-0.8c1.8-0.8,4.4-2.2,6.8-4.7c1.4-1.5,2.5-3.2,2.3-3.4c-0.4-0.4-3,2.8-6.7,3c-2.3,0.1-4.3-1.1-5.4-2
		c1.4-0.2,4.6-0.9,7.4-3.6c1.7-1.6,2.6-3.3,3.2-4.4c-0.9-0.2-1.9-0.4-3-0.5c-2.6-0.2-4.7,0.2-6.2,0.6c3.3-4.4,6.7-6.4,9.2-7.3
		c4.3-1.7,7.1-1,11.2-3.6c2.4-1.5,3.8-3.3,5.4-5.5c8.1-11.5,14-19.7,14.6-30.6c0.6-11-4.8-11.5-4.5-22.6
		C1087.1,139.6,1094.8,126.1,1101,126.4z"/>
	<g>
		<g>
			<path class="st9" d="M1053.2,237.5c4.1,1,9.4-1.9,11.9-5.1c0.4-0.5-0.3-1.2-0.7-0.7c-2.3,2.9-7.2,5.7-10.9,4.9
				C1052.9,236.4,1052.6,237.4,1053.2,237.5L1053.2,237.5z"/>
		</g>
	</g>
	<g>
		<g>
			<path class="st9" d="M1091.3,168.4c3.3-4,8.5-5,13.4-5.3c0.5,0,0.5-0.8,0-0.8c-5.1,0.4-10.4,1.3-13.9,5.5
				C1090.5,168.2,1091,168.7,1091.3,168.4L1091.3,168.4z"/>
		</g>
	</g>
	<g>
		<g>
			<path class="st9" d="M1104.4,163.2c0.6,3.1,0.7,6.1,0.4,9.3c-0.1,0.5,0.7,0.5,0.8,0c0.4-3.2,0.2-6.3-0.4-9.5
				C1105,162.5,1104.3,162.7,1104.4,163.2L1104.4,163.2z"/>
		</g>
	</g>
	<g>
		<g>
			<path class="st9" d="M1091.5,176.9c3.7-3.1,8.4-3.7,13-4.2c0.5,0,0.5-0.8,0-0.8c-4.8,0.5-9.7,1.1-13.6,4.4
				C1090.6,176.7,1091.1,177.2,1091.5,176.9L1091.5,176.9z"/>
		</g>
	</g>
	<g>
		<g>
			<path class="st9" d="M1091.6,171.7c3.6-3.5,8.3-5.3,13.2-5.3c0.5,0,0.5-0.8,0-0.8c-5.1-0.1-10,1.9-13.7,5.5
				C1090.8,171.5,1091.3,172.1,1091.6,171.7L1091.6,171.7z"/>
		</g>
	</g>
	<g>
		<g>
			<path class="st9" d="M1109.7,141c0.2,0.7,0.6,1.2,1.1,1.7c0.4,0.3,0.9-0.2,0.5-0.6c-0.4-0.4-0.7-0.9-0.9-1.4
				C1110.3,140.3,1109.6,140.5,1109.7,141L1109.7,141z"/>
		</g>
	</g>
	<g>
		<g>
			<path class="st9" d="M1114.1,178.5c-6.4,2.8-9.4,10.2-7,16.8c0.2,0.4,0.9,0.3,0.7-0.2c-2.3-6.4,0.5-13.2,6.6-15.9
				C1114.9,179,1114.6,178.3,1114.1,178.5L1114.1,178.5z"/>
		</g>
	</g>
	<g>
		<g>
			<path class="st9" d="M1075.4,207.6c1.2,2.2,2.3,4.9,4,6.7c1.5,1.5,3.5,2.4,5.5,3c0.5,0.1,0.7-0.6,0.2-0.8
				c-2.1-0.6-4.1-1.5-5.5-3.2c-1.5-1.8-2.5-4.1-3.6-6.2C1075.9,206.8,1075.2,207.2,1075.4,207.6L1075.4,207.6z"/>
		</g>
	</g>
	<g>
		<g>
			<path class="st9" d="M1090.6,203.4c1.4,1.8,2.9,3.4,4.7,4.9c0.4,0.3,0.9-0.2,0.5-0.6c-1.7-1.5-3.3-3.1-4.7-4.9
				C1090.9,202.4,1090.3,203,1090.6,203.4L1090.6,203.4z"/>
		</g>
	</g>
	<g>
		<g>
			<path class="st9" d="M1091.4,203.1c0.4-0.6,0.9-1.5,1.5-1.9c1-0.7,1.4,0,2.2,0.5c1.4,0.9,2.6,1.9,3.9,3c0.4,0.3,0.9-0.2,0.5-0.6
				c-0.9-0.8-1.9-1.5-2.8-2.3c-0.8-0.6-1.9-1.7-2.8-1.9c-1.4-0.3-2.5,1.8-3.1,2.7C1090.5,203.1,1091.1,203.5,1091.4,203.1
				L1091.4,203.1z"/>
		</g>
	</g>
	<path class="st24" d="M1092.4,132.8c3.2,3.5,10.2,12.1,12.5,25.1c2.1,12.1-1.1,21.6-2.9,27.1c-6.8,20.2-21.9,31-27.5,34.5
		c-0.5,1.8-1.1,4.4-1.9,7.6c-1.1,4.5-1.1,5.1-1.7,6.3c-2.3,5.1-6.8,6.8-6.6,7.2c0.3,0.5,7.6-1.1,11.6-7.2c3-4.7,2.6-9.7,2.4-11.5
		c5.3-3.1,11.2-7.2,17.1-12.7c5.4-5.1,11-10.4,15.4-19.4c4.3-8.8,5.1-16.7,5.4-20.6c0.5-8.1-1-14-2.4-19.8
		c-2.4-9.5-5.6-21.8-12-22.6C1100.5,126.8,1097.2,126.8,1092.4,132.8z"/>
	<path class="st21" d="M1112.8,183.3c-4.7,8.1-9.5,14.1-13.3,18.3c-6.9,7.6-12.9,14-22.1,15.4c-2.5,0.4-4.6,0.3-6.1,0.1
		c1.1,0.4,3.4,1.4,4.7,3.7c1.8,3.2,0.4,6.9-0.6,9.5c-1.8,4.5-4.8,7.4-6.9,8.9c1.5-0.6,3.9-1.9,5.9-4.2c4.7-5.4,4-12.1,3.9-13.5
		c7.7-4.4,13.3-9.1,17.2-12.7c4.9-4.6,10.2-9.5,14.2-17.8C1111.2,188,1112.2,185.2,1112.8,183.3z"/>
</g>
<g id="head">
	<path class="st10" d="M1034.5,89.3c-1.8,7.7,1.7,14.1,4.5,19.3c2.8,5.1,5.1,9.4,10.2,11.4c0.5,0.2,7.2,2.8,13.6-0.8
		c7.1-4,8.2-12.5,8.7-16.4c0.4-3,1.5-11.5-3.9-18.5c-5.8-7.5-17.6-11.4-25.7-6.4C1036.4,81.5,1034.9,88,1034.5,89.3z"/>
	<path class="st9" d="M1032,100.9c-0.2-2.3-1.3-15.9,7.9-21.5c8.2-5.1,18,0.3,19.5,1.1c7.7,4.3,11.7,12.7,11.8,20.3
		c0,1.8,0.2,9.9-5.3,14.7c-2.8,2.4-5.9,3-10,3.8c-6,1.1-11.1,0.6-14.5,0c0.2,2,0.4,4,0.6,6c7.1,1.5,13,1.5,17.1,1.2
		c5.7-0.4,10.1-1.5,13-2.3c5.1-1.3,9.3-3,12.4-4.4c0.7-3.9,1.4-9.6,1.4-16.4c0-9.6,0.1-16-3.1-22.9c-1.3-2.8-6-13-17.3-16.9
		c-12.8-4.4-23.8,2.9-25.7,4.2c-2.6,1.8-8.9,6.7-11.8,15.8c-0.4,1.3-2.6,8.5-0.4,17.2c3.4,13.5,14.7,21.1,15.2,20.7
		C1041.1,119.8,1033,112.7,1032,100.9z"/>
	<g id="Layer_5">
		<path class="st25" d="M1039.4,100.6c0,0,6.6,2.4,12.6,1s10.2-3.7,14-8.2c0,0-2.2,18.1-12,18.8
			C1044.3,112.8,1039.4,100.6,1039.4,100.6z"/>
		
			<ellipse transform="matrix(1.770718e-02 -0.9998 0.9998 1.770718e-02 934.7117 1134.71)" class="st25" cx="1044.8" cy="91.6" rx="3.2" ry="2"/>
		<path class="st25" d="M1057.9,91.3c1,0,2.2,0.5,3.1,0.9c-0.2-2.2-1.5-4.2-2.9-4.3c-1.6-0.2-3.3,1.9-3.6,4.3
			C1055.4,91.8,1056.8,91.3,1057.9,91.3z"/>
	</g>
</g>
</svg>
