<?xml version="1.0" encoding="utf-8"?>
<!-- Generator: Adobe Illustrator 22.0.1, SVG Export Plug-In . SVG Version: 6.00 Build 0)  -->
<svg version="1.1" id="Layer_1" xmlns="http://www.w3.org/2000/svg" xmlns:xlink="http://www.w3.org/1999/xlink" x="0px" y="0px"
	 viewBox="0 0 573.7 604.5" style="enable-background:new 0 0 573.7 604.5;" xml:space="preserve">
<style type="text/css">
	.st0{fill:#FFFFFF;}
	.st1{opacity:0.5;fill:#5D84C3;enable-background:new    ;}
	.st2{opacity:0.5;}
	.st3{fill:#6EC5A4;}
	.st4{opacity:0.5;fill:#F16046;enable-background:new    ;}
	.st5{fill:url(#SVGID_1_);}
	.st6{fill:#278ACB;}
	.st7{fill:url(#SVGID_2_);}
	.st8{fill:url(#SVGID_3_);}
	.st9{fill:url(#SVGID_4_);}
	.st10{fill:url(#SVGID_5_);}
	.st11{fill:#575A89;}
	.st12{fill:#AFD2F2;}
	.st13{opacity:5.000000e-02;enable-background:new    ;}
	.st14{fill:#297187;}
	.st15{fill:none;}
	.st16{fill:#3F3D56;}
	.st17{opacity:0.1;enable-background:new    ;}
	.st18{fill:#E6E6E6;}
	.st19{fill:#BCBCBC;}
	.st20{fill:#FF6584;}
	.st21{fill:#FFC0C6;}
	.st22{fill:#605D82;}
	.st23{fill:#535070;}
</style>
<circle class="st0" cx="140.2" cy="247.1" r="3"/>
<circle class="st0" cx="151.4" cy="247.1" r="3"/>
<circle class="st0" cx="162.6" cy="247.1" r="3"/>
<path class="st1" d="M138.9,293.2c-1.1-0.5-1.6-1.7-1.3-2.8c0-0.1,0-0.2,0.1-0.3l0,0c0-0.6-0.4-1.2-1.1-1.2c-0.4,0-0.8,0.2-1,0.5
	l0,0c-0.1,0.1-0.1,0.1-0.1,0.2c-0.5,1.1-1.7,1.7-2.8,1.3c-0.1,0-0.2,0-0.3-0.1l0,0c-0.6,0-1.2,0.4-1.2,1.1c0,0.4,0.2,0.8,0.5,1l0,0
	c0.1,0.1,0.1,0.1,0.2,0.1c1.1,0.5,1.6,1.7,1.3,2.8c0,0.1,0,0.2-0.1,0.3l0,0c0,0.6,0.4,1.2,1.1,1.2c0.4,0,0.8-0.1,1-0.5l0,0
	c0.1-0.1,0.1-0.2,0.1-0.2c0.5-1.1,1.7-1.6,2.8-1.3c0.1,0,0.2,0,0.3,0.1l0,0c0.6,0,1.2-0.4,1.2-1.1c0-0.4-0.2-0.8-0.5-1l0,0
	C139.1,293.3,139,293.2,138.9,293.2z"/>
<path class="st1" d="M105.2,578c-1.1-0.5-1.6-1.7-1.3-2.8c0-0.1,0-0.2,0.1-0.3l0,0c0-0.6-0.4-1.2-1.1-1.2c-0.4,0-0.8,0.2-1,0.5l0,0
	c-0.1,0.1-0.1,0.1-0.1,0.2c-0.5,1.1-1.7,1.7-2.8,1.3c-0.1,0-0.2,0-0.3-0.1l0,0c-0.6,0-1.2,0.4-1.2,1.1c0,0.4,0.2,0.8,0.5,1l0,0
	c0.1,0.1,0.1,0.1,0.2,0.1c1.1,0.5,1.6,1.7,1.3,2.8c0,0.1,0,0.2-0.1,0.3l0,0c0,0.6,0.4,1.2,1.1,1.2c0.4,0,0.8-0.1,1-0.5l0,0
	c0.1-0.1,0.1-0.2,0.1-0.2c0.5-1.1,1.7-1.6,2.8-1.3c0.1,0,0.2,0,0.3,0.1l0,0c0.6,0,1.2-0.4,1.2-1.1c0-0.4-0.2-0.8-0.5-1l0,0
	C105.4,578.1,105.3,578,105.2,578z"/>
<path class="st1" d="M70.3,367.6c-1.1-0.5-1.6-1.7-1.3-2.8c0-0.1,0-0.2,0.1-0.3l0,0c0-0.6-0.4-1.2-1.1-1.2c-0.4,0-0.8,0.2-1,0.5l0,0
	c-0.1,0.1-0.1,0.1-0.1,0.2c-0.5,1.1-1.7,1.7-2.8,1.3c-0.1,0-0.2,0-0.3-0.1l0,0c-0.6,0-1.2,0.4-1.2,1.1c0,0.4,0.2,0.8,0.5,1l0,0
	c0.1,0.1,0.1,0.1,0.2,0.1c1.1,0.5,1.6,1.7,1.3,2.8c0,0.1,0,0.2-0.1,0.3l0,0c0,0.6,0.4,1.2,1.1,1.2c0.4,0,0.8-0.1,1-0.5l0,0
	c0.1-0.1,0.1-0.2,0.1-0.2c0.5-1.1,1.7-1.6,2.8-1.3c0.1,0,0.2,0,0.3,0.1l0,0c0.6,0,1.2-0.4,1.2-1.1c0-0.4-0.2-0.8-0.5-1l0,0
	C70.4,367.7,70.3,367.6,70.3,367.6z"/>
<g class="st2">
	<rect x="123.7" y="420.4" class="st3" width="1.9" height="10.8"/>
	<rect x="119.3" y="424.8" class="st3" width="10.8" height="1.9"/>
</g>
<circle class="st4" cx="57.6" cy="264.6" r="3.8"/>
<circle class="st4" cx="172" cy="483.9" r="3.8"/>
<linearGradient id="SVGID_1_" gradientUnits="userSpaceOnUse" x1="385.7372" y1="578.6958" x2="385.7372" y2="583.239" gradientTransform="matrix(0.9991 -4.238051e-02 -4.238051e-02 -0.9991 -196.4688 1136.0142)">
	<stop  offset="0" style="stop-color:#010101;stop-opacity:0.12"/>
	<stop  offset="0.55" style="stop-color:#010101;stop-opacity:9.000000e-02"/>
	<stop  offset="1" style="stop-color:#010101;stop-opacity:2.000000e-02"/>
</linearGradient>
<path class="st5" d="M164.2,537c-2.9,0.1-2.7,4.7,0.2,4.5S167.1,536.8,164.2,537z"/>
<path class="st6" d="M163.9,535.2c-3.2,0.1-3,5.1,0.2,5S167.1,535,163.9,535.2z"/>
<path class="st1" d="M138.8,293.8c-1.1-0.5-1.6-1.7-1.3-2.8c0-0.1,0-0.2,0.1-0.3l0,0c0-0.6-0.4-1.2-1.1-1.2c-0.4,0-0.8,0.2-1,0.5
	l0,0c-0.1,0.1-0.1,0.1-0.1,0.2c-0.5,1.1-1.7,1.7-2.8,1.3c-0.1,0-0.2,0-0.3-0.1l0,0c-0.6,0-1.2,0.4-1.2,1.1c0,0.4,0.2,0.8,0.5,1l0,0
	c0.1,0.1,0.1,0.1,0.2,0.1c1.1,0.5,1.6,1.7,1.3,2.8c0,0.1,0,0.2-0.1,0.3l0,0c0,0.6,0.4,1.2,1.1,1.2c0.4,0,0.8-0.1,1-0.5l0,0
	c0.1-0.1,0.1-0.2,0.1-0.2c0.5-1.1,1.7-1.6,2.8-1.3c0.1,0,0.2,0,0.3,0.1l0,0c0.6,0,1.2-0.4,1.2-1.1c0-0.4-0.2-0.8-0.5-1l0,0
	C139,293.9,138.9,293.8,138.8,293.8z"/>
<path class="st1" d="M105.1,578.6c-1.1-0.5-1.6-1.7-1.3-2.8c0-0.1,0-0.2,0.1-0.3l0,0c0-0.6-0.4-1.2-1.1-1.2c-0.4,0-0.8,0.2-1,0.5
	l0,0c-0.1,0.1-0.1,0.1-0.1,0.2c-0.5,1.1-1.7,1.7-2.8,1.3c-0.1,0-0.2,0-0.3-0.1l0,0c-0.6,0-1.2,0.4-1.2,1.1c0,0.4,0.2,0.8,0.5,1l0,0
	c0.1,0.1,0.1,0.1,0.2,0.1c1.1,0.5,1.6,1.7,1.3,2.8c0,0.1,0,0.2-0.1,0.3l0,0c0,0.6,0.4,1.2,1.1,1.2c0.4,0,0.8-0.1,1-0.5l0,0
	c0.1-0.1,0.1-0.2,0.1-0.2c0.5-1.1,1.7-1.6,2.8-1.3c0.1,0,0.2,0,0.3,0.1l0,0c0.6,0,1.2-0.4,1.2-1.1c0-0.4-0.2-0.8-0.5-1l0,0
	C105.3,578.7,105.2,578.6,105.1,578.6z"/>
<path class="st1" d="M70.2,368.2c-1.1-0.5-1.6-1.7-1.3-2.8c0-0.1,0-0.2,0.1-0.3l0,0c0-0.6-0.4-1.2-1.1-1.2c-0.4,0-0.8,0.2-1,0.5l0,0
	c-0.1,0.1-0.1,0.1-0.1,0.2c-0.5,1.1-1.7,1.7-2.8,1.3c-0.1,0-0.2,0-0.3-0.1l0,0c-0.6,0-1.2,0.4-1.2,1.1c0,0.4,0.2,0.8,0.5,1l0,0
	c0.1,0.1,0.1,0.1,0.2,0.1c1.1,0.5,1.6,1.7,1.3,2.8c0,0.1,0,0.2-0.1,0.3l0,0c0,0.6,0.4,1.2,1.1,1.2c0.4,0,0.8-0.1,1-0.5l0,0
	c0.1-0.1,0.1-0.2,0.1-0.2c0.5-1.1,1.7-1.6,2.8-1.3c0.1,0,0.2,0,0.3,0.1l0,0c0.6,0,1.2-0.4,1.2-1.1c0-0.4-0.2-0.8-0.5-1l0,0
	C70.3,368.3,70.2,368.2,70.2,368.2z"/>
<g class="st2">
	<rect x="123.6" y="421" class="st3" width="1.9" height="10.8"/>
	<rect x="119.2" y="425.4" class="st3" width="10.8" height="1.9"/>
</g>
<circle class="st4" cx="57.5" cy="265.2" r="3.8"/>
<circle class="st4" cx="171.9" cy="484.5" r="3.8"/>
<linearGradient id="SVGID_2_" gradientUnits="userSpaceOnUse" x1="385.6119" y1="578.1024" x2="385.6119" y2="582.6456" gradientTransform="matrix(0.9991 -4.238051e-02 -4.238051e-02 -0.9991 -196.4688 1136.0142)">
	<stop  offset="0" style="stop-color:#010101;stop-opacity:0.12"/>
	<stop  offset="0.55" style="stop-color:#010101;stop-opacity:9.000000e-02"/>
	<stop  offset="1" style="stop-color:#010101;stop-opacity:2.000000e-02"/>
</linearGradient>
<path class="st7" d="M164.1,537.6c-2.9,0.1-2.7,4.7,0.2,4.5S167,537.4,164.1,537.6z"/>
<path class="st6" d="M163.8,535.8c-3.2,0.1-3,5.1,0.2,5S167,535.6,163.8,535.8z"/>
<path class="st1" d="M533,274.2c-1.1-0.5-1.6-1.7-1.3-2.8c0-0.1,0-0.2,0.1-0.3l0,0c0-0.6-0.4-1.2-1.1-1.2c-0.4,0-0.8,0.2-1,0.5l0,0
	c-0.1,0.1-0.1,0.1-0.1,0.2c-0.5,1.1-1.7,1.7-2.8,1.3c-0.1,0-0.2,0-0.3-0.1l0,0c-0.6,0-1.2,0.4-1.2,1.1c0,0.4,0.2,0.8,0.5,1l0,0
	c0.1,0.1,0.1,0.1,0.2,0.1c1.1,0.5,1.6,1.7,1.3,2.8c0,0.1,0,0.2-0.1,0.3l0,0c0,0.6,0.4,1.2,1.1,1.2c0.4,0,0.8-0.1,1-0.5l0,0
	c0.1-0.1,0.1-0.2,0.1-0.2c0.5-1.1,1.7-1.6,2.8-1.3c0.1,0,0.2,0,0.3,0.1l0,0c0.6,0,1.2-0.4,1.2-1.1c0-0.4-0.2-0.8-0.5-1l0,0
	C533.2,274.3,533.1,274.2,533,274.2z"/>
<path class="st1" d="M566.3,636.7c-1.1-0.5-1.6-1.7-1.3-2.8c0-0.1,0-0.2,0.1-0.3l0,0c0-0.6-0.4-1.2-1.1-1.2c-0.4,0-0.8,0.2-1,0.5
	l0,0c-0.1,0.1-0.1,0.1-0.1,0.2c-0.5,1.1-1.7,1.7-2.8,1.3c-0.1,0-0.2,0-0.3-0.1l0,0c-0.6,0-1.2,0.4-1.2,1.1c0,0.4,0.2,0.8,0.5,1l0,0
	c0.1,0.1,0.1,0.1,0.2,0.1c1.1,0.5,1.6,1.7,1.3,2.8c0,0.1,0,0.2-0.1,0.3l0,0c0,0.6,0.4,1.2,1.1,1.2c0.4,0,0.8-0.1,1-0.5l0,0
	c0.1-0.1,0.1-0.2,0.1-0.2c0.5-1.1,1.7-1.6,2.8-1.3c0.1,0,0.2,0,0.3,0.1l0,0c0.6,0,1.2-0.4,1.2-1.1c0-0.4-0.2-0.8-0.5-1l0,0
	C566.5,636.8,566.4,636.7,566.3,636.7z"/>
<path class="st1" d="M464.4,348.5c-1.1-0.5-1.6-1.7-1.3-2.8c0-0.1,0-0.2,0.1-0.3l0,0c0-0.6-0.4-1.2-1.1-1.2c-0.4,0-0.8,0.2-1,0.5
	l0,0c-0.1,0.1-0.1,0.1-0.1,0.2c-0.5,1.1-1.7,1.7-2.8,1.3c-0.1,0-0.2,0-0.3-0.1l0,0c-0.6,0-1.2,0.4-1.2,1.1c0,0.4,0.2,0.8,0.5,1l0,0
	c0.1,0.1,0.1,0.1,0.2,0.1c1.1,0.5,1.6,1.7,1.3,2.8c0,0.1,0,0.2-0.1,0.3l0,0c0,0.6,0.4,1.2,1.1,1.2c0.4,0,0.8-0.1,1-0.5l0,0
	c0.1-0.1,0.1-0.2,0.1-0.2c0.5-1.1,1.7-1.6,2.8-1.3c0.1,0,0.2,0,0.3,0.1l0,0c0.6,0,1.2-0.4,1.2-1.1c0-0.4-0.2-0.8-0.5-1l0,0
	C464.5,348.7,464.4,348.5,464.4,348.5z"/>
<g class="st2">
	<rect x="517.8" y="401.3" class="st3" width="1.9" height="10.8"/>
	<rect x="513.4" y="405.8" class="st3" width="10.8" height="1.9"/>
</g>
<circle class="st4" cx="518.7" cy="323.2" r="3.8"/>
<circle class="st4" cx="633.1" cy="542.5" r="3.8"/>
<linearGradient id="SVGID_3_" gradientUnits="userSpaceOnUse" x1="843.9359" y1="500.5581" x2="843.9359" y2="505.1013" gradientTransform="matrix(0.9991 -4.238051e-02 -4.238051e-02 -0.9991 -196.4688 1136.0142)">
	<stop  offset="0" style="stop-color:#010101;stop-opacity:0.12"/>
	<stop  offset="0.55" style="stop-color:#010101;stop-opacity:9.000000e-02"/>
	<stop  offset="1" style="stop-color:#010101;stop-opacity:2.000000e-02"/>
</linearGradient>
<path class="st8" d="M625.3,595.7c-2.9,0.1-2.7,4.7,0.2,4.5S628.2,595.5,625.3,595.7z"/>
<path class="st6" d="M625,593.9c-3.2,0.1-3,5.1,0.2,5C628.4,598.8,628.2,593.7,625,593.9z"/>
<path class="st1" d="M228.8,57.7c-0.7,1-2,1.2-3,0.7c-0.1,0-0.2,0-0.3-0.2l0,0c-0.6-0.1-1.3,0.2-1.4,0.8c-0.1,0.4,0,0.8,0.3,1.1l0,0
	c0.1,0.1,0.1,0.1,0.2,0.1c1,0.7,1.3,2,0.7,3c0,0.1,0,0.2-0.2,0.3l0,0c-0.1,0.6,0.2,1.3,0.8,1.4c0.4,0.1,0.8,0,1.1-0.3l0,0
	c0.1-0.1,0.1-0.1,0.1-0.2c0.7-1,2-1.2,3-0.7c0.1,0,0.2,0,0.3,0.2l0,0c0.6,0.1,1.3-0.2,1.4-0.8c0.1-0.4,0.1-0.8-0.3-1.1l0,0
	c-0.1-0.1-0.2-0.1-0.2-0.1c-1-0.7-1.2-2-0.7-3c0-0.1,0-0.2,0.2-0.3l0,0c0.1-0.6-0.2-1.3-0.8-1.4c-0.4-0.1-0.8,0-1.1,0.3l0,0
	C228.9,57.5,228.8,57.6,228.8,57.7z"/>
<path class="st1" d="M501.3,147c-0.7,1-2,1.2-3,0.7c-0.1,0-0.2,0-0.3-0.2l0,0c-0.6-0.1-1.3,0.2-1.4,0.8c-0.1,0.4,0,0.8,0.3,1.1l0,0
	c0.1,0.1,0.1,0.1,0.2,0.1c1,0.7,1.3,2,0.7,3c0,0.1,0,0.2-0.2,0.3l0,0c-0.1,0.6,0.2,1.3,0.8,1.4c0.4,0.1,0.8,0,1.1-0.3l0,0
	c0.1-0.1,0.1-0.1,0.1-0.2c0.7-1,2-1.2,3-0.7c0.1,0,0.2,0,0.3,0.2l0,0c0.6,0.1,1.3-0.2,1.4-0.8c0.1-0.4,0.1-0.8-0.3-1.1l0,0
	c-0.1-0.1-0.2-0.1-0.2-0.1c-1-0.7-1.2-2-0.7-3c0-0.1,0-0.2,0.2-0.3l0,0c0.1-0.6-0.2-1.3-0.8-1.4c-0.4-0.1-0.8,0-1.1,0.3l0,0
	C501.4,146.8,501.3,146.9,501.3,147z"/>
<path class="st1" d="M288.1,139.7c-0.7,1-2,1.2-3,0.7c-0.1,0-0.2,0-0.3-0.2l0,0c-0.6-0.1-1.3,0.2-1.4,0.8c-0.1,0.4,0,0.8,0.3,1.1
	l0,0c0.1,0.1,0.1,0.1,0.2,0.1c1,0.7,1.3,2,0.7,3c0,0.1,0,0.2-0.2,0.3l0,0c-0.1,0.6,0.2,1.3,0.8,1.4c0.4,0.1,0.8,0,1.1-0.3l0,0
	c0.1-0.1,0.1-0.1,0.1-0.2c0.7-1,2-1.2,3-0.7c0.1,0,0.2,0,0.3,0.2l0,0c0.6,0.1,1.3-0.2,1.4-0.8c0.1-0.4,0.1-0.8-0.3-1.1l0,0
	c-0.1-0.1-0.2-0.1-0.2-0.1c-1-0.7-1.2-2-0.7-3c0-0.1,0-0.2,0.2-0.3l0,0c0.1-0.6-0.2-1.3-0.8-1.4c-0.4-0.1-0.8,0-1.1,0.3l0,0
	C288.3,139.6,288.1,139.7,288.1,139.7z"/>
<g class="st2">
	
		<rect x="355" y="92.5" transform="matrix(0.1976 -0.9803 0.9803 0.1976 189.7244 427.4968)" class="st3" width="1.9" height="10.8"/>
	
		<rect x="350.6" y="96.9" transform="matrix(0.1976 -0.9803 0.9803 0.1976 189.7223 427.4338)" class="st3" width="10.8" height="1.9"/>
</g>
<ellipse class="st4" cx="184.7" cy="131.7" rx="3.8" ry="3.8"/>
<ellipse transform="matrix(0.1976 -0.9803 0.9803 0.1976 277.0823 464.4041)" class="st4" cx="422.2" cy="62.9" rx="3.8" ry="3.8"/>
<linearGradient id="SVGID_4_" gradientUnits="userSpaceOnUse" x1="592.3425" y1="75.3089" x2="592.3425" y2="79.8521" gradientTransform="matrix(0.1559 -0.9878 -0.9878 -0.1559 459.2196 678.651)">
	<stop  offset="0" style="stop-color:#010101;stop-opacity:0.12"/>
	<stop  offset="0.55" style="stop-color:#010101;stop-opacity:9.000000e-02"/>
	<stop  offset="1" style="stop-color:#010101;stop-opacity:2.000000e-02"/>
</linearGradient>
<path class="st9" d="M472.8,81.1c-0.5,2.9,4.1,3.6,4.5,0.7C477.6,78.9,473.1,78.2,472.8,81.1z"/>
<path class="st6" d="M470.9,81c-0.5,3.2,4.4,3.9,4.9,0.8C476.4,78.7,471.4,77.8,470.9,81z"/>
<path class="st1" d="M229.3,58c-0.7,1-2,1.2-3,0.7c-0.1,0-0.2,0-0.3-0.2l0,0c-0.6-0.1-1.3,0.2-1.4,0.8c-0.1,0.4,0,0.8,0.3,1.1l0,0
	c0.1,0.1,0.1,0.1,0.2,0.1c1,0.7,1.3,2,0.7,3c0,0.1,0,0.2-0.2,0.3l0,0c-0.1,0.6,0.2,1.3,0.8,1.4c0.4,0.1,0.8,0,1.1-0.3l0,0
	c0.1-0.1,0.1-0.1,0.1-0.2c0.7-1,2-1.2,3-0.7c0.1,0,0.2,0,0.3,0.2l0,0c0.6,0.1,1.3-0.2,1.4-0.8c0.1-0.4,0.1-0.8-0.3-1.1l0,0
	c-0.1-0.1-0.2-0.1-0.2-0.1c-1-0.7-1.2-2-0.7-3c0-0.1,0-0.2,0.2-0.3l0,0c0.1-0.6-0.2-1.3-0.8-1.4c-0.4-0.1-0.8,0-1.1,0.3l0,0
	C229.5,57.8,229.3,57.9,229.3,58z"/>
<path class="st1" d="M501.8,147.3c-0.7,1-2,1.2-3,0.7c-0.1,0-0.2,0-0.3-0.2l0,0c-0.6-0.1-1.3,0.2-1.4,0.8c-0.1,0.4,0,0.8,0.3,1.1
	l0,0c0.1,0.1,0.1,0.1,0.2,0.1c1,0.7,1.3,2,0.7,3c0,0.1,0,0.2-0.2,0.3l0,0c-0.1,0.6,0.2,1.3,0.8,1.4c0.4,0.1,0.8,0,1.1-0.3l0,0
	c0.1-0.1,0.1-0.1,0.1-0.2c0.7-1,2-1.2,3-0.7c0.1,0,0.2,0,0.3,0.2l0,0c0.6,0.1,1.3-0.2,1.4-0.8c0.1-0.4,0.1-0.8-0.3-1.1l0,0
	c-0.1-0.1-0.2-0.1-0.2-0.1c-1-0.7-1.2-2-0.7-3c0-0.1,0-0.2,0.2-0.3l0,0c0.1-0.6-0.2-1.3-0.8-1.4c-0.4-0.1-0.8,0-1.1,0.3l0,0
	C502,147.1,501.9,147.2,501.8,147.3z"/>
<path class="st1" d="M288.7,139.9c-0.7,1-2,1.2-3,0.7c-0.1,0-0.2,0-0.3-0.2l0,0c-0.6-0.1-1.3,0.2-1.4,0.8c-0.1,0.4,0,0.8,0.3,1.1
	l0,0c0.1,0.1,0.1,0.1,0.2,0.1c1,0.7,1.3,2,0.7,3c0,0.1,0,0.2-0.2,0.3l0,0c-0.1,0.6,0.2,1.3,0.8,1.4c0.4,0.1,0.8,0,1.1-0.3l0,0
	c0.1-0.1,0.1-0.1,0.1-0.2c0.7-1,2-1.2,3-0.7c0.1,0,0.2,0,0.3,0.2l0,0c0.6,0.1,1.3-0.2,1.4-0.8c0.1-0.4,0.1-0.8-0.3-1.1l0,0
	c-0.1-0.1-0.2-0.1-0.2-0.1c-1-0.7-1.2-2-0.7-3c0-0.1,0-0.2,0.2-0.3l0,0c0.1-0.6-0.2-1.3-0.8-1.4c-0.4-0.1-0.8,0-1.1,0.3l0,0
	C288.8,139.8,288.7,139.9,288.7,139.9z"/>
<g class="st2">
	
		<rect x="355.5" y="92.8" transform="matrix(0.1976 -0.9803 0.9803 0.1976 189.8242 428.2071)" class="st3" width="1.9" height="10.8"/>
	
		<rect x="351.1" y="97.1" transform="matrix(0.1976 -0.9803 0.9803 0.1976 189.9107 428.0945)" class="st3" width="10.8" height="1.9"/>
</g>
<ellipse class="st4" cx="185.2" cy="132" rx="3.8" ry="3.8"/>
<ellipse transform="matrix(0.1976 -0.9803 0.9803 0.1976 277.3205 465.1534)" class="st4" cx="422.8" cy="63.2" rx="3.8" ry="3.8"/>
<linearGradient id="SVGID_5_" gradientUnits="userSpaceOnUse" x1="592.1888" y1="74.7155" x2="592.1888" y2="79.2587" gradientTransform="matrix(0.1559 -0.9878 -0.9878 -0.1559 459.2196 678.651)">
	<stop  offset="0" style="stop-color:#010101;stop-opacity:0.12"/>
	<stop  offset="0.55" style="stop-color:#010101;stop-opacity:9.000000e-02"/>
	<stop  offset="1" style="stop-color:#010101;stop-opacity:2.000000e-02"/>
</linearGradient>
<path class="st10" d="M473.3,81.3c-0.5,2.9,4.1,3.6,4.5,0.7C478.1,79.2,473.7,78.5,473.3,81.3z"/>
<path class="st6" d="M471.5,81.3c-0.5,3.2,4.4,3.9,4.9,0.8C477,78.9,471.9,78.1,471.5,81.3z"/>
<ellipse class="st11" cx="333.3" cy="694.8" rx="1.9" ry="1.3"/>
<circle class="st12" cx="135.3" cy="218.7" r="64.1"/>
<path class="st13" d="M86.9,189.7c0,0-13.1,18.8-5.6,36.6S86.9,189.7,86.9,189.7z"/>
<g id="Layer_5_1_">
	<path class="st14" d="M190.6,225.2c0,0-24.1-0.9-44.7,5.4s-34.6,12.9-46.2,23.8c0,0,1.3-36.1,35.5-43S190.6,225.2,190.6,225.2z"/>
	<ellipse transform="matrix(0.9864 -0.1645 0.1645 0.9864 -32.5065 21.0766)" class="st14" cx="111" cy="206.8" rx="7.2" ry="6.2"/>
	
		<ellipse transform="matrix(0.8141 -0.5807 0.5807 0.8141 -85.2648 123.6484)" class="st14" cx="150.5" cy="195" rx="7.1" ry="6.2"/>
</g>
<line class="st15" x1="452.3" y1="353.6" x2="452.2" y2="353.4"/>
<path class="st16" d="M444.7,334.8"/>
<path class="st16" d="M449.1,322.3"/>
<path class="st16" d="M453.1,354"/>
<path class="st17" d="M396,377.6l21.4-27.5l-0.2-0.2l-20.4,26.2C396.3,376.5,396.1,377.1,396,377.6z"/>
<rect x="218.3" y="229.9" class="st18" width="161.3" height="201.6"/>
<rect x="229.5" y="246.9" class="st0" width="34.6" height="23"/>
<rect x="229.8" y="291.8" class="st0" width="133.6" height="8.1"/>
<rect x="229.8" y="313.1" class="st0" width="133.6" height="8.1"/>
<rect x="229.8" y="334.4" class="st0" width="133.6" height="8.1"/>
<rect x="229.8" y="355.7" class="st0" width="133.6" height="8.1"/>
<rect x="229.8" y="377.1" class="st0" width="133.6" height="8.1"/>
<path class="st19" d="M411.3,431.2c0,17.4-14.2,31.6-31.6,31.6c-17.4,0-31.6-14.2-31.6-31.6c0-17.4,14.2-31.6,31.6-31.6
	c10.8,0,20.9,5.6,26.7,14.7C409.6,419.4,411.3,425.2,411.3,431.2z"/>
<path class="st20" d="M391.7,413.9l-0.6-0.5c-0.8-0.6-1.9-0.5-2.5,0.4l-9.5,13.7L366.8,417c-0.8-0.6-1.9-0.5-2.5,0.4l-0.5,0.7
	c-0.6,0.9-0.4,2.1,0.3,2.7l0,0l12.4,10.4l-9.5,13.7c-0.6,0.9-0.4,2.1,0.3,2.7l0.6,0.5c0.8,0.6,1.9,0.5,2.5-0.4l9.5-13.7l12.4,10.4
	c0.8,0.6,1.9,0.5,2.5-0.4l0.5-0.7c0.6-0.9,0.4-2.1-0.3-2.7l-12.4-10.4l9.5-13.7C392.6,415.7,392.4,414.5,391.7,413.9z"/>
<polygon class="st13" points="396.2,218.9 396.2,218.9 357.9,224.5 323.4,222.1 365.6,215 396.2,218.6 396.2,218.8 "/>
<path class="st21" d="M424.6,172.1c-0.4,3.7-3.2,6.7-4.3,10.2c-1.6,5.4,1.1,11.2,4.9,15.4c6.1,6.8,14.6,10.8,23.7,11.2
	c1.3,0.1,2.6,0,3.9-0.4c1.1-0.5,2.1-1.2,3-2c2.8-2.8,4.3-6.7,4.9-10.6c0.6-3.9,0.4-7.9,0.1-11.9c0-0.8-0.2-1.6-0.4-2.4
	c-0.4-0.7-0.9-1.4-1.5-1.9c-2-1.9-4.2-3.5-6.6-4.8c-1-0.6-2.1-1.1-2.8-2.1c-0.4-0.8-0.7-1.6-0.9-2.5l-0.7-3.7
	c-0.1-1.1-0.5-2.1-1.1-3c-1.3-1.7-3.8-2-5.9-2.1l-8-0.3c-2.5-0.1-5.7-0.8-8.1-0.3c-2.3,0.4-1.5,2.5-1.1,4.4
	C424.2,167.4,424.6,169.7,424.6,172.1z"/>
<path class="st17" d="M424.6,172.1c-0.4,3.7-3.2,6.7-4.3,10.2c-1.6,5.4,1.1,11.2,4.9,15.4c6.1,6.8,14.6,10.8,23.7,11.2
	c1.3,0.1,2.6,0,3.9-0.4c1.1-0.5,2.1-1.2,3-2c2.8-2.8,4.3-6.7,4.9-10.6c0.6-3.9,0.4-7.9,0.1-11.9c0-0.8-0.2-1.6-0.4-2.4
	c-0.4-0.7-0.9-1.4-1.5-1.9c-2-1.9-4.2-3.5-6.6-4.8c-1-0.6-2.1-1.1-2.8-2.1c-0.4-0.8-0.7-1.6-0.9-2.5l-0.7-3.7
	c-0.1-1.1-0.5-2.1-1.1-3c-1.3-1.7-3.8-2-5.9-2.1l-8-0.3c-2.5-0.1-5.7-0.8-8.1-0.3c-2.3,0.4-1.5,2.5-1.1,4.4
	C424.2,167.4,424.6,169.7,424.6,172.1z"/>
<path class="st22" d="M475.2,338.7l-3.4,37c-0.9,9.7-1.8,19.5-3.5,29.1c-0.6,3.3-1.3,6.6-2.1,9.9c-2.3,9.1-5.7,17.9-6.7,27.2
	c0,0.3-0.1,0.6-0.1,0.8c-0.2,2-0.4,4.1-1.1,6c-0.6,1.4-1.4,2.7-2,4.1c-1.1,2.8-1.3,5.9-1.5,8.9c-4.1-2.3-8.6-3.9-13.3-4.6
	c-2.3-0.3-4.8-0.6-6.3-2.3c-1.7-1.9-1.5-4.7-1.2-7.2c0.9-7.7,1.8-15.5,2.7-23.2c0.3-3.3,0.9-6.6,1.7-9.9c0.3-1.1,0.7-2.1,1.1-3.2
	c0.5-1.5,1-2.9,1.4-4.4c0.5-2.4,0.9-4.8,1.1-7.3c0.9-7.8,2-15.5,3-23.3l0.1-0.4c1.5-11.8,2.6-23.6,2.2-35.5c0-1.8-0.1-3.5-0.2-5.3
	c-0.2-2.6-0.4-3.9,1.7-5.5c2.3-1.8,5.4-3,8.1-4.2c1.4-0.6,17.3-6.3,17.6-5c0.7,2.6,1.1,5.4,1.1,8.1
	C475.7,332,475.6,335.3,475.2,338.7z"/>
<path class="st17" d="M468.3,404.8c-0.6,3.3-1.3,6.6-2.1,9.9c-2.3,9.1-5.7,17.9-6.7,27.2c0,0.3-0.1,0.6-0.1,0.8
	c-7.1-10.1-13-20.9-19.9-31.1c0.5-1.5,1-2.9,1.4-4.4c0.6-2.4,1-4.9,1.2-7.3c0.9-7.8,2-15.5,3-23.3l0.1-0.4c0.4,1.7,1,3.3,1.7,4.8
	c4.6,9.4,15.6,14.2,21,23.2C468,404.2,468.2,404.5,468.3,404.8z"/>
<path class="st22" d="M411,322c0.2,7.5,1.4,15,2.6,22.5l2.5,15.4c1.4,8.4,2.8,17,6.8,24.5c3,5.6,7.3,10.5,11.2,15.5
	c9.5,12.4,16.7,26.5,25.8,39.3c2.6,3.7,6.4,7.7,10.9,7c2.9-0.5,5.1-3,7.4-4.9c2.7-2.2,6-3.9,8.2-6.7c2.2-2.8,2.6-7.4-0.3-9.4
	c-1-0.7-2.2-0.9-3.3-1.4c-4.5-1.7-7.4-6.1-9.3-10.6c-1.9-4.5-3-9.2-5.5-13.4c-5.4-9-16.4-13.8-21-23.2c-2.6-5.3-2.8-11.4-3-17.2
	l-0.5-15c-0.1-1.6-0.1-3.3,0.6-4.8c1.8-4,7.1-4.4,11.5-4.9c4.9-0.6,9.7-2.1,14-4.4c2.5-1.3,4.9-3.1,6.3-5.6c1.2-2.3,1.4-5,1.5-7.5
	l1.5-27.1c0.1-2.3,0.2-4.8-0.6-6.9c-2.1-5.5-9-7.3-14.9-7c-10.9,0.5-21,5.2-31.3,8.4c-2.6,0.8-5.1,1.5-7.8,2c-2.3,0.5-5.1,0.3-7.3,1
	c-3.9,1.3-3.8,9.9-4.4,13.4C411.3,308,410.8,315,411,322z"/>
<path class="st23" d="M469.2,447.4c1,1,1.3,2.4,1.5,3.7c1.4,7.5,2.1,15,2.2,22.6c-0.1,0.7,0.1,1.4,0.4,2c0.3,0.4,0.6,0.7,1.1,0.9
	c2.8,1.3,6-0.5,8.3-2.6c4.3-3.8,7.9-8.8,8.2-14.5c0.1-1.5-0.1-3,0.2-4.4c0.4-2.2,1.6-4,2.7-5.9c1.9-3.2,3.4-6.6,4.6-10.1
	c0.4-1.3,0.7-3-0.3-3.9c-0.4-0.3-0.8-0.5-1.2-0.6l-12.6-4.7c-1.1-0.4-3.8,6.6-4.2,7.3c-1.1,1.9-2.1,2.9-4.2,3.3
	c-2.1,0.4-4.7-0.2-6.7,0.9C465.6,443.2,467.3,445.4,469.2,447.4z"/>
<path class="st23" d="M449.8,451.7c-0.2-0.5-0.6-0.9-1-1.2c-0.6-0.4-1.2-0.6-1.9-0.7c-2.4-0.4-5.2-0.7-6.9,1.1
	c-1.5,1.7-1.3,4.4-2.6,6.3c-0.4,0.6-1,1.1-1.3,1.7c-0.4,1-0.6,2-0.6,3.1c-0.1,2.9-0.1,5.8,0.1,8.7c0.2,2.4,0.6,5,2.1,6.9
	c2.4,3,6.8,3.5,10.7,3.7l3.2,0.2c0.9,0.1,1.7,0,2.6-0.2c1-0.5,1.9-1.4,2.2-2.5c1.6-4.1-1-8.5-2.6-12.6
	C452.1,461.4,452.4,456.1,449.8,451.7z"/>
<path class="st16" d="M423.7,151.2c0-0.4,0-0.8,0.2-1.2c0.5-0.8,1.7-0.6,2.6-0.4c3.7,0.9,7.5,0.1,11.3,0.3s8,2.1,8.8,5.8
	c2.7-1.9,5.1-4.4,7-7.1c1-1.6,2-3.4,1.8-5.2c-0.2-2.7-2.5-4.7-4.6-6.5l-6.3-5.1c-0.8-0.8-1.8-1.4-2.8-1.8c-1.4-0.5-3-0.3-4.6-0.3
	c-4.6,0-9.4-2.1-13.5,0c-1.7,0.9-3,2.4-4.2,3.8l-5.6,6.6c-0.4,0.4-0.7,0.9-0.9,1.5c-0.2,0.8,0.3,1.6,0.4,2.4
	c0.3,1.5-0.4,3.1,0.1,4.5c0.8,2.4,3.7,2.7,5.4,4c0.6,0.5,1.7,2.2,2.5,2.2C422.7,154.8,423.7,152.3,423.7,151.2z"/>
<circle class="st21" cx="433.2" cy="152.8" r="17.9"/>
<path class="st16" d="M437.4,192.1c-1.2-3.6-4.7-5.9-8.4-5.8c-0.5,0.1-1.1,0-1.6-0.2c-0.3-0.2-0.5-0.5-0.6-0.8c-1.1-2-2-4-2.6-6.2
	c-0.3-1-0.7-2.1-1.6-2.3c-0.8-0.2-1.6,0.3-2.1,0.9c-0.5,0.7-1,1.3-1.5,1.9c-2.3,2-6.3,0.2-8.6,2c-0.4,0.3-0.7,0.7-1.1,1
	c-0.4,0.2-0.9,0.4-1.3,0.6c-4.6,1.5-9.2,3.3-13.6,5.3c1.6,9.6,3.2,19.3,7,28.3c1.8,4.3,3.8,8.4,5.2,12.8c3.2,9.7,3.3,20.2,3.3,30.4
	c0,7,0,14.2-2.3,20.8c-0.5,1.5-1.1,3-1.3,4.6s0.3,3.3,1.6,4.3c0.7,0.5,1.6,0.8,2.5,0.9c3.9,0.6,7.9-0.5,11.8-1.4
	c10.4-2.4,21-3.8,31.5-5.1l17.7-2.3c1.3-0.1,2.5-0.4,3.7-1c3.2-1.8,3.5-6.6,1.5-9.7c-1-1.5-2.3-2.7-3.1-4.3
	c-0.8-1.6-0.9-3.8,0.5-4.9c2.8-2.2,2-6.3,2.1-9.9c0.4-10.1,0.3-20.1-0.2-30.2c-0.1-2.1-0.2-4.2-0.1-6.3c0.2-3.5,1.1-7,2-10.4
	l5.4-21.2c-1.4-2.2-4.1-3.6-6.6-4.3c-2.5-0.6-5.2-0.8-7.7-1.6c-5.1-1.6-9.7-5.6-15.1-5.3c-0.4,0-0.8,0.1-1.2,0.3
	c-1.2,0.7-1,2.4-1.1,3.8c-0.2,3.1-2.4,5.6-4.9,7.4c-2.5,1.8-5.3,3.1-7.6,5.2C438,190.1,437.5,191.1,437.4,192.1z"/>
<path class="st21" d="M366.4,212.1c-1.2,0.8-2.4,1.4-3.8,1.9c-1.3,0.5-2.6,0.9-3.6,1.8c-0.5,0.4-0.9,1-1.3,1.6
	c-1.9,3.3-0.7,7.5,2.6,9.4c1.1,0.6,2.4,0.9,3.7,0.9c1.6-0.1,3.2-0.8,4.7-1.4l12.6-5.5c2.1-0.9,4.4-2,5.5-4.1
	c0.1-0.2,0.2-0.4,0.1-0.7c-0.1-0.2-0.3-0.5-0.5-0.6c-2.8-1.9-5.3-4.2-7.4-6.9c-0.5-0.7-1.1-2.4-1.9-2.8
	C374.6,204.2,368.6,210.8,366.4,212.1z"/>
<path class="st21" d="M501.5,207.7l4.7,5.3c1,1.1,2,2.3,2.9,3.5c2.2,3.1,4,6.5,5.3,10.1c1,2.7,1.9,5.5,1.5,8.3
	c-0.2,1.4-0.6,2.9-1.2,4.2c-0.9,2.6-1.9,5.2-3.2,7.6c-1,1.9-2.2,3.6-3.5,5.3c-3.6,4.8-7.6,9.3-11.8,13.5c-1.6,1.6-2.3,4.1-3,6.3
	c-1.3,3.9-4.3,7-7.3,9.9c-0.9,1-2,1.9-3.1,2.7c-1.7,1.1-3.7,1.7-5.7,1.6c-0.9,0-1.7-0.2-2.6-0.5c-2-1-3-3.3-3.2-5.5
	c-0.2-2,0.2-4,1-5.9c2.7-5.9,9.5-8.5,14.4-12.8c2.8-2.5,5-5.7,7.2-8.9c1.5-2,2.7-4.1,3.6-6.4c1.1-2.9,0.7-6.3,1.6-9.3
	c0.4-1.2,1.1-2.4,1.5-3.6c0.4-1.2,0.5-2.7-0.2-3.8c-0.6-0.7-1.3-1.2-2.1-1.5c-3.1-1.6-6.6-3.6-7.2-7c-0.2-1.9,0.3-3.8,1.4-5.4
	c1.1-1.5,2.4-2.9,3.9-4.1C497.9,210.2,500.2,208.9,501.5,207.7z"/>
<path class="st21" d="M363.4,219.6c-0.8-1.7-1.8-3.4-3.5-4.2c-1.6-0.7-3.5-0.7-5.1,0c-1.6,0.7-3.1,1.6-4.5,2.7l-4,3
	c-0.9,0.6-1.7,1.3-2.4,2.2c-0.6,1-1.1,2.2-1.2,3.4c-0.6,2.8-1,5.6-0.6,8.4c0.6,4.6,3.4,8.5,6.4,11.9c1.9,2.2,4.2,4.3,7.1,4.4
	c1.2,0,2.6-0.4,3.1-1.6c0.2-0.4,0.3-0.9,0.3-1.4c0.3-5.1-1.5-10-3.6-14.6c-0.6-1.3-1.2-2.5-1.1-3.9c0-0.2,0-0.5,0.2-0.7
	c0.2-0.2,0.4-0.3,0.7-0.3c2.9-0.6,7.9,1.7,9.9-1.5C366.1,225.4,364.4,221.5,363.4,219.6z"/>
<path class="st16" d="M422.8,145.6c0-0.4,0-0.8,0.2-1.2c0.5-0.8,1.7-0.6,2.6-0.4c3.7,0.9,7.5,0.1,11.3,0.3c3.8,0.2,8,2.1,8.8,5.8
	c2.7-1.9,5.1-4.4,7-7.1c1-1.6,2-3.4,1.8-5.2c-0.2-2.7-2.5-4.7-4.6-6.4l-6.3-5.1c-0.8-0.8-1.8-1.4-2.8-1.8c-1.5-0.5-3-0.3-4.6-0.3
	c-4.6,0-9.4-2.1-13.5,0c-1.7,0.9-3,2.4-4.2,3.8l-5.6,6.6c-0.4,0.4-0.7,0.9-0.9,1.5c-0.2,0.8,0.3,1.6,0.4,2.4
	c0.3,1.5-0.4,3.1,0.1,4.5c0.8,2.4,3.7,2.7,5.4,4.1c0.6,0.5,1.7,2.2,2.5,2.2C421.8,149.2,422.7,146.7,422.8,145.6z"/>
<path class="st16" d="M384.7,194.7c-0.7,0.5-1.4,1.1-1.9,1.7c-0.7,1-0.8,2.3-1.4,3.3c-1.2,2.2-4,3-5.8,4.9c-0.3,0.3-0.5,0.6-0.6,1
	c0,0.5,0.2,1,0.5,1.4l8.5,13.4c2.8,0.3,5.5-1.5,8.4-1.3c1.1,0.1,2.1,0.4,3.2,0.1c0.7-0.3,1.4-0.7,2-1.2c1.7-1.1,3.9-1.2,5.4-2.6
	c1.4-1.4,1.5-3.5,1.5-5.4c0-1.7-0.1-3.3-0.5-4.9c-1.3-5.1-5.2-9.1-7.6-13.6c-1.2-2.2-1.8-3.5-4.4-2
	C389.5,190.9,387.1,193,384.7,194.7z"/>
<path class="st16" d="M487.9,188c1.6,1,3,2.3,4.3,3.7c1.3,1.7,2,3.7,3.3,5.4c1.2,1.7,2.8,2.9,4.2,4.5c2.1,2.3,3.5,5.1,4.9,7.9
	c-3.4,4.4-7,8.5-11,12.4c-0.4,0.5-1,0.9-1.7,1.1c-0.9,0.1-1.8-0.3-2.4-1c-0.6-0.6-1-1.4-1.6-2.1c-1.4-1.4-3.2-2.3-5.2-2.5
	c-2-0.2-3.9-0.2-5.9-0.1c-0.4,0.1-0.9,0-1.3-0.2c-0.3-0.2-0.5-0.5-0.7-0.8c-2.3-3.9-1.6-8.8-0.8-13.3l1.9-10.2
	c0.3-2,0.8-3.9,1.6-5.7c0.7-1.5,2.3-4.1,4.2-3.6C483.7,184,486.3,186.8,487.9,188z"/>
</svg>
