<?xml version="1.0" encoding="utf-8"?>
<!-- Generator: Adobe Illustrator 22.0.1, SVG Export Plug-In . SVG Version: 6.00 Build 0)  -->
<svg version="1.1" id="Layer_1" xmlns="http://www.w3.org/2000/svg" xmlns:xlink="http://www.w3.org/1999/xlink" x="0px" y="0px"
	 viewBox="0 0 1300 400" style="enable-background:new 0 0 1300 400;" xml:space="preserve">
<style type="text/css">
	.st0{fill:url(#SVGID_1_);stroke:#000000;stroke-width:1.6452;stroke-miterlimit:10;}
	.st1{fill:none;stroke:#535461;stroke-width:0.6159;stroke-miterlimit:10;}
	.st2{fill:#0D8CD8;}
	.st3{opacity:0.25;enable-background:new    ;}
	.st4{opacity:0.1;fill:#0D8CD8;enable-background:new    ;}
	.st5{fill:#B77B7F;}
	.st6{fill:#DDA2A6;}
	.st7{opacity:0.1;enable-background:new    ;}
	.st8{fill:#0071B7;}
	.st9{fill:#FFD037;}
	.st10{fill:#65617D;}
	.st11{fill:#9D9CB5;}
	.st12{fill:#3F3D56;}
	.st13{fill:#FFB9B9;}
	.st14{fill:#575A89;}
	.st15{fill:#2F2E41;}
</style>
<linearGradient id="SVGID_1_" gradientUnits="userSpaceOnUse" x1="1.818989e-12" y1="200" x2="522.4643" y2="200" gradientTransform="matrix(-2.4882 0 0 -1 1300 400)">
	<stop  offset="0" style="stop-color:#007194"/>
	<stop  offset="1" style="stop-color:#41C1C9"/>
</linearGradient>
<rect class="st0" width="1300" height="400"/>
<path class="st1" d="M171.2,278c0,0-8.4-12.5-21.1-16.1c-5.3-1.5-10-4.4-13.1-8.3c-1.5-1.9-2.8-3.8-3.9-5.9"/>
<path class="st2" d="M125.1,245.4c1.4,1.2,8.2,2.4,8.2,2.4s-1.6-5.6-3.1-6.8c-1.4-1.2-3.8-1.2-5.1,0.1
	C123.6,242.3,123.7,244.2,125.1,245.4L125.1,245.4z"/>
<path class="st2" d="M128.9,255.6c2,0.3,8.4-1.7,8.4-1.7s-5-3.9-7-4.3c-2-0.3-3.9,0.8-4.3,2.4C125.6,253.6,126.9,255.2,128.9,255.6
	L128.9,255.6L128.9,255.6z"/>
<path class="st2" d="M142.8,266.5c1.9-0.6,6.2-5,6.2-5s-6.7-1.3-8.6-0.7c-1.9,0.5-3,2.2-2.4,3.9c0.6,1.6,2.7,2.5,4.6,2
	C142.7,266.6,142.7,266.6,142.8,266.5L142.8,266.5z"/>
<path class="st2" d="M155.5,272.9c2-0.3,7.2-4.1,7.2-4.1s-6.4-2.2-8.3-1.9c-2,0.3-3.4,1.8-3.1,3.5
	C151.6,272,153.4,273.1,155.5,272.9L155.5,272.9L155.5,272.9z"/>
<path class="st2" d="M142.9,249.4c0,1.7-3.6,6.6-3.6,6.6s-3.7-4.9-3.7-6.6c0-1.7,1.6-3,3.7-3C141.3,246.4,142.9,247.8,142.9,249.4
	L142.9,249.4z"/>
<path class="st2" d="M157.7,257c-0.6,1.6-5.8,5.4-5.8,5.4s-1.7-5.6-1.1-7.2c0.6-1.6,2.7-2.5,4.6-2
	C157.2,253.7,158.3,255.4,157.7,257L157.7,257z"/>
<path class="st2" d="M170.9,266c-0.3,1.7-4.7,6.1-4.7,6.1s-2.8-5.3-2.6-6.9c0.3-1.7,2.1-2.8,4.1-2.6
	C169.7,262.8,171.1,264.3,170.9,266z"/>
<path class="st3" d="M125.1,245.4c1.4,1.2,8.2,2.4,8.2,2.4s-1.6-5.6-3.1-6.8c-1.4-1.2-3.8-1.2-5.1,0.1
	C123.6,242.3,123.7,244.2,125.1,245.4L125.1,245.4z"/>
<path class="st3" d="M128.9,255.6c2,0.3,8.4-1.7,8.4-1.7s-5-3.9-7-4.3c-2-0.3-3.9,0.8-4.3,2.4C125.6,253.6,126.9,255.2,128.9,255.6
	L128.9,255.6L128.9,255.6z"/>
<path class="st3" d="M142.8,266.5c1.9-0.6,6.2-5,6.2-5s-6.7-1.3-8.6-0.7c-1.9,0.5-3,2.2-2.4,3.9c0.6,1.6,2.7,2.5,4.6,2
	C142.7,266.6,142.7,266.6,142.8,266.5L142.8,266.5z"/>
<path class="st3" d="M155.5,272.9c2-0.3,7.2-4.1,7.2-4.1s-6.4-2.2-8.3-1.9c-2,0.3-3.4,1.8-3.1,3.5
	C151.6,272,153.4,273.1,155.5,272.9L155.5,272.9L155.5,272.9z"/>
<path class="st3" d="M142.9,249.4c0,1.7-3.6,6.6-3.6,6.6s-3.7-4.9-3.7-6.6c0-1.7,1.6-3,3.7-3C141.3,246.4,142.9,247.8,142.9,249.4
	L142.9,249.4z"/>
<path class="st3" d="M157.7,257c-0.6,1.6-5.8,5.4-5.8,5.4s-1.7-5.6-1.1-7.2c0.6-1.6,2.7-2.5,4.6-2
	C157.2,253.7,158.3,255.4,157.7,257L157.7,257z"/>
<path class="st3" d="M170.9,266c-0.3,1.7-4.7,6.1-4.7,6.1s-2.8-5.3-2.6-6.9c0.3-1.7,2.1-2.8,4.1-2.6
	C169.7,262.8,171.1,264.3,170.9,266z"/>
<path class="st1" d="M170.7,277.7c0,0-1.6-14.3-11.5-21.9c-4.2-3.2-7-7.4-8-12c-0.5-2.2-0.7-4.4-0.7-6.7"/>
<path class="st2" d="M144.3,232.3c0.7,1.6,6.3,5,6.3,5s1.2-5.7,0.4-7.2c-0.7-1.6-2.8-2.4-4.7-1.8c-1.9,0.6-2.9,2.3-2.2,3.9
	C144.2,232.2,144.3,232.2,144.3,232.3z"/>
<path class="st2" d="M142.9,242.8c1.6,1,8.5,1.3,8.5,1.3s-2.7-5.3-4.3-6.3c-1.6-1-3.9-0.6-5.1,0.7
	C140.8,240,141.2,241.9,142.9,242.8z"/>
<path class="st2" d="M150.3,257.6c2,0.1,8.1-2.5,8.1-2.5s-5.5-3.5-7.5-3.6s-3.8,1.1-3.9,2.8C146.8,256,148.2,257.4,150.3,257.6
	L150.3,257.6z"/>
<path class="st2" d="M158.8,267.7c2,0.4,8.5-1.3,8.5-1.3s-4.7-4.2-6.7-4.6c-2-0.5-4,0.5-4.5,2.1s0.6,3.3,2.5,3.8
	C158.7,267.7,158.8,267.7,158.8,267.7L158.8,267.7z"/>
<path class="st2" d="M158.7,242c-0.8,1.6-6.5,4.8-6.5,4.8s-1-5.7-0.2-7.3c0.8-1.5,3-2.2,4.8-1.5C158.6,238.8,159.4,240.5,158.7,242
	L158.7,242z"/>
<path class="st2" d="M168.5,254c-1.3,1.3-7.9,2.9-7.9,2.9s1.1-5.7,2.5-7c1.3-1.3,3.6-1.4,5.1-0.4c1.5,1.1,1.7,3,0.4,4.3
	C168.5,253.9,168.5,253.9,168.5,254L168.5,254z"/>
<path class="st2" d="M176.2,266.7c-1,1.4-7.2,4-7.2,4s-0.1-5.8,1-7.2c1-1.4,3.3-1.9,5-1S177.2,265.2,176.2,266.7L176.2,266.7
	L176.2,266.7z"/>
<ellipse class="st4" cx="197" cy="275.8" rx="40" ry="5.6"/>
<polygon class="st5" points="194.4,201.5 194.4,202.6 196.7,269.9 200.5,269.9 198.6,202.6 198.6,201.4 "/>
<polygon class="st6" points="172.3,258.5 175.1,258.5 217.6,258.5 219.9,258.5 218.7,255.3 172.6,255.3 "/>
<polygon class="st7" points="194.4,201.5 194.4,202.6 198.6,202.6 198.6,201.4 "/>
<rect x="192.8" y="199.9" class="st5" width="7.1" height="2.2"/>
<polygon class="st7" points="217.3,255.3 217.6,258.5 219.9,258.5 218.7,255.3 "/>
<polygon class="st6" points="211.2,199.8 211.3,200.8 220.7,278.9 225,278.7 215.1,200.8 215,200 "/>
<polygon class="st7" points="172.3,258.5 175.1,258.5 175.5,255.3 172.6,255.3 "/>
<polygon class="st6" points="167.7,278.7 172.1,278.9 181.5,200.8 181.6,199.8 177.8,200 177.7,200.8 "/>
<rect x="149.3" y="122.9" class="st8" width="95.3" height="76.6"/>
<path class="st6" d="M195.1,97.3v18.5h3.7V97.3c0-0.9-0.7-1.6-1.8-1.6c-1,0-1.9,0.6-2,1.5C195.1,97.2,195.1,97.3,195.1,97.3z"/>
<rect x="195.1" y="114.1" class="st7" width="3.7" height="1.7"/>
<path class="st6" d="M193.7,115.4v6.1h6.6v-6.1c0-0.4-0.4-0.8-0.9-0.8l0,0h-4.8C194.1,114.6,193.7,115,193.7,115.4z"/>
<ellipse class="st7" cx="197" cy="118.5" rx="1.4" ry="1.2"/>
<ellipse class="st5" cx="197" cy="118.2" rx="1.4" ry="1.2"/>
<rect x="193.7" y="120.7" class="st7" width="6.6" height="0.8"/>
<rect x="190.9" y="121.7" class="st7" width="12.1" height="1.7"/>
<rect x="190.9" y="121.2" class="st6" width="12.1" height="1.7"/>
<path class="st7" d="M221.4,197.6h-50.7c-1.2,0-2.2,0.8-2.2,1.8v0.4l0,0h55l0,0v-0.4C223.6,198.4,222.6,197.6,221.4,197.6z"/>
<polygon class="st7" points="215,200 211.2,199.8 211.3,200.8 215.1,200.8 "/>
<rect x="192.8" y="199.9" class="st7" width="7.1" height="0.9"/>
<polygon class="st7" points="177.7,200.8 181.5,200.8 181.6,199.8 177.8,200 "/>
<path class="st6" d="M221.4,198.1h-50.7c-1.2,0-2.2,0.8-2.2,1.8v0.4l0,0h55l0,0v-0.4C223.6,198.9,222.6,198.1,221.4,198.1z"/>
<ellipse class="st4" cx="371" cy="304.5" rx="14.9" ry="2.4"/>
<ellipse class="st4" cx="123.4" cy="288.5" rx="10.8" ry="1.8"/>
<ellipse class="st4" cx="62.4" cy="122.6" rx="7.2" ry="1.4"/>
<path class="st2" d="M356.9,236.9c0,0-2.4,2.7,1.1,6.7c3.6,4,6.5,7.4,5.3,9.9c0,0-5.3-7.5-9.7-7.6S352.1,241.4,356.9,236.9z"/>
<path class="st7" d="M356.9,236.9c-0.2,0.3-0.4,0.5-0.5,0.8c-4.3,4.2-6.5,8.1-2.4,8.2c3.8,0.1,8.4,5.8,9.5,7.2
	c0,0.1-0.1,0.2-0.1,0.3c0,0-5.4-7.5-9.7-7.6C349.3,245.9,352.1,241.4,356.9,236.9z"/>
<path class="st9" d="M352.4,240.3c0,0.9,0.1,1.7,0.3,1.7s0.3-0.8,0.3-1.7s-0.2-0.5-0.3-0.5C352.5,239.8,352.4,239.3,352.4,240.3z"/>
<path class="st9" d="M350.9,241.4c1,0.5,1.8,0.7,1.9,0.6c0.1-0.1-0.7-0.6-1.6-1c-1-0.5-0.6-0.1-0.7,0S349.9,240.9,350.9,241.4z"/>
<path class="st2" d="M369.8,236.9c0,0,2.4,2.7-1.1,6.7s-6.5,7.4-5.3,9.9c0,0,5.4-7.5,9.8-7.6C377.5,245.8,374.6,241.4,369.8,236.9z"
	/>
<path class="st7" d="M369.8,236.9c0.2,0.3,0.4,0.5,0.5,0.8c4.3,4.2,6.5,8.1,2.4,8.2c-3.8,0.1-8.4,5.8-9.5,7.2c0,0.1,0.1,0.2,0.1,0.3
	c0,0,5.4-7.5,9.8-7.6C377.5,245.8,374.6,241.4,369.8,236.9z"/>
<ellipse class="st4" cx="363.4" cy="270.7" rx="25.5" ry="3.3"/>
<path class="st10" d="M350.3,249.9l0.1,0.8l0.2,1.2l0.1,0.5l0.2,1.2l0.1,0.5l0.2,1.2l2,13.4c0.2,1.2,2.5,2.1,5.3,2.1h10.1
	c2.8,0,5.1-0.9,5.3-2.1l2-13.4l0.2-1.2l0.1-0.5l0.2-1.2l0.1-0.5l0.2-1.2l0.1-0.8c0.1-0.7-1.1-1.2-2.8-1.2h-21
	C351.4,248.7,350.2,249.2,350.3,249.9z"/>
<polygon class="st11" points="350.4,250.8 350.6,251.9 376.2,251.9 376.3,250.8 "/>
<polygon class="st11" points="350.7,252.4 350.8,253.6 375.9,253.6 376.1,252.4 "/>
<polygon class="st11" points="350.9,254.1 351.1,255.3 375.7,255.3 375.9,254.1 "/>
<ellipse class="st4" cx="341" cy="124.4" rx="10.6" ry="8.9"/>
<ellipse class="st4" cx="363.2" cy="103.2" rx="6.6" ry="5.5"/>
<ellipse transform="matrix(0.5628 -0.8266 0.8266 0.5628 -17.6172 255.4092)" class="st12" cx="232.6" cy="144.4" rx="2" ry="10"/>
<path class="st13" d="M244.9,157.1c0,0-1-15.3-6.5-11.8c-5.4,3.5,2.4,13.2,2.4,13.2L244.9,157.1z"/>
<path class="st13" d="M265.2,202.3c0,0-12.1,11.4-5.3,12.2s9.4-10.7,9.4-10.7L265.2,202.3z"/>
<path class="st14" d="M281,148.3L281,148.3c-3.1,0.7-5.4,2.9-5.9,5.6l-3.9,23l-5.4,18.4c0,0-2.7,2-1.6,3.2c1.1,1.1-1.3,5.9-1.3,5.9
	l6.8,1.8c0,0,0.8-4.8,2.2-5c1.2-0.2,14.5-30,17.7-37.2c0.4-1,0.7-1.6,0.7-1.6S289.6,147.2,281,148.3z"/>
<path class="st13" d="M279.7,268.3l-4.1,6.2c-3.2,5.8-0.4,6.8,7.5,3.9l1.8-7.3L279.7,268.3z"/>
<path class="st15" d="M277.7,276.5c0,0-2-2.7-2.7-2.2s-3.7,2.4-3.7,2.4l-3.8,3.1c0,0-12.9,1.2-4.7,4.9c8.2,3.8,12.7,0.6,12.7,0.6
	s11.5,0.5,11.3-2.2s-3.9-7-3.9-7S278.3,278.9,277.7,276.5z"/>
<path class="st15" d="M298.2,198.6l-3.9,39.5c0,0-0.1,23.6-4.3,28.2c-4.1,4.6-4.3,6.9-4.3,6.9l-8.5-3.7c0,0,4.4-6.1,3.5-7.1
	c-0.6-0.6-0.9-1.3-1.2-2l2.3-24.4l-4.4-42.4L298.2,198.6z"/>
<polygon class="st13" points="287.5,268.3 291.2,276.4 299.4,273.5 295,267.5 "/>
<path class="st15" d="M293.6,273.7c0,0-3.1-1.6-3.5-1s-1.9,3.4-1.9,3.4l-1.7,4c0,0-10.6,5.7-1.5,6c9.1,0.3,11.4-4,11.4-4
	s10.2-3.7,8.7-6s-7-4.6-7-4.6S295.3,275.4,293.6,273.7z"/>
<path class="st15" d="M265.2,198.7l-2.1,36.3c0,0,18.9,32.8,21,33.7c1.2,0.5,2.2,1.5,2.6,2.6l11.4-2.4l-5.2-7l-11.4-23.3
	c0,0-1.8-0.6-2.3-2.8s-1.5-2.2,1-2.6c2.6-0.4,2.6-2.6,2.6-2.6l8.5-33.1L265.2,198.7z"/>
<ellipse class="st13" cx="274.6" cy="133" rx="10.4" ry="8.7"/>
<path class="st13" d="M283.8,133.6c0,0,0.8,11.1,1.8,12.2c1,1.1-10.9,0.9-10.9,0.9s0.8-9.4,0-10.2
	C273.9,135.6,283.8,133.6,283.8,133.6z"/>
<path class="st14" d="M264.4,201.1c0,0,29.3-2.2,34.7,0c0,0-2-6.2-1.5-6.9c0.4-0.5-0.7-18.3-0.3-28.5c0.2-5.8,1.8-11.4-2.9-15.7
	c-1.6-1.5-3.3-2.7-5.2-3.3c0,0,0.5-4.1-2.1-4.3c0,0-9.9-0.9-13.5,1.7c-1.1,0.8-1.9,3.4-2,5.5c1.8,7.4,1.2,15.6-0.5,24.1
	c-0.1,0.5-0.2,1.1-0.3,1.6C269.2,183.9,266.6,192.6,264.4,201.1z"/>
<path class="st15" d="M280,135.6c-0.9-0.1-1.7,0.2-2.6,0.3c-3.1,0.3-6.4-1.6-7.1-4.1c-0.1-0.3-0.2-0.7-0.4-1
	c-0.5-0.6-1.6-0.8-2.5-0.6c-0.9,0.1-1.7,0.5-2.7,0.5c-1.4,0.1-2.8-0.7-3.5-1.7s-1-2.2-0.9-3.4l0.7,0.6c0.3-0.5,0.4-1,0.3-1.6
	c0.7-0.2,1.5,0,2.1,0.5c0.6,0.1,0.1-0.9,0.6-1.3c0.2-0.1,0.5-0.1,0.7-0.1c1.3,0,2.3-0.8,3.3-1.5c1.7-1.1,3.8-1.9,5.9-2.3
	c1.4-0.2,3-0.3,4.3,0.2c1.1,0.4,2.1,1,2.9,1.7c2.1,1.7,4,3.8,4.9,6.1c0.7,1.9,0.7,4,0.1,6c-0.4,1-1.4,4.5-3,4.6
	C281.3,138.6,282.5,135.7,280,135.6z"/>
<path class="st14" d="M275.7,149.4l-3.7,0.3c0,0-3.6,5.9-3.4,7.2c0.2,1.2,0.8,0.5-0.8,2.5c-1.6,2-6.3,7.1-6.9,7.8
	s-16.3-9.3-15.3-12.3c0,0-5,3-7.1,3.4c0,0,16.2,17.8,18.5,20.1s4.1,1.8,7.2,0.5c3.1-1.4,18.8-14.8,18.8-14.8L275.7,149.4z"/>
<path class="st7" d="M271,175.4l12.9-10.8l-3.3-0.9l-9.3,10.1C271.2,174.4,271.1,174.9,271,175.4z"/>
</svg>
