<?xml version="1.0" encoding="utf-8"?>
<!-- Generator: Adobe Illustrator 22.0.1, SVG Export Plug-In . SVG Version: 6.00 Build 0)  -->
<svg version="1.1" id="Layer_1" xmlns="http://www.w3.org/2000/svg" xmlns:xlink="http://www.w3.org/1999/xlink" x="0px" y="0px"
	 viewBox="0 0 1300 400" style="enable-background:new 0 0 1300 400;" xml:space="preserve">
<style type="text/css">
	.st0{fill:url(#SVGID_1_);stroke:#000000;stroke-width:1.6452;stroke-miterlimit:10;}
	.st1{fill:none;stroke:#515154;stroke-width:0.6361;stroke-miterlimit:10;}
	.st2{fill:#0D8CD8;}
	.st3{opacity:0.25;fill:#538EA5;enable-background:new    ;}
	.st4{fill:#6DC5F2;}
	.st5{opacity:0.1;fill:#0D8CD8;enable-background:new    ;}
	.st6{fill:#BAB1B3;}
	.st7{fill:#E0D1D3;}
	.st8{opacity:0.1;enable-background:new    ;}
	.st9{fill:#B2AAAB;}
	.st10{fill:#CAE3EF;}
	.st11{fill:#BFB6B8;}
	.st12{fill:#85CBED;}
	.st13{fill:#F7E7BA;}
	.st14{opacity:0.1;fill:#BBE8FF;enable-background:new    ;}
	.st15{fill:#AAA7BC;}
	.st16{fill:#6F6F77;}
	.st17{fill:#5F5F6B;}
	.st18{fill:#FFB9B9;}
	.st19{fill:#C9CBD3;}
	.st20{fill:#ADA3A3;}
	.st21{fill:#E3E3E5;}
	.st22{fill:#B6B6B7;}
</style>
<linearGradient id="SVGID_1_" gradientUnits="userSpaceOnUse" x1="650" y1="200.7245" x2="1950" y2="200.7245" gradientTransform="matrix(-1 0 0 -1 1950 400)">
	<stop  offset="0" style="stop-color:#00354D"/>
	<stop  offset="0.4129" style="stop-color:#00364F"/>
	<stop  offset="0.5616" style="stop-color:#003C56"/>
	<stop  offset="0.6676" style="stop-color:#004561"/>
	<stop  offset="0.7534" style="stop-color:#005272"/>
	<stop  offset="0.8268" style="stop-color:#006388"/>
	<stop  offset="0.8918" style="stop-color:#0078A4"/>
	<stop  offset="0.9492" style="stop-color:#0091C3"/>
	<stop  offset="1" style="stop-color:#00ACE6"/>
	<stop  offset="1" style="stop-color:#0093C7"/>
	<stop  offset="1" style="stop-color:#0075A3"/>
	<stop  offset="1" style="stop-color:#005B83"/>
	<stop  offset="1" style="stop-color:#004567"/>
	<stop  offset="1" style="stop-color:#003351"/>
	<stop  offset="1" style="stop-color:#002540"/>
	<stop  offset="1" style="stop-color:#001B35"/>
	<stop  offset="1" style="stop-color:#00162E"/>
	<stop  offset="1" style="stop-color:#00142C"/>
</linearGradient>
<rect x="0" y="-0.7" class="st0" width="1300" height="400"/>
<path class="st1" d="M1161.6,283.5c0,0,8-14.1,20-18.2c5.1-1.7,9.4-4.9,12.4-9.3c1.4-2.1,2.6-4.3,3.7-6.6"/>
<path class="st2" d="M1205.3,246.8c-1.4,1.3-7.7,2.7-7.7,2.7s1.6-6.3,2.9-7.7c1.4-1.3,3.6-1.3,4.9,0.1
	C1206.7,243.2,1206.6,245.4,1205.3,246.8L1205.3,246.8z"/>
<path class="st2" d="M1201.7,258.2c-1.9,0.4-8-1.9-8-1.9s4.7-4.5,6.6-4.8c1.9-0.4,3.7,0.9,4.1,2.7
	C1204.7,256,1203.5,257.8,1201.7,258.2L1201.7,258.2L1201.7,258.2z"/>
<path class="st2" d="M1188.6,270.6c-1.8-0.6-5.9-5.7-5.9-5.7s6.4-1.5,8.1-0.8c1.8,0.6,2.8,2.5,2.2,4.4c-0.6,1.8-2.5,2.8-4.4,2.2
	C1188.7,270.6,1188.6,270.6,1188.6,270.6L1188.6,270.6z"/>
<path class="st2" d="M1176.5,277.7c-1.9-0.3-6.8-4.6-6.8-4.6s6-2.5,7.9-2.2c1.9,0.3,3.2,2.1,2.9,3.9S1178.4,278,1176.5,277.7
	C1176.5,277.7,1176.5,277.7,1176.5,277.7L1176.5,277.7z"/>
<path class="st2" d="M1188.4,251.3c0,1.9,3.4,7.4,3.4,7.4s3.5-5.5,3.5-7.4s-1.6-3.4-3.5-3.4C1189.9,247.9,1188.4,249.4,1188.4,251.3
	L1188.4,251.3z"/>
<path class="st2" d="M1174.4,259.8c0.6,1.8,5.5,6.1,5.5,6.1s1.7-6.3,1.1-8.1c-0.6-1.8-2.5-2.8-4.3-2.3
	C1174.8,256.1,1173.8,258,1174.4,259.8L1174.4,259.8z"/>
<path class="st2" d="M1162,270c0.3,1.9,4.4,6.9,4.4,6.9s2.7-5.9,2.4-7.8c-0.3-1.9-2-3.2-3.9-3C1163,266.3,1161.7,268.1,1162,270z"/>
<path class="st3" d="M1205.3,246.8c-1.4,1.3-7.7,2.7-7.7,2.7s1.6-6.3,2.9-7.7c1.4-1.3,3.6-1.3,4.9,0.1
	C1206.7,243.2,1206.6,245.4,1205.3,246.8L1205.3,246.8z"/>
<path class="st3" d="M1201.7,258.2c-1.9,0.4-8-1.9-8-1.9s4.7-4.5,6.6-4.8c1.9-0.4,3.7,0.9,4.1,2.7
	C1204.7,256,1203.5,257.8,1201.7,258.2L1201.7,258.2L1201.7,258.2z"/>
<path class="st3" d="M1188.6,270.6c-1.8-0.6-5.9-5.7-5.9-5.7s6.4-1.5,8.1-0.8c1.8,0.6,2.8,2.5,2.2,4.4c-0.6,1.8-2.5,2.8-4.4,2.2
	C1188.7,270.6,1188.6,270.6,1188.6,270.6L1188.6,270.6z"/>
<path class="st3" d="M1176.5,277.7c-1.9-0.3-6.8-4.6-6.8-4.6s6-2.5,7.9-2.2c1.9,0.3,3.2,2.1,2.9,3.9S1178.4,278,1176.5,277.7
	C1176.5,277.7,1176.5,277.7,1176.5,277.7L1176.5,277.7z"/>
<path class="st3" d="M1188.4,251.3c0,1.9,3.4,7.4,3.4,7.4s3.5-5.5,3.5-7.4s-1.6-3.4-3.5-3.4C1189.9,247.9,1188.4,249.4,1188.4,251.3
	L1188.4,251.3z"/>
<path class="st3" d="M1174.4,259.8c0.6,1.8,5.5,6.1,5.5,6.1s1.7-6.3,1.1-8.1c-0.6-1.8-2.5-2.8-4.3-2.3
	C1174.8,256.1,1173.8,258,1174.4,259.8L1174.4,259.8z"/>
<path class="st3" d="M1162,270c0.3,1.9,4.4,6.9,4.4,6.9s2.7-5.9,2.4-7.8c-0.3-1.9-2-3.2-3.9-3C1163,266.3,1161.7,268.1,1162,270z"/>
<path class="st1" d="M1162.1,283.2c0,0,1.6-16.1,10.9-24.7c3.9-3.6,6.6-8.3,7.6-13.5c0.4-2.5,0.7-5,0.7-7.5"/>
<path class="st4" d="M1187.1,231.9c-0.7,1.8-6,5.6-6,5.6s-1.1-6.4-0.4-8.2c0.7-1.8,2.6-2.7,4.5-2c1.8,0.7,2.7,2.6,2,4.5
	C1187.2,231.8,1187.1,231.9,1187.1,231.9z"/>
<path class="st4" d="M1188.5,243.9c-1.6,1.1-8.1,1.5-8.1,1.5s2.5-6,4.1-7.1c1.6-1.1,3.7-0.7,4.8,0.8
	C1190.4,240.6,1190,242.8,1188.5,243.9z"/>
<path class="st4" d="M1181.5,260.5c-1.9,0.2-7.7-2.8-7.7-2.8s5.2-3.9,7.1-4.1c1.9-0.2,3.6,1.2,3.7,3.1
	C1184.8,258.7,1183.4,260.3,1181.5,260.5L1181.5,260.5z"/>
<path class="st4" d="M1173.4,271.9c-1.8,0.5-8-1.5-8-1.5s4.5-4.7,6.3-5.2c1.8-0.5,3.8,0.5,4.3,2.4c0.5,1.8-0.5,3.8-2.4,4.3
	C1173.4,271.9,1173.4,271.9,1173.4,271.9L1173.4,271.9z"/>
<path class="st4" d="M1173.5,242.9c0.8,1.7,6.2,5.4,6.2,5.4s0.9-6.5,0.2-8.2c-0.8-1.7-2.9-2.5-4.6-1.7
	C1173.6,239.3,1172.8,241.3,1173.5,242.9L1173.5,242.9z"/>
<path class="st4" d="M1164.2,256.4c1.3,1.4,7.5,3.3,7.5,3.3s-1-6.4-2.3-7.9c-1.2-1.5-3.4-1.6-4.9-0.4
	C1163,252.7,1162.9,254.8,1164.2,256.4C1164.2,256.4,1164.2,256.4,1164.2,256.4L1164.2,256.4z"/>
<path class="st4" d="M1156.9,270.7c1,1.6,6.8,4.5,6.8,4.5s0.1-6.5-1-8.1c-1-1.6-3.1-2.1-4.7-1.1
	C1156.5,266.9,1156,269.1,1156.9,270.7L1156.9,270.7L1156.9,270.7z"/>
<ellipse class="st5" cx="1137.2" cy="281" rx="37.8" ry="6.3"/>
<polygon class="st6" points="1139.7,197.3 1139.7,198.5 1137.5,274.4 1133.9,274.4 1135.7,198.5 1135.7,197.1 "/>
<polygon class="st7" points="1160.6,261.6 1157.9,261.6 1117.7,261.5 1115.6,261.5 1116.7,257.9 1160.3,257.9 "/>
<polygon class="st8" points="1139.7,197.3 1139.7,198.5 1135.7,198.5 1135.7,197.1 "/>
<rect x="1134.6" y="195.5" class="st9" width="6.7" height="2.5"/>
<polygon class="st8" points="1118.1,257.9 1117.7,261.5 1115.6,261.5 1116.7,257.9 "/>
<polygon class="st7" points="1123.8,195.4 1123.7,196.5 1114.8,284.5 1110.7,284.3 1120.1,196.5 1120.2,195.5 "/>
<polygon class="st8" points="1160.6,261.6 1157.9,261.6 1157.6,257.9 1160.3,257.9 "/>
<polygon class="st7" points="1164.9,284.3 1160.8,284.5 1151.9,196.5 1151.8,195.4 1155.4,195.5 1155.5,196.5 "/>
<rect x="1092.2" y="108.7" class="st10" width="90.1" height="86.4"/>
<path class="st7" d="M1139,79.7v20.9h-3.5V79.7c0-1,0.7-1.8,1.7-1.8c1,0,1.8,0.7,1.8,1.7C1139,79.7,1139,79.7,1139,79.7z"/>
<rect x="1135.5" y="98.7" class="st8" width="3.5" height="1.9"/>
<path class="st7" d="M1140.4,100.2v6.9h-6.3v-6.9c0-0.5,0.4-0.9,0.9-0.9l0,0h4.5C1140,99.3,1140.4,99.7,1140.4,100.2z"/>
<circle class="st8" cx="1137.3" cy="103.7" r="1.3"/>
<circle class="st11" cx="1137.3" cy="103.4" r="1.3"/>
<rect x="1134.1" y="106.2" class="st8" width="6.3" height="0.9"/>
<rect x="1131.5" y="107.3" class="st8" width="11.4" height="1.9"/>
<rect x="1131.5" y="106.7" class="st7" width="11.4" height="1.9"/>
<path class="st8" d="M1114.2,192.8h47.9c1.1,0,2.1,0.9,2.1,2.1v0.4l0,0h-52.1l0,0v-0.4C1112.1,193.8,1113,192.8,1114.2,192.8z"/>
<polygon class="st8" points="1120.2,195.5 1123.8,195.4 1123.7,196.5 1120.1,196.5 "/>
<rect x="1134.6" y="195.5" class="st8" width="6.7" height="1"/>
<polygon class="st8" points="1155.5,196.5 1151.9,196.5 1151.8,195.4 1155.4,195.5 "/>
<path class="st7" d="M1114.2,193.4h47.9c1.1,0,2.1,0.9,2.1,2.1v0.4l0,0h-52.1l0,0v-0.4C1112.1,194.3,1113,193.4,1114.2,193.4z"/>
<ellipse class="st5" cx="972.7" cy="313.4" rx="14.1" ry="2.7"/>
<ellipse class="st5" cx="1206.9" cy="295.3" rx="10.2" ry="2"/>
<ellipse class="st5" cx="1251.3" cy="303.4" rx="10.2" ry="2"/>
<ellipse class="st5" cx="1182.6" cy="320.1" rx="10.2" ry="2"/>
<path class="st12" d="M986,237.1c0,0,2.3,3-1,7.6c-3.4,4.5-6.1,8.4-5,11.2c0,0,5.1-8.4,9.2-8.6S990.5,242.2,986,237.1z"/>
<path class="st8" d="M986,237.1c0.2,0.3,0.3,0.6,0.5,1c4,4.7,6.2,9.2,2.3,9.3c-3.6,0.1-8,6.6-9,8.2c0,0.1,0.1,0.3,0.1,0.4
	c0,0,5.1-8.4,9.2-8.6C993.2,247.3,990.5,242.2,986,237.1z"/>
<path class="st13" d="M990.2,241c0,1-0.1,1.9-0.3,1.9c-0.2,0-0.3-0.9-0.3-1.9s0.2-0.6,0.3-0.6C990.1,240.4,990.2,239.9,990.2,241z"
	/>
<path class="st13" d="M991.7,242.2c-0.9,0.5-1.7,0.8-1.8,0.7c-0.1-0.1,0.6-0.6,1.6-1.1c0.9-0.5,0.6-0.1,0.6,0
	C992.2,241.9,992.6,241.7,991.7,242.2z"/>
<path class="st12" d="M973.8,237.1c0,0-2.3,3,1,7.6s6.1,8.4,5,11.2c0,0-5.1-8.4-9.2-8.6C966.5,247.2,969.3,242.2,973.8,237.1z"/>
<path class="st8" d="M973.8,237.1c-0.2,0.3-0.3,0.6-0.5,1c-4,4.7-6.2,9.2-2.3,9.3c3.6,0.1,8,6.6,9,8.2c0,0.1-0.1,0.3-0.1,0.4
	c0,0-5.1-8.4-9.2-8.6C966.5,247.2,969.3,242.2,973.8,237.1z"/>
<path class="st13" d="M969.5,241c0,1,0.1,1.9,0.3,1.9c0.1,0,0.3-0.9,0.3-1.9s-0.2-0.6-0.3-0.6S969.5,239.9,969.5,241z"/>
<path class="st13" d="M968.1,242.2c0.9,0.5,1.7,0.8,1.8,0.7c0.1-0.1-0.6-0.6-1.6-1.1c-0.9-0.5-0.6-0.1-0.6,0
	C967.6,241.9,967.1,241.7,968.1,242.2z"/>
<ellipse class="st14" cx="979.9" cy="275.2" rx="24.1" ry="3.7"/>
<path class="st15" d="M992.3,251.8l-0.1,1l-0.2,1.3l-0.1,0.5l-0.2,1.3l-0.1,0.5l-0.2,1.3l-1.8,15.1c-0.2,1.3-2.4,2.4-5,2.4h-9.5
	c-2.7,0-4.9-1-5-2.4l-1.8-15.1l-0.2-1.3L968,256l-0.2-1.3l-0.1-0.5l-0.2-1.3l-0.1-1c-0.1-0.8,1.1-1.4,2.6-1.4h19.6
	C991.2,250.4,992.4,251.1,992.3,251.8z"/>
<polygon class="st16" points="992.1,252.8 992,254.1 967.8,254.1 967.6,252.8 "/>
<polygon class="st16" points="991.9,254.7 991.7,256 968,256 967.8,254.7 "/>
<polygon class="st16" points="991.7,256.5 991.5,257.9 968.2,257.9 968.1,256.5 "/>
<circle class="st5" cx="1001" cy="110.3" r="10"/>
<ellipse class="st5" cx="980" cy="86.5" rx="6.2" ry="6.2"/>
<circle class="st5" cx="947.6" cy="100.3" r="3.8"/>
<ellipse transform="matrix(0.7715 -0.6362 0.6362 0.7715 167.5876 732.4777)" class="st17" cx="1103.6" cy="132.9" rx="10.1" ry="2.2"/>
<path class="st18" d="M1092,147.2c0,0,1-17.2,6.1-13.3c5.2,3.9-2.3,14.9-2.3,14.9L1092,147.2z"/>
<path class="st18" d="M1072.8,198.2c0,0,11.4,12.9,5.1,13.7c-6.4,0.9-8.9-12.1-8.9-12.1L1072.8,198.2z"/>
<path class="st19" d="M1057.8,137.3L1057.8,137.3c2.9,0.8,5.1,3.2,5.6,6.3l3.7,26l5.1,20.7c0,0,2.5,2.3,1.5,3.6
	c-1,1.3,1.3,6.6,1.3,6.6l-6.4,2c0,0-0.8-5.4-2-5.6c-1.1-0.2-13.7-33.8-16.7-42c-0.4-1.1-0.7-1.7-0.7-1.7S1049.6,136,1057.8,137.3z"
	/>
<path class="st20" d="M1059,272.6l3.9,7c3.1,6.5,0.3,7.7-7.1,4.5l-1.7-8.2L1059,272.6z"/>
<path class="st21" d="M1061,281.9c0,0,1.9-3,2.5-2.5c0.7,0.5,3.5,2.7,3.5,2.7l3.6,3.5c0,0,12.2,1.3,4.5,5.6
	c-7.8,4.3-12.1,0.7-12.1,0.7s-10.9,0.6-10.7-2.5c0.2-3.1,3.7-7.9,3.7-7.9S1060.4,284.5,1061,281.9z"/>
<path class="st22" d="M1041.6,194l3.7,44.5c0,0,0.1,26.6,4,31.8c3.9,5.2,4,7.7,4,7.7l8.1-4.2c0,0-4.2-6.9-3.3-8
	c0.5-0.7,0.9-1.5,1.1-2.3l-2.2-27.5l4.2-47.8L1041.6,194z"/>
<polygon class="st20" points="1051.6,272.6 1048.2,281.7 1040.4,278.4 1044.5,271.6 "/>
<path class="st21" d="M1045.9,278.6c0,0,2.9-1.8,3.3-1.1c0.3,0.7,1.8,3.8,1.8,3.8l1.7,4.5c0,0,10.1,6.4,1.5,6.7
	c-8.6,0.3-10.7-4.5-10.7-4.5s-9.7-4.2-8.2-6.7c1.5-2.5,6.6-5.2,6.6-5.2S1044.3,280.6,1045.9,278.6z"/>
<path class="st22" d="M1072.7,194.1l2,41c0,0-17.9,37-19.9,38c-1.2,0.6-2.1,1.7-2.4,3l-10.8-2.7l4.9-7.9l10.8-26.2
	c0,0,1.7-0.7,2.2-3.2c0.5-2.4,1.5-2.4-1-3c-2.4-0.5-2.4-3-2.4-3l-8.1-37.3L1072.7,194.1z"/>
<circle class="st18" cx="1063.9" cy="120.1" r="9.8"/>
<path class="st18" d="M1055.2,120.7c0,0-0.7,12.5-1.7,13.7s10.3,1,10.3,1s-0.7-10.6,0-11.5C1064.5,122.9,1055.2,120.7,1055.2,120.7z
	"/>
<path class="st19" d="M1073.5,196.8c0,0-27.7-2.4-32.9,0c0,0,1.9-7,1.4-7.8c-0.3-0.5,0.6-20.6,0.3-32.1c-0.2-6.5-1.7-12.9,2.7-17.7
	c1.5-1.7,3.1-3,4.9-3.7c0,0-0.5-4.6,2-4.9c0,0,9.3-1,12.8,2c1.1,0.9,1.8,3.8,1.9,6.2c-1.7,8.4-1.1,17.6,0.4,27.2
	c0.1,0.6,0.2,1.2,0.3,1.8C1068.9,177.4,1071.4,187.2,1073.5,196.8z"/>
<path class="st17" d="M1058.8,122.9c0.8-0.1,1.7,0.2,2.4,0.3c3,0.4,6-1.7,6.7-4.6c0.1-0.4,0.2-0.8,0.3-1.1c0.4-0.7,1.5-0.9,2.4-0.7
	c0.9,0.2,1.7,0.6,2.5,0.6c1.3,0.1,2.6-0.8,3.3-1.9c0.7-1.2,1-2.5,0.8-3.9l-0.6,0.7c-0.3-0.5-0.3-1.2-0.3-1.8c-0.7-0.2-1.4,0-1.9,0.5
	c-0.6,0.1-0.1-1-0.6-1.4c-0.2-0.1-0.4-0.2-0.7-0.1c-1.2,0-2.2-0.9-3.1-1.7c-1.7-1.3-3.6-2.2-5.6-2.6c-1.4-0.3-2.8-0.3-4.1,0.2
	c-1,0.5-2,1.1-2.8,2c-2,1.9-3.8,4.2-4.6,6.9c-0.7,2.2-0.7,4.5-0.1,6.7c0.3,1.1,1.4,5.1,2.9,5.2
	C1057.6,126.3,1056.4,123.1,1058.8,122.9z"/>
<path class="st19" d="M1062.8,138.5l3.5,0.4c0,0,3.4,6.7,3.2,8.1c-0.2,1.4-0.8,0.5,0.8,2.8c1.6,2.2,5.9,8,6.5,8.8
	c0.6,0.8,15.4-10.5,14.5-13.9c0,0,4.7,3.4,6.7,3.8c0,0-15.3,20.1-17.5,22.7c-2.1,2.6-3.8,2-6.8,0.5c-3-1.5-17.8-16.7-17.8-16.7
	L1062.8,138.5z"/>
<path class="st8" d="M1067.3,167.9l-12.2-12.2l3.1-1l8.8,11.4C1067,166.7,1067.1,167.3,1067.3,167.9z"/>
</svg>
