<?xml version="1.0" encoding="utf-8"?>
<!-- Generator: Adobe Illustrator 22.0.1, SVG Export Plug-In . SVG Version: 6.00 Build 0)  -->
<svg version="1.1" id="Layer_1" xmlns="http://www.w3.org/2000/svg" xmlns:xlink="http://www.w3.org/1999/xlink" x="0px" y="0px"
	 viewBox="0 0 1300 400" style="enable-background:new 0 0 1300 400;" xml:space="preserve">
<style type="text/css">
	.st0{fill:url(#SVGID_1_);stroke:#000000;stroke-width:1.6452;stroke-miterlimit:10;}
	.st1{fill:none;stroke:#515154;stroke-width:0.6361;stroke-miterlimit:10;}
	.st2{fill:#0D8CD8;}
	.st3{opacity:0.25;fill:#538EA5;enable-background:new    ;}
	.st4{fill:#6DC5F2;}
	.st5{opacity:0.1;fill:#0D8CD8;enable-background:new    ;}
	.st6{fill:#BAB1B3;}
	.st7{fill:#E0D1D3;}
	.st8{opacity:0.1;enable-background:new    ;}
	.st9{fill:#B2AAAB;}
	.st10{fill:#CAE3EF;}
	.st11{fill:#BFB6B8;}
	.st12{fill:#85CBED;}
	.st13{fill:#F7E7BA;}
	.st14{opacity:0.1;fill:#BBE8FF;enable-background:new    ;}
	.st15{fill:#AAA7BC;}
	.st16{fill:#6F6F77;}
	.st17{fill:#5F5F6B;}
	.st18{fill:#FFB9B9;}
	.st19{fill:#C9CBD3;}
	.st20{fill:#ADA3A3;}
	.st21{fill:#E3E3E5;}
	.st22{fill:#B6B6B7;}
</style>
<linearGradient id="SVGID_1_" gradientUnits="userSpaceOnUse" x1="2268.0144" y1="199.3" x2="2600" y2="199.3" gradientTransform="matrix(3.9158 0 0 1 -8881.166 0)">
	<stop  offset="0" style="stop-color:#00354D"/>
	<stop  offset="0.4129" style="stop-color:#00364F"/>
	<stop  offset="0.5616" style="stop-color:#003C56"/>
	<stop  offset="0.6676" style="stop-color:#004561"/>
	<stop  offset="0.7534" style="stop-color:#005272"/>
	<stop  offset="0.8268" style="stop-color:#006388"/>
	<stop  offset="0.8918" style="stop-color:#0078A4"/>
	<stop  offset="0.9492" style="stop-color:#0091C3"/>
	<stop  offset="1" style="stop-color:#00ACE6"/>
	<stop  offset="1" style="stop-color:#0093C7"/>
	<stop  offset="1" style="stop-color:#0075A3"/>
	<stop  offset="1" style="stop-color:#005B83"/>
	<stop  offset="1" style="stop-color:#004567"/>
	<stop  offset="1" style="stop-color:#003351"/>
	<stop  offset="1" style="stop-color:#002540"/>
	<stop  offset="1" style="stop-color:#001B35"/>
	<stop  offset="1" style="stop-color:#00162E"/>
	<stop  offset="1" style="stop-color:#00142C"/>
</linearGradient>
<rect y="-0.7" class="st0" width="1300" height="400"/>
<path class="st1" d="M138.4,283.5c0,0-8-14.1-20-18.2c-5.1-1.7-9.4-4.9-12.4-9.3c-1.4-2.1-2.6-4.3-3.7-6.6"/>
<path class="st2" d="M94.7,246.8c1.4,1.3,7.7,2.7,7.7,2.7s-1.6-6.3-2.9-7.7c-1.4-1.3-3.6-1.3-4.9,0.1
	C93.3,243.2,93.4,245.4,94.7,246.8L94.7,246.8z"/>
<path class="st2" d="M98.3,258.2c1.9,0.4,8-1.9,8-1.9s-4.7-4.5-6.6-4.8c-1.9-0.4-3.7,0.9-4.1,2.7C95.3,256,96.5,257.8,98.3,258.2
	L98.3,258.2L98.3,258.2z"/>
<path class="st2" d="M111.4,270.6c1.8-0.6,5.9-5.7,5.9-5.7s-6.4-1.5-8.1-0.8c-1.8,0.6-2.8,2.5-2.2,4.4c0.6,1.8,2.5,2.8,4.4,2.2
	C111.3,270.6,111.4,270.6,111.4,270.6L111.4,270.6z"/>
<path class="st2" d="M123.5,277.7c1.9-0.3,6.8-4.6,6.8-4.6s-6-2.5-7.9-2.2s-3.2,2.1-2.9,3.9S121.6,278,123.5,277.7L123.5,277.7
	L123.5,277.7z"/>
<path class="st2" d="M111.6,251.3c0,1.9-3.4,7.4-3.4,7.4s-3.5-5.5-3.5-7.4s1.6-3.4,3.5-3.4C110.1,247.9,111.6,249.4,111.6,251.3
	L111.6,251.3z"/>
<path class="st2" d="M125.6,259.8c-0.6,1.8-5.5,6.1-5.5,6.1s-1.7-6.3-1.1-8.1c0.6-1.8,2.5-2.8,4.3-2.3
	C125.2,256.1,126.2,258,125.6,259.8L125.6,259.8z"/>
<path class="st2" d="M138,270c-0.3,1.9-4.4,6.9-4.4,6.9s-2.7-5.9-2.4-7.8c0.3-1.9,2-3.2,3.9-3C137,266.3,138.3,268.1,138,270z"/>
<path class="st3" d="M94.7,246.8c1.4,1.3,7.7,2.7,7.7,2.7s-1.6-6.3-2.9-7.7c-1.4-1.3-3.6-1.3-4.9,0.1
	C93.3,243.2,93.4,245.4,94.7,246.8L94.7,246.8z"/>
<path class="st3" d="M98.3,258.2c1.9,0.4,8-1.9,8-1.9s-4.7-4.5-6.6-4.8c-1.9-0.4-3.7,0.9-4.1,2.7C95.3,256,96.5,257.8,98.3,258.2
	L98.3,258.2L98.3,258.2z"/>
<path class="st3" d="M111.4,270.6c1.8-0.6,5.9-5.7,5.9-5.7s-6.4-1.5-8.1-0.8c-1.8,0.6-2.8,2.5-2.2,4.4c0.6,1.8,2.5,2.8,4.4,2.2
	C111.3,270.6,111.4,270.6,111.4,270.6L111.4,270.6z"/>
<path class="st3" d="M123.5,277.7c1.9-0.3,6.8-4.6,6.8-4.6s-6-2.5-7.9-2.2s-3.2,2.1-2.9,3.9S121.6,278,123.5,277.7L123.5,277.7
	L123.5,277.7z"/>
<path class="st3" d="M111.6,251.3c0,1.9-3.4,7.4-3.4,7.4s-3.5-5.5-3.5-7.4s1.6-3.4,3.5-3.4C110.1,247.9,111.6,249.4,111.6,251.3
	L111.6,251.3z"/>
<path class="st3" d="M125.6,259.8c-0.6,1.8-5.5,6.1-5.5,6.1s-1.7-6.3-1.1-8.1c0.6-1.8,2.5-2.8,4.3-2.3
	C125.2,256.1,126.2,258,125.6,259.8L125.6,259.8z"/>
<path class="st3" d="M138,270c-0.3,1.9-4.4,6.9-4.4,6.9s-2.7-5.9-2.4-7.8c0.3-1.9,2-3.2,3.9-3C137,266.3,138.3,268.1,138,270z"/>
<path class="st1" d="M137.9,283.2c0,0-1.6-16.1-10.9-24.7c-3.9-3.6-6.6-8.3-7.6-13.5c-0.4-2.5-0.7-5-0.7-7.5"/>
<path class="st4" d="M112.9,231.9c0.7,1.8,6,5.6,6,5.6s1.1-6.4,0.4-8.2s-2.6-2.7-4.5-2C113,228,112.1,229.9,112.9,231.9L112.9,231.9
	z"/>
<path class="st4" d="M111.5,243.9c1.6,1.1,8.1,1.5,8.1,1.5s-2.5-6-4.1-7.1s-3.7-0.7-4.8,0.8C109.6,240.6,110,242.8,111.5,243.9z"/>
<path class="st4" d="M118.5,260.5c1.9,0.2,7.7-2.8,7.7-2.8s-5.2-3.9-7.1-4.1c-1.9-0.2-3.6,1.2-3.7,3.1
	C115.2,258.7,116.6,260.3,118.5,260.5L118.5,260.5z"/>
<path class="st4" d="M126.6,271.9c1.8,0.5,8-1.5,8-1.5s-4.5-4.7-6.3-5.2s-3.8,0.5-4.3,2.4c-0.5,1.8,0.5,3.8,2.4,4.3
	C126.6,271.9,126.6,271.9,126.6,271.9L126.6,271.9z"/>
<path class="st4" d="M126.5,242.9c-0.8,1.7-6.2,5.4-6.2,5.4s-0.9-6.5-0.2-8.2c0.8-1.7,2.9-2.5,4.6-1.7
	C126.4,239.3,127.2,241.3,126.5,242.9L126.5,242.9z"/>
<path class="st4" d="M135.8,256.4c-1.3,1.4-7.5,3.3-7.5,3.3s1-6.4,2.3-7.9c1.2-1.5,3.4-1.6,4.9-0.4
	C137,252.7,137.1,254.8,135.8,256.4L135.8,256.4L135.8,256.4z"/>
<path class="st4" d="M143.1,270.7c-1,1.6-6.8,4.5-6.8,4.5s-0.1-6.5,1-8.1c1-1.6,3.1-2.1,4.7-1.1C143.5,266.9,144,269.1,143.1,270.7
	L143.1,270.7L143.1,270.7z"/>
<ellipse class="st5" cx="162.8" cy="281" rx="37.8" ry="6.3"/>
<polygon class="st6" points="160.3,197.3 160.3,198.5 162.5,274.4 166.1,274.4 164.3,198.5 164.3,197.1 "/>
<polygon class="st7" points="139.4,261.6 142.1,261.6 182.3,261.5 184.4,261.5 183.3,257.9 139.7,257.9 "/>
<polygon class="st8" points="160.3,197.3 160.3,198.5 164.3,198.5 164.3,197.1 "/>
<rect x="158.7" y="195.5" class="st9" width="6.7" height="2.5"/>
<polygon class="st8" points="181.9,257.9 182.3,261.5 184.4,261.5 183.3,257.9 "/>
<polygon class="st7" points="176.2,195.4 176.3,196.5 185.2,284.5 189.3,284.3 179.9,196.5 179.8,195.5 "/>
<polygon class="st8" points="139.4,261.6 142.1,261.6 142.4,257.9 139.7,257.9 "/>
<polygon class="st7" points="135.1,284.3 139.2,284.5 148.1,196.5 148.2,195.4 144.6,195.5 144.5,196.5 "/>
<rect x="117.7" y="108.7" class="st10" width="90.1" height="86.4"/>
<path class="st7" d="M161,79.7v20.9h3.5V79.7c0-1-0.7-1.8-1.7-1.8s-1.8,0.7-1.8,1.7C161,79.7,161,79.7,161,79.7z"/>
<rect x="161" y="98.7" class="st8" width="3.5" height="1.9"/>
<path class="st7" d="M159.6,100.2v6.9h6.3v-6.9c0-0.5-0.4-0.9-0.9-0.9l0,0h-4.5C160,99.3,159.6,99.7,159.6,100.2z"/>
<circle class="st8" cx="162.7" cy="103.7" r="1.3"/>
<circle class="st11" cx="162.7" cy="103.4" r="1.3"/>
<rect x="159.6" y="106.2" class="st8" width="6.3" height="0.9"/>
<rect x="157.1" y="107.3" class="st8" width="11.4" height="1.9"/>
<rect x="157.1" y="106.7" class="st7" width="11.4" height="1.9"/>
<path class="st8" d="M185.8,192.8h-47.9c-1.1,0-2.1,0.9-2.1,2.1v0.4l0,0h52.1l0,0v-0.4C187.9,193.8,187,192.8,185.8,192.8z"/>
<polygon class="st8" points="179.8,195.5 176.2,195.4 176.3,196.5 179.9,196.5 "/>
<rect x="158.7" y="195.5" class="st8" width="6.7" height="1"/>
<polygon class="st8" points="144.5,196.5 148.1,196.5 148.2,195.4 144.6,195.5 "/>
<path class="st7" d="M185.8,193.4h-47.9c-1.1,0-2.1,0.9-2.1,2.1v0.4l0,0h52.1l0,0v-0.4C187.9,194.3,187,193.4,185.8,193.4z"/>
<ellipse class="st5" cx="327.3" cy="313.4" rx="14.1" ry="2.7"/>
<ellipse class="st5" cx="93.1" cy="295.3" rx="10.2" ry="2"/>
<ellipse class="st5" cx="48.7" cy="303.4" rx="10.2" ry="2"/>
<ellipse class="st5" cx="117.4" cy="320.1" rx="10.2" ry="2"/>
<path class="st12" d="M314,237.1c0,0-2.3,3,1,7.6c3.4,4.5,6.1,8.4,5,11.2c0,0-5.1-8.4-9.2-8.6S309.5,242.2,314,237.1z"/>
<path class="st8" d="M314,237.1c-0.2,0.3-0.3,0.6-0.5,1c-4,4.7-6.2,9.2-2.3,9.3c3.6,0.1,8,6.6,9,8.2c0,0.1-0.1,0.3-0.1,0.4
	c0,0-5.1-8.4-9.2-8.6C306.8,247.3,309.5,242.2,314,237.1z"/>
<path class="st13" d="M309.8,241c0,1,0.1,1.9,0.3,1.9s0.3-0.9,0.3-1.9s-0.2-0.6-0.3-0.6C309.9,240.4,309.8,239.9,309.8,241z"/>
<path class="st13" d="M308.3,242.2c0.9,0.5,1.7,0.8,1.8,0.7s-0.6-0.6-1.6-1.1c-0.9-0.5-0.6-0.1-0.6,0
	C307.8,241.9,307.4,241.7,308.3,242.2z"/>
<path class="st12" d="M326.2,237.1c0,0,2.3,3-1,7.6s-6.1,8.4-5,11.2c0,0,5.1-8.4,9.2-8.6C333.5,247.2,330.7,242.2,326.2,237.1z"/>
<path class="st8" d="M326.2,237.1c0.2,0.3,0.3,0.6,0.5,1c4,4.7,6.2,9.2,2.3,9.3c-3.6,0.1-8,6.6-9,8.2c0,0.1,0.1,0.3,0.1,0.4
	c0,0,5.1-8.4,9.2-8.6C333.5,247.2,330.7,242.2,326.2,237.1z"/>
<path class="st13" d="M330.5,241c0,1-0.1,1.9-0.3,1.9c-0.1,0-0.3-0.9-0.3-1.9s0.2-0.6,0.3-0.6S330.5,239.9,330.5,241z"/>
<path class="st13" d="M331.9,242.2c-0.9,0.5-1.7,0.8-1.8,0.7s0.6-0.6,1.6-1.1c0.9-0.5,0.6-0.1,0.6,0
	C332.4,241.9,332.9,241.7,331.9,242.2z"/>
<ellipse class="st14" cx="320.1" cy="275.2" rx="24.1" ry="3.7"/>
<path class="st15" d="M307.7,251.8l0.1,1l0.2,1.3l0.1,0.5l0.2,1.3l0.1,0.5l0.2,1.3l1.8,15.1c0.2,1.3,2.4,2.4,5,2.4h9.5
	c2.7,0,4.9-1,5-2.4l1.8-15.1l0.2-1.3l0.1-0.4l0.2-1.3l0.1-0.5l0.2-1.3l0.1-1c0.1-0.8-1.1-1.4-2.6-1.4h-19.6
	C308.8,250.4,307.6,251.1,307.7,251.8z"/>
<polygon class="st16" points="307.9,252.8 308,254.1 332.2,254.1 332.4,252.8 "/>
<polygon class="st16" points="308.1,254.7 308.3,256 332,256 332.2,254.7 "/>
<polygon class="st16" points="308.3,256.5 308.5,257.9 331.8,257.9 331.9,256.5 "/>
<circle class="st5" cx="299" cy="110.3" r="10"/>
<ellipse class="st5" cx="320" cy="86.5" rx="6.2" ry="6.2"/>
<circle class="st5" cx="352.4" cy="100.3" r="3.8"/>
<ellipse transform="matrix(0.6362 -0.7715 0.7715 0.6362 -31.0737 199.899)" class="st17" cx="196.4" cy="132.9" rx="2.2" ry="10.1"/>
<path class="st18" d="M208,147.2c0,0-1-17.2-6.1-13.3c-5.2,3.9,2.3,14.9,2.3,14.9L208,147.2z"/>
<path class="st18" d="M227.2,198.2c0,0-11.4,12.9-5.1,13.7c6.4,0.9,8.9-12.1,8.9-12.1L227.2,198.2z"/>
<path class="st19" d="M242.2,137.3L242.2,137.3c-2.9,0.8-5.1,3.2-5.6,6.3l-3.7,26l-5.1,20.7c0,0-2.5,2.3-1.5,3.6s-1.3,6.6-1.3,6.6
	l6.4,2c0,0,0.8-5.4,2-5.6c1.1-0.2,13.7-33.8,16.7-42c0.4-1.1,0.7-1.7,0.7-1.7S250.4,136,242.2,137.3z"/>
<path class="st20" d="M241,272.6l-3.9,7c-3.1,6.5-0.3,7.7,7.1,4.5l1.7-8.2L241,272.6z"/>
<path class="st21" d="M239,281.9c0,0-1.9-3-2.5-2.5c-0.7,0.5-3.5,2.7-3.5,2.7l-3.6,3.5c0,0-12.2,1.3-4.5,5.6
	c7.8,4.3,12.1,0.7,12.1,0.7s10.9,0.6,10.7-2.5c-0.2-3.1-3.7-7.9-3.7-7.9S239.6,284.5,239,281.9z"/>
<path class="st22" d="M258.4,194l-3.7,44.5c0,0-0.1,26.6-4,31.8c-3.9,5.2-4,7.7-4,7.7l-8.1-4.2c0,0,4.2-6.9,3.3-8
	c-0.5-0.7-0.9-1.5-1.1-2.3L243,236l-4.2-47.8L258.4,194z"/>
<polygon class="st20" points="248.4,272.6 251.8,281.7 259.6,278.4 255.5,271.6 "/>
<path class="st21" d="M254.1,278.6c0,0-2.9-1.8-3.3-1.1c-0.3,0.7-1.8,3.8-1.8,3.8l-1.7,4.5c0,0-10.1,6.4-1.5,6.7
	c8.6,0.3,10.7-4.5,10.7-4.5s9.7-4.2,8.2-6.7s-6.6-5.2-6.6-5.2S255.7,280.6,254.1,278.6z"/>
<path class="st22" d="M227.3,194.1l-2,41c0,0,17.9,37,19.9,38c1.2,0.6,2.1,1.7,2.4,3l10.8-2.7l-4.9-7.9l-10.8-26.2
	c0,0-1.7-0.7-2.2-3.2c-0.5-2.4-1.5-2.4,1-3c2.4-0.5,2.4-3,2.4-3l8.1-37.3L227.3,194.1z"/>
<circle class="st18" cx="236.1" cy="120.1" r="9.8"/>
<path class="st18" d="M244.8,120.7c0,0,0.7,12.5,1.7,13.7s-10.3,1-10.3,1s0.7-10.6,0-11.5C235.5,122.9,244.8,120.7,244.8,120.7z"/>
<path class="st19" d="M226.5,196.8c0,0,27.7-2.4,32.9,0c0,0-1.9-7-1.4-7.8c0.3-0.5-0.6-20.6-0.3-32.1c0.2-6.5,1.7-12.9-2.7-17.7
	c-1.5-1.7-3.1-3-4.9-3.7c0,0,0.5-4.6-2-4.9c0,0-9.3-1-12.8,2c-1.1,0.9-1.8,3.8-1.9,6.2c1.7,8.4,1.1,17.6-0.4,27.2
	c-0.1,0.6-0.2,1.2-0.3,1.8C231.1,177.4,228.6,187.2,226.5,196.8z"/>
<path class="st17" d="M241.2,122.9c-0.8-0.1-1.7,0.2-2.4,0.3c-3,0.4-6-1.7-6.7-4.6c-0.1-0.4-0.2-0.8-0.3-1.1
	c-0.4-0.7-1.5-0.9-2.4-0.7c-0.9,0.2-1.7,0.6-2.5,0.6c-1.3,0.1-2.6-0.8-3.3-1.9c-0.7-1.2-1-2.5-0.8-3.9l0.6,0.7
	c0.3-0.5,0.3-1.2,0.3-1.8c0.7-0.2,1.4,0,1.9,0.5c0.6,0.1,0.1-1,0.6-1.4c0.2-0.1,0.4-0.2,0.7-0.1c1.2,0,2.2-0.9,3.1-1.7
	c1.7-1.3,3.6-2.2,5.6-2.6c1.4-0.3,2.8-0.3,4.1,0.2c1,0.5,2,1.1,2.8,2c2,1.9,3.8,4.2,4.6,6.9c0.7,2.2,0.7,4.5,0.1,6.7
	c-0.3,1.1-1.4,5.1-2.9,5.2C242.4,126.3,243.6,123.1,241.2,122.9z"/>
<path class="st19" d="M237.2,138.5l-3.5,0.4c0,0-3.4,6.7-3.2,8.1c0.2,1.4,0.8,0.5-0.8,2.8c-1.6,2.2-5.9,8-6.5,8.8
	s-15.4-10.5-14.5-13.9c0,0-4.7,3.4-6.7,3.8c0,0,15.3,20.1,17.5,22.7c2.1,2.6,3.8,2,6.8,0.5s17.8-16.7,17.8-16.7L237.2,138.5z"/>
<path class="st8" d="M232.7,167.9l12.2-12.2l-3.1-1l-8.8,11.4C233,166.7,232.9,167.3,232.7,167.9z"/>
</svg>
