<?xml version="1.0" encoding="utf-8"?>
<!-- Generator: Adobe Illustrator 22.0.1, SVG Export Plug-In . SVG Version: 6.00 Build 0)  -->
<svg version="1.1" id="Layer_1" xmlns="http://www.w3.org/2000/svg" xmlns:xlink="http://www.w3.org/1999/xlink" x="0px" y="0px"
	 viewBox="0 0 1300 400" style="enable-background:new 0 0 1300 400;" xml:space="preserve">
<style type="text/css">
	.st0{fill:url(#SVGID_1_);stroke:#000000;stroke-width:1.6452;stroke-miterlimit:10;}
	.st1{fill:#F2F2F2;}
	.st2{fill:#8E8E8E;}
	.st3{opacity:3.000000e-02;enable-background:new    ;}
</style>
<linearGradient id="SVGID_1_" gradientUnits="userSpaceOnUse" x1="2165.429" y1="201.5" x2="2600" y2="201.5" gradientTransform="matrix(2.9915 0 0 1 -6477.7852 0)">
	<stop  offset="0" style="stop-color:#00354D"/>
	<stop  offset="0.4129" style="stop-color:#00364F"/>
	<stop  offset="0.5616" style="stop-color:#003C56"/>
	<stop  offset="0.6676" style="stop-color:#004561"/>
	<stop  offset="0.7534" style="stop-color:#005272"/>
	<stop  offset="0.8268" style="stop-color:#006388"/>
	<stop  offset="0.8918" style="stop-color:#0078A4"/>
	<stop  offset="0.9492" style="stop-color:#0091C3"/>
	<stop  offset="1" style="stop-color:#00ACE6"/>
	<stop  offset="1" style="stop-color:#0093C7"/>
	<stop  offset="1" style="stop-color:#0075A3"/>
	<stop  offset="1" style="stop-color:#005B83"/>
	<stop  offset="1" style="stop-color:#004567"/>
	<stop  offset="1" style="stop-color:#003351"/>
	<stop  offset="1" style="stop-color:#002540"/>
	<stop  offset="1" style="stop-color:#001B35"/>
	<stop  offset="1" style="stop-color:#00162E"/>
	<stop  offset="1" style="stop-color:#00142C"/>
</linearGradient>
<rect y="1.5" class="st0" width="1300" height="400"/>
<path class="st1" d="M109,213c2.8,1.1,7.6,2.1,13.2,2.8c15.2,2.1,36.1,2.8,36.1,2.8s107.3,10,187.7-27.1c0,0,11.7-6.9,0.8-16.1
	c-1.7-1.4-3.4-2.6-5.3-3.6l-0.1-0.2c-1.2-1.3-2.6-2.4-4-3.4c-4.2-3-11.2-6.6-19.8-5l-211.2,38.3C106.5,201.5,98.7,208.8,109,213z"/>
<path class="st1" d="M151.1,195.7l-44.2-35.2l-19.5,3.8l19.1,37.2C106.5,201.5,150.6,201.9,151.1,195.7z"/>
<polygon class="st1" points="262.3,174.3 174.3,146.6 160.1,149.9 199.9,170 212.3,185.6 "/>
<path class="st2" d="M122.2,215.9c15.2,2.1,36.1,2.8,36.1,2.8s107.3,10,187.7-27.1c0,0,11.7-6.9,0.8-16.1v0.2
	c0,0-17.3,13.2-100.2,24.1L122.2,215.9z"/>
<path class="st1" d="M136.3,215.1l-39.4,18l-9.9-1.2l23.5-19.9C110.6,212,139.1,205.2,136.3,215.1z"/>
<path class="st2" d="M332.5,177.5c1.9,0,6.2-3.5,8.9-5.9c-1.2-1.3-2.6-2.4-4-3.4c-2.2,1.9-6,4.9-8.1,4.7
	C326.1,172.8,329.6,177.4,332.5,177.5z"/>
<path class="st1" d="M153.6,277.4l25.3,1.5l71.1-53.7l13.2-10l6.4-4.8c-12-11.4-61.1,4.3-61.1,4.3c-0.9,0.9-1.2,2.4-1.2,4
	c0.1,3.1,1.4,6.6,1.9,7.9c0.1,0.3,0.2,0.5,0.2,0.5L153.6,277.4z"/>
<path class="st1" d="M236.9,249.5l4.4,3.1l-2.7-5.4c0.8-0.7,1.7-1,2.7-1h0.1c0.3,0,0.6,0,0.9-0.1l1.5,1l-0.6-1.3
	c1-0.4,1.9-1.2,2.6-2.2l2.7,1.9l-1.7-3.4c1.6-2.1,3.6-3.4,5.9-3.4c2.8,0,5.2,1.8,6.8,4.7c1,1.7,2.7,2.8,4.5,2.7h0.1
	c3,0,5.5,3.9,5.5,8.7s-2.5,8.7-5.5,8.7c-0.7,0-1.3-0.2-1.9-0.5c-2.1-1.1-4.5-1.2-6.7-0.2c-1.8,0.9-3.9,0.9-5.7,0
	c-2.1-1-4.5-1-6.6,0.2c-0.6,0.3-1.2,0.5-1.9,0.5c-3,0-5.5-3.9-5.5-8.7C235.7,253,236.1,251.2,236.9,249.5z"/>
<path class="st3" d="M245.1,262.2c1.6-0.3,3.2-0.1,4.7,0.6c1.8,0.9,3.9,0.9,5.7,0c2.1-1,4.6-1,6.7,0.2c0.6,0.3,1.2,0.5,1.9,0.5
	c2.7,0,5-3.1,5.4-7.1c-0.5-0.4-1-1-1.4-1.6c-1.6-2.9-4.1-4.7-6.8-4.7s-5.2,1.8-6.8,4.6c-1,1.7-2.7,2.8-4.5,2.8h-0.1
	C247.9,257.5,246,259.4,245.1,262.2z"/>
<path class="st1" d="M113.1,245.4l4.4,3.1l-2.7-5.4c0.8-0.7,1.7-1,2.7-1h0.1c0.3,0,0.6,0,0.9-0.1l1.5,1l-0.6-1.3
	c1-0.4,1.9-1.2,2.6-2.2l2.7,1.9L123,238c1.6-2.1,3.6-3.4,5.9-3.4c2.8,0,5.2,1.8,6.8,4.7c1,1.7,2.7,2.8,4.5,2.7h0.1
	c3,0,5.5,3.9,5.5,8.7s-2.5,8.7-5.5,8.7c-0.7,0-1.3-0.2-1.9-0.5c-2.1-1.1-4.5-1.2-6.7-0.2c-1.8,0.9-3.9,0.9-5.7,0
	c-2.1-1-4.5-1-6.6,0.2c-0.6,0.3-1.2,0.5-1.9,0.5c-3,0-5.5-3.9-5.5-8.7C111.9,248.9,112.3,247.1,113.1,245.4z"/>
<path class="st3" d="M121.3,258.1c1.6-0.3,3.2-0.1,4.7,0.6c1.8,0.9,3.9,0.9,5.7,0c2.1-1,4.6-1,6.7,0.2c0.6,0.3,1.2,0.5,1.9,0.5
	c2.7,0,5-3.1,5.4-7.1c-0.5-0.4-1-1-1.4-1.6c-1.6-2.9-4-4.7-6.8-4.7s-5.2,1.8-6.8,4.6c-1,1.7-2.7,2.8-4.5,2.8h-0.1
	C124.1,253.3,122.2,255.3,121.3,258.1z"/>
<path class="st1" d="M113.1,141.7l4.4,3.1l-2.7-5.4c0.8-0.7,1.7-1,2.7-1.1h0.1c0.3,0,0.6,0,0.9-0.1l1.5,1l-0.6-1.3
	c1-0.4,1.9-1.2,2.6-2.2l2.7,1.9l-1.7-3.4c1.6-2.1,3.6-3.4,5.9-3.4c2.8,0,5.2,1.8,6.8,4.7c1,1.7,2.7,2.8,4.5,2.7h0.1
	c3,0,5.5,3.9,5.5,8.7s-2.5,8.7-5.5,8.7c-0.7,0-1.3-0.2-1.9-0.5c-2.1-1.1-4.5-1.2-6.7-0.2c-1.8,0.9-3.9,0.9-5.7,0
	c-2.1-1-4.5-1-6.6,0.2c-0.6,0.3-1.2,0.5-1.9,0.5c-3,0-5.5-3.9-5.5-8.7C111.9,145.1,112.3,143.3,113.1,141.7z"/>
<path class="st3" d="M121.3,154.4c1.6-0.3,3.2-0.1,4.7,0.6c1.8,0.9,3.9,0.9,5.7,0c2.1-1,4.6-1,6.7,0.2c0.6,0.3,1.2,0.5,1.9,0.5
	c2.7,0,5-3.1,5.4-7.1c-0.5-0.4-1-1-1.4-1.6c-1.6-2.9-4-4.7-6.8-4.7s-5.2,1.8-6.8,4.6c-1,1.7-2.7,2.8-4.5,2.8h-0.1
	C124.1,149.6,122.2,151.5,121.3,154.4z"/>
<path class="st1" d="M294.1,130.5l2.2,1.5l-1.3-2.7c0.4-0.3,0.8-0.5,1.3-0.5l0,0c0.1,0,0.3,0,0.5,0l0.7,0.5l-0.3-0.6
	c0.5-0.2,1-0.6,1.3-1.1l1.3,0.9l-0.8-1.7c0.7-1,1.8-1.6,3-1.7c1.4,0,2.6,0.9,3.4,2.3c0.5,0.9,1.4,1.4,2.3,1.4h0.1
	c1.5,0,2.8,1.9,2.8,4.3s-1.2,4.3-2.8,4.3c-0.3,0-0.7-0.1-1-0.3c-1-0.6-2.3-0.6-3.3-0.1c-0.9,0.4-1.9,0.4-2.8,0
	c-1.1-0.5-2.3-0.5-3.3,0.1c-0.3,0.2-0.6,0.3-1,0.3c-1.5,0-2.8-1.9-2.8-4.3C293.5,132.2,293.7,131.3,294.1,130.5z"/>
<path class="st3" d="M298.2,136.8c0.8-0.2,1.6-0.1,2.4,0.3c0.5,0.2,0.9,0.3,1.4,0.3s1-0.1,1.4-0.3c1.1-0.5,2.3-0.5,3.3,0.1
	c0.3,0.2,0.6,0.3,1,0.3c1.4,0,2.5-1.5,2.7-3.5c-0.3-0.2-0.5-0.5-0.7-0.8c-0.8-1.4-2-2.3-3.4-2.3s-2.6,0.9-3.4,2.3
	c-0.5,0.9-1.3,1.4-2.3,1.4l0,0C299.6,134.5,298.7,135.4,298.2,136.8z"/>
<path class="st1" d="M99.5,285.2l2.2,1.5l-1.3-2.7c0.4-0.3,0.8-0.5,1.3-0.5l0,0c0.1,0,0.3,0,0.5,0l0.7,0.5l-0.3-0.6
	c0.5-0.2,1-0.6,1.3-1.1l1.3,0.9l-0.8-1.7c0.7-1,1.8-1.6,3-1.7c1.4,0,2.6,0.9,3.4,2.3c0.5,0.9,1.4,1.4,2.3,1.4h0.1
	c1.5,0,2.8,1.9,2.8,4.3s-1.2,4.3-2.8,4.3c-0.3,0-0.7-0.1-1-0.3c-1-0.6-2.3-0.6-3.3-0.1c-0.9,0.4-1.9,0.4-2.8,0
	c-1.1-0.5-2.3-0.5-3.3,0.1c-0.3,0.2-0.6,0.3-1,0.3c-1.5,0-2.8-1.9-2.8-4.3C99,286.9,99.2,286,99.5,285.2z"/>
<path class="st3" d="M103.7,291.5c0.8-0.2,1.6-0.1,2.4,0.3c0.5,0.2,0.9,0.3,1.4,0.3s1-0.1,1.4-0.3c1.1-0.5,2.3-0.5,3.3,0.1
	c0.3,0.2,0.6,0.3,1,0.3c1.4,0,2.5-1.5,2.7-3.5c-0.3-0.2-0.5-0.5-0.7-0.8c-0.8-1.4-2-2.3-3.4-2.3s-2.6,0.9-3.4,2.3
	c-0.5,0.9-1.3,1.4-2.3,1.4l0,0C105,289.1,104.1,290.1,103.7,291.5z"/>
<path class="st1" d="M302.6,293.4l2.2,1.5l-1.3-2.7c0.4-0.3,0.8-0.5,1.3-0.5l0,0c0.1,0,0.3,0,0.5,0l0.7,0.5l-0.3-0.6
	c0.5-0.2,1-0.6,1.3-1.1l1.3,0.9l-0.8-1.7c0.7-1,1.8-1.6,3-1.7c1.4,0,2.6,0.9,3.4,2.3c0.5,0.9,1.4,1.4,2.3,1.4h0.1
	c1.5,0,2.8,1.9,2.8,4.3s-1.2,4.3-2.8,4.3c-0.3,0-0.7-0.1-1-0.3c-1-0.6-2.3-0.6-3.3-0.1c-0.9,0.4-1.9,0.4-2.8,0
	c-1.1-0.5-2.3-0.5-3.3,0.1c-0.3,0.2-0.6,0.3-1,0.3c-1.5,0-2.8-1.9-2.8-4.3C302,295.1,302.2,294.2,302.6,293.4z"/>
<path class="st3" d="M306.7,299.7c0.8-0.2,1.6-0.1,2.4,0.3c0.5,0.2,0.9,0.3,1.4,0.3s1-0.1,1.4-0.3c1.1-0.5,2.3-0.5,3.3,0.1
	c0.3,0.2,0.6,0.3,1,0.3c1.4,0,2.5-1.5,2.7-3.5c-0.3-0.2-0.5-0.5-0.7-0.8c-0.8-1.4-2-2.3-3.4-2.3s-2.6,0.9-3.4,2.3
	c-0.5,0.9-1.3,1.4-2.3,1.4l0,0C308.1,297.3,307.1,298.3,306.7,299.7z"/>
<path class="st1" d="M201.6,98.4l4.4,3.1l-2.7-5.4c0.8-0.7,1.7-1,2.7-1.1h0.1c0.3,0,0.6,0,0.9-0.1l1.5,1l-0.6-1.3
	c1-0.4,1.9-1.2,2.6-2.2l2.7,1.9l-1.7-3.4c1.5-2.1,3.6-3.4,5.9-3.4c2.8,0,5.2,1.8,6.8,4.7c1,1.7,2.7,2.8,4.5,2.7h0.1
	c3,0,5.5,3.9,5.5,8.7s-2.5,8.7-5.5,8.7c-0.7,0-1.3-0.2-1.9-0.5c-2.1-1.1-4.5-1.2-6.7-0.2c-1.8,0.9-3.9,0.9-5.7,0
	c-2.1-1-4.5-1-6.6,0.1c-0.6,0.3-1.2,0.5-1.9,0.5c-3,0-5.5-3.9-5.5-8.7C200.5,101.8,200.9,100,201.6,98.4z"/>
<path class="st3" d="M209.9,111c1.6-0.3,3.2-0.1,4.7,0.6c1.8,0.9,3.9,0.9,5.7,0c2.1-1,4.6-1,6.7,0.2c0.6,0.3,1.2,0.5,1.9,0.5
	c2.7,0,5-3.1,5.4-7.1c-0.5-0.4-1-1-1.4-1.6c-1.6-2.9-4.1-4.7-6.8-4.7c-2.8,0-5.2,1.8-6.8,4.6c-1,1.7-2.7,2.8-4.5,2.8h-0.1
	C212.7,106.3,210.8,108.2,209.9,111z"/>
<path class="st1" d="M52.2,152.6l2.2,1.5l-1.3-2.7c0.4-0.3,0.8-0.5,1.3-0.5l0,0c0.1,0,0.3,0,0.5,0l0.7,0.5l-0.3-0.6
	c0.5-0.2,1-0.6,1.3-1.1l1.3,0.9l-0.8-1.7c0.7-1,1.8-1.6,3-1.7c1.4,0,2.6,0.9,3.4,2.3c0.5,0.9,1.4,1.4,2.3,1.4h0.1
	c1.5,0,2.8,1.9,2.8,4.3c0,2.4-1.2,4.3-2.8,4.3c-0.3,0-0.7-0.1-1-0.3c-1-0.6-2.3-0.6-3.3-0.1c-0.9,0.4-1.9,0.4-2.8,0
	c-1.1-0.5-2.3-0.5-3.3,0.1c-0.3,0.2-0.6,0.3-1,0.3c-1.5,0-2.8-1.9-2.8-4.3C51.6,154.4,51.8,153.5,52.2,152.6z"/>
<path class="st3" d="M56.3,159c0.8-0.2,1.6-0.1,2.4,0.3c0.5,0.2,0.9,0.3,1.4,0.3s1-0.1,1.4-0.3c1.1-0.5,2.3-0.5,3.3,0.1
	c0.3,0.2,0.6,0.3,1,0.3c1.4,0,2.5-1.5,2.7-3.5c-0.3-0.2-0.5-0.5-0.7-0.8c-0.8-1.4-2-2.3-3.4-2.3s-2.6,0.9-3.4,2.3
	c-0.5,0.9-1.3,1.4-2.2,1.4l0,0C57.7,156.6,56.7,157.6,56.3,159z"/>
</svg>
