<?xml version="1.0" encoding="utf-8"?>
<!-- Generator: Adobe Illustrator 22.0.1, SVG Export Plug-In . SVG Version: 6.00 Build 0)  -->
<svg version="1.1" id="Layer_1" xmlns="http://www.w3.org/2000/svg" xmlns:xlink="http://www.w3.org/1999/xlink" x="0px" y="0px"
	 viewBox="0 0 1300 400" style="enable-background:new 0 0 1300 400;" xml:space="preserve">
<style type="text/css">
	.st0{fill:url(#SVGID_1_);stroke:#000000;stroke-width:1.6452;stroke-miterlimit:10;}
	.st1{fill:#F2F2F2;}
	.st2{fill:#8E8E8E;}
	.st3{opacity:3.000000e-02;enable-background:new    ;}
</style>
<linearGradient id="SVGID_1_" gradientUnits="userSpaceOnUse" x1="650" y1="198.4786" x2="1950" y2="198.4786" gradientTransform="matrix(-1 0 0 -1 1950 400)">
	<stop  offset="0" style="stop-color:#00354D"/>
	<stop  offset="0.4129" style="stop-color:#00364F"/>
	<stop  offset="0.5616" style="stop-color:#003C56"/>
	<stop  offset="0.6676" style="stop-color:#004561"/>
	<stop  offset="0.7534" style="stop-color:#005272"/>
	<stop  offset="0.8268" style="stop-color:#006388"/>
	<stop  offset="0.8918" style="stop-color:#0078A4"/>
	<stop  offset="0.9492" style="stop-color:#0091C3"/>
	<stop  offset="1" style="stop-color:#00ACE6"/>
	<stop  offset="1" style="stop-color:#0093C7"/>
	<stop  offset="1" style="stop-color:#0075A3"/>
	<stop  offset="1" style="stop-color:#005B83"/>
	<stop  offset="1" style="stop-color:#004567"/>
	<stop  offset="1" style="stop-color:#003351"/>
	<stop  offset="1" style="stop-color:#002540"/>
	<stop  offset="1" style="stop-color:#001B35"/>
	<stop  offset="1" style="stop-color:#00162E"/>
	<stop  offset="1" style="stop-color:#00142C"/>
</linearGradient>
<rect y="1.5" class="st0" width="1300" height="400"/>
<path class="st1" d="M1191,213c-2.8,1.1-7.6,2.1-13.2,2.8c-15.2,2.1-36.1,2.8-36.1,2.8s-107.3,10-187.7-27.1c0,0-11.7-6.9-0.8-16.1
	c1.7-1.4,3.4-2.6,5.3-3.6l0.1-0.2c1.2-1.3,2.6-2.4,4-3.4c4.2-3,11.2-6.6,19.8-5l211.2,38.3C1193.5,201.5,1201.3,208.8,1191,213z"/>
<path class="st1" d="M1148.9,195.7l44.2-35.2l19.5,3.8l-19.1,37.2C1193.5,201.5,1149.4,201.9,1148.9,195.7z"/>
<polygon class="st1" points="1037.7,174.3 1125.7,146.6 1139.9,149.9 1100.1,170 1087.7,185.6 "/>
<path class="st2" d="M1177.8,215.9c-15.2,2.1-36.1,2.8-36.1,2.8s-107.3,10-187.7-27.1c0,0-11.7-6.9-0.8-16.1l0,0.2
	c0,0,17.3,13.2,100.2,24.1L1177.8,215.9z"/>
<path class="st1" d="M1163.7,215.1l39.4,18l9.9-1.2l-23.5-19.9C1189.4,212,1160.9,205.2,1163.7,215.1z"/>
<path class="st2" d="M967.5,177.5c-1.9,0-6.2-3.5-8.9-5.9c1.2-1.3,2.6-2.4,4-3.4c2.2,1.9,6,4.9,8.1,4.7
	C973.9,172.8,970.4,177.4,967.5,177.5z"/>
<path class="st1" d="M1146.4,277.4l-25.3,1.5l-71.1-53.7l-13.2-10l-6.4-4.8c12-11.4,61.1,4.3,61.1,4.3c0.9,0.9,1.2,2.4,1.2,4
	c-0.1,3.1-1.4,6.6-1.9,7.9c-0.1,0.3-0.2,0.5-0.2,0.5L1146.4,277.4z"/>
<path class="st1" d="M1063.1,249.5l-4.4,3.1l2.7-5.4c-0.8-0.7-1.7-1-2.7-1h-0.1c-0.3,0-0.6,0-0.9-0.1l-1.5,1l0.6-1.3
	c-1-0.4-1.9-1.2-2.6-2.2l-2.7,1.9l1.7-3.4c-1.6-2.1-3.6-3.4-5.9-3.4c-2.8,0-5.2,1.8-6.8,4.7c-1,1.7-2.7,2.8-4.5,2.7h-0.1
	c-3,0-5.5,3.9-5.5,8.7s2.5,8.7,5.5,8.7c0.7,0,1.3-0.2,1.9-0.5c2.1-1.1,4.5-1.2,6.7-0.2c1.8,0.9,3.9,0.9,5.7,0c2.1-1,4.5-1,6.6,0.2
	c0.6,0.3,1.2,0.5,1.9,0.5c3,0,5.5-3.9,5.5-8.7C1064.3,253,1063.9,251.2,1063.1,249.5z"/>
<path class="st3" d="M1054.9,262.2c-1.6-0.3-3.2-0.1-4.7,0.6c-1.8,0.9-3.9,0.9-5.7,0c-2.1-1-4.6-1-6.7,0.2c-0.6,0.3-1.2,0.5-1.9,0.5
	c-2.7,0-5-3.1-5.4-7.1c0.5-0.4,1-1,1.4-1.6c1.6-2.9,4.1-4.7,6.8-4.7s5.2,1.8,6.8,4.6c1,1.7,2.7,2.8,4.5,2.8h0.1
	C1052.1,257.5,1054,259.4,1054.9,262.2z"/>
<path class="st1" d="M1186.9,245.4l-4.4,3.1l2.7-5.4c-0.8-0.7-1.7-1-2.7-1h-0.1c-0.3,0-0.6,0-0.9-0.1l-1.5,1l0.6-1.3
	c-1-0.4-1.9-1.2-2.6-2.2l-2.7,1.9l1.7-3.4c-1.6-2.1-3.6-3.4-5.9-3.4c-2.8,0-5.2,1.8-6.8,4.7c-1,1.7-2.7,2.8-4.5,2.7h-0.1
	c-3,0-5.5,3.9-5.5,8.7s2.5,8.7,5.5,8.7c0.7,0,1.3-0.2,1.9-0.5c2.1-1.1,4.5-1.2,6.7-0.2c1.8,0.9,3.9,0.9,5.7,0c2.1-1,4.5-1,6.6,0.2
	c0.6,0.3,1.2,0.5,1.9,0.5c3,0,5.5-3.9,5.5-8.7C1188.1,248.9,1187.7,247.1,1186.9,245.4z"/>
<path class="st3" d="M1178.7,258.1c-1.6-0.3-3.2-0.1-4.7,0.6c-1.8,0.9-3.9,0.9-5.7,0c-2.1-1-4.6-1-6.7,0.2c-0.6,0.3-1.2,0.5-1.9,0.5
	c-2.7,0-5-3.1-5.4-7.1c0.5-0.4,1-1,1.4-1.6c1.6-2.9,4-4.7,6.8-4.7s5.2,1.8,6.8,4.6c1,1.7,2.7,2.8,4.5,2.8h0.1
	C1175.9,253.3,1177.8,255.3,1178.7,258.1z"/>
<path class="st1" d="M1186.9,141.7l-4.4,3.1l2.7-5.4c-0.8-0.7-1.7-1-2.7-1.1h-0.1c-0.3,0-0.6,0-0.9-0.1l-1.5,1l0.6-1.3
	c-1-0.4-1.9-1.2-2.6-2.2l-2.7,1.9l1.7-3.4c-1.6-2.1-3.6-3.4-5.9-3.4c-2.8,0-5.2,1.8-6.8,4.7c-1,1.7-2.7,2.8-4.5,2.7h-0.1
	c-3,0-5.5,3.9-5.5,8.7s2.5,8.7,5.5,8.7c0.7,0,1.3-0.2,1.9-0.5c2.1-1.1,4.5-1.2,6.7-0.2c1.8,0.9,3.9,0.9,5.7,0c2.1-1,4.5-1,6.6,0.2
	c0.6,0.3,1.2,0.5,1.9,0.5c3,0,5.5-3.9,5.5-8.7C1188.1,145.1,1187.7,143.3,1186.9,141.7z"/>
<path class="st3" d="M1178.7,154.4c-1.6-0.3-3.2-0.1-4.7,0.6c-1.8,0.9-3.9,0.9-5.7,0c-2.1-1-4.6-1-6.7,0.2c-0.6,0.3-1.2,0.5-1.9,0.5
	c-2.7,0-5-3.1-5.4-7.1c0.5-0.4,1-1,1.4-1.6c1.6-2.9,4-4.7,6.8-4.7s5.2,1.8,6.8,4.6c1,1.7,2.7,2.8,4.5,2.8h0.1
	C1175.9,149.6,1177.8,151.5,1178.7,154.4z"/>
<path class="st1" d="M1005.9,130.5l-2.2,1.5l1.3-2.7c-0.4-0.3-0.8-0.5-1.3-0.5h0c-0.1,0-0.3,0-0.5,0l-0.7,0.5l0.3-0.6
	c-0.5-0.2-1-0.6-1.3-1.1l-1.3,0.9l0.8-1.7c-0.7-1-1.8-1.6-3-1.7c-1.4,0-2.6,0.9-3.4,2.3c-0.5,0.9-1.4,1.4-2.3,1.4h-0.1
	c-1.5,0-2.8,1.9-2.8,4.3s1.2,4.3,2.8,4.3c0.3,0,0.7-0.1,1-0.3c1-0.6,2.3-0.6,3.3-0.1c0.9,0.4,1.9,0.4,2.8,0c1.1-0.5,2.3-0.5,3.3,0.1
	c0.3,0.2,0.6,0.3,1,0.3c1.5,0,2.8-1.9,2.8-4.3C1006.5,132.2,1006.3,131.3,1005.9,130.5z"/>
<path class="st3" d="M1001.8,136.8c-0.8-0.2-1.6-0.1-2.4,0.3c-0.5,0.2-0.9,0.3-1.4,0.3s-1-0.1-1.4-0.3c-1.1-0.5-2.3-0.5-3.3,0.1
	c-0.3,0.2-0.6,0.3-1,0.3c-1.4,0-2.5-1.5-2.7-3.5c0.3-0.2,0.5-0.5,0.7-0.8c0.8-1.4,2-2.3,3.4-2.3s2.6,0.9,3.4,2.3
	c0.5,0.9,1.3,1.4,2.3,1.4h0C1000.4,134.5,1001.3,135.4,1001.8,136.8z"/>
<path class="st1" d="M1200.5,285.2l-2.2,1.5l1.3-2.7c-0.4-0.3-0.8-0.5-1.3-0.5h0c-0.1,0-0.3,0-0.5,0l-0.7,0.5l0.3-0.6
	c-0.5-0.2-1-0.6-1.3-1.1l-1.3,0.9l0.8-1.7c-0.7-1-1.8-1.6-3-1.7c-1.4,0-2.6,0.9-3.4,2.3c-0.5,0.9-1.4,1.4-2.3,1.4h-0.1
	c-1.5,0-2.8,1.9-2.8,4.3c0,2.4,1.2,4.3,2.8,4.3c0.3,0,0.7-0.1,1-0.3c1-0.6,2.3-0.6,3.3-0.1c0.9,0.4,1.9,0.4,2.8,0
	c1.1-0.5,2.3-0.5,3.3,0.1c0.3,0.2,0.6,0.3,1,0.3c1.5,0,2.8-1.9,2.8-4.3C1201,286.9,1200.8,286,1200.5,285.2z"/>
<path class="st3" d="M1196.3,291.5c-0.8-0.2-1.6-0.1-2.4,0.3c-0.5,0.2-0.9,0.3-1.4,0.3s-1-0.1-1.4-0.3c-1.1-0.5-2.3-0.5-3.3,0.1
	c-0.3,0.2-0.6,0.3-1,0.3c-1.4,0-2.5-1.5-2.7-3.5c0.3-0.2,0.5-0.5,0.7-0.8c0.8-1.4,2-2.3,3.4-2.3s2.6,0.9,3.4,2.3
	c0.5,0.9,1.3,1.4,2.3,1.4h0C1195,289.1,1195.9,290.1,1196.3,291.5z"/>
<path class="st1" d="M997.4,293.4l-2.2,1.5l1.3-2.7c-0.4-0.3-0.8-0.5-1.3-0.5h0c-0.1,0-0.3,0-0.5,0l-0.7,0.5l0.3-0.6
	c-0.5-0.2-1-0.6-1.3-1.1l-1.3,0.9l0.8-1.7c-0.7-1-1.8-1.6-3-1.7c-1.4,0-2.6,0.9-3.4,2.3c-0.5,0.9-1.4,1.4-2.3,1.4h-0.1
	c-1.5,0-2.8,1.9-2.8,4.3c0,2.4,1.2,4.3,2.8,4.3c0.3,0,0.7-0.1,1-0.3c1-0.6,2.3-0.6,3.3-0.1c0.9,0.4,1.9,0.4,2.8,0
	c1.1-0.5,2.3-0.5,3.3,0.1c0.3,0.2,0.6,0.3,1,0.3c1.5,0,2.8-1.9,2.8-4.3C998,295.1,997.8,294.2,997.4,293.4z"/>
<path class="st3" d="M993.3,299.7c-0.8-0.2-1.6-0.1-2.4,0.3c-0.5,0.2-0.9,0.3-1.4,0.3s-1-0.1-1.4-0.3c-1.1-0.5-2.3-0.5-3.3,0.1
	c-0.3,0.2-0.6,0.3-1,0.3c-1.4,0-2.5-1.5-2.7-3.5c0.3-0.2,0.5-0.5,0.7-0.8c0.8-1.4,2-2.3,3.4-2.3s2.6,0.9,3.4,2.3
	c0.5,0.9,1.3,1.4,2.3,1.4h0C991.9,297.3,992.9,298.3,993.3,299.7z"/>
<path class="st1" d="M1098.4,98.4l-4.4,3.1l2.7-5.4c-0.8-0.7-1.7-1-2.7-1.1h-0.1c-0.3,0-0.6,0-0.9-0.1l-1.5,1l0.6-1.3
	c-1-0.4-1.9-1.2-2.6-2.2l-2.7,1.9l1.7-3.4c-1.5-2.1-3.6-3.4-5.9-3.4c-2.8,0-5.2,1.8-6.8,4.7c-1,1.7-2.7,2.8-4.5,2.7h-0.1
	c-3,0-5.5,3.9-5.5,8.7s2.5,8.7,5.5,8.7c0.7,0,1.3-0.2,1.9-0.5c2.1-1.1,4.5-1.2,6.7-0.2c1.8,0.9,3.9,0.9,5.7,0c2.1-1,4.5-1,6.6,0.1
	c0.6,0.3,1.2,0.5,1.9,0.5c3,0,5.5-3.9,5.5-8.7C1099.5,101.8,1099.1,100,1098.4,98.4z"/>
<path class="st3" d="M1090.1,111c-1.6-0.3-3.2-0.1-4.7,0.6c-1.8,0.9-3.9,0.9-5.7,0c-2.1-1-4.6-1-6.7,0.2c-0.6,0.3-1.2,0.5-1.9,0.5
	c-2.7,0-5-3.1-5.4-7.1c0.5-0.4,1-1,1.4-1.6c1.6-2.9,4.1-4.7,6.8-4.7c2.8,0,5.2,1.8,6.8,4.6c1,1.7,2.7,2.8,4.5,2.8h0.1
	C1087.3,106.3,1089.2,108.2,1090.1,111z"/>
<path class="st1" d="M1247.8,152.6l-2.2,1.5l1.3-2.7c-0.4-0.3-0.8-0.5-1.3-0.5h0c-0.1,0-0.3,0-0.5,0l-0.7,0.5l0.3-0.6
	c-0.5-0.2-1-0.6-1.3-1.1l-1.3,0.9l0.8-1.7c-0.7-1-1.8-1.6-3-1.7c-1.4,0-2.6,0.9-3.4,2.3c-0.5,0.9-1.4,1.4-2.3,1.4h-0.1
	c-1.5,0-2.8,1.9-2.8,4.3c0,2.4,1.2,4.3,2.8,4.3c0.3,0,0.7-0.1,1-0.3c1-0.6,2.3-0.6,3.3-0.1c0.9,0.4,1.9,0.4,2.8,0
	c1.1-0.5,2.3-0.5,3.3,0.1c0.3,0.2,0.6,0.3,1,0.3c1.5,0,2.8-1.9,2.8-4.3C1248.4,154.4,1248.2,153.5,1247.8,152.6z"/>
<path class="st3" d="M1243.7,159c-0.8-0.2-1.6-0.1-2.4,0.3c-0.5,0.2-0.9,0.3-1.4,0.3c-0.5,0-1-0.1-1.4-0.3c-1.1-0.5-2.3-0.5-3.3,0.1
	c-0.3,0.2-0.6,0.3-1,0.3c-1.4,0-2.5-1.5-2.7-3.5c0.3-0.2,0.5-0.5,0.7-0.8c0.8-1.4,2-2.3,3.4-2.3s2.6,0.9,3.4,2.3
	c0.5,0.9,1.3,1.4,2.2,1.4h0C1242.3,156.6,1243.3,157.6,1243.7,159z"/>
</svg>
