<?xml version="1.0" encoding="utf-8"?>
<!-- Generator: Adobe Illustrator 22.0.1, SVG Export Plug-In . SVG Version: 6.00 Build 0)  -->
<svg version="1.1" id="Layer_1" xmlns="http://www.w3.org/2000/svg" xmlns:xlink="http://www.w3.org/1999/xlink" x="0px" y="0px"
	 viewBox="0 0 1300 400" style="enable-background:new 0 0 1300 400;" xml:space="preserve">
<style type="text/css">
	.st0{fill:url(#SVGID_1_);stroke:#000000;stroke-width:1.6452;stroke-miterlimit:10;}
	.st1{fill:#3F3D56;}
	.st2{fill:#0D8CD8;}
	.st3{fill:#F2F2F2;}
	.st4{opacity:3.000000e-02;enable-background:new    ;}
</style>
<linearGradient id="SVGID_1_" gradientUnits="userSpaceOnUse" x1="0" y1="200" x2="246.6686" y2="200" gradientTransform="matrix(-5.2702 0 0 -1 1300 400)">
	<stop  offset="0" style="stop-color:#007194"/>
	<stop  offset="1" style="stop-color:#41C1C9"/>
</linearGradient>
<rect class="st0" width="1300" height="400"/>
<path class="st1" d="M141.2,209.7c3.1,1.1,8.7,2,15,2.6c17.3,1.8,41.1,2.2,41.1,2.2s122.1,8.3,213-30.7c0,0,13.2-7.2,0.7-16.4
	c-1.9-1.4-4-2.6-6.1-3.6l-0.2-0.1c-1.4-1.3-3-2.4-4.6-3.4c-4.8-3-12.8-6.5-22.5-4.7L138.1,198C138.2,198.1,129.5,205.6,141.2,209.7z
	"/>
<path class="st1" d="M188.8,191.4L138,156.5l-22.1,4.2l22.3,37.4C138.2,198.1,188.3,197.7,188.8,191.4z"/>
<polygon class="st1" points="315,167.8 214.5,141.3 198.4,144.9 243.9,164.6 258.3,180.2 "/>
<path class="st2" d="M156.3,212.4c17.3,1.8,41.1,2.2,41.1,2.2s122.1,8.3,213-30.7c0,0,13.2-7.2,0.7-16.4v0.2
	c0,0-19.5,13.6-113.6,26.2L156.3,212.4z"/>
<path class="st1" d="M172.3,211.4l-44.5,18.9l-11.3-1.1l26.5-20.5C143.1,208.7,175.3,201.3,172.3,211.4z"/>
<path class="st2" d="M394.8,169.9c2.1,0,7-3.7,10-6.1c-1.4-1.3-3-2.4-4.6-3.4c-2.4,1.9-6.7,5-9.2,4.9
	C387.5,165.2,391.6,169.8,394.8,169.9z"/>
<path class="st1" d="M193,274.2l28.8,1.1l80-55.7l14.8-10.3l7.2-5c-13.8-11.3-69.4,5.4-69.4,5.4c-1.1,0.9-1.4,2.4-1.3,4.1
	c0.1,3.1,1.6,6.7,2.2,8c0.1,0.3,0.2,0.5,0.2,0.5L193,274.2z"/>
<path class="st3" d="M287.2,244.6l5,3.1l-3.1-5.4c0.8-0.7,1.9-1.1,3-1.1h0.1c0.3,0,0.7,0,1-0.1l1.7,1l-0.7-1.3
	c1.2-0.4,2.2-1.2,2.9-2.3l3,1.9l-2-3.4c1.7-2.1,4.1-3.5,6.7-3.5c3.1,0,6,1.8,7.8,4.7c1.1,1.8,3.1,2.8,5.2,2.7h0.2
	c3.5-0.1,6.3,3.8,6.4,8.7c0.1,4.8-2.7,8.8-6.1,8.9c-0.8,0-1.5-0.2-2.2-0.5c-2.4-1.1-5.2-1.1-7.6,0c-2,0.9-4.4,1-6.5,0.1
	c-2.4-1-5.2-0.9-7.5,0.3c-0.7,0.4-1.4,0.6-2.2,0.6c-3.5,0.1-6.3-3.8-6.4-8.7C285.9,248.1,286.3,246.2,287.2,244.6z"/>
<path class="st4" d="M296.8,257.3c1.8-0.4,3.7-0.2,5.4,0.5c2.1,0.9,4.4,0.9,6.5-0.1c2.4-1.1,5.2-1.1,7.6,0c0.7,0.3,1.4,0.5,2.2,0.5
	c3.1,0,5.6-3.2,6.1-7.3c-0.6-0.4-1.2-1-1.6-1.6c-1.8-2.9-4.7-4.7-7.8-4.7s-5.9,1.9-7.6,4.8c-1.1,1.8-3,2.9-5.1,2.9h-0.1
	C299.8,252.4,297.8,254.4,296.8,257.3z"/>
<path class="st3" d="M146.4,242.5l5,3.1l-3.1-5.4c0.8-0.7,1.9-1.1,3-1.1h0.1c0.3,0,0.7,0,1-0.1l1.7,1l-0.7-1.3
	c1.2-0.4,2.2-1.2,2.9-2.3l3,1.9l-2-3.4c1.7-2.1,4.1-3.5,6.7-3.5c3.1,0,6,1.8,7.8,4.7c1.1,1.8,3.1,2.8,5.2,2.7h0.2
	c3.5-0.1,6.3,3.8,6.4,8.7s-2.7,8.8-6.1,8.9c-0.8,0-1.5-0.2-2.2-0.5c-2.4-1.1-5.2-1.1-7.6,0c-2,0.9-4.4,1-6.5,0.1
	c-2.4-1-5.2-0.9-7.5,0.3c-0.7,0.4-1.4,0.6-2.2,0.6c-3.5,0.1-6.3-3.8-6.4-8.7C145.1,246,145.5,244.2,146.4,242.5z"/>
<path class="st4" d="M155.9,255.2c1.8-0.4,3.7-0.2,5.4,0.5c2.1,0.9,4.4,0.9,6.5-0.1c2.4-1.1,5.2-1.1,7.6,0c0.7,0.3,1.4,0.5,2.2,0.5
	c3.1,0,5.6-3.2,6.1-7.3c-0.6-0.4-1.2-1-1.6-1.6c-1.8-2.9-4.7-4.7-7.8-4.7c-3.1,0-5.9,1.9-7.6,4.8c-1.1,1.8-3,2.9-5.1,2.9h-0.1
	C159,250.3,156.9,252.3,155.9,255.2z"/>
<path class="st3" d="M144.8,137.3l5,3.1l-3.1-5.4c0.8-0.7,1.9-1.1,3-1.1h0.1c0.3,0,0.7,0,1-0.1l1.7,1l-0.7-1.3
	c1.2-0.4,2.2-1.2,2.9-2.3l3,1.9l-2-3.4c1.7-2.1,4.1-3.5,6.7-3.5c3.1,0,6,1.8,7.8,4.7c1.1,1.8,3.1,2.8,5.2,2.7h0.2
	c3.5-0.1,6.3,3.8,6.4,8.7c0.1,4.8-2.7,8.8-6.1,8.9c-0.8,0-1.5-0.2-2.2-0.5c-2.4-1.1-5.2-1.1-7.6,0c-2,1-4.4,1-6.5,0.1
	c-2.4-1-5.2-0.9-7.5,0.3c-0.7,0.4-1.4,0.6-2.2,0.6c-3.5,0.1-6.3-3.8-6.4-8.7C143.5,140.9,143.9,139,144.8,137.3z"/>
<path class="st4" d="M154.4,150c1.8-0.4,3.7-0.2,5.4,0.5c2.1,0.9,4.4,0.9,6.5-0.1c2.4-1.1,5.2-1.1,7.6,0c0.7,0.3,1.4,0.5,2.2,0.5
	c3.1,0,5.6-3.2,6.1-7.3c-0.6-0.4-1.2-1-1.6-1.6c-1.8-2.9-4.7-4.7-7.8-4.7c-3.1,0-5.9,1.9-7.6,4.8c-1.1,1.8-3,2.9-5.1,2.9H160
	C157.4,145.2,155.3,147.2,154.4,150z"/>
<path class="st3" d="M350.5,122.9l2.5,1.5l-1.5-2.7c0.4-0.3,0.9-0.5,1.5-0.6l0,0c0.2,0,0.3,0,0.5,0l0.8,0.5l-0.4-0.6
	c0.6-0.2,1.1-0.6,1.5-1.1l1.5,0.9l-1-1.7c0.8-1.1,2-1.7,3.3-1.8c1.6,0,3,0.9,3.9,2.3c0.6,0.9,1.5,1.4,2.6,1.3h0.1
	c1.7,0,3.2,1.9,3.2,4.3s-1.3,4.4-3.1,4.4c-0.4,0-0.8-0.1-1.1-0.3c-1.2-0.6-2.6-0.6-3.8,0c-1,0.5-2.2,0.5-3.2,0
	c-1.2-0.5-2.6-0.5-3.8,0.1c-0.3,0.2-0.7,0.3-1.1,0.3c-1.7,0-3.2-1.9-3.2-4.3C349.8,124.7,350,123.7,350.5,122.9z"/>
<path class="st4" d="M355.2,129.2c0.9-0.2,1.8-0.1,2.7,0.3c0.5,0.2,1.1,0.3,1.6,0.3c0.6,0,1.1-0.1,1.6-0.4c1.2-0.5,2.6-0.5,3.8,0
	c0.3,0.2,0.7,0.3,1.1,0.3c1.5,0,2.8-1.6,3-3.6c-0.3-0.2-0.6-0.5-0.8-0.8c-0.9-1.4-2.3-2.3-3.9-2.3c-1.6,0-2.9,1-3.8,2.4
	c-0.5,0.9-1.5,1.4-2.5,1.4l0,0C356.8,126.8,355.7,127.8,355.2,129.2z"/>
<path class="st3" d="M131.6,283l2.5,1.5l-1.5-2.7c0.4-0.3,0.9-0.5,1.5-0.6l0,0c0.2,0,0.3,0,0.5,0l0.8,0.5l-0.4-0.6
	c0.6-0.2,1.1-0.6,1.5-1.1l1.5,0.9l-1-1.7c0.8-1.1,2-1.7,3.3-1.8c1.6,0,3,0.9,3.9,2.3c0.6,0.9,1.5,1.4,2.6,1.3h0.1
	c1.7,0,3.2,1.9,3.2,4.3s-1.3,4.4-3.1,4.4c-0.4,0-0.8-0.1-1.1-0.3c-1.2-0.6-2.6-0.6-3.8,0c-1,0.5-2.2,0.5-3.2,0
	c-1.2-0.5-2.6-0.5-3.8,0.1c-0.3,0.2-0.7,0.3-1.1,0.3c-1.7,0-3.2-1.9-3.2-4.3C131,284.8,131.2,283.9,131.6,283z"/>
<path class="st4" d="M136.4,289.4c0.9-0.2,1.8-0.1,2.7,0.3c0.5,0.2,1.1,0.3,1.6,0.3c0.6,0,1.1-0.1,1.6-0.4c1.2-0.5,2.6-0.5,3.8,0
	c0.3,0.2,0.7,0.3,1.1,0.3c1.5,0,2.8-1.6,3-3.6c-0.3-0.2-0.6-0.5-0.8-0.8c-0.9-1.4-2.3-2.3-3.9-2.3s-2.9,1-3.8,2.4
	c-0.5,0.9-1.5,1.4-2.5,1.4l0,0C137.9,286.9,136.9,287.9,136.4,289.4z"/>
<path class="st3" d="M362.6,287.9l2.5,1.5l-1.5-2.7c0.4-0.3,0.9-0.5,1.5-0.6l0,0c0.2,0,0.3,0,0.5,0l0.8,0.5L366,286
	c0.6-0.2,1.1-0.6,1.5-1.1l1.5,0.9l-1-1.7c0.8-1.1,2-1.7,3.3-1.8c1.6,0,3,0.9,3.9,2.3c0.6,0.9,1.5,1.4,2.6,1.3h0.1
	c1.7,0,3.2,1.9,3.2,4.3s-1.3,4.4-3.1,4.4c-0.4,0-0.8-0.1-1.1-0.3c-1.2-0.6-2.6-0.6-3.8,0c-1,0.5-2.2,0.5-3.2,0
	c-1.2-0.5-2.6-0.5-3.8,0.1c-0.3,0.2-0.7,0.3-1.1,0.3c-1.7,0-3.2-1.9-3.2-4.3C361.9,289.7,362.1,288.7,362.6,287.9z"/>
<path class="st4" d="M367.3,294.2c0.9-0.2,1.8-0.1,2.7,0.3c0.5,0.2,1.1,0.3,1.6,0.3c0.6,0,1.1-0.1,1.6-0.4c1.2-0.5,2.6-0.5,3.8,0
	c0.3,0.2,0.7,0.3,1.1,0.3c1.5,0,2.8-1.6,3-3.6c-0.3-0.2-0.6-0.5-0.8-0.8c-0.9-1.4-2.3-2.3-3.9-2.3c-1.6,0-2.9,1-3.8,2.4
	c-0.5,0.9-1.5,1.4-2.5,1.4l0,0C368.9,291.8,367.8,292.8,367.3,294.2z"/>
<path class="st3" d="M244.8,91.9l5,3.1l-3.1-5.4c0.8-0.7,1.9-1.1,3-1.1h0.1c0.3,0,0.7,0,1-0.1l1.7,1l-0.7-1.3
	c1.2-0.4,2.2-1.2,2.9-2.3l3,1.9l-2-3.4c1.7-2.1,4.1-3.5,6.7-3.5c3.1,0,6,1.8,7.8,4.7c1.1,1.8,3.1,2.8,5.2,2.7h0.2
	c3.5-0.1,6.3,3.8,6.4,8.7c0.1,4.8-2.7,8.8-6.1,8.9c-0.8,0-1.5-0.2-2.2-0.5c-2.4-1.1-5.2-1.1-7.6,0c-2,1-4.4,1-6.5,0.1
	c-2.4-1-5.2-0.9-7.5,0.3c-0.7,0.4-1.4,0.6-2.2,0.6c-3.5,0.1-6.3-3.8-6.4-8.7C243.5,95.4,244,93.6,244.8,91.9z"/>
<path class="st4" d="M254.4,104.6c1.8-0.4,3.7-0.2,5.4,0.5c2.1,0.9,4.4,0.9,6.5-0.1c2.4-1.1,5.2-1.1,7.6,0c0.7,0.3,1.4,0.5,2.2,0.5
	c3.1,0,5.6-3.2,6.1-7.3c-0.6-0.4-1.2-1-1.6-1.6c-1.8-2.9-4.7-4.7-7.8-4.7s-5.9,1.9-7.6,4.8c-1.1,1.8-3,2.9-5.1,2.9H260
	C257.5,99.7,255.4,101.7,254.4,104.6z"/>
<path class="st3" d="M75.7,149.5l2.5,1.5l-1.5-2.7c0.4-0.3,0.9-0.5,1.5-0.6l0,0c0.2,0,0.3,0,0.5,0l0.8,0.5l-0.4-0.6
	c0.6-0.2,1.1-0.6,1.5-1.1l1.5,0.9l-1-1.7c0.8-1.1,2-1.7,3.3-1.8c1.6,0,3,0.9,3.9,2.3c0.6,0.9,1.5,1.4,2.6,1.3H91
	c1.7,0,3.2,1.9,3.2,4.3c0,2.4-1.3,4.4-3.1,4.4c-0.4,0-0.8-0.1-1.1-0.3c-1.2-0.6-2.6-0.6-3.8,0c-1,0.5-2.2,0.5-3.2,0
	c-1.2-0.5-2.6-0.5-3.8,0.1c-0.3,0.2-0.7,0.3-1.1,0.3c-1.7,0-3.2-1.9-3.2-4.3C75.1,151.2,75.3,150.3,75.7,149.5z"/>
<path class="st4" d="M80.5,155.8c0.9-0.2,1.8-0.1,2.7,0.3c0.5,0.2,1.1,0.3,1.6,0.3c0.6,0,1.1-0.1,1.6-0.4c1.2-0.5,2.6-0.5,3.8,0
	c0.3,0.2,0.7,0.3,1.1,0.3c1.5,0,2.8-1.6,3-3.6c-0.3-0.2-0.6-0.5-0.8-0.8c-0.9-1.4-2.3-2.3-3.9-2.3s-2.9,1-3.8,2.4
	c-0.5,0.9-1.5,1.4-2.5,1.4l0,0C82,153.4,81,154.4,80.5,155.8z"/>
</svg>
