<?xml version="1.0" encoding="utf-8"?>
<!-- Generator: Adobe Illustrator 22.0.1, SVG Export Plug-In . SVG Version: 6.00 Build 0)  -->
<svg version="1.1" id="Layer_1" xmlns="http://www.w3.org/2000/svg" xmlns:xlink="http://www.w3.org/1999/xlink" x="0px" y="0px"
	 viewBox="0 0 1300 400" style="enable-background:new 0 0 1300 400;" xml:space="preserve">
<style type="text/css">
	.st0{fill:url(#SVGID_1_);stroke:#000000;stroke-width:1.6452;stroke-miterlimit:10;}
	.st1{opacity:0.1;fill:#0D8CD8;enable-background:new    ;}
	.st2{fill:#3A3768;}
	.st3{fill:#D48A9B;}
	.st4{opacity:5.000000e-02;enable-background:new    ;}
	.st5{fill:#EFC6CD;}
	.st6{opacity:0.1;enable-background:new    ;}
	.st7{fill:#FFFFFF;}
	.st8{fill:#D3DAE1;}
	.st9{fill:url(#SVGID_2_);}
	.st10{fill:#585B8A;}
	.st11{opacity:0.2;enable-background:new    ;}
	.st12{fill:#636992;}
	.st13{fill:#FFD6D6;}
	.st14{fill:#DCE6F2;}
	.st15{fill:#565988;}
	.st16{fill:#505484;}
	.st17{fill:#575988;}
	.st18{fill:#D28690;}
	.st19{fill:#575989;}
	.st20{fill:#353045;}
	.st21{fill:#F0F3F7;}
	.st22{fill:#663D5C;}
	.st23{fill:#0D8CD8;}
	.st24{opacity:0.3;enable-background:new    ;}
	.st25{opacity:0.15;}
	.st26{fill:#FFD037;}
	.st27{fill:#65617D;}
	.st28{fill:#9D9CB5;}
	.st29{fill:#4B4770;}
	.st30{fill:#D4DFEC;}
</style>
<linearGradient id="SVGID_1_" gradientUnits="userSpaceOnUse" x1="0" y1="201.9" x2="225.6285" y2="201.9" gradientTransform="matrix(-5.7617 0 0 -1 1300 400)">
	<stop  offset="0" style="stop-color:#007194"/>
	<stop  offset="1" style="stop-color:#41C1C9"/>
</linearGradient>
<rect y="-1.9" class="st0" width="1300" height="400"/>
<path class="st1" d="M321.4,143.9H321c0.3-0.1,0.5-0.4,0.5-0.7l0,0c0-0.5-0.8-0.9-1.7-0.9h-12.1c-0.9,0-1.7,0.4-1.7,0.9l0,0
	c0,0.5,0.8,0.9,1.7,0.9h0.3c-0.3,0.1-0.5,0.4-0.5,0.7c0,0.4,0.6,0.8,1.3,0.9h-3.5c-1,0-1.7,0.4-1.7,0.9s0.8,0.9,1.7,0.9h12.1
	c1,0,1.7-0.4,1.7-0.9c0-0.4-0.6-0.8-1.3-0.9h3.5c1,0,1.7-0.4,1.7-0.9S322.3,143.9,321.4,143.9z"/>
<ellipse transform="matrix(0.9798 -0.2002 0.2002 0.9798 -43.4734 35.2729)" class="st1" cx="152.7" cy="232.6" rx="60.5" ry="18.4"/>
<path class="st2" d="M159.5,181c0,0-3.2-15.8-15.5-14.3c0,0-8.5,0.6-10.2,6.1v12.3L159.5,181z"/>
<polygon class="st3" points="92.2,186.9 201.7,177.8 215.7,180.7 214.8,200.3 213.9,200.4 212.8,229.9 105.4,249.2 94,239.5 
	94,207.6 92.5,206.8 "/>
<polygon class="st4" points="92.1,186.9 92.4,206.8 104.2,212.3 104.4,191.5 "/>
<polygon class="st4" points="94,207.6 93.8,239 105.2,248.6 104.5,212.3 "/>
<polygon class="st4" points="213.7,201.6 104.4,215 104.4,212.4 213.8,200.6 "/>
<polygon class="st4" points="94,208.8 94,207.6 104.8,212.4 104.8,215 "/>
<polygon class="st5" points="215.9,180.7 201.8,177.8 92.4,186.9 104.6,191.5 "/>
<polygon class="st6" points="104,187.4 98.6,187.8 107.5,190.4 112.1,190.1 "/>
<polygon class="st7" points="104,187.2 98.6,187.5 107.5,190.2 112.1,189.9 "/>
<path class="st8" d="M104.7,187.8c-0.2-0.1-0.4,0.1-0.7,0.1c-0.1,0-0.3,0-0.4,0c-0.3,0-0.5,0.2-0.8,0.1"/>
<path class="st8" d="M104.9,188c-0.2-0.1-0.4,0.1-0.7,0.1c-0.1,0-0.3,0-0.4,0c-0.3,0-0.5,0.2-0.8,0.1"/>
<path class="st8" d="M105.6,188.3c-0.2-0.1-0.4,0.1-0.7,0.1c-0.1,0-0.3,0-0.4,0c-0.3,0-0.5,0.2-0.8,0.1"/>
<polygon class="st6" points="127.2,184.8 121.9,185.1 130.8,187.8 135.3,187.5 "/>
<polygon class="st7" points="127.2,184.5 121.9,184.9 130.8,187.6 135.3,187.2 "/>
<path class="st8" d="M127.9,185.1c-0.2-0.1-0.4,0.1-0.7,0.1c-0.1,0-0.3,0-0.4,0c-0.3,0-0.5,0.2-0.8,0.1"/>
<path class="st8" d="M128.2,185.3c-0.2-0.1-0.4,0.1-0.7,0.1c-0.1,0-0.3,0-0.4,0c-0.3,0-0.5,0.2-0.8,0.1"/>
<path class="st8" d="M128.8,185.6c-0.2-0.1-0.4,0.1-0.7,0.1c-0.1,0-0.3,0-0.4,0c-0.3,0-0.5,0.2-0.8,0.1"/>
<polygon class="st6" points="116.1,186.1 110.7,186.5 119.6,189.1 124.2,188.8 "/>
<polygon class="st7" points="116.1,185.9 110.7,186.2 119.6,188.9 124.2,188.6 "/>
<path class="st8" d="M116.7,186.5c-0.2-0.1-0.4,0.1-0.7,0.1c-0.1,0-0.3,0-0.4,0c-0.3,0-0.5,0.2-0.8,0.1"/>
<path class="st8" d="M117,186.6c-0.2-0.1-0.4,0.1-0.7,0.1c-0.1,0-0.3,0-0.4,0c-0.3,0-0.5,0.2-0.8,0.1"/>
<path class="st8" d="M117.7,187c-0.2-0.1-0.4,0.1-0.7,0.1c-0.1,0-0.3,0-0.4,0c-0.3,0-0.5,0.2-0.8,0.1"/>
<ellipse class="st1" cx="237.7" cy="284.3" rx="57.3" ry="11.8"/>
<linearGradient id="SVGID_2_" gradientUnits="userSpaceOnUse" x1="185.7928" y1="126.1672" x2="185.7928" y2="291.9691" gradientTransform="matrix(-5.7617 0 0 1 1300 0)">
	<stop  offset="0" style="stop-color:#808080;stop-opacity:0.25"/>
	<stop  offset="0.54" style="stop-color:#808080;stop-opacity:0.12"/>
	<stop  offset="1" style="stop-color:#808080;stop-opacity:0.1"/>
</linearGradient>
<path class="st9" d="M174.9,187.7c0.6-5.4,3-10.5,3-10.5l-0.2-1.8c0,0,0-0.9,0-2.3c0-0.8-0.1-1.7-0.3-2.5c-0.5-1.6,0.6-3.5,0.7-3.7
	s-0.1-3.6,1.1-5.3c1.1-1.7,8.5-4.8,8.5-4.8s0.4-0.8,1-1.8l-0.1-0.1c0.5-0.8,1-1.6,1.7-2.3c0.5-0.5,0.9-0.8,1.2-0.6
	c0.1-0.5,0.3-0.9,0.3-1.4c-0.1,0-0.2,0-0.2,0.1c-0.3,0.1-0.6,0.1-0.9,0c-0.7-0.2-1.1-0.8-1.5-1.4c-1.9-2.9-3.6-6.1-3.9-9.6
	c-0.1-0.7-0.1-1.4,0.1-2.1c0.2-0.5,0.4-1.1,0.7-1.5c0.5-1,1.1-1.9,1.9-2.8c1.3-1.4,3.1-2.2,5-2.7c2.1-0.6,4.3-0.7,6.5-0.5
	c0.6,0.1,1.1,0.2,1.7,0.2c0.7,0,1.4,0,2.2,0l3.7-0.2V130h0.6c0.2,0.5,0,1.1-0.3,1.5c-0.3,0.5-0.7,0.9-0.6,1.5s0.4,1,0.7,1.4
	c0.3,0.5,0.5,1,0.2,1.5c0,0.1-0.1,0.1-0.2,0.2c-0.3,0.3-0.9,0.4-1.4,0.4H206c1.2,1.6,1.9,3.6,1.9,5.6c0,3.5-2,6.7-5.1,8.3
	c-0.1,0.2-0.1,0.4-0.2,0.6c-0.6,2-0.8,4.1-0.6,6.1l0.1,0.1V157c0,0,4.4,3,5.7,3.7c1.3,0.8,2.6,3.4,2.7,4.2
	c0.1,0.7,2.1,11.7,2.1,11.7c0.4,1.1,0.8,2.2,1,3.4l2.6,2.3c0,0,5.4,0.5,6.9,0.1v0.3c1.4-0.3,2.8-0.5,4.2-0.6c0.8-0.1,1.5,0,2.3,0.3
	h0.1l0,0c0.8,0.1,1.6,0.3,2.4,0.7c0.1,0,0.2,0.1,0.3,0.1v-0.4l5.8-0.3l3-0.6c0,0,1.1-0.8,1.7-0.7s1.9-0.7,1.9-0.7
	c0.3-0.2,0.6-0.4,1-0.6c0.1-0.7,0.2-1.1,0.2-1.1s2.3-9.2,4-14.6c1.2-3.6,2.8-5.4,3.8-6.2c0.4-0.8,0.7-1.3,0.7-1.3
	c0.2-0.7,1.2-2.2,1.5-2.2c0-0.1,0.1-0.1,0.1-0.1c0.1,0,0.1,0,0.2,0c0.5-2.4,0.8-5.5,0-8.1c-2.1-1.7-3.3-4.2-3.3-6.9v-0.1v-0.1
	c0-2.1,0.7-4.1,2.1-5.7l0.1-0.1c0,0-0.1,0-0.1-0.1c-0.4-0.4-0.6-0.9-0.5-1.5c0.1-0.5,0.6-1,0.8-1.5c0.1-0.4,0.2-0.8,0.3-1.2
	c0.2-0.6,0.5-1.1,0.9-1.6v0.1c1.1-1.2,3-1.9,4.7-1.6c1.3,0.2,2.5,0.8,3.7,1c0.9,0.1,1.9,0,2.8,0.1s1.7,0.3,2.5,0.7
	c0.2,0.1,0.4,0.2,0.5,0.4s0.2,0.5,0.3,0.7c0.3,1.1,1.3,2,2,2.9c0.8,1.1,1.3,2.4,1.4,3.8c0,0.3,0,0.7-0.1,1c-0.1,0.2-0.2,0.4-0.2,0.6
	c-0.1,0.6,0.2,1.2,0.3,1.9c0.2,0.8,0.1,1.6-0.2,2.4c-1.1,2.5-4.8,3.3-5.6,6c-0.6,0.3-1.2,0.5-1.8,0.6c-0.1,0.3-0.1,0.5-0.1,0.8l0,0
	c1,1,1.2,2.8,1.2,2.8l0.1,0.1c0.4,0.3,1.8,1.5,3,2.3c1.5,1,4,4.5,5.7,5.5s3.2,7.4,2.8,9.7s-1.9,8.8-1.3,11.1
	c0.6,2.4-0.9,13.1-0.9,13.1c-1,0.2-2.1,0.5-3,0.9v0.5l0.1,1.4c0,0,2.8,10.1,1.7,18c-1.1,7.8,0.5,8.6,0.5,8.6s-0.3,3.5,0.5,4.7
	s1,3.9,1,3.9s0.1,6-0.1,7.6c-0.2,1.7-0.2,4.8,0.3,5.5c0.6,0.7,1.7,5.5,1.6,6.9c-0.1,1.4,2.1,4.8,0.9,9c-1.2,4.3,3.4,4.3,3.4,4.3
	s-0.6,6.5-1.8,8.4l-0.2,0.3c0,0.1,0.1,0.2,0.1,0.3c0.5,1.7,1.1,4.4,0.7,5c-0.7,1-1,0.8-1,0.8l-0.2,4.3c0,0-5,4.2-8.8,4s-3.1-4-3.1-4
	l3.2-8.4l0.1-0.3l-3.6-6.8c0,0-1-3-1.2-4s-1.6-4.8-1.6-4.8s-3.4-8.1-3.5-9c-0.1-1-0.3-6.2-1-7.2c-0.7-1.1-2.5-7.1-2.5-7.1l0,0
	c-0.6,0.6-0.9,1.5-0.6,2.4c0.4,1.5,0.2,4.7,0.2,4.7s0.2,2.7,0.5,4c0.3,1.4,0.4,12.6-0.2,15.2c-0.5,2.1-0.4,6.1-0.4,7.6
	c0.4,1.6,0.7,3.6,0.1,3.8c-1.1,0.4-6.5,0.3-6.5,0.3s-2.3-0.8-5.5,2c-3.1,2.8-12.8-0.8-12.8-0.8s-3-0.8,2.9-3.1
	c4.1-1.6,6.7-2.7,8.5-3.9c0-0.1-0.1-0.2-0.1-0.2s2.4-2.3,0.4-6.3s-1.9-7.4-1.9-7.4l-0.3-13.5l1-18l0.8-18.9h-0.1
	c-0.1,3.5-0.8,11.7-4.3,10.1c-4.5-2-0.7-7.2-0.7-7.2l2-3.9l-0.6-0.2l2.2-7.2c0.2-1.4,0.2-2.8,0.1-4.3c0-0.8,0-1.7,0.1-2.5
	c-2.9-0.5-5.7-1.1-6.2-0.9c-0.6,0.1-3.9,0.2-5.2,0.2c0.4,0.3,0.8,0.7,0.8,0.7l-5.3,3.6c0,0-1.8-1-2.2-2c-0.4-0.1-0.7-0.3-1-0.5
	c-0.1,1.2-0.4,2.6-1.5,2.6c-0.3,0-0.6-0.1-0.8-0.2l-8.7-1.7l0.7,4.7l-0.5,0.9c0.3,3.9,0.6,8.1,0.8,11.8l0.1,0.8h-0.1
	c0.4,5.7,0.7,10,0.7,10c-0.5-0.9-1.2-1.7-2.2-2.2l-0.1,8.4c0,0-0.4,13.3-0.4,15.1s-0.1,5.9-0.1,5.9s-0.9,5-1.5,6.6s-1,9.1-1,9.1
	s-1.3,2.1-0.7,2.8s-2.2,2.5-2.2,2.5s1.7,2.4,1.9,3.9c0,0.2-0.2,0.4-0.5,0.6c0.1,0.1,0.2,0.2,0.3,0.2c0.8,0.5,2,0.9,3.8,0.8
	c4.8-0.4,8.2,4,5.3,5s-11.9,1.1-11.9,1.1s-2.7-1.7-4.8-0.9c0,1.8-0.1,3.4-0.1,3.6l0,0c1.3,1.1,3.7,3.1,6,3.9
	c3.4,1.1,4.2,5.8-0.2,6.4c-4.4,0.6-10.8-0.7-10.8-0.7s-3.3-2.5-5.9-3c-2.5-0.5-4.7-1.8-4.3-3.2c0.3-0.9,1-3.4,1.5-5
	c0-0.1,0.1-0.2,0.1-0.3c-0.1-0.2-0.2-0.3-0.2-0.5c0,0,1.3-6.8,0.2-8.5c-1.1-1.7-0.5-18.6-0.5-18.6s1.8-4.3,0.9-6.9
	c-0.9-2.6,1.5-6.3,1.5-6.3s-0.3-7.4-1-11.5c0-0.2-0.1-0.3-0.1-0.5c-1.2-0.4-2.3-0.8-3.5-1.3c0,0-0.6-9.3-1-11.4
	c0-0.2-0.1-0.5-0.2-0.9l-0.3-1.5l0,0L184,210l0,0l-1.1-5.8l-2-2.6l-5.3-5.4C175.6,195.9,174.3,193,174.9,187.7z M256.2,154.4
	L256.2,154.4L256.2,154.4L256.2,154.4z M204.1,161l0.2,0.4l-0.7-0.7l1,1.1l-0.3-0.7L204.1,161z M209.2,171.4
	c0.2,0.5,0.4,1.1,0.6,1.7l-0.4-1.2L209.2,171.4z"/>
<path class="st10" d="M225.4,188.4c0,0,0.7,4.6-1.4,4.7c-2.1,0.1-3.5-3.6-3.5-3.6l0.8-2.9L225.4,188.4z"/>
<path class="st11" d="M225.4,188.4c0,0,0.7,4.6-1.4,4.7c-2.1,0.1-3.5-3.6-3.5-3.6l0.8-2.9L225.4,188.4z"/>
<path class="st12" d="M272,288.3c3.7,0.2,8.5-4,8.5-4l0.2-4.3c0,0,0.3,0.2,1-0.8c0.4-0.6-0.2-3.3-0.6-5c-0.2-0.8-0.4-1.4-0.4-1.4
	l-8.1,2.2l-0.4,1l-3.2,8.4C269,284.3,268.3,288.2,272,288.3z"/>
<path class="st12" d="M234.7,276c0,0,9.4,3.6,12.5,0.8s5.3-2,5.3-2s5.3,0.1,6.4-0.3c0.6-0.2,0.3-2.2-0.1-3.9c-0.3-1.1-0.5-2-0.5-2
	s-9.3-3.1-10.7-1.2c-0.4,0.6-1,1.1-1.5,1.5c-1.7,1.2-4.3,2.3-8.4,4C231.8,275.2,234.7,276,234.7,276z"/>
<path class="st13" d="M243.1,202.5l-2.6,5.2c0,0-3.7,5.2,0.6,7.2c4.3,2,4.3-11.6,4.3-11.6L243.1,202.5z"/>
<path class="st14" d="M253.9,157.8c0,0-2.8,1.3-4.5,6.7s-3.9,14.6-3.9,14.6s-1.5,10.4-1.3,13c0.2,1.4,0.1,2.9-0.1,4.3l-2.2,7.2
	l4.3,1.5l6.7-25.6L253.9,157.8z"/>
<path class="st4" d="M253.9,157.8c0,0-2.8,1.3-4.5,6.7s-3.9,14.6-3.9,14.6s-1.5,10.4-1.3,13c0.2,1.4,0.1,2.9-0.1,4.3l-2.2,7.2
	l4.3,1.5l6.7-25.6L253.9,157.8z"/>
<path class="st6" d="M272.6,274.9l-0.4,1l0.5,0.9c1.9,0.8,6.4,0.2,6.4,0.2s0.8-1.1,2-2.9c-0.2-0.8-0.4-1.4-0.4-1.4L272.6,274.9z"/>
<path class="st6" d="M245.6,269.3c2.3,5.3,10.3,3.3,12.5,2.7c0.4-0.1,0.6-0.2,0.6-0.2s0-0.4,0-1.1c-0.3-1.1-0.5-2-0.5-2
	s-9.3-3.1-10.7-1.2c-0.4,0.6-1,1.1-1.5,1.5C245.8,269,245.7,269.1,245.6,269.3z"/>
<path class="st15" d="M246,262.5c1.9,4-0.4,6.3-0.4,6.3c2.3,5.3,10.3,3.3,12.5,2.7c0.4-0.1,0.6-0.2,0.6-0.2s-0.2-5.6,0.4-8.2
	c0.6-2.7,0.5-13.8,0.2-15.2s-0.5-4-0.5-4s0.2-3.1-0.2-4.7c-0.2-0.8,0-1.8,0.6-2.4l0,0c0,0,1.8,6,2.4,7.1c0.6,1,0.9,6.3,1,7.2
	c0.1,1,3.4,9,3.4,9s1.3,3.7,1.5,4.7s1.2,4,1.2,4l3.9,7.5c1.9,0.8,6.4,0.2,6.4,0.2s0.9-1.1,2.1-3s1.8-8.4,1.8-8.4s-4.4-0.1-3.3-4.3
	c1.1-4.3-1-7.6-0.9-9s-1-6.2-1.5-6.9c-0.6-0.7-0.5-3.8-0.3-5.5s0.1-7.6,0.1-7.6s-0.2-2.7-1-3.9c-0.8-1.2-0.5-4.7-0.5-4.7
	s-1.5-0.8-0.5-8.6s-1.7-17.9-1.7-17.9l-0.1-1.4l-0.1-2.3c0,0-23-1.4-24.9,0.3c-0.5,0.5-0.9,1.1-1.2,1.7c-0.6,1.4-1.1,2.8-1.3,4.3
	l-1,24.4l-1,17.9l0.3,13.5C244.2,255.1,244.1,258.5,246,262.5z"/>
<path class="st6" d="M252.9,214.4l2.4,52.3l2.9,4.8c0.4-0.1,0.6-0.2,0.6-0.2s-0.2-5.6,0.4-8.2c0.6-2.7,0.5-13.8,0.2-15.2
	s-0.5-4-0.5-4s0.2-3.1-0.2-4.7c-0.2-0.8,0-1.8,0.6-2.4v-0.3L252.9,214.4z"/>
<path class="st6" d="M278.9,270.6c0,0-6.3-2.5-7.2-1.7s7.4,2,7.4,2L278.9,270.6z"/>
<path class="st6" d="M247.9,264c0.2,0.1,6.4,2.3,5.8,4.6S247.9,264,247.9,264z"/>
<path class="st13" d="M267,144.9c0,0-2.1,5-1,7.5s-11.7,6.9-11.7,6.9s3.7-9.7,0.1-15.1C250.8,138.7,267,144.9,267,144.9z"/>
<path class="st16" d="M192.1,288.2c2.5,0.5,5.7,3,5.7,3s6.3,1.3,10.6,0.7c4.3-0.6,3.6-5.3,0.2-6.4c-2.3-0.8-4.7-2.7-5.9-3.9
	c-0.5-0.5-0.9-0.8-0.9-0.8l-12-2.4c0,0-0.2,0.7-0.5,1.6c-0.5,1.6-1.2,4.1-1.5,5C187.5,286.4,189.6,287.6,192.1,288.2z"/>
<path class="st16" d="M195.2,278.9c0,0,5.1,0.5,7.2-0.7s5.1,0.7,5.1,0.7s8.7-0.2,11.6-1.1s-0.4-5.4-5.1-5c-1.7,0.2-2.9-0.2-3.7-0.8
	c-0.8-0.6-1.4-1.4-1.6-2.4l-10.2,0.6l-1.4,3.6L195.2,278.9z"/>
<path class="st6" d="M196.9,275.6c0,0,11.8-1.9,13.4-3.5c-0.8-0.6-1.4-1.4-1.6-2.4l-10.2,0.6l-1.4,3.6L196.9,275.6z"/>
<path class="st17" d="M214.5,207.8l-0.1,17.7c0,0-0.4,13.3-0.4,15.1s-0.1,5.9-0.1,5.9s-0.9,5-1.4,6.6s-1,9.1-1,9.1s-1.3,2.1-0.7,2.8
	c0.5,0.8-2.1,2.5-2.1,2.5s1.7,2.4,1.8,3.9s-13.5,3.8-13.5,3.8l5.3-54.4l4.2-13.6L214.5,207.8z"/>
<path class="st6" d="M214.5,207.8l-0.1,17.7c0,0-0.4,13.3-0.4,15.1s-0.1,5.9-0.1,5.9s-0.9,5-1.4,6.6s-1,9.1-1,9.1s-1.3,2.1-0.7,2.8
	c0.5,0.8-2.1,2.5-2.1,2.5s1.7,2.4,1.8,3.9s-13.5,3.8-13.5,3.8l5.3-54.4l4.2-13.6L214.5,207.8z"/>
<path class="st6" d="M189.4,280c3.9,9.4,13.3,2.1,13.3,2.1s0-0.2,0-0.5c-0.5-0.5-0.9-0.8-0.9-0.8l-12-2.4
	C189.8,278.4,189.7,279.1,189.4,280z"/>
<path class="st17" d="M189.2,279.2c3.9,9.9,13.5,2.5,13.5,2.5s0.3-5.1-0.3-7.5c-0.6-2.4,0.7-9.4,0.7-9.4s0.7-6.3,1.4-7.7
	c0.7-1.4,0.6-4.3,0.6-4.6s-0.2-2.2,0.3-3.5s0.8-4.6,0.8-4.6s0-4.6,0.5-7.3l1.9-9.3l3.4-19.1l-1.1-0.2l-18.9-3.3c0,0-3.6,18.1-2.4,20
	c0.3,0.4,0.5,1.3,0.7,2.4c0.7,4.1,0.9,11.5,0.9,11.5s-2.4,3.7-1.4,6.3c0.9,2.6-0.8,6.9-0.8,6.9s-0.5,16.9,0.5,18.6
	S189.2,279.2,189.2,279.2z"/>
<path class="st18" d="M191.1,155.6c0,0,17.1,12.1,13.3,6c-2.1-3.3-1.7-7.4-0.9-10.5c0.4-1.6,1-3.1,1.7-4.6c0,0-14.6-6.2-12.6-0.6
	c0.5,1.3,0.6,2.7,0.6,4C193,152,192.3,153.9,191.1,155.6z"/>
<path class="st18" d="M221.9,183.3c0,0,7.2-2.1,8.5,0s-0.4,6.6-2.5,7.3c-2.2,0.7-7.2-2.5-7.2-2.5L221.9,183.3z"/>
<path class="st10" d="M213.6,179.7l3,2.8c0,0,5.3,0.5,6.8,0.1c0,0-1.4,9.3,0.6,10.4l-12.2-2.5L213.6,179.7z"/>
<path class="st6" d="M213.6,179.7l3,2.8c0,0,5.3,0.5,6.8,0.1c0,0-1.4,9.3,0.6,10.4l-12.2-2.5L213.6,179.7z"/>
<path class="st6" d="M252.4,139.8c0,5,4.1,9.1,9.1,9.1c4.7-2.2,9.1-4.1,9.1-9.1c0.2-5-3.7-9.2-8.7-9.4s-9.2,3.7-9.4,8.7
	C252.4,139.3,252.4,139.6,252.4,139.8L252.4,139.8z"/>
<path class="st13" d="M252.4,139.6c0,5,4,9,9,9.1c5,0,9-4,9.1-9c0-5-4-9-9-9.1c-2.7,0-5.3,1.2-7,3.3
	C253.1,135.4,252.4,137.5,252.4,139.6z"/>
<path class="st6" d="M247.1,195c0.9,0.6,1.8,1,2.8,1.5c0,0,4.6-0.7,5.3,0.1c0.7,0.8,6.5,1.1,6.5,1.1s8.9-0.4,10.3-1.6
	c0.4-0.3,0.9-0.6,1.4-0.8l-0.1-2.3c0,0-23-1.4-24.9,0.3C247.8,193.8,247.4,194.3,247.1,195z"/>
<path class="st14" d="M246,193.3c0.2,1,3.9,2.6,3.9,2.6s4.6-0.7,5.3,0.1c0.7,0.8,6.5,1.1,6.5,1.1s8.9-0.4,10.3-1.6
	c1.3-1.1,4.3-1.7,4.3-1.7s1.5-10.7,0.9-13.1s0.9-8.8,1.3-11.1s-1-8.6-2.7-9.7c-1.7-1-4.1-4.5-5.6-5.5c-1.2-0.9-2.6-2-3-2.3l-0.1-0.1
	c0,0-0.2-1.9-1.2-2.8c-1-1-9.8,6.1-9.8,6.1s-0.1,0.5-0.7-0.5c-0.1-0.2-1.3,1.5-1.5,2.2c0,0-4.8,8.5-5.1,10.2
	c-0.3,1.7-1.6,7.4-1.8,8.8c-0.1,0.4-0.2,1.6-0.3,3.3c0,0.3,0,0.7-0.1,1c-0.2,2.8-0.4,6.3-0.5,9c0,0.3,0,0.6,0,0.9
	C246,191.3,245.9,192.3,246,193.3z"/>
<path class="st6" d="M276.6,171.6c0,0-3.3,4-4.4,4C271.2,175.6,276.6,171.6,276.6,171.6z"/>
<path class="st6" d="M269.7,180.2c0,0,5.4,5.9,4.7,7C273.6,188.3,269.7,180.2,269.7,180.2z"/>
<path class="st6" d="M273.6,192c0,0-6.2-6.8-6.5-9.2L273.6,192z"/>
<path class="st6" d="M265.8,192.5c0,0-7.2-3.8-7.8-6.8C257.4,182.7,265.8,192.5,265.8,192.5z"/>
<path class="st6" d="M256.7,155.8l1,2.4L256,159l-1.6,4.6c0,0-4.5,9-4.3,13.7s-0.8,11.7-0.8,11.7l-2.6-0.5l1.2-13.8
	c0.2-2.1,0.7-4.2,1.6-6.2c2.1-4.7,5.9-13.5,6.2-13.5c0.3,0,0.1,0.1,0.1,0.1L256.7,155.8z"/>
<path class="st19" d="M256.4,155.6l1,2.4l-1.7,0.8l-1.6,4.6c0,0-4.5,9-4.3,13.7s-0.8,11.7-0.8,11.7l-2.6-0.5l1.2-13.8
	c0.2-2.1,0.7-4.2,1.6-6.2c2.1-4.7,5.9-13.5,6.2-13.5c0.3,0,0.1,0.1,0.1,0.1L256.4,155.6z"/>
<path class="st13" d="M227,191c1.3-0.1,4.3-1.6,5.5-2.3l0.5-0.3l-0.1-4.7c-0.3-0.2-0.6-0.3-0.9-0.5c-1.6-0.7-4.9-1.7-6.6,1.4
	C223.3,188.9,225.4,191.1,227,191z"/>
<path class="st6" d="M254.4,133.8c0.1,0.1,0.3,0.1,0.4,0.2c1.1,0.2,2.2-0.7,3.1-0.1c0.5,0.4,0.7,1.1,0.8,1.7
	c0.1,1.1,0.3,2.3,0.4,3.4c0,0.4,0.1,0.8,0.2,1.2c0.4,1,1.7,1.5,2.8,1.5c0.4,0,0.9-0.1,1.2-0.4c0.2-0.2,0.3-0.5,0.5-0.7
	c1.4-1.2,1.8,1.7,1.5,2.5c-0.6,1.4-2.7,2.7-1.8,4.4c0.2,0.3,0.4,0.5,0.7,0.7c4.8-1.5,7.4-6.6,5.9-11.4c-1.5-4.8-6.6-7.4-11.4-5.9
	C257.1,131.4,255.6,132.4,254.4,133.8z"/>
<path class="st20" d="M264.1,140.6c-0.2,0.2-0.3,0.5-0.5,0.7c-0.3,0.3-0.8,0.4-1.2,0.4c-1.1,0-2.3-0.5-2.8-1.5
	c-0.1-0.4-0.2-0.8-0.3-1.2l-0.4-3.4c-0.1-0.7-0.2-1.4-0.8-1.7c-0.9-0.6-2.1,0.3-3.1,0.1c-0.8-0.2-1.3-1-1.1-1.8
	c0.1-0.5,0.5-1,0.7-1.5c0.1-0.4,0.2-0.8,0.3-1.2c0.6-2.2,3.2-3.4,5.4-3.1c1.2,0.2,2.4,0.8,3.7,1c0.9,0.1,1.8,0,2.7,0.1
	c0.8,0.1,1.7,0.3,2.4,0.7c0.2,0.1,0.4,0.2,0.5,0.4s0.2,0.5,0.3,0.7c0.3,1.1,1.3,2,2,2.9c0.8,1.1,1.3,2.4,1.3,3.8c0,0.3,0,0.7-0.1,1
	c-0.1,0.2-0.2,0.4-0.2,0.6c-0.1,0.6,0.2,1.2,0.3,1.9c0.2,0.8,0.1,1.6-0.2,2.4c-1.1,2.5-4.7,3.3-5.4,6c-0.7,0.3-1.4,0.5-2.1,0.6
	c-0.7,0-1.5-0.3-1.9-0.9c-0.9-1.7,1.2-3,1.8-4.4C266,142.3,265.6,139.4,264.1,140.6z"/>
<path class="st6" d="M192.5,145.9c0.5,1.3,0.6,2.7,0.6,4c0.4,0.4,0.9-0.7,1.4-0.5c1.4,0.8,3,2.7,4.7,2.7c1.5,0,2.9-0.3,4.3-1
	c0.4-1.6,1-3.1,1.7-4.6C205.1,146.5,190.6,140.3,192.5,145.9z"/>
<path class="st18" d="M189.8,142.3c0,5.2,4.2,9.4,9.4,9.4c5.2,0,9.4-4.2,9.4-9.4s-4.2-9.4-9.4-9.4C194,132.8,189.8,137,189.8,142.3
	L189.8,142.3z"/>
<path class="st21" d="M190.2,157.7c0,0,1.8,1.9,2,2.1c0.2,0.2,5.4,21.8,5.5,22.1s6.1,19.8,6.1,19.8l9.7,4.7l-0.8-23.9l-7.1-19.7
	c0,0-2.3-2.7-3.1-3.6s-9.7-6.8-9.7-6.8l-1.5,3.2L190.2,157.7z"/>
<path class="st6" d="M191.4,156.1l11.1,8l0.2-4.4c-0.7-1-9.7-6.8-9.7-6.8L191.4,156.1z"/>
<path class="st21" d="M191.2,155.6l11.1,8l0.2-4.4c-0.7-1-9.7-6.8-9.7-6.8L191.2,155.6z"/>
<path class="st10" d="M202.9,157.2l-0.4,1.9l2.5,2.5L202.9,157.2c0.1,0,4.3,3,5.6,3.7c1.3,0.8,2.5,3.4,2.6,4.2
	c0,0.7,2.1,11.7,2.1,11.7s1.5,4,1.1,5.2s2.3,37.3,2.3,37.3c-0.7-1.4-2.1-2.4-3.6-2.8l1-21.4c0,0-1.2-14.2-1.2-14.4
	c-0.1-0.2-2.7-8.4-2.7-8.4L202.9,157.2z"/>
<path class="st6" d="M202.2,159.4l0.2,4c0,0,2.7,8.5,3.6,9.9s3.7,9.7,3.7,9.7l1.5,14.4l2.7,1.2l1.3-2.4l-2.2-13.9
	c0,0-4.1-11.7-4.7-12.9l-3-6.4L202.2,159.4z"/>
<path class="st22" d="M202.5,159.2l0.2,4c0,0,2.7,8.5,3.6,9.9s3.7,9.7,3.7,9.7l1.5,14.4l2.7,1.2l1.3-2.4l-2.2-13.9
	c0,0-4.1-11.7-4.7-12.9l-3.1-6.4L202.5,159.2z"/>
<path class="st18" d="M233.8,189.4l-5.2,3.6c0,0-3.7-2.1-1.5-3.4s4-1.5,4.7-1.5S233.8,189.4,233.8,189.4z"/>
<path class="st18" d="M229.9,182.8c0.2,0.1,0.4,0.4,0.4,0.7c0,1.1-0.1,4-1,2.7c-1.1-1.6-0.9-3.1-2.7-2c-1.1,0.7-2,1.5-2.8,2.5
	l0.5-3.5C224.3,183.2,227.9,181.5,229.9,182.8z"/>
<path class="st6" d="M189.7,225c0.3,0.4,0.5,1.3,0.7,2.4c10.6,3.2,18.3-3.5,18.3-3.5c0.9-3.2,1.7-6.4,2.3-9.7c0.2-1.1,0.1-3.3,0-5.9
	l-18.9-3.3C192,205.1,188.5,223.2,189.7,225z"/>
<path class="st10" d="M178.8,171c0.5,1.6,0.3,4.8,0.3,4.8l4.3,20.5c0,0,2.1,15.8,2.5,17.9c0.4,2.1,1,11.4,1,11.4
	c12.3,6,21.8-2.2,21.8-2.2c0.9-3.2,1.7-6.4,2.3-9.7c0.6-3.6-1.2-17.9-2-24.3c-0.3-1.9-0.4-3.1-0.4-3.1l-3.2-11.8
	c0,0-3.9-9.9-5.3-12.8s-7.3-9.4-7.3-9.4c-0.7-0.5-1.9,1.2-2.7,2.6c-0.6,1.1-1.1,2.2-1.1,2.2s-7.2,3.1-8.3,4.8
	c-1.1,1.7-0.9,5.1-1,5.3C179.4,167.5,178.3,169.4,178.8,171z"/>
<path class="st6" d="M195.9,163.7c0,0-0.5,3.2,0.8,4.2c1.3,0.9,11.4,20.6,12,21.9c-0.3-1.9-0.4-3.1-0.4-3.1l-3.2-11.8
	c0,0-3.9-9.9-5.3-12.8c-1.4-2.9-7.3-9.4-7.3-9.4c-0.7-0.5-1.9,1.2-2.7,2.6C191.1,158,193.8,163,195.9,163.7z"/>
<path class="st10" d="M196.1,163.5c0,0-0.5,3.2,0.8,4.2c1.4,1,11.4,20.6,12,21.9c-0.3-1.9-0.4-3.1-0.4-3.1l-3.2-11.8
	c0,0-3.9-9.9-5.3-12.8s-7.3-9.4-7.3-9.4c-0.7-0.5-1.9,1.2-2.7,2.6C191.3,157.7,194,162.8,196.1,163.5z"/>
<polygon class="st23" points="181.8,192.4 185.2,210.1 185.2,210.1 185.5,211.8 185.5,211.8 186.2,215.6 189.4,215 190.8,214.6 
	211,210.4 212.5,210.1 215.9,209.3 215.2,204.9 214.9,203.1 212.5,186.9 "/>
<path class="st18" d="M200.6,206.9c0,0,8,2.9,6.3,6.3s-13-2.7-13-2.7L200.6,206.9z"/>
<path class="st6" d="M194.9,231.6c0,0.2-0.3,3.3-1.5,4.4C192.1,237,194.9,231.6,194.9,231.6z"/>
<path class="st6" d="M202.9,242.5c0,0-1.4,4-7.2,5.6C190,249.7,202.9,242.5,202.9,242.5z"/>
<path class="st6" d="M189.8,142.3c0,3.4,1.8,6.5,4.7,8.2c0.5-0.3,1-0.7,1.4-1.2s0.7-1.2,0.5-1.8c-0.2-0.5-0.7-0.8-0.8-1.3
	c-0.1-0.3,0-0.6,0-0.9c0.1-0.5,0.2-0.9,0.3-1.4c0.1-0.4,0.2-0.9,0.6-1s0.7,0.2,1,0.5c0.8,0.6,2.2,1,3.1,0.5s0.7-2.1,0.8-3
	c0-0.2,0.1-0.3,0.2-0.4c0.1,0,0.3-0.1,0.4,0c0.5,0,0.9-0.4,1-0.9s0.2-1,0.2-1.5c0.1-0.5,0.2-1,0.7-1.3c0.3-0.2,0.7-0.2,1.1-0.2h1.8
	c-3.1-4.2-9-5.1-13.2-2C191.2,136.5,189.8,139.3,189.8,142.3L189.8,142.3z"/>
<path class="st22" d="M197.3,143.4c-0.3-0.2-0.6-0.6-1-0.5s-0.5,0.6-0.6,1l-0.3,1.4c-0.1,0.3-0.1,0.6,0,0.9c0.1,0.5,0.7,0.8,0.9,1.3
	c0.2,0.6-0.1,1.3-0.5,1.8c-0.7,0.9-1.8,1.5-2.9,1.7c-0.3,0.1-0.6,0.1-0.9,0c-0.7-0.2-1.1-0.8-1.5-1.4c-1.9-2.9-3.5-6.1-3.8-9.6
	c-0.1-0.7-0.1-1.4,0.1-2.1c0.2-0.5,0.4-1.1,0.6-1.5c0.5-1,1.1-1.9,1.8-2.8c1.3-1.4,3.1-2.2,4.9-2.7c2.1-0.6,4.2-0.7,6.3-0.5
	c0.6,0.1,1.1,0.2,1.7,0.2c0.7,0,1.4,0,2.1,0l4.2-0.2c0.2,0.5,0,1.1-0.3,1.5c-0.3,0.5-0.6,0.9-0.6,1.5s0.4,1,0.7,1.4
	c0.3,0.5,0.5,1,0.2,1.5c-0.3,0.4-0.9,0.5-1.4,0.5h-2.1c-0.4,0-0.7,0-1.1,0.2c-0.4,0.3-0.6,0.8-0.7,1.3c0,0.5-0.1,1-0.2,1.5
	s-0.5,0.9-1,0.9c-0.1,0-0.3,0-0.4,0c-0.1,0.1-0.2,0.2-0.2,0.4c-0.1,0.9,0.1,2.5-0.8,3S198.1,144,197.3,143.4z"/>
<path class="st6" d="M185.3,162c2.1-0.2,4.2,1.1,4.9,3.1c1.1,3.2,3,9,2.5,11.3c-0.7,3.3-1.4,8.7-1.4,8.7s-3.4,2-1.7,4
	c1.7,2,2.2,4.8,2.2,4.8s2.2,1,2.7,3c0.5,2.1,3.7,4.9,3.7,4.9l4.9,4.9c0,0-8.1,8.2-9.7,8.6l-5-5.9l-5.9-7.8l-5.1-5.4
	c0,0-1.2-2.8-0.6-8.2s3-10.5,3-10.5l-0.2-1.8C179.6,175.8,179,162.8,185.3,162z"/>
<path class="st10" d="M184.9,162c2.1-0.2,4.2,1.1,4.9,3.1c1.1,3.2,3,9,2.5,11.3c-0.7,3.3-1.4,8.7-1.4,8.7s-3.4,2-1.7,4
	c1.7,2,2.2,4.8,2.2,4.8s2.2,1,2.7,3c0.5,2.1,3.7,4.9,3.7,4.9l4.9,4.9c0,0-8.1,8.2-9.7,8.6l-5-5.9l-5.9-7.8l-5.1-5.4
	c0,0-1.2-2.8-0.6-8.2s3-10.5,3-10.5l-0.2-1.8C179.1,175.8,178.5,162.8,184.9,162z"/>
<path class="st6" d="M189.9,180.4c0,0-5.1,6.3-7.3,4.9S189.9,180.4,189.9,180.4z"/>
<path class="st6" d="M188,175.5c-0.5,0.2-5,6.4-7.3,5.7C178.4,180.5,188,175.5,188,175.5z"/>
<path class="st6" d="M186.7,186.2c0,0-0.3,3.6-4,3.1S186.7,186.2,186.7,186.2z"/>
<polygon class="st6" points="203,157.5 205,161.9 202.5,159.4 "/>
<polygon class="st21" points="203,157.2 205,161.7 202.5,159.2 "/>
<polygon class="st24" points="211,210.4 212.5,210.1 215.2,204.9 214.9,203.1 "/>
<polygon class="st24" points="185.2,210.1 185.5,211.8 185.5,211.8 189.4,215 190.8,214.6 "/>
<path class="st6" d="M246,190.3c0.7,0.1,1.5,0.2,2.1,0.3c3.7,0.5,12.4-3.9,12.4-3.9s10.7-8.9,13.8-17.4c3.1-8.5-3.7-9.7-3.7-9.7
	c-2.5-1.4-8.1,2.6-8.9,3.3s-1.4,2.4-1.4,3.4c0.1,1.1-1.8,2.5-1.8,2.5s-3.2,5.6-4,6.2c-0.8,0.6-1,1.1-1.2,2.2c-0.2,1-2.4,1.9-3.3,1.8
	c-0.9-0.1-2,0.3-2,0.8c0,0.4-0.9,0.6-1.6,0.6C246.3,183.5,246.1,187.6,246,190.3z"/>
<path class="st6" d="M246.1,189.4c0.6,0.1,1.1,0.2,1.6,0.2c3.7,0.5,12.4-3.9,12.4-3.9s10.7-8.9,13.8-17.4c3.1-8.5-3.7-9.7-3.7-9.7
	c-2.5-1.4-8.1,2.6-8.9,3.3s-1.4,2.4-1.4,3.4c0.1,1.1-1.8,2.5-1.8,2.5s-3.2,5.6-4,6.2s-1,1.1-1.2,2.2s-2.4,1.9-3.3,1.8
	c-0.9-0.1-2,0.3-2,0.8c0,0.3-0.5,0.5-1.1,0.6c0,0.3,0,0.7-0.1,1C246.4,183.2,246.2,186.7,246.1,189.4z"/>
<path class="st6" d="M232.1,183.3l0.2,5.4h0.2l0.5-0.3l-0.1-4.7C232.7,183.6,232.4,183.5,232.1,183.3z"/>
<path class="st14" d="M270.7,159.2c0,0,6.8,1.3,3.7,9.7c-3.1,8.5-13.8,17.4-13.8,17.4s-8.8,4.3-12.4,3.9c-3.7-0.5-9.3-1.8-10-1.6
	s-5.6,0.2-5.6,0.2l-0.2-5.7l5.7-0.3l2.9-0.6c0,0,1-0.8,1.6-0.7s1.9-0.7,1.9-0.7s1-0.8,1.7-0.8s2.1-0.2,2.1-0.7s1.1-0.8,2-0.8
	s3-0.8,3.3-1.8c0.2-1,0.4-1.6,1.2-2.2c0.8-0.6,4-6.2,4-6.2s1.9-1.4,1.8-2.5s0.6-2.8,1.4-3.4S268.1,157.7,270.7,159.2z"/>
<path class="st6" d="M253.3,178.6c0,0,2.6,2.6,1.9,3.1L253.3,178.6z"/>
<path class="st6" d="M250.5,180.7c0,0,3.4,2.6,2.5,2.8C252.1,183.6,250.5,180.7,250.5,180.7z"/>
<path class="st6" d="M256.3,184.5c-0.5,0.2-7.7,4.5-10.4,4.5L256.3,184.5z"/>
<path class="st6" d="M255.8,155.9c0,0,1.3,4.2,1.8,4.2c0.4,0,6.8-5.2,9.4-7.3l-0.1-0.1c0,0-0.2-1.9-1.2-2.8
	C264.6,148.8,255.8,155.9,255.8,155.9z"/>
<path class="st14" d="M256,155.4c0,0,1.3,4.2,1.8,4.2c0.4,0,6.8-5.2,9.4-7.3l-0.1-0.1c0,0-0.2-1.9-1.2-2.8S256,155.4,256,155.4z"/>
<g class="st25">
	<path d="M273.1,141.9L273.1,141.9c-0.8,1.9-3.2,2.9-4.5,4.4C269.4,144.4,271.7,143.5,273.1,141.9z"/>
	<path d="M264.5,146.4c0.3,0.6,1.1,1,1.9,0.9c0.6,0,1.3-0.2,1.9-0.5c-0.2,0.3-0.4,0.7-0.5,1c-0.7,0.3-1.4,0.5-2.1,0.6
		c-0.7,0-1.5-0.3-1.9-0.9c-0.5-1,0-1.9,0.7-2.8C264.2,145.3,264.2,145.9,264.5,146.4z"/>
	<path d="M253.9,132.2c0.1-0.5,0.5-1,0.7-1.5c0.1-0.4,0.2-0.8,0.3-1.2c0.2-0.6,0.5-1.1,0.9-1.6c-0.1,0.1-0.1,0.3-0.1,0.4
		c-0.1,0.4-0.2,0.8-0.3,1.2c-0.2,0.5-0.6,0.9-0.7,1.5c-0.1,0.8,0.3,1.6,1.1,1.8c1,0.2,2.2-0.7,3.1-0.1c0.6,0.4,0.7,1.1,0.8,1.7
		c0.1,1.1,0.3,2.3,0.4,3.4c0,0.4,0.1,0.8,0.2,1.2c0.4,1,1.7,1.5,2.8,1.5c0.4,0,0.9-0.1,1.2-0.4c0.2-0.2,0.3-0.4,0.5-0.7
		c1.4-1.2,1.8,1.7,1.5,2.5c-0.2,0.4-0.4,0.7-0.7,1c0.3-0.9-0.1-3.6-1.5-2.5c-0.2,0.2-0.4,0.4-0.5,0.7c-0.3,0.3-0.8,0.4-1.2,0.4
		c-1.1,0-2.3-0.5-2.8-1.5c-0.1-0.4-0.2-0.8-0.2-1.2c-0.1-1.1-0.3-2.3-0.4-3.4c-0.1-0.7-0.2-1.4-0.8-1.7c-0.9-0.6-2.1,0.3-3.1,0.1
		C254.3,133.7,253.8,133,253.9,132.2z"/>
</g>
<path class="st6" d="M191.2,150.3c0.3,0.1,0.6,0,0.9,0c1.1-0.2,2.2-0.8,2.9-1.7c0.4-0.5,0.7-1.2,0.5-1.8c-0.2-0.5-0.7-0.8-0.8-1.3
	c-0.1-0.3,0-0.6,0-0.9l0.3-1.4c0.1-0.4,0.2-0.9,0.6-1s0.7,0.2,1,0.5c0.8,0.6,2.2,1,3.1,0.5s0.7-2.1,0.8-3c0-0.2,0.1-0.3,0.2-0.4
	c0.1,0,0.3-0.1,0.4,0c0.5,0,0.9-0.4,1-0.9s0.2-1,0.2-1.5c0.1-0.5,0.2-1,0.7-1.3c0.3-0.2,0.7-0.2,1.1-0.2h2.1c0.5,0,1.1,0,1.4-0.5
	c0.3-0.4,0.1-1-0.2-1.5s-0.7-0.9-0.7-1.4s0.3-1,0.6-1.5c0.2-0.2,0.3-0.5,0.4-0.8h0.6c0.2,0.5,0,1.1-0.3,1.5
	c-0.3,0.5-0.6,0.9-0.6,1.5s0.4,1,0.7,1.4s0.5,1,0.2,1.5c-0.3,0.4-0.9,0.5-1.4,0.5h-2.1c-0.4,0-0.7,0-1.1,0.2
	c-0.4,0.3-0.6,0.8-0.7,1.3c0,0.5-0.1,1-0.2,1.5s-0.5,0.9-1,0.9c-0.1,0-0.3,0-0.4,0c-0.1,0.1-0.2,0.2-0.2,0.4c-0.1,0.9,0.1,2.5-0.8,3
	s-2.4,0.1-3.1-0.5c-0.3-0.2-0.7-0.6-1-0.5s-0.5,0.6-0.6,1l-0.3,1.4c-0.1,0.3-0.1,0.6,0,0.9c0.1,0.5,0.7,0.8,0.9,1.3
	c0.2,0.6-0.1,1.3-0.5,1.8c-0.7,0.9-1.8,1.5-2.9,1.7c-0.3,0.1-0.6,0.1-0.9,0c-0.5-0.1-0.9-0.5-1.2-0.9
	C190.9,150.1,191.1,150.2,191.2,150.3z"/>
<ellipse class="st1" cx="321.2" cy="274.3" rx="6.8" ry="1.1"/>
<ellipse class="st1" cx="82.2" cy="247" rx="6.8" ry="1.1"/>
<ellipse class="st1" cx="152" cy="289.3" rx="19.8" ry="3"/>
<ellipse class="st1" cx="95.6" cy="276.4" rx="15.5" ry="2.4"/>
<ellipse class="st1" cx="98.1" cy="300.1" rx="26.2" ry="4"/>
<ellipse class="st1" cx="350.5" cy="303.6" rx="19.8" ry="3"/>
<path class="st23" d="M320.9,240.8c0,0-0.8,1,0.4,2.5s2.1,2.8,1.7,3.8c0,0-1.7-2.8-3.1-2.9C318.4,244.2,319.3,242.5,320.9,240.8z"/>
<path class="st6" d="M320.9,240.8c-0.1,0.1-0.1,0.2-0.2,0.3c-1.4,1.6-2.1,3.1-0.8,3.1c1.2,0,2.7,2.2,3,2.8v0.1c0,0-1.7-2.8-3.1-2.9
	C318.4,244.2,319.3,242.5,320.9,240.8z"/>
<path class="st26" d="M319.4,242.1c0,0.4,0,0.6,0.1,0.6c0,0,0.1-0.3,0.1-0.6c0-0.4-0.1-0.2-0.1-0.2
	C319.4,241.9,319.4,241.8,319.4,242.1z"/>
<path class="st26" d="M318.9,242.5c0.3,0.2,0.6,0.3,0.6,0.2s-0.2-0.2-0.5-0.4s-0.2,0-0.2,0C318.8,242.4,318.6,242.4,318.9,242.5z"/>
<path class="st23" d="M324.9,240.8c0,0,0.8,1-0.4,2.5c-1.1,1.5-2.1,2.8-1.7,3.8c0,0,1.7-2.8,3.1-2.9
	C327.4,244.2,326.5,242.5,324.9,240.8z"/>
<path class="st6" d="M324.9,240.8c0.1,0.1,0.1,0.2,0.2,0.3c1.4,1.6,2.1,3.1,0.8,3.1c-1.2,0-2.7,2.2-3,2.8v0.1c0,0,1.7-2.8,3.1-2.9
	C327.4,244.2,326.5,242.5,324.9,240.8z"/>
<path class="st26" d="M326.4,242.1c0,0.4,0,0.6-0.1,0.6s-0.1-0.3-0.1-0.6c0-0.4,0.1-0.2,0.1-0.2S326.4,241.8,326.4,242.1z"/>
<path class="st26" d="M326.9,242.5c-0.3,0.2-0.6,0.3-0.6,0.2s0.2-0.2,0.5-0.4s0.2,0,0.2,0S327.2,242.4,326.9,242.5z"/>
<ellipse class="st1" cx="322.9" cy="253.7" rx="8.1" ry="1.2"/>
<path class="st27" d="M318.7,245.8v0.3l0.1,0.4v0.2l0.1,0.4v0.2l0.1,0.4l0.6,5.1c0.1,0.5,0.8,0.8,1.7,0.8h3.2c0.9,0,1.6-0.4,1.7-0.8
	l0.6-5.1l0.1-0.4v-0.2l0.1-0.4v-0.2l0.1-0.4v-0.3c0-0.3-0.4-0.5-0.9-0.5h-6.6C319.1,245.3,318.7,245.5,318.7,245.8z"/>
<polygon class="st28" points="318.8,246.1 318.8,246.6 327,246.6 327,246.1 "/>
<polygon class="st28" points="318.8,246.7 318.9,247.2 326.9,247.2 327,246.7 "/>
<polygon class="st28" points="318.9,247.4 319,247.8 326.8,247.8 326.9,247.4 "/>
<path class="st23" d="M87.6,236.9c0,0,1,4.5-3.3,5l-0.3-0.5C84,241.4,87.3,238.3,87.6,236.9z"/>
<path class="st23" d="M82.6,241.4l1,0.2h0.1c0,0,2.7-2.2,2.6-7c-0.4,0.7-0.8,1.4-1.3,2C84,238.1,82.8,239.9,82.6,241.4z"/>
<path class="st23" d="M82.3,241.9c0.2,0.1,0.4,0.1,0.5,0.1c2.6-0.6,1.7-9,1.7-9c-0.1,0.1-0.3,1.1-0.9,2.5
	C82.6,237.9,81.4,241.3,82.3,241.9z"/>
<path class="st23" d="M76.5,236.9c0,0-0.2,4.5,4.1,5l0.3-0.5C81,241.4,76.8,238.3,76.5,236.9z"/>
<path class="st23" d="M77.8,234.6c0,4.8,3.4,7,3.4,7h0.1l1-0.2c-0.2-1.5-1.4-3.4-2.5-4.8C79.3,235.9,78.6,235.2,77.8,234.6z"/>
<path class="st23" d="M81.3,241.4c0.2,0.2,0.3,0.3,0.6,0.4l0,0c0.1,0,0.1,0.1,0.2,0.1c0.6,0.1,0.8-0.3,0.8-1.1
	c-0.1-1.4-0.9-3.8-1.7-5.6c-0.4-0.9-0.9-1.7-1.6-2.3C79.6,233,79.7,239.5,81.3,241.4z"/>
<path class="st23" d="M82.1,230c0,0,2.9,10.2,0.4,11.7S81.4,230.9,82.1,230z"/>
<path class="st6" d="M87.6,236.9c0,0,1,4.5-3.3,5l-0.3-0.5C84,241.4,87.3,238.3,87.6,236.9z"/>
<path class="st6" d="M82.6,241.4l1,0.2h0.1c0,0,2.7-2.2,2.6-7c-0.4,0.7-0.8,1.4-1.3,2C84,238.1,82.8,239.9,82.6,241.4z"/>
<path class="st6" d="M82.3,241.9c0.2,0.1,0.4,0.1,0.5,0.1c2.6-0.6,1.7-9,1.7-9c-0.1,0.1-0.3,1.1-0.9,2.5
	C82.6,237.9,81.4,241.3,82.3,241.9z"/>
<path class="st6" d="M76.5,236.9c0,0-0.2,4.5,4.1,5l0.3-0.5C81,241.4,76.8,238.3,76.5,236.9z"/>
<path class="st6" d="M77.8,234.6c0,4.8,3.4,7,3.4,7h0.1l1-0.2c-0.2-1.5-1.4-3.4-2.5-4.8C79.3,235.9,78.6,235.2,77.8,234.6z"/>
<path class="st6" d="M81.3,241.4c0.2,0.2,0.3,0.3,0.6,0.4l0,0c0.1,0,0.1,0.1,0.2,0.1c0.6,0.1,0.8-0.3,0.8-1.1
	c-0.1-1.4-0.9-3.8-1.7-5.6c-0.4-0.9-0.9-1.7-1.6-2.3C79.6,233,79.7,239.5,81.3,241.4z"/>
<path class="st6" d="M82.1,230c0,0,2.9,10.2,0.4,11.7S81.4,230.9,82.1,230z"/>
<path class="st23" d="M87.6,236.9c0,0,0.6,4.5-3.7,5l-0.3-0.5C83.6,241.4,87.3,238.3,87.6,236.9z"/>
<path class="st23" d="M82.2,241.4l1,0.2h0.1c0,0,3.1-2.2,3-7c0,0-0.8,0.8-1.7,2C83.6,238.1,82.4,239.9,82.2,241.4z"/>
<path class="st6" d="M82.2,241.4l1,0.2c0.9-0.8,1.3-3,1.5-5C83.6,238.1,82.4,239.9,82.2,241.4z"/>
<path class="st23" d="M81.9,241.9c0.2,0.1,0.4,0.1,0.5,0.1c2.6-0.6,2.1-9,2.1-9c-0.1,0.1-0.7,1.1-1.3,2.5
	C82.2,237.9,81,241.3,81.9,241.9z"/>
<path class="st23" d="M76.5,236.9c0,0-0.6,4.5,3.7,5l0.3-0.5C80.6,241.4,76.8,238.3,76.5,236.9z"/>
<path class="st23" d="M77.8,234.6c0,4.8,3,7,3,7h0.1l1-0.2c-0.2-1.5-1.4-3.4-2.5-4.8C78.6,235.5,77.8,234.6,77.8,234.6z"/>
<path class="st6" d="M79.5,236.7c0.1,1.8,0.5,3.8,1.3,4.8c0.1,0.1,0.1,0.1,0.2,0.2l1-0.2C81.7,239.9,80.5,238.1,79.5,236.7z"/>
<path class="st23" d="M80.9,241.4c0.2,0.2,0.3,0.3,0.6,0.4l0,0c0.1,0,0.1,0.1,0.2,0.1c0.6,0.1,0.8-0.3,0.8-1.1
	c-0.1-1.4-0.9-3.8-1.7-5.6c-0.6-1.3-1.1-2.3-1.2-2.3C79.6,233,79.3,239.5,80.9,241.4z"/>
<path class="st6" d="M81.9,241.9c0.1,0,0.3,0,0.4-0.1c1.2-0.8,1.2-3.6,0.9-6.3C82.2,237.9,81,241.3,81.9,241.9z"/>
<path class="st6" d="M80.9,241.4c0.1,0.3,0.3,0.5,0.6,0.4l0,0c0.1,0,0.2-0.1,0.3-0.1c0.3-0.2,0.6-0.5,0.7-0.9
	c-0.1-1.4-0.9-3.8-1.7-5.6C80.6,237.8,80.5,240.4,80.9,241.4z"/>
<path class="st23" d="M82.1,230c0,0,2.5,10.2,0,11.7C79.6,243.3,81.4,230.9,82.1,230z"/>
<polygon class="st29" points="77.3,241.2 87.6,241.2 87.6,242.9 86,242.9 86,243.2 85.4,246.5 79.4,246.5 78.8,243.2 78.7,242.9 
	77.3,242.9 "/>
<polygon class="st6" points="77.3,241.2 87.6,241.2 87.6,242.9 86,242.9 86,243.2 85.4,246.5 79.4,246.5 78.8,243.2 78.7,242.9 
	77.3,242.9 "/>
<polygon class="st29" points="78.2,242.2 78.4,243.2 79,246.5 85,246.5 85.6,243.2 85.8,242.2 "/>
<polygon class="st6" points="78.2,242.2 78.4,243.2 85.6,243.2 85.8,242.2 "/>
<rect x="76.9" y="241.2" class="st29" width="10.3" height="1.7"/>
<path class="st23" d="M339.4,270.4c0.3,0.4,0.5,0.8,0.6,1.2c0,0.1,0.1,0.2,0.1,0.3c0.1,0,0.1-0.1,0.2-0.1c0.3-0.1,0.7-0.1,1-0.1
	c0-0.1,0-0.3,0-0.4c0-1.5,0.1-3.6,1.6-2.7c1.4,0.8,0.4,2.3-0.5,3.2c-0.1,0.1-0.2,0.2-0.2,0.2c0.8,0.6,1,1.9,1.1,3.3s1.3,2.9,2.1,3.8
	c0.1,0.1,0.2,0.2,0.2,0.2c0.6-0.5,1.5-0.7,2.3-0.6c0-0.1,0.1-0.2,0.1-0.4c0.6-2.3,2-6.3,3.6-7.1l-0.2-0.3c-0.7-0.9-1.5-2.3-0.3-2.7
	c1.2-0.4,1.3,1.2,1.2,2.4c0,0.1,0,0.3,0,0.4c0.5,0,0.9,0.2,1.2,0.6l0.2-0.2c1-1.1,2.7-2.9,3.3-1.6c0.5,1.3-1.1,2.9-2.1,3.9l-0.1,0.1
	c0.7,3-2.5,5.4-4.2,6.5l-0.2,0.1c2.4,2.8,3.8,8.1,3.8,8.1l-6.7,1.2c0,0-4.4-3.8-3.9-7.4l0,0c-4.4-0.9-5.4-5.6-4.7-8.4h-0.1
	c-0.8-0.3-1.5-0.9-2-1.5C335.5,270.6,338.1,268.7,339.4,270.4z"/>
<path class="st6" d="M339.4,270.4c0.3,0.4,0.5,0.8,0.6,1.2c0,0.1,0.1,0.2,0.1,0.3c0.1,0,0.1-0.1,0.2-0.1c0.3-0.1,0.7-0.1,1-0.1
	c0-0.1,0-0.3,0-0.4c0-1.5,0.1-3.6,1.6-2.7c1.4,0.8,0.4,2.3-0.5,3.2c-0.1,0.1-0.2,0.2-0.2,0.2c0.8,0.6,1,1.9,1.1,3.3s1.3,2.9,2.1,3.8
	c0.1,0.1,0.2,0.2,0.2,0.2c0.6-0.5,1.5-0.7,2.3-0.6c0-0.1,0.1-0.2,0.1-0.4c0.6-2.3,2-6.3,3.6-7.1l-0.2-0.3c-0.7-0.9-1.5-2.3-0.3-2.7
	c1.2-0.4,1.3,1.2,1.2,2.4c0,0.1,0,0.3,0,0.4c0.5,0,0.9,0.2,1.2,0.6l0.2-0.2c1-1.1,2.7-2.9,3.3-1.6c0.5,1.3-1.1,2.9-2.1,3.9l-0.1,0.1
	c0.7,3-2.5,5.4-4.2,6.5l-0.2,0.1c2.4,2.8,3.8,8.1,3.8,8.1l-6.7,1.2c0,0-4.4-3.8-3.9-7.4l0,0c-4.4-0.9-5.4-5.6-4.7-8.4h-0.1
	c-0.8-0.3-1.5-0.9-2-1.5C335.5,270.6,338.1,268.7,339.4,270.4z"/>
<path class="st23" d="M352.6,272.3l0.8,2.3c0,0,0.4-0.3,1-0.8c1.1-1,2.6-2.6,2.1-3.9c-0.5-1.4-2.3,0.4-3.3,1.6
	C352.9,271.9,352.6,272.3,352.6,272.3z"/>
<path class="st23" d="M351,271c0.2,0.3,0.5,0.6,0.8,0.9c0.1-0.4,0.1-0.8,0.1-1.2c0.1-1.2-0.1-2.7-1.2-2.4
	C349.5,268.7,350.3,270.1,351,271z"/>
<path class="st23" d="M340.9,271.4c0,0.8,0.1,1.4,0.1,1.4c0.3-0.3,0.7-0.6,1-0.9c0.9-0.9,1.9-2.3,0.5-3.2
	C341.1,267.8,340.9,269.9,340.9,271.4z"/>
<path class="st23" d="M336.3,272.3c0.5,0.7,1.2,1.2,2,1.5c0.2,0.1,0.5,0.2,0.7,0.2l0.9-1.3c-0.1-0.4-0.2-0.8-0.4-1.3
	c-0.2-0.4-0.4-0.8-0.6-1.2C337.7,268.7,335.1,270.6,336.3,272.3z"/>
<path class="st6" d="M353.3,271.5c-0.4,0.5-0.6,0.8-0.6,0.8l0.8,2.3c0,0,0.4-0.3,1-0.8c-0.1-0.7-0.4-1.4-0.9-2
	C353.4,271.7,353.4,271.6,353.3,271.5z"/>
<path class="st6" d="M351,271c0.2,0.3,0.5,0.6,0.8,0.9c0.1-0.4,0.1-0.8,0.1-1.2C351.6,270.7,351.2,270.8,351,271z"/>
<path class="st23" d="M347.2,280l1.9,0.8c0,0,0.4-0.2,1-0.6c2-1.3,6.1-4.4,3.4-8.1c-2.7-3.7-5,2.9-5.9,6.2
	C347.3,279.4,347.2,280,347.2,280z"/>
<path class="st6" d="M342,271.8c-0.3-0.3-0.7-0.5-1.1-0.5c0,0.8,0.1,1.4,0.1,1.4C341.4,272.4,341.7,272.1,342,271.8z"/>
<path class="st6" d="M338.4,273.9c0.2,0.1,0.5,0.2,0.7,0.2l0.9-1.3c-0.1-0.4-0.2-0.8-0.4-1.3C339,271.9,338.6,272.8,338.4,273.9z"/>
<path class="st23" d="M343.2,282.3c0.1,0,0.2,0,0.3,0.1c6.5,1,2.1-2.5,2.1-2.5s-0.3-0.3-0.7-0.7c-0.8-0.9-2-2.4-2.1-3.8
	c-0.2-2.1-0.4-4.1-2.9-3.5C337.5,272.4,337,281.1,343.2,282.3z"/>
<rect x="343.3" y="298.5" class="st30" width="12.4" height="3.3"/>
<rect x="341.5" y="287.9" class="st30" width="16.2" height="11.4"/>
<rect x="343.3" y="298.5" class="st6" width="12.4" height="3.3"/>
<rect x="341.5" y="287.9" class="st6" width="16.2" height="11.4"/>
<rect x="342.5" y="298.5" class="st30" width="12.4" height="3.3"/>
<path class="st6" d="M347.6,278.4c-0.3,1-0.4,1.6-0.4,1.6l1.9,0.8c0,0,0.4-0.2,1-0.6C349.4,279.3,348.5,278.6,347.6,278.4z"/>
<path class="st6" d="M343.2,282.3c0.1,0,0.2,0,0.3,0.1c6.5,1,2.1-2.5,2.1-2.5s-0.3-0.3-0.7-0.7C343.8,280.1,343.3,281.2,343.2,282.3
	z"/>
<path class="st23" d="M353.8,288.5c0,0-3.6-13-8.7-9s2.1,10.2,2.1,10.2L353.8,288.5z"/>
<circle class="st6" cx="351.9" cy="274.2" r="0.4"/>
<circle class="st6" cx="352" cy="276.1" r="0.4"/>
<circle class="st6" cx="340.1" cy="274.6" r="0.4"/>
<circle class="st6" cx="349.6" cy="284.4" r="0.4"/>
<circle class="st6" cx="341" cy="277.8" r="0.4"/>
<circle class="st6" cx="345.2" cy="282" r="0.4"/>
<circle class="st6" cx="350.5" cy="275" r="0.4"/>
<circle class="st6" cx="341.2" cy="275.8" r="0.4"/>
<circle class="st6" cx="342.6" cy="279" r="0.4"/>
<circle class="st6" cx="346.9" cy="284.1" r="0.4"/>
<circle class="st6" cx="347.8" cy="282" r="0.4"/>
<circle class="st6" cx="349.9" cy="277.5" r="0.4"/>
<rect x="342.5" y="298.5" class="st6" width="12.4" height="1.2"/>
<rect x="340.7" y="287.9" class="st30" width="16.2" height="11.4"/>
<circle class="st6" cx="346.4" cy="285.9" r="0.4"/>
<circle class="st6" cx="348.8" cy="286.4" r="0.4"/>
<circle class="st1" cx="364.7" cy="86.7" r="3"/>
<circle class="st1" cx="80.2" cy="179.9" r="4"/>
<circle class="st1" cx="72.6" cy="171.4" r="2.9"/>
<circle class="st1" cx="359.6" cy="76" r="4"/>
<circle class="st1" cx="374.9" cy="94.1" r="4"/>
</svg>
