<?xml version="1.0" encoding="utf-8"?>
<!-- Generator: Adobe Illustrator 22.0.1, SVG Export Plug-In . SVG Version: 6.00 Build 0)  -->
<svg version="1.1" id="Layer_1" xmlns="http://www.w3.org/2000/svg" xmlns:xlink="http://www.w3.org/1999/xlink" x="0px" y="0px"
	 viewBox="0 0 1300 400" style="enable-background:new 0 0 1300 400;" xml:space="preserve">
<style type="text/css">
	.st0{opacity:0.1;fill:#0D8CD8;enable-background:new    ;}
	.st1{fill:url(#SVGID_1_);stroke:#000000;stroke-width:1.6477;stroke-miterlimit:10;}
	.st2{fill:#AEAEC1;}
	.st3{fill:#F7D5DE;}
	.st4{opacity:5.000000e-02;enable-background:new    ;}
	.st5{fill:#F4D0D7;}
	.st6{opacity:0.1;enable-background:new    ;}
	.st7{fill:#FFFFFF;}
	.st8{fill:#D3DAE1;}
	.st9{fill:url(#SVGID_2_);}
	.st10{fill:#A0A2A5;}
	.st11{fill:#BCBCC1;}
	.st12{fill:#FFD6D6;}
	.st13{fill:#DCE6F2;}
	.st14{fill:#B6B6B7;}
	.st15{fill:#E3E3E5;}
	.st16{fill:#A3A3A3;}
	.st17{fill:#D28690;}
	.st18{fill:#C9CBD3;}
	.st19{fill:#6B6B6B;}
	.st20{fill:#999999;}
	.st21{fill:#F0F3F7;}
	.st22{fill:#5E5D5E;}
	.st23{fill:#0D8CD8;}
	.st24{fill:#6F7070;}
	.st25{opacity:0.3;enable-background:new    ;}
	.st26{opacity:0.15;}
	.st27{fill:#7AC4EA;}
	.st28{fill:#4B4770;}
	.st29{opacity:0.1;fill:#7C7A9E;enable-background:new    ;}
	.st30{fill:#7C7A9E;}
	.st31{fill:#6EA2B7;}
	.st32{fill:#A7D4EA;}
	.st33{fill:#D4DFEC;}
</style>
<ellipse class="st0" cx="356.7" cy="76" rx="4" ry="4"/>
<linearGradient id="SVGID_1_" gradientUnits="userSpaceOnUse" x1="3116.1614" y1="200" x2="3250" y2="200" gradientTransform="matrix(9.7433 0 0 -1 -30365.5723 400)">
	<stop  offset="0" style="stop-color:#00354D"/>
	<stop  offset="0.4129" style="stop-color:#00364F"/>
	<stop  offset="0.5616" style="stop-color:#003C56"/>
	<stop  offset="0.6676" style="stop-color:#004561"/>
	<stop  offset="0.7534" style="stop-color:#005272"/>
	<stop  offset="0.8268" style="stop-color:#006388"/>
	<stop  offset="0.8918" style="stop-color:#0078A4"/>
	<stop  offset="0.9492" style="stop-color:#0091C3"/>
	<stop  offset="1" style="stop-color:#00ACE6"/>
	<stop  offset="1" style="stop-color:#0093C7"/>
	<stop  offset="1" style="stop-color:#0075A3"/>
	<stop  offset="1" style="stop-color:#005B83"/>
	<stop  offset="1" style="stop-color:#004567"/>
	<stop  offset="1" style="stop-color:#003351"/>
	<stop  offset="1" style="stop-color:#002540"/>
	<stop  offset="1" style="stop-color:#001B35"/>
	<stop  offset="1" style="stop-color:#00162E"/>
	<stop  offset="1" style="stop-color:#00142C"/>
</linearGradient>
<rect x="-4" class="st1" width="1304" height="400"/>
<path class="st0" d="M281.1,89.5h-0.4c0.3-0.1,0.5-0.4,0.5-0.7l0,0c0-0.5-0.8-1-1.8-1h-12.8c-1,0-1.8,0.4-1.8,1l0,0
	c0,0.5,0.8,1,1.8,1h0.4c-0.3,0.1-0.5,0.4-0.5,0.7c0,0.5,0.6,0.9,1.4,1h-3.7c-1,0-1.8,0.4-1.8,1s0.8,1,1.8,1h12.7c1,0,1.8-0.4,1.8-1
	c0-0.5-0.6-0.9-1.4-1h3.7c1,0,1.8-0.4,1.8-1S282,89.5,281.1,89.5z"/>
<path class="st0" d="M141.6,99.1h-0.4c0.3-0.1,0.5-0.4,0.5-0.7l0,0c0-0.5-0.8-1-1.8-1h-12.8c-1,0-1.8,0.4-1.8,1l0,0
	c0,0.5,0.8,1,1.8,1h0.4c-0.3,0.1-0.5,0.4-0.5,0.7c0,0.5,0.6,0.9,1.4,1h-3.7c-1,0-1.8,0.4-1.8,1c0,0.5,0.8,1,1.8,1h12.8
	c1,0,1.8-0.4,1.8-1c0-0.5-0.6-0.9-1.4-1h3.7c1,0,1.8-0.4,1.8-1S142.6,99.1,141.6,99.1z"/>
<path class="st0" d="M300.7,139.8h-0.4c0.3-0.1,0.5-0.4,0.5-0.7l0,0c0-0.5-0.8-1-1.8-1h-12.8c-1,0-1.8,0.4-1.8,1l0,0
	c0,0.5,0.8,1,1.8,1h0.4c-0.3,0.1-0.5,0.4-0.5,0.7c0,0.5,0.6,0.9,1.4,1h-3.7c-1,0-1.8,0.4-1.8,1s0.8,1,1.8,1h12.8c1,0,1.8-0.4,1.8-1
	c0-0.5-0.6-0.9-1.4-1h3.7c1,0,1.8-0.4,1.8-1S301.7,139.8,300.7,139.8z"/>
<ellipse transform="matrix(0.9799 -0.1995 0.1995 0.9799 -44.1691 28.9498)" class="st0" cx="121.6" cy="233.7" rx="64.3" ry="19.5"/>
<path class="st2" d="M128.8,179.1c0,0-3.4-16.7-16.5-15.2c0,0-9,0.6-10.9,6.5v13L128.8,179.1z"/>
<polygon class="st3" points="57.4,185.4 173.6,175.7 188.6,178.8 187.6,199.6 186.6,199.7 185.5,230.9 71.3,251.3 59.2,241.1 
	59.2,207.3 57.7,206.4 "/>
<polygon class="st4" points="57.2,185.4 57.5,206.4 70.1,212.3 70.2,190.3 "/>
<polygon class="st4" points="59.2,207.3 59.1,240.5 71.2,250.7 70.4,212.3 "/>
<polygon class="st4" points="186.5,200.9 70.3,215.1 70.2,212.4 186.6,199.9 "/>
<polygon class="st4" points="59.2,208.6 59.2,207.3 70.7,212.4 70.7,215.1 "/>
<polygon class="st5" points="188.7,178.8 173.7,175.7 57.5,185.4 70.6,190.3 "/>
<polygon class="st6" points="69.9,185.9 64.2,186.3 73.6,189.1 78.4,188.8 "/>
<polygon class="st7" points="69.9,185.7 64.2,186.1 73.6,188.9 78.4,188.5 "/>
<path class="st8" d="M70.6,186.3c-0.2-0.1-0.4,0.1-0.7,0.1c-0.1,0-0.3,0-0.4,0c-0.3,0-0.5,0.2-0.8,0.1"/>
<path class="st8" d="M70.9,186.5c-0.2-0.1-0.4,0.1-0.7,0.1c-0.1,0-0.3,0-0.4,0c-0.3,0-0.5,0.2-0.8,0.1"/>
<path class="st8" d="M71.5,186.9c-0.2-0.1-0.4,0.1-0.7,0.1c-0.1,0-0.3,0-0.4,0c-0.3,0-0.6,0.2-0.8,0.1"/>
<polygon class="st6" points="94.6,183.1 88.9,183.5 98.3,186.3 103.1,186 "/>
<polygon class="st7" points="94.6,182.9 88.9,183.3 98.3,186.1 103.1,185.7 "/>
<path class="st8" d="M95.3,183.5c-0.2-0.1-0.4,0.1-0.7,0.1c-0.2,0-0.3,0-0.4,0c-0.3,0-0.5,0.2-0.8,0.1"/>
<path class="st8" d="M95.6,183.7c-0.2-0.1-0.4,0.1-0.7,0.1c-0.1,0-0.3,0-0.4,0c-0.3,0-0.5,0.2-0.8,0.1"/>
<path class="st8" d="M96.2,184c-0.2-0.1-0.4,0.1-0.7,0.1c-0.1,0-0.3,0-0.4,0c-0.3,0-0.6,0.2-0.8,0.1"/>
<polygon class="st6" points="82.7,184.5 77,184.9 86.5,187.7 91.3,187.4 "/>
<polygon class="st7" points="82.7,184.3 77,184.7 86.5,187.5 91.3,187.1 "/>
<path class="st8" d="M83.4,184.9c-0.2-0.1-0.4,0.1-0.7,0.1c-0.1,0-0.3,0-0.4,0c-0.3,0-0.6,0.2-0.8,0.1"/>
<path class="st8" d="M83.6,185.1c-0.2-0.1-0.4,0.1-0.7,0.1c-0.1,0-0.3,0-0.4,0c-0.3,0-0.6,0.2-0.8,0.1"/>
<path class="st8" d="M84.3,185.4c-0.2-0.1-0.4,0.1-0.7,0.1c-0.1,0-0.3,0-0.4,0c-0.3,0-0.5,0.2-0.8,0.1"/>
<ellipse class="st0" cx="211.9" cy="288.5" rx="60.9" ry="12.5"/>
<linearGradient id="SVGID_2_" gradientUnits="userSpaceOnUse" x1="112.574" y1="121.231" x2="112.574" y2="296.7085" gradientTransform="matrix(-9.7433 0 0 1 1300 0)">
	<stop  offset="0" style="stop-color:#808080;stop-opacity:0.25"/>
	<stop  offset="0.54" style="stop-color:#808080;stop-opacity:0.12"/>
	<stop  offset="1" style="stop-color:#808080;stop-opacity:0.1"/>
</linearGradient>
<path class="st9" d="M145.2,186.2c0.7-5.7,3.2-11.1,3.2-11.1l-0.2-1.9c0,0,0-1,0-2.4c0-0.9-0.1-1.8-0.4-2.7
	c-0.5-1.6,0.7-3.7,0.8-3.9c0.1-0.2-0.1-3.8,1.1-5.6c1.2-1.8,9.1-5.1,9.1-5.1s0.4-0.9,1-1.9l-0.1-0.1c0.5-0.9,1.1-1.7,1.8-2.4
	c0.5-0.5,1-0.8,1.3-0.7c0.1-0.5,0.3-1,0.4-1.5c-0.1,0-0.1,0-0.2,0.1c-0.3,0.1-0.7,0.1-1,0c-0.7-0.1-1.2-0.8-1.6-1.4
	c-2-3.1-3.8-6.5-4.1-10.1c-0.1-0.7-0.1-1.5,0.1-2.2c0.2-0.6,0.4-1.1,0.7-1.6c0.5-1,1.2-2,2-2.9c1.4-1.5,3.3-2.4,5.3-2.9
	c2.2-0.6,4.6-0.8,6.9-0.5c0.6,0.1,1.2,0.2,1.8,0.2c0.7,0,1.5,0,2.3,0l3.9-0.2v-0.1h0.7c0.3,0.5,0,1.1-0.3,1.6s-0.7,1-0.7,1.6
	c0,0.6,0.4,1,0.7,1.5c0.3,0.5,0.6,1.1,0.2,1.6c-0.1,0.1-0.1,0.1-0.1,0.2c-0.3,0.4-0.9,0.4-1.4,0.4h-0.1c1.3,1.7,2,3.8,2,5.9
	c0,3.7-2.1,7.1-5.4,8.8c-0.1,0.2-0.1,0.4-0.2,0.6c-0.6,2.1-0.8,4.3-0.6,6.5l0.1,0.1V154c0,0,4.6,3.1,6,4c1.4,0.8,2.8,3.7,2.8,4.4
	s2.2,12.4,2.2,12.4c0.4,1.2,0.8,2.4,1.1,3.6l2.8,2.4c0,0,5.7,0.5,7.3,0.1l-0.1,0.3c1.5-0.3,2.9-0.5,4.4-0.6c0.8-0.1,1.6,0,2.4,0.3
	h0.1h0.1c0.9,0.1,1.7,0.4,2.5,0.7c0.1,0,0.2,0.1,0.3,0.1v-0.4l6.2-0.3l3.1-0.6c0,0,1.1-0.9,1.8-0.8c0.7,0.1,2-0.8,2-0.8
	c0.3-0.2,0.7-0.4,1-0.6c0.1-0.7,0.2-1.2,0.2-1.2s2.5-9.7,4.3-15.4c1.2-3.8,3-5.7,4-6.5c0.4-0.8,0.8-1.3,0.8-1.3
	c0.2-0.7,1.3-2.3,1.6-2.3c0-0.1,0.1-0.1,0.1-0.1c0.1,0,0.1,0,0.2,0c0.5-2.6,0.8-5.8,0-8.6c-2.2-1.8-3.4-4.5-3.4-7.3v-0.1v-0.1
	c0-2.2,0.8-4.4,2.2-6.1l0.1-0.1c0,0-0.1,0-0.1-0.1c-0.4-0.4-0.7-1-0.6-1.6c0.1-0.6,0.6-1,0.8-1.6c0.1-0.4,0.2-0.8,0.3-1.3
	c0.2-0.6,0.5-1.2,1-1.6l-0.1,0.1c1.2-1.3,3.2-2,5-1.7c1.3,0.2,2.6,0.8,4,1c1,0.1,2,0.1,2.9,0.1c0.9,0.1,1.8,0.4,2.6,0.7
	c0.2,0.1,0.4,0.2,0.5,0.4c0.1,0.2,0.2,0.5,0.3,0.8c0.3,1.2,1.4,2.1,2.2,3.1c0.9,1.2,1.4,2.5,1.4,4c0,0.4,0,0.7-0.1,1.1
	c-0.1,0.2-0.2,0.4-0.2,0.6c-0.1,0.7,0.2,1.3,0.4,2c0.2,0.8,0.1,1.7-0.2,2.5c-1.2,2.6-5.1,3.5-5.9,6.3c-0.6,0.3-1.3,0.5-1.9,0.6
	c-0.1,0.3-0.1,0.6-0.1,0.8c0,0,0,0,0.1,0c1,1,1.3,3,1.3,3l0.1,0.1c0.4,0.4,1.9,1.5,3.2,2.5c1.6,1.1,4.2,4.7,6,5.8
	c1.8,1.1,3.4,7.8,2.9,10.2c-0.4,2.4-2,9.3-1.4,11.8c0.7,2.5-1,13.9-1,13.9c-1.1,0.2-2.2,0.5-3.2,1v0.5l0.1,1.5c0,0,3,10.7,1.8,19
	c-1.2,8.3,0.5,9.1,0.5,9.1s-0.4,3.7,0.5,4.9c0.9,1.3,1,4.1,1,4.1s0.1,6.3-0.1,8.1c-0.2,1.8-0.3,5,0.4,5.8c0.6,0.8,1.7,5.8,1.6,7.3
	c-0.1,1.6,2.2,5,1,9.6c-1.2,4.5,3.6,4.6,3.6,4.6s-0.6,6.9-1.9,8.9l-0.2,0.3c0,0.1,0.1,0.2,0.1,0.4c0.5,1.8,1.2,4.6,0.7,5.3
	c-0.7,1-1,0.8-1,0.8l-0.3,4.6c0,0-5.2,4.4-9.3,4.3c-4-0.2-3.2-4.3-3.2-4.3l3.4-8.9l0.1-0.3l-3.8-7.2c0,0-1-3.1-1.3-4.3
	c-0.3-1.1-1.7-5-1.7-5s-3.6-8.5-3.7-9.6c-0.1-1-0.4-6.6-1-7.7c-0.7-1.1-2.6-7.5-2.6-7.5h-0.1c-0.7,0.7-0.9,1.6-0.7,2.5
	c0.4,1.6,0.2,4.9,0.2,4.9s0.2,2.8,0.5,4.3c0.4,1.4,0.4,13.3-0.2,16.1c-0.5,2.2-0.5,6.5-0.4,8.1c0.4,1.7,0.8,3.8,0.1,4
	c-1.1,0.4-6.9,0.3-6.9,0.3s-2.5-0.8-5.8,2.1c-3.3,2.9-13.6-0.8-13.6-0.8s-3.1-0.8,3.1-3.3c4.3-1.7,7.1-2.9,9-4.1
	c0-0.1-0.1-0.1-0.1-0.2c0,0,2.5-2.4,0.4-6.7c-2.1-4.3-2-7.9-2-7.9l-0.4-14.3l1-19l0.8-20l-0.1-0.1c-0.1,3.7-0.8,12.4-4.6,10.7
	c-4.7-2.1-0.7-7.7-0.7-7.7l2.1-4.1l-0.6-0.2l2.4-7.7c0.2-1.5,0.3-3,0.1-4.5c-0.1-0.9,0-1.8,0.1-2.6c-3.1-0.5-6.1-1.1-6.6-1
	c-0.6,0.1-4.1,0.2-5.5,0.2c0.4,0.4,0.8,0.7,0.8,0.7l-5.6,3.8c0,0-1.9-1-2.3-2.2c-0.4-0.1-0.7-0.3-1-0.6c-0.1,1.3-0.4,2.7-1.6,2.8
	c-0.3,0-0.6-0.1-0.9-0.2l-9.2-1.8l0.8,4.9l-0.5,1c0.3,4.2,0.6,8.6,0.9,12.5l0.1,0.8h-0.1c0.4,6,0.8,10.5,0.8,10.5
	c-0.5-1-1.3-1.8-2.3-2.3l-0.1,8.9c0,0-0.4,14.1-0.4,16s-0.1,6.2-0.1,6.2s-1,5.2-1.6,7c-0.6,1.7-1,9.6-1,9.6s-1.4,2.2-0.8,3
	c0.6,0.8-2.3,2.6-2.3,2.6s1.8,2.5,2,4.2c0,0.2-0.2,0.4-0.5,0.6c0.1,0.1,0.2,0.2,0.3,0.3c0.8,0.6,2.1,1,4,0.8
	c5.1-0.4,8.7,4.3,5.6,5.2c-3.1,1-12.6,1.1-12.6,1.1s-2.8-1.8-5.1-1c0,1.9-0.1,3.6-0.1,3.8l0,0c1.3,1.2,3.9,3.3,6.4,4.1
	c3.6,1.2,4.4,6.1-0.3,6.8c-4.7,0.6-11.5-0.8-11.5-0.8s-3.5-2.6-6.2-3.2s-5-1.9-4.5-3.4c0.3-1,1.1-3.5,1.6-5.3c0-0.1,0.1-0.2,0.1-0.3
	c-0.1-0.2-0.1-0.4-0.2-0.6c0,0,1.4-7.2,0.3-9s-0.5-19.7-0.5-19.7s1.9-4.5,0.9-7.3c-1-2.8,1.6-6.7,1.6-6.7s-0.3-7.8-1-12.2
	c0-0.2-0.1-0.4-0.1-0.5c-1.3-0.4-2.5-0.8-3.7-1.4c0,0-0.7-9.9-1-12.1c0-0.2-0.1-0.5-0.1-1l-0.3-1.6l0,0l-0.4-1.8l0,0l-1.2-6.1
	l-2.2-2.8l-5.6-5.7C145.8,194.9,144.5,191.9,145.2,186.2z M231.5,151L231.5,151L231.5,151L231.5,151z M176.2,158l0.2,0.5l-0.8-0.8
	l1.1,1.2l-0.4-0.7L176.2,158z M181.5,169c0.2,0.5,0.4,1.1,0.7,1.8l-0.4-1.3L181.5,169z"/>
<path class="st10" d="M198.8,186.9c0,0,0.7,4.9-1.5,4.9c-2.2,0.1-3.7-3.8-3.7-3.8l0.9-3.1L198.8,186.9z"/>
<path class="st11" d="M248.4,292.8c3.9,0.2,9-4.3,9-4.3l0.3-4.6c0,0,0.3,0.2,1-0.8c0.4-0.7-0.2-3.5-0.7-5.3
	c-0.2-0.9-0.4-1.5-0.4-1.5l-8.6,2.3l-0.4,1.1l-3.3,8.9C245.1,288.5,244.3,292.6,248.4,292.8z"/>
<path class="st11" d="M208.6,279.7c0,0,10,3.8,13.2,0.8c3.2-3,5.6-2.1,5.6-2.1s5.6,0.1,6.7-0.3c0.7-0.2,0.3-2.4-0.1-4.1
	c-0.3-1.2-0.6-2.1-0.6-2.1s-9.8-3.3-11.3-1.3c-0.4,0.6-1,1.1-1.6,1.6c-1.8,1.3-4.6,2.5-8.9,4.2C205.6,278.9,208.6,279.7,208.6,279.7
	z"/>
<path class="st12" d="M217.7,201.8l-2.7,5.5c0,0-3.9,5.5,0.7,7.7c4.6,2.1,4.5-12.3,4.5-12.3L217.7,201.8z"/>
<path class="st13" d="M229.1,154.6c0,0-3,1.3-4.8,7.1c-1.8,5.7-4.2,15.4-4.2,15.4s-1.6,11-1.3,13.7c0.1,1.5,0.1,3-0.1,4.5l-2.3,7.7
	l4.6,1.6l7.1-27.1L229.1,154.6z"/>
<path class="st4" d="M229.1,154.6c0,0-3,1.3-4.8,7.1c-1.8,5.7-4.2,15.4-4.2,15.4s-1.6,11-1.3,13.7c0.1,1.5,0.1,3-0.1,4.5l-2.3,7.7
	l4.6,1.6l7.1-27.1L229.1,154.6z"/>
<path class="st6" d="M249,278.5l-0.4,1.1l0.5,1c1.9,0.8,6.8,0.2,6.8,0.2s0.9-1.1,2.1-3c-0.2-0.9-0.4-1.5-0.4-1.5L249,278.5z"/>
<path class="st6" d="M220.3,272.6c2.5,5.6,10.9,3.5,13.3,2.8c0.4-0.1,0.6-0.2,0.6-0.2s0-0.4,0-1.2c-0.3-1.2-0.6-2.1-0.6-2.1
	s-9.8-3.3-11.3-1.3c-0.4,0.6-1,1.1-1.6,1.6C220.5,272.3,220.4,272.5,220.3,272.6z"/>
<path class="st14" d="M220.7,265.4c2,4.3-0.4,6.7-0.4,6.7c2.5,5.6,10.9,3.5,13.3,2.8c0.4-0.1,0.6-0.2,0.6-0.2s-0.2-5.9,0.4-8.7
	s0.5-14.7,0.2-16.1c-0.3-1.4-0.5-4.3-0.5-4.3s0.2-3.3-0.2-4.9c-0.3-0.9,0-1.9,0.6-2.5v-0.1c0,0,1.9,6.4,2.5,7.5
	c0.6,1.1,0.9,6.7,1,7.7c0.1,1,3.6,9.5,3.6,9.5s1.3,3.9,1.6,5c0.3,1.1,1.3,4.3,1.3,4.3l4.1,7.9c1.9,0.8,6.8,0.2,6.8,0.2
	s0.9-1.2,2.2-3.1c1.3-1.9,1.9-8.8,1.9-8.8s-4.7-0.1-3.5-4.6c1.2-4.5-1-8-0.9-9.5c0.1-1.5-1-6.6-1.6-7.3s-0.5-4-0.3-5.8
	c0.2-1.8,0.1-8.1,0.1-8.1s-0.2-2.8-1-4.1c-0.8-1.3-0.5-4.9-0.5-4.9s-1.6-0.8-0.5-9.1c1.1-8.3-1.8-19-1.8-19l-0.1-1.5l-0.1-2.4
	c0,0-24.5-1.5-26.4,0.3c-0.5,0.5-0.9,1.1-1.3,1.8c-0.7,1.4-1.1,3-1.4,4.5l-1,25.8l-1,19l0.3,14.3
	C218.8,257.6,218.7,261.2,220.7,265.4z"/>
<path class="st6" d="M228,214.5l2.5,55.4l3.1,5c0.4-0.1,0.6-0.2,0.6-0.2s-0.2-5.9,0.4-8.7c0.6-2.8,0.5-14.7,0.2-16.1
	c-0.3-1.4-0.5-4.3-0.5-4.3s0.3-3.3-0.2-4.9c-0.3-0.9,0-1.9,0.6-2.5v-0.3L228,214.5z"/>
<path class="st6" d="M255.6,274c0,0-6.7-2.6-7.7-1.8c-1,0.8,7.8,2.1,7.8,2.1L255.6,274z"/>
<path class="st6" d="M222.7,267c0.2,0.1,6.7,2.4,6.1,4.9C228.2,274.3,222.7,267,222.7,267z"/>
<path class="st12" d="M242.9,140.9c0,0-2.2,5.2-1,7.9c1.1,2.7-12.4,7.3-12.4,7.3s4-10.2,0.1-16C225.8,134.4,242.9,140.9,242.9,140.9
	z"/>
<path class="st15" d="M163.4,292.6c2.6,0.6,6.1,3.2,6.1,3.2s6.7,1.4,11.2,0.8c4.5-0.6,3.8-5.5,0.2-6.8c-2.4-0.8-4.9-2.9-6.2-4.1
	c-0.6-0.5-0.9-0.9-0.9-0.9l-12.7-2.5c0,0-0.2,0.7-0.5,1.7c-0.5,1.7-1.3,4.3-1.6,5.3C158.6,290.8,160.8,292,163.4,292.6z"/>
<path class="st15" d="M166.7,282.8c0,0,5.4,0.6,7.6-0.7s5.4,0.8,5.4,0.8s9.2-0.2,12.3-1.1c3.1-1-0.4-5.7-5.4-5.2
	c-1.8,0.1-3.1-0.2-3.9-0.8c-0.9-0.6-1.5-1.5-1.7-2.5l-10.8,0.6l-1.5,3.8L166.7,282.8z"/>
<path class="st6" d="M168.6,279.3c0,0,12.5-2,14.2-3.7c-0.9-0.6-1.5-1.5-1.7-2.5l-10.8,0.6l-1.5,3.8L168.6,279.3z"/>
<path class="st16" d="M187.2,207.5l-0.1,18.7c0,0-0.4,14.1-0.4,16s-0.1,6.2-0.1,6.2s-1,5.2-1.5,7c-0.6,1.7-1,9.6-1,9.6
	s-1.3,2.2-0.8,3c0.6,0.8-2.2,2.6-2.2,2.6s1.8,2.5,1.9,4.2s-14.3,4-14.3,4l5.6-57.6l4.5-14.5L187.2,207.5z"/>
<path class="st6" d="M160.6,283.9c4.2,10,14.1,2.3,14.1,2.3s0-0.2,0-0.5c-0.6-0.5-0.9-0.9-0.9-0.9l-12.7-2.5
	C161.1,282.3,160.8,283,160.6,283.9z"/>
<path class="st14" d="M160.4,283.1c4.1,10.5,14.2,2.6,14.2,2.6s0.3-5.4-0.3-7.9c-0.7-2.5,0.7-10,0.7-10s0.8-6.7,1.5-8.2
	s0.6-4.6,0.6-4.9c0-0.3-0.2-2.3,0.3-3.7s0.9-4.9,0.9-4.9s0-4.9,0.6-7.7l2-9.9l3.6-20.3l-1.1-0.2l-20.1-3.5c0,0-3.8,19.2-2.5,21.2
	c0.3,0.4,0.5,1.4,0.7,2.6c0.7,4.3,1,12.2,1,12.2s-2.5,3.9-1.5,6.7s-0.9,7.3-0.9,7.3s-0.6,17.9,0.5,19.7
	C161.7,276,160.4,283.1,160.4,283.1z"/>
<path class="st17" d="M162.3,152.3c0,0,18.2,12.8,14.1,6.4c-2.2-3.4-1.8-7.8-0.9-11.1c0.4-1.7,1-3.3,1.8-4.9c0,0-15.4-6.6-13.4-0.7
	c0.5,1.4,0.7,2.8,0.6,4.3C164.4,148.4,163.6,150.5,162.3,152.3z"/>
<path class="st17" d="M195.1,181.5c0,0,7.7-2.2,8.9,0c1.3,2.2-0.4,7-2.7,7.7c-2.3,0.7-7.6-2.6-7.6-2.6L195.1,181.5z"/>
<path class="st18" d="M186.3,177.8l3.2,2.9c0,0,5.5,0.5,7.2,0.1c0,0-1.5,9.8,0.6,11.1l-12.9-2.6L186.3,177.8z"/>
<path class="st6" d="M227.5,135.5c0,5.3,4.3,9.6,9.6,9.6c4.9-2.4,9.6-4.3,9.6-9.6c0.2-5.3-3.9-9.7-9.2-10c-5.3-0.2-9.7,3.9-10,9.2
	C227.5,135,227.5,135.3,227.5,135.5L227.5,135.5z"/>
<path class="st12" d="M227.5,135.3c0,5.3,4.3,9.6,9.6,9.6c5.3,0,9.6-4.3,9.6-9.6s-4.3-9.6-9.6-9.6c-2.9,0-5.6,1.3-7.4,3.5
	C228.2,130.9,227.5,133,227.5,135.3z"/>
<path class="st6" d="M221.9,193.9c1,0.6,1.9,1.1,3,1.5c0,0,4.9-0.7,5.5,0.1c0.7,0.8,6.9,1.1,6.9,1.1s9.4-0.4,10.9-1.6
	c0.4-0.4,0.9-0.6,1.4-0.8l-0.1-2.4c0,0-24.5-1.5-26.4,0.3C222.6,192.7,222.2,193.3,221.9,193.9z"/>
<path class="st13" d="M220.7,192.2c0.2,1.1,4.2,2.8,4.2,2.8s4.9-0.7,5.5,0.1c0.7,0.8,6.9,1.1,6.9,1.1s9.4-0.4,10.9-1.6
	s4.5-1.8,4.5-1.8s1.6-11.4,1-13.9s1-9.3,1.3-11.8c0.4-2.4-1.1-9.1-2.9-10.2c-1.8-1.1-4.3-4.7-5.9-5.8c-1.3-0.9-2.7-2.1-3.1-2.5
	l-0.1-0.1c0,0-0.3-2-1.3-3c-1-1-10.4,6.4-10.4,6.4s-0.1,0.6-0.7-0.5c-0.1-0.2-1.4,1.5-1.6,2.3c0,0-5.1,9-5.4,10.8s-1.6,7.9-1.9,9.3
	c-0.1,0.4-0.2,1.7-0.3,3.5c0,0.4-0.1,0.7-0.1,1.1c-0.2,2.9-0.4,6.7-0.5,9.5c0,0.3,0,0.6,0,0.9C220.6,190.1,220.6,191.1,220.7,192.2z
	"/>
<path class="st6" d="M253.2,169.1c0,0-3.5,4.3-4.7,4.3C247.4,173.4,253.2,169.1,253.2,169.1z"/>
<path class="st6" d="M245.7,178.3c0,0,5.8,6.3,5,7.4C250,186.9,245.7,178.3,245.7,178.3z"/>
<path class="st6" d="M250.1,190.8c0,0-6.6-7.2-6.9-9.7L250.1,190.8z"/>
<path class="st6" d="M241.7,191.3c0,0-7.6-4-8.2-7.2C232.8,180.9,241.7,191.3,241.7,191.3z"/>
<path class="st6" d="M232,152.5l1,2.5l-1.8,0.8l-1.7,4.8c0,0-4.8,9.5-4.6,14.5c0.2,4.9-0.9,12.4-0.9,12.4l-2.8-0.5l1.3-14.6
	c0.2-2.2,0.8-4.5,1.7-6.5c2.2-5,6.3-14.3,6.5-14.3c0.4,0,0.1,0.1,0.1,0.1L232,152.5z"/>
<path class="st19" d="M231.7,152.2l1,2.5l-1.8,0.8l-1.7,4.8c0,0-4.8,9.5-4.6,14.5c0.2,4.9-0.9,12.4-0.9,12.4l-2.8-0.5l1.3-14.6
	c0.2-2.2,0.7-4.5,1.7-6.5c2.2-5,6.3-14.3,6.5-14.3c0.4,0,0.1,0.1,0.1,0.1L231.7,152.2z"/>
<path class="st12" d="M200.5,189.8c1.3-0.1,4.6-1.7,5.8-2.4l0.5-0.3l-0.1-4.9c-0.3-0.2-0.6-0.4-1-0.5c-1.7-0.7-5.2-1.8-7,1.5
	C196.5,187.5,198.8,189.9,200.5,189.8z"/>
<path class="st6" d="M229.6,129.2c0.1,0.1,0.3,0.1,0.4,0.2c1.1,0.2,2.4-0.7,3.3-0.1c0.6,0.4,0.7,1.2,0.8,1.9
	c0.1,1.2,0.3,2.4,0.4,3.6c0,0.4,0.1,0.8,0.3,1.2c0.5,1.1,1.8,1.6,2.9,1.6c0.4,0,0.9-0.1,1.3-0.4c0.2-0.2,0.3-0.5,0.5-0.7
	c1.5-1.3,1.9,1.8,1.6,2.7c-0.6,1.4-2.9,2.8-1.9,4.6c0.1,0.3,0.4,0.5,0.7,0.7c5.1-1.6,7.9-7,6.3-12c-1.6-5.1-7-7.9-12-6.3
	C232.4,126.6,230.8,127.7,229.6,129.2z"/>
<path class="st20" d="M239.9,136.4c-0.2,0.2-0.3,0.5-0.5,0.7c-0.4,0.3-0.8,0.4-1.3,0.4c-1.2,0-2.5-0.5-2.9-1.6
	c-0.1-0.4-0.2-0.8-0.3-1.2l-0.4-3.6c-0.1-0.7-0.2-1.5-0.8-1.9c-1-0.6-2.2,0.3-3.3,0.1c-0.8-0.2-1.3-1-1.2-1.9c0.1-0.6,0.6-1,0.8-1.6
	c0.1-0.4,0.2-0.8,0.3-1.3c0.6-2.3,3.4-3.6,5.7-3.2c1.3,0.2,2.5,0.8,3.9,1c1,0.1,1.9,0.1,2.9,0.1c0.9,0.1,1.7,0.4,2.5,0.7
	c0.2,0.1,0.4,0.2,0.5,0.4c0.1,0.2,0.2,0.5,0.3,0.8c0.3,1.2,1.3,2.1,2.1,3.1c0.8,1.2,1.3,2.5,1.4,4c0,0.4,0,0.7-0.1,1.1
	c-0.1,0.2-0.1,0.4-0.2,0.6c-0.2,0.7,0.2,1.3,0.4,2c0.2,0.8,0.1,1.7-0.2,2.5c-1.1,2.6-4.9,3.5-5.7,6.3c-0.7,0.3-1.5,0.5-2.2,0.6
	c-0.8,0-1.6-0.3-2-1c-1-1.8,1.3-3.2,1.9-4.6C241.8,138.2,241.4,135.1,239.9,136.4z"/>
<path class="st6" d="M163.9,141.9c0.5,1.4,0.7,2.8,0.6,4.3c0.4,0.4,1-0.8,1.5-0.5c1.5,0.8,3.1,2.8,5,2.8c1.6,0,3.1-0.4,4.5-1.1
	c0.4-1.7,1-3.3,1.8-4.9C177.2,142.6,161.8,136.1,163.9,141.9z"/>
<path class="st17" d="M161,138.1c0,5.5,4.5,10,10,10c5.5,0,10-4.5,10-10s-4.5-10-10-10C165.4,128.1,161,132.6,161,138.1L161,138.1z"
	/>
<path class="st21" d="M161.4,154.5c0,0,1.9,2,2.1,2.2s5.7,23.1,5.8,23.4c0.1,0.3,6.5,21,6.5,21l10.2,5l-0.8-25.3l-7.5-20.9
	c0,0-2.5-2.8-3.2-3.8s-10.3-7.2-10.3-7.2l-1.6,3.4L161.4,154.5z"/>
<path class="st6" d="M162.8,152.7l11.8,8.4l0.2-4.6c-0.8-1-10.3-7.2-10.3-7.2L162.8,152.7z"/>
<path class="st21" d="M162.5,152.2l11.8,8.4l0.2-4.6c-0.8-1-10.3-7.2-10.3-7.2L162.5,152.2z"/>
<path class="st18" d="M174.8,154l-0.4,2.1l2.6,2.7l-2.1-4.7c0,0,4.5,3.1,5.8,4c1.3,0.8,2.7,3.6,2.8,4.4c0.1,0.8,2.2,12.3,2.2,12.3
	s1.6,4.3,1.1,5.5c-0.4,1.2,2.4,39.5,2.4,39.5c-0.8-1.5-2.2-2.6-3.8-2.9l1-22.6c0,0-1.3-15.1-1.3-15.2s-2.9-8.9-2.9-8.9L174.8,154z"
	/>
<path class="st6" d="M174.2,156.3l0.2,4.2c0,0,2.8,9,3.8,10.5s3.9,10.2,3.9,10.2l1.6,15.2l2.8,1.3l1.4-2.5l-2.3-14.7
	c0,0-4.3-12.4-5-13.7l-3.2-6.7L174.2,156.3z"/>
<path class="st22" d="M174.4,156l0.2,4.2c0,0,2.8,9,3.8,10.5s3.9,10.2,3.9,10.2l1.6,15.2l2.8,1.3l1.4-2.5l-2.3-14.7
	c0,0-4.3-12.4-5-13.7l-3.2-6.7L174.4,156z"/>
<path class="st17" d="M207.7,188.1l-5.5,3.8c0,0-3.9-2.2-1.6-3.6c2.2-1.4,4.3-1.6,5-1.6S207.7,188.1,207.7,188.1z"/>
<path class="st17" d="M203.6,181c0.2,0.1,0.4,0.4,0.4,0.7c0,1.2-0.1,4.3-1.1,2.8c-1.2-1.7-1-3.2-2.8-2.1c-1.1,0.7-2.1,1.6-2.9,2.7
	l0.5-3.7C197.6,181.5,201.4,179.7,203.6,181z"/>
<path class="st6" d="M160.9,225.8c0.3,0.4,0.5,1.4,0.7,2.6c11.2,3.4,19.5-3.7,19.5-3.7c1-3.4,1.8-6.8,2.4-10.2
	c0.2-1.2,0.1-3.5,0-6.3l-20.1-3.5C163.4,204.6,159.6,223.8,160.9,225.8z"/>
<path class="st18" d="M149.3,168.6c0.5,1.6,0.3,5,0.3,5l4.6,21.7c0,0,2.2,16.8,2.6,19s1,12.1,1,12.1c13,6.4,23.2-2.3,23.2-2.3
	c1-3.4,1.8-6.8,2.4-10.2c0.6-3.8-1.3-19-2.1-25.8c-0.3-2-0.4-3.3-0.4-3.3l-3.4-12.5c0,0-4.1-10.5-5.7-13.6s-7.7-10-7.7-10
	c-0.7-0.5-2,1.2-2.9,2.8c-0.7,1.2-1.2,2.3-1.2,2.3s-7.7,3.3-8.8,5.1c-1.1,1.8-1,5.4-1.1,5.6C150,164.8,148.8,166.9,149.3,168.6z"/>
<path class="st6" d="M167.4,160.8c0,0-0.6,3.4,0.9,4.4c1.4,1,12,21.8,12.7,23.1c-0.3-2-0.4-3.3-0.4-3.3l-3.4-12.5
	c0,0-4.1-10.5-5.7-13.6c-1.5-3.1-7.7-10-7.7-10c-0.7-0.5-2,1.2-2.9,2.8C162.3,154.7,165.2,160.1,167.4,160.8z"/>
<path class="st18" d="M167.7,160.6c0,0-0.6,3.4,0.9,4.4c1.5,1,12,21.8,12.7,23.1c-0.3-2-0.4-3.3-0.4-3.3l-3.4-12.5
	c0,0-4.1-10.5-5.7-13.6s-7.7-10-7.7-10c-0.7-0.5-2,1.2-2.9,2.8C162.6,154.5,165.5,159.9,167.7,160.6z"/>
<polygon class="st23" points="152.5,191.2 156.1,209.9 156.1,209.9 156.4,211.7 156.4,211.7 157.2,215.8 160.5,215.1 162.1,214.8 
	183.6,210.2 185.1,209.9 188.7,209.2 188,204.5 187.7,202.6 185.1,185.4 "/>
<path class="st17" d="M172.4,206.5c0,0,8.5,3.1,6.7,6.7c-1.8,3.7-13.7-2.8-13.7-2.8L172.4,206.5z"/>
<path class="st6" d="M166.4,232.7c0,0.2-0.3,3.5-1.6,4.7C163.5,238.5,166.4,232.7,166.4,232.7z"/>
<path class="st6" d="M174.9,244.2c0,0-1.5,4.2-7.6,5.9C161.2,251.9,174.9,244.2,174.9,244.2z"/>
<path class="st6" d="M161,138.1c0,3.6,1.9,6.9,5,8.6c0.6-0.3,1.1-0.7,1.5-1.3c0.4-0.5,0.8-1.3,0.5-1.9c-0.2-0.5-0.7-0.8-0.9-1.3
	c-0.1-0.3-0.1-0.7,0.1-1c0.1-0.5,0.2-1,0.3-1.5c0.1-0.4,0.3-0.9,0.7-1c0.4-0.1,0.7,0.2,1.1,0.5c0.8,0.6,2.3,1,3.3,0.5
	s0.7-2.2,0.8-3.2c0-0.2,0.1-0.3,0.2-0.4c0.2-0.1,0.3-0.1,0.4,0c0.5,0,0.9-0.4,1.1-1c0.1-0.5,0.1-1,0.2-1.5s0.2-1.1,0.7-1.3
	c0.4-0.2,0.7-0.2,1.1-0.2h1.9c-3.3-4.4-9.5-5.4-13.9-2.1C162.5,132,161,135,161,138.1L161,138.1z"/>
<path class="st24" d="M169,139.3c-0.3-0.3-0.7-0.6-1.1-0.5s-0.6,0.6-0.7,1l-0.3,1.5c-0.1,0.3-0.1,0.7-0.1,1c0.1,0.5,0.7,0.8,0.9,1.3
	c0.3,0.6-0.1,1.3-0.5,1.9c-0.8,1-1.9,1.6-3.1,1.8c-0.3,0.1-0.6,0.1-1,0c-0.7-0.1-1.2-0.8-1.6-1.4c-2-3.1-3.7-6.5-4-10.1
	c-0.1-0.7-0.1-1.5,0.1-2.2c0.1-0.6,0.4-1.1,0.7-1.6c0.5-1,1.2-2,1.9-2.9c1.3-1.5,3.2-2.4,5.2-2.9c2.2-0.6,4.4-0.8,6.7-0.5
	c0.6,0.1,1.2,0.2,1.8,0.2c0.7,0,1.5,0,2.2,0l4.4-0.3c0.2,0.5,0,1.1-0.3,1.6s-0.7,1-0.7,1.6s0.4,1,0.7,1.5c0.3,0.5,0.5,1.1,0.2,1.6
	s-1,0.5-1.5,0.5h-2.2c-0.4,0-0.8,0-1.1,0.2c-0.4,0.3-0.6,0.8-0.7,1.3c0,0.5-0.1,1-0.2,1.5c-0.1,0.5-0.6,1-1.1,1c-0.1,0-0.3,0-0.4,0
	c-0.1,0.1-0.2,0.3-0.2,0.4c-0.1,0.9,0.1,2.7-0.8,3.2C171.3,140.3,169.8,140,169,139.3z"/>
<path class="st6" d="M156.3,159c2.3-0.2,4.4,1.1,5.2,3.3c1.2,3.4,3.2,9.6,2.7,12c-0.7,3.4-1.5,9.2-1.5,9.2s-3.7,2.1-1.8,4.2
	c1.9,2.1,2.4,5.1,2.4,5.1s2.4,1,2.9,3.2c0.5,2.2,4,5.2,4,5.2l5.2,5.2c0,0-8.6,8.7-10.3,9.1l-5.3-6.2l-6.3-8.3l-5.4-5.7
	c0,0-1.3-3-0.6-8.7c0.7-5.7,3.1-11.2,3.1-11.2l-0.2-1.9C150.2,173.6,149.5,159.8,156.3,159z"/>
<path class="st18" d="M155.8,159c2.3-0.2,4.4,1.1,5.1,3.3c1.2,3.4,3.2,9.6,2.7,12c-0.7,3.4-1.5,9.2-1.5,9.2s-3.7,2.1-1.8,4.2
	c1.9,2.1,2.4,5.1,2.4,5.1s2.4,1,2.9,3.2c0.5,2.2,4,5.2,4,5.2l5.2,5.1c0,0-8.6,8.7-10.3,9.1l-5.3-6.2l-6.2-8.3l-5.4-5.7
	c0,0-1.3-3-0.6-8.7c0.7-5.7,3.1-11.1,3.1-11.1l-0.2-1.9C149.6,173.6,149,159.8,155.8,159z"/>
<path class="st6" d="M161.1,178.5c0,0-5.4,6.7-7.7,5.2C151.1,182.2,161.1,178.5,161.1,178.5z"/>
<path class="st6" d="M159.1,173.4c-0.6,0.2-5.3,6.8-7.7,6C148.8,178.6,159.1,173.4,159.1,173.4z"/>
<path class="st6" d="M157.7,184.7c0,0-0.3,3.8-4.2,3.3C149.5,187.4,157.7,184.7,157.7,184.7z"/>
<polygon class="st6" points="175,154.2 177.1,158.9 174.4,156.3 "/>
<polygon class="st21" points="175,154 177.1,158.7 174.4,156 "/>
<polygon class="st25" points="183.6,210.2 185.1,209.9 188,204.5 187.7,202.6 "/>
<polygon class="st25" points="156.1,209.9 156.4,211.7 156.4,211.7 160.5,215.1 162.1,214.8 "/>
<path class="st6" d="M220.7,189c0.8,0.1,1.6,0.2,2.2,0.3c3.9,0.5,13.2-4.1,13.2-4.1s11.3-9.4,14.6-18.4c3.3-9-3.9-10.3-3.9-10.3
	c-2.7-1.5-8.6,2.8-9.4,3.4c-0.8,0.7-1.5,2.5-1.5,3.6c0.1,1.1-1.9,2.6-1.9,2.6s-3.4,5.9-4.2,6.5s-1,1.2-1.3,2.3
	c-0.2,1.1-2.5,2-3.4,1.9c-1-0.1-2.1,0.3-2.1,0.8c0,0.4-0.9,0.6-1.7,0.7C221.1,181.8,220.9,186.1,220.7,189z"/>
<path class="st6" d="M220.8,188.1c0.6,0.1,1.2,0.2,1.7,0.3c3.9,0.5,13.2-4.1,13.2-4.1s11.3-9.4,14.6-18.4c3.3-9-3.9-10.3-3.9-10.3
	c-2.7-1.5-8.6,2.8-9.4,3.4c-0.8,0.7-1.5,2.5-1.5,3.6c0.1,1.1-1.9,2.6-1.9,2.6s-3.4,5.9-4.2,6.5s-1,1.2-1.3,2.3s-2.5,2-3.4,1.9
	c-1-0.1-2.1,0.3-2.1,0.8c0,0.3-0.5,0.5-1.1,0.6c0,0.4-0.1,0.7-0.1,1.1C221.1,181.5,220.9,185.2,220.8,188.1z"/>
<path class="st6" d="M205.9,181.6l0.2,5.8h0.3l0.5-0.3l-0.1-4.9C206.5,181.9,206.2,181.8,205.9,181.6z"/>
<path class="st13" d="M246.8,156c0,0,7.2,1.3,3.9,10.3c-3.3,8.9-14.6,18.4-14.6,18.4s-9.3,4.6-13.2,4.1c-3.9-0.5-9.8-1.9-10.6-1.6
	c-0.8,0.2-5.9,0.2-5.9,0.2l-0.2-6l6-0.3l3.1-0.6c0,0,1.1-0.9,1.7-0.8c0.7,0.1,2-0.8,2-0.8s1-0.8,1.8-0.8c0.8,0,2.2-0.2,2.2-0.7
	s1.1-0.9,2.1-0.8s3.2-0.8,3.5-1.9c0.3-1.1,0.4-1.6,1.3-2.3c0.8-0.7,4.2-6.5,4.2-6.5s2-1.5,1.9-2.6s0.6-2.9,1.5-3.7
	C238.3,158.8,244.2,154.5,246.8,156z"/>
<path class="st6" d="M228.4,176.6c0,0,2.8,2.8,2,3.3L228.4,176.6z"/>
<path class="st6" d="M225.5,178.8c0,0,3.6,2.8,2.6,2.9C227.1,181.9,225.5,178.8,225.5,178.8z"/>
<path class="st6" d="M231.6,182.9c-0.5,0.3-8.1,4.8-11,4.7L231.6,182.9z"/>
<path class="st6" d="M231.1,152.5c0,0,1.3,4.4,1.9,4.4c0.4,0,7.1-5.5,10-7.8l-0.1-0.1c0,0-0.3-2-1.3-3
	C240.4,145.1,231.1,152.5,231.1,152.5z"/>
<path class="st13" d="M231.3,152c0,0,1.3,4.4,1.9,4.4c0.4,0,7.2-5.5,10-7.8l-0.1-0.1c0,0-0.3-2-1.3-3
	C240.7,144.5,231.3,152,231.3,152z"/>
<g class="st26">
	<path d="M249.5,137.7L249.5,137.7c-0.9,2.1-3.4,3.1-4.8,4.7C245.4,140.4,248.1,139.5,249.5,137.7z"/>
	<path d="M240.2,142.5c0.4,0.7,1.2,1,2,1c0.7-0.1,1.3-0.2,2-0.5c-0.2,0.3-0.4,0.7-0.5,1.1c-0.7,0.3-1.5,0.5-2.2,0.6
		c-0.8,0-1.6-0.3-2-1c-0.6-1.1,0-2,0.7-2.9C239.9,141.3,240,141.9,240.2,142.5z"/>
	<path d="M229.1,127.5c0.1-0.6,0.6-1,0.8-1.6c0.1-0.4,0.2-0.8,0.3-1.3c0.2-0.6,0.5-1.2,0.9-1.6c-0.1,0.1-0.1,0.3-0.1,0.4
		c-0.1,0.4-0.2,0.9-0.3,1.3c-0.2,0.5-0.7,1-0.8,1.6c-0.1,0.8,0.4,1.7,1.2,1.9c1.1,0.2,2.4-0.7,3.3-0.1c0.6,0.4,0.7,1.2,0.8,1.9
		c0.1,1.2,0.3,2.4,0.4,3.6c0,0.4,0.1,0.8,0.3,1.2c0.5,1.1,1.8,1.6,2.9,1.6c0.4,0,0.9-0.1,1.3-0.4c0.2-0.2,0.4-0.5,0.5-0.7
		c1.5-1.3,1.9,1.8,1.6,2.7c-0.2,0.4-0.4,0.8-0.7,1.1c0.3-1-0.1-3.8-1.6-2.6c-0.2,0.2-0.4,0.4-0.5,0.7c-0.4,0.3-0.8,0.4-1.3,0.4
		c-1.2,0-2.5-0.5-2.9-1.6c-0.1-0.4-0.2-0.8-0.3-1.2c-0.1-1.2-0.3-2.4-0.4-3.6c-0.1-0.7-0.2-1.5-0.8-1.9c-1-0.6-2.2,0.3-3.3,0.1
		C229.5,129.1,229,128.3,229.1,127.5z"/>
</g>
<path class="st6" d="M162.5,146.6c0.3,0.1,0.7,0.1,1,0c1.2-0.2,2.3-0.9,3.1-1.8c0.4-0.5,0.8-1.3,0.5-1.9c-0.2-0.5-0.7-0.8-0.9-1.3
	c-0.1-0.3,0-0.7,0.1-1l0.3-1.5c0.1-0.4,0.2-0.9,0.7-1c0.4-0.1,0.7,0.2,1.1,0.5c0.8,0.6,2.3,1,3.3,0.5s0.7-2.2,0.8-3.2
	c0-0.1,0.1-0.3,0.2-0.4c0.1-0.1,0.3-0.1,0.4,0c0.5,0,0.9-0.4,1.1-1c0.1-0.5,0.1-1,0.2-1.5c0.1-0.5,0.2-1.1,0.7-1.3
	c0.4-0.2,0.7-0.2,1.1-0.2h2.2c0.5,0,1.2,0,1.5-0.5c0.3-0.4,0.1-1.1-0.2-1.6c-0.3-0.4-0.7-0.9-0.7-1.5c0-0.6,0.4-1.1,0.7-1.6
	c0.2-0.3,0.3-0.5,0.4-0.9h0.6c0.2,0.5,0,1.1-0.3,1.6s-0.7,1-0.7,1.5c0,0.6,0.4,1,0.7,1.5c0.3,0.5,0.5,1.1,0.2,1.6
	c-0.3,0.4-1,0.5-1.5,0.5h-2.2c-0.4,0-0.8,0-1.1,0.2c-0.4,0.3-0.6,0.8-0.7,1.3c0,0.5-0.1,1-0.2,1.5s-0.6,1-1.1,1c-0.1,0-0.3,0-0.4,0
	c-0.1,0.1-0.2,0.3-0.2,0.4c-0.1,0.9,0.1,2.7-0.8,3.2c-1,0.5-2.5,0.1-3.3-0.5c-0.3-0.3-0.7-0.6-1.1-0.5s-0.6,0.6-0.7,1l-0.3,1.5
	c-0.1,0.3-0.1,0.7-0.1,1c0.1,0.5,0.7,0.8,0.9,1.3c0.3,0.6-0.1,1.3-0.5,1.9c-0.8,1-1.9,1.6-3.1,1.8c-0.3,0.1-0.6,0.1-1,0
	c-0.5-0.1-1-0.5-1.3-1C162.2,146.5,162.3,146.6,162.5,146.6z"/>
<ellipse class="st0" cx="46.7" cy="249" rx="7.3" ry="1.1"/>
<ellipse class="st0" cx="120.8" cy="293.8" rx="21.1" ry="3.2"/>
<ellipse class="st0" cx="61" cy="280.2" rx="16.5" ry="2.5"/>
<ellipse class="st0" cx="63.7" cy="305.2" rx="27.9" ry="4.3"/>
<ellipse class="st0" cx="331.6" cy="308.9" rx="21.1" ry="3.2"/>
<path class="st23" d="M52.4,238.3c0,0,1,4.8-3.5,5.3l-0.3-0.5C48.6,243.1,52.1,239.8,52.4,238.3z"/>
<path class="st23" d="M47.1,243.1l1,0.2h0.1c0,0,2.8-2.3,2.8-7.4c-0.4,0.7-0.8,1.5-1.3,2.1C48.6,239.5,47.3,241.5,47.1,243.1z"/>
<path class="st23" d="M46.8,243.6c0.2,0.1,0.4,0.1,0.6,0.1c2.7-0.6,1.8-9.5,1.8-9.5c-0.1,0.1-0.3,1.2-0.9,2.7
	C47.1,239.4,45.9,242.9,46.8,243.6z"/>
<path class="st23" d="M40.7,238.3c0,0-0.2,4.8,4.4,5.3l0.3-0.5C45.4,243.1,41,239.8,40.7,238.3z"/>
<path class="st23" d="M42,235.9c0,5.1,3.6,7.4,3.6,7.4h0.1l1-0.2c-0.2-1.6-1.5-3.5-2.6-5C43.6,237.3,42.9,236.5,42,235.9z"/>
<path class="st23" d="M45.8,243.1c0.1,0.2,0.4,0.4,0.6,0.4l0,0c0.1,0,0.1,0.1,0.2,0.1c0.7,0.1,0.9-0.3,0.9-1.1c-0.1-1.5-1-4-1.8-5.9
	c-0.4-0.9-1-1.8-1.7-2.5C44,234.2,44,241.1,45.8,243.1z"/>
<path class="st23" d="M46.5,231c0,0,3,10.8,0.4,12.4C44.4,245.1,45.9,232,46.5,231z"/>
<path class="st6" d="M52.4,238.3c0,0,1,4.8-3.5,5.3l-0.3-0.5C48.6,243.1,52.1,239.8,52.4,238.3z"/>
<path class="st6" d="M47.1,243.1l1,0.2h0.1c0,0,2.8-2.3,2.8-7.4c-0.4,0.7-0.8,1.5-1.3,2.1C48.6,239.5,47.3,241.5,47.1,243.1z"/>
<path class="st6" d="M46.8,243.6c0.2,0.1,0.4,0.1,0.6,0.1c2.7-0.6,1.8-9.5,1.8-9.5c-0.1,0.1-0.3,1.2-0.9,2.7
	C47.1,239.4,45.9,242.9,46.8,243.6z"/>
<path class="st6" d="M40.7,238.3c0,0-0.2,4.8,4.4,5.3l0.3-0.5C45.4,243.1,41,239.8,40.7,238.3z"/>
<path class="st6" d="M42,235.9c0,5.1,3.6,7.4,3.6,7.4h0.1l1-0.2c-0.2-1.6-1.5-3.5-2.6-5C43.6,237.3,42.9,236.5,42,235.9z"/>
<path class="st6" d="M45.8,243.1c0.1,0.2,0.4,0.4,0.6,0.4l0,0c0.1,0,0.1,0.1,0.2,0.1c0.7,0.1,0.9-0.3,0.9-1.1c-0.1-1.5-1-4-1.8-5.9
	c-0.4-0.9-1-1.8-1.7-2.5C44,234.2,44,241.1,45.8,243.1z"/>
<path class="st6" d="M46.5,231c0,0,3,10.8,0.4,12.4C44.4,245.1,45.9,232,46.5,231z"/>
<path class="st27" d="M52.4,238.3c0,0,0.6,4.8-4,5.3l-0.3-0.5C48.1,243.1,52.1,239.8,52.4,238.3z"/>
<path class="st27" d="M46.7,243.1l1,0.2h0.1c0,0,3.2-2.3,3.2-7.4c0,0-0.8,0.9-1.8,2.1C48.2,239.5,46.9,241.5,46.7,243.1z"/>
<path class="st6" d="M46.7,243.1l1,0.2c1-0.9,1.4-3.2,1.6-5.2C48.2,239.5,46.9,241.5,46.7,243.1z"/>
<path class="st27" d="M46.3,243.6c0.2,0.1,0.4,0.1,0.6,0.1c2.7-0.6,2.2-9.5,2.2-9.5c-0.1,0.1-0.7,1.2-1.4,2.7
	C46.7,239.4,45.4,242.9,46.3,243.6z"/>
<path class="st27" d="M40.7,238.3c0,0-0.6,4.8,4,5.3l0.3-0.5C45,243.1,41,239.8,40.7,238.3z"/>
<path class="st27" d="M42,235.9c0,5.1,3.2,7.4,3.2,7.4h0.1l1-0.2c-0.2-1.6-1.5-3.5-2.6-5C42.9,236.8,42,235.9,42,235.9z"/>
<path class="st6" d="M43.8,238.1c0.1,1.9,0.5,4.1,1.3,5.1c0.1,0.1,0.1,0.1,0.2,0.2l1-0.2C46.2,241.5,44.9,239.5,43.8,238.1z"/>
<path class="st27" d="M45.3,243.1c0.1,0.2,0.4,0.4,0.6,0.4l0,0c0.1,0,0.1,0.1,0.2,0.1c0.7,0.1,0.9-0.3,0.9-1.1c-0.1-1.5-1-4-1.8-5.9
	c-0.6-1.3-1.1-2.4-1.3-2.5C44,234.2,43.6,241.1,45.3,243.1z"/>
<path class="st6" d="M46.3,243.6c0.1,0,0.3-0.1,0.4-0.1c1.3-0.8,1.3-3.8,1-6.6C46.7,239.4,45.4,242.9,46.3,243.6z"/>
<path class="st6" d="M45.3,243.1c0.1,0.3,0.4,0.5,0.6,0.4l0,0c0.1,0,0.3-0.1,0.4-0.1c0.3-0.2,0.6-0.6,0.7-0.9c-0.1-1.5-1-4-1.8-5.9
	C45,239.3,44.9,242,45.3,243.1z"/>
<path class="st27" d="M46.5,231c0,0,2.6,10.8,0,12.4C43.9,245.1,45.9,232,46.5,231z"/>
<polygon class="st28" points="41.5,242.9 52.4,242.9 52.4,244.7 50.7,244.7 50.7,244.9 50.1,248.4 43.7,248.4 43,244.9 43,244.7 
	41.5,244.7 "/>
<polygon class="st29" points="41.5,242.9 52.4,242.9 52.4,244.7 50.7,244.7 50.7,244.9 50.1,248.4 43.7,248.4 43,244.9 43,244.7 
	41.5,244.7 "/>
<polygon class="st30" points="42.4,244 42.6,244.9 43.3,248.4 49.6,248.4 50.3,244.9 50.5,244 "/>
<polygon class="st6" points="42.4,244 42.6,244.9 50.3,244.9 50.5,244 "/>
<rect x="41.1" y="242.9" class="st30" width="10.9" height="1.8"/>
<path class="st23" d="M319.9,273.7c0.3,0.4,0.5,0.8,0.7,1.3c0,0.1,0.1,0.2,0.1,0.4c0.1,0,0.1-0.1,0.2-0.1c0.4-0.1,0.7-0.1,1.1-0.1
	c0-0.1,0-0.3,0-0.4c0-1.6,0.1-3.8,1.6-2.8c1.4,0.9,0.4,2.4-0.5,3.4c-0.1,0.1-0.1,0.1-0.2,0.2c0.8,0.6,1,2,1.2,3.5
	c0.1,1.5,1.4,3.1,2.2,4c0.1,0.1,0.1,0.2,0.2,0.2c0.7-0.5,1.6-0.8,2.4-0.6c0-0.1,0.1-0.3,0.1-0.4c0.7-2.4,2.1-6.6,3.8-7.6l-0.2-0.3
	c-0.7-1-1.6-2.5-0.4-2.8c1.3-0.4,1.4,1.3,1.3,2.5c0,0.1,0,0.3,0,0.4c0.5,0,1,0.3,1.3,0.6l0.2-0.2c1-1.2,2.9-3.1,3.4-1.7
	c0.5,1.3-1.1,3.1-2.3,4.1l-0.1,0.1c0.8,3.1-2.6,5.7-4.4,6.8l-0.2,0.1c2.5,3,4.1,8.5,4.1,8.5l-7,1.3c0,0-4.7-4-4.1-7.8h-0.1
	c-4.7-0.9-5.7-5.9-5-8.9h-0.1c-0.8-0.4-1.6-0.9-2.2-1.6C315.8,274,318.5,272,319.9,273.7z"/>
<path class="st6" d="M319.9,273.7c0.3,0.4,0.5,0.8,0.7,1.3c0,0.1,0.1,0.2,0.1,0.4c0.1,0,0.1-0.1,0.2-0.1c0.4-0.1,0.7-0.1,1.1-0.1
	c0-0.1,0-0.3,0-0.4c0-1.6,0.1-3.8,1.6-2.8c1.4,0.9,0.4,2.4-0.5,3.4c-0.1,0.1-0.1,0.1-0.2,0.2c0.8,0.6,1,2,1.2,3.5
	c0.1,1.5,1.4,3.1,2.2,4c0.1,0.1,0.1,0.2,0.2,0.2c0.7-0.5,1.6-0.8,2.4-0.6c0-0.1,0.1-0.3,0.1-0.4c0.7-2.4,2.1-6.6,3.8-7.6l-0.2-0.3
	c-0.7-1-1.6-2.5-0.4-2.8c1.3-0.4,1.4,1.3,1.3,2.5c0,0.1,0,0.3,0,0.4c0.5,0,1,0.3,1.3,0.6l0.2-0.2c1-1.2,2.9-3.1,3.4-1.7
	c0.5,1.3-1.1,3.1-2.3,4.1l-0.1,0.1c0.8,3.1-2.6,5.7-4.4,6.8l-0.2,0.1c2.5,3,4.1,8.5,4.1,8.5l-7,1.3c0,0-4.7-4-4.1-7.8h-0.1
	c-4.7-0.9-5.7-5.9-5-8.9h-0.1c-0.8-0.4-1.6-0.9-2.2-1.6C315.8,274,318.5,272,319.9,273.7z"/>
<path class="st31" d="M332.2,274.4c0.2,0.3,0.5,0.7,0.8,1c0.1-0.4,0.1-0.8,0.1-1.3c0.1-1.2-0.1-2.9-1.3-2.5
	C330.6,271.9,331.4,273.4,332.2,274.4z"/>
<path class="st31" d="M321.5,274.8c0,0.8,0.1,1.4,0.1,1.4c0.4-0.3,0.7-0.6,1-0.9c0.9-1,2-2.5,0.5-3.4
	C321.7,271,321.5,273.2,321.5,274.8z"/>
<path class="st31" d="M316.7,275.8c0.6,0.7,1.3,1.3,2.2,1.6c0.2,0.1,0.5,0.2,0.7,0.3l1-1.3c-0.1-0.4-0.2-0.9-0.4-1.3
	s-0.4-0.9-0.7-1.3C318.1,272,315.4,274,316.7,275.8z"/>
<path class="st6" d="M-15.4,34.3c0.2,0.3,0.5,0.7,0.8,1c0.1-0.4,0.1-0.8,0.1-1.3C-14.7,34-15.1,34.1-15.4,34.3z"/>
<path class="st32" d="M328.1,284l2,0.9c0,0,0.4-0.2,1.1-0.6c2.2-1.3,6.5-4.6,3.6-8.6s-5.3,3.1-6.3,6.6
	C328.3,283.3,328.1,284,328.1,284z"/>
<path class="st6" d="M322.6,275.3c-0.3-0.3-0.7-0.5-1.1-0.5c0,0.8,0.1,1.4,0.1,1.4C322,275.9,322.3,275.6,322.6,275.3z"/>
<path class="st6" d="M318.8,277.5c0.2,0.1,0.5,0.2,0.7,0.3l1-1.3c-0.1-0.4-0.2-0.9-0.4-1.3C319.5,275.4,319,276.3,318.8,277.5z"/>
<path class="st32" d="M323.9,286.4c0.1,0,0.2,0.1,0.3,0.1c6.9,1,2.3-2.7,2.3-2.7s-0.3-0.3-0.7-0.7c-0.8-0.9-2.1-2.5-2.2-4
	c-0.2-2.2-0.5-4.3-3.1-3.7C317.9,275.9,317.4,285.1,323.9,286.4z"/>
<rect x="324.1" y="303.5" class="st33" width="13.1" height="3.4"/>
<rect x="322.2" y="292.3" class="st33" width="17.2" height="12.1"/>
<rect x="324.1" y="303.5" class="st6" width="13.1" height="3.4"/>
<rect x="322.2" y="292.3" class="st6" width="17.2" height="12.1"/>
<rect x="323.2" y="303.5" class="st33" width="13.1" height="3.4"/>
<path class="st6" d="M328.6,282.3c-0.3,1-0.4,1.7-0.4,1.7l2,0.9c0,0,0.4-0.2,1.1-0.6C330.4,283.2,329.5,282.5,328.6,282.3z"/>
<path class="st6" d="M323.9,286.4c0.1,0,0.2,0.1,0.3,0.1c6.9,1,2.3-2.7,2.3-2.7s-0.3-0.3-0.7-0.7C324.5,284.1,324,285.2,323.9,286.4
	z"/>
<path class="st32" d="M335.1,293c0,0-3.8-13.8-9.3-9.5c-5.4,4.3,2.2,10.8,2.2,10.8L335.1,293z"/>
<circle class="st6" cx="320.7" cy="278.2" r="0.4"/>
<circle class="st6" cx="330.7" cy="288.6" r="0.4"/>
<circle class="st6" cx="321.6" cy="281.6" r="0.4"/>
<circle class="st6" cx="326" cy="286.1" r="0.4"/>
<circle class="st6" cx="321.8" cy="279.5" r="0.4"/>
<circle class="st6" cx="323.3" cy="282.9" r="0.4"/>
<circle class="st6" cx="327.9" cy="288.3" r="0.4"/>
<circle class="st6" cx="328.8" cy="286.1" r="0.4"/>
<circle class="st6" cx="331" cy="281.3" r="0.4"/>
<rect x="323.2" y="303.5" class="st6" width="13.1" height="1.3"/>
<rect x="321.3" y="292.3" class="st33" width="17.2" height="12.1"/>
<circle class="st6" cx="327.3" cy="290.2" r="0.4"/>
<circle class="st6" cx="329.9" cy="290.7" r="0.4"/>
<ellipse class="st0" cx="44.6" cy="178" rx="4.2" ry="4.2"/>
<ellipse class="st0" cx="36.5" cy="169" rx="3.1" ry="3.1"/>
</svg>
