<?xml version="1.0" encoding="utf-8"?>
<!-- Generator: Adobe Illustrator 22.0.1, SVG Export Plug-In . SVG Version: 6.00 Build 0)  -->
<svg version="1.1" id="Layer_1" xmlns="http://www.w3.org/2000/svg" xmlns:xlink="http://www.w3.org/1999/xlink" x="0px" y="0px"
	 viewBox="0 0 1300 400" style="enable-background:new 0 0 1300 400;" xml:space="preserve">
<style type="text/css">
	.st0{opacity:0.1;fill:#0D8CD8;enable-background:new    ;}
	.st1{fill:url(#SVGID_1_);stroke:#000000;stroke-width:1.6452;stroke-miterlimit:10;}
	.st2{fill:#AEAEC1;}
	.st3{fill:#F7D5DE;}
	.st4{opacity:5.000000e-02;enable-background:new    ;}
	.st5{fill:#F4D0D7;}
	.st6{opacity:0.1;enable-background:new    ;}
	.st7{fill:#FFFFFF;}
	.st8{fill:#D3DAE1;}
	.st9{fill:url(#SVGID_2_);}
	.st10{fill:#A0A2A5;}
	.st11{fill:#BCBCC1;}
	.st12{fill:#FFD6D6;}
	.st13{fill:#DCE6F2;}
	.st14{fill:#B6B6B7;}
	.st15{fill:#E3E3E5;}
	.st16{fill:#A3A3A3;}
	.st17{fill:#D28690;}
	.st18{fill:#C9CBD3;}
	.st19{fill:#6B6B6B;}
	.st20{fill:#999999;}
	.st21{fill:#F0F3F7;}
	.st22{fill:#5E5D5E;}
	.st23{fill:#0D8CD8;}
	.st24{fill:#6F7070;}
	.st25{opacity:0.3;enable-background:new    ;}
	.st26{opacity:0.15;}
	.st27{fill:#7AC4EA;}
	.st28{fill:#4B4770;}
	.st29{opacity:0.1;fill:#7C7A9E;enable-background:new    ;}
	.st30{fill:#7C7A9E;}
	.st31{fill:#6EA2B7;}
	.st32{fill:#A7D4EA;}
	.st33{fill:#D4DFEC;}
</style>
<circle class="st0" cx="940.4" cy="76" r="4"/>
<linearGradient id="SVGID_1_" gradientUnits="userSpaceOnUse" x1="1300" y1="200" x2="2600" y2="200" gradientTransform="matrix(-1 0 0 1 2600 0)">
	<stop  offset="0" style="stop-color:#00354D"/>
	<stop  offset="0.4129" style="stop-color:#00364F"/>
	<stop  offset="0.5616" style="stop-color:#003C56"/>
	<stop  offset="0.6676" style="stop-color:#004561"/>
	<stop  offset="0.7534" style="stop-color:#005272"/>
	<stop  offset="0.8268" style="stop-color:#006388"/>
	<stop  offset="0.8918" style="stop-color:#0078A4"/>
	<stop  offset="0.9492" style="stop-color:#0091C3"/>
	<stop  offset="1" style="stop-color:#00ACE6"/>
	<stop  offset="1" style="stop-color:#0093C7"/>
	<stop  offset="1" style="stop-color:#0075A3"/>
	<stop  offset="1" style="stop-color:#005B83"/>
	<stop  offset="1" style="stop-color:#004567"/>
	<stop  offset="1" style="stop-color:#003351"/>
	<stop  offset="1" style="stop-color:#002540"/>
	<stop  offset="1" style="stop-color:#001B35"/>
	<stop  offset="1" style="stop-color:#00162E"/>
	<stop  offset="1" style="stop-color:#00142C"/>
</linearGradient>
<rect class="st1" width="1300" height="400"/>
<path class="st0" d="M1015.8,89.5h0.4c-0.3-0.1-0.5-0.4-0.5-0.7l0,0c0-0.5,0.8-1,1.8-1h12.8c1,0,1.8,0.4,1.8,1l0,0
	c0,0.5-0.8,1-1.8,1h-0.4c0.3,0.1,0.5,0.4,0.5,0.7c0,0.5-0.6,0.9-1.4,1h3.7c1,0,1.8,0.4,1.8,1s-0.8,1-1.8,1H1020c-1,0-1.8-0.4-1.8-1
	c0-0.5,0.6-0.9,1.4-1h-3.7c-1,0-1.8-0.4-1.8-1S1014.9,89.5,1015.8,89.5z"/>
<path class="st0" d="M1154.8,99.1h0.4c-0.3-0.1-0.5-0.4-0.5-0.7l0,0c0-0.5,0.8-1,1.8-1h12.8c1,0,1.8,0.4,1.8,1l0,0
	c0,0.5-0.8,1-1.8,1h-0.4c0.3,0.1,0.5,0.4,0.5,0.7c0,0.5-0.6,0.9-1.4,1h3.7c1,0,1.8,0.4,1.8,1c0,0.5-0.8,1-1.8,1h-12.8
	c-1,0-1.8-0.4-1.8-1c0-0.5,0.6-0.9,1.4-1h-3.7c-1,0-1.8-0.4-1.8-1S1153.8,99.1,1154.8,99.1z"/>
<path class="st0" d="M996.2,139.8h0.4c-0.3-0.1-0.5-0.4-0.5-0.7l0,0c0-0.5,0.8-1,1.8-1h12.8c1,0,1.8,0.4,1.8,1l0,0
	c0,0.5-0.8,1-1.8,1h-0.4c0.3,0.1,0.5,0.4,0.5,0.7c0,0.5-0.6,0.9-1.4,1h3.7c1,0,1.8,0.4,1.8,1s-0.8,1-1.8,1h-12.8c-1,0-1.8-0.4-1.8-1
	c0-0.5,0.6-0.9,1.4-1h-3.7c-1,0-1.8-0.4-1.8-1S995.2,139.8,996.2,139.8z"/>
<ellipse transform="matrix(0.2002 -0.9798 0.9798 0.2002 710.6038 1337.9562)" class="st0" cx="1174.8" cy="233.7" rx="19.5" ry="64.1"/>
<path class="st2" d="M1167.6,179.1c0,0,3.4-16.7,16.4-15.2c0,0,9,0.6,10.9,6.5v13L1167.6,179.1z"/>
<polygon class="st3" points="1238.8,185.4 1122.9,175.7 1108,178.8 1109,199.6 1110,199.7 1111.1,230.9 1224.9,251.3 1237,241.1 
	1237,207.3 1238.5,206.4 "/>
<polygon class="st4" points="1239,185.4 1238.7,206.4 1226.1,212.3 1226,190.3 "/>
<polygon class="st4" points="1237,207.3 1237.1,240.5 1225,250.7 1225.8,212.3 "/>
<polygon class="st4" points="1110.1,200.9 1225.9,215.1 1226,212.4 1110,199.9 "/>
<polygon class="st4" points="1237,208.6 1237,207.3 1225.5,212.4 1225.5,215.1 "/>
<polygon class="st5" points="1107.9,178.8 1122.8,175.7 1238.7,185.4 1225.6,190.3 "/>
<polygon class="st6" points="1226.3,185.9 1232,186.3 1222.6,189.1 1217.8,188.8 "/>
<polygon class="st7" points="1226.3,185.7 1232,186.1 1222.6,188.9 1217.8,188.5 "/>
<path class="st8" d="M1225.6,186.3c0.2-0.1,0.4,0.1,0.7,0.1c0.1,0,0.3,0,0.4,0c0.3,0,0.5,0.2,0.8,0.1"/>
<path class="st8" d="M1225.3,186.5c0.2-0.1,0.4,0.1,0.7,0.1c0.1,0,0.3,0,0.4,0c0.3,0,0.5,0.2,0.8,0.1"/>
<path class="st8" d="M1224.7,186.9c0.2-0.1,0.4,0.1,0.7,0.1c0.1,0,0.3,0,0.4,0c0.3,0,0.6,0.2,0.8,0.1"/>
<polygon class="st6" points="1201.7,183.1 1207.4,183.5 1198,186.3 1193.2,186 "/>
<polygon class="st7" points="1201.7,182.9 1207.4,183.3 1198,186.1 1193.2,185.7 "/>
<path class="st8" d="M1201,183.5c0.2-0.1,0.4,0.1,0.7,0.1c0.2,0,0.3,0,0.4,0c0.3,0,0.5,0.2,0.8,0.1"/>
<path class="st8" d="M1200.7,183.7c0.2-0.1,0.4,0.1,0.7,0.1c0.1,0,0.3,0,0.4,0c0.3,0,0.5,0.2,0.8,0.1"/>
<path class="st8" d="M1200.1,184c0.2-0.1,0.4,0.1,0.7,0.1c0.1,0,0.3,0,0.4,0c0.3,0,0.6,0.2,0.8,0.1"/>
<polygon class="st6" points="1213.5,184.5 1219.2,184.9 1209.8,187.7 1205,187.4 "/>
<polygon class="st7" points="1213.5,184.3 1219.2,184.7 1209.8,187.5 1205,187.1 "/>
<path class="st8" d="M1212.8,184.9c0.2-0.1,0.4,0.1,0.7,0.1c0.1,0,0.3,0,0.4,0c0.3,0,0.6,0.2,0.8,0.1"/>
<path class="st8" d="M1212.6,185.1c0.2-0.1,0.4,0.1,0.7,0.1c0.1,0,0.3,0,0.4,0c0.3,0,0.6,0.2,0.8,0.1"/>
<path class="st8" d="M1211.9,185.4c0.2-0.1,0.4,0.1,0.7,0.1c0.1,0,0.3,0,0.4,0c0.3,0,0.5,0.2,0.8,0.1"/>
<ellipse class="st0" cx="1084.7" cy="288.5" rx="60.7" ry="12.5"/>
<linearGradient id="SVGID_2_" gradientUnits="userSpaceOnUse" x1="1147.5623" y1="-96.1406" x2="1147.5623" y2="-271.6181" gradientTransform="matrix(1 0 0 1 -54.11 392.29)">
	<stop  offset="0" style="stop-color:#808080;stop-opacity:0.25"/>
	<stop  offset="0.54" style="stop-color:#808080;stop-opacity:0.12"/>
	<stop  offset="1" style="stop-color:#808080;stop-opacity:0.1"/>
</linearGradient>
<path class="st9" d="M1151.2,186.2c-0.7-5.7-3.2-11.1-3.2-11.1l0.2-1.9c0,0,0-1,0-2.4c0-0.9,0.1-1.8,0.4-2.7
	c0.5-1.6-0.7-3.7-0.8-3.9c-0.1-0.2,0.1-3.8-1.1-5.6s-9.1-5.1-9.1-5.1s-0.4-0.9-1-1.9l0.1-0.1c-0.5-0.9-1.1-1.7-1.8-2.4
	c-0.5-0.5-1-0.8-1.3-0.7c-0.1-0.5-0.3-1-0.4-1.5c0.1,0,0.1,0,0.2,0.1c0.3,0.1,0.7,0.1,1,0c0.7-0.1,1.2-0.8,1.6-1.4
	c2-3.1,3.8-6.5,4.1-10.1c0.1-0.7,0.1-1.5-0.1-2.2c-0.2-0.6-0.4-1.1-0.7-1.6c-0.5-1-1.2-2-2-2.9c-1.4-1.5-3.3-2.4-5.3-2.9
	c-2.2-0.6-4.6-0.8-6.9-0.5c-0.6,0.1-1.2,0.2-1.8,0.2c-0.7,0-1.5,0-2.3,0l-3.9-0.2v-0.1h-0.7c-0.3,0.5,0,1.1,0.3,1.6s0.7,1,0.7,1.6
	c0,0.6-0.4,1-0.7,1.5c-0.3,0.5-0.6,1.1-0.2,1.6c0.1,0.1,0.1,0.1,0.1,0.2c0.3,0.4,0.9,0.4,1.4,0.4h0.1c-1.3,1.7-2,3.8-2,5.9
	c0,3.7,2.1,7.1,5.4,8.8c0.1,0.2,0.1,0.4,0.2,0.6c0.6,2.1,0.8,4.3,0.6,6.5l-0.1,0.1V154c0,0-4.6,3.1-6,4c-1.4,0.8-2.8,3.7-2.8,4.4
	s-2.2,12.4-2.2,12.4c-0.4,1.2-0.8,2.4-1.1,3.6l-2.8,2.4c0,0-5.7,0.5-7.3,0.1l0.1,0.3c-1.5-0.3-2.9-0.5-4.4-0.6
	c-0.8-0.1-1.6,0-2.4,0.3h-0.1h-0.1c-0.9,0.1-1.7,0.4-2.5,0.7c-0.1,0-0.2,0.1-0.3,0.1v-0.4l-6.2-0.3l-3.1-0.6c0,0-1.1-0.9-1.8-0.8
	c-0.7,0.1-2-0.8-2-0.8c-0.3-0.2-0.7-0.4-1-0.6c-0.1-0.7-0.2-1.2-0.2-1.2s-2.5-9.7-4.3-15.4c-1.2-3.8-3-5.7-4-6.5
	c-0.4-0.8-0.8-1.3-0.8-1.3c-0.2-0.7-1.3-2.3-1.6-2.3c0-0.1-0.1-0.1-0.1-0.1c-0.1,0-0.1,0-0.2,0c-0.5-2.6-0.8-5.8,0-8.6
	c2.2-1.8,3.4-4.5,3.4-7.3v-0.1v-0.1c0-2.2-0.8-4.4-2.2-6.1l-0.1-0.1c0,0,0.1,0,0.1-0.1c0.4-0.4,0.7-1,0.6-1.6s-0.6-1-0.8-1.6
	c-0.1-0.4-0.2-0.8-0.3-1.3c-0.2-0.6-0.5-1.2-1-1.6l0.1,0.1c-1.2-1.3-3.2-2-5-1.7c-1.3,0.2-2.6,0.8-4,1c-1,0.1-2,0.1-2.9,0.1
	c-0.9,0.1-1.8,0.4-2.6,0.7c-0.2,0.1-0.4,0.2-0.5,0.4c-0.1,0.2-0.2,0.5-0.3,0.8c-0.3,1.2-1.4,2.1-2.2,3.1c-0.9,1.2-1.4,2.5-1.4,4
	c0,0.4,0,0.7,0.1,1.1c0.1,0.2,0.2,0.4,0.2,0.6c0.1,0.7-0.2,1.3-0.4,2c-0.2,0.8-0.1,1.7,0.2,2.5c1.2,2.6,5.1,3.5,5.9,6.3
	c0.6,0.3,1.3,0.5,1.9,0.6c0.1,0.3,0.1,0.6,0.1,0.8c0,0,0,0-0.1,0c-1,1-1.3,3-1.3,3l-0.1,0.1c-0.4,0.4-1.9,1.5-3.2,2.5
	c-1.6,1.1-4.2,4.7-6,5.8s-3.4,7.8-2.9,10.2c0.4,2.4,2,9.3,1.4,11.8c-0.7,2.5,1,13.9,1,13.9c1.1,0.2,2.2,0.5,3.2,1v0.5l-0.1,1.5
	c0,0-3,10.7-1.8,19s-0.5,9.1-0.5,9.1s0.4,3.7-0.5,4.9c-0.9,1.3-1,4.1-1,4.1s-0.1,6.3,0.1,8.1s0.3,5-0.4,5.8
	c-0.6,0.8-1.7,5.8-1.6,7.3c0.1,1.6-2.2,5-1,9.6c1.2,4.5-3.6,4.6-3.6,4.6s0.6,6.9,1.9,8.9l0.2,0.3c0,0.1-0.1,0.2-0.1,0.4
	c-0.5,1.8-1.2,4.6-0.7,5.3c0.7,1,1,0.8,1,0.8l0.3,4.6c0,0,5.2,4.4,9.3,4.3c4-0.2,3.2-4.3,3.2-4.3l-3.4-8.9l-0.1-0.3l3.8-7.2
	c0,0,1-3.1,1.3-4.3c0.3-1.1,1.7-5,1.7-5s3.6-8.5,3.7-9.6c0.1-1,0.4-6.6,1-7.7c0.7-1.1,2.6-7.5,2.6-7.5h0.1c0.7,0.7,0.9,1.6,0.7,2.5
	c-0.4,1.6-0.2,4.9-0.2,4.9s-0.2,2.8-0.5,4.3c-0.4,1.4-0.4,13.3,0.2,16.1c0.5,2.2,0.5,6.5,0.4,8.1c-0.4,1.7-0.8,3.8-0.1,4
	c1.1,0.4,6.9,0.3,6.9,0.3s2.5-0.8,5.8,2.1s13.6-0.8,13.6-0.8s3.1-0.8-3.1-3.3c-4.3-1.7-7.1-2.9-9-4.1c0-0.1,0.1-0.1,0.1-0.2
	c0,0-2.5-2.4-0.4-6.7c2.1-4.3,2-7.9,2-7.9l0.4-14.3l-1-19l-0.8-20l0.1-0.1c0.1,3.7,0.8,12.4,4.6,10.7c4.7-2.1,0.7-7.7,0.7-7.7
	l-2.1-4.1l0.6-0.2l-2.4-7.7c-0.2-1.5-0.3-3-0.1-4.5c0.1-0.9,0-1.8-0.1-2.6c3.1-0.5,6.1-1.1,6.6-1c0.6,0.1,4.1,0.2,5.5,0.2
	c-0.4,0.4-0.8,0.7-0.8,0.7l5.6,3.8c0,0,1.9-1,2.3-2.2c0.4-0.1,0.7-0.3,1-0.6c0.1,1.3,0.4,2.7,1.6,2.8c0.3,0,0.6-0.1,0.9-0.2l9.2-1.8
	l-0.8,4.9l0.5,1c-0.3,4.2-0.6,8.6-0.9,12.5l-0.1,0.8h0.1c-0.4,6-0.8,10.5-0.8,10.5c0.5-1,1.3-1.8,2.3-2.3l0.1,8.9
	c0,0,0.4,14.1,0.4,16s0.1,6.2,0.1,6.2s1,5.2,1.6,7c0.6,1.7,1,9.6,1,9.6s1.4,2.2,0.8,3s2.3,2.6,2.3,2.6s-1.8,2.5-2,4.2
	c0,0.2,0.2,0.4,0.5,0.6c-0.1,0.1-0.2,0.2-0.3,0.3c-0.8,0.6-2.1,1-4,0.8c-5.1-0.4-8.7,4.3-5.6,5.2c3.1,1,12.6,1.1,12.6,1.1
	s2.8-1.8,5.1-1c0,1.9,0.1,3.6,0.1,3.8l0,0c-1.3,1.2-3.9,3.3-6.4,4.1c-3.6,1.2-4.4,6.1,0.3,6.8c4.7,0.6,11.5-0.8,11.5-0.8
	s3.5-2.6,6.2-3.2s5-1.9,4.5-3.4c-0.3-1-1.1-3.5-1.6-5.3c0-0.1-0.1-0.2-0.1-0.3c0.1-0.2,0.1-0.4,0.2-0.6c0,0-1.4-7.2-0.3-9
	s0.5-19.7,0.5-19.7s-1.9-4.5-0.9-7.3s-1.6-6.7-1.6-6.7s0.3-7.8,1-12.2c0-0.2,0.1-0.4,0.1-0.5c1.3-0.4,2.5-0.8,3.7-1.4
	c0,0,0.7-9.9,1-12.1c0-0.2,0.1-0.5,0.1-1l0.3-1.6l0,0l0.4-1.8l0,0l1.2-6.1l2.2-2.8l5.6-5.7C1150.6,194.9,1151.9,191.9,1151.2,186.2z
	 M1065.2,151L1065.2,151L1065.2,151L1065.2,151z M1120.3,158l-0.2,0.5l0.8-0.8l-1.1,1.2l0.4-0.7L1120.3,158z M1115,169
	c-0.2,0.5-0.4,1.1-0.7,1.8l0.4-1.3L1115,169z"/>
<path class="st10" d="M1097.8,186.9c0,0-0.7,4.9,1.5,4.9c2.2,0.1,3.7-3.8,3.7-3.8l-0.9-3.1L1097.8,186.9z"/>
<path class="st11" d="M1048.4,292.8c-3.9,0.2-9-4.3-9-4.3l-0.3-4.6c0,0-0.3,0.2-1-0.8c-0.4-0.7,0.2-3.5,0.7-5.3
	c0.2-0.9,0.4-1.5,0.4-1.5l8.6,2.3l0.4,1.1l3.3,8.9C1051.6,288.5,1052.4,292.6,1048.4,292.8z"/>
<path class="st11" d="M1088,279.7c0,0-10,3.8-13.2,0.8s-5.6-2.1-5.6-2.1s-5.6,0.1-6.7-0.3c-0.7-0.2-0.3-2.4,0.1-4.1
	c0.3-1.2,0.6-2.1,0.6-2.1s9.8-3.3,11.3-1.3c0.4,0.6,1,1.1,1.6,1.6c1.8,1.3,4.6,2.5,8.9,4.2C1091,278.9,1088,279.7,1088,279.7z"/>
<path class="st12" d="M1079,201.8l2.7,5.5c0,0,3.9,5.5-0.7,7.7c-4.6,2.1-4.5-12.3-4.5-12.3L1079,201.8z"/>
<path class="st13" d="M1067.6,154.6c0,0,3,1.3,4.8,7.1c1.8,5.7,4.2,15.4,4.2,15.4s1.6,11,1.3,13.7c-0.1,1.5-0.1,3,0.1,4.5l2.3,7.7
	l-4.6,1.6l-7.1-27.1L1067.6,154.6z"/>
<path class="st4" d="M1067.6,154.6c0,0,3,1.3,4.8,7.1c1.8,5.7,4.2,15.4,4.2,15.4s1.6,11,1.3,13.7c-0.1,1.5-0.1,3,0.1,4.5l2.3,7.7
	l-4.6,1.6l-7.1-27.1L1067.6,154.6z"/>
<path class="st6" d="M1047.8,278.5l0.4,1.1l-0.5,1c-1.9,0.8-6.8,0.2-6.8,0.2s-0.9-1.1-2.1-3c0.2-0.9,0.4-1.5,0.4-1.5L1047.8,278.5z"
	/>
<path class="st6" d="M1076.4,272.6c-2.5,5.6-10.9,3.5-13.3,2.8c-0.4-0.1-0.6-0.2-0.6-0.2s0-0.4,0-1.2c0.3-1.2,0.6-2.1,0.6-2.1
	s9.8-3.3,11.3-1.3c0.4,0.6,1,1.1,1.6,1.6C1076.2,272.3,1076.3,272.5,1076.4,272.6z"/>
<path class="st14" d="M1076,265.4c-2,4.3,0.4,6.7,0.4,6.7c-2.5,5.6-10.9,3.5-13.3,2.8c-0.4-0.1-0.6-0.2-0.6-0.2s0.2-5.9-0.4-8.7
	s-0.5-14.7-0.2-16.1c0.3-1.4,0.5-4.3,0.5-4.3s-0.2-3.3,0.2-4.9c0.3-0.9,0-1.9-0.6-2.5v-0.1c0,0-1.9,6.4-2.5,7.5s-0.9,6.7-1,7.7
	s-3.6,9.5-3.6,9.5s-1.3,3.9-1.6,5c-0.3,1.1-1.3,4.3-1.3,4.3l-4.1,7.9c-1.9,0.8-6.8,0.2-6.8,0.2s-0.9-1.2-2.2-3.1
	c-1.3-1.9-1.9-8.8-1.9-8.8s4.7-0.1,3.5-4.6s1-8,0.9-9.5s1-6.6,1.6-7.3s0.5-4,0.3-5.8s-0.1-8.1-0.1-8.1s0.2-2.8,1-4.1
	s0.5-4.9,0.5-4.9s1.6-0.8,0.5-9.1s1.8-19,1.8-19l0.1-1.5l0.1-2.4c0,0,24.4-1.5,26.3,0.3c0.5,0.5,0.9,1.1,1.3,1.8
	c0.7,1.4,1.1,3,1.4,4.5l1,25.8l1,19l-0.3,14.3C1077.9,257.6,1078,261.2,1076,265.4z"/>
<path class="st6" d="M1068.7,214.5l-2.5,55.4l-3.1,5c-0.4-0.1-0.6-0.2-0.6-0.2s0.2-5.9-0.4-8.7c-0.6-2.8-0.5-14.7-0.2-16.1
	c0.3-1.4,0.5-4.3,0.5-4.3s-0.3-3.3,0.2-4.9c0.3-0.9,0-1.9-0.6-2.5v-0.3L1068.7,214.5z"/>
<path class="st6" d="M1041.2,274c0,0,6.7-2.6,7.7-1.8c1,0.8-7.8,2.1-7.8,2.1L1041.2,274z"/>
<path class="st6" d="M1074,267c-0.2,0.1-6.7,2.4-6.1,4.9C1068.5,274.3,1074,267,1074,267z"/>
<path class="st12" d="M1053.8,140.9c0,0,2.2,5.2,1,7.9c-1.1,2.7,12.4,7.3,12.4,7.3s-4-10.2-0.1-16
	C1070.9,134.4,1053.8,140.9,1053.8,140.9z"/>
<path class="st15" d="M1133.1,292.6c-2.6,0.6-6.1,3.2-6.1,3.2s-6.7,1.4-11.2,0.8s-3.8-5.5-0.2-6.8c2.4-0.8,4.9-2.9,6.2-4.1
	c0.6-0.5,0.9-0.9,0.9-0.9l12.7-2.5c0,0,0.2,0.7,0.5,1.7c0.5,1.7,1.3,4.3,1.6,5.3C1137.9,290.8,1135.7,292,1133.1,292.6z"/>
<path class="st15" d="M1129.8,282.8c0,0-5.4,0.6-7.6-0.7s-5.4,0.8-5.4,0.8s-9.2-0.2-12.3-1.1c-3.1-1,0.4-5.7,5.4-5.2
	c1.8,0.1,3.1-0.2,3.9-0.8c0.9-0.6,1.5-1.5,1.7-2.5l10.8,0.6l1.5,3.8L1129.8,282.8z"/>
<path class="st6" d="M1127.9,279.3c0,0-12.5-2-14.2-3.7c0.9-0.6,1.5-1.5,1.7-2.5l10.8,0.6l1.5,3.8L1127.9,279.3z"/>
<path class="st16" d="M1109.4,207.5l0.1,18.7c0,0,0.4,14.1,0.4,16s0.1,6.2,0.1,6.2s1,5.2,1.5,7c0.6,1.7,1,9.6,1,9.6s1.3,2.2,0.8,3
	c-0.6,0.8,2.2,2.6,2.2,2.6s-1.8,2.5-1.9,4.2s14.3,4,14.3,4l-5.6-57.6l-4.5-14.5L1109.4,207.5z"/>
<path class="st6" d="M1135.9,283.9c-4.2,10-14.1,2.3-14.1,2.3s0-0.2,0-0.5c0.6-0.5,0.9-0.9,0.9-0.9l12.7-2.5
	C1135.4,282.3,1135.7,283,1135.9,283.9z"/>
<path class="st14" d="M1136.1,283.1c-4.1,10.5-14.2,2.6-14.2,2.6s-0.3-5.4,0.3-7.9c0.7-2.5-0.7-10-0.7-10s-0.8-6.7-1.5-8.2
	s-0.6-4.6-0.6-4.9c0-0.3,0.2-2.3-0.3-3.7s-0.9-4.9-0.9-4.9s0-4.9-0.6-7.7l-2-9.9l-3.6-20.3l1.1-0.2l20-3.5c0,0,3.8,19.2,2.5,21.2
	c-0.3,0.4-0.5,1.4-0.7,2.6c-0.7,4.3-1,12.2-1,12.2s2.5,3.9,1.5,6.7s0.9,7.3,0.9,7.3s0.6,17.9-0.5,19.7
	C1134.8,276,1136.1,283.1,1136.1,283.1z"/>
<path class="st17" d="M1134.2,152.3c0,0-18.1,12.8-14.1,6.4c2.2-3.4,1.8-7.8,0.9-11.1c-0.4-1.7-1-3.3-1.8-4.9c0,0,15.4-6.6,13.4-0.7
	c-0.5,1.4-0.7,2.8-0.6,4.3C1132.1,148.4,1132.9,150.5,1134.2,152.3z"/>
<path class="st17" d="M1101.5,181.5c0,0-7.7-2.2-8.9,0c-1.3,2.2,0.4,7,2.7,7.7c2.3,0.7,7.6-2.6,7.6-2.6L1101.5,181.5z"/>
<path class="st18" d="M1110.3,177.8l-3.2,2.9c0,0-5.5,0.5-7.2,0.1c0,0,1.5,9.8-0.6,11.1l12.9-2.6L1110.3,177.8z"/>
<path class="st6" d="M1069.2,135.5c0,5.3-4.3,9.6-9.6,9.6c-4.9-2.4-9.6-4.3-9.6-9.6c-0.2-5.3,3.9-9.7,9.2-10c5.3-0.2,9.7,3.9,10,9.2
	C1069.2,135,1069.2,135.3,1069.2,135.5L1069.2,135.5z"/>
<path class="st12" d="M1069.2,135.3c0,5.3-4.3,9.6-9.6,9.6c-5.3,0-9.6-4.3-9.6-9.6s4.3-9.6,9.6-9.6c2.9,0,5.6,1.3,7.4,3.5
	C1068.5,130.9,1069.2,133,1069.2,135.3z"/>
<path class="st6" d="M1074.8,193.9c-1,0.6-1.9,1.1-3,1.5c0,0-4.9-0.7-5.5,0.1c-0.7,0.8-6.9,1.1-6.9,1.1s-9.4-0.4-10.9-1.6
	c-0.4-0.4-0.9-0.6-1.4-0.8l0.1-2.4c0,0,24.4-1.5,26.3,0.3C1074.1,192.7,1074.5,193.3,1074.8,193.9z"/>
<path class="st13" d="M1076,192.2c-0.2,1.1-4.2,2.8-4.2,2.8s-4.9-0.7-5.5,0.1c-0.7,0.8-6.9,1.1-6.9,1.1s-9.4-0.4-10.9-1.6
	s-4.5-1.8-4.5-1.8s-1.6-11.4-1-13.9s-1-9.3-1.3-11.8c-0.4-2.4,1.1-9.1,2.9-10.2s4.3-4.7,5.9-5.8c1.3-0.9,2.7-2.1,3.1-2.5l0.1-0.1
	c0,0,0.3-2,1.3-3s10.4,6.4,10.4,6.4s0.1,0.6,0.7-0.5c0.1-0.2,1.4,1.5,1.6,2.3c0,0,5.1,9,5.4,10.8s1.6,7.9,1.9,9.3
	c0.1,0.4,0.2,1.7,0.3,3.5c0,0.4,0.1,0.7,0.1,1.1c0.2,2.9,0.4,6.7,0.5,9.5c0,0.3,0,0.6,0,0.9C1076.1,190.1,1076.1,191.1,1076,192.2z"
	/>
<path class="st6" d="M1043.6,169.1c0,0,3.5,4.3,4.7,4.3C1049.4,173.4,1043.6,169.1,1043.6,169.1z"/>
<path class="st6" d="M1051,178.3c0,0-5.8,6.3-5,7.4C1046.8,186.9,1051,178.3,1051,178.3z"/>
<path class="st6" d="M1046.7,190.8c0,0,6.6-7.2,6.9-9.7L1046.7,190.8z"/>
<path class="st6" d="M1055,191.3c0,0,7.6-4,8.2-7.2C1063.9,180.9,1055,191.3,1055,191.3z"/>
<path class="st6" d="M1064.7,152.5l-1,2.5l1.8,0.8l1.7,4.8c0,0,4.8,9.5,4.6,14.5c-0.2,4.9,0.9,12.4,0.9,12.4l2.8-0.5l-1.3-14.6
	c-0.2-2.2-0.8-4.5-1.7-6.5c-2.2-5-6.3-14.3-6.5-14.3c-0.4,0-0.1,0.1-0.1,0.1L1064.7,152.5z"/>
<path class="st19" d="M1065,152.2l-1,2.5l1.8,0.8l1.7,4.8c0,0,4.8,9.5,4.6,14.5c-0.2,4.9,0.9,12.4,0.9,12.4l2.8-0.5l-1.3-14.6
	c-0.2-2.2-0.7-4.5-1.7-6.5c-2.2-5-6.3-14.3-6.5-14.3c-0.4,0-0.1,0.1-0.1,0.1L1065,152.2z"/>
<path class="st12" d="M1096.1,189.8c-1.3-0.1-4.6-1.7-5.8-2.4l-0.5-0.3l0.1-4.9c0.3-0.2,0.6-0.4,1-0.5c1.7-0.7,5.2-1.8,7,1.5
	C1100.1,187.5,1097.8,189.9,1096.1,189.8z"/>
<path class="st6" d="M1067.1,129.2c-0.1,0.1-0.3,0.1-0.4,0.2c-1.1,0.2-2.4-0.7-3.3-0.1c-0.6,0.4-0.7,1.2-0.8,1.9
	c-0.1,1.2-0.3,2.4-0.4,3.6c0,0.4-0.1,0.8-0.3,1.2c-0.5,1.1-1.8,1.6-2.9,1.6c-0.4,0-0.9-0.1-1.3-0.4c-0.2-0.2-0.3-0.5-0.5-0.7
	c-1.5-1.3-1.9,1.8-1.6,2.7c0.6,1.4,2.9,2.8,1.9,4.6c-0.1,0.3-0.4,0.5-0.7,0.7c-5.1-1.6-7.9-7-6.3-12c1.6-5.1,7-7.9,12-6.3
	C1064.3,126.6,1065.9,127.7,1067.1,129.2z"/>
<path class="st20" d="M1056.8,136.4c0.2,0.2,0.3,0.5,0.5,0.7c0.4,0.3,0.8,0.4,1.3,0.4c1.2,0,2.5-0.5,2.9-1.6
	c0.1-0.4,0.2-0.8,0.3-1.2l0.4-3.6c0.1-0.7,0.2-1.5,0.8-1.9c1-0.6,2.2,0.3,3.3,0.1c0.8-0.2,1.3-1,1.2-1.9c-0.1-0.6-0.6-1-0.8-1.6
	c-0.1-0.4-0.2-0.8-0.3-1.3c-0.6-2.3-3.4-3.6-5.7-3.2c-1.3,0.2-2.5,0.8-3.9,1c-1,0.1-1.9,0.1-2.9,0.1c-0.9,0.1-1.7,0.4-2.5,0.7
	c-0.2,0.1-0.4,0.2-0.5,0.4c-0.1,0.2-0.2,0.5-0.3,0.8c-0.3,1.2-1.3,2.1-2.1,3.1c-0.8,1.2-1.3,2.5-1.4,4c0,0.4,0,0.7,0.1,1.1
	c0.1,0.2,0.1,0.4,0.2,0.6c0.2,0.7-0.2,1.3-0.4,2c-0.2,0.8-0.1,1.7,0.2,2.5c1.1,2.6,4.9,3.5,5.7,6.3c0.7,0.3,1.5,0.5,2.2,0.6
	c0.8,0,1.6-0.3,2-1c1-1.8-1.3-3.2-1.9-4.6C1054.9,138.2,1055.3,135.1,1056.8,136.4z"/>
<path class="st6" d="M1132.6,141.9c-0.5,1.4-0.7,2.8-0.6,4.3c-0.4,0.4-1-0.8-1.5-0.5c-1.5,0.8-3.1,2.8-5,2.8c-1.6,0-3.1-0.4-4.5-1.1
	c-0.4-1.7-1-3.3-1.8-4.9C1119.3,142.6,1134.7,136.1,1132.6,141.9z"/>
<path class="st17" d="M1135.5,138.1c0,5.5-4.5,10-10,10s-10-4.5-10-10s4.5-10,10-10C1131.1,128.1,1135.5,132.6,1135.5,138.1
	L1135.5,138.1z"/>
<path class="st21" d="M1135.1,154.5c0,0-1.9,2-2.1,2.2s-5.7,23.1-5.8,23.4s-6.5,21-6.5,21l-10.2,5l0.8-25.3l7.5-20.9
	c0,0,2.5-2.8,3.2-3.8s10.3-7.2,10.3-7.2l1.6,3.4L1135.1,154.5z"/>
<path class="st6" d="M1133.7,152.7l-11.8,8.4l-0.2-4.6c0.8-1,10.3-7.2,10.3-7.2L1133.7,152.7z"/>
<path class="st21" d="M1134,152.2l-11.8,8.4l-0.2-4.6c0.8-1,10.3-7.2,10.3-7.2L1134,152.2z"/>
<path class="st18" d="M1121.7,154l0.4,2.1l-2.6,2.7l2.1-4.7c0,0-4.5,3.1-5.8,4c-1.3,0.8-2.7,3.6-2.8,4.4s-2.2,12.3-2.2,12.3
	s-1.6,4.3-1.1,5.5c0.4,1.2-2.4,39.5-2.4,39.5c0.8-1.5,2.2-2.6,3.8-2.9l-1-22.6c0,0,1.3-15.1,1.3-15.2s2.9-8.9,2.9-8.9L1121.7,154z"
	/>
<path class="st6" d="M1122.3,156.3l-0.2,4.2c0,0-2.8,9-3.8,10.5s-3.9,10.2-3.9,10.2l-1.6,15.2l-2.8,1.3l-1.4-2.5l2.3-14.7
	c0,0,4.3-12.4,5-13.7l3.2-6.7L1122.3,156.3z"/>
<path class="st22" d="M1122.1,156l-0.2,4.2c0,0-2.8,9-3.8,10.5s-3.9,10.2-3.9,10.2l-1.6,15.2l-2.8,1.3l-1.4-2.5l2.3-14.7
	c0,0,4.3-12.4,5-13.7l3.2-6.7L1122.1,156z"/>
<path class="st17" d="M1088.9,188.1l5.5,3.8c0,0,3.9-2.2,1.6-3.6c-2.2-1.4-4.3-1.6-5-1.6S1088.9,188.1,1088.9,188.1z"/>
<path class="st17" d="M1093,181c-0.2,0.1-0.4,0.4-0.4,0.7c0,1.2,0.1,4.3,1.1,2.8c1.2-1.7,1-3.2,2.8-2.1c1.1,0.7,2.1,1.6,2.9,2.7
	l-0.5-3.7C1099,181.5,1095.2,179.7,1093,181z"/>
<path class="st6" d="M1135.6,225.8c-0.3,0.4-0.5,1.4-0.7,2.6c-11.2,3.4-19.4-3.7-19.4-3.7c-1-3.4-1.8-6.8-2.4-10.2
	c-0.2-1.2-0.1-3.5,0-6.3l20-3.5C1133.1,204.6,1136.9,223.8,1135.6,225.8z"/>
<path class="st18" d="M1147.1,168.6c-0.5,1.6-0.3,5-0.3,5l-4.6,21.7c0,0-2.2,16.8-2.6,19s-1,12.1-1,12.1c-13,6.4-23.1-2.3-23.1-2.3
	c-1-3.4-1.8-6.8-2.4-10.2c-0.6-3.8,1.3-19,2.1-25.8c0.3-2,0.4-3.3,0.4-3.3l3.4-12.5c0,0,4.1-10.5,5.7-13.6s7.7-10,7.7-10
	c0.7-0.5,2,1.2,2.9,2.8c0.7,1.2,1.2,2.3,1.2,2.3s7.7,3.3,8.8,5.1c1.1,1.8,1,5.4,1.1,5.6C1146.5,164.8,1147.6,166.9,1147.1,168.6z"/>
<path class="st6" d="M1129.1,160.8c0,0,0.6,3.4-0.9,4.4c-1.4,1-12,21.8-12.7,23.1c0.3-2,0.4-3.3,0.4-3.3l3.4-12.5
	c0,0,4.1-10.5,5.7-13.6c1.5-3.1,7.7-10,7.7-10c0.7-0.5,2,1.2,2.9,2.8C1134.2,154.7,1131.3,160.1,1129.1,160.8z"/>
<path class="st18" d="M1128.8,160.6c0,0,0.6,3.4-0.9,4.4s-12,21.8-12.7,23.1c0.3-2,0.4-3.3,0.4-3.3l3.4-12.5c0,0,4.1-10.5,5.7-13.6
	s7.7-10,7.7-10c0.7-0.5,2,1.2,2.9,2.8C1133.9,154.5,1131,159.9,1128.8,160.6z"/>
<polygon class="st23" points="1144,191.2 1140.4,209.9 1140.4,209.9 1140.1,211.7 1140.1,211.7 1139.3,215.8 1136,215.1 
	1134.4,214.8 1113,210.2 1111.5,209.9 1107.9,209.2 1108.6,204.5 1108.9,202.6 1111.5,185.4 "/>
<path class="st17" d="M1124.1,206.5c0,0-8.5,3.1-6.7,6.7c1.8,3.7,13.7-2.8,13.7-2.8L1124.1,206.5z"/>
<path class="st6" d="M1130.1,232.7c0,0.2,0.3,3.5,1.6,4.7C1133,238.5,1130.1,232.7,1130.1,232.7z"/>
<path class="st6" d="M1121.6,244.2c0,0,1.5,4.2,7.6,5.9C1135.3,251.9,1121.6,244.2,1121.6,244.2z"/>
<path class="st6" d="M1135.5,138.1c0,3.6-1.9,6.9-5,8.6c-0.6-0.3-1.1-0.7-1.5-1.3c-0.4-0.5-0.8-1.3-0.5-1.9c0.2-0.5,0.7-0.8,0.9-1.3
	c0.1-0.3,0.1-0.7-0.1-1c-0.1-0.5-0.2-1-0.3-1.5c-0.1-0.4-0.3-0.9-0.7-1c-0.4-0.1-0.7,0.2-1.1,0.5c-0.8,0.6-2.3,1-3.3,0.5
	s-0.7-2.2-0.8-3.2c0-0.2-0.1-0.3-0.2-0.4c-0.2-0.1-0.3-0.1-0.4,0c-0.5,0-0.9-0.4-1.1-1c-0.1-0.5-0.1-1-0.2-1.5s-0.2-1.1-0.7-1.3
	c-0.4-0.2-0.7-0.2-1.1-0.2h-1.9c3.3-4.4,9.5-5.4,13.9-2.1C1134,132,1135.5,135,1135.5,138.1L1135.5,138.1z"/>
<path class="st24" d="M1127.5,139.3c0.3-0.3,0.7-0.6,1.1-0.5s0.6,0.6,0.7,1l0.3,1.5c0.1,0.3,0.1,0.7,0.1,1c-0.1,0.5-0.7,0.8-0.9,1.3
	c-0.3,0.6,0.1,1.3,0.5,1.9c0.8,1,1.9,1.6,3.1,1.8c0.3,0.1,0.6,0.1,1,0c0.7-0.1,1.2-0.8,1.6-1.4c2-3.1,3.7-6.5,4-10.1
	c0.1-0.7,0.1-1.5-0.1-2.2c-0.1-0.6-0.4-1.1-0.7-1.6c-0.5-1-1.2-2-1.9-2.9c-1.3-1.5-3.2-2.4-5.2-2.9c-2.2-0.6-4.4-0.8-6.7-0.5
	c-0.6,0.1-1.2,0.2-1.8,0.2c-0.7,0-1.5,0-2.2,0l-4.4-0.3c-0.2,0.5,0,1.1,0.3,1.6s0.7,1,0.7,1.6s-0.4,1-0.7,1.5
	c-0.3,0.5-0.5,1.1-0.2,1.6s1,0.5,1.5,0.5h2.2c0.4,0,0.8,0,1.1,0.2c0.4,0.3,0.6,0.8,0.7,1.3c0,0.5,0.1,1,0.2,1.5s0.6,1,1.1,1
	c0.1,0,0.3,0,0.4,0c0.1,0.1,0.2,0.3,0.2,0.4c0.1,0.9-0.1,2.7,0.8,3.2C1125.2,140.3,1126.7,140,1127.5,139.3z"/>
<path class="st6" d="M1140.2,159c-2.3-0.2-4.4,1.1-5.2,3.3c-1.2,3.4-3.2,9.6-2.7,12c0.7,3.4,1.5,9.2,1.5,9.2s3.7,2.1,1.8,4.2
	c-1.9,2.1-2.4,5.1-2.4,5.1s-2.4,1-2.9,3.2s-4,5.2-4,5.2l-5.2,5.2c0,0,8.6,8.7,10.3,9.1l5.3-6.2l6.3-8.3l5.4-5.7c0,0,1.3-3,0.6-8.7
	c-0.7-5.7-3.1-11.2-3.1-11.2l0.2-1.9C1146.3,173.6,1146.9,159.8,1140.2,159z"/>
<path class="st18" d="M1140.7,159c-2.3-0.2-4.4,1.1-5.1,3.3c-1.2,3.4-3.2,9.6-2.7,12c0.7,3.4,1.5,9.2,1.5,9.2s3.7,2.1,1.8,4.2
	c-1.9,2.1-2.4,5.1-2.4,5.1s-2.4,1-2.9,3.2s-4,5.2-4,5.2l-5.2,5.1c0,0,8.6,8.7,10.3,9.1l5.3-6.2l6.2-8.3l5.4-5.7c0,0,1.3-3,0.6-8.7
	c-0.7-5.7-3.1-11.1-3.1-11.1l0.2-1.9C1146.8,173.6,1147.4,159.8,1140.7,159z"/>
<path class="st6" d="M1135.4,178.5c0,0,5.4,6.7,7.7,5.2C1145.4,182.2,1135.4,178.5,1135.4,178.5z"/>
<path class="st6" d="M1137.4,173.4c0.6,0.2,5.3,6.8,7.7,6C1147.6,178.6,1137.4,173.4,1137.4,173.4z"/>
<path class="st6" d="M1138.8,184.7c0,0,0.3,3.8,4.2,3.3C1146.9,187.4,1138.8,184.7,1138.8,184.7z"/>
<polygon class="st6" points="1121.5,154.2 1119.4,158.9 1122.1,156.3 "/>
<polygon class="st21" points="1121.5,154 1119.4,158.7 1122.1,156 "/>
<polygon class="st25" points="1113,210.2 1111.5,209.9 1108.6,204.5 1108.9,202.6 "/>
<polygon class="st25" points="1140.4,209.9 1140.1,211.7 1140.1,211.7 1136,215.1 1134.4,214.8 "/>
<path class="st6" d="M1076,189c-0.8,0.1-1.6,0.2-2.2,0.3c-3.9,0.5-13.2-4.1-13.2-4.1s-11.3-9.4-14.6-18.4c-3.3-9,3.9-10.3,3.9-10.3
	c2.7-1.5,8.6,2.8,9.4,3.4c0.8,0.7,1.5,2.5,1.5,3.6c-0.1,1.1,1.9,2.6,1.9,2.6s3.4,5.9,4.2,6.5s1,1.2,1.3,2.3c0.2,1.1,2.5,2,3.4,1.9
	c1-0.1,2.1,0.3,2.1,0.8c0,0.4,0.9,0.6,1.7,0.7C1075.6,181.8,1075.8,186.1,1076,189z"/>
<path class="st6" d="M1075.9,188.1c-0.6,0.1-1.2,0.2-1.7,0.3c-3.9,0.5-13.2-4.1-13.2-4.1s-11.3-9.4-14.6-18.4
	c-3.3-9,3.9-10.3,3.9-10.3c2.7-1.5,8.6,2.8,9.4,3.4c0.8,0.7,1.5,2.5,1.5,3.6c-0.1,1.1,1.9,2.6,1.9,2.6s3.4,5.9,4.2,6.5
	s1,1.2,1.3,2.3s2.5,2,3.4,1.9c1-0.1,2.1,0.3,2.1,0.8c0,0.3,0.5,0.5,1.1,0.6c0,0.4,0.1,0.7,0.1,1.1
	C1075.6,181.5,1075.8,185.2,1075.9,188.1z"/>
<path class="st6" d="M1090.7,181.6l-0.2,5.8h-0.3l-0.5-0.3l0.1-4.9C1090.1,181.9,1090.4,181.8,1090.7,181.6z"/>
<path class="st13" d="M1049.9,156c0,0-7.2,1.3-3.9,10.3c3.3,8.9,14.6,18.4,14.6,18.4s9.3,4.6,13.2,4.1c3.9-0.5,9.8-1.9,10.6-1.6
	c0.8,0.2,5.9,0.2,5.9,0.2l0.2-6l-6-0.3l-3.1-0.6c0,0-1.1-0.9-1.7-0.8c-0.7,0.1-2-0.8-2-0.8s-1-0.8-1.8-0.8s-2.2-0.2-2.2-0.7
	s-1.1-0.9-2.1-0.8s-3.2-0.8-3.5-1.9c-0.3-1.1-0.4-1.6-1.3-2.3c-0.8-0.7-4.2-6.5-4.2-6.5s-2-1.5-1.9-2.6s-0.6-2.9-1.5-3.7
	C1058.4,158.8,1052.5,154.5,1049.9,156z"/>
<path class="st6" d="M1068.3,176.6c0,0-2.8,2.8-2,3.3L1068.3,176.6z"/>
<path class="st6" d="M1071.2,178.8c0,0-3.6,2.8-2.6,2.9C1069.6,181.9,1071.2,178.8,1071.2,178.8z"/>
<path class="st6" d="M1065.1,182.9c0.5,0.3,8.1,4.8,11,4.7L1065.1,182.9z"/>
<path class="st6" d="M1065.6,152.5c0,0-1.3,4.4-1.9,4.4c-0.4,0-7.1-5.5-10-7.8l0.1-0.1c0,0,0.3-2,1.3-3
	C1056.3,145.1,1065.6,152.5,1065.6,152.5z"/>
<path class="st13" d="M1065.4,152c0,0-1.3,4.4-1.9,4.4c-0.4,0-7.2-5.5-10-7.8l0.1-0.1c0,0,0.3-2,1.3-3
	C1056,144.5,1065.4,152,1065.4,152z"/>
<g class="st26">
	<path d="M1047.3,137.7L1047.3,137.7c0.9,2.1,3.4,3.1,4.8,4.7C1051.3,140.4,1048.7,139.5,1047.3,137.7z"/>
	<path d="M1056.5,142.5c-0.4,0.7-1.2,1-2,1c-0.7-0.1-1.3-0.2-2-0.5c0.2,0.3,0.4,0.7,0.5,1.1c0.7,0.3,1.5,0.5,2.2,0.6
		c0.8,0,1.6-0.3,2-1c0.6-1.1,0-2-0.7-2.9C1056.8,141.3,1056.7,141.9,1056.5,142.5z"/>
	<path d="M1067.6,127.5c-0.1-0.6-0.6-1-0.8-1.6c-0.1-0.4-0.2-0.8-0.3-1.3c-0.2-0.6-0.5-1.2-0.9-1.6c0.1,0.1,0.1,0.3,0.1,0.4
		c0.1,0.4,0.2,0.9,0.3,1.3c0.2,0.5,0.7,1,0.8,1.6c0.1,0.8-0.4,1.7-1.2,1.9c-1.1,0.2-2.4-0.7-3.3-0.1c-0.6,0.4-0.7,1.2-0.8,1.9
		c-0.1,1.2-0.3,2.4-0.4,3.6c0,0.4-0.1,0.8-0.3,1.2c-0.5,1.1-1.8,1.6-2.9,1.6c-0.4,0-0.9-0.1-1.3-0.4c-0.2-0.2-0.4-0.5-0.5-0.7
		c-1.5-1.3-1.9,1.8-1.6,2.7c0.2,0.4,0.4,0.8,0.7,1.1c-0.3-1,0.1-3.8,1.6-2.6c0.2,0.2,0.4,0.4,0.5,0.7c0.4,0.3,0.8,0.4,1.3,0.4
		c1.2,0,2.5-0.5,2.9-1.6c0.1-0.4,0.2-0.8,0.3-1.2c0.1-1.2,0.3-2.4,0.4-3.6c0.1-0.7,0.2-1.5,0.8-1.9c1-0.6,2.2,0.3,3.3,0.1
		C1067.2,129.1,1067.7,128.3,1067.6,127.5z"/>
</g>
<path class="st6" d="M1134,146.6c-0.3,0.1-0.7,0.1-1,0c-1.2-0.2-2.3-0.9-3.1-1.8c-0.4-0.5-0.8-1.3-0.5-1.9c0.2-0.5,0.7-0.8,0.9-1.3
	c0.1-0.3,0-0.7-0.1-1l-0.3-1.5c-0.1-0.4-0.2-0.9-0.7-1c-0.4-0.1-0.7,0.2-1.1,0.5c-0.8,0.6-2.3,1-3.3,0.5s-0.7-2.2-0.8-3.2
	c0-0.1-0.1-0.3-0.2-0.4c-0.1-0.1-0.3-0.1-0.4,0c-0.5,0-0.9-0.4-1.1-1c-0.1-0.5-0.1-1-0.2-1.5s-0.2-1.1-0.7-1.3
	c-0.4-0.2-0.7-0.2-1.1-0.2h-2.2c-0.5,0-1.2,0-1.5-0.5c-0.3-0.4-0.1-1.1,0.2-1.6c0.3-0.4,0.7-0.9,0.7-1.5c0-0.6-0.4-1.1-0.7-1.6
	c-0.2-0.3-0.3-0.5-0.4-0.9h-0.6c-0.2,0.5,0,1.1,0.3,1.6s0.7,1,0.7,1.5c0,0.6-0.4,1-0.7,1.5c-0.3,0.5-0.5,1.1-0.2,1.6
	c0.3,0.4,1,0.5,1.5,0.5h2.2c0.4,0,0.8,0,1.1,0.2c0.4,0.3,0.6,0.8,0.7,1.3c0,0.5,0.1,1,0.2,1.5s0.6,1,1.1,1c0.1,0,0.3,0,0.4,0
	c0.1,0.1,0.2,0.3,0.2,0.4c0.1,0.9-0.1,2.7,0.8,3.2c1,0.5,2.5,0.1,3.3-0.5c0.3-0.3,0.7-0.6,1.1-0.5s0.6,0.6,0.7,1l0.3,1.5
	c0.1,0.3,0.1,0.7,0.1,1c-0.1,0.5-0.7,0.8-0.9,1.3c-0.3,0.6,0.1,1.3,0.5,1.9c0.8,1,1.9,1.6,3.1,1.8c0.3,0.1,0.6,0.1,1,0
	c0.5-0.1,1-0.5,1.3-1C1134.3,146.5,1134.2,146.6,1134,146.6z"/>
<ellipse class="st0" cx="1249.4" cy="249" rx="7.3" ry="1.1"/>
<ellipse class="st0" cx="1175.6" cy="293.8" rx="21" ry="3.2"/>
<ellipse class="st0" cx="1235.2" cy="280.2" rx="16.4" ry="2.5"/>
<ellipse class="st0" cx="1232.5" cy="305.2" rx="27.8" ry="4.3"/>
<ellipse class="st0" cx="965.4" cy="308.9" rx="21" ry="3.2"/>
<path class="st23" d="M1243.7,238.3c0,0-1,4.8,3.5,5.3l0.3-0.5C1247.5,243.1,1244,239.8,1243.7,238.3z"/>
<path class="st23" d="M1249,243.1l-1,0.2h-0.1c0,0-2.8-2.3-2.8-7.4c0.4,0.7,0.8,1.5,1.3,2.1C1247.5,239.5,1248.8,241.5,1249,243.1z"
	/>
<path class="st23" d="M1249.3,243.6c-0.2,0.1-0.4,0.1-0.6,0.1c-2.7-0.6-1.8-9.5-1.8-9.5c0.1,0.1,0.3,1.2,0.9,2.7
	C1249,239.4,1250.2,242.9,1249.3,243.6z"/>
<path class="st23" d="M1255.4,238.3c0,0,0.2,4.8-4.4,5.3l-0.3-0.5C1250.7,243.1,1255.1,239.8,1255.4,238.3z"/>
<path class="st23" d="M1254.1,235.9c0,5.1-3.6,7.4-3.6,7.4h-0.1l-1-0.2c0.2-1.6,1.5-3.5,2.6-5
	C1252.5,237.3,1253.2,236.5,1254.1,235.9z"/>
<path class="st23" d="M1250.3,243.1c-0.1,0.2-0.4,0.4-0.6,0.4l0,0c-0.1,0-0.1,0.1-0.2,0.1c-0.7,0.1-0.9-0.3-0.9-1.1
	c0.1-1.5,1-4,1.8-5.9c0.4-0.9,1-1.8,1.7-2.5C1252.1,234.2,1252.1,241.1,1250.3,243.1z"/>
<path class="st23" d="M1249.6,231c0,0-3,10.8-0.4,12.4C1251.7,245.1,1250.2,232,1249.6,231z"/>
<path class="st6" d="M1243.7,238.3c0,0-1,4.8,3.5,5.3l0.3-0.5C1247.5,243.1,1244,239.8,1243.7,238.3z"/>
<path class="st6" d="M1249,243.1l-1,0.2h-0.1c0,0-2.8-2.3-2.8-7.4c0.4,0.7,0.8,1.5,1.3,2.1C1247.5,239.5,1248.8,241.5,1249,243.1z"
	/>
<path class="st6" d="M1249.3,243.6c-0.2,0.1-0.4,0.1-0.6,0.1c-2.7-0.6-1.8-9.5-1.8-9.5c0.1,0.1,0.3,1.2,0.9,2.7
	C1249,239.4,1250.2,242.9,1249.3,243.6z"/>
<path class="st6" d="M1255.4,238.3c0,0,0.2,4.8-4.4,5.3l-0.3-0.5C1250.7,243.1,1255.1,239.8,1255.4,238.3z"/>
<path class="st6" d="M1254.1,235.9c0,5.1-3.6,7.4-3.6,7.4h-0.1l-1-0.2c0.2-1.6,1.5-3.5,2.6-5
	C1252.5,237.3,1253.2,236.5,1254.1,235.9z"/>
<path class="st6" d="M1250.3,243.1c-0.1,0.2-0.4,0.4-0.6,0.4l0,0c-0.1,0-0.1,0.1-0.2,0.1c-0.7,0.1-0.9-0.3-0.9-1.1
	c0.1-1.5,1-4,1.8-5.9c0.4-0.9,1-1.8,1.7-2.5C1252.1,234.2,1252.1,241.1,1250.3,243.1z"/>
<path class="st6" d="M1249.6,231c0,0-3,10.8-0.4,12.4C1251.7,245.1,1250.2,232,1249.6,231z"/>
<path class="st27" d="M1243.7,238.3c0,0-0.6,4.8,4,5.3l0.3-0.5C1248,243.1,1244,239.8,1243.7,238.3z"/>
<path class="st27" d="M1249.4,243.1l-1,0.2h-0.1c0,0-3.2-2.3-3.2-7.4c0,0,0.8,0.9,1.8,2.1C1247.9,239.5,1249.2,241.5,1249.4,243.1z"
	/>
<path class="st6" d="M1249.4,243.1l-1,0.2c-1-0.9-1.4-3.2-1.6-5.2C1247.9,239.5,1249.2,241.5,1249.4,243.1z"/>
<path class="st27" d="M1249.8,243.6c-0.2,0.1-0.4,0.1-0.6,0.1c-2.7-0.6-2.2-9.5-2.2-9.5c0.1,0.1,0.7,1.2,1.4,2.7
	C1249.4,239.4,1250.7,242.9,1249.8,243.6z"/>
<path class="st27" d="M1255.4,238.3c0,0,0.6,4.8-4,5.3l-0.3-0.5C1251.1,243.1,1255.1,239.8,1255.4,238.3z"/>
<path class="st27" d="M1254.1,235.9c0,5.1-3.2,7.4-3.2,7.4h-0.1l-1-0.2c0.2-1.6,1.5-3.5,2.6-5
	C1253.2,236.8,1254.1,235.9,1254.1,235.9z"/>
<path class="st6" d="M1252.3,238.1c-0.1,1.9-0.5,4.1-1.3,5.1c-0.1,0.1-0.1,0.1-0.2,0.2l-1-0.2
	C1249.9,241.5,1251.2,239.5,1252.3,238.1z"/>
<path class="st27" d="M1250.8,243.1c-0.1,0.2-0.4,0.4-0.6,0.4l0,0c-0.1,0-0.1,0.1-0.2,0.1c-0.7,0.1-0.9-0.3-0.9-1.1
	c0.1-1.5,1-4,1.8-5.9c0.6-1.3,1.1-2.4,1.3-2.5C1252.1,234.2,1252.5,241.1,1250.8,243.1z"/>
<path class="st6" d="M1249.8,243.6c-0.1,0-0.3-0.1-0.4-0.1c-1.3-0.8-1.3-3.8-1-6.6C1249.4,239.4,1250.7,242.9,1249.8,243.6z"/>
<path class="st6" d="M1250.8,243.1c-0.1,0.3-0.4,0.5-0.6,0.4l0,0c-0.1,0-0.3-0.1-0.4-0.1c-0.3-0.2-0.6-0.6-0.7-0.9
	c0.1-1.5,1-4,1.8-5.9C1251.1,239.3,1251.2,242,1250.8,243.1z"/>
<path class="st27" d="M1249.6,231c0,0-2.6,10.8,0,12.4C1252.2,245.1,1250.2,232,1249.6,231z"/>
<polygon class="st28" points="1254.6,242.9 1243.7,242.9 1243.7,244.7 1245.4,244.7 1245.4,244.9 1246,248.4 1252.4,248.4 
	1253.1,244.9 1253.1,244.7 1254.6,244.7 "/>
<polygon class="st29" points="1254.6,242.9 1243.7,242.9 1243.7,244.7 1245.4,244.7 1245.4,244.9 1246,248.4 1252.4,248.4 
	1253.1,244.9 1253.1,244.7 1254.6,244.7 "/>
<polygon class="st30" points="1253.7,244 1253.5,244.9 1252.8,248.4 1246.5,248.4 1245.8,244.9 1245.6,244 "/>
<polygon class="st6" points="1253.7,244 1253.5,244.9 1245.8,244.9 1245.6,244 "/>
<rect x="1244.1" y="242.9" class="st30" width="10.9" height="1.8"/>
<path class="st23" d="M977.1,273.7c-0.3,0.4-0.5,0.8-0.7,1.3c0,0.1-0.1,0.2-0.1,0.4c-0.1,0-0.1-0.1-0.2-0.1
	c-0.4-0.1-0.7-0.1-1.1-0.1c0-0.1,0-0.3,0-0.4c0-1.6-0.1-3.8-1.6-2.8c-1.4,0.9-0.4,2.4,0.5,3.4c0.1,0.1,0.1,0.1,0.2,0.2
	c-0.8,0.6-1,2-1.2,3.5c-0.1,1.5-1.4,3.1-2.2,4c-0.1,0.1-0.1,0.2-0.2,0.2c-0.7-0.5-1.6-0.8-2.4-0.6c0-0.1-0.1-0.3-0.1-0.4
	c-0.7-2.4-2.1-6.6-3.8-7.6l0.2-0.3c0.7-1,1.6-2.5,0.4-2.8c-1.3-0.4-1.4,1.3-1.3,2.5c0,0.1,0,0.3,0,0.4c-0.5,0-1,0.3-1.3,0.6
	l-0.2-0.2c-1-1.2-2.9-3.1-3.4-1.7c-0.5,1.3,1.1,3.1,2.3,4.1l0.1,0.1c-0.8,3.1,2.6,5.7,4.4,6.8l0.2,0.1c-2.5,3-4.1,8.5-4.1,8.5l7,1.3
	c0,0,4.7-4,4.1-7.8h0.1c4.7-0.9,5.7-5.9,5-8.9h0.1c0.8-0.4,1.6-0.9,2.2-1.6C981.2,274,978.5,272,977.1,273.7z"/>
<path class="st6" d="M977.1,273.7c-0.3,0.4-0.5,0.8-0.7,1.3c0,0.1-0.1,0.2-0.1,0.4c-0.1,0-0.1-0.1-0.2-0.1c-0.4-0.1-0.7-0.1-1.1-0.1
	c0-0.1,0-0.3,0-0.4c0-1.6-0.1-3.8-1.6-2.8c-1.4,0.9-0.4,2.4,0.5,3.4c0.1,0.1,0.1,0.1,0.2,0.2c-0.8,0.6-1,2-1.2,3.5
	c-0.1,1.5-1.4,3.1-2.2,4c-0.1,0.1-0.1,0.2-0.2,0.2c-0.7-0.5-1.6-0.8-2.4-0.6c0-0.1-0.1-0.3-0.1-0.4c-0.7-2.4-2.1-6.6-3.8-7.6
	l0.2-0.3c0.7-1,1.6-2.5,0.4-2.8c-1.3-0.4-1.4,1.3-1.3,2.5c0,0.1,0,0.3,0,0.4c-0.5,0-1,0.3-1.3,0.6l-0.2-0.2c-1-1.2-2.9-3.1-3.4-1.7
	c-0.5,1.3,1.1,3.1,2.3,4.1l0.1,0.1c-0.8,3.1,2.6,5.7,4.4,6.8l0.2,0.1c-2.5,3-4.1,8.5-4.1,8.5l7,1.3c0,0,4.7-4,4.1-7.8h0.1
	c4.7-0.9,5.7-5.9,5-8.9h0.1c0.8-0.4,1.6-0.9,2.2-1.6C981.2,274,978.5,272,977.1,273.7z"/>
<path class="st31" d="M1309.5,35.7l-0.8,2.4c0,0-0.4-0.3-1-0.8c-1.2-1-2.8-2.8-2.3-4.1c0.6-1.4,2.4,0.4,3.4,1.7
	C1309.3,35.3,1309.5,35.7,1309.5,35.7z"/>
<path class="st31" d="M964.8,274.4c-0.2,0.3-0.5,0.7-0.8,1c-0.1-0.4-0.1-0.8-0.1-1.3c-0.1-1.2,0.1-2.9,1.3-2.5
	C966.4,271.9,965.6,273.4,964.8,274.4z"/>
<path class="st31" d="M975.5,274.8c0,0.8-0.1,1.4-0.1,1.4c-0.4-0.3-0.7-0.6-1-0.9c-0.9-1-2-2.5-0.5-3.4
	C975.3,271,975.5,273.2,975.5,274.8z"/>
<path class="st31" d="M980.3,275.8c-0.6,0.7-1.3,1.3-2.2,1.6c-0.2,0.1-0.5,0.2-0.7,0.3l-1-1.3c0.1-0.4,0.2-0.9,0.4-1.3
	s0.4-0.9,0.7-1.3C978.9,272,981.6,274,980.3,275.8z"/>
<path class="st6" d="M1308.8,34.8c0.4,0.5,0.7,0.8,0.7,0.8l-0.8,2.4c0,0-0.4-0.3-1-0.8c0.1-0.8,0.4-1.5,0.9-2.1
	C1308.7,35,1308.8,34.9,1308.8,34.8z"/>
<path class="st6" d="M1311.3,34.3c-0.2,0.3-0.5,0.7-0.8,1c-0.1-0.4-0.1-0.8-0.1-1.3C1310.6,34,1311,34.1,1311.3,34.3z"/>
<path class="st32" d="M968.9,284l-2,0.9c0,0-0.4-0.2-1.1-0.6c-2.2-1.3-6.5-4.6-3.6-8.6s5.3,3.1,6.3,6.6
	C968.7,283.3,968.9,284,968.9,284z"/>
<path class="st6" d="M974.4,275.3c0.3-0.3,0.7-0.5,1.1-0.5c0,0.8-0.1,1.4-0.1,1.4C975,275.9,974.7,275.6,974.4,275.3z"/>
<path class="st6" d="M978.2,277.5c-0.2,0.1-0.5,0.2-0.7,0.3l-1-1.3c0.1-0.4,0.2-0.9,0.4-1.3C977.5,275.4,978,276.3,978.2,277.5z"/>
<path class="st32" d="M973.1,286.4c-0.1,0-0.2,0.1-0.3,0.1c-6.9,1-2.3-2.7-2.3-2.7s0.3-0.3,0.7-0.7c0.8-0.9,2.1-2.5,2.2-4
	c0.2-2.2,0.5-4.3,3.1-3.7C979.1,275.9,979.6,285.1,973.1,286.4z"/>
<rect x="959.8" y="303.5" class="st33" width="13.1" height="3.4"/>
<rect x="957.7" y="292.3" class="st33" width="17.1" height="12.1"/>
<rect x="959.8" y="303.5" class="st6" width="13.1" height="3.4"/>
<rect x="957.7" y="292.3" class="st6" width="17.1" height="12.1"/>
<rect x="960.7" y="303.5" class="st33" width="13.1" height="3.4"/>
<path class="st6" d="M968.4,282.3c0.3,1,0.4,1.7,0.4,1.7l-2,0.9c0,0-0.4-0.2-1.1-0.6C966.6,283.2,967.5,282.5,968.4,282.3z"/>
<path class="st6" d="M973.1,286.4c-0.1,0-0.2,0.1-0.3,0.1c-6.9,1-2.3-2.7-2.3-2.7s0.3-0.3,0.7-0.7
	C972.5,284.1,973,285.2,973.1,286.4z"/>
<path class="st32" d="M961.9,293c0,0,3.8-13.8,9.3-9.5c5.4,4.3-2.2,10.8-2.2,10.8L961.9,293z"/>
<circle class="st6" cx="1310.3" cy="37.7" r="0.4"/>
<circle class="st6" cx="1310.3" cy="39.7" r="0.4"/>
<circle class="st6" cx="976.3" cy="278.2" r="0.4"/>
<circle class="st6" cx="966.3" cy="288.6" r="0.4"/>
<circle class="st6" cx="975.4" cy="281.6" r="0.4"/>
<circle class="st6" cx="971" cy="286.1" r="0.4"/>
<circle class="st6" cx="1311.8" cy="38.6" r="0.4"/>
<circle class="st6" cx="975.2" cy="279.5" r="0.4"/>
<circle class="st6" cx="973.7" cy="282.9" r="0.4"/>
<circle class="st6" cx="969.1" cy="288.3" r="0.4"/>
<circle class="st6" cx="968.2" cy="286.1" r="0.4"/>
<circle class="st6" cx="966" cy="281.3" r="0.4"/>
<rect x="960.7" y="303.5" class="st6" width="13.1" height="1.3"/>
<rect x="958.6" y="292.3" class="st33" width="17.1" height="12.1"/>
<circle class="st6" cx="969.7" cy="290.2" r="0.4"/>
<circle class="st6" cx="967.1" cy="290.7" r="0.4"/>
<circle class="st0" cx="1296.8" cy="-160.8" r="3.1"/>
<circle class="st0" cx="1251.5" cy="178" r="4.2"/>
<circle class="st0" cx="1259.6" cy="169" r="3.1"/>
<circle class="st0" cx="1302.2" cy="-172.2" r="4.2"/>
<circle class="st0" cx="1286" cy="-153" r="4.2"/>
</svg>
