<?xml version="1.0" encoding="utf-8"?>
<!-- Generator: Adobe Illustrator 22.0.1, SVG Export Plug-In . SVG Version: 6.00 Build 0)  -->
<svg version="1.1" id="Layer_1" xmlns="http://www.w3.org/2000/svg" xmlns:xlink="http://www.w3.org/1999/xlink" x="0px" y="0px"
	 viewBox="0 0 1300 400" style="enable-background:new 0 0 1300 400;" xml:space="preserve">
<style type="text/css">
	.st0{fill:url(#SVGID_1_);stroke:#000000;stroke-width:1.6452;stroke-miterlimit:10;}
	.st1{opacity:0.1;fill:#0D8CD8;enable-background:new    ;}
	.st2{fill:#EAECF0;}
	.st3{fill:#3A3768;}
	.st4{opacity:0.1;enable-background:new    ;}
	.st5{fill:#8282BC;}
	.st6{fill:#F9E1E5;}
	.st7{fill:#E2B3BF;}
	.st8{fill:#DFE6F5;}
	.st9{opacity:0.15;enable-background:new    ;}
	.st10{fill:#838396;}
	.st11{fill:#D1D9EC;}
	.st12{fill:#4C4C56;}
	.st13{fill:#9E9EAF;}
	.st14{fill:#74BEE2;}
	.st15{fill:url(#SVGID_2_);}
	.st16{fill:url(#SVGID_3_);}
	.st17{fill:#D38884;}
	.st18{fill:#A36468;}
	.st19{fill:#ADADAD;}
	.st20{fill:#C9CBD3;}
	.st21{fill:#67647E;}
	.st22{fill:#B6B6B7;}
	.st23{fill:#7F7F84;}
	.st24{fill:#5B5A63;}
	.st25{fill:#BCBCBC;}
	.st26{fill:#777484;}
	.st27{opacity:0.1;}
	.st28{fill:#D3DAE1;}
	.st29{fill:#D48A9B;}
	.st30{fill:#FFFFFF;}
	.st31{fill:#D5E1F4;}
	.st32{fill:url(#SVGID_4_);}
	.st33{fill:#EFB7B9;}
	.st34{opacity:5.000000e-02;enable-background:new    ;}
	.st35{fill:#585759;}
	.st36{fill:#C9C7C7;}
	.st37{fill:#B7B7B7;}
	.st38{fill:#818084;}
	.st39{opacity:0.7;}
	.st40{fill:#891866;}
	.st41{fill:#FF2BC2;}
	.st42{fill:#F29CDE;}
	.st43{fill:#EF9552;}
	.st44{fill:#E2823B;}
	.st45{fill:#EFCA7F;}
	.st46{fill:#FDD231;}
	.st47{fill:#F9DA78;}
	.st48{fill:#F4C973;}
	.st49{fill:#FEEEB7;}
</style>
<linearGradient id="SVGID_1_" gradientUnits="userSpaceOnUse" x1="650" y1="200" x2="1950" y2="200" gradientTransform="matrix(-1 0 0 -1 1950 400)">
	<stop  offset="0" style="stop-color:#00354D"/>
	<stop  offset="0.4129" style="stop-color:#00364F"/>
	<stop  offset="0.5616" style="stop-color:#003C56"/>
	<stop  offset="0.6676" style="stop-color:#004561"/>
	<stop  offset="0.7534" style="stop-color:#005272"/>
	<stop  offset="0.8268" style="stop-color:#006388"/>
	<stop  offset="0.8918" style="stop-color:#0078A4"/>
	<stop  offset="0.9492" style="stop-color:#0091C3"/>
	<stop  offset="1" style="stop-color:#00ACE6"/>
	<stop  offset="1" style="stop-color:#0093C7"/>
	<stop  offset="1" style="stop-color:#0075A3"/>
	<stop  offset="1" style="stop-color:#005B83"/>
	<stop  offset="1" style="stop-color:#004567"/>
	<stop  offset="1" style="stop-color:#003351"/>
	<stop  offset="1" style="stop-color:#002540"/>
	<stop  offset="1" style="stop-color:#001B35"/>
	<stop  offset="1" style="stop-color:#00162E"/>
	<stop  offset="1" style="stop-color:#00142C"/>
</linearGradient>
<rect y="0" class="st0" width="1300" height="400"/>
<path class="st1" d="M1238.8,225.5h-28.2v-36.5h12.6c-0.3-0.4-0.6-0.7-0.9-1.1h-11.6v-11.6c-2.3-2-4.8-4-7.3-5.8v17.5h-65.1v-38.4
	h29c-0.8-0.4-1.6-0.7-2.4-1.1h-26.6v-10.4c-2.4-0.8-4.9-1.6-7.3-2.4v12.8h-92.9l-0.2-0.2l26.9-25.9c-3-0.3-5.9-0.6-8.9-0.9l-18.6,18
	v-19.3c-2.4-0.1-4.9-0.2-7.3-0.3v20.9l-22-21.3c-3.3,0-6.5,0-9.8,0.1l29.9,28.9l-0.2,0.2h-89v-25.5c-2.4,0.3-4.9,0.7-7.3,1v24.5
	h-57.2c-0.3,0.4-0.6,0.7-0.9,1.1h58.1v38.4h-60.2c0.2,0.4,0.4,0.8,0.6,1.1h59.5v36.5h-29.3c-0.4,0.4-0.8,0.8-1.2,1.1h30.5V264
	c2.4,0.3,4.9,0.7,7.3,1.1v-38.5h91.1v46.8c2.4,0,4.9,0,7.3,0.1v-46.9h93.7v57.3l0.3,0c2.3,0.3,4.7,0.5,7,0.7v-58.1h65v56.6
	c0.6-0.1,1.1-0.2,1.7-0.3c0.5-0.1,1-0.2,1.6-0.3c1.4-0.3,2.7-0.6,4.1-0.9v-55h28.4C1238.9,226.2,1238.9,225.8,1238.8,225.5z
	 M1030,225.5h-91.1v-36.5h91.1V225.5z M1030,187.8h-91.1v-38.4h89.8l1.3,1V187.8z M1131,225.5h-93.7v-36.5h93.7V225.5z M1131,187.8
	h-93.7v-38.4h93.7V187.8z M1203.3,225.5h-65v-36.5h65V225.5z"/>
<path class="st2" d="M959.9,277c0,0,0,0.1,0,0.1l0,0C959.8,277.1,959.9,277,959.9,277L959.9,277z"/>
<path class="st2" d="M961.6,275.4h-0.9h0h-1.1l-1.5,0l-0.2-1.8l-0.2-1.7l-0.7-7.7l0-0.2V264l-0.2-2.1l3.1-1.2l0.4,3.1l0,0.2v0
	l0.8,6.3l0.2,1.9l0.1,1.1l0.1,1v0L961.6,275.4z"/>
<polygon class="st3" points="972.6,277 972.7,277.1 972.4,277.1 972.4,277 "/>
<path class="st3" d="M1000.9,277.1L1000.9,277.1L1000.9,277.1z"/>
<path class="st3" d="M1020.5,232.7c0,0.1,0,0.1,0,0.1v0c0,0-2.9,8-3.8,14.8c-0.1,0.4-0.1,0.9-0.2,1.3c0,0.5-0.1,0.9-0.1,1.4
	c0,0.5,0,1,0,1.5c0,0.1,0,0.2,0,0.3c0,0.2,0,0.5,0,0.7s0,0.5,0.1,0.7c0,0.3,0,0.5,0.1,0.7c0.7,7.4,3.4,18.2,3.4,18.2
	s0.1,0.3,0.2,0.8h-0.8c-4.7,0.1-9.3,0.2-14,0.4l-0.8,0h-0.3c-9.9,0.4-19.8,0.8-29.7,1.2l-2.4,0.1h-0.4c-3.4,0.1-6.9,0.2-10.3,0.3
	h-0.9c0.2-0.3,0.5-0.6,0.8-0.9c0.3-0.2,0.5-0.4,0.8-0.6c1.6-1,3.3-1.7,5.1-2.2c0.4-0.1,0.8-0.2,1.2-0.1l2.3,0h0.4l3.5,0.1l30.4,0.6
	h0.1l0.2,0c0.4-0.1,0.7-0.2,1-0.4c1.2-0.5,2-1.6,2.2-2.9c0-0.1,0-0.2,0-0.3c0-0.2,0-0.3,0-0.5c0-0.1,0-0.2,0-0.4
	c0-0.1,0-0.2-0.1-0.4c-0.7-4.2-2-17-2-17v0c0,0,0-0.5,0-1.5c0-0.1,0-0.1,0-0.2v-0.2c0-0.2,0-0.4,0-0.7c0-0.1,0-0.3,0-0.4
	c0-0.2,0-0.5,0.1-0.7v0c0-0.2,0-0.3,0-0.5c0-0.2,0,0,0-0.1c0.5-5,2-12.8,6.9-15.7c2.3-1.4,3.8-1.6,4.8-1.4c1.5,0.4,1.8,1.9,1.9,3
	c0,0.1,0,0.1,0,0.2C1020.5,232.3,1020.5,232.5,1020.5,232.7z"/>
<path class="st4" d="M959.9,277c0,0,0,0.1,0,0.1l0,0C959.8,277.1,959.9,277,959.9,277L959.9,277z"/>
<polygon class="st4" points="972.6,277 972.7,277.1 972.4,277.1 972.4,277 "/>
<path class="st4" d="M1000.9,277.1L1000.9,277.1L1000.9,277.1z"/>
<path class="st4" d="M1020.5,232.7c0,0.1,0,0.1,0,0.1s-2.4,6.6-3.5,12.9l0,0c-0.1,0.4-0.2,0.9-0.2,1.3c0,0.2-0.1,0.4-0.1,0.6
	c-0.1,0.4-0.1,0.9-0.2,1.3c0,0.5-0.1,0.9-0.1,1.4c0,0.5,0,1,0,1.5c0,0.1,0,0.2,0,0.3c0,0.2,0,0.5,0,0.7c0,0.2,0,0.5,0.1,0.7
	c0,0.3,0,0.5,0.1,0.7s0,0.5,0.1,0.7c0.1,0.9,0.2,1.9,0.4,3c1,6.9,2.9,14.5,2.9,14.5s0.1,0.3,0.2,0.8l0,0h-0.8
	c-4.7,0.1-9.3,0.2-14,0.4l-0.8,0h-0.3c-9.9,0.4-19.8,0.8-29.7,1.2l-2.4,0.1h-0.4c-3.4,0.1-6.9,0.2-10.3,0.3h-0.9h0
	c0.2-0.3,0.5-0.7,0.8-0.9c0.3-0.2,0.5-0.5,0.8-0.6c1.6-1,3.3-1.7,5.1-2.2c0.4-0.1,0.8-0.1,1.2-0.1l2.3,0h0.4l3.6,0.1l30.5,0.6h0.1
	c0,0,0.1,0,0.2-0.1c0.4-0.1,0.7-0.2,1-0.4c1.1-0.5,1.9-1.5,2.1-2.8c0-0.1,0-0.2,0-0.3c0-0.2,0-0.3,0-0.5c0-0.1,0-0.2,0-0.4
	c0-0.1,0-0.3-0.1-0.4c-0.7-4.2-2-17-2-17s0-0.5,0-1.5c0-0.1,0-0.1,0-0.2v-0.2c0-0.2,0-0.4,0-0.7c0-0.1,0-0.3,0-0.4
	c0-0.2,0-0.5,0.1-0.7v0c0-0.2,0-0.3,0-0.5c0-0.2,0,0,0-0.1c0.1-0.6,0.1-1.3,0.2-2c0.7-4.9,2.4-11.2,6.7-13.8
	c2.2-1.3,3.7-1.6,4.7-1.4c1.6,0.4,1.9,2,2,3c0,0.1,0,0.1,0,0.2C1020.5,232.3,1020.5,232.5,1020.5,232.7z"/>
<path class="st3" d="M959.9,277c0,0,0,0.1,0,0.1l0,0C959.8,277.1,959.9,277,959.9,277L959.9,277z"/>
<polygon class="st3" points="972.6,277 972.7,277.1 972.4,277.1 972.4,277 "/>
<path class="st3" d="M1000.9,277.1L1000.9,277.1L1000.9,277.1z"/>
<path class="st5" d="M1019.6,232.4c0,0-4.3,12-4.1,19.1c0.2,7.2,3.6,20.6,3.6,20.6s0.1,0.5,0.3,1.2c-4.7,0.1-9.3,0.2-14,0.4l-0.8,0
	h-0.3c-9.9,0.4-19.8,0.8-29.7,1.2l-2.4,0.1h-0.4c-3.4,0.1-6.9,0.2-10.3,0.3h-0.9h0h-1.1c0.5-0.8,1.1-1.4,1.8-1.9l0.1-0.1
	c1.6-1,3.3-1.7,5.1-2.1c0.4-0.1,0.8-0.1,1.2-0.1l3,0.1h0.4l3.7,0.1l29.7,0.6c0.4-0.1,0.8-0.2,1.2-0.4c0.1-0.1,0.3-0.1,0.4-0.2l0,0
	c0.4-0.2,0.7-0.5,1-0.8c0.6-0.7,1-1.8,0.8-3.4c-0.7-4.2-2-17-2-17s-0.2-15.6,7.1-20c3-1.8,4.7-1.7,5.6-1c0,0,0.1,0,0.1,0.1
	C1019.9,230.1,1019.6,232.4,1019.6,232.4z"/>
<path class="st2" d="M901,261.8l-0.1,1.2l-0.7,7.7c-1.1-0.2-2.2-0.5-3.4-0.7l0.9-7l0.3-2.4L901,261.8z"/>
<polygon class="st6" points="879.9,259.4 897.9,220.4 970.4,226.2 977,259.4 "/>
<polygon class="st7" points="879.9,262.7 879.9,259.4 977,259.4 977,264.3 "/>
<path class="st8" d="M907.3,253.7l43.5,0.9c0.3,0,0.6-0.3,0.6-0.6c0-0.1,0-0.1,0-0.2l-6.8-18.6l-29.3-0.6l-8.7,18
	c-0.2,0.4,0,0.8,0.4,1C907.1,253.6,907.2,253.7,907.3,253.7z"/>
<path class="st9" d="M907.3,253.7l43.5,0.9c0.3,0,0.6-0.3,0.6-0.6c0-0.1,0-0.1,0-0.2l-6.8-18.6l-29.3-0.6l-8.7,18
	c-0.2,0.4,0,0.8,0.4,1C907.1,253.6,907.2,253.7,907.3,253.7z"/>
<path class="st8" d="M907,252.9l43.9,0.9l-6-18.4c-0.2-0.6-0.8-1-1.4-1l-28.2-0.5L907,252.9z"/>
<path class="st10" d="M910.6,248.7l5.3-11.8c0.2-0.5,0.7-0.8,1.3-0.8h13.1c0.8,0,1.4,0.6,1.4,1.4v12.7c0,0.8-0.6,1.4-1.4,1.4
	c0,0,0,0-0.1,0l-18.3-0.9c-0.8,0-1.4-0.7-1.3-1.5C910.5,249.1,910.5,248.9,910.6,248.7z"/>
<path class="st11" d="M936.4,247.2l0.2-6.7c0-0.6,0.5-1,1-1h3.9c0.5,0,0.9,0.4,1,0.8l1.1,6.7c0.1,0.6-0.3,1.1-0.8,1.2
	c-0.1,0-0.1,0-0.2,0l-5.2,0C936.8,248.3,936.4,247.8,936.4,247.2C936.4,247.3,936.4,247.3,936.4,247.2z"/>
<path class="st12" d="M885.2,203.5l14.6-1.2c0.4-0.1,0.9,0.2,1,0.6l13.8,31.7l-7.7,17.6c0.2-0.5,0.4,3.7-1.3,0l-21.9-46.5
	C883.3,205.1,884.5,203.6,885.2,203.5z"/>
<path class="st9" d="M885.2,203.5l14.6-1.2c0.4-0.1,0.9,0.2,1,0.6l13.8,31.7l-7.7,17.6c0.2-0.5,0.4,3.7-1.3,0l-21.9-46.5
	C883.3,205.1,884.5,203.6,885.2,203.5z"/>
<path class="st13" d="M885.2,203.5l15.3-2c0.4-0.1,0.9,0.2,1,0.6l13.8,31.7l-8.3,19L884.4,205c-0.2-0.5,0-1.1,0.5-1.3
	C885,203.6,885.1,203.6,885.2,203.5z"/>
<path class="st14" d="M889,205.8l11.1-1.7c0.5-0.1,0.9,0.2,1.1,0.6l11.6,28.9c0.1,0.2,0.1,0.5,0,0.7l-5.3,11.3
	c-0.2,0.5-0.7,0.6-1.2,0.4c-0.2-0.1-0.3-0.2-0.4-0.4l-17.5-38.3c-0.2-0.5,0-1.1,0.5-1.3C888.8,205.8,888.9,205.8,889,205.8z"/>
<linearGradient id="SVGID_2_" gradientUnits="userSpaceOnUse" x1="1018.8446" y1="293.1211" x2="1018.8446" y2="293.1211" gradientTransform="matrix(1 0 0 1 -17.96 -16.03)">
	<stop  offset="0" style="stop-color:#808080;stop-opacity:0.25"/>
	<stop  offset="0.54" style="stop-color:#808080;stop-opacity:0.12"/>
	<stop  offset="1" style="stop-color:#808080;stop-opacity:0.1"/>
</linearGradient>
<path class="st15" d="M1000.9,277.1L1000.9,277.1L1000.9,277.1z"/>
<linearGradient id="SVGID_3_" gradientUnits="userSpaceOnUse" x1="935.5455" y1="244.1438" x2="1025.0537" y2="244.1438" gradientTransform="matrix(1 0 0 1 -17.96 -16.03)">
	<stop  offset="0" style="stop-color:#808080;stop-opacity:0.25"/>
	<stop  offset="0.54" style="stop-color:#808080;stop-opacity:0.12"/>
	<stop  offset="1" style="stop-color:#808080;stop-opacity:0.1"/>
</linearGradient>
<path class="st16" d="M1007.1,270.7c0,0-0.2,0.4-0.6,1l0,0.1c-0.3,0.5-0.7,1.2-1,2l-0.8,0h-0.3c-9.9,0.4-19.8,0.8-29.7,1.2l-2.4,0.1
	h-0.4c-3.4,0.1-6.9,0.2-10.3,0.3h-0.9h0h-1.1l-1.5,0c-1.6,0-3.2,0-4.8,0h-1.9c-5.8,0-11.6-0.1-17.4-0.4l-0.6,0
	c1.1-2.5,3.2-6.6,4.8-7.9c1.3-1,10.4-2.1,18.8-3l0.9-0.1h0l2.3-0.2c3.2-0.3,6.1-0.5,8.2-0.7h0.2l-1.1-3.7L966,254l0.5-4.5l0-0.4h0
	c-0.5,0-0.9,0-1.3-0.2l-15.7-0.5h-0.3l0,0l-6-0.2l0,0c-3.2-0.1-5.5-0.2-5.6-0.2c-0.1,0-0.2,0-0.3-0.1c-0.1-0.1-0.3-0.1-0.4-0.2
	c-0.1-0.1-0.2-0.2-0.3-0.4h-0.1h-0.1l-0.9,0.1l-0.4,0c0,0,0-0.1,0-0.1c0-0.1-0.1-0.3-0.1-0.4h-0.2l-3-0.1h-0.1c0,0-7.7,0.6-11.7-0.9
	l0,0c-1.5-0.5-2.4-1.4-2.4-2.6c0-0.3,0.1-0.6,0.2-0.8c-1.3-2.5,5-6.9,9.8-5.7c1.3,0.4,2.7,0.4,4,0.2c0.7-0.2,1.4-0.5,2-0.9
	c0.1,0,0.1-0.1,0.2-0.1c-0.1-0.1-0.2-0.1-0.2-0.1c-0.3-0.2-0.7-0.3-1.1-0.4l1.3-0.4h0c0,0,4.6-0.4,7.6-0.6h0c0.9,0,1.7-0.1,2.1-0.1
	c2,0.1,5.8-1.4,6-1.8c0.2-0.4,1.9,0,1.9,0l1.6-0.6c1.6-0.6,2.4-1.4,2.4-2s1.4-1.3,1.4-1.3c0.6-1.1,1.8-2.2,3.1-3.2
	c1.1-0.9,2.2-1.6,3.1-2.2c0.3-2.2,0.8-4.3,1.3-6.4c0.6-2,2.4-3.5,3-3.9l0.2-0.2c-0.2-0.8-0.4-1.6-0.7-2.5c0-0.1,0-0.1-0.1-0.2
	c-0.1-0.2-0.1-0.3-0.2-0.5l-0.1-0.2c-0.2,0-0.3,0.1-0.5,0.1c-0.6,0.1-1.1,0.1-1.7,0.1c-5.1,0-9.6-3.4-10.9-8.4c0,0,0,0,0,0
	c-0.3-1-0.4-2-0.4-3c0-1,0.1-1.9,0.4-2.9l0,0c0-0.2,0.1-0.4,0.2-0.6c0,0,0,0,0-0.1c0-0.1,0.1-0.2,0.1-0.3c-0.5,0.1-1,0.1-1.5,0.1
	h-0.3c-1,0-1.9-0.1-2.8-0.5l0,0c-0.2-0.1-0.4-0.2-0.6-0.3c0,0,0,0,0,0c-0.3-0.1-0.5-0.3-0.7-0.5c0.7-0.6,1.2-1.4,1.4-2.4
	c0.1-0.7,0-1.5,0.4-2.1c0.2-0.3,0.5-0.5,0.8-0.7c1.8-1.2,3.1-2.9,4.8-4.3c1.6-1.4,3.5-2.7,5.6-2.8c2.9-0.1,5.4,1.9,8.2,2.3
	c0.9,0.1,1.8,0.1,2.6,0.3c1,0.3,1.8,0.8,2.6,1.4c0.7,0.4,1.4,1,1.9,1.6c0.4,0.6,0.6,1.2,0.8,1.9c0.4,1.4,0.6,2.9,0.7,4.3
	c0.1,1.5,0,3.1,0.2,4.6c0.1,1.3,0.6,2.6,1.3,3.7h0c0.1,0.2,0.3,0.3,0.4,0.5c-0.3,0.1-0.6,0.2-0.9,0.2c-0.5,0.1-1,0.2-1.5,0.3
	c-0.2,0-0.5,0.1-0.7,0.1c-0.2,0-0.3,0-0.5,0l0.3,0.2l0.8,0.5l0,0l0.3,0.2l0.6,0.4c0.1-0.4,0.3-0.5,0.6-0.5c0.5-0.4,1.1,0.5,1.1,0.5
	c0.4,0.8,1.5,1.5,2.4,2.1c0.6,0.3,1.1,0.6,1.7,0.9c12.4,7.5,11.6,18.7,12.3,19.5s0.8,4.1,0.8,4.1s1.8,10.9,2.6,11.9
	c0.8,0.9,0.1,1.3,0.8,2.3c0.7,1,0.6,3.9,0.6,3.9s0.5,6.7,2.2,8.1c1.6,1.3,3.7,12.2,4.1,14.4L1007.1,270.7z"/>
<path class="st17" d="M934.7,235.7c0,0-1.7,2.8-6.6,1.5c-4.9-1.3-11.3,3.5-9.4,5.9c1.8,2.4,13.6-0.7,13.6-0.7l4.5-0.9l-0.3-3.8
	L934.7,235.7z"/>
<path class="st4" d="M934.7,235.7c0,0-1.7,2.8-6.6,1.5c-4.9-1.3-11.3,3.5-9.4,5.9c1.8,2.4,13.6-0.7,13.6-0.7l4.5-0.9l-0.3-3.8
	L934.7,235.7z"/>
<path class="st18" d="M936.3,235.6l-2.1-0.1l-1.3,0.4c0,0,4.1,0.6,3,6.2l4.4-0.3L936.3,235.6z"/>
<path class="st4" d="M936.3,235.6l-2.1-0.1l-1.3,0.4c0,0,4.1,0.6,3,6.2l4.4-0.3L936.3,235.6z"/>
<path class="st19" d="M964.2,222.9c0,0-5.8,3.4-7.4,6.1c0,0-1.4,0.7-1.4,1.3s-0.9,1.4-2.4,2l-1.5,0.6c0,0-1.7-0.4-1.9,0
	c-0.2,0.4-3.9,1.8-5.9,1.8c-1.9,0-9.5,0.7-9.5,0.7c2.9,1.3,4.5,4.5,3.8,7.6l18-0.8l6.8-1.5l4-4.1L964.2,222.9z"/>
<path class="st17" d="M937.7,247.2l-2.5-0.1l-3-0.1c0,0-14,1.1-13.8-3.5c0.3-4.6,11.1-6.2,12.6-4.9c1.1,1,3.8,1.8,5,2.1
	c0.4,0.1,0.6,0.2,0.6,0.2L937.7,247.2z"/>
<path class="st4" d="M937.7,247.2l-2.5-0.1c-1-3.5,0.2-5.5,0.8-6.2c0.4,0.1,0.6,0.2,0.6,0.2L937.7,247.2z"/>
<path class="st18" d="M939.4,247.4l-2.6,0.2l-1.3,0.1c-1.7-5.2,1.1-7.2,1.1-7.2h0.8l1.4,0.2L939.4,247.4z"/>
<path class="st17" d="M971.4,213.2l-3.1,6c0,0-0.5-6.1-1.9-9c-0.4-0.7-0.8-1.3-1.3-1.4c-1.3-0.4,6.3-8.9,6.3-8.9
	c0.3,0.1,1.7,1,3.5,2.3c1.9,1.3,4.3,3,5.9,4C983.8,208.1,971.4,213.2,971.4,213.2z"/>
<path class="st20" d="M967.4,213.3c0,0-2.5,1.6-3.2,4.1s-1.4,6.8-1.4,6.8s1.1,10.4,1.7,10.8c0.6,0.5,2.8,10.8,2.8,10.8l2.2-1.5
	l-2.9-13.1C966.7,231.3,968.6,214.5,967.4,213.3z"/>
<polygon class="st18" points="978.3,236.4 965.7,236.4 967.8,216.3 978.3,216.3 "/>
<path class="st21" d="M949.2,277h0.2l-0.3,0.1L949.2,277z"/>
<path class="st22" d="M972.8,267.8l-2.5,1l-0.3,0.1l-8.9,3.5l-3.4,1.3l-4.6,1.8h-1.9c-5.8,0-11.6-0.1-17.4-0.4
	c1.1-2.5,3.1-6.5,4.7-7.8c1.3-1,10.1-2.1,18.3-2.9c1-0.1,2-0.2,3-0.3l0.2,0c3.3-0.3,6.2-0.5,8.3-0.7l0.3,0l2.6-0.2l0.3-0.3l0.3,1.4
	l0.3,1.1L972.8,267.8z"/>
<path class="st4" d="M949.2,277h0.2l-0.3,0.1L949.2,277z"/>
<path class="st21" d="M949.2,277h0.2l-0.3,0.1L949.2,277z"/>
<path class="st21" d="M959.9,277c0,0,0,0.1,0,0.1l0,0C959.8,277.1,959.9,277,959.9,277L959.9,277z"/>
<polygon class="st21" points="972.7,277.1 972.4,277.1 972.4,277 972.6,277 "/>
<path class="st23" d="M975,264.3l-0.2,6.9v0.4v0l-0.1,3.4l-2.4,0.1h-0.4c-3.4,0.1-6.9,0.2-10.3,0.3h-0.9h0h-1.1l-1.5,0
	c-1.6,0-3.2,0-4.8,0h-1.9c1.7-1.1,3.9-2.3,6.3-3.5c1.1-0.5,2.2-1.1,3.3-1.6c3-1.4,6-2.7,8.4-3.8l0.3-0.1c1-0.4,1.8-0.8,2.5-1.1
	C973.9,264.7,974.9,264.3,975,264.3L975,264.3z"/>
<path class="st4" d="M952.9,235.9c0.6,1.3,1.3,2.7,2.3,3.7c0.2,0.2,0.4,0.3,0.6,0.1c0-0.1,0.1-0.2,0.1-0.2c0-0.6-0.2-1.2-0.6-1.7
	c-0.3-0.5-0.7-1-1-1.5c-0.3-0.5-0.6-1.6-1.3-1.7C952.1,234.3,952.7,235.5,952.9,235.9z"/>
<path class="st4" d="M974.9,202.1c0,0.2-0.1,0.3-0.2,0.5c-1.3,3.9-4.4,6.8-8.4,7.6c-0.4-0.7-0.8-1.3-1.3-1.4
	c-1.3-0.4,6.3-8.9,6.3-8.9C971.7,200,973.1,200.9,974.9,202.1z"/>
<path class="st17" d="M975.3,198.9c0,6.2-5,11.3-11.1,11.3s-11.1-5.1-11.1-11.3c0-6.2,5-11.3,11.1-11.3S975.3,192.6,975.3,198.9
	C975.3,198.9,975.3,198.9,975.3,198.9z"/>
<path class="st21" d="M968.4,215.7c0,0-2.3,2.9-1.9,4.7h2.8l2-2.4L968.4,215.7z"/>
<path class="st4" d="M976.6,203.7l-8.8,12.3c0,0,2.3,3.3,3.3,3.5c1.1,0.2,7.2-14.6,7.2-14.6L976.6,203.7z"/>
<path class="st18" d="M976.8,203.4l-8.8,12.4c0,0,2.3,3.3,3.3,3.5c1.1,0.2,7.2-14.6,7.2-14.6L976.8,203.4z"/>
<path class="st24" d="M966.8,219.2c0,0-0.4,6.9-0.9,8.3s0,14,0,14l4.1-1.7l-0.7-19.4L966.8,219.2z"/>
<polygon class="st4" points="972.6,277 972.7,277.1 972.4,277.1 972.4,277 "/>
<path class="st4" d="M1000.9,277.1L1000.9,277.1L1000.9,277.1z"/>
<path class="st4" d="M1005.8,271c0,0-0.1,0.1-0.2,0.3c-0.1,0.2-0.3,0.5-0.4,0.8l0,0c-0.2,0.5-0.5,1-0.8,1.6
	c-9.9,0.4-19.8,0.8-29.7,1.2l-2.4,0.1h-0.4l-1-3.6v0l-0.1-0.4l-0.7-2.3l-0.7-2.3l-0.7-2.4l-0.3-0.9l-0.1-0.2l-1.1-3.7l-1.5-5.1
	l0.5-4.8l0,0l0-0.4l0.4-4.3l0.1-1.3l0,0l0-0.7v-0.2l0,0l0.1-1.5l0.2-4.6l0.1-2.4l0,0l0-0.4l0,0l0.2-4.8l0.6-1.9l0.3-1l0.7-2.3
	l0.2-0.6l0,0c0.2-0.8,0.7-2.5,1.1-4.1l0,0l0-0.1l0,0l0-0.1l0.3-1.1l0.4-1.5c0.1-0.6,0.2-1,0.3-1.1c0-0.2,0.7-1.3,1.5-2.7l0,0
	c1.7-2.8,4.1-6.9,4.4-8.2v0c0-0.1,0-0.2,0.1-0.2c0.1-0.4,0.3-0.5,0.5-0.5c0.1,0,0.2,0.1,0.3,0.1c0.2,0.1,0.4,0.3,0.5,0.5
	c0.4,0.7,1.4,1.5,2.3,2.1l0.2,0.1l0.1,0.1c0.8,0.4,1.4,0.7,1.4,0.7c12.1,7.4,11.3,18.5,12,19.4c0.7,0.9,0.8,4.1,0.8,4.1
	s1.8,10.8,2.6,11.8c0.8,0.9,0.1,1.3,0.8,2.3s0.5,3.8,0.5,3.8s0.5,6.6,2.2,8C1003.4,257.7,1005.8,271,1005.8,271z"/>
<path class="st20" d="M1006.2,270.9l-0.1,0.3l0,0c-0.1,0.2-0.3,0.5-0.5,0.9l0,0c-0.3,0.5-0.6,1-0.8,1.7h-0.3
	c-9.9,0.4-19.8,0.8-29.7,1.2l-2.4,0.1l-1-3.6v0l-0.1-0.4l-0.7-2.4l-0.7-2.3l-0.7-2.3l-0.3-0.9l0,0l-1.1-3.9l-1.5-5.2l0.4-4.2
	l0.1-0.6l0.5-4.8l0,0l0.2-3.7l0.2-4.5l0.1-1.2l0.1-1.4l0-0.6l0.2-4.5l0.6-1.9l0.3-0.8l0.6-1.9l0.1-0.4c0,0,0.6-2.2,1.2-4.4
	c0-0.1,0-0.2,0.1-0.2c0.1-0.2,0.1-0.4,0.2-0.6l0,0c0.1-0.2,0.1-0.4,0.2-0.6c0.2-0.6,0.3-1.2,0.4-1.6c0.2-0.6,0.3-1.1,0.3-1.2
	c0-0.2,0.7-1.3,1.5-2.7c1.6-2.6,3.8-6.4,4.3-7.9c0-0.1,0-0.2,0.1-0.2l0,0c0-0.2,0.1-0.5,0.3-0.7c0.4-0.4,1.1,0.5,1.1,0.5
	c0.4,0.7,1.4,1.5,2.3,2.1c0.5,0.3,1.1,0.6,1.7,0.9c12.1,7.4,11.3,18.5,12,19.4c0.7,0.9,0.8,4.1,0.8,4.1s1.8,10.8,2.6,11.8
	s0.1,1.3,0.8,2.3c0.7,1,0.5,3.8,0.5,3.8s0.5,6.6,2.2,8C1003.8,257.8,1006.2,270.9,1006.2,270.9z"/>
<path class="st4" d="M981.5,206.2c-1.2,1.7-3.1,4.8-3.6,7.1c0,0-1.9,2-2.6,1.9c-0.7-0.1,0.7,1.5,0.7,1.5l-7.4,10.4l1.1-3.2
	c0,0,2.2-7.9,2.3-8.6s5.5-8.9,5.9-10.9c0.3-1.6,1.4-0.2,1.4-0.2C979.5,204.9,980.6,205.7,981.5,206.2z"/>
<path class="st25" d="M981.5,206c-1.2,1.7-3.1,4.8-3.6,7.1c0,0-1.9,2-2.6,1.9c-0.7-0.1,0.7,1.5,0.7,1.5l-7.4,10.4l1.1-3.2
	c0,0,2.2-7.9,2.3-8.6c0.1-0.7,5.5-8.9,5.9-10.9c0.3-1.6,1.4-0.2,1.4-0.2C979.5,204.7,980.6,205.5,981.5,206z"/>
<path class="st4" d="M991.5,227.7c0.1,2.4-3.4,5.7-3.6,5.9c-0.2,0.2-10.7,9.1-10.7,9.1l-7.6,5.9c-0.9,0.7-1.9,1.2-3,1.4l0.5-5.3
	l0.5-10.7c1.2-1.3,2.3-2.8,2.3-3.2c0.1-0.9,2-1.9,2-1.9s1.4-1.1,1.1-1.8c-0.2-0.7,0.7-3.8,0.7-3.8c0.5-8.9,9.5-9.8,9.5-9.8
	s4.4,1.7,7.4,3.6C993.8,218.9,991.4,225.3,991.5,227.7z"/>
<path class="st4" d="M939.4,247.4l-2.6,0.2c-1.1-1.9,0.4-7.1,0.4-7.1h0.2l1.4,0.2L939.4,247.4z"/>
<path class="st20" d="M983.4,212.8c0,0-9.1,0.9-9.5,9.8c0,0-0.9,3.1-0.7,3.8c0.2,0.7-1.1,1.8-1.1,1.8s-1.9,1-2,1.9s-5,6-5,6
	s-2,2.4-6.8,2.6c-4.8,0.2-7,1.7-7,1.7s-2.3-1.6-4-1.1c-1.7,0.5-9.9,1.1-9.9,1.1s-2.2,7.3,0.5,7.8c0.3,0.1,27,1,27,1s1.8,0.9,4.6-1.3
	c2.8-2.1,7.6-5.9,7.6-5.9s10.6-8.9,10.7-9.1c0.2-0.2,3.6-3.5,3.6-5.9c-0.1-2.4,2.4-8.9-0.7-10.7
	C987.7,214.4,983.4,212.8,983.4,212.8z"/>
<path class="st4" d="M975.3,198.9c0,1.2-0.2,2.4-0.5,3.5c-0.2-0.2-0.3-0.4-0.4-0.6c-0.5-0.8-1-1.6-1.6-2.4c-0.4-0.7-0.9-1.4-1.6-1.9
	c-0.7-0.5-1.6-0.7-2.3-0.2c-0.6,0.4-0.9,1.1-1,1.9c0,0.7,0,1.5,0.1,2.2c0,0.3,0,0.6-0.2,0.8c-0.2,0.2-0.5,0.3-0.9,0.3l-1,0.1
	c-0.4,0.1-0.8-0.1-0.9-0.4c0,0,0,0,0,0c-0.8-1.5-1.4-3.4-2.9-4.1c-1-0.4-2.2-0.4-2.8-1.3c-0.4-0.6-0.4-1.4-0.2-2.1
	c0.1-0.8,0.3-1.6,0.6-2.4c0.2-0.5,0.6-1.6-0.3-1.7c-0.6-0.1-1.4,0.6-1.7,1c-0.3,0.4-0.4,1-0.6,1.6c-0.4,0.9-1.1,1.6-2,1.9
	c-0.5,0.2-0.9,0.3-1.4,0.4c1.9-5.9,8.2-9.2,14-7.3C972.2,189.6,975.3,194,975.3,198.9L975.3,198.9z"/>
<path class="st26" d="M957.6,191.3c-0.3,0.5-0.4,1-0.6,1.5c-0.4,0.9-1.1,1.6-2,1.9s-1.8,0.5-2.8,0.5c-1.6,0-3.3-0.2-4.3-1.4
	c0.7-0.6,1.2-1.4,1.3-2.4c0.1-0.7,0-1.5,0.4-2.1c0.2-0.3,0.5-0.5,0.8-0.6c1.7-1.2,3.1-2.9,4.7-4.3c1.6-1.4,3.4-2.7,5.5-2.7
	c2.8-0.1,5.3,1.9,8.1,2.3c0.9,0.1,1.7,0.1,2.6,0.3c0.9,0.3,1.8,0.7,2.6,1.3c0.7,0.4,1.4,1,1.8,1.6c0.4,0.6,0.6,1.2,0.8,1.8
	c0.4,1.4,0.6,2.8,0.7,4.3c0.1,1.5,0,3,0.2,4.5c0.2,1.5,0.6,3,1.7,4.1c-0.7,0.2-1.5,0.4-2.2,0.5c-0.5,0.1-1,0.1-1.4-0.1
	c-0.4-0.2-0.7-0.6-0.9-1l-1.6-2.4c-0.4-0.7-0.9-1.4-1.6-1.9c-0.7-0.5-1.6-0.7-2.3-0.2c-0.6,0.4-0.9,1.1-1,1.9c0,0.7,0,1.5,0.1,2.2
	c0,0.3,0,0.6-0.2,0.8c-0.2,0.2-0.5,0.3-0.9,0.3l-1,0.1c-0.4,0.1-0.8-0.1-0.9-0.4c0,0,0,0,0,0c-0.8-1.5-1.4-3.4-2.9-4.1
	c-1-0.4-2.2-0.4-2.8-1.3c-0.4-0.6-0.4-1.4-0.2-2.1c0.1-0.8,0.3-1.6,0.6-2.4c0.2-0.5,0.6-1.6-0.3-1.7
	C958.7,190.1,957.9,190.8,957.6,191.3z"/>
<path class="st4" d="M982.8,217.8c0.8-0.1,1.7-0.2,2.5,0.1c-2-0.8-5.4-0.5-7.2,0.6C978.2,219,982.1,217.9,982.8,217.8z"/>
<path class="st4" d="M983.7,220.6c2,0.1,4.1,0.4,6-0.2c-1.6-0.6-3.4-0.2-5.1-0.4c-1.4-0.1-2.7-0.6-4.1-0.3c-0.6,0.1-2.6,1.1-2.4,1.8
	C979.9,220.7,981.8,220.4,983.7,220.6z"/>
<path class="st4" d="M978.3,225.1c0.4,0,0.9,0,1.3,0.1c1.5,0.4,3.1,0.5,4.7,0.5c1.2,0,2.5-0.2,3.4-1L978.3,225.1z"/>
<path class="st4" d="M971.8,235.6c1.4,0.7,3,0.9,4.6,0.8c1.6-0.1,3.1-0.4,4.6-0.9c0.7-0.2,1.4-0.4,1.8-1L971.8,235.6z"/>
<path class="st4" d="M986.4,237.1c3.1,1.8,6.5,2.9,10.1,3.2c-1.8-0.7-3.6-1.4-5.4-2.1c-1.8-0.7-3.8-1.2-5.7-1.5
	C985.8,236.7,986.1,236.8,986.4,237.1z"/>
<path class="st4" d="M991.4,235.1c0.6,0.1,1.3,0.1,1.9,0.1c0.3,0,0.7,0,0.9-0.3c-1.4,0.1-2.8-0.3-4.2-0.6c-0.4-0.1-1.1-0.3-1.4-0.1
	C989.2,234.7,990.6,235,991.4,235.1z"/>
<path class="st4" d="M999.9,265.2c0.7,1.3,1.5,2.6,2.5,3.7c0.6,0.6,1.2,1.1,1.9,1.6c-1.2-3.2-2.5-6.4-4.4-9.2
	c-0.5-0.7-1.2-1.7-2.1-1.8c-0.3,0.8,0.4,2.1,0.7,2.9C998.9,263.4,999.4,264.3,999.9,265.2z"/>
<path class="st4" d="M963.8,241.4c-0.1,0.5-0.1,1.1,0.2,1.6c0.2,0.2,0.4,0.4,0.6,0.4c-0.2,0-0.3-1.6-0.4-1.8c-0.1-0.4,0-1.3-0.3-1.6
	C963.9,240.4,963.9,240.9,963.8,241.4z"/>
<path class="st4" d="M965.5,240.8c0.2,0.9,0.8,1.8,1.7,2.3c-0.6-0.7-0.8-1.7-1.3-2.5c-0.2-0.3-0.4-0.6-0.7-0.7
	C965.3,240.2,965.4,240.5,965.5,240.8z"/>
<path class="st4" d="M964.1,231.1c-1,0.6-2.2,0.7-3.3,0.4c-0.3-0.1-0.8-0.3-0.7-0.7c0.1-0.4,0.8-0.1,1.1-0.1l1.5,0.2
	C962.9,230.9,963.9,231.2,964.1,231.1z"/>
<path class="st4" d="M959.2,233.5c0.7-0.1,1.3,0.4,1.9,0.6c0.7,0.2,1.5,0.3,2.2,0.3c0.4,0,0.8,0,1-0.3
	C962.6,233.7,961,233.3,959.2,233.5z"/>
<polygon class="st18" points="967.4,213.3 967.5,213.3 968.3,216.3 967.4,217.3 "/>
<g class="st27">
	<path d="M949.5,189.8c-0.1,0.5-0.2,1-0.2,1.5c0-0.2,0.1-0.3,0.1-0.5C949.5,190.5,949.5,190.2,949.5,189.8z"/>
	<path d="M959.3,190.2c0.3,0,0.6,0.3,0.6,0.6v0c0.2-0.6,0.2-1.2-0.4-1.3c-0.6-0.1-1.4,0.6-1.7,1c-0.3,0.4-0.4,1-0.6,1.6
		c-0.4,0.9-1.1,1.6-2,1.9c-0.9,0.3-1.8,0.5-2.8,0.5c-1.4,0-2.9-0.2-4-1.1c-0.1,0.1-0.3,0.3-0.4,0.4c1,1.2,2.7,1.4,4.3,1.4
		c1,0,1.9-0.2,2.8-0.5s1.6-1,2-1.9c0.2-0.5,0.3-1.1,0.6-1.5C958,190.8,958.7,190.1,959.3,190.2z"/>
	<path d="M976.8,201.9c-0.5,0.1-1,0.1-1.4-0.1c-0.4-0.2-0.7-0.6-0.9-1c-0.5-0.8-1-1.6-1.6-2.4c-0.4-0.7-0.9-1.4-1.6-1.9
		c-0.7-0.5-1.6-0.7-2.3-0.2c-0.6,0.4-0.9,1.1-1,1.9c0,0,0,0.1,0,0.1c0.1-0.5,0.4-1,0.9-1.3c0.7-0.4,1.7-0.2,2.3,0.2
		c0.6,0.5,1.2,1.2,1.6,1.9c0.5,0.8,1,1.6,1.6,2.4c0.2,0.4,0.5,0.7,0.9,1c0.5,0.2,1,0.2,1.4,0.1c0.8-0.1,1.5-0.3,2.2-0.5
		c-0.1-0.2-0.3-0.3-0.4-0.5C978,201.7,977.4,201.8,976.8,201.9z"/>
	<path d="M967.9,201.2c-0.2,0.2-0.5,0.3-0.9,0.3l-1,0.1c-0.4,0.1-0.8-0.1-0.9-0.4c0,0,0,0,0,0c-0.8-1.5-1.4-3.4-2.9-4.1
		c-1-0.4-2.2-0.4-2.8-1.3c-0.3-0.5-0.4-1.1-0.3-1.7c0,0.1,0,0.2-0.1,0.3c-0.1,0.7-0.2,1.5,0.2,2.1c0.6,0.9,1.8,0.8,2.8,1.3
		c1.6,0.7,2.1,2.6,2.9,4.1c0.1,0.2,0.2,0.3,0.4,0.5c0.2,0.1,0.4,0.1,0.5,0l1-0.1c0.3,0,0.6-0.1,0.9-0.3c0.2-0.2,0.2-0.5,0.2-0.8l0,0
		C968,201.1,968,201.2,967.9,201.2z"/>
</g>
<path class="st2" d="M1104.6,280.4l-2.1-0.3v-31.8l0.4,0.1l1.3,0.4v1.1v0.8v1.2v1.4l0,2.9v0.3v0.4v0.8v0.5v1.2v0.7l0.2,14.3v0.4
	l0.1,5v0.1L1104.6,280.4z"/>
<path class="st28" d="M1105.8,280.6l-1.2-0.2v-0.6v-0.1l-0.1-5v-0.4l-0.2-14.3v-0.7v-1.2v-0.5v-0.8v-0.4v-0.3l0-2.9v-1.4v-1.2v-0.8
	v-1.1h1.3v1.2v0.8v0.9v1.2l0,3.1v0.7v0.7v0.5v0.6v0.8l0,0l0.1,15v0.4l0,5v0.1V280.6z"/>
<path class="st28" d="M1105.8,282.4L1105.8,282.4z"/>
<path class="st2" d="M1234.3,244.4v27.4c-0.6,0.4-1.3,0.9-1.9,1.3l0-22.8v-2.4L1234.3,244.4z"/>
<path class="st28" d="M1235.6,244v26.8c-0.5,0.4-0.9,0.7-1.4,1.1v-27.4L1235.6,244z"/>
<path class="st2" d="M1205,282.9c-0.8,0.2-1.6,0.3-2.4,0.5l0-24.8v-1.1l2.3-1v2.3L1205,282.9z"/>
<path class="st28" d="M1206.5,255.7v26.9c-0.5,0.1-1,0.2-1.6,0.3l-0.1-24.2v-2.3l0.2-0.1l0,0L1206.5,255.7z"/>
<path class="st2" d="M1066.5,275.4l-2.2-0.2l-0.3-28v-0.8v-0.5h2.1v0.7v0.8L1066.5,275.4z"/>
<path class="st28" d="M1068.2,275.6l-1.7-0.2l-0.3-28v-0.8v-0.7h1.7v0.9v0.8L1068.2,275.6z"/>
<polygon class="st4" points="1205,256.4 1206.5,255.7 1206.5,259.1 1205.1,259.6 "/>
<polygon class="st4" points="1235.6,244 1235.6,249.2 1234.3,249.6 1232.3,250.3 1232.3,247.9 1234.3,244.4 "/>
<polygon class="st7" points="1235.6,234 1235.6,248.4 1205.1,258.8 1204.9,243.4 "/>
<polygon class="st6" points="1063.7,233 1103.9,225.2 1235.6,234 1204.9,243.4 "/>
<polygon class="st4" points="1067.9,245.9 1067.9,247.6 1066.2,247.4 1064.1,247.2 1064.1,245.9 "/>
<polygon class="st4" points="1105.5,250.9 1104.3,250.7 1102.5,250.6 1102.5,248.3 1104.3,248.9 1105.5,248.9 "/>
<polygon class="st7" points="1063.7,233 1063.7,246.4 1205.1,258.8 1204.9,243.4 "/>
<polygon class="st29" points="1175.8,248.9 1157.3,248.9 1157.3,242.1 1175.8,243.4 "/>
<polygon class="st4" points="1175.8,248.9 1157.3,248.9 1157.3,242.1 1175.8,243.4 "/>
<polygon class="st4" points="1132.5,240.6 1132.5,251.4 1203.4,256.8 1203.4,245.4 1175.7,243.8 1173,246.3 1161.7,245.5 
	1157.7,242.5 "/>
<polygon class="st30" points="1132.1,240.2 1132.1,251 1203,256.5 1203,245 1175.3,243.4 1172.6,245.9 1161.3,245.1 1157.3,242.1 
	"/>
<polygon class="st29" points="1088.4,237.3 1105.1,238.5 1105,243.9 1094,243.9 1086.7,241 "/>
<polygon class="st4" points="1088.4,237.3 1105.1,238.5 1105,243.9 1094,243.9 1086.7,241 "/>
<polygon class="st4" points="1066,235.8 1066,245.5 1130.3,250.7 1130.3,240.4 1105.5,238.9 1102.9,240.9 1092.9,240.3 
	1088.8,237.7 "/>
<polygon class="st30" points="1065.6,235.4 1065.6,245.1 1130,250.3 1130,240 1105.1,238.5 1102.5,240.5 1092.5,239.9 1088.4,237.3 
	"/>
<polygon class="st4" points="1203.4,235.4 1212.4,236 1197.5,240.6 1189.9,240 "/>
<polygon class="st30" points="1203.4,235.1 1212.4,235.6 1197.5,240.2 1189.9,239.6 "/>
<path class="st28" d="M1202.3,236.1c0.4-0.2,0.7,0.1,1.1,0.2c0.2,0,0.4,0,0.7,0c0.4,0.1,0.9,0.4,1.3,0.2L1202.3,236.1z"/>
<path class="st28" d="M1201.9,236.3c0.4-0.2,0.7,0.1,1.1,0.2c0.2,0,0.4,0,0.7,0c0.4,0.1,0.9,0.4,1.3,0.2L1201.9,236.3z"/>
<path class="st28" d="M1200.8,236.9c0.4-0.2,0.7,0.1,1.1,0.2c0.2,0,0.4,0,0.7,0c0.4,0.1,0.9,0.4,1.3,0.2L1200.8,236.9z"/>
<polygon class="st4" points="1142.5,230.4 1162.7,231.7 1158.4,238 1136.3,235.6 "/>
<polygon class="st3" points="1142.2,230 1162.3,231.3 1158,237.6 1135.9,235.2 "/>
<polygon class="st31" points="1143,230.5 1160.6,231.6 1156.8,236.7 1137.5,234.7 "/>
<path class="st3" d="M1105.8,282.4L1105.8,282.4z"/>
<path class="st4" d="M1105.8,282.4L1105.8,282.4z"/>
<path class="st3" d="M1105.6,282.4L1105.6,282.4z"/>
<path class="st3" d="M1131.3,281.6c0,0.1,0,0.2,0,0.3c0,0.1,0,0.2,0,0.3c-0.1,0.6-0.2,1.2-0.5,1.7l0,0c-8.3-0.9-16.6-2.1-25-3.3
	l-1.2-0.2l-2.1-0.3l-1.8-0.3l0,0c-1.9,0-3.9-0.2-5.8-0.6c-1.2-0.2-2.4-0.4-3.6-0.8c-5.3-0.7-10.6-1.4-15.9-2.1l-0.7-0.1
	c0.1-0.6,0.2-0.9,0.2-0.9s1.1-4.5,2.1-9.6l0,0c0.2-1.1,0.4-2.2,0.6-3.3c0.1-0.9,0.3-1.8,0.4-2.6c0.1-0.5,0.1-0.9,0.2-1.4
	c0-0.2,0-0.4,0.1-0.7c0-0.2,0-0.5,0.1-0.7c0-0.2,0-0.4,0-0.6v-0.3c0-0.4,0-0.9,0-1.4c-0.2-2.4-0.5-4.8-1.1-7.2
	c-0.1-0.4-0.2-0.8-0.3-1.2c0-0.1-0.1-0.3-0.1-0.4c-1.1-4.2-2.3-7.6-2.3-7.6c0,0,0,0,0-0.1v0c0,0,0-0.1,0-0.1c0-0.1,0-0.3,0-0.5
	c0,0,0-0.1,0-0.1c0-0.3,0.1-0.7,0.2-1c0-0.1,0.1-0.2,0.1-0.4c0.2-0.7,0.8-1.2,1.5-1.4l0,0c0.9-0.2,2.3,0,4.5,1.3
	c0.4,0.2,0.7,0.4,1,0.7c0.2,0.1,0.3,0.3,0.5,0.4c2.4,2.3,3.7,6.1,4.4,9.6c0,0.1,0.1,0.2,0.1,0.4c0.1,0.4,0.2,0.8,0.2,1.3
	c0.1,0.7,0.2,1.4,0.3,2.1c0,0.2,0,0.3,0.1,0.5s0,0.3,0,0.5c0,0.5,0.1,1,0.1,1.4c0.1,1.1,0,1.7,0,1.7v0c0,0,0,0.1,0,0.1v0
	c0,0,0,0.1,0,0.1c0,0,0,0.1,0,0.2c0,0.1,0,0.3-0.1,0.5c0,0.3-0.1,0.6-0.1,1l0,0c0,0.3-0.1,0.6-0.1,0.9c-0.1,0.7-0.2,1.4-0.2,2.3
	c0,0.2,0,0.3-0.1,0.5c-0.1,0.7-0.2,1.4-0.2,2.2l0,0c-0.1,0.8-0.2,1.7-0.3,2.5c0,0.2,0,0.4-0.1,0.5c-0.2,2-0.5,3.9-0.7,5
	c0,0.2-0.1,0.3-0.1,0.5c0,0.1,0,0.1,0,0.2c0,0.2,0,0.3,0,0.5c0.2,2.9,3.2,3.4,3.2,3.4l13.8-0.3l2,0l1.2,0l10.8-0.2l0,0l1,0l5.4-0.1
	c0.4,0,0.7,0,1.1,0.1c1.7,0.4,3.2,1.1,4.7,2.1c0.5,0.3,0.9,0.7,1.2,1.1c0,0,0,0,0,0.1c0.7,0.9,1.2,2,1.3,3.2c0,0.1,0,0.2,0,0.2
	C1131.3,281.3,1131.3,281.4,1131.3,281.6z"/>
<path class="st4" d="M1105.6,282.4L1105.6,282.4z"/>
<path class="st4" d="M1131.3,281.6c0,0.1,0,0.2,0,0.3c0,0.1,0,0.2,0,0.3c-0.1,0.6-0.2,1.2-0.5,1.7c-8.3-0.9-16.6-2.1-25-3.3
	l-1.2-0.2l-2.1-0.3l-1.8-0.3l0,0c-1.9,0-3.9-0.2-5.8-0.6c-1.2-0.2-2.4-0.4-3.6-0.8c-5.3-0.7-10.6-1.4-15.9-2.1l-0.7-0.1l0,0
	c0.1-0.6,0.2-0.9,0.2-0.9s0.9-3.7,1.8-8.2l0,0c0.1-0.3,0.1-0.6,0.2-0.9l0.1-0.5l0,0c0.2-1.1,0.4-2.2,0.6-3.3
	c0.1-0.9,0.3-1.8,0.4-2.6c0.1-0.5,0.1-0.9,0.2-1.4c0-0.2,0-0.4,0.1-0.7c0-0.2,0-0.5,0.1-0.7c0-0.2,0-0.4,0-0.6v-0.3
	c0-0.4,0-0.9,0-1.4c-0.2-2.4-0.5-4.8-1.1-7.2c-0.1-0.4-0.2-0.8-0.3-1.2c0-0.1-0.1-0.3-0.1-0.4c-1.1-4.2-2.3-7.7-2.3-7.7s0,0,0,0v0
	c0,0,0-0.1,0-0.1c0-0.1,0-0.3,0-0.5c0,0,0-0.1,0-0.1c0-0.3,0.1-0.7,0.2-1c0-0.1,0.1-0.2,0.1-0.4c0.2-0.7,0.8-1.3,1.6-1.4
	c0.9-0.2,2.3,0.1,4.4,1.3c0.4,0.2,0.7,0.5,1,0.7l0,0c0.2,0.1,0.3,0.3,0.5,0.4c2.4,2.3,3.7,6.1,4.4,9.6c0,0.1,0.1,0.3,0.1,0.4
	c0.1,0.4,0.2,0.8,0.2,1.3c0.1,0.7,0.2,1.4,0.3,2.1c0,0.2,0,0.3,0.1,0.5s0,0.3,0,0.5c0,0.5,0.1,1,0.1,1.4c0.1,1.1,0,1.7,0,1.7v0.1
	c0,0,0,0,0,0.1v0c0,0,0,0.1,0,0.1c0,0,0,0.1,0,0.2c0,0.1,0,0.3-0.1,0.5c0,0.3-0.1,0.6-0.1,1l0,0c0,0.3-0.1,0.6-0.1,0.9
	c-0.1,0.7-0.2,1.4-0.2,2.3c0,0.2,0,0.3-0.1,0.5c-0.1,0.7-0.2,1.4-0.2,2.2l0,0c-0.1,0.8-0.2,1.7-0.3,2.5c0,0.2,0,0.4-0.1,0.5
	c-0.2,2-0.5,3.8-0.7,4.9c0,0.2-0.1,0.4-0.1,0.5c0,0.1,0,0.1,0,0.2c0,0.2,0,0.3,0,0.5c0.2,2.8,3.2,3.3,3.2,3.3l13.8-0.3l2,0l1.2,0
	l10.8-0.2l1,0l5.4-0.1c0.4,0,0.7,0,1.1,0.1c1.7,0.4,3.3,1.1,4.7,2.1c0.5,0.3,0.9,0.7,1.2,1.1c0,0,0,0,0,0.1c0.7,0.9,1.2,2,1.3,3.2
	c0,0.1,0,0.2,0,0.2C1131.3,281.3,1131.3,281.4,1131.3,281.6z"/>
<path class="st3" d="M1105.6,282.4L1105.6,282.4z"/>
<path class="st5" d="M1131.3,283.9l-0.6-0.1l0,0c-8.3-0.9-16.6-2.1-25-3.3l-1.2-0.2l-2.1-0.3l-1.8-0.3l0,0c-1.9,0-3.9-0.2-5.8-0.6
	c-1.2-0.2-2.4-0.4-3.6-0.8c-5.3-0.7-10.6-1.4-15.9-2.1c0.1-0.5,0.2-0.9,0.3-1.4c0,0,3.1-12.6,3.3-19.2c0.1-2.4-0.4-5.3-1-8.2l0,0
	c-0.1-0.4-0.2-0.8-0.3-1.2l-0.1-0.4c-1.1-4.4-2.4-8.1-2.4-8.1c0-0.5,0-0.9,0.1-1.4c0-0.1,0-0.2,0.1-0.4c0.1-0.6,0.4-1.1,0.9-1.4l0,0
	c0,0,0,0,0.1,0c0.9-0.7,2.4-0.7,5.2,0.9c0.6,0.3,1.1,0.7,1.6,1.2c0.1,0.1,0.3,0.3,0.4,0.4c2.2,2.5,3.4,6.2,4,9.6l0.1,0.4
	c0.1,0.4,0.1,0.8,0.2,1.2v0l0,0c0.1,0.5,0.1,1,0.2,1.5l0,0c0.2,1.4,0.2,2.9,0.2,4.3c0,0-0.1,1.3-0.3,3.2c-0.1,0.7-0.2,1.6-0.3,2.5
	c0,0,0,0.1,0,0.1l-0.1,0.5c-0.2,1.5-0.4,3.2-0.5,4.7c0,0.2,0,0.4-0.1,0.6c-0.2,1.7-0.4,3.3-0.6,4.3c-0.7,3.9,3.1,4.5,3.1,4.5l13-0.3
	l2,0l1.2,0h0.5h0.2l10.4-0.2h1l5.9-0.1c0.4,0,0.7,0,1.1,0.1c1.7,0.4,3.3,1.1,4.7,2c0.4,0.3,0.8,0.6,1.1,1c0,0,0,0,0.1,0.1
	C1132.3,279.1,1132.5,281.8,1131.3,283.9z"/>
<polygon class="st12" points="1178,223.2 1182,232 1181.3,232 1176.6,223.3 "/>
<polygon class="st4" points="1178,223.2 1182,232 1181.3,232 1176.6,223.3 "/>
<polygon class="st12" points="1178,232 1182,232 1182,232.9 1178,233 "/>
<polygon class="st4" points="1178,232 1182,232 1182,232.9 1178,233 "/>
<path class="st12" d="M1146.6,190.8v30.7c0,1.3,1,2.3,2.2,2.3h50.4c1.2,0,2.2-1,2.2-2.3v0l-0.6-30.8c0-1.2-1-2.2-2.2-2.2h-49.8
	C1147.6,188.5,1146.6,189.6,1146.6,190.8z"/>
<path class="st4" d="M1146.6,190.8v30.7c0,1.3,1,2.3,2.2,2.3h50.4c1.2,0,2.2-1,2.2-2.3v0l-0.6-30.8c0-1.2-1-2.2-2.2-2.2h-49.8
	C1147.6,188.5,1146.6,189.6,1146.6,190.8z"/>
<path class="st13" d="M1144.7,190.8v30.7c0,1.3,1,2.3,2.2,2.3h50.4c1.2,0,2.2-1,2.2-2.3v0l-0.6-30.8c0-1.2-1-2.2-2.2-2.2H1147
	C1145.8,188.5,1144.8,189.5,1144.7,190.8L1144.7,190.8z"/>
<path class="st14" d="M1146.7,192.7v27c0,1.3,1,2.3,2.2,2.3h46.6c1.2,0,2.2-1,2.2-2.3l0,0v-27.1c0-1.2-1-2.3-2.2-2.3H1149
	C1147.8,190.5,1146.7,191.5,1146.7,192.7z"/>
<polygon class="st13" points="1166.9,223.3 1171.3,232 1181.3,232 1176.4,222.1 "/>
<polygon class="st12" points="1163.4,232 1162.7,232.9 1178,232.9 1178,232 "/>
<linearGradient id="SVGID_4_" gradientUnits="userSpaceOnUse" x1="-858.1494" y1="302.0831" x2="-858.1494" y2="193.7414" gradientTransform="matrix(1 0 0 1 1979.37 -16.03)">
	<stop  offset="0" style="stop-color:#808080;stop-opacity:0.25"/>
	<stop  offset="0.54" style="stop-color:#808080;stop-opacity:0.12"/>
	<stop  offset="1" style="stop-color:#808080;stop-opacity:0.1"/>
</linearGradient>
<path class="st32" d="M1098.7,200.1c-1.1-3.2-1.1-6.7-2.4-9.7c-0.2-0.4-0.4-0.9-0.6-1.3c-0.1-0.3-0.1-0.6-0.2-0.9l-0.1,0l-0.1,0
	l-0.1,0l0,0l-0.1,0c0,0.1,0,0.2,0.1,0.3c0.2,0.5,0.4,0.9,0.6,1.3c1.4,3.1,1.4,6.6,2.5,9.7C1098.4,199.9,1098.5,200,1098.7,200.1
	c-0.1,0,0,0.1,0.1,0.1C1098.7,200.2,1098.7,200.2,1098.7,200.1z M1098.7,200.1c-1.1-3.2-1.1-6.7-2.4-9.7c-0.2-0.4-0.4-0.9-0.6-1.3
	c-0.1-0.3-0.1-0.6-0.2-0.9l-0.1,0l-0.1,0l-0.1,0l0,0l-0.1,0c0,0.1,0,0.2,0.1,0.3c0.2,0.5,0.4,0.9,0.6,1.3c1.4,3.1,1.4,6.6,2.5,9.7
	C1098.4,199.9,1098.5,200,1098.7,200.1c-0.1,0,0,0.1,0.1,0.1C1098.7,200.2,1098.7,200.2,1098.7,200.1z M1098.7,200.1
	c-1.1-3.2-1.1-6.7-2.4-9.7c-0.2-0.4-0.4-0.9-0.6-1.3c-0.1-0.3-0.1-0.6-0.2-0.9l-0.1,0l-0.1,0l-0.1,0l0,0l-0.1,0c0,0.1,0,0.2,0.1,0.3
	c0.2,0.5,0.4,0.9,0.6,1.3c1.4,3.1,1.4,6.6,2.5,9.7C1098.4,199.9,1098.5,200,1098.7,200.1c-0.1,0,0,0.1,0.1,0.1
	C1098.7,200.2,1098.7,200.2,1098.7,200.1z M1098.7,200.1c-1.1-3.2-1.1-6.7-2.4-9.7c-0.2-0.4-0.4-0.9-0.6-1.3
	c-0.1-0.3-0.1-0.6-0.2-0.9l-0.1,0l-0.1,0l-0.1,0l0,0l-0.1,0c0,0.1,0,0.2,0.1,0.3c0.2,0.5,0.4,0.9,0.6,1.3c1.4,3.1,1.4,6.6,2.5,9.7
	C1098.4,199.9,1098.5,200,1098.7,200.1c-0.1,0,0,0.1,0.1,0.1C1098.7,200.2,1098.7,200.2,1098.7,200.1z M1098.7,200.1
	c-1.1-3.2-1.1-6.7-2.4-9.7c-0.2-0.4-0.4-0.9-0.6-1.3c-0.1-0.3-0.1-0.6-0.2-0.9l-0.1,0l-0.1,0l-0.1,0l0,0l-0.1,0c0,0.1,0,0.2,0.1,0.3
	c0.2,0.5,0.4,0.9,0.6,1.3c1.4,3.1,1.4,6.6,2.5,9.7C1098.4,199.9,1098.5,200,1098.7,200.1c-0.1,0,0,0.1,0.1,0.1
	C1098.7,200.2,1098.7,200.2,1098.7,200.1z M1098.7,200.1c-1.1-3.2-1.1-6.7-2.4-9.7c-0.2-0.4-0.4-0.9-0.6-1.3
	c-0.1-0.3-0.1-0.6-0.2-0.9l-0.1,0l-0.1,0l-0.1,0l0,0l-0.1,0c0,0.1,0,0.2,0.1,0.3c0.2,0.5,0.4,0.9,0.6,1.3c1.4,3.1,1.4,6.6,2.5,9.7
	C1098.4,199.9,1098.5,200,1098.7,200.1c-0.1,0,0,0.1,0.1,0.1C1098.7,200.2,1098.7,200.2,1098.7,200.1z M1098.7,200.1
	c-1.1-3.2-1.1-6.7-2.4-9.7c-0.2-0.4-0.4-0.9-0.6-1.3c-0.1-0.3-0.1-0.6-0.2-0.9l-0.1,0l-0.1,0l-0.1,0l0,0l-0.1,0c0,0.1,0,0.2,0.1,0.3
	c0.2,0.5,0.4,0.9,0.6,1.3c1.4,3.1,1.4,6.6,2.5,9.7C1098.4,199.9,1098.5,200,1098.7,200.1c-0.1,0,0,0.1,0.1,0.1
	C1098.7,200.2,1098.7,200.2,1098.7,200.1z M1156.1,231.4L1156.1,231.4l-0.3,0l0.3-0.1l0,0c0,0,0.1,0,0.1,0l0,0
	c0.4-0.1,0.7-0.2,1.1-0.3l0,0l0.4-0.1l0,0h0.1c3.1-0.9-0.5-1.8-5.1-2.4l0,0c-4.9-0.7-11-1.1-11-1.1l-1.9,0.3h0
	c-2.3,0.3-5.9,0.8-6.5,1c-0.7,0.2-6.7,0.5-8.8,0.6c-0.1-0.1-0.2-0.3-0.3-0.3l-6.2-0.3v0.9l0,0l0,0c-0.1-1.2-0.3-2.3-0.8-3.4l0-0.1
	c-1.6-3.1-1.9-3.8-1.9-3.8l0,0c0-0.1,0-0.1,0-0.2c-0.5-1.9-2.5-5.2-5.8-9.9l-0.1-0.2l-0.4-2.1l-0.1-0.4h-2.1
	c0.3-1.8,0.8-3.6,1.5-5.3c0-0.1,0.1-0.2,0.1-0.3l0-0.1c0-0.1,0.1-0.2,0.2-0.3c0.1,0,0.2,0,0.4,0l0,0c5.1-0.2,9.3-4.3,9.6-9.5v0
	c0-0.2,0-0.4,0-0.6c0-1.8-0.5-3.5-1.3-5c0,0-0.1-0.1-0.1-0.1l-0.1-0.1l-0.1-0.2c0.8-0.2,1.7,0.2,2.3-0.3c0.2-0.2,0.4-0.4,0.6-0.7
	c0.2-0.3,0.3-0.7,0.3-1l0,0l0,0l0,0c0,0,0,0,0-0.1c0,0,0,0,0,0c0-0.2,0.1-0.5,0.1-0.7c0-0.5-0.1-0.9-0.2-1.4c-0.4-1-1.2-1.8-2.1-2.2
	c-0.5-0.2-1-0.3-1.6-0.4c-2.1-0.6-3.9-2-5.9-2.8c-1.4-0.5-2.9-0.8-4.5-0.7c-0.9,0-1.8,0.3-2.6,0.7c-0.6,0.4-1.2,0.8-1.8,1.3
	c-1.5,1.2-3.1,2.2-4.4,3.6c-0.2,0.3-0.4,0.5-0.6,0.8c-0.1,0.2-0.2,0.3-0.3,0.5c-0.2-0.2-0.5-0.4-0.8-0.3l0,0c-0.1,0-0.1,0-0.2,0
	c-0.1,0-0.3,0-0.4,0c-0.3,0.1-2.8,0.7-2.8,1.1c-1,0.4-2,1-2.8,1.8c-2,1.8-2.4,4.8-2.7,7.5c-0.3,3.1-0.4,6.3-0.3,9.4
	c0,1.1,0.1,2.3,0.1,3.4c-0.1,1.3-0.3,2.7-0.6,4c-0.3,1.4-0.6,2.7-0.9,4.1c-0.2,0.7-0.4,1.4-1.1,1.6l0.2,0c-0.1,0-0.2,0.1-0.2,0.1
	c0.3,0,0.6,0.1,0.8,0.1h0.2c0.2,0,0.3,0,0.5-0.1c0.2-0.1,0.4-0.1,0.6-0.3c0-0.1,0.1-0.1,0.1-0.2c0.2-0.2,0.3-0.4,0.4-0.6
	c0,0.4,0,0.8-0.1,1.1c0,0.1,0,0.1,0,0.2c-0.2,0.8-0.6,1.6-1.1,2.2l0.3-0.3c-0.1,0.1-0.2,0.3-0.3,0.4c0.5-0.4,1-0.7,1.4-1.1l0,0
	c0,0,0.1,0,0.1-0.1l0,0l0.8-0.6c0,0.1,0,0.2,0,0.3c0,0.1,0,0.2,0,0.3l0,0c0,0,0,0.1,0,0.2c-0.1,2.3-0.2,8,0.4,9.4
	c0,0.1,0.1,0.2,0.1,0.2c0.6,1.5,0.9,2.2,0.8,3c-0.1,0.6,0.4,2.2,0.6,3.4c0.1,0.5,0.2,1,0.1,1.5c0,0.3,0,0.6,0.1,0.9
	c0,0.1,0.1,0.3,0.1,0.5c0,0.1,0,0.1,0,0.2c0.3,1.2,0.7,2.7,0.3,3.3c-0.1,0.2-0.3,0.4-0.3,0.7c-0.4,1-0.4,2.4-0.9,3
	c-0.5,0.6-0.3,1.8-0.3,1.9l0,0c0,0,0,0.1-0.1,0.3c-0.1,0.3-0.1,0.7-0.3,1.2v0c-0.2,0.7-0.3,1.3-0.6,2l0,0c-0.2,0.5-0.3,0.8-0.5,0.8
	c-0.7,0.2-1,3.4-1,3.4s-1.5,2.5-1.2,3.1c0.1,0.1,0.1,0.3,0.2,0.4l-0.1,0.2c-0.8,1.3-2,3.7-0.9,5c0.4,0.4,0.9,0.8,1.4,1
	c-0.1,0.1-0.1,0.3-0.2,0.4c-1.3,3-3.2,9.9,4.2,12.8c0.7,0.3,1.5,0.5,2.2,0.7c1.2,0.3,2.4,0.6,3.6,0.8c1.8,0.3,3.5,0.4,5.3,0.5
	c0.8,0,1.6,0,2.3,0s1.4,0,2.1-0.1c0.4,0,0.8,0,1.2-0.1c2.3-0.1,4.5-0.4,6.8-0.8l10.6-1.9c0,0,4.4,0.2,6.1,1.1l0.1,0
	c0,0,0.3-0.2,0.7-0.5l0,0c0.2-0.1,0.4-0.3,0.7-0.5c1.7-1.2,4.5-3.7,6.3-7.1l0-0.1l0.4,0h0.1l0.3,0l0.5-0.1h0h0.1
	c1.3-0.2,2.6-0.4,2.6-0.4s0.1,1.5,0.1,3.3c0,0.5,0,1.1,0.1,1.6c0.1,1.8,0.1,3.5,0.1,3.6s1.4,3.7,2.9,7.4l1.2,0.1
	c3.1,0.3,6.3,0.5,9.4,0.6l1.2,0.1l0.7,0c-0.5-3.3-1-6.3-1-6.3l-1.9-9.3c0,0-0.2-1.9-1.7-10.5c-1.2-6.9-8.2-6.3-10.8-5.8
	c-0.3,0.1-0.5,0.1-0.7,0.1v-0.5c0,0-5,0.4-9.6,0.6l-1.1,0c-1.1,0-2,0.1-2.9,0.1c-0.8,0-1.6,0-2.3-0.1c-3.5-0.4-7.5,0.8-7.5,0.8
	s-5.1,0.8-5.8,0.5c-0.2-0.1-0.4-0.1-0.6-0.1c-0.1,0-0.2,0-0.3,0c0.2-0.1,0.4-0.3,0.3-0.6c-0.2-0.9-0.3-2,0.3-2.9
	c0.3-0.4,0.7-0.9,1-1.4l0.9-1.2v-0.1l0-0.4l0.2-3.3l0.5-3l0-0.2l0-0.3l0-0.2l0.1,0l0,0c1.5,0.5,3.1,0.9,4.3,0.5h0
	c0.1,0,0.2-0.1,0.3-0.1h0.1v0.2l0,0.4l5.5-0.3h0.1c0,0,0.2-1.1,0.4-2.6c0-0.1,0-0.2,0.1-0.4c0-0.1,0.1-0.3,0.1-0.5
	c0-0.1,0-0.2,0-0.2h0.2h0.1c2.5-0.1,6.1-0.3,7.6-0.8l0,0c0.2-0.1,0.4-0.2,0.5-0.3c0.6-0.5,2.8-1.3,5-2l0,0l0.9-0.3
	c0.6-0.2,1.3-0.4,1.8-0.5c1.3-0.3,2.1-0.6,2.1-0.6s8.6,0.8,15-1.1l0,0l0.1,0C1160.5,232.7,1159,232,1156.1,231.4z M1095.2,187.8
	c0,0.1,0,0.2,0,0.3l0,0l0,0l0,0l0,0c0,0,0,0.1,0,0.1c0,0,0,0.1,0,0.1c0,0.1,0,0.2,0.1,0.3c0.2,0.5,0.4,0.9,0.6,1.3
	c1.4,3.1,1.4,6.6,2.5,9.7c0,0.1,0.1,0.3,0.2,0.4c0,0,0.1,0.1,0.2,0.1l0.1,0l0,0h0.1l0,0.1c0,0,0,0,0,0l0,0c-0.4,0.8-0.9,1.5-1.4,2.1
	c-0.4,0.1-0.8,0.2-1.2,0.5l-0.2,0.1l-0.1,0.1c-0.1-0.6-0.3-1.1-0.4-1.7c-0.8-3.1-1.2-6.2-1.3-9.3c0-0.1,0-0.1,0-0.2
	c0-0.1,0-0.3,0-0.4c0-0.8,0-1.6,0.1-2.4c0-0.4,0.1-0.7,0.3-1.1l0,0C1094.8,187.9,1095,187.8,1095.2,187.8L1095.2,187.8z
	 M1098.7,200.1c-1.1-3.2-1.1-6.7-2.4-9.7c-0.2-0.4-0.4-0.9-0.6-1.3c-0.1-0.3-0.1-0.6-0.2-0.9l-0.1,0l-0.1,0l-0.1,0l0,0l-0.1,0
	c0,0.1,0,0.2,0.1,0.3c0.2,0.5,0.4,0.9,0.6,1.3c1.4,3.1,1.4,6.6,2.5,9.7C1098.4,199.9,1098.5,200,1098.7,200.1c-0.1,0,0,0.1,0.1,0.1
	C1098.7,200.2,1098.7,200.2,1098.7,200.1L1098.7,200.1z M1098.7,200.1c-1.1-3.2-1.1-6.7-2.4-9.7c-0.2-0.4-0.4-0.9-0.6-1.3
	c-0.1-0.3-0.1-0.6-0.2-0.9l-0.1,0l-0.1,0l-0.1,0l0,0l-0.1,0c0,0.1,0,0.2,0.1,0.3c0.2,0.5,0.4,0.9,0.6,1.3c1.4,3.1,1.4,6.6,2.5,9.7
	C1098.4,199.9,1098.5,200,1098.7,200.1c-0.1,0,0,0.1,0.1,0.1C1098.7,200.2,1098.7,200.2,1098.7,200.1L1098.7,200.1z M1098.7,200.1
	c-1.1-3.2-1.1-6.7-2.4-9.7c-0.2-0.4-0.4-0.9-0.6-1.3c-0.1-0.3-0.1-0.6-0.2-0.9l-0.1,0l-0.1,0l-0.1,0l0,0l-0.1,0c0,0.1,0,0.2,0.1,0.3
	c0.2,0.5,0.4,0.9,0.6,1.3c1.4,3.1,1.4,6.6,2.5,9.7C1098.4,199.9,1098.5,200,1098.7,200.1c-0.1,0,0,0.1,0.1,0.1
	C1098.7,200.2,1098.7,200.2,1098.7,200.1L1098.7,200.1z M1098.7,200.1c-1.1-3.2-1.1-6.7-2.4-9.7c-0.2-0.4-0.4-0.9-0.6-1.3
	c-0.1-0.3-0.1-0.6-0.2-0.9l-0.1,0l-0.1,0l-0.1,0l0,0l-0.1,0c0,0.1,0,0.2,0.1,0.3c0.2,0.5,0.4,0.9,0.6,1.3c1.4,3.1,1.4,6.6,2.5,9.7
	C1098.4,199.9,1098.5,200,1098.7,200.1c-0.1,0,0,0.1,0.1,0.1C1098.7,200.2,1098.7,200.2,1098.7,200.1L1098.7,200.1z M1098.7,200.1
	c-1.1-3.2-1.1-6.7-2.4-9.7c-0.2-0.4-0.4-0.9-0.6-1.3c-0.1-0.3-0.1-0.6-0.2-0.9l-0.1,0l-0.1,0l-0.1,0l0,0l-0.1,0c0,0.1,0,0.2,0.1,0.3
	c0.2,0.5,0.4,0.9,0.6,1.3c1.4,3.1,1.4,6.6,2.5,9.7C1098.4,199.9,1098.5,200,1098.7,200.1c-0.1,0,0,0.1,0.1,0.1
	C1098.7,200.2,1098.7,200.2,1098.7,200.1L1098.7,200.1z M1098.7,200.1c-1.1-3.2-1.1-6.7-2.4-9.7c-0.2-0.4-0.4-0.9-0.6-1.3
	c-0.1-0.3-0.1-0.6-0.2-0.9l-0.1,0l-0.1,0l-0.1,0l0,0l-0.1,0c0,0.1,0,0.2,0.1,0.3c0.2,0.5,0.4,0.9,0.6,1.3c1.4,3.1,1.4,6.6,2.5,9.7
	C1098.4,199.9,1098.5,200,1098.7,200.1c-0.1,0,0,0.1,0.1,0.1C1098.7,200.2,1098.7,200.2,1098.7,200.1L1098.7,200.1z"/>
<path class="st33" d="M1109.7,201.9c-0.5,0.6-1,1.3-1.3,2c-0.1,0.1-0.1,0.2-0.1,0.3c-1.5,3.4-1.9,8.1-1.9,8.1s-0.9-0.4-2.2-1
	c-2.4-1.2-6.1-3.2-7.6-4.8c-0.7-0.7-0.9-1.3-0.4-1.8c0.1-0.1,0.2-0.2,0.4-0.3c0.4-0.4,0.8-0.9,1.2-1.4c0.5-0.7,1-1.4,1.4-2.2
	c0.3-0.4,0.5-0.9,0.7-1.3l0.1-0.2c1-1.9,1.7-3.5,1.7-3.5s0.3,0.1,0.9,0.3C1105.1,196.9,1111.9,199.6,1109.7,201.9z"/>
<path class="st33" d="M1155,279.7c0,0,0.4,3.1,0.9,6.2l-1.2-0.1c-3.1-0.2-6.3-0.4-9.4-0.6c-1.8-4.2-3.6-9.2-3.6-9.3
	c0-0.1-0.1-1.7-0.1-3.6c0-0.6,0-1.3-0.1-1.9l0,0c0-0.9-0.1-1.8-0.1-2.3c0-0.4,0-0.6,0-0.6s-1.7,0.3-3.2,0.5l-0.7,0.1
	c-0.4,0-0.7,0.1-0.9,0.1c-0.2,0-0.5,0-0.7,0c-0.5-0.2,0.6-5.4,0.6-5.4l2.7-6.7l0.8-1.8l0.3-0.1c0.2,0,0.4-0.1,0.6-0.1
	c2.6-0.5,9.4-1.1,10.6,5.8c1.5,8.5,1.7,10.4,1.7,10.4L1155,279.7z"/>
<path class="st33" d="M1157.6,293.4h-0.8l0,0H1157.6L1157.6,293.4z"/>
<path class="st34" d="M1155,279.7c0,0,0.4,3.1,0.9,6.2l-1.2-0.1c-3.1-0.2-6.3-0.4-9.4-0.6c-1.8-4.2-3.6-9.2-3.6-9.3
	c0-0.1-0.1-1.7-0.1-3.6c0-0.6,0-1.3-0.1-1.9l0,0c0-0.9-0.1-1.8-0.1-2.3c0-0.4,0-0.6,0-0.6s-1.7,0.3-3.2,0.5l-0.7,0.1
	c-0.4,0-0.7,0.1-0.9,0.1c-0.2,0-0.5,0-0.7,0c-0.5-0.2,0.6-5.4,0.6-5.4l2.7-6.7l0.8-1.8l0.3-0.1c0.2,0,0.4-0.1,0.6-0.1
	c2.6-0.5,9.4-1.1,10.6,5.8c1.5,8.5,1.7,10.4,1.7,10.4L1155,279.7z"/>
<path class="st34" d="M1157.6,293.4h-0.8l0,0H1157.6L1157.6,293.4z"/>
<path class="st33" d="M1154.7,285.9c-3.1-0.2-6.3-0.4-9.4-0.6l-1.2-0.1l-0.5,0c-1.5-3.6-2.8-7.2-2.8-7.3c0-0.1-0.1-1.7-0.1-3.6
	c-0.1-2.3-0.2-4.8-0.2-4.8l-0.2,0h-0.1h0h-0.1l-0.5,0.1l-0.3,0c-0.5,0.1-1.2,0.2-1.8,0.3l-0.1,0l-0.4,0l-0.3,0l0,0
	c-0.3,0-0.5,0.1-0.7,0.1l-0.3,0c-0.2,0-0.5,0-0.7,0c-0.5-0.2,0.6-5.4,0.6-5.4l3.4-8.5l0.1,0c0.2,0,0.6-0.1,1.1-0.2
	c0.2,0,0.4-0.1,0.6-0.1c3-0.4,8.7-0.3,9.7,5.9c1.5,8.5,1.7,10.4,1.7,10.4l1.9,9.3C1154.1,281.6,1154.3,283.5,1154.7,285.9z"/>
<path class="st4" d="M1140.7,274.3c-0.1-2.3-0.2-4.8-0.2-4.8s-3.3,0.6-4.9,0.7l0.3-1.1c0,0,5.6-1.6,5.8-0.7
	C1141.8,269.1,1141.1,272.4,1140.7,274.3z"/>
<path class="st4" d="M1140.8,254.2v2.4c0,0-0.3,4.4-2.5,11.1c0,0.1-0.1,0.3-0.2,0.4c-0.2,0.6-0.5,1.3-0.8,1.9
	c-0.6,0.1-1.2,0.2-1.7,0.2c-0.2,0-0.5,0-0.7,0c-0.5-0.2,0.6-5.4,0.6-5.4l3.4-8.5l0.1,0l0.8-1.8
	C1139.8,254.5,1140.2,254.4,1140.8,254.2z"/>
<path class="st35" d="M1140.1,253.8v2.8c0,0-0.3,4.4-2.5,11.1c-0.1,0.2-0.1,0.3-0.2,0.5c0,0.2-0.1,0.4-0.2,0.6
	c-0.2,0.4-0.4,0.9-0.6,1.3l0,0c-1.7,3.3-4.4,5.7-6,7c-0.2,0.2-0.5,0.4-0.7,0.5l0,0c-0.3,0.2-0.6,0.4-0.7,0.5
	c-0.2,0.1-0.2,0.1-0.2,0.1c-1.6-1-6-1.1-6-1.1l-10.4,1.9c-2.3,0.4-4.6,0.7-6.9,0.8l-1.2,0.1c-0.7,0-1.4,0-2.1,0c-0.6,0-1.2,0-1.8,0
	l0,0c-1.9,0-3.9-0.2-5.8-0.6c-1.1-0.2-2.1-0.4-3.1-0.7c-0.7-0.2-1.5-0.5-2.2-0.7c-7.3-2.9-5.4-9.8-4.2-12.8c0.1-0.2,0.1-0.3,0.2-0.4
	c0.3-0.6,0.5-1,0.5-1l0.5-1.2l0,0l0.8-1.9l0.2-0.4l0.1-0.1l0.6-1.4l8.3-1.1l6.1-0.8l1.8-0.2l1.3-0.2l2.4-0.3l0.9-0.1
	c0.6-0.1,1.1-0.1,1.7-0.1c0.3,0,0.6,0,0.9,0.1c0.7,0.3,5.7-0.5,5.7-0.5s3.9-1.2,7.4-0.8c1.7,0.1,3.4,0.1,5.1,0l0,0l0.4,0l0.6,0h0.1
	C1135.2,254.3,1140.1,253.8,1140.1,253.8z"/>
<path class="st4" d="M1110.4,262.3c0,0-4,9.2-4.1,9.3c-0.2,0.2-0.2,3,0,2.9c0.2-0.2,5.6-12.6,5.6-12.6L1110.4,262.3z"/>
<path class="st4" d="M1129.6,254.5c0,0-2,1.3-2.6,2.4c-0.6,1.1-6.1,11.6-7.5,13.2c-1.1,1.4-2.1,2.9-3,4.4c-0.2,0.3-0.2,2,0.8,0.4
	c1-1.6,0.7-1.9,2.6-4s4-6.8,4.8-7.7c0.8-0.9,1.9-3.8,3.3-5.4l2.7-3.2L1129.6,254.5z"/>
<path class="st4" d="M1130.1,272.7c0,0-1.4-1-2.7,0.7C1126.1,275,1130.1,272.7,1130.1,272.7z"/>
<path class="st4" d="M1131.8,273.2c0,0-1.2,2-1.7,2.2C1129.6,275.5,1131.8,273.2,1131.8,273.2z"/>
<path class="st4" d="M1130.1,273.7c0,0-0.9,1.6-1.7,1.5L1130.1,273.7z"/>
<path class="st33" d="M1123.6,229.6c0,0,8.5-0.4,9.3-0.6c0.9-0.3,8.3-1.3,8.3-1.3s22.1,1.6,15.8,3.5c-6.3,1.9-14.8,1.1-14.8,1.1
	s-8.3,2.2-9.6,3.4c-1.3,1.1-10.7,1.2-10.7,1.2L1123.6,229.6z"/>
<path class="st34" d="M1123.6,229.6c0,0,8.5-0.4,9.3-0.6c0.9-0.3,8.3-1.3,8.3-1.3s22.1,1.6,15.8,3.5c-6.3,1.9-14.8,1.1-14.8,1.1
	s-8.3,2.2-9.6,3.4c-1.3,1.1-10.7,1.2-10.7,1.2L1123.6,229.6z"/>
<path class="st18" d="M1093.4,209.9c0,0-7.8,2.7-4,9.5s8.6,10.1,8.6,10.1l12.5,8.8c0,0,5.3,3.1,7.7,1.8l3.9-0.3l0.7-10.5
	c0,0-3.3,2.6-6.9-1s-8-6.1-8.4-8C1107.1,218.3,1097.9,208.2,1093.4,209.9z"/>
<path class="st21" d="M1118,232.1c0,0,4.1,1.5,3.9,1.5c-0.2,0.1-3.9,1.5-3.9,1.5l0.3,5.6l5.5-0.3c0,0,2-10.2,0.3-11.2l-6-0.3
	L1118,232.1z"/>
<path class="st4" d="M1118,232.1c0,0,4.1,1.5,3.9,1.5c-0.2,0.1-3.9,1.5-3.9,1.5l0.3,5.6l5.5-0.3c0,0,2-10.2,0.3-11.2l-6-0.3
	L1118,232.1z"/>
<path class="st4" d="M1109.7,201.9c-0.5,0.6-1,1.3-1.3,2c-0.1,0.1-0.1,0.2-0.1,0.3c-2.9,0-5.1-2.3-6.9-4.4c-0.3-0.4-1.2,0.2-1.5-0.2
	c0,0-0.1-0.1-0.1-0.2l0.1-0.2c1-1.9,1.7-3.5,1.7-3.5s0.3,0.1,0.9,0.3C1105.1,196.9,1111.9,199.6,1109.7,201.9z"/>
<path class="st33" d="M1118.3,193.8c0,5.5-4.4,10-9.8,10.1h-0.1c-2.8,0-5.6-1.2-7.5-3.4c-0.3-0.4-0.6-0.8-0.9-1.2
	c-3-4.7-1.6-11,3-14s10.8-1.6,13.7,3.1C1117.8,190,1118.3,191.8,1118.3,193.8z"/>
<path class="st4" d="M1108.2,256.5c0,0-0.8,0.9-1.6,1.8c-0.6,0.7-1.3,1.3-1.8,1.4c-1,0.4-5.5,3.9-5.5,3.9s-3.6,2.5-4.5,3.2
	c-0.9,0.7-4.3,0.3-4.3,0.3s-3.2-0.7-5.2-2c0.2-0.5,0.4-0.9,0.7-1.4l2.1-5.1l8.3-1.1L1108.2,256.5z"/>
<path class="st21" d="M1108.1,255.9c0,0-0.8,0.9-1.6,1.8c-0.6,0.7-1.3,1.3-1.8,1.4c-1,0.4-5.5,3.9-5.5,3.9s-3.6,2.5-4.5,3.2
	c-0.9,0.7-4.3,0.3-4.3,0.3s-4.6-1-6.2-2.9c-1.1-1.3,0-3.7,0.8-5c0.3-0.6,0.6-0.9,0.6-0.9L1108.1,255.9z"/>
<path class="st21" d="M1114,224.3c-2.7-0.2-11.7-11.4-11.7-11.4l0.2-0.3l1.9-2.7h4.4l0.5,2.5c3.3,4.8,5.3,8.1,5.8,10
	C1115.5,223.7,1115.2,224.4,1114,224.3z"/>
<path class="st4" d="M1114,224.3c-2.7-0.2-11.7-11.4-11.7-11.4l0.2-0.3c1.6,1.5,3.1,3.1,4.5,4.8c6.6,7.9,7.9,5.7,8.1,5
	C1115.5,223.7,1115.2,224.4,1114,224.3z"/>
<path class="st4" d="M1108.1,255.9c0,0-0.8,0.9-1.6,1.8c-0.4,0.2-0.9,0.3-1.4,0.3c-1.1,0-3.4,1.6-3.4,1.6s-4.3-0.2-5.1,0.2
	c-0.8,0.4-3.9,0.5-3.9,0.5c-5.6,1.6-7.2-0.8-7.6-1.7c0.3-0.6,0.6-0.9,0.6-0.9L1108.1,255.9z"/>
<path class="st36" d="M1117.9,231.6c0,0.2,0,0.3-0.1,0.5c0,0.2,0,0.3-0.1,0.4c-0.1,0.8-0.4,1.6-0.7,2.4c-0.7,1.2-2.9,6-2.9,6
	l-0.2,0.9l-0.1,0.5l-0.1,0.4l-0.5,3.2l-0.2,3.7c0,0-1.3,1.9-1.9,2.7c-0.6,0.8-0.5,2-0.3,2.9c0.2,0.8-1.8,1-1.8,1s-2.9,1.4-3.9,1.4
	c-1.1,0-3.4,1.6-3.4,1.6s-4.3-0.2-5.1,0.2c-0.8,0.4-3.9,0.5-3.9,0.5c-6,1.7-7.4-1.2-7.7-1.8c-0.3-0.6,1.2-3.1,1.2-3.1s0.3-3.1,1-3.4
	c0.6-0.3,1.4-4.4,1.4-4.4s-0.2-1.3,0.3-1.9c0.5-0.7,0.5-2.7,1.2-3.6s-0.7-4.1-0.5-4.9s-0.8-4.1-0.7-5c0.1-0.8-0.2-1.5-0.8-3.3
	c-0.6-1.4-0.4-8-0.3-9.8c0-0.3,0-0.5,0-0.5s0.6-1.8,2-5.5c1.1-2.8,3.6-3.8,4.8-4.2c0.2-0.1,0.4-0.1,0.6-0.2c0.3,0,0.6,0.1,0.9,0.2
	c1.2,0.4,3.5,1.5,6.8,4.7c1.5,1.4,2.9,2.9,4.2,4.5c7.5,9,8.1,4.8,8.1,4.8s0.3,0.8,1.9,3.8C1117.9,227.9,1118,229.9,1117.9,231.6z"/>
<path class="st4" d="M1105.5,209.4l-7.5-6.1c0,0-2.7,0.3-3.8,5l7.8,6.9L1105.5,209.4z"/>
<path class="st21" d="M1105.5,209.4l-1.3,1.9l-1.4,1.9l-1,1.5l-6.2-5.3l-1.1-0.9l-0.6-0.5c0.6-2.5,1.7-3.8,2.5-4.4
	c0.4-0.3,0.8-0.5,1.3-0.6L1105.5,209.4z"/>
<path class="st33" d="M1157.4,233.6c-6.3,1.9-14.8,1.1-14.8,1.1s-8.3,2.2-9.6,3.4c-0.8,0.7-5.1,1-7.9,1.1c-1.6,0.1-2.8,0.1-2.8,0.1
	l1.8-7.2l1,0c2.3-0.1,7.7-0.4,8.3-0.6c0.8-0.3,8.3-1.3,8.3-1.3S1163.7,231.7,1157.4,233.6z"/>
<path class="st4" d="M1117.8,232.4c-0.1,0.8-0.4,1.6-0.7,2.4c-0.7,1.2-2.9,6-2.9,6l-0.3,1.8c-1-0.4-2-0.8-3-1.4l-12.5-8.8
	c0,0-4.9-3.2-8.6-10.1c-3.8-6.9,4-9.5,4-9.5c4.5-1.7,13.7,8.4,14.1,10.3c0.4,1.9,4.8,4.4,8.4,8
	C1116.6,231.7,1117.2,232.1,1117.8,232.4z"/>
<path class="st37" d="M1123.1,231.7l-0.6,10.5l-3.9,0.3c-0.1,0-0.2,0.1-0.3,0.1c-2.5,0.9-7.4-1.9-7.4-1.9l-12.5-8.8
	c0,0-4.9-3.2-8.6-10.1c-3.8-6.9,4-9.5,4-9.5c4.5-1.7,13.7,8.4,14.1,10.3c0.4,1.9,4.8,4.4,8.4,8c0.5,0.5,1.1,1,1.8,1.3
	C1119.6,232.9,1121.6,232.8,1123.1,231.7z"/>
<path class="st4" d="M1123.1,231.7l-0.6,10.5l-3.9,0.3c-0.1,0-0.2,0.1-0.3,0.1l-0.3-5.1c0,0,3.7-1.4,3.9-1.5
	c0.2-0.1-3.9-1.5-3.9-1.5v-2.4C1119.6,233,1121.6,232.8,1123.1,231.7z"/>
<path class="st4" d="M1125,239.2c-1.6,0.1-2.8,0.1-2.8,0.1l1.8-7.2l1,0C1125.6,233.1,1125.3,236.5,1125,239.2z"/>
<path class="st21" d="M1118.3,234.5c0,0,4.1,1.5,3.9,1.5s-3.9,1.5-3.9,1.5l0.3,5.6l5.5-0.3c0,0,2-10.2,0.3-11.2l-6-0.3L1118.3,234.5
	z"/>
<path class="st4" d="M1094.3,241.2c0,0-1.4,1.3-2.5,1.6L1094.3,241.2z"/>
<path class="st4" d="M1091,245.1c0,0,3.3-0.1,3.7-0.8S1091,245.1,1091,245.1z"/>
<path class="st4" d="M1089.4,249.9c0.2,0,4.2-0.6,4.4-1.1L1089.4,249.9z"/>
<path class="st4" d="M1088.1,253c1.5,0,3.9-1.6,3.9-1.6L1088.1,253z"/>
<path class="st4" d="M1097.5,253.8c0,0,8.7,0,9.1-1.6C1107,250.6,1097.5,253.8,1097.5,253.8z"/>
<path class="st4" d="M1104,231c0.2,0,6.9,0,7.5-0.9C1112.2,229.2,1104,231,1104,231z"/>
<path class="st4" d="M1096.6,204.4c0.1,0.3,0.1,0.7,0.1,1c0,0.4,0,0.7-0.1,1.1c-0.1,0.7-0.3,1.4-0.6,2l-0.1,0.2
	c-0.1,0.2-0.2,0.5-0.3,0.7c-0.5,1-1.1,2-1.7,2.9c-1.5,2-3.2,3.9-5.2,5.5c-0.3,0.3-0.7,0.6-1,0.8c0-0.3,0-0.5,0-0.5s0.6-1.8,2-5.5
	c1.1-2.8,3.6-3.8,4.8-4.2l-0.6-0.5c0.6-2.5,1.7-3.8,2.5-4.4C1096.5,203.8,1096.6,204.1,1096.6,204.4z"/>
<path class="st4" d="M1116.9,188.5c-0.1,0-0.2,0.1-0.3,0.1c-0.6,0.3-0.8,1.2-1.3,1.7c-0.6,0.6-1.5,0.7-2.3,0.8
	c-0.8,0.1-1.8,0.3-2.2,1c-0.3,0.5-0.3,1.2-0.4,1.9c0,0.1-0.1,0.2-0.1,0.3c-0.1,0.1-0.3,0.1-0.4,0.1c-1.7,0.1-2.8-0.5-4.4-0.9
	c-0.7-0.2-1.6-0.2-2.1,0.3c-0.5,0.5-0.6,1.2-0.6,1.9v0.1c0.1,0.7,0.1,1.3,0.1,2c-0.2,1-0.8,2-1.7,2.5c-0.4,0.2-0.8,0.3-1.3,0.4
	c-0.2,0-0.3,0-0.5-0.1c0.3-0.5,0.6-1,0.8-1.5c-3-4.7-1.7-11,2.9-14c4.6-3,10.8-1.7,13.7,3C1116.8,188.3,1116.8,188.4,1116.9,188.5
	L1116.9,188.5z"/>
<path class="st38" d="M1119.6,187.2c-0.1,0.3-0.3,0.5-0.6,0.7c-0.8,0.5-1.8,0-2.6,0.4c-0.6,0.3-0.8,1.2-1.3,1.7
	c-0.6,0.6-1.5,0.7-2.3,0.8c-0.8,0.1-1.8,0.3-2.2,1c-0.3,0.5-0.3,1.2-0.4,1.9c0,0.1-0.1,0.2-0.1,0.3c-0.1,0.1-0.3,0.1-0.4,0.1
	c-1.7,0.1-2.8-0.5-4.4-0.9c-0.7-0.2-1.6-0.2-2.1,0.3s-0.6,1.2-0.6,1.9c0.1,0.7,0.1,1.4,0.1,2.1c-0.2,1.5-1.5,2.7-3,2.8
	c-0.2,0-0.4,0-0.6-0.2c-0.1-0.1-0.2-0.2-0.2-0.4c-1.1-3.2-1.1-6.7-2.4-9.7c-0.2-0.4-0.4-0.9-0.6-1.3c0-0.1-0.1-0.2-0.1-0.3
	c0-0.2-0.1-0.4-0.1-0.6c-0.1,0-0.3,0.1-0.4,0.2c0,0-0.1,0.1-0.1,0.1c-0.2,0.3-0.3,0.7-0.3,1.1c-0.2,4.2,0.2,8.4,1.2,12.5
	c0.3,1,0.5,2.1,0.6,3.1c0,1.1-0.3,2.3-0.8,3.3c-2.1,4.9-6.2,8.4-10.4,11.6c0.9-0.9,1.3-2.2,1.2-3.5c-0.1,0.5-0.6,0.9-1.1,0.9
	c-0.5,0.1-1,0.1-1.5,0c0.6-0.2,0.9-1,1.1-1.6c0.3-1.3,0.6-2.7,0.9-4.1c0.3-1.3,0.5-2.6,0.6-4c0.1-1.1,0-2.3-0.1-3.4
	c-0.1-3.1,0-6.2,0.3-9.4c0.2-2.7,0.7-5.6,2.6-7.4c0.8-0.7,1.8-1.3,2.8-1.7c0-0.3,2.4-1,2.7-1c0.1,0,0.3,0,0.4,0
	c0.4-0.1,0.7,0.1,0.9,0.5c0.1-0.2,0.3-0.4,0.4-0.6c0.2-0.3,0.4-0.5,0.6-0.8c1.3-1.4,2.9-2.4,4.4-3.6c0.5-0.5,1.1-0.9,1.7-1.3
	c0.8-0.4,1.7-0.6,2.6-0.7c1.5-0.1,3,0.2,4.4,0.7c2,0.8,3.8,2.2,5.8,2.8c0.5,0.1,1,0.3,1.5,0.4c1.9,0.8,2.8,2.9,2,4.8
	C1119.7,187,1119.7,187.1,1119.6,187.2L1119.6,187.2z"/>
<g class="st27">
	<path d="M1086.2,217.3c0.2-0.6,0.3-1.3,0.3-2c-0.1,0.5-0.6,0.9-1.1,0.9c-0.1,0-0.3,0-0.4,0.1c-0.2,0.5-0.4,1-0.9,1.2
		c0.5,0.1,1,0.1,1.5,0C1085.8,217.6,1086,217.5,1086.2,217.3z"/>
	<path d="M1119.8,184.6c0,0.5-0.2,1-0.4,1.5c-0.1,0.3-0.3,0.5-0.6,0.7c-0.8,0.5-1.8,0-2.6,0.4c-0.6,0.3-0.8,1.2-1.3,1.7
		c-0.6,0.6-1.5,0.7-2.3,0.8c-0.8,0.1-1.8,0.3-2.2,1c-0.3,0.5-0.3,1.2-0.4,1.9c0,0.3-0.2,0.5-0.5,0.4c0,0,0,0-0.1,0
		c-1.7,0.1-2.8-0.5-4.4-0.9c-0.7-0.2-1.6-0.2-2.1,0.3c-0.5,0.5-0.6,1.2-0.6,1.9c0.1,0.7,0.1,1.4,0.1,2c-0.2,1.5-1.5,2.7-3,2.8
		c-0.2,0-0.4,0-0.6-0.2c-0.1-0.1-0.2-0.2-0.2-0.4c-1.1-3.2-1.1-6.7-2.4-9.7c-0.2-0.4-0.4-0.9-0.6-1.3c-0.1-0.3-0.1-0.6-0.2-0.9
		c-0.2,0-0.4,0.1-0.5,0.3c-0.2,0.3-0.3,0.7-0.3,1.1c-0.2,2.7,0,5.4,0.3,8.1c-0.2-2.3-0.3-4.5-0.2-6.8c0-0.4,0.1-0.7,0.3-1.1
		c0.1-0.2,0.3-0.3,0.5-0.3c0,0.3,0.1,0.6,0.2,0.9c0.2,0.5,0.3,0.9,0.6,1.3c1.3,3.1,1.3,6.6,2.4,9.7c0,0.1,0.1,0.3,0.2,0.4
		c0.2,0.1,0.4,0.2,0.6,0.2c1.5-0.1,2.7-1.3,3-2.8c0-0.7,0-1.4-0.1-2.1c0-0.7,0.1-1.4,0.6-1.9c0.6-0.5,1.4-0.5,2.1-0.3
		c1.6,0.4,2.7,1,4.4,0.9c0.1,0,0.3,0,0.4-0.1c0.1-0.1,0.1-0.2,0.1-0.3c0.1-0.6,0.1-1.3,0.4-1.8c0.5-0.7,1.4-0.9,2.2-1
		s1.8-0.2,2.4-0.8c0.5-0.5,0.7-1.4,1.3-1.7c0.8-0.4,1.9,0.1,2.6-0.4c0.2-0.2,0.4-0.4,0.6-0.7C1120,186.5,1120.1,185.5,1119.8,184.6z
		"/>
	<path d="M1096.4,203.9c0,1.1-0.3,2.3-0.8,3.3c-1.8,4.3-5.4,7.7-9,10.6c-0.2,0.9-0.6,1.7-1.2,2.4c4.1-3.2,8.3-6.8,10.4-11.6
		c0.5-1,0.8-2.2,0.8-3.3c0-0.5-0.1-1-0.2-1.5C1096.4,203.8,1096.4,203.8,1096.4,203.9z"/>
</g>
<path class="st4" d="M1096.8,184.5c-0.3,1.4-0.7,3.2-1,4.1c0-0.2-0.1-0.4-0.1-0.6c-0.1,0-0.3,0.1-0.4,0.2c0-1,0.1-2.4,0.2-3.5
	c0.4-0.1,0.7,0.1,0.9,0.5C1096.5,185,1096.7,184.7,1096.8,184.5z"/>
<path class="st21" d="M1096.7,184.5c-0.3,1.4-0.7,3.2-1,4.1c0-0.2-0.1-0.4-0.1-0.6c-0.1,0-0.3,0.1-0.4,0.2c0-1,0.1-2.4,0.2-3.5
	c0.4-0.1,0.7,0.1,0.9,0.5C1096.4,185,1096.5,184.7,1096.7,184.5z"/>
<g class="st39">
	<path class="st40" d="M1163.9,109.1h54.7v54.1h-54.7V109.1z"/>
	<path class="st41" d="M1161.4,106.6v59.2h59.7v-59.2H1161.4z M1163.9,109.1h54.7v54.1h-54.8L1163.9,109.1z"/>
	<path class="st42" d="M1204.8,131.5c-0.5-0.2-1-0.3-1.5-0.3c-3.1,0-5.2,2.5-5.2,6.5c0,4.7,2.1,6.5,4.9,6.5c0.6,0,1.2-0.1,1.7-0.3
		L1204.8,131.5L1204.8,131.5z M1193.6,138c0-5.9,3.7-10.5,9.8-10.5c0.4,0,0.9,0,1.3,0.1v-6.6c0-0.1,0.1-0.3,0.3-0.3l0,0h4
		c0.2,0,0.3,0.1,0.3,0.2V144c0,0.8,0,1.6,0.1,2.5c0,0.2,0,0.2-0.1,0.3c-2,1-4.2,1.5-6.4,1.5C1197.5,148.2,1193.6,144.8,1193.6,138
		L1193.6,138z M1185.2,133.9l7,13.7c0.1,0.2,0.1,0.4-0.2,0.4h-4.3c-0.2,0-0.5-0.1-0.5-0.3c-1.6-3.3-3.2-6.8-4.9-10.4h-0.1
		c-1.5,3.4-3.1,7.1-4.7,10.4c-0.1,0.2-0.3,0.3-0.5,0.3h-4.1c-0.3,0-0.3-0.2-0.2-0.4l6.8-13.3l-6.5-13.2c-0.1-0.1-0.1-0.2,0-0.3
		c0,0,0.1-0.1,0.2-0.1h4.3c0.3,0,0.4,0,0.4,0.3c1.6,3.4,3.2,6.7,4.7,10.1h0.1c1.5-3.3,3-6.7,4.6-10c0.1-0.2,0.2-0.3,0.4-0.3h4
		c0.2,0,0.3,0.1,0.2,0.4L1185.2,133.9L1185.2,133.9z"/>
</g>
<g class="st39">
	<path id="_x38_8e22766-bb2e-4d8a-8c4e-873561c02ed1_1_" class="st43" d="M937.1,130.9l18.7,37.2l-31.4-37.2H937.1z"/>
	<path id="dcb2c17a-6570-4f03-a416-11c2a206e419_1_" class="st44" d="M974.5,130.9l-18.7,37.2l31.4-37.2
		C987.3,130.9,974.5,130.9,974.5,130.9z"/>
	<path id="d2c5ae9b-dccc-4d4c-8aa0-840002be2480_1_" class="st45" d="M937.1,130.9h37.4l-18.7,37.2L937.1,130.9z"/>
	<path id="_x36_16bf47a-f8e5-41ce-b525-03b6ad416eda_1_" class="st46" d="M955.8,110.3l-17.7,1.9l-1,18.7L955.8,110.3z"/>
	<path id="ca73b31d-b223-4f6c-ac2e-edd2597912ec_1_" class="st47" d="M955.8,110.3l17.7,1.9l1,18.7L955.8,110.3z"/>
	<path id="_x32_a7c7013-4804-45aa-950a-2b5376f70ef0_1_" class="st48" d="M987.2,130.9l-13.7-18.7l1,18.7H987.2z"/>
	<path id="_x35_dac32ab-c712-4de9-a97f-2e05661e9f0b_1_" class="st48" d="M924.4,130.9l13.7-18.7l-1,18.7H924.4z"/>
	<path id="_x32_d1bbfda-86f6-4da7-9bb0-15ddbbfa97e7_1_" class="st49" d="M955.8,110.3l-18.7,20.6h37.4L955.8,110.3z"/>
</g>
</svg>
