<?xml version="1.0" encoding="utf-8"?>
<!-- Generator: Adobe Illustrator 22.0.1, SVG Export Plug-In . SVG Version: 6.00 Build 0)  -->
<svg version="1.1" id="Layer_1" xmlns="http://www.w3.org/2000/svg" xmlns:xlink="http://www.w3.org/1999/xlink" x="0px" y="0px"
	 viewBox="0 0 1300 400" style="enable-background:new 0 0 1300 400;" xml:space="preserve">
<style type="text/css">
	.st0{fill:url(#SVGID_1_);stroke:#000000;stroke-width:1.6452;stroke-miterlimit:10;}
	.st1{opacity:0.1;fill:#0D8CD8;enable-background:new    ;}
	.st2{fill:#EAECF0;}
	.st3{fill:#3A3768;}
	.st4{opacity:0.1;enable-background:new    ;}
	.st5{fill:#EFC6CD;}
	.st6{fill:#D48A9B;}
	.st7{fill:#DFE6F5;}
	.st8{opacity:0.15;enable-background:new    ;}
	.st9{fill:#4C4C56;}
	.st10{fill:#D1D9EC;}
	.st11{fill:#0D8CD8;}
	.st12{fill:url(#SVGID_2_);}
	.st13{fill:url(#SVGID_3_);}
	.st14{fill:#D38884;}
	.st15{fill:#A36468;}
	.st16{fill:#444053;}
	.st17{fill:#67647E;}
	.st18{opacity:0.1;}
	.st19{fill:#D3DAE1;}
	.st20{fill:#FFFFFF;}
	.st21{fill:#D5E1F4;}
	.st22{fill:url(#SVGID_4_);}
	.st23{fill:#EFB7B9;}
	.st24{opacity:5.000000e-02;enable-background:new    ;}
	.st25{opacity:0.7;}
	.st26{fill:#2E001E;}
	.st27{fill:#FF2BC2;}
	.st28{fill:#EA6C00;}
	.st29{fill:#FDAD00;}
	.st30{fill:#FDD231;}
	.st31{fill:#FEEEB7;}
</style>
<linearGradient id="SVGID_1_" gradientUnits="userSpaceOnUse" x1="9.094947e-13" y1="200" x2="195.3958" y2="200" gradientTransform="matrix(-6.6532 0 0 1 1300 0)">
	<stop  offset="0" style="stop-color:#007194"/>
	<stop  offset="1" style="stop-color:#41C1C9"/>
</linearGradient>
<rect class="st0" width="1300" height="400"/>
<path class="st1" d="M69.1,289.2c1.7,3.7,4.2,6.9,7.1,9.4c0.4,0.4,0.9,0.7,1.3,1.1c0.6,0.5,1.2,0.9,1.8,1.3
	c4.8,3.4,10.4,5.7,15.9,7.3c1.5,0.5,3,0.9,4.5,1.3c1.3,0.3,2.5,0.7,3.8,0.9c0.5,0.1,1,0.2,1.4,0.3c0.5,0.1,1,0.2,1.5,0.3l0.7,0.2
	c14.2,2.9,28.5,3.4,43,2.7h0.7l1.1-0.1c2.9-0.2,5.9-0.4,8.8-0.6l1.1-0.1h0.5c1.6-0.2,3.3-0.3,4.9-0.5c2.2-0.2,4.3-0.5,6.5-0.8h0.3
	h0.2l0,0c7.8-1,15.6-2.1,23.4-3.3l1.1-0.2l2-0.3l1.7-0.3l0,0l0.5-0.1c2.6-0.4,5.3-0.8,7.9-1.2l0.4-0.1c4.9-0.7,9.9-1.5,14.9-2.1
	l0.6-0.1l0,0c2-0.3,4.1-0.5,6.1-0.8l1.5-0.2l2.1-0.2c5.7-0.6,11.4-1.1,17.1-1.4c2.7-0.2,5.5-0.3,8.2-0.3c2.3-0.1,4.5-0.1,6.8-0.1
	c3.1,0,6.2,0,9.2,0.1l0,0h0.7c4.4,0.1,8.7,0.2,13.1,0.4h0.8h0.3c9.3,0.4,18.6,0.8,27.8,1.2l2.3,0.1h0.3c3.2,0.1,6.4,0.2,9.6,0.3h0.9
	l0,0h1h1.4c1.5,0,3,0,4.5,0h1.8c5.4,0,10.9-0.2,16.3-0.5h0.6c10.5-0.6,20.8-1.9,31-4.3c1.1-0.2,2.1-0.5,3.2-0.8
	c7-1.7,13.9-4.1,20.7-6.9c3.2-1.4,6.4-2.9,8.8-5.6c6.1-6.8,3.8-20.2-4.1-24.1c-6.2-3-13.5-0.6-20.2-1.9c-0.4-0.1-0.8-0.2-1.2-0.3
	c-0.9-0.3-1.7-0.7-2.5-1.1c-0.3-0.2-0.5-0.3-0.8-0.5c-0.6-0.4-1.2-0.8-1.8-1.2c-1-0.7-1.9-1.5-2.8-2.3c-0.4-0.4-0.8-0.8-1.1-1.1
	c-1.3-1.3-2.4-2.8-3.4-4.5c-0.3-0.6-0.7-1.3-0.9-1.9c-0.1-0.3-0.3-0.7-0.4-1.1c-0.2-0.5-0.3-1-0.4-1.6c-0.4-2.5,0.2-5,2.4-7.1
	c0.2-0.2,0.4-0.4,0.6-0.5c0.4-0.3,0.9-0.6,1.3-0.9c0.2-0.1,0.4-0.2,0.6-0.3c2.8-1.3,6.5-1.8,9.5-2.7l0,0c0.9-0.3,1.9-0.6,2.7-1
	c0.6-0.3,1.1-0.6,1.7-0.9l0,0l0.1-0.1l0,0c4.7-2.7,8.8-6.4,12.1-10.9c0.8-1.1,1.6-2.4,2.2-3.6c0.2-0.4,0.4-0.8,0.6-1.1
	c5.4-10.8,6-24.7,0.3-35.3c-0.7-1.3-1.5-2.5-2.3-3.7c-0.3-0.4-0.6-0.8-0.8-1.1c-5.4-7-13.1-11.8-20.9-15.3
	c-10.5-4.7-21.5-7.7-32.6-9.7c-2.3-0.4-4.5-0.8-6.8-1.1c-9.5-1.3-19.1-2-28.6-2.6c-8.9-0.5-17.9-0.8-26.9-1c-3,0-6.1-0.1-9.2-0.1
	c-6.9,0-13.8,0.1-20.7,0.4c-2.3,0.1-4.5,0.2-6.8,0.3c-5.8,0.3-11.6,0.8-17.4,1.4c-2.8,0.3-5.6,0.6-8.3,0.9
	c-21.1,2.5-41.9,6.9-62,13.6c-2.3,0.8-4.5,1.6-6.8,2.4c-8.4,3.1-16.7,6.6-24.9,10.6c-0.8,0.4-1.5,0.8-2.3,1.1
	c-5.1,2.6-10.1,5.3-15,8.3c-6.5,3.9-12.8,8.2-18.7,13c-2.3,1.9-4.6,3.9-6.8,5.9c-3.9,3.6-7.5,7.6-10.9,11.8
	c-0.3,0.4-0.6,0.8-0.9,1.1c-1.5,2-2.9,4.1-4.3,6.2c-6.6,10.5-11.1,22.5-14.3,34.8C66.4,267.2,64.5,279.2,69.1,289.2z"/>
<path class="st1" d="M73.2,252.6h26.4v-37.1H87.8c0.3-0.4,0.6-0.8,0.9-1.1h10.9v-11.8c2.2-2,4.5-4,6.8-5.9v17.8h60.9v-39h-27.2
	c0.8-0.4,1.5-0.8,2.3-1.1h24.9v-10.6c2.3-0.8,4.5-1.6,6.8-2.4v13H261l0.2-0.2l-25.1-26.4c2.8-0.3,5.5-0.6,8.3-0.9l17.4,18.3v-19.6
	c2.3-0.1,4.5-0.2,6.8-0.3v21.2l20.7-21.6c3.1,0,6.1,0,9.2,0.1l-28,29.4l0.2,0.2H354v-26c2.3,0.3,4.5,0.7,6.8,1.1v24.9h53.6
	c0.3,0.4,0.6,0.8,0.8,1.1h-54.4v39h56.4c-0.2,0.4-0.4,0.8-0.6,1.1h-55.8v37.1h27.4c0.4,0.4,0.8,0.8,1.1,1.1h-28.6v38
	c-2.3,0.4-4.5,0.7-6.8,1.1V254h-85.3v47.6c-2.3,0-4.5,0-6.8,0.1V254h-87.7v58h-0.3c-2.2,0.3-4.4,0.5-6.5,0.8v-59h-60.9v57.6
	c-0.5-0.1-1-0.2-1.5-0.3c-0.5-0.1-1-0.2-1.4-0.3c-1.3-0.3-2.5-0.6-3.8-0.9V254H73.1C73.1,253.3,73.2,253,73.2,252.6z M268.7,252.6
	H354v-37.1h-85.3V252.6z M268.7,214.3H354v-39h-84.1l-1.2,1V214.3z M174.2,252.6h87.7v-37.1h-87.7V252.6z M174.2,214.3h87.7v-39
	h-87.7V214.3z M106.5,252.6h60.9v-37.1h-60.9V252.6z"/>
<path class="st2" d="M334.5,305v0.1l0,0V305L334.5,305z"/>
<path class="st2" d="M332.8,303.3h0.9l0,0h1h1.4l0.2-1.8l0.1-1.7l0.7-7.8v-0.2v-0.1l0.2-2.2l-2.9-1.2l-0.4,3.2v0.2l0,0l-0.7,6.5
	l-0.2,2l-0.1,1.2l-0.1,1l0,0L332.8,303.3z"/>
<polygon class="st3" points="322.5,305 322.4,305.1 322.7,305.1 322.7,305 "/>
<path class="st3" d="M296,305.1L296,305.1L296,305.1z"/>
<path class="st3" d="M277.7,260c0,0.1,0,0.1,0,0.1l0,0c0,0,2.7,8.1,3.6,15.1c0.1,0.5,0.1,0.9,0.1,1.4s0.1,1,0.1,1.4
	c0,0.5,0,1.1,0,1.6c0,0.1,0,0.2,0,0.3c0,0.2,0,0.5,0,0.7s0,0.5,0,0.7s0,0.5-0.1,0.7c-0.7,7.5-3.2,18.5-3.2,18.5s-0.1,0.3-0.2,0.8
	h0.7c4.4,0.1,8.7,0.2,13.1,0.4h0.8h0.3c9.3,0.4,18.6,0.8,27.8,1.2l2.3,0.1h0.3c3.2,0.1,6.4,0.2,9.6,0.3h0.9
	c-0.2-0.3-0.5-0.7-0.7-0.9c-0.2-0.2-0.5-0.5-0.8-0.6c-1.5-1-3.1-1.8-4.7-2.3c-0.4-0.1-0.7-0.2-1.1-0.1h-2.2H324l-3.3,0.1l-28.5,0.6
	h-0.1h-0.2c-0.3-0.1-0.7-0.2-1-0.4c-1.1-0.5-1.9-1.6-2-2.9c0-0.1,0-0.2,0-0.3c0-0.2,0-0.3,0-0.5c0-0.1,0-0.2,0-0.4s0-0.3,0.1-0.4
	c0.7-4.2,1.9-17.3,1.9-17.3l0,0c0,0,0-0.6,0-1.5c0-0.1,0-0.2,0-0.2V276c0-0.2,0-0.4,0-0.7c0-0.1,0-0.3,0-0.5s0-0.5-0.1-0.7l0,0
	c0-0.2,0-0.3,0-0.5s0,0,0-0.1c-0.5-5-1.9-13-6.5-16c-2.1-1.4-3.6-1.7-4.5-1.4c-1.4,0.4-1.7,2-1.8,3c0,0.1,0,0.1,0,0.2
	C277.7,259.6,277.7,259.8,277.7,260z"/>
<path class="st4" d="M334.5,305v0.1l0,0V305L334.5,305z"/>
<polygon class="st4" points="322.5,305 322.4,305.1 322.7,305.1 322.7,305 "/>
<path class="st4" d="M296,305.1L296,305.1L296,305.1z"/>
<path class="st4" d="M277.7,260c0,0.1,0,0.1,0,0.1s2.2,6.7,3.3,13.1l0,0c0.1,0.5,0.1,0.9,0.2,1.3c0,0.2,0.1,0.4,0.1,0.7
	c0.1,0.5,0.1,0.9,0.1,1.4s0.1,1,0.1,1.4c0,0.5,0,1.1,0,1.6c0,0.1,0,0.2,0,0.3c0,0.2,0,0.5,0,0.7s0,0.5,0,0.7s0,0.5-0.1,0.7
	c0,0.2,0,0.5-0.1,0.7c-0.1,1-0.2,2-0.4,3c-1,7-2.8,14.8-2.8,14.8s-0.1,0.3-0.2,0.8l0,0h0.7c4.4,0.1,8.7,0.2,13.1,0.4h0.8h0.3
	c9.3,0.4,18.6,0.8,27.8,1.2l2.3,0.1h0.3c3.2,0.1,6.4,0.2,9.6,0.3h0.9l0,0c-0.2-0.4-0.5-0.7-0.8-1c-0.2-0.2-0.5-0.5-0.8-0.7
	c-1.5-1-3.1-1.8-4.7-2.3c-0.4-0.1-0.7-0.2-1.1-0.1h-2.2h-0.3l-3.3,0.1l-28.5,0.6l0,0c0,0-0.1,0-0.2-0.1c-0.3-0.1-0.7-0.2-1-0.4
	c-1.1-0.5-1.8-1.6-2-2.8c0-0.1,0-0.2,0-0.3c0-0.2,0-0.3,0-0.5c0-0.1,0-0.2,0-0.4c0-0.1,0-0.3,0.1-0.4c0.7-4.2,1.9-17.3,1.9-17.3
	s0-0.6,0-1.5c0-0.1,0-0.2,0-0.2v-0.2c0-0.2,0-0.4,0-0.7c0-0.1,0-0.3,0-0.5s0-0.5-0.1-0.7l0,0c0-0.2,0-0.3,0-0.5s0,0,0-0.1
	c-0.1-0.6-0.1-1.3-0.2-2c-0.6-4.9-2.3-11.4-6.3-14c-2.1-1.4-3.5-1.7-4.4-1.4c-1.4,0.4-1.8,2-1.9,3c0,0.1,0,0.1,0,0.2
	C277.7,259.5,277.7,259.8,277.7,260z"/>
<path class="st3" d="M334.5,305v0.1l0,0V305L334.5,305z"/>
<polygon class="st3" points="322.5,305 322.4,305.1 322.7,305.1 322.7,305 "/>
<path class="st3" d="M296,305.1L296,305.1L296,305.1z"/>
<path class="st3" d="M278.5,259.7c0,0,4,12.2,3.8,19.5s-3.3,21-3.3,21s-0.1,0.5-0.3,1.3c4.4,0.1,8.7,0.2,13.1,0.4h0.8h0.3
	c9.3,0.4,18.6,0.8,27.8,1.2l2.3,0.1h0.3c3.2,0.1,6.4,0.2,9.6,0.3h0.9l0,0h1c-0.4-0.8-1-1.5-1.7-2l-0.1-0.1c-1.5-1-3.1-1.7-4.7-2.2
	c-0.4-0.1-0.7-0.2-1.1-0.1l-2.9,0.1H324l-3.4,0.1l-27.8,0.6c-0.4-0.1-0.8-0.2-1.1-0.4c-0.1-0.1-0.2-0.1-0.4-0.2l0,0
	c-0.3-0.2-0.7-0.5-0.9-0.8c-0.6-0.7-1-1.8-0.7-3.4c0.7-4.2,1.9-17.3,1.9-17.3s0.2-15.9-6.7-20.3c-2.8-1.8-4.3-1.7-5.2-1
	c0,0-0.1,0-0.1,0.1C278.3,257.3,278.5,259.7,278.5,259.7z"/>
<path class="st2" d="M389.5,289.6l0.1,1.3l0.7,7.8c1.1-0.2,2.1-0.5,3.2-0.8l-0.8-7.1l-0.3-2.4L389.5,289.6z"/>
<polygon class="st5" points="409.3,287 392.5,247.5 324.6,253.3 318.4,287 "/>
<polygon class="st6" points="409.3,290.5 409.3,287 318.4,287 318.4,292.1 "/>
<path class="st7" d="M383.7,281.3l-40.7,0.9c-0.3,0-0.6-0.3-0.6-0.6c0-0.1,0-0.1,0-0.2l6.3-18.9l27.4-0.6l8.1,18.3
	c0.2,0.4,0,0.8-0.3,1C383.9,281.2,383.8,281.3,383.7,281.3z"/>
<path class="st8" d="M383.7,281.3l-40.7,0.9c-0.3,0-0.6-0.3-0.6-0.6c0-0.1,0-0.1,0-0.2l6.3-18.9l27.4-0.6l8.1,18.3
	c0.2,0.4,0,0.8-0.3,1C383.9,281.2,383.8,281.3,383.7,281.3z"/>
<path class="st7" d="M384,280.5l-41.1,1l5.6-18.7c0.2-0.6,0.7-1,1.3-1.1l26.4-0.6L384,280.5z"/>
<path class="st9" d="M380.6,276.2l-4.9-12c-0.2-0.5-0.7-0.8-1.2-0.8h-12.2c-0.7,0-1.3,0.6-1.3,1.4v12.9c0,0.8,0.6,1.4,1.3,1.4
	c0,0,0,0,0.1,0l17.2-1c0.7,0,1.3-0.7,1.2-1.5C380.7,276.6,380.7,276.4,380.6,276.2z"/>
<path class="st10" d="M356.5,274.7l-0.2-6.8c0-0.6-0.4-1-0.9-1h-3.6c-0.5,0-0.8,0.4-0.9,0.9l-1.1,6.8c-0.1,0.6,0.3,1.1,0.8,1.2
	c0.1,0,0.1,0,0.2,0h4.9C356,275.8,356.5,275.3,356.5,274.7L356.5,274.7z"/>
<path class="st9" d="M404.4,230.3l-13.6-1.3c-0.4-0.1-0.8,0.2-1,0.6l-12.9,32.2l7.2,17.8c-0.2-0.6-0.4,3.8,1.2,0l20.5-47.2
	C406.1,231.9,405,230.4,404.4,230.3z"/>
<path class="st8" d="M404.4,230.3l-13.6-1.3c-0.4-0.1-0.8,0.2-1,0.6l-12.9,32.2l7.2,17.8c-0.2-0.6-0.4,3.8,1.2,0l20.5-47.2
	C406.1,231.9,405,230.4,404.4,230.3z"/>
<path class="st9" d="M404.4,230.3l-14.3-2c-0.4-0.1-0.8,0.2-1,0.6l-12.9,32.2l7.8,19.3l21.1-48.7c0.2-0.5,0-1.1-0.4-1.4
	C404.6,230.3,404.5,230.3,404.4,230.3z"/>
<path class="st11" d="M400.8,232.6l-10.4-1.8c-0.4-0.1-0.8,0.2-1,0.6l-10.9,29.3c-0.1,0.2-0.1,0.5,0,0.8l5,11.5
	c0.2,0.5,0.7,0.7,1.1,0.4c0.2-0.1,0.3-0.2,0.4-0.4l16.5-39c0.2-0.5,0-1.1-0.4-1.4C401,232.6,400.9,232.6,400.8,232.6z"/>
<linearGradient id="SVGID_2_" gradientUnits="userSpaceOnUse" x1="168.8657" y1="477.13" x2="168.8657" y2="477.13" gradientTransform="matrix(-6.6532 0 0 1 1419.4908 -172.03)">
	<stop  offset="0" style="stop-color:#808080;stop-opacity:0.25"/>
	<stop  offset="0.54" style="stop-color:#808080;stop-opacity:0.12"/>
	<stop  offset="1" style="stop-color:#808080;stop-opacity:0.1"/>
</linearGradient>
<path class="st12" d="M296,305.1L296,305.1L296,305.1z"/>
<linearGradient id="SVGID_3_" gradientUnits="userSpaceOnUse" x1="157.1258" y1="427.0283" x2="169.7374" y2="427.0283" gradientTransform="matrix(-6.6532 0 0 1 1419.4908 -172.03)">
	<stop  offset="0" style="stop-color:#808080;stop-opacity:0.25"/>
	<stop  offset="0.54" style="stop-color:#808080;stop-opacity:0.12"/>
	<stop  offset="1" style="stop-color:#808080;stop-opacity:0.1"/>
</linearGradient>
<path class="st13" d="M290.2,298.6c0,0,0.2,0.4,0.5,1v0.1c0.3,0.5,0.6,1.3,1,2h0.8h0.3c9.3,0.4,18.6,0.8,27.8,1.2l2.3,0.1h0.3
	c3.2,0.1,6.4,0.2,9.6,0.3h0.9l0,0h1h1.4c1.5,0,3,0,4.5,0h1.8c5.4,0,10.9-0.2,16.3-0.5h0.6c-1.1-2.5-3-6.7-4.5-8.1
	c-1.2-1-9.7-2.2-17.6-3l-0.8-0.1l0,0l-2.2-0.2c-3-0.3-5.7-0.5-7.7-0.7h-0.2l1-3.8l1.5-5.5l-0.4-4.6v-0.4l0,0c0.4,0,0.8,0,1.2-0.2
	l14.7-0.6h0.3l0,0l5.6-0.2l0,0c3-0.1,5.2-0.2,5.3-0.2s0.2,0,0.3-0.1s0.3-0.1,0.4-0.2c0.1-0.1,0.2-0.3,0.3-0.4h0.1h0.1l0.8,0.1h0.4
	v-0.1c0-0.1,0.1-0.3,0.1-0.4h0.2l2.8-0.1l0,0c0,0,7.2,0.6,10.9-0.9l0,0c1.4-0.6,2.3-1.4,2.2-2.6c0-0.3-0.1-0.6-0.2-0.8
	c1.2-2.5-4.7-7-9.2-5.8c-1.2,0.4-2.5,0.4-3.7,0.2c-0.7-0.2-1.3-0.5-1.9-0.9c-0.1,0-0.1-0.1-0.2-0.1c0.1-0.1,0.2-0.1,0.2-0.1
	c0.3-0.2,0.6-0.3,1-0.4l-1.2-0.4l0,0c0,0-4.3-0.4-7.1-0.6l0,0c-0.8,0-1.5-0.1-2-0.1c-1.9,0.1-5.5-1.4-5.6-1.9s-1.8,0-1.8,0L341,259
	c-1.4-0.6-2.3-1.5-2.3-2.1s-1.3-1.3-1.3-1.3c-0.6-1.1-1.7-2.2-2.9-3.3c-1-0.9-2.1-1.7-2.9-2.2c-0.3-2.2-0.7-4.4-1.2-6.6
	c-0.5-2-2.2-3.5-2.9-4l-0.2-0.2c0.2-0.9,0.4-1.7,0.7-2.5c0-0.1,0-0.1,0.1-0.2c0.1-0.2,0.1-0.3,0.2-0.5l0.1-0.2
	c0.2,0,0.3,0.1,0.5,0.1c0.5,0.1,1,0.1,1.5,0.1c4.8,0,9-3.5,10.3-8.5l0,0c0.2-1,0.4-2,0.4-3.1c0-1-0.1-2-0.4-3l0,0
	c0-0.2-0.1-0.4-0.2-0.6c0,0,0,0,0-0.1s-0.1-0.2-0.1-0.3c0.5,0.1,0.9,0.1,1.4,0.1h0.3c0.9,0,1.8-0.1,2.6-0.5l0,0
	c0.2-0.1,0.4-0.2,0.6-0.3l0,0c0.2-0.2,0.4-0.3,0.6-0.6c-0.7-0.6-1.1-1.5-1.3-2.4c-0.1-0.7,0-1.6-0.4-2.2c-0.2-0.3-0.4-0.5-0.7-0.7
	c-1.6-1.2-3-2.9-4.4-4.4c-1.5-1.5-3.3-2.7-5.3-2.8c-2.7-0.1-5,2-7.7,2.4c-0.8,0.1-1.7,0.1-2.5,0.3c-0.9,0.3-1.7,0.8-2.5,1.4
	c-0.7,0.4-1.3,1-1.8,1.7c-0.3,0.6-0.6,1.2-0.7,1.9c-0.3,1.4-0.6,2.9-0.6,4.4c-0.1,1.5,0,3.1-0.1,4.6c-0.1,1.3-0.5,2.6-1.2,3.7l0,0
	c-0.1,0.2-0.2,0.4-0.4,0.5c0.3,0.1,0.5,0.2,0.8,0.2c0.4,0.1,0.9,0.2,1.4,0.3c0.2,0,0.4,0.1,0.6,0.1c0.1,0,0.3,0,0.4,0l-0.3,0.2
	l-0.8,0.6l0,0l-0.3,0.2l-0.6,0.4c-0.1-0.4-0.3-0.5-0.5-0.5c-0.4-0.4-1,0.5-1,0.5c-0.4,0.8-1.4,1.6-2.2,2.1c-0.5,0.3-1,0.6-1.6,0.9
	c-11.6,7.6-10.8,19-11.5,19.9s-0.7,4.2-0.7,4.2s-1.7,11.1-2.5,12.1s0,1.3-0.7,2.4s-0.5,3.9-0.5,3.9s-0.5,6.8-2.1,8.2
	c-1.5,1.3-3.5,12.4-3.9,14.6L290.2,298.6z"/>
<path class="st14" d="M358,263c0,0,1.6,2.8,6.2,1.5s10.6,3.6,8.8,6c-1.7,2.4-12.8-0.7-12.8-0.7l-4.2-0.9l0.3-3.9L358,263z"/>
<path class="st4" d="M358,263c0,0,1.6,2.8,6.2,1.5s10.6,3.6,8.8,6c-1.7,2.4-12.8-0.7-12.8-0.7l-4.2-0.9l0.3-3.9L358,263z"/>
<path class="st15" d="M356.5,262.9l2-0.1l1.2,0.4c0,0-3.8,0.6-2.8,6.4l-4.1-0.3L356.5,262.9z"/>
<path class="st4" d="M356.5,262.9l2-0.1l1.2,0.4c0,0-3.8,0.6-2.8,6.4l-4.1-0.3L356.5,262.9z"/>
<path class="st16" d="M330.4,250c0,0,5.4,3.4,6.9,6.3c0,0,1.3,0.7,1.3,1.3s0.8,1.4,2.2,2l1.4,0.6c0,0,1.6-0.4,1.8,0s3.7,1.9,5.5,1.8
	s8.9,0.7,8.9,0.7c-2.7,1.3-4.2,4.6-3.6,7.8l-16.8-0.8l-6.4-1.6l-3.7-4.1L330.4,250z"/>
<path class="st4" d="M330.4,250c0,0,5.4,3.4,6.9,6.3c0,0,1.3,0.7,1.3,1.3s0.8,1.4,2.2,2l1.4,0.6c0,0,1.6-0.4,1.8,0s3.7,1.9,5.5,1.8
	s8.9,0.7,8.9,0.7c-2.7,1.3-4.2,4.6-3.6,7.8l-16.8-0.8l-6.4-1.6l-3.7-4.1L330.4,250z"/>
<path class="st14" d="M355.2,274.7l2.4-0.1l2.8-0.1c0,0,13.1,1.1,12.9-3.5c-0.3-4.6-10.4-6.3-11.8-4.9c-1.1,1-3.5,1.8-4.7,2.2
	c-0.4,0.1-0.6,0.2-0.6,0.2L355.2,274.7z"/>
<path class="st4" d="M355.2,274.7l2.4-0.1c0.9-3.6-0.2-5.6-0.8-6.4c-0.4,0.1-0.6,0.2-0.6,0.2L355.2,274.7z"/>
<path class="st15" d="M353.6,274.9l2.5,0.2l1.2,0.1c1.6-5.2-1-7.3-1-7.3h-0.8l-1.3,0.2L353.6,274.9z"/>
<path class="st14" d="M323.7,240.1l2.9,6.1c0,0,0.4-6.2,1.8-9.2c0.3-0.8,0.7-1.3,1.2-1.4c1.2-0.4-5.9-9-5.9-9
	c-0.2,0.1-1.6,1-3.3,2.3c-1.8,1.4-4,3-5.5,4.1C312,235,323.7,240.1,323.7,240.1z"/>
<path class="st16" d="M327.4,240.2c0,0,2.4,1.7,3,4.1c0.7,2.5,1.3,6.9,1.3,6.9s-1.1,10.5-1.6,11s-2.7,11-2.7,11l-2-1.5l2.7-13.3
	C328.1,258.5,326.3,241.4,327.4,240.2z"/>
<path class="st4" d="M327.4,240.2c0,0,2.4,1.7,3,4.1c0.7,2.5,1.3,6.9,1.3,6.9s-1.1,10.5-1.6,11s-2.7,11-2.7,11l-2-1.5l2.7-13.3
	C328.1,258.5,326.3,241.4,327.4,240.2z"/>
<polygon class="st15" points="317.2,263.7 328.9,263.7 327,243.2 317.2,243.2 "/>
<path class="st17" d="M344.5,305L344.5,305l0.2,0.1L344.5,305z"/>
<path class="st17" d="M322.3,295.6l2.3,1l0.3,0.1l8.3,3.5l3.2,1.3l4.3,1.8h1.8c5.4,0,10.9-0.2,16.3-0.5c-1-2.5-2.9-6.6-4.4-7.9
	c-1.2-1-9.5-2.1-17.2-3c-1-0.1-1.9-0.2-2.8-0.3h-0.2c-3-0.3-5.8-0.6-7.7-0.7h-0.3l-2.4-0.2l-0.3-0.3l-0.3,1.5l-0.3,1.2L322.3,295.6z
	"/>
<path class="st4" d="M344.5,305L344.5,305l0.2,0.1L344.5,305z"/>
<path class="st4" d="M322.3,295.6l2.3,1l0.3,0.1l8.3,3.5l3.2,1.3l4.3,1.8h1.8c5.4,0,10.9-0.2,16.3-0.5c-1-2.5-2.9-6.6-4.4-7.9
	c-1.2-1-9.5-2.1-17.2-3c-1-0.1-1.9-0.2-2.8-0.3h-0.2c-3-0.3-5.8-0.6-7.7-0.7h-0.3l-2.4-0.2l-0.3-0.3l-0.3,1.5l-0.3,1.2L322.3,295.6z
	"/>
<path class="st17" d="M344.5,305L344.5,305l0.2,0.1L344.5,305z"/>
<path class="st17" d="M334.5,305v0.1l0,0V305L334.5,305z"/>
<polygon class="st17" points="322.4,305.1 322.7,305.1 322.7,305 322.5,305 "/>
<path class="st17" d="M320.3,292.1l0.2,7v0.4l0,0l0.1,3.5l2.3,0.1h0.3c3.2,0.1,6.4,0.2,9.6,0.3h0.9l0,0h1h1.4c1.5,0,3,0,4.5,0h1.8
	c-1.6-1.1-3.7-2.3-5.9-3.5c-1-0.5-2-1.1-3.1-1.6c-2.8-1.4-5.6-2.8-7.9-3.9l-0.3-0.1c-0.9-0.4-1.7-0.8-2.4-1.1
	C321.3,292.5,320.4,292,320.3,292.1L320.3,292.1z"/>
<path class="st4" d="M341,263.2c-0.6,1.3-1.2,2.7-2.1,3.7c-0.2,0.2-0.4,0.3-0.6,0.1c0-0.1-0.1-0.2-0.1-0.3c0-0.6,0.2-1.2,0.6-1.7
	c0.3-0.5,0.7-1,0.9-1.6s0.6-1.6,1.2-1.7C341.7,261.6,341.2,262.8,341,263.2z"/>
<path class="st4" d="M320.4,228.9c0,0.2,0.1,0.3,0.1,0.5c1.2,3.9,4.1,6.9,7.8,7.7c0.3-0.8,0.7-1.3,1.2-1.4c1.2-0.4-5.9-9-5.9-9
	C323.4,226.6,322.1,227.6,320.4,228.9z"/>
<path class="st14" d="M320,225.6c0,6.3,4.7,11.5,10.4,11.5s10.4-5.1,10.4-11.5s-4.7-11.5-10.4-11.5S320,219.2,320,225.6L320,225.6z"
	/>
<path class="st17" d="M326.4,242.7c0,0,2.2,2.9,1.8,4.8h-2.6l-1.9-2.4L326.4,242.7z"/>
<path class="st4" d="M318.7,230.4l8.3,12.5c0,0-2.1,3.4-3.1,3.5c-1,0.2-6.8-14.8-6.8-14.8L318.7,230.4z"/>
<path class="st15" d="M318.6,230.2l8.3,12.6c0,0-2.1,3.3-3.1,3.5s-6.8-14.8-6.8-14.8L318.6,230.2z"/>
<path class="st17" d="M327.9,246.2c0,0,0.4,7,0.8,8.4c0.4,1.4,0,14.2,0,14.2l-3.8-1.7l0.7-19.7L327.9,246.2z"/>
<polygon class="st4" points="322.5,305 322.4,305.1 322.7,305.1 322.7,305 "/>
<path class="st4" d="M296,305.1L296,305.1L296,305.1z"/>
<path class="st4" d="M291.4,298.9c0,0,0.1,0.1,0.2,0.3c0.1,0.2,0.2,0.5,0.4,0.8l0,0c0.2,0.5,0.5,1,0.8,1.7
	c9.3,0.4,18.6,0.8,27.8,1.2l2.3,0.1h0.3l1-3.6l0,0l0.1-0.4l0.6-2.3l0.6-2.3l0.6-2.5l0.2-0.9l0.1-0.2l1-3.8l1.4-5.1l-0.4-4.9l0,0
	v-0.4l-0.4-4.4l-0.1-1.3l0,0v-0.7V270l0,0l-0.1-1.6l-0.2-4.7l-0.1-2.4l0,0v-0.4l0,0l-0.2-4.8l-0.6-2l-0.3-1l-0.7-2.3l-0.1-0.6l0,0
	c-0.2-0.9-0.7-2.6-1.1-4.2l0,0v-0.1l0,0v-0.1l-0.3-1.2l-0.4-1.5c-0.1-0.6-0.2-1-0.2-1.1c0-0.2-0.6-1.3-1.4-2.7l0,0
	c-1.5-2.8-3.9-7-4.1-8.4l0,0c0-0.1,0-0.2-0.1-0.2c-0.1-0.4-0.3-0.5-0.5-0.5c-0.1,0-0.2,0.1-0.2,0.1c-0.2,0.1-0.3,0.3-0.5,0.5
	c-0.4,0.8-1.3,1.5-2.2,2.1l-0.2,0.1l-0.1,0.1c-0.7,0.4-1.3,0.7-1.3,0.7c-11.3,7.5-10.6,18.8-11.3,19.7s-0.7,4.1-0.7,4.1
	s-1.7,11-2.4,12c-0.8,1-0.1,1.3-0.7,2.3c-0.7,1.1-0.5,3.9-0.5,3.9s-0.5,6.7-2.1,8.1C293.6,285.5,291.4,298.9,291.4,298.9z"/>
<path class="st16" d="M291.1,298.8l0.1,0.3l0,0c0.1,0.2,0.3,0.5,0.5,1l0,0c0.2,0.5,0.5,1.1,0.8,1.7h0.3c9.3,0.4,18.6,0.8,27.8,1.2
	l2.3,0.1l1-3.6l0,0l0.1-0.4l0.6-2.4l0.6-2.3l0.6-2.3l0.2-0.9l0,0l1.1-4l1.4-5.3l-0.4-4.3L328,277l-0.4-4.9l0,0l-0.2-3.8l-0.2-4.6
	l-0.1-1.2l-0.1-1.4v-0.6l-0.2-4.6l-0.6-2l-0.3-0.9l-0.6-2l-0.1-0.4c0,0-0.6-2.2-1.1-4.5c0-0.1,0-0.2-0.1-0.2c0-0.2-0.1-0.4-0.1-0.6
	l0,0c0-0.2-0.1-0.4-0.1-0.6c-0.2-0.6-0.3-1.2-0.4-1.7c-0.2-0.6-0.3-1.1-0.3-1.2c0-0.2-0.6-1.3-1.4-2.8c-1.5-2.7-3.6-6.5-4-8.1
	c0-0.1,0-0.2-0.1-0.2l0,0c0-0.3-0.1-0.5-0.3-0.7c-0.4-0.4-1,0.5-1,0.5c-0.4,0.8-1.3,1.5-2.2,2.1c-0.5,0.3-1,0.6-1.5,0.9
	c-11.3,7.5-10.6,18.8-11.3,19.7s-0.7,4.1-0.7,4.1s-1.7,11-2.4,12c-0.8,1-0.1,1.3-0.7,2.3c-0.7,1.1-0.5,3.9-0.5,3.9s-0.5,6.7-2.1,8.1
	C293.3,285.4,291.1,298.8,291.1,298.8z"/>
<path class="st4" d="M314.2,233.1c1.1,1.8,2.9,4.9,3.4,7.2c0,0,1.8,2,2.4,1.9c0.7-0.1-0.6,1.5-0.6,1.5l6.9,10.6l-1-3.3
	c0,0-2.1-8-2.2-8.8c-0.1-0.7-5.1-9-5.5-11.1c-0.3-1.7-1.3-0.2-1.3-0.2C316,231.7,315,232.5,314.2,233.1z"/>
<path class="st16" d="M314.2,232.8c1.1,1.8,2.9,4.9,3.4,7.2c0,0,1.8,2,2.4,1.9s-0.6,1.5-0.6,1.5l6.9,10.6l-1-3.3c0,0-2.1-8-2.2-8.8
	c-0.1-0.7-5.1-9-5.5-11.1c-0.3-1.7-1.3-0.2-1.3-0.2C316,231.5,315,232.3,314.2,232.8z"/>
<path class="st4" d="M304.9,254.9c-0.1,2.4,3.2,5.8,3.3,6s10.1,9.2,10.1,9.2l7.1,6c0.8,0.7,1.8,1.2,2.8,1.4l-0.5-5.4l-0.5-10.9
	c-1.1-1.4-2.2-2.8-2.2-3.3c0-0.9-1.9-2-1.9-2s-1.3-1.2-1.1-1.8c0.2-0.7-0.7-3.9-0.7-3.9c-0.5-9.1-8.9-10-8.9-10s-4.1,1.8-7,3.7
	S304.9,252.4,304.9,254.9z"/>
<path class="st4" d="M353.6,274.9l2.5,0.2c1-2-0.4-7.2-0.4-7.2h-0.2l-1.3,0.2L353.6,274.9z"/>
<path class="st16" d="M312.4,239.7c0,0,8.5,0.9,8.9,10c0,0,0.9,3.2,0.7,3.9s1.1,1.8,1.1,1.8s1.8,1,1.9,2c0,0.9,4.6,6.1,4.6,6.1
	s1.9,2.4,6.4,2.7c4.4,0.3,6.5,1.8,6.5,1.8s2.2-1.7,3.7-1.2s9.2,1.2,9.2,1.2s2,7.5-0.5,7.9c-0.3,0.1-25.3,1-25.3,1s-1.7,0.9-4.3-1.3
	c-2.6-2.2-7.1-6-7.1-6s-9.9-9-10.1-9.2c-0.2-0.2-3.4-3.5-3.3-6s-2.3-9,0.6-10.9C308.4,241.5,312.4,239.7,312.4,239.7z"/>
<path class="st4" d="M320,225.6c0,1.2,0.2,2.4,0.5,3.6c0.1-0.2,0.3-0.4,0.4-0.6c0.5-0.8,1-1.6,1.5-2.5c0.4-0.7,0.9-1.4,1.5-1.9
	s1.5-0.7,2.2-0.3c0.6,0.4,0.9,1.2,0.9,1.9c0,0.8,0,1.5-0.1,2.3c0,0.3,0,0.6,0.2,0.8s0.5,0.3,0.8,0.3l0.9,0.1
	c0.3,0.1,0.7-0.1,0.8-0.4l0,0c0.8-1.5,1.3-3.5,2.7-4.2c0.9-0.5,2.1-0.4,2.6-1.3c0.4-0.6,0.3-1.4,0.2-2.1c-0.1-0.8-0.3-1.6-0.5-2.4
	c-0.2-0.6-0.5-1.7,0.3-1.8c0.6-0.1,1.3,0.6,1.6,1s0.3,1.1,0.5,1.6c0.4,0.9,1.1,1.6,1.9,2c0.4,0.2,0.9,0.3,1.3,0.4
	c-1.8-6-7.6-9.4-13.1-7.4C322.9,216.1,320,220.6,320,225.6L320,225.6z"/>
<path class="st16" d="M336.6,217.8c0.3,0.5,0.3,1.1,0.5,1.6c0.4,0.9,1.1,1.6,1.9,2c0.8,0.3,1.7,0.5,2.6,0.5c1.4,0,3-0.2,4-1.4
	c-0.7-0.6-1.1-1.4-1.2-2.4c-0.1-0.7,0-1.5-0.4-2.1c-0.2-0.3-0.4-0.5-0.7-0.7c-1.6-1.2-2.9-2.9-4.3-4.4c-1.5-1.4-3.2-2.7-5.2-2.8
	c-2.6-0.1-4.9,2-7.5,2.3c-0.8,0.1-1.6,0.1-2.4,0.3c-0.9,0.3-1.7,0.8-2.4,1.4c-0.7,0.4-1.3,1-1.7,1.7c-0.3,0.6-0.6,1.2-0.7,1.9
	c-0.3,1.4-0.5,2.9-0.6,4.3c-0.1,1.5,0,3.1-0.1,4.6s-0.6,3.1-1.5,4.2c0.7,0.2,1.4,0.4,2.1,0.5c0.4,0.1,0.9,0.1,1.3-0.1
	c0.3-0.2,0.6-0.6,0.8-1l1.5-2.5c0.4-0.7,0.9-1.4,1.5-1.9s1.5-0.7,2.2-0.3c0.6,0.4,0.9,1.2,0.9,1.9c0,0.8,0,1.5-0.1,2.3
	c0,0.3,0,0.6,0.2,0.8s0.5,0.3,0.8,0.3l0.9,0.1c0.3,0.1,0.7-0.1,0.8-0.4l0,0c0.8-1.5,1.3-3.5,2.7-4.2c0.9-0.5,2.1-0.4,2.6-1.3
	c0.4-0.6,0.3-1.4,0.2-2.1c-0.1-0.8-0.3-1.6-0.5-2.4c-0.2-0.6-0.5-1.7,0.3-1.8C335.5,216.7,336.3,217.3,336.6,217.8z"/>
<path class="st4" d="M313,244.8c-0.8-0.1-1.6-0.2-2.3,0.1c1.9-0.9,5-0.5,6.8,0.7C317.3,246,313.6,244.9,313,244.8z"/>
<path class="st4" d="M312.1,247.6c-1.9,0.1-3.9,0.4-5.7-0.2c1.5-0.6,3.2-0.2,4.8-0.4c1.3-0.1,2.6-0.6,3.8-0.3
	c0.5,0.1,2.4,1.1,2.3,1.8C315.7,247.7,313.9,247.4,312.1,247.6z"/>
<path class="st4" d="M317.2,252.2c-0.4,0-0.8,0-1.2,0.1c-1.4,0.4-2.9,0.5-4.4,0.5c-1.1,0-2.3-0.2-3.1-1L317.2,252.2z"/>
<path class="st4" d="M323.3,262.9c-1.3,0.7-2.8,1-4.3,0.9s-2.9-0.4-4.3-0.9c-0.6-0.2-1.3-0.5-1.7-1L323.3,262.9z"/>
<path class="st4" d="M309.6,264.4c-2.9,1.8-6.1,2.9-9.4,3.2c1.7-0.7,3.4-1.4,5.1-2.1c1.7-0.7,3.5-1.2,5.3-1.6
	C310.2,264,309.9,264.2,309.6,264.4z"/>
<path class="st4" d="M304.9,262.4c-0.6,0.1-1.2,0.1-1.8,0.1c-0.3,0-0.7,0-0.9-0.3c1.3,0.1,2.6-0.3,3.9-0.6c0.4-0.1,1-0.3,1.3-0.1
	C307,261.9,305.7,262.3,304.9,262.4z"/>
<path class="st4" d="M296.9,292.9c-0.7,1.3-1.4,2.7-2.4,3.8c-0.6,0.6-1.1,1.2-1.8,1.7c1.1-3.2,2.3-6.5,4.2-9.3
	c0.5-0.7,1.2-1.7,2-1.9c0.2,0.8-0.4,2.2-0.7,2.9C297.9,291.1,297.4,292,296.9,292.9z"/>
<path class="st4" d="M330.8,268.8c0.1,0.5,0.1,1.2-0.2,1.6c-0.1,0.2-0.4,0.4-0.6,0.4c0.1,0,0.3-1.6,0.3-1.9c0.1-0.4,0-1.3,0.3-1.6
	C330.7,267.8,330.7,268.3,330.8,268.8z"/>
<path class="st4" d="M329.1,268.2c-0.2,1-0.8,1.8-1.5,2.3c0.5-0.7,0.7-1.7,1.2-2.5c0.2-0.3,0.3-0.6,0.6-0.7
	C329.3,267.6,329.2,267.9,329.1,268.2z"/>
<path class="st4" d="M330.5,258.3c0.9,0.6,2,0.8,3.1,0.4c0.2-0.1,0.8-0.3,0.6-0.7c-0.1-0.4-0.8-0.1-1-0.1l-1.3,0.2
	C331.6,258.2,330.7,258.4,330.5,258.3z"/>
<path class="st4" d="M335.1,260.7c-0.6-0.1-1.2,0.4-1.8,0.7c-0.7,0.2-1.3,0.3-2,0.3c-0.3,0-0.7,0-1-0.3
	C331.9,261,333.4,260.5,335.1,260.7z"/>
<polygon class="st15" points="327.4,240.2 327.3,240.2 326.6,243.2 327.4,244.2 "/>
<g class="st18">
	<path d="M344.2,216.4c0.1,0.5,0.1,1,0.1,1.5c0-0.2-0.1-0.3-0.1-0.5C344.2,217,344.2,216.7,344.2,216.4z"/>
	<path d="M334.9,216.7c-0.3,0-0.5,0.3-0.5,0.6l0,0c-0.1-0.6-0.2-1.3,0.4-1.4c0.6-0.1,1.3,0.6,1.6,1c0.3,0.5,0.3,1.1,0.5,1.6
		c0.4,0.9,1.1,1.6,1.9,2c0.8,0.3,1.7,0.5,2.6,0.5c1.3,0,2.8-0.2,3.7-1.1c0.1,0.1,0.2,0.3,0.4,0.4c-0.9,1.2-2.5,1.5-4,1.4
		c-0.9,0-1.8-0.2-2.6-0.5c-0.8-0.4-1.5-1.1-1.9-2c-0.2-0.5-0.3-1.1-0.5-1.6C336.3,217.3,335.5,216.7,334.9,216.7z"/>
	<path d="M318.6,228.7c0.4,0.1,0.9,0.1,1.3-0.1c0.3-0.2,0.6-0.6,0.8-1c0.5-0.8,1-1.6,1.5-2.5c0.4-0.7,0.9-1.4,1.5-1.9
		s1.5-0.7,2.2-0.3c0.6,0.4,0.9,1.2,0.9,1.9v0.1c-0.1-0.6-0.4-1-0.8-1.3c-0.7-0.4-1.5-0.2-2.2,0.3c-0.6,0.5-1.1,1.2-1.5,1.9
		c-0.5,0.8-1,1.6-1.5,2.5c-0.2,0.4-0.5,0.7-0.8,1c-0.4,0.2-0.9,0.2-1.3,0.1c-0.7-0.1-1.4-0.3-2.1-0.5c0.1-0.2,0.3-0.3,0.4-0.5
		C317.5,228.4,318.1,228.6,318.6,228.7z"/>
	<path d="M326.9,227.9c0.2,0.2,0.5,0.3,0.8,0.3l0.9,0.1c0.3,0.1,0.7-0.1,0.8-0.4l0,0c0.8-1.5,1.3-3.5,2.7-4.2
		c0.9-0.5,2.1-0.4,2.6-1.3c0.3-0.5,0.4-1.2,0.3-1.8c0,0.1,0,0.2,0.1,0.3c0.1,0.7,0.2,1.5-0.2,2.1c-0.6,0.9-1.7,0.9-2.6,1.3
		c-1.4,0.7-2,2.7-2.7,4.2c-0.1,0.2-0.2,0.4-0.4,0.5s-0.3,0.1-0.5,0l-0.9-0.1c-0.3,0-0.6-0.1-0.8-0.3c-0.1-0.2-0.2-0.5-0.2-0.8l0,0
		C326.9,227.8,326.9,227.9,326.9,227.9z"/>
</g>
<path class="st2" d="M198.9,308.5l2-0.3v-32.3l-0.4,0.1l-1.2,0.4v1.1v0.8v1.2v1.4v2.9v0.3v0.4v0.8v0.5v1.2v0.8l-0.1,14.6v0.4
	l-0.1,5.1v0.1L198.9,308.5z"/>
<path class="st19" d="M197.8,308.6l1.1-0.2v-0.6v-0.1l0.1-5.1v-0.4l0.1-14.6V287v-1.2v-0.5v-0.8v-0.4v-0.3v-2.9v-1.4v-1.2v-0.8v-1.1
	h-1.2v1.2v0.8v0.9v1.2v3.1v0.7v0.7v0.5v0.6v0.8l0,0l-0.1,15.3v0.4v5.1v0.1V308.6z"/>
<path class="st19" d="M197.8,310.5L197.8,310.5z"/>
<path class="st2" d="M77.5,271.8v27.9c0.6,0.5,1.2,0.9,1.8,1.3v-23.2v-2.5L77.5,271.8z"/>
<path class="st19" d="M76.2,271.4v27.2c0.4,0.4,0.9,0.7,1.3,1.1v-27.9L76.2,271.4z"/>
<path class="st2" d="M104.9,311c0.8,0.2,1.5,0.3,2.3,0.5v-25.2v-1.1l-2.2-1v2.3L104.9,311z"/>
<path class="st19" d="M103.5,283.3v27.3c0.5,0.1,1,0.2,1.4,0.3l0.1-24.5v-2.3l-0.1-0.1l0,0L103.5,283.3z"/>
<path class="st2" d="M234.6,303.4l2.1-0.2l0.3-28.5v-0.8v-0.5h-2v0.7v0.8L234.6,303.4z"/>
<path class="st19" d="M233,303.6l1.5-0.2l0.3-28.5v-0.8v-0.7h-1.6v0.9v0.8L233,303.6z"/>
<polygon class="st4" points="104.9,284 103.5,283.3 103.5,286.7 104.8,287.2 "/>
<polygon class="st4" points="76.2,271.4 76.2,276.7 77.5,277.2 79.3,277.8 79.3,275.4 77.5,271.8 "/>
<polygon class="st6" points="76.2,261.3 76.2,275.9 104.8,286.4 105,270.8 "/>
<polygon class="st5" points="237.3,260.3 199.6,252.4 76.2,261.3 105,270.8 "/>
<polygon class="st4" points="233.3,273.3 233.3,275 234.9,274.9 236.9,274.7 236.9,273.3 "/>
<polygon class="st4" points="198,278.4 199.2,278.3 200.9,278.1 200.9,275.8 199.2,276.4 198,276.4 "/>
<polygon class="st6" points="237.3,260.3 237.3,273.9 104.8,286.4 105,270.8 "/>
<polygon class="st6" points="132.3,276.4 149.6,276.4 149.6,269.5 132.3,270.8 "/>
<polygon class="st4" points="132.3,276.4 149.6,276.4 149.6,269.5 132.3,270.8 "/>
<polygon class="st4" points="172.8,268 172.8,278.9 106.4,284.5 106.4,272.8 132.3,271.2 134.9,273.8 145.4,272.9 149.2,269.9 "/>
<polygon class="st20" points="173.2,267.6 173.2,278.5 106.8,284.1 106.8,272.4 132.7,270.8 135.2,273.3 145.8,272.5 149.6,269.5 
	"/>
<polygon class="st6" points="214.1,264.6 198.4,265.8 198.6,271.4 208.8,271.4 215.7,268.4 "/>
<polygon class="st4" points="214.1,264.6 198.4,265.8 198.6,271.4 208.8,271.4 215.7,268.4 "/>
<polygon class="st4" points="235.1,263.1 235.1,272.9 174.8,278.2 174.8,267.8 198,266.2 200.5,268.3 209.9,267.7 213.7,265 "/>
<polygon class="st20" points="235.4,262.7 235.4,272.5 175.2,277.8 175.2,267.4 198.4,265.8 200.9,267.9 210.3,267.3 214.1,264.6 
	"/>
<polygon class="st4" points="106.4,262.7 98,263.3 111.9,268 119.1,267.4 "/>
<polygon class="st20" points="106.4,262.3 98,262.9 111.9,267.6 119.1,267 "/>
<path class="st19" d="M107.4,263.4c-0.3-0.2-0.7,0.1-1,0.2c-0.2,0-0.4,0-0.6,0c-0.4,0.1-0.8,0.4-1.2,0.2L107.4,263.4z"/>
<path class="st19" d="M107.8,263.7c-0.3-0.2-0.7,0.1-1,0.2c-0.2,0-0.4,0-0.6,0c-0.4,0.1-0.8,0.4-1.2,0.2L107.8,263.7z"/>
<path class="st19" d="M108.8,264.2c-0.3-0.2-0.7,0.1-1,0.2c-0.2,0-0.4,0-0.6,0c-0.4,0.1-0.8,0.4-1.2,0.2L108.8,264.2z"/>
<polygon class="st4" points="163.4,257.6 144.5,259 148.6,265.3 169.3,262.9 "/>
<polygon class="st3" points="163.7,257.2 144.9,258.6 148.9,264.9 169.6,262.5 "/>
<polygon class="st21" points="162.9,257.7 146.5,258.8 150,264 168,262 "/>
<path class="st3" d="M197.8,310.5L197.8,310.5z"/>
<path class="st4" d="M197.8,310.5L197.8,310.5z"/>
<path class="st3" d="M197.9,310.5L197.9,310.5z"/>
<path class="st3" d="M173.9,309.7c0,0.1,0,0.2,0,0.3s0,0.2,0,0.3c0.1,0.6,0.2,1.2,0.4,1.7l0,0c7.8-1,15.6-2.1,23.4-3.3l1.1-0.2
	l2-0.3l1.7-0.3l0,0c1.8-0.1,3.7-0.2,5.5-0.6c1.1-0.2,2.3-0.4,3.4-0.8c4.9-0.7,9.9-1.5,14.9-2.1l0.6-0.1c-0.1-0.6-0.2-0.9-0.2-0.9
	s-1.1-4.6-1.9-9.8l0,0c-0.2-1.1-0.4-2.3-0.5-3.4c-0.1-0.9-0.2-1.8-0.3-2.7c-0.1-0.5-0.1-0.9-0.1-1.4c0-0.2,0-0.5-0.1-0.7
	c0-0.2,0-0.5,0-0.7s0-0.4,0-0.7v-0.3c0-0.5,0-0.9,0-1.4c0.2-2.5,0.5-4.9,1.1-7.3c0.1-0.4,0.2-0.8,0.3-1.2c0-0.1,0.1-0.3,0.1-0.4
	c1-4.3,2.2-7.8,2.2-7.8s0,0,0-0.1l0,0v-0.1c0-0.1,0-0.3,0-0.5v-0.1c0-0.4-0.1-0.7-0.2-1.1c0-0.1-0.1-0.2-0.1-0.4
	c-0.2-0.7-0.7-1.2-1.4-1.4l0,0c-0.9-0.2-2.2,0-4.2,1.3c-0.3,0.2-0.6,0.4-0.9,0.7c-0.1,0.1-0.3,0.3-0.4,0.4c-2.3,2.4-3.5,6.2-4.2,9.8
	c0,0.1,0,0.3-0.1,0.4c-0.1,0.4-0.1,0.9-0.2,1.3c-0.1,0.7-0.2,1.4-0.3,2.1c0,0.2,0,0.3,0,0.5s0,0.3,0,0.5c0,0.5-0.1,1-0.1,1.4
	c-0.1,1.1,0,1.8,0,1.8l0,0v0.1l0,0c0,0,0,0.1,0,0.2s0,0.1,0,0.2s0,0.3,0,0.5c0,0.3,0.1,0.6,0.1,1l0,0c0,0.3,0.1,0.6,0.1,0.9
	c0.1,0.7,0.1,1.5,0.2,2.3c0,0.2,0,0.3,0,0.5c0.1,0.7,0.1,1.5,0.2,2.2l0,0c0.1,0.9,0.2,1.7,0.3,2.6c0,0.2,0,0.4,0.1,0.5
	c0.2,2,0.5,3.9,0.6,5.1c0,0.2,0,0.3,0.1,0.5c0,0.1,0,0.1,0,0.2c0,0.2,0,0.3,0,0.5c-0.2,2.9-3,3.4-3,3.4l-13-0.3h-1.9h-1.1l-10.1-0.2
	l0,0h-0.9l-5-0.1c-0.3,0-0.7,0-1,0.1c-1.6,0.5-3,1.2-4.4,2.1c-0.4,0.3-0.8,0.7-1.1,1.1c0,0,0,0,0,0.1c-0.7,0.9-1.1,2-1.2,3.2
	c0,0.1,0,0.2,0,0.2C173.9,309.3,173.9,309.5,173.9,309.7z"/>
<path class="st4" d="M197.9,310.5L197.9,310.5z"/>
<path class="st4" d="M173.9,309.7c0,0.1,0,0.2,0,0.3s0,0.2,0,0.3c0.1,0.6,0.2,1.2,0.5,1.7c7.8-1,15.6-2.1,23.4-3.3l1.1-0.2l2-0.3
	l1.7-0.3l0,0c1.8-0.1,3.7-0.2,5.5-0.6c1.1-0.2,2.3-0.4,3.4-0.8c4.9-0.7,9.9-1.5,14.9-2.1l0.6-0.1l0,0c-0.1-0.6-0.2-1-0.2-1
	s-0.9-3.8-1.7-8.3l0,0c-0.1-0.3-0.1-0.6-0.2-0.9l-0.1-0.5l0,0c-0.2-1.1-0.4-2.3-0.5-3.4c-0.1-0.9-0.2-1.8-0.3-2.7
	c-0.1-0.5-0.1-0.9-0.1-1.4c0-0.2,0-0.5-0.1-0.7c0-0.2,0-0.5,0-0.7s0-0.4,0-0.7v-0.3c0-0.5,0-0.9,0-1.4c0.2-2.5,0.5-4.9,1-7.3
	c0.1-0.4,0.2-0.8,0.3-1.2c0-0.1,0.1-0.3,0.1-0.4c1-4.3,2.2-7.8,2.2-7.8l0,0l0,0v-0.1c0-0.1,0-0.3,0-0.5v-0.1c0-0.4-0.1-0.7-0.2-1.1
	c0-0.1-0.1-0.2-0.1-0.4c-0.2-0.7-0.8-1.3-1.5-1.5c-0.9-0.2-2.2,0.1-4.1,1.3c-0.3,0.2-0.7,0.5-1,0.7l0,0c-0.1,0.1-0.3,0.3-0.4,0.4
	c-2.3,2.4-3.5,6.2-4.1,9.8c0,0.1,0,0.3-0.1,0.4c-0.1,0.4-0.1,0.9-0.2,1.3c-0.1,0.7-0.2,1.4-0.2,2.1c0,0.2,0,0.4,0,0.5
	c0,0.2,0,0.3,0,0.5c0,0.5-0.1,1-0.1,1.4c-0.1,1.1,0,1.8,0,1.8v0.1c0,0,0,0,0,0.1l0,0c0,0,0,0.1,0,0.2s0,0.1,0,0.2s0,0.3,0,0.5
	c0,0.3,0.1,0.6,0.1,1l0,0c0,0.3,0.1,0.6,0.1,0.9c0.1,0.7,0.1,1.5,0.2,2.3c0,0.2,0,0.3,0,0.5c0.1,0.7,0.1,1.5,0.2,2.2l0,0
	c0.1,0.9,0.2,1.7,0.3,2.5c0,0.2,0,0.4,0.1,0.5c0.2,2,0.5,3.9,0.6,5c0,0.2,0.1,0.4,0.1,0.6c0,0.1,0,0.1,0,0.2c0,0.2,0,0.3,0,0.5
	c-0.2,2.9-3,3.4-3,3.4l-13-0.3h-1.9h-1.1l-10.1-0.2h-0.9l-5-0.1c-0.3,0-0.7,0-1,0.1c-1.6,0.4-3.1,1.2-4.4,2.1
	c-0.4,0.3-0.8,0.7-1.2,1.1c0,0,0,0,0,0.1c-0.7,0.9-1.1,2-1.2,3.2c0,0.1,0,0.2,0,0.2C173.9,309.3,173.9,309.5,173.9,309.7z"/>
<path class="st3" d="M197.9,310.5L197.9,310.5z"/>
<path class="st3" d="M173.9,312l0.5-0.1l0,0c7.8-1,15.6-2.1,23.4-3.3l1.1-0.2l2-0.3l1.7-0.3l0,0c1.8-0.1,3.7-0.2,5.5-0.6
	c1.1-0.2,2.3-0.4,3.4-0.8c4.9-0.7,9.9-1.5,14.9-2.1c-0.1-0.5-0.2-1-0.3-1.4c0,0-2.9-12.8-3.1-19.6c-0.1-2.4,0.4-5.4,1-8.3l0,0
	c0.1-0.4,0.2-0.8,0.3-1.2l0.1-0.4c1-4.5,2.3-8.2,2.3-8.2c0-0.5,0-0.9-0.1-1.4c0-0.1,0-0.2-0.1-0.4c-0.1-0.6-0.4-1.1-0.8-1.5l0,0
	c0,0,0,0-0.1,0c-0.8-0.7-2.3-0.7-4.9,0.9c-0.5,0.3-1,0.8-1.5,1.2c-0.1,0.1-0.2,0.3-0.4,0.4c-2.1,2.5-3.2,6.3-3.8,9.7l-0.1,0.4
	c-0.1,0.4-0.1,0.8-0.2,1.3l0,0l0,0c-0.1,0.5-0.1,1.1-0.2,1.5l0,0c-0.1,1.4-0.2,2.9-0.2,4.4c0,0,0.1,1.3,0.3,3.3
	c0.1,0.8,0.2,1.6,0.2,2.5v0.1v0.5c0.2,1.6,0.3,3.3,0.5,4.8c0,0.2,0,0.4,0.1,0.6c0.2,1.8,0.4,3.3,0.6,4.3c0.6,4-2.9,4.6-2.9,4.6
	l-12.2-0.3H199h-1.1h-0.5h-0.2l-9.7-0.2h-0.9l-5.6-0.1c-0.3,0-0.7,0-1,0.1c-1.6,0.4-3.1,1.2-4.4,2.1c-0.4,0.3-0.7,0.6-1,1
	c0,0,0,0-0.1,0.1C173,307.1,172.8,309.8,173.9,312z"/>
<polygon class="st9" points="130.2,250.3 126.4,259.2 127,259.2 131.5,250.4 "/>
<polygon class="st4" points="130.2,250.3 126.4,259.2 127,259.2 131.5,250.4 "/>
<polygon class="st9" points="130.2,259.2 126.4,259.2 126.4,260.2 130.2,260.3 "/>
<polygon class="st4" points="130.2,259.2 126.4,259.2 126.4,260.2 130.2,260.3 "/>
<path class="st9" d="M159.6,217.4v31.2c0,1.3-0.9,2.3-2.1,2.3h-47.2c-1.2,0-2.1-1-2.1-2.3l0,0l0.5-31.3c0-1.3,1-2.3,2.1-2.3h46.6
	C158.7,215,159.6,216.1,159.6,217.4z"/>
<path class="st4" d="M159.6,217.4v31.2c0,1.3-0.9,2.3-2.1,2.3h-47.2c-1.2,0-2.1-1-2.1-2.3l0,0l0.5-31.3c0-1.3,1-2.3,2.1-2.3h46.6
	C158.7,215,159.6,216.1,159.6,217.4z"/>
<path class="st9" d="M161.3,217.4v31.2c0,1.3-0.9,2.3-2.1,2.3H112c-1.2,0-2.1-1-2.1-2.3l0,0l0.5-31.3c0-1.3,0.9-2.3,2.1-2.3h46.6
	C160.3,215,161.3,216.1,161.3,217.4C161.3,217.3,161.3,217.3,161.3,217.4z"/>
<path class="st11" d="M159.4,219.3v27.5c0,1.3-0.9,2.3-2.1,2.3h-43.7c-1.2,0-2.1-1-2.1-2.3l0,0v-27.5c0-1.3,0.9-2.3,2.1-2.3h43.7
	C158.5,217,159.4,218,159.4,219.3z"/>
<polygon class="st9" points="140.5,250.4 136.4,259.2 127,259.2 131.7,249.1 "/>
<polygon class="st9" points="143.8,259.2 144.5,260.2 130.2,260.2 130.2,259.2 "/>
<linearGradient id="SVGID_4_" gradientUnits="userSpaceOnUse" x1="167.8392" y1="314.1894" x2="167.8392" y2="203.9946" gradientTransform="matrix(-6.6532 0 0 1 1300 0)">
	<stop  offset="0" style="stop-color:#808080;stop-opacity:0.25"/>
	<stop  offset="0.54" style="stop-color:#808080;stop-opacity:0.12"/>
	<stop  offset="1" style="stop-color:#808080;stop-opacity:0.1"/>
</linearGradient>
<path class="st22" d="M204.4,226.8c1-3.2,1-6.7,2.3-9.8c0.2-0.4,0.4-0.9,0.5-1.4c0.1-0.3,0.1-0.6,0.1-0.9h0.1h0.1h0.1l0,0h0.1
	c0,0.1,0,0.2-0.1,0.3c-0.1,0.5-0.3,0.9-0.5,1.4c-1.3,3.1-1.3,6.7-2.3,9.9c0,0.1-0.1,0.3-0.2,0.4
	C204.5,226.9,204.5,226.9,204.4,226.8C204.4,226.9,204.4,226.9,204.4,226.8z M204.4,226.8c1-3.2,1-6.7,2.3-9.8
	c0.2-0.4,0.4-0.9,0.5-1.4c0.1-0.3,0.1-0.6,0.1-0.9h0.1h0.1h0.1l0,0h0.1c0,0.1,0,0.2-0.1,0.3c-0.1,0.5-0.3,0.9-0.5,1.4
	c-1.3,3.1-1.3,6.7-2.3,9.9c0,0.1-0.1,0.3-0.2,0.4C204.5,226.9,204.5,226.9,204.4,226.8C204.4,226.9,204.4,226.9,204.4,226.8z
	 M204.4,226.8c1-3.2,1-6.7,2.3-9.8c0.2-0.4,0.4-0.9,0.5-1.4c0.1-0.3,0.1-0.6,0.1-0.9h0.1h0.1h0.1l0,0h0.1c0,0.1,0,0.2-0.1,0.3
	c-0.1,0.5-0.3,0.9-0.5,1.4c-1.3,3.1-1.3,6.7-2.3,9.9c0,0.1-0.1,0.3-0.2,0.4C204.5,226.9,204.5,226.9,204.4,226.8
	C204.4,226.9,204.4,226.9,204.4,226.8z M204.4,226.8c1-3.2,1-6.7,2.3-9.8c0.2-0.4,0.4-0.9,0.5-1.4c0.1-0.3,0.1-0.6,0.1-0.9h0.1h0.1
	h0.1l0,0h0.1c0,0.1,0,0.2-0.1,0.3c-0.1,0.5-0.3,0.9-0.5,1.4c-1.3,3.1-1.3,6.7-2.3,9.9c0,0.1-0.1,0.3-0.2,0.4
	C204.5,226.9,204.5,226.9,204.4,226.8C204.4,226.9,204.4,226.9,204.4,226.8z M204.4,226.8c1-3.2,1-6.7,2.3-9.8
	c0.2-0.4,0.4-0.9,0.5-1.4c0.1-0.3,0.1-0.6,0.1-0.9h0.1h0.1h0.1l0,0h0.1c0,0.1,0,0.2-0.1,0.3c-0.1,0.5-0.3,0.9-0.5,1.4
	c-1.3,3.1-1.3,6.7-2.3,9.9c0,0.1-0.1,0.3-0.2,0.4C204.5,226.9,204.5,226.9,204.4,226.8C204.4,226.9,204.4,226.9,204.4,226.8z
	 M204.4,226.8c1-3.2,1-6.7,2.3-9.8c0.2-0.4,0.4-0.9,0.5-1.4c0.1-0.3,0.1-0.6,0.1-0.9h0.1h0.1h0.1l0,0h0.1c0,0.1,0,0.2-0.1,0.3
	c-0.1,0.5-0.3,0.9-0.5,1.4c-1.3,3.1-1.3,6.7-2.3,9.9c0,0.1-0.1,0.3-0.2,0.4C204.5,226.9,204.5,226.9,204.4,226.8
	C204.4,226.9,204.4,226.9,204.4,226.8z M204.4,226.8c1-3.2,1-6.7,2.3-9.8c0.2-0.4,0.4-0.9,0.5-1.4c0.1-0.3,0.1-0.6,0.1-0.9h0.1h0.1
	h0.1l0,0h0.1c0,0.1,0,0.2-0.1,0.3c-0.1,0.5-0.3,0.9-0.5,1.4c-1.3,3.1-1.3,6.7-2.3,9.9c0,0.1-0.1,0.3-0.2,0.4
	C204.5,226.9,204.5,226.9,204.4,226.8C204.4,226.9,204.4,226.9,204.4,226.8z M150.7,258.7L150.7,258.7h0.2l-0.3-0.1l0,0h-0.1l0,0
	c-0.3-0.1-0.7-0.2-1-0.3l0,0l-0.3-0.1l0,0l0,0c-2.9-0.9,0.5-1.8,4.8-2.4l0,0c4.6-0.7,10.3-1.1,10.3-1.1l1.8,0.3l0,0
	c2.2,0.3,5.6,0.8,6.1,1c0.7,0.2,6.3,0.5,8.2,0.6c0.1-0.1,0.2-0.3,0.3-0.3l5.8-0.3v0.9l0,0l0,0c0-1.2,0.3-2.3,0.8-3.4v-0.1
	c1.5-3.1,1.8-3.9,1.8-3.9l0,0c0-0.1,0-0.1,0-0.2c0.5-1.9,2.3-5.3,5.5-10l0.1-0.2l0.4-2.1l0.1-0.4h2c-0.3-1.8-0.8-3.7-1.4-5.4
	c0-0.1-0.1-0.2-0.1-0.3v-0.1c0-0.1-0.1-0.2-0.1-0.3c-0.1,0-0.2,0-0.3,0l0,0c-4.8-0.2-8.7-4.4-9-9.7l0,0c0-0.2,0-0.4,0-0.6
	c0-1.8,0.4-3.6,1.2-5.1c0,0,0-0.1,0.1-0.1v-0.1l0.1-0.2c-0.7-0.2-1.5,0.2-2.2-0.3c-0.2-0.2-0.4-0.4-0.5-0.7s-0.3-0.7-0.3-1l0,0l0,0
	l0,0c0,0,0,0,0-0.1l0,0c0-0.2,0-0.5,0-0.7c0-0.5,0.1-1,0.2-1.4c0.4-1,1.1-1.8,2-2.2c0.5-0.2,1-0.3,1.4-0.4c2-0.6,3.7-2,5.6-2.8
	c1.3-0.6,2.8-0.8,4.2-0.7c0.9,0,1.7,0.3,2.5,0.7c0.6,0.4,1.1,0.8,1.7,1.3c1.4,1.2,2.9,2.2,4.1,3.7c0.2,0.3,0.4,0.5,0.6,0.8
	c0.1,0.2,0.2,0.3,0.3,0.5c0.2-0.2,0.5-0.4,0.7-0.3l0,0c0.1,0,0.1,0,0.2,0s0.3,0,0.4,0c0.3,0.1,2.6,0.7,2.6,1.1
	c1,0.5,1.8,1.1,2.6,1.8c1.9,1.9,2.3,4.8,2.5,7.6c0.3,3.2,0.4,6.4,0.3,9.6c0,1.2-0.1,2.3-0.1,3.5c0.1,1.4,0.3,2.7,0.5,4.1
	c0.3,1.4,0.6,2.8,0.9,4.2c0.1,0.7,0.4,1.4,1,1.7h-0.2c0.1,0,0.1,0.1,0.2,0.1c-0.3,0-0.5,0.1-0.8,0.1h-0.2c-0.1,0-0.3,0-0.4-0.1
	c-0.2-0.1-0.4-0.2-0.6-0.3c0-0.1,0-0.1-0.1-0.2c-0.2-0.2-0.3-0.4-0.4-0.6c0,0.4,0,0.8,0.1,1.2c0,0.1,0,0.1,0,0.2
	c0.2,0.8,0.5,1.6,1.1,2.2l-0.3-0.3c0.1,0.1,0.2,0.3,0.3,0.4c-0.4-0.4-0.9-0.7-1.3-1.1l0,0c0,0-0.1,0-0.1-0.1l0,0l-0.8-0.7
	c0,0.1,0,0.2,0,0.3s0,0.2,0,0.3l0,0c0,0,0,0.1,0,0.2c0.1,2.4,0.2,8.1-0.3,9.5c0,0.1-0.1,0.2-0.1,0.2c-0.6,1.6-0.8,2.3-0.7,3.1
	c0,0.6-0.3,2.2-0.6,3.5c-0.1,0.5-0.2,1.1-0.1,1.6c0,0.3,0,0.6-0.1,0.9c0,0.2-0.1,0.3-0.1,0.5c0,0.1,0,0.1,0,0.2
	c-0.3,1.2-0.7,2.8-0.3,3.4c0.1,0.2,0.2,0.4,0.3,0.7c0.3,1,0.4,2.4,0.8,3c0.5,0.7,0.3,1.8,0.3,2l0,0c0,0,0,0.1,0.1,0.3
	c0.1,0.3,0.1,0.7,0.2,1.2l0,0c0.1,0.7,0.3,1.4,0.5,2l0,0c0.2,0.5,0.3,0.8,0.5,0.9c0.6,0.2,0.9,3.5,0.9,3.5s1.4,2.5,1.1,3.2
	c-0.1,0.1-0.1,0.3-0.2,0.4l0.1,0.2c0.8,1.3,1.9,3.8,0.8,5.1c-0.4,0.4-0.8,0.8-1.3,1.1c0.1,0.1,0.1,0.3,0.2,0.4c1.2,3,3,10.1-4,13
	c-0.7,0.3-1.4,0.5-2.1,0.8c-1.1,0.3-2.2,0.6-3.4,0.8c-1.6,0.3-3.3,0.4-4.9,0.5c-0.7,0-1.5,0-2.2,0s-1.3,0-2-0.1
	c-0.4,0-0.7,0-1.1-0.1c-2.1-0.1-4.2-0.4-6.3-0.8l-9.9-2c0,0-4.2,0.2-5.7,1.1l0,0c0,0-0.3-0.2-0.7-0.5l0,0c-0.2-0.1-0.4-0.3-0.6-0.5
	c-1.6-1.3-4.2-3.8-5.9-7.2v-0.1h-0.3h-0.1H168l-0.5-0.1l0,0h-0.1c-1.3-0.2-2.4-0.4-2.4-0.4s0,1.5-0.1,3.3c0,0.5,0,1.1-0.1,1.6
	c-0.1,1.9-0.1,3.6-0.1,3.6c0,0.1-1.3,3.8-2.7,7.5l-1.1,0.1c-2.9,0.3-5.9,0.5-8.8,0.6l-1.1,0.1h-0.7c0.5-3.3,0.9-6.5,0.9-6.5l1.8-9.5
	c0,0,0.2-2,1.6-10.7c1.1-7,7.7-6.4,10.1-5.9c0.3,0.1,0.5,0.1,0.6,0.1v-0.5c0,0,4.7,0.4,9,0.6h1c1,0,1.9,0.1,2.7,0.1
	c0.7,0,1.4,0,2.2-0.1c3.3-0.4,7,0.8,7,0.8s4.8,0.9,5.4,0.5c0.2-0.1,0.4-0.1,0.5-0.1s0.2,0,0.3,0c-0.2-0.1-0.4-0.3-0.3-0.6
	c0.2-0.9,0.3-2.1-0.3-2.9c-0.2-0.4-0.6-0.9-1-1.5l-0.8-1.3v-0.1v-0.4l-0.2-3.3l-0.5-3.1v-0.2v-0.3v-0.2h-0.1l0,0
	c-1.4,0.5-2.9,0.9-4,0.5l0,0c-0.1,0-0.2-0.1-0.3-0.1l0,0v0.2v0.4l-5.2-0.3h-0.1c0,0-0.2-1.1-0.4-2.6c0-0.1,0-0.2-0.1-0.4
	s0-0.3-0.1-0.5c0-0.1,0-0.2,0-0.2h-0.2h-0.1c-2.4-0.1-5.7-0.3-7.1-0.9l0,0c-0.2-0.1-0.3-0.2-0.5-0.3c-0.6-0.6-2.7-1.3-4.7-2l0,0
	l-0.8-0.3c-0.6-0.2-1.2-0.4-1.7-0.5c-1.2-0.3-2-0.6-2-0.6s-8,0.8-14-1.1l0,0h-0.1C146.6,259.9,148,259.2,150.7,258.7z M207.7,214.3
	c0,0.1,0,0.2,0,0.3l0,0l0,0l0,0l0,0v0.1v0.1c0,0.1,0,0.2-0.1,0.3c-0.1,0.5-0.3,0.9-0.5,1.4c-1.3,3.1-1.3,6.7-2.3,9.9
	c0,0.1-0.1,0.3-0.2,0.4c0,0-0.1,0.1-0.2,0.1h-0.1l0,0h-0.1v0.1l0,0l0,0c0.4,0.8,0.9,1.5,1.3,2.2c0.4,0.1,0.7,0.2,1.1,0.5l0.2,0.1
	l0.1,0.1c0.1-0.6,0.3-1.2,0.4-1.7c0.7-3.1,1.1-6.3,1.2-9.5c0-0.1,0-0.1,0-0.2c0-0.1,0-0.3,0-0.4c0-0.8,0-1.6-0.1-2.5
	c0-0.4-0.1-0.8-0.3-1.1l0,0C208.1,214.4,207.9,214.3,207.7,214.3L207.7,214.3z M204.4,226.8c1-3.2,1-6.7,2.3-9.8
	c0.2-0.4,0.4-0.9,0.5-1.4c0.1-0.3,0.1-0.6,0.1-0.9h0.1h0.1h0.1l0,0h0.1c0,0.1,0,0.2-0.1,0.3c-0.1,0.5-0.3,0.9-0.5,1.4
	c-1.3,3.1-1.3,6.7-2.3,9.9c0,0.1-0.1,0.3-0.2,0.4C204.5,226.9,204.5,226.9,204.4,226.8C204.4,226.9,204.4,226.9,204.4,226.8
	L204.4,226.8z M204.4,226.8c1-3.2,1-6.7,2.3-9.8c0.2-0.4,0.4-0.9,0.5-1.4c0.1-0.3,0.1-0.6,0.1-0.9h0.1h0.1h0.1l0,0h0.1
	c0,0.1,0,0.2-0.1,0.3c-0.1,0.5-0.3,0.9-0.5,1.4c-1.3,3.1-1.3,6.7-2.3,9.9c0,0.1-0.1,0.3-0.2,0.4
	C204.5,226.9,204.5,226.9,204.4,226.8C204.4,226.9,204.4,226.9,204.4,226.8L204.4,226.8z M204.4,226.8c1-3.2,1-6.7,2.3-9.8
	c0.2-0.4,0.4-0.9,0.5-1.4c0.1-0.3,0.1-0.6,0.1-0.9h0.1h0.1h0.1l0,0h0.1c0,0.1,0,0.2-0.1,0.3c-0.1,0.5-0.3,0.9-0.5,1.4
	c-1.3,3.1-1.3,6.7-2.3,9.9c0,0.1-0.1,0.3-0.2,0.4C204.5,226.9,204.5,226.9,204.4,226.8C204.4,226.9,204.4,226.9,204.4,226.8
	L204.4,226.8z M204.4,226.8c1-3.2,1-6.7,2.3-9.8c0.2-0.4,0.4-0.9,0.5-1.4c0.1-0.3,0.1-0.6,0.1-0.9h0.1h0.1h0.1l0,0h0.1
	c0,0.1,0,0.2-0.1,0.3c-0.1,0.5-0.3,0.9-0.5,1.4c-1.3,3.1-1.3,6.7-2.3,9.9c0,0.1-0.1,0.3-0.2,0.4
	C204.5,226.9,204.5,226.9,204.4,226.8C204.4,226.9,204.4,226.9,204.4,226.8L204.4,226.8z M204.4,226.8c1-3.2,1-6.7,2.3-9.8
	c0.2-0.4,0.4-0.9,0.5-1.4c0.1-0.3,0.1-0.6,0.1-0.9h0.1h0.1h0.1l0,0h0.1c0,0.1,0,0.2-0.1,0.3c-0.1,0.5-0.3,0.9-0.5,1.4
	c-1.3,3.1-1.3,6.7-2.3,9.9c0,0.1-0.1,0.3-0.2,0.4C204.5,226.9,204.5,226.9,204.4,226.8C204.4,226.9,204.4,226.9,204.4,226.8
	L204.4,226.8z M204.4,226.8c1-3.2,1-6.7,2.3-9.8c0.2-0.4,0.4-0.9,0.5-1.4c0.1-0.3,0.1-0.6,0.1-0.9h0.1h0.1h0.1l0,0h0.1
	c0,0.1,0,0.2-0.1,0.3c-0.1,0.5-0.3,0.9-0.5,1.4c-1.3,3.1-1.3,6.7-2.3,9.9c0,0.1-0.1,0.3-0.2,0.4
	C204.5,226.9,204.5,226.9,204.4,226.8C204.4,226.9,204.4,226.9,204.4,226.8L204.4,226.8z"/>
<path class="st23" d="M194.1,228.6c0.5,0.6,0.9,1.3,1.2,2c0,0.1,0.1,0.2,0.1,0.3c1.4,3.4,1.8,8.2,1.8,8.2s0.8-0.4,2-1.1
	c2.2-1.2,5.7-3.3,7.1-4.9c0.6-0.7,0.8-1.4,0.3-1.8c-0.1-0.1-0.2-0.2-0.3-0.3c-0.4-0.4-0.8-0.9-1.1-1.4c-0.4-0.7-0.9-1.4-1.3-2.2
	c-0.2-0.5-0.5-0.9-0.7-1.4l-0.1-0.2c-0.9-1.9-1.6-3.6-1.6-3.6s-0.3,0.1-0.8,0.3C198.5,223.5,192.1,226.3,194.1,228.6z"/>
<path class="st23" d="M151.7,307.8c0,0-0.4,3.1-0.9,6.4l1.1-0.1c2.9-0.2,5.9-0.4,8.8-0.6c1.7-4.3,3.4-9.3,3.4-9.4s0.1-1.7,0.1-3.6
	c0-0.7,0-1.3,0.1-2l0,0c0-1,0.1-1.8,0.1-2.4c0-0.4,0-0.6,0-0.6s1.6,0.3,3,0.5l0.6,0.1c0.3,0,0.6,0.1,0.9,0.1c0.2,0,0.5,0,0.7,0
	c0.5-0.2-0.5-5.5-0.5-5.5l-2.5-6.7l-0.7-1.9l-0.3-0.1c-0.2,0-0.4-0.1-0.6-0.1c-2.4-0.5-8.8-1.1-9.9,5.9c-1.4,8.7-1.5,10.6-1.5,10.6
	L151.7,307.8z"/>
<path class="st23" d="M149.3,321.6h0.8l0,0H149.3L149.3,321.6z"/>
<path class="st24" d="M151.7,307.8c0,0-0.4,3.1-0.9,6.4l1.1-0.1c2.9-0.2,5.9-0.4,8.8-0.6c1.7-4.3,3.4-9.3,3.4-9.4s0.1-1.7,0.1-3.6
	c0-0.7,0-1.3,0.1-2l0,0c0-1,0.1-1.8,0.1-2.4c0-0.4,0-0.6,0-0.6s1.6,0.3,3,0.5l0.6,0.1c0.3,0,0.6,0.1,0.9,0.1c0.2,0,0.5,0,0.7,0
	c0.5-0.2-0.5-5.5-0.5-5.5l-2.5-6.7l-0.7-1.9l-0.3-0.1c-0.2,0-0.4-0.1-0.6-0.1c-2.4-0.5-8.8-1.1-9.9,5.9c-1.4,8.7-1.5,10.6-1.5,10.6
	L151.7,307.8z"/>
<path class="st24" d="M149.3,321.6h0.8l0,0H149.3L149.3,321.6z"/>
<path class="st23" d="M152,314.1c2.9-0.2,5.9-0.4,8.8-0.6l1.1-0.1h0.5c1.4-3.7,2.6-7.3,2.6-7.4s0.1-1.7,0.1-3.6
	c0.1-2.3,0.2-4.9,0.2-4.9h0.2h0.1l0,0h0.1l0.5,0.1h0.3c0.5,0.1,1.1,0.2,1.7,0.3h0.1h0.3h0.3l0,0c0.2,0,0.5,0.1,0.7,0.1h0.3
	c0.2,0,0.5,0,0.7,0c0.5-0.2-0.5-5.5-0.5-5.5l-3.2-8.6h-0.1c-0.2,0-0.5-0.1-1-0.2c-0.2,0-0.4-0.1-0.6-0.1c-2.8-0.4-8.1-0.3-9.1,6
	c-1.4,8.7-1.5,10.6-1.5,10.6l-1.8,9.4C152.6,309.7,152.3,311.6,152,314.1z"/>
<path class="st4" d="M165.1,302.3c0.1-2.3,0.2-4.9,0.2-4.9s3.1,0.6,4.5,0.7l-0.3-1.1c0,0-5.3-1.6-5.4-0.7
	C164,296.9,164.7,300.3,165.1,302.3z"/>
<path class="st4" d="M165,281.8v2.5c0,0,0.3,4.4,2.3,11.2c0,0.1,0.1,0.3,0.1,0.4c0.2,0.7,0.5,1.3,0.8,1.9c0.6,0.1,1.1,0.2,1.6,0.2
	c0.2,0,0.5,0,0.7,0c0.5-0.2-0.5-5.5-0.5-5.5l-3.2-8.6h-0.1L166,282C165.9,282.1,165.6,282,165,281.8z"/>
<path class="st16" d="M165.6,281.4v2.9c0,0,0.3,4.4,2.3,11.2c0.1,0.2,0.1,0.3,0.2,0.5s0.1,0.4,0.2,0.6c0.2,0.5,0.4,0.9,0.6,1.3l0,0
	c1.6,3.4,4.1,5.8,5.6,7.1c0.2,0.2,0.4,0.4,0.6,0.5l0,0c0.3,0.2,0.5,0.4,0.7,0.5c0.1,0.1,0.2,0.1,0.2,0.1c1.5-1,5.6-1.2,5.6-1.2
	l9.7,2c2.1,0.4,4.3,0.7,6.4,0.8l1.1,0.1c0.6,0,1.3,0,2,0c0.5,0,1.1,0,1.7,0l0,0c1.8-0.1,3.7-0.2,5.5-0.6c1-0.2,2-0.4,2.9-0.7
	c0.7-0.2,1.4-0.5,2-0.8c6.8-3,5-9.9,3.9-13c-0.1-0.2-0.1-0.3-0.2-0.4c-0.3-0.6-0.4-1-0.4-1l-0.5-1.2l0,0l-0.7-2l-0.2-0.4v-0.1
	l-0.5-1.5l-7.7-1.1l-5.7-0.8l-1.7-0.2l-1.2-0.2l-2.2-0.3l-0.8-0.1c-0.5-0.1-1-0.1-1.6-0.1c-0.3,0-0.6,0-0.8,0.1
	c-0.6,0.3-5.3-0.5-5.3-0.5s-3.7-1.2-6.9-0.8c-1.6,0.1-3.2,0.1-4.8,0l0,0h-0.4h-0.5h-0.1C170.3,281.9,165.6,281.4,165.6,281.4z"/>
<path class="st4" d="M193.4,290c0,0,3.7,9.3,3.9,9.5c0.2,0.2,0.1,3.1,0,2.9s-5.3-12.8-5.3-12.8L193.4,290z"/>
<path class="st4" d="M175.5,282.1c0,0,1.9,1.3,2.4,2.4c0.6,1.1,5.7,11.8,7,13.4c1.1,1.4,2,2.9,2.9,4.5c0.1,0.3,0.1,2.1-0.8,0.4
	s-0.7-2-2.4-4.1c-1.8-2.1-3.7-6.9-4.5-7.8c-0.8-1-1.8-3.8-3.1-5.5l-2.5-3.2L175.5,282.1z"/>
<path class="st4" d="M175,300.6c0,0,1.3-1,2.6,0.7C178.8,303,175,300.6,175,300.6z"/>
<path class="st4" d="M173.4,301.1c0,0,1.1,2.1,1.6,2.3C175.5,303.5,173.4,301.1,173.4,301.1z"/>
<path class="st4" d="M175,301.6c0,0,0.9,1.7,1.6,1.5L175,301.6z"/>
<path class="st23" d="M181.1,256.8c0,0-8-0.4-8.7-0.7c-0.8-0.3-7.8-1.3-7.8-1.3s-20.7,1.6-14.8,3.6c5.9,2,13.9,1.1,13.9,1.1
	s7.8,2.2,9,3.4c1.2,1.2,10.1,1.2,10.1,1.2L181.1,256.8z"/>
<path class="st24" d="M181.1,256.8c0,0-8-0.4-8.7-0.7c-0.8-0.3-7.8-1.3-7.8-1.3s-20.7,1.6-14.8,3.6c5.9,2,13.9,1.1,13.9,1.1
	s7.8,2.2,9,3.4c1.2,1.2,10.1,1.2,10.1,1.2L181.1,256.8z"/>
<path class="st15" d="M209.4,236.8c0,0,7.3,2.7,3.8,9.7s-8.1,10.2-8.1,10.2l-11.7,9c0,0-4.9,3.1-7.2,1.8l-3.7-0.3l-0.6-10.7
	c0,0,3.1,2.7,6.5-1c3.4-3.7,7.5-6.2,7.8-8.2C196.5,245.3,205.2,235.1,209.4,236.8z"/>
<path class="st17" d="M186.4,259.3c0,0-3.8,1.5-3.6,1.6c0.1,0.1,3.6,1.5,3.6,1.5l-0.3,5.7l-5.1-0.3c0,0-1.9-10.3-0.3-11.4l5.7-0.3
	L186.4,259.3z"/>
<path class="st4" d="M186.4,259.3c0,0-3.8,1.5-3.6,1.6c0.1,0.1,3.6,1.5,3.6,1.5l-0.3,5.7l-5.1-0.3c0,0-1.9-10.3-0.3-11.4l5.7-0.3
	L186.4,259.3z"/>
<path class="st4" d="M194.1,228.6c0.5,0.6,0.9,1.3,1.2,2c0,0.1,0.1,0.2,0.1,0.3c2.8,0,4.7-2.4,6.4-4.5c0.3-0.4,1.1,0.2,1.3-0.2
	c0-0.1,0.1-0.1,0.1-0.2l-0.1-0.2c-0.9-1.9-1.6-3.6-1.6-3.6s-0.3,0.1-0.8,0.3C198.5,223.5,192.1,226.3,194.1,228.6z"/>
<path class="st23" d="M186,220.4c0,5.6,4.1,10.2,9.2,10.3h0.1c2.7,0,5.2-1.3,7-3.5c0.3-0.4,0.6-0.8,0.9-1.2
	c2.8-4.8,1.5-11.1-2.8-14.2c-4.3-3.1-10.1-1.7-12.9,3.1C186.6,216.5,186,218.4,186,220.4z"/>
<path class="st4" d="M195.5,284.1c0,0,0.7,1,1.5,1.8c0.6,0.7,1.2,1.3,1.6,1.5c0.9,0.4,5.2,3.9,5.2,3.9s3.4,2.5,4.2,3.3
	c0.9,0.7,4,0.3,4,0.3s3-0.7,4.9-2c-0.2-0.5-0.4-1-0.6-1.4l-2-5.2l-7.7-1.1L195.5,284.1z"/>
<path class="st17" d="M195.7,283.5c0,0,0.7,1,1.5,1.8c0.6,0.7,1.2,1.3,1.6,1.5c0.9,0.4,5.2,3.9,5.2,3.9s3.4,2.5,4.2,3.3
	c0.9,0.7,4,0.3,4,0.3s4.3-1,5.8-2.9c1.1-1.3,0-3.7-0.8-5.1c-0.3-0.6-0.6-0.9-0.6-0.9L195.7,283.5z"/>
<path class="st17" d="M190.1,251.3c2.6-0.2,11-11.6,11-11.6l-0.2-0.3l-1.8-2.7H195l-0.5,2.5c-3.1,4.9-5,8.2-5.5,10.2
	C188.7,250.8,189,251.5,190.1,251.3z"/>
<path class="st4" d="M190.1,251.3c2.6-0.2,11-11.6,11-11.6l-0.2-0.3c-1.5,1.5-2.9,3.2-4.2,4.9c-6.2,8-7.4,5.8-7.6,5.1
	C188.7,250.8,189,251.5,190.1,251.3z"/>
<path class="st4" d="M195.7,283.5c0,0,0.7,1,1.5,1.8c0.4,0.2,0.8,0.3,1.3,0.3c1,0,3.2,1.7,3.2,1.7s4-0.2,4.7,0.2
	c0.8,0.5,3.6,0.5,3.6,0.5c5.3,1.7,6.8-0.9,7.1-1.7c-0.3-0.6-0.6-0.9-0.6-0.9L195.7,283.5z"/>
<path class="st15" d="M186.5,258.8c0,0.2,0,0.3,0,0.5s0,0.3,0.1,0.5c0.1,0.8,0.3,1.7,0.7,2.4c0.7,1.2,2.7,6.1,2.7,6.1l0.1,0.9
	l0.1,0.5l0.1,0.5l0.5,3.3l0.2,3.8c0,0,1.2,1.9,1.8,2.7c0.5,0.8,0.5,2,0.3,2.9s1.7,1,1.7,1s2.7,1.5,3.7,1.4s3.2,1.7,3.2,1.7
	s4-0.2,4.7,0.2s3.6,0.5,3.6,0.5c5.7,1.8,6.9-1.2,7.2-1.9c0.3-0.6-1.1-3.1-1.1-3.1s-0.3-3.2-0.9-3.4c-0.6-0.2-1.3-4.5-1.3-4.5
	s0.2-1.3-0.3-2s-0.5-2.7-1.1-3.6c-0.6-1,0.7-4.1,0.4-5c-0.2-0.8,0.7-4.2,0.6-5.1s0.2-1.6,0.8-3.3c0.5-1.5,0.4-8.1,0.3-10
	c0-0.3,0-0.5,0-0.5s-0.5-1.9-1.9-5.6c-1.1-2.8-3.4-3.9-4.5-4.2c-0.2-0.1-0.4-0.1-0.6-0.2c-0.3,0-0.5,0.1-0.8,0.2
	c-1.1,0.4-3.3,1.6-6.4,4.8c-1.4,1.4-2.7,2.9-3.9,4.5c-7,9.1-7.6,4.9-7.6,4.9s-0.3,0.8-1.8,3.9C186.5,255.1,186.3,257.1,186.5,258.8z
	"/>
<path class="st4" d="M198.1,236.2l7.1-6.2c0,0,2.5,0.3,3.6,5.1l-7.3,7L198.1,236.2z"/>
<path class="st17" d="M198.1,236.2l1.2,1.9l1.3,2l0.9,1.5l5.8-5.4l1-1l0.6-0.5c-0.6-2.6-1.6-3.8-2.4-4.4c-0.4-0.3-0.8-0.5-1.2-0.6
	L198.1,236.2z"/>
<path class="st23" d="M149.5,260.9c5.9,1.9,13.9,1.1,13.9,1.1s7.8,2.2,9,3.4c0.8,0.7,4.7,1,7.4,1.1c1.5,0.1,2.6,0.1,2.6,0.1
	l-1.6-7.4h-1c-2.1-0.1-7.2-0.4-7.8-0.6c-0.8-0.3-7.8-1.3-7.8-1.3S143.6,258.9,149.5,260.9z"/>
<path class="st4" d="M186.6,259.7c0.1,0.8,0.3,1.7,0.7,2.4c0.7,1.2,2.7,6.1,2.7,6.1l0.3,1.8c1-0.4,1.9-0.9,2.8-1.4l11.7-9
	c0,0,4.5-3.3,8.1-10.2c3.5-7-3.8-9.7-3.8-9.7c-4.2-1.7-12.8,8.5-13.2,10.5s-4.5,4.5-7.8,8.2C187.6,258.9,187.1,259.4,186.6,259.7z"
	/>
<path class="st4" d="M186.5,258.8c0,0.3,0.1,0.6,0.1,0.9c0.1,0.8,0.3,1.7,0.7,2.4c0.7,1.2,2.7,6.1,2.7,6.1l0.1,0.9
	c1-0.4,2-0.9,2.9-1.5l11.7-9c0,0,4.5-3.3,8.1-10.2c3.5-7-3.8-9.7-3.8-9.7c-4.2-1.7-12.8,8.5-13.2,10.5s-4.5,4.5-7.8,8.2
	C187.6,258,187.1,258.4,186.5,258.8z"/>
<path class="st15" d="M181.6,259l0.6,10.7l3.7,0.3c0.1,0,0.2,0.1,0.3,0.1c2.3,0.9,6.9-1.9,6.9-1.9l11.7-9c0,0,4.5-3.3,8.1-10.2
	c3.5-7-3.8-9.7-3.8-9.7c-4.2-1.7-12.8,8.5-13.2,10.5s-4.5,4.5-7.8,8.2c-0.5,0.5-1.1,1-1.7,1.4C184.9,260.2,183,260.1,181.6,259z"/>
<path class="st4" d="M181.6,259l0.6,10.7l3.7,0.3c0.1,0,0.2,0.1,0.3,0.1l0.2-5.2c0,0-3.5-1.5-3.6-1.5c-0.2-0.1,3.6-1.6,3.6-1.6v-2.5
	C184.9,260.2,183,260.1,181.6,259z"/>
<path class="st4" d="M179.8,266.5c1.5,0.1,2.6,0.1,2.6,0.1l-1.7-7.3h-1C179.2,260.4,179.5,263.8,179.8,266.5z"/>
<path class="st17" d="M186.1,261.8c0,0-3.8,1.5-3.6,1.6c0.1,0.1,3.6,1.5,3.6,1.5l-0.3,5.7l-5.1-0.3c0,0-1.9-10.3-0.3-11.4l5.7-0.3
	L186.1,261.8L186.1,261.8z"/>
<path class="st4" d="M208.6,268.6c0,0,1.3,1.3,2.3,1.7L208.6,268.6z"/>
<path class="st4" d="M211.6,272.5c0,0-3.1-0.1-3.5-0.8C207.8,271,211.6,272.5,211.6,272.5z"/>
<path class="st4" d="M213.2,277.5c-0.2,0-3.9-0.6-4.1-1.1L213.2,277.5z"/>
<path class="st4" d="M214.3,280.6c-1.4,0-3.6-1.7-3.6-1.7L214.3,280.6z"/>
<path class="st4" d="M205.6,281.4c0,0-8.1,0-8.5-1.7C196.7,278.1,205.6,281.4,205.6,281.4z"/>
<path class="st4" d="M199.5,258.3c-0.2,0-6.4,0-7-1C191.8,256.4,199.5,258.3,199.5,258.3z"/>
<path class="st4" d="M206.4,231.1c-0.1,0.3-0.1,0.7-0.1,1c0,0.4,0,0.8,0.1,1.1c0.1,0.7,0.3,1.4,0.6,2.1l0.1,0.2
	c0.1,0.2,0.2,0.5,0.3,0.7c0.5,1,1,2,1.6,3c1.4,2.1,3,3.9,4.9,5.6c0.3,0.3,0.6,0.6,1,0.9c0-0.3,0-0.5,0-0.5s-0.5-1.9-1.9-5.6
	c-1.1-2.8-3.4-3.9-4.5-4.2l0.6-0.5c-0.6-2.6-1.6-3.8-2.4-4.4C206.5,230.6,206.4,230.8,206.4,231.1z"/>
<path class="st4" d="M187.4,215c0.1,0,0.2,0.1,0.3,0.1c0.6,0.4,0.8,1.2,1.2,1.7c0.6,0.6,1.4,0.7,2.2,0.8s1.7,0.3,2.1,1.1
	c0.3,0.6,0.3,1.3,0.4,1.9c0,0.1,0.1,0.2,0.1,0.3c0.1,0.1,0.2,0.1,0.4,0.1c1.5,0.1,2.7-0.5,4.1-0.9c0.7-0.2,1.5-0.2,2,0.3
	s0.6,1.2,0.6,1.9v0.1c-0.1,0.7-0.1,1.4-0.1,2c0.1,1.1,0.7,2,1.6,2.5c0.4,0.2,0.8,0.3,1.2,0.4c0.2,0,0.3,0,0.5-0.1
	c-0.3-0.5-0.5-1-0.8-1.5c2.8-4.8,1.6-11.1-2.8-14.2c-4.3-3.1-10.1-1.7-12.9,3C187.5,214.9,187.5,214.9,187.4,215L187.4,215z"/>
<path class="st16" d="M184.9,213.7c0.1,0.3,0.3,0.5,0.5,0.7c0.7,0.5,1.7-0.1,2.5,0.4c0.6,0.4,0.8,1.2,1.2,1.7
	c0.6,0.6,1.4,0.7,2.2,0.8c0.8,0.1,1.7,0.3,2.1,1.1c0.3,0.6,0.3,1.3,0.4,1.9c0,0.1,0.1,0.2,0.1,0.3c0.1,0.1,0.2,0.1,0.4,0.1
	c1.5,0.1,2.7-0.5,4.1-0.9c0.7-0.2,1.5-0.2,2,0.3s0.6,1.2,0.6,1.9c-0.1,0.7-0.1,1.4-0.1,2.1c0.2,1.5,1.4,2.7,2.8,2.9
	c0.2,0,0.4,0,0.6-0.2c0.1-0.1,0.2-0.2,0.2-0.4c1-3.2,1-6.7,2.3-9.8c0.2-0.4,0.4-0.9,0.5-1.4c0-0.1,0-0.2,0.1-0.3
	c0-0.2,0.1-0.4,0.1-0.6c0.1,0,0.2,0.1,0.4,0.2l0.1,0.1c0.2,0.3,0.3,0.7,0.3,1.1c0.2,4.3-0.1,8.6-1.1,12.7c-0.3,1-0.5,2.1-0.5,3.2
	c0,1.2,0.3,2.3,0.7,3.4c1.9,4.9,5.8,8.6,9.7,11.8c-0.8-1-1.2-2.2-1.2-3.5c0.1,0.5,0.5,0.9,1,1s0.9,0.1,1.4,0c-0.6-0.2-0.8-1-1-1.7
	c-0.3-1.4-0.6-2.7-0.8-4.1c-0.3-1.3-0.5-2.7-0.5-4c0-1.2,0-2.3,0.1-3.5c0.1-3.2,0-6.4-0.3-9.5c-0.2-2.7-0.6-5.7-2.5-7.6
	c-0.8-0.7-1.7-1.3-2.6-1.8c0-0.3-2.3-1-2.6-1.1c-0.1,0-0.3,0-0.4,0c-0.3-0.1-0.7,0.1-0.8,0.5c-0.1-0.2-0.2-0.4-0.4-0.6
	c-0.2-0.3-0.4-0.6-0.6-0.8c-1.2-1.4-2.7-2.4-4.1-3.7c-0.5-0.5-1-0.9-1.6-1.3c-0.8-0.4-1.6-0.7-2.4-0.7c-1.4-0.1-2.8,0.2-4.1,0.7
	c-1.9,0.8-3.5,2.2-5.5,2.8c-0.5,0.1-1,0.3-1.4,0.4c-1.8,0.8-2.6,3-1.9,4.9C184.7,213.5,184.8,213.6,184.9,213.7L184.9,213.7z"/>
<g class="st18">
	<path d="M216.2,244.3c-0.2-0.6-0.3-1.3-0.3-2c0.1,0.5,0.5,0.9,1,1c0.1,0,0.2,0.1,0.4,0.1c0.2,0.5,0.4,1.1,0.9,1.2
		c-0.5,0.1-0.9,0.1-1.4,0C216.5,244.6,216.3,244.5,216.2,244.3z"/>
	<path d="M184.6,211c0,0.5,0.1,1.1,0.4,1.6c0.1,0.3,0.3,0.5,0.5,0.7c0.7,0.5,1.7,0,2.5,0.4c0.6,0.4,0.8,1.2,1.2,1.7
		c0.6,0.6,1.4,0.7,2.2,0.8c0.8,0.1,1.7,0.3,2.1,1.1c0.3,0.6,0.3,1.3,0.4,1.9c0,0.3,0.2,0.5,0.4,0.5l0,0c1.5,0.1,2.7-0.5,4.1-0.9
		c0.7-0.2,1.5-0.2,2,0.3s0.6,1.2,0.6,1.9c-0.1,0.7-0.1,1.4-0.1,2.1c0.2,1.6,1.4,2.7,2.8,2.9c0.2,0,0.4,0,0.6-0.2
		c0.1-0.1,0.2-0.2,0.2-0.4c1-3.2,1-6.7,2.3-9.8c0.2-0.4,0.4-0.9,0.5-1.4c0.1-0.3,0.1-0.6,0.1-0.9c0.2,0,0.3,0.1,0.5,0.3
		c0.2,0.3,0.3,0.7,0.3,1.1c0.1,2.7,0,5.5-0.3,8.2c0.2-2.3,0.3-4.6,0.2-6.9c0-0.4-0.1-0.8-0.3-1.1c-0.1-0.2-0.3-0.3-0.5-0.3
		c0,0.3-0.1,0.6-0.1,0.9c-0.1,0.5-0.3,0.9-0.5,1.4c-1.2,3.1-1.2,6.6-2.3,9.8c0,0.1-0.1,0.3-0.2,0.4c-0.2,0.1-0.4,0.2-0.6,0.2
		c-1.4-0.1-2.6-1.3-2.8-2.9c0-0.7,0-1.4,0.1-2.1c0-0.7-0.1-1.5-0.6-1.9c-0.5-0.5-1.3-0.5-2-0.3c-1.4,0.4-2.6,1-4.1,0.9
		c-0.1,0-0.3,0-0.4-0.1s-0.1-0.2-0.1-0.3c-0.1-0.6-0.1-1.3-0.4-1.9c-0.4-0.7-1.3-1-2.1-1.1c-0.8-0.1-1.7-0.2-2.2-0.8
		c-0.5-0.5-0.6-1.4-1.2-1.7c-0.7-0.4-1.7,0.1-2.5-0.4c-0.2-0.2-0.4-0.4-0.5-0.7C184.4,213,184.4,212,184.6,211z"/>
	<path d="M206.6,230.6c0,1.2,0.3,2.3,0.7,3.4c1.7,4.4,5,7.8,8.5,10.8c0.1,0.9,0.5,1.7,1.1,2.4c-3.9-3.3-7.8-6.9-9.7-11.8
		c-0.5-1.1-0.7-2.2-0.7-3.4c0-0.5,0.1-1,0.2-1.5C206.6,230.5,206.6,230.6,206.6,230.6z"/>
</g>
<path class="st4" d="M206.2,211c0.3,1.4,0.7,3.3,0.9,4.2c0-0.2,0.1-0.4,0.1-0.6c0.1,0,0.2,0.1,0.3,0.2c0-1-0.1-2.5-0.2-3.6
	c-0.3-0.1-0.7,0.1-0.8,0.5C206.5,211.4,206.3,211.2,206.2,211z"/>
<path class="st17" d="M206.3,211c0.3,1.4,0.7,3.3,0.9,4.2c0-0.2,0.1-0.4,0.1-0.6c0.1,0,0.2,0.1,0.4,0.2c0-1-0.1-2.5-0.2-3.6
	c-0.3-0.1-0.7,0.1-0.8,0.5C206.6,211.4,206.5,211.2,206.3,211z"/>
<g class="st25">
	<path class="st26" d="M143.4,134.3H92.2v55h51.2V134.3z"/>
	<path class="st27" d="M145.7,131.7v60.2H89.8v-60.2H145.7z M143.3,134.3H92.1v55h51.3L143.3,134.3z"/>
	<path class="st27" d="M105.1,157c0.4-0.2,0.9-0.3,1.4-0.3c2.9,0,4.9,2.5,4.9,6.6c0,4.7-2,6.6-4.6,6.6c-0.5,0-1.1-0.1-1.6-0.3
		L105.1,157L105.1,157z M115.5,163.6c0-6-3.5-10.7-9.2-10.7c-0.4,0-0.8,0-1.2,0.1v-6.7c0-0.1-0.1-0.3-0.2-0.3l0,0h-3.7
		c-0.2,0-0.2,0.1-0.2,0.2v23.5c0,0.8,0,1.7-0.1,2.5c0,0.2,0,0.2,0.1,0.3c1.9,1,3.9,1.5,6,1.5C111.9,174.1,115.5,170.6,115.5,163.6
		L115.5,163.6z M123.5,159.4l-6.5,14c-0.1,0.2,0,0.4,0.1,0.4h4.1c0.2,0,0.4-0.1,0.5-0.3c1.5-3.4,3-6.9,4.6-10.6l0,0
		c1.4,3.4,2.9,7.2,4.4,10.6c0.1,0.2,0.2,0.3,0.4,0.3h3.9c0.2,0,0.3-0.2,0.1-0.4l-6.4-13.6l6.2-13.4c0.1-0.1,0.1-0.2,0-0.3
		c0,0-0.1-0.1-0.2-0.1h-4c-0.2,0-0.3,0.1-0.4,0.3c-1.5,3.4-3,6.8-4.4,10.2l0,0c-1.3-3.4-2.8-6.8-4.3-10.2c-0.1-0.2-0.2-0.3-0.4-0.3
		h-3.8c-0.2,0-0.3,0.2-0.1,0.4L123.5,159.4L123.5,159.4z"/>
</g>
<g class="st25">
	<path id="_x38_8e22766-bb2e-4d8a-8c4e-873561c02ed1" class="st28" d="M355.8,156.5l-17.5,37.8l29.4-37.8H355.8z"/>
	<path id="dcb2c17a-6570-4f03-a416-11c2a206e419" class="st28" d="M320.7,156.5l17.5,37.8l-29.4-37.8H320.7z"/>
	<path id="d2c5ae9b-dccc-4d4c-8aa0-840002be2480" class="st29" d="M355.8,156.5h-35l17.5,37.8L355.8,156.5z"/>
	<path id="_x36_16bf47a-f8e5-41ce-b525-03b6ad416eda" class="st30" d="M338.2,135.5l16.6,1.9l0.9,19L338.2,135.5z"/>
	<path id="ca73b31d-b223-4f6c-ac2e-edd2597912ec" class="st30" d="M338.2,135.5l-16.6,1.9l-0.9,19L338.2,135.5z"/>
	<path id="_x32_a7c7013-4804-45aa-950a-2b5376f70ef0" class="st29" d="M308.8,156.5l12.8-19l-0.9,19H308.8z"/>
	<path id="_x35_dac32ab-c712-4de9-a97f-2e05661e9f0b" class="st29" d="M367.7,156.5l-12.8-19l0.9,19H367.7z"/>
	<path id="_x32_d1bbfda-86f6-4da7-9bb0-15ddbbfa97e7" class="st31" d="M338.2,135.5l17.5,21h-35L338.2,135.5z"/>
</g>
</svg>
