<?xml version="1.0" encoding="utf-8"?>
<!-- Generator: Adobe Illustrator 22.0.1, SVG Export Plug-In . SVG Version: 6.00 Build 0)  -->
<svg version="1.1" id="Layer_1" xmlns="http://www.w3.org/2000/svg" xmlns:xlink="http://www.w3.org/1999/xlink" x="0px" y="0px"
	 viewBox="0 0 1300 400" style="enable-background:new 0 0 1300 400;" xml:space="preserve">
<style type="text/css">
	.st0{fill:url(#SVGID_1_);stroke:#000000;stroke-width:1.6452;stroke-miterlimit:10;}
	.st1{opacity:0.1;fill:#0D8CD8;enable-background:new    ;}
	.st2{fill:#EAECF0;}
	.st3{fill:#3A3768;}
	.st4{opacity:0.1;enable-background:new    ;}
	.st5{fill:#8282BC;}
	.st6{fill:#F9E1E5;}
	.st7{fill:#E2B3BF;}
	.st8{fill:#DFE6F5;}
	.st9{opacity:0.15;enable-background:new    ;}
	.st10{fill:#838396;}
	.st11{fill:#D1D9EC;}
	.st12{fill:#4C4C56;}
	.st13{fill:#9E9EAF;}
	.st14{fill:#74BEE2;}
	.st15{fill:url(#SVGID_2_);}
	.st16{fill:url(#SVGID_3_);}
	.st17{fill:#D38884;}
	.st18{fill:#A36468;}
	.st19{fill:#ADADAD;}
	.st20{fill:#C9CBD3;}
	.st21{fill:#67647E;}
	.st22{fill:#B6B6B7;}
	.st23{fill:#7F7F84;}
	.st24{fill:#5B5A63;}
	.st25{fill:#BCBCBC;}
	.st26{fill:#777484;}
	.st27{opacity:0.1;}
	.st28{fill:#D3DAE1;}
	.st29{fill:#D48A9B;}
	.st30{fill:#FFFFFF;}
	.st31{fill:#D5E1F4;}
	.st32{fill:url(#SVGID_4_);}
	.st33{fill:#EFB7B9;}
	.st34{opacity:5.000000e-02;enable-background:new    ;}
	.st35{fill:#585759;}
	.st36{fill:#C9C7C7;}
	.st37{fill:#B7B7B7;}
	.st38{fill:#818084;}
	.st39{opacity:0.7;}
	.st40{fill:#891866;}
	.st41{fill:#FF2BC2;}
	.st42{fill:#F29CDE;}
	.st43{fill:#EF9552;}
	.st44{fill:#E2823B;}
	.st45{fill:#EFCA7F;}
	.st46{fill:#FDD231;}
	.st47{fill:#F9DA78;}
	.st48{fill:#F4C973;}
	.st49{fill:#FEEEB7;}
</style>
<linearGradient id="SVGID_1_" gradientUnits="userSpaceOnUse" x1="2420.2388" y1="200" x2="2600" y2="200" gradientTransform="matrix(7.2318 0 0 1 -17502.7227 0)">
	<stop  offset="0" style="stop-color:#00354D"/>
	<stop  offset="0.4129" style="stop-color:#00364F"/>
	<stop  offset="0.5616" style="stop-color:#003C56"/>
	<stop  offset="0.6676" style="stop-color:#004561"/>
	<stop  offset="0.7534" style="stop-color:#005272"/>
	<stop  offset="0.8268" style="stop-color:#006388"/>
	<stop  offset="0.8918" style="stop-color:#0078A4"/>
	<stop  offset="0.9492" style="stop-color:#0091C3"/>
	<stop  offset="1" style="stop-color:#00ACE6"/>
	<stop  offset="1" style="stop-color:#0093C7"/>
	<stop  offset="1" style="stop-color:#0075A3"/>
	<stop  offset="1" style="stop-color:#005B83"/>
	<stop  offset="1" style="stop-color:#004567"/>
	<stop  offset="1" style="stop-color:#003351"/>
	<stop  offset="1" style="stop-color:#002540"/>
	<stop  offset="1" style="stop-color:#001B35"/>
	<stop  offset="1" style="stop-color:#00162E"/>
	<stop  offset="1" style="stop-color:#00142C"/>
</linearGradient>
<rect class="st0" width="1300" height="400"/>
<path class="st1" d="M61.2,225.5h28.2V189H76.8c0.3-0.4,0.6-0.7,0.9-1.1h11.6v-11.6c2.3-2,4.8-4,7.3-5.8V188h65.1v-38.4h-29
	c0.8-0.4,1.6-0.7,2.4-1.1h26.6v-10.4c2.4-0.8,4.9-1.6,7.3-2.4v12.8h92.9l0.2-0.2l-26.9-25.9c3-0.3,5.9-0.6,8.9-0.9l18.6,18v-19.3
	c2.4-0.1,4.9-0.2,7.3-0.3v20.9l22-21.3c3.3,0,6.5,0,9.8,0.1l-29.9,28.9l0.2,0.2h89v-25.5c2.4,0.3,4.9,0.7,7.3,1v24.5h57.2
	c0.3,0.4,0.6,0.7,0.9,1.1h-58.1v38.4h60.2c-0.2,0.4-0.4,0.8-0.6,1.1h-59.5v36.5h29.3c0.4,0.4,0.8,0.8,1.2,1.1h-30.5V264
	c-2.4,0.3-4.9,0.7-7.3,1.1v-38.5h-91.1v46.8c-2.4,0-4.9,0-7.3,0.1v-46.9h-93.7v57.3h-0.3c-2.3,0.3-4.7,0.5-7,0.7v-58.1h-65v56.6
	c-0.6-0.1-1.1-0.2-1.7-0.3c-0.5-0.1-1-0.2-1.6-0.3c-1.4-0.3-2.7-0.6-4.1-0.9v-55H61C61.1,226.2,61.1,225.8,61.2,225.5z M270,225.5
	h91.1V189H270V225.5z M270,187.8h91.1v-38.4h-89.8l-1.3,1L270,187.8L270,187.8z M169,225.5h93.7V189H169V225.5z M169,187.8h93.7
	v-38.4H169V187.8z M96.7,225.5h65V189h-65V225.5z"/>
<path class="st2" d="M340.1,277v0.1l0,0C340.2,277.1,340.1,277,340.1,277L340.1,277z"/>
<path class="st2" d="M338.4,275.4h0.9l0,0h1.1h1.5l0.2-1.8l0.2-1.7l0.7-7.7V264v0l0.2-2.1l-3.1-1.2l-0.4,3.1v0.2l0,0l-0.8,6.3
	l-0.2,1.9l-0.1,1.1l-0.1,1l0,0L338.4,275.4z"/>
<polygon class="st3" points="327.4,277 327.3,277.1 327.6,277.1 327.6,277 "/>
<path class="st3" d="M299.1,277.1L299.1,277.1L299.1,277.1z"/>
<path class="st3" d="M279.5,232.7c0,0.1,0,0.1,0,0.1l0,0c0,0,2.9,8,3.8,14.8c0.1,0.4,0.1,0.9,0.2,1.3c0,0.5,0.1,0.9,0.1,1.4
	s0,1,0,1.5c0,0.1,0,0.2,0,0.3c0,0.2,0,0.5,0,0.7s0,0.5-0.1,0.7c0,0.3,0,0.5-0.1,0.7c-0.7,7.4-3.4,18.2-3.4,18.2s-0.1,0.3-0.2,0.8
	h0.8c4.7,0.1,9.3,0.2,14,0.4h0.8h0.3c9.9,0.4,19.8,0.8,29.7,1.2l2.4,0.1h0.4c3.4,0.1,6.9,0.2,10.3,0.3h0.9c-0.2-0.3-0.5-0.6-0.8-0.9
	c-0.3-0.2-0.5-0.4-0.8-0.6c-1.6-1-3.3-1.7-5.1-2.2c-0.4-0.1-0.8-0.2-1.2-0.1h-2.3h-0.4l-3.5,0.1l-30.4,0.6h-0.1h-0.2
	c-0.4-0.1-0.7-0.2-1-0.4c-1.2-0.5-2-1.6-2.2-2.9c0-0.1,0-0.2,0-0.3c0-0.2,0-0.3,0-0.5c0-0.1,0-0.2,0-0.4c0-0.1,0-0.2,0.1-0.4
	c0.7-4.2,2-17,2-17l0,0c0,0,0-0.5,0-1.5c0-0.1,0-0.1,0-0.2v-0.2c0-0.2,0-0.4,0-0.7c0-0.1,0-0.3,0-0.4c0-0.2,0-0.5-0.1-0.7l0,0
	c0-0.2,0-0.3,0-0.5s0,0,0-0.1c-0.5-5-2-12.8-6.9-15.7c-2.3-1.4-3.8-1.6-4.8-1.4c-1.5,0.4-1.8,1.9-1.9,3c0,0.1,0,0.1,0,0.2
	C279.5,232.3,279.5,232.5,279.5,232.7z"/>
<path class="st4" d="M340.1,277v0.1l0,0C340.2,277.1,340.1,277,340.1,277L340.1,277z"/>
<polygon class="st4" points="327.4,277 327.3,277.1 327.6,277.1 327.6,277 "/>
<path class="st4" d="M299.1,277.1L299.1,277.1L299.1,277.1z"/>
<path class="st4" d="M279.5,232.7c0,0.1,0,0.1,0,0.1s2.4,6.6,3.5,12.9l0,0c0.1,0.4,0.2,0.9,0.2,1.3c0,0.2,0.1,0.4,0.1,0.6
	c0.1,0.4,0.1,0.9,0.2,1.3c0,0.5,0.1,0.9,0.1,1.4s0,1,0,1.5c0,0.1,0,0.2,0,0.3c0,0.2,0,0.5,0,0.7s0,0.5-0.1,0.7c0,0.3,0,0.5-0.1,0.7
	s0,0.5-0.1,0.7c-0.1,0.9-0.2,1.9-0.4,3c-1,6.9-2.9,14.5-2.9,14.5s-0.1,0.3-0.2,0.8l0,0h0.8c4.7,0.1,9.3,0.2,14,0.4h0.8h0.3
	c9.9,0.4,19.8,0.8,29.7,1.2l2.4,0.1h0.4c3.4,0.1,6.9,0.2,10.3,0.3h0.9l0,0c-0.2-0.3-0.5-0.7-0.8-0.9c-0.3-0.2-0.5-0.5-0.8-0.6
	c-1.6-1-3.3-1.7-5.1-2.2c-0.4-0.1-0.8-0.1-1.2-0.1h-2.3h-0.4l-3.6,0.1l-30.5,0.6h-0.1c0,0-0.1,0-0.2-0.1c-0.4-0.1-0.7-0.2-1-0.4
	c-1.1-0.5-1.9-1.5-2.1-2.8c0-0.1,0-0.2,0-0.3c0-0.2,0-0.3,0-0.5c0-0.1,0-0.2,0-0.4c0-0.1,0-0.3,0.1-0.4c0.7-4.2,2-17,2-17
	s0-0.5,0-1.5c0-0.1,0-0.1,0-0.2v-0.2c0-0.2,0-0.4,0-0.7c0-0.1,0-0.3,0-0.4c0-0.2,0-0.5-0.1-0.7l0,0c0-0.2,0-0.3,0-0.5s0,0,0-0.1
	c-0.1-0.6-0.1-1.3-0.2-2c-0.7-4.9-2.4-11.2-6.7-13.8c-2.2-1.3-3.7-1.6-4.7-1.4c-1.6,0.4-1.9,2-2,3c0,0.1,0,0.1,0,0.2
	C279.5,232.3,279.5,232.5,279.5,232.7z"/>
<path class="st3" d="M340.1,277v0.1l0,0C340.2,277.1,340.1,277,340.1,277L340.1,277z"/>
<polygon class="st3" points="327.4,277 327.3,277.1 327.6,277.1 327.6,277 "/>
<path class="st3" d="M299.1,277.1L299.1,277.1L299.1,277.1z"/>
<path class="st5" d="M280.4,232.4c0,0,4.3,12,4.1,19.1c-0.2,7.2-3.6,20.6-3.6,20.6s-0.1,0.5-0.3,1.2c4.7,0.1,9.3,0.2,14,0.4h0.8h0.3
	c9.9,0.4,19.8,0.8,29.7,1.2l2.4,0.1h0.4c3.4,0.1,6.9,0.2,10.3,0.3h0.9l0,0h1.1c-0.5-0.8-1.1-1.4-1.8-1.9l-0.1-0.1
	c-1.6-1-3.3-1.7-5.1-2.1c-0.4-0.1-0.8-0.1-1.2-0.1l-3,0.1h-0.4l-3.7,0.1l-29.7,0.6c-0.4-0.1-0.8-0.2-1.2-0.4
	c-0.1-0.1-0.3-0.1-0.4-0.2l0,0c-0.4-0.2-0.7-0.5-1-0.8c-0.6-0.7-1-1.8-0.8-3.4c0.7-4.2,2-17,2-17s0.2-15.6-7.1-20
	c-3-1.8-4.7-1.7-5.6-1c0,0-0.1,0-0.1,0.1C280.1,230.1,280.4,232.4,280.4,232.4z"/>
<path class="st2" d="M399,261.8l0.1,1.2l0.7,7.7c1.1-0.2,2.2-0.5,3.4-0.7l-0.9-7l-0.3-2.4L399,261.8z"/>
<polygon class="st6" points="420.1,259.4 402.1,220.4 329.6,226.2 323,259.4 "/>
<polygon class="st7" points="420.1,262.7 420.1,259.4 323,259.4 323,264.3 "/>
<path class="st8" d="M392.7,253.7l-43.5,0.9c-0.3,0-0.6-0.3-0.6-0.6c0-0.1,0-0.1,0-0.2l6.8-18.6l29.3-0.6l8.7,18
	c0.2,0.4,0,0.8-0.4,1C392.9,253.6,392.8,253.7,392.7,253.7z"/>
<path class="st9" d="M392.7,253.7l-43.5,0.9c-0.3,0-0.6-0.3-0.6-0.6c0-0.1,0-0.1,0-0.2l6.8-18.6l29.3-0.6l8.7,18
	c0.2,0.4,0,0.8-0.4,1C392.9,253.6,392.8,253.7,392.7,253.7z"/>
<path class="st8" d="M393,252.9l-43.9,0.9l6-18.4c0.2-0.6,0.8-1,1.4-1l28.2-0.5L393,252.9z"/>
<path class="st10" d="M389.4,248.7l-5.3-11.8c-0.2-0.5-0.7-0.8-1.3-0.8h-13.1c-0.8,0-1.4,0.6-1.4,1.4v12.7c0,0.8,0.6,1.4,1.4,1.4
	c0,0,0,0,0.1,0l18.3-0.9c0.8,0,1.4-0.7,1.3-1.5C389.5,249.1,389.5,248.9,389.4,248.7z"/>
<path class="st11" d="M363.6,247.2l-0.2-6.7c0-0.6-0.5-1-1-1h-3.9c-0.5,0-0.9,0.4-1,0.8l-1.1,6.7c-0.1,0.6,0.3,1.1,0.8,1.2
	c0.1,0,0.1,0,0.2,0h5.2C363.2,248.3,363.6,247.8,363.6,247.2C363.6,247.3,363.6,247.3,363.6,247.2z"/>
<path class="st12" d="M414.8,203.5l-14.6-1.2c-0.4-0.1-0.9,0.2-1,0.6l-13.8,31.7l7.7,17.6c-0.2-0.5-0.4,3.7,1.3,0l21.9-46.5
	C416.7,205.1,415.5,203.6,414.8,203.5z"/>
<path class="st9" d="M414.8,203.5l-14.6-1.2c-0.4-0.1-0.9,0.2-1,0.6l-13.8,31.7l7.7,17.6c-0.2-0.5-0.4,3.7,1.3,0l21.9-46.5
	C416.7,205.1,415.5,203.6,414.8,203.5z"/>
<path class="st13" d="M414.8,203.5l-15.3-2c-0.4-0.1-0.9,0.2-1,0.6l-13.8,31.7l8.3,19l22.6-47.8c0.2-0.5,0-1.1-0.5-1.3
	C415,203.6,414.9,203.6,414.8,203.5z"/>
<path class="st14" d="M411,205.8l-11.1-1.7c-0.5-0.1-0.9,0.2-1.1,0.6l-11.6,28.9c-0.1,0.2-0.1,0.5,0,0.7l5.3,11.3
	c0.2,0.5,0.7,0.6,1.2,0.4c0.2-0.1,0.3-0.2,0.4-0.4l17.5-38.3c0.2-0.5,0-1.1-0.5-1.3C411.2,205.8,411.1,205.8,411,205.8z"/>
<linearGradient id="SVGID_2_" gradientUnits="userSpaceOnUse" x1="156.3623" y1="106.87" x2="156.3623" y2="106.87" gradientTransform="matrix(-7.2318 0 0 -1 1429.8834 383.97)">
	<stop  offset="0" style="stop-color:#808080;stop-opacity:0.25"/>
	<stop  offset="0.54" style="stop-color:#808080;stop-opacity:0.12"/>
	<stop  offset="1" style="stop-color:#808080;stop-opacity:0.1"/>
</linearGradient>
<path class="st15" d="M299.1,277.1L299.1,277.1L299.1,277.1z"/>
<linearGradient id="SVGID_3_" gradientUnits="userSpaceOnUse" x1="144.8438" y1="155.8718" x2="157.2196" y2="155.8718" gradientTransform="matrix(-7.2318 0 0 -1 1429.8834 383.97)">
	<stop  offset="0" style="stop-color:#808080;stop-opacity:0.25"/>
	<stop  offset="0.54" style="stop-color:#808080;stop-opacity:0.12"/>
	<stop  offset="1" style="stop-color:#808080;stop-opacity:0.1"/>
</linearGradient>
<path class="st16" d="M292.9,270.7c0,0,0.2,0.4,0.6,1v0.1c0.3,0.5,0.7,1.2,1,2h0.8h0.3c9.9,0.4,19.8,0.8,29.7,1.2l2.4,0.1h0.4
	c3.4,0.1,6.9,0.2,10.3,0.3h0.9l0,0h1.1h1.5c1.6,0,3.2,0,4.8,0h1.9c5.8,0,11.6-0.1,17.4-0.4h0.6c-1.1-2.5-3.2-6.6-4.8-7.9
	c-1.3-1-10.4-2.1-18.8-3l-0.9-0.1l0,0l-2.3-0.2c-3.2-0.3-6.1-0.5-8.2-0.7h-0.2l1.1-3.7l1.5-5.4l-0.5-4.5v-0.4l0,0
	c0.5,0,0.9,0,1.3-0.2l15.7-0.5h0.3l0,0l6-0.2l0,0c3.2-0.1,5.5-0.2,5.6-0.2s0.2,0,0.3-0.1s0.3-0.1,0.4-0.2c0.1-0.1,0.2-0.2,0.3-0.4
	h0.1h0.1l0.9,0.1h0.4v-0.1c0-0.1,0.1-0.3,0.1-0.4h0.2l3-0.1h0.1c0,0,7.7,0.6,11.7-0.9l0,0c1.5-0.5,2.4-1.4,2.4-2.6
	c0-0.3-0.1-0.6-0.2-0.8c1.3-2.5-5-6.9-9.8-5.7c-1.3,0.4-2.7,0.4-4,0.2c-0.7-0.2-1.4-0.5-2-0.9c-0.1,0-0.1-0.1-0.2-0.1
	c0.1-0.1,0.2-0.1,0.2-0.1c0.3-0.2,0.7-0.3,1.1-0.4l-1.3-0.4l0,0c0,0-4.6-0.4-7.6-0.6l0,0c-0.9,0-1.7-0.1-2.1-0.1
	c-2,0.1-5.8-1.4-6-1.8c-0.2-0.4-1.9,0-1.9,0L347,232c-1.6-0.6-2.4-1.4-2.4-2s-1.4-1.3-1.4-1.3c-0.6-1.1-1.8-2.2-3.1-3.2
	c-1.1-0.9-2.2-1.6-3.1-2.2c-0.3-2.2-0.8-4.3-1.3-6.4c-0.6-2-2.4-3.5-3-3.9l-0.2-0.2c0.2-0.8,0.4-1.6,0.7-2.5c0-0.1,0-0.1,0.1-0.2
	c0.1-0.2,0.1-0.3,0.2-0.5l0.1-0.2c0.2,0,0.3,0.1,0.5,0.1c0.6,0.1,1.1,0.1,1.7,0.1c5.1,0,9.6-3.4,10.9-8.4l0,0c0.3-1,0.4-2,0.4-3
	s-0.1-1.9-0.4-2.9l0,0c0-0.2-0.1-0.4-0.2-0.6c0,0,0,0,0-0.1s-0.1-0.2-0.1-0.3c0.5,0.1,1,0.1,1.5,0.1h0.3c1,0,1.9-0.1,2.8-0.5l0,0
	c0.2-0.1,0.4-0.2,0.6-0.3l0,0c0.3-0.1,0.5-0.3,0.7-0.5c-0.7-0.6-1.2-1.4-1.4-2.4c-0.1-0.7,0-1.5-0.4-2.1c-0.2-0.3-0.5-0.5-0.8-0.7
	c-1.8-1.2-3.1-2.9-4.8-4.3c-1.6-1.4-3.5-2.7-5.6-2.8c-2.9-0.1-5.4,1.9-8.2,2.3c-0.9,0.1-1.8,0.1-2.6,0.3c-1,0.3-1.8,0.8-2.6,1.4
	c-0.7,0.4-1.4,1-1.9,1.6c-0.4,0.6-0.6,1.2-0.8,1.9c-0.4,1.4-0.6,2.9-0.7,4.3c-0.1,1.5,0,3.1-0.2,4.6c-0.1,1.3-0.6,2.6-1.3,3.7l0,0
	c-0.1,0.2-0.3,0.3-0.4,0.5c0.3,0.1,0.6,0.2,0.9,0.2c0.5,0.1,1,0.2,1.5,0.3c0.2,0,0.5,0.1,0.7,0.1s0.3,0,0.5,0l-0.3,0.2l-0.8,0.5l0,0
	l-0.3,0.2l-0.6,0.4c-0.1-0.4-0.3-0.5-0.6-0.5c-0.5-0.4-1.1,0.5-1.1,0.5c-0.4,0.8-1.5,1.5-2.4,2.1c-0.6,0.3-1.1,0.6-1.7,0.9
	c-12.4,7.5-11.6,18.7-12.3,19.5s-0.8,4.1-0.8,4.1s-1.8,10.9-2.6,11.9c-0.8,0.9-0.1,1.3-0.8,2.3s-0.6,3.9-0.6,3.9s-0.5,6.7-2.2,8.1
	c-1.6,1.3-3.7,12.2-4.1,14.4L292.9,270.7z"/>
<path class="st17" d="M365.3,235.7c0,0,1.7,2.8,6.6,1.5c4.9-1.3,11.3,3.5,9.4,5.9c-1.8,2.4-13.6-0.7-13.6-0.7l-4.5-0.9l0.3-3.8
	L365.3,235.7z"/>
<path class="st4" d="M365.3,235.7c0,0,1.7,2.8,6.6,1.5c4.9-1.3,11.3,3.5,9.4,5.9c-1.8,2.4-13.6-0.7-13.6-0.7l-4.5-0.9l0.3-3.8
	L365.3,235.7z"/>
<path class="st18" d="M363.7,235.6l2.1-0.1l1.3,0.4c0,0-4.1,0.6-3,6.2l-4.4-0.3L363.7,235.6z"/>
<path class="st4" d="M363.7,235.6l2.1-0.1l1.3,0.4c0,0-4.1,0.6-3,6.2l-4.4-0.3L363.7,235.6z"/>
<path class="st19" d="M335.8,222.9c0,0,5.8,3.4,7.4,6.1c0,0,1.4,0.7,1.4,1.3s0.9,1.4,2.4,2l1.5,0.6c0,0,1.7-0.4,1.9,0
	s3.9,1.8,5.9,1.8c1.9,0,9.5,0.7,9.5,0.7c-2.9,1.3-4.5,4.5-3.8,7.6l-18-0.8l-6.8-1.5l-4-4.1L335.8,222.9z"/>
<path class="st17" d="M362.3,247.2l2.5-0.1l3-0.1c0,0,14,1.1,13.8-3.5c-0.3-4.6-11.1-6.2-12.6-4.9c-1.1,1-3.8,1.8-5,2.1
	c-0.4,0.1-0.6,0.2-0.6,0.2L362.3,247.2z"/>
<path class="st4" d="M362.3,247.2l2.5-0.1c1-3.5-0.2-5.5-0.8-6.2c-0.4,0.1-0.6,0.2-0.6,0.2L362.3,247.2z"/>
<path class="st18" d="M360.6,247.4l2.6,0.2l1.3,0.1c1.7-5.2-1.1-7.2-1.1-7.2h-0.8l-1.4,0.2L360.6,247.4z"/>
<path class="st17" d="M328.6,213.2l3.1,6c0,0,0.5-6.1,1.9-9c0.4-0.7,0.8-1.3,1.3-1.4c1.3-0.4-6.3-8.9-6.3-8.9
	c-0.3,0.1-1.7,1-3.5,2.3c-1.9,1.3-4.3,3-5.9,4C316.2,208.1,328.6,213.2,328.6,213.2z"/>
<path class="st20" d="M332.6,213.3c0,0,2.5,1.6,3.2,4.1s1.4,6.8,1.4,6.8s-1.1,10.4-1.7,10.8c-0.6,0.5-2.8,10.8-2.8,10.8l-2.2-1.5
	l2.9-13.1C333.3,231.3,331.4,214.5,332.6,213.3z"/>
<polygon class="st18" points="321.7,236.4 334.3,236.4 332.2,216.3 321.7,216.3 "/>
<path class="st21" d="M350.8,277h-0.2l0.3,0.1L350.8,277z"/>
<path class="st22" d="M327.2,267.8l2.5,1l0.3,0.1l8.9,3.5l3.4,1.3l4.6,1.8h1.9c5.8,0,11.6-0.1,17.4-0.4c-1.1-2.5-3.1-6.5-4.7-7.8
	c-1.3-1-10.1-2.1-18.3-2.9c-1-0.1-2-0.2-3-0.3H340c-3.3-0.3-6.2-0.5-8.3-0.7h-0.3l-2.6-0.2l-0.3-0.3l-0.3,1.4l-0.3,1.1L327.2,267.8z
	"/>
<path class="st4" d="M350.8,277h-0.2l0.3,0.1L350.8,277z"/>
<path class="st21" d="M350.8,277h-0.2l0.3,0.1L350.8,277z"/>
<path class="st21" d="M340.1,277v0.1l0,0C340.2,277.1,340.1,277,340.1,277L340.1,277z"/>
<polygon class="st21" points="327.3,277.1 327.6,277.1 327.6,277 327.4,277 "/>
<path class="st23" d="M325,264.3l0.2,6.9v0.4l0,0l0.1,3.4l2.4,0.1h0.4c3.4,0.1,6.9,0.2,10.3,0.3h0.9l0,0h1.1h1.5c1.6,0,3.2,0,4.8,0
	h1.9c-1.7-1.1-3.9-2.3-6.3-3.5c-1.1-0.5-2.2-1.1-3.3-1.6c-3-1.4-6-2.7-8.4-3.8l-0.3-0.1c-1-0.4-1.8-0.8-2.5-1.1
	C326.1,264.7,325.1,264.3,325,264.3L325,264.3z"/>
<path class="st4" d="M347.1,235.9c-0.6,1.3-1.3,2.7-2.3,3.7c-0.2,0.2-0.4,0.3-0.6,0.1c0-0.1-0.1-0.2-0.1-0.2c0-0.6,0.2-1.2,0.6-1.7
	c0.3-0.5,0.7-1,1-1.5s0.6-1.6,1.3-1.7C347.9,234.3,347.3,235.5,347.1,235.9z"/>
<path class="st4" d="M325.1,202.1c0,0.2,0.1,0.3,0.2,0.5c1.3,3.9,4.4,6.8,8.4,7.6c0.4-0.7,0.8-1.3,1.3-1.4c1.3-0.4-6.3-8.9-6.3-8.9
	C328.3,200,326.9,200.9,325.1,202.1z"/>
<path class="st17" d="M324.7,198.9c0,6.2,5,11.3,11.1,11.3s11.1-5.1,11.1-11.3s-5-11.3-11.1-11.3S324.7,192.6,324.7,198.9
	L324.7,198.9z"/>
<path class="st21" d="M331.6,215.7c0,0,2.3,2.9,1.9,4.7h-2.8l-2-2.4L331.6,215.7z"/>
<path class="st4" d="M323.4,203.7l8.8,12.3c0,0-2.3,3.3-3.3,3.5c-1.1,0.2-7.2-14.6-7.2-14.6L323.4,203.7z"/>
<path class="st18" d="M323.2,203.4l8.8,12.4c0,0-2.3,3.3-3.3,3.5c-1.1,0.2-7.2-14.6-7.2-14.6L323.2,203.4z"/>
<path class="st24" d="M333.2,219.2c0,0,0.4,6.9,0.9,8.3s0,14,0,14l-4.1-1.7l0.7-19.4L333.2,219.2z"/>
<polygon class="st4" points="327.4,277 327.3,277.1 327.6,277.1 327.6,277 "/>
<path class="st4" d="M299.1,277.1L299.1,277.1L299.1,277.1z"/>
<path class="st4" d="M294.2,271c0,0,0.1,0.1,0.2,0.3c0.1,0.2,0.3,0.5,0.4,0.8l0,0c0.2,0.5,0.5,1,0.8,1.6c9.9,0.4,19.8,0.8,29.7,1.2
	l2.4,0.1h0.4l1-3.6l0,0l0.1-0.4l0.7-2.3l0.7-2.3l0.7-2.4l0.3-0.9l0.1-0.2l1.1-3.7l1.5-5.1l-0.5-4.8l0,0v-0.4l-0.4-4.3l-0.1-1.3l0,0
	v-0.7v-0.2l0,0l-0.1-1.5l-0.2-4.6l-0.1-2.4l0,0v-0.4l0,0l-0.2-4.8l-0.6-1.9l-0.3-1l-0.7-2.3l-0.2-0.6l0,0c-0.2-0.8-0.7-2.5-1.1-4.1
	l0,0v-0.1l0,0v-0.1l-0.3-1.1l-0.4-1.5c-0.1-0.6-0.2-1-0.3-1.1c0-0.2-0.7-1.3-1.5-2.7l0,0c-1.7-2.8-4.1-6.9-4.4-8.2l0,0
	c0-0.1,0-0.2-0.1-0.2c-0.1-0.4-0.3-0.5-0.5-0.5c-0.1,0-0.2,0.1-0.3,0.1c-0.2,0.1-0.4,0.3-0.5,0.5c-0.4,0.7-1.4,1.5-2.3,2.1l-0.2,0.1
	l-0.1,0.1c-0.8,0.4-1.4,0.7-1.4,0.7c-12.1,7.4-11.3,18.5-12,19.4s-0.8,4.1-0.8,4.1s-1.8,10.8-2.6,11.8c-0.8,0.9-0.1,1.3-0.8,2.3
	s-0.5,3.8-0.5,3.8s-0.5,6.6-2.2,8C296.6,257.7,294.2,271,294.2,271z"/>
<path class="st20" d="M293.8,270.9l0.1,0.3l0,0c0.1,0.2,0.3,0.5,0.5,0.9l0,0c0.3,0.5,0.6,1,0.8,1.7h0.3c9.9,0.4,19.8,0.8,29.7,1.2
	l2.4,0.1l1-3.6l0,0l0.1-0.4l0.7-2.4l0.7-2.3l0.7-2.3l0.3-0.9l0,0l1.1-3.9l1.5-5.2l-0.4-4.2l-0.1-0.6l-0.5-4.8l0,0l-0.2-3.7l-0.2-4.5
	l-0.1-1.2l-0.1-1.4v-0.6l-0.2-4.5l-0.6-1.9l-0.3-0.8l-0.6-1.9l-0.1-0.4c0,0-0.6-2.2-1.2-4.4c0-0.1,0-0.2-0.1-0.2
	c-0.1-0.2-0.1-0.4-0.2-0.6l0,0c-0.1-0.2-0.1-0.4-0.2-0.6c-0.2-0.6-0.3-1.2-0.4-1.6c-0.2-0.6-0.3-1.1-0.3-1.2c0-0.2-0.7-1.3-1.5-2.7
	c-1.6-2.6-3.8-6.4-4.3-7.9c0-0.1,0-0.2-0.1-0.2l0,0c0-0.2-0.1-0.5-0.3-0.7c-0.4-0.4-1.1,0.5-1.1,0.5c-0.4,0.7-1.4,1.5-2.3,2.1
	c-0.5,0.3-1.1,0.6-1.7,0.9c-12.1,7.4-11.3,18.5-12,19.4s-0.8,4.1-0.8,4.1s-1.8,10.8-2.6,11.8s-0.1,1.3-0.8,2.3s-0.5,3.8-0.5,3.8
	s-0.5,6.6-2.2,8C296.2,257.8,293.8,270.9,293.8,270.9z"/>
<path class="st4" d="M318.5,206.2c1.2,1.7,3.1,4.8,3.6,7.1c0,0,1.9,2,2.6,1.9c0.7-0.1-0.7,1.5-0.7,1.5l7.4,10.4l-1.1-3.2
	c0,0-2.2-7.9-2.3-8.6s-5.5-8.9-5.9-10.9c-0.3-1.6-1.4-0.2-1.4-0.2C320.5,204.9,319.4,205.7,318.5,206.2z"/>
<path class="st25" d="M318.5,206c1.2,1.7,3.1,4.8,3.6,7.1c0,0,1.9,2,2.6,1.9c0.7-0.1-0.7,1.5-0.7,1.5l7.4,10.4l-1.1-3.2
	c0,0-2.2-7.9-2.3-8.6c-0.1-0.7-5.5-8.9-5.9-10.9c-0.3-1.6-1.4-0.2-1.4-0.2C320.5,204.7,319.4,205.5,318.5,206z"/>
<path class="st4" d="M308.5,227.7c-0.1,2.4,3.4,5.7,3.6,5.9c0.2,0.2,10.7,9.1,10.7,9.1l7.6,5.9c0.9,0.7,1.9,1.2,3,1.4l-0.5-5.3
	l-0.5-10.7c-1.2-1.3-2.3-2.8-2.3-3.2c-0.1-0.9-2-1.9-2-1.9s-1.4-1.1-1.1-1.8c0.2-0.7-0.7-3.8-0.7-3.8c-0.5-8.9-9.5-9.8-9.5-9.8
	s-4.4,1.7-7.4,3.6C306.2,218.9,308.6,225.3,308.5,227.7z"/>
<path class="st4" d="M360.6,247.4l2.6,0.2c1.1-1.9-0.4-7.1-0.4-7.1h-0.2l-1.4,0.2L360.6,247.4z"/>
<path class="st20" d="M316.6,212.8c0,0,9.1,0.9,9.5,9.8c0,0,0.9,3.1,0.7,3.8s1.1,1.8,1.1,1.8s1.9,1,2,1.9s5,6,5,6s2,2.4,6.8,2.6
	c4.8,0.2,7,1.7,7,1.7s2.3-1.6,4-1.1s9.9,1.1,9.9,1.1s2.2,7.3-0.5,7.8c-0.3,0.1-27,1-27,1s-1.8,0.9-4.6-1.3c-2.8-2.1-7.6-5.9-7.6-5.9
	s-10.6-8.9-10.7-9.1c-0.2-0.2-3.6-3.5-3.6-5.9c0.1-2.4-2.4-8.9,0.7-10.7C312.3,214.4,316.6,212.8,316.6,212.8z"/>
<path class="st4" d="M324.7,198.9c0,1.2,0.2,2.4,0.5,3.5c0.2-0.2,0.3-0.4,0.4-0.6c0.5-0.8,1-1.6,1.6-2.4c0.4-0.7,0.9-1.4,1.6-1.9
	c0.7-0.5,1.6-0.7,2.3-0.2c0.6,0.4,0.9,1.1,1,1.9c0,0.7,0,1.5-0.1,2.2c0,0.3,0,0.6,0.2,0.8s0.5,0.3,0.9,0.3l1,0.1
	c0.4,0.1,0.8-0.1,0.9-0.4l0,0c0.8-1.5,1.4-3.4,2.9-4.1c1-0.4,2.2-0.4,2.8-1.3c0.4-0.6,0.4-1.4,0.2-2.1c-0.1-0.8-0.3-1.6-0.6-2.4
	c-0.2-0.5-0.6-1.6,0.3-1.7c0.6-0.1,1.4,0.6,1.7,1s0.4,1,0.6,1.6c0.4,0.9,1.1,1.6,2,1.9c0.5,0.2,0.9,0.3,1.4,0.4
	c-1.9-5.9-8.2-9.2-14-7.3C327.8,189.6,324.7,194,324.7,198.9L324.7,198.9z"/>
<path class="st26" d="M342.4,191.3c0.3,0.5,0.4,1,0.6,1.5c0.4,0.9,1.1,1.6,2,1.9s1.8,0.5,2.8,0.5c1.6,0,3.3-0.2,4.3-1.4
	c-0.7-0.6-1.2-1.4-1.3-2.4c-0.1-0.7,0-1.5-0.4-2.1c-0.2-0.3-0.5-0.5-0.8-0.6c-1.7-1.2-3.1-2.9-4.7-4.3c-1.6-1.4-3.4-2.7-5.5-2.7
	c-2.8-0.1-5.3,1.9-8.1,2.3c-0.9,0.1-1.7,0.1-2.6,0.3c-0.9,0.3-1.8,0.7-2.6,1.3c-0.7,0.4-1.4,1-1.8,1.6c-0.4,0.6-0.6,1.2-0.8,1.8
	c-0.4,1.4-0.6,2.8-0.7,4.3c-0.1,1.5,0,3-0.2,4.5s-0.6,3-1.7,4.1c0.7,0.2,1.5,0.4,2.2,0.5c0.5,0.1,1,0.1,1.4-0.1
	c0.4-0.2,0.7-0.6,0.9-1l1.6-2.4c0.4-0.7,0.9-1.4,1.6-1.9c0.7-0.5,1.6-0.7,2.3-0.2c0.6,0.4,0.9,1.1,1,1.9c0,0.7,0,1.5-0.1,2.2
	c0,0.3,0,0.6,0.2,0.8s0.5,0.3,0.9,0.3l1,0.1c0.4,0.1,0.8-0.1,0.9-0.4l0,0c0.8-1.5,1.4-3.4,2.9-4.1c1-0.4,2.2-0.4,2.8-1.3
	c0.4-0.6,0.4-1.4,0.2-2.1c-0.1-0.8-0.3-1.6-0.6-2.4c-0.2-0.5-0.6-1.6,0.3-1.7C341.3,190.1,342.1,190.8,342.4,191.3z"/>
<path class="st4" d="M317.2,217.8c-0.8-0.1-1.7-0.2-2.5,0.1c2-0.8,5.4-0.5,7.2,0.6C321.8,219,317.9,217.9,317.2,217.8z"/>
<path class="st4" d="M316.3,220.6c-2,0.1-4.1,0.4-6-0.2c1.6-0.6,3.4-0.2,5.1-0.4c1.4-0.1,2.7-0.6,4.1-0.3c0.6,0.1,2.6,1.1,2.4,1.8
	C320.1,220.7,318.2,220.4,316.3,220.6z"/>
<path class="st4" d="M321.7,225.1c-0.4,0-0.9,0-1.3,0.1c-1.5,0.4-3.1,0.5-4.7,0.5c-1.2,0-2.5-0.2-3.4-1L321.7,225.1z"/>
<path class="st4" d="M328.2,235.6c-1.4,0.7-3,0.9-4.6,0.8c-1.6-0.1-3.1-0.4-4.6-0.9c-0.7-0.2-1.4-0.4-1.8-1L328.2,235.6z"/>
<path class="st4" d="M313.6,237.1c-3.1,1.8-6.5,2.9-10.1,3.2c1.8-0.7,3.6-1.4,5.4-2.1c1.8-0.7,3.8-1.2,5.7-1.5
	C314.2,236.7,313.9,236.8,313.6,237.1z"/>
<path class="st4" d="M308.6,235.1c-0.6,0.1-1.3,0.1-1.9,0.1c-0.3,0-0.7,0-0.9-0.3c1.4,0.1,2.8-0.3,4.2-0.6c0.4-0.1,1.1-0.3,1.4-0.1
	C310.8,234.7,309.4,235,308.6,235.1z"/>
<path class="st4" d="M300.1,265.2c-0.7,1.3-1.5,2.6-2.5,3.7c-0.6,0.6-1.2,1.1-1.9,1.6c1.2-3.2,2.5-6.4,4.4-9.2
	c0.5-0.7,1.2-1.7,2.1-1.8c0.3,0.8-0.4,2.1-0.7,2.9C301.1,263.4,300.6,264.3,300.1,265.2z"/>
<path class="st4" d="M336.2,241.4c0.1,0.5,0.1,1.1-0.2,1.6c-0.2,0.2-0.4,0.4-0.6,0.4c0.2,0,0.3-1.6,0.4-1.8c0.1-0.4,0-1.3,0.3-1.6
	C336.1,240.4,336.1,240.9,336.2,241.4z"/>
<path class="st4" d="M334.5,240.8c-0.2,0.9-0.8,1.8-1.7,2.3c0.6-0.7,0.8-1.7,1.3-2.5c0.2-0.3,0.4-0.6,0.7-0.7
	C334.7,240.2,334.6,240.5,334.5,240.8z"/>
<path class="st4" d="M335.9,231.1c1,0.6,2.2,0.7,3.3,0.4c0.3-0.1,0.8-0.3,0.7-0.7s-0.8-0.1-1.1-0.1l-1.5,0.2
	C337.1,230.9,336.1,231.2,335.9,231.1z"/>
<path class="st4" d="M340.8,233.5c-0.7-0.1-1.3,0.4-1.9,0.6c-0.7,0.2-1.5,0.3-2.2,0.3c-0.4,0-0.8,0-1-0.3
	C337.4,233.7,339,233.3,340.8,233.5z"/>
<polygon class="st18" points="332.6,213.3 332.5,213.3 331.7,216.3 332.6,217.3 "/>
<g class="st27">
	<path d="M350.5,189.8c0.1,0.5,0.2,1,0.2,1.5c0-0.2-0.1-0.3-0.1-0.5C350.5,190.5,350.5,190.2,350.5,189.8z"/>
	<path d="M340.7,190.2c-0.3,0-0.6,0.3-0.6,0.6l0,0c-0.2-0.6-0.2-1.2,0.4-1.3c0.6-0.1,1.4,0.6,1.7,1s0.4,1,0.6,1.6
		c0.4,0.9,1.1,1.6,2,1.9c0.9,0.3,1.8,0.5,2.8,0.5c1.4,0,2.9-0.2,4-1.1c0.1,0.1,0.3,0.3,0.4,0.4c-1,1.2-2.7,1.4-4.3,1.4
		c-1,0-1.9-0.2-2.8-0.5s-1.6-1-2-1.9c-0.2-0.5-0.3-1.1-0.6-1.5C342,190.8,341.3,190.1,340.7,190.2z"/>
	<path d="M323.2,201.9c0.5,0.1,1,0.1,1.4-0.1c0.4-0.2,0.7-0.6,0.9-1c0.5-0.8,1-1.6,1.6-2.4c0.4-0.7,0.9-1.4,1.6-1.9
		c0.7-0.5,1.6-0.7,2.3-0.2c0.6,0.4,0.9,1.1,1,1.9v0.1c-0.1-0.5-0.4-1-0.9-1.3c-0.7-0.4-1.7-0.2-2.3,0.2c-0.6,0.5-1.2,1.2-1.6,1.9
		c-0.5,0.8-1,1.6-1.6,2.4c-0.2,0.4-0.5,0.7-0.9,1c-0.5,0.2-1,0.2-1.4,0.1c-0.8-0.1-1.5-0.3-2.2-0.5c0.1-0.2,0.3-0.3,0.4-0.5
		C322,201.7,322.6,201.8,323.2,201.9z"/>
	<path d="M332.1,201.2c0.2,0.2,0.5,0.3,0.9,0.3l1,0.1c0.4,0.1,0.8-0.1,0.9-0.4l0,0c0.8-1.5,1.4-3.4,2.9-4.1c1-0.4,2.2-0.4,2.8-1.3
		c0.3-0.5,0.4-1.1,0.3-1.7c0,0.1,0,0.2,0.1,0.3c0.1,0.7,0.2,1.5-0.2,2.1c-0.6,0.9-1.8,0.8-2.8,1.3c-1.6,0.7-2.1,2.6-2.9,4.1
		c-0.1,0.2-0.2,0.3-0.4,0.5c-0.2,0.1-0.4,0.1-0.5,0l-1-0.1c-0.3,0-0.6-0.1-0.9-0.3C332.1,201.8,332.1,201.5,332.1,201.2L332.1,201.2
		C332,201.1,332,201.2,332.1,201.2z"/>
</g>
<path class="st2" d="M195.4,280.4l2.1-0.3v-31.8l-0.4,0.1l-1.3,0.4v1.1v0.8v1.2v1.4v2.9v0.3v0.4v0.8v0.5v1.2v0.7l-0.2,14.3v0.4
	l-0.1,5v0.1L195.4,280.4z"/>
<path class="st28" d="M194.2,280.6l1.2-0.2v-0.6v-0.1l0.1-5v-0.4l0.2-14.3v-0.7v-1.2v-0.5v-0.8v-0.4v-0.3v-2.9v-1.4v-1.2v-0.8v-1.1
	h-1.3v1.2v0.8v0.9v1.2v3.1v0.7v0.7v0.5v0.6v0.8l0,0l-0.1,15v0.4v5v0.1L194.2,280.6L194.2,280.6z"/>
<path class="st28" d="M194.2,282.4L194.2,282.4z"/>
<path class="st2" d="M65.7,244.4v27.4c0.6,0.4,1.3,0.9,1.9,1.3v-22.8v-2.4L65.7,244.4z"/>
<path class="st28" d="M64.4,244v26.8c0.5,0.4,0.9,0.7,1.4,1.1v-27.4L64.4,244z"/>
<path class="st2" d="M95,282.9c0.8,0.2,1.6,0.3,2.4,0.5v-24.8v-1.1l-2.3-1v2.3L95,282.9z"/>
<path class="st28" d="M93.5,255.7v26.9c0.5,0.1,1,0.2,1.6,0.3l0.1-24.2v-2.3l-0.2-0.1l0,0L93.5,255.7z"/>
<path class="st2" d="M233.5,275.4l2.2-0.2l0.3-28v-0.8v-0.5h-2.1v0.7v0.8L233.5,275.4z"/>
<path class="st28" d="M231.8,275.6l1.7-0.2l0.3-28v-0.8v-0.7h-1.7v0.9v0.8L231.8,275.6z"/>
<polygon class="st4" points="95,256.4 93.5,255.7 93.5,259.1 94.9,259.6 "/>
<polygon class="st4" points="64.4,244 64.4,249.2 65.7,249.6 67.7,250.3 67.7,247.9 65.7,244.4 "/>
<polygon class="st7" points="64.4,234 64.4,248.4 94.9,258.8 95.1,243.4 "/>
<polygon class="st6" points="236.3,233 196.1,225.2 64.4,234 95.1,243.4 "/>
<polygon class="st4" points="232.1,245.9 232.1,247.6 233.8,247.4 235.9,247.2 235.9,245.9 "/>
<polygon class="st4" points="194.5,250.9 195.7,250.7 197.5,250.6 197.5,248.3 195.7,248.9 194.5,248.9 "/>
<polygon class="st7" points="236.3,233 236.3,246.4 94.9,258.8 95.1,243.4 "/>
<polygon class="st29" points="124.2,248.9 142.7,248.9 142.7,242.1 124.2,243.4 "/>
<polygon class="st4" points="124.2,248.9 142.7,248.9 142.7,242.1 124.2,243.4 "/>
<polygon class="st4" points="167.5,240.6 167.5,251.4 96.6,256.8 96.6,245.4 124.3,243.8 127,246.3 138.3,245.5 142.3,242.5 "/>
<polygon class="st30" points="167.9,240.2 167.9,251 97,256.5 97,245 124.7,243.4 127.4,245.9 138.7,245.1 142.7,242.1 "/>
<polygon class="st29" points="211.6,237.3 194.9,238.5 195,243.9 206,243.9 213.3,241 "/>
<polygon class="st4" points="211.6,237.3 194.9,238.5 195,243.9 206,243.9 213.3,241 "/>
<polygon class="st4" points="234,235.8 234,245.5 169.7,250.7 169.7,240.4 194.5,238.9 197.1,240.9 207.1,240.3 211.2,237.7 "/>
<polygon class="st30" points="234.4,235.4 234.4,245.1 170,250.3 170,240 194.9,238.5 197.5,240.5 207.5,239.9 211.6,237.3 "/>
<polygon class="st4" points="96.6,235.4 87.6,236 102.5,240.6 110.1,240 "/>
<polygon class="st30" points="96.6,235.1 87.6,235.6 102.5,240.2 110.1,239.6 "/>
<path class="st28" d="M97.7,236.1c-0.4-0.2-0.7,0.1-1.1,0.2c-0.2,0-0.4,0-0.7,0c-0.4,0.1-0.9,0.4-1.3,0.2L97.7,236.1z"/>
<path class="st28" d="M98.1,236.3c-0.4-0.2-0.7,0.1-1.1,0.2c-0.2,0-0.4,0-0.7,0c-0.4,0.1-0.9,0.4-1.3,0.2L98.1,236.3z"/>
<path class="st28" d="M99.2,236.9c-0.4-0.2-0.7,0.1-1.1,0.2c-0.2,0-0.4,0-0.7,0c-0.4,0.1-0.9,0.4-1.3,0.2L99.2,236.9z"/>
<polygon class="st4" points="157.5,230.4 137.3,231.7 141.6,238 163.7,235.6 "/>
<polygon class="st3" points="157.8,230 137.7,231.3 142,237.6 164.1,235.2 "/>
<polygon class="st31" points="157,230.5 139.4,231.6 143.2,236.7 162.5,234.7 "/>
<path class="st3" d="M194.2,282.4L194.2,282.4z"/>
<path class="st4" d="M194.2,282.4L194.2,282.4z"/>
<path class="st3" d="M194.4,282.4L194.4,282.4z"/>
<path class="st3" d="M168.7,281.6c0,0.1,0,0.2,0,0.3c0,0.1,0,0.2,0,0.3c0.1,0.6,0.2,1.2,0.5,1.7l0,0c8.3-0.9,16.6-2.1,25-3.3
	l1.2-0.2l2.1-0.3l1.8-0.3l0,0c1.9,0,3.9-0.2,5.8-0.6c1.2-0.2,2.4-0.4,3.6-0.8c5.3-0.7,10.6-1.4,15.9-2.1l0.7-0.1
	c-0.1-0.6-0.2-0.9-0.2-0.9s-1.1-4.5-2.1-9.6l0,0c-0.2-1.1-0.4-2.2-0.6-3.3c-0.1-0.9-0.3-1.8-0.4-2.6c-0.1-0.5-0.1-0.9-0.2-1.4
	c0-0.2,0-0.4-0.1-0.7c0-0.2,0-0.5-0.1-0.7c0-0.2,0-0.4,0-0.6v-0.3c0-0.4,0-0.9,0-1.4c0.2-2.4,0.5-4.8,1.1-7.2
	c0.1-0.4,0.2-0.8,0.3-1.2c0-0.1,0.1-0.3,0.1-0.4c1.1-4.2,2.3-7.6,2.3-7.6s0,0,0-0.1l0,0v-0.1c0-0.1,0-0.3,0-0.5v-0.1
	c0-0.3-0.1-0.7-0.2-1c0-0.1-0.1-0.2-0.1-0.4c-0.2-0.7-0.8-1.2-1.5-1.4l0,0c-0.9-0.2-2.3,0-4.5,1.3c-0.4,0.2-0.7,0.4-1,0.7
	c-0.2,0.1-0.3,0.3-0.5,0.4c-2.4,2.3-3.7,6.1-4.4,9.6c0,0.1-0.1,0.2-0.1,0.4c-0.1,0.4-0.2,0.8-0.2,1.3c-0.1,0.7-0.2,1.4-0.3,2.1
	c0,0.2,0,0.3-0.1,0.5s0,0.3,0,0.5c0,0.5-0.1,1-0.1,1.4c-0.1,1.1,0,1.7,0,1.7l0,0v0.1l0,0v0.1c0,0,0,0.1,0,0.2c0,0.1,0,0.3,0.1,0.5
	c0,0.3,0.1,0.6,0.1,1l0,0c0,0.3,0.1,0.6,0.1,0.9c0.1,0.7,0.2,1.4,0.2,2.3c0,0.2,0,0.3,0.1,0.5c0.1,0.7,0.2,1.4,0.2,2.2l0,0
	c0.1,0.8,0.2,1.7,0.3,2.5c0,0.2,0,0.4,0.1,0.5c0.2,2,0.5,3.9,0.7,5c0,0.2,0.1,0.3,0.1,0.5c0,0.1,0,0.1,0,0.2c0,0.2,0,0.3,0,0.5
	c-0.2,2.9-3.2,3.4-3.2,3.4l-13.8-0.3h-2h-1.2l-10.8-0.2l0,0h-1l-5.4-0.1c-0.4,0-0.7,0-1.1,0.1c-1.7,0.4-3.2,1.1-4.7,2.1
	c-0.5,0.3-0.9,0.7-1.2,1.1c0,0,0,0,0,0.1c-0.7,0.9-1.2,2-1.3,3.2c0,0.1,0,0.2,0,0.2C168.7,281.3,168.7,281.4,168.7,281.6z"/>
<path class="st4" d="M194.4,282.4L194.4,282.4z"/>
<path class="st4" d="M168.7,281.6c0,0.1,0,0.2,0,0.3c0,0.1,0,0.2,0,0.3c0.1,0.6,0.2,1.2,0.5,1.7c8.3-0.9,16.6-2.1,25-3.3l1.2-0.2
	l2.1-0.3l1.8-0.3l0,0c1.9,0,3.9-0.2,5.8-0.6c1.2-0.2,2.4-0.4,3.6-0.8c5.3-0.7,10.6-1.4,15.9-2.1l0.7-0.1l0,0
	c-0.1-0.6-0.2-0.9-0.2-0.9s-0.9-3.7-1.8-8.2l0,0c-0.1-0.3-0.1-0.6-0.2-0.9l-0.1-0.5l0,0c-0.2-1.1-0.4-2.2-0.6-3.3
	c-0.1-0.9-0.3-1.8-0.4-2.6c-0.1-0.5-0.1-0.9-0.2-1.4c0-0.2,0-0.4-0.1-0.7c0-0.2,0-0.5-0.1-0.7c0-0.2,0-0.4,0-0.6v-0.3
	c0-0.4,0-0.9,0-1.4c0.2-2.4,0.5-4.8,1.1-7.2c0.1-0.4,0.2-0.8,0.3-1.2c0-0.1,0.1-0.3,0.1-0.4c1.1-4.2,2.3-7.7,2.3-7.7l0,0l0,0v-0.1
	c0-0.1,0-0.3,0-0.5v-0.1c0-0.3-0.1-0.7-0.2-1c0-0.1-0.1-0.2-0.1-0.4c-0.2-0.7-0.8-1.3-1.6-1.4c-0.9-0.2-2.3,0.1-4.4,1.3
	c-0.4,0.2-0.7,0.5-1,0.7l0,0c-0.2,0.1-0.3,0.3-0.5,0.4c-2.4,2.3-3.7,6.1-4.4,9.6c0,0.1-0.1,0.3-0.1,0.4c-0.1,0.4-0.2,0.8-0.2,1.3
	c-0.1,0.7-0.2,1.4-0.3,2.1c0,0.2,0,0.3-0.1,0.5s0,0.3,0,0.5c0,0.5-0.1,1-0.1,1.4c-0.1,1.1,0,1.7,0,1.7v0.1c0,0,0,0,0,0.1l0,0v0.1
	c0,0,0,0.1,0,0.2c0,0.1,0,0.3,0.1,0.5c0,0.3,0.1,0.6,0.1,1l0,0c0,0.3,0.1,0.6,0.1,0.9c0.1,0.7,0.2,1.4,0.2,2.3c0,0.2,0,0.3,0.1,0.5
	c0.1,0.7,0.2,1.4,0.2,2.2l0,0c0.1,0.8,0.2,1.7,0.3,2.5c0,0.2,0,0.4,0.1,0.5c0.2,2,0.5,3.8,0.7,4.9c0,0.2,0.1,0.4,0.1,0.5
	s0,0.1,0,0.2c0,0.2,0,0.3,0,0.5c-0.2,2.8-3.2,3.3-3.2,3.3l-13.8-0.3h-2h-1.2l-10.8-0.2h-1l-5.4-0.1c-0.4,0-0.7,0-1.1,0.1
	c-1.7,0.4-3.3,1.1-4.7,2.1c-0.5,0.3-0.9,0.7-1.2,1.1c0,0,0,0,0,0.1c-0.7,0.9-1.2,2-1.3,3.2c0,0.1,0,0.2,0,0.2
	C168.7,281.3,168.7,281.4,168.7,281.6z"/>
<path class="st3" d="M194.4,282.4L194.4,282.4z"/>
<path class="st5" d="M168.7,283.9l0.6-0.1l0,0c8.3-0.9,16.6-2.1,25-3.3l1.2-0.2l2.1-0.3l1.8-0.3l0,0c1.9,0,3.9-0.2,5.8-0.6
	c1.2-0.2,2.4-0.4,3.6-0.8c5.3-0.7,10.6-1.4,15.9-2.1c-0.1-0.5-0.2-0.9-0.3-1.4c0,0-3.1-12.6-3.3-19.2c-0.1-2.4,0.4-5.3,1-8.2l0,0
	c0.1-0.4,0.2-0.8,0.3-1.2l0.1-0.4c1.1-4.4,2.4-8.1,2.4-8.1c0-0.5,0-0.9-0.1-1.4c0-0.1,0-0.2-0.1-0.4c-0.1-0.6-0.4-1.1-0.9-1.4l0,0
	c0,0,0,0-0.1,0c-0.9-0.7-2.4-0.7-5.2,0.9c-0.6,0.3-1.1,0.7-1.6,1.2c-0.1,0.1-0.3,0.3-0.4,0.4c-2.2,2.5-3.4,6.2-4,9.6l-0.1,0.4
	c-0.1,0.4-0.1,0.8-0.2,1.2l0,0l0,0c-0.1,0.5-0.1,1-0.2,1.5l0,0c-0.2,1.4-0.2,2.9-0.2,4.3c0,0,0.1,1.3,0.3,3.2
	c0.1,0.7,0.2,1.6,0.3,2.5v0.1l0.1,0.5c0.2,1.5,0.4,3.2,0.5,4.7c0,0.2,0,0.4,0.1,0.6c0.2,1.7,0.4,3.3,0.6,4.3
	c0.7,3.9-3.1,4.5-3.1,4.5l-13-0.3h-2h-1.2h-0.5h-0.2l-10.4-0.2h-1l-5.9-0.1c-0.4,0-0.7,0-1.1,0.1c-1.7,0.4-3.3,1.1-4.7,2
	c-0.4,0.3-0.8,0.6-1.1,1c0,0,0,0-0.1,0.1C167.7,279.1,167.5,281.8,168.7,283.9z"/>
<polygon class="st12" points="122,223.2 118,232 118.7,232 123.4,223.3 "/>
<polygon class="st4" points="122,223.2 118,232 118.7,232 123.4,223.3 "/>
<polygon class="st12" points="122,232 118,232 118,232.9 122,233 "/>
<polygon class="st4" points="122,232 118,232 118,232.9 122,233 "/>
<path class="st12" d="M153.4,190.8v30.7c0,1.3-1,2.3-2.2,2.3h-50.4c-1.2,0-2.2-1-2.2-2.3l0,0l0.6-30.8c0-1.2,1-2.2,2.2-2.2h49.8
	C152.4,188.5,153.4,189.6,153.4,190.8z"/>
<path class="st4" d="M153.4,190.8v30.7c0,1.3-1,2.3-2.2,2.3h-50.4c-1.2,0-2.2-1-2.2-2.3l0,0l0.6-30.8c0-1.2,1-2.2,2.2-2.2h49.8
	C152.4,188.5,153.4,189.6,153.4,190.8z"/>
<path class="st13" d="M155.3,190.8v30.7c0,1.3-1,2.3-2.2,2.3h-50.4c-1.2,0-2.2-1-2.2-2.3l0,0l0.6-30.8c0-1.2,1-2.2,2.2-2.2H153
	C154.2,188.5,155.2,189.5,155.3,190.8L155.3,190.8z"/>
<path class="st14" d="M153.3,192.7v27c0,1.3-1,2.3-2.2,2.3h-46.6c-1.2,0-2.2-1-2.2-2.3l0,0v-27.1c0-1.2,1-2.3,2.2-2.3H151
	C152.2,190.5,153.3,191.5,153.3,192.7z"/>
<polygon class="st13" points="133.1,223.3 128.7,232 118.7,232 123.6,222.1 "/>
<polygon class="st12" points="136.6,232 137.3,232.9 122,232.9 122,232 "/>
<linearGradient id="SVGID_4_" gradientUnits="userSpaceOnUse" x1="155.0744" y1="177.2276" x2="155.0744" y2="285.5693" gradientTransform="matrix(-7.2318 0 0 1 1300 0)">
	<stop  offset="0" style="stop-color:#808080;stop-opacity:0.25"/>
	<stop  offset="0.54" style="stop-color:#808080;stop-opacity:0.12"/>
	<stop  offset="1" style="stop-color:#808080;stop-opacity:0.1"/>
</linearGradient>
<path class="st32" d="M201.3,200.1c1.1-3.2,1.1-6.7,2.4-9.7c0.2-0.4,0.4-0.9,0.6-1.3c0.1-0.3,0.1-0.6,0.2-0.9h0.1h0.1h0.1l0,0h0.1
	c0,0.1,0,0.2-0.1,0.3c-0.2,0.5-0.4,0.9-0.6,1.3c-1.4,3.1-1.4,6.6-2.5,9.7C201.6,199.9,201.5,200,201.3,200.1c0.1,0,0,0.1-0.1,0.1
	C201.3,200.2,201.3,200.2,201.3,200.1z M201.3,200.1c1.1-3.2,1.1-6.7,2.4-9.7c0.2-0.4,0.4-0.9,0.6-1.3c0.1-0.3,0.1-0.6,0.2-0.9h0.1
	h0.1h0.1l0,0h0.1c0,0.1,0,0.2-0.1,0.3c-0.2,0.5-0.4,0.9-0.6,1.3c-1.4,3.1-1.4,6.6-2.5,9.7C201.6,199.9,201.5,200,201.3,200.1
	c0.1,0,0,0.1-0.1,0.1C201.3,200.2,201.3,200.2,201.3,200.1z M201.3,200.1c1.1-3.2,1.1-6.7,2.4-9.7c0.2-0.4,0.4-0.9,0.6-1.3
	c0.1-0.3,0.1-0.6,0.2-0.9h0.1h0.1h0.1l0,0h0.1c0,0.1,0,0.2-0.1,0.3c-0.2,0.5-0.4,0.9-0.6,1.3c-1.4,3.1-1.4,6.6-2.5,9.7
	C201.6,199.9,201.5,200,201.3,200.1c0.1,0,0,0.1-0.1,0.1C201.3,200.2,201.3,200.2,201.3,200.1z M201.3,200.1
	c1.1-3.2,1.1-6.7,2.4-9.7c0.2-0.4,0.4-0.9,0.6-1.3c0.1-0.3,0.1-0.6,0.2-0.9h0.1h0.1h0.1l0,0h0.1c0,0.1,0,0.2-0.1,0.3
	c-0.2,0.5-0.4,0.9-0.6,1.3c-1.4,3.1-1.4,6.6-2.5,9.7C201.6,199.9,201.5,200,201.3,200.1c0.1,0,0,0.1-0.1,0.1
	C201.3,200.2,201.3,200.2,201.3,200.1z M201.3,200.1c1.1-3.2,1.1-6.7,2.4-9.7c0.2-0.4,0.4-0.9,0.6-1.3c0.1-0.3,0.1-0.6,0.2-0.9h0.1
	h0.1h0.1l0,0h0.1c0,0.1,0,0.2-0.1,0.3c-0.2,0.5-0.4,0.9-0.6,1.3c-1.4,3.1-1.4,6.6-2.5,9.7C201.6,199.9,201.5,200,201.3,200.1
	c0.1,0,0,0.1-0.1,0.1C201.3,200.2,201.3,200.2,201.3,200.1z M201.3,200.1c1.1-3.2,1.1-6.7,2.4-9.7c0.2-0.4,0.4-0.9,0.6-1.3
	c0.1-0.3,0.1-0.6,0.2-0.9h0.1h0.1h0.1l0,0h0.1c0,0.1,0,0.2-0.1,0.3c-0.2,0.5-0.4,0.9-0.6,1.3c-1.4,3.1-1.4,6.6-2.5,9.7
	C201.6,199.9,201.5,200,201.3,200.1c0.1,0,0,0.1-0.1,0.1C201.3,200.2,201.3,200.2,201.3,200.1z M201.3,200.1
	c1.1-3.2,1.1-6.7,2.4-9.7c0.2-0.4,0.4-0.9,0.6-1.3c0.1-0.3,0.1-0.6,0.2-0.9h0.1h0.1h0.1l0,0h0.1c0,0.1,0,0.2-0.1,0.3
	c-0.2,0.5-0.4,0.9-0.6,1.3c-1.4,3.1-1.4,6.6-2.5,9.7C201.6,199.9,201.5,200,201.3,200.1c0.1,0,0,0.1-0.1,0.1
	C201.3,200.2,201.3,200.2,201.3,200.1z M143.9,231.4L143.9,231.4h0.3l-0.3-0.1l0,0h-0.1l0,0c-0.4-0.1-0.7-0.2-1.1-0.3l0,0l-0.4-0.1
	l0,0h-0.1c-3.1-0.9,0.5-1.8,5.1-2.4l0,0c4.9-0.7,11-1.1,11-1.1l1.9,0.3l0,0c2.3,0.3,5.9,0.8,6.5,1c0.7,0.2,6.7,0.5,8.8,0.6
	c0.1-0.1,0.2-0.3,0.3-0.3l6.2-0.3v0.9l0,0l0,0c0.1-1.2,0.3-2.3,0.8-3.4v-0.1c1.6-3.1,1.9-3.8,1.9-3.8l0,0c0-0.1,0-0.1,0-0.2
	c0.5-1.9,2.5-5.2,5.8-9.9l0.1-0.2l0.4-2.1l0.1-0.4h2.1c-0.3-1.8-0.8-3.6-1.5-5.3c0-0.1-0.1-0.2-0.1-0.3v-0.1c0-0.1-0.1-0.2-0.2-0.3
	c-0.1,0-0.2,0-0.4,0l0,0c-5.1-0.2-9.3-4.3-9.6-9.5l0,0c0-0.2,0-0.4,0-0.6c0-1.8,0.5-3.5,1.3-5l0.1-0.1l0.1-0.1l0.1-0.2
	c-0.8-0.2-1.7,0.2-2.3-0.3c-0.2-0.2-0.4-0.4-0.6-0.7s-0.3-0.7-0.3-1l0,0l0,0l0,0c0,0,0,0,0-0.1l0,0c0-0.2-0.1-0.5-0.1-0.7
	c0-0.5,0.1-0.9,0.2-1.4c0.4-1,1.2-1.8,2.1-2.2c0.5-0.2,1-0.3,1.6-0.4c2.1-0.6,3.9-2,5.9-2.8c1.4-0.5,2.9-0.8,4.5-0.7
	c0.9,0,1.8,0.3,2.6,0.7c0.6,0.4,1.2,0.8,1.8,1.3c1.5,1.2,3.1,2.2,4.4,3.6c0.2,0.3,0.4,0.5,0.6,0.8c0.1,0.2,0.2,0.3,0.3,0.5
	c0.2-0.2,0.5-0.4,0.8-0.3l0,0c0.1,0,0.1,0,0.2,0s0.3,0,0.4,0c0.3,0.1,2.8,0.7,2.8,1.1c1,0.4,2,1,2.8,1.8c2,1.8,2.4,4.8,2.7,7.5
	c0.3,3.1,0.4,6.3,0.3,9.4c0,1.1-0.1,2.3-0.1,3.4c0.1,1.3,0.3,2.7,0.6,4c0.3,1.4,0.6,2.7,0.9,4.1c0.2,0.7,0.4,1.4,1.1,1.6H216
	c0.1,0,0.2,0.1,0.2,0.1c-0.3,0-0.6,0.1-0.8,0.1h-0.2c-0.2,0-0.3,0-0.5-0.1s-0.4-0.1-0.6-0.3c0-0.1-0.1-0.1-0.1-0.2
	c-0.2-0.2-0.3-0.4-0.4-0.6c0,0.4,0,0.8,0.1,1.1c0,0.1,0,0.1,0,0.2c0.2,0.8,0.6,1.6,1.1,2.2l-0.3-0.3c0.1,0.1,0.2,0.3,0.3,0.4
	c-0.5-0.4-1-0.7-1.4-1.1l0,0c0,0-0.1,0-0.1-0.1l0,0l-0.8-0.6c0,0.1,0,0.2,0,0.3s0,0.2,0,0.3l0,0c0,0,0,0.1,0,0.2
	c0.1,2.3,0.2,8-0.4,9.4c0,0.1-0.1,0.2-0.1,0.2c-0.6,1.5-0.9,2.2-0.8,3c0.1,0.6-0.4,2.2-0.6,3.4c-0.1,0.5-0.2,1-0.1,1.5
	c0,0.3,0,0.6-0.1,0.9c0,0.1-0.1,0.3-0.1,0.5c0,0.1,0,0.1,0,0.2c-0.3,1.2-0.7,2.7-0.3,3.3c0.1,0.2,0.3,0.4,0.3,0.7
	c0.4,1,0.4,2.4,0.9,3s0.3,1.8,0.3,1.9l0,0c0,0,0,0.1,0.1,0.3c0.1,0.3,0.1,0.7,0.3,1.2l0,0c0.2,0.7,0.3,1.3,0.6,2l0,0
	c0.2,0.5,0.3,0.8,0.5,0.8c0.7,0.2,1,3.4,1,3.4s1.5,2.5,1.2,3.1c-0.1,0.1-0.1,0.3-0.2,0.4l0.1,0.2c0.8,1.3,2,3.7,0.9,5
	c-0.4,0.4-0.9,0.8-1.4,1c0.1,0.1,0.1,0.3,0.2,0.4c1.3,3,3.2,9.9-4.2,12.8c-0.7,0.3-1.5,0.5-2.2,0.7c-1.2,0.3-2.4,0.6-3.6,0.8
	c-1.8,0.3-3.5,0.4-5.3,0.5c-0.8,0-1.6,0-2.3,0s-1.4,0-2.1-0.1c-0.4,0-0.8,0-1.2-0.1c-2.3-0.1-4.5-0.4-6.8-0.8l-10.6-1.9
	c0,0-4.4,0.2-6.1,1.1h-0.1c0,0-0.3-0.2-0.7-0.5l0,0c-0.2-0.1-0.4-0.3-0.7-0.5c-1.7-1.2-4.5-3.7-6.3-7.1v-0.1h-0.4h-0.1h-0.3
	l-0.5-0.1l0,0h-0.1c-1.3-0.2-2.6-0.4-2.6-0.4s-0.1,1.5-0.1,3.3c0,0.5,0,1.1-0.1,1.6c-0.1,1.8-0.1,3.5-0.1,3.6s-1.4,3.7-2.9,7.4
	l-1.2,0.1c-3.1,0.3-6.3,0.5-9.4,0.6l-1.2,0.1h-0.7c0.5-3.3,1-6.3,1-6.3l1.9-9.3c0,0,0.2-1.9,1.7-10.5c1.2-6.9,8.2-6.3,10.8-5.8
	c0.3,0.1,0.5,0.1,0.7,0.1v-0.5c0,0,5,0.4,9.6,0.6h1.1c1.1,0,2,0.1,2.9,0.1c0.8,0,1.6,0,2.3-0.1c3.5-0.4,7.5,0.8,7.5,0.8
	s5.1,0.8,5.8,0.5c0.2-0.1,0.4-0.1,0.6-0.1c0.1,0,0.2,0,0.3,0c-0.2-0.1-0.4-0.3-0.3-0.6c0.2-0.9,0.3-2-0.3-2.9
	c-0.3-0.4-0.7-0.9-1-1.4l-0.9-1.2v-0.1v-0.4l-0.2-3.3l-0.5-3V242v-0.3v-0.2h-0.1l0,0c-1.5,0.5-3.1,0.9-4.3,0.5l0,0
	c-0.1,0-0.2-0.1-0.3-0.1h-0.1v0.2v0.4l-5.5-0.3h-0.1c0,0-0.2-1.1-0.4-2.6c0-0.1,0-0.2-0.1-0.4c0-0.1-0.1-0.3-0.1-0.5
	c0-0.1,0-0.2,0-0.2h-0.2h-0.1c-2.5-0.1-6.1-0.3-7.6-0.8l0,0c-0.2-0.1-0.4-0.2-0.5-0.3c-0.6-0.5-2.8-1.3-5-2l0,0l-0.9-0.3
	c-0.6-0.2-1.3-0.4-1.8-0.5c-1.3-0.3-2.1-0.6-2.1-0.6s-8.6,0.8-15-1.1l0,0h-0.1C139.5,232.7,141,232,143.9,231.4z M204.8,187.8
	c0,0.1,0,0.2,0,0.3l0,0l0,0l0,0l0,0v0.1v0.1c0,0.1,0,0.2-0.1,0.3c-0.2,0.5-0.4,0.9-0.6,1.3c-1.4,3.1-1.4,6.6-2.5,9.7
	c0,0.1-0.1,0.3-0.2,0.4c0,0-0.1,0.1-0.2,0.1h-0.1l0,0H201v0.1l0,0l0,0c0.4,0.8,0.9,1.5,1.4,2.1c0.4,0.1,0.8,0.2,1.2,0.5l0.2,0.1
	l0.1,0.1c0.1-0.6,0.3-1.1,0.4-1.7c0.8-3.1,1.2-6.2,1.3-9.3c0-0.1,0-0.1,0-0.2c0-0.1,0-0.3,0-0.4c0-0.8,0-1.6-0.1-2.4
	c0-0.4-0.1-0.7-0.3-1.1l0,0C205.2,187.9,205,187.8,204.8,187.8L204.8,187.8z M201.3,200.1c1.1-3.2,1.1-6.7,2.4-9.7
	c0.2-0.4,0.4-0.9,0.6-1.3c0.1-0.3,0.1-0.6,0.2-0.9h0.1h0.1h0.1l0,0h0.1c0,0.1,0,0.2-0.1,0.3c-0.2,0.5-0.4,0.9-0.6,1.3
	c-1.4,3.1-1.4,6.6-2.5,9.7C201.6,199.9,201.5,200,201.3,200.1c0.1,0,0,0.1-0.1,0.1C201.3,200.2,201.3,200.2,201.3,200.1L201.3,200.1
	z M201.3,200.1c1.1-3.2,1.1-6.7,2.4-9.7c0.2-0.4,0.4-0.9,0.6-1.3c0.1-0.3,0.1-0.6,0.2-0.9h0.1h0.1h0.1l0,0h0.1c0,0.1,0,0.2-0.1,0.3
	c-0.2,0.5-0.4,0.9-0.6,1.3c-1.4,3.1-1.4,6.6-2.5,9.7C201.6,199.9,201.5,200,201.3,200.1c0.1,0,0,0.1-0.1,0.1
	C201.3,200.2,201.3,200.2,201.3,200.1L201.3,200.1z M201.3,200.1c1.1-3.2,1.1-6.7,2.4-9.7c0.2-0.4,0.4-0.9,0.6-1.3
	c0.1-0.3,0.1-0.6,0.2-0.9h0.1h0.1h0.1l0,0h0.1c0,0.1,0,0.2-0.1,0.3c-0.2,0.5-0.4,0.9-0.6,1.3c-1.4,3.1-1.4,6.6-2.5,9.7
	C201.6,199.9,201.5,200,201.3,200.1c0.1,0,0,0.1-0.1,0.1C201.3,200.2,201.3,200.2,201.3,200.1L201.3,200.1z M201.3,200.1
	c1.1-3.2,1.1-6.7,2.4-9.7c0.2-0.4,0.4-0.9,0.6-1.3c0.1-0.3,0.1-0.6,0.2-0.9h0.1h0.1h0.1l0,0h0.1c0,0.1,0,0.2-0.1,0.3
	c-0.2,0.5-0.4,0.9-0.6,1.3c-1.4,3.1-1.4,6.6-2.5,9.7C201.6,199.9,201.5,200,201.3,200.1c0.1,0,0,0.1-0.1,0.1
	C201.3,200.2,201.3,200.2,201.3,200.1L201.3,200.1z M201.3,200.1c1.1-3.2,1.1-6.7,2.4-9.7c0.2-0.4,0.4-0.9,0.6-1.3
	c0.1-0.3,0.1-0.6,0.2-0.9h0.1h0.1h0.1l0,0h0.1c0,0.1,0,0.2-0.1,0.3c-0.2,0.5-0.4,0.9-0.6,1.3c-1.4,3.1-1.4,6.6-2.5,9.7
	C201.6,199.9,201.5,200,201.3,200.1c0.1,0,0,0.1-0.1,0.1C201.3,200.2,201.3,200.2,201.3,200.1L201.3,200.1z M201.3,200.1
	c1.1-3.2,1.1-6.7,2.4-9.7c0.2-0.4,0.4-0.9,0.6-1.3c0.1-0.3,0.1-0.6,0.2-0.9h0.1h0.1h0.1l0,0h0.1c0,0.1,0,0.2-0.1,0.3
	c-0.2,0.5-0.4,0.9-0.6,1.3c-1.4,3.1-1.4,6.6-2.5,9.7C201.6,199.9,201.5,200,201.3,200.1c0.1,0,0,0.1-0.1,0.1
	C201.3,200.2,201.3,200.2,201.3,200.1L201.3,200.1z"/>
<path class="st33" d="M190.3,201.9c0.5,0.6,1,1.3,1.3,2c0.1,0.1,0.1,0.2,0.1,0.3c1.5,3.4,1.9,8.1,1.9,8.1s0.9-0.4,2.2-1
	c2.4-1.2,6.1-3.2,7.6-4.8c0.7-0.7,0.9-1.3,0.4-1.8c-0.1-0.1-0.2-0.2-0.4-0.3c-0.4-0.4-0.8-0.9-1.2-1.4c-0.5-0.7-1-1.4-1.4-2.2
	c-0.3-0.4-0.5-0.9-0.7-1.3l-0.1-0.2c-1-1.9-1.7-3.5-1.7-3.5s-0.3,0.1-0.9,0.3C194.9,196.9,188.1,199.6,190.3,201.9z"/>
<path class="st33" d="M145,279.7c0,0-0.4,3.1-0.9,6.2l1.2-0.1c3.1-0.2,6.3-0.4,9.4-0.6c1.8-4.2,3.6-9.2,3.6-9.3
	c0-0.1,0.1-1.7,0.1-3.6c0-0.6,0-1.3,0.1-1.9l0,0c0-0.9,0.1-1.8,0.1-2.3c0-0.4,0-0.6,0-0.6s1.7,0.3,3.2,0.5l0.7,0.1
	c0.4,0,0.7,0.1,0.9,0.1c0.2,0,0.5,0,0.7,0c0.5-0.2-0.6-5.4-0.6-5.4l-2.7-6.7l-0.8-1.8l-0.3-0.1c-0.2,0-0.4-0.1-0.6-0.1
	c-2.6-0.5-9.4-1.1-10.6,5.8c-1.5,8.5-1.7,10.4-1.7,10.4L145,279.7z"/>
<path class="st33" d="M142.4,293.4h0.8l0,0H142.4L142.4,293.4z"/>
<path class="st34" d="M145,279.7c0,0-0.4,3.1-0.9,6.2l1.2-0.1c3.1-0.2,6.3-0.4,9.4-0.6c1.8-4.2,3.6-9.2,3.6-9.3
	c0-0.1,0.1-1.7,0.1-3.6c0-0.6,0-1.3,0.1-1.9l0,0c0-0.9,0.1-1.8,0.1-2.3c0-0.4,0-0.6,0-0.6s1.7,0.3,3.2,0.5l0.7,0.1
	c0.4,0,0.7,0.1,0.9,0.1c0.2,0,0.5,0,0.7,0c0.5-0.2-0.6-5.4-0.6-5.4l-2.7-6.7l-0.8-1.8l-0.3-0.1c-0.2,0-0.4-0.1-0.6-0.1
	c-2.6-0.5-9.4-1.1-10.6,5.8c-1.5,8.5-1.7,10.4-1.7,10.4L145,279.7z"/>
<path class="st34" d="M142.4,293.4h0.8l0,0H142.4L142.4,293.4z"/>
<path class="st33" d="M145.3,285.9c3.1-0.2,6.3-0.4,9.4-0.6l1.2-0.1h0.5c1.5-3.6,2.8-7.2,2.8-7.3c0-0.1,0.1-1.7,0.1-3.6
	c0.1-2.3,0.2-4.8,0.2-4.8h0.2h0.1l0,0h0.1l0.5,0.1h0.3c0.5,0.1,1.2,0.2,1.8,0.3h0.1h0.4h0.3l0,0c0.3,0,0.5,0.1,0.7,0.1h0.3
	c0.2,0,0.5,0,0.7,0c0.5-0.2-0.6-5.4-0.6-5.4l-3.4-8.5h-0.1c-0.2,0-0.6-0.1-1.1-0.2c-0.2,0-0.4-0.1-0.6-0.1c-3-0.4-8.7-0.3-9.7,5.9
	c-1.5,8.5-1.7,10.4-1.7,10.4l-1.9,9.3C145.9,281.6,145.7,283.5,145.3,285.9z"/>
<path class="st4" d="M159.3,274.3c0.1-2.3,0.2-4.8,0.2-4.8s3.3,0.6,4.9,0.7l-0.3-1.1c0,0-5.6-1.6-5.8-0.7
	C158.2,269.1,158.9,272.4,159.3,274.3z"/>
<path class="st4" d="M159.2,254.2v2.4c0,0,0.3,4.4,2.5,11.1c0,0.1,0.1,0.3,0.2,0.4c0.2,0.6,0.5,1.3,0.8,1.9c0.6,0.1,1.2,0.2,1.7,0.2
	c0.2,0,0.5,0,0.7,0c0.5-0.2-0.6-5.4-0.6-5.4l-3.4-8.5H161l-0.8-1.8C160.2,254.5,159.8,254.4,159.2,254.2z"/>
<path class="st35" d="M159.9,253.8v2.8c0,0,0.3,4.4,2.5,11.1c0.1,0.2,0.1,0.3,0.2,0.5c0,0.2,0.1,0.4,0.2,0.6
	c0.2,0.4,0.4,0.9,0.6,1.3l0,0c1.7,3.3,4.4,5.7,6,7c0.2,0.2,0.5,0.4,0.7,0.5l0,0c0.3,0.2,0.6,0.4,0.7,0.5c0.2,0.1,0.2,0.1,0.2,0.1
	c1.6-1,6-1.1,6-1.1l10.4,1.9c2.3,0.4,4.6,0.7,6.9,0.8l1.2,0.1c0.7,0,1.4,0,2.1,0c0.6,0,1.2,0,1.8,0l0,0c1.9,0,3.9-0.2,5.8-0.6
	c1.1-0.2,2.1-0.4,3.1-0.7c0.7-0.2,1.5-0.5,2.2-0.7c7.3-2.9,5.4-9.8,4.2-12.8c-0.1-0.2-0.1-0.3-0.2-0.4c-0.3-0.6-0.5-1-0.5-1
	l-0.5-1.2l0,0l-0.8-1.9l-0.2-0.4l-0.1-0.1l-0.6-1.4l-8.3-1.1l-6.1-0.8l-1.8-0.2l-1.3-0.2l-2.4-0.3L191,256c-0.6-0.1-1.1-0.1-1.7-0.1
	c-0.3,0-0.6,0-0.9,0.1c-0.7,0.3-5.7-0.5-5.7-0.5s-3.9-1.2-7.4-0.8c-1.7,0.1-3.4,0.1-5.1,0l0,0h-0.4h-0.6h-0.1
	C164.8,254.3,159.9,253.8,159.9,253.8z"/>
<path class="st4" d="M189.6,262.3c0,0,4,9.2,4.1,9.3c0.2,0.2,0.2,3,0,2.9c-0.2-0.2-5.6-12.6-5.6-12.6L189.6,262.3z"/>
<path class="st4" d="M170.4,254.5c0,0,2,1.3,2.6,2.4c0.6,1.1,6.1,11.6,7.5,13.2c1.1,1.4,2.1,2.9,3,4.4c0.2,0.3,0.2,2-0.8,0.4
	s-0.7-1.9-2.6-4s-4-6.8-4.8-7.7c-0.8-0.9-1.9-3.8-3.3-5.4l-2.7-3.2L170.4,254.5z"/>
<path class="st4" d="M169.9,272.7c0,0,1.4-1,2.7,0.7C173.9,275,169.9,272.7,169.9,272.7z"/>
<path class="st4" d="M168.2,273.2c0,0,1.2,2,1.7,2.2C170.4,275.5,168.2,273.2,168.2,273.2z"/>
<path class="st4" d="M169.9,273.7c0,0,0.9,1.6,1.7,1.5L169.9,273.7z"/>
<path class="st33" d="M176.4,229.6c0,0-8.5-0.4-9.3-0.6c-0.9-0.3-8.3-1.3-8.3-1.3s-22.1,1.6-15.8,3.5c6.3,1.9,14.8,1.1,14.8,1.1
	s8.3,2.2,9.6,3.4c1.3,1.1,10.7,1.2,10.7,1.2L176.4,229.6z"/>
<path class="st34" d="M176.4,229.6c0,0-8.5-0.4-9.3-0.6c-0.9-0.3-8.3-1.3-8.3-1.3s-22.1,1.6-15.8,3.5c6.3,1.9,14.8,1.1,14.8,1.1
	s8.3,2.2,9.6,3.4c1.3,1.1,10.7,1.2,10.7,1.2L176.4,229.6z"/>
<path class="st18" d="M206.6,209.9c0,0,7.8,2.7,4,9.5s-8.6,10.1-8.6,10.1l-12.5,8.8c0,0-5.3,3.1-7.7,1.8l-3.9-0.3l-0.7-10.5
	c0,0,3.3,2.6,6.9-1s8-6.1,8.4-8C192.9,218.3,202.1,208.2,206.6,209.9z"/>
<path class="st21" d="M182,232.1c0,0-4.1,1.5-3.9,1.5c0.2,0.1,3.9,1.5,3.9,1.5l-0.3,5.6l-5.5-0.3c0,0-2-10.2-0.3-11.2l6-0.3
	L182,232.1z"/>
<path class="st4" d="M182,232.1c0,0-4.1,1.5-3.9,1.5c0.2,0.1,3.9,1.5,3.9,1.5l-0.3,5.6l-5.5-0.3c0,0-2-10.2-0.3-11.2l6-0.3
	L182,232.1z"/>
<path class="st4" d="M190.3,201.9c0.5,0.6,1,1.3,1.3,2c0.1,0.1,0.1,0.2,0.1,0.3c2.9,0,5.1-2.3,6.9-4.4c0.3-0.4,1.2,0.2,1.5-0.2
	c0,0,0.1-0.1,0.1-0.2l-0.1-0.2c-1-1.9-1.7-3.5-1.7-3.5s-0.3,0.1-0.9,0.3C194.9,196.9,188.1,199.6,190.3,201.9z"/>
<path class="st33" d="M181.7,193.8c0,5.5,4.4,10,9.8,10.1h0.1c2.8,0,5.6-1.2,7.5-3.4c0.3-0.4,0.6-0.8,0.9-1.2c3-4.7,1.6-11-3-14
	s-10.8-1.6-13.7,3.1C182.2,190,181.7,191.8,181.7,193.8z"/>
<path class="st4" d="M191.8,256.5c0,0,0.8,0.9,1.6,1.8c0.6,0.7,1.3,1.3,1.8,1.4c1,0.4,5.5,3.9,5.5,3.9s3.6,2.5,4.5,3.2
	s4.3,0.3,4.3,0.3s3.2-0.7,5.2-2c-0.2-0.5-0.4-0.9-0.7-1.4l-2.1-5.1l-8.3-1.1L191.8,256.5z"/>
<path class="st21" d="M191.9,255.9c0,0,0.8,0.9,1.6,1.8c0.6,0.7,1.3,1.3,1.8,1.4c1,0.4,5.5,3.9,5.5,3.9s3.6,2.5,4.5,3.2
	s4.3,0.3,4.3,0.3s4.6-1,6.2-2.9c1.1-1.3,0-3.7-0.8-5c-0.3-0.6-0.6-0.9-0.6-0.9L191.9,255.9z"/>
<path class="st21" d="M186,224.3c2.7-0.2,11.7-11.4,11.7-11.4l-0.2-0.3l-1.9-2.7h-4.4l-0.5,2.5c-3.3,4.8-5.3,8.1-5.8,10
	C184.5,223.7,184.8,224.4,186,224.3z"/>
<path class="st4" d="M186,224.3c2.7-0.2,11.7-11.4,11.7-11.4l-0.2-0.3c-1.6,1.5-3.1,3.1-4.5,4.8c-6.6,7.9-7.9,5.7-8.1,5
	C184.5,223.7,184.8,224.4,186,224.3z"/>
<path class="st4" d="M191.9,255.9c0,0,0.8,0.9,1.6,1.8c0.4,0.2,0.9,0.3,1.4,0.3c1.1,0,3.4,1.6,3.4,1.6s4.3-0.2,5.1,0.2
	c0.8,0.4,3.9,0.5,3.9,0.5c5.6,1.6,7.2-0.8,7.6-1.7c-0.3-0.6-0.6-0.9-0.6-0.9L191.9,255.9z"/>
<path class="st36" d="M182.1,231.6c0,0.2,0,0.3,0.1,0.5c0,0.2,0,0.3,0.1,0.4c0.1,0.8,0.4,1.6,0.7,2.4c0.7,1.2,2.9,6,2.9,6l0.2,0.9
	l0.1,0.5l0.1,0.4l0.5,3.2l0.2,3.7c0,0,1.3,1.9,1.9,2.7s0.5,2,0.3,2.9c-0.2,0.8,1.8,1,1.8,1s2.9,1.4,3.9,1.4c1.1,0,3.4,1.6,3.4,1.6
	s4.3-0.2,5.1,0.2c0.8,0.4,3.9,0.5,3.9,0.5c6,1.7,7.4-1.2,7.7-1.8c0.3-0.6-1.2-3.1-1.2-3.1s-0.3-3.1-1-3.4c-0.6-0.3-1.4-4.4-1.4-4.4
	s0.2-1.3-0.3-1.9c-0.5-0.7-0.5-2.7-1.2-3.6s0.7-4.1,0.5-4.9s0.8-4.1,0.7-5c-0.1-0.8,0.2-1.5,0.8-3.3c0.6-1.4,0.4-8,0.3-9.8
	c0-0.3,0-0.5,0-0.5s-0.6-1.8-2-5.5c-1.1-2.8-3.6-3.8-4.8-4.2c-0.2-0.1-0.4-0.1-0.6-0.2c-0.3,0-0.6,0.1-0.9,0.2
	c-1.2,0.4-3.5,1.5-6.8,4.7c-1.5,1.4-2.9,2.9-4.2,4.5c-7.5,9-8.1,4.8-8.1,4.8s-0.3,0.8-1.9,3.8C182.1,227.9,182,229.9,182.1,231.6z"
	/>
<path class="st4" d="M194.5,209.4l7.5-6.1c0,0,2.7,0.3,3.8,5l-7.8,6.9L194.5,209.4z"/>
<path class="st21" d="M194.5,209.4l1.3,1.9l1.4,1.9l1,1.5l6.2-5.3l1.1-0.9l0.6-0.5c-0.6-2.5-1.7-3.8-2.5-4.4
	c-0.4-0.3-0.8-0.5-1.3-0.6L194.5,209.4z"/>
<path class="st33" d="M142.6,233.6c6.3,1.9,14.8,1.1,14.8,1.1s8.3,2.2,9.6,3.4c0.8,0.7,5.1,1,7.9,1.1c1.6,0.1,2.8,0.1,2.8,0.1
	l-1.8-7.2h-1c-2.3-0.1-7.7-0.4-8.3-0.6c-0.8-0.3-8.3-1.3-8.3-1.3S136.3,231.7,142.6,233.6z"/>
<path class="st4" d="M182.2,232.4c0.1,0.8,0.4,1.6,0.7,2.4c0.7,1.2,2.9,6,2.9,6l0.3,1.8c1-0.4,2-0.8,3-1.4l12.5-8.8
	c0,0,4.9-3.2,8.6-10.1c3.8-6.9-4-9.5-4-9.5c-4.5-1.7-13.7,8.4-14.1,10.3c-0.4,1.9-4.8,4.4-8.4,8
	C183.4,231.7,182.8,232.1,182.2,232.4z"/>
<path class="st37" d="M176.9,231.7l0.6,10.5l3.9,0.3c0.1,0,0.2,0.1,0.3,0.1c2.5,0.9,7.4-1.9,7.4-1.9l12.5-8.8c0,0,4.9-3.2,8.6-10.1
	c3.8-6.9-4-9.5-4-9.5c-4.5-1.7-13.7,8.4-14.1,10.3c-0.4,1.9-4.8,4.4-8.4,8c-0.5,0.5-1.1,1-1.8,1.3
	C180.4,232.9,178.4,232.8,176.9,231.7z"/>
<path class="st4" d="M176.9,231.7l0.6,10.5l3.9,0.3c0.1,0,0.2,0.1,0.3,0.1l0.3-5.1c0,0-3.7-1.4-3.9-1.5c-0.2-0.1,3.9-1.5,3.9-1.5
	v-2.4C180.4,233,178.4,232.8,176.9,231.7z"/>
<path class="st4" d="M175,239.2c1.6,0.1,2.8,0.1,2.8,0.1l-1.8-7.2h-1C174.4,233.1,174.7,236.5,175,239.2z"/>
<path class="st21" d="M181.7,234.5c0,0-4.1,1.5-3.9,1.5s3.9,1.5,3.9,1.5l-0.3,5.6l-5.5-0.3c0,0-2-10.2-0.3-11.2l6-0.3L181.7,234.5z"
	/>
<path class="st4" d="M205.7,241.2c0,0,1.4,1.3,2.5,1.6L205.7,241.2z"/>
<path class="st4" d="M209,245.1c0,0-3.3-0.1-3.7-0.8S209,245.1,209,245.1z"/>
<path class="st4" d="M210.6,249.9c-0.2,0-4.2-0.6-4.4-1.1L210.6,249.9z"/>
<path class="st4" d="M211.9,253c-1.5,0-3.9-1.6-3.9-1.6L211.9,253z"/>
<path class="st4" d="M202.5,253.8c0,0-8.7,0-9.1-1.6C193,250.6,202.5,253.8,202.5,253.8z"/>
<path class="st4" d="M196,231c-0.2,0-6.9,0-7.5-0.9C187.8,229.2,196,231,196,231z"/>
<path class="st4" d="M203.4,204.4c-0.1,0.3-0.1,0.7-0.1,1c0,0.4,0,0.7,0.1,1.1c0.1,0.7,0.3,1.4,0.6,2l0.1,0.2
	c0.1,0.2,0.2,0.5,0.3,0.7c0.5,1,1.1,2,1.7,2.9c1.5,2,3.2,3.9,5.2,5.5c0.3,0.3,0.7,0.6,1,0.8c0-0.3,0-0.5,0-0.5s-0.6-1.8-2-5.5
	c-1.1-2.8-3.6-3.8-4.8-4.2l0.6-0.5c-0.6-2.5-1.7-3.8-2.5-4.4C203.5,203.8,203.4,204.1,203.4,204.4z"/>
<path class="st4" d="M183.1,188.5c0.1,0,0.2,0.1,0.3,0.1c0.6,0.3,0.8,1.2,1.3,1.7c0.6,0.6,1.5,0.7,2.3,0.8s1.8,0.3,2.2,1
	c0.3,0.5,0.3,1.2,0.4,1.9c0,0.1,0.1,0.2,0.1,0.3c0.1,0.1,0.3,0.1,0.4,0.1c1.7,0.1,2.8-0.5,4.4-0.9c0.7-0.2,1.6-0.2,2.1,0.3
	s0.6,1.2,0.6,1.9v0.1c-0.1,0.7-0.1,1.3-0.1,2c0.2,1,0.8,2,1.7,2.5c0.4,0.2,0.8,0.3,1.3,0.4c0.2,0,0.3,0,0.5-0.1
	c-0.3-0.5-0.6-1-0.8-1.5c3-4.7,1.7-11-2.9-14s-10.8-1.7-13.7,3C183.2,188.3,183.2,188.4,183.1,188.5L183.1,188.5z"/>
<path class="st38" d="M180.4,187.2c0.1,0.3,0.3,0.5,0.6,0.7c0.8,0.5,1.8,0,2.6,0.4c0.6,0.3,0.8,1.2,1.3,1.7c0.6,0.6,1.5,0.7,2.3,0.8
	s1.8,0.3,2.2,1c0.3,0.5,0.3,1.2,0.4,1.9c0,0.1,0.1,0.2,0.1,0.3c0.1,0.1,0.3,0.1,0.4,0.1c1.7,0.1,2.8-0.5,4.4-0.9
	c0.7-0.2,1.6-0.2,2.1,0.3s0.6,1.2,0.6,1.9c-0.1,0.7-0.1,1.4-0.1,2.1c0.2,1.5,1.5,2.7,3,2.8c0.2,0,0.4,0,0.6-0.2
	c0.1-0.1,0.2-0.2,0.2-0.4c1.1-3.2,1.1-6.7,2.4-9.7c0.2-0.4,0.4-0.9,0.6-1.3c0-0.1,0.1-0.2,0.1-0.3c0-0.2,0.1-0.4,0.1-0.6
	c0.1,0,0.3,0.1,0.4,0.2l0.1,0.1c0.2,0.3,0.3,0.7,0.3,1.1c0.2,4.2-0.2,8.4-1.2,12.5c-0.3,1-0.5,2.1-0.6,3.1c0,1.1,0.3,2.3,0.8,3.3
	c2.1,4.9,6.2,8.4,10.4,11.6c-0.9-0.9-1.3-2.2-1.2-3.5c0.1,0.5,0.6,0.9,1.1,0.9c0.5,0.1,1,0.1,1.5,0c-0.6-0.2-0.9-1-1.1-1.6
	c-0.3-1.3-0.6-2.7-0.9-4.1c-0.3-1.3-0.5-2.6-0.6-4c-0.1-1.1,0-2.3,0.1-3.4c0.1-3.1,0-6.2-0.3-9.4c-0.2-2.7-0.7-5.6-2.6-7.4
	c-0.8-0.7-1.8-1.3-2.8-1.7c0-0.3-2.4-1-2.7-1c-0.1,0-0.3,0-0.4,0c-0.4-0.1-0.7,0.1-0.9,0.5c-0.1-0.2-0.3-0.4-0.4-0.6
	c-0.2-0.3-0.4-0.5-0.6-0.8c-1.3-1.4-2.9-2.4-4.4-3.6c-0.5-0.5-1.1-0.9-1.7-1.3c-0.8-0.4-1.7-0.6-2.6-0.7c-1.5-0.1-3,0.2-4.4,0.7
	c-2,0.8-3.8,2.2-5.8,2.8c-0.5,0.1-1,0.3-1.5,0.4c-1.9,0.8-2.8,2.9-2,4.8C180.3,187,180.3,187.1,180.4,187.2L180.4,187.2z"/>
<g class="st27">
	<path d="M213.8,217.3c-0.2-0.6-0.3-1.3-0.3-2c0.1,0.5,0.6,0.9,1.1,0.9c0.1,0,0.3,0,0.4,0.1c0.2,0.5,0.4,1,0.9,1.2
		c-0.5,0.1-1,0.1-1.5,0C214.2,217.6,214,217.5,213.8,217.3z"/>
	<path d="M180.2,184.6c0,0.5,0.2,1,0.4,1.5c0.1,0.3,0.3,0.5,0.6,0.7c0.8,0.5,1.8,0,2.6,0.4c0.6,0.3,0.8,1.2,1.3,1.7
		c0.6,0.6,1.5,0.7,2.3,0.8s1.8,0.3,2.2,1c0.3,0.5,0.3,1.2,0.4,1.9c0,0.3,0.2,0.5,0.5,0.4c0,0,0,0,0.1,0c1.7,0.1,2.8-0.5,4.4-0.9
		c0.7-0.2,1.6-0.2,2.1,0.3s0.6,1.2,0.6,1.9c-0.1,0.7-0.1,1.4-0.1,2c0.2,1.5,1.5,2.7,3,2.8c0.2,0,0.4,0,0.6-0.2
		c0.1-0.1,0.2-0.2,0.2-0.4c1.1-3.2,1.1-6.7,2.4-9.7c0.2-0.4,0.4-0.9,0.6-1.3c0.1-0.3,0.1-0.6,0.2-0.9c0.2,0,0.4,0.1,0.5,0.3
		c0.2,0.3,0.3,0.7,0.3,1.1c0.2,2.7,0,5.4-0.3,8.1c0.2-2.3,0.3-4.5,0.2-6.8c0-0.4-0.1-0.7-0.3-1.1c-0.1-0.2-0.3-0.3-0.5-0.3
		c0,0.3-0.1,0.6-0.2,0.9c-0.2,0.5-0.3,0.9-0.6,1.3c-1.3,3.1-1.3,6.6-2.4,9.7c0,0.1-0.1,0.3-0.2,0.4c-0.2,0.1-0.4,0.2-0.6,0.2
		c-1.5-0.1-2.7-1.3-3-2.8c0-0.7,0-1.4,0.1-2.1c0-0.7-0.1-1.4-0.6-1.9c-0.6-0.5-1.4-0.5-2.1-0.3c-1.6,0.4-2.7,1-4.4,0.9
		c-0.1,0-0.3,0-0.4-0.1s-0.1-0.2-0.1-0.3c-0.1-0.6-0.1-1.3-0.4-1.8c-0.5-0.7-1.4-0.9-2.2-1s-1.8-0.2-2.4-0.8
		c-0.5-0.5-0.7-1.4-1.3-1.7c-0.8-0.4-1.9,0.1-2.6-0.4c-0.2-0.2-0.4-0.4-0.6-0.7C180,186.5,179.9,185.5,180.2,184.6z"/>
	<path d="M203.6,203.9c0,1.1,0.3,2.3,0.8,3.3c1.8,4.3,5.4,7.7,9,10.6c0.2,0.9,0.6,1.7,1.2,2.4c-4.1-3.2-8.3-6.8-10.4-11.6
		c-0.5-1-0.8-2.2-0.8-3.3c0-0.5,0.1-1,0.2-1.5C203.6,203.8,203.6,203.8,203.6,203.9z"/>
</g>
<path class="st4" d="M203.2,184.5c0.3,1.4,0.7,3.2,1,4.1c0-0.2,0.1-0.4,0.1-0.6c0.1,0,0.3,0.1,0.4,0.2c0-1-0.1-2.4-0.2-3.5
	c-0.4-0.1-0.7,0.1-0.9,0.5C203.5,185,203.3,184.7,203.2,184.5z"/>
<path class="st21" d="M203.3,184.5c0.3,1.4,0.7,3.2,1,4.1c0-0.2,0.1-0.4,0.1-0.6c0.1,0,0.3,0.1,0.4,0.2c0-1-0.1-2.4-0.2-3.5
	c-0.4-0.1-0.7,0.1-0.9,0.5C203.6,185,203.5,184.7,203.3,184.5z"/>
<g class="st39">
	<path class="st40" d="M71.6,107.4h50v54.1h-50V107.4z"/>
	<path class="st41" d="M69.3,104.9v59.2h54.6v-59.2C123.9,104.9,69.3,104.9,69.3,104.9z M71.6,107.4h50v54.1H71.5L71.6,107.4z"/>
	<path class="st42" d="M109,129.8c-0.5-0.2-0.9-0.3-1.4-0.3c-2.8,0-4.8,2.5-4.8,6.5c0,4.7,1.9,6.5,4.5,6.5c0.5,0,1.1-0.1,1.6-0.3
		L109,129.8L109,129.8z M98.7,136.3c0-5.9,3.4-10.5,9-10.5c0.4,0,0.8,0,1.2,0.1v-6.6c0-0.1,0.1-0.3,0.3-0.3l0,0h3.7
		c0.2,0,0.3,0.1,0.3,0.2v23.1c0,0.8,0,1.6,0.1,2.5c0,0.2,0,0.2-0.1,0.3c-1.8,1-3.8,1.5-5.9,1.5C102.3,146.5,98.7,143.1,98.7,136.3
		L98.7,136.3z M91.1,132.2l6.4,13.7c0.1,0.2,0.1,0.4-0.2,0.4h-3.9c-0.2,0-0.5-0.1-0.5-0.3c-1.5-3.3-2.9-6.8-4.5-10.4h-0.1
		c-1.4,3.4-2.8,7.1-4.3,10.4c-0.1,0.2-0.3,0.3-0.5,0.3h-3.8c-0.3,0-0.3-0.2-0.2-0.4l6.2-13.3l-5.9-13.2c-0.1-0.1-0.1-0.2,0-0.3
		c0,0,0.1-0.1,0.2-0.1H84c0.3,0,0.4,0,0.4,0.3c1.5,3.4,2.9,6.7,4.3,10.1h0.1c1.4-3.3,2.7-6.7,4.2-10c0.1-0.2,0.2-0.3,0.4-0.3H97
		c0.2,0,0.3,0.1,0.2,0.4L91.1,132.2L91.1,132.2z"/>
</g>
<g class="st39">
	<path id="_x38_8e22766-bb2e-4d8a-8c4e-873561c02ed1_1_" class="st43" d="M362.9,130.9l-18.7,37.2l31.4-37.2H362.9z"/>
	<path id="dcb2c17a-6570-4f03-a416-11c2a206e419_1_" class="st44" d="M325.5,130.9l18.7,37.2l-31.4-37.2
		C312.7,130.9,325.5,130.9,325.5,130.9z"/>
	<path id="d2c5ae9b-dccc-4d4c-8aa0-840002be2480_1_" class="st45" d="M362.9,130.9h-37.4l18.7,37.2L362.9,130.9z"/>
	<path id="_x36_16bf47a-f8e5-41ce-b525-03b6ad416eda_1_" class="st46" d="M344.2,110.3l17.7,1.9l1,18.7L344.2,110.3z"/>
	<path id="ca73b31d-b223-4f6c-ac2e-edd2597912ec_1_" class="st47" d="M344.2,110.3l-17.7,1.9l-1,18.7L344.2,110.3z"/>
	<path id="_x32_a7c7013-4804-45aa-950a-2b5376f70ef0_1_" class="st48" d="M312.8,130.9l13.7-18.7l-1,18.7H312.8z"/>
	<path id="_x35_dac32ab-c712-4de9-a97f-2e05661e9f0b_1_" class="st48" d="M375.6,130.9l-13.7-18.7l1,18.7H375.6z"/>
	<path id="_x32_d1bbfda-86f6-4da7-9bb0-15ddbbfa97e7_1_" class="st49" d="M344.2,110.3l18.7,20.6h-37.4L344.2,110.3z"/>
</g>
</svg>
