<?xml version="1.0" encoding="utf-8"?>
<!-- Generator: Adobe Illustrator 22.0.1, SVG Export Plug-In . SVG Version: 6.00 Build 0)  -->
<svg version="1.1" id="Layer_1" xmlns="http://www.w3.org/2000/svg" xmlns:xlink="http://www.w3.org/1999/xlink" x="0px" y="0px"
	 viewBox="0 0 1300 400" style="enable-background:new 0 0 1300 400;" xml:space="preserve">
<style type="text/css">
	.st0{fill:url(#SVGID_1_);stroke:#000000;stroke-width:1.6452;stroke-miterlimit:10;}
	.st1{opacity:0.1;fill:#0D8CD8;enable-background:new    ;}
	.st2{fill:none;stroke:#535461;stroke-width:0.658;stroke-miterlimit:10;}
	.st3{fill:#0D8CD8;}
	.st4{opacity:0.25;enable-background:new    ;}
	.st5{fill:#464353;}
	.st6{fill:#514E7F;}
	.st7{opacity:0.1;enable-background:new    ;}
	.st8{opacity:0.5;fill:#0D8CD8;enable-background:new    ;}
	.st9{fill:url(#SVGID_2_);}
	.st10{fill:#3F3D56;}
	.st11{fill:#A1616A;}
	.st12{opacity:5.000000e-02;enable-background:new    ;}
	.st13{opacity:0.1;}
</style>
<linearGradient id="SVGID_1_" gradientUnits="userSpaceOnUse" x1="0" y1="196.1942" x2="1300" y2="196.1942" gradientTransform="matrix(1 0 0 -1 0 400)">
	<stop  offset="0" style="stop-color:#007194"/>
	<stop  offset="1" style="stop-color:#41C1C9"/>
</linearGradient>
<rect y="3.8" class="st0" width="1300" height="400"/>
<path class="st1" d="M1216.6,295.3c-0.4,0.3-0.7,0.5-1.1,0.8c-1.4,0.9-2.8,1.7-4.2,2.5c-7.7,3.8-17.2,5.7-26.5,7
	c-20.8,2.9-42,3.4-63.1,4c-57.1,1.5-114.3,3-171.2-0.5c-22.5-1.3-45.5-3.6-65.9-10.5c-2.9-1-5.8-2.1-8.6-3.3
	c-5.7-2.4-11.1-5.4-15.7-8.9c-4.3-3.3-7.7-7.1-9.8-11.4c-4.3-9-2-19,2.9-27.8c2.1-3.6,4.4-7,6.9-10.2c3.8-4.9,8-9.7,11.8-14.7
	c13.6-17.6,22.5-39.8,9.9-57.8c-3.6-5.2-8.8-9.7-11.8-15.1c-3.8-6.9-3.5-14.6-2.3-22c0.2-0.9,0.3-1.9,0.5-2.8
	c2-11,5.9-22.9,17.7-29.8c12.3-7.2,29.7-6.8,44.9-4.2c23.7,4,45.5,12.3,67.6,19.8c22.1,7.5,45.2,14.4,69.4,15.1
	c21.4,0.7,46.4-4.2,60.6-16.9c13.8-12.3,39.8-13.3,58.5-5.8c12.8,5.1,22.4,14.3,26.5,24.7c0.8,2.1,1.4,4.2,1.8,6.4
	c0.3,2,0.4,4,0.3,6.1c-0.1,1-0.2,2-0.3,3c-3.1,20.4-25.6,36.6-39.3,54.8c-6.7,8.9-11.4,19.6-6.8,29.2c7,14.7,31.4,19.9,46.1,30.8
	c2.8,2,5.2,4.3,7.2,7C1229.9,274.5,1227.2,287.6,1216.6,295.3z"/>
<ellipse class="st1" cx="1025.1" cy="303" rx="88.7" ry="3"/>
<g id="_x35_5bfdb31-36b5-4718-97dd-773b4157bdc7">
	<path class="st2" d="M1095.6,300.9c0,0,19.1-24.2,17.6-48.2c-0.6-10.1,1.9-20.1,7.4-28.6c2.6-4,5.6-7.8,9-11.2"/>
	<path class="st3" d="M1128.8,197.8c-1.3,3.4,0.8,15.5,0.8,15.5s10-7.3,11.3-10.7c1.4-3.4-0.3-7.2-3.6-8.5
		C1133.9,192.8,1130.1,194.5,1128.8,197.8L1128.8,197.8L1128.8,197.8z"/>
	<path class="st3" d="M1111.2,212.4c0.7,3.6,9.1,12.6,9.1,12.6s4.4-11.6,3.7-15.1c-0.7-3.5-4.2-5.8-7.8-5.1
		C1112.8,205.5,1110.6,208.9,1111.2,212.4L1111.2,212.4z"/>
	<path class="st3" d="M1098.9,244.4c2.4,2.7,14.2,6.3,14.2,6.3s-2-12.2-4.4-14.9c-2.4-2.7-6.5-3-9.3-0.6
		C1096.8,237.5,1096.5,241.6,1098.9,244.4L1098.9,244.4L1098.9,244.4z"/>
	<path class="st3" d="M1095,270.7c1.9,3.1,13,8.6,13,8.6s0.1-12.4-1.8-15.5c-1.9-3.1-5.9-4.1-9-2.2S1093.1,267.5,1095,270.7
		C1095,270.6,1095,270.6,1095,270.7z"/>
	<path class="st3" d="M1132.9,230.8c-3.4,1.4-15.6-0.7-15.6-0.7s7.2-10,10.6-11.4c3.4-1.3,7.2,0.3,8.5,3.7
		C1137.7,225.7,1136.1,229.4,1132.9,230.8z"/>
	<path class="st3" d="M1128,261.5c-3.6,0.3-14.6-5.3-14.6-5.3s9.9-7.4,13.5-7.7c3.6-0.4,6.8,2.3,7.2,5.9c0.4,3.6-2.3,6.8-5.9,7.2
		C1128.1,261.5,1128,261.5,1128,261.5z"/>
	<path class="st3" d="M1119,290.7c-3.5,0.9-15.3-2.8-15.3-2.8s8.5-9,12-9.9c3.5-0.8,7,1.4,7.9,4.9
		C1124.4,286.3,1122.4,289.7,1119,290.7L1119,290.7z"/>
	<path class="st4" d="M1128.8,197.8c-1.3,3.4,0.8,15.5,0.8,15.5s10-7.3,11.3-10.7c1.4-3.4-0.3-7.2-3.6-8.5
		C1133.9,192.8,1130.1,194.5,1128.8,197.8L1128.8,197.8L1128.8,197.8z"/>
	<path class="st4" d="M1111.2,212.4c0.7,3.6,9.1,12.6,9.1,12.6s4.4-11.6,3.7-15.1c-0.7-3.5-4.2-5.8-7.8-5.1
		C1112.8,205.5,1110.6,208.9,1111.2,212.4L1111.2,212.4z"/>
	<path class="st4" d="M1098.9,244.4c2.4,2.7,14.2,6.3,14.2,6.3s-2-12.2-4.4-14.9c-2.4-2.7-6.5-3-9.3-0.6
		C1096.8,237.5,1096.5,241.6,1098.9,244.4L1098.9,244.4L1098.9,244.4z"/>
	<path class="st4" d="M1095,270.7c1.9,3.1,13,8.6,13,8.6s0.1-12.4-1.8-15.5c-1.9-3.1-5.9-4.1-9-2.2S1093.1,267.5,1095,270.7
		C1095,270.6,1095,270.6,1095,270.7z"/>
	<path class="st4" d="M1132.9,230.8c-3.4,1.4-15.6-0.7-15.6-0.7s7.2-10,10.6-11.4c3.4-1.3,7.2,0.3,8.5,3.7
		C1137.7,225.7,1136.1,229.4,1132.9,230.8z"/>
	<path class="st4" d="M1128,261.5c-3.6,0.3-14.6-5.3-14.6-5.3s9.9-7.4,13.5-7.7c3.6-0.4,6.8,2.3,7.2,5.9c0.4,3.6-2.3,6.8-5.9,7.2
		C1128.1,261.5,1128,261.5,1128,261.5z"/>
	<path class="st4" d="M1119,290.7c-3.5,0.9-15.3-2.8-15.3-2.8s8.5-9,12-9.9c3.5-0.8,7,1.4,7.9,4.9
		C1124.4,286.3,1122.4,289.7,1119,290.7L1119,290.7z"/>
	<path class="st2" d="M1095.8,299.9c0,0,27.2-14.4,35.6-36.9c3.5-9.5,9.9-17.6,18.4-23.1c4-2.6,8.3-4.8,12.7-6.6"/>
	<path class="st3" d="M1167.9,219.1c-2.6,2.5-5.6,14.5-5.6,14.5s12.1-2.6,14.7-5.1c2.6-2.6,2.6-6.7,0-9.3
		C1174.5,216.7,1170.4,216.6,1167.9,219.1z"/>
	<path class="st3" d="M1145.9,225.3c-0.8,3.5,3.2,15.2,3.2,15.2s8.7-8.8,9.5-12.3c0.9-3.5-1.3-7.1-4.8-8s-7.1,1.3-8,4.8
		C1146,225.1,1146,225.2,1145.9,225.3L1145.9,225.3z"/>
	<path class="st3" d="M1121.7,249.5c1.1,3.5,10.5,11.5,10.5,11.5s3.1-12,2-15.4c-1-3.5-4.7-5.5-8.1-4.5s-5.5,4.7-4.5,8.1
		C1121.6,249.4,1121.7,249.5,1121.7,249.5L1121.7,249.5z"/>
	<path class="st3" d="M1107.5,272c0.5,3.6,8.4,13.1,8.4,13.1s5.1-11.3,4.6-14.9c-0.5-3.6-3.8-6.1-7.4-5.6
		C1109.5,265.1,1107,268.4,1107.5,272L1107.5,272z"/>
	<path class="st3" d="M1158.3,250.9c-3.6-0.1-13.9-7-13.9-7s10.7-6.3,14.3-6.2c3.6,0.2,6.4,3.2,6.3,6.8
		C1164.8,248.2,1161.8,250.9,1158.3,250.9z"/>
	<path class="st3" d="M1141.3,277c-3.4-1.2-11.2-10.8-11.2-10.8s12.1-2.8,15.5-1.6c3.4,1.3,5.1,5,3.9,8.4
		C1148.3,276.3,1144.7,278,1141.3,277L1141.3,277z"/>
	<path class="st3" d="M1121.4,300c-3.6-0.6-12.9-8.8-12.9-8.8s11.4-4.8,15-4.2c3.6,0.6,5.9,4.1,5.3,7.6
		C1128.1,298.2,1124.9,300.5,1121.4,300z"/>
</g>
<polygon class="st5" points="1098.2,301.9 1095.2,301.9 1073.9,191.7 1071.2,301.9 1068.1,301.9 1064.6,191.9 1043.8,301.9 
	1040.5,301.9 1054.6,188.7 1055.1,185 1082.8,181.9 1083.7,188.7 "/>
<rect x="1021.6" y="159.8" class="st5" width="17.7" height="10.9"/>
<path class="st5" d="M1124,155l10.7-4.3h2.3c0.7,0,1.3,0.6,1.3,1.3v30.1c0,0.7-0.6,1.3-1.3,1.3h-2.3l-10.7-4.4V155z"/>
<rect x="1102.2" y="156.4" class="st5" width="21.8" height="21.1"/>
<rect x="1064.3" y="116.7" class="st6" width="14" height="2.6"/>
<rect x="1048.3" y="120" class="st6" width="39.5" height="28.9"/>
<rect x="1048.3" y="145.4" class="st7" width="39.5" height="3.4"/>
<rect x="1101.9" y="156.4" class="st7" width="0.9" height="21.1"/>
<rect x="1033.2" y="159.8" class="st7" width="6" height="10.9"/>
<polygon class="st7" points="1083.7,188.7 1054.6,188.7 1055.1,185 1082.8,181.9 "/>
<path class="st6" d="M1037.3,146h61.4c1.9,0,3.5,1.6,3.5,3.5v35.1c0,1.9-1.6,3.5-3.5,3.5h-61.4c-1.9,0-3.5-1.6-3.5-3.5v-35.1
	C1033.8,147.6,1035.4,146,1037.3,146z"/>
<path class="st6" d="M1123.8,155h0.2l0,0v23.9l0,0h-0.2c-0.9,0-1.7-0.8-1.7-1.7l0,0v-20.5C1122.1,155.8,1122.9,155,1123.8,155z"/>
<path class="st6" d="M1134.7,150.7h2.2c0.8,0,1.4,0.6,1.4,1.4v29.8c0,0.8-0.6,1.4-1.4,1.4h-2.2l0,0V150.7L1134.7,150.7z"/>
<rect x="1021.6" y="159.8" class="st7" width="3.1" height="10.9"/>
<path class="st6" d="M1020.4,156.4h1.4c1.3,0,2.4,1.1,2.4,2.4v13.9c0,1.3-1.1,2.4-2.4,2.4h-1.4c-1.3,0-2.4-1.1-2.4-2.4v-13.9
	C1018,157.4,1019.1,156.4,1020.4,156.4z"/>
<circle class="st5" cx="1048.3" cy="120" r="19.7"/>
<circle class="st3" cx="1048.3" cy="120" r="14.8"/>
<circle class="st5" cx="1084.8" cy="120.4" r="14.4"/>
<circle class="st3" cx="1084.8" cy="120.4" r="10.8"/>
<circle class="st3" cx="1083.7" cy="152.3" r="1.9"/>
<circle class="st8" cx="1089.7" cy="152.3" r="1.9"/>
<linearGradient id="SVGID_2_" gradientUnits="userSpaceOnUse" x1="1029.8992" y1="-16.3645" x2="1029.8992" y2="195.5182" gradientTransform="matrix(1 0 0 -1 -24.78 287.78)">
	<stop  offset="0" style="stop-color:#808080;stop-opacity:0.25"/>
	<stop  offset="0.54" style="stop-color:#808080;stop-opacity:0.12"/>
	<stop  offset="1" style="stop-color:#808080;stop-opacity:0.1"/>
</linearGradient>
<path class="st9" d="M1065.9,158.8l-0.1-0.3c0.8,0.3,1.6,0.6,2.4,1.1c-0.3-2.9-11.3-10.9-13.3-10.9c-2,0-4.2-3.4-4.2-3.4
	s-5.7-0.9-6.6-1.8c-0.9-0.9-6.8-0.4-8.2-0.1c-1.4,0.3-3.6-0.9-3.6-0.9s-1.2-2-2.7-2c-1.5,0-3.2-2.2-3.2-2.2s-1.4-1.3-2.7-1.5
	c-1.3-0.2-3-1.6-3.7-2.7s-4.6-1.6-6.8-1.3c-2.2,0.3-8.1-0.4-8.1-0.4c2.4-1.1,3-3.7,3-3.7c-2.2-0.1-7.8-4.9-7.8-4.9s0.2,1.5,0.5,3.7
	l-0.4-0.5l0,0c-0.1-1.5-0.1-3.1,0-4.6c0-0.1,0-0.2,0-0.4c2.9-2.5,4.1-6.4,3.2-10.1c-0.1-0.3-0.1-0.5-0.2-0.7
	c0.4,0.2,0.9,0.3,1.3,0.3h0.2c0.6,0,1.1-0.2,1.4-0.6l0,0c0.1-0.1,0.1-0.2,0.2-0.3c0,0,0,0,0-0.1c0-0.1,0.1-0.2,0.1-0.3
	c0,0,0-0.1,0-0.1c0-0.1,0-0.1,0-0.2c0-0.1,0-0.1,0-0.2s0-0.1,0-0.1c0-0.5-0.1-1-0.3-1.5c-0.3-0.8-0.8-1.7-0.8-2.6c0-0.1,0-0.1,0-0.2
	c0.1-0.7,0.5-1.4,0.7-2.1v0c0-0.1,0.1-0.2,0.1-0.3c0,0,0-0.1,0-0.1c0-0.1,0-0.2,0-0.4c0,0,0,0,0,0c0.1-1.4-1-2.6-2.3-3.1
	c-1.1-0.5-2.4-0.6-3.4-1.3c-1.2-0.8-1.8-2.1-2.7-3.2c-1.3-1.6-3.2-2.8-5.3-2.6c-1.2,0.1-2.4,0.8-3.6,1c-1.9,0.4-3.9-0.2-5.8,0.3
	c-0.5,0.1-0.9,0.3-1.2,0.7c-0.1,0.2-0.2,0.4-0.2,0.6l0,0c0,0.2,0,0.4,0,0.6v0c0,0.2,0.1,0.4,0.1,0.6l0,0.1c0,0,0,0.1,0,0.1
	c0,0,0,0.2,0.1,0.2c0,0.1,0.1,0.3,0.1,0.4v0c0,0.1,0.1,0.3,0.1,0.4l0,0c0.1,0.3,0.1,0.6,0.1,0.9l0,0c0.1,0.8-0.1,1.6-0.5,2.3
	c-0.8,1.3-2.6,1.9-3.3,3.3c-0.2,0.3-0.3,0.7-0.3,1.1l0,0c0,0.1,0,0.2,0,0.4v0c0,0.1,0,0.2,0,0.3c0,0,0,0.1,0,0.1
	c0,0.1,0,0.2,0.1,0.3c0,0,0,0.1,0,0.1c0,0.1,0.1,0.2,0.1,0.3l0,0c0.4,0.7,1,1.3,1.2,2.1l0,0c0,0,0,0,0,0.1c0.1,0.6-0.2,1.2-0.3,1.8
	c0,0.1,0,0.1,0,0.2l0,0c0,0,0,0,0,0.1s0,0.1,0,0.2s0,0.1,0,0.1s0,0.1,0,0.1c0,0,0,0.1,0,0.1c0,0,0,0.1,0,0.1s0,0.1,0,0.1
	s0,0.1,0,0.1l0,0.1c0,0,0,0.1,0.1,0.1l0,0.1c0,0,0.1,0.1,0.1,0.1c0,0,0,0,0,0.1c0,0.1,0.1,0.1,0.2,0.1c0.5,0.3,1.2,0.2,1.5,0.7
	c0,0.1,0.1,0.1,0.1,0.2l0,0c0,0.1,0,0.1,0.1,0.2l0,0c0.1,0.2,0.1,0.5,0,0.8c-0.1,0.7-0.4,1.3-0.6,1.9c0,0.1,0,0.3-0.1,0.4l0,0
	c0,0.1,0,0.1,0,0.2v0c0,0.1,0,0.1,0,0.2s0,0,0,0c0,0.1,0,0.2,0,0.3c0,0.1,0,0.1,0,0.1l0,0.1c0,0,0,0.1,0,0.1l0,0.1
	c0,0,0,0.1,0.1,0.1c0,0,0,0,0,0.1c0,0.1,0.1,0.1,0.1,0.2c0.4,0.5,1.1,0.7,1.7,0.7c0.4,0,0.8,0,1.2-0.1c0.1,0.2,0.2,0.4,0.3,0.6
	c0.5,1,1.1,1.8,1.9,2.6c0,0.1,0,0.2,0,0.3c-0.1,0.8-0.2,1.6-0.3,2.4c-0.9-0.4-1.5-0.5-1.8-0.3c-1.1,1.2,0,5.4,0,5.4s-5.4,0-6.7,1.2
	s-3.7,0-3.7,0s-4.9,0.6-4.6,1.5c0.3,1-2.6,0-2.6,0s-2.1,0.2-2,1.6s-3.2,2.1-2.7,3.1c0.4,1-2,1.6-2,1.6s-2.4-0.1-1.5,1.3l0,0
	c0,0-1.3,3.1-2.4,3.3c-1.1,0.2-2.5,2.7-2.5,2.7s-4.2,0.8-4,2.1c0.2,1.3-6.5,10.8-6.5,10.8s-2.2,4.5-0.7,7.8c1.5,3.3,2.6,5.5,3,6.7
	c0.3,1.2,4.3,6.5,4.3,7.5c0,0.3,1,2,2.3,4.1l-0.4,0.4l-0.9,0.9c0,0-2.7,6.8,0.5,7.1c2.8,0.3,4.8,0.5,5.8,0.2c0.2,0,0.3-0.1,0.5-0.2
	l0,0c1.2,1.8,2,3,2,3s0.1-0.2,0.3-0.5l0.3,0.5c0,0,0.3-0.4,0.7-1c-0.1,3-0.2,5.9-0.2,5.9s1.4-0.2,0.8,6.4s3.9,12,3.9,12v9.8l0,0
	c0,0,0,0.2,0,0.7c0.1,1.4,0.5,4.7,1.7,6.9c1.5,2.9,0,10.3,0,10.3s-0.1,6.1,0.3,13.7c0,0.2,0,0.4,0,0.6c-6.7,5.6-13.8,12.9-13.8,12.9
	c0.3,0.1,0.7,0.2,1,0.4l-0.4,0.5l-1.8,2.2l0,0l-1.4,1.7l0,0l2.2,6.8l2.4-0.9c0,0,1.3,2.3,1,3.8c0,0.3-0.2,0.5-0.3,0.8
	c-0.1,0.1-0.1,0.2-0.2,0.4c-0.6,2.5,2,13.2,6.2,13.6c0,0,1.4,0.5,1.9-0.8c0.2-0.6,0.2-1.6-0.3-3.3c0,0-2.2-2.7-0.8-5.6
	c0.8-1.7,2.2-3.9,3.2-5.5l0.4-0.7c0.9,1.1,1.5,1.9,1.5,1.9l3.2-3.5c0.1,0.1,0.1,0.3,0.2,0.4c0.2,0.5,0.5,0.9,0.8,1.4l2.2,8.7
	l0.9-0.2c0,0.2,0,0.4,0,0.7c-0.1,1.6,0,3.6,0.7,5c0.5,1.1,1.5,1.9,2.9,1.8c5.1-0.1,6.6-2.9,6.6-2.9v-6.9l1.8-0.4
	c0,0-0.1-15.2-0.6-23.6c0-0.2,0-0.4,0-0.5c0,0,0-0.1,0-0.1l11.3-12.1l0.9-0.3c7.2-2.9,7.4-10.2,7.4-10.2s0-4.1,0.9-7.5
	s0.1-21.1-1.5-25.5c-1.6-4.4-2.2-9.4-2.2-9.4s1.6-2.3,0-4.2c-0.5-0.6-0.9-1.2-1.2-1.9l2.1-0.4l1.2-0.2l0.7-0.1
	c-0.3,2.9-0.4,5.1,0.4,5.7c2.4,1.6,10.5-3.8,10.5-3.8c-3,0-4.6-22.1-4-22.6c0.6-0.5,1.5-11.6,0.7-13.6c-0.8-2,2.8-10.8,2.8-10.8
	l0.5-0.8l0,0c0,0,12.9,5.6,14.4,6.7c1.4,1.1,5.9-2.6,6.7-1.2c0.8,1.4,5.6,3.6,5.6,3.6s7.1-0.7,7.9,1c0.8,1.8,5.4,5.9,5.4,5.9
	c0-1,0.1-1.9,0.2-2.9c0.1,0.2,0.2,0.5,0.3,0.7c2.2,5.2,5.8,11.7,9.2,8.2C1070.7,169.9,1067.8,162.5,1065.9,158.8z M968.4,182.1
	L968.4,182.1L968.4,182.1L968.4,182.1z M965.8,156.8l-1.4,14.7l-2.7,2.8l-0.3,0.3l-2.8-3.1c0,0-1.4-0.7,0-1.9
	c1.4-1.2-2.4-3.9-2.4-3.9s-0.1-2,1.3-2.5c1.4-0.6,3.3-4.2,3.3-4.2l5.2-2.6l0,0l0,0L965.8,156.8z M984.2,232.1
	c0.1-0.1,0.2-0.2,0.3-0.2c0.6-0.3,1,0,1.2,0.7c0.3,1.1,0.2,2.3-0.2,3.4c-0.8,1.8,1.1,8.8,1.1,8.8s-2.4,1.1-2.9,3.2
	c-0.1,0.3-0.2,0.5-0.3,0.7c0-0.2-0.1-0.4-0.1-0.5c-0.2-1.3-0.3-2.2-0.3-2.2c-0.4-1.7-0.5-3.4-0.2-5.2c0.3-2.1,1.1-6.4,1.3-8
	C984.1,232.3,984.2,232.1,984.2,232.1L984.2,232.1z"/>
<path class="st5" d="M999.4,125l0.7-0.5l2,4.2l-0.8,0.9h-2.3c0,0,0.1-2.3,0.1-2.4C999.3,127.1,999.4,125,999.4,125z"/>
<path class="st10" d="M985.7,292.5v9c0,0-1.5,2.8-6.6,2.9c-1.3,0.1-2.4-0.7-2.9-1.8c-0.7-1.4-0.8-3.5-0.7-5c0-0.8,0.1-1.6,0.2-2.3
	L985.7,292.5z"/>
<path class="st7" d="M985.7,292.5v2.8l-10.2,2.3c0-0.8,0.1-1.6,0.2-2.3L985.7,292.5z"/>
<path class="st6" d="M987.4,294.3l-12.8,2.9l-2.2-8.7c-0.3-0.4-0.6-0.9-0.8-1.4c-0.1-0.3-0.3-0.6-0.4-0.9
	c-2.4-5.5-3.5-15.3-3.9-23.7c0-0.4,0-0.8-0.1-1.3c-0.4-7.6-0.3-13.7-0.3-13.7s1.5-7.5,0-10.3c-1.2-2.2-1.6-5.5-1.7-6.9
	c0-0.4,0-0.7,0-0.7l0.2-0.6l1-2.6H977l6.2,5.2l0.9,0.8l-0.1,0.7c-0.3,1.6-1,5.9-1.3,8c-0.2,1.7-0.2,3.5,0.2,5.2c0,0,0.1,0.8,0.3,2.2
	c0,0.3,0.1,0.7,0.2,1.1c0.8,4.9,2.3,13.7,2.9,15.9c0.2,0.6,0.3,2,0.4,4c0,0.4,0,0.8,0.1,1.2C987.3,279.2,987.4,294.3,987.4,294.3z"
	/>
<path class="st7" d="M985.7,301.5L985.7,301.5c0,0.1-1.5,2.8-6.6,3c-1.3,0.1-2.4-0.7-2.9-1.8C978.5,303.2,982.2,303.6,985.7,301.5z"
	/>
<path class="st11" d="M1066.8,174.5c-3.4,3.5-7-3-9.2-8.2c-1.2-2.9-2-5.4-2-5.4l9-3.8c0,0,0.6,0.9,1.2,2.3
	C1067.8,163.2,1070.7,170.5,1066.8,174.5z"/>
<path class="st11" d="M1000.2,123.1c-0.1,3.3,0.1,6.5,0.7,9.7c0,0-18.3,2-16.7-0.9c1-1.7,1.6-6.1,1.9-9.5c0.3-2.4,0.4-4.3,0.4-4.3
	s17.5-7,14.9-1.1C1000.7,118.9,1000.3,121,1000.2,123.1z"/>
<polygon class="st5" points="1001.8,170.3 999.3,199.6 1010.6,197.8 1008.6,173.5 1009.3,167.1 "/>
<polygon class="st7" points="1010.6,197.8 1005.7,198.6 999.3,199.7 999.7,194.3 1001.8,170.3 1004.3,169.2 1006.1,168.5 
	1009.3,167.1 1008.6,173.6 "/>
<path class="st10" d="M963,294.4c-1.4,2.9,0.8,5.6,0.8,5.6c0.5,1.7,0.5,2.7,0.3,3.3c-0.5,1.3-1.9,0.8-1.9,0.8
	c-4.5-0.5-7.2-12.6-6-14s-0.7-4.6-0.7-4.6l-2.4,0.9l-2.2-6.8l1.4-1.7l1.8-2.2l1.2-1.5l12.3,12.8c0,0-0.5,0.8-1.2,1.9
	C965.3,290.5,963.9,292.7,963,294.4z"/>
<path class="st7" d="M986.9,270.7l-15.3,16.4c-2.7-5.2-3.8-15.7-4.3-24.6c2.8-2.4,5.6-4.4,7.7-5.4c0,0,7-5.1,8.5-7.5
	c0.8,4.9,2.3,13.7,2.9,15.9C986.6,266.1,986.7,268.1,986.9,270.7z"/>
<polygon class="st7" points="983.2,231.8 965.4,229.1 966.4,226.5 977,226.5 "/>
<path class="st7" d="M986.8,269.5l-15.6,16.8c-2.4-5.5-3.5-15.3-3.9-23.7c0-0.4,0-0.8-0.1-1.3c2.9-2.4,5.7-4.5,7.7-5.4
	c0,0,6.6-4.7,8.4-7.3c0,0.3,0.1,0.7,0.2,1.1c0.8,4.9,2.3,13.7,2.9,15.9C986.5,266,986.7,267.5,986.8,269.5z"/>
<path class="st7" d="M967.5,287c0,0-0.5,0.8-1.2,1.9c-2.6-3.3-8.8-10.9-12.2-13.2l1.2-1.5L967.5,287z"/>
<path class="st6" d="M1007.2,240c-0.9,3.4-0.9,7.5-0.9,7.5s-0.1,7.3-7.4,10.2l-0.9,0.3l-29.9,32.1c0,0-11.1-14.5-14.7-15.4
	c0,0,14.6-15,21.5-18.3c0,0,8.3-6,8.8-8.1s2.9-3.2,2.9-3.2s-1.9-7-1.1-8.8c0.4-1.1,0.5-2.3,0.2-3.4c-0.2-0.7-0.6-1-1.2-0.7
	c-0.1,0.1-0.2,0.1-0.3,0.2l-19-2.9v-9.7c0,0-4.6-5.4-3.9-12c0.7-6.6-0.8-6.4-0.8-6.4s0.1-11.1,1-12s9.9-5.2,9.9-5.2l28.2,5l1.2,5.4
	c0,0,1,4.3,2.6,6.2c1.6,1.9,0,4.2,0,4.2s0.5,4.9,2.2,9.3C1007.3,219,1008.1,236.6,1007.2,240z"/>
<path class="st7" d="M1001.5,117.2c-0.8,1.8-1.2,3.9-1.3,6c-4.1,3.5-10.2,3.3-14-0.6c0.3-2.4,0.4-4.3,0.4-4.3
	S1004.1,111.3,1001.5,117.2z"/>
<path class="st11" d="M1003.7,115.1c0,5.6-4.6,10.2-10.2,10.2c-5.6,0-10.2-4.6-10.2-10.2c0-5.6,4.6-10.2,10.2-10.2
	c4.7,0,8.8,3.2,9.9,7.8C1003.6,113.5,1003.7,114.3,1003.7,115.1z"/>
<path class="st7" d="M995.5,132.9c0,0-7.3-3.4-7.8-3.8S972,167.6,972,167.6l-4.3,19.4c0,0,22.8,9.8,27.7,8.4c4.9-1.3,5.4,0,5.4,0
	s5-28.3,6.7-30.8c1.6-2.5-1.5-28.2-1.5-28.2l-5.7-7.5L995.5,132.9z"/>
<path class="st7" d="M995.5,131.5c0,0-7.3-3.4-7.8-3.8S972,166.3,972,166.3l-4.3,19.4c0,0,22.8,9.8,27.7,8.4c4.9-1.3,5.4,0,5.4,0
	s5-28.3,6.7-30.8s-1.5-28.2-1.5-28.2l-5.7-7.5L995.5,131.5z"/>
<path class="st3" d="M1007.5,164c-0.3,0.5-0.8,2.1-1.4,4.4c-0.4,1.6-0.8,3.4-1.2,5.4c-1.9,9.1-4.1,21-4.1,21s-0.1-0.4-1.1-0.5
	c-0.8-0.1-2.1,0-4.3,0.5c-4.9,1.3-27.7-8.4-27.7-8.4l0.7-3L972,167c0,0,15.2-39,15.7-38.6c0.3,0.3,3.1,1.6,5.3,2.7
	c1.4,0.7,2.5,1.2,2.5,1.2l4.6-3.6l0.3-0.2l5.7,7.5C1006,135.8,1009.2,161.5,1007.5,164z"/>
<path class="st7" d="M990.1,136c0.7,2.5-0.9,6.7-0.9,6.7s-5.3,12.9-6.8,18.9c-1.5,6-10.3,18-10.3,18s-1.3,1.3-3.1,3.1
	c-0.2,0.2-0.4,0.4-0.6,0.6L972,167c0,0,15.2-39,15.7-38.6c0.3,0.3,3.1,1.6,5.3,2.7C991.6,132.3,989.6,134.4,990.1,136z"/>
<path class="st5" d="M989.4,136c0.7,2.5-0.9,6.7-0.9,6.7s-5.3,12.9-6.8,18.9c-1.5,6-10.3,18-10.3,18s-1.3,1.3-3.1,3.1
	c-0.2,0.2-0.4,0.4-0.7,0.7c-3.5,3.5-8.5,8.4-10,9.9c-0.2,0.2-0.4,0.4-0.4,0.4c-0.1,0.1-0.3,0.2-0.5,0.2c-1,0.3-3,0.1-5.8-0.2
	c-3.3-0.3-0.5-7.1-0.5-7.1l0.9-0.9l0.8-0.8l9-9.2l0.7-0.7l2.7-2.8l1.4-14.7l0-0.4c0,0-0.4-0.9-1-2.4c-1.7-3.8-5-11.3-6.2-13.7
	c-0.1-0.3-0.2-0.5-0.3-0.6c0,0,0,0,0,0c-0.9-1.4,1.5-1.3,1.5-1.3s2.4-0.7,2-1.6c-0.4-1,2.9-1.6,2.7-3.1s2-1.6,2-1.6s3,1,2.6,0
	c-0.3-1,4.6-1.5,4.6-1.5s2.4,1.2,3.7,0s6.7-1.2,6.7-1.2s-1.1-4.2,0-5.4c1.1-1.2,9.4,5.4,9.4,5.4S988.8,133.5,989.4,136z"/>
<path class="st7" d="M962,192.2c0,0,9.1,12.8,15.5,8.7c6.4-4.2-8.6-15-8.6-15L962,192.2z"/>
<path class="st11" d="M962,191.5c0,0,9.1,12.8,15.5,8.7s-8.6-15-8.6-15L962,191.5z"/>
<path class="st7" d="M1005.7,198.6c0.7-6.1,2.7-15.2,1.1-17.9c-0.8-1.4-1.4-4-1.9-6.8c-0.2-1.5-0.4-3.1-0.6-4.7
	c-0.4-4.1-0.5-7.5-0.5-7.5s-3.9-17.6-3.2-21.2c0.5-2.3-0.1-7.9-0.6-11.9l0.3-0.2l5.7,7.5c0,0,3.2,25.7,1.5,28.2
	c-0.3,0.5-0.8,2.1-1.4,4.4l3.1-1.3l-0.7,6.5l2,24.2L1005.7,198.6z"/>
<path class="st5" d="M1000.2,124.5c0,0,5.7,4.8,7.8,4.9c0,0-0.6,2.6-3,3.7c0,0,5.9,0.8,8.1,0.4s6,0.2,6.8,1.3s2.4,2.5,3.7,2.7
	s2.7,1.5,2.7,1.5l-9.7,14.3c0,0-3.5,8.8-2.7,10.7c0.8,2-0.1,13.1-0.7,13.6c-0.6,0.5,1,22.6,4,22.6c0,0-8.1,5.5-10.5,3.8
	c-2.4-1.6,3.1-19.4,0.7-23.5c-2.4-4.1-3-19-3-19s-3.9-17.6-3.2-21.2C1002.1,136.8,1000.2,124.5,1000.2,124.5z"/>
<path class="st7" d="M1065.9,159.4c-2.9-0.9-7.4-0.9-8.3,6.9c-1.2-2.9-2-5.4-2-5.4l9-3.8C1064.7,157.2,1065.2,158.1,1065.9,159.4z"
	/>
<path class="st5" d="M1021,138.5l5.4,0.7c0,0,1.6,2.2,3.2,2.2c1.5,0,2.7,2,2.7,2s2.2,1.2,3.6,0.9c1.4-0.3,7.3-0.9,8.2,0.1
	c0.9,0.9,6.6,1.8,6.6,1.8s2.2,3.4,4.2,3.4s12.9,8,13.3,10.9c0,0-10.9-6.9-11,8.3c0,0-4.6-4.1-5.4-5.9s-7.9-1-7.9-1s-4.8-2.1-5.6-3.6
	c-0.8-1.4-5.3,2.3-6.7,1.2c-1.4-1.1-14.4-6.7-14.4-6.7l-4-7.5L1021,138.5z"/>
<circle class="st10" cx="996.2" cy="150.8" r="0.9"/>
<circle class="st10" cx="995.3" cy="170.3" r="0.9"/>
<circle class="st10" cx="996.2" cy="160.1" r="0.9"/>
<circle class="st10" cx="993.5" cy="180.5" r="0.9"/>
<path class="st7" d="M964.1,303.3c-0.5,1.3-1.9,0.8-1.9,0.8c-4.5-0.5-7.2-12.6-6-14s-0.7-4.6-0.7-4.6l-2.4,0.9l-2.2-6.8l1.4-1.7
	c1.4,2.4,3.4,5.9,3.9,6.8c0.9,1.8,1.3,3.9,1.2,5.9C957.2,292.8,959.7,303,964.1,303.3z"/>
<path class="st7" d="M1003.4,112.7c-0.2-0.1-0.4-0.2-0.7-0.3c-0.8-0.3-1.5-0.7-2-1.3c-0.4-0.6-0.6-1.5-1.2-1.8
	c-0.8-0.4-1.6,0.1-2.5,0.3c-1,0.2-2,0-2.9-0.4c-1.4-0.5-3.4-1.5-4.8-0.5c-1.1,0.8-0.7,2.4-1,3.5c-0.4,1.8-2.3,3-2.7,4.8
	c-0.2,0.8-0.1,1.8-0.7,2.3c-0.2,0.1-0.4,0.2-0.6,0.3c-2.5-5.1-0.4-11.2,4.6-13.7c5.1-2.5,11.2-0.4,13.7,4.6
	C1003,111.3,1003.3,112,1003.4,112.7L1003.4,112.7z"/>
<path class="st5" d="M994.2,108.6c0.9,0.3,1.9,0.6,2.9,0.4c0.8-0.2,1.7-0.7,2.5-0.3c0.7,0.4,0.8,1.2,1.2,1.8c0.5,0.7,1.3,1,2,1.3
	c0.6,0.3,1.2,0.4,1.8,0.5c0.6,0.1,1.2-0.2,1.7-0.6c0.6-0.7,0.4-1.8,0.1-2.6s-0.8-1.7-0.8-2.6c0-1.1,0.8-2,0.9-3.1
	c0.1-1.4-1-2.6-2.3-3.1c-1.1-0.5-2.4-0.6-3.4-1.3c-1.2-0.8-1.8-2.1-2.7-3.2c-1.3-1.6-3.2-2.8-5.3-2.6c-1.2,0.1-2.4,0.8-3.6,1
	c-1.9,0.4-3.9-0.2-5.8,0.3c-0.5,0.1-0.9,0.3-1.2,0.6c-0.5,0.6-0.2,1.5,0,2.2c0.4,1.3,0.5,2.9-0.2,4c-0.8,1.3-2.6,1.9-3.3,3.3
	c-0.4,0.8-0.5,1.8-0.1,2.6c0.4,0.8,1.1,1.4,1.2,2.2c0.1,0.6-0.2,1.2-0.3,1.8s-0.1,1.3,0.4,1.6s1.2,0.2,1.5,0.7
	c0.2,0.3,0.3,0.7,0.2,1.1c-0.1,0.7-0.4,1.3-0.6,1.9c-0.2,0.6-0.1,1.3,0.3,1.9c0.6,0.9,1.9,0.8,3,0.6c0.3,0,0.6-0.2,0.8-0.3
	c0.7-0.5,0.5-1.5,0.7-2.3c0.4-1.8,2.3-3,2.7-4.8c0.3-1.2-0.1-2.8,1-3.5C990.8,107.1,992.8,108.1,994.2,108.6z"/>
<path class="st7" d="M992.6,227.6c0,0,10.3,6.6,10.7,9.1L992.6,227.6z"/>
<path class="st7" d="M992.1,232.9c0,0,11.8,5.7,11.2,7.7L992.1,232.9z"/>
<path class="st7" d="M991.3,237.9c0,0,6.7,3.5,7.1,5.6L991.3,237.9z"/>
<path class="st7" d="M994.1,245.8c0,0,4.4,3.8,5.3,2.9S994.1,245.8,994.1,245.8z"/>
<path class="st7" d="M988,248.2c0,0,3.4,5.5,1.8,5.8S988,248.2,988,248.2z"/>
<path class="st7" d="M973,150.8c0,0-5.8,3.5-4.1,4.4S973,150.8,973,150.8z"/>
<path class="st7" d="M973,137.9c0,0-5.9,10.9-3.2,10.1C972.5,147.2,973,137.9,973,137.9z"/>
<path class="st7" d="M1035.9,148.8c0,0-3.6,4.3-3,6.6L1035.9,148.8z"/>
<path class="st7" d="M1045.4,150.8c0,0-5.4,4.8-4.6,5.4L1045.4,150.8z"/>
<path class="st7" d="M1048.8,156.8c0,0-0.5,3.2,0.3,3.3L1048.8,156.8z"/>
<path class="st12" d="M989.5,223.7c-1.4,1.8-1.4,5-2,6.3c-0.3,0.7-1.1,2-1.7,3c-0.2-0.7-0.6-1-1.2-0.7c-0.4-3-1.1-8.2-1.3-9.3
	c-0.3-1.5,3.3-5.4,3.3-5.4s3.5,0.7,4.4,2.5S990.9,221.9,989.5,223.7z"/>
<path class="st7" d="M971.2,185.6c-3.9,0.5-11.3,11.1-11.3,11.1s-1-1.4-2.3-3.4c-1.7-2.5-3.9-5.9-5.6-8.4l9.6-9.9l1.8,1.9
	c0,0,3.4,3.4,3.4,4.1c0,0.3,0.7,1,1.5,1.9C969.6,184.1,971.2,185.6,971.2,185.6z"/>
<path class="st7" d="M958.6,141.1c-0.1-0.3-0.2-0.5-0.3-0.6l4.3,0.3l2.3,14C963.1,150.9,959.8,143.5,958.6,141.1z"/>
<path class="st7" d="M967.7,183.5c-3.5,3.5-8.5,8.4-10,9.9c-0.2,0.2-0.4,0.4-0.4,0.4c-0.1,0.1-0.3,0.2-0.5,0.2
	c-1.5-2.3-3.8-5.6-5.5-8.2l0.8-0.8l9-9.2l1.1,1.2c0,0,3.4,3.4,3.4,4.1C965.5,181.2,966.6,182.4,967.7,183.5z"/>
<path class="st5" d="M963.2,140.8l-4.9-0.3c0,0-1.3,3.1-2.4,3.3c-1.1,0.2-2.5,2.7-2.5,2.7s-4.2,0.8-4,2.1c0.2,1.3-6.5,10.7-6.5,10.7
	s-2.2,4.5-0.7,7.8s2.6,5.5,3,6.7c0.3,1.2,4.2,6.5,4.2,7.5s10,15.5,10,15.5s7.3-10.5,11.3-11.1c0,0-4.4-4.1-4.4-4.7
	c0-0.7-3.4-4.1-3.4-4.1l-4.3-4.6c0,0-1.4-0.7,0-1.9s-2.4-3.9-2.4-3.9s-0.1-2,1.3-2.5c1.4-0.5,3.3-4.2,3.3-4.2l5.2-2.6L963.2,140.8z"
	/>
<path class="st7" d="M944.4,162.6c0,0,5.9-1.2,6-0.4C950.5,162.9,944.4,162.6,944.4,162.6z"/>
<path class="st7" d="M949.3,168.6c0,0,5,0.7,4.8,1.7C953.9,171.4,949.3,168.6,949.3,168.6z"/>
<path class="st7" d="M953.4,149.9c0,0,4.8,6.8,5.5,5.4L953.4,149.9z"/>
<g class="st13">
	<path d="M982.4,99c0-0.8-0.1-1.6-0.3-2.4c-0.1-0.3-0.2-0.7-0.2-1c0,0.6,0,1.1,0.2,1.6C982.3,97.8,982.4,98.4,982.4,99z"/>
	<path d="M1005.5,106.2c0.1-1,0.8-1.9,0.9-2.9c0-0.2,0-0.3,0-0.5c-0.1,1-0.8,1.9-0.9,3C1005.5,105.9,1005.5,106.1,1005.5,106.2z"/>
	<path d="M1006.2,111c-0.4,0.5-1.1,0.7-1.7,0.6c-0.6-0.1-1.2-0.2-1.8-0.5c-0.8-0.3-1.5-0.7-2-1.3c-0.4-0.6-0.6-1.5-1.2-1.8
		c-0.8-0.4-1.6,0.1-2.5,0.3c-1,0.2-2,0-2.9-0.4c-1.4-0.5-3.4-1.5-4.8-0.5c-1.1,0.8-0.7,2.4-1,3.5c-0.4,1.8-2.3,3-2.7,4.8
		c-0.2,0.8-0.1,1.8-0.7,2.3c-0.3,0.2-0.5,0.3-0.8,0.3c-1,0.2-2.3,0.3-3-0.6c-0.2-0.2-0.3-0.5-0.3-0.8c-0.1,0.5,0,1.1,0.3,1.5
		c0.6,0.9,1.9,0.8,3,0.6c0.3,0,0.6-0.2,0.8-0.3c0.7-0.5,0.5-1.5,0.7-2.3c0.4-1.8,2.3-3,2.7-4.8c0.3-1.2-0.1-2.8,1-3.5
		c1.4-1,3.4,0,4.8,0.5c0.9,0.3,1.9,0.6,2.9,0.4c0.8-0.2,1.7-0.7,2.5-0.3c0.7,0.4,0.8,1.2,1.2,1.8c0.5,0.7,1.3,1,2,1.3
		c0.6,0.3,1.2,0.4,1.8,0.5c0.6,0.1,1.2-0.2,1.7-0.6c0.3-0.4,0.5-1,0.4-1.5C1006.6,110.5,1006.4,110.8,1006.2,111z"/>
	<path d="M979.7,108.8c-0.1-0.8-0.8-1.4-1.2-2.2c-0.1-0.3-0.2-0.6-0.3-0.9c-0.1,0.5,0,1.1,0.3,1.6c0.4,0.7,1,1.3,1.2,2.1
		C979.7,109.1,979.7,108.9,979.7,108.8z"/>
	<path d="M981.5,113.9c0.1-0.4,0-0.7-0.2-1c-0.4-0.4-1.1-0.3-1.5-0.7c-0.2-0.2-0.4-0.5-0.4-0.8c-0.1,0.5,0,1.1,0.4,1.4
		c0.4,0.3,1.2,0.2,1.5,0.7C981.4,113.6,981.5,113.8,981.5,113.9z"/>
</g>
<path class="st3" d="M903.4,284.3c0,0-13.6-0.8-12,8.7c0,0-0.3,1.7,1.2,2.5c0,0,0-0.7,1.4-0.5c0.5,0.1,1,0.1,1.5,0.1
	c0.7,0,1.3-0.3,1.8-0.7l0,0c0,0,3.8-1.6,5.3-7.8c0,0,1.1-1.4,1.1-1.7l-2.3,1c0,0,0.8,1.6,0.2,3c0,0-0.1-3-0.5-2.9
	c-0.1,0-1.2,0.6-1.2,0.6s1.4,2.9,0.3,5c0,0,0.4-3.6-0.8-4.8l-1.6,0.9c0,0,1.6,3,0.5,5.4c0,0,0.3-3.7-0.8-5.2L896,289
	c0,0,1.5,2.9,0.6,5c0,0-0.1-4.3-0.9-4.7c0,0-1.3,1.1-1.5,1.6c0,0,1,2.1,0.4,3.3c0,0-0.4-2.9-0.7-2.9c0,0-1.3,1.9-1.4,3.2
	c0,0,0.1-2,1.1-3.4c-0.7,0.1-1.4,0.5-2,1c0,0,0.2-1.4,2.3-1.5c0,0,1.1-1.5,1.3-1.5c0,0-2.1-0.2-3.3,0.4c0,0,1.1-1.3,3.7-0.7l1.4-1.2
	c0,0-2.7-0.4-3.9,0c0,0,1.3-1.1,4.3-0.3l1.6-0.9c0,0-2.3-0.5-3.7-0.3c0,0,1.5-0.8,4.2,0.1l1.1-0.5c0,0-1.7-0.3-2.2-0.4
	c-0.5-0.1-0.5-0.2-0.5-0.2c1.1-0.2,2.2-0.1,3.2,0.4C901.1,285.3,903.5,284.4,903.4,284.3z"/>
<ellipse class="st1" cx="894.1" cy="296.3" rx="9.6" ry="1.6"/>
</svg>
