<?xml version="1.0" encoding="utf-8"?>
<!-- Generator: Adobe Illustrator 22.0.1, SVG Export Plug-In . SVG Version: 6.00 Build 0)  -->
<svg version="1.1" id="Layer_1" xmlns="http://www.w3.org/2000/svg" xmlns:xlink="http://www.w3.org/1999/xlink" x="0px" y="0px"
	 viewBox="0 0 1300 400" style="enable-background:new 0 0 1300 400;" xml:space="preserve">
<style type="text/css">
	.st0{fill:url(#SVGID_1_);stroke:#000000;stroke-width:1.6452;stroke-miterlimit:10;}
	.st1{opacity:0.1;fill:#A8DBF4;enable-background:new    ;}
	.st2{fill:none;stroke:#535461;stroke-width:0.6257;stroke-miterlimit:10;}
	.st3{fill:#0D8CD8;}
	.st4{opacity:0.25;fill:#4A7D91;enable-background:new    ;}
	.st5{fill:#7DC5EA;}
	.st6{fill:#8B8BAF;}
	.st7{fill:#6D6D99;}
	.st8{fill:#9C9CB7;}
	.st9{fill:#8787AA;}
	.st10{fill:#514E7F;}
	.st11{fill:#8888A5;}
	.st12{opacity:0.1;enable-background:new    ;}
	.st13{fill:#7A7A9E;}
	.st14{fill:#5B5B7F;}
	.st15{fill:#5B5A6B;}
	.st16{fill:#B0D7EA;}
	.st17{opacity:0.5;fill:#0D8CD8;enable-background:new    ;}
	.st18{fill:url(#SVGID_2_);}
	.st19{fill:#464353;}
	.st20{fill:#E8E8EA;}
	.st21{fill:#A8A8A8;}
	.st22{fill:#A1616A;}
	.st23{fill:#B9B9BA;}
	.st24{fill:#B6B6B7;}
	.st25{fill:#EDEDED;}
	.st26{fill:#C9CBD3;}
	.st27{fill:#909091;}
	.st28{fill:#636363;}
	.st29{opacity:5.000000e-02;enable-background:new    ;}
	.st30{opacity:0.1;}
	.st31{fill:#87D0F4;}
	.st32{opacity:0.1;fill:#BCDCED;enable-background:new    ;}
</style>
<linearGradient id="SVGID_1_" gradientUnits="userSpaceOnUse" x1="2286.5496" y1="202.2" x2="2601.7" y2="202.2" gradientTransform="matrix(4.125 0 0 1 -9432.0498 0)">
	<stop  offset="0" style="stop-color:#00354D"/>
	<stop  offset="0.4129" style="stop-color:#00364F"/>
	<stop  offset="0.5616" style="stop-color:#003C56"/>
	<stop  offset="0.6676" style="stop-color:#004561"/>
	<stop  offset="0.7534" style="stop-color:#005272"/>
	<stop  offset="0.8268" style="stop-color:#006388"/>
	<stop  offset="0.8918" style="stop-color:#0078A4"/>
	<stop  offset="0.9492" style="stop-color:#0091C3"/>
	<stop  offset="1" style="stop-color:#00ACE6"/>
	<stop  offset="1" style="stop-color:#0093C7"/>
	<stop  offset="1" style="stop-color:#0075A3"/>
	<stop  offset="1" style="stop-color:#005B83"/>
	<stop  offset="1" style="stop-color:#004567"/>
	<stop  offset="1" style="stop-color:#003351"/>
	<stop  offset="1" style="stop-color:#002540"/>
	<stop  offset="1" style="stop-color:#001B35"/>
	<stop  offset="1" style="stop-color:#00162E"/>
	<stop  offset="1" style="stop-color:#00142C"/>
</linearGradient>
<rect y="2.2" class="st0" width="1300" height="400"/>
<ellipse class="st1" cx="219.5" cy="298.5" rx="84.3" ry="2.9"/>
<g id="_x35_5bfdb31-36b5-4718-97dd-773b4157bdc7_1_">
	<path class="st2" d="M152.5,296.6c0,0-18.1-23-16.7-45.8c0.6-9.6-1.8-19.1-7-27.2c-2.5-3.8-5.3-7.4-8.5-10.7"/>
	<path class="st3" d="M121,198.5c1.3,3.2-0.8,14.8-0.8,14.8s-9.5-6.9-10.8-10.1c-1.3-3.2,0.3-6.8,3.5-8.1S119.7,195.3,121,198.5
		L121,198.5L121,198.5z"/>
	<path class="st3" d="M137.6,212.4c-0.7,3.4-8.7,12-8.7,12s-4.2-11-3.5-14.4s4-5.5,7.4-4.8C136.1,205.8,138.3,209.1,137.6,212.4
		L137.6,212.4z"/>
	<path class="st3" d="M149.4,242.8c-2.3,2.6-13.5,5.9-13.5,5.9s1.9-11.6,4.2-14.2c2.3-2.6,6.2-2.8,8.8-0.6
		C151.4,236.3,151.7,240.2,149.4,242.8L149.4,242.8L149.4,242.8z"/>
	<path class="st3" d="M153.1,267.8c-1.8,2.9-12.4,8.2-12.4,8.2s-0.1-11.8,1.7-14.7c1.8-2.9,5.6-3.9,8.6-2.1
		C154,261,154.9,264.8,153.1,267.8L153.1,267.8z"/>
	<path class="st3" d="M117.1,229.9c3.2,1.3,14.8-0.7,14.8-0.7s-6.9-9.5-10.1-10.9c-3.2-1.3-6.8,0.3-8.1,3.5
		C112.5,225,114,228.6,117.1,229.9z"/>
	<path class="st3" d="M121.7,259.1c3.4,0.3,13.9-5.1,13.9-5.1s-9.4-7.1-12.9-7.4c-3.4-0.3-6.5,2.2-6.9,5.6c-0.3,3.4,2.2,6.5,5.6,6.9
		C121.6,259.1,121.7,259.1,121.7,259.1z"/>
	<path class="st3" d="M130.2,286.8c3.3,0.9,14.5-2.7,14.5-2.7s-8.1-8.5-11.4-9.4c-3.3-0.8-6.7,1.3-7.5,4.7
		C125.1,282.7,127,285.9,130.2,286.8L130.2,286.8z"/>
	<path class="st4" d="M121,198.5c1.3,3.2-0.8,14.8-0.8,14.8s-9.5-6.9-10.8-10.1c-1.3-3.2,0.3-6.8,3.5-8.1S119.7,195.3,121,198.5
		L121,198.5L121,198.5z"/>
	<path class="st4" d="M137.6,212.4c-0.7,3.4-8.7,12-8.7,12s-4.2-11-3.5-14.4s4-5.5,7.4-4.8C136.1,205.8,138.3,209.1,137.6,212.4
		L137.6,212.4z"/>
	<path class="st4" d="M149.4,242.8c-2.3,2.6-13.5,5.9-13.5,5.9s1.9-11.6,4.2-14.2c2.3-2.6,6.2-2.8,8.8-0.6
		C151.4,236.3,151.7,240.2,149.4,242.8L149.4,242.8L149.4,242.8z"/>
	<path class="st4" d="M153.1,267.8c-1.8,2.9-12.4,8.2-12.4,8.2s-0.1-11.8,1.7-14.7c1.8-2.9,5.6-3.9,8.6-2.1
		C154,261,154.9,264.8,153.1,267.8L153.1,267.8z"/>
	<path class="st4" d="M117.1,229.9c3.2,1.3,14.8-0.7,14.8-0.7s-6.9-9.5-10.1-10.9c-3.2-1.3-6.8,0.3-8.1,3.5
		C112.5,225,114,228.6,117.1,229.9z"/>
	<path class="st4" d="M121.7,259.1c3.4,0.3,13.9-5.1,13.9-5.1s-9.4-7.1-12.9-7.4c-3.4-0.3-6.5,2.2-6.9,5.6c-0.3,3.4,2.2,6.5,5.6,6.9
		C121.6,259.1,121.7,259.1,121.7,259.1z"/>
	<path class="st4" d="M130.2,286.8c3.3,0.9,14.5-2.7,14.5-2.7s-8.1-8.5-11.4-9.4c-3.3-0.8-6.7,1.3-7.5,4.7
		C125.1,282.7,127,285.9,130.2,286.8L130.2,286.8z"/>
	<path class="st2" d="M152.3,295.6c0,0-25.9-13.7-33.9-35.1c-3.3-9-9.4-16.8-17.5-22c-3.8-2.5-7.9-4.6-12.1-6.3"/>
	<path class="st5" d="M83.8,218.8c2.5,2.4,5.3,13.8,5.3,13.8s-11.5-2.5-14-4.9c-2.4-2.4-2.4-6.4,0-8.8
		C77.5,216.5,81.3,216.5,83.8,218.8z"/>
	<path class="st5" d="M104.6,224.7c0.8,3.3-3.1,14.5-3.1,14.5s-8.3-8.4-9.1-11.7c-0.8-3.3,1.2-6.7,4.5-7.6c3.3-0.8,6.7,1.2,7.6,4.5
		C104.6,224.5,104.6,224.6,104.6,224.7L104.6,224.7z"/>
	<path class="st5" d="M127.7,247.7c-1,3.3-10,10.9-10,10.9s-2.9-11.4-1.9-14.7s4.4-5.2,7.7-4.3c3.3,1,5.2,4.4,4.3,7.7
		C127.7,247.6,127.7,247.7,127.7,247.7L127.7,247.7z"/>
	<path class="st5" d="M141.2,269.1c-0.5,3.4-8,12.5-8,12.5s-4.8-10.7-4.4-14.1c0.5-3.4,3.6-5.8,7-5.3S141.7,265.7,141.2,269.1
		L141.2,269.1z"/>
	<path class="st5" d="M92.9,249c3.4-0.1,13.2-6.6,13.2-6.6s-10.2-5.9-13.6-5.9c-3.4,0.2-6.1,3.1-6,6.5
		C86.7,246.4,89.5,249.1,92.9,249z"/>
	<path class="st5" d="M109,273.8c3.3-1.1,10.7-10.3,10.7-10.3s-11.5-2.6-14.7-1.5c-3.2,1.2-4.9,4.8-3.7,8
		C102.4,273.1,105.9,274.8,109,273.8L109,273.8z"/>
	<path class="st5" d="M128,295.7c3.4-0.6,12.2-8.3,12.2-8.3s-10.9-4.5-14.3-4c-3.4,0.6-5.6,3.8-5,7.3
		C121.6,294,124.7,296.2,128,295.7z"/>
</g>
<polygon class="st6" points="150.1,297.5 152.8,297.5 173.1,192.8 175.7,297.5 178.7,297.5 182,193 201.8,297.5 204.9,297.5 
	191.4,189.9 191,186.4 164.6,183.4 163.8,189.9 "/>
<rect x="206.1" y="162.4" class="st7" width="16.8" height="10.4"/>
<path class="st8" d="M125.5,157.9l-10.1-4.1h-2.2c-0.7,0-1.2,0.6-1.2,1.2v28.6c0,0.7,0.6,1.2,1.2,1.2h2.2l10.1-4.2V157.9z"/>
<rect x="125.5" y="159.1" class="st9" width="20.7" height="20.1"/>
<rect x="168.9" y="121.4" class="st10" width="13.4" height="2.4"/>
<rect x="159.9" y="124.5" class="st11" width="37.6" height="27.5"/>
<rect x="159.9" y="148.8" class="st12" width="37.6" height="3.3"/>
<rect x="145.8" y="159.1" class="st12" width="0.8" height="20.1"/>
<rect x="206.1" y="162.4" class="st12" width="5.7" height="10.4"/>
<polygon class="st12" points="163.8,189.9 191.4,189.9 191,186.4 164.6,183.4 "/>
<path class="st8" d="M207.9,149.3h-58.3c-1.8,0-3.3,1.5-3.3,3.3V186c0,1.8,1.5,3.3,3.3,3.3h58.3c1.8,0,3.3-1.5,3.3-3.3v-33.4
	C211.3,150.8,209.8,149.3,207.9,149.3z"/>
<path class="st10" d="M125.7,157.9h-0.2l0,0v22.7l0,0h0.2c0.9,0,1.6-0.7,1.6-1.6l0,0v-19.5C127.3,158.6,126.6,157.9,125.7,157.9z"/>
<path class="st13" d="M115.3,153.8h-2.1c-0.8,0-1.3,0.6-1.3,1.3v28.3c0,0.8,0.6,1.3,1.3,1.3h2.1l0,0V153.8L115.3,153.8z"/>
<rect x="219.9" y="162.4" class="st12" width="3" height="10.4"/>
<path class="st14" d="M224,159.1h-1.3c-1.3,0-2.3,1-2.3,2.3v13.2c0,1.3,1,2.3,2.3,2.3h1.3c1.3,0,2.3-1,2.3-2.3v-13.2
	C226.2,160.2,225.2,159.1,224,159.1z"/>
<circle class="st15" cx="197.5" cy="124.5" r="18.7"/>
<circle class="st16" cx="197.5" cy="124.5" r="14"/>
<circle class="st15" cx="162.8" cy="124.9" r="13.7"/>
<circle class="st16" cx="162.8" cy="124.9" r="10.3"/>
<circle class="st3" cx="163.8" cy="155.2" r="1.8"/>
<circle class="st17" cx="158.1" cy="155.2" r="1.8"/>
<linearGradient id="SVGID_2_" gradientUnits="userSpaceOnUse" x1="255.6424" y1="299.737" x2="255.6424" y2="98.0152" gradientTransform="matrix(-4.125 0 0 1 1292.9874 0)">
	<stop  offset="0" style="stop-color:#808080;stop-opacity:0.25"/>
	<stop  offset="0.54" style="stop-color:#808080;stop-opacity:0.12"/>
	<stop  offset="1" style="stop-color:#808080;stop-opacity:0.1"/>
</linearGradient>
<path class="st18" d="M180.7,161.4l0.1-0.3c-0.8,0.3-1.6,0.6-2.3,1c0.3-2.7,10.7-10.4,12.6-10.4s4-3.3,4-3.3s5.4-0.8,6.3-1.7
	c0.8-0.9,6.5-0.4,7.8-0.1c1.3,0.3,3.4-0.8,3.4-0.8s1.2-1.9,2.6-1.9s3-2.1,3-2.1s1.3-1.3,2.6-1.5c1.3-0.2,2.8-1.6,3.5-2.6
	c0.7-1.1,4.4-1.6,6.5-1.3s7.7-0.4,7.7-0.4c-2.3-1-2.8-3.6-2.8-3.6c2.1-0.1,7.4-4.6,7.4-4.6s-0.2,1.5-0.5,3.5l0.3-0.4l0,0
	c0.1-1.5,0.1-2.9,0-4.4c0-0.1,0-0.2,0-0.3c-2.7-2.4-3.9-6.1-3.1-9.6c0.1-0.3,0.1-0.5,0.2-0.7c-0.4,0.2-0.8,0.3-1.3,0.3h-0.2
	c-0.5,0-1-0.2-1.4-0.6l0,0c-0.1-0.1-0.1-0.2-0.2-0.3c0,0,0,0,0-0.1s-0.1-0.2-0.1-0.3v-0.1c0-0.1,0-0.1,0-0.2s0-0.1,0-0.2v-0.1
	c0-0.5,0.1-1,0.3-1.4c0.3-0.8,0.8-1.6,0.8-2.5c0-0.1,0-0.1,0-0.2c-0.1-0.7-0.4-1.3-0.7-2v0.1c0-0.1-0.1-0.2-0.1-0.3v-0.1
	c0-0.1,0-0.2,0-0.3l0,0c-0.1-1.3,1-2.4,2.2-3c1.1-0.5,2.3-0.6,3.3-1.3c1.1-0.8,1.7-2,2.6-3.1c1.2-1.5,3.1-2.7,5-2.5
	c1.2,0.1,2.3,0.8,3.4,1c1.8,0.4,3.7-0.2,5.5,0.3c0.4,0.1,0.8,0.3,1.1,0.6c0.1,0.2,0.2,0.4,0.2,0.6l0,0c0,0.2,0,0.4,0,0.6l0,0
	c0,0.2-0.1,0.3-0.1,0.5v0.1v0.1c0,0.1,0,0.2-0.1,0.2c0,0.1-0.1,0.3-0.1,0.4l0,0c0,0.1-0.1,0.3-0.1,0.4l0,0c-0.1,0.3-0.1,0.5-0.1,0.8
	l0,0c-0.1,0.8,0.1,1.6,0.5,2.2c0.8,1.3,2.4,1.8,3.2,3.1c0.2,0.3,0.3,0.7,0.3,1l0,0c0,0.1,0,0.3,0,0.3v0.1c0,0.1,0,0.2,0,0.3v0.1
	c0,0.1,0,0.2-0.1,0.3v0.1c0,0.1-0.1,0.2-0.1,0.3l0,0c-0.3,0.7-1,1.3-1.1,2l0,0c0,0,0,0,0,0.1c-0.1,0.6,0.2,1.1,0.3,1.7
	c0,0.1,0,0.1,0,0.2l0,0c0,0,0,0,0,0.1c0,0,0,0.1,0,0.2s0,0.1,0,0.1v0.1v0.1v0.1v0.1v0.1v0.1c0,0,0,0.1-0.1,0.1v0.1l-0.1,0.1
	c0,0,0,0,0,0.1s-0.1,0.1-0.2,0.1c-0.4,0.3-1.1,0.2-1.5,0.6c0,0.1-0.1,0.1-0.1,0.2l0,0c0,0.1,0,0.1-0.1,0.2l0,0
	c-0.1,0.3-0.1,0.5,0,0.7c0.1,0.6,0.4,1.2,0.5,1.8c0,0.1,0,0.3,0.1,0.4l0,0c0,0.1,0,0.1,0,0.2l0,0c0,0.1,0,0.1,0,0.2l0,0
	c0,0.1,0,0.2,0,0.3c0,0.1,0,0.1,0,0.1v0.1v0.1v0.1c0,0,0,0.1-0.1,0.1c0,0,0,0,0,0.1s-0.1,0.1-0.1,0.2c-0.4,0.5-1,0.7-1.7,0.7
	c-0.4,0-0.8,0-1.1-0.1c-0.1,0.2-0.2,0.4-0.3,0.6c-0.4,0.9-1,1.8-1.8,2.5c0,0.1,0,0.2,0,0.3c0.1,0.7,0.2,1.5,0.3,2.3
	c0.8-0.4,1.4-0.5,1.7-0.3c1.1,1.2,0,5.1,0,5.1s5.1,0,6.4,1.2s3.5,0,3.5,0s4.7,0.5,4.4,1.5s2.5,0,2.5,0s2,0.2,1.9,1.6
	c-0.1,1.3,3,2,2.6,2.9s1.9,1.6,1.9,1.6s2.3-0.1,1.5,1.3l0,0c0,0,1.3,2.9,2.3,3.1s2.4,2.6,2.4,2.6s4,0.7,3.8,2s6.2,10.2,6.2,10.2
	s2.1,4.3,0.6,7.4c-1.5,3.1-2.5,5.2-2.8,6.4s-4.1,6.2-4.1,7.1c0,0.3-0.9,1.9-2.2,3.9l0.4,0.4l0.8,0.8c0,0,2.6,6.5-0.5,6.8
	c-2.7,0.3-4.5,0.5-5.5,0.2c-0.2,0-0.3-0.1-0.4-0.2l0,0c-1.1,1.7-1.9,2.8-1.9,2.8s-0.1-0.2-0.3-0.4l-0.3,0.4c0,0-0.3-0.3-0.7-0.9
	c0.1,2.8,0.2,5.6,0.2,5.6s-1.3-0.2-0.7,6.1s-3.8,11.4-3.8,11.4v9.3l0,0c0,0,0,0.3,0,0.6c-0.1,1.3-0.5,4.5-1.6,6.6
	c-1.5,2.7,0,9.8,0,9.8s0.1,5.8-0.3,13c0,0.2,0,0.4,0,0.6c6.3,5.3,13.1,12.3,13.1,12.3c-0.3,0.1-0.7,0.3-0.9,0.4l0.4,0.5l1.7,2.1l0,0
	l1.3,1.7l0,0l-2.1,6.5l-2.3-0.9c0,0-1.3,2.2-1,3.6c0,0.3,0.2,0.5,0.3,0.7c0.1,0.1,0.1,0.2,0.2,0.4c0.6,2.3-1.9,12.5-5.9,13
	c0,0-1.3,0.4-1.8-0.8c-0.2-0.6-0.2-1.6,0.3-3.2c0,0,2.1-2.5,0.8-5.3c-0.8-1.6-2.1-3.8-3.1-5.3l-0.4-0.6c-0.9,1.1-1.4,1.8-1.4,1.8
	l-3.1-3.3c-0.1,0.1-0.1,0.3-0.2,0.4c-0.2,0.5-0.5,0.9-0.8,1.3l-2.1,8.3l-0.8-0.2c0,0.2,0,0.4,0,0.6c0.1,1.5,0,3.4-0.7,4.8
	c-0.5,1.1-1.4,1.8-2.8,1.8c-4.8-0.1-6.3-2.8-6.3-2.8V290l-1.7-0.4c0,0,0.1-14.4,0.6-22.5c0-0.2,0-0.3,0-0.5v-0.1L245.2,255l-0.8-0.3
	c-6.9-2.7-7-9.7-7-9.7s0-3.9-0.8-7.1c-0.8-3.2-0.1-20.1,1.5-24.2c1.6-4.2,2.1-8.9,2.1-8.9s-1.6-2.2,0-4c0.4-0.5,0.8-1.2,1.1-1.8
	l-2-0.3l-1.2-0.2l-0.6-0.1c0.3,2.8,0.4,4.9-0.4,5.4c-2.3,1.6-10-3.7-10-3.7c2.8,0,4.4-21,3.8-21.5s-1.4-11-0.7-12.9
	s-2.6-10.3-2.6-10.3l-0.5-0.8l0,0c0,0-12.3,5.4-13.7,6.4c-1.4,1-5.6-2.5-6.4-1.1s-5.3,3.4-5.3,3.4s-6.8-0.7-7.5,1s-5.1,5.6-5.1,5.6
	c0-0.9-0.1-1.8-0.2-2.8c-0.1,0.2-0.2,0.4-0.3,0.7c-2.1,4.9-5.5,11.1-8.7,7.8C176.2,172,179,165,180.7,161.4z M273.5,183.6
	L273.5,183.6L273.5,183.6L273.5,183.6z M275.9,159.5l1.3,14l2.6,2.7l0.3,0.3l2.7-2.9c0,0,1.3-0.6,0-1.8s2.3-3.8,2.3-3.8
	s0.1-1.9-1.3-2.4c-1.3-0.5-3.1-4-3.1-4l-4.9-2.5l0,0l0,0L275.9,159.5z M258.5,231.1c-0.1-0.1-0.2-0.2-0.3-0.2c-0.6-0.3-1,0-1.2,0.7
	c-0.3,1.1-0.2,2.2,0.2,3.2c0.7,1.7-1,8.4-1,8.4s2.3,1,2.7,3c0.1,0.3,0.2,0.5,0.3,0.7c0-0.2,0.1-0.3,0.1-0.5c0.2-1.3,0.3-2.1,0.3-2.1
	c0.4-1.6,0.4-3.3,0.2-4.9c-0.3-2-1-6.1-1.3-7.6C258.5,231.3,258.5,231.1,258.5,231.1L258.5,231.1z"/>
<path class="st19" d="M243.9,129.3l-0.7-0.4l-1.9,4l0.7,0.9h2.2c0,0-0.1-2.2-0.1-2.3C244.1,131.4,243.9,129.3,243.9,129.3z"/>
<path class="st20" d="M257,288.6v8.6c0,0,1.4,2.6,6.3,2.8c1.2,0.1,2.3-0.6,2.8-1.8c0.7-1.4,0.8-3.3,0.7-4.8c0-0.8-0.1-1.5-0.3-2.2
	L257,288.6z"/>
<path class="st12" d="M257,288.6v2.7l9.7,2.2c0-0.8-0.1-1.5-0.3-2.2L257,288.6z"/>
<path class="st21" d="M255.3,290.3l12.2,2.7l2.1-8.2c0.3-0.4,0.6-0.8,0.8-1.3c0.1-0.3,0.3-0.5,0.4-0.8c2.3-5.2,3.3-14.6,3.7-22.6
	c0-0.4,0-0.8,0.1-1.2c0.3-7.2,0.3-13,0.3-13s-1.5-7.1,0-9.8c1.1-2.1,1.5-5.2,1.6-6.6c0-0.4,0-0.6,0-0.6l-0.2-0.6l-0.9-2.4h-10.1
	l-5.9,5l-0.9,0.8l0.1,0.6c0.3,1.5,0.9,5.6,1.3,7.6c0.3,1.6,0.2,3.3-0.2,4.9c0,0-0.1,0.8-0.3,2.1c0,0.3-0.1,0.7-0.2,1
	c-0.8,4.6-2.2,13.1-2.8,15.1c-0.2,0.6-0.3,1.9-0.4,3.8c0,0.4,0,0.8-0.1,1.2C255.5,275.9,255.3,290.3,255.3,290.3z"/>
<path class="st12" d="M257,297.1L257,297.1c0,0.1,1.4,2.7,6.3,2.8c1.2,0.1,2.3-0.6,2.8-1.8C263.9,298.7,260.4,299.1,257,297.1z"/>
<path class="st22" d="M179.8,176.4c3.2,3.3,6.7-2.9,8.7-7.8c1.2-2.8,1.9-5.1,1.9-5.1l-8.6-3.6c0,0-0.5,0.8-1.2,2.2
	C179,165.6,176.2,172.6,179.8,176.4z"/>
<path class="st22" d="M243.2,127.5c0.1,3.1-0.1,6.2-0.7,9.2c0,0,17.4,1.9,15.9-0.8c-0.9-1.6-1.5-5.8-1.8-9c-0.3-2.3-0.3-4-0.3-4
	s-16.7-6.7-14.2-1.1C242.8,123.5,243.1,125.5,243.2,127.5z"/>
<polygon class="st23" points="241.8,172.3 244.1,200.3 233.3,198.5 235.2,175.5 234.6,169.3 "/>
<path class="st20" d="M278.5,290.4c1.4,2.8-0.8,5.3-0.8,5.3c-0.5,1.6-0.5,2.6-0.3,3.1c0.4,1.2,1.8,0.8,1.8,0.8
	c4.3-0.5,6.9-12,5.8-13.3s0.7-4.3,0.7-4.3l2.3,0.9l2.1-6.5l-1.3-1.6l-1.7-2.1l-1.2-1.4l-11.6,12.2c0,0,0.5,0.8,1.2,1.8
	C276.4,286.7,277.8,288.8,278.5,290.4z"/>
<path class="st12" d="M255.9,267.9l14.5,15.6c2.5-5,3.6-15,4.1-23.4c-2.7-2.3-5.3-4.2-7.3-5.1c0,0-6.7-4.8-8.1-7.2
	c-0.8,4.6-2.2,13.1-2.8,15.1C256.2,263.5,256,265.4,255.9,267.9z"/>
<polygon class="st12" points="259.4,230.8 276.3,228.3 275.4,225.8 265.2,225.8 "/>
<path class="st12" d="M256,266.7l14.9,15.9c2.3-5.2,3.3-14.6,3.7-22.6c0-0.4,0-0.8,0.1-1.2c-2.7-2.3-5.4-4.2-7.4-5.2
	c0,0-6.3-4.5-7.9-6.9c0,0.3-0.1,0.7-0.2,1c-0.8,4.6-2.2,13.1-2.8,15.1C256.2,263.4,256.1,264.8,256,266.7z"/>
<path class="st12" d="M274.3,283.3c0,0,0.5,0.8,1.2,1.8c2.5-3.1,8.4-10.4,11.6-12.5l-1.2-1.4L274.3,283.3z"/>
<path class="st24" d="M236.6,238.7c0.8,3.2,0.8,7.1,0.8,7.1s0.1,7,7,9.7l0.8,0.3l28.5,30.5c0,0,10.5-13.8,14-14.6
	c0,0-13.9-14.3-20.4-17.4c0,0-7.9-5.7-8.4-7.7c-0.4-2-2.7-3-2.7-3s1.8-6.7,1-8.4c-0.4-1-0.5-2.1-0.2-3.2c0.2-0.6,0.6-1,1.2-0.7
	c0.1,0.1,0.2,0.1,0.3,0.2l18.1-2.7v-9.3c0,0,4.4-5.1,3.8-11.4c-0.6-6.3,0.7-6,0.7-6s-0.1-10.6-1-11.5s-9.4-4.9-9.4-4.9l-26.8,4.8
	l-1.1,5.1c0,0-0.9,4.1-2.5,5.9c-1.6,1.8,0,4,0,4s-0.5,4.7-2.1,8.9C236.4,218.7,235.7,235.4,236.6,238.7z"/>
<path class="st12" d="M242,121.9c0.8,1.7,1.1,3.7,1.2,5.7c3.9,3.4,9.7,3.1,13.3-0.6c-0.3-2.3-0.3-4-0.3-4S239.5,116.2,242,121.9z"/>
<path class="st22" d="M239.9,119.9c0,5.3,4.3,9.7,9.7,9.7s9.7-4.3,9.7-9.7c0-5.3-4.3-9.7-9.7-9.7c-4.5,0-8.4,3.1-9.4,7.4
	C239.9,118.4,239.8,119.1,239.9,119.9z"/>
<path class="st12" d="M247.7,136.8c0,0,7-3.2,7.4-3.7s14.9,36.7,14.9,36.7l4.1,18.5c0,0-21.7,9.3-26.4,8s-5.1,0-5.1,0
	s-4.8-26.9-6.4-29.3s1.5-26.8,1.5-26.8l5.4-7.1L247.7,136.8z"/>
<path class="st12" d="M247.7,135.5c0,0,7-3.2,7.4-3.7s14.9,36.7,14.9,36.7l4.1,18.5c0,0-21.7,9.3-26.4,8s-5.1,0-5.1,0
	s-4.8-26.9-6.4-29.3s1.5-26.8,1.5-26.8l5.4-7.1L247.7,135.5z"/>
<path class="st25" d="M236.2,166.4c0.3,0.5,0.8,2,1.3,4.2c0.4,1.5,0.8,3.3,1.2,5.2c1.8,8.6,3.9,20,3.9,20s0.1-0.4,1-0.5
	c0.7-0.1,2,0,4.1,0.5c4.7,1.3,26.4-8,26.4-8l-0.6-2.8l-3.4-15.6c0,0-14.5-37.1-14.9-36.7c-0.3,0.3-3,1.6-5,2.5
	c-1.3,0.6-2.4,1.1-2.4,1.1l-4.4-3.5l-0.3-0.2l-5.4,7.1C237.7,139.6,234.7,164,236.2,166.4z"/>
<path class="st12" d="M252.8,139.8c-0.6,2.4,0.8,6.4,0.8,6.4s5,12.3,6.5,18s9.8,17.1,9.8,17.1s1.2,1.2,2.9,2.9
	c0.2,0.2,0.4,0.4,0.6,0.6l-3.4-15.6c0,0-14.5-37.1-14.9-36.7c-0.3,0.3-3,1.6-5,2.5C251.4,136.2,253.3,138.2,252.8,139.8z"/>
<path class="st26" d="M253.5,139.8c-0.6,2.4,0.8,6.4,0.8,6.4s5,12.3,6.5,18s9.8,17.1,9.8,17.1s1.2,1.2,2.9,2.9
	c0.2,0.2,0.4,0.4,0.6,0.6c3.3,3.3,8.1,8,9.5,9.4c0.2,0.2,0.4,0.3,0.4,0.4c0.1,0.1,0.3,0.2,0.4,0.2c1,0.3,2.8,0.1,5.5-0.2
	c3.1-0.3,0.5-6.8,0.5-6.8l-0.8-0.8l-0.8-0.8l-8.5-8.8l-0.6-0.7l-2.6-2.7l-1.3-14v-0.3c0,0,0.4-0.9,1-2.2c1.6-3.7,4.7-10.7,5.9-13
	c0.1-0.3,0.3-0.5,0.3-0.6l0,0c0.8-1.3-1.5-1.3-1.5-1.3s-2.3-0.6-1.9-1.6s-2.7-1.6-2.6-2.9c0.1-1.3-1.9-1.6-1.9-1.6s-2.8,0.9-2.5,0
	s-4.4-1.5-4.4-1.5s-2.3,1.2-3.5,0c-1.3-1.2-6.4-1.2-6.4-1.2s1.1-4,0-5.1c-1.1-1.1-8.9,5.1-8.9,5.1S254.1,137.4,253.5,139.8z"/>
<path class="st12" d="M279.5,193.2c0,0-8.7,12.2-14.7,8.2s8.1-14.3,8.1-14.3L279.5,193.2z"/>
<path class="st22" d="M279.5,192.6c0,0-8.7,12.2-14.7,8.2s8.1-14.3,8.1-14.3L279.5,192.6z"/>
<path class="st12" d="M238,199.3c-0.7-5.8-2.6-14.4-1-17.1c0.8-1.3,1.3-3.8,1.8-6.5c0.2-1.5,0.4-3,0.6-4.4c0.4-3.8,0.5-7.2,0.5-7.2
	s3.8-16.7,3-20.2c-0.5-2.2,0.1-7.5,0.5-11.3l-0.3-0.2l-5.4,7.1c0,0-3,24.4-1.5,26.8c0.3,0.5,0.8,2,1.3,4.2l-3-1.3l0.6,6.2l-1.9,23.1
	L238,199.3z"/>
<path class="st26" d="M243.3,128.8c0,0-5.4,4.5-7.4,4.6c0,0,0.6,2.5,2.8,3.5c0,0-5.6,0.8-7.7,0.4c-2.1-0.3-5.7,0.2-6.5,1.3
	s-2.3,2.4-3.6,2.6c-1.3,0.2-2.6,1.5-2.6,1.5l9.2,13.5c0,0,3.3,8.4,2.6,10.2s0.1,12.4,0.7,12.9s-1,21.5-3.8,21.5c0,0,7.7,5.2,10,3.7
	s-2.9-18.5-0.6-22.3s2.8-18.1,2.8-18.1s3.8-16.7,3-20.2C241.5,140.6,243.3,128.8,243.3,128.8z"/>
<path class="st12" d="M180.7,162.1c2.8-0.9,7.1-0.9,7.9,6.6c1.2-2.8,1.9-5.1,1.9-5.1l-8.6-3.6C181.9,159.9,181.4,160.7,180.7,162.1z
	"/>
<path class="st26" d="M223.4,142.1l-5.1,0.6c0,0-1.6,2.1-3,2.1c-1.5,0-2.6,1.9-2.6,1.9s-2.1,1.2-3.4,0.8c-1.3-0.3-7-0.8-7.8,0.1
	c-0.8,0.9-6.3,1.7-6.3,1.7s-2.1,3.2-4,3.2s-12.3,7.6-12.6,10.3c0,0,10.3-6.6,10.4,7.9c0,0,4.4-3.9,5.1-5.6c0.7-1.7,7.5-1,7.5-1
	s4.6-2,5.3-3.4c0.7-1.3,5,2.2,6.4,1.1c1.3-1,13.7-6.4,13.7-6.4l3.8-7.2L223.4,142.1z"/>
<circle class="st27" cx="247" cy="153.9" r="0.9"/>
<circle class="st27" cx="247.9" cy="172.4" r="0.9"/>
<circle class="st27" cx="247" cy="162.6" r="0.9"/>
<circle class="st27" cx="249.5" cy="182.1" r="0.9"/>
<path class="st12" d="M240.1,117.6c0.2-0.1,0.4-0.2,0.6-0.3c0.7-0.3,1.5-0.6,1.9-1.3c0.4-0.6,0.5-1.4,1.2-1.7
	c0.7-0.4,1.6,0.1,2.3,0.3c0.9,0.2,1.9,0,2.8-0.4c1.3-0.5,3.2-1.4,4.6-0.5c1.1,0.7,0.7,2.3,0.9,3.4c0.4,1.7,2.2,2.8,2.6,4.5
	c0.2,0.8,0.1,1.7,0.7,2.2c0.2,0.1,0.4,0.2,0.6,0.3c2.4-4.8,0.4-10.6-4.4-13c-4.8-2.4-10.6-0.4-13,4.4
	C240.5,116.2,240.3,116.9,240.1,117.6L240.1,117.6z"/>
<path class="st28" d="M248.9,113.7c-0.9,0.3-1.8,0.6-2.8,0.4c-0.8-0.2-1.6-0.7-2.3-0.3c-0.6,0.3-0.8,1.2-1.2,1.7
	c-0.4,0.6-1.2,1-1.9,1.3c-0.5,0.3-1.1,0.4-1.7,0.5s-1.2-0.2-1.6-0.6c-0.6-0.7-0.4-1.7-0.1-2.5s0.8-1.6,0.8-2.5c0-1-0.8-1.9-0.8-3
	c-0.1-1.3,1-2.4,2.2-3c1.1-0.5,2.3-0.6,3.3-1.3c1.1-0.7,1.7-2,2.6-3.1c1.2-1.5,3.1-2.7,5-2.4c1.2,0.1,2.3,0.8,3.4,1
	c1.8,0.4,3.7-0.2,5.5,0.3c0.4,0.1,0.8,0.3,1.1,0.6c0.4,0.6,0.2,1.4,0,2.1c-0.3,1.3-0.5,2.7,0.2,3.8c0.8,1.3,2.4,1.8,3.2,3.1
	c0.4,0.8,0.4,1.7,0.1,2.5c-0.3,0.7-1,1.3-1.1,2.1c-0.1,0.6,0.2,1.1,0.3,1.7c0.1,0.6,0.1,1.3-0.4,1.6c-0.5,0.3-1.1,0.3-1.5,0.6
	c-0.2,0.3-0.3,0.7-0.2,1.1c0.1,0.6,0.4,1.2,0.5,1.8c0.2,0.6,0.1,1.3-0.3,1.8c-0.6,0.8-1.8,0.8-2.8,0.6c-0.3,0-0.6-0.2-0.8-0.3
	c-0.6-0.5-0.5-1.4-0.7-2.2c-0.3-1.7-2.2-2.8-2.6-4.5c-0.3-1.1,0.2-2.6-0.9-3.4C252.1,112.3,250.3,113.2,248.9,113.7z"/>
<path class="st12" d="M250.5,226.9c0,0-9.8,6.3-10.1,8.7L250.5,226.9z"/>
<path class="st12" d="M251,231.9c0,0-11.3,5.4-10.6,7.3L251,231.9z"/>
<path class="st12" d="M251.7,236.7c0,0-6.4,3.3-6.8,5.3L251.7,236.7z"/>
<path class="st12" d="M249,244.2c0,0-4.2,3.7-5,2.7C243.1,246,249,244.2,249,244.2z"/>
<path class="st12" d="M254.8,246.5c0,0-3.3,5.2-1.7,5.5S254.8,246.5,254.8,246.5z"/>
<path class="st12" d="M269.1,153.9c0,0,5.5,3.3,3.8,4.2C271.3,158.9,269.1,153.9,269.1,153.9z"/>
<path class="st12" d="M269.1,141.6c0,0,5.6,10.3,3,9.6C269.5,150.4,269.1,141.6,269.1,141.6z"/>
<path class="st12" d="M209.2,151.9c0,0,3.4,4,2.8,6.3L209.2,151.9z"/>
<path class="st12" d="M200.3,153.9c0,0,5.2,4.6,4.4,5.1L200.3,153.9z"/>
<path class="st12" d="M197,159.5c0,0,0.5,3-0.3,3.1L197,159.5z"/>
<path class="st29" d="M253.4,223.2c1.3,1.7,1.3,4.8,1.9,6c0.3,0.7,1.1,1.9,1.7,2.8c0.2-0.6,0.6-1,1.2-0.7c0.4-2.9,1.1-7.8,1.3-8.8
	c0.3-1.4-3.1-5.2-3.1-5.2s-3.4,0.7-4.2,2.4C251.3,221.6,252.1,221.4,253.4,223.2z"/>
<path class="st12" d="M270.8,186.9c3.8,0.5,10.7,10.5,10.7,10.5s0.9-1.3,2.2-3.2c1.6-2.3,3.8-5.6,5.3-8l-9.2-9.4l-1.7,1.8
	c0,0-3.2,3.2-3.2,3.8c0,0.3-0.6,1-1.4,1.8C272.3,185.5,270.8,186.9,270.8,186.9z"/>
<path class="st12" d="M282.7,144.6c0.1-0.3,0.3-0.5,0.3-0.6l-4,0.3l-2.2,13.3C278.5,153.9,281.6,146.9,282.7,144.6z"/>
<path class="st12" d="M274.2,184.9c3.3,3.3,8.1,8,9.5,9.4c0.2,0.2,0.4,0.3,0.4,0.4c0.1,0.1,0.3,0.2,0.4,0.2c1.5-2.2,3.6-5.3,5.2-7.8
	l-0.8-0.8l-8.5-8.8l-1.1,1.1c0,0-3.2,3.2-3.2,3.8C276.2,182.8,275.2,183.9,274.2,184.9z"/>
<path class="st26" d="M278.4,144.3l4.7-0.3c0,0,1.3,2.9,2.3,3.1c1,0.2,2.4,2.6,2.4,2.6s4,0.7,3.8,2s6.2,10.2,6.2,10.2
	s2.1,4.3,0.6,7.4s-2.5,5.2-2.8,6.4c-0.3,1.1-4,6.2-4,7.1c0,0.9-9.5,14.7-9.5,14.7s-7-10-10.7-10.5c0,0,4.2-3.8,4.2-4.5
	s3.2-3.8,3.2-3.8l4.1-4.4c0,0,1.3-0.6,0-1.8s2.3-3.8,2.3-3.8s0.1-1.9-1.3-2.4c-1.3-0.5-3.1-4-3.1-4l-4.9-2.5L278.4,144.3z"/>
<path class="st12" d="M296.3,165c0,0-5.6-1.2-5.7-0.4C290.5,165.4,296.3,165,296.3,165z"/>
<path class="st12" d="M291.6,170.7c0,0-4.8,0.6-4.6,1.7S291.6,170.7,291.6,170.7z"/>
<path class="st12" d="M287.7,153c0,0-4.6,6.5-5.2,5.2L287.7,153z"/>
<g class="st30">
	<path d="M260.1,104.6c0-0.8,0.1-1.5,0.3-2.3c0.1-0.3,0.2-0.6,0.2-0.9c0,0.5,0,1.1-0.2,1.6C260.2,103.5,260.1,104,260.1,104.6z"/>
	<path d="M238.2,111.5c-0.1-0.9-0.8-1.8-0.8-2.8c0-0.2,0-0.3,0-0.5c0.1,1,0.8,1.8,0.8,2.8C238.2,111.2,238.2,111.3,238.2,111.5z"/>
	<path d="M237.5,116c0.4,0.4,1,0.7,1.6,0.6s1.2-0.2,1.7-0.5c0.7-0.3,1.5-0.6,1.9-1.3c0.4-0.6,0.5-1.4,1.2-1.7
		c0.7-0.4,1.6,0.1,2.3,0.3c0.9,0.2,1.9,0,2.8-0.4c1.3-0.5,3.2-1.4,4.6-0.5c1.1,0.7,0.7,2.3,0.9,3.4c0.4,1.7,2.2,2.8,2.6,4.5
		c0.2,0.8,0.1,1.7,0.7,2.2c0.3,0.2,0.5,0.3,0.8,0.3c1,0.2,2.2,0.3,2.8-0.6c0.2-0.2,0.3-0.5,0.3-0.8c0.1,0.5,0,1-0.3,1.4
		c-0.6,0.8-1.8,0.8-2.8,0.6c-0.3,0-0.6-0.2-0.8-0.3c-0.6-0.5-0.5-1.4-0.7-2.2c-0.3-1.7-2.2-2.8-2.6-4.5c-0.3-1.1,0.2-2.6-0.9-3.4
		c-1.4-0.9-3.2,0-4.6,0.5c-0.9,0.3-1.8,0.6-2.8,0.4c-0.8-0.2-1.6-0.7-2.3-0.3c-0.6,0.3-0.8,1.2-1.2,1.7c-0.4,0.6-1.2,1-1.9,1.3
		c-0.5,0.3-1.1,0.4-1.7,0.5s-1.2-0.2-1.6-0.6c-0.3-0.4-0.4-0.9-0.3-1.4C237.2,115.5,237.3,115.7,237.5,116z"/>
	<path d="M262.7,113.8c0.1-0.8,0.8-1.4,1.1-2.1c0.1-0.3,0.2-0.6,0.3-0.9c0.1,0.5,0,1-0.3,1.5c-0.3,0.7-1,1.3-1.1,2
		C262.7,114.2,262.7,114,262.7,113.8z"/>
	<path d="M261,118.8c-0.1-0.3,0-0.7,0.2-1c0.3-0.4,1-0.3,1.5-0.6c0.2-0.2,0.4-0.4,0.4-0.8c0.1,0.5,0,1.1-0.4,1.4s-1.1,0.3-1.5,0.6
		C261.1,118.5,261,118.6,261,118.8z"/>
</g>
<path class="st31" d="M335.2,280.8c0,0,13-0.8,11.4,8.3c0,0,0.3,1.6-1.2,2.3c0,0,0-0.7-1.3-0.4c-0.5,0.1-0.9,0.1-1.4,0.1
	c-0.6,0-1.3-0.3-1.7-0.7l0,0c0,0-3.6-1.5-5-7.4c0,0-1-1.3-1-1.6l2.2,0.9c0,0-0.8,1.6-0.2,2.9c0,0,0.1-2.8,0.5-2.8
	c0.1,0,1.1,0.6,1.1,0.6s-1.3,2.8-0.3,4.8c0,0-0.4-3.4,0.7-4.5l1.5,0.9c0,0-1.5,2.8-0.5,5.2c0,0-0.3-3.5,0.8-4.9l1.4,1.1
	c0,0-1.4,2.8-0.6,4.7c0,0,0.1-4.1,0.8-4.4c0,0,1.2,1.1,1.4,1.5c0,0-1,2-0.4,3.1c0,0,0.4-2.8,0.7-2.8c0,0,1.2,1.8,1.3,3.1
	c0,0-0.1-1.8-1-3.3c0.7,0.1,1.3,0.5,1.8,1c0,0-0.2-1.3-2.2-1.4c0,0-1-1.4-1.3-1.5c0,0,2-0.2,3.2,0.4c0,0-1-1.2-3.5-0.7l-1.4-1.1
	c0,0,2.6-0.3,3.7,0c0,0-1.3-1.1-4-0.3l-1.5-0.9c0,0,2.2-0.5,3.5-0.3c0,0-1.4-0.8-3.9,0.1l-1.1-0.5c0,0,1.6-0.3,2.1-0.4
	s0.5-0.2,0.5-0.2c-1-0.2-2.1-0.1-3,0.3C337.5,281.8,335.2,280.9,335.2,280.8z"/>
<ellipse class="st32" cx="344.1" cy="292.2" rx="9.2" ry="1.6"/>
</svg>
