<?xml version="1.0" encoding="utf-8"?>
<!-- Generator: Adobe Illustrator 22.0.1, SVG Export Plug-In . SVG Version: 6.00 Build 0)  -->
<svg version="1.1" id="Layer_1" xmlns="http://www.w3.org/2000/svg" xmlns:xlink="http://www.w3.org/1999/xlink" x="0px" y="0px"
	 viewBox="0 0 1300 400" style="enable-background:new 0 0 1300 400;" xml:space="preserve">
<style type="text/css">
	.st0{fill:url(#SVGID_1_);stroke:#000000;stroke-width:1.6452;stroke-miterlimit:10;}
	.st1{opacity:0.1;fill:#0D8CD8;enable-background:new    ;}
	.st2{fill:none;stroke:#535461;stroke-width:0.658;stroke-miterlimit:10;}
	.st3{fill:#0D8CD8;}
	.st4{opacity:0.25;enable-background:new    ;}
	.st5{fill:#464353;}
	.st6{fill:#514E7F;}
	.st7{opacity:0.1;enable-background:new    ;}
	.st8{opacity:0.5;fill:#0D8CD8;enable-background:new    ;}
	.st9{fill:url(#SVGID_2_);}
	.st10{fill:#3F3D56;}
	.st11{fill:#A1616A;}
	.st12{opacity:5.000000e-02;enable-background:new    ;}
	.st13{opacity:0.1;}
</style>
<linearGradient id="SVGID_1_" gradientUnits="userSpaceOnUse" x1="0" y1="200.8" x2="134.0889" y2="200.8" gradientTransform="matrix(-9.6951 0 0 1 1300 0)">
	<stop  offset="0" style="stop-color:#007194"/>
	<stop  offset="1" style="stop-color:#41C1C9"/>
</linearGradient>
<rect y="0.8" class="st0" width="1300" height="400"/>
<path class="st1" d="M83.4,295.3c0.4,0.3,0.7,0.5,1.1,0.8c1.4,0.9,2.8,1.7,4.2,2.5c7.7,3.8,17.2,5.7,26.5,7c20.8,2.9,42,3.4,63.1,4
	c57.1,1.5,114.3,3,171.2-0.5c22.5-1.3,45.5-3.6,65.9-10.5c2.9-1,5.8-2.1,8.6-3.3c5.7-2.4,11.1-5.4,15.7-8.9
	c4.3-3.3,7.7-7.1,9.8-11.4c4.3-9,2-19-2.9-27.8c-2.1-3.6-4.4-7-6.9-10.2c-3.8-4.9-8-9.7-11.8-14.7c-13.6-17.6-22.5-39.8-9.9-57.8
	c3.6-5.2,8.8-9.7,11.8-15.1c3.8-6.9,3.5-14.6,2.3-22c-0.2-0.9-0.3-1.9-0.5-2.8c-2-11-5.9-22.9-17.7-29.8
	c-12.3-7.2-29.7-6.8-44.9-4.2c-23.7,4-45.5,12.3-67.6,19.8s-45.2,14.4-69.4,15.1c-21.4,0.7-46.4-4.2-60.6-16.9
	c-13.8-12.3-39.8-13.3-58.5-5.8c-12.8,5.1-22.4,14.3-26.5,24.7c-0.8,2.1-1.4,4.2-1.8,6.4c-0.3,2-0.4,4-0.3,6.1c0.1,1,0.2,2,0.3,3
	c3.1,20.4,25.6,36.6,39.3,54.8c6.7,8.9,11.4,19.6,6.8,29.2c-7,14.7-31.4,19.9-46.1,30.8c-2.8,2-5.2,4.3-7.2,7
	C70.1,274.5,72.8,287.6,83.4,295.3z"/>
<ellipse class="st1" cx="274.9" cy="303" rx="88.7" ry="3"/>
<g id="_x35_5bfdb31-36b5-4718-97dd-773b4157bdc7">
	<path class="st2" d="M204.4,300.9c0,0-19.1-24.2-17.6-48.2c0.6-10.1-1.9-20.1-7.4-28.6c-2.6-4-5.6-7.8-9-11.2"/>
	<path class="st3" d="M171.2,197.8c1.3,3.4-0.8,15.5-0.8,15.5s-10-7.3-11.3-10.7c-1.4-3.4,0.3-7.2,3.6-8.5
		C166.1,192.8,169.9,194.5,171.2,197.8L171.2,197.8L171.2,197.8z"/>
	<path class="st3" d="M188.8,212.4c-0.7,3.6-9.1,12.6-9.1,12.6s-4.4-11.6-3.7-15.1c0.7-3.5,4.2-5.8,7.8-5.1
		C187.2,205.5,189.4,208.9,188.8,212.4L188.8,212.4z"/>
	<path class="st3" d="M201.1,244.4c-2.4,2.7-14.2,6.3-14.2,6.3s2-12.2,4.4-14.9s6.5-3,9.3-0.6C203.2,237.5,203.5,241.6,201.1,244.4
		L201.1,244.4L201.1,244.4z"/>
	<path class="st3" d="M205,270.7c-1.9,3.1-13,8.6-13,8.6s-0.1-12.4,1.8-15.5s5.9-4.1,9-2.2S206.9,267.5,205,270.7
		C205,270.6,205,270.6,205,270.7z"/>
	<path class="st3" d="M167.1,230.8c3.4,1.4,15.6-0.7,15.6-0.7s-7.2-10-10.6-11.4c-3.4-1.3-7.2,0.3-8.5,3.7
		C162.3,225.7,163.9,229.4,167.1,230.8z"/>
	<path class="st3" d="M172,261.5c3.6,0.3,14.6-5.3,14.6-5.3s-9.9-7.4-13.5-7.7c-3.6-0.4-6.8,2.3-7.2,5.9c-0.4,3.6,2.3,6.8,5.9,7.2
		C171.9,261.5,172,261.5,172,261.5z"/>
	<path class="st3" d="M181,290.7c3.5,0.9,15.3-2.8,15.3-2.8s-8.5-9-12-9.9c-3.5-0.8-7,1.4-7.9,4.9
		C175.6,286.3,177.6,289.7,181,290.7L181,290.7z"/>
	<path class="st4" d="M171.2,197.8c1.3,3.4-0.8,15.5-0.8,15.5s-10-7.3-11.3-10.7c-1.4-3.4,0.3-7.2,3.6-8.5
		C166.1,192.8,169.9,194.5,171.2,197.8L171.2,197.8L171.2,197.8z"/>
	<path class="st4" d="M188.8,212.4c-0.7,3.6-9.1,12.6-9.1,12.6s-4.4-11.6-3.7-15.1c0.7-3.5,4.2-5.8,7.8-5.1
		C187.2,205.5,189.4,208.9,188.8,212.4L188.8,212.4z"/>
	<path class="st4" d="M201.1,244.4c-2.4,2.7-14.2,6.3-14.2,6.3s2-12.2,4.4-14.9s6.5-3,9.3-0.6C203.2,237.5,203.5,241.6,201.1,244.4
		L201.1,244.4L201.1,244.4z"/>
	<path class="st4" d="M205,270.7c-1.9,3.1-13,8.6-13,8.6s-0.1-12.4,1.8-15.5s5.9-4.1,9-2.2S206.9,267.5,205,270.7
		C205,270.6,205,270.6,205,270.7z"/>
	<path class="st4" d="M167.1,230.8c3.4,1.4,15.6-0.7,15.6-0.7s-7.2-10-10.6-11.4c-3.4-1.3-7.2,0.3-8.5,3.7
		C162.3,225.7,163.9,229.4,167.1,230.8z"/>
	<path class="st4" d="M172,261.5c3.6,0.3,14.6-5.3,14.6-5.3s-9.9-7.4-13.5-7.7c-3.6-0.4-6.8,2.3-7.2,5.9c-0.4,3.6,2.3,6.8,5.9,7.2
		C171.9,261.5,172,261.5,172,261.5z"/>
	<path class="st4" d="M181,290.7c3.5,0.9,15.3-2.8,15.3-2.8s-8.5-9-12-9.9c-3.5-0.8-7,1.4-7.9,4.9
		C175.6,286.3,177.6,289.7,181,290.7L181,290.7z"/>
	<path class="st2" d="M204.2,299.9c0,0-27.2-14.4-35.6-36.9c-3.5-9.5-9.9-17.6-18.4-23.1c-4-2.6-8.3-4.8-12.7-6.6"/>
	<path class="st3" d="M132.1,219.1c2.6,2.5,5.6,14.5,5.6,14.5s-12.1-2.6-14.7-5.1c-2.6-2.6-2.6-6.7,0-9.3
		C125.5,216.7,129.6,216.6,132.1,219.1z"/>
	<path class="st3" d="M154.1,225.3c0.8,3.5-3.2,15.2-3.2,15.2s-8.7-8.8-9.5-12.3c-0.9-3.5,1.3-7.1,4.8-8s7.1,1.3,8,4.8
		C154,225.1,154,225.2,154.1,225.3L154.1,225.3z"/>
	<path class="st3" d="M178.3,249.5c-1.1,3.5-10.5,11.5-10.5,11.5s-3.1-12-2-15.4c1-3.5,4.7-5.5,8.1-4.5s5.5,4.7,4.5,8.1
		C178.4,249.4,178.3,249.5,178.3,249.5L178.3,249.5z"/>
	<path class="st3" d="M192.5,272c-0.5,3.6-8.4,13.1-8.4,13.1s-5.1-11.3-4.6-14.9s3.8-6.1,7.4-5.6S193,268.4,192.5,272L192.5,272z"/>
	<path class="st3" d="M141.7,250.9c3.6-0.1,13.9-7,13.9-7s-10.7-6.3-14.3-6.2c-3.6,0.2-6.4,3.2-6.3,6.8
		C135.2,248.2,138.2,250.9,141.7,250.9z"/>
	<path class="st3" d="M158.7,277c3.4-1.2,11.2-10.8,11.2-10.8s-12.1-2.8-15.5-1.6c-3.4,1.3-5.1,5-3.9,8.4
		C151.7,276.3,155.3,278,158.7,277L158.7,277z"/>
	<path class="st3" d="M178.6,300c3.6-0.6,12.9-8.8,12.9-8.8s-11.4-4.8-15-4.2c-3.6,0.6-5.9,4.1-5.3,7.6
		C171.9,298.2,175.1,300.5,178.6,300z"/>
</g>
<polygon class="st5" points="201.8,301.9 204.8,301.9 226.1,191.7 228.8,301.9 231.9,301.9 235.4,191.9 256.2,301.9 259.5,301.9 
	245.4,188.7 244.9,185 217.2,181.9 216.3,188.7 "/>
<rect x="260.7" y="159.8" class="st5" width="17.7" height="10.9"/>
<path class="st5" d="M176,155l-10.7-4.3H163c-0.7,0-1.3,0.6-1.3,1.3v30.1c0,0.7,0.6,1.3,1.3,1.3h2.3L176,179V155z"/>
<rect x="176" y="156.4" class="st5" width="21.8" height="21.1"/>
<rect x="221.7" y="116.7" class="st6" width="14" height="2.6"/>
<rect x="212.2" y="120" class="st6" width="39.5" height="28.9"/>
<rect x="212.2" y="145.4" class="st7" width="39.5" height="3.4"/>
<rect x="197.2" y="156.4" class="st7" width="0.9" height="21.1"/>
<rect x="260.8" y="159.8" class="st7" width="6" height="10.9"/>
<polygon class="st7" points="216.3,188.7 245.4,188.7 244.9,185 217.2,181.9 "/>
<path class="st6" d="M262.7,146h-61.4c-1.9,0-3.5,1.6-3.5,3.5v35.1c0,1.9,1.6,3.5,3.5,3.5h61.4c1.9,0,3.5-1.6,3.5-3.5v-35.1
	C266.2,147.6,264.6,146,262.7,146z"/>
<path class="st6" d="M176.2,155H176l0,0v23.9l0,0h0.2c0.9,0,1.7-0.8,1.7-1.7l0,0v-20.5C177.9,155.8,177.1,155,176.2,155z"/>
<path class="st6" d="M165.3,150.7h-2.2c-0.8,0-1.4,0.6-1.4,1.4v29.8c0,0.8,0.6,1.4,1.4,1.4h2.2l0,0V150.7L165.3,150.7z"/>
<rect x="275.3" y="159.8" class="st7" width="3.1" height="10.9"/>
<path class="st6" d="M279.6,156.4h-1.4c-1.3,0-2.4,1.1-2.4,2.4v13.9c0,1.3,1.1,2.4,2.4,2.4h1.4c1.3,0,2.4-1.1,2.4-2.4v-13.9
	C282,157.4,280.9,156.4,279.6,156.4z"/>
<circle class="st5" cx="251.7" cy="120" r="19.7"/>
<circle class="st3" cx="251.7" cy="120" r="14.8"/>
<circle class="st5" cx="215.2" cy="120.4" r="14.4"/>
<circle class="st3" cx="215.2" cy="120.4" r="10.8"/>
<circle class="st3" cx="216.3" cy="152.3" r="1.9"/>
<circle class="st8" cx="210.3" cy="152.3" r="1.9"/>
<linearGradient id="SVGID_2_" gradientUnits="userSpaceOnUse" x1="103.6691" y1="304.1445" x2="103.6691" y2="92.2618" gradientTransform="matrix(-9.6951 0 0 1 1300 0)">
	<stop  offset="0" style="stop-color:#808080;stop-opacity:0.25"/>
	<stop  offset="0.54" style="stop-color:#808080;stop-opacity:0.12"/>
	<stop  offset="1" style="stop-color:#808080;stop-opacity:0.1"/>
</linearGradient>
<path class="st9" d="M234.1,158.8l0.1-0.3c-0.8,0.3-1.6,0.6-2.4,1.1c0.3-2.9,11.3-10.9,13.3-10.9s4.2-3.4,4.2-3.4s5.7-0.9,6.6-1.8
	c0.9-0.9,6.8-0.4,8.2-0.1c1.4,0.3,3.6-0.9,3.6-0.9s1.2-2,2.7-2s3.2-2.2,3.2-2.2s1.4-1.3,2.7-1.5s3-1.6,3.7-2.7s4.6-1.6,6.8-1.3
	s8.1-0.4,8.1-0.4c-2.4-1.1-3-3.7-3-3.7c2.2-0.1,7.8-4.9,7.8-4.9s-0.2,1.5-0.5,3.7l0.4-0.5l0,0c0.1-1.5,0.1-3.1,0-4.6
	c0-0.1,0-0.2,0-0.4c-2.9-2.5-4.1-6.4-3.2-10.1c0.1-0.3,0.1-0.5,0.2-0.7c-0.4,0.2-0.9,0.3-1.3,0.3h-0.2c-0.6,0-1.1-0.2-1.4-0.6l0,0
	c-0.1-0.1-0.1-0.2-0.2-0.3c0,0,0,0,0-0.1s-0.1-0.2-0.1-0.3v-0.1c0-0.1,0-0.1,0-0.2s0-0.1,0-0.2s0-0.1,0-0.1c0-0.5,0.1-1,0.3-1.5
	c0.3-0.8,0.8-1.7,0.8-2.6c0-0.1,0-0.1,0-0.2c-0.1-0.7-0.5-1.4-0.7-2.1l0,0c0-0.1-0.1-0.2-0.1-0.3v-0.1c0-0.1,0-0.2,0-0.4l0,0
	c-0.1-1.4,1-2.6,2.3-3.1c1.1-0.5,2.4-0.6,3.4-1.3c1.2-0.8,1.8-2.1,2.7-3.2c1.3-1.6,3.2-2.8,5.3-2.6c1.2,0.1,2.4,0.8,3.6,1
	c1.9,0.4,3.9-0.2,5.8,0.3c0.5,0.1,0.9,0.3,1.2,0.7c0.1,0.2,0.2,0.4,0.2,0.6l0,0c0,0.2,0,0.4,0,0.6l0,0c0,0.2-0.1,0.4-0.1,0.6v0.1
	v0.1c0,0,0,0.2-0.1,0.2c0,0.1-0.1,0.3-0.1,0.4l0,0c0,0.1-0.1,0.3-0.1,0.4l0,0c-0.1,0.3-0.1,0.6-0.1,0.9l0,0
	c-0.1,0.8,0.1,1.6,0.5,2.3c0.8,1.3,2.6,1.9,3.3,3.3c0.2,0.3,0.3,0.7,0.3,1.1l0,0c0,0.1,0,0.2,0,0.4l0,0c0,0.1,0,0.2,0,0.3v0.1
	c0,0.1,0,0.2-0.1,0.3v0.1c0,0.1-0.1,0.2-0.1,0.3l0,0c-0.4,0.7-1,1.3-1.2,2.1l0,0c0,0,0,0,0,0.1c-0.1,0.6,0.2,1.2,0.3,1.8
	c0,0.1,0,0.1,0,0.2l0,0c0,0,0,0,0,0.1s0,0.1,0,0.2s0,0.1,0,0.1v0.1v0.1v0.1v0.1v0.1v0.1c0,0,0,0.1-0.1,0.1v0.1l-0.1,0.1
	c0,0,0,0,0,0.1s-0.1,0.1-0.2,0.1c-0.5,0.3-1.2,0.2-1.5,0.7c0,0.1-0.1,0.1-0.1,0.2l0,0c0,0.1,0,0.1-0.1,0.2l0,0
	c-0.1,0.2-0.1,0.5,0,0.8c0.1,0.7,0.4,1.3,0.6,1.9c0,0.1,0,0.3,0.1,0.4l0,0c0,0.1,0,0.1,0,0.2l0,0c0,0.1,0,0.1,0,0.2s0,0,0,0
	c0,0.1,0,0.2,0,0.3c0,0.1,0,0.1,0,0.1v0.1v0.1v0.1c0,0,0,0.1-0.1,0.1c0,0,0,0,0,0.1s-0.1,0.1-0.1,0.2c-0.4,0.5-1.1,0.7-1.7,0.7
	c-0.4,0-0.8,0-1.2-0.1c-0.1,0.2-0.2,0.4-0.3,0.6c-0.5,1-1.1,1.8-1.9,2.6c0,0.1,0,0.2,0,0.3c0.1,0.8,0.2,1.6,0.3,2.4
	c0.9-0.4,1.5-0.5,1.8-0.3c1.1,1.2,0,5.4,0,5.4s5.4,0,6.7,1.2s3.7,0,3.7,0s4.9,0.6,4.6,1.5c-0.3,1,2.6,0,2.6,0s2.1,0.2,2,1.6
	s3.2,2.1,2.7,3.1c-0.4,1,2,1.6,2,1.6s2.4-0.1,1.5,1.3l0,0c0,0,1.3,3.1,2.4,3.3c1.1,0.2,2.5,2.7,2.5,2.7s4.2,0.8,4,2.1
	s6.5,10.8,6.5,10.8s2.2,4.5,0.7,7.8s-2.6,5.5-3,6.7c-0.3,1.2-4.3,6.5-4.3,7.5c0,0.3-1,2-2.3,4.1l0.4,0.4l0.9,0.9
	c0,0,2.7,6.8-0.5,7.1c-2.8,0.3-4.8,0.5-5.8,0.2c-0.2,0-0.3-0.1-0.5-0.2l0,0c-1.2,1.8-2,3-2,3s-0.1-0.2-0.3-0.5l-0.3,0.5
	c0,0-0.3-0.4-0.7-1c0.1,3,0.2,5.9,0.2,5.9s-1.4-0.2-0.8,6.4s-3.9,12-3.9,12v9.8l0,0c0,0,0,0.2,0,0.7c-0.1,1.4-0.5,4.7-1.7,6.9
	c-1.5,2.9,0,10.3,0,10.3s0.1,6.1-0.3,13.7c0,0.2,0,0.4,0,0.6c6.7,5.6,13.8,12.9,13.8,12.9c-0.3,0.1-0.7,0.2-1,0.4l0.4,0.5l1.8,2.2
	l0,0l1.4,1.7l0,0l-2.2,6.8l-2.4-0.9c0,0-1.3,2.3-1,3.8c0,0.3,0.2,0.5,0.3,0.8c0.1,0.1,0.1,0.2,0.2,0.4c0.6,2.5-2,13.2-6.2,13.6
	c0,0-1.4,0.5-1.9-0.8c-0.2-0.6-0.2-1.6,0.3-3.3c0,0,2.2-2.7,0.8-5.6c-0.8-1.7-2.2-3.9-3.2-5.5l-0.4-0.7c-0.9,1.1-1.5,1.9-1.5,1.9
	l-3.2-3.5c-0.1,0.1-0.1,0.3-0.2,0.4c-0.2,0.5-0.5,0.9-0.8,1.4l-2.2,8.7l-0.9-0.2c0,0.2,0,0.4,0,0.7c0.1,1.6,0,3.6-0.7,5
	c-0.5,1.1-1.5,1.9-2.9,1.8c-5.1-0.1-6.6-2.9-6.6-2.9V294l-1.8-0.4c0,0,0.1-15.2,0.6-23.6c0-0.2,0-0.4,0-0.5v-0.1l-11.3-12.1
	l-0.9-0.3c-7.2-2.9-7.4-10.2-7.4-10.2s0-4.1-0.9-7.5s-0.1-21.1,1.5-25.5s2.2-9.4,2.2-9.4s-1.6-2.3,0-4.2c0.5-0.6,0.9-1.2,1.2-1.9
	l-2.1-0.4l-1.2-0.2l-0.7-0.1c0.3,2.9,0.4,5.1-0.4,5.7c-2.4,1.6-10.5-3.8-10.5-3.8c3,0,4.6-22.1,4-22.6s-1.5-11.6-0.7-13.6
	s-2.8-10.8-2.8-10.8l-0.5-0.8l0,0c0,0-12.9,5.6-14.4,6.7c-1.4,1.1-5.9-2.6-6.7-1.2c-0.8,1.4-5.6,3.6-5.6,3.6s-7.1-0.7-7.9,1
	c-0.8,1.8-5.4,5.9-5.4,5.9c0-1-0.1-1.9-0.2-2.9c-0.1,0.2-0.2,0.5-0.3,0.7c-2.2,5.2-5.8,11.7-9.2,8.2
	C229.3,169.9,232.2,162.5,234.1,158.8z M331.6,182.1L331.6,182.1L331.6,182.1L331.6,182.1z M334.2,156.8l1.4,14.7l2.7,2.8l0.3,0.3
	l2.8-3.1c0,0,1.4-0.7,0-1.9s2.4-3.9,2.4-3.9s0.1-2-1.3-2.5c-1.4-0.6-3.3-4.2-3.3-4.2l-5.2-2.6l0,0l0,0L334.2,156.8z M315.8,232.1
	c-0.1-0.1-0.2-0.2-0.3-0.2c-0.6-0.3-1,0-1.2,0.7c-0.3,1.1-0.2,2.3,0.2,3.4c0.8,1.8-1.1,8.8-1.1,8.8s2.4,1.1,2.9,3.2
	c0.1,0.3,0.2,0.5,0.3,0.7c0-0.2,0.1-0.4,0.1-0.5c0.2-1.3,0.3-2.2,0.3-2.2c0.4-1.7,0.5-3.4,0.2-5.2c-0.3-2.1-1.1-6.4-1.3-8
	C315.9,232.3,315.8,232.1,315.8,232.1L315.8,232.1z"/>
<path class="st5" d="M300.6,125l-0.7-0.5l-2,4.2l0.8,0.9h2.3c0,0-0.1-2.3-0.1-2.4C300.7,127.1,300.6,125,300.6,125z"/>
<path class="st10" d="M314.3,292.5v9c0,0,1.5,2.8,6.6,2.9c1.3,0.1,2.4-0.7,2.9-1.8c0.7-1.4,0.8-3.5,0.7-5c0-0.8-0.1-1.6-0.2-2.3
	L314.3,292.5z"/>
<path class="st7" d="M314.3,292.5v2.8l10.2,2.3c0-0.8-0.1-1.6-0.2-2.3L314.3,292.5z"/>
<path class="st6" d="M312.6,294.3l12.8,2.9l2.2-8.7c0.3-0.4,0.6-0.9,0.8-1.4c0.1-0.3,0.3-0.6,0.4-0.9c2.4-5.5,3.5-15.3,3.9-23.7
	c0-0.4,0-0.8,0.1-1.3c0.4-7.6,0.3-13.7,0.3-13.7s-1.5-7.5,0-10.3c1.2-2.2,1.6-5.5,1.7-6.9c0-0.4,0-0.7,0-0.7l-0.2-0.6l-1-2.6H323
	l-6.2,5.2l-0.9,0.8l0.1,0.7c0.3,1.6,1,5.9,1.3,8c0.2,1.7,0.2,3.5-0.2,5.2c0,0-0.1,0.8-0.3,2.2c0,0.3-0.1,0.7-0.2,1.1
	c-0.8,4.9-2.3,13.7-2.9,15.9c-0.2,0.6-0.3,2-0.4,4c0,0.4,0,0.8-0.1,1.2C312.7,279.2,312.6,294.3,312.6,294.3z"/>
<path class="st7" d="M314.3,301.5L314.3,301.5c0,0.1,1.5,2.8,6.6,3c1.3,0.1,2.4-0.7,2.9-1.8C321.5,303.2,317.8,303.6,314.3,301.5z"
	/>
<path class="st11" d="M233.2,174.5c3.4,3.5,7-3,9.2-8.2c1.2-2.9,2-5.4,2-5.4l-9-3.8c0,0-0.6,0.9-1.2,2.3
	C232.2,163.2,229.3,170.5,233.2,174.5z"/>
<path class="st11" d="M299.8,123.1c0.1,3.3-0.1,6.5-0.7,9.7c0,0,18.3,2,16.7-0.9c-1-1.7-1.6-6.1-1.9-9.5c-0.3-2.4-0.4-4.3-0.4-4.3
	s-17.5-7-14.9-1.1C299.3,118.9,299.7,121,299.8,123.1z"/>
<polygon class="st5" points="298.2,170.3 300.7,199.6 289.4,197.8 291.4,173.5 290.7,167.1 "/>
<polygon class="st7" points="289.4,197.8 294.3,198.6 300.7,199.7 300.3,194.3 298.2,170.3 295.7,169.2 293.9,168.5 290.7,167.1 
	291.4,173.6 "/>
<path class="st10" d="M337,294.4c1.4,2.9-0.8,5.6-0.8,5.6c-0.5,1.7-0.5,2.7-0.3,3.3c0.5,1.3,1.9,0.8,1.9,0.8c4.5-0.5,7.2-12.6,6-14
	s0.7-4.6,0.7-4.6l2.4,0.9l2.2-6.8l-1.4-1.7l-1.8-2.2l-1.2-1.5L332.4,287c0,0,0.5,0.8,1.2,1.9C334.7,290.5,336.1,292.7,337,294.4z"/>
<path class="st7" d="M313.1,270.7l15.3,16.4c2.7-5.2,3.8-15.7,4.3-24.6c-2.8-2.4-5.6-4.4-7.7-5.4c0,0-7-5.1-8.5-7.5
	c-0.8,4.9-2.3,13.7-2.9,15.9C313.4,266.1,313.3,268.1,313.1,270.7z"/>
<polygon class="st7" points="316.8,231.8 334.6,229.1 333.6,226.5 323,226.5 "/>
<path class="st7" d="M313.2,269.5l15.6,16.8c2.4-5.5,3.5-15.3,3.9-23.7c0-0.4,0-0.8,0.1-1.3c-2.9-2.4-5.7-4.5-7.7-5.4
	c0,0-6.6-4.7-8.4-7.3c0,0.3-0.1,0.7-0.2,1.1c-0.8,4.9-2.3,13.7-2.9,15.9C313.5,266,313.3,267.5,313.2,269.5z"/>
<path class="st7" d="M332.5,287c0,0,0.5,0.8,1.2,1.9c2.6-3.3,8.8-10.9,12.2-13.2l-1.2-1.5L332.5,287z"/>
<path class="st6" d="M292.8,240c0.9,3.4,0.9,7.5,0.9,7.5s0.1,7.3,7.4,10.2l0.9,0.3l29.9,32.1c0,0,11.1-14.5,14.7-15.4
	c0,0-14.6-15-21.5-18.3c0,0-8.3-6-8.8-8.1s-2.9-3.2-2.9-3.2s1.9-7,1.1-8.8c-0.4-1.1-0.5-2.3-0.2-3.4c0.2-0.7,0.6-1,1.2-0.7
	c0.1,0.1,0.2,0.1,0.3,0.2l19-2.9v-9.7c0,0,4.6-5.4,3.9-12c-0.7-6.6,0.8-6.4,0.8-6.4s-0.1-11.1-1-12s-9.9-5.2-9.9-5.2l-28.2,5
	l-1.2,5.4c0,0-1,4.3-2.6,6.2s0,4.2,0,4.2s-0.5,4.9-2.2,9.3C292.7,219,291.9,236.6,292.8,240z"/>
<path class="st7" d="M298.5,117.2c0.8,1.8,1.2,3.9,1.3,6c4.1,3.5,10.2,3.3,14-0.6c-0.3-2.4-0.4-4.3-0.4-4.3S295.9,111.3,298.5,117.2
	z"/>
<path class="st11" d="M296.3,115.1c0,5.6,4.6,10.2,10.2,10.2c5.6,0,10.2-4.6,10.2-10.2s-4.6-10.2-10.2-10.2c-4.7,0-8.8,3.2-9.9,7.8
	C296.4,113.5,296.3,114.3,296.3,115.1z"/>
<path class="st7" d="M304.5,132.9c0,0,7.3-3.4,7.8-3.8s15.7,38.5,15.7,38.5l4.3,19.4c0,0-22.8,9.8-27.7,8.4c-4.9-1.3-5.4,0-5.4,0
	s-5-28.3-6.7-30.8c-1.6-2.5,1.5-28.2,1.5-28.2l5.7-7.5L304.5,132.9z"/>
<path class="st7" d="M304.5,131.5c0,0,7.3-3.4,7.8-3.8s15.7,38.6,15.7,38.6l4.3,19.4c0,0-22.8,9.8-27.7,8.4c-4.9-1.3-5.4,0-5.4,0
	s-5-28.3-6.7-30.8s1.5-28.2,1.5-28.2l5.7-7.5L304.5,131.5z"/>
<path class="st3" d="M292.5,164c0.3,0.5,0.8,2.1,1.4,4.4c0.4,1.6,0.8,3.4,1.2,5.4c1.9,9.1,4.1,21,4.1,21s0.1-0.4,1.1-0.5
	c0.8-0.1,2.1,0,4.3,0.5c4.9,1.3,27.7-8.4,27.7-8.4l-0.7-3L328,167c0,0-15.2-39-15.7-38.6c-0.3,0.3-3.1,1.6-5.3,2.7
	c-1.4,0.7-2.5,1.2-2.5,1.2l-4.6-3.6l-0.3-0.2l-5.7,7.5C294,135.8,290.8,161.5,292.5,164z"/>
<path class="st7" d="M309.9,136c-0.7,2.5,0.9,6.7,0.9,6.7s5.3,12.9,6.8,18.9s10.3,18,10.3,18s1.3,1.3,3.1,3.1
	c0.2,0.2,0.4,0.4,0.6,0.6L328,167c0,0-15.2-39-15.7-38.6c-0.3,0.3-3.1,1.6-5.3,2.7C308.4,132.3,310.4,134.4,309.9,136z"/>
<path class="st5" d="M310.6,136c-0.7,2.5,0.9,6.7,0.9,6.7s5.3,12.9,6.8,18.9s10.3,18,10.3,18s1.3,1.3,3.1,3.1
	c0.2,0.2,0.4,0.4,0.7,0.7c3.5,3.5,8.5,8.4,10,9.9c0.2,0.2,0.4,0.4,0.4,0.4c0.1,0.1,0.3,0.2,0.5,0.2c1,0.3,3,0.1,5.8-0.2
	c3.3-0.3,0.5-7.1,0.5-7.1l-0.9-0.9l-0.8-0.8l-9-9.2l-0.7-0.7l-2.7-2.8l-1.4-14.7v-0.4c0,0,0.4-0.9,1-2.4c1.7-3.8,5-11.3,6.2-13.7
	c0.1-0.3,0.2-0.5,0.3-0.6l0,0c0.9-1.4-1.5-1.3-1.5-1.3s-2.4-0.7-2-1.6c0.4-1-2.9-1.6-2.7-3.1s-2-1.6-2-1.6s-3,1-2.6,0
	c0.3-1-4.6-1.5-4.6-1.5s-2.4,1.2-3.7,0s-6.7-1.2-6.7-1.2s1.1-4.2,0-5.4c-1.1-1.2-9.4,5.4-9.4,5.4S311.2,133.5,310.6,136z"/>
<path class="st7" d="M338,192.2c0,0-9.1,12.8-15.5,8.7c-6.4-4.2,8.6-15,8.6-15L338,192.2z"/>
<path class="st11" d="M338,191.5c0,0-9.1,12.8-15.5,8.7s8.6-15,8.6-15L338,191.5z"/>
<path class="st7" d="M294.3,198.6c-0.7-6.1-2.7-15.2-1.1-17.9c0.8-1.4,1.4-4,1.9-6.8c0.2-1.5,0.4-3.1,0.6-4.7
	c0.4-4.1,0.5-7.5,0.5-7.5s3.9-17.6,3.2-21.2c-0.5-2.3,0.1-7.9,0.6-11.9l-0.3-0.2l-5.7,7.5c0,0-3.2,25.7-1.5,28.2
	c0.3,0.5,0.8,2.1,1.4,4.4l-3.1-1.3l0.7,6.5l-2,24.2L294.3,198.6z"/>
<path class="st5" d="M299.8,124.5c0,0-5.7,4.8-7.8,4.9c0,0,0.6,2.6,3,3.7c0,0-5.9,0.8-8.1,0.4s-6,0.2-6.8,1.3s-2.4,2.5-3.7,2.7
	c-1.3,0.2-2.7,1.5-2.7,1.5l9.7,14.3c0,0,3.5,8.8,2.7,10.7c-0.8,2,0.1,13.1,0.7,13.6c0.6,0.5-1,22.6-4,22.6c0,0,8.1,5.5,10.5,3.8
	c2.4-1.6-3.1-19.4-0.7-23.5c2.4-4.1,3-19,3-19s3.9-17.6,3.2-21.2C297.9,136.8,299.8,124.5,299.8,124.5z"/>
<path class="st7" d="M234.1,159.4c2.9-0.9,7.4-0.9,8.3,6.9c1.2-2.9,2-5.4,2-5.4l-9-3.8C235.3,157.2,234.8,158.1,234.1,159.4z"/>
<path class="st5" d="M279,138.5l-5.4,0.7c0,0-1.6,2.2-3.2,2.2c-1.5,0-2.7,2-2.7,2s-2.2,1.2-3.6,0.9s-7.3-0.9-8.2,0.1
	c-0.9,0.9-6.6,1.8-6.6,1.8s-2.2,3.4-4.2,3.4s-12.9,8-13.3,10.9c0,0,10.9-6.9,11,8.3c0,0,4.6-4.1,5.4-5.9s7.9-1,7.9-1
	s4.8-2.1,5.6-3.6c0.8-1.4,5.3,2.3,6.7,1.2c1.4-1.1,14.4-6.7,14.4-6.7l4-7.5L279,138.5z"/>
<circle class="st10" cx="303.8" cy="150.8" r="0.9"/>
<circle class="st10" cx="304.7" cy="170.3" r="0.9"/>
<circle class="st10" cx="303.8" cy="160.1" r="0.9"/>
<circle class="st10" cx="306.5" cy="180.5" r="0.9"/>
<path class="st7" d="M335.9,303.3c0.5,1.3,1.9,0.8,1.9,0.8c4.5-0.5,7.2-12.6,6-14s0.7-4.6,0.7-4.6l2.4,0.9l2.2-6.8l-1.4-1.7
	c-1.4,2.4-3.4,5.9-3.9,6.8c-0.9,1.8-1.3,3.9-1.2,5.9C342.8,292.8,340.3,303,335.9,303.3z"/>
<path class="st7" d="M296.6,112.7c0.2-0.1,0.4-0.2,0.7-0.3c0.8-0.3,1.5-0.7,2-1.3c0.4-0.6,0.6-1.5,1.2-1.8c0.8-0.4,1.6,0.1,2.5,0.3
	c1,0.2,2,0,2.9-0.4c1.4-0.5,3.4-1.5,4.8-0.5c1.1,0.8,0.7,2.4,1,3.5c0.4,1.8,2.3,3,2.7,4.8c0.2,0.8,0.1,1.8,0.7,2.3
	c0.2,0.1,0.4,0.2,0.6,0.3c2.5-5.1,0.4-11.2-4.6-13.7c-5.1-2.5-11.2-0.4-13.7,4.6C297,111.3,296.7,112,296.6,112.7L296.6,112.7z"/>
<path class="st5" d="M305.8,108.6c-0.9,0.3-1.9,0.6-2.9,0.4c-0.8-0.2-1.7-0.7-2.5-0.3c-0.7,0.4-0.8,1.2-1.2,1.8
	c-0.5,0.7-1.3,1-2,1.3c-0.6,0.3-1.2,0.4-1.8,0.5s-1.2-0.2-1.7-0.6c-0.6-0.7-0.4-1.8-0.1-2.6s0.8-1.7,0.8-2.6c0-1.1-0.8-2-0.9-3.1
	c-0.1-1.4,1-2.6,2.3-3.1c1.1-0.5,2.4-0.6,3.4-1.3c1.2-0.8,1.8-2.1,2.7-3.2c1.3-1.6,3.2-2.8,5.3-2.6c1.2,0.1,2.4,0.8,3.6,1
	c1.9,0.4,3.9-0.2,5.8,0.3c0.5,0.1,0.9,0.3,1.2,0.6c0.5,0.6,0.2,1.5,0,2.2c-0.4,1.3-0.5,2.9,0.2,4c0.8,1.3,2.6,1.9,3.3,3.3
	c0.4,0.8,0.5,1.8,0.1,2.6c-0.4,0.8-1.1,1.4-1.2,2.2c-0.1,0.6,0.2,1.2,0.3,1.8s0.1,1.3-0.4,1.6s-1.2,0.2-1.5,0.7
	c-0.2,0.3-0.3,0.7-0.2,1.1c0.1,0.7,0.4,1.3,0.6,1.9c0.2,0.6,0.1,1.3-0.3,1.9c-0.6,0.9-1.9,0.8-3,0.6c-0.3,0-0.6-0.2-0.8-0.3
	c-0.7-0.5-0.5-1.5-0.7-2.3c-0.4-1.8-2.3-3-2.7-4.8c-0.3-1.2,0.1-2.8-1-3.5C309.2,107.1,307.2,108.1,305.8,108.6z"/>
<path class="st7" d="M307.4,227.6c0,0-10.3,6.6-10.7,9.1L307.4,227.6z"/>
<path class="st7" d="M307.9,232.9c0,0-11.8,5.7-11.2,7.7L307.9,232.9z"/>
<path class="st7" d="M308.7,237.9c0,0-6.7,3.5-7.1,5.6L308.7,237.9z"/>
<path class="st7" d="M305.9,245.8c0,0-4.4,3.8-5.3,2.9S305.9,245.8,305.9,245.8z"/>
<path class="st7" d="M312,248.2c0,0-3.4,5.5-1.8,5.8S312,248.2,312,248.2z"/>
<path class="st7" d="M327,150.8c0,0,5.8,3.5,4.1,4.4S327,150.8,327,150.8z"/>
<path class="st7" d="M327,137.9c0,0,5.9,10.9,3.2,10.1C327.5,147.2,327,137.9,327,137.9z"/>
<path class="st7" d="M264.1,148.8c0,0,3.6,4.3,3,6.6L264.1,148.8z"/>
<path class="st7" d="M254.6,150.8c0,0,5.4,4.8,4.6,5.4L254.6,150.8z"/>
<path class="st7" d="M251.2,156.8c0,0,0.5,3.2-0.3,3.3L251.2,156.8z"/>
<path class="st12" d="M310.5,223.7c1.4,1.8,1.4,5,2,6.3c0.3,0.7,1.1,2,1.7,3c0.2-0.7,0.6-1,1.2-0.7c0.4-3,1.1-8.2,1.3-9.3
	c0.3-1.5-3.3-5.4-3.3-5.4s-3.5,0.7-4.4,2.5S309.1,221.9,310.5,223.7z"/>
<path class="st7" d="M328.8,185.6c3.9,0.5,11.3,11.1,11.3,11.1s1-1.4,2.3-3.4c1.7-2.5,3.9-5.9,5.6-8.4l-9.6-9.9l-1.8,1.9
	c0,0-3.4,3.4-3.4,4.1c0,0.3-0.7,1-1.5,1.9C330.4,184.1,328.8,185.6,328.8,185.6z"/>
<path class="st7" d="M341.4,141.1c0.1-0.3,0.2-0.5,0.3-0.6l-4.3,0.3l-2.3,14C336.9,150.9,340.2,143.5,341.4,141.1z"/>
<path class="st7" d="M332.3,183.5c3.5,3.5,8.5,8.4,10,9.9c0.2,0.2,0.4,0.4,0.4,0.4c0.1,0.1,0.3,0.2,0.5,0.2c1.5-2.3,3.8-5.6,5.5-8.2
	l-0.8-0.8l-9-9.2l-1.1,1.2c0,0-3.4,3.4-3.4,4.1C334.5,181.2,333.4,182.4,332.3,183.5z"/>
<path class="st5" d="M336.8,140.8l4.9-0.3c0,0,1.3,3.1,2.4,3.3c1.1,0.2,2.5,2.7,2.5,2.7s4.2,0.8,4,2.1s6.5,10.7,6.5,10.7
	s2.2,4.5,0.7,7.8s-2.6,5.5-3,6.7c-0.3,1.2-4.2,6.5-4.2,7.5s-10,15.5-10,15.5s-7.3-10.5-11.3-11.1c0,0,4.4-4.1,4.4-4.7
	c0-0.7,3.4-4.1,3.4-4.1l4.3-4.6c0,0,1.4-0.7,0-1.9s2.4-3.9,2.4-3.9s0.1-2-1.3-2.5c-1.4-0.5-3.3-4.2-3.3-4.2l-5.2-2.6L336.8,140.8z"
	/>
<path class="st7" d="M355.6,162.6c0,0-5.9-1.2-6-0.4C349.5,162.9,355.6,162.6,355.6,162.6z"/>
<path class="st7" d="M350.7,168.6c0,0-5,0.7-4.8,1.7C346.1,171.4,350.7,168.6,350.7,168.6z"/>
<path class="st7" d="M346.6,149.9c0,0-4.8,6.8-5.5,5.4L346.6,149.9z"/>
<g class="st13">
	<path d="M317.6,99c0-0.8,0.1-1.6,0.3-2.4c0.1-0.3,0.2-0.7,0.2-1c0,0.6,0,1.1-0.2,1.6C317.7,97.8,317.6,98.4,317.6,99z"/>
	<path d="M294.5,106.2c-0.1-1-0.8-1.9-0.9-2.9c0-0.2,0-0.3,0-0.5c0.1,1,0.8,1.9,0.9,3C294.5,105.9,294.5,106.1,294.5,106.2z"/>
	<path d="M293.8,111c0.4,0.5,1.1,0.7,1.7,0.6c0.6-0.1,1.2-0.2,1.8-0.5c0.8-0.3,1.5-0.7,2-1.3c0.4-0.6,0.6-1.5,1.2-1.8
		c0.8-0.4,1.6,0.1,2.5,0.3c1,0.2,2,0,2.9-0.4c1.4-0.5,3.4-1.5,4.8-0.5c1.1,0.8,0.7,2.4,1,3.5c0.4,1.8,2.3,3,2.7,4.8
		c0.2,0.8,0.1,1.8,0.7,2.3c0.3,0.2,0.5,0.3,0.8,0.3c1,0.2,2.3,0.3,3-0.6c0.2-0.2,0.3-0.5,0.3-0.8c0.1,0.5,0,1.1-0.3,1.5
		c-0.6,0.9-1.9,0.8-3,0.6c-0.3,0-0.6-0.2-0.8-0.3c-0.7-0.5-0.5-1.5-0.7-2.3c-0.4-1.8-2.3-3-2.7-4.8c-0.3-1.2,0.1-2.8-1-3.5
		c-1.4-1-3.4,0-4.8,0.5c-0.9,0.3-1.9,0.6-2.9,0.4c-0.8-0.2-1.7-0.7-2.5-0.3c-0.7,0.4-0.8,1.2-1.2,1.8c-0.5,0.7-1.3,1-2,1.3
		c-0.6,0.3-1.2,0.4-1.8,0.5s-1.2-0.2-1.7-0.6c-0.3-0.4-0.5-1-0.4-1.5C293.4,110.5,293.6,110.8,293.8,111z"/>
	<path d="M320.3,108.8c0.1-0.8,0.8-1.4,1.2-2.2c0.1-0.3,0.2-0.6,0.3-0.9c0.1,0.5,0,1.1-0.3,1.6c-0.4,0.7-1,1.3-1.2,2.1
		C320.3,109.1,320.3,108.9,320.3,108.8z"/>
	<path d="M318.5,113.9c-0.1-0.4,0-0.7,0.2-1c0.4-0.4,1.1-0.3,1.5-0.7c0.2-0.2,0.4-0.5,0.4-0.8c0.1,0.5,0,1.1-0.4,1.4
		s-1.2,0.2-1.5,0.7C318.6,113.6,318.5,113.8,318.5,113.9z"/>
</g>
<path class="st3" d="M396.6,284.3c0,0,13.6-0.8,12,8.7c0,0,0.3,1.7-1.2,2.5c0,0,0-0.7-1.4-0.5c-0.5,0.1-1,0.1-1.5,0.1
	c-0.7,0-1.3-0.3-1.8-0.7l0,0c0,0-3.8-1.6-5.3-7.8c0,0-1.1-1.4-1.1-1.7l2.3,1c0,0-0.8,1.6-0.2,3c0,0,0.1-3,0.5-2.9
	c0.1,0,1.2,0.6,1.2,0.6s-1.4,2.9-0.3,5c0,0-0.4-3.6,0.8-4.8l1.6,0.9c0,0-1.6,3-0.5,5.4c0,0-0.3-3.7,0.8-5.2l1.5,1.1
	c0,0-1.5,2.9-0.6,5c0,0,0.1-4.3,0.9-4.7c0,0,1.3,1.1,1.5,1.6c0,0-1,2.1-0.4,3.3c0,0,0.4-2.9,0.7-2.9c0,0,1.3,1.9,1.4,3.2
	c0,0-0.1-2-1.1-3.4c0.7,0.1,1.4,0.5,2,1c0,0-0.2-1.4-2.3-1.5c0,0-1.1-1.5-1.3-1.5c0,0,2.1-0.2,3.3,0.4c0,0-1.1-1.3-3.7-0.7l-1.4-1.2
	c0,0,2.7-0.4,3.9,0c0,0-1.3-1.1-4.3-0.3l-1.6-0.9c0,0,2.3-0.5,3.7-0.3c0,0-1.5-0.8-4.2,0.1l-1.1-0.5c0,0,1.7-0.3,2.2-0.4
	s0.5-0.2,0.5-0.2c-1.1-0.2-2.2-0.1-3.2,0.4C398.9,285.3,396.5,284.4,396.6,284.3z"/>
<ellipse class="st1" cx="405.9" cy="296.3" rx="9.6" ry="1.6"/>
</svg>
