<?xml version="1.0" encoding="utf-8"?>
<!-- Generator: Adobe Illustrator 22.0.1, SVG Export Plug-In . SVG Version: 6.00 Build 0)  -->
<svg version="1.1" id="Layer_1" xmlns="http://www.w3.org/2000/svg" xmlns:xlink="http://www.w3.org/1999/xlink" x="0px" y="0px"
	 viewBox="0 0 1300 400" style="enable-background:new 0 0 1300 400;" xml:space="preserve">
<style type="text/css">
	.st0{fill:url(#SVGID_1_);stroke:#000000;stroke-width:1.6452;stroke-miterlimit:10;}
	.st1{opacity:0.1;fill:#A8DBF4;enable-background:new    ;}
	.st2{fill:none;stroke:#535461;stroke-width:0.6257;stroke-miterlimit:10;}
	.st3{fill:#0D8CD8;}
	.st4{opacity:0.25;fill:#4A7D91;enable-background:new    ;}
	.st5{fill:#7DC5EA;}
	.st6{fill:#8B8BAF;}
	.st7{fill:#6D6D99;}
	.st8{fill:#9C9CB7;}
	.st9{fill:#8787AA;}
	.st10{fill:#514E7F;}
	.st11{fill:#8888A5;}
	.st12{opacity:0.1;enable-background:new    ;}
	.st13{fill:#7A7A9E;}
	.st14{fill:#5B5B7F;}
	.st15{fill:#5B5A6B;}
	.st16{fill:#B0D7EA;}
	.st17{opacity:0.5;fill:#0D8CD8;enable-background:new    ;}
	.st18{fill:url(#SVGID_2_);}
	.st19{fill:#464353;}
	.st20{fill:#E8E8EA;}
	.st21{fill:#A8A8A8;}
	.st22{fill:#A1616A;}
	.st23{fill:#B9B9BA;}
	.st24{fill:#B6B6B7;}
	.st25{fill:#EDEDED;}
	.st26{fill:#C9CBD3;}
	.st27{fill:#909091;}
	.st28{fill:#636363;}
	.st29{opacity:5.000000e-02;enable-background:new    ;}
	.st30{opacity:0.1;}
	.st31{fill:#87D0F4;}
	.st32{opacity:0.1;fill:#BCDCED;enable-background:new    ;}
</style>
<linearGradient id="SVGID_1_" gradientUnits="userSpaceOnUse" x1="651.6811" y1="197.8231" x2="1951.681" y2="197.8231" gradientTransform="matrix(-1 0 0 -1 1950 400)">
	<stop  offset="0" style="stop-color:#00354D"/>
	<stop  offset="0.4129" style="stop-color:#00364F"/>
	<stop  offset="0.5616" style="stop-color:#003C56"/>
	<stop  offset="0.6676" style="stop-color:#004561"/>
	<stop  offset="0.7534" style="stop-color:#005272"/>
	<stop  offset="0.8268" style="stop-color:#006388"/>
	<stop  offset="0.8918" style="stop-color:#0078A4"/>
	<stop  offset="0.9492" style="stop-color:#0091C3"/>
	<stop  offset="1" style="stop-color:#00ACE6"/>
	<stop  offset="1" style="stop-color:#0093C7"/>
	<stop  offset="1" style="stop-color:#0075A3"/>
	<stop  offset="1" style="stop-color:#005B83"/>
	<stop  offset="1" style="stop-color:#004567"/>
	<stop  offset="1" style="stop-color:#003351"/>
	<stop  offset="1" style="stop-color:#002540"/>
	<stop  offset="1" style="stop-color:#001B35"/>
	<stop  offset="1" style="stop-color:#00162E"/>
	<stop  offset="1" style="stop-color:#00142C"/>
</linearGradient>
<rect x="-1.7" y="2.2" class="st0" width="1300" height="400"/>
<ellipse class="st1" cx="1078.8" cy="298.5" rx="84.3" ry="2.9"/>
<g id="_x35_5bfdb31-36b5-4718-97dd-773b4157bdc7_1_">
	<path class="st2" d="M1145.8,296.6c0,0,18.1-23,16.7-45.8c-0.6-9.6,1.8-19.1,7-27.2c2.5-3.8,5.3-7.4,8.5-10.7"/>
	<path class="st3" d="M1177.3,198.5c-1.3,3.2,0.8,14.8,0.8,14.8s9.5-6.9,10.8-10.1c1.3-3.2-0.3-6.8-3.5-8.1
		S1178.6,195.3,1177.3,198.5L1177.3,198.5L1177.3,198.5z"/>
	<path class="st3" d="M1160.7,212.4c0.7,3.4,8.7,12,8.7,12s4.2-11,3.5-14.4s-4-5.5-7.4-4.8C1162.2,205.8,1160,209.1,1160.7,212.4
		L1160.7,212.4z"/>
	<path class="st3" d="M1148.9,242.8c2.3,2.6,13.5,5.9,13.5,5.9s-1.9-11.6-4.2-14.2c-2.3-2.6-6.2-2.8-8.8-0.6
		C1146.9,236.3,1146.6,240.2,1148.9,242.8L1148.9,242.8L1148.9,242.8z"/>
	<path class="st3" d="M1145.2,267.8c1.8,2.9,12.4,8.2,12.4,8.2s0.1-11.8-1.7-14.7c-1.8-2.9-5.6-3.9-8.6-2.1
		C1144.3,261,1143.4,264.8,1145.2,267.8C1145.2,267.8,1145.2,267.8,1145.2,267.8z"/>
	<path class="st3" d="M1181.2,229.9c-3.2,1.3-14.8-0.7-14.8-0.7s6.9-9.5,10.1-10.9c3.2-1.3,6.8,0.3,8.1,3.5
		C1185.8,225,1184.3,228.6,1181.2,229.9z"/>
	<path class="st3" d="M1176.6,259.1c-3.4,0.3-13.9-5.1-13.9-5.1s9.4-7.1,12.9-7.4c3.4-0.3,6.5,2.2,6.9,5.6c0.3,3.4-2.2,6.5-5.6,6.9
		C1176.7,259.1,1176.6,259.1,1176.6,259.1z"/>
	<path class="st3" d="M1168.1,286.8c-3.3,0.9-14.5-2.7-14.5-2.7s8.1-8.5,11.4-9.4c3.3-0.8,6.7,1.3,7.5,4.7
		C1173.2,282.7,1171.3,285.9,1168.1,286.8L1168.1,286.8z"/>
	<path class="st4" d="M1177.3,198.5c-1.3,3.2,0.8,14.8,0.8,14.8s9.5-6.9,10.8-10.1c1.3-3.2-0.3-6.8-3.5-8.1
		S1178.6,195.3,1177.3,198.5L1177.3,198.5L1177.3,198.5z"/>
	<path class="st4" d="M1160.7,212.4c0.7,3.4,8.7,12,8.7,12s4.2-11,3.5-14.4s-4-5.5-7.4-4.8C1162.2,205.8,1160,209.1,1160.7,212.4
		L1160.7,212.4z"/>
	<path class="st4" d="M1148.9,242.8c2.3,2.6,13.5,5.9,13.5,5.9s-1.9-11.6-4.2-14.2c-2.3-2.6-6.2-2.8-8.8-0.6
		C1146.9,236.3,1146.6,240.2,1148.9,242.8L1148.9,242.8L1148.9,242.8z"/>
	<path class="st4" d="M1145.2,267.8c1.8,2.9,12.4,8.2,12.4,8.2s0.1-11.8-1.7-14.7c-1.8-2.9-5.6-3.9-8.6-2.1
		C1144.3,261,1143.4,264.8,1145.2,267.8C1145.2,267.8,1145.2,267.8,1145.2,267.8z"/>
	<path class="st4" d="M1181.2,229.9c-3.2,1.3-14.8-0.7-14.8-0.7s6.9-9.5,10.1-10.9c3.2-1.3,6.8,0.3,8.1,3.5
		C1185.8,225,1184.3,228.6,1181.2,229.9z"/>
	<path class="st4" d="M1176.6,259.1c-3.4,0.3-13.9-5.1-13.9-5.1s9.4-7.1,12.9-7.4c3.4-0.3,6.5,2.2,6.9,5.6c0.3,3.4-2.2,6.5-5.6,6.9
		C1176.7,259.1,1176.6,259.1,1176.6,259.1z"/>
	<path class="st4" d="M1168.1,286.8c-3.3,0.9-14.5-2.7-14.5-2.7s8.1-8.5,11.4-9.4c3.3-0.8,6.7,1.3,7.5,4.7
		C1173.2,282.7,1171.3,285.9,1168.1,286.8L1168.1,286.8z"/>
	<path class="st2" d="M1146,295.6c0,0,25.9-13.7,33.9-35.1c3.3-9,9.4-16.8,17.5-22c3.8-2.5,7.9-4.6,12.1-6.3"/>
	<path class="st5" d="M1214.5,218.8c-2.5,2.4-5.3,13.8-5.3,13.8s11.5-2.5,14-4.9c2.4-2.4,2.4-6.4,0-8.8
		C1220.8,216.5,1217,216.5,1214.5,218.8z"/>
	<path class="st5" d="M1193.7,224.7c-0.8,3.3,3.1,14.5,3.1,14.5s8.3-8.4,9.1-11.7c0.8-3.3-1.2-6.7-4.5-7.6c-3.3-0.8-6.7,1.2-7.6,4.5
		C1193.7,224.5,1193.7,224.6,1193.7,224.7L1193.7,224.7z"/>
	<path class="st5" d="M1170.6,247.7c1,3.3,10,10.9,10,10.9s2.9-11.4,1.9-14.7c-1-3.3-4.4-5.2-7.7-4.3c-3.3,1-5.2,4.4-4.3,7.7
		C1170.6,247.6,1170.6,247.7,1170.6,247.7L1170.6,247.7z"/>
	<path class="st5" d="M1157.1,269.1c0.5,3.4,8,12.5,8,12.5s4.8-10.7,4.4-14.1c-0.5-3.4-3.6-5.8-7-5.3S1156.6,265.7,1157.1,269.1
		L1157.1,269.1z"/>
	<path class="st5" d="M1205.4,249c-3.4-0.1-13.2-6.6-13.2-6.6s10.2-5.9,13.6-5.9c3.4,0.2,6.1,3.1,6,6.5
		C1211.6,246.4,1208.8,249.1,1205.4,249z"/>
	<path class="st5" d="M1189.3,273.8c-3.3-1.1-10.7-10.3-10.7-10.3s11.5-2.6,14.7-1.5c3.2,1.2,4.9,4.8,3.7,8
		C1195.9,273.1,1192.4,274.8,1189.3,273.8L1189.3,273.8z"/>
	<path class="st5" d="M1170.3,295.7c-3.4-0.6-12.2-8.3-12.2-8.3s10.9-4.5,14.3-4c3.4,0.6,5.6,3.8,5,7.3
		C1176.7,294,1173.6,296.2,1170.3,295.7z"/>
</g>
<polygon class="st6" points="1148.2,297.5 1145.5,297.5 1125.2,192.8 1122.6,297.5 1119.6,297.5 1116.3,193 1096.5,297.5 
	1093.4,297.5 1106.9,189.9 1107.3,186.4 1133.7,183.4 1134.5,189.9 "/>
<rect x="1075.4" y="162.4" class="st7" width="16.8" height="10.4"/>
<path class="st8" d="M1172.8,157.9l10.1-4.1h2.2c0.7,0,1.2,0.6,1.2,1.2v28.6c0,0.7-0.6,1.2-1.2,1.2h-2.2l-10.1-4.2V157.9z"/>
<rect x="1152.1" y="159.1" class="st9" width="20.7" height="20.1"/>
<rect x="1116" y="121.4" class="st10" width="13.4" height="2.4"/>
<rect x="1100.8" y="124.5" class="st11" width="37.6" height="27.5"/>
<rect x="1100.8" y="148.8" class="st12" width="37.6" height="3.3"/>
<rect x="1151.7" y="159.1" class="st12" width="0.8" height="20.1"/>
<rect x="1086.5" y="162.4" class="st12" width="5.7" height="10.4"/>
<polygon class="st12" points="1134.5,189.9 1106.9,189.9 1107.3,186.4 1133.7,183.4 "/>
<path class="st8" d="M1090.4,149.3h58.3c1.8,0,3.3,1.5,3.3,3.3V186c0,1.8-1.5,3.3-3.3,3.3h-58.3c-1.8,0-3.3-1.5-3.3-3.3v-33.4
	C1087,150.8,1088.5,149.3,1090.4,149.3z"/>
<path class="st10" d="M1172.6,157.9h0.2l0,0v22.7l0,0h-0.2c-0.9,0-1.6-0.7-1.6-1.6l0,0v-19.5C1171,158.6,1171.7,157.9,1172.6,157.9z
	"/>
<path class="st13" d="M1183,153.8h2.1c0.8,0,1.3,0.6,1.3,1.3v28.3c0,0.8-0.6,1.3-1.3,1.3h-2.1l0,0V153.8L1183,153.8z"/>
<rect x="1075.4" y="162.4" class="st12" width="3" height="10.4"/>
<path class="st14" d="M1074.3,159.1h1.3c1.3,0,2.3,1,2.3,2.3v13.2c0,1.3-1,2.3-2.3,2.3h-1.3c-1.3,0-2.3-1-2.3-2.3v-13.2
	C1072.1,160.2,1073.1,159.1,1074.3,159.1z"/>
<circle class="st15" cx="1100.8" cy="124.5" r="18.7"/>
<circle class="st16" cx="1100.8" cy="124.5" r="14"/>
<circle class="st15" cx="1135.5" cy="124.9" r="13.7"/>
<circle class="st16" cx="1135.5" cy="124.9" r="10.3"/>
<circle class="st3" cx="1134.5" cy="155.2" r="1.8"/>
<circle class="st17" cx="1140.2" cy="155.2" r="1.8"/>
<linearGradient id="SVGID_2_" gradientUnits="userSpaceOnUse" x1="1084.595" y1="264.043" x2="1084.595" y2="465.6092" gradientTransform="matrix(1 0 0 -1 -24.78 563.78)">
	<stop  offset="0" style="stop-color:#808080;stop-opacity:0.25"/>
	<stop  offset="0.54" style="stop-color:#808080;stop-opacity:0.12"/>
	<stop  offset="1" style="stop-color:#808080;stop-opacity:0.1"/>
</linearGradient>
<path class="st18" d="M1117.6,161.4l-0.1-0.3c0.8,0.3,1.6,0.6,2.3,1c-0.3-2.7-10.7-10.4-12.6-10.4c-1.9,0-4-3.3-4-3.3
	s-5.4-0.8-6.3-1.7c-0.8-0.9-6.5-0.4-7.8-0.1c-1.3,0.3-3.4-0.8-3.4-0.8s-1.2-1.9-2.6-1.9s-3-2.1-3-2.1s-1.3-1.3-2.6-1.5
	c-1.3-0.2-2.8-1.6-3.5-2.6c-0.7-1.1-4.4-1.6-6.5-1.3s-7.7-0.4-7.7-0.4c2.3-1,2.8-3.6,2.8-3.6c-2.1-0.1-7.4-4.6-7.4-4.6
	s0.2,1.5,0.5,3.5l-0.3-0.4l0,0c-0.1-1.5-0.1-2.9,0-4.4c0-0.1,0-0.2,0-0.3c2.7-2.4,3.9-6.1,3.1-9.6c-0.1-0.3-0.1-0.5-0.2-0.7
	c0.4,0.2,0.8,0.3,1.3,0.3h0.2c0.5,0,1-0.2,1.4-0.6l0,0c0.1-0.1,0.1-0.2,0.2-0.3c0,0,0,0,0-0.1c0-0.1,0.1-0.2,0.1-0.3
	c0,0,0-0.1,0-0.1c0-0.1,0-0.1,0-0.2s0-0.1,0-0.2c0,0,0-0.1,0-0.1c0-0.5-0.1-1-0.3-1.4c-0.3-0.8-0.8-1.6-0.8-2.5c0-0.1,0-0.1,0-0.2
	c0.1-0.7,0.4-1.3,0.7-2v0.1c0-0.1,0.1-0.2,0.1-0.3c0,0,0-0.1,0-0.1c0-0.1,0-0.2,0-0.3v0c0.1-1.3-1-2.4-2.2-3
	c-1.1-0.5-2.3-0.6-3.3-1.3c-1.1-0.8-1.7-2-2.6-3.1c-1.2-1.5-3.1-2.7-5-2.5c-1.2,0.1-2.3,0.8-3.4,1c-1.8,0.4-3.7-0.2-5.5,0.3
	c-0.4,0.1-0.8,0.3-1.1,0.6c-0.1,0.2-0.2,0.4-0.2,0.6l0,0c0,0.2,0,0.4,0,0.6v0c0,0.2,0.1,0.3,0.1,0.5l0,0.1c0,0,0,0.1,0,0.1
	c0,0.1,0,0.2,0.1,0.2c0,0.1,0.1,0.3,0.1,0.4v0c0,0.1,0.1,0.3,0.1,0.4l0,0c0.1,0.3,0.1,0.5,0.1,0.8l0,0c0.1,0.8-0.1,1.6-0.5,2.2
	c-0.8,1.3-2.4,1.8-3.2,3.1c-0.2,0.3-0.3,0.7-0.3,1l0,0c0,0.1,0,0.3,0,0.3v0.1c0,0.1,0,0.2,0,0.3c0,0,0,0.1,0,0.1
	c0,0.1,0,0.2,0.1,0.3c0,0,0,0.1,0,0.1c0,0.1,0.1,0.2,0.1,0.3l0,0c0.3,0.7,1,1.3,1.1,2l0,0c0,0,0,0,0,0.1c0.1,0.6-0.2,1.1-0.3,1.7
	c0,0.1,0,0.1,0,0.2l0,0c0,0,0,0,0,0.1c0,0,0,0.1,0,0.2s0,0.1,0,0.1s0,0.1,0,0.1c0,0,0,0.1,0,0.1s0,0.1,0,0.1c0,0,0,0.1,0,0.1
	c0,0,0,0.1,0,0.1l0,0.1c0,0,0,0.1,0.1,0.1l0,0.1c0,0,0.1,0.1,0.1,0.1c0,0,0,0,0,0.1c0,0.1,0.1,0.1,0.2,0.1c0.4,0.3,1.1,0.2,1.5,0.6
	c0,0.1,0.1,0.1,0.1,0.2l0,0c0,0.1,0,0.1,0.1,0.2l0,0c0.1,0.3,0.1,0.5,0,0.7c-0.1,0.6-0.4,1.2-0.5,1.8c0,0.1,0,0.3-0.1,0.4l0,0
	c0,0.1,0,0.1,0,0.2v0c0,0.1,0,0.1,0,0.2c0,0,0,0,0,0c0,0.1,0,0.2,0,0.3c0,0.1,0,0.1,0,0.1l0,0.1c0,0,0,0.1,0,0.1l0,0.1
	c0,0,0,0.1,0.1,0.1c0,0,0,0,0,0.1c0,0.1,0.1,0.1,0.1,0.2c0.4,0.5,1,0.7,1.7,0.7c0.4,0,0.8,0,1.1-0.1c0.1,0.2,0.2,0.4,0.3,0.6
	c0.4,0.9,1,1.8,1.8,2.5c0,0.1,0,0.2,0,0.3c-0.1,0.7-0.2,1.5-0.3,2.3c-0.8-0.4-1.4-0.5-1.7-0.3c-1.1,1.2,0,5.1,0,5.1s-5.1,0-6.4,1.2
	c-1.3,1.2-3.5,0-3.5,0s-4.7,0.5-4.4,1.5s-2.5,0-2.5,0s-2,0.2-1.9,1.6c0.1,1.3-3,2-2.6,2.9c0.4,0.9-1.9,1.6-1.9,1.6s-2.3-0.1-1.5,1.3
	l0,0c0,0-1.3,2.9-2.3,3.1s-2.4,2.6-2.4,2.6s-4,0.7-3.8,2c0.2,1.3-6.2,10.2-6.2,10.2s-2.1,4.3-0.6,7.4c1.5,3.1,2.5,5.2,2.8,6.4
	c0.3,1.2,4.1,6.2,4.1,7.1c0,0.3,0.9,1.9,2.2,3.9l-0.4,0.4l-0.8,0.8c0,0-2.6,6.5,0.5,6.8c2.7,0.3,4.5,0.5,5.5,0.2
	c0.2,0,0.3-0.1,0.4-0.2l0,0c1.1,1.7,1.9,2.8,1.9,2.8s0.1-0.2,0.3-0.4l0.3,0.4c0,0,0.3-0.3,0.7-0.9c-0.1,2.8-0.2,5.6-0.2,5.6
	s1.3-0.2,0.7,6.1c-0.6,6.3,3.8,11.4,3.8,11.4v9.3l0,0c0,0,0,0.3,0,0.6c0.1,1.3,0.5,4.5,1.6,6.6c1.5,2.7,0,9.8,0,9.8s-0.1,5.8,0.3,13
	c0,0.2,0,0.4,0,0.6c-6.3,5.3-13.1,12.3-13.1,12.3c0.3,0.1,0.7,0.3,0.9,0.4l-0.4,0.5l-1.7,2.1l0,0l-1.3,1.7l0,0l2.1,6.5l2.3-0.9
	c0,0,1.3,2.2,1,3.6c0,0.3-0.2,0.5-0.3,0.7c-0.1,0.1-0.1,0.2-0.2,0.4c-0.6,2.3,1.9,12.5,5.9,13c0,0,1.3,0.4,1.8-0.8
	c0.2-0.6,0.2-1.6-0.3-3.2c0,0-2.1-2.5-0.8-5.3c0.8-1.6,2.1-3.8,3.1-5.3l0.4-0.6c0.9,1.1,1.4,1.8,1.4,1.8l3.1-3.3
	c0.1,0.1,0.1,0.3,0.2,0.4c0.2,0.5,0.5,0.9,0.8,1.3l2.1,8.3l0.8-0.2c0,0.2,0,0.4,0,0.6c-0.1,1.5,0,3.4,0.7,4.8
	c0.5,1.1,1.4,1.8,2.8,1.8c4.8-0.1,6.3-2.8,6.3-2.8v-6.6l1.7-0.4c0,0-0.1-14.4-0.6-22.5c0-0.2,0-0.3,0-0.5c0,0,0-0.1,0-0.1l10.7-11.5
	l0.8-0.3c6.9-2.7,7-9.7,7-9.7s0-3.9,0.8-7.1c0.8-3.2,0.1-20.1-1.5-24.2c-1.6-4.2-2.1-8.9-2.1-8.9s1.6-2.2,0-4
	c-0.4-0.5-0.8-1.2-1.1-1.8l2-0.3l1.2-0.2l0.6-0.1c-0.3,2.8-0.4,4.9,0.4,5.4c2.3,1.6,10-3.7,10-3.7c-2.8,0-4.4-21-3.8-21.5
	c0.6-0.5,1.4-11,0.7-12.9s2.6-10.3,2.6-10.3l0.5-0.8l0,0c0,0,12.3,5.4,13.7,6.4c1.4,1,5.6-2.5,6.4-1.1s5.3,3.4,5.3,3.4
	s6.8-0.7,7.5,1c0.7,1.7,5.1,5.6,5.1,5.6c0-0.9,0.1-1.8,0.2-2.8c0.1,0.2,0.2,0.4,0.3,0.7c2.1,4.9,5.5,11.1,8.7,7.8
	C1122.1,172,1119.3,165,1117.6,161.4z M1024.8,183.6L1024.8,183.6L1024.8,183.6L1024.8,183.6z M1022.4,159.5l-1.3,14l-2.6,2.7
	l-0.3,0.3l-2.7-2.9c0,0-1.3-0.6,0-1.8c1.3-1.2-2.3-3.8-2.3-3.8s-0.1-1.9,1.3-2.4c1.3-0.5,3.1-4,3.1-4l4.9-2.5l0,0l0,0L1022.4,159.5z
	 M1039.8,231.1c0.1-0.1,0.2-0.2,0.3-0.2c0.6-0.3,1,0,1.2,0.7c0.3,1.1,0.2,2.2-0.2,3.2c-0.7,1.7,1,8.4,1,8.4s-2.3,1-2.7,3
	c-0.1,0.3-0.2,0.5-0.3,0.7c0-0.2-0.1-0.3-0.1-0.5c-0.2-1.3-0.3-2.1-0.3-2.1c-0.4-1.6-0.4-3.3-0.2-4.9c0.3-2,1-6.1,1.3-7.6
	C1039.8,231.3,1039.8,231.1,1039.8,231.1L1039.8,231.1z"/>
<path class="st19" d="M1054.4,129.3l0.7-0.4l1.9,4l-0.7,0.9h-2.2c0,0,0.1-2.2,0.1-2.3C1054.2,131.4,1054.4,129.3,1054.4,129.3z"/>
<path class="st20" d="M1041.3,288.6v8.6c0,0-1.4,2.6-6.3,2.8c-1.2,0.1-2.3-0.6-2.8-1.8c-0.7-1.4-0.8-3.3-0.7-4.8
	c0-0.8,0.1-1.5,0.3-2.2L1041.3,288.6z"/>
<path class="st12" d="M1041.3,288.6v2.7l-9.7,2.2c0-0.8,0.1-1.5,0.3-2.2L1041.3,288.6z"/>
<path class="st21" d="M1043,290.3l-12.2,2.7l-2.1-8.2c-0.3-0.4-0.6-0.8-0.8-1.3c-0.1-0.3-0.3-0.5-0.4-0.8
	c-2.3-5.2-3.3-14.6-3.7-22.6c0-0.4,0-0.8-0.1-1.2c-0.3-7.2-0.3-13-0.3-13s1.5-7.1,0-9.8c-1.1-2.1-1.5-5.2-1.6-6.6c0-0.4,0-0.6,0-0.6
	l0.2-0.6l0.9-2.4h10.1l5.9,5l0.9,0.8l-0.1,0.6c-0.3,1.5-0.9,5.6-1.3,7.6c-0.3,1.6-0.2,3.3,0.2,4.9c0,0,0.1,0.8,0.3,2.1
	c0,0.3,0.1,0.7,0.2,1c0.8,4.6,2.2,13.1,2.8,15.1c0.2,0.6,0.3,1.9,0.4,3.8c0,0.4,0,0.8,0.1,1.2C1042.8,275.9,1043,290.3,1043,290.3z"
	/>
<path class="st12" d="M1041.3,297.1L1041.3,297.1c0,0.1-1.4,2.7-6.3,2.8c-1.2,0.1-2.3-0.6-2.8-1.8
	C1034.4,298.7,1037.9,299.1,1041.3,297.1z"/>
<path class="st22" d="M1118.5,176.4c-3.2,3.3-6.7-2.9-8.7-7.8c-1.2-2.8-1.9-5.1-1.9-5.1l8.6-3.6c0,0,0.5,0.8,1.2,2.2
	C1119.3,165.6,1122.1,172.6,1118.5,176.4z"/>
<path class="st22" d="M1055.1,127.5c-0.1,3.1,0.1,6.2,0.7,9.2c0,0-17.4,1.9-15.9-0.8c0.9-1.6,1.5-5.8,1.8-9c0.3-2.3,0.3-4,0.3-4
	s16.7-6.7,14.2-1.1C1055.5,123.5,1055.2,125.5,1055.1,127.5z"/>
<polygon class="st23" points="1056.5,172.3 1054.2,200.3 1065,198.5 1063.1,175.5 1063.7,169.3 "/>
<path class="st20" d="M1019.8,290.4c-1.4,2.8,0.8,5.3,0.8,5.3c0.5,1.6,0.5,2.6,0.3,3.1c-0.4,1.2-1.8,0.8-1.8,0.8
	c-4.3-0.5-6.9-12-5.8-13.3s-0.7-4.3-0.7-4.3l-2.3,0.9l-2.1-6.5l1.3-1.6l1.7-2.1l1.2-1.4l11.6,12.2c0,0-0.5,0.8-1.2,1.8
	C1021.9,286.7,1020.5,288.8,1019.8,290.4z"/>
<path class="st12" d="M1042.4,267.9l-14.5,15.6c-2.5-5-3.6-15-4.1-23.4c2.7-2.3,5.3-4.2,7.3-5.1c0,0,6.7-4.8,8.1-7.2
	c0.8,4.6,2.2,13.1,2.8,15.1C1042.1,263.5,1042.3,265.4,1042.4,267.9z"/>
<polygon class="st12" points="1038.9,230.8 1022,228.3 1022.9,225.8 1033.1,225.8 "/>
<path class="st12" d="M1042.3,266.7l-14.9,15.9c-2.3-5.2-3.3-14.6-3.7-22.6c0-0.4,0-0.8-0.1-1.2c2.7-2.3,5.4-4.2,7.4-5.2
	c0,0,6.3-4.5,7.9-6.9c0,0.3,0.1,0.7,0.2,1c0.8,4.6,2.2,13.1,2.8,15.1C1042.1,263.4,1042.2,264.8,1042.3,266.7z"/>
<path class="st12" d="M1024,283.3c0,0-0.5,0.8-1.2,1.8c-2.5-3.1-8.4-10.4-11.6-12.5l1.2-1.4L1024,283.3z"/>
<path class="st24" d="M1061.7,238.7c-0.8,3.2-0.8,7.1-0.8,7.1s-0.1,7-7,9.7l-0.8,0.3l-28.5,30.5c0,0-10.5-13.8-14-14.6
	c0,0,13.9-14.3,20.4-17.4c0,0,7.9-5.7,8.4-7.7c0.4-2,2.7-3,2.7-3s-1.8-6.7-1-8.4c0.4-1,0.5-2.1,0.2-3.2c-0.2-0.6-0.6-1-1.2-0.7
	c-0.1,0.1-0.2,0.1-0.3,0.2l-18.1-2.7v-9.3c0,0-4.4-5.1-3.8-11.4c0.6-6.3-0.7-6-0.7-6s0.1-10.6,1-11.5c0.9-0.9,9.4-4.9,9.4-4.9
	l26.8,4.8l1.1,5.1c0,0,0.9,4.1,2.5,5.9c1.6,1.8,0,4,0,4s0.5,4.7,2.1,8.9C1061.9,218.7,1062.6,235.4,1061.7,238.7z"/>
<path class="st12" d="M1056.3,121.9c-0.8,1.7-1.1,3.7-1.2,5.7c-3.9,3.4-9.7,3.1-13.3-0.6c0.3-2.3,0.3-4,0.3-4
	S1058.8,116.2,1056.3,121.9z"/>
<path class="st22" d="M1058.4,119.9c0,5.3-4.3,9.7-9.7,9.7s-9.7-4.3-9.7-9.7c0-5.3,4.3-9.7,9.7-9.7c4.5,0,8.4,3.1,9.4,7.4
	C1058.4,118.4,1058.5,119.1,1058.4,119.9z"/>
<path class="st12" d="M1050.6,136.8c0,0-7-3.2-7.4-3.7s-14.9,36.7-14.9,36.7l-4.1,18.5c0,0,21.7,9.3,26.4,8s5.1,0,5.1,0
	s4.8-26.9,6.4-29.3s-1.5-26.8-1.5-26.8l-5.4-7.1L1050.6,136.8z"/>
<path class="st12" d="M1050.6,135.5c0,0-7-3.2-7.4-3.7s-14.9,36.7-14.9,36.7l-4.1,18.5c0,0,21.7,9.3,26.4,8s5.1,0,5.1,0
	s4.8-26.9,6.4-29.3s-1.5-26.8-1.5-26.8l-5.4-7.1L1050.6,135.5z"/>
<path class="st25" d="M1062.1,166.4c-0.3,0.5-0.8,2-1.3,4.2c-0.4,1.5-0.8,3.3-1.2,5.2c-1.8,8.6-3.9,20-3.9,20s-0.1-0.4-1-0.5
	c-0.7-0.1-2,0-4.1,0.5c-4.7,1.3-26.4-8-26.4-8l0.6-2.8l3.4-15.6c0,0,14.5-37.1,14.9-36.7c0.3,0.3,3,1.6,5,2.5
	c1.3,0.6,2.4,1.1,2.4,1.1l4.4-3.5l0.3-0.2l5.4,7.1C1060.6,139.6,1063.6,164,1062.1,166.4z"/>
<path class="st12" d="M1045.5,139.8c0.6,2.4-0.8,6.4-0.8,6.4s-5,12.3-6.5,18c-1.5,5.7-9.8,17.1-9.8,17.1s-1.2,1.2-2.9,2.9
	c-0.2,0.2-0.4,0.4-0.6,0.6l3.4-15.6c0,0,14.5-37.1,14.9-36.7c0.3,0.3,3,1.6,5,2.5C1046.9,136.2,1045,138.2,1045.5,139.8z"/>
<path class="st26" d="M1044.8,139.8c0.6,2.4-0.8,6.4-0.8,6.4s-5,12.3-6.5,18s-9.8,17.1-9.8,17.1s-1.2,1.2-2.9,2.9
	c-0.2,0.2-0.4,0.4-0.6,0.6c-3.3,3.3-8.1,8-9.5,9.4c-0.2,0.2-0.4,0.3-0.4,0.4c-0.1,0.1-0.3,0.2-0.4,0.2c-1,0.3-2.8,0.1-5.5-0.2
	c-3.1-0.3-0.5-6.8-0.5-6.8l0.8-0.8l0.8-0.8l8.5-8.8l0.6-0.7l2.6-2.7l1.3-14l0-0.3c0,0-0.4-0.9-1-2.2c-1.6-3.7-4.7-10.7-5.9-13
	c-0.1-0.3-0.3-0.5-0.3-0.6c0,0,0,0,0,0c-0.8-1.3,1.5-1.3,1.5-1.3s2.3-0.6,1.9-1.6s2.7-1.6,2.6-2.9c-0.1-1.3,1.9-1.6,1.9-1.6
	s2.8,0.9,2.5,0s4.4-1.5,4.4-1.5s2.3,1.2,3.5,0c1.3-1.2,6.4-1.2,6.4-1.2s-1.1-4,0-5.1c1.1-1.1,8.9,5.1,8.9,5.1
	S1044.2,137.4,1044.8,139.8z"/>
<path class="st12" d="M1018.8,193.2c0,0,8.7,12.2,14.7,8.2c6-4-8.1-14.3-8.1-14.3L1018.8,193.2z"/>
<path class="st22" d="M1018.8,192.6c0,0,8.7,12.2,14.7,8.2c6-4-8.1-14.3-8.1-14.3L1018.8,192.6z"/>
<path class="st12" d="M1060.3,199.3c0.7-5.8,2.6-14.4,1-17.1c-0.8-1.3-1.3-3.8-1.8-6.5c-0.2-1.5-0.4-3-0.6-4.4
	c-0.4-3.8-0.5-7.2-0.5-7.2s-3.8-16.7-3-20.2c0.5-2.2-0.1-7.5-0.5-11.3l0.3-0.2l5.4,7.1c0,0,3,24.4,1.5,26.8c-0.3,0.5-0.8,2-1.3,4.2
	l3-1.3l-0.6,6.2l1.9,23.1L1060.3,199.3z"/>
<path class="st26" d="M1055,128.8c0,0,5.4,4.5,7.4,4.6c0,0-0.6,2.5-2.8,3.5c0,0,5.6,0.8,7.7,0.4c2.1-0.3,5.7,0.2,6.5,1.3
	c0.8,1.1,2.3,2.4,3.6,2.6c1.3,0.2,2.6,1.5,2.6,1.5l-9.2,13.5c0,0-3.3,8.4-2.6,10.2s-0.1,12.4-0.7,12.9c-0.6,0.5,1,21.5,3.8,21.5
	c0,0-7.7,5.2-10,3.7s2.9-18.5,0.6-22.3c-2.3-3.8-2.8-18.1-2.8-18.1s-3.8-16.7-3-20.2C1056.8,140.6,1055,128.8,1055,128.8z"/>
<path class="st12" d="M1117.6,162.1c-2.8-0.9-7.1-0.9-7.9,6.6c-1.2-2.8-1.9-5.1-1.9-5.1l8.6-3.6
	C1116.4,159.9,1116.9,160.7,1117.6,162.1z"/>
<path class="st26" d="M1074.9,142.1l5.1,0.6c0,0,1.6,2.1,3,2.1c1.5,0,2.6,1.9,2.6,1.9s2.1,1.2,3.4,0.8c1.3-0.3,7-0.8,7.8,0.1
	c0.8,0.9,6.3,1.7,6.3,1.7s2.1,3.2,4,3.2c1.9,0,12.3,7.6,12.6,10.3c0,0-10.3-6.6-10.4,7.9c0,0-4.4-3.9-5.1-5.6c-0.7-1.7-7.5-1-7.5-1
	s-4.6-2-5.3-3.4c-0.7-1.3-5,2.2-6.4,1.1c-1.3-1-13.7-6.4-13.7-6.4l-3.8-7.2L1074.9,142.1z"/>
<circle class="st27" cx="1051.3" cy="153.9" r="0.9"/>
<circle class="st27" cx="1050.4" cy="172.4" r="0.9"/>
<circle class="st27" cx="1051.3" cy="162.6" r="0.9"/>
<circle class="st27" cx="1048.8" cy="182.1" r="0.9"/>
<path class="st12" d="M1058.2,117.6c-0.2-0.1-0.4-0.2-0.6-0.3c-0.7-0.3-1.5-0.6-1.9-1.3c-0.4-0.6-0.5-1.4-1.2-1.7
	c-0.7-0.4-1.6,0.1-2.3,0.3c-0.9,0.2-1.9,0-2.8-0.4c-1.3-0.5-3.2-1.4-4.6-0.5c-1.1,0.7-0.7,2.3-0.9,3.4c-0.4,1.7-2.2,2.8-2.6,4.5
	c-0.2,0.8-0.1,1.7-0.7,2.2c-0.2,0.1-0.4,0.2-0.6,0.3c-2.4-4.8-0.4-10.6,4.4-13c4.8-2.4,10.6-0.4,13,4.4
	C1057.8,116.2,1058,116.9,1058.2,117.6L1058.2,117.6z"/>
<path class="st28" d="M1049.4,113.7c0.9,0.3,1.8,0.6,2.8,0.4c0.8-0.2,1.6-0.7,2.3-0.3c0.6,0.3,0.8,1.2,1.2,1.7
	c0.4,0.6,1.2,1,1.9,1.3c0.5,0.3,1.1,0.4,1.7,0.5c0.6,0.1,1.2-0.2,1.6-0.6c0.6-0.7,0.4-1.7,0.1-2.5s-0.8-1.6-0.8-2.5
	c0-1,0.8-1.9,0.8-3c0.1-1.3-1-2.4-2.2-3c-1.1-0.5-2.3-0.6-3.3-1.3c-1.1-0.7-1.7-2-2.6-3.1c-1.2-1.5-3.1-2.7-5-2.4
	c-1.2,0.1-2.3,0.8-3.4,1c-1.8,0.4-3.7-0.2-5.5,0.3c-0.4,0.1-0.8,0.3-1.1,0.6c-0.4,0.6-0.2,1.4,0,2.1c0.3,1.3,0.5,2.7-0.2,3.8
	c-0.8,1.3-2.4,1.8-3.2,3.1c-0.4,0.8-0.4,1.7-0.1,2.5c0.3,0.7,1,1.3,1.1,2.1c0.1,0.6-0.2,1.1-0.3,1.7c-0.1,0.6-0.1,1.3,0.4,1.6
	c0.5,0.3,1.1,0.3,1.5,0.6c0.2,0.3,0.3,0.7,0.2,1.1c-0.1,0.6-0.4,1.2-0.5,1.8c-0.2,0.6-0.1,1.3,0.3,1.8c0.6,0.8,1.8,0.8,2.8,0.6
	c0.3,0,0.6-0.2,0.8-0.3c0.6-0.5,0.5-1.4,0.7-2.2c0.3-1.7,2.2-2.8,2.6-4.5c0.3-1.1-0.2-2.6,0.9-3.4
	C1046.2,112.3,1048,113.2,1049.4,113.7z"/>
<path class="st12" d="M1047.8,226.9c0,0,9.8,6.3,10.1,8.7L1047.8,226.9z"/>
<path class="st12" d="M1047.3,231.9c0,0,11.3,5.4,10.6,7.3L1047.3,231.9z"/>
<path class="st12" d="M1046.6,236.7c0,0,6.4,3.3,6.8,5.3L1046.6,236.7z"/>
<path class="st12" d="M1049.3,244.2c0,0,4.2,3.7,5,2.7C1055.2,246,1049.3,244.2,1049.3,244.2z"/>
<path class="st12" d="M1043.5,246.5c0,0,3.3,5.2,1.7,5.5S1043.5,246.5,1043.5,246.5z"/>
<path class="st12" d="M1029.2,153.9c0,0-5.5,3.3-3.8,4.2C1027,158.9,1029.2,153.9,1029.2,153.9z"/>
<path class="st12" d="M1029.2,141.6c0,0-5.6,10.3-3,9.6C1028.8,150.4,1029.2,141.6,1029.2,141.6z"/>
<path class="st12" d="M1089.1,151.9c0,0-3.4,4-2.8,6.3L1089.1,151.9z"/>
<path class="st12" d="M1098,153.9c0,0-5.2,4.6-4.4,5.1L1098,153.9z"/>
<path class="st12" d="M1101.3,159.5c0,0-0.5,3,0.3,3.1L1101.3,159.5z"/>
<path class="st29" d="M1044.9,223.2c-1.3,1.7-1.3,4.8-1.9,6c-0.3,0.7-1.1,1.9-1.7,2.8c-0.2-0.6-0.6-1-1.2-0.7
	c-0.4-2.9-1.1-7.8-1.3-8.8c-0.3-1.4,3.1-5.2,3.1-5.2s3.4,0.7,4.2,2.4C1047,221.6,1046.2,221.4,1044.9,223.2z"/>
<path class="st12" d="M1027.5,186.9c-3.8,0.5-10.7,10.5-10.7,10.5s-0.9-1.3-2.2-3.2c-1.6-2.3-3.8-5.6-5.3-8l9.2-9.4l1.7,1.8
	c0,0,3.2,3.2,3.2,3.8c0,0.3,0.6,1,1.4,1.8C1026,185.5,1027.5,186.9,1027.5,186.9z"/>
<path class="st12" d="M1015.6,144.6c-0.1-0.3-0.3-0.5-0.3-0.6l4,0.3l2.2,13.3C1019.8,153.9,1016.7,146.9,1015.6,144.6z"/>
<path class="st12" d="M1024.1,184.9c-3.3,3.3-8.1,8-9.5,9.4c-0.2,0.2-0.4,0.3-0.4,0.4c-0.1,0.1-0.3,0.2-0.4,0.2
	c-1.5-2.2-3.6-5.3-5.2-7.8l0.8-0.8l8.5-8.8l1.1,1.1c0,0,3.2,3.2,3.2,3.8C1022.1,182.8,1023.1,183.9,1024.1,184.9z"/>
<path class="st26" d="M1019.9,144.3l-4.7-0.3c0,0-1.3,2.9-2.3,3.1c-1,0.2-2.4,2.6-2.4,2.6s-4,0.7-3.8,2s-6.2,10.2-6.2,10.2
	s-2.1,4.3-0.6,7.4s2.5,5.2,2.8,6.4c0.3,1.1,4,6.2,4,7.1c0,0.9,9.5,14.7,9.5,14.7s7-10,10.7-10.5c0,0-4.2-3.8-4.2-4.5
	s-3.2-3.8-3.2-3.8l-4.1-4.4c0,0-1.3-0.6,0-1.8s-2.3-3.8-2.3-3.8s-0.1-1.9,1.3-2.4c1.3-0.5,3.1-4,3.1-4l4.9-2.5L1019.9,144.3z"/>
<path class="st12" d="M1002,165c0,0,5.6-1.2,5.7-0.4C1007.8,165.4,1002,165,1002,165z"/>
<path class="st12" d="M1006.7,170.7c0,0,4.8,0.6,4.6,1.7S1006.7,170.7,1006.7,170.7z"/>
<path class="st12" d="M1010.6,153c0,0,4.6,6.5,5.2,5.2L1010.6,153z"/>
<g class="st30">
	<path d="M1038.2,104.6c0-0.8-0.1-1.5-0.3-2.3c-0.1-0.3-0.2-0.6-0.2-0.9c0,0.5,0,1.1,0.2,1.6C1038.1,103.5,1038.2,104,1038.2,104.6z
		"/>
	<path d="M1060.1,111.5c0.1-0.9,0.8-1.8,0.8-2.8c0-0.2,0-0.3,0-0.5c-0.1,1-0.8,1.8-0.8,2.8C1060.1,111.2,1060.1,111.3,1060.1,111.5z
		"/>
	<path d="M1060.8,116c-0.4,0.4-1,0.7-1.6,0.6c-0.6-0.1-1.2-0.2-1.7-0.5c-0.7-0.3-1.5-0.6-1.9-1.3c-0.4-0.6-0.5-1.4-1.2-1.7
		c-0.7-0.4-1.6,0.1-2.3,0.3c-0.9,0.2-1.9,0-2.8-0.4c-1.3-0.5-3.2-1.4-4.6-0.5c-1.1,0.7-0.7,2.3-0.9,3.4c-0.4,1.7-2.2,2.8-2.6,4.5
		c-0.2,0.8-0.1,1.7-0.7,2.2c-0.3,0.2-0.5,0.3-0.8,0.3c-1,0.2-2.2,0.3-2.8-0.6c-0.2-0.2-0.3-0.5-0.3-0.8c-0.1,0.5,0,1,0.3,1.4
		c0.6,0.8,1.8,0.8,2.8,0.6c0.3,0,0.6-0.2,0.8-0.3c0.6-0.5,0.5-1.4,0.7-2.2c0.3-1.7,2.2-2.8,2.6-4.5c0.3-1.1-0.2-2.6,0.9-3.4
		c1.4-0.9,3.2,0,4.6,0.5c0.9,0.3,1.8,0.6,2.8,0.4c0.8-0.2,1.6-0.7,2.3-0.3c0.6,0.3,0.8,1.2,1.2,1.7c0.4,0.6,1.2,1,1.9,1.3
		c0.5,0.3,1.1,0.4,1.7,0.5c0.6,0.1,1.2-0.2,1.6-0.6c0.3-0.4,0.4-0.9,0.3-1.4C1061.1,115.5,1061,115.7,1060.8,116z"/>
	<path d="M1035.6,113.8c-0.1-0.8-0.8-1.4-1.1-2.1c-0.1-0.3-0.2-0.6-0.3-0.9c-0.1,0.5,0,1,0.3,1.5c0.3,0.7,1,1.3,1.1,2
		C1035.6,114.2,1035.6,114,1035.6,113.8z"/>
	<path d="M1037.3,118.8c0.1-0.3,0-0.7-0.2-1c-0.3-0.4-1-0.3-1.5-0.6c-0.2-0.2-0.4-0.4-0.4-0.8c-0.1,0.5,0,1.1,0.4,1.4
		s1.1,0.3,1.5,0.6C1037.2,118.5,1037.3,118.6,1037.3,118.8z"/>
</g>
<path class="st31" d="M963.1,280.8c0,0-13-0.8-11.4,8.3c0,0-0.3,1.6,1.2,2.3c0,0,0-0.7,1.3-0.4c0.5,0.1,0.9,0.1,1.4,0.1
	c0.6,0,1.3-0.3,1.7-0.7l0,0c0,0,3.6-1.5,5-7.4c0,0,1-1.3,1-1.6l-2.2,0.9c0,0,0.8,1.6,0.2,2.9c0,0-0.1-2.8-0.5-2.8
	c-0.1,0-1.1,0.6-1.1,0.6s1.3,2.8,0.3,4.8c0,0,0.4-3.4-0.7-4.5l-1.5,0.9c0,0,1.5,2.8,0.5,5.2c0,0,0.3-3.5-0.8-4.9l-1.4,1.1
	c0,0,1.4,2.8,0.6,4.7c0,0-0.1-4.1-0.8-4.4c0,0-1.2,1.1-1.4,1.5c0,0,1,2,0.4,3.1c0,0-0.4-2.8-0.7-2.8c0,0-1.2,1.8-1.3,3.1
	c0,0,0.1-1.8,1-3.3c-0.7,0.1-1.3,0.5-1.8,1c0,0,0.2-1.3,2.2-1.4c0,0,1-1.4,1.3-1.5c0,0-2-0.2-3.2,0.4c0,0,1-1.2,3.5-0.7l1.4-1.1
	c0,0-2.6-0.3-3.7,0c0,0,1.3-1.1,4-0.3l1.5-0.9c0,0-2.2-0.5-3.5-0.3c0,0,1.4-0.8,3.9,0.1l1.1-0.5c0,0-1.6-0.3-2.1-0.4
	c-0.5-0.1-0.5-0.2-0.5-0.2c1-0.2,2.1-0.1,3,0.3C960.8,281.8,963.1,280.9,963.1,280.8z"/>
<ellipse class="st32" cx="954.2" cy="292.2" rx="9.2" ry="1.6"/>
</svg>
