<?xml version="1.0" encoding="utf-8"?>
<!-- Generator: Adobe Illustrator 22.0.1, SVG Export Plug-In . SVG Version: 6.00 Build 0)  -->
<svg version="1.1" id="Layer_1" xmlns="http://www.w3.org/2000/svg" xmlns:xlink="http://www.w3.org/1999/xlink" x="0px" y="0px"
	 viewBox="0 0 1300 400" style="enable-background:new 0 0 1300 400;" xml:space="preserve">
<style type="text/css">
	.st0{fill:url(#SVGID_1_);stroke:#000000;stroke-width:1.6452;stroke-miterlimit:10;}
	.st1{opacity:0.1;fill:#D2ECF9;enable-background:new    ;}
	.st2{opacity:0.1;fill:#0D8CD8;enable-background:new    ;}
	.st3{opacity:0.1;fill:#E2F0F7;enable-background:new    ;}
	.st4{opacity:0.1;fill:#A3C3D3;enable-background:new    ;}
	.st5{fill:#CED7E7;}
	.st6{opacity:0.1;enable-background:new    ;}
	.st7{fill:#E5D4A8;}
	.st8{fill:#FFA2A2;}
	.st9{opacity:5.000000e-02;enable-background:new    ;}
	.st10{fill:#63667E;}
	.st11{fill:#BAAEAE;}
	.st12{opacity:0.1;}
	.st13{fill:#F7E5B7;}
	.st14{fill:#DDCEA8;}
	.st15{fill:#9CAFB5;}
</style>
<linearGradient id="SVGID_1_" gradientUnits="userSpaceOnUse" x1="650" y1="199" x2="1950" y2="199" gradientTransform="matrix(-1 0 0 -1 1950 400)">
	<stop  offset="0" style="stop-color:#00354D"/>
	<stop  offset="0.4129" style="stop-color:#00364F"/>
	<stop  offset="0.5616" style="stop-color:#003C56"/>
	<stop  offset="0.6676" style="stop-color:#004561"/>
	<stop  offset="0.7534" style="stop-color:#005272"/>
	<stop  offset="0.8268" style="stop-color:#006388"/>
	<stop  offset="0.8918" style="stop-color:#0078A4"/>
	<stop  offset="0.9492" style="stop-color:#0091C3"/>
	<stop  offset="1" style="stop-color:#00ACE6"/>
	<stop  offset="1" style="stop-color:#0093C7"/>
	<stop  offset="1" style="stop-color:#0075A3"/>
	<stop  offset="1" style="stop-color:#005B83"/>
	<stop  offset="1" style="stop-color:#004567"/>
	<stop  offset="1" style="stop-color:#003351"/>
	<stop  offset="1" style="stop-color:#002540"/>
	<stop  offset="1" style="stop-color:#001B35"/>
	<stop  offset="1" style="stop-color:#00162E"/>
	<stop  offset="1" style="stop-color:#00142C"/>
</linearGradient>
<rect y="1" class="st0" width="1300" height="400"/>
<path class="st1" d="M1228,252.5c-6.6,13.6-20,22.7-33.9,28.7c-11.1,4.8-22.9,7.9-34.9,9.3c-2.3,0.3-4.6,0.5-6.9,0.6
	c-5.9,0.4-11.8,0.4-17.8,0c-3.5-0.2-7.1-0.6-10.6-1.1c-12.3-1.8-24.2-5.3-35.6-10.3c-3.3-1.5-6.5-3.1-9.6-4.8
	c-5.2-2.9-10.2-6.2-15-9.8c-1-0.8-2.1-1.6-3.1-2.5l-0.4-0.3c-0.8-0.7-1.6-1.3-2.4-2c-1.3-1.1-2.8-2.2-4.3-3.1
	c-0.1,0-0.2-0.1-0.3-0.2c-0.3-0.2-0.6-0.3-0.8-0.4c-0.6-0.3-1.2-0.6-1.8-0.8c-2.9-1.1-5.9-1.5-9.1-1.4c-0.5,0-1,0-1.5,0.1l0,0
	c-0.7,0-1.4,0.1-2.2,0.2l-0.3,0c-2.3,0.3-4.6,0.8-6.8,1.5c-3.4,1-6.8,2.2-10.3,3.4l0,0c-1.5,0.5-2.9,0.9-4.4,1.3l-0.3,0.1
	c-2.1,0.6-4.2,1-6.4,1.3c-4.9,0.6-9.8,0.2-14.5-1.2l-0.2,0l-0.3-0.1l-0.4-0.1c-0.7-0.2-1.4-0.4-2.1-0.7l-0.4-0.1
	c-0.7-0.2-1.3-0.5-1.9-0.8l-0.4-0.2c-0.7-0.3-1.3-0.6-1.9-1c-0.2-0.1-0.4-0.2-0.7-0.4c-0.7-0.4-1.3-0.8-2-1.2
	c-0.7-0.4-1.4-0.9-2-1.4c-0.3-0.2-0.6-0.4-0.9-0.7c-1.7-1.3-3.3-2.8-4.8-4.3c-0.1-0.1-0.1-0.2-0.2-0.2c-0.4-0.4-0.8-0.9-1.2-1.3
	c-0.1-0.2-0.3-0.3-0.4-0.5c-0.4-0.5-0.9-1.1-1.3-1.7c0-0.1-0.1-0.2-0.2-0.2c-1.7-2.3-3.1-4.9-4.2-7.6c0-0.1-0.1-0.2-0.1-0.2
	c-0.3-0.8-0.6-1.7-0.9-2.6c-0.1-0.4-0.2-0.7-0.3-1.1c0-0.1,0-0.2-0.1-0.3c-1.3-5.4-1.5-11-1.5-16.6c0-0.6,0-1.3,0-1.9
	c0-9,0.2-18.2,1.5-27.1c0,0,0-0.1,0-0.2c0.4-3,1-6,1.8-8.9c0.8-3.1,1.8-6.1,3.1-9c3.1-7.2,7.5-13.7,12.5-19.8
	c6-7.3,12.8-14,20.4-19.6c1.1-0.8,2.2-1.6,3.3-2.3l0.5-0.3c0.2-0.1,0.4-0.2,0.5-0.3l0,0c0.4-0.2,0.7-0.5,1.1-0.7l0.4-0.3l0.8-0.5
	l0.2-0.1l0.4-0.2l0.4-0.2c0.5-0.3,1-0.6,1.5-0.9c2.2-1.2,4.4-2.3,6.7-3.3c0.7-0.3,1.3-0.6,2-0.8c3.1-1.3,6.3-2.3,9.5-3.1
	c1.2-0.3,2.4-0.6,3.6-0.8c1.4-0.3,2.9-0.5,4.3-0.7c2.3-0.3,4.6-0.5,6.9-0.5c16.2-0.4,32.6,4.9,45.3,15c5.1,4,9.6,8.8,15.3,11.9
	c5,2.7,10.8,3.8,16.1,1.7c4.4-1.7,7.2-2.6,12.2-2.4c10.2,0.6,20.3,2.7,29.9,6.3c0.4,0.1,0.8,0.3,1.2,0.4c25,9.6,46.5,28.6,57.6,53
	c0.3,0.6,0.6,1.3,0.9,2C1232.9,219.1,1235.3,237.3,1228,252.5z"/>
<path class="st2" d="M1016,166.6v94.1l-0.3,0.1c-2.1,0.6-4.2,1-6.4,1.3c-4.9,0.6-9.8,0.2-14.5-1.2l-0.2,0l-0.3-0.1l-0.4-0.1
	c-0.7-0.2-1.4-0.4-2.1-0.7l-0.4-0.1c-0.7-0.2-1.3-0.5-1.9-0.8l-0.4-0.2c-0.7-0.3-1.3-0.6-1.9-1c-0.2-0.1-0.4-0.2-0.7-0.4
	c-0.7-0.4-1.3-0.8-2-1.2c-0.7-0.4-1.4-0.9-2-1.4c-0.3-0.2-0.6-0.4-0.9-0.7c-1.7-1.3-3.3-2.8-4.8-4.3c-0.1-0.1-0.1-0.2-0.2-0.2
	c-0.4-0.4-0.8-0.9-1.2-1.3c-0.1-0.2-0.3-0.3-0.4-0.5c-0.4-0.5-0.9-1.1-1.3-1.7c0-0.1-0.1-0.2-0.2-0.2c-1.7-2.3-3.1-4.9-4.2-7.6
	c0-0.1-0.1-0.2-0.1-0.2c-0.3-0.8-0.6-1.7-0.9-2.6c-0.1-0.4-0.2-0.7-0.3-1.1c0-0.1,0-0.2-0.1-0.3c-1.4-5.4-1.5-11-1.5-16.6
	c0-0.6,0-1.3,0-1.9c0-9,0.2-18.2,1.5-27.1c0,0,0-0.1,0-0.2c0.4-3,1-6,1.8-8.9H995v-12.8h5.1v-10.3h10.9v10.3H1016z"/>
<path class="st3" d="M1228,252.5c-6.6,13.6-20,22.7-33.9,28.7c-11.1,4.8-22.9,7.9-34.9,9.3c-2.3,0.3-4.6,0.5-6.9,0.6
	c-5.9,0.4-11.8,0.4-17.8,0c-3.5-0.2-7.1-0.6-10.6-1.1c-12.3-1.8-24.2-5.3-35.6-10.3c-3.3-1.5-6.5-3.1-9.6-4.8
	c-5.2-2.9-10.2-6.2-15-9.8c-1-0.8-2.1-1.6-3.1-2.5l-0.4-0.3c-0.8-0.7-1.6-1.3-2.4-2c-1.3-1.1-2.8-2.2-4.3-3.1
	c-0.1,0-0.2-0.1-0.3-0.2c-0.3-0.2-0.6-0.3-0.8-0.4c-0.6-0.3-1.2-0.6-1.8-0.8v-38.5h46.1v8.6h20.2v-62.7h23.8v25.1h11.8v-14.8h9.7
	v-15.9h4.5v-9.2c0.4,0.1,0.8,0.3,1.2,0.4v8.8h4.3v15.9h9.7v14.8h14.3v56.5h22.8v-41.1h7.3C1232.9,219.1,1235.3,237.3,1228,252.5z"/>
<rect x="1123.9" y="172.5" class="st4" width="10.6" height="10.6"/>
<rect x="1123.9" y="194.5" class="st4" width="10.6" height="10.6"/>
<rect x="1123.9" y="216.6" class="st4" width="10.6" height="10.6"/>
<rect x="1123.9" y="238.6" class="st4" width="10.6" height="10.6"/>
<rect x="1123.9" y="260.7" class="st4" width="10.6" height="10.6"/>
<path class="st4" d="M1134.6,282.7v8.4c-3.5-0.2-7.1-0.6-10.6-1.1v-7.3L1134.6,282.7L1134.6,282.7z"/>
<rect x="1054.1" y="230.9" class="st2" width="37.2" height="4.8"/>
<rect x="1054.1" y="245.5" class="st2" width="37.2" height="4.8"/>
<path class="st4" d="M1091.3,260.2v4.8h-27.5c-1-0.8-2.1-1.6-3.1-2.5l-0.4-0.3c-0.8-0.7-1.6-1.3-2.4-2H1091.3z"/>
<path class="st4" d="M1091.3,274.8v4.8h-2.9c-3.3-1.5-6.5-3.1-9.6-4.8H1091.3z"/>
<rect x="1152.3" y="201.3" class="st4" width="6.9" height="6.9"/>
<rect x="1002.4" y="169" class="st2" width="6.9" height="6.9"/>
<rect x="1002.4" y="185.1" class="st2" width="6.9" height="6.9"/>
<rect x="1002.4" y="201.2" class="st2" width="6.9" height="6.9"/>
<rect x="1002.4" y="217.3" class="st2" width="6.9" height="6.9"/>
<rect x="1002.4" y="233.3" class="st2" width="6.9" height="6.9"/>
<rect x="1002.4" y="249.4" class="st2" width="6.9" height="6.9"/>
<rect x="1178.8" y="201.3" class="st4" width="6.9" height="6.9"/>
<rect x="1152.3" y="218.3" class="st4" width="6.9" height="6.9"/>
<rect x="1178.8" y="218.3" class="st4" width="6.9" height="6.9"/>
<rect x="1152.3" y="235.4" class="st4" width="6.9" height="6.9"/>
<rect x="1178.8" y="235.4" class="st4" width="6.9" height="6.9"/>
<rect x="1152.3" y="252.5" class="st4" width="6.9" height="6.9"/>
<rect x="1178.8" y="252.5" class="st4" width="6.9" height="6.9"/>
<rect x="1152.3" y="269.6" class="st4" width="6.9" height="6.9"/>
<rect x="1178.8" y="269.6" class="st4" width="6.9" height="6.9"/>
<polygon class="st4" points="1152.3,291.1 1152.3,286.6 1159.3,286.6 1159.3,290.5 "/>
<path class="st2" d="M967.9,188.3v4h26.5v-4H967.9z M970.2,192h-1.9v-3.5h1.9V192z M972.6,192h-1.9v-3.5h1.9
	C972.6,188.6,972.6,192,972.6,192z M974.9,192H973v-3.5h1.9V192z M977.3,192h-1.9v-3.5h1.9V192z M979.7,192h-1.9v-3.5h1.9V192z
	 M982,192h-1.9v-3.5h1.9V192z M984.4,192h-1.9v-3.5h1.9V192z M986.7,192h-1.9v-3.5h1.9V192z M989.1,192h-1.9v-3.5h1.9V192z
	 M991.4,192h-1.9v-3.5h1.9V192z M993.9,192h-2.1v-3.5h2.1V192z"/>
<path class="st2" d="M967.9,199.8v4h26.5v-4H967.9z M970.2,203.6h-1.9v-3.5h1.9V203.6z M972.6,203.6h-1.9v-3.5h1.9
	C972.6,200.1,972.6,203.6,972.6,203.6z M974.9,203.6H973v-3.5h1.9V203.6z M977.3,203.6h-1.9v-3.5h1.9V203.6z M979.7,203.6h-1.9v-3.5
	h1.9V203.6z M982,203.6h-1.9v-3.5h1.9V203.6z M984.4,203.6h-1.9v-3.5h1.9V203.6z M986.7,203.6h-1.9v-3.5h1.9V203.6z M989.1,203.6
	h-1.9v-3.5h1.9V203.6z M991.4,203.6h-1.9v-3.5h1.9V203.6z M993.9,203.6h-2.1v-3.5h2.1V203.6z"/>
<path class="st2" d="M967.9,211.4v4h26.5v-4H967.9z M970.2,215.1h-1.9v-3.5h1.9V215.1z M972.6,215.1h-1.9v-3.5h1.9
	C972.6,211.6,972.6,215.1,972.6,215.1z M974.9,215.1H973v-3.5h1.9V215.1z M977.3,215.1h-1.9v-3.5h1.9V215.1z M979.7,215.1h-1.9v-3.5
	h1.9V215.1z M982,215.1h-1.9v-3.5h1.9V215.1z M984.4,215.1h-1.9v-3.5h1.9V215.1z M986.7,215.1h-1.9v-3.5h1.9V215.1z M989.1,215.1
	h-1.9v-3.5h1.9V215.1z M991.4,215.1h-1.9v-3.5h1.9V215.1z M993.9,215.1h-2.1v-3.5h2.1V215.1z"/>
<path class="st2" d="M967.9,222.9v4h26.5v-4H967.9L967.9,222.9z M970.2,226.6h-1.9v-3.5h1.9V226.6z M972.6,226.6h-1.9v-3.5h1.9
	C972.6,223.1,972.6,226.6,972.6,226.6z M974.9,226.6H973v-3.5h1.9V226.6z M977.3,226.6h-1.9v-3.5h1.9V226.6z M979.7,226.6h-1.9v-3.5
	h1.9V226.6z M982,226.6h-1.9v-3.5h1.9V226.6z M984.4,226.6h-1.9v-3.5h1.9V226.6z M986.7,226.6h-1.9v-3.5h1.9V226.6z M989.1,226.6
	h-1.9v-3.5h1.9V226.6z M991.4,226.6h-1.9v-3.5h1.9V226.6z M993.9,226.6h-2.1v-3.5h2.1V226.6z"/>
<path class="st2" d="M968,234.4c0.1,0.4,0.2,0.7,0.3,1.1v-0.9h1.9v3.5h-1c0,0.1,0,0.2,0.1,0.2h25.1v-4H968z M972.6,238.1h-1.9v-3.5
	h1.9V238.1z M974.9,238.1H973v-3.5h1.9V238.1z M977.3,238.1h-1.9v-3.5h1.9V238.1z M979.7,238.1h-1.9v-3.5h1.9V238.1z M982,238.1
	h-1.9v-3.5h1.9V238.1z M984.4,238.1h-1.9v-3.5h1.9V238.1z M986.7,238.1h-1.9v-3.5h1.9V238.1z M989.1,238.1h-1.9v-3.5h1.9V238.1z
	 M991.4,238.1h-1.9v-3.5h1.9V238.1z M993.9,238.1h-2.1v-3.5h2.1V238.1z"/>
<path class="st2" d="M973.5,245.9c0,0.1,0.1,0.2,0.2,0.2h1.3v1.7c0.1,0.2,0.3,0.3,0.4,0.5v-2.2h1.9v3.5h-0.8
	c0.1,0.1,0.1,0.2,0.2,0.2h17.6v-4H973.5z M979.7,249.7h-1.9v-3.5h1.9V249.7z M982,249.7h-1.9v-3.5h1.9V249.7z M984.4,249.7h-1.9
	v-3.5h1.9V249.7z M986.7,249.7h-1.9v-3.5h1.9V249.7z M989.1,249.7h-1.9v-3.5h1.9V249.7z M991.4,249.7h-1.9v-3.5h1.9V249.7z
	 M993.9,249.7h-2.1v-3.5h2.1V249.7z"/>
<path class="st2" d="M986.5,257.5c0.2,0.1,0.4,0.2,0.7,0.4v-0.1h1.9v1.1l0.4,0.2v-1.3h1.9v2.1l0.4,0.1v-2.3h2.1v3l0.4,0.1v-3.4
	H986.5z"/>
<path class="st2" d="M1068.1,153.9c0,0-5.9-0.3-5.2,3.8c-0.1,0.4,0.1,0.9,0.5,1.1c0,0,0-0.3,0.6-0.2c0.2,0,0.4,0,0.6,0
	c0.3,0,0.6-0.1,0.8-0.3l0,0c0,0,1.7-0.7,2.3-3.4c0,0,0.5-0.6,0.4-0.7l-1,0.4c0,0,0.3,0.7,0.1,1.3c0,0,0-1.3-0.2-1.3
	c0,0-0.5,0.2-0.5,0.2s0.6,1.3,0.1,2.2c0,0,0.2-1.5-0.3-2.1l-0.7,0.4c0,0,0.7,1.3,0.2,2.4c0,0,0.1-1.6-0.4-2.3l-0.6,0.5
	c0,0,0.6,1.3,0.2,2.2c0,0,0-1.9-0.4-2c-0.2,0.2-0.4,0.4-0.6,0.7c0,0,0.4,0.9,0.2,1.4c0,0-0.2-1.3-0.3-1.3c0,0-0.5,0.8-0.6,1.4
	c0-0.5,0.2-1,0.5-1.5c-0.3,0-0.6,0.2-0.8,0.4c0,0,0.1-0.6,1-0.6c0,0,0.4-0.6,0.6-0.7c0,0-0.9-0.1-1.4,0.2c0,0,0.5-0.5,1.6-0.3
	l0.6-0.5c0,0-1.2-0.1-1.7,0c0,0,0.6-0.5,1.8-0.1l0.7-0.4c-0.5-0.1-1.1-0.2-1.6-0.1c0,0,0.6-0.3,1.8,0l0.5-0.2c0,0-0.7-0.1-0.9-0.2
	c-0.2,0-0.2-0.1-0.2-0.1c0.5-0.1,0.9,0,1.4,0.1C1067.1,154.4,1068.1,154,1068.1,153.9z"/>
<path class="st2" d="M1052.6,174.1c0,0-2,5.6,2.2,6.1c0.4,0.2,0.9,0.1,1.2-0.2c0,0-0.3-0.1,0-0.6c0.1-0.2,0.2-0.4,0.2-0.6
	c0.1-0.3,0-0.6-0.1-0.8l0,0c0,0-0.2-1.8-2.6-3.2c0,0-0.4-0.6-0.6-0.6l0.1,1.1c0,0,0.8-0.1,1.3,0.3c0,0-1.2-0.3-1.3-0.1
	c0,0,0.1,0.6,0.1,0.6s1.4-0.2,2.1,0.5c0,0-1.4-0.6-2.1-0.3l0.2,0.8c0,0,1.4-0.3,2.3,0.4c0,0-1.5-0.6-2.3-0.3l0.3,0.7
	c0,0,1.4-0.2,2.1,0.4c0,0-1.8-0.5-2.1-0.2c0.1,0.3,0.3,0.6,0.5,0.8c0,0,1-0.1,1.4,0.2c0,0-1.2-0.2-1.3-0.1c0,0,0.6,0.8,1.2,1
	c-0.5-0.2-0.9-0.5-1.3-0.9c0,0.3,0,0.6,0.2,0.9c0,0-0.5-0.2-0.3-1.1c0,0-0.5-0.6-0.5-0.7c0,0-0.3,0.8-0.2,1.4c0,0-0.4-0.6,0.2-1.6
	l-0.3-0.7c0,0-0.5,1.1-0.5,1.6c0,0-0.3-0.7,0.4-1.8l-0.2-0.8c-0.2,0.5-0.4,1-0.6,1.5c0,0-0.1-0.7,0.5-1.7l-0.1-0.5
	c0,0-0.3,0.7-0.4,0.9c-0.1,0.2-0.1,0.2-0.1,0.2c0-0.5,0.2-0.9,0.5-1.3C1052.7,175.2,1052.6,174.1,1052.6,174.1z"/>
<path class="st2" d="M1091.8,169.4c0,0-2,5.6,2.2,6.1c0.4,0.2,0.9,0.1,1.2-0.2c0,0-0.3-0.1,0-0.6c0.1-0.2,0.2-0.4,0.2-0.6
	c0.1-0.3,0-0.6-0.1-0.8l0,0c0,0-0.2-1.8-2.6-3.2c0,0-0.4-0.6-0.6-0.6l0.1,1.1c0,0,0.8-0.1,1.3,0.3c0,0-1.2-0.3-1.3-0.1
	c0,0,0.1,0.6,0.1,0.6s1.4-0.2,2.1,0.5c0,0-1.4-0.6-2.1-0.3l0.2,0.8c0,0,1.4-0.3,2.3,0.4c0,0-1.5-0.6-2.3-0.3l0.3,0.7
	c0,0,1.4-0.2,2.1,0.4c0,0-1.8-0.5-2.1-0.2c0.1,0.3,0.3,0.6,0.5,0.8c0,0,1-0.1,1.4,0.2c0,0-1.2-0.2-1.3-0.1c0,0,0.6,0.8,1.2,1
	c-0.5-0.2-0.9-0.5-1.3-0.9c0,0.3,0,0.6,0.2,0.9c0,0-0.5-0.2-0.3-1.1c0,0-0.5-0.6-0.5-0.7c0,0-0.3,0.8-0.2,1.4c0,0-0.4-0.6,0.2-1.6
	l-0.3-0.7c0,0-0.5,1.1-0.5,1.6c0,0-0.3-0.7,0.4-1.8l-0.2-0.8c-0.2,0.5-0.4,1-0.6,1.5c0,0-0.1-0.7,0.5-1.7l-0.1-0.5
	c0,0-0.3,0.7-0.4,0.9s-0.1,0.2-0.1,0.2c0-0.5,0.2-0.9,0.5-1.3C1091.9,170.5,1091.9,169.4,1091.8,169.4z"/>
<path class="st2" d="M1035.7,214.9c0,0-2,5.6,2.2,6.1c0.4,0.2,0.9,0.1,1.2-0.2c0,0-0.3-0.1,0-0.6c0.1-0.2,0.2-0.4,0.2-0.6
	c0.1-0.3,0-0.6-0.1-0.8l0,0c0,0-0.2-1.8-2.6-3.2c0,0-0.4-0.6-0.6-0.6l0.1,1.1c0,0,0.8-0.1,1.3,0.3c0,0-1.2-0.3-1.3-0.1
	c0,0,0.1,0.6,0.1,0.6s1.4-0.2,2.1,0.5c0,0-1.4-0.6-2.1-0.3l0.2,0.8c0,0,1.4-0.3,2.3,0.4c0,0-1.5-0.6-2.3-0.3l0.3,0.7
	c0,0,1.4-0.2,2.1,0.4c0,0-1.8-0.5-2.1-0.2c0.1,0.3,0.3,0.6,0.5,0.8c0,0,1-0.2,1.4,0.2c0,0-1.3-0.2-1.3-0.1c0,0,0.6,0.8,1.2,1
	c-0.5-0.2-0.9-0.5-1.3-0.9c0,0.3,0,0.6,0.2,0.9c0,0-0.5-0.2-0.3-1.1c0,0-0.5-0.6-0.5-0.7c0,0-0.3,0.8-0.2,1.4c0,0-0.4-0.6,0.2-1.6
	l-0.3-0.7c0,0-0.5,1.1-0.5,1.6c0,0-0.3-0.7,0.4-1.8l-0.2-0.8c-0.2,0.5-0.4,1-0.6,1.5c0,0-0.1-0.7,0.5-1.7l-0.1-0.5
	c0,0-0.3,0.7-0.4,0.9c-0.1,0.2-0.1,0.2-0.1,0.2c0-0.5,0.2-0.9,0.5-1.3C1035.9,216.1,1035.8,214.9,1035.7,214.9z"/>
<path class="st2" d="M1027.7,162.4c0,0-2,5.6,2.2,6.1c0.4,0.2,0.9,0.1,1.2-0.2c0,0-0.3-0.1,0-0.6c0.1-0.2,0.2-0.4,0.2-0.6
	c0.1-0.3,0-0.6-0.1-0.8l0,0c0,0-0.2-1.8-2.6-3.2c0,0-0.4-0.6-0.6-0.6l0.1,1.1c0,0,0.8-0.1,1.3,0.3c0,0-1.2-0.3-1.3-0.1
	c0,0,0.1,0.6,0.1,0.6s1.4-0.2,2.1,0.5c0,0-1.4-0.6-2.1-0.3l0.2,0.8c0,0,1.4-0.3,2.3,0.4c0,0-1.5-0.6-2.3-0.3l0.3,0.7
	c0,0,1.4-0.2,2.1,0.4c0,0-1.8-0.5-2.1-0.2c0.1,0.3,0.3,0.6,0.5,0.8c0,0,1-0.1,1.4,0.2c0,0-1.2-0.2-1.3-0.1c0,0,0.6,0.8,1.2,1
	c-0.5-0.2-0.9-0.5-1.3-0.9c0,0.3,0,0.6,0.2,0.9c0,0-0.5-0.2-0.3-1.1c0,0-0.5-0.6-0.5-0.7c0,0-0.3,0.8-0.2,1.4c0,0-0.4-0.6,0.2-1.6
	l-0.3-0.7c0,0-0.5,1.1-0.5,1.6c0,0-0.3-0.7,0.4-1.8l-0.2-0.8c-0.2,0.5-0.4,1-0.6,1.5c0,0-0.1-0.7,0.5-1.7l-0.1-0.5
	c0,0-0.3,0.7-0.4,0.9s-0.1,0.2-0.1,0.2c0-0.5,0.2-0.9,0.5-1.3C1027.8,163.5,1027.7,162.4,1027.7,162.4z"/>
<path class="st2" d="M1042.7,192.8c0,0,1.6,5.7,5.3,3.7c0.4-0.1,0.8-0.4,0.8-0.8c0,0-0.3,0.1-0.4-0.5c0-0.2-0.1-0.4-0.2-0.6
	c-0.1-0.3-0.3-0.5-0.5-0.6l0,0c0,0-1.2-1.4-4-1.1c0,0-0.7-0.2-0.8-0.2l0.7,0.8c0,0,0.6-0.5,1.2-0.5c0,0-1.2,0.4-1.1,0.6
	c0,0,0.4,0.4,0.4,0.4s1-1,2-0.8c0,0-1.5,0.3-1.9,1l0.6,0.5c0,0,1-1.1,2.2-1c0,0-1.6,0.4-2,1.1l0.7,0.4c0,0,1-1,2-0.9
	c0,0-1.8,0.6-1.8,1c0.3,0.2,0.6,0.3,0.9,0.4c0,0,0.7-0.7,1.3-0.6c0,0-1.1,0.6-1.1,0.7c0,0,1,0.2,1.5,0.1c-0.5,0.1-1,0.1-1.6,0
	c0.1,0.3,0.4,0.5,0.7,0.7c0,0-0.6,0.1-0.9-0.7c0,0-0.7-0.2-0.8-0.3c0,0,0.2,0.9,0.6,1.3c0,0-0.7-0.3-0.8-1.4l-0.7-0.4
	c0,0,0.2,1.2,0.5,1.6c0,0-0.6-0.4-0.7-1.7l-0.6-0.5c0,0.5,0.2,1.1,0.4,1.6c0,0-0.5-0.5-0.5-1.7l-0.4-0.4c0,0,0.1,0.7,0.1,1
	c0,0.2,0,0.2,0,0.2c-0.2-0.4-0.3-0.9-0.3-1.4C1043.5,193.6,1042.7,192.7,1042.7,192.8z"/>
<path class="st2" d="M1085,197.8c0,0,1.6,5.7,5.3,3.7c0.4-0.1,0.8-0.4,0.8-0.8c0,0-0.3,0.1-0.4-0.5c0-0.2-0.1-0.4-0.2-0.6
	c-0.1-0.3-0.3-0.5-0.6-0.6l0,0c0,0-1.2-1.4-4-1.1c0,0-0.7-0.3-0.8-0.2l0.7,0.8c0,0,0.6-0.5,1.2-0.5c0,0-1.2,0.4-1.1,0.6
	c0,0,0.4,0.4,0.4,0.4s1-1,2-0.8c0,0-1.5,0.3-1.9,1l0.6,0.5c0,0,1-1.1,2.2-1c0,0-1.6,0.4-2,1.1l0.7,0.4c0,0,1-1,2-0.9
	c0,0-1.8,0.6-1.8,1c0.3,0.2,0.6,0.3,0.9,0.4c0,0,0.7-0.7,1.3-0.6c0,0-1.1,0.6-1.1,0.7c0,0,1,0.2,1.5,0.1c-0.5,0.1-1,0.1-1.6,0
	c0.1,0.3,0.4,0.5,0.7,0.7c0,0-0.6,0.1-0.9-0.7c0,0-0.7-0.2-0.8-0.3c0,0,0.2,0.9,0.6,1.3c0,0-0.7-0.3-0.8-1.4l-0.7-0.4
	c0,0,0.2,1.2,0.5,1.6c0,0-0.6-0.4-0.7-1.7l-0.6-0.5c0,0.5,0.2,1.1,0.4,1.6c0,0-0.5-0.5-0.5-1.7l-0.4-0.4c0,0,0.1,0.7,0.1,1
	c0,0.2,0,0.2,0,0.2c-0.2-0.4-0.3-0.9-0.3-1.4C1085.8,198.7,1085.1,197.8,1085,197.8z"/>
<path class="st5" d="M1069.1,255.2c0,0,12.9-4.3,10.2-19.7l-16.4-4.2l-3.8,12.6L1069.1,255.2z"/>
<path class="st6" d="M1059.2,243.8l9.9,11.3c0,0,12.9-4.3,10.2-19.7L1059.2,243.8z"/>
<path class="st7" d="M1005.1,130.3c0,0,1.7,2.8,4.1,1.4c2.4-1.4,0.1-5.3,0.1-5.3S1004.8,125.8,1005.1,130.3z"/>
<path class="st8" d="M1070.4,234.7l8.9,0.7l16.6,0.1l-13.1,16.1c0,0-4.2,0.2-5,0.8c-0.8,0.6-12.9,0.3-12.9,0.3l-1.9-8.3
	L1070.4,234.7z"/>
<path class="st9" d="M1070.4,234.7l8.9,0.7l16.6,0.1l-13.1,16.1c0,0-4.2,0.2-5,0.8c-0.8,0.6-12.9,0.3-12.9,0.3l-1.9-8.3
	L1070.4,234.7z"/>
<path class="st5" d="M1061.4,191.4l2.1,3.5l0.4,6.2c0,0,1.4,5.2,2.5,6.8c1.1,1.5,1.5,5.6,1.5,5.6s0.4,3.8,1,4.6
	c0.5,0.8,1.3,6.7,1.3,6.7s4.8,9.6,9.1,10.7c0,0-21.5,7-10.2,19.7c0,0-8,2-9.9-0.3s-6.9-35.7-6.9-35.7l1.5-28.2L1061.4,191.4z"/>
<path class="st9" d="M1061.4,191.4l2.1,3.5l0.4,6.2c0,0,1.4,5.2,2.5,6.8c1.1,1.5,1.5,5.6,1.5,5.6s0.4,3.8,1,4.6
	c0.5,0.8,1.3,6.7,1.3,6.7s4.8,9.6,9.1,10.7c0,0-21.5,7-10.2,19.7c0,0-8,2-9.9-0.3s-6.9-35.7-6.9-35.7l1.5-28.2L1061.4,191.4z"/>
<path class="st8" d="M1035.3,157c-0.6,3.1-0.4,6.4,0.5,9.4l-3.4,9.6c0,0-25.5-14.2-23.3-17.6c1.2-2,1.4-7.1,1.3-11.2
	c-0.1-3.1-0.3-5.6-0.3-5.6s31.3,3.1,27.1,10.2C1036.3,153.4,1035.6,155.2,1035.3,157z"/>
<path class="st6" d="M1037.3,151.8c-0.9,1.6-1.6,3.4-2,5.2c-9.6,3.1-20-1.1-24.8-9.8c-0.1-3.1-0.3-5.6-0.3-5.6
	S1041.4,144.7,1037.3,151.8z"/>
<path class="st8" d="M1049.9,136.4c0,11.6-9.4,21.1-21,21.1c-11.6,0-21.1-9.4-21.1-21c0-4.4,1.3-8.6,3.9-12.2
	c0.3-0.4,0.6-0.8,0.9-1.2c1.9-2.3,4.2-4.1,6.8-5.5l0,0c1.4-0.7,3-1.3,4.5-1.6c11.3-2.7,22.7,4.3,25.4,15.7c0.1,0.5,0.2,1,0.3,1.4
	C1049.8,134.2,1049.9,135.3,1049.9,136.4z"/>
<path class="st5" d="M1058.2,223c-0.3,1.7,0.1,4.8,0.7,7.9c0,0.1,0,0.3,0.1,0.4c0,0.1,0.1,0.3,0.1,0.5c0.3,1.3,0.6,2.7,0.9,3.9
	c0.3,1.2,0.5,2.3,0.8,3.1c0.3,1.3,0.6,2.1,0.6,2.1s0,0.8,0.1,2c0,0.7,0,1.6,0.1,2.6c0,0.3,0,0.6,0,0.9c0,0.5,0,1.1,0,1.6
	c0,0.2,0,0.3,0,0.5c0,0.6,0,1.2,0,1.8c0,0.8,0,1.7,0,2.5c0,0.3,0,0.6,0,0.9c0,0.8,0,1.5,0,2.2c0,1.9-0.1,3.4-0.3,3.8
	c0,0.1-0.1,0.3-0.1,0.5c-0.2,0.8-0.4,1.6-0.5,2.4l-0.4-0.3c-0.8-0.7-1.6-1.3-2.4-2c-1.3-1.1-2.8-2.2-4.3-3.1c-0.1,0-0.2-0.1-0.3-0.2
	c-0.3-0.2-0.6-0.3-0.8-0.4c-0.6-0.3-1.2-0.6-1.8-0.8c-2.9-1.1-5.9-1.5-9.1-1.4c-1.2,0.5-2,0.8-2,0.8l-1.6,0.5l-0.3,0.1
	c-1.7,0.5-4.1,1.3-5,1.6c-1.4,0.5-13.5,3-13.5,3c-1.1,0.3-2.2,0.5-3.4,0.6c-2.1,0.6-4.2,1-6.4,1.3c-4.9,0.6-9.8,0.2-14.5-1.2
	c-0.1,0-0.3,0-0.4,0c0.1,0,0.2,0,0.2,0l-0.3-0.1l-0.4-0.1c-0.7-0.2-1.4-0.4-2.1-0.7l-0.4-0.1c-0.7-0.2-1.3-0.5-1.9-0.8l-0.4-0.2
	c-0.7-0.3-1.3-0.6-1.9-1c-0.2-0.1-0.4-0.2-0.7-0.4c-0.7-0.4-1.3-0.8-2-1.2c-0.1-0.9-0.2-1.6-0.2-1.6l-0.9-4.9l0-0.2l-0.7-3.5l0-0.2
	l-1.5-7.6l0-0.2l-0.7-3.5l0-0.2l-1.5-7.5l0-0.2l-0.7-3.5l0-0.2l-1.5-7.6l0-0.2l-0.7-3.5l0-0.2l-0.3-1.4l-0.4-2.1
	c0,0-1.3-1.9-2.8-4.1l-0.2-0.2c-0.4-0.6-0.9-1.3-1.3-1.9c-0.1-0.2-0.3-0.4-0.4-0.6c-0.2-0.3-0.4-0.6-0.6-0.9l-0.1-0.2l0,0
	c-2.1-3.3-0.7-4.7-0.7-4.7s0.9-1.2,2.1-2.8c0-0.1,0.1-0.2,0.2-0.2c0.5-0.7,1-1.5,1.6-2.2l0.4-0.6c0.1-0.2,0.3-0.4,0.4-0.7
	c0-0.1,0.1-0.2,0.2-0.2c1.1-1.7,2.1-3.1,2.3-3.6c0.3-0.8,2.2-3.2,4.2-5.3c1.5-1.7,3-3.1,3.7-3.5c1.5-0.8,2.2-3.4,2.2-3.4
	s3.4-1.2,3.8-2.1c0.4-0.9,6.8-5,6.8-5s2.6-1.6,3.6-2.6c0.1-0.1,0.3-0.3,0.4-0.4c0.3-0.6,2.7-1.2,3.7-1.4c0.2,0,0.4-0.1,0.4-0.1
	c0.4-0.7,0.9-1.3,1.4-1.9c0.4-0.3,0.9-1.5,1.3-2.7c0.4-1.3,0.8-2.5,0.8-2.5c0.7-2.4,2.2-1.7,2.2-1.7c0,0.3,0,0.7,0.1,1l0,0
	c0.6,3,3.9,4.2,5.6,5.6c1.9,1.5,4.9,5.5,7.2,6.3c1.9,0.7,4.2,3.2,4.9,4l0,0.1c0.1,0.1,0.2,0.2,0.2,0.2s1.3-0.1,2.1-0.1h0.3
	c0.2,0,0.3-0.1,0.4-0.2c0.8-0.5,2-2.2,2.5-2.5c0.6-0.4,1.3-7.8,1.3-7.8l0,0c2.3-1,4.7,9.5,4.7,9.5s4.2,1.3,4.6,2.2
	c0.1,0.2,0.4,0.5,0.9,0.9c2.2,1.7,4.5,3.2,7,4.4c0,0,0.1,0,0.1,0.1c0,0,0.1,0,0.1,0.1c0.1,0,0.2,0.1,0.3,0.1c0.1,0,0.2,0.1,0.4,0.1
	l0.1,0c0.3,0.1,0.7,0.3,1,0.5c0.1,0.1,0.2,0.1,0.3,0.2c0.3,0.3,0.6,0.6,0.9,0.9c0,0,0.1,0.1,0.1,0.1l0,0c0.2,0.2,0.3,0.5,0.5,0.7
	c0.2,0.3,0.4,0.7,0.6,1c0,0,3.7,6.3,4.9,7c1.2,0.7,1.9,8,1.9,8l0,0l-4,14.7c0,0-0.2,3.7-0.5,7.5
	C1058.7,219.3,1058.5,221.4,1058.2,223z"/>
<path class="st10" d="M1028.3,169.9c0,0-2.7,1.4-4.7,1.6c-0.3,0-0.5,0-0.8,0c-2.2-0.3-5.4-2.1-5.4-2.1l3.7-4.1l4.6,2.3l1.7,1.6
	L1028.3,169.9z"/>
<path class="st6" d="M1049.6,133.1c-0.1,0.1-0.2,0.2-0.3,0.4c-1.3,1.2-3.6,0.7-5.4,0.4c-1.5-0.2-3.1-0.7-4.5-1.3
	c-1.3-0.5-2.8-1.2-3.9-0.4c-0.4,0.3-0.7,0.8-1.2,1c-0.4,0.2-1,0.3-1.6,0.3c-1.7,0-3.5,0-5.2-0.4c-2.5-0.6-5.1-2.1-7.5-1.1
	c-1.9,0.8-2.9,2.8-3.4,4.8c-0.2,1-0.4,2-1,2.8s-1.6,1.4-2.6,1c-1.4-0.6-1.6-2.9-3.2-3c-1.8-0.1-1.8,1.7-1.3,3.1c0.8,2,1.8,4,1.8,6
	c-3.9-7.1-3.5-15.8,1.2-22.4c0.4-0.2,0.7-0.6,0.9-1c0,0,0-0.1,0-0.2c0.1-0.7-0.2-1.4-0.3-2.1c-0.1-1.8,1.8-3,3.6-3.2
	c1.2-0.1,2.4,0,3.5-0.1l0,0c0.6,0,1.2-0.1,1.7-0.2c1-0.3,1.9-0.8,2.7-1.4c11.3-2.7,22.7,4.3,25.4,15.7
	C1049.4,132.1,1049.5,132.6,1049.6,133.1L1049.6,133.1z"/>
<path class="st11" d="M1050.1,131.6c-0.1,0.5-0.4,0.9-0.7,1.3c-1.3,1.2-3.6,0.7-5.4,0.4c-1.5-0.2-3.1-0.7-4.5-1.3
	c-1.3-0.5-2.8-1.2-3.9-0.4c-0.4,0.3-0.7,0.8-1.2,1c-0.4,0.2-1,0.3-1.6,0.3c-1.7,0-3.5,0-5.2-0.4c-2.5-0.6-5.1-2.1-7.5-1.1
	c-1.9,0.8-2.9,2.8-3.4,4.8c-0.2,1-0.4,2-1,2.8s-1.6,1.4-2.6,1c-1.4-0.6-1.6-2.9-3.2-3c-1.8-0.1-1.8,1.7-1.3,3.1
	c0.9,2.4,2.2,4.7,1.8,7.2c-0.4,0-1.1,0-1.5,0c0.3-0.5-0.3-1.2-0.9-1.3c-0.6-0.2-1.3-0.2-1.7-0.6c-0.4-0.4-0.4-1.1-0.4-1.7
	c0.1-1.3,0.4-2.5,0.9-3.7c0.3-0.7,0.7-1.5,0.5-2.3c-0.1-0.3-0.3-0.7-0.5-1c-0.5-1-0.4-2.2,0-3.3c0.2-0.4,0.3-0.8,0.5-1.2
	c0.2-0.5,0.5-1.1,0.8-1.5c0.6-0.7,1.1-1.8,0.5-2.4c-0.1-0.2,0.1-0.3,0-0.5c0,0,0-0.1,0-0.1c0-0.3,0-0.5,0.2-0.7c0,0,0-0.1,0.1-0.2
	c0,0,0-0.1,0.1-0.2c0.5-0.9,1.3-1.7,2.1-2.3c0.5-0.4,1.2-0.8,1.4-1.4c0.2-0.7-0.2-1.5-0.2-2.3c-0.1-1.8,1.8-3,3.6-3.2
	c1.8-0.2,3.6,0.1,5.3-0.3c2.4-0.6,4.1-2.8,6.4-4c2.5-1.3,5.4-1.4,7.9-0.3c2.6,1.2,4.5,3.5,7.2,4.4c0.9,0.3,2,0.4,2.9,1
	c1,0.6,1.6,1.7,2.1,2.7c0.8,1.6,0.9,3.2,1.5,4.9c0.4,1.3,1,3.1,1.1,4.6C1050.2,130.7,1050.2,131.2,1050.1,131.6z"/>
<g class="st12">
	<path d="M1009,128.5c0.1-0.3,0-0.7-0.2-0.9c0.1,0.2-0.2,0.3,0,0.5C1008.8,128.2,1008.9,128.3,1009,128.5z"/>
	<path d="M1008.8,127L1008.8,127c0,0.1,0,0.2,0,0.3C1008.8,127.2,1008.8,127.1,1008.8,127z"/>
	<path d="M1049.4,132.3c-1.3,1.2-3.6,0.7-5.4,0.4c-1.5-0.2-3.1-0.7-4.5-1.3c-1.3-0.5-2.8-1.2-3.9-0.4c-0.4,0.3-0.7,0.8-1.2,1
		c-0.4,0.2-1,0.3-1.6,0.3c-1.7,0-3.5,0-5.2-0.4c-2.5-0.6-5.1-2.1-7.5-1.1c-1.9,0.8-2.9,2.8-3.4,4.8c-0.2,1-0.4,2-1,2.8
		c-0.6,0.8-1.6,1.4-2.6,1c-1.4-0.6-1.6-2.9-3.2-3c-1.3-0.1-1.6,0.8-1.6,1.8c0.1-0.8,0.5-1.4,1.6-1.3c1.6,0.1,1.8,2.4,3.2,3
		c0.9,0.4,2-0.2,2.6-1s0.7-1.8,1-2.8c0.5-2,1.5-4,3.4-4.8c2.4-1,5,0.5,7.5,1.1c1.7,0.4,3.4,0.4,5.2,0.4c0.5,0,1.1,0,1.6-0.3
		s0.7-0.7,1.2-1c1.1-0.8,2.6-0.1,3.9,0.4c1.4,0.6,3,1,4.5,1.3c1.8,0.3,4.1,0.8,5.4-0.4c0.7-0.7,0.9-1.7,0.9-2.7
		C1050.2,131,1050,131.7,1049.4,132.3z"/>
	<path d="M1012.4,119.9c0,0.1,0,0.2,0,0.4c0,0.5,0.2,1,0.3,1.5C1012.8,121.2,1012.5,120.6,1012.4,119.9z"/>
	<path d="M1007.4,137.5c0,0.1,0,0.1,0,0.2c0-0.2,0-0.5,0-0.8c-0.1-0.3-0.3-0.7-0.5-1c-0.2-0.4-0.3-0.8-0.3-1.2c0,0.6,0,1.2,0.3,1.7
		C1007.1,136.8,1007.2,137.2,1007.4,137.5z"/>
	<path d="M1010.5,146.7l-1.5,0c0.1,0.2,0,0.4,0,0.5c0.4,0,1.1,0,1.5,0c0.1-0.4,0.1-0.8,0.1-1.3
		C1010.5,146.2,1010.5,146.4,1010.5,146.7z"/>
	<path d="M1008.1,145.3c-0.6-0.2-1.3-0.2-1.7-0.6c-0.2-0.3-0.4-0.6-0.4-1c0,0.6,0,1.2,0.4,1.6c0.4,0.4,1.1,0.4,1.7,0.6
		c0.4,0.1,0.7,0.4,0.9,0.7C1009.2,146.1,1008.7,145.5,1008.1,145.3z"/>
</g>
<path class="st6" d="M1053.2,256.9c-0.3-0.2-0.6-0.3-0.8-0.4c-0.6-0.3-1.2-0.6-1.8-0.8c-2.9-1.1-5.9-1.5-9.1-1.4
	c-1.2,0.5-2,0.8-2,0.8l-1.6,0.5l-0.3,0.1c0-0.2,0-0.3,0-0.5s0-0.3,0-0.5c-0.5-5.3-1-10.7-1-10.7v-4.7v-0.5l0-13.8l-0.2-4.5l-0.1-2
	l0-0.4l0-0.8l0-0.5c0-0.1-0.1-0.3-0.1-0.4l0,0c0,0,0-0.1,0-0.2c0-0.2-0.1-0.6-0.2-0.9c-0.4-2.3-1-6.1-1.1-6.9c0-1-0.9-7.3-0.9-7.3
	c-0.1-3.4-3-9.9-3.7-11.1c-0.7-1.2-1.5-8.5-1.3-8.9c0.1-0.2,0.2-1.5,0.3-2.6c0-0.1,0-0.2,0-0.4c0-0.9,0-1.7,0-1.7l2.8-0.5l0.8-0.1h0
	l0,0c0.1,0.1,0.3,0.6,0.6,1.3c0,0.1,0.1,0.1,0.1,0.2c0,0,0,0.1,0,0.1c0.5,1.2,1.2,2.8,1.2,3.7c0,1.6,1.8,5.6,1.8,5.6
	c0.2,0.9,4.1,9.9,4.1,9.9s3.2,8.8,3,10.2s1.5,11,1.5,11l1.8,9.9c0.9,1.9,2,6.4,2,6.4l0.4,2.5l0.1,0.5l1.1,6.8l0.6,3.3
	c0,0,0.2,1.8,0.6,3.7c0,0.2,0.1,0.3,0.1,0.5c0.2,1.3,0.5,2.6,0.9,3.8C1053,255.7,1053.1,256.3,1053.2,256.9z"/>
<path class="st10" d="M1053.5,257.1c-0.1,0-0.2-0.1-0.3-0.2c-0.3-0.2-0.6-0.3-0.8-0.4c-0.6-0.3-1.2-0.6-1.8-0.8
	c-2.9-1.1-5.9-1.5-9.1-1.4c-1.2,0.5-2,0.8-2,0.8l-1.6,0.5c0-0.2,0-0.3,0-0.5c0-0.2,0-0.3,0-0.5c-0.5-5.3-1-10.6-1-10.6v-4.7v-0.5
	l0-13.7l-0.2-4.3l0-0.9l0-0.6l0-0.8l0-0.8l0-0.6v-0.1c0,0,0,0,0,0c0-0.1-0.1-0.3-0.2-0.6l0-0.1c0,0,0-0.1,0-0.2l0,0
	c-0.5-2.1-1.1-6.7-1.2-7.5c0-1-0.9-7.3-0.9-7.3c-0.1-3.4-3-9.9-3.7-11.1c-0.7-1.2-1.5-8.5-1.3-8.9c0.1-0.2,0.2-1.8,0.3-3
	c0-0.1,0-0.2,0-0.3c0-0.8,0-1.4,0-1.4l2.6-0.5l0.7-0.1l0.1,0l0.2,0c0,0,0.3,0.6,0.7,1.4l0,0.1c0.6,1.2,1.2,2.9,1.2,3.8
	c0,1.6,1.8,5.6,1.8,5.6c0.2,0.9,4.1,9.9,4.1,9.9s3.2,8.8,3,10.2c-0.2,1.4,1.5,11,1.5,11l1.8,9.9c0.9,1.9,2,6.4,2,6.4l0.4,2.4
	l0.1,0.5l0.9,5.3l0.8,4.9c0,0,0.2,1.8,0.6,3.7c0,0.2,0.1,0.3,0.1,0.5c0.2,1.3,0.5,2.6,0.9,3.8
	C1053.2,255.7,1053.4,256.4,1053.5,257.1z"/>
<path class="st13" d="M1051.3,129.6c0,0-0.9,1.2-1.8,1.2c-0.8,0-4.2-0.1-5.9-0.7c-1.7-0.5-10.2-0.9-10.2-0.9s-12.1,0-12.5-0.4
	c-0.4-0.4-7.5-2.6-8.2-2.4c-0.1,0-0.5,0.1-1,0.2l-0.6,0.1c-0.8,0.1-1.9,0.3-2.9,0.4c-1.2,0.1-2.3,0.2-2.6,0.1v-1c0,0,1.4-2,1.5-2.6
	c0.1-0.6,1.3-9,4.3-12.1c1.3-2.4,3.3-4.3,5.8-5.5c4.2-1.8,8.3-3.4,8.3-3.4l0.7-0.1l2.4-0.3c0.1-0.1,0.1-0.1,0.2-0.2
	c0.6-0.5,2.6-1.6,5.2,0.7l0.4,0.7c0,0,7.9,1.9,11.6,8.3c3.6,6.5,3.8,12.8,4.1,15.7c0,0-0.2,0.8,0.2,1.1c0.1,0.1,0.2,0.2,0.4,0.4
	c0,0,0.1,0.1,0.1,0.1c0.1,0.1,0.2,0.2,0.3,0.3l0,0c0,0,0,0,0,0.1L1051.3,129.6z"/>
<path class="st9" d="M1051.3,129.6c0,0-0.9,1.2-1.8,1.2c-0.8,0-4.2-0.1-5.9-0.7c-1.7-0.5-10.2-0.9-10.2-0.9s-12.1,0-12.5-0.4
	c-0.4-0.4-7.5-2.6-8.2-2.4c-0.1,0-0.5,0.1-1,0.2l-0.1-0.8l0-0.2c0,0,13.7-2.9,22.8-1.4s15.9,3.3,15.9,3.3s-0.2,0.8,0.2,1.1
	c0.1,0.1,0.2,0.2,0.4,0.4c0,0,0.1,0.1,0.1,0.1c0.1,0.1,0.2,0.2,0.3,0.3l0,0c0,0,0,0,0,0.1L1051.3,129.6z"/>
<path class="st6" d="M1050.1,131.6c-1.7,0.1-4.8-0.3-6.2-0.5c-0.4,0-0.8-0.1-1.1-0.2c-1.5-0.3-6-1.2-8.7-0.8
	c-3.3,0.5-12.6-0.4-12.6-0.4s-5.7-1.2-8-2.1c-0.8-0.3-2.3-0.5-3.7-0.3c-0.3,0-0.7,0.1-1.1,0.2c-1.9,0.4-3.5,1.5-3.3,3.3
	c-0.1-0.1-0.2-0.3-0.3-0.4c-0.1-1.6,0.4-2.6,1.1-3.2l0,0l0.2-0.1c0.8-0.2,1.7-0.4,2.6-0.5c0.1,0,0.3,0,0.4,0c2.5-0.3,6-0.4,9.1,1.1
	c0,0,2.8,1.3,4.7,1.3c1.9,0,17.3,0.1,21,1.2c0.7,0.2,1.5,0.4,2.2,0.5c1.3,0.2,2.7,0,3.9-0.4C1050.2,130.7,1050.2,131.2,1050.1,131.6
	z"/>
<path class="st6" d="M1051.3,129.6c0,0-0.9,1.2-1.8,1.2c-0.8,0-4.2-0.1-5.9-0.7c-1.7-0.5-10.2-0.9-10.2-0.9s-12.1,0-12.5-0.4
	c-0.4-0.4-7.5-2.6-8.2-2.4c-0.1,0-0.5,0.1-1,0.2l-0.6,0.1c-1,0-2,0.1-2.9,0.4c-1.2,0.1-2.3,0.2-2.6,0.1V127c0.2-0.1,0.5-0.3,0.8-0.4
	c1.7-0.5,3.4-0.7,5.1-0.8c2.2-0.1,4.7,0.2,6.9,1.3c0,0,2.8,1.3,4.7,1.3s17.3,0.1,21,1.2c0.7,0.2,1.5,0.4,2.2,0.5
	c1.6,0.2,3.3,0,4.8-0.7l0,0c0,0,0,0,0,0.1L1051.3,129.6z"/>
<path class="st14" d="M1005.5,130.7c0,0-3-2.3,0.9-3.8c0,0,6.9-2.1,12.1,0.5c0,0,2.8,1.3,4.7,1.3s17.3,0.1,21,1.2
	c0.7,0.2,1.5,0.4,2.2,0.5c1.9,0.2,3.9-0.1,5.6-1.1c0.2-0.1,0.5-0.2,0.5-0.1c0.2,0.3,0,1.9-1.9,2.2c-1.5,0.2-5.1-0.2-6.6-0.4
	c-0.4,0-0.8-0.1-1.1-0.2c-1.5-0.3-6-1.2-8.7-0.8c-3.3,0.5-12.6-0.4-12.6-0.4s-5.7-1.2-8-2.1C1011.1,126.3,1004.6,127.2,1005.5,130.7
	z"/>
<path class="st6" d="M1031,106.5c-0.2-0.3-3.4-2.9-4.7-3.9l2.4-0.3c0.1-0.1,0.1-0.1,0.2-0.2C1030.5,103.8,1031,106.5,1031,106.5z"/>
<polygon class="st6" points="1020.6,120.2 1019.6,121.7 1023.6,121.6 1023.7,119.9 "/>
<polygon class="st6" points="1044.9,122 1045.3,123.4 1047.9,123.8 1046.8,122.2 "/>
<path class="st6" d="M1001.4,169c0.3,0.4,9.2,12.2,11.5,11.8C1015.3,180.5,1001.4,169,1001.4,169z"/>
<path class="st6" d="M1031.2,179.7c0,0,2.2,2.1,1.9,2.9C1032.8,183.4,1031.2,179.7,1031.2,179.7z"/>
<path class="st6" d="M1007.6,194c0,0-1.9,8.9-0.9,9.2C1007.7,203.5,1007.6,194,1007.6,194z"/>
<path class="st6" d="M1032,228.6c0.3,0.9,2.9,6.8,3.5,7.1C1036.1,236,1032,228.6,1032,228.6z"/>
<path class="st6" d="M1062.4,204.4c-0.1,0.3-2.4,2.2-1.9,2.9C1061.1,208,1062.4,204.4,1062.4,204.4z"/>
<path class="st6" d="M1044.9,220.9c0,0.2-0.5,5,0.4,5.9C1046.1,227.7,1044.9,220.9,1044.9,220.9z"/>
<path class="st6" d="M1068.1,245.5c-0.6,0.4-1.3,0.7-2,1c-0.7,0.4-1.5,0.7-2.3,1c-0.3,0.1-0.6,0.2-0.9,0.4c-0.4,0.2-0.9,0.4-1.4,0.5
	c-1.4,0.5-2.7,1-3.8,1.4c-0.4,0.1-0.9,0.3-1.3,0.4c-2,0.6-3.4,1-3.4,1c-0.3-0.1-0.6-0.1-0.9-0.1c-0.1,0-0.2,0-0.3,0
	c-0.4,0-0.8,0.1-1.2,0.1c-2.8,0.5-6.7,1.9-9.1,2.8c-1.2,0.5-2,0.8-2,0.8l-1.6,0.5l-0.3,0.1c-1.7,0.5-4.1,1.3-5,1.6
	c-1.4,0.5-13.5,3-13.5,3c-1.1,0.3-2.2,0.5-3.4,0.6c-2.8,0.2-5.7,0.3-8.5,0.2c-2.9,0.2-7.4-0.4-10.1-0.9l-0.4-0.1
	c-1-0.2-1.7-0.3-1.7-0.3l0.3-0.5l7.1-9.8l0,0l6.6-9.2l0.2-0.3l0.6-0.8c0,0,0.4-0.5,1.8-0.5c0.2,0,0.3,0,0.5,0
	c1.2,0.1,2.3,0.3,3.4,0.7l0.3,0.1c4.8,1.4,12.2,1,12.2,1s4.6-0.7,8.3-1.2l0.3,0c1.2-0.2,2.4-0.3,3.6-0.3c2.2,0,7-1.1,7-1.1
	c1-0.2,1.5-0.4,2-0.8c0.1,0,0.1-0.1,0.2-0.2c0.2-0.2,0.5-0.4,0.9-0.7c0.7-0.5,1.6-1.2,3.1-2.2c0.1-0.1,0.3-0.2,0.4-0.2
	s0.3-0.2,0.5-0.3c1.4-0.7,3-1.2,4.5-1.5c1.3-0.3,2.6-0.4,3.9-0.5h0.2c3.7-0.2,7.5,0.4,9.8,2.5c0.4,0.4,0.7,0.8,1,1.2
	c0.1,0.2,0.2,0.4,0.4,0.7c0.2,0.4,0.3,0.9,0.4,1.4c0,0.1,0,0.2,0,0.3c0,0,0,0,0,0.1c0,0.1,0,0.1,0,0.2
	C1075,240.7,1071.9,243.3,1068.1,245.5z"/>
<path class="st8" d="M995,259.2c0,0,8,1.5,12.2,1.2c0,0,7.7,0.4,11.9-0.8c0,0,12.2-2.5,13.5-3s6.8-2.1,6.8-2.1s10.6-4.4,13.6-3.7
	c0,0,23.4-6.1,21.7-14.2s-16.5-6.3-21.1-3.3c-4.6,3.1-4,3.4-6.3,3.9c0,0-4.8,1.2-7,1.1c-2.2,0-12.1,1.5-12.1,1.5s-7.8,0.4-12.6-1.1
	c-4.8-1.5-5.7-0.2-5.7-0.2L995,259.2z"/>
<path class="st6" d="M1012.4,238L1012.4,238c0,0.2-0.1,0.4-0.1,0.6c-0.9,2.3-6.4,8.6-6.4,8.6c-0.2,0.7-0.5,1.5-0.9,2.2
	c-0.7,1.5-1.6,3-2.6,4.3c-1.4,2.1-3,4-4.7,5.9h0c-0.2,0.1-0.4,0.3-0.7,0.4c-0.6,0.3-1.5,0.8-2.3,0.8c-0.1,0-0.3,0-0.4,0
	c0.1,0,0.2,0,0.2,0l-0.3-0.1l-0.4-0.1c-0.7-0.2-1.4-0.4-2.1-0.7l-0.4-0.1c-0.7-0.2-1.3-0.5-1.9-0.8l-0.4-0.2c-0.7-0.3-1.3-0.6-1.9-1
	c-0.2-0.1-0.4-0.2-0.7-0.4c-0.7-0.4-1.3-0.8-2-1.2c-0.7-0.4-1.4-0.9-2-1.4c-0.5-0.9-0.9-1.7-1.1-2.2c-0.4-0.8-0.4-2-0.4-2.8
	c0-0.1,0-0.2,0-0.2c0-0.5,0.1-0.9,0.1-0.9c-0.4-0.5-0.7-1-1-1.5c-0.2-0.3-0.3-0.6-0.3-0.9c0-0.1,0-0.2,0-0.4c-0.2-0.8-1-2.1-1.8-3
	c-0.6-0.6-0.6-3-0.5-4.6c0-1,0.1-1.7,0.1-1.7c-0.1-0.1-0.2-0.2-0.2-0.3c-0.2-0.5-0.3-1.1-0.4-1.7c0-0.1,0-0.2,0-0.2
	c-0.1-1.1-0.2-2.3-0.2-2.3c-1.8-1.3-2.7-3.4-3.1-5.3l0-0.2c-0.2-1.1-0.3-2.3-0.3-3.5c0-0.1,0-0.2,0-0.2s0,0,0,0s0.2-5.4,0.9-7.5
	c0-0.1,0-0.2,0.1-0.2c0-0.1,0.1-0.2,0.2-0.4c0.2-0.3,0.4-0.9,0.6-1.7c0.1-0.5,0.2-1.1,0.2-1.6c0-0.5,0.1-0.9,0.1-1.4
	c0.1-1.2,0.1-2.1,0.1-2.1l-0.4-2.3c-0.1-0.6-0.2-1.2-0.3-1.9c0-0.1,0-0.2,0-0.2c-0.1-1.1-0.1-2.3,0-3.5c0-0.1,0-0.2,0-0.2
	c0.2-2.6,0.9-5.2,2-7.6l0.1-0.2c0.2-0.3,0.3-0.6,0.5-1c0.1-0.2,0.3-0.5,0.4-0.7c0.4-0.6,0.8-1.2,1.2-1.8c0.1-0.1,0.1-0.2,0.2-0.2
	c0.8-1,1.6-1.8,2.6-2.7c2.5-2.2,4.8-3.1,6.9-3.2c9.1-0.3,14.3,15.8,15.1,18.7c0.1,0.3,0.1,0.4,0.1,0.4s3.7,3.7,2.6,5.3
	c-0.2,0.3-0.3,0.8-0.4,1.2c-0.3,2.2,0.5,5.8,0.5,5.8s0.3,1,1.2,3.4l0.3,0.7c0.5,1.5,0.7,4,0.4,6.2c-0.3,2.1-1,4-2.2,4.5
	c-2.4,1-1.7,2-1.2,2.8c0.3,0.6,0.6,1.2,0.8,1.8c0.3,0.9,0.6,1.9,0.8,2.3c0,0.1,0,0.2,0,0.2c0.3-0.1,0.7-0.2,1-0.3c0.4,0,0.9,0,1,0.4
	c0,0.2,0.3,0.4,0.7,0.7C1010.4,237.3,1012.4,238,1012.4,238z"/>
<path class="st5" d="M1011.9,238L1011.9,238c0,0.2-0.1,0.4-0.1,0.5c-0.9,2.3-6.4,8.7-6.4,8.7c-0.2,0.7-0.5,1.5-0.9,2.2
	c-0.6,1.2-1.3,2.4-2,3.5c-1.6,2.4-3.3,4.6-5.2,6.7l0,0c0,0-0.2,0.2-0.6,0.4c-0.6,0.4-1.3,0.7-2,0.8l-0.3-0.1l-0.4-0.1
	c-0.7-0.2-1.4-0.4-2.1-0.7l-0.4-0.1c-0.7-0.2-1.3-0.5-1.9-0.8l-0.4-0.2c-0.7-0.3-1.3-0.6-1.9-1c-0.2-0.1-0.4-0.2-0.7-0.4
	c-0.7-0.4-1.3-0.8-2-1.2c-0.7-0.4-1.4-0.9-2-1.4c-0.3-0.2-0.6-0.4-0.9-0.7c-0.3-0.6-0.6-1.2-0.8-1.5c-0.4-0.8-0.4-2-0.4-2.8
	c0-0.1,0-0.2,0-0.2c0-0.5,0.1-0.9,0.1-0.9s-0.2-0.3-0.4-0.6c-0.1-0.2-0.3-0.4-0.4-0.7c-0.2-0.4-0.4-0.9-0.4-1.1c0,0,0-0.1,0-0.1
	c0-0.1,0-0.2,0-0.2c-0.2-0.8-1-2.1-1.8-3c-0.6-0.6-0.6-3-0.5-4.6c0-0.1,0-0.2,0-0.2c0-0.9,0.1-1.5,0.1-1.5c-0.3-0.1-0.5-1-0.6-2
	l0-0.2c-0.1-1.1-0.2-2.3-0.2-2.3c-1.8-1.3-2.7-3.4-3.1-5.3c-0.3-1.3-0.4-2.6-0.3-4c0,0,0,0,0,0s0.2-5.4,0.9-7.5c0-0.1,0-0.2,0.1-0.2
	c0-0.1,0.1-0.2,0.2-0.4c0.4-0.5,0.6-1.8,0.8-3.1l0-0.2c0.2-1.7,0.3-3.4,0.3-3.4l-0.5-2.3c-0.1-0.6-0.2-1.2-0.3-1.9
	c0-0.1,0-0.2,0-0.2c-0.1-1.1-0.1-2.3,0-3.5c0-0.1,0-0.2,0-0.2c0.2-2.6,0.9-5.2,2-7.6c0-0.1,0.1-0.2,0.1-0.2c0.3-0.6,0.7-1.3,1.1-1.9
	c0.1-0.2,0.3-0.4,0.4-0.6c0.2-0.3,0.5-0.6,0.7-1l0.2-0.2c0.8-1,1.6-1.8,2.6-2.6c2.7-2.3,5.2-3.3,7.4-3.2
	c8.8,0.3,13.7,15.9,14.5,18.7c0.1,0.3,0.1,0.4,0.1,0.4s3.7,3.7,2.6,5.3c-0.2,0.3-0.3,0.8-0.4,1.2c-0.3,2.2,0.5,5.8,0.5,5.8
	s0.3,1,1.2,3.4c0.1,0.2,0.2,0.4,0.2,0.7c0.5,1.5,0.7,4,0.4,6.2c-0.3,2.2-1,4-2.2,4.5c-2.4,1-1.7,2-1.2,2.8c0.3,0.6,0.6,1.2,0.8,1.8
	c0.4,1.2,0.8,2.4,0.8,2.4c0.2-0.1,0.3-0.1,0.5-0.2c0.3-0.1,0.7-0.1,1.1-0.1c0.2,0,0.4,0.2,0.4,0.4c0.1,0.3,0.6,0.7,1.2,1
	C1010.2,237.3,1011,237.7,1011.9,238z"/>
<path class="st6" d="M979.2,214.1c0.9,0,10.1-3.6,12-2.4s13.6,9.1,13.6,9.1s-7.4-9.6-13.8-11.9S979.2,214.1,979.2,214.1z"/>
<path class="st6" d="M992.5,228.7c0,0,9.2,1.9,10.6,3.1L992.5,228.7z"/>
<path class="st6" d="M990.7,242.5c-0.1,0.1-3.5,7.6-3.2,7.6c0.3,0,3.1-4.5,3.1-4.5L990.7,242.5z"/>
<path class="st6" d="M997,233.5c0,0-2.7,0.9-2.4,1S996.9,233.9,997,233.5z"/>
<path class="st6" d="M994.2,244.8c0.4,0.9,1.9,3.8,2.2,3.4C996.8,247.7,994.2,244.8,994.2,244.8z"/>
<path class="st6" d="M1028.1,169.7l-0.4,0.5c0,0-3.1-2.2-4.3-3.3c-1.3-1.1-4.2,3.9-6.6,5.2s-6.3,1.7-6.3,1.7s-3.1-3.1-3-4
	c0.1-0.9-1.4-1.2-1.5-1.8s-0.6-2.4-1.4-3.4c-0.4-0.5-0.4-2-0.4-3.3c0.2,0,0.4-0.1,0.4-0.1c0.4-0.7,0.9-1.3,1.4-1.9
	c0.8-0.7,2.1-5.2,2.1-5.2c0.7-2.4,2.2-1.7,2.2-1.7c0,3.7,3.8,5.1,5.7,6.6c1.9,1.5,4.9,5.5,7.2,6.3
	C1025.1,166.3,1027.4,168.8,1028.1,169.7z"/>
<path class="st5" d="M1028.1,169.2l-0.4,0.5c0,0-3.1-2.2-4.3-3.3s-4.2,3.9-6.6,5.2c-2.4,1.4-6.3,1.7-6.3,1.7s-3.1-3.1-3-4
	c0.1-0.9-1.4-1.2-1.5-1.8s-0.6-2.4-1.4-3.4c-0.4-0.5-0.4-2-0.4-3.3l0.4-0.1c0.4-0.7,0.9-1.3,1.4-1.9c0.8-0.7,2.1-5.2,2.1-5.2
	c0.7-2.4,2.2-1.7,2.2-1.7c0,3.7,3.8,5.1,5.7,6.6c1.9,1.5,4.9,5.5,7.2,6.3C1025.1,165.8,1027.4,168.3,1028.1,169.2z"/>
<path class="st6" d="M1028.3,169.9c0,0-2.7,1.4-4.7,1.6c-0.3,0-0.5,0-0.8,0l0,0c0,0,2.3-1.7,4.4-2.1L1028.3,169.9z"/>
<path class="st6" d="M1033.7,177.2c0,0-3.4-1.3-4.5,0.7c0-0.9,0-1.7,0-1.7l3.6-0.7c0,0,0.3,0.6,0.8,1.5
	C1033.7,177.2,1033.7,177.2,1033.7,177.2z"/>
<path class="st10" d="M1022.8,171.4c0,0,4-2.4,6-2.2c2,0.2,6,0.4,6,0.4s-1.4,3.1-1.2,3.7c0.2,0.6,0.2,3.7,0.2,3.7s-4.1-1.6-4.7,1.4
	c0,0-2.2-3.3-3.7-4.3C1024.3,173.3,1023.4,172.4,1022.8,171.4z"/>
<path class="st6" d="M1045.5,174.2c-1.2,0-5.3-2.6-6.2-4.3c-0.9-1.7-2.2,0.2-3.4,0.8c-0.7,0.4-3.7-0.4-5.3-1.1
	c0.8-0.5,2.6-2.1,3.1-2.5c0.6-0.4,1.3-7.8,1.3-7.8c2.3-1.2,4.7,9.5,4.7,9.5s4.2,1.3,4.6,2.2c0.1,0.2,0.4,0.5,0.9,0.9
	C1045.7,173.2,1045.9,174.2,1045.5,174.2z"/>
<path class="st5" d="M1045.5,173.7c-1.2,0-5.3-2.6-6.2-4.3c-0.9-1.7-2.2,0.2-3.4,0.8c-0.7,0.4-3.1-0.4-4.7-1c0.8-0.5,2-2.2,2.5-2.5
	c0.6-0.4,1.3-7.8,1.3-7.8c2.3-1.2,4.7,9.5,4.7,9.5s4.2,1.3,4.6,2.2c0.1,0.2,0.4,0.5,0.9,0.9C1045.7,172.6,1045.9,173.7,1045.5,173.7
	z"/>
<path class="st15" d="M1061.5,252.8l39.3-32.8c0.4-0.3,0.9-0.5,1.4-0.5l14.7,0.4c0,0,1,0.7-0.5,2.4l-37.1,30.4
	c-0.4,0.3-0.9,0.5-1.4,0.5l-16,0.5c-0.3,0-0.6-0.2-0.6-0.5C1061.3,253.1,1061.4,252.9,1061.5,252.8z"/>
<path class="st8" d="M1080.5,248.8c0,0,8.6,12.3,18.1,0.9c9.5-11.4,6.8-17.4,3.9-17.7C1099.7,231.6,1083.4,244.1,1080.5,248.8z"/>
</svg>
