<?xml version="1.0" encoding="utf-8"?>
<!-- Generator: Adobe Illustrator 22.0.1, SVG Export Plug-In . SVG Version: 6.00 Build 0)  -->
<svg version="1.1" id="Layer_1" xmlns="http://www.w3.org/2000/svg" xmlns:xlink="http://www.w3.org/1999/xlink" x="0px" y="0px"
	 viewBox="0 0 1300 400" style="enable-background:new 0 0 1300 400;" xml:space="preserve">
<style type="text/css">
	.st0{fill:url(#SVGID_1_);stroke:#000000;stroke-width:1.6452;stroke-miterlimit:10;}
	.st1{opacity:0.1;fill:#D2ECF9;enable-background:new    ;}
	.st2{opacity:0.1;fill:#0D8CD8;enable-background:new    ;}
	.st3{opacity:0.1;fill:#E2F0F7;enable-background:new    ;}
	.st4{opacity:0.1;fill:#A3C3D3;enable-background:new    ;}
	.st5{fill:#CED7E7;}
	.st6{opacity:0.1;enable-background:new    ;}
	.st7{fill:#E5D4A8;}
	.st8{fill:#FFA2A2;}
	.st9{opacity:5.000000e-02;enable-background:new    ;}
	.st10{fill:#63667E;}
	.st11{fill:#BAAEAE;}
	.st12{opacity:0.1;}
	.st13{fill:#F7E5B7;}
	.st14{fill:#DDCEA8;}
	.st15{fill:#9CAFB5;}
</style>
<linearGradient id="SVGID_1_" gradientUnits="userSpaceOnUse" x1="2166.1709" y1="201" x2="2600" y2="201" gradientTransform="matrix(2.9966 0 0 1 -6491.0859 0)">
	<stop  offset="0" style="stop-color:#00354D"/>
	<stop  offset="0.4129" style="stop-color:#00364F"/>
	<stop  offset="0.5616" style="stop-color:#003C56"/>
	<stop  offset="0.6676" style="stop-color:#004561"/>
	<stop  offset="0.7534" style="stop-color:#005272"/>
	<stop  offset="0.8268" style="stop-color:#006388"/>
	<stop  offset="0.8918" style="stop-color:#0078A4"/>
	<stop  offset="0.9492" style="stop-color:#0091C3"/>
	<stop  offset="1" style="stop-color:#00ACE6"/>
	<stop  offset="1" style="stop-color:#0093C7"/>
	<stop  offset="1" style="stop-color:#0075A3"/>
	<stop  offset="1" style="stop-color:#005B83"/>
	<stop  offset="1" style="stop-color:#004567"/>
	<stop  offset="1" style="stop-color:#003351"/>
	<stop  offset="1" style="stop-color:#002540"/>
	<stop  offset="1" style="stop-color:#001B35"/>
	<stop  offset="1" style="stop-color:#00162E"/>
	<stop  offset="1" style="stop-color:#00142C"/>
</linearGradient>
<rect y="1" class="st0" width="1300" height="400"/>
<path class="st1" d="M72,252.5c6.6,13.6,20,22.7,33.9,28.7c11.1,4.8,22.9,7.9,34.9,9.3c2.3,0.3,4.6,0.5,6.9,0.6
	c5.9,0.4,11.8,0.4,17.8,0c3.5-0.2,7.1-0.6,10.6-1.1c12.3-1.8,24.2-5.3,35.6-10.3c3.3-1.5,6.5-3.1,9.6-4.8c5.2-2.9,10.2-6.2,15-9.8
	c1-0.8,2.1-1.6,3.1-2.5l0.4-0.3c0.8-0.7,1.6-1.3,2.4-2c1.3-1.1,2.8-2.2,4.3-3.1c0.1,0,0.2-0.1,0.3-0.2c0.3-0.2,0.6-0.3,0.8-0.4
	c0.6-0.3,1.2-0.6,1.8-0.8c2.9-1.1,5.9-1.5,9.1-1.4c0.5,0,1,0,1.5,0.1l0,0c0.7,0,1.4,0.1,2.2,0.2h0.3c2.3,0.3,4.6,0.8,6.8,1.5
	c3.4,1,6.8,2.2,10.3,3.4l0,0c1.5,0.5,2.9,0.9,4.4,1.3l0.3,0.1c2.1,0.6,4.2,1,6.4,1.3c4.9,0.6,9.8,0.2,14.5-1.2h0.2l0.3-0.1l0.4-0.1
	c0.7-0.2,1.4-0.4,2.1-0.7l0.4-0.1c0.7-0.2,1.3-0.5,1.9-0.8l0.4-0.2c0.7-0.3,1.3-0.6,1.9-1c0.2-0.1,0.4-0.2,0.7-0.4
	c0.7-0.4,1.3-0.8,2-1.2c0.7-0.4,1.4-0.9,2-1.4c0.3-0.2,0.6-0.4,0.9-0.7c1.7-1.3,3.3-2.8,4.8-4.3c0.1-0.1,0.1-0.2,0.2-0.2
	c0.4-0.4,0.8-0.9,1.2-1.3c0.1-0.2,0.3-0.3,0.4-0.5c0.4-0.5,0.9-1.1,1.3-1.7c0-0.1,0.1-0.2,0.2-0.2c1.7-2.3,3.1-4.9,4.2-7.6
	c0-0.1,0.1-0.2,0.1-0.2c0.3-0.8,0.6-1.7,0.9-2.6c0.1-0.4,0.2-0.7,0.3-1.1c0-0.1,0-0.2,0.1-0.3c1.3-5.4,1.5-11,1.5-16.6
	c0-0.6,0-1.3,0-1.9c0-9-0.2-18.2-1.5-27.1c0,0,0-0.1,0-0.2c-0.4-3-1-6-1.8-8.9c-0.8-3.1-1.8-6.1-3.1-9c-3.1-7.2-7.5-13.7-12.5-19.8
	c-6-7.3-12.8-14-20.4-19.6c-1.1-0.8-2.2-1.6-3.3-2.3l-0.5-0.3c-0.2-0.1-0.4-0.2-0.5-0.3l0,0c-0.4-0.2-0.7-0.5-1.1-0.7l-0.4-0.3
	l-0.8-0.5l-0.2-0.1l-0.4-0.2l-0.4-0.2c-0.5-0.3-1-0.6-1.5-0.9c-2.2-1.2-4.4-2.3-6.7-3.3c-0.7-0.3-1.3-0.6-2-0.8
	c-3.1-1.3-6.3-2.3-9.5-3.1c-1.2-0.3-2.4-0.6-3.6-0.8c-1.4-0.3-2.9-0.5-4.3-0.7c-2.3-0.3-4.6-0.5-6.9-0.5c-16.2-0.4-32.6,4.9-45.3,15
	c-5.1,4-9.6,8.8-15.3,11.9c-5,2.7-10.8,3.8-16.1,1.7c-4.4-1.7-7.2-2.6-12.2-2.4c-10.2,0.6-20.3,2.7-29.9,6.3
	c-0.4,0.1-0.8,0.3-1.2,0.4c-25,9.6-46.5,28.6-57.6,53c-0.3,0.6-0.6,1.3-0.9,2C67.1,219.1,64.7,237.3,72,252.5z"/>
<path class="st2" d="M284,166.6v94.1l0.3,0.1c2.1,0.6,4.2,1,6.4,1.3c4.9,0.6,9.8,0.2,14.5-1.2h0.2l0.3-0.1l0.4-0.1
	c0.7-0.2,1.4-0.4,2.1-0.7l0.4-0.1c0.7-0.2,1.3-0.5,1.9-0.8l0.4-0.2c0.7-0.3,1.3-0.6,1.9-1c0.2-0.1,0.4-0.2,0.7-0.4
	c0.7-0.4,1.3-0.8,2-1.2c0.7-0.4,1.4-0.9,2-1.4c0.3-0.2,0.6-0.4,0.9-0.7c1.7-1.3,3.3-2.8,4.8-4.3c0.1-0.1,0.1-0.2,0.2-0.2
	c0.4-0.4,0.8-0.9,1.2-1.3c0.1-0.2,0.3-0.3,0.4-0.5c0.4-0.5,0.9-1.1,1.3-1.7c0-0.1,0.1-0.2,0.2-0.2c1.7-2.3,3.1-4.9,4.2-7.6
	c0-0.1,0.1-0.2,0.1-0.2c0.3-0.8,0.6-1.7,0.9-2.6c0.1-0.4,0.2-0.7,0.3-1.1c0-0.1,0-0.2,0.1-0.3c1.4-5.4,1.5-11,1.5-16.6
	c0-0.6,0-1.3,0-1.9c0-9-0.2-18.2-1.5-27.1c0,0,0-0.1,0-0.2c-0.4-3-1-6-1.8-8.9H305v-12.8h-5.1v-10.3H289v10.3L284,166.6L284,166.6z"
	/>
<path class="st3" d="M72,252.5c6.6,13.6,20,22.7,33.9,28.7c11.1,4.8,22.9,7.9,34.9,9.3c2.3,0.3,4.6,0.5,6.9,0.6
	c5.9,0.4,11.8,0.4,17.8,0c3.5-0.2,7.1-0.6,10.6-1.1c12.3-1.8,24.2-5.3,35.6-10.3c3.3-1.5,6.5-3.1,9.6-4.8c5.2-2.9,10.2-6.2,15-9.8
	c1-0.8,2.1-1.6,3.1-2.5l0.4-0.3c0.8-0.7,1.6-1.3,2.4-2c1.3-1.1,2.8-2.2,4.3-3.1c0.1,0,0.2-0.1,0.3-0.2c0.3-0.2,0.6-0.3,0.8-0.4
	c0.6-0.3,1.2-0.6,1.8-0.8v-38.5h-46.1v8.6h-20.2v-62.7h-23.8v25.1h-11.8v-14.8h-9.7v-15.9h-4.5v-9.2c-0.4,0.1-0.8,0.3-1.2,0.4v8.8
	h-4.3v15.9h-9.7v14.8h-14.3v56.5H81v-41.1h-7.3C67.1,219.1,64.7,237.3,72,252.5z"/>
<rect x="165.5" y="172.5" class="st4" width="10.6" height="10.6"/>
<rect x="165.5" y="194.5" class="st4" width="10.6" height="10.6"/>
<rect x="165.5" y="216.6" class="st4" width="10.6" height="10.6"/>
<rect x="165.5" y="238.6" class="st4" width="10.6" height="10.6"/>
<rect x="165.5" y="260.7" class="st4" width="10.6" height="10.6"/>
<path class="st4" d="M165.4,282.7v8.4c3.5-0.2,7.1-0.6,10.6-1.1v-7.3H165.4L165.4,282.7z"/>
<rect x="208.7" y="230.9" class="st2" width="37.2" height="4.8"/>
<rect x="208.7" y="245.5" class="st2" width="37.2" height="4.8"/>
<path class="st4" d="M208.7,260.2v4.8h27.5c1-0.8,2.1-1.6,3.1-2.5l0.4-0.3c0.8-0.7,1.6-1.3,2.4-2H208.7z"/>
<path class="st4" d="M208.7,274.8v4.8h2.9c3.3-1.5,6.5-3.1,9.6-4.8H208.7z"/>
<rect x="140.8" y="201.3" class="st4" width="6.9" height="6.9"/>
<rect x="290.7" y="169" class="st2" width="6.9" height="6.9"/>
<rect x="290.7" y="185.1" class="st2" width="6.9" height="6.9"/>
<rect x="290.7" y="201.2" class="st2" width="6.9" height="6.9"/>
<rect x="290.7" y="217.3" class="st2" width="6.9" height="6.9"/>
<rect x="290.7" y="233.3" class="st2" width="6.9" height="6.9"/>
<rect x="290.7" y="249.4" class="st2" width="6.9" height="6.9"/>
<rect x="114.3" y="201.3" class="st4" width="6.9" height="6.9"/>
<rect x="140.8" y="218.3" class="st4" width="6.9" height="6.9"/>
<rect x="114.3" y="218.3" class="st4" width="6.9" height="6.9"/>
<rect x="140.8" y="235.4" class="st4" width="6.9" height="6.9"/>
<rect x="114.3" y="235.4" class="st4" width="6.9" height="6.9"/>
<rect x="140.8" y="252.5" class="st4" width="6.9" height="6.9"/>
<rect x="114.3" y="252.5" class="st4" width="6.9" height="6.9"/>
<rect x="140.8" y="269.6" class="st4" width="6.9" height="6.9"/>
<rect x="114.3" y="269.6" class="st4" width="6.9" height="6.9"/>
<polygon class="st4" points="147.7,291.1 147.7,286.6 140.7,286.6 140.7,290.5 "/>
<path class="st2" d="M332.1,188.3v4h-26.5v-4H332.1z M329.8,192h1.9v-3.5h-1.9V192z M327.4,192h1.9v-3.5h-1.9
	C327.4,188.6,327.4,192,327.4,192z M325.1,192h1.9v-3.5h-1.9V192z M322.7,192h1.9v-3.5h-1.9V192z M320.3,192h1.9v-3.5h-1.9V192z
	 M318,192h1.9v-3.5H318V192z M315.6,192h1.9v-3.5h-1.9V192z M313.3,192h1.9v-3.5h-1.9V192z M310.9,192h1.9v-3.5h-1.9V192z
	 M308.6,192h1.9v-3.5h-1.9V192z M306.1,192h2.1v-3.5h-2.1V192z"/>
<path class="st2" d="M332.1,199.8v4h-26.5v-4H332.1z M329.8,203.6h1.9v-3.5h-1.9V203.6z M327.4,203.6h1.9v-3.5h-1.9V203.6z
	 M325.1,203.6h1.9v-3.5h-1.9V203.6z M322.7,203.6h1.9v-3.5h-1.9V203.6z M320.3,203.6h1.9v-3.5h-1.9V203.6z M318,203.6h1.9v-3.5H318
	V203.6z M315.6,203.6h1.9v-3.5h-1.9V203.6z M313.3,203.6h1.9v-3.5h-1.9V203.6z M310.9,203.6h1.9v-3.5h-1.9V203.6z M308.6,203.6h1.9
	v-3.5h-1.9V203.6z M306.1,203.6h2.1v-3.5h-2.1V203.6z"/>
<path class="st2" d="M332.1,211.4v4h-26.5v-4H332.1z M329.8,215.1h1.9v-3.5h-1.9V215.1z M327.4,215.1h1.9v-3.5h-1.9V215.1z
	 M325.1,215.1h1.9v-3.5h-1.9V215.1z M322.7,215.1h1.9v-3.5h-1.9V215.1z M320.3,215.1h1.9v-3.5h-1.9V215.1z M318,215.1h1.9v-3.5H318
	V215.1z M315.6,215.1h1.9v-3.5h-1.9V215.1z M313.3,215.1h1.9v-3.5h-1.9V215.1z M310.9,215.1h1.9v-3.5h-1.9V215.1z M308.6,215.1h1.9
	v-3.5h-1.9V215.1z M306.1,215.1h2.1v-3.5h-2.1V215.1z"/>
<path class="st2" d="M332.1,222.9v4h-26.5v-4H332.1L332.1,222.9z M329.8,226.6h1.9v-3.5h-1.9V226.6z M327.4,226.6h1.9v-3.5h-1.9
	V226.6z M325.1,226.6h1.9v-3.5h-1.9V226.6z M322.7,226.6h1.9v-3.5h-1.9V226.6z M320.3,226.6h1.9v-3.5h-1.9V226.6z M318,226.6h1.9
	v-3.5H318V226.6z M315.6,226.6h1.9v-3.5h-1.9V226.6z M313.3,226.6h1.9v-3.5h-1.9V226.6z M310.9,226.6h1.9v-3.5h-1.9V226.6z
	 M308.6,226.6h1.9v-3.5h-1.9V226.6z M306.1,226.6h2.1v-3.5h-2.1V226.6z"/>
<path class="st2" d="M332,234.4c-0.1,0.4-0.2,0.7-0.3,1.1v-0.9h-1.9v3.5h1c0,0.1,0,0.2-0.1,0.2h-25.1v-4L332,234.4L332,234.4z
	 M327.4,238.1h1.9v-3.5h-1.9V238.1z M325.1,238.1h1.9v-3.5h-1.9V238.1z M322.7,238.1h1.9v-3.5h-1.9V238.1z M320.3,238.1h1.9v-3.5
	h-1.9V238.1z M318,238.1h1.9v-3.5H318V238.1z M315.6,238.1h1.9v-3.5h-1.9V238.1z M313.3,238.1h1.9v-3.5h-1.9V238.1z M310.9,238.1
	h1.9v-3.5h-1.9V238.1z M308.6,238.1h1.9v-3.5h-1.9V238.1z M306.1,238.1h2.1v-3.5h-2.1V238.1z"/>
<path class="st2" d="M326.5,245.9c0,0.1-0.1,0.2-0.2,0.2H325v1.7c-0.1,0.2-0.3,0.3-0.4,0.5v-2.2h-1.9v3.5h0.8
	c-0.1,0.1-0.1,0.2-0.2,0.2h-17.6v-4h20.8V245.9z M320.3,249.7h1.9v-3.5h-1.9V249.7z M318,249.7h1.9v-3.5H318V249.7z M315.6,249.7
	h1.9v-3.5h-1.9V249.7z M313.3,249.7h1.9v-3.5h-1.9V249.7z M310.9,249.7h1.9v-3.5h-1.9V249.7z M308.6,249.7h1.9v-3.5h-1.9V249.7z
	 M306.1,249.7h2.1v-3.5h-2.1V249.7z"/>
<path class="st2" d="M313.5,257.5c-0.2,0.1-0.4,0.2-0.7,0.4v-0.1h-1.9v1.1l-0.4,0.2v-1.3h-1.9v2.1l-0.4,0.1v-2.3h-2.1v3l-0.4,0.1
	v-3.4L313.5,257.5L313.5,257.5z"/>
<path class="st2" d="M231.9,153.9c0,0,5.9-0.3,5.2,3.8c0.1,0.4-0.1,0.9-0.5,1.1c0,0,0-0.3-0.6-0.2c-0.2,0-0.4,0-0.6,0
	c-0.3,0-0.6-0.1-0.8-0.3l0,0c0,0-1.7-0.7-2.3-3.4c0,0-0.5-0.6-0.4-0.7l1,0.4c0,0-0.3,0.7-0.1,1.3c0,0,0-1.3,0.2-1.3l0.5,0.2
	c0,0-0.6,1.3-0.1,2.2c0,0-0.2-1.5,0.3-2.1l0.7,0.4c0,0-0.7,1.3-0.2,2.4c0,0-0.1-1.6,0.4-2.3l0.6,0.5c0,0-0.6,1.3-0.2,2.2
	c0,0,0-1.9,0.4-2c0.2,0.2,0.4,0.4,0.6,0.7c0,0-0.4,0.9-0.2,1.4c0,0,0.2-1.3,0.3-1.3c0,0,0.5,0.8,0.6,1.4c0-0.5-0.2-1-0.5-1.5
	c0.3,0,0.6,0.2,0.8,0.4c0,0-0.1-0.6-1-0.6c0,0-0.4-0.6-0.6-0.7c0,0,0.9-0.1,1.4,0.2c0,0-0.5-0.5-1.6-0.3l-0.6-0.5c0,0,1.2-0.1,1.7,0
	c0,0-0.6-0.5-1.8-0.1l-0.7-0.4c0.5-0.1,1.1-0.2,1.6-0.1c0,0-0.6-0.3-1.8,0l-0.5-0.2c0,0,0.7-0.1,0.9-0.2c0.2,0,0.2-0.1,0.2-0.1
	c-0.5-0.1-0.9,0-1.4,0.1C232.9,154.4,231.9,154,231.9,153.9z"/>
<path class="st2" d="M247.4,174.1c0,0,2,5.6-2.2,6.1c-0.4,0.2-0.9,0.1-1.2-0.2c0,0,0.3-0.1,0-0.6c-0.1-0.2-0.2-0.4-0.2-0.6
	c-0.1-0.3,0-0.6,0.1-0.8l0,0c0,0,0.2-1.8,2.6-3.2c0,0,0.4-0.6,0.6-0.6l-0.1,1.1c0,0-0.8-0.1-1.3,0.3c0,0,1.2-0.3,1.3-0.1l-0.1,0.6
	c0,0-1.4-0.2-2.1,0.5c0,0,1.4-0.6,2.1-0.3l-0.2,0.8c0,0-1.4-0.3-2.3,0.4c0,0,1.5-0.6,2.3-0.3l-0.3,0.7c0,0-1.4-0.2-2.1,0.4
	c0,0,1.8-0.5,2.1-0.2c-0.1,0.3-0.3,0.6-0.5,0.8c0,0-1-0.1-1.4,0.2c0,0,1.2-0.2,1.3-0.1c0,0-0.6,0.8-1.2,1c0.5-0.2,0.9-0.5,1.3-0.9
	c0,0.3,0,0.6-0.2,0.9c0,0,0.5-0.2,0.3-1.1c0,0,0.5-0.6,0.5-0.7c0,0,0.3,0.8,0.2,1.4c0,0,0.4-0.6-0.2-1.6l0.3-0.7
	c0,0,0.5,1.1,0.5,1.6c0,0,0.3-0.7-0.4-1.8l0.2-0.8c0.2,0.5,0.4,1,0.6,1.5c0,0,0.1-0.7-0.5-1.7l0.1-0.5c0,0,0.3,0.7,0.4,0.9
	s0.1,0.2,0.1,0.2c0-0.5-0.2-0.9-0.5-1.3C247.3,175.2,247.4,174.1,247.4,174.1z"/>
<path class="st2" d="M208.2,169.4c0,0,2,5.6-2.2,6.1c-0.4,0.2-0.9,0.1-1.2-0.2c0,0,0.3-0.1,0-0.6c-0.1-0.2-0.2-0.4-0.2-0.6
	c-0.1-0.3,0-0.6,0.1-0.8l0,0c0,0,0.2-1.8,2.6-3.2c0,0,0.4-0.6,0.6-0.6l-0.1,1.1c0,0-0.8-0.1-1.3,0.3c0,0,1.2-0.3,1.3-0.1l-0.1,0.6
	c0,0-1.4-0.2-2.1,0.5c0,0,1.4-0.6,2.1-0.3l-0.2,0.8c0,0-1.4-0.3-2.3,0.4c0,0,1.5-0.6,2.3-0.3l-0.3,0.7c0,0-1.4-0.2-2.1,0.4
	c0,0,1.8-0.5,2.1-0.2c-0.1,0.3-0.3,0.6-0.5,0.8c0,0-1-0.1-1.4,0.2c0,0,1.2-0.2,1.3-0.1c0,0-0.6,0.8-1.2,1c0.5-0.2,0.9-0.5,1.3-0.9
	c0,0.3,0,0.6-0.2,0.9c0,0,0.5-0.2,0.3-1.1c0,0,0.5-0.6,0.5-0.7c0,0,0.3,0.8,0.2,1.4c0,0,0.4-0.6-0.2-1.6l0.3-0.7
	c0,0,0.5,1.1,0.5,1.6c0,0,0.3-0.7-0.4-1.8l0.2-0.8c0.2,0.5,0.4,1,0.6,1.5c0,0,0.1-0.7-0.5-1.7l0.1-0.5c0,0,0.3,0.7,0.4,0.9
	s0.1,0.2,0.1,0.2c0-0.5-0.2-0.9-0.5-1.3C208.1,170.5,208.1,169.4,208.2,169.4z"/>
<path class="st2" d="M264.3,214.9c0,0,2,5.6-2.2,6.1c-0.4,0.2-0.9,0.1-1.2-0.2c0,0,0.3-0.1,0-0.6c-0.1-0.2-0.2-0.4-0.2-0.6
	c-0.1-0.3,0-0.6,0.1-0.8l0,0c0,0,0.2-1.8,2.6-3.2c0,0,0.4-0.6,0.6-0.6l-0.1,1.1c0,0-0.8-0.1-1.3,0.3c0,0,1.2-0.3,1.3-0.1l-0.1,0.6
	c0,0-1.4-0.2-2.1,0.5c0,0,1.4-0.6,2.1-0.3l-0.2,0.8c0,0-1.4-0.3-2.3,0.4c0,0,1.5-0.6,2.3-0.3l-0.3,0.7c0,0-1.4-0.2-2.1,0.4
	c0,0,1.8-0.5,2.1-0.2c-0.1,0.3-0.3,0.6-0.5,0.8c0,0-1-0.2-1.4,0.2c0,0,1.3-0.2,1.3-0.1c0,0-0.6,0.8-1.2,1c0.5-0.2,0.9-0.5,1.3-0.9
	c0,0.3,0,0.6-0.2,0.9c0,0,0.5-0.2,0.3-1.1c0,0,0.5-0.6,0.5-0.7c0,0,0.3,0.8,0.2,1.4c0,0,0.4-0.6-0.2-1.6l0.3-0.7
	c0,0,0.5,1.1,0.5,1.6c0,0,0.3-0.7-0.4-1.8l0.2-0.8c0.2,0.5,0.4,1,0.6,1.5c0,0,0.1-0.7-0.5-1.7l0.1-0.5c0,0,0.3,0.7,0.4,0.9
	s0.1,0.2,0.1,0.2c0-0.5-0.2-0.9-0.5-1.3C264.1,216.1,264.2,214.9,264.3,214.9z"/>
<path class="st2" d="M272.3,162.4c0,0,2,5.6-2.2,6.1c-0.4,0.2-0.9,0.1-1.2-0.2c0,0,0.3-0.1,0-0.6c-0.1-0.2-0.2-0.4-0.2-0.6
	c-0.1-0.3,0-0.6,0.1-0.8l0,0c0,0,0.2-1.8,2.6-3.2c0,0,0.4-0.6,0.6-0.6l-0.1,1.1c0,0-0.8-0.1-1.3,0.3c0,0,1.2-0.3,1.3-0.1l-0.1,0.6
	c0,0-1.4-0.2-2.1,0.5c0,0,1.4-0.6,2.1-0.3l-0.2,0.8c0,0-1.4-0.3-2.3,0.4c0,0,1.5-0.6,2.3-0.3l-0.3,0.7c0,0-1.4-0.2-2.1,0.4
	c0,0,1.8-0.5,2.1-0.2c-0.1,0.3-0.3,0.6-0.5,0.8c0,0-1-0.1-1.4,0.2c0,0,1.2-0.2,1.3-0.1c0,0-0.6,0.8-1.2,1c0.5-0.2,0.9-0.5,1.3-0.9
	c0,0.3,0,0.6-0.2,0.9c0,0,0.5-0.2,0.3-1.1c0,0,0.5-0.6,0.5-0.7c0,0,0.3,0.8,0.2,1.4c0,0,0.4-0.6-0.2-1.6l0.3-0.7
	c0,0,0.5,1.1,0.5,1.6c0,0,0.3-0.7-0.4-1.8l0.2-0.8c0.2,0.5,0.4,1,0.6,1.5c0,0,0.1-0.7-0.5-1.7l0.1-0.5c0,0,0.3,0.7,0.4,0.9
	s0.1,0.2,0.1,0.2c0-0.5-0.2-0.9-0.5-1.3C272.2,163.5,272.3,162.4,272.3,162.4z"/>
<path class="st2" d="M257.3,192.8c0,0-1.6,5.7-5.3,3.7c-0.4-0.1-0.8-0.4-0.8-0.8c0,0,0.3,0.1,0.4-0.5c0-0.2,0.1-0.4,0.2-0.6
	c0.1-0.3,0.3-0.5,0.5-0.6l0,0c0,0,1.2-1.4,4-1.1c0,0,0.7-0.2,0.8-0.2l-0.7,0.8c0,0-0.6-0.5-1.2-0.5c0,0,1.2,0.4,1.1,0.6l-0.4,0.4
	c0,0-1-1-2-0.8c0,0,1.5,0.3,1.9,1l-0.6,0.5c0,0-1-1.1-2.2-1c0,0,1.6,0.4,2,1.1l-0.7,0.4c0,0-1-1-2-0.9c0,0,1.8,0.6,1.8,1
	c-0.3,0.2-0.6,0.3-0.9,0.4c0,0-0.7-0.7-1.3-0.6c0,0,1.1,0.6,1.1,0.7c0,0-1,0.2-1.5,0.1c0.5,0.1,1,0.1,1.6,0
	c-0.1,0.3-0.4,0.5-0.7,0.7c0,0,0.6,0.1,0.9-0.7c0,0,0.7-0.2,0.8-0.3c0,0-0.2,0.9-0.6,1.3c0,0,0.7-0.3,0.8-1.4l0.7-0.4
	c0,0-0.2,1.2-0.5,1.6c0,0,0.6-0.4,0.7-1.7l0.6-0.5c0,0.5-0.2,1.1-0.4,1.6c0,0,0.5-0.5,0.5-1.7l0.4-0.4c0,0-0.1,0.7-0.1,1
	c0,0.2,0,0.2,0,0.2c0.2-0.4,0.3-0.9,0.3-1.4C256.5,193.6,257.3,192.7,257.3,192.8z"/>
<path class="st2" d="M215,197.8c0,0-1.6,5.7-5.3,3.7c-0.4-0.1-0.8-0.4-0.8-0.8c0,0,0.3,0.1,0.4-0.5c0-0.2,0.1-0.4,0.2-0.6
	c0.1-0.3,0.3-0.5,0.6-0.6l0,0c0,0,1.2-1.4,4-1.1c0,0,0.7-0.3,0.8-0.2l-0.7,0.8c0,0-0.6-0.5-1.2-0.5c0,0,1.2,0.4,1.1,0.6l-0.4,0.4
	c0,0-1-1-2-0.8c0,0,1.5,0.3,1.9,1l-0.6,0.5c0,0-1-1.1-2.2-1c0,0,1.6,0.4,2,1.1l-0.7,0.4c0,0-1-1-2-0.9c0,0,1.8,0.6,1.8,1
	c-0.3,0.2-0.6,0.3-0.9,0.4c0,0-0.7-0.7-1.3-0.6c0,0,1.1,0.6,1.1,0.7c0,0-1,0.2-1.5,0.1c0.5,0.1,1,0.1,1.6,0
	c-0.1,0.3-0.4,0.5-0.7,0.7c0,0,0.6,0.1,0.9-0.7c0,0,0.7-0.2,0.8-0.3c0,0-0.2,0.9-0.6,1.3c0,0,0.7-0.3,0.8-1.4l0.7-0.4
	c0,0-0.2,1.2-0.5,1.6c0,0,0.6-0.4,0.7-1.7l0.6-0.5c0,0.5-0.2,1.1-0.4,1.6c0,0,0.5-0.5,0.5-1.7l0.4-0.4c0,0-0.1,0.7-0.1,1
	c0,0.2,0,0.2,0,0.2c0.2-0.4,0.3-0.9,0.3-1.4C214.2,198.7,214.9,197.8,215,197.8z"/>
<path class="st5" d="M230.9,255.2c0,0-12.9-4.3-10.2-19.7l16.4-4.2l3.8,12.6L230.9,255.2z"/>
<path class="st6" d="M240.8,243.8l-9.9,11.3c0,0-12.9-4.3-10.2-19.7L240.8,243.8z"/>
<path class="st7" d="M294.9,130.3c0,0-1.7,2.8-4.1,1.4c-2.4-1.4-0.1-5.3-0.1-5.3S295.2,125.8,294.9,130.3z"/>
<path class="st8" d="M229.6,234.7l-8.9,0.7l-16.6,0.1l13.1,16.1c0,0,4.2,0.2,5,0.8s12.9,0.3,12.9,0.3l1.9-8.3L229.6,234.7z"/>
<path class="st9" d="M229.6,234.7l-8.9,0.7l-16.6,0.1l13.1,16.1c0,0,4.2,0.2,5,0.8s12.9,0.3,12.9,0.3l1.9-8.3L229.6,234.7z"/>
<path class="st5" d="M238.6,191.4l-2.1,3.5l-0.4,6.2c0,0-1.4,5.2-2.5,6.8c-1.1,1.5-1.5,5.6-1.5,5.6s-0.4,3.8-1,4.6
	c-0.5,0.8-1.3,6.7-1.3,6.7s-4.8,9.6-9.1,10.7c0,0,21.5,7,10.2,19.7c0,0,8,2,9.9-0.3s6.9-35.7,6.9-35.7l-1.5-28.2L238.6,191.4z"/>
<path class="st9" d="M238.6,191.4l-2.1,3.5l-0.4,6.2c0,0-1.4,5.2-2.5,6.8c-1.1,1.5-1.5,5.6-1.5,5.6s-0.4,3.8-1,4.6
	c-0.5,0.8-1.3,6.7-1.3,6.7s-4.8,9.6-9.1,10.7c0,0,21.5,7,10.2,19.7c0,0,8,2,9.9-0.3s6.9-35.7,6.9-35.7l-1.5-28.2L238.6,191.4z"/>
<path class="st8" d="M264.7,157c0.6,3.1,0.4,6.4-0.5,9.4l3.4,9.6c0,0,25.5-14.2,23.3-17.6c-1.2-2-1.4-7.1-1.3-11.2
	c0.1-3.1,0.3-5.6,0.3-5.6s-31.3,3.1-27.1,10.2C263.7,153.4,264.4,155.2,264.7,157z"/>
<path class="st6" d="M262.7,151.8c0.9,1.6,1.6,3.4,2,5.2c9.6,3.1,20-1.1,24.8-9.8c0.1-3.1,0.3-5.6,0.3-5.6S258.6,144.7,262.7,151.8z
	"/>
<path class="st8" d="M250.1,136.4c0,11.6,9.4,21.1,21,21.1s21.1-9.4,21.1-21c0-4.4-1.3-8.6-3.9-12.2c-0.3-0.4-0.6-0.8-0.9-1.2
	c-1.9-2.3-4.2-4.1-6.8-5.5l0,0c-1.4-0.7-3-1.3-4.5-1.6c-11.3-2.7-22.7,4.3-25.4,15.7c-0.1,0.5-0.2,1-0.3,1.4
	C250.2,134.2,250.1,135.3,250.1,136.4z"/>
<path class="st5" d="M241.8,223c0.3,1.7-0.1,4.8-0.7,7.9c0,0.1,0,0.3-0.1,0.4c0,0.1-0.1,0.3-0.1,0.5c-0.3,1.3-0.6,2.7-0.9,3.9
	s-0.5,2.3-0.8,3.1c-0.3,1.3-0.6,2.1-0.6,2.1s0,0.8-0.1,2c0,0.7,0,1.6-0.1,2.6c0,0.3,0,0.6,0,0.9c0,0.5,0,1.1,0,1.6
	c0,0.2,0,0.3,0,0.5c0,0.6,0,1.2,0,1.8c0,0.8,0,1.7,0,2.5c0,0.3,0,0.6,0,0.9c0,0.8,0,1.5,0,2.2c0,1.9,0.1,3.4,0.3,3.8
	c0,0.1,0.1,0.3,0.1,0.5c0.2,0.8,0.4,1.6,0.5,2.4l0.4-0.3c0.8-0.7,1.6-1.3,2.4-2c1.3-1.1,2.8-2.2,4.3-3.1c0.1,0,0.2-0.1,0.3-0.2
	c0.3-0.2,0.6-0.3,0.8-0.4c0.6-0.3,1.2-0.6,1.8-0.8c2.9-1.1,5.9-1.5,9.1-1.4c1.2,0.5,2,0.8,2,0.8l1.6,0.5l0.3,0.1
	c1.7,0.5,4.1,1.3,5,1.6c1.4,0.5,13.5,3,13.5,3c1.1,0.3,2.2,0.5,3.4,0.6c2.1,0.6,4.2,1,6.4,1.3c4.9,0.6,9.8,0.2,14.5-1.2
	c0.1,0,0.3,0,0.4,0c-0.1,0-0.2,0-0.2,0l0.3-0.1l0.4-0.1c0.7-0.2,1.4-0.4,2.1-0.7l0.4-0.1c0.7-0.2,1.3-0.5,1.9-0.8l0.4-0.2
	c0.7-0.3,1.3-0.6,1.9-1c0.2-0.1,0.4-0.2,0.7-0.4c0.7-0.4,1.3-0.8,2-1.2c0.1-0.9,0.2-1.6,0.2-1.6l0.9-4.9v-0.2l0.7-3.5v-0.2l1.5-7.6
	v-0.2l0.7-3.5v-0.2l1.5-7.5v-0.2l0.7-3.5v-0.2l1.5-7.6v-0.2l0.7-3.5v-0.2l0.3-1.4l0.4-2.1c0,0,1.3-1.9,2.8-4.1l0.2-0.2
	c0.4-0.6,0.9-1.3,1.3-1.9c0.1-0.2,0.3-0.4,0.4-0.6c0.2-0.3,0.4-0.6,0.6-0.9l0.1-0.2l0,0c2.1-3.3,0.7-4.7,0.7-4.7s-0.9-1.2-2.1-2.8
	c0-0.1-0.1-0.2-0.2-0.2c-0.5-0.7-1-1.5-1.6-2.2l-0.4-0.6c-0.1-0.2-0.3-0.4-0.4-0.7c0-0.1-0.1-0.2-0.2-0.2c-1.1-1.7-2.1-3.1-2.3-3.6
	c-0.3-0.8-2.2-3.2-4.2-5.3c-1.5-1.7-3-3.1-3.7-3.5c-1.5-0.8-2.2-3.4-2.2-3.4s-3.4-1.2-3.8-2.1c-0.4-0.9-6.8-5-6.8-5
	s-2.6-1.6-3.6-2.6c-0.1-0.1-0.3-0.3-0.4-0.4c-0.3-0.6-2.7-1.2-3.7-1.4c-0.2,0-0.4-0.1-0.4-0.1c-0.4-0.7-0.9-1.3-1.4-1.9
	c-0.4-0.3-0.9-1.5-1.3-2.7c-0.4-1.3-0.8-2.5-0.8-2.5c-0.7-2.4-2.2-1.7-2.2-1.7c0,0.3,0,0.7-0.1,1l0,0c-0.6,3-3.9,4.2-5.6,5.6
	c-1.9,1.5-4.9,5.5-7.2,6.3c-1.9,0.7-4.2,3.2-4.9,4v0.1c-0.1,0.1-0.2,0.2-0.2,0.2s-1.3-0.1-2.1-0.1h-0.3c-0.2,0-0.3-0.1-0.4-0.2
	c-0.8-0.5-2-2.2-2.5-2.5c-0.6-0.4-1.3-7.8-1.3-7.8l0,0c-2.3-1-4.7,9.5-4.7,9.5s-4.2,1.3-4.6,2.2c-0.1,0.2-0.4,0.5-0.9,0.9
	c-2.2,1.7-4.5,3.2-7,4.4c0,0-0.1,0-0.1,0.1c0,0-0.1,0-0.1,0.1c-0.1,0-0.2,0.1-0.3,0.1c-0.1,0-0.2,0.1-0.4,0.1h-0.1
	c-0.3,0.1-0.7,0.3-1,0.5c-0.1,0.1-0.2,0.1-0.3,0.2c-0.3,0.3-0.6,0.6-0.9,0.9l-0.1,0.1l0,0c-0.2,0.2-0.3,0.5-0.5,0.7
	c-0.2,0.3-0.4,0.7-0.6,1c0,0-3.7,6.3-4.9,7c-1.2,0.7-1.9,8-1.9,8l0,0l4,14.7c0,0,0.2,3.7,0.5,7.5C241.3,219.3,241.5,221.4,241.8,223
	z"/>
<path class="st10" d="M271.7,169.9c0,0,2.7,1.4,4.7,1.6c0.3,0,0.5,0,0.8,0c2.2-0.3,5.4-2.1,5.4-2.1l-3.7-4.1l-4.6,2.3l-1.7,1.6
	L271.7,169.9z"/>
<path class="st6" d="M250.4,133.1c0.1,0.1,0.2,0.2,0.3,0.4c1.3,1.2,3.6,0.7,5.4,0.4c1.5-0.2,3.1-0.7,4.5-1.3
	c1.3-0.5,2.8-1.2,3.9-0.4c0.4,0.3,0.7,0.8,1.2,1c0.4,0.2,1,0.3,1.6,0.3c1.7,0,3.5,0,5.2-0.4c2.5-0.6,5.1-2.1,7.5-1.1
	c1.9,0.8,2.9,2.8,3.4,4.8c0.2,1,0.4,2,1,2.8s1.6,1.4,2.6,1c1.4-0.6,1.6-2.9,3.2-3c1.8-0.1,1.8,1.7,1.3,3.1c-0.8,2-1.8,4-1.8,6
	c3.9-7.1,3.5-15.8-1.2-22.4c-0.4-0.2-0.7-0.6-0.9-1c0,0,0-0.1,0-0.2c-0.1-0.7,0.2-1.4,0.3-2.1c0.1-1.8-1.8-3-3.6-3.2
	c-1.2-0.1-2.4,0-3.5-0.1l0,0c-0.6,0-1.2-0.1-1.7-0.2c-1-0.3-1.9-0.8-2.7-1.4c-11.3-2.7-22.7,4.3-25.4,15.7
	C250.6,132.1,250.5,132.6,250.4,133.1L250.4,133.1z"/>
<path class="st11" d="M249.9,131.6c0.1,0.5,0.4,0.9,0.7,1.3c1.3,1.2,3.6,0.7,5.4,0.4c1.5-0.2,3.1-0.7,4.5-1.3
	c1.3-0.5,2.8-1.2,3.9-0.4c0.4,0.3,0.7,0.8,1.2,1c0.4,0.2,1,0.3,1.6,0.3c1.7,0,3.5,0,5.2-0.4c2.5-0.6,5.1-2.1,7.5-1.1
	c1.9,0.8,2.9,2.8,3.4,4.8c0.2,1,0.4,2,1,2.8s1.6,1.4,2.6,1c1.4-0.6,1.6-2.9,3.2-3c1.8-0.1,1.8,1.7,1.3,3.1c-0.9,2.4-2.2,4.7-1.8,7.2
	c0.4,0,1.1,0,1.5,0c-0.3-0.5,0.3-1.2,0.9-1.3c0.6-0.2,1.3-0.2,1.7-0.6c0.4-0.4,0.4-1.1,0.4-1.7c-0.1-1.3-0.4-2.5-0.9-3.7
	c-0.3-0.7-0.7-1.5-0.5-2.3c0.1-0.3,0.3-0.7,0.5-1c0.5-1,0.4-2.2,0-3.3c-0.2-0.4-0.3-0.8-0.5-1.2c-0.2-0.5-0.5-1.1-0.8-1.5
	c-0.6-0.7-1.1-1.8-0.5-2.4c0.1-0.2-0.1-0.3,0-0.5v-0.1c0-0.3,0-0.5-0.2-0.7c0,0,0-0.1-0.1-0.2c0,0,0-0.1-0.1-0.2
	c-0.5-0.9-1.3-1.7-2.1-2.3c-0.5-0.4-1.2-0.8-1.4-1.4c-0.2-0.7,0.2-1.5,0.2-2.3c0.1-1.8-1.8-3-3.6-3.2s-3.6,0.1-5.3-0.3
	c-2.4-0.6-4.1-2.8-6.4-4c-2.5-1.3-5.4-1.4-7.9-0.3c-2.6,1.2-4.5,3.5-7.2,4.4c-0.9,0.3-2,0.4-2.9,1c-1,0.6-1.6,1.7-2.1,2.7
	c-0.8,1.6-0.9,3.2-1.5,4.9c-0.4,1.3-1,3.1-1.1,4.6C249.8,130.7,249.8,131.2,249.9,131.6z"/>
<g class="st12">
	<path d="M291,128.5c-0.1-0.3,0-0.7,0.2-0.9c-0.1,0.2,0.2,0.3,0,0.5C291.2,128.2,291.1,128.3,291,128.5z"/>
	<path d="M291.2,127L291.2,127c0,0.1,0,0.2,0,0.3C291.2,127.2,291.2,127.1,291.2,127z"/>
	<path d="M250.6,132.3c1.3,1.2,3.6,0.7,5.4,0.4c1.5-0.2,3.1-0.7,4.5-1.3c1.3-0.5,2.8-1.2,3.9-0.4c0.4,0.3,0.7,0.8,1.2,1
		c0.4,0.2,1,0.3,1.6,0.3c1.7,0,3.5,0,5.2-0.4c2.5-0.6,5.1-2.1,7.5-1.1c1.9,0.8,2.9,2.8,3.4,4.8c0.2,1,0.4,2,1,2.8s1.6,1.4,2.6,1
		c1.4-0.6,1.6-2.9,3.2-3c1.3-0.1,1.6,0.8,1.6,1.8c-0.1-0.8-0.5-1.4-1.6-1.3c-1.6,0.1-1.8,2.4-3.2,3c-0.9,0.4-2-0.2-2.6-1
		s-0.7-1.8-1-2.8c-0.5-2-1.5-4-3.4-4.8c-2.4-1-5,0.5-7.5,1.1c-1.7,0.4-3.4,0.4-5.2,0.4c-0.5,0-1.1,0-1.6-0.3s-0.7-0.7-1.2-1
		c-1.1-0.8-2.6-0.1-3.9,0.4c-1.4,0.6-3,1-4.5,1.3c-1.8,0.3-4.1,0.8-5.4-0.4c-0.7-0.7-0.9-1.7-0.9-2.7
		C249.8,131,250,131.7,250.6,132.3z"/>
	<path d="M287.6,119.9c0,0.1,0,0.2,0,0.4c0,0.5-0.2,1-0.3,1.5C287.2,121.2,287.5,120.6,287.6,119.9z"/>
	<path d="M292.6,137.5c0,0.1,0,0.1,0,0.2c0-0.2,0-0.5,0-0.8c0.1-0.3,0.3-0.7,0.5-1c0.2-0.4,0.3-0.8,0.3-1.2c0,0.6,0,1.2-0.3,1.7
		C292.9,136.8,292.8,137.2,292.6,137.5z"/>
	<path d="M289.5,146.7h1.5c-0.1,0.2,0,0.4,0,0.5c-0.4,0-1.1,0-1.5,0c-0.1-0.4-0.1-0.8-0.1-1.3C289.5,146.2,289.5,146.4,289.5,146.7z
		"/>
	<path d="M291.9,145.3c0.6-0.2,1.3-0.2,1.7-0.6c0.2-0.3,0.4-0.6,0.4-1c0,0.6,0,1.2-0.4,1.6c-0.4,0.4-1.1,0.4-1.7,0.6
		c-0.4,0.1-0.7,0.4-0.9,0.7C290.8,146.1,291.3,145.5,291.9,145.3z"/>
</g>
<path class="st6" d="M246.8,256.9c0.3-0.2,0.6-0.3,0.8-0.4c0.6-0.3,1.2-0.6,1.8-0.8c2.9-1.1,5.9-1.5,9.1-1.4c1.2,0.5,2,0.8,2,0.8
	l1.6,0.5l0.3,0.1c0-0.2,0-0.3,0-0.5s0-0.3,0-0.5c0.5-5.3,1-10.7,1-10.7v-4.7v-0.5V225l0.2-4.5l0.1-2v-0.4v-0.8v-0.5
	c0-0.1,0.1-0.3,0.1-0.4l0,0c0,0,0-0.1,0-0.2c0-0.2,0.1-0.6,0.2-0.9c0.4-2.3,1-6.1,1.1-6.9c0-1,0.9-7.3,0.9-7.3
	c0.1-3.4,3-9.9,3.7-11.1c0.7-1.2,1.5-8.5,1.3-8.9c-0.1-0.2-0.2-1.5-0.3-2.6c0-0.1,0-0.2,0-0.4c0-0.9,0-1.7,0-1.7l-2.8-0.5l-0.8-0.1
	l0,0l0,0c-0.1,0.1-0.3,0.6-0.6,1.3c0,0.1-0.1,0.1-0.1,0.2v0.1c-0.5,1.2-1.2,2.8-1.2,3.7c0,1.6-1.8,5.6-1.8,5.6
	c-0.2,0.9-4.1,9.9-4.1,9.9s-3.2,8.8-3,10.2s-1.5,11-1.5,11l-1.8,9.9c-0.9,1.9-2,6.4-2,6.4l-0.4,2.5l-0.1,0.5l-1.1,6.8l-0.6,3.3
	c0,0-0.2,1.8-0.6,3.7c0,0.2-0.1,0.3-0.1,0.5c-0.2,1.3-0.5,2.6-0.9,3.8C247,255.7,246.9,256.3,246.8,256.9z"/>
<path class="st10" d="M246.5,257.1c0.1,0,0.2-0.1,0.3-0.2c0.3-0.2,0.6-0.3,0.8-0.4c0.6-0.3,1.2-0.6,1.8-0.8c2.9-1.1,5.9-1.5,9.1-1.4
	c1.2,0.5,2,0.8,2,0.8l1.6,0.5c0-0.2,0-0.3,0-0.5s0-0.3,0-0.5c0.5-5.3,1-10.6,1-10.6v-4.7v-0.5v-13.7l0.2-4.3v-0.9v-0.6v-0.8v-0.8
	v-0.6V217l0,0c0-0.1,0.1-0.3,0.2-0.6v-0.1c0,0,0-0.1,0-0.2l0,0c0.5-2.1,1.1-6.7,1.2-7.5c0-1,0.9-7.3,0.9-7.3c0.1-3.4,3-9.9,3.7-11.1
	c0.7-1.2,1.5-8.5,1.3-8.9c-0.1-0.2-0.2-1.8-0.3-3c0-0.1,0-0.2,0-0.3c0-0.8,0-1.4,0-1.4l-2.6-0.5L267,176h-0.1h-0.2
	c0,0-0.3,0.6-0.7,1.4v0.1c-0.6,1.2-1.2,2.9-1.2,3.8c0,1.6-1.8,5.6-1.8,5.6c-0.2,0.9-4.1,9.9-4.1,9.9s-3.2,8.8-3,10.2s-1.5,11-1.5,11
	l-1.8,9.9c-0.9,1.9-2,6.4-2,6.4l-0.4,2.4l-0.1,0.5l-0.9,5.3l-0.8,4.9c0,0-0.2,1.8-0.6,3.7c0,0.2-0.1,0.3-0.1,0.5
	c-0.2,1.3-0.5,2.6-0.9,3.8C246.8,255.7,246.6,256.4,246.5,257.1z"/>
<path class="st13" d="M248.7,129.6c0,0,0.9,1.2,1.8,1.2c0.8,0,4.2-0.1,5.9-0.7c1.7-0.5,10.2-0.9,10.2-0.9s12.1,0,12.5-0.4
	s7.5-2.6,8.2-2.4c0.1,0,0.5,0.1,1,0.2l0.6,0.1c0.8,0.1,1.9,0.3,2.9,0.4c1.2,0.1,2.3,0.2,2.6,0.1v-1c0,0-1.4-2-1.5-2.6
	s-1.3-9-4.3-12.1c-1.3-2.4-3.3-4.3-5.8-5.5c-4.2-1.8-8.3-3.4-8.3-3.4l-0.7-0.1l-2.4-0.3c-0.1-0.1-0.1-0.1-0.2-0.2
	c-0.6-0.5-2.6-1.6-5.2,0.7l-0.4,0.7c0,0-7.9,1.9-11.6,8.3c-3.6,6.5-3.8,12.8-4.1,15.7c0,0,0.2,0.8-0.2,1.1c-0.1,0.1-0.2,0.2-0.4,0.4
	l-0.1,0.1c-0.1,0.1-0.2,0.2-0.3,0.3l0,0c0,0,0,0,0,0.1L248.7,129.6z"/>
<path class="st9" d="M248.7,129.6c0,0,0.9,1.2,1.8,1.2c0.8,0,4.2-0.1,5.9-0.7c1.7-0.5,10.2-0.9,10.2-0.9s12.1,0,12.5-0.4
	s7.5-2.6,8.2-2.4c0.1,0,0.5,0.1,1,0.2l0.1-0.8v-0.2c0,0-13.7-2.9-22.8-1.4s-15.9,3.3-15.9,3.3s0.2,0.8-0.2,1.1
	c-0.1,0.1-0.2,0.2-0.4,0.4l-0.1,0.1c-0.1,0.1-0.2,0.2-0.3,0.3l0,0C248.7,129.4,248.7,129.4,248.7,129.6L248.7,129.6z"/>
<path class="st6" d="M249.9,131.6c1.7,0.1,4.8-0.3,6.2-0.5c0.4,0,0.8-0.1,1.1-0.2c1.5-0.3,6-1.2,8.7-0.8c3.3,0.5,12.6-0.4,12.6-0.4
	s5.7-1.2,8-2.1c0.8-0.3,2.3-0.5,3.7-0.3c0.3,0,0.7,0.1,1.1,0.2c1.9,0.4,3.5,1.5,3.3,3.3c0.1-0.1,0.2-0.3,0.3-0.4
	c0.1-1.6-0.4-2.6-1.1-3.2l0,0l-0.2-0.1c-0.8-0.2-1.7-0.4-2.6-0.5c-0.1,0-0.3,0-0.4,0c-2.5-0.3-6-0.4-9.1,1.1c0,0-2.8,1.3-4.7,1.3
	c-1.9,0-17.3,0.1-21,1.2c-0.7,0.2-1.5,0.4-2.2,0.5c-1.3,0.2-2.7,0-3.9-0.4C249.8,130.7,249.8,131.2,249.9,131.6z"/>
<path class="st6" d="M248.7,129.6c0,0,0.9,1.2,1.8,1.2c0.8,0,4.2-0.1,5.9-0.7c1.7-0.5,10.2-0.9,10.2-0.9s12.1,0,12.5-0.4
	s7.5-2.6,8.2-2.4c0.1,0,0.5,0.1,1,0.2l0.6,0.1c1,0,2,0.1,2.9,0.4c1.2,0.1,2.3,0.2,2.6,0.1V127c-0.2-0.1-0.5-0.3-0.8-0.4
	c-1.7-0.5-3.4-0.7-5.1-0.8c-2.2-0.1-4.7,0.2-6.9,1.3c0,0-2.8,1.3-4.7,1.3c-1.9,0-17.3,0.1-21,1.2c-0.7,0.2-1.5,0.4-2.2,0.5
	c-1.6,0.2-3.3,0-4.8-0.7l0,0c0,0,0,0,0,0.1L248.7,129.6z"/>
<path class="st14" d="M294.5,130.7c0,0,3-2.3-0.9-3.8c0,0-6.9-2.1-12.1,0.5c0,0-2.8,1.3-4.7,1.3c-1.9,0-17.3,0.1-21,1.2
	c-0.7,0.2-1.5,0.4-2.2,0.5c-1.9,0.2-3.9-0.1-5.6-1.1c-0.2-0.1-0.5-0.2-0.5-0.1c-0.2,0.3,0,1.9,1.9,2.2c1.5,0.2,5.1-0.2,6.6-0.4
	c0.4,0,0.8-0.1,1.1-0.2c1.5-0.3,6-1.2,8.7-0.8c3.3,0.5,12.6-0.4,12.6-0.4s5.7-1.2,8-2.1C288.9,126.3,295.4,127.2,294.5,130.7z"/>
<path class="st6" d="M269,106.5c0.2-0.3,3.4-2.9,4.7-3.9l-2.4-0.3c-0.1-0.1-0.1-0.1-0.2-0.2C269.5,103.8,269,106.5,269,106.5z"/>
<polygon class="st6" points="279.4,120.2 280.4,121.7 276.4,121.6 276.3,119.9 "/>
<polygon class="st6" points="255.1,122 254.7,123.4 252.1,123.8 253.2,122.2 "/>
<path class="st6" d="M298.6,169c-0.3,0.4-9.2,12.2-11.5,11.8C284.7,180.5,298.6,169,298.6,169z"/>
<path class="st6" d="M268.8,179.7c0,0-2.2,2.1-1.9,2.9C267.2,183.4,268.8,179.7,268.8,179.7z"/>
<path class="st6" d="M292.4,194c0,0,1.9,8.9,0.9,9.2C292.3,203.5,292.4,194,292.4,194z"/>
<path class="st6" d="M268,228.6c-0.3,0.9-2.9,6.8-3.5,7.1C263.9,236,268,228.6,268,228.6z"/>
<path class="st6" d="M237.6,204.4c0.1,0.3,2.4,2.2,1.9,2.9C238.9,208,237.6,204.4,237.6,204.4z"/>
<path class="st6" d="M255.1,220.9c0,0.2,0.5,5-0.4,5.9C253.9,227.7,255.1,220.9,255.1,220.9z"/>
<path class="st6" d="M231.9,245.5c0.6,0.4,1.3,0.7,2,1c0.7,0.4,1.5,0.7,2.3,1c0.3,0.1,0.6,0.2,0.9,0.4c0.4,0.2,0.9,0.4,1.4,0.5
	c1.4,0.5,2.7,1,3.8,1.4c0.4,0.1,0.9,0.3,1.3,0.4c2,0.6,3.4,1,3.4,1c0.3-0.1,0.6-0.1,0.9-0.1c0.1,0,0.2,0,0.3,0
	c0.4,0,0.8,0.1,1.2,0.1c2.8,0.5,6.7,1.9,9.1,2.8c1.2,0.5,2,0.8,2,0.8l1.6,0.5l0.3,0.1c1.7,0.5,4.1,1.3,5,1.6c1.4,0.5,13.5,3,13.5,3
	c1.1,0.3,2.2,0.5,3.4,0.6c2.8,0.2,5.7,0.3,8.5,0.2c2.9,0.2,7.4-0.4,10.1-0.9l0.4-0.1c1-0.2,1.7-0.3,1.7-0.3l-0.3-0.5l-7.1-9.8l0,0
	L291,240l-0.2-0.3l-0.6-0.8c0,0-0.4-0.5-1.8-0.5c-0.2,0-0.3,0-0.5,0c-1.2,0.1-2.3,0.3-3.4,0.7l-0.3,0.1c-4.8,1.4-12.2,1-12.2,1
	s-4.6-0.7-8.3-1.2h-0.3c-1.2-0.2-2.4-0.3-3.6-0.3c-2.2,0-7-1.1-7-1.1c-1-0.2-1.5-0.4-2-0.8c-0.1,0-0.1-0.1-0.2-0.2
	c-0.2-0.2-0.5-0.4-0.9-0.7c-0.7-0.5-1.6-1.2-3.1-2.2c-0.1-0.1-0.3-0.2-0.4-0.2s-0.3-0.2-0.5-0.3c-1.4-0.7-3-1.2-4.5-1.5
	c-1.3-0.3-2.6-0.4-3.9-0.5h-0.2c-3.7-0.2-7.5,0.4-9.8,2.5c-0.4,0.4-0.7,0.8-1,1.2c-0.1,0.2-0.2,0.4-0.4,0.7
	c-0.2,0.4-0.3,0.9-0.4,1.4c0,0.1,0,0.2,0,0.3c0,0,0,0,0,0.1s0,0.1,0,0.2C225,240.7,228.1,243.3,231.9,245.5z"/>
<path class="st8" d="M305,259.2c0,0-8,1.5-12.2,1.2c0,0-7.7,0.4-11.9-0.8c0,0-12.2-2.5-13.5-3s-6.8-2.1-6.8-2.1s-10.6-4.4-13.6-3.7
	c0,0-23.4-6.1-21.7-14.2s16.5-6.3,21.1-3.3c4.6,3.1,4,3.4,6.3,3.9c0,0,4.8,1.2,7,1.1c2.2,0,12.1,1.5,12.1,1.5s7.8,0.4,12.6-1.1
	s5.7-0.2,5.7-0.2L305,259.2z"/>
<path class="st6" d="M287.6,238L287.6,238c0,0.2,0.1,0.4,0.1,0.6c0.9,2.3,6.4,8.6,6.4,8.6c0.2,0.7,0.5,1.5,0.9,2.2
	c0.7,1.5,1.6,3,2.6,4.3c1.4,2.1,3,4,4.7,5.9l0,0c0.2,0.1,0.4,0.3,0.7,0.4c0.6,0.3,1.5,0.8,2.3,0.8c0.1,0,0.3,0,0.4,0
	c-0.1,0-0.2,0-0.2,0l0.3-0.1l0.4-0.1c0.7-0.2,1.4-0.4,2.1-0.7l0.4-0.1c0.7-0.2,1.3-0.5,1.9-0.8l0.4-0.2c0.7-0.3,1.3-0.6,1.9-1
	c0.2-0.1,0.4-0.2,0.7-0.4c0.7-0.4,1.3-0.8,2-1.2c0.7-0.4,1.4-0.9,2-1.4c0.5-0.9,0.9-1.7,1.1-2.2c0.4-0.8,0.4-2,0.4-2.8
	c0-0.1,0-0.2,0-0.2c0-0.5-0.1-0.9-0.1-0.9c0.4-0.5,0.7-1,1-1.5c0.2-0.3,0.3-0.6,0.3-0.9c0-0.1,0-0.2,0-0.4c0.2-0.8,1-2.1,1.8-3
	c0.6-0.6,0.6-3,0.5-4.6c0-1-0.1-1.7-0.1-1.7c0.1-0.1,0.2-0.2,0.2-0.3c0.2-0.5,0.3-1.1,0.4-1.7c0-0.1,0-0.2,0-0.2
	c0.1-1.1,0.2-2.3,0.2-2.3c1.8-1.3,2.7-3.4,3.1-5.3v-0.2c0.2-1.1,0.3-2.3,0.3-3.5c0-0.1,0-0.2,0-0.2l0,0c0,0-0.2-5.4-0.9-7.5
	c0-0.1,0-0.2-0.1-0.2c0-0.1-0.1-0.2-0.2-0.4c-0.2-0.3-0.4-0.9-0.6-1.7c-0.1-0.5-0.2-1.1-0.2-1.6s-0.1-0.9-0.1-1.4
	c-0.1-1.2-0.1-2.1-0.1-2.1l0.4-2.3c0.1-0.6,0.2-1.2,0.3-1.9c0-0.1,0-0.2,0-0.2c0.1-1.1,0.1-2.3,0-3.5c0-0.1,0-0.2,0-0.2
	c-0.2-2.6-0.9-5.2-2-7.6l-0.1-0.2c-0.2-0.3-0.3-0.6-0.5-1c-0.1-0.2-0.3-0.5-0.4-0.7c-0.4-0.6-0.8-1.2-1.2-1.8
	c-0.1-0.1-0.1-0.2-0.2-0.2c-0.8-1-1.6-1.8-2.6-2.7c-2.5-2.2-4.8-3.1-6.9-3.2c-9.1-0.3-14.3,15.8-15.1,18.7c-0.1,0.3-0.1,0.4-0.1,0.4
	s-3.7,3.7-2.6,5.3c0.2,0.3,0.3,0.8,0.4,1.2c0.3,2.2-0.5,5.8-0.5,5.8s-0.3,1-1.2,3.4l-0.3,0.7c-0.5,1.5-0.7,4-0.4,6.2
	c0.3,2.1,1,4,2.2,4.5c2.4,1,1.7,2,1.2,2.8c-0.3,0.6-0.6,1.2-0.8,1.8c-0.3,0.9-0.6,1.9-0.8,2.3c0,0.1,0,0.2,0,0.2
	c-0.3-0.1-0.7-0.2-1-0.3c-0.4,0-0.9,0-1,0.4c0,0.2-0.3,0.4-0.7,0.7C289.6,237.3,287.6,238,287.6,238z"/>
<path class="st5" d="M288.1,238L288.1,238c0,0.2,0.1,0.4,0.1,0.5c0.9,2.3,6.4,8.7,6.4,8.7c0.2,0.7,0.5,1.5,0.9,2.2
	c0.6,1.2,1.3,2.4,2,3.5c1.6,2.4,3.3,4.6,5.2,6.7l0,0c0,0,0.2,0.2,0.6,0.4c0.6,0.4,1.3,0.7,2,0.8l0.3-0.1l0.4-0.1
	c0.7-0.2,1.4-0.4,2.1-0.7l0.4-0.1c0.7-0.2,1.3-0.5,1.9-0.8l0.4-0.2c0.7-0.3,1.3-0.6,1.9-1c0.2-0.1,0.4-0.2,0.7-0.4
	c0.7-0.4,1.3-0.8,2-1.2c0.7-0.4,1.4-0.9,2-1.4c0.3-0.2,0.6-0.4,0.9-0.7c0.3-0.6,0.6-1.2,0.8-1.5c0.4-0.8,0.4-2,0.4-2.8
	c0-0.1,0-0.2,0-0.2c0-0.5-0.1-0.9-0.1-0.9s0.2-0.3,0.4-0.6c0.1-0.2,0.3-0.4,0.4-0.7c0.2-0.4,0.4-0.9,0.4-1.1v-0.1c0-0.1,0-0.2,0-0.2
	c0.2-0.8,1-2.1,1.8-3c0.6-0.6,0.6-3,0.5-4.6c0-0.1,0-0.2,0-0.2c0-0.9-0.1-1.5-0.1-1.5c0.3-0.1,0.5-1,0.6-2v-0.2
	c0.1-1.1,0.2-2.3,0.2-2.3c1.8-1.3,2.7-3.4,3.1-5.3c0.3-1.3,0.4-2.6,0.3-4l0,0c0,0-0.2-5.4-0.9-7.5c0-0.1,0-0.2-0.1-0.2
	c0-0.1-0.1-0.2-0.2-0.4c-0.4-0.5-0.6-1.8-0.8-3.1v-0.2c-0.2-1.7-0.3-3.4-0.3-3.4l0.5-2.3c0.1-0.6,0.2-1.2,0.3-1.9c0-0.1,0-0.2,0-0.2
	c0.1-1.1,0.1-2.3,0-3.5c0-0.1,0-0.2,0-0.2c-0.2-2.6-0.9-5.2-2-7.6c0-0.1-0.1-0.2-0.1-0.2c-0.3-0.6-0.7-1.3-1.1-1.9
	c-0.1-0.2-0.3-0.4-0.4-0.6c-0.2-0.3-0.5-0.6-0.7-1l-0.2-0.2c-0.8-1-1.6-1.8-2.6-2.6c-2.7-2.3-5.2-3.3-7.4-3.2
	c-8.8,0.3-13.7,15.9-14.5,18.7c-0.1,0.3-0.1,0.4-0.1,0.4s-3.7,3.7-2.6,5.3c0.2,0.3,0.3,0.8,0.4,1.2c0.3,2.2-0.5,5.8-0.5,5.8
	s-0.3,1-1.2,3.4c-0.1,0.2-0.2,0.4-0.2,0.7c-0.5,1.5-0.7,4-0.4,6.2s1,4,2.2,4.5c2.4,1,1.7,2,1.2,2.8c-0.3,0.6-0.6,1.2-0.8,1.8
	c-0.4,1.2-0.8,2.4-0.8,2.4c-0.2-0.1-0.3-0.1-0.5-0.2c-0.3-0.1-0.7-0.1-1.1-0.1c-0.2,0-0.4,0.2-0.4,0.4c-0.1,0.3-0.6,0.7-1.2,1
	C289.8,237.3,289,237.7,288.1,238z"/>
<path class="st6" d="M320.8,214.1c-0.9,0-10.1-3.6-12-2.4s-13.6,9.1-13.6,9.1s7.4-9.6,13.8-11.9S320.8,214.1,320.8,214.1z"/>
<path class="st6" d="M307.5,228.7c0,0-9.2,1.9-10.6,3.1L307.5,228.7z"/>
<path class="st6" d="M309.3,242.5c0.1,0.1,3.5,7.6,3.2,7.6s-3.1-4.5-3.1-4.5L309.3,242.5z"/>
<path class="st6" d="M303,233.5c0,0,2.7,0.9,2.4,1S303.1,233.9,303,233.5z"/>
<path class="st6" d="M305.8,244.8c-0.4,0.9-1.9,3.8-2.2,3.4C303.2,247.7,305.8,244.8,305.8,244.8z"/>
<path class="st6" d="M271.9,169.7l0.4,0.5c0,0,3.1-2.2,4.3-3.3c1.3-1.1,4.2,3.9,6.6,5.2s6.3,1.7,6.3,1.7s3.1-3.1,3-4
	s1.4-1.2,1.5-1.8s0.6-2.4,1.4-3.4c0.4-0.5,0.4-2,0.4-3.3c-0.2,0-0.4-0.1-0.4-0.1c-0.4-0.7-0.9-1.3-1.4-1.9c-0.8-0.7-2.1-5.2-2.1-5.2
	c-0.7-2.4-2.2-1.7-2.2-1.7c0,3.7-3.8,5.1-5.7,6.6s-4.9,5.5-7.2,6.3C274.9,166.3,272.6,168.8,271.9,169.7z"/>
<path class="st5" d="M271.9,169.2l0.4,0.5c0,0,3.1-2.2,4.3-3.3s4.2,3.9,6.6,5.2c2.4,1.4,6.3,1.7,6.3,1.7s3.1-3.1,3-4
	s1.4-1.2,1.5-1.8s0.6-2.4,1.4-3.4c0.4-0.5,0.4-2,0.4-3.3l-0.4-0.1c-0.4-0.7-0.9-1.3-1.4-1.9c-0.8-0.7-2.1-5.2-2.1-5.2
	c-0.7-2.4-2.2-1.7-2.2-1.7c0,3.7-3.8,5.1-5.7,6.6s-4.9,5.5-7.2,6.3C274.9,165.8,272.6,168.3,271.9,169.2z"/>
<path class="st6" d="M271.7,169.9c0,0,2.7,1.4,4.7,1.6c0.3,0,0.5,0,0.8,0l0,0c0,0-2.3-1.7-4.4-2.1L271.7,169.9z"/>
<path class="st6" d="M266.3,177.2c0,0,3.4-1.3,4.5,0.7c0-0.9,0-1.7,0-1.7l-3.6-0.7c0,0-0.3,0.6-0.8,1.5
	C266.3,177.2,266.3,177.2,266.3,177.2z"/>
<path class="st10" d="M277.2,171.4c0,0-4-2.4-6-2.2s-6,0.4-6,0.4s1.4,3.1,1.2,3.7c-0.2,0.6-0.2,3.7-0.2,3.7s4.1-1.6,4.7,1.4
	c0,0,2.2-3.3,3.7-4.3C275.7,173.3,276.6,172.4,277.2,171.4z"/>
<path class="st6" d="M254.5,174.2c1.2,0,5.3-2.6,6.2-4.3c0.9-1.7,2.2,0.2,3.4,0.8c0.7,0.4,3.7-0.4,5.3-1.1c-0.8-0.5-2.6-2.1-3.1-2.5
	c-0.6-0.4-1.3-7.8-1.3-7.8c-2.3-1.2-4.7,9.5-4.7,9.5s-4.2,1.3-4.6,2.2c-0.1,0.2-0.4,0.5-0.9,0.9
	C254.3,173.2,254.1,174.2,254.5,174.2z"/>
<path class="st5" d="M254.5,173.7c1.2,0,5.3-2.6,6.2-4.3c0.9-1.7,2.2,0.2,3.4,0.8c0.7,0.4,3.1-0.4,4.7-1c-0.8-0.5-2-2.2-2.5-2.5
	c-0.6-0.4-1.3-7.8-1.3-7.8c-2.3-1.2-4.7,9.5-4.7,9.5s-4.2,1.3-4.6,2.2c-0.1,0.2-0.4,0.5-0.9,0.9
	C254.3,172.6,254.1,173.7,254.5,173.7z"/>
<path class="st15" d="M238.5,252.8L199.2,220c-0.4-0.3-0.9-0.5-1.4-0.5l-14.7,0.4c0,0-1,0.7,0.5,2.4l37.1,30.4
	c0.4,0.3,0.9,0.5,1.4,0.5l16,0.5c0.3,0,0.6-0.2,0.6-0.5C238.7,253.1,238.6,252.9,238.5,252.8z"/>
<path class="st8" d="M219.5,248.8c0,0-8.6,12.3-18.1,0.9c-9.5-11.4-6.8-17.4-3.9-17.7C200.3,231.6,216.6,244.1,219.5,248.8z"/>
</svg>
