<?xml version="1.0" encoding="utf-8"?>
<!-- Generator: Adobe Illustrator 22.0.1, SVG Export Plug-In . SVG Version: 6.00 Build 0)  -->
<svg version="1.1" id="Layer_1" xmlns="http://www.w3.org/2000/svg" xmlns:xlink="http://www.w3.org/1999/xlink" x="0px" y="0px"
	 viewBox="0 0 1300 400" style="enable-background:new 0 0 1300 400;" xml:space="preserve">
<style type="text/css">
	.st0{fill:url(#SVGID_1_);stroke:#000000;stroke-width:1.6452;stroke-miterlimit:10;}
	.st1{opacity:0.1;fill:#0D8CD8;enable-background:new    ;}
	.st2{fill:#CED7E7;}
	.st3{opacity:0.1;enable-background:new    ;}
	.st4{fill:#FED253;}
	.st5{fill:#FFA2A2;}
	.st6{opacity:5.000000e-02;enable-background:new    ;}
	.st7{fill:#63667E;}
	.st8{fill:#896363;}
	.st9{opacity:0.1;}
	.st10{fill:#0D8CD8;}
</style>
<linearGradient id="SVGID_1_" gradientUnits="userSpaceOnUse" x1="9.094947e-13" y1="200" x2="79.8469" y2="200" gradientTransform="matrix(-16.2812 0 0 1 1300 0)">
	<stop  offset="0" style="stop-color:#007194"/>
	<stop  offset="1" style="stop-color:#41C1C9"/>
</linearGradient>
<rect class="st0" width="1300" height="400"/>
<path class="st1" d="M89.6,269.2c8,15.9,24.3,26.6,41.2,33.6c13.5,5.6,27.8,9.3,42.5,10.9c2.8,0.3,5.6,0.6,8.4,0.7
	c7.2,0.5,14.4,0.4,21.6,0c4.3-0.3,8.7-0.7,13-1.3c15-2.1,29.5-6.2,43.3-12.1c4-1.7,7.9-3.6,11.7-5.6c6.4-3.4,12.5-7.2,18.3-11.5
	c1.3-0.9,2.5-1.9,3.8-2.9l0.5-0.4c1-0.8,2-1.6,2.9-2.3c1.6-1.3,3.4-2.5,5.2-3.6c0.1-0.1,0.2-0.1,0.4-0.2c0.3-0.2,0.7-0.4,1-0.5
	c0.7-0.3,1.5-0.7,2.2-0.9c3.5-1.3,7.2-1.7,11-1.7c0.6,0,1.3,0,1.9,0.1l0,0c0.9,0.1,1.8,0.1,2.7,0.3h0.3c2.8,0.4,5.6,1,8.3,1.7
	c4.2,1.2,8.4,2.6,12.5,3.9l0,0c1.8,0.6,3.5,1.1,5.3,1.6l0.4,0.1c2.5,0.7,5.1,1.2,7.7,1.6c5.9,0.7,12,0.3,17.7-1.4l0.2-0.1l0.4-0.1
	l0.5-0.2c0.8-0.3,1.7-0.5,2.5-0.8l0.5-0.2c0.8-0.3,1.6-0.6,2.4-1l0.5-0.2c0.8-0.4,1.6-0.7,2.4-1.1c0.3-0.1,0.6-0.3,0.8-0.4
	c0.8-0.4,1.6-0.9,2.4-1.4c0.8-0.5,1.7-1,2.5-1.6c0.4-0.3,0.7-0.5,1.1-0.8c2.1-1.5,4-3.2,5.9-5.1c0.1-0.1,0.2-0.2,0.3-0.3
	c0.5-0.5,1-1,1.4-1.5c0.2-0.2,0.3-0.4,0.5-0.6c0.5-0.6,1.1-1.3,1.6-1.9c0.1-0.1,0.1-0.2,0.2-0.3c2.1-2.7,3.8-5.7,5.1-8.9
	c0-0.1,0.1-0.2,0.1-0.3c0.4-1,0.8-2,1.1-3c0.1-0.4,0.3-0.9,0.4-1.3c0-0.1,0.1-0.3,0.1-0.4c1.7-6.3,1.9-12.9,1.9-19.4
	c0-0.8,0-1.5,0-2.3c0-10.6-0.2-21.3-1.8-31.7c0-0.1,0-0.1,0-0.2c-0.5-3.5-1.3-7-2.2-10.4c-1-3.6-2.2-7.1-3.7-10.5
	c-3.7-8.4-9.1-16.1-15.2-23.2c-7.3-8.5-15.6-16.4-24.8-22.9c-1.3-0.9-2.7-1.8-4-2.7l-0.6-0.4c-0.2-0.1-0.4-0.3-0.7-0.4l0,0
	c-0.5-0.3-0.9-0.6-1.4-0.8l-0.5-0.3l-1-0.6l-0.3-0.2l-0.5-0.3l-0.5-0.3c-0.6-0.3-1.2-0.7-1.8-1c-2.6-1.4-5.3-2.7-8.1-3.9
	c-0.8-0.3-1.6-0.7-2.5-1c-3.8-1.5-7.6-2.7-11.5-3.6c-1.5-0.4-2.9-0.7-4.4-0.9c-1.7-0.3-3.5-0.6-5.2-0.8c-2.8-0.3-5.6-0.5-8.4-0.6
	c-19.7-0.5-39.7,5.7-55.2,17.6c-6.2,4.7-11.7,10.3-18.6,13.9c-6,3.1-13.1,4.5-19.6,2c-5.4-2-8.8-3.1-14.8-2.8
	c-12.4,0.7-24.7,3.1-36.4,7.3c-0.5,0.2-0.9,0.3-1.4,0.5c-30.4,11.2-56.6,33.4-70.2,62c-0.4,0.8-0.7,1.5-1,2.3
	C83.6,230.2,80.7,251.5,89.6,269.2z"/>
<path class="st1" d="M347.8,168.7v110.1l0.4,0.1c2.5,0.7,5.1,1.2,7.7,1.6c5.9,0.7,12,0.3,17.7-1.4l0.2-0.1l0.4-0.1l0.5-0.2
	c0.8-0.3,1.7-0.5,2.5-0.8l0.5-0.2c0.8-0.3,1.6-0.6,2.4-1l0.5-0.2c0.8-0.4,1.6-0.7,2.4-1.1c0.3-0.1,0.6-0.3,0.8-0.4
	c0.8-0.4,1.6-0.9,2.4-1.4c0.8-0.5,1.7-1,2.5-1.6c0.4-0.3,0.7-0.5,1.1-0.8c2.1-1.5,4-3.2,5.9-5.1c0.1-0.1,0.2-0.2,0.3-0.3
	c0.5-0.5,1-1,1.4-1.5c0.2-0.2,0.3-0.4,0.5-0.6c0.5-0.6,1.1-1.3,1.6-1.9c0.1-0.1,0.1-0.2,0.2-0.3c2.1-2.7,3.8-5.7,5.1-8.9
	c0-0.1,0.1-0.2,0.1-0.3c0.4-1,0.8-2,1.1-3c0.1-0.4,0.3-0.9,0.4-1.3c0-0.1,0.1-0.3,0.1-0.4c1.7-6.3,1.9-12.9,1.9-19.4
	c0-0.8,0-1.5,0-2.3c0-10.6-0.2-21.3-1.8-31.7c0-0.1,0-0.1,0-0.2c-0.5-3.5-1.3-7-2.2-10.4h-30.9v-15h-6.2v-12h-13.2v12L347.8,168.7
	L347.8,168.7z"/>
<path class="st1" d="M89.6,269.2c8,15.9,24.3,26.6,41.2,33.6c13.5,5.6,27.8,9.3,42.5,10.9c2.8,0.3,5.6,0.6,8.4,0.7
	c7.2,0.5,14.4,0.4,21.6,0c4.3-0.3,8.7-0.7,13-1.3c15-2.1,29.5-6.2,43.3-12.1c4-1.7,7.9-3.6,11.7-5.6c6.4-3.4,12.5-7.2,18.3-11.5
	c1.3-0.9,2.5-1.9,3.8-2.9l0.5-0.4c1-0.8,2-1.6,2.9-2.3c1.6-1.3,3.4-2.5,5.2-3.6c0.1-0.1,0.2-0.1,0.4-0.2c0.3-0.2,0.7-0.4,1-0.5
	c0.7-0.3,1.5-0.7,2.2-0.9V228h-56.1v10h-24.6v-73.4h-29v29.3h-14.3v-17.4h-11.8V158h-5.4v-10.8c-0.5,0.2-0.9,0.3-1.4,0.5V158h-5.3
	v18.6h-11.8V194h-17.5v66.2h-27.7v-48.1h-8.9C83.6,230.2,80.7,251.5,89.6,269.2z"/>
<rect x="203.3" y="175.6" class="st1" width="13" height="12.4"/>
<rect x="203.3" y="201.4" class="st1" width="13" height="12.4"/>
<rect x="203.3" y="227.2" class="st1" width="13" height="12.4"/>
<rect x="203.3" y="253" class="st1" width="13" height="12.4"/>
<rect x="203.3" y="278.8" class="st1" width="13" height="12.4"/>
<rect x="256.1" y="244" class="st1" width="45.3" height="5.6"/>
<rect x="256.1" y="261.1" class="st1" width="45.3" height="5.6"/>
<path class="st1" d="M256.1,278.2v5.6h33.5c1.3-0.9,2.5-1.9,3.8-2.9l0.5-0.4c1-0.8,2-1.6,2.9-2.3L256.1,278.2L256.1,278.2z"/>
<rect x="173.3" y="209.3" class="st1" width="8.4" height="8.1"/>
<rect x="355.9" y="171.5" class="st1" width="8.4" height="8.1"/>
<rect x="355.9" y="190.4" class="st1" width="8.4" height="8.1"/>
<rect x="355.9" y="209.2" class="st1" width="8.4" height="8.1"/>
<rect x="355.9" y="228" class="st1" width="8.4" height="8.1"/>
<rect x="355.9" y="246.8" class="st1" width="8.4" height="8.1"/>
<rect x="355.9" y="265.6" class="st1" width="8.4" height="8.1"/>
<rect x="141.1" y="209.3" class="st1" width="8.4" height="8.1"/>
<rect x="173.3" y="229.3" class="st1" width="8.4" height="8.1"/>
<rect x="141.1" y="229.3" class="st1" width="8.4" height="8.1"/>
<rect x="173.3" y="249.3" class="st1" width="8.4" height="8.1"/>
<rect x="141.1" y="249.3" class="st1" width="8.4" height="8.1"/>
<rect x="173.3" y="269.3" class="st1" width="8.4" height="8.1"/>
<rect x="141.1" y="269.3" class="st1" width="8.4" height="8.1"/>
<path class="st1" d="M406.4,194.1v4.6h-32.2v-4.6H406.4z M403.6,198.5h2.4v-4.1h-2.4V198.5z M400.7,198.5h2.4v-4.1h-2.4V198.5z
	 M397.8,198.5h2.4v-4.1h-2.4V198.5z M395,198.5h2.4v-4.1H395V198.5z M392.1,198.5h2.4v-4.1h-2.4V198.5z M389.2,198.5h2.4v-4.1h-2.4
	V198.5z M386.3,198.5h2.4v-4.1h-2.4V198.5z M383.5,198.5h2.4v-4.1h-2.4V198.5z M380.6,198.5h2.4v-4.1h-2.4V198.5z M377.7,198.5h2.4
	v-4.1h-2.4V198.5z M374.7,198.5h2.5v-4.1h-2.5V198.5z"/>
<path class="st1" d="M406.4,207.6v4.6h-32.2v-4.6H406.4z M403.6,212h2.4v-4.1h-2.4V212z M400.7,212h2.4v-4.1h-2.4V212z M397.8,212
	h2.4v-4.1h-2.4V212z M395,212h2.4v-4.1H395V212z M392.1,212h2.4v-4.1h-2.4V212z M389.2,212h2.4v-4.1h-2.4V212z M386.3,212h2.4v-4.1
	h-2.4V212z M383.5,212h2.4v-4.1h-2.4V212z M380.6,212h2.4v-4.1h-2.4V212z M377.7,212h2.4v-4.1h-2.4V212z M374.7,212h2.5v-4.1h-2.5
	V212z"/>
<path class="st1" d="M406.4,221.1v4.6h-32.2v-4.6H406.4z M403.6,225.4h2.4v-4.1h-2.4V225.4z M400.7,225.4h2.4v-4.1h-2.4V225.4z
	 M397.8,225.4h2.4v-4.1h-2.4V225.4z M395,225.4h2.4v-4.1H395V225.4z M392.1,225.4h2.4v-4.1h-2.4V225.4z M389.2,225.4h2.4v-4.1h-2.4
	V225.4z M386.3,225.4h2.4v-4.1h-2.4V225.4z M383.5,225.4h2.4v-4.1h-2.4V225.4z M380.6,225.4h2.4v-4.1h-2.4V225.4z M377.7,225.4h2.4
	v-4.1h-2.4V225.4z M374.7,225.4h2.5v-4.1h-2.5V225.4z"/>
<path class="st1" d="M406.4,234.6v4.6h-32.2v-4.6H406.4z M403.6,238.9h2.4v-4.1h-2.4V238.9z M400.7,238.9h2.4v-4.1h-2.4V238.9z
	 M397.8,238.9h2.4v-4.1h-2.4V238.9z M395,238.9h2.4v-4.1H395V238.9z M392.1,238.9h2.4v-4.1h-2.4V238.9z M389.2,238.9h2.4v-4.1h-2.4
	V238.9z M386.3,238.9h2.4v-4.1h-2.4V238.9z M383.5,238.9h2.4v-4.1h-2.4V238.9z M380.6,238.9h2.4v-4.1h-2.4V238.9z M377.7,238.9h2.4
	v-4.1h-2.4V238.9z M374.7,238.9h2.5v-4.1h-2.5V238.9z"/>
<path class="st1" d="M406.3,248.1c-0.1,0.4-0.2,0.9-0.4,1.3v-1h-2.4v4.1h1.3c0,0.1-0.1,0.2-0.1,0.3h-30.5v-4.6h32.1V248.1z
	 M400.7,252.5h2.4v-4.1h-2.4V252.5z M397.8,252.5h2.4v-4.1h-2.4V252.5z M395,252.5h2.4v-4.1H395V252.5z M392.1,252.5h2.4v-4.1h-2.4
	V252.5z M389.2,252.5h2.4v-4.1h-2.4V252.5z M386.3,252.5h2.4v-4.1h-2.4V252.5z M383.5,252.5h2.4v-4.1h-2.4V252.5z M380.6,252.5h2.4
	v-4.1h-2.4V252.5z M377.7,252.5h2.4v-4.1h-2.4V252.5z M374.7,252.5h2.5v-4.1h-2.5V252.5z"/>
<path class="st1" d="M399.6,261.6c-0.1,0.1-0.1,0.2-0.2,0.3h-1.6v1.9c-0.2,0.2-0.3,0.4-0.5,0.6v-2.5h-2.4v4.1h1
	c-0.1,0.1-0.2,0.2-0.3,0.3h-21.4v-4.6L399.6,261.6z M392.1,265.9h2.4v-4.1h-2.4V265.9z M389.2,265.9h2.4v-4.1h-2.4V265.9z
	 M386.3,265.9h2.4v-4.1h-2.4V265.9z M383.5,265.9h2.4v-4.1h-2.4V265.9z M380.6,265.9h2.4v-4.1h-2.4V265.9z M377.7,265.9h2.4v-4.1
	h-2.4V265.9z M374.7,265.9h2.5v-4.1h-2.5V265.9z"/>
<path class="st1" d="M383.8,275.1c-0.3,0.1-0.5,0.3-0.8,0.4v-0.1h-2.4v1.3l-0.5,0.2v-1.5h-2.4v2.5l-0.5,0.2v-2.7h-2.5v3.5l-0.5,0.2
	v-3.9h9.6V275.1z"/>
<path class="st1" d="M284.4,153.9c0,0,7.2-0.4,6.3,4.4c0.1,0.5-0.2,1-0.6,1.2c0,0,0-0.4-0.7-0.2c-0.3,0-0.5,0.1-0.8,0
	c-0.4,0-0.7-0.2-1-0.4l0,0c0,0-2-0.8-2.8-4c0,0-0.6-0.7-0.6-0.9l1.2,0.5c0,0-0.4,0.8-0.1,1.5c0,0,0-1.5,0.3-1.5l0.6,0.3
	c0,0-0.7,1.5-0.2,2.5c0,0-0.2-1.8,0.4-2.4l0.9,0.5c0,0-0.8,1.5-0.3,2.8c0,0-0.1-1.9,0.4-2.6l0.8,0.6c0,0-0.8,1.5-0.3,2.5
	c0,0,0.1-2.2,0.5-2.4c0.3,0.2,0.6,0.5,0.8,0.8c0,0-0.5,1.1-0.2,1.7c0,0,0.2-1.5,0.4-1.5c0,0,0.7,1,0.7,1.6c0-0.6-0.2-1.2-0.6-1.7
	c0.4,0.1,0.7,0.2,1,0.5c0,0-0.1-0.7-1.2-0.7c0,0-0.6-0.7-0.7-0.8c0,0,1.1-0.1,1.8,0.2c0,0-0.6-0.7-2-0.4l-0.8-0.6c0,0,1.4-0.2,2,0
	c0,0-0.7-0.6-2.2-0.2l-0.8-0.5c0.6-0.1,1.3-0.2,2-0.2c0,0-0.8-0.4-2.2,0l-0.6-0.3c0,0,0.9-0.2,1.2-0.2s0.3-0.1,0.3-0.1
	c-0.6-0.1-1.2,0-1.7,0.2C285.6,154.4,284.3,154,284.4,153.9z"/>
<path class="st1" d="M303.3,177.5c0,0,2.5,6.5-2.6,7.1c-0.5,0.2-1.1,0.1-1.4-0.2c0,0,0.4-0.1,0-0.7c-0.1-0.2-0.2-0.5-0.3-0.7
	c-0.1-0.3,0-0.7,0.1-1l0,0c0,0,0.2-2.1,3.2-3.7c0,0,0.5-0.7,0.7-0.8l-0.2,1.3c0,0-1-0.1-1.6,0.4c0,0,1.5-0.4,1.6-0.2l-0.1,0.7
	c0,0-1.7-0.2-2.6,0.6c0,0,1.7-0.7,2.5-0.3l-0.2,0.9c0,0-1.8-0.3-2.8,0.5c0,0,1.9-0.7,2.8-0.3L302,182c0,0-1.7-0.3-2.6,0.4
	c0,0,2.2-0.6,2.5-0.2c-0.2,0.3-0.4,0.7-0.6,0.9c0,0-1.2-0.2-1.7,0.3c0,0,1.5-0.2,1.6-0.1c0,0-0.8,0.9-1.4,1.2c0.6-0.2,1.1-0.6,1.6-1
	c0,0.4,0,0.8-0.2,1.1c0,0,0.7-0.3,0.4-1.3c0,0,0.6-0.7,0.6-0.9c0,0,0.4,1,0.3,1.7c0,0,0.5-0.7-0.2-1.9l0.4-0.9c0,0,0.6,1.3,0.6,1.9
	c0,0,0.4-0.8-0.5-2.1l0.2-0.9c0.3,0.5,0.6,1.1,0.7,1.7c0,0,0.2-0.8-0.7-2l0.1-0.6c0,0,0.4,0.8,0.5,1s0.2,0.2,0.2,0.2
	c-0.1-0.5-0.3-1.1-0.7-1.5C303.1,178.8,303.2,177.5,303.3,177.5z"/>
<path class="st1" d="M255.5,172c0,0,2.5,6.5-2.6,7.1c-0.5,0.2-1.1,0.1-1.4-0.2c0,0,0.4-0.1,0-0.7c-0.1-0.2-0.2-0.5-0.3-0.7
	c-0.1-0.3,0-0.7,0.1-1l0,0c0,0,0.2-2.1,3.2-3.7c0,0,0.5-0.7,0.7-0.8l-0.2,1.3c0,0-1-0.1-1.6,0.4c0,0,1.5-0.4,1.6-0.2l-0.1,0.7
	c0,0-1.7-0.2-2.6,0.6c0,0,1.7-0.7,2.5-0.3l-0.2,0.9c0,0-1.8-0.3-2.8,0.5c0,0,1.9-0.7,2.8-0.3l-0.4,0.9c0,0-1.7-0.3-2.6,0.4
	c0,0,2.2-0.6,2.5-0.2c-0.2,0.3-0.4,0.7-0.6,0.9c0,0-1.2-0.2-1.7,0.3c0,0,1.5-0.2,1.6-0.1c0,0-0.8,0.9-1.4,1.2c0.6-0.2,1.1-0.6,1.6-1
	c0,0.4,0,0.8-0.2,1.1c0,0,0.7-0.3,0.4-1.3c0,0,0.6-0.7,0.6-0.9c0,0,0.4,1,0.3,1.7c0,0,0.5-0.7-0.2-1.9l0.4-0.9c0,0,0.6,1.3,0.6,1.9
	c0,0,0.4-0.8-0.5-2.1l0.2-0.9c0.3,0.5,0.6,1.1,0.7,1.7c0,0,0.2-0.8-0.7-2l0.1-0.6c0,0,0.4,0.8,0.5,1s0.2,0.2,0.2,0.2
	c-0.1-0.5-0.3-1.1-0.7-1.5C255.3,173.3,255.4,172,255.5,172z"/>
<path class="st1" d="M323.8,225.3c0,0,2.5,6.5-2.6,7.1c-0.5,0.2-1.1,0.1-1.4-0.2c0,0,0.4-0.1,0-0.7c-0.1-0.2-0.2-0.5-0.3-0.7
	c-0.1-0.3,0-0.7,0.1-1l0,0c0,0,0.2-2.1,3.2-3.7c0,0,0.5-0.7,0.7-0.8l-0.2,1.3c0,0-1-0.1-1.6,0.4c0,0,1.5-0.4,1.6-0.2l-0.1,0.7
	c0,0-1.7-0.2-2.6,0.6c0,0,1.7-0.7,2.5-0.3l-0.2,0.9c0,0-1.8-0.3-2.8,0.5c0,0,1.9-0.7,2.8-0.3l-0.4,0.9c0,0-1.7-0.3-2.6,0.4
	c0,0,2.2-0.6,2.5-0.2c-0.2,0.3-0.4,0.7-0.6,0.9c0,0-1.2-0.2-1.7,0.3c0,0,1.5-0.2,1.6-0.1c0,0-0.8,0.9-1.4,1.2c0.6-0.2,1.1-0.6,1.6-1
	c0,0.4,0,0.8-0.2,1.1c0,0,0.7-0.3,0.4-1.3c0,0,0.6-0.7,0.6-0.9c0,0,0.4,1,0.3,1.7c0,0,0.5-0.7-0.2-1.9l0.4-0.9c0,0,0.6,1.3,0.6,1.9
	c0,0,0.4-0.8-0.5-2.1l0.2-0.9c0.3,0.5,0.6,1.1,0.7,1.7c0,0,0.2-0.8-0.7-2l0.1-0.6c0,0,0.4,0.8,0.5,1s0.2,0.2,0.2,0.2
	c-0.1-0.5-0.3-1.1-0.7-1.5C323.6,226.6,323.7,225.3,323.8,225.3z"/>
<path class="st1" d="M333.6,163.8c0,0,2.5,6.5-2.6,7.1c-0.5,0.2-1.1,0.1-1.4-0.2c0,0,0.4-0.1,0-0.7c-0.1-0.2-0.2-0.5-0.3-0.7
	c-0.1-0.3,0-0.7,0.1-1l0,0c0,0,0.2-2.1,3.2-3.7c0,0,0.5-0.7,0.7-0.8l-0.2,1.3c0,0-1-0.1-1.6,0.4c0,0,1.5-0.4,1.6-0.2L333,166
	c0,0-1.7-0.2-2.6,0.6c0,0,1.7-0.7,2.5-0.3l-0.2,0.9c0,0-1.8-0.3-2.8,0.5c0,0,1.9-0.7,2.8-0.3l-0.4,0.9c0,0-1.7-0.3-2.6,0.4
	c0,0,2.2-0.6,2.5-0.2c-0.2,0.3-0.4,0.7-0.6,0.9c0,0-1.2-0.2-1.7,0.3c0,0,1.5-0.2,1.6-0.1c0,0-0.8,0.9-1.4,1.2c0.6-0.2,1.1-0.6,1.6-1
	c0,0.4,0,0.8-0.2,1.1c0,0,0.7-0.3,0.4-1.3c0,0,0.6-0.7,0.6-0.9c0,0,0.4,1,0.3,1.7c0,0,0.5-0.7-0.2-1.9l0.4-0.9c0,0,0.6,1.3,0.6,1.9
	c0,0,0.4-0.8-0.5-2.1l0.2-0.9c0.3,0.5,0.6,1.1,0.7,1.7c0,0,0.2-0.8-0.7-2l0.1-0.6c0,0,0.4,0.8,0.5,1s0.2,0.2,0.2,0.2
	c-0.1-0.5-0.3-1.1-0.7-1.5C333.4,165.1,333.5,163.8,333.6,163.8z"/>
<path class="st1" d="M315.3,199.3c0,0-1.9,6.7-6.4,4.4c-0.5-0.1-0.9-0.5-1-1c0,0,0.4,0.1,0.5-0.6c0-0.2,0.1-0.5,0.2-0.7
	c0.1-0.3,0.4-0.6,0.7-0.7l0,0c0,0,1.4-1.6,4.8-1.3c0,0,0.9-0.3,1-0.2l-0.9,0.9c0,0-0.7-0.6-1.5-0.6c0,0,1.5,0.5,1.4,0.7l-0.5,0.5
	c0,0-1.2-1.1-2.4-1c0,0,1.8,0.4,2.3,1.1l-0.7,0.6c0,0-1.2-1.2-2.6-1.1c0,0,1.9,0.5,2.5,1.3l-0.8,0.5c0,0-1.2-1.2-2.4-1.1
	c0,0,2.2,0.8,2.2,1.2c-0.3,0.2-0.7,0.3-1.1,0.5c0,0-0.9-0.8-1.6-0.7c0,0,1.4,0.7,1.3,0.8c0,0-1.2,0.3-1.9,0.2c0.6,0.2,1.3,0.2,1.9,0
	c-0.2,0.3-0.5,0.6-0.8,0.8c0,0,0.7,0.1,1.1-0.9c0,0,0.9-0.3,1-0.4c0,0-0.3,1-0.8,1.5c0,0,0.8-0.3,1-1.7l0.8-0.5c0,0-0.3,1.4-0.7,1.9
	c0,0,0.8-0.5,0.9-2l0.7-0.6c-0.1,0.6-0.2,1.2-0.5,1.8c0,0,0.6-0.6,0.7-2l0.4-0.5c0,0-0.1,0.9-0.2,1.1c-0.1,0.2,0,0.3,0,0.3
	c0.3-0.5,0.4-1,0.4-1.6C314.4,200.3,315.2,199.3,315.3,199.3z"/>
<path class="st1" d="M263.7,205.3c0,0-1.9,6.7-6.4,4.4c-0.5-0.1-0.9-0.5-1-1c0,0,0.4,0.1,0.5-0.6c0-0.2,0.1-0.5,0.2-0.7
	c0.1-0.3,0.4-0.6,0.7-0.7l0,0c0,0,1.4-1.6,4.8-1.3c0,0,0.9-0.3,1-0.2l-0.9,0.9c0,0-0.7-0.6-1.5-0.6c0,0,1.5,0.5,1.4,0.7l-0.5,0.5
	c0,0-1.2-1.1-2.4-1c0,0,1.9,0.4,2.3,1.1l-0.7,0.6c0,0-1.2-1.2-2.6-1.1c0,0,1.9,0.5,2.5,1.3l-0.8,0.5c0,0-1.2-1.2-2.4-1.1
	c0,0,2.2,0.8,2.2,1.2c-0.3,0.2-0.7,0.3-1,0.5c0,0-0.9-0.8-1.6-0.7c0,0,1.4,0.7,1.3,0.8c0,0-1.2,0.3-1.9,0.2c0.6,0.2,1.3,0.2,1.9,0
	c-0.2,0.3-0.5,0.6-0.8,0.8c0,0,0.7,0.1,1.1-0.9c0,0,0.9-0.3,1-0.4c0,0-0.3,1-0.8,1.5c0,0,0.8-0.3,1-1.7l0.8-0.5c0,0-0.3,1.4-0.7,1.9
	c0,0,0.8-0.5,0.9-2l0.7-0.6c-0.1,0.6-0.2,1.2-0.5,1.8c0,0,0.6-0.6,0.7-2l0.4-0.5c0,0-0.1,0.9-0.2,1.1c-0.1,0.2,0,0.3,0,0.3
	c0.3-0.5,0.4-1,0.4-1.6C262.8,206.3,263.6,205.2,263.7,205.3z"/>
<path class="st2" d="M283.1,272.4c0,0-15.7-5.1-12.4-23.1l19.9-5l4.6,14.8L283.1,272.4z"/>
<path class="st3" d="M295.2,259.1l-12.1,13.3c0,0-15.7-5.1-12.4-23.1L295.2,259.1z"/>
<path class="st4" d="M361.1,126.3c0,0-2.1,3.3-5,1.7c-2.9-1.7-0.1-6.2-0.1-6.2S361.5,121,361.1,126.3z"/>
<path class="st3" d="M356.1,127.9c0.7,0.4,1.5,0.6,2.3,0.4c1.1-0.3,1.9-1,2.3-1.6c0.1-0.2,0.3-0.3,0.4-0.5c0.1-1.9-0.5-3-1.3-3.7
	l0,0c-1.2-0.9-2.8-0.9-3.5-0.9c-0.2,0-0.3,0-0.3,0l-0.1,0.1c-0.1,0.1-0.3,0.5-0.5,0.9C354.8,124.2,354,126.8,356.1,127.9z"/>
<path class="st5" d="M281.5,248.5l-10.9,0.8l-20.3,0.2l16,18.9c0,0,5.1,0.3,6.1,0.9s15.7,0.3,15.7,0.3l2.4-9.7L281.5,248.5z"/>
<path class="st6" d="M281.5,248.5l-10.9,0.8l-20.3,0.2l16,18.9c0,0,5.1,0.3,6.1,0.9s15.7,0.3,15.7,0.3l2.4-9.7L281.5,248.5z"/>
<path class="st2" d="M292.5,197.7l-2.5,4.1l-0.6,7.2c0,0-1.8,6.1-3.1,7.9s-1.9,6.6-1.9,6.6s-0.6,4.4-1.2,5.4s-1.5,7.8-1.5,7.8
	s-5.8,11.2-11.1,12.6c0,0,26.2,8.3,12.4,23.1c0,0,9.8,2.3,12.1-0.3c2.3-2.6,8.4-41.8,8.4-41.8l-1.9-33L292.5,197.7z"/>
<path class="st6" d="M292.5,197.7l-2.5,4.1l-0.6,7.2c0,0-1.8,6.1-3.1,7.9s-1.9,6.6-1.9,6.6s-0.6,4.4-1.2,5.4s-1.5,7.8-1.5,7.8
	s-5.8,11.2-11.1,12.6c0,0,26.2,8.3,12.4,23.1c0,0,9.8,2.3,12.1-0.3c2.3-2.6,8.4-41.8,8.4-41.8l-1.9-33L292.5,197.7z"/>
<path class="st5" d="M324.3,157.5c0.7,3.7,0.5,7.4-0.6,11l4.1,11.2c0,0,31-16.6,28.4-20.6c-1.5-2.3-1.7-8.3-1.6-13.1
	c0.1-3.6,0.4-6.6,0.4-6.6s-38.1,3.6-33,12C323.1,153.3,323.9,155.4,324.3,157.5z"/>
<path class="st3" d="M321.9,151.4c1.1,1.9,2,4,2.4,6.1c11.7,3.6,24.3-1.2,30.3-11.5c0.1-3.6,0.4-6.6,0.4-6.6S316.9,143,321.9,151.4z
	"/>
<path class="st5" d="M306.5,133.4c0,13.6,11.5,24.7,25.6,24.7c14.2,0,25.7-11,25.7-24.6c0-5.1-1.6-10.1-4.7-14.3
	c-0.4-0.5-0.7-1-1.1-1.4c-2.3-2.7-5.1-4.8-8.3-6.4l0,0c-1.7-0.8-3.6-1.5-5.5-1.9c-13.8-3.1-27.7,5.1-30.9,18.3
	c-0.1,0.6-0.3,1.1-0.4,1.7C306.6,130.8,306.5,132.1,306.5,133.4z"/>
<path class="st2" d="M296.4,234.7c0.4,2-0.1,5.6-0.8,9.2c0,0.2-0.1,0.3-0.1,0.5s-0.1,0.4-0.1,0.6c-0.3,1.6-0.7,3.1-1.1,4.6
	c-0.4,1.4-0.7,2.6-0.9,3.6c-0.4,1.5-0.7,2.4-0.7,2.4s0,0.9-0.1,2.4c0,0.8-0.1,1.9-0.1,3c0,0.3,0,0.7,0,1c0,0.6,0,1.2,0,1.9
	c0,0.2,0,0.4,0,0.6c0,0.7,0,1.4,0,2.1c0,1,0,1.9,0,2.9c0,0.4,0,0.7,0,1.1c0,0.9,0,1.8,0,2.6c0,2.3,0.1,4,0.3,4.4
	c0.1,0.2,0.1,0.4,0.2,0.5c0.3,0.9,0.5,1.8,0.6,2.8l0.5-0.4c1-0.8,2-1.6,2.9-2.3c1.6-1.3,3.4-2.5,5.2-3.6c0.1-0.1,0.2-0.1,0.4-0.2
	c0.3-0.2,0.7-0.4,1-0.5c0.7-0.3,1.5-0.7,2.2-0.9c3.5-1.3,7.2-1.7,11-1.7c1.5,0.6,2.5,1,2.5,1l1.9,0.6l0.3,0.1c2.1,0.6,5,1.5,6.1,1.8
	c1.7,0.6,16.5,3.5,16.5,3.5c1.4,0.4,2.7,0.6,4.1,0.7c2.5,0.7,5.1,1.2,7.7,1.6c5.9,0.7,12,0.3,17.7-1.4c0.2,0,0.3,0,0.5,0
	c-0.1,0-0.2,0-0.3,0l0.4-0.1l0.5-0.2c0.8-0.3,1.7-0.5,2.5-0.8l0.5-0.2c0.8-0.3,1.6-0.6,2.4-1l0.5-0.2c0.8-0.4,1.6-0.7,2.4-1.1
	c0.3-0.1,0.6-0.3,0.8-0.4c0.8-0.4,1.6-0.9,2.4-1.4c0.1-1.1,0.2-1.8,0.2-1.8l1.2-5.6l0.1-0.3l0.8-4.1l0.1-0.3l1.8-8.8l0.1-0.3
	l0.8-4.1l0.1-0.3l1.9-8.8l0.1-0.3l0.8-4.1l0.1-0.3l1.9-8.9l0.1-0.3l0.8-4.1l0.1-0.3l0.3-1.6l0.5-2.4c0,0,1.6-2.2,3.4-4.8l0.2-0.3
	c0.5-0.7,1-1.5,1.6-2.2c0.2-0.2,0.3-0.5,0.5-0.7c0.3-0.4,0.5-0.7,0.7-1.1l0.2-0.2l0,0c2.6-3.9,0.9-5.6,0.9-5.6s-1.1-1.4-2.5-3.3
	c-0.1-0.1-0.1-0.2-0.2-0.3c-0.6-0.8-1.3-1.7-1.9-2.6l-0.5-0.7c-0.2-0.3-0.4-0.5-0.6-0.8c-0.1-0.1-0.1-0.2-0.2-0.3
	c-1.4-1.9-2.5-3.6-2.8-4.2c-0.4-0.9-2.7-3.7-5.1-6.2c-1.8-1.9-3.7-3.7-4.5-4.1c-1.9-0.9-2.6-4-2.6-4s-4.1-1.4-4.6-2.4
	c-0.6-1.1-8.3-5.8-8.3-5.8s-3.1-1.9-4.4-3.1c-0.2-0.2-0.3-0.3-0.5-0.5c-0.4-0.8-3.3-1.4-4.5-1.6c-0.3-0.1-0.5-0.1-0.5-0.1
	c-0.5-0.8-1.1-1.6-1.8-2.2c-0.5-0.4-1.1-1.8-1.6-3.1c-0.5-1.5-1-2.9-1-2.9c-0.9-2.9-2.6-2-2.6-2c0,0.4,0,0.8-0.1,1.2l0,0
	c-0.7,3.5-4.7,4.9-6.8,6.6c-2.3,1.8-5.9,6.5-8.8,7.4c-2.4,0.8-5.1,3.8-6,4.7L333,172c-0.1,0.2-0.2,0.3-0.2,0.3s-1.6-0.1-2.6-0.1
	h-0.4c-0.2,0-0.4-0.1-0.6-0.2c-1-0.6-2.4-2.5-3.1-3c-0.8-0.5-1.5-9.1-1.5-9.1l0,0c-2.7-1.2-5.7,11.1-5.7,11.1s-5.2,1.5-5.6,2.5
	c-0.1,0.2-0.5,0.6-1.1,1c-2.7,2-5.5,3.7-8.5,5.2c-0.1,0-0.1,0.1-0.2,0.1c-0.1,0-0.1,0.1-0.2,0.1c-0.1,0.1-0.2,0.1-0.3,0.1
	c-0.2,0.1-0.3,0.1-0.5,0.2l-0.2,0.1c-0.4,0.1-0.8,0.3-1.2,0.6c-0.1,0.1-0.2,0.2-0.3,0.2c-0.4,0.3-0.8,0.7-1.1,1.1
	c-0.1,0.1-0.1,0.1-0.1,0.2l0,0c-0.2,0.3-0.4,0.5-0.6,0.8c-0.3,0.4-0.5,0.8-0.8,1.2c0,0-4.5,7.4-5.9,8.2S290,202,290,202l0,0
	l4.8,17.2c0,0,0.2,4.4,0.6,8.8C295.7,230.4,296,232.9,296.4,234.7z"/>
<path class="st7" d="M332.8,172.5c0,0,3.2,1.7,5.8,1.9c0.3,0,0.7,0,1-0.1c2.7-0.4,6.5-2.5,6.5-2.5l-4.6-4.8l-5.6,2.6l-2,1.8
	L332.8,172.5z"/>
<path class="st3" d="M306.8,129.5c0.1,0.2,0.2,0.3,0.4,0.4c1.6,1.5,4.4,0.9,6.6,0.5c1.9-0.3,3.7-0.8,5.5-1.5
	c1.5-0.6,3.4-1.4,4.7-0.5c0.5,0.3,0.9,0.9,1.4,1.2c0.6,0.3,1.3,0.3,1.9,0.3c2.1,0,4.2,0,6.3-0.4c3.1-0.7,6.3-2.4,9.2-1.3
	c2.3,0.9,3.5,3.3,4.2,5.6c0.3,1.1,0.5,2.3,1.2,3.3s2,1.6,3.1,1.2c1.7-0.7,1.9-3.4,3.9-3.5c2.2-0.1,2.2,2,1.5,3.6
	c-0.9,2.3-2.2,4.6-2.2,7.1c4.8-8.3,4.3-18.5-1.5-26.3c-0.5-0.3-0.9-0.7-1.1-1.2c0-0.1,0-0.1-0.1-0.2c-0.2-0.8,0.3-1.7,0.3-2.5
	c0.1-2.1-2.2-3.5-4.4-3.8c-1.4-0.2-2.9,0-4.3-0.1l0,0c-0.7,0-1.4-0.1-2.1-0.3c-1.2-0.3-2.3-0.9-3.3-1.6
	c-13.8-3.1-27.7,5.1-30.9,18.3C307.1,128.3,307,128.9,306.8,129.5L306.8,129.5z"/>
<path class="st8" d="M306.3,127.8c0.2,0.6,0.5,1.1,0.9,1.5c1.6,1.5,4.4,0.8,6.6,0.5c1.9-0.3,3.7-0.8,5.5-1.5
	c1.5-0.6,3.4-1.4,4.7-0.5c0.5,0.3,0.9,0.9,1.4,1.2c0.6,0.3,1.3,0.3,1.9,0.3c2.1,0,4.2,0,6.3-0.4c3.1-0.7,6.3-2.4,9.2-1.3
	c2.3,0.9,3.5,3.3,4.2,5.6c0.3,1.1,0.5,2.3,1.2,3.3s2,1.6,3.1,1.2c1.7-0.7,1.9-3.4,3.9-3.5c2.2-0.1,2.2,2,1.5,3.6
	c-1.1,2.8-2.7,5.5-2.2,8.4c0.5,0,1.3,0,1.8,0c-0.4-0.6,0.3-1.4,1.1-1.6s1.6-0.2,2.1-0.7c0.6-0.5,0.6-1.3,0.5-2
	c-0.1-1.5-0.5-3-1.1-4.3c-0.4-0.9-0.9-1.8-0.6-2.7c0.2-0.4,0.4-0.8,0.7-1.2c0.6-1.2,0.5-2.6-0.1-3.8c-0.2-0.5-0.4-1-0.6-1.5
	c-0.2-0.7-0.6-1.3-1-1.8c-0.7-0.8-1.4-2.1-0.6-2.8c0.2-0.2-0.2-0.3-0.1-0.6v-0.1c0-0.3,0-0.6-0.2-0.9c0-0.1-0.1-0.1-0.1-0.2
	s-0.1-0.1-0.1-0.2c-0.7-1.1-1.6-2-2.6-2.7c-0.7-0.5-1.4-0.9-1.7-1.6c-0.3-0.9,0.2-1.8,0.3-2.7c0.1-2.1-2.2-3.5-4.4-3.8
	s-4.4,0.2-6.4-0.4c-3-0.7-5-3.3-7.7-4.7c-3-1.5-6.5-1.7-9.6-0.3c-3.1,1.4-5.5,4.2-8.8,5.2c-1.2,0.4-2.4,0.5-3.5,1.1
	c-1.2,0.7-1.9,2-2.6,3.2c-1,1.9-1.2,3.7-1.8,5.7c-0.5,1.6-1.3,3.6-1.3,5.4C306.1,126.7,306.2,127.2,306.3,127.8z"/>
<g class="st9">
	<path d="M356.4,124.1c-0.1-0.4,0-0.8,0.2-1.1c-0.1,0.2,0.3,0.4,0.1,0.5C356.5,123.7,356.4,123.9,356.4,124.1z"/>
	<path d="M356.6,122.4L356.6,122.4c0,0.1,0.1,0.2,0.1,0.3C356.6,122.6,356.5,122.5,356.6,122.4z"/>
	<path d="M307.1,128.6c1.6,1.5,4.4,0.9,6.6,0.5c1.9-0.3,3.7-0.8,5.5-1.5c1.5-0.6,3.4-1.4,4.7-0.5c0.5,0.3,0.9,0.9,1.4,1.2
		c0.6,0.3,1.3,0.3,1.9,0.3c2.1,0,4.2,0,6.3-0.4c3.1-0.7,6.3-2.4,9.2-1.3c2.3,0.9,3.5,3.3,4.2,5.6c0.3,1.1,0.5,2.3,1.2,3.3
		s2,1.6,3.1,1.2c1.7-0.7,1.9-3.4,3.9-3.5c1.6-0.1,2,1,1.9,2.2c-0.1-0.9-0.6-1.6-1.9-1.5c-2,0.1-2.2,2.8-3.9,3.5
		c-1.1,0.5-2.4-0.2-3.1-1.2c-0.7-1-0.9-2.2-1.2-3.3c-0.6-2.3-1.9-4.7-4.2-5.6c-2.9-1.1-6.1,0.6-9.2,1.3c-2.1,0.5-4.2,0.4-6.3,0.4
		c-0.6,0-1.3,0-1.9-0.3c-0.6-0.3-0.9-0.9-1.4-1.2c-1.4-0.9-3.2-0.1-4.7,0.5c-1.8,0.7-3.6,1.2-5.5,1.5c-2.2,0.3-5,0.9-6.6-0.5
		c-0.9-0.8-1.1-1.9-1.1-3.2C306.1,127,306.4,127.9,307.1,128.6z"/>
	<path d="M352.2,114.1c0,0.1,0,0.3,0,0.4c0,0.6-0.3,1.2-0.3,1.8C351.7,115.6,352.1,114.8,352.2,114.1z"/>
	<path d="M358.3,134.7c0,0.1,0,0.2-0.1,0.3c0-0.3,0-0.6,0.1-0.9c0.2-0.4,0.4-0.8,0.7-1.2c0.2-0.4,0.4-0.9,0.4-1.4
		c0.1,0.7-0.1,1.4-0.4,2C358.7,133.9,358.5,134.3,358.3,134.7z"/>
	<path d="M354.6,145.4h1.8c-0.1,0.2-0.1,0.4,0.1,0.6c-0.5,0-1.3,0-1.8,0c-0.1-0.5-0.1-1-0.1-1.5
		C354.5,144.8,354.5,145.1,354.6,145.4z"/>
	<path d="M357.5,143.8c0.7-0.2,1.6-0.2,2.1-0.7c0.3-0.3,0.5-0.8,0.5-1.2c0,0.7,0,1.4-0.5,1.9s-1.4,0.5-2.1,0.7
		c-0.5,0.1-0.9,0.4-1.1,0.9C356.1,144.7,356.8,144,357.5,143.8z"/>
</g>
<path class="st3" d="M302.5,274.4c0.3-0.2,0.7-0.4,1-0.5c0.7-0.3,1.5-0.7,2.2-0.9c3.5-1.3,7.2-1.7,11-1.7c1.5,0.6,2.5,1,2.5,1
	l1.9,0.6l0.3,0.1c0-0.2,0-0.4,0.1-0.6c0-0.2,0-0.4,0.1-0.6c0.7-6.2,1.2-12.5,1.2-12.5v-5.5v-0.6v-16.1l0.3-5.3l0.1-2.4V229l0.1-0.9
	v-0.5c0.1-0.2,0.1-0.3,0.2-0.5l0,0c0-0.1,0-0.2,0.1-0.2c0.1-0.3,0.2-0.7,0.2-1.1c0.6-2.7,1.2-7.2,1.3-8.1c0.1-1.2,1.2-8.5,1.2-8.5
	c0.1-4,3.6-11.6,4.5-13s1.9-10,1.5-10.5c-0.2-0.2-0.3-1.7-0.4-3.1c0-0.2,0-0.3,0-0.5c0-1.1-0.1-1.9-0.1-1.9l-3.5-0.7l-0.9-0.2h-0.1
	v0.1c-0.1,0.2-0.4,0.7-0.8,1.5c0,0.1-0.1,0.2-0.1,0.2s0,0.1-0.1,0.1c-0.7,1.4-1.5,3.3-1.4,4.4c0.1,1.9-2.2,6.5-2.2,6.5
	c-0.2,1.1-5,11.6-5,11.6s-3.9,10.3-3.7,12s-1.9,12.9-1.9,12.9l-2.1,11.5c-1,2.3-2.4,7.5-2.4,7.5l-0.5,3l-0.1,0.6l-1.4,7.9l-0.7,3.9
	c0,0-0.3,2.1-0.7,4.4c0,0.2-0.1,0.4-0.1,0.6c-0.3,1.5-0.6,3-1.1,4.5C302.8,273,302.6,273.7,302.5,274.4z"/>
<path class="st7" d="M302.1,274.6c0.1-0.1,0.2-0.1,0.4-0.2c0.3-0.2,0.7-0.4,1-0.5c0.7-0.3,1.5-0.7,2.2-0.9c3.5-1.3,7.2-1.7,11-1.7
	c1.5,0.6,2.5,1,2.5,1l1.9,0.6c0-0.2,0-0.4,0.1-0.6c0-0.2,0-0.4,0.1-0.6c0.7-6.1,1.2-12.4,1.2-12.4v-5.5V253v-16.1l0.3-5.1l0.1-1.1
	V230l0.1-0.9l0.1-1v-0.7v-0.2l0,0c0.1-0.2,0.1-0.4,0.2-0.7v-0.1c0-0.1,0-0.1,0-0.2l0,0c0.6-2.5,1.4-7.8,1.4-8.8
	c0.1-1.2,1.2-8.5,1.2-8.5c0.1-4,3.6-11.6,4.5-13s1.9-10,1.5-10.5c-0.2-0.3-0.3-2.1-0.4-3.5c0-0.1,0-0.2,0-0.3c0-0.9-0.1-1.6-0.1-1.6
	l-3.2-0.6l-0.8-0.2h-0.1l-0.3-0.1c0,0-0.4,0.7-0.9,1.7l-0.1,0.1c-0.7,1.4-1.5,3.4-1.5,4.5c0.1,1.9-2.2,6.5-2.2,6.5
	c-0.2,1.1-5,11.6-5,11.6s-3.9,10.3-3.7,12s-1.9,12.9-1.9,12.9l-2.1,11.5c-1,2.3-2.4,7.5-2.4,7.5l-0.5,2.8l-0.1,0.6l-1.1,6.3l-1,5.8
	c0,0-0.3,2.1-0.7,4.4c0,0.2-0.1,0.4-0.1,0.6c-0.3,1.5-0.6,3-1.1,4.5C302.5,273.1,302.2,273.8,302.1,274.6z"/>
<path class="st4" d="M304.8,125.4c0,0,1.2,1.4,2.2,1.4s5.1-0.2,7.2-0.8c2.1-0.6,12.5-1.1,12.5-1.1s14.7,0.1,15.2-0.4s9.1-3,10-2.9
	c0.2,0,0.6,0.1,1.2,0.2l0.7,0.1c1,0.2,2.3,0.3,3.5,0.5c1.5,0.2,2.8,0.2,3.2,0.1v-1.2c0,0-1.7-2.4-1.8-3.1s-1.5-10.6-5.3-14.1
	c-1.5-2.8-4-5.1-7.1-6.4c-5.1-2.1-10.1-3.9-10.1-3.9l-0.9-0.1l-2.9-0.4c-0.1-0.1-0.2-0.2-0.3-0.2c-0.8-0.6-3.2-1.8-6.3,0.9l-0.6,0.8
	c0,0-9.6,2.2-14.1,9.7c-4.5,7.6-4.7,15-5,18.4c0,0,0.2,1-0.2,1.3c-0.2,0.1-0.3,0.3-0.5,0.4l-0.1,0.1c-0.1,0.1-0.2,0.2-0.3,0.4l0,0
	c0,0,0,0.1-0.1,0.1L304.8,125.4z"/>
<path class="st6" d="M304.8,125.4c0,0,1.2,1.4,2.2,1.4s5.1-0.2,7.2-0.8c2.1-0.6,12.5-1.1,12.5-1.1s14.7,0.1,15.2-0.4s9.1-3,10-2.9
	c0.2,0,0.6,0.1,1.2,0.2l0.2-0.9v-0.2c0,0-16.7-3.4-27.8-1.6s-19.3,3.8-19.3,3.8s0.2,1-0.2,1.3c-0.2,0.1-0.3,0.3-0.5,0.4l-0.1,0.1
	c-0.1,0.1-0.2,0.2-0.3,0.4l0,0c0,0,0,0.1-0.1,0.1L304.8,125.4z"/>
<path class="st3" d="M306.3,127.8c2.1,0.2,5.9-0.3,7.5-0.6c0.5-0.1,0.9-0.1,1.4-0.2c1.8-0.4,7.3-1.4,10.6-0.9
	c4,0.6,15.4-0.5,15.4-0.5s7-1.4,9.8-2.5c1-0.4,2.8-0.5,4.5-0.3c0.4,0.1,0.9,0.1,1.3,0.2c2.3,0.5,4.3,1.7,4,3.8
	c0.1-0.2,0.3-0.3,0.4-0.5c0.1-1.9-0.5-3-1.3-3.7l0,0l-0.2-0.1c-1-0.3-2.1-0.5-3.2-0.6c-0.2,0-0.3,0-0.5-0.1c-3-0.4-7.4-0.5-11,1.3
	c0,0-3.4,1.5-5.7,1.5s-21.1,0.2-25.5,1.4c-0.9,0.2-1.8,0.4-2.7,0.5c-1.6,0.2-3.2,0.1-4.8-0.4C306.1,126.7,306.2,127.2,306.3,127.8z"
	/>
<path class="st3" d="M304.8,125.4c0,0,1.2,1.4,2.2,1.4s5.1-0.2,7.2-0.8c2.1-0.6,12.5-1.1,12.5-1.1s14.7,0.1,15.2-0.4s9.1-3,10-2.9
	c0.2,0,0.6,0.1,1.2,0.2l0.7,0.1c1.2,0,2.4,0.2,3.5,0.5c1.5,0.2,2.8,0.2,3.2,0.1v-0.2c-0.3-0.2-0.6-0.3-1-0.5c-2-0.5-4.1-0.9-6.3-0.9
	c-2.6-0.1-5.7,0.2-8.4,1.5c0,0-3.4,1.5-5.7,1.5s-21.1,0.2-25.5,1.4c-0.9,0.2-1.8,0.4-2.7,0.5c-2,0.2-4,0-5.8-0.8l0,0
	c0,0,0,0.1-0.1,0.1L304.8,125.4z"/>
<path class="st4" d="M360.7,126.7c0,0,3.7-2.7-1.1-4.5c0,0-8.4-2.5-14.7,0.6c0,0-3.4,1.5-5.7,1.5s-21.1,0.2-25.5,1.4
	c-0.9,0.2-1.8,0.4-2.7,0.5c-2.3,0.3-4.7-0.2-6.8-1.2c-0.3-0.2-0.6-0.2-0.7-0.1c-0.3,0.3-0.1,2.2,2.4,2.5c1.9,0.3,6.2-0.3,8-0.5
	c0.5-0.1,0.9-0.2,1.4-0.2c1.8-0.4,7.3-1.4,10.6-0.9c4,0.6,15.4-0.5,15.4-0.5s7-1.4,9.8-2.5S361.7,122.6,360.7,126.7z"/>
<path class="st3" d="M329.6,98.3c0.3-0.4,4.2-3.4,5.8-4.6l-2.9-0.4c-0.1-0.1-0.2-0.2-0.3-0.2C330.1,95.2,329.6,98.3,329.6,98.3z"/>
<polygon class="st3" points="342.2,114.4 343.4,116.2 338.6,116 338.5,114 "/>
<polygon class="st3" points="312.6,116.5 312.1,118.2 309,118.7 310.3,116.7 "/>
<path class="st3" d="M365.6,171.5c-0.3,0.5-11.2,14.2-14,13.9S365.6,171.5,365.6,171.5z"/>
<path class="st3" d="M329.2,184.1c0,0-2.6,2.4-2.3,3.4C327.4,188.4,329.2,184.1,329.2,184.1z"/>
<path class="st3" d="M358.1,200.8c0,0,2.3,10.4,1.1,10.7C358,211.9,358.1,200.8,358.1,200.8z"/>
<path class="st3" d="M328.4,241.2c-0.4,1.1-3.6,7.9-4.3,8.3S328.4,241.2,328.4,241.2z"/>
<path class="st3" d="M291.3,213c0.1,0.4,2.9,2.5,2.3,3.3S291.3,213,291.3,213z"/>
<path class="st3" d="M312.6,232.3c0.1,0.3,0.6,5.8-0.4,6.9C311.1,240.2,312.6,232.3,312.6,232.3z"/>
<path class="st3" d="M284.4,261.1c0.8,0.4,1.6,0.8,2.5,1.2c0.9,0.4,1.8,0.8,2.7,1.2c0.4,0.2,0.7,0.3,1.1,0.5
	c0.6,0.2,1.1,0.4,1.7,0.6c1.7,0.6,3.2,1.2,4.7,1.6c0.6,0.2,1.1,0.3,1.6,0.5c2.5,0.8,4.1,1.2,4.1,1.2c0.4-0.1,0.8-0.1,1.1-0.1
	c0.1,0,0.2,0,0.3,0c0.5,0,1,0.1,1.5,0.2c3.4,0.6,8.1,2.2,11,3.3c1.5,0.6,2.5,1,2.5,1l1.9,0.6l0.3,0.1c2.1,0.6,5,1.5,6.1,1.8
	c1.7,0.6,16.5,3.5,16.5,3.5c1.4,0.4,2.7,0.6,4.1,0.7c3.4,0.3,6.9,0.4,10.3,0.2c3.5,0.2,9.1-0.5,12.3-1l0.5-0.1
	c1.3-0.2,2.1-0.3,2.1-0.3l-0.4-0.6l-8.7-11.5l-0.1-0.1l-8.1-10.7l-0.3-0.4l-0.7-1c0,0-0.4-0.6-2.1-0.6c-0.2,0-0.4,0-0.7,0
	c-1.4,0.1-2.8,0.4-4.2,0.8l-0.4,0.1c-5.9,1.6-14.9,1.2-14.9,1.2s-5.6-0.9-10.1-1.4h-0.3c-1.4-0.2-2.9-0.3-4.4-0.4
	c-2.7,0.1-8.5-1.3-8.5-1.3c-1.3-0.3-1.8-0.5-2.5-1c-0.1-0.1-0.2-0.1-0.3-0.2c-0.3-0.2-0.6-0.5-1.1-0.8c-0.8-0.6-2-1.4-3.8-2.6
	c-0.2-0.1-0.3-0.2-0.5-0.3s-0.4-0.2-0.6-0.3c-1.7-0.8-3.6-1.4-5.5-1.7c-1.6-0.3-3.2-0.5-4.8-0.6h-0.2c-4.5-0.2-9.2,0.5-11.9,3
	c-0.5,0.4-0.9,0.9-1.2,1.5c-0.2,0.3-0.3,0.5-0.4,0.8c-0.2,0.5-0.4,1.1-0.5,1.6c0,0.1,0,0.2-0.1,0.3v0.1c0,0.1,0,0.2,0,0.3
	C275.9,255.4,279.7,258.5,284.4,261.1z"/>
<path class="st5" d="M373.4,277.2c0,0-9.8,1.7-14.9,1.4c0,0-9.4,0.5-14.5-0.9c0,0-14.8-3-16.5-3.5c-1.7-0.6-8.3-2.5-8.3-2.5
	s-12.9-5.2-16.5-4.3c0,0-28.5-7.1-26.5-16.7c2-9.6,20-7.4,25.7-3.8c5.7,3.6,4.8,4,7.6,4.5c0,0,5.8,1.4,8.5,1.3
	c2.7-0.1,14.7,1.8,14.7,1.8s9.5,0.4,15.3-1.3s7-0.2,7-0.2L373.4,277.2z"/>
<path class="st3" d="M352.2,252.3L352.2,252.3c0,0.3,0.1,0.5,0.2,0.7c1.2,2.7,7.8,10.1,7.8,10.1c0.3,0.9,0.7,1.7,1.1,2.6
	c0.9,1.8,2,3.5,3.1,5.1c1.7,2.4,3.6,4.7,5.7,6.9l0,0c0.3,0.2,0.5,0.4,0.8,0.5c0.7,0.4,1.8,0.9,2.8,1c0.2,0,0.3,0,0.5,0
	c-0.1,0-0.2,0-0.3,0l0.4-0.1l0.5-0.2c0.8-0.3,1.7-0.5,2.5-0.8l0.5-0.2c0.8-0.3,1.6-0.6,2.4-1l0.5-0.2c0.8-0.4,1.6-0.7,2.4-1.1
	c0.3-0.1,0.6-0.3,0.8-0.4c0.8-0.4,1.6-0.9,2.4-1.4c0.8-0.5,1.7-1,2.5-1.6c0.6-1.1,1.1-2,1.4-2.5c0.5-1,0.5-2.3,0.5-3.3
	c0-0.1,0-0.2,0-0.3c-0.1-0.6-0.1-1-0.1-1c0.4-0.6,0.9-1.2,1.2-1.8c0.2-0.3,0.3-0.7,0.3-1c0-0.1,0-0.3,0-0.4c0.2-0.9,1.2-2.5,2.2-3.5
	c0.7-0.7,0.7-3.5,0.7-5.4c0-1.2-0.1-2-0.1-2c0.1-0.1,0.2-0.2,0.3-0.4c0.2-0.6,0.4-1.3,0.5-2c0-0.1,0-0.2,0-0.3
	c0.2-1.3,0.3-2.7,0.3-2.7c2.2-1.6,3.3-4,3.8-6.2l0.1-0.3c0.3-1.3,0.4-2.7,0.3-4.1c0-0.1,0-0.2,0-0.3s0-0.1,0-0.1s-0.3-6.3-1.1-8.8
	c0-0.1-0.1-0.2-0.1-0.3c-0.1-0.2-0.1-0.3-0.2-0.4c-0.3-0.4-0.5-1.1-0.7-2c-0.1-0.6-0.2-1.3-0.3-1.9c-0.1-0.6-0.1-1.1-0.2-1.6
	c-0.1-1.4-0.2-2.4-0.2-2.4l0.6-2.6c0.2-0.7,0.3-1.5,0.4-2.2c0-0.1,0-0.2,0-0.3c0.1-1.3,0.2-2.7,0.1-4.1c0-0.1,0-0.2,0-0.3
	c-0.2-3.1-1.1-6.1-2.5-8.9l-0.2-0.3c-0.2-0.4-0.4-0.8-0.6-1.1c-0.2-0.3-0.3-0.5-0.5-0.8c-0.5-0.7-1-1.4-1.5-2.1
	c-0.1-0.1-0.2-0.2-0.2-0.3c-0.9-1.1-2-2.2-3.1-3.1c-3.1-2.5-5.9-3.6-8.4-3.7c-11.1-0.4-17.4,18.5-18.4,21.9
	c-0.1,0.3-0.1,0.5-0.1,0.5s-4.5,4.3-3.2,6.2c0.3,0.4,0.4,0.9,0.5,1.4c0.4,2.6-0.7,6.8-0.7,6.8s-0.4,1.2-1.4,3.9l-0.3,0.8
	c-0.7,1.7-0.8,4.7-0.4,7.3c0.4,2.5,1.2,4.7,2.6,5.3c2.9,1.2,2.1,2.3,1.4,3.3c-0.4,0.7-0.7,1.4-1,2.1c-0.4,1.1-0.8,2.2-0.9,2.6
	c0,0.1-0.1,0.2-0.1,0.2c-0.4-0.1-0.8-0.3-1.2-0.3c-0.5-0.1-1.1,0-1.2,0.4c-0.1,0.2-0.4,0.5-0.8,0.8
	C354.6,251.4,352.2,252.3,352.2,252.3z"/>
<path class="st2" d="M352.8,252.3L352.8,252.3c0,0.2,0.1,0.4,0.2,0.6c1.2,2.7,7.8,10.1,7.8,10.1c0.3,0.9,0.7,1.7,1.1,2.6
	c0.7,1.4,1.6,2.8,2.5,4.1c1.9,2.7,4,5.4,6.3,7.8l0.1,0.1c0,0,0.3,0.2,0.7,0.4c0.8,0.5,1.6,0.8,2.5,1l0.4-0.1l0.5-0.2
	c0.8-0.3,1.7-0.5,2.5-0.8l0.5-0.2c0.8-0.3,1.6-0.6,2.4-1l0.5-0.2c0.8-0.4,1.6-0.7,2.4-1.1c0.3-0.1,0.6-0.3,0.8-0.4
	c0.8-0.4,1.6-0.9,2.4-1.4c0.8-0.5,1.7-1,2.5-1.6c0.4-0.3,0.7-0.5,1.1-0.8c0.4-0.7,0.7-1.4,0.9-1.8c0.5-1,0.5-2.3,0.5-3.3
	c0-0.1,0-0.2,0-0.3c-0.1-0.6-0.1-1-0.1-1s0.2-0.3,0.5-0.7c0.2-0.2,0.3-0.5,0.5-0.8c0.3-0.5,0.5-1,0.5-1.3c0-0.1,0-0.1,0-0.2
	s0-0.2,0-0.3c0.2-0.9,1.2-2.5,2.2-3.5c0.7-0.7,0.7-3.5,0.7-5.4c0-0.1,0-0.2,0-0.3c0-1-0.1-1.7-0.1-1.7c0.3-0.1,0.6-1.2,0.8-2.3V248
	c0.2-1.3,0.3-2.7,0.3-2.7c2.2-1.6,3.3-4,3.8-6.2c0.3-1.5,0.5-3.1,0.4-4.6v-0.1c0,0-0.3-6.3-1.1-8.8c0-0.1-0.1-0.2-0.1-0.3
	c-0.1-0.2-0.2-0.3-0.3-0.4c-0.5-0.6-0.8-2.1-1-3.6V221c-0.3-2-0.3-4-0.3-4l0.6-2.6c0.2-0.7,0.3-1.5,0.4-2.2c0-0.1,0-0.2,0-0.3
	c0.1-1.3,0.2-2.7,0.1-4.1c0-0.1,0-0.2,0-0.3c-0.2-3.1-1.1-6.1-2.5-8.9c0-0.1-0.1-0.2-0.2-0.3c-0.4-0.8-0.8-1.5-1.3-2.2
	c-0.2-0.2-0.3-0.5-0.5-0.7c-0.3-0.4-0.6-0.8-0.9-1.1l-0.2-0.3c-0.9-1.1-2-2.2-3.1-3.1c-3.3-2.7-6.3-3.8-9.1-3.7
	c-10.7,0.4-16.7,18.6-17.7,21.9c-0.1,0.3-0.1,0.5-0.1,0.5s-4.5,4.3-3.2,6.2c0.3,0.4,0.4,0.9,0.5,1.4c0.4,2.6-0.7,6.8-0.7,6.8
	s-0.4,1.2-1.4,3.9c-0.1,0.3-0.2,0.5-0.3,0.8c-0.7,1.7-0.8,4.7-0.4,7.3c0.4,2.5,1.2,4.7,2.6,5.3c2.9,1.2,2.1,2.3,1.4,3.3
	c-0.4,0.7-0.7,1.4-1,2.1c-0.5,1.4-1,2.8-1,2.8c-0.2-0.1-0.4-0.1-0.6-0.2c-0.4-0.1-0.9-0.2-1.3-0.1c-0.2,0-0.5,0.2-0.5,0.4
	c-0.1,0.3-0.7,0.8-1.5,1.2C354.9,251.5,353.9,251.9,352.8,252.3z"/>
<path class="st3" d="M392.6,224.4c-1-0.1-12.3-4.2-14.6-2.8s-16.6,10.7-16.6,10.7s9-11.3,16.8-13.9
	C386,215.7,392.6,224.4,392.6,224.4z"/>
<path class="st3" d="M376.5,241.4c0,0-11.2,2.2-12.9,3.6L376.5,241.4z"/>
<path class="st3" d="M378.7,257.5c0.2,0.2,4.2,8.9,3.9,8.9s-3.8-5.2-3.8-5.2L378.7,257.5z"/>
<path class="st3" d="M371,247c0,0,3.3,1.1,2.9,1.2C373.5,248.3,371.1,247.5,371,247z"/>
<path class="st3" d="M374.3,260.3c-0.6,1.1-2.3,4.4-2.7,3.9S374.3,260.3,374.3,260.3z"/>
<path class="st3" d="M333.1,172.3l0.5,0.6c0,0,3.7-2.5,5.3-3.8c1.5-1.3,5.2,4.5,8,6.1c2.9,1.6,7.7,2,7.7,2s3.7-3.6,3.6-4.6
	c-0.1-1.1,1.8-1.4,1.9-2.1c0.1-0.7,0.8-2.9,1.7-3.9c0.5-0.6,0.5-2.3,0.5-3.8c-0.3-0.1-0.5-0.1-0.5-0.1c-0.5-0.8-1.1-1.6-1.8-2.2
	c-1-0.8-2.5-6-2.5-6c-0.9-2.9-2.6-2-2.6-2c0,4.3-4.6,5.9-6.9,7.7c-2.3,1.8-5.9,6.5-8.8,7.4C336.7,168.4,334,171.3,333.1,172.3z"/>
<path class="st2" d="M333.1,171.7l0.5,0.6c0,0,3.8-2.5,5.3-3.8s5.2,4.5,8,6.1s7.7,2,7.7,2s3.7-3.6,3.6-4.6s1.8-1.4,1.9-2.1
	c0.1-0.7,0.8-2.9,1.7-3.9c0.5-0.6,0.5-2.3,0.5-3.8l-0.5-0.1c-0.5-0.8-1.1-1.6-1.8-2.2c-1-0.8-2.5-6-2.5-6c-0.9-2.9-2.6-2-2.6-2
	c0,4.3-4.6,5.9-6.9,7.7c-2.3,1.8-5.9,6.4-8.8,7.4C336.7,167.7,334,170.7,333.1,171.7z"/>
<path class="st3" d="M332.8,172.5c0,0,3.2,1.7,5.8,1.9c0.3,0,0.7,0,1-0.1l0,0c0,0-2.8-2-5.4-2.4L332.8,172.5z"/>
<path class="st3" d="M326.2,181.2c0,0,4.1-1.5,5.4,0.8c0-1.1-0.1-1.9-0.1-1.9l-4.5-0.8C327,179.3,326.6,180.1,326.2,181.2
	C326.2,181.1,326.2,181.2,326.2,181.2z"/>
<path class="st7" d="M339.6,174.3c0,0-4.9-2.8-7.3-2.6c-2.5,0.2-7.3,0.4-7.3,0.4s1.7,3.6,1.4,4.3c-0.2,0.7-0.3,4.3-0.3,4.3
	s5-1.9,5.8,1.6c0,0,2.7-3.9,4.5-5C337.7,176.6,338.8,175.5,339.6,174.3z"/>
<path class="st3" d="M311.9,177.6c1.4,0,6.5-3.1,7.6-5.1s2.6,0.2,4.1,1c0.9,0.5,4.5-0.5,6.4-1.2c-1-0.6-3.2-2.4-3.8-2.9
	c-0.8-0.5-1.5-9.1-1.5-9.1c-2.8-1.4-5.7,11.1-5.7,11.1s-5.2,1.5-5.6,2.5c-0.1,0.2-0.5,0.6-1.1,1
	C311.7,176.4,311.3,177.6,311.9,177.6z"/>
<path class="st2" d="M311.9,177c1.4,0,6.5-3.1,7.6-5.1s2.6,0.2,4.1,0.9c0.9,0.5,3.8-0.4,5.7-1.2c-1-0.6-2.4-2.5-3.1-3
	c-0.8-0.5-1.5-9.1-1.5-9.1c-2.8-1.4-5.7,11.1-5.7,11.1s-5.2,1.5-5.6,2.5c-0.1,0.2-0.5,0.6-1.1,1C311.7,175.8,311.3,177,311.9,177z"
	/>
<path class="st10" d="M292.3,269.7l-47.9-38.3c-0.5-0.4-1.1-0.6-1.7-0.6l-17.9,0.5c0,0-1.2,0.9,0.6,2.8l45.1,35.6
	c0.5,0.4,1.1,0.6,1.7,0.6l19.5,0.6c0.4,0,0.7-0.3,0.7-0.6C292.6,270,292.5,269.8,292.3,269.7z"/>
<path class="st5" d="M269.2,264.9c0,0-10.5,14.4-22.1,1s-8.3-20.4-4.7-20.8C245.9,244.8,265.7,259.4,269.2,264.9z"/>
<path class="st1" d="M198.7,104c0,0-13.5-25.1-29.4-12.2c0,0-3.5,1.2-3.2,4.7c0,0,1.3-0.7,2.4,2c0.4,1,0.9,1.9,1.5,2.7
	c0.8,1.1,2,2,3.4,2.4l0,0c0,0,7.1,5.1,20.4,1.2c0,0,3.7,0.5,4.3,0.1l-4.4-3.1c0,0-2.2,3.2-5.4,3.5c0,0,5.4-3.3,4.8-4
	c-0.1-0.1-2.4-1.5-2.4-1.5s-3.9,5.5-8.9,5.9c0,0,7-3.1,8-6.4l-3.5-1.9c0,0-3.8,6-9.5,6.6c0,0,7.2-3.5,8.7-7l-3.7-1.4
	c0,0-3.8,5.8-8.6,6.3c0,0,7.9-4.8,7.7-6.5c0,0-3.5-1.1-4.6-0.9c0,0-2.8,4.1-5.6,4.1c0,0,4.9-3.8,4.6-4.3c0,0-5-0.2-7.6,0.9
	c0,0,3.7-2,7.6-1.7c0,0-1.8-2-4-2.4c0,0,2.7-1.1,5.2,2.5c0,0,3.9,0.3,4.3,0.8c0,0-2-3.9-4.4-5.5c0,0,3.6,0.6,5.4,5.8l3.8,1.3
	c0,0-2.3-5.2-4.3-6.8c0,0,3.6,1.2,5.3,7.3l3.5,1.8c0,0-1.6-4.6-3.5-6.9c0,0,3.1,1.8,4.5,7.5l2.2,1.5c0,0-1.2-3.4-1.7-4.3
	s-0.2-1.1-0.2-1.1c1.5,1.7,2.5,3.8,2.9,6C194.2,101,198.4,104.3,198.7,104z"/>
<path class="st1" d="M143,117.5c0,0-6.1-11.4-13.3-5.5c0,0-1.6,0.5-1.5,2.1c0,0,0.6-0.3,1.1,0.9c0.2,0.4,0.4,0.8,0.7,1.2
	c0.4,0.5,0.9,0.9,1.5,1.1l0,0c0,0,3.2,2.3,9.2,0.5c0,0,1.7,0.2,2,0l-2-1.4c0,0-1,1.4-2.5,1.6c0,0,2.5-1.5,2.2-1.8
	c-0.1-0.1-1.1-0.7-1.1-0.7s-1.7,2.5-4,2.7c0,0,3.2-1.4,3.6-2.9l-1.6-0.9c0,0-1.7,2.7-4.3,3c0,0,3.3-1.6,3.9-3.2l-1.7-0.6
	c0,0-1.7,2.6-3.9,2.8c0,0,3.6-2.2,3.5-3c0,0-1.6-0.5-2.1-0.4c0,0-1.3,1.8-2.5,1.9c0,0,2.2-1.7,2.1-2c0,0-2.2-0.1-3.4,0.4
	c0,0,1.7-0.9,3.4-0.7c-0.5-0.5-1.1-0.9-1.8-1.1c0,0,1.2-0.5,2.4,1.1c0,0,1.7,0.2,2,0.3c0,0-0.9-1.7-2-2.5c0,0,1.6,0.3,2.4,2.6
	l1.7,0.6c0,0-1-2.4-2-3.1c0,0,1.6,0.5,2.4,3.3l1.6,0.8c0,0-0.7-2.1-1.6-3.1c0,0,1.4,0.8,2,3.4l1,0.7c0,0-0.6-1.5-0.8-1.9
	s-0.1-0.5-0.1-0.5c0.7,0.8,1.1,1.7,1.3,2.7C140.9,116.1,142.9,117.6,143,117.5z"/>
<path class="st1" d="M208.9,130.7c0,0-6.1-11.4-13.3-5.5c0,0-1.6,0.5-1.5,2.1c0,0,0.6-0.3,1.1,0.9c0.2,0.4,0.4,0.8,0.7,1.2
	c0.4,0.5,0.9,0.9,1.5,1.1l0,0c0,0,3.2,2.3,9.2,0.5c0,0,1.7,0.2,2,0l-2-1.4c0,0-1,1.4-2.5,1.6c0,0,2.5-1.5,2.2-1.8
	c-0.1-0.1-1.1-0.7-1.1-0.7s-1.7,2.5-4,2.7c0,0,3.2-1.4,3.6-2.9l-1.6-0.8c0,0-1.7,2.7-4.3,3c0,0,3.3-1.6,3.9-3.2l-1.7-0.6
	c0,0-1.7,2.6-3.9,2.8c0,0,3.6-2.2,3.5-3c0,0-1.6-0.5-2.1-0.4c0,0-1.3,1.8-2.5,1.9c0,0,2.2-1.7,2.1-2c0,0-2.2-0.1-3.4,0.4
	c0,0,1.7-0.9,3.4-0.7c-0.5-0.5-1.1-0.9-1.8-1.1c0,0,1.2-0.5,2.4,1.1c0,0,1.7,0.2,2,0.3c0,0-0.9-1.7-2-2.5c0,0,1.6,0.3,2.4,2.6
	l1.7,0.6c0,0-1-2.4-2-3.1c0,0,1.6,0.5,2.4,3.3l1.6,0.8c0,0-0.7-2.1-1.6-3.1c0,0,1.4,0.8,2,3.4l1,0.7c0,0-0.6-1.5-0.8-1.9
	c-0.2-0.4-0.1-0.5-0.1-0.5c0.7,0.8,1.1,1.7,1.3,2.7C206.9,129.3,208.8,130.8,208.9,130.7z"/>
</svg>
