<?xml version="1.0" encoding="utf-8"?>
<!-- Generator: Adobe Illustrator 22.0.1, SVG Export Plug-In . SVG Version: 6.00 Build 0)  -->
<svg version="1.1" id="Layer_1" xmlns="http://www.w3.org/2000/svg" xmlns:xlink="http://www.w3.org/1999/xlink" x="0px" y="0px"
	 viewBox="0 0 1300 400" style="enable-background:new 0 0 1300 400;" xml:space="preserve">
<style type="text/css">
	.st0{fill:url(#SVGID_1_);stroke:#000000;stroke-width:1.6452;stroke-miterlimit:10;}
	.st1{opacity:0.1;fill:#0D8CD8;enable-background:new    ;}
	.st2{fill:#CED7E7;}
	.st3{opacity:0.1;enable-background:new    ;}
	.st4{fill:#FED253;}
	.st5{fill:#FFA2A2;}
	.st6{opacity:5.000000e-02;enable-background:new    ;}
	.st7{fill:#63667E;}
	.st8{fill:#896363;}
	.st9{opacity:0.1;}
	.st10{fill:#0D8CD8;}
</style>
<linearGradient id="SVGID_1_" gradientUnits="userSpaceOnUse" x1="0" y1="200" x2="1300" y2="200" gradientTransform="matrix(1 0 0 -1 0 400)">
	<stop  offset="0" style="stop-color:#007194"/>
	<stop  offset="1" style="stop-color:#41C1C9"/>
</linearGradient>
<rect class="st0" width="1300" height="400"/>
<path class="st1" d="M1210.4,269.2c-8,15.9-24.3,26.6-41.2,33.6c-13.5,5.6-27.8,9.3-42.5,10.9c-2.8,0.3-5.6,0.6-8.4,0.7
	c-7.2,0.5-14.4,0.4-21.6,0c-4.3-0.3-8.7-0.7-13-1.3c-15-2.1-29.5-6.2-43.3-12.1c-4-1.7-7.9-3.6-11.7-5.6
	c-6.4-3.4-12.5-7.2-18.3-11.5c-1.3-0.9-2.5-1.9-3.8-2.9l-0.5-0.4c-1-0.8-2-1.6-2.9-2.3c-1.6-1.3-3.4-2.5-5.2-3.6
	c-0.1-0.1-0.2-0.1-0.4-0.2c-0.3-0.2-0.7-0.4-1-0.5c-0.7-0.3-1.5-0.7-2.2-0.9c-3.5-1.3-7.2-1.7-11-1.7c-0.6,0-1.3,0-1.9,0.1l0,0
	c-0.9,0.1-1.8,0.1-2.7,0.3l-0.3,0c-2.8,0.4-5.6,1-8.3,1.7c-4.2,1.2-8.4,2.6-12.5,3.9l0,0c-1.8,0.6-3.5,1.1-5.3,1.6l-0.4,0.1
	c-2.5,0.7-5.1,1.2-7.7,1.6c-5.9,0.7-12,0.3-17.7-1.4l-0.2-0.1l-0.4-0.1l-0.5-0.2c-0.8-0.3-1.7-0.5-2.5-0.8l-0.5-0.2
	c-0.8-0.3-1.6-0.6-2.4-1l-0.5-0.2c-0.8-0.4-1.6-0.7-2.4-1.1c-0.3-0.1-0.6-0.3-0.8-0.4c-0.8-0.4-1.6-0.9-2.4-1.4
	c-0.8-0.5-1.7-1-2.5-1.6c-0.4-0.3-0.7-0.5-1.1-0.8c-2.1-1.5-4-3.2-5.9-5.1c-0.1-0.1-0.2-0.2-0.3-0.3c-0.5-0.5-1-1-1.4-1.5
	c-0.2-0.2-0.3-0.4-0.5-0.6c-0.5-0.6-1.1-1.3-1.6-1.9c-0.1-0.1-0.1-0.2-0.2-0.3c-2.1-2.7-3.8-5.7-5.1-8.9c0-0.1-0.1-0.2-0.1-0.3
	c-0.4-1-0.8-2-1.1-3c-0.1-0.4-0.3-0.9-0.4-1.3c0-0.1-0.1-0.3-0.1-0.4c-1.7-6.3-1.9-12.9-1.9-19.4c0-0.8,0-1.5,0-2.3
	c0-10.6,0.2-21.3,1.8-31.7c0-0.1,0-0.1,0-0.2c0.5-3.5,1.3-7,2.2-10.4c1-3.6,2.2-7.1,3.7-10.5c3.7-8.4,9.1-16.1,15.2-23.2
	c7.3-8.5,15.6-16.4,24.8-22.9c1.3-0.9,2.7-1.8,4-2.7l0.6-0.4c0.2-0.1,0.4-0.3,0.7-0.4l0,0c0.5-0.3,0.9-0.6,1.4-0.8l0.5-0.3l1-0.6
	l0.3-0.2l0.5-0.3l0.5-0.3c0.6-0.3,1.2-0.7,1.8-1c2.6-1.4,5.3-2.7,8.1-3.9c0.8-0.3,1.6-0.7,2.5-1c3.8-1.5,7.6-2.7,11.5-3.6
	c1.5-0.4,2.9-0.7,4.4-0.9c1.7-0.3,3.5-0.6,5.2-0.8c2.8-0.3,5.6-0.5,8.4-0.6c19.7-0.5,39.7,5.7,55.2,17.6
	c6.2,4.7,11.7,10.3,18.6,13.9c6,3.1,13.1,4.5,19.6,2c5.4-2,8.8-3.1,14.8-2.8c12.4,0.7,24.7,3.1,36.4,7.3c0.5,0.2,0.9,0.3,1.4,0.5
	c30.4,11.2,56.6,33.4,70.2,62c0.4,0.8,0.7,1.5,1,2.3C1216.4,230.2,1219.3,251.5,1210.4,269.2z"/>
<path class="st1" d="M952.2,168.7v110.1l-0.4,0.1c-2.5,0.7-5.1,1.2-7.7,1.6c-5.9,0.7-12,0.3-17.7-1.4l-0.2-0.1l-0.4-0.1l-0.5-0.2
	c-0.8-0.3-1.7-0.5-2.5-0.8l-0.5-0.2c-0.8-0.3-1.6-0.6-2.4-1l-0.5-0.2c-0.8-0.4-1.6-0.7-2.4-1.1c-0.3-0.1-0.6-0.3-0.8-0.4
	c-0.8-0.4-1.6-0.9-2.4-1.4c-0.8-0.5-1.7-1-2.5-1.6c-0.4-0.3-0.7-0.5-1.1-0.8c-2.1-1.5-4-3.2-5.9-5.1c-0.1-0.1-0.2-0.2-0.3-0.3
	c-0.5-0.5-1-1-1.4-1.5c-0.2-0.2-0.3-0.4-0.5-0.6c-0.5-0.6-1.1-1.3-1.6-1.9c-0.1-0.1-0.1-0.2-0.2-0.3c-2.1-2.7-3.8-5.7-5.1-8.9
	c0-0.1-0.1-0.2-0.1-0.3c-0.4-1-0.8-2-1.1-3c-0.1-0.4-0.3-0.9-0.4-1.3c0-0.1-0.1-0.3-0.1-0.4c-1.7-6.3-1.9-12.9-1.9-19.4
	c0-0.8,0-1.5,0-2.3c0-10.6,0.2-21.3,1.8-31.7c0-0.1,0-0.1,0-0.2c0.5-3.5,1.3-7,2.2-10.4h30.9v-15h6.2v-12h13.2v12H952.2z"/>
<path class="st1" d="M1210.4,269.2c-8,15.9-24.3,26.6-41.2,33.6c-13.5,5.6-27.8,9.3-42.5,10.9c-2.8,0.3-5.6,0.6-8.4,0.7
	c-7.2,0.5-14.4,0.4-21.6,0c-4.3-0.3-8.7-0.7-13-1.3c-15-2.1-29.5-6.2-43.3-12.1c-4-1.7-7.9-3.6-11.7-5.6
	c-6.4-3.4-12.5-7.2-18.3-11.5c-1.3-0.9-2.5-1.9-3.8-2.9l-0.5-0.4c-1-0.8-2-1.6-2.9-2.3c-1.6-1.3-3.4-2.5-5.2-3.6
	c-0.1-0.1-0.2-0.1-0.4-0.2c-0.3-0.2-0.7-0.4-1-0.5c-0.7-0.3-1.5-0.7-2.2-0.9v-45.1h56.1v10h24.6v-73.4h29v29.3h14.3v-17.4h11.8V158
	h5.4v-10.8c0.5,0.2,0.9,0.3,1.4,0.5V158h5.3v18.6h11.8v17.4h17.5v66.2h27.7v-48.1h8.9C1216.4,230.2,1219.3,251.5,1210.4,269.2z"/>
<rect x="1083.7" y="175.6" class="st1" width="13" height="12.4"/>
<rect x="1083.7" y="201.4" class="st1" width="13" height="12.4"/>
<rect x="1083.7" y="227.2" class="st1" width="13" height="12.4"/>
<rect x="1083.7" y="253" class="st1" width="13" height="12.4"/>
<rect x="1083.7" y="278.8" class="st1" width="13" height="12.4"/>
<rect x="998.6" y="244" class="st1" width="45.3" height="5.6"/>
<rect x="998.6" y="261.1" class="st1" width="45.3" height="5.6"/>
<path class="st1" d="M1043.9,278.2v5.6h-33.5c-1.3-0.9-2.5-1.9-3.8-2.9l-0.5-0.4c-1-0.8-2-1.6-2.9-2.3H1043.9z"/>
<rect x="1118.3" y="209.3" class="st1" width="8.4" height="8.1"/>
<rect x="935.7" y="171.5" class="st1" width="8.4" height="8.1"/>
<rect x="935.7" y="190.4" class="st1" width="8.4" height="8.1"/>
<rect x="935.7" y="209.2" class="st1" width="8.4" height="8.1"/>
<rect x="935.7" y="228" class="st1" width="8.4" height="8.1"/>
<rect x="935.7" y="246.8" class="st1" width="8.4" height="8.1"/>
<rect x="935.7" y="265.6" class="st1" width="8.4" height="8.1"/>
<rect x="1150.5" y="209.3" class="st1" width="8.4" height="8.1"/>
<rect x="1118.3" y="229.3" class="st1" width="8.4" height="8.1"/>
<rect x="1150.5" y="229.3" class="st1" width="8.4" height="8.1"/>
<rect x="1118.3" y="249.3" class="st1" width="8.4" height="8.1"/>
<rect x="1150.5" y="249.3" class="st1" width="8.4" height="8.1"/>
<rect x="1118.3" y="269.3" class="st1" width="8.4" height="8.1"/>
<rect x="1150.5" y="269.3" class="st1" width="8.4" height="8.1"/>
<path class="st1" d="M893.6,194.1v4.6h32.2v-4.6H893.6z M896.4,198.5h-2.4v-4.1h2.4V198.5z M899.3,198.5h-2.4v-4.1h2.4V198.5z
	 M902.2,198.5h-2.4v-4.1h2.4V198.5z M905,198.5h-2.4v-4.1h2.4V198.5z M907.9,198.5h-2.4v-4.1h2.4V198.5z M910.8,198.5h-2.4v-4.1h2.4
	V198.5z M913.7,198.5h-2.4v-4.1h2.4V198.5z M916.5,198.5h-2.4v-4.1h2.4V198.5z M919.4,198.5H917v-4.1h2.4V198.5z M922.3,198.5h-2.4
	v-4.1h2.4V198.5z M925.3,198.5h-2.5v-4.1h2.5V198.5z"/>
<path class="st1" d="M893.6,207.6v4.6h32.2v-4.6H893.6z M896.4,212h-2.4v-4.1h2.4V212z M899.3,212h-2.4v-4.1h2.4V212z M902.2,212
	h-2.4v-4.1h2.4V212z M905,212h-2.4v-4.1h2.4V212z M907.9,212h-2.4v-4.1h2.4V212z M910.8,212h-2.4v-4.1h2.4V212z M913.7,212h-2.4
	v-4.1h2.4V212z M916.5,212h-2.4v-4.1h2.4V212z M919.4,212H917v-4.1h2.4V212z M922.3,212h-2.4v-4.1h2.4V212z M925.3,212h-2.5v-4.1
	h2.5V212z"/>
<path class="st1" d="M893.6,221.1v4.6h32.2v-4.6H893.6z M896.4,225.4h-2.4v-4.1h2.4V225.4z M899.3,225.4h-2.4v-4.1h2.4V225.4z
	 M902.2,225.4h-2.4v-4.1h2.4V225.4z M905,225.4h-2.4v-4.1h2.4V225.4z M907.9,225.4h-2.4v-4.1h2.4V225.4z M910.8,225.4h-2.4v-4.1h2.4
	V225.4z M913.7,225.4h-2.4v-4.1h2.4V225.4z M916.5,225.4h-2.4v-4.1h2.4V225.4z M919.4,225.4H917v-4.1h2.4V225.4z M922.3,225.4h-2.4
	v-4.1h2.4V225.4z M925.3,225.4h-2.5v-4.1h2.5V225.4z"/>
<path class="st1" d="M893.6,234.6v4.6h32.2v-4.6H893.6z M896.4,238.9h-2.4v-4.1h2.4V238.9z M899.3,238.9h-2.4v-4.1h2.4V238.9z
	 M902.2,238.9h-2.4v-4.1h2.4V238.9z M905,238.9h-2.4v-4.1h2.4V238.9z M907.9,238.9h-2.4v-4.1h2.4V238.9z M910.8,238.9h-2.4v-4.1h2.4
	V238.9z M913.7,238.9h-2.4v-4.1h2.4V238.9z M916.5,238.9h-2.4v-4.1h2.4V238.9z M919.4,238.9H917v-4.1h2.4V238.9z M922.3,238.9h-2.4
	v-4.1h2.4V238.9z M925.3,238.9h-2.5v-4.1h2.5V238.9z"/>
<path class="st1" d="M893.7,248.1c0.1,0.4,0.2,0.9,0.4,1.3v-1h2.4v4.1h-1.3c0,0.1,0.1,0.2,0.1,0.3h30.5v-4.6H893.7z M899.3,252.5
	h-2.4v-4.1h2.4V252.5z M902.2,252.5h-2.4v-4.1h2.4V252.5z M905,252.5h-2.4v-4.1h2.4V252.5z M907.9,252.5h-2.4v-4.1h2.4V252.5z
	 M910.8,252.5h-2.4v-4.1h2.4L910.8,252.5z M913.7,252.5h-2.4v-4.1h2.4V252.5z M916.5,252.5h-2.4v-4.1h2.4V252.5z M919.4,252.5H917
	v-4.1h2.4V252.5z M922.3,252.5h-2.4v-4.1h2.4V252.5z M925.3,252.5h-2.5v-4.1h2.5V252.5z"/>
<path class="st1" d="M900.4,261.6c0.1,0.1,0.1,0.2,0.2,0.3h1.6v1.9c0.2,0.2,0.3,0.4,0.5,0.6v-2.5h2.4v4.1h-1
	c0.1,0.1,0.2,0.2,0.3,0.3h21.4v-4.6L900.4,261.6z M907.9,265.9h-2.4v-4.1h2.4V265.9z M910.8,265.9h-2.4v-4.1h2.4V265.9z
	 M913.7,265.9h-2.4v-4.1h2.4V265.9z M916.5,265.9h-2.4v-4.1h2.4V265.9z M919.4,265.9H917v-4.1h2.4V265.9z M922.3,265.9h-2.4v-4.1
	h2.4V265.9z M925.3,265.9h-2.5v-4.1h2.5V265.9z"/>
<path class="st1" d="M916.2,275.1c0.3,0.1,0.5,0.3,0.8,0.4v-0.1h2.4v1.3l0.5,0.2v-1.5h2.4v2.5l0.5,0.2v-2.7h2.5v3.5l0.5,0.2v-3.9
	H916.2z"/>
<path class="st1" d="M1015.6,153.9c0,0-7.2-0.4-6.3,4.4c-0.1,0.5,0.2,1,0.6,1.2c0,0,0-0.4,0.7-0.2c0.3,0,0.5,0.1,0.8,0
	c0.4,0,0.7-0.2,1-0.4l0,0c0,0,2-0.8,2.8-4c0,0,0.6-0.7,0.6-0.9l-1.2,0.5c0,0,0.4,0.8,0.1,1.5c0,0,0-1.5-0.3-1.5c0,0-0.6,0.3-0.6,0.3
	s0.7,1.5,0.2,2.5c0,0,0.2-1.8-0.4-2.4l-0.9,0.5c0,0,0.8,1.5,0.3,2.8c0,0,0.1-1.9-0.4-2.6l-0.8,0.6c0,0,0.8,1.5,0.3,2.5
	c0,0-0.1-2.2-0.5-2.4c-0.3,0.2-0.6,0.5-0.8,0.8c0,0,0.5,1.1,0.2,1.7c0,0-0.2-1.5-0.4-1.5c0,0-0.7,1-0.7,1.6c0-0.6,0.2-1.2,0.6-1.7
	c-0.4,0.1-0.7,0.2-1,0.5c0,0,0.1-0.7,1.2-0.7c0,0,0.6-0.7,0.7-0.8c0,0-1.1-0.1-1.8,0.2c0,0,0.6-0.7,2-0.4l0.8-0.6c0,0-1.4-0.2-2,0
	c0,0,0.7-0.6,2.2-0.2l0.8-0.5c-0.6-0.1-1.3-0.2-2-0.2c0,0,0.8-0.4,2.2,0l0.6-0.3c0,0-0.9-0.2-1.2-0.2s-0.3-0.1-0.3-0.1
	c0.6-0.1,1.2,0,1.7,0.2C1014.4,154.4,1015.7,154,1015.6,153.9z"/>
<path class="st1" d="M996.7,177.5c0,0-2.5,6.5,2.6,7.1c0.5,0.2,1.1,0.1,1.4-0.2c0,0-0.4-0.1,0-0.7c0.1-0.2,0.2-0.5,0.3-0.7
	c0.1-0.3,0-0.7-0.1-1l0,0c0,0-0.2-2.1-3.2-3.7c0,0-0.5-0.7-0.7-0.8l0.2,1.3c0,0,1-0.1,1.6,0.4c0,0-1.5-0.4-1.6-0.2
	c0,0,0.1,0.7,0.1,0.7s1.7-0.2,2.6,0.6c0,0-1.7-0.7-2.5-0.3l0.2,0.9c0,0,1.8-0.3,2.8,0.5c0,0-1.9-0.7-2.8-0.3l0.4,0.9
	c0,0,1.7-0.3,2.6,0.4c0,0-2.2-0.6-2.5-0.2c0.2,0.3,0.4,0.7,0.6,0.9c0,0,1.2-0.2,1.7,0.3c0,0-1.5-0.2-1.6-0.1c0,0,0.8,0.9,1.4,1.2
	c-0.6-0.2-1.1-0.6-1.6-1c0,0.4,0,0.8,0.2,1.1c0,0-0.7-0.3-0.4-1.3c0,0-0.6-0.7-0.6-0.9c0,0-0.4,1-0.3,1.7c0,0-0.5-0.7,0.2-1.9
	l-0.4-0.9c0,0-0.6,1.3-0.6,1.9c0,0-0.4-0.8,0.5-2.1l-0.2-0.9c-0.3,0.5-0.6,1.1-0.7,1.7c0,0-0.2-0.8,0.7-2l-0.1-0.6
	c0,0-0.4,0.8-0.5,1c-0.1,0.2-0.2,0.2-0.2,0.2c0.1-0.5,0.3-1.1,0.7-1.5C996.9,178.8,996.8,177.5,996.7,177.5z"/>
<path class="st1" d="M1044.5,172c0,0-2.5,6.5,2.6,7.1c0.5,0.2,1.1,0.1,1.4-0.2c0,0-0.4-0.1,0-0.7c0.1-0.2,0.2-0.5,0.3-0.7
	c0.1-0.3,0-0.7-0.1-1l0,0c0,0-0.2-2.1-3.2-3.7c0,0-0.5-0.7-0.7-0.8l0.2,1.3c0,0,1-0.1,1.6,0.4c0,0-1.5-0.4-1.6-0.2
	c0,0,0.1,0.7,0.1,0.7s1.7-0.2,2.6,0.6c0,0-1.7-0.7-2.5-0.3l0.2,0.9c0,0,1.8-0.3,2.8,0.5c0,0-1.9-0.7-2.8-0.3l0.4,0.9
	c0,0,1.7-0.3,2.6,0.4c0,0-2.2-0.6-2.5-0.2c0.2,0.3,0.4,0.7,0.6,0.9c0,0,1.2-0.2,1.7,0.3c0,0-1.5-0.2-1.6-0.1c0,0,0.8,0.9,1.4,1.2
	c-0.6-0.2-1.1-0.6-1.6-1c0,0.4,0,0.8,0.2,1.1c0,0-0.7-0.3-0.4-1.3c0,0-0.6-0.7-0.6-0.9c0,0-0.4,1-0.3,1.7c0,0-0.5-0.7,0.2-1.9
	l-0.4-0.9c0,0-0.6,1.3-0.6,1.9c0,0-0.4-0.8,0.5-2.1l-0.2-0.9c-0.3,0.5-0.6,1.1-0.7,1.7c0,0-0.2-0.8,0.7-2l-0.1-0.6
	c0,0-0.4,0.8-0.5,1s-0.2,0.2-0.2,0.2c0.1-0.5,0.3-1.1,0.7-1.5C1044.7,173.3,1044.6,172,1044.5,172z"/>
<path class="st1" d="M976.2,225.3c0,0-2.5,6.5,2.6,7.1c0.5,0.2,1.1,0.1,1.4-0.2c0,0-0.4-0.1,0-0.7c0.1-0.2,0.2-0.5,0.3-0.7
	c0.1-0.3,0-0.7-0.1-1l0,0c0,0-0.2-2.1-3.2-3.7c0,0-0.5-0.7-0.7-0.8l0.2,1.3c0,0,1-0.1,1.6,0.4c0,0-1.5-0.4-1.6-0.2
	c0,0,0.1,0.7,0.1,0.7s1.7-0.2,2.6,0.6c0,0-1.7-0.7-2.5-0.3l0.2,0.9c0,0,1.8-0.3,2.8,0.5c0,0-1.9-0.7-2.8-0.3l0.4,0.9
	c0,0,1.7-0.3,2.6,0.4c0,0-2.2-0.6-2.5-0.2c0.2,0.3,0.4,0.7,0.6,0.9c0,0,1.2-0.2,1.7,0.3c0,0-1.5-0.2-1.6-0.1c0,0,0.8,0.9,1.4,1.2
	c-0.6-0.2-1.1-0.6-1.6-1c0,0.4,0,0.8,0.2,1.1c0,0-0.7-0.3-0.4-1.3c0,0-0.6-0.7-0.6-0.9c0,0-0.4,1-0.3,1.7c0,0-0.5-0.7,0.2-1.9
	l-0.4-0.9c0,0-0.6,1.3-0.6,1.9c0,0-0.4-0.8,0.5-2.1l-0.2-0.9c-0.3,0.5-0.6,1.1-0.7,1.7c0,0-0.2-0.8,0.7-2l-0.1-0.6
	c0,0-0.4,0.8-0.5,1c-0.1,0.2-0.2,0.2-0.2,0.2c0.1-0.5,0.3-1.1,0.7-1.5C976.4,226.6,976.3,225.3,976.2,225.3z"/>
<path class="st1" d="M966.4,163.8c0,0-2.5,6.5,2.6,7.1c0.5,0.2,1.1,0.1,1.4-0.2c0,0-0.4-0.1,0-0.7c0.1-0.2,0.2-0.5,0.3-0.7
	c0.1-0.3,0-0.7-0.1-1l0,0c0,0-0.2-2.1-3.2-3.7c0,0-0.5-0.7-0.7-0.8l0.2,1.3c0,0,1-0.1,1.6,0.4c0,0-1.5-0.4-1.6-0.2
	c0,0,0.1,0.7,0.1,0.7s1.7-0.2,2.6,0.6c0,0-1.7-0.7-2.5-0.3l0.2,0.9c0,0,1.8-0.3,2.8,0.5c0,0-1.9-0.7-2.8-0.3l0.4,0.9
	c0,0,1.7-0.3,2.6,0.4c0,0-2.2-0.6-2.5-0.2c0.2,0.3,0.4,0.7,0.6,0.9c0,0,1.2-0.2,1.7,0.3c0,0-1.5-0.2-1.6-0.1c0,0,0.8,0.9,1.4,1.2
	c-0.6-0.2-1.1-0.6-1.6-1c0,0.4,0,0.8,0.2,1.1c0,0-0.7-0.3-0.4-1.3c0,0-0.6-0.7-0.6-0.9c0,0-0.4,1-0.3,1.7c0,0-0.5-0.7,0.2-1.9
	l-0.4-0.9c0,0-0.6,1.3-0.6,1.9c0,0-0.4-0.8,0.5-2.1l-0.2-0.9c-0.3,0.5-0.6,1.1-0.7,1.7c0,0-0.2-0.8,0.7-2l-0.1-0.6
	c0,0-0.4,0.8-0.5,1c-0.1,0.2-0.2,0.2-0.2,0.2c0.1-0.5,0.3-1.1,0.7-1.5C966.6,165.1,966.5,163.8,966.4,163.8z"/>
<path class="st1" d="M984.7,199.3c0,0,1.9,6.7,6.4,4.4c0.5-0.1,0.9-0.5,1-1c0,0-0.4,0.1-0.5-0.6c0-0.2-0.1-0.5-0.2-0.7
	c-0.1-0.3-0.4-0.6-0.7-0.7l0,0c0,0-1.4-1.6-4.8-1.3c0,0-0.9-0.3-1-0.2l0.9,0.9c0,0,0.7-0.6,1.5-0.6c0,0-1.5,0.5-1.4,0.7
	c0,0,0.5,0.5,0.5,0.5s1.2-1.1,2.4-1c0,0-1.8,0.4-2.3,1.1l0.7,0.6c0,0,1.2-1.2,2.6-1.1c0,0-1.9,0.5-2.5,1.3l0.8,0.5
	c0,0,1.2-1.2,2.4-1.1c0,0-2.2,0.8-2.2,1.2c0.3,0.2,0.7,0.3,1.1,0.5c0,0,0.9-0.8,1.6-0.7c0,0-1.4,0.7-1.3,0.8c0,0,1.2,0.3,1.9,0.2
	c-0.6,0.2-1.3,0.2-1.9,0c0.2,0.3,0.5,0.6,0.8,0.8c0,0-0.7,0.1-1.1-0.9c0,0-0.9-0.3-1-0.4c0,0,0.3,1,0.8,1.5c0,0-0.8-0.3-1-1.7
	l-0.8-0.5c0,0,0.3,1.4,0.7,1.9c0,0-0.8-0.5-0.9-2l-0.7-0.6c0.1,0.6,0.2,1.2,0.5,1.8c0,0-0.6-0.6-0.7-2l-0.4-0.5c0,0,0.1,0.9,0.2,1.1
	c0.1,0.2,0,0.3,0,0.3c-0.3-0.5-0.4-1-0.4-1.6C985.6,200.3,984.8,199.3,984.7,199.3z"/>
<path class="st1" d="M1036.3,205.3c0,0,1.9,6.7,6.4,4.4c0.5-0.1,0.9-0.5,1-1c0,0-0.4,0.1-0.5-0.6c0-0.2-0.1-0.5-0.2-0.7
	c-0.1-0.3-0.4-0.6-0.7-0.7l0,0c0,0-1.4-1.6-4.8-1.3c0,0-0.9-0.3-1-0.2l0.9,0.9c0,0,0.7-0.6,1.5-0.6c0,0-1.5,0.5-1.4,0.7
	c0,0,0.5,0.5,0.5,0.5s1.2-1.1,2.4-1c0,0-1.9,0.4-2.3,1.1l0.7,0.6c0,0,1.2-1.2,2.6-1.1c0,0-1.9,0.5-2.5,1.3l0.8,0.5
	c0,0,1.2-1.2,2.4-1.1c0,0-2.2,0.8-2.2,1.2c0.3,0.2,0.7,0.3,1,0.5c0,0,0.9-0.8,1.6-0.7c0,0-1.4,0.7-1.3,0.8c0,0,1.2,0.3,1.9,0.2
	c-0.6,0.2-1.3,0.2-1.9,0c0.2,0.3,0.5,0.6,0.8,0.8c0,0-0.7,0.1-1.1-0.9c0,0-0.9-0.3-1-0.4c0,0,0.3,1,0.8,1.5c0,0-0.8-0.3-1-1.7
	l-0.8-0.5c0,0,0.3,1.4,0.7,1.9c0,0-0.8-0.5-0.9-2l-0.7-0.6c0.1,0.6,0.2,1.2,0.5,1.8c0,0-0.6-0.6-0.7-2l-0.4-0.5c0,0,0.1,0.9,0.2,1.1
	c0.1,0.2,0,0.3,0,0.3c-0.3-0.5-0.4-1-0.4-1.6C1037.2,206.3,1036.4,205.2,1036.3,205.3z"/>
<path class="st2" d="M1016.9,272.4c0,0,15.7-5.1,12.4-23.1l-19.9-5l-4.6,14.8L1016.9,272.4z"/>
<path class="st3" d="M1004.8,259.1l12.1,13.3c0,0,15.7-5.1,12.4-23.1L1004.8,259.1z"/>
<path class="st4" d="M938.9,126.3c0,0,2.1,3.3,5,1.7c2.9-1.7,0.1-6.2,0.1-6.2S938.5,121,938.9,126.3z"/>
<path class="st3" d="M943.9,127.9c-0.7,0.4-1.5,0.6-2.3,0.4c-1.1-0.3-1.9-1-2.3-1.6c-0.1-0.2-0.3-0.3-0.4-0.5
	c-0.1-1.9,0.5-3,1.3-3.7l0,0c1.2-0.9,2.8-0.9,3.5-0.9c0.2,0,0.3,0,0.3,0l0.1,0.1c0.1,0.1,0.3,0.5,0.5,0.9
	C945.2,124.2,946,126.8,943.9,127.9z"/>
<path class="st5" d="M1018.5,248.5l10.9,0.8l20.3,0.2l-16,18.9c0,0-5.1,0.3-6.1,0.9s-15.7,0.3-15.7,0.3l-2.4-9.7L1018.5,248.5z"/>
<path class="st6" d="M1018.5,248.5l10.9,0.8l20.3,0.2l-16,18.9c0,0-5.1,0.3-6.1,0.9s-15.7,0.3-15.7,0.3l-2.4-9.7L1018.5,248.5z"/>
<path class="st2" d="M1007.5,197.7l2.5,4.1l0.6,7.2c0,0,1.8,6.1,3.1,7.9s1.9,6.6,1.9,6.6s0.6,4.4,1.2,5.4s1.5,7.8,1.5,7.8
	s5.8,11.2,11.1,12.6c0,0-26.2,8.3-12.4,23.1c0,0-9.8,2.3-12.1-0.3c-2.3-2.6-8.4-41.8-8.4-41.8l1.9-33L1007.5,197.7z"/>
<path class="st6" d="M1007.5,197.7l2.5,4.1l0.6,7.2c0,0,1.8,6.1,3.1,7.9s1.9,6.6,1.9,6.6s0.6,4.4,1.2,5.4s1.5,7.8,1.5,7.8
	s5.8,11.2,11.1,12.6c0,0-26.2,8.3-12.4,23.1c0,0-9.8,2.3-12.1-0.3c-2.3-2.6-8.4-41.8-8.4-41.8l1.9-33L1007.5,197.7z"/>
<path class="st5" d="M975.7,157.5c-0.7,3.7-0.5,7.4,0.6,11l-4.1,11.2c0,0-31-16.6-28.4-20.6c1.5-2.3,1.7-8.3,1.6-13.1
	c-0.1-3.6-0.4-6.6-0.4-6.6s38.1,3.6,33,12C976.9,153.3,976.1,155.4,975.7,157.5z"/>
<path class="st3" d="M978.1,151.4c-1.1,1.9-2,4-2.4,6.1c-11.7,3.6-24.3-1.2-30.3-11.5c-0.1-3.6-0.4-6.6-0.4-6.6
	S983.1,143,978.1,151.4z"/>
<path class="st5" d="M993.5,133.4c0,13.6-11.5,24.7-25.6,24.7c-14.2,0-25.7-11-25.7-24.6c0-5.1,1.6-10.1,4.7-14.3
	c0.4-0.5,0.7-1,1.1-1.4c2.3-2.7,5.1-4.8,8.3-6.4l0,0c1.7-0.8,3.6-1.5,5.5-1.9c13.8-3.1,27.7,5.1,30.9,18.3c0.1,0.6,0.3,1.1,0.4,1.7
	C993.4,130.8,993.5,132.1,993.5,133.4z"/>
<path class="st2" d="M1003.6,234.7c-0.4,2,0.1,5.6,0.8,9.2c0,0.2,0.1,0.3,0.1,0.5s0.1,0.4,0.1,0.6c0.3,1.6,0.7,3.1,1.1,4.6
	c0.4,1.4,0.7,2.6,0.9,3.6c0.4,1.5,0.7,2.4,0.7,2.4s0,0.9,0.1,2.4c0,0.8,0.1,1.9,0.1,3c0,0.3,0,0.7,0,1c0,0.6,0,1.2,0,1.9
	c0,0.2,0,0.4,0,0.6c0,0.7,0,1.4,0,2.1c0,1,0,1.9,0,2.9c0,0.4,0,0.7,0,1.1c0,0.9,0,1.8,0,2.6c0,2.3-0.1,4-0.3,4.4
	c-0.1,0.2-0.1,0.4-0.2,0.5c-0.3,0.9-0.5,1.8-0.6,2.8l-0.5-0.4c-1-0.8-2-1.6-2.9-2.3c-1.6-1.3-3.4-2.5-5.2-3.6
	c-0.1-0.1-0.2-0.1-0.4-0.2c-0.3-0.2-0.7-0.4-1-0.5c-0.7-0.3-1.5-0.7-2.2-0.9c-3.5-1.3-7.2-1.7-11-1.7c-1.5,0.6-2.5,1-2.5,1l-1.9,0.6
	l-0.3,0.1c-2.1,0.6-5,1.5-6.1,1.8c-1.7,0.6-16.5,3.5-16.5,3.5c-1.4,0.4-2.7,0.6-4.1,0.7c-2.5,0.7-5.1,1.2-7.7,1.6
	c-5.9,0.7-12,0.3-17.7-1.4c-0.2,0-0.3,0-0.5,0c0.1,0,0.2,0,0.3,0l-0.4-0.1l-0.5-0.2c-0.8-0.3-1.7-0.5-2.5-0.8l-0.5-0.2
	c-0.8-0.3-1.6-0.6-2.4-1l-0.5-0.2c-0.8-0.4-1.6-0.7-2.4-1.1c-0.3-0.1-0.6-0.3-0.8-0.4c-0.8-0.4-1.6-0.9-2.4-1.4
	c-0.1-1.1-0.2-1.8-0.2-1.8l-1.2-5.6l-0.1-0.3l-0.8-4.1l-0.1-0.3l-1.8-8.8l-0.1-0.3l-0.8-4.1l-0.1-0.3l-1.9-8.8l-0.1-0.3l-0.8-4.1
	l-0.1-0.3l-1.9-8.9l-0.1-0.3l-0.8-4.1l-0.1-0.3l-0.3-1.6l-0.5-2.4c0,0-1.6-2.2-3.4-4.8l-0.2-0.3c-0.5-0.7-1-1.5-1.6-2.2
	c-0.2-0.2-0.3-0.5-0.5-0.7c-0.3-0.4-0.5-0.7-0.7-1.1l-0.2-0.2l0,0c-2.6-3.9-0.9-5.6-0.9-5.6s1.1-1.4,2.5-3.3
	c0.1-0.1,0.1-0.2,0.2-0.3c0.6-0.8,1.3-1.7,1.9-2.6l0.5-0.7c0.2-0.3,0.4-0.5,0.6-0.8c0.1-0.1,0.1-0.2,0.2-0.3
	c1.4-1.9,2.5-3.6,2.8-4.2c0.4-0.9,2.7-3.7,5.1-6.2c1.8-1.9,3.7-3.7,4.5-4.1c1.9-0.9,2.6-4,2.6-4s4.1-1.4,4.6-2.4
	c0.6-1.1,8.3-5.8,8.3-5.8s3.1-1.9,4.4-3.1c0.2-0.2,0.3-0.3,0.5-0.5c0.4-0.8,3.3-1.4,4.5-1.6c0.3-0.1,0.5-0.1,0.5-0.1
	c0.5-0.8,1.1-1.6,1.8-2.2c0.5-0.4,1.1-1.8,1.6-3.1c0.5-1.5,1-2.9,1-2.9c0.9-2.9,2.6-2,2.6-2c0,0.4,0,0.8,0.1,1.2l0,0
	c0.7,3.5,4.7,4.9,6.8,6.6c2.3,1.8,5.9,6.5,8.8,7.4c2.4,0.8,5.1,3.8,6,4.7l0.1,0.1c0.1,0.2,0.2,0.3,0.2,0.3s1.6-0.1,2.6-0.1h0.4
	c0.2,0,0.4-0.1,0.6-0.2c1-0.6,2.4-2.5,3.1-3c0.8-0.5,1.5-9.1,1.5-9.1l0,0c2.7-1.2,5.7,11.1,5.7,11.1s5.2,1.5,5.6,2.5
	c0.1,0.2,0.5,0.6,1.1,1c2.7,2,5.5,3.7,8.5,5.2c0.1,0,0.1,0.1,0.2,0.1c0.1,0,0.1,0.1,0.2,0.1c0.1,0.1,0.2,0.1,0.3,0.1
	c0.2,0.1,0.3,0.1,0.5,0.2l0.2,0.1c0.4,0.1,0.8,0.3,1.2,0.6c0.1,0.1,0.2,0.2,0.3,0.2c0.4,0.3,0.8,0.7,1.1,1.1
	c0.1,0.1,0.1,0.1,0.1,0.2l0,0c0.2,0.3,0.4,0.5,0.6,0.8c0.3,0.4,0.5,0.8,0.8,1.2c0,0,4.5,7.4,5.9,8.2c1.4,0.8,2.3,9.4,2.3,9.4l0,0
	l-4.8,17.2c0,0-0.2,4.4-0.6,8.8C1004.3,230.4,1004,232.9,1003.6,234.7z"/>
<path class="st7" d="M967.2,172.5c0,0-3.2,1.7-5.8,1.9c-0.3,0-0.7,0-1-0.1c-2.7-0.4-6.5-2.5-6.5-2.5l4.6-4.8l5.6,2.6l2,1.8
	L967.2,172.5z"/>
<path class="st3" d="M993.2,129.5c-0.1,0.2-0.2,0.3-0.4,0.4c-1.6,1.5-4.4,0.9-6.6,0.5c-1.9-0.3-3.7-0.8-5.5-1.5
	c-1.5-0.6-3.4-1.4-4.7-0.5c-0.5,0.3-0.9,0.9-1.4,1.2c-0.6,0.3-1.3,0.3-1.9,0.3c-2.1,0-4.2,0-6.3-0.4c-3.1-0.7-6.3-2.4-9.2-1.3
	c-2.3,0.9-3.5,3.3-4.2,5.6c-0.3,1.1-0.5,2.3-1.2,3.3s-2,1.6-3.1,1.2c-1.7-0.7-1.9-3.4-3.9-3.5c-2.2-0.1-2.2,2-1.5,3.6
	c0.9,2.3,2.2,4.6,2.2,7.1c-4.8-8.3-4.3-18.5,1.5-26.3c0.5-0.3,0.9-0.7,1.1-1.2c0-0.1,0-0.1,0.1-0.2c0.2-0.8-0.3-1.7-0.3-2.5
	c-0.1-2.1,2.2-3.5,4.4-3.8c1.4-0.2,2.9,0,4.3-0.1l0,0c0.7,0,1.4-0.1,2.1-0.3c1.2-0.3,2.3-0.9,3.3-1.6c13.8-3.1,27.7,5.1,30.9,18.3
	C992.9,128.3,993,128.9,993.2,129.5L993.2,129.5z"/>
<path class="st8" d="M993.7,127.8c-0.2,0.6-0.5,1.1-0.9,1.5c-1.6,1.5-4.4,0.8-6.6,0.5c-1.9-0.3-3.7-0.8-5.5-1.5
	c-1.5-0.6-3.4-1.4-4.7-0.5c-0.5,0.3-0.9,0.9-1.4,1.2c-0.6,0.3-1.3,0.3-1.9,0.3c-2.1,0-4.2,0-6.3-0.4c-3.1-0.7-6.3-2.4-9.2-1.3
	c-2.3,0.9-3.5,3.3-4.2,5.6c-0.3,1.1-0.5,2.3-1.2,3.3s-2,1.6-3.1,1.2c-1.7-0.7-1.9-3.4-3.9-3.5c-2.2-0.1-2.2,2-1.5,3.6
	c1.1,2.8,2.7,5.5,2.2,8.4c-0.5,0-1.3,0-1.8,0c0.4-0.6-0.3-1.4-1.1-1.6s-1.6-0.2-2.1-0.7c-0.6-0.5-0.6-1.3-0.5-2
	c0.1-1.5,0.5-3,1.1-4.3c0.4-0.9,0.9-1.8,0.6-2.7c-0.2-0.4-0.4-0.8-0.7-1.2c-0.6-1.2-0.5-2.6,0.1-3.8c0.2-0.5,0.4-1,0.6-1.5
	c0.2-0.7,0.6-1.3,1-1.8c0.7-0.8,1.4-2.1,0.6-2.8c-0.2-0.2,0.2-0.3,0.1-0.6c0,0,0-0.1,0-0.1c0-0.3,0-0.6,0.2-0.9
	c0-0.1,0.1-0.1,0.1-0.2c0-0.1,0.1-0.1,0.1-0.2c0.7-1.1,1.6-2,2.6-2.7c0.7-0.5,1.4-0.9,1.7-1.6c0.3-0.9-0.2-1.8-0.3-2.7
	c-0.1-2.1,2.2-3.5,4.4-3.8s4.4,0.2,6.4-0.4c3-0.7,5-3.3,7.7-4.7c3-1.5,6.5-1.7,9.6-0.3c3.1,1.4,5.5,4.2,8.8,5.2
	c1.2,0.4,2.4,0.5,3.5,1.1c1.2,0.7,1.9,2,2.6,3.2c1,1.9,1.2,3.7,1.8,5.7c0.5,1.6,1.3,3.6,1.3,5.4
	C993.9,126.7,993.8,127.2,993.7,127.8z"/>
<g class="st9">
	<path d="M943.6,124.1c0.1-0.4,0-0.8-0.2-1.1c0.1,0.2-0.3,0.4-0.1,0.5C943.5,123.7,943.6,123.9,943.6,124.1z"/>
	<path d="M943.4,122.4L943.4,122.4c0,0.1-0.1,0.2-0.1,0.3C943.4,122.6,943.5,122.5,943.4,122.4z"/>
	<path d="M992.9,128.6c-1.6,1.5-4.4,0.9-6.6,0.5c-1.9-0.3-3.7-0.8-5.5-1.5c-1.5-0.6-3.4-1.4-4.7-0.5c-0.5,0.3-0.9,0.9-1.4,1.2
		c-0.6,0.3-1.3,0.3-1.9,0.3c-2.1,0-4.2,0-6.3-0.4c-3.1-0.7-6.3-2.4-9.2-1.3c-2.3,0.9-3.5,3.3-4.2,5.6c-0.3,1.1-0.5,2.3-1.2,3.3
		c-0.7,1-2,1.6-3.1,1.2c-1.7-0.7-1.9-3.4-3.9-3.5c-1.6-0.1-2,1-1.9,2.2c0.1-0.9,0.6-1.6,1.9-1.5c2,0.1,2.2,2.8,3.9,3.5
		c1.1,0.5,2.4-0.2,3.1-1.2c0.7-1,0.9-2.2,1.2-3.3c0.6-2.3,1.9-4.7,4.2-5.6c2.9-1.1,6.1,0.6,9.2,1.3c2.1,0.5,4.2,0.4,6.3,0.4
		c0.6,0,1.3,0,1.9-0.3c0.6-0.3,0.9-0.9,1.4-1.2c1.4-0.9,3.2-0.1,4.7,0.5c1.8,0.7,3.6,1.2,5.5,1.5c2.2,0.3,5,0.9,6.6-0.5
		c0.9-0.8,1.1-1.9,1.1-3.2C993.9,127,993.6,127.9,992.9,128.6z"/>
	<path d="M947.8,114.1c0,0.1,0,0.3,0,0.4c0,0.6,0.3,1.2,0.3,1.8C948.3,115.6,947.9,114.8,947.8,114.1z"/>
	<path d="M941.7,134.7c0,0.1,0,0.2,0.1,0.3c0-0.3,0-0.6-0.1-0.9c-0.2-0.4-0.4-0.8-0.7-1.2c-0.2-0.4-0.4-0.9-0.4-1.4
		c-0.1,0.7,0.1,1.4,0.4,2C941.3,133.9,941.5,134.3,941.7,134.7z"/>
	<path d="M945.4,145.4l-1.8,0c0.1,0.2,0.1,0.4-0.1,0.6c0.5,0,1.3,0,1.8,0c0.1-0.5,0.1-1,0.1-1.5
		C945.5,144.8,945.5,145.1,945.4,145.4z"/>
	<path d="M942.5,143.8c-0.7-0.2-1.6-0.2-2.1-0.7c-0.3-0.3-0.5-0.8-0.5-1.2c0,0.7,0,1.4,0.5,1.9c0.5,0.5,1.4,0.5,2.1,0.7
		c0.5,0.1,0.9,0.4,1.1,0.9C943.9,144.7,943.2,144,942.5,143.8z"/>
</g>
<path class="st3" d="M997.5,274.4c-0.3-0.2-0.7-0.4-1-0.5c-0.7-0.3-1.5-0.7-2.2-0.9c-3.5-1.3-7.2-1.7-11-1.7c-1.5,0.6-2.5,1-2.5,1
	l-1.9,0.6l-0.3,0.1c0-0.2,0-0.4-0.1-0.6c0-0.2,0-0.4-0.1-0.6c-0.7-6.2-1.2-12.5-1.2-12.5v-5.5v-0.6l0-16.1l-0.3-5.3l-0.1-2.4l0-0.4
	l-0.1-0.9l0-0.5c-0.1-0.2-0.1-0.3-0.2-0.5l0,0c0-0.1,0-0.2-0.1-0.2c-0.1-0.3-0.2-0.7-0.2-1.1c-0.6-2.7-1.2-7.2-1.3-8.1
	c-0.1-1.2-1.2-8.5-1.2-8.5c-0.1-4-3.6-11.6-4.5-13c-0.9-1.4-1.9-10-1.5-10.5c0.2-0.2,0.3-1.7,0.4-3.1c0-0.2,0-0.3,0-0.5
	c0-1.1,0.1-1.9,0.1-1.9l3.5-0.7l0.9-0.2l0.1,0l0,0.1c0.1,0.2,0.4,0.7,0.8,1.5c0,0.1,0.1,0.2,0.1,0.2c0,0,0,0.1,0.1,0.1
	c0.7,1.4,1.5,3.3,1.4,4.4c-0.1,1.9,2.2,6.5,2.2,6.5c0.2,1.1,5,11.6,5,11.6s3.9,10.3,3.7,12c-0.2,1.7,1.9,12.9,1.9,12.9l2.1,11.5
	c1,2.3,2.4,7.5,2.4,7.5l0.5,3l0.1,0.6l1.4,7.9l0.7,3.9c0,0,0.3,2.1,0.7,4.4c0,0.2,0.1,0.4,0.1,0.6c0.3,1.5,0.6,3,1.1,4.5
	C997.2,273,997.4,273.7,997.5,274.4z"/>
<path class="st7" d="M997.9,274.6c-0.1-0.1-0.2-0.1-0.4-0.2c-0.3-0.2-0.7-0.4-1-0.5c-0.7-0.3-1.5-0.7-2.2-0.9
	c-3.5-1.3-7.2-1.7-11-1.7c-1.5,0.6-2.5,1-2.5,1l-1.9,0.6c0-0.2,0-0.4-0.1-0.6c0-0.2,0-0.4-0.1-0.6c-0.7-6.1-1.2-12.4-1.2-12.4v-5.5
	V253l0-16.1l-0.3-5.1l-0.1-1.1l0-0.7l-0.1-0.9l-0.1-1l0-0.7v-0.2c0,0,0,0,0,0c-0.1-0.2-0.1-0.4-0.2-0.7l0-0.1c0-0.1,0-0.1,0-0.2l0,0
	c-0.6-2.5-1.4-7.8-1.4-8.8c-0.1-1.2-1.2-8.5-1.2-8.5c-0.1-4-3.6-11.6-4.5-13c-0.9-1.4-1.9-10-1.5-10.5c0.2-0.3,0.3-2.1,0.4-3.5
	c0-0.1,0-0.2,0-0.3c0-0.9,0.1-1.6,0.1-1.6l3.2-0.6l0.8-0.2l0.1,0l0.3-0.1c0,0,0.4,0.7,0.9,1.7l0.1,0.1c0.7,1.4,1.5,3.4,1.5,4.5
	c-0.1,1.9,2.2,6.5,2.2,6.5c0.2,1.1,5,11.6,5,11.6s3.9,10.3,3.7,12c-0.2,1.7,1.9,12.9,1.9,12.9l2.1,11.5c1,2.3,2.4,7.5,2.4,7.5
	l0.5,2.8l0.1,0.6l1.1,6.3l1,5.8c0,0,0.3,2.1,0.7,4.4c0,0.2,0.1,0.4,0.1,0.6c0.3,1.5,0.6,3,1.1,4.5
	C997.5,273.1,997.8,273.8,997.9,274.6z"/>
<path class="st4" d="M995.2,125.4c0,0-1.2,1.4-2.2,1.4c-1,0-5.1-0.2-7.2-0.8c-2.1-0.6-12.5-1.1-12.5-1.1s-14.7,0.1-15.2-0.4
	s-9.1-3-10-2.9c-0.2,0-0.6,0.1-1.2,0.2l-0.7,0.1c-1,0.2-2.3,0.3-3.5,0.5c-1.5,0.2-2.8,0.2-3.2,0.1v-1.2c0,0,1.7-2.4,1.8-3.1
	s1.5-10.6,5.3-14.1c1.5-2.8,4-5.1,7.1-6.4c5.1-2.1,10.1-3.9,10.1-3.9l0.9-0.1l2.9-0.4c0.1-0.1,0.2-0.2,0.3-0.2
	c0.8-0.6,3.2-1.8,6.3,0.9l0.6,0.8c0,0,9.6,2.2,14.1,9.7c4.5,7.6,4.7,15,5,18.4c0,0-0.2,1,0.2,1.3c0.2,0.1,0.3,0.3,0.5,0.4
	c0,0,0.1,0.1,0.1,0.1c0.1,0.1,0.2,0.2,0.3,0.4c0,0,0,0,0,0c0,0,0,0.1,0.1,0.1L995.2,125.4z"/>
<path class="st6" d="M995.2,125.4c0,0-1.2,1.4-2.2,1.4c-1,0-5.1-0.2-7.2-0.8c-2.1-0.6-12.5-1.1-12.5-1.1s-14.7,0.1-15.2-0.4
	s-9.1-3-10-2.9c-0.2,0-0.6,0.1-1.2,0.2l-0.2-0.9l0-0.2c0,0,16.7-3.4,27.8-1.6c11.1,1.8,19.3,3.8,19.3,3.8s-0.2,1,0.2,1.3
	c0.2,0.1,0.3,0.3,0.5,0.4c0,0,0.1,0.1,0.1,0.1c0.1,0.1,0.2,0.2,0.3,0.4c0,0,0,0,0,0c0,0,0,0.1,0.1,0.1L995.2,125.4z"/>
<path class="st3" d="M993.7,127.8c-2.1,0.2-5.9-0.3-7.5-0.6c-0.5-0.1-0.9-0.1-1.4-0.2c-1.8-0.4-7.3-1.4-10.6-0.9
	c-4,0.6-15.4-0.5-15.4-0.5s-7-1.4-9.8-2.5c-1-0.4-2.8-0.5-4.5-0.3c-0.4,0.1-0.9,0.1-1.3,0.2c-2.3,0.5-4.3,1.7-4,3.8
	c-0.1-0.2-0.3-0.3-0.4-0.5c-0.1-1.9,0.5-3,1.3-3.7l0,0l0.2-0.1c1-0.3,2.1-0.5,3.2-0.6c0.2,0,0.3,0,0.5-0.1c3-0.4,7.4-0.5,11,1.3
	c0,0,3.4,1.5,5.7,1.5s21.1,0.2,25.5,1.4c0.9,0.2,1.8,0.4,2.7,0.5c1.6,0.2,3.2,0.1,4.8-0.4C993.9,126.7,993.8,127.2,993.7,127.8z"/>
<path class="st3" d="M995.2,125.4c0,0-1.2,1.4-2.2,1.4c-1,0-5.1-0.2-7.2-0.8c-2.1-0.6-12.5-1.1-12.5-1.1s-14.7,0.1-15.2-0.4
	s-9.1-3-10-2.9c-0.2,0-0.6,0.1-1.2,0.2l-0.7,0.1c-1.2,0-2.4,0.2-3.5,0.5c-1.5,0.2-2.8,0.2-3.2,0.1v-0.2c0.3-0.2,0.6-0.3,1-0.5
	c2-0.5,4.1-0.9,6.3-0.9c2.6-0.1,5.7,0.2,8.4,1.5c0,0,3.4,1.5,5.7,1.5s21.1,0.2,25.5,1.4c0.9,0.2,1.8,0.4,2.7,0.5c2,0.2,4,0,5.8-0.8
	c0,0,0,0,0,0c0,0,0,0.1,0.1,0.1L995.2,125.4z"/>
<path class="st4" d="M939.3,126.7c0,0-3.7-2.7,1.1-4.5c0,0,8.4-2.5,14.7,0.6c0,0,3.4,1.5,5.7,1.5s21.1,0.2,25.5,1.4
	c0.9,0.2,1.8,0.4,2.7,0.5c2.3,0.3,4.7-0.2,6.8-1.2c0.3-0.2,0.6-0.2,0.7-0.1c0.3,0.3,0.1,2.2-2.4,2.5c-1.9,0.3-6.2-0.3-8-0.5
	c-0.5-0.1-0.9-0.2-1.4-0.2c-1.8-0.4-7.3-1.4-10.6-0.9c-4,0.6-15.4-0.5-15.4-0.5s-7-1.4-9.8-2.5S938.3,122.6,939.3,126.7z"/>
<path class="st3" d="M970.4,98.3c-0.3-0.4-4.2-3.4-5.8-4.6l2.9-0.4c0.1-0.1,0.2-0.2,0.3-0.2C969.9,95.2,970.4,98.3,970.4,98.3z"/>
<polygon class="st3" points="957.8,114.4 956.6,116.2 961.4,116 961.5,114 "/>
<polygon class="st3" points="987.4,116.5 987.9,118.2 991,118.7 989.7,116.7 "/>
<path class="st3" d="M934.4,171.5c0.3,0.5,11.2,14.2,14,13.9S934.4,171.5,934.4,171.5z"/>
<path class="st3" d="M970.8,184.1c0,0,2.6,2.4,2.3,3.4C972.6,188.4,970.8,184.1,970.8,184.1z"/>
<path class="st3" d="M941.9,200.8c0,0-2.3,10.4-1.1,10.7C942,211.9,941.9,200.8,941.9,200.8z"/>
<path class="st3" d="M971.6,241.2c0.4,1.1,3.6,7.9,4.3,8.3S971.6,241.2,971.6,241.2z"/>
<path class="st3" d="M1008.7,213c-0.1,0.4-2.9,2.5-2.3,3.3S1008.7,213,1008.7,213z"/>
<path class="st3" d="M987.4,232.3c-0.1,0.3-0.6,5.8,0.4,6.9C988.9,240.2,987.4,232.3,987.4,232.3z"/>
<path class="st3" d="M1015.6,261.1c-0.8,0.4-1.6,0.8-2.5,1.2c-0.9,0.4-1.8,0.8-2.7,1.2c-0.4,0.2-0.7,0.3-1.1,0.5
	c-0.6,0.2-1.1,0.4-1.7,0.6c-1.7,0.6-3.2,1.2-4.7,1.6c-0.6,0.2-1.1,0.3-1.6,0.5c-2.5,0.8-4.1,1.2-4.1,1.2c-0.4-0.1-0.8-0.1-1.1-0.1
	c-0.1,0-0.2,0-0.3,0c-0.5,0-1,0.1-1.5,0.2c-3.4,0.6-8.1,2.2-11,3.3c-1.5,0.6-2.5,1-2.5,1l-1.9,0.6l-0.3,0.1c-2.1,0.6-5,1.5-6.1,1.8
	c-1.7,0.6-16.5,3.5-16.5,3.5c-1.4,0.4-2.7,0.6-4.1,0.7c-3.4,0.3-6.9,0.4-10.3,0.2c-3.5,0.2-9.1-0.5-12.3-1l-0.5-0.1
	c-1.3-0.2-2.1-0.3-2.1-0.3l0.4-0.6l8.7-11.5l0.1-0.1l8.1-10.7l0.3-0.4l0.7-1c0,0,0.4-0.6,2.1-0.6c0.2,0,0.4,0,0.7,0
	c1.4,0.1,2.8,0.4,4.2,0.8l0.4,0.1c5.9,1.6,14.9,1.2,14.9,1.2s5.6-0.9,10.1-1.4l0.3,0c1.4-0.2,2.9-0.3,4.4-0.4
	c2.7,0.1,8.5-1.3,8.5-1.3c1.3-0.3,1.8-0.5,2.5-1c0.1-0.1,0.2-0.1,0.3-0.2c0.3-0.2,0.6-0.5,1.1-0.8c0.8-0.6,2-1.4,3.8-2.6
	c0.2-0.1,0.3-0.2,0.5-0.3c0.2-0.1,0.4-0.2,0.6-0.3c1.7-0.8,3.6-1.4,5.5-1.7c1.6-0.3,3.2-0.5,4.8-0.6h0.2c4.5-0.2,9.2,0.5,11.9,3
	c0.5,0.4,0.9,0.9,1.2,1.5c0.2,0.3,0.3,0.5,0.4,0.8c0.2,0.5,0.4,1.1,0.5,1.6c0,0.1,0,0.2,0.1,0.3c0,0,0,0.1,0,0.1c0,0.1,0,0.2,0,0.3
	C1024.1,255.4,1020.3,258.5,1015.6,261.1z"/>
<path class="st5" d="M926.6,277.2c0,0,9.8,1.7,14.9,1.4c0,0,9.4,0.5,14.5-0.9c0,0,14.8-3,16.5-3.5c1.7-0.6,8.3-2.5,8.3-2.5
	s12.9-5.2,16.5-4.3c0,0,28.5-7.1,26.5-16.7c-2-9.6-20-7.4-25.7-3.8c-5.7,3.6-4.8,4-7.6,4.5c0,0-5.8,1.4-8.5,1.3
	c-2.7-0.1-14.7,1.8-14.7,1.8s-9.5,0.4-15.3-1.3c-5.8-1.7-7-0.2-7-0.2L926.6,277.2z"/>
<path class="st3" d="M947.8,252.3C947.8,252.3,947.8,252.3,947.8,252.3c0,0.3-0.1,0.5-0.2,0.7c-1.2,2.7-7.8,10.1-7.8,10.1
	c-0.3,0.9-0.7,1.7-1.1,2.6c-0.9,1.8-2,3.5-3.1,5.1c-1.7,2.4-3.6,4.7-5.7,6.9h0c-0.3,0.2-0.5,0.4-0.8,0.5c-0.7,0.4-1.8,0.9-2.8,1
	c-0.2,0-0.3,0-0.5,0c0.1,0,0.2,0,0.3,0l-0.4-0.1l-0.5-0.2c-0.8-0.3-1.7-0.5-2.5-0.8l-0.5-0.2c-0.8-0.3-1.6-0.6-2.4-1l-0.5-0.2
	c-0.8-0.4-1.6-0.7-2.4-1.1c-0.3-0.1-0.6-0.3-0.8-0.4c-0.8-0.4-1.6-0.9-2.4-1.4c-0.8-0.5-1.7-1-2.5-1.6c-0.6-1.1-1.1-2-1.4-2.5
	c-0.5-1-0.5-2.3-0.5-3.3c0-0.1,0-0.2,0-0.3c0.1-0.6,0.1-1,0.1-1c-0.4-0.6-0.9-1.2-1.2-1.8c-0.2-0.3-0.3-0.7-0.3-1c0-0.1,0-0.3,0-0.4
	c-0.2-0.9-1.2-2.5-2.2-3.5c-0.7-0.7-0.7-3.5-0.7-5.4c0-1.2,0.1-2,0.1-2c-0.1-0.1-0.2-0.2-0.3-0.4c-0.2-0.6-0.4-1.3-0.5-2
	c0-0.1,0-0.2,0-0.3c-0.2-1.3-0.3-2.7-0.3-2.7c-2.2-1.6-3.3-4-3.8-6.2l-0.1-0.3c-0.3-1.3-0.4-2.7-0.3-4.1c0-0.1,0-0.2,0-0.3
	c0-0.1,0-0.1,0-0.1s0.3-6.3,1.1-8.8c0-0.1,0.1-0.2,0.1-0.3c0.1-0.2,0.1-0.3,0.2-0.4c0.3-0.4,0.5-1.1,0.7-2c0.1-0.6,0.2-1.3,0.3-1.9
	c0.1-0.6,0.1-1.1,0.2-1.6c0.1-1.4,0.2-2.4,0.2-2.4l-0.6-2.6c-0.2-0.7-0.3-1.5-0.4-2.2c0-0.1,0-0.2,0-0.3c-0.1-1.3-0.2-2.7-0.1-4.1
	c0-0.1,0-0.2,0-0.3c0.2-3.1,1.1-6.1,2.5-8.9l0.2-0.3c0.2-0.4,0.4-0.8,0.6-1.1c0.2-0.3,0.3-0.5,0.5-0.8c0.5-0.7,1-1.4,1.5-2.1
	c0.1-0.1,0.2-0.2,0.2-0.3c0.9-1.1,2-2.2,3.1-3.1c3.1-2.5,5.9-3.6,8.4-3.7c11.1-0.4,17.4,18.5,18.4,21.9c0.1,0.3,0.1,0.5,0.1,0.5
	s4.5,4.3,3.2,6.2c-0.3,0.4-0.4,0.9-0.5,1.4c-0.4,2.6,0.7,6.8,0.7,6.8s0.4,1.2,1.4,3.9l0.3,0.8c0.7,1.7,0.8,4.7,0.4,7.3
	c-0.4,2.5-1.2,4.7-2.6,5.3c-2.9,1.2-2.1,2.3-1.4,3.3c0.4,0.7,0.7,1.4,1,2.1c0.4,1.1,0.8,2.2,0.9,2.6c0,0.1,0.1,0.2,0.1,0.2
	c0.4-0.1,0.8-0.3,1.2-0.3c0.5-0.1,1.1,0,1.2,0.4c0.1,0.2,0.4,0.5,0.8,0.8C945.4,251.4,947.8,252.3,947.8,252.3z"/>
<path class="st2" d="M947.2,252.3L947.2,252.3c0,0.2-0.1,0.4-0.2,0.6c-1.2,2.7-7.8,10.1-7.8,10.1c-0.3,0.9-0.7,1.7-1.1,2.6
	c-0.7,1.4-1.6,2.8-2.5,4.1c-1.9,2.7-4,5.4-6.3,7.8l-0.1,0.1c0,0-0.3,0.2-0.7,0.4c-0.8,0.5-1.6,0.8-2.5,1l-0.4-0.1l-0.5-0.2
	c-0.8-0.3-1.7-0.5-2.5-0.8l-0.5-0.2c-0.8-0.3-1.6-0.6-2.4-1l-0.5-0.2c-0.8-0.4-1.6-0.7-2.4-1.1c-0.3-0.1-0.6-0.3-0.8-0.4
	c-0.8-0.4-1.6-0.9-2.4-1.4c-0.8-0.5-1.7-1-2.5-1.6c-0.4-0.3-0.7-0.5-1.1-0.8c-0.4-0.7-0.7-1.4-0.9-1.8c-0.5-1-0.5-2.3-0.5-3.3
	c0-0.1,0-0.2,0-0.3c0.1-0.6,0.1-1,0.1-1s-0.2-0.3-0.5-0.7c-0.2-0.2-0.3-0.5-0.5-0.8c-0.3-0.5-0.5-1-0.5-1.3c0-0.1,0-0.1,0-0.2
	c0-0.1,0-0.2,0-0.3c-0.2-0.9-1.2-2.5-2.2-3.5c-0.7-0.7-0.7-3.5-0.7-5.4c0-0.1,0-0.2,0-0.3c0-1,0.1-1.7,0.1-1.7
	c-0.3-0.1-0.6-1.2-0.8-2.3l0-0.3c-0.2-1.3-0.3-2.7-0.3-2.7c-2.2-1.6-3.3-4-3.8-6.2c-0.3-1.5-0.5-3.1-0.4-4.6c0,0,0-0.1,0-0.1
	s0.3-6.3,1.1-8.8c0-0.1,0.1-0.2,0.1-0.3c0.1-0.2,0.2-0.3,0.3-0.4c0.5-0.6,0.8-2.1,1-3.6l0-0.3c0.3-2,0.3-4,0.3-4l-0.6-2.6
	c-0.2-0.7-0.3-1.5-0.4-2.2c0-0.1,0-0.2,0-0.3c-0.1-1.3-0.2-2.7-0.1-4.1c0-0.1,0-0.2,0-0.3c0.2-3.1,1.1-6.1,2.5-8.9
	c0-0.1,0.1-0.2,0.2-0.3c0.4-0.8,0.8-1.5,1.3-2.2c0.2-0.2,0.3-0.5,0.5-0.7c0.3-0.4,0.6-0.8,0.9-1.1l0.2-0.3c0.9-1.1,2-2.2,3.1-3.1
	c3.3-2.7,6.3-3.8,9.1-3.7c10.7,0.4,16.7,18.6,17.7,21.9c0.1,0.3,0.1,0.5,0.1,0.5s4.5,4.3,3.2,6.2c-0.3,0.4-0.4,0.9-0.5,1.4
	c-0.4,2.6,0.7,6.8,0.7,6.8s0.4,1.2,1.4,3.9c0.1,0.3,0.2,0.5,0.3,0.8c0.7,1.7,0.8,4.7,0.4,7.3c-0.4,2.5-1.2,4.7-2.6,5.3
	c-2.9,1.2-2.1,2.3-1.4,3.3c0.4,0.7,0.7,1.4,1,2.1c0.5,1.4,1,2.8,1,2.8c0.2-0.1,0.4-0.1,0.6-0.2c0.4-0.1,0.9-0.2,1.3-0.1
	c0.2,0,0.5,0.2,0.5,0.4c0.1,0.3,0.7,0.8,1.5,1.2C945.1,251.5,946.1,251.9,947.2,252.3z"/>
<path class="st3" d="M907.4,224.4c1-0.1,12.3-4.2,14.6-2.8c2.3,1.4,16.6,10.7,16.6,10.7s-9-11.3-16.8-13.9
	C914,215.7,907.4,224.4,907.4,224.4z"/>
<path class="st3" d="M923.5,241.4c0,0,11.2,2.2,12.9,3.6L923.5,241.4z"/>
<path class="st3" d="M921.3,257.5c-0.2,0.2-4.2,8.9-3.9,8.9c0.3,0,3.8-5.2,3.8-5.2L921.3,257.5z"/>
<path class="st3" d="M929,247c0,0-3.3,1.1-2.9,1.2C926.5,248.3,928.9,247.5,929,247z"/>
<path class="st3" d="M925.7,260.3c0.6,1.1,2.3,4.4,2.7,3.9S925.7,260.3,925.7,260.3z"/>
<path class="st3" d="M966.9,172.3l-0.5,0.6c0,0-3.7-2.5-5.3-3.8c-1.5-1.3-5.2,4.5-8,6.1c-2.9,1.6-7.7,2-7.7,2s-3.7-3.6-3.6-4.6
	c0.1-1.1-1.8-1.4-1.9-2.1c-0.1-0.7-0.8-2.9-1.7-3.9c-0.5-0.6-0.5-2.3-0.5-3.8c0.3-0.1,0.5-0.1,0.5-0.1c0.5-0.8,1.1-1.6,1.8-2.2
	c1-0.8,2.5-6,2.5-6c0.9-2.9,2.6-2,2.6-2c0,4.3,4.6,5.9,6.9,7.7c2.3,1.8,5.9,6.5,8.8,7.4C963.3,168.4,966,171.3,966.9,172.3z"/>
<path class="st2" d="M966.9,171.7l-0.5,0.6c0,0-3.8-2.5-5.3-3.8c-1.5-1.3-5.2,4.5-8,6.1s-7.7,2-7.7,2s-3.7-3.6-3.6-4.6
	s-1.8-1.4-1.9-2.1c-0.1-0.7-0.8-2.9-1.7-3.9c-0.5-0.6-0.5-2.3-0.5-3.8l0.5-0.1c0.5-0.8,1.1-1.6,1.8-2.2c1-0.8,2.5-6,2.5-6
	c0.9-2.9,2.6-2,2.6-2c0,4.3,4.6,5.9,6.9,7.7c2.3,1.8,5.9,6.4,8.8,7.4C963.3,167.7,966,170.7,966.9,171.7z"/>
<path class="st3" d="M967.2,172.5c0,0-3.2,1.7-5.8,1.9c-0.3,0-0.7,0-1-0.1l0,0c0,0,2.8-2,5.4-2.4L967.2,172.5z"/>
<path class="st3" d="M973.8,181.2c0,0-4.1-1.5-5.4,0.8c0-1.1,0.1-1.9,0.1-1.9l4.5-0.8c0,0,0.4,0.8,0.9,1.8
	C973.8,181.1,973.8,181.2,973.8,181.2z"/>
<path class="st7" d="M960.4,174.3c0,0,4.9-2.8,7.3-2.6c2.5,0.2,7.3,0.4,7.3,0.4s-1.7,3.6-1.4,4.3c0.2,0.7,0.3,4.3,0.3,4.3
	s-5-1.9-5.8,1.6c0,0-2.7-3.9-4.5-5C962.3,176.6,961.2,175.5,960.4,174.3z"/>
<path class="st3" d="M988.1,177.6c-1.4,0-6.5-3.1-7.6-5.1c-1.1-2-2.6,0.2-4.1,1c-0.9,0.5-4.5-0.5-6.4-1.2c1-0.6,3.2-2.4,3.8-2.9
	c0.8-0.5,1.5-9.1,1.5-9.1c2.8-1.4,5.7,11.1,5.7,11.1s5.2,1.5,5.6,2.5c0.1,0.2,0.5,0.6,1.1,1C988.3,176.4,988.7,177.6,988.1,177.6z"
	/>
<path class="st2" d="M988.1,177c-1.4,0-6.5-3.1-7.6-5.1s-2.6,0.2-4.1,0.9c-0.9,0.5-3.8-0.4-5.7-1.2c1-0.6,2.4-2.5,3.1-3
	c0.8-0.5,1.5-9.1,1.5-9.1c2.8-1.4,5.7,11.1,5.7,11.1s5.2,1.5,5.6,2.5c0.1,0.2,0.5,0.6,1.1,1C988.3,175.8,988.7,177,988.1,177z"/>
<path class="st10" d="M1007.7,269.7l47.9-38.3c0.5-0.4,1.1-0.6,1.7-0.6l17.9,0.5c0,0,1.2,0.9-0.6,2.8l-45.1,35.6
	c-0.5,0.4-1.1,0.6-1.7,0.6l-19.5,0.6c-0.4,0-0.7-0.3-0.7-0.6C1007.4,270,1007.5,269.8,1007.7,269.7z"/>
<path class="st5" d="M1030.8,264.9c0,0,10.5,14.4,22.1,1c11.6-13.4,8.3-20.4,4.7-20.8C1054.1,244.8,1034.3,259.4,1030.8,264.9z"/>
<path class="st1" d="M1101.3,104c0,0,13.5-25.1,29.4-12.2c0,0,3.5,1.2,3.2,4.7c0,0-1.3-0.7-2.4,2c-0.4,1-0.9,1.9-1.5,2.7
	c-0.8,1.1-2,2-3.4,2.4l0,0c0,0-7.1,5.1-20.4,1.2c0,0-3.7,0.5-4.3,0.1l4.4-3.1c0,0,2.2,3.2,5.4,3.5c0,0-5.4-3.3-4.8-4
	c0.1-0.1,2.4-1.5,2.4-1.5s3.9,5.5,8.9,5.9c0,0-7-3.1-8-6.4l3.5-1.9c0,0,3.8,6,9.5,6.6c0,0-7.2-3.5-8.7-7l3.7-1.4
	c0,0,3.8,5.8,8.6,6.3c0,0-7.9-4.8-7.7-6.5c0,0,3.5-1.1,4.6-0.9c0,0,2.8,4.1,5.6,4.1c0,0-4.9-3.8-4.6-4.3c0,0,5-0.2,7.6,0.9
	c0,0-3.7-2-7.6-1.7c0,0,1.8-2,4-2.4c0,0-2.7-1.1-5.2,2.5c0,0-3.9,0.3-4.3,0.8c0,0,2-3.9,4.4-5.5c0,0-3.6,0.6-5.4,5.8l-3.8,1.3
	c0,0,2.3-5.2,4.3-6.8c0,0-3.6,1.2-5.3,7.3l-3.5,1.8c0,0,1.6-4.6,3.5-6.9c0,0-3.1,1.8-4.5,7.5l-2.2,1.5c0,0,1.2-3.4,1.7-4.3
	s0.2-1.1,0.2-1.1c-1.5,1.7-2.5,3.8-2.9,6C1105.8,101,1101.6,104.3,1101.3,104z"/>
<path class="st1" d="M1157,117.5c0,0,6.1-11.4,13.3-5.5c0,0,1.6,0.5,1.5,2.1c0,0-0.6-0.3-1.1,0.9c-0.2,0.4-0.4,0.8-0.7,1.2
	c-0.4,0.5-0.9,0.9-1.5,1.1l0,0c0,0-3.2,2.3-9.2,0.5c0,0-1.7,0.2-2,0l2-1.4c0,0,1,1.4,2.5,1.6c0,0-2.5-1.5-2.2-1.8
	c0.1-0.1,1.1-0.7,1.1-0.7s1.7,2.5,4,2.7c0,0-3.2-1.4-3.6-2.9l1.6-0.9c0,0,1.7,2.7,4.3,3c0,0-3.3-1.6-3.9-3.2l1.7-0.6
	c0,0,1.7,2.6,3.9,2.8c0,0-3.6-2.2-3.5-3c0,0,1.6-0.5,2.1-0.4c0,0,1.3,1.8,2.5,1.9c0,0-2.2-1.7-2.1-2c0,0,2.2-0.1,3.4,0.4
	c0,0-1.7-0.9-3.4-0.7c0.5-0.5,1.1-0.9,1.8-1.1c0,0-1.2-0.5-2.4,1.1c0,0-1.7,0.2-2,0.3c0,0,0.9-1.7,2-2.5c0,0-1.6,0.3-2.4,2.6
	l-1.7,0.6c0,0,1-2.4,2-3.1c0,0-1.6,0.5-2.4,3.3l-1.6,0.8c0,0,0.7-2.1,1.6-3.1c0,0-1.4,0.8-2,3.4l-1,0.7c0,0,0.6-1.5,0.8-1.9
	s0.1-0.5,0.1-0.5c-0.7,0.8-1.1,1.7-1.3,2.7C1159.1,116.1,1157.1,117.6,1157,117.5z"/>
<path class="st1" d="M1091.1,130.7c0,0,6.1-11.4,13.3-5.5c0,0,1.6,0.5,1.5,2.1c0,0-0.6-0.3-1.1,0.9c-0.2,0.4-0.4,0.8-0.7,1.2
	c-0.4,0.5-0.9,0.9-1.5,1.1l0,0c0,0-3.2,2.3-9.2,0.5c0,0-1.7,0.2-2,0l2-1.4c0,0,1,1.4,2.5,1.6c0,0-2.5-1.5-2.2-1.8
	c0.1-0.1,1.1-0.7,1.1-0.7s1.7,2.5,4,2.7c0,0-3.2-1.4-3.6-2.9l1.6-0.8c0,0,1.7,2.7,4.3,3c0,0-3.3-1.6-3.9-3.2l1.7-0.6
	c0,0,1.7,2.6,3.9,2.8c0,0-3.6-2.2-3.5-3c0,0,1.6-0.5,2.1-0.4c0,0,1.3,1.8,2.5,1.9c0,0-2.2-1.7-2.1-2c0,0,2.2-0.1,3.4,0.4
	c0,0-1.7-0.9-3.4-0.7c0.5-0.5,1.1-0.9,1.8-1.1c0,0-1.2-0.5-2.4,1.1c0,0-1.7,0.2-2,0.3c0,0,0.9-1.7,2-2.5c0,0-1.6,0.3-2.4,2.6
	l-1.7,0.6c0,0,1-2.4,2-3.1c0,0-1.6,0.5-2.4,3.3l-1.6,0.8c0,0,0.7-2.1,1.6-3.1c0,0-1.4,0.8-2,3.4l-1,0.7c0,0,0.6-1.5,0.8-1.9
	c0.2-0.4,0.1-0.5,0.1-0.5c-0.7,0.8-1.1,1.7-1.3,2.7C1093.1,129.3,1091.2,130.8,1091.1,130.7z"/>
</svg>
