<?xml version="1.0" encoding="utf-8"?>
<!-- Generator: Adobe Illustrator 22.0.1, SVG Export Plug-In . SVG Version: 6.00 Build 0)  -->
<svg version="1.1" id="Layer_1" xmlns="http://www.w3.org/2000/svg" xmlns:xlink="http://www.w3.org/1999/xlink" x="0px" y="0px"
	 viewBox="0 0 1300 400" style="enable-background:new 0 0 1300 400;" xml:space="preserve">
<style type="text/css">
	.st0{fill:url(#SVGID_1_);stroke:#000000;stroke-width:1.6452;stroke-miterlimit:10;}
	.st1{opacity:0.1;fill:#0D8CD8;enable-background:new    ;}
	.st2{fill:url(#SVGID_2_);}
	.st3{fill:#F2F2F2;}
	.st4{opacity:0.1;fill:#CDCDD1;enable-background:new    ;}
	.st5{opacity:0.1;enable-background:new    ;}
	.st6{fill:#B6B6B7;}
	.st7{fill:#FDC2CC;}
	.st8{fill:#86BFDB;}
	.st9{fill:#DFE6F5;}
	.st10{fill:#53526B;}
	.st11{fill:#FFFFFF;}
	.st12{fill:#968C8E;}
	.st13{opacity:0.1;}
	.st14{fill:#6C6E7C;}
	.st15{fill:#A7A4C1;}
	.st16{fill:#747491;}
	.st17{fill:#87C0DD;}
	.st18{fill:none;stroke:#6C6E7C;stroke-width:0.6689;stroke-miterlimit:10;}
</style>
<linearGradient id="SVGID_1_" gradientUnits="userSpaceOnUse" x1="2339.2529" y1="200" x2="2600" y2="200" gradientTransform="matrix(4.9857 0 0 1 -11662.7578 0)">
	<stop  offset="0" style="stop-color:#00354D"/>
	<stop  offset="0.4129" style="stop-color:#00364F"/>
	<stop  offset="0.5616" style="stop-color:#003C56"/>
	<stop  offset="0.6676" style="stop-color:#004561"/>
	<stop  offset="0.7534" style="stop-color:#005272"/>
	<stop  offset="0.8268" style="stop-color:#006388"/>
	<stop  offset="0.8918" style="stop-color:#0078A4"/>
	<stop  offset="0.9492" style="stop-color:#0091C3"/>
	<stop  offset="1" style="stop-color:#00ACE6"/>
	<stop  offset="1" style="stop-color:#0093C7"/>
	<stop  offset="1" style="stop-color:#0075A3"/>
	<stop  offset="1" style="stop-color:#005B83"/>
	<stop  offset="1" style="stop-color:#004567"/>
	<stop  offset="1" style="stop-color:#003351"/>
	<stop  offset="1" style="stop-color:#002540"/>
	<stop  offset="1" style="stop-color:#001B35"/>
	<stop  offset="1" style="stop-color:#00162E"/>
	<stop  offset="1" style="stop-color:#00142C"/>
</linearGradient>
<rect class="st0" width="1300" height="400"/>
<ellipse class="st1" cx="255.8" cy="301.8" rx="108.4" ry="3.8"/>
<ellipse class="st1" cx="95.4" cy="304.7" rx="29" ry="2.6"/>
<linearGradient id="SVGID_2_" gradientUnits="userSpaceOnUse" x1="366.3673" y1="117.0206" x2="366.3673" y2="-95.3983" gradientTransform="matrix(-4.9857 0 0 1 2072.6072 188.3641)">
	<stop  offset="0" style="stop-color:#808080;stop-opacity:0.25"/>
	<stop  offset="0.5351" style="stop-color:#808080;stop-opacity:0.12"/>
	<stop  offset="1" style="stop-color:#808080;stop-opacity:0.1"/>
</linearGradient>
<path class="st2" d="M213,162.8c0.5-0.9,3-6.6,3-6.6l4.2-10.8c0,0,3-4.6,3-5.4c0-0.8,5.4-4.2,5.4-4.2s4.4-1.3,4.7-1.4
	c0.3-0.1,5.5-1.8,5.5-1.8s2-2.7,2.3-2l0,0c0,0,0,0,0-0.1c0.4-0.8,0.7-1.6,0.8-2.5c0-0.1,0-0.2,0-0.2c-2.7-1.8-4.4-4.9-4.4-8.2
	c0-0.4,0-0.9,0.1-1.3c0,0-0.1,0-0.1-0.1c-0.1,0-0.1-0.1,0-0.1c0,0,0,0-0.1,0s0-0.1,0.1-0.1l0,0c-0.2-0.1,0-0.1,0.2-0.2v-0.1
	c0-0.1-0.1-0.2-0.1-0.3l0,0c0-0.2,0-0.3,0-0.5v0.1c0-0.3,0.1-0.6,0.4-0.8l0,0l-0.3-2.9c-4.2-0.2-4.9-7.4-4-7.8c1-0.4,0-1.3,0-3
	s3.2-3.6,3.2-3.6s1.3,0.7,3.4-2.6c2.1-3.3,9.7-3.8,10.2-3c0.5,0.9,3.9,2,8.4,3.2c4.4,1.3,3.6,6.5,2.9,7.6c-0.6,0.9-1,2-1,3.1
	c0,0.7-1.4,3.4-1.4,3.4c0.4,1-0.7,6.3-1,7.8v0.1l0,0c0,0,0,0,0,0.1c0.1,0.2,0.1,0.3,0.1,0.5s0,0.4-0.1,0.5c-0.1,2.9-1.3,5.6-3.5,7.4
	c0,0.1,0,0.2,0,0.3c-0.1,1.2-0.1,2.7,0,4.1c0,0.1,0,0.1,0,0.2c0.5,0.1,0.9,0.4,1.1,0.9c0.4,0.8,2.8,2,2.8,2s4.2,0.2,4.6,1
	s6.6,3.4,6.6,3.4s3.2,1.9,2.8,4c-0.2,1.1,0.4,2.9,1.2,4.3c1.5-0.6,3.1-1,4.6-1.2l-3.4,3.3c0.1,0.1,0.1,0.2,0.1,0.2l1.9,6.9
	c0,0,0.7,2.4,1.3,3c0.7,0.6-0.6,6-0.6,6s0.7,3.8,1.3,4.7c0.6,1-0.9,3.4-0.9,3.4l-3.1,7.1l-8.2,2.1c0,0-0.5,0.1-1.4,0.3
	c0,0.2,0.1,0.3,0.1,0.5c0.4,2.2,0.9,4.3,1.5,4.9c1.5,1.4,1.5,7.5,1.5,7.5l-0.1,8.7c0,0-0.5,10.7-0.3,11.1c0.2,0.2-0.2,0.6-1.1,1
	c0,0.2,0.1,0.3,0.1,0.5c0.3,1.8,0.4,3.8-0.2,4.7c-0.3,0.5-0.4,1-0.4,1.6c0,0.8-1.3,2.6-1.3,2.6s1,7.3-0.7,9.7c-1.7,2.5-3.1,7-2.3,8
	c0,0,1.4,3.1,0.7,4.4c-0.7,1.4,0,2.1,0.9,2.5c0.9,0.3,0.8,3,0.8,3l-1.6,12.7c0,0-0.9,2.6-0.1,3.5c0.7,0.9,0.7,5.5-0.4,7.1
	s1.6,4.4,1.6,4.4s1.7,2.4-1,3.2c0,0-0.5,0.1,0.5,1.2c1,1,1.2,2.3,0.5,2.8c-0.1,0.1-0.3,0.2-0.4,0.2c0,0.2,0.1,0.3,0.1,0.5
	c0.3,1.4,0.7,3.1,1.6,4c1.7,1.8,3.2,3.7,4.4,5.9c0.9,1.7,1.3,3.4,0.3,4.2c-2.4,1.8-5.5,2.4-7.4,1.7c-1.8-0.7-4.4-2.9-4.4-2.9
	l-0.6-2.5c0,0,0.4-1.6-1.6-2.1c-2-0.6-3.9-2.7-3.9-2.7v-3.3c-0.5-0.3-1-0.6-1.4-0.9c0,0-0.9-3.3,0-4.4s1.3-1.5,0.1-2.2
	c-1.2-0.7-1.4-2.3-0.5-3.6c0.9-1.4,2.3-3.4,1.1-6.3c-1.2-2.9-1.7-11.7-1.7-11.7s0.6-6,0-7.4s0.6-4.1,0.6-4.1s-0.4-3.4-1.1-4.9
	c-0.7-1.6-1.3-9.9-1.3-9.9s-1.3-3.5-1.3-5.8s2.1-7.8-1-9.2c0,0-1.3,1.2-0.8,5.9c0,0-1.5,5.5-1.5,7.2s-1.1,7.8-1.1,7.8
	s-0.1,2-0.6,2.7s0,2.7,0,2.7s-1.7,1.6-1.3,2.7c0.5,1-0.1,3.4-0.1,3.4l0.4,14.6c0,0,1.2,6.3-1.6,10c0,0,1,5.6,1.6,6s-2.2,3.8-2.2,3.8
	s0.8,2.2-0.8,2.3v3.6c-0.6,1-1.3,1.8-2.2,2.5c-1.5,1-0.9,4.6-0.9,4.6s-1.9,4.6-6.9,3.6s-5.7-1.4-5.4-3.1c0.1-0.6,0.3-1.7,0.6-2.9
	c0.5-2.1,1.4-4.6,2.3-5.9c1.5-2,2.8-6.1,2.8-6.1s0.6-1.4,0-1.8c-0.6-0.5-0.3-1.3-0.3-1.3s-0.6-1.7-0.1-2.7s-1-3.2-1-3.2l0.5-10
	l-0.5-14.6c0,0,2.1-2.4,1.2-3.8c-0.9-1.4,1-3.4,1-3.4s0.2-0.1-0.3-1.7c-0.3-1-0.3-2,0.1-2.9c0,0,1.1-4-0.9-7.1c0,0-0.9-4-1.1-6.1
	c-0.2-1.4-1.3-6.9-2-10c0-0.2-0.1-0.3-0.1-0.5c-1,0.1-1.7,0.1-1.7,0.1s1.5-10.8,0-13s1.2-19.2,1.2-19.2s0.7-3,1.1-6
	c0-0.2,0-0.3,0.1-0.5c-1.2-0.1-2.5-0.1-3.8-0.1c-3.2,0.2-6.4-1-6.5-2.3c-0.1-1.2-1.8-6.1-2.1-7.3C212.7,167.5,212.5,163.7,213,162.8
	z"/>
<path class="st3" d="M252.3,288.6v6.1c0,0,1.8,2.1,3.8,2.7s1.6,2.1,1.6,2.1l0.6,2.5c0,0,2.5,2.2,4.2,2.9s4.7,0.1,7.1-1.7
	c1-0.8,0.6-2.4-0.3-4.1c-1.2-2.1-2.6-4.1-4.2-5.9c-0.9-0.9-1.3-2.6-1.6-4c-0.2-1-0.2-1.8-0.2-1.8L252.3,288.6z"/>
<path class="st4" d="M252.3,293.2v1.5c0,0,1.8,2.1,3.8,2.7s1.6,2.1,1.6,2.1l0.6,2.5c0,0,2.5,2.2,4.2,2.9s4.7,0.1,7.1-1.7
	c1-0.8,0.6-2.4-0.3-4.1c0,1.8-0.5,3.9-3.1,3.8c-2.8-0.1-5.6-1.1-7.9-2.8c0,0,0.1-4.3-2.9-5.3C254.2,294.5,253.2,293.9,252.3,293.2z"
	/>
<path class="st3" d="M228.6,304.1c4.8,1,6.6-3.6,6.6-3.6s-0.6-3.6,0.8-4.6c0.9-0.7,1.6-1.5,2.1-2.5v-6l-5.9-4.1l-3.2,2.8l-0.2,0.2
	c0,0-1.2,4.1-2.7,6.1c-0.9,1.2-1.7,3.7-2.3,5.9c-0.3,1.2-0.5,2.3-0.6,2.8C223.1,302.7,223.7,303.1,228.6,304.1z"/>
<path class="st4" d="M228.6,304.1c4.8,1,6.6-3.6,6.6-3.6s-0.6-3.6,0.8-4.6c0.9-0.7,1.6-1.5,2.1-2.5v-2.3c-0.9,1-2.7,2.9-3,3.7
	c-0.5,1.1-0.6,5.1-3,5.9s-7.1,1.4-7.5-0.5c-0.2-0.7-0.4-1.4-0.7-2c-0.3,1.2-0.5,2.3-0.6,2.8C223.1,302.7,223.7,303.1,228.6,304.1z"
	/>
<path class="st5" d="M263.2,287.5l-10.8,1.2v3.2c1.2,0.7,3,1.5,3.9,0.7c1.5-1.2,5.8-2.6,7.1-3.3
	C263.2,288.3,263.2,287.5,263.2,287.5z"/>
<path class="st5" d="M229,286.8c1.5-0.5,4.1,1.7,7.7,3.2c0.5,0.2,1,0.3,1.6,0.3v-2.9l-5.9-4.1l-3.2,2.8
	C229.1,286.4,229,286.6,229,286.8z"/>
<path class="st6" d="M225.1,215.3c0,0,0.2,1,0.5,2.3c0.7,3.1,1.8,8.6,2,10c0.3,2.1,1.1,6.1,1.1,6.1c1.9,3,0.8,7.1,0.8,7.1
	c-0.4,0.9-0.4,2-0.1,2.9c0.5,1.6,0.3,1.7,0.3,1.7s-1.8,2-1,3.4s-1.2,3.8-1.2,3.8l0.5,14.5l-0.5,10c0,0,1.5,2.1,1,3.2
	c-0.5,1,0.1,2.7,0.1,2.7s-0.3,0.8,0.3,1.3c0.6,0.5,0,1.8,0,1.8c1.5-0.5,4.1,1.7,7.7,3.2c3.5,1.4,2.3-1.9,2.3-1.9s2.7-3.4,2.1-3.8
	s-1.6-5.9-1.6-5.9c2.7-3.8,1.6-10,1.6-10l-0.4-14.5c0,0,0.5-2.3,0.1-3.4c-0.5-1,1.2-2.7,1.2-2.7s-0.5-1.9,0-2.7s0.6-2.7,0.6-2.7
	s1.1-6.1,1.1-7.8s1.5-7.2,1.5-7.2c-0.5-4.7,0.8-5.9,0.8-5.9c3,1.4,1,6.9,1,9.2s1.3,5.8,1.3,5.8s0.6,8.3,1.3,9.8
	c0.7,1.6,1.1,4.9,1.1,4.9s-1.2,2.7-0.6,4.1c0.5,1.4,0,7.3,0,7.3s0.4,8.8,1.6,11.6c1.2,2.9-0.2,4.9-1.1,6.2c-0.9,1.4-0.7,2.9,0.5,3.6
	s0.8,1.1-0.1,2.2s0,4.4,0,4.4s3.7,2.9,5.3,1.6c1.6-1.3,6.8-3,7.5-3.4c0.6-0.5,0.5-1.7-0.5-2.8c-1-1.1-0.5-1.2-0.5-1.2
	c2.6-0.8,1-3.2,1-3.2s-2.7-2.8-1.6-4.4s1.1-6.1,0.4-7s0.1-3.5,0.1-3.5l1.5-12.7c0,0,0.1-2.7-0.8-3c-0.8-0.3-1.5-1.1-0.8-2.5
	c0.6-1.4-0.7-4.4-0.7-4.4c-0.8-1,0.6-5.5,2.2-8s0.6-9.7,0.6-9.7s1.2-1.7,1.2-2.6c0-0.5,0.1-1.1,0.4-1.6c0.6-0.9,0.5-2.9,0.2-4.7
	c-0.2-1.7-0.6-3.2-0.6-3.2L225.1,215.3z"/>
<path class="st7" d="M237.9,141.7l12.8,3c0,0,6.3-5.3,4.7-8.2c-0.5-1-0.8-2.6-0.8-4.4c-0.1-1.4,0-2.8,0-4c0.1-1.8,0.2-3.1,0.2-3.1
	s-13.1-7.4-12.7,0c0.1,1.2,0.1,2.5-0.1,3.7c-0.1,0.9-0.3,1.7-0.7,2.5c-0.7,1.2-1.6,1.3-1.6,1.3L237.9,141.7z"/>
<path class="st5" d="M242,128.6c3.8,2.7,9,2.5,12.5-0.6c0.1-1.8,0.2-3.1,0.2-3.1s-13.1-7.4-12.7,0
	C242.2,126.2,242.2,127.4,242,128.6z"/>
<circle class="st7" cx="247.9" cy="120.2" r="10.1"/>
<path class="st5" d="M237.9,141.7l12.8,3c0,0,6.3-5.3,4.7-8.2c-0.5-1-0.8-2.6-0.8-4.4c-0.3,1.5-1.1,2.9-2.3,3.9
	c-2.9,1.9-2.5,4.3-2.5,4.3l-5.3-0.2c0.3-2.1-1.6-3.3-2.3-3.6c-0.6-0.3-0.3-1.4-0.3-1.4l-0.6-4c-0.7,1.2-1.6,1.3-1.6,1.3L237.9,141.7
	z"/>
<path class="st5" d="M225.1,215.3c0,0,0.2,1,0.5,2.3c1.4-0.1,3.3-0.1,4.1,0.1c1.4,0.3,7.2,0.5,7.2,0.5l14.1,0.5v-0.4
	c1.6,0,3.2,0.1,4.9,0.3c2.4,0.3,6.2-0.1,8.6-0.5c0.7-0.1,1.5-0.3,2.1-0.6c-0.2-1.7-0.6-3.2-0.6-3.2L225.1,215.3z"/>
<path class="st8" d="M226.2,174.1c0.2,1.2,0.1,3.2-0.2,5.2c-0.4,3-1,6-1,6s-2.7,16.9-1.2,19.1s0,12.9,0,12.9s4.5-0.4,5.9-0.1
	c1.4,0.3,7.2,0.5,7.2,0.5l14.1,0.5v-0.4c1.6,0,3.2,0.1,4.9,0.3c2.4,0.3,6.2-0.1,8.6-0.5s3.4-1.2,3.1-1.6c-0.3-0.4,0.3-11,0.3-11
	l0.1-8.6c0,0,0.1-6.1-1.4-7.5c-0.6-0.6-1.1-2.6-1.5-4.8c-0.5-3.2-0.8-6.9-0.8-6.9l9.9-26.4l0.2-0.5c0,0-2.8-4.4-2.4-6.6
	c0.4-2.1-2.7-4-2.7-4s-5.9-2.6-6.3-3.4c-0.4-0.8-4.5-1-4.5-1s-2.3-1.2-2.7-2c-0.2-0.5-0.6-0.8-1.1-0.9c-0.3,1.6-1.1,3-2.3,3.9
	c-2.9,1.9-2.5,4.3-2.5,4.3l-5.3-0.2c0.3-2.1-1.6-3.3-2.3-3.6c-0.6-0.3-0.3-1.4-0.3-1.4l-0.6-4.2c-0.3-0.7-2.2,2-2.2,2
	s-5,1.7-5.3,1.8s-4.5,1.4-4.5,1.4s-5.2,3.4-5.2,4.2s-2.8,5.4-2.8,5.4s0,0.2,0.1,0.5C221.8,150.2,225.7,171.3,226.2,174.1z"/>
<path class="st7" d="M247,163.5c0,0,11.2-3,12.3-3.7c1.1-0.7,7.6,3.4-0.3,9.1c0,0-9.7,2-12.3,0C244.1,166.9,247,163.5,247,163.5z"/>
<path class="st5" d="M222.7,145.7l-1.4,0.1l-4,10.8c0,0-2.4,5.7-2.8,6.6c-0.5,0.9-0.3,4.7,0,5.8s1.9,6,2,7.2s3.1,2.5,6.2,2.3
	s10.4,0.8,10.4,0.8s7.8-0.8,12.5,1.6c0,0,3-6.3,2.7-18.1c0,0-5.4-0.3-6.8,0.2s-8,2-8.8,1.2s-4.7,1.4-4.7,1.4c-0.4-0.9-0.4-1.9,0-2.7
	c0.6-1.6,1.7-6.4,0.3-8S222.7,145.7,222.7,145.7z"/>
<path class="st5" d="M226,179.3c3.2,0.2,6.8,0.7,6.8,0.7s7.8-0.8,12.5,1.6c0,0,3-6.3,2.7-18.1c0,0-5.4-0.3-6.8,0.2s-8,2-8.8,1.2
	s-4.7,1.4-4.7,1.4c-0.4-0.9-0.4-1.9,0-2.7c0.6-1.6,1.7-6.4,0.3-8s-5.7-9.2-5.7-9.2l-1.3,0.1c0.7,3.6,4.5,24.7,5.1,27.5
	C226.4,175.3,226.3,177.3,226,179.3z"/>
<path class="st8" d="M222.4,146l-1.4,0.1l-4,10.8c0,0-2.4,5.7-2.8,6.6c-0.4,0.9-0.3,4.7,0,5.8s1.9,6,2,7.2s3.1,2.5,6.2,2.3
	s10.4,0.8,10.4,0.8s7.8-0.8,12.5,1.6c0,0,3-6.3,2.7-18.1c0,0-5.4-0.3-6.8,0.2s-8,2-8.8,1.2s-4.7,1.4-4.7,1.4c-0.4-0.9-0.4-1.9,0-2.7
	c0.6-1.6,1.7-6.4,0.3-8C226.8,153.6,222.4,146,222.4,146z"/>
<rect x="229.9" y="154.4" transform="matrix(0.8502 -0.5264 0.5264 0.8502 -51.2538 145.9541)" class="st9" width="1.9" height="17.2"/>
<ellipse transform="matrix(0.8502 -0.5264 0.5264 0.8502 -46.6188 140.8493)" class="st9" cx="224.2" cy="152.4" rx="3.8" ry="5.5"/>
<ellipse transform="matrix(0.8502 -0.5264 0.5264 0.8502 -46.6188 140.8493)" class="st5" cx="224.2" cy="152.4" rx="2.8" ry="3.9"/>
<rect x="236.3" y="167.9" transform="matrix(0.8502 -0.5264 0.5264 0.8502 -55.6824 150.8188)" class="st10" width="1.9" height="10.7"/>
<path class="st7" d="M250.3,178l-3.9-1.1c0,0-19.6,0.5-13-7.5c0,0,3.4-3.3,10.7-0.6s9.2,3,9.2,3L250.3,178z"/>
<circle class="st5" cx="253.2" cy="143.2" r="0.8"/>
<circle class="st5" cx="239.9" cy="142.8" r="0.8"/>
<circle class="st11" cx="253.2" cy="143" r="0.8"/>
<circle class="st5" cx="252.1" cy="154" r="0.8"/>
<circle class="st5" cx="239.5" cy="153.2" r="0.8"/>
<circle class="st11" cx="252.1" cy="153.7" r="0.8"/>
<circle class="st5" cx="239.8" cy="190.8" r="0.8"/>
<circle class="st5" cx="250.1" cy="190.8" r="0.8"/>
<circle class="st11" cx="239.8" cy="190.6" r="0.8"/>
<circle class="st5" cx="249.3" cy="203.9" r="0.8"/>
<circle class="st5" cx="239.5" cy="203.1" r="0.8"/>
<circle class="st11" cx="249.3" cy="203.6" r="0.8"/>
<circle class="st11" cx="250.1" cy="190.6" r="0.8"/>
<circle class="st11" cx="239.5" cy="202.8" r="0.8"/>
<circle class="st11" cx="239.9" cy="142.5" r="0.8"/>
<circle class="st11" cx="239.5" cy="153" r="0.8"/>
<path class="st5" d="M238.3,180.3c0,0-0.1,17.8-0.5,21C237.8,201.3,237.6,181.2,238.3,180.3z"/>
<path class="st5" d="M235,188.5c0.3,0-5.3,20.8-5.6,22.3S233.4,188.5,235,188.5z"/>
<path class="st5" d="M230.6,185.2c0,0.2-3.1,11.3-4.7,11.9C224.3,197.6,230.6,185.2,230.6,185.2z"/>
<path class="st5" d="M218.3,163.5c0,0,6.6,0.3,6.8,1.2C225.3,165.7,218.3,163.5,218.3,163.5z"/>
<path class="st5" d="M230,248.2c0,0,4.7,2,4,2.1S230,248.2,230,248.2z"/>
<path class="st5" d="M239.8,245.3c0.2-0.4-3.2,1.7-3.2,1.9C236.6,247.5,239.5,245.8,239.8,245.3z"/>
<path class="st5" d="M235.4,252.1c0,0-3.7-0.2-3.9,1.2C231.2,254.8,235.4,252.1,235.4,252.1z"/>
<path class="st5" d="M262,252.1c0,0-4-0.8-4.3,0S262,252.1,262,252.1z"/>
<path class="st5" d="M260.5,276.6c0,0-0.3,3.3,0.7,4.1C262.2,281.5,260.5,276.6,260.5,276.6z"/>
<path class="st5" d="M261,283.6c-1.3,0.1-8-1-7.9,0S261,283.6,261,283.6z"/>
<path class="st5" d="M230.3,279.6c0,0,2.3-0.3,1.7,1.2L230.3,279.6z"/>
<path class="st5" d="M272.7,149.9h1.2l1.9,6.9c0,0,0.6,2.4,1.3,3c0.6,0.6-0.6,5.9-0.6,5.9s0.7,3.8,1.3,4.7c0.6,1-0.9,3.4-0.9,3.4
	l-3,7l-7.9,2.1c0,0-14,3-14.6,3.5s-1.2-0.2-1.7-4.4c-0.4-4.2-1.7-12.4-2.7-12.8c0,0,7.8,0.8,8.4,0.7s3.8,0.1,3.8,0.1
	s4.1-0.3,4.7,0.1c0.6,0.4-0.8-1.9-0.8-1.9c-0.3-1-0.3-2.1,0-3.2C263.6,163.3,263.9,143.4,272.7,149.9z"/>
<path class="st5" d="M247.3,170c1,0.4,2.2,8.6,2.7,12.8s1,4.9,1.7,4.4c0.5-0.4,9.8-2.4,13.3-3.2c-0.5-3.2-0.8-6.9-0.8-6.9l9.9-26.4
	h-1c-8.8-6.5-9.1,13.4-9.6,15.2c-0.3,1-0.3,2.1,0,3.2c0,0,1.5,2.3,0.8,1.9c-0.6-0.4-4.7-0.1-4.7-0.1s-3.1-0.2-3.8-0.1
	C255.1,170.8,247.3,170,247.3,170z"/>
<path class="st8" d="M273,150.2h1.2l1.9,6.9c0,0,0.6,2.4,1.3,3c0.6,0.6-0.6,5.9-0.6,5.9s0.7,3.8,1.3,4.7c0.6,1-0.9,3.4-0.9,3.4l-3,7
	l-7.9,2.1c0,0-14,3-14.6,3.5s-1.2-0.2-1.7-4.4c-0.4-4.2-1.7-12.4-2.7-12.8c0,0,7.8,0.8,8.4,0.7s3.8,0.1,3.8,0.1s4.1-0.3,4.7,0.1
	c0.6,0.4-0.8-1.9-0.8-1.9c-0.3-1-0.3-2.1,0-3.2C263.9,163.5,264.1,143.7,273,150.2z"/>
<path class="st5" d="M268.8,173.7c0,0,3.6,6.8,4.2,6S268.8,173.7,268.8,173.7z"/>
<path class="st5" d="M272.5,169.8c0,0,3.3,2.7,1.7,3.4C272.7,174,272.5,169.8,272.5,169.8z"/>
<path class="st5" d="M269.4,166.5c-0.3,0.1-4.8,1-4.9,1.4C264.4,168.2,269.4,166.5,269.4,166.5z"/>
<path class="st5" d="M237.8,118.9c0.3,0.1,0.5,0.4,0.4,0.7c0.3,0.2,0.6,0,0.8-0.3c0.2-0.3,0.5-0.7,0.8-0.6c0.2,0,0.3,0.1,0.5,0.2
	c0.5,0.2,1-0.4,1.2-1c0.5-0.9,1-1.9,1.5-2.8c1,0.6,2.2,0,3.2-0.6s2.2-1.2,3.2-0.6c1.5,0.9,1.5,3.7,3.1,4.4c0.5,0.2,1.1,0.2,1.5,0.5
	c0.5,0.3,0.7,0.9,0.9,1.5c0.1,0.3,0.3,0.6,0.5,0.8c0.2,0.1,0.3,0.1,0.5,0.1c0.5,0.1,0.9,0,1.3-0.2c0.5-0.3,0.6-0.8,0.5-1.3v-0.1
	c-0.2-0.2-0.3-0.4-0.4-0.6c-0.2-0.4,0.1-0.9,0-1.3c-0.1-0.8-0.9-1.2-1-1.9c-0.1-0.3,0-0.6-0.1-0.9v-0.1l0.5,0.3
	c-0.5-0.6-0.8-1.5-1.2-2.2c-0.9-1.7-2.4-2.9-4.2-3.4c-1.7-0.5-3.5-0.4-5.2,0.1c-1.6,0.4-3.2,1-4.6,1.9c-0.5,0.3-1,0.6-1.3,1.1
	s-0.6,1-0.8,1.5c-0.5,1-1.9,2-0.8,2.1c0.9,0.1,0.1,0.8-0.4,1.2c-0.1,0.1-0.2,0.2-0.3,0.3c-0.2,0.3-0.1,0.7,0.1,1
	C238.3,118.7,237.6,118.8,237.8,118.9z"/>
<path class="st12" d="M237.8,118.6c0.3,0.1,0.5,0.4,0.4,0.7c0.3,0.2,0.6,0,0.8-0.3c0.2-0.3,0.5-0.7,0.8-0.6c0.2,0,0.3,0.1,0.5,0.2
	c0.5,0.2,1-0.4,1.2-1c0.5-0.9,1-1.9,1.5-2.8c1,0.6,2.2,0,3.2-0.6s2.2-1.2,3.2-0.6c1.5,0.9,1.5,3.7,3.1,4.4c0.5,0.2,1.1,0.2,1.5,0.5
	c0.5,0.3,0.7,0.9,0.9,1.5c0.1,0.3,0.3,0.6,0.5,0.8c0.2,0.1,0.3,0.1,0.5,0.1c0.5,0.1,0.9,0,1.3-0.2c0.5-0.3,0.6-0.8,0.5-1.3v-0.1
	c-0.2-0.2-0.3-0.4-0.4-0.6c-0.2-0.4,0.1-0.9,0-1.3c-0.1-0.8-0.9-1.2-1-1.9c-0.1-0.3,0-0.6-0.1-0.9v-0.1l0.5,0.3
	c-0.5-0.6-0.8-1.5-1.2-2.2c-0.9-1.7-2.4-2.9-4.2-3.4c-1.7-0.5-3.5-0.4-5.2,0.1c-1.6,0.4-3.2,1-4.6,1.9c-0.5,0.3-1,0.6-1.3,1.1
	s-0.6,1-0.8,1.5c-0.5,1-1.9,2-0.8,2.1c0.9,0.1,0.1,0.8-0.4,1.2c-0.1,0.1-0.2,0.2-0.3,0.3c-0.2,0.3-0.1,0.7,0.1,1
	C238.3,118.4,237.6,118.5,237.8,118.6z"/>
<path class="st5" d="M238.4,116.9l0.1,1.1c0,0,10.9-13.8,19.4,1.8c0,0,0-0.2,0.1-0.5c-0.2-0.2-0.3-0.4-0.4-0.6
	c-0.2-0.4,0.1-0.9,0-1.3c-0.1-0.8-0.9-1.2-1-1.9c-0.1-0.3,0-0.6-0.1-0.9v-0.1l0.5,0.3c-0.5-0.6-0.8-1.5-1.2-2.2
	c-0.9-1.7-2.4-2.9-4.2-3.4c-1.7-0.5-3.5-0.4-5.2,0.1c-1.6,0.4-3.2,1-4.6,1.9c-0.5,0.3-1,0.6-1.3,1.1s-0.6,1-0.8,1.5
	c-0.5,1-1.9,2-0.8,2.1C239.7,115.8,238.8,116.4,238.4,116.9z"/>
<g class="st13">
	<path d="M238.1,118.5c0.1,0.1,0.2,0.3,0.1,0.4c0.3,0.2,0.6,0,0.8-0.3c0.2-0.3,0.5-0.7,0.8-0.6c0.2,0,0.3,0.1,0.5,0.2
		c0.5,0.2,1-0.4,1.2-1c0.5-0.9,1-1.9,1.5-2.8c1,0.6,2.2,0,3.2-0.6s2.2-1.2,3.2-0.6c1.5,0.9,1.5,3.7,3.1,4.4c0.5,0.2,1.1,0.2,1.5,0.5
		c0.5,0.3,0.7,0.9,0.9,1.5c0.1,0.3,0.3,0.6,0.5,0.8c0.2,0.1,0.3,0.1,0.5,0.1c0.5,0.1,0.9,0,1.3-0.2c0.3-0.2,0.4-0.4,0.5-0.7
		c0.1,0.5-0.1,1-0.5,1.2s-0.9,0.3-1.3,0.2c-0.2,0-0.4,0-0.5-0.1c-0.3-0.2-0.4-0.5-0.5-0.8c-0.2-0.6-0.5-1.2-0.9-1.5
		c-0.5-0.3-1-0.3-1.5-0.5c-1.5-0.7-1.6-3.6-3.1-4.4c-1-0.6-2.2,0-3.2,0.6s-2.2,1.2-3.2,0.6c-0.5,0.9-1,1.9-1.5,2.8
		c-0.3,0.5-0.7,1.1-1.2,1c-0.1-0.1-0.3-0.1-0.5-0.2c-0.3,0-0.6,0.3-0.8,0.6c-0.2,0.3-0.6,0.6-0.8,0.3c0-0.3-0.2-0.6-0.4-0.7
		C237.6,118.6,238,118.6,238.1,118.5z"/>
	<path d="M238.9,115.9c-0.1,0-0.2-0.1-0.2-0.1c-0.5-0.1-0.5-0.3-0.3-0.6c0.1,0,0.2,0.1,0.3,0.1C239.2,115.4,239.2,115.6,238.9,115.9
		z"/>
	<path d="M237.9,118c0-0.2,0-0.3,0-0.5c0,0.1,0.1,0.2,0.1,0.3C238.2,117.9,238.1,118,237.9,118z"/>
	<path d="M257.4,117.3L257.4,117.3c0,0.3,0,0.6-0.1,0.8C257.3,117.8,257.4,117.6,257.4,117.3z"/>
	<path d="M256.4,114.1c0.1,0.2,0.3,0.4,0.4,0.6l-0.4-0.3C256.4,114.4,256.4,114.3,256.4,114.1z"/>
</g>
<path class="st8" d="M257.8,119.5c0,0,1.6-7,1.1-8.1c0,0,1.3-2.8,1.3-3.4c0.1-1.1,0.4-2.2,1-3.1c0.7-1.1,1.5-6.4-2.8-7.6
	s-7.6-2.4-8.1-3.2c-0.5-0.9-7.8-0.3-9.8,3s-3.3,2.6-3.3,2.6s-3.1,1.9-3.1,3.6s0.9,2.6,0,3s-0.2,7.5,3.8,7.7l0.4,3.8
	C238.5,117.7,249.4,103.9,257.8,119.5z"/>
<path class="st5" d="M257.3,98.6c0,0,0.9,5.5-0.8,7.4L257.3,98.6z"/>
<path class="st5" d="M252.9,97.3c0,0,2.4,5.9,1.8,7.1L252.9,97.3z"/>
<path class="st5" d="M250.9,95.4c0,0,1.6,7.7,0.8,8.3L250.9,95.4z"/>
<path class="st5" d="M248.1,97.5c0,0,2,4.9,1.2,5.6L248.1,97.5z"/>
<path class="st5" d="M244.3,98.1c0,0,2.4,4,1.9,4.7L244.3,98.1z"/>
<path class="st5" d="M239.4,102c0,0,2.5,0.7,2,1.5L239.4,102z"/>
<path class="st5" d="M237,106.2c0,0,2.3,1.1,1.8,1.7L237,106.2z"/>
<path class="st5" d="M258.9,111.4c0,0-14.5-5.9-20.8,2.6C238.1,114,245.7,107.4,258.9,111.4z"/>
<polygon class="st10" points="264.1,159.9 262.1,157.8 256.4,163.4 258.4,165.5 263.7,160.3 "/>
<path class="st9" d="M277.4,146.7c0,0-8.9,0.8-17.1,10l3.4,3.5L277.4,146.7z"/>
<path class="st7" d="M250.9,163.3c0,0,8.5-3.1,9.4-3.8c0.8-0.7,5.8,3.6-0.2,9.4c0,0-7.3,2.1-9.3,0
	C248.7,166.8,250.9,163.3,250.9,163.3z"/>
<rect x="93.3" y="222.6" class="st14" width="1.7" height="38.9"/>
<path class="st15" d="M82.4,261.4l0.1,1.7l0.2,2.5l0.1,1l0.2,2.5l0.1,1l0.2,2.5l1.7,28.2c0.2,2.5,2.2,4.5,4.7,4.5h9.1
	c2.5,0,4.6-2,4.7-4.5l1.7-28.2l0.2-2.5l0.1-1l0.2-2.5l0.1-1l0.2-2.5l0.1-1.7c0.1-1.4-0.9-2.5-2.3-2.6c-0.1,0-0.1,0-0.2,0H85
	c-1.4,0-2.5,1.1-2.5,2.5C82.4,261.3,82.4,261.4,82.4,261.4z"/>
<polygon class="st16" points="82.5,263.2 82.7,265.7 105.6,265.7 105.8,263.2 "/>
<polygon class="st16" points="82.7,266.7 82.9,269.2 105.4,269.2 105.6,266.7 "/>
<polygon class="st16" points="83,270.2 83.1,272.7 105.2,272.7 105.3,270.2 "/>
<path class="st17" d="M108.4,237.2c-10.1,7.3-14.3,18.7-14.3,18.7s12.1-0.4,22.2-7.7s14.3-18.7,14.3-18.7S118.5,229.9,108.4,237.2z"
	/>
<path class="st18" d="M130.6,229.5c0,0-12.6,7-16.7,12.8c-4,5.8-19.8,13.6-19.8,13.6"/>
<path class="st17" d="M101.9,222.5c-5.5,4-7.8,10.2-7.8,10.2s6.6-0.2,12.1-4.2c5.5-3.9,7.8-10.2,7.8-10.2S107.4,218.5,101.9,222.5z"
	/>
<path class="st18" d="M114,218.3c0,0-6.9,3.8-9.1,7s-10.8,7.4-10.8,7.4"/>
<path class="st17" d="M86.2,232.4c6.3,6.9,7.6,16,7.6,16s-8.9-2.2-15.2-9.1c-6.3-6.9-7.6-16-7.6-16S79.9,225.4,86.2,232.4z"/>
<path class="st18" d="M71,223.3c0,0,8.2,7.1,10.3,12s12.5,13.1,12.5,13.1"/>
</svg>
