<?xml version="1.0" encoding="utf-8"?>
<!-- Generator: Adobe Illustrator 22.0.1, SVG Export Plug-In . SVG Version: 6.00 Build 0)  -->
<svg version="1.1" id="Layer_1" xmlns="http://www.w3.org/2000/svg" xmlns:xlink="http://www.w3.org/1999/xlink" x="0px" y="0px"
	 viewBox="0 0 1300 400" style="enable-background:new 0 0 1300 400;" xml:space="preserve">
<style type="text/css">
	.st0{fill:url(#SVGID_1_);stroke:#000000;stroke-width:1.6452;stroke-miterlimit:10;}
	.st1{opacity:0.1;fill:#0D8CD8;enable-background:new    ;}
	.st2{fill:url(#SVGID_2_);}
	.st3{fill:#F2F2F2;}
	.st4{opacity:0.1;fill:#CDCDD1;enable-background:new    ;}
	.st5{opacity:0.1;enable-background:new    ;}
	.st6{fill:#B6B6B7;}
	.st7{fill:#FDC2CC;}
	.st8{fill:#86BFDB;}
	.st9{fill:#DFE6F5;}
	.st10{fill:#53526B;}
	.st11{fill:#FFFFFF;}
	.st12{fill:#968C8E;}
	.st13{opacity:0.1;}
	.st14{fill:#6C6E7C;}
	.st15{fill:#A7A4C1;}
	.st16{fill:#747491;}
	.st17{fill:#87C0DD;}
	.st18{fill:none;stroke:#6C6E7C;stroke-width:0.6689;stroke-miterlimit:10;}
</style>
<linearGradient id="SVGID_1_" gradientUnits="userSpaceOnUse" x1="650" y1="200" x2="1950" y2="200" gradientTransform="matrix(-1 0 0 -1 1950 400)">
	<stop  offset="0" style="stop-color:#00354D"/>
	<stop  offset="0.4129" style="stop-color:#00364F"/>
	<stop  offset="0.5616" style="stop-color:#003C56"/>
	<stop  offset="0.6676" style="stop-color:#004561"/>
	<stop  offset="0.7534" style="stop-color:#005272"/>
	<stop  offset="0.8268" style="stop-color:#006388"/>
	<stop  offset="0.8918" style="stop-color:#0078A4"/>
	<stop  offset="0.9492" style="stop-color:#0091C3"/>
	<stop  offset="1" style="stop-color:#00ACE6"/>
	<stop  offset="1" style="stop-color:#0093C7"/>
	<stop  offset="1" style="stop-color:#0075A3"/>
	<stop  offset="1" style="stop-color:#005B83"/>
	<stop  offset="1" style="stop-color:#004567"/>
	<stop  offset="1" style="stop-color:#003351"/>
	<stop  offset="1" style="stop-color:#002540"/>
	<stop  offset="1" style="stop-color:#001B35"/>
	<stop  offset="1" style="stop-color:#00162E"/>
	<stop  offset="1" style="stop-color:#00142C"/>
</linearGradient>
<rect y="0" class="st0" width="1300" height="400"/>
<ellipse class="st1" cx="1044.2" cy="301.8" rx="108.4" ry="3.8"/>
<ellipse class="st1" cx="1204.6" cy="304.7" rx="29" ry="2.6"/>
<linearGradient id="SVGID_2_" gradientUnits="userSpaceOnUse" x1="1208.8529" y1="283.1711" x2="1208.8529" y2="495.6071" gradientTransform="matrix(1 0 0 -1 -154.9654 588.3641)">
	<stop  offset="0" style="stop-color:#808080;stop-opacity:0.25"/>
	<stop  offset="0.5351" style="stop-color:#808080;stop-opacity:0.12"/>
	<stop  offset="1" style="stop-color:#808080;stop-opacity:0.1"/>
</linearGradient>
<path class="st2" d="M1087,162.8c-0.5-0.9-3-6.6-3-6.6l-4.2-10.8c0,0-3-4.6-3-5.4c0-0.8-5.4-4.2-5.4-4.2s-4.4-1.3-4.7-1.4
	c-0.3-0.1-5.5-1.8-5.5-1.8s-2-2.7-2.3-2l0,0c0,0,0,0,0-0.1c-0.4-0.8-0.7-1.6-0.8-2.5c0-0.1,0-0.2,0-0.2c2.7-1.8,4.4-4.9,4.4-8.2
	c0-0.4,0-0.9-0.1-1.3c0,0,0.1,0,0.1-0.1c0.1,0,0.1-0.1,0-0.1c0,0,0,0,0.1,0c0.1,0,0-0.1-0.1-0.1l0,0c0.2-0.1,0-0.1-0.2-0.2
	c0,0,0-0.1,0-0.1c0-0.1,0.1-0.2,0.1-0.3c0,0,0,0,0,0c0-0.2,0-0.3,0-0.5c0,0,0,0.1,0,0.1c0-0.3-0.1-0.6-0.4-0.8c0,0,0,0,0,0l0.3-2.9
	c4.2-0.2,4.9-7.4,4-7.8c-1-0.4,0-1.3,0-3c0-1.7-3.2-3.6-3.2-3.6s-1.3,0.7-3.4-2.6c-2.1-3.3-9.7-3.8-10.2-3c-0.5,0.9-3.9,2-8.4,3.2
	c-4.4,1.3-3.6,6.5-2.9,7.6c0.6,0.9,1,2,1,3.1c0,0.7,1.4,3.4,1.4,3.4c-0.4,1,0.7,6.3,1,7.8c0,0,0,0.1,0,0.1l0,0c0,0,0,0,0,0.1
	c-0.1,0.2-0.1,0.3-0.1,0.5c0,0.2,0,0.4,0.1,0.5c0.1,2.9,1.3,5.6,3.5,7.4c0,0.1,0,0.2,0,0.3c0.1,1.2,0.1,2.7,0,4.1c0,0.1,0,0.1,0,0.2
	c-0.5,0.1-0.9,0.4-1.1,0.9c-0.4,0.8-2.8,2-2.8,2s-4.2,0.2-4.6,1c-0.4,0.8-6.6,3.4-6.6,3.4s-3.2,1.9-2.8,4c0.2,1.1-0.4,2.9-1.2,4.3
	c-1.5-0.6-3.1-1-4.6-1.2l3.4,3.3c-0.1,0.1-0.1,0.2-0.1,0.2l-1.9,6.9c0,0-0.7,2.4-1.3,3c-0.7,0.6,0.6,6,0.6,6s-0.7,3.8-1.3,4.7
	c-0.6,1,0.9,3.4,0.9,3.4l3.1,7.1l8.2,2.1c0,0,0.5,0.1,1.4,0.3c0,0.2-0.1,0.3-0.1,0.5c-0.4,2.2-0.9,4.3-1.5,4.9
	c-1.5,1.4-1.5,7.5-1.5,7.5l0.1,8.7c0,0,0.5,10.7,0.3,11.1c-0.2,0.2,0.2,0.6,1.1,1c0,0.2-0.1,0.3-0.1,0.5c-0.3,1.8-0.4,3.8,0.2,4.7
	c0.3,0.5,0.4,1,0.4,1.6c0,0.8,1.3,2.6,1.3,2.6s-1,7.3,0.7,9.7c1.7,2.5,3.1,7,2.3,8c0,0-1.4,3.1-0.7,4.4c0.7,1.4,0,2.1-0.9,2.5
	c-0.9,0.3-0.8,3-0.8,3l1.6,12.7c0,0,0.9,2.6,0.1,3.5c-0.7,0.9-0.7,5.5,0.4,7.1c1.1,1.6-1.6,4.4-1.6,4.4s-1.7,2.4,1,3.2
	c0,0,0.5,0.1-0.5,1.2c-1,1-1.2,2.3-0.5,2.8c0.1,0.1,0.3,0.2,0.4,0.2c0,0.2-0.1,0.3-0.1,0.5c-0.3,1.4-0.7,3.1-1.6,4
	c-1.7,1.8-3.2,3.7-4.4,5.9c-0.9,1.7-1.3,3.4-0.3,4.2c2.4,1.8,5.5,2.4,7.4,1.7c1.8-0.7,4.4-2.9,4.4-2.9l0.6-2.5c0,0-0.4-1.6,1.6-2.1
	c2-0.6,3.9-2.7,3.9-2.7v-3.3c0.5-0.3,1-0.6,1.4-0.9c0,0,0.9-3.3,0-4.4c-0.9-1.1-1.3-1.5-0.1-2.2c1.2-0.7,1.4-2.3,0.5-3.6
	c-0.9-1.4-2.3-3.4-1.1-6.3c1.2-2.9,1.7-11.7,1.7-11.7s-0.6-6,0-7.4c0.6-1.4-0.6-4.1-0.6-4.1s0.4-3.4,1.1-4.9
	c0.7-1.6,1.3-9.9,1.3-9.9s1.3-3.5,1.3-5.8c0-2.3-2.1-7.8,1-9.2c0,0,1.3,1.2,0.8,5.9c0,0,1.5,5.5,1.5,7.2s1.1,7.8,1.1,7.8
	s0.1,2,0.6,2.7c0.5,0.7,0,2.7,0,2.7s1.7,1.6,1.3,2.7c-0.5,1,0.1,3.4,0.1,3.4l-0.4,14.6c0,0-1.2,6.3,1.6,10c0,0-1,5.6-1.6,6
	c-0.6,0.4,2.2,3.8,2.2,3.8s-0.8,2.2,0.8,2.3v3.6c0.6,1,1.3,1.8,2.2,2.5c1.5,1,0.9,4.6,0.9,4.6s1.9,4.6,6.9,3.6s5.7-1.4,5.4-3.1
	c-0.1-0.6-0.3-1.7-0.6-2.9c-0.5-2.1-1.4-4.6-2.3-5.9c-1.5-2-2.8-6.1-2.8-6.1s-0.6-1.4,0-1.8c0.6-0.5,0.3-1.3,0.3-1.3
	s0.6-1.7,0.1-2.7s1-3.2,1-3.2l-0.5-10l0.5-14.6c0,0-2.1-2.4-1.2-3.8c0.9-1.4-1-3.4-1-3.4s-0.2-0.1,0.3-1.7c0.3-1,0.3-2-0.1-2.9
	c0,0-1.1-4,0.9-7.1c0,0,0.9-4,1.1-6.1c0.2-1.4,1.3-6.9,2-10c0-0.2,0.1-0.3,0.1-0.5c1,0.1,1.7,0.1,1.7,0.1s-1.5-10.8,0-13
	c1.5-2.2-1.2-19.2-1.2-19.2s-0.7-3-1.1-6c0-0.2,0-0.3-0.1-0.5c1.2-0.1,2.5-0.1,3.8-0.1c3.2,0.2,6.4-1,6.5-2.3
	c0.1-1.2,1.8-6.1,2.1-7.3C1087.3,167.5,1087.5,163.7,1087,162.8z"/>
<path class="st3" d="M1047.7,288.6v6.1c0,0-1.8,2.1-3.8,2.7c-2,0.6-1.6,2.1-1.6,2.1l-0.6,2.5c0,0-2.5,2.2-4.2,2.9s-4.7,0.1-7.1-1.7
	c-1-0.8-0.6-2.4,0.3-4.1c1.2-2.1,2.6-4.1,4.2-5.9c0.9-0.9,1.3-2.6,1.6-4c0.2-1,0.2-1.8,0.2-1.8L1047.7,288.6z"/>
<path class="st4" d="M1047.7,293.2v1.5c0,0-1.8,2.1-3.8,2.7c-2,0.6-1.6,2.1-1.6,2.1l-0.6,2.5c0,0-2.5,2.2-4.2,2.9s-4.7,0.1-7.1-1.7
	c-1-0.8-0.6-2.4,0.3-4.1c0,1.8,0.5,3.9,3.1,3.8c2.8-0.1,5.6-1.1,7.9-2.8c0,0-0.1-4.3,2.9-5.3
	C1045.8,294.5,1046.8,293.9,1047.7,293.2z"/>
<path class="st3" d="M1071.4,304.1c-4.8,1-6.6-3.6-6.6-3.6s0.6-3.6-0.8-4.6c-0.9-0.7-1.6-1.5-2.1-2.5v-6l5.9-4.1l3.2,2.8l0.2,0.2
	c0,0,1.2,4.1,2.7,6.1c0.9,1.2,1.7,3.7,2.3,5.9c0.3,1.2,0.5,2.3,0.6,2.8C1076.9,302.7,1076.3,303.1,1071.4,304.1z"/>
<path class="st4" d="M1071.4,304.1c-4.8,1-6.6-3.6-6.6-3.6s0.6-3.6-0.8-4.6c-0.9-0.7-1.6-1.5-2.1-2.5v-2.3c0.9,1,2.7,2.9,3,3.7
	c0.5,1.1,0.6,5.1,3,5.9s7.1,1.4,7.5-0.5c0.2-0.7,0.4-1.4,0.7-2c0.3,1.2,0.5,2.3,0.6,2.8C1076.9,302.7,1076.3,303.1,1071.4,304.1z"/>
<path class="st5" d="M1036.8,287.5l10.8,1.2v3.2c-1.2,0.7-3,1.5-3.9,0.7c-1.5-1.2-5.8-2.6-7.1-3.3
	C1036.8,288.3,1036.8,287.5,1036.8,287.5z"/>
<path class="st5" d="M1071,286.8c-1.5-0.5-4.1,1.7-7.7,3.2c-0.5,0.2-1,0.3-1.6,0.3v-2.9l5.9-4.1l3.2,2.8
	C1070.9,286.4,1071,286.6,1071,286.8z"/>
<path class="st6" d="M1074.9,215.3c0,0-0.2,1-0.5,2.3c-0.7,3.1-1.8,8.6-2,10c-0.3,2.1-1.1,6.1-1.1,6.1c-1.9,3-0.8,7.1-0.8,7.1
	c0.4,0.9,0.4,2,0.1,2.9c-0.5,1.6-0.3,1.7-0.3,1.7s1.8,2,1,3.4c-0.8,1.4,1.2,3.8,1.2,3.8l-0.5,14.5l0.5,10c0,0-1.5,2.1-1,3.2
	c0.5,1-0.1,2.7-0.1,2.7s0.3,0.8-0.3,1.3c-0.6,0.5,0,1.8,0,1.8c-1.5-0.5-4.1,1.7-7.7,3.2c-3.5,1.4-2.3-1.9-2.3-1.9s-2.7-3.4-2.1-3.8
	c0.6-0.4,1.6-5.9,1.6-5.9c-2.7-3.8-1.6-10-1.6-10l0.4-14.5c0,0-0.5-2.3-0.1-3.4c0.5-1-1.2-2.7-1.2-2.7s0.5-1.9,0-2.7
	s-0.6-2.7-0.6-2.7s-1.1-6.1-1.1-7.8s-1.5-7.2-1.5-7.2c0.5-4.7-0.8-5.9-0.8-5.9c-3,1.4-1,6.9-1,9.2c0,2.3-1.3,5.8-1.3,5.8
	s-0.6,8.3-1.3,9.8c-0.7,1.6-1.1,4.9-1.1,4.9s1.2,2.7,0.6,4.1c-0.5,1.4,0,7.3,0,7.3s-0.4,8.8-1.6,11.6c-1.2,2.9,0.2,4.9,1.1,6.2
	c0.9,1.4,0.7,2.9-0.5,3.6c-1.2,0.7-0.8,1.1,0.1,2.2c0.9,1.1,0,4.4,0,4.4s-3.7,2.9-5.3,1.6c-1.6-1.3-6.8-3-7.5-3.4
	c-0.6-0.5-0.5-1.7,0.5-2.8c1-1.1,0.5-1.2,0.5-1.2c-2.6-0.8-1-3.2-1-3.2s2.7-2.8,1.6-4.4s-1.1-6.1-0.4-7c0.7-0.9-0.1-3.5-0.1-3.5
	l-1.5-12.7c0,0-0.1-2.7,0.8-3c0.8-0.3,1.5-1.1,0.8-2.5c-0.6-1.4,0.7-4.4,0.7-4.4c0.8-1-0.6-5.5-2.2-8s-0.6-9.7-0.6-9.7
	s-1.2-1.7-1.2-2.6c0-0.5-0.1-1.1-0.4-1.6c-0.6-0.9-0.5-2.9-0.2-4.7c0.2-1.7,0.6-3.2,0.6-3.2L1074.9,215.3z"/>
<path class="st7" d="M1062.1,141.7l-12.8,3c0,0-6.3-5.3-4.7-8.2c0.5-1,0.8-2.6,0.8-4.4c0.1-1.4,0-2.8,0-4c-0.1-1.8-0.2-3.1-0.2-3.1
	s13.1-7.4,12.7,0c-0.1,1.2-0.1,2.5,0.1,3.7c0.1,0.9,0.3,1.7,0.7,2.5c0.7,1.2,1.6,1.3,1.6,1.3L1062.1,141.7z"/>
<path class="st5" d="M1058,128.6c-3.8,2.7-9,2.5-12.5-0.6c-0.1-1.8-0.2-3.1-0.2-3.1s13.1-7.4,12.7,0
	C1057.8,126.2,1057.8,127.4,1058,128.6z"/>
<circle class="st7" cx="1052.1" cy="120.2" r="10.1"/>
<path class="st5" d="M1062.1,141.7l-12.8,3c0,0-6.3-5.3-4.7-8.2c0.5-1,0.8-2.6,0.8-4.4c0.3,1.5,1.1,2.9,2.3,3.9
	c2.9,1.9,2.5,4.3,2.5,4.3l5.3-0.2c-0.3-2.1,1.6-3.3,2.3-3.6c0.6-0.3,0.3-1.4,0.3-1.4l0.6-4c0.7,1.2,1.6,1.3,1.6,1.3L1062.1,141.7z"
	/>
<path class="st5" d="M1074.9,215.3c0,0-0.2,1-0.5,2.3c-1.4-0.1-3.3-0.1-4.1,0.1c-1.4,0.3-7.2,0.5-7.2,0.5l-14.1,0.5v-0.4
	c-1.6,0-3.2,0.1-4.9,0.3c-2.4,0.3-6.2-0.1-8.6-0.5c-0.7-0.1-1.5-0.3-2.1-0.6c0.2-1.7,0.6-3.2,0.6-3.2L1074.9,215.3z"/>
<path class="st8" d="M1073.8,174.1c-0.2,1.2-0.1,3.2,0.2,5.2c0.4,3,1,6,1,6s2.7,16.9,1.2,19.1s0,12.9,0,12.9s-4.5-0.4-5.9-0.1
	c-1.4,0.3-7.2,0.5-7.2,0.5l-14.1,0.5v-0.4c-1.6,0-3.2,0.1-4.9,0.3c-2.4,0.3-6.2-0.1-8.6-0.5c-2.4-0.4-3.4-1.2-3.1-1.6
	c0.3-0.4-0.3-11-0.3-11l-0.1-8.6c0,0-0.1-6.1,1.4-7.5c0.6-0.6,1.1-2.6,1.5-4.8c0.5-3.2,0.8-6.9,0.8-6.9l-9.9-26.4l-0.2-0.5
	c0,0,2.8-4.4,2.4-6.6c-0.4-2.1,2.7-4,2.7-4s5.9-2.6,6.3-3.4c0.4-0.8,4.5-1,4.5-1s2.3-1.2,2.7-2c0.2-0.5,0.6-0.8,1.1-0.9
	c0.3,1.6,1.1,3,2.3,3.9c2.9,1.9,2.5,4.3,2.5,4.3l5.3-0.2c-0.3-2.1,1.6-3.3,2.3-3.6c0.6-0.3,0.3-1.4,0.3-1.4l0.6-4.2
	c0.3-0.7,2.2,2,2.2,2s5,1.7,5.3,1.8s4.5,1.4,4.5,1.4s5.2,3.4,5.2,4.2c0,0.8,2.8,5.4,2.8,5.4s0,0.2-0.1,0.5
	C1078.2,150.2,1074.3,171.3,1073.8,174.1z"/>
<path class="st7" d="M1053,163.5c0,0-11.2-3-12.3-3.7c-1.1-0.7-7.6,3.4,0.3,9.1c0,0,9.7,2,12.3,0
	C1055.9,166.9,1053,163.5,1053,163.5z"/>
<path class="st5" d="M1077.3,145.7l1.4,0.1l4,10.8c0,0,2.4,5.7,2.8,6.6c0.5,0.9,0.3,4.7,0,5.8c-0.3,1.1-1.9,6-2,7.2
	c-0.1,1.2-3.1,2.5-6.2,2.3c-3.1-0.2-10.4,0.8-10.4,0.8s-7.8-0.8-12.5,1.6c0,0-3-6.3-2.7-18.1c0,0,5.4-0.3,6.8,0.2s8,2,8.8,1.2
	c0.8-0.8,4.7,1.4,4.7,1.4c0.4-0.9,0.4-1.9,0-2.7c-0.6-1.6-1.7-6.4-0.3-8S1077.3,145.7,1077.3,145.7z"/>
<path class="st5" d="M1074,179.3c-3.2,0.2-6.8,0.7-6.8,0.7s-7.8-0.8-12.5,1.6c0,0-3-6.3-2.7-18.1c0,0,5.4-0.3,6.8,0.2s8,2,8.8,1.2
	c0.8-0.8,4.7,1.4,4.7,1.4c0.4-0.9,0.4-1.9,0-2.7c-0.6-1.6-1.7-6.4-0.3-8s5.7-9.2,5.7-9.2l1.3,0.1c-0.7,3.6-4.5,24.7-5.1,27.5
	C1073.6,175.3,1073.7,177.3,1074,179.3z"/>
<path class="st8" d="M1077.6,146l1.4,0.1l4,10.8c0,0,2.4,5.7,2.8,6.6c0.4,0.9,0.3,4.7,0,5.8s-1.9,6-2,7.2s-3.1,2.5-6.2,2.3
	c-3.1-0.2-10.4,0.8-10.4,0.8s-7.8-0.8-12.5,1.6c0,0-3-6.3-2.7-18.1c0,0,5.4-0.3,6.8,0.2s8,2,8.8,1.2c0.8-0.8,4.7,1.4,4.7,1.4
	c0.4-0.9,0.4-1.9,0-2.7c-0.6-1.6-1.7-6.4-0.3-8C1073.2,153.6,1077.6,146,1077.6,146z"/>
<rect x="1060.6" y="162.1" transform="matrix(0.5264 -0.8502 0.8502 0.5264 367.6783 986.2537)" class="st9" width="17.2" height="1.9"/>
<ellipse transform="matrix(0.5264 -0.8502 0.8502 0.5264 379.9972 986.826)" class="st9" cx="1075.8" cy="152.3" rx="5.5" ry="3.8"/>
<ellipse transform="matrix(0.5264 -0.8502 0.8502 0.5264 379.9972 986.826)" class="st5" cx="1075.8" cy="152.3" rx="3.9" ry="2.8"/>
<rect x="1057.5" y="172.3" transform="matrix(0.5264 -0.8502 0.8502 0.5264 356.0141 985.7006)" class="st10" width="10.7" height="1.9"/>
<path class="st7" d="M1049.7,178l3.9-1.1c0,0,19.6,0.5,13-7.5c0,0-3.4-3.3-10.7-0.6s-9.2,3-9.2,3L1049.7,178z"/>
<circle class="st5" cx="1046.8" cy="143.2" r="0.8"/>
<circle class="st5" cx="1060.1" cy="142.8" r="0.8"/>
<circle class="st11" cx="1046.8" cy="143" r="0.8"/>
<circle class="st5" cx="1047.9" cy="154" r="0.8"/>
<circle class="st5" cx="1060.5" cy="153.2" r="0.8"/>
<circle class="st11" cx="1047.9" cy="153.7" r="0.8"/>
<circle class="st5" cx="1060.2" cy="190.8" r="0.8"/>
<circle class="st5" cx="1049.9" cy="190.8" r="0.8"/>
<circle class="st11" cx="1060.2" cy="190.6" r="0.8"/>
<circle class="st5" cx="1050.7" cy="203.9" r="0.8"/>
<circle class="st5" cx="1060.5" cy="203.1" r="0.8"/>
<circle class="st11" cx="1050.7" cy="203.6" r="0.8"/>
<circle class="st11" cx="1049.9" cy="190.6" r="0.8"/>
<circle class="st11" cx="1060.5" cy="202.8" r="0.8"/>
<circle class="st11" cx="1060.1" cy="142.5" r="0.8"/>
<circle class="st11" cx="1060.5" cy="153" r="0.8"/>
<path class="st5" d="M1061.7,180.3c0,0,0.1,17.8,0.5,21C1062.2,201.3,1062.4,181.2,1061.7,180.3z"/>
<path class="st5" d="M1065,188.5c-0.3,0,5.3,20.8,5.6,22.3S1066.6,188.5,1065,188.5z"/>
<path class="st5" d="M1069.4,185.2c0,0.2,3.1,11.3,4.7,11.9C1075.7,197.6,1069.4,185.2,1069.4,185.2z"/>
<path class="st5" d="M1081.7,163.5c0,0-6.6,0.3-6.8,1.2C1074.7,165.7,1081.7,163.5,1081.7,163.5z"/>
<path class="st5" d="M1070,248.2c0,0-4.7,2-4,2.1S1070,248.2,1070,248.2z"/>
<path class="st5" d="M1060.2,245.3c-0.2-0.4,3.2,1.7,3.2,1.9C1063.4,247.5,1060.5,245.8,1060.2,245.3z"/>
<path class="st5" d="M1064.6,252.1c0,0,3.7-0.2,3.9,1.2C1068.8,254.8,1064.6,252.1,1064.6,252.1z"/>
<path class="st5" d="M1038,252.1c0,0,4-0.8,4.3,0S1038,252.1,1038,252.1z"/>
<path class="st5" d="M1039.5,276.6c0,0,0.3,3.3-0.7,4.1C1037.8,281.5,1039.5,276.6,1039.5,276.6z"/>
<path class="st5" d="M1039,283.6c1.3,0.1,8-1,7.9,0C1046.8,284.6,1039,283.6,1039,283.6z"/>
<path class="st5" d="M1069.7,279.6c0,0-2.3-0.3-1.7,1.2L1069.7,279.6z"/>
<path class="st5" d="M1027.3,149.9h-1.2l-1.9,6.9c0,0-0.6,2.4-1.3,3c-0.6,0.6,0.6,5.9,0.6,5.9s-0.7,3.8-1.3,4.7
	c-0.6,1,0.9,3.4,0.9,3.4l3,7l7.9,2.1c0,0,14,3,14.6,3.5c0.6,0.5,1.2-0.2,1.7-4.4c0.4-4.2,1.7-12.4,2.7-12.8c0,0-7.8,0.8-8.4,0.7
	c-0.6-0.1-3.8,0.1-3.8,0.1s-4.1-0.3-4.7,0.1c-0.6,0.4,0.8-1.9,0.8-1.9c0.3-1,0.3-2.1,0-3.2C1036.4,163.3,1036.1,143.4,1027.3,149.9z
	"/>
<path class="st5" d="M1052.7,170c-1,0.4-2.2,8.6-2.7,12.8c-0.5,4.2-1,4.9-1.7,4.4c-0.5-0.4-9.8-2.4-13.3-3.2
	c0.5-3.2,0.8-6.9,0.8-6.9l-9.9-26.4h1c8.8-6.5,9.1,13.4,9.6,15.2c0.3,1,0.3,2.1,0,3.2c0,0-1.5,2.3-0.8,1.9c0.6-0.4,4.7-0.1,4.7-0.1
	s3.1-0.2,3.8-0.1C1044.9,170.8,1052.7,170,1052.7,170z"/>
<path class="st8" d="M1027,150.2h-1.2l-1.9,6.9c0,0-0.6,2.4-1.3,3c-0.6,0.6,0.6,5.9,0.6,5.9s-0.7,3.8-1.3,4.7
	c-0.6,1,0.9,3.4,0.9,3.4l3,7l7.9,2.1c0,0,14,3,14.6,3.5c0.6,0.5,1.2-0.2,1.7-4.4c0.4-4.2,1.7-12.4,2.7-12.8c0,0-7.8,0.8-8.4,0.7
	c-0.6-0.1-3.8,0.1-3.8,0.1s-4.1-0.3-4.7,0.1c-0.6,0.4,0.8-1.9,0.8-1.9c0.3-1,0.3-2.1,0-3.2C1036.1,163.5,1035.9,143.7,1027,150.2z"
	/>
<path class="st5" d="M1031.2,173.7c0,0-3.6,6.8-4.2,6C1026.4,178.9,1031.2,173.7,1031.2,173.7z"/>
<path class="st5" d="M1027.5,169.8c0,0-3.3,2.7-1.7,3.4C1027.3,174,1027.5,169.8,1027.5,169.8z"/>
<path class="st5" d="M1030.6,166.5c0.3,0.1,4.8,1,4.9,1.4C1035.6,168.2,1030.6,166.5,1030.6,166.5z"/>
<path class="st5" d="M1062.2,118.9c-0.3,0.1-0.5,0.4-0.4,0.7c-0.3,0.2-0.6,0-0.8-0.3c-0.2-0.3-0.5-0.7-0.8-0.6
	c-0.2,0-0.3,0.1-0.5,0.2c-0.5,0.2-1-0.4-1.2-1c-0.5-0.9-1-1.9-1.5-2.8c-1,0.6-2.2,0-3.2-0.6c-1-0.6-2.2-1.2-3.2-0.6
	c-1.5,0.9-1.5,3.7-3.1,4.4c-0.5,0.2-1.1,0.2-1.5,0.5c-0.5,0.3-0.7,0.9-0.9,1.5c-0.1,0.3-0.3,0.6-0.5,0.8c-0.2,0.1-0.3,0.1-0.5,0.1
	c-0.5,0.1-0.9,0-1.3-0.2c-0.5-0.3-0.6-0.8-0.5-1.3c0,0,0-0.1,0-0.1c0.2-0.2,0.3-0.4,0.4-0.6c0.2-0.4-0.1-0.9,0-1.3
	c0.1-0.8,0.9-1.2,1-1.9c0.1-0.3,0-0.6,0.1-0.9c0,0,0-0.1,0-0.1l-0.5,0.3c0.5-0.6,0.8-1.5,1.2-2.2c0.9-1.7,2.4-2.9,4.2-3.4
	c1.7-0.5,3.5-0.4,5.2,0.1c1.6,0.4,3.2,1,4.6,1.9c0.5,0.3,1,0.6,1.3,1.1c0.3,0.5,0.6,1,0.8,1.5c0.5,1,1.9,2,0.8,2.1
	c-0.9,0.1-0.1,0.8,0.4,1.2c0.1,0.1,0.2,0.2,0.3,0.3c0.2,0.3,0.1,0.7-0.1,1C1061.7,118.7,1062.4,118.8,1062.2,118.9z"/>
<path class="st12" d="M1062.2,118.6c-0.3,0.1-0.5,0.4-0.4,0.7c-0.3,0.2-0.6,0-0.8-0.3c-0.2-0.3-0.5-0.7-0.8-0.6
	c-0.2,0-0.3,0.1-0.5,0.2c-0.5,0.2-1-0.4-1.2-1c-0.5-0.9-1-1.9-1.5-2.8c-1,0.6-2.2,0-3.2-0.6c-1-0.6-2.2-1.2-3.2-0.6
	c-1.5,0.9-1.5,3.7-3.1,4.4c-0.5,0.2-1.1,0.2-1.5,0.5c-0.5,0.3-0.7,0.9-0.9,1.5c-0.1,0.3-0.3,0.6-0.5,0.8c-0.2,0.1-0.3,0.1-0.5,0.1
	c-0.5,0.1-0.9,0-1.3-0.2c-0.5-0.3-0.6-0.8-0.5-1.3c0,0,0-0.1,0-0.1c0.2-0.2,0.3-0.4,0.4-0.6c0.2-0.4-0.1-0.9,0-1.3
	c0.1-0.8,0.9-1.2,1-1.9c0.1-0.3,0-0.6,0.1-0.9c0,0,0-0.1,0-0.1l-0.5,0.3c0.5-0.6,0.8-1.5,1.2-2.2c0.9-1.7,2.4-2.9,4.2-3.4
	c1.7-0.5,3.5-0.4,5.2,0.1c1.6,0.4,3.2,1,4.6,1.9c0.5,0.3,1,0.6,1.3,1.1c0.3,0.5,0.6,1,0.8,1.5c0.5,1,1.9,2,0.8,2.1
	c-0.9,0.1-0.1,0.8,0.4,1.2c0.1,0.1,0.2,0.2,0.3,0.3c0.2,0.3,0.1,0.7-0.1,1C1061.7,118.4,1062.4,118.5,1062.2,118.6z"/>
<path class="st5" d="M1061.6,116.9l-0.1,1.1c0,0-10.9-13.8-19.4,1.8c0,0,0-0.2-0.1-0.5c0.2-0.2,0.3-0.4,0.4-0.6
	c0.2-0.4-0.1-0.9,0-1.3c0.1-0.8,0.9-1.2,1-1.9c0.1-0.3,0-0.6,0.1-0.9c0,0,0-0.1,0-0.1l-0.5,0.3c0.5-0.6,0.8-1.5,1.2-2.2
	c0.9-1.7,2.4-2.9,4.2-3.4c1.7-0.5,3.5-0.4,5.2,0.1c1.6,0.4,3.2,1,4.6,1.9c0.5,0.3,1,0.6,1.3,1.1c0.3,0.5,0.6,1,0.8,1.5
	c0.5,1,1.9,2,0.8,2.1C1060.3,115.8,1061.2,116.4,1061.6,116.9z"/>
<g class="st13">
	<path d="M1061.9,118.5c-0.1,0.1-0.2,0.3-0.1,0.4c-0.3,0.2-0.6,0-0.8-0.3c-0.2-0.3-0.5-0.7-0.8-0.6c-0.2,0-0.3,0.1-0.5,0.2
		c-0.5,0.2-1-0.4-1.2-1c-0.5-0.9-1-1.9-1.5-2.8c-1,0.6-2.2,0-3.2-0.6c-1-0.6-2.2-1.2-3.2-0.6c-1.5,0.9-1.5,3.7-3.1,4.4
		c-0.5,0.2-1.1,0.2-1.5,0.5c-0.5,0.3-0.7,0.9-0.9,1.5c-0.1,0.3-0.3,0.6-0.5,0.8c-0.2,0.1-0.3,0.1-0.5,0.1c-0.5,0.1-0.9,0-1.3-0.2
		c-0.3-0.2-0.4-0.4-0.5-0.7c-0.1,0.5,0.1,1,0.5,1.2c0.4,0.2,0.9,0.3,1.3,0.2c0.2,0,0.4,0,0.5-0.1c0.3-0.2,0.4-0.5,0.5-0.8
		c0.2-0.6,0.5-1.2,0.9-1.5c0.5-0.3,1-0.3,1.5-0.5c1.5-0.7,1.6-3.6,3.1-4.4c1-0.6,2.2,0,3.2,0.6c1,0.6,2.2,1.2,3.2,0.6
		c0.5,0.9,1,1.9,1.5,2.8c0.3,0.5,0.7,1.1,1.2,1c0.1-0.1,0.3-0.1,0.5-0.2c0.3,0,0.6,0.3,0.8,0.6c0.2,0.3,0.6,0.6,0.8,0.3
		c0-0.3,0.2-0.6,0.4-0.7C1062.4,118.6,1062,118.6,1061.9,118.5z"/>
	<path d="M1061.1,115.9c0.1,0,0.2-0.1,0.2-0.1c0.5-0.1,0.5-0.3,0.3-0.6c-0.1,0-0.2,0.1-0.3,0.1
		C1060.8,115.4,1060.8,115.6,1061.1,115.9z"/>
	<path d="M1062.1,118c0-0.2,0-0.3,0-0.5c0,0.1-0.1,0.2-0.1,0.3C1061.8,117.9,1061.9,118,1062.1,118z"/>
	<path d="M1042.6,117.3c0,0,0,0.1,0,0.1c0,0.2,0,0.5,0.1,0.7C1042.7,117.8,1042.6,117.6,1042.6,117.3z"/>
	<path d="M1043.6,114.1c-0.1,0.2-0.3,0.4-0.4,0.6l0.4-0.3C1043.6,114.4,1043.6,114.3,1043.6,114.1z"/>
</g>
<path class="st8" d="M1042.2,119.5c0,0-1.6-7-1.1-8.1c0,0-1.3-2.8-1.3-3.4c-0.1-1.1-0.4-2.2-1-3.1c-0.7-1.1-1.5-6.4,2.8-7.6
	c4.3-1.2,7.6-2.4,8.1-3.2c0.5-0.9,7.8-0.3,9.8,3s3.3,2.6,3.3,2.6s3.1,1.9,3.1,3.6s-0.9,2.6,0,3c0.9,0.4,0.2,7.5-3.8,7.7l-0.4,3.8
	C1061.5,117.7,1050.6,103.9,1042.2,119.5z"/>
<path class="st5" d="M1042.7,98.6c0,0-0.9,5.5,0.8,7.4L1042.7,98.6z"/>
<path class="st5" d="M1047.1,97.3c0,0-2.4,5.9-1.8,7.1L1047.1,97.3z"/>
<path class="st5" d="M1049.1,95.4c0,0-1.6,7.7-0.8,8.3L1049.1,95.4z"/>
<path class="st5" d="M1051.9,97.5c0,0-2,4.9-1.2,5.6L1051.9,97.5z"/>
<path class="st5" d="M1055.7,98.1c0,0-2.4,4-1.9,4.7L1055.7,98.1z"/>
<path class="st5" d="M1060.6,102c0,0-2.5,0.7-2,1.5L1060.6,102z"/>
<path class="st5" d="M1063,106.2c0,0-2.3,1.1-1.8,1.7L1063,106.2z"/>
<path class="st5" d="M1041.1,111.4c0,0,14.5-5.9,20.8,2.6C1061.9,114,1054.3,107.4,1041.1,111.4z"/>
<polygon class="st10" points="1035.9,159.9 1037.9,157.8 1043.6,163.4 1041.6,165.5 1036.3,160.3 "/>
<path class="st9" d="M1022.6,146.7c0,0,8.9,0.8,17.1,10l-3.4,3.5L1022.6,146.7z"/>
<path class="st7" d="M1049.1,163.3c0,0-8.5-3.1-9.4-3.8c-0.8-0.7-5.8,3.6,0.2,9.4c0,0,7.3,2.1,9.3,0
	C1051.3,166.8,1049.1,163.3,1049.1,163.3z"/>
<rect x="1205" y="222.6" class="st14" width="1.7" height="38.9"/>
<path class="st15" d="M1217.6,261.4l-0.1,1.7l-0.2,2.5l-0.1,1l-0.2,2.5l-0.1,1l-0.2,2.5l-1.7,28.2c-0.2,2.5-2.2,4.5-4.7,4.5h-9.1
	c-2.5,0-4.6-2-4.7-4.5l-1.7-28.2l-0.2-2.5l-0.1-1l-0.2-2.5l-0.1-1l-0.2-2.5l-0.1-1.7c-0.1-1.4,0.9-2.5,2.3-2.6c0.1,0,0.1,0,0.2,0
	h18.6c1.4,0,2.5,1.1,2.5,2.5C1217.6,261.3,1217.6,261.4,1217.6,261.4z"/>
<polygon class="st16" points="1217.5,263.2 1217.3,265.7 1194.4,265.7 1194.2,263.2 "/>
<polygon class="st16" points="1217.3,266.7 1217.1,269.2 1194.6,269.2 1194.4,266.7 "/>
<polygon class="st16" points="1217,270.2 1216.9,272.7 1194.8,272.7 1194.7,270.2 "/>
<path class="st17" d="M1191.6,237.2c10.1,7.3,14.3,18.7,14.3,18.7s-12.1-0.4-22.2-7.7c-10.1-7.3-14.3-18.7-14.3-18.7
	S1181.5,229.9,1191.6,237.2z"/>
<path class="st18" d="M1169.4,229.5c0,0,12.6,7,16.7,12.8c4,5.8,19.8,13.6,19.8,13.6"/>
<path class="st17" d="M1198.1,222.5c5.5,4,7.8,10.2,7.8,10.2s-6.6-0.2-12.1-4.2c-5.5-3.9-7.8-10.2-7.8-10.2
	S1192.6,218.5,1198.1,222.5z"/>
<path class="st18" d="M1186,218.3c0,0,6.9,3.8,9.1,7s10.8,7.4,10.8,7.4"/>
<path class="st17" d="M1213.8,232.4c-6.3,6.9-7.6,16-7.6,16s8.9-2.2,15.2-9.1c6.3-6.9,7.6-16,7.6-16S1220.1,225.4,1213.8,232.4z"/>
<path class="st18" d="M1229,223.3c0,0-8.2,7.1-10.3,12s-12.5,13.1-12.5,13.1"/>
</svg>
