<?xml version="1.0" encoding="utf-8"?>
<!-- Generator: Adobe Illustrator 22.0.1, SVG Export Plug-In . SVG Version: 6.00 Build 0)  -->
<svg version="1.1" id="Layer_1" xmlns="http://www.w3.org/2000/svg" xmlns:xlink="http://www.w3.org/1999/xlink" x="0px" y="0px"
	 viewBox="0 0 1300 400" style="enable-background:new 0 0 1300 400;" xml:space="preserve">
<style type="text/css">
	.st0{fill:url(#SVGID_1_);stroke:#000000;stroke-width:1.6452;stroke-miterlimit:10;}
	.st1{opacity:0.1;fill:#0D8CD8;enable-background:new    ;}
	.st2{fill:url(#SVGID_2_);}
	.st3{fill:#4C495A;}
	.st4{opacity:0.1;enable-background:new    ;}
	.st5{fill:#5F5D7E;}
	.st6{fill:#FDC2CC;}
	.st7{fill:#0D8CD8;}
	.st8{fill:#DFE6F5;}
	.st9{fill:#53526B;}
	.st10{fill:#FFFFFF;}
	.st11{fill:#865A61;}
	.st12{opacity:0.1;}
	.st13{fill:#535461;}
	.st14{fill:#65617D;}
	.st15{fill:#9D9CB5;}
	.st16{fill:none;stroke:#535461;stroke-width:0.6951;stroke-miterlimit:10;}
</style>
<linearGradient id="SVGID_1_" gradientUnits="userSpaceOnUse" x1="1.818989e-12" y1="200" x2="1015.7311" y2="200" gradientTransform="matrix(-1.2799 0 0 1 1300 0)">
	<stop  offset="0" style="stop-color:#007194"/>
	<stop  offset="1" style="stop-color:#41C1C9"/>
</linearGradient>
<rect class="st0" width="1300" height="400"/>
<ellipse class="st1" cx="254.5" cy="303" rx="112.6" ry="4"/>
<path class="st1" d="M284.1,75.2c-7.2-6.4-18.4-7.7-28.7-7.2c-32.2,1.6-61.3,17.1-86.4,34.7c-9.1,6.4-18.1,13.2-24,22
	c-12,17.8-8.5,42.6,8.3,57.3c5.7,5,12.6,8.8,19.7,12.2c12.6,6,26.2,10.9,40.5,12.3c10.2,1,20.5,0.2,30.6-1.2
	c28.3-3.8,56.1-12.3,79.4-26.8c10.2-6.4,19.8-14.3,24-24.6s1.5-23.4-8.9-29.5c-4.3-2.5-9.5-3.7-14.5-4.7c-7.4-1.6-15-3.1-21.7-6.3
	c-6.9-3.3-15.1-9.7-13.8-17C290.1,88.5,291.3,81.6,284.1,75.2z"/>
<ellipse class="st1" cx="87.9" cy="306" rx="30.1" ry="2.7"/>
<linearGradient id="SVGID_2_" gradientUnits="userSpaceOnUse" x1="979.7633" y1="410.2521" x2="979.7633" y2="189.3752" gradientTransform="matrix(-1.2799 0 0 1 1498.335 -103.6359)">
	<stop  offset="0" style="stop-color:#808080;stop-opacity:0.25"/>
	<stop  offset="0.5351" style="stop-color:#808080;stop-opacity:0.12"/>
	<stop  offset="1" style="stop-color:#808080;stop-opacity:0.1"/>
</linearGradient>
<path class="st2" d="M210.1,158.6c0.5-0.9,3.1-6.8,3.1-6.8l4.3-11.3c0,0,3.1-4.7,3.1-5.6c0-0.9,5.6-4.4,5.6-4.4s4.6-1.4,4.9-1.5
	c0.4-0.1,5.7-1.9,5.7-1.9s2.1-2.8,2.4-2.1l0,0c0,0,0,0,0-0.1c0.4-0.8,0.7-1.7,0.8-2.6c0-0.1,0-0.2,0-0.3c-2.8-1.9-4.5-5.1-4.6-8.6
	c0-0.4,0-0.9,0.1-1.3c0,0-0.1,0-0.1-0.1c-0.1,0-0.1-0.1,0-0.1c0,0,0,0-0.1,0c-0.1-0.1,0-0.1,0.1-0.1l0,0c-0.2-0.1,0-0.1,0.2-0.2
	v-0.1c0-0.1-0.1-0.2-0.1-0.3l0,0c0-0.2,0-0.4,0-0.5v0.1c0-0.3,0.1-0.6,0.4-0.8l0,0l-0.3-3c-4.4-0.2-5.1-7.7-4.1-8.1s0-1.3,0-3.1
	S235,92,235,92s1.4,0.7,3.5-2.8s10.1-4,10.6-3.1s4.1,2.1,8.7,3.4s3.8,6.8,3,7.9c-0.6,1-1,2.1-1.1,3.2c0,0.7-1.5,3.6-1.5,3.6
	c0.5,1-0.7,6.5-1.1,8.1v0.1l0,0v0.1c0.1,0.2,0.1,0.3,0.1,0.5s0,0.4-0.1,0.6c-0.1,3-1.4,5.8-3.7,7.7c0,0.1,0,0.2,0,0.3
	c-0.1,1.3-0.1,2.8,0,4.2c0,0.1,0,0.1,0,0.2c0.5,0.1,1,0.4,1.2,0.9c0.4,0.8,3,2.1,3,2.1s4.4,0.2,4.8,1s6.8,3.5,6.8,3.5s3.4,2,2.9,4.2
	c-0.3,1.2,0.5,3,1.2,4.5c1.6-0.6,3.2-1,4.8-1.2l-3.6,3.4c0.1,0.1,0.1,0.2,0.1,0.2l2,7.2c0,0,0.7,2.5,1.4,3.1s-0.6,6.2-0.6,6.2
	s0.8,3.9,1.4,4.9c0.6,1-1,3.5-1,3.5l-3.2,7.3l-8.5,2.2c0,0-0.6,0.1-1.5,0.3c0,0.2,0.1,0.3,0.1,0.5c0.4,2.3,1,4.5,1.6,5.1
	c1.6,1.4,1.5,7.8,1.5,7.8l-0.1,9c0,0-0.6,11.1-0.3,11.5c0.2,0.3-0.2,0.7-1.1,1.1c0,0.2,0.1,0.3,0.1,0.5c0.3,1.8,0.4,3.9-0.2,4.9
	c-0.3,0.5-0.4,1.1-0.4,1.6c0,0.9-1.3,2.7-1.3,2.7s1.1,7.5-0.7,10.1s-3.2,7.3-2.4,8.3c0,0,1.5,3.2,0.8,4.6c-0.7,1.4,0,2.2,0.9,2.6
	s0.8,3.1,0.8,3.1l-1.7,13.2c0,0-0.9,2.7-0.1,3.7c0.8,0.9,0.8,5.7-0.4,7.3c-1.2,1.6,1.7,4.6,1.7,4.6s1.8,2.5-1.1,3.3
	c0,0-0.6,0.1,0.5,1.2s1.3,2.4,0.6,2.9c-0.1,0.1-0.3,0.2-0.5,0.2c0,0.2,0.1,0.3,0.1,0.5c0.3,1.4,0.8,3.3,1.7,4.2
	c1.8,1.8,3.3,3.9,4.6,6.1c1,1.8,1.4,3.5,0.3,4.3c-2.5,1.9-5.7,2.5-7.6,1.8s-4.6-3.1-4.6-3.1l-0.6-2.6c0,0,0.4-1.6-1.7-2.2
	s-4.1-2.8-4.1-2.8v-3.5c-0.5-0.3-1-0.6-1.5-1c0,0-1-3.5,0-4.6s1.3-1.6,0.1-2.3c-1.3-0.7-1.4-2.4-0.5-3.8s2.4-3.5,1.1-6.5
	s-1.7-12.1-1.7-12.1s0.6-6.2,0-7.7c-0.6-1.4,0.7-4.3,0.7-4.3s-0.4-3.5-1.2-5.2c-0.8-1.6-1.4-10.2-1.4-10.2s-1.4-3.7-1.4-6
	s2.2-8.1-1.1-9.6c0,0-1.4,1.2-0.8,6.1c0,0-1.6,5.7-1.6,7.5s-1.2,8.1-1.2,8.1s-0.1,2-0.6,2.8c-0.5,0.7,0,2.8,0,2.8s-1.8,1.7-1.3,2.8
	s-0.1,3.5-0.1,3.5l0.4,15.2c0,0,1.3,6.5-1.7,10.4c0,0,1.1,5.8,1.7,6.2c0.6,0.4-2.3,3.9-2.3,3.9s0.8,2.3-0.8,2.4v3.8
	c-0.6,1-1.4,1.9-2.3,2.6c-1.5,1.1-0.9,4.8-0.9,4.8s-2,4.7-7.1,3.7c-5.2-1-5.9-1.5-5.6-3.2c0.1-0.6,0.3-1.7,0.6-3
	c0.6-2.2,1.4-4.8,2.4-6.1c1.6-2,2.9-6.3,2.9-6.3s0.6-1.4,0-1.9s-0.4-1.4-0.4-1.4s-0.6-1.8-0.1-2.8c0.6-1.1-1.1-3.3-1.1-3.3L225,267
	l-0.5-15.2c0,0,2.2-2.5,1.3-4c-0.9-1.5,1.1-3.6,1.1-3.6s0.2-0.1-0.4-1.8c-0.3-1-0.3-2.1,0.1-3.1c0,0,1.2-4.2-0.9-7.4
	c0,0-0.9-4.2-1.2-6.4c-0.2-1.5-1.4-7.1-2.1-10.4c0-0.2-0.1-0.4-0.1-0.5c-1,0.1-1.8,0.1-1.8,0.1s1.6-11.2,0-13.5s1.3-19.9,1.3-19.9
	s0.7-3.1,1.1-6.2c0-0.2,0-0.4,0.1-0.5c-1.3-0.1-2.6-0.1-3.9-0.1c-3.4,0.2-6.7-1.1-6.7-2.4s-1.9-6.4-2.2-7.5
	C209.8,163.5,209.6,159.5,210.1,158.6z"/>
<path class="st3" d="M251,289.4v6.3c0,0,1.9,2.2,3.9,2.8c2,0.6,1.6,2.2,1.6,2.2l0.6,2.6c0,0,2.6,2.3,4.4,3s4.9,0.1,7.4-1.8
	c1-0.8,0.6-2.5-0.3-4.3c-1.2-2.2-2.7-4.3-4.4-6.1c-0.9-0.9-1.4-2.7-1.6-4.1c-0.2-1.1-0.3-1.9-0.3-1.9L251,289.4z"/>
<path class="st4" d="M251,294.1v1.6c0,0,1.9,2.2,3.9,2.8c2,0.6,1.6,2.2,1.6,2.2l0.6,2.6c0,0,2.6,2.3,4.4,3s4.9,0.1,7.4-1.8
	c1-0.8,0.6-2.5-0.3-4.3c0,1.9-0.5,4-3.3,4c-3-0.1-5.8-1.1-8.2-3c0,0,0.1-4.5-3-5.5C252.9,295.4,251.9,294.8,251,294.1z"/>
<path class="st3" d="M226.2,305.4c5,1,6.9-3.7,6.9-3.7s-0.6-3.7,0.9-4.8c0.9-0.7,1.7-1.6,2.2-2.6v-6.2l-6.1-4.3l-3.3,2.9l-0.2,0.2
	c0,0-1.3,4.3-2.8,6.3c-1,1.3-1.8,3.9-2.3,6.1c-0.3,1.2-0.5,2.3-0.6,3C220.6,303.9,221.3,304.4,226.2,305.4z"/>
<path class="st4" d="M226.2,305.4c5,1,6.9-3.7,6.9-3.7s-0.6-3.7,0.9-4.8c0.9-0.7,1.7-1.6,2.2-2.6V292c-1,1-2.8,3-3.2,3.8
	c-0.5,1.1-0.6,5.3-3.1,6.1s-7.4,1.4-7.8-0.5c-0.2-0.7-0.4-1.4-0.7-2.1c-0.3,1.2-0.5,2.3-0.6,3C220.6,303.9,221.3,304.4,226.2,305.4z
	"/>
<path class="st4" d="M262.2,288.2l-11.3,1.2v3.3c1.3,0.8,3.1,1.6,4.1,0.7c1.5-1.2,6-2.7,7.4-3.4C262.3,289,262.2,288.2,262.2,288.2z
	"/>
<path class="st4" d="M226.7,287.5c1.6-0.5,4.3,1.8,8,3.3c0.5,0.2,1.1,0.4,1.6,0.4v-3l-6.1-4.3l-3.3,2.9
	C226.8,287,226.8,287.2,226.7,287.5z"/>
<path class="st5" d="M222.7,213.2c0,0,0.2,1,0.5,2.4c0.7,3.3,1.9,8.9,2,10.4c0.3,2.2,1.1,6.3,1.1,6.3c2,3.2,0.9,7.4,0.9,7.4
	c-0.4,1-0.5,2-0.1,3c0.5,1.7,0.3,1.8,0.3,1.8s-1.9,2.1-1,3.6s-1.2,4-1.2,4l0.5,15.1l-0.5,10.4c0,0,1.6,2.2,1,3.3
	c-0.5,1.1,0.1,2.8,0.1,2.8s-0.3,0.9,0.3,1.3c0.6,0.5,0,1.9,0,1.9c1.6-0.5,4.3,1.8,8,3.3c3.6,1.5,2.4-2,2.4-2s2.8-3.5,2.2-3.9
	c-0.6-0.4-1.6-6.1-1.6-6.1c2.8-3.9,1.6-10.4,1.6-10.4l-0.4-15.1c0,0,0.6-2.4,0.1-3.5s1.3-2.8,1.3-2.8s-0.5-2,0-2.8
	c0.5-0.7,0.6-2.8,0.6-2.8s1.1-6.3,1.1-8.1s1.6-7.4,1.6-7.4c-0.5-4.9,0.8-6.1,0.8-6.1c3.1,1.5,1,7.2,1,9.5s1.3,6,1.3,6
	s0.6,8.6,1.3,10.2s1.1,5.1,1.1,5.1s-1.2,2.8-0.6,4.3c0.6,1.4,0,7.6,0,7.6s0.4,9.1,1.7,12.1s-0.2,5.1-1.1,6.5s-0.7,3,0.5,3.8
	c1.2,0.7,0.9,1.1-0.1,2.3c-0.9,1.1,0,4.6,0,4.6s3.8,3,5.5,1.7s7.1-3.1,7.8-3.6c0.7-0.5,0.5-1.8-0.5-2.9s-0.5-1.2-0.5-1.2
	c2.7-0.8,1-3.3,1-3.3s-2.8-3-1.6-4.6s1.1-6.3,0.4-7.3c-0.7-0.9,0.1-3.6,0.1-3.6l1.6-13.2c0,0,0.1-2.8-0.8-3.1s-1.6-1.1-0.9-2.6
	c0.7-1.4-0.7-4.6-0.7-4.6c-0.8-1.1,0.6-5.7,2.3-8.3c1.7-2.6,0.7-10.1,0.7-10.1s1.3-1.8,1.3-2.7c0-0.6,0.2-1.1,0.4-1.6
	c0.6-0.9,0.5-3,0.2-4.9c-0.2-1.8-0.6-3.3-0.6-3.3L222.7,213.2z"/>
<path class="st6" d="M235.9,136.7l13.3,3.1c0,0,6.5-5.5,4.9-8.5c-0.6-1-0.8-2.8-0.9-4.6c-0.1-1.4,0-2.9,0-4.2
	c0.1-1.8,0.2-3.2,0.2-3.2s-13.6-7.7-13.2,0c0.1,1.3,0.1,2.6-0.1,3.8c-0.1,0.9-0.4,1.8-0.8,2.6c-0.7,1.3-1.6,1.3-1.6,1.3L235.9,136.7
	z"/>
<path class="st4" d="M240.3,123.1c4,2.8,9.4,2.6,13-0.6c0.1-1.8,0.2-3.2,0.2-3.2s-13.6-7.7-13.2,0
	C240.5,120.6,240.4,121.8,240.3,123.1z"/>
<circle class="st6" cx="246.4" cy="114.3" r="10.5"/>
<path class="st4" d="M235.9,136.7l13.3,3.1c0,0,6.5-5.5,4.9-8.5c-0.6-1-0.8-2.8-0.9-4.6c-0.3,1.6-1.2,3-2.4,4.1
	c-3,2-2.6,4.5-2.6,4.5l-5.5-0.2c0.3-2.2-1.7-3.4-2.4-3.7c-0.7-0.3-0.3-1.5-0.3-1.5l-0.6-4.2c-0.7,1.3-1.6,1.3-1.6,1.3L235.9,136.7z"
	/>
<path class="st4" d="M222.7,213.2c0,0,0.2,1,0.5,2.4c1.5-0.1,3.4-0.1,4.3,0.1c1.5,0.3,7.4,0.5,7.4,0.5l14.7,0.5v-0.5
	c1.7,0,3.4,0.1,5.1,0.3c2.5,0.3,6.4-0.1,8.9-0.5c0.8-0.1,1.5-0.3,2.2-0.6c-0.2-1.8-0.6-3.3-0.6-3.3L222.7,213.2z"/>
<path class="st7" d="M223.8,170.3c0.2,1.3,0.1,3.4-0.2,5.4c-0.4,3.1-1.1,6.2-1.1,6.2s-2.8,17.5-1.2,19.8c1.6,2.3,0,13.4,0,13.4
	s4.7-0.4,6.1-0.1c1.5,0.3,7.4,0.5,7.4,0.5l14.7,0.5v-0.5c1.7,0,3.4,0.1,5.1,0.3c2.5,0.3,6.4-0.1,8.9-0.5s3.5-1.2,3.2-1.6
	c-0.3-0.4,0.3-11.5,0.3-11.5l0.1-9c0,0,0.1-6.3-1.5-7.8c-0.6-0.6-1.2-2.7-1.6-5c-0.6-3.4-0.9-7.1-0.9-7.1l10.3-27.5l0.2-0.5
	c0,0-3-4.6-2.5-6.8s-2.8-4.2-2.8-4.2s-6.1-2.7-6.5-3.5s-4.7-1-4.7-1s-2.4-1.3-2.8-2.1c-0.2-0.5-0.6-0.8-1.1-0.9
	c-0.3,1.6-1.2,3.1-2.4,4.1c-3,2-2.6,4.5-2.6,4.5l-5.5-0.2c0.3-2.2-1.7-3.4-2.4-3.7c-0.7-0.3-0.3-1.5-0.3-1.5l-0.6-4.4
	c-0.3-0.7-2.3,2.1-2.3,2.1s-5.2,1.8-5.5,1.9c-0.3,0.1-4.7,1.5-4.7,1.5s-5.4,3.5-5.4,4.4s-3,5.6-3,5.6s0,0.2,0.1,0.5
	C219.3,145.5,223.3,167.4,223.8,170.3z"/>
<path class="st6" d="M245.4,159.4c0,0,11.7-3.1,12.8-3.8c1.1-0.7,7.9,3.6-0.3,9.4c0,0-10.1,2.1-12.8,0
	C242.4,162.9,245.4,159.4,245.4,159.4z"/>
<path class="st4" d="M220.2,140.9l-1.4,0.1l-4.2,11.2c0,0-2.5,5.9-3,6.8c-0.5,0.9-0.3,4.9,0,6s2,6.2,2.1,7.5s3.2,2.6,6.5,2.4
	c3.2-0.2,10.8,0.8,10.8,0.8s8.1-0.8,13,1.7c0,0,3.2-6.5,2.8-18.8c0,0-5.6-0.3-7,0.2s-8.3,2.1-9.2,1.3c-0.9-0.8-4.9,1.5-4.9,1.5
	c-0.4-0.9-0.4-1.9,0-2.8c0.7-1.6,1.8-6.7,0.3-8.3S220.2,140.9,220.2,140.9z"/>
<path class="st4" d="M223.6,175.7c3.4,0.2,7.1,0.7,7.1,0.7s8.1-0.8,13,1.7c0,0,3.2-6.5,2.8-18.8c0,0-5.6-0.3-7,0.2s-8.3,2.1-9.2,1.3
	c-0.9-0.8-4.9,1.5-4.9,1.5c-0.4-0.9-0.4-1.9,0-2.8c0.7-1.6,1.8-6.7,0.3-8.3s-5.9-9.5-5.9-9.5l-1.3,0.1c0.7,3.7,4.7,25.7,5.2,28.6
	C224,171.6,223.9,173.7,223.6,175.7z"/>
<path class="st7" d="M219.9,141.1l-1.4,0.1l-4.2,11.2c0,0-2.5,5.9-3,6.8c-0.5,0.9-0.3,4.9,0,6s2,6.2,2.1,7.5s3.2,2.6,6.5,2.4
	c3.2-0.2,10.8,0.8,10.8,0.8s8.1-0.8,13,1.7c0,0,3.2-6.5,2.8-18.8c0,0-5.6-0.3-7,0.2s-8.3,2.1-9.2,1.3c-0.9-0.8-4.9,1.5-4.9,1.5
	c-0.4-0.9-0.4-1.9,0-2.8c0.7-1.6,1.8-6.7,0.3-8.3C224.4,149,219.9,141.1,219.9,141.1z"/>
<rect x="227.6" y="150" transform="matrix(0.8502 -0.5264 0.5264 0.8502 -49.3882 144.1534)" class="st8" width="2" height="17.8"/>
<ellipse transform="matrix(0.8502 -0.5264 0.5264 0.8502 -44.5475 138.8295)" class="st8" cx="221.7" cy="147.7" rx="4" ry="5.7"/>
<ellipse transform="matrix(0.8502 -0.5264 0.5264 0.8502 -44.5475 138.8295)" class="st4" cx="221.7" cy="147.7" rx="2.9" ry="4.1"/>
<rect x="234.2" y="163.9" transform="matrix(0.8502 -0.5264 0.5264 0.8502 -53.9779 149.1968)" class="st9" width="2" height="11.1"/>
<path class="st6" d="M248.9,174.4l-4.1-1.1c0,0-20.3,0.5-13.5-7.8c0,0,3.6-3.4,11.1-0.7c7.5,2.8,9.6,3.1,9.6,3.1L248.9,174.4z"/>
<circle class="st4" cx="251.9" cy="138.2" r="0.8"/>
<circle class="st4" cx="238" cy="137.8" r="0.8"/>
<circle class="st10" cx="251.9" cy="138" r="0.8"/>
<circle class="st4" cx="250.8" cy="149.4" r="0.8"/>
<circle class="st4" cx="237.6" cy="148.6" r="0.8"/>
<circle class="st10" cx="250.8" cy="149.2" r="0.8"/>
<circle class="st4" cx="237.9" cy="187.7" r="0.8"/>
<circle class="st4" cx="248.6" cy="187.7" r="0.8"/>
<circle class="st10" cx="237.9" cy="187.4" r="0.8"/>
<circle class="st4" cx="247.8" cy="201.3" r="0.8"/>
<circle class="st4" cx="237.6" cy="200.5" r="0.8"/>
<circle class="st10" cx="247.8" cy="201" r="0.8"/>
<circle class="st10" cx="248.6" cy="187.4" r="0.8"/>
<circle class="st10" cx="237.6" cy="200.2" r="0.8"/>
<circle class="st10" cx="238" cy="137.5" r="0.8"/>
<circle class="st10" cx="237.6" cy="148.4" r="0.8"/>
<path class="st4" d="M236.4,176.8c0,0-0.1,18.5-0.5,21.8C235.8,198.6,235.7,177.7,236.4,176.8z"/>
<path class="st4" d="M232.9,185.4c0.3,0-5.5,21.7-5.8,23.2C226.9,210.1,231.3,185.4,232.9,185.4z"/>
<path class="st4" d="M228.3,181.8c0,0.2-3.2,11.7-4.9,12.4C221.9,194.8,228.3,181.8,228.3,181.8z"/>
<path class="st4" d="M215.6,159.4c0,0,6.9,0.3,7.1,1.3S215.6,159.4,215.6,159.4z"/>
<path class="st4" d="M227.7,247.4c0,0,4.9,2.1,4.2,2.2C231.2,249.7,227.7,247.4,227.7,247.4z"/>
<path class="st4" d="M237.9,244.3c0.2-0.4-3.3,1.8-3.3,2S237.7,244.9,237.9,244.3z"/>
<path class="st4" d="M233.3,251.4c0,0-3.8-0.2-4.1,1.3C228.9,254.1,233.3,251.4,233.3,251.4z"/>
<path class="st4" d="M261,251.4c0,0-4.2-0.8-4.5,0S261,251.4,261,251.4z"/>
<path class="st4" d="M259.5,276.8c0,0-0.3,3.4,0.7,4.3C261.2,281.9,259.5,276.8,259.5,276.8z"/>
<path class="st4" d="M260,284.1c-1.3,0.1-8.3-1.1-8.2,0S260,284.1,260,284.1z"/>
<path class="st4" d="M228.1,279.9c0,0,2.4-0.4,1.8,1.2L228.1,279.9z"/>
<path class="st4" d="M272.1,145.2h1.3l2,7.2c0,0,0.7,2.5,1.3,3.1s-0.6,6.1-0.6,6.1s0.7,3.9,1.3,4.9s-0.9,3.5-0.9,3.5l-3.1,7.3
	l-8.2,2.2c0,0-14.5,3.2-15.2,3.6c-0.7,0.5-1.3-0.2-1.8-4.6c-0.5-4.4-1.8-12.9-2.8-13.3c0,0,8.1,0.9,8.8,0.7c0.7-0.1,3.9,0.1,3.9,0.1
	s4.3-0.3,4.9,0.1c0.7,0.4-0.9-2-0.9-2c-0.3-1.1-0.3-2.2,0-3.3C262.7,159.1,263,138.4,272.1,145.2z"/>
<path class="st4" d="M245.8,166c1,0.4,2.3,8.9,2.8,13.3c0.5,4.4,1.1,5.1,1.8,4.6c0.5-0.4,10.2-2.5,13.8-3.3
	c-0.6-3.4-0.9-7.1-0.9-7.1l10.3-27.5h-1.1c-9.2-6.7-9.4,13.9-9.9,15.7c-0.3,1.1-0.3,2.2,0,3.3c0,0,1.6,2.4,0.9,2s-4.9-0.1-4.9-0.1
	s-3.2-0.2-3.9-0.1C253.9,166.9,245.8,166,245.8,166z"/>
<path class="st7" d="M272.4,145.5h1.3l2,7.2c0,0,0.7,2.5,1.4,3.1s-0.6,6.1-0.6,6.1s0.7,3.9,1.3,4.9s-0.9,3.5-0.9,3.5l-3.1,7.3
	l-8.2,2.2c0,0-14.5,3.2-15.2,3.6c-0.7,0.5-1.3-0.2-1.8-4.6c-0.5-4.4-1.8-12.9-2.8-13.3c0,0,8.1,0.9,8.8,0.7c0.7-0.1,3.9,0.1,3.9,0.1
	s4.3-0.3,4.9,0.1c0.7,0.4-0.9-2-0.9-2c-0.3-1.1-0.3-2.2,0-3.3C263,159.4,263.2,138.7,272.4,145.5z"/>
<path class="st4" d="M268,169.9c0,0,3.7,7,4.4,6.2S268,169.9,268,169.9z"/>
<path class="st4" d="M271.9,165.9c0,0,3.4,2.8,1.8,3.6C272.1,170.2,271.9,165.9,271.9,165.9z"/>
<path class="st4" d="M268.6,162.4c-0.3,0.1-5,1-5.1,1.4C263.5,164.2,268.6,162.4,268.6,162.4z"/>
<path class="st4" d="M235.9,113c0.3,0.1,0.5,0.4,0.5,0.7c0.3,0.2,0.7,0,0.9-0.4c0.2-0.3,0.5-0.7,0.8-0.6c0.2,0.1,0.3,0.1,0.5,0.2
	c0.5,0.2,1-0.5,1.3-1c0.5-1,1.1-1.9,1.6-2.9c1.1,0.6,2.3,0,3.4-0.7c1-0.6,2.3-1.3,3.4-0.7c1.6,0.9,1.6,3.9,3.2,4.6
	c0.5,0.2,1.1,0.2,1.6,0.5s0.7,0.9,0.9,1.5c0.1,0.3,0.3,0.6,0.5,0.9c0.2,0.1,0.4,0.1,0.5,0.1c0.5,0.1,1,0,1.4-0.2
	c0.5-0.3,0.7-0.9,0.5-1.4v-0.1c-0.2-0.2-0.3-0.4-0.5-0.7c-0.2-0.4,0.1-0.9,0-1.4c-0.1-0.8-0.9-1.2-1.1-2c-0.1-0.3,0-0.6-0.1-0.9
	v-0.1l0.5,0.3c-0.6-0.6-0.8-1.5-1.2-2.3c-0.9-1.7-2.5-3-4.4-3.6c-1.8-0.5-3.6-0.4-5.4,0.1c-1.7,0.4-3.3,1.1-4.8,2
	c-0.5,0.3-1,0.7-1.4,1.1c-0.3,0.5-0.6,1-0.8,1.5c-0.5,1.1-2,2.1-0.8,2.2c0.9,0.1,0.1,0.8-0.4,1.2c-0.1,0.1-0.2,0.2-0.3,0.3
	c-0.2,0.3-0.1,0.8,0.1,1.1C236.4,112.8,235.6,112.8,235.9,113z"/>
<path class="st11" d="M235.9,112.7c0.3,0.1,0.5,0.4,0.5,0.7c0.3,0.2,0.7,0,0.9-0.4c0.2-0.3,0.5-0.7,0.8-0.6c0.2,0.1,0.3,0.1,0.5,0.2
	c0.5,0.2,1-0.5,1.3-1c0.5-1,1.1-1.9,1.6-2.9c1.1,0.6,2.3,0,3.4-0.7c1-0.6,2.3-1.3,3.4-0.7c1.6,0.9,1.6,3.9,3.2,4.6
	c0.5,0.2,1.1,0.2,1.6,0.5s0.7,0.9,0.9,1.5c0.1,0.3,0.3,0.6,0.5,0.9c0.2,0.1,0.4,0.1,0.5,0.1c0.5,0.1,1,0,1.4-0.2
	c0.5-0.3,0.7-0.9,0.5-1.4v-0.1c-0.2-0.2-0.3-0.4-0.5-0.7c-0.2-0.4,0.1-0.9,0-1.4c-0.1-0.8-0.9-1.2-1.1-2c-0.1-0.3,0-0.6-0.1-0.9
	v-0.1l0.5,0.3c-0.6-0.6-0.8-1.5-1.2-2.3c-0.9-1.7-2.5-3-4.4-3.6c-1.8-0.5-3.6-0.4-5.4,0.1c-1.7,0.4-3.3,1.1-4.8,2
	c-0.5,0.3-1,0.7-1.4,1.1c-0.3,0.5-0.6,1-0.8,1.5c-0.5,1.1-2,2.1-0.8,2.2c0.9,0.1,0.1,0.8-0.4,1.2c-0.1,0.1-0.2,0.2-0.3,0.3
	c-0.2,0.3-0.1,0.8,0.1,1.1C236.4,112.5,235.6,112.6,235.9,112.7z"/>
<path class="st4" d="M236.4,110.9l0.1,1.1c0,0,11.3-14.4,20.1,1.9c0,0,0-0.2,0.1-0.5c-0.2-0.2-0.3-0.4-0.5-0.7
	c-0.2-0.4,0.1-0.9,0-1.4c-0.1-0.8-0.9-1.2-1.1-2c-0.1-0.3,0-0.6-0.1-0.9v-0.1l0.5,0.3c-0.6-0.6-0.8-1.5-1.2-2.3
	c-0.9-1.7-2.5-3-4.4-3.6c-1.8-0.5-3.6-0.4-5.4,0.1c-1.7,0.4-3.3,1.1-4.8,2c-0.5,0.3-1,0.7-1.4,1.1c-0.3,0.5-0.6,1-0.8,1.5
	c-0.5,1.1-2,2.1-0.8,2.2C237.8,109.8,236.9,110.4,236.4,110.9z"/>
<g class="st12">
	<path d="M236.1,112.5c0.1,0.1,0.2,0.3,0.1,0.5c0.3,0.2,0.7,0,0.9-0.4c0.2-0.3,0.5-0.7,0.8-0.6c0.2,0.1,0.3,0.1,0.5,0.2
		c0.5,0.2,1-0.5,1.3-1c0.5-1,1.1-1.9,1.6-2.9c1.1,0.6,2.3,0,3.4-0.7s2.3-1.3,3.4-0.7c1.6,0.9,1.6,3.9,3.2,4.6
		c0.5,0.2,1.1,0.2,1.6,0.5s0.7,0.9,0.9,1.5c0.1,0.3,0.3,0.6,0.5,0.9c0.2,0.1,0.4,0.1,0.5,0.1c0.5,0.1,1,0,1.4-0.2
		c0.3-0.2,0.4-0.4,0.5-0.7c0.1,0.5-0.1,1-0.5,1.3c-0.4,0.2-0.9,0.3-1.4,0.2c-0.2,0-0.4,0-0.5-0.1c-0.3-0.2-0.5-0.5-0.5-0.9
		c-0.2-0.6-0.5-1.2-0.9-1.5c-0.5-0.3-1.1-0.3-1.6-0.5c-1.6-0.7-1.7-3.7-3.2-4.6c-1.1-0.6-2.3,0-3.4,0.7s-2.3,1.3-3.4,0.7
		c-0.5,1-1.1,1.9-1.6,2.9c-0.3,0.6-0.8,1.2-1.3,1c-0.2-0.1-0.3-0.1-0.5-0.2c-0.3,0-0.6,0.3-0.8,0.6c-0.2,0.3-0.6,0.6-0.9,0.4
		c0-0.3-0.2-0.6-0.5-0.7C235.6,112.7,236,112.7,236.1,112.5z"/>
	<path d="M237,109.8c-0.1,0-0.2-0.1-0.3-0.1c-0.5-0.1-0.5-0.3-0.3-0.6c0.1,0.1,0.2,0.1,0.3,0.1C237.3,109.3,237.3,109.6,237,109.8z"
		/>
	<path d="M236,112.1c0-0.2,0-0.4,0-0.5c0,0.1,0.1,0.2,0.1,0.3C236.2,112,236.1,112,236,112.1z"/>
	<path d="M256.3,111.3C256.3,111.4,256.3,111.4,256.3,111.3c0,0.3,0,0.6,0,0.8C256.2,111.9,256.2,111.6,256.3,111.3z"/>
	<path d="M255.2,108c0.1,0.2,0.3,0.5,0.5,0.7l-0.4-0.3C255.2,108.3,255.2,108.2,255.2,108z"/>
</g>
<path class="st7" d="M256.7,113.6c0,0,1.6-7.3,1.1-8.5c0,0,1.4-2.9,1.4-3.6c0.1-1.1,0.4-2.3,1-3.2c0.7-1.2,1.6-6.6-2.9-7.9
	c-4.4-1.3-7.8-2.5-8.4-3.4c-0.5-0.9-8.1-0.3-10.2,3.1s-3.4,2.7-3.4,2.7s-3.2,2-3.2,3.8s1,2.7,0,3.1s-0.2,7.8,4,8l0.4,3.9
	C236.5,111.7,247.9,97.4,256.7,113.6z"/>
<path class="st4" d="M256.2,91.9c0,0,1,5.7-0.8,7.7L256.2,91.9z"/>
<path class="st4" d="M251.6,90.6c0,0,2.5,6.1,1.9,7.3L251.6,90.6z"/>
<path class="st4" d="M249.4,88.6c0,0,1.7,8,0.9,8.6L249.4,88.6z"/>
<path class="st4" d="M246.5,90.8c0,0,2.1,5.1,1.2,5.8L246.5,90.8z"/>
<path class="st4" d="M242.6,91.4c0,0,2.5,4.2,2,4.9L242.6,91.4z"/>
<path class="st4" d="M237.5,95.4c0,0,2.6,0.7,2.1,1.6L237.5,95.4z"/>
<path class="st4" d="M235,99.8c0,0,2.4,1.1,1.9,1.8L235,99.8z"/>
<path class="st4" d="M257.8,105.2c0,0-15.1-6.1-21.6,2.7C236.2,107.8,244.1,101.1,257.8,105.2z"/>
<polygon class="st9" points="263.2,155.5 261.1,153.4 255.2,159.3 257.3,161.4 262.8,156 "/>
<path class="st8" d="M277,141.9c0,0-9.2,0.8-17.8,10.4l3.6,3.6L277,141.9z"/>
<path class="st6" d="M249.4,159.1c0,0,8.8-3.2,9.7-4s6,3.7-0.3,9.8c0,0-7.6,2.2-9.7,0S249.4,159.1,249.4,159.1z"/>
<rect x="85.7" y="220.7" class="st13" width="1.8" height="40.5"/>
<path class="st14" d="M74.4,261.1l0.1,1.8l0.2,2.6l0.1,1.1l0.2,2.6l0.1,1.1l0.2,2.6l1.8,29.3c0.2,2.6,2.3,4.6,4.9,4.6h9.4
	c2.6,0,4.8-2,4.9-4.6l1.8-29.3l0.2-2.6l0.1-1.1l0.2-2.6l0.1-1.1l0.2-2.6l0.1-1.8c0.1-1.4-1-2.6-2.4-2.7c-0.1,0-0.1,0-0.2,0H77.1
	c-1.4,0-2.6,1.1-2.6,2.6C74.4,261,74.4,261,74.4,261.1z"/>
<polygon class="st15" points="74.5,262.9 74.7,265.5 98.5,265.5 98.7,262.9 "/>
<polygon class="st15" points="74.7,266.5 74.9,269.1 98.3,269.1 98.5,266.5 "/>
<polygon class="st15" points="75,270.2 75.1,272.8 98.1,272.8 98.2,270.2 "/>
<path class="st7" d="M101.4,235.9c-10.5,7.6-14.8,19.4-14.8,19.4s12.6-0.4,23.1-8s14.8-19.4,14.8-19.4S111.9,228.3,101.4,235.9z"/>
<path class="st16" d="M124.5,227.9c0,0-13.1,7.3-17.3,13.3c-4.2,6-20.6,14.1-20.6,14.1"/>
<path class="st7" d="M94.7,220.6c-5.7,4.1-8.1,10.6-8.1,10.6s6.9-0.2,12.6-4.4s8.1-10.6,8.1-10.6S100.4,216.5,94.7,220.6z"/>
<path class="st16" d="M107.2,216.3c0,0-7.1,4-9.4,7.2s-11.2,7.7-11.2,7.7"/>
<path class="st7" d="M78.3,230.9c6.5,7.2,7.9,16.6,7.9,16.6s-9.2-2.3-15.8-9.5c-6.5-7.2-7.9-16.6-7.9-16.6S71.8,223.7,78.3,230.9z"
	/>
<path class="st16" d="M62.6,221.4c0,0,8.5,7.4,10.7,12.5s13,13.6,13,13.6"/>
</svg>
