<?xml version="1.0" encoding="utf-8"?>
<!-- Generator: Adobe Illustrator 22.0.1, SVG Export Plug-In . SVG Version: 6.00 Build 0)  -->
<svg version="1.1" id="Layer_1" xmlns="http://www.w3.org/2000/svg" xmlns:xlink="http://www.w3.org/1999/xlink" x="0px" y="0px"
	 viewBox="0 0 1300 400" style="enable-background:new 0 0 1300 400;" xml:space="preserve">
<style type="text/css">
	.st0{fill:url(#SVGID_1_);stroke:#000000;stroke-width:1.6452;stroke-miterlimit:10;}
	.st1{opacity:0.1;fill:#0D8CD8;enable-background:new    ;}
	.st2{fill:url(#SVGID_2_);}
	.st3{fill:#4C495A;}
	.st4{opacity:0.1;enable-background:new    ;}
	.st5{fill:#5F5D7E;}
	.st6{fill:#FDC2CC;}
	.st7{fill:#0D8CD8;}
	.st8{fill:#DFE6F5;}
	.st9{fill:#53526B;}
	.st10{fill:#FFFFFF;}
	.st11{fill:#865A61;}
	.st12{opacity:0.1;}
	.st13{fill:#535461;}
	.st14{fill:#65617D;}
	.st15{fill:#9D9CB5;}
	.st16{fill:none;stroke:#535461;stroke-width:0.6951;stroke-miterlimit:10;}
</style>
<linearGradient id="SVGID_1_" gradientUnits="userSpaceOnUse" x1="0" y1="200" x2="1300" y2="200" gradientTransform="matrix(1 0 0 -1 0 400)">
	<stop  offset="0" style="stop-color:#007194"/>
	<stop  offset="1" style="stop-color:#41C1C9"/>
</linearGradient>
<rect class="st0" width="1300" height="400"/>
<ellipse class="st1" cx="1045.5" cy="303" rx="112.6" ry="4"/>
<path class="st1" d="M1015.9,75.2c7.2-6.4,18.4-7.7,28.7-7.2c32.2,1.6,61.3,17.1,86.4,34.7c9.1,6.4,18.1,13.2,24,22
	c12,17.8,8.5,42.6-8.3,57.3c-5.7,5-12.6,8.8-19.7,12.2c-12.6,6-26.2,10.9-40.5,12.3c-10.2,1-20.5,0.2-30.6-1.2
	c-28.3-3.8-56.1-12.3-79.4-26.8c-10.2-6.4-19.8-14.3-24-24.6c-4.2-10.3-1.5-23.4,8.9-29.5c4.3-2.5,9.5-3.7,14.5-4.7
	c7.4-1.6,15-3.1,21.7-6.3c6.9-3.3,15.1-9.7,13.8-17C1009.9,88.5,1008.7,81.6,1015.9,75.2z"/>
<ellipse class="st1" cx="1212.1" cy="306" rx="30.1" ry="2.7"/>
<linearGradient id="SVGID_2_" gradientUnits="userSpaceOnUse" x1="1210.4946" y1="-10.2521" x2="1210.4946" y2="210.6248" gradientTransform="matrix(1 0 0 -1 -154.9654 296.3641)">
	<stop  offset="0" style="stop-color:#808080;stop-opacity:0.25"/>
	<stop  offset="0.5351" style="stop-color:#808080;stop-opacity:0.12"/>
	<stop  offset="1" style="stop-color:#808080;stop-opacity:0.1"/>
</linearGradient>
<path class="st2" d="M1089.9,158.6c-0.5-0.9-3.1-6.8-3.1-6.8l-4.3-11.3c0,0-3.1-4.7-3.1-5.6c0-0.9-5.6-4.4-5.6-4.4s-4.6-1.4-4.9-1.5
	c-0.4-0.1-5.7-1.9-5.7-1.9s-2.1-2.8-2.4-2.1l0,0c0,0,0,0,0-0.1c-0.4-0.8-0.7-1.7-0.8-2.6c0-0.1,0-0.2,0-0.3c2.8-1.9,4.5-5.1,4.6-8.6
	c0-0.4,0-0.9-0.1-1.3c0,0,0.1,0,0.1-0.1c0.1,0,0.1-0.1,0-0.1c0,0,0,0,0.1,0c0.1-0.1,0-0.1-0.1-0.1l0,0c0.2-0.1,0-0.1-0.2-0.2
	c0,0,0-0.1,0-0.1c0-0.1,0.1-0.2,0.1-0.3c0,0,0,0,0,0c0-0.2,0-0.4,0-0.5c0,0,0,0.1,0,0.1c0-0.3-0.1-0.6-0.4-0.8c0,0,0,0,0,0l0.3-3
	c4.4-0.2,5.1-7.7,4.1-8.1c-1-0.4,0-1.3,0-3.1S1065,92,1065,92s-1.4,0.7-3.5-2.8s-10.1-4-10.6-3.1c-0.5,0.9-4.1,2.1-8.7,3.4
	c-4.6,1.3-3.8,6.8-3,7.9c0.6,1,1,2.1,1.1,3.2c0,0.7,1.5,3.6,1.5,3.6c-0.5,1,0.7,6.5,1.1,8.1c0,0,0,0.1,0,0.1c0,0,0,0,0,0
	c0,0,0,0.1,0,0.1c-0.1,0.2-0.1,0.3-0.1,0.5c0,0.2,0,0.4,0.1,0.6c0.1,3,1.4,5.8,3.7,7.7c0,0.1,0,0.2,0,0.3c0.1,1.3,0.1,2.8,0,4.2
	c0,0.1,0,0.1,0,0.2c-0.5,0.1-1,0.4-1.2,0.9c-0.4,0.8-3,2.1-3,2.1s-4.4,0.2-4.8,1c-0.4,0.8-6.8,3.5-6.8,3.5s-3.4,2-2.9,4.2
	c0.3,1.2-0.5,3-1.2,4.5c-1.6-0.6-3.2-1-4.8-1.2l3.6,3.4c-0.1,0.1-0.1,0.2-0.1,0.2l-2,7.2c0,0-0.7,2.5-1.4,3.1
	c-0.7,0.6,0.6,6.2,0.6,6.2s-0.8,3.9-1.4,4.9c-0.6,1,1,3.5,1,3.5l3.2,7.3l8.5,2.2c0,0,0.6,0.1,1.5,0.3c0,0.2-0.1,0.3-0.1,0.5
	c-0.4,2.3-1,4.5-1.6,5.1c-1.6,1.4-1.5,7.8-1.5,7.8l0.1,9c0,0,0.6,11.1,0.3,11.5c-0.2,0.3,0.2,0.7,1.1,1.1c0,0.2-0.1,0.3-0.1,0.5
	c-0.3,1.8-0.4,3.9,0.2,4.9c0.3,0.5,0.4,1.1,0.4,1.6c0,0.9,1.3,2.7,1.3,2.7s-1.1,7.5,0.7,10.1s3.2,7.3,2.4,8.3c0,0-1.5,3.2-0.8,4.6
	c0.7,1.4,0,2.2-0.9,2.6s-0.8,3.1-0.8,3.1l1.7,13.2c0,0,0.9,2.7,0.1,3.7c-0.8,0.9-0.8,5.7,0.4,7.3c1.2,1.6-1.7,4.6-1.7,4.6
	s-1.8,2.5,1.1,3.3c0,0,0.6,0.1-0.5,1.2c-1.1,1.1-1.3,2.4-0.6,2.9c0.1,0.1,0.3,0.2,0.5,0.2c0,0.2-0.1,0.3-0.1,0.5
	c-0.3,1.4-0.8,3.3-1.7,4.2c-1.8,1.8-3.3,3.9-4.6,6.1c-1,1.8-1.4,3.5-0.3,4.3c2.5,1.9,5.7,2.5,7.6,1.8s4.6-3.1,4.6-3.1l0.6-2.6
	c0,0-0.4-1.6,1.7-2.2c2.1-0.6,4.1-2.8,4.1-2.8v-3.5c0.5-0.3,1-0.6,1.5-1c0,0,1-3.5,0-4.6s-1.3-1.6-0.1-2.3c1.3-0.7,1.4-2.4,0.5-3.8
	c-0.9-1.4-2.4-3.5-1.1-6.5c1.3-3,1.7-12.1,1.7-12.1s-0.6-6.2,0-7.7c0.6-1.4-0.7-4.3-0.7-4.3s0.4-3.5,1.2-5.2
	c0.8-1.6,1.4-10.2,1.4-10.2s1.4-3.7,1.4-6s-2.2-8.1,1.1-9.6c0,0,1.4,1.2,0.8,6.1c0,0,1.6,5.7,1.6,7.5c0,1.8,1.2,8.1,1.2,8.1
	s0.1,2,0.6,2.8c0.5,0.7,0,2.8,0,2.8s1.8,1.7,1.3,2.8s0.1,3.5,0.1,3.5l-0.4,15.2c0,0-1.3,6.5,1.7,10.4c0,0-1.1,5.8-1.7,6.2
	c-0.6,0.4,2.3,3.9,2.3,3.9s-0.8,2.3,0.8,2.4v3.8c0.6,1,1.4,1.9,2.3,2.6c1.5,1.1,0.9,4.8,0.9,4.8s2,4.7,7.1,3.7
	c5.2-1,5.9-1.5,5.6-3.2c-0.1-0.6-0.3-1.7-0.6-3c-0.6-2.2-1.4-4.8-2.4-6.1c-1.6-2-2.9-6.3-2.9-6.3s-0.6-1.4,0-1.9
	c0.6-0.5,0.4-1.4,0.4-1.4s0.6-1.8,0.1-2.8c-0.6-1.1,1.1-3.3,1.1-3.3L1075,267l0.5-15.2c0,0-2.2-2.5-1.3-4c0.9-1.5-1.1-3.6-1.1-3.6
	s-0.2-0.1,0.4-1.8c0.3-1,0.3-2.1-0.1-3.1c0,0-1.2-4.2,0.9-7.4c0,0,0.9-4.2,1.2-6.4c0.2-1.5,1.4-7.1,2.1-10.4c0-0.2,0.1-0.4,0.1-0.5
	c1,0.1,1.8,0.1,1.8,0.1s-1.6-11.2,0-13.5c1.6-2.3-1.3-19.9-1.3-19.9s-0.7-3.1-1.1-6.2c0-0.2,0-0.4-0.1-0.5c1.3-0.1,2.6-0.1,3.9-0.1
	c3.4,0.2,6.7-1.1,6.7-2.4s1.9-6.4,2.2-7.5C1090.2,163.5,1090.4,159.5,1089.9,158.6z"/>
<path class="st3" d="M1049,289.4v6.3c0,0-1.9,2.2-3.9,2.8c-2,0.6-1.6,2.2-1.6,2.2l-0.6,2.6c0,0-2.6,2.3-4.4,3
	c-1.8,0.7-4.9,0.1-7.4-1.8c-1-0.8-0.6-2.5,0.3-4.3c1.2-2.2,2.7-4.3,4.4-6.1c0.9-0.9,1.4-2.7,1.6-4.1c0.2-1.1,0.3-1.9,0.3-1.9
	L1049,289.4z"/>
<path class="st4" d="M1049,294.1v1.6c0,0-1.9,2.2-3.9,2.8c-2,0.6-1.6,2.2-1.6,2.2l-0.6,2.6c0,0-2.6,2.3-4.4,3
	c-1.8,0.7-4.9,0.1-7.4-1.8c-1-0.8-0.6-2.5,0.3-4.3c0,1.9,0.5,4,3.3,4c3-0.1,5.8-1.1,8.2-3c0,0-0.1-4.5,3-5.5
	C1047.1,295.4,1048.1,294.8,1049,294.1z"/>
<path class="st3" d="M1073.8,305.4c-5,1-6.9-3.7-6.9-3.7s0.6-3.7-0.9-4.8c-0.9-0.7-1.7-1.6-2.2-2.6v-6.2l6.1-4.3l3.3,2.9l0.2,0.2
	c0,0,1.3,4.3,2.8,6.3c1,1.3,1.8,3.9,2.3,6.1c0.3,1.2,0.5,2.3,0.6,3C1079.4,303.9,1078.7,304.4,1073.8,305.4z"/>
<path class="st4" d="M1073.8,305.4c-5,1-6.9-3.7-6.9-3.7s0.6-3.7-0.9-4.8c-0.9-0.7-1.7-1.6-2.2-2.6V292c1,1,2.8,3,3.2,3.8
	c0.5,1.1,0.6,5.3,3.1,6.1s7.4,1.4,7.8-0.5c0.2-0.7,0.4-1.4,0.7-2.1c0.3,1.2,0.5,2.3,0.6,3C1079.4,303.9,1078.7,304.4,1073.8,305.4z"
	/>
<path class="st4" d="M1037.8,288.2l11.3,1.2v3.3c-1.3,0.8-3.1,1.6-4.1,0.7c-1.5-1.2-6-2.7-7.4-3.4
	C1037.7,289,1037.8,288.2,1037.8,288.2z"/>
<path class="st4" d="M1073.3,287.5c-1.6-0.5-4.3,1.8-8,3.3c-0.5,0.2-1.1,0.4-1.6,0.4v-3l6.1-4.3l3.3,2.9
	C1073.2,287,1073.2,287.2,1073.3,287.5z"/>
<path class="st5" d="M1077.3,213.2c0,0-0.2,1-0.5,2.4c-0.7,3.3-1.9,8.9-2,10.4c-0.3,2.2-1.1,6.3-1.1,6.3c-2,3.2-0.9,7.4-0.9,7.4
	c0.4,1,0.5,2,0.1,3c-0.5,1.7-0.3,1.8-0.3,1.8s1.9,2.1,1,3.6c-0.9,1.5,1.2,4,1.2,4l-0.5,15.1l0.5,10.4c0,0-1.6,2.2-1,3.3
	c0.5,1.1-0.1,2.8-0.1,2.8s0.3,0.9-0.3,1.3c-0.6,0.5,0,1.9,0,1.9c-1.6-0.5-4.3,1.8-8,3.3c-3.6,1.5-2.4-2-2.4-2s-2.8-3.5-2.2-3.9
	c0.6-0.4,1.6-6.1,1.6-6.1c-2.8-3.9-1.6-10.4-1.6-10.4l0.4-15.1c0,0-0.6-2.4-0.1-3.5c0.5-1.1-1.3-2.8-1.3-2.8s0.5-2,0-2.8
	c-0.5-0.7-0.6-2.8-0.6-2.8s-1.1-6.3-1.1-8.1s-1.6-7.4-1.6-7.4c0.5-4.9-0.8-6.1-0.8-6.1c-3.1,1.5-1,7.2-1,9.5s-1.3,6-1.3,6
	s-0.6,8.6-1.3,10.2s-1.1,5.1-1.1,5.1s1.2,2.8,0.6,4.3c-0.6,1.4,0,7.6,0,7.6s-0.4,9.1-1.7,12.1s0.2,5.1,1.1,6.5
	c0.9,1.4,0.7,3-0.5,3.8c-1.2,0.7-0.9,1.1,0.1,2.3c0.9,1.1,0,4.6,0,4.6s-3.8,3-5.5,1.7c-1.7-1.3-7.1-3.1-7.8-3.6
	c-0.7-0.5-0.5-1.8,0.5-2.9c1-1.1,0.5-1.2,0.5-1.2c-2.7-0.8-1-3.3-1-3.3s2.8-3,1.6-4.6s-1.1-6.3-0.4-7.3c0.7-0.9-0.1-3.6-0.1-3.6
	l-1.6-13.2c0,0-0.1-2.8,0.8-3.1c0.9-0.3,1.6-1.1,0.9-2.6c-0.7-1.4,0.7-4.6,0.7-4.6c0.8-1.1-0.6-5.7-2.3-8.3
	c-1.7-2.6-0.7-10.1-0.7-10.1s-1.3-1.8-1.3-2.7c0-0.6-0.2-1.1-0.4-1.6c-0.6-0.9-0.5-3-0.2-4.9c0.2-1.8,0.6-3.3,0.6-3.3L1077.3,213.2z
	"/>
<path class="st6" d="M1064.1,136.7l-13.3,3.1c0,0-6.5-5.5-4.9-8.5c0.6-1,0.8-2.8,0.9-4.6c0.1-1.4,0-2.9,0-4.2
	c-0.1-1.8-0.2-3.2-0.2-3.2s13.6-7.7,13.2,0c-0.1,1.3-0.1,2.6,0.1,3.8c0.1,0.9,0.4,1.8,0.8,2.6c0.7,1.3,1.6,1.3,1.6,1.3L1064.1,136.7
	z"/>
<path class="st4" d="M1059.7,123.1c-4,2.8-9.4,2.6-13-0.6c-0.1-1.8-0.2-3.2-0.2-3.2s13.6-7.7,13.2,0
	C1059.5,120.6,1059.6,121.8,1059.7,123.1z"/>
<circle class="st6" cx="1053.6" cy="114.3" r="10.5"/>
<path class="st4" d="M1064.1,136.7l-13.3,3.1c0,0-6.5-5.5-4.9-8.5c0.6-1,0.8-2.8,0.9-4.6c0.3,1.6,1.2,3,2.4,4.1c3,2,2.6,4.5,2.6,4.5
	l5.5-0.2c-0.3-2.2,1.7-3.4,2.4-3.7c0.7-0.3,0.3-1.5,0.3-1.5l0.6-4.2c0.7,1.3,1.6,1.3,1.6,1.3L1064.1,136.7z"/>
<path class="st4" d="M1077.3,213.2c0,0-0.2,1-0.5,2.4c-1.5-0.1-3.4-0.1-4.3,0.1c-1.5,0.3-7.4,0.5-7.4,0.5l-14.7,0.5v-0.5
	c-1.7,0-3.4,0.1-5.1,0.3c-2.5,0.3-6.4-0.1-8.9-0.5c-0.8-0.1-1.5-0.3-2.2-0.6c0.2-1.8,0.6-3.3,0.6-3.3L1077.3,213.2z"/>
<path class="st7" d="M1076.2,170.3c-0.2,1.3-0.1,3.4,0.2,5.4c0.4,3.1,1.1,6.2,1.1,6.2s2.8,17.5,1.2,19.8c-1.6,2.3,0,13.4,0,13.4
	s-4.7-0.4-6.1-0.1c-1.5,0.3-7.4,0.5-7.4,0.5l-14.7,0.5v-0.5c-1.7,0-3.4,0.1-5.1,0.3c-2.5,0.3-6.4-0.1-8.9-0.5
	c-2.5-0.4-3.5-1.2-3.2-1.6c0.3-0.4-0.3-11.5-0.3-11.5l-0.1-9c0,0-0.1-6.3,1.5-7.8c0.6-0.6,1.2-2.7,1.6-5c0.6-3.4,0.9-7.1,0.9-7.1
	l-10.3-27.5l-0.2-0.5c0,0,3-4.6,2.5-6.8c-0.5-2.2,2.8-4.2,2.8-4.2s6.1-2.7,6.5-3.5c0.4-0.8,4.7-1,4.7-1s2.4-1.3,2.8-2.1
	c0.2-0.5,0.6-0.8,1.1-0.9c0.3,1.6,1.2,3.1,2.4,4.1c3,2,2.6,4.5,2.6,4.5l5.5-0.2c-0.3-2.2,1.7-3.4,2.4-3.7c0.7-0.3,0.3-1.5,0.3-1.5
	l0.6-4.4c0.3-0.7,2.3,2.1,2.3,2.1s5.2,1.8,5.5,1.9c0.3,0.1,4.7,1.5,4.7,1.5s5.4,3.5,5.4,4.4s3,5.6,3,5.6s0,0.2-0.1,0.5
	C1080.7,145.5,1076.7,167.4,1076.2,170.3z"/>
<path class="st6" d="M1054.6,159.4c0,0-11.7-3.1-12.8-3.8c-1.1-0.7-7.9,3.6,0.3,9.4c0,0,10.1,2.1,12.8,0
	C1057.6,162.9,1054.6,159.4,1054.6,159.4z"/>
<path class="st4" d="M1079.8,140.9l1.4,0.1l4.2,11.2c0,0,2.5,5.9,3,6.8c0.5,0.9,0.3,4.9,0,6s-2,6.2-2.1,7.5
	c-0.1,1.3-3.2,2.6-6.5,2.4c-3.2-0.2-10.8,0.8-10.8,0.8s-8.1-0.8-13,1.7c0,0-3.2-6.5-2.8-18.8c0,0,5.6-0.3,7,0.2
	c1.4,0.5,8.3,2.1,9.2,1.3c0.9-0.8,4.9,1.5,4.9,1.5c0.4-0.9,0.4-1.9,0-2.8c-0.7-1.6-1.8-6.7-0.3-8.3S1079.8,140.9,1079.8,140.9z"/>
<path class="st4" d="M1076.4,175.7c-3.4,0.2-7.1,0.7-7.1,0.7s-8.1-0.8-13,1.7c0,0-3.2-6.5-2.8-18.8c0,0,5.6-0.3,7,0.2
	c1.4,0.5,8.3,2.1,9.2,1.3c0.9-0.8,4.9,1.5,4.9,1.5c0.4-0.9,0.4-1.9,0-2.8c-0.7-1.6-1.8-6.7-0.3-8.3c1.5-1.6,5.9-9.5,5.9-9.5l1.3,0.1
	c-0.7,3.7-4.7,25.7-5.2,28.6C1076,171.6,1076.1,173.7,1076.4,175.7z"/>
<path class="st7" d="M1080.1,141.1l1.4,0.1l4.2,11.2c0,0,2.5,5.9,3,6.8c0.5,0.9,0.3,4.9,0,6c-0.3,1.1-2,6.2-2.1,7.5
	c-0.1,1.3-3.2,2.6-6.5,2.4c-3.2-0.2-10.8,0.8-10.8,0.8s-8.1-0.8-13,1.7c0,0-3.2-6.5-2.8-18.8c0,0,5.6-0.3,7,0.2
	c1.4,0.5,8.3,2.1,9.2,1.3c0.9-0.8,4.9,1.5,4.9,1.5c0.4-0.9,0.4-1.9,0-2.8c-0.7-1.6-1.8-6.7-0.3-8.3
	C1075.6,149,1080.1,141.1,1080.1,141.1z"/>
<rect x="1062.5" y="157.9" transform="matrix(0.5264 -0.8502 0.8502 0.5264 372.2802 986.1298)" class="st8" width="17.8" height="2"/>
<ellipse transform="matrix(0.5264 -0.8502 0.8502 0.5264 385.106 986.723)" class="st8" cx="1078.3" cy="147.7" rx="5.7" ry="4"/>
<ellipse transform="matrix(0.5264 -0.8502 0.8502 0.5264 385.106 986.723)" class="st4" cx="1078.3" cy="147.7" rx="4.1" ry="2.9"/>
<rect x="1059.3" y="168.5" transform="matrix(0.5264 -0.8502 0.8502 0.5264 360.1477 985.5687)" class="st9" width="11.1" height="2"/>
<path class="st6" d="M1051.1,174.4l4.1-1.1c0,0,20.3,0.5,13.5-7.8c0,0-3.6-3.4-11.1-0.7c-7.5,2.8-9.6,3.1-9.6,3.1L1051.1,174.4z"/>
<circle class="st4" cx="1048.1" cy="138.2" r="0.8"/>
<circle class="st4" cx="1062" cy="137.8" r="0.8"/>
<circle class="st10" cx="1048.1" cy="138" r="0.8"/>
<circle class="st4" cx="1049.2" cy="149.4" r="0.8"/>
<circle class="st4" cx="1062.4" cy="148.6" r="0.8"/>
<circle class="st10" cx="1049.2" cy="149.2" r="0.8"/>
<circle class="st4" cx="1062.1" cy="187.7" r="0.8"/>
<circle class="st4" cx="1051.4" cy="187.7" r="0.8"/>
<circle class="st10" cx="1062.1" cy="187.4" r="0.8"/>
<circle class="st4" cx="1052.2" cy="201.3" r="0.8"/>
<circle class="st4" cx="1062.4" cy="200.5" r="0.8"/>
<circle class="st10" cx="1052.2" cy="201" r="0.8"/>
<circle class="st10" cx="1051.4" cy="187.4" r="0.8"/>
<circle class="st10" cx="1062.4" cy="200.2" r="0.8"/>
<circle class="st10" cx="1062" cy="137.5" r="0.8"/>
<circle class="st10" cx="1062.4" cy="148.4" r="0.8"/>
<path class="st4" d="M1063.6,176.8c0,0,0.1,18.5,0.5,21.8C1064.2,198.6,1064.3,177.7,1063.6,176.8z"/>
<path class="st4" d="M1067.1,185.4c-0.3,0,5.5,21.7,5.8,23.2C1073.1,210.1,1068.7,185.4,1067.1,185.4z"/>
<path class="st4" d="M1071.7,181.8c0,0.2,3.2,11.7,4.9,12.4C1078.1,194.8,1071.7,181.8,1071.7,181.8z"/>
<path class="st4" d="M1084.4,159.4c0,0-6.9,0.3-7.1,1.3S1084.4,159.4,1084.4,159.4z"/>
<path class="st4" d="M1072.3,247.4c0,0-4.9,2.1-4.2,2.2C1068.8,249.7,1072.3,247.4,1072.3,247.4z"/>
<path class="st4" d="M1062.1,244.3c-0.2-0.4,3.3,1.8,3.3,2S1062.3,244.9,1062.1,244.3z"/>
<path class="st4" d="M1066.7,251.4c0,0,3.8-0.2,4.1,1.3C1071.1,254.1,1066.7,251.4,1066.7,251.4z"/>
<path class="st4" d="M1039,251.4c0,0,4.2-0.8,4.5,0C1043.8,252.2,1039,251.4,1039,251.4z"/>
<path class="st4" d="M1040.5,276.8c0,0,0.3,3.4-0.7,4.3C1038.8,281.9,1040.5,276.8,1040.5,276.8z"/>
<path class="st4" d="M1040,284.1c1.3,0.1,8.3-1.1,8.2,0S1040,284.1,1040,284.1z"/>
<path class="st4" d="M1071.9,279.9c0,0-2.4-0.4-1.8,1.2L1071.9,279.9z"/>
<path class="st4" d="M1027.9,145.2h-1.3l-2,7.2c0,0-0.7,2.5-1.3,3.1s0.6,6.1,0.6,6.1s-0.7,3.9-1.3,4.9c-0.6,1,0.9,3.5,0.9,3.5
	l3.1,7.3l8.2,2.2c0,0,14.5,3.2,15.2,3.6c0.7,0.5,1.3-0.2,1.8-4.6c0.5-4.4,1.8-12.9,2.8-13.3c0,0-8.1,0.9-8.8,0.7
	c-0.7-0.1-3.9,0.1-3.9,0.1s-4.3-0.3-4.9,0.1c-0.7,0.4,0.9-2,0.9-2c0.3-1.1,0.3-2.2,0-3.3C1037.3,159.1,1037,138.4,1027.9,145.2z"/>
<path class="st4" d="M1054.2,166c-1,0.4-2.3,8.9-2.8,13.3c-0.5,4.4-1.1,5.1-1.8,4.6c-0.5-0.4-10.2-2.5-13.8-3.3
	c0.6-3.4,0.9-7.1,0.9-7.1l-10.3-27.5h1.1c9.2-6.7,9.4,13.9,9.9,15.7c0.3,1.1,0.3,2.2,0,3.3c0,0-1.6,2.4-0.9,2
	c0.7-0.4,4.9-0.1,4.9-0.1s3.2-0.2,3.9-0.1C1046.1,166.9,1054.2,166,1054.2,166z"/>
<path class="st7" d="M1027.6,145.5h-1.3l-2,7.2c0,0-0.7,2.5-1.4,3.1c-0.7,0.6,0.6,6.1,0.6,6.1s-0.7,3.9-1.3,4.9s0.9,3.5,0.9,3.5
	l3.1,7.3l8.2,2.2c0,0,14.5,3.2,15.2,3.6c0.7,0.5,1.3-0.2,1.8-4.6c0.5-4.4,1.8-12.9,2.8-13.3c0,0-8.1,0.9-8.8,0.7
	c-0.7-0.1-3.9,0.1-3.9,0.1s-4.3-0.3-4.9,0.1c-0.7,0.4,0.9-2,0.9-2c0.3-1.1,0.3-2.2,0-3.3C1037,159.4,1036.8,138.7,1027.6,145.5z"/>
<path class="st4" d="M1032,169.9c0,0-3.7,7-4.4,6.2S1032,169.9,1032,169.9z"/>
<path class="st4" d="M1028.1,165.9c0,0-3.4,2.8-1.8,3.6C1027.9,170.2,1028.1,165.9,1028.1,165.9z"/>
<path class="st4" d="M1031.4,162.4c0.3,0.1,5,1,5.1,1.4C1036.5,164.2,1031.4,162.4,1031.4,162.4z"/>
<path class="st4" d="M1064.1,113c-0.3,0.1-0.5,0.4-0.5,0.7c-0.3,0.2-0.7,0-0.9-0.4c-0.2-0.3-0.5-0.7-0.8-0.6
	c-0.2,0.1-0.3,0.1-0.5,0.2c-0.5,0.2-1-0.5-1.3-1c-0.5-1-1.1-1.9-1.6-2.9c-1.1,0.6-2.3,0-3.4-0.7c-1-0.6-2.3-1.3-3.4-0.7
	c-1.6,0.9-1.6,3.9-3.2,4.6c-0.5,0.2-1.1,0.2-1.6,0.5c-0.5,0.3-0.7,0.9-0.9,1.5c-0.1,0.3-0.3,0.6-0.5,0.9c-0.2,0.1-0.4,0.1-0.5,0.1
	c-0.5,0.1-1,0-1.4-0.2c-0.5-0.3-0.7-0.9-0.5-1.4c0,0,0-0.1,0-0.1c0.2-0.2,0.3-0.4,0.5-0.7c0.2-0.4-0.1-0.9,0-1.4
	c0.1-0.8,0.9-1.2,1.1-2c0.1-0.3,0-0.6,0.1-0.9c0,0,0-0.1,0-0.1l-0.5,0.3c0.6-0.6,0.8-1.5,1.2-2.3c0.9-1.7,2.5-3,4.4-3.6
	c1.8-0.5,3.6-0.4,5.4,0.1c1.7,0.4,3.3,1.1,4.8,2c0.5,0.3,1,0.7,1.4,1.1c0.3,0.5,0.6,1,0.8,1.5c0.5,1.1,2,2.1,0.8,2.2
	c-0.9,0.1-0.1,0.8,0.4,1.2c0.1,0.1,0.2,0.2,0.3,0.3c0.2,0.3,0.1,0.8-0.1,1.1C1063.6,112.8,1064.4,112.8,1064.1,113z"/>
<path class="st11" d="M1064.1,112.7c-0.3,0.1-0.5,0.4-0.5,0.7c-0.3,0.2-0.7,0-0.9-0.4c-0.2-0.3-0.5-0.7-0.8-0.6
	c-0.2,0.1-0.3,0.1-0.5,0.2c-0.5,0.2-1-0.5-1.3-1c-0.5-1-1.1-1.9-1.6-2.9c-1.1,0.6-2.3,0-3.4-0.7c-1-0.6-2.3-1.3-3.4-0.7
	c-1.6,0.9-1.6,3.9-3.2,4.6c-0.5,0.2-1.1,0.2-1.6,0.5c-0.5,0.3-0.7,0.9-0.9,1.5c-0.1,0.3-0.3,0.6-0.5,0.9c-0.2,0.1-0.4,0.1-0.5,0.1
	c-0.5,0.1-1,0-1.4-0.2c-0.5-0.3-0.7-0.9-0.5-1.4c0,0,0-0.1,0-0.1c0.2-0.2,0.3-0.4,0.5-0.7c0.2-0.4-0.1-0.9,0-1.4
	c0.1-0.8,0.9-1.2,1.1-2c0.1-0.3,0-0.6,0.1-0.9c0,0,0-0.1,0-0.1l-0.5,0.3c0.6-0.6,0.8-1.5,1.2-2.3c0.9-1.7,2.5-3,4.4-3.6
	c1.8-0.5,3.6-0.4,5.4,0.1c1.7,0.4,3.3,1.1,4.8,2c0.5,0.3,1,0.7,1.4,1.1c0.3,0.5,0.6,1,0.8,1.5c0.5,1.1,2,2.1,0.8,2.2
	c-0.9,0.1-0.1,0.8,0.4,1.2c0.1,0.1,0.2,0.2,0.3,0.3c0.2,0.3,0.1,0.8-0.1,1.1C1063.6,112.5,1064.4,112.6,1064.1,112.7z"/>
<path class="st4" d="M1063.6,110.9l-0.1,1.1c0,0-11.3-14.4-20.1,1.9c0,0,0-0.2-0.1-0.5c0.2-0.2,0.3-0.4,0.5-0.7
	c0.2-0.4-0.1-0.9,0-1.4c0.1-0.8,0.9-1.2,1.1-2c0.1-0.3,0-0.6,0.1-0.9c0,0,0-0.1,0-0.1l-0.5,0.3c0.6-0.6,0.8-1.5,1.2-2.3
	c0.9-1.7,2.5-3,4.4-3.6c1.8-0.5,3.6-0.4,5.4,0.1c1.7,0.4,3.3,1.1,4.8,2c0.5,0.3,1,0.7,1.4,1.1c0.3,0.5,0.6,1,0.8,1.5
	c0.5,1.1,2,2.1,0.8,2.2C1062.2,109.8,1063.1,110.4,1063.6,110.9z"/>
<g class="st12">
	<path d="M1063.9,112.5c-0.1,0.1-0.2,0.3-0.1,0.5c-0.3,0.2-0.7,0-0.9-0.4c-0.2-0.3-0.5-0.7-0.8-0.6c-0.2,0.1-0.3,0.1-0.5,0.2
		c-0.5,0.2-1-0.5-1.3-1c-0.5-1-1.1-1.9-1.6-2.9c-1.1,0.6-2.3,0-3.4-0.7s-2.3-1.3-3.4-0.7c-1.6,0.9-1.6,3.9-3.2,4.6
		c-0.5,0.2-1.1,0.2-1.6,0.5c-0.5,0.3-0.7,0.9-0.9,1.5c-0.1,0.3-0.3,0.6-0.5,0.9c-0.2,0.1-0.4,0.1-0.5,0.1c-0.5,0.1-1,0-1.4-0.2
		c-0.3-0.2-0.4-0.4-0.5-0.7c-0.1,0.5,0.1,1,0.5,1.3c0.4,0.2,0.9,0.3,1.4,0.2c0.2,0,0.4,0,0.5-0.1c0.3-0.2,0.5-0.5,0.5-0.9
		c0.2-0.6,0.5-1.2,0.9-1.5c0.5-0.3,1.1-0.3,1.6-0.5c1.6-0.7,1.7-3.7,3.2-4.6c1.1-0.6,2.3,0,3.4,0.7s2.3,1.3,3.4,0.7
		c0.5,1,1.1,1.9,1.6,2.9c0.3,0.6,0.8,1.2,1.3,1c0.2-0.1,0.3-0.1,0.5-0.2c0.3,0,0.6,0.3,0.8,0.6c0.2,0.3,0.6,0.6,0.9,0.4
		c0-0.3,0.2-0.6,0.5-0.7C1064.4,112.7,1064,112.7,1063.9,112.5z"/>
	<path d="M1063,109.8c0.1,0,0.2-0.1,0.3-0.1c0.5-0.1,0.5-0.3,0.3-0.6c-0.1,0.1-0.2,0.1-0.3,0.1
		C1062.7,109.3,1062.7,109.6,1063,109.8z"/>
	<path d="M1064,112.1c0-0.2,0-0.4,0-0.5c0,0.1-0.1,0.2-0.1,0.3C1063.8,112,1063.9,112,1064,112.1z"/>
	<path d="M1043.7,111.3C1043.7,111.4,1043.7,111.4,1043.7,111.3c0,0.3,0,0.6,0,0.8C1043.8,111.9,1043.8,111.6,1043.7,111.3z"/>
	<path d="M1044.8,108c-0.1,0.2-0.3,0.5-0.5,0.7l0.4-0.3C1044.8,108.3,1044.8,108.2,1044.8,108z"/>
</g>
<path class="st7" d="M1043.3,113.6c0,0-1.6-7.3-1.1-8.5c0,0-1.4-2.9-1.4-3.6c-0.1-1.1-0.4-2.3-1-3.2c-0.7-1.2-1.6-6.6,2.9-7.9
	c4.4-1.3,7.8-2.5,8.4-3.4c0.5-0.9,8.1-0.3,10.2,3.1c2.1,3.4,3.4,2.7,3.4,2.7s3.2,2,3.2,3.8c0,1.8-1,2.7,0,3.1c1,0.4,0.2,7.8-4,8
	l-0.4,3.9C1063.5,111.7,1052.1,97.4,1043.3,113.6z"/>
<path class="st4" d="M1043.8,91.9c0,0-1,5.7,0.8,7.7L1043.8,91.9z"/>
<path class="st4" d="M1048.4,90.6c0,0-2.5,6.1-1.9,7.3L1048.4,90.6z"/>
<path class="st4" d="M1050.6,88.6c0,0-1.7,8-0.9,8.6L1050.6,88.6z"/>
<path class="st4" d="M1053.5,90.8c0,0-2.1,5.1-1.2,5.8L1053.5,90.8z"/>
<path class="st4" d="M1057.4,91.4c0,0-2.5,4.2-2,4.9L1057.4,91.4z"/>
<path class="st4" d="M1062.5,95.4c0,0-2.6,0.7-2.1,1.6L1062.5,95.4z"/>
<path class="st4" d="M1065,99.8c0,0-2.4,1.1-1.9,1.8L1065,99.8z"/>
<path class="st4" d="M1042.2,105.2c0,0,15.1-6.1,21.6,2.7C1063.8,107.8,1055.9,101.1,1042.2,105.2z"/>
<polygon class="st9" points="1036.8,155.5 1038.9,153.4 1044.8,159.3 1042.7,161.4 1037.2,156 "/>
<path class="st8" d="M1023,141.9c0,0,9.2,0.8,17.8,10.4l-3.6,3.6L1023,141.9z"/>
<path class="st6" d="M1050.6,159.1c0,0-8.8-3.2-9.7-4s-6,3.7,0.3,9.8c0,0,7.6,2.2,9.7,0S1050.6,159.1,1050.6,159.1z"/>
<rect x="1212.5" y="220.7" class="st13" width="1.8" height="40.5"/>
<path class="st14" d="M1225.6,261.1l-0.1,1.8l-0.2,2.6l-0.1,1.1l-0.2,2.6l-0.1,1.1l-0.2,2.6l-1.8,29.3c-0.2,2.6-2.3,4.6-4.9,4.6
	h-9.4c-2.6,0-4.8-2-4.9-4.6l-1.8-29.3l-0.2-2.6l-0.1-1.1l-0.2-2.6l-0.1-1.1l-0.2-2.6l-0.1-1.8c-0.1-1.4,1-2.6,2.4-2.7
	c0.1,0,0.1,0,0.2,0h19.3c1.4,0,2.6,1.1,2.6,2.6C1225.6,261,1225.6,261,1225.6,261.1z"/>
<polygon class="st15" points="1225.5,262.9 1225.3,265.5 1201.5,265.5 1201.3,262.9 "/>
<polygon class="st15" points="1225.3,266.5 1225.1,269.1 1201.7,269.1 1201.5,266.5 "/>
<polygon class="st15" points="1225,270.2 1224.9,272.8 1201.9,272.8 1201.8,270.2 "/>
<path class="st7" d="M1198.6,235.9c10.5,7.6,14.8,19.4,14.8,19.4s-12.6-0.4-23.1-8c-10.5-7.6-14.8-19.4-14.8-19.4
	S1188.1,228.3,1198.6,235.9z"/>
<path class="st16" d="M1175.5,227.9c0,0,13.1,7.3,17.3,13.3c4.2,6,20.6,14.1,20.6,14.1"/>
<path class="st7" d="M1205.3,220.6c5.7,4.1,8.1,10.6,8.1,10.6s-6.9-0.2-12.6-4.4s-8.1-10.6-8.1-10.6S1199.6,216.5,1205.3,220.6z"/>
<path class="st16" d="M1192.8,216.3c0,0,7.1,4,9.4,7.2s11.2,7.7,11.2,7.7"/>
<path class="st7" d="M1221.7,230.9c-6.5,7.2-7.9,16.6-7.9,16.6s9.2-2.3,15.8-9.5c6.5-7.2,7.9-16.6,7.9-16.6
	S1228.2,223.7,1221.7,230.9z"/>
<path class="st16" d="M1237.4,221.4c0,0-8.5,7.4-10.7,12.5c-2.2,5.1-13,13.6-13,13.6"/>
</svg>
