<?xml version="1.0" encoding="utf-8"?>
<!-- Generator: Adobe Illustrator 22.0.1, SVG Export Plug-In . SVG Version: 6.00 Build 0)  -->
<svg version="1.1" id="Layer_1" xmlns="http://www.w3.org/2000/svg" xmlns:xlink="http://www.w3.org/1999/xlink" x="0px" y="0px"
	 viewBox="0 0 1300 400" style="enable-background:new 0 0 1300 400;" xml:space="preserve">
<style type="text/css">
	.st0{fill:url(#SVGID_1_);stroke:#000000;stroke-width:1.6452;stroke-miterlimit:10;}
	.st1{opacity:0.1;fill:#0D8CD8;enable-background:new    ;}
	.st2{fill:none;stroke:#535461;stroke-width:0.678;stroke-miterlimit:10;}
	.st3{fill:#0D8CD8;}
	.st4{fill:#FC6681;}
	.st5{fill:url(#SVGID_2_);}
	.st6{fill:#555388;}
	.st7{fill:#603556;}
	.st8{opacity:0.1;enable-background:new    ;}
	.st9{fill:url(#SVGID_3_);}
	.st10{fill:#535461;}
	.st11{fill:#E2E2EC;}
	.st12{opacity:0.1;fill:none;stroke:#000000;stroke-width:0.678;stroke-miterlimit:10;enable-background:new    ;}
	.st13{fill:none;stroke:#E2E2EC;stroke-width:0.678;stroke-miterlimit:10;}
	.st14{fill:#C87486;}
	.st15{fill:none;}
	.st16{fill:#DFE5EE;}
	.st17{fill:#603456;}
</style>
<linearGradient id="SVGID_1_" gradientUnits="userSpaceOnUse" x1="0" y1="200" x2="217.1044" y2="200" gradientTransform="matrix(-5.9879 0 0 1 1300 0)">
	<stop  offset="0" style="stop-color:#007194"/>
	<stop  offset="1" style="stop-color:#41C1C9"/>
</linearGradient>
<rect class="st0" width="1300" height="400"/>
<path class="st1" d="M97.1,200c12.9,21.9,11.1,51.4,6.1,74.6c-1.7,7.8-3.6,15.9-1.9,24.7c2.1,10.7,9.3,19.2,16.4,24.2
	c13,9,27.7,9.1,38.2,0.2c9.1-7.7,14.9-21.3,24.2-28.6c15.5-12.2,37.3-4.1,56.3,7.9c13.5,8.5,28.3,19.3,40.5,13.6
	c8.6-4,13.7-15.6,16-28.4c1.1-6.1,1.7-12.9,4.4-17.5c1.6-2.8,3.8-4.6,6.2-6.1c21.3-13.6,50.7-1.2,71.1-16.6
	c13.8-10.4,21.4-32.3,23.5-55.9c2.2-23.6-0.5-48.9-3.7-73.9c-2.3-17.7-5.2-36.7-14.1-51.3c-9.4-15.4-23.9-22.5-36.4-21.4
	c-12.5,1.2-23.2,9.5-32.3,19.7c-11.4,12.8-21.7,29.2-36.7,33.1c-10.3,2.6-21.6-0.9-32.6-3c-18.4-3.5-36.4-3-54.3-2.2
	c-17.1,0.8-34.4,1.8-50.2,8c-11.2,4.4-19.7,13.8-30.2,19.8c-6.8,3.9-14.6,4.3-20.9,9.6c-7.8,6.5-14.4,18.7-10.9,34.3
	C79.1,179.8,90.3,188.4,97.1,200z"/>
<path class="st2" d="M343.8,269.2c0,0,22.6-37.5,16.3-71.1c-2.7-14.1-1-28.7,5.4-41.6c3-6.1,6.6-11.9,10.7-17.4"/>
<path class="st3" d="M372.2,117.9c-1.3,5,3.9,21.8,3.9,21.8s12.8-12.1,14.1-17c1.3-5-1.7-10.1-6.6-11.4
	C378.6,110,373.5,112.9,372.2,117.9L372.2,117.9L372.2,117.9z"/>
<path class="st3" d="M350.1,141.6c1.6,4.9,15.1,16.1,15.1,16.1s4.2-17.1,2.6-22c-1.5-4.9-6.8-7.6-11.7-6.1s-7.6,6.8-6.1,11.7
	C350,141.4,350,141.5,350.1,141.6L350.1,141.6z"/>
<path class="st3" d="M338.4,188.9c3.9,3.4,21.2,6.3,21.2,6.3s-5-16.9-8.9-20.3c-3.9-3.4-9.8-2.9-13.1,1
	C334.3,179.7,334.6,185.5,338.4,188.9L338.4,188.9z"/>
<path class="st3" d="M337.5,226.6c3.2,4,19.8,9.8,19.8,9.8s-2.1-17.5-5.3-21.5s-9.1-4.6-13.1-1.4C335,216.8,334.4,222.6,337.5,226.6
	z"/>
<path class="st3" d="M383.9,163.7c-4.5,2.5-22,1.8-22,1.8s8.4-15.4,12.9-18c4.4-2.6,10.1-1.2,12.8,3.2c2.6,4.4,1.2,10.1-3.2,12.8
	C384.1,163.5,384,163.6,383.9,163.7L383.9,163.7z"/>
<path class="st3" d="M382.4,207.8c-5,1.1-21.6-4.9-21.6-4.9s12.6-12.2,17.7-13.3c5-1.1,10,2.1,11.1,7.2S387.4,206.7,382.4,207.8
	L382.4,207.8z"/>
<path class="st3" d="M375,250.5c-4.8,1.9-22.1-1.2-22.1-1.2s10.4-14.2,15.2-16.1c4.8-1.7,10.2,0.8,11.9,5.6
	C381.6,243.4,379.5,248.5,375,250.5L375,250.5z"/>
<path class="st3" d="M372.2,117.9c-1.3,5,3.9,21.8,3.9,21.8s12.8-12.1,14.1-17c1.3-5-1.7-10.1-6.6-11.4
	C378.6,110,373.5,112.9,372.2,117.9L372.2,117.9L372.2,117.9z"/>
<path class="st3" d="M350.1,141.6c1.6,4.9,15.1,16.1,15.1,16.1s4.2-17.1,2.6-22c-1.5-4.9-6.8-7.6-11.7-6.1s-7.6,6.8-6.1,11.7
	C350,141.4,350,141.5,350.1,141.6L350.1,141.6z"/>
<path class="st4" d="M338.4,188.9c3.9,3.4,21.2,6.3,21.2,6.3s-5-16.9-8.9-20.3c-3.9-3.4-9.8-2.9-13.1,1
	C334.3,179.7,334.6,185.5,338.4,188.9L338.4,188.9z"/>
<path class="st4" d="M337.5,226.6c3.2,4,19.8,9.8,19.8,9.8s-2.1-17.5-5.3-21.5s-9.1-4.6-13.1-1.4C335,216.8,334.4,222.6,337.5,226.6
	z"/>
<path class="st3" d="M383.9,163.7c-4.5,2.5-22,1.8-22,1.8s8.4-15.4,12.9-18c4.4-2.6,10.1-1.2,12.8,3.2c2.6,4.4,1.2,10.1-3.2,12.8
	C384.1,163.5,384,163.6,383.9,163.7L383.9,163.7z"/>
<path class="st3" d="M382.4,207.8c-5,1.1-21.6-4.9-21.6-4.9s12.6-12.2,17.7-13.3c5-1.1,10,2.1,11.1,7.2S387.4,206.7,382.4,207.8
	L382.4,207.8z"/>
<path class="st3" d="M375,250.5c-4.8,1.9-22.1-1.2-22.1-1.2s10.4-14.2,15.2-16.1c4.8-1.7,10.2,0.8,11.9,5.6
	C381.6,243.4,379.5,248.5,375,250.5L375,250.5z"/>
<ellipse class="st1" cx="230.8" cy="273.5" rx="162.9" ry="11.2"/>
<linearGradient id="SVGID_2_" gradientUnits="userSpaceOnUse" x1="307.6617" y1="304.8772" x2="307.6617" y2="150.7417" gradientTransform="matrix(-5.9879 0 0 1 1968.6091 -29.85)">
	<stop  offset="0" style="stop-color:#808080;stop-opacity:0.25"/>
	<stop  offset="0.54" style="stop-color:#808080;stop-opacity:0.12"/>
	<stop  offset="1" style="stop-color:#808080;stop-opacity:0.1"/>
</linearGradient>
<path class="st5" d="M90.6,263.9c0,0,0.3-0.4,0.6-0.8h-0.1c0,0,4.8-12.1,3.8-17.2c-1.1-5.1,4.3-17.5,4.3-17.5s7.9-16.3,4.2-29.2
	c-0.4-1.5-0.8-3.1-1-4.7c-1.1-7.7-0.7-9.3,1.2-12.1l0.2-0.3c-0.2-0.2-0.4-0.5-0.5-0.8c-1.6-4.3,7.5-12.1,5.1-19.4
	c-2.2-6.7,3.6-20.6,4.5-22.6l0,0l0.1-0.2l0.3,0.1c0-1.7-0.7-3.4-1.9-4.7l-0.1-0.1c-0.8-0.7-1.8-1.3-2.5-2.1v-0.1
	c-0.1-0.1-0.2-0.1-0.2-0.2c-0.7-0.8-1.3-2-0.9-3c0.4-0.9,1.4-1.5,1.7-2.4c0.1-0.4,0.1-0.9,0.1-1.3c0.2-1.4,1.5-2.2,2.7-2.9
	c1.5-0.8,3.1-1.7,4.8-1.7c2.3,0,4.4,1.6,6.7,1.8c0.8,0.1,1.6,0,2.3,0.2c0.6,0.2,1.1,0.6,1.5,1c0.3,0.2,0.5,0.4,0.8,0.7
	c0.5,0.5,1,1.1,0.9,1.8c0,0.5-0.3,1-0.7,1.3c2.8,3.8,2,9.2-1.8,12c-0.4,0.3-0.8,0.6-1.3,0.8c0,0.2-0.1,0.4-0.1,0.6
	c-0.3,2.5-0.5,6.1,0.4,9c3.9,2,9.9,5.2,11,6.7c0.2,0.2,0.2,0.6,0.1,0.8c0,0.1,0,0.3,0,0.4c0.8,0.2,2,0,3.3-1.2
	c3.2-3,13.4-11.8,13.4-11.8s4.6-11.3,7.8-9.2c3.2,2.1-3.8,12.6-3.8,12.6l-15.3,16.4c0,0-0.5,3.5-6.2,1.6c-1.9-0.6-3.5-1.2-5-1.7
	l-0.3,0.3c1.3,7.4,1.9,17.3-2.8,20.3c-0.4,0.5-0.6,1-0.8,1.6c0,0.1,0,0.2,0.1,0.3c0.4,1.5,0.6,3,0.7,4.5c0.9,2,1.3,4.2,1.2,6.4
	l1.8,25.6c0,0,0.3,5.6-1.6,9.9c-1.9,4.3-7.8,25.8-3.8,27.4l-0.4,0.1c1.2,1.2,3.1,3,4.6,3.3c2.3,0.5,1.6,4-3.4,4.6s-5.6,0.5-9.1-2.4
	c-3.1-2.6-3.6-3.7-3.7-4h-0.2c0,0,1.9-7,0-9.9c-1.9-3,4.3-21,4.3-21c0.1-2.3,0-4.6-0.3-6.9c-0.9,2.5-1.6,4.2-1.6,4.2
	s-1.6,7.8-3.5,9.2s-11.8,19.9-10.2,28l0.2,0.9l-0.5-0.1l0,0c0.6,1.5,1.7,4,3,4.9c1.9,1.4,0,4.3-4.8,3s-5.4-1.6-7.5-5.6
	C90.3,265,90.6,263.9,90.6,263.9z"/>
<path class="st6" d="M126.2,192.1l1.2-1.5c1.2,2.2,1.8,4.8,1.7,7.3l1.8,25c0,0,0.3,5.5-1.6,9.7c-1.8,4.2-7.6,25.2-3.7,26.8
	l-11.8,1.6c0,0,1.8-6.8,0-9.7s4.2-20.5,4.2-20.5s0.5-14.7-4.5-18.1C108.5,209.3,126.2,192.1,126.2,192.1z"/>
<path class="st7" d="M124.2,258.5c0,0,3.2,3.8,5.4,4.3c2.2,0.5,1.6,3.9-3.3,4.5s-5.5,0.5-8.9-2.3c-3.4-2.9-3.6-3.9-3.6-3.9
	s0.7-2.5,1.5-2.6C116.2,258.4,124.2,258.5,124.2,258.5z"/>
<path class="st8" d="M125.4,192.9l2-2.2c1.2,2.2,1.8,4.8,1.7,7.3l1.8,25c0,0,0.3,5.5-1.6,9.7c-1.8,4.2-7.6,25.2-3.7,26.8l-11.8,1.6
	c0,0,1.8-6.8,0-9.7s4.2-20.5,4.2-20.5s0.5-14.7-4.5-18.1C108.5,209.3,125.4,192.9,125.4,192.9z"/>
<linearGradient id="SVGID_3_" gradientUnits="userSpaceOnUse" x1="288.8075" y1="304.8257" x2="288.8075" y2="140.2167" gradientTransform="matrix(-5.9879 0 0 1 1968.6091 -29.85)">
	<stop  offset="0" style="stop-color:#808080;stop-opacity:0.25"/>
	<stop  offset="0.54" style="stop-color:#808080;stop-opacity:0.12"/>
	<stop  offset="1" style="stop-color:#808080;stop-opacity:0.1"/>
</linearGradient>
<path class="st9" d="M113.7,227.2c0,0,3.3-64.5,16.8-87.3c0,0,9.9-18.1,18.2-23.3v-2.1c13.5-9.3,30.1,0,30.1,0v0.9l3.5,2.9l15.6-0.1
	c1.4-1.7,3.5-2.7,5.8-2.7h71c2.1,0,4.1,0.9,5.5,2.4h16.2c0,0,1-1.1,3.5-2.2v-1.2c13.5-9.3,30.1,0,30.1,0v2.5c0.4,0.3,0.7,0.6,1,1
	c0,0,13.7,9.2,16.8,20.6c0,0,16.8,50.3,17.1,89.7s-14.9,44.9-22.8,46c-7.9,1-22.1-0.3-36-35.3l-5.9-20.4c0,0-1-12.1-13.5-4.5
	c-12.5,7.6-23.5-4.1-23.5-4.1h-46.7c0,0-15.5,9.7-29.7,2c0,0-5.5-7.3-10.7,17.3c0,0-15.9,50.5-40.5,45.3
	C111,269.4,113.7,227.2,113.7,227.2z"/>
<path class="st10" d="M328.1,119.7V116c0,0-16.3-9.2-29.5,0v3.4L328.1,119.7z"/>
<path class="st10" d="M179.9,119.7V116c0,0-16.3-9.2-29.5,0v3.4L179.9,119.7z"/>
<path class="st8" d="M328.1,119.7V116c0,0-16.3-9.2-29.5,0v3.4L328.1,119.7z"/>
<path class="st8" d="M179.9,119.7V116c0,0-16.3-9.2-29.5,0v3.4L179.9,119.7z"/>
<path class="st10" d="M279.2,119.4h15.9c0,0,4.1-4.7,17.6-4.4c13.6,0.3,16.3,4.4,16.3,4.4s13.4,9,16.4,20.2c0,0,16.4,49.3,16.8,88
	c0.3,38.6-14.6,44.1-22.4,45.1c-7.8,1-21.7-0.3-35.3-34.6l-5.8-20c0,0-1-11.9-13.2-4.4c-12.2,7.5-23.1-4.1-23.1-4.1h-45.8
	c0,0-15.3,9.5-29.2,2c0,0-5.4-7.1-10.5,16.9c0,0-15.6,49.5-39.7,44.4s-21.4-46.4-21.4-46.4s3.2-63.2,16.4-85.6
	c0,0,12.7-23.2,21.2-24.2c0,0,18.3-3.4,25.4-0.3l4.1,3.4L279.2,119.4z"/>
<circle class="st11" cx="316.2" cy="152.6" r="29.5"/>
<circle class="st11" cx="162.3" cy="152.6" r="29.5"/>
<path class="st10" d="M311,146l3.9,3.5c0.7,0.6,1.7,0.6,2.4,0l3.9-3.5c0.4-0.3,0.6-0.8,0.6-1.4V135c0-1-0.8-1.8-1.8-1.8h-7.9
	c-1,0-1.8,0.8-1.8,1.8l0,0v9.6C310.4,145.2,310.7,145.7,311,146z"/>
<path class="st10" d="M311,159.2l3.9-3.5c0.7-0.6,1.7-0.6,2.4,0l3.9,3.5c0.4,0.3,0.6,0.8,0.6,1.4v9.6c0,1-0.8,1.8-1.8,1.8l0,0h-7.9
	c-1,0-1.8-0.8-1.8-1.8l0,0v-9.6C310.4,160,310.7,159.5,311,159.2z"/>
<path class="st10" d="M322.8,157.8l-3.5-3.9c-0.6-0.7-0.6-1.7,0-2.4l3.5-3.9c0.3-0.4,0.8-0.6,1.4-0.6h9.6c1,0,1.8,0.8,1.8,1.8v7.9
	c0,1-0.8,1.8-1.8,1.8l0,0h-9.6C323.6,158.4,323.1,158.2,322.8,157.8z"/>
<path class="st10" d="M309.6,157.8l3.5-3.9c0.6-0.7,0.6-1.7,0-2.4l-3.5-3.9c-0.3-0.4-0.8-0.6-1.4-0.6h-9.6c-1,0-1.8,0.8-1.8,1.8l0,0
	v7.9c0,1,0.8,1.8,1.8,1.8l0,0h9.6C308.8,158.4,309.3,158.2,309.6,157.8z"/>
<polygon class="st2" points="321.3,130.9 311.1,130.9 316.2,126.5 "/>
<polygon class="st2" points="321.3,174.3 311.1,174.3 316.2,178.7 "/>
<polygon class="st2" points="337.9,147.5 337.9,157.7 342.3,152.6 "/>
<polygon class="st2" points="294.5,147.5 294.5,157.7 290.1,152.6 "/>
<ellipse transform="matrix(0.9239 -0.3827 0.3827 0.9239 -49.6954 119.7642)" class="st11" cx="276.2" cy="184.8" rx="21.4" ry="21.4"/>
<ellipse transform="matrix(0.9732 -0.2298 0.2298 0.9732 -34.2698 68.4712)" class="st10" cx="276.9" cy="181.4" rx="14.2" ry="14.2"/>
<circle class="st11" cx="202.3" cy="184.8" r="21.4"/>
<circle class="st10" cx="203" cy="181.4" r="14.2"/>
<circle class="st12" cx="276.9" cy="181.4" r="9.5"/>
<circle class="st12" cx="203" cy="181.4" r="9.5"/>
<circle class="st11" cx="238.6" cy="187.2" r="6.1"/>
<circle class="st11" cx="247.9" cy="166.8" r="1.3"/>
<circle class="st11" cx="242.9" cy="166.8" r="1.3"/>
<circle class="st11" cx="243.6" cy="173.2" r="1.3"/>
<circle class="st11" cx="238.9" cy="173.3" r="1.4"/>
<circle class="st11" cx="234.2" cy="173.2" r="1.3"/>
<circle class="st11" cx="245.6" cy="170.2" r="1.3"/>
<circle class="st11" cx="241.3" cy="170.2" r="1.4"/>
<circle class="st11" cx="236.9" cy="170.2" r="1.4"/>
<circle class="st11" cx="232.2" cy="170.2" r="1.3"/>
<circle class="st11" cx="238.9" cy="166.9" r="1.4"/>
<circle class="st11" cx="234.1" cy="166.9" r="1.4"/>
<circle class="st11" cx="230.2" cy="166.8" r="1.3"/>
<path class="st11" d="M289.2,121.8h-1.7c-1.6,0-2.9,1.3-2.9,2.9v7.1c0,1.6,1.3,2.9,2.9,2.9h1.7c1.6,0,2.9-1.3,2.9-2.9v-7.1
	C292.1,123.1,290.8,121.8,289.2,121.8z"/>
<path class="st11" d="M190.2,121.8h-1.7c-1.6,0-2.9,1.3-2.9,2.9v7.1c0,1.6,1.3,2.9,2.9,2.9h1.7c1.6,0,2.9-1.3,2.9-2.9v-7.1
	C193.1,123.1,191.8,121.8,190.2,121.8z"/>
<circle class="st10" cx="161.9" cy="134.7" r="8.1"/>
<circle class="st10" cx="179.2" cy="151.9" r="8.1"/>
<circle class="st10" cx="144" cy="150.9" r="8.1"/>
<circle class="st10" cx="160.6" cy="168.9" r="8.1"/>
<path class="st11" d="M273.9,117h-69.7c-4.1,0-7.4,3.3-7.4,7.4v30.3c0,4.1,3.3,7.4,7.4,7.4h69.7c4.1,0,7.4-3.3,7.4-7.4v-30.3
	C281.3,120.3,278,117,273.9,117z"/>
<polygon class="st13" points="166.9,138 162.1,129.9 157,138 "/>
<rect x="175" y="148.2" class="st13" width="8.5" height="7.5"/>
<circle class="st13" cx="144" cy="150.9" r="4.7"/>
<line class="st13" x1="164.5" y1="165.1" x2="156.9" y2="172.7"/>
<line class="st13" x1="156.7" y1="165.1" x2="164.5" y2="172.5"/>
<path class="st3" d="M282.4,270.8c-1-0.8-2-1.7-2.3-2.8c-0.3-1.2,0.4-2.5,1.6-2.9c1.5-0.5,3,0.4,4.2,1.2c1.2,0.8,2.5,1.8,4.1,1.6
	c-1.6-1.2-2.4-3.1-1.9-4.7c0.1-0.4,0.3-0.7,0.5-1c0.8-0.7,2.3-0.4,3.3,0.2c3.1,1.8,3.9,5.2,4,8.3c0.3-1.1,0-2.3,0.1-3.4
	c0-1.1,0.4-2.4,1.6-3c0.8-0.3,1.6-0.5,2.4-0.5c1.4,0,2.9,0.1,3.9,0.9c1.2,1,0.9,2.8-0.2,3.9s-2.6,1.8-4,2.6
	c-1.1,0.6-2.2,1.3-2.9,2.2c-0.1,0.1-0.2,0.3-0.2,0.4h-8.7C285.8,273,284,272,282.4,270.8z"/>
<path class="st7" d="M101.9,264c0,0,1.6,4.7,3.4,6s0,4.2-4.7,2.9c-4.7-1.3-5.3-1.6-7.4-5.5s-1.8-5-1.8-5s1.6-2.1,2.4-1.8
	C94.5,260.8,101.9,264,101.9,264z"/>
<path class="st14" d="M111.6,146c0,0,21.3,11.8,16.3,8.4c-3.4-2.3-3.2-8.4-2.7-12.1c0.2-1.2,0.3-2.1,0.5-2.6
	c0.1-0.3,0.1-0.5,0.1-0.5s-10.3-6.2-9.7-2.5l0,0v0.1c0,0.2,0.1,0.5,0.1,0.8C116.3,141.4,111.6,146,111.6,146z"/>
<path class="st14" d="M134.8,157.5c0,0,1.8,2.9,5,0s13.1-11.6,13.1-11.6s4.5-11,7.6-8.9s-3.7,12.4-3.7,12.4l-15,16
	c0,0-0.5,3.4-6,1.6c-5.5-1.8-9.5-3.4-9.5-3.4L134.8,157.5z"/>
<path class="st15" d="M126.4,184.3"/>
<path class="st6" d="M91.9,261.6l10.5,3.7l0.4,0.1l-0.2-0.9c-1.6-7.9,8.1-26,10-27.3s3.4-8.9,3.4-8.9s3.4-17.3,4-21
	c0.1-0.9,0.6-1.7,1.2-2.7c0.9-1.5,1.6-3.2,2-4.9c1.2-4.1,3.9-11.3,2.9-15.4c-0.2-0.8,0.6,1.3,0.3,0.5l-0.2-0.4l-21.3-2.9
	c-0.4,0.4-0.7,0.9-1,1.3c-1.6,2.4-1.5,2.4-1.8,6.9c0.1,2.7,0.5,5.5,1.2,8.1c2.9,12.8-3.6,29.8-3.6,29.8s-5.3,12.1-4.2,17.1
	C96.6,249.8,91.9,261.6,91.9,261.6z"/>
<path class="st8" d="M104.1,182.8c3.1,3.9,23.3,7,23.1,5.8c-0.1-0.4,0-0.9,0.1-1.3c-0.2-0.8-0.4-1.7-0.7-2.5l-0.2-0.4l-21.3-2.9
	C104.7,181.9,104.4,182.3,104.1,182.8z"/>
<path class="st16" d="M113.2,140.4c0,0,8.7,2.6,11.1,8.7c2.4,6-1.8,6.4-1.8,6.4s7.5,19.7,5.5,29.9c0,0-1.1,1.3-0.8,2.6
	c0.3,1.3-21.8-2.1-23.4-6.3s7.4-11.8,5-18.9C106.4,155.7,113.2,140.4,113.2,140.4z"/>
<path class="st8" d="M116.1,137.3c0,0.1,0,0.2,0.1,0.2c0.4,0.7,1.5-0.1,1.1,1c1.5,1.5,2,4.6,4.3,4.6c1.3,0,2.5-0.3,3.7-0.8
	c0.2-1.2,0.3-2.1,0.5-2.6c-1-0.6-9.2-5.3-9.6-2.9l0,0C116,136.9,116.1,137.1,116.1,137.3z"/>
<circle class="st14" cx="121.6" cy="134.1" r="8.4"/>
<path class="st8" d="M113.2,161l14.7,6.8c0,0,10-7.6,8.4-9.7c-1.6-2.1-13.9-8.1-13.9-8.1S109.8,152.5,113.2,161z"/>
<path class="st16" d="M113.2,160.4l14.7,6.8c0,0,10-7.6,8.4-9.7c-1.6-2.1-13.9-8.1-13.9-8.1S109.8,152,113.2,160.4z"/>
<path class="st8" d="M124.1,130.5c1.3-0.1,2.6-0.3,3.7-0.9c0.6-0.4,1.2-1,1.3-1.7c0-0.9-0.7-1.6-1.4-2.1c-0.4-0.4-1-0.7-1.5-1
	c-0.7-0.3-1.5-0.2-2.3-0.2c-2.3-0.2-4.3-1.7-6.6-1.7c-1.7,0-3.2,0.9-4.7,1.7c-1.2,0.7-2.5,1.5-2.6,2.8c0,0.4,0,0.9-0.1,1.3
	c-0.2,0.9-1.3,1.5-1.6,2.4c-0.4,1,0.1,2.1,0.8,2.9c0.7,0.8,1.7,1.3,2.5,2c1.4,1.3,2.2,3.2,2.2,5.2c0,0.1,0,0.3,0.1,0.4
	c0.1,0.1,0.3,0.2,0.5,0.2c0.8,0.2,1.9,0.2,2.4-0.5s0.1-1.8,0.7-2.5c0.7-0.9,2.3-0.2,3.2-0.8c0.3-0.2,0.6-0.5,0.7-0.9
	c0.8-1.8-0.1-3.1-0.5-4.8C120.5,130.3,122.7,130.7,124.1,130.5z"/>
<path class="st17" d="M123.8,130.3c1.3-0.1,2.6-0.3,3.7-0.9c0.6-0.4,1.2-1,1.3-1.7c0-0.9-0.7-1.6-1.4-2.1c-0.4-0.4-1-0.7-1.5-1
	c-0.7-0.3-1.5-0.2-2.3-0.2c-2.3-0.2-4.3-1.7-6.6-1.7c-1.7,0-3.2,0.9-4.7,1.7c-1.2,0.7-2.5,1.5-2.6,2.8c0,0.4,0,0.9-0.1,1.3
	c-0.2,0.9-1.3,1.5-1.6,2.4c-0.4,1,0.1,2.1,0.8,2.9c0.7,0.8,1.7,1.3,2.5,2c1.4,1.3,2.3,3.2,2.2,5.2c0,0.1,0,0.3,0.1,0.4
	c0.1,0.1,0.3,0.2,0.5,0.2c0.8,0.2,1.9,0.2,2.4-0.5s0.1-1.8,0.7-2.5c0.7-0.9,2.3-0.2,3.2-0.8c0.3-0.2,0.6-0.5,0.7-0.9
	c0.8-1.8-0.1-3.1-0.5-4.8C120.2,130.1,122.4,130.4,123.8,130.3z"/>
</svg>
