<?xml version="1.0" encoding="utf-8"?>
<!-- Generator: Adobe Illustrator 22.0.1, SVG Export Plug-In . SVG Version: 6.00 Build 0)  -->
<svg version="1.1" id="Layer_1" xmlns="http://www.w3.org/2000/svg" xmlns:xlink="http://www.w3.org/1999/xlink" x="0px" y="0px"
	 viewBox="0 0 1300 400" style="enable-background:new 0 0 1300 400;" xml:space="preserve">
<style type="text/css">
	.st0{fill:url(#SVGID_1_);stroke:#000000;stroke-width:1.6452;stroke-miterlimit:10;}
	.st1{fill:none;stroke:#535461;stroke-width:0.6852;stroke-miterlimit:10;}
	.st2{fill:#0D8CD8;}
	.st3{fill:#53A8D3;}
	.st4{fill:#FC6681;}
	.st5{opacity:0.1;fill:#8BBFD8;enable-background:new    ;}
	.st6{fill:url(#SVGID_2_);}
	.st7{fill:#555388;}
	.st8{fill:#D3D3D3;}
	.st9{opacity:0.1;enable-background:new    ;}
	.st10{fill:url(#SVGID_3_);}
	.st11{fill:#535461;}
	.st12{fill:#E2E2EC;}
	.st13{opacity:0.1;fill:none;stroke:#000000;stroke-width:0.6852;stroke-miterlimit:10;enable-background:new    ;}
	.st14{fill:none;stroke:#E2E2EC;stroke-width:0.6852;stroke-miterlimit:10;}
	.st15{fill:#C87486;}
	.st16{fill:none;}
	.st17{fill:#B6B6B7;}
	.st18{fill:#DFE5EE;}
	.st19{fill:#3D3D3D;}
</style>
<linearGradient id="SVGID_1_" gradientUnits="userSpaceOnUse" x1="2403.6426" y1="201.4" x2="2600" y2="201.4" gradientTransform="matrix(6.6206 0 0 1 -15913.5137 0)">
	<stop  offset="0" style="stop-color:#00354D"/>
	<stop  offset="0.4129" style="stop-color:#00364F"/>
	<stop  offset="0.5616" style="stop-color:#003C56"/>
	<stop  offset="0.6676" style="stop-color:#004561"/>
	<stop  offset="0.7534" style="stop-color:#005272"/>
	<stop  offset="0.8268" style="stop-color:#006388"/>
	<stop  offset="0.8918" style="stop-color:#0078A4"/>
	<stop  offset="0.9492" style="stop-color:#0091C3"/>
	<stop  offset="1" style="stop-color:#00ACE6"/>
	<stop  offset="1" style="stop-color:#0093C7"/>
	<stop  offset="1" style="stop-color:#0075A3"/>
	<stop  offset="1" style="stop-color:#005B83"/>
	<stop  offset="1" style="stop-color:#004567"/>
	<stop  offset="1" style="stop-color:#003351"/>
	<stop  offset="1" style="stop-color:#002540"/>
	<stop  offset="1" style="stop-color:#001B35"/>
	<stop  offset="1" style="stop-color:#00162E"/>
	<stop  offset="1" style="stop-color:#00142C"/>
</linearGradient>
<rect y="1.4" class="st0" width="1300" height="400"/>
<path class="st1" d="M325.7,273.8c0,0,22.9-37.9,16.4-71.8c-2.7-14.3-1-29,5.4-42c3-6.2,6.6-12.1,10.8-17.6"/>
<path class="st2" d="M354.5,121c-1.3,5,4,22,4,22s12.9-12.2,14.3-17.2c1.3-5-1.7-10.2-6.7-11.5C360.9,112.9,355.8,115.9,354.5,121
	L354.5,121L354.5,121z"/>
<path class="st2" d="M332.1,144.8c1.6,4.9,15.3,16.3,15.3,16.3s4.2-17.3,2.6-22.2c-1.5-5-6.9-7.7-11.8-6.2c-5,1.5-7.7,6.9-6.2,11.8
	C332,144.7,332.1,144.8,332.1,144.8L332.1,144.8z"/>
<path class="st2" d="M320.3,192.6c3.9,3.4,21.4,6.4,21.4,6.4s-5.1-17-8.9-20.5c-3.9-3.4-9.9-2.9-13.3,1
	C316.1,183.4,316.5,189.2,320.3,192.6L320.3,192.6z"/>
<path class="st2" d="M319.4,230.8c3.3,4,20,9.9,20,9.9s-2.1-17.6-5.4-21.7c-3.3-4-9.2-4.7-13.3-1.4
	C316.9,220.9,316.2,226.7,319.4,230.8z"/>
<path class="st2" d="M366.2,167.2c-4.5,2.6-22.3,1.8-22.3,1.8s8.5-15.6,13-18.2c4.5-2.7,10.2-1.2,12.9,3.3s1.2,10.2-3.3,12.9
	C366.5,167,366.4,167.1,366.2,167.2L366.2,167.2z"/>
<path class="st2" d="M364.7,211.8c-5.1,1.1-21.8-5-21.8-5s12.8-12.4,17.8-13.4c5.1-1.1,10.1,2.2,11.2,7.2S369.8,210.7,364.7,211.8
	L364.7,211.8z"/>
<path class="st2" d="M357.3,254.9c-4.8,1.9-22.3-1.2-22.3-1.2s10.5-14.3,15.3-16.3c4.9-1.7,10.3,0.8,12,5.7
	C364,247.8,361.8,252.9,357.3,254.9L357.3,254.9z"/>
<path class="st3" d="M354.5,121c-1.3,5,4,22,4,22s12.9-12.2,14.3-17.2c1.3-5-1.7-10.2-6.7-11.5C360.9,112.9,355.8,115.9,354.5,121
	L354.5,121L354.5,121z"/>
<path class="st3" d="M332.1,144.8c1.6,4.9,15.3,16.3,15.3,16.3s4.2-17.3,2.6-22.2c-1.5-5-6.9-7.7-11.8-6.2c-5,1.5-7.7,6.9-6.2,11.8
	C332,144.7,332.1,144.8,332.1,144.8L332.1,144.8z"/>
<path class="st4" d="M320.3,192.6c3.9,3.4,21.4,6.4,21.4,6.4s-5.1-17-8.9-20.5c-3.9-3.4-9.9-2.9-13.3,1
	C316.1,183.4,316.5,189.2,320.3,192.6L320.3,192.6z"/>
<path class="st4" d="M319.4,230.8c3.3,4,20,9.9,20,9.9s-2.1-17.6-5.4-21.7c-3.3-4-9.2-4.7-13.3-1.4
	C316.9,220.9,316.2,226.7,319.4,230.8z"/>
<path class="st3" d="M366.2,167.2c-4.5,2.6-22.3,1.8-22.3,1.8s8.5-15.6,13-18.2c4.5-2.7,10.2-1.2,12.9,3.3s1.2,10.2-3.3,12.9
	C366.5,167,366.4,167.1,366.2,167.2L366.2,167.2z"/>
<path class="st3" d="M364.7,211.8c-5.1,1.1-21.8-5-21.8-5s12.8-12.4,17.8-13.4c5.1-1.1,10.1,2.2,11.2,7.2S369.8,210.7,364.7,211.8
	L364.7,211.8z"/>
<path class="st3" d="M357.3,254.9c-4.8,1.9-22.3-1.2-22.3-1.2s10.5-14.3,15.3-16.3c4.9-1.7,10.3,0.8,12,5.7
	C364,247.8,361.8,252.9,357.3,254.9L357.3,254.9z"/>
<ellipse class="st5" cx="211.5" cy="278.1" rx="164.6" ry="11.3"/>
<linearGradient id="SVGID_2_" gradientUnits="userSpaceOnUse" x1="291.9867" y1="530.3314" x2="291.9867" y2="686.2147" gradientTransform="matrix(-6.6206 0 0 -1 2039.2543 810.15)">
	<stop  offset="0" style="stop-color:#808080;stop-opacity:0.25"/>
	<stop  offset="0.54" style="stop-color:#808080;stop-opacity:0.12"/>
	<stop  offset="1" style="stop-color:#808080;stop-opacity:0.1"/>
</linearGradient>
<path class="st6" d="M69.9,268.4c0,0,0.3-0.4,0.7-0.8h-0.1c0,0,4.9-12.2,3.8-17.4s4.4-17.6,4.4-17.6s8-16.4,4.2-29.5
	c-0.4-1.5-0.8-3.1-1-4.7c-1.1-7.8-0.7-9.4,1.2-12.2l0.2-0.3c-0.2-0.2-0.4-0.5-0.5-0.8c-1.6-4.4,7.6-12.2,5.1-19.6
	c-2.3-6.8,3.6-20.8,4.5-22.9l0,0l0.1-0.2l0.3,0.1c0-1.7-0.8-3.4-2-4.7l-0.1-0.1c-0.8-0.8-1.8-1.3-2.6-2.1l0,0
	c-0.1-0.1-0.2-0.1-0.2-0.2c-0.8-0.8-1.3-2-0.9-3c0.4-0.9,1.4-1.5,1.7-2.5c0.1-0.4,0.1-0.9,0.1-1.3c0.2-1.4,1.5-2.2,2.7-2.9
	c1.5-0.9,3.1-1.7,4.8-1.7c2.4,0,4.5,1.6,6.8,1.8c0.8,0.1,1.6,0,2.4,0.2c0.6,0.2,1.1,0.6,1.6,1c0.3,0.2,0.5,0.4,0.8,0.7
	c0.5,0.5,1,1.1,1,1.8c0,0.5-0.3,1-0.7,1.3c2.8,3.9,2,9.3-1.8,12.2c-0.4,0.3-0.9,0.5-1.3,0.8c0,0.2-0.1,0.4-0.1,0.6
	c-0.3,2.6-0.5,6.2,0.4,9.1c3.9,2,10,5.3,11.1,6.7c0.2,0.2,0.2,0.5,0.1,0.9c0,0.1,0,0.3,0,0.4c0.9,0.2,2,0,3.4-1.3
	c3.3-3,13.6-12,13.6-12s4.6-11.4,7.9-9.2s-3.8,12.8-3.8,12.8l-15.5,16.6c0,0-0.5,3.5-6.2,1.6c-1.9-0.6-3.6-1.2-5-1.7l-0.3,0.3
	c1.3,7.5,2,17.5-2.8,20.5c-0.4,0.5-0.7,1.1-0.8,1.6c0,0.1,0,0.2,0.1,0.3c0.4,1.5,0.6,3,0.7,4.6c0.9,2.1,1.3,4.2,1.2,6.5l1.8,25.9
	c0,0,0.3,5.7-1.6,10c-1.9,4.4-7.9,26.1-3.8,27.7l-0.4,0.1c1.2,1.2,3.2,3,4.6,3.4c2.3,0.5,1.6,4-3.4,4.6s-5.7,0.5-9.2-2.4
	c-3.1-2.6-3.6-3.8-3.7-4h-0.2c0,0,1.9-7.1,0-10c-1.9-3,4.4-21.2,4.4-21.2c0.1-2.3,0-4.7-0.3-7c-1,2.5-1.6,4.2-1.6,4.2
	s-1.6,7.9-3.5,9.2c-1.9,1.4-12,20.1-10.3,28.3l0.2,1l-0.4-0.1l0,0c0.6,1.5,1.8,4,3,4.9c1.9,1.4,0,4.4-4.9,3s-5.4-1.6-7.6-5.7
	C69.6,269.6,69.9,268.4,69.9,268.4z"/>
<path class="st7" d="M105.9,195.9l1.2-1.5c1.2,2.3,1.8,4.8,1.7,7.4l1.8,25.3c0,0,0.3,5.6-1.6,9.8s-7.7,25.5-3.7,27.1l-11.9,1.6
	c0,0,1.8-6.9,0-9.8c-1.8-2.9,4.2-20.7,4.2-20.7s0.5-14.9-4.5-18.3C87.9,213.3,105.9,195.9,105.9,195.9z"/>
<path class="st8" d="M103.9,263c0,0,3.3,3.8,5.5,4.4c2.2,0.5,1.6,3.9-3.3,4.5s-5.5,0.5-9-2.4s-3.6-4-3.6-4s0.7-2.6,1.5-2.6
	S103.9,263,103.9,263z"/>
<path class="st9" d="M105.1,196.7l2-2.3c1.2,2.3,1.8,4.8,1.7,7.4l1.8,25.3c0,0,0.3,5.6-1.6,9.8s-7.7,25.5-3.7,27.1l-11.9,1.6
	c0,0,1.8-6.9,0-9.8c-1.8-2.9,4.2-20.7,4.2-20.7s0.5-14.9-4.5-18.3C87.9,213.3,105.1,196.7,105.1,196.7z"/>
<linearGradient id="SVGID_3_" gradientUnits="userSpaceOnUse" x1="274.7641" y1="530.4777" x2="274.7641" y2="696.9277" gradientTransform="matrix(-6.6206 0 0 -1 2039.2543 810.15)">
	<stop  offset="0" style="stop-color:#808080;stop-opacity:0.25"/>
	<stop  offset="0.54" style="stop-color:#808080;stop-opacity:0.12"/>
	<stop  offset="1" style="stop-color:#808080;stop-opacity:0.1"/>
</linearGradient>
<path class="st10" d="M93.3,231.4c0,0,3.3-65.2,17-88.2c0,0,10-18.3,18.3-23.6v-2.1c13.6-9.4,30.4,0,30.4,0v0.9l3.5,2.9l15.7-0.1
	c1.4-1.7,3.6-2.7,5.9-2.7h71.8c2.1,0,4.1,0.9,5.6,2.4h16.3c0,0,1-1.1,3.5-2.3v-1.2c13.6-9.4,30.4,0,30.4,0v2.5
	c0.4,0.3,0.8,0.6,1.1,1c0,0,13.8,9.2,17,20.8c0,0,17,50.8,17.3,90.7s-15,45.4-23.1,46.5c-8,1.1-22.4-0.3-36.3-35.6l-5.9-20.6
	c0,0-1.1-12.2-13.6-4.6c-12.6,7.7-23.7-4.2-23.7-4.2h-47.2c0,0-15.7,9.8-30,2.1c0,0-5.6-7.3-10.8,17.5c0,0-16.1,51-40.9,45.8
	C90.5,274,93.3,231.4,93.3,231.4z"/>
<path class="st11" d="M309.8,122.8V119c0,0-16.4-9.2-29.8,0v3.4L309.8,122.8z"/>
<path class="st11" d="M160.1,122.8V119c0,0-16.4-9.2-29.8,0v3.4L160.1,122.8z"/>
<path class="st9" d="M309.8,122.8V119c0,0-16.4-9.2-29.8,0v3.4L309.8,122.8z"/>
<path class="st9" d="M160.1,122.8V119c0,0-16.4-9.2-29.8,0v3.4L160.1,122.8z"/>
<path class="st11" d="M260.5,122.4h16.1c0,0,4.1-4.8,17.8-4.5s16.4,4.5,16.4,4.5s13.5,9.1,16.6,20.4c0,0,16.6,49.8,17,88.9
	s-14.7,44.5-22.6,45.6s-21.9-0.3-35.6-34.9l-5.8-20.2c0,0-1-12-13.4-4.5c-12.3,7.5-23.3-4.1-23.3-4.1h-46.2c0,0-15.4,9.6-29.5,2.1
	c0,0-5.5-7.2-10.6,17.1c0,0-15.8,50-40.1,44.9s-21.6-46.9-21.6-46.9s3.3-63.9,16.6-86.5c0,0,12.8-23.5,21.4-24.5
	c0,0,18.5-3.4,25.7-0.3l4.1,3.4L260.5,122.4z"/>
<circle class="st12" cx="297.8" cy="156" r="29.8"/>
<circle class="st12" cx="142.3" cy="156" r="29.8"/>
<path class="st11" d="M292.7,149.4l4,3.5c0.7,0.6,1.7,0.6,2.4,0l4-3.5c0.4-0.3,0.6-0.9,0.6-1.4v-9.7c0-1-0.8-1.8-1.8-1.8H294
	c-1,0-1.8,0.8-1.8,1.8l0,0v9.7C292,148.5,292.3,149,292.7,149.4z"/>
<path class="st11" d="M292.7,162.6l4-3.5c0.7-0.6,1.7-0.6,2.4,0l4,3.5c0.4,0.3,0.6,0.9,0.6,1.4v9.7c0,1-0.8,1.8-1.8,1.8l0,0H294
	c-1,0-1.8-0.8-1.8-1.8l0,0V164C292,163.5,292.3,163,292.7,162.6z"/>
<path class="st11" d="M304.5,161.2l-3.5-4c-0.6-0.7-0.6-1.7,0-2.4l3.5-4c0.3-0.4,0.9-0.6,1.4-0.6h9.7c1,0,1.8,0.8,1.8,1.8v7.9
	c0,1-0.8,1.8-1.8,1.8l0,0h-9.7C305.3,161.8,304.8,161.6,304.5,161.2z"/>
<path class="st11" d="M291.2,161.2l3.5-4c0.6-0.7,0.6-1.7,0-2.4l-3.5-4c-0.3-0.4-0.9-0.6-1.4-0.6h-9.7c-1,0-1.8,0.8-1.8,1.8l0,0v7.9
	c0,1,0.8,1.8,1.8,1.8l0,0h9.7C290.3,161.8,290.9,161.6,291.2,161.2z"/>
<polygon class="st1" points="303,134.1 292.7,134.1 297.8,129.6 "/>
<polygon class="st1" points="303,177.9 292.7,177.9 297.8,182.4 "/>
<polygon class="st1" points="319.8,150.9 319.8,161.1 324.2,156 "/>
<polygon class="st1" points="275.9,150.9 275.9,161.1 271.5,156 "/>
<circle class="st12" cx="257.4" cy="188.5" r="21.6"/>
<circle class="st11" cx="258.1" cy="185.1" r="14.4"/>
<circle class="st12" cx="182.7" cy="188.5" r="21.6"/>
<circle class="st11" cx="183.4" cy="185.1" r="14.4"/>
<circle class="st13" cx="258.1" cy="185.1" r="9.6"/>
<circle class="st13" cx="183.4" cy="185.1" r="9.6"/>
<circle class="st12" cx="219.4" cy="190.9" r="6.2"/>
<circle class="st12" cx="228.8" cy="170.4" r="1.3"/>
<circle class="st12" cx="223.8" cy="170.4" r="1.3"/>
<circle class="st12" cx="224.5" cy="176.7" r="1.3"/>
<circle class="st12" cx="219.7" cy="176.9" r="1.4"/>
<circle class="st12" cx="215" cy="176.7" r="1.3"/>
<circle class="st12" cx="226.5" cy="173.7" r="1.3"/>
<circle class="st12" cx="222.1" cy="173.8" r="1.4"/>
<circle class="st12" cx="217.7" cy="173.8" r="1.4"/>
<circle class="st12" cx="213" cy="173.7" r="1.3"/>
<circle class="st12" cx="219.7" cy="170.4" r="1.4"/>
<circle class="st12" cx="214.9" cy="170.4" r="1.4"/>
<circle class="st12" cx="211" cy="170.4" r="1.3"/>
<path class="st12" d="M270.6,124.8h-1.7c-1.6,0-2.9,1.3-2.9,2.9v7.2c0,1.6,1.3,2.9,2.9,2.9h1.7c1.6,0,2.9-1.3,2.9-2.9v-7.2
	C273.5,126.1,272.2,124.8,270.6,124.8z"/>
<path class="st12" d="M170.6,124.8h-1.7c-1.6,0-2.9,1.3-2.9,2.9v7.2c0,1.6,1.3,2.9,2.9,2.9h1.7c1.6,0,2.9-1.3,2.9-2.9v-7.2
	C173.5,126.1,172.2,124.8,170.6,124.8z"/>
<circle class="st11" cx="142" cy="137.8" r="8.2"/>
<circle class="st11" cx="159.4" cy="155.3" r="8.2"/>
<circle class="st11" cx="123.8" cy="154.3" r="8.2"/>
<circle class="st11" cx="140.6" cy="172.4" r="8.2"/>
<path class="st12" d="M255.1,120h-70.4c-4.1,0-7.5,3.3-7.5,7.5v30.7c0,4.1,3.3,7.5,7.5,7.5h70.4c4.1,0,7.5-3.3,7.5-7.5v-30.7
	C262.6,123.4,259.2,120,255.1,120z"/>
<polygon class="st14" points="146.9,141.3 142.1,133 137,141.3 "/>
<rect x="155.1" y="151.5" class="st14" width="8.6" height="7.5"/>
<circle class="st14" cx="123.8" cy="154.3" r="4.8"/>
<line class="st14" x1="144.5" y1="168.6" x2="136.8" y2="176.3"/>
<line class="st14" x1="136.7" y1="168.6" x2="144.5" y2="176.1"/>
<path class="st3" d="M263.7,275.4c-1-0.8-2-1.7-2.3-2.8c-0.3-1.2,0.4-2.5,1.6-2.9c1.5-0.4,3,0.4,4.2,1.2c1.2,0.8,2.6,1.8,4.1,1.6
	c-1.6-1.2-2.4-3.1-2-4.8c0.1-0.4,0.3-0.7,0.5-1c0.8-0.7,2.3-0.4,3.3,0.2c3.1,1.8,4,5.2,4,8.4c0.3-1.1,0-2.3,0.1-3.5
	c0-1.2,0.4-2.4,1.6-3c0.8-0.3,1.6-0.5,2.4-0.4c1.4,0,3,0.1,3.9,0.9c1.2,1,0.9,2.8-0.2,3.9c-1.1,1.2-2.6,1.8-4.1,2.7
	c-1.1,0.6-2.2,1.3-2.9,2.3c-0.1,0.1-0.2,0.3-0.2,0.4h-8.8C267.2,277.7,265.3,276.7,263.7,275.4z"/>
<path class="st8" d="M81.3,268.5c0,0,1.6,4.8,3.5,6.1c1.8,1.3,0,4.2-4.8,2.9c-4.8-1.3-5.3-1.6-7.4-5.6s-1.8-5-1.8-5s1.6-2.1,2.4-1.8
	C73.9,265.4,81.3,268.5,81.3,268.5z"/>
<path class="st15" d="M91.1,149.3c0,0,21.5,12,16.5,8.5c-3.4-2.3-3.2-8.5-2.7-12.3c0.2-1.2,0.3-2.1,0.4-2.7c0.1-0.3,0.1-0.5,0.1-0.5
	s-10.4-6.3-9.9-2.5l0,0v0.1c0,0.2,0.1,0.5,0.1,0.8C95.8,144.6,91.1,149.3,91.1,149.3z"/>
<path class="st15" d="M114.5,161c0,0,1.8,2.9,5,0s13.3-11.7,13.3-11.7s4.5-11.2,7.7-9c3.2,2.1-3.7,12.5-3.7,12.5L121.7,169
	c0,0-0.5,3.5-6.1,1.6s-9.6-3.5-9.6-3.5L114.5,161z"/>
<path class="st16" d="M106,188.1"/>
<path class="st17" d="M71.2,266.2l10.6,3.7l0.4,0.1l-0.2-0.9c-1.6-8,8.2-26.3,10.1-27.6s3.5-9,3.5-9s3.5-17.5,4-21.2
	c0.1-0.9,0.6-1.7,1.2-2.7c0.9-1.5,1.6-3.2,2.1-4.9c1.2-4.1,3.9-11.4,2.9-15.6c-0.2-0.9,0.6,1.3,0.3,0.5l-0.2-0.4l-21.5-2.9
	c-0.3,0.4-0.7,0.9-1,1.4c-1.6,2.4-1.5,2.4-1.8,7c0.1,2.8,0.5,5.5,1.2,8.2c2.9,12.9-3.6,30.1-3.6,30.1s-5.3,12.2-4.2,17.3
	C76,254.2,71.2,266.2,71.2,266.2z"/>
<path class="st9" d="M83.5,186.5c3.2,4,23.6,7.1,23.3,5.8c-0.1-0.4,0-0.9,0.1-1.3c-0.2-0.9-0.4-1.7-0.7-2.5l-0.2-0.4l-21.5-2.9
	C84.1,185.6,83.8,186,83.5,186.5z"/>
<path class="st18" d="M92.7,143.7c0,0,8.8,2.7,11.2,8.8s-1.8,6.4-1.8,6.4s7.5,19.9,5.5,30.2c0,0-1.1,1.3-0.8,2.7
	c0.3,1.3-22.1-2.1-23.6-6.4c-1.6-4.2,7.4-12,5-19.1C85.8,159.1,92.7,143.7,92.7,143.7z"/>
<path class="st9" d="M95.7,140.5c0,0.1,0,0.2,0.1,0.2c0.4,0.7,1.5-0.1,1.1,1c1.5,1.5,2,4.7,4.4,4.7c1.3,0,2.5-0.3,3.7-0.9
	c0.2-1.2,0.3-2.1,0.4-2.7c-1-0.6-9.2-5.4-9.7-3l0,0C95.6,140.1,95.6,140.3,95.7,140.5z"/>
<circle class="st15" cx="101.2" cy="137.3" r="8.5"/>
<path class="st9" d="M92.7,164.4l14.9,6.9c0,0,10.1-7.7,8.5-9.8s-14.1-8.2-14.1-8.2S89.3,155.9,92.7,164.4z"/>
<path class="st18" d="M92.7,163.9l14.9,6.9c0,0,10.1-7.7,8.5-9.8s-14.1-8.2-14.1-8.2S89.3,155.4,92.7,163.9z"/>
<path class="st9" d="M103.7,133.7c1.3-0.1,2.6-0.3,3.8-0.9c0.7-0.4,1.3-1,1.3-1.7c0-0.9-0.7-1.6-1.4-2.2c-0.4-0.4-1-0.8-1.5-1
	c-0.8-0.3-1.5-0.2-2.3-0.2c-2.3-0.2-4.4-1.7-6.6-1.7c-1.7,0-3.3,0.9-4.7,1.7c-1.2,0.7-2.5,1.5-2.7,2.8c0,0.4,0,0.9-0.1,1.3
	c-0.2,1-1.3,1.5-1.6,2.4c-0.4,1,0.1,2.2,0.9,2.9c0.8,0.8,1.7,1.3,2.5,2.1c1.5,1.4,2.3,3.3,2.2,5.2c0,0.1,0,0.3,0.1,0.4
	c0.1,0.1,0.3,0.2,0.5,0.2c0.9,0.2,1.9,0.2,2.4-0.4c0.5-0.7,0.1-1.8,0.7-2.6c0.8-0.9,2.3-0.2,3.3-0.8c0.3-0.2,0.6-0.5,0.8-0.9
	c0.8-1.8-0.1-3.2-0.4-4.9C100.1,133.5,102.3,133.8,103.7,133.7z"/>
<path class="st19" d="M103.4,133.4c1.3-0.1,2.6-0.3,3.8-0.9c0.7-0.4,1.3-1,1.3-1.7c0-0.9-0.7-1.6-1.4-2.2c-0.4-0.4-1-0.8-1.5-1
	c-0.8-0.3-1.5-0.2-2.3-0.2c-2.3-0.2-4.4-1.7-6.6-1.7c-1.7,0-3.3,0.9-4.7,1.7c-1.2,0.7-2.5,1.5-2.7,2.8c0,0.4,0,0.9-0.1,1.3
	c-0.2,1-1.3,1.5-1.6,2.4c-0.4,1,0.1,2.2,0.9,2.9c0.8,0.8,1.7,1.3,2.5,2.1c1.5,1.4,2.3,3.3,2.2,5.3c0,0.1,0,0.3,0.1,0.4
	c0.1,0.1,0.3,0.2,0.5,0.2c0.9,0.2,1.9,0.2,2.4-0.4c0.5-0.7,0.1-1.8,0.7-2.6c0.8-0.9,2.3-0.2,3.3-0.8c0.3-0.2,0.6-0.5,0.8-0.9
	c0.8-1.8-0.1-3.2-0.4-4.9C99.8,133.2,102,133.6,103.4,133.4z"/>
</svg>
