<?xml version="1.0" encoding="utf-8"?>
<!-- Generator: Adobe Illustrator 22.0.1, SVG Export Plug-In . SVG Version: 6.00 Build 0)  -->
<svg version="1.1" id="Layer_1" xmlns="http://www.w3.org/2000/svg" xmlns:xlink="http://www.w3.org/1999/xlink" x="0px" y="0px"
	 viewBox="0 0 1300 400" style="enable-background:new 0 0 1300 400;" xml:space="preserve">
<style type="text/css">
	.st0{fill:url(#SVGID_1_);stroke:#000000;stroke-width:1.6452;stroke-miterlimit:10;}
	.st1{fill:none;stroke:#535461;stroke-width:0.6852;stroke-miterlimit:10;}
	.st2{fill:#0D8CD8;}
	.st3{fill:#53A8D3;}
	.st4{fill:#FC6681;}
	.st5{opacity:0.1;fill:#8BBFD8;enable-background:new    ;}
	.st6{fill:url(#SVGID_2_);}
	.st7{fill:#555388;}
	.st8{fill:#D3D3D3;}
	.st9{opacity:0.1;enable-background:new    ;}
	.st10{fill:url(#SVGID_3_);}
	.st11{fill:#535461;}
	.st12{fill:#E2E2EC;}
	.st13{opacity:0.1;fill:none;stroke:#000000;stroke-width:0.6852;stroke-miterlimit:10;enable-background:new    ;}
	.st14{fill:none;stroke:#E2E2EC;stroke-width:0.6852;stroke-miterlimit:10;}
	.st15{fill:#C87486;}
	.st16{fill:none;}
	.st17{fill:#B6B6B7;}
	.st18{fill:#DFE5EE;}
	.st19{fill:#3D3D3D;}
</style>
<linearGradient id="SVGID_1_" gradientUnits="userSpaceOnUse" x1="650" y1="198.6453" x2="1950" y2="198.6453" gradientTransform="matrix(-1 0 0 -1 1950 400)">
	<stop  offset="0" style="stop-color:#00354D"/>
	<stop  offset="0.4129" style="stop-color:#00364F"/>
	<stop  offset="0.5616" style="stop-color:#003C56"/>
	<stop  offset="0.6676" style="stop-color:#004561"/>
	<stop  offset="0.7534" style="stop-color:#005272"/>
	<stop  offset="0.8268" style="stop-color:#006388"/>
	<stop  offset="0.8918" style="stop-color:#0078A4"/>
	<stop  offset="0.9492" style="stop-color:#0091C3"/>
	<stop  offset="1" style="stop-color:#00ACE6"/>
	<stop  offset="1" style="stop-color:#0093C7"/>
	<stop  offset="1" style="stop-color:#0075A3"/>
	<stop  offset="1" style="stop-color:#005B83"/>
	<stop  offset="1" style="stop-color:#004567"/>
	<stop  offset="1" style="stop-color:#003351"/>
	<stop  offset="1" style="stop-color:#002540"/>
	<stop  offset="1" style="stop-color:#001B35"/>
	<stop  offset="1" style="stop-color:#00162E"/>
	<stop  offset="1" style="stop-color:#00142C"/>
</linearGradient>
<rect x="0" y="1.4" class="st0" width="1300" height="400"/>
<path class="st1" d="M974.3,273.8c0,0-22.9-37.9-16.4-71.8c2.7-14.3,1-29-5.4-42c-3-6.2-6.6-12.1-10.8-17.6"/>
<path class="st2" d="M945.5,121c1.3,5-4,22-4,22s-12.9-12.2-14.3-17.2c-1.3-5,1.7-10.2,6.7-11.5C939.1,112.9,944.2,115.9,945.5,121
	L945.5,121L945.5,121z"/>
<path class="st2" d="M967.9,144.8c-1.6,4.9-15.3,16.3-15.3,16.3s-4.2-17.3-2.6-22.2c1.5-5,6.9-7.7,11.8-6.2c5,1.5,7.7,6.9,6.2,11.8
	C968,144.7,967.9,144.8,967.9,144.8L967.9,144.8z"/>
<path class="st2" d="M979.7,192.6c-3.9,3.4-21.4,6.4-21.4,6.4s5.1-17,8.9-20.5c3.9-3.4,9.9-2.9,13.3,1
	C983.9,183.4,983.5,189.2,979.7,192.6L979.7,192.6z"/>
<path class="st2" d="M980.6,230.8c-3.3,4-20,9.9-20,9.9s2.1-17.6,5.4-21.7c3.3-4,9.2-4.7,13.3-1.4
	C983.1,220.9,983.8,226.7,980.6,230.8z"/>
<path class="st2" d="M933.8,167.2c4.5,2.6,22.3,1.8,22.3,1.8s-8.5-15.6-13-18.2c-4.5-2.7-10.2-1.2-12.9,3.3
	c-2.7,4.5-1.2,10.2,3.3,12.9C933.5,167,933.6,167.1,933.8,167.2L933.8,167.2z"/>
<path class="st2" d="M935.3,211.8c5.1,1.1,21.8-5,21.8-5s-12.8-12.4-17.8-13.4c-5.1-1.1-10.1,2.2-11.2,7.2S930.2,210.7,935.3,211.8
	L935.3,211.8z"/>
<path class="st2" d="M942.7,254.9c4.8,1.9,22.3-1.2,22.3-1.2s-10.5-14.3-15.3-16.3c-4.9-1.7-10.3,0.8-12,5.7
	C936,247.8,938.2,252.9,942.7,254.9L942.7,254.9z"/>
<path class="st3" d="M945.5,121c1.3,5-4,22-4,22s-12.9-12.2-14.3-17.2c-1.3-5,1.7-10.2,6.7-11.5C939.1,112.9,944.2,115.9,945.5,121
	L945.5,121L945.5,121z"/>
<path class="st3" d="M967.9,144.8c-1.6,4.9-15.3,16.3-15.3,16.3s-4.2-17.3-2.6-22.2c1.5-5,6.9-7.7,11.8-6.2c5,1.5,7.7,6.9,6.2,11.8
	C968,144.7,967.9,144.8,967.9,144.8L967.9,144.8z"/>
<path class="st4" d="M979.7,192.6c-3.9,3.4-21.4,6.4-21.4,6.4s5.1-17,8.9-20.5c3.9-3.4,9.9-2.9,13.3,1
	C983.9,183.4,983.5,189.2,979.7,192.6L979.7,192.6z"/>
<path class="st4" d="M980.6,230.8c-3.3,4-20,9.9-20,9.9s2.1-17.6,5.4-21.7c3.3-4,9.2-4.7,13.3-1.4
	C983.1,220.9,983.8,226.7,980.6,230.8z"/>
<path class="st3" d="M933.8,167.2c4.5,2.6,22.3,1.8,22.3,1.8s-8.5-15.6-13-18.2c-4.5-2.7-10.2-1.2-12.9,3.3
	c-2.7,4.5-1.2,10.2,3.3,12.9C933.5,167,933.6,167.1,933.8,167.2L933.8,167.2z"/>
<path class="st3" d="M935.3,211.8c5.1,1.1,21.8-5,21.8-5s-12.8-12.4-17.8-13.4c-5.1-1.1-10.1,2.2-11.2,7.2S930.2,210.7,935.3,211.8
	L935.3,211.8z"/>
<path class="st3" d="M942.7,254.9c4.8,1.9,22.3-1.2,22.3-1.2s-10.5-14.3-15.3-16.3c-4.9-1.7-10.3,0.8-12,5.7
	C936,247.8,938.2,252.9,942.7,254.9L942.7,254.9z"/>
<ellipse class="st5" cx="1088.5" cy="278.1" rx="164.6" ry="11.3"/>
<linearGradient id="SVGID_2_" gradientUnits="userSpaceOnUse" x1="1305.646" y1="-130.3314" x2="1305.646" y2="-286.2147" gradientTransform="matrix(1 0 0 1 -111.66 410.15)">
	<stop  offset="0" style="stop-color:#808080;stop-opacity:0.25"/>
	<stop  offset="0.54" style="stop-color:#808080;stop-opacity:0.12"/>
	<stop  offset="1" style="stop-color:#808080;stop-opacity:0.1"/>
</linearGradient>
<path class="st6" d="M1230.1,268.4c0,0-0.3-0.4-0.7-0.8l0.1,0c0,0-4.9-12.2-3.8-17.4c1.1-5.2-4.4-17.6-4.4-17.6s-8-16.4-4.2-29.5
	c0.4-1.5,0.8-3.1,1-4.7c1.1-7.8,0.7-9.4-1.2-12.2l-0.2-0.3c0.2-0.2,0.4-0.5,0.5-0.8c1.6-4.4-7.6-12.2-5.1-19.6
	c2.3-6.8-3.6-20.8-4.5-22.9l0,0l-0.1-0.2l-0.3,0.1c0-1.7,0.8-3.4,2-4.7l0.1-0.1c0.8-0.8,1.8-1.3,2.6-2.1l0,0
	c0.1-0.1,0.2-0.1,0.2-0.2c0.8-0.8,1.3-2,0.9-3c-0.4-0.9-1.4-1.5-1.7-2.5c-0.1-0.4-0.1-0.9-0.1-1.3c-0.2-1.4-1.5-2.2-2.7-2.9
	c-1.5-0.9-3.1-1.7-4.8-1.7c-2.4,0-4.5,1.6-6.8,1.8c-0.8,0.1-1.6,0-2.4,0.2c-0.6,0.2-1.1,0.6-1.6,1c-0.3,0.2-0.5,0.4-0.8,0.7
	c-0.5,0.5-1,1.1-1,1.8c0,0.5,0.3,1,0.7,1.3c-2.8,3.9-2,9.3,1.8,12.2c0.4,0.3,0.9,0.5,1.3,0.8c0,0.2,0.1,0.4,0.1,0.6
	c0.3,2.6,0.5,6.2-0.4,9.1c-3.9,2-10,5.3-11.1,6.7c-0.2,0.2-0.2,0.5-0.1,0.9c0,0.1,0,0.3,0,0.4c-0.9,0.2-2,0-3.4-1.3
	c-3.3-3-13.6-12-13.6-12s-4.6-11.4-7.9-9.2s3.8,12.8,3.8,12.8l15.5,16.6c0,0,0.5,3.5,6.2,1.6c1.9-0.6,3.6-1.2,5-1.7l0.3,0.3
	c-1.3,7.5-2,17.5,2.8,20.5c0.4,0.5,0.7,1.1,0.8,1.6c0,0.1,0,0.2-0.1,0.3c-0.4,1.5-0.6,3-0.7,4.6c-0.9,2.1-1.3,4.2-1.2,6.5l-1.8,25.9
	c0,0-0.3,5.7,1.6,10c1.9,4.4,7.9,26.1,3.8,27.7l0.4,0.1c-1.2,1.2-3.2,3-4.6,3.4c-2.3,0.5-1.6,4,3.4,4.6c5,0.6,5.7,0.5,9.2-2.4
	c3.1-2.6,3.6-3.8,3.7-4l0.2,0c0,0-1.9-7.1,0-10c1.9-3-4.4-21.2-4.4-21.2c-0.1-2.3,0-4.7,0.3-7c1,2.5,1.6,4.2,1.6,4.2
	s1.6,7.9,3.5,9.2c1.9,1.4,12,20.1,10.3,28.3l-0.2,1l0.4-0.1h0c-0.6,1.5-1.8,4-3,4.9c-1.9,1.4,0,4.4,4.9,3c4.9-1.4,5.4-1.6,7.6-5.7
	C1230.4,269.6,1230.1,268.4,1230.1,268.4z"/>
<path class="st7" d="M1194.1,195.9l-1.2-1.5c-1.2,2.3-1.8,4.8-1.7,7.4l-1.8,25.3c0,0-0.3,5.6,1.6,9.8s7.7,25.5,3.7,27.1l11.9,1.6
	c0,0-1.8-6.9,0-9.8c1.8-2.9-4.2-20.7-4.2-20.7s-0.5-14.9,4.5-18.3C1212.1,213.3,1194.1,195.9,1194.1,195.9z"/>
<path class="st8" d="M1196.1,263c0,0-3.3,3.8-5.5,4.4c-2.2,0.5-1.6,3.9,3.3,4.5c4.9,0.6,5.5,0.5,9-2.4s3.6-4,3.6-4s-0.7-2.6-1.5-2.6
	C1204.2,262.9,1196.1,263,1196.1,263z"/>
<path class="st9" d="M1194.9,196.7l-2-2.3c-1.2,2.3-1.8,4.8-1.7,7.4l-1.8,25.3c0,0-0.3,5.6,1.6,9.8c1.9,4.2,7.7,25.5,3.7,27.1
	l11.9,1.6c0,0-1.8-6.9,0-9.8c1.8-2.9-4.2-20.7-4.2-20.7s-0.5-14.9,4.5-18.3C1212.1,213.3,1194.9,196.7,1194.9,196.7z"/>
<linearGradient id="SVGID_3_" gradientUnits="userSpaceOnUse" x1="1191.6042" y1="-130.5451" x2="1191.6042" y2="-296.8766" gradientTransform="matrix(1 0 0 1 -111.66 410.15)">
	<stop  offset="0" style="stop-color:#808080;stop-opacity:0.25"/>
	<stop  offset="0.54" style="stop-color:#808080;stop-opacity:0.12"/>
	<stop  offset="1" style="stop-color:#808080;stop-opacity:0.1"/>
</linearGradient>
<path class="st10" d="M1206.7,231.4c0,0-3.3-65.2-17-88.2c0,0-10-18.3-18.3-23.6v-2.1c-13.6-9.4-30.4,0-30.4,0v0.9l-3.5,2.9
	l-15.7-0.1c-1.4-1.7-3.6-2.7-5.9-2.7h-71.8c-2.1,0-4.1,0.9-5.6,2.4h-16.3c0,0-1-1.1-3.5-2.3v-1.2c-13.6-9.4-30.4,0-30.4,0v2.5
	c-0.4,0.3-0.8,0.6-1.1,1c0,0-13.8,9.2-17,20.8c0,0-17,50.8-17.3,90.7s15,45.4,23.1,46.5c8,1.1,22.4-0.3,36.3-35.6l5.9-20.6
	c0,0,1.1-12.2,13.6-4.6c12.6,7.7,23.7-4.2,23.7-4.2h47.2c0,0,15.7,9.8,30,2.1c0,0,5.6-7.3,10.8,17.5c0,0,16.1,51,40.9,45.8
	C1209.5,274,1206.7,231.4,1206.7,231.4z"/>
<path class="st11" d="M990.2,122.8V119c0,0,16.4-9.2,29.8,0v3.4L990.2,122.8z"/>
<path class="st11" d="M1139.9,122.8V119c0,0,16.4-9.2,29.8,0v3.4L1139.9,122.8z"/>
<path class="st9" d="M990.2,122.8V119c0,0,16.4-9.2,29.8,0v3.4L990.2,122.8z"/>
<path class="st9" d="M1139.9,122.8V119c0,0,16.4-9.2,29.8,0v3.4L1139.9,122.8z"/>
<path class="st11" d="M1039.5,122.4h-16.1c0,0-4.1-4.8-17.8-4.5c-13.7,0.3-16.4,4.5-16.4,4.5s-13.5,9.1-16.6,20.4
	c0,0-16.6,49.8-17,88.9s14.7,44.5,22.6,45.6s21.9-0.3,35.6-34.9l5.8-20.2c0,0,1-12,13.4-4.5c12.3,7.5,23.3-4.1,23.3-4.1h46.2
	c0,0,15.4,9.6,29.5,2.1c0,0,5.5-7.2,10.6,17.1c0,0,15.8,50,40.1,44.9s21.6-46.9,21.6-46.9s-3.3-63.9-16.6-86.5
	c0,0-12.8-23.5-21.4-24.5c0,0-18.5-3.4-25.7-0.3l-4.1,3.4L1039.5,122.4z"/>
<circle class="st12" cx="1002.2" cy="156" r="29.8"/>
<circle class="st12" cx="1157.7" cy="156" r="29.8"/>
<path class="st11" d="M1007.3,149.4l-4,3.5c-0.7,0.6-1.7,0.6-2.4,0l-4-3.5c-0.4-0.3-0.6-0.9-0.6-1.4v-9.7c0-1,0.8-1.8,1.8-1.8h7.9
	c1,0,1.8,0.8,1.8,1.8l0,0v9.7C1008,148.5,1007.7,149,1007.3,149.4z"/>
<path class="st11" d="M1007.3,162.6l-4-3.5c-0.7-0.6-1.7-0.6-2.4,0l-4,3.5c-0.4,0.3-0.6,0.9-0.6,1.4v9.7c0,1,0.8,1.8,1.8,1.8l0,0
	h7.9c1,0,1.8-0.8,1.8-1.8l0,0V164C1008,163.5,1007.7,163,1007.3,162.6z"/>
<path class="st11" d="M995.5,161.2l3.5-4c0.6-0.7,0.6-1.7,0-2.4l-3.5-4c-0.3-0.4-0.9-0.6-1.4-0.6h-9.7c-1,0-1.8,0.8-1.8,1.8v7.9
	c0,1,0.8,1.8,1.8,1.8l0,0h9.7C994.7,161.8,995.2,161.6,995.5,161.2z"/>
<path class="st11" d="M1008.8,161.2l-3.5-4c-0.6-0.7-0.6-1.7,0-2.4l3.5-4c0.3-0.4,0.9-0.6,1.4-0.6h9.7c1,0,1.8,0.8,1.8,1.8l0,0v7.9
	c0,1-0.8,1.8-1.8,1.8l0,0h-9.7C1009.7,161.8,1009.1,161.6,1008.8,161.2z"/>
<polygon class="st1" points="997,134.1 1007.3,134.1 1002.2,129.6 "/>
<polygon class="st1" points="997,177.9 1007.3,177.9 1002.2,182.4 "/>
<polygon class="st1" points="980.2,150.9 980.2,161.1 975.8,156 "/>
<polygon class="st1" points="1024.1,150.9 1024.1,161.1 1028.5,156 "/>
<circle class="st12" cx="1042.6" cy="188.5" r="21.6"/>
<circle class="st11" cx="1041.9" cy="185.1" r="14.4"/>
<circle class="st12" cx="1117.3" cy="188.5" r="21.6"/>
<circle class="st11" cx="1116.6" cy="185.1" r="14.4"/>
<circle class="st13" cx="1041.9" cy="185.1" r="9.6"/>
<circle class="st13" cx="1116.6" cy="185.1" r="9.6"/>
<circle class="st12" cx="1080.6" cy="190.9" r="6.2"/>
<circle class="st12" cx="1071.2" cy="170.4" r="1.3"/>
<circle class="st12" cx="1076.2" cy="170.4" r="1.3"/>
<circle class="st12" cx="1075.5" cy="176.7" r="1.3"/>
<circle class="st12" cx="1080.3" cy="176.9" r="1.4"/>
<circle class="st12" cx="1085" cy="176.7" r="1.3"/>
<circle class="st12" cx="1073.5" cy="173.7" r="1.3"/>
<circle class="st12" cx="1077.9" cy="173.8" r="1.4"/>
<circle class="st12" cx="1082.3" cy="173.8" r="1.4"/>
<circle class="st12" cx="1087" cy="173.7" r="1.3"/>
<circle class="st12" cx="1080.3" cy="170.4" r="1.4"/>
<circle class="st12" cx="1085.1" cy="170.4" r="1.4"/>
<circle class="st12" cx="1089" cy="170.4" r="1.3"/>
<path class="st12" d="M1029.4,124.8h1.7c1.6,0,2.9,1.3,2.9,2.9v7.2c0,1.6-1.3,2.9-2.9,2.9h-1.7c-1.6,0-2.9-1.3-2.9-2.9v-7.2
	C1026.5,126.1,1027.8,124.8,1029.4,124.8z"/>
<path class="st12" d="M1129.4,124.8h1.7c1.6,0,2.9,1.3,2.9,2.9v7.2c0,1.6-1.3,2.9-2.9,2.9h-1.7c-1.6,0-2.9-1.3-2.9-2.9v-7.2
	C1126.5,126.1,1127.8,124.8,1129.4,124.8z"/>
<circle class="st11" cx="1158" cy="137.8" r="8.2"/>
<circle class="st11" cx="1140.6" cy="155.3" r="8.2"/>
<circle class="st11" cx="1176.2" cy="154.3" r="8.2"/>
<circle class="st11" cx="1159.4" cy="172.4" r="8.2"/>
<path class="st12" d="M1044.9,120h70.4c4.1,0,7.5,3.3,7.5,7.5v30.7c0,4.1-3.3,7.5-7.5,7.5h-70.4c-4.1,0-7.5-3.3-7.5-7.5v-30.7
	C1037.4,123.4,1040.8,120,1044.9,120z"/>
<polygon class="st14" points="1153.1,141.3 1157.9,133 1163,141.3 "/>
<rect x="1136.3" y="151.5" class="st14" width="8.6" height="7.5"/>
<circle class="st14" cx="1176.2" cy="154.3" r="4.8"/>
<line class="st14" x1="1155.5" y1="168.6" x2="1163.2" y2="176.3"/>
<line class="st14" x1="1163.3" y1="168.6" x2="1155.5" y2="176.1"/>
<path class="st3" d="M1036.3,275.4c1-0.8,2-1.7,2.3-2.8c0.3-1.2-0.4-2.5-1.6-2.9c-1.5-0.4-3,0.4-4.2,1.2c-1.2,0.8-2.6,1.8-4.1,1.6
	c1.6-1.2,2.4-3.1,2-4.8c-0.1-0.4-0.3-0.7-0.5-1c-0.8-0.7-2.3-0.4-3.3,0.2c-3.1,1.8-4,5.2-4,8.4c-0.3-1.1,0-2.3-0.1-3.5
	c0-1.2-0.4-2.4-1.6-3c-0.8-0.3-1.6-0.5-2.4-0.4c-1.4,0-3,0.1-3.9,0.9c-1.2,1-0.9,2.8,0.2,3.9c1.1,1.2,2.6,1.8,4.1,2.7
	c1.1,0.6,2.2,1.3,2.9,2.3c0.1,0.1,0.2,0.3,0.2,0.4h8.8C1032.8,277.7,1034.7,276.7,1036.3,275.4z"/>
<path class="st8" d="M1218.7,268.5c0,0-1.6,4.8-3.5,6.1c-1.8,1.3,0,4.2,4.8,2.9c4.8-1.3,5.3-1.6,7.4-5.6c2.1-4,1.8-5,1.8-5
	s-1.6-2.1-2.4-1.8C1226.1,265.4,1218.7,268.5,1218.7,268.5z"/>
<path class="st15" d="M1208.9,149.3c0,0-21.5,12-16.5,8.5c3.4-2.3,3.2-8.5,2.7-12.3c-0.2-1.2-0.3-2.1-0.4-2.7
	c-0.1-0.3-0.1-0.5-0.1-0.5s10.4-6.3,9.9-2.5l0,0c0,0,0,0.1,0,0.1c0,0.2-0.1,0.5-0.1,0.8C1204.2,144.6,1208.9,149.3,1208.9,149.3z"/>
<path class="st15" d="M1185.5,161c0,0-1.8,2.9-5,0c-3.2-2.9-13.3-11.7-13.3-11.7s-4.5-11.2-7.7-9c-3.2,2.1,3.7,12.5,3.7,12.5
	l15.1,16.2c0,0,0.5,3.5,6.1,1.6c5.6-1.9,9.6-3.5,9.6-3.5L1185.5,161z"/>
<path class="st16" d="M1194,188.1"/>
<path class="st17" d="M1228.8,266.2l-10.6,3.7l-0.4,0.1l0.2-0.9c1.6-8-8.2-26.3-10.1-27.6c-1.9-1.3-3.5-9-3.5-9s-3.5-17.5-4-21.2
	c-0.1-0.9-0.6-1.7-1.2-2.7c-0.9-1.5-1.6-3.2-2.1-4.9c-1.2-4.1-3.9-11.4-2.9-15.6c0.2-0.9-0.6,1.3-0.3,0.5l0.2-0.4l21.5-2.9
	c0.3,0.4,0.7,0.9,1,1.4c1.6,2.4,1.5,2.4,1.8,7c-0.1,2.8-0.5,5.5-1.2,8.2c-2.9,12.9,3.6,30.1,3.6,30.1s5.3,12.2,4.2,17.3
	C1224,254.2,1228.8,266.2,1228.8,266.2z"/>
<path class="st9" d="M1216.5,186.5c-3.2,4-23.6,7.1-23.3,5.8c0.1-0.4,0-0.9-0.1-1.3c0.2-0.9,0.4-1.7,0.7-2.5l0.2-0.4l21.5-2.9
	C1215.9,185.6,1216.2,186,1216.5,186.5z"/>
<path class="st18" d="M1207.3,143.7c0,0-8.8,2.7-11.2,8.8s1.8,6.4,1.8,6.4s-7.5,19.9-5.5,30.2c0,0,1.1,1.3,0.8,2.7
	c-0.3,1.3,22.1-2.1,23.6-6.4c1.6-4.2-7.4-12-5-19.1C1214.2,159.1,1207.3,143.7,1207.3,143.7z"/>
<path class="st9" d="M1204.3,140.5c0,0.1,0,0.2-0.1,0.2c-0.4,0.7-1.5-0.1-1.1,1c-1.5,1.5-2,4.7-4.4,4.7c-1.3,0-2.5-0.3-3.7-0.9
	c-0.2-1.2-0.3-2.1-0.4-2.7c1-0.6,9.2-5.4,9.7-3l0,0C1204.4,140.1,1204.4,140.3,1204.3,140.5z"/>
<circle class="st15" cx="1198.8" cy="137.3" r="8.5"/>
<path class="st9" d="M1207.3,164.4l-14.9,6.9c0,0-10.1-7.7-8.5-9.8c1.6-2.1,14.1-8.2,14.1-8.2S1210.7,155.9,1207.3,164.4z"/>
<path class="st18" d="M1207.3,163.9l-14.9,6.9c0,0-10.1-7.7-8.5-9.8c1.6-2.1,14.1-8.2,14.1-8.2S1210.7,155.4,1207.3,163.9z"/>
<path class="st9" d="M1196.3,133.7c-1.3-0.1-2.6-0.3-3.8-0.9c-0.7-0.4-1.3-1-1.3-1.7c0-0.9,0.7-1.6,1.4-2.2c0.4-0.4,1-0.8,1.5-1
	c0.8-0.3,1.5-0.2,2.3-0.2c2.3-0.2,4.4-1.7,6.6-1.7c1.7,0,3.3,0.9,4.7,1.7c1.2,0.7,2.5,1.5,2.7,2.8c0,0.4,0,0.9,0.1,1.3
	c0.2,1,1.3,1.5,1.6,2.4c0.4,1-0.1,2.2-0.9,2.9c-0.8,0.8-1.7,1.3-2.5,2.1c-1.5,1.4-2.3,3.3-2.2,5.2c0,0.1,0,0.3-0.1,0.4
	c-0.1,0.1-0.3,0.2-0.5,0.2c-0.9,0.2-1.9,0.2-2.4-0.4c-0.5-0.7-0.1-1.8-0.7-2.6c-0.8-0.9-2.3-0.2-3.3-0.8c-0.3-0.2-0.6-0.5-0.8-0.9
	c-0.8-1.8,0.1-3.2,0.4-4.9C1199.9,133.5,1197.7,133.8,1196.3,133.7z"/>
<path class="st19" d="M1196.6,133.4c-1.3-0.1-2.6-0.3-3.8-0.9c-0.7-0.4-1.3-1-1.3-1.7c0-0.9,0.7-1.6,1.4-2.2c0.4-0.4,1-0.8,1.5-1
	c0.8-0.3,1.5-0.2,2.3-0.2c2.3-0.2,4.4-1.7,6.6-1.7c1.7,0,3.3,0.9,4.7,1.7c1.2,0.7,2.5,1.5,2.7,2.8c0,0.4,0,0.9,0.1,1.3
	c0.2,1,1.3,1.5,1.6,2.4c0.4,1-0.1,2.2-0.9,2.9c-0.8,0.8-1.7,1.3-2.5,2.1c-1.5,1.4-2.3,3.3-2.2,5.3c0,0.1,0,0.3-0.1,0.4
	c-0.1,0.1-0.3,0.2-0.5,0.2c-0.9,0.2-1.9,0.2-2.4-0.4c-0.5-0.7-0.1-1.8-0.7-2.6c-0.8-0.9-2.3-0.2-3.3-0.8c-0.3-0.2-0.6-0.5-0.8-0.9
	c-0.8-1.8,0.1-3.2,0.4-4.9C1200.2,133.2,1198,133.6,1196.6,133.4z"/>
</svg>
