<?xml version="1.0" encoding="utf-8"?>
<!-- Generator: Adobe Illustrator 22.0.1, SVG Export Plug-In . SVG Version: 6.00 Build 0)  -->
<svg version="1.1" id="Layer_1" xmlns="http://www.w3.org/2000/svg" xmlns:xlink="http://www.w3.org/1999/xlink" x="0px" y="0px"
	 viewBox="0 0 1300 400" style="enable-background:new 0 0 1300 400;" xml:space="preserve">
<style type="text/css">
	.st0{opacity:5.000000e-02;fill:#020202;enable-background:new    ;}
	.st1{fill:url(#SVGID_1_);stroke:#000000;stroke-width:1.6452;stroke-miterlimit:10;}
	.st2{fill:#E6E6E6;}
	.st3{fill:#FFB8B8;}
	.st4{fill:#F5F5F7;}
	.st5{fill:#D2D2D8;}
	.st6{fill:#B6B6B7;}
	.st7{fill:#D5D5DB;}
	.st8{fill:#666666;}
	.st9{fill:#6E6E77;}
	.st10{fill:#B3CCE5;}
	.st11{fill:#ABC4DD;}
	.st12{fill:#3F3D56;}
	.st13{fill:#4F4E54;}
	.st14{fill:#FFFFFF;}
	.st15{fill:#D0CDE1;}
	.st16{fill:#F2F2F2;}
</style>
<ellipse class="st0" cx="1404.9" cy="1082.5" rx="8.3" ry="1.7"/>
<linearGradient id="SVGID_1_" gradientUnits="userSpaceOnUse" x1="650" y1="200" x2="1950" y2="200" gradientTransform="matrix(-1 0 0 -1 1950 400)">
	<stop  offset="0" style="stop-color:#00354D"/>
	<stop  offset="0.4129" style="stop-color:#00364F"/>
	<stop  offset="0.5616" style="stop-color:#003C56"/>
	<stop  offset="0.6676" style="stop-color:#004561"/>
	<stop  offset="0.7534" style="stop-color:#005272"/>
	<stop  offset="0.8268" style="stop-color:#006388"/>
	<stop  offset="0.8918" style="stop-color:#0078A4"/>
	<stop  offset="0.9492" style="stop-color:#0091C3"/>
	<stop  offset="1" style="stop-color:#00ACE6"/>
	<stop  offset="1" style="stop-color:#0093C7"/>
	<stop  offset="1" style="stop-color:#0075A3"/>
	<stop  offset="1" style="stop-color:#005B83"/>
	<stop  offset="1" style="stop-color:#004567"/>
	<stop  offset="1" style="stop-color:#003351"/>
	<stop  offset="1" style="stop-color:#002540"/>
	<stop  offset="1" style="stop-color:#001B35"/>
	<stop  offset="1" style="stop-color:#00162E"/>
	<stop  offset="1" style="stop-color:#00142C"/>
</linearGradient>
<rect x="0" y="0" class="st1" width="1300" height="400"/>
<path class="st2" d="M949.5,247.8l-2.5-10c-4.5-1.9-9.1-3.6-13.8-5l-0.3,4.7l-1.3-5.1c-5.8-1.7-9.8-2.4-9.8-2.4s5.3,20.3,16.6,35.9
	l13.1,2.3l-10.2,1.5c1.4,1.7,2.9,3.3,4.5,4.8c16.3,15.1,34.5,22.1,40.6,15.5s-2.2-24.2-18.5-39.3c-5.1-4.7-11.4-8.5-17.8-11.4
	L949.5,247.8z"/>
<path class="st2" d="M973.6,236.9l3-9.9c-2.9-4-6-7.8-9.3-11.4l-2.7,3.8l1.5-5.1c-4.1-4.4-7.1-7.1-7.1-7.1s-5.9,20.2-4.4,39.3
	l10,8.7l-9.4-4c0.3,2.2,0.8,4.3,1.4,6.5c6.1,21.4,18.1,36.7,26.7,34.3s10.6-21.8,4.5-43.2c-1.9-6.6-5.4-13.1-9.3-19L973.6,236.9z"/>
<polygon class="st3" points="1014.3,278.3 1015.3,283.1 1022.7,282.5 1022.1,277.3 "/>
<polygon class="st3" points="995.9,278.3 994.9,283.1 987.5,282.5 988,277.3 "/>
<circle class="st3" cx="993.8" cy="115.2" r="10"/>
<polygon class="st3" points="987.5,117.8 984.9,129.9 998,134.1 997.5,118.9 "/>
<path class="st4" d="M992.2,131.5l-6.6-5c0,0-1.3-1.8-1.8-0.2s-5.2,7.3-5.2,7.3l3.7,43l27.8,0.5c0,0-10.9-50.1-12.3-48.4
	C996.4,130.4,992.8,130.4,992.2,131.5z"/>
<path class="st5" d="M997.8,125.4c0,0-2.1,2.1-1,3.7c1,1.6,0.3,4.5,1.3,4.7s-1,18.1,2.1,22.8s1.6,16.8,1.6,18.9
	c0,2.1,3.1,14.7,3.1,14.7s10.5,1,10.5-1.6s-3.7-21-3.7-21l3.1-32.5c0,0,0-3.1-3.7-4.2c-3.7-1-11-3.7-11-3.7L997.8,125.4z"/>
<path class="st3" d="M1012.7,163.5h-2.6c0,0-13.6,1-12.6-4.7c1-5.8,11.5-1.6,11.5-1.6l3.1,1.6L1012.7,163.5z"/>
<path class="st5" d="M986.1,124.5c0,0-4.3,2.7-4.8,3.8c-0.5,1-12.6,6.8-12.6,11c0,4.2,3.7,8.9,3.7,8.9l4.7,46.2c0,0,7.9,2.6,8.4,0.5
	s2.6-48.3,1.6-50.4s-1-15.7-1-15.7L986.1,124.5z"/>
<path class="st3" d="M972.3,200.7l-0.5,3.1c0,0,0.5,10.5,4.7,10s1.6-11,1.6-11l-0.5-2.1H972.3z"/>
<path class="st6" d="M978.6,174c0,0,0.5,47.2,3.1,62.4s3.7,41.4,3.7,41.4s6.8,1,7.9,1.6c1,0.5,3.7-1,3.7-1l0.5-77.6l10,35.1
	c0,0,1.6,42.5,4.7,43.5s12.6-1,12.6-1s-3.7-40.4-4.7-42s-3.7-47.7-7.9-56.1l-1.6-5.8C1010.6,174.5,980.7,175.5,978.6,174z"/>
<path class="st7" d="M1015.9,281c0,0-2.6-2.1-2.6-0.5s-2.6,11.3,0.5,11.3s24.1,1.8,23.6-2.4s-13.1-10.9-13.1-10.9s-4.7,1.5-5.2,2
	S1015.9,281,1015.9,281z"/>
<path class="st7" d="M994.3,281c0,0,2.6-2.1,2.6-0.5s2.6,11.3-0.5,11.3s-24.1,1.8-23.6-2.4c0.5-4.2,13.1-10.9,13.1-10.9
	s4.7,1.5,5.2,2S994.3,281,994.3,281z"/>
<path class="st5" d="M1011.1,134.6l3.7,0.5l7.3,21c0,0,2.1,10.5-1,12.1c-3.1,1.6-9.1,1.3-9.1,1.3l-0.9-11.8l2.6,0.5l-2.6-5.2V134.6z
	"/>
<path class="st5" d="M971.3,137.2l-2.6,2.1c0,0-2.6,26.8-2.1,29.4s3.7,34.6,3.7,34.6l8.9-2.1l-6.3-63.5L971.3,137.2z"/>
<path class="st8" d="M982.8,108c0,0-2.9-3.7,0-5.5v0.9c0,0,6.2-6.9,9.9-5.1l3.3-0.9v0.9l2.1-0.9l-0.4,1.4h2.9l-1.2,0.9
	c0,0,9.5-0.5,3.7,6.4c0,0,2.8,4.1,0.1,6.4c0,0-2.2-5.1-5.1-3.7c-1.6,0.8-3.5,0.7-5-0.5c0,0-5.8-0.5-5,2.3s0.4,3.7,0.4,3.7
	s-2.1,1.4-1.7,2.3c0.4,0.9,0.4,3.7,0.4,3.7s-2.1-3.2-2.9-2.8C983.6,118.1,979.1,113.5,982.8,108z"/>
<path class="st9" d="M1216.4,89.1h-55.1V88h-25v1.1H1081c-2.1,0-3.7,1.7-3.7,3.7l0,0v75.4c0,2.1,1.7,3.7,3.7,3.7h135.4
	c2.1,0,3.7-1.7,3.7-3.7l0,0V92.9C1220.1,90.8,1218.4,89.1,1216.4,89.1L1216.4,89.1z"/>
<rect x="1082.3" y="95.7" class="st10" width="132.8" height="74.9"/>
<circle class="st11" cx="1148.6" cy="92.3" r="1.4"/>
<path class="st12" d="M1207.5,105.3h-6.3V99h6.3V105.3z M1201.5,105h5.7v-5.7h-5.7V105z"/>
<path class="st9" d="M1223.8,169.3h-13v-0.9c0-0.1-0.1-0.2-0.2-0.2l0,0h-4.4c-0.1,0-0.2,0.1-0.2,0.2l0,0v0.9h-2.8v-0.9
	c0-0.1-0.1-0.2-0.2-0.2l0,0h-4.4c-0.1,0-0.2,0.1-0.2,0.2l0,0v0.9h-2.8v-0.9c0-0.1-0.1-0.2-0.2-0.2l0,0h-4.4c-0.1,0-0.2,0.1-0.2,0.2
	l0,0v0.9h-2.8v-0.9c0-0.1-0.1-0.2-0.2-0.2l0,0h-4.4c-0.1,0-0.2,0.1-0.2,0.2l0,0v0.9h-2.8v-0.9c0-0.1-0.1-0.2-0.2-0.2l0,0h-4.4
	c-0.1,0-0.2,0.1-0.2,0.2l0,0v0.9h-2.8v-0.9c0-0.1-0.1-0.2-0.2-0.2l0,0h-4.4c-0.1,0-0.2,0.1-0.2,0.2l0,0v0.9h-2.8v-0.9
	c0-0.1-0.1-0.2-0.2-0.2l0,0h-34.8c-0.1,0-0.2,0.1-0.2,0.2l0,0v0.9h-2.8v-0.9c0-0.1-0.1-0.2-0.2-0.2l0,0h-4.4c-0.1,0-0.2,0.1-0.2,0.2
	l0,0v0.9h-2.8v-0.9c0-0.1-0.1-0.2-0.2-0.2l0,0h-4.4c-0.1,0-0.2,0.1-0.2,0.2l0,0v0.9h-2.8v-0.9c0-0.1-0.1-0.2-0.2-0.2l0,0h-4.4
	c-0.1,0-0.2,0.1-0.2,0.2l0,0v0.9h-2.8v-0.9c0-0.1-0.1-0.2-0.2-0.2l0,0h-4.4c-0.1,0-0.2,0.1-0.2,0.2l0,0v0.9h-2.8v-0.9
	c0-0.1-0.1-0.2-0.2-0.2l0,0h-4.4c-0.1,0-0.2,0.1-0.2,0.2l0,0v0.9h-2.8v-0.9c0-0.1-0.1-0.2-0.2-0.2l0,0h-4.4c-0.1,0-0.2,0.1-0.2,0.2
	l0,0v0.9h-8.5c-2.5,0-4.4,2-4.4,4.4l0,0v2c0,2.5,2,4.4,4.4,4.4h147.7c2.5,0,4.4-2,4.4-4.4v-2
	C1228.3,171.3,1226.3,169.3,1223.8,169.3z"/>
<path class="st12" d="M1206.9,137.5h-42.7v-24.3h42.7V137.5z M1164.6,137h41.9v-23.5h-41.9V137z"/>
<path class="st12" d="M1128.6,142.3h-38.1v-23.7h38.1V142.3z M1090.9,141.9h37.2V119h-37.2V141.9z"/>
<path class="st13" d="M1108.3,133.2v-0.5c-0.1-1,0.2-2.1,1.1-3.1c0.8-1,1.3-1.7,1.3-2.5c0-0.9-0.6-1.5-1.7-1.6
	c-0.7,0-1.3,0.2-1.8,0.6l-0.4-1.1c0.6-0.4,1.6-0.7,2.6-0.7c2.1,0,3,1.3,3,2.7c0,1.2-0.7,2.1-1.6,3.2c-0.8,0.9-1.1,1.7-1,2.7v0.5
	L1108.3,133.2z M1107.9,135.8c0-0.6,0.4-1.1,1-1.1h0.1c0.6,0,1.1,0.5,1.1,1.1s-0.4,1.1-1,1.1
	C1108.4,136.9,1107.9,136.5,1107.9,135.8L1107.9,135.8z"/>
<path class="st13" d="M1184.3,127.9v-0.5c-0.1-1,0.2-2.1,1.1-3.1c0.8-1,1.3-1.7,1.3-2.5c0-0.9-0.6-1.5-1.7-1.6
	c-0.7,0-1.3,0.2-1.8,0.6l-0.4-1.1c0.6-0.4,1.6-0.7,2.6-0.7c2.1,0,3,1.3,3,2.7c0,1.2-0.7,2.1-1.6,3.2c-0.8,0.9-1.1,1.7-1,2.7v0.5
	L1184.3,127.9z M1183.9,130.5c0-0.6,0.4-1.1,1-1.1h0.1c0.6,0,1.1,0.5,1.1,1.1s-0.4,1.1-1,1.1S1183.9,131.2,1183.9,130.5
	L1183.9,130.5z"/>
<circle class="st13" cx="1149.5" cy="143.2" r="18.3"/>
<polygon class="st13" points="1142.4,168.2 1136.9,167.2 1138.7,155.8 1144.2,156.8 "/>
<rect x="1146.4" y="160.4" transform="matrix(0.1781 -0.984 0.984 0.1781 785.7269 1267.0598)" class="st13" width="9.9" height="5.5"/>
<ellipse transform="matrix(0.1979 -0.9802 0.9802 0.1979 759.444 1264.5568)" class="st13" cx="1152.4" cy="168.2" rx="1.7" ry="4.6"/>
<ellipse transform="matrix(0.1313 -0.9913 0.9913 0.1313 824.3512 1277.1888)" class="st13" cx="1140.9" cy="168.2" rx="1.7" ry="4.6"/>
<circle class="st14" cx="1150.7" cy="138.7" r="6.2"/>
<circle class="st12" cx="1153.3" cy="136.5" r="2.1"/>
<path class="st14" d="M1135.1,123.3c-0.3-6.8,5.6-12.5,13-12.8s13.7,4.9,14,11.7c0.3,6.8-4.9,8.3-12.4,8.6
	C1142.2,131.2,1135.3,130.1,1135.1,123.3z"/>
<ellipse transform="matrix(0.9747 -0.2234 0.2234 0.9747 -1.7745 264.0799)" class="st13" cx="1166.2" cy="139.9" rx="9.1" ry="2.9"/>
<ellipse transform="matrix(0.9747 -0.2234 0.2234 0.9747 -3.9956 256.2276)" class="st13" cx="1130.4" cy="145.8" rx="9.1" ry="2.9"/>
<path class="st14" d="M1144.4,150.4c-0.4,2.3,1.1,4.4,3.4,4.8s4.4-1.1,4.8-3.4c0.4-2.3-1.3-3.1-3.6-3.5
	C1146.8,148,1144.9,148.2,1144.4,150.4z"/>
<rect x="1080" y="90.8" class="st15" width="30" height="28.6"/>
<rect x="1083.4" y="94.2" class="st14" width="23.2" height="17.7"/>
<rect x="1083.4" y="114" class="st16" width="12.6" height="0.7"/>
<rect x="1083.4" y="116" class="st16" width="12.6" height="0.7"/>
<circle class="st13" cx="1087.6" cy="103.1" r="2.7"/>
<circle class="st11" cx="1095" cy="103.1" r="2.7"/>
<circle class="st2" cx="1102.5" cy="103.1" r="2.7"/>
<circle class="st12" cx="1095" cy="92.5" r="1.3"/>
<rect x="1094.3" y="146.1" class="st15" width="30" height="28.6"/>
<rect x="1097.7" y="149.5" class="st14" width="23.2" height="17.7"/>
<rect x="1102.8" y="152.4" class="st11" width="8.1" height="8.1"/>
<path class="st12" d="M1105.9,154.5v9.9h9.9v-9.9H1105.9z M1115.4,163.9h-9v-9h9V163.9z"/>
<rect x="1097.7" y="169" class="st16" width="12.6" height="0.7"/>
<circle class="st13" cx="1109.3" cy="147.8" r="1.3"/>
<rect x="1172.5" y="137.5" class="st15" width="30" height="28.6"/>
<rect x="1175.9" y="141" class="st14" width="23.2" height="17.7"/>
<rect x="1185" y="154.8" class="st13" width="5" height="1.5"/>
<rect x="1179" y="143.3" class="st12" width="17.1" height="0.6"/>
<rect x="1179" y="145.3" class="st12" width="17.1" height="0.6"/>
<rect x="1179" y="147.3" class="st12" width="17.1" height="0.6"/>
<rect x="1179" y="149.4" class="st12" width="17.1" height="0.6"/>
<rect x="1179" y="151.4" class="st12" width="17.1" height="0.6"/>
<rect x="1175.9" y="160.5" class="st16" width="12.6" height="0.7"/>
<rect x="1175.9" y="162.1" class="st16" width="17.6" height="0.7"/>
<circle class="st13" cx="1187.5" cy="139.2" r="1.3"/>
</svg>
