<?xml version="1.0" encoding="utf-8"?>
<!-- Generator: Adobe Illustrator 22.0.1, SVG Export Plug-In . SVG Version: 6.00 Build 0)  -->
<svg version="1.1" id="Layer_1" xmlns="http://www.w3.org/2000/svg" xmlns:xlink="http://www.w3.org/1999/xlink" x="0px" y="0px"
	 viewBox="0 0 1300 400" style="enable-background:new 0 0 1300 400;" xml:space="preserve">
<style type="text/css">
	.st0{fill:url(#SVGID_1_);stroke:#000000;stroke-width:1.6452;stroke-miterlimit:10;}
	.st1{fill:#E6E6E6;}
	.st2{fill:#FFB8B8;}
	.st3{fill:#D0CDE1;}
	.st4{fill:#2F2E41;}
	.st5{fill:#3F3D56;}
	.st6{fill:#63ABFF;}
	.st7{fill:#FFFFFF;}
	.st8{fill:#F2F2F2;}
</style>
<linearGradient id="SVGID_1_" gradientUnits="userSpaceOnUse" x1="-9.094947e-13" y1="100" x2="214.5788" y2="100" gradientTransform="matrix(-6.0584 0 0 -1 1300 300)">
	<stop  offset="0" style="stop-color:#489DD7"/>
	<stop  offset="1" style="stop-color:#C8D3D1"/>
	<stop  offset="1" style="stop-color:#457FC1"/>
</linearGradient>
<rect class="st0" width="1300" height="400"/>
<path class="st1" d="M391.9,247.2l2.5-10c4.5-1.9,9.1-3.6,13.8-5l0.3,4.7l1.3-5.1c5.8-1.7,9.8-2.4,9.8-2.4s-5.3,20.3-16.6,35.9
	l-13.1,2.3l10.2,1.5c-1.4,1.7-2.9,3.3-4.5,4.8C379.3,289,361.1,296,355,289.4s2.2-24.2,18.5-39.3c5.1-4.7,11.4-8.5,17.8-11.4
	L391.9,247.2z"/>
<path class="st1" d="M367.8,236.3l-3-9.9c2.9-4,6-7.8,9.3-11.4l2.7,3.8l-1.5-5.1c4.1-4.4,7.1-7.1,7.1-7.1s5.9,20.2,4.4,39.3l-10,8.7
	l9.4-4c-0.3,2.2-0.8,4.3-1.4,6.5c-6.1,21.4-18.1,36.7-26.7,34.3s-10.6-21.8-4.5-43.2c1.9-6.6,5.4-13.1,9.3-19L367.8,236.3z"/>
<polygon class="st2" points="327.1,277.7 326.1,282.5 318.7,281.9 319.3,276.7 "/>
<polygon class="st2" points="345.5,277.7 346.5,282.5 353.9,281.9 353.4,276.7 "/>
<circle class="st2" cx="347.6" cy="114.6" r="10"/>
<polygon class="st2" points="353.9,117.2 356.5,129.3 343.4,133.5 343.9,118.3 "/>
<path class="st3" d="M349.2,130.9l6.6-5c0,0,1.3-1.8,1.8-0.2s5.2,7.3,5.2,7.3l-3.7,43l-27.8,0.5c0,0,10.9-50.1,12.3-48.4
	C345,129.8,348.6,129.8,349.2,130.9z"/>
<path class="st4" d="M343.6,124.8c0,0,2.1,2.1,1,3.7c-1,1.6-0.3,4.5-1.3,4.7s1,18.1-2.1,22.8s-1.6,16.8-1.6,18.9
	c0,2.1-3.1,14.7-3.1,14.7s-10.5,1-10.5-1.6s3.7-21,3.7-21l-3.1-32.5c0,0,0-3.1,3.7-4.2c3.7-1,11-3.7,11-3.7L343.6,124.8z"/>
<path class="st2" d="M328.7,162.9h2.6c0,0,13.6,1,12.6-4.7c-1-5.8-11.5-1.6-11.5-1.6l-3.1,1.6L328.7,162.9z"/>
<path class="st4" d="M355.3,123.9c0,0,4.3,2.7,4.8,3.8c0.5,1,12.6,6.8,12.6,11c0,4.2-3.7,8.9-3.7,8.9l-4.7,46.2c0,0-7.9,2.6-8.4,0.5
	s-2.6-48.3-1.6-50.4s1-15.7,1-15.7L355.3,123.9z"/>
<path class="st2" d="M369.1,200.1l0.5,3.1c0,0-0.5,10.5-4.7,10s-1.6-11-1.6-11l0.5-2.1H369.1z"/>
<path class="st4" d="M362.8,173.4c0,0-0.5,47.2-3.1,62.4s-3.7,41.4-3.7,41.4s-6.8,1-7.9,1.6c-1,0.5-3.7-1-3.7-1l-0.5-77.6l-10,35.1
	c0,0-1.6,42.5-4.7,43.5s-12.6-1-12.6-1s3.7-40.4,4.7-42s3.7-47.7,7.9-56.1l1.6-5.8C330.8,173.9,360.7,174.9,362.8,173.4z"/>
<path class="st4" d="M325.5,280.4c0,0,2.6-2.1,2.6-0.5s2.6,11.3-0.5,11.3s-24.1,1.8-23.6-2.4s13.1-10.9,13.1-10.9s4.7,1.5,5.2,2
	S325.5,280.4,325.5,280.4z"/>
<path class="st4" d="M347.1,280.4c0,0-2.6-2.1-2.6-0.5s-2.6,11.3,0.5,11.3s24.1,1.8,23.6-2.4c-0.5-4.2-13.1-10.9-13.1-10.9
	s-4.7,1.5-5.2,2S347.1,280.4,347.1,280.4z"/>
<path class="st4" d="M330.3,134l-3.7,0.5l-7.3,21c0,0-2.1,10.5,1,12.1s9.1,1.3,9.1,1.3l0.9-11.8l-2.6,0.5l2.6-5.2V134z"/>
<path class="st4" d="M370.1,136.6l2.6,2.1c0,0,2.6,26.8,2.1,29.4s-3.7,34.6-3.7,34.6l-8.9-2.1l6.3-63.5L370.1,136.6z"/>
<path class="st4" d="M358.6,107.4c0,0,2.9-3.7,0-5.5v0.9c0,0-6.2-6.9-9.9-5.1l-3.3-0.9v0.9l-2.1-0.9l0.4,1.4h-2.9l1.2,0.9
	c0,0-9.5-0.5-3.7,6.4c0,0-2.8,4.1-0.1,6.4c0,0,2.2-5.1,5.1-3.7c1.6,0.8,3.5,0.7,5-0.5c0,0,5.8-0.5,5,2.3s-0.4,3.7-0.4,3.7
	s2.1,1.4,1.7,2.3c-0.4,0.9-0.4,3.7-0.4,3.7s2.1-3.2,2.9-2.8C357.8,117.5,362.3,112.9,358.6,107.4z"/>
<path class="st5" d="M125,88.5h55.1v-1.1h25v1.1h55.3c2.1,0,3.7,1.7,3.7,3.7l0,0v75.4c0,2.1-1.7,3.7-3.7,3.7H125
	c-2.1,0-3.7-1.7-3.7-3.7l0,0V92.3C121.3,90.2,123,88.5,125,88.5L125,88.5z"/>
<rect x="126.3" y="95.1" class="st6" width="132.8" height="74.9"/>
<circle class="st6" cx="192.8" cy="91.7" r="1.4"/>
<path class="st5" d="M133.9,104.7h6.3v-6.3h-6.3V104.7z M139.9,104.4h-5.7v-5.7h5.7V104.4z"/>
<path class="st5" d="M117.6,168.7h13v-0.9c0-0.1,0.1-0.2,0.2-0.2l0,0h4.4c0.1,0,0.2,0.1,0.2,0.2l0,0v0.9h2.8v-0.9
	c0-0.1,0.1-0.2,0.2-0.2l0,0h4.4c0.1,0,0.2,0.1,0.2,0.2l0,0v0.9h2.8v-0.9c0-0.1,0.1-0.2,0.2-0.2l0,0h4.4c0.1,0,0.2,0.1,0.2,0.2l0,0
	v0.9h2.8v-0.9c0-0.1,0.1-0.2,0.2-0.2l0,0h4.4c0.1,0,0.2,0.1,0.2,0.2l0,0v0.9h2.8v-0.9c0-0.1,0.1-0.2,0.2-0.2l0,0h4.4
	c0.1,0,0.2,0.1,0.2,0.2l0,0v0.9h2.8v-0.9c0-0.1,0.1-0.2,0.2-0.2l0,0h4.4c0.1,0,0.2,0.1,0.2,0.2l0,0v0.9h2.8v-0.9
	c0-0.1,0.1-0.2,0.2-0.2l0,0h34.8c0.1,0,0.2,0.1,0.2,0.2l0,0v0.9h2.8v-0.9c0-0.1,0.1-0.2,0.2-0.2l0,0h4.4c0.1,0,0.2,0.1,0.2,0.2l0,0
	v0.9h2.8v-0.9c0-0.1,0.1-0.2,0.2-0.2l0,0h4.4c0.1,0,0.2,0.1,0.2,0.2l0,0v0.9h2.8v-0.9c0-0.1,0.1-0.2,0.2-0.2l0,0h4.4
	c0.1,0,0.2,0.1,0.2,0.2l0,0v0.9h2.8v-0.9c0-0.1,0.1-0.2,0.2-0.2l0,0h4.4c0.1,0,0.2,0.1,0.2,0.2l0,0v0.9h2.8v-0.9
	c0-0.1,0.1-0.2,0.2-0.2l0,0h4.4c0.1,0,0.2,0.1,0.2,0.2l0,0v0.9h2.8v-0.9c0-0.1,0.1-0.2,0.2-0.2l0,0h4.4c0.1,0,0.2,0.1,0.2,0.2l0,0
	v0.9h8.5c2.5,0,4.4,2,4.4,4.4l0,0v2c0,2.5-2,4.4-4.4,4.4H117.8c-2.5,0-4.4-2-4.4-4.4v-2C113.1,170.7,115.1,168.7,117.6,168.7z"/>
<path class="st5" d="M134.5,136.9h42.7v-24.3h-42.7V136.9z M176.8,136.4h-41.9v-23.5h41.9V136.4z"/>
<path class="st5" d="M212.8,141.7h38.1V118h-38.1V141.7z M250.5,141.3h-37.2v-22.9h37.2V141.3z"/>
<path class="st3" d="M233.1,132.6v-0.5c0.1-1-0.2-2.1-1.1-3.1c-0.8-1-1.3-1.7-1.3-2.5c0-0.9,0.6-1.5,1.7-1.6c0.7,0,1.3,0.2,1.8,0.6
	l0.4-1.1c-0.6-0.4-1.6-0.7-2.6-0.7c-2.1,0-3,1.3-3,2.7c0,1.2,0.7,2.1,1.6,3.2c0.8,0.9,1.1,1.7,1,2.7v0.5L233.1,132.6z M233.5,135.2
	c0-0.6-0.4-1.1-1-1.1h-0.1c-0.6,0-1.1,0.5-1.1,1.1s0.4,1.1,1,1.1C233,136.3,233.5,135.9,233.5,135.2L233.5,135.2z"/>
<path class="st3" d="M157.1,127.3v-0.5c0.1-1-0.2-2.1-1.1-3.1c-0.8-1-1.3-1.7-1.3-2.5c0-0.9,0.6-1.5,1.7-1.6c0.7,0,1.3,0.2,1.8,0.6
	l0.4-1.1c-0.6-0.4-1.6-0.7-2.6-0.7c-2.1,0-3,1.3-3,2.7c0,1.2,0.7,2.1,1.6,3.2c0.8,0.9,1.1,1.7,1,2.7v0.5L157.1,127.3z M157.5,129.9
	c0-0.6-0.4-1.1-1-1.1h-0.1c-0.6,0-1.1,0.5-1.1,1.1s0.4,1.1,1,1.1S157.5,130.6,157.5,129.9L157.5,129.9z"/>
<circle class="st4" cx="191.9" cy="142.6" r="18.3"/>
<polygon class="st4" points="199,167.6 204.5,166.6 202.7,155.2 197.2,156.2 "/>
<rect x="187.3" y="157.7" transform="matrix(0.984 -0.1781 0.1781 0.984 -25.9251 36.4411)" class="st4" width="5.5" height="9.9"/>
<ellipse transform="matrix(0.9802 -0.1979 0.1979 0.9802 -29.4461 40.7101)" class="st4" cx="188.9" cy="167.7" rx="4.6" ry="1.7"/>
<ellipse transform="matrix(0.9913 -0.1313 0.1313 0.9913 -20.2805 27.7695)" class="st4" cx="200.4" cy="167.7" rx="4.6" ry="1.7"/>
<circle class="st7" cx="190.7" cy="138.1" r="6.2"/>
<circle class="st5" cx="188.1" cy="135.9" r="2.1"/>
<path class="st7" d="M206.3,122.7c0.3-6.8-5.6-12.5-13-12.8s-13.7,4.9-14,11.7c-0.3,6.8,4.9,8.3,12.4,8.6
	C199.2,130.6,206.1,129.5,206.3,122.7z"/>
<ellipse transform="matrix(0.2234 -0.9747 0.9747 0.2234 0.1958 278.8982)" class="st4" cx="175.1" cy="139.3" rx="2.9" ry="9.1"/>
<ellipse transform="matrix(0.2234 -0.9747 0.9747 0.2234 22.2678 318.3816)" class="st4" cx="210.9" cy="145.2" rx="2.9" ry="9.1"/>
<path class="st7" d="M197,149.8c0.4,2.3-1.1,4.4-3.4,4.8s-4.4-1.1-4.8-3.4c-0.4-2.3,1.3-3.1,3.6-3.5
	C194.6,147.4,196.5,147.6,197,149.8z"/>
<rect x="231.4" y="90.2" class="st3" width="30" height="28.6"/>
<rect x="234.8" y="93.6" class="st7" width="23.2" height="17.7"/>
<rect x="245.4" y="113.4" class="st8" width="12.6" height="0.7"/>
<rect x="245.4" y="115.4" class="st8" width="12.6" height="0.7"/>
<circle class="st5" cx="253.8" cy="102.5" r="2.7"/>
<circle class="st6" cx="246.4" cy="102.5" r="2.7"/>
<circle class="st1" cx="238.9" cy="102.5" r="2.7"/>
<circle class="st5" cx="246.4" cy="91.9" r="1.3"/>
<rect x="217.1" y="145.5" class="st3" width="30" height="28.6"/>
<rect x="220.5" y="148.9" class="st7" width="23.2" height="17.7"/>
<rect x="230.5" y="151.8" class="st6" width="8.1" height="8.1"/>
<path class="st5" d="M235.5,153.9v9.9h-9.9v-9.9H235.5z M226,163.3h9v-9h-9V163.3z"/>
<rect x="231.1" y="168.4" class="st8" width="12.6" height="0.7"/>
<circle class="st5" cx="232.1" cy="147.2" r="1.3"/>
<rect x="138.9" y="136.9" class="st3" width="30" height="28.6"/>
<rect x="142.3" y="140.4" class="st7" width="23.2" height="17.7"/>
<rect x="151.4" y="154.2" class="st5" width="5" height="1.5"/>
<rect x="145.3" y="142.7" class="st5" width="17.1" height="0.6"/>
<rect x="145.3" y="144.7" class="st5" width="17.1" height="0.6"/>
<rect x="145.3" y="146.7" class="st5" width="17.1" height="0.6"/>
<rect x="145.3" y="148.8" class="st5" width="17.1" height="0.6"/>
<rect x="145.3" y="150.8" class="st5" width="17.1" height="0.6"/>
<rect x="152.9" y="159.9" class="st8" width="12.6" height="0.7"/>
<rect x="147.9" y="161.5" class="st8" width="17.6" height="0.7"/>
<circle class="st5" cx="153.9" cy="138.6" r="1.3"/>
</svg>
