<?xml version="1.0" encoding="utf-8"?>
<!-- Generator: Adobe Illustrator 22.0.1, SVG Export Plug-In . SVG Version: 6.00 Build 0)  -->
<svg version="1.1" id="Layer_1" xmlns="http://www.w3.org/2000/svg" xmlns:xlink="http://www.w3.org/1999/xlink" x="0px" y="0px"
	 viewBox="0 0 1300 400" style="enable-background:new 0 0 1300 400;" xml:space="preserve">
<style type="text/css">
	.st0{fill:url(#SVGID_1_);stroke:#000000;stroke-width:1.6452;stroke-miterlimit:10;}
	.st1{fill:#E6E6E6;}
	.st2{fill:#FFB8B8;}
	.st3{fill:#F5F5F7;}
	.st4{fill:#D2D2D8;}
	.st5{fill:#B6B6B7;}
	.st6{fill:#D5D5DB;}
	.st7{fill:#666666;}
	.st8{fill:#6E6E77;}
	.st9{fill:#B3CCE5;}
	.st10{fill:#ABC4DD;}
	.st11{fill:#3F3D56;}
	.st12{fill:#4F4E54;}
	.st13{fill:#FFFFFF;}
	.st14{fill:#D0CDE1;}
	.st15{fill:#F2F2F2;}
</style>
<linearGradient id="SVGID_1_" gradientUnits="userSpaceOnUse" x1="2455.3379" y1="200" x2="2600" y2="200" gradientTransform="matrix(8.9865 0 0 1 -22064.7852 0)">
	<stop  offset="0" style="stop-color:#00354D"/>
	<stop  offset="0.4129" style="stop-color:#00364F"/>
	<stop  offset="0.5616" style="stop-color:#003C56"/>
	<stop  offset="0.6676" style="stop-color:#004561"/>
	<stop  offset="0.7534" style="stop-color:#005272"/>
	<stop  offset="0.8268" style="stop-color:#006388"/>
	<stop  offset="0.8918" style="stop-color:#0078A4"/>
	<stop  offset="0.9492" style="stop-color:#0091C3"/>
	<stop  offset="1" style="stop-color:#00ACE6"/>
	<stop  offset="1" style="stop-color:#0093C7"/>
	<stop  offset="1" style="stop-color:#0075A3"/>
	<stop  offset="1" style="stop-color:#005B83"/>
	<stop  offset="1" style="stop-color:#004567"/>
	<stop  offset="1" style="stop-color:#003351"/>
	<stop  offset="1" style="stop-color:#002540"/>
	<stop  offset="1" style="stop-color:#001B35"/>
	<stop  offset="1" style="stop-color:#00162E"/>
	<stop  offset="1" style="stop-color:#00142C"/>
</linearGradient>
<rect class="st0" width="1300" height="400"/>
<path class="st1" d="M350.5,247.8l2.5-10c4.5-1.9,9.1-3.6,13.8-5l0.3,4.7l1.3-5.1c5.8-1.7,9.8-2.4,9.8-2.4s-5.3,20.3-16.6,35.9
	l-13.1,2.3l10.2,1.5c-1.4,1.7-2.9,3.3-4.5,4.8c-16.3,15.1-34.5,22.1-40.6,15.5s2.2-24.2,18.5-39.3c5.1-4.7,11.4-8.5,17.8-11.4
	L350.5,247.8z"/>
<path class="st1" d="M326.4,236.9l-3-9.9c2.9-4,6-7.8,9.3-11.4l2.7,3.8l-1.5-5.1c4.1-4.4,7.1-7.1,7.1-7.1s5.9,20.2,4.4,39.3l-10,8.7
	l9.4-4c-0.3,2.2-0.8,4.3-1.4,6.5c-6.1,21.4-18.1,36.7-26.7,34.3s-10.6-21.8-4.5-43.2c1.9-6.6,5.4-13.1,9.3-19L326.4,236.9z"/>
<polygon class="st2" points="285.7,278.3 284.7,283.1 277.3,282.5 277.9,277.3 "/>
<polygon class="st2" points="304.1,278.3 305.1,283.1 312.5,282.5 312,277.3 "/>
<circle class="st2" cx="306.2" cy="115.2" r="10"/>
<polygon class="st2" points="312.5,117.8 315.1,129.9 302,134.1 302.5,118.9 "/>
<path class="st3" d="M307.8,131.5l6.6-5c0,0,1.3-1.8,1.8-0.2s5.2,7.3,5.2,7.3l-3.7,43l-27.8,0.5c0,0,10.9-50.1,12.3-48.4
	C303.6,130.4,307.2,130.4,307.8,131.5z"/>
<path class="st4" d="M302.2,125.4c0,0,2.1,2.1,1,3.7c-1,1.6-0.3,4.5-1.3,4.7s1,18.1-2.1,22.8s-1.6,16.8-1.6,18.9
	c0,2.1-3.1,14.7-3.1,14.7s-10.5,1-10.5-1.6s3.7-21,3.7-21l-3.1-32.5c0,0,0-3.1,3.7-4.2c3.7-1,11-3.7,11-3.7L302.2,125.4z"/>
<path class="st2" d="M287.3,163.5h2.6c0,0,13.6,1,12.6-4.7c-1-5.8-11.5-1.6-11.5-1.6l-3.1,1.6L287.3,163.5z"/>
<path class="st4" d="M313.9,124.5c0,0,4.3,2.7,4.8,3.8c0.5,1,12.6,6.8,12.6,11s-3.7,8.9-3.7,8.9l-4.7,46.2c0,0-7.9,2.6-8.4,0.5
	s-2.6-48.3-1.6-50.4s1-15.7,1-15.7L313.9,124.5z"/>
<path class="st2" d="M327.7,200.7l0.5,3.1c0,0-0.5,10.5-4.7,10s-1.6-11-1.6-11l0.5-2.1H327.7z"/>
<path class="st5" d="M321.4,174c0,0-0.5,47.2-3.1,62.4s-3.7,41.4-3.7,41.4s-6.8,1-7.9,1.6c-1,0.5-3.7-1-3.7-1l-0.5-77.6l-10,35.1
	c0,0-1.6,42.5-4.7,43.5s-12.6-1-12.6-1s3.7-40.4,4.7-42s3.7-47.7,7.9-56.1l1.6-5.8C289.4,174.5,319.3,175.5,321.4,174z"/>
<path class="st6" d="M284.1,281c0,0,2.6-2.1,2.6-0.5s2.6,11.3-0.5,11.3s-24.1,1.8-23.6-2.4s13.1-10.9,13.1-10.9s4.7,1.5,5.2,2
	S284.1,281,284.1,281z"/>
<path class="st6" d="M305.7,281c0,0-2.6-2.1-2.6-0.5s-2.6,11.3,0.5,11.3s24.1,1.8,23.6-2.4c-0.5-4.2-13.1-10.9-13.1-10.9
	s-4.7,1.5-5.2,2S305.7,281,305.7,281z"/>
<path class="st4" d="M288.9,134.6l-3.7,0.5l-7.3,21c0,0-2.1,10.5,1,12.1s9.1,1.3,9.1,1.3l0.9-11.8l-2.6,0.5l2.6-5.2V134.6z"/>
<path class="st4" d="M328.7,137.2l2.6,2.1c0,0,2.6,26.8,2.1,29.4s-3.7,34.6-3.7,34.6l-8.9-2.1l6.3-63.5L328.7,137.2z"/>
<path class="st7" d="M317.2,108c0,0,2.9-3.7,0-5.5v0.9c0,0-6.2-6.9-9.9-5.1l-3.3-0.9v0.9l-2.1-0.9l0.4,1.4h-2.9l1.2,0.9
	c0,0-9.5-0.5-3.7,6.4c0,0-2.8,4.1-0.1,6.4c0,0,2.2-5.1,5.1-3.7c1.6,0.8,3.5,0.7,5-0.5c0,0,5.8-0.5,5,2.3s-0.4,3.7-0.4,3.7
	s2.1,1.4,1.7,2.3c-0.4,0.9-0.4,3.7-0.4,3.7s2.1-3.2,2.9-2.8C316.4,118.1,320.9,113.5,317.2,108z"/>
<path class="st8" d="M83.6,89.1h55.1V88h25v1.1H219c2.1,0,3.7,1.7,3.7,3.7l0,0v75.4c0,2.1-1.7,3.7-3.7,3.7H83.6
	c-2.1,0-3.7-1.7-3.7-3.7l0,0V92.9C79.9,90.8,81.6,89.1,83.6,89.1L83.6,89.1z"/>
<rect x="84.9" y="95.7" class="st9" width="132.8" height="74.9"/>
<circle class="st10" cx="151.4" cy="92.3" r="1.4"/>
<path class="st11" d="M92.5,105.3h6.3V99h-6.3V105.3z M98.5,105h-5.7v-5.7h5.7V105z"/>
<path class="st8" d="M76.2,169.3h13v-0.9c0-0.1,0.1-0.2,0.2-0.2l0,0h4.4c0.1,0,0.2,0.1,0.2,0.2l0,0v0.9h2.8v-0.9
	c0-0.1,0.1-0.2,0.2-0.2l0,0h4.4c0.1,0,0.2,0.1,0.2,0.2l0,0v0.9h2.8v-0.9c0-0.1,0.1-0.2,0.2-0.2l0,0h4.4c0.1,0,0.2,0.1,0.2,0.2l0,0
	v0.9h2.8v-0.9c0-0.1,0.1-0.2,0.2-0.2l0,0h4.4c0.1,0,0.2,0.1,0.2,0.2l0,0v0.9h2.8v-0.9c0-0.1,0.1-0.2,0.2-0.2l0,0h4.4
	c0.1,0,0.2,0.1,0.2,0.2l0,0v0.9h2.8v-0.9c0-0.1,0.1-0.2,0.2-0.2l0,0h4.4c0.1,0,0.2,0.1,0.2,0.2l0,0v0.9h2.8v-0.9
	c0-0.1,0.1-0.2,0.2-0.2l0,0h34.8c0.1,0,0.2,0.1,0.2,0.2l0,0v0.9h2.8v-0.9c0-0.1,0.1-0.2,0.2-0.2l0,0h4.4c0.1,0,0.2,0.1,0.2,0.2l0,0
	v0.9h2.8v-0.9c0-0.1,0.1-0.2,0.2-0.2l0,0h4.4c0.1,0,0.2,0.1,0.2,0.2l0,0v0.9h2.8v-0.9c0-0.1,0.1-0.2,0.2-0.2l0,0h4.4
	c0.1,0,0.2,0.1,0.2,0.2l0,0v0.9h2.8v-0.9c0-0.1,0.1-0.2,0.2-0.2l0,0h4.4c0.1,0,0.2,0.1,0.2,0.2l0,0v0.9h2.8v-0.9
	c0-0.1,0.1-0.2,0.2-0.2l0,0h4.4c0.1,0,0.2,0.1,0.2,0.2l0,0v0.9h2.8v-0.9c0-0.1,0.1-0.2,0.2-0.2l0,0h4.4c0.1,0,0.2,0.1,0.2,0.2l0,0
	v0.9h8.5c2.5,0,4.4,2,4.4,4.4l0,0v2c0,2.5-2,4.4-4.4,4.4H76.4c-2.5,0-4.4-2-4.4-4.4v-2C71.7,171.3,73.7,169.3,76.2,169.3z"/>
<path class="st11" d="M93.1,137.5h42.7v-24.3H93.1V137.5z M135.4,137H93.5v-23.5h41.9V137z"/>
<path class="st11" d="M171.4,142.3h38.1v-23.7h-38.1V142.3z M209.1,141.9h-37.2V119h37.2V141.9z"/>
<path class="st12" d="M191.7,133.2v-0.5c0.1-1-0.2-2.1-1.1-3.1c-0.8-1-1.3-1.7-1.3-2.5c0-0.9,0.6-1.5,1.7-1.6c0.7,0,1.3,0.2,1.8,0.6
	l0.4-1.1c-0.6-0.4-1.6-0.7-2.6-0.7c-2.1,0-3,1.3-3,2.7c0,1.2,0.7,2.1,1.6,3.2c0.8,0.9,1.1,1.7,1,2.7v0.5L191.7,133.2z M192.1,135.8
	c0-0.6-0.4-1.1-1-1.1H191c-0.6,0-1.1,0.5-1.1,1.1s0.4,1.1,1,1.1C191.6,136.9,192.1,136.5,192.1,135.8L192.1,135.8z"/>
<path class="st12" d="M115.7,127.9v-0.5c0.1-1-0.2-2.1-1.1-3.1c-0.8-1-1.3-1.7-1.3-2.5c0-0.9,0.6-1.5,1.7-1.6c0.7,0,1.3,0.2,1.8,0.6
	l0.4-1.1c-0.6-0.4-1.6-0.7-2.6-0.7c-2.1,0-3,1.3-3,2.7c0,1.2,0.7,2.1,1.6,3.2c0.8,0.9,1.1,1.7,1,2.7v0.5L115.7,127.9z M116.1,130.5
	c0-0.6-0.4-1.1-1-1.1H115c-0.6,0-1.1,0.5-1.1,1.1s0.4,1.1,1,1.1S116.1,131.2,116.1,130.5L116.1,130.5z"/>
<circle class="st12" cx="150.5" cy="143.2" r="18.3"/>
<polygon class="st12" points="157.6,168.2 163.1,167.2 161.3,155.8 155.8,156.8 "/>
<rect x="145.9" y="158.2" transform="matrix(0.984 -0.1781 0.1781 0.984 -26.6871 29.0889)" class="st12" width="5.5" height="9.9"/>
<ellipse transform="matrix(0.9802 -0.1979 0.1979 0.9802 -30.3797 32.5439)" class="st12" cx="147.6" cy="168.3" rx="4.6" ry="1.7"/>
<ellipse transform="matrix(0.9913 -0.1313 0.1313 0.9913 -20.721 22.3494)" class="st12" cx="159.1" cy="168.3" rx="4.6" ry="1.7"/>
<circle class="st13" cx="149.3" cy="138.7" r="6.2"/>
<circle class="st11" cx="146.7" cy="136.5" r="2.1"/>
<path class="st13" d="M164.9,123.3c0.3-6.8-5.6-12.5-13-12.8s-13.7,4.9-14,11.7c-0.3,6.8,4.9,8.3,12.4,8.6
	C157.8,131.2,164.7,130.1,164.9,123.3z"/>
<ellipse transform="matrix(0.2234 -0.9747 0.9747 0.2234 -32.4468 239.0977)" class="st12" cx="133.8" cy="139.9" rx="2.9" ry="9.1"/>
<ellipse transform="matrix(0.2234 -0.9747 0.9747 0.2234 -10.3941 278.5691)" class="st12" cx="169.6" cy="145.8" rx="2.9" ry="9.1"/>
<path class="st13" d="M155.6,150.4c0.4,2.3-1.1,4.4-3.4,4.8s-4.4-1.1-4.8-3.4c-0.4-2.3,1.3-3.1,3.6-3.5
	C153.2,148,155.1,148.2,155.6,150.4z"/>
<rect x="190" y="90.8" class="st14" width="30" height="28.6"/>
<rect x="193.4" y="94.2" class="st13" width="23.2" height="17.7"/>
<rect x="204" y="114" class="st15" width="12.6" height="0.7"/>
<rect x="204" y="116" class="st15" width="12.6" height="0.7"/>
<circle class="st12" cx="212.4" cy="103.1" r="2.7"/>
<circle class="st10" cx="205" cy="103.1" r="2.7"/>
<circle class="st1" cx="197.5" cy="103.1" r="2.7"/>
<circle class="st11" cx="205" cy="92.5" r="1.3"/>
<rect x="175.7" y="146.1" class="st14" width="30" height="28.6"/>
<rect x="179.1" y="149.5" class="st13" width="23.2" height="17.7"/>
<rect x="189.1" y="152.4" class="st10" width="8.1" height="8.1"/>
<path class="st11" d="M194.1,154.5v9.9h-9.9v-9.9H194.1z M184.6,163.9h9v-9h-9V163.9z"/>
<rect x="189.7" y="169" class="st15" width="12.6" height="0.7"/>
<circle class="st12" cx="190.7" cy="147.8" r="1.3"/>
<rect x="97.5" y="137.5" class="st14" width="30" height="28.6"/>
<rect x="100.9" y="141" class="st13" width="23.2" height="17.7"/>
<rect x="110" y="154.8" class="st12" width="5" height="1.5"/>
<rect x="103.9" y="143.3" class="st11" width="17.1" height="0.6"/>
<rect x="103.9" y="145.3" class="st11" width="17.1" height="0.6"/>
<rect x="103.9" y="147.3" class="st11" width="17.1" height="0.6"/>
<rect x="103.9" y="149.4" class="st11" width="17.1" height="0.6"/>
<rect x="103.9" y="151.4" class="st11" width="17.1" height="0.6"/>
<rect x="111.5" y="160.5" class="st15" width="12.6" height="0.7"/>
<rect x="106.5" y="162.1" class="st15" width="17.6" height="0.7"/>
<circle class="st12" cx="112.5" cy="139.2" r="1.3"/>
</svg>
