<?xml version="1.0" encoding="utf-8"?>
<!-- Generator: Adobe Illustrator 22.0.1, SVG Export Plug-In . SVG Version: 6.00 Build 0)  -->
<svg version="1.1" id="Layer_1" xmlns="http://www.w3.org/2000/svg" xmlns:xlink="http://www.w3.org/1999/xlink" x="0px" y="0px"
	 viewBox="0 0 1300 400" style="enable-background:new 0 0 1300 400;" xml:space="preserve">
<style type="text/css">
	.st0{fill:url(#SVGID_1_);stroke:#000000;stroke-width:1.6452;stroke-miterlimit:10;}
	.st1{fill:#B5D5E5;}
	.st2{fill:#E6E6E6;}
	.st3{fill:#0D8CD8;}
	.st4{fill:#FFB8B8;}
	.st5{opacity:0.1;enable-background:new    ;}
	.st6{fill:#B6B6B7;}
	.st7{fill:#FFFFFF;}
	.st8{fill:#2F2E41;}
	.st9{fill:#D0CDE1;}
	.st10{fill:#E5E5E5;}
	.st11{fill:#9F9EAF;}
	.st12{fill:#A8D8EF;}
	.st13{fill:#8F8F9B;}
	.st14{fill:#3F3D56;}
	.st15{fill:#89C6E5;}
	.st16{fill:#7F7F87;}
	.st17{fill:#7D7C9B;}
	.st18{fill:#F2F2F2;}
	.st19{fill:#BDD8E5;}
</style>
<linearGradient id="SVGID_1_" gradientUnits="userSpaceOnUse" x1="1300.4" y1="202.2" x2="1590.6484" y2="202.2" gradientTransform="matrix(4.4789 0 0 1 -5824.3901 0)">
	<stop  offset="0" style="stop-color:#00354D"/>
	<stop  offset="0.4129" style="stop-color:#00364F"/>
	<stop  offset="0.5616" style="stop-color:#003C56"/>
	<stop  offset="0.6676" style="stop-color:#004561"/>
	<stop  offset="0.7534" style="stop-color:#005272"/>
	<stop  offset="0.8268" style="stop-color:#006388"/>
	<stop  offset="0.8918" style="stop-color:#0078A4"/>
	<stop  offset="0.9492" style="stop-color:#0091C3"/>
	<stop  offset="1" style="stop-color:#00ACE6"/>
	<stop  offset="1" style="stop-color:#0093C7"/>
	<stop  offset="1" style="stop-color:#0075A3"/>
	<stop  offset="1" style="stop-color:#005B83"/>
	<stop  offset="1" style="stop-color:#004567"/>
	<stop  offset="1" style="stop-color:#003351"/>
	<stop  offset="1" style="stop-color:#002540"/>
	<stop  offset="1" style="stop-color:#001B35"/>
	<stop  offset="1" style="stop-color:#00162E"/>
	<stop  offset="1" style="stop-color:#00142C"/>
</linearGradient>
<rect y="2.2" class="st0" width="1300" height="400"/>
<path class="st1" d="M274.8,113.9c-1.9,2.6-4,5.5-6.1,8.8l-0.3-14.9l-0.1,0.1c2.2-1.6,4.6-2.9,7.2-3.8l-0.1,0.1L274.8,113.9z"/>
<path class="st1" d="M275.6,104c2.7-0.9,5.2-1.2,7.6-0.8c0.1,0,0.2,0.1,0.4,0.1c-0.6,0.6-4.1,4.4-8.4,10.1L275.6,104z"/>
<path class="st1" d="M260.1,138.9c-0.3,0.7-0.6,1.5-0.9,2.3l-5.4-16.1l-0.1,0.1c0.7-1.2,1.3-2.4,2-3.5L260.1,138.9L260.1,138.9z"/>
<path class="st1" d="M263.3,132.1l-2.8-16.9l-0.1,0.1c2.3-2.8,5-5.2,7.9-7.4l0.3,15.1C266.5,126.2,264.8,129.1,263.3,132.1z"/>
<path class="st1" d="M292.2,120.1l0.1-0.2c-0.2,2.5-0.7,5.1-1.5,7.5l-26.2,2.7c1.4-2.5,2.8-4.9,4.2-7L292.2,120.1z"/>
<path class="st1" d="M290.6,127.9l0.1-0.2c-0.3,0.9-0.6,1.7-0.9,2.6l0.1-0.2l-26.5,2.4c0.3-0.6,0.7-1.3,1-1.9L290.6,127.9z"/>
<path class="st1" d="M260.3,138.4l-4.4-17.1l-0.1,0.1c1.3-2.1,2.8-4,4.3-5.9l2.9,17.1C262,134.6,261.1,136.5,260.3,138.4z"/>
<path class="st1" d="M259.2,142l25.8-2.5c-1.4,1.9-2.9,3.7-4.6,5.4l0.1-0.2l-23.6,4.8C257.5,146.9,258.3,144.4,259.2,142z"/>
<path class="st1" d="M283.8,103.4L283.8,103.4c3.5,0.7,5.9,3.1,7.3,6.6l-15.8,3.6C280.1,107.4,283.7,103.5,283.8,103.4z"/>
<path class="st1" d="M258.7,142.4c-0.8,2.2-1.5,4.5-2.1,6.8l-6.1-15.4l-0.1,0.1c0.4-2.2,1-4.2,2-6.2c0.4-0.8,0.7-1.5,1.1-2.3
	l5.5,16.3C258.9,141.9,258.8,142.2,258.7,142.4z"/>
<path class="st1" d="M269,122.7c2-3.2,4.1-6.1,6-8.6l16.1-3.6l0.1-0.2c1,2.7,1.4,5.9,1.1,9.5L269,122.7z"/>
<path class="st1" d="M285.3,139.1l-25.9,2.5l0,0c1.1-3,2.4-5.9,3.9-8.7l26.5-2.4c-0.4,1.2-1,2.4-1.5,3.6
	C287.4,135.9,286.4,137.5,285.3,139.1z"/>
<path class="st1" d="M222.6,144.1l-0.1,0.2c0.7-2.6,1.7-5.2,3.1-7.5l-0.1,0.2l5.9,7.8c0.1,3.2,0.4,6.8,0.9,10.6L222.6,144.1z"/>
<path class="st1" d="M225.7,136.6c1.5-2.4,3.3-4.3,5.4-5.4c0.1-0.1,0.2-0.1,0.3-0.2c-0.1,0.9-0.3,6,0,13.2L225.7,136.6z"/>
<path class="st2" d="M236,173.4c0.2,0.8,0.5,1.6,0.7,2.3l-14.4-8.9v0.2c-0.3-1.3-0.5-2.7-0.7-4L236,173.4L236,173.4z"/>
<path class="st1" d="M234.1,166.1l-12.9-11.2v0.2c0-3.6,0.5-7.2,1.4-10.7l9.9,11.5C232.8,159.5,233.4,162.9,234.1,166.1z"/>
<path class="st2" d="M221.1,155.4l13.1,11.3c0.5,2.2,1,4.2,1.6,6.2l-14.3-10.4v0.2C221.3,160.3,221.1,157.8,221.1,155.4z"/>
<path class="st1" d="M246.5,193.6c0-0.2,0-0.4,0-0.5c-2.3-2.8-4.3-5.8-5.9-9.1l7.9-9.9c0.1-0.3,0.2-0.7,0.3-1l-8.4,10.5
	c-1.1-2.4-2.2-4.8-3-7.2l16.7-16.8c-0.1-0.1-0.1-0.3-0.1-0.4l-16.7,16.7l0,0c-1-3-1.9-6.1-2.6-9.1l16.5-16.4c0-0.1-0.1-0.3-0.1-0.4
	l-16.6,16.4c-0.1-0.7-0.3-1.4-0.4-2l16.5-16.8c0-0.1-0.1-0.3-0.1-0.5L234,163.9c-0.6-2.8-1-5.5-1.3-8.1l16.1-17.3l-0.1-0.2
	c0.4,0.6,0.7,1.1,1.1,1.8c0-1.9,0.1-3.8,0.5-5.7l6.2,15.5c-0.5,2.2-0.9,4.3-1.1,6.5c0,0.4,0.1,0.7,0.1,1.1l-0.2,0.2
	c0,0.2,0,0.4,0,0.6l0.3-0.3c0,0.2,0,0.4,0,0.7c0.1-3,0.5-5.9,1.2-8.8l23.4-4.8c-1.2,1.2-2.4,2.4-3.7,3.5c2.5-0.8,5-1.2,7.6-1.3h-0.2
	l-3.5,9.1c-2.6,1.9-5.5,4-8.5,6.5l4.3-14.1c-0.1,0.1-0.3,0.3-0.5,0.4l-4.2,14c-2.8,2.3-5.3,4.6-7.7,6.9l1.9-13.2
	c-0.1,0.1-0.3,0.2-0.4,0.3l-2,13.3c-1.6,1.6-3,3.1-4.4,4.7l1-14.4c-0.1,0.1-0.3,0.2-0.4,0.2l-1,14.6h0.1c-0.5,0.6-1,1.3-1.6,1.9
	l-0.2-14.8c-0.1,0.1-0.3,0.1-0.4,0.2l0.2,15.1c-0.1,0.2-0.3,0.4-0.4,0.6c-1.5,1.9-2.8,3.8-4.1,5.8l-0.1-1.3
	c-0.1,0.4-0.2,0.8-0.3,1.2l0.1,0.8c-0.2,0.3-0.4,0.6-0.5,0.9c-0.1,0.4-0.3,0.9-0.4,1.3c0.4-0.7,0.8-1.4,1.2-2.1l23.7,2.7
	c-12.5,6.6-28,9.7-28.9,9.9c0.2-1,0.5-2.1,0.8-3.1c-0.1-0.1-0.2-0.2-0.2-0.3c0,0.1-0.1,0.2-0.1,0.4c0,0.1,0.1,0.1,0.1,0.1
	c-0.1,0-0.1-0.1-0.1-0.1c-0.2,0.7-0.4,1.4-0.6,2.1c-0.1-0.6-0.2-1.5-0.2-2.6c-4.3-2.2-15.3-8.4-21-18.2l14.7,8
	C241.9,187.5,244,190.7,246.5,193.6z M251.3,170.5v-0.6l-0.4,0.5v0.6L251.3,170.5z"/>
<path class="st1" d="M231.7,131l-0.1-0.1c3.2-1.6,6.7-1.4,10,0.4l-9.9,12.8C231.3,136.4,231.7,131.1,231.7,131z"/>
<path class="st2" d="M237.2,177c0.8,2.2,1.7,4.4,2.7,6.5l-14.6-8v0.2c-1.1-1.9-1.9-3.9-2.5-6c-0.2-0.8-0.4-1.6-0.6-2.5l14.6,9
	C237,176.5,237.1,176.7,237.2,177z"/>
<path class="st1" d="M231.7,144.7l10.1-13.1l-0.1-0.2c2.5,1.4,4.8,3.7,6.9,6.7l-16.1,17.1C232.1,151.5,231.8,147.9,231.7,144.7z"/>
<path class="st1" d="M284.3,147.3c2.8,0,5.4,0.5,7.4,1.6c0.1,0.1,0.2,0.1,0.3,0.2c-0.8,0.4-5.3,3-11.1,7.1L284.3,147.3z"/>
<path class="st2" d="M271.8,163.4l23.2,4.4l0.1-0.2c-1,2.4-2.3,4.6-3.8,6.7l-25.7-5.5C267.7,166.8,269.8,165,271.8,163.4z"/>
<path class="st2" d="M263.8,170.6c0.5-0.5,1-1,1.5-1.5l25.8,5.5l0.1-0.2c-0.5,0.7-1.1,1.5-1.6,2.2l0.1-0.2L263.8,170.6z"/>
<path class="st2" d="M252.4,184.8c1.4-2.2,2.9-4.4,4.5-6.4l25.3,5.6c-1.9,1.4-3.9,2.6-6,3.7l0.1-0.2L252.4,184.8z"/>
<path class="st1" d="M292.2,149.3v-0.1c3.1,1.9,4.8,4.9,5,8.7l-16.1-1.5C287.4,151.9,292.1,149.3,292.2,149.3z"/>
<path class="st2" d="M280.6,156.7l16.5,1.5l0.1-0.2c0.1,2.8-0.5,6-1.9,9.4l-23.1-4.4C275.1,160.7,278,158.5,280.6,156.7z"/>
<path class="st2" d="M257.1,178c2-2.5,4.1-4.8,6.3-7.1l26,5.9c-0.8,1-1.6,2-2.6,3c-1.3,1.4-2.8,2.7-4.3,3.8L257.1,178L257.1,178z"/>
<path class="st1" d="M274.8,113.9c-1.9,2.6-4,5.5-6.1,8.8l-0.3-14.9l-0.1,0.1c2.2-1.6,4.6-2.9,7.2-3.8l-0.1,0.1L274.8,113.9z"/>
<path class="st1" d="M275.6,104c2.7-0.9,5.2-1.2,7.6-0.8c0.1,0,0.2,0.1,0.4,0.1c-0.6,0.6-4.1,4.4-8.4,10.1L275.6,104z"/>
<path class="st1" d="M260.1,138.9c-0.3,0.7-0.6,1.5-0.9,2.3l-5.4-16.1l-0.1,0.1c0.7-1.2,1.3-2.4,2-3.5L260.1,138.9L260.1,138.9z"/>
<path class="st1" d="M263.3,132.1l-2.8-16.9l-0.1,0.1c2.3-2.8,5-5.2,7.9-7.4l0.3,15.1C266.5,126.2,264.8,129.1,263.3,132.1z"/>
<path class="st1" d="M292.2,120.1l0.1-0.2c-0.2,2.5-0.7,5.1-1.5,7.5l-26.2,2.7c1.4-2.5,2.8-4.9,4.2-7L292.2,120.1z"/>
<path class="st1" d="M290.6,127.9l0.1-0.2c-0.3,0.9-0.6,1.7-0.9,2.6l0.1-0.2l-26.5,2.4c0.3-0.6,0.7-1.3,1-1.9L290.6,127.9z"/>
<path class="st1" d="M260.3,138.4l-4.4-17.1l-0.1,0.1c1.3-2.1,2.8-4,4.3-5.9l2.9,17.1C262,134.6,261.1,136.5,260.3,138.4z"/>
<path class="st1" d="M259.2,142l25.8-2.5c-1.4,1.9-2.9,3.7-4.6,5.4l0.1-0.2l-23.6,4.8C257.5,146.9,258.3,144.4,259.2,142z"/>
<path class="st1" d="M283.8,103.4L283.8,103.4c3.5,0.7,5.9,3.1,7.3,6.6l-15.8,3.6C280.1,107.4,283.7,103.5,283.8,103.4z"/>
<path class="st1" d="M258.7,142.4c-0.8,2.2-1.5,4.5-2.1,6.8l-6.1-15.4l-0.1,0.1c0.4-2.2,1-4.2,2-6.2c0.4-0.8,0.7-1.5,1.1-2.3
	l5.5,16.3C258.9,141.9,258.8,142.2,258.7,142.4z"/>
<path class="st1" d="M269,122.7c2-3.2,4.1-6.1,6-8.6l16.1-3.6l0.1-0.2c1,2.7,1.4,5.9,1.1,9.5L269,122.7z"/>
<path class="st1" d="M285.3,139.1l-25.9,2.5l0,0c1.1-3,2.4-5.9,3.9-8.7l26.5-2.4c-0.4,1.2-1,2.4-1.5,3.6
	C287.4,135.9,286.4,137.5,285.3,139.1z"/>
<path class="st1" d="M222.6,144.1l-0.1,0.2c0.7-2.6,1.7-5.2,3.1-7.5l-0.1,0.2l5.9,7.8c0.1,3.2,0.4,6.8,0.9,10.6L222.6,144.1z"/>
<path class="st1" d="M225.7,136.6c1.5-2.4,3.3-4.3,5.4-5.4c0.1-0.1,0.2-0.1,0.3-0.2c-0.1,0.9-0.3,6,0,13.2L225.7,136.6z"/>
<path class="st3" d="M236,173.4c0.2,0.8,0.5,1.6,0.7,2.3l-14.4-8.9v0.2c-0.3-1.3-0.5-2.7-0.7-4L236,173.4L236,173.4z"/>
<path class="st1" d="M234.1,166.1l-12.9-11.2v0.2c0-3.6,0.5-7.2,1.4-10.7l9.9,11.5C232.8,159.5,233.4,162.9,234.1,166.1z"/>
<path class="st1" d="M221.1,155.4l13.1,11.3c0.5,2.2,1,4.2,1.6,6.2l-14.3-10.4v0.2C221.3,160.3,221.1,157.8,221.1,155.4z"/>
<path class="st1" d="M246.5,193.6c0-0.2,0-0.4,0-0.5c-2.3-2.8-4.3-5.8-5.9-9.1l7.9-9.9c0.1-0.3,0.2-0.7,0.3-1l-8.4,10.5
	c-1.1-2.4-2.2-4.8-3-7.2l16.7-16.8c-0.1-0.1-0.1-0.3-0.1-0.4l-16.7,16.7l0,0c-1-3-1.9-6.1-2.6-9.1l16.5-16.4c0-0.1-0.1-0.3-0.1-0.4
	l-16.6,16.4c-0.1-0.7-0.3-1.4-0.4-2l16.5-16.8c0-0.1-0.1-0.3-0.1-0.5L234,163.9c-0.6-2.8-1-5.5-1.3-8.1l16.1-17.3l-0.1-0.2
	c0.4,0.6,0.7,1.1,1.1,1.8c0-1.9,0.1-3.8,0.5-5.7l6.2,15.5c-0.5,2.2-0.9,4.3-1.1,6.5c0,0.4,0.1,0.7,0.1,1.1l-0.2,0.2
	c0,0.2,0,0.4,0,0.6l0.3-0.3c0,0.2,0,0.4,0,0.7c0.1-3,0.5-5.9,1.2-8.8l23.4-4.8c-1.2,1.2-2.4,2.4-3.7,3.5c2.5-0.8,5-1.2,7.6-1.3h-0.2
	l-3.5,9.1c-2.6,1.9-5.5,4-8.5,6.5l4.3-14.1c-0.1,0.1-0.3,0.3-0.5,0.4l-4.2,14c-2.8,2.3-5.3,4.6-7.7,6.9l1.9-13.2
	c-0.1,0.1-0.3,0.2-0.4,0.3l-2,13.3c-1.6,1.6-3,3.1-4.4,4.7l1-14.4c-0.1,0.1-0.3,0.2-0.4,0.2l-1,14.6h0.1c-0.5,0.6-1,1.3-1.6,1.9
	l-0.2-14.8c-0.1,0.1-0.3,0.1-0.4,0.2l0.2,15.1c-0.1,0.2-0.3,0.4-0.4,0.6c-1.5,1.9-2.8,3.8-4.1,5.8l-0.1-1.3
	c-0.1,0.4-0.2,0.8-0.3,1.2l0.1,0.8c-0.2,0.3-0.4,0.6-0.5,0.9c-0.1,0.4-0.3,0.9-0.4,1.3c0.4-0.7,0.8-1.4,1.2-2.1l23.7,2.7
	c-12.5,6.6-28,9.7-28.9,9.9c0.2-1,0.5-2.1,0.8-3.1c-0.1-0.1-0.2-0.2-0.2-0.3c0,0.1-0.1,0.2-0.1,0.4c0,0.1,0.1,0.1,0.1,0.1
	c-0.1,0-0.1-0.1-0.1-0.1c-0.2,0.7-0.4,1.4-0.6,2.1c-0.1-0.6-0.2-1.5-0.2-2.6c-4.3-2.2-15.3-8.4-21-18.2l14.7,8
	C241.9,187.5,244,190.7,246.5,193.6z M251.3,170.5v-0.6l-0.4,0.5v0.6L251.3,170.5z"/>
<path class="st1" d="M231.7,131l-0.1-0.1c3.2-1.6,6.7-1.4,10,0.4l-9.9,12.8C231.3,136.4,231.7,131.1,231.7,131z"/>
<path class="st3" d="M237.2,177c0.8,2.2,1.7,4.4,2.7,6.5l-14.6-8v0.2c-1.1-1.9-1.9-3.9-2.5-6c-0.2-0.8-0.4-1.6-0.6-2.5l14.6,9
	C237,176.5,237.1,176.7,237.2,177z"/>
<path class="st1" d="M231.7,144.7l10.1-13.1l-0.1-0.2c2.5,1.4,4.8,3.7,6.9,6.7l-16.1,17.1C232.1,151.5,231.8,147.9,231.7,144.7z"/>
<path class="st1" d="M284.3,147.3c2.8,0,5.4,0.5,7.4,1.6c0.1,0.1,0.2,0.1,0.3,0.2c-0.8,0.4-5.3,3-11.1,7.1L284.3,147.3z"/>
<path class="st3" d="M271.8,163.4l23.2,4.4l0.1-0.2c-1,2.4-2.3,4.6-3.8,6.7l-25.7-5.5C267.7,166.8,269.8,165,271.8,163.4z"/>
<path class="st3" d="M263.8,170.6c0.5-0.5,1-1,1.5-1.5l25.8,5.5l0.1-0.2c-0.5,0.7-1.1,1.5-1.6,2.2l0.1-0.2L263.8,170.6z"/>
<path class="st3" d="M252.4,184.8c1.4-2.2,2.9-4.4,4.5-6.4l25.3,5.6c-1.9,1.4-3.9,2.6-6,3.7l0.1-0.2L252.4,184.8z"/>
<path class="st1" d="M292.2,149.3v-0.1c3.1,1.9,4.8,4.9,5,8.7l-16.1-1.5C287.4,151.9,292.1,149.3,292.2,149.3z"/>
<path class="st1" d="M280.6,156.7l16.5,1.5l0.1-0.2c0.1,2.8-0.5,6-1.9,9.4l-23.1-4.4C275.1,160.7,278,158.5,280.6,156.7z"/>
<path class="st3" d="M257.1,178c2-2.5,4.1-4.8,6.3-7.1l26,5.9c-0.8,1-1.6,2-2.6,3c-1.3,1.4-2.8,2.7-4.3,3.8L257.1,178L257.1,178z"/>
<path class="st4" d="M106.8,110.3c0,0,3.8,10.9,1.5,12.5s7.9,15.3,7.9,15.3l12.3-3.3l-6.7-11.4c0,0-0.9-11.4-0.9-13.1
	C120.9,108.6,106.8,110.3,106.8,110.3z"/>
<path class="st5" d="M106.8,110.3c0,0,3.8,10.9,1.5,12.5s7.9,15.3,7.9,15.3l12.3-3.3l-6.7-11.4c0,0-0.9-11.4-0.9-13.1
	C120.9,108.6,106.8,110.3,106.8,110.3z"/>
<path class="st6" d="M100.4,187.6c0,0-1.1,13.9,0,21.1c1.1,7.2,2.8,27.2,2.8,27.2s0,37.8,6.1,38.4s10.6,1.1,11.1-1.1
	c0.6-2.2-2.8-3.3-1.1-4.5c1.7-1.1,2.2-5,0-9.4c-2.2-4.5,0-49.5,0-49.5l10.6,28.4c0,0,1.1,23.3,2.2,26.7c1.1,3.3-1.1,9.4,2.8,10
	s8.3-2.8,10.6-3.9c2.2-1.1-3.3-1.1-2.2-1.7c1.1-0.6,4.5-2.2,3.3-2.8c-1.1-0.6-2.2-27.2-2.2-27.2s-3-57-6.9-59.2s-6.4,1.6-6.4,1.6
	L100.4,187.6z"/>
<path class="st7" d="M110.3,272.4v4.5c0,0-5,12.1,0,12.1s8.9,1.3,8.9-0.4v-15L110.3,272.4z"/>
<path class="st8" d="M143.2,272.1v4.5c0,0,5,12.1,0,12.1s-8.9,1.3-8.9-0.4v-15L143.2,272.1z"/>
<circle class="st4" cx="114.5" cy="108.4" r="10"/>
<path class="st9" d="M111.5,127c0,0,2.8,8.3,7.2,6.7l4.5-1.7l7.8,53.4c0,0-6.1,8.9-15,3.3C107.1,183.2,111.5,127,111.5,127z"/>
<path class="st10" d="M119.3,125.3l2.5-5.3c0,0,14.7,6.9,17,9.2c2.2,2.2,2.2,5.6,2.2,5.6l-3.9,13.9c0,0,1.1,30.6,1.1,31.7
	c0,1.1,3.9,7.2,1.1,5s-3.3-4.5-5.6-1.1c-2.2,3.3-7.2,7.2-7.2,7.2L119.3,125.3z"/>
<path class="st4" d="M138.7,165.4L137,181c0,0-10,8.9-7.8,9.4s3.3-1.7,3.3-1.7s3.9,3.9,6.1,1.7s7.8-23.3,7.8-23.3L138.7,165.4z"/>
<path class="st8" d="M114.7,94.3c-2.2-0.1-4.6-0.1-6.5,1.1c-0.9,0.6-1.6,1.3-2.2,2.2c-1.8,2.3-3.4,5.2-2.7,8.1l0.8-0.3
	c0,0.8-0.2,1.5-0.5,2.2c0.1-0.3,0.5,0.2,0.4,0.5l-0.9,2.8c1.4-0.5,3.2,0.5,3.4,2c0.1-3.3,0.4-7.1,3.1-9c1.3-1,3-1.3,4.7-1.5
	c1.5-0.2,3.1-0.5,4.5,0s2.7,2,2.4,3.5c0.7-0.2,1.4,0.2,1.8,0.9s0.4,1.4,0.4,2.1c0.7,0.5,1.5-0.5,1.8-1.3c0.7-1.9,1.3-4,0.9-6
	s-2-3.9-4.1-3.9c0.2-0.3,0.4-0.6,0.4-1l-1.7-0.1c0.4-0.1,0.8-0.3,1.1-0.6C121.2,96.5,115.8,94.3,114.7,94.3z"/>
<path class="st10" d="M114.3,123.7c0,0-4.5-4.4-6.2-4.2c-1.6,0.3-3.9,4.2-3.9,4.2s-13.3,4.5-12.8,8.9c0.5,4.5,6.7,26.1,6.7,26.1
	s5,26.1,0.6,28.9s21.1,10,21.7,6.7c0.5-3.3,1.7-36.7,0-41.7C118.7,147.6,114.3,123.7,114.3,123.7z"/>
<path class="st10" d="M133.7,132.6h6.9c0,0,4.8,21.1,5.4,23.3c0.5,2.2,1.7,12.8,1.1,12.8s-11.7-2.2-11.7-0.6L133.7,132.6z"/>
<circle class="st11" cx="332" cy="139" r="5.4"/>
<circle class="st12" cx="332" cy="159.7" r="5.4"/>
<ellipse class="st13" cx="332" cy="180.4" rx="5.4" ry="5.4"/>
<ellipse class="st13" cx="332" cy="201.2" rx="5.4" ry="5.4"/>
<ellipse class="st13" cx="332" cy="221.9" rx="5.4" ry="5.4"/>
<rect x="83.1" y="288.8" class="st14" width="249.6" height="0.6"/>
<polygon class="st15" points="332.4,141.2 334.9,137.8 334.3,137.3 332.2,140.1 324,133.4 323.5,134 "/>
<polygon class="st16" points="299,158.7 317.6,158.9 299,166.6 299,289.2 113.2,289.2 113.2,158.7 "/>
<rect x="323.6" y="144.1" class="st17" width="16.6" height="0.5"/>
<rect x="323.6" y="164.8" class="st17" width="16.6" height="0.5"/>
<rect x="323.6" y="185.6" class="st17" width="16.6" height="0.5"/>
<rect x="323.6" y="206.3" class="st17" width="16.6" height="0.5"/>
<rect x="323.6" y="227" class="st17" width="16.6" height="0.5"/>
<circle class="st18" cx="332" cy="159.7" r="2.6"/>
<rect x="147.7" y="165.6" class="st7" width="116.7" height="9.7"/>
<rect x="122" y="269.2" class="st19" width="34.5" height="11.8"/>
<rect x="203.6" y="189.9" class="st7" width="86.7" height="70.6"/>
<rect x="191" y="225" transform="matrix(0.7755 -0.6314 0.6314 0.7755 -86.7585 206.4609)" class="st18" width="111.8" height="0.5"/>
<rect x="246.6" y="169.3" transform="matrix(0.6314 -0.7755 0.7755 0.6314 -83.6723 274.4475)" class="st18" width="0.5" height="111.8"/>
<rect x="121.7" y="196" class="st7" width="62.4" height="1.8"/>
<rect x="121.7" y="201.7" class="st7" width="62.4" height="1.8"/>
<rect x="121.7" y="207.3" class="st7" width="62.4" height="1.8"/>
<rect x="121.7" y="212.9" class="st7" width="62.4" height="1.8"/>
<rect x="121.7" y="218.6" class="st7" width="62.4" height="1.8"/>
<rect x="121.7" y="224.2" class="st7" width="62.4" height="1.8"/>
<rect x="121.7" y="229.8" class="st7" width="62.4" height="1.8"/>
<rect x="121.7" y="235.5" class="st7" width="62.4" height="1.8"/>
<rect x="121.7" y="241.1" class="st7" width="62.4" height="1.8"/>
<rect x="121.7" y="246.7" class="st7" width="62.4" height="1.8"/>
<rect x="121.7" y="252.3" class="st7" width="62.4" height="1.8"/>
<rect x="121.7" y="258" class="st7" width="62.4" height="1.8"/>
<path class="st4" d="M96.4,170.4l7.8,3.3c0,0,15,2.2,15-3.9c0-6.1-15-2.8-15-2.8l-5-1.6L96.4,170.4z"/>
<path class="st10" d="M98.1,129.3l-6.7,1.7l-5,29.5c0,0-1.7,7.8,1.1,8.3s10.6,5,10.6,5s1.1-8.3,3.3-8.3l-5.6-4.5l3.3-19.5
	L98.1,129.3z"/>
</svg>
