<?xml version="1.0" encoding="utf-8"?>
<!-- Generator: Adobe Illustrator 22.0.1, SVG Export Plug-In . SVG Version: 6.00 Build 0)  -->
<svg version="1.1" id="Layer_1" xmlns="http://www.w3.org/2000/svg" xmlns:xlink="http://www.w3.org/1999/xlink" x="0px" y="0px"
	 viewBox="0 0 1300 400" style="enable-background:new 0 0 1300 400;" xml:space="preserve">
<style type="text/css">
	.st0{fill:url(#SVGID_1_);stroke:#000000;stroke-width:1.6452;stroke-miterlimit:10;}
	.st1{fill:#B5D5E5;}
	.st2{fill:#E6E6E6;}
	.st3{fill:#0D8CD8;}
	.st4{fill:#FFB8B8;}
	.st5{opacity:0.1;enable-background:new    ;}
	.st6{fill:#B6B6B7;}
	.st7{fill:#FFFFFF;}
	.st8{fill:#2F2E41;}
	.st9{fill:#D0CDE1;}
	.st10{fill:#E5E5E5;}
	.st11{fill:#9F9EAF;}
	.st12{fill:#A8D8EF;}
	.st13{fill:#8F8F9B;}
	.st14{fill:#3F3D56;}
	.st15{fill:#89C6E5;}
	.st16{fill:#7F7F87;}
	.st17{fill:#7D7C9B;}
	.st18{fill:#F2F2F2;}
	.st19{fill:#BDD8E5;}
</style>
<linearGradient id="SVGID_1_" gradientUnits="userSpaceOnUse" x1="1300.4" y1="201.2" x2="2600.3999" y2="201.2" gradientTransform="matrix(-1 0 0 1 2600 0)">
	<stop  offset="0" style="stop-color:#00354D"/>
	<stop  offset="0.4129" style="stop-color:#00364F"/>
	<stop  offset="0.5616" style="stop-color:#003C56"/>
	<stop  offset="0.6676" style="stop-color:#004561"/>
	<stop  offset="0.7534" style="stop-color:#005272"/>
	<stop  offset="0.8268" style="stop-color:#006388"/>
	<stop  offset="0.8918" style="stop-color:#0078A4"/>
	<stop  offset="0.9492" style="stop-color:#0091C3"/>
	<stop  offset="1" style="stop-color:#00ACE6"/>
	<stop  offset="1" style="stop-color:#0093C7"/>
	<stop  offset="1" style="stop-color:#0075A3"/>
	<stop  offset="1" style="stop-color:#005B83"/>
	<stop  offset="1" style="stop-color:#004567"/>
	<stop  offset="1" style="stop-color:#003351"/>
	<stop  offset="1" style="stop-color:#002540"/>
	<stop  offset="1" style="stop-color:#001B35"/>
	<stop  offset="1" style="stop-color:#00162E"/>
	<stop  offset="1" style="stop-color:#00142C"/>
</linearGradient>
<rect x="-0.4" y="1.2" class="st0" width="1300" height="400"/>
<path class="st1" d="M1024.8,113.9c1.9,2.6,4,5.5,6.1,8.8l0.3-14.9l0.1,0.1c-2.2-1.6-4.6-2.9-7.2-3.8l0.1,0.1L1024.8,113.9z"/>
<path class="st1" d="M1024,104c-2.7-0.9-5.2-1.2-7.6-0.8c-0.1,0-0.2,0.1-0.4,0.1c0.6,0.6,4.1,4.4,8.4,10.1L1024,104z"/>
<path class="st1" d="M1039.5,138.9c0.3,0.7,0.6,1.5,0.9,2.3l5.4-16.1l0.1,0.1c-0.7-1.2-1.3-2.4-2-3.5L1039.5,138.9L1039.5,138.9z"/>
<path class="st1" d="M1036.3,132.1l2.8-16.9l0.1,0.1c-2.3-2.8-5-5.2-7.9-7.4L1031,123C1033.1,126.2,1034.8,129.1,1036.3,132.1z"/>
<path class="st1" d="M1007.4,120.1l-0.1-0.2c0.2,2.5,0.7,5.1,1.5,7.5l26.2,2.7c-1.4-2.5-2.8-4.9-4.2-7L1007.4,120.1z"/>
<path class="st1" d="M1009,127.9l-0.1-0.2c0.3,0.9,0.6,1.7,0.9,2.6l-0.1-0.2l26.5,2.4c-0.3-0.6-0.7-1.3-1-1.9L1009,127.9z"/>
<path class="st1" d="M1039.3,138.4l4.4-17.1l0.1,0.1c-1.3-2.1-2.8-4-4.3-5.9l-2.9,17.1C1037.6,134.6,1038.5,136.5,1039.3,138.4z"/>
<path class="st1" d="M1040.4,142l-25.8-2.5c1.4,1.9,2.9,3.7,4.6,5.4l-0.1-0.2l23.6,4.8C1042.1,146.9,1041.3,144.4,1040.4,142z"/>
<path class="st1" d="M1015.8,103.4L1015.8,103.4c-3.5,0.7-5.9,3.1-7.3,6.6l15.8,3.6C1019.5,107.4,1015.9,103.5,1015.8,103.4z"/>
<path class="st1" d="M1040.9,142.4c0.8,2.2,1.5,4.5,2.1,6.8l6.1-15.4l0.1,0.1c-0.4-2.2-1-4.2-2-6.2c-0.4-0.8-0.7-1.5-1.1-2.3
	l-5.5,16.3C1040.7,141.9,1040.8,142.2,1040.9,142.4z"/>
<path class="st1" d="M1030.6,122.7c-2-3.2-4.1-6.1-6-8.6l-16.1-3.6l-0.1-0.2c-1,2.7-1.4,5.9-1.1,9.5L1030.6,122.7z"/>
<path class="st1" d="M1014.3,139.1l25.9,2.5l0,0c-1.1-3-2.4-5.9-3.9-8.7l-26.5-2.4c0.4,1.2,1,2.4,1.5,3.6
	C1012.2,135.9,1013.2,137.5,1014.3,139.1z"/>
<path class="st1" d="M1077,144.1l0.1,0.2c-0.7-2.6-1.7-5.2-3.1-7.5l0.1,0.2l-5.9,7.8c-0.1,3.2-0.4,6.8-0.9,10.6L1077,144.1z"/>
<path class="st1" d="M1073.9,136.6c-1.5-2.4-3.3-4.3-5.4-5.4c-0.1-0.1-0.2-0.1-0.3-0.2c0.1,0.9,0.3,6,0,13.2L1073.9,136.6z"/>
<path class="st2" d="M1063.6,173.4c-0.2,0.8-0.5,1.6-0.7,2.3l14.4-8.9v0.2c0.3-1.3,0.5-2.7,0.7-4L1063.6,173.4L1063.6,173.4z"/>
<path class="st1" d="M1065.5,166.1l12.9-11.2v0.2c0-3.6-0.5-7.2-1.4-10.7l-9.9,11.5C1066.8,159.5,1066.2,162.9,1065.5,166.1z"/>
<path class="st2" d="M1078.5,155.4l-13.1,11.3c-0.5,2.2-1,4.2-1.6,6.2l14.3-10.4v0.2C1078.3,160.3,1078.5,157.8,1078.5,155.4z"/>
<path class="st1" d="M1053.1,193.6c0-0.2,0-0.4,0-0.5c2.3-2.8,4.3-5.8,5.9-9.1l-7.9-9.9c-0.1-0.3-0.2-0.7-0.3-1l8.4,10.5
	c1.1-2.4,2.2-4.8,3-7.2l-16.7-16.8c0.1-0.1,0.1-0.3,0.1-0.4l16.7,16.7l0,0c1-3,1.9-6.1,2.6-9.1l-16.5-16.4c0-0.1,0.1-0.3,0.1-0.4
	l16.6,16.4c0.1-0.7,0.3-1.4,0.4-2l-16.5-16.8c0-0.1,0.1-0.3,0.1-0.5l16.5,16.8c0.6-2.8,1-5.5,1.3-8.1l-16.1-17.3l0.1-0.2
	c-0.4,0.6-0.7,1.1-1.1,1.8c0-1.9-0.1-3.8-0.5-5.7l-6.2,15.5c0.5,2.2,0.9,4.3,1.1,6.5c0,0.4-0.1,0.7-0.1,1.1l0.2,0.2
	c0,0.2,0,0.4,0,0.6l-0.3-0.3c0,0.2,0,0.4,0,0.7c-0.1-3-0.5-5.9-1.2-8.8l-23.4-4.8c1.2,1.2,2.4,2.4,3.7,3.5c-2.5-0.8-5-1.2-7.6-1.3
	h0.2l3.5,9.1c2.6,1.9,5.5,4,8.5,6.5l-4.3-14.1c0.1,0.1,0.3,0.3,0.5,0.4l4.2,14c2.8,2.3,5.3,4.6,7.7,6.9l-1.9-13.2
	c0.1,0.1,0.3,0.2,0.4,0.3l2,13.3c1.6,1.6,3,3.1,4.4,4.7l-1-14.4c0.1,0.1,0.3,0.2,0.4,0.2l1,14.6h-0.1c0.5,0.6,1,1.3,1.6,1.9
	l0.2-14.8c0.1,0.1,0.3,0.1,0.4,0.2L1043,178c0.1,0.2,0.3,0.4,0.4,0.6c1.5,1.9,2.8,3.8,4.1,5.8l0.1-1.3c0.1,0.4,0.2,0.8,0.3,1.2
	l-0.1,0.8c0.2,0.3,0.4,0.6,0.5,0.9c0.1,0.4,0.3,0.9,0.4,1.3c-0.4-0.7-0.8-1.4-1.2-2.1l-23.7,2.7c12.5,6.6,28,9.7,28.9,9.9
	c-0.2-1-0.5-2.1-0.8-3.1c0.1-0.1,0.2-0.2,0.2-0.3c0,0.1,0.1,0.2,0.1,0.4c0,0.1-0.1,0.1-0.1,0.1c0.1,0,0.1-0.1,0.1-0.1
	c0.2,0.7,0.4,1.4,0.6,2.1c0.1-0.6,0.2-1.5,0.2-2.6c4.3-2.2,15.3-8.4,21-18.2l-14.7,8C1057.7,187.5,1055.6,190.7,1053.1,193.6z
	 M1048.3,170.5v-0.6l0.4,0.5v0.6L1048.3,170.5z"/>
<path class="st1" d="M1067.9,131l0.1-0.1c-3.2-1.6-6.7-1.4-10,0.4l9.9,12.8C1068.3,136.4,1067.9,131.1,1067.9,131z"/>
<path class="st2" d="M1062.4,177c-0.8,2.2-1.7,4.4-2.7,6.5l14.6-8v0.2c1.1-1.9,1.9-3.9,2.5-6c0.2-0.8,0.4-1.6,0.6-2.5l-14.6,9
	C1062.6,176.5,1062.5,176.7,1062.4,177z"/>
<path class="st1" d="M1067.9,144.7l-10.1-13.1l0.1-0.2c-2.5,1.4-4.8,3.7-6.9,6.7l16.1,17.1C1067.5,151.5,1067.8,147.9,1067.9,144.7z
	"/>
<path class="st1" d="M1015.3,147.3c-2.8,0-5.4,0.5-7.4,1.6c-0.1,0.1-0.2,0.1-0.3,0.2c0.8,0.4,5.3,3,11.1,7.1L1015.3,147.3z"/>
<path class="st2" d="M1027.8,163.4l-23.2,4.4l-0.1-0.2c1,2.4,2.3,4.6,3.8,6.7l25.7-5.5C1031.9,166.8,1029.8,165,1027.8,163.4z"/>
<path class="st2" d="M1035.8,170.6c-0.5-0.5-1-1-1.5-1.5l-25.8,5.5l-0.1-0.2c0.5,0.7,1.1,1.5,1.6,2.2l-0.1-0.2L1035.8,170.6z"/>
<path class="st2" d="M1047.2,184.8c-1.4-2.2-2.9-4.4-4.5-6.4l-25.3,5.6c1.9,1.4,3.9,2.6,6,3.7l-0.1-0.2L1047.2,184.8z"/>
<path class="st1" d="M1007.4,149.3v-0.1c-3.1,1.9-4.8,4.9-5,8.7l16.1-1.5C1012.2,151.9,1007.5,149.3,1007.4,149.3z"/>
<path class="st2" d="M1019,156.7l-16.5,1.5l-0.1-0.2c-0.1,2.8,0.5,6,1.9,9.4l23.1-4.4C1024.5,160.7,1021.6,158.5,1019,156.7z"/>
<path class="st2" d="M1042.5,178c-2-2.5-4.1-4.8-6.3-7.1l-26,5.9c0.8,1,1.6,2,2.6,3c1.3,1.4,2.8,2.7,4.3,3.8L1042.5,178L1042.5,178z
	"/>
<path class="st1" d="M1024.8,113.9c1.9,2.6,4,5.5,6.1,8.8l0.3-14.9l0.1,0.1c-2.2-1.6-4.6-2.9-7.2-3.8l0.1,0.1L1024.8,113.9z"/>
<path class="st1" d="M1024,104c-2.7-0.9-5.2-1.2-7.6-0.8c-0.1,0-0.2,0.1-0.4,0.1c0.6,0.6,4.1,4.4,8.4,10.1L1024,104z"/>
<path class="st1" d="M1039.5,138.9c0.3,0.7,0.6,1.5,0.9,2.3l5.4-16.1l0.1,0.1c-0.7-1.2-1.3-2.4-2-3.5L1039.5,138.9L1039.5,138.9z"/>
<path class="st1" d="M1036.3,132.1l2.8-16.9l0.1,0.1c-2.3-2.8-5-5.2-7.9-7.4L1031,123C1033.1,126.2,1034.8,129.1,1036.3,132.1z"/>
<path class="st1" d="M1007.4,120.1l-0.1-0.2c0.2,2.5,0.7,5.1,1.5,7.5l26.2,2.7c-1.4-2.5-2.8-4.9-4.2-7L1007.4,120.1z"/>
<path class="st1" d="M1009,127.9l-0.1-0.2c0.3,0.9,0.6,1.7,0.9,2.6l-0.1-0.2l26.5,2.4c-0.3-0.6-0.7-1.3-1-1.9L1009,127.9z"/>
<path class="st1" d="M1039.3,138.4l4.4-17.1l0.1,0.1c-1.3-2.1-2.8-4-4.3-5.9l-2.9,17.1C1037.6,134.6,1038.5,136.5,1039.3,138.4z"/>
<path class="st1" d="M1040.4,142l-25.8-2.5c1.4,1.9,2.9,3.7,4.6,5.4l-0.1-0.2l23.6,4.8C1042.1,146.9,1041.3,144.4,1040.4,142z"/>
<path class="st1" d="M1015.8,103.4L1015.8,103.4c-3.5,0.7-5.9,3.1-7.3,6.6l15.8,3.6C1019.5,107.4,1015.9,103.5,1015.8,103.4z"/>
<path class="st1" d="M1040.9,142.4c0.8,2.2,1.5,4.5,2.1,6.8l6.1-15.4l0.1,0.1c-0.4-2.2-1-4.2-2-6.2c-0.4-0.8-0.7-1.5-1.1-2.3
	l-5.5,16.3C1040.7,141.9,1040.8,142.2,1040.9,142.4z"/>
<path class="st1" d="M1030.6,122.7c-2-3.2-4.1-6.1-6-8.6l-16.1-3.6l-0.1-0.2c-1,2.7-1.4,5.9-1.1,9.5L1030.6,122.7z"/>
<path class="st1" d="M1014.3,139.1l25.9,2.5l0,0c-1.1-3-2.4-5.9-3.9-8.7l-26.5-2.4c0.4,1.2,1,2.4,1.5,3.6
	C1012.2,135.9,1013.2,137.5,1014.3,139.1z"/>
<path class="st1" d="M1077,144.1l0.1,0.2c-0.7-2.6-1.7-5.2-3.1-7.5l0.1,0.2l-5.9,7.8c-0.1,3.2-0.4,6.8-0.9,10.6L1077,144.1z"/>
<path class="st1" d="M1073.9,136.6c-1.5-2.4-3.3-4.3-5.4-5.4c-0.1-0.1-0.2-0.1-0.3-0.2c0.1,0.9,0.3,6,0,13.2L1073.9,136.6z"/>
<path class="st3" d="M1063.6,173.4c-0.2,0.8-0.5,1.6-0.7,2.3l14.4-8.9v0.2c0.3-1.3,0.5-2.7,0.7-4L1063.6,173.4L1063.6,173.4z"/>
<path class="st1" d="M1065.5,166.1l12.9-11.2v0.2c0-3.6-0.5-7.2-1.4-10.7l-9.9,11.5C1066.8,159.5,1066.2,162.9,1065.5,166.1z"/>
<path class="st1" d="M1078.5,155.4l-13.1,11.3c-0.5,2.2-1,4.2-1.6,6.2l14.3-10.4v0.2C1078.3,160.3,1078.5,157.8,1078.5,155.4z"/>
<path class="st1" d="M1053.1,193.6c0-0.2,0-0.4,0-0.5c2.3-2.8,4.3-5.8,5.9-9.1l-7.9-9.9c-0.1-0.3-0.2-0.7-0.3-1l8.4,10.5
	c1.1-2.4,2.2-4.8,3-7.2l-16.7-16.8c0.1-0.1,0.1-0.3,0.1-0.4l16.7,16.7l0,0c1-3,1.9-6.1,2.6-9.1l-16.5-16.4c0-0.1,0.1-0.3,0.1-0.4
	l16.6,16.4c0.1-0.7,0.3-1.4,0.4-2l-16.5-16.8c0-0.1,0.1-0.3,0.1-0.5l16.5,16.8c0.6-2.8,1-5.5,1.3-8.1l-16.1-17.3l0.1-0.2
	c-0.4,0.6-0.7,1.1-1.1,1.8c0-1.9-0.1-3.8-0.5-5.7l-6.2,15.5c0.5,2.2,0.9,4.3,1.1,6.5c0,0.4-0.1,0.7-0.1,1.1l0.2,0.2
	c0,0.2,0,0.4,0,0.6l-0.3-0.3c0,0.2,0,0.4,0,0.7c-0.1-3-0.5-5.9-1.2-8.8l-23.4-4.8c1.2,1.2,2.4,2.4,3.7,3.5c-2.5-0.8-5-1.2-7.6-1.3
	h0.2l3.5,9.1c2.6,1.9,5.5,4,8.5,6.5l-4.3-14.1c0.1,0.1,0.3,0.3,0.5,0.4l4.2,14c2.8,2.3,5.3,4.6,7.7,6.9l-1.9-13.2
	c0.1,0.1,0.3,0.2,0.4,0.3l2,13.3c1.6,1.6,3,3.1,4.4,4.7l-1-14.4c0.1,0.1,0.3,0.2,0.4,0.2l1,14.6h-0.1c0.5,0.6,1,1.3,1.6,1.9
	l0.2-14.8c0.1,0.1,0.3,0.1,0.4,0.2L1043,178c0.1,0.2,0.3,0.4,0.4,0.6c1.5,1.9,2.8,3.8,4.1,5.8l0.1-1.3c0.1,0.4,0.2,0.8,0.3,1.2
	l-0.1,0.8c0.2,0.3,0.4,0.6,0.5,0.9c0.1,0.4,0.3,0.9,0.4,1.3c-0.4-0.7-0.8-1.4-1.2-2.1l-23.7,2.7c12.5,6.6,28,9.7,28.9,9.9
	c-0.2-1-0.5-2.1-0.8-3.1c0.1-0.1,0.2-0.2,0.2-0.3c0,0.1,0.1,0.2,0.1,0.4c0,0.1-0.1,0.1-0.1,0.1c0.1,0,0.1-0.1,0.1-0.1
	c0.2,0.7,0.4,1.4,0.6,2.1c0.1-0.6,0.2-1.5,0.2-2.6c4.3-2.2,15.3-8.4,21-18.2l-14.7,8C1057.7,187.5,1055.6,190.7,1053.1,193.6z
	 M1048.3,170.5v-0.6l0.4,0.5v0.6L1048.3,170.5z"/>
<path class="st1" d="M1067.9,131l0.1-0.1c-3.2-1.6-6.7-1.4-10,0.4l9.9,12.8C1068.3,136.4,1067.9,131.1,1067.9,131z"/>
<path class="st3" d="M1062.4,177c-0.8,2.2-1.7,4.4-2.7,6.5l14.6-8v0.2c1.1-1.9,1.9-3.9,2.5-6c0.2-0.8,0.4-1.6,0.6-2.5l-14.6,9
	C1062.6,176.5,1062.5,176.7,1062.4,177z"/>
<path class="st1" d="M1067.9,144.7l-10.1-13.1l0.1-0.2c-2.5,1.4-4.8,3.7-6.9,6.7l16.1,17.1C1067.5,151.5,1067.8,147.9,1067.9,144.7z
	"/>
<path class="st1" d="M1015.3,147.3c-2.8,0-5.4,0.5-7.4,1.6c-0.1,0.1-0.2,0.1-0.3,0.2c0.8,0.4,5.3,3,11.1,7.1L1015.3,147.3z"/>
<path class="st3" d="M1027.8,163.4l-23.2,4.4l-0.1-0.2c1,2.4,2.3,4.6,3.8,6.7l25.7-5.5C1031.9,166.8,1029.8,165,1027.8,163.4z"/>
<path class="st3" d="M1035.8,170.6c-0.5-0.5-1-1-1.5-1.5l-25.8,5.5l-0.1-0.2c0.5,0.7,1.1,1.5,1.6,2.2l-0.1-0.2L1035.8,170.6z"/>
<path class="st3" d="M1047.2,184.8c-1.4-2.2-2.9-4.4-4.5-6.4l-25.3,5.6c1.9,1.4,3.9,2.6,6,3.7l-0.1-0.2L1047.2,184.8z"/>
<path class="st1" d="M1007.4,149.3v-0.1c-3.1,1.9-4.8,4.9-5,8.7l16.1-1.5C1012.2,151.9,1007.5,149.3,1007.4,149.3z"/>
<path class="st1" d="M1019,156.7l-16.5,1.5l-0.1-0.2c-0.1,2.8,0.5,6,1.9,9.4l23.1-4.4C1024.5,160.7,1021.6,158.5,1019,156.7z"/>
<path class="st3" d="M1042.5,178c-2-2.5-4.1-4.8-6.3-7.1l-26,5.9c0.8,1,1.6,2,2.6,3c1.3,1.4,2.8,2.7,4.3,3.8L1042.5,178L1042.5,178z
	"/>
<path class="st4" d="M1192.8,110.3c0,0-3.8,10.9-1.5,12.5s-7.9,15.3-7.9,15.3l-12.3-3.3l6.7-11.4c0,0,0.9-11.4,0.9-13.1
	C1178.7,108.6,1192.8,110.3,1192.8,110.3z"/>
<path class="st5" d="M1192.8,110.3c0,0-3.8,10.9-1.5,12.5s-7.9,15.3-7.9,15.3l-12.3-3.3l6.7-11.4c0,0,0.9-11.4,0.9-13.1
	C1178.7,108.6,1192.8,110.3,1192.8,110.3z"/>
<path class="st6" d="M1199.2,187.6c0,0,1.1,13.9,0,21.1c-1.1,7.2-2.8,27.2-2.8,27.2s0,37.8-6.1,38.4s-10.6,1.1-11.1-1.1
	c-0.6-2.2,2.8-3.3,1.1-4.5c-1.7-1.1-2.2-5,0-9.4c2.2-4.5,0-49.5,0-49.5l-10.6,28.4c0,0-1.1,23.3-2.2,26.7c-1.1,3.3,1.1,9.4-2.8,10
	s-8.3-2.8-10.6-3.9c-2.2-1.1,3.3-1.1,2.2-1.7c-1.1-0.6-4.5-2.2-3.3-2.8c1.1-0.6,2.2-27.2,2.2-27.2s3-57,6.9-59.2s6.4,1.6,6.4,1.6
	L1199.2,187.6z"/>
<path class="st7" d="M1189.3,272.4v4.5c0,0,5,12.1,0,12.1s-8.9,1.3-8.9-0.4v-15L1189.3,272.4z"/>
<path class="st8" d="M1156.4,272.1v4.5c0,0-5,12.1,0,12.1s8.9,1.3,8.9-0.4v-15L1156.4,272.1z"/>
<circle class="st4" cx="1185.1" cy="108.4" r="10"/>
<path class="st9" d="M1188.1,127c0,0-2.8,8.3-7.2,6.7l-4.5-1.7l-7.8,53.4c0,0,6.1,8.9,15,3.3C1192.5,183.2,1188.1,127,1188.1,127z"
	/>
<path class="st10" d="M1180.3,125.3l-2.5-5.3c0,0-14.7,6.9-17,9.2c-2.2,2.2-2.2,5.6-2.2,5.6l3.9,13.9c0,0-1.1,30.6-1.1,31.7
	c0,1.1-3.9,7.2-1.1,5s3.3-4.5,5.6-1.1c2.2,3.3,7.2,7.2,7.2,7.2L1180.3,125.3z"/>
<path class="st4" d="M1160.9,165.4l1.7,15.6c0,0,10,8.9,7.8,9.4s-3.3-1.7-3.3-1.7s-3.9,3.9-6.1,1.7s-7.8-23.3-7.8-23.3L1160.9,165.4
	z"/>
<path class="st8" d="M1184.9,94.3c2.2-0.1,4.6-0.1,6.5,1.1c0.9,0.6,1.6,1.3,2.2,2.2c1.8,2.3,3.4,5.2,2.7,8.1l-0.8-0.3
	c0,0.8,0.2,1.5,0.5,2.2c-0.1-0.3-0.5,0.2-0.4,0.5l0.9,2.8c-1.4-0.5-3.2,0.5-3.4,2c-0.1-3.3-0.4-7.1-3.1-9c-1.3-1-3-1.3-4.7-1.5
	c-1.5-0.2-3.1-0.5-4.5,0s-2.7,2-2.4,3.5c-0.7-0.2-1.4,0.2-1.8,0.9s-0.4,1.4-0.4,2.1c-0.7,0.5-1.5-0.5-1.8-1.3c-0.7-1.9-1.3-4-0.9-6
	s2-3.9,4.1-3.9c-0.2-0.3-0.4-0.6-0.4-1l1.7-0.1c-0.4-0.1-0.8-0.3-1.1-0.6C1178.4,96.5,1183.8,94.3,1184.9,94.3z"/>
<path class="st10" d="M1185.3,123.7c0,0,4.5-4.4,6.2-4.2c1.6,0.3,3.9,4.2,3.9,4.2s13.3,4.5,12.8,8.9c-0.5,4.5-6.7,26.1-6.7,26.1
	s-5,26.1-0.6,28.9s-21.1,10-21.7,6.7c-0.5-3.3-1.7-36.7,0-41.7C1180.9,147.6,1185.3,123.7,1185.3,123.7z"/>
<path class="st10" d="M1165.9,132.6h-6.9c0,0-4.8,21.1-5.4,23.3c-0.5,2.2-1.7,12.8-1.1,12.8s11.7-2.2,11.7-0.6L1165.9,132.6z"/>
<circle class="st11" cx="967.6" cy="139" r="5.4"/>
<circle class="st12" cx="967.6" cy="159.7" r="5.4"/>
<ellipse class="st13" cx="967.6" cy="180.4" rx="5.4" ry="5.4"/>
<ellipse class="st13" cx="967.6" cy="201.2" rx="5.4" ry="5.4"/>
<ellipse class="st13" cx="967.6" cy="221.9" rx="5.4" ry="5.4"/>
<rect x="966.9" y="288.8" class="st14" width="249.6" height="0.6"/>
<polygon class="st15" points="967.2,141.2 964.7,137.8 965.3,137.3 967.4,140.1 975.6,133.4 976.1,134 "/>
<polygon class="st16" points="1000.6,158.7 982,158.9 1000.6,166.6 1000.6,289.2 1186.4,289.2 1186.4,158.7 "/>
<rect x="959.4" y="144.1" class="st17" width="16.6" height="0.5"/>
<rect x="959.4" y="164.8" class="st17" width="16.6" height="0.5"/>
<rect x="959.4" y="185.6" class="st17" width="16.6" height="0.5"/>
<rect x="959.4" y="206.3" class="st17" width="16.6" height="0.5"/>
<rect x="959.4" y="227" class="st17" width="16.6" height="0.5"/>
<circle class="st18" cx="967.6" cy="159.7" r="2.6"/>
<rect x="1035.2" y="165.6" class="st7" width="116.7" height="9.7"/>
<rect x="1143.1" y="269.2" class="st19" width="34.5" height="11.8"/>
<rect x="1009.3" y="189.9" class="st7" width="86.7" height="70.6"/>
<rect x="1052.4" y="169.3" transform="matrix(0.6314 -0.7755 0.7755 0.6314 213.3945 899.3525)" class="st18" width="0.5" height="111.8"/>
<rect x="996.9" y="225" transform="matrix(0.7755 -0.6314 0.6314 0.7755 94.162 715.2593)" class="st18" width="111.8" height="0.5"/>
<rect x="1115.5" y="196" class="st7" width="62.4" height="1.8"/>
<rect x="1115.5" y="201.7" class="st7" width="62.4" height="1.8"/>
<rect x="1115.5" y="207.3" class="st7" width="62.4" height="1.8"/>
<rect x="1115.5" y="212.9" class="st7" width="62.4" height="1.8"/>
<rect x="1115.5" y="218.6" class="st7" width="62.4" height="1.8"/>
<rect x="1115.5" y="224.2" class="st7" width="62.4" height="1.8"/>
<rect x="1115.5" y="229.8" class="st7" width="62.4" height="1.8"/>
<rect x="1115.5" y="235.5" class="st7" width="62.4" height="1.8"/>
<rect x="1115.5" y="241.1" class="st7" width="62.4" height="1.8"/>
<rect x="1115.5" y="246.7" class="st7" width="62.4" height="1.8"/>
<rect x="1115.5" y="252.3" class="st7" width="62.4" height="1.8"/>
<rect x="1115.5" y="258" class="st7" width="62.4" height="1.8"/>
<path class="st4" d="M1203.2,170.4l-7.8,3.3c0,0-15,2.2-15-3.9c0-6.1,15-2.8,15-2.8l5-1.6L1203.2,170.4z"/>
<path class="st10" d="M1201.5,129.3l6.7,1.7l5,29.5c0,0,1.7,7.8-1.1,8.3s-10.6,5-10.6,5s-1.1-8.3-3.3-8.3l5.6-4.5l-3.3-19.5
	L1201.5,129.3z"/>
</svg>
