<?xml version="1.0" encoding="utf-8"?>
<!-- Generator: Adobe Illustrator 22.0.1, SVG Export Plug-In . SVG Version: 6.00 Build 0)  -->
<svg version="1.1" id="Layer_1" xmlns="http://www.w3.org/2000/svg" xmlns:xlink="http://www.w3.org/1999/xlink" x="0px" y="0px"
	 viewBox="0 0 1300 400" style="enable-background:new 0 0 1300 400;" xml:space="preserve">
<style type="text/css">
	.st0{fill:url(#SVGID_1_);stroke:#000000;stroke-width:1.6452;stroke-miterlimit:10;}
	.st1{fill:#E6E6E6;}
	.st2{fill:#0D8CD8;}
	.st3{fill:#FFB8B8;}
	.st4{opacity:0.1;enable-background:new    ;}
	.st5{fill:#2F2E41;}
	.st6{fill:#D0CDE1;}
	.st7{fill:#3F3D56;}
	.st8{fill:#F2F2F2;}
	.st9{fill:#FFFFFF;}
</style>
<linearGradient id="SVGID_1_" gradientUnits="userSpaceOnUse" x1="9.094947e-13" y1="200" x2="238.9042" y2="200" gradientTransform="matrix(-5.4415 0 0 1 1300 0)">
	<stop  offset="0" style="stop-color:#007194"/>
	<stop  offset="1" style="stop-color:#41C1C9"/>
</linearGradient>
<rect class="st0" width="1300" height="400"/>
<path class="st1" d="M282.4,103c-2.2,2.9-4.5,6.2-6.8,9.8l-0.3-16.7l-0.2,0.1c2.5-1.8,5.2-3.3,8.1-4.3L283,92L282.4,103z"/>
<path class="st1" d="M283.3,91.9c3-1,5.9-1.4,8.5-0.9c0.1,0,0.3,0.1,0.4,0.1c-0.7,0.7-4.6,5-9.4,11.4L283.3,91.9z"/>
<path class="st1" d="M265.8,131.1c-0.4,0.9-0.7,1.7-1,2.5l-6.1-18.1l-0.2,0.2c0.7-1.4,1.5-2.7,2.3-4L265.8,131.1L265.8,131.1z"/>
<path class="st1" d="M269.4,123.5l-3.2-19l-0.2,0.1c2.6-3.1,5.6-5.9,8.8-8.3l0.3,17C273,116.9,271.1,120.2,269.4,123.5z"/>
<path class="st1" d="M301.9,110.1l0.1-0.2c-0.3,2.9-0.8,5.7-1.7,8.5l-29.4,3c1.5-2.8,3.1-5.5,4.7-7.9L301.9,110.1z"/>
<path class="st1" d="M300.1,118.8l0.1-0.2c-0.3,1-0.6,2-1,2.9l0.1-0.2l-29.8,2.6c0.4-0.7,0.7-1.4,1.1-2.1L300.1,118.8z"/>
<path class="st1" d="M266,130.6l-4.9-19.3l-0.2,0.2c1.5-2.3,3.1-4.5,4.9-6.6l3.2,19.2C268,126.3,266.9,128.5,266,130.6z"/>
<path class="st1" d="M264.8,134.6l29-2.8c-1.6,2.1-3.3,4.1-5.1,6l0.1-0.3l-26.5,5.4C262.9,140.2,263.7,137.4,264.8,134.6z"/>
<path class="st1" d="M292.4,91.3L292.4,91.3c3.9,0.8,6.7,3.5,8.2,7.4l-17.7,4C288.2,95.8,292.4,91.4,292.4,91.3z"/>
<path class="st1" d="M264.3,135.1c-0.9,2.5-1.7,5-2.3,7.6l-6.9-17.3l-0.2,0.2c0.4-2.4,1.2-4.8,2.2-7c0.4-0.9,0.8-1.7,1.3-2.6
	l6.2,18.3C264.4,134.6,264.3,134.8,264.3,135.1z"/>
<path class="st1" d="M275.8,113c2.3-3.6,4.6-6.9,6.8-9.7l18.1-4.1l0.1-0.2c1.1,3,1.5,6.6,1.2,10.7L275.8,113z"/>
<path class="st1" d="M294.1,131.4l-29.1,2.8l0,0c1.3-3.3,2.7-6.6,4.3-9.8l29.9-2.7c-0.5,1.3-1.1,2.7-1.7,4.1
	C296.5,127.7,295.4,129.6,294.1,131.4z"/>
<path class="st1" d="M223.7,137l-0.1,0.2c0.8-3,1.9-5.8,3.5-8.5l-0.1,0.2l6.6,8.8c0.2,3.6,0.5,7.7,1,11.9L223.7,137z"/>
<path class="st1" d="M227.2,128.6c1.6-2.7,3.7-4.8,6-6.1c0.1-0.1,0.2-0.1,0.4-0.2c-0.1,1-0.4,6.8,0,14.8L227.2,128.6z"/>
<path class="st1" d="M238.7,169.9c0.3,0.9,0.5,1.8,0.8,2.6l-16.2-10v0.2c-0.3-1.5-0.6-3-0.8-4.5l16.2,11.8V169.9z"/>
<path class="st1" d="M236.6,161.8L222,149.2v0.2c0-4,0.6-8.1,1.5-12l11.1,12.9C235.2,154.3,235.8,158.1,236.6,161.8z"/>
<path class="st1" d="M222,149.7l14.8,12.7c0.5,2.4,1.1,4.7,1.8,7l-16-11.7v0.2C222.1,155.2,222,152.5,222,149.7z"/>
<path class="st1" d="M250.5,192.7c0-0.2,0-0.4,0-0.6c-2.6-3.1-4.9-6.6-6.7-10.2l8.9-11.1c0.1-0.4,0.2-0.8,0.4-1.1l-9.5,11.8
	c-1.3-2.6-2.4-5.4-3.4-8.1l18.8-18.8c-0.1-0.1-0.1-0.3-0.2-0.5l-18.7,18.8l0,0c-1.2-3.4-2.1-6.8-2.9-10.3l18.6-18.4
	c0-0.2-0.1-0.3-0.1-0.5L237,162c-0.2-0.8-0.3-1.5-0.5-2.3l18.5-18.9c0-0.2-0.1-0.4-0.1-0.5l-18.6,18.9c-0.6-3.2-1.1-6.2-1.5-9.1
	l18.2-19.4l-0.1-0.2c0.4,0.6,0.8,1.3,1.3,2c0-2.2,0.2-4.3,0.5-6.4l7,17.5c-0.6,2.4-1,4.9-1.2,7.3c0,0.4,0.1,0.8,0.1,1.3l-0.2,0.2
	c0,0.2,0,0.4,0,0.7l0.3-0.3c0,0.2,0,0.5,0,0.7c0.1-3.3,0.6-6.6,1.4-9.9l26.3-5.4c-1.3,1.4-2.7,2.7-4.1,4c2.8-0.9,5.6-1.4,8.5-1.5
	h-0.2l-3.9,10.2c-3,2.1-6.2,4.5-9.5,7.2l4.8-15.8c-0.2,0.2-0.4,0.3-0.5,0.5l-4.8,15.7c-3.1,2.6-6,5.2-8.6,7.8l2.2-14.8
	c-0.2,0.1-0.3,0.2-0.5,0.3l-2.2,15c-1.8,1.8-3.4,3.5-4.9,5.3l1.1-16.2c-0.2,0.1-0.3,0.2-0.4,0.3l-1.1,16.4h0.1
	c-0.6,0.7-1.2,1.4-1.8,2.1l-0.2-16.7c-0.2,0.1-0.3,0.2-0.4,0.3l0.2,17c-0.2,0.2-0.3,0.4-0.5,0.7c-1.6,2.1-3.2,4.3-4.6,6.5L257,181
	c-0.1,0.4-0.2,0.9-0.4,1.3l0.1,0.9c-0.2,0.3-0.4,0.7-0.6,1c-0.2,0.5-0.3,1-0.5,1.5c0.4-0.8,0.9-1.6,1.4-2.4l26.7,3
	c-14,7.4-31.4,10.9-32.5,11.1c0.3-1.2,0.6-2.3,1-3.5c-0.1-0.1-0.2-0.2-0.3-0.3c0,0.1-0.1,0.3-0.1,0.4c0,0.1,0.1,0.1,0.1,0.2
	c-0.1,0-0.1-0.1-0.2-0.1c-0.3,0.8-0.5,1.6-0.7,2.4c-0.1-0.6-0.2-1.6-0.3-2.9c-4.8-2.4-17.2-9.4-23.6-20.5l16.5,9
	C245.4,185.8,247.7,189.4,250.5,192.7z M255.9,166.7v-0.6l-0.4,0.5v0.6L255.9,166.7z"/>
<path class="st1" d="M233.8,122.3L233.8,122.3c3.5-1.9,7.4-1.7,11.1,0.4l-11.1,14.4C233.4,128.4,233.8,122.4,233.8,122.3z"/>
<path class="st1" d="M240.1,174c0.9,2.5,1.9,4.9,3.1,7.3l-16.4-8.9v0.2c-1.2-2.1-2.1-4.4-2.8-6.8c-0.2-0.9-0.5-1.9-0.7-2.8
	l16.4,10.1C239.9,173.4,240,173.7,240.1,174z"/>
<path class="st1" d="M233.9,137.7l11.4-14.7l-0.1-0.2c2.8,1.6,5.4,4.1,7.8,7.5l-18,19.2C234.3,145.3,234,141.3,233.9,137.7z"/>
<path class="st1" d="M292.9,140.6c3.2,0,6,0.5,8.4,1.8c0.1,0.1,0.2,0.1,0.4,0.2c-0.9,0.5-5.9,3.3-12.5,7.9L292.9,140.6z"/>
<path class="st1" d="M278.9,158.7l26.1,5l0.1-0.2c-1.1,2.6-2.6,5.2-4.2,7.5l-28.9-6.2C274.4,162.5,276.7,160.5,278.9,158.7z"/>
<path class="st1" d="M270,166.8c0.6-0.6,1.1-1.1,1.7-1.6l29,6.2l0.1-0.2c-0.6,0.8-1.2,1.7-1.9,2.5l0.1-0.2L270,166.8z"/>
<path class="st1" d="M257.1,182.7c1.5-2.5,3.2-4.9,5.1-7.2l28.4,6.3c-2.2,1.5-4.4,2.9-6.7,4.1l0.1-0.2L257.1,182.7z"/>
<path class="st1" d="M301.9,142.9v-0.2c3.5,2.1,5.3,5.5,5.6,9.7l-18.1-1.7C296.5,145.8,301.8,142.9,301.9,142.9z"/>
<path class="st1" d="M288.8,151.1l18.5,1.7l0.1-0.2c0.2,3.2-0.6,6.8-2.2,10.6l-25.9-4.9C282.7,155.6,285.9,153.2,288.8,151.1z"/>
<path class="st1" d="M262.5,175.1c2.2-2.8,4.6-5.4,7.1-8l29.2,6.7c-0.9,1.1-1.9,2.2-2.9,3.3c-1.5,1.6-3.1,3-4.9,4.3L262.5,175.1
	L262.5,175.1z"/>
<path class="st2" d="M282.4,103c-2.2,2.9-4.5,6.2-6.8,9.8l-0.3-16.7l-0.2,0.1c2.5-1.8,5.2-3.3,8.1-4.3L283,92L282.4,103z"/>
<path class="st2" d="M283.3,91.9c3-1,5.9-1.4,8.5-0.9c0.1,0,0.3,0.1,0.4,0.1c-0.7,0.7-4.6,5-9.4,11.4L283.3,91.9z"/>
<path class="st2" d="M265.8,131.1c-0.4,0.9-0.7,1.7-1,2.5l-6.1-18.1l-0.2,0.2c0.7-1.4,1.5-2.7,2.3-4L265.8,131.1L265.8,131.1z"/>
<path class="st2" d="M269.4,123.5l-3.2-19l-0.2,0.1c2.6-3.1,5.6-5.9,8.8-8.3l0.3,17C273,116.9,271.1,120.2,269.4,123.5z"/>
<path class="st2" d="M301.9,110.1l0.1-0.2c-0.3,2.9-0.8,5.7-1.7,8.5l-29.4,3c1.5-2.8,3.1-5.5,4.7-7.9L301.9,110.1z"/>
<path class="st2" d="M300.1,118.8l0.1-0.2c-0.3,1-0.6,2-1,2.9l0.1-0.2l-29.8,2.6c0.4-0.7,0.7-1.4,1.1-2.1L300.1,118.8z"/>
<path class="st2" d="M266,130.6l-4.9-19.3l-0.2,0.2c1.5-2.3,3.1-4.5,4.9-6.6l3.2,19.2C268,126.3,266.9,128.5,266,130.6z"/>
<path class="st2" d="M264.8,134.6l29-2.8c-1.6,2.1-3.3,4.1-5.1,6l0.1-0.3l-26.5,5.4C262.9,140.2,263.7,137.4,264.8,134.6z"/>
<path class="st2" d="M292.4,91.3L292.4,91.3c3.9,0.8,6.7,3.5,8.2,7.4l-17.7,4C288.2,95.8,292.4,91.4,292.4,91.3z"/>
<path class="st2" d="M264.3,135.1c-0.9,2.5-1.7,5-2.3,7.6l-6.9-17.3l-0.2,0.2c0.4-2.4,1.2-4.8,2.2-7c0.4-0.9,0.8-1.7,1.3-2.6
	l6.2,18.3C264.4,134.6,264.3,134.8,264.3,135.1z"/>
<path class="st2" d="M275.8,113c2.3-3.6,4.6-6.9,6.8-9.7l18.1-4.1l0.1-0.2c1.1,3,1.5,6.6,1.2,10.7L275.8,113z"/>
<path class="st2" d="M294.1,131.4l-29.1,2.8l0,0c1.3-3.3,2.7-6.6,4.3-9.8l29.9-2.7c-0.5,1.3-1.1,2.7-1.7,4.1
	C296.5,127.7,295.4,129.6,294.1,131.4z"/>
<path class="st2" d="M223.7,137l-0.1,0.2c0.8-3,1.9-5.8,3.5-8.5l-0.1,0.2l6.6,8.8c0.2,3.6,0.5,7.7,1,11.9L223.7,137z"/>
<path class="st2" d="M227.2,128.6c1.6-2.7,3.7-4.8,6-6.1c0.1-0.1,0.2-0.1,0.4-0.2c-0.1,1-0.4,6.8,0,14.8L227.2,128.6z"/>
<path class="st2" d="M238.7,169.9c0.3,0.9,0.5,1.8,0.8,2.6l-16.2-10v0.2c-0.3-1.5-0.6-3-0.8-4.5l16.2,11.8V169.9z"/>
<path class="st2" d="M236.6,161.8L222,149.2v0.2c0-4,0.6-8.1,1.5-12l11.1,12.9C235.2,154.3,235.8,158.1,236.6,161.8z"/>
<path class="st2" d="M222,149.7l14.8,12.7c0.5,2.4,1.1,4.7,1.8,7l-16-11.7v0.2C222.1,155.2,222,152.5,222,149.7z"/>
<path class="st2" d="M250.5,192.7c0-0.2,0-0.4,0-0.6c-2.6-3.1-4.9-6.6-6.7-10.2l8.9-11.1c0.1-0.4,0.2-0.8,0.4-1.1l-9.5,11.8
	c-1.3-2.6-2.4-5.4-3.4-8.1l18.8-18.8c-0.1-0.1-0.1-0.3-0.2-0.5l-18.7,18.8l0,0c-1.2-3.4-2.1-6.8-2.9-10.3l18.6-18.4
	c0-0.2-0.1-0.3-0.1-0.5L237,162c-0.2-0.8-0.3-1.5-0.5-2.3l18.5-18.9c0-0.2-0.1-0.4-0.1-0.5l-18.6,18.9c-0.6-3.2-1.1-6.2-1.5-9.1
	l18.2-19.4l-0.1-0.2c0.4,0.6,0.8,1.3,1.3,2c0-2.2,0.2-4.3,0.5-6.4l7,17.5c-0.6,2.4-1,4.9-1.2,7.3c0,0.4,0.1,0.8,0.1,1.3l-0.2,0.2
	c0,0.2,0,0.4,0,0.7l0.3-0.3c0,0.2,0,0.5,0,0.7c0.1-3.3,0.6-6.6,1.4-9.9l26.3-5.4c-1.3,1.4-2.7,2.7-4.1,4c2.8-0.9,5.6-1.4,8.5-1.5
	h-0.2l-3.9,10.2c-3,2.1-6.2,4.5-9.5,7.2l4.8-15.8c-0.2,0.2-0.4,0.3-0.5,0.5l-4.8,15.7c-3.1,2.6-6,5.2-8.6,7.8l2.2-14.8
	c-0.2,0.1-0.3,0.2-0.5,0.3l-2.2,15c-1.8,1.8-3.4,3.5-4.9,5.3l1.1-16.2c-0.2,0.1-0.3,0.2-0.4,0.3l-1.1,16.4h0.1
	c-0.6,0.7-1.2,1.4-1.8,2.1l-0.2-16.7c-0.2,0.1-0.3,0.2-0.4,0.3l0.2,17c-0.2,0.2-0.3,0.4-0.5,0.7c-1.6,2.1-3.2,4.3-4.6,6.5L257,181
	c-0.1,0.4-0.2,0.9-0.4,1.3l0.1,0.9c-0.2,0.3-0.4,0.7-0.6,1c-0.2,0.5-0.3,1-0.5,1.5c0.4-0.8,0.9-1.6,1.4-2.4l26.7,3
	c-14,7.4-31.4,10.9-32.5,11.1c0.3-1.2,0.6-2.3,1-3.5c-0.1-0.1-0.2-0.2-0.3-0.3c0,0.1-0.1,0.3-0.1,0.4c0,0.1,0.1,0.1,0.1,0.2
	c-0.1,0-0.1-0.1-0.2-0.1c-0.3,0.8-0.5,1.6-0.7,2.4c-0.1-0.6-0.2-1.6-0.3-2.9c-4.8-2.4-17.2-9.4-23.6-20.5l16.5,9
	C245.4,185.8,247.7,189.4,250.5,192.7z M255.9,166.7v-0.6l-0.4,0.5v0.6L255.9,166.7z"/>
<path class="st2" d="M233.8,122.3L233.8,122.3c3.5-1.9,7.4-1.7,11.1,0.4l-11.1,14.4C233.4,128.4,233.8,122.4,233.8,122.3z"/>
<path class="st2" d="M240.1,174c0.9,2.5,1.9,4.9,3.1,7.3l-16.4-8.9v0.2c-1.2-2.1-2.1-4.4-2.8-6.8c-0.2-0.9-0.5-1.9-0.7-2.8
	l16.4,10.1C239.9,173.4,240,173.7,240.1,174z"/>
<path class="st2" d="M233.9,137.7l11.4-14.7l-0.1-0.2c2.8,1.6,5.4,4.1,7.8,7.5l-18,19.2C234.3,145.3,234,141.3,233.9,137.7z"/>
<path class="st2" d="M292.9,140.6c3.2,0,6,0.5,8.4,1.8c0.1,0.1,0.2,0.1,0.4,0.2c-0.9,0.5-5.9,3.3-12.5,7.9L292.9,140.6z"/>
<path class="st2" d="M278.9,158.7l26.1,5l0.1-0.2c-1.1,2.6-2.6,5.2-4.2,7.5l-28.9-6.2C274.4,162.5,276.7,160.5,278.9,158.7z"/>
<path class="st2" d="M270,166.8c0.6-0.6,1.1-1.1,1.7-1.6l29,6.2l0.1-0.2c-0.6,0.8-1.2,1.7-1.9,2.5l0.1-0.2L270,166.8z"/>
<path class="st2" d="M257.1,182.7c1.5-2.5,3.2-4.9,5.1-7.2l28.4,6.3c-2.2,1.5-4.4,2.9-6.7,4.1l0.1-0.2L257.1,182.7z"/>
<path class="st2" d="M301.9,142.9v-0.2c3.5,2.1,5.3,5.5,5.6,9.7l-18.1-1.7C296.5,145.8,301.8,142.9,301.9,142.9z"/>
<path class="st2" d="M288.8,151.1l18.5,1.7l0.1-0.2c0.2,3.2-0.6,6.8-2.2,10.6l-25.9-4.9C282.7,155.6,285.9,153.2,288.8,151.1z"/>
<path class="st2" d="M262.5,175.1c2.2-2.8,4.6-5.4,7.1-8l29.2,6.7c-0.9,1.1-1.9,2.2-2.9,3.3c-1.5,1.6-3.1,3-4.9,4.3L262.5,175.1
	L262.5,175.1z"/>
<path class="st3" d="M93.4,99.1c0,0,4.3,12.2,1.6,14.1c-2.6,1.9,8.9,17.2,8.9,17.2l13.8-3.7l-7.6-12.8c0,0-1-12.8-1-14.7
	S93.4,99.1,93.4,99.1z"/>
<path class="st4" d="M93.4,99.1c0,0,4.3,12.2,1.6,14.1c-2.6,1.9,8.9,17.2,8.9,17.2l13.8-3.7l-7.6-12.8c0,0-1-12.8-1-14.7
	S93.4,99.1,93.4,99.1z"/>
<path class="st5" d="M86.2,186c0,0-1.2,15.6,0,23.7c1.2,8.1,3.1,30.6,3.1,30.6s0,42.5,6.9,43.1s11.9,1.2,12.5-1.2
	c0.6-2.5-3.1-3.7-1.2-5c1.9-1.2,2.5-5.6,0-10.6s0-55.6,0-55.6l11.9,31.9c0,0,1.2,26.2,2.5,30c1.2,3.7-1.2,10.6,3.1,11.2
	s9.4-3.1,11.9-4.4c2.5-1.2-3.7-1.2-2.5-1.9c1.2-0.6,5-2.5,3.7-3.1c-1.2-0.6-2.5-30.6-2.5-30.6s-3.4-64.1-7.8-66.6s-7.2,1.8-7.2,1.8
	L86.2,186z"/>
<path class="st5" d="M97.5,281.3v5c0,0-5.6,13.6,0,13.6s10,1.4,10-0.5v-16.9L97.5,281.3z"/>
<path class="st5" d="M134.4,280.9v5c0,0,5.6,13.6,0,13.6s-10,1.4-10-0.5v-16.9L134.4,280.9z"/>
<circle class="st3" cx="102.2" cy="96.9" r="11.2"/>
<path class="st6" d="M98.7,117.8c0,0,3.1,9.4,8.1,7.5l5-1.9l8.7,60c0,0-6.9,10-16.9,3.7S98.7,117.8,98.7,117.8z"/>
<path class="st6" d="M107.5,116l2.8-5.9c0,0,16.6,7.8,19.1,10.3s2.5,6.2,2.5,6.2l-4.4,15.6c0,0,1.2,34.4,1.2,35.6s4.4,8.1,1.2,5.6
	c-3.1-2.5-3.7-5-6.2-1.2s-8.1,8.1-8.1,8.1L107.5,116z"/>
<path class="st3" d="M129.4,161l-1.9,17.5c0,0-11.2,10-8.7,10.6s3.7-1.9,3.7-1.9s4.4,4.4,6.9,1.9s8.7-26.2,8.7-26.2L129.4,161z"/>
<path class="st5" d="M102.4,81c-2.5-0.1-5.2-0.1-7.3,1.2c-1,0.7-1.8,1.5-2.5,2.5c-2,2.6-3.8,5.8-3.1,9.1l0.9-0.3
	c0,0.9-0.2,1.7-0.6,2.5c0.1-0.4,0.5,0.2,0.4,0.6l-1,3.2c1.6-0.6,3.6,0.6,3.8,2.3c0.1-3.7,0.5-8,3.5-10.1c1.5-1.1,3.4-1.4,5.3-1.7
	c1.7-0.3,3.5-0.5,5.1,0s3,2.2,2.7,3.9c0.8-0.3,1.6,0.3,2,1s0.4,1.5,0.4,2.3c0.8,0.6,1.7-0.6,2-1.5c0.8-2.2,1.4-4.5,1-6.8
	s-2.3-4.4-4.6-4.4c0.3-0.3,0.4-0.7,0.4-1.1l-1.9-0.2c0.5-0.1,0.9-0.3,1.3-0.7C109.7,83.5,103.7,81,102.4,81z"/>
<path class="st6" d="M101.9,114.1c0,0-5.1-5-6.9-4.7s-4.3,4.7-4.3,4.7s-15,5-14.4,10c0.6,5,7.5,29.4,7.5,29.4s5.6,29.4,0.6,32.5
	s23.7,11.2,24.4,7.5s1.9-41.2,0-46.9C106.9,141,101.9,114.1,101.9,114.1z"/>
<path class="st6" d="M123.7,124.1h7.7c0,0,5.4,23.7,6,26.2s1.9,14.4,1.2,14.4s-13.1-2.5-13.1-0.6L123.7,124.1z"/>
<circle class="st7" cx="346.6" cy="131.3" r="6"/>
<circle class="st2" cx="346.6" cy="154.6" r="6"/>
<circle class="st7" cx="346.6" cy="177.9" r="6"/>
<circle class="st7" cx="346.6" cy="201.2" r="6"/>
<circle class="st7" cx="346.6" cy="224.4" r="6"/>
<rect x="66.8" y="299.7" class="st7" width="280.6" height="0.7"/>
<polygon class="st2" points="347,133.7 349.9,129.9 349.2,129.4 346.9,132.5 337.6,124.9 337.1,125.6 "/>
<polygon class="st7" points="309.5,153.4 330.5,153.7 309.5,162.3 309.5,300.1 100.7,300.1 100.7,153.4 "/>
<rect x="337.1" y="137" class="st7" width="18.7" height="0.6"/>
<rect x="337.1" y="160.3" class="st7" width="18.7" height="0.6"/>
<rect x="337.1" y="183.6" class="st7" width="18.7" height="0.6"/>
<rect x="337.1" y="206.9" class="st7" width="18.7" height="0.6"/>
<rect x="337.1" y="230.2" class="st7" width="18.7" height="0.6"/>
<circle class="st8" cx="346.6" cy="154.6" r="2.9"/>
<rect x="139.6" y="161.2" class="st9" width="131.1" height="10.9"/>
<rect x="110.5" y="277.6" class="st2" width="38.8" height="13.2"/>
<rect x="202.2" y="188.5" class="st9" width="97.5" height="79.4"/>
<rect x="188.1" y="227.9" transform="matrix(0.7755 -0.6314 0.6314 0.7755 -87.7066 209.6948)" class="st8" width="125.7" height="0.6"/>
<rect x="250.6" y="165.3" transform="matrix(0.6314 -0.7755 0.7755 0.6314 -84.4647 278.6827)" class="st8" width="0.6" height="125.7"/>
<rect x="110.2" y="195.4" class="st9" width="70.2" height="2"/>
<rect x="110.2" y="201.7" class="st9" width="70.2" height="2"/>
<rect x="110.2" y="208.1" class="st9" width="70.2" height="2"/>
<rect x="110.2" y="214.4" class="st9" width="70.2" height="2"/>
<rect x="110.2" y="220.7" class="st9" width="70.2" height="2"/>
<rect x="110.2" y="227" class="st9" width="70.2" height="2"/>
<rect x="110.2" y="233.4" class="st9" width="70.2" height="2"/>
<rect x="110.2" y="239.7" class="st9" width="70.2" height="2"/>
<rect x="110.2" y="246" class="st9" width="70.2" height="2"/>
<rect x="110.2" y="252.3" class="st9" width="70.2" height="2"/>
<rect x="110.2" y="258.7" class="st9" width="70.2" height="2"/>
<rect x="110.2" y="265" class="st9" width="70.2" height="2"/>
<path class="st3" d="M81.9,166.6l8.7,3.7c0,0,16.9,2.5,16.9-4.4s-16.9-3.1-16.9-3.1L85,161L81.9,166.6z"/>
<path class="st6" d="M83.7,120.3l-7.5,1.9l-5.6,33.1c0,0-1.9,8.7,1.2,9.4c3.1,0.6,11.9,5.6,11.9,5.6s1.2-9.4,3.7-9.4l-6.2-5
	l3.7-21.9L83.7,120.3z"/>
</svg>
