<?xml version="1.0" encoding="utf-8"?>
<!-- Generator: Adobe Illustrator 22.0.1, SVG Export Plug-In . SVG Version: 6.00 Build 0)  -->
<svg version="1.1" id="Layer_1" xmlns="http://www.w3.org/2000/svg" xmlns:xlink="http://www.w3.org/1999/xlink" x="0px" y="0px"
	 viewBox="0 0 1300 400" style="enable-background:new 0 0 1300 400;" xml:space="preserve">
<style type="text/css">
	.st0{fill:url(#SVGID_1_);stroke:#000000;stroke-width:1.6452;stroke-miterlimit:10;}
	.st1{fill:#0D8CD8;}
	.st2{fill:#3F3D56;}
	.st3{opacity:0.2;enable-background:new    ;}
	.st4{fill:#D0CDE1;}
	.st5{fill:#2F2E41;}
	.st6{fill:#FFB9B9;}
</style>
<linearGradient id="SVGID_1_" gradientUnits="userSpaceOnUse" x1="0" y1="198.056" x2="1300" y2="198.056" gradientTransform="matrix(1 0 0 -1 0 400)">
	<stop  offset="0" style="stop-color:#007194"/>
	<stop  offset="1" style="stop-color:#41C1C9"/>
</linearGradient>
<rect y="1.9" class="st0" width="1300" height="400"/>
<path class="st1" d="M940.7,261.2c-0.4,0-0.8,0.1-1.1,0.4c-0.9-2.4-2.3-3.9-3.8-3.9c-1.6,0-2.9,1.5-3.8,3.9
	c-0.3-0.2-0.7-0.4-1.1-0.4c-1.8,0-3.2,3-3.2,6.7h16.2C943.9,264.2,942.4,261.2,940.7,261.2z"/>
<rect x="922.9" y="267.5" class="st2" width="82.2" height="0.7"/>
<path class="st1" d="M1233,245.5c-0.4,0-0.8,0.1-1.1,0.4c-0.9-2.4-2.3-3.9-3.8-3.9s-2.9,1.5-3.8,3.9c-0.3-0.2-0.7-0.4-1.1-0.4
	c-1.8,0-3.2,3-3.2,6.7h16.2C1236.2,248.5,1234.8,245.5,1233,245.5z"/>
<path class="st2" d="M1198.1,122.4h-78.3v-1.6h-35.5v1.6h-78.6c-2.9,0-5.3,2.4-5.3,5.3v0v107.2c0,2.9,2.4,5.3,5.3,5.3l0,0h192.5
	c2.9,0,5.3-2.4,5.3-5.3l0,0V127.7C1203.4,124.8,1201,122.4,1198.1,122.4C1198.1,122.4,1198.1,122.4,1198.1,122.4z"/>
<rect x="1007.4" y="131.8" class="st3" width="188.9" height="106.5"/>
<circle class="st1" cx="1101.7" cy="126.9" r="1.9"/>
<rect x="964.5" y="251.4" class="st2" width="274" height="0.7"/>
<path class="st1" d="M1127.7,171.6v-7.9c0-5.3-4.3-9.7-9.7-9.7l0,0h-7.9c0-1.1-3.4-1.9-7.8-2v-9.5c3-0.4,5.1-3.1,4.7-6
	c-0.4-3-3.1-5.1-6-4.7c-3,0.4-5.1,3.1-4.7,6c0.3,2.4,2.2,4.4,4.7,4.7v9.5c-4.3,0.1-7.8,1-7.8,2h-9.2c-5.3,0-9.7,4.3-9.7,9.7
	c0,0,0,0,0,0v7.9c-1.1,0-2,3.8-2,8.4s0.9,8.4,2,8.4v9.2c0,5.3,4.3,9.7,9.7,9.7l0,0h34c5.3,0,9.7-4.3,9.7-9.7c0,0,0,0,0,0v-9.2
	c1.1,0,2-3.8,2-8.4S1128.8,171.6,1127.7,171.6z"/>
<path class="st2" d="M1085.9,157.1h30.1c4.7,0,8.6,3.8,8.6,8.6l0,0v30.1c0,4.7-3.8,8.6-8.6,8.6l0,0h-30.1c-4.7,0-8.6-3.8-8.6-8.6
	l0,0v-30.1C1077.4,160.9,1081.2,157.1,1085.9,157.1z"/>
<path class="st1" d="M1090.2,179.5c-3.4,0-6.1-2.7-6.1-6.1c0-0.2,0.2-0.3,0.3-0.3s0.3,0.2,0.3,0.3c0,3,2.4,5.4,5.4,5.4
	c3,0,5.4-2.4,5.4-5.4c0,0,0,0,0,0c0-0.2,0.2-0.3,0.3-0.3c0.2,0,0.3,0.2,0.3,0.3C1096.3,176.8,1093.5,179.5,1090.2,179.5z"/>
<path class="st1" d="M1101,191c-2.6,0-4.7-2.1-4.7-4.7c0-0.2,0.2-0.3,0.3-0.3s0.3,0.2,0.3,0.3c0,2.2,1.8,4.1,4.1,4.1
	c2.2,0,4.1-1.8,4.1-4.1c0-0.2,0.1-0.3,0.3-0.3c0.2,0,0.3,0.1,0.3,0.3c0,0,0,0,0,0C1105.7,188.9,1103.6,191,1101,191z"/>
<path class="st1" d="M1111.8,179.5c-3.4,0-6.1-2.7-6.1-6.1c0-0.2,0.2-0.3,0.3-0.3s0.3,0.2,0.3,0.3c0,3,2.4,5.4,5.4,5.4
	c3,0,5.4-2.4,5.4-5.4c0,0,0,0,0,0c0-0.2,0.2-0.3,0.3-0.3c0.2,0,0.3,0.2,0.3,0.3C1117.9,176.8,1115.2,179.5,1111.8,179.5z"/>
<circle class="st1" cx="1090.2" cy="173.8" r="3"/>
<circle class="st1" cx="1111.8" cy="173.8" r="3"/>
<ellipse class="st1" cx="1101" cy="187.9" rx="2.7" ry="1.4"/>
<path class="st2" d="M1208.7,236.4h-18.4V235c0-0.1-0.1-0.3-0.3-0.3h0h-6.3c-0.1,0-0.3,0.1-0.3,0.3v0v1.3h-3.9V235
	c0-0.1-0.1-0.3-0.3-0.3h-6.3c-0.1,0-0.3,0.1-0.3,0.3l0,0v1.3h-3.9V235c0-0.1-0.1-0.3-0.3-0.3l0,0h-6.3c-0.1,0-0.3,0.1-0.3,0.3v0v1.3
	h-3.9V235c0-0.1-0.1-0.3-0.3-0.3l0,0h-6.3c-0.1,0-0.3,0.1-0.3,0.3v0v1.3h-3.9V235c0-0.1-0.1-0.3-0.3-0.3l0,0h-6.3
	c-0.1,0-0.3,0.1-0.3,0.3l0,0v1.3h-3.9V235c0-0.1-0.1-0.3-0.3-0.3l0,0h-6.3c-0.1,0-0.3,0.1-0.3,0.3v0v1.3h-3.9V235
	c0-0.1-0.1-0.3-0.3-0.3l0,0h-49.5c-0.1,0-0.3,0.1-0.3,0.3v0v1.3h-3.9V235c0-0.1-0.1-0.3-0.3-0.3l0,0h-6.3c-0.1,0-0.3,0.1-0.3,0.3
	v1.3h-3.9V235c0-0.1-0.1-0.3-0.3-0.3h0h-6.3c-0.1,0-0.3,0.1-0.3,0.3v0v1.3h-3.9V235c0-0.1-0.1-0.3-0.3-0.3l0,0h-6.3
	c-0.1,0-0.3,0.1-0.3,0.3l0,0v1.3h-3.9V235c0-0.1-0.1-0.3-0.3-0.3c0,0,0,0,0,0h-6.3c-0.1,0-0.3,0.1-0.3,0.3c0,0,0,0,0,0v1.3h-3.9V235
	c0-0.1-0.1-0.3-0.3-0.3c0,0,0,0,0,0h-6.3c-0.1,0-0.3,0.1-0.3,0.3l0,0v1.3h-3.9V235c0-0.1-0.1-0.3-0.3-0.3h0h-6.3
	c-0.1,0-0.3,0.1-0.3,0.3l0,0v1.3h-12.1c-3.5,0-6.3,2.8-6.3,6.3c0,0,0,0,0,0v2.9c0,3.5,2.8,6.3,6.3,6.3h210.1c3.5,0,6.3-2.8,6.3-6.3
	v-2.9C1215,239.2,1212.2,236.4,1208.7,236.4L1208.7,236.4z"/>
<rect x="1036.3" y="206.9" class="st1" width="126" height="0.7"/>
<path class="st4" d="M1045.3,206.6h-31c1-11.7,1-23.4,0-35.1h31C1043.6,183.5,1043.5,195.2,1045.3,206.6z"/>
<rect x="1018.7" y="178.5" class="st2" width="22.4" height="1.5"/>
<rect x="1018.7" y="183.4" class="st2" width="22.4" height="1.5"/>
<rect x="1018.7" y="188.2" class="st2" width="22.4" height="1.5"/>
<rect x="1018.7" y="193.1" class="st2" width="22.4" height="1.5"/>
<rect x="1018.7" y="198" class="st2" width="22.4" height="1.5"/>
<path class="st5" d="M962.8,89.3c0,0-4.9-1.7-8,5.2c-3.1,7-8,14.6-8,14.6l2.8,0.7c0,0,0.7-4.9,2.4-5.6l-0.7,6.3
	c0,0,20.9,7.3,30.3-0.7l-0.3-2.4c0,0,1.4,0.3,1.4,2.4l1-1c0,0-1-2.1-4.2-4.9c-2.1-1.8-2.8-5.3-3-7.5c-0.2-1.8-0.9-3.5-2.1-4.9
	C972.4,89.1,968.6,86.5,962.8,89.3z"/>
<polygon class="st6" points="948.8,242.9 950.3,251.5 956.3,250.4 957.4,242.9 "/>
<path class="st5" d="M957.4,247.7l-8.2,0.7l0.4,6.7l-0.4,8.6c0,0-4.9,9.7,2.2,9s6.4-4.5,6.4-4.5l1.9-2.2l-1.1-5.6L957.4,247.7z"/>
<polygon class="st6" points="982.4,242.9 980.9,251.5 974.9,250.4 973.8,242.9 "/>
<path class="st5" d="M973.8,247.7l8.2,0.7l-0.4,6.7l0.4,8.6c0,0,4.9,9.7-2.2,9s-6.4-4.5-6.4-4.5l-1.9-2.2l1.1-5.6L973.8,247.7z"/>
<circle class="st6" cx="965.2" cy="103.8" r="8.6"/>
<path class="st6" d="M959.6,108.3l1.1,13.5l10.5-0.4c0,0-3-8.6-1.1-12L959.6,108.3z"/>
<path class="st5" d="M965.6,119.1l4.3-2.7l4.7,2.3l7.5,3.4l-2.6,31.8c0,0,6,19.8,4.9,29.5s12.3,58.3,1.5,60.6s-18.7,4.5-19.1,0.7
	s-1.1-60.9-1.1-60.9s-1.1,60.6-5.6,61.3c-4.5,0.7-23.9,3.7-22.4-0.7s11.6-83,16.4-87.5l0.7-3.7l-6.4-30.3l11.9-5.9L965.6,119.1z"/>
<path class="st6" d="M943.2,165.5l-0.4,15.3c0,0-3.6,15.1,2.5,15c6.1-0.1,1.6-15,1.6-15l2.6-15L943.2,165.5z"/>
<path class="st6" d="M999.7,149.4l10.5,11.2c0,0,12.8,8.9,8.2,12.9c-4.6,4-11.2-10.1-11.2-10.1l-11.9-9.4L999.7,149.4z"/>
<polygon class="st4" points="954.2,156 979.8,155.2 979.5,153.4 979.5,153.4 954.7,153 "/>
<circle class="st5" cx="959.4" cy="154.5" r="2.2"/>
<path class="st5" d="M951.4,123.3l-2.4-0.6c0,0-3.2,1.3-3.9,5.4c-0.7,4.1-10.5,36.3-5.6,38.1s12,2.6,12,1.9s3-28.8,3-28.8
	L951.4,123.3z"/>
<path class="st5" d="M974.3,124.7l7.8-2.5c0,0,3.7,0,3.7,4.1c0,1.7,7.2,15.6,7.2,15.6s17.2,12.3,14.6,12.7c-4.5,0.7-7.1,8.6-7.1,8.6
	l-16.8-15L974.3,124.7z"/>
<path class="st5" d="M954.7,104.5c0,0,2.8-3.8,5.2-4.5c2.4-0.7,2.8-4.2,2.8-4.2s6.3,7,10.1,7.3c3.8,0.3,0.3-8.4,0.3-8.4l-7-1.7
	l-6.6,0.7l-5.2,3.5L954.7,104.5z"/>
<ellipse class="st6" cx="956.8" cy="102.5" rx="1.1" ry="1.7"/>
</svg>
