<?xml version="1.0" encoding="utf-8"?>
<!-- Generator: Adobe Illustrator 22.0.1, SVG Export Plug-In . SVG Version: 6.00 Build 0)  -->
<svg version="1.1" id="Layer_1" xmlns="http://www.w3.org/2000/svg" xmlns:xlink="http://www.w3.org/1999/xlink" x="0px" y="0px"
	 viewBox="0 0 1300 400" style="enable-background:new 0 0 1300 400;" xml:space="preserve">
<style type="text/css">
	.st0{fill:url(#SVGID_1_);stroke:#000000;stroke-width:1.6452;stroke-miterlimit:10;}
	.st1{fill:#61B0D8;}
	.st2{fill:#3F3D56;}
	.st3{fill:#747475;}
	.st4{opacity:0.2;fill:#F2F2F2;enable-background:new    ;}
	.st5{fill:#E8F4F9;}
	.st6{fill:#5B5A6B;}
	.st7{fill:#0D8CD8;}
	.st8{fill:#E5E4EF;}
	.st9{fill:#2F2E41;}
	.st10{fill:#FFB9B9;}
	.st11{fill:#A3A3A3;}
	.st12{fill:#E5E5E5;}
	.st13{fill:#D0CDE1;}
	.st14{fill:#8B8B91;}
</style>
<linearGradient id="SVGID_1_" gradientUnits="userSpaceOnUse" x1="650" y1="200" x2="1950" y2="200" gradientTransform="matrix(-1 0 0 -1 1950 400)">
	<stop  offset="0" style="stop-color:#00354D"/>
	<stop  offset="0.4129" style="stop-color:#00364F"/>
	<stop  offset="0.5616" style="stop-color:#003C56"/>
	<stop  offset="0.6676" style="stop-color:#004561"/>
	<stop  offset="0.7534" style="stop-color:#005272"/>
	<stop  offset="0.8268" style="stop-color:#006388"/>
	<stop  offset="0.8918" style="stop-color:#0078A4"/>
	<stop  offset="0.9492" style="stop-color:#0091C3"/>
	<stop  offset="1" style="stop-color:#00ACE6"/>
	<stop  offset="1" style="stop-color:#0093C7"/>
	<stop  offset="1" style="stop-color:#0075A3"/>
	<stop  offset="1" style="stop-color:#005B83"/>
	<stop  offset="1" style="stop-color:#004567"/>
	<stop  offset="1" style="stop-color:#003351"/>
	<stop  offset="1" style="stop-color:#002540"/>
	<stop  offset="1" style="stop-color:#001B35"/>
	<stop  offset="1" style="stop-color:#00162E"/>
	<stop  offset="1" style="stop-color:#00142C"/>
</linearGradient>
<rect x="0" y="0" class="st0" width="1300" height="400"/>
<path class="st1" d="M935.6,263.4c-0.4,0-0.7,0.1-1,0.4c-0.9-2.3-2.2-3.8-3.8-3.8s-2.9,1.5-3.8,3.8c-0.3-0.2-0.7-0.4-1-0.4
	c-1.7,0-3.2,2.9-3.2,6.6h16C938.7,266.4,937.3,263.4,935.6,263.4z"/>
<rect x="918.1" y="269.6" class="st2" width="80.9" height="0.7"/>
<path class="st1" d="M1223.1,247.9c-0.4,0-0.7,0.1-1,0.4c-0.9-2.3-2.2-3.8-3.8-3.8s-2.9,1.5-3.8,3.8c-0.3-0.2-0.7-0.4-1-0.4
	c-1.7,0-3.2,2.9-3.2,6.6h16C1226.2,250.9,1224.8,247.9,1223.1,247.9z"/>
<path class="st3" d="M1188.7,126.9h-77v-1.6h-34.9v1.6h-77.3c-2.9,0-5.2,2.3-5.2,5.2l0,0v105.5c0,2.9,2.3,5.2,5.2,5.2l0,0h189.3
	c2.9,0,5.2-2.3,5.2-5.2l0,0V132.1C1194,129.3,1191.6,126.9,1188.7,126.9L1188.7,126.9z"/>
<rect x="1001.2" y="136.1" class="st4" width="185.7" height="104.8"/>
<circle class="st5" cx="1094" cy="131.3" r="1.9"/>
<rect x="959.1" y="253.8" class="st2" width="269.5" height="0.7"/>
<path class="st5" d="M1119.5,175.3v-7.8c0-5.3-4.3-9.5-9.5-9.5l0,0h-7.8c0-1-3.3-1.9-7.6-2v-9.3c2.9-0.4,5-3,4.6-5.9
	c-0.4-2.9-3-5-5.9-4.6s-5,3-4.6,5.9c0.3,2.4,2.2,4.3,4.6,4.6v9.3c-4.3,0.1-7.6,1-7.6,2h-9c-5.3,0-9.5,4.3-9.5,9.5l0,0v7.8
	c-1.1,0-2,3.7-2,8.3c0,4.6,0.9,8.3,2,8.3v9.1c0,5.3,4.3,9.5,9.5,9.5l0,0h33.5c5.3,0,9.5-4.3,9.5-9.5l0,0v-9.1c1.1,0,2-3.7,2-8.3
	C1121.5,179,1120.6,175.3,1119.5,175.3z"/>
<path class="st6" d="M1078.4,161h29.6c4.7,0,8.4,3.8,8.4,8.4l0,0V199c0,4.7-3.8,8.4-8.4,8.4l0,0h-29.6c-4.7,0-8.4-3.8-8.4-8.4l0,0
	v-29.6C1070,164.8,1073.8,161,1078.4,161z"/>
<path class="st5" d="M1082.6,183.1c-3.3,0-6-2.7-6-6c0-0.2,0.1-0.3,0.3-0.3s0.3,0.1,0.3,0.3c0,2.9,2.4,5.3,5.3,5.3
	c2.9,0,5.3-2.4,5.3-5.3l0,0c0-0.2,0.1-0.3,0.3-0.3s0.3,0.1,0.3,0.3C1088.6,180.4,1085.9,183.1,1082.6,183.1z"/>
<path class="st5" d="M1093.3,194.4c-2.6,0-4.6-2.1-4.6-4.6c0-0.2,0.1-0.3,0.3-0.3s0.3,0.1,0.3,0.3c0,2.2,1.8,4,4,4s4-1.8,4-4
	c0-0.2,0.1-0.3,0.3-0.3s0.3,0.1,0.3,0.3l0,0C1097.9,192.3,1095.8,194.4,1093.3,194.4z"/>
<path class="st5" d="M1103.9,183.1c-3.3,0-6-2.7-6-6c0-0.2,0.1-0.3,0.3-0.3s0.3,0.1,0.3,0.3c0,2.9,2.4,5.3,5.3,5.3
	c2.9,0,5.3-2.4,5.3-5.3l0,0c0-0.2,0.1-0.3,0.3-0.3s0.3,0.1,0.3,0.3C1109.8,180.4,1107.2,183.1,1103.9,183.1z"/>
<circle class="st5" cx="1082.6" cy="177.4" r="3"/>
<circle class="st5" cx="1103.9" cy="177.4" r="3"/>
<ellipse class="st5" cx="1093.3" cy="191.4" rx="2.6" ry="1.3"/>
<path class="st3" d="M1199.2,239h-18.1v-1.3c0-0.1-0.1-0.3-0.3-0.3l0,0h-6.2c-0.1,0-0.3,0.1-0.3,0.3l0,0v1.3h-3.9v-1.3
	c0-0.1-0.1-0.3-0.3-0.3h-6.2c-0.1,0-0.3,0.1-0.3,0.3l0,0v1.3h-3.9v-1.3c0-0.1-0.1-0.3-0.3-0.3l0,0h-6.2c-0.1,0-0.3,0.1-0.3,0.3l0,0
	v1.3h-3.9v-1.3c0-0.1-0.1-0.3-0.3-0.3l0,0h-6.2c-0.1,0-0.3,0.1-0.3,0.3l0,0v1.3h-3.9v-1.3c0-0.1-0.1-0.3-0.3-0.3l0,0h-6.2
	c-0.1,0-0.3,0.1-0.3,0.3l0,0v1.3h-3.9v-1.3c0-0.1-0.1-0.3-0.3-0.3l0,0h-6.2c-0.1,0-0.3,0.1-0.3,0.3l0,0v1.3h-3.9v-1.3
	c0-0.1-0.1-0.3-0.3-0.3l0,0h-48.7c-0.1,0-0.3,0.1-0.3,0.3l0,0v1.3h-3.9v-1.3c0-0.1-0.1-0.3-0.3-0.3l0,0h-6.2c-0.1,0-0.3,0.1-0.3,0.3
	v1.3h-3.9v-1.3c0-0.1-0.1-0.3-0.3-0.3l0,0h-6.2c-0.1,0-0.3,0.1-0.3,0.3l0,0v1.3h-3.9v-1.3c0-0.1-0.1-0.3-0.3-0.3l0,0h-6.2
	c-0.1,0-0.3,0.1-0.3,0.3l0,0v1.3h-3.9v-1.3c0-0.1-0.1-0.3-0.3-0.3l0,0h-6.2c-0.1,0-0.3,0.1-0.3,0.3l0,0v1.3h-3.9v-1.3
	c0-0.1-0.1-0.3-0.3-0.3l0,0h-6.2c-0.1,0-0.3,0.1-0.3,0.3l0,0v1.3h-3.9v-1.3c0-0.1-0.1-0.3-0.3-0.3l0,0h-6.2c-0.1,0-0.3,0.1-0.3,0.3
	l0,0v1.3h-11.9c-3.4,0-6.2,2.8-6.2,6.2l0,0v2.8c0,3.4,2.8,6.2,6.2,6.2h206.6c3.4,0,6.2-2.8,6.2-6.2v-2.8
	C1205.4,241.8,1202.6,239,1199.2,239L1199.2,239z"/>
<rect x="1029.7" y="210" class="st7" width="123.9" height="0.7"/>
<path class="st8" d="M1038.5,209.7H1008c1-11.5,1-23.1,0-34.6h30.5C1036.8,186.9,1036.7,198.5,1038.5,209.7z"/>
<rect x="1012.4" y="182.1" class="st2" width="22.1" height="1.5"/>
<rect x="1012.4" y="186.9" class="st2" width="22.1" height="1.5"/>
<rect x="1012.4" y="191.6" class="st2" width="22.1" height="1.5"/>
<rect x="1012.4" y="196.4" class="st2" width="22.1" height="1.5"/>
<rect x="1012.4" y="201.2" class="st2" width="22.1" height="1.5"/>
<path class="st9" d="M957.4,94.3c0,0-4.8-1.7-7.9,5.1c-3.1,6.9-7.9,14.4-7.9,14.4l2.8,0.7c0,0,0.7-4.8,2.4-5.5l-0.7,6.1
	c0,0,20.6,7.2,29.8-0.7l-0.3-2.4c0,0,1.4,0.3,1.4,2.4l1-1c0,0-1-2.1-4.1-4.8c-2-1.8-2.7-5.2-2.9-7.4c-0.2-1.8-0.9-3.5-2.1-4.9
	C966.8,94.1,963,91.6,957.4,94.3z"/>
<polygon class="st10" points="943.5,245.4 945,253.9 950.9,252.8 952,245.4 "/>
<path class="st11" d="M952,250.2l-8.1,0.7l0.4,6.6l-0.4,8.5c0,0-4.8,9.6,2.2,8.8c7-0.7,6.3-4.4,6.3-4.4l1.8-2.2l-1.1-5.5L952,250.2z
	"/>
<polygon class="st10" points="976.6,245.4 975.2,253.9 969.3,252.8 968.2,245.4 "/>
<path class="st11" d="M968.2,250.2l8.1,0.7l-0.4,6.6l0.4,8.5c0,0,4.8,9.6-2.2,8.8c-7-0.7-6.3-4.4-6.3-4.4l-1.8-2.2l1.1-5.5
	L968.2,250.2z"/>
<ellipse class="st10" cx="959.7" cy="108.7" rx="8.5" ry="8.5"/>
<path class="st10" d="M954.2,113l1.1,13.2l10.3-0.4c0,0-2.9-8.5-1.1-11.8L954.2,113z"/>
<path class="st12" d="M960.1,123.7l4.2-2.6l4.6,2.3l7.4,3.3l-2.6,31.3c0,0,5.9,19.5,4.8,29c-1.1,9.6,12.1,57.4,1.5,59.6
	c-10.7,2.2-18.4,4.4-18.8,0.7c-0.4-3.7-1.1-59.9-1.1-59.9s-1.1,59.6-5.5,60.3s-23.5,3.7-22.1-0.7c1.5-4.4,11.4-81.6,16.2-86l0.7-3.7
	l-6.3-29.8l11.7-5.8L960.1,123.7z"/>
<path class="st10" d="M938,169.3l-0.4,15.1c0,0-3.5,14.9,2.5,14.8c6-0.1,1.6-14.8,1.6-14.8l2.6-14.7L938,169.3z"/>
<path class="st10" d="M993.6,153.5l10.3,11c0,0,12.6,8.7,8.1,12.6c-4.5,3.9-11.1-10-11.1-10l-11.7-9.2L993.6,153.5z"/>
<polygon class="st13" points="948.9,159.9 974.1,159.1 973.7,157.5 973.7,157.5 949.4,157 "/>
<circle class="st14" cx="954" cy="158.4" r="2.2"/>
<path class="st12" d="M946.1,127.7l-2.4-0.6c0,0-3.1,1.3-3.9,5.3c-0.7,4-10.3,35.7-5.5,37.5s11.8,2.6,11.8,1.8s2.9-28.3,2.9-28.3
	L946.1,127.7z"/>
<path class="st12" d="M968.6,129.1l7.6-2.5c0,0,3.7,0,3.7,4c0,1.7,7.1,15.4,7.1,15.4s16.9,12.1,14.3,12.5c-4.4,0.7-7,8.5-7,8.5
	l-16.5-14.7L968.6,129.1z"/>
<path class="st9" d="M949.4,109.3c0,0,2.8-3.8,5.1-4.4s2.8-4.1,2.8-4.1s6.2,6.8,9.9,7.2c3.8,0.4,0.3-8.2,0.3-8.2l-6.9-1.7l-6.5,0.7
	l-5.1,3.4L949.4,109.3z"/>
<ellipse class="st10" cx="951.5" cy="107.3" rx="1.1" ry="1.7"/>
</svg>
