<?xml version="1.0" encoding="utf-8"?>
<!-- Generator: Adobe Illustrator 22.0.1, SVG Export Plug-In . SVG Version: 6.00 Build 0)  -->
<svg version="1.1" id="Layer_1" xmlns="http://www.w3.org/2000/svg" xmlns:xlink="http://www.w3.org/1999/xlink" x="0px" y="0px"
	 viewBox="0 0 1300 400" style="enable-background:new 0 0 1300 400;" xml:space="preserve">
<style type="text/css">
	.st0{fill:url(#SVGID_1_);stroke:#000000;stroke-width:1.6452;stroke-miterlimit:10;}
	.st1{fill:#0D8CD8;}
	.st2{fill:#3F3D56;}
	.st3{opacity:0.2;enable-background:new    ;}
	.st4{fill:#D0CDE1;}
	.st5{fill:#2F2E41;}
	.st6{fill:#FFB9B9;}
</style>
<linearGradient id="SVGID_1_" gradientUnits="userSpaceOnUse" x1="0" y1="201.9" x2="73.0971" y2="201.9" gradientTransform="matrix(-17.7846 0 0 1 1300 0)">
	<stop  offset="0" style="stop-color:#007194"/>
	<stop  offset="1" style="stop-color:#41C1C9"/>
</linearGradient>
<rect y="1.9" class="st0" width="1300" height="400"/>
<path class="st1" d="M359.3,261.2c0.4,0,0.8,0.1,1.1,0.4c0.9-2.4,2.3-3.9,3.8-3.9c1.6,0,2.9,1.5,3.8,3.9c0.3-0.2,0.7-0.4,1.1-0.4
	c1.8,0,3.2,3,3.2,6.7h-16.2C356.1,264.2,357.6,261.2,359.3,261.2z"/>
<rect x="294.9" y="267.5" class="st2" width="82.2" height="0.7"/>
<path class="st1" d="M67,245.5c0.4,0,0.8,0.1,1.1,0.4c0.9-2.4,2.3-3.9,3.8-3.9s2.9,1.5,3.8,3.9c0.3-0.2,0.7-0.4,1.1-0.4
	c1.8,0,3.2,3,3.2,6.7H63.8C63.8,248.5,65.2,245.5,67,245.5z"/>
<path class="st2" d="M101.9,122.4h78.3v-1.6h35.5v1.6h78.6c2.9,0,5.3,2.4,5.3,5.3l0,0v107.2c0,2.9-2.4,5.3-5.3,5.3l0,0H101.8
	c-2.9,0-5.3-2.4-5.3-5.3l0,0V127.7C96.6,124.8,99,122.4,101.9,122.4L101.9,122.4z"/>
<rect x="103.7" y="131.8" class="st3" width="188.9" height="106.5"/>
<circle class="st1" cx="198.3" cy="126.9" r="1.9"/>
<rect x="61.5" y="251.4" class="st2" width="274" height="0.7"/>
<path class="st1" d="M172.3,171.6v-7.9c0-5.3,4.3-9.7,9.7-9.7l0,0h7.9c0-1.1,3.4-1.9,7.8-2v-9.5c-3-0.4-5.1-3.1-4.7-6
	c0.4-3,3.1-5.1,6-4.7c3,0.4,5.1,3.1,4.7,6c-0.3,2.4-2.2,4.4-4.7,4.7v9.5c4.3,0.1,7.8,1,7.8,2h9.2c5.3,0,9.7,4.3,9.7,9.7l0,0v7.9
	c1.1,0,2,3.8,2,8.4s-0.9,8.4-2,8.4v9.2c0,5.3-4.3,9.7-9.7,9.7l0,0h-34c-5.3,0-9.7-4.3-9.7-9.7l0,0v-9.2c-1.1,0-2-3.8-2-8.4
	S171.2,171.6,172.3,171.6z"/>
<path class="st2" d="M214.1,157.1H184c-4.7,0-8.6,3.8-8.6,8.6l0,0v30.1c0,4.7,3.8,8.6,8.6,8.6l0,0h30.1c4.7,0,8.6-3.8,8.6-8.6l0,0
	v-30.1C222.6,160.9,218.8,157.1,214.1,157.1z"/>
<path class="st1" d="M209.8,179.5c3.4,0,6.1-2.7,6.1-6.1c0-0.2-0.2-0.3-0.3-0.3s-0.3,0.2-0.3,0.3c0,3-2.4,5.4-5.4,5.4
	s-5.4-2.4-5.4-5.4l0,0c0-0.2-0.2-0.3-0.3-0.3c-0.2,0-0.3,0.2-0.3,0.3C203.7,176.8,206.5,179.5,209.8,179.5z"/>
<path class="st1" d="M199,191c2.6,0,4.7-2.1,4.7-4.7c0-0.2-0.2-0.3-0.3-0.3s-0.3,0.2-0.3,0.3c0,2.2-1.8,4.1-4.1,4.1
	c-2.2,0-4.1-1.8-4.1-4.1c0-0.2-0.1-0.3-0.3-0.3c-0.2,0-0.3,0.1-0.3,0.3l0,0C194.3,188.9,196.4,191,199,191z"/>
<path class="st1" d="M188.2,179.5c3.4,0,6.1-2.7,6.1-6.1c0-0.2-0.2-0.3-0.3-0.3s-0.3,0.2-0.3,0.3c0,3-2.4,5.4-5.4,5.4
	s-5.4-2.4-5.4-5.4l0,0c0-0.2-0.2-0.3-0.3-0.3c-0.2,0-0.3,0.2-0.3,0.3C182.1,176.8,184.8,179.5,188.2,179.5z"/>
<circle class="st1" cx="209.8" cy="173.8" r="3"/>
<circle class="st1" cx="188.2" cy="173.8" r="3"/>
<ellipse class="st1" cx="199" cy="187.9" rx="2.7" ry="1.4"/>
<path class="st2" d="M91.3,236.4h18.4V235c0-0.1,0.1-0.3,0.3-0.3l0,0h6.3c0.1,0,0.3,0.1,0.3,0.3l0,0v1.3h3.9V235
	c0-0.1,0.1-0.3,0.3-0.3h6.3c0.1,0,0.3,0.1,0.3,0.3l0,0v1.3h3.9V235c0-0.1,0.1-0.3,0.3-0.3l0,0h6.3c0.1,0,0.3,0.1,0.3,0.3l0,0v1.3
	h3.9V235c0-0.1,0.1-0.3,0.3-0.3l0,0h6.3c0.1,0,0.3,0.1,0.3,0.3l0,0v1.3h3.9V235c0-0.1,0.1-0.3,0.3-0.3l0,0h6.3
	c0.1,0,0.3,0.1,0.3,0.3l0,0v1.3h3.9V235c0-0.1,0.1-0.3,0.3-0.3l0,0h6.3c0.1,0,0.3,0.1,0.3,0.3l0,0v1.3h3.9V235
	c0-0.1,0.1-0.3,0.3-0.3l0,0h49.5c0.1,0,0.3,0.1,0.3,0.3l0,0v1.3h3.9V235c0-0.1,0.1-0.3,0.3-0.3l0,0h6.3c0.1,0,0.3,0.1,0.3,0.3v1.3
	h3.9V235c0-0.1,0.1-0.3,0.3-0.3l0,0h6.3c0.1,0,0.3,0.1,0.3,0.3l0,0v1.3h3.9V235c0-0.1,0.1-0.3,0.3-0.3l0,0h6.3
	c0.1,0,0.3,0.1,0.3,0.3l0,0v1.3h3.9V235c0-0.1,0.1-0.3,0.3-0.3l0,0h6.3c0.1,0,0.3,0.1,0.3,0.3l0,0v1.3h3.9V235
	c0-0.1,0.1-0.3,0.3-0.3l0,0h6.3c0.1,0,0.3,0.1,0.3,0.3l0,0v1.3h3.9V235c0-0.1,0.1-0.3,0.3-0.3l0,0h6.3c0.1,0,0.3,0.1,0.3,0.3l0,0
	v1.3h12.1c3.5,0,6.3,2.8,6.3,6.3l0,0v2.9c0,3.5-2.8,6.3-6.3,6.3H91.4c-3.5,0-6.3-2.8-6.3-6.3v-2.9C85,239.2,87.8,236.4,91.3,236.4
	L91.3,236.4z"/>
<rect x="137.7" y="206.9" class="st1" width="126" height="0.7"/>
<path class="st4" d="M254.7,206.6h31c-1-11.7-1-23.4,0-35.1h-31C256.4,183.5,256.5,195.2,254.7,206.6z"/>
<rect x="258.9" y="178.5" class="st2" width="22.4" height="1.5"/>
<rect x="258.9" y="183.4" class="st2" width="22.4" height="1.5"/>
<rect x="258.9" y="188.2" class="st2" width="22.4" height="1.5"/>
<rect x="258.9" y="193.1" class="st2" width="22.4" height="1.5"/>
<rect x="258.9" y="198" class="st2" width="22.4" height="1.5"/>
<path class="st5" d="M337.2,89.3c0,0,4.9-1.7,8,5.2c3.1,7,8,14.6,8,14.6l-2.8,0.7c0,0-0.7-4.9-2.4-5.6l0.7,6.3
	c0,0-20.9,7.3-30.3-0.7l0.3-2.4c0,0-1.4,0.3-1.4,2.4l-1-1c0,0,1-2.1,4.2-4.9c2.1-1.8,2.8-5.3,3-7.5c0.2-1.8,0.9-3.5,2.1-4.9
	C327.6,89.1,331.4,86.5,337.2,89.3z"/>
<polygon class="st6" points="351.2,242.9 349.7,251.5 343.7,250.4 342.6,242.9 "/>
<path class="st5" d="M342.6,247.7l8.2,0.7l-0.4,6.7l0.4,8.6c0,0,4.9,9.7-2.2,9s-6.4-4.5-6.4-4.5l-1.9-2.2l1.1-5.6L342.6,247.7z"/>
<polygon class="st6" points="317.6,242.9 319.1,251.5 325.1,250.4 326.2,242.9 "/>
<path class="st5" d="M326.2,247.7l-8.2,0.7l0.4,6.7l-0.4,8.6c0,0-4.9,9.7,2.2,9s6.4-4.5,6.4-4.5l1.9-2.2l-1.1-5.6L326.2,247.7z"/>
<circle class="st6" cx="334.8" cy="103.8" r="8.6"/>
<path class="st6" d="M340.4,108.3l-1.1,13.5l-10.5-0.4c0,0,3-8.6,1.1-12L340.4,108.3z"/>
<path class="st5" d="M334.4,119.1l-4.3-2.7l-4.7,2.3l-7.5,3.4l2.6,31.8c0,0-6,19.8-4.9,29.5s-12.3,58.3-1.5,60.6s18.7,4.5,19.1,0.7
	s1.1-60.9,1.1-60.9s1.1,60.6,5.6,61.3s23.9,3.7,22.4-0.7s-11.6-83-16.4-87.5l-0.7-3.7l6.4-30.3l-11.9-5.9L334.4,119.1z"/>
<path class="st6" d="M356.8,165.5l0.4,15.3c0,0,3.6,15.1-2.5,15s-1.6-15-1.6-15l-2.6-15L356.8,165.5z"/>
<path class="st6" d="M300.3,149.4l-10.5,11.2c0,0-12.8,8.9-8.2,12.9s11.2-10.1,11.2-10.1l11.9-9.4L300.3,149.4z"/>
<polygon class="st4" points="345.8,156 320.2,155.2 320.5,153.4 320.5,153.4 345.3,153 "/>
<circle class="st5" cx="340.6" cy="154.5" r="2.2"/>
<path class="st5" d="M348.6,123.3l2.4-0.6c0,0,3.2,1.3,3.9,5.4c0.7,4.1,10.5,36.3,5.6,38.1s-12,2.6-12,1.9s-3-28.8-3-28.8
	L348.6,123.3z"/>
<path class="st5" d="M325.7,124.7l-7.8-2.5c0,0-3.7,0-3.7,4.1c0,1.7-7.2,15.6-7.2,15.6s-17.2,12.3-14.6,12.7
	c4.5,0.7,7.1,8.6,7.1,8.6l16.8-15L325.7,124.7z"/>
<path class="st5" d="M345.3,104.5c0,0-2.8-3.8-5.2-4.5s-2.8-4.2-2.8-4.2s-6.3,7-10.1,7.3s-0.3-8.4-0.3-8.4l7-1.7l6.6,0.7l5.2,3.5
	L345.3,104.5z"/>
<ellipse class="st6" cx="343.2" cy="102.5" rx="1.1" ry="1.7"/>
</svg>
