<?xml version="1.0" encoding="utf-8"?>
<!-- Generator: Adobe Illustrator 22.0.1, SVG Export Plug-In . SVG Version: 6.00 Build 0)  -->
<svg version="1.1" id="Layer_1" xmlns="http://www.w3.org/2000/svg" xmlns:xlink="http://www.w3.org/1999/xlink" x="0px" y="0px"
	 viewBox="0 0 1300 400" style="enable-background:new 0 0 1300 400;" xml:space="preserve">
<style type="text/css">
	.st0{fill:url(#SVGID_1_);stroke:#000000;stroke-width:1.6452;stroke-miterlimit:10;}
	.st1{fill:#61B0D8;}
	.st2{fill:#3F3D56;}
	.st3{fill:#747475;}
	.st4{opacity:0.2;fill:#F2F2F2;enable-background:new    ;}
	.st5{fill:#E8F4F9;}
	.st6{fill:#5B5A6B;}
	.st7{fill:#0D8CD8;}
	.st8{fill:#E5E4EF;}
	.st9{fill:#2F2E41;}
	.st10{fill:#FFB9B9;}
	.st11{fill:#A3A3A3;}
	.st12{fill:#E5E5E5;}
	.st13{fill:#D0CDE1;}
	.st14{fill:#8B8B91;}
</style>
<linearGradient id="SVGID_1_" gradientUnits="userSpaceOnUse" x1="2395.573" y1="200" x2="2600" y2="200" gradientTransform="matrix(6.3592 0 0 1 -15234.0137 0)">
	<stop  offset="0" style="stop-color:#00354D"/>
	<stop  offset="0.4129" style="stop-color:#00364F"/>
	<stop  offset="0.5616" style="stop-color:#003C56"/>
	<stop  offset="0.6676" style="stop-color:#004561"/>
	<stop  offset="0.7534" style="stop-color:#005272"/>
	<stop  offset="0.8268" style="stop-color:#006388"/>
	<stop  offset="0.8918" style="stop-color:#0078A4"/>
	<stop  offset="0.9492" style="stop-color:#0091C3"/>
	<stop  offset="1" style="stop-color:#00ACE6"/>
	<stop  offset="1" style="stop-color:#0093C7"/>
	<stop  offset="1" style="stop-color:#0075A3"/>
	<stop  offset="1" style="stop-color:#005B83"/>
	<stop  offset="1" style="stop-color:#004567"/>
	<stop  offset="1" style="stop-color:#003351"/>
	<stop  offset="1" style="stop-color:#002540"/>
	<stop  offset="1" style="stop-color:#001B35"/>
	<stop  offset="1" style="stop-color:#00162E"/>
	<stop  offset="1" style="stop-color:#00142C"/>
</linearGradient>
<rect class="st0" width="1300" height="400"/>
<path class="st1" d="M364.4,263.4c0.4,0,0.7,0.1,1,0.4c0.9-2.3,2.2-3.8,3.8-3.8s2.9,1.5,3.8,3.8c0.3-0.2,0.7-0.4,1-0.4
	c1.7,0,3.2,2.9,3.2,6.6h-16C361.3,266.4,362.7,263.4,364.4,263.4z"/>
<rect x="301" y="269.6" class="st2" width="80.9" height="0.7"/>
<path class="st1" d="M76.9,247.9c0.4,0,0.7,0.1,1,0.4c0.9-2.3,2.2-3.8,3.8-3.8s2.9,1.5,3.8,3.8c0.3-0.2,0.7-0.4,1-0.4
	c1.7,0,3.2,2.9,3.2,6.6h-16C73.8,250.9,75.2,247.9,76.9,247.9z"/>
<path class="st3" d="M111.3,126.9h77v-1.6h34.9v1.6h77.3c2.9,0,5.2,2.3,5.2,5.2l0,0v105.5c0,2.9-2.3,5.2-5.2,5.2l0,0H111.2
	c-2.9,0-5.2-2.3-5.2-5.2l0,0V132.1C106,129.3,108.4,126.9,111.3,126.9L111.3,126.9z"/>
<rect x="113.1" y="136.1" class="st4" width="185.7" height="104.8"/>
<circle class="st5" cx="206" cy="131.3" r="1.9"/>
<rect x="71.4" y="253.8" class="st2" width="269.5" height="0.7"/>
<path class="st5" d="M180.5,175.3v-7.8c0-5.3,4.3-9.5,9.5-9.5l0,0h7.8c0-1,3.3-1.9,7.6-2v-9.3c-2.9-0.4-5-3-4.6-5.9s3-5,5.9-4.6
	s5,3,4.6,5.9c-0.3,2.4-2.2,4.3-4.6,4.6v9.3c4.3,0.1,7.6,1,7.6,2h9c5.3,0,9.5,4.3,9.5,9.5l0,0v7.8c1.1,0,2,3.7,2,8.3s-0.9,8.3-2,8.3
	v9.1c0,5.3-4.3,9.5-9.5,9.5l0,0h-33.5c-5.3,0-9.5-4.3-9.5-9.5l0,0v-9.1c-1.1,0-2-3.7-2-8.3C178.5,179,179.4,175.3,180.5,175.3z"/>
<path class="st6" d="M221.6,161H192c-4.7,0-8.4,3.8-8.4,8.4l0,0V199c0,4.7,3.8,8.4,8.4,8.4l0,0h29.6c4.7,0,8.4-3.8,8.4-8.4l0,0
	v-29.6C230,164.8,226.2,161,221.6,161z"/>
<path class="st5" d="M217.4,183.1c3.3,0,6-2.7,6-6c0-0.2-0.1-0.3-0.3-0.3s-0.3,0.1-0.3,0.3c0,2.9-2.4,5.3-5.3,5.3s-5.3-2.4-5.3-5.3
	l0,0c0-0.2-0.1-0.3-0.3-0.3s-0.3,0.1-0.3,0.3C211.4,180.4,214.1,183.1,217.4,183.1z"/>
<path class="st5" d="M206.7,194.4c2.6,0,4.6-2.1,4.6-4.6c0-0.2-0.1-0.3-0.3-0.3s-0.3,0.1-0.3,0.3c0,2.2-1.8,4-4,4s-4-1.8-4-4
	c0-0.2-0.1-0.3-0.3-0.3s-0.3,0.1-0.3,0.3l0,0C202.1,192.3,204.2,194.4,206.7,194.4z"/>
<path class="st5" d="M196.1,183.1c3.3,0,6-2.7,6-6c0-0.2-0.1-0.3-0.3-0.3s-0.3,0.1-0.3,0.3c0,2.9-2.4,5.3-5.3,5.3s-5.3-2.4-5.3-5.3
	l0,0c0-0.2-0.1-0.3-0.3-0.3s-0.3,0.1-0.3,0.3C190.2,180.4,192.8,183.1,196.1,183.1z"/>
<circle class="st5" cx="217.4" cy="177.4" r="3"/>
<circle class="st5" cx="196.1" cy="177.4" r="3"/>
<ellipse class="st5" cx="206.7" cy="191.4" rx="2.6" ry="1.3"/>
<path class="st3" d="M100.8,239h18.1v-1.3c0-0.1,0.1-0.3,0.3-0.3l0,0h6.2c0.1,0,0.3,0.1,0.3,0.3l0,0v1.3h3.9v-1.3
	c0-0.1,0.1-0.3,0.3-0.3h6.2c0.1,0,0.3,0.1,0.3,0.3l0,0v1.3h3.9v-1.3c0-0.1,0.1-0.3,0.3-0.3l0,0h6.2c0.1,0,0.3,0.1,0.3,0.3l0,0v1.3
	h3.9v-1.3c0-0.1,0.1-0.3,0.3-0.3l0,0h6.2c0.1,0,0.3,0.1,0.3,0.3l0,0v1.3h3.9v-1.3c0-0.1,0.1-0.3,0.3-0.3l0,0h6.2
	c0.1,0,0.3,0.1,0.3,0.3l0,0v1.3h3.9v-1.3c0-0.1,0.1-0.3,0.3-0.3l0,0h6.2c0.1,0,0.3,0.1,0.3,0.3l0,0v1.3h3.9v-1.3
	c0-0.1,0.1-0.3,0.3-0.3l0,0h48.7c0.1,0,0.3,0.1,0.3,0.3l0,0v1.3h3.9v-1.3c0-0.1,0.1-0.3,0.3-0.3l0,0h6.2c0.1,0,0.3,0.1,0.3,0.3v1.3
	h3.9v-1.3c0-0.1,0.1-0.3,0.3-0.3l0,0h6.2c0.1,0,0.3,0.1,0.3,0.3l0,0v1.3h3.9v-1.3c0-0.1,0.1-0.3,0.3-0.3l0,0h6.2
	c0.1,0,0.3,0.1,0.3,0.3l0,0v1.3h3.9v-1.3c0-0.1,0.1-0.3,0.3-0.3l0,0h6.2c0.1,0,0.3,0.1,0.3,0.3l0,0v1.3h3.9v-1.3
	c0-0.1,0.1-0.3,0.3-0.3l0,0h6.2c0.1,0,0.3,0.1,0.3,0.3l0,0v1.3h3.9v-1.3c0-0.1,0.1-0.3,0.3-0.3l0,0h6.2c0.1,0,0.3,0.1,0.3,0.3l0,0
	v1.3h11.9c3.4,0,6.2,2.8,6.2,6.2l0,0v2.8c0,3.4-2.8,6.2-6.2,6.2H101.9c-3.4,0-6.2-2.8-6.2-6.2v-2.8C94.6,241.8,97.4,239,100.8,239
	L100.8,239z"/>
<rect x="146.4" y="210" class="st7" width="123.9" height="0.7"/>
<path class="st8" d="M261.5,209.7H292c-1-11.5-1-23.1,0-34.6h-30.5C263.2,186.9,263.3,198.5,261.5,209.7z"/>
<rect x="265.5" y="182.1" class="st2" width="22.1" height="1.5"/>
<rect x="265.5" y="186.9" class="st2" width="22.1" height="1.5"/>
<rect x="265.5" y="191.6" class="st2" width="22.1" height="1.5"/>
<rect x="265.5" y="196.4" class="st2" width="22.1" height="1.5"/>
<rect x="265.5" y="201.2" class="st2" width="22.1" height="1.5"/>
<path class="st9" d="M342.6,94.3c0,0,4.8-1.7,7.9,5.1c3.1,6.9,7.9,14.4,7.9,14.4l-2.8,0.7c0,0-0.7-4.8-2.4-5.5l0.7,6.1
	c0,0-20.6,7.2-29.8-0.7l0.3-2.4c0,0-1.4,0.3-1.4,2.4l-1-1c0,0,1-2.1,4.1-4.8c2-1.8,2.7-5.2,2.9-7.4c0.2-1.8,0.9-3.5,2.1-4.9
	C333.2,94.1,337,91.6,342.6,94.3z"/>
<polygon class="st10" points="356.5,245.4 355,253.9 349.1,252.8 348,245.4 "/>
<path class="st11" d="M348,250.2l8.1,0.7l-0.4,6.6l0.4,8.5c0,0,4.8,9.6-2.2,8.8c-7-0.7-6.3-4.4-6.3-4.4l-1.8-2.2l1.1-5.5L348,250.2z
	"/>
<polygon class="st10" points="323.4,245.4 324.8,253.9 330.7,252.8 331.8,245.4 "/>
<path class="st11" d="M331.8,250.2l-8.1,0.7l0.4,6.6l-0.4,8.5c0,0-4.8,9.6,2.2,8.8c7-0.7,6.3-4.4,6.3-4.4l1.8-2.2l-1.1-5.5
	L331.8,250.2z"/>
<ellipse class="st10" cx="340.3" cy="108.7" rx="8.5" ry="8.5"/>
<path class="st10" d="M345.8,113l-1.1,13.2l-10.3-0.4c0,0,2.9-8.5,1.1-11.8L345.8,113z"/>
<path class="st12" d="M339.9,123.7l-4.2-2.6l-4.6,2.3l-7.4,3.3l2.6,31.3c0,0-5.9,19.5-4.8,29c1.1,9.6-12.1,57.4-1.5,59.6
	c10.7,2.2,18.4,4.4,18.8,0.7c0.4-3.7,1.1-59.9,1.1-59.9s1.1,59.6,5.5,60.3s23.5,3.7,22.1-0.7c-1.5-4.4-11.4-81.6-16.2-86l-0.7-3.7
	l6.3-29.8l-11.7-5.8L339.9,123.7z"/>
<path class="st10" d="M362,169.3l0.4,15.1c0,0,3.5,14.9-2.5,14.8c-6-0.1-1.6-14.8-1.6-14.8l-2.6-14.7L362,169.3z"/>
<path class="st10" d="M306.4,153.5l-10.3,11c0,0-12.6,8.7-8.1,12.6c4.5,3.9,11.1-10,11.1-10l11.7-9.2L306.4,153.5z"/>
<polygon class="st13" points="351.1,159.9 325.9,159.1 326.3,157.5 326.3,157.5 350.6,157 "/>
<circle class="st14" cx="346" cy="158.4" r="2.2"/>
<path class="st12" d="M353.9,127.7l2.4-0.6c0,0,3.1,1.3,3.9,5.3c0.7,4,10.3,35.7,5.5,37.5s-11.8,2.6-11.8,1.8s-2.9-28.3-2.9-28.3
	L353.9,127.7z"/>
<path class="st12" d="M331.4,129.1l-7.6-2.5c0,0-3.7,0-3.7,4c0,1.7-7.1,15.4-7.1,15.4s-16.9,12.1-14.3,12.5c4.4,0.7,7,8.5,7,8.5
	l16.5-14.7L331.4,129.1z"/>
<path class="st9" d="M350.6,109.3c0,0-2.8-3.8-5.1-4.4s-2.8-4.1-2.8-4.1s-6.2,6.8-9.9,7.2c-3.8,0.4-0.3-8.2-0.3-8.2l6.9-1.7l6.5,0.7
	l5.1,3.4L350.6,109.3z"/>
<ellipse class="st10" cx="348.5" cy="107.3" rx="1.1" ry="1.7"/>
</svg>
