<?xml version="1.0" encoding="utf-8"?>
<!-- Generator: Adobe Illustrator 22.0.1, SVG Export Plug-In . SVG Version: 6.00 Build 0)  -->
<svg version="1.1" id="Layer_1" xmlns="http://www.w3.org/2000/svg" xmlns:xlink="http://www.w3.org/1999/xlink" x="0px" y="0px"
	 viewBox="0 0 1300 400" style="enable-background:new 0 0 1300 400;" xml:space="preserve">
<style type="text/css">
	.st0{fill:url(#SVGID_1_);stroke:#000000;stroke-width:1.6452;stroke-miterlimit:10;}
	.st1{fill:#3F3D56;}
	.st2{fill:#0D8CD8;}
	.st3{fill:#2F2E41;}
	.st4{fill:#A0616A;}
</style>
<linearGradient id="SVGID_1_" gradientUnits="userSpaceOnUse" x1="0" y1="200" x2="55.6233" y2="200" gradientTransform="matrix(-23.3715 0 0 1 1300 0)">
	<stop  offset="0" style="stop-color:#007194"/>
	<stop  offset="1" style="stop-color:#41C1C9"/>
</linearGradient>
<rect class="st0" width="1300" height="400"/>
<path class="st1" d="M122.4,273.7c0,0,10.8,4,15.9,13.5c5.1,9.4,2.5,20.6,2.5,20.6s-10.8-4-15.9-13.5
	C119.8,284.9,122.4,273.7,122.4,273.7z"/>
<path class="st2" d="M107.9,287.7c0,0,3.5,11,12.7,16.5s20.5,3.5,20.5,3.5s-3.5-11-12.7-16.5S107.9,287.7,107.9,287.7z"/>
<rect x="31.7" y="310.4" class="st3" width="366.2" height="0.8"/>
<path class="st3" d="M250,272.8c5.2-1,10.2-3,14.6-5.9l-0.5-0.7c-4.3,2.9-9.2,4.8-14.3,5.8c-7.7,1.4-19.3,0.7-30.5-10.4
	c-21.8-21.7-42.7-23.9-42.9-23.9l-0.1,0.8c0.2,0,20.7,2.2,42.4,23.7c8.8,8.8,17.9,11.2,25.2,11.2C246,273.3,248,273.1,250,272.8z"/>
<circle class="st3" cx="187.3" cy="250.7" r="4.9"/>
<circle class="st3" cx="222.1" cy="273.6" r="4.9"/>
<path class="st1" d="M118.5,310.8c0,0,7.1-2.2,21.4-4.4l-0.3-4.4c-2.5-24.5,13.9-61.3,13.9-61.3c-6.2,18.3-9.2,37.5-8.8,56.8
	c2.2-3.8,6.4-7.9,14.5-10.4c0,0-10.5,9-13.6,18.4c13.8-1.8,27.7-3,41.7-3.4l-3.6-8.3l6.9,6.9c0,0,2.9-20.8,9-21.7l-4.5,20.4
	c0,0,5.3-4.1,6.5-3.7l-3,6c20.4-0.2,44.6,0.7,72.7,3.7l-3.4-7.9l6.9,6.9c0,0,2.9-20.8,9-21.7l-4.5,20.4c0,0,5.3-4.1,6.5-3.7
	l-3.5,7.1c9.2,1.1,18.7,2.4,28.7,4H118.5V310.8z"/>
<path class="st4" d="M231.3,113.1c4.5,4.8-7.2,16.5-7.2,16.5s23.6,4,21.7,3.7s-0.9-20.1-0.9-20.1S226.8,108.3,231.3,113.1z"/>
<path class="st3" d="M214.9,164.5l20.5,10.5l11.1,6.4c0,0,13.1,16.5,15.6,26.3c2.4,9.8-10.6,27.9-12.1,29.8c-0.8,1-1.4,2-2,3
	c-0.5,0.8-4.9-0.2-9.7-1.3c-4.8-1,0.6-8.2,0.6-8.2s6.1-15.7,6.6-16c0.4-0.3,1.9-3,0.8-4.2c-1-1-1.7-2.3-2.2-3.6
	c-0.4-1.2-1-2.3-1.7-3.2c0,0-18.5-15.1-24.3-20.2c-5.8-5.1-21.2-1.9-21.2-1.9s7.3,27.9,9.1,29.8c1.8,1.9,2,3.6,1.2,6.7
	c-0.8,3.2-11.6,0.2-11.6,0.2l-4-10.8c0,0-6.4-14-9.9-28.5c-1.7-7.2,1.6-11.5,5.4-14c3.6-2.4,8-3.2,12.3-2.4l18.9,3.3l-13.1-5.7
	L214.9,164.5z"/>
<path class="st4" d="M290.4,137.6l24.5-7.6c0,0,9.9-12.7,5.2-15c-4.7-2.2-10.5,11-10.5,11l-17,1.1L290.4,137.6z"/>
<path class="st4" d="M187.6,124.3l-21.7-13.5c0,0-6.3-14.8-1.3-15.8s7.4,13.3,7.4,13.3l16.2,5.4L187.6,124.3z"/>
<path class="st2" d="M183.5,109.1l-0.4,16l36.7,6.5c-5.4,11.5-4,24.7-17.6,30.4l45.7,22.4c-2-17.6,6.5-30.8,14.4-47.3
	c9.7-3.5,20.9-0.9,32.8,4.2l2.1-16.6l-50.6-3.6l-8.3,3.2l-8.9-3.8C216.3,116.6,197.5,109.2,183.5,109.1z"/>
<path class="st3" d="M206.3,217.8c1.1,1,2.1,8.9,2.2,11.8s-3.8,3.6-5.8,3.8c-2.1,0.1-1.8,1.4-3.2,2.5s-5.9,0.9-11.8-1.1
	s4-8.6,4.8-8.9c0.9-0.3,4.5-9.3,4.5-9.3S205.2,216.9,206.3,217.8z"/>
<path class="st3" d="M238.7,236c-1.3,0.7-4.3,8.1-5.1,10.9c-0.8,2.8,2.7,4.5,4.7,5.1c2,0.7,1.4,1.8,2.5,3.2
	c1.1,1.4,5.5,2.4,11.7,1.9c6.2-0.4-1.7-9.3-2.4-9.8c-0.8-0.5-2-10.1-2-10.1S240.1,235.4,238.7,236z"/>
<circle class="st4" cx="238.7" cy="109.4" r="9.8"/>
<path class="st3" d="M250,108.5c1.2-2.4,1.3-5.1,0.3-7.6c-1-2.4-3.1-4.8-7.7-5.5c-10.1-1.6-15.4,5.5-15.1,7.8s1.6,7.9,1.6,7.9
	s-0.6-5.3,2-5.5s12.6-1,15.2,1.7c1.5,1.5,2.1,3.6,1.5,5.7L250,108.5z"/>
</svg>
