<?xml version="1.0" encoding="utf-8"?>
<!-- Generator: Adobe Illustrator 22.0.1, SVG Export Plug-In . SVG Version: 6.00 Build 0)  -->
<svg version="1.1" id="Layer_1" xmlns="http://www.w3.org/2000/svg" xmlns:xlink="http://www.w3.org/1999/xlink" x="0px" y="0px"
	 viewBox="0 0 1300 400" style="enable-background:new 0 0 1300 400;" xml:space="preserve">
<style type="text/css">
	.st0{fill:url(#SVGID_1_);stroke:#000000;stroke-width:1.6452;stroke-miterlimit:10;}
	.st1{fill:#828196;}
	.st2{fill:#A9CBDB;}
	.st3{fill:#2F2E41;}
	.st4{fill:#DDDDDD;}
	.st5{fill:#B1B1B2;}
	.st6{fill:#A0616A;}
	.st7{fill:#B6B6B7;}
	.st8{fill:#DCEFF9;}
	.st9{fill:#E3E3E5;}
	.st10{fill:#595959;}
</style>
<linearGradient id="SVGID_1_" gradientUnits="userSpaceOnUse" x1="1851.2629" y1="201" x2="2597.3999" y2="201" gradientTransform="matrix(1.7423 0 0 1 -3225.469 0)">
	<stop  offset="0" style="stop-color:#00354D"/>
	<stop  offset="0.4129" style="stop-color:#00364F"/>
	<stop  offset="0.5616" style="stop-color:#003C56"/>
	<stop  offset="0.6676" style="stop-color:#004561"/>
	<stop  offset="0.7534" style="stop-color:#005272"/>
	<stop  offset="0.8268" style="stop-color:#006388"/>
	<stop  offset="0.8918" style="stop-color:#0078A4"/>
	<stop  offset="0.9492" style="stop-color:#0091C3"/>
	<stop  offset="1" style="stop-color:#00ACE6"/>
	<stop  offset="1" style="stop-color:#0093C7"/>
	<stop  offset="1" style="stop-color:#0075A3"/>
	<stop  offset="1" style="stop-color:#005B83"/>
	<stop  offset="1" style="stop-color:#004567"/>
	<stop  offset="1" style="stop-color:#003351"/>
	<stop  offset="1" style="stop-color:#002540"/>
	<stop  offset="1" style="stop-color:#001B35"/>
	<stop  offset="1" style="stop-color:#00162E"/>
	<stop  offset="1" style="stop-color:#00142C"/>
</linearGradient>
<rect y="1" class="st0" width="1300" height="400"/>
<path class="st1" d="M95.2,256.3c0,0,8.6,3.2,12.6,10.7s2,16.5,2,16.5s-8.6-3.2-12.6-10.7S95.2,256.3,95.2,256.3z"/>
<path class="st2" d="M83.6,267.5c0,0,2.8,8.7,10.1,13.1s16.4,2.8,16.4,2.8s-2.8-8.7-10.1-13.1S83.6,267.5,83.6,267.5z"/>
<rect x="22.8" y="285.6" class="st3" width="292.1" height="0.7"/>
<path class="st4" d="M196.9,255.6c4.2-0.7,8.1-2.3,11.6-4.7l-0.4-0.5c-3.5,2.3-7.3,3.8-11.4,4.6c-6.2,1.1-15.4,0.6-24.4-8.3
	c-17.4-17.3-34-19-34.2-19l-0.1,0.7c0.2,0,16.6,1.7,33.8,18.9c7,7,14.3,8.9,20.1,8.9C193.8,256,195.4,255.9,196.9,255.6z"/>
<circle class="st4" cx="147" cy="238" r="3.9"/>
<circle class="st4" cx="174.7" cy="256.3" r="3.9"/>
<path class="st5" d="M92.1,285.9c0,0,5.7-1.8,17.1-3.5l-0.3-3.5c-2-19.6,11.1-48.9,11.1-48.9c-5,14.6-7.3,29.9-7,45.3
	c1.7-3,5.1-6.3,11.6-8.3c0,0-8.4,7.2-10.8,14.7c11-1.5,22.1-2.3,33.3-2.7l-2.9-6.7l5.5,5.5c0,0,2.3-16.6,7.2-17.3l-3.6,16.3
	c0,0,4.2-3.3,5.2-2.9l-2.4,4.8c16.2-0.2,35.6,0.6,58,2.9l-2.7-6.3l5.5,5.5c0,0,2.3-16.6,7.2-17.3l-3.6,16.3c0,0,4.2-3.3,5.2-2.9
	l-2.8,5.6c7.3,0.9,14.9,1.9,22.9,3.2L92.1,285.9L92.1,285.9z"/>
<path class="st6" d="M182,128.3c3.6,3.8-5.7,13.1-5.7,13.1s18.8,3.2,17.3,3s-0.7-16-0.7-16S178.5,124.4,182,128.3z"/>
<path class="st7" d="M168.9,169.2l16.3,8.3l8.9,5.1c0,0,10.5,13.2,12.4,21c2,7.8-8.4,22.2-9.6,23.7c-0.6,0.7-1.1,1.6-1.6,2.4
	c-0.4,0.6-3.9-0.2-7.8-1c-3.8-0.8,0.5-6.5,0.5-6.5s4.9-12.5,5.2-12.8c0.3-0.3,1.5-2.4,0.7-3.4c-0.8-0.8-1.4-1.8-1.8-2.9
	c-0.3-0.9-0.8-1.8-1.4-2.6c0,0-14.8-12-19.4-16.1s-16.9-1.5-16.9-1.5s5.8,22.2,7.2,23.7c1.4,1.5,1.6,2.8,0.9,5.4
	c-0.7,2.5-9.2,0.1-9.2,0.1l-3.2-8.6c0,0-5.1-11.2-7.9-22.7c-1.4-5.8,1.3-9.2,4.3-11.2c2.9-1.9,6.4-2.6,9.8-2l15.1,2.6l-10.5-4.5
	L168.9,169.2z"/>
<path class="st6" d="M229.2,147.8l19.5-6c0,0,7.9-10.2,4.2-12c-3.7-1.8-8.4,8.8-8.4,8.8l-13.6,0.9L229.2,147.8z"/>
<path class="st6" d="M147.2,137.2l-17.3-10.8c0,0-5.1-11.8-1-12.6s5.9,10.6,5.9,10.6l12.9,4.3L147.2,137.2z"/>
<path class="st8" d="M143.9,125l-0.3,12.8l29.2,5.2c-4.3,9.2-3.2,19.7-14,24.3l36.5,17.8c-1.6-14,5.2-24.6,11.5-37.8
	c7.7-2.8,16.7-0.7,26.2,3.4l1.7-13.3l-40.4-2.9l-6.6,2.5l-7.1-3C170.1,131,155.1,125.1,143.9,125z"/>
<path class="st9" d="M162.2,211.8c0.9,0.8,1.7,7.1,1.7,9.4s-3,2.9-4.7,3s-1.5,1.1-2.5,2c-1.1,0.8-4.7,0.7-9.4-0.9
	c-4.7-1.6,3.2-6.8,3.9-7.1c0.7-0.2,3.6-7.4,3.6-7.4S161.3,211,162.2,211.8z"/>
<path class="st9" d="M188,226.3c-1,0.5-3.5,6.5-4.1,8.7s2.2,3.6,3.7,4.1c1.6,0.6,1.1,1.5,2,2.5s4.4,1.9,9.3,1.5s-1.3-7.4-2-7.8
	c-0.6-0.4-1.6-8.1-1.6-8.1S189.1,225.7,188,226.3z"/>
<circle class="st6" cx="188" cy="125.3" r="7.8"/>
<path class="st10" d="M197,124.5c0.9-1.9,1-4.1,0.3-6.1c-0.8-1.9-2.5-3.8-6.2-4.4c-8-1.2-12.3,4.4-12.1,6.2c0.2,1.9,1.3,6.3,1.3,6.3
	s-0.5-4.2,1.6-4.4c2.1-0.2,10.1-0.8,12.1,1.3c1.2,1.2,1.7,2.9,1.2,4.5L197,124.5z"/>
</svg>
