<?xml version="1.0" encoding="utf-8"?>
<!-- Generator: Adobe Illustrator 22.0.1, SVG Export Plug-In . SVG Version: 6.00 Build 0)  -->
<svg version="1.1" id="Layer_1" xmlns="http://www.w3.org/2000/svg" xmlns:xlink="http://www.w3.org/1999/xlink" x="0px" y="0px"
	 viewBox="0 0 1300 400" style="enable-background:new 0 0 1300 400;" xml:space="preserve">
<style type="text/css">
	.st0{fill:url(#SVGID_1_);stroke:#000000;stroke-width:1.6452;stroke-miterlimit:10;}
	.st1{fill:#3F3D56;}
	.st2{opacity:0.1;fill:#9796B5;enable-background:new    ;}
	.st3{fill:#9796B5;}
	.st4{opacity:0.1;enable-background:new    ;}
	.st5{fill:#F2F2F2;}
	.st6{fill:#5D5D5E;}
	.st7{fill:#929A9E;}
	.st8{fill:#575A5B;}
	.st9{fill:#FFB8B8;}
	.st10{fill:#9D9DA5;}
	.st11{fill:#747477;}
	.st12{fill:#2F2E41;}
	.st13{fill:#BABEDD;}
	.st14{fill:#B4B7D1;}
	.st15{fill:#C6D4DB;}
</style>
<linearGradient id="SVGID_1_" gradientUnits="userSpaceOnUse" x1="2471.1155" y1="200" x2="2600" y2="200" gradientTransform="matrix(10.0865 0 0 1 -24925.0156 0)">
	<stop  offset="0" style="stop-color:#00354D"/>
	<stop  offset="0.4129" style="stop-color:#00364F"/>
	<stop  offset="0.5616" style="stop-color:#003C56"/>
	<stop  offset="0.6676" style="stop-color:#004561"/>
	<stop  offset="0.7534" style="stop-color:#005272"/>
	<stop  offset="0.8268" style="stop-color:#006388"/>
	<stop  offset="0.8918" style="stop-color:#0078A4"/>
	<stop  offset="0.9492" style="stop-color:#0091C3"/>
	<stop  offset="1" style="stop-color:#00ACE6"/>
	<stop  offset="1" style="stop-color:#0093C7"/>
	<stop  offset="1" style="stop-color:#0075A3"/>
	<stop  offset="1" style="stop-color:#005B83"/>
	<stop  offset="1" style="stop-color:#004567"/>
	<stop  offset="1" style="stop-color:#003351"/>
	<stop  offset="1" style="stop-color:#002540"/>
	<stop  offset="1" style="stop-color:#001B35"/>
	<stop  offset="1" style="stop-color:#00162E"/>
	<stop  offset="1" style="stop-color:#00142C"/>
</linearGradient>
<rect class="st0" width="1300" height="400"/>
<path class="st1" d="M95.9,267c-4.5,16.1,39,52.9,115.7,32.4c61.7-16.5,115.7-23.6,115.7-32.4s-51.8,0.4-115.7,0.4
	C147.7,267.5,98.3,258.5,95.9,267z"/>
<path class="st2" d="M95.9,267c-4.5,16.1,39,52.9,115.7,32.4c61.7-16.5,115.7-23.6,115.7-32.4s-51.8,0.4-115.7,0.4
	C147.7,267.5,98.3,258.5,95.9,267z"/>
<path class="st3" d="M95.9,267c-4.5,16.1,39,36.5,115.7,16c61.7-16.5,115.7-7.2,115.7-16s-51.8-16-115.7-16
	C147.7,251.1,98.3,258.5,95.9,267z"/>
<ellipse class="st4" cx="174.4" cy="275.5" rx="8.9" ry="3.1"/>
<ellipse class="st4" cx="137.9" cy="275.5" rx="8.9" ry="3.1"/>
<ellipse class="st4" cx="211.5" cy="261.7" rx="29.2" ry="7.9"/>
<path class="st3" d="M82.2,237.6V94.5h258.7v143.1H221.5v19.1c6,0.7,10,2,10,3.6c0,2.3-8.9,4.1-20,4.1c-11,0-20-1.9-20-4.1
	c0-1.5,4-2.9,10-3.6v-19.1H82.2z"/>
<rect x="95.6" y="99.5" class="st5" width="231.9" height="128.3"/>
<path class="st4" d="M95.6,99.7c0,0,96.3,10,113.9,48.5s118,79.5,118,79.5H95.6V99.7z"/>
<path class="st6" d="M138.9,160.9v9.5h35.6v-8.9h1v114h-1v-20.4h-35.6v20.4h-1V160.9H138.9z M138.9,171.4v15.7h35.6v-15.7H138.9z
	 M174.4,220.6v-15.7h-35.6v15.7H174.4z M138.9,221.6v15.7h35.6v-15.7H138.9z M174.4,203.9v-15.7h-35.6v15.7H174.4z M174.4,254.1
	v-15.7h-35.6v15.7H174.4z"/>
<path class="st7" d="M185.7,163.2v1.4c0,0,1,0.4,1,2s0.8,7.7,0.8,7.7s-1.4,1.2-2.6,0.8c-0.7-0.2-1.3-0.6-1.8-1l-0.2-6.3l0.8-1.6
	v-2.9L185.7,163.2z"/>
<path class="st8" d="M146.7,106.6c0,0,3.5,0.4,3.5,2s2.8,7.7,2.8,7.7s-5,1.2-9.2,0.8c-4.3-0.4-6.4-1-6.4-1l-0.7-6.3l2.8-1.6
	L146.7,106.6z"/>
<path class="st9" d="M146.4,120.8V117c0,0,4.3-8.6,0.8-8.6s-3.9,7.7-3.9,7.7v5.5L146.4,120.8z"/>
<path class="st9" d="M183,161.4c0,0,2.2-1.2,2.6,0s1.6,3.9,0,4.1s-3.3-1.2-3.3-1.2L183,161.4z"/>
<path class="st10" d="M172,169.6c0,0,1.2,1.6-0.6,17.4c-1.8,15.8-0.8,27.3-4.1,27.1c0,0,0.9,3.4-2,3.5s-4.2,0.3-4.4-0.5
	c-0.2-0.8-0.6-4.4,0.2-4.4c0,0,0,1-0.4-3.1c-0.3-4.2,0.6-23.9-0.6-26.6l-4.6,9.4c0,0-0.2,4.4-1.1,6.5s-2.7,13.9-2.7,13.9l0.2,1.8
	c0,0-6.3,0.8-6.5-0.3s-0.1-2.6,0.1-3.1s0.3-0.5-0.2-1.6c-0.4-0.8-0.5-1.8-0.1-2.6c0.3-0.8,1.1-17.7,1.1-17.7s1.5-20.5,4.6-21.4
	S172,169.6,172,169.6z"/>
<path class="st11" d="M166.5,215.7l1.9,3.8c0,0,3.3-1,2.5,1.9c-3.2,0.1-6.3-0.1-9.5-0.6c0,0-1.3,0.4-1.5-0.3
	c-0.2-0.8,0.8-3.5,1.6-3.4S166.5,215.7,166.5,215.7z"/>
<path class="st11" d="M151.5,214c0,0,1.9,4.8,1.1,5s-7.8,0.9-8.4,1.2c-0.6,0.2-3.1,0.4-3.3-1.2c-0.2-1.6,1.4-2,1.4-2s2.9-0.4,3.8-3
	S151.5,214,151.5,214z"/>
<circle class="st9" cx="169.1" cy="125.4" r="5.4"/>
<path class="st9" d="M172,128c0,0-1.4,7.4-0.9,8.9c0.6,1.4-8-0.6-8-0.6s1.7-7.4,1.4-9.2S172,128,172,128z"/>
<path class="st12" d="M169.2,118.7c0.4-0.1,0.9-0.1,1.4,0.1c0.3,0.2,0.7,0.4,1,0.6c0.5,0.4,1.1,0.8,1.7,1.1c0.5,0.2,0.9,0.5,1.3,0.9
	c0.1,0.2,0.3,0.4,0.4,0.7c0.6,1.4,0.7,3,0.4,4.5c0,0.2-0.1,0.4-0.2,0.6c-0.3,0.6-1,0.8-1.5,1.1c-1.1,0.6-1.9,1.5-2.7,2.3
	c-0.3,0.3-0.7,0.6-1.1,0.8c-1.2,0.7-2.7,0.4-4.1,0.2c-0.4,0-0.8-0.3-0.8-0.8l0,0l-1.1-4.9c-0.2-0.7-0.3-1.5-0.3-2.2
	c0.1-1.2,0.7-2.9,1.6-3.7C166.2,119,167.9,118.8,169.2,118.7z"/>
<path class="st13" d="M173.3,137.3c0,0-0.4-2.9-2.9-3.1c-1.4-0.1-2.8-0.4-4.1-0.8c-0.2,0-2.9,0.2-4.1,1.4c0,0-0.8,1.2-1.2,0.4
	c-0.4-0.8-0.4-1.2-1.2-0.8c-0.8,0.4-0.8-1.2-2.2-1c-1.4,0.2-5.1,9.4-5.1,9.4l1.2,1.4c0,0,1.6,11-1.2,15.7s-4.1,9.8-1.2,10.8
	c2.8,1,22.8,10.2,22,4.5s-0.2-14.7,0.6-14.9c0.8-0.2,5.3-16.3,5.3-16.3c-0.4-2.1-1.8-3.8-3.7-4.7
	C172.2,137.9,173.3,137.3,173.3,137.3z"/>
<path class="st14" d="M158.6,134.3l-1-0.8c0,0-1.8,0-2-0.4s-1.2-0.4-2-0.8c-0.8-0.4,0.2-1-0.8-1.4s-1,0-1-1s-2.6-2-2.9-3.3
	s-2.2-6.9-2.2-6.9l-3.9,1.2l1,7.3c0,0,0,3.7,1.8,6.1c1.8,2.4,5.9,8.6,7.9,8.8C155.5,143.2,158.6,134.3,158.6,134.3z"/>
<path class="st14" d="M177.9,143l1.2,1c0,0,0.4,4.5,0.4,4.7s-0.4,2.6,0,2.9c0.4,0.2,1.2,4.3,1,4.5l0,0v0.6l2.9,4.5v4.3l-6.7-4.3
	c0,0-3.9-0.4-3.3-3.9C174.1,153.9,177.9,143,177.9,143z"/>
<circle class="st15" cx="211.5" cy="233.9" r="3.8"/>
</svg>
