<?xml version="1.0" encoding="utf-8"?>
<!-- Generator: Adobe Illustrator 22.0.1, SVG Export Plug-In . SVG Version: 6.00 Build 0)  -->
<svg version="1.1" id="Layer_1" xmlns="http://www.w3.org/2000/svg" xmlns:xlink="http://www.w3.org/1999/xlink" x="0px" y="0px"
	 viewBox="0 0 1300 400" style="enable-background:new 0 0 1300 400;" xml:space="preserve">
<style type="text/css">
	.st0{fill:url(#SVGID_1_);stroke:#000000;stroke-width:1.6452;stroke-miterlimit:10;}
	.st1{fill:#3F3D56;}
	.st2{opacity:0.1;enable-background:new    ;}
	.st3{fill:#F2F2F2;}
	.st4{fill:#2F2E41;}
	.st5{fill:#0D8CD8;}
	.st6{fill:#FFB8B8;}
	.st7{fill:#575A88;}
</style>
<linearGradient id="SVGID_1_" gradientUnits="userSpaceOnUse" x1="-9.094947e-13" y1="200" x2="99.257" y2="200" gradientTransform="matrix(-13.0973 0 0 1 1300 0)">
	<stop  offset="0" style="stop-color:#007194"/>
	<stop  offset="1" style="stop-color:#41C1C9"/>
</linearGradient>
<rect class="st0" width="1300" height="400"/>
<path class="st1" d="M87.3,263.6c-4.7,16.7,40.5,54.9,119.9,33.6c64-17.2,119.9-24.4,119.9-33.6s-53.7,0.4-119.9,0.4
	S89.8,254.8,87.3,263.6z"/>
<path class="st2" d="M87.3,263.6c-4.7,16.7,40.5,54.9,119.9,33.6c64-17.2,119.9-24.4,119.9-33.6s-53.7,0.4-119.9,0.4
	S89.8,254.8,87.3,263.6z"/>
<path class="st1" d="M87.3,263.6c-4.7,16.7,40.5,37.9,119.9,16.6c64-17.2,119.9-7.4,119.9-16.6c0-9.1-53.7-16.6-119.9-16.6
	S89.8,254.8,87.3,263.6z"/>
<ellipse class="st2" cx="168.7" cy="272.4" rx="9.3" ry="3.2"/>
<ellipse class="st2" cx="130.9" cy="272.4" rx="9.3" ry="3.2"/>
<ellipse class="st2" cx="207.2" cy="258.1" rx="30.3" ry="8.2"/>
<path class="st1" d="M73.1,233.1V84.7h268.2v148.4H217.5V253c6.2,0.7,10.3,2.1,10.3,3.7c0,2.4-9.3,4.3-20.7,4.3
	c-11.4,0-20.7-1.9-20.7-4.3c0-1.6,4.2-3,10.3-3.7v-19.8H73.1V233.1z"/>
<rect x="87" y="89.9" class="st3" width="240.4" height="133"/>
<path class="st2" d="M87,90.1c0,0,99.9,10.3,118.1,50.3s122.4,82.4,122.4,82.4H87V90.1z"/>
<path class="st4" d="M131.8,153.6v9.9h36.9v-9.3h1.1v118.2h-1.1v-21.2h-36.9v21.2h-1.1V153.6H131.8z M131.8,164.5v16.3h36.9v-16.3
	H131.8z M168.8,215.5v-16.3h-36.9v16.3H168.8z M131.8,216.5v16.3h36.9v-16.3H131.8z M168.8,198.1v-16.3h-36.9v16.3H168.8z
	 M168.8,250.2v-16.3h-36.9v16.3H168.8z"/>
<path class="st5" d="M180.4,155.9v1.5c0,0,1.1,0.4,1.1,2.1s0.8,8,0.8,8s-1.5,1.3-2.7,0.8c-0.7-0.2-1.3-0.6-1.9-1.1l-0.2-6.5l0.8-1.7
	v-3L180.4,155.9z"/>
<path class="st5" d="M140,97.2c0,0,3.7,0.4,3.7,2.1s2.9,8,2.9,8s-5.1,1.3-9.5,0.8c-4.4-0.4-6.6-1.1-6.6-1.1l-0.7-6.5l2.9-1.7
	L140,97.2z"/>
<path class="st6" d="M139.6,112v-4c0,0,4.4-8.9,0.8-8.9s-4,8-4,8v5.7L139.6,112z"/>
<path class="st6" d="M177.6,154c0,0,2.3-1.3,2.7,0s1.7,4,0,4.2s-3.4-1.3-3.4-1.3L177.6,154z"/>
<path class="st4" d="M166.2,162.6c0,0,1.3,1.7-0.6,18.1s-0.8,28.3-4.3,28.2c0,0,0.9,3.6-2.1,3.7s-4.3,0.3-4.6-0.5s-0.6-4.6,0.2-4.6
	c0,0-0.1,1.1-0.4-3.3c-0.3-4.3,0.6-24.8-0.6-27.6l-4.8,9.8c0,0-0.2,4.6-1.1,6.7c-0.9,2.1-2.8,14.4-2.8,14.4l0.2,1.9
	c0,0-6.5,0.8-6.7-0.3s-0.1-2.7,0.2-3.2c0.3-0.5,0.3-0.5-0.2-1.6c-0.4-0.8-0.5-1.8-0.1-2.7c0.3-0.8,1.1-18.3,1.1-18.3
	s1.5-21.3,4.8-22.2S166.2,162.6,166.2,162.6z"/>
<path class="st4" d="M160.5,210.4l2,3.9c0,0,3.4-1.1,2.6,2c-3.3,0.1-6.6-0.1-9.8-0.6c0,0-1.4,0.5-1.6-0.3s0.8-3.6,1.7-3.6
	C156.1,211.8,160.5,210.4,160.5,210.4z"/>
<path class="st4" d="M144.9,208.6c0,0,1.9,5,1.1,5.2s-8.1,1-8.7,1.2s-3.3,0.4-3.5-1.2s1.4-2.1,1.4-2.1s3-0.4,3.9-3.1
	C140.2,205.9,144.9,208.6,144.9,208.6z"/>
<circle class="st6" cx="163.2" cy="116.8" r="5.6"/>
<path class="st6" d="M166.2,119.5c0,0-1.5,7.7-0.9,9.2s-8.3-0.6-8.3-0.6s1.8-7.7,1.5-9.5C158.1,116.8,166.2,119.5,166.2,119.5z"/>
<path class="st4" d="M163.4,109.8c0.5-0.1,1-0.1,1.4,0.1s0.7,0.4,1,0.7c0.5,0.4,1.1,0.8,1.7,1.1c0.5,0.2,1,0.5,1.3,0.9
	c0.2,0.2,0.3,0.5,0.4,0.7c0.6,1.5,0.7,3.1,0.4,4.6c0,0.2-0.1,0.4-0.2,0.6c-0.3,0.6-1,0.8-1.6,1.1c-1.1,0.6-1.9,1.5-2.8,2.4
	c-0.3,0.3-0.7,0.6-1.1,0.9c-1.3,0.7-2.8,0.5-4.3,0.2c-0.4,0-0.8-0.3-0.8-0.8l0,0l-1.1-5.1c-0.2-0.8-0.3-1.5-0.3-2.3
	c0.1-1.2,0.7-2.9,1.7-3.8C160.2,110.1,162,110,163.4,109.8z"/>
<path class="st7" d="M167.5,129.1c0,0-0.4-3-3-3.2c-1.4-0.1-2.8-0.4-4.2-0.8c-0.2,0-3,0.2-4.2,1.5c0,0-0.8,1.3-1.3,0.4
	s-0.4-1.3-1.3-0.8s-0.8-1.3-2.3-1.1c-1.5,0.2-5.3,9.7-5.3,9.7l1.3,1.5c0,0,1.7,11.4-1.3,16.3c-3,4.9-4.2,10.1-1.3,11.2
	c3,1.1,23.7,10.6,22.8,4.6c-0.8-5.9-0.2-15.2,0.6-15.4c0.8-0.2,5.5-16.9,5.5-16.9c-0.4-2.2-1.8-4-3.8-4.9
	C166.5,129.8,167.5,129.1,167.5,129.1z"/>
<path class="st7" d="M152.3,126l-1.1-0.8c0,0-1.9,0-2.1-0.4s-1.3-0.4-2.1-0.8s0.2-1.1-0.8-1.5c-1.1-0.4-1.1,0-1.1-1.1
	s-2.7-2.1-3-3.4s-2.3-7.2-2.3-7.2l-4,1.3l1.1,7.6c0,0,0,3.8,1.9,6.3s6.1,8.9,8.2,9.1S152.3,126,152.3,126z"/>
<path class="st7" d="M172.4,135l1.3,1.1c0,0,0.4,4.6,0.4,4.9c0,0.2-0.4,2.7,0,3c0.4,0.2,1.3,4.4,1.1,4.6l0,0v0.6l3,4.6v4.4l-7-4.4
	c0,0-4-0.4-3.4-4C168.4,146.2,172.4,135,172.4,135z"/>
<circle class="st5" cx="207.2" cy="229.2" r="3.9"/>
</svg>
