<?xml version="1.0" encoding="utf-8"?>
<!-- Generator: Adobe Illustrator 22.0.1, SVG Export Plug-In . SVG Version: 6.00 Build 0)  -->
<svg version="1.1" id="Layer_1" xmlns="http://www.w3.org/2000/svg" xmlns:xlink="http://www.w3.org/1999/xlink" x="0px" y="0px"
	 viewBox="0 0 1300 400" style="enable-background:new 0 0 1300 400;" xml:space="preserve">
<style type="text/css">
	.st0{fill:url(#SVGID_1_);stroke:#000000;stroke-width:1.6452;stroke-miterlimit:10;}
	.st1{fill:#3F3D56;}
	.st2{opacity:0.1;enable-background:new    ;}
	.st3{fill:#F2F2F2;}
	.st4{fill:#2F2E41;}
	.st5{fill:#0D8CD8;}
	.st6{fill:#FFB8B8;}
	.st7{fill:#575A88;}
</style>
<linearGradient id="SVGID_1_" gradientUnits="userSpaceOnUse" x1="0" y1="200" x2="1300" y2="200" gradientTransform="matrix(1 0 0 -1 0 400)">
	<stop  offset="0" style="stop-color:#007194"/>
	<stop  offset="1" style="stop-color:#41C1C9"/>
</linearGradient>
<rect class="st0" width="1300" height="400"/>
<path class="st1" d="M1212.7,263.6c4.7,16.7-40.5,54.9-119.9,33.6c-64-17.2-119.9-24.4-119.9-33.6s53.7,0.4,119.9,0.4
	C1159,264,1210.2,254.8,1212.7,263.6z"/>
<path class="st2" d="M1212.7,263.6c4.7,16.7-40.5,54.9-119.9,33.6c-64-17.2-119.9-24.4-119.9-33.6s53.7,0.4,119.9,0.4
	C1159,264,1210.2,254.8,1212.7,263.6z"/>
<path class="st1" d="M1212.7,263.6c4.7,16.7-40.5,37.9-119.9,16.6c-64-17.2-119.9-7.4-119.9-16.6c0-9.1,53.7-16.6,119.9-16.6
	C1159,247,1210.2,254.8,1212.7,263.6z"/>
<ellipse class="st2" cx="1131.3" cy="272.4" rx="9.3" ry="3.2"/>
<ellipse class="st2" cx="1169.1" cy="272.4" rx="9.3" ry="3.2"/>
<ellipse class="st2" cx="1092.8" cy="258.1" rx="30.3" ry="8.2"/>
<path class="st1" d="M1226.9,233.1V84.7H958.7v148.4h123.8V253c-6.2,0.7-10.3,2.1-10.3,3.7c0,2.4,9.3,4.3,20.7,4.3
	c11.4,0,20.7-1.9,20.7-4.3c0-1.6-4.2-3-10.3-3.7v-19.8H1226.9z"/>
<rect x="972.6" y="89.9" class="st3" width="240.4" height="133"/>
<path class="st2" d="M1213,90.1c0,0-99.9,10.3-118.1,50.3s-122.4,82.4-122.4,82.4H1213V90.1z"/>
<path class="st4" d="M1168.2,153.6v9.9h-36.9v-9.3h-1.1v118.2h1.1v-21.2h36.9v21.2h1.1V153.6L1168.2,153.6z M1168.2,164.5v16.3
	h-36.9v-16.3L1168.2,164.5z M1131.2,215.5v-16.3h36.9v16.3H1131.2z M1168.2,216.5v16.3h-36.9v-16.3H1168.2z M1131.2,198.1v-16.3
	h36.9v16.3H1131.2z M1131.2,250.2v-16.3h36.9v16.3H1131.2z"/>
<path class="st5" d="M1119.6,155.9v1.5c0,0-1.1,0.4-1.1,2.1s-0.8,8-0.8,8s1.5,1.3,2.7,0.8c0.7-0.2,1.3-0.6,1.9-1.1l0.2-6.5l-0.8-1.7
	v-3L1119.6,155.9z"/>
<path class="st5" d="M1160,97.2c0,0-3.7,0.4-3.7,2.1s-2.9,8-2.9,8s5.1,1.3,9.5,0.8c4.4-0.4,6.6-1.1,6.6-1.1l0.7-6.5l-2.9-1.7
	L1160,97.2z"/>
<path class="st6" d="M1160.4,112v-4c0,0-4.4-8.9-0.8-8.9s4,8,4,8v5.7L1160.4,112z"/>
<path class="st6" d="M1122.4,154c0,0-2.3-1.3-2.7,0s-1.7,4,0,4.2s3.4-1.3,3.4-1.3L1122.4,154z"/>
<path class="st4" d="M1133.8,162.6c0,0-1.3,1.7,0.6,18.1s0.8,28.3,4.3,28.2c0,0-0.9,3.6,2.1,3.7s4.3,0.3,4.6-0.5s0.6-4.6-0.2-4.6
	c0,0,0.1,1.1,0.4-3.3c0.3-4.3-0.6-24.8,0.6-27.6l4.8,9.8c0,0,0.2,4.6,1.1,6.7c0.9,2.1,2.8,14.4,2.8,14.4l-0.2,1.9
	c0,0,6.5,0.8,6.7-0.3c0.2-1.1,0.1-2.7-0.2-3.2c-0.3-0.5-0.3-0.5,0.2-1.6c0.4-0.8,0.5-1.8,0.1-2.7c-0.3-0.8-1.1-18.3-1.1-18.3
	s-1.5-21.3-4.8-22.2S1133.8,162.6,1133.8,162.6z"/>
<path class="st4" d="M1139.5,210.4l-2,3.9c0,0-3.4-1.1-2.6,2c3.3,0.1,6.6-0.1,9.8-0.6c0,0,1.4,0.5,1.6-0.3s-0.8-3.6-1.7-3.6
	C1143.9,211.8,1139.5,210.4,1139.5,210.4z"/>
<path class="st4" d="M1155.1,208.6c0,0-1.9,5-1.1,5.2c0.8,0.2,8.1,1,8.7,1.2c0.6,0.2,3.3,0.4,3.5-1.2s-1.4-2.1-1.4-2.1
	s-3-0.4-3.9-3.1C1159.8,205.9,1155.1,208.6,1155.1,208.6z"/>
<circle class="st6" cx="1136.8" cy="116.8" r="5.6"/>
<path class="st6" d="M1133.8,119.5c0,0,1.5,7.7,0.9,9.2c-0.6,1.5,8.3-0.6,8.3-0.6s-1.8-7.7-1.5-9.5
	C1141.9,116.8,1133.8,119.5,1133.8,119.5z"/>
<path class="st4" d="M1136.6,109.8c-0.5-0.1-1-0.1-1.4,0.1c-0.4,0.2-0.7,0.4-1,0.7c-0.5,0.4-1.1,0.8-1.7,1.1c-0.5,0.2-1,0.5-1.3,0.9
	c-0.2,0.2-0.3,0.5-0.4,0.7c-0.6,1.5-0.7,3.1-0.4,4.6c0,0.2,0.1,0.4,0.2,0.6c0.3,0.6,1,0.8,1.6,1.1c1.1,0.6,1.9,1.5,2.8,2.4
	c0.3,0.3,0.7,0.6,1.1,0.9c1.3,0.7,2.8,0.5,4.3,0.2c0.4,0,0.8-0.3,0.8-0.8c0,0,0,0,0,0l1.1-5.1c0.2-0.8,0.3-1.5,0.3-2.3
	c-0.1-1.2-0.7-2.9-1.7-3.8C1139.8,110.1,1138,110,1136.6,109.8z"/>
<path class="st7" d="M1132.5,129.1c0,0,0.4-3,3-3.2c1.4-0.1,2.8-0.4,4.2-0.8c0.2,0,3,0.2,4.2,1.5c0,0,0.8,1.3,1.3,0.4
	s0.4-1.3,1.3-0.8s0.8-1.3,2.3-1.1c1.5,0.2,5.3,9.7,5.3,9.7l-1.3,1.5c0,0-1.7,11.4,1.3,16.3c3,4.9,4.2,10.1,1.3,11.2
	c-3,1.1-23.7,10.6-22.8,4.6c0.8-5.9,0.2-15.2-0.6-15.4c-0.8-0.2-5.5-16.9-5.5-16.9c0.4-2.2,1.8-4,3.8-4.9
	C1133.5,129.8,1132.5,129.1,1132.5,129.1z"/>
<path class="st7" d="M1147.7,126l1.1-0.8c0,0,1.9,0,2.1-0.4c0.2-0.4,1.3-0.4,2.1-0.8s-0.2-1.1,0.8-1.5c1.1-0.4,1.1,0,1.1-1.1
	c0-1.1,2.7-2.1,3-3.4s2.3-7.2,2.3-7.2l4,1.3l-1.1,7.6c0,0,0,3.8-1.9,6.3c-1.9,2.5-6.1,8.9-8.2,9.1S1147.7,126,1147.7,126z"/>
<path class="st7" d="M1127.6,135l-1.3,1.1c0,0-0.4,4.6-0.4,4.9c0,0.2,0.4,2.7,0,3c-0.4,0.2-1.3,4.4-1.1,4.6l0,0v0.6l-3,4.6v4.4
	l7-4.4c0,0,4-0.4,3.4-4C1131.6,146.2,1127.6,135,1127.6,135z"/>
<circle class="st5" cx="1092.8" cy="229.2" r="3.9"/>
</svg>
