<?xml version="1.0" encoding="utf-8"?>
<!-- Generator: Adobe Illustrator 22.0.1, SVG Export Plug-In . SVG Version: 6.00 Build 0)  -->
<svg version="1.1" id="Layer_1" xmlns="http://www.w3.org/2000/svg" xmlns:xlink="http://www.w3.org/1999/xlink" x="0px" y="0px"
	 viewBox="0 0 1300 400" style="enable-background:new 0 0 1300 400;" xml:space="preserve">
<style type="text/css">
	.st0{fill:url(#SVGID_1_);stroke:#000000;stroke-width:1.6452;stroke-miterlimit:10;}
	.st1{fill:#F1F1F1;}
	.st2{fill:none;stroke:#3F3D56;stroke-width:0.6896;stroke-miterlimit:10;}
	.st3{fill:#0D8CD8;}
	.st4{fill:#3F3D56;}
	.st5{fill:#575A89;}
	.st6{fill:#FFB9B9;}
	.st7{fill:#2F2E41;}
	.st8{opacity:0.1;enable-background:new    ;}
	.st9{fill:#575A88;}
</style>
<linearGradient id="SVGID_1_" gradientUnits="userSpaceOnUse" x1="-9.094947e-13" y1="196.8" x2="277.0322" y2="196.8" gradientTransform="matrix(-4.6926 0 0 1 1300 0)">
	<stop  offset="0" style="stop-color:#007194"/>
	<stop  offset="1" style="stop-color:#41C1C9"/>
</linearGradient>
<rect y="-3.2" class="st0" width="1300" height="400"/>
<rect x="88.8" y="99.9" class="st1" width="283.4" height="162.1"/>
<rect x="80.9" y="92.7" class="st2" width="283.4" height="162.1"/>
<line class="st2" x1="364.3" y1="101.3" x2="80.8" y2="101.3"/>
<circle class="st3" cx="357.7" cy="97.1" r="2.4"/>
<circle class="st3" cx="350.5" cy="97.1" r="2.4"/>
<circle class="st3" cx="343.2" cy="97.1" r="2.4"/>
<path class="st4" d="M190.8,204.8c-17.6-17.6-17.6-46.1,0-63.7c8.4-8.4,19.9-13.2,31.8-13.2v45L190.8,204.8z"/>
<path class="st3" d="M222.6,127.9c24.9,0,45,20.2,45,45.1c0,16.5-9,31.7-23.5,39.6L222.6,173V127.9z"/>
<rect x="310.8" y="211.3" class="st3" width="8.6" height="8.6"/>
<rect x="298.4" y="211.3" class="st4" width="8.6" height="8.6"/>
<rect x="285.9" y="211.3" class="st5" width="8.6" height="8.6"/>
<rect x="134.9" y="213.2" class="st4" width="35.5" height="1.4"/>
<rect x="134.9" y="217.5" class="st4" width="35.5" height="1.4"/>
<rect x="134.9" y="221.9" class="st4" width="35.5" height="1.4"/>
<polygon class="st6" points="154.8,285.8 154.3,290.6 151,292.1 147.4,291 145,292.1 144.2,287.7 148.6,282.8 "/>
<path class="st7" d="M152.6,289.4c0,0,2.9-3.4,3-1.7c0,1.7,6.5,7.6,6.5,7.6s10.1,3,2.3,4.9c-7.8,1.9-24.9-3.6-25.5-4.7
	s4.7-9.9,5.3-9.1C144.8,287.2,147.6,289.8,152.6,289.4z"/>
<path class="st7" d="M159.8,233c0,0,1.1,8.9,0,10.3c-1.1,1.3-0.6,4,0,4.4s-0.8,1.9-1.7,2.7s-2.3,4.2-2.3,4.2s-5.1,13.5-5.1,14.8
	c0,1.3-2.3,4.2-2.1,5.1s-1.3,4-1.1,4.6c0.2,0.6-2.5,5.7-1.7,6.5s11.2,3.4,10.6,1.7c-0.6-1.7-0.9-3.8-0.6-3.8s2.1-2.1,1.7-2.8
	c-0.4-0.8,11.4-20.7,11.4-20.7L159.8,233z"/>
<path class="st8" d="M152.6,289.4c0,0,2.9-3.4,3-1.7c0,1.7,6.5,7.6,6.5,7.6s10.1,3,2.3,4.9c-7.8,1.9-24.9-3.6-25.5-4.7
	s4.7-9.9,5.3-9.1C144.8,287.2,147.6,289.8,152.6,289.4z"/>
<path class="st8" d="M159.8,233c0,0,1.1,8.9,0,10.3c-1.1,1.3-0.6,4,0,4.4s-0.8,1.9-1.7,2.7s-2.3,4.2-2.3,4.2s-5.1,13.5-5.1,14.8
	c0,1.3-2.3,4.2-2.1,5.1s-1.3,4-1.1,4.6c0.2,0.6-2.5,5.7-1.7,6.5s11.2,3.4,10.6,1.7c-0.6-1.7-0.9-3.8-0.6-3.8s2.1-2.1,1.7-2.8
	c-0.4-0.8,11.4-20.7,11.4-20.7L159.8,233z"/>
<polygon class="st6" points="179.2,283.5 181.2,288.8 180.3,296.2 174.2,295.8 170.8,292.8 170.8,286.3 "/>
<path class="st7" d="M178,289.9c0,0,2.1-6.8,3.2-4.9c0.7,1.2,1.4,2.5,1.9,3.8c0,0,9.3,6.1,11.8,6.1s4.7,3,1.5,4.2
	c-3.2,1.1-27.9,2.7-28.3,0s0.4-11.2,1.5-10.3C170.8,289.7,176.7,291.8,178,289.9z"/>
<path class="st6" d="M182.8,205.8c0,0,4,6.8,4.4,7.6s2.5,5.7-1.5,7.6s-7.4-13.9-7.4-13.9L182.8,205.8z"/>
<path class="st9" d="M178.6,194.8c0,0,6.1,11.8,4.9,12.2c-1.1,0.4-5.7,2.7-5.7,2.7l-2.1-12L178.6,194.8z"/>
<path class="st8" d="M178.6,194.8c0,0,6.1,11.8,4.9,12.2c-1.1,0.4-5.7,2.7-5.7,2.7l-2.1-12L178.6,194.8z"/>
<path class="st7" d="M178.2,204.6c0,0,1.3,9.9,0.8,12c-0.6,2.1,0.4,33.4-0.4,35.1s-1.3,12.7-1.3,14.1s1.5,12.2,1.9,13.1
	s1.5,4.2,0.9,5.7s-8.4,5.3-9.5,4s-0.2-5.5-1.1-5.7s-2.1-9.1-2.1-9.1l-6.3-35c0,0-11.8-29.3-9.1-32.1S178.2,204.6,178.2,204.6z"/>
<circle class="st6" cx="171.2" cy="127.9" r="9.3"/>
<path class="st6" d="M174.6,135.5c0,0-3,8-2.7,9.7s-8.9-3-8.9-3s0.6-9.3,0-11.8C162.4,127.9,174.6,135.5,174.6,135.5z"/>
<path class="st9" d="M149.1,187.5c0,1.6,0.1,2.5,0.1,2.5s-0.6,8.7,0.4,11.6c0.9,2.8,0.9,4.9,1.5,6.8c0.2,0.6,2.4,0.8,5.6,1
	c2.9,0.1,6.6,0.1,10.2,0c5.9-0.1,11.4-0.5,12.3-0.6c2.1-0.4-0.4-3.6,0.4-5.3s-1.3-23.6-1.3-23.6s0.2-12.3-0.8-17.1
	c-0.9-4.7-4.6-12.3-5.3-13.3c-0.8-0.9-0.2-1.5,1.5-2.7c1.7-1.1,0-5.5,0-5.5c-3.2-2.7-11.4-3-11.4-3s-12.5,12.9-13.3,15.6
	c-0.5,1.6-0.3,14.4-0.1,24.4C148.9,182,149,185.3,149.1,187.5z"/>
<path class="st6" d="M165.1,211.1c0,0,7.2,14.8,1.5,15.8c-5.7,0.9-8.5-13.5-8.5-13.5L165.1,211.1z"/>
<path class="st7" d="M179.9,123.2c0.3-1.6-0.9-3.1-2.2-4.1c-2.8-2.2-6.2-3.3-9.8-3.3c-2.5,0-5.1,0.7-6.9,2.3c-2.2,1.9-3.2,5-3,7.9
	c0.2,2.9,1.4,5.6,3.1,8c0.8,1.1,2.1,2.3,3.4,1.8c0.5-0.2,0.9-0.6,1.3-1.1c0.8-1,1.6-2.2,2.2-3.3c0.5-0.9,0.9-1.9,1.5-2.6
	c0.7-0.8,1.7-1.4,2.7-1.2c0.8,0.1,1.7,0.7,2.5,0.4c0.9-0.3,1.1-1.4,1.2-2.4s0-2.2,0.3-3.2C176.4,122.5,179.7,124,179.9,123.2z"/>
<path class="st8" d="M149.1,187.5c2.1,7.7,7,20.6,7.3,21.2c0.1,0.1,0.2,0.4,0.3,0.8c2.9,0.1,6.6,0.1,10.2,0
	c-0.6-1.4-1.2-2.8-1.2-3.3c0-0.9-4.6-25.5-4.6-25.5s3.6-10.8,6.8-19.9s-9.6-7.3-9.6-7.3c-6.8-1.7-8.1,1.2-8.1,1.2s-0.6,16-1.4,23.6
	c-0.2,1.9-0.4,3.3-0.7,3.8C147.9,182.6,148.3,184.7,149.1,187.5z"/>
<path class="st9" d="M161.1,147.3c0,0,8.7,3.6,5.5,12.7c-3.2,9.1-6.8,19.9-6.8,19.9s4.6,24.5,4.6,25.5s2.8,6.1,1.7,7
	s-8.7,2.8-8.9,1.9c-0.6-2.2-1.3-4.3-2.1-6.5c-0.4-0.8-9.3-24.5-8.2-26.6c1.1-2.1,2.1-27.4,2.1-27.4S154.3,145.6,161.1,147.3z"/>
<path class="st5" d="M180.5,219l33.6-31.5l19.8,40.9c-6.6,3.6-14,5.5-21.5,5.5C199.9,233.9,188.6,227.1,180.5,219z"/>
<path class="st8" d="M180.5,219l33.6-31.5l19.8,40.9c-6.6,3.6-14,5.5-21.5,5.5C199.9,233.9,188.6,227.1,180.5,219z"/>
<path class="st5" d="M183.2,221.4l31.8-31.8l21.5,39.6C219.1,238.6,197.3,235.5,183.2,221.4z"/>
<line class="st2" x1="235.3" y1="300.6" x2="98.8" y2="300.6"/>
<line class="st2" x1="117.7" y1="300.9" x2="117.7" y2="260.9"/>
<circle class="st4" cx="117.7" cy="260.9" r="5.7"/>
<path class="st4" d="M117.7,285.6c0,0,0.8-17.4,17.4-15.4"/>
</svg>
