<?xml version="1.0" encoding="utf-8"?>
<!-- Generator: Adobe Illustrator 22.0.1, SVG Export Plug-In . SVG Version: 6.00 Build 0)  -->
<svg version="1.1" id="Layer_1" xmlns="http://www.w3.org/2000/svg" xmlns:xlink="http://www.w3.org/1999/xlink" x="0px" y="0px"
	 viewBox="0 0 1300 400" style="enable-background:new 0 0 1300 400;" xml:space="preserve">
<style type="text/css">
	.st0{fill:url(#SVGID_1_);stroke:#000000;stroke-width:1.6452;stroke-miterlimit:10;}
	.st1{fill:none;stroke:#ACABC6;stroke-width:0.6169;stroke-miterlimit:10;}
	.st2{fill:#ABCBDB;}
	.st3{fill:#9695AF;}
	.st4{fill:#58B1DD;}
	.st5{fill:#3F3D56;}
	.st6{fill:#575A89;}
	.st7{fill:#787793;}
	.st8{fill:#FFB9B9;}
	.st9{fill:#E5E5E5;}
	.st10{fill:#9A9A9B;}
	.st11{fill:#C6C8E5;}
	.st12{fill:#B6B6B7;}
	.st13{fill:#B9BCDB;}
	.st14{fill:#2F2E41;}
	.st15{opacity:0.1;enable-background:new    ;}
	.st16{fill:#757AA0;}
	.st17{fill:none;stroke:#3F3D56;stroke-width:0.6169;stroke-miterlimit:10;}
</style>
<linearGradient id="SVGID_1_" gradientUnits="userSpaceOnUse" x1="2481.3687" y1="200" x2="2600" y2="200" gradientTransform="matrix(10.9583 0 0 1 -27191.6113 0)">
	<stop  offset="0" style="stop-color:#00354D"/>
	<stop  offset="0.4129" style="stop-color:#00364F"/>
	<stop  offset="0.5616" style="stop-color:#003C56"/>
	<stop  offset="0.6676" style="stop-color:#004561"/>
	<stop  offset="0.7534" style="stop-color:#005272"/>
	<stop  offset="0.8268" style="stop-color:#006388"/>
	<stop  offset="0.8918" style="stop-color:#0078A4"/>
	<stop  offset="0.9492" style="stop-color:#0091C3"/>
	<stop  offset="1" style="stop-color:#00ACE6"/>
	<stop  offset="1" style="stop-color:#0093C7"/>
	<stop  offset="1" style="stop-color:#0075A3"/>
	<stop  offset="1" style="stop-color:#005B83"/>
	<stop  offset="1" style="stop-color:#004567"/>
	<stop  offset="1" style="stop-color:#003351"/>
	<stop  offset="1" style="stop-color:#002540"/>
	<stop  offset="1" style="stop-color:#001B35"/>
	<stop  offset="1" style="stop-color:#00162E"/>
	<stop  offset="1" style="stop-color:#00142C"/>
</linearGradient>
<rect class="st0" width="1300" height="400"/>
<rect x="85.6" y="95" class="st1" width="253.6" height="145"/>
<line class="st1" x1="339.2" y1="102.7" x2="85.7" y2="102.7"/>
<circle class="st2" cx="326.9" cy="99" r="2.2"/>
<circle class="st2" cx="320.4" cy="99" r="2.2"/>
<path class="st3" d="M184,195.3c-15.7-15.7-15.7-41.2,0-57c7.6-7.6,17.8-11.8,28.5-11.8v40.3L184,195.3z"/>
<path class="st2" d="M212.5,126.5c22.2,0,40.3,18,40.3,40.3c0,14.7-8.1,28.3-21,35.4l-19.3-35.4V126.5z"/>
<rect x="291.4" y="201.1" class="st4" width="7.7" height="7.7"/>
<rect x="280.3" y="201.1" class="st5" width="7.7" height="7.7"/>
<rect x="269.1" y="201.1" class="st6" width="7.7" height="7.7"/>
<rect x="134.1" y="202.9" class="st7" width="31.7" height="1.3"/>
<rect x="134.1" y="206.7" class="st7" width="31.7" height="1.3"/>
<rect x="134.1" y="210.6" class="st7" width="31.7" height="1.3"/>
<polygon class="st8" points="151.9,267.8 151.4,272 148.5,273.4 145.2,272.4 143,273.4 142.3,269.5 146.3,265.1 "/>
<path class="st9" d="M149.8,271c0,0,2.6-3.1,2.7-1.5c0.1,1.5,5.8,6.8,5.8,6.8s9,2.7,2,4.4c-7,1.7-22.3-3.2-22.8-4.3
	c-0.5-1,4.3-8.8,4.8-8.1C142.8,269,145.4,271.4,149.8,271z"/>
<path class="st10" d="M156.3,220.6c0,0,1,8,0,9.2s-0.5,3.6,0,3.9c0.5,0.3-0.7,1.7-1.5,2.4c-0.9,0.7-2,3.7-2,3.7s-4.6,12.1-4.6,13.3
	s-2,3.7-1.9,4.6c0.2,0.9-1.2,3.6-1,4.1s-2.2,5.1-1.5,5.8c0.7,0.7,10,3.1,9.5,1.5c-0.5-1.5-0.9-3.4-0.5-3.4c0.3,0,1.9-1.9,1.5-2.6
	c-0.3-0.7,10.2-18.5,10.2-18.5L156.3,220.6z"/>
<polygon class="st8" points="173.6,265.7 175.5,270.4 174.6,277.1 169.2,276.7 166.1,274 166.1,268.2 "/>
<path class="st9" d="M172.6,271.5c0,0,1.9-6.1,2.9-4.4c0.6,1.1,1.2,2.2,1.7,3.4c0,0,8.3,5.4,10.5,5.4s4.3,2.7,1.4,3.7
	s-25,2.4-25.3,0s0.3-10,1.4-9.2C166.2,271.3,171.4,273.1,172.6,271.5z"/>
<path class="st8" d="M176.8,196.2c0,0,3.6,6.1,3.9,6.8s2.2,5.1-1.4,6.8s-6.6-12.4-6.6-12.4L176.8,196.2z"/>
<path class="st11" d="M173.1,186.3c0,0,5.4,10.5,4.4,10.9s-5.1,2.4-5.1,2.4l-1.9-10.7L173.1,186.3z"/>
<path class="st12" d="M172.8,195.2c0,0,1.2,8.8,0.7,10.7s0.3,29.9-0.3,31.4s-1.2,11.4-1.2,12.6s1.4,10.9,1.7,11.7
	c0.3,0.8,1.4,3.7,0.9,5.1s-7.5,4.8-8.5,3.6c-1-1.2-0.2-4.9-1-5.1s-1.9-8.1-1.9-8.1l-5.6-31.3c0,0-10.5-26.2-8.1-28.7
	C151.7,194.5,172.8,195.2,172.8,195.2z"/>
<circle class="st8" cx="166.5" cy="126.5" r="8.3"/>
<path class="st8" d="M169.5,133.3c0,0-2.7,7.1-2.4,8.7c0.3,1.5-8-2.7-8-2.7s0.5-8.3,0-10.5C158.6,126.5,169.5,133.3,169.5,133.3z"/>
<path class="st13" d="M146.7,179.8c0,1.4,0.1,2.3,0.1,2.3s-0.5,7.8,0.3,10.4s0.9,4.4,1.4,6.1c0.2,0.5,2.2,0.8,5,0.9
	c2.6,0.1,5.9,0.1,9.1,0c5.3-0.1,10.2-0.4,11-0.6c1.9-0.3-0.3-3.2,0.3-4.8s-1.2-21.1-1.2-21.1s0.2-11-0.7-15.3
	c-0.9-4.3-4.1-11-4.8-11.9c-0.7-0.9-0.2-1.4,1.4-2.4s0-4.9,0-4.9c-2.9-2.4-10.2-2.7-10.2-2.7s-11.2,11.6-11.9,13.9
	c-0.4,1.4-0.3,12.9-0.1,21.8C146.6,174.9,146.7,177.9,146.7,179.8z"/>
<path class="st8" d="M161,200.9c0,0,6.4,13.3,1.4,14.1c-5.1,0.8-7.6-12.1-7.6-12.1L161,200.9z"/>
<path class="st14" d="M174.3,122.3c0.3-1.4-0.8-2.8-1.9-3.7c-2.5-1.9-5.6-3-8.8-3c-2.2,0-4.5,0.6-6.2,2.1c-2,1.7-2.9,4.4-2.7,7
	c0.2,2.6,1.3,5.1,2.8,7.2c0.7,1,1.9,2.1,3.1,1.6c0.5-0.2,0.9-0.6,1.1-1c0.7-0.9,1.4-1.9,1.9-3c0.4-0.8,0.8-1.7,1.4-2.4
	c0.6-0.7,1.5-1.2,2.4-1.1c0.7,0.1,1.5,0.6,2.2,0.4c0.8-0.3,1-1.3,1-2.1c0.1-0.9,0-2,0.3-2.8C171.2,121.7,174.1,123,174.3,122.3z"/>
<path class="st15" d="M146.7,179.8c1.9,6.8,6.3,18.4,6.5,18.9c0.1,0.1,0.2,0.4,0.3,0.7c2.6,0.1,5.9,0.1,9.1,0
	c-0.5-1.3-1.1-2.5-1.1-2.9c0-0.9-4.1-22.8-4.1-22.8s3.2-9.7,6.1-17.8s-8.6-6.5-8.6-6.5c-6.1-1.5-7.2,1.1-7.2,1.1s-0.5,14.3-1.3,21.1
	c-0.2,1.7-0.4,3-0.6,3.4C145.6,175.4,146,177.3,146.7,179.8z"/>
<path class="st11" d="M157.5,143.8c0,0,7.8,3.2,4.9,11.4c-2.9,8.1-6.1,17.8-6.1,17.8s4.1,21.9,4.1,22.8c0,0.8,2.6,5.4,1.5,6.3
	c-1,0.9-7.8,2.6-8,1.7c-0.5-1.9-1.1-3.9-1.9-5.8c-0.3-0.7-8.3-21.9-7.3-23.8c1-1.9,1.9-24.5,1.9-24.5S151.4,142.3,157.5,143.8z"/>
<path class="st6" d="M174.8,208l30-28.2l17.7,36.6c-5.9,3.2-12.6,4.9-19.3,4.9C192.1,221.3,182.1,215.3,174.8,208z"/>
<path class="st15" d="M174.8,208l30-28.2l17.7,36.6c-5.9,3.2-12.6,4.9-19.3,4.9C192.1,221.3,182.1,215.3,174.8,208z"/>
<path class="st16" d="M177.2,210.1l28.5-28.5L225,217C209.3,225.6,189.9,222.8,177.2,210.1z"/>
<line class="st17" x1="223.8" y1="281" x2="101.7" y2="281"/>
</svg>
