<?xml version="1.0" encoding="utf-8"?>
<!-- Generator: Adobe Illustrator 22.0.1, SVG Export Plug-In . SVG Version: 6.00 Build 0)  -->
<svg version="1.1" id="Layer_1" xmlns="http://www.w3.org/2000/svg" xmlns:xlink="http://www.w3.org/1999/xlink" x="0px" y="0px"
	 viewBox="0 0 1300 400" style="enable-background:new 0 0 1300 400;" xml:space="preserve">
<style type="text/css">
	.st0{opacity:5.000000e-02;fill:#020202;enable-background:new    ;}
	.st1{fill:url(#SVGID_1_);stroke:#000000;stroke-width:1.6452;stroke-miterlimit:10;}
	.st2{opacity:0.8;}
	.st3{fill:url(#SVGID_2_);}
	.st4{fill:#2B8ACA;}
	.st5{opacity:0.1;fill:#FFFFFF;enable-background:new    ;}
	.st6{opacity:0.15;fill:#A6D4F4;enable-background:new    ;}
	.st7{opacity:0.3;}
	.st8{fill:url(#SVGID_3_);}
	.st9{fill:#FFFFFF;}
	.st10{opacity:0.1;fill:#020202;enable-background:new    ;}
	.st11{fill:url(#SVGID_4_);}
	.st12{opacity:0.5;fill:#5D84C3;enable-background:new    ;}
	.st13{opacity:0.5;fill:#90BAD1;enable-background:new    ;}
	.st14{opacity:0.5;}
	.st15{fill:#6FC6A5;}
	.st16{opacity:0.5;fill:#F16147;enable-background:new    ;}
	.st17{fill:#73CAEC;}
	.st18{fill:#D69AAA;}
	.st19{fill:#90BAD1;}
	.st20{fill:url(#SVGID_5_);}
	.st21{fill:url(#SVGID_6_);}
</style>
<ellipse class="st0" cx="1404.9" cy="1082.5" rx="8.3" ry="1.7"/>
<linearGradient id="SVGID_1_" gradientUnits="userSpaceOnUse" x1="650" y1="198.5177" x2="1950" y2="198.5177" gradientTransform="matrix(-1 0 0 -1 1950 400)">
	<stop  offset="0" style="stop-color:#00354D"/>
	<stop  offset="0.4129" style="stop-color:#00364F"/>
	<stop  offset="0.5616" style="stop-color:#003C56"/>
	<stop  offset="0.6676" style="stop-color:#004561"/>
	<stop  offset="0.7534" style="stop-color:#005272"/>
	<stop  offset="0.8268" style="stop-color:#006388"/>
	<stop  offset="0.8918" style="stop-color:#0078A4"/>
	<stop  offset="0.9492" style="stop-color:#0091C3"/>
	<stop  offset="1" style="stop-color:#00ACE6"/>
	<stop  offset="1" style="stop-color:#0093C7"/>
	<stop  offset="1" style="stop-color:#0075A3"/>
	<stop  offset="1" style="stop-color:#005B83"/>
	<stop  offset="1" style="stop-color:#004567"/>
	<stop  offset="1" style="stop-color:#003351"/>
	<stop  offset="1" style="stop-color:#002540"/>
	<stop  offset="1" style="stop-color:#001B35"/>
	<stop  offset="1" style="stop-color:#00162E"/>
	<stop  offset="1" style="stop-color:#00142C"/>
</linearGradient>
<rect x="0" y="1.5" class="st1" width="1300" height="400"/>
<g class="st2">
	
		<linearGradient id="SVGID_2_" gradientUnits="userSpaceOnUse" x1="1139.453" y1="150.15" x2="1139.453" y2="94.8168" gradientTransform="matrix(1 0 0 1 0 4)">
		<stop  offset="0" style="stop-color:#828282;stop-opacity:0.25"/>
		<stop  offset="0.54" style="stop-color:#828282;stop-opacity:0.12"/>
		<stop  offset="1" style="stop-color:#828282;stop-opacity:0.1"/>
	</linearGradient>
	<ellipse class="st3" cx="1139.5" cy="126.4" rx="35.7" ry="27.7"/>
</g>
<ellipse class="st4" cx="1139.5" cy="126.4" rx="34.9" ry="27.1"/>
<path class="st5" d="M1110.2,129.4c0-14.9,15.6-27.1,34.9-27.1c6,0,11.9,1.2,17.4,3.6c-6.1-4.1-14.2-6.7-22.9-6.7
	c-19.3,0-34.9,12.1-34.9,27.1c0,10,7.1,18.8,17.5,23.5C1114.8,144.8,1110.2,137.6,1110.2,129.4z"/>
<polygon class="st6" points="1211.3,273.4 1134,270.2 1056.6,267 1098,201.6 1139.5,136.1 1175.4,204.7 "/>
<g class="st7">
	
		<linearGradient id="SVGID_3_" gradientUnits="userSpaceOnUse" x1="1036.4558" y1="1607.0171" x2="1036.4558" y2="1561.7906" gradientTransform="matrix(0.95 0.32 -0.32 0.95 657.49 -1610.03)">
		<stop  offset="0" style="stop-color:#828282;stop-opacity:0.25"/>
		<stop  offset="0.54" style="stop-color:#828282;stop-opacity:0.12"/>
		<stop  offset="1" style="stop-color:#828282;stop-opacity:0.1"/>
	</linearGradient>
	<path class="st8" d="M1148.7,232.3l3-8.9c2.1-6.4-0.2-13.4-5.6-17.3l0,0c-1.2-0.8-2.5-1.5-3.8-2l0,0l0,0l0,0l0,0
		c-1.3-0.5-2.7-0.7-4.1-0.8c-0.5,0-1,0-1.5,0c-0.8,0-1.7,0.2-2.6,0.3c-0.2,0-0.5,0.1-0.7,0.2c-0.2,0.1-0.5,0.2-0.7,0.2
		c-0.5,0.2-0.9,0.3-1.4,0.5c-0.2,0.1-0.5,0.2-0.7,0.3c-0.7,0.3-1.3,0.7-1.9,1.1c-0.2,0.2-0.4,0.3-0.6,0.4c-2.4,1.8-4.2,4.3-5.2,7.2
		l-4.7,14c-0.7,2.2-1,4.6-0.7,6.9c0,0.3,0.1,0.7,0.2,1c0.1,0.3,0.2,0.7,0.2,1c0.1,0.2,0.1,0.5,0.2,0.7c0.1,0.3,0.2,0.7,0.4,1
		c0.1,0.2,0.2,0.4,0.3,0.7c0.2,0.4,0.4,0.8,0.7,1.3s0.5,0.8,0.8,1.2c0.2,0.3,0.4,0.6,0.7,0.8c0.3,0.4,0.6,0.7,1,1.1
		c1.5,1.5,3.2,2.6,5.1,3.4l0,0l0,0h0.1c0.1-0.2,0.2-0.3,0.3-0.5c0.7-1,2-1.7,3.2-1.5c0.1,0,0.2,0,0.3,0.1c0.6,0.2,1.2,0.6,1.8,0.8
		c0.4,0.2,0.9,0.2,1.4,0c1.2-0.6,0.7-2.6,1.8-3.5c0,0,0.1-0.1,0.2-0.1l0,0c0.8-0.5,1.9-0.2,2.8,0.2c1,0.3,2.3,0.6,2.9-0.2
		c0.5-0.5,0.4-1.4,0.8-2c0.5-0.7,1.5-0.7,2.3-0.6l0,0c1.6,0.7,3.3-0.4,3.2-2.1C1147.8,234.9,1148.5,232.7,1148.7,232.3z"/>
</g>
<path class="st9" d="M1127.6,245.4c0.7-1,1.9-1.7,3.1-1.4c1.2,0.3,2.3,1.4,3.3,0.8c1.4-0.8,0.4-3.6,2.7-3.8c0.5,0,1,0,1.4,0.2
	c1,0.4,2.5,0.8,3.3,0c0.5-0.5,0.4-1.3,0.8-1.9c0.5-0.7,1.4-0.7,2.2-0.6l0,0c1.5,0.6,3.2-0.4,3.1-2.1c-0.2-2.2,0.5-4.3,0.7-4.7
	l2.9-8.6c2.6-7.7-1.6-16-9.2-18.6l0,0c-7.7-2.6-16,1.6-18.6,9.2l-4.6,13.5c-2.5,7.4,1.3,15.4,8.5,18.3
	C1127.4,245.8,1127.5,245.6,1127.6,245.4z"/>
<circle class="st9" cx="1168.9" cy="213" r="2.4"/>
<circle class="st9" cx="1176.4" cy="209.3" r="1.2"/>
<path class="st10" d="M1173,118.4c0.5,1.8,0.7,3.6,0.7,5.4c0,14.9-15.6,27.1-34.9,27.1c-15.8,0-29.1-8.1-33.4-19.3
	c3.2,12.4,17.3,21.7,34.2,21.7c19.3,0,34.9-12.1,34.9-27.1C1174.5,123.5,1174,120.9,1173,118.4z"/>
<g class="st2">
	
		<linearGradient id="SVGID_4_" gradientUnits="userSpaceOnUse" x1="1139.453" y1="153.15" x2="1139.453" y2="115.3914" gradientTransform="matrix(1 0 0 1 0 4)">
		<stop  offset="0" style="stop-color:#828282;stop-opacity:0.25"/>
		<stop  offset="0.54" style="stop-color:#828282;stop-opacity:0.12"/>
		<stop  offset="1" style="stop-color:#828282;stop-opacity:0.1"/>
	</linearGradient>
	<ellipse class="st11" cx="1139.5" cy="138.2" rx="72.3" ry="18.9"/>
</g>
<path class="st9" d="M1139.5,119.9c-38.6,0-69.9,8.2-69.9,18.3h139.7C1209.3,128.1,1178,119.9,1139.5,119.9z"/>
<path class="st9" d="M1139.5,156.5c38.6,0,69.9-8.2,69.9-18.3h-139.8C1069.6,148.3,1100.9,156.5,1139.5,156.5z"/>
<path class="st0" d="M1139.5,156.5c38.6,0,69.9-8.2,69.9-18.3h-139.8C1069.6,148.3,1100.9,156.5,1139.5,156.5z"/>
<path class="st0" d="M1110.3,133.4h58.3c2.3,0,4.2,1.9,4.2,4.2v1.1c0,2.3-1.9,4.2-4.2,4.2h-58.3c-2.3,0-4.2-1.9-4.2-4.2v-1.1
	C1106.1,135.3,1108,133.4,1110.3,133.4z"/>
<path class="st12" d="M1066.8,108.2c-0.4-0.2-0.6-0.7-0.5-1.1V107l0,0c0-0.2-0.2-0.5-0.4-0.5c-0.2,0-0.3,0.1-0.4,0.2l0,0
	c0,0,0,0,0,0.1c-0.2,0.4-0.7,0.7-1.1,0.5h-0.1l0,0c-0.2,0-0.5,0.2-0.5,0.4c0,0.2,0.1,0.3,0.2,0.4l0,0c0,0,0,0,0.1,0
	c0.4,0.2,0.6,0.7,0.5,1.1v0.1l0,0c0,0.2,0.2,0.5,0.4,0.5c0.2,0,0.3,0,0.4-0.2l0,0v-0.1c0.2-0.4,0.7-0.6,1.1-0.5h0.1l0,0
	c0.2,0,0.5-0.2,0.5-0.4C1067,108.5,1067,108.4,1066.8,108.2L1066.8,108.2C1066.8,108.3,1066.8,108.2,1066.8,108.2z"/>
<path class="st12" d="M1190.9,182.9c-0.4-0.2-0.6-0.7-0.5-1.1v-0.1l0,0c0-0.2-0.2-0.5-0.4-0.5c-0.2,0-0.3,0.1-0.4,0.2l0,0
	c0,0,0,0,0,0.1c-0.2,0.4-0.7,0.7-1.1,0.5h-0.1l0,0c-0.2,0-0.5,0.2-0.5,0.4c0,0.2,0.1,0.3,0.2,0.4l0,0c0,0,0,0,0.1,0
	c0.4,0.2,0.6,0.7,0.5,1.1v0.1l0,0c0,0.2,0.2,0.5,0.4,0.5c0.2,0,0.3,0,0.4-0.2l0,0v-0.1c0.2-0.4,0.7-0.6,1.1-0.5h0.1l0,0
	c0.2,0,0.5-0.2,0.5-0.4C1191.2,183.1,1191.1,183,1190.9,182.9L1190.9,182.9C1191,182.9,1190.9,182.9,1190.9,182.9z"/>
<path class="st13" d="M1053.8,217.5c-0.4-0.2-0.6-0.7-0.5-1.1v-0.1l0,0c0-0.2-0.2-0.5-0.4-0.5c-0.2,0-0.3,0.1-0.4,0.2l0,0
	c0,0,0,0,0,0.1c-0.2,0.4-0.7,0.7-1.1,0.5h-0.1l0,0c-0.2,0-0.5,0.2-0.5,0.4c0,0.2,0.1,0.3,0.2,0.4l0,0c0,0,0,0,0.1,0
	c0.4,0.2,0.6,0.7,0.5,1.1v0.1l0,0c0,0.2,0.2,0.5,0.4,0.5c0.2,0,0.3,0,0.4-0.2l0,0v-0.1c0.2-0.4,0.7-0.6,1.1-0.5h0.1l0,0
	c0.2,0,0.5-0.2,0.5-0.4C1054.1,217.8,1054,217.6,1053.8,217.5L1053.8,217.5C1053.9,217.6,1053.9,217.5,1053.8,217.5z"/>
<path class="st12" d="M1040.4,136.8c-0.4-0.2-0.6-0.7-0.5-1.1v-0.1l0,0c0-0.2-0.2-0.5-0.4-0.5c-0.2,0-0.3,0.1-0.4,0.2l0,0
	c0,0,0,0,0,0.1c-0.2,0.4-0.7,0.7-1.1,0.5h-0.1l0,0c-0.2,0-0.5,0.2-0.5,0.4c0,0.2,0.1,0.3,0.2,0.4l0,0c0,0,0,0,0.1,0
	c0.4,0.2,0.6,0.7,0.5,1.1v0.1l0,0c0,0.2,0.2,0.5,0.4,0.5c0.2,0,0.3,0,0.4-0.2l0,0v-0.1c0.2-0.4,0.7-0.6,1.1-0.5h0.1l0,0
	c0.2,0,0.5-0.2,0.5-0.4C1040.7,137.1,1040.6,136.9,1040.4,136.8L1040.4,136.8C1040.5,136.8,1040.4,136.8,1040.4,136.8z"/>
<path class="st12" d="M1188.5,95.8c-0.4-0.2-0.6-0.7-0.5-1.1v-0.1l0,0c0-0.2-0.2-0.5-0.4-0.5c-0.2,0-0.3,0.1-0.4,0.2l0,0
	c0,0,0,0,0,0.1c-0.2,0.4-0.7,0.6-1.1,0.5h-0.1l0,0c-0.2,0-0.5,0.1-0.5,0.3c0,0.2,0,0.4,0.2,0.5l0,0c0,0,0,0,0.1,0
	c0.4,0.2,0.6,0.7,0.5,1.1v0.1l0,0c0,0.2,0.2,0.5,0.4,0.5c0.2,0,0.3-0.1,0.4-0.2l0,0v-0.1c0.2-0.4,0.7-0.6,1.1-0.5h0.1l0,0
	c0.2,0,0.5-0.2,0.5-0.4C1188.8,96,1188.7,95.9,1188.5,95.8L1188.5,95.8C1188.5,95.8,1188.5,95.8,1188.5,95.8z"/>
<g class="st14">
	<rect x="1060.9" y="157" class="st15" width="0.7" height="4.1"/>
	<rect x="1059.2" y="158.7" class="st15" width="4.1" height="0.7"/>
</g>
<g class="st14">
	<rect x="1236.6" y="137.5" class="st15" width="0.7" height="4.1"/>
	<rect x="1234.8" y="139.2" class="st15" width="4.1" height="0.7"/>
</g>
<circle class="st16" cx="1210.4" cy="114.1" r="1.5"/>
<circle class="st16" cx="1035.6" cy="97.3" r="1.5"/>
<circle class="st16" cx="1079.5" cy="181.4" r="1.5"/>
<ellipse class="st0" cx="1091.2" cy="131.8" rx="8.3" ry="1.7"/>
<ellipse class="st0" cx="1091.2" cy="144.7" rx="8.3" ry="1.7"/>
<ellipse class="st0" cx="1185.6" cy="131.8" rx="8.3" ry="1.7"/>
<ellipse class="st0" cx="1185.6" cy="144.7" rx="8.3" ry="1.7"/>
<ellipse class="st0" cx="1139.5" cy="124.5" rx="8.3" ry="1.7"/>
<ellipse class="st0" cx="1145.6" cy="106.7" rx="8.3" ry="1.7"/>
<ellipse class="st0" cx="1129.7" cy="114" rx="8.3" ry="1.7"/>
<ellipse class="st0" cx="1160.2" cy="117.2" rx="8.3" ry="1.7"/>
<g id="Layer_5_1_">
	<path class="st17" d="M1147.2,225.8c0,0-4.9-3.7-10.1-5.4c-5.2-1.7-9.1-2.3-13.1-1.8c0,0,5.5-7.3,13.6-3.8
		S1147.2,225.8,1147.2,225.8z"/>
	
		<ellipse transform="matrix(0.4331 -0.9013 0.9013 0.4331 452.6177 1140.6929)" class="st17" cx="1133.2" cy="210.5" rx="1.6" ry="1.8"/>
	
		<ellipse transform="matrix(0.9999 -1.014118e-02 1.014118e-02 0.9999 -2.1078 11.6033)" class="st17" cx="1143.1" cy="213.6" rx="1.8" ry="1.6"/>
</g>
<path class="st18" d="M1088.4,197.8l-0.3-0.1c-0.3-0.1-0.7,0-0.7,0.3l-1.6,5.2l-5-2c-0.3-0.1-0.7,0-0.7,0.3l-0.1,0.3
	c-0.1,0.3,0.1,0.7,0.4,0.8l0,0l5,2l-1.6,5.2c-0.1,0.3,0.1,0.7,0.4,0.8l0.3,0.1c0.3,0.1,0.7,0,0.7-0.3l1.6-5.2l5,2
	c0.3,0.1,0.7,0,0.7-0.3l0.1-0.3c0.1-0.3-0.1-0.7-0.4-0.8l-5-2l1.6-5.2C1088.9,198.2,1088.7,197.9,1088.4,197.8z"/>
<path class="st19" d="M1096.9,193.3c-5.4-6.3-15-7-21.2-1.5c-0.1,0.1-0.2,0.2-0.3,0.2c-6,5.4-6.6,14.8-1.3,20.9
	c4.8,5.6,12.9,6.9,19.2,3.1l10.3,11.9c0.3,0.3,0.7,0.3,1,0.1l2.8-2.5c0.3-0.3,0.3-0.7,0.1-1l-10.3-11.9
	C1101.8,207,1101.7,198.8,1096.9,193.3z M1092.5,211.3c-4.5,3.9-11.3,3.4-15.2-1.1c-3.9-4.5-3.4-11.3,1.1-15.2s11.3-3.4,15.2,1.1
	C1097.5,200.6,1097,207.4,1092.5,211.3L1092.5,211.3z"/>
<linearGradient id="SVGID_5_" gradientUnits="userSpaceOnUse" x1="1302.2505" y1="265.2659" x2="1302.2505" y2="257.8952" gradientTransform="matrix(0.9991 -4.238051e-02 4.238051e-02 0.9991 -227.1301 -8.3776)">
	<stop  offset="0" style="stop-color:#020202;stop-opacity:0.12"/>
	<stop  offset="0.55" style="stop-color:#020202;stop-opacity:9.000000e-02"/>
	<stop  offset="1" style="stop-color:#020202;stop-opacity:2.000000e-02"/>
</linearGradient>
<path class="st20" d="M1084.7,194c-3.5,0-6.5,2.3-8,5.5c-0.5,1,1.1,1.9,1.6,0.8c1.3-2.7,3.8-4.5,6.6-4.5c3,0,5.8,1.9,7.3,4.7
	c0.6,1.1,2,0,1.4-1C1091.7,196.2,1088.2,194,1084.7,194z"/>
<path class="st19" d="M1084.9,193.2c-3.4,0-6.4,2.1-8,5.2c-0.5,1,1.1,1.8,1.6,0.8c1.3-2.5,3.8-4.2,6.6-4.2c3,0,5.7,1.8,7.3,4.4
	c0.6,1,2,0,1.4-1C1091.8,195.2,1088.4,193.1,1084.9,193.2z"/>
<linearGradient id="SVGID_6_" gradientUnits="userSpaceOnUse" x1="1293.519" y1="267.0089" x2="1293.519" y2="265.2655" gradientTransform="matrix(0.9991 -4.238051e-02 4.238051e-02 0.9991 -227.1301 -8.3776)">
	<stop  offset="0" style="stop-color:#020202;stop-opacity:0.12"/>
	<stop  offset="0.55" style="stop-color:#020202;stop-opacity:9.000000e-02"/>
	<stop  offset="1" style="stop-color:#020202;stop-opacity:2.000000e-02"/>
</linearGradient>
<path class="st21" d="M1076.5,201.8c-1.1,0-1,1.8,0.1,1.7S1077.6,201.7,1076.5,201.8z"/>
<path class="st19" d="M1076.4,201.1c-1.2,0-1.2,2,0.1,1.9S1077.6,201,1076.4,201.1z"/>
</svg>
