<?xml version="1.0" encoding="utf-8"?>
<!-- Generator: Adobe Illustrator 22.0.1, SVG Export Plug-In . SVG Version: 6.00 Build 0)  -->
<svg version="1.1" id="Layer_1" xmlns="http://www.w3.org/2000/svg" xmlns:xlink="http://www.w3.org/1999/xlink" x="0px" y="0px"
	 viewBox="0 0 1300 400" style="enable-background:new 0 0 1300 400;" xml:space="preserve">
<style type="text/css">
	.st0{fill:url(#SVGID_1_);stroke:#000000;stroke-width:1.6452;stroke-miterlimit:10;}
	.st1{opacity:0.8;}
	.st2{fill:url(#SVGID_2_);}
	.st3{fill:#2B8ACA;}
	.st4{opacity:0.1;fill:#FFFFFF;enable-background:new    ;}
	.st5{opacity:0.15;fill:#537FC1;enable-background:new    ;}
	.st6{opacity:0.3;}
	.st7{fill:url(#SVGID_3_);}
	.st8{fill:#FFFFFF;}
	.st9{opacity:0.1;fill:#020202;enable-background:new    ;}
	.st10{fill:url(#SVGID_4_);}
	.st11{opacity:5.000000e-02;fill:#020202;enable-background:new    ;}
	.st12{opacity:0.5;fill:#5D84C3;enable-background:new    ;}
	.st13{opacity:0.5;}
	.st14{fill:#6FC6A5;}
	.st15{opacity:0.5;fill:#F16147;enable-background:new    ;}
	.st16{fill:#73CAEC;}
	.st17{fill:#F16584;}
	.st18{fill:url(#SVGID_5_);}
	.st19{fill:url(#SVGID_6_);}
</style>
<linearGradient id="SVGID_1_" gradientUnits="userSpaceOnUse" x1="0" y1="100" x2="94.4343" y2="100" gradientTransform="matrix(-13.7662 0 0 -1 1300 300)">
	<stop  offset="0" style="stop-color:#007194"/>
	<stop  offset="1" style="stop-color:#41C1C9"/>
</linearGradient>
<rect class="st0" width="1300" height="400"/>
<g class="st1">
	
		<linearGradient id="SVGID_2_" gradientUnits="userSpaceOnUse" x1="81.6058" y1="151.3" x2="81.6058" y2="95.9668" gradientTransform="matrix(-13.7662 0 0 1 1300 4)">
		<stop  offset="0" style="stop-color:#828282;stop-opacity:0.25"/>
		<stop  offset="0.54" style="stop-color:#828282;stop-opacity:0.12"/>
		<stop  offset="1" style="stop-color:#828282;stop-opacity:0.1"/>
	</linearGradient>
	<ellipse class="st2" cx="176.6" cy="127.6" rx="35.7" ry="27.7"/>
</g>
<ellipse class="st3" cx="176.6" cy="127.6" rx="34.9" ry="27.1"/>
<path class="st4" d="M205.9,130.6c0-14.9-15.6-27.1-34.9-27.1c-6,0-11.9,1.2-17.4,3.6c6.1-4.1,14.2-6.7,22.9-6.7
	c19.3,0,34.9,12.1,34.9,27.1c0,10-7.1,18.8-17.5,23.5C201.3,146,205.9,138.8,205.9,130.6z"/>
<polygon class="st5" points="104.8,274.6 182.1,271.4 259.5,268.2 218.1,202.8 176.6,137.3 140.7,205.9 "/>
<g class="st6">
	
		<linearGradient id="SVGID_3_" gradientUnits="userSpaceOnUse" x1="39.7975" y1="1941.1923" x2="39.7975" y2="1899.8184" gradientTransform="matrix(-13.0779 0.32 4.4052 0.95 -7751.1265 -1610.03)">
		<stop  offset="0" style="stop-color:#828282;stop-opacity:0.25"/>
		<stop  offset="0.54" style="stop-color:#828282;stop-opacity:0.12"/>
		<stop  offset="1" style="stop-color:#828282;stop-opacity:0.1"/>
	</linearGradient>
	<path class="st7" d="M167.4,233.5l-3-8.9c-2.1-6.4,0.2-13.4,5.6-17.3l0,0c1.2-0.8,2.5-1.5,3.8-2l0,0l0,0l0,0l0,0
		c1.3-0.5,2.7-0.7,4.1-0.8c0.5,0,1,0,1.5,0c0.8,0,1.7,0.2,2.6,0.3c0.2,0,0.5,0.1,0.7,0.2c0.2,0.1,0.5,0.2,0.7,0.2
		c0.5,0.2,0.9,0.3,1.4,0.5c0.2,0.1,0.5,0.2,0.7,0.3c0.7,0.3,1.3,0.7,1.9,1.1c0.2,0.2,0.4,0.3,0.6,0.4c2.4,1.8,4.2,4.3,5.2,7.2
		l4.7,14c0.7,2.2,1,4.6,0.7,6.9c0,0.3-0.1,0.7-0.2,1s-0.2,0.7-0.2,1c-0.1,0.2-0.1,0.5-0.2,0.7c-0.1,0.3-0.2,0.7-0.4,1
		c-0.1,0.2-0.2,0.4-0.3,0.7c-0.2,0.4-0.4,0.8-0.7,1.3s-0.5,0.8-0.8,1.2c-0.2,0.3-0.4,0.6-0.7,0.8c-0.3,0.4-0.6,0.7-1,1.1
		c-1.5,1.5-3.2,2.6-5.1,3.4l0,0l0,0h-0.1c-0.1-0.2-0.2-0.3-0.3-0.5c-0.7-1-2-1.7-3.2-1.5c-0.1,0-0.2,0-0.3,0.1
		c-0.6,0.2-1.2,0.6-1.8,0.8c-0.4,0.2-0.9,0.2-1.4,0c-1.2-0.6-0.7-2.6-1.8-3.5c0,0-0.1-0.1-0.2-0.1l0,0c-0.8-0.5-1.9-0.2-2.8,0.2
		c-1,0.3-2.3,0.6-2.9-0.2c-0.5-0.5-0.4-1.4-0.8-2c-0.5-0.7-1.5-0.7-2.3-0.6l0,0c-1.6,0.7-3.3-0.4-3.2-2.1
		C168.3,236.1,167.6,233.9,167.4,233.5z"/>
</g>
<path class="st8" d="M188.5,246.6c-0.7-1-1.9-1.7-3.1-1.4s-2.3,1.4-3.3,0.8c-1.4-0.8-0.4-3.6-2.7-3.8c-0.5,0-1,0-1.4,0.2
	c-1,0.4-2.5,0.8-3.3,0c-0.5-0.5-0.4-1.3-0.8-1.9c-0.5-0.7-1.4-0.7-2.2-0.6l0,0c-1.5,0.6-3.2-0.4-3.1-2.1c0.2-2.2-0.5-4.3-0.7-4.7
	l-2.9-8.6c-2.6-7.7,1.6-16,9.2-18.6l0,0c7.7-2.6,16,1.6,18.6,9.2l4.6,13.5c2.5,7.4-1.3,15.4-8.5,18.3
	C188.7,247,188.6,246.8,188.5,246.6z"/>
<circle class="st8" cx="147.2" cy="214.2" r="2.4"/>
<circle class="st8" cx="139.7" cy="210.5" r="1.2"/>
<path class="st9" d="M143.1,119.6c-0.5,1.8-0.7,3.6-0.7,5.4c0,14.9,15.6,27.1,34.9,27.1c15.8,0,29.1-8.1,33.4-19.3
	c-3.2,12.4-17.3,21.7-34.2,21.7c-19.3,0-34.9-12.1-34.9-27.1C141.6,124.7,142.1,122.1,143.1,119.6z"/>
<g class="st1">
	
		<linearGradient id="SVGID_4_" gradientUnits="userSpaceOnUse" x1="81.6058" y1="154.3" x2="81.6058" y2="116.5414" gradientTransform="matrix(-13.7662 0 0 1 1300 4)">
		<stop  offset="0" style="stop-color:#828282;stop-opacity:0.25"/>
		<stop  offset="0.54" style="stop-color:#828282;stop-opacity:0.12"/>
		<stop  offset="1" style="stop-color:#828282;stop-opacity:0.1"/>
	</linearGradient>
	<ellipse class="st10" cx="176.6" cy="139.4" rx="72.3" ry="18.9"/>
</g>
<path class="st8" d="M176.6,121.1c38.6,0,69.9,8.2,69.9,18.3H106.8C106.8,129.3,138.1,121.1,176.6,121.1z"/>
<path class="st8" d="M176.6,157.7c-38.6,0-69.9-8.2-69.9-18.3h139.8C246.5,149.5,215.2,157.7,176.6,157.7z"/>
<path class="st11" d="M176.6,157.7c-38.6,0-69.9-8.2-69.9-18.3h139.8C246.5,149.5,215.2,157.7,176.6,157.7z"/>
<path class="st11" d="M205.8,134.6h-58.3c-2.3,0-4.2,1.9-4.2,4.2v1.1c0,2.3,1.9,4.2,4.2,4.2h58.3c2.3,0,4.2-1.9,4.2-4.2v-1.1
	C210,136.5,208.1,134.6,205.8,134.6z"/>
<path class="st12" d="M249.3,109.4c0.4-0.2,0.6-0.7,0.5-1.1v-0.1l0,0c0-0.2,0.2-0.5,0.4-0.5c0.2,0,0.3,0.1,0.4,0.2l0,0
	c0,0,0,0,0,0.1c0.2,0.4,0.7,0.7,1.1,0.5h0.1l0,0c0.2,0,0.5,0.2,0.5,0.4c0,0.2-0.1,0.3-0.2,0.4l0,0c0,0,0,0-0.1,0
	c-0.4,0.2-0.6,0.7-0.5,1.1v0.1l0,0c0,0.2-0.2,0.5-0.4,0.5c-0.2,0-0.3,0-0.4-0.2l0,0v-0.1c-0.2-0.4-0.7-0.6-1.1-0.5h-0.1l0,0
	c-0.2,0-0.5-0.2-0.5-0.4C249.1,109.7,249.1,109.6,249.3,109.4L249.3,109.4C249.3,109.5,249.3,109.4,249.3,109.4z"/>
<path class="st12" d="M125.2,184.1c0.4-0.2,0.6-0.7,0.5-1.1v-0.1l0,0c0-0.2,0.2-0.5,0.4-0.5c0.2,0,0.3,0.1,0.4,0.2l0,0
	c0,0,0,0,0,0.1c0.2,0.4,0.7,0.7,1.1,0.5h0.1l0,0c0.2,0,0.5,0.2,0.5,0.4s-0.1,0.3-0.2,0.4l0,0c0,0,0,0-0.1,0
	c-0.4,0.2-0.6,0.7-0.5,1.1v0.1l0,0c0,0.2-0.2,0.5-0.4,0.5c-0.2,0-0.3,0-0.4-0.2l0,0v-0.1c-0.2-0.4-0.7-0.6-1.1-0.5h-0.1l0,0
	c-0.2,0-0.5-0.2-0.5-0.4S125,184.2,125.2,184.1L125.2,184.1C125.1,184.1,125.2,184.1,125.2,184.1z"/>
<path class="st12" d="M262.3,218.7c0.4-0.2,0.6-0.7,0.5-1.1v-0.1l0,0c0-0.2,0.2-0.5,0.4-0.5c0.2,0,0.3,0.1,0.4,0.2l0,0
	c0,0,0,0,0,0.1c0.2,0.4,0.7,0.7,1.1,0.5h0.1l0,0c0.2,0,0.5,0.2,0.5,0.4s-0.1,0.3-0.2,0.4l0,0c0,0,0,0-0.1,0
	c-0.4,0.2-0.6,0.7-0.5,1.1v0.1l0,0c0,0.2-0.2,0.5-0.4,0.5c-0.2,0-0.3,0-0.4-0.2l0,0V220c-0.2-0.4-0.7-0.6-1.1-0.5h-0.1l0,0
	c-0.2,0-0.5-0.2-0.5-0.4C262,219,262.1,218.8,262.3,218.7L262.3,218.7C262.2,218.8,262.2,218.7,262.3,218.7z"/>
<path class="st12" d="M275.7,138c0.4-0.2,0.6-0.7,0.5-1.1v-0.1l0,0c0-0.2,0.2-0.5,0.4-0.5s0.3,0.1,0.4,0.2l0,0c0,0,0,0,0,0.1
	c0.2,0.4,0.7,0.7,1.1,0.5h0.1l0,0c0.2,0,0.5,0.2,0.5,0.4s-0.1,0.3-0.2,0.4l0,0c0,0,0,0-0.1,0c-0.4,0.2-0.6,0.7-0.5,1.1v0.1l0,0
	c0,0.2-0.2,0.5-0.4,0.5s-0.3,0-0.4-0.2l0,0v-0.1c-0.2-0.4-0.7-0.6-1.1-0.5h-0.1l0,0c-0.2,0-0.5-0.2-0.5-0.4
	C275.4,138.3,275.5,138.1,275.7,138L275.7,138C275.6,138,275.7,138,275.7,138z"/>
<path class="st12" d="M127.6,97c0.4-0.2,0.6-0.7,0.5-1.1v-0.1l0,0c0-0.2,0.2-0.5,0.4-0.5c0.2,0,0.3,0.1,0.4,0.2l0,0c0,0,0,0,0,0.1
	c0.2,0.4,0.7,0.6,1.1,0.5h0.1l0,0c0.2,0,0.5,0.1,0.5,0.3c0,0.2,0,0.4-0.2,0.5l0,0c0,0,0,0-0.1,0c-0.4,0.2-0.6,0.7-0.5,1.1v0.1l0,0
	c0,0.2-0.2,0.5-0.4,0.5c-0.2,0-0.3-0.1-0.4-0.2l0,0v-0.1c-0.2-0.4-0.7-0.6-1.1-0.5h-0.1l0,0c-0.2,0-0.5-0.2-0.5-0.4
	C127.3,97.2,127.4,97.1,127.6,97L127.6,97C127.6,97,127.6,97,127.6,97z"/>
<g class="st13">
	<rect x="254.5" y="158.2" class="st14" width="0.7" height="4.1"/>
	<rect x="252.8" y="159.9" class="st14" width="4.1" height="0.7"/>
</g>
<g class="st13">
	<rect x="78.8" y="138.7" class="st14" width="0.7" height="4.1"/>
	<rect x="77.2" y="140.4" class="st14" width="4.1" height="0.7"/>
</g>
<circle class="st15" cx="105.7" cy="115.3" r="1.5"/>
<circle class="st15" cx="280.5" cy="98.5" r="1.5"/>
<circle class="st15" cx="236.6" cy="182.6" r="1.5"/>
<ellipse class="st11" cx="224.9" cy="133" rx="8.3" ry="1.7"/>
<ellipse class="st11" cx="224.9" cy="145.9" rx="8.3" ry="1.7"/>
<ellipse class="st11" cx="130.5" cy="133" rx="8.3" ry="1.7"/>
<ellipse class="st11" cx="130.5" cy="145.9" rx="8.3" ry="1.7"/>
<ellipse class="st11" cx="176.6" cy="125.7" rx="8.3" ry="1.7"/>
<ellipse class="st11" cx="170.5" cy="107.9" rx="8.3" ry="1.7"/>
<ellipse class="st11" cx="186.4" cy="115.2" rx="8.3" ry="1.7"/>
<ellipse class="st11" cx="155.9" cy="118.4" rx="8.3" ry="1.7"/>
<g id="Layer_5_1_">
	<path class="st16" d="M168.9,227c0,0,4.9-3.7,10.1-5.4s9.1-2.3,13.1-1.8c0,0-5.5-7.3-13.6-3.8S168.9,227,168.9,227z"/>
	
		<ellipse transform="matrix(0.9013 -0.4331 0.4331 0.9013 -73.6317 100.1003)" class="st16" cx="182.9" cy="211.7" rx="1.8" ry="1.6"/>
	
		<ellipse transform="matrix(1.014118e-02 -0.9999 0.9999 1.014118e-02 -43.5776 385.5581)" class="st16" cx="173" cy="214.8" rx="1.6" ry="1.8"/>
</g>
<path class="st17" d="M227.7,199l0.3-0.1c0.3-0.1,0.7,0,0.7,0.3l1.6,5.2l5-2c0.3-0.1,0.7,0,0.7,0.3l0.1,0.3c0.1,0.3-0.1,0.7-0.4,0.8
	l0,0l-5,2l1.6,5.2c0.1,0.3-0.1,0.7-0.4,0.8l-0.3,0.1c-0.3,0.1-0.7,0-0.7-0.3l-1.6-5.2l-5,2c-0.3,0.1-0.7,0-0.7-0.3l-0.1-0.3
	c-0.1-0.3,0.1-0.7,0.4-0.8l5-2l-1.6-5.2C227.2,199.4,227.4,199.1,227.7,199z"/>
<path class="st3" d="M219.2,194.5c5.4-6.3,15-7,21.2-1.5c0.1,0.1,0.2,0.2,0.3,0.2c6,5.4,6.6,14.8,1.3,20.9
	c-4.8,5.6-12.9,6.9-19.2,3.1l-10.3,11.9c-0.3,0.3-0.7,0.3-1,0.1l-2.8-2.5c-0.3-0.3-0.3-0.7-0.1-1l10.3-11.9
	C214.3,208.2,214.4,200,219.2,194.5z M223.6,212.5c4.5,3.9,11.3,3.4,15.2-1.1c3.9-4.5,3.4-11.3-1.1-15.2s-11.3-3.4-15.2,1.1
	C218.6,201.8,219.1,208.6,223.6,212.5L223.6,212.5z"/>
<linearGradient id="SVGID_5_" gradientUnits="userSpaceOnUse" x1="295.6373" y1="223.409" x2="295.6373" y2="216.3701" gradientTransform="matrix(-13.7538 -4.238051e-02 -0.5834 0.9991 4426.7144 -8.3776)">
	<stop  offset="0" style="stop-color:#020202;stop-opacity:0.12"/>
	<stop  offset="0.55" style="stop-color:#020202;stop-opacity:9.000000e-02"/>
	<stop  offset="1" style="stop-color:#020202;stop-opacity:2.000000e-02"/>
</linearGradient>
<path class="st18" d="M231.4,195.2c3.5,0,6.5,2.3,8,5.5c0.5,1-1.1,1.9-1.6,0.8c-1.3-2.7-3.8-4.5-6.6-4.5c-3,0-5.8,1.9-7.3,4.7
	c-0.6,1.1-2,0-1.4-1C224.4,197.4,227.9,195.2,231.4,195.2z"/>
<path class="st3" d="M231.2,194.4c3.4,0,6.4,2.1,8,5.2c0.5,1-1.1,1.8-1.6,0.8c-1.3-2.5-3.8-4.2-6.6-4.2c-3,0-5.7,1.8-7.3,4.4
	c-0.6,1-2,0-1.4-1C224.3,196.4,227.7,194.3,231.2,194.4z"/>
<linearGradient id="SVGID_6_" gradientUnits="userSpaceOnUse" x1="294.8964" y1="225.8004" x2="294.8964" y2="224.0556" gradientTransform="matrix(-13.7538 -4.238051e-02 -0.5834 0.9991 4426.7144 -8.3776)">
	<stop  offset="0" style="stop-color:#020202;stop-opacity:0.12"/>
	<stop  offset="0.55" style="stop-color:#020202;stop-opacity:9.000000e-02"/>
	<stop  offset="1" style="stop-color:#020202;stop-opacity:2.000000e-02"/>
</linearGradient>
<path class="st19" d="M239.6,203c1.1,0,1,1.8-0.1,1.7S238.5,202.9,239.6,203z"/>
<path class="st3" d="M239.7,202.3c1.2,0,1.2,2-0.1,1.9S238.5,202.2,239.7,202.3z"/>
</svg>
