<?xml version="1.0" encoding="utf-8"?>
<!-- Generator: Adobe Illustrator 22.0.1, SVG Export Plug-In . SVG Version: 6.00 Build 0)  -->
<svg version="1.1" id="Layer_1" xmlns="http://www.w3.org/2000/svg" xmlns:xlink="http://www.w3.org/1999/xlink" x="0px" y="0px"
	 viewBox="0 0 1300 400" style="enable-background:new 0 0 1300 400;" xml:space="preserve">
<style type="text/css">
	.st0{fill:url(#SVGID_1_);stroke:#000000;stroke-width:1.6452;stroke-miterlimit:10;}
	.st1{opacity:0.8;}
	.st2{fill:url(#SVGID_2_);}
	.st3{fill:#2B8ACA;}
	.st4{opacity:0.1;fill:#FFFFFF;enable-background:new    ;}
	.st5{opacity:0.15;fill:#A6D4F4;enable-background:new    ;}
	.st6{opacity:0.3;}
	.st7{fill:url(#SVGID_3_);}
	.st8{fill:#FFFFFF;}
	.st9{opacity:0.1;fill:#020202;enable-background:new    ;}
	.st10{fill:url(#SVGID_4_);}
	.st11{opacity:5.000000e-02;fill:#020202;enable-background:new    ;}
	.st12{opacity:0.5;fill:#5D84C3;enable-background:new    ;}
	.st13{opacity:0.5;fill:#90BAD1;enable-background:new    ;}
	.st14{opacity:0.5;}
	.st15{fill:#6FC6A5;}
	.st16{opacity:0.5;fill:#F16147;enable-background:new    ;}
	.st17{fill:#73CAEC;}
	.st18{fill:#D69AAA;}
	.st19{fill:#90BAD1;}
	.st20{fill:url(#SVGID_5_);}
	.st21{fill:url(#SVGID_6_);}
</style>
<linearGradient id="SVGID_1_" gradientUnits="userSpaceOnUse" x1="2427.8755" y1="201.5" x2="2600" y2="201.5" gradientTransform="matrix(7.5527 0 0 1 -18336.9336 0)">
	<stop  offset="0" style="stop-color:#00354D"/>
	<stop  offset="0.4129" style="stop-color:#00364F"/>
	<stop  offset="0.5616" style="stop-color:#003C56"/>
	<stop  offset="0.6676" style="stop-color:#004561"/>
	<stop  offset="0.7534" style="stop-color:#005272"/>
	<stop  offset="0.8268" style="stop-color:#006388"/>
	<stop  offset="0.8918" style="stop-color:#0078A4"/>
	<stop  offset="0.9492" style="stop-color:#0091C3"/>
	<stop  offset="1" style="stop-color:#00ACE6"/>
	<stop  offset="1" style="stop-color:#0093C7"/>
	<stop  offset="1" style="stop-color:#0075A3"/>
	<stop  offset="1" style="stop-color:#005B83"/>
	<stop  offset="1" style="stop-color:#004567"/>
	<stop  offset="1" style="stop-color:#003351"/>
	<stop  offset="1" style="stop-color:#002540"/>
	<stop  offset="1" style="stop-color:#001B35"/>
	<stop  offset="1" style="stop-color:#00162E"/>
	<stop  offset="1" style="stop-color:#00142C"/>
</linearGradient>
<rect y="1.5" class="st0" width="1300" height="400"/>
<g class="st1">
	
		<linearGradient id="SVGID_2_" gradientUnits="userSpaceOnUse" x1="150.8739" y1="249.9" x2="150.8739" y2="305.2332" gradientTransform="matrix(-7.5527 0 0 -1 1300 404)">
		<stop  offset="0" style="stop-color:#828282;stop-opacity:0.25"/>
		<stop  offset="0.54" style="stop-color:#828282;stop-opacity:0.12"/>
		<stop  offset="1" style="stop-color:#828282;stop-opacity:0.1"/>
	</linearGradient>
	<ellipse class="st2" cx="160.5" cy="126.4" rx="35.7" ry="27.7"/>
</g>
<ellipse class="st3" cx="160.5" cy="126.4" rx="34.9" ry="27.1"/>
<path class="st4" d="M189.8,129.4c0-14.9-15.6-27.1-34.9-27.1c-6,0-11.9,1.2-17.4,3.6c6.1-4.1,14.2-6.7,22.9-6.7
	c19.3,0,34.9,12.1,34.9,27.1c0,10-7.1,18.8-17.5,23.5C185.2,144.8,189.8,137.6,189.8,129.4z"/>
<polygon class="st5" points="88.7,273.4 166,270.2 243.4,267 202,201.6 160.5,136.1 124.6,204.7 "/>
<g class="st6">
	
		<linearGradient id="SVGID_3_" gradientUnits="userSpaceOnUse" x1="122.3184" y1="-1621.7924" x2="122.3184" y2="-1580.2063" gradientTransform="matrix(-7.175 0.32 -2.4169 -0.95 -2821.7925 -1334.03)">
		<stop  offset="0" style="stop-color:#828282;stop-opacity:0.25"/>
		<stop  offset="0.54" style="stop-color:#828282;stop-opacity:0.12"/>
		<stop  offset="1" style="stop-color:#828282;stop-opacity:0.1"/>
	</linearGradient>
	<path class="st7" d="M151.3,232.3l-3-8.9c-2.1-6.4,0.2-13.4,5.6-17.3l0,0c1.2-0.8,2.5-1.5,3.8-2l0,0l0,0l0,0l0,0
		c1.3-0.5,2.7-0.7,4.1-0.8c0.5,0,1,0,1.5,0c0.8,0,1.7,0.2,2.6,0.3c0.2,0,0.5,0.1,0.7,0.2c0.2,0.1,0.5,0.2,0.7,0.2
		c0.5,0.2,0.9,0.3,1.4,0.5c0.2,0.1,0.5,0.2,0.7,0.3c0.7,0.3,1.3,0.7,1.9,1.1c0.2,0.2,0.4,0.3,0.6,0.4c2.4,1.8,4.2,4.3,5.2,7.2
		l4.7,14c0.7,2.2,1,4.6,0.7,6.9c0,0.3-0.1,0.7-0.2,1s-0.2,0.7-0.2,1c-0.1,0.2-0.1,0.5-0.2,0.7c-0.1,0.3-0.2,0.7-0.4,1
		c-0.1,0.2-0.2,0.4-0.3,0.7c-0.2,0.4-0.4,0.8-0.7,1.3s-0.5,0.8-0.8,1.2c-0.2,0.3-0.4,0.6-0.7,0.8c-0.3,0.4-0.6,0.7-1,1.1
		c-1.5,1.5-3.2,2.6-5.1,3.4l0,0l0,0h-0.1c-0.1-0.2-0.2-0.3-0.3-0.5c-0.7-1-2-1.7-3.2-1.5c-0.1,0-0.2,0-0.3,0.1
		c-0.6,0.2-1.2,0.6-1.8,0.8c-0.4,0.2-0.9,0.2-1.4,0c-1.2-0.6-0.7-2.6-1.8-3.5c0,0-0.1-0.1-0.2-0.1l0,0c-0.8-0.5-1.9-0.2-2.8,0.2
		c-1,0.3-2.3,0.6-2.9-0.2c-0.5-0.5-0.4-1.4-0.8-2c-0.5-0.7-1.5-0.7-2.3-0.6l0,0c-1.6,0.7-3.3-0.4-3.2-2.1
		C152.2,234.9,151.5,232.7,151.3,232.3z"/>
</g>
<path class="st8" d="M172.4,245.4c-0.7-1-1.9-1.7-3.1-1.4s-2.3,1.4-3.3,0.8c-1.4-0.8-0.4-3.6-2.7-3.8c-0.5,0-1,0-1.4,0.2
	c-1,0.4-2.5,0.8-3.3,0c-0.5-0.5-0.4-1.3-0.8-1.9c-0.5-0.7-1.4-0.7-2.2-0.6l0,0c-1.5,0.6-3.2-0.4-3.1-2.1c0.2-2.2-0.5-4.3-0.7-4.7
	l-2.9-8.6c-2.6-7.7,1.6-16,9.2-18.6l0,0c7.7-2.6,16,1.6,18.6,9.2l4.6,13.5c2.5,7.4-1.3,15.4-8.5,18.3
	C172.6,245.8,172.5,245.6,172.4,245.4z"/>
<circle class="st8" cx="131.1" cy="213" r="2.4"/>
<circle class="st8" cx="123.6" cy="209.3" r="1.2"/>
<path class="st9" d="M127,118.4c-0.5,1.8-0.7,3.6-0.7,5.4c0,14.9,15.6,27.1,34.9,27.1c15.8,0,29.1-8.1,33.4-19.3
	c-3.2,12.4-17.3,21.7-34.2,21.7c-19.3,0-34.9-12.1-34.9-27.1C125.5,123.5,126,120.9,127,118.4z"/>
<g class="st1">
	
		<linearGradient id="SVGID_4_" gradientUnits="userSpaceOnUse" x1="150.8739" y1="246.85" x2="150.8739" y2="284.6086" gradientTransform="matrix(-7.5527 0 0 -1 1300 404)">
		<stop  offset="0" style="stop-color:#828282;stop-opacity:0.25"/>
		<stop  offset="0.54" style="stop-color:#828282;stop-opacity:0.12"/>
		<stop  offset="1" style="stop-color:#828282;stop-opacity:0.1"/>
	</linearGradient>
	<ellipse class="st10" cx="160.5" cy="138.2" rx="72.3" ry="18.9"/>
</g>
<path class="st8" d="M160.5,119.9c38.6,0,69.9,8.2,69.9,18.3H90.7C90.7,128.1,122,119.9,160.5,119.9z"/>
<path class="st8" d="M160.5,156.5c-38.6,0-69.9-8.2-69.9-18.3h139.8C230.4,148.3,199.1,156.5,160.5,156.5z"/>
<path class="st11" d="M160.5,156.5c-38.6,0-69.9-8.2-69.9-18.3h139.8C230.4,148.3,199.1,156.5,160.5,156.5z"/>
<path class="st11" d="M189.7,133.4h-58.3c-2.3,0-4.2,1.9-4.2,4.2v1.1c0,2.3,1.9,4.2,4.2,4.2h58.3c2.3,0,4.2-1.9,4.2-4.2v-1.1
	C193.9,135.3,192,133.4,189.7,133.4z"/>
<path class="st12" d="M233.2,108.2c0.4-0.2,0.6-0.7,0.5-1.1V107l0,0c0-0.2,0.2-0.5,0.4-0.5c0.2,0,0.3,0.1,0.4,0.2l0,0c0,0,0,0,0,0.1
	c0.2,0.4,0.7,0.7,1.1,0.5h0.1l0,0c0.2,0,0.5,0.2,0.5,0.4c0,0.2-0.1,0.3-0.2,0.4l0,0c0,0,0,0-0.1,0c-0.4,0.2-0.6,0.7-0.5,1.1v0.1l0,0
	c0,0.2-0.2,0.5-0.4,0.5c-0.2,0-0.3,0-0.4-0.2l0,0v-0.1c-0.2-0.4-0.7-0.6-1.1-0.5h-0.1l0,0c-0.2,0-0.5-0.2-0.5-0.4
	C233,108.5,233,108.4,233.2,108.2L233.2,108.2C233.2,108.3,233.2,108.2,233.2,108.2z"/>
<path class="st12" d="M109.1,182.9c0.4-0.2,0.6-0.7,0.5-1.1v-0.1l0,0c0-0.2,0.2-0.5,0.4-0.5c0.2,0,0.3,0.1,0.4,0.2l0,0
	c0,0,0,0,0,0.1c0.2,0.4,0.7,0.7,1.1,0.5h0.1l0,0c0.2,0,0.5,0.2,0.5,0.4s-0.1,0.3-0.2,0.4l0,0c0,0,0,0-0.1,0
	c-0.4,0.2-0.6,0.7-0.5,1.1v0.1l0,0c0,0.2-0.2,0.5-0.4,0.5c-0.2,0-0.3,0-0.4-0.2l0,0v-0.1c-0.2-0.4-0.7-0.6-1.1-0.5h-0.1l0,0
	c-0.2,0-0.5-0.2-0.5-0.4C108.8,183.1,108.9,183,109.1,182.9L109.1,182.9C109,182.9,109.1,182.9,109.1,182.9z"/>
<path class="st13" d="M246.2,217.5c0.4-0.2,0.6-0.7,0.5-1.1v-0.1l0,0c0-0.2,0.2-0.5,0.4-0.5c0.2,0,0.3,0.1,0.4,0.2l0,0
	c0,0,0,0,0,0.1c0.2,0.4,0.7,0.7,1.1,0.5h0.1l0,0c0.2,0,0.5,0.2,0.5,0.4s-0.1,0.3-0.2,0.4l0,0c0,0,0,0-0.1,0
	c-0.4,0.2-0.6,0.7-0.5,1.1v0.1l0,0c0,0.2-0.2,0.5-0.4,0.5c-0.2,0-0.3,0-0.4-0.2l0,0v-0.1c-0.2-0.4-0.7-0.6-1.1-0.5h-0.1l0,0
	c-0.2,0-0.5-0.2-0.5-0.4C245.9,217.8,246,217.6,246.2,217.5L246.2,217.5C246.1,217.6,246.1,217.5,246.2,217.5z"/>
<path class="st12" d="M259.6,136.8c0.4-0.2,0.6-0.7,0.5-1.1v-0.1l0,0c0-0.2,0.2-0.5,0.4-0.5c0.2,0,0.3,0.1,0.4,0.2l0,0
	c0,0,0,0,0,0.1c0.2,0.4,0.7,0.7,1.1,0.5h0.1l0,0c0.2,0,0.5,0.2,0.5,0.4s-0.1,0.3-0.2,0.4l0,0c0,0,0,0-0.1,0
	c-0.4,0.2-0.6,0.7-0.5,1.1v0.1l0,0c0,0.2-0.2,0.5-0.4,0.5c-0.2,0-0.3,0-0.4-0.2l0,0v-0.1c-0.2-0.4-0.7-0.6-1.1-0.5h-0.1l0,0
	c-0.2,0-0.5-0.2-0.5-0.4C259.3,137.1,259.4,136.9,259.6,136.8L259.6,136.8C259.5,136.8,259.6,136.8,259.6,136.8z"/>
<path class="st12" d="M111.5,95.8c0.4-0.2,0.6-0.7,0.5-1.1v-0.1l0,0c0-0.2,0.2-0.5,0.4-0.5c0.2,0,0.3,0.1,0.4,0.2l0,0c0,0,0,0,0,0.1
	c0.2,0.4,0.7,0.6,1.1,0.5h0.1l0,0c0.2,0,0.5,0.1,0.5,0.3c0,0.2,0,0.4-0.2,0.5l0,0c0,0,0,0-0.1,0c-0.4,0.2-0.6,0.7-0.5,1.1v0.1l0,0
	c0,0.2-0.2,0.5-0.4,0.5c-0.2,0-0.3-0.1-0.4-0.2l0,0v-0.1c-0.2-0.4-0.7-0.6-1.1-0.5h-0.1l0,0c-0.2,0-0.5-0.2-0.5-0.4
	C111.2,96,111.3,95.9,111.5,95.8L111.5,95.8L111.5,95.8z"/>
<g class="st14">
	<rect x="238.4" y="157" class="st15" width="0.7" height="4.1"/>
	<rect x="236.7" y="158.7" class="st15" width="4.1" height="0.7"/>
</g>
<g class="st14">
	<rect x="62.7" y="137.5" class="st15" width="0.7" height="4.1"/>
	<rect x="61.1" y="139.2" class="st15" width="4.1" height="0.7"/>
</g>
<circle class="st16" cx="89.6" cy="114.1" r="1.5"/>
<circle class="st16" cx="264.4" cy="97.3" r="1.5"/>
<circle class="st16" cx="220.5" cy="181.4" r="1.5"/>
<ellipse class="st11" cx="208.8" cy="131.8" rx="8.3" ry="1.7"/>
<ellipse class="st11" cx="208.8" cy="144.7" rx="8.3" ry="1.7"/>
<ellipse class="st11" cx="114.4" cy="131.8" rx="8.3" ry="1.7"/>
<ellipse class="st11" cx="114.4" cy="144.7" rx="8.3" ry="1.7"/>
<ellipse class="st11" cx="160.5" cy="124.5" rx="8.3" ry="1.7"/>
<ellipse class="st11" cx="154.4" cy="106.7" rx="8.3" ry="1.7"/>
<ellipse class="st11" cx="170.3" cy="114" rx="8.3" ry="1.7"/>
<ellipse class="st11" cx="139.8" cy="117.2" rx="8.3" ry="1.7"/>
<g id="Layer_5_1_">
	<path class="st17" d="M152.8,225.8c0,0,4.9-3.7,10.1-5.4s9.1-2.3,13.1-1.8c0,0-5.5-7.3-13.6-3.8S152.8,225.8,152.8,225.8z"/>
	
		<ellipse transform="matrix(0.9013 -0.4331 0.4331 0.9013 -74.7106 93.0435)" class="st17" cx="166.9" cy="210.5" rx="1.8" ry="1.6"/>
	
		<ellipse transform="matrix(1.014167e-02 -0.9999 0.9999 1.014167e-02 -58.2144 368.3713)" class="st17" cx="157" cy="213.6" rx="1.6" ry="1.8"/>
</g>
<path class="st18" d="M211.6,197.8l0.3-0.1c0.3-0.1,0.7,0,0.7,0.3l1.6,5.2l5-2c0.3-0.1,0.7,0,0.7,0.3l0.1,0.3
	c0.1,0.3-0.1,0.7-0.4,0.8l0,0l-5,2l1.6,5.2c0.1,0.3-0.1,0.7-0.4,0.8l-0.3,0.1c-0.3,0.1-0.7,0-0.7-0.3l-1.6-5.2l-5,2
	c-0.3,0.1-0.7,0-0.7-0.3l-0.1-0.3c-0.1-0.3,0.1-0.7,0.4-0.8l5-2l-1.6-5.2C211.1,198.2,211.3,197.9,211.6,197.8z"/>
<path class="st19" d="M203.1,193.3c5.4-6.3,15-7,21.2-1.5c0.1,0.1,0.2,0.2,0.3,0.2c6,5.4,6.6,14.8,1.3,20.9
	c-4.8,5.6-12.9,6.9-19.2,3.1l-10.3,11.9c-0.3,0.3-0.7,0.3-1,0.1l-2.8-2.5c-0.3-0.3-0.3-0.7-0.1-1l10.3-11.9
	C198.2,207,198.3,198.8,203.1,193.3z M207.5,211.3c4.5,3.9,11.3,3.4,15.2-1.1c3.9-4.5,3.4-11.3-1.1-15.2s-11.3-3.4-15.2,1.1
	C202.5,200.6,203,207.4,207.5,211.3L207.5,211.3z"/>
<linearGradient id="SVGID_5_" gradientUnits="userSpaceOnUse" x1="361.9416" y1="188.6998" x2="361.9416" y2="195.7598" gradientTransform="matrix(-7.5459 -4.238051e-02 0.3201 -0.9991 2885.1946 405.0361)">
	<stop  offset="0" style="stop-color:#020202;stop-opacity:0.12"/>
	<stop  offset="0.55" style="stop-color:#020202;stop-opacity:9.000000e-02"/>
	<stop  offset="1" style="stop-color:#020202;stop-opacity:2.000000e-02"/>
</linearGradient>
<path class="st20" d="M215.3,194c3.5,0,6.5,2.3,8,5.5c0.5,1-1.1,1.9-1.6,0.8c-1.3-2.7-3.8-4.5-6.6-4.5c-3,0-5.8,1.9-7.3,4.7
	c-0.6,1.1-2,0-1.4-1C208.3,196.2,211.8,194,215.3,194z"/>
<path class="st19" d="M215.1,193.2c3.4,0,6.4,2.1,8,5.2c0.5,1-1.1,1.8-1.6,0.8c-1.3-2.5-3.8-4.2-6.6-4.2c-3,0-5.7,1.8-7.3,4.4
	c-0.6,1-2,0-1.4-1C208.2,195.2,211.6,193.1,215.1,193.2z"/>
<linearGradient id="SVGID_6_" gradientUnits="userSpaceOnUse" x1="360.6862" y1="186.3482" x2="360.6862" y2="188.0928" gradientTransform="matrix(-7.5459 -4.238051e-02 0.3201 -0.9991 2885.1946 405.0361)">
	<stop  offset="0" style="stop-color:#020202;stop-opacity:0.12"/>
	<stop  offset="0.55" style="stop-color:#020202;stop-opacity:9.000000e-02"/>
	<stop  offset="1" style="stop-color:#020202;stop-opacity:2.000000e-02"/>
</linearGradient>
<path class="st21" d="M223.5,201.8c1.1,0,1,1.8-0.1,1.7S222.4,201.7,223.5,201.8z"/>
<path class="st19" d="M223.6,201.1c1.2,0,1.2,2-0.1,1.9S222.4,201,223.6,201.1z"/>
</svg>
