<?xml version="1.0" encoding="utf-8"?>
<!-- Generator: Adobe Illustrator 22.0.1, SVG Export Plug-In . SVG Version: 6.00 Build 0)  -->
<svg version="1.1" id="Layer_1" xmlns="http://www.w3.org/2000/svg" xmlns:xlink="http://www.w3.org/1999/xlink" x="0px" y="0px"
	 viewBox="0 0 1300 400" style="enable-background:new 0 0 1300 400;" xml:space="preserve">
<style type="text/css">
	.st0{fill:url(#SVGID_1_);stroke:#000000;stroke-width:1.6452;stroke-miterlimit:10;}
	.st1{fill:#F7F8F9;}
	.st2{fill:#B4DAED;}
	.st3{fill:#FFFFFF;}
	.st4{fill:#8F8EAF;}
	.st5{fill:#A0616A;}
	.st6{fill:#B6B6B7;}
	.st7{fill:#EFEFEF;}
	.st8{opacity:0.2;enable-background:new    ;}
	.st9{fill:#E6E6E6;}
	.st10{fill:#ABAFCE;}
	.st11{fill:#2F2E41;}
	.st12{fill:#B9BCDB;}
</style>
<linearGradient id="SVGID_1_" gradientUnits="userSpaceOnUse" x1="650" y1="200" x2="1950" y2="200" gradientTransform="matrix(-1 0 0 -1 1950 400)">
	<stop  offset="0" style="stop-color:#00354D"/>
	<stop  offset="0.4129" style="stop-color:#00364F"/>
	<stop  offset="0.5616" style="stop-color:#003C56"/>
	<stop  offset="0.6676" style="stop-color:#004561"/>
	<stop  offset="0.7534" style="stop-color:#005272"/>
	<stop  offset="0.8268" style="stop-color:#006388"/>
	<stop  offset="0.8918" style="stop-color:#0078A4"/>
	<stop  offset="0.9492" style="stop-color:#0091C3"/>
	<stop  offset="1" style="stop-color:#00ACE6"/>
	<stop  offset="1" style="stop-color:#0093C7"/>
	<stop  offset="1" style="stop-color:#0075A3"/>
	<stop  offset="1" style="stop-color:#005B83"/>
	<stop  offset="1" style="stop-color:#004567"/>
	<stop  offset="1" style="stop-color:#003351"/>
	<stop  offset="1" style="stop-color:#002540"/>
	<stop  offset="1" style="stop-color:#001B35"/>
	<stop  offset="1" style="stop-color:#00162E"/>
	<stop  offset="1" style="stop-color:#00142C"/>
</linearGradient>
<rect x="0" y="0" class="st0" width="1300" height="400"/>
<path class="st1" d="M1109.8,185.5c-0.8-14.4-13.1-25.4-27.5-24.6c-11.1,0.6-20.7,8.3-23.7,19.1c-0.3,0-0.6,0-0.9,0
	c-11.6,0-21.8,7.6-25,18.8c-7.7-3.4-16.7-1.1-21.9,5.5h81.4c10,0,18.1-8.3,17.7-18.3C1109.8,185.8,1109.8,185.6,1109.8,185.5z"/>
<path class="st1" d="M917.9,153.2c0.8-14.4,13.1-25.4,27.5-24.6c11.1,0.6,20.7,8.3,23.7,19.1c0.3,0,0.6,0,0.9,0
	c11.6,0,21.8,7.6,25,18.8c7.7-3.4,16.7-1.1,21.9,5.5h-81.4c-10,0-18.1-8.3-17.7-18.3C917.9,153.4,917.9,153.3,917.9,153.2z"/>
<polygon class="st2" points="1034.7,178.9 970.6,178.9 938.5,234.4 970.6,290 1034.7,290 1066.8,234.4 "/>
<path class="st3" d="M976,280.6h53.4l26.7-46.2l-26.7-46.2H976l-26.7,46.2L976,280.6z"/>
<rect x="917.9" y="289.6" class="st4" width="308.4" height="0.8"/>
<polygon class="st5" points="1160.2,148.8 1163,156.7 1158.3,166 1150.4,152.5 "/>
<path class="st6" d="M1183.6,244.2c-1.5,2.2-13.3,14.5-21.2,22.7c-2.2,2.3-4.1,4.2-5.3,5.6c-1.1,1.2-1.8,1.8-1.8,1.8l-3.6-7.4
	l-1.6-3.2l0,0l1-1.3l9.2-11.8l9.7-12.4l-7.9-15.8l9.8-1.4l6.5,0.4l1.4,0.1C1179.9,221.4,1186,241,1183.6,244.2z"/>
<path class="st7" d="M1156.2,282.3c-0.6,0.6-1.7-0.2-2.8-1.5c-2.4-2.7-5.1-7.8-5.1-7.8l-3.3-7c0.3-2.1,3.5-2.4,5.1-2.4
	c0.6,0,0.9,0,0.9,0l0.3,0.4l5.7,8.4C1157.1,272.6,1158.1,280.4,1156.2,282.3z"/>
<path class="st8" d="M1157.1,272.6c0,0,1,7.9-0.9,9.8c-0.6,0.6-1.7-0.2-2.8-1.5l-1.7-13.9l-0.3-2.8l-0.2-1.7l9.2-11.8l2,16.4
	C1160.3,269.3,1158.4,271.2,1157.1,272.6z"/>
<polygon class="st8" points="1163.5,224.9 1162.3,222.4 1172,221 1178.5,221.4 1178.5,221.4 "/>
<polygon class="st6" points="1151.1,201 1147.9,201 1148.8,231.7 1155.3,284.6 1166,284.6 1161.3,246.5 1163.7,225.2 1179.9,221.4 
	1175.3,200.1 "/>
<path class="st7" d="M1156.2,283.2c0,0-0.9,6.5-0.5,7c0.5,0.5,0.9,0.9,0.9,1.8s5.6,3.3,8.4,1.4c2.8-1.9,0.9-4.7,0.9-4.7l-2.8-5.6
	H1156.2z"/>
<circle class="st5" cx="1154.4" cy="146.7" r="7.9"/>
<polygon class="st9" points="1159,159.2 1152.9,156.8 1149.3,202.4 1174.8,204.3 1166,157.4 1162,153.7 "/>
<path class="st10" d="M1152.1,155.4l-4.7,3.8l-8.8,4.7l3.3,29.2l0.5,16.7c0,0-6,14.9-1.4,18.6c4.7,3.7,9.8,2.3,8.8-5.6
	s-2.8-13.5,6-21.8C1164.6,192.7,1156.9,153.4,1152.1,155.4z"/>
<path class="st10" d="M1161.6,152.7l5.8,3.8l7.9,4.2l6,66.8l-13.5,4.2C1167.8,231.7,1160.4,154.5,1161.6,152.7z"/>
<path class="st5" d="M1176.7,208c0,0-7,10.7-1.8,10.7s6.5-8.8,6.5-8.8L1176.7,208z"/>
<path class="st5" d="M1147.9,208c0,0,7,10.7,1.8,10.7c-5.1,0-6.5-8.8-6.5-8.8L1147.9,208z"/>
<path class="st11" d="M1154.8,135.1l-2.3-1.4l0.5,0.9l-1.8-0.5l0.5,0.5l-2.3-0.5l0.9,0.9c0,0-3.7,0-4.2,3.7l-2.3,0.5l0.9,1.4v1.4
	l0.9,0.9v1.4l0.9,2.3l0.9-3.3c0,0,4.2,0.9,6-2.8c0,0,0.5,1.4,2.8,0.9l3.7,6.5c0,0,0.5-2.9,2.1-3.3c1.6-0.4,0.7-4.1,0.7-4.1
	s-1.4-1.4-1.4-2.3c0-0.9-1.4-1.8-2.3-1.8s-3.3-1.8-3.3-1.8L1154.8,135.1z"/>
<path class="st12" d="M1142.3,164.3l-2.2-1.3l-1.6,0.8c0,0-1.8,0.9-2.3,4.2s-5.1,23.2-5.1,23.2s-0.5,3.3,1.8,8.8
	c2.3,5.6,11.1,15.3,11.1,15.3l8.4-7l-12.5-15.3l3.3-12.5L1142.3,164.3z"/>
<polygon class="st12" points="1171.6,160.6 1175.3,160.6 1181.3,183.4 1183.2,211.7 1174.4,208.5 1174.4,188 "/>
<rect x="982.1" y="188.1" class="st4" width="0.7" height="28.7"/>
<circle class="st2" cx="982.4" cy="218.5" r="2"/>
<rect x="996.9" y="188.1" class="st4" width="0.7" height="28.7"/>
<circle class="st4" cx="997.2" cy="218.5" r="2"/>
<rect x="1022.9" y="188.1" class="st4" width="0.7" height="28.7"/>
<circle class="st4" cx="1023.3" cy="218.5" r="2"/>
<circle class="st4" cx="1012.4" cy="246.8" r="2"/>
<circle class="st4" cx="972.2" cy="228.7" r="2"/>
<polygon class="st4" points="1012.7,245.2 1012.1,245.2 1012.1,210.6 997.2,210.6 997.2,209.9 1012.7,209.9 "/>
<circle class="st2" cx="987" cy="259.3" r="2"/>
<polygon class="st4" points="987.4,257.7 986.7,257.7 986.7,223.1 971.8,223.1 971.8,222.4 987.4,222.4 "/>
<circle class="st2" cx="1032.8" cy="243.8" r="2"/>
<polygon class="st4" points="1033.2,242.2 1032.5,242.2 1032.5,207.6 1022.9,207.6 1022.9,206.9 1033.2,206.9 "/>
<polygon class="st4" points="972.5,226.7 971.8,226.7 971.8,209.5 982.4,209.5 982.4,210.2 972.5,210.2 "/>
<circle class="st4" cx="997.4" cy="267.1" r="2"/>
<polygon class="st4" points="997.7,265.1 997.1,265.1 997.1,248.6 987.2,248.6 987.2,247.9 997.7,247.9 "/>
<circle class="st4" cx="1022.6" cy="252.4" r="2"/>
<polygon class="st4" points="1023,250.4 1022.3,250.4 1022.3,233.2 1032.8,233.2 1032.8,233.9 1023,233.9 "/>
</svg>
