<?xml version="1.0" encoding="utf-8"?>
<!-- Generator: Adobe Illustrator 22.0.1, SVG Export Plug-In . SVG Version: 6.00 Build 0)  -->
<svg version="1.1" id="Layer_1" xmlns="http://www.w3.org/2000/svg" xmlns:xlink="http://www.w3.org/1999/xlink" x="0px" y="0px"
	 viewBox="0 0 1300 400" style="enable-background:new 0 0 1300 400;" xml:space="preserve">
<style type="text/css">
	.st0{fill:url(#SVGID_1_);stroke:#000000;stroke-width:1.6452;stroke-miterlimit:10;}
	.st1{fill:#F7F8F9;}
	.st2{fill:#B4DAED;}
	.st3{fill:#FFFFFF;}
	.st4{fill:#8F8EAF;}
	.st5{fill:#A0616A;}
	.st6{fill:#B6B6B7;}
	.st7{fill:#EFEFEF;}
	.st8{opacity:0.2;enable-background:new    ;}
	.st9{fill:#E6E6E6;}
	.st10{fill:#ABAFCE;}
	.st11{fill:#2F2E41;}
	.st12{fill:#B9BCDB;}
</style>
<linearGradient id="SVGID_1_" gradientUnits="userSpaceOnUse" x1="2446.8682" y1="200" x2="2600" y2="200" gradientTransform="matrix(8.4894 0 0 1 -20772.4727 0)">
	<stop  offset="0" style="stop-color:#00354D"/>
	<stop  offset="0.4129" style="stop-color:#00364F"/>
	<stop  offset="0.5616" style="stop-color:#003C56"/>
	<stop  offset="0.6676" style="stop-color:#004561"/>
	<stop  offset="0.7534" style="stop-color:#005272"/>
	<stop  offset="0.8268" style="stop-color:#006388"/>
	<stop  offset="0.8918" style="stop-color:#0078A4"/>
	<stop  offset="0.9492" style="stop-color:#0091C3"/>
	<stop  offset="1" style="stop-color:#00ACE6"/>
	<stop  offset="1" style="stop-color:#0093C7"/>
	<stop  offset="1" style="stop-color:#0075A3"/>
	<stop  offset="1" style="stop-color:#005B83"/>
	<stop  offset="1" style="stop-color:#004567"/>
	<stop  offset="1" style="stop-color:#003351"/>
	<stop  offset="1" style="stop-color:#002540"/>
	<stop  offset="1" style="stop-color:#001B35"/>
	<stop  offset="1" style="stop-color:#00162E"/>
	<stop  offset="1" style="stop-color:#00142C"/>
</linearGradient>
<rect class="st0" width="1300" height="400"/>
<path class="st1" d="M190.2,185.5c0.8-14.4,13.1-25.4,27.5-24.6c11.1,0.6,20.7,8.3,23.7,19.1c0.3,0,0.6,0,0.9,0
	c11.6,0,21.8,7.6,25,18.8c7.7-3.4,16.7-1.1,21.9,5.5h-81.4c-10,0-18.1-8.3-17.7-18.3C190.2,185.8,190.2,185.6,190.2,185.5z"/>
<path class="st1" d="M382.1,153.2c-0.8-14.4-13.1-25.4-27.5-24.6c-11.1,0.6-20.7,8.3-23.7,19.1c-0.3,0-0.6,0-0.9,0
	c-11.6,0-21.8,7.6-25,18.8c-7.7-3.4-16.7-1.1-21.9,5.5h81.4c10,0,18.1-8.3,17.7-18.3C382.1,153.4,382.1,153.3,382.1,153.2z"/>
<polygon class="st2" points="265.3,178.9 329.4,178.9 361.5,234.4 329.4,290 265.3,290 233.2,234.4 "/>
<path class="st3" d="M324,280.6h-53.4l-26.7-46.2l26.7-46.2H324l26.7,46.2L324,280.6z"/>
<rect x="73.7" y="289.6" class="st4" width="308.4" height="0.8"/>
<polygon class="st5" points="139.8,148.8 137,156.7 141.7,166 149.6,152.5 "/>
<path class="st6" d="M116.4,244.2c1.5,2.2,13.3,14.5,21.2,22.7c2.2,2.3,4.1,4.2,5.3,5.6c1.1,1.2,1.8,1.8,1.8,1.8l3.6-7.4l1.6-3.2
	l0,0l-1-1.3l-9.2-11.8l-9.7-12.4l7.9-15.8l-9.8-1.4l-6.5,0.4l-1.4,0.1C120.1,221.4,114,241,116.4,244.2z"/>
<path class="st7" d="M143.8,282.3c0.6,0.6,1.7-0.2,2.8-1.5c2.4-2.7,5.1-7.8,5.1-7.8l3.3-7c-0.3-2.1-3.5-2.4-5.1-2.4
	c-0.6,0-0.9,0-0.9,0l-0.3,0.4l-5.7,8.4C142.9,272.6,141.9,280.4,143.8,282.3z"/>
<path class="st8" d="M142.9,272.6c0,0-1,7.9,0.9,9.8c0.6,0.6,1.7-0.2,2.8-1.5l1.7-13.9l0.3-2.8l0.2-1.7l-9.2-11.8l-2,16.4
	C139.7,269.3,141.6,271.2,142.9,272.6z"/>
<polygon class="st8" points="136.5,224.9 137.7,222.4 128,221 121.5,221.4 121.5,221.4 "/>
<polygon class="st6" points="148.9,201 152.1,201 151.2,231.7 144.7,284.6 134,284.6 138.7,246.5 136.3,225.2 120.1,221.4 
	124.7,200.1 "/>
<path class="st7" d="M143.8,283.2c0,0,0.9,6.5,0.5,7c-0.5,0.5-0.9,0.9-0.9,1.8s-5.6,3.3-8.4,1.4s-0.9-4.7-0.9-4.7l2.8-5.6h6.9V283.2
	z"/>
<circle class="st5" cx="145.6" cy="146.7" r="7.9"/>
<polygon class="st9" points="141,159.2 147.1,156.8 150.7,202.4 125.2,204.3 134,157.4 138,153.7 "/>
<path class="st10" d="M147.9,155.4l4.7,3.8l8.8,4.7l-3.3,29.2l-0.5,16.7c0,0,6,14.9,1.4,18.6c-4.7,3.7-9.8,2.3-8.8-5.6
	s2.8-13.5-6-21.8C135.4,192.7,143.1,153.4,147.9,155.4z"/>
<path class="st10" d="M138.4,152.7l-5.8,3.8l-7.9,4.2l-6,66.8l13.5,4.2C132.2,231.7,139.6,154.5,138.4,152.7z"/>
<path class="st5" d="M123.3,208c0,0,7,10.7,1.8,10.7s-6.5-8.8-6.5-8.8L123.3,208z"/>
<path class="st5" d="M152.1,208c0,0-7,10.7-1.8,10.7c5.1,0,6.5-8.8,6.5-8.8L152.1,208z"/>
<path class="st11" d="M145.2,135.1l2.3-1.4l-0.5,0.9l1.8-0.5l-0.5,0.5l2.3-0.5l-0.9,0.9c0,0,3.7,0,4.2,3.7l2.3,0.5l-0.9,1.4v1.4
	l-0.9,0.9v1.4l-0.9,2.3l-0.9-3.3c0,0-4.2,0.9-6-2.8c0,0-0.5,1.4-2.8,0.9l-3.7,6.5c0,0-0.5-2.9-2.1-3.3c-1.6-0.4-0.7-4.1-0.7-4.1
	s1.4-1.4,1.4-2.3c0-0.9,1.4-1.8,2.3-1.8s3.3-1.8,3.3-1.8L145.2,135.1z"/>
<path class="st12" d="M157.7,164.3l2.2-1.3l1.6,0.8c0,0,1.8,0.9,2.3,4.2s5.1,23.2,5.1,23.2s0.5,3.3-1.8,8.8
	c-2.3,5.6-11.1,15.3-11.1,15.3l-8.4-7l12.5-15.3l-3.3-12.5L157.7,164.3z"/>
<polygon class="st12" points="128.4,160.6 124.7,160.6 118.7,183.4 116.8,211.7 125.6,208.5 125.6,188 "/>
<rect x="317.2" y="188.1" class="st4" width="0.7" height="28.7"/>
<circle class="st2" cx="317.6" cy="218.5" r="2"/>
<rect x="302.4" y="188.1" class="st4" width="0.7" height="28.7"/>
<circle class="st4" cx="302.8" cy="218.5" r="2"/>
<rect x="276.4" y="188.1" class="st4" width="0.7" height="28.7"/>
<path class="st4" d="M276.7,216.5c-1.1,0-2,0.9-2,2s0.9,2,2,2s2-0.9,2-2S277.8,216.5,276.7,216.5z"/>
<circle class="st4" cx="287.6" cy="246.8" r="2"/>
<circle class="st4" cx="327.8" cy="228.7" r="2"/>
<polygon class="st4" points="287.3,245.2 287.9,245.2 287.9,210.6 302.8,210.6 302.8,209.9 287.3,209.9 "/>
<circle class="st2" cx="313" cy="259.3" r="2"/>
<polygon class="st4" points="312.6,257.7 313.3,257.7 313.3,223.1 328.2,223.1 328.2,222.4 312.6,222.4 "/>
<circle class="st2" cx="267.2" cy="243.8" r="2"/>
<polygon class="st4" points="266.8,242.2 267.5,242.2 267.5,207.6 277.1,207.6 277.1,206.9 266.8,206.9 "/>
<polygon class="st4" points="327.5,226.7 328.2,226.7 328.2,209.5 317.6,209.5 317.6,210.2 327.5,210.2 "/>
<circle class="st4" cx="302.6" cy="267.1" r="2"/>
<polygon class="st4" points="302.3,265.1 302.9,265.1 302.9,248.6 312.8,248.6 312.8,247.9 302.3,247.9 "/>
<circle class="st4" cx="277.4" cy="252.4" r="2"/>
<polygon class="st4" points="277,250.4 277.7,250.4 277.7,233.2 267.2,233.2 267.2,233.9 277,233.9 "/>
</svg>
