<?xml version="1.0" encoding="utf-8"?>
<!-- Generator: Adobe Illustrator 22.0.1, SVG Export Plug-In . SVG Version: 6.00 Build 0)  -->
<svg version="1.1" id="Layer_1" xmlns="http://www.w3.org/2000/svg" xmlns:xlink="http://www.w3.org/1999/xlink" x="0px" y="0px"
	 viewBox="0 0 1300 400" style="enable-background:new 0 0 1300 400;" xml:space="preserve">
<style type="text/css">
	.st0{fill:url(#SVGID_1_);stroke:#000000;stroke-width:1.6452;stroke-miterlimit:10;}
	.st1{fill:#E6E6E6;}
	.st2{fill:#0D8CD8;}
	.st3{fill:#FFFFFF;}
	.st4{fill:#3F3D56;}
	.st5{fill:#A0616A;}
	.st6{fill:#2F2E41;}
	.st7{opacity:0.2;enable-background:new    ;}
</style>
<linearGradient id="SVGID_1_" gradientUnits="userSpaceOnUse" x1="0" y1="201.1" x2="51.8597" y2="201.1" gradientTransform="matrix(-25.0676 0 0 1 1300 0)">
	<stop  offset="0" style="stop-color:#007194"/>
	<stop  offset="1" style="stop-color:#41C1C9"/>
</linearGradient>
<rect y="1.1" class="st0" width="1300" height="400"/>
<path class="st1" d="M201.9,170.6c1-18,16.5-31.8,34.5-30.8c14,0.8,25.9,10.4,29.6,23.9c0.4,0,0.8,0,1.2,0
	c14.5,0,27.3,9.6,31.4,23.5c9.6-4.2,20.9-1.4,27.4,6.8H224.1c-12.5,0-22.7-10.4-22.2-22.9C201.9,170.9,201.9,170.8,201.9,170.6z"/>
<path class="st1" d="M442.3,130.1c-1-18-16.5-31.8-34.5-30.8c-14,0.8-25.9,10.4-29.6,23.9c-0.4,0-0.8,0-1.2,0
	c-14.5,0-27.3,9.6-31.4,23.5c-9.6-4.2-20.9-1.4-27.4,6.8h101.9c12.5,0,22.7-10.4,22.2-22.9C442.3,130.4,442.3,130.2,442.3,130.1z"/>
<polygon class="st2" points="296,162.3 376.3,162.3 416.5,231.9 376.3,301.4 296,301.4 255.9,231.9 "/>
<path class="st3" d="M369.6,289.8h-66.9l-33.4-57.9l33.4-57.9h66.9l33.4,57.9L369.6,289.8z"/>
<rect x="56.1" y="300.9" class="st4" width="386.2" height="1"/>
<polygon class="st5" points="138.9,124.6 135.4,134.5 141.2,146.1 151.1,129.2 "/>
<path class="st6" d="M109.5,244.1c1.9,2.7,16.7,18.2,26.5,28.5c2.7,2.9,5.1,5.3,6.7,7c1.4,1.5,2.2,2.3,2.2,2.3l4.5-9.3l1.9-4l0,0
	l-1.2-1.6l-11.6-14.8l-12.2-15.6l9.9-19.8l-12.2-1.7l-8.1,0.5l-1.8,0.1C114.1,215.6,106.6,240,109.5,244.1z"/>
<path class="st6" d="M143.8,291.8c0.8,0.8,2.1-0.2,3.5-1.9c2.9-3.4,6.4-9.8,6.4-9.8l4.1-8.7c-0.4-2.6-4.4-2.9-6.4-2.9
	c-0.7,0-1.1,0-1.1,0L150,269l-7.1,10.6C142.7,279.6,141.5,289.5,143.8,291.8z"/>
<path class="st7" d="M142.7,279.6c0,0-1.3,9.9,1.1,12.2c0.8,0.8,2.1-0.2,3.5-1.9l2.1-17.4l0.4-3.5l0.3-2.1l-11.6-14.8l-2.5,20.5
	C138.8,275.5,141.1,277.9,142.7,279.6z"/>
<polygon class="st7" points="134.7,219.9 136.2,216.8 124,215 115.9,215.5 115.9,215.6 "/>
<polygon class="st6" points="150.2,190 154.3,190 153.1,228.4 145,294.7 131.6,294.7 137.4,247 134.5,220.2 114.1,215.6 120,188.8 
	"/>
<path class="st6" d="M143.8,292.9c0,0,1.2,8.1,0.6,8.7s-1.2,1.2-1.2,2.3c0,1.2-7,4.1-10.5,1.7c-3.5-2.3-1.2-5.8-1.2-5.8l3.5-7
	L143.8,292.9z"/>
<circle class="st5" cx="146.1" cy="122" r="9.9"/>
<polygon class="st1" points="140.3,137.7 147.9,134.6 152.5,191.7 120.5,194.1 131.6,135.3 136.5,130.7 "/>
<path class="st6" d="M148.9,132.9l5.9,4.8l11.1,5.8l-4.1,36.6l-0.6,20.9c0,0,7.6,18.6,1.7,23.3c-5.8,4.7-12.2,2.9-11.1-7
	c1.2-9.9,3.5-16.9-7.6-27.3C133.3,179.5,143,130.4,148.9,132.9z"/>
<path class="st6" d="M137.1,129.5l-7.3,4.7l-9.9,5.2l-7.6,83.8l16.9,5.2C129.3,228.4,138.6,131.7,137.1,129.5z"/>
<path class="st5" d="M118.2,198.7c0,0,8.7,13.4,2.3,13.4c-6.4,0-8.1-11.1-8.1-11.1L118.2,198.7z"/>
<path class="st5" d="M154.3,198.7c0,0-8.7,13.4-2.3,13.4c6.4,0,8.1-11.1,8.1-11.1L154.3,198.7z"/>
<path class="st6" d="M145.5,107.4l2.9-1.7l-0.6,1.2l2.3-0.6l-0.6,0.6l2.9-0.6l-1.2,1.2c0,0,4.7,0,5.2,4.7l2.9,0.6l-1.2,1.7v1.7
	l-1.2,1.2v1.7l-1.2,2.9l-1.2-4.1c0,0-5.2,1.2-7.6-3.5c0,0-0.6,1.7-3.5,1.2l-4.7,8.1c0,0-0.6-3.6-2.6-4.1s-0.9-5.2-0.9-5.2
	s1.7-1.7,1.7-2.9s1.7-2.3,2.9-2.3s4.1-2.3,4.1-2.3L145.5,107.4z"/>
<path class="st6" d="M161.2,144.1l2.7-1.6l1.9,1c0,0,2.3,1.2,2.9,5.2c0.6,4.1,6.4,29.1,6.4,29.1s0.6,4.1-2.3,11.1s-14,19.2-14,19.2
	l-10.5-8.7l15.7-19.2l-4.1-15.7L161.2,144.1z"/>
<polygon class="st6" points="124.6,139.4 120,139.4 112.4,167.9 110.1,203.4 121.1,199.3 121.1,173.7 "/>
<rect x="361.1" y="173.9" class="st4" width="0.9" height="35.9"/>
<circle class="st2" cx="361.5" cy="211.8" r="2.5"/>
<rect x="342.5" y="173.9" class="st4" width="0.9" height="35.9"/>
<circle class="st4" cx="343" cy="211.8" r="2.5"/>
<rect x="309.9" y="173.9" class="st4" width="0.9" height="35.9"/>
<circle class="st4" cx="310.4" cy="211.8" r="2.5"/>
<circle class="st4" cx="324" cy="247.3" r="2.5"/>
<circle class="st4" cx="374.3" cy="224.6" r="2.5"/>
<polygon class="st4" points="323.6,245.3 324.4,245.3 324.4,202 343,202 343,201.1 323.6,201.1 "/>
<circle class="st2" cx="355.8" cy="263" r="2.5"/>
<polygon class="st4" points="355.3,260.9 356.2,260.9 356.2,217.7 374.8,217.7 374.8,216.8 355.3,216.8 "/>
<circle class="st2" cx="298.4" cy="243.6" r="2.5"/>
<polygon class="st4" points="298,241.6 298.8,241.6 298.8,198.3 310.8,198.3 310.8,197.4 298,197.4 "/>
<polygon class="st4" points="373.9,222.2 374.8,222.2 374.8,200.6 361.5,200.6 361.5,201.5 373.9,201.5 "/>
<circle class="st4" cx="342.8" cy="272.7" r="2.5"/>
<polygon class="st4" points="342.3,270.2 343.2,270.2 343.2,249.6 355.6,249.6 355.6,248.7 342.3,248.7 "/>
<circle class="st4" cx="311.2" cy="254.3" r="2.5"/>
<polygon class="st4" points="310.8,251.9 311.6,251.9 311.6,230.4 298.4,230.4 298.4,231.2 310.8,231.2 "/>
</svg>
