<?xml version="1.0" encoding="utf-8"?>
<!-- Generator: Adobe Illustrator 22.0.1, SVG Export Plug-In . SVG Version: 6.00 Build 0)  -->
<svg version="1.1" id="Layer_1" xmlns="http://www.w3.org/2000/svg" xmlns:xlink="http://www.w3.org/1999/xlink" x="0px" y="0px"
	 viewBox="0 0 1300 400" style="enable-background:new 0 0 1300 400;" xml:space="preserve">
<style type="text/css">
	.st0{fill:url(#SVGID_1_);stroke:#000000;stroke-width:1.6452;stroke-miterlimit:10;}
	.st1{fill:#9B9B9E;}
	.st2{fill:#D3EAF4;}
	.st3{fill:#E5E5E5;}
	.st4{fill:#B5B5C4;}
	.st5{fill:#ADA3A3;}
	.st6{fill:#B6B6B7;}
	.st7{fill:#E3E3E5;}
	.st8{fill:#FFB8B8;}
	.st9{fill:#EFEFEF;}
	.st10{fill:#C9CBD3;}
	.st11{fill:#5F5F6B;}
	.st12{opacity:0.2;enable-background:new    ;}
</style>
<linearGradient id="SVGID_1_" gradientUnits="userSpaceOnUse" x1="2543.4678" y1="200" x2="2600" y2="200" gradientTransform="matrix(22.9957 0 0 1 -58488.9453 0)">
	<stop  offset="0" style="stop-color:#00354D"/>
	<stop  offset="0.4129" style="stop-color:#00364F"/>
	<stop  offset="0.5616" style="stop-color:#003C56"/>
	<stop  offset="0.6676" style="stop-color:#004561"/>
	<stop  offset="0.7534" style="stop-color:#005272"/>
	<stop  offset="0.8268" style="stop-color:#006388"/>
	<stop  offset="0.8918" style="stop-color:#0078A4"/>
	<stop  offset="0.9492" style="stop-color:#0091C3"/>
	<stop  offset="1" style="stop-color:#00ACE6"/>
	<stop  offset="1" style="stop-color:#0093C7"/>
	<stop  offset="1" style="stop-color:#0075A3"/>
	<stop  offset="1" style="stop-color:#005B83"/>
	<stop  offset="1" style="stop-color:#004567"/>
	<stop  offset="1" style="stop-color:#003351"/>
	<stop  offset="1" style="stop-color:#002540"/>
	<stop  offset="1" style="stop-color:#001B35"/>
	<stop  offset="1" style="stop-color:#00162E"/>
	<stop  offset="1" style="stop-color:#00142C"/>
</linearGradient>
<rect class="st0" width="1300" height="400"/>
<rect x="90.7" y="160.6" transform="matrix(0.9623 -0.2721 0.2721 0.9623 -49.6031 54.3669)" class="st1" width="161.1" height="90.9"/>
<circle class="st2" cx="233.8" cy="144.1" r="1.3"/>
<circle class="st2" cx="229.8" cy="145.2" r="1.3"/>
<circle class="st2" cx="225.9" cy="146.3" r="1.3"/>
<path class="st2" d="M154.2,195.9c2.1-0.4,4.2-0.3,6.3,0.2c-0.6-2.1-0.8-4.2-0.5-6.3c2.1,0.8,4,2,5.6,3.6c0.5-2.2,1.5-4.2,2.9-6
	c1.4,1.6,2.4,3.6,2.9,5.6c1.5-1.5,3.3-2.7,5.3-3.4c0,0,0.9,4.8-1.3,8.7c-2,3.5-5.8,5.1-6.7,5.4l0,0l0,0c-0.1,0-0.1,0.1-0.1,0.1
	s0-0.1,0-0.2c0,0,0,0-0.1-0.1v0.1c0.1,0.2,0.1,0.2,0.1,0.2h-0.1l0,0l0,0c-0.9,0.2-5,0.8-8.5-1.1
	C155.9,200.5,154.2,195.9,154.2,195.9z"/>
<circle class="st2" cx="161.9" cy="180.5" r="3.3"/>
<rect x="118.2" y="209.6" transform="matrix(0.9623 -0.2721 0.2721 0.9623 -50.9044 54.3027)" class="st2" width="104.3" height="2.3"/>
<rect x="198.7" y="211.1" transform="matrix(0.9623 -0.2721 0.2721 0.9623 -52.0453 64.8232)" class="st2" width="18" height="18"/>
<rect x="166.6" y="220.1" transform="matrix(0.9623 -0.2721 0.2721 0.9623 -55.707 56.4253)" class="st2" width="18" height="18"/>
<rect x="134.5" y="229.2" transform="matrix(0.9623 -0.2721 0.2721 0.9623 -59.3971 48.0227)" class="st2" width="18" height="18"/>
<rect x="204.8" y="232.2" transform="matrix(0.9623 -0.2721 0.2721 0.9623 -55.3973 66.3132)" class="st2" width="13.3" height="1.5"/>
<rect x="172.6" y="241.2" transform="matrix(0.9623 -0.2721 0.2721 0.9623 -59.0598 57.9063)" class="st2" width="13.3" height="1.5"/>
<rect x="140.5" y="250.3" transform="matrix(0.9623 -0.2721 0.2721 0.9623 -62.7523 49.5135)" class="st2" width="13.3" height="1.5"/>
<ellipse class="st3" cx="282.9" cy="258.6" rx="86" ry="3.2"/>
<ellipse class="st3" cx="130.2" cy="294.6" rx="66.9" ry="3.2"/>
<path class="st4" d="M163,269.9h-19.3v8.1h11.2v8.1h-11.2v8.1H163V269.9z M139.9,269.9h-19.3v7h11.2v1.4h-11.2v16.1h19.3V287h-11.2
	v-1.4h11.2V269.9L139.9,269.9z M116.7,269.9H97.4v7h11.2v1.4H97.4v16.1h19.3V287h-11.2v-1.4h11.2V269.9L116.7,269.9z"/>
<path class="st4" d="M331.7,233h-8v7.9h-7.3V233h-8v23.8h8v-8h7.3v8h8V233L331.7,233z M298,240.9h7V233h-22v7.9h7v15.9h8V240.9
	L298,240.9L298,240.9z M279.5,233h-8.3l-5.1,8.4L261,233h-8.3v23.8h7.9V245l5.5,8.5h0.2l5.5-8.5v11.8h7.8L279.5,233L279.5,233z
	 M248.8,233h-8v16h-11.2v7.9h19.2V233L248.8,233z"/>
<polygon class="st5" points="345.7,249.4 346.4,256.8 341.2,256.3 341.2,250 "/>
<polygon class="st5" points="350.5,249.4 349.9,256.8 355.1,256.3 355.1,250 "/>
<path class="st6" d="M336.8,192.5c0,0-1.8,10.4-1.8,12c0,1.5,0.7,11.3,1.8,13.3s1.3,2.8,0.9,3.7c-0.4,0.8-0.2,0.7,0,1.3
	s0.7,0.4,0,1.3c-0.5,0.8-0.5,1.8,0,2.6c0.4,0.7-0.9,18.3,0.9,19.6c1.8,1.3,2.2,5.7,2.2,5.7l5.7-0.7v-4.8c0,0,1.3-3.5,0.4-5.7
	c-0.9-2.2-1.3-13.7-1.3-13.7s0.2-1.1,0-1.8s0-1.1,0.4-1.3s0.7-1.1,0.7-1.1l0.6-15.9l2.6,15.7c0,0-2.6,21.3,0,24.2v5h5.7l-0.9-5.4
	c0,0,1.8-5,0.9-6.1c-0.9-1.1,2.6-18.5,2.2-19.2s-0.2-0.9,0-1.3c0.2-0.4,0.9-0.9,0.7-1.3c-0.2-0.4,0-1.3,0-1.3s4.1-20.5,2.2-22.4
	C358.6,193,336.8,192.5,336.8,192.5z"/>
<path class="st7" d="M345.1,254c0,0-0.4-2.1-3.9-1.4c0,0-0.9,1.8-0.9,2.7c0,0.8-0.9,6.7-0.9,6.7s-3.5,5.9,0.9,5.9s5.9-1.5,6.1-3.1
	s-0.2-2,0.7-2.6s1.3-0.7,1.1-1.5s-0.7-5.2-0.7-5.2s-0.2-3.3-1.4-2.4l-1.2,0.9"/>
<path class="st7" d="M351.2,254c0,0,0.4-2.1,3.9-1.4c0,0,0.9,1.8,0.9,2.7c0,0.8,0.9,6.7,0.9,6.7s3.5,5.9-0.9,5.9s-5.9-1.5-6.1-3.1
	s0.2-2-0.7-2.6s-1.3-0.7-1.1-1.5s0.6-5.2,0.6-5.2s0.2-3.3,1.4-2.4l1.2,0.9"/>
<circle class="st8" cx="344.9" cy="146.6" r="5.9"/>
<path class="st8" d="M349.6,147.5c0,0,2.4,9.4,2.8,9.6c0.5,0.2-10,1.1-10,1.1s2.6-8.1,0-9.4L349.6,147.5z"/>
<path class="st9" d="M351.2,153.2L351.2,153.2l7.2,5l-1.3,39c0,0-9.6-1.1-11.8-0.9c-2.2,0.2-9.1-2-9.1-2l3.1-36.6
	c0.1-1.5,1.3-2.6,2.8-2.8l1.3-0.1c0,0,1.3,3.2,5.2,1.6C349.9,155.8,350.9,154.6,351.2,153.2z"/>
<path class="st10" d="M351,152.8l8.9,4.2l1.8,25.1c0,0,3.5,15,0.7,19.4c-2.8,4.3-7.6,4.8-7.6,4.8s-6.3-25.1-4.6-33.5
	S351,152.8,351,152.8z"/>
<path class="st8" d="M367.7,190.6v3.3c0,0,1.3,7.2-2.8,7s-2.2-7.8-2.2-7.8l1.3-2.4L367.7,190.6z"/>
<path class="st8" d="M329.4,197.1l0.4,3.7c0,0-2.2,7.4,2,7.6c4.1,0.2,1.1-7.6,1.1-7.6l-1.4-4.2L329.4,197.1z"/>
<path class="st10" d="M343.4,154.1L343.4,154.1c-4,1-7.7,2.9-10.7,5.6l0,0l3.1,16.1l0.4,5.9c0,0-8.1,28.8,1.3,24.6
	c0,0,8.1-25.1,7-36.6C343.3,158.1,343.4,154.1,343.4,154.1z"/>
<path class="st10" d="M335.5,159.4c-0.2-0.2-2.8,0.3-2.8,0.3s-4.8,16.9-4.8,19.7s-0.7,18.9-0.7,18.9l5.8,0.6l4.7-22.4L335.5,159.4z"
	/>
<path class="st10" d="M358.4,157h1.5c0,0,4.4,1.8,4.6,3.7s6.1,21.8,6.1,21.8l-1.5,10l-5.7-0.9l-1.1-11.1l-5.7-12.2L358.4,157z"/>
<path class="st11" d="M346,148.2l-0.2-1.6c-0.1-0.4-0.3-0.8-0.6-0.8c-0.3,0.1-1,0.3-1.1,0.3c-0.4-0.3-1,0.2-1.5,0
	c-0.2-0.1-0.3-0.3-0.5-0.4c-0.2,0-0.3,0.1-0.4,0.2c-0.3,0.2-0.6,0.4-1,0.5s-0.8,0-1-0.3c-0.1-0.1-0.1-0.1-0.2-0.2
	c-0.1,0-0.2,0-0.3,0l-1.1,0.3c-0.3-1.2-0.1-2.5,0.6-3.5c0.5-0.6,1-1.2,1.6-1.6c0.7-0.5,1.4-1,2.1-1.5c0.8-0.5,1.7-0.9,2.6-1.1
	c0.9-0.2,2,0.1,2.6,0.8c0.3-0.2,0.5-0.5,0.6-0.8c0.2,0.2,0.3,0.6,0,0.9l-0.1,0.1l0.9-0.6c0.2,0.2-0.3,0.8,0,1.1
	c0.1,0.1,0.2,0.1,0.2,0.2c0.5,0.2,1,0.5,1.4,0.9c0.5,0.6,0.9,1.3,1.1,2c0.6,1.6,1,3.5,0.2,5c-0.1,0.2-1.3,3-1.5,3.1
	c-0.5,0.4-0.2-0.5-0.6,0c-0.3,0.4-0.2-1.2-0.7-0.8c-0.4,0.2-0.8,0.3-1.2,0.1c-0.2-0.1-0.1-0.8,0-1.5c0.1-0.4-0.2-0.8-0.6-0.9
	c-0.1,0-0.2,0-0.3,0C346.6,148.2,346,148.3,346,148.2z"/>
<polygon class="st12" points="334.9,179.1 332.5,199 334.1,199 "/>
<polygon class="st12" points="360.2,171.5 361.4,179.1 359.1,171.5 359.8,171.5 "/>
</svg>
