<?xml version="1.0" encoding="utf-8"?>
<!-- Generator: Adobe Illustrator 22.0.1, SVG Export Plug-In . SVG Version: 6.00 Build 0)  -->
<svg version="1.1" id="Layer_1" xmlns="http://www.w3.org/2000/svg" xmlns:xlink="http://www.w3.org/1999/xlink" x="0px" y="0px"
	 viewBox="0 0 1300 400" style="enable-background:new 0 0 1300 400;" xml:space="preserve">
<style type="text/css">
	.st0{fill:url(#SVGID_1_);stroke:#000000;stroke-width:1.6452;stroke-miterlimit:10;}
	.st1{fill:#9B9B9E;}
	.st2{fill:#D3EAF4;}
	.st3{fill:#E5E5E5;}
	.st4{fill:#B5B5C4;}
	.st5{fill:#ADA3A3;}
	.st6{fill:#B6B6B7;}
	.st7{fill:#E3E3E5;}
	.st8{fill:#FFB8B8;}
	.st9{fill:#EFEFEF;}
	.st10{fill:#C9CBD3;}
	.st11{fill:#5F5F6B;}
	.st12{opacity:0.2;enable-background:new    ;}
</style>
<linearGradient id="SVGID_1_" gradientUnits="userSpaceOnUse" x1="650" y1="200" x2="1950" y2="200" gradientTransform="matrix(-1 0 0 -1 1950 400)">
	<stop  offset="0" style="stop-color:#00354D"/>
	<stop  offset="0.4129" style="stop-color:#00364F"/>
	<stop  offset="0.5616" style="stop-color:#003C56"/>
	<stop  offset="0.6676" style="stop-color:#004561"/>
	<stop  offset="0.7534" style="stop-color:#005272"/>
	<stop  offset="0.8268" style="stop-color:#006388"/>
	<stop  offset="0.8918" style="stop-color:#0078A4"/>
	<stop  offset="0.9492" style="stop-color:#0091C3"/>
	<stop  offset="1" style="stop-color:#00ACE6"/>
	<stop  offset="1" style="stop-color:#0093C7"/>
	<stop  offset="1" style="stop-color:#0075A3"/>
	<stop  offset="1" style="stop-color:#005B83"/>
	<stop  offset="1" style="stop-color:#004567"/>
	<stop  offset="1" style="stop-color:#003351"/>
	<stop  offset="1" style="stop-color:#002540"/>
	<stop  offset="1" style="stop-color:#001B35"/>
	<stop  offset="1" style="stop-color:#00162E"/>
	<stop  offset="1" style="stop-color:#00142C"/>
</linearGradient>
<rect x="0" y="0" class="st0" width="1300" height="400"/>
<rect x="1083.3" y="125.6" transform="matrix(0.2721 -0.9623 0.9623 0.2721 623.2489 1236.1501)" class="st1" width="90.9" height="161.1"/>
<circle class="st2" cx="1066.2" cy="144.1" r="1.3"/>
<circle class="st2" cx="1070.2" cy="145.2" r="1.3"/>
<circle class="st2" cx="1074.1" cy="146.3" r="1.3"/>
<path class="st2" d="M1145.8,195.9c-2.1-0.4-4.2-0.3-6.3,0.2c0.6-2.1,0.8-4.2,0.5-6.3c-2.1,0.8-4,2-5.6,3.6c-0.5-2.2-1.5-4.2-2.9-6
	c-1.4,1.6-2.4,3.6-2.9,5.6c-1.5-1.5-3.3-2.7-5.3-3.4c0,0-0.9,4.8,1.3,8.7c2,3.5,5.8,5.1,6.7,5.4l0,0l0,0c0.1,0,0.1,0.1,0.1,0.1
	s0-0.1,0-0.2c0,0,0,0,0.1-0.1c0,0,0,0.1,0,0.1c-0.1,0.2-0.1,0.2-0.1,0.2s0.1,0,0.1,0v0h0c0.9,0.2,5,0.8,8.5-1.1
	C1144.1,200.5,1145.8,195.9,1145.8,195.9z"/>
<circle class="st2" cx="1138.1" cy="180.5" r="3.3"/>
<rect x="1128.4" y="158.6" transform="matrix(0.2721 -0.9623 0.9623 0.2721 619.4869 1240.3282)" class="st2" width="2.3" height="104.3"/>
<rect x="1083.2" y="211.1" transform="matrix(0.2721 -0.9623 0.9623 0.2721 583.287 1211.2163)" class="st2" width="18" height="18"/>
<rect x="1115.4" y="220.1" transform="matrix(0.2721 -0.9623 0.9623 0.2721 597.9773 1248.7583)" class="st2" width="18" height="18"/>
<rect x="1147.5" y="229.2" transform="matrix(0.2721 -0.9623 0.9623 0.2721 612.6301 1286.277)" class="st2" width="18" height="18"/>
<rect x="1087.8" y="226.2" transform="matrix(0.2721 -0.9623 0.9623 0.2721 568.314 1217.0668)" class="st2" width="1.5" height="13.3"/>
<rect x="1120" y="235.3" transform="matrix(0.2721 -0.9623 0.9623 0.2721 582.941 1254.5798)" class="st2" width="1.5" height="13.3"/>
<rect x="1152.1" y="244.4" transform="matrix(0.2721 -0.9623 0.9623 0.2721 597.5598 1292.1121)" class="st2" width="1.5" height="13.3"/>
<ellipse class="st3" cx="1017.1" cy="258.6" rx="86" ry="3.2"/>
<ellipse class="st3" cx="1169.8" cy="294.6" rx="66.9" ry="3.2"/>
<path class="st4" d="M1137,269.9h19.3v8.1h-11.2v8.1h11.2v8.1H1137V269.9z M1160.1,269.9h19.3v7h-11.2v1.4h11.2v16.1h-19.3v-7.4
	h11.2v-1.4h-11.2V269.9L1160.1,269.9z M1183.3,269.9h19.3v7h-11.2v1.4h11.2v16.1h-19.3v-7.4h11.2v-1.4h-11.2V269.9L1183.3,269.9z"/>
<path class="st4" d="M968.3,233h8v7.9h7.3V233h8v23.8h-8v-8h-7.3v8h-8V233L968.3,233z M1002,240.9h-7V233h22v7.9h-7v15.9h-8
	L1002,240.9L1002,240.9L1002,240.9z M1020.5,233h8.3l5.1,8.4l5.1-8.4h8.3v23.8h-7.9V245l-5.5,8.5h-0.2l-5.5-8.5v11.8h-7.8V233
	L1020.5,233z M1051.2,233h8V249h11.2v7.9h-19.2V233L1051.2,233z"/>
<polygon class="st5" points="954.3,249.4 953.6,256.8 958.8,256.3 958.8,250 "/>
<polygon class="st5" points="949.5,249.4 950.1,256.8 944.9,256.3 944.9,250 "/>
<path class="st6" d="M963.2,192.5c0,0,1.8,10.4,1.8,12c0,1.5-0.7,11.3-1.8,13.3c-1.1,2-1.3,2.8-0.9,3.7c0.4,0.8,0.2,0.7,0,1.3
	c-0.2,0.6-0.7,0.4,0,1.3c0.5,0.8,0.5,1.8,0,2.6c-0.4,0.7,0.9,18.3-0.9,19.6c-1.8,1.3-2.2,5.7-2.2,5.7l-5.7-0.7v-4.8
	c0,0-1.3-3.5-0.4-5.7c0.9-2.2,1.3-13.7,1.3-13.7s-0.2-1.1,0-1.8c0.2-0.7,0-1.1-0.4-1.3c-0.4-0.2-0.7-1.1-0.7-1.1l-0.6-15.9
	l-2.6,15.7c0,0,2.6,21.3,0,24.2v5h-5.7l0.9-5.4c0,0-1.8-5-0.9-6.1c0.9-1.1-2.6-18.5-2.2-19.2s0.2-0.9,0-1.3
	c-0.2-0.4-0.9-0.9-0.7-1.3c0.2-0.4,0-1.3,0-1.3s-4.1-20.5-2.2-22.4C941.4,193,963.2,192.5,963.2,192.5z"/>
<path class="st7" d="M954.9,254c0,0,0.4-2.1,3.9-1.4c0,0,0.9,1.8,0.9,2.7c0,0.8,0.9,6.7,0.9,6.7s3.5,5.9-0.9,5.9
	c-4.4,0-5.9-1.5-6.1-3.1s0.2-2-0.7-2.6c-0.9-0.6-1.3-0.7-1.1-1.5c0.2-0.8,0.7-5.2,0.7-5.2s0.2-3.3,1.4-2.4l1.2,0.9"/>
<path class="st7" d="M948.8,254c0,0-0.4-2.1-3.9-1.4c0,0-0.9,1.8-0.9,2.7c0,0.8-0.9,6.7-0.9,6.7s-3.5,5.9,0.9,5.9s5.9-1.5,6.1-3.1
	s-0.2-2,0.7-2.6c0.9-0.6,1.3-0.7,1.1-1.5c-0.2-0.8-0.6-5.2-0.6-5.2s-0.2-3.3-1.4-2.4l-1.2,0.9"/>
<circle class="st8" cx="955.1" cy="146.6" r="5.9"/>
<path class="st8" d="M950.4,147.5c0,0-2.4,9.4-2.8,9.6c-0.5,0.2,10,1.1,10,1.1s-2.6-8.1,0-9.4L950.4,147.5z"/>
<path class="st9" d="M948.8,153.2L948.8,153.2l-7.2,5l1.3,39c0,0,9.6-1.1,11.8-0.9c2.2,0.2,9.1-2,9.1-2l-3.1-36.6
	c-0.1-1.5-1.3-2.6-2.8-2.8l-1.3-0.1c0,0-1.3,3.2-5.2,1.6C950.1,155.8,949.1,154.6,948.8,153.2z"/>
<path class="st10" d="M949,152.8l-8.9,4.2l-1.8,25.1c0,0-3.5,15-0.7,19.4c2.8,4.3,7.6,4.8,7.6,4.8s6.3-25.1,4.6-33.5
	S949,152.8,949,152.8z"/>
<path class="st8" d="M932.3,190.6v3.3c0,0-1.3,7.2,2.8,7c4.1-0.2,2.2-7.8,2.2-7.8l-1.3-2.4L932.3,190.6z"/>
<path class="st8" d="M970.6,197.1l-0.4,3.7c0,0,2.2,7.4-2,7.6c-4.1,0.2-1.1-7.6-1.1-7.6l1.4-4.2L970.6,197.1z"/>
<path class="st10" d="M956.6,154.1L956.6,154.1c4,1,7.7,2.9,10.7,5.6l0,0l-3.1,16.1l-0.4,5.9c0,0,8.1,28.8-1.3,24.6
	c0,0-8.1-25.1-7-36.6C956.7,158.1,956.6,154.1,956.6,154.1z"/>
<path class="st10" d="M964.5,159.4c0.2-0.2,2.8,0.3,2.8,0.3s4.8,16.9,4.8,19.7c0,2.8,0.7,18.9,0.7,18.9l-5.8,0.6l-4.7-22.4
	L964.5,159.4z"/>
<path class="st10" d="M941.6,157h-1.5c0,0-4.4,1.8-4.6,3.7s-6.1,21.8-6.1,21.8l1.5,10l5.7-0.9l1.1-11.1l5.7-12.2L941.6,157z"/>
<path class="st11" d="M954,148.2l0.2-1.6c0.1-0.4,0.3-0.8,0.6-0.8c0.3,0.1,1,0.3,1.1,0.3c0.4-0.3,1,0.2,1.5,0
	c0.2-0.1,0.3-0.3,0.5-0.4c0.2,0,0.3,0.1,0.4,0.2c0.3,0.2,0.6,0.4,1,0.5c0.4,0.1,0.8,0,1-0.3c0.1-0.1,0.1-0.1,0.2-0.2
	c0.1,0,0.2,0,0.3,0l1.1,0.3c0.3-1.2,0.1-2.5-0.6-3.5c-0.5-0.6-1-1.2-1.6-1.6c-0.7-0.5-1.4-1-2.1-1.5c-0.8-0.5-1.7-0.9-2.6-1.1
	c-0.9-0.2-2,0.1-2.6,0.8c-0.3-0.2-0.5-0.5-0.6-0.8c-0.2,0.2-0.3,0.6,0,0.9c0,0,0.1,0.1,0.1,0.1l-0.9-0.6c-0.2,0.2,0.3,0.8,0,1.1
	c-0.1,0.1-0.2,0.1-0.2,0.2c-0.5,0.2-1,0.5-1.4,0.9c-0.5,0.6-0.9,1.3-1.1,2c-0.6,1.6-1,3.5-0.2,5c0.1,0.2,1.3,3,1.5,3.1
	c0.5,0.4,0.2-0.5,0.6,0c0.3,0.4,0.2-1.2,0.7-0.8c0.4,0.2,0.8,0.3,1.2,0.1c0.2-0.1,0.1-0.8,0-1.5c-0.1-0.4,0.2-0.8,0.6-0.9
	c0.1,0,0.2,0,0.3,0C953.4,148.2,954,148.3,954,148.2z"/>
<polygon class="st12" points="965.1,179.1 967.5,199 965.9,199 "/>
<polygon class="st12" points="939.8,171.5 938.6,179.1 940.9,171.5 940.2,171.5 "/>
</svg>
