<?xml version="1.0" encoding="utf-8"?>
<!-- Generator: Adobe Illustrator 22.0.1, SVG Export Plug-In . SVG Version: 6.00 Build 0)  -->
<svg version="1.1" id="Layer_1" xmlns="http://www.w3.org/2000/svg" xmlns:xlink="http://www.w3.org/1999/xlink" x="0px" y="0px"
	 viewBox="0 0 1300 400" style="enable-background:new 0 0 1300 400;" xml:space="preserve">
<style type="text/css">
	.st0{fill:url(#SVGID_1_);stroke:#000000;stroke-width:1.6452;stroke-miterlimit:10;}
	.st1{fill:#3F3D56;}
	.st2{fill:#0D8CD8;}
	.st3{fill:#D0CDE1;}
	.st4{fill:#FFB8B8;}
	.st5{fill:#2F2E41;}
	.st6{fill:#575A89;}
	.st7{opacity:0.2;enable-background:new    ;}
</style>
<linearGradient id="SVGID_1_" gradientUnits="userSpaceOnUse" x1="-9.094947e-13" y1="200" x2="55.225" y2="200" gradientTransform="matrix(-23.5401 0 0 1 1300 0)">
	<stop  offset="0" style="stop-color:#007194"/>
	<stop  offset="1" style="stop-color:#41C1C9"/>
</linearGradient>
<rect class="st0" width="1300" height="400"/>
<polygon class="st1" points="330.3,203.5 298.5,87.2 99.1,145.5 130.9,261.8 "/>
<ellipse class="st2" cx="295" cy="92.1" rx="1.7" ry="1.7"/>
<ellipse class="st2" cx="289.9" cy="93.6" rx="1.7" ry="1.7"/>
<ellipse class="st2" cx="284.9" cy="95" rx="1.7" ry="1.7"/>
<path class="st2" d="M192.7,161c2.7-0.5,5.4-0.5,8.1,0.2c-0.8-2.7-1-5.6-0.6-8.4c2.7,1,5.2,2.7,7.2,4.8c0.6-2.9,1.9-5.7,3.7-8
	c1.8,2.2,3,4.7,3.8,7.5c1.9-2,4.2-3.5,6.8-4.5c0,0,1.2,6.3-1.7,11.5c-2.6,4.6-7.5,6.8-8.6,7.2l0,0l0,0c-0.1,0-0.2,0.1-0.2,0.1
	s0-0.1-0.1-0.3c0,0,0,0-0.1-0.1v0.1c0.1,0.2,0.1,0.3,0.1,0.3s-0.1,0-0.2,0l0,0l0,0c-1.1,0.2-6.4,1.1-11-1.5
	C194.9,167,192.7,161,192.7,161z"/>
<ellipse class="st2" cx="202.6" cy="140.4" rx="4.3" ry="4.4"/>
<polygon class="st2" points="277.7,160.3 148.7,198.1 149.5,201 278.5,163.2 "/>
<polygon class="st2" points="269.5,178.3 247.3,184.8 253.6,207.8 275.8,201.3 "/>
<polygon class="st2" points="228.2,190.4 206,196.9 212.3,219.9 234.5,213.4 "/>
<polygon class="st2" points="186.9,202.5 164.7,209 171,232 193.2,225.5 "/>
<polygon class="st2" points="274.2,206.8 257.7,211.6 258.2,213.6 274.8,208.7 "/>
<polygon class="st2" points="232.9,218.8 216.4,223.7 216.9,225.6 233.5,220.8 "/>
<polygon class="st2" points="191.6,230.9 175.1,235.7 175.6,237.7 192.2,232.9 "/>
<ellipse class="st3" cx="358.2" cy="244.3" rx="110.5" ry="4.2"/>
<ellipse class="st3" cx="161.9" cy="292.2" rx="86" ry="4.2"/>
<path class="st1" d="M204.1,259.4h-24.8v10.7h14.4v10.7h-14.4v10.7h24.8V259.4z M174.3,259.4h-24.8v9.3h14.4v1.9h-14.4V292h24.8
	v-9.8h-14.4v-1.9h14.4V259.4L174.3,259.4z M144.5,259.4h-24.8v9.3h14.4v1.9h-14.4V292h24.8v-9.8h-14.4v-1.9h14.4V259.4L144.5,259.4z
	"/>
<path class="st1" d="M420.9,210.3h-10.2v10.5h-9.4v-10.5H391V242h10.2v-10.6h9.4V242h10.2L420.9,210.3L420.9,210.3z M377.6,220.8h9
	v-10.5h-28.3v10.5h9V242h10.2L377.6,220.8L377.6,220.8L377.6,220.8z M353.8,210.3h-10.7l-6.6,11.1l-6.6-11.1h-10.7V242h10.2v-15.7
	l7,11.3h0.2l7-11.3V242h10v-31.7H353.8z M314.3,210.3h-10.2v21.2h-14.4V242h24.6L314.3,210.3L314.3,210.3z"/>
<polygon class="st4" points="438.9,232.1 439.8,241.9 433.1,241.3 433.1,232.9 "/>
<polygon class="st4" points="445.1,232.1 444.3,241.9 451,241.3 451,232.9 "/>
<path class="st5" d="M427.5,156.5c0,0-2.2,13.9-2.2,15.9s0.8,15.1,2.2,17.7c1.4,2.6,1.7,3.8,1.1,4.9c-0.6,1.2-0.3,0.9,0,1.7
	s0.8,0.6,0,1.7c-0.7,1-0.7,2.4,0,3.5c0.6,0.9-1.1,24.3,1.1,26.1c2.2,1.7,2.8,7.5,2.8,7.5l7.3-0.9v-6.4c0,0,1.7-4.6,0.6-7.5
	c-1.1-2.9-1.7-18.2-1.7-18.2s0.3-1.4,0-2.3c-0.3-0.9,0-1.4,0.6-1.7s0.8-1.4,0.8-1.4l0.8-21.1l3.4,20.9c0,0-3.4,28.4,0,32.1v6.7h7.3
	l-1.1-7.2c0,0,2.2-6.7,1.1-8.1s3.4-24.6,2.8-25.5c-0.6-0.9-0.3-1.2,0-1.7c0.3-0.6,1.1-1.2,0.8-1.7s0-1.7,0-1.7s5.3-27.2,2.8-29.8
	C455.4,157.1,427.5,156.5,427.5,156.5z"/>
<path class="st5" d="M438.1,238.1c0,0-0.6-2.8-5-1.8c0,0-1.1,2.4-1.1,3.6c0,1.2-1.1,9-1.1,9s-4.5,7.8,1.1,7.8s7.6-2,7.8-4.1
	c0.3-2-0.3-2.6,0.8-3.5s1.7-0.9,1.4-2c-0.3-1.2-0.8-7-0.8-7s-0.3-4.3-1.8-3.2l-1.5,1.2"/>
<path class="st5" d="M445.9,238.1c0,0,0.6-2.8,5-1.8c0,0,1.1,2.4,1.1,3.6c0,1.2,1.1,9,1.1,9s4.5,7.8-1.1,7.8s-7.6-2-7.8-4.1
	c-0.3-2,0.3-2.6-0.8-3.5s-1.7-0.9-1.4-2c0.3-1.2,0.8-7,0.8-7s0.3-4.3,1.8-3.2l1.5,1.2"/>
<ellipse class="st4" cx="437.8" cy="95.4" rx="7.6" ry="7.8"/>
<path class="st4" d="M444,96.5c0,0,3.1,12.5,3.6,12.7c0.6,0.3-12.9,1.4-12.9,1.4s3.4-10.7,0-12.5L444,96.5z"/>
<path class="st3" d="M445.9,104.1L445.9,104.1l9.2,6.6l-1.7,51.8c0,0-12.3-1.4-15.1-1.2c-2.8,0.3-11.8-2.6-11.8-2.6l3.9-48.7
	c0.2-2,1.7-3.5,3.6-3.7l1.7-0.1c0,0,1.7,4.3,6.7,2.1C444.3,107.6,445.5,106,445.9,104.1z"/>
<path class="st6" d="M445.7,103.6l11.4,5.6l2.2,33.3c0,0,4.5,20,0.8,25.8c-3.6,5.8-9.8,6.4-9.8,6.4s-8.1-33.3-5.9-44.6
	S445.7,103.6,445.7,103.6z"/>
<path class="st4" d="M467.2,153.9v4.3c0,0,1.7,9.6-3.6,9.3s-2.8-10.4-2.8-10.4l1.7-3.2L467.2,153.9z"/>
<path class="st4" d="M417.9,162.6l0.6,4.9c0,0-2.8,9.8,2.5,10.1s1.5-10.1,1.5-10.1l-1.7-5.6L417.9,162.6z"/>
<path class="st6" d="M436,105.3L436,105.3c-5.1,1.3-9.8,3.8-13.8,7.4l0,0l3.9,21.4l0.6,7.8c0,0-10.4,38.2,1.7,32.7
	c0,0,10.4-33.3,9-48.7C435.9,110.7,436,105.3,436,105.3z"/>
<path class="st6" d="M425.8,112.5c-0.3-0.3-3.6,0.4-3.6,0.4s-6.2,22.5-6.2,26.2c0,3.8-0.8,25.2-0.8,25.2l7.4,0.8l6-29.8L425.8,112.5
	z"/>
<path class="st6" d="M455.2,109.3h2c0,0,5.6,2.3,5.9,4.9c0.3,2.6,7.8,29,7.8,29l-2,13.3l-7.3-1.2l-1.4-14.8l-7.3-16.2L455.2,109.3z"
	/>
<path class="st5" d="M439.3,97.5l-0.3-2.1c-0.1-0.5-0.3-1.1-0.8-1c-0.4,0.1-1.2,0.5-1.4,0.4c-0.5-0.4-1.3,0.3-1.9-0.1
	c-0.2-0.1-0.4-0.5-0.7-0.5c-0.2,0-0.4,0.1-0.5,0.2c-0.4,0.3-0.8,0.6-1.3,0.7s-1,0-1.3-0.4c-0.1-0.1-0.1-0.2-0.2-0.2
	c-0.1,0-0.2,0-0.3,0l-1.4,0.4c-0.4-1.6-0.2-3.3,0.7-4.7c0.6-0.8,1.3-1.5,2.1-2.1c0.9-0.7,1.8-1.4,2.7-2c1-0.7,2.1-1.2,3.3-1.5
	c1.2-0.2,2.6,0.1,3.3,1.1c0.4-0.3,0.6-0.6,0.8-1.1c0.3,0.3,0.3,0.8,0.1,1.1l-0.1,0.1l1.2-0.8c0.3,0.4-0.3,1,0,1.5
	c0.1,0.1,0.2,0.2,0.3,0.2c0.7,0.3,1.3,0.7,1.8,1.2c0.7,0.8,1.1,1.7,1.4,2.7c0.7,2.1,1.2,4.6,0.2,6.6c-0.1,0.2-1.6,4-1.9,4.1
	c-0.7,0.5-0.2-0.7-0.7,0c-0.4,0.5-0.3-1.6-0.9-1.1c-0.5,0.3-1.1,0.4-1.6,0.1c-0.2-0.2-0.2-1.1,0-2c0.1-0.6-0.3-1.1-0.8-1.2
	c-0.1,0-0.3,0-0.4,0C440,97.5,439.3,97.6,439.3,97.5z"/>
<polygon class="st7" points="425.1,138.7 422,165 424,165 "/>
<polygon class="st7" points="457.5,128.5 459.1,138.7 456.1,128.5 457,128.5 "/>
</svg>
