<?xml version="1.0" encoding="utf-8"?>
<!-- Generator: Adobe Illustrator 22.0.1, SVG Export Plug-In . SVG Version: 6.00 Build 0)  -->
<svg version="1.1" id="Layer_1" xmlns="http://www.w3.org/2000/svg" xmlns:xlink="http://www.w3.org/1999/xlink" x="0px" y="0px"
	 viewBox="0 0 1300 400" style="enable-background:new 0 0 1300 400;" xml:space="preserve">
<style type="text/css">
	.st0{fill:url(#SVGID_1_);stroke:#000000;stroke-width:1.6452;stroke-miterlimit:10;}
	.st1{opacity:0.1;fill:#0D8CD8;enable-background:new    ;}
	.st2{fill:#6FB5D8;}
	.st3{fill:#9393AA;}
	.st4{fill:#D1D1D3;}
	.st5{opacity:0.1;enable-background:new    ;}
	.st6{fill:#727272;}
	.st7{fill:#BEBEBF;}
	.st8{fill:#FBB3B2;}
	.st9{fill:#525254;}
	.st10{fill:#6E6E70;}
	.st11{fill:#B6B6B7;}
	.st12{fill:#323444;}
	.st13{fill:#81808E;}
	.st14{fill:#3C354C;}
	.st15{fill:#4E4E4F;}
	.st16{fill:#A8A8A8;}
	.st17{opacity:0.2;enable-background:new    ;}
</style>
<linearGradient id="SVGID_1_" gradientUnits="userSpaceOnUse" x1="650" y1="200" x2="1950" y2="200" gradientTransform="matrix(-1 0 0 -1 1950 400)">
	<stop  offset="0" style="stop-color:#00354D"/>
	<stop  offset="0.4129" style="stop-color:#00364F"/>
	<stop  offset="0.5616" style="stop-color:#003C56"/>
	<stop  offset="0.6676" style="stop-color:#004561"/>
	<stop  offset="0.7534" style="stop-color:#005272"/>
	<stop  offset="0.8268" style="stop-color:#006388"/>
	<stop  offset="0.8918" style="stop-color:#0078A4"/>
	<stop  offset="0.9492" style="stop-color:#0091C3"/>
	<stop  offset="1" style="stop-color:#00ACE6"/>
	<stop  offset="1" style="stop-color:#0093C7"/>
	<stop  offset="1" style="stop-color:#0075A3"/>
	<stop  offset="1" style="stop-color:#005B83"/>
	<stop  offset="1" style="stop-color:#004567"/>
	<stop  offset="1" style="stop-color:#003351"/>
	<stop  offset="1" style="stop-color:#002540"/>
	<stop  offset="1" style="stop-color:#001B35"/>
	<stop  offset="1" style="stop-color:#00162E"/>
	<stop  offset="1" style="stop-color:#00142C"/>
</linearGradient>
<rect x="0" y="0" class="st0" width="1300" height="400"/>
<path class="st1" d="M1048.8,138.3h17.3c1,0,1.8,0.8,1.8,1.8v2.7c0,1-0.8,1.8-1.8,1.8h-17.3c-1,0-1.8-0.8-1.8-1.8v-2.7
	C1047,139.1,1047.8,138.3,1048.8,138.3z"/>
<path class="st1" d="M1070.7,144.7h17.3c1,0,1.8,0.8,1.8,1.8v2.7c0,1-0.8,1.8-1.8,1.8h-17.3c-1,0-1.8-0.8-1.8-1.8v-2.7
	C1068.9,145.5,1069.7,144.7,1070.7,144.7z"/>
<path class="st1" d="M1092.6,151h17.3c1,0,1.8,0.8,1.8,1.8v2.7c0,1-0.8,1.8-1.8,1.8h-17.3c-1,0-1.8-0.8-1.8-1.8v-2.7
	C1090.8,151.8,1091.6,151,1092.6,151z"/>
<path class="st1" d="M1048.8,128.8h17.3c1,0,1.8,0.8,1.8,1.8v2.7c0,1-0.8,1.8-1.8,1.8h-17.3c-1,0-1.8-0.8-1.8-1.8v-2.7
	C1047,129.6,1047.8,128.8,1048.8,128.8z"/>
<path class="st1" d="M1070.7,135.2h17.3c1,0,1.8,0.8,1.8,1.8v2.7c0,1-0.8,1.8-1.8,1.8h-17.3c-1,0-1.8-0.8-1.8-1.8V137
	C1068.9,136,1069.7,135.2,1070.7,135.2z"/>
<path class="st1" d="M1092.6,141.5h17.3c1,0,1.8,0.8,1.8,1.8v2.7c0,1-0.8,1.8-1.8,1.8h-17.3c-1,0-1.8-0.8-1.8-1.8v-2.7
	C1090.8,142.3,1091.6,141.5,1092.6,141.5z"/>
<path class="st1" d="M1117,138.3h17.3c1,0,1.8,0.8,1.8,1.8v2.7c0,1-0.8,1.8-1.8,1.8H1117c-1,0-1.8-0.8-1.8-1.8v-2.7
	C1115.2,139.1,1116,138.3,1117,138.3z"/>
<path class="st1" d="M1138.9,144.7h17.3c1,0,1.8,0.8,1.8,1.8v2.7c0,1-0.8,1.8-1.8,1.8h-17.3c-1,0-1.8-0.8-1.8-1.8v-2.7
	C1137.1,145.5,1137.9,144.7,1138.9,144.7z"/>
<path class="st1" d="M1160.8,151h17.3c1,0,1.8,0.8,1.8,1.8v2.7c0,1-0.8,1.8-1.8,1.8h-17.3c-1,0-1.8-0.8-1.8-1.8v-2.7
	C1159,151.8,1159.8,151,1160.8,151z"/>
<path class="st1" d="M1117,128.8h17.3c1,0,1.8,0.8,1.8,1.8v2.7c0,1-0.8,1.8-1.8,1.8H1117c-1,0-1.8-0.8-1.8-1.8v-2.7
	C1115.2,129.6,1116,128.8,1117,128.8z"/>
<path class="st1" d="M1138.9,135.2h17.3c1,0,1.8,0.8,1.8,1.8v2.7c0,1-0.8,1.8-1.8,1.8h-17.3c-1,0-1.8-0.8-1.8-1.8V137
	C1137.1,136,1137.9,135.2,1138.9,135.2z"/>
<path class="st1" d="M1160.8,141.5h17.3c1,0,1.8,0.8,1.8,1.8v2.7c0,1-0.8,1.8-1.8,1.8h-17.3c-1,0-1.8-0.8-1.8-1.8v-2.7
	C1159,142.3,1159.8,141.5,1160.8,141.5z"/>
<path class="st1" d="M1048.8,116.2h17.3c1,0,1.8,0.8,1.8,1.8v2.7c0,1-0.8,1.8-1.8,1.8h-17.3c-1,0-1.8-0.8-1.8-1.8V118
	C1047,117,1047.8,116.2,1048.8,116.2z"/>
<path class="st1" d="M1070.7,122.5h17.3c1,0,1.8,0.8,1.8,1.8v2.7c0,1-0.8,1.8-1.8,1.8h-17.3c-1,0-1.8-0.8-1.8-1.8v-2.7
	C1068.9,123.3,1069.7,122.5,1070.7,122.5z"/>
<path class="st1" d="M1092.6,128.8h17.3c1,0,1.8,0.8,1.8,1.8v2.7c0,1-0.8,1.8-1.8,1.8h-17.3c-1,0-1.8-0.8-1.8-1.8v-2.7
	C1090.8,129.6,1091.6,128.8,1092.6,128.8z"/>
<path class="st1" d="M1048.8,106.7h17.3c1,0,1.8,0.8,1.8,1.8v2.7c0,1-0.8,1.8-1.8,1.8h-17.3c-1,0-1.8-0.8-1.8-1.8v-2.7
	C1047,107.5,1047.8,106.7,1048.8,106.7z"/>
<path class="st1" d="M1070.7,113h17.3c1,0,1.8,0.8,1.8,1.8v2.7c0,1-0.8,1.8-1.8,1.8h-17.3c-1,0-1.8-0.8-1.8-1.8v-2.7
	C1068.9,113.8,1069.7,113,1070.7,113z"/>
<path class="st1" d="M1092.6,119.3h17.3c1,0,1.8,0.8,1.8,1.8v2.7c0,1-0.8,1.8-1.8,1.8h-17.3c-1,0-1.8-0.8-1.8-1.8v-2.7
	C1090.8,120.1,1091.6,119.3,1092.6,119.3z"/>
<path class="st1" d="M1117,116.2h17.3c1,0,1.8,0.8,1.8,1.8v2.7c0,1-0.8,1.8-1.8,1.8H1117c-1,0-1.8-0.8-1.8-1.8V118
	C1115.2,117,1116,116.2,1117,116.2z"/>
<path class="st1" d="M1138.9,122.5h17.3c1,0,1.8,0.8,1.8,1.8v2.7c0,1-0.8,1.8-1.8,1.8h-17.3c-1,0-1.8-0.8-1.8-1.8v-2.7
	C1137.1,123.3,1137.9,122.5,1138.9,122.5z"/>
<path class="st1" d="M1160.8,128.8h17.3c1,0,1.8,0.8,1.8,1.8v2.7c0,1-0.8,1.8-1.8,1.8h-17.3c-1,0-1.8-0.8-1.8-1.8v-2.7
	C1159,129.6,1159.8,128.8,1160.8,128.8z"/>
<path class="st1" d="M1117,106.7h17.3c1,0,1.8,0.8,1.8,1.8v2.7c0,1-0.8,1.8-1.8,1.8H1117c-1,0-1.8-0.8-1.8-1.8v-2.7
	C1115.2,107.5,1116,106.7,1117,106.7z"/>
<path class="st1" d="M1138.9,113h17.3c1,0,1.8,0.8,1.8,1.8v2.7c0,1-0.8,1.8-1.8,1.8h-17.3c-1,0-1.8-0.8-1.8-1.8v-2.7
	C1137.1,113.8,1137.9,113,1138.9,113z"/>
<path class="st1" d="M1160.8,119.3h17.3c1,0,1.8,0.8,1.8,1.8v2.7c0,1-0.8,1.8-1.8,1.8h-17.3c-1,0-1.8-0.8-1.8-1.8v-2.7
	C1159,120.1,1159.8,119.3,1160.8,119.3z"/>
<path class="st1" d="M1048.8,251.1h17.3c1,0,1.8,0.8,1.8,1.8v2.7c0,1-0.8,1.8-1.8,1.8h-17.3c-1,0-1.8-0.8-1.8-1.8v-2.7
	C1047,251.9,1047.8,251.1,1048.8,251.1z"/>
<path class="st1" d="M1070.7,257.5h17.3c1,0,1.8,0.8,1.8,1.8v2.7c0,1-0.8,1.8-1.8,1.8h-17.3c-1,0-1.8-0.8-1.8-1.8v-2.7
	C1068.9,258.3,1069.7,257.5,1070.7,257.5z"/>
<path class="st1" d="M1092.6,263.8h17.3c1,0,1.8,0.8,1.8,1.8v2.7c0,1-0.8,1.8-1.8,1.8h-17.3c-1,0-1.8-0.8-1.8-1.8v-2.7
	C1090.8,264.6,1091.6,263.8,1092.6,263.8z"/>
<path class="st1" d="M1048.8,241.6h17.3c1,0,1.8,0.8,1.8,1.8v2.7c0,1-0.8,1.8-1.8,1.8h-17.3c-1,0-1.8-0.8-1.8-1.8v-2.7
	C1047,242.4,1047.8,241.6,1048.8,241.6z"/>
<path class="st1" d="M1070.7,248h17.3c1,0,1.8,0.8,1.8,1.8v2.7c0,1-0.8,1.8-1.8,1.8h-17.3c-1,0-1.8-0.8-1.8-1.8v-2.7
	C1068.9,248.8,1069.7,248,1070.7,248z"/>
<path class="st1" d="M1092.6,254.3h17.3c1,0,1.8,0.8,1.8,1.8v2.7c0,1-0.8,1.8-1.8,1.8h-17.3c-1,0-1.8-0.8-1.8-1.8v-2.7
	C1090.8,255.1,1091.6,254.3,1092.6,254.3z"/>
<path class="st1" d="M1117,251.1h17.3c1,0,1.8,0.8,1.8,1.8v2.7c0,1-0.8,1.8-1.8,1.8H1117c-1,0-1.8-0.8-1.8-1.8v-2.7
	C1115.2,251.9,1116,251.1,1117,251.1z"/>
<path class="st1" d="M1138.9,257.5h17.3c1,0,1.8,0.8,1.8,1.8v2.7c0,1-0.8,1.8-1.8,1.8h-17.3c-1,0-1.8-0.8-1.8-1.8v-2.7
	C1137.1,258.3,1137.9,257.5,1138.9,257.5z"/>
<path class="st1" d="M1160.8,263.8h17.3c1,0,1.8,0.8,1.8,1.8v2.7c0,1-0.8,1.8-1.8,1.8h-17.3c-1,0-1.8-0.8-1.8-1.8v-2.7
	C1159,264.6,1159.8,263.8,1160.8,263.8z"/>
<path class="st1" d="M1117,241.6h17.3c1,0,1.8,0.8,1.8,1.8v2.7c0,1-0.8,1.8-1.8,1.8H1117c-1,0-1.8-0.8-1.8-1.8v-2.7
	C1115.2,242.4,1116,241.6,1117,241.6z"/>
<path class="st1" d="M1138.9,248h17.3c1,0,1.8,0.8,1.8,1.8v2.7c0,1-0.8,1.8-1.8,1.8h-17.3c-1,0-1.8-0.8-1.8-1.8v-2.7
	C1137.1,248.8,1137.9,248,1138.9,248z"/>
<path class="st1" d="M1160.8,254.3h17.3c1,0,1.8,0.8,1.8,1.8v2.7c0,1-0.8,1.8-1.8,1.8h-17.3c-1,0-1.8-0.8-1.8-1.8v-2.7
	C1159,255.1,1159.8,254.3,1160.8,254.3z"/>
<path class="st1" d="M1048.8,229h17.3c1,0,1.8,0.8,1.8,1.8v2.7c0,1-0.8,1.8-1.8,1.8h-17.3c-1,0-1.8-0.8-1.8-1.8v-2.7
	C1047,229.8,1047.8,229,1048.8,229z"/>
<path class="st1" d="M1070.7,235.3h17.3c1,0,1.8,0.8,1.8,1.8v2.7c0,1-0.8,1.8-1.8,1.8h-17.3c-1,0-1.8-0.8-1.8-1.8v-2.7
	C1068.9,236.1,1069.7,235.3,1070.7,235.3z"/>
<path class="st1" d="M1092.6,241.6h17.3c1,0,1.8,0.8,1.8,1.8v2.7c0,1-0.8,1.8-1.8,1.8h-17.3c-1,0-1.8-0.8-1.8-1.8v-2.7
	C1090.8,242.4,1091.6,241.6,1092.6,241.6z"/>
<path class="st1" d="M1048.8,219.5h17.3c1,0,1.8,0.8,1.8,1.8v2.7c0,1-0.8,1.8-1.8,1.8h-17.3c-1,0-1.8-0.8-1.8-1.8v-2.7
	C1047,220.3,1047.8,219.5,1048.8,219.5z"/>
<path class="st1" d="M1070.7,225.8h17.3c1,0,1.8,0.8,1.8,1.8v2.7c0,1-0.8,1.8-1.8,1.8h-17.3c-1,0-1.8-0.8-1.8-1.8v-2.7
	C1068.9,226.6,1069.7,225.8,1070.7,225.8z"/>
<path class="st1" d="M1092.6,232.1h17.3c1,0,1.8,0.8,1.8,1.8v2.7c0,1-0.8,1.8-1.8,1.8h-17.3c-1,0-1.8-0.8-1.8-1.8v-2.7
	C1090.8,232.9,1091.6,232.1,1092.6,232.1z"/>
<path class="st1" d="M1117,229h17.3c1,0,1.8,0.8,1.8,1.8v2.7c0,1-0.8,1.8-1.8,1.8H1117c-1,0-1.8-0.8-1.8-1.8v-2.7
	C1115.2,229.8,1116,229,1117,229z"/>
<path class="st1" d="M1138.9,235.3h17.3c1,0,1.8,0.8,1.8,1.8v2.7c0,1-0.8,1.8-1.8,1.8h-17.3c-1,0-1.8-0.8-1.8-1.8v-2.7
	C1137.1,236.1,1137.9,235.3,1138.9,235.3z"/>
<path class="st1" d="M1160.8,241.6h17.3c1,0,1.8,0.8,1.8,1.8v2.7c0,1-0.8,1.8-1.8,1.8h-17.3c-1,0-1.8-0.8-1.8-1.8v-2.7
	C1159,242.4,1159.8,241.6,1160.8,241.6z"/>
<path class="st1" d="M1117,219.5h17.3c1,0,1.8,0.8,1.8,1.8v2.7c0,1-0.8,1.8-1.8,1.8H1117c-1,0-1.8-0.8-1.8-1.8v-2.7
	C1115.2,220.3,1116,219.5,1117,219.5z"/>
<path class="st1" d="M1138.9,225.8h17.3c1,0,1.8,0.8,1.8,1.8v2.7c0,1-0.8,1.8-1.8,1.8h-17.3c-1,0-1.8-0.8-1.8-1.8v-2.7
	C1137.1,226.6,1137.9,225.8,1138.9,225.8z"/>
<path class="st1" d="M1160.8,232.1h17.3c1,0,1.8,0.8,1.8,1.8v2.7c0,1-0.8,1.8-1.8,1.8h-17.3c-1,0-1.8-0.8-1.8-1.8v-2.7
	C1159,232.9,1159.8,232.1,1160.8,232.1z"/>
<ellipse class="st1" cx="1117.2" cy="282.6" rx="106.8" ry="8.8"/>
<path class="st2" d="M1020.4,152.2c10.1,4.4,15.9,13.4,15.9,13.4s-10.5,1.9-20.6-2.4c-10.1-4.4-15.9-13.4-15.9-13.4
	S1010.3,147.8,1020.4,152.2z"/>
<path class="st2" d="M1051.3,135.4c3.1-5.1,8.4-7.6,8.4-7.6s0.2,5.8-2.9,10.9c-3.1,5.1-8.4,7.5-8.4,7.5S1048.2,140.5,1051.3,135.4z"
	/>
<path class="st3" d="M1028.4,140.9c2.2,8,8.4,13.2,8.4,13.2s2.5-7.7,0.3-15.6c-2.2-7.9-8.4-13.2-8.4-13.2S1026.1,132.9,1028.4,140.9
	z"/>
<path class="st4" d="M1030.5,140.5h174.1c1,0,1.8,0.8,1.8,1.8v85.4c0,1-0.8,1.8-1.8,1.8h-174.1c-1,0-1.8-0.8-1.8-1.8v-85.4
	C1028.7,141.3,1029.5,140.5,1030.5,140.5z"/>
<path class="st5" d="M1028.7,224.1h177.6l0,0v3.6c0,1-0.8,1.8-1.8,1.8l0,0h-174.1c-1,0-1.8-0.8-1.8-1.8V224.1L1028.7,224.1z"/>
<path class="st6" d="M1046.6,217.5h11.9c0.3,0,0.6,0.3,0.6,0.6v5.4c0,0.3-0.3,0.6-0.6,0.6h-11.9c-0.3,0-0.6-0.3-0.6-0.6v-5.4
	C1046,217.8,1046.3,217.5,1046.6,217.5z"/>
<path class="st6" d="M1063.3,223.1h8c0.3,0,0.5,0.2,0.5,0.5l0,0c0,0.3-0.2,0.5-0.5,0.5h-8c-0.3,0-0.5-0.2-0.5-0.5l0,0
	C1062.8,223.3,1063,223.1,1063.3,223.1z"/>
<path class="st6" d="M1054.8,157.9c6.4,1.2,13,0,19.4-0.8l19.5-2.4c0.8-0.1,1.9-0.6,2.4,0.4c0.3,0.5,0.1,1.7,0.1,2.3
	c0,1.7,0,3.4,0,5.1c-0.1,3.3-0.3,6.5-0.6,9.7c-0.6,6.4-1.4,12.7-1.9,19c-0.2,3.2-0.3,6.5-0.2,9.7c0,0.8,0,1.6,0.1,2.3
	c0,0.9,0.4,2.1-0.5,2.7c-0.5,0.3-1.6,0.3-2.2,0.4c-1,0.1-1.9,0.3-2.9,0.4c-6.6,0.7-13.2,0.4-19.8,0.3l-19.9-0.1l-4.8,0
	c-0.4,0-2,0.3-2.3-0.3c-0.1-0.2,0.2-1.3,0.2-1.5c0.1-0.5,0.1-0.9,0.2-1.4c0.6-3.2,1.2-6.4,1.9-9.6c1.4-6.8,2.9-13.7,3.5-20.6
	c0.3-3.5,0.1-7,0.5-10.5c0.2-1.6,0.4-5.2,2.5-5.4c1.8-0.1,3.7,0,5.5,0c0.2,0,0.4-0.2,0.4-0.4c0-0.2-0.2-0.4-0.4-0.4
	c-1.7,0-3.5,0-5.2,0c-1.1,0-1.9,0.3-2.5,1.3c-1.4,2.7-1.3,6.3-1.3,9.3c-0.1,7.1-1.2,14-2.6,21c-0.7,3.5-1.5,7-2.2,10.5
	c-0.3,1.7-0.7,3.3-0.9,5c-0.1,0.8-0.8,2.6-0.2,3.3s2.5,0.3,3.3,0.3l5.8,0l11.1,0.1c7.2,0,14.4,0.2,21.6,0c3.4-0.1,7.1-0.2,10.4-1.1
	c1-0.2,1.5-0.7,1.5-1.8c0-1.7-0.2-3.3-0.2-5c-0.2-14.2,3.1-28.1,2.7-42.3c0-1,0.3-3.4-0.7-4c-0.5-0.3-1.1-0.1-1.6,0
	c-1,0.1-1.9,0.2-2.9,0.4l-12.3,1.5c-3.9,0.5-7.9,1-11.8,1.5c-4.2,0.5-8.4,0.8-12.6,0C1054.5,157.1,1054.3,157.8,1054.8,157.9
	L1054.8,157.9z"/>
<path class="st6" d="M1047,166.5l48.7-2.4c0.5,0,0.5-0.8,0-0.7l-48.7,2.4C1046.6,165.8,1046.6,166.6,1047,166.5z"/>
<path class="st6" d="M1062,160.5c-0.5,0.5-0.4,1.3,0,1.7c0.1,0.1,0.2,0.2,0.4,0.2c0.7,0.3,1.4,0,2.1-0.1c1-0.2,1.9-0.5,2.9-0.6
	c2.2-0.4,4.4-0.6,6.6-0.6c1,0,2,0,3,0.1c0.7,0,1.5,0.1,2.1-0.4c0.7-0.5,0.9-1.5,0.2-2.1c-1-0.9-3.1-0.4-4.2-0.3
	c-4.1,0.3-8.1,1-12.2,1.8c-0.5,0.1-0.3,0.8,0.2,0.7c2.6-0.6,5.3-1,8-1.4c1.3-0.2,2.6-0.3,4-0.4c0.6,0,1.2-0.1,1.9-0.1
	c0.2,0,0.5,0,0.8,0c0.8,0,0.9-0.1,0.4,0.8c-0.4,0.8-0.3,0.7-1,0.7c-0.3,0-0.6,0-0.9,0c-0.6,0-1.2,0-1.9,0c-1.3,0-2.6,0.1-3.9,0.2
	c-1.1,0.1-2.2,0.3-3.3,0.5c-0.7,0.1-1.4,0.3-2,0.4c-0.3,0.1-0.6,0.1-0.9,0.2c-0.1,0-0.3,0.1-0.4,0.1c-0.5,0.2-1,0-1.4-0.7
	C1062.9,160.7,1062.4,160.2,1062,160.5L1062,160.5z"/>
<path class="st6" d="M1070.9,170.9c-3.5-0.1-7.3,0.8-9.6,3.7c-1.8,2.2-2.8,6-0.9,8.5c2.1,2.7,6.6,2.2,9.3,1.1
	c2.9-1.2,6.1-3.7,6.9-6.9c1.1-3.9-2.4-6.9-6.1-6.9c-0.5,0-0.5,0.7,0,0.7c2.1,0,4.1,0.9,5.1,2.9c1,2,0.1,4.2-1.2,5.8
	c-2.2,2.6-5.6,4.6-9.1,4.5c-2.1,0-4.4-0.8-5-2.9c-0.5-1.8-0.1-3.7,0.8-5.3c2-3.4,6.1-4.6,9.8-4.4
	C1071.4,171.7,1071.4,170.9,1070.9,170.9L1070.9,170.9z"/>
<path class="st6" d="M1067.4,176.3c-0.5-0.2-1,0.1-1.2,0.6c0,0.1-0.1,0.3,0,0.4c0.1,1,1.1,1.2,1.9,1.2c0.7,0,1.5-0.3,1.2-1.2
	c-0.1-0.3-0.3-0.6-0.6-0.7c-0.2-0.1-0.5-0.1-0.7-0.1c-0.1,0-0.9,0.3-0.6,0l-0.6-0.1c0.1,0.1,0.2,0.3,0.2,0.5c0,0.2,0.2,0.4,0.4,0.4
	c0.1,0,0.1,0,0.2,0c0.2-0.1,0.5,0,0.6,0.3c0,0.1,0,0.2,0,0.3c0,0.2,0.1,0.4,0.3,0.4c0.1,0,0.3,0,0.4-0.2c0.2-0.4,0.5-1.3,0.2-1.8
	c-0.2-0.3-0.7-0.2-1,0c-0.2,0.1-0.3,0.3-0.5,0.4c-0.3,0.3-0.5,0.4-0.4-0.1c0.2-0.9,1-1.6,1.9-2l-0.5-0.4c-0.3,1-0.8,2-1.5,2.9
	l0.6,0.3c0-0.7,0.4-1.3,1-1.6h-0.4l0.2,0.3c-0.1,0.5,0.6,0.7,0.7,0.2c0.1-0.6-0.3-1.4-1-1.1c-0.9,0.3-1.3,1.3-1.3,2.2
	c0,0.3,0.4,0.5,0.6,0.3c0.8-1,1.3-2,1.7-3.2c0-0.2-0.1-0.4-0.3-0.4c-0.1,0-0.2,0-0.3,0c-0.7,0.3-1.3,0.9-1.8,1.5
	c-0.3,0.5-0.7,1.2-0.4,1.8c0.2,0.4,0.7,0.5,1,0.3l0,0c0.2-0.1,0.4-0.3,0.6-0.5c0.1-0.1,0.2-0.2,0.3-0.2c0.1-0.1,0.1,0,0,0.1
	c0,0.2-0.1,0.5-0.2,0.7l0.7,0.3c0.2-0.7-0.2-1.3-0.9-1.5c-0.3-0.1-0.6,0-0.9,0.1l0.6,0.3c0-0.3-0.1-0.6-0.3-0.9
	c-0.1-0.2-0.3-0.2-0.5-0.1c0,0,0,0-0.1,0c-0.4,0.4-0.4,1,0,1.4c0.3,0.3,0.5,0,0.9,0c1.3-0.2,0.5,0.4,0.1,0.4c-0.2,0-0.4,0-0.6,0
	c-0.5-0.2-0.5-0.4-0.1-0.7C1067.6,177.2,1067.8,176.5,1067.4,176.3L1067.4,176.3z"/>
<path class="st6" d="M1066.8,177.7c0.3,1-1,1.3-1.5,1.6c-0.4,0.2-0.8,0.5-1,0.9c-0.6,0.8-0.9,1.9-1,2.9c-0.1,0.5,0.6,0.7,0.7,0.2
	c0.1-0.7,0.3-1.4,0.6-2.1c0.4-0.9,1.1-1.2,1.9-1.6c0.8-0.4,1.4-1.1,1.1-2.1C1067.3,177,1066.6,177.2,1066.8,177.7L1066.8,177.7z"/>
<path class="st6" d="M1068,177.2c-0.4,0-0.6,0.4-0.6,0.7c0,0.3,0.2,0.5,0.3,0.7c0.3,0.5,0.6,1,0.7,1.5c0.1,0.5,0.2,1.5,0,1.9
	c-0.5,0.9-1.4,0.7-2.2,0.7c-0.7,0-1.3,0.2-1.3-0.8c0-0.6,0.4-1.1,0.7-1.6l-0.7-0.1c0.1,0.8,0.2,1.5,0.2,2.3c0,0.3,0.5,0.5,0.7,0.2
	c0.4-0.8,0.7-1.7,0.9-2.6l-0.7-0.1l0.1,1.9c0,0.2,0.2,0.4,0.4,0.4c0.1,0,0.2-0.1,0.3-0.2c0.1-0.1,0.1-0.2,0.2-0.3
	c0-0.1-0.2-0.9-0.3-0.6l0.7,0.1l0-1.8l-0.7,0.1c0.1,0.5,0.2,1,0.1,1.5c0,0.4,0.6,0.5,0.7,0.1l0.5-2.4l-0.7,0.1
	c0.2,0.3,0.2,0.7,0.1,1c0,0.5,0.7,0.5,0.7,0c0.1-0.5,0-1-0.2-1.4c-0.1-0.2-0.3-0.2-0.5-0.1c-0.1,0-0.1,0.1-0.2,0.2l-0.5,2.4l0.7,0.1
	c0.1-0.6,0-1.2-0.2-1.7c0-0.2-0.3-0.3-0.5-0.2c-0.1,0-0.3,0.2-0.3,0.3l0,1.8c0,0.4,0.6,0.5,0.7,0.1l0-0.1c0-0.1,0-0.3-0.1-0.4
	c-0.8-0.8-0.9,0.5-1.2,0.9l0.7,0.2l-0.1-1.9c0-0.4-0.6-0.5-0.7-0.1c-0.2,0.8-0.5,1.6-0.9,2.4l0.7,0.2c0-0.8-0.1-1.6-0.2-2.5
	c-0.1-0.3-0.5-0.3-0.7-0.1c-0.5,0.7-1.3,2.2-0.7,3.1c0.6,0.7,2.4,0.4,3.1,0.4c1.2-0.1,1.6-0.8,1.8-2c0.1-0.5,0-1.1-0.1-1.6
	c-0.1-0.3-0.7-2.1-0.9-2.1C1068.6,177.8,1068.5,177.1,1068,177.2L1068,177.2z"/>
<path class="st6" d="M1066.6,178.8l-2,2.6l0.6,0.4l1.5-2.1l-0.7-0.3l-0.7,2.8c0,0.2,0.1,0.4,0.3,0.4c0.1,0,0.3,0,0.4-0.2
	c0.3-0.6,0.7-1.1,1.1-1.6l-0.6-0.4c-0.2,0.6-0.5,1.2-0.9,1.7l0.6,0.4c0-0.3,0.1-0.7,0.3-1c0.2-0.4-0.4-0.8-0.6-0.4
	c-0.2,0.4-0.4,0.8-0.7,1.1l0.7,0.1l0.1-0.7l-0.7-0.1l0.1,0.6c0,0.2,0.3,0.3,0.5,0.2c0,0,0.1,0,0.1-0.1c0.6-0.6,1.1-1.4,1.5-2.2h-0.6
	c0.2,0.3,0.3,0.6,0.3,1c0.1,0.4,0.7,0.3,0.7-0.1c0.1-0.8,0.1-1.6,0.2-2.5h-0.7v1.5c0,0.4,0.7,0.5,0.7,0.1c0-0.4,0.2-0.7,0.4-1h-0.6
	c0.1,0.2,0.2,0.5,0.2,0.8c0,0.2,0.2,0.4,0.4,0.4c0.2,0,0.4-0.2,0.4-0.4l0.1-0.5h-0.7c0.1,0.4,0.3,2.9-0.6,2.6c-0.2,0-0.2,0-0.1,0
	l0.2-0.5l0.5-1.1l-0.7-0.2c0,0.5,0.1,1.2-0.2,1.7c-0.2,0.3-1,0.5-1.4,0.3c-0.2-0.2-0.5-0.4-0.6-0.7l-0.5,0.5c0.4,0.3,1.1,1,1.6,1.1
	c0.4,0,0.7-0.3,1-0.6c0.8-0.8,1.2-2,1.2-3.1c0-0.2-0.2-0.4-0.4-0.4s-0.4,0.2-0.4,0.4v0.8c0,0.2,0.2,0.4,0.4,0.4s0.4-0.2,0.4-0.4v-2
	c0-0.2-0.2-0.4-0.4-0.4s-0.4,0.2-0.4,0.4c0,0.5,0,1-0.1,1.5l0.7,0.1c0-0.6-0.1-1.2-0.1-1.8c0-0.2-0.2-0.4-0.4-0.4
	c-0.2,0-0.3,0.1-0.3,0.3c-0.1,0.5-0.2,0.9-0.4,1.4l0.7-0.1l0-0.2c0-0.5-0.8-0.5-0.7,0c0,0.2,0,0.4,0.1,0.6c0.1,0.3,0.6,0.2,0.7-0.1
	c0.1-0.5,0.3-0.9,0.4-1.4l-0.7-0.1c0,0.6,0,1.2,0.1,1.8c0,0.4,0.6,0.5,0.7,0.1c0.1-0.6,0.1-1.1,0.1-1.7h-0.7v2h0.7v-0.8h-0.7
	c0,0.9-0.3,1.8-0.9,2.5c-0.1,0.1-0.2,0.2-0.3,0.3c-0.2,0.2-0.3,0.1-0.5-0.1c-0.3-0.1-0.7-0.5-1-0.7c-0.3-0.2-0.7,0.2-0.5,0.5
	c0.6,0.8,1.4,1.6,2.4,1.2c1.1-0.4,1.2-1.9,1.2-2.9c0-0.3-0.5-0.5-0.7-0.2c-0.2,0.5-0.5,1-0.7,1.5c-0.1,0.2-0.2,0.4-0.2,0.6
	c0.1,0.5,0.8,0.5,1.1,0.4c1.6-0.1,1.3-2.4,1.1-3.5c0-0.4-0.6-0.3-0.7,0c-0.1,0.2-0.1,0.5-0.1,0.7h0.7c0-0.4-0.1-0.8-0.3-1.2
	c-0.1-0.2-0.3-0.2-0.5-0.1c0,0-0.1,0.1-0.1,0.1c-0.2,0.4-0.4,0.8-0.4,1.2l0.7,0.1v-1.5c0-0.2-0.2-0.4-0.4-0.4
	c-0.2,0-0.4,0.2-0.4,0.4c0,0.8,0,1.7-0.2,2.5l0.7-0.1c-0.1-0.4-0.2-0.8-0.4-1.1c-0.1-0.2-0.3-0.2-0.5-0.1c0,0-0.1,0.1-0.1,0.1
	c-0.3,0.8-0.8,1.5-1.3,2l0.6,0.2l-0.1-0.6c0-0.3-0.5-0.3-0.7-0.1c-0.2,0.4-0.3,0.8-0.2,1.3c0,0.3,0.5,0.3,0.7,0.1
	c0.3-0.3,0.5-0.7,0.7-1.1l-0.6-0.4c-0.2,0.4-0.3,0.8-0.3,1.1c0,0.3,0.3,0.7,0.6,0.4c0.5-0.6,0.9-1.3,1.1-2c0.1-0.3-0.4-0.6-0.6-0.4
	c-0.4,0.5-0.9,1.1-1.2,1.7l0.7,0.3l0.7-2.8c0-0.2-0.1-0.4-0.3-0.4c-0.1,0-0.3,0-0.4,0.2l-1.5,2.1c-0.3,0.4,0.4,0.7,0.6,0.4l2-2.6
	C1067.5,178.8,1066.9,178.4,1066.6,178.8L1066.6,178.8z"/>
<path class="st6" d="M1097.7,187.6c2.9-1.8,5.2-4.5,7.8-6.7c2.8-2.4,5.7-4.7,8.8-6.8c5.9-4.1,12.1-7.8,18.2-11.5
	c0.2-0.1,0.2-0.3,0.1-0.5c-0.1-0.2-0.3-0.2-0.5-0.1c-6.2,3.7-12.4,7.4-18.2,11.5c-2.8,1.9-5.5,4-8.1,6.2c-2.8,2.4-5.3,5.4-8.5,7.3
	C1096.9,187.2,1097.2,187.8,1097.7,187.6L1097.7,187.6z"/>
<path class="st6" d="M1141.9,151.2c-3.2,0.3-6.6,1.1-8.5,3.9c-1.7,2.4-1.7,6.5-0.1,9c1.8,2.8,5.5,2.9,8.3,2c2.8-0.9,5.8-2.5,5.8-5.9
	c0-1.8-0.7-3.7-1.4-5.4c-0.6-1.4-1.8-2.7-3.4-2.5c-0.5,0-0.5,0.8,0,0.7c2.3-0.2,3,2.5,3.5,4.2c0.5,1.6,0.9,3.5,0.2,5
	c-0.8,1.6-2.6,2.4-4.2,2.9c-1.7,0.6-3.6,1-5.4,0.5c-3.5-1-4.5-5.5-3.5-8.6c1.2-3.7,5.3-4.7,8.7-5.1
	C1142.4,151.9,1142.4,151.2,1141.9,151.2L1141.9,151.2z"/>
<path class="st6" d="M1146.8,179.5c-3.2,0.3-6.6,1.1-8.5,3.9c-1.7,2.4-1.7,6.5-0.1,9c1.8,2.8,5.5,2.9,8.3,2c2.8-0.9,5.8-2.5,5.8-5.9
	c0-1.8-0.7-3.7-1.4-5.4c-0.6-1.4-1.8-2.7-3.4-2.5c-0.5,0-0.5,0.8,0,0.7c2.3-0.2,3,2.5,3.5,4.2c0.5,1.6,0.9,3.5,0.2,5
	c-0.8,1.6-2.6,2.4-4.2,2.9c-1.7,0.6-3.6,1-5.4,0.5c-3.5-1-4.5-5.5-3.5-8.6c1.2-3.7,5.3-4.7,8.7-5.1
	C1147.3,180.2,1147.3,179.4,1146.8,179.5L1146.8,179.5z"/>
<path class="st6" d="M1137.1,158.3l2.3,2.6c0.1,0.1,0.4,0.1,0.5,0c0,0,0.1-0.1,0.1-0.1c0.5-1.3,0.4-2.6,0.5-3.9c0.1-1.4,0.5-2.8,1-4
	c1.1-2.6,3-4.8,5.5-6.2c0.4-0.2,0-0.9-0.4-0.6c-2.4,1.4-4.3,3.5-5.5,6.1c-0.6,1.2-1,2.5-1.2,3.9c-0.2,1.6,0,3.2-0.6,4.8l0.6-0.2
	l-2.3-2.6C1137.3,157.5,1136.8,158,1137.1,158.3L1137.1,158.3z"/>
<path class="st6" d="M1098.8,190.4c12.6-0.4,25.1-0.5,37.7-0.2c0.5,0,0.5-0.7,0-0.7c-12.6-0.2-25.1-0.1-37.7,0.2
	C1098.3,189.7,1098.3,190.5,1098.8,190.4z"/>
<path class="st6" d="M1139.1,183.2c4.3,1.7,8.4,3.8,12.4,6.2c0.4,0.2,0.8-0.4,0.4-0.6c-4-2.5-8.2-4.6-12.5-6.3
	C1138.9,182.4,1138.7,183.1,1139.1,183.2L1139.1,183.2z"/>
<path class="st6" d="M1147,179.9c-4.4,5.1-6.9,11.5-7.2,18.1c0,0.5,0.7,0.5,0.7,0c0.3-6.5,2.7-12.7,6.9-17.6
	C1147.8,180.1,1147.3,179.6,1147,179.9L1147,179.9z"/>
<path class="st6" d="M1049.5,187.8l27.2-0.4l3.1,0c0.6,0,1.1,0,1.7,0c0.8,0,1.3,0.7,1.3,1.5c0,1.7-1.1,1.7-2.5,1.7l-3.4,0.1
	l-13.8,0.6c-2.5,0.1-4.9,0.2-7.4,0.3c-2.2,0.1-6.5-0.7-5.5-3.9c0.1-0.5-0.6-0.6-0.7-0.2c-0.5,1.6,0.4,3.2,1.8,4
	c2,1.2,4.6,0.8,6.7,0.7l16.9-0.8l4.1-0.2c1,0,2.5,0.2,3.5-0.3c1.1-0.6,1.3-2.9,0.6-3.8c-0.4-0.5-0.9-0.5-1.5-0.6c-1.5,0-3,0-4.6,0
	l-8.4,0.1l-19.3,0.2C1049,187.1,1049,187.8,1049.5,187.8L1049.5,187.8z"/>
<g id="b30eccf6-7cfe-48df-9caa-415a128bd568">
	<path class="st7" d="M1159.5,277.3c-0.6,0.4-1.3,0.6-1.9,1s-1.2,0.9-1.4,1.6c-0.1,0.2,0,0.5,0,0.7c0.1,0.2,0.4,0.4,0.7,0.5
		c2.6,1.1,5.6,1.2,8.2,0.1c0.5-0.2,0.9-0.4,1.4-0.6c0.6-0.1,1.2-0.2,1.8-0.2c0.6,0,1.3-0.1,1.9-0.2c0.3,0,0.6-0.2,0.9-0.4
		c0.2-0.3,0.4-0.6,0.4-0.9c0.3-1.9-0.1-3.8-1.2-5.4c-0.1-0.2-0.3-0.4-0.5-0.6c-0.3-0.1-0.6-0.2-0.9-0.2c-1.2-0.1-2.5-0.4-3.7-0.4
		c-0.9,0-1.3,0.4-1.9,1C1161.9,274.4,1161.1,276.3,1159.5,277.3z"/>
	<path class="st7" d="M1177.5,277.1c0,1.2,0.1,2.5,0.9,3.4c0.3,0.4,0.7,0.8,1.2,1c1.5,1,3.6,1.3,5.2,0.5c0.3-0.1,0.5-0.3,0.6-0.5
		c0.2-0.4,0.1-1,0-1.4l-2.3-8.1c-1.5,0.2-3.7,0.4-5.1,1.2C1176.9,273.8,1177.5,276.1,1177.5,277.1z"/>
	<path class="st8" d="M1158.2,227.3c-0.1,0.4-0.7,0.7-0.9,1c-0.3,0.4-0.3,1-0.2,1.6c0.1,0.8,0.5,1.5,1.1,2.1
		c0.6,0.6,1.4,0.9,2.2,0.8c0.8-0.1,1.5-0.9,1.5-1.6c0-0.4-0.1-0.7-0.2-1l-1.7-4.8c0-0.1,0-0.1-0.1-0.2c-0.1,0-0.1,0-0.2,0
		c-0.4,0.2-1.2,0.4-1.4,0.8C1158,226.4,1158.3,226.9,1158.2,227.3z"/>
	<path class="st9" d="M1157.4,227.1c0.6-0.1,1.1-0.4,1.7-0.7s1.3-0.3,1.8,0.1c0.1,0.1,0.3,0.3,0.4,0.3c-0.2-1.2-0.6-2.4-1.1-3.5
		c0,0,0-0.1-0.1-0.1c-0.1,0-0.1,0-0.2,0l-1.6,0.4c-0.6,0.2-0.7,0.1-0.6,0.7C1157.6,224.5,1157.8,227.1,1157.4,227.1z"/>
	<path class="st10" d="M1157.2,192.4c-0.2,0.4-0.2,0.9-0.2,1.3c0,2.2,0,4.3,0.3,6.5c0.1,0.5,0.2,1,0.2,1.5c0,0.7,0.1,1.4,0,2.2
		l-0.2,9.4c0,1.1-0.1,2.4-0.8,3.3c-0.2,0.3-0.3,0.7-0.3,1c0.2,2.4,0.6,4.7,1,7c1.3-0.6,2.7-0.5,3.9,0.2c1.2-3.9,1.9-7.9,2-11.9
		c0-2,0-4,0.3-6c0.5-3.3,0.3-6.7-0.1-10.1c-0.1-1-0.4-2.1-1-3c-0.6-0.7-1.5-1.2-2.4-1.4C1158.9,192.2,1158.1,192.4,1157.2,192.4z"/>
	<path class="st11" d="M1160.2,219.6c-1.6,8.4-0.7,17.1,2.6,24.9c0.3,0.6,0.5,1.2,0.6,1.9c0.1,1.2-0.4,2.3-0.7,3.5
		c-0.7,2.6-0.3,5.4,0.2,8.1c0.2,1.1,0.4,2.2,0.6,3.4c0.2,1.1,0.4,2.3-0.1,3.3c0.4,1.8,0.7,3.6,1.1,5.4c0,0.1,0,0.3,0,0.4
		c-0.1,0.2-0.2,0.4-0.4,0.6c-0.7,0.7-0.9,1.6-0.7,2.6c1.1-0.8,2.7-0.5,3.9,0c1.3,0.5,2.5,1.2,3.9,1.2c-0.2-1.6-0.4-3.3,0.2-4.8
		c0.3-0.9,1-1.7,0.9-2.6c0-0.9-0.5-1.6-0.7-2.4c0-0.5,0-1,0-1.6c0.3-3,0-6-0.4-9c0-0.6-0.2-1.2-0.4-1.7c-0.2-0.3-0.4-0.7-0.4-1.1
		c0-0.5,0.4-0.8,0.5-1.3c0.2-0.8-0.2-1.9,0.5-2.4c1.8-1.3,1.1-4.4,1-6.6c0-1.9-0.1-3.8-0.2-5.7c1.1,3.1,1.6,6.5,1.3,9.8
		c-0.1,1.1-0.2,2.2,0.2,3.2c0.3,0.8,1,1.4,1.1,2.2c0.1,0.5,0,1,0,1.5c0,0.5,0.2,1.1,0.7,1.3c0,2.3,0.2,4.9,0.3,7.2
		c0,1.2,0.1,2.4,0.3,3.6c0.1,0.4,0.2,0.8,0.2,1.1c0,0.5-0.2,1-0.4,1.4c-0.9,2.6-0.4,5.4,1.2,7.5c0.6-1,1.8-1.6,2.9-1.7
		c1.2-0.1,2.3,0.2,3.5,0.5c-0.2-1.4,0.1-2.9,0.8-4.1c0.2-0.3,0.3-0.6,0.4-0.9c0.1-0.6-0.2-1.2-0.3-1.9c-0.3-1-0.2-2-0.1-3
		c0.2-3.4,0.1-6.8-0.4-10.2c-0.1-0.7-0.2-1.3-0.5-1.9c-0.1-0.2-0.2-0.4-0.3-0.7c-0.1-0.4-0.2-0.8-0.2-1.2l-0.3-3.9
		c-0.2-2.7,0.7-5.4,1.3-8.1c0.3-1.2,0.6-2.4,0.8-3.6c0.2-1.7,0.3-3.3,0.7-5c0.3-1.5,0.9-2.9,1.1-4.4c0.2-2.3-0.8-4.6-1.7-6.7
		c-0.4-0.9-1.9-0.8-2.8-0.9c-6.7-1.1-13.8-1.1-20.1,1.4C1161.3,218.7,1160.7,219.1,1160.2,219.6z"/>
	<path class="st8" d="M1165,176.4l0.8,2.9c0.2,0.7,0.3,1.4,0.3,2c0,0.2,0,0.5-0.2,0.7c-0.1,0.2-0.3,0.3-0.5,0.5
		c-0.5,0.4-0.9,1.3-1.4,1.6c0.3,0.5,0.7,0.2,1.3,0.4c1,0.5,1.8,1.1,2.9,1.4c1,0.2,2,0,3-0.2c1.4-0.4,2.7-0.9,3.8-1.8
		c1.1-0.9,1.7-1.7,1.7-3.1c-1.2,0.1-2.3-1.1-2.8-2.2c-0.2-0.4-0.3-0.9-0.4-1.3l-0.7-2.9c-0.7,0.1-1.3,0.7-2,0.9
		c-0.7,0.3-1.5,0.3-2.2,0.3c-1.3,0.1-2.7,0.2-4,0.5c-0.2,0-0.4,0.1-0.4,0.3"/>
	<path class="st5" d="M1165,176.4l0.8,2.9c0.2,0.7,0.3,1.4,0.3,2c0,0.2,0,0.5-0.2,0.7c-0.1,0.2-0.3,0.3-0.5,0.5
		c-0.5,0.4-0.9,1.3-1.4,1.6c0.3,0.5,0.7,0.2,1.3,0.4c1,0.5,1.8,1.1,2.9,1.4c1,0.2,2,0,3-0.2c1.4-0.4,2.7-0.9,3.8-1.8
		c1.1-0.9,1.7-1.7,1.7-3.1c-1.2,0.1-2.3-1.1-2.8-2.2c-0.2-0.4-0.3-0.9-0.4-1.3l-0.7-2.9c-0.7,0.1-1.3,0.7-2,0.9
		c-0.7,0.3-1.5,0.3-2.2,0.3c-1.3,0.1-2.7,0.2-4,0.5c-0.2,0-0.4,0.1-0.4,0.3"/>
	<circle class="st8" cx="1168.2" cy="171.5" r="6.5"/>
	<path class="st12" d="M1170,182.1c0.3-0.8,0.9-1.4,1.5-1.9c0.9-0.8,2.1-1.4,2.4-2.6l2,2.3c0.1,0.1,0.2,0.2,0.2,0.4
		c0,0.3,0,0.5-0.2,0.8c-0.5,0.8-1.3,1.3-2,1.9c-1.7,1.3-3.3,2.7-4.8,4.2c-0.1,0.1-0.1,0.1-0.2,0.1c-0.1,0-0.2,0-0.3-0.1
		c-1.3-0.7-2.5-1.6-3.4-2.8c-0.1-0.1-0.2-0.2-0.3-0.2c-0.1,0-0.1,0-0.2,0.1c-0.7,0.5-1.4,1.2-2.2,1.1c1.1-0.8,1.7-2.1,1.9-3.4
		c0-0.5,0.1-0.9,0.3-1.3c0.1-0.4,0.5-0.8,0.9-0.9c-0.5,0.8-0.2,1.9,0.5,2.6c0.7,0.6,1.5,1,2.4,1.2
		C1169.5,183.7,1169.7,182.8,1170,182.1z"/>
	<path class="st9" d="M1161.6,220.3c0.9,0.2,1.8,0.6,2.7,0.9c1.6,0.5,3.3,0.7,5,0.5c0.5,0,1-0.2,1.5-0.5c0.1-0.1,0.2-0.2,0.3-0.3
		c0.2-0.1,0.4-0.2,0.7-0.3c2.2-0.7,4.1-2.2,5.9-3.7c0,0,0.1-0.1,0.1-0.2c0,0,0-0.1-0.1-0.1l-1-1.1c-2.5,0.4-5.1,0.3-7.6,0.2
		c-0.5,0-1,0-1.6,0c-0.5,0-1,0.2-1.5,0.3c-1.9,0.4-3.8,0.6-5.7,0.8c-0.1,0-0.3,0-0.4,0.1c-0.1,0.1-0.1,0.1-0.2,0.2l-0.7,0.9
		c-0.3,0.3-0.4,0.7-0.6,1.1c-0.1,0.7,0.2,1,0.8,0.9C1160.1,220,1160.9,220.1,1161.6,220.3z"/>
	<path class="st13" d="M1169.1,186c-0.8-0.8-1.6-1.4-2.5-1.9c-0.4-0.2-0.8-0.4-1.2-0.5c-0.4-0.1-0.9,0-1.2,0.3
		c-0.2,0.2-0.4,0.5-0.6,0.7c-0.3,0.2-0.6,0.4-0.9,0.5c-1.1,0.5-2.2,1.1-3.1,1.8c-0.5,0.4-1,0.8-1.4,1.3c-1.1,1.4-1.3,3.3-1.2,5.1
		c0,1.2,1.2,2.2,2,3.1c0.8,0.9,1.5,1.9,2.1,2.9c0.4,0.7,0.9,1.5,0.9,2.3c0,0.7-0.4,1.3-0.4,2c0,0.2,0.1,0.5,0.1,0.7
		c0,0.5-0.1,1-0.2,1.5c-0.1,0.7,0.2,1.4,0.2,2.1c0,0.5-0.1,0.9-0.2,1.4c-0.5,2.2-1,4.5-0.9,6.7l-1.3,0.2c0.4,0.4,0.5,1.2,0,1.6
		c-0.1,0.1-0.2,0.1-0.3,0.2c2.1,0.7,4.4,0.3,6.6,0.3c1.9,0,3.7,0.2,5.5,0.2c1.8,0,3.8-0.4,5.3-1.4c0.4-0.3,0.8-0.6,1.2-0.9
		c0.6-0.3,1.2-0.5,1.9-0.6c1.2-0.2,2.4-0.3,3.7-0.3c0.6,0,1.2,0,1.7-0.3c0.5-0.4,0.7-1.1,0.7-1.8c0.1-0.7,0.1-1.4,0.1-2.1
		c0-0.5,0-1.1-0.1-1.6c-0.1-0.4-0.2-0.8-0.3-1.2l-0.9-3.2c-0.4-1.3,0.1-2.8,0.3-4.2c0-0.3,0-0.7-0.2-0.9c-0.1-0.1-0.2-0.1-0.2-0.2
		c0-0.1,0-0.2,0-0.3c0.5-1,1.2-1.8,1.9-2.7c1.1-1.5,2.2-3.1,3.1-4.8c-0.3-3.5-1.8-6.7-4.1-9.2c-0.5-0.5-1-1-1.7-1.3
		c-0.4-0.1-0.9-0.2-1.4-0.2c-1.9-0.1-3.9-0.2-5.6-1.2c-0.1-0.1-0.2-0.1-0.4-0.2c-0.4,0-0.6,0.3-0.9,0.6c-0.6,0.7-1.5,1.1-2.3,1.7
		C1171.3,183.2,1170.2,184.6,1169.1,186z"/>
	<path class="st10" d="M1189.3,193c0.4,1.2,0.3,2.5,0.5,3.8c0.1,0.8,0.2,1.5,0.4,2.2c0.1,0.4,0.2,0.8,0.5,1.1
		c0.2,0.3,0.5,0.6,0.7,0.9c0.1,0.2,0.1,0.5,0.1,0.8l0,1.7c0.1,0.9-0.1,1.8-0.4,2.6l-1,3.2c-0.6,1.7-1.1,3.5-2.2,5
		c-0.1,0.2-0.4,0.5-0.6,0.6c-0.2,0-0.4,0.1-0.6,0.1c-0.8,0.1-1.3,0.8-1.3,1.6c-0.2-0.4-0.5-0.7-0.9-0.9l-2.1-1.7
		c-0.7-0.6-1.5-1.2-2.4-1.5c2.4-0.8,4.2-2.9,4.5-5.4c0-0.4,0.1-0.7,0.2-1.1c0.2-0.3,0.5-0.5,0.5-0.9c0-0.4-0.5-0.8-0.5-1.2
		c0-0.3,0.2-0.5,0.3-0.8c0.1-0.3,0.1-0.7,0-1l-0.3-1.6c0-0.2-0.1-0.3-0.1-0.5c-0.1-0.1-0.2-0.3-0.4-0.4c-0.5-0.6-0.3-1.5,0-2.2
		c0.7-1.6,1.5-3,2.5-4.4c0.4-0.5,0.7-0.9,1-1.4c0.3-0.4,0.3-1.1,0.6-1.5C1188.5,191.1,1189,192,1189.3,193z"/>
	<path class="st9" d="M1179.7,212.5c-0.1,0.1-0.2,0.2-0.3,0.3c-0.3,0.4-0.7,0.6-1.1,0.8c0.2,0.2,0.5,0.3,0.7,0.5
		c1.7,1.3,3.2,2.8,4.6,4.4c0.1-0.5,1.1-0.5,1.3-1c0-0.1,0.1-0.3,0-0.5c0-0.8-0.2-1.6-0.3-2.4c-0.1-0.4-0.2-0.8-0.5-1.1
		c-0.3-0.4-0.9-0.6-1.4-0.8C1182,212.4,1180.5,212,1179.7,212.5z"/>
	<path class="st8" d="M1176.7,214.4c-0.7,0.5-1.4,1.2-2.2,1.6c-0.6,0.3-1.2,0.4-1.8,0.8c0.3,0.6,1,0.9,1.7,0.9
		c0.7-0.1,1.3-0.3,1.9-0.7c0.4-0.3,1-0.6,1.4-0.4c0.1,0.4-0.2,0.7-0.2,1.1s0.3,0.7,0.6,0.9c1.5,1,3.3,0.9,5.1,0.8
		c0.1,0,0.2,0,0.3-0.1c0.1-0.1,0.1-0.2,0.1-0.3c0-0.4,0-0.8,0-1.1c0.1-0.6-0.2-1.3-0.7-1.6c-1-0.8-2-1.5-3-2.2
		C1178.8,213.3,1177.7,213.7,1176.7,214.4z"/>
	<path class="st14" d="M1170.5,168.8c-1.1,0.1-1.9,1-1.8,1.9s1.1,1.6,2.1,1.4c1.1-0.1,1.9-1,1.8-1.9S1171.6,168.7,1170.5,168.8z
		 M1170.9,171.9c-0.9,0.1-1.7-0.4-1.8-1.2c-0.1-0.8,0.6-1.5,1.5-1.6s1.7,0.4,1.8,1.2C1172.4,171,1171.8,171.8,1170.9,171.9
		L1170.9,171.9z"/>
	<path class="st14" d="M1165.2,169.5c-1.1,0.1-1.9,1-1.8,1.9c0.1,0.9,1.1,1.6,2.1,1.4c1.1-0.1,1.9-1,1.8-1.9
		C1167.2,169.9,1166.3,169.3,1165.2,169.5z M1165.6,172.5c-0.9,0.1-1.7-0.4-1.8-1.2c-0.1-0.8,0.6-1.5,1.5-1.6s1.7,0.4,1.8,1.2
		C1167.2,171.7,1166.5,172.4,1165.6,172.5L1165.6,172.5z"/>
	<polygon class="st14" points="1161.3,169.9 1163.6,170.4 1163.4,171 1161.2,170.4 	"/>
	<polygon class="st14" points="1174.4,168.4 1172.2,169.4 1172.6,169.9 1174.6,168.8 	"/>
	<polygon class="st14" points="1167.2,170.3 1168.8,170.1 1168.7,170.5 1167.3,170.6 	"/>
	<path class="st15" d="M1164,169.7c0.1-0.3,0.2-0.7,0.2-1.1c0-0.2,0-0.4,0.1-0.7c0.1-0.3,0.3-0.5,0.5-0.7c0.8-0.6,1.9-1,2.9-1
		c1.2,0,2.3,0.2,3.4,0.7c0.3,0.1,0.6,0.4,0.9,0.6c0.3,0.4,0.4,0.9,0.8,1.4c0.5,0.5,1.2,0.7,1.9,0.6c0.1-0.4,0-0.9,0-1.3
		c0.1-0.4,0.2-0.7,0.4-1.1c0.4-1.1-0.2-2.4-1.3-3.1c-0.4-0.2-0.9-0.4-1.2-0.7c-0.3-0.3-0.4-0.7-0.6-1c-0.5-0.9-1.9-1.3-3-0.9
		c-0.3,0.1-0.6,0.3-1,0.5c-0.6,0.3-1.4,0.3-2,0.4c-0.7,0.1-1.4,0.2-2,0.5c-0.6,0.3-1.1,0.8-1.2,1.3c-0.1,0.3,0,0.5-0.1,0.8
		c-0.3,1.3-2.5,2-2.6,3.3c0,0.5,0.2,1,0.6,1.3c0.2,0.3,0.8,1,1.2,1.1c0.4,0.1,0.7-0.3,1-0.4C1163.3,170.3,1163.7,170.2,1164,169.7z"
		/>
</g>
<path class="st3" d="M1191.4,255.5c0,12.2,7.7,22.1,17.2,22.1"/>
<path class="st2" d="M1208.6,277.7c0-12.4,8.6-22.4,19.2-22.4"/>
<path class="st2" d="M1197.7,256.6c0,11.6,4.9,21,10.9,21"/>
<path class="st3" d="M1208.6,277.7c0-15.8,9.9-28.6,22.1-28.6"/>
<ellipse class="st1" cx="1207.9" cy="281.2" rx="4.3" ry="0.7"/>
<path class="st16" d="M1205,277.8c0,0,2.4-0.1,3.2-0.6c0.7-0.5,3.8-1.1,3.9-0.3s3.7,4.2,0.9,4.2c-2.8,0-6.4-0.4-7.1-0.9
	C1205.1,279.8,1205,277.8,1205,277.8z"/>
<path class="st17" d="M1213,280.8c-2.8,0-6.4-0.4-7.1-0.9c-0.6-0.3-0.8-1.6-0.9-2.1h-0.1c0,0,0.1,2,0.9,2.4c0.7,0.4,4.4,0.9,7.1,0.9
	c0.8,0,1.1-0.3,1-0.7C1213.9,280.7,1213.7,280.8,1213,280.8z"/>
<path class="st3" d="M1005.2,262.7c0,9.7,6.1,17.6,13.7,17.6"/>
<path class="st2" d="M1018.9,280.3c0-9.8,6.8-17.8,15.2-17.8"/>
<path class="st2" d="M1010.2,263.6c0,9.3,3.9,16.7,8.7,16.7"/>
<path class="st3" d="M1018.9,280.3c0-12.6,7.9-22.8,17.6-22.8"/>
<ellipse class="st1" cx="1018.3" cy="283.1" rx="3.4" ry="0.6"/>
<path class="st16" d="M1016,280.4c0,0,1.9,0,2.5-0.5c0.6-0.4,3-0.9,3.1-0.2c0.1,0.7,2.9,3.3,0.7,3.3c-2.2,0-5.1-0.3-5.7-0.7
	C1016.2,282,1016,280.4,1016,280.4z"/>
<path class="st17" d="M1022.4,282.8c-2.2,0-5.1-0.3-5.7-0.7c-0.4-0.3-0.6-1.2-0.7-1.7h-0.1c0,0,0.1,1.6,0.7,1.9
	c0.6,0.4,3.5,0.7,5.7,0.7c0.6,0,0.9-0.2,0.8-0.6C1023.1,282.6,1022.9,282.8,1022.4,282.8z"/>
</svg>
