<?xml version="1.0" encoding="utf-8"?>
<!-- Generator: Adobe Illustrator 22.0.1, SVG Export Plug-In . SVG Version: 6.00 Build 0)  -->
<svg version="1.1" id="Layer_1" xmlns="http://www.w3.org/2000/svg" xmlns:xlink="http://www.w3.org/1999/xlink" x="0px" y="0px"
	 viewBox="0 0 1300 400" style="enable-background:new 0 0 1300 400;" xml:space="preserve">
<style type="text/css">
	.st0{fill:url(#SVGID_1_);stroke:#000000;stroke-width:1.6452;stroke-miterlimit:10;}
	.st1{opacity:0.1;fill:#0D8CD8;enable-background:new    ;}
	.st2{fill:#6FB5D8;}
	.st3{fill:#9393AA;}
	.st4{fill:#D1D1D3;}
	.st5{opacity:0.1;enable-background:new    ;}
	.st6{fill:#727272;}
	.st7{fill:#BEBEBF;}
	.st8{fill:#FBB3B2;}
	.st9{fill:#525254;}
	.st10{fill:#6E6E70;}
	.st11{fill:#B6B6B7;}
	.st12{fill:#323444;}
	.st13{fill:#81808E;}
	.st14{fill:#3C354C;}
	.st15{fill:#4E4E4F;}
	.st16{fill:#A8A8A8;}
	.st17{opacity:0.2;enable-background:new    ;}
</style>
<linearGradient id="SVGID_1_" gradientUnits="userSpaceOnUse" x1="2503.9607" y1="200" x2="2600" y2="200" gradientTransform="matrix(13.5361 0 0 1 -33893.957 0)">
	<stop  offset="0" style="stop-color:#00354D"/>
	<stop  offset="0.4129" style="stop-color:#00364F"/>
	<stop  offset="0.5616" style="stop-color:#003C56"/>
	<stop  offset="0.6676" style="stop-color:#004561"/>
	<stop  offset="0.7534" style="stop-color:#005272"/>
	<stop  offset="0.8268" style="stop-color:#006388"/>
	<stop  offset="0.8918" style="stop-color:#0078A4"/>
	<stop  offset="0.9492" style="stop-color:#0091C3"/>
	<stop  offset="1" style="stop-color:#00ACE6"/>
	<stop  offset="1" style="stop-color:#0093C7"/>
	<stop  offset="1" style="stop-color:#0075A3"/>
	<stop  offset="1" style="stop-color:#005B83"/>
	<stop  offset="1" style="stop-color:#004567"/>
	<stop  offset="1" style="stop-color:#003351"/>
	<stop  offset="1" style="stop-color:#002540"/>
	<stop  offset="1" style="stop-color:#001B35"/>
	<stop  offset="1" style="stop-color:#00162E"/>
	<stop  offset="1" style="stop-color:#00142C"/>
</linearGradient>
<rect class="st0" width="1300" height="400"/>
<path class="st1" d="M251.2,138.3h-17.3c-1,0-1.8,0.8-1.8,1.8v2.7c0,1,0.8,1.8,1.8,1.8h17.3c1,0,1.8-0.8,1.8-1.8v-2.7
	C253,139.1,252.2,138.3,251.2,138.3z"/>
<path class="st1" d="M229.3,144.7H212c-1,0-1.8,0.8-1.8,1.8v2.7c0,1,0.8,1.8,1.8,1.8h17.3c1,0,1.8-0.8,1.8-1.8v-2.7
	C231.1,145.5,230.3,144.7,229.3,144.7z"/>
<path class="st1" d="M207.4,151h-17.3c-1,0-1.8,0.8-1.8,1.8v2.7c0,1,0.8,1.8,1.8,1.8h17.3c1,0,1.8-0.8,1.8-1.8v-2.7
	C209.2,151.8,208.4,151,207.4,151z"/>
<path class="st1" d="M251.2,128.8h-17.3c-1,0-1.8,0.8-1.8,1.8v2.7c0,1,0.8,1.8,1.8,1.8h17.3c1,0,1.8-0.8,1.8-1.8v-2.7
	C253,129.6,252.2,128.8,251.2,128.8z"/>
<path class="st1" d="M229.3,135.2H212c-1,0-1.8,0.8-1.8,1.8v2.7c0,1,0.8,1.8,1.8,1.8h17.3c1,0,1.8-0.8,1.8-1.8V137
	C231.1,136,230.3,135.2,229.3,135.2z"/>
<path class="st1" d="M207.4,141.5h-17.3c-1,0-1.8,0.8-1.8,1.8v2.7c0,1,0.8,1.8,1.8,1.8h17.3c1,0,1.8-0.8,1.8-1.8v-2.7
	C209.2,142.3,208.4,141.5,207.4,141.5z"/>
<path class="st1" d="M183,138.3h-17.3c-1,0-1.8,0.8-1.8,1.8v2.7c0,1,0.8,1.8,1.8,1.8H183c1,0,1.8-0.8,1.8-1.8v-2.7
	C184.8,139.1,184,138.3,183,138.3z"/>
<path class="st1" d="M161.1,144.7h-17.3c-1,0-1.8,0.8-1.8,1.8v2.7c0,1,0.8,1.8,1.8,1.8h17.3c1,0,1.8-0.8,1.8-1.8v-2.7
	C162.9,145.5,162.1,144.7,161.1,144.7z"/>
<path class="st1" d="M139.2,151h-17.3c-1,0-1.8,0.8-1.8,1.8v2.7c0,1,0.8,1.8,1.8,1.8h17.3c1,0,1.8-0.8,1.8-1.8v-2.7
	C141,151.8,140.2,151,139.2,151z"/>
<path class="st1" d="M183,128.8h-17.3c-1,0-1.8,0.8-1.8,1.8v2.7c0,1,0.8,1.8,1.8,1.8H183c1,0,1.8-0.8,1.8-1.8v-2.7
	C184.8,129.6,184,128.8,183,128.8z"/>
<path class="st1" d="M161.1,135.2h-17.3c-1,0-1.8,0.8-1.8,1.8v2.7c0,1,0.8,1.8,1.8,1.8h17.3c1,0,1.8-0.8,1.8-1.8V137
	C162.9,136,162.1,135.2,161.1,135.2z"/>
<path class="st1" d="M139.2,141.5h-17.3c-1,0-1.8,0.8-1.8,1.8v2.7c0,1,0.8,1.8,1.8,1.8h17.3c1,0,1.8-0.8,1.8-1.8v-2.7
	C141,142.3,140.2,141.5,139.2,141.5z"/>
<path class="st1" d="M251.2,116.2h-17.3c-1,0-1.8,0.8-1.8,1.8v2.7c0,1,0.8,1.8,1.8,1.8h17.3c1,0,1.8-0.8,1.8-1.8V118
	C253,117,252.2,116.2,251.2,116.2z"/>
<path class="st1" d="M229.3,122.5H212c-1,0-1.8,0.8-1.8,1.8v2.7c0,1,0.8,1.8,1.8,1.8h17.3c1,0,1.8-0.8,1.8-1.8v-2.7
	C231.1,123.3,230.3,122.5,229.3,122.5z"/>
<path class="st1" d="M207.4,128.8h-17.3c-1,0-1.8,0.8-1.8,1.8v2.7c0,1,0.8,1.8,1.8,1.8h17.3c1,0,1.8-0.8,1.8-1.8v-2.7
	C209.2,129.6,208.4,128.8,207.4,128.8z"/>
<path class="st1" d="M251.2,106.7h-17.3c-1,0-1.8,0.8-1.8,1.8v2.7c0,1,0.8,1.8,1.8,1.8h17.3c1,0,1.8-0.8,1.8-1.8v-2.7
	C253,107.5,252.2,106.7,251.2,106.7z"/>
<path class="st1" d="M229.3,113H212c-1,0-1.8,0.8-1.8,1.8v2.7c0,1,0.8,1.8,1.8,1.8h17.3c1,0,1.8-0.8,1.8-1.8v-2.7
	C231.1,113.8,230.3,113,229.3,113z"/>
<path class="st1" d="M207.4,119.3h-17.3c-1,0-1.8,0.8-1.8,1.8v2.7c0,1,0.8,1.8,1.8,1.8h17.3c1,0,1.8-0.8,1.8-1.8v-2.7
	C209.2,120.1,208.4,119.3,207.4,119.3z"/>
<path class="st1" d="M183,116.2h-17.3c-1,0-1.8,0.8-1.8,1.8v2.7c0,1,0.8,1.8,1.8,1.8H183c1,0,1.8-0.8,1.8-1.8V118
	C184.8,117,184,116.2,183,116.2z"/>
<path class="st1" d="M161.1,122.5h-17.3c-1,0-1.8,0.8-1.8,1.8v2.7c0,1,0.8,1.8,1.8,1.8h17.3c1,0,1.8-0.8,1.8-1.8v-2.7
	C162.9,123.3,162.1,122.5,161.1,122.5z"/>
<path class="st1" d="M139.2,128.8h-17.3c-1,0-1.8,0.8-1.8,1.8v2.7c0,1,0.8,1.8,1.8,1.8h17.3c1,0,1.8-0.8,1.8-1.8v-2.7
	C141,129.6,140.2,128.8,139.2,128.8z"/>
<path class="st1" d="M183,106.7h-17.3c-1,0-1.8,0.8-1.8,1.8v2.7c0,1,0.8,1.8,1.8,1.8H183c1,0,1.8-0.8,1.8-1.8v-2.7
	C184.8,107.5,184,106.7,183,106.7z"/>
<path class="st1" d="M161.1,113h-17.3c-1,0-1.8,0.8-1.8,1.8v2.7c0,1,0.8,1.8,1.8,1.8h17.3c1,0,1.8-0.8,1.8-1.8v-2.7
	C162.9,113.8,162.1,113,161.1,113z"/>
<path class="st1" d="M139.2,119.3h-17.3c-1,0-1.8,0.8-1.8,1.8v2.7c0,1,0.8,1.8,1.8,1.8h17.3c1,0,1.8-0.8,1.8-1.8v-2.7
	C141,120.1,140.2,119.3,139.2,119.3z"/>
<path class="st1" d="M251.2,251.1h-17.3c-1,0-1.8,0.8-1.8,1.8v2.7c0,1,0.8,1.8,1.8,1.8h17.3c1,0,1.8-0.8,1.8-1.8v-2.7
	C253,251.9,252.2,251.1,251.2,251.1z"/>
<path class="st1" d="M229.3,257.5H212c-1,0-1.8,0.8-1.8,1.8v2.7c0,1,0.8,1.8,1.8,1.8h17.3c1,0,1.8-0.8,1.8-1.8v-2.7
	C231.1,258.3,230.3,257.5,229.3,257.5z"/>
<path class="st1" d="M207.4,263.8h-17.3c-1,0-1.8,0.8-1.8,1.8v2.7c0,1,0.8,1.8,1.8,1.8h17.3c1,0,1.8-0.8,1.8-1.8v-2.7
	C209.2,264.6,208.4,263.8,207.4,263.8z"/>
<path class="st1" d="M251.2,241.6h-17.3c-1,0-1.8,0.8-1.8,1.8v2.7c0,1,0.8,1.8,1.8,1.8h17.3c1,0,1.8-0.8,1.8-1.8v-2.7
	C253,242.4,252.2,241.6,251.2,241.6z"/>
<path class="st1" d="M229.3,248H212c-1,0-1.8,0.8-1.8,1.8v2.7c0,1,0.8,1.8,1.8,1.8h17.3c1,0,1.8-0.8,1.8-1.8v-2.7
	C231.1,248.8,230.3,248,229.3,248z"/>
<path class="st1" d="M207.4,254.3h-17.3c-1,0-1.8,0.8-1.8,1.8v2.7c0,1,0.8,1.8,1.8,1.8h17.3c1,0,1.8-0.8,1.8-1.8v-2.7
	C209.2,255.1,208.4,254.3,207.4,254.3z"/>
<path class="st1" d="M183,251.1h-17.3c-1,0-1.8,0.8-1.8,1.8v2.7c0,1,0.8,1.8,1.8,1.8H183c1,0,1.8-0.8,1.8-1.8v-2.7
	C184.8,251.9,184,251.1,183,251.1z"/>
<path class="st1" d="M161.1,257.5h-17.3c-1,0-1.8,0.8-1.8,1.8v2.7c0,1,0.8,1.8,1.8,1.8h17.3c1,0,1.8-0.8,1.8-1.8v-2.7
	C162.9,258.3,162.1,257.5,161.1,257.5z"/>
<path class="st1" d="M139.2,263.8h-17.3c-1,0-1.8,0.8-1.8,1.8v2.7c0,1,0.8,1.8,1.8,1.8h17.3c1,0,1.8-0.8,1.8-1.8v-2.7
	C141,264.6,140.2,263.8,139.2,263.8z"/>
<path class="st1" d="M183,241.6h-17.3c-1,0-1.8,0.8-1.8,1.8v2.7c0,1,0.8,1.8,1.8,1.8H183c1,0,1.8-0.8,1.8-1.8v-2.7
	C184.8,242.4,184,241.6,183,241.6z"/>
<path class="st1" d="M161.1,248h-17.3c-1,0-1.8,0.8-1.8,1.8v2.7c0,1,0.8,1.8,1.8,1.8h17.3c1,0,1.8-0.8,1.8-1.8v-2.7
	C162.9,248.8,162.1,248,161.1,248z"/>
<path class="st1" d="M139.2,254.3h-17.3c-1,0-1.8,0.8-1.8,1.8v2.7c0,1,0.8,1.8,1.8,1.8h17.3c1,0,1.8-0.8,1.8-1.8v-2.7
	C141,255.1,140.2,254.3,139.2,254.3z"/>
<path class="st1" d="M251.2,229h-17.3c-1,0-1.8,0.8-1.8,1.8v2.7c0,1,0.8,1.8,1.8,1.8h17.3c1,0,1.8-0.8,1.8-1.8v-2.7
	C253,229.8,252.2,229,251.2,229z"/>
<path class="st1" d="M229.3,235.3H212c-1,0-1.8,0.8-1.8,1.8v2.7c0,1,0.8,1.8,1.8,1.8h17.3c1,0,1.8-0.8,1.8-1.8v-2.7
	C231.1,236.1,230.3,235.3,229.3,235.3z"/>
<path class="st1" d="M207.4,241.6h-17.3c-1,0-1.8,0.8-1.8,1.8v2.7c0,1,0.8,1.8,1.8,1.8h17.3c1,0,1.8-0.8,1.8-1.8v-2.7
	C209.2,242.4,208.4,241.6,207.4,241.6z"/>
<path class="st1" d="M251.2,219.5h-17.3c-1,0-1.8,0.8-1.8,1.8v2.7c0,1,0.8,1.8,1.8,1.8h17.3c1,0,1.8-0.8,1.8-1.8v-2.7
	C253,220.3,252.2,219.5,251.2,219.5z"/>
<path class="st1" d="M229.3,225.8H212c-1,0-1.8,0.8-1.8,1.8v2.7c0,1,0.8,1.8,1.8,1.8h17.3c1,0,1.8-0.8,1.8-1.8v-2.7
	C231.1,226.6,230.3,225.8,229.3,225.8z"/>
<path class="st1" d="M207.4,232.1h-17.3c-1,0-1.8,0.8-1.8,1.8v2.7c0,1,0.8,1.8,1.8,1.8h17.3c1,0,1.8-0.8,1.8-1.8v-2.7
	C209.2,232.9,208.4,232.1,207.4,232.1z"/>
<path class="st1" d="M183,229h-17.3c-1,0-1.8,0.8-1.8,1.8v2.7c0,1,0.8,1.8,1.8,1.8H183c1,0,1.8-0.8,1.8-1.8v-2.7
	C184.8,229.8,184,229,183,229z"/>
<path class="st1" d="M161.1,235.3h-17.3c-1,0-1.8,0.8-1.8,1.8v2.7c0,1,0.8,1.8,1.8,1.8h17.3c1,0,1.8-0.8,1.8-1.8v-2.7
	C162.9,236.1,162.1,235.3,161.1,235.3z"/>
<path class="st1" d="M139.2,241.6h-17.3c-1,0-1.8,0.8-1.8,1.8v2.7c0,1,0.8,1.8,1.8,1.8h17.3c1,0,1.8-0.8,1.8-1.8v-2.7
	C141,242.4,140.2,241.6,139.2,241.6z"/>
<path class="st1" d="M183,219.5h-17.3c-1,0-1.8,0.8-1.8,1.8v2.7c0,1,0.8,1.8,1.8,1.8H183c1,0,1.8-0.8,1.8-1.8v-2.7
	C184.8,220.3,184,219.5,183,219.5z"/>
<path class="st1" d="M161.1,225.8h-17.3c-1,0-1.8,0.8-1.8,1.8v2.7c0,1,0.8,1.8,1.8,1.8h17.3c1,0,1.8-0.8,1.8-1.8v-2.7
	C162.9,226.6,162.1,225.8,161.1,225.8z"/>
<path class="st1" d="M139.2,232.1h-17.3c-1,0-1.8,0.8-1.8,1.8v2.7c0,1,0.8,1.8,1.8,1.8h17.3c1,0,1.8-0.8,1.8-1.8v-2.7
	C141,232.9,140.2,232.1,139.2,232.1z"/>
<ellipse class="st1" cx="182.8" cy="282.6" rx="106.8" ry="8.8"/>
<path class="st2" d="M279.6,152.2c-10.1,4.4-15.9,13.4-15.9,13.4s10.5,1.9,20.6-2.4c10.1-4.4,15.9-13.4,15.9-13.4
	S289.7,147.8,279.6,152.2z"/>
<path class="st2" d="M248.7,135.4c-3.1-5.1-8.4-7.6-8.4-7.6s-0.2,5.8,2.9,10.9s8.4,7.5,8.4,7.5S251.8,140.5,248.7,135.4z"/>
<path class="st3" d="M271.6,140.9c-2.2,8-8.4,13.2-8.4,13.2s-2.5-7.7-0.3-15.6c2.2-7.9,8.4-13.2,8.4-13.2S273.9,132.9,271.6,140.9z"
	/>
<path class="st4" d="M269.5,140.5H95.4c-1,0-1.8,0.8-1.8,1.8v85.4c0,1,0.8,1.8,1.8,1.8h174.1c1,0,1.8-0.8,1.8-1.8v-85.4
	C271.3,141.3,270.5,140.5,269.5,140.5z"/>
<path class="st5" d="M271.3,224.1H93.7l0,0v3.6c0,1,0.8,1.8,1.8,1.8l0,0h174.1c1,0,1.8-0.8,1.8-1.8v-3.6H271.3z"/>
<path class="st6" d="M253.4,217.5h-11.9c-0.3,0-0.6,0.3-0.6,0.6v5.4c0,0.3,0.3,0.6,0.6,0.6h11.9c0.3,0,0.6-0.3,0.6-0.6v-5.4
	C254,217.8,253.7,217.5,253.4,217.5z"/>
<path class="st6" d="M236.7,223.1h-8c-0.3,0-0.5,0.2-0.5,0.5l0,0c0,0.3,0.2,0.5,0.5,0.5h8c0.3,0,0.5-0.2,0.5-0.5l0,0
	C237.2,223.3,237,223.1,236.7,223.1z"/>
<path class="st6" d="M245.2,157.9c-6.4,1.2-13,0-19.4-0.8l-19.5-2.4c-0.8-0.1-1.9-0.6-2.4,0.4c-0.3,0.5-0.1,1.7-0.1,2.3
	c0,1.7,0,3.4,0,5.1c0.1,3.3,0.3,6.5,0.6,9.7c0.6,6.4,1.4,12.7,1.9,19c0.2,3.2,0.3,6.5,0.2,9.7c0,0.8,0,1.6-0.1,2.3
	c0,0.9-0.4,2.1,0.5,2.7c0.5,0.3,1.6,0.3,2.2,0.4c1,0.1,1.9,0.3,2.9,0.4c6.6,0.7,13.2,0.4,19.8,0.3l19.9-0.1h4.8c0.4,0,2,0.3,2.3-0.3
	c0.1-0.2-0.2-1.3-0.2-1.5c-0.1-0.5-0.1-0.9-0.2-1.4c-0.6-3.2-1.2-6.4-1.9-9.6c-1.4-6.8-2.9-13.7-3.5-20.6c-0.3-3.5-0.1-7-0.5-10.5
	c-0.2-1.6-0.4-5.2-2.5-5.4c-1.8-0.1-3.7,0-5.5,0c-0.2,0-0.4-0.2-0.4-0.4s0.2-0.4,0.4-0.4c1.7,0,3.5,0,5.2,0c1.1,0,1.9,0.3,2.5,1.3
	c1.4,2.7,1.3,6.3,1.3,9.3c0.1,7.1,1.2,14,2.6,21c0.7,3.5,1.5,7,2.2,10.5c0.3,1.7,0.7,3.3,0.9,5c0.1,0.8,0.8,2.6,0.2,3.3
	s-2.5,0.3-3.3,0.3h-5.8l-11.1,0.1c-7.2,0-14.4,0.2-21.6,0c-3.4-0.1-7.1-0.2-10.4-1.1c-1-0.2-1.5-0.7-1.5-1.8c0-1.7,0.2-3.3,0.2-5
	c0.2-14.2-3.1-28.1-2.7-42.3c0-1-0.3-3.4,0.7-4c0.5-0.3,1.1-0.1,1.6,0c1,0.1,1.9,0.2,2.9,0.4l12.3,1.5c3.9,0.5,7.9,1,11.8,1.5
	c4.2,0.5,8.4,0.8,12.6,0C245.5,157.1,245.7,157.8,245.2,157.9L245.2,157.9z"/>
<path class="st6" d="M253,166.5l-48.7-2.4c-0.5,0-0.5-0.8,0-0.7l48.7,2.4C253.4,165.8,253.4,166.6,253,166.5z"/>
<path class="st6" d="M238,160.5c0.5,0.5,0.4,1.3,0,1.7c-0.1,0.1-0.2,0.2-0.4,0.2c-0.7,0.3-1.4,0-2.1-0.1c-1-0.2-1.9-0.5-2.9-0.6
	c-2.2-0.4-4.4-0.6-6.6-0.6c-1,0-2,0-3,0.1c-0.7,0-1.5,0.1-2.1-0.4c-0.7-0.5-0.9-1.5-0.2-2.1c1-0.9,3.1-0.4,4.2-0.3
	c4.1,0.3,8.1,1,12.2,1.8c0.5,0.1,0.3,0.8-0.2,0.7c-2.6-0.6-5.3-1-8-1.4c-1.3-0.2-2.6-0.3-4-0.4c-0.6,0-1.2-0.1-1.9-0.1
	c-0.2,0-0.5,0-0.8,0c-0.8,0-0.9-0.1-0.4,0.8c0.4,0.8,0.3,0.7,1,0.7c0.3,0,0.6,0,0.9,0c0.6,0,1.2,0,1.9,0c1.3,0,2.6,0.1,3.9,0.2
	c1.1,0.1,2.2,0.3,3.3,0.5c0.7,0.1,1.4,0.3,2,0.4c0.3,0.1,0.6,0.1,0.9,0.2c0.1,0,0.3,0.1,0.4,0.1c0.5,0.2,1,0,1.4-0.7
	C237.1,160.7,237.6,160.2,238,160.5L238,160.5z"/>
<path class="st6" d="M229.1,170.9c3.5-0.1,7.3,0.8,9.6,3.7c1.8,2.2,2.8,6,0.9,8.5c-2.1,2.7-6.6,2.2-9.3,1.1
	c-2.9-1.2-6.1-3.7-6.9-6.9c-1.1-3.9,2.4-6.9,6.1-6.9c0.5,0,0.5,0.7,0,0.7c-2.1,0-4.1,0.9-5.1,2.9s-0.1,4.2,1.2,5.8
	c2.2,2.6,5.6,4.6,9.1,4.5c2.1,0,4.4-0.8,5-2.9c0.5-1.8,0.1-3.7-0.8-5.3c-2-3.4-6.1-4.6-9.8-4.4C228.6,171.7,228.6,170.9,229.1,170.9
	L229.1,170.9z"/>
<path class="st6" d="M232.6,176.3c0.5-0.2,1,0.1,1.2,0.6c0,0.1,0.1,0.3,0,0.4c-0.1,1-1.1,1.2-1.9,1.2c-0.7,0-1.5-0.3-1.2-1.2
	c0.1-0.3,0.3-0.6,0.6-0.7c0.2-0.1,0.5-0.1,0.7-0.1c0.1,0,0.9,0.3,0.6,0l0.6-0.1c-0.1,0.1-0.2,0.3-0.2,0.5s-0.2,0.4-0.4,0.4
	c-0.1,0-0.1,0-0.2,0c-0.2-0.1-0.5,0-0.6,0.3c0,0.1,0,0.2,0,0.3c0,0.2-0.1,0.4-0.3,0.4c-0.1,0-0.3,0-0.4-0.2
	c-0.2-0.4-0.5-1.3-0.2-1.8c0.2-0.3,0.7-0.2,1,0c0.2,0.1,0.3,0.3,0.5,0.4c0.3,0.3,0.5,0.4,0.4-0.1c-0.2-0.9-1-1.6-1.9-2l0.5-0.4
	c0.3,1,0.8,2,1.5,2.9l-0.6,0.3c0-0.7-0.4-1.3-1-1.6h0.4l-0.2,0.3c0.1,0.5-0.6,0.7-0.7,0.2c-0.1-0.6,0.3-1.4,1-1.1
	c0.9,0.3,1.3,1.3,1.3,2.2c0,0.3-0.4,0.5-0.6,0.3c-0.8-1-1.3-2-1.7-3.2c0-0.2,0.1-0.4,0.3-0.4c0.1,0,0.2,0,0.3,0
	c0.7,0.3,1.3,0.9,1.8,1.5c0.3,0.5,0.7,1.2,0.4,1.8c-0.2,0.4-0.7,0.5-1,0.3l0,0c-0.2-0.1-0.4-0.3-0.6-0.5c-0.1-0.1-0.2-0.2-0.3-0.2
	c-0.1-0.1-0.1,0,0,0.1c0,0.2,0.1,0.5,0.2,0.7l-0.7,0.3c-0.2-0.7,0.2-1.3,0.9-1.5c0.3-0.1,0.6,0,0.9,0.1l-0.6,0.3
	c0-0.3,0.1-0.6,0.3-0.9c0.1-0.2,0.3-0.2,0.5-0.1c0,0,0,0,0.1,0c0.4,0.4,0.4,1,0,1.4c-0.3,0.3-0.5,0-0.9,0c-1.3-0.2-0.5,0.4-0.1,0.4
	c0.2,0,0.4,0,0.6,0c0.5-0.2,0.5-0.4,0.1-0.7C232.4,177.2,232.2,176.5,232.6,176.3L232.6,176.3z"/>
<path class="st6" d="M233.2,177.7c-0.3,1,1,1.3,1.5,1.6c0.4,0.2,0.8,0.5,1,0.9c0.6,0.8,0.9,1.9,1,2.9c0.1,0.5-0.6,0.7-0.7,0.2
	c-0.1-0.7-0.3-1.4-0.6-2.1c-0.4-0.9-1.1-1.2-1.9-1.6c-0.8-0.4-1.4-1.1-1.1-2.1C232.7,177,233.4,177.2,233.2,177.7L233.2,177.7z"/>
<path class="st6" d="M232,177.2c0.4,0,0.6,0.4,0.6,0.7s-0.2,0.5-0.3,0.7c-0.3,0.5-0.6,1-0.7,1.5s-0.2,1.5,0,1.9
	c0.5,0.9,1.4,0.7,2.2,0.7c0.7,0,1.3,0.2,1.3-0.8c0-0.6-0.4-1.1-0.7-1.6l0.7-0.1c-0.1,0.8-0.2,1.5-0.2,2.3c0,0.3-0.5,0.5-0.7,0.2
	c-0.4-0.8-0.7-1.7-0.9-2.6l0.7-0.1l-0.1,1.9c0,0.2-0.2,0.4-0.4,0.4c-0.1,0-0.2-0.1-0.3-0.2c-0.1-0.1-0.1-0.2-0.2-0.3
	c0-0.1,0.2-0.9,0.3-0.6l-0.7,0.1v-1.8l0.7,0.1c-0.1,0.5-0.2,1-0.1,1.5c0,0.4-0.6,0.5-0.7,0.1l-0.5-2.4l0.7,0.1
	c-0.2,0.3-0.2,0.7-0.1,1c0,0.5-0.7,0.5-0.7,0c-0.1-0.5,0-1,0.2-1.4c0.1-0.2,0.3-0.2,0.5-0.1c0.1,0,0.1,0.1,0.2,0.2l0.5,2.4l-0.7,0.1
	c-0.1-0.6,0-1.2,0.2-1.7c0-0.2,0.3-0.3,0.5-0.2c0.1,0,0.3,0.2,0.3,0.3v1.8c0,0.4-0.6,0.5-0.7,0.1v-0.1c0-0.1,0-0.3,0.1-0.4
	c0.8-0.8,0.9,0.5,1.2,0.9l-0.7,0.2l0.1-1.9c0-0.4,0.6-0.5,0.7-0.1c0.2,0.8,0.5,1.6,0.9,2.4l-0.7,0.2c0-0.8,0.1-1.6,0.2-2.5
	c0.1-0.3,0.5-0.3,0.7-0.1c0.5,0.7,1.3,2.2,0.7,3.1c-0.6,0.7-2.4,0.4-3.1,0.4c-1.2-0.1-1.6-0.8-1.8-2c-0.1-0.5,0-1.1,0.1-1.6
	c0.1-0.3,0.7-2.1,0.9-2.1C231.4,177.8,231.5,177.1,232,177.2L232,177.2z"/>
<path class="st6" d="M233.4,178.8l2,2.6l-0.6,0.4l-1.5-2.1l0.7-0.3l0.7,2.8c0,0.2-0.1,0.4-0.3,0.4c-0.1,0-0.3,0-0.4-0.2
	c-0.3-0.6-0.7-1.1-1.1-1.6l0.6-0.4c0.2,0.6,0.5,1.2,0.9,1.7l-0.6,0.4c0-0.3-0.1-0.7-0.3-1c-0.2-0.4,0.4-0.8,0.6-0.4
	c0.2,0.4,0.4,0.8,0.7,1.1l-0.7,0.1l-0.1-0.7l0.7-0.1l-0.1,0.6c0,0.2-0.3,0.3-0.5,0.2c0,0-0.1,0-0.1-0.1c-0.6-0.6-1.1-1.4-1.5-2.2
	h0.6c-0.2,0.3-0.3,0.6-0.3,1c-0.1,0.4-0.7,0.3-0.7-0.1c-0.1-0.8-0.1-1.6-0.2-2.5h0.7v1.5c0,0.4-0.7,0.5-0.7,0.1s-0.2-0.7-0.4-1h0.6
	c-0.1,0.2-0.2,0.5-0.2,0.8c0,0.2-0.2,0.4-0.4,0.4c-0.2,0-0.4-0.2-0.4-0.4l-0.1-0.5h0.7c-0.1,0.4-0.3,2.9,0.6,2.6c0.2,0,0.2,0,0.1,0
	l-0.2-0.5l-0.5-1.1l0.7-0.2c0,0.5-0.1,1.2,0.2,1.7c0.2,0.3,1,0.5,1.4,0.3c0.2-0.2,0.5-0.4,0.6-0.7l0.5,0.5c-0.4,0.3-1.1,1-1.6,1.1
	c-0.4,0-0.7-0.3-1-0.6c-0.8-0.8-1.2-2-1.2-3.1c0-0.2,0.2-0.4,0.4-0.4s0.4,0.2,0.4,0.4v0.8c0,0.2-0.2,0.4-0.4,0.4s-0.4-0.2-0.4-0.4
	v-2c0-0.2,0.2-0.4,0.4-0.4s0.4,0.2,0.4,0.4c0,0.5,0,1,0.1,1.5l-0.7,0.1c0-0.6,0.1-1.2,0.1-1.8c0-0.2,0.2-0.4,0.4-0.4
	c0.2,0,0.3,0.1,0.3,0.3c0.1,0.5,0.2,0.9,0.4,1.4l-0.7-0.1v-0.2c0-0.5,0.8-0.5,0.7,0c0,0.2,0,0.4-0.1,0.6c-0.1,0.3-0.6,0.2-0.7-0.1
	c-0.1-0.5-0.3-0.9-0.4-1.4l0.7-0.1c0,0.6,0,1.2-0.1,1.8c0,0.4-0.6,0.5-0.7,0.1c-0.1-0.6-0.1-1.1-0.1-1.7h0.7v2h-0.7v-0.8h0.7
	c0,0.9,0.3,1.8,0.9,2.5c0.1,0.1,0.2,0.2,0.3,0.3c0.2,0.2,0.3,0.1,0.5-0.1c0.3-0.1,0.7-0.5,1-0.7s0.7,0.2,0.5,0.5
	c-0.6,0.8-1.4,1.6-2.4,1.2c-1.1-0.4-1.2-1.9-1.2-2.9c0-0.3,0.5-0.5,0.7-0.2c0.2,0.5,0.5,1,0.7,1.5c0.1,0.2,0.2,0.4,0.2,0.6
	c-0.1,0.5-0.8,0.5-1.1,0.4c-1.6-0.1-1.3-2.4-1.1-3.5c0-0.4,0.6-0.3,0.7,0c0.1,0.2,0.1,0.5,0.1,0.7h-0.7c0-0.4,0.1-0.8,0.3-1.2
	c0.1-0.2,0.3-0.2,0.5-0.1l0.1,0.1c0.2,0.4,0.4,0.8,0.4,1.2l-0.7,0.1v-1.5c0-0.2,0.2-0.4,0.4-0.4c0.2,0,0.4,0.2,0.4,0.4
	c0,0.8,0,1.7,0.2,2.5l-0.7-0.1c0.1-0.4,0.2-0.8,0.4-1.1c0.1-0.2,0.3-0.2,0.5-0.1l0.1,0.1c0.3,0.8,0.8,1.5,1.3,2l-0.6,0.2l0.1-0.6
	c0-0.3,0.5-0.3,0.7-0.1c0.2,0.4,0.3,0.8,0.2,1.3c0,0.3-0.5,0.3-0.7,0.1c-0.3-0.3-0.5-0.7-0.7-1.1l0.6-0.4c0.2,0.4,0.3,0.8,0.3,1.1
	s-0.3,0.7-0.6,0.4c-0.5-0.6-0.9-1.3-1.1-2c-0.1-0.3,0.4-0.6,0.6-0.4c0.4,0.5,0.9,1.1,1.2,1.7l-0.7,0.3l-0.7-2.8
	c0-0.2,0.1-0.4,0.3-0.4c0.1,0,0.3,0,0.4,0.2l1.5,2.1c0.3,0.4-0.4,0.7-0.6,0.4l-2-2.6C232.5,178.8,233.1,178.4,233.4,178.8
	L233.4,178.8z"/>
<path class="st6" d="M202.3,187.6c-2.9-1.8-5.2-4.5-7.8-6.7c-2.8-2.4-5.7-4.7-8.8-6.8c-5.9-4.1-12.1-7.8-18.2-11.5
	c-0.2-0.1-0.2-0.3-0.1-0.5s0.3-0.2,0.5-0.1c6.2,3.7,12.4,7.4,18.2,11.5c2.8,1.9,5.5,4,8.1,6.2c2.8,2.4,5.3,5.4,8.5,7.3
	C203.1,187.2,202.8,187.8,202.3,187.6L202.3,187.6z"/>
<path class="st6" d="M158.1,151.2c3.2,0.3,6.6,1.1,8.5,3.9c1.7,2.4,1.7,6.5,0.1,9c-1.8,2.8-5.5,2.9-8.3,2s-5.8-2.5-5.8-5.9
	c0-1.8,0.7-3.7,1.4-5.4c0.6-1.4,1.8-2.7,3.4-2.5c0.5,0,0.5,0.8,0,0.7c-2.3-0.2-3,2.5-3.5,4.2c-0.5,1.6-0.9,3.5-0.2,5
	c0.8,1.6,2.6,2.4,4.2,2.9c1.7,0.6,3.6,1,5.4,0.5c3.5-1,4.5-5.5,3.5-8.6c-1.2-3.7-5.3-4.7-8.7-5.1
	C157.6,151.9,157.6,151.2,158.1,151.2L158.1,151.2z"/>
<path class="st6" d="M153.2,179.5c3.2,0.3,6.6,1.1,8.5,3.9c1.7,2.4,1.7,6.5,0.1,9c-1.8,2.8-5.5,2.9-8.3,2s-5.8-2.5-5.8-5.9
	c0-1.8,0.7-3.7,1.4-5.4c0.6-1.4,1.8-2.7,3.4-2.5c0.5,0,0.5,0.8,0,0.7c-2.3-0.2-3,2.5-3.5,4.2c-0.5,1.6-0.9,3.5-0.2,5
	c0.8,1.6,2.6,2.4,4.2,2.9c1.7,0.6,3.6,1,5.4,0.5c3.5-1,4.5-5.5,3.5-8.6c-1.2-3.7-5.3-4.7-8.7-5.1
	C152.7,180.2,152.7,179.4,153.2,179.5L153.2,179.5z"/>
<path class="st6" d="M162.9,158.3l-2.3,2.6c-0.1,0.1-0.4,0.1-0.5,0l-0.1-0.1c-0.5-1.3-0.4-2.6-0.5-3.9c-0.1-1.4-0.5-2.8-1-4
	c-1.1-2.6-3-4.8-5.5-6.2c-0.4-0.2,0-0.9,0.4-0.6c2.4,1.4,4.3,3.5,5.5,6.1c0.6,1.2,1,2.5,1.2,3.9c0.2,1.6,0,3.2,0.6,4.8l-0.6-0.2
	l2.3-2.6C162.7,157.5,163.2,158,162.9,158.3L162.9,158.3z"/>
<path class="st6" d="M201.2,190.4c-12.6-0.4-25.1-0.5-37.7-0.2c-0.5,0-0.5-0.7,0-0.7c12.6-0.2,25.1-0.1,37.7,0.2
	C201.7,189.7,201.7,190.5,201.2,190.4z"/>
<path class="st6" d="M160.9,183.2c-4.3,1.7-8.4,3.8-12.4,6.2c-0.4,0.2-0.8-0.4-0.4-0.6c4-2.5,8.2-4.6,12.5-6.3
	C161.1,182.4,161.3,183.1,160.9,183.2L160.9,183.2z"/>
<path class="st6" d="M153,179.9c4.4,5.1,6.9,11.5,7.2,18.1c0,0.5-0.7,0.5-0.7,0c-0.3-6.5-2.7-12.7-6.9-17.6
	C152.2,180.1,152.7,179.6,153,179.9L153,179.9z"/>
<path class="st6" d="M250.5,187.8l-27.2-0.4h-3.1c-0.6,0-1.1,0-1.7,0c-0.8,0-1.3,0.7-1.3,1.5c0,1.7,1.1,1.7,2.5,1.7l3.4,0.1
	l13.8,0.6c2.5,0.1,4.9,0.2,7.4,0.3c2.2,0.1,6.5-0.7,5.5-3.9c-0.1-0.5,0.6-0.6,0.7-0.2c0.5,1.6-0.4,3.2-1.8,4c-2,1.2-4.6,0.8-6.7,0.7
	l-16.9-0.8l-4.1-0.2c-1,0-2.5,0.2-3.5-0.3c-1.1-0.6-1.3-2.9-0.6-3.8c0.4-0.5,0.9-0.5,1.5-0.6c1.5,0,3,0,4.6,0l8.4,0.1l19.3,0.2
	C251,187.1,251,187.8,250.5,187.8L250.5,187.8z"/>
<g id="b30eccf6-7cfe-48df-9caa-415a128bd568">
	<path class="st7" d="M140.5,277.3c0.6,0.4,1.3,0.6,1.9,1s1.2,0.9,1.4,1.6c0.1,0.2,0,0.5,0,0.7c-0.1,0.2-0.4,0.4-0.7,0.5
		c-2.6,1.1-5.6,1.2-8.2,0.1c-0.5-0.2-0.9-0.4-1.4-0.6c-0.6-0.1-1.2-0.2-1.8-0.2c-0.6,0-1.3-0.1-1.9-0.2c-0.3,0-0.6-0.2-0.9-0.4
		c-0.2-0.3-0.4-0.6-0.4-0.9c-0.3-1.9,0.1-3.8,1.2-5.4c0.1-0.2,0.3-0.4,0.5-0.6c0.3-0.1,0.6-0.2,0.9-0.2c1.2-0.1,2.5-0.4,3.7-0.4
		c0.9,0,1.3,0.4,1.9,1C138.1,274.4,138.9,276.3,140.5,277.3z"/>
	<path class="st7" d="M122.5,277.1c0,1.2-0.1,2.5-0.9,3.4c-0.3,0.4-0.7,0.8-1.2,1c-1.5,1-3.6,1.3-5.2,0.5c-0.3-0.1-0.5-0.3-0.6-0.5
		c-0.2-0.4-0.1-1,0-1.4l2.3-8.1c1.5,0.2,3.7,0.4,5.1,1.2C123.1,273.8,122.5,276.1,122.5,277.1z"/>
	<path class="st8" d="M141.8,227.3c0.1,0.4,0.7,0.7,0.9,1c0.3,0.4,0.3,1,0.2,1.6c-0.1,0.8-0.5,1.5-1.1,2.1s-1.4,0.9-2.2,0.8
		c-0.8-0.1-1.5-0.9-1.5-1.6c0-0.4,0.1-0.7,0.2-1l1.7-4.8c0-0.1,0-0.1,0.1-0.2c0.1,0,0.1,0,0.2,0c0.4,0.2,1.2,0.4,1.4,0.8
		C142,226.4,141.7,226.9,141.8,227.3z"/>
	<path class="st9" d="M142.6,227.1c-0.6-0.1-1.1-0.4-1.7-0.7s-1.3-0.3-1.8,0.1c-0.1,0.1-0.3,0.3-0.4,0.3c0.2-1.2,0.6-2.4,1.1-3.5
		c0,0,0-0.1,0.1-0.1s0.1,0,0.2,0l1.6,0.4c0.6,0.2,0.7,0.1,0.6,0.7C142.4,224.5,142.2,227.1,142.6,227.1z"/>
	<path class="st10" d="M142.8,192.4c0.2,0.4,0.2,0.9,0.2,1.3c0,2.2,0,4.3-0.3,6.5c-0.1,0.5-0.2,1-0.2,1.5c0,0.7-0.1,1.4,0,2.2
		l0.2,9.4c0,1.1,0.1,2.4,0.8,3.3c0.2,0.3,0.3,0.7,0.3,1c-0.2,2.4-0.6,4.7-1,7c-1.3-0.6-2.7-0.5-3.9,0.2c-1.2-3.9-1.9-7.9-2-11.9
		c0-2,0-4-0.3-6c-0.5-3.3-0.3-6.7,0.1-10.1c0.1-1,0.4-2.1,1-3c0.6-0.7,1.5-1.2,2.4-1.4C141.1,192.2,141.9,192.4,142.8,192.4z"/>
	<path class="st11" d="M139.8,219.6c1.6,8.4,0.7,17.1-2.6,24.9c-0.3,0.6-0.5,1.2-0.6,1.9c-0.1,1.2,0.4,2.3,0.7,3.5
		c0.7,2.6,0.3,5.4-0.2,8.1c-0.2,1.1-0.4,2.2-0.6,3.4c-0.2,1.1-0.4,2.3,0.1,3.3c-0.4,1.8-0.7,3.6-1.1,5.4c0,0.1,0,0.3,0,0.4
		c0.1,0.2,0.2,0.4,0.4,0.6c0.7,0.7,0.9,1.6,0.7,2.6c-1.1-0.8-2.7-0.5-3.9,0c-1.3,0.5-2.5,1.2-3.9,1.2c0.2-1.6,0.4-3.3-0.2-4.8
		c-0.3-0.9-1-1.7-0.9-2.6c0-0.9,0.5-1.6,0.7-2.4c0-0.5,0-1,0-1.6c-0.3-3,0-6,0.4-9c0-0.6,0.2-1.2,0.4-1.7c0.2-0.3,0.4-0.7,0.4-1.1
		c0-0.5-0.4-0.8-0.5-1.3c-0.2-0.8,0.2-1.9-0.5-2.4c-1.8-1.3-1.1-4.4-1-6.6c0-1.9,0.1-3.8,0.2-5.7c-1.1,3.1-1.6,6.5-1.3,9.8
		c0.1,1.1,0.2,2.2-0.2,3.2c-0.3,0.8-1,1.4-1.1,2.2c-0.1,0.5,0,1,0,1.5s-0.2,1.1-0.7,1.3c0,2.3-0.2,4.9-0.3,7.2
		c0,1.2-0.1,2.4-0.3,3.6c-0.1,0.4-0.2,0.8-0.2,1.1c0,0.5,0.2,1,0.4,1.4c0.9,2.6,0.4,5.4-1.2,7.5c-0.6-1-1.8-1.6-2.9-1.7
		c-1.2-0.1-2.3,0.2-3.5,0.5c0.2-1.4-0.1-2.9-0.8-4.1c-0.2-0.3-0.3-0.6-0.4-0.9c-0.1-0.6,0.2-1.2,0.3-1.9c0.3-1,0.2-2,0.1-3
		c-0.2-3.4-0.1-6.8,0.4-10.2c0.1-0.7,0.2-1.3,0.5-1.9c0.1-0.2,0.2-0.4,0.3-0.7c0.1-0.4,0.2-0.8,0.2-1.2l0.3-3.9
		c0.2-2.7-0.7-5.4-1.3-8.1c-0.3-1.2-0.6-2.4-0.8-3.6c-0.2-1.7-0.3-3.3-0.7-5c-0.3-1.5-0.9-2.9-1.1-4.4c-0.2-2.3,0.8-4.6,1.7-6.7
		c0.4-0.9,1.9-0.8,2.8-0.9c6.7-1.1,13.8-1.1,20.1,1.4C138.7,218.7,139.3,219.1,139.8,219.6z"/>
	<path class="st8" d="M135,176.4l-0.8,2.9c-0.2,0.7-0.3,1.4-0.3,2c0,0.2,0,0.5,0.2,0.7c0.1,0.2,0.3,0.3,0.5,0.5
		c0.5,0.4,0.9,1.3,1.4,1.6c-0.3,0.5-0.7,0.2-1.3,0.4c-1,0.5-1.8,1.1-2.9,1.4c-1,0.2-2,0-3-0.2c-1.4-0.4-2.7-0.9-3.8-1.8
		c-1.1-0.9-1.7-1.7-1.7-3.1c1.2,0.1,2.3-1.1,2.8-2.2c0.2-0.4,0.3-0.9,0.4-1.3l0.7-2.9c0.7,0.1,1.3,0.7,2,0.9
		c0.7,0.3,1.5,0.3,2.2,0.3c1.3,0.1,2.7,0.2,4,0.5c0.2,0,0.4,0.1,0.4,0.3"/>
	<path class="st5" d="M135,176.4l-0.8,2.9c-0.2,0.7-0.3,1.4-0.3,2c0,0.2,0,0.5,0.2,0.7c0.1,0.2,0.3,0.3,0.5,0.5
		c0.5,0.4,0.9,1.3,1.4,1.6c-0.3,0.5-0.7,0.2-1.3,0.4c-1,0.5-1.8,1.1-2.9,1.4c-1,0.2-2,0-3-0.2c-1.4-0.4-2.7-0.9-3.8-1.8
		c-1.1-0.9-1.7-1.7-1.7-3.1c1.2,0.1,2.3-1.1,2.8-2.2c0.2-0.4,0.3-0.9,0.4-1.3l0.7-2.9c0.7,0.1,1.3,0.7,2,0.9
		c0.7,0.3,1.5,0.3,2.2,0.3c1.3,0.1,2.7,0.2,4,0.5c0.2,0,0.4,0.1,0.4,0.3"/>
	<circle class="st8" cx="131.8" cy="171.5" r="6.5"/>
	<path class="st12" d="M130,182.1c-0.3-0.8-0.9-1.4-1.5-1.9c-0.9-0.8-2.1-1.4-2.4-2.6l-2,2.3c-0.1,0.1-0.2,0.2-0.2,0.4
		c0,0.3,0,0.5,0.2,0.8c0.5,0.8,1.3,1.3,2,1.9c1.7,1.3,3.3,2.7,4.8,4.2c0.1,0.1,0.1,0.1,0.2,0.1s0.2,0,0.3-0.1
		c1.3-0.7,2.5-1.6,3.4-2.8c0.1-0.1,0.2-0.2,0.3-0.2c0.1,0,0.1,0,0.2,0.1c0.7,0.5,1.4,1.2,2.2,1.1c-1.1-0.8-1.7-2.1-1.9-3.4
		c0-0.5-0.1-0.9-0.3-1.3c-0.1-0.4-0.5-0.8-0.9-0.9c0.5,0.8,0.2,1.9-0.5,2.6c-0.7,0.6-1.5,1-2.4,1.2
		C130.5,183.7,130.3,182.8,130,182.1z"/>
	<path class="st9" d="M138.4,220.3c-0.9,0.2-1.8,0.6-2.7,0.9c-1.6,0.5-3.3,0.7-5,0.5c-0.5,0-1-0.2-1.5-0.5c-0.1-0.1-0.2-0.2-0.3-0.3
		c-0.2-0.1-0.4-0.2-0.7-0.3c-2.2-0.7-4.1-2.2-5.9-3.7c0,0-0.1-0.1-0.1-0.2c0,0,0-0.1,0.1-0.1l1-1.1c2.5,0.4,5.1,0.3,7.6,0.2
		c0.5,0,1,0,1.6,0c0.5,0,1,0.2,1.5,0.3c1.9,0.4,3.8,0.6,5.7,0.8c0.1,0,0.3,0,0.4,0.1s0.1,0.1,0.2,0.2l0.7,0.9
		c0.3,0.3,0.4,0.7,0.6,1.1c0.1,0.7-0.2,1-0.8,0.9C139.9,220,139.1,220.1,138.4,220.3z"/>
	<path class="st13" d="M130.9,186c0.8-0.8,1.6-1.4,2.5-1.9c0.4-0.2,0.8-0.4,1.2-0.5c0.4-0.1,0.9,0,1.2,0.3c0.2,0.2,0.4,0.5,0.6,0.7
		c0.3,0.2,0.6,0.4,0.9,0.5c1.1,0.5,2.2,1.1,3.1,1.8c0.5,0.4,1,0.8,1.4,1.3c1.1,1.4,1.3,3.3,1.2,5.1c0,1.2-1.2,2.2-2,3.1
		c-0.8,0.9-1.5,1.9-2.1,2.9c-0.4,0.7-0.9,1.5-0.9,2.3c0,0.7,0.4,1.3,0.4,2c0,0.2-0.1,0.5-0.1,0.7c0,0.5,0.1,1,0.2,1.5
		c0.1,0.7-0.2,1.4-0.2,2.1c0,0.5,0.1,0.9,0.2,1.4c0.5,2.2,1,4.5,0.9,6.7l1.3,0.2c-0.4,0.4-0.5,1.2,0,1.6c0.1,0.1,0.2,0.1,0.3,0.2
		c-2.1,0.7-4.4,0.3-6.6,0.3c-1.9,0-3.7,0.2-5.5,0.2s-3.8-0.4-5.3-1.4c-0.4-0.3-0.8-0.6-1.2-0.9c-0.6-0.3-1.2-0.5-1.9-0.6
		c-1.2-0.2-2.4-0.3-3.7-0.3c-0.6,0-1.2,0-1.7-0.3c-0.5-0.4-0.7-1.1-0.7-1.8c-0.1-0.7-0.1-1.4-0.1-2.1c0-0.5,0-1.1,0.1-1.6
		c0.1-0.4,0.2-0.8,0.3-1.2l0.9-3.2c0.4-1.3-0.1-2.8-0.3-4.2c0-0.3,0-0.7,0.2-0.9c0.1-0.1,0.2-0.1,0.2-0.2c0-0.1,0-0.2,0-0.3
		c-0.5-1-1.2-1.8-1.9-2.7c-1.1-1.5-2.2-3.1-3.1-4.8c0.3-3.5,1.8-6.7,4.1-9.2c0.5-0.5,1-1,1.7-1.3c0.4-0.1,0.9-0.2,1.4-0.2
		c1.9-0.1,3.9-0.2,5.6-1.2c0.1-0.1,0.2-0.1,0.4-0.2c0.4,0,0.6,0.3,0.9,0.6c0.6,0.7,1.5,1.1,2.3,1.7
		C128.7,183.2,129.8,184.6,130.9,186z"/>
	<path class="st10" d="M110.7,193c-0.4,1.2-0.3,2.5-0.5,3.8c-0.1,0.8-0.2,1.5-0.4,2.2c-0.1,0.4-0.2,0.8-0.5,1.1
		c-0.2,0.3-0.5,0.6-0.7,0.9c-0.1,0.2-0.1,0.5-0.1,0.8v1.7c-0.1,0.9,0.1,1.8,0.4,2.6l1,3.2c0.6,1.7,1.1,3.5,2.2,5
		c0.1,0.2,0.4,0.5,0.6,0.6c0.2,0,0.4,0.1,0.6,0.1c0.8,0.1,1.3,0.8,1.3,1.6c0.2-0.4,0.5-0.7,0.9-0.9l2.1-1.7c0.7-0.6,1.5-1.2,2.4-1.5
		c-2.4-0.8-4.2-2.9-4.5-5.4c0-0.4-0.1-0.7-0.2-1.1c-0.2-0.3-0.5-0.5-0.5-0.9s0.5-0.8,0.5-1.2c0-0.3-0.2-0.5-0.3-0.8
		c-0.1-0.3-0.1-0.7,0-1l0.3-1.6c0-0.2,0.1-0.3,0.1-0.5c0.1-0.1,0.2-0.3,0.4-0.4c0.5-0.6,0.3-1.5,0-2.2c-0.7-1.6-1.5-3-2.5-4.4
		c-0.4-0.5-0.7-0.9-1-1.4c-0.3-0.4-0.3-1.1-0.6-1.5C111.5,191.1,111,192,110.7,193z"/>
	<path class="st9" d="M120.3,212.5c0.1,0.1,0.2,0.2,0.3,0.3c0.3,0.4,0.7,0.6,1.1,0.8c-0.2,0.2-0.5,0.3-0.7,0.5
		c-1.7,1.3-3.2,2.8-4.6,4.4c-0.1-0.5-1.1-0.5-1.3-1c0-0.1-0.1-0.3,0-0.5c0-0.8,0.2-1.6,0.3-2.4c0.1-0.4,0.2-0.8,0.5-1.1
		c0.3-0.4,0.9-0.6,1.4-0.8C118,212.4,119.5,212,120.3,212.5z"/>
	<path class="st8" d="M123.3,214.4c0.7,0.5,1.4,1.2,2.2,1.6c0.6,0.3,1.2,0.4,1.8,0.8c-0.3,0.6-1,0.9-1.7,0.9
		c-0.7-0.1-1.3-0.3-1.9-0.7c-0.4-0.3-1-0.6-1.4-0.4c-0.1,0.4,0.2,0.7,0.2,1.1s-0.3,0.7-0.6,0.9c-1.5,1-3.3,0.9-5.1,0.8
		c-0.1,0-0.2,0-0.3-0.1c-0.1-0.1-0.1-0.2-0.1-0.3c0-0.4,0-0.8,0-1.1c-0.1-0.6,0.2-1.3,0.7-1.6c1-0.8,2-1.5,3-2.2
		C121.2,213.3,122.3,213.7,123.3,214.4z"/>
	<path class="st14" d="M129.5,168.8c1.1,0.1,1.9,1,1.8,1.9s-1.1,1.6-2.1,1.4c-1.1-0.1-1.9-1-1.8-1.9S128.4,168.7,129.5,168.8z
		 M129.1,171.9c0.9,0.1,1.7-0.4,1.8-1.2c0.1-0.8-0.6-1.5-1.5-1.6s-1.7,0.4-1.8,1.2C127.6,171,128.2,171.8,129.1,171.9L129.1,171.9z"
		/>
	<path class="st14" d="M134.8,169.5c1.1,0.1,1.9,1,1.8,1.9s-1.1,1.6-2.1,1.4c-1.1-0.1-1.9-1-1.8-1.9
		C132.8,169.9,133.7,169.3,134.8,169.5z M134.4,172.5c0.9,0.1,1.7-0.4,1.8-1.2c0.1-0.8-0.6-1.5-1.5-1.6s-1.7,0.4-1.8,1.2
		C132.8,171.7,133.5,172.4,134.4,172.5L134.4,172.5z"/>
	<polygon class="st14" points="138.7,169.9 136.4,170.4 136.6,171 138.8,170.4 	"/>
	<polygon class="st14" points="125.6,168.4 127.8,169.4 127.4,169.9 125.4,168.8 	"/>
	<polygon class="st14" points="132.8,170.3 131.2,170.1 131.3,170.5 132.7,170.6 	"/>
	<path class="st15" d="M136,169.7c-0.1-0.3-0.2-0.7-0.2-1.1c0-0.2,0-0.4-0.1-0.7s-0.3-0.5-0.5-0.7c-0.8-0.6-1.9-1-2.9-1
		c-1.2,0-2.3,0.2-3.4,0.7c-0.3,0.1-0.6,0.4-0.9,0.6c-0.3,0.4-0.4,0.9-0.8,1.4c-0.5,0.5-1.2,0.7-1.9,0.6c-0.1-0.4,0-0.9,0-1.3
		c-0.1-0.4-0.2-0.7-0.4-1.1c-0.4-1.1,0.2-2.4,1.3-3.1c0.4-0.2,0.9-0.4,1.2-0.7c0.3-0.3,0.4-0.7,0.6-1c0.5-0.9,1.9-1.3,3-0.9
		c0.3,0.1,0.6,0.3,1,0.5c0.6,0.3,1.4,0.3,2,0.4c0.7,0.1,1.4,0.2,2,0.5s1.1,0.8,1.2,1.3c0.1,0.3,0,0.5,0.1,0.8c0.3,1.3,2.5,2,2.6,3.3
		c0,0.5-0.2,1-0.6,1.3c-0.2,0.3-0.8,1-1.2,1.1c-0.4,0.1-0.7-0.3-1-0.4C136.7,170.3,136.3,170.2,136,169.7z"/>
</g>
<path class="st3" d="M108.6,255.5c0,12.2-7.7,22.1-17.2,22.1"/>
<path class="st2" d="M91.4,277.7c0-12.4-8.6-22.4-19.2-22.4"/>
<path class="st2" d="M102.3,256.6c0,11.6-4.9,21-10.9,21"/>
<path class="st3" d="M91.4,277.7c0-15.8-9.9-28.6-22.1-28.6"/>
<ellipse class="st1" cx="92.1" cy="281.2" rx="4.3" ry="0.7"/>
<path class="st16" d="M95,277.8c0,0-2.4-0.1-3.2-0.6c-0.7-0.5-3.8-1.1-3.9-0.3s-3.7,4.2-0.9,4.2c2.8,0,6.4-0.4,7.1-0.9
	C94.9,279.8,95,277.8,95,277.8z"/>
<path class="st17" d="M87,280.8c2.8,0,6.4-0.4,7.1-0.9c0.6-0.3,0.8-1.6,0.9-2.1h0.1c0,0-0.1,2-0.9,2.4c-0.7,0.4-4.4,0.9-7.1,0.9
	c-0.8,0-1.1-0.3-1-0.7C86.1,280.7,86.3,280.8,87,280.8z"/>
<path class="st3" d="M294.8,262.7c0,9.7-6.1,17.6-13.7,17.6"/>
<path class="st2" d="M281.1,280.3c0-9.8-6.8-17.8-15.2-17.8"/>
<path class="st2" d="M289.8,263.6c0,9.3-3.9,16.7-8.7,16.7"/>
<path class="st3" d="M281.1,280.3c0-12.6-7.9-22.8-17.6-22.8"/>
<ellipse class="st1" cx="281.7" cy="283.1" rx="3.4" ry="0.6"/>
<path class="st16" d="M284,280.4c0,0-1.9,0-2.5-0.5c-0.6-0.4-3-0.9-3.1-0.2c-0.1,0.7-2.9,3.3-0.7,3.3s5.1-0.3,5.7-0.7
	C283.8,282,284,280.4,284,280.4z"/>
<path class="st17" d="M277.6,282.8c2.2,0,5.1-0.3,5.7-0.7c0.4-0.3,0.6-1.2,0.7-1.7h0.1c0,0-0.1,1.6-0.7,1.9
	c-0.6,0.4-3.5,0.7-5.7,0.7c-0.6,0-0.9-0.2-0.8-0.6C276.9,282.6,277.1,282.8,277.6,282.8z"/>
</svg>
