<?xml version="1.0" encoding="utf-8"?>
<!-- Generator: Adobe Illustrator 22.0.1, SVG Export Plug-In . SVG Version: 6.00 Build 0)  -->
<svg version="1.1" id="Layer_1" xmlns="http://www.w3.org/2000/svg" xmlns:xlink="http://www.w3.org/1999/xlink" x="0px" y="0px"
	 viewBox="0 0 1300 400" style="enable-background:new 0 0 1300 400;" xml:space="preserve">
<style type="text/css">
	.st0{fill:url(#SVGID_1_);stroke:#000000;stroke-width:1.6452;stroke-miterlimit:10;}
	.st1{opacity:0.1;fill:#0D8CD8;enable-background:new    ;}
	.st2{fill:#0D8CD8;}
	.st3{fill:#46455B;}
	.st4{fill:#3F3D56;}
	.st5{opacity:0.1;enable-background:new    ;}
	.st6{fill:#323444;}
	.st7{fill:#FBB3B2;}
	.st8{fill:#5B5583;}
	.st9{fill:#3C354C;}
	.st10{fill:#CBCEDA;}
	.st11{fill:#A8A8A8;}
	.st12{opacity:0.2;enable-background:new    ;}
</style>
<linearGradient id="SVGID_1_" gradientUnits="userSpaceOnUse" x1="-9.094947e-13" y1="200" x2="207.0715" y2="200" gradientTransform="matrix(-6.278 0 0 1 1300 0)">
	<stop  offset="0" style="stop-color:#007194"/>
	<stop  offset="1" style="stop-color:#41C1C9"/>
</linearGradient>
<rect class="st0" width="1300" height="400"/>
<path class="st1" d="M274.8,121h-19.6c-1.1,0-2,1-2,2.1v3.2c0,1.2,0.9,2.1,2,2.1h19.6c1.1,0,2.1-1,2.1-2.1v-3.2
	C276.9,121.9,276,121,274.8,121z"/>
<path class="st1" d="M250,128.5h-19.6c-1.1,0-2,1-2,2.1v3.2c0,1.2,0.9,2.1,2,2.1H250c1.1,0,2.1-1,2.1-2.1v-3.2
	C252.1,129.4,251.1,128.5,250,128.5z"/>
<path class="st1" d="M225.2,135.9h-19.6c-1.1,0-2.1,1-2.1,2.1v3.2c0,1.2,0.9,2.1,2.1,2.1h19.6c1.1,0,2-1,2-2.1V138
	C227.2,136.9,226.3,135.9,225.2,135.9z"/>
<path class="st1" d="M274.8,109.8h-19.6c-1.1,0-2,1-2,2.1v3.2c0,1.2,0.9,2.1,2,2.1h19.6c1.1,0,2.1-1,2.1-2.1v-3.2
	C276.9,110.7,276,109.8,274.8,109.8z"/>
<path class="st1" d="M250,117.3h-19.6c-1.1,0-2,1-2,2.1v3.2c0,1.2,0.9,2.1,2,2.1H250c1.1,0,2.1-1,2.1-2.1v-3.2
	C252.1,118.2,251.1,117.3,250,117.3z"/>
<path class="st1" d="M225.2,124.7h-19.6c-1.1,0-2.1,1-2.1,2.1v3.2c0,1.2,0.9,2.1,2.1,2.1h19.6c1.1,0,2-1,2-2.1v-3.2
	C227.2,125.7,226.3,124.7,225.2,124.7z"/>
<path class="st1" d="M197.6,121H178c-1.1,0-2,1-2,2.1v3.2c0,1.2,0.9,2.1,2,2.1h19.6c1.1,0,2.1-1,2.1-2.1v-3.2
	C199.6,121.9,198.7,121,197.6,121z"/>
<path class="st1" d="M172.7,128.5h-19.6c-1.1,0-2.1,1-2.1,2.1v3.2c0,1.2,0.9,2.1,2.1,2.1h19.6c1.1,0,2-1,2-2.1v-3.2
	C174.8,129.4,173.9,128.5,172.7,128.5z"/>
<path class="st1" d="M147.9,135.9h-19.6c-1.1,0-2.1,1-2.1,2.1v3.2c0,1.2,0.9,2.1,2.1,2.1h19.6c1.1,0,2-1,2-2.1V138
	C150,136.9,149,135.9,147.9,135.9z"/>
<path class="st1" d="M197.6,109.8H178c-1.1,0-2,1-2,2.1v3.2c0,1.2,0.9,2.1,2,2.1h19.6c1.1,0,2.1-1,2.1-2.1v-3.2
	C199.6,110.7,198.7,109.8,197.6,109.8z"/>
<path class="st1" d="M172.7,117.3h-19.6c-1.1,0-2.1,1-2.1,2.1v3.2c0,1.2,0.9,2.1,2.1,2.1h19.6c1.1,0,2-1,2-2.1v-3.2
	C174.8,118.2,173.9,117.3,172.7,117.3z"/>
<path class="st1" d="M147.9,124.7h-19.6c-1.1,0-2.1,1-2.1,2.1v3.2c0,1.2,0.9,2.1,2.1,2.1h19.6c1.1,0,2-1,2-2.1v-3.2
	C150,125.7,149,124.7,147.9,124.7z"/>
<path class="st1" d="M274.8,94.8h-19.6c-1.1,0-2,1-2,2.1v3.2c0,1.2,0.9,2.1,2,2.1h19.6c1.1,0,2.1-1,2.1-2.1V97
	C276.9,95.8,276,94.8,274.8,94.8z"/>
<path class="st1" d="M250,102.3h-19.6c-1.1,0-2,1-2,2.1v3.2c0,1.2,0.9,2.1,2,2.1H250c1.1,0,2.1-1,2.1-2.1v-3.2
	C252.1,103.3,251.1,102.3,250,102.3z"/>
<path class="st1" d="M225.2,109.8h-19.6c-1.1,0-2.1,1-2.1,2.1v3.2c0,1.2,0.9,2.1,2.1,2.1h19.6c1.1,0,2-1,2-2.1v-3.2
	C227.2,110.7,226.3,109.8,225.2,109.8z"/>
<path class="st1" d="M274.8,83.6h-19.6c-1.1,0-2,1-2,2.1V89c0,1.2,0.9,2.1,2,2.1h19.6c1.1,0,2.1-1,2.1-2.1v-3.2
	C276.9,84.6,276,83.6,274.8,83.6z"/>
<path class="st1" d="M250,91.1h-19.6c-1.1,0-2,1-2,2.1v3.2c0,1.2,0.9,2.1,2,2.1H250c1.1,0,2.1-1,2.1-2.1v-3.2
	C252.1,92.1,251.1,91.1,250,91.1z"/>
<path class="st1" d="M225.2,98.6h-19.6c-1.1,0-2.1,1-2.1,2.1v3.2c0,1.2,0.9,2.1,2.1,2.1h19.6c1.1,0,2-1,2-2.1v-3.2
	C227.2,99.5,226.3,98.6,225.2,98.6z"/>
<path class="st1" d="M197.6,94.8H178c-1.1,0-2,1-2,2.1v3.2c0,1.2,0.9,2.1,2,2.1h19.6c1.1,0,2.1-1,2.1-2.1V97
	C199.6,95.8,198.7,94.8,197.6,94.8z"/>
<path class="st1" d="M172.7,102.3h-19.6c-1.1,0-2.1,1-2.1,2.1v3.2c0,1.2,0.9,2.1,2.1,2.1h19.6c1.1,0,2-1,2-2.1v-3.2
	C174.8,103.3,173.9,102.3,172.7,102.3z"/>
<path class="st1" d="M147.9,109.8h-19.6c-1.1,0-2.1,1-2.1,2.1v3.2c0,1.2,0.9,2.1,2.1,2.1h19.6c1.1,0,2-1,2-2.1v-3.2
	C150,110.7,149,109.8,147.9,109.8z"/>
<path class="st1" d="M197.6,83.6H178c-1.1,0-2,1-2,2.1V89c0,1.2,0.9,2.1,2,2.1h19.6c1.1,0,2.1-1,2.1-2.1v-3.2
	C199.6,84.6,198.7,83.6,197.6,83.6z"/>
<path class="st1" d="M172.7,91.1h-19.6c-1.1,0-2.1,1-2.1,2.1v3.2c0,1.2,0.9,2.1,2.1,2.1h19.6c1.1,0,2-1,2-2.1v-3.2
	C174.8,92.1,173.9,91.1,172.7,91.1z"/>
<path class="st1" d="M147.9,98.6h-19.6c-1.1,0-2.1,1-2.1,2.1v3.2c0,1.2,0.9,2.1,2.1,2.1h19.6c1.1,0,2-1,2-2.1v-3.2
	C150,99.5,149,98.6,147.9,98.6z"/>
<path class="st1" d="M274.8,254.1h-19.6c-1.1,0-2,1-2,2.1v3.2c0,1.2,0.9,2.1,2,2.1h19.6c1.1,0,2.1-1,2.1-2.1v-3.2
	C276.9,255,276,254.1,274.8,254.1z"/>
<path class="st1" d="M250,261.5h-19.6c-1.1,0-2,1-2,2.1v3.2c0,1.2,0.9,2.1,2,2.1H250c1.1,0,2.1-1,2.1-2.1v-3.2
	C252.1,262.5,251.1,261.5,250,261.5z"/>
<path class="st1" d="M225.2,269h-19.6c-1.1,0-2.1,1-2.1,2.1v3.2c0,1.2,0.9,2.1,2.1,2.1h19.6c1.1,0,2-1,2-2.1v-3.2
	C227.2,270,226.3,269,225.2,269z"/>
<path class="st1" d="M274.8,242.9h-19.6c-1.1,0-2,1-2,2.1v3.2c0,1.2,0.9,2.1,2,2.1h19.6c1.1,0,2.1-1,2.1-2.1V245
	C276.9,243.8,276,242.9,274.8,242.9z"/>
<path class="st1" d="M250,250.3h-19.6c-1.1,0-2,1-2,2.1v3.2c0,1.2,0.9,2.1,2,2.1H250c1.1,0,2.1-1,2.1-2.1v-3.2
	C252.1,251.3,251.1,250.3,250,250.3z"/>
<path class="st1" d="M225.2,257.8h-19.6c-1.1,0-2.1,1-2.1,2.1v3.2c0,1.2,0.9,2.1,2.1,2.1h19.6c1.1,0,2-1,2-2.1v-3.2
	C227.2,258.8,226.3,257.8,225.2,257.8z"/>
<path class="st1" d="M197.6,254.1H178c-1.1,0-2,1-2,2.1v3.2c0,1.2,0.9,2.1,2,2.1h19.6c1.1,0,2.1-1,2.1-2.1v-3.2
	C199.6,255,198.7,254.1,197.6,254.1z"/>
<path class="st1" d="M172.7,261.5h-19.6c-1.1,0-2.1,1-2.1,2.1v3.2c0,1.2,0.9,2.1,2.1,2.1h19.6c1.1,0,2-1,2-2.1v-3.2
	C174.8,262.5,173.9,261.5,172.7,261.5z"/>
<path class="st1" d="M147.9,269h-19.6c-1.1,0-2.1,1-2.1,2.1v3.2c0,1.2,0.9,2.1,2.1,2.1h19.6c1.1,0,2-1,2-2.1v-3.2
	C150,270,149,269,147.9,269z"/>
<path class="st1" d="M197.6,242.9H178c-1.1,0-2,1-2,2.1v3.2c0,1.2,0.9,2.1,2,2.1h19.6c1.1,0,2.1-1,2.1-2.1V245
	C199.6,243.8,198.7,242.9,197.6,242.9z"/>
<path class="st1" d="M172.7,250.3h-19.6c-1.1,0-2.1,1-2.1,2.1v3.2c0,1.2,0.9,2.1,2.1,2.1h19.6c1.1,0,2-1,2-2.1v-3.2
	C174.8,251.3,173.9,250.3,172.7,250.3z"/>
<path class="st1" d="M147.9,257.8h-19.6c-1.1,0-2.1,1-2.1,2.1v3.2c0,1.2,0.9,2.1,2.1,2.1h19.6c1.1,0,2-1,2-2.1v-3.2
	C150,258.8,149,257.8,147.9,257.8z"/>
<path class="st1" d="M274.8,227.9h-19.6c-1.1,0-2,1-2,2.1v3.2c0,1.2,0.9,2.1,2,2.1h19.6c1.1,0,2.1-1,2.1-2.1V230
	C276.9,228.9,276,227.9,274.8,227.9z"/>
<path class="st1" d="M250,235.4h-19.6c-1.1,0-2,1-2,2.1v3.2c0,1.2,0.9,2.1,2,2.1H250c1.1,0,2.1-1,2.1-2.1v-3.2
	C252.1,236.3,251.1,235.4,250,235.4z"/>
<path class="st1" d="M225.2,242.9h-19.6c-1.1,0-2.1,1-2.1,2.1v3.2c0,1.2,0.9,2.1,2.1,2.1h19.6c1.1,0,2-1,2-2.1V245
	C227.2,243.8,226.3,242.9,225.2,242.9z"/>
<path class="st1" d="M274.8,216.7h-19.6c-1.1,0-2,1-2,2.1v3.2c0,1.2,0.9,2.1,2,2.1h19.6c1.1,0,2.1-1,2.1-2.1v-3.2
	C276.9,217.7,276,216.7,274.8,216.7z"/>
<path class="st1" d="M250,224.2h-19.6c-1.1,0-2,1-2,2.1v3.2c0,1.2,0.9,2.1,2,2.1H250c1.1,0,2.1-1,2.1-2.1v-3.2
	C252.1,225.1,251.1,224.2,250,224.2z"/>
<path class="st1" d="M225.2,231.6h-19.6c-1.1,0-2.1,1-2.1,2.1v3.2c0,1.2,0.9,2.1,2.1,2.1h19.6c1.1,0,2-1,2-2.1v-3.2
	C227.2,232.6,226.3,231.6,225.2,231.6z"/>
<path class="st1" d="M197.6,227.9H178c-1.1,0-2,1-2,2.1v3.2c0,1.2,0.9,2.1,2,2.1h19.6c1.1,0,2.1-1,2.1-2.1V230
	C199.6,228.9,198.7,227.9,197.6,227.9z"/>
<path class="st1" d="M172.7,235.4h-19.6c-1.1,0-2.1,1-2.1,2.1v3.2c0,1.2,0.9,2.1,2.1,2.1h19.6c1.1,0,2-1,2-2.1v-3.2
	C174.8,236.3,173.9,235.4,172.7,235.4z"/>
<path class="st1" d="M147.9,242.9h-19.6c-1.1,0-2.1,1-2.1,2.1v3.2c0,1.2,0.9,2.1,2.1,2.1h19.6c1.1,0,2-1,2-2.1V245
	C150,243.8,149,242.9,147.9,242.9z"/>
<path class="st1" d="M197.6,216.7H178c-1.1,0-2,1-2,2.1v3.2c0,1.2,0.9,2.1,2,2.1h19.6c1.1,0,2.1-1,2.1-2.1v-3.2
	C199.6,217.7,198.7,216.7,197.6,216.7z"/>
<path class="st1" d="M172.7,224.2h-19.6c-1.1,0-2.1,1-2.1,2.1v3.2c0,1.2,0.9,2.1,2.1,2.1h19.6c1.1,0,2-1,2-2.1v-3.2
	C174.8,225.1,173.9,224.2,172.7,224.2z"/>
<path class="st1" d="M147.9,231.6h-19.6c-1.1,0-2.1,1-2.1,2.1v3.2c0,1.2,0.9,2.1,2.1,2.1h19.6c1.1,0,2-1,2-2.1v-3.2
	C150,232.6,149,231.6,147.9,231.6z"/>
<ellipse class="st1" cx="197.3" cy="291.1" rx="121" ry="10.3"/>
<path class="st2" d="M307,137.3c-11.4,5.2-18,15.8-18,15.8s11.9,2.3,23.4-2.8c11.4-5.1,18-15.8,18-15.8S318.4,132.2,307,137.3z"/>
<path class="st2" d="M272,117.5c-3.5-6-9.5-8.9-9.5-8.9s-0.3,6.9,3.2,12.9s9.5,8.9,9.5,8.9S275.5,123.5,272,117.5z"/>
<path class="st3" d="M297.9,124c-2.5,9.4-9.5,15.6-9.5,15.6s-2.9-9-0.3-18.4s9.5-15.6,9.5-15.6S300.5,114.6,297.9,124z"/>
<path class="st4" d="M295.6,123.6H98.4c-1.1,0-2,0.9-2,2.1v100.8c0,1.1,0.9,2.1,2,2.1h197.2c1.1,0,2-0.9,2-2.1V125.7
	C297.6,124.5,296.7,123.6,295.6,123.6z"/>
<path class="st5" d="M297.6,222.2H96.5l0,0v4.3c0,1.1,0.9,2.1,2,2.1l0,0h197.2c1.1,0,2-0.9,2-2.1v-4.3H297.6z"/>
<path class="st2" d="M277.3,214.4h-13.5c-0.4,0-0.7,0.3-0.7,0.7v6.3c0,0.4,0.3,0.7,0.7,0.7h13.5c0.4,0,0.7-0.3,0.7-0.7v-6.3
	C278,214.7,277.7,214.4,277.3,214.4z"/>
<path class="st2" d="M258.4,221h-9.1c-0.3,0-0.6,0.3-0.6,0.6l0,0c0,0.3,0.2,0.6,0.6,0.6h9.1c0.3,0,0.6-0.3,0.6-0.6l0,0
	C259,221.3,258.7,221,258.4,221z"/>
<path class="st2" d="M268,144.1c-7.3,1.4-14.7,0-22-0.9l-22-2.9c-0.9-0.1-2.2-0.7-2.7,0.5c-0.3,0.6-0.1,2-0.1,2.7c-0.1,2-0.1,4,0,6
	c0.1,3.8,0.4,7.7,0.7,11.5c0.7,7.5,1.6,14.9,2.1,22.5c0.2,3.8,0.4,7.7,0.3,11.5c0,0.9-0.1,1.8-0.1,2.7c-0.1,1-0.5,2.5,0.6,3.2
	c0.6,0.4,1.8,0.4,2.5,0.5c1.1,0.2,2.2,0.3,3.3,0.4c7.4,0.8,14.9,0.5,22.4,0.4l22.5-0.1h5.5c0.5,0,2.3,0.3,2.6-0.3
	c0.1-0.3-0.2-1.5-0.3-1.8c-0.1-0.5-0.2-1.1-0.3-1.6c-0.6-3.8-1.4-7.5-2.2-11.3c-1.6-8-3.3-16.1-4-24.4c-0.3-4.1-0.1-8.3-0.5-12.4
	c-0.2-1.9-0.4-6.2-2.9-6.3c-2.1-0.1-4.2,0-6.3,0c-0.2,0-0.4-0.2-0.4-0.4s0.2-0.4,0.4-0.4c2,0,3.9-0.1,5.9,0c1.3,0,2.2,0.3,2.8,1.6
	c1.6,3.2,1.4,7.5,1.5,11c0.1,8.4,1.4,16.6,3,24.7c0.8,4.1,1.7,8.2,2.5,12.3c0.4,2,0.7,3.9,1.1,5.9c0.2,0.9,0.9,3,0.2,3.9
	s-2.8,0.4-3.7,0.4h-6.6l-12.6,0.1c-8.2,0-16.3,0.3-24.5,0c-3.9-0.1-8-0.3-11.8-1.3c-1.1-0.3-1.7-0.8-1.7-2.1
	c-0.1-1.9,0.2-3.9,0.3-5.9c0.3-16.7-3.5-33.2-3.1-49.9c0-1.1-0.4-4,0.8-4.7c0.5-0.3,1.2-0.1,1.8-0.1c1.1,0.1,2.1,0.3,3.2,0.4l14,1.8
	c4.5,0.6,8.9,1.2,13.4,1.7c4.7,0.6,9.5,0.9,14.2,0C268.3,143.1,268.5,144,268,144.1L268,144.1z"/>
<path class="st2" d="M276.8,154.3l-55.1-2.8c-0.5,0-0.5-0.9,0-0.9l55.1,2.8C277.3,153.4,277.3,154.3,276.8,154.3z"/>
<path class="st2" d="M259.8,147.1c0.5,0.6,0.5,1.5-0.1,2c-0.1,0.1-0.3,0.2-0.4,0.3c-0.7,0.4-1.6,0.1-2.4-0.1
	c-1.1-0.3-2.2-0.5-3.3-0.8c-2.5-0.5-5-0.7-7.5-0.7c-1.1,0-2.3,0-3.4,0.1c-0.8,0-1.7,0.1-2.4-0.4c-0.8-0.6-1.1-1.8-0.3-2.5
	c1.1-1,3.5-0.4,4.8-0.3c4.6,0.4,9.2,1.1,13.8,2.1c0.5,0.1,0.3,0.9-0.2,0.8c-3-0.7-6-1.2-9-1.6c-1.5-0.2-3-0.4-4.5-0.5
	c-0.7-0.1-1.4-0.1-2.1-0.2c-0.3,0-0.6,0-0.8,0c-0.9,0-1-0.1-0.5,1c0.5,1,0.3,0.9,1.1,0.8c0.3,0,0.7,0,1-0.1c0.7,0,1.4,0,2.1,0
	c1.5,0,3,0.1,4.5,0.2c1.3,0.1,2.5,0.3,3.8,0.5c0.8,0.1,1.6,0.3,2.3,0.5c0.3,0.1,0.7,0.2,1,0.3c0.2,0,0.3,0.1,0.5,0.1
	c0.6,0.2,1.1-0.1,1.5-0.9C258.9,147.4,259.4,146.8,259.8,147.1L259.8,147.1z"/>
<path class="st2" d="M249.8,159.4c4-0.2,8.3,1,10.9,4.3c2.1,2.6,3.2,7.1,1.1,10.1c-2.3,3.2-7.5,2.6-10.6,1.3
	c-3.3-1.4-6.9-4.4-7.8-8.1c-1.2-4.6,2.8-8.1,6.9-8.2c0.5,0,0.5,0.9,0,0.9c-2.4,0-4.7,1.1-5.8,3.4c-1.2,2.4-0.2,5,1.4,6.9
	c2.5,3.1,6.3,5.4,10.3,5.3c2.4,0,5-0.9,5.7-3.5c0.6-2.1,0.1-4.4-0.9-6.3c-2.3-4-6.9-5.4-11.1-5.2
	C249.3,160.3,249.3,159.4,249.8,159.4L249.8,159.4z"/>
<path class="st2" d="M253.8,165.8c0.6-0.2,1.2,0.1,1.4,0.7c0.1,0.2,0.1,0.3,0.1,0.5c-0.1,1.1-1.3,1.4-2.2,1.4
	c-0.8-0.1-1.7-0.4-1.4-1.4c0.1-0.4,0.3-0.7,0.7-0.8c0.2-0.1,0.5-0.1,0.8-0.1c0.1,0,1,0.4,0.6-0.1l0.7-0.1c-0.1,0.2-0.2,0.4-0.2,0.6
	c0,0.2-0.2,0.4-0.4,0.4c-0.1,0-0.1,0-0.2-0.1c-0.3-0.1-0.6,0-0.7,0.3c0,0.1-0.1,0.2,0,0.4s-0.1,0.5-0.3,0.5c-0.2,0-0.3,0-0.4-0.2
	c-0.3-0.5-0.6-1.5-0.2-2.1c0.3-0.4,0.8-0.3,1.1,0c0.2,0.2,0.4,0.3,0.6,0.5c0.3,0.3,0.6,0.5,0.4-0.1c-0.2-1.1-1.2-1.9-2.1-2.4
	l0.6-0.5c0.3,1.2,0.9,2.4,1.7,3.4l-0.7,0.3c0-0.8-0.4-1.6-1.1-1.9h0.4l-0.2,0.4c0.1,0.5-0.7,0.8-0.8,0.2c-0.1-0.7,0.3-1.6,1.1-1.3
	c1,0.4,1.4,1.5,1.4,2.6c0,0.3-0.5,0.6-0.7,0.3c-0.9-1.1-1.5-2.4-1.9-3.8c-0.1-0.2,0.1-0.5,0.3-0.5c0.1,0,0.2,0,0.3,0
	c0.8,0.4,1.5,1,2,1.8c0.3,0.6,0.8,1.5,0.4,2.1c-0.2,0.4-0.8,0.6-1.2,0.4l0,0c-0.3-0.2-0.5-0.4-0.7-0.6c-0.1-0.1-0.2-0.3-0.4-0.3
	c-0.1-0.1-0.1,0,0,0.2c0,0.3,0.1,0.6,0.2,0.8l-0.8,0.3c-0.2-0.8,0.2-1.6,1-1.8c0.3-0.1,0.7-0.1,1,0.1l-0.6,0.4c0-0.4,0.1-0.7,0.3-1
	c0.1-0.2,0.4-0.3,0.6-0.1c0,0,0.1,0,0.1,0.1c0.4,0.5,0.5,1.2,0,1.7c-0.4,0.3-0.6,0-1-0.1c-1.5-0.2-0.6,0.5-0.1,0.5
	c0.2,0,0.5,0,0.7-0.1c0.6-0.2,0.6-0.5,0.1-0.8C253.5,166.9,253.3,166,253.8,165.8L253.8,165.8z"/>
<path class="st2" d="M254.5,167.4c-0.3,1.1,1.1,1.5,1.7,1.9c0.5,0.3,0.9,0.6,1.2,1.1c0.7,1,1,2.2,1.2,3.4c0.1,0.5-0.7,0.8-0.8,0.2
	c-0.1-0.9-0.4-1.7-0.7-2.5c-0.5-1-1.2-1.4-2.1-1.9s-1.6-1.3-1.3-2.5C253.8,166.6,254.6,166.8,254.5,167.4L254.5,167.4z"/>
<path class="st2" d="M253.1,166.8c0.4,0.1,0.7,0.4,0.7,0.9c0,0.3-0.2,0.6-0.4,0.8c-0.4,0.6-0.6,1.2-0.8,1.8c-0.1,0.6-0.3,1.7,0,2.3
	c0.6,1.1,1.6,0.9,2.5,0.9c0.8,0,1.5,0.3,1.4-0.9c0-0.7-0.5-1.4-0.8-1.9l0.8-0.1c-0.2,0.9-0.2,1.8-0.3,2.7c0,0.4-0.6,0.6-0.8,0.2
	c-0.4-1-0.8-2-1.1-3l0.8-0.1l-0.1,2.2c0,0.2-0.2,0.4-0.4,0.4c-0.1,0-0.3-0.1-0.3-0.2c-0.1-0.1-0.2-0.2-0.2-0.4c0-0.1,0.2-1,0.3-0.7
	l-0.8,0.1l-0.1-2.1l0.8,0.1c-0.2,0.6-0.2,1.2-0.2,1.8c0.1,0.5-0.7,0.6-0.8,0.1l-0.5-2.8l0.8,0.1c-0.2,0.4-0.2,0.8-0.1,1.2
	c0.1,0.6-0.8,0.5-0.8,0c-0.1-0.6,0-1.2,0.3-1.7c0.1-0.2,0.4-0.3,0.6-0.1c0.1,0.1,0.2,0.1,0.2,0.2l0.5,2.8l-0.8,0.1
	c-0.1-0.7,0-1.4,0.2-2c0.1-0.2,0.3-0.4,0.5-0.3c0.2,0.1,0.3,0.2,0.3,0.4l0.1,2.1c0,0.5-0.7,0.6-0.8,0.1v-0.1c0-0.1,0-0.3,0.1-0.4
	c0.9-1,1,0.6,1.3,1l-0.8,0.2l0.1-2.2c0-0.5,0.7-0.6,0.8-0.1c0.2,1,0.6,1.9,1,2.8l-0.8,0.2c0-1,0.1-1.9,0.3-2.9
	c0.1-0.4,0.6-0.4,0.8-0.1c0.6,0.8,1.5,2.6,0.8,3.6c-0.6,0.9-2.7,0.5-3.5,0.5c-1.4-0.1-1.9-1-2-2.3c-0.1-0.6,0-1.3,0.1-1.9
	c0.1-0.3,0.8-2.5,1.1-2.4C252.3,167.5,252.5,166.7,253.1,166.8L253.1,166.8z"/>
<path class="st2" d="M254.7,168.7l2.3,3.1l-0.7,0.4l-1.7-2.5l0.8-0.3l0.8,3.3c0.1,0.2-0.1,0.5-0.3,0.5c-0.2,0-0.3,0-0.4-0.2
	c-0.4-0.6-0.8-1.3-1.3-1.8l0.7-0.4c0.2,0.7,0.5,1.4,1,2l-0.7,0.4c0-0.4-0.1-0.8-0.3-1.1c-0.2-0.5,0.5-0.9,0.7-0.4s0.5,0.9,0.8,1.3
	l-0.8,0.1l-0.2-0.8l0.8-0.1l-0.1,0.7c-0.1,0.2-0.3,0.4-0.5,0.3c-0.1,0-0.1-0.1-0.2-0.1c-0.7-0.8-1.3-1.6-1.7-2.6h0.7
	c-0.2,0.4-0.3,0.7-0.4,1.1c-0.1,0.5-0.8,0.3-0.8-0.1c-0.1-1-0.2-1.9-0.2-2.9h0.8v1.8c0,0.5-0.7,0.6-0.8,0.1
	c-0.1-0.4-0.2-0.9-0.4-1.2h0.7c-0.2,0.3-0.3,0.6-0.3,1c0,0.2-0.2,0.4-0.4,0.4c-0.2,0-0.4-0.2-0.4-0.4l-0.1-0.6h0.8
	c-0.1,0.5-0.4,3.4,0.7,3c0.2,0,0.2,0,0.2,0l-0.2-0.5l-0.6-1.3l0.8-0.2c0,0.6-0.1,1.4,0.2,1.9c0.3,0.4,1.1,0.6,1.6,0.3
	c0.3-0.2,0.5-0.5,0.7-0.8l0.6,0.6c-0.5,0.3-1.2,1.2-1.8,1.3c-0.4,0-0.8-0.4-1.1-0.7c-0.9-1-1.4-2.3-1.3-3.7c0-0.2,0.2-0.4,0.4-0.4
	c0.2,0,0.4,0.2,0.4,0.4v1c0,0.2-0.2,0.4-0.4,0.4c-0.2,0-0.4-0.2-0.4-0.4v-2.4c0-0.2,0.2-0.4,0.4-0.4c0.2,0,0.4,0.2,0.4,0.4
	c0,0.6,0,1.2,0.1,1.7l-0.8,0.1c0.1-0.7,0.1-1.4,0.1-2.1c0-0.2,0.2-0.4,0.4-0.4c0.2,0,0.3,0.1,0.4,0.3c0.1,0.5,0.3,1.1,0.4,1.6
	l-0.8-0.1l0.1-0.2c0-0.5,0.9-0.6,0.8,0c0,0.2-0.1,0.5-0.2,0.7c-0.2,0.4-0.7,0.2-0.8-0.1c-0.2-0.5-0.3-1.1-0.4-1.6l0.8-0.1
	c0,0.7,0,1.4-0.1,2.1c0,0.4-0.7,0.6-0.8,0.1c-0.1-0.6-0.2-1.3-0.2-2h0.8v2.4h-0.8v-1h0.8c0,1.1,0.3,2.1,1,3c0.1,0.1,0.2,0.2,0.3,0.4
	c0.2,0.2,0.4,0.2,0.5-0.1c0.4-0.2,0.8-0.6,1.1-0.9c0.3-0.3,0.8,0.3,0.6,0.6c-0.6,0.9-1.6,1.9-2.8,1.4c-1.2-0.5-1.4-2.2-1.3-3.4
	c0-0.4,0.6-0.6,0.8-0.2c0.3,0.6,0.6,1.2,0.8,1.8c0.1,0.2,0.3,0.5,0.2,0.8c-0.1,0.6-0.8,0.5-1.3,0.5c-1.8-0.1-1.5-2.8-1.3-4.1
	c0.1-0.4,0.7-0.4,0.8,0c0.1,0.3,0.1,0.5,0.1,0.8H252c0-0.5,0.2-1,0.4-1.4c0.1-0.2,0.4-0.3,0.6-0.1c0.1,0,0.1,0.1,0.1,0.1
	c0.2,0.4,0.4,0.9,0.5,1.4l-0.8,0.1v-1.8c0-0.2,0.2-0.4,0.4-0.4c0.2,0,0.4,0.2,0.4,0.4c0,1,0.1,1.9,0.2,2.9l-0.8-0.1
	c0.1-0.5,0.3-0.9,0.5-1.3c0.1-0.2,0.4-0.3,0.6-0.1c0.1,0,0.1,0.1,0.1,0.1c0.4,0.9,0.9,1.7,1.5,2.4l-0.7,0.2l0.1-0.7
	c0.1-0.4,0.6-0.4,0.8-0.1c0.3,0.4,0.4,1,0.3,1.5c-0.1,0.4-0.6,0.4-0.8,0.1c-0.3-0.4-0.6-0.8-0.8-1.3l0.7-0.4
	c0.2,0.4,0.3,0.9,0.4,1.4c0,0.4-0.4,0.8-0.7,0.4c-0.6-0.7-1-1.5-1.3-2.4c-0.1-0.4,0.4-0.8,0.7-0.4c0.5,0.6,1,1.3,1.4,2L255,173
	l-0.8-3.3c-0.1-0.2,0.1-0.5,0.3-0.5c0.2,0,0.3,0,0.4,0.2l1.7,2.5c0.3,0.5-0.4,0.9-0.7,0.4l-2.3-3.1
	C253.6,168.7,254.3,168.3,254.7,168.7L254.7,168.7z"/>
<path class="st2" d="M219.5,179.1c-3.3-2.1-5.9-5.3-8.9-7.9c-3.2-2.9-6.5-5.5-9.9-8c-6.7-4.9-13.7-9.3-20.6-13.6
	c-0.2-0.1-0.3-0.4-0.1-0.6c0.1-0.2,0.4-0.3,0.5-0.1c7,4.4,14,8.7,20.6,13.6c3.1,2.3,6.2,4.7,9.2,7.3c3.2,2.8,6.1,6.3,9.7,8.6
	C220.4,178.6,219.9,179.4,219.5,179.1L219.5,179.1z"/>
<path class="st2" d="M169.3,136.2c3.6,0.4,7.4,1.3,9.7,4.6c1.9,2.8,1.9,7.7,0.1,10.6c-2,3.3-6.2,3.4-9.4,2.3
	c-3.2-1.1-6.6-2.9-6.5-6.9c0-2.2,0.8-4.4,1.6-6.4c0.7-1.7,2-3.2,3.9-3c0.5,0.1,0.5,0.9,0,0.9c-2.6-0.2-3.4,2.9-4,4.9
	c-0.6,1.9-1.1,4.1-0.2,5.9s3,2.8,4.7,3.5c1.9,0.7,4.1,1.2,6.1,0.6c4-1.2,5.1-6.4,3.9-10.2c-1.3-4.3-6-5.6-9.8-6
	C168.8,137,168.8,136.1,169.3,136.2L169.3,136.2z"/>
<path class="st2" d="M163.8,169.5c3.6,0.4,7.4,1.3,9.7,4.6c1.9,2.8,1.9,7.7,0.1,10.6c-2,3.3-6.2,3.4-9.4,2.3s-6.6-2.9-6.5-6.9
	c0-2.2,0.8-4.4,1.6-6.4c0.7-1.7,2-3.2,3.9-3c0.5,0.1,0.5,0.9,0,0.9c-2.6-0.2-3.4,2.9-4,4.9c-0.6,1.9-1.1,4.1-0.2,5.9s3,2.8,4.7,3.5
	c1.9,0.7,4.1,1.2,6.1,0.6c4-1.2,5.1-6.4,3.9-10.2c-1.3-4.3-6-5.6-9.8-6C163.3,170.3,163.3,169.5,163.8,169.5L163.8,169.5z"/>
<path class="st2" d="M174.8,144.6l-2.6,3.1c-0.2,0.2-0.4,0.2-0.6,0c0-0.1-0.1-0.1-0.1-0.2c-0.6-1.5-0.4-3.1-0.6-4.7
	c-0.1-1.6-0.5-3.3-1.2-4.8c-1.3-3.1-3.4-5.6-6.2-7.4c-0.5-0.3,0-1,0.4-0.7c2.7,1.7,4.9,4.2,6.2,7.1c0.7,1.4,1.1,3,1.4,4.6
	c0.3,1.9,0,3.8,0.7,5.6l-0.7-0.2l2.6-3.1C174.5,143.6,175.1,144.2,174.8,144.6L174.8,144.6z"/>
<path class="st2" d="M218.1,182.5c-14.2-0.5-28.5-0.5-42.7-0.3c-0.5,0-0.5-0.9,0-0.9c14.2-0.3,28.5-0.2,42.7,0.3
	C218.7,181.6,218.7,182.5,218.1,182.5z"/>
<path class="st2" d="M172.5,174c-4.9,2-9.5,4.4-14,7.3c-0.5,0.3-0.9-0.5-0.4-0.7c4.5-2.9,9.2-5.4,14.2-7.4
	C172.7,172.9,172.9,173.8,172.5,174L172.5,174z"/>
<path class="st2" d="M163.6,170.1c4.9,6,7.8,13.5,8.1,21.4c0,0.6-0.8,0.6-0.8,0c-0.3-7.7-3.1-15-7.9-20.8
	C162.7,170.2,163.3,169.6,163.6,170.1L163.6,170.1z"/>
<path class="st2" d="M274,179.3l-30.8-0.4h-3.5c-0.6,0-1.3,0-1.9,0c-0.9,0-1.5,0.8-1.5,1.7c0,2,1.3,1.9,2.8,2l3.8,0.2l15.6,0.7
	c2.8,0.1,5.6,0.3,8.4,0.4c2.5,0.1,7.3-0.8,6.2-4.6c-0.2-0.5,0.6-0.8,0.8-0.2c0.6,1.9-0.4,3.8-2,4.8c-2.2,1.4-5.2,0.9-7.6,0.8
	l-19.2-0.9l-4.7-0.2c-1.2-0.1-2.9,0.2-3.9-0.4c-1.3-0.7-1.5-3.4-0.7-4.5c0.4-0.6,1-0.6,1.7-0.7c1.7-0.1,3.5,0,5.2,0.1l9.6,0.1
	l21.8,0.3C274.5,178.5,274.5,179.3,274,179.3L274,179.3z"/>
<g id="b30eccf6-7cfe-48df-9caa-415a128bd568">
	<path class="st6" d="M149.4,285c0.7,0.5,1.5,0.7,2.2,1.1s1.4,1,1.6,1.8c0.1,0.3,0.1,0.5,0,0.8c-0.2,0.3-0.5,0.5-0.8,0.6
		c-2.9,1.4-6.3,1.4-9.3,0.1c-0.5-0.3-1.1-0.5-1.6-0.7c-0.7-0.1-1.4-0.2-2.1-0.2s-1.4-0.1-2.2-0.3c-0.4,0-0.7-0.2-1-0.4
		c-0.3-0.3-0.4-0.7-0.4-1.1c-0.3-2.2,0.2-4.5,1.4-6.4c0.2-0.3,0.4-0.5,0.6-0.7c0.3-0.2,0.6-0.3,1-0.3c1.4-0.2,2.8-0.5,4.2-0.5
		c1,0,1.5,0.5,2.2,1.2C146.7,281.6,147.6,283.8,149.4,285z"/>
	<path class="st6" d="M129,284.7c0,1.4-0.2,2.9-1,4c-0.4,0.5-0.8,0.9-1.3,1.2c-1.7,1.1-4,1.6-5.9,0.6c-0.3-0.1-0.5-0.4-0.7-0.6
		c-0.3-0.5-0.1-1.1,0-1.7l2.6-9.5c1.7,0.3,4.2,0.5,5.7,1.4C129.6,280.8,129,283.5,129,284.7z"/>
	<path class="st7" d="M150.9,226c0.2,0.5,0.7,0.8,1.1,1.2c0.4,0.5,0.3,1.2,0.2,1.9c-0.2,0.9-0.6,1.8-1.2,2.5s-1.6,1-2.5,0.9
		c-0.9-0.2-1.7-1-1.7-1.9c0-0.4,0.1-0.8,0.3-1.2l1.9-5.7c0-0.1,0.1-0.2,0.1-0.2c0.1,0,0.1,0,0.2,0c0.4,0.2,1.3,0.4,1.6,0.9
		C151.1,224.8,150.7,225.5,150.9,226z"/>
	<path class="st6" d="M151.8,225.7c-0.7-0.1-1.3-0.5-1.9-0.8s-1.4-0.4-2,0.1c-0.2,0.1-0.3,0.3-0.5,0.3c0.3-1.4,0.7-2.8,1.2-4.1
		c0-0.1,0.1-0.1,0.1-0.2c0.1,0,0.2,0,0.2,0l1.9,0.5c0.7,0.2,0.8,0.1,0.7,0.8C151.5,222.7,151.4,225.7,151.8,225.7z"/>
	<path class="st8" d="M152,184.8c0.3,0.4,0.3,1,0.3,1.5c0,2.5,0,5.1-0.4,7.6c-0.1,0.6-0.2,1.2-0.2,1.8c-0.1,0.8-0.1,1.7,0,2.5
		l0.3,11.1c0,1.4,0.1,2.8,0.9,3.9c0.2,0.4,0.4,0.8,0.3,1.2c-0.2,2.8-0.7,5.5-1.1,8.3c-1.4-0.7-3.1-0.6-4.5,0.2
		c-1.4-4.6-2.2-9.3-2.3-14.1c-0.1-2.4,0-4.7-0.3-7c-0.6-3.9-0.3-7.9,0.1-11.9c0.1-1.2,0.4-2.5,1.2-3.5c0.7-0.8,1.7-1.4,2.8-1.7
		C150,184.5,150.9,184.8,152,184.8z"/>
	<path class="st5" d="M152,184.8c0.3,0.4,0.3,1,0.3,1.5c0,2.5,0,5.1-0.4,7.6c-0.1,0.6-0.2,1.2-0.2,1.8c-0.1,0.8-0.1,1.7,0,2.5
		l0.3,11.1c0,1.4,0.1,2.8,0.9,3.9c0.2,0.4,0.4,0.8,0.3,1.2c-0.2,2.8-0.7,5.5-1.1,8.3c-1.4-0.7-3.1-0.6-4.5,0.2
		c-1.4-4.6-2.2-9.3-2.3-14.1c-0.1-2.4,0-4.7-0.3-7c-0.6-3.9-0.3-7.9,0.1-11.9c0.1-1.2,0.4-2.5,1.2-3.5c0.7-0.8,1.7-1.4,2.8-1.7
		C150,184.5,150.9,184.8,152,184.8z"/>
	<path class="st9" d="M148.6,216.9c1.9,9.9,0.8,20.1-2.9,29.4c-0.3,0.7-0.6,1.4-0.7,2.2c-0.2,1.4,0.5,2.8,0.8,4.1
		c0.8,3.1,0.4,6.4-0.2,9.6c-0.2,1.3-0.4,2.6-0.7,4c-0.2,1.3-0.4,2.7,0.1,3.9c-0.5,2.1-0.8,4.3-1.3,6.4c-0.1,0.2-0.1,0.3,0,0.5
		c0.1,0.3,0.3,0.5,0.5,0.7c0.7,0.8,1,1.9,0.8,3c-1.3-0.9-3-0.6-4.5,0c-1.4,0.6-2.9,1.4-4.4,1.4c0.2-1.9,0.4-3.9-0.2-5.7
		c-0.4-1-1.1-2-1.1-3.1c0-1,0.6-1.9,0.7-2.9c0.1-0.6,0-1.2-0.1-1.8c-0.4-3.5,0-7.1,0.5-10.6c0-0.7,0.2-1.4,0.5-2
		c0.2-0.4,0.5-0.8,0.5-1.3s-0.4-1-0.6-1.5c-0.3-0.9,0.2-2.2-0.5-2.8c-2-1.5-1.2-5.2-1.2-7.8c0-2.2,0.1-4.5,0.3-6.7
		c-1.3,3.7-1.8,7.7-1.5,11.6c0.1,1.3,0.3,2.6-0.2,3.8c-0.4,0.9-1.1,1.7-1.3,2.6c-0.1,0.6,0,1.2-0.1,1.8c0,0.6-0.2,1.3-0.7,1.6
		c0,2.8-0.3,5.7-0.3,8.5c0,1.4-0.1,2.8-0.3,4.2c-0.1,0.4-0.2,0.9-0.2,1.4c0.1,0.6,0.2,1.1,0.4,1.7c1,3,0.5,6.3-1.4,8.9
		c-0.7-1.2-2-1.8-3.3-1.9s-2.6,0.2-3.9,0.6c0.2-1.7-0.1-3.4-0.9-4.9c-0.2-0.3-0.4-0.7-0.5-1.1c-0.1-0.7,0.2-1.5,0.4-2.2
		c0.3-1.1,0.2-2.4,0.1-3.6c-0.2-4-0.1-8.1,0.5-12c0.1-0.8,0.3-1.6,0.5-2.3c0.1-0.3,0.2-0.5,0.3-0.8c0.1-0.5,0.2-1,0.2-1.5l0.3-4.6
		c0.2-3.2-0.8-6.4-1.5-9.5c-0.3-1.4-0.7-2.8-0.9-4.2c-0.3-1.9-0.3-3.9-0.8-5.9c-0.4-1.7-1.1-3.4-1.2-5.2c-0.2-2.7,0.9-5.4,1.9-7.9
		c0.4-1,2.1-0.9,3.2-1.1c7.6-1.3,15.6-1.3,22.8,1.6C147.4,215.8,148.1,216.3,148.6,216.9z"/>
	<path class="st7" d="M143.2,165.9l-0.8,3.4c-0.2,0.8-0.4,1.6-0.4,2.4c0,0.3,0.1,0.6,0.2,0.9c0.1,0.2,0.3,0.4,0.5,0.6
		c0.6,0.5,1,1.5,1.6,1.8c-0.3,0.6-0.8,0.2-1.4,0.5c-1.1,0.5-2.1,1.3-3.2,1.6s-2.3,0-3.4-0.3c-1.6-0.4-3.1-1-4.3-2.1
		c-1.2-1.1-2-2-2-3.7c1.4,0.2,2.6-1.3,3.2-2.6c0.2-0.5,0.4-1,0.5-1.5l0.7-3.4c0.8,0.2,1.5,0.8,2.2,1.1c0.8,0.3,1.7,0.3,2.5,0.4
		c1.5,0.1,3,0.3,4.5,0.6c0.2,0,0.5,0.2,0.4,0.4"/>
	<path class="st5" d="M143.2,165.9l-0.8,3.4c-0.2,0.8-0.4,1.6-0.4,2.4c0,0.3,0.1,0.6,0.2,0.9c0.1,0.2,0.3,0.4,0.5,0.6
		c0.6,0.5,1,1.5,1.6,1.8c-0.3,0.6-0.8,0.2-1.4,0.5c-1.1,0.5-2.1,1.3-3.2,1.6s-2.3,0-3.4-0.3c-1.6-0.4-3.1-1-4.3-2.1
		c-1.2-1.1-2-2-2-3.7c1.4,0.2,2.6-1.3,3.2-2.6c0.2-0.5,0.4-1,0.5-1.5l0.7-3.4c0.8,0.2,1.5,0.8,2.2,1.1c0.8,0.3,1.7,0.3,2.5,0.4
		c1.5,0.1,3,0.3,4.5,0.6c0.2,0,0.5,0.2,0.4,0.4"/>
	<ellipse class="st7" cx="139.5" cy="160.1" rx="7.3" ry="7.6"/>
	<path class="st6" d="M137.5,172.7c-0.4-0.9-1-1.7-1.7-2.3c-1-0.9-2.4-1.7-2.7-3.1l-2.2,2.7c-0.1,0.1-0.2,0.3-0.3,0.4
		c-0.1,0.3,0,0.6,0.2,0.9c0.6,0.9,1.4,1.6,2.2,2.2c1.9,1.6,3.7,3.2,5.4,5c0.1,0.1,0.2,0.2,0.3,0.2c0.1,0,0.2,0,0.3-0.1
		c1.5-0.8,2.8-1.9,3.9-3.3c0.1-0.1,0.2-0.2,0.3-0.2c0.1,0,0.2,0.1,0.2,0.1c0.7,0.6,1.6,1.4,2.5,1.3c-1.2-0.9-1.9-2.5-2.2-4
		c-0.1-0.5-0.2-1.1-0.3-1.6c-0.2-0.5-0.6-0.9-1.1-1.1c0.6,1,0.2,2.3-0.6,3.1c-0.8,0.7-1.7,1.2-2.7,1.4
		C138.1,174.5,137.9,173.4,137.5,172.7z"/>
	<path class="st6" d="M147,217.7c-1,0.3-2,0.7-3,1.1c-1.8,0.6-3.8,0.8-5.7,0.6c-0.6,0-1.2-0.2-1.7-0.5c-0.1-0.1-0.2-0.2-0.4-0.3
		c-0.2-0.1-0.5-0.3-0.7-0.3c-2.5-0.8-4.6-2.6-6.7-4.3c-0.1-0.1-0.1-0.1-0.1-0.2c0-0.1,0-0.1,0.1-0.2l1.1-1.3
		c2.8,0.5,5.7,0.3,8.6,0.2c0.6,0,1.2,0,1.8,0c0.6,0.1,1.1,0.2,1.7,0.3c2.1,0.5,4.3,0.7,6.5,1c0.2,0,0.3,0.1,0.4,0.1
		c0.1,0.1,0.2,0.2,0.2,0.3l0.8,1.1c0.3,0.4,0.5,0.8,0.6,1.3c0.2,0.9-0.2,1.1-0.9,1C148.7,217.4,147.8,217.4,147,217.7z"/>
	<path class="st8" d="M138.6,177.2c0.8-0.9,1.8-1.7,2.8-2.3c0.4-0.3,0.9-0.5,1.4-0.6s1,0,1.4,0.4c0.2,0.2,0.4,0.5,0.6,0.8
		c0.3,0.3,0.6,0.5,1,0.6c1.3,0.6,2.4,1.3,3.5,2.1c0.6,0.4,1.1,1,1.6,1.5c1.2,1.7,1.4,3.9,1.4,6c0,1.5-1.4,2.6-2.3,3.7
		c-0.9,1.1-1.7,2.2-2.4,3.4c-0.5,0.8-1,1.7-1,2.7c0.1,0.8,0.5,1.6,0.4,2.4c0,0.3-0.1,0.6-0.1,0.8c0,0.6,0.2,1.1,0.2,1.7
		c0.1,0.8-0.2,1.6-0.2,2.4c0,0.6,0.1,1.1,0.2,1.7c0.5,2.6,1.2,5.3,1.1,7.9l1.5,0.3c-0.5,0.5-0.5,1.4,0,1.9c0.1,0.1,0.2,0.2,0.3,0.2
		c-2.4,0.8-5,0.4-7.5,0.4c-2.1,0-4.2,0.3-6.3,0.2c-2.1,0-4.2-0.4-6-1.7c-0.5-0.3-0.9-0.7-1.4-1c-0.7-0.4-1.4-0.6-2.1-0.7
		c-1.4-0.3-2.8-0.4-4.1-0.4c-0.7,0-1.4,0-2-0.4c-0.6-0.5-0.7-1.3-0.8-2.1c-0.1-0.8-0.1-1.6-0.1-2.5c0-0.6,0-1.3,0.1-1.9
		c0.1-0.5,0.2-0.9,0.3-1.4l1-3.8c0.4-1.6-0.2-3.3-0.3-4.9c0-0.4,0-0.8,0.2-1.1c0.1-0.1,0.2-0.1,0.3-0.3c0-0.1,0-0.3-0.1-0.4
		c-0.6-1.1-1.4-2.2-2.1-3.2c-1.3-1.8-2.4-3.7-3.5-5.7c0.3-4.1,2-7.9,4.7-10.9c0.6-0.6,1.2-1.2,2-1.5c0.5-0.2,1-0.2,1.6-0.3
		c2.2-0.2,4.4-0.3,6.3-1.4c0.1-0.1,0.3-0.2,0.4-0.2c0.4,0,0.7,0.4,1,0.7c0.7,0.9,1.7,1.4,2.6,2C136,173.9,137.4,175.5,138.6,177.2z"
		/>
	<path class="st8" d="M115.6,185.5c-0.4,1.4-0.4,2.9-0.5,4.4c-0.1,0.9-0.2,1.8-0.4,2.6c-0.1,0.5-0.3,0.9-0.5,1.3
		c-0.2,0.4-0.6,0.7-0.8,1.1c-0.1,0.3-0.1,0.6-0.1,0.9v2c-0.1,1.1,0.1,2.1,0.4,3.1l1.2,3.8c0.6,2,1.3,4.1,2.5,5.9
		c0.2,0.3,0.4,0.5,0.7,0.7c0.2,0.1,0.5,0.1,0.7,0.1c0.9,0.2,1.5,0.9,1.5,1.9c0.3-0.4,0.6-0.8,1-1.1l2.4-2c0.8-0.7,1.7-1.4,2.7-1.8
		c-2.8-0.9-4.8-3.4-5.1-6.4c0-0.4-0.1-0.9-0.3-1.3c-0.2-0.3-0.6-0.6-0.6-1c0-0.5,0.5-0.9,0.5-1.4c0-0.3-0.2-0.6-0.3-0.9
		c-0.1-0.4-0.1-0.8,0-1.2l0.3-1.9c0-0.2,0.1-0.4,0.2-0.6c0.1-0.2,0.3-0.3,0.4-0.5c0.6-0.7,0.3-1.7,0-2.5c-0.7-1.8-1.7-3.6-2.8-5.2
		c-0.4-0.5-0.8-1.1-1.1-1.7c-0.3-0.5-0.4-1.3-0.7-1.7C116.5,183.3,116,184.3,115.6,185.5z"/>
	<path class="st6" d="M126.5,208.5c0.1,0.1,0.2,0.2,0.3,0.3c0.3,0.4,0.8,0.7,1.2,0.9c-0.3,0.2-0.5,0.4-0.8,0.6
		c-1.9,1.5-3.7,3.3-5.2,5.2c-0.2-0.6-1.2-0.6-1.5-1.2c-0.1-0.2-0.1-0.4-0.1-0.6c0.1-1,0.2-1.9,0.4-2.9c0.1-0.5,0.3-0.9,0.6-1.3
		c0.4-0.5,1-0.7,1.6-0.9C123.9,208.4,125.6,207.9,126.5,208.5z"/>
	<path class="st7" d="M129.9,210.7c0.8,0.6,1.6,1.4,2.5,1.9c0.7,0.3,1.4,0.4,2,0.9c-0.3,0.7-1.1,1.1-1.9,1.1
		c-0.8-0.1-1.5-0.4-2.1-0.8c-0.5-0.3-1.1-0.7-1.6-0.5c-0.1,0.4,0.3,0.8,0.3,1.3s-0.4,0.8-0.7,1c-1.7,1.1-3.8,1-5.8,0.9
		c-0.1,0-0.2,0-0.3-0.1c-0.1-0.1-0.1-0.2-0.1-0.4c0-0.5,0-0.9,0-1.4c-0.1-0.7,0.2-1.5,0.8-1.9c1.1-1,2.2-1.8,3.4-2.5
		C127.6,209.5,128.8,209.9,129.9,210.7z"/>
	<path class="st9" d="M137,157c1.2,0.2,2.1,1.1,2,2.2c-0.1,1.1-1.2,1.8-2.4,1.7c-1.2-0.2-2.1-1.1-2-2.2
		C134.6,157.5,135.7,156.8,137,157z M136.5,160.6c1,0.1,2-0.5,2.1-1.4s-0.7-1.8-1.7-1.9s-2,0.5-2.1,1.4
		C134.8,159.6,135.5,160.4,136.5,160.6L136.5,160.6z"/>
	<path class="st9" d="M142.9,157.7c1.2,0.2,2.1,1.1,2,2.2c-0.1,1.1-1.2,1.8-2.4,1.7c-1.2-0.2-2.1-1.1-2-2.2S141.7,157.5,142.9,157.7
		z M142.5,161.3c1,0.1,2-0.5,2.1-1.4s-0.6-1.8-1.7-1.9c-1-0.1-2,0.5-2.1,1.4C140.7,160.3,141.5,161.2,142.5,161.3L142.5,161.3z"/>
	<polygon class="st9" points="147.4,158.3 144.7,158.8 145,159.6 147.5,158.8 	"/>
	<polygon class="st9" points="132.5,156.4 135,157.6 134.6,158.3 132.3,156.9 	"/>
	<polygon class="st9" points="140.7,158.7 138.9,158.4 139,158.9 140.6,159 	"/>
	<path class="st10" d="M144.4,158c-0.2-0.4-0.3-0.8-0.3-1.3c0-0.3,0-0.5-0.1-0.8s-0.3-0.6-0.6-0.8c-0.9-0.8-2.1-1.1-3.3-1.2
		c-1.3-0.1-2.6,0.2-3.8,0.9c-0.4,0.2-0.7,0.4-1,0.7c-0.4,0.5-0.5,1.1-0.9,1.6c-0.5,0.6-1.3,0.9-2.1,0.7c-0.1-0.5,0-1,0-1.5
		c-0.1-0.4-0.3-0.9-0.4-1.3c-0.4-1.3,0.2-2.8,1.5-3.6c0.4-0.3,1-0.5,1.3-0.9s0.4-0.8,0.6-1.2c0.6-1,2.2-1.5,3.4-1
		c0.4,0.1,0.7,0.4,1.1,0.5c0.7,0.3,1.5,0.4,2.3,0.5s1.5,0.3,2.3,0.6c0.7,0.4,1.3,0.9,1.4,1.6c0.1,0.3,0.1,0.6,0.1,0.9
		c0.4,1.6,2.8,2.3,3,3.9c0,0.6-0.3,1.1-0.6,1.6c-0.3,0.3-0.9,1.2-1.3,1.3s-0.8-0.3-1.2-0.5C145.1,158.6,144.7,158.6,144.4,158z"/>
</g>
<path class="st3" d="M113.2,259.2c0,14.4-8.7,26.1-19.4,26.1"/>
<path class="st2" d="M93.8,285.4c0-14.6-9.7-26.4-21.7-26.4"/>
<path class="st2" d="M106.2,260.5c0,13.7-5.5,24.8-12.4,24.8"/>
<path class="st3" d="M93.8,285.4c0-18.7-11.2-33.8-25.1-33.8"/>
<ellipse class="st1" cx="94.6" cy="289.5" rx="4.8" ry="0.9"/>
<path class="st11" d="M97.9,285.5c0,0-2.8-0.1-3.6-0.7c-0.8-0.6-4.2-1.4-4.4-0.4c-0.2,1-4.1,4.9-1,4.9s7.2-0.5,8.1-1
	C97.7,287.9,97.9,285.5,97.9,285.5z"/>
<path class="st12" d="M88.8,289.1c3.1,0,7.2-0.5,8.1-1c0.6-0.4,0.9-1.8,1-2.5H98c0,0-0.2,2.3-1,2.8s-4.9,1.1-8.1,1
	c-0.9,0-1.2-0.3-1.2-0.8C87.7,288.9,88.1,289.1,88.8,289.1z"/>
<path class="st3" d="M324.2,267.7c0,11.5-6.9,20.8-15.5,20.8"/>
<path class="st2" d="M308.7,288.5c0-11.6-7.7-21-17.3-21"/>
<path class="st2" d="M318.6,268.7c0,10.9-4.4,19.7-9.9,19.7"/>
<path class="st3" d="M308.7,288.5c0-14.8-8.9-26.9-20-26.9"/>
<ellipse class="st1" cx="309.4" cy="291.8" rx="3.8" ry="0.7"/>
<path class="st11" d="M312,288.6c0,0-2.2-0.1-2.9-0.6s-3.4-1.1-3.5-0.3c-0.2,0.8-3.3,3.9-0.8,3.9s5.8-0.4,6.4-0.8
	S312,288.6,312,288.6z"/>
<path class="st12" d="M304.7,291.4c2.5,0,5.8-0.4,6.4-0.8c0.5-0.3,0.7-1.5,0.8-2h0.1c0,0-0.1,1.8-0.8,2.3c-0.7,0.4-3.9,0.8-6.4,0.8
	c-0.7,0-1-0.3-0.9-0.7C303.9,291.3,304.2,291.4,304.7,291.4z"/>
</svg>
