<?xml version="1.0" encoding="utf-8"?>
<!-- Generator: Adobe Illustrator 22.0.1, SVG Export Plug-In . SVG Version: 6.00 Build 0)  -->
<svg version="1.1" id="Layer_1" xmlns="http://www.w3.org/2000/svg" xmlns:xlink="http://www.w3.org/1999/xlink" x="0px" y="0px"
	 viewBox="0 0 1300 400" style="enable-background:new 0 0 1300 400;" xml:space="preserve">
<style type="text/css">
	.st0{fill:url(#SVGID_1_);stroke:#000000;stroke-width:1.6452;stroke-miterlimit:10;}
	.st1{opacity:0.5;fill:#DEE3F3;enable-background:new    ;}
	.st2{opacity:0.45;}
	.st3{fill:#B8D2DD;}
	.st4{opacity:0.1;fill:#B8D2DD;enable-background:new    ;}
	.st5{fill:#7DBAD8;}
	.st6{opacity:0.1;enable-background:new    ;}
	.st7{opacity:0.3;enable-background:new    ;}
	.st8{fill:#F7D5DD;}
	.st9{fill:#FFD037;}
	.st10{fill:#DBDBDB;}
	.st11{opacity:0.2;enable-background:new    ;}
</style>
<linearGradient id="SVGID_1_" gradientUnits="userSpaceOnUse" x1="650" y1="200" x2="1950" y2="200" gradientTransform="matrix(-1 0 0 -1 1950 400)">
	<stop  offset="0" style="stop-color:#00354D"/>
	<stop  offset="0.4129" style="stop-color:#00364F"/>
	<stop  offset="0.5616" style="stop-color:#003C56"/>
	<stop  offset="0.6676" style="stop-color:#004561"/>
	<stop  offset="0.7534" style="stop-color:#005272"/>
	<stop  offset="0.8268" style="stop-color:#006388"/>
	<stop  offset="0.8918" style="stop-color:#0078A4"/>
	<stop  offset="0.9492" style="stop-color:#0091C3"/>
	<stop  offset="1" style="stop-color:#00ACE6"/>
	<stop  offset="1" style="stop-color:#0093C7"/>
	<stop  offset="1" style="stop-color:#0075A3"/>
	<stop  offset="1" style="stop-color:#005B83"/>
	<stop  offset="1" style="stop-color:#004567"/>
	<stop  offset="1" style="stop-color:#003351"/>
	<stop  offset="1" style="stop-color:#002540"/>
	<stop  offset="1" style="stop-color:#001B35"/>
	<stop  offset="1" style="stop-color:#00162E"/>
	<stop  offset="1" style="stop-color:#00142C"/>
</linearGradient>
<rect x="0" y="0" class="st0" width="1300" height="400"/>
<ellipse class="st1" cx="1096.9" cy="281" rx="66.8" ry="11.2"/>
<g class="st2">
	<path class="st3" d="M1080.8,164.3c0,0.1,0,0.3,0,0.4C1080.8,164.6,1080.8,164.4,1080.8,164.3z"/>
	<path class="st3" d="M1114.4,156.3c0,0,0,0.1,0,0.1C1114.4,156.3,1114.4,156.3,1114.4,156.3z"/>
	<path class="st3" d="M1114.4,155.9c0,0,0,0.1,0,0.1C1114.4,156,1114.4,156,1114.4,155.9z"/>
	<path class="st3" d="M1114.4,165c0,0.1,0,0.1-0.1,0.2C1114.4,165.1,1114.4,165,1114.4,165z"/>
	<path class="st3" d="M1114.4,164.7c0,0.1,0,0.1,0,0.2C1114.4,164.8,1114.4,164.7,1114.4,164.7z"/>
	<path class="st3" d="M1082.4,166.9c-0.2-0.1-0.4-0.3-0.6-0.4C1081.9,166.6,1082.2,166.7,1082.4,166.9z"/>
	<path class="st3" d="M1081.7,166.4c-0.1-0.1-0.2-0.2-0.2-0.3C1081.6,166.3,1081.6,166.3,1081.7,166.4z"/>
	<path class="st3" d="M1131.3,221.5c0-0.1-0.1-0.2-0.1-0.3C1131.3,221.3,1131.3,221.4,1131.3,221.5z"/>
	<path class="st3" d="M1129.9,219.8c0.1,0.1,0.2,0.1,0.3,0.2C1130.1,219.9,1130,219.9,1129.9,219.8z"/>
	<path class="st3" d="M1130.6,220.3c0.2,0.2,0.3,0.4,0.5,0.5C1130.9,220.6,1130.7,220.4,1130.6,220.3z"/>
	<path class="st3" d="M1130.2,220c0.1,0.1,0.2,0.1,0.3,0.2C1130.4,220.2,1130.3,220.1,1130.2,220z"/>
	<path class="st3" d="M1131.2,221.2c-0.1-0.1-0.1-0.2-0.2-0.3C1131.1,221,1131.2,221.1,1131.2,221.2z"/>
	<path class="st3" d="M1131.4,221.9c0-0.1,0-0.2-0.1-0.3C1131.4,221.7,1131.4,221.8,1131.4,221.9z"/>
	<path class="st3" d="M1218.4,206.1h-16.6c0.8-0.5,1.3-1.4,1.3-2.4v-7.6c0-1.6-1.3-2.9-2.9-2.9l0,0h-19.1c1.2-0.4,2-1.5,2-2.7v-7.6
		c0-0.9-0.5-1.8-1.3-2.4h18.3c1.6,0,2.9-1.3,2.9-2.9l0,0V170c0-1.6-1.3-2.9-2.9-2.9l0,0h-20.4c1.2-0.4,2-1.5,2-2.7v-7.6
		c0-0.9-0.5-1.8-1.3-2.4h19.6c1.6,0,2.9-1.3,2.9-2.9l0,0v-7.6c0-1.6-1.3-2.9-2.9-2.9l0,0h-10.3c1.2-0.4,2-1.5,2-2.7v-7.6
		c0-1.6-1.3-2.9-2.9-2.9l0,0h-27.8c-1.6,0-2.9,1.3-2.9,2.9l0,0c0-1.6-1.3-2.9-2.9-2.9l0,0h-27.9c-1.1,0-2.1,0.7-2.6,1.7
		c0,0.2,0.1,0.4,0.1,0.6v7.6c0,0.4-0.1,0.8-0.3,1.2c0.1,0.7,0.5,1.3,1,1.7h7.2c0.7,0,1.3,0.2,1.8,0.7h3.1c-1.2,0.4-2,1.5-2,2.7
		c0-0.2,0-0.4-0.1-0.5v0v7.6c0,0.2,0,0.5-0.1,0.7c0.1,0.1,0.1,0.1,0.1,0.2c0-0.1,0-0.2,0-0.4c0,0.2,0,0.3,0.1,0.5
		c0,0.1,0.1,0.2,0.1,0.3c0.2,0.7,0.6,1.2,1.1,1.6h-2.5c0,0,0.1,0,0.1-0.1c-0.2,0-0.5,0-0.7,0c-0.1,0-0.2,0-0.2-0.1
		c-0.3,0.1-0.5,0.1-0.8,0.1l-17.1,0.5c-0.8,0.5-1.3,1.4-1.3,2.4v7.6c0,1.3,0.8,2.4,2,2.7l16.4,0.1c0.3,0,0.6,0.1,0.9,0.1
		c0.2,0,0.4,0.1,0.5,0.1c0,0,0,0,0.1,0c-0.2-0.1-0.3-0.2-0.5-0.2h4c-1.2,0.4-2,1.5-2,2.7c0-0.2,0-0.3-0.1-0.5c0,0-0.1,0.1-0.1,0.1
		c0,0.2,0.1,0.4,0.1,0.5v7.6c0,0.4,0.1,0.3,0.1-0.1c0,0.9,0.5,1.8,1.3,2.4l10.2,0.3c0.3,0,0.7,0.1,1,0.2h2.5c-0.4,0.3-0.8,0.7-1,1.2
		c0.3,0.4,0.4,1,0.4,1.5v7.6c0,0.4-0.1,0.8-0.2,1.1c0.4,0.6,0.9,1,1.6,1.3h-2.7c-0.5,0.3-1,0.5-1.6,0.5h-10.1
		c-0.8,0.5-1.3,1.4-1.3,2.4c0-1-0.4,9-0.4,9c0,0.9,15.7,1.3,15.7,1.3c0.4,0,0.8,0.1,1.2,0.2c0.2,0,0.3-0.1,0.5-0.1c0,0,0,0,0,0h2.5
		c-0.8,0.5-1.3,1.4-1.3,2.4c0-0.1,0-0.3,0-0.4c0,0,0,0.1-0.1,0.1c0.1,0.2,0.1,0.4,0.1,0.7v7.3c0,1.6,1.3,2.9,2.9,2.9l0,0h-4.4
		c-0.4,0.2-0.9,0.3-1.3,0.3H1133c-1,0.5-1.6,1.5-1.6,2.6v7.6c0,1.6,1.3,2.9,2.9,2.9l0,0h27.9c1.6,0,2.9-1.3,2.9-2.9l0,0
		c0,1.6,1.3,2.9,2.9,2.9l0,0h27.9c1.6,0,2.9-1.3,2.9-2.9l0,0v-7.6c0-1.6-1.3-2.9-2.9-2.9l0,0h22.6c1.6,0,2.9-1.3,2.9-2.9l0,0V209
		C1221.3,207.4,1220,206.1,1218.4,206.1L1218.4,206.1z M1149.4,154.3c-0.8,0.5-1.3,1.4-1.3,2.4c0-0.9-0.5-1.8-1.3-2.4H1149.4z
		 M1146.1,167.1c1.2-0.4,2-1.5,2-2.7c0,1.3,0.8,2.4,2,2.7H1146.1z M1156.2,140.9c1.2-0.4,2-1.5,2-2.7c0,1.3,0.8,2.4,2,2.7H1156.2z
		 M1165.1,222.4c0-1.6-1.3-2.9-2.9-2.9l0,0h5.8C1166.4,219.5,1165.1,220.8,1165.1,222.4L1165.1,222.4z M1168.2,206.1
		c0.8-0.5,1.3-1.4,1.3-2.4c0,0.9,0.5,1.8,1.3,2.4H1168.2z M1169.4,196.1c0-1.3-0.8-2.4-2-2.7h4
		C1170.2,193.7,1169.4,194.8,1169.4,196.1z M1168.2,179.9c0.8-0.5,1.3-1.4,1.3-2.4c0,0.9,0.5,1.8,1.3,2.4H1168.2z M1169.4,170
		c0-1.3-0.8-2.4-2-2.7h4C1170.2,167.6,1169.4,168.7,1169.4,170L1169.4,170z M1168.2,153.8c0.8-0.5,1.3-1.4,1.3-2.4
		c0,0.9,0.5,1.8,1.3,2.4H1168.2z M1169.4,143.8c0-1.3-0.8-2.4-2-2.7h4C1170.2,141.5,1169.4,142.5,1169.4,143.8z M1188.9,206.6
		c-0.8,0.5-1.3,1.4-1.3,2.4c0-0.9-0.5-1.8-1.3-2.4H1188.9z M1184.8,219.5c1.6,0,2.9-1.3,2.9-2.9l0,0c0,1.6,1.3,2.9,2.9,2.9l0,0
		H1184.8z"/>
	<path class="st3" d="M1135.8,203.7"/>
	<path class="st3" d="M1131.5,222.4c0-0.1,0-0.2,0-0.4C1131.4,222.1,1131.5,222.2,1131.5,222.4z"/>
	<path class="st3" d="M1114.5,164.3c0,0.1,0,0.2,0,0.3C1114.5,164.5,1114.5,164.4,1114.5,164.3z"/>
	<path class="st3" d="M1080.9,164.7c0,0.1,0.1,0.2,0.1,0.3C1080.9,165,1080.9,164.9,1080.9,164.7z"/>
	<path class="st3" d="M1048.5,181.8c-0.1-0.1-0.1-0.1-0.1-0.2c-0.1-0.1-0.1-0.2-0.1-0.2c0,0.2,0,0.4,0,0.6c0.1,0.3,0.1,0.6,0.1,0.9
		c0-0.3,0.1-0.6,0.1-0.8C1048.6,181.9,1048.5,181.9,1048.5,181.8C1048.5,181.8,1048.5,181.8,1048.5,181.8z"/>
	<path class="st3" d="M1088,127.7h-27.9c-1.6,0-2.9,1.3-2.9,2.9l0,0c0-1.6-1.3-2.9-2.9-2.9l0,0h-27.9c-1.6,0-2.9,1.3-2.9,2.9l0,0
		v7.6c0,1.3,0.8,2.4,2,2.7H1004c-1.6,0-2.9,1.3-2.9,2.9l0,0v7.6c0,0.9,0.5,1.8,1.3,2.4h-19.6c-1.6,0-2.9,1.3-2.9,2.9l0,0v7.6
		c0,1.6,1.3,2.9,2.9,2.9l0,0h20.4c-1.2,0.4-2,1.5-2,2.7v7.6c0,0.9,0.5,1.8,1.3,2.4H984c-1.6,0-2.9,1.3-2.9,2.9l0,0v7.6
		c0,1.6,1.3,2.9,2.9,2.9l0,0h19.1c-1.2,0.4-2,1.5-2,2.7v7.6c0,1.6,1.3,2.9,2.9,2.9l0,0h16.6c-0.8,0.5-1.3,1.4-1.3,2.4v7.6
		c0,1.6,1.3,2.9,2.9,2.9h-22.6c-1.6,0-2.9,1.3-2.9,2.9l0,0v7.6c0,1.6,1.3,2.9,2.9,2.9l0,0h27.9c1.6,0,2.9-1.3,2.9-2.9l0,0
		c0,1.6,1.3,2.9,2.9,2.9l0,0h27.9c1.6,0,2.9-1.3,2.9-2.9l0,0v-7.6c0-1.1-0.6-2.1-1.6-2.6h-6c-0.5,0-0.9-0.1-1.3-0.3h-5.1
		c1.6,0,2.9-1.3,2.9-2.9l0,0c0,1.3,0.7-7.3,0.7-7.3c0-1.6,1.3-2.9,2.9-2.9l0,0l10.6-0.3c0.3-0.2,0.6-0.5,0.8-0.8
		c-0.2-0.4-0.2-0.7-0.2-1.1v-7.6c0-0.6,0.2-1.1,0.5-1.6c-0.2-0.5-0.6-1-1.1-1.3H1052c-0.5,0-1.1-0.2-1.6-0.5h-4c1.2-0.4,2-1.5,2-2.7
		l-0.1-7.6c0-0.3,0-0.7,0-0.9c-0.2-0.6-0.6-1.1-1.1-1.5h2.5c0,0,0,0-0.1,0.1c1.4-0.1,17.5-1,18.8-2.1c0-0.2-0.1-0.4,0-0.6
		c0-0.2,0-0.3,0-0.4v-7.6c0-0.1,0-0.2,0-0.3c-0.2-1.1-0.9-2-2-2.3h3.5c0.4-0.2,0.9-0.3,1.3-0.3h8c1-0.5,1.6-1.5,1.6-2.6v-7.6
		c0-0.9-0.5-1.8-1.3-2.4l-8.3-0.5c-1.4,0-2.3-0.5-1.6,0h-2.5c0.8-0.5,1.2-1.4,1.3-2.3c0-0.2-0.1-0.4-0.1-0.5v-7.6c0,0,0,0,0,0
		c-0.2-1-0.9-1.9-2-2.2h3c0.5-0.4,1.2-0.7,1.8-0.7h18.6c0.7-0.5,1.1-1.4,1.1-2.2v-7.6C1090.9,129,1089.7,127.7,1088,127.7
		L1088,127.7z M1014.7,154.3c-0.8,0.5-1.3,1.4-1.3,2.4c0-0.9-0.5-1.8-1.3-2.4H1014.7z M1013.5,164.3c0,1.3,0.8,2.4,2,2.7h-4
		C1012.7,166.7,1013.5,165.6,1013.5,164.3z M1016,180.5c-0.8,0.5-1.3,1.4-1.3,2.4c0-0.9-0.5-1.8-1.3-2.4H1016z M1012.8,193.2
		c1.2-0.4,2-1.5,2-2.7c0,1.3,0.8,2.4,2,2.7H1012.8z M1048.4,154.3c-0.8,0.5-1.3,1.4-1.3,2.4c0-0.9-0.5-1.8-1.3-2.4H1048.4z
		 M1030.5,222.4c0-1.6-1.3-2.9-2.9-2.9l0,0h5.8C1031.8,219.5,1030.5,220.8,1030.5,222.4L1030.5,222.4z M1033.5,206.1
		c0.8-0.5,1.3-1.4,1.3-2.4c0,0.9,0.5,1.8,1.3,2.4H1033.5z M1034.8,196.1c0-1.3-0.8-2.4-2-2.7h4
		C1035.6,193.7,1034.8,194.8,1034.8,196.1L1034.8,196.1z M1033.5,179.9c0.8-0.5,1.3-1.4,1.3-2.4c0,0.9,0.5,1.8,1.3,2.4H1033.5z
		 M1034.8,170c0-1.3-0.8-2.4-2-2.7h4C1035.6,167.6,1034.8,168.7,1034.8,170L1034.8,170z M1033.5,153.8c0.8-0.5,1.3-1.4,1.3-2.4
		c0,0.9,0.5,1.8,1.3,2.4H1033.5z M1034.8,143.8c0-1.3-0.8-2.4-2-2.7h4C1035.6,141.5,1034.8,142.5,1034.8,143.8L1034.8,143.8z
		 M1045.1,167.1c1.2-0.4,2-1.5,2-2.7c0,1.3,0.8,2.4,2,2.7H1045.1z M1055.3,140.9c1.2-0.4,2-1.5,2-2.7c0,1.3,0.8,2.4,2,2.7H1055.3z"
		/>
	<path class="st3" d="M1081.8,154.6C1081.8,154.6,1081.8,154.5,1081.8,154.6C1081.8,154.5,1081.8,154.5,1081.8,154.6z"/>
	<path class="st3" d="M1081.6,154.8C1081.6,154.8,1081.6,154.8,1081.6,154.8C1081.6,154.8,1081.6,154.8,1081.6,154.8z"/>
	<path class="st3" d="M1081.3,155L1081.3,155C1081.3,155,1081.3,155,1081.3,155z"/>
	<path class="st3" d="M1080.9,165.2c0,0.1,0.1,0.2,0.1,0.3C1081,165.4,1081,165.3,1080.9,165.2z"/>
	<path class="st3" d="M1081.2,165.8c0.1,0.1,0.1,0.2,0.2,0.3C1081.4,166,1081.3,165.9,1081.2,165.8z"/>
	<path class="st3" d="M1081.1,165.5c0.1,0.1,0.1,0.2,0.2,0.3C1081.2,165.7,1081.1,165.6,1081.1,165.5z"/>
	<path class="st3" d="M1080.9,156c0,0,0-0.1,0-0.1C1080.9,156,1080.9,156,1080.9,156z"/>
	<path class="st3" d="M1081,155.7C1081,155.7,1081,155.7,1081,155.7C1081,155.6,1081,155.7,1081,155.7z"/>
	<path class="st3" d="M1080.8,156.4c0,0,0-0.1,0-0.1C1080.9,156.3,1080.9,156.3,1080.8,156.4z"/>
	<path class="st3" d="M1081.2,155.4C1081.2,155.4,1081.2,155.3,1081.2,155.4C1081.2,155.3,1081.2,155.4,1081.2,155.4z"/>
	<path class="st4" d="M1055.3,141.1h-29.1c-1.3,0-2.3-1-2.3-2.3V130c0-1.3,1-2.3,2.3-2.3h29.1c1.3,0,2.3,1,2.3,2.3v8.8
		C1057.6,140,1056.6,141.1,1055.3,141.1z"/>
	<path class="st4" d="M1156,141.1h-29.1c-1.3,0-2.3-1-2.3-2.3V130c0-1.3,1-2.3,2.3-2.3h29.1c1.3,0,2.3,1,2.3,2.3v8.8
		C1158.2,140,1157.2,141.1,1156,141.1z"/>
	<path class="st4" d="M1200.7,154.1h-29c-1.3,0-2.3-1-2.3-2.3V143c0-1.3,1-2.3,2.3-2.3h29.1c1.3,0,2.3,1,2.3,2.3v8.8
		C1203,153.1,1202,154.1,1200.7,154.1z"/>
	<path class="st4" d="M1145.8,167.2h-29c-1.3,0-2.3-1-2.3-2.3v-8.8c0-1.3,1-2.3,2.3-2.3h29c1.3,0,2.3,1,2.3,2.3v8.8
		C1148.1,166.2,1147.1,167.2,1145.8,167.2z"/>
	<path class="st4" d="M1200.7,180.6h-29c-1.3,0-2.3-1-2.3-2.3v-8.8c0-1.3,1-2.3,2.3-2.3h29.1c1.3,0,2.3,1,2.3,2.3v8.8
		C1203,179.6,1202,180.6,1200.7,180.6z"/>
	<path class="st4" d="M1200.7,206.7h-29c-1.3,0-2.3-1-2.3-2.3v-8.8c0-1.3,1-2.3,2.3-2.3h29.1c1.3,0,2.3,1,2.3,2.3v8.8
		C1203,205.7,1202,206.7,1200.7,206.7z"/>
	<path class="st4" d="M1185.6,206.4h-29.4c-0.9,0-1.7,0.6-2,1.5c0,0.1,0,0.2,0,0.4c0,0.1,0,0.1-0.1,0.2v0v9.2c0,1.2,0.9,2.1,2.1,2.1
		h29.4c1.2,0,2.1-0.9,2.1-2.1v-9.2C1187.7,207.4,1186.7,206.4,1185.6,206.4L1185.6,206.4z"/>
	<path class="st4" d="M1162.8,232.9h-29.1c-1.3,0-2.3-1-2.3-2.3v-8.8c0-1.3,1-2.3,2.3-2.3h29.1c1.3,0,2.3,1,2.3,2.3v8.8
		C1165.1,231.8,1164.1,232.9,1162.8,232.9z"/>
	<path class="st4" d="M1066.1,154.1H1037c-1.3,0-2.3-1-2.3-2.3V143c0-1.3,1-2.3,2.3-2.3h29.1c1.3,0,2.3,1,2.3,2.3v8.8
		C1068.4,153.1,1067.4,154.1,1066.1,154.1z"/>
	<path class="st4" d="M1045.2,167.2h-29c-1.3,0-2.3-1-2.3-2.3v-8.8c0-1.3,1-2.3,2.3-2.3h29.1c1.3,0,2.3,1,2.3,2.3v8.8
		C1047.5,166.2,1046.5,167.2,1045.2,167.2z"/>
	<path class="st4" d="M1032.4,180.6h-29.1c-1.3,0-2.3-1-2.3-2.3v-8.8c0-1.3,1-2.3,2.3-2.3h29.1c1.3,0,2.3,1,2.3,2.3v8.8
		C1034.7,179.6,1033.7,180.6,1032.4,180.6z"/>
	<path class="st4" d="M1046.2,193.7h-29.1c-1.3,0-2.3-1-2.3-2.3v-8.8c0-1.3,1-2.3,2.3-2.3h29.1c1.3,0,2.3,1,2.3,2.3v8.8
		C1048.5,192.6,1047.4,193.7,1046.2,193.7z"/>
	<path class="st4" d="M1032.4,206.7h-29.1c-1.3,0-2.3-1-2.3-2.3v-8.8c0-1.3,1-2.3,2.3-2.3h29.1c1.3,0,2.3,1,2.3,2.3v8.8
		C1034.7,205.7,1033.7,206.7,1032.4,206.7z"/>
	<path class="st3" d="M1017.2,219.8h-29.1c-1.3,0-2.3-1-2.3-2.3v-8.8c0-1.3,1-2.3,2.3-2.3h29.1c1.3,0,2.3,1,2.3,2.3v8.8
		C1019.5,218.8,1018.5,219.8,1017.2,219.8z"/>
	<path class="st3" d="M1213.7,193.7h-29.1c-1.3,0-2.3-1-2.3-2.3v-8.8c0-1.3,1-2.3,2.3-2.3h29.1c1.3,0,2.3,1,2.3,2.3v8.8
		C1216,192.6,1215,193.7,1213.7,193.7z"/>
	<path class="st3" d="M1212.3,167.2h-29.1c-1.3,0-2.3-1-2.3-2.3v-8.8c0-1.3,1-2.3,2.3-2.3h29.1c1.3,0,2.3,1,2.3,2.3v8.8
		C1214.6,166.2,1213.6,167.2,1212.3,167.2z"/>
	<path class="st3" d="M1229.2,232.7h-29.1c-1.3,0-2.3-1-2.3-2.3v-8.8c0-1.3,1-2.3,2.3-2.3h29.1c1.3,0,2.3,1,2.3,2.3v8.8
		C1231.5,231.6,1230.5,232.7,1229.2,232.7z"/>
	<path class="st3" d="M994.6,232.9h-29.1c-1.3,0-2.3-1-2.3-2.3v-8.8c0-1.3,1-2.3,2.3-2.3h29.1c1.3,0,2.3,1,2.3,2.3v8.8
		C996.9,231.9,995.9,232.9,994.6,232.9z"/>
	<path class="st3" d="M999.1,206.5h-29c-1.3,0-2.3-1-2.3-2.3v-8.8c0-1.3,1-2.3,2.3-2.3h29.1c1.3,0,2.3,1,2.3,2.3v8.8
		C1001.4,205.5,1000.4,206.5,999.1,206.5z"/>
	<path class="st3" d="M999.1,180.6h-29c-1.3,0-2.3-1-2.3-2.3v-8.8c0-1.3,1-2.3,2.3-2.3h29.1c1.3,0,2.3,1,2.3,2.3v8.8
		C1001.4,179.5,1000.4,180.6,999.1,180.6z"/>
	<path class="st3" d="M1000.3,154.2h-29.1c-1.3,0-2.3-1-2.3-2.3v-8.8c0-1.3,1-2.3,2.3-2.3h29.1c1.3,0,2.3,1,2.3,2.3v8.8
		C1002.6,153.1,1001.6,154.2,1000.3,154.2z"/>
	<path class="st4" d="M1000.3,154.2h-29.1c-1.3,0-2.3-1-2.3-2.3v-8.8c0-1.3,1-2.3,2.3-2.3h29.1c1.3,0,2.3,1,2.3,2.3v8.8
		C1002.6,153.1,1001.6,154.2,1000.3,154.2z"/>
	<path class="st3" d="M1021.7,141.1h-29.1c-1.3,0-2.3-1-2.3-2.3V130c0-1.3,1-2.3,2.3-2.3h29.1c1.3,0,2.3,1,2.3,2.3v8.8
		C1024.1,140,1023,141.1,1021.7,141.1z"/>
	<path class="st4" d="M1051.1,219.8H1022c-1.3,0-2.3-1-2.3-2.3v-8.8c0-1.3,1-2.3,2.3-2.3h29.1c1.3,0,2.3,1,2.3,2.3v8.8
		C1053.4,218.8,1052.3,219.8,1051.1,219.8z"/>
	<path class="st4" d="M1028.2,232.9h-29.1c-1.3,0-2.3-1-2.3-2.3v-8.8c0-1.3,1-2.3,2.3-2.3h29.1c1.3,0,2.3,1,2.3,2.3v8.8
		C1030.5,231.8,1029.5,232.9,1028.2,232.9z"/>
</g>
<path class="st5" d="M1065.2,165.8h53.7c1.9,0,3.4,1.5,3.4,3.4v21.3c0,1.9-1.5,3.4-3.4,3.4h-53.7c-1.9,0-3.4-1.5-3.4-3.4v-21.3
	C1061.8,167.3,1063.3,165.8,1065.2,165.8z"/>
<rect x="1066.6" y="189.6" class="st6" width="50.9" height="0.5"/>
<rect x="1066.6" y="170.2" class="st7" width="50.9" height="19.3"/>
<circle class="st6" cx="1078.5" cy="180.3" r="7"/>
<circle class="st6" cx="1105.7" cy="180.3" r="7"/>
<rect x="1086.8" y="193.9" class="st5" width="10.5" height="6.1"/>
<rect x="1070.1" y="198.3" class="st5" width="43.8" height="35.1"/>
<rect x="1069.3" y="240.4" class="st5" width="45.6" height="4.4"/>
<polygon class="st5" points="1076.7,255.3 1076.7,260.5 1076.7,268.4 1076.7,272.8 1076.7,275.4 1084.6,275.4 1084.6,272.8 
	1084.6,268.4 1084.6,260.5 1084.6,255.3 1084.6,249.1 1076.7,249.1 "/>
<polygon class="st5" points="1100.4,249.1 1100.4,255.3 1100.4,260.5 1100.4,268.4 1100.4,272.8 1100.4,275.4 1108.3,275.4 
	1108.3,272.8 1108.3,268.4 1108.3,260.5 1108.3,255.3 1108.3,249.1 "/>
<path class="st5" d="M1064.2,206.2v8.1c-2.2,0.4-4.2,1.4-5.8,2.8c-1.5,1.4-2.7,3.2-3.5,5.1c-1,2.5-1.5,5.2-1.7,7.8
	c-0.3,3.5-0.1,7,0.5,10.4h-8.7c-0.4-4.9-0.3-9,0.2-12.6c0.5-4,1.5-7.3,2.8-10c2.5-5.3,6.2-8.2,9.3-9.8
	C1061,206.2,1064.2,206.2,1064.2,206.2z"/>
<rect x="1076.7" y="249.1" class="st7" width="7.9" height="6.1"/>
<rect x="1076.7" y="260.5" class="st7" width="7.9" height="7.9"/>
<rect x="1076.7" y="272.8" class="st7" width="7.9" height="2.6"/>
<rect x="1100.4" y="249.1" class="st7" width="7.9" height="6.1"/>
<rect x="1100.4" y="260.5" class="st7" width="7.9" height="7.9"/>
<rect x="1100.4" y="272.8" class="st7" width="7.9" height="2.6"/>
<path class="st7" d="M1064.2,206.2v8.1c-2.2,0.4-4.2,1.4-5.8,2.8l-1.1-9C1061,206.2,1064.2,206.2,1064.2,206.2z"/>
<path class="st7" d="M1054.9,222.2c-1,2.5-1.5,5.2-1.7,7.8l-8.1-2.2c0.5-4,1.5-7.3,2.8-10L1054.9,222.2z"/>
<path class="st5" d="M1120,206.2v8.1c2.2,0.4,4.2,1.4,5.8,2.8c1.5,1.4,2.7,3.2,3.5,5.1c1,2.5,1.5,5.2,1.7,7.8
	c0.3,3.5,0.1,7-0.5,10.4h8.8c0.4-4.9,0.3-9-0.2-12.6c-0.5-4-1.5-7.3-2.8-10c-2.5-5.3-6.2-8.2-9.3-9.8
	C1123.1,206.2,1120,206.2,1120,206.2z"/>
<path class="st7" d="M1120,206.2v8.1c2.2,0.4,4.2,1.4,5.8,2.8l1.1-9C1123.1,206.2,1120,206.2,1120,206.2z"/>
<path class="st7" d="M1129.3,222.2c1,2.5,1.5,5.2,1.7,7.8l8.1-2.2c-0.5-4-1.5-7.3-2.8-10L1129.3,222.2z"/>
<path class="st6" d="M1114.8,204.5v14.7c-0.5-0.6-0.8-1.3-0.8-2.1v-10.5C1113.9,205.8,1114.2,205.1,1114.8,204.5z"/>
<path class="st6" d="M1070.3,205.5v11c-0.1,0.7-0.3,1.4-0.8,1.9v-14.7C1069.9,204.1,1070.2,204.8,1070.3,205.5z"/>
<rect x="1072.3" y="233.4" class="st6" width="39.5" height="0.5"/>
<rect x="1071.5" y="244.7" class="st6" width="19.3" height="0.4"/>
<rect x="1092.5" y="244.7" class="st6" width="19.3" height="0.4"/>
<rect x="1073.6" y="139.9" class="st5" width="3" height="26"/>
<rect x="1108.2" y="139.9" class="st5" width="3" height="26"/>
<circle class="st6" cx="1075" cy="140" r="3.4"/>
<circle class="st5" cx="1075" cy="139.9" r="3.4"/>
<circle class="st6" cx="1109.8" cy="140" r="3.4"/>
<circle class="st5" cx="1109.8" cy="139.9" r="3.4"/>
<path class="st8" d="M1201.8,222.9c0,0,3.5,4.6-1.6,11.4c-5.1,6.9-9.3,12.7-7.6,17c0,0,7.7-12.8,13.9-12.9
	C1212.8,238.1,1208.7,230.6,1201.8,222.9z"/>
<path class="st6" d="M1201.8,222.9c0.3,0.4,0.5,0.9,0.7,1.4c6.1,7.2,9.3,13.8,3.5,14c-5.5,0.2-12,9.9-13.6,12.4
	c0.1,0.2,0.1,0.4,0.2,0.6c0,0,7.7-12.8,13.9-12.9C1212.8,238.1,1208.7,230.6,1201.8,222.9z"/>
<path class="st9" d="M1208.3,228.7c0,1.6-0.2,2.9-0.4,2.9s-0.4-1.3-0.4-2.9s0.2-0.9,0.4-0.9S1208.3,227.1,1208.3,228.7z"/>
<path class="st9" d="M1210.5,230.6c-1.4,0.8-2.6,1.2-2.7,1c-0.1-0.2,0.9-1,2.3-1.7c1.4-0.8,0.9-0.2,1,0
	C1211.2,230,1211.9,229.8,1210.5,230.6z"/>
<path class="st8" d="M1183.4,222.9c0,0-3.5,4.6,1.6,11.4c5.1,6.9,9.3,12.7,7.6,17c0,0-7.7-12.8-13.9-12.9
	C1172.4,238.1,1176.5,230.6,1183.4,222.9z"/>
<path class="st6" d="M1183.4,222.9c-0.3,0.4-0.5,0.9-0.7,1.4c-6.1,7.2-9.3,13.8-3.5,14c5.5,0.2,12,9.9,13.6,12.4
	c-0.1,0.2-0.1,0.4-0.2,0.6c0,0-7.7-12.8-13.9-12.9C1172.4,238.2,1176.5,230.6,1183.4,222.9z"/>
<path class="st9" d="M1176.9,228.7c0,1.6,0.2,2.9,0.4,2.9s0.4-1.3,0.4-2.9s-0.2-0.9-0.4-0.9S1176.9,227.1,1176.9,228.7z"/>
<path class="st9" d="M1174.7,230.6c1.4,0.8,2.6,1.2,2.7,1c0.1-0.2-0.9-1-2.3-1.7c-1.4-0.8-0.9-0.2-1,0
	C1174,230,1173.3,229.8,1174.7,230.6z"/>
<path class="st10" d="M1178,250.7c0,0,9.7-0.3,12.7-2.4c2.9-2.1,15-4.6,15.7-1.2c0.7,3.4,14.6,16.7,3.6,16.7
	c-11,0.1-25.5-1.7-28.5-3.5C1178.7,258.5,1178,250.7,1178,250.7z"/>
<path class="st11" d="M1210.2,262.6c-11,0.1-25.5-1.7-28.5-3.5c-2.2-1.4-3.1-6.2-3.4-8.5c-0.2,0-0.3,0-0.3,0s0.6,7.8,3.5,9.6
	c2.9,1.8,17.5,3.6,28.5,3.5c3.2,0,4.3-1.1,4.2-2.8C1213.8,262,1212.6,262.6,1210.2,262.6z"/>
</svg>
