<?xml version="1.0" encoding="utf-8"?>
<!-- Generator: Adobe Illustrator 22.0.1, SVG Export Plug-In . SVG Version: 6.00 Build 0)  -->
<svg version="1.1" id="Layer_1" xmlns="http://www.w3.org/2000/svg" xmlns:xlink="http://www.w3.org/1999/xlink" x="0px" y="0px"
	 viewBox="0 0 1300 400" style="enable-background:new 0 0 1300 400;" xml:space="preserve">
<style type="text/css">
	.st0{fill:url(#SVGID_1_);stroke:#000000;stroke-width:1.6452;stroke-miterlimit:10;}
	.st1{opacity:0.5;fill:#DEE3F3;enable-background:new    ;}
	.st2{opacity:0.45;}
	.st3{fill:#0D8CD8;}
	.st4{opacity:0.1;enable-background:new    ;}
	.st5{opacity:0.5;fill:#0D8CD8;enable-background:new    ;}
	.st6{opacity:0.3;enable-background:new    ;}
	.st7{fill:none;stroke:#FC6681;stroke-width:0.5717;stroke-miterlimit:10;}
	.st8{fill:#FC6681;}
	.st9{fill:none;stroke:#FFD037;stroke-width:0.5717;stroke-miterlimit:10;}
	.st10{fill:#FFD037;}
	.st11{fill:#A8A8A8;}
	.st12{opacity:0.2;enable-background:new    ;}
</style>
<linearGradient id="SVGID_1_" gradientUnits="userSpaceOnUse" x1="0" y1="200" x2="1300" y2="200" gradientTransform="matrix(1 0 0 -1 0 400)">
	<stop  offset="0" style="stop-color:#007194"/>
	<stop  offset="1" style="stop-color:#41C1C9"/>
</linearGradient>
<rect class="st0" width="1300" height="400"/>
<ellipse class="st1" cx="1100" cy="284.8" rx="68.2" ry="13.2"/>
<g class="st2">
	<path class="st3" d="M1083.6,147.6c0,0.1,0,0.3,0,0.4C1083.6,147.9,1083.6,147.8,1083.6,147.6z"/>
	<path class="st3" d="M1118,138.2c0,0,0,0.1,0,0.1C1118,138.2,1118,138.2,1118,138.2z"/>
	<path class="st3" d="M1117.9,137.8c0,0,0,0.1,0,0.1C1117.9,137.9,1117.9,137.8,1117.9,137.8z"/>
	<path class="st3" d="M1117.9,148.4c0,0.1,0,0.1,0,0.2C1117.9,148.5,1117.9,148.4,1117.9,148.4z"/>
	<path class="st3" d="M1118,148.1c0,0.1,0,0.1,0,0.2C1118,148.2,1118,148.1,1118,148.1z"/>
	<path class="st3" d="M1085.2,150.6c-0.2-0.1-0.4-0.3-0.6-0.5C1084.8,150.3,1085,150.5,1085.2,150.6z"/>
	<path class="st3" d="M1084.5,150.1c-0.1-0.1-0.2-0.2-0.3-0.3C1084.4,149.9,1084.5,150,1084.5,150.1z"/>
	<path class="st3" d="M1135.2,214.9c0-0.1-0.1-0.3-0.1-0.4C1135.2,214.6,1135.2,214.8,1135.2,214.9z"/>
	<path class="st3" d="M1133.8,212.9c0.1,0.1,0.2,0.1,0.3,0.2C1134,213,1133.9,212.9,1133.8,212.9z"/>
	<path class="st3" d="M1134.4,213.4c0.2,0.2,0.3,0.4,0.5,0.7C1134.8,213.8,1134.6,213.6,1134.4,213.4z"/>
	<path class="st3" d="M1134.1,213.1c0.1,0.1,0.2,0.2,0.3,0.3C1134.3,213.3,1134.2,213.2,1134.1,213.1z"/>
	<path class="st3" d="M1135.1,214.5c0-0.1-0.1-0.2-0.1-0.3C1135,214.2,1135.1,214.4,1135.1,214.5z"/>
	<path class="st3" d="M1135.3,215.3c0-0.1,0-0.2-0.1-0.3C1135.3,215.1,1135.3,215.2,1135.3,215.3z"/>
	<path class="st3" d="M1224.2,196.7h-17c0.8-0.6,1.3-1.7,1.3-2.8v-9c0-1.9-1.3-3.4-3-3.4c0,0,0,0,0,0h-19.5c1.2-0.4,2.1-1.8,2.1-3.2
		v-9c0-1.1-0.5-2.2-1.3-2.8h18.7c1.6,0,3-1.5,3-3.4c0,0,0,0,0,0v-9c0-1.9-1.3-3.4-3-3.4c0,0,0,0,0,0h-20.9c1.2-0.4,2.1-1.8,2.1-3.2
		v-9c0-1.1-0.5-2.2-1.3-2.8h20.1c1.6,0,3-1.5,3-3.4c0,0,0,0,0,0v-9c0-1.9-1.3-3.4-3-3.4c0,0,0,0,0,0h-10.5c1.2-0.4,2.1-1.8,2.1-3.2
		v-9c0-1.9-1.3-3.4-3-3.4c0,0,0,0,0,0h-28.5c-1.6,0-3,1.5-3,3.4c0,0,0,0,0,0c0-1.9-1.3-3.4-3-3.4c0,0,0,0,0,0h-28.5
		c-1.1,0-2.2,0.8-2.7,2c0,0.2,0.1,0.4,0.1,0.7v9c0,0.5-0.1,1-0.3,1.4c0.1,0.8,0.5,1.5,1,2h7.3c0.7,0,1.3,0.3,1.9,0.8h3.2
		c-1.2,0.4-2.1,1.8-2.1,3.2c0-0.2,0-0.4-0.1-0.6c0,0,0,0,0,0v9c0,0.3,0,0.6-0.1,0.8c0,0.1,0.1,0.1,0.1,0.2c0-0.1,0-0.3,0-0.4
		c0,0.2,0,0.4,0,0.6c0,0.1,0.1,0.2,0.1,0.3c0.2,0.8,0.6,1.4,1.2,1.9h-2.5c0,0,0,0,0.1-0.1c-0.2,0-0.5,0-0.7,0c-0.1,0-0.2,0-0.2-0.1
		c-0.3,0.1-0.6,0.1-0.8,0.1l-17.5,0.6c-0.8,0.6-1.3,1.7-1.3,2.8v9c0,1.5,0.8,2.8,2.1,3.2l16.7,0.2c0.3,0,0.6,0.1,0.9,0.1
		c0.2,0,0.4,0.1,0.6,0.1c0,0,0,0,0,0c-0.2-0.1-0.3-0.2-0.5-0.3h4.1c-1.2,0.4-2.1,1.8-2.1,3.2c0-0.2,0-0.4,0-0.6c0,0,0,0.1-0.1,0.1
		c0,0.2,0.1,0.4,0.1,0.7v9c0,0.4,0.1,0.3,0.1-0.2c0,1.1,0.5,2.2,1.3,2.8l10.4,0.4c0.4,0,0.7,0.1,1,0.2h2.5c-0.4,0.4-0.8,0.9-1,1.4
		c0.3,0.5,0.4,1.1,0.4,1.7v9c0,0.5-0.1,0.9-0.2,1.4c0.4,0.7,0.9,1.2,1.6,1.5h-2.7c-0.5,0.4-1,0.5-1.6,0.5h-10.3
		c-0.8,0.6-1.4,1.7-1.4,2.9c0-1.2-0.4,10.6-0.4,10.6c0,1.1,16.1,1.5,16.1,1.5c0.4,0,0.8,0.1,1.2,0.3c0.2,0,0.3-0.1,0.5-0.1
		c0,0,0,0,0,0h2.5c-0.8,0.6-1.3,1.7-1.3,2.8c0-0.2,0-0.3,0-0.5c0,0,0,0.1,0,0.1c0.1,0.2,0.1,0.5,0.1,0.8v8.6c0,1.9,1.3,3.4,3,3.4
		c0,0,0,0,0,0h-4.5c-0.4,0.3-0.9,0.4-1.4,0.4H1137c-1,0.6-1.6,1.7-1.6,3v9c0,1.9,1.3,3.4,3,3.4l0,0h28.5c1.6,0,3-1.5,3-3.4
		c0,0,0,0,0,0c0,1.9,1.3,3.4,3,3.4c0,0,0,0,0,0h28.5c1.6,0,3-1.5,3-3.4c0,0,0,0,0,0v-9c0-1.9-1.3-3.4-3-3.4c0,0,0,0,0,0h23
		c1.6,0,3-1.5,3-3.4c0,0,0,0,0,0v-9C1227.2,198.3,1225.9,196.7,1224.2,196.7C1224.2,196.7,1224.2,196.7,1224.2,196.7z M1153.7,135.9
		c-0.8,0.6-1.3,1.7-1.3,2.8c0-1.1-0.5-2.2-1.3-2.8H1153.7z M1150.3,150.9c1.2-0.4,2.1-1.8,2.1-3.2c0,1.5,0.8,2.8,2.1,3.2H1150.3z
		 M1160.7,120.1c1.2-0.4,2.1-1.8,2.1-3.2c0,1.5,0.8,2.8,2.1,3.2H1160.7z M1169.8,215.9c0-1.9-1.3-3.4-3-3.4c0,0,0,0,0,0h5.9
		C1171.1,212.5,1169.8,214,1169.8,215.9C1169.8,215.9,1169.8,215.9,1169.8,215.9z M1172.9,196.7c0.8-0.6,1.3-1.7,1.3-2.8
		c0,1.1,0.5,2.2,1.3,2.8H1172.9z M1174.2,185c0-1.5-0.8-2.8-2.1-3.2h4.1C1175,182.2,1174.2,183.5,1174.2,185z M1172.9,166
		c0.8-0.6,1.3-1.7,1.3-2.8c0,1.1,0.5,2.2,1.3,2.8H1172.9z M1174.2,154.3c0-1.5-0.8-2.8-2.1-3.2h4.1
		C1175,151.5,1174.2,152.8,1174.2,154.3L1174.2,154.3z M1172.9,135.3c0.8-0.6,1.3-1.7,1.3-2.8c0,1.1,0.5,2.2,1.3,2.8H1172.9z
		 M1174.2,123.5c0-1.5-0.8-2.8-2.1-3.2h4.1C1175,120.8,1174.2,122.1,1174.2,123.5z M1194.1,197.3c-0.8,0.6-1.3,1.7-1.3,2.8
		c0-1.1-0.5-2.2-1.3-2.8H1194.1z M1189.9,212.5c1.6,0,3-1.5,3-3.4c0,0,0,0,0,0c0,1.9,1.3,3.4,3,3.4c0,0,0,0,0,0H1189.9z"/>
	<path class="st3" d="M1139.8,194"/>
	<path class="st3" d="M1135.4,215.9c0-0.1,0-0.3,0-0.4C1135.4,215.6,1135.4,215.7,1135.4,215.9z"/>
	<path class="st3" d="M1118,147.6c0,0.1,0,0.2,0,0.3C1118,147.8,1118,147.7,1118,147.6z"/>
	<path class="st3" d="M1083.6,148.1c0,0.1,0,0.3,0.1,0.4C1083.7,148.4,1083.7,148.3,1083.6,148.1z"/>
	<path class="st3" d="M1050.6,168.2c0,0-0.1-0.1-0.1-0.2c0-0.1-0.1-0.2-0.1-0.3c0,0.2,0,0.5,0,0.7c0.1,0.3,0.1,0.7,0.1,1
		c0-0.3,0-0.7,0.1-1C1050.7,168.4,1050.6,168.3,1050.6,168.2C1050.6,168.2,1050.6,168.2,1050.6,168.2z"/>
	<path class="st3" d="M1091,104.6h-28.5c-1.6,0-3,1.5-3,3.4c0,0,0,0,0,0c0-1.9-1.3-3.4-3-3.4c0,0,0,0,0,0h-28.5c-1.6,0-3,1.5-3,3.4
		c0,0,0,0,0,0v9c0,1.5,0.8,2.8,2.1,3.2h-22.1c-1.6,0-3,1.5-3,3.4c0,0,0,0,0,0v9c0,1.1,0.5,2.2,1.3,2.8h-20.1c-1.6,0-3,1.5-3,3.4
		c0,0,0,0,0,0v9c0,1.9,1.3,3.4,3,3.4c0,0,0,0,0,0h20.9c-1.2,0.4-2.1,1.8-2.1,3.2v9c0,1.1,0.5,2.2,1.3,2.8h-18.7c-1.6,0-3,1.5-3,3.4
		c0,0,0,0,0,0v9c0,1.9,1.3,3.4,3,3.4c0,0,0,0,0,0h19.5c-1.2,0.4-2.1,1.8-2.1,3.2v9c0,1.9,1.3,3.4,3,3.4l0,0h17
		c-0.8,0.6-1.3,1.7-1.3,2.8v9c0,1.9,1.3,3.4,3,3.4h-23c-1.6,0-3,1.5-3,3.4c0,0,0,0,0,0v9c0,1.9,1.3,3.4,3,3.4c0,0,0,0,0,0h28.5
		c1.6,0,3-1.5,3-3.4v0c0,1.9,1.3,3.4,3,3.4c0,0,0,0,0,0h28.5c1.6,0,3-1.5,3-3.4v0v-9c0-1.3-0.6-2.4-1.6-3h-6.1
		c-0.5,0-0.9-0.1-1.4-0.4h-5.2c1.6,0,3-1.5,3-3.4l0,0c0,1.5,0.7-8.6,0.7-8.6c0-1.9,1.3-3.4,3-3.4c0,0,0,0,0,0l10.9-0.4
		c0.3-0.2,0.6-0.6,0.8-0.9c-0.2-0.4-0.2-0.9-0.2-1.3v-9c0-0.7,0.2-1.3,0.5-1.9c-0.2-0.6-0.6-1.2-1.1-1.5h-15.5
		c-0.6,0-1.1-0.2-1.6-0.5h-4.1c1.2-0.4,2.1-1.8,2.1-3.2l-0.1-8.9c0-0.4,0-0.8,0-1.1c-0.2-0.7-0.6-1.4-1.1-1.8h2.5c0,0,0,0-0.1,0
		c1.4-0.1,17.9-1.2,19.2-2.4c0-0.2,0-0.5,0-0.7c0-0.2,0-0.3,0-0.5v-9c0-0.1,0-0.2,0-0.3c-0.2-1.3-1-2.3-2-2.7h3.6
		c0.4-0.3,0.9-0.4,1.4-0.4h8.1c1-0.6,1.6-1.7,1.6-3v-9c0-1.1-0.5-2.2-1.3-2.8l-8.5-0.6c-1.4,0-2.4-0.6-1.6,0h-2.5
		c0.8-0.6,1.3-1.7,1.3-2.8c0-0.2-0.1-0.4-0.1-0.6v-9c0,0,0,0,0,0c-0.2-1.2-1-2.2-2-2.6h3.1c0.5-0.5,1.2-0.8,1.9-0.8h19
		c0.7-0.6,1.1-1.6,1.1-2.6v-9C1094,106.1,1092.6,104.6,1091,104.6L1091,104.6z M1016.1,135.9c-0.8,0.6-1.3,1.7-1.3,2.8
		c0-1.1-0.5-2.2-1.3-2.8H1016.1z M1014.8,147.6c0,1.5,0.8,2.8,2.1,3.2h-4.1C1014,150.4,1014.8,149.1,1014.8,147.6z M1017.4,166.6
		c-0.8,0.6-1.3,1.7-1.3,2.8c0-1.1-0.5-2.2-1.3-2.8H1017.4z M1014.1,181.6c1.2-0.4,2.1-1.8,2.1-3.2c0,1.5,0.8,2.8,2.1,3.2H1014.1z
		 M1050.5,135.9c-0.8,0.6-1.3,1.7-1.3,2.8c0-1.1-0.5-2.2-1.3-2.8H1050.5z M1032.2,215.9c0-1.9-1.3-3.4-3-3.4c0,0,0,0,0,0h5.9
		C1033.5,212.5,1032.2,214,1032.2,215.9C1032.2,215.9,1032.2,215.9,1032.2,215.9z M1035.3,196.7c0.8-0.6,1.3-1.7,1.3-2.8
		c0,1.1,0.5,2.2,1.3,2.8H1035.3z M1036.6,185c0-1.5-0.8-2.8-2.1-3.2h4.1C1037.4,182.2,1036.6,183.5,1036.6,185L1036.6,185z
		 M1035.3,166c0.8-0.6,1.3-1.7,1.3-2.8c0,1.1,0.5,2.2,1.3,2.8H1035.3z M1036.6,154.3c0-1.5-0.8-2.8-2.1-3.2h4.1
		C1037.4,151.5,1036.6,152.8,1036.6,154.3L1036.6,154.3z M1035.3,135.3c0.8-0.6,1.3-1.7,1.3-2.8c0,1.1,0.5,2.2,1.3,2.8H1035.3z
		 M1036.6,123.5c0-1.5-0.8-2.8-2.1-3.2h4.1C1037.4,120.8,1036.6,122.1,1036.6,123.5L1036.6,123.5z M1047.2,150.9
		c1.2-0.4,2.1-1.8,2.1-3.2c0,1.5,0.8,2.8,2.1,3.2H1047.2z M1057.5,120.1c1.2-0.4,2.1-1.8,2.1-3.2c0,1.5,0.8,2.8,2.1,3.2H1057.5z"/>
	<path class="st3" d="M1084.6,136.2C1084.6,136.2,1084.6,136.1,1084.6,136.2C1084.6,136.1,1084.6,136.2,1084.6,136.2z"/>
	<path class="st3" d="M1084.4,136.4C1084.4,136.4,1084.4,136.4,1084.4,136.4C1084.4,136.4,1084.4,136.4,1084.4,136.4z"/>
	<path class="st3" d="M1084.1,136.7C1084.1,136.7,1084.2,136.7,1084.1,136.7C1084.2,136.7,1084.1,136.7,1084.1,136.7z"/>
	<path class="st3" d="M1083.7,148.6c0,0.1,0.1,0.3,0.1,0.4C1083.8,148.9,1083.8,148.7,1083.7,148.6z"/>
	<path class="st3" d="M1084.1,149.4c0.1,0.1,0.1,0.2,0.2,0.3C1084.2,149.7,1084.1,149.5,1084.1,149.4z"/>
	<path class="st3" d="M1083.9,149c0.1,0.1,0.1,0.3,0.2,0.4C1084,149.3,1083.9,149.2,1083.9,149z"/>
	<path class="st3" d="M1083.7,137.9c0,0,0-0.1,0-0.1C1083.7,137.8,1083.7,137.9,1083.7,137.9z"/>
	<path class="st3" d="M1083.8,137.5c0,0,0-0.1,0-0.1C1083.8,137.4,1083.8,137.5,1083.8,137.5z"/>
	<path class="st3" d="M1083.6,138.3c0,0,0-0.1,0-0.1C1083.6,138.2,1083.6,138.2,1083.6,138.3z"/>
	<path class="st3" d="M1084,137.1C1084,137.1,1084,137.1,1084,137.1C1084,137.1,1084,137.1,1084,137.1z"/>
	<path class="st4" d="M1057.6,120.3h-29.7c-1.3,0-2.4-1.2-2.4-2.7v-10.3c0-1.5,1.1-2.7,2.4-2.7h29.7c1.3,0,2.4,1.2,2.4,2.7v10.3
		C1059.9,119.1,1058.9,120.3,1057.6,120.3z"/>
	<path class="st4" d="M1160.4,120.3h-29.7c-1.3,0-2.4-1.2-2.4-2.7v-10.3c0-1.5,1.1-2.7,2.4-2.7h29.7c1.3,0,2.4,1.2,2.4,2.7v10.3
		C1162.8,119.1,1161.7,120.3,1160.4,120.3z"/>
	<path class="st4" d="M1206.1,135.7h-29.7c-1.3,0-2.4-1.2-2.4-2.7v-10.3c0-1.5,1.1-2.7,2.4-2.7h29.7c1.3,0,2.4,1.2,2.4,2.7V133
		C1208.5,134.5,1207.4,135.7,1206.1,135.7z"/>
	<path class="st4" d="M1150,151h-29.7c-1.3,0-2.4-1.2-2.4-2.7V138c0-1.5,1.1-2.7,2.4-2.7h29.7c1.3,0,2.4,1.2,2.4,2.7v10.3
		C1152.4,149.8,1151.3,151,1150,151z"/>
	<path class="st4" d="M1206.1,166.8h-29.7c-1.3,0-2.4-1.2-2.4-2.7v-10.3c0-1.5,1.1-2.7,2.4-2.7h29.7c1.3,0,2.4,1.2,2.4,2.7v10.3
		C1208.5,165.6,1207.4,166.8,1206.1,166.8z"/>
	<path class="st4" d="M1206.1,197.5h-29.7c-1.3,0-2.4-1.2-2.4-2.7v-10.3c0-1.5,1.1-2.7,2.4-2.7h29.7c1.3,0,2.4,1.2,2.4,2.7v10.3
		C1208.5,196.3,1207.4,197.5,1206.1,197.5z"/>
	<path class="st4" d="M1190.7,197.1h-30.1c-1,0-1.8,0.7-2.1,1.8c0,0.1,0,0.3,0,0.4c0,0.1,0,0.2-0.1,0.2c0,0,0,0,0,0v10.8
		c0,1.4,1,2.5,2.1,2.5h30.1c1.2,0,2.1-1.1,2.1-2.5v-10.8C1192.8,198.2,1191.8,197.1,1190.7,197.1L1190.7,197.1z"/>
	<path class="st4" d="M1167.4,228.2h-29.7c-1.3,0-2.4-1.2-2.4-2.7v-10.3c0-1.5,1.1-2.7,2.4-2.7h29.7c1.3,0,2.4,1.2,2.4,2.7v10.3
		C1169.8,227,1168.7,228.2,1167.4,228.2z"/>
	<path class="st4" d="M1068.6,135.7h-29.7c-1.3,0-2.4-1.2-2.4-2.7v-10.3c0-1.5,1.1-2.7,2.4-2.7h29.7c1.3,0,2.4,1.2,2.4,2.7V133
		C1070.9,134.5,1069.9,135.7,1068.6,135.7z"/>
	<path class="st4" d="M1047.2,151h-29.7c-1.3,0-2.4-1.2-2.4-2.7V138c0-1.5,1.1-2.7,2.4-2.7h29.7c1.3,0,2.4,1.2,2.4,2.7v10.3
		C1049.6,149.8,1048.5,151,1047.2,151z"/>
	<path class="st4" d="M1034.2,166.8h-29.7c-1.3,0-2.4-1.2-2.4-2.7v-10.3c0-1.5,1.1-2.7,2.4-2.7h29.7c1.3,0,2.4,1.2,2.4,2.7v10.3
		C1036.5,165.6,1035.5,166.8,1034.2,166.8z"/>
	<path class="st4" d="M1048.2,182.1h-29.7c-1.3,0-2.4-1.2-2.4-2.7v-10.3c0-1.5,1.1-2.7,2.4-2.7h29.7c1.3,0,2.4,1.2,2.4,2.7v10.3
		C1050.6,180.9,1049.5,182.1,1048.2,182.1z"/>
	<path class="st4" d="M1034.2,197.5h-29.7c-1.3,0-2.4-1.2-2.4-2.7v-10.3c0-1.5,1.1-2.7,2.4-2.7h29.7c1.3,0,2.4,1.2,2.4,2.7v10.3
		C1036.5,196.3,1035.5,197.5,1034.2,197.5z"/>
	<path class="st3" d="M1018.6,212.9h-29.7c-1.3,0-2.4-1.2-2.4-2.7v-10.3c0-1.5,1.1-2.7,2.4-2.7h29.7c1.3,0,2.4,1.2,2.4,2.7v10.3
		C1021,211.7,1019.9,212.9,1018.6,212.9z"/>
	<path class="st3" d="M1219.4,182.1h-29.7c-1.3,0-2.4-1.2-2.4-2.7v-10.3c0-1.5,1.1-2.7,2.4-2.7h29.7c1.3,0,2.4,1.2,2.4,2.7v10.3
		C1221.8,180.9,1220.7,182.1,1219.4,182.1z"/>
	<path class="st3" d="M1218,151.1h-29.7c-1.3,0-2.4-1.2-2.4-2.7V138c0-1.5,1.1-2.7,2.4-2.7h29.7c1.3,0,2.4,1.2,2.4,2.7v10.3
		C1220.3,149.9,1219.3,151.1,1218,151.1z"/>
	<path class="st3" d="M1235.2,228h-29.7c-1.3,0-2.4-1.2-2.4-2.7V215c0-1.5,1.1-2.7,2.4-2.7h29.7c1.3,0,2.4,1.2,2.4,2.7v10.3
		C1237.6,226.8,1236.5,228,1235.2,228z"/>
	<path class="st3" d="M995.5,228.3h-29.7c-1.3,0-2.4-1.2-2.4-2.7v-10.3c0-1.5,1.1-2.7,2.4-2.7h29.7c1.3,0,2.4,1.2,2.4,2.7v10.3
		C997.9,227.1,996.8,228.3,995.5,228.3z"/>
	<path class="st3" d="M1000.1,197.2h-29.7c-1.3,0-2.4-1.2-2.4-2.7v-10.3c0-1.5,1.1-2.7,2.4-2.7h29.7c1.3,0,2.4,1.2,2.4,2.7v10.3
		C1002.5,196,1001.4,197.2,1000.1,197.2z"/>
	<path class="st3" d="M1000.1,166.7h-29.7c-1.3,0-2.4-1.2-2.4-2.7v-10.3c0-1.5,1.1-2.7,2.4-2.7h29.7c1.3,0,2.4,1.2,2.4,2.7V164
		C1002.5,165.5,1001.4,166.7,1000.1,166.7z"/>
	<path class="st3" d="M1001.4,135.7h-29.7c-1.3,0-2.4-1.2-2.4-2.7v-10.3c0-1.5,1.1-2.7,2.4-2.7h29.7c1.3,0,2.4,1.2,2.4,2.7V133
		C1003.7,134.5,1002.7,135.7,1001.4,135.7z"/>
	<path class="st4" d="M1001.4,135.7h-29.7c-1.3,0-2.4-1.2-2.4-2.7v-10.3c0-1.5,1.1-2.7,2.4-2.7h29.7c1.3,0,2.4,1.2,2.4,2.7V133
		C1003.7,134.5,1002.7,135.7,1001.4,135.7z"/>
	<path class="st3" d="M1023.2,120.3h-29.7c-1.3,0-2.4-1.2-2.4-2.7v-10.3c0-1.5,1.1-2.7,2.4-2.7h29.7c1.3,0,2.4,1.2,2.4,2.7v10.3
		C1025.6,119.1,1024.5,120.3,1023.2,120.3z"/>
	<path class="st4" d="M1053.2,212.9h-29.7c-1.3,0-2.4-1.2-2.4-2.7v-10.3c0-1.5,1.1-2.7,2.4-2.7h29.7c1.3,0,2.4,1.2,2.4,2.7v10.3
		C1055.6,211.7,1054.5,212.9,1053.2,212.9z"/>
	<path class="st4" d="M1029.8,228.2h-29.7c-1.3,0-2.4-1.2-2.4-2.7v-10.3c0-1.5,1.1-2.7,2.4-2.7h29.7c1.3,0,2.4,1.2,2.4,2.7v10.3
		C1032.2,227,1031.1,228.2,1029.8,228.2z"/>
</g>
<ellipse class="st5" cx="1179.4" cy="77.1" rx="7.7" ry="8.9"/>
<path class="st1" d="M1030.6,93.2h-1.8c0.7,0,1.3-0.7,1.3-1.5c0-0.8-0.6-1.5-1.3-1.5c0,0,0,0,0,0h-14.9c-0.7,0-1.3,0.7-1.3,1.5
	c0,0.8,0.6,1.5,1.3,1.5c0,0,0,0,0,0h1.8c-0.7,0-1.3,0.7-1.3,1.5c0,0.8,0.6,1.5,1.3,1.5c0,0,0,0,0,0h-2.6c-0.7,0-1.3,0.7-1.3,1.5
	c0,0.8,0.6,1.5,1.3,1.5h14.9c0.7,0,1.3-0.7,1.3-1.5c0-0.8-0.6-1.5-1.3-1.5h2.6c0.7,0,1.3-0.7,1.3-1.5
	C1031.9,93.8,1031.3,93.2,1030.6,93.2z"/>
<path class="st1" d="M1178.5,76h-1.4c0.5,0,1-0.5,1-1.1s-0.4-1.1-1-1.1h-11.3c-0.5,0-1,0.5-1,1.1s0.4,1.1,1,1.1h1.4
	c-0.5,0-1,0.5-1,1.1s0.4,1.1,1,1.1h-2c-0.5,0-1,0.5-1,1.1c0,0.6,0.4,1.1,1,1.1l0,0h11.3c0.5,0,1-0.5,1-1.1c0-0.6-0.4-1.1-1-1.1h2
	c0.5,0,1-0.5,1-1.1S1179,76,1178.5,76L1178.5,76z"/>
<path class="st1" d="M1065.8,72.3h-1.8c0.7,0,1.3-0.7,1.3-1.5s-0.6-1.5-1.3-1.5c0,0,0,0,0,0h-14.9c-0.7,0-1.3,0.7-1.3,1.5
	c0,0.8,0.6,1.5,1.3,1.5c0,0,0,0,0,0h1.8c-0.7,0-1.3,0.7-1.3,1.5c0,0.8,0.6,1.5,1.3,1.5c0,0,0,0,0,0h-2.6c-0.7,0-1.3,0.7-1.3,1.5
	c0,0.8,0.6,1.5,1.3,1.5h14.9c0.7,0,1.3-0.7,1.3-1.5c0-0.8-0.6-1.5-1.3-1.5h2.6c0.7,0,1.3-0.7,1.3-1.5
	C1067.1,73,1066.5,72.3,1065.8,72.3z"/>
<path class="st3" d="M1067.7,149.4h54.9c1.9,0,3.5,1.8,3.5,4v25c0,2.2-1.5,4-3.5,4h-54.9c-1.9,0-3.5-1.8-3.5-4v-25
	C1064.2,151.2,1065.7,149.4,1067.7,149.4z"/>
<rect x="1069.1" y="177.3" class="st4" width="52" height="0.6"/>
<rect x="1069.1" y="154.6" class="st6" width="52" height="22.7"/>
<ellipse class="st4" cx="1081.2" cy="166.4" rx="7.2" ry="8.2"/>
<ellipse class="st4" cx="1109" cy="166.4" rx="7.2" ry="8.2"/>
<rect x="1089.7" y="182.4" class="st3" width="10.8" height="7.2"/>
<rect x="1072.7" y="187.5" class="st3" width="44.8" height="41.2"/>
<rect x="1071.8" y="237" class="st3" width="46.6" height="5.2"/>
<polygon class="st3" points="1079.4,254.5 1079.4,260.7 1079.4,270 1079.4,275.2 1079.4,278.3 1087.5,278.3 1087.5,275.2 
	1087.5,270 1087.5,260.7 1087.5,254.5 1087.5,247.3 1079.4,247.3 "/>
<polygon class="st3" points="1103.6,247.3 1103.6,254.5 1103.6,260.7 1103.6,270 1103.6,275.2 1103.6,278.3 1111.7,278.3 
	1111.7,275.2 1111.7,270 1111.7,260.7 1111.7,254.5 1111.7,247.3 "/>
<path class="st3" d="M1066.6,196.8v9.5c-2.2,0.4-4.3,1.6-6,3.3c-1.6,1.7-2.8,3.7-3.5,6c-1,2.9-1.5,6.1-1.7,9.1
	c-0.3,4.1-0.1,8.2,0.5,12.3h-9c-0.4-5.7-0.3-10.6,0.2-14.8c0.6-4.7,1.6-8.6,2.9-11.7c2.6-6.3,6.3-9.7,9.5-11.5
	C1063.4,196.8,1066.6,196.8,1066.6,196.8z"/>
<rect x="1079.4" y="247.3" class="st6" width="8.1" height="7.2"/>
<rect x="1079.4" y="260.7" class="st6" width="8.1" height="9.3"/>
<rect x="1079.4" y="275.2" class="st6" width="8.1" height="3.1"/>
<rect x="1103.6" y="247.3" class="st6" width="8.1" height="7.2"/>
<rect x="1103.6" y="260.7" class="st6" width="8.1" height="9.3"/>
<rect x="1103.6" y="275.2" class="st6" width="8.1" height="3.1"/>
<path class="st6" d="M1066.6,196.8v9.5c-2.2,0.4-4.3,1.6-6,3.3l-1.1-10.6C1063.4,196.8,1066.6,196.8,1066.6,196.8z"/>
<path class="st6" d="M1057.1,215.6c-1,2.9-1.5,6.1-1.7,9.1l-8.2-2.5c0.6-4.7,1.6-8.6,2.9-11.7L1057.1,215.6z"/>
<path class="st3" d="M1123.6,196.8v9.5c2.2,0.4,4.3,1.6,6,3.3c1.6,1.7,2.8,3.7,3.5,6c1,2.9,1.5,6.1,1.7,9.1
	c0.3,4.1,0.1,8.2-0.5,12.3h9c0.4-5.7,0.3-10.6-0.2-14.8c-0.6-4.7-1.6-8.6-2.9-11.7c-2.6-6.3-6.3-9.7-9.5-11.5
	C1126.8,196.8,1123.6,196.8,1123.6,196.8z"/>
<path class="st6" d="M1123.6,196.8v9.5c2.2,0.4,4.3,1.6,6,3.3l1.1-10.6C1126.8,196.8,1123.6,196.8,1123.6,196.8z"/>
<path class="st6" d="M1133.1,215.6c1,2.9,1.5,6.1,1.7,9.1l8.2-2.5c-0.6-4.7-1.6-8.6-2.9-11.7L1133.1,215.6z"/>
<rect x="1089.7" y="182.4" class="st4" width="10.8" height="0.9"/>
<path class="st4" d="M1118.3,194.9v17.3c-0.5-0.7-0.8-1.5-0.8-2.4v-12.4C1117.5,196.4,1117.8,195.6,1118.3,194.9z"/>
<path class="st4" d="M1072.9,196V209c-0.1,0.8-0.3,1.6-0.8,2.2v-17.3C1072.5,194.4,1072.8,195.2,1072.9,196z"/>
<rect x="1075" y="228.8" class="st4" width="40.3" height="0.6"/>
<rect x="1074.1" y="242.2" class="st4" width="19.7" height="0.5"/>
<rect x="1095.6" y="242.2" class="st4" width="19.7" height="0.5"/>
<rect x="1076.3" y="118.9" class="st3" width="3.1" height="30.5"/>
<rect x="1111.6" y="118.9" class="st3" width="3.1" height="30.5"/>
<ellipse class="st4" cx="1077.7" cy="119.1" rx="3.5" ry="4"/>
<ellipse class="st3" cx="1077.7" cy="118.9" rx="3.5" ry="4"/>
<ellipse class="st4" cx="1113.3" cy="119.1" rx="3.5" ry="4"/>
<ellipse class="st3" cx="1113.3" cy="118.9" rx="3.5" ry="4"/>
<path class="st7" d="M1003.9,212.4c0,0,10.2,23.1,1.9,35.8c-8.3,12.6,0.8,47.1,0.8,47.1"/>
<path class="st8" d="M1006.9,205.2c0,4.5-2.8,8.1-2.8,8.1s-2.8-3.6-2.8-8.1s2.8-8.1,2.8-8.1S1006.9,200.7,1006.9,205.2z"/>
<path class="st9" d="M1009.2,212.4c0,0-10.2,23.1-1.9,35.8c8.3,12.6-0.8,47.1-0.8,47.1"/>
<path class="st10" d="M1006.1,205.2c0,4.5,2.8,8.1,2.8,8.1s2.8-3.6,2.8-8.1c0-4.5-2.8-8.1-2.8-8.1S1006.1,200.7,1006.1,205.2z"/>
<path class="st7" d="M1013.3,212.4c0,0,10.2,23.1,1.9,35.8c-8.3,12.6,0.8,47.1,0.8,47.1"/>
<path class="st8" d="M1016.4,205.2c0,4.5-2.8,8.1-2.8,8.1s-2.8-3.6-2.8-8.1c0-4.5,2.8-8.1,2.8-8.1S1016.4,200.7,1016.4,205.2z"/>
<path class="st8" d="M1014.8,223.7c-2.7,3.2-6.9,3.5-6.9,3.5s0.1-4.9,2.8-8.1s6.9-3.5,6.9-3.5S1017.5,220.5,1014.8,223.7z"/>
<path class="st8" d="M1015,239.7c-2.7,3.2-6.9,3.5-6.9,3.5s0.1-4.9,2.8-8.1s6.9-3.5,6.9-3.5S1017.7,236.4,1015,239.7z"/>
<path class="st8" d="M1000.5,248.4c2.5,3.4,2.5,8.2,2.5,8.2s-4.2-0.6-6.7-3.9c-2.5-3.4-2.5-8.2-2.5-8.2S997.9,245.1,1000.5,248.4z"
	/>
<path class="st8" d="M1002.8,214.4c3.2,2.5,4.3,7.2,4.3,7.2s-4.2,0.7-7.4-1.7c-3.2-2.5-4.3-7.2-4.3-7.2S999.6,212,1002.8,214.4z"/>
<path class="st9" d="M1018.6,212.4c0,0-10.2,23.1-1.9,35.8c8.3,12.6-0.8,47.1-0.8,47.1"/>
<path class="st10" d="M1015.6,205.2c0,4.5,2.8,8.1,2.8,8.1s2.8-3.6,2.8-8.1c0-4.5-2.8-8.1-2.8-8.1S1015.6,200.7,1015.6,205.2z"/>
<path class="st10" d="M1016.4,224.1c-2.7,3.2-2.9,8-2.9,8s4.2-0.3,6.9-3.5s2.9-8,2.9-8S1019.1,220.9,1016.4,224.1z"/>
<path class="st10" d="M1021.8,246.1c-2.7,3.2-2.9,8-2.9,8s4.2-0.3,6.9-3.5c2.7-3.2,2.9-8,2.9-8S1024.5,243,1021.8,246.1z"/>
<path class="st9" d="M1013.9,241.3c0,0,6.2-11.2,14.8-11.4"/>
<path class="st7" d="M1009.1,234.5c0,0-6.2-11.2-14.8-11.4"/>
<path class="st9" d="M1008.3,250.5c0,0,6.2-11.2,14.8-11.4"/>
<ellipse class="st10" cx="1028.4" cy="229.8" rx="1.6" ry="1.8"/>
<ellipse class="st8" cx="994.5" cy="223.2" rx="1.6" ry="1.8"/>
<path class="st7" d="M1012.9,254.2c0,0-6.2-11.2-14.8-11.4"/>
<ellipse class="st8" cx="998.2" cy="242.8" rx="1.6" ry="1.8"/>
<ellipse class="st10" cx="1023.2" cy="239.1" rx="1.6" ry="1.8"/>
<path class="st11" d="M1046.9,281.8c0,0-14.8-3.4-18.8-8s-21.8-12.5-23.8-6.8c-2,5.7-26.7,25-9.9,28.5c16.8,3.4,39.6,4.6,44.5,2.3
	C1043.9,295.5,1046.9,281.8,1046.9,281.8z"/>
<path class="st12" d="M994.5,293.4c16.8,3.4,39.6,4.6,44.5,2.3c3.8-1.7,6.4-10.1,7.4-13.9c0.3,0.1,0.5,0.1,0.5,0.1s-3,13.7-7.9,15.9
	c-4.9,2.3-27.7,1.1-44.5-2.3c-4.9-1-6.2-3.3-5.7-6.2C989.1,291.2,990.8,292.6,994.5,293.4z"/>
<path class="st8" d="M1207.2,216.5c0,0,3.6,5.4-1.6,13.4c-5.2,8.1-9.5,14.9-7.8,19.9c0,0,7.8-15,14.2-15.2
	S1214.3,225.5,1207.2,216.5z"/>
<path class="st4" d="M1207.2,216.5c0.3,0.5,0.6,1.1,0.7,1.7c6.2,8.4,9.5,16.3,3.6,16.5c-5.6,0.2-12.3,11.7-13.9,14.6
	c0.1,0.2,0.1,0.4,0.2,0.7c0,0,7.8-15,14.2-15.2C1218.5,234.4,1214.3,225.5,1207.2,216.5z"/>
<path class="st10" d="M1213.9,223.3c0,1.9-0.2,3.4-0.4,3.4s-0.4-1.5-0.4-3.4c0-1.9,0.2-1,0.5-1S1213.9,221.4,1213.9,223.3z"/>
<path class="st10" d="M1216.1,225.5c-1.4,0.9-2.7,1.4-2.8,1.2s1-1.1,2.4-2c1.4-0.9,0.9-0.2,1,0
	C1216.8,224.9,1217.6,224.6,1216.1,225.5z"/>
<path class="st8" d="M1188.5,216.5c0,0-3.6,5.4,1.6,13.4c5.2,8.1,9.5,14.9,7.8,19.9c0,0-7.8-15-14.2-15.2
	C1177.2,234.4,1181.4,225.5,1188.5,216.5z"/>
<path class="st4" d="M1188.5,216.5c-0.3,0.5-0.6,1.1-0.7,1.7c-6.2,8.4-9.5,16.3-3.6,16.5c5.6,0.2,12.3,11.7,13.9,14.6
	c-0.1,0.2-0.1,0.4-0.2,0.7c0,0-7.8-15-14.2-15.2C1177.2,234.4,1181.4,225.5,1188.5,216.5z"/>
<path class="st10" d="M1181.8,223.3c0,1.9,0.2,3.4,0.4,3.4s0.4-1.5,0.4-3.4c0-1.9-0.2-1-0.5-1S1181.8,221.4,1181.8,223.3z"/>
<path class="st10" d="M1179.6,225.5c1.4,0.9,2.7,1.4,2.8,1.2c0.1-0.2-1-1.1-2.4-2c-1.4-0.9-0.9-0.2-1,0
	C1178.9,224.9,1178.1,224.6,1179.6,225.5z"/>
<path class="st11" d="M1183,249.1c0,0,9.9-0.4,12.9-2.8c3-2.5,15.3-5.4,16-1.4c0.7,3.9,14.9,19.6,3.7,19.7
	c-11.2,0.1-26.1-2-29.1-4.1S1183,249.1,1183,249.1z"/>
<path class="st12" d="M1215.9,263.2c-11.2,0.1-26.1-2-29.1-4.1c-2.3-1.6-3.2-7.3-3.5-10c-0.2,0-0.3,0-0.3,0s0.6,9.2,3.6,11.3
	c3,2.1,17.9,4.2,29.1,4.1c3.2,0,4.4-1.4,4.3-3.3C1219.5,262.4,1218.3,263.2,1215.9,263.2z"/>
</svg>
