<?xml version="1.0" encoding="utf-8"?>
<!-- Generator: Adobe Illustrator 22.0.1, SVG Export Plug-In . SVG Version: 6.00 Build 0)  -->
<svg version="1.1" id="Layer_1" xmlns="http://www.w3.org/2000/svg" xmlns:xlink="http://www.w3.org/1999/xlink" x="0px" y="0px"
	 viewBox="0 0 1300 400" style="enable-background:new 0 0 1300 400;" xml:space="preserve">
<style type="text/css">
	.st0{fill:url(#SVGID_1_);stroke:#000000;stroke-width:1.6452;stroke-miterlimit:10;}
	.st1{opacity:0.5;fill:#DEE3F3;enable-background:new    ;}
	.st2{opacity:0.45;}
	.st3{fill:#0D8CD8;}
	.st4{opacity:0.1;enable-background:new    ;}
	.st5{opacity:0.5;fill:#0D8CD8;enable-background:new    ;}
	.st6{opacity:0.3;enable-background:new    ;}
	.st7{fill:none;stroke:#FC6681;stroke-width:0.5717;stroke-miterlimit:10;}
	.st8{fill:#FC6681;}
	.st9{fill:none;stroke:#FFD037;stroke-width:0.5717;stroke-miterlimit:10;}
	.st10{fill:#FFD037;}
	.st11{fill:#A8A8A8;}
	.st12{opacity:0.2;enable-background:new    ;}
</style>
<linearGradient id="SVGID_1_" gradientUnits="userSpaceOnUse" x1="-1.818989e-12" y1="200" x2="377.8488" y2="200" gradientTransform="matrix(-3.4405 0 0 1 1300 0)">
	<stop  offset="0" style="stop-color:#007194"/>
	<stop  offset="1" style="stop-color:#41C1C9"/>
</linearGradient>
<rect class="st0" width="1300" height="400"/>
<ellipse class="st1" cx="200" cy="284.8" rx="68.2" ry="13.2"/>
<g class="st2">
	<path class="st3" d="M216.4,147.6c0,0.1,0,0.3,0,0.4C216.4,147.9,216.4,147.8,216.4,147.6z"/>
	<path class="st3" d="M182,138.2v0.1C182,138.2,182,138.2,182,138.2z"/>
	<path class="st3" d="M182.1,137.8v0.1C182.1,137.9,182.1,137.8,182.1,137.8z"/>
	<path class="st3" d="M182.1,148.4c0,0.1,0,0.1,0,0.2C182.1,148.5,182.1,148.4,182.1,148.4z"/>
	<path class="st3" d="M182,148.1c0,0.1,0,0.1,0,0.2C182,148.2,182,148.1,182,148.1z"/>
	<path class="st3" d="M214.8,150.6c0.2-0.1,0.4-0.3,0.6-0.5C215.2,150.3,215,150.5,214.8,150.6z"/>
	<path class="st3" d="M215.5,150.1c0.1-0.1,0.2-0.2,0.3-0.3C215.6,149.9,215.5,150,215.5,150.1z"/>
	<path class="st3" d="M164.8,214.9c0-0.1,0.1-0.3,0.1-0.4C164.8,214.6,164.8,214.8,164.8,214.9z"/>
	<path class="st3" d="M166.2,212.9c-0.1,0.1-0.2,0.1-0.3,0.2C166,213,166.1,212.9,166.2,212.9z"/>
	<path class="st3" d="M165.6,213.4c-0.2,0.2-0.3,0.4-0.5,0.7C165.2,213.8,165.4,213.6,165.6,213.4z"/>
	<path class="st3" d="M165.9,213.1c-0.1,0.1-0.2,0.2-0.3,0.3C165.7,213.3,165.8,213.2,165.9,213.1z"/>
	<path class="st3" d="M164.9,214.5c0-0.1,0.1-0.2,0.1-0.3C165,214.2,164.9,214.4,164.9,214.5z"/>
	<path class="st3" d="M164.7,215.3c0-0.1,0-0.2,0.1-0.3C164.7,215.1,164.7,215.2,164.7,215.3z"/>
	<path class="st3" d="M75.8,196.7h17c-0.8-0.6-1.3-1.7-1.3-2.8v-9c0-1.9,1.3-3.4,3-3.4l0,0H114c-1.2-0.4-2.1-1.8-2.1-3.2v-9
		c0-1.1,0.5-2.2,1.3-2.8H94.5c-1.6,0-3-1.5-3-3.4l0,0v-9c0-1.9,1.3-3.4,3-3.4l0,0h20.9c-1.2-0.4-2.1-1.8-2.1-3.2v-9
		c0-1.1,0.5-2.2,1.3-2.8H94.5c-1.6,0-3-1.5-3-3.4l0,0v-9c0-1.9,1.3-3.4,3-3.4l0,0H105c-1.2-0.4-2.1-1.8-2.1-3.2v-9
		c0-1.9,1.3-3.4,3-3.4l0,0h28.5c1.6,0,3,1.5,3,3.4l0,0c0-1.9,1.3-3.4,3-3.4l0,0h28.5c1.1,0,2.2,0.8,2.7,2c0,0.2-0.1,0.4-0.1,0.7v9
		c0,0.5,0.1,1,0.3,1.4c-0.1,0.8-0.5,1.5-1,2h-7.3c-0.7,0-1.3,0.3-1.9,0.8h-3.2c1.2,0.4,2.1,1.8,2.1,3.2c0-0.2,0-0.4,0.1-0.6l0,0v9
		c0,0.3,0,0.6,0.1,0.8c0,0.1-0.1,0.1-0.1,0.2c0-0.1,0-0.3,0-0.4c0,0.2,0,0.4,0,0.6c0,0.1-0.1,0.2-0.1,0.3c-0.2,0.8-0.6,1.4-1.2,1.9
		h2.5c0,0,0,0-0.1-0.1c0.2,0,0.5,0,0.7,0c0.1,0,0.2,0,0.2-0.1c0.3,0.1,0.6,0.1,0.8,0.1l17.5,0.6c0.8,0.6,1.3,1.7,1.3,2.8v9
		c0,1.5-0.8,2.8-2.1,3.2l-16.7,0.2c-0.3,0-0.6,0.1-0.9,0.1c-0.2,0-0.4,0.1-0.6,0.1l0,0c0.2-0.1,0.3-0.2,0.5-0.3h-4.1
		c1.2,0.4,2.1,1.8,2.1,3.2c0-0.2,0-0.4,0-0.6c0,0,0,0.1,0.1,0.1c0,0.2-0.1,0.4-0.1,0.7v9c0,0.4-0.1,0.3-0.1-0.2
		c0,1.1-0.5,2.2-1.3,2.8l-10.4,0.4c-0.4,0-0.7,0.1-1,0.2h-2.5c0.4,0.4,0.8,0.9,1,1.4c-0.3,0.5-0.4,1.1-0.4,1.7v9
		c0,0.5,0.1,0.9,0.2,1.4c-0.4,0.7-0.9,1.2-1.6,1.5h2.7c0.5,0.4,1,0.5,1.6,0.5h10.3c0.8,0.6,1.4,1.7,1.4,2.9c0-1.2,0.4,10.6,0.4,10.6
		c0,1.1-16.1,1.5-16.1,1.5c-0.4,0-0.8,0.1-1.2,0.3c-0.2,0-0.3-0.1-0.5-0.1l0,0h-2.5c0.8,0.6,1.3,1.7,1.3,2.8c0-0.2,0-0.3,0-0.5v0.1
		c-0.1,0.2-0.1,0.5-0.1,0.8v8.6c0,1.9-1.3,3.4-3,3.4l0,0h4.5c0.4,0.3,0.9,0.4,1.4,0.4H163c1,0.6,1.6,1.7,1.6,3v9
		c0,1.9-1.3,3.4-3,3.4l0,0h-28.5c-1.6,0-3-1.5-3-3.4l0,0c0,1.9-1.3,3.4-3,3.4l0,0H98.6c-1.6,0-3-1.5-3-3.4l0,0v-9
		c0-1.9,1.3-3.4,3-3.4l0,0h-23c-1.6,0-3-1.5-3-3.4l0,0v-9C72.8,198.3,74.1,196.7,75.8,196.7L75.8,196.7z M146.3,135.9
		c0.8,0.6,1.3,1.7,1.3,2.8c0-1.1,0.5-2.2,1.3-2.8H146.3z M149.7,150.9c-1.2-0.4-2.1-1.8-2.1-3.2c0,1.5-0.8,2.8-2.1,3.2H149.7z
		 M139.3,120.1c-1.2-0.4-2.1-1.8-2.1-3.2c0,1.5-0.8,2.8-2.1,3.2H139.3z M130.2,215.9c0-1.9,1.3-3.4,3-3.4l0,0h-5.9
		C128.9,212.5,130.2,214,130.2,215.9L130.2,215.9z M127.1,196.7c-0.8-0.6-1.3-1.7-1.3-2.8c0,1.1-0.5,2.2-1.3,2.8H127.1z M125.8,185
		c0-1.5,0.8-2.8,2.1-3.2h-4.1C125,182.2,125.8,183.5,125.8,185z M127.1,166c-0.8-0.6-1.3-1.7-1.3-2.8c0,1.1-0.5,2.2-1.3,2.8H127.1z
		 M125.8,154.3c0-1.5,0.8-2.8,2.1-3.2h-4.1C125,151.5,125.8,152.8,125.8,154.3L125.8,154.3z M127.1,135.3c-0.8-0.6-1.3-1.7-1.3-2.8
		c0,1.1-0.5,2.2-1.3,2.8H127.1z M125.8,123.5c0-1.5,0.8-2.8,2.1-3.2h-4.1C125,120.8,125.8,122.1,125.8,123.5z M105.9,197.3
		c0.8,0.6,1.3,1.7,1.3,2.8c0-1.1,0.5-2.2,1.3-2.8H105.9z M110.1,212.5c-1.6,0-3-1.5-3-3.4l0,0c0,1.9-1.3,3.4-3,3.4l0,0H110.1z"/>
	<path class="st3" d="M160.2,194"/>
	<path class="st3" d="M164.6,215.9c0-0.1,0-0.3,0-0.4C164.6,215.6,164.6,215.7,164.6,215.9z"/>
	<path class="st3" d="M182,147.6c0,0.1,0,0.2,0,0.3C182,147.8,182,147.7,182,147.6z"/>
	<path class="st3" d="M216.4,148.1c0,0.1,0,0.3-0.1,0.4C216.3,148.4,216.3,148.3,216.4,148.1z"/>
	<path class="st3" d="M249.4,168.2c0,0,0.1-0.1,0.1-0.2c0-0.1,0.1-0.2,0.1-0.3c0,0.2,0,0.5,0,0.7c-0.1,0.3-0.1,0.7-0.1,1
		c0-0.3,0-0.7-0.1-1C249.3,168.4,249.4,168.3,249.4,168.2L249.4,168.2z"/>
	<path class="st3" d="M209,104.6h28.5c1.6,0,3,1.5,3,3.4l0,0c0-1.9,1.3-3.4,3-3.4l0,0H272c1.6,0,3,1.5,3,3.4l0,0v9
		c0,1.5-0.8,2.8-2.1,3.2H295c1.6,0,3,1.5,3,3.4l0,0v9c0,1.1-0.5,2.2-1.3,2.8h20.1c1.6,0,3,1.5,3,3.4l0,0v9c0,1.9-1.3,3.4-3,3.4l0,0
		h-20.9c1.2,0.4,2.1,1.8,2.1,3.2v9c0,1.1-0.5,2.2-1.3,2.8h18.7c1.6,0,3,1.5,3,3.4l0,0v9c0,1.9-1.3,3.4-3,3.4l0,0h-19.5
		c1.2,0.4,2.1,1.8,2.1,3.2v9c0,1.9-1.3,3.4-3,3.4l0,0h-17c0.8,0.6,1.3,1.7,1.3,2.8v9c0,1.9-1.3,3.4-3,3.4h23c1.6,0,3,1.5,3,3.4l0,0
		v9c0,1.9-1.3,3.4-3,3.4l0,0h-28.5c-1.6,0-3-1.5-3-3.4l0,0c0,1.9-1.3,3.4-3,3.4l0,0h-28.5c-1.6,0-3-1.5-3-3.4l0,0v-9
		c0-1.3,0.6-2.4,1.6-3h6.1c0.5,0,0.9-0.1,1.4-0.4h5.2c-1.6,0-3-1.5-3-3.4l0,0c0,1.5-0.7-8.6-0.7-8.6c0-1.9-1.3-3.4-3-3.4l0,0
		L230,197c-0.3-0.2-0.6-0.6-0.8-0.9c0.2-0.4,0.2-0.9,0.2-1.3v-9c0-0.7-0.2-1.3-0.5-1.9c0.2-0.6,0.6-1.2,1.1-1.5h15.5
		c0.6,0,1.1-0.2,1.6-0.5h4.1c-1.2-0.4-2.1-1.8-2.1-3.2l0.1-8.9c0-0.4,0-0.8,0-1.1c0.2-0.7,0.6-1.4,1.1-1.8h-2.5c0,0,0,0,0.1,0
		c-1.4-0.1-17.9-1.2-19.2-2.4c0-0.2,0-0.5,0-0.7s0-0.3,0-0.5v-9c0-0.1,0-0.2,0-0.3c0.2-1.3,1-2.3,2-2.7h-3.6
		c-0.4-0.3-0.9-0.4-1.4-0.4h-8.1c-1-0.6-1.6-1.7-1.6-3v-9c0-1.1,0.5-2.2,1.3-2.8l8.5-0.6c1.4,0,2.4-0.6,1.6,0h2.5
		c-0.8-0.6-1.3-1.7-1.3-2.8c0-0.2,0.1-0.4,0.1-0.6v-9l0,0c0.2-1.2,1-2.2,2-2.6h-3.1c-0.5-0.5-1.2-0.8-1.9-0.8h-19
		c-0.7-0.6-1.1-1.6-1.1-2.6v-9C206,106.1,207.4,104.6,209,104.6L209,104.6z M283.9,135.9c0.8,0.6,1.3,1.7,1.3,2.8
		c0-1.1,0.5-2.2,1.3-2.8H283.9z M285.2,147.6c0,1.5-0.8,2.8-2.1,3.2h4.1C286,150.4,285.2,149.1,285.2,147.6z M282.6,166.6
		c0.8,0.6,1.3,1.7,1.3,2.8c0-1.1,0.5-2.2,1.3-2.8H282.6z M285.9,181.6c-1.2-0.4-2.1-1.8-2.1-3.2c0,1.5-0.8,2.8-2.1,3.2H285.9z
		 M249.5,135.9c0.8,0.6,1.3,1.7,1.3,2.8c0-1.1,0.5-2.2,1.3-2.8H249.5z M267.8,215.9c0-1.9,1.3-3.4,3-3.4l0,0h-5.9
		C266.5,212.5,267.8,214,267.8,215.9L267.8,215.9z M264.7,196.7c-0.8-0.6-1.3-1.7-1.3-2.8c0,1.1-0.5,2.2-1.3,2.8H264.7z M263.4,185
		c0-1.5,0.8-2.8,2.1-3.2h-4.1C262.6,182.2,263.4,183.5,263.4,185L263.4,185z M264.7,166c-0.8-0.6-1.3-1.7-1.3-2.8
		c0,1.1-0.5,2.2-1.3,2.8H264.7z M263.4,154.3c0-1.5,0.8-2.8,2.1-3.2h-4.1C262.6,151.5,263.4,152.8,263.4,154.3L263.4,154.3z
		 M264.7,135.3c-0.8-0.6-1.3-1.7-1.3-2.8c0,1.1-0.5,2.2-1.3,2.8H264.7z M263.4,123.5c0-1.5,0.8-2.8,2.1-3.2h-4.1
		C262.6,120.8,263.4,122.1,263.4,123.5L263.4,123.5z M252.8,150.9c-1.2-0.4-2.1-1.8-2.1-3.2c0,1.5-0.8,2.8-2.1,3.2H252.8z
		 M242.5,120.1c-1.2-0.4-2.1-1.8-2.1-3.2c0,1.5-0.8,2.8-2.1,3.2H242.5z"/>
	<path class="st3" d="M215.4,136.2C215.4,136.2,215.4,136.1,215.4,136.2C215.4,136.1,215.4,136.2,215.4,136.2z"/>
	<path class="st3" d="M215.6,136.4L215.6,136.4L215.6,136.4z"/>
	<path class="st3" d="M215.9,136.7C215.9,136.7,215.8,136.7,215.9,136.7C215.8,136.7,215.9,136.7,215.9,136.7z"/>
	<path class="st3" d="M216.3,148.6c0,0.1-0.1,0.3-0.1,0.4C216.2,148.9,216.2,148.7,216.3,148.6z"/>
	<path class="st3" d="M215.9,149.4c-0.1,0.1-0.1,0.2-0.2,0.3C215.8,149.7,215.9,149.5,215.9,149.4z"/>
	<path class="st3" d="M216.1,149c-0.1,0.1-0.1,0.3-0.2,0.4C216,149.3,216.1,149.2,216.1,149z"/>
	<path class="st3" d="M216.3,137.9v-0.1C216.3,137.8,216.3,137.9,216.3,137.9z"/>
	<path class="st3" d="M216.2,137.5v-0.1V137.5z"/>
	<path class="st3" d="M216.4,138.3v-0.1C216.4,138.2,216.4,138.2,216.4,138.3z"/>
	<path class="st3" d="M216,137.1L216,137.1L216,137.1z"/>
	<path class="st4" d="M242.4,120.3h29.7c1.3,0,2.4-1.2,2.4-2.7v-10.3c0-1.5-1.1-2.7-2.4-2.7h-29.7c-1.3,0-2.4,1.2-2.4,2.7v10.3
		C240.1,119.1,241.1,120.3,242.4,120.3z"/>
	<path class="st4" d="M139.6,120.3h29.7c1.3,0,2.4-1.2,2.4-2.7v-10.3c0-1.5-1.1-2.7-2.4-2.7h-29.7c-1.3,0-2.4,1.2-2.4,2.7v10.3
		C137.2,119.1,138.3,120.3,139.6,120.3z"/>
	<path class="st4" d="M93.9,135.7h29.7c1.3,0,2.4-1.2,2.4-2.7v-10.3c0-1.5-1.1-2.7-2.4-2.7H93.9c-1.3,0-2.4,1.2-2.4,2.7V133
		C91.5,134.5,92.6,135.7,93.9,135.7z"/>
	<path class="st4" d="M150,151h29.7c1.3,0,2.4-1.2,2.4-2.7V138c0-1.5-1.1-2.7-2.4-2.7H150c-1.3,0-2.4,1.2-2.4,2.7v10.3
		C147.6,149.8,148.7,151,150,151z"/>
	<path class="st4" d="M93.9,166.8h29.7c1.3,0,2.4-1.2,2.4-2.7v-10.3c0-1.5-1.1-2.7-2.4-2.7H93.9c-1.3,0-2.4,1.2-2.4,2.7v10.3
		C91.5,165.6,92.6,166.8,93.9,166.8z"/>
	<path class="st4" d="M93.9,197.5h29.7c1.3,0,2.4-1.2,2.4-2.7v-10.3c0-1.5-1.1-2.7-2.4-2.7H93.9c-1.3,0-2.4,1.2-2.4,2.7v10.3
		C91.5,196.3,92.6,197.5,93.9,197.5z"/>
	<path class="st4" d="M109.3,197.1h30.1c1,0,1.8,0.7,2.1,1.8c0,0.1,0,0.3,0,0.4c0,0.1,0,0.2,0.1,0.2l0,0v10.8c0,1.4-1,2.5-2.1,2.5
		h-30.1c-1.2,0-2.1-1.1-2.1-2.5v-10.8C107.2,198.2,108.2,197.1,109.3,197.1L109.3,197.1z"/>
	<path class="st4" d="M132.6,228.2h29.7c1.3,0,2.4-1.2,2.4-2.7v-10.3c0-1.5-1.1-2.7-2.4-2.7h-29.7c-1.3,0-2.4,1.2-2.4,2.7v10.3
		C130.2,227,131.3,228.2,132.6,228.2z"/>
	<path class="st4" d="M231.4,135.7h29.7c1.3,0,2.4-1.2,2.4-2.7v-10.3c0-1.5-1.1-2.7-2.4-2.7h-29.7c-1.3,0-2.4,1.2-2.4,2.7V133
		C229.1,134.5,230.1,135.7,231.4,135.7z"/>
	<path class="st4" d="M252.8,151h29.7c1.3,0,2.4-1.2,2.4-2.7V138c0-1.5-1.1-2.7-2.4-2.7h-29.7c-1.3,0-2.4,1.2-2.4,2.7v10.3
		C250.4,149.8,251.5,151,252.8,151z"/>
	<path class="st4" d="M265.8,166.8h29.7c1.3,0,2.4-1.2,2.4-2.7v-10.3c0-1.5-1.1-2.7-2.4-2.7h-29.7c-1.3,0-2.4,1.2-2.4,2.7v10.3
		C263.5,165.6,264.5,166.8,265.8,166.8z"/>
	<path class="st4" d="M251.8,182.1h29.7c1.3,0,2.4-1.2,2.4-2.7v-10.3c0-1.5-1.1-2.7-2.4-2.7h-29.7c-1.3,0-2.4,1.2-2.4,2.7v10.3
		C249.4,180.9,250.5,182.1,251.8,182.1z"/>
	<path class="st4" d="M265.8,197.5h29.7c1.3,0,2.4-1.2,2.4-2.7v-10.3c0-1.5-1.1-2.7-2.4-2.7h-29.7c-1.3,0-2.4,1.2-2.4,2.7v10.3
		C263.5,196.3,264.5,197.5,265.8,197.5z"/>
	<path class="st3" d="M281.4,212.9h29.7c1.3,0,2.4-1.2,2.4-2.7v-10.3c0-1.5-1.1-2.7-2.4-2.7h-29.7c-1.3,0-2.4,1.2-2.4,2.7v10.3
		C279,211.7,280.1,212.9,281.4,212.9z"/>
	<path class="st3" d="M80.6,182.1h29.7c1.3,0,2.4-1.2,2.4-2.7v-10.3c0-1.5-1.1-2.7-2.4-2.7H80.6c-1.3,0-2.4,1.2-2.4,2.7v10.3
		C78.2,180.9,79.3,182.1,80.6,182.1z"/>
	<path class="st3" d="M82,151.1h29.7c1.3,0,2.4-1.2,2.4-2.7V138c0-1.5-1.1-2.7-2.4-2.7H82c-1.3,0-2.4,1.2-2.4,2.7v10.3
		C79.7,149.9,80.7,151.1,82,151.1z"/>
	<path class="st3" d="M64.8,228h29.7c1.3,0,2.4-1.2,2.4-2.7V215c0-1.5-1.1-2.7-2.4-2.7H64.8c-1.3,0-2.4,1.2-2.4,2.7v10.3
		C62.4,226.8,63.5,228,64.8,228z"/>
	<path class="st3" d="M304.5,228.3h29.7c1.3,0,2.4-1.2,2.4-2.7v-10.3c0-1.5-1.1-2.7-2.4-2.7h-29.7c-1.3,0-2.4,1.2-2.4,2.7v10.3
		C302.1,227.1,303.2,228.3,304.5,228.3z"/>
	<path class="st3" d="M299.9,197.2h29.7c1.3,0,2.4-1.2,2.4-2.7v-10.3c0-1.5-1.1-2.7-2.4-2.7h-29.7c-1.3,0-2.4,1.2-2.4,2.7v10.3
		C297.5,196,298.6,197.2,299.9,197.2z"/>
	<path class="st3" d="M299.9,166.7h29.7c1.3,0,2.4-1.2,2.4-2.7v-10.3c0-1.5-1.1-2.7-2.4-2.7h-29.7c-1.3,0-2.4,1.2-2.4,2.7V164
		C297.5,165.5,298.6,166.7,299.9,166.7z"/>
	<path class="st3" d="M298.6,135.7h29.7c1.3,0,2.4-1.2,2.4-2.7v-10.3c0-1.5-1.1-2.7-2.4-2.7h-29.7c-1.3,0-2.4,1.2-2.4,2.7V133
		C296.3,134.5,297.3,135.7,298.6,135.7z"/>
	<path class="st4" d="M298.6,135.7h29.7c1.3,0,2.4-1.2,2.4-2.7v-10.3c0-1.5-1.1-2.7-2.4-2.7h-29.7c-1.3,0-2.4,1.2-2.4,2.7V133
		C296.3,134.5,297.3,135.7,298.6,135.7z"/>
	<path class="st3" d="M276.8,120.3h29.7c1.3,0,2.4-1.2,2.4-2.7v-10.3c0-1.5-1.1-2.7-2.4-2.7h-29.7c-1.3,0-2.4,1.2-2.4,2.7v10.3
		C274.4,119.1,275.5,120.3,276.8,120.3z"/>
	<path class="st4" d="M246.8,212.9h29.7c1.3,0,2.4-1.2,2.4-2.7v-10.3c0-1.5-1.1-2.7-2.4-2.7h-29.7c-1.3,0-2.4,1.2-2.4,2.7v10.3
		C244.4,211.7,245.5,212.9,246.8,212.9z"/>
	<path class="st4" d="M270.2,228.2h29.7c1.3,0,2.4-1.2,2.4-2.7v-10.3c0-1.5-1.1-2.7-2.4-2.7h-29.7c-1.3,0-2.4,1.2-2.4,2.7v10.3
		C267.8,227,268.9,228.2,270.2,228.2z"/>
</g>
<ellipse class="st5" cx="120.6" cy="77.1" rx="7.7" ry="8.9"/>
<path class="st1" d="M269.4,93.2h1.8c-0.7,0-1.3-0.7-1.3-1.5s0.6-1.5,1.3-1.5l0,0h14.9c0.7,0,1.3,0.7,1.3,1.5s-0.6,1.5-1.3,1.5l0,0
	h-1.8c0.7,0,1.3,0.7,1.3,1.5s-0.6,1.5-1.3,1.5l0,0h2.6c0.7,0,1.3,0.7,1.3,1.5s-0.6,1.5-1.3,1.5H272c-0.7,0-1.3-0.7-1.3-1.5
	s0.6-1.5,1.3-1.5h-2.6c-0.7,0-1.3-0.7-1.3-1.5C268.1,93.8,268.7,93.2,269.4,93.2z"/>
<path class="st1" d="M121.5,76h1.4c-0.5,0-1-0.5-1-1.1s0.4-1.1,1-1.1h11.3c0.5,0,1,0.5,1,1.1s-0.4,1.1-1,1.1h-1.4c0.5,0,1,0.5,1,1.1
	s-0.4,1.1-1,1.1h2c0.5,0,1,0.5,1,1.1s-0.4,1.1-1,1.1l0,0h-11.3c-0.5,0-1-0.5-1-1.1s0.4-1.1,1-1.1h-2c-0.5,0-1-0.5-1-1.1
	S121,76,121.5,76L121.5,76z"/>
<path class="st1" d="M234.2,72.3h1.8c-0.7,0-1.3-0.7-1.3-1.5s0.6-1.5,1.3-1.5l0,0h14.9c0.7,0,1.3,0.7,1.3,1.5s-0.6,1.5-1.3,1.5l0,0
	h-1.8c0.7,0,1.3,0.7,1.3,1.5s-0.6,1.5-1.3,1.5l0,0h2.6c0.7,0,1.3,0.7,1.3,1.5s-0.6,1.5-1.3,1.5h-14.9c-0.7,0-1.3-0.7-1.3-1.5
	s0.6-1.5,1.3-1.5h-2.6c-0.7,0-1.3-0.7-1.3-1.5C232.9,73,233.5,72.3,234.2,72.3z"/>
<path class="st3" d="M232.3,149.4h-54.9c-1.9,0-3.5,1.8-3.5,4v25c0,2.2,1.5,4,3.5,4h54.9c1.9,0,3.5-1.8,3.5-4v-25
	C235.8,151.2,234.3,149.4,232.3,149.4z"/>
<rect x="178.9" y="177.3" class="st4" width="52" height="0.6"/>
<rect x="178.9" y="154.6" class="st6" width="52" height="22.7"/>
<ellipse class="st4" cx="218.8" cy="166.4" rx="7.2" ry="8.2"/>
<ellipse class="st4" cx="191" cy="166.4" rx="7.2" ry="8.2"/>
<rect x="199.5" y="182.4" class="st3" width="10.8" height="7.2"/>
<rect x="182.5" y="187.5" class="st3" width="44.8" height="41.2"/>
<rect x="181.6" y="237" class="st3" width="46.6" height="5.2"/>
<polygon class="st3" points="220.6,254.5 220.6,260.7 220.6,270 220.6,275.2 220.6,278.3 212.5,278.3 212.5,275.2 212.5,270 
	212.5,260.7 212.5,254.5 212.5,247.3 220.6,247.3 "/>
<polygon class="st3" points="196.4,247.3 196.4,254.5 196.4,260.7 196.4,270 196.4,275.2 196.4,278.3 188.3,278.3 188.3,275.2 
	188.3,270 188.3,260.7 188.3,254.5 188.3,247.3 "/>
<path class="st3" d="M233.4,196.8v9.5c2.2,0.4,4.3,1.6,6,3.3c1.6,1.7,2.8,3.7,3.5,6c1,2.9,1.5,6.1,1.7,9.1c0.3,4.1,0.1,8.2-0.5,12.3
	h9c0.4-5.7,0.3-10.6-0.2-14.8c-0.6-4.7-1.6-8.6-2.9-11.7c-2.6-6.3-6.3-9.7-9.5-11.5C236.6,196.8,233.4,196.8,233.4,196.8z"/>
<rect x="212.5" y="247.3" class="st6" width="8.1" height="7.2"/>
<rect x="212.5" y="260.7" class="st6" width="8.1" height="9.3"/>
<rect x="212.5" y="275.2" class="st6" width="8.1" height="3.1"/>
<rect x="188.3" y="247.3" class="st6" width="8.1" height="7.2"/>
<rect x="188.3" y="260.7" class="st6" width="8.1" height="9.3"/>
<rect x="188.3" y="275.2" class="st6" width="8.1" height="3.1"/>
<path class="st6" d="M233.4,196.8v9.5c2.2,0.4,4.3,1.6,6,3.3l1.1-10.6C236.6,196.8,233.4,196.8,233.4,196.8z"/>
<path class="st6" d="M242.9,215.6c1,2.9,1.5,6.1,1.7,9.1l8.2-2.5c-0.6-4.7-1.6-8.6-2.9-11.7L242.9,215.6z"/>
<path class="st3" d="M176.4,196.8v9.5c-2.2,0.4-4.3,1.6-6,3.3c-1.6,1.7-2.8,3.7-3.5,6c-1,2.9-1.5,6.1-1.7,9.1
	c-0.3,4.1-0.1,8.2,0.5,12.3h-9c-0.4-5.7-0.3-10.6,0.2-14.8c0.6-4.7,1.6-8.6,2.9-11.7c2.6-6.3,6.3-9.7,9.5-11.5
	C173.2,196.8,176.4,196.8,176.4,196.8z"/>
<path class="st6" d="M176.4,196.8v9.5c-2.2,0.4-4.3,1.6-6,3.3l-1.1-10.6C173.2,196.8,176.4,196.8,176.4,196.8z"/>
<path class="st6" d="M166.9,215.6c-1,2.9-1.5,6.1-1.7,9.1l-8.2-2.5c0.6-4.7,1.6-8.6,2.9-11.7L166.9,215.6z"/>
<rect x="199.5" y="182.4" class="st4" width="10.8" height="0.9"/>
<path class="st4" d="M181.7,194.9v17.3c0.5-0.7,0.8-1.5,0.8-2.4v-12.4C182.5,196.4,182.2,195.6,181.7,194.9z"/>
<path class="st4" d="M227.1,196v13c0.1,0.8,0.3,1.6,0.8,2.2v-17.3C227.5,194.4,227.2,195.2,227.1,196z"/>
<rect x="184.7" y="228.8" class="st4" width="40.3" height="0.6"/>
<rect x="206.2" y="242.2" class="st4" width="19.7" height="0.5"/>
<rect x="184.7" y="242.2" class="st4" width="19.7" height="0.5"/>
<rect x="220.6" y="118.9" class="st3" width="3.1" height="30.5"/>
<rect x="185.3" y="118.9" class="st3" width="3.1" height="30.5"/>
<ellipse class="st4" cx="222.3" cy="119.1" rx="3.5" ry="4"/>
<ellipse class="st3" cx="222.3" cy="118.9" rx="3.5" ry="4"/>
<ellipse class="st4" cx="186.7" cy="119.1" rx="3.5" ry="4"/>
<ellipse class="st3" cx="186.7" cy="118.9" rx="3.5" ry="4"/>
<path class="st7" d="M296.1,212.4c0,0-10.2,23.1-1.9,35.8c8.3,12.6-0.8,47.1-0.8,47.1"/>
<path class="st8" d="M293.1,205.2c0,4.5,2.8,8.1,2.8,8.1s2.8-3.6,2.8-8.1s-2.8-8.1-2.8-8.1S293.1,200.7,293.1,205.2z"/>
<path class="st9" d="M290.8,212.4c0,0,10.2,23.1,1.9,35.8c-8.3,12.6,0.8,47.1,0.8,47.1"/>
<path class="st10" d="M293.9,205.2c0,4.5-2.8,8.1-2.8,8.1s-2.8-3.6-2.8-8.1s2.8-8.1,2.8-8.1S293.9,200.7,293.9,205.2z"/>
<path class="st7" d="M286.7,212.4c0,0-10.2,23.1-1.9,35.8c8.3,12.6-0.8,47.1-0.8,47.1"/>
<path class="st8" d="M283.6,205.2c0,4.5,2.8,8.1,2.8,8.1s2.8-3.6,2.8-8.1s-2.8-8.1-2.8-8.1S283.6,200.7,283.6,205.2z"/>
<path class="st8" d="M285.2,223.7c2.7,3.2,6.9,3.5,6.9,3.5s-0.1-4.9-2.8-8.1s-6.9-3.5-6.9-3.5S282.5,220.5,285.2,223.7z"/>
<path class="st8" d="M285,239.7c2.7,3.2,6.9,3.5,6.9,3.5s-0.1-4.9-2.8-8.1s-6.9-3.5-6.9-3.5S282.3,236.4,285,239.7z"/>
<path class="st8" d="M299.5,248.4c-2.5,3.4-2.5,8.2-2.5,8.2s4.2-0.6,6.7-3.9c2.5-3.4,2.5-8.2,2.5-8.2S302.1,245.1,299.5,248.4z"/>
<path class="st8" d="M297.2,214.4c-3.2,2.5-4.3,7.2-4.3,7.2s4.2,0.7,7.4-1.7c3.2-2.5,4.3-7.2,4.3-7.2S300.4,212,297.2,214.4z"/>
<path class="st9" d="M281.4,212.4c0,0,10.2,23.1,1.9,35.8c-8.3,12.6,0.8,47.1,0.8,47.1"/>
<path class="st10" d="M284.4,205.2c0,4.5-2.8,8.1-2.8,8.1s-2.8-3.6-2.8-8.1s2.8-8.1,2.8-8.1S284.4,200.7,284.4,205.2z"/>
<path class="st10" d="M283.6,224.1c2.7,3.2,2.9,8,2.9,8s-4.2-0.3-6.9-3.5s-2.9-8-2.9-8S280.9,220.9,283.6,224.1z"/>
<path class="st10" d="M278.2,246.1c2.7,3.2,2.9,8,2.9,8s-4.2-0.3-6.9-3.5s-2.9-8-2.9-8S275.5,243,278.2,246.1z"/>
<path class="st9" d="M286.1,241.3c0,0-6.2-11.2-14.8-11.4"/>
<path class="st7" d="M290.9,234.5c0,0,6.2-11.2,14.8-11.4"/>
<path class="st9" d="M291.7,250.5c0,0-6.2-11.2-14.8-11.4"/>
<ellipse class="st10" cx="271.6" cy="229.8" rx="1.6" ry="1.8"/>
<ellipse class="st8" cx="305.5" cy="223.2" rx="1.6" ry="1.8"/>
<path class="st7" d="M287.1,254.2c0,0,6.2-11.2,14.8-11.4"/>
<ellipse class="st8" cx="301.8" cy="242.8" rx="1.6" ry="1.8"/>
<path class="st10" d="M276.8,237.3c-0.9,0-1.6,0.8-1.6,1.8s0.7,1.8,1.6,1.8c0.9,0,1.6-0.8,1.6-1.8S277.7,237.3,276.8,237.3z"/>
<path class="st11" d="M253.1,281.8c0,0,14.8-3.4,18.8-8s21.8-12.5,23.8-6.8s26.7,25,9.9,28.5c-16.8,3.4-39.6,4.6-44.5,2.3
	C256.1,295.5,253.1,281.8,253.1,281.8z"/>
<path class="st12" d="M305.5,293.4c-16.8,3.4-39.6,4.6-44.5,2.3c-3.8-1.7-6.4-10.1-7.4-13.9c-0.3,0.1-0.5,0.1-0.5,0.1
	s3,13.7,7.9,15.9c4.9,2.3,27.7,1.1,44.5-2.3c4.9-1,6.2-3.3,5.7-6.2C310.9,291.2,309.2,292.6,305.5,293.4z"/>
<path class="st8" d="M92.8,216.5c0,0-3.6,5.4,1.6,13.4c5.2,8.1,9.5,14.9,7.8,19.9c0,0-7.8-15-14.2-15.2S85.7,225.5,92.8,216.5z"/>
<path class="st4" d="M92.8,216.5c-0.3,0.5-0.6,1.1-0.7,1.7c-6.2,8.4-9.5,16.3-3.6,16.5c5.6,0.2,12.3,11.7,13.9,14.6
	c-0.1,0.2-0.1,0.4-0.2,0.7c0,0-7.8-15-14.2-15.2C81.5,234.4,85.7,225.5,92.8,216.5z"/>
<path class="st10" d="M86.1,223.3c0,1.9,0.2,3.4,0.4,3.4s0.4-1.5,0.4-3.4s-0.2-1-0.5-1S86.1,221.4,86.1,223.3z"/>
<path class="st10" d="M83.9,225.5c1.4,0.9,2.7,1.4,2.8,1.2s-1-1.1-2.4-2s-0.9-0.2-1,0C83.2,224.9,82.4,224.6,83.9,225.5z"/>
<path class="st8" d="M111.5,216.5c0,0,3.6,5.4-1.6,13.4c-5.2,8.1-9.5,14.9-7.8,19.9c0,0,7.8-15,14.2-15.2
	C122.8,234.4,118.6,225.5,111.5,216.5z"/>
<path class="st4" d="M111.5,216.5c0.3,0.5,0.6,1.1,0.7,1.7c6.2,8.4,9.5,16.3,3.6,16.5c-5.6,0.2-12.3,11.7-13.9,14.6
	c0.1,0.2,0.1,0.4,0.2,0.7c0,0,7.8-15,14.2-15.2C122.8,234.4,118.6,225.5,111.5,216.5z"/>
<path class="st10" d="M118.2,223.3c0,1.9-0.2,3.4-0.4,3.4s-0.4-1.5-0.4-3.4s0.2-1,0.5-1S118.2,221.4,118.2,223.3z"/>
<path class="st10" d="M120.4,225.5c-1.4,0.9-2.7,1.4-2.8,1.2c-0.1-0.2,1-1.1,2.4-2s0.9-0.2,1,0S121.9,224.6,120.4,225.5z"/>
<path class="st11" d="M117,249.1c0,0-9.9-0.4-12.9-2.8c-3-2.5-15.3-5.4-16-1.4c-0.7,3.9-14.9,19.6-3.7,19.7
	c11.2,0.1,26.1-2,29.1-4.1S117,249.1,117,249.1z"/>
<path class="st12" d="M84.1,263.2c11.2,0.1,26.1-2,29.1-4.1c2.3-1.6,3.2-7.3,3.5-10c0.2,0,0.3,0,0.3,0s-0.6,9.2-3.6,11.3
	c-3,2.1-17.9,4.2-29.1,4.1c-3.2,0-4.4-1.4-4.3-3.3C80.5,262.4,81.7,263.2,84.1,263.2z"/>
</svg>
