<?xml version="1.0" encoding="utf-8"?>
<!-- Generator: Adobe Illustrator 22.0.1, SVG Export Plug-In . SVG Version: 6.00 Build 0)  -->
<svg version="1.1" id="Layer_1" xmlns="http://www.w3.org/2000/svg" xmlns:xlink="http://www.w3.org/1999/xlink" x="0px" y="0px"
	 viewBox="0 0 1300 400" style="enable-background:new 0 0 1300 400;" xml:space="preserve">
<style type="text/css">
	.st0{fill:url(#SVGID_1_);stroke:#000000;stroke-width:1.6452;stroke-miterlimit:10;}
	.st1{opacity:0.5;fill:#DEE3F3;enable-background:new    ;}
	.st2{opacity:0.45;}
	.st3{fill:#B8D2DD;}
	.st4{opacity:0.1;fill:#B8D2DD;enable-background:new    ;}
	.st5{fill:#7DBAD8;}
	.st6{opacity:0.1;enable-background:new    ;}
	.st7{opacity:0.3;enable-background:new    ;}
	.st8{fill:#F7D5DD;}
	.st9{fill:#FFD037;}
	.st10{fill:#DBDBDB;}
	.st11{opacity:0.2;enable-background:new    ;}
</style>
<linearGradient id="SVGID_1_" gradientUnits="userSpaceOnUse" x1="2488.5891" y1="200" x2="2600" y2="200" gradientTransform="matrix(11.6685 0 0 1 -29038.1211 0)">
	<stop  offset="0" style="stop-color:#00354D"/>
	<stop  offset="0.4129" style="stop-color:#00364F"/>
	<stop  offset="0.5616" style="stop-color:#003C56"/>
	<stop  offset="0.6676" style="stop-color:#004561"/>
	<stop  offset="0.7534" style="stop-color:#005272"/>
	<stop  offset="0.8268" style="stop-color:#006388"/>
	<stop  offset="0.8918" style="stop-color:#0078A4"/>
	<stop  offset="0.9492" style="stop-color:#0091C3"/>
	<stop  offset="1" style="stop-color:#00ACE6"/>
	<stop  offset="1" style="stop-color:#0093C7"/>
	<stop  offset="1" style="stop-color:#0075A3"/>
	<stop  offset="1" style="stop-color:#005B83"/>
	<stop  offset="1" style="stop-color:#004567"/>
	<stop  offset="1" style="stop-color:#003351"/>
	<stop  offset="1" style="stop-color:#002540"/>
	<stop  offset="1" style="stop-color:#001B35"/>
	<stop  offset="1" style="stop-color:#00162E"/>
	<stop  offset="1" style="stop-color:#00142C"/>
</linearGradient>
<rect class="st0" width="1300" height="400"/>
<ellipse class="st1" cx="203.1" cy="281" rx="66.8" ry="11.2"/>
<g class="st2">
	<path class="st3" d="M219.2,164.3c0,0.1,0,0.3,0,0.4C219.2,164.6,219.2,164.4,219.2,164.3z"/>
	<path class="st3" d="M185.6,156.3v0.1C185.6,156.3,185.6,156.3,185.6,156.3z"/>
	<path class="st3" d="M185.6,155.9v0.1C185.6,156,185.6,156,185.6,155.9z"/>
	<path class="st3" d="M185.6,165c0,0.1,0,0.1,0.1,0.2C185.6,165.1,185.6,165,185.6,165z"/>
	<path class="st3" d="M185.6,164.7c0,0.1,0,0.1,0,0.2C185.6,164.8,185.6,164.7,185.6,164.7z"/>
	<path class="st3" d="M217.6,166.9c0.2-0.1,0.4-0.3,0.6-0.4C218.1,166.6,217.8,166.7,217.6,166.9z"/>
	<path class="st3" d="M218.3,166.4c0.1-0.1,0.2-0.2,0.2-0.3C218.4,166.3,218.4,166.3,218.3,166.4z"/>
	<path class="st3" d="M168.7,221.5c0-0.1,0.1-0.2,0.1-0.3C168.7,221.3,168.7,221.4,168.7,221.5z"/>
	<path class="st3" d="M170.1,219.8c-0.1,0.1-0.2,0.1-0.3,0.2C169.9,219.9,170,219.9,170.1,219.8z"/>
	<path class="st3" d="M169.4,220.3c-0.2,0.2-0.3,0.4-0.5,0.5C169.1,220.6,169.3,220.4,169.4,220.3z"/>
	<path class="st3" d="M169.8,220c-0.1,0.1-0.2,0.1-0.3,0.2C169.6,220.2,169.7,220.1,169.8,220z"/>
	<path class="st3" d="M168.8,221.2c0.1-0.1,0.1-0.2,0.2-0.3C168.9,221,168.8,221.1,168.8,221.2z"/>
	<path class="st3" d="M168.6,221.9c0-0.1,0-0.2,0.1-0.3C168.6,221.7,168.6,221.8,168.6,221.9z"/>
	<path class="st3" d="M81.6,206.1h16.6c-0.8-0.5-1.3-1.4-1.3-2.4v-7.6c0-1.6,1.3-2.9,2.9-2.9l0,0h19.1c-1.2-0.4-2-1.5-2-2.7v-7.6
		c0-0.9,0.5-1.8,1.3-2.4H99.9c-1.6,0-2.9-1.3-2.9-2.9l0,0V170c0-1.6,1.3-2.9,2.9-2.9l0,0h20.4c-1.2-0.4-2-1.5-2-2.7v-7.6
		c0-0.9,0.5-1.8,1.3-2.4H100c-1.6,0-2.9-1.3-2.9-2.9l0,0v-7.6c0-1.6,1.3-2.9,2.9-2.9l0,0h10.3c-1.2-0.4-2-1.5-2-2.7v-7.6
		c0-1.6,1.3-2.9,2.9-2.9l0,0H139c1.6,0,2.9,1.3,2.9,2.9l0,0c0-1.6,1.3-2.9,2.9-2.9l0,0h27.9c1.1,0,2.1,0.7,2.6,1.7
		c0,0.2-0.1,0.4-0.1,0.6v7.6c0,0.4,0.1,0.8,0.3,1.2c-0.1,0.7-0.5,1.3-1,1.7h-7.2c-0.7,0-1.3,0.2-1.8,0.7h-3.1c1.2,0.4,2,1.5,2,2.7
		c0-0.2,0-0.4,0.1-0.5l0,0v7.6c0,0.2,0,0.5,0.1,0.7c-0.1,0.1-0.1,0.1-0.1,0.2c0-0.1,0-0.2,0-0.4c0,0.2,0,0.3-0.1,0.5
		c0,0.1-0.1,0.2-0.1,0.3c-0.2,0.7-0.6,1.2-1.1,1.6h2.5c0,0-0.1,0-0.1-0.1c0.2,0,0.5,0,0.7,0c0.1,0,0.2,0,0.2-0.1
		c0.3,0.1,0.5,0.1,0.8,0.1l17.1,0.5c0.8,0.5,1.3,1.4,1.3,2.4v7.6c0,1.3-0.8,2.4-2,2.7l-16.4,0.1c-0.3,0-0.6,0.1-0.9,0.1
		c-0.2,0-0.4,0.1-0.5,0.1c0,0,0,0-0.1,0c0.2-0.1,0.3-0.2,0.5-0.2h-4c1.2,0.4,2,1.5,2,2.7c0-0.2,0-0.3,0.1-0.5l0.1,0.1
		c0,0.2-0.1,0.4-0.1,0.5v7.6c0,0.4-0.1,0.3-0.1-0.1c0,0.9-0.5,1.8-1.3,2.4l-10.2,0.3c-0.3,0-0.7,0.1-1,0.2h-2.5
		c0.4,0.3,0.8,0.7,1,1.2c-0.3,0.4-0.4,1-0.4,1.5v7.6c0,0.4,0.1,0.8,0.2,1.1c-0.4,0.6-0.9,1-1.6,1.3h2.7c0.5,0.3,1,0.5,1.6,0.5h10.1
		c0.8,0.5,1.3,1.4,1.3,2.4c0-1,0.4,9,0.4,9c0,0.9-15.7,1.3-15.7,1.3c-0.4,0-0.8,0.1-1.2,0.2c-0.2,0-0.3-0.1-0.5-0.1l0,0h-2.5
		c0.8,0.5,1.3,1.4,1.3,2.4c0-0.1,0-0.3,0-0.4c0,0,0,0.1,0.1,0.1c-0.1,0.2-0.1,0.4-0.1,0.7v7.3c0,1.6-1.3,2.9-2.9,2.9l0,0h4.4
		c0.4,0.2,0.9,0.3,1.3,0.3H167c1,0.5,1.6,1.5,1.6,2.6v7.6c0,1.6-1.3,2.9-2.9,2.9l0,0h-27.9c-1.6,0-2.9-1.3-2.9-2.9l0,0
		c0,1.6-1.3,2.9-2.9,2.9l0,0h-27.9c-1.6,0-2.9-1.3-2.9-2.9l0,0v-7.6c0-1.6,1.3-2.9,2.9-2.9l0,0H81.5c-1.6,0-2.9-1.3-2.9-2.9l0,0V209
		C78.7,207.4,80,206.1,81.6,206.1L81.6,206.1z M150.6,154.3c0.8,0.5,1.3,1.4,1.3,2.4c0-0.9,0.5-1.8,1.3-2.4H150.6z M153.9,167.1
		c-1.2-0.4-2-1.5-2-2.7c0,1.3-0.8,2.4-2,2.7H153.9z M143.8,140.9c-1.2-0.4-2-1.5-2-2.7c0,1.3-0.8,2.4-2,2.7H143.8z M134.9,222.4
		c0-1.6,1.3-2.9,2.9-2.9l0,0H132C133.6,219.5,134.9,220.8,134.9,222.4L134.9,222.4z M131.8,206.1c-0.8-0.5-1.3-1.4-1.3-2.4
		c0,0.9-0.5,1.8-1.3,2.4H131.8z M130.6,196.1c0-1.3,0.8-2.4,2-2.7h-4C129.8,193.7,130.6,194.8,130.6,196.1z M131.8,179.9
		c-0.8-0.5-1.3-1.4-1.3-2.4c0,0.9-0.5,1.8-1.3,2.4H131.8z M130.6,170c0-1.3,0.8-2.4,2-2.7h-4C129.8,167.6,130.6,168.7,130.6,170
		L130.6,170z M131.8,153.8c-0.8-0.5-1.3-1.4-1.3-2.4c0,0.9-0.5,1.8-1.3,2.4H131.8z M130.6,143.8c0-1.3,0.8-2.4,2-2.7h-4
		C129.8,141.5,130.6,142.5,130.6,143.8z M111.1,206.6c0.8,0.5,1.3,1.4,1.3,2.4c0-0.9,0.5-1.8,1.3-2.4H111.1z M115.2,219.5
		c-1.6,0-2.9-1.3-2.9-2.9l0,0c0,1.6-1.3,2.9-2.9,2.9l0,0H115.2z"/>
	<path class="st3" d="M164.2,203.7"/>
	<path class="st3" d="M168.5,222.4c0-0.1,0-0.2,0-0.4C168.6,222.1,168.5,222.2,168.5,222.4z"/>
	<path class="st3" d="M185.5,164.3c0,0.1,0,0.2,0,0.3C185.5,164.5,185.5,164.4,185.5,164.3z"/>
	<path class="st3" d="M219.1,164.7c0,0.1-0.1,0.2-0.1,0.3C219.1,165,219.1,164.9,219.1,164.7z"/>
	<path class="st3" d="M251.5,181.8c0.1-0.1,0.1-0.1,0.1-0.2c0.1-0.1,0.1-0.2,0.1-0.2c0,0.2,0,0.4,0,0.6c-0.1,0.3-0.1,0.6-0.1,0.9
		c0-0.3-0.1-0.6-0.1-0.8C251.4,181.9,251.5,181.9,251.5,181.8L251.5,181.8z"/>
	<path class="st3" d="M212,127.7h27.9c1.6,0,2.9,1.3,2.9,2.9l0,0c0-1.6,1.3-2.9,2.9-2.9l0,0h27.9c1.6,0,2.9,1.3,2.9,2.9l0,0v7.6
		c0,1.3-0.8,2.4-2,2.7H296c1.6,0,2.9,1.3,2.9,2.9l0,0v7.6c0,0.9-0.5,1.8-1.3,2.4h19.6c1.6,0,2.9,1.3,2.9,2.9l0,0v7.6
		c0,1.6-1.3,2.9-2.9,2.9l0,0h-20.4c1.2,0.4,2,1.5,2,2.7v7.6c0,0.9-0.5,1.8-1.3,2.4H316c1.6,0,2.9,1.3,2.9,2.9l0,0v7.6
		c0,1.6-1.3,2.9-2.9,2.9l0,0h-19.1c1.2,0.4,2,1.5,2,2.7v7.6c0,1.6-1.3,2.9-2.9,2.9l0,0h-16.6c0.8,0.5,1.3,1.4,1.3,2.4v7.6
		c0,1.6-1.3,2.9-2.9,2.9h22.6c1.6,0,2.9,1.3,2.9,2.9l0,0v7.6c0,1.6-1.3,2.9-2.9,2.9l0,0h-27.9c-1.6,0-2.9-1.3-2.9-2.9l0,0
		c0,1.6-1.3,2.9-2.9,2.9l0,0h-27.9c-1.6,0-2.9-1.3-2.9-2.9l0,0v-7.6c0-1.1,0.6-2.1,1.6-2.6h6c0.5,0,0.9-0.1,1.3-0.3h5.1
		c-1.6,0-2.9-1.3-2.9-2.9l0,0c0,1.3-0.7-7.3-0.7-7.3c0-1.6-1.3-2.9-2.9-2.9l0,0l-10.6-0.3c-0.3-0.2-0.6-0.5-0.8-0.8
		c0.2-0.4,0.2-0.7,0.2-1.1v-7.6c0-0.6-0.2-1.1-0.5-1.6c0.2-0.5,0.6-1,1.1-1.3H248c0.5,0,1.1-0.2,1.6-0.5h4c-1.2-0.4-2-1.5-2-2.7
		l0.1-7.6c0-0.3,0-0.7,0-0.9c0.2-0.6,0.6-1.1,1.1-1.5h-2.5c0,0,0,0,0.1,0.1c-1.4-0.1-17.5-1-18.8-2.1c0-0.2,0.1-0.4,0-0.6
		c0-0.2,0-0.3,0-0.4v-7.6c0-0.1,0-0.2,0-0.3c0.2-1.1,0.9-2,2-2.3h-3.5c-0.4-0.2-0.9-0.3-1.3-0.3h-8c-1-0.5-1.6-1.5-1.6-2.6v-7.6
		c0-0.9,0.5-1.8,1.3-2.4l8.3-0.5c1.4,0,2.3-0.5,1.6,0h2.5c-0.8-0.5-1.2-1.4-1.3-2.3c0-0.2,0.1-0.4,0.1-0.5v-7.6l0,0
		c0.2-1,0.9-1.9,2-2.2h-3c-0.5-0.4-1.2-0.7-1.8-0.7h-18.6c-0.7-0.5-1.1-1.4-1.1-2.2v-7.6C209.1,129,210.3,127.7,212,127.7L212,127.7
		z M285.3,154.3c0.8,0.5,1.3,1.4,1.3,2.4c0-0.9,0.5-1.8,1.3-2.4H285.3z M286.5,164.3c0,1.3-0.8,2.4-2,2.7h4
		C287.3,166.7,286.5,165.6,286.5,164.3z M284,180.5c0.8,0.5,1.3,1.4,1.3,2.4c0-0.9,0.5-1.8,1.3-2.4H284z M287.2,193.2
		c-1.2-0.4-2-1.5-2-2.7c0,1.3-0.8,2.4-2,2.7H287.2z M251.6,154.3c0.8,0.5,1.3,1.4,1.3,2.4c0-0.9,0.5-1.8,1.3-2.4H251.6z
		 M269.5,222.4c0-1.6,1.3-2.9,2.9-2.9l0,0h-5.8C268.2,219.5,269.5,220.8,269.5,222.4L269.5,222.4z M266.5,206.1
		c-0.8-0.5-1.3-1.4-1.3-2.4c0,0.9-0.5,1.8-1.3,2.4H266.5z M265.2,196.1c0-1.3,0.8-2.4,2-2.7h-4C264.4,193.7,265.2,194.8,265.2,196.1
		L265.2,196.1z M266.5,179.9c-0.8-0.5-1.3-1.4-1.3-2.4c0,0.9-0.5,1.8-1.3,2.4H266.5z M265.2,170c0-1.3,0.8-2.4,2-2.7h-4
		C264.4,167.6,265.2,168.7,265.2,170L265.2,170z M266.5,153.8c-0.8-0.5-1.3-1.4-1.3-2.4c0,0.9-0.5,1.8-1.3,2.4H266.5z M265.2,143.8
		c0-1.3,0.8-2.4,2-2.7h-4C264.4,141.5,265.2,142.5,265.2,143.8L265.2,143.8z M254.9,167.1c-1.2-0.4-2-1.5-2-2.7c0,1.3-0.8,2.4-2,2.7
		H254.9z M244.7,140.9c-1.2-0.4-2-1.5-2-2.7c0,1.3-0.8,2.4-2,2.7H244.7z"/>
	<path class="st3" d="M218.2,154.6C218.2,154.6,218.2,154.5,218.2,154.6C218.2,154.5,218.2,154.5,218.2,154.6z"/>
	<path class="st3" d="M218.4,154.8L218.4,154.8L218.4,154.8z"/>
	<path class="st3" d="M218.7,155L218.7,155L218.7,155z"/>
	<path class="st3" d="M219.1,165.2c0,0.1-0.1,0.2-0.1,0.3C219,165.4,219,165.3,219.1,165.2z"/>
	<path class="st3" d="M218.8,165.8c-0.1,0.1-0.1,0.2-0.2,0.3C218.6,166,218.7,165.9,218.8,165.8z"/>
	<path class="st3" d="M218.9,165.5c-0.1,0.1-0.1,0.2-0.2,0.3C218.8,165.7,218.9,165.6,218.9,165.5z"/>
	<path class="st3" d="M219.1,156v-0.1C219.1,156,219.1,156,219.1,156z"/>
	<path class="st3" d="M219,155.7L219,155.7C219,155.6,219,155.7,219,155.7z"/>
	<path class="st3" d="M219.2,156.4v-0.1C219.1,156.3,219.1,156.3,219.2,156.4z"/>
	<path class="st3" d="M218.8,155.4C218.8,155.4,218.8,155.3,218.8,155.4C218.8,155.3,218.8,155.4,218.8,155.4z"/>
	<path class="st4" d="M244.7,141.1h29.1c1.3,0,2.3-1,2.3-2.3V130c0-1.3-1-2.3-2.3-2.3h-29.1c-1.3,0-2.3,1-2.3,2.3v8.8
		C242.4,140,243.4,141.1,244.7,141.1z"/>
	<path class="st4" d="M144,141.1h29.1c1.3,0,2.3-1,2.3-2.3V130c0-1.3-1-2.3-2.3-2.3H144c-1.3,0-2.3,1-2.3,2.3v8.8
		C141.8,140,142.8,141.1,144,141.1z"/>
	<path class="st4" d="M99.3,154.1h29c1.3,0,2.3-1,2.3-2.3V143c0-1.3-1-2.3-2.3-2.3H99.2c-1.3,0-2.3,1-2.3,2.3v8.8
		C97,153.1,98,154.1,99.3,154.1z"/>
	<path class="st4" d="M154.2,167.2h29c1.3,0,2.3-1,2.3-2.3v-8.8c0-1.3-1-2.3-2.3-2.3h-29c-1.3,0-2.3,1-2.3,2.3v8.8
		C151.9,166.2,152.9,167.2,154.2,167.2z"/>
	<path class="st4" d="M99.3,180.6h29c1.3,0,2.3-1,2.3-2.3v-8.8c0-1.3-1-2.3-2.3-2.3H99.2c-1.3,0-2.3,1-2.3,2.3v8.8
		C97,179.6,98,180.6,99.3,180.6z"/>
	<path class="st4" d="M99.3,206.7h29c1.3,0,2.3-1,2.3-2.3v-8.8c0-1.3-1-2.3-2.3-2.3H99.2c-1.3,0-2.3,1-2.3,2.3v8.8
		C97,205.7,98,206.7,99.3,206.7z"/>
	<path class="st4" d="M114.4,206.4h29.4c0.9,0,1.7,0.6,2,1.5c0,0.1,0,0.2,0,0.4c0,0.1,0,0.1,0.1,0.2l0,0v9.2c0,1.2-0.9,2.1-2.1,2.1
		h-29.4c-1.2,0-2.1-0.9-2.1-2.1v-9.2C112.3,207.4,113.3,206.4,114.4,206.4L114.4,206.4z"/>
	<path class="st4" d="M137.2,232.9h29.1c1.3,0,2.3-1,2.3-2.3v-8.8c0-1.3-1-2.3-2.3-2.3h-29.1c-1.3,0-2.3,1-2.3,2.3v8.8
		C134.9,231.8,135.9,232.9,137.2,232.9z"/>
	<path class="st4" d="M233.9,154.1H263c1.3,0,2.3-1,2.3-2.3V143c0-1.3-1-2.3-2.3-2.3h-29.1c-1.3,0-2.3,1-2.3,2.3v8.8
		C231.6,153.1,232.6,154.1,233.9,154.1z"/>
	<path class="st4" d="M254.8,167.2h29c1.3,0,2.3-1,2.3-2.3v-8.8c0-1.3-1-2.3-2.3-2.3h-29.1c-1.3,0-2.3,1-2.3,2.3v8.8
		C252.5,166.2,253.5,167.2,254.8,167.2z"/>
	<path class="st4" d="M267.6,180.6h29.1c1.3,0,2.3-1,2.3-2.3v-8.8c0-1.3-1-2.3-2.3-2.3h-29.1c-1.3,0-2.3,1-2.3,2.3v8.8
		C265.3,179.6,266.3,180.6,267.6,180.6z"/>
	<path class="st4" d="M253.8,193.7h29.1c1.3,0,2.3-1,2.3-2.3v-8.8c0-1.3-1-2.3-2.3-2.3h-29.1c-1.3,0-2.3,1-2.3,2.3v8.8
		C251.5,192.6,252.6,193.7,253.8,193.7z"/>
	<path class="st4" d="M267.6,206.7h29.1c1.3,0,2.3-1,2.3-2.3v-8.8c0-1.3-1-2.3-2.3-2.3h-29.1c-1.3,0-2.3,1-2.3,2.3v8.8
		C265.3,205.7,266.3,206.7,267.6,206.7z"/>
	<path class="st3" d="M282.8,219.8h29.1c1.3,0,2.3-1,2.3-2.3v-8.8c0-1.3-1-2.3-2.3-2.3h-29.1c-1.3,0-2.3,1-2.3,2.3v8.8
		C280.5,218.8,281.5,219.8,282.8,219.8z"/>
	<path class="st3" d="M86.3,193.7h29.1c1.3,0,2.3-1,2.3-2.3v-8.8c0-1.3-1-2.3-2.3-2.3H86.3c-1.3,0-2.3,1-2.3,2.3v8.8
		C84,192.6,85,193.7,86.3,193.7z"/>
	<path class="st3" d="M87.7,167.2h29.1c1.3,0,2.3-1,2.3-2.3v-8.8c0-1.3-1-2.3-2.3-2.3H87.7c-1.3,0-2.3,1-2.3,2.3v8.8
		C85.4,166.2,86.4,167.2,87.7,167.2z"/>
	<path class="st3" d="M70.8,232.7h29.1c1.3,0,2.3-1,2.3-2.3v-8.8c0-1.3-1-2.3-2.3-2.3H70.8c-1.3,0-2.3,1-2.3,2.3v8.8
		C68.5,231.6,69.5,232.7,70.8,232.7z"/>
	<path class="st3" d="M305.4,232.9h29.1c1.3,0,2.3-1,2.3-2.3v-8.8c0-1.3-1-2.3-2.3-2.3h-29.1c-1.3,0-2.3,1-2.3,2.3v8.8
		C303.1,231.9,304.1,232.9,305.4,232.9z"/>
	<path class="st3" d="M300.9,206.5h29c1.3,0,2.3-1,2.3-2.3v-8.8c0-1.3-1-2.3-2.3-2.3h-29.1c-1.3,0-2.3,1-2.3,2.3v8.8
		C298.6,205.5,299.6,206.5,300.9,206.5z"/>
	<path class="st3" d="M300.9,180.6h29c1.3,0,2.3-1,2.3-2.3v-8.8c0-1.3-1-2.3-2.3-2.3h-29.1c-1.3,0-2.3,1-2.3,2.3v8.8
		C298.6,179.5,299.6,180.6,300.9,180.6z"/>
	<path class="st3" d="M299.7,154.2h29.1c1.3,0,2.3-1,2.3-2.3v-8.8c0-1.3-1-2.3-2.3-2.3h-29.1c-1.3,0-2.3,1-2.3,2.3v8.8
		C297.4,153.1,298.4,154.2,299.7,154.2z"/>
	<path class="st4" d="M299.7,154.2h29.1c1.3,0,2.3-1,2.3-2.3v-8.8c0-1.3-1-2.3-2.3-2.3h-29.1c-1.3,0-2.3,1-2.3,2.3v8.8
		C297.4,153.1,298.4,154.2,299.7,154.2z"/>
	<path class="st3" d="M278.3,141.1h29.1c1.3,0,2.3-1,2.3-2.3V130c0-1.3-1-2.3-2.3-2.3h-29.1c-1.3,0-2.3,1-2.3,2.3v8.8
		C275.9,140,277,141.1,278.3,141.1z"/>
	<path class="st4" d="M248.9,219.8H278c1.3,0,2.3-1,2.3-2.3v-8.8c0-1.3-1-2.3-2.3-2.3h-29.1c-1.3,0-2.3,1-2.3,2.3v8.8
		C246.6,218.8,247.7,219.8,248.9,219.8z"/>
	<path class="st4" d="M271.8,232.9h29.1c1.3,0,2.3-1,2.3-2.3v-8.8c0-1.3-1-2.3-2.3-2.3h-29.1c-1.3,0-2.3,1-2.3,2.3v8.8
		C269.5,231.8,270.5,232.9,271.8,232.9z"/>
</g>
<path class="st5" d="M234.8,165.8h-53.7c-1.9,0-3.4,1.5-3.4,3.4v21.3c0,1.9,1.5,3.4,3.4,3.4h53.7c1.9,0,3.4-1.5,3.4-3.4v-21.3
	C238.2,167.3,236.7,165.8,234.8,165.8z"/>
<rect x="182.5" y="189.6" class="st6" width="50.9" height="0.5"/>
<rect x="182.5" y="170.2" class="st7" width="50.9" height="19.3"/>
<circle class="st6" cx="221.5" cy="180.3" r="7"/>
<circle class="st6" cx="194.3" cy="180.3" r="7"/>
<rect x="202.7" y="193.9" class="st5" width="10.5" height="6.1"/>
<rect x="186.1" y="198.3" class="st5" width="43.8" height="35.1"/>
<rect x="185.1" y="240.4" class="st5" width="45.6" height="4.4"/>
<polygon class="st5" points="223.3,255.3 223.3,260.5 223.3,268.4 223.3,272.8 223.3,275.4 215.4,275.4 215.4,272.8 215.4,268.4 
	215.4,260.5 215.4,255.3 215.4,249.1 223.3,249.1 "/>
<polygon class="st5" points="199.6,249.1 199.6,255.3 199.6,260.5 199.6,268.4 199.6,272.8 199.6,275.4 191.7,275.4 191.7,272.8 
	191.7,268.4 191.7,260.5 191.7,255.3 191.7,249.1 "/>
<path class="st5" d="M235.8,206.2v8.1c2.2,0.4,4.2,1.4,5.8,2.8c1.5,1.4,2.7,3.2,3.5,5.1c1,2.5,1.5,5.2,1.7,7.8
	c0.3,3.5,0.1,7-0.5,10.4h8.7c0.4-4.9,0.3-9-0.2-12.6c-0.5-4-1.5-7.3-2.8-10c-2.5-5.3-6.2-8.2-9.3-9.8
	C239,206.2,235.8,206.2,235.8,206.2z"/>
<rect x="215.4" y="249.1" class="st7" width="7.9" height="6.1"/>
<rect x="215.4" y="260.5" class="st7" width="7.9" height="7.9"/>
<rect x="215.4" y="272.8" class="st7" width="7.9" height="2.6"/>
<rect x="191.7" y="249.1" class="st7" width="7.9" height="6.1"/>
<rect x="191.7" y="260.5" class="st7" width="7.9" height="7.9"/>
<rect x="191.7" y="272.8" class="st7" width="7.9" height="2.6"/>
<path class="st7" d="M235.8,206.2v8.1c2.2,0.4,4.2,1.4,5.8,2.8l1.1-9C239,206.2,235.8,206.2,235.8,206.2z"/>
<path class="st7" d="M245.1,222.2c1,2.5,1.5,5.2,1.7,7.8l8.1-2.2c-0.5-4-1.5-7.3-2.8-10L245.1,222.2z"/>
<path class="st5" d="M180,206.2v8.1c-2.2,0.4-4.2,1.4-5.8,2.8c-1.5,1.4-2.7,3.2-3.5,5.1c-1,2.5-1.5,5.2-1.7,7.8
	c-0.3,3.5-0.1,7,0.5,10.4h-8.8c-0.4-4.9-0.3-9,0.2-12.6c0.5-4,1.5-7.3,2.8-10c2.5-5.3,6.2-8.2,9.3-9.8
	C176.9,206.2,180,206.2,180,206.2z"/>
<path class="st7" d="M180,206.2v8.1c-2.2,0.4-4.2,1.4-5.8,2.8l-1.1-9C176.9,206.2,180,206.2,180,206.2z"/>
<path class="st7" d="M170.7,222.2c-1,2.5-1.5,5.2-1.7,7.8l-8.1-2.2c0.5-4,1.5-7.3,2.8-10L170.7,222.2z"/>
<path class="st6" d="M185.2,204.5v14.7c0.5-0.6,0.8-1.3,0.8-2.1v-10.5C186.1,205.8,185.8,205.1,185.2,204.5z"/>
<path class="st6" d="M229.7,205.5v11c0.1,0.7,0.3,1.4,0.8,1.9v-14.7C230.1,204.1,229.8,204.8,229.7,205.5z"/>
<rect x="188.2" y="233.4" class="st6" width="39.5" height="0.5"/>
<rect x="209.2" y="244.7" class="st6" width="19.3" height="0.4"/>
<rect x="188.2" y="244.7" class="st6" width="19.3" height="0.4"/>
<rect x="223.4" y="139.9" class="st5" width="3" height="26"/>
<rect x="188.8" y="139.9" class="st5" width="3" height="26"/>
<circle class="st6" cx="225" cy="140" r="3.4"/>
<circle class="st5" cx="225" cy="139.9" r="3.4"/>
<circle class="st6" cx="190.2" cy="140" r="3.4"/>
<circle class="st5" cx="190.2" cy="139.9" r="3.4"/>
<path class="st8" d="M98.2,222.9c0,0-3.5,4.6,1.6,11.4c5.1,6.9,9.3,12.7,7.6,17c0,0-7.7-12.8-13.9-12.9
	C87.2,238.1,91.3,230.6,98.2,222.9z"/>
<path class="st6" d="M98.2,222.9c-0.3,0.4-0.5,0.9-0.7,1.4c-6.1,7.2-9.3,13.8-3.5,14c5.5,0.2,12,9.9,13.6,12.4
	c-0.1,0.2-0.1,0.4-0.2,0.6c0,0-7.7-12.8-13.9-12.9C87.2,238.1,91.3,230.6,98.2,222.9z"/>
<path class="st9" d="M91.7,228.7c0,1.6,0.2,2.9,0.4,2.9s0.4-1.3,0.4-2.9s-0.2-0.9-0.4-0.9S91.7,227.1,91.7,228.7z"/>
<path class="st9" d="M89.5,230.6c1.4,0.8,2.6,1.2,2.7,1s-0.9-1-2.3-1.7c-1.4-0.8-0.9-0.2-1,0C88.8,230,88.1,229.8,89.5,230.6z"/>
<path class="st8" d="M116.6,222.9c0,0,3.5,4.6-1.6,11.4c-5.1,6.9-9.3,12.7-7.6,17c0,0,7.7-12.8,13.9-12.9
	C127.6,238.1,123.5,230.6,116.6,222.9z"/>
<path class="st6" d="M116.6,222.9c0.3,0.4,0.5,0.9,0.7,1.4c6.1,7.2,9.3,13.8,3.5,14c-5.5,0.2-12,9.9-13.6,12.4
	c0.1,0.2,0.1,0.4,0.2,0.6c0,0,7.7-12.8,13.9-12.9C127.6,238.2,123.5,230.6,116.6,222.9z"/>
<path class="st9" d="M123.1,228.7c0,1.6-0.2,2.9-0.4,2.9s-0.4-1.3-0.4-2.9s0.2-0.9,0.4-0.9S123.1,227.1,123.1,228.7z"/>
<path class="st9" d="M125.3,230.6c-1.4,0.8-2.6,1.2-2.7,1s0.9-1,2.3-1.7c1.4-0.8,0.9-0.2,1,0C126,230,126.7,229.8,125.3,230.6z"/>
<path class="st10" d="M122,250.7c0,0-9.7-0.3-12.7-2.4c-2.9-2.1-15-4.6-15.7-1.2c-0.7,3.4-14.6,16.7-3.6,16.7
	c11,0.1,25.5-1.7,28.5-3.5C121.3,258.5,122,250.7,122,250.7z"/>
<path class="st11" d="M89.8,262.6c11,0.1,25.5-1.7,28.5-3.5c2.2-1.4,3.1-6.2,3.4-8.5c0.2,0,0.3,0,0.3,0s-0.6,7.8-3.5,9.6
	c-2.9,1.8-17.5,3.6-28.5,3.5c-3.2,0-4.3-1.1-4.2-2.8C86.2,262,87.4,262.6,89.8,262.6z"/>
</svg>
