<?xml version="1.0" encoding="utf-8"?>
<!-- Generator: Adobe Illustrator 22.0.1, SVG Export Plug-In . SVG Version: 6.00 Build 0)  -->
<svg version="1.1" id="Layer_1" xmlns="http://www.w3.org/2000/svg" xmlns:xlink="http://www.w3.org/1999/xlink" x="0px" y="0px"
	 viewBox="0 0 1300 400" style="enable-background:new 0 0 1300 400;" xml:space="preserve">
<style type="text/css">
	.st0{fill:url(#SVGID_1_);stroke:#000000;stroke-width:1.6452;stroke-miterlimit:10;}
	.st1{fill:#F2F2F2;}
	.st2{fill:none;stroke:#3F3D56;stroke-width:0.274;stroke-miterlimit:10;}
	.st3{fill:none;stroke:#2F2E41;stroke-width:0.274;stroke-miterlimit:10;}
	.st4{fill:#BCD6E2;}
	.st5{fill:#526A75;}
	.st6{fill:#9A9AA8;}
	.st7{fill:#FFB8B8;}
	.st8{fill:#B5B5B5;}
	.st9{fill:#D4E2E8;}
	.st10{fill:#B6B6B7;}
	.st11{fill:#6D6D72;}
</style>
<linearGradient id="SVGID_1_" gradientUnits="userSpaceOnUse" x1="650" y1="200" x2="1950" y2="200" gradientTransform="matrix(-1 0 0 -1 1950 400)">
	<stop  offset="0" style="stop-color:#00354D"/>
	<stop  offset="0.4129" style="stop-color:#00364F"/>
	<stop  offset="0.5616" style="stop-color:#003C56"/>
	<stop  offset="0.6676" style="stop-color:#004561"/>
	<stop  offset="0.7534" style="stop-color:#005272"/>
	<stop  offset="0.8268" style="stop-color:#006388"/>
	<stop  offset="0.8918" style="stop-color:#0078A4"/>
	<stop  offset="0.9492" style="stop-color:#0091C3"/>
	<stop  offset="1" style="stop-color:#00ACE6"/>
	<stop  offset="1" style="stop-color:#0093C7"/>
	<stop  offset="1" style="stop-color:#0075A3"/>
	<stop  offset="1" style="stop-color:#005B83"/>
	<stop  offset="1" style="stop-color:#004567"/>
	<stop  offset="1" style="stop-color:#003351"/>
	<stop  offset="1" style="stop-color:#002540"/>
	<stop  offset="1" style="stop-color:#001B35"/>
	<stop  offset="1" style="stop-color:#00162E"/>
	<stop  offset="1" style="stop-color:#00142C"/>
</linearGradient>
<rect x="0" y="0" class="st0" width="1300" height="400"/>
<ellipse class="st1" cx="1104.2" cy="189.6" rx="109.3" ry="81.1"/>
<ellipse class="st2" cx="1113.1" cy="179.3" rx="109.3" ry="81.1"/>
<path class="st3" d="M1039.4,144.4c3.4-0.6,6.9,0,9.9,1.7c1.6,0.9,3,2.2,3.5,3.9c0.4,1.8-0.5,3.9-2.3,4.2c-2.6,0.4-4-3.7-2.2-5.7
	s4.9-2,7.4-1.3c4.7,1.3,8.5,4.4,12.7,6.9c20.2,12.6,45.7,12.5,69.4,10.1c2.4-0.2,5-0.6,6.9-2.2c1.8-1.6,2.3-5,0.3-6.4
	c-2-1.4-5,0.3-5.5,2.6c-0.5,2.4,1.1,4.7,3.2,5.9c2.1,1.2,4.6,1.3,7,1.3c10.2-0.1,20.2-3.5,29.2-8.5c3-1.7,6.1-3.9,7.1-7.2
	s-1.9-7.6-5.3-6.8c-2.2,0.6-3.4,3-3.6,5.3c-0.1,1.8,0.2,3.6,0.9,5.3c1.2,2.9,3.3,5.3,5.3,7.8c10.5,13.6,15.8,30.6,14.8,47.8
	c-0.4,7.1-2.9,15.2-9.6,17.5c-2.7,0.9-5.7,0.7-8.5,0.1c-2.4-0.5-5.2-1.7-5.2-4.1c-0.1-1.7,1.4-3.2,3-3.6c4.1-1.3,8.5,2.8,8.5,7.1
	c-0.1,4.3-3.6,8-7.7,9.3c-4.1,1.3-8.5,0.7-12.7-0.5c-13.4-3.9-24.6-13.6-38.1-17.3c-15.8-4.4-32.9,0-47.6,7.3"/>
<path class="st4" d="M1214.7,267.8c3,1.1,6.2-0.4,7.3-3.4c1.1-3-0.4-6.2-3.4-7.3c-1-0.4-2.1-0.4-3.2-0.2l0.1,2.9l-1.4-2.5
	c-1.4,0.6-2.4,1.8-2.9,3.2c-0.2,0.5-0.3,1-0.3,1.5C1210.7,264.5,1212.3,266.9,1214.7,267.8z"/>
<path class="st2" d="M1221.5,301.8c-0.5-2.5,1.6-4.7,3.7-6.1c2.1-1.4,4.5-2.8,5.3-5.3c1-3.5-2-6.7-4.4-9.5c-1.8-2.1-3.3-4.3-4.5-6.7
	c-0.5-1-1-2-1.1-3.1c-0.2-1.6,0.3-3.1,0.8-4.6c1.7-4.9,3.5-9.8,5.4-14.7"/>
<path class="st2" d="M1214.9,267c3,1.1,6.2-0.4,7.3-3.4c1.1-3-0.4-6.2-3.4-7.3c-1-0.4-2.1-0.4-3.2-0.2l0.1,2.9l-1.4-2.5
	c-1.4,0.6-2.4,1.8-2.9,3.2c-0.2,0.5-0.3,1-0.3,1.5C1211,263.8,1212.5,266.1,1214.9,267z"/>
<path class="st4" d="M1220.8,250.8c0.7-1.8,2.2-3.2,4.1-3.6l0.5,2.8l0.9-2.9c3.2,0.1,5.7,2.6,5.6,5.8c-0.1,3.2-2.6,5.7-5.8,5.6
	c-3.2-0.1-5.7-2.6-5.6-5.8C1220.5,252,1220.6,251.4,1220.8,250.8L1220.8,250.8z"/>
<path class="st2" d="M1221.2,249.8c0.7-1.8,2.2-3.2,4.1-3.6l0.5,2.8l0.9-2.9c3.2,0.1,5.7,2.6,5.6,5.8c-0.1,3.2-2.6,5.7-5.8,5.6
	c-3.2-0.1-5.7-2.6-5.6-5.8C1220.8,251,1220.9,250.4,1221.2,249.8z"/>
<path class="st4" d="M1225.1,280.9c3,1.1,6.2-0.5,7.3-3.4c0.9-2.5,0-5.3-2.2-6.7l-0.7,2.2l-0.5-2.8c0,0,0,0,0,0
	c-3-1.1-6.2,0.4-7.3,3.4C1220.6,276.6,1222.1,279.9,1225.1,280.9L1225.1,280.9L1225.1,280.9z"/>
<path class="st2" d="M1225.4,279.9c3,1.1,6.2-0.5,7.3-3.4c0.9-2.5,0-5.3-2.2-6.7l-0.7,2.2l-0.5-2.8c0,0,0,0,0,0
	c-3-1.1-6.2,0.4-7.3,3.4C1220.9,275.6,1222.4,278.8,1225.4,279.9L1225.4,279.9z"/>
<path class="st4" d="M1219.2,290.4c0.5,3.1,3.5,5.2,6.6,4.6c3.1-0.5,5.2-3.5,4.6-6.6c-0.5-3.1-3.5-5.2-6.6-4.6
	c-1.4,0.2-2.7,1-3.5,2.1l2.5,3.8l-3.5-2C1219.1,288.6,1219,289.5,1219.2,290.4z"/>
<path class="st2" d="M1219.4,289.6c0.5,3.1,3.5,5.2,6.6,4.6c3.1-0.5,5.2-3.5,4.6-6.6c-0.5-3.1-3.5-5.2-6.6-4.6
	c-1.4,0.2-2.7,1-3.5,2.1l2.5,3.8l-3.5-2C1219.3,287.8,1219.2,288.8,1219.4,289.6z"/>
<line class="st3" x1="1089.7" y1="301.7" x2="1252.5" y2="301.7"/>
<path class="st5" d="M1180.8,138.8l10.7-2c0,0,1.1-0.2,1.3,0.5l-12.3,3.5l-0.2-1.7L1180.8,138.8z"/>
<path class="st6" d="M1181.3,138.7c-3.8,0.1-3.1,1.3-3.5,2.2c-0.5,0.9-4.1,1-4.1,1l0,0c-1.5,0-2.7,1.3-2.7,2.8
	c0,1.5,1.3,2.7,2.8,2.7c1.5,0,2.6-1.2,2.7-2.6c0-0.3,0-0.5-0.1-0.8c-0.3-2.5,4.6-3,4.6-3l-0.2-0.9
	C1180.7,139.6,1180.9,139,1181.3,138.7z M1173.7,146.4c-1.1,0-1.9-0.9-1.9-1.9c0-1.1,0.9-1.9,1.9-1.9c1.1,0,1.9,0.9,1.9,1.9l0,0
	C1175.6,145.5,1174.8,146.4,1173.7,146.4z"/>
<path class="st5" d="M1181.2,141l10.8,0.8c0,0,1.2,0.1,1.3-0.7l-12.8-2.2l0.1,1.8L1181.2,141z"/>
<path class="st6" d="M1180.9,139.7l0.1-0.9c0,0-4.9,0-4.9-2.5c0-0.2,0-0.5,0-0.8c-0.2-1.5-1.6-2.6-3.2-2.4c-1.5,0.2-2.6,1.6-2.4,3.2
	c0.2,1.5,1.6,2.6,3.1,2.4l0,0c0,0,3.7-0.3,4.2,0.5s0,2.2,3.8,1.8C1181.2,140.7,1180.9,140.2,1180.9,139.7z M1175.4,135.9
	c0.1,1.1-0.6,2-1.7,2.1c-1.1,0.1-2-0.6-2.1-1.7c-0.1-1.1,0.6-2,1.7-2.1l0,0C1174.3,134.1,1175.3,134.9,1175.4,135.9z"/>
<path class="st7" d="M1132.6,288c-2.4,0.4-1.9,1.3-1.9,1.3l0.8,1.5l-1.9-10.4l4.5-0.1l1.3,9.4C1134.6,289.3,1133.8,287.7,1132.6,288
	z"/>
<path class="st8" d="M1129.6,288.8l1-0.4c0,0-0.4-0.9,1.9-1.3c1-0.2,2,0,2.9,0.5l0.9,4.8c0,0,4.1,6.5-1.1,6.5
	c-5.2,0-5.4-1.5-5.4-1.5v-1.7c0,0-1.3,0.7-1.5-1.1s1.3-5.4,1.3-5.4L1129.6,288.8z"/>
<path class="st7" d="M1101.7,288c2.4,0.4,1.9,1.3,1.9,1.3l-0.8,1.5l1.9-9.3l-4.5-1.2l-1.3,9.4C1099.7,289.3,1100.5,287.7,1101.7,288
	z"/>
<circle class="st7" cx="1123.5" cy="176.1" r="6.6"/>
<path class="st7" d="M1120.5,180.9c0,0,1.1,4.8-2.8,6.5c-3.9,1.7,12.8,2.2,12.8,2.2s-4.1-4.5-3-9.3L1120.5,180.9z"/>
<path class="st9" d="M1119,186.5l-8.4,1.7l1.9,12.8c0,0,2.6,5.8,1.1,8.2c-1.5,2.4,0.4,3.2,0.4,3.2l19.5,1.1c0,0,2.2-1.1,1.7-2.2
	c-0.4-1.1-0.1-9.4-0.1-9.4s0-0.9,0.5-3.6l-0.1-8.8l-5.8-1C1129.8,188.6,1126.6,189.9,1119,186.5z"/>
<path class="st10" d="M1114,211.8l-10.8,45.4l-6.3,22.5l14.1,4.5c0,0,13.6-40,12.8-48.4l-0.4,48.4l15.1-0.9c0,0,3.7-63.8-5-71.1
	L1114,211.8z"/>
<path class="st7" d="M1106.4,196.2l-4.1,13.4c-0.2,1-0.1,2,0.4,2.8c0.7,1.2,6.2,9.3,8.3,12.3c0.3,0.4,0.9,0.5,1.3,0.2
	c0.1-0.1,0.2-0.1,0.2-0.2l2.7-3.8c0,0,2.6,1.5,3.2,0.9c0.2-0.2-0.3-0.7-1-1.2c-1.7-1.2-3.6-1.8-5.6-2h0l-4.5-8l4.5-11.2
	L1106.4,196.2z"/>
<path class="st9" d="M1112.3,188.9l-0.8-0.8l-1,0.2c0,0-1.9,0.7-3,3.7c-1.1,3-4.5,9.7-4.5,9.7l6.5,3.9l4.1-8.9L1112.3,188.9z"/>
<path class="st7" d="M1140.5,197.4l4.4,13.1c0.2,1,0.1,2-0.4,2.8c-0.7,1.2-6.2,9.3-8.3,12.3c-0.3,0.4-0.9,0.5-1.3,0.2
	c-0.1-0.1-0.2-0.1-0.2-0.2l-2.7-3.8c0,0-2.6,1.5-3.2,0.9c-0.2-0.2,0.3-0.7,1-1.2c1.7-1.2,3.6-1.8,5.6-2h0l4.5-8l-4.5-11.2
	L1140.5,197.4z"/>
<path class="st9" d="M1134.3,190.4l0.8-0.8l1,0.2c0,0,1.9,0.7,3,3.7c1.1,3,4.9,9.8,4.9,9.8l-6.5,2.8l-3.7-8.2L1134.3,190.4z"/>
<path class="st11" d="M1123.5,167.6c0,0-6.8-1.2-8,4.8c-0.3,1.4-0.5,2.8-0.6,4.2c-0.2,3.5-1.2,6.9-2.8,10l0,0l10.9,3.2
	c0,0-2.9-4.6-2.4-6.5c0.1-0.5,0.1-1,0-1.5c-2.7-1.7-3.6-5.3-1.9-8c1.7-2.7,5.3-3.6,8-1.9c2.7,1.7,3.6,5.3,1.9,8
	c-0.7,1.2-1.9,2.1-3.2,2.5c-0.8,1.8-1.3,3.7-0.2,5c1.4,1.7,3,3.2,4.8,4.4c0,0-1.2-5.8,0.7-9.2S1130.7,168.1,1123.5,167.6z"/>
<polygon class="st11" points="1129.5,175.4 1118.1,176.1 1117.8,170.7 1127.7,170.4 "/>
<path class="st8" d="M1104.7,288.8l-1-0.4c0,0,0.4-0.9-1.9-1.3c-1-0.2-2,0-2.9,0.5l-0.9,4.8c0,0-4.1,6.5,1.1,6.5
	c5.2,0,5.4-1.5,5.4-1.5v-1.7c0,0,1.3,0.7,1.5-1.1c0.2-1.7-1.3-5.4-1.3-5.4L1104.7,288.8z"/>
<path class="st6" d="M1079.1,214.6c0,0-2.7,2.6-2.1,4.7l-3,3.2c0,0-2,13.6-4,14.7c0,0-5.2,0-12-7l10-11.3l2.3-5.8l2-2.2l1.6,0.6
	c0,0-2.6,2.9-1.2,4.2s5.1-2.1,5.1-2.1L1079.1,214.6z"/>
<path class="st6" d="M1038,138.5c-0.4-0.5-1.1-0.8-1.7-1c0-0.1-2-0.5-2-0.4l-0.8-0.7l-2.3,1.3l-1.3-1l-0.6,0.2
	c0-0.1-1.9,0.2-1.9,0.2c-0.4,0-0.8,0-1.3,0.1c-1.8,0.2-2,5.4-2,5.4c0.8-0.4,1.7-0.6,2.7-0.6l0.5,15.5c2.5-0.2,5.2,0,8,0.7l1.3-14.1
	l3-1.3C1039.4,143,1038.9,139.8,1038,138.5z"/>
</svg>
