<?xml version="1.0" encoding="utf-8"?>
<!-- Generator: Adobe Illustrator 22.0.1, SVG Export Plug-In . SVG Version: 6.00 Build 0)  -->
<svg version="1.1" id="Layer_1" xmlns="http://www.w3.org/2000/svg" xmlns:xlink="http://www.w3.org/1999/xlink" x="0px" y="0px"
	 viewBox="0 0 1300 400" style="enable-background:new 0 0 1300 400;" xml:space="preserve">
<style type="text/css">
	.st0{fill:url(#SVGID_1_);stroke:#000000;stroke-width:1.6452;stroke-miterlimit:10;}
	.st1{fill:#F2F2F2;}
	.st2{fill:none;stroke:#3F3D56;stroke-width:0.2984;stroke-miterlimit:10;}
	.st3{fill:none;stroke:#2F2E41;stroke-width:0.2984;stroke-miterlimit:10;}
	.st4{fill:#0D8CD8;}
	.st5{fill:#2F2E41;}
	.st6{fill:#FFB8B8;}
	.st7{fill:#3F3D56;}
	.st8{fill:#260303;}
</style>
<linearGradient id="SVGID_1_" gradientUnits="userSpaceOnUse" x1="-9.094947e-13" y1="200.7" x2="223.3176" y2="200.7" gradientTransform="matrix(-5.8213 0 0 1 1300 0)">
	<stop  offset="0" style="stop-color:#007194"/>
	<stop  offset="1" style="stop-color:#41C1C9"/>
</linearGradient>
<rect y="0.7" class="st0" width="1300" height="400"/>
<ellipse class="st1" cx="232.4" cy="178.7" rx="120" ry="87.7"/>
<ellipse class="st2" cx="222.6" cy="167.6" rx="120" ry="87.7"/>
<path class="st3" d="M303.5,129.9c-3.7-0.7-7.6,0-10.9,1.8c-1.7,0.9-3.3,2.3-3.8,4.2s0.6,4.2,2.6,4.5c2.9,0.4,4.4-4,2.4-6.1
	s-5.4-2.2-8.2-1.4c-5.1,1.4-9.4,4.7-13.9,7.5c-22.2,13.6-50.2,13.5-76.3,10.9c-2.7-0.3-5.5-0.7-7.6-2.4c-2-1.7-2.6-5.4-0.4-6.9
	s5.5,0.3,6,2.8s-1.2,5.1-3.5,6.4s-5.1,1.5-7.7,1.4c-11.3-0.1-22.2-3.8-32-9.2c-3.3-1.8-6.7-4.2-7.8-7.8c-1-3.6,2.1-8.3,5.8-7.3
	c2.4,0.6,3.7,3.3,3.9,5.7c0.1,2-0.2,3.9-1,5.7c-1.3,3.2-3.6,5.8-5.8,8.4c-11.6,14.7-17.4,33.1-16.2,51.6c0.5,7.6,3.2,16.5,10.6,18.9
	c3,1,6.3,0.7,9.4,0.1c2.6-0.5,5.7-1.9,5.7-4.5c0.1-1.8-1.5-3.4-3.3-3.9c-4.5-1.4-9.4,3-9.3,7.7c0.1,4.6,3.9,8.6,8.4,10.1
	s9.4,0.8,13.9-0.5c14.7-4.2,27-14.6,41.8-18.7c17.4-4.7,36.1,0,52.3,7.8"/>
<path class="st4" d="M111.1,263.2c-3.2,1.2-6.8-0.5-8-3.7s0.5-6.7,3.7-7.9c1.1-0.4,2.3-0.5,3.5-0.2l-0.2,3.2l1.5-2.7
	c1.5,0.7,2.6,2,3.2,3.5c0.2,0.5,0.3,1.1,0.4,1.7C115.4,259.7,113.7,262.2,111.1,263.2z"/>
<path class="st2" d="M103.6,299.9c0.5-2.7-1.8-5.1-4.1-6.6c-2.3-1.5-5-3.1-5.8-5.7c-1.1-3.8,2.2-7.3,4.8-10.2c2-2.2,3.6-4.6,5-7.3
	c0.5-1,1.1-2.1,1.2-3.3c0.2-1.7-0.3-3.3-0.9-4.9c-1.8-5.3-3.8-10.6-5.9-15.9"/>
<path class="st2" d="M110.9,262.3c-3.2,1.2-6.8-0.5-8-3.7c-1.2-3.2,0.5-6.7,3.7-7.9c1.1-0.4,2.3-0.5,3.5-0.2l-0.2,3.2l1.5-2.7
	c1.5,0.7,2.6,2,3.2,3.5c0.2,0.5,0.3,1.1,0.4,1.7C115.2,258.8,113.5,261.4,110.9,262.3z"/>
<path class="st4" d="M104.4,244.8c-0.7-2-2.4-3.4-4.5-3.9l-0.5,3l-1-3.2c-3.5,0.1-6.2,2.8-6.2,6.2c0.1,3.4,2.9,6.1,6.3,6.1
	s6.2-2.8,6.2-6.2C104.7,246.1,104.6,245.5,104.4,244.8L104.4,244.8z"/>
<path class="st2" d="M104,243.7c-0.7-2-2.4-3.4-4.5-3.9l-0.5,3l-1-3.2c-3.5,0.1-6.2,2.8-6.2,6.2c0.1,3.4,2.9,6.1,6.3,6.1
	s6.2-2.8,6.2-6.2C104.4,245,104.2,244.4,104,243.7z"/>
<path class="st4" d="M99.7,277.4c-3.2,1.2-6.8-0.5-8-3.7c-1-2.7,0-5.7,2.5-7.3l0.7,2.4l0.5-3l0,0c3.2-1.2,6.8,0.5,8,3.7
	C104.6,272.7,102.9,276.2,99.7,277.4L99.7,277.4L99.7,277.4z"/>
<path class="st2" d="M99.4,276.3c-3.2,1.2-6.8-0.5-8-3.7c-1-2.7,0-5.7,2.5-7.3l0.7,2.4l0.5-3l0,0c3.2-1.2,6.8,0.5,8,3.7
	C104.3,271.6,102.6,275.1,99.4,276.3L99.4,276.3z"/>
<path class="st4" d="M106.2,287.6c-0.6,3.3-3.9,5.6-7.2,5c-3.4-0.6-5.7-3.8-5.1-7.1c0.6-3.3,3.9-5.6,7.2-5c1.5,0.3,2.9,1.1,3.9,2.3
	l-2.8,4.1l3.8-2.2C106.3,285.7,106.3,286.6,106.2,287.6z"/>
<path class="st2" d="M105.9,286.8c-0.6,3.3-3.9,5.6-7.2,5s-5.7-3.8-5.1-7.1c0.6-3.3,3.9-5.6,7.2-5c1.5,0.3,2.9,1.1,3.9,2.3l-2.8,4.1
	l3.8-2.2C106,284.8,106.1,285.8,105.9,286.8z"/>
<line class="st3" x1="248.4" y1="299.9" x2="69.5" y2="299.9"/>
<path class="st4" d="M148.3,123.8l-11.7-2.1c0,0-1.2-0.2-1.4,0.6l13.5,3.8l0.3-1.8L148.3,123.8z"/>
<path class="st5" d="M147.8,123.7c4.2,0.1,3.4,1.5,3.9,2.4s4.5,1,4.5,1l0,0c1.7,0,3,1.4,3,3c0,1.7-1.4,3-3.1,2.9
	c-1.6,0-2.9-1.3-2.9-2.8c0-0.3,0-0.6,0.1-0.8c0.4-2.7-5-3.3-5-3.3l0.2-0.9C148.5,124.7,148.2,124.1,147.8,123.7z M156.1,132.1
	c1.2,0,2.1-0.9,2.1-2.1c0-1.2-1-2.1-2.1-2.1c-1.2,0-2.1,0.9-2.1,2.1l0,0C154,131.1,154.9,132.1,156.1,132.1z"/>
<path class="st4" d="M147.9,126.2L136,127c0,0-1.3,0.1-1.4-0.7l14-2.4l-0.1,2L147.9,126.2z"/>
<path class="st5" d="M148.2,124.8l-0.1-0.9c0,0,5.4,0,5.4-2.7c0-0.3,0-0.6,0-0.8c0.2-1.7,1.8-2.8,3.5-2.6c1.7,0.2,2.9,1.7,2.6,3.4
	c-0.2,1.6-1.7,2.8-3.4,2.6l0,0c0,0-4-0.4-4.6,0.5s0,2.4-4.1,2C147.9,125.9,148.2,125.4,148.2,124.8z M154.3,120.7
	c-0.1,1.2,0.7,2.2,1.9,2.3s2.2-0.7,2.3-1.8c0.1-1.2-0.7-2.2-1.9-2.3l0,0C155.4,118.8,154.4,119.6,154.3,120.7z"/>
<path class="st6" d="M201.2,285c2.6,0.5,2.1,1.4,2.1,1.4l-0.8,1.6l2.1-11.2l-5-0.1l-1.4,10.2C199,286.4,199.9,284.7,201.2,285z"/>
<path class="st5" d="M204.5,285.9l-1.1-0.4c0,0,0.5-0.9-2.1-1.4c-1.1-0.2-2.2,0-3.2,0.6l-1,5.1c0,0-4.5,7,1.2,7s5.9-1.6,5.9-1.6
	v-1.9c0,0,1.4,0.7,1.7-1.2c0.2-1.9-1.4-5.8-1.4-5.8V285.9z"/>
<path class="st6" d="M235.1,285c-2.6,0.5-2.1,1.4-2.1,1.4l0.8,1.6l-2.1-10l5-1.3l1.4,10.2C237.4,286.4,236.5,284.7,235.1,285z"/>
<ellipse class="st6" cx="211.2" cy="164.1" rx="7.2" ry="7.1"/>
<path class="st6" d="M214.5,169.3c0,0-1.2,5.1,3.1,7c4.3,1.9-14,2.3-14,2.3s4.5-4.9,3.3-10L214.5,169.3z"/>
<path class="st4" d="M216.2,175.3l9.3,1.9l-2.1,13.8c0,0-2.9,6.3-1.2,8.9c1.7,2.6-0.5,3.5-0.5,3.5l-21.4,1.2c0,0-2.4-1.2-1.9-2.3
	c0.5-1.2,0.1-10.2,0.1-10.2s0-0.9-0.6-3.8l0.1-9.5l6.3-1.1C204.3,177.7,207.9,179.1,216.2,175.3z"/>
<path class="st5" d="M221.6,202.6l11.9,49l6.9,24.3l-15.4,4.9c0,0-15-43.2-14-52.3l0.5,52.3l-16.6-0.9c0,0-4-68.9,5.4-76.8
	L221.6,202.6z"/>
<path class="st6" d="M229.9,185.8l4.5,14.5c0.3,1,0.1,2.1-0.5,3c-0.8,1.3-6.8,10-9.1,13.3c-0.3,0.5-1,0.6-1.5,0.3
	c-0.1-0.1-0.2-0.1-0.3-0.3l-2.9-4.1c0,0-2.9,1.6-3.5,0.9c-0.3-0.3,0.3-0.8,1.1-1.3c1.8-1.2,4-2,6.2-2.2l0,0l5-8.6l-5-12.1
	L229.9,185.8z"/>
<path class="st4" d="M223.5,177.9l0.8-0.9l1.1,0.2c0,0,2.1,0.7,3.3,4c1.2,3.3,5,10.5,5,10.5l-7.1,4.2l-4.5-9.6L223.5,177.9z"/>
<path class="st6" d="M192.6,187.1l-4.9,14.1c-0.3,1-0.1,2.1,0.5,3c0.8,1.3,6.8,10,9.1,13.3c0.3,0.5,1,0.6,1.5,0.3
	c0.1-0.1,0.2-0.1,0.3-0.3l2.9-4.1c0,0,2.9,1.6,3.5,0.9c0.3-0.3-0.3-0.8-1.1-1.3c-1.8-1.2-4-2-6.2-2.2l0,0l-5-8.6l5-12.1L192.6,187.1
	z"/>
<path class="st4" d="M199.3,179.5l-0.8-0.9l-1.1,0.2c0,0-2.1,0.7-3.3,4c-1.2,3.3-5.4,10.6-5.4,10.6l7.1,3l4-8.9L199.3,179.5z"/>
<path class="st5" d="M211.2,155c0,0,7.4-1.3,8.8,5.2c0.3,1.5,0.5,3,0.6,4.6c0.2,3.8,1.3,7.5,3.1,10.8l0,0l-11.9,3.4
	c0,0,3.2-4.9,2.6-7c-0.1-0.5-0.1-1.1,0-1.6c3-1.8,3.9-5.7,2.1-8.6c-1.8-2.9-5.8-3.8-8.8-2s-3.9,5.7-2.1,8.6c0.8,1.3,2,2.2,3.5,2.7
	c0.9,1.9,1.4,4,0.2,5.4c-1.5,1.8-3.3,3.4-5.3,4.7c0,0,1.3-6.3-0.8-9.9C201.2,167.5,203.3,155.5,211.2,155z"/>
<polygon class="st5" points="204.6,163.4 217.1,164.1 217.4,158.3 206.6,158 "/>
<path class="st5" d="M231.9,285.9l1.1-0.4c0,0-0.5-0.9,2.1-1.4c1.1-0.2,2.2,0,3.2,0.6l1,5.1c0,0,4.5,7-1.2,7s-5.9-1.6-5.9-1.6v-1.9
	c0,0-1.4,0.7-1.7-1.2s1.4-5.8,1.4-5.8V285.9z"/>
<path class="st7" d="M259.9,205.7c0,0,3,2.8,2.3,5.1l3.3,3.5c0,0,2.2,14.7,4.4,15.8c0,0,5.7,0,13.2-7.6l-10.9-12.3l-2.5-6.2
	l-2.2-2.4l-1.7,0.7c0,0,2.8,3.1,1.3,4.6s-5.6-2.3-5.6-2.3L259.9,205.7z"/>
<path class="st8" d="M305.1,123.5c0.4-0.6,1.2-0.9,1.9-1c0-0.1,2.2-0.6,2.2-0.5l0.8-0.7l2.6,1.5l1.4-1.1l0.7,0.3
	c0-0.1,2.1,0.3,2.1,0.3c0.4,0,0.9,0,1.5,0.1c2,0.2,2.2,5.9,2.2,5.9c-0.9-0.4-1.9-0.7-2.9-0.7l-0.5,16.7c-2.8-0.3-5.7,0-8.8,0.8
	l-1.4-15.2l-3.3-1.4C303.5,128.3,304.1,124.9,305.1,123.5z"/>
</svg>
