<?xml version="1.0" encoding="utf-8"?>
<!-- Generator: Adobe Illustrator 22.0.1, SVG Export Plug-In . SVG Version: 6.00 Build 0)  -->
<svg version="1.1" id="Layer_1" xmlns="http://www.w3.org/2000/svg" xmlns:xlink="http://www.w3.org/1999/xlink" x="0px" y="0px"
	 viewBox="0 0 1300 400" style="enable-background:new 0 0 1300 400;" xml:space="preserve">
<style type="text/css">
	.st0{fill:url(#SVGID_1_);stroke:#000000;stroke-width:1.6452;stroke-miterlimit:10;}
	.st1{fill:#F2F2F2;}
	.st2{fill:none;stroke:#3F3D56;stroke-width:0.274;stroke-miterlimit:10;}
	.st3{fill:none;stroke:#2F2E41;stroke-width:0.274;stroke-miterlimit:10;}
	.st4{fill:#BCD6E2;}
	.st5{fill:#526A75;}
	.st6{fill:#9A9AA8;}
	.st7{fill:#FFB8B8;}
	.st8{fill:#B5B5B5;}
	.st9{fill:#D4E2E8;}
	.st10{fill:#B6B6B7;}
	.st11{fill:#6D6D72;}
</style>
<linearGradient id="SVGID_1_" gradientUnits="userSpaceOnUse" x1="2492.0098" y1="200" x2="2600" y2="200" gradientTransform="matrix(12.0381 0 0 1 -29999.1602 0)">
	<stop  offset="0" style="stop-color:#00354D"/>
	<stop  offset="0.4129" style="stop-color:#00364F"/>
	<stop  offset="0.5616" style="stop-color:#003C56"/>
	<stop  offset="0.6676" style="stop-color:#004561"/>
	<stop  offset="0.7534" style="stop-color:#005272"/>
	<stop  offset="0.8268" style="stop-color:#006388"/>
	<stop  offset="0.8918" style="stop-color:#0078A4"/>
	<stop  offset="0.9492" style="stop-color:#0091C3"/>
	<stop  offset="1" style="stop-color:#00ACE6"/>
	<stop  offset="1" style="stop-color:#0093C7"/>
	<stop  offset="1" style="stop-color:#0075A3"/>
	<stop  offset="1" style="stop-color:#005B83"/>
	<stop  offset="1" style="stop-color:#004567"/>
	<stop  offset="1" style="stop-color:#003351"/>
	<stop  offset="1" style="stop-color:#002540"/>
	<stop  offset="1" style="stop-color:#001B35"/>
	<stop  offset="1" style="stop-color:#00162E"/>
	<stop  offset="1" style="stop-color:#00142C"/>
</linearGradient>
<rect class="st0" width="1300" height="400"/>
<ellipse class="st1" cx="195.8" cy="189.6" rx="109.3" ry="81.1"/>
<ellipse class="st2" cx="186.9" cy="179.3" rx="109.3" ry="81.1"/>
<path class="st3" d="M260.6,144.4c-3.4-0.6-6.9,0-9.9,1.7c-1.6,0.9-3,2.2-3.5,3.9c-0.4,1.8,0.5,3.9,2.3,4.2c2.6,0.4,4-3.7,2.2-5.7
	s-4.9-2-7.4-1.3c-4.7,1.3-8.5,4.4-12.7,6.9c-20.2,12.6-45.7,12.5-69.4,10.1c-2.4-0.2-5-0.6-6.9-2.2c-1.8-1.6-2.3-5-0.3-6.4
	s5,0.3,5.5,2.6c0.5,2.4-1.1,4.7-3.2,5.9s-4.6,1.3-7,1.3c-10.2-0.1-20.2-3.5-29.2-8.5c-3-1.7-6.1-3.9-7.1-7.2s1.9-7.6,5.3-6.8
	c2.2,0.6,3.4,3,3.6,5.3c0.1,1.8-0.2,3.6-0.9,5.3c-1.2,2.9-3.3,5.3-5.3,7.8c-10.5,13.6-15.8,30.6-14.8,47.8
	c0.4,7.1,2.9,15.2,9.6,17.5c2.7,0.9,5.7,0.7,8.5,0.1c2.4-0.5,5.2-1.7,5.2-4.1c0.1-1.7-1.4-3.2-3-3.6c-4.1-1.3-8.5,2.8-8.5,7.1
	c0.1,4.3,3.6,8,7.7,9.3s8.5,0.7,12.7-0.5c13.4-3.9,24.6-13.6,38.1-17.3c15.8-4.4,32.9,0,47.6,7.3"/>
<path class="st4" d="M85.3,267.8c-3,1.1-6.2-0.4-7.3-3.4c-1.1-3,0.4-6.2,3.4-7.3c1-0.4,2.1-0.4,3.2-0.2l-0.1,2.9l1.4-2.5
	c1.4,0.6,2.4,1.8,2.9,3.2c0.2,0.5,0.3,1,0.3,1.5C89.3,264.5,87.7,266.9,85.3,267.8z"/>
<path class="st2" d="M78.5,301.8c0.5-2.5-1.6-4.7-3.7-6.1s-4.5-2.8-5.3-5.3c-1-3.5,2-6.7,4.4-9.5c1.8-2.1,3.3-4.3,4.5-6.7
	c0.5-1,1-2,1.1-3.1c0.2-1.6-0.3-3.1-0.8-4.6c-1.7-4.9-3.5-9.8-5.4-14.7"/>
<path class="st2" d="M85.1,267c-3,1.1-6.2-0.4-7.3-3.4c-1.1-3,0.4-6.2,3.4-7.3c1-0.4,2.1-0.4,3.2-0.2l-0.1,2.9l1.4-2.5
	c1.4,0.6,2.4,1.8,2.9,3.2c0.2,0.5,0.3,1,0.3,1.5C89,263.8,87.5,266.1,85.1,267z"/>
<path class="st4" d="M79.2,250.8c-0.7-1.8-2.2-3.2-4.1-3.6l-0.5,2.8l-0.9-2.9c-3.2,0.1-5.7,2.6-5.6,5.8s2.6,5.7,5.8,5.6
	c3.2-0.1,5.7-2.6,5.6-5.8C79.5,252,79.4,251.4,79.2,250.8L79.2,250.8z"/>
<path class="st2" d="M78.8,249.8c-0.7-1.8-2.2-3.2-4.1-3.6l-0.5,2.8l-0.9-2.9c-3.2,0.1-5.7,2.6-5.6,5.8s2.6,5.7,5.8,5.6
	c3.2-0.1,5.7-2.6,5.6-5.8C79.2,251,79.1,250.4,78.8,249.8z"/>
<path class="st4" d="M74.9,280.9c-3,1.1-6.2-0.5-7.3-3.4c-0.9-2.5,0-5.3,2.2-6.7l0.7,2.2l0.5-2.8l0,0c3-1.1,6.2,0.4,7.3,3.4
	S77.9,279.9,74.9,280.9L74.9,280.9L74.9,280.9z"/>
<path class="st2" d="M74.6,279.9c-3,1.1-6.2-0.5-7.3-3.4c-0.9-2.5,0-5.3,2.2-6.7l0.7,2.2l0.5-2.8l0,0c3-1.1,6.2,0.4,7.3,3.4
	S77.6,278.8,74.6,279.9L74.6,279.9z"/>
<path class="st4" d="M80.8,290.4c-0.5,3.1-3.5,5.2-6.6,4.6c-3.1-0.5-5.2-3.5-4.6-6.6c0.5-3.1,3.5-5.2,6.6-4.6c1.4,0.2,2.7,1,3.5,2.1
	l-2.5,3.8l3.5-2C80.9,288.6,81,289.5,80.8,290.4z"/>
<path class="st2" d="M80.6,289.6c-0.5,3.1-3.5,5.2-6.6,4.6c-3.1-0.5-5.2-3.5-4.6-6.6c0.5-3.1,3.5-5.2,6.6-4.6c1.4,0.2,2.7,1,3.5,2.1
	l-2.5,3.8l3.5-2C80.7,287.8,80.8,288.8,80.6,289.6z"/>
<line class="st3" x1="210.3" y1="301.7" x2="47.5" y2="301.7"/>
<path class="st5" d="M119.2,138.8l-10.7-2c0,0-1.1-0.2-1.3,0.5l12.3,3.5l0.2-1.7L119.2,138.8z"/>
<path class="st6" d="M118.7,138.7c3.8,0.1,3.1,1.3,3.5,2.2c0.5,0.9,4.1,1,4.1,1l0,0c1.5,0,2.7,1.3,2.7,2.8s-1.3,2.7-2.8,2.7
	s-2.6-1.2-2.7-2.6c0-0.3,0-0.5,0.1-0.8c0.3-2.5-4.6-3-4.6-3l0.2-0.9C119.3,139.6,119.1,139,118.7,138.7z M126.3,146.4
	c1.1,0,1.9-0.9,1.9-1.9c0-1.1-0.9-1.9-1.9-1.9c-1.1,0-1.9,0.9-1.9,1.9l0,0C124.4,145.5,125.2,146.4,126.3,146.4z"/>
<path class="st5" d="M118.8,141l-10.8,0.8c0,0-1.2,0.1-1.3-0.7l12.8-2.2l-0.1,1.8L118.8,141z"/>
<path class="st6" d="M119.1,139.7l-0.1-0.9c0,0,4.9,0,4.9-2.5c0-0.2,0-0.5,0-0.8c0.2-1.5,1.6-2.6,3.2-2.4c1.5,0.2,2.6,1.6,2.4,3.2
	c-0.2,1.5-1.6,2.6-3.1,2.4l0,0c0,0-3.7-0.3-4.2,0.5s0,2.2-3.8,1.8C118.8,140.7,119.1,140.2,119.1,139.7z M124.6,135.9
	c-0.1,1.1,0.6,2,1.7,2.1s2-0.6,2.1-1.7c0.1-1.1-0.6-2-1.7-2.1l0,0C125.7,134.1,124.7,134.9,124.6,135.9z"/>
<path class="st7" d="M167.4,288c2.4,0.4,1.9,1.3,1.9,1.3l-0.8,1.5l1.9-10.4l-4.5-0.1l-1.3,9.4C165.4,289.3,166.2,287.7,167.4,288z"
	/>
<path class="st8" d="M170.4,288.8l-1-0.4c0,0,0.4-0.9-1.9-1.3c-1-0.2-2,0-2.9,0.5l-0.9,4.8c0,0-4.1,6.5,1.1,6.5s5.4-1.5,5.4-1.5
	v-1.7c0,0,1.3,0.7,1.5-1.1s-1.3-5.4-1.3-5.4L170.4,288.8z"/>
<path class="st7" d="M198.3,288c-2.4,0.4-1.9,1.3-1.9,1.3l0.8,1.5l-1.9-9.3l4.5-1.2l1.3,9.4C200.3,289.3,199.5,287.7,198.3,288z"/>
<circle class="st7" cx="176.5" cy="176.1" r="6.6"/>
<path class="st7" d="M179.5,180.9c0,0-1.1,4.8,2.8,6.5s-12.8,2.2-12.8,2.2s4.1-4.5,3-9.3L179.5,180.9z"/>
<path class="st9" d="M181,186.5l8.4,1.7l-1.9,12.8c0,0-2.6,5.8-1.1,8.2s-0.4,3.2-0.4,3.2l-19.5,1.1c0,0-2.2-1.1-1.7-2.2
	c0.4-1.1,0.1-9.4,0.1-9.4s0-0.9-0.5-3.6l0.1-8.8l5.8-1C170.2,188.6,173.4,189.9,181,186.5z"/>
<path class="st10" d="M186,211.8l10.8,45.4l6.3,22.5l-14.1,4.5c0,0-13.6-40-12.8-48.4l0.4,48.4l-15.1-0.9c0,0-3.7-63.8,5-71.1
	L186,211.8z"/>
<path class="st7" d="M193.6,196.2l4.1,13.4c0.2,1,0.1,2-0.4,2.8c-0.7,1.2-6.2,9.3-8.3,12.3c-0.3,0.4-0.9,0.5-1.3,0.2
	c-0.1-0.1-0.2-0.1-0.2-0.2l-2.7-3.8c0,0-2.6,1.5-3.2,0.9c-0.2-0.2,0.3-0.7,1-1.2c1.7-1.2,3.6-1.8,5.6-2l0,0l4.5-8l-4.5-11.2
	L193.6,196.2z"/>
<path class="st9" d="M187.7,188.9l0.8-0.8l1,0.2c0,0,1.9,0.7,3,3.7s4.5,9.7,4.5,9.7l-6.5,3.9l-4.1-8.9L187.7,188.9z"/>
<path class="st7" d="M159.5,197.4l-4.4,13.1c-0.2,1-0.1,2,0.4,2.8c0.7,1.2,6.2,9.3,8.3,12.3c0.3,0.4,0.9,0.5,1.3,0.2
	c0.1-0.1,0.2-0.1,0.2-0.2l2.7-3.8c0,0,2.6,1.5,3.2,0.9c0.2-0.2-0.3-0.7-1-1.2c-1.7-1.2-3.6-1.8-5.6-2l0,0l-4.5-8l4.5-11.2
	L159.5,197.4z"/>
<path class="st9" d="M165.7,190.4l-0.8-0.8l-1,0.2c0,0-1.9,0.7-3,3.7s-4.9,9.8-4.9,9.8l6.5,2.8l3.7-8.2L165.7,190.4z"/>
<path class="st11" d="M176.5,167.6c0,0,6.8-1.2,8,4.8c0.3,1.4,0.5,2.8,0.6,4.2c0.2,3.5,1.2,6.9,2.8,10l0,0l-10.9,3.2
	c0,0,2.9-4.6,2.4-6.5c-0.1-0.5-0.1-1,0-1.5c2.7-1.7,3.6-5.3,1.9-8s-5.3-3.6-8-1.9c-2.7,1.7-3.6,5.3-1.9,8c0.7,1.2,1.9,2.1,3.2,2.5
	c0.8,1.8,1.3,3.7,0.2,5c-1.4,1.7-3,3.2-4.8,4.4c0,0,1.2-5.8-0.7-9.2S169.3,168.1,176.5,167.6z"/>
<polygon class="st11" points="170.5,175.4 181.9,176.1 182.2,170.7 172.3,170.4 "/>
<path class="st8" d="M195.3,288.8l1-0.4c0,0-0.4-0.9,1.9-1.3c1-0.2,2,0,2.9,0.5l0.9,4.8c0,0,4.1,6.5-1.1,6.5s-5.4-1.5-5.4-1.5v-1.7
	c0,0-1.3,0.7-1.5-1.1c-0.2-1.7,1.3-5.4,1.3-5.4L195.3,288.8z"/>
<path class="st6" d="M220.9,214.6c0,0,2.7,2.6,2.1,4.7l3,3.2c0,0,2,13.6,4,14.7c0,0,5.2,0,12-7l-10-11.3l-2.3-5.8l-2-2.2l-1.6,0.6
	c0,0,2.6,2.9,1.2,4.2s-5.1-2.1-5.1-2.1L220.9,214.6z"/>
<path class="st6" d="M262,138.5c0.4-0.5,1.1-0.8,1.7-1c0-0.1,2-0.5,2-0.4l0.8-0.7l2.3,1.3l1.3-1l0.6,0.2c0-0.1,1.9,0.2,1.9,0.2
	c0.4,0,0.8,0,1.3,0.1c1.8,0.2,2,5.4,2,5.4c-0.8-0.4-1.7-0.6-2.7-0.6l-0.5,15.5c-2.5-0.2-5.2,0-8,0.7l-1.3-14.1l-3-1.3
	C260.6,143,261.1,139.8,262,138.5z"/>
</svg>
