<?xml version="1.0" encoding="utf-8"?>
<!-- Generator: Adobe Illustrator 22.0.1, SVG Export Plug-In . SVG Version: 6.00 Build 0)  -->
<svg version="1.1" id="Layer_1" xmlns="http://www.w3.org/2000/svg" xmlns:xlink="http://www.w3.org/1999/xlink" x="0px" y="0px"
	 viewBox="0 0 1300 400" style="enable-background:new 0 0 1300 400;" xml:space="preserve">
<style type="text/css">
	.st0{fill:url(#SVGID_1_);stroke:#000000;stroke-width:1.6452;stroke-miterlimit:10;}
	.st1{fill:#F2F2F2;}
	.st2{fill:#3F3D56;}
	.st3{fill:#0D8CD8;}
	.st4{fill:#2F2E41;}
	.st5{fill:#FFB9B9;}
	.st6{opacity:0.1;enable-background:new    ;}
	.st7{fill:#575A89;}
</style>
<linearGradient id="SVGID_1_" gradientUnits="userSpaceOnUse" x1="1.1086" y1="200.3478" x2="1301.1086" y2="200.3478" gradientTransform="matrix(1 0 0 -1 0 400)">
	<stop  offset="0" style="stop-color:#007194"/>
	<stop  offset="1" style="stop-color:#41C1C9"/>
</linearGradient>
<rect x="1.1" y="-0.3" class="st0" width="1300" height="400"/>
<ellipse class="st1" cx="977" cy="195" rx="6.4" ry="5.6"/>
<ellipse class="st1" cx="955.1" cy="259.5" rx="4" ry="3.5"/>
<rect x="1028" y="101.7" class="st1" width="48.6" height="0.6"/>
<rect x="1041.2" y="96.2" class="st1" width="0.7" height="5.6"/>
<rect x="1062.4" y="96.2" class="st1" width="0.7" height="5.6"/>
<rect x="1106.5" y="248.9" class="st1" width="48.6" height="0.6"/>
<rect x="1119.7" y="243.4" class="st1" width="0.7" height="5.6"/>
<rect x="1140.9" y="243.4" class="st1" width="0.7" height="5.6"/>
<rect x="1108.9" y="156.1" class="st1" width="48.6" height="0.6"/>
<rect x="1122.1" y="150.7" class="st1" width="0.7" height="5.6"/>
<rect x="1143.3" y="150.7" class="st1" width="0.7" height="5.6"/>
<rect x="1108.9" y="134.2" class="st1" width="48.6" height="0.6"/>
<rect x="1122.1" y="128.8" class="st1" width="0.7" height="5.6"/>
<rect x="1143.3" y="128.8" class="st1" width="0.7" height="5.6"/>
<rect x="1002.3" y="137.3" class="st1" width="48.6" height="0.6"/>
<rect x="1015.5" y="131.8" class="st1" width="0.7" height="5.6"/>
<rect x="1036.7" y="131.8" class="st1" width="0.7" height="5.6"/>
<rect x="966.9" y="123" class="st1" width="48.6" height="0.6"/>
<rect x="980.1" y="117.5" class="st1" width="0.7" height="5.6"/>
<rect x="1001.3" y="117.5" class="st1" width="0.7" height="5.6"/>
<rect x="945" y="179.2" class="st1" width="48.6" height="0.6"/>
<rect x="958.2" y="173.8" class="st1" width="0.7" height="5.6"/>
<rect x="979.4" y="173.8" class="st1" width="0.7" height="5.6"/>
<rect x="920.7" y="241.3" class="st1" width="48.6" height="0.6"/>
<rect x="933.9" y="235.8" class="st1" width="0.7" height="5.6"/>
<rect x="955.1" y="235.8" class="st1" width="0.7" height="5.6"/>
<rect x="1150.6" y="215.7" class="st1" width="48.6" height="0.6"/>
<rect x="1163.8" y="210.3" class="st1" width="0.7" height="5.6"/>
<rect x="1185" y="210.3" class="st1" width="0.7" height="5.6"/>
<rect x="1136.4" y="176.8" class="st1" width="48.6" height="0.6"/>
<rect x="1171.1" y="177.3" class="st1" width="0.7" height="5.6"/>
<rect x="1149.9" y="177.3" class="st1" width="0.7" height="5.6"/>
<rect x="900.9" y="131.2" class="st1" width="48.6" height="0.6"/>
<rect x="935.6" y="131.7" class="st1" width="0.7" height="5.6"/>
<rect x="914.4" y="131.7" class="st1" width="0.7" height="5.6"/>
<rect x="904" y="210.9" class="st1" width="48.6" height="0.6"/>
<rect x="938.7" y="211.3" class="st1" width="0.7" height="5.6"/>
<rect x="917.5" y="211.3" class="st1" width="0.7" height="5.6"/>
<rect x="1057.2" y="111.4" class="st1" width="48.6" height="0.6"/>
<rect x="1091.9" y="111.9" class="st1" width="0.7" height="5.6"/>
<rect x="1070.7" y="111.9" class="st1" width="0.7" height="5.6"/>
<rect x="920.7" y="153.7" class="st1" width="48.6" height="0.6"/>
<rect x="933.9" y="148.2" class="st1" width="0.7" height="5.6"/>
<rect x="955.1" y="148.2" class="st1" width="0.7" height="5.6"/>
<path class="st2" d="M977.1,147.8V291h151.5V147.8H977.1z M1052.8,158.1c-2.9,0-5.2-2-5.2-4.6s2.3-4.6,5.2-4.6s5.2,2,5.2,4.6
	S1055.7,158.1,1052.8,158.1L1052.8,158.1L1052.8,158.1z"/>
<path class="st2" d="M908.9,278.8c2.4,7.8,10.6,12.6,10.6,12.6s4.3-7.8,1.9-15.6c-2.4-7.8-10.6-12.6-10.6-12.6
	S906.5,271,908.9,278.8z"/>
<path class="st3" d="M912.5,277.1c6.6,5.6,7.4,14.2,7.4,14.2s-9.9-0.5-16.5-6.1c-6.6-5.6-7.4-14.2-7.4-14.2S905.9,271.5,912.5,277.1
	z"/>
<rect x="901.7" y="290.7" class="st2" width="315.8" height="0.6"/>
<path class="st2" d="M962.7,271.9c0-2.8-1.9-5.2-4.9-6.2c3.9-1.3,5.9-5.2,4.4-8.7c-1.5-3.4-6-5.2-9.9-3.8c-3.9,1.3-5.9,5.2-4.4,8.7
	c0.8,1.7,2.4,3.1,4.4,3.8c-3.9,1.3-5.9,5.2-4.4,8.7c0.8,1.7,2.4,3.1,4.4,3.8c-3.9,1.3-5.9,5.2-4.4,8.7c1.5,3.4,6,5.2,9.9,3.8
	c3.9-1.3,5.9-5.2,4.4-8.7c-0.8-1.7-2.4-3.1-4.4-3.8C960.8,277.2,962.7,274.7,962.7,271.9z M948.1,259.5c0-3.4,3.1-6.1,6.9-6.1
	c3.8,0,7,2.7,7,6.1c0,2.8-2.2,5.3-5.4,5.9c-1-0.2-2.1-0.2-3.1,0C950.3,264.8,948.1,262.3,948.1,259.5z M962,284.4
	c0,3.4-3.1,6.1-6.9,6.1c-3.8,0-7-2.7-7-6.1c0-2.8,2.2-5.3,5.4-5.9c1,0.2,2.1,0.2,3.1,0C959.8,279.1,962,281.6,962,284.4z
	 M956.6,277.9c-1-0.2-2.1-0.2-3.1,0c-3.7-0.8-6.1-4-5.2-7.3c0.6-2.3,2.6-4,5.2-4.6c1,0.2,2.1,0.2,3.1,0c3.7,0.8,6.1,4,5.2,7.3
	C961.2,275.6,959.2,277.3,956.6,277.9z"/>
<path class="st1" d="M1073.5,177.7H994c-1.3,0-2.4-1-2.4-2.1s1.1-2.1,2.4-2.1h79.6c1.3,0,2.4,1,2.4,2.1S1074.9,177.7,1073.5,177.7z"
	/>
<path class="st1" d="M1073.5,199.6H994c-1.3,0-2.4-1-2.4-2.1s1.1-2.1,2.4-2.1h79.6c1.3,0,2.4,1,2.4,2.1S1074.9,199.6,1073.5,199.6z"
	/>
<path class="st1" d="M1073.5,221.5H994c-1.3,0-2.4-1-2.4-2.1s1.1-2.1,2.4-2.1h79.6c1.3,0,2.4,1,2.4,2.1S1074.9,221.5,1073.5,221.5z"
	/>
<path class="st1" d="M1073.5,243.4H994c-1.3,0-2.4-1-2.4-2.1c0-1.2,1.1-2.1,2.4-2.1h79.6c1.3,0,2.4,1,2.4,2.1
	C1075.9,242.5,1074.9,243.4,1073.5,243.4z"/>
<path class="st1" d="M1073.5,265.3H994c-1.3,0-2.4-1-2.4-2.1s1.1-2.1,2.4-2.1h79.6c1.3,0,2.4,1,2.4,2.1S1074.9,265.3,1073.5,265.3z"
	/>
<path class="st3" d="M1059.6,177.7h-66c-1.3,0-2.4-1-2.4-2.1s1.1-2.1,2.4-2.1h66c1.3,0,2.4,1,2.4,2.1S1061,177.7,1059.6,177.7z"/>
<path class="st3" d="M1039.1,199.6h-45.5c-1.3,0-2.4-1-2.4-2.1s1.1-2.1,2.4-2.1h45.5c1.3,0,2.4,1,2.4,2.1S1040.5,199.6,1039.1,199.6
	z"/>
<path class="st3" d="M1014.1,221.5h-20.5c-1.3,0-2.4-1-2.4-2.1c0-1.2,1.1-2.1,2.4-2.1l0,0h20.5c1.3,0,2.4,1,2.4,2.1
	S1015.5,221.5,1014.1,221.5z"/>
<path class="st3" d="M1065.9,243.4h-72.3c-1.3,0-2.4-1-2.4-2.1c0-1.2,1.1-2.1,2.4-2.1h72.3c1.3,0,2.4,1,2.4,2.1
	C1068.3,242.5,1067.2,243.4,1065.9,243.4z"/>
<path class="st3" d="M1049.9,265.3h-56.3c-1.3,0-2.4-1-2.4-2.1s1.1-2.1,2.4-2.1h56.3c1.3,0,2.4,1,2.4,2.1S1051.2,265.3,1049.9,265.3
	z"/>
<rect x="1105.8" y="173.5" class="st3" width="0.7" height="4.3"/>
<path class="st3" d="M1111.7,178c-1.5,0-2.8-1.1-2.8-2.4s1.2-2.4,2.8-2.4s2.8,1.1,2.8,2.4C1114.5,176.9,1113.3,178,1111.7,178z
	 M1111.7,173.8c-1.2,0-2.1,0.8-2.1,1.8s0.9,1.8,2.1,1.8s2.1-0.8,2.1-1.8C1113.8,174.6,1112.9,173.8,1111.7,173.8z"/>
<rect x="1105.8" y="195.4" class="st3" width="0.7" height="4.3"/>
<path class="st3" d="M1111.7,199.9c-1.5,0-2.8-1.1-2.8-2.4s1.2-2.4,2.8-2.4s2.8,1.1,2.8,2.4C1114.5,198.8,1113.3,199.9,1111.7,199.9
	z M1111.7,195.7c-1.2,0-2.1,0.8-2.1,1.8s0.9,1.8,2.1,1.8s2.1-0.8,2.1-1.8C1113.8,196.5,1112.9,195.7,1111.7,195.7z"/>
<rect x="1105.8" y="217.3" class="st3" width="0.7" height="4.3"/>
<path class="st3" d="M1111.7,221.8c-1.5,0-2.8-1.1-2.8-2.4s1.2-2.4,2.8-2.4s2.8,1.1,2.8,2.4C1114.5,220.7,1113.3,221.8,1111.7,221.8
	z M1111.7,217.6c-1.2,0-2.1,0.8-2.1,1.8s0.9,1.8,2.1,1.8s2.1-0.8,2.1-1.8C1113.8,218.4,1112.9,217.6,1111.7,217.6z"/>
<rect x="1105.8" y="239.1" class="st3" width="0.7" height="4.3"/>
<path class="st3" d="M1111.7,243.7c-1.5,0-2.8-1.1-2.8-2.4s1.2-2.4,2.8-2.4s2.8,1.1,2.8,2.4C1114.5,242.6,1113.3,243.7,1111.7,243.7
	z M1111.7,239.5c-1.2,0-2.1,0.8-2.1,1.8s0.9,1.8,2.1,1.8s2.1-0.8,2.1-1.8C1113.8,240.3,1112.9,239.5,1111.7,239.5z"/>
<rect x="1105.8" y="261" class="st3" width="0.7" height="4.3"/>
<path class="st3" d="M1111.7,265.6c-1.5,0-2.8-1.1-2.8-2.4c0-1.3,1.2-2.4,2.8-2.4s2.8,1.1,2.8,2.4
	C1114.5,264.5,1113.3,265.6,1111.7,265.6z M1111.7,261.3c-1.2,0-2.1,0.8-2.1,1.8c0,1,0.9,1.8,2.1,1.8s2.1-0.8,2.1-1.8
	C1113.8,262.2,1112.9,261.3,1111.7,261.3z"/>
<ellipse class="st3" cx="1111.7" cy="175.6" rx="1.4" ry="1.2"/>
<ellipse class="st3" cx="1111.7" cy="241.3" rx="1.4" ry="1.2"/>
<ellipse class="st3" cx="1111.7" cy="263.2" rx="1.4" ry="1.2"/>
<ellipse class="st2" cx="1052.8" cy="153.5" rx="2.4" ry="2.1"/>
<ellipse class="st2" cx="1052.8" cy="97.3" rx="2.4" ry="2.1"/>
<rect x="1052.5" y="97.3" class="st2" width="0.7" height="56.3"/>
<path class="st4" d="M1193.6,212.1v7.5c0,0,2.1,12.1,2.1,22.7c0,10.6-3.3,35.3-3.3,35.3s-6.7,2.1-7.2-1.1
	c-0.5-3.2-1.8-20.2-1.8-22.7c0-2.5-5.6-21.6-5.6-21.6l-3.5,21.2c0,0,1.1,25.1,0,25.8s-6.5,2-7.2,0.7c-0.6-1.3-4-28.2-4-28.2
	s-2.7-35.2-1.1-37.2c1.6-2.1,3-3.8,3-3.8S1187.8,205.8,1193.6,212.1z"/>
<path class="st4" d="M1191.5,276.8l0.4,2.3c0.1,0.8,0.2,1.6,0.3,2.3c0.1,1.1,0.3,2.9,1,3.2c1.1,0.4,8.4,5.8,3.3,6
	c-5.1,0.3-7.7,0.8-9.2-0.3c-1.8-1.2,0.2-0.7-0.6-0.7s-1.8,0-2.1-1.1s0.5-3.1,0.5-3.1v-8.7H1191.5z"/>
<path class="st4" d="M1167.7,276.7l-0.4,2.3c-0.1,0.8-0.2,1.6-0.3,2.3c-0.1,1.1-0.3,2.9-1,3.2c-1.1,0.4-8.4,5.8-3.3,6
	c5.1,0.3,7.7,0.8,9.2-0.3c1.8-1.2-0.2-0.7,0.6-0.7s1.8,0,2.1-1.1s-0.5-3.1-0.5-3.1v-8.7H1167.7z"/>
<path class="st5" d="M1172.2,151.5c0,0,2.7,5.9,4.6,6.8c1.9,1,1,5.4,1,5.4l-4.8,5.9h-3.8l-4.6-7c0,0-0.3-4.6-1.3-5.7
	C1162.3,155.9,1172.2,151.5,1172.2,151.5z"/>
<path class="st6" d="M1172.2,151.5c0,0,2.7,5.9,4.6,6.8c1.9,1,1,5.4,1,5.4l-4.8,5.9h-3.8l-4.6-7c0,0-0.3-4.6-1.3-5.7
	C1162.3,155.9,1172.2,151.5,1172.2,151.5z"/>
<path class="st3" d="M1176.2,163.5l7.2,1.4l5.3,46.3c0,0-2.9,0.4-5.7,3.8s-6.4,2.8-8.1,2c-1.8-0.8-8.8-3.2-8.9-4.2
	c-0.2-1,0.3-18.1,0.3-18.1l-4.5-26.8l2.2-2.9h4l3.2,2.4L1176.2,163.5z"/>
<ellipse class="st5" cx="1165.4" cy="151.5" rx="8.3" ry="7.3"/>
<path class="st7" d="M1177.3,161.2c0,0,15.6,1.4,17.1,4.3c1.4,2.9-1,15.9-1,15.9s5.7,11.3,5.6,14c-0.2,2.7,5.4,20.8-0.6,18.7
	s-4.1-7.5-7.2-3.6c-3,3.9-4.3,3.3-4.3,3.3s-3,4.3-4,3.9c-1-0.4-1.6-3.6,0.5-5.2c2.1-1.5,1.8-4.2-2.2-9.2s-8.1-31.4-5.7-35.4
	S1177.3,161.2,1177.3,161.2z"/>
<polygon class="st5" points="1193.6,214.7 1190.9,217 1187.5,215 1189,212.1 "/>
<path class="st7" d="M1165.8,163.5c0,0-12.1,3.9-12.1,8.1s7.3,22.5,7.3,22.5s0,4.7-0.3,5.9c-0.3,1.1-5.3,10.9-1,11.7
	c2.7,0.5,5,2,5.2,4c0.2,2.4-1.8,5.4-1.7,5.9c0.3,1,2.2,2.4,2.1,1.7c-0.2-0.7,1.3-10.7,3.5-15.2c2.2-4.5-1-34.5-1.6-38.4
	C1167,167.6,1166.5,165.5,1165.8,163.5z"/>
<polygon class="st5" points="1159.5,214.4 1162.3,220.4 1164.5,216.6 1162,211.8 "/>
<path class="st3" d="M1174.7,156c0,0,2.6,0.9,4.2,0.9s8.1,2.9,5.9,4.7s-5.6,2.2-7.2,4.9c-1.6,2.7-2.4,3.1-2.4,3.1l-2.8-3.3
	c0,0,4-3.9,3.8-5.2C1176,159.9,1174.7,156,1174.7,156z"/>
<path class="st3" d="M1164.1,159.4c0,0-2,0.7-2.4,1.8c-0.5,1.1-3.5,3.2-2.2,3.8s6.9,2.8,8,3.2c1.1,0.4,3.2-1.2,3.2-1.2
	s-2.8-1.4-2.8-2.4C1167.8,163.6,1164.1,159.4,1164.1,159.4z"/>
<path class="st7" d="M1157.6,169.7l-3.8,0.8c0,0-5.3,20.6-3.7,25.8s9.1,20.6,9.1,20.6l4.8-4.9c0,0-2.1-11.1-3.3-11.8
	c-1.2-0.7-0.4-2.3-0.4-2.7s0.5-0.1-0.6-1.1s4.1-6.4,2.7-8C1160.9,187,1157.6,169.7,1157.6,169.7z"/>
<path class="st6" d="M1195.2,173.5l-2.3-7.6c0,0,6.2,3.9,7.5,9.6c1.3,5.7,6.2,17.2,3,22.2c-3.2,5-8.8,19.5-10.7,19.3
	c-1.9-0.3-6.5-3.8-6.7-4.3c-0.2-0.6,8.3-13.4,7-14.4s-1-3.5,0-4c1-0.6,2.1-3.2,1.3-3.1c-0.8,0.1-3.2-1.3-2.7-2.8s-2.4-11.9-2.4-11.9
	L1195.2,173.5z"/>
<path class="st7" d="M1192.1,164.9l2.2,0.6c0,0,6.2,3.9,7.5,9.6s6.2,17.2,3,22.2c-3.2,5-8.8,19.5-10.7,19.3
	c-1.9-0.3-6.5-3.8-6.7-4.3c-0.2-0.6,8.3-13.4,7-14.4c-1.3-1-1-3.5,0-4c1-0.6,2.1-3.2,1.3-3.1c-0.8,0.1-3.2-1.3-2.7-2.8
	c0.5-1.5-2.4-11.9-2.4-11.9L1192.1,164.9z"/>
<path class="st4" d="M1171.8,145l1.6-0.5c0,0-3.3-2.8-7.8-2.6l1.3-1.1c0,0-3.1-1-5.9,1.6c-1.5,1.4-3.2,3-4.3,4.8h-1.7l0.7,1.2
	l-2.4,1.2l2.5-0.2c-0.2,1.1-0.2,2.1,0.2,3.2l0.6,1.4c0,0,2.3-4,2.3-4.5v1.2c0,0,1.6-1.1,1.6-1.9l0.8,0.9l0.4-1.4l5.2,1.4l-0.8-1.1
	l3.3,0.4l-1.3-1.4c0,0,3.7,1.6,3.8,3c0.1,1.4,2,3.1,2,3.1l0.8-1.2C1174.6,152.4,1175.9,146.8,1171.8,145z"/>
<ellipse class="st5" cx="1171.5" cy="150.7" rx="1.2" ry="1.7"/>
</svg>
