<?xml version="1.0" encoding="utf-8"?>
<!-- Generator: Adobe Illustrator 22.0.1, SVG Export Plug-In . SVG Version: 6.00 Build 0)  -->
<svg version="1.1" id="Layer_1" xmlns="http://www.w3.org/2000/svg" xmlns:xlink="http://www.w3.org/1999/xlink" x="0px" y="0px"
	 viewBox="0 0 1300 400" style="enable-background:new 0 0 1300 400;" xml:space="preserve">
<style type="text/css">
	.st0{fill:url(#SVGID_1_);stroke:#000000;stroke-width:1.6452;stroke-miterlimit:10;}
	.st1{fill:#F2F2F2;}
	.st2{fill:#3F3D56;}
	.st3{fill:#0D8CD8;}
	.st4{fill:#2F2E41;}
	.st5{fill:#FFB9B9;}
	.st6{opacity:0.1;enable-background:new    ;}
	.st7{fill:#575A89;}
</style>
<linearGradient id="SVGID_1_" gradientUnits="userSpaceOnUse" x1="1.1" y1="199.7" x2="102.2838" y2="199.7" gradientTransform="matrix(-12.8479 0 0 1 1314.1327 0)">
	<stop  offset="0" style="stop-color:#007194"/>
	<stop  offset="1" style="stop-color:#41C1C9"/>
</linearGradient>
<rect y="-0.3" class="st0" width="1300" height="400"/>
<ellipse class="st1" cx="324.1" cy="195" rx="6.4" ry="5.6"/>
<ellipse class="st1" cx="346" cy="259.5" rx="4" ry="3.5"/>
<rect x="224.5" y="101.7" class="st1" width="48.6" height="0.6"/>
<rect x="259.2" y="96.2" class="st1" width="0.7" height="5.6"/>
<rect x="238" y="96.2" class="st1" width="0.7" height="5.6"/>
<rect x="146" y="248.9" class="st1" width="48.6" height="0.6"/>
<rect x="180.7" y="243.4" class="st1" width="0.7" height="5.6"/>
<rect x="159.5" y="243.4" class="st1" width="0.7" height="5.6"/>
<rect x="143.6" y="156.1" class="st1" width="48.6" height="0.6"/>
<rect x="178.3" y="150.7" class="st1" width="0.7" height="5.6"/>
<rect x="157.1" y="150.7" class="st1" width="0.7" height="5.6"/>
<rect x="143.6" y="134.2" class="st1" width="48.6" height="0.6"/>
<rect x="178.3" y="128.8" class="st1" width="0.7" height="5.6"/>
<rect x="157.1" y="128.8" class="st1" width="0.7" height="5.6"/>
<rect x="250.2" y="137.3" class="st1" width="48.6" height="0.6"/>
<rect x="284.9" y="131.8" class="st1" width="0.7" height="5.6"/>
<rect x="263.7" y="131.8" class="st1" width="0.7" height="5.6"/>
<rect x="285.6" y="123" class="st1" width="48.6" height="0.6"/>
<rect x="320.3" y="117.5" class="st1" width="0.7" height="5.6"/>
<rect x="299.1" y="117.5" class="st1" width="0.7" height="5.6"/>
<rect x="307.5" y="179.2" class="st1" width="48.6" height="0.6"/>
<rect x="342.2" y="173.8" class="st1" width="0.7" height="5.6"/>
<rect x="321" y="173.8" class="st1" width="0.7" height="5.6"/>
<rect x="331.8" y="241.3" class="st1" width="48.6" height="0.6"/>
<rect x="366.5" y="235.8" class="st1" width="0.7" height="5.6"/>
<rect x="345.3" y="235.8" class="st1" width="0.7" height="5.6"/>
<rect x="101.9" y="215.7" class="st1" width="48.6" height="0.6"/>
<rect x="136.6" y="210.3" class="st1" width="0.7" height="5.6"/>
<rect x="115.4" y="210.3" class="st1" width="0.7" height="5.6"/>
<rect x="116.1" y="176.8" class="st1" width="48.6" height="0.6"/>
<rect x="129.3" y="177.3" class="st1" width="0.7" height="5.6"/>
<rect x="150.5" y="177.3" class="st1" width="0.7" height="5.6"/>
<rect x="351.6" y="131.2" class="st1" width="48.6" height="0.6"/>
<rect x="364.8" y="131.7" class="st1" width="0.7" height="5.6"/>
<rect x="386" y="131.7" class="st1" width="0.7" height="5.6"/>
<rect x="348.5" y="210.9" class="st1" width="48.6" height="0.6"/>
<rect x="361.7" y="211.3" class="st1" width="0.7" height="5.6"/>
<rect x="382.9" y="211.3" class="st1" width="0.7" height="5.6"/>
<rect x="195.3" y="111.4" class="st1" width="48.6" height="0.6"/>
<rect x="208.5" y="111.9" class="st1" width="0.7" height="5.6"/>
<rect x="229.7" y="111.9" class="st1" width="0.7" height="5.6"/>
<rect x="331.8" y="153.7" class="st1" width="48.6" height="0.6"/>
<rect x="366.5" y="148.2" class="st1" width="0.7" height="5.6"/>
<rect x="345.3" y="148.2" class="st1" width="0.7" height="5.6"/>
<path class="st2" d="M324,147.8V291H172.5V147.8H324z M248.3,158.1c2.9,0,5.2-2,5.2-4.6s-2.3-4.6-5.2-4.6s-5.2,2-5.2,4.6
	S245.4,158.1,248.3,158.1L248.3,158.1L248.3,158.1z"/>
<path class="st2" d="M392.2,278.8c-2.4,7.8-10.6,12.6-10.6,12.6s-4.3-7.8-1.9-15.6c2.4-7.8,10.6-12.6,10.6-12.6
	S394.6,271,392.2,278.8z"/>
<path class="st3" d="M388.6,277.1c-6.6,5.6-7.4,14.2-7.4,14.2s9.9-0.5,16.5-6.1s7.4-14.2,7.4-14.2S395.2,271.5,388.6,277.1z"/>
<rect x="83.6" y="290.7" class="st2" width="315.8" height="0.6"/>
<path class="st2" d="M338.4,271.9c0-2.8,1.9-5.2,4.9-6.2c-3.9-1.3-5.9-5.2-4.4-8.7c1.5-3.4,6-5.2,9.9-3.8c3.9,1.3,5.9,5.2,4.4,8.7
	c-0.8,1.7-2.4,3.1-4.4,3.8c3.9,1.3,5.9,5.2,4.4,8.7c-0.8,1.7-2.4,3.1-4.4,3.8c3.9,1.3,5.9,5.2,4.4,8.7c-1.5,3.4-6,5.2-9.9,3.8
	c-3.9-1.3-5.9-5.2-4.4-8.7c0.8-1.7,2.4-3.1,4.4-3.8C340.3,277.2,338.4,274.7,338.4,271.9z M353,259.5c0-3.4-3.1-6.1-6.9-6.1
	c-3.8,0-7,2.7-7,6.1c0,2.8,2.2,5.3,5.4,5.9c1-0.2,2.1-0.2,3.1,0C350.8,264.8,353,262.3,353,259.5z M339.1,284.4
	c0,3.4,3.1,6.1,6.9,6.1c3.8,0,7-2.7,7-6.1c0-2.8-2.2-5.3-5.4-5.9c-1,0.2-2.1,0.2-3.1,0C341.3,279.1,339.1,281.6,339.1,284.4z
	 M344.5,277.9c1-0.2,2.1-0.2,3.1,0c3.7-0.8,6.1-4,5.2-7.3c-0.6-2.3-2.6-4-5.2-4.6c-1,0.2-2.1,0.2-3.1,0c-3.7,0.8-6.1,4-5.2,7.3
	C339.9,275.6,341.9,277.3,344.5,277.9z"/>
<path class="st1" d="M227.6,177.7h79.5c1.3,0,2.4-1,2.4-2.1s-1.1-2.1-2.4-2.1h-79.6c-1.3,0-2.4,1-2.4,2.1S226.2,177.7,227.6,177.7z"
	/>
<path class="st1" d="M227.6,199.6h79.5c1.3,0,2.4-1,2.4-2.1s-1.1-2.1-2.4-2.1h-79.6c-1.3,0-2.4,1-2.4,2.1S226.2,199.6,227.6,199.6z"
	/>
<path class="st1" d="M227.6,221.5h79.5c1.3,0,2.4-1,2.4-2.1s-1.1-2.1-2.4-2.1h-79.6c-1.3,0-2.4,1-2.4,2.1S226.2,221.5,227.6,221.5z"
	/>
<path class="st1" d="M227.6,243.4h79.5c1.3,0,2.4-1,2.4-2.1c0-1.2-1.1-2.1-2.4-2.1h-79.6c-1.3,0-2.4,1-2.4,2.1
	C225.2,242.5,226.2,243.4,227.6,243.4z"/>
<path class="st1" d="M227.6,265.3h79.5c1.3,0,2.4-1,2.4-2.1s-1.1-2.1-2.4-2.1h-79.6c-1.3,0-2.4,1-2.4,2.1S226.2,265.3,227.6,265.3z"
	/>
<path class="st3" d="M241.5,177.7h66c1.3,0,2.4-1,2.4-2.1s-1.1-2.1-2.4-2.1h-66c-1.3,0-2.4,1-2.4,2.1S240.1,177.7,241.5,177.7z"/>
<path class="st3" d="M262,199.6h45.5c1.3,0,2.4-1,2.4-2.1s-1.1-2.1-2.4-2.1H262c-1.3,0-2.4,1-2.4,2.1S260.6,199.6,262,199.6z"/>
<path class="st3" d="M287,221.5h20.5c1.3,0,2.4-1,2.4-2.1c0-1.2-1.1-2.1-2.4-2.1l0,0H287c-1.3,0-2.4,1-2.4,2.1
	S285.6,221.5,287,221.5z"/>
<path class="st3" d="M235.2,243.4h72.3c1.3,0,2.4-1,2.4-2.1c0-1.2-1.1-2.1-2.4-2.1h-72.3c-1.3,0-2.4,1-2.4,2.1
	C232.8,242.5,233.9,243.4,235.2,243.4z"/>
<path class="st3" d="M251.2,265.3h56.3c1.3,0,2.4-1,2.4-2.1s-1.1-2.1-2.4-2.1h-56.3c-1.3,0-2.4,1-2.4,2.1S249.9,265.3,251.2,265.3z"
	/>
<rect x="194.6" y="173.5" class="st3" width="0.7" height="4.3"/>
<path class="st3" d="M189.4,178c1.5,0,2.8-1.1,2.8-2.4s-1.2-2.4-2.8-2.4s-2.8,1.1-2.8,2.4S187.8,178,189.4,178z M189.4,173.8
	c1.2,0,2.1,0.8,2.1,1.8s-0.9,1.8-2.1,1.8s-2.1-0.8-2.1-1.8C187.3,174.6,188.2,173.8,189.4,173.8z"/>
<rect x="194.6" y="195.4" class="st3" width="0.7" height="4.3"/>
<path class="st3" d="M189.4,199.9c1.5,0,2.8-1.1,2.8-2.4s-1.2-2.4-2.8-2.4s-2.8,1.1-2.8,2.4C186.6,198.8,187.8,199.9,189.4,199.9z
	 M189.4,195.7c1.2,0,2.1,0.8,2.1,1.8s-0.9,1.8-2.1,1.8s-2.1-0.8-2.1-1.8C187.3,196.5,188.2,195.7,189.4,195.7z"/>
<rect x="194.6" y="217.3" class="st3" width="0.7" height="4.3"/>
<path class="st3" d="M189.4,221.8c1.5,0,2.8-1.1,2.8-2.4s-1.2-2.4-2.8-2.4s-2.8,1.1-2.8,2.4S187.8,221.8,189.4,221.8z M189.4,217.6
	c1.2,0,2.1,0.8,2.1,1.8s-0.9,1.8-2.1,1.8s-2.1-0.8-2.1-1.8C187.3,218.4,188.2,217.6,189.4,217.6z"/>
<rect x="194.6" y="239.1" class="st3" width="0.7" height="4.3"/>
<path class="st3" d="M189.4,243.7c1.5,0,2.8-1.1,2.8-2.4s-1.2-2.4-2.8-2.4s-2.8,1.1-2.8,2.4C186.6,242.6,187.8,243.7,189.4,243.7z
	 M189.4,239.5c1.2,0,2.1,0.8,2.1,1.8s-0.9,1.8-2.1,1.8s-2.1-0.8-2.1-1.8C187.3,240.3,188.2,239.5,189.4,239.5z"/>
<rect x="194.6" y="261" class="st3" width="0.7" height="4.3"/>
<path class="st3" d="M189.4,265.6c1.5,0,2.8-1.1,2.8-2.4s-1.2-2.4-2.8-2.4s-2.8,1.1-2.8,2.4S187.8,265.6,189.4,265.6z M189.4,261.3
	c1.2,0,2.1,0.8,2.1,1.8s-0.9,1.8-2.1,1.8s-2.1-0.8-2.1-1.8C187.3,262.2,188.2,261.3,189.4,261.3z"/>
<ellipse class="st3" cx="189.4" cy="175.6" rx="1.4" ry="1.2"/>
<ellipse class="st3" cx="189.4" cy="241.3" rx="1.4" ry="1.2"/>
<ellipse class="st3" cx="189.4" cy="263.2" rx="1.4" ry="1.2"/>
<ellipse class="st2" cx="248.3" cy="153.5" rx="2.4" ry="2.1"/>
<ellipse class="st2" cx="248.3" cy="97.3" rx="2.4" ry="2.1"/>
<rect x="247.9" y="97.3" class="st2" width="0.7" height="56.3"/>
<path class="st4" d="M107.5,212.1v7.5c0,0-2.1,12.1-2.1,22.7c0,10.6,3.3,35.3,3.3,35.3s6.7,2.1,7.2-1.1s1.8-20.2,1.8-22.7
	c0-2.5,5.6-21.6,5.6-21.6l3.5,21.2c0,0-1.1,25.1,0,25.8s6.5,2,7.2,0.7c0.6-1.3,4-28.2,4-28.2s2.7-35.2,1.1-37.2
	c-1.6-2.1-3-3.8-3-3.8S113.3,205.8,107.5,212.1z"/>
<path class="st4" d="M109.6,276.8l-0.4,2.3c-0.1,0.8-0.2,1.6-0.3,2.3c-0.1,1.1-0.3,2.9-1,3.2c-1.1,0.4-8.4,5.8-3.3,6
	c5.1,0.3,7.7,0.8,9.2-0.3c1.8-1.2-0.2-0.7,0.6-0.7s1.8,0,2.1-1.1s-0.5-3.1-0.5-3.1v-8.7h-6.4V276.8z"/>
<path class="st4" d="M133.4,276.7l0.4,2.3c0.1,0.8,0.2,1.6,0.3,2.3c0.1,1.1,0.3,2.9,1,3.2c1.1,0.4,8.4,5.8,3.3,6
	c-5.1,0.3-7.7,0.8-9.2-0.3c-1.8-1.2,0.2-0.7-0.6-0.7s-1.8,0-2.1-1.1s0.5-3.1,0.5-3.1v-8.7h6.4V276.7z"/>
<path class="st5" d="M128.9,151.5c0,0-2.7,5.9-4.6,6.8c-1.9,1-1,5.4-1,5.4l4.8,5.9h3.8l4.6-7c0,0,0.3-4.6,1.3-5.7
	C138.8,155.9,128.9,151.5,128.9,151.5z"/>
<path class="st6" d="M128.9,151.5c0,0-2.7,5.9-4.6,6.8c-1.9,1-1,5.4-1,5.4l4.8,5.9h3.8l4.6-7c0,0,0.3-4.6,1.3-5.7
	C138.8,155.9,128.9,151.5,128.9,151.5z"/>
<path class="st3" d="M124.9,163.5l-7.2,1.4l-5.3,46.3c0,0,2.9,0.4,5.7,3.8s6.4,2.8,8.1,2c1.8-0.8,8.8-3.2,8.9-4.2
	c0.2-1-0.3-18.1-0.3-18.1l4.5-26.8l-2.2-2.9h-4l-3.2,2.4L124.9,163.5z"/>
<ellipse class="st5" cx="135.7" cy="151.5" rx="8.3" ry="7.3"/>
<path class="st7" d="M123.8,161.2c0,0-15.6,1.4-17.1,4.3c-1.4,2.9,1,15.9,1,15.9s-5.7,11.3-5.6,14c0.2,2.7-5.4,20.8,0.6,18.7
	s4.1-7.5,7.2-3.6c3,3.9,4.3,3.3,4.3,3.3s3,4.3,4,3.9c1-0.4,1.6-3.6-0.5-5.2c-2.1-1.5-1.8-4.2,2.2-9.2s8.1-31.4,5.7-35.4
	S123.8,161.2,123.8,161.2z"/>
<polygon class="st5" points="107.5,214.7 110.2,217 113.6,215 112.1,212.1 "/>
<path class="st7" d="M135.3,163.5c0,0,12.1,3.9,12.1,8.1s-7.3,22.5-7.3,22.5s0,4.7,0.3,5.9c0.3,1.1,5.3,10.9,1,11.7
	c-2.7,0.5-5,2-5.2,4c-0.2,2.4,1.8,5.4,1.7,5.9c-0.3,1-2.2,2.4-2.1,1.7c0.2-0.7-1.3-10.7-3.5-15.2s1-34.5,1.6-38.4
	C134.1,167.6,134.6,165.5,135.3,163.5z"/>
<polygon class="st5" points="141.6,214.4 138.8,220.4 136.6,216.6 139.1,211.8 "/>
<path class="st3" d="M126.4,156c0,0-2.6,0.9-4.2,0.9s-8.1,2.9-5.9,4.7s5.6,2.2,7.2,4.9s2.4,3.1,2.4,3.1l2.8-3.3c0,0-4-3.9-3.8-5.2
	C125.1,159.9,126.4,156,126.4,156z"/>
<path class="st3" d="M137,159.4c0,0,2,0.7,2.4,1.8c0.5,1.1,3.5,3.2,2.2,3.8s-6.9,2.8-8,3.2s-3.2-1.2-3.2-1.2s2.8-1.4,2.8-2.4
	C133.3,163.6,137,159.4,137,159.4z"/>
<path class="st7" d="M143.5,169.7l3.8,0.8c0,0,5.3,20.6,3.7,25.8s-9.1,20.6-9.1,20.6l-4.8-4.9c0,0,2.1-11.1,3.3-11.8
	c1.2-0.7,0.4-2.3,0.4-2.7s-0.5-0.1,0.6-1.1s-4.1-6.4-2.7-8C140.2,187,143.5,169.7,143.5,169.7z"/>
<path class="st6" d="M105.9,173.5l2.3-7.6c0,0-6.2,3.9-7.5,9.6c-1.3,5.7-6.2,17.2-3,22.2s8.8,19.5,10.7,19.3
	c1.9-0.3,6.5-3.8,6.7-4.3c0.2-0.6-8.3-13.4-7-14.4s1-3.5,0-4c-1-0.6-2.1-3.2-1.3-3.1c0.8,0.1,3.2-1.3,2.7-2.8s2.4-11.9,2.4-11.9
	L105.9,173.5z"/>
<path class="st7" d="M109,164.9l-2.2,0.6c0,0-6.2,3.9-7.5,9.6s-6.2,17.2-3,22.2s8.8,19.5,10.7,19.3c1.9-0.3,6.5-3.8,6.7-4.3
	c0.2-0.6-8.3-13.4-7-14.4s1-3.5,0-4c-1-0.6-2.1-3.2-1.3-3.1c0.8,0.1,3.2-1.3,2.7-2.8s2.4-11.9,2.4-11.9L109,164.9z"/>
<path class="st4" d="M129.3,145l-1.6-0.5c0,0,3.3-2.8,7.8-2.6l-1.3-1.1c0,0,3.1-1,5.9,1.6c1.5,1.4,3.2,3,4.3,4.8h1.7l-0.7,1.2
	l2.4,1.2l-2.5-0.2c0.2,1.1,0.2,2.1-0.2,3.2l-0.6,1.4c0,0-2.3-4-2.3-4.5v1.2c0,0-1.6-1.1-1.6-1.9l-0.8,0.9l-0.4-1.4l-5.2,1.4l0.8-1.1
	l-3.3,0.4l1.3-1.4c0,0-3.7,1.6-3.8,3c-0.1,1.4-2,3.1-2,3.1l-0.8-1.2C126.5,152.4,125.2,146.8,129.3,145z"/>
<ellipse class="st5" cx="129.6" cy="150.7" rx="1.2" ry="1.7"/>
</svg>
