<?xml version="1.0" encoding="utf-8"?>
<!-- Generator: Adobe Illustrator 22.0.1, SVG Export Plug-In . SVG Version: 6.00 Build 0)  -->
<svg version="1.1" id="Layer_1" xmlns="http://www.w3.org/2000/svg" xmlns:xlink="http://www.w3.org/1999/xlink" x="0px" y="0px"
	 viewBox="0 0 1300 400" style="enable-background:new 0 0 1300 400;" xml:space="preserve">
<style type="text/css">
	.st0{fill:url(#SVGID_1_);stroke:#000000;stroke-width:1.6452;stroke-miterlimit:10;}
	.st1{fill:#F2F2F2;}
	.st2{fill:#D7D7DB;}
	.st3{fill:#696872;}
	.st4{fill:#A3C3D3;}
	.st5{fill:#3F3D56;}
	.st6{fill:#909293;}
	.st7{fill:#B6B6B7;}
	.st8{fill:#E3E3E5;}
	.st9{fill:#FFB9B9;}
	.st10{opacity:0.1;enable-background:new    ;}
	.st11{fill:#EDF2F4;}
	.st12{fill:#B4B6CC;}
	.st13{fill:#BFD2D8;}
	.st14{opacity:0.1;fill:#B4B6CC;enable-background:new    ;}
	.st15{fill:#AAACBA;}
	.st16{fill:#2F2E41;}
</style>
<linearGradient id="SVGID_1_" gradientUnits="userSpaceOnUse" x1="650" y1="199" x2="1950" y2="199" gradientTransform="matrix(-1 0 0 -1 1950 400)">
	<stop  offset="0" style="stop-color:#00354D"/>
	<stop  offset="0.4129" style="stop-color:#00364F"/>
	<stop  offset="0.5616" style="stop-color:#003C56"/>
	<stop  offset="0.6676" style="stop-color:#004561"/>
	<stop  offset="0.7534" style="stop-color:#005272"/>
	<stop  offset="0.8268" style="stop-color:#006388"/>
	<stop  offset="0.8918" style="stop-color:#0078A4"/>
	<stop  offset="0.9492" style="stop-color:#0091C3"/>
	<stop  offset="1" style="stop-color:#00ACE6"/>
	<stop  offset="1" style="stop-color:#0093C7"/>
	<stop  offset="1" style="stop-color:#0075A3"/>
	<stop  offset="1" style="stop-color:#005B83"/>
	<stop  offset="1" style="stop-color:#004567"/>
	<stop  offset="1" style="stop-color:#003351"/>
	<stop  offset="1" style="stop-color:#002540"/>
	<stop  offset="1" style="stop-color:#001B35"/>
	<stop  offset="1" style="stop-color:#00162E"/>
	<stop  offset="1" style="stop-color:#00142C"/>
</linearGradient>
<rect x="0" y="1" class="st0" width="1300" height="400"/>
<circle class="st1" cx="1013.2" cy="196.4" r="4.9"/>
<circle class="st1" cx="996.3" cy="253.3" r="3.1"/>
<rect x="1052.6" y="114" class="st1" width="37.6" height="0.5"/>
<rect x="1062.8" y="109.2" class="st1" width="0.5" height="5"/>
<rect x="1079.1" y="109.2" class="st1" width="0.5" height="5"/>
<rect x="1139.8" y="239" class="st1" width="0.5" height="5"/>
<rect x="1115.1" y="162" class="st1" width="37.6" height="0.5"/>
<rect x="1125.3" y="157.2" class="st1" width="0.5" height="5"/>
<rect x="1141.7" y="157.2" class="st1" width="0.5" height="5"/>
<rect x="1115.1" y="142.7" class="st1" width="37.6" height="0.5"/>
<rect x="1125.3" y="137.9" class="st1" width="0.5" height="5"/>
<rect x="1141.7" y="137.9" class="st1" width="0.5" height="5"/>
<rect x="1032.7" y="145.4" class="st1" width="37.6" height="0.5"/>
<rect x="1042.9" y="140.6" class="st1" width="0.5" height="5"/>
<rect x="1059.3" y="140.6" class="st1" width="0.5" height="5"/>
<rect x="1005.4" y="132.8" class="st1" width="37.6" height="0.5"/>
<rect x="1015.6" y="128" class="st1" width="0.5" height="5"/>
<rect x="1031.9" y="128" class="st1" width="0.5" height="5"/>
<rect x="988.5" y="182.4" class="st1" width="37.6" height="0.5"/>
<rect x="998.6" y="177.6" class="st1" width="0.5" height="5"/>
<rect x="1015" y="177.6" class="st1" width="0.5" height="5"/>
<rect x="969.7" y="237.2" class="st1" width="37.6" height="0.5"/>
<rect x="979.9" y="232.3" class="st1" width="0.5" height="5"/>
<rect x="996.2" y="232.3" class="st1" width="0.5" height="5"/>
<rect x="1147.3" y="214.6" class="st1" width="37.6" height="0.5"/>
<rect x="1157.5" y="209.8" class="st1" width="0.5" height="5"/>
<rect x="1173.9" y="209.8" class="st1" width="0.5" height="5"/>
<rect x="1136.3" y="180.3" class="st1" width="37.6" height="0.5"/>
<rect x="1163.1" y="180.7" class="st1" width="0.5" height="5"/>
<rect x="1146.8" y="180.7" class="st1" width="0.5" height="5"/>
<rect x="954.4" y="140" class="st1" width="37.6" height="0.5"/>
<rect x="981.2" y="140.4" class="st1" width="0.5" height="5"/>
<rect x="964.8" y="140.4" class="st1" width="0.5" height="5"/>
<rect x="956.8" y="210.3" class="st1" width="37.6" height="0.5"/>
<rect x="983.6" y="210.7" class="st1" width="0.5" height="5"/>
<rect x="967.3" y="210.7" class="st1" width="0.5" height="5"/>
<rect x="1075.1" y="122.6" class="st1" width="37.6" height="0.5"/>
<rect x="1101.9" y="123" class="st1" width="0.5" height="5"/>
<rect x="1085.6" y="123" class="st1" width="0.5" height="5"/>
<rect x="969.7" y="159.9" class="st1" width="37.6" height="0.5"/>
<rect x="979.9" y="155.1" class="st1" width="0.5" height="5"/>
<rect x="996.2" y="155.1" class="st1" width="0.5" height="5"/>
<path class="st2" d="M1013,154.7V281h117V154.7H1013z M1071.5,163.8c-2.2,0-4-1.8-4-4s1.8-4,4-4c2.2,0,4,1.8,4,4
	S1073.7,163.8,1071.5,163.8L1071.5,163.8L1071.5,163.8z"/>
<path class="st3" d="M960.6,270.2c1.9,6.9,8.2,11.1,8.2,11.1s3.4-6.9,1.5-13.7c-1.9-6.9-8.2-11.1-8.2-11.1S958.7,263.4,960.6,270.2z
	"/>
<path class="st4" d="M963.3,268.8c5.1,5,5.7,12.6,5.7,12.6s-7.6-0.4-12.7-5.4c-5.1-4.9-5.7-12.6-5.7-12.6S958.2,263.8,963.3,268.8z"
	/>
<rect x="955" y="280.8" class="st5" width="243.9" height="0.5"/>
<path class="st5" d="M1002.1,264.2c0-2.4-1.5-4.6-3.8-5.5c3-1.2,4.5-4.6,3.4-7.6c-1.2-3-4.6-4.5-7.6-3.4c-3,1.2-4.5,4.6-3.4,7.6
	c0.6,1.6,1.8,2.8,3.4,3.4c-3,1.2-4.5,4.6-3.4,7.6c0.6,1.6,1.8,2.8,3.4,3.4c-3,1.2-4.5,4.6-3.4,7.6c1.2,3,4.6,4.5,7.6,3.4
	c3-1.2,4.5-4.6,3.4-7.6c-0.6-1.6-1.8-2.8-3.4-3.4C1000.6,268.8,1002.1,266.6,1002.1,264.2z M990.9,253.2c0-3,2.4-5.4,5.4-5.4
	c3,0,5.4,2.4,5.4,5.4c0,2.5-1.7,4.7-4.2,5.2c-0.8-0.2-1.6-0.2-2.4,0C992.6,257.9,990.9,255.7,990.9,253.2z M1001.6,275.2
	c0,3-2.4,5.4-5.4,5.4c-3,0-5.4-2.4-5.4-5.4c0-2.5,1.7-4.7,4.2-5.2c0.8,0.2,1.6,0.2,2.4,0C999.9,270.6,1001.6,272.7,1001.6,275.2z
	 M997.4,269.4c-0.8-0.2-1.6-0.2-2.4,0c-2.9-0.7-4.7-3.5-4-6.4c0.5-2,2-3.6,4-4c0.8,0.2,1.6,0.2,2.4,0c2.9,0.7,4.7,3.5,4,6.4
	C1001,267.4,999.5,269,997.4,269.4z"/>
<path class="st1" d="M1087.7,181.1h-61.4c-1,0-1.9-0.8-1.9-1.9c0-1,0.8-1.9,1.9-1.9h61.4c1,0,1.9,0.8,1.9,1.9
	C1089.6,180.2,1088.8,181.1,1087.7,181.1z"/>
<path class="st1" d="M1087.7,200.4h-61.4c-1,0-1.9-0.8-1.9-1.9c0-1,0.8-1.9,1.9-1.9h61.4c1,0,1.9,0.8,1.9,1.9
	C1089.6,199.6,1088.8,200.4,1087.7,200.4z"/>
<path class="st1" d="M1087.7,219.7h-61.4c-1,0-1.9-0.8-1.9-1.9c0-1,0.8-1.9,1.9-1.9h61.4c1,0,1.9,0.8,1.9,1.9
	C1089.6,218.9,1088.8,219.7,1087.7,219.7z"/>
<path class="st1" d="M1087.7,239h-61.4c-1,0-1.9-0.8-1.9-1.9s0.8-1.9,1.9-1.9h61.4c1,0,1.9,0.8,1.9,1.9S1088.8,239,1087.7,239z"/>
<path class="st1" d="M1087.7,258.4h-61.4c-1,0-1.9-0.8-1.9-1.9c0-1,0.8-1.9,1.9-1.9h61.4c1,0,1.9,0.8,1.9,1.9
	C1089.6,257.5,1088.8,258.4,1087.7,258.4z"/>
<path class="st6" d="M1077,181.1h-51c-1,0-1.9-0.8-1.9-1.9c0-1,0.8-1.9,1.9-1.9h51c1,0,1.9,0.8,1.9,1.9
	C1078.9,180.2,1078,181.1,1077,181.1z"/>
<path class="st6" d="M1061.2,200.4H1026c-1,0-1.9-0.8-1.9-1.9c0-1,0.8-1.9,1.9-1.9h35.1c1,0,1.9,0.8,1.9,1.9
	C1063,199.6,1062.2,200.4,1061.2,200.4z"/>
<path class="st6" d="M1041.8,219.7H1026c-1,0-1.9-0.8-1.9-1.9c0-1,0.8-1.9,1.9-1.9l0,0h15.8c1,0,1.9,0.8,1.9,1.9
	C1043.7,218.9,1042.9,219.7,1041.8,219.7z"/>
<path class="st6" d="M1081.8,239H1026c-1,0-1.9-0.8-1.9-1.9s0.8-1.9,1.9-1.9h55.8c1,0,1.9,0.8,1.9,1.9S1082.9,239,1081.8,239z"/>
<path class="st6" d="M1069.5,258.4H1026c-1,0-1.9-0.8-1.9-1.9c0-1,0.8-1.9,1.9-1.9h43.5c1,0,1.9,0.8,1.9,1.9
	C1071.4,257.5,1070.5,258.4,1069.5,258.4z"/>
<rect x="1112.7" y="177.3" class="st6" width="0.5" height="3.8"/>
<path class="st6" d="M1117.2,181.3c-1.2,0-2.1-1-2.1-2.1c0-1.2,1-2.1,2.1-2.1c1.2,0,2.1,1,2.1,2.1
	C1119.4,180.4,1118.4,181.3,1117.2,181.3z M1117.2,177.6c-0.9,0-1.6,0.7-1.6,1.6c0,0.9,0.7,1.6,1.6,1.6c0.9,0,1.6-0.7,1.6-1.6
	C1118.9,178.3,1118.1,177.6,1117.2,177.6z"/>
<rect x="1112.7" y="196.6" class="st6" width="0.5" height="3.8"/>
<path class="st6" d="M1117.2,200.7c-1.2,0-2.1-1-2.1-2.1c0-1.2,1-2.1,2.1-2.1c1.2,0,2.1,1,2.1,2.1
	C1119.4,199.7,1118.4,200.7,1117.2,200.7z M1117.2,196.9c-0.9,0-1.6,0.7-1.6,1.6s0.7,1.6,1.6,1.6c0.9,0,1.6-0.7,1.6-1.6
	S1118.1,196.9,1117.2,196.9z"/>
<rect x="1112.7" y="216" class="st6" width="0.5" height="3.8"/>
<path class="st6" d="M1117.2,220c-1.2,0-2.1-1-2.1-2.1c0-1.2,1-2.1,2.1-2.1c1.2,0,2.1,1,2.1,2.1C1119.4,219,1118.4,220,1117.2,220z
	 M1117.2,216.2c-0.9,0-1.6,0.7-1.6,1.6c0,0.9,0.7,1.6,1.6,1.6c0.9,0,1.6-0.7,1.6-1.6C1118.9,217,1118.1,216.2,1117.2,216.2z"/>
<rect x="1112.7" y="235.3" class="st6" width="0.5" height="3.8"/>
<path class="st6" d="M1117.2,239.3c-1.2,0-2.1-1-2.1-2.1s1-2.1,2.1-2.1c1.2,0,2.1,1,2.1,2.1S1118.4,239.3,1117.2,239.3z
	 M1117.2,235.5c-0.9,0-1.6,0.7-1.6,1.6s0.7,1.6,1.6,1.6c0.9,0,1.6-0.7,1.6-1.6S1118.1,235.5,1117.2,235.5z"/>
<rect x="1112.7" y="254.6" class="st6" width="0.5" height="3.8"/>
<path class="st6" d="M1117.2,258.6c-1.2,0-2.1-1-2.1-2.1c0-1.2,1-2.1,2.1-2.1c1.2,0,2.1,1,2.1,2.1
	C1119.4,257.7,1118.4,258.6,1117.2,258.6z M1117.2,254.9c-0.9,0-1.6,0.7-1.6,1.6c0,0.9,0.7,1.6,1.6,1.6c0.9,0,1.6-0.7,1.6-1.6
	C1118.9,255.6,1118.1,254.9,1117.2,254.9z"/>
<circle class="st6" cx="1117.2" cy="179.2" r="1.1"/>
<circle class="st6" cx="1117.2" cy="237.2" r="1.1"/>
<circle class="st6" cx="1117.2" cy="256.5" r="1.1"/>
<circle class="st5" cx="1071.8" cy="159.7" r="1.9"/>
<circle class="st5" cx="1071.8" cy="110.1" r="1.9"/>
<rect x="1071.5" y="110.1" class="st5" width="0.5" height="49.6"/>
<path class="st7" d="M1180.5,211.4v6.7c0,0,1.6,10.7,1.6,20.1s-2.6,31.2-2.6,31.2s-5.2,1.9-5.5-1c-0.4-2.8-1.3-17.8-1.3-20.1
	s-4.3-19.1-4.3-19.1l-2.7,18.7c0,0,0.9,22.2,0,22.8c-0.9,0.6-5,1.7-5.5,0.6c-0.5-1.1-3.1-24.9-3.1-24.9s-2.1-31-0.9-32.9
	c1.2-1.9,2.3-3.3,2.3-3.3S1176,205.8,1180.5,211.4z"/>
<path class="st8" d="M1178.8,268.5l0.3,2c0.1,0.7,0.2,1.4,0.2,2.1c0.1,1,0.2,2.5,0.8,2.8c0.9,0.4,6.5,5.1,2.5,5.3s-5.9,0.7-7.1-0.2
	c-1.4-1.1,0.2-0.6-0.4-0.6c-0.6,0-1.3,0-1.6-1c-0.2-1,0.4-2.7,0.4-2.7v-7.7H1178.8z"/>
<path class="st8" d="M1160.5,268.4l-0.3,2c-0.1,0.7-0.2,1.4-0.2,2.1c-0.1,1-0.2,2.5-0.8,2.8c-0.9,0.4-6.5,5.1-2.5,5.3
	s5.9,0.7,7.1-0.2c1.4-1.1-0.2-0.6,0.4-0.6c0.6,0,1.3,0,1.6-1c0.2-1-0.4-2.7-0.4-2.7v-7.7H1160.5z"/>
<path class="st9" d="M1164,158c0,0,2.1,5.2,3.6,6c1.5,0.9,0.8,4.8,0.8,4.8l-3.7,5.2h-3l-3.6-6.1c0,0-0.2-4.1-1-5
	C1156.3,161.8,1164,158,1164,158z"/>
<path class="st10" d="M1164,158c0,0,2.1,5.2,3.6,6c1.5,0.9,0.8,4.8,0.8,4.8l-3.7,5.2h-3l-3.6-6.1c0,0-0.2-4.1-1-5
	C1156.3,161.8,1164,158,1164,158z"/>
<path class="st11" d="M1167,168.6l5.5,1.2l4.1,40.9c0,0-2.2,0.4-4.4,3.3c-2.2,3-4.9,2.5-6.3,1.7c-1.3-0.8-6.8-2.8-6.9-3.7
	s0.2-16,0.2-16l-3.4-23.6l1.7-2.6h3.1l2.5,2.1L1167,168.6z"/>
<circle class="st9" cx="1158.7" cy="158" r="6.4"/>
<path class="st12" d="M1167.9,166.5c0,0,12.1,1.2,13.2,3.8c1.1,2.6-0.8,14-0.8,14s4.4,10,4.3,12.3c-0.1,2.3,4.2,18.4-0.5,16.5
	c-4.7-1.9-3.2-6.7-5.5-3.2c-2.3,3.4-3.3,3-3.3,3s-2.3,3.8-3.1,3.4c-0.8-0.4-1.2-3.2,0.4-4.6s1.3-3.7-1.7-8.1
	c-3.1-4.4-6.3-27.7-4.4-31.3C1168.3,168.8,1167.9,166.5,1167.9,166.5z"/>
<polygon class="st9" points="1180.5,213.7 1178.4,215.7 1175.8,214 1176.9,211.4 "/>
<path class="st12" d="M1159,168.6c0,0-9.4,3.4-9.4,7.1c0,3.7,5.7,19.8,5.7,19.8s0,4.2-0.2,5.2c-0.2,1-4.1,9.6-0.8,10.3
	c2.1,0.5,3.8,1.7,4,3.5c0.2,2.1-1.4,4.8-1.3,5.2c0.2,0.9,1.7,2.1,1.6,1.5c-0.1-0.6,1-9.5,2.7-13.4c1.7-3.9-0.8-30.4-1.2-33.9
	C1159.9,172.1,1159.5,170.3,1159,168.6z"/>
<polygon class="st9" points="1154.1,213.5 1156.3,218.8 1158,215.4 1156.1,211.2 "/>
<path class="st13" d="M1165.9,161.9c0,0,2,0.8,3.2,0.8c1.2,0,6.3,2.6,4.6,4.2c-1.7,1.6-4.3,2-5.5,4.3c-1.2,2.3-1.9,2.7-1.9,2.7
	l-2.2-3c0,0,3.1-3.5,2.9-4.6C1166.9,165.4,1165.9,161.9,1165.9,161.9z"/>
<path class="st13" d="M1157.7,164.9c0,0-1.5,0.6-1.9,1.6s-2.7,2.8-1.7,3.3c1,0.5,5.3,2.5,6.1,2.8c0.9,0.4,2.5-1,2.5-1
	s-2.1-1.2-2.1-2.1C1160.6,168.6,1157.7,164.9,1157.7,164.9z"/>
<path class="st12" d="M1152.6,174l-3,0.8c0,0-4.1,18.2-2.8,22.8c1.2,4.6,7,18.2,7,18.2l3.7-4.3c0,0-1.6-9.8-2.5-10.4s-0.3-2-0.3-2.4
	s0.4-0.1-0.5-1s3.2-5.7,2.1-7C1155.3,189.2,1152.6,174,1152.6,174z"/>
<path class="st14" d="M1181.7,177.4l-1.8-6.7c0,0,4.8,3.4,5.8,8.5c1,5.1,4.8,15.1,2.3,19.6c-2.5,4.4-6.8,17.2-8.2,17s-5-3.3-5.2-3.8
	c-0.1-0.5,6.4-11.8,5.4-12.7c-1-0.9-0.8-3.1,0-3.6c0.8-0.5,1.6-2.8,1-2.7c-0.6,0.1-2.5-1.1-2.1-2.5c0.4-1.3-1.9-10.5-1.9-10.5
	L1181.7,177.4z"/>
<path class="st15" d="M1179.4,169.8l1.7,0.5c0,0,4.8,3.4,5.8,8.5c1,5.1,4.8,15.1,2.3,19.6s-6.8,17.2-8.2,17c-1.5-0.2-5-3.3-5.2-3.8
	s6.4-11.8,5.4-12.7c-1-0.9-0.8-3.1,0-3.6c0.8-0.5,1.6-2.8,1-2.7c-0.6,0.1-2.5-1.1-2.1-2.5c0.4-1.3-1.9-10.5-1.9-10.5L1179.4,169.8z"
	/>
<path class="st16" d="M1163.6,152.2l1.2-0.4c0,0-2.5-2.5-6-2.3l1-1c0,0-2.4-0.9-4.6,1.4c-1.2,1.2-2.5,2.6-3.3,4.2h-1.3l0.5,1.1
	l-1.9,1.1l1.9-0.2c-0.2,0.9-0.1,1.9,0.2,2.8l0.4,1.2c0,0,1.7-3.5,1.7-3.9v1.1c0,0,1.2-1,1.2-1.6l0.6,0.8l0.3-1.2l4.1,1.2l-0.6-1
	l2.5,0.3l-1-1.2c0,0,2.8,1.4,3,2.6s1.5,2.7,1.5,2.7l0.6-1.1C1165.8,158.7,1166.8,153.8,1163.6,152.2z"/>
<ellipse class="st9" cx="1163.4" cy="157.2" rx="0.9" ry="1.5"/>
</svg>
