<?xml version="1.0" encoding="utf-8"?>
<!-- Generator: Adobe Illustrator 22.0.1, SVG Export Plug-In . SVG Version: 6.00 Build 0)  -->
<svg version="1.1" id="Layer_1" xmlns="http://www.w3.org/2000/svg" xmlns:xlink="http://www.w3.org/1999/xlink" x="0px" y="0px"
	 viewBox="0 0 1300 400" style="enable-background:new 0 0 1300 400;" xml:space="preserve">
<style type="text/css">
	.st0{fill:url(#SVGID_1_);stroke:#000000;stroke-width:1.6452;stroke-miterlimit:10;}
	.st1{fill:#F2F2F2;}
	.st2{fill:#D7D7DB;}
	.st3{fill:#696872;}
	.st4{fill:#A3C3D3;}
	.st5{fill:#3F3D56;}
	.st6{fill:#909293;}
	.st7{fill:#B6B6B7;}
	.st8{fill:#E3E3E5;}
	.st9{fill:#FFB9B9;}
	.st10{opacity:0.1;enable-background:new    ;}
	.st11{fill:#EDF2F4;}
	.st12{fill:#B4B6CC;}
	.st13{fill:#BFD2D8;}
	.st14{opacity:0.1;fill:#B4B6CC;enable-background:new    ;}
	.st15{fill:#AAACBA;}
	.st16{fill:#2F2E41;}
</style>
<linearGradient id="SVGID_1_" gradientUnits="userSpaceOnUse" x1="2390.8162" y1="201" x2="2600" y2="201" gradientTransform="matrix(6.2146 0 0 1 -14858.0273 0)">
	<stop  offset="0" style="stop-color:#00354D"/>
	<stop  offset="0.4129" style="stop-color:#00364F"/>
	<stop  offset="0.5616" style="stop-color:#003C56"/>
	<stop  offset="0.6676" style="stop-color:#004561"/>
	<stop  offset="0.7534" style="stop-color:#005272"/>
	<stop  offset="0.8268" style="stop-color:#006388"/>
	<stop  offset="0.8918" style="stop-color:#0078A4"/>
	<stop  offset="0.9492" style="stop-color:#0091C3"/>
	<stop  offset="1" style="stop-color:#00ACE6"/>
	<stop  offset="1" style="stop-color:#0093C7"/>
	<stop  offset="1" style="stop-color:#0075A3"/>
	<stop  offset="1" style="stop-color:#005B83"/>
	<stop  offset="1" style="stop-color:#004567"/>
	<stop  offset="1" style="stop-color:#003351"/>
	<stop  offset="1" style="stop-color:#002540"/>
	<stop  offset="1" style="stop-color:#001B35"/>
	<stop  offset="1" style="stop-color:#00162E"/>
	<stop  offset="1" style="stop-color:#00142C"/>
</linearGradient>
<rect y="1" class="st0" width="1300" height="400"/>
<circle class="st1" cx="286.8" cy="196.4" r="4.9"/>
<circle class="st1" cx="303.7" cy="253.3" r="3.1"/>
<rect x="209.8" y="114" class="st1" width="37.6" height="0.5"/>
<rect x="236.7" y="109.2" class="st1" width="0.5" height="5"/>
<rect x="220.4" y="109.2" class="st1" width="0.5" height="5"/>
<rect x="159.7" y="239" class="st1" width="0.5" height="5"/>
<rect x="147.3" y="162" class="st1" width="37.6" height="0.5"/>
<rect x="174.2" y="157.2" class="st1" width="0.5" height="5"/>
<rect x="157.8" y="157.2" class="st1" width="0.5" height="5"/>
<rect x="147.3" y="142.7" class="st1" width="37.6" height="0.5"/>
<rect x="174.2" y="137.9" class="st1" width="0.5" height="5"/>
<rect x="157.8" y="137.9" class="st1" width="0.5" height="5"/>
<rect x="229.7" y="145.4" class="st1" width="37.6" height="0.5"/>
<rect x="256.6" y="140.6" class="st1" width="0.5" height="5"/>
<rect x="240.2" y="140.6" class="st1" width="0.5" height="5"/>
<rect x="257" y="132.8" class="st1" width="37.6" height="0.5"/>
<rect x="283.9" y="128" class="st1" width="0.5" height="5"/>
<rect x="267.6" y="128" class="st1" width="0.5" height="5"/>
<rect x="273.9" y="182.4" class="st1" width="37.6" height="0.5"/>
<rect x="300.9" y="177.6" class="st1" width="0.5" height="5"/>
<rect x="284.5" y="177.6" class="st1" width="0.5" height="5"/>
<rect x="292.7" y="237.2" class="st1" width="37.6" height="0.5"/>
<rect x="319.6" y="232.3" class="st1" width="0.5" height="5"/>
<rect x="303.3" y="232.3" class="st1" width="0.5" height="5"/>
<rect x="115.1" y="214.6" class="st1" width="37.6" height="0.5"/>
<rect x="142" y="209.8" class="st1" width="0.5" height="5"/>
<rect x="125.6" y="209.8" class="st1" width="0.5" height="5"/>
<rect x="126.1" y="180.3" class="st1" width="37.6" height="0.5"/>
<rect x="136.4" y="180.7" class="st1" width="0.5" height="5"/>
<rect x="152.7" y="180.7" class="st1" width="0.5" height="5"/>
<rect x="308" y="140" class="st1" width="37.6" height="0.5"/>
<rect x="318.3" y="140.4" class="st1" width="0.5" height="5"/>
<rect x="334.7" y="140.4" class="st1" width="0.5" height="5"/>
<rect x="305.6" y="210.3" class="st1" width="37.6" height="0.5"/>
<rect x="315.9" y="210.7" class="st1" width="0.5" height="5"/>
<rect x="332.2" y="210.7" class="st1" width="0.5" height="5"/>
<rect x="187.3" y="122.6" class="st1" width="37.6" height="0.5"/>
<rect x="197.6" y="123" class="st1" width="0.5" height="5"/>
<rect x="213.9" y="123" class="st1" width="0.5" height="5"/>
<rect x="292.7" y="159.9" class="st1" width="37.6" height="0.5"/>
<rect x="319.6" y="155.1" class="st1" width="0.5" height="5"/>
<rect x="303.3" y="155.1" class="st1" width="0.5" height="5"/>
<path class="st2" d="M287,154.7V281H170V154.7H287z M228.5,163.8c2.2,0,4-1.8,4-4s-1.8-4-4-4s-4,1.8-4,4S226.3,163.8,228.5,163.8
	L228.5,163.8L228.5,163.8z"/>
<path class="st3" d="M339.4,270.2c-1.9,6.9-8.2,11.1-8.2,11.1s-3.4-6.9-1.5-13.7c1.9-6.9,8.2-11.1,8.2-11.1S341.3,263.4,339.4,270.2
	z"/>
<path class="st4" d="M336.7,268.8c-5.1,5-5.7,12.6-5.7,12.6s7.6-0.4,12.7-5.4c5.1-4.9,5.7-12.6,5.7-12.6S341.8,263.8,336.7,268.8z"
	/>
<rect x="101.1" y="280.8" class="st5" width="243.9" height="0.5"/>
<path class="st5" d="M297.9,264.2c0-2.4,1.5-4.6,3.8-5.5c-3-1.2-4.5-4.6-3.4-7.6c1.2-3,4.6-4.5,7.6-3.4c3,1.2,4.5,4.6,3.4,7.6
	c-0.6,1.6-1.8,2.8-3.4,3.4c3,1.2,4.5,4.6,3.4,7.6c-0.6,1.6-1.8,2.8-3.4,3.4c3,1.2,4.5,4.6,3.4,7.6c-1.2,3-4.6,4.5-7.6,3.4
	c-3-1.2-4.5-4.6-3.4-7.6c0.6-1.6,1.8-2.8,3.4-3.4C299.4,268.8,297.9,266.6,297.9,264.2z M309.1,253.2c0-3-2.4-5.4-5.4-5.4
	s-5.4,2.4-5.4,5.4c0,2.5,1.7,4.7,4.2,5.2c0.8-0.2,1.6-0.2,2.4,0C307.4,257.9,309.1,255.7,309.1,253.2z M298.4,275.2
	c0,3,2.4,5.4,5.4,5.4s5.4-2.4,5.4-5.4c0-2.5-1.7-4.7-4.2-5.2c-0.8,0.2-1.6,0.2-2.4,0C300.1,270.6,298.4,272.7,298.4,275.2z
	 M302.6,269.4c0.8-0.2,1.6-0.2,2.4,0c2.9-0.7,4.7-3.5,4-6.4c-0.5-2-2-3.6-4-4c-0.8,0.2-1.6,0.2-2.4,0c-2.9,0.7-4.7,3.5-4,6.4
	C299,267.4,300.5,269,302.6,269.4z"/>
<path class="st1" d="M212.3,181.1h61.4c1,0,1.9-0.8,1.9-1.9c0-1-0.8-1.9-1.9-1.9h-61.4c-1,0-1.9,0.8-1.9,1.9
	C210.4,180.2,211.2,181.1,212.3,181.1z"/>
<path class="st1" d="M212.3,200.4h61.4c1,0,1.9-0.8,1.9-1.9c0-1-0.8-1.9-1.9-1.9h-61.4c-1,0-1.9,0.8-1.9,1.9
	C210.4,199.6,211.2,200.4,212.3,200.4z"/>
<path class="st1" d="M212.3,219.7h61.4c1,0,1.9-0.8,1.9-1.9c0-1-0.8-1.9-1.9-1.9h-61.4c-1,0-1.9,0.8-1.9,1.9
	S211.2,219.7,212.3,219.7z"/>
<path class="st1" d="M212.3,239h61.4c1,0,1.9-0.8,1.9-1.9s-0.8-1.9-1.9-1.9h-61.4c-1,0-1.9,0.8-1.9,1.9S211.2,239,212.3,239z"/>
<path class="st1" d="M212.3,258.4h61.4c1,0,1.9-0.8,1.9-1.9c0-1-0.8-1.9-1.9-1.9h-61.4c-1,0-1.9,0.8-1.9,1.9
	C210.4,257.5,211.2,258.4,212.3,258.4z"/>
<path class="st6" d="M223,181.1h51c1,0,1.9-0.8,1.9-1.9c0-1-0.8-1.9-1.9-1.9h-51c-1,0-1.9,0.8-1.9,1.9
	C221.1,180.2,222,181.1,223,181.1z"/>
<path class="st6" d="M238.8,200.4H274c1,0,1.9-0.8,1.9-1.9c0-1-0.8-1.9-1.9-1.9h-35.1c-1,0-1.9,0.8-1.9,1.9
	C237,199.6,237.8,200.4,238.8,200.4z"/>
<path class="st6" d="M258.2,219.7H274c1,0,1.9-0.8,1.9-1.9c0-1-0.8-1.9-1.9-1.9l0,0h-15.8c-1,0-1.9,0.8-1.9,1.9
	C256.3,218.9,257.1,219.7,258.2,219.7z"/>
<path class="st6" d="M218.2,239H274c1,0,1.9-0.8,1.9-1.9s-0.8-1.9-1.9-1.9h-55.8c-1,0-1.9,0.8-1.9,1.9S217.1,239,218.2,239z"/>
<path class="st6" d="M230.5,258.4H274c1,0,1.9-0.8,1.9-1.9c0-1-0.8-1.9-1.9-1.9h-43.5c-1,0-1.9,0.8-1.9,1.9
	C228.6,257.5,229.5,258.4,230.5,258.4z"/>
<rect x="186.8" y="177.3" class="st6" width="0.5" height="3.8"/>
<path class="st6" d="M182.8,181.3c1.2,0,2.1-1,2.1-2.1c0-1.2-1-2.1-2.1-2.1c-1.2,0-2.1,1-2.1,2.1
	C180.6,180.4,181.6,181.3,182.8,181.3z M182.8,177.6c0.9,0,1.6,0.7,1.6,1.6c0,0.9-0.7,1.6-1.6,1.6s-1.6-0.7-1.6-1.6
	C181.1,178.3,181.9,177.6,182.8,177.6z"/>
<rect x="186.8" y="196.6" class="st6" width="0.5" height="3.8"/>
<path class="st6" d="M182.8,200.7c1.2,0,2.1-1,2.1-2.1c0-1.2-1-2.1-2.1-2.1c-1.2,0-2.1,1-2.1,2.1
	C180.6,199.7,181.6,200.7,182.8,200.7z M182.8,196.9c0.9,0,1.6,0.7,1.6,1.6s-0.7,1.6-1.6,1.6s-1.6-0.7-1.6-1.6
	S181.9,196.9,182.8,196.9z"/>
<rect x="186.8" y="216" class="st6" width="0.5" height="3.8"/>
<path class="st6" d="M182.8,220c1.2,0,2.1-1,2.1-2.1c0-1.2-1-2.1-2.1-2.1c-1.2,0-2.1,1-2.1,2.1C180.6,219,181.6,220,182.8,220z
	 M182.8,216.2c0.9,0,1.6,0.7,1.6,1.6c0,0.9-0.7,1.6-1.6,1.6s-1.6-0.7-1.6-1.6C181.1,217,181.9,216.2,182.8,216.2z"/>
<rect x="186.8" y="235.3" class="st6" width="0.5" height="3.8"/>
<path class="st6" d="M182.8,239.3c1.2,0,2.1-1,2.1-2.1s-1-2.1-2.1-2.1c-1.2,0-2.1,1-2.1,2.1S181.6,239.3,182.8,239.3z M182.8,235.5
	c0.9,0,1.6,0.7,1.6,1.6s-0.7,1.6-1.6,1.6s-1.6-0.7-1.6-1.6S181.9,235.5,182.8,235.5z"/>
<rect x="186.8" y="254.6" class="st6" width="0.5" height="3.8"/>
<path class="st6" d="M182.8,258.6c1.2,0,2.1-1,2.1-2.1c0-1.2-1-2.1-2.1-2.1c-1.2,0-2.1,1-2.1,2.1
	C180.6,257.7,181.6,258.6,182.8,258.6z M182.8,254.9c0.9,0,1.6,0.7,1.6,1.6c0,0.9-0.7,1.6-1.6,1.6s-1.6-0.7-1.6-1.6
	C181.1,255.6,181.9,254.9,182.8,254.9z"/>
<circle class="st6" cx="182.8" cy="179.2" r="1.1"/>
<circle class="st6" cx="182.8" cy="237.2" r="1.1"/>
<circle class="st6" cx="182.8" cy="256.5" r="1.1"/>
<circle class="st5" cx="228.2" cy="159.7" r="1.9"/>
<circle class="st5" cx="228.2" cy="110.1" r="1.9"/>
<rect x="228" y="110.1" class="st5" width="0.5" height="49.6"/>
<path class="st7" d="M119.5,211.4v6.7c0,0-1.6,10.7-1.6,20.1s2.6,31.2,2.6,31.2s5.2,1.9,5.5-1c0.4-2.8,1.3-17.8,1.3-20.1
	s4.3-19.1,4.3-19.1l2.7,18.7c0,0-0.9,22.2,0,22.8s5,1.7,5.5,0.6s3.1-24.9,3.1-24.9s2.1-31,0.9-32.9s-2.3-3.3-2.3-3.3
	S124,205.8,119.5,211.4z"/>
<path class="st8" d="M121.2,268.5l-0.3,2c-0.1,0.7-0.2,1.4-0.2,2.1c-0.1,1-0.2,2.5-0.8,2.8c-0.9,0.4-6.5,5.1-2.5,5.3
	s5.9,0.7,7.1-0.2c1.4-1.1-0.2-0.6,0.4-0.6s1.3,0,1.6-1c0.2-1-0.4-2.7-0.4-2.7v-7.7L121.2,268.5L121.2,268.5z"/>
<path class="st8" d="M139.5,268.4l0.3,2c0.1,0.7,0.2,1.4,0.2,2.1c0.1,1,0.2,2.5,0.8,2.8c0.9,0.4,6.5,5.1,2.5,5.3s-5.9,0.7-7.1-0.2
	c-1.4-1.1,0.2-0.6-0.4-0.6s-1.3,0-1.6-1c-0.2-1,0.4-2.7,0.4-2.7v-7.7L139.5,268.4L139.5,268.4z"/>
<path class="st9" d="M136,158c0,0-2.1,5.2-3.6,6c-1.5,0.9-0.8,4.8-0.8,4.8l3.7,5.2h3l3.6-6.1c0,0,0.2-4.1,1-5
	C143.7,161.8,136,158,136,158z"/>
<path class="st10" d="M136,158c0,0-2.1,5.2-3.6,6c-1.5,0.9-0.8,4.8-0.8,4.8l3.7,5.2h3l3.6-6.1c0,0,0.2-4.1,1-5
	C143.7,161.8,136,158,136,158z"/>
<path class="st11" d="M133,168.6l-5.5,1.2l-4.1,40.9c0,0,2.2,0.4,4.4,3.3c2.2,3,4.9,2.5,6.3,1.7c1.3-0.8,6.8-2.8,6.9-3.7
	s-0.2-16-0.2-16l3.4-23.6l-1.7-2.6h-3.1l-2.5,2.1L133,168.6z"/>
<circle class="st9" cx="141.3" cy="158" r="6.4"/>
<path class="st12" d="M132.1,166.5c0,0-12.1,1.2-13.2,3.8s0.8,14,0.8,14s-4.4,10-4.3,12.3s-4.2,18.4,0.5,16.5s3.2-6.7,5.5-3.2
	c2.3,3.4,3.3,3,3.3,3s2.3,3.8,3.1,3.4c0.8-0.4,1.2-3.2-0.4-4.6s-1.3-3.7,1.7-8.1c3.1-4.4,6.3-27.7,4.4-31.3
	C131.7,168.8,132.1,166.5,132.1,166.5z"/>
<polygon class="st9" points="119.5,213.7 121.6,215.7 124.2,214 123.1,211.4 "/>
<path class="st12" d="M141,168.6c0,0,9.4,3.4,9.4,7.1c0,3.7-5.7,19.8-5.7,19.8s0,4.2,0.2,5.2s4.1,9.6,0.8,10.3
	c-2.1,0.5-3.8,1.7-4,3.5c-0.2,2.1,1.4,4.8,1.3,5.2c-0.2,0.9-1.7,2.1-1.6,1.5s-1-9.5-2.7-13.4s0.8-30.4,1.2-33.9
	C140.1,172.1,140.5,170.3,141,168.6z"/>
<polygon class="st9" points="145.9,213.5 143.7,218.8 142,215.4 143.9,211.2 "/>
<path class="st13" d="M134.1,161.9c0,0-2,0.8-3.2,0.8s-6.3,2.6-4.6,4.2c1.7,1.6,4.3,2,5.5,4.3s1.9,2.7,1.9,2.7l2.2-3
	c0,0-3.1-3.5-2.9-4.6C133.1,165.4,134.1,161.9,134.1,161.9z"/>
<path class="st13" d="M142.3,164.9c0,0,1.5,0.6,1.9,1.6s2.7,2.8,1.7,3.3s-5.3,2.5-6.1,2.8c-0.9,0.4-2.5-1-2.5-1s2.1-1.2,2.1-2.1
	C139.4,168.6,142.3,164.9,142.3,164.9z"/>
<path class="st12" d="M147.4,174l3,0.8c0,0,4.1,18.2,2.8,22.8c-1.2,4.6-7,18.2-7,18.2l-3.7-4.3c0,0,1.6-9.8,2.5-10.4s0.3-2,0.3-2.4
	s-0.4-0.1,0.5-1s-3.2-5.7-2.1-7C144.7,189.2,147.4,174,147.4,174z"/>
<path class="st14" d="M118.3,177.4l1.8-6.7c0,0-4.8,3.4-5.8,8.5s-4.8,15.1-2.3,19.6c2.5,4.4,6.8,17.2,8.2,17s5-3.3,5.2-3.8
	c0.1-0.5-6.4-11.8-5.4-12.7s0.8-3.1,0-3.6s-1.6-2.8-1-2.7s2.5-1.1,2.1-2.5c-0.4-1.3,1.9-10.5,1.9-10.5L118.3,177.4z"/>
<path class="st15" d="M120.6,169.8l-1.7,0.5c0,0-4.8,3.4-5.8,8.5s-4.8,15.1-2.3,19.6s6.8,17.2,8.2,17c1.5-0.2,5-3.3,5.2-3.8
	s-6.4-11.8-5.4-12.7s0.8-3.1,0-3.6s-1.6-2.8-1-2.7s2.5-1.1,2.1-2.5c-0.4-1.3,1.9-10.5,1.9-10.5L120.6,169.8z"/>
<path class="st16" d="M136.4,152.2l-1.2-0.4c0,0,2.5-2.5,6-2.3l-1-1c0,0,2.4-0.9,4.6,1.4c1.2,1.2,2.5,2.6,3.3,4.2h1.3l-0.5,1.1
	l1.9,1.1l-1.9-0.2c0.2,0.9,0.1,1.9-0.2,2.8l-0.4,1.2c0,0-1.7-3.5-1.7-3.9v1.1c0,0-1.2-1-1.2-1.6l-0.6,0.8l-0.3-1.2l-4.1,1.2l0.6-1
	l-2.5,0.3l1-1.2c0,0-2.8,1.4-3,2.6s-1.5,2.7-1.5,2.7l-0.6-1.1C134.2,158.7,133.2,153.8,136.4,152.2z"/>
<ellipse class="st9" cx="136.6" cy="157.2" rx="0.9" ry="1.5"/>
</svg>
