<?xml version="1.0" encoding="utf-8"?>
<!-- Generator: Adobe Illustrator 22.0.1, SVG Export Plug-In . SVG Version: 6.00 Build 0)  -->
<svg version="1.1" id="Layer_1" xmlns="http://www.w3.org/2000/svg" xmlns:xlink="http://www.w3.org/1999/xlink" x="0px" y="0px"
	 viewBox="0 0 1300 400" style="enable-background:new 0 0 1300 400;" xml:space="preserve">
<style type="text/css">
	.st0{fill:url(#SVGID_1_);stroke:#000000;stroke-width:1.6452;stroke-miterlimit:10;}
	.st1{fill:#3F3D56;}
	.st2{fill:#F2F2F2;}
	.st3{fill:#CCCCCC;}
	.st4{fill:#358CC5;}
	.st5{fill:#E6E6E6;}
	.st6{fill:#D0CDE1;}
	.st7{fill:#FFB9B9;}
	.st8{fill:#2F2E41;}
	.st9{opacity:0.15;enable-background:new    ;}
</style>
<linearGradient id="SVGID_1_" gradientUnits="userSpaceOnUse" x1="-9.094947e-13" y1="200" x2="622.0554" y2="200" gradientTransform="matrix(-2.0898 0 0 -1 1300 400)">
	<stop  offset="0" style="stop-color:#007194"/>
	<stop  offset="1" style="stop-color:#41C1C9"/>
</linearGradient>
<rect class="st0" width="1300" height="400"/>
<path class="st1" d="M206.1,125.8h0.3v-0.5h-0.2c-0.1,0-0.2-0.1-0.2-0.2v-2.6c0-0.1,0.1-0.2,0.2-0.2h0.2v-1.5c0-1.7,1.4-3.2,3.2-3.2
	l0,0h0.3v-0.3c0-0.1,0.1-0.2,0.2-0.2h2.6c0.1,0,0.2,0.1,0.2,0.2v0.4h47c1.7,0,3.2,1.4,3.2,3.2l0,0v67c0,1.7-1.4,3.2-3.2,3.2l0,0
	h-50.3c-1.7,0-3.2-1.4-3.2-3.2l0,0v-59.3h-0.3c-0.1,0-0.2-0.1-0.2-0.2v-2.6C206,125.9,206,125.8,206.1,125.8L206.1,125.8z"/>
<rect x="208.6" y="119.8" class="st2" width="51.8" height="68.7"/>
<rect x="78" y="260.9" class="st1" width="249.7" height="0.4"/>
<path class="st1" d="M141.3,140.1h0.3v-8.8c0-2.8,2.3-5.1,5.1-5.1l0,0h18.6c2.8,0,5.1,2.3,5.1,5.1l0,0v48.1c0,2.8-2.3,5.1-5.1,5.1
	l0,0h-18.6c-2.8,0-5.1-2.3-5.1-5.1l0,0v-33.1h-0.3V140.1z"/>
<path class="st2" d="M142.7,131.6v48.1c0,2.1,1.7,3.8,3.8,3.8h18.7c2.1,0,3.8-1.7,3.8-3.8v-48.1c0-2.1-1.7-3.8-3.8-3.8h-2.3
	c0.4,0.9-0.1,2-1,2.3c-0.2,0.1-0.5,0.1-0.7,0.1h-10.6c-1,0-1.8-0.8-1.8-1.8c0-0.2,0-0.5,0.1-0.7h-2.4
	C144.4,127.9,142.7,129.6,142.7,131.6z"/>
<rect x="145.4" y="134.2" class="st3" width="15.8" height="0.6"/>
<rect x="145.4" y="136.1" class="st3" width="15.8" height="0.6"/>
<rect x="145.4" y="138" class="st3" width="15.8" height="0.6"/>
<rect x="162.6" y="134.6" class="st3" width="3.6" height="3.6"/>
<rect x="145.4" y="176" class="st3" width="15.8" height="0.6"/>
<rect x="145.4" y="177.8" class="st3" width="15.8" height="0.6"/>
<rect x="145.4" y="179.7" class="st3" width="15.8" height="0.6"/>
<rect x="162.6" y="176.3" class="st3" width="3.6" height="3.6"/>
<path class="st1" d="M147.1,199.1H192v-0.9h20.3v0.9h45.1c1.7,0,3,1.4,3,3l0,0v61.5c0,1.7-1.4,3-3,3H147.1c-1.7,0-3-1.4-3-3v-61.5
	C144.1,200.5,145.4,199.1,147.1,199.1z"/>
<rect x="148.2" y="204.5" class="st2" width="108.2" height="61"/>
<circle class="st4" cx="202.3" cy="201.7" r="1.1"/>
<path class="st1" d="M141,264.4h10.6v-0.8c0-0.1,0.1-0.2,0.2-0.2l0,0h3.6c0.1,0,0.2,0.1,0.2,0.2l0,0v0.8h2.3v-0.8
	c0-0.1,0.1-0.2,0.2-0.2l0,0h3.6c0.1,0,0.2,0.1,0.2,0.2l0,0v0.8h2.3v-0.8c0-0.1,0.1-0.2,0.2-0.2l0,0h3.6c0.1,0,0.2,0.1,0.2,0.2l0,0
	v0.8h2.3v-0.8c0-0.1,0.1-0.2,0.2-0.2l0,0h3.6c0.1,0,0.2,0.1,0.2,0.2l0,0v0.8h2.3v-0.8c0-0.1,0.1-0.2,0.2-0.2l0,0h3.6
	c0.1,0,0.2,0.1,0.2,0.2l0,0v0.8h2.3v-0.8c0-0.1,0.1-0.2,0.2-0.2l0,0h3.6c0.1,0,0.2,0.1,0.2,0.2l0,0v0.8h2.3v-0.8
	c0-0.1,0.1-0.2,0.2-0.2l0,0H218c0.1,0,0.2,0.1,0.2,0.2l0,0v0.8h2.3v-0.8c0-0.1,0.1-0.2,0.2-0.2l0,0h3.6c0.1,0,0.2,0.1,0.2,0.2l0,0
	v0.8h2.3v-0.8c0-0.1,0.1-0.2,0.2-0.2l0,0h3.6c0.1,0,0.2,0.1,0.2,0.2l0,0v0.8h2.3v-0.8c0-0.1,0.1-0.2,0.2-0.2l0,0h3.6
	c0.1,0,0.2,0.1,0.2,0.2l0,0v0.8h2.3v-0.8c0-0.1,0.1-0.2,0.2-0.2l0,0h3.6c0.1,0,0.2,0.1,0.2,0.2l0,0v0.8h2.3v-0.8
	c0-0.1,0.1-0.2,0.2-0.2l0,0h3.6c0.1,0,0.2,0.1,0.2,0.2l0,0v0.8h2.3v-0.8c0-0.1,0.1-0.2,0.2-0.2l0,0h3.6c0.1,0,0.2,0.1,0.2,0.2l0,0
	v0.8h6.9c2,0,3.6,1.6,3.6,3.6v1.6c0,2-1.6,3.6-3.6,3.6H141c-2,0-3.6-1.6-3.6-3.6V268C137.4,266,139,264.4,141,264.4L141,264.4z"/>
<rect x="182.3" y="209.2" class="st5" width="30.4" height="1.1"/>
<rect x="182.3" y="212.8" class="st5" width="30.4" height="1.1"/>
<rect x="182.3" y="216.4" class="st5" width="30.4" height="1.1"/>
<rect x="182.3" y="209.2" class="st3" width="30.4" height="1.1"/>
<rect x="182.3" y="212.8" class="st3" width="30.4" height="1.1"/>
<rect x="182.3" y="216.4" class="st3" width="30.4" height="1.1"/>
<rect x="215.4" y="209.9" class="st3" width="6.9" height="6.9"/>
<rect x="182.3" y="249.5" class="st3" width="30.4" height="1.1"/>
<rect x="182.3" y="253" class="st3" width="30.4" height="1.1"/>
<rect x="182.3" y="256.6" class="st3" width="30.4" height="1.1"/>
<rect x="215.4" y="250.1" class="st3" width="6.9" height="6.9"/>
<path class="st1" d="M129,183.7c1.8-1.9,4.2-3.2,6.8-3.6l-1.1-1l1.2-0.1l1.5,1.4l-1.4,1.5l-1.2,0.1l0.9-1c-5.8,0.9-9.7,6.4-8.8,12.2
	c0.8,5.1,5.3,8.9,10.5,8.9v0.9c-6.3,0-11.5-5.1-11.5-11.5C125.9,188.6,127,185.8,129,183.7z"/>
<path class="st1" d="M277.5,183.7c-1.8-1.9-4.2-3.2-6.8-3.6l1.1-1l-1.2-0.1l-1.5,1.4l1.4,1.5l1.2,0.1l-0.9-1
	c5.8,0.9,9.7,6.4,8.8,12.2c-0.8,5.1-5.3,8.9-10.5,8.9v0.9c6.3,0,11.5-5.1,11.5-11.5C280.5,188.6,279.4,185.8,277.5,183.7z"/>
<rect x="214.5" y="123.2" class="st3" width="30.4" height="1.1"/>
<rect x="214.5" y="126.8" class="st3" width="30.4" height="1.1"/>
<rect x="214.5" y="130.4" class="st3" width="30.4" height="1.1"/>
<rect x="247.6" y="123.9" class="st3" width="6.9" height="6.9"/>
<rect x="214.6" y="176.8" class="st3" width="30.4" height="1.1"/>
<rect x="214.6" y="180.3" class="st3" width="30.4" height="1.1"/>
<rect x="214.6" y="183.9" class="st3" width="30.4" height="1.1"/>
<rect x="247.7" y="177.5" class="st3" width="6.9" height="6.9"/>
<circle class="st4" cx="246.9" cy="154.7" r="5.1"/>
<circle class="st4" cx="233.2" cy="154.7" r="4.2"/>
<circle class="st4" cx="219.5" cy="154.7" r="2.6"/>
<circle class="st4" cx="162.4" cy="155.3" r="2.7"/>
<circle class="st4" cx="155.2" cy="155.3" r="2.2"/>
<circle class="st4" cx="148" cy="155.3" r="1.4"/>
<circle class="st4" cx="202.3" cy="232.9" r="12"/>
<polygon class="st6" points="197.9,235.6 202.4,226.5 206.8,235.6 204.3,235.6 204.3,239.4 200.4,239.4 200.4,235.6 "/>
<path class="st4" d="M299.8,231.6c-5,15-3.2,29.1-3.2,29.1s9.8-10.3,14.8-25.2c5-15,3.2-29.1,3.2-29.1S304.8,216.6,299.8,231.6z"/>
<path class="st4" d="M293.3,231.6c5,15,3.2,29.1,3.2,29.1s-9.8-10.2-14.8-25.2s-3.2-29.1-3.2-29.1S288.3,216.6,293.3,231.6z"/>
<path class="st1" d="M291.3,231.8c-0.3,15.8,5.5,28.7,5.5,28.7s6.4-12.7,6.7-28.5s-5.5-28.7-5.5-28.7S291.6,216,291.3,231.8z"/>
<ellipse class="st1" cx="296.8" cy="260.7" rx="14.1" ry="0.8"/>
<circle class="st4" cx="297.4" cy="217.8" r="1.5"/>
<circle class="st4" cx="300.4" cy="230.2" r="0.9"/>
<ellipse class="st1" cx="310.9" cy="221.7" rx="0.9" ry="0.9"/>
<circle class="st1" cx="280.6" cy="213.4" r="0.9"/>
<circle class="st1" cx="306.4" cy="229.8" r="0.9"/>
<circle class="st1" cx="288.4" cy="224.8" r="0.9"/>
<circle class="st1" cx="305.9" cy="242.4" r="0.9"/>
<circle class="st1" cx="287.5" cy="237.5" r="0.9"/>
<circle class="st4" cx="295.9" cy="238.4" r="0.9"/>
<polygon class="st7" points="91.5,265.6 89.7,271.4 95.4,271.9 94.8,265.6 "/>
<polygon class="st7" points="118.8,270.1 118.8,278 125.3,278 123.5,270.1 "/>
<path class="st8" d="M95.8,212.3l-2.6,25.2c0,0-3.3,22.2-2.6,25.7c0.7,3.5-0.2,4-0.2,4h5c0,0-0.2-2.2,0.8-3.1s0.5-4,0.5-4l12.6-38.4
	l7.1,21.5c0,0,1.2,23.7,1.3,24s0.7,4.8,0.7,4.8h6.1c0,0-0.8-2.6,0.3-3.5c1.1-0.8,2.2-0.2,1.2-1.7s-1.3-3.3-1-4.1
	c0.3-0.8,0.3-4.1,0.3-4.1s-0.5-44.7-3.3-46.2C119.2,210.8,95.8,212.3,95.8,212.3z"/>
<path class="st8" d="M120.6,273.8c0,0-2.8-0.4-2.8-0.3c0,0.2-3.4,9.3,0,9.2c3.4-0.1,16.3-2,15.4-5.4s-5.1-2.4-5.1-2.4l-3.8-2.1
	L120.6,273.8z"/>
<path class="st8" d="M92.7,270.9c0,0,2.8-0.4,2.8-0.3c0,0.2,3.4,9.3,0,9.2c-3.4-0.1-16.3-2-15.4-5.4s5.1-2.4,5.1-2.4l3.8-2.1
	L92.7,270.9z"/>
<circle class="st7" cx="109.5" cy="158.6" r="6.5"/>
<path class="st7" d="M104.3,157.7c0,0-1.2,11.6-2.6,12.4s11.4,1.7,11.4,1.7s-3.1-10.6-2.2-11.6C111.9,159.2,104.3,157.7,104.3,157.7
	z"/>
<path class="st1" d="M118.2,169.8c0,0-4.6-4.5-9.9-3.6s-9.1,1.8-9.1,1.8s-8.1,4.3-8.3,7.8s3,16.5,3,16.5s1.5,21.4,1.7,21.4
	s28-0.3,28-0.3l-5.1-27.8L118.2,169.8z"/>
<path class="st7" d="M117.1,209.6c-1.1,0.3-2.9-0.1-4.9-0.8c-3.4-1.1-7.1-3-7.1-3s-11.9-4.8-15.4-7.3s-1.2-12.4-1.2-12.4l5.3,1.7
	l-0.3,6.1l13.1,8.4c2.1,0.2,4.1,0.6,6,1.2c2.2,0.7,4.3,1.8,5.1,3.6c0.1,0.3,0.2,0.5,0.3,0.8C118.2,209,117.8,209.4,117.1,209.6z"/>
<path class="st9" d="M117.8,207.2c-0.2,0.9-0.5,1.7-0.7,2.4c-1.1,0.3-2.9-0.1-4.9-0.8l0.4-5.3C114.8,204.4,117,205.5,117.8,207.2z"
	/>
<path class="st7" d="M115.4,183.1l-1,8.8l-1.7,21.6c0,0-9.1,11-4,11.3s7.9-10.8,7.9-10.8s5.1-17.5,5-21.2s0-9.8,0-9.8L115.4,183.1
	L115.4,183.1z"/>
<path class="st8" d="M116.8,157.9c0.2-0.1,0.3-0.2,0.5-0.3c0.4-0.3,0.3-0.9,0.2-1.4s-0.4-1-0.3-1.4c0-0.2,0.2-0.4,0.2-0.7
	c0.1-0.5-0.3-1-0.8-1.3s-1-0.4-1.5-0.7c-0.7-0.5-1.1-1.3-1.8-1.8c-0.7-0.5-1.6-0.5-2.4-0.5h-2.5c-1.3,0-2.7,0-3.7,0.9
	c-0.3,0.3-0.5,0.6-0.8,0.8c-0.6,0.5-1.4,0.7-2,1.2c-1,0.7-1.6,1.8-1.6,3c0,1.1,0.6,2.2,0.4,3.2c-0.1,0.7-0.5,1.4-0.4,2.2
	c0.1,0.9,0.9,1.5,1.7,1.8c0.8,0.3,1.7,0.4,2.5,0.8c0.6,0.3,1.3,0.8,2,0.6c0.6-0.2,0.9-0.8,1.1-1.4c0.2-0.7,0.4-1.3,0.5-2
	c0.1-0.5,0.1-1.1,0.5-1.5c0.4-0.5,0.9-0.7,1.5-0.7c1.3,0.1,2.1,2.4,3.3,1.8c0.6-0.3,1.1-1.1,1.5-1.5
	C115.5,158.6,116.1,158.2,116.8,157.9z"/>
<path class="st1" d="M92.9,174.3c0,0-3.3,1.2-4.6,5.8c-1.3,4.6-0.8,7.8-0.8,7.8l6.9,1.2L92.9,174.3z"/>
<path class="st1" d="M114.9,169.5c0,0,6-1.3,6.8,4.3c0.5,3.8,0.8,7.6,0.8,11.4c0,0-5.6-2.6-8.1,0L114.9,169.5z"/>
</svg>
