<?xml version="1.0" encoding="utf-8"?>
<!-- Generator: Adobe Illustrator 22.0.1, SVG Export Plug-In . SVG Version: 6.00 Build 0)  -->
<svg version="1.1" id="Layer_1" xmlns="http://www.w3.org/2000/svg" xmlns:xlink="http://www.w3.org/1999/xlink" x="0px" y="0px"
	 viewBox="0 0 1300 400" style="enable-background:new 0 0 1300 400;" xml:space="preserve">
<style type="text/css">
	.st0{fill:url(#SVGID_1_);stroke:#000000;stroke-width:1.6452;stroke-miterlimit:10;}
	.st1{fill:#3F3D56;}
	.st2{fill:#F2F2F2;}
	.st3{fill:#CCCCCC;}
	.st4{fill:#358CC5;}
	.st5{fill:#E6E6E6;}
	.st6{fill:#D0CDE1;}
	.st7{fill:#FFB9B9;}
	.st8{fill:#2F2E41;}
	.st9{opacity:0.15;enable-background:new    ;}
</style>
<linearGradient id="SVGID_1_" gradientUnits="userSpaceOnUse" x1="0" y1="200" x2="1300" y2="200">
	<stop  offset="0" style="stop-color:#007194"/>
	<stop  offset="1" style="stop-color:#41C1C9"/>
</linearGradient>
<rect class="st0" width="1300" height="400"/>
<path class="st1" d="M1093.9,125.8h-0.3v-0.5h0.2c0.1,0,0.2-0.1,0.2-0.2v-2.6c0-0.1-0.1-0.2-0.2-0.2h-0.2v-1.5
	c0-1.7-1.4-3.2-3.2-3.2l0,0h-0.3v-0.3c0-0.1-0.1-0.2-0.2-0.2h-2.6c-0.1,0-0.2,0.1-0.2,0.2v0.4h-47c-1.7,0-3.2,1.4-3.2,3.2l0,0v67
	c0,1.7,1.4,3.2,3.2,3.2l0,0h50.3c1.7,0,3.2-1.4,3.2-3.2l0,0v-59.3h0.3c0.1,0,0.2-0.1,0.2-0.2v-2.6
	C1094,125.9,1094,125.8,1093.9,125.8L1093.9,125.8z"/>
<rect x="1039.6" y="119.8" class="st2" width="51.8" height="68.7"/>
<rect x="972.3" y="260.9" class="st1" width="249.7" height="0.4"/>
<path class="st1" d="M1158.7,140.1h-0.3v-8.8c0-2.8-2.3-5.1-5.1-5.1l0,0h-18.6c-2.8,0-5.1,2.3-5.1,5.1l0,0v48.1
	c0,2.8,2.3,5.1,5.1,5.1l0,0h18.6c2.8,0,5.1-2.3,5.1-5.1l0,0v-33.1h0.3V140.1z"/>
<path class="st2" d="M1157.3,131.6v48.1c0,2.1-1.7,3.8-3.8,3.8h-18.7c-2.1,0-3.8-1.7-3.8-3.8v-48.1c0-2.1,1.7-3.8,3.8-3.8h2.3
	c-0.4,0.9,0.1,2,1,2.3c0.2,0.1,0.5,0.1,0.7,0.1h10.6c1,0,1.8-0.8,1.8-1.8c0-0.2,0-0.5-0.1-0.7h2.4
	C1155.6,127.9,1157.3,129.6,1157.3,131.6z"/>
<rect x="1138.8" y="134.2" class="st3" width="15.8" height="0.6"/>
<rect x="1138.8" y="136.1" class="st3" width="15.8" height="0.6"/>
<rect x="1138.8" y="138" class="st3" width="15.8" height="0.6"/>
<rect x="1133.8" y="134.6" class="st3" width="3.6" height="3.6"/>
<rect x="1138.8" y="176" class="st3" width="15.8" height="0.6"/>
<rect x="1138.8" y="177.8" class="st3" width="15.8" height="0.6"/>
<rect x="1138.8" y="179.7" class="st3" width="15.8" height="0.6"/>
<rect x="1133.8" y="176.3" class="st3" width="3.6" height="3.6"/>
<path class="st1" d="M1152.9,199.1H1108v-0.9h-20.3v0.9h-45.1c-1.7,0-3,1.4-3,3l0,0v61.5c0,1.7,1.4,3,3,3h110.3c1.7,0,3-1.4,3-3
	v-61.5C1155.9,200.5,1154.6,199.1,1152.9,199.1z"/>
<rect x="1043.6" y="204.5" class="st2" width="108.2" height="61"/>
<circle class="st4" cx="1097.7" cy="201.7" r="1.1"/>
<path class="st1" d="M1159,264.4h-10.6v-0.8c0-0.1-0.1-0.2-0.2-0.2l0,0h-3.6c-0.1,0-0.2,0.1-0.2,0.2l0,0v0.8h-2.3v-0.8
	c0-0.1-0.1-0.2-0.2-0.2l0,0h-3.6c-0.1,0-0.2,0.1-0.2,0.2l0,0v0.8h-2.3v-0.8c0-0.1-0.1-0.2-0.2-0.2l0,0h-3.6c-0.1,0-0.2,0.1-0.2,0.2
	l0,0v0.8h-2.3v-0.8c0-0.1-0.1-0.2-0.2-0.2l0,0h-3.6c-0.1,0-0.2,0.1-0.2,0.2l0,0v0.8h-2.3v-0.8c0-0.1-0.1-0.2-0.2-0.2l0,0h-3.6
	c-0.1,0-0.2,0.1-0.2,0.2l0,0v0.8h-2.3v-0.8c0-0.1-0.1-0.2-0.2-0.2l0,0h-3.6c-0.1,0-0.2,0.1-0.2,0.2l0,0v0.8h-2.3v-0.8
	c0-0.1-0.1-0.2-0.2-0.2l0,0h-28.4c-0.1,0-0.2,0.1-0.2,0.2l0,0v0.8h-2.3v-0.8c0-0.1-0.1-0.2-0.2-0.2l0,0h-3.6c-0.1,0-0.2,0.1-0.2,0.2
	l0,0v0.8h-2.3v-0.8c0-0.1-0.1-0.2-0.2-0.2l0,0h-3.6c-0.1,0-0.2,0.1-0.2,0.2l0,0v0.8h-2.3v-0.8c0-0.1-0.1-0.2-0.2-0.2l0,0h-3.6
	c-0.1,0-0.2,0.1-0.2,0.2l0,0v0.8h-2.3v-0.8c0-0.1-0.1-0.2-0.2-0.2l0,0h-3.6c-0.1,0-0.2,0.1-0.2,0.2l0,0v0.8h-2.3v-0.8
	c0-0.1-0.1-0.2-0.2-0.2l0,0h-3.6c-0.1,0-0.2,0.1-0.2,0.2l0,0v0.8h-2.3v-0.8c0-0.1-0.1-0.2-0.2-0.2l0,0h-3.6c-0.1,0-0.2,0.1-0.2,0.2
	l0,0v0.8h-6.9c-2,0-3.6,1.6-3.6,3.6v1.6c0,2,1.6,3.6,3.6,3.6H1159c2,0,3.6-1.6,3.6-3.6V268C1162.6,266,1161,264.4,1159,264.4
	L1159,264.4z"/>
<rect x="1087.3" y="209.2" class="st5" width="30.4" height="1.1"/>
<rect x="1087.3" y="212.8" class="st5" width="30.4" height="1.1"/>
<rect x="1087.3" y="216.4" class="st5" width="30.4" height="1.1"/>
<rect x="1087.3" y="209.2" class="st3" width="30.4" height="1.1"/>
<rect x="1087.3" y="212.8" class="st3" width="30.4" height="1.1"/>
<rect x="1087.3" y="216.4" class="st3" width="30.4" height="1.1"/>
<rect x="1077.7" y="209.9" class="st3" width="6.9" height="6.9"/>
<rect x="1087.3" y="249.5" class="st3" width="30.4" height="1.1"/>
<rect x="1087.3" y="253" class="st3" width="30.4" height="1.1"/>
<rect x="1087.3" y="256.6" class="st3" width="30.4" height="1.1"/>
<rect x="1077.7" y="250.1" class="st3" width="6.9" height="6.9"/>
<path class="st1" d="M1171,183.7c-1.8-1.9-4.2-3.2-6.8-3.6l1.1-1l-1.2-0.1l-1.5,1.4l1.4,1.5l1.2,0.1l-0.9-1
	c5.8,0.9,9.7,6.4,8.8,12.2c-0.8,5.1-5.3,8.9-10.5,8.9v0.9c6.3,0,11.5-5.1,11.5-11.5C1174.1,188.6,1173,185.8,1171,183.7z"/>
<path class="st1" d="M1022.5,183.7c1.8-1.9,4.2-3.2,6.8-3.6l-1.1-1l1.2-0.1l1.5,1.4l-1.4,1.5l-1.2,0.1l0.9-1
	c-5.8,0.9-9.7,6.4-8.8,12.2c0.8,5.1,5.3,8.9,10.5,8.9v0.9c-6.3,0-11.5-5.1-11.5-11.5C1019.5,188.6,1020.6,185.8,1022.5,183.7z"/>
<rect x="1055.1" y="123.2" class="st3" width="30.4" height="1.1"/>
<rect x="1055.1" y="126.8" class="st3" width="30.4" height="1.1"/>
<rect x="1055.1" y="130.4" class="st3" width="30.4" height="1.1"/>
<rect x="1045.5" y="123.9" class="st3" width="6.9" height="6.9"/>
<rect x="1055" y="176.8" class="st3" width="30.4" height="1.1"/>
<rect x="1055" y="180.3" class="st3" width="30.4" height="1.1"/>
<rect x="1055" y="183.9" class="st3" width="30.4" height="1.1"/>
<rect x="1045.4" y="177.5" class="st3" width="6.9" height="6.9"/>
<circle class="st4" cx="1053.1" cy="154.7" r="5.1"/>
<circle class="st4" cx="1066.8" cy="154.7" r="4.2"/>
<circle class="st4" cx="1080.5" cy="154.7" r="2.6"/>
<circle class="st4" cx="1137.6" cy="155.3" r="2.7"/>
<circle class="st4" cx="1144.8" cy="155.3" r="2.2"/>
<circle class="st4" cx="1152" cy="155.3" r="1.4"/>
<circle class="st4" cx="1097.7" cy="232.9" r="12"/>
<polygon class="st6" points="1102.1,235.6 1097.6,226.5 1093.2,235.6 1095.7,235.6 1095.7,239.4 1099.6,239.4 1099.6,235.6 "/>
<path class="st4" d="M1000.2,231.6c5,15,3.2,29.1,3.2,29.1s-9.8-10.3-14.8-25.2c-5-15-3.2-29.1-3.2-29.1S995.2,216.6,1000.2,231.6z"
	/>
<path class="st4" d="M1006.7,231.6c-5,15-3.2,29.1-3.2,29.1s9.8-10.2,14.8-25.2c5-15,3.2-29.1,3.2-29.1S1011.7,216.6,1006.7,231.6z"
	/>
<path class="st1" d="M1008.7,231.8c0.3,15.8-5.5,28.7-5.5,28.7s-6.4-12.7-6.7-28.5s5.5-28.7,5.5-28.7S1008.4,216,1008.7,231.8z"/>
<ellipse class="st1" cx="1003.2" cy="260.7" rx="14.1" ry="0.8"/>
<circle class="st4" cx="1002.6" cy="217.8" r="1.5"/>
<circle class="st4" cx="999.6" cy="230.2" r="0.9"/>
<ellipse class="st1" cx="989.1" cy="221.7" rx="0.9" ry="0.9"/>
<circle class="st1" cx="1019.4" cy="213.4" r="0.9"/>
<circle class="st1" cx="993.6" cy="229.8" r="0.9"/>
<circle class="st1" cx="1011.6" cy="224.8" r="0.9"/>
<circle class="st1" cx="994.1" cy="242.4" r="0.9"/>
<circle class="st1" cx="1012.5" cy="237.5" r="0.9"/>
<circle class="st4" cx="1004.1" cy="238.4" r="0.9"/>
<polygon class="st7" points="1208.5,265.6 1210.3,271.4 1204.6,271.9 1205.2,265.6 "/>
<polygon class="st7" points="1181.2,270.1 1181.2,278 1174.7,278 1176.5,270.1 "/>
<path class="st8" d="M1204.2,212.3l2.6,25.2c0,0,3.3,22.2,2.6,25.7c-0.7,3.5,0.2,4,0.2,4h-5c0,0,0.2-2.2-0.8-3.1s-0.5-4-0.5-4
	l-12.6-38.4l-7.1,21.5c0,0-1.2,23.7-1.3,24s-0.7,4.8-0.7,4.8h-6.1c0,0,0.8-2.6-0.3-3.5c-1.1-0.8-2.2-0.2-1.2-1.7
	c1-1.5,1.3-3.3,1-4.1c-0.3-0.8-0.3-4.1-0.3-4.1s0.5-44.7,3.3-46.2C1180.8,210.8,1204.2,212.3,1204.2,212.3z"/>
<path class="st8" d="M1179.4,273.8c0,0,2.8-0.4,2.8-0.3c0,0.2,3.4,9.3,0,9.2c-3.4-0.1-16.3-2-15.4-5.4s5.1-2.4,5.1-2.4l3.8-2.1
	L1179.4,273.8z"/>
<path class="st8" d="M1207.3,270.9c0,0-2.8-0.4-2.8-0.3c0,0.2-3.4,9.3,0,9.2c3.4-0.1,16.3-2,15.4-5.4c-0.9-3.4-5.1-2.4-5.1-2.4
	l-3.8-2.1L1207.3,270.9z"/>
<circle class="st7" cx="1190.5" cy="158.6" r="6.5"/>
<path class="st7" d="M1195.7,157.7c0,0,1.2,11.6,2.6,12.4s-11.4,1.7-11.4,1.7s3.1-10.6,2.2-11.6
	C1188.1,159.2,1195.7,157.7,1195.7,157.7z"/>
<path class="st1" d="M1181.8,169.8c0,0,4.6-4.5,9.9-3.6s9.1,1.8,9.1,1.8s8.1,4.3,8.3,7.8s-3,16.5-3,16.5s-1.5,21.4-1.7,21.4
	s-28-0.3-28-0.3l5.1-27.8L1181.8,169.8z"/>
<path class="st7" d="M1182.9,209.6c1.1,0.3,2.9-0.1,4.9-0.8c3.4-1.1,7.1-3,7.1-3s11.9-4.8,15.4-7.3c3.5-2.5,1.2-12.4,1.2-12.4
	l-5.3,1.7l0.3,6.1l-13.1,8.4c-2.1,0.2-4.1,0.6-6,1.2c-2.2,0.7-4.3,1.8-5.1,3.6c-0.1,0.3-0.2,0.5-0.3,0.8
	C1181.8,209,1182.2,209.4,1182.9,209.6z"/>
<path class="st9" d="M1182.2,207.2c0.2,0.9,0.5,1.7,0.7,2.4c1.1,0.3,2.9-0.1,4.9-0.8l-0.4-5.3C1185.2,204.4,1183,205.5,1182.2,207.2
	z"/>
<path class="st7" d="M1184.6,183.1l1,8.8l1.7,21.6c0,0,9.1,11,4,11.3c-5.1,0.3-7.9-10.8-7.9-10.8s-5.1-17.5-5-21.2s0-9.8,0-9.8
	H1184.6z"/>
<path class="st8" d="M1183.2,157.9c-0.2-0.1-0.3-0.2-0.5-0.3c-0.4-0.3-0.3-0.9-0.2-1.4s0.4-1,0.3-1.4c0-0.2-0.2-0.4-0.2-0.7
	c-0.1-0.5,0.3-1,0.8-1.3c0.5-0.3,1-0.4,1.5-0.7c0.7-0.5,1.1-1.3,1.8-1.8c0.7-0.5,1.6-0.5,2.4-0.5h2.5c1.3,0,2.7,0,3.7,0.9
	c0.3,0.3,0.5,0.6,0.8,0.8c0.6,0.5,1.4,0.7,2,1.2c1,0.7,1.6,1.8,1.6,3c0,1.1-0.6,2.2-0.4,3.2c0.1,0.7,0.5,1.4,0.4,2.2
	c-0.1,0.9-0.9,1.5-1.7,1.8c-0.8,0.3-1.7,0.4-2.5,0.8c-0.6,0.3-1.3,0.8-2,0.6c-0.6-0.2-0.9-0.8-1.1-1.4c-0.2-0.7-0.4-1.3-0.5-2
	c-0.1-0.5-0.1-1.1-0.5-1.5c-0.4-0.5-0.9-0.7-1.5-0.7c-1.3,0.1-2.1,2.4-3.3,1.8c-0.6-0.3-1.1-1.1-1.5-1.5
	C1184.5,158.6,1183.9,158.2,1183.2,157.9z"/>
<path class="st1" d="M1207.1,174.3c0,0,3.3,1.2,4.6,5.8c1.3,4.6,0.8,7.8,0.8,7.8l-6.9,1.2L1207.1,174.3z"/>
<path class="st1" d="M1185.1,169.5c0,0-6-1.3-6.8,4.3c-0.5,3.8-0.8,7.6-0.8,11.4c0,0,5.6-2.6,8.1,0L1185.1,169.5z"/>
</svg>
