<?xml version="1.0" encoding="utf-8"?>
<!-- Generator: Adobe Illustrator 22.0.1, SVG Export Plug-In . SVG Version: 6.00 Build 0)  -->
<svg version="1.1" id="Layer_1" xmlns="http://www.w3.org/2000/svg" xmlns:xlink="http://www.w3.org/1999/xlink" x="0px" y="0px"
	 viewBox="0 0 1300 400" style="enable-background:new 0 0 1300 400;" xml:space="preserve">
<style type="text/css">
	.st0{fill:url(#SVGID_1_);stroke:#000000;stroke-width:1.6452;stroke-miterlimit:10;}
	.st1{fill:#6A6A7F;}
	.st2{fill:#F2F2F2;}
	.st3{fill:#3F3D56;}
	.st4{fill:#CCCCCC;}
	.st5{fill:#92C4E0;}
	.st6{fill:#E6E6E6;}
	.st7{fill:#D0CDE1;}
	.st8{fill:#BEC8CE;}
	.st9{fill:#FFB9B9;}
	.st10{fill:#B6B6B7;}
	.st11{fill:#E3E3E5;}
	.st12{fill:#E5E5E5;}
	.st13{opacity:0.15;enable-background:new    ;}
	.st14{fill:#585859;}
</style>
<linearGradient id="SVGID_1_" gradientUnits="userSpaceOnUse" x1="650" y1="200" x2="1950" y2="200" gradientTransform="matrix(-1 0 0 -1 1950 400)">
	<stop  offset="0" style="stop-color:#00354D"/>
	<stop  offset="0.4129" style="stop-color:#00364F"/>
	<stop  offset="0.5616" style="stop-color:#003C56"/>
	<stop  offset="0.6676" style="stop-color:#004561"/>
	<stop  offset="0.7534" style="stop-color:#005272"/>
	<stop  offset="0.8268" style="stop-color:#006388"/>
	<stop  offset="0.8918" style="stop-color:#0078A4"/>
	<stop  offset="0.9492" style="stop-color:#0091C3"/>
	<stop  offset="1" style="stop-color:#00ACE6"/>
	<stop  offset="1" style="stop-color:#0093C7"/>
	<stop  offset="1" style="stop-color:#0075A3"/>
	<stop  offset="1" style="stop-color:#005B83"/>
	<stop  offset="1" style="stop-color:#004567"/>
	<stop  offset="1" style="stop-color:#003351"/>
	<stop  offset="1" style="stop-color:#002540"/>
	<stop  offset="1" style="stop-color:#001B35"/>
	<stop  offset="1" style="stop-color:#00162E"/>
	<stop  offset="1" style="stop-color:#00142C"/>
</linearGradient>
<rect x="0" y="0" class="st0" width="1300" height="400"/>
<path class="st1" d="M1100.5,128.2h-0.3v-0.4h0.2c0.1,0,0.1-0.1,0.1-0.1v-2.2c0-0.1-0.1-0.1-0.1-0.1h-0.2V124c0-1.5-1.2-2.7-2.7-2.7
	l0,0h-0.3V121c0-0.1-0.1-0.1-0.1-0.1h-2.2c-0.1,0-0.1,0.1-0.1,0.1v0.3h-40.4c-1.5,0-2.7,1.2-2.7,2.7l0,0v57.6c0,1.5,1.2,2.7,2.7,2.7
	l0,0h43.2c1.5,0,2.7-1.2,2.7-2.7l0,0v-50.9h0.2c0.1,0,0.1-0.1,0.1-0.1v-2.2C1100.6,128.2,1100.6,128.2,1100.5,128.2L1100.5,128.2z"
	/>
<rect x="1053.9" y="123.1" class="st2" width="44.5" height="59"/>
<rect x="996.1" y="244.2" class="st3" width="214.5" height="0.4"/>
<path class="st1" d="M1156.2,140.5h-0.3V133c0-2.4-2-4.4-4.4-4.4l0,0h-16c-2.4,0-4.4,2-4.4,4.4l0,0v41.3c0,2.4,2,4.4,4.4,4.4l0,0h16
	c2.4,0,4.4-2,4.4-4.4l0,0v-28.4h0.3V140.5z"/>
<path class="st2" d="M1155,133.2v41.3c0,1.8-1.5,3.3-3.3,3.3h-16c-1.8,0-3.3-1.5-3.3-3.3v-41.3c0-1.8,1.5-3.3,3.3-3.3h1.9
	c-0.3,0.8,0.1,1.7,0.8,2c0.2,0.1,0.4,0.1,0.6,0.1h9.1c0.8,0,1.6-0.7,1.6-1.6c0-0.2,0-0.4-0.1-0.6h2.1
	C1153.5,130,1155,131.4,1155,133.2z"/>
<rect x="1139.1" y="135.4" class="st4" width="13.6" height="0.5"/>
<rect x="1139.1" y="137" class="st4" width="13.6" height="0.5"/>
<rect x="1139.1" y="138.6" class="st4" width="13.6" height="0.5"/>
<rect x="1134.8" y="135.8" class="st4" width="3.1" height="3.1"/>
<rect x="1139.1" y="171.3" class="st4" width="13.6" height="0.5"/>
<rect x="1139.1" y="172.9" class="st4" width="13.6" height="0.5"/>
<rect x="1139.1" y="174.5" class="st4" width="13.6" height="0.5"/>
<rect x="1134.8" y="171.6" class="st4" width="3.1" height="3.1"/>
<path class="st1" d="M1151.2,191.1h-38.5v-0.8h-17.5v0.8h-38.7c-1.4,0-2.6,1.2-2.6,2.6l0,0v52.8c0,1.4,1.2,2.6,2.6,2.6h94.7
	c1.4,0,2.6-1.2,2.6-2.6v-52.8C1153.8,192.3,1152.6,191.1,1151.2,191.1z"/>
<rect x="1057.4" y="195.7" class="st2" width="92.9" height="52.4"/>
<circle class="st5" cx="1103.7" cy="193.4" r="1"/>
<path class="st1" d="M1156.4,247.2h-9.1v-0.6c0-0.1-0.1-0.1-0.1-0.1l0,0h-3.1c-0.1,0-0.1,0.1-0.1,0.1l0,0v0.6h-1.9v-0.6
	c0-0.1-0.1-0.1-0.1-0.1l0,0h-3.1c-0.1,0-0.1,0.1-0.1,0.1l0,0v0.6h-1.9v-0.6c0-0.1-0.1-0.1-0.1-0.1l0,0h-3.1c-0.1,0-0.1,0.1-0.1,0.1
	l0,0v0.6h-1.9v-0.6c0-0.1-0.1-0.1-0.1-0.1l0,0h-3.1c-0.1,0-0.1,0.1-0.1,0.1l0,0v0.6h-2v-0.6c0-0.1-0.1-0.1-0.1-0.1l0,0h-3.1
	c-0.1,0-0.1,0.1-0.1,0.1l0,0v0.6h-1.9v-0.6c0-0.1-0.1-0.1-0.1-0.1l0,0h-3.1c-0.1,0-0.1,0.1-0.1,0.1l0,0v0.6h-1.9v-0.6
	c0-0.1-0.1-0.1-0.1-0.1l0,0H1091c-0.1,0-0.1,0.1-0.1,0.1l0,0v0.6h-1.9v-0.6c0-0.1-0.1-0.1-0.1-0.1l0,0h-3.1c-0.1,0-0.1,0.1-0.1,0.1
	l0,0v0.6h-1.9v-0.6c0-0.1-0.1-0.1-0.1-0.1l0,0h-3.1c-0.1,0-0.1,0.1-0.1,0.1l0,0v0.6h-2v-0.6c0-0.1-0.1-0.1-0.1-0.1l0,0h-3.1
	c-0.1,0-0.1,0.1-0.1,0.1l0,0v0.6h-1.9v-0.6c0-0.1-0.1-0.1-0.1-0.1l0,0h-3.1c-0.1,0-0.1,0.1-0.1,0.1l0,0v0.6h-1.9v-0.6
	c0-0.1-0.1-0.1-0.1-0.1l0,0h-3.1c-0.1,0-0.1,0.1-0.1,0.1l0,0v0.6h-1.9v-0.6c0-0.1-0.1-0.1-0.1-0.1l0,0h-3.1c-0.1,0-0.1,0.1-0.1,0.1
	l0,0v0.6h-6c-1.7,0-3.1,1.4-3.1,3.1v1.4c0,1.7,1.4,3.1,3.1,3.1h103.4c1.7,0,3.1-1.4,3.1-3.1v-1.4
	C1159.5,248.6,1158.1,247.2,1156.4,247.2L1156.4,247.2z"/>
<rect x="1094.8" y="199.9" class="st6" width="26.1" height="1"/>
<rect x="1094.8" y="202.9" class="st6" width="26.1" height="1"/>
<rect x="1094.8" y="206" class="st6" width="26.1" height="1"/>
<rect x="1094.8" y="199.9" class="st4" width="26.1" height="1"/>
<rect x="1094.8" y="202.9" class="st4" width="26.1" height="1"/>
<rect x="1094.8" y="206" class="st4" width="26.1" height="1"/>
<rect x="1086.6" y="200.4" class="st4" width="5.9" height="5.9"/>
<rect x="1094.8" y="234.4" class="st4" width="26.1" height="1"/>
<rect x="1094.8" y="237.5" class="st4" width="26.1" height="1"/>
<rect x="1094.8" y="240.5" class="st4" width="26.1" height="1"/>
<rect x="1086.6" y="235" class="st4" width="5.9" height="5.9"/>
<path class="st3" d="M1166.8,177.9c-1.5-1.7-3.6-2.8-5.8-3.1l1-0.9l-1.1-0.1l-1.3,1.2l1.2,1.3l1.1,0.1l-0.8-0.9
	c5,0.8,8.3,5.5,7.6,10.5c-0.7,4.4-4.5,7.7-9,7.7v0.7c5.4,0,9.9-4.4,9.9-9.9C1169.4,182.1,1168.4,179.7,1166.8,177.9z"/>
<path class="st3" d="M1039.2,177.9c1.5-1.7,3.6-2.8,5.8-3.1l-1-0.9l1.1-0.1l1.3,1.2l-1.2,1.3l-1.1,0.1l0.8-0.9
	c-5,0.8-8.3,5.5-7.6,10.5c0.7,4.4,4.5,7.7,9,7.7v0.7c-5.4,0-9.9-4.4-9.9-9.9C1036.6,182.1,1037.6,179.7,1039.2,177.9z"/>
<rect x="1067.2" y="126" class="st4" width="26.1" height="1"/>
<rect x="1067.2" y="129.1" class="st4" width="26.1" height="1"/>
<rect x="1067.2" y="132.1" class="st4" width="26.1" height="1"/>
<rect x="1059" y="126.6" class="st4" width="5.9" height="5.9"/>
<rect x="1067.1" y="172" class="st4" width="26.1" height="1"/>
<rect x="1067.1" y="175" class="st4" width="26.1" height="1"/>
<rect x="1067.1" y="178.1" class="st4" width="26.1" height="1"/>
<rect x="1058.9" y="172.6" class="st4" width="5.9" height="5.9"/>
<circle class="st5" cx="1065.5" cy="153" r="4.4"/>
<circle class="st5" cx="1077.2" cy="153" r="3.6"/>
<circle class="st5" cx="1089" cy="153" r="2.2"/>
<circle class="st5" cx="1138.1" cy="153.5" r="2.3"/>
<circle class="st5" cx="1144.3" cy="153.5" r="1.8"/>
<circle class="st5" cx="1150.4" cy="153.5" r="1.2"/>
<circle class="st5" cx="1103.7" cy="220.2" r="10.3"/>
<polygon class="st7" points="1107.6,222.5 1103.7,214.7 1099.9,222.5 1102.1,222.5 1102.1,225.7 1105.4,225.7 1105.4,222.5 "/>
<path class="st5" d="M1020.1,219.1c4.3,12.9,2.8,25,2.8,25s-8.4-8.8-12.7-21.7c-4.3-12.9-2.8-25-2.8-25S1015.8,206.2,1020.1,219.1z"
	/>
<path class="st5" d="M1025.6,219.1c-4.3,12.9-2.8,25-2.8,25s8.4-8.8,12.7-21.7c4.3-12.9,2.8-25,2.8-25S1029.9,206.2,1025.6,219.1z"
	/>
<path class="st1" d="M1027.3,219.2c0.3,13.6-4.7,24.7-4.7,24.7s-5.5-10.9-5.8-24.5s4.7-24.7,4.7-24.7S1027,205.6,1027.3,219.2z"/>
<ellipse class="st3" cx="1022.6" cy="244" rx="12.1" ry="0.7"/>
<circle class="st8" cx="1022.1" cy="207.2" r="1.3"/>
<circle class="st8" cx="1019.5" cy="217.8" r="0.7"/>
<ellipse class="st3" cx="1010.5" cy="210.6" rx="0.7" ry="0.7"/>
<circle class="st3" cx="1036.6" cy="203.4" r="0.7"/>
<circle class="st3" cx="1014.3" cy="217.5" r="0.7"/>
<circle class="st3" cx="1029.9" cy="213.2" r="0.7"/>
<circle class="st3" cx="1014.8" cy="228.3" r="0.7"/>
<circle class="st3" cx="1030.6" cy="224.1" r="0.7"/>
<circle class="st8" cx="1023.4" cy="224.9" r="0.7"/>
<polygon class="st9" points="1198.9,248.3 1200.5,253.2 1195.6,253.7 1196.1,248.3 "/>
<polygon class="st9" points="1175.5,252.1 1175.5,258.9 1169.9,258.9 1171.5,252.1 "/>
<path class="st10" d="M1195.2,202.5l2.3,21.6c0,0,2.8,19,2.3,22c-0.6,3,0.1,3.4,0.1,3.4h-4.3c0,0,0.1-1.8-0.7-2.7
	c-0.8-0.8-0.4-3.4-0.4-3.4l-10.8-33l-6.1,18.5c0,0-1,20.3-1.1,20.6c-0.1,0.3-0.6,4.1-0.6,4.1h-5.3c0,0,0.7-2.3-0.3-3s-1.8-0.1-1-1.4
	s1.1-2.8,0.8-3.5c-0.3-0.7-0.3-3.5-0.3-3.5s0.4-38.4,2.8-39.6C1175.2,201.2,1195.2,202.5,1195.2,202.5z"/>
<path class="st11" d="M1174,255.3c0,0,2.4-0.4,2.4-0.2c0,0.1,2.9,8,0,7.9c-2.9-0.1-14-1.7-13.2-4.6c0.7-2.9,4.4-2.1,4.4-2.1l3.3-1.8
	L1174,255.3z"/>
<path class="st11" d="M1197.9,252.8c0,0-2.4-0.4-2.4-0.2s-2.9,8,0,7.9c2.9-0.1,14-1.7,13.2-4.6c-0.7-2.9-4.4-2.1-4.4-2.1l-3.3-1.8
	L1197.9,252.8z"/>
<ellipse class="st9" cx="1183.5" cy="156.3" rx="5.6" ry="5.6"/>
<path class="st9" d="M1188,155.6c0,0,1,10,2.3,10.7c1.3,0.7-9.8,1.4-9.8,1.4s2.7-9.1,1.8-10C1181.4,156.9,1188,155.6,1188,155.6z"/>
<path class="st12" d="M1176,166c0,0,4-3.8,8.5-3.1s7.8,1.6,7.8,1.6s7,3.7,7.1,6.7c0.1,3-2.5,14.2-2.5,14.2s-1.3,18.3-1.4,18.3
	s-24-0.3-24-0.3l4.4-23.9L1176,166z"/>
<path class="st9" d="M1177,200.2c0.9,0.2,2.5-0.1,4.2-0.6c3-1,6.1-2.6,6.1-2.6s10.2-4.1,13.2-6.3c3-2.1,1-10.7,1-10.7l-4.5,1.4
	l0.3,5.3L1186,194c-1.8,0.2-3.5,0.5-5.2,1.1c-1.9,0.6-3.7,1.6-4.4,3.1c-0.1,0.2-0.2,0.5-0.2,0.7C1176,199.6,1176.4,200,1177,200.2z"
	/>
<path class="st13" d="M1176.4,198.1c0.2,0.7,0.4,1.4,0.6,2.1c0.9,0.2,2.5-0.1,4.2-0.6l-0.4-4.5
	C1178.9,195.7,1177.1,196.6,1176.4,198.1z"/>
<path class="st9" d="M1178.4,177.4l0.8,7.5l1.4,18.6c0,0,7.8,9.4,3.4,9.7c-4.4,0.3-6.8-9.2-6.8-9.2s-4.4-15.1-4.3-18.2s0-8.4,0-8.4
	H1178.4z"/>
<path class="st14" d="M1177.2,155.7c-0.1-0.1-0.3-0.1-0.4-0.2c-0.3-0.3-0.3-0.8-0.1-1.2c0.1-0.4,0.3-0.8,0.2-1.2
	c0-0.2-0.1-0.4-0.2-0.6c-0.1-0.5,0.3-0.9,0.7-1.1c0.4-0.2,0.9-0.4,1.3-0.6c0.6-0.4,0.9-1.1,1.5-1.5c0.6-0.4,1.3-0.4,2-0.4h2.1
	c1.1,0,2.3,0,3.1,0.8c0.3,0.2,0.4,0.5,0.7,0.7c0.5,0.4,1.2,0.6,1.8,1c0.8,0.6,1.4,1.5,1.3,2.6c0,0.9-0.5,1.8-0.4,2.8
	c0.1,0.6,0.4,1.2,0.3,1.8c-0.1,0.7-0.8,1.3-1.5,1.5s-1.5,0.4-2.1,0.7c-0.6,0.3-1.1,0.7-1.7,0.5c-0.5-0.1-0.8-0.7-0.9-1.2
	c-0.2-0.6-0.4-1.1-0.4-1.7c-0.1-0.4-0.1-0.9-0.4-1.3c-0.3-0.4-0.8-0.6-1.3-0.6c-1.1,0.1-1.8,2-2.8,1.6c-0.5-0.2-0.9-0.9-1.3-1.3
	C1178.3,156.3,1177.8,156,1177.2,155.7z"/>
<path class="st12" d="M1197.8,169.8c0,0,2.8,1,4,5s0.7,6.7,0.7,6.7l-6,1L1197.8,169.8z"/>
<path class="st12" d="M1178.9,165.7c0,0-5.1-1.1-5.8,3.7c-0.4,3.3-0.7,6.5-0.7,9.8c0,0,4.8-2.3,7,0L1178.9,165.7z"/>
</svg>
