<?xml version="1.0" encoding="utf-8"?>
<!-- Generator: Adobe Illustrator 22.0.1, SVG Export Plug-In . SVG Version: 6.00 Build 0)  -->
<svg version="1.1" id="Layer_1" xmlns="http://www.w3.org/2000/svg" xmlns:xlink="http://www.w3.org/1999/xlink" x="0px" y="0px"
	 viewBox="0 0 1300 400" style="enable-background:new 0 0 1300 400;" xml:space="preserve">
<style type="text/css">
	.st0{fill:url(#SVGID_1_);stroke:#000000;stroke-width:1.6452;stroke-miterlimit:10;}
	.st1{fill:#6A6A7F;}
	.st2{fill:#F2F2F2;}
	.st3{fill:#3F3D56;}
	.st4{fill:#CCCCCC;}
	.st5{fill:#92C4E0;}
	.st6{fill:#E6E6E6;}
	.st7{fill:#D0CDE1;}
	.st8{fill:#BEC8CE;}
	.st9{fill:#FFB9B9;}
	.st10{fill:#B6B6B7;}
	.st11{fill:#E3E3E5;}
	.st12{fill:#E5E5E5;}
	.st13{opacity:0.15;enable-background:new    ;}
	.st14{fill:#585859;}
</style>
<linearGradient id="SVGID_1_" gradientUnits="userSpaceOnUse" x1="2177.2104" y1="200" x2="2600" y2="200" gradientTransform="matrix(3.0748 0 0 1 -6694.52 0)">
	<stop  offset="0" style="stop-color:#00354D"/>
	<stop  offset="0.4129" style="stop-color:#00364F"/>
	<stop  offset="0.5616" style="stop-color:#003C56"/>
	<stop  offset="0.6676" style="stop-color:#004561"/>
	<stop  offset="0.7534" style="stop-color:#005272"/>
	<stop  offset="0.8268" style="stop-color:#006388"/>
	<stop  offset="0.8918" style="stop-color:#0078A4"/>
	<stop  offset="0.9492" style="stop-color:#0091C3"/>
	<stop  offset="1" style="stop-color:#00ACE6"/>
	<stop  offset="1" style="stop-color:#0093C7"/>
	<stop  offset="1" style="stop-color:#0075A3"/>
	<stop  offset="1" style="stop-color:#005B83"/>
	<stop  offset="1" style="stop-color:#004567"/>
	<stop  offset="1" style="stop-color:#003351"/>
	<stop  offset="1" style="stop-color:#002540"/>
	<stop  offset="1" style="stop-color:#001B35"/>
	<stop  offset="1" style="stop-color:#00162E"/>
	<stop  offset="1" style="stop-color:#00142C"/>
</linearGradient>
<rect class="st0" width="1300" height="400"/>
<path class="st1" d="M199.5,128.2h0.3v-0.4h-0.2c-0.1,0-0.1-0.1-0.1-0.1v-2.2c0-0.1,0.1-0.1,0.1-0.1h0.2V124c0-1.5,1.2-2.7,2.7-2.7
	l0,0h0.3V121c0-0.1,0.1-0.1,0.1-0.1h2.2c0.1,0,0.1,0.1,0.1,0.1v0.3h40.4c1.5,0,2.7,1.2,2.7,2.7l0,0v57.6c0,1.5-1.2,2.7-2.7,2.7l0,0
	h-43.2c-1.5,0-2.7-1.2-2.7-2.7l0,0v-50.9h-0.2c-0.1,0-0.1-0.1-0.1-0.1v-2.2C199.4,128.2,199.4,128.2,199.5,128.2L199.5,128.2z"/>
<rect x="201.6" y="123.1" class="st2" width="44.5" height="59"/>
<rect x="89.4" y="244.2" class="st3" width="214.5" height="0.4"/>
<path class="st1" d="M143.8,140.5h0.3V133c0-2.4,2-4.4,4.4-4.4l0,0h16c2.4,0,4.4,2,4.4,4.4l0,0v41.3c0,2.4-2,4.4-4.4,4.4l0,0h-16
	c-2.4,0-4.4-2-4.4-4.4l0,0v-28.4h-0.3V140.5z"/>
<path class="st2" d="M145,133.2v41.3c0,1.8,1.5,3.3,3.3,3.3h16c1.8,0,3.3-1.5,3.3-3.3v-41.3c0-1.8-1.5-3.3-3.3-3.3h-1.9
	c0.3,0.8-0.1,1.7-0.8,2c-0.2,0.1-0.4,0.1-0.6,0.1h-9.1c-0.8,0-1.6-0.7-1.6-1.6c0-0.2,0-0.4,0.1-0.6h-2.1
	C146.5,130,145,131.4,145,133.2z"/>
<rect x="147.3" y="135.4" class="st4" width="13.6" height="0.5"/>
<rect x="147.3" y="137" class="st4" width="13.6" height="0.5"/>
<rect x="147.3" y="138.6" class="st4" width="13.6" height="0.5"/>
<rect x="162.1" y="135.8" class="st4" width="3.1" height="3.1"/>
<rect x="147.3" y="171.3" class="st4" width="13.6" height="0.5"/>
<rect x="147.3" y="172.9" class="st4" width="13.6" height="0.5"/>
<rect x="147.3" y="174.5" class="st4" width="13.6" height="0.5"/>
<rect x="162.1" y="171.6" class="st4" width="3.1" height="3.1"/>
<path class="st1" d="M148.8,191.1h38.5v-0.8h17.5v0.8h38.7c1.4,0,2.6,1.2,2.6,2.6l0,0v52.8c0,1.4-1.2,2.6-2.6,2.6h-94.7
	c-1.4,0-2.6-1.2-2.6-2.6v-52.8C146.2,192.3,147.4,191.1,148.8,191.1z"/>
<rect x="149.7" y="195.7" class="st2" width="92.9" height="52.4"/>
<circle class="st5" cx="196.3" cy="193.4" r="1"/>
<path class="st1" d="M143.6,247.2h9.1v-0.6c0-0.1,0.1-0.1,0.1-0.1l0,0h3.1c0.1,0,0.1,0.1,0.1,0.1l0,0v0.6h1.9v-0.6
	c0-0.1,0.1-0.1,0.1-0.1l0,0h3.1c0.1,0,0.1,0.1,0.1,0.1l0,0v0.6h1.9v-0.6c0-0.1,0.1-0.1,0.1-0.1l0,0h3.1c0.1,0,0.1,0.1,0.1,0.1l0,0
	v0.6h1.9v-0.6c0-0.1,0.1-0.1,0.1-0.1l0,0h3.1c0.1,0,0.1,0.1,0.1,0.1l0,0v0.6h2v-0.6c0-0.1,0.1-0.1,0.1-0.1l0,0h3.1
	c0.1,0,0.1,0.1,0.1,0.1l0,0v0.6h1.9v-0.6c0-0.1,0.1-0.1,0.1-0.1l0,0h3.1c0.1,0,0.1,0.1,0.1,0.1l0,0v0.6h1.9v-0.6
	c0-0.1,0.1-0.1,0.1-0.1l0,0H209c0.1,0,0.1,0.1,0.1,0.1l0,0v0.6h1.9v-0.6c0-0.1,0.1-0.1,0.1-0.1l0,0h3.1c0.1,0,0.1,0.1,0.1,0.1l0,0
	v0.6h1.9v-0.6c0-0.1,0.1-0.1,0.1-0.1l0,0h3.1c0.1,0,0.1,0.1,0.1,0.1l0,0v0.6h2v-0.6c0-0.1,0.1-0.1,0.1-0.1l0,0h3.1
	c0.1,0,0.1,0.1,0.1,0.1l0,0v0.6h1.9v-0.6c0-0.1,0.1-0.1,0.1-0.1l0,0h3.1c0.1,0,0.1,0.1,0.1,0.1l0,0v0.6h1.9v-0.6
	c0-0.1,0.1-0.1,0.1-0.1l0,0h3.1c0.1,0,0.1,0.1,0.1,0.1l0,0v0.6h1.9v-0.6c0-0.1,0.1-0.1,0.1-0.1l0,0h3.1c0.1,0,0.1,0.1,0.1,0.1l0,0
	v0.6h6c1.7,0,3.1,1.4,3.1,3.1v1.4c0,1.7-1.4,3.1-3.1,3.1H143c-1.7,0-3.1-1.4-3.1-3.1v-1.4C140.5,248.6,141.9,247.2,143.6,247.2
	L143.6,247.2z"/>
<rect x="179.1" y="199.9" class="st6" width="26.1" height="1"/>
<rect x="179.1" y="202.9" class="st6" width="26.1" height="1"/>
<rect x="179.1" y="206" class="st6" width="26.1" height="1"/>
<rect x="179.1" y="199.9" class="st4" width="26.1" height="1"/>
<rect x="179.1" y="202.9" class="st4" width="26.1" height="1"/>
<rect x="179.1" y="206" class="st4" width="26.1" height="1"/>
<rect x="207.5" y="200.4" class="st4" width="5.9" height="5.9"/>
<rect x="179.1" y="234.4" class="st4" width="26.1" height="1"/>
<rect x="179.1" y="237.5" class="st4" width="26.1" height="1"/>
<rect x="179.1" y="240.5" class="st4" width="26.1" height="1"/>
<rect x="207.5" y="235" class="st4" width="5.9" height="5.9"/>
<path class="st3" d="M133.2,177.9c1.5-1.7,3.6-2.8,5.8-3.1l-1-0.9l1.1-0.1l1.3,1.2l-1.2,1.3l-1.1,0.1l0.8-0.9
	c-5,0.8-8.3,5.5-7.6,10.5c0.7,4.4,4.5,7.7,9,7.7v0.7c-5.4,0-9.9-4.4-9.9-9.9C130.6,182.1,131.6,179.7,133.2,177.9z"/>
<path class="st3" d="M260.8,177.9c-1.5-1.7-3.6-2.8-5.8-3.1l1-0.9l-1.1-0.1l-1.3,1.2l1.2,1.3l1.1,0.1l-0.8-0.9
	c5,0.8,8.3,5.5,7.6,10.5c-0.7,4.4-4.5,7.7-9,7.7v0.7c5.4,0,9.9-4.4,9.9-9.9C263.4,182.1,262.4,179.7,260.8,177.9z"/>
<rect x="206.7" y="126" class="st4" width="26.1" height="1"/>
<rect x="206.7" y="129.1" class="st4" width="26.1" height="1"/>
<rect x="206.7" y="132.1" class="st4" width="26.1" height="1"/>
<rect x="235.1" y="126.6" class="st4" width="5.9" height="5.9"/>
<rect x="206.8" y="172" class="st4" width="26.1" height="1"/>
<rect x="206.8" y="175" class="st4" width="26.1" height="1"/>
<rect x="206.8" y="178.1" class="st4" width="26.1" height="1"/>
<rect x="235.2" y="172.6" class="st4" width="5.9" height="5.9"/>
<circle class="st5" cx="234.5" cy="153" r="4.4"/>
<circle class="st5" cx="222.8" cy="153" r="3.6"/>
<circle class="st5" cx="211" cy="153" r="2.2"/>
<circle class="st5" cx="161.9" cy="153.5" r="2.3"/>
<circle class="st5" cx="155.7" cy="153.5" r="1.8"/>
<circle class="st5" cx="149.6" cy="153.5" r="1.2"/>
<circle class="st5" cx="196.3" cy="220.2" r="10.3"/>
<polygon class="st7" points="192.4,222.5 196.3,214.7 200.1,222.5 197.9,222.5 197.9,225.7 194.6,225.7 194.6,222.5 "/>
<path class="st5" d="M279.9,219.1c-4.3,12.9-2.8,25-2.8,25s8.4-8.8,12.7-21.7s2.8-25,2.8-25S284.2,206.2,279.9,219.1z"/>
<path class="st5" d="M274.4,219.1c4.3,12.9,2.8,25,2.8,25s-8.4-8.8-12.7-21.7s-2.8-25-2.8-25S270.1,206.2,274.4,219.1z"/>
<path class="st1" d="M272.7,219.2c-0.3,13.6,4.7,24.7,4.7,24.7s5.5-10.9,5.8-24.5s-4.7-24.7-4.7-24.7S273,205.6,272.7,219.2z"/>
<ellipse class="st3" cx="277.4" cy="244" rx="12.1" ry="0.7"/>
<circle class="st8" cx="277.9" cy="207.2" r="1.3"/>
<circle class="st8" cx="280.5" cy="217.8" r="0.7"/>
<ellipse class="st3" cx="289.5" cy="210.6" rx="0.7" ry="0.7"/>
<circle class="st3" cx="263.4" cy="203.4" r="0.7"/>
<circle class="st3" cx="285.7" cy="217.5" r="0.7"/>
<circle class="st3" cx="270.1" cy="213.2" r="0.7"/>
<circle class="st3" cx="285.2" cy="228.3" r="0.7"/>
<circle class="st3" cx="269.4" cy="224.1" r="0.7"/>
<path class="st8" d="M276.6,224.2c-0.4,0-0.7,0.3-0.7,0.7s0.3,0.7,0.7,0.7s0.7-0.3,0.7-0.7S277,224.2,276.6,224.2z"/>
<polygon class="st9" points="101.1,248.3 99.5,253.2 104.4,253.7 103.9,248.3 "/>
<polygon class="st9" points="124.5,252.1 124.5,258.9 130.1,258.9 128.5,252.1 "/>
<path class="st10" d="M104.8,202.5l-2.3,21.6c0,0-2.8,19-2.3,22c0.6,3-0.1,3.4-0.1,3.4h4.3c0,0-0.1-1.8,0.7-2.7
	c0.8-0.8,0.4-3.4,0.4-3.4l10.8-33l6.1,18.5c0,0,1,20.3,1.1,20.6s0.6,4.1,0.6,4.1h5.3c0,0-0.7-2.3,0.3-3s1.8-0.1,1-1.4
	s-1.1-2.8-0.8-3.5c0.3-0.7,0.3-3.5,0.3-3.5s-0.4-38.4-2.8-39.6C124.8,201.2,104.8,202.5,104.8,202.5z"/>
<path class="st11" d="M126,255.3c0,0-2.4-0.4-2.4-0.2c0,0.1-2.9,8,0,7.9s14-1.7,13.2-4.6c-0.7-2.9-4.4-2.1-4.4-2.1l-3.3-1.8
	L126,255.3z"/>
<path class="st11" d="M102.1,252.8c0,0,2.4-0.4,2.4-0.2s2.9,8,0,7.9s-14-1.7-13.2-4.6c0.7-2.9,4.4-2.1,4.4-2.1L99,252L102.1,252.8z"
	/>
<ellipse class="st9" cx="116.5" cy="156.3" rx="5.6" ry="5.6"/>
<path class="st9" d="M112,155.6c0,0-1,10-2.3,10.7s9.8,1.4,9.8,1.4s-2.7-9.1-1.8-10C118.6,156.9,112,155.6,112,155.6z"/>
<path class="st12" d="M124,166c0,0-4-3.8-8.5-3.1s-7.8,1.6-7.8,1.6s-7,3.7-7.1,6.7s2.5,14.2,2.5,14.2s1.3,18.3,1.4,18.3
	s24-0.3,24-0.3l-4.4-23.9L124,166z"/>
<path class="st9" d="M123,200.2c-0.9,0.2-2.5-0.1-4.2-0.6c-3-1-6.1-2.6-6.1-2.6s-10.2-4.1-13.2-6.3c-3-2.1-1-10.7-1-10.7l4.5,1.4
	l-0.3,5.3L114,194c1.8,0.2,3.5,0.5,5.2,1.1c1.9,0.6,3.7,1.6,4.4,3.1c0.1,0.2,0.2,0.5,0.2,0.7C124,199.6,123.6,200,123,200.2z"/>
<path class="st13" d="M123.6,198.1c-0.2,0.7-0.4,1.4-0.6,2.1c-0.9,0.2-2.5-0.1-4.2-0.6l0.4-4.5C121.1,195.7,122.9,196.6,123.6,198.1
	z"/>
<path class="st9" d="M121.6,177.4l-0.8,7.5l-1.4,18.6c0,0-7.8,9.4-3.4,9.7s6.8-9.2,6.8-9.2s4.4-15.1,4.3-18.2s0-8.4,0-8.4
	L121.6,177.4L121.6,177.4z"/>
<path class="st14" d="M122.8,155.7c0.1-0.1,0.3-0.1,0.4-0.2c0.3-0.3,0.3-0.8,0.1-1.2c-0.1-0.4-0.3-0.8-0.2-1.2
	c0-0.2,0.1-0.4,0.2-0.6c0.1-0.5-0.3-0.9-0.7-1.1c-0.4-0.2-0.9-0.4-1.3-0.6c-0.6-0.4-0.9-1.1-1.5-1.5s-1.3-0.4-2-0.4h-2.1
	c-1.1,0-2.3,0-3.1,0.8c-0.3,0.2-0.4,0.5-0.7,0.7c-0.5,0.4-1.2,0.6-1.8,1c-0.8,0.6-1.4,1.5-1.3,2.6c0,0.9,0.5,1.8,0.4,2.8
	c-0.1,0.6-0.4,1.2-0.3,1.8c0.1,0.7,0.8,1.3,1.5,1.5s1.5,0.4,2.1,0.7s1.1,0.7,1.7,0.5c0.5-0.1,0.8-0.7,0.9-1.2
	c0.2-0.6,0.4-1.1,0.4-1.7c0.1-0.4,0.1-0.9,0.4-1.3c0.3-0.4,0.8-0.6,1.3-0.6c1.1,0.1,1.8,2,2.8,1.6c0.5-0.2,0.9-0.9,1.3-1.3
	C121.7,156.3,122.2,156,122.8,155.7z"/>
<path class="st12" d="M102.2,169.8c0,0-2.8,1-4,5s-0.7,6.7-0.7,6.7l6,1L102.2,169.8z"/>
<path class="st12" d="M121.1,165.7c0,0,5.1-1.1,5.8,3.7c0.4,3.3,0.7,6.5,0.7,9.8c0,0-4.8-2.3-7,0L121.1,165.7z"/>
</svg>
