<?xml version="1.0" encoding="utf-8"?>
<!-- Generator: Adobe Illustrator 22.0.1, SVG Export Plug-In . SVG Version: 6.00 Build 0)  -->
<svg version="1.1" id="Layer_1" xmlns="http://www.w3.org/2000/svg" xmlns:xlink="http://www.w3.org/1999/xlink" x="0px" y="0px"
	 viewBox="0 0 1300 400" style="enable-background:new 0 0 1300 400;" xml:space="preserve">
<style type="text/css">
	.st0{opacity:5.000000e-02;fill:#020202;enable-background:new    ;}
	.st1{fill:url(#SVGID_1_);stroke:#000000;stroke-width:1.6452;stroke-miterlimit:10;}
	.st2{fill:url(#SVGID_2_);}
	.st3{fill:url(#SVGID_3_);}
	.st4{fill:#E8BABA;}
	.st5{opacity:0.2;enable-background:new    ;}
</style>
<ellipse class="st0" cx="1404.9" cy="1082.5" rx="8.3" ry="1.7"/>
<linearGradient id="SVGID_1_" gradientUnits="userSpaceOnUse" x1="650" y1="199" x2="1950" y2="199" gradientTransform="matrix(-1 0 0 -1 1950 400)">
	<stop  offset="0" style="stop-color:#00354D"/>
	<stop  offset="0.4129" style="stop-color:#00364F"/>
	<stop  offset="0.5616" style="stop-color:#003C56"/>
	<stop  offset="0.6676" style="stop-color:#004561"/>
	<stop  offset="0.7534" style="stop-color:#005272"/>
	<stop  offset="0.8268" style="stop-color:#006388"/>
	<stop  offset="0.8918" style="stop-color:#0078A4"/>
	<stop  offset="0.9492" style="stop-color:#0091C3"/>
	<stop  offset="1" style="stop-color:#00ACE6"/>
	<stop  offset="1" style="stop-color:#0093C7"/>
	<stop  offset="1" style="stop-color:#0075A3"/>
	<stop  offset="1" style="stop-color:#005B83"/>
	<stop  offset="1" style="stop-color:#004567"/>
	<stop  offset="1" style="stop-color:#003351"/>
	<stop  offset="1" style="stop-color:#002540"/>
	<stop  offset="1" style="stop-color:#001B35"/>
	<stop  offset="1" style="stop-color:#00162E"/>
	<stop  offset="1" style="stop-color:#00142C"/>
</linearGradient>
<rect x="0" y="1" class="st1" width="1300" height="400"/>
<linearGradient id="SVGID_2_" gradientUnits="userSpaceOnUse" x1="1253.9821" y1="339.558" x2="1253.9821" y2="192.9743" gradientTransform="matrix(1 0 0 1 -133.4507 -79.4196)">
	<stop  offset="0" style="stop-color:#808080;stop-opacity:0.25"/>
	<stop  offset="0.5351" style="stop-color:#808080;stop-opacity:0.12"/>
	<stop  offset="1" style="stop-color:#808080;stop-opacity:0.1"/>
</linearGradient>
<path class="st2" d="M1135.3,199.3c-6.4-13-1.3-24.2,7.6-32c12.3-5.8,24.4-3.2,33.3,8.3c5.9-3.4,13.2-4.2,19.3-2.8
	c4.7-17.7,0.3-38.9-15.3-50.4c-20.4-14.9-49-10.4-63.8,10c-20.4-14.9-49-10.4-63.8,10c-14.9,20.4-10.4,49,10,63.8l73.8,53.9
	L1156,233L1135.3,199.3z"/>
<linearGradient id="SVGID_3_" gradientUnits="userSpaceOnUse" x1="1305.7837" y1="319.2098" x2="1305.7837" y2="245.3754" gradientTransform="matrix(1 0 0 1 -133.4507 -79.4196)">
	<stop  offset="0" style="stop-color:#808080;stop-opacity:0.25"/>
	<stop  offset="0.5351" style="stop-color:#808080;stop-opacity:0.12"/>
	<stop  offset="1" style="stop-color:#808080;stop-opacity:0.1"/>
</linearGradient>
<path class="st3" d="M1176.5,177.3c-6.4-10.9-20.3-14.6-31.3-8.2c-10.9,6.4-14.6,20.3-8.2,31.3l0,0l23.1,39.4l39.4-23.1
	c10.9-6.4,14.6-20.3,8.2-31.3C1201.4,174.6,1187.4,170.9,1176.5,177.3z"/>
<path class="st4" d="M1176.3,178c-6.1-10.4-19.4-13.9-29.8-7.8c-10.3,6.1-13.9,19.4-7.8,29.8l22,37.6l37.6-22
	c10.4-6.1,13.9-19.4,7.8-29.8C1200.1,175.4,1186.7,172,1176.3,178z"/>
<path class="st5" d="M1197.9,215.9c10.4-6.1,13.9-19.4,7.8-29.8c-6-10.3-19.3-13.9-29.7-7.9l21.7,37.8L1197.9,215.9z"/>
<path class="st4" d="M1194,171.8c-6-1.4-12.4-0.4-17.7,2.7c-6.8-11.6-21.8-15.5-33.4-8.7c-11.6,6.8-15.5,21.8-8.7,33.4l19.4,33.2
	l-18,24.7l-36.9-26.9l3.1-1.8c13.2-7.7,17.7-24.8,9.9-38c-7-12-22-17-34.8-11.5c-1.1,0.4-2.1,1-3.2,1.6
	c-5.4-9.3-15.9-14.7-26.6-13.7c0.2-2.2,0.5-4.4,1-6.5c0.1-0.3,0.1-0.5,0.2-0.7c0.3-0.9,0.5-1.9,0.8-2.8c0-0.1,0.1-0.2,0.1-0.3
	c0.2-0.4,0.3-0.8,0.4-1.3c0.2-0.5,0.3-0.9,0.5-1.4c0.1-0.3,0.2-0.4,0.3-0.7c0.1-0.3,0.2-0.4,0.3-0.7l0,0c0.1-0.3,0.2-0.4,0.3-0.7
	v-0.1c0.1-0.2,0.2-0.4,0.3-0.6c0.1-0.3,0.3-0.4,0.3-0.7c0.3-0.5,0.5-0.9,0.8-1.4c0.1-0.2,0.2-0.3,0.3-0.5c0.1-0.2,0.3-0.4,0.3-0.6
	c0.1-0.1,0.1-0.2,0.2-0.3c0.3-0.5,0.7-1.1,1-1.6c0.1-0.1,0.2-0.3,0.3-0.3c0.1-0.2,0.3-0.3,0.3-0.5c0.2-0.2,0.3-0.4,0.4-0.6
	c14.2-19.5,41.5-23.8,61-9.6c14.2-19.5,41.5-23.8,61-9.6C1192.1,135.8,1198.7,154.3,1194,171.8z"/>
<path class="st4" d="M1071.3,184.3c-6.9-11.7-22-15.7-33.7-8.8c-11.7,6.9-15.7,22-8.8,33.7l24.8,42.5l42.5-24.8
	c11.7-6.9,15.7-22,8.8-33.7C1098.1,181.4,1083,177.4,1071.3,184.3L1071.3,184.3z"/>
<path class="st5" d="M1116.5,134.8l-39.6,43.9c-1.1,0.4-2.1,1-3.2,1.6c-5.4-9.3-15.9-14.7-26.6-13.7c0.2-2.2,0.5-4.4,1-6.5
	c0.1-0.3,0.1-0.5,0.2-0.7c0.3-0.9,0.5-1.9,0.8-2.8c0-0.1,0.1-0.2,0.1-0.3c0.2-0.4,0.3-0.8,0.4-1.3c0.2-0.5,0.3-0.9,0.5-1.4
	c0.1-0.3,0.2-0.4,0.3-0.7c0.1-0.3,0.2-0.4,0.3-0.7l0,0c0.1-0.3,0.2-0.4,0.3-0.7v-0.1c0.1-0.2,0.2-0.4,0.3-0.6
	c0.1-0.3,0.3-0.4,0.3-0.7c0.3-0.5,0.5-0.9,0.8-1.4c0.1-0.2,0.2-0.3,0.3-0.5c0.1-0.2,0.3-0.4,0.3-0.6c0.1-0.1,0.1-0.2,0.2-0.3
	c0.3-0.5,0.7-1.1,1-1.6c0.1-0.1,0.2-0.3,0.3-0.3c0.1-0.2,0.3-0.3,0.3-0.5c0.2-0.2,0.3-0.4,0.4-0.6
	C1069.7,124.8,1097,120.6,1116.5,134.8C1116.5,134.8,1116.5,134.7,1116.5,134.8L1116.5,134.8z"/>
</svg>
