<?xml version="1.0" encoding="utf-8"?>
<!-- Generator: Adobe Illustrator 22.0.1, SVG Export Plug-In . SVG Version: 6.00 Build 0)  -->
<svg version="1.1" id="Layer_1" xmlns="http://www.w3.org/2000/svg" xmlns:xlink="http://www.w3.org/1999/xlink" x="0px" y="0px"
	 viewBox="0 0 1300 400" style="enable-background:new 0 0 1300 400;" xml:space="preserve">
<style type="text/css">
	.st0{fill:url(#SVGID_1_);stroke:#000000;stroke-width:1.6452;stroke-miterlimit:10;}
	.st1{fill:url(#SVGID_2_);}
	.st2{fill:url(#SVGID_3_);}
	.st3{fill:#E8BABA;}
	.st4{opacity:0.2;enable-background:new    ;}
</style>
<linearGradient id="SVGID_1_" gradientUnits="userSpaceOnUse" x1="2600" y1="201" x2="19928.2793" y2="201" gradientTransform="matrix(7.502187e-02 0 0 1 -195.0569 0)">
	<stop  offset="0" style="stop-color:#00354D"/>
	<stop  offset="0.4129" style="stop-color:#00364F"/>
	<stop  offset="0.5616" style="stop-color:#003C56"/>
	<stop  offset="0.6676" style="stop-color:#004561"/>
	<stop  offset="0.7534" style="stop-color:#005272"/>
	<stop  offset="0.8268" style="stop-color:#006388"/>
	<stop  offset="0.8918" style="stop-color:#0078A4"/>
	<stop  offset="0.9492" style="stop-color:#0091C3"/>
	<stop  offset="1" style="stop-color:#00ACE6"/>
	<stop  offset="1" style="stop-color:#0093C7"/>
	<stop  offset="1" style="stop-color:#0075A3"/>
	<stop  offset="1" style="stop-color:#005B83"/>
	<stop  offset="1" style="stop-color:#004567"/>
	<stop  offset="1" style="stop-color:#003351"/>
	<stop  offset="1" style="stop-color:#002540"/>
	<stop  offset="1" style="stop-color:#001B35"/>
	<stop  offset="1" style="stop-color:#00162E"/>
	<stop  offset="1" style="stop-color:#00142C"/>
</linearGradient>
<rect y="1" class="st0" width="1300" height="400"/>
<linearGradient id="SVGID_2_" gradientUnits="userSpaceOnUse" x1="-2258.5591" y1="60.4804" x2="-2258.5591" y2="206.9725" gradientTransform="matrix(-7.502187e-02 0 0 -1 10.0117 320.5804)">
	<stop  offset="0" style="stop-color:#808080;stop-opacity:0.25"/>
	<stop  offset="0.5351" style="stop-color:#808080;stop-opacity:0.12"/>
	<stop  offset="1" style="stop-color:#808080;stop-opacity:0.1"/>
</linearGradient>
<path class="st1" d="M164.7,199.3c6.4-13,1.3-24.2-7.6-32c-12.3-5.8-24.4-3.2-33.3,8.3c-5.9-3.4-13.2-4.2-19.3-2.8
	c-4.7-17.7-0.3-38.9,15.3-50.4c20.4-14.9,49-10.4,63.8,10c20.4-14.9,49-10.4,63.8,10c14.9,20.4,10.4,49-10,63.8l-73.8,53.9L144,233
	L164.7,199.3z"/>
<linearGradient id="SVGID_3_" gradientUnits="userSpaceOnUse" x1="-1568.0533" y1="80.7804" x2="-1568.0533" y2="154.6211" gradientTransform="matrix(-7.502187e-02 0 0 -1 10.0117 320.5804)">
	<stop  offset="0" style="stop-color:#808080;stop-opacity:0.25"/>
	<stop  offset="0.5351" style="stop-color:#808080;stop-opacity:0.12"/>
	<stop  offset="1" style="stop-color:#808080;stop-opacity:0.1"/>
</linearGradient>
<path class="st2" d="M123.5,177.3c6.4-10.9,20.3-14.6,31.3-8.2c10.9,6.4,14.6,20.3,8.2,31.3l0,0l-23.1,39.4l-39.4-23.1
	c-10.9-6.4-14.6-20.3-8.2-31.3C98.6,174.6,112.6,170.9,123.5,177.3z"/>
<path class="st3" d="M123.7,178c6.1-10.4,19.4-13.9,29.8-7.8c10.3,6.1,13.9,19.4,7.8,29.8l-22,37.6l-37.6-22
	c-10.4-6.1-13.9-19.4-7.8-29.8C99.9,175.4,113.3,172,123.7,178z"/>
<path class="st4" d="M102.1,215.9c-10.4-6.1-13.9-19.4-7.8-29.8c6-10.3,19.3-13.9,29.7-7.9L102.3,216L102.1,215.9z"/>
<path class="st3" d="M106,171.8c6-1.4,12.4-0.4,17.7,2.7c6.8-11.6,21.8-15.5,33.4-8.7s15.5,21.8,8.7,33.4l-19.4,33.2l18,24.7
	l36.9-26.9l-3.1-1.8c-13.2-7.7-17.7-24.8-9.9-38c7-12,22-17,34.8-11.5c1.1,0.4,2.1,1,3.2,1.6c5.4-9.3,15.9-14.7,26.6-13.7
	c-0.2-2.2-0.5-4.4-1-6.5c-0.1-0.3-0.1-0.5-0.2-0.7c-0.3-0.9-0.5-1.9-0.8-2.8c0-0.1-0.1-0.2-0.1-0.3c-0.2-0.4-0.3-0.8-0.4-1.3
	c-0.2-0.5-0.3-0.9-0.5-1.4c-0.1-0.3-0.2-0.4-0.3-0.7c-0.1-0.3-0.2-0.4-0.3-0.7l0,0c-0.1-0.3-0.2-0.4-0.3-0.7v-0.1
	c-0.1-0.2-0.2-0.4-0.3-0.6c-0.1-0.3-0.3-0.4-0.3-0.7c-0.3-0.5-0.5-0.9-0.8-1.4c-0.1-0.2-0.2-0.3-0.3-0.5c-0.1-0.2-0.3-0.4-0.3-0.6
	c-0.1-0.1-0.1-0.2-0.2-0.3c-0.3-0.5-0.7-1.1-1-1.6c-0.1-0.1-0.2-0.3-0.3-0.3c-0.1-0.2-0.3-0.3-0.3-0.5c-0.2-0.2-0.3-0.4-0.4-0.6
	c-14.2-19.5-41.5-23.8-61-9.6c-14.2-19.5-41.5-23.8-61-9.6C107.9,135.8,101.3,154.3,106,171.8z"/>
<path class="st3" d="M228.7,184.3c6.9-11.7,22-15.7,33.7-8.8s15.7,22,8.8,33.7l-24.8,42.5l-42.5-24.8c-11.7-6.9-15.7-22-8.8-33.7
	C201.9,181.4,217,177.4,228.7,184.3L228.7,184.3z"/>
<path class="st4" d="M183.5,134.8l39.6,43.9c1.1,0.4,2.1,1,3.2,1.6c5.4-9.3,15.9-14.7,26.6-13.7c-0.2-2.2-0.5-4.4-1-6.5
	c-0.1-0.3-0.1-0.5-0.2-0.7c-0.3-0.9-0.5-1.9-0.8-2.8c0-0.1-0.1-0.2-0.1-0.3c-0.2-0.4-0.3-0.8-0.4-1.3c-0.2-0.5-0.3-0.9-0.5-1.4
	c-0.1-0.3-0.2-0.4-0.3-0.7c-0.1-0.3-0.2-0.4-0.3-0.7l0,0c-0.1-0.3-0.2-0.4-0.3-0.7v-0.1c-0.1-0.2-0.2-0.4-0.3-0.6
	c-0.1-0.3-0.3-0.4-0.3-0.7c-0.3-0.5-0.5-0.9-0.8-1.4c-0.1-0.2-0.2-0.3-0.3-0.5c-0.1-0.2-0.3-0.4-0.3-0.6c-0.1-0.1-0.1-0.2-0.2-0.3
	c-0.3-0.5-0.7-1.1-1-1.6c-0.1-0.1-0.2-0.3-0.3-0.3c-0.1-0.2-0.3-0.3-0.3-0.5c-0.2-0.2-0.3-0.4-0.4-0.6
	C230.3,124.8,203,120.6,183.5,134.8C183.5,134.8,183.5,134.7,183.5,134.8L183.5,134.8z"/>
</svg>
