<?xml version="1.0" encoding="utf-8"?>
<!-- Generator: Adobe Illustrator 22.0.1, SVG Export Plug-In . SVG Version: 6.00 Build 0)  -->
<svg version="1.1" id="Layer_1" xmlns="http://www.w3.org/2000/svg" xmlns:xlink="http://www.w3.org/1999/xlink" x="0px" y="0px"
	 viewBox="0 0 1300 400" style="enable-background:new 0 0 1300 400;" xml:space="preserve">
<style type="text/css">
	.st0{opacity:5.000000e-02;fill:#020202;enable-background:new    ;}
	.st1{fill:url(#SVGID_1_);stroke:#000000;stroke-width:1.6452;stroke-miterlimit:10;}
	.st2{fill:url(#SVGID_2_);}
	.st3{fill:url(#SVGID_3_);}
	.st4{fill:#E53935;}
	.st5{opacity:0.2;enable-background:new    ;}
</style>
<ellipse class="st0" cx="1404.9" cy="1082.5" rx="8.3" ry="1.7"/>
<linearGradient id="SVGID_1_" gradientUnits="userSpaceOnUse" x1="0" y1="100" x2="1300" y2="100" gradientTransform="matrix(1 0 0 -1 0 300)">
	<stop  offset="0" style="stop-color:#489DD7"/>
	<stop  offset="1" style="stop-color:#C8D3D1"/>
	<stop  offset="1" style="stop-color:#457FC1"/>
</linearGradient>
<rect class="st1" width="1300" height="400"/>
<linearGradient id="SVGID_2_" gradientUnits="userSpaceOnUse" x1="1266.8082" y1="342.0865" x2="1266.8082" y2="186.2592" gradientTransform="matrix(1 0 0 1 -133.4507 -79.4196)">
	<stop  offset="0" style="stop-color:#808080;stop-opacity:0.25"/>
	<stop  offset="0.5351" style="stop-color:#808080;stop-opacity:0.12"/>
	<stop  offset="1" style="stop-color:#808080;stop-opacity:0.1"/>
</linearGradient>
<path class="st2" d="M1149,198c-6.8-13.8-1.4-25.7,8.1-34.1c13.1-6.1,26-3.4,35.4,8.8c6.2-3.6,14.1-4.4,20.5-3
	c5-18.8,0.4-41.4-16.3-53.5c-21.7-15.9-52.1-11.1-67.9,10.6c-21.7-15.9-52.1-11.1-67.9,10.6c-15.9,21.7-11.1,52.1,10.6,67.9
	l78.5,57.3l20.8-28.8L1149,198z"/>
<linearGradient id="SVGID_3_" gradientUnits="userSpaceOnUse" x1="1321.8765" y1="320.4551" x2="1321.8765" y2="241.9647" gradientTransform="matrix(1 0 0 1 -133.4507 -79.4196)">
	<stop  offset="0" style="stop-color:#808080;stop-opacity:0.25"/>
	<stop  offset="0.5351" style="stop-color:#808080;stop-opacity:0.12"/>
	<stop  offset="1" style="stop-color:#808080;stop-opacity:0.1"/>
</linearGradient>
<path class="st3" d="M1192.8,174.6c-6.8-11.6-21.6-15.5-33.3-8.7c-11.6,6.8-15.5,21.6-8.7,33.3l0,0l24.5,41.9l41.9-24.5
	c11.6-6.8,15.5-21.6,8.7-33.3C1219.3,171.7,1204.5,167.8,1192.8,174.6z"/>
<path class="st4" d="M1192.7,175.3c-6.5-11.1-20.6-14.8-31.7-8.3c-11,6.5-14.8,20.6-8.3,31.6l23.3,40l40-23.3
	c11.1-6.5,14.8-20.6,8.3-31.7C1217.9,172.6,1203.7,168.9,1192.7,175.3z"/>
<path class="st5" d="M1215.6,215.6c11.1-6.5,14.8-20.6,8.3-31.7c-6.4-11-20.5-14.8-31.5-8.4l23.1,40.2L1215.6,215.6z"/>
<path class="st4" d="M1211.5,168.8c-6.4-1.4-13.2-0.5-18.8,2.9c-7.2-12.3-23.2-16.5-35.5-9.3s-16.5,23.2-9.3,35.5l20.6,35.2
	l-19.1,26.2l-39.2-28.6l3.3-1.9c14.1-8.2,18.8-26.3,10.5-40.4c-7.5-12.8-23.3-18-37-12.3c-1.2,0.5-2.3,1.1-3.4,1.7
	c-5.8-9.9-16.9-15.6-28.3-14.5c0.2-2.3,0.5-4.7,1.1-6.9c0.1-0.3,0.1-0.5,0.2-0.7c0.3-1,0.5-2,0.9-3c0-0.1,0.1-0.2,0.1-0.3
	c0.2-0.5,0.3-0.9,0.5-1.4c0.2-0.5,0.4-1,0.5-1.5c0.1-0.3,0.2-0.5,0.3-0.7c0.1-0.3,0.2-0.5,0.3-0.7l0,0c0.1-0.3,0.2-0.5,0.4-0.7v-0.1
	c0.1-0.2,0.2-0.5,0.3-0.6c0.1-0.3,0.3-0.5,0.4-0.7c0.3-0.5,0.5-1,0.8-1.5c0.1-0.2,0.2-0.4,0.3-0.5c0.1-0.2,0.3-0.5,0.4-0.6
	c0.1-0.1,0.1-0.2,0.2-0.3c0.4-0.5,0.7-1.2,1.1-1.7c0.1-0.1,0.2-0.3,0.3-0.4c0.1-0.2,0.3-0.4,0.4-0.5c0.2-0.2,0.3-0.5,0.5-0.6
	c15.1-20.7,44.2-25.3,64.9-10.2c15.1-20.7,44.2-25.3,64.9-10.2C1209.4,130.5,1216.5,150.2,1211.5,168.8z"/>
<path class="st4" d="M1081,182c-7.3-12.4-23.3-16.7-35.8-9.4c-12.4,7.3-16.7,23.3-9.4,35.8l26.4,45.2l45.2-26.4
	c12.4-7.3,16.7-23.3,9.4-35.8C1109.5,178.9,1093.4,174.7,1081,182L1081,182z"/>
<path class="st5" d="M1129.1,129.5l-42.1,46.7c-1.2,0.5-2.3,1.1-3.4,1.7c-5.8-9.9-16.9-15.6-28.3-14.5c0.2-2.3,0.5-4.7,1.1-6.9
	c0.1-0.3,0.1-0.5,0.2-0.7c0.3-1,0.5-2,0.9-3c0-0.1,0.1-0.2,0.1-0.3c0.2-0.5,0.3-0.9,0.5-1.4c0.2-0.5,0.4-1,0.5-1.5
	c0.1-0.3,0.2-0.5,0.3-0.7c0.1-0.3,0.2-0.5,0.3-0.7l0,0c0.1-0.3,0.2-0.5,0.4-0.7v-0.1c0.1-0.2,0.2-0.5,0.3-0.6
	c0.1-0.3,0.3-0.5,0.4-0.7c0.3-0.5,0.5-1,0.8-1.5c0.1-0.2,0.2-0.4,0.3-0.5c0.1-0.2,0.3-0.5,0.4-0.6c0.1-0.1,0.1-0.2,0.2-0.3
	c0.4-0.5,0.7-1.2,1.1-1.7c0.1-0.1,0.2-0.3,0.3-0.4c0.1-0.2,0.3-0.4,0.4-0.5c0.2-0.2,0.3-0.5,0.5-0.6
	C1079.3,118.8,1108.3,114.3,1129.1,129.5C1129,129.5,1129.1,129.4,1129.1,129.5L1129.1,129.5z"/>
</svg>
