<?xml version="1.0" encoding="utf-8"?>
<!-- Generator: Adobe Illustrator 22.0.1, SVG Export Plug-In . SVG Version: 6.00 Build 0)  -->
<svg version="1.1" id="Layer_1" xmlns="http://www.w3.org/2000/svg" xmlns:xlink="http://www.w3.org/1999/xlink" x="0px" y="0px"
	 viewBox="0 0 1300 400" style="enable-background:new 0 0 1300 400;" xml:space="preserve">
<style type="text/css">
	.st0{fill:url(#SVGID_1_);stroke:#000000;stroke-width:1.6452;stroke-miterlimit:10;}
	.st1{fill:url(#SVGID_2_);}
	.st2{fill:url(#SVGID_3_);}
	.st3{fill:#E53935;}
	.st4{opacity:0.2;enable-background:new    ;}
</style>
<linearGradient id="SVGID_1_" gradientUnits="userSpaceOnUse" x1="0" y1="300" x2="734.9452" y2="300" gradientTransform="matrix(-1.7688 0 0 1 1300 -100)">
	<stop  offset="0" style="stop-color:#489DD7"/>
	<stop  offset="1" style="stop-color:#C8D3D1"/>
	<stop  offset="1" style="stop-color:#457FC1"/>
</linearGradient>
<rect class="st0" width="1300" height="400"/>
<linearGradient id="SVGID_2_" gradientUnits="userSpaceOnUse" x1="774.1035" y1="57.9804" x2="774.1035" y2="213.7677" gradientTransform="matrix(-1.7688 0 0 -1 1536.0529 320.5804)">
	<stop  offset="0" style="stop-color:#808080;stop-opacity:0.25"/>
	<stop  offset="0.5351" style="stop-color:#808080;stop-opacity:0.12"/>
	<stop  offset="1" style="stop-color:#808080;stop-opacity:0.1"/>
</linearGradient>
<path class="st1" d="M151,198c6.8-13.8,1.4-25.7-8.1-34.1c-13.1-6.1-26-3.4-35.4,8.8c-6.2-3.6-14.1-4.4-20.5-3
	c-5-18.8-0.4-41.4,16.3-53.5c21.7-15.9,52.1-11.1,67.9,10.6c21.7-15.9,52.1-11.1,67.9,10.6c15.9,21.7,11.1,52.1-10.6,67.9L150,262.6
	l-20.8-28.8L151,198z"/>
<linearGradient id="SVGID_3_" gradientUnits="userSpaceOnUse" x1="805.2754" y1="79.4804" x2="805.2754" y2="158.0248" gradientTransform="matrix(-1.7688 0 0 -1 1536.0529 320.5804)">
	<stop  offset="0" style="stop-color:#808080;stop-opacity:0.25"/>
	<stop  offset="0.5351" style="stop-color:#808080;stop-opacity:0.12"/>
	<stop  offset="1" style="stop-color:#808080;stop-opacity:0.1"/>
</linearGradient>
<path class="st2" d="M107.2,174.6c6.8-11.6,21.6-15.5,33.3-8.7c11.6,6.8,15.5,21.6,8.7,33.3l0,0l-24.5,41.9l-41.9-24.5
	c-11.6-6.8-15.5-21.6-8.7-33.3C80.7,171.7,95.5,167.8,107.2,174.6z"/>
<path class="st3" d="M107.3,175.3c6.5-11.1,20.6-14.8,31.7-8.3c11,6.5,14.8,20.6,8.3,31.6l-23.3,40l-40-23.3
	c-11.1-6.5-14.8-20.6-8.3-31.7C82.1,172.6,96.3,168.9,107.3,175.3z"/>
<path class="st4" d="M84.4,215.6c-11.1-6.5-14.8-20.6-8.3-31.7c6.4-11,20.5-14.8,31.5-8.4l-23.1,40.2L84.4,215.6z"/>
<path class="st3" d="M88.5,168.8c6.4-1.4,13.2-0.5,18.8,2.9c7.2-12.3,23.2-16.5,35.5-9.3s16.5,23.2,9.3,35.5l-20.6,35.2l19.1,26.2
	l39.2-28.6l-3.3-1.9c-14.1-8.2-18.8-26.3-10.5-40.4c7.5-12.8,23.3-18,37-12.3c1.2,0.5,2.3,1.1,3.4,1.7c5.8-9.9,16.9-15.6,28.3-14.5
	c-0.2-2.3-0.5-4.7-1.1-6.9c-0.1-0.3-0.1-0.5-0.2-0.7c-0.3-1-0.5-2-0.9-3c0-0.1-0.1-0.2-0.1-0.3c-0.2-0.5-0.3-0.9-0.5-1.4
	s-0.4-1-0.5-1.5c-0.1-0.3-0.2-0.5-0.3-0.7c-0.1-0.3-0.2-0.5-0.3-0.7l0,0c-0.1-0.3-0.2-0.5-0.4-0.7v-0.1c-0.1-0.2-0.2-0.5-0.3-0.6
	c-0.1-0.3-0.3-0.5-0.4-0.7c-0.3-0.5-0.5-1-0.8-1.5c-0.1-0.2-0.2-0.4-0.3-0.5c-0.1-0.2-0.3-0.5-0.4-0.6s-0.1-0.2-0.2-0.3
	c-0.4-0.5-0.7-1.2-1.1-1.7c-0.1-0.1-0.2-0.3-0.3-0.4c-0.1-0.2-0.3-0.4-0.4-0.5c-0.2-0.2-0.3-0.5-0.5-0.6
	c-15.1-20.7-44.2-25.3-64.9-10.2c-15.1-20.7-44.2-25.3-64.9-10.2C90.6,130.5,83.5,150.2,88.5,168.8z"/>
<path class="st3" d="M219,182c7.3-12.4,23.3-16.7,35.8-9.4c12.4,7.3,16.7,23.3,9.4,35.8l-26.4,45.2l-45.2-26.4
	c-12.4-7.3-16.7-23.3-9.4-35.8C190.5,178.9,206.6,174.7,219,182L219,182z"/>
<path class="st4" d="M170.9,129.5l42.1,46.7c1.2,0.5,2.3,1.1,3.4,1.7c5.8-9.9,16.9-15.6,28.3-14.5c-0.2-2.3-0.5-4.7-1.1-6.9
	c-0.1-0.3-0.1-0.5-0.2-0.7c-0.3-1-0.5-2-0.9-3c0-0.1-0.1-0.2-0.1-0.3c-0.2-0.5-0.3-0.9-0.5-1.4s-0.4-1-0.5-1.5
	c-0.1-0.3-0.2-0.5-0.3-0.7c-0.1-0.3-0.2-0.5-0.3-0.7l0,0c-0.1-0.3-0.2-0.5-0.4-0.7v-0.1c-0.1-0.2-0.2-0.5-0.3-0.6
	c-0.1-0.3-0.3-0.5-0.4-0.7c-0.3-0.5-0.5-1-0.8-1.5c-0.1-0.2-0.2-0.4-0.3-0.5c-0.1-0.2-0.3-0.5-0.4-0.6s-0.1-0.2-0.2-0.3
	c-0.4-0.5-0.7-1.2-1.1-1.7c-0.1-0.1-0.2-0.3-0.3-0.4c-0.1-0.2-0.3-0.4-0.4-0.5c-0.2-0.2-0.3-0.5-0.5-0.6
	C220.7,118.8,191.7,114.3,170.9,129.5C171,129.5,170.9,129.4,170.9,129.5L170.9,129.5z"/>
</svg>
