<?xml version="1.0" encoding="utf-8"?>
<!-- Generator: Adobe Illustrator 22.0.1, SVG Export Plug-In . SVG Version: 6.00 Build 0)  -->
<svg version="1.1" id="a816e8d7-4997-4ebd-a7b7-7af2120ae04f"
	 xmlns="http://www.w3.org/2000/svg" xmlns:xlink="http://www.w3.org/1999/xlink" x="0px" y="0px" viewBox="0 0 940.5 744.2"
	 style="enable-background:new 0 0 940.5 744.2;" xml:space="preserve">
<style type="text/css">
	.st0{fill:#F2F2F2;}
	.st1{fill:none;stroke:#3F3D56;stroke-miterlimit:10;}
	.st2{fill:none;stroke:#2F2E41;stroke-miterlimit:10;}
	.st3{fill:#0D8CD8;}
	.st4{fill:#2F2E41;}
	.st5{fill:#FFB8B8;}
	.st6{fill:#3F3D56;}
	.st7{fill:#260303;}
</style>
<title>creative woman</title>
<ellipse class="st0" cx="399" cy="334" rx="399" ry="296.2"/>
<ellipse class="st1" cx="431.5" cy="296.7" rx="399" ry="296.2"/>
<path class="st2" d="M162.6,169.1c12.4-2.2,25.2,0,36.2,6.2c5.7,3.2,11.1,7.9,12.7,14.3s-2,14.3-8.5,15.2c-9.6,1.4-14.5-13.5-8-20.7
	s17.8-7.3,27.1-4.7c17,4.7,31.2,15.9,46.2,25.2c73.9,45.9,166.9,45.7,253.5,36.7c8.9-0.9,18.4-2.2,25.1-8.1s8.5-18.1,1.2-23.2
	c-7.2-5-18.3,1-20,9.6s4.1,17.3,11.8,21.6s16.8,4.9,25.5,4.8c37.4-0.4,73.9-12.9,106.5-31.2c11-6.2,22.4-14.1,25.8-26.3
	s-7-27.9-19.2-24.7c-8,2.1-12.3,11-13,19.2c-0.4,6.6,0.7,13.2,3.2,19.3c4.3,10.7,12.1,19.5,19.2,28.5c38.5,49.7,57.7,111.7,54,174.5
	c-1.6,25.8-10.7,55.6-35.1,63.9c-10,3.4-20.9,2.5-31.2,0.3c-8.6-1.8-18.8-6.3-19.1-15.1c-0.2-6.2,5-11.5,10.9-13.3
	c14.9-4.7,31.1,10.2,30.9,25.9s-13.1,29.1-28,34s-31.2,2.6-46.3-1.7c-49-14.2-89.8-49.5-138.9-63.1c-57.8-16-120.1,0.1-173.9,26.5"
	/>
<path class="st3" d="M802.2,619.5c10.8,3.9,22.7-1.6,26.7-12.4c3.9-10.8-1.6-22.7-12.4-26.7c-3.7-1.3-7.6-1.6-11.5-0.8l0.5,10.7
	l-5.1-9.2c-5,2.3-8.8,6.6-10.7,11.7c-0.7,1.8-1.1,3.7-1.2,5.6C787.9,607.7,793.5,616.3,802.2,619.5z"/>
<path class="st1" d="M827.3,743.7c-1.8-9.1,6-17.2,13.6-22.4s16.6-10.4,19.2-19.3c3.8-12.8-7.4-24.5-16.1-34.6
	c-6.5-7.5-12-15.7-16.5-24.6c-1.8-3.5-3.5-7.2-4-11.2c-0.7-5.7,1.1-11.3,3-16.7c6.1-18,12.7-35.9,19.6-53.7"/>
<path class="st1" d="M803.1,616.7c10.8,3.9,22.7-1.6,26.7-12.4c3.9-10.8-1.6-22.7-12.4-26.7c-3.7-1.3-7.6-1.6-11.5-0.8l0.5,10.7
	l-5.1-9.2c-5,2.3-8.8,6.6-10.7,11.7c-0.7,1.8-1.1,3.7-1.2,5.6C788.7,604.9,794.3,613.5,803.1,616.7z"/>
<path class="st3" d="M824.7,557.5c2.4-6.7,8.1-11.6,15-13.2l1.7,10.2l3.2-10.7c11.5,0.2,20.7,9.6,20.5,21.1
	c-0.2,11.5-9.6,20.7-21.1,20.5c-11.5-0.2-20.7-9.6-20.5-21.1C823.5,562,823.9,559.7,824.7,557.5L824.7,557.5z"/>
<path class="st1" d="M825.9,553.8c2.4-6.7,8.1-11.6,15-13.2l1.7,10.2l3.2-10.7c11.5,0.2,20.7,9.6,20.5,21.1
	c-0.2,11.5-9.6,20.7-21.1,20.5c-11.5-0.2-20.7-9.6-20.5-21.1C824.7,558.3,825.1,556,825.9,553.8z"/>
<path class="st3" d="M840.3,667.5c10.8,3.9,22.7-1.7,26.7-12.5c3.3-9.1-0.1-19.3-8.2-24.6l-2.4,8.2l-1.7-10.3c0,0,0,0-0.1,0
	c-10.8-3.9-22.7,1.6-26.7,12.4C823.9,651.6,829.5,663.6,840.3,667.5C840.3,667.5,840.3,667.5,840.3,667.5L840.3,667.5z"/>
<path class="st1" d="M841.3,663.8c10.8,3.9,22.7-1.7,26.7-12.5c3.3-9.1-0.1-19.3-8.2-24.6l-2.4,8.2l-1.7-10.3c0,0,0,0-0.1,0
	c-10.8-3.9-22.7,1.6-26.7,12.4C824.9,647.9,830.5,659.8,841.3,663.8C841.3,663.8,841.3,663.8,841.3,663.8z"/>
<path class="st3" d="M818.7,702.1c2,11.3,12.8,18.9,24.1,16.9s18.9-12.8,16.9-24.1c-2-11.3-12.8-18.9-24.1-16.9
	c-5.1,0.9-9.7,3.7-12.9,7.8l9.3,14l-12.7-7.4C818.3,695.5,818.1,698.8,818.7,702.1z"/>
<path class="st1" d="M819.5,699.3c2,11.3,12.8,18.9,24.1,16.9s18.9-12.8,16.9-24.1c-2-11.3-12.8-18.9-24.1-16.9
	c-5.1,0.9-9.7,3.7-12.9,7.8l9.3,14l-12.7-7.4C819.1,692.7,818.9,696.1,819.5,699.3z"/>
<line class="st2" x1="346" y1="743.5" x2="940.5" y2="743.5"/>
<path class="st3" d="M678.7,148.7l38.9-7.2c0,0,4.1-0.8,4.8,2l-44.8,12.9l-0.9-6.2L678.7,148.7z"/>
<path class="st4" d="M680.3,148.4c-13.9,0.2-11.2,4.9-12.9,8.1s-15.1,3.5-15.1,3.5l0,0c-5.6,0.1-10,4.7-9.9,10.3s4.7,10,10.3,9.9
	c5.3-0.1,9.6-4.3,9.8-9.6c0-1-0.1-1.9-0.3-2.8c-1.2-9,16.7-11,16.7-11l-0.7-3.2C678.1,151.6,678.8,149.6,680.3,148.4z M652.7,176.5
	c-3.9,0-7-3.2-7-7c0-3.9,3.2-7,7-7c3.9,0,7,3.2,7,7c0,0,0,0,0,0C659.7,173.3,656.6,176.5,652.7,176.5z"/>
<path class="st3" d="M679.9,156.7l39.5,2.8c0,0,4.2,0.4,4.6-2.5l-46.6-8.2l0.4,6.6L679.9,156.7z"/>
<path class="st4" d="M679.1,152l0.3-3.2c0,0-18-0.1-17.8-9.1c0.1-0.9,0.1-1.9,0-2.8c-0.8-5.6-5.9-9.5-11.5-8.8
	c-5.6,0.8-9.5,5.9-8.8,11.5c0.8,5.5,5.8,9.4,11.3,8.8l0,0c0,0,13.4-1.2,15.4,1.8c2,3-0.1,8,13.7,6.6C680,155.8,679,153.9,679.1,152z
	 M658.8,138.2c0.4,3.9-2.3,7.3-6.2,7.8s-7.3-2.3-7.8-6.2c-0.4-3.9,2.3-7.3,6.2-7.8l0,0C654.9,131.6,658.4,134.4,658.8,138.2z"/>
<path class="st5" d="M502.7,693.2c-8.7,1.6-7.1,4.7-7.1,4.7l2.8,5.5l-7.1-37.9l16.6-0.4l4.7,34.3
	C510.1,698.1,507.2,692.4,502.7,693.2z"/>
<path class="st4" d="M491.8,696.3l3.8-1.5c0,0-1.6-3.2,7.1-4.7c3.7-0.7,7.4,0,10.6,1.9l3.2,17.4c0,0,15,23.7-3.9,23.7
	c-18.9,0-19.7-5.5-19.7-5.5v-6.3c0,0-4.7,2.4-5.5-3.9s4.7-19.7,4.7-19.7L491.8,696.3z"/>
<path class="st5" d="M389.9,693.2c8.7,1.6,7.1,4.7,7.1,4.7l-2.8,5.5l7.1-33.9l-16.6-4.3l-4.7,34.3
	C382.5,698.1,385.4,692.4,389.9,693.2z"/>
<circle class="st5" cx="469.6" cy="284.8" r="24.1"/>
<path class="st5" d="M458.5,302.2c0,0,3.9,17.4-10.3,23.7s46.6,7.9,46.6,7.9s-15-16.6-11-33.9L458.5,302.2z"/>
<path class="st3" d="M453,322.7l-30.8,6.3l7.1,46.6c0,0,9.5,21.3,3.9,30s1.6,11.8,1.6,11.8l71,3.9c0,0,7.9-3.9,6.3-7.9
	c-1.6-3.9-0.4-34.3-0.4-34.3s0-3.2,2-13l-0.4-32l-21.1-3.6C492.3,330.6,480.6,335.3,453,322.7z"/>
<path class="st4" d="M434.9,415l-39.5,165.7l-22.9,82.1l51.3,16.6c0,0,49.7-146,46.6-176.8l-1.6,176.8l55.2-3.2
	c0,0,13.4-232.8-18.1-259.6L434.9,415z"/>
<path class="st5" d="M407.2,358.2l-15,48.9c-0.9,3.5-0.3,7.2,1.6,10.3c2.6,4.5,22.7,33.8,30.3,44.8c1.1,1.6,3.3,2,4.9,0.9
	c0.3-0.2,0.6-0.5,0.9-0.9l9.7-14c0,0,9.5,5.5,11.8,3.2c0.9-0.9-1-2.7-3.7-4.5c-6.1-4.2-13.2-6.7-20.6-7.3l-0.1,0l-16.6-29.2l16.6-41
	L407.2,358.2z"/>
<path class="st3" d="M428.6,331.4l-2.8-3.1l-3.5,0.7c0,0-7.1,2.4-11,13.4s-16.6,35.5-16.6,35.5l23.7,14.2l15-32.4L428.6,331.4z"/>
<path class="st5" d="M531.5,362.6l16.2,47.7c0.9,3.5,0.3,7.2-1.6,10.3c-2.6,4.5-22.7,33.8-30.3,44.8c-1.1,1.6-3.3,2-4.9,0.9
	c-0.3-0.2-0.6-0.5-0.9-0.9l-9.7-14c0,0-9.5,5.5-11.8,3.2c-0.9-0.9,1-2.7,3.7-4.5c6.1-4.2,13.2-6.7,20.6-7.3l0.1,0l16.6-29.2
	l-16.6-41L531.5,362.6z"/>
<path class="st3" d="M509,336.9l2.8-3.1l3.5,0.7c0,0,7.1,2.4,11,13.4c3.9,11,17.8,35.9,17.8,35.9l-23.7,10.3l-13.4-30L509,336.9z"/>
<path class="st4" d="M469.4,254c0,0-24.7-4.4-29.1,17.6c-1.1,5.1-1.8,10.3-2.1,15.5c-0.7,12.8-4.2,25.2-10.3,36.5l0,0l39.7,11.5
	c0,0-10.6-16.7-8.8-23.8c0.3-1.8,0.3-3.6-0.1-5.3c-9.9-6.1-13-19.2-6.9-29.1c6.1-9.9,19.2-13,29.1-6.9c9.9,6.1,13,19.2,6.9,29.1
	c-2.7,4.3-6.8,7.6-11.7,9.1c-3,6.4-4.6,13.4-0.6,18.1c5,6.2,11,11.5,17.6,15.9c0,0-4.4-21.2,2.6-33.5S495.8,255.8,469.4,254z"/>
<polygon class="st4" points="491.3,282.3 449.9,284.7 448.8,265.3 484.8,264 "/>
<path class="st4" d="M400.8,696.3l-3.8-1.5c0,0,1.6-3.2-7.1-4.7c-3.7-0.7-7.4,0-10.6,1.9l-3.2,17.4c0,0-15,23.7,3.9,23.7
	s19.7-5.5,19.7-5.5v-6.3c0,0,4.7,2.4,5.5-3.9s-4.7-19.7-4.7-19.7L400.8,696.3z"/>
<path class="st6" d="M307.5,425.4c0,0-10,9.4-7.8,17.1l-10.9,11.7c0,0-7.4,49.6-14.5,53.5c0,0-18.9-0.1-43.9-25.7l36.4-41.4l8.4-21
	l7.2-8.2l5.7,2.2c0,0-9.4,10.5-4.4,15.4c5,4.9,18.7-7.8,18.7-7.8L307.5,425.4z"/>
<path class="st7" d="M157.3,147.7c-1.4-1.9-3.9-3-6.3-3.5c0.1-0.2-7.3-1.9-7.4-1.6l-2.8-2.5l-8.5,4.9l-4.8-3.6l-2.2,0.9
	c0.1-0.4-6.9,0.9-6.9,0.9c-1.3,0.1-3,0.1-4.9,0.3c-6.7,0.6-7.2,19.8-7.2,19.8c3.1-1.4,6.3-2.2,9.7-2.3l1.8,56.4
	c9.3-0.9,19,0.1,29.1,2.7l4.7-51.5l11-4.8C162.6,163.9,160.7,152.3,157.3,147.7z"/>
</svg>
