<?xml version="1.0" encoding="utf-8"?>
<!-- Generator: Adobe Illustrator 22.0.1, SVG Export Plug-In . SVG Version: 6.00 Build 0)  -->
<svg version="1.1" id="b788e214-8c62-4533-b5b0-3b3e1bf4c8d8"
	 xmlns="http://www.w3.org/2000/svg" xmlns:xlink="http://www.w3.org/1999/xlink" x="0px" y="0px" viewBox="0 0 1161.5 792.3"
	 style="enable-background:new 0 0 1161.5 792.3;" xml:space="preserve">
<style type="text/css">
	.st0{fill:#3F3D56;}
	.st1{fill:#F2F2F2;}
	.st2{fill:#CCCCCC;}
	.st3{fill:#358CC5;}
	.st4{fill:#E6E6E6;}
	.st5{fill:#D0CDE1;}
	.st6{fill:#FFB9B9;}
	.st7{fill:#2F2E41;}
	.st8{opacity:0.15;enable-background:new    ;}
</style>
<title>file_sync</title>
<path class="st0" d="M565.4,39.7H564v-2.4h1c0.4,0,0.7-0.3,0.7-0.7V24.6c0-0.4-0.3-0.7-0.7-0.7h-1V17c0-8.1-6.6-14.7-14.7-14.7
	c0,0,0,0,0,0h-1.5V0.7c0-0.4-0.3-0.7-0.7-0.7h-12.1c-0.4,0-0.7,0.3-0.7,0.7v1.7H315.6c-8.1,0-14.7,6.6-14.7,14.7c0,0,0,0,0,0v311.8
	c0,8.1,6.6,14.7,14.7,14.7c0,0,0,0,0,0h233.8c8.1,0,14.7-6.6,14.7-14.7c0,0,0,0,0,0V53.2h1.3c0.4,0,0.7-0.3,0.7-0.7V40.4
	C566.1,40,565.8,39.7,565.4,39.7L565.4,39.7z"/>
<rect x="313.1" y="11.9" class="st1" width="240.9" height="319.6"/>
<rect y="668" class="st0" width="1161.5" height="2"/>
<path class="st0" d="M867,106.3h-1.5V65.5c0-13-10.6-23.6-23.6-23.6c0,0,0,0,0,0h-86.5c-13,0-23.6,10.6-23.6,23.6c0,0,0,0,0,0v223.9
	c0,13,10.6,23.6,23.6,23.6c0,0,0,0,0,0h86.5c13,0,23.6-10.6,23.6-23.6c0,0,0,0,0,0v-154h1.5V106.3z"/>
<path class="st1" d="M860.5,66.9v223.5c0,9.7-7.9,17.6-17.6,17.6H756c-9.7,0-17.6-7.9-17.6-17.6V66.9c0-9.7,7.9-17.6,17.6-17.6h10.5
	c-1.7,4.3,0.3,9.2,4.6,10.9c1,0.4,2.1,0.6,3.2,0.6h49.5c4.6,0,8.4-3.8,8.4-8.4c0-1.1-0.2-2.2-0.6-3.2h11.3
	C852.6,49.3,860.5,57.2,860.5,66.9z"/>
<rect x="774.3" y="79" class="st2" width="73.4" height="2.7"/>
<rect x="774.3" y="87.6" class="st2" width="73.4" height="2.7"/>
<rect x="774.3" y="96.3" class="st2" width="73.4" height="2.7"/>
<rect x="751.1" y="80.7" class="st2" width="16.6" height="16.6"/>
<rect x="774.3" y="273" class="st2" width="73.4" height="2.7"/>
<rect x="774.3" y="281.6" class="st2" width="73.4" height="2.7"/>
<rect x="774.3" y="290.3" class="st2" width="73.4" height="2.7"/>
<rect x="751.1" y="274.7" class="st2" width="16.6" height="16.6"/>
<path class="st0" d="M839.9,380.6H631.2v-4.3h-94.6v4.3H327c-7.8,0-14.1,6.3-14.1,14.1v0v285.8c0,7.8,6.3,14.1,14.1,14.1h512.9
	c7.8,0,14.1-6.3,14.1-14.1V394.7C854,386.9,847.7,380.6,839.9,380.6z"/>
<rect x="331.8" y="405.5" class="st1" width="503.3" height="283.9"/>
<circle class="st3" cx="583" cy="392.6" r="5.2"/>
<path class="st0" d="M868.2,684.3H819v-3.5c0-0.4-0.3-0.7-0.7-0.7l0,0h-16.8c-0.4,0-0.7,0.3-0.7,0.7l0,0v3.5h-10.5v-3.5
	c0-0.4-0.3-0.7-0.7-0.7l0,0h-16.8c-0.4,0-0.7,0.3-0.7,0.7l0,0v3.5h-10.5v-3.5c0-0.4-0.3-0.7-0.7-0.7l0,0H744c-0.4,0-0.7,0.3-0.7,0.7
	l0,0v3.5h-10.5v-3.5c0-0.4-0.3-0.7-0.7-0.7l0,0h-16.8c-0.4,0-0.7,0.3-0.7,0.7l0,0v3.5H704v-3.5c0-0.4-0.3-0.7-0.7-0.7l0,0h-16.8
	c-0.4,0-0.7,0.3-0.7,0.7l0,0v3.5h-10.5v-3.5c0-0.4-0.3-0.7-0.7-0.7l0,0h-16.8c-0.4,0-0.7,0.3-0.7,0.7l0,0v3.5h-10.5v-3.5
	c0-0.4-0.3-0.7-0.7-0.7l0,0H513.8c-0.4,0-0.7,0.3-0.7,0.7l0,0v3.5h-10.5v-3.5c0-0.4-0.3-0.7-0.7-0.7l0,0H485c-0.4,0-0.7,0.3-0.7,0.7
	v0v3.5h-10.5v-3.5c0-0.4-0.3-0.7-0.7-0.7h0h-16.8c-0.4,0-0.7,0.3-0.7,0.7l0,0v3.5H445v-3.5c0-0.4-0.3-0.7-0.7-0.7c0,0,0,0,0,0h-16.8
	c-0.4,0-0.7,0.3-0.7,0.7l0,0v3.5h-10.5v-3.5c0-0.4-0.3-0.7-0.7-0.7c0,0,0,0,0,0h-16.8c-0.4,0-0.7,0.3-0.7,0.7l0,0v3.5h-10.5v-3.5
	c0-0.4-0.3-0.7-0.7-0.7c0,0,0,0,0,0h-16.8c-0.4,0-0.7,0.3-0.7,0.7l0,0v3.5h-10.5v-3.5c0-0.4-0.3-0.7-0.7-0.7c0,0,0,0,0,0h-16.8
	c-0.4,0-0.7,0.3-0.7,0.7v0v3.5h-32.3c-9.3,0-16.8,7.5-16.8,16.8v7.6c0,9.3,7.5,16.8,16.8,16.8h560c9.3,0,16.8-7.5,16.8-16.8v-7.6
	C885,691.8,877.5,684.3,868.2,684.3C868.2,684.3,868.2,684.3,868.2,684.3z"/>
<rect x="534.8" y="427.8" class="st4" width="141.2" height="5.2"/>
<rect x="534.8" y="444.4" class="st4" width="141.2" height="5.2"/>
<rect x="534.8" y="461" class="st4" width="141.2" height="5.2"/>
<rect x="534.8" y="427.8" class="st2" width="141.2" height="5.2"/>
<rect x="534.8" y="444.4" class="st2" width="141.2" height="5.2"/>
<rect x="534.8" y="461" class="st2" width="141.2" height="5.2"/>
<rect x="490" y="431" class="st2" width="32" height="32"/>
<rect x="534.8" y="614.8" class="st2" width="141.2" height="5.2"/>
<rect x="534.8" y="631.4" class="st2" width="141.2" height="5.2"/>
<rect x="534.8" y="648" class="st2" width="141.2" height="5.2"/>
<rect x="490" y="618" class="st2" width="32" height="32"/>
<path class="st0" d="M924.3,309c-8.3-9-19.5-14.9-31.6-16.7l5.2-4.7l-5.8-0.3l-7.1,6.4l6.4,7.1l5.8,0.3l-4.3-4.8
	c26.9,4.3,45.2,29.7,40.9,56.6c-3.9,23.9-24.5,41.5-48.7,41.5v4c29.5,0,53.4-23.9,53.4-53.4C938.4,331.8,933.3,318.9,924.3,309z"/>
<path class="st0" d="M233.7,309c8.3-9,19.5-14.9,31.6-16.7l-5.2-4.7l5.8-0.3l7.1,6.4l-6.4,7.1l-5.8,0.3l4.3-4.8
	c-26.9,4.3-45.2,29.7-40.9,56.6c3.9,23.9,24.5,41.5,48.7,41.5v4c-29.5,0-53.4-23.9-53.4-53.4C219.6,331.8,224.7,318.9,233.7,309z"/>
<rect x="385.3" y="27.8" class="st2" width="141.2" height="5.2"/>
<rect x="385.3" y="44.4" class="st2" width="141.2" height="5.2"/>
<rect x="385.3" y="61" class="st2" width="141.2" height="5.2"/>
<rect x="340.5" y="31" class="st2" width="32" height="32"/>
<rect x="384.8" y="276.8" class="st2" width="141.2" height="5.2"/>
<rect x="384.8" y="293.4" class="st2" width="141.2" height="5.2"/>
<rect x="384.8" y="310" class="st2" width="141.2" height="5.2"/>
<rect x="340" y="280" class="st2" width="32" height="32"/>
<circle class="st3" cx="375.9" cy="174" r="23.9"/>
<circle class="st3" cx="439.5" cy="174" r="19.5"/>
<circle class="st3" cx="503.1" cy="174" r="11.9"/>
<circle class="st3" cx="769" cy="177" r="12.5"/>
<circle class="st3" cx="802.4" cy="177" r="10"/>
<circle class="st3" cx="835.8" cy="177" r="6.5"/>
<circle class="st3" cx="583" cy="538" r="56"/>
<polygon class="st5" points="603.8,550.3 582.9,508.2 562.2,550.4 573.9,550.4 573.9,567.9 592.1,567.9 592.1,550.4 "/>
<path class="st3" d="M129.9,531.9c23.2,69.8,15,135.3,15,135.3S99.2,619.5,76,549.8S61,414.5,61,414.5S106.7,462.1,129.9,531.9z"/>
<path class="st3" d="M159.9,531.9c-23.2,69.8-15,135.3-15,135.3s45.7-47.6,68.9-117.4s15-135.3,15-135.3S183.1,462.1,159.9,531.9z"
	/>
<path class="st0" d="M169.3,532.6c1.6,73.5-25.6,133.7-25.6,133.7s-29.6-59-31.2-132.5s25.6-133.7,25.6-133.7
	S167.7,459.1,169.3,532.6z"/>
<ellipse class="st0" cx="143.7" cy="667.1" rx="65.5" ry="3.6"/>
<circle class="st3" cx="140.9" cy="467.7" r="7.2"/>
<circle class="st3" cx="126.9" cy="525.2" r="4"/>
<ellipse transform="matrix(1.162553e-02 -0.9999 0.9999 1.162553e-02 -408.3888 558.1595)" class="st0" cx="78.1" cy="485.7" rx="4" ry="4"/>
<circle class="st0" cx="219.2" cy="446.9" r="4"/>
<circle class="st0" cx="98.9" cy="523.2" r="4"/>
<circle class="st0" cx="182.9" cy="500.1" r="4"/>
<circle class="st0" cx="101.3" cy="582" r="4"/>
<circle class="st0" cx="186.9" cy="559.2" r="4"/>
<circle class="st3" cx="148.1" cy="563.2" r="4"/>
<polygon class="st6" points="1098.3,690 1106.8,716.9 1080.6,719.2 1083,690 "/>
<polygon class="st6" points="971.4,710.8 971.4,747.7 941.4,747.7 949.8,710.8 "/>
<path class="st7" d="M1078.3,442.2l12.3,117c0,0,15.4,103.1,12.3,119.3s0.8,18.5,0.8,18.5h-23.1c0,0,0.8-10-3.8-14.6
	s-2.3-18.5-2.3-18.5L1016,485.3l-33.1,100c0,0-5.4,110-6.2,111.6s-3.1,22.3-3.1,22.3h-28.5c0,0,3.8-12.3-1.5-16.2s-10-0.8-5.4-7.7
	s6.2-15.4,4.6-19.2s-1.5-19.2-1.5-19.2s2.3-207.7,15.4-214.7S1078.3,442.2,1078.3,442.2z"/>
<path class="st7" d="M963.3,728.1c0,0,13.2-2,13.2-1.3s15.8,43.4,0,42.8s-75.7-9.2-71.7-25s23.7-11.2,23.7-11.2l17.8-9.9
	L963.3,728.1z"/>
<path class="st7" d="M1092.8,714.5c0,0-13.2-2-13.2-1.3s-15.8,43.4,0,42.8s75.7-9.2,71.7-25s-23.7-11.2-23.7-11.2l-17.8-9.9
	L1092.8,714.5z"/>
<circle class="st6" cx="1015" cy="192.1" r="30.3"/>
<path class="st6" d="M1039.1,188.3c0,0,5.4,53.9,12.3,57.7c6.9,3.8-53.1,7.7-53.1,7.7s14.6-49.2,10-53.9S1039.1,188.3,1039.1,188.3z
	"/>
<path class="st0" d="M974.5,244.5c0,0,21.5-20.8,46.2-16.9s42.3,8.5,42.3,8.5s37.7,20,38.5,36.2s-13.8,76.9-13.8,76.9
	s-6.9,99.3-7.7,99.3s-130-1.5-130-1.5l23.9-129.3L974.5,244.5z"/>
<path class="st6" d="M979.5,429.6c5,1.3,13.6-0.5,22.6-3.5c16-5.3,33.2-14,33.2-14s55.4-22.3,71.6-33.9s5.4-57.7,5.4-57.7l-24.6,7.7
	l1.5,28.5l-60.8,39.2c-9.6,0.9-19,2.8-28.1,5.7c-10.2,3.4-20.2,8.6-23.8,16.7c-0.6,1.2-1,2.5-1.2,3.9
	C974.5,426.5,976.2,428.7,979.5,429.6z"/>
<path class="st8" d="M976.4,418.4c1.1,4,2.1,7.8,3.1,11.3c5,1.3,13.6-0.5,22.6-3.5l-1.9-24.5C990,405.1,980,410.3,976.4,418.4z"/>
<path class="st6" d="M987.5,306l4.6,40.8l7.7,100.6c0,0,42.4,51,18.5,52.5s-36.9-50-36.9-50s-23.9-81.6-23.1-98.5s0-45.4,0-45.4
	L987.5,306z"/>
<path class="st7" d="M980.8,188.8c-0.8-0.3-1.5-0.8-2.2-1.3c-1.7-1.6-1.4-4.3-0.7-6.5s1.8-4.5,1.3-6.7c-0.2-1-0.8-2-1-3.1
	c-0.4-2.5,1.6-4.8,3.9-6.1s4.8-1.9,6.9-3.3c3.2-2.2,5-6.1,8.3-8.3c3.2-2.1,7.3-2.2,11.1-2.2l11.4,0c6,0,12.5,0.2,17,4.2
	c1.4,1.2,2.4,2.7,3.8,3.9c2.8,2.4,6.5,3.4,9.5,5.4c4.6,3.1,7.4,8.3,7.3,13.9c-0.1,5.1-2.6,10-1.9,15c0.4,3.4,2.3,6.6,1.8,10
	c-0.6,4-4.2,6.9-8,8.3s-7.9,2-11.5,3.7c-3,1.4-6.1,3.6-9.2,2.6c-2.7-0.8-4.1-3.6-5.1-6.3c-1.1-3.1-1.9-6.2-2.4-9.4
	c-0.4-2.4-0.6-5-2.1-6.9c-1.7-2.2-4.4-3.4-7.1-3.1c-6.2,0.5-9.6,11.1-15.3,8.6c-2.8-1.2-5-4.9-7.2-6.9
	C986.8,192.2,983.9,190.2,980.8,188.8z"/>
<path class="st0" d="M1092.2,265.3c0,0,15.4,5.4,21.5,26.9s3.8,36.2,3.8,36.2l-32.3,5.4L1092.2,265.3z"/>
<path class="st0" d="M989.9,242.9c0,0-27.7-6.2-31.5,20c-2.4,17.6-3.7,35.3-3.8,53.1c0,0,26.2-12.3,37.7,0L989.9,242.9z"/>
</svg>
