<svg xmlns="http://www.w3.org/2000/svg" viewBox="0 0 294.1 307.37"><defs><style>.cls-1,.cls-5,.cls-8{fill:none;stroke-miterlimit:10;}.cls-1{stroke:#778c97;}.cls-2,.cls-4{fill:#dee6f1;}.cls-2{opacity:0.25;}.cls-3{fill:#fff;}.cls-5,.cls-8{stroke:#374449;}.cls-5{stroke-width:10px;}.cls-6{fill:#a08dc1;}.cls-7{fill:#8977af;}.cls-8{stroke-width:5px;}.cls-9{fill:#374449;}.cls-10{fill:#9adcf9;}</style></defs><title>Asset 130</title><g id="Layer_2" data-name="Layer 2"><g id="Layer_1-2" data-name="Layer 1"><path class="cls-1" d="M147.9,155.9"/><ellipse class="cls-2" cx="147.9" cy="288.62" rx="112.5" ry="18.75"/><circle class="cls-3" cx="148.75" cy="146.48" r="142.05"/><path class="cls-4" d="M170.34,265.8A142.06,142.06,0,0,1,54.86,41,142,142,0,1,0,264.24,230.33,141.5,141.5,0,0,1,170.34,265.8Z"/><path class="cls-5" d="M221.47,26a142.41,142.41,0,0,1,13.26,9.25"/><path class="cls-6" d="M277.27,84.14C240.46,94.78,196.77,101,149.89,101S59.31,94.78,22.5,84.14a141.21,141.21,0,0,1,9.7-16.66c34.69,9,74.85,14.16,117.68,14.16s83-5.15,117.67-14.16A139.65,139.65,0,0,1,277.27,84.14Z"/><path class="cls-7" d="M39.15,69.21a139.24,139.24,0,0,0-6,17.55C29.58,85.87,26,85,22.57,84a143,143,0,0,1,9.64-16.51Q35.64,68.36,39.15,69.21Z"/><path class="cls-8" d="M273.86,83c-36.81,10.65-80.5,16.82-127.38,16.82S55.9,93.65,19.1,83a141.21,141.21,0,0,1,9.7-16.66c34.69,9,74.85,14.16,117.68,14.16s83-5.15,117.67-14.16A139.65,139.65,0,0,1,273.86,83Z"/><path class="cls-5" d="M257.24,57.4a141.69,141.69,0,1,1-61.86-44"/><path class="cls-9" d="M99.85,156.46A15,15,0,0,1,95.52,167a15.09,15.09,0,0,0-21.57,0,15.12,15.12,0,1,1,25.91-10.59Z"/><path class="cls-9" d="M222.85,156.46A15,15,0,0,1,218.52,167a15.09,15.09,0,0,0-21.57,0,15.12,15.12,0,1,1,25.91-10.59Z"/><path class="cls-9" d="M126.4,222.85a37.83,37.83,0,0,1,13-10.48c12.49-6,23.43.74,31.59,10.48,3.73,4.44,10.06-2,6.36-6.36C167.73,205,153.73,197.27,138.7,203A44.37,44.37,0,0,0,120,216.49c-3.55,4.5,2.77,10.91,6.36,6.36Z"/><path class="cls-9" d="M209.68,115.8c2.93,9,6.34,18,14.37,23.67a29.29,29.29,0,0,0,24.58,4c5.58-1.54,3.21-10.22-2.39-8.68a20.19,20.19,0,0,1-17.75-3.2c-5.74-4.37-8-11.62-10.13-18.19-1.79-5.48-10.48-3.14-8.68,2.39Z"/><path class="cls-9" d="M74.1,113.41C72,120,69.71,127.22,64,131.6a20.2,20.2,0,0,1-17.75,3.2c-5.59-1.54-8,7.14-2.39,8.68a29.28,29.28,0,0,0,24.58-4c8-5.65,11.44-14.68,14.37-23.67,1.8-5.52-6.89-7.88-8.68-2.39Z"/><path class="cls-10" d="M84.1,178.44c.6,5.5-.94,10.91-5.72,10.13-11.73-1.92.32-20.54.6-20.4C81.71,169.49,83.61,174,84.1,178.44Z"/></g></g></svg>