<?xml version="1.0" encoding="utf-8"?>
<!-- Generator: Adobe Illustrator 22.0.1, SVG Export Plug-In . SVG Version: 6.00 Build 0)  -->
<svg version="1.1" id="Layer_1" xmlns="http://www.w3.org/2000/svg" xmlns:xlink="http://www.w3.org/1999/xlink" x="0px" y="0px"
	 viewBox="0 0 1300 400" style="enable-background:new 0 0 1300 400;" xml:space="preserve">
<style type="text/css">
	.st0{fill:url(#SVGID_1_);stroke:#000000;stroke-width:1.6452;stroke-miterlimit:10;}
	.st1{opacity:0.1;fill:#0D8CD8;enable-background:new    ;}
	.st2{fill:#3A3768;}
	.st3{fill:#D48A9B;}
	.st4{opacity:5.000000e-02;enable-background:new    ;}
	.st5{fill:#EFC6CD;}
	.st6{opacity:0.1;enable-background:new    ;}
	.st7{fill:#FFFFFF;}
	.st8{fill:#D3DAE1;}
	.st9{fill:url(#SVGID_2_);}
	.st10{fill:#585B8A;}
	.st11{opacity:0.2;enable-background:new    ;}
	.st12{fill:#636992;}
	.st13{fill:#FFD6D6;}
	.st14{fill:#DCE6F2;}
	.st15{fill:#565988;}
	.st16{fill:#505484;}
	.st17{fill:#575988;}
	.st18{fill:#D28690;}
	.st19{fill:#575989;}
	.st20{fill:#353045;}
	.st21{fill:#F0F3F7;}
	.st22{fill:#663D5C;}
	.st23{fill:#0D8CD8;}
	.st24{opacity:0.3;enable-background:new    ;}
	.st25{opacity:0.15;}
	.st26{fill:#FFD037;}
	.st27{fill:#65617D;}
	.st28{fill:#9D9CB5;}
	.st29{fill:#4B4770;}
	.st30{fill:#D4DFEC;}
</style>
<linearGradient id="SVGID_1_" gradientUnits="userSpaceOnUse" x1="0" y1="201.8935" x2="1300" y2="201.8935" gradientTransform="matrix(1 0 0 -1 0 400)">
	<stop  offset="0" style="stop-color:#007194"/>
	<stop  offset="1" style="stop-color:#41C1C9"/>
</linearGradient>
<rect y="-1.9" class="st0" width="1300" height="400"/>
<path class="st1" d="M978.6,143.9h0.4c-0.3-0.1-0.5-0.4-0.5-0.7l0,0c0-0.5,0.8-0.9,1.7-0.9h12.1c0.9,0,1.7,0.4,1.7,0.9l0,0
	c0,0.5-0.8,0.9-1.7,0.9H992c0.3,0.1,0.5,0.4,0.5,0.7c0,0.4-0.6,0.8-1.3,0.9h3.5c1,0,1.7,0.4,1.7,0.9s-0.8,0.9-1.7,0.9h-12.1
	c-1,0-1.7-0.4-1.7-0.9c0-0.4,0.6-0.8,1.3-0.9h-3.5c-1,0-1.7-0.4-1.7-0.9S977.7,143.9,978.6,143.9z"/>
<ellipse transform="matrix(0.2002 -0.9798 0.9798 0.2002 689.6407 1310.1584)" class="st1" cx="1147.3" cy="232.7" rx="18.4" ry="60.5"/>
<path class="st2" d="M1140.5,181c0,0,3.2-15.8,15.5-14.3c0,0,8.5,0.6,10.2,6.1v12.3L1140.5,181z"/>
<polygon class="st3" points="1207.8,186.9 1098.3,177.8 1084.3,180.7 1085.2,200.3 1086.1,200.4 1087.2,229.9 1194.6,249.2 
	1206,239.5 1206,207.6 1207.5,206.8 "/>
<polygon class="st4" points="1207.9,186.9 1207.6,206.8 1195.8,212.3 1195.6,191.5 "/>
<polygon class="st4" points="1206,207.6 1206.2,239 1194.8,248.6 1195.5,212.3 "/>
<polygon class="st4" points="1086.3,201.6 1195.6,215 1195.6,212.4 1086.2,200.6 "/>
<polygon class="st4" points="1206,208.8 1206,207.6 1195.2,212.4 1195.2,215 "/>
<polygon class="st5" points="1084.1,180.7 1098.2,177.8 1207.6,186.9 1195.4,191.5 "/>
<polygon class="st6" points="1196,187.4 1201.4,187.8 1192.5,190.4 1187.9,190.1 "/>
<polygon class="st7" points="1196,187.2 1201.4,187.5 1192.5,190.2 1187.9,189.9 "/>
<path class="st8" d="M1195.3,187.8c0.2-0.1,0.4,0.1,0.7,0.1c0.1,0,0.3,0,0.4,0c0.3,0,0.5,0.2,0.8,0.1"/>
<path class="st8" d="M1195.1,188c0.2-0.1,0.4,0.1,0.7,0.1c0.1,0,0.3,0,0.4,0c0.3,0,0.5,0.2,0.8,0.1"/>
<path class="st8" d="M1194.4,188.3c0.2-0.1,0.4,0.1,0.7,0.1c0.1,0,0.3,0,0.4,0c0.3,0,0.5,0.2,0.8,0.1"/>
<polygon class="st6" points="1172.8,184.8 1178.1,185.1 1169.2,187.8 1164.7,187.5 "/>
<polygon class="st7" points="1172.8,184.5 1178.1,184.9 1169.2,187.6 1164.7,187.2 "/>
<path class="st8" d="M1172.1,185.1c0.2-0.1,0.4,0.1,0.7,0.1c0.1,0,0.3,0,0.4,0c0.3,0,0.5,0.2,0.8,0.1"/>
<path class="st8" d="M1171.8,185.3c0.2-0.1,0.4,0.1,0.7,0.1c0.1,0,0.3,0,0.4,0c0.3,0,0.5,0.2,0.8,0.1"/>
<path class="st8" d="M1171.2,185.6c0.2-0.1,0.4,0.1,0.7,0.1c0.1,0,0.3,0,0.4,0c0.3,0,0.5,0.2,0.8,0.1"/>
<polygon class="st6" points="1183.9,186.1 1189.3,186.5 1180.4,189.1 1175.8,188.8 "/>
<polygon class="st7" points="1183.9,185.9 1189.3,186.2 1180.4,188.9 1175.8,188.6 "/>
<path class="st8" d="M1183.3,186.5c0.2-0.1,0.4,0.1,0.7,0.1c0.1,0,0.3,0,0.4,0c0.3,0,0.5,0.2,0.8,0.1"/>
<path class="st8" d="M1183,186.6c0.2-0.1,0.4,0.1,0.7,0.1c0.1,0,0.3,0,0.4,0c0.3,0,0.5,0.2,0.8,0.1"/>
<path class="st8" d="M1182.3,187c0.2-0.1,0.4,0.1,0.7,0.1c0.1,0,0.3,0,0.4,0c0.3,0,0.5,0.2,0.8,0.1"/>
<ellipse class="st1" cx="1062.3" cy="284.3" rx="57.3" ry="11.8"/>
<linearGradient id="SVGID_2_" gradientUnits="userSpaceOnUse" x1="1124.537" y1="72.5684" x2="1124.537" y2="238.3703" gradientTransform="matrix(1 0 0 -1 -54.11 364.29)">
	<stop  offset="0" style="stop-color:#808080;stop-opacity:0.25"/>
	<stop  offset="0.54" style="stop-color:#808080;stop-opacity:0.12"/>
	<stop  offset="1" style="stop-color:#808080;stop-opacity:0.1"/>
</linearGradient>
<path class="st9" d="M1125.1,187.7c-0.6-5.4-3-10.5-3-10.5l0.2-1.8c0,0,0-0.9,0-2.3c0-0.8,0.1-1.7,0.3-2.5c0.5-1.6-0.6-3.5-0.7-3.7
	c-0.1-0.2,0.1-3.6-1.1-5.3c-1.1-1.7-8.5-4.8-8.5-4.8s-0.4-0.8-1-1.8l0.1-0.1c-0.5-0.8-1-1.6-1.7-2.3c-0.5-0.5-0.9-0.8-1.2-0.6
	c-0.1-0.5-0.3-0.9-0.3-1.4c0.1,0,0.2,0,0.2,0.1c0.3,0.1,0.6,0.1,0.9,0c0.7-0.2,1.1-0.8,1.5-1.4c1.9-2.9,3.6-6.1,3.9-9.6
	c0.1-0.7,0.1-1.4-0.1-2.1c-0.2-0.5-0.4-1.1-0.7-1.5c-0.5-1-1.1-1.9-1.9-2.8c-1.3-1.4-3.1-2.2-5-2.7c-2.1-0.6-4.3-0.7-6.5-0.5
	c-0.6,0.1-1.1,0.2-1.7,0.2c-0.7,0-1.4,0-2.2,0l-3.7-0.2l0-0.1l-0.6,0c-0.2,0.5,0,1.1,0.3,1.5c0.3,0.5,0.7,0.9,0.6,1.5
	s-0.4,1-0.7,1.4c-0.3,0.5-0.5,1-0.2,1.5c0,0.1,0.1,0.1,0.2,0.2c0.3,0.3,0.9,0.4,1.4,0.4h0.1c-1.2,1.6-1.9,3.6-1.9,5.6
	c0,3.5,2,6.7,5.1,8.3c0.1,0.2,0.1,0.4,0.2,0.6c0.6,2,0.8,4.1,0.6,6.1l-0.1,0.1l0-0.2c0,0-4.4,3-5.7,3.7c-1.3,0.8-2.6,3.4-2.7,4.2
	c-0.1,0.7-2.1,11.7-2.1,11.7c-0.4,1.1-0.8,2.2-1,3.4l-2.6,2.3c0,0-5.4,0.5-6.9,0.1l0,0.3c-1.4-0.3-2.8-0.5-4.2-0.6
	c-0.8-0.1-1.5,0-2.3,0.3l-0.1,0l0,0c-0.8,0.1-1.6,0.3-2.4,0.7c-0.1,0-0.2,0.1-0.3,0.1l0-0.4l-5.8-0.3l-3-0.6c0,0-1.1-0.8-1.7-0.7
	c-0.6,0.1-1.9-0.7-1.9-0.7c-0.3-0.2-0.6-0.4-1-0.6c-0.1-0.7-0.2-1.1-0.2-1.1s-2.3-9.2-4-14.6c-1.2-3.6-2.8-5.4-3.8-6.2
	c-0.4-0.8-0.7-1.3-0.7-1.3c-0.2-0.7-1.2-2.2-1.5-2.2c0-0.1-0.1-0.1-0.1-0.1c-0.1,0-0.1,0-0.2,0c-0.5-2.4-0.8-5.5,0-8.1
	c2.1-1.7,3.3-4.2,3.3-6.9c0,0,0-0.1,0-0.1s0-0.1,0-0.1c0-2.1-0.7-4.1-2.1-5.7l-0.1-0.1c0,0,0.1,0,0.1-0.1c0.4-0.4,0.6-0.9,0.5-1.5
	c-0.1-0.5-0.6-1-0.8-1.5c-0.1-0.4-0.2-0.8-0.3-1.2c-0.2-0.6-0.5-1.1-0.9-1.6l0,0.1c-1.1-1.2-3-1.9-4.7-1.6c-1.3,0.2-2.5,0.8-3.7,1
	c-0.9,0.1-1.9,0-2.8,0.1c-0.9,0.1-1.7,0.3-2.5,0.7c-0.2,0.1-0.4,0.2-0.5,0.4c-0.1,0.2-0.2,0.5-0.3,0.7c-0.3,1.1-1.3,2-2,2.9
	c-0.8,1.1-1.3,2.4-1.4,3.8c0,0.3,0,0.7,0.1,1c0.1,0.2,0.2,0.4,0.2,0.6c0.1,0.6-0.2,1.2-0.3,1.9c-0.2,0.8-0.1,1.6,0.2,2.4
	c1.1,2.5,4.8,3.3,5.6,6c0.6,0.3,1.2,0.5,1.8,0.6c0.1,0.3,0.1,0.5,0.1,0.8c0,0,0,0,0,0c-1,1-1.2,2.8-1.2,2.8l-0.1,0.1
	c-0.4,0.3-1.8,1.5-3,2.3c-1.5,1-4,4.5-5.7,5.5c-1.7,1-3.2,7.4-2.8,9.7c0.4,2.3,1.9,8.8,1.3,11.1c-0.6,2.4,0.9,13.1,0.9,13.1
	c1,0.2,2.1,0.5,3,0.9l0,0.5l-0.1,1.4c0,0-2.8,10.1-1.7,18c1.1,7.8-0.5,8.6-0.5,8.6s0.3,3.5-0.5,4.7c-0.8,1.2-1,3.9-1,3.9
	s-0.1,6,0.1,7.6c0.2,1.7,0.2,4.8-0.3,5.5c-0.6,0.7-1.7,5.5-1.6,6.9c0.1,1.4-2.1,4.8-0.9,9c1.2,4.3-3.4,4.3-3.4,4.3s0.6,6.5,1.8,8.4
	l0.2,0.3c0,0.1-0.1,0.2-0.1,0.3c-0.5,1.7-1.1,4.4-0.7,5c0.7,1,1,0.8,1,0.8l0.2,4.3c0,0,5,4.2,8.8,4c3.8-0.2,3.1-4,3.1-4l-3.2-8.4
	l-0.1-0.3l3.6-6.8c0,0,1-3,1.2-4c0.2-1,1.6-4.8,1.6-4.8s3.4-8.1,3.5-9c0.1-1,0.3-6.2,1-7.2c0.7-1.1,2.5-7.1,2.5-7.1l0,0
	c0.6,0.6,0.9,1.5,0.6,2.4c-0.4,1.5-0.2,4.7-0.2,4.7s-0.2,2.7-0.5,4c-0.3,1.4-0.4,12.6,0.2,15.2c0.5,2.1,0.4,6.1,0.4,7.6
	c-0.4,1.6-0.7,3.6-0.1,3.8c1.1,0.4,6.5,0.3,6.5,0.3s2.3-0.8,5.5,2c3.1,2.8,12.8-0.8,12.8-0.8s3-0.8-2.9-3.1
	c-4.1-1.6-6.7-2.7-8.5-3.9c0-0.1,0.1-0.2,0.1-0.2c0,0-2.4-2.3-0.4-6.3c2-4,1.9-7.4,1.9-7.4l0.3-13.5l-1-18l-0.8-18.9l0.1,0
	c0.1,3.5,0.8,11.7,4.3,10.1c4.5-2,0.7-7.2,0.7-7.2l-2-3.9l0.6-0.2l-2.2-7.2c-0.2-1.4-0.2-2.8-0.1-4.3c0-0.8,0-1.7-0.1-2.5
	c2.9-0.5,5.7-1.1,6.2-0.9c0.6,0.1,3.9,0.2,5.2,0.2c-0.4,0.3-0.8,0.7-0.8,0.7l5.3,3.6c0,0,1.8-1,2.2-2c0.4-0.1,0.7-0.3,1-0.5
	c0.1,1.2,0.4,2.6,1.5,2.6c0.3,0,0.6-0.1,0.8-0.2l8.7-1.7l-0.7,4.7l0.5,0.9c-0.3,3.9-0.6,8.1-0.8,11.8l-0.1,0.8l0.1,0
	c-0.4,5.7-0.7,10-0.7,10c0.5-0.9,1.2-1.7,2.2-2.2l0.1,8.4c0,0,0.4,13.3,0.4,15.1c0,1.8,0.1,5.9,0.1,5.9s0.9,5,1.5,6.6
	c0.6,1.6,1,9.1,1,9.1s1.3,2.1,0.7,2.8s2.2,2.5,2.2,2.5s-1.7,2.4-1.9,3.9c0,0.2,0.2,0.4,0.5,0.6c-0.1,0.1-0.2,0.2-0.3,0.2
	c-0.8,0.5-2,0.9-3.8,0.8c-4.8-0.4-8.2,4-5.3,5s11.9,1.1,11.9,1.1s2.7-1.7,4.8-0.9c0,1.8,0.1,3.4,0.1,3.6l0,0c-1.3,1.1-3.7,3.1-6,3.9
	c-3.4,1.1-4.2,5.8,0.2,6.4c4.4,0.6,10.8-0.7,10.8-0.7s3.3-2.5,5.9-3c2.5-0.5,4.7-1.8,4.3-3.2c-0.3-0.9-1-3.4-1.5-5
	c0-0.1-0.1-0.2-0.1-0.3c0.1-0.2,0.2-0.3,0.2-0.5c0,0-1.3-6.8-0.2-8.5c1.1-1.7,0.5-18.6,0.5-18.6s-1.8-4.3-0.9-6.9
	c0.9-2.6-1.5-6.3-1.5-6.3s0.3-7.4,1-11.5c0-0.2,0.1-0.3,0.1-0.5c1.2-0.4,2.3-0.8,3.5-1.3c0,0,0.6-9.3,1-11.4c0-0.2,0.1-0.5,0.2-0.9
	l0.3-1.5l0,0l0.3-1.7l0,0l1.1-5.8l2-2.6l5.3-5.4C1124.4,195.9,1125.7,193,1125.1,187.7z M1043.8,154.4L1043.8,154.4
	C1043.8,154.4,1043.8,154.4,1043.8,154.4C1043.8,154.4,1043.8,154.4,1043.8,154.4z M1095.9,161l-0.2,0.4l0.7-0.7l-1,1.1l0.3-0.7
	L1095.9,161z M1090.8,171.4c-0.2,0.5-0.4,1.1-0.6,1.7l0.4-1.2L1090.8,171.4z"/>
<path class="st10" d="M1074.6,188.4c0,0-0.7,4.6,1.4,4.7c2.1,0.1,3.5-3.6,3.5-3.6l-0.8-2.9L1074.6,188.4z"/>
<path class="st11" d="M1074.6,188.4c0,0-0.7,4.6,1.4,4.7c2.1,0.1,3.5-3.6,3.5-3.6l-0.8-2.9L1074.6,188.4z"/>
<path class="st12" d="M1028,288.3c-3.7,0.2-8.5-4-8.5-4l-0.2-4.3c0,0-0.3,0.2-1-0.8c-0.4-0.6,0.2-3.3,0.6-5c0.2-0.8,0.4-1.4,0.4-1.4
	l8.1,2.2l0.4,1l3.2,8.4C1031,284.3,1031.7,288.2,1028,288.3z"/>
<path class="st12" d="M1065.3,276c0,0-9.4,3.6-12.5,0.8s-5.3-2-5.3-2s-5.3,0.1-6.4-0.3c-0.6-0.2-0.3-2.2,0.1-3.9
	c0.3-1.1,0.5-2,0.5-2s9.3-3.1,10.7-1.2c0.4,0.6,1,1.1,1.5,1.5c1.7,1.2,4.3,2.3,8.4,4C1068.2,275.2,1065.3,276,1065.3,276z"/>
<path class="st13" d="M1056.9,202.5l2.6,5.2c0,0,3.7,5.2-0.6,7.2c-4.3,2-4.3-11.6-4.3-11.6L1056.9,202.5z"/>
<path class="st14" d="M1046.1,157.8c0,0,2.8,1.3,4.5,6.7c1.7,5.4,3.9,14.6,3.9,14.6s1.5,10.4,1.3,13c-0.2,1.4-0.1,2.9,0.1,4.3
	l2.2,7.2l-4.3,1.5l-6.7-25.6L1046.1,157.8z"/>
<path class="st4" d="M1046.1,157.8c0,0,2.8,1.3,4.5,6.7c1.7,5.4,3.9,14.6,3.9,14.6s1.5,10.4,1.3,13c-0.2,1.4-0.1,2.9,0.1,4.3
	l2.2,7.2l-4.3,1.5l-6.7-25.6L1046.1,157.8z"/>
<path class="st6" d="M1027.4,274.9l0.4,1l-0.5,0.9c-1.9,0.8-6.4,0.2-6.4,0.2s-0.8-1.1-2-2.9c0.2-0.8,0.4-1.4,0.4-1.4L1027.4,274.9z"
	/>
<path class="st6" d="M1054.4,269.3c-2.3,5.3-10.3,3.3-12.5,2.7c-0.4-0.1-0.6-0.2-0.6-0.2s0-0.4,0-1.1c0.3-1.1,0.5-2,0.5-2
	s9.3-3.1,10.7-1.2c0.4,0.6,1,1.1,1.5,1.5C1054.2,269,1054.3,269.1,1054.4,269.3z"/>
<path class="st15" d="M1054,262.5c-1.9,4,0.4,6.3,0.4,6.3c-2.3,5.3-10.3,3.3-12.5,2.7c-0.4-0.1-0.6-0.2-0.6-0.2s0.2-5.6-0.4-8.2
	c-0.6-2.7-0.5-13.8-0.2-15.2c0.3-1.4,0.5-4,0.5-4s-0.2-3.1,0.2-4.7c0.2-0.8,0-1.8-0.6-2.4l0,0c0,0-1.8,6-2.4,7.1
	c-0.6,1-0.9,6.3-1,7.2c-0.1,1-3.4,9-3.4,9s-1.3,3.7-1.5,4.7c-0.2,1-1.2,4-1.2,4l-3.9,7.5c-1.9,0.8-6.4,0.2-6.4,0.2s-0.9-1.1-2.1-3
	s-1.8-8.4-1.8-8.4s4.4-0.1,3.3-4.3c-1.1-4.3,1-7.6,0.9-9c-0.1-1.4,1-6.2,1.5-6.9c0.6-0.7,0.5-3.8,0.3-5.5c-0.2-1.7-0.1-7.6-0.1-7.6
	s0.2-2.7,1-3.9c0.8-1.2,0.5-4.7,0.5-4.7s1.5-0.8,0.5-8.6c-1-7.8,1.7-17.9,1.7-17.9l0.1-1.4l0.1-2.3c0,0,23-1.4,24.9,0.3
	c0.5,0.5,0.9,1.1,1.2,1.7c0.6,1.4,1.1,2.8,1.3,4.3l1,24.4l1,17.9l-0.3,13.5C1055.8,255.1,1055.9,258.5,1054,262.5z"/>
<path class="st6" d="M1047.1,214.4l-2.4,52.3l-2.9,4.8c-0.4-0.1-0.6-0.2-0.6-0.2s0.2-5.6-0.4-8.2c-0.6-2.7-0.5-13.8-0.2-15.2
	c0.3-1.4,0.5-4,0.5-4s-0.2-3.1,0.2-4.7c0.2-0.8,0-1.8-0.6-2.4l0-0.3L1047.1,214.4z"/>
<path class="st6" d="M1021.1,270.6c0,0,6.3-2.5,7.2-1.7s-7.4,2-7.4,2L1021.1,270.6z"/>
<path class="st6" d="M1052.1,264c-0.2,0.1-6.4,2.3-5.8,4.6S1052.1,264,1052.1,264z"/>
<path class="st13" d="M1033,144.9c0,0,2.1,5,1,7.5c-1.1,2.5,11.7,6.9,11.7,6.9s-3.7-9.7-0.1-15.1
	C1049.2,138.7,1033,144.9,1033,144.9z"/>
<path class="st16" d="M1107.9,288.2c-2.5,0.5-5.7,3-5.7,3s-6.3,1.3-10.6,0.7c-4.3-0.6-3.6-5.3-0.2-6.4c2.3-0.8,4.7-2.7,5.9-3.9
	c0.5-0.5,0.9-0.8,0.9-0.8l12-2.4c0,0,0.2,0.7,0.5,1.6c0.5,1.6,1.2,4.1,1.5,5C1112.5,286.4,1110.4,287.6,1107.9,288.2z"/>
<path class="st16" d="M1104.8,278.9c0,0-5.1,0.5-7.2-0.7c-2.1-1.2-5.1,0.7-5.1,0.7s-8.7-0.2-11.6-1.1c-2.9-0.9,0.4-5.4,5.1-5
	c1.7,0.2,2.9-0.2,3.7-0.8c0.8-0.6,1.4-1.4,1.6-2.4l10.2,0.6l1.4,3.6L1104.8,278.9z"/>
<path class="st6" d="M1103.1,275.6c0,0-11.8-1.9-13.4-3.5c0.8-0.6,1.4-1.4,1.6-2.4l10.2,0.6l1.4,3.6L1103.1,275.6z"/>
<path class="st17" d="M1085.5,207.8l0.1,17.7c0,0,0.4,13.3,0.4,15.1c0,1.8,0.1,5.9,0.1,5.9s0.9,5,1.4,6.6c0.5,1.6,1,9.1,1,9.1
	s1.3,2.1,0.7,2.8c-0.5,0.8,2.1,2.5,2.1,2.5s-1.7,2.4-1.8,3.9s13.5,3.8,13.5,3.8l-5.3-54.4l-4.2-13.6L1085.5,207.8z"/>
<path class="st6" d="M1085.5,207.8l0.1,17.7c0,0,0.4,13.3,0.4,15.1c0,1.8,0.1,5.9,0.1,5.9s0.9,5,1.4,6.6c0.5,1.6,1,9.1,1,9.1
	s1.3,2.1,0.7,2.8c-0.5,0.8,2.1,2.5,2.1,2.5s-1.7,2.4-1.8,3.9s13.5,3.8,13.5,3.8l-5.3-54.4l-4.2-13.6L1085.5,207.8z"/>
<path class="st6" d="M1110.6,280c-3.9,9.4-13.3,2.1-13.3,2.1s0-0.2,0-0.5c0.5-0.5,0.9-0.8,0.9-0.8l12-2.4
	C1110.2,278.4,1110.3,279.1,1110.6,280z"/>
<path class="st17" d="M1110.8,279.2c-3.9,9.9-13.5,2.5-13.5,2.5s-0.3-5.1,0.3-7.5c0.6-2.4-0.7-9.4-0.7-9.4s-0.7-6.3-1.4-7.7
	c-0.7-1.4-0.6-4.3-0.6-4.6s0.2-2.2-0.3-3.5s-0.8-4.6-0.8-4.6s0-4.6-0.5-7.3l-1.9-9.3l-3.4-19.1l1.1-0.2l18.9-3.3
	c0,0,3.6,18.1,2.4,20c-0.3,0.4-0.5,1.3-0.7,2.4c-0.7,4.1-0.9,11.5-0.9,11.5s2.4,3.7,1.4,6.3c-0.9,2.6,0.8,6.9,0.8,6.9
	s0.5,16.9-0.5,18.6S1110.8,279.2,1110.8,279.2z"/>
<path class="st18" d="M1108.9,155.6c0,0-17.1,12.1-13.3,6c2.1-3.3,1.7-7.4,0.9-10.5c-0.4-1.6-1-3.1-1.7-4.6c0,0,14.6-6.2,12.6-0.6
	c-0.5,1.3-0.6,2.7-0.6,4C1107,152,1107.7,153.9,1108.9,155.6z"/>
<path class="st18" d="M1078.1,183.3c0,0-7.2-2.1-8.5,0s0.4,6.6,2.5,7.3c2.2,0.7,7.2-2.5,7.2-2.5L1078.1,183.3z"/>
<path class="st10" d="M1086.4,179.7l-3,2.8c0,0-5.3,0.5-6.8,0.1c0,0,1.4,9.3-0.6,10.4l12.2-2.5L1086.4,179.7z"/>
<path class="st6" d="M1086.4,179.7l-3,2.8c0,0-5.3,0.5-6.8,0.1c0,0,1.4,9.3-0.6,10.4l12.2-2.5L1086.4,179.7z"/>
<path class="st6" d="M1047.6,139.8c0,5-4.1,9.1-9.1,9.1c-4.7-2.2-9.1-4.1-9.1-9.1c-0.2-5,3.7-9.2,8.7-9.4s9.2,3.7,9.4,8.7
	C1047.6,139.3,1047.6,139.6,1047.6,139.8L1047.6,139.8z"/>
<path class="st13" d="M1047.6,139.6c0,5-4,9-9,9.1c-5,0-9-4-9.1-9c0-5,4-9,9-9.1c2.7,0,5.3,1.2,7,3.3
	C1046.9,135.4,1047.6,137.5,1047.6,139.6z"/>
<path class="st6" d="M1052.9,195c-0.9,0.6-1.8,1-2.8,1.5c0,0-4.6-0.7-5.3,0.1c-0.7,0.8-6.5,1.1-6.5,1.1s-8.9-0.4-10.3-1.6
	c-0.4-0.3-0.9-0.6-1.4-0.8l0.1-2.3c0,0,23-1.4,24.9,0.3C1052.2,193.8,1052.6,194.3,1052.9,195z"/>
<path class="st14" d="M1054,193.3c-0.2,1-3.9,2.6-3.9,2.6s-4.6-0.7-5.3,0.1c-0.7,0.8-6.5,1.1-6.5,1.1s-8.9-0.4-10.3-1.6
	c-1.3-1.1-4.3-1.7-4.3-1.7s-1.5-10.7-0.9-13.1s-0.9-8.8-1.3-11.1s1-8.6,2.7-9.7c1.7-1,4.1-4.5,5.6-5.5c1.2-0.9,2.6-2,3-2.3l0.1-0.1
	c0,0,0.2-1.9,1.2-2.8c1-1,9.8,6.1,9.8,6.1s0.1,0.5,0.7-0.5c0.1-0.2,1.3,1.5,1.5,2.2c0,0,4.8,8.5,5.1,10.2c0.3,1.7,1.6,7.4,1.8,8.8
	c0.1,0.4,0.2,1.6,0.3,3.3c0,0.3,0,0.7,0.1,1c0.2,2.8,0.4,6.3,0.5,9c0,0.3,0,0.6,0,0.9C1054,191.3,1054.1,192.3,1054,193.3z"/>
<path class="st6" d="M1023.4,171.6c0,0,3.3,4,4.4,4C1028.8,175.6,1023.4,171.6,1023.4,171.6z"/>
<path class="st6" d="M1030.3,180.2c0,0-5.4,5.9-4.7,7C1026.4,188.3,1030.3,180.2,1030.3,180.2z"/>
<path class="st6" d="M1026.4,192c0,0,6.2-6.8,6.5-9.2L1026.4,192z"/>
<path class="st6" d="M1034.2,192.5c0,0,7.2-3.8,7.8-6.8C1042.6,182.7,1034.2,192.5,1034.2,192.5z"/>
<path class="st6" d="M1043.3,155.8l-1,2.4l1.7,0.8l1.6,4.6c0,0,4.5,9,4.3,13.7c-0.2,4.7,0.8,11.7,0.8,11.7l2.6-0.5l-1.2-13.8
	c-0.2-2.1-0.7-4.2-1.6-6.2c-2.1-4.7-5.9-13.5-6.2-13.5c-0.3,0-0.1,0.1-0.1,0.1L1043.3,155.8z"/>
<path class="st19" d="M1043.6,155.6l-1,2.4l1.7,0.8l1.6,4.6c0,0,4.5,9,4.3,13.7c-0.2,4.7,0.8,11.7,0.8,11.7l2.6-0.5l-1.2-13.8
	c-0.2-2.1-0.7-4.2-1.6-6.2c-2.1-4.7-5.9-13.5-6.2-13.5c-0.3,0-0.1,0.1-0.1,0.1L1043.6,155.6z"/>
<path class="st13" d="M1073,191c-1.3-0.1-4.3-1.6-5.5-2.3l-0.5-0.3l0.1-4.7c0.3-0.2,0.6-0.3,0.9-0.5c1.6-0.7,4.9-1.7,6.6,1.4
	C1076.7,188.9,1074.6,191.1,1073,191z"/>
<path class="st6" d="M1045.6,133.8c-0.1,0.1-0.3,0.1-0.4,0.2c-1.1,0.2-2.2-0.7-3.1-0.1c-0.5,0.4-0.7,1.1-0.8,1.7
	c-0.1,1.1-0.3,2.3-0.4,3.4c0,0.4-0.1,0.8-0.2,1.2c-0.4,1-1.7,1.5-2.8,1.5c-0.4,0-0.9-0.1-1.2-0.4c-0.2-0.2-0.3-0.5-0.5-0.7
	c-1.4-1.2-1.8,1.7-1.5,2.5c0.6,1.4,2.7,2.7,1.8,4.4c-0.2,0.3-0.4,0.5-0.7,0.7c-4.8-1.5-7.4-6.6-5.9-11.4c1.5-4.8,6.6-7.4,11.4-5.9
	C1042.9,131.4,1044.4,132.4,1045.6,133.8z"/>
<path class="st20" d="M1035.9,140.6c0.2,0.2,0.3,0.5,0.5,0.7c0.3,0.3,0.8,0.4,1.2,0.4c1.1,0,2.3-0.5,2.8-1.5
	c0.1-0.4,0.2-0.8,0.3-1.2l0.4-3.4c0.1-0.7,0.2-1.4,0.8-1.7c0.9-0.6,2.1,0.3,3.1,0.1c0.8-0.2,1.3-1,1.1-1.8c-0.1-0.5-0.5-1-0.7-1.5
	c-0.1-0.4-0.2-0.8-0.3-1.2c-0.6-2.2-3.2-3.4-5.4-3.1c-1.2,0.2-2.4,0.8-3.7,1c-0.9,0.1-1.8,0-2.7,0.1c-0.8,0.1-1.7,0.3-2.4,0.7
	c-0.2,0.1-0.4,0.2-0.5,0.4c-0.1,0.2-0.2,0.5-0.3,0.7c-0.3,1.1-1.3,2-2,2.9c-0.8,1.1-1.3,2.4-1.3,3.8c0,0.3,0,0.7,0.1,1
	c0.1,0.2,0.2,0.4,0.2,0.6c0.1,0.6-0.2,1.2-0.3,1.9c-0.2,0.8-0.1,1.6,0.2,2.4c1.1,2.5,4.7,3.3,5.4,6c0.7,0.3,1.4,0.5,2.1,0.6
	c0.7,0,1.5-0.3,1.9-0.9c0.9-1.7-1.2-3-1.8-4.4C1034,142.3,1034.4,139.4,1035.9,140.6z"/>
<path class="st6" d="M1107.5,145.9c-0.5,1.3-0.6,2.7-0.6,4c-0.4,0.4-0.9-0.7-1.4-0.5c-1.4,0.8-3,2.7-4.7,2.7c-1.5,0-2.9-0.3-4.3-1
	c-0.4-1.6-1-3.1-1.7-4.6C1094.9,146.5,1109.4,140.3,1107.5,145.9z"/>
<path class="st18" d="M1110.2,142.3c0,5.2-4.2,9.4-9.4,9.4c-5.2,0-9.4-4.2-9.4-9.4s4.2-9.4,9.4-9.4
	C1106,132.8,1110.2,137,1110.2,142.3C1110.2,142.3,1110.2,142.3,1110.2,142.3z"/>
<path class="st21" d="M1109.8,157.7c0,0-1.8,1.9-2,2.1c-0.2,0.2-5.4,21.8-5.5,22.1c-0.1,0.3-6.1,19.8-6.1,19.8l-9.7,4.7l0.8-23.9
	l7.1-19.7c0,0,2.3-2.7,3.1-3.6s9.7-6.8,9.7-6.8l1.5,3.2L1109.8,157.7z"/>
<path class="st6" d="M1108.6,156.1l-11.1,8l-0.2-4.4c0.7-1,9.7-6.8,9.7-6.8L1108.6,156.1z"/>
<path class="st21" d="M1108.8,155.6l-11.1,8l-0.2-4.4c0.7-1,9.7-6.8,9.7-6.8L1108.8,155.6z"/>
<path class="st10" d="M1097.1,157.2l0.4,1.9l-2.5,2.5l2-4.4c0,0-4.2,3-5.5,3.7c-1.3,0.8-2.5,3.4-2.6,4.2c0,0.7-2.1,11.7-2.1,11.7
	s-1.5,4-1.1,5.2s-2.3,37.3-2.3,37.3c0.7-1.4,2.1-2.4,3.6-2.8l-1-21.4c0,0,1.2-14.2,1.2-14.4c0.1-0.2,2.7-8.4,2.7-8.4L1097.1,157.2z"
	/>
<path class="st6" d="M1097.8,159.4l-0.2,4c0,0-2.7,8.5-3.6,9.9c-0.9,1.4-3.7,9.7-3.7,9.7l-1.5,14.4l-2.7,1.2l-1.3-2.4l2.2-13.9
	c0,0,4.1-11.7,4.7-12.9l3-6.4L1097.8,159.4z"/>
<path class="st22" d="M1097.5,159.2l-0.2,4c0,0-2.7,8.5-3.6,9.9c-0.9,1.4-3.7,9.7-3.7,9.7l-1.5,14.4l-2.7,1.2l-1.3-2.4l2.2-13.9
	c0,0,4.1-11.7,4.7-12.9l3.1-6.4L1097.5,159.2z"/>
<path class="st18" d="M1066.2,189.4l5.2,3.6c0,0,3.7-2.1,1.5-3.4s-4-1.5-4.7-1.5S1066.2,189.4,1066.2,189.4z"/>
<path class="st18" d="M1070.1,182.8c-0.2,0.1-0.4,0.4-0.4,0.7c0,1.1,0.1,4,1,2.7c1.1-1.6,0.9-3.1,2.7-2c1.1,0.7,2,1.5,2.8,2.5
	l-0.5-3.5C1075.7,183.2,1072.1,181.5,1070.1,182.8z"/>
<path class="st6" d="M1110.3,225c-0.3,0.4-0.5,1.3-0.7,2.4c-10.6,3.2-18.3-3.5-18.3-3.5c-0.9-3.2-1.7-6.4-2.3-9.7
	c-0.2-1.1-0.1-3.3,0-5.9l18.9-3.3C1108,205.1,1111.5,223.2,1110.3,225z"/>
<path class="st10" d="M1121.2,171c-0.5,1.6-0.3,4.8-0.3,4.8l-4.3,20.5c0,0-2.1,15.8-2.5,17.9c-0.4,2.1-1,11.4-1,11.4
	c-12.3,6-21.8-2.2-21.8-2.2c-0.9-3.2-1.7-6.4-2.3-9.7c-0.6-3.6,1.2-17.9,2-24.3c0.3-1.9,0.4-3.1,0.4-3.1l3.2-11.8
	c0,0,3.9-9.9,5.3-12.8s7.3-9.4,7.3-9.4c0.7-0.5,1.9,1.2,2.7,2.6c0.6,1.1,1.1,2.2,1.1,2.2s7.2,3.1,8.3,4.8c1.1,1.7,0.9,5.1,1,5.3
	C1120.6,167.5,1121.7,169.4,1121.2,171z"/>
<path class="st6" d="M1104.1,163.7c0,0,0.5,3.2-0.8,4.2c-1.3,0.9-11.4,20.6-12,21.9c0.3-1.9,0.4-3.1,0.4-3.1l3.2-11.8
	c0,0,3.9-9.9,5.3-12.8c1.4-2.9,7.3-9.4,7.3-9.4c0.7-0.5,1.9,1.2,2.7,2.6C1108.9,158,1106.2,163,1104.1,163.7z"/>
<path class="st10" d="M1103.9,163.5c0,0,0.5,3.2-0.8,4.2c-1.4,1-11.4,20.6-12,21.9c0.3-1.9,0.4-3.1,0.4-3.1l3.2-11.8
	c0,0,3.9-9.9,5.3-12.8s7.3-9.4,7.3-9.4c0.7-0.5,1.9,1.2,2.7,2.6C1108.7,157.7,1106,162.8,1103.9,163.5z"/>
<polygon class="st23" points="1118.2,192.4 1114.8,210.1 1114.8,210.1 1114.5,211.8 1114.5,211.8 1113.8,215.6 1110.6,215 
	1109.2,214.6 1089,210.4 1087.5,210.1 1084.1,209.3 1084.8,204.9 1085.1,203.1 1087.5,186.9 "/>
<path class="st18" d="M1099.4,206.9c0,0-8,2.9-6.3,6.3s13-2.7,13-2.7L1099.4,206.9z"/>
<path class="st6" d="M1105.1,231.6c0,0.2,0.3,3.3,1.5,4.4C1107.9,237,1105.1,231.6,1105.1,231.6z"/>
<path class="st6" d="M1097.1,242.5c0,0,1.4,4,7.2,5.6C1110,249.7,1097.1,242.5,1097.1,242.5z"/>
<path class="st6" d="M1110.2,142.3c0,3.4-1.8,6.5-4.7,8.2c-0.5-0.3-1-0.7-1.4-1.2c-0.4-0.5-0.7-1.2-0.5-1.8c0.2-0.5,0.7-0.8,0.8-1.3
	c0.1-0.3,0-0.6,0-0.9c-0.1-0.5-0.2-0.9-0.3-1.4c-0.1-0.4-0.2-0.9-0.6-1c-0.4-0.1-0.7,0.2-1,0.5c-0.8,0.6-2.2,1-3.1,0.5
	s-0.7-2.1-0.8-3c0-0.2-0.1-0.3-0.2-0.4c-0.1,0-0.3-0.1-0.4,0c-0.5,0-0.9-0.4-1-0.9c-0.1-0.5-0.2-1-0.2-1.5c-0.1-0.5-0.2-1-0.7-1.3
	c-0.3-0.2-0.7-0.2-1.1-0.2l-1.8,0c3.1-4.2,9-5.1,13.2-2C1108.8,136.5,1110.2,139.3,1110.2,142.3L1110.2,142.3z"/>
<path class="st22" d="M1102.7,143.4c0.3-0.2,0.6-0.6,1-0.5s0.5,0.6,0.6,1l0.3,1.4c0.1,0.3,0.1,0.6,0,0.9c-0.1,0.5-0.7,0.8-0.9,1.3
	c-0.2,0.6,0.1,1.3,0.5,1.8c0.7,0.9,1.8,1.5,2.9,1.7c0.3,0.1,0.6,0.1,0.9,0c0.7-0.2,1.1-0.8,1.5-1.4c1.9-2.9,3.5-6.1,3.8-9.6
	c0.1-0.7,0.1-1.4-0.1-2.1c-0.2-0.5-0.4-1.1-0.6-1.5c-0.5-1-1.1-1.9-1.8-2.8c-1.3-1.4-3.1-2.2-4.9-2.7c-2.1-0.6-4.2-0.7-6.3-0.5
	c-0.6,0.1-1.1,0.2-1.7,0.2c-0.7,0-1.4,0-2.1,0l-4.2-0.2c-0.2,0.5,0,1.1,0.3,1.5c0.3,0.5,0.6,0.9,0.6,1.5s-0.4,1-0.7,1.4
	c-0.3,0.5-0.5,1-0.2,1.5c0.3,0.4,0.9,0.5,1.4,0.5l2.1,0c0.4,0,0.7,0,1.1,0.2c0.4,0.3,0.6,0.8,0.7,1.3c0,0.5,0.1,1,0.2,1.5
	c0.1,0.5,0.5,0.9,1,0.9c0.1,0,0.3,0,0.4,0c0.1,0.1,0.2,0.2,0.2,0.4c0.1,0.9-0.1,2.5,0.8,3S1101.9,144,1102.7,143.4z"/>
<path class="st6" d="M1114.7,162c-2.1-0.2-4.2,1.1-4.9,3.1c-1.1,3.2-3,9-2.5,11.3c0.7,3.3,1.4,8.7,1.4,8.7s3.4,2,1.7,4
	c-1.7,2-2.2,4.8-2.2,4.8s-2.2,1-2.7,3c-0.5,2.1-3.7,4.9-3.7,4.9l-4.9,4.9c0,0,8.1,8.2,9.7,8.6l5-5.9l5.9-7.8l5.1-5.4
	c0,0,1.2-2.8,0.6-8.2c-0.6-5.4-3-10.5-3-10.5l0.2-1.8C1120.4,175.8,1121,162.8,1114.7,162z"/>
<path class="st10" d="M1115.1,162c-2.1-0.2-4.2,1.1-4.9,3.1c-1.1,3.2-3,9-2.5,11.3c0.7,3.3,1.4,8.7,1.4,8.7s3.4,2,1.7,4
	c-1.7,2-2.2,4.8-2.2,4.8s-2.2,1-2.7,3c-0.5,2.1-3.7,4.9-3.7,4.9l-4.9,4.9c0,0,8.1,8.2,9.7,8.6l5-5.9l5.9-7.8l5.1-5.4
	c0,0,1.2-2.8,0.6-8.2c-0.6-5.4-3-10.5-3-10.5l0.2-1.8C1120.9,175.8,1121.5,162.8,1115.1,162z"/>
<path class="st6" d="M1110.1,180.4c0,0,5.1,6.3,7.3,4.9S1110.1,180.4,1110.1,180.4z"/>
<path class="st6" d="M1112,175.5c0.5,0.2,5,6.4,7.3,5.7C1121.6,180.5,1112,175.5,1112,175.5z"/>
<path class="st6" d="M1113.3,186.2c0,0,0.3,3.6,4,3.1C1121,188.8,1113.3,186.2,1113.3,186.2z"/>
<polygon class="st6" points="1097,157.5 1095,161.9 1097.5,159.4 "/>
<polygon class="st21" points="1097,157.2 1095,161.7 1097.5,159.2 "/>
<polygon class="st24" points="1089,210.4 1087.5,210.1 1084.8,204.9 1085.1,203.1 "/>
<polygon class="st24" points="1114.8,210.1 1114.5,211.8 1114.5,211.8 1110.6,215 1109.2,214.6 "/>
<path class="st6" d="M1054,190.3c-0.7,0.1-1.5,0.2-2.1,0.3c-3.7,0.5-12.4-3.9-12.4-3.9s-10.7-8.9-13.8-17.4
	c-3.1-8.5,3.7-9.7,3.7-9.7c2.5-1.4,8.1,2.6,8.9,3.3c0.8,0.7,1.4,2.4,1.4,3.4c-0.1,1.1,1.8,2.5,1.8,2.5s3.2,5.6,4,6.2
	c0.8,0.6,1,1.1,1.2,2.2c0.2,1,2.4,1.9,3.3,1.8c0.9-0.1,2,0.3,2,0.8c0,0.4,0.9,0.6,1.6,0.6C1053.7,183.5,1053.9,187.6,1054,190.3z"/>
<path class="st6" d="M1053.9,189.4c-0.6,0.1-1.1,0.2-1.6,0.2c-3.7,0.5-12.4-3.9-12.4-3.9s-10.7-8.9-13.8-17.4
	c-3.1-8.5,3.7-9.7,3.7-9.7c2.5-1.4,8.1,2.6,8.9,3.3c0.8,0.7,1.4,2.4,1.4,3.4c-0.1,1.1,1.8,2.5,1.8,2.5s3.2,5.6,4,6.2s1,1.1,1.2,2.2
	s2.4,1.9,3.3,1.8c0.9-0.1,2,0.3,2,0.8c0,0.3,0.5,0.5,1.1,0.6c0,0.3,0,0.7,0.1,1C1053.6,183.2,1053.8,186.7,1053.9,189.4z"/>
<path class="st6" d="M1067.9,183.3l-0.2,5.4h-0.2l-0.5-0.3l0.1-4.7C1067.3,183.6,1067.6,183.5,1067.9,183.3z"/>
<path class="st14" d="M1029.3,159.2c0,0-6.8,1.3-3.7,9.7c3.1,8.5,13.8,17.4,13.8,17.4s8.8,4.3,12.4,3.9c3.7-0.5,9.3-1.8,10-1.6
	c0.7,0.2,5.6,0.2,5.6,0.2l0.2-5.7l-5.7-0.3l-2.9-0.6c0,0-1-0.8-1.6-0.7s-1.9-0.7-1.9-0.7s-1-0.8-1.7-0.8c-0.7,0-2.1-0.2-2.1-0.7
	c0-0.5-1.1-0.8-2-0.8s-3-0.8-3.3-1.8c-0.2-1-0.4-1.6-1.2-2.2c-0.8-0.6-4-6.2-4-6.2s-1.9-1.4-1.8-2.5c0.1-1.1-0.6-2.8-1.4-3.4
	S1031.9,157.7,1029.3,159.2z"/>
<path class="st6" d="M1046.7,178.6c0,0-2.6,2.6-1.9,3.1L1046.7,178.6z"/>
<path class="st6" d="M1049.5,180.7c0,0-3.4,2.6-2.5,2.8C1047.9,183.6,1049.5,180.7,1049.5,180.7z"/>
<path class="st6" d="M1043.7,184.5c0.5,0.2,7.7,4.5,10.4,4.5L1043.7,184.5z"/>
<path class="st6" d="M1044.2,155.9c0,0-1.3,4.2-1.8,4.2c-0.4,0-6.8-5.2-9.4-7.3l0.1-0.1c0,0,0.2-1.9,1.2-2.8
	C1035.4,148.8,1044.2,155.9,1044.2,155.9z"/>
<path class="st14" d="M1044,155.4c0,0-1.3,4.2-1.8,4.2c-0.4,0-6.8-5.2-9.4-7.3l0.1-0.1c0,0,0.2-1.9,1.2-2.8S1044,155.4,1044,155.4z"
	/>
<g class="st25">
	<path d="M1026.9,141.9L1026.9,141.9c0.8,1.9,3.2,2.9,4.5,4.4C1030.6,144.4,1028.3,143.5,1026.9,141.9z"/>
	<path d="M1035.5,146.4c-0.3,0.6-1.1,1-1.9,0.9c-0.6,0-1.3-0.2-1.9-0.5c0.2,0.3,0.4,0.7,0.5,1c0.7,0.3,1.4,0.5,2.1,0.6
		c0.7,0,1.5-0.3,1.9-0.9c0.5-1,0-1.9-0.7-2.8C1035.8,145.3,1035.8,145.9,1035.5,146.4z"/>
	<path d="M1046.1,132.2c-0.1-0.5-0.5-1-0.7-1.5c-0.1-0.4-0.2-0.8-0.3-1.2c-0.2-0.6-0.5-1.1-0.9-1.6c0.1,0.1,0.1,0.3,0.1,0.4
		c0.1,0.4,0.2,0.8,0.3,1.2c0.2,0.5,0.6,0.9,0.7,1.5c0.1,0.8-0.3,1.6-1.1,1.8c-1,0.2-2.2-0.7-3.1-0.1c-0.6,0.4-0.7,1.1-0.8,1.7
		c-0.1,1.1-0.3,2.3-0.4,3.4c0,0.4-0.1,0.8-0.2,1.2c-0.4,1-1.7,1.5-2.8,1.5c-0.4,0-0.9-0.1-1.2-0.4c-0.2-0.2-0.3-0.4-0.5-0.7
		c-1.4-1.2-1.8,1.7-1.5,2.5c0.2,0.4,0.4,0.7,0.7,1c-0.3-0.9,0.1-3.6,1.5-2.5c0.2,0.2,0.4,0.4,0.5,0.7c0.3,0.3,0.8,0.4,1.2,0.4
		c1.1,0,2.3-0.5,2.8-1.5c0.1-0.4,0.2-0.8,0.2-1.2c0.1-1.1,0.3-2.3,0.4-3.4c0.1-0.7,0.2-1.4,0.8-1.7c0.9-0.6,2.1,0.3,3.1,0.1
		C1045.7,133.7,1046.2,133,1046.1,132.2z"/>
</g>
<path class="st6" d="M1108.8,150.3c-0.3,0.1-0.6,0-0.9,0c-1.1-0.2-2.2-0.8-2.9-1.7c-0.4-0.5-0.7-1.2-0.5-1.8
	c0.2-0.5,0.7-0.8,0.8-1.3c0.1-0.3,0-0.6,0-0.9l-0.3-1.4c-0.1-0.4-0.2-0.9-0.6-1c-0.4-0.1-0.7,0.2-1,0.5c-0.8,0.6-2.2,1-3.1,0.5
	c-0.9-0.5-0.7-2.1-0.8-3c0-0.2-0.1-0.3-0.2-0.4c-0.1,0-0.3-0.1-0.4,0c-0.5,0-0.9-0.4-1-0.9c-0.1-0.5-0.2-1-0.2-1.5
	c-0.1-0.5-0.2-1-0.7-1.3c-0.3-0.2-0.7-0.2-1.1-0.2l-2.1,0c-0.5,0-1.1,0-1.4-0.5c-0.3-0.4-0.1-1,0.2-1.5s0.7-0.9,0.7-1.4
	c0-0.5-0.3-1-0.6-1.5c-0.2-0.2-0.3-0.5-0.4-0.8l-0.6,0c-0.2,0.5,0,1.1,0.3,1.5c0.3,0.5,0.6,0.9,0.6,1.5s-0.4,1-0.7,1.4
	s-0.5,1-0.2,1.5c0.3,0.4,0.9,0.5,1.4,0.5l2.1,0c0.4,0,0.7,0,1.1,0.2c0.4,0.3,0.6,0.8,0.7,1.3c0,0.5,0.1,1,0.2,1.5
	c0.1,0.5,0.5,0.9,1,0.9c0.1,0,0.3,0,0.4,0c0.1,0.1,0.2,0.2,0.2,0.4c0.1,0.9-0.1,2.5,0.8,3c0.9,0.5,2.4,0.1,3.1-0.5
	c0.3-0.2,0.7-0.6,1-0.5s0.5,0.6,0.6,1l0.3,1.4c0.1,0.3,0.1,0.6,0,0.9c-0.1,0.5-0.7,0.8-0.9,1.3c-0.2,0.6,0.1,1.3,0.5,1.8
	c0.7,0.9,1.8,1.5,2.9,1.7c0.3,0.1,0.6,0.1,0.9,0c0.5-0.1,0.9-0.5,1.2-0.9C1109.1,150.1,1108.9,150.2,1108.8,150.3z"/>
<ellipse class="st1" cx="978.8" cy="274.3" rx="6.8" ry="1.1"/>
<ellipse class="st1" cx="1217.8" cy="247" rx="6.8" ry="1.1"/>
<ellipse class="st1" cx="1148" cy="289.3" rx="19.8" ry="3"/>
<ellipse class="st1" cx="1204.4" cy="276.4" rx="15.5" ry="2.4"/>
<ellipse class="st1" cx="1201.9" cy="300.1" rx="26.2" ry="4"/>
<ellipse class="st1" cx="949.5" cy="303.6" rx="19.8" ry="3"/>
<path class="st23" d="M979.1,240.8c0,0,0.8,1-0.4,2.5s-2.1,2.8-1.7,3.8c0,0,1.7-2.8,3.1-2.9C981.6,244.2,980.7,242.5,979.1,240.8z"
	/>
<path class="st6" d="M979.1,240.8c0.1,0.1,0.1,0.2,0.2,0.3c1.4,1.6,2.1,3.1,0.8,3.1c-1.2,0-2.7,2.2-3,2.8c0,0,0,0.1,0,0.1
	c0,0,1.7-2.8,3.1-2.9C981.6,244.2,980.7,242.5,979.1,240.8z"/>
<path class="st26" d="M980.6,242.1c0,0.4,0,0.6-0.1,0.6c0,0-0.1-0.3-0.1-0.6c0-0.4,0.1-0.2,0.1-0.2
	C980.6,241.9,980.6,241.8,980.6,242.1z"/>
<path class="st26" d="M981.1,242.5c-0.3,0.2-0.6,0.3-0.6,0.2c0-0.1,0.2-0.2,0.5-0.4c0.3-0.2,0.2,0,0.2,0
	C981.2,242.4,981.4,242.4,981.1,242.5z"/>
<path class="st23" d="M975.1,240.8c0,0-0.8,1,0.4,2.5c1.1,1.5,2.1,2.8,1.7,3.8c0,0-1.7-2.8-3.1-2.9
	C972.6,244.2,973.5,242.5,975.1,240.8z"/>
<path class="st6" d="M975.1,240.8c-0.1,0.1-0.1,0.2-0.2,0.3c-1.4,1.6-2.1,3.1-0.8,3.1c1.2,0,2.7,2.2,3,2.8c0,0,0,0.1,0,0.1
	c0,0-1.7-2.8-3.1-2.9C972.6,244.2,973.5,242.5,975.1,240.8z"/>
<path class="st26" d="M973.6,242.1c0,0.4,0,0.6,0.1,0.6s0.1-0.3,0.1-0.6c0-0.4-0.1-0.2-0.1-0.2S973.6,241.8,973.6,242.1z"/>
<path class="st26" d="M973.1,242.5c0.3,0.2,0.6,0.3,0.6,0.2c0-0.1-0.2-0.2-0.5-0.4s-0.2,0-0.2,0S972.8,242.4,973.1,242.5z"/>
<ellipse class="st1" cx="977.1" cy="253.7" rx="8.1" ry="1.2"/>
<path class="st27" d="M981.3,245.8l0,0.3l-0.1,0.4l0,0.2l-0.1,0.4l0,0.2l-0.1,0.4l-0.6,5.1c-0.1,0.5-0.8,0.8-1.7,0.8h-3.2
	c-0.9,0-1.6-0.4-1.7-0.8l-0.6-5.1l-0.1-0.4l0-0.2l-0.1-0.4l0-0.2l-0.1-0.4l0-0.3c0-0.3,0.4-0.5,0.9-0.5h6.6
	C980.9,245.3,981.3,245.5,981.3,245.8z"/>
<polygon class="st28" points="981.2,246.1 981.2,246.6 973,246.6 973,246.1 "/>
<polygon class="st28" points="981.2,246.7 981.1,247.2 973.1,247.2 973,246.7 "/>
<polygon class="st28" points="981.1,247.4 981,247.8 973.2,247.8 973.1,247.4 "/>
<path class="st23" d="M1212.4,236.9c0,0-1,4.5,3.3,5l0.3-0.5C1216,241.4,1212.7,238.3,1212.4,236.9z"/>
<path class="st23" d="M1217.4,241.4l-1,0.2l-0.1,0c0,0-2.7-2.2-2.6-7c0.4,0.7,0.8,1.4,1.3,2C1216,238.1,1217.2,239.9,1217.4,241.4z"
	/>
<path class="st23" d="M1217.7,241.9c-0.2,0.1-0.4,0.1-0.5,0.1c-2.6-0.6-1.7-9-1.7-9c0.1,0.1,0.3,1.1,0.9,2.5
	C1217.4,237.9,1218.6,241.3,1217.7,241.9z"/>
<path class="st23" d="M1223.5,236.9c0,0,0.2,4.5-4.1,5l-0.3-0.5C1219,241.4,1223.2,238.3,1223.5,236.9z"/>
<path class="st23" d="M1222.2,234.6c0,4.8-3.4,7-3.4,7l-0.1,0l-1-0.2c0.2-1.5,1.4-3.4,2.5-4.8
	C1220.7,235.9,1221.4,235.2,1222.2,234.6z"/>
<path class="st23" d="M1218.7,241.4c-0.2,0.2-0.3,0.3-0.6,0.4l0,0c-0.1,0-0.1,0.1-0.2,0.1c-0.6,0.1-0.8-0.3-0.8-1.1
	c0.1-1.4,0.9-3.8,1.7-5.6c0.4-0.9,0.9-1.7,1.6-2.3C1220.4,233,1220.3,239.5,1218.7,241.4z"/>
<path class="st23" d="M1217.9,230c0,0-2.9,10.2-0.4,11.7S1218.6,230.9,1217.9,230z"/>
<path class="st6" d="M1212.4,236.9c0,0-1,4.5,3.3,5l0.3-0.5C1216,241.4,1212.7,238.3,1212.4,236.9z"/>
<path class="st6" d="M1217.4,241.4l-1,0.2l-0.1,0c0,0-2.7-2.2-2.6-7c0.4,0.7,0.8,1.4,1.3,2C1216,238.1,1217.2,239.9,1217.4,241.4z"
	/>
<path class="st6" d="M1217.7,241.9c-0.2,0.1-0.4,0.1-0.5,0.1c-2.6-0.6-1.7-9-1.7-9c0.1,0.1,0.3,1.1,0.9,2.5
	C1217.4,237.9,1218.6,241.3,1217.7,241.9z"/>
<path class="st6" d="M1223.5,236.9c0,0,0.2,4.5-4.1,5l-0.3-0.5C1219,241.4,1223.2,238.3,1223.5,236.9z"/>
<path class="st6" d="M1222.2,234.6c0,4.8-3.4,7-3.4,7l-0.1,0l-1-0.2c0.2-1.5,1.4-3.4,2.5-4.8
	C1220.7,235.9,1221.4,235.2,1222.2,234.6z"/>
<path class="st6" d="M1218.7,241.4c-0.2,0.2-0.3,0.3-0.6,0.4l0,0c-0.1,0-0.1,0.1-0.2,0.1c-0.6,0.1-0.8-0.3-0.8-1.1
	c0.1-1.4,0.9-3.8,1.7-5.6c0.4-0.9,0.9-1.7,1.6-2.3C1220.4,233,1220.3,239.5,1218.7,241.4z"/>
<path class="st6" d="M1217.9,230c0,0-2.9,10.2-0.4,11.7S1218.6,230.9,1217.9,230z"/>
<path class="st23" d="M1212.4,236.9c0,0-0.6,4.5,3.7,5l0.3-0.5C1216.4,241.4,1212.7,238.3,1212.4,236.9z"/>
<path class="st23" d="M1217.8,241.4l-1,0.2l-0.1,0c0,0-3.1-2.2-3-7c0,0,0.8,0.8,1.7,2C1216.4,238.1,1217.6,239.9,1217.8,241.4z"/>
<path class="st6" d="M1217.8,241.4l-1,0.2c-0.9-0.8-1.3-3-1.5-5C1216.4,238.1,1217.6,239.9,1217.8,241.4z"/>
<path class="st23" d="M1218.1,241.9c-0.2,0.1-0.4,0.1-0.5,0.1c-2.6-0.6-2.1-9-2.1-9c0.1,0.1,0.7,1.1,1.3,2.5
	C1217.8,237.9,1219,241.3,1218.1,241.9z"/>
<path class="st23" d="M1223.5,236.9c0,0,0.6,4.5-3.7,5l-0.3-0.5C1219.4,241.4,1223.2,238.3,1223.5,236.9z"/>
<path class="st23" d="M1222.2,234.6c0,4.8-3,7-3,7l-0.1,0l-1-0.2c0.2-1.5,1.4-3.4,2.5-4.8C1221.4,235.5,1222.2,234.6,1222.2,234.6z"
	/>
<path class="st6" d="M1220.5,236.7c-0.1,1.8-0.5,3.8-1.3,4.8c-0.1,0.1-0.1,0.1-0.2,0.2l-1-0.2
	C1218.3,239.9,1219.5,238.1,1220.5,236.7z"/>
<path class="st23" d="M1219.1,241.4c-0.2,0.2-0.3,0.3-0.6,0.4l0,0c-0.1,0-0.1,0.1-0.2,0.1c-0.6,0.1-0.8-0.3-0.8-1.1
	c0.1-1.4,0.9-3.8,1.7-5.6c0.6-1.3,1.1-2.3,1.2-2.3C1220.4,233,1220.7,239.5,1219.1,241.4z"/>
<path class="st6" d="M1218.1,241.9c-0.1,0-0.3,0-0.4-0.1c-1.2-0.8-1.2-3.6-0.9-6.3C1217.8,237.9,1219,241.3,1218.1,241.9z"/>
<path class="st6" d="M1219.1,241.4c-0.1,0.3-0.3,0.5-0.6,0.4l0,0c-0.1,0-0.2-0.1-0.3-0.1c-0.3-0.2-0.6-0.5-0.7-0.9
	c0.1-1.4,0.9-3.8,1.7-5.6C1219.4,237.8,1219.5,240.4,1219.1,241.4z"/>
<path class="st23" d="M1217.9,230c0,0-2.5,10.2,0,11.7C1220.4,243.3,1218.6,230.9,1217.9,230z"/>
<polygon class="st29" points="1222.7,241.2 1212.4,241.2 1212.4,242.9 1214,242.9 1214,243.2 1214.6,246.5 1220.6,246.5 
	1221.2,243.2 1221.3,242.9 1222.7,242.9 "/>
<polygon class="st6" points="1222.7,241.2 1212.4,241.2 1212.4,242.9 1214,242.9 1214,243.2 1214.6,246.5 1220.6,246.5 
	1221.2,243.2 1221.3,242.9 1222.7,242.9 "/>
<polygon class="st29" points="1221.8,242.2 1221.6,243.2 1221,246.5 1215,246.5 1214.4,243.2 1214.2,242.2 "/>
<polygon class="st6" points="1221.8,242.2 1221.6,243.2 1214.4,243.2 1214.2,242.2 "/>
<rect x="1212.8" y="241.2" class="st29" width="10.3" height="1.7"/>
<path class="st23" d="M960.6,270.4c-0.3,0.4-0.5,0.8-0.6,1.2c0,0.1-0.1,0.2-0.1,0.3c-0.1,0-0.1-0.1-0.2-0.1c-0.3-0.1-0.7-0.1-1-0.1
	c0-0.1,0-0.3,0-0.4c0-1.5-0.1-3.6-1.6-2.7c-1.4,0.8-0.4,2.3,0.5,3.2c0.1,0.1,0.2,0.2,0.2,0.2c-0.8,0.6-1,1.9-1.1,3.3
	c-0.1,1.4-1.3,2.9-2.1,3.8c-0.1,0.1-0.2,0.2-0.2,0.2c-0.6-0.5-1.5-0.7-2.3-0.6c0-0.1-0.1-0.2-0.1-0.4c-0.6-2.3-2-6.3-3.6-7.1
	l0.2-0.3c0.7-0.9,1.5-2.3,0.3-2.7c-1.2-0.4-1.3,1.2-1.2,2.4c0,0.1,0,0.3,0,0.4c-0.5,0-0.9,0.2-1.2,0.6l-0.2-0.2
	c-1-1.1-2.7-2.9-3.3-1.6c-0.5,1.3,1.1,2.9,2.1,3.9l0.1,0.1c-0.7,3,2.5,5.4,4.2,6.5l0.2,0.1c-2.4,2.8-3.8,8.1-3.8,8.1l6.7,1.2
	c0,0,4.4-3.8,3.9-7.4h0c4.4-0.9,5.4-5.6,4.7-8.4l0.1,0c0.8-0.3,1.5-0.9,2-1.5C964.5,270.6,961.9,268.7,960.6,270.4z"/>
<path class="st6" d="M960.6,270.4c-0.3,0.4-0.5,0.8-0.6,1.2c0,0.1-0.1,0.2-0.1,0.3c-0.1,0-0.1-0.1-0.2-0.1c-0.3-0.1-0.7-0.1-1-0.1
	c0-0.1,0-0.3,0-0.4c0-1.5-0.1-3.6-1.6-2.7c-1.4,0.8-0.4,2.3,0.5,3.2c0.1,0.1,0.2,0.2,0.2,0.2c-0.8,0.6-1,1.9-1.1,3.3
	c-0.1,1.4-1.3,2.9-2.1,3.8c-0.1,0.1-0.2,0.2-0.2,0.2c-0.6-0.5-1.5-0.7-2.3-0.6c0-0.1-0.1-0.2-0.1-0.4c-0.6-2.3-2-6.3-3.6-7.1
	l0.2-0.3c0.7-0.9,1.5-2.3,0.3-2.7c-1.2-0.4-1.3,1.2-1.2,2.4c0,0.1,0,0.3,0,0.4c-0.5,0-0.9,0.2-1.2,0.6l-0.2-0.2
	c-1-1.1-2.7-2.9-3.3-1.6c-0.5,1.3,1.1,2.9,2.1,3.9l0.1,0.1c-0.7,3,2.5,5.4,4.2,6.5l0.2,0.1c-2.4,2.8-3.8,8.1-3.8,8.1l6.7,1.2
	c0,0,4.4-3.8,3.9-7.4h0c4.4-0.9,5.4-5.6,4.7-8.4l0.1,0c0.8-0.3,1.5-0.9,2-1.5C964.5,270.6,961.9,268.7,960.6,270.4z"/>
<path class="st23" d="M947.4,272.3l-0.8,2.3c0,0-0.4-0.3-1-0.8c-1.1-1-2.6-2.6-2.1-3.9c0.5-1.4,2.3,0.4,3.3,1.6
	C947.1,271.9,947.4,272.3,947.4,272.3z"/>
<path class="st23" d="M949,271c-0.2,0.3-0.5,0.6-0.8,0.9c-0.1-0.4-0.1-0.8-0.1-1.2c-0.1-1.2,0.1-2.7,1.2-2.4
	C950.5,268.7,949.7,270.1,949,271z"/>
<path class="st23" d="M959.1,271.4c0,0.8-0.1,1.4-0.1,1.4c-0.3-0.3-0.7-0.6-1-0.9c-0.9-0.9-1.9-2.3-0.5-3.2
	C958.9,267.8,959.1,269.9,959.1,271.4z"/>
<path class="st23" d="M963.7,272.3c-0.5,0.7-1.2,1.2-2,1.5c-0.2,0.1-0.5,0.2-0.7,0.2l-0.9-1.3c0.1-0.4,0.2-0.8,0.4-1.3
	c0.2-0.4,0.4-0.8,0.6-1.2C962.3,268.7,964.9,270.6,963.7,272.3z"/>
<path class="st6" d="M946.7,271.5c0.4,0.5,0.6,0.8,0.6,0.8l-0.8,2.3c0,0-0.4-0.3-1-0.8c0.1-0.7,0.4-1.4,0.9-2
	C946.6,271.7,946.6,271.6,946.7,271.5z"/>
<path class="st6" d="M949,271c-0.2,0.3-0.5,0.6-0.8,0.9c-0.1-0.4-0.1-0.8-0.1-1.2C948.4,270.7,948.8,270.8,949,271z"/>
<path class="st23" d="M952.8,280l-1.9,0.8c0,0-0.4-0.2-1-0.6c-2-1.3-6.1-4.4-3.4-8.1c2.7-3.7,5,2.9,5.9,6.2
	C952.7,279.4,952.8,280,952.8,280z"/>
<path class="st6" d="M958,271.8c0.3-0.3,0.7-0.5,1.1-0.5c0,0.8-0.1,1.4-0.1,1.4C958.6,272.4,958.3,272.1,958,271.8z"/>
<path class="st6" d="M961.6,273.9c-0.2,0.1-0.5,0.2-0.7,0.2l-0.9-1.3c0.1-0.4,0.2-0.8,0.4-1.3C961,271.9,961.4,272.8,961.6,273.9z"
	/>
<path class="st23" d="M956.8,282.3c-0.1,0-0.2,0-0.3,0.1c-6.5,1-2.1-2.5-2.1-2.5s0.3-0.3,0.7-0.7c0.8-0.9,2-2.4,2.1-3.8
	c0.2-2.1,0.4-4.1,2.9-3.5C962.5,272.4,963,281.1,956.8,282.3z"/>
<rect x="944.3" y="298.5" class="st30" width="12.4" height="3.3"/>
<rect x="942.3" y="287.9" class="st30" width="16.2" height="11.4"/>
<rect x="944.3" y="298.5" class="st6" width="12.4" height="3.3"/>
<rect x="942.3" y="287.9" class="st6" width="16.2" height="11.4"/>
<rect x="945.1" y="298.5" class="st30" width="12.4" height="3.3"/>
<path class="st6" d="M952.4,278.4c0.3,1,0.4,1.6,0.4,1.6l-1.9,0.8c0,0-0.4-0.2-1-0.6C950.6,279.3,951.5,278.6,952.4,278.4z"/>
<path class="st6" d="M956.8,282.3c-0.1,0-0.2,0-0.3,0.1c-6.5,1-2.1-2.5-2.1-2.5s0.3-0.3,0.7-0.7
	C956.2,280.1,956.7,281.2,956.8,282.3z"/>
<path class="st23" d="M946.2,288.5c0,0,3.6-13,8.7-9s-2.1,10.2-2.1,10.2L946.2,288.5z"/>
<circle class="st6" cx="948.1" cy="274.2" r="0.4"/>
<circle class="st6" cx="948" cy="276.1" r="0.4"/>
<circle class="st6" cx="959.9" cy="274.6" r="0.4"/>
<circle class="st6" cx="950.4" cy="284.4" r="0.4"/>
<circle class="st6" cx="959" cy="277.8" r="0.4"/>
<circle class="st6" cx="954.8" cy="282" r="0.4"/>
<circle class="st6" cx="949.5" cy="275" r="0.4"/>
<circle class="st6" cx="958.8" cy="275.8" r="0.4"/>
<circle class="st6" cx="957.4" cy="279" r="0.4"/>
<circle class="st6" cx="953.1" cy="284.1" r="0.4"/>
<circle class="st6" cx="952.2" cy="282" r="0.4"/>
<circle class="st6" cx="950.1" cy="277.5" r="0.4"/>
<rect x="945.1" y="298.5" class="st6" width="12.4" height="1.2"/>
<rect x="943.1" y="287.9" class="st30" width="16.2" height="11.4"/>
<circle class="st6" cx="953.6" cy="285.9" r="0.4"/>
<circle class="st6" cx="951.2" cy="286.4" r="0.4"/>
<circle class="st1" cx="935.3" cy="86.7" r="3"/>
<circle class="st1" cx="1219.8" cy="179.9" r="4"/>
<circle class="st1" cx="1227.4" cy="171.4" r="2.9"/>
<circle class="st1" cx="940.4" cy="76" r="4"/>
<circle class="st1" cx="925.1" cy="94.1" r="4"/>
</svg>
