<?xml version="1.0" encoding="utf-8"?>
<!-- Generator: Adobe Illustrator 22.0.1, SVG Export Plug-In . SVG Version: 6.00 Build 0)  -->
<svg version="1.1" id="Layer_1" xmlns="http://www.w3.org/2000/svg" xmlns:xlink="http://www.w3.org/1999/xlink" x="0px" y="0px"
	 viewBox="0 0 1300 400" style="enable-background:new 0 0 1300 400;" xml:space="preserve">
<style type="text/css">
	.st0{fill:url(#SVGID_1_);stroke:#000000;stroke-width:1.6452;stroke-miterlimit:10;}
	.st1{opacity:0.1;fill:#0D8CD8;enable-background:new    ;}
	.st2{fill:none;stroke:#535461;stroke-width:0.678;stroke-miterlimit:10;}
	.st3{fill:#0D8CD8;}
	.st4{fill:#FC6681;}
	.st5{fill:url(#SVGID_2_);}
	.st6{fill:#555388;}
	.st7{fill:#603556;}
	.st8{opacity:0.1;enable-background:new    ;}
	.st9{fill:url(#SVGID_3_);}
	.st10{fill:#535461;}
	.st11{fill:#E2E2EC;}
	.st12{opacity:0.1;fill:none;stroke:#000000;stroke-width:0.678;stroke-miterlimit:10;enable-background:new    ;}
	.st13{fill:none;stroke:#E2E2EC;stroke-width:0.678;stroke-miterlimit:10;}
	.st14{fill:#C87486;}
	.st15{fill:none;}
	.st16{fill:#DFE5EE;}
	.st17{fill:#603456;}
</style>
<linearGradient id="SVGID_1_" gradientUnits="userSpaceOnUse" x1="0" y1="200" x2="1300" y2="200" gradientTransform="matrix(1 0 0 -1 0 400)">
	<stop  offset="0" style="stop-color:#007194"/>
	<stop  offset="1" style="stop-color:#41C1C9"/>
</linearGradient>
<rect class="st0" width="1300" height="400"/>
<path class="st1" d="M1202.9,200c-12.9,21.9-11.1,51.4-6.1,74.6c1.7,7.8,3.6,15.9,1.9,24.7c-2.1,10.7-9.3,19.2-16.4,24.2
	c-13,9-27.7,9.1-38.2,0.2c-9.1-7.7-14.9-21.3-24.2-28.6c-15.5-12.2-37.3-4.1-56.3,7.9c-13.5,8.5-28.3,19.3-40.5,13.6
	c-8.6-4-13.7-15.6-16-28.4c-1.1-6.1-1.7-12.9-4.4-17.5c-1.6-2.8-3.8-4.6-6.2-6.1c-21.3-13.6-50.7-1.2-71.1-16.6
	c-13.8-10.4-21.4-32.3-23.5-55.9c-2.2-23.6,0.5-48.9,3.7-73.9c2.3-17.7,5.2-36.7,14.1-51.3c9.4-15.4,23.9-22.5,36.4-21.4
	c12.5,1.2,23.2,9.5,32.3,19.7c11.4,12.8,21.7,29.2,36.7,33.1c10.3,2.6,21.6-0.9,32.6-3c18.4-3.5,36.4-3,54.3-2.2
	c17.1,0.8,34.4,1.8,50.2,8c11.2,4.4,19.7,13.8,30.2,19.8c6.8,3.9,14.6,4.3,20.9,9.6c7.8,6.5,14.4,18.7,10.9,34.3
	C1220.9,179.8,1209.7,188.4,1202.9,200z"/>
<path class="st2" d="M956.2,269.2c0,0-22.6-37.5-16.3-71.1c2.7-14.1,1-28.7-5.4-41.6c-3-6.1-6.6-11.9-10.7-17.4"/>
<path class="st3" d="M927.8,117.9c1.3,5-3.9,21.8-3.9,21.8s-12.8-12.1-14.1-17c-1.3-5,1.7-10.1,6.6-11.4
	C921.4,110,926.5,112.9,927.8,117.9L927.8,117.9L927.8,117.9z"/>
<path class="st3" d="M949.9,141.6c-1.6,4.9-15.1,16.1-15.1,16.1s-4.2-17.1-2.6-22c1.5-4.9,6.8-7.6,11.7-6.1
	c4.9,1.5,7.6,6.8,6.1,11.7C950,141.4,950,141.5,949.9,141.6L949.9,141.6z"/>
<path class="st3" d="M961.6,188.9c-3.9,3.4-21.2,6.3-21.2,6.3s5-16.9,8.9-20.3c3.9-3.4,9.8-2.9,13.1,1
	C965.7,179.7,965.4,185.5,961.6,188.9L961.6,188.9z"/>
<path class="st3" d="M962.5,226.6c-3.2,4-19.8,9.8-19.8,9.8s2.1-17.5,5.3-21.5c3.2-4,9.1-4.6,13.1-1.4
	C965,216.8,965.6,222.6,962.5,226.6z"/>
<path class="st3" d="M916.1,163.7c4.5,2.5,22,1.8,22,1.8s-8.4-15.4-12.9-18c-4.4-2.6-10.1-1.2-12.8,3.2c-2.6,4.4-1.2,10.1,3.2,12.8
	C915.9,163.5,916,163.6,916.1,163.7L916.1,163.7z"/>
<path class="st3" d="M917.6,207.8c5,1.1,21.6-4.9,21.6-4.9s-12.6-12.2-17.7-13.3c-5-1.1-10,2.1-11.1,7.2S912.6,206.7,917.6,207.8
	L917.6,207.8z"/>
<path class="st3" d="M925,250.5c4.8,1.9,22.1-1.2,22.1-1.2s-10.4-14.2-15.2-16.1c-4.8-1.7-10.2,0.8-11.9,5.6
	C918.4,243.4,920.5,248.5,925,250.5L925,250.5z"/>
<path class="st3" d="M927.8,117.9c1.3,5-3.9,21.8-3.9,21.8s-12.8-12.1-14.1-17c-1.3-5,1.7-10.1,6.6-11.4
	C921.4,110,926.5,112.9,927.8,117.9L927.8,117.9L927.8,117.9z"/>
<path class="st3" d="M949.9,141.6c-1.6,4.9-15.1,16.1-15.1,16.1s-4.2-17.1-2.6-22c1.5-4.9,6.8-7.6,11.7-6.1
	c4.9,1.5,7.6,6.8,6.1,11.7C950,141.4,950,141.5,949.9,141.6L949.9,141.6z"/>
<path class="st4" d="M961.6,188.9c-3.9,3.4-21.2,6.3-21.2,6.3s5-16.9,8.9-20.3c3.9-3.4,9.8-2.9,13.1,1
	C965.7,179.7,965.4,185.5,961.6,188.9L961.6,188.9z"/>
<path class="st4" d="M962.5,226.6c-3.2,4-19.8,9.8-19.8,9.8s2.1-17.5,5.3-21.5c3.2-4,9.1-4.6,13.1-1.4
	C965,216.8,965.6,222.6,962.5,226.6z"/>
<path class="st3" d="M916.1,163.7c4.5,2.5,22,1.8,22,1.8s-8.4-15.4-12.9-18c-4.4-2.6-10.1-1.2-12.8,3.2c-2.6,4.4-1.2,10.1,3.2,12.8
	C915.9,163.5,916,163.6,916.1,163.7L916.1,163.7z"/>
<path class="st3" d="M917.6,207.8c5,1.1,21.6-4.9,21.6-4.9s-12.6-12.2-17.7-13.3c-5-1.1-10,2.1-11.1,7.2S912.6,206.7,917.6,207.8
	L917.6,207.8z"/>
<path class="st3" d="M925,250.5c4.8,1.9,22.1-1.2,22.1-1.2s-10.4-14.2-15.2-16.1c-4.8-1.7-10.2,0.8-11.9,5.6
	C918.4,243.4,920.5,248.5,925,250.5L925,250.5z"/>
<ellipse class="st1" cx="1069.2" cy="273.5" rx="162.9" ry="11.2"/>
<linearGradient id="SVGID_2_" gradientUnits="userSpaceOnUse" x1="1285.2964" y1="95.1352" x2="1285.2964" y2="249.2707" gradientTransform="matrix(1 0 0 -1 -111.66 370.15)">
	<stop  offset="0" style="stop-color:#808080;stop-opacity:0.25"/>
	<stop  offset="0.54" style="stop-color:#808080;stop-opacity:0.12"/>
	<stop  offset="1" style="stop-color:#808080;stop-opacity:0.1"/>
</linearGradient>
<path class="st5" d="M1209.4,263.9c0,0-0.3-0.4-0.6-0.8l0.1,0c0,0-4.8-12.1-3.8-17.2c1.1-5.1-4.3-17.5-4.3-17.5s-7.9-16.3-4.2-29.2
	c0.4-1.5,0.8-3.1,1-4.7c1.1-7.7,0.7-9.3-1.2-12.1l-0.2-0.3c0.2-0.2,0.4-0.5,0.5-0.8c1.6-4.3-7.5-12.1-5.1-19.4
	c2.2-6.7-3.6-20.6-4.5-22.6l0,0l-0.1-0.2l-0.3,0.1c0-1.7,0.7-3.4,1.9-4.7l0.1-0.1c0.8-0.7,1.8-1.3,2.5-2.1l0-0.1
	c0.1-0.1,0.2-0.1,0.2-0.2c0.7-0.8,1.3-2,0.9-3c-0.4-0.9-1.4-1.5-1.7-2.4c-0.1-0.4-0.1-0.9-0.1-1.3c-0.2-1.4-1.5-2.2-2.7-2.9
	c-1.5-0.8-3.1-1.7-4.8-1.7c-2.3,0-4.4,1.6-6.7,1.8c-0.8,0.1-1.6,0-2.3,0.2c-0.6,0.2-1.1,0.6-1.5,1c-0.3,0.2-0.5,0.4-0.8,0.7
	c-0.5,0.5-1,1.1-0.9,1.8c0,0.5,0.3,1,0.7,1.3c-2.8,3.8-2,9.2,1.8,12c0.4,0.3,0.8,0.6,1.3,0.8c0,0.2,0.1,0.4,0.1,0.6
	c0.3,2.5,0.5,6.1-0.4,9c-3.9,2-9.9,5.2-11,6.7c-0.2,0.2-0.2,0.6-0.1,0.8c0,0.1,0,0.3,0,0.4c-0.8,0.2-2,0-3.3-1.2
	c-3.2-3-13.4-11.8-13.4-11.8s-4.6-11.3-7.8-9.2c-3.2,2.1,3.8,12.6,3.8,12.6l15.3,16.4c0,0,0.5,3.5,6.2,1.6c1.9-0.6,3.5-1.2,5-1.7
	l0.3,0.3c-1.3,7.4-1.9,17.3,2.8,20.3c0.4,0.5,0.6,1,0.8,1.6c0,0.1,0,0.2-0.1,0.3c-0.4,1.5-0.6,3-0.7,4.5c-0.9,2-1.3,4.2-1.2,6.4
	l-1.8,25.6c0,0-0.3,5.6,1.6,9.9c1.9,4.3,7.8,25.8,3.8,27.4l0.4,0.1c-1.2,1.2-3.1,3-4.6,3.3c-2.3,0.5-1.6,4,3.4,4.6s5.6,0.5,9.1-2.4
	c3.1-2.6,3.6-3.7,3.7-4l0.2,0c0,0-1.9-7,0-9.9c1.9-3-4.3-21-4.3-21c-0.1-2.3,0-4.6,0.3-6.9c0.9,2.5,1.6,4.2,1.6,4.2s1.6,7.8,3.5,9.2
	c1.9,1.4,11.8,19.9,10.2,28l-0.2,0.9l0.5-0.1h0c-0.6,1.5-1.7,4-3,4.9c-1.9,1.4,0,4.3,4.8,3s5.4-1.6,7.5-5.6
	C1209.7,265,1209.4,263.9,1209.4,263.9z"/>
<path class="st6" d="M1173.8,192.1l-1.2-1.5c-1.2,2.2-1.8,4.8-1.7,7.3l-1.8,25c0,0-0.3,5.5,1.6,9.7c1.8,4.2,7.6,25.2,3.7,26.8
	l11.8,1.6c0,0-1.8-6.8,0-9.7c1.8-2.9-4.2-20.5-4.2-20.5s-0.5-14.7,4.5-18.1C1191.5,209.3,1173.8,192.1,1173.8,192.1z"/>
<path class="st7" d="M1175.8,258.5c0,0-3.2,3.8-5.4,4.3c-2.2,0.5-1.6,3.9,3.3,4.5c4.9,0.6,5.5,0.5,8.9-2.3c3.4-2.9,3.6-3.9,3.6-3.9
	s-0.7-2.5-1.5-2.6C1183.8,258.4,1175.8,258.5,1175.8,258.5z"/>
<path class="st8" d="M1174.6,192.9l-2-2.2c-1.2,2.2-1.8,4.8-1.7,7.3l-1.8,25c0,0-0.3,5.5,1.6,9.7c1.8,4.2,7.6,25.2,3.7,26.8
	l11.8,1.6c0,0-1.8-6.8,0-9.7c1.8-2.9-4.2-20.5-4.2-20.5s-0.5-14.7,4.5-18.1C1191.5,209.3,1174.6,192.9,1174.6,192.9z"/>
<linearGradient id="SVGID_3_" gradientUnits="userSpaceOnUse" x1="1172.4666" y1="95.2271" x2="1172.4666" y2="259.8169" gradientTransform="matrix(1 0 0 -1 -111.66 370.15)">
	<stop  offset="0" style="stop-color:#808080;stop-opacity:0.25"/>
	<stop  offset="0.54" style="stop-color:#808080;stop-opacity:0.12"/>
	<stop  offset="1" style="stop-color:#808080;stop-opacity:0.1"/>
</linearGradient>
<path class="st9" d="M1186.3,227.2c0,0-3.3-64.5-16.8-87.3c0,0-9.9-18.1-18.2-23.3v-2.1c-13.5-9.3-30.1,0-30.1,0v0.9l-3.5,2.9
	l-15.6-0.1c-1.4-1.7-3.5-2.7-5.8-2.7h-71c-2.1,0-4.1,0.9-5.5,2.4h-16.2c0,0-1-1.1-3.5-2.2v-1.2c-13.5-9.3-30.1,0-30.1,0v2.5
	c-0.4,0.3-0.7,0.6-1,1c0,0-13.7,9.2-16.8,20.6c0,0-16.8,50.3-17.1,89.7s14.9,44.9,22.8,46c7.9,1,22.1-0.3,36-35.3l5.9-20.4
	c0,0,1-12.1,13.5-4.5s23.5-4.1,23.5-4.1h46.7c0,0,15.5,9.7,29.7,2c0,0,5.5-7.3,10.7,17.3c0,0,15.9,50.5,40.5,45.3
	C1189,269.4,1186.3,227.2,1186.3,227.2z"/>
<path class="st10" d="M971.9,119.7V116c0,0,16.3-9.2,29.5,0v3.4L971.9,119.7z"/>
<path class="st10" d="M1120.1,119.7V116c0,0,16.3-9.2,29.5,0v3.4L1120.1,119.7z"/>
<path class="st8" d="M971.9,119.7V116c0,0,16.3-9.2,29.5,0v3.4L971.9,119.7z"/>
<path class="st8" d="M1120.1,119.7V116c0,0,16.3-9.2,29.5,0v3.4L1120.1,119.7z"/>
<path class="st10" d="M1020.8,119.4h-15.9c0,0-4.1-4.7-17.6-4.4c-13.6,0.3-16.3,4.4-16.3,4.4s-13.4,9-16.4,20.2
	c0,0-16.4,49.3-16.8,88c-0.3,38.6,14.6,44.1,22.4,45.1c7.8,1,21.7-0.3,35.3-34.6l5.8-20c0,0,1-11.9,13.2-4.4
	c12.2,7.5,23.1-4.1,23.1-4.1h45.8c0,0,15.3,9.5,29.2,2c0,0,5.4-7.1,10.5,16.9c0,0,15.6,49.5,39.7,44.4c24.1-5.1,21.4-46.4,21.4-46.4
	s-3.2-63.2-16.4-85.6c0,0-12.7-23.2-21.2-24.2c0,0-18.3-3.4-25.4-0.3l-4.1,3.4L1020.8,119.4z"/>
<circle class="st11" cx="983.8" cy="152.6" r="29.5"/>
<circle class="st11" cx="1137.7" cy="152.6" r="29.5"/>
<path class="st10" d="M989,146l-3.9,3.5c-0.7,0.6-1.7,0.6-2.4,0l-3.9-3.5c-0.4-0.3-0.6-0.8-0.6-1.4v-9.6c0-1,0.8-1.8,1.8-1.8h7.9
	c1,0,1.8,0.8,1.8,1.8c0,0,0,0,0,0v9.6C989.6,145.2,989.3,145.7,989,146z"/>
<path class="st10" d="M989,159.2l-3.9-3.5c-0.7-0.6-1.7-0.6-2.4,0l-3.9,3.5c-0.4,0.3-0.6,0.8-0.6,1.4v9.6c0,1,0.8,1.8,1.8,1.8
	c0,0,0,0,0,0h7.9c1,0,1.8-0.8,1.8-1.8c0,0,0,0,0,0v-9.6C989.6,160,989.3,159.5,989,159.2z"/>
<path class="st10" d="M977.2,157.8l3.5-3.9c0.6-0.7,0.6-1.7,0-2.4l-3.5-3.9c-0.3-0.4-0.8-0.6-1.4-0.6h-9.6c-1,0-1.8,0.8-1.8,1.8v7.9
	c0,1,0.8,1.8,1.8,1.8c0,0,0,0,0,0h9.6C976.4,158.4,976.9,158.2,977.2,157.8z"/>
<path class="st10" d="M990.4,157.8l-3.5-3.9c-0.6-0.7-0.6-1.7,0-2.4l3.5-3.9c0.3-0.4,0.8-0.6,1.4-0.6h9.6c1,0,1.8,0.8,1.8,1.8
	c0,0,0,0,0,0v7.9c0,1-0.8,1.8-1.8,1.8c0,0,0,0,0,0h-9.6C991.2,158.4,990.7,158.2,990.4,157.8z"/>
<polygon class="st2" points="978.7,130.9 988.9,130.9 983.8,126.5 "/>
<polygon class="st2" points="978.7,174.3 988.9,174.3 983.8,178.7 "/>
<polygon class="st2" points="962.1,147.5 962.1,157.7 957.7,152.6 "/>
<polygon class="st2" points="1005.5,147.5 1005.5,157.7 1009.9,152.6 "/>
<circle class="st11" cx="1023.8" cy="184.8" r="21.4"/>
<circle class="st10" cx="1023.1" cy="181.4" r="14.2"/>
<circle class="st11" cx="1097.7" cy="184.8" r="21.4"/>
<circle class="st10" cx="1097" cy="181.4" r="14.2"/>
<circle class="st12" cx="1023.1" cy="181.4" r="9.5"/>
<circle class="st12" cx="1097" cy="181.4" r="9.5"/>
<circle class="st11" cx="1061.4" cy="187.2" r="6.1"/>
<circle class="st11" cx="1052.1" cy="166.8" r="1.3"/>
<circle class="st11" cx="1057.1" cy="166.8" r="1.3"/>
<circle class="st11" cx="1056.4" cy="173.2" r="1.3"/>
<circle class="st11" cx="1061.1" cy="173.3" r="1.4"/>
<circle class="st11" cx="1065.8" cy="173.2" r="1.3"/>
<circle class="st11" cx="1054.4" cy="170.2" r="1.3"/>
<circle class="st11" cx="1058.7" cy="170.2" r="1.4"/>
<circle class="st11" cx="1063.1" cy="170.2" r="1.4"/>
<circle class="st11" cx="1067.8" cy="170.2" r="1.3"/>
<circle class="st11" cx="1061.1" cy="166.9" r="1.4"/>
<circle class="st11" cx="1065.9" cy="166.9" r="1.4"/>
<circle class="st11" cx="1069.8" cy="166.8" r="1.3"/>
<path class="st11" d="M1010.8,121.8h1.7c1.6,0,2.9,1.3,2.9,2.9v7.1c0,1.6-1.3,2.9-2.9,2.9h-1.7c-1.6,0-2.9-1.3-2.9-2.9v-7.1
	C1007.9,123.1,1009.2,121.8,1010.8,121.8z"/>
<path class="st11" d="M1109.8,121.8h1.7c1.6,0,2.9,1.3,2.9,2.9v7.1c0,1.6-1.3,2.9-2.9,2.9h-1.7c-1.6,0-2.9-1.3-2.9-2.9v-7.1
	C1106.9,123.1,1108.2,121.8,1109.8,121.8z"/>
<circle class="st10" cx="1138.1" cy="134.7" r="8.1"/>
<circle class="st10" cx="1120.8" cy="151.9" r="8.1"/>
<circle class="st10" cx="1156" cy="150.9" r="8.1"/>
<circle class="st10" cx="1139.4" cy="168.9" r="8.1"/>
<path class="st11" d="M1026.1,117h69.7c4.1,0,7.4,3.3,7.4,7.4v30.3c0,4.1-3.3,7.4-7.4,7.4h-69.7c-4.1,0-7.4-3.3-7.4-7.4v-30.3
	C1018.7,120.3,1022,117,1026.1,117z"/>
<polygon class="st13" points="1133.1,138 1137.9,129.9 1143,138 "/>
<rect x="1116.5" y="148.2" class="st13" width="8.5" height="7.5"/>
<circle class="st13" cx="1156" cy="150.9" r="4.7"/>
<line class="st13" x1="1135.5" y1="165.1" x2="1143.1" y2="172.7"/>
<line class="st13" x1="1143.3" y1="165.1" x2="1135.5" y2="172.5"/>
<path class="st3" d="M1017.6,270.8c1-0.8,2-1.7,2.3-2.8c0.3-1.2-0.4-2.5-1.6-2.9c-1.5-0.5-3,0.4-4.2,1.2c-1.2,0.8-2.5,1.8-4.1,1.6
	c1.6-1.2,2.4-3.1,1.9-4.7c-0.1-0.4-0.3-0.7-0.5-1c-0.8-0.7-2.3-0.4-3.3,0.2c-3.1,1.8-3.9,5.2-4,8.3c-0.3-1.1,0-2.3-0.1-3.4
	c0-1.1-0.4-2.4-1.6-3c-0.8-0.3-1.6-0.5-2.4-0.5c-1.4,0-2.9,0.1-3.9,0.9c-1.2,1-0.9,2.8,0.2,3.9s2.6,1.8,4,2.6
	c1.1,0.6,2.2,1.3,2.9,2.2c0.1,0.1,0.2,0.3,0.2,0.4h8.7C1014.2,273,1016,272,1017.6,270.8z"/>
<path class="st7" d="M1198.1,264c0,0-1.6,4.7-3.4,6c-1.8,1.3,0,4.2,4.7,2.9c4.7-1.3,5.3-1.6,7.4-5.5c2.1-3.9,1.8-5,1.8-5
	s-1.6-2.1-2.4-1.8C1205.5,260.8,1198.1,264,1198.1,264z"/>
<path class="st14" d="M1188.4,146c0,0-21.3,11.8-16.3,8.4c3.4-2.3,3.2-8.4,2.7-12.1c-0.2-1.2-0.3-2.1-0.5-2.6
	c-0.1-0.3-0.1-0.5-0.1-0.5s10.3-6.2,9.7-2.5l0,0c0,0,0,0.1,0,0.1c0,0.2-0.1,0.5-0.1,0.8C1183.7,141.4,1188.4,146,1188.4,146z"/>
<path class="st14" d="M1165.2,157.5c0,0-1.8,2.9-5,0c-3.2-2.9-13.1-11.6-13.1-11.6s-4.5-11-7.6-8.9s3.7,12.4,3.7,12.4l15,16
	c0,0,0.5,3.4,6,1.6c5.5-1.8,9.5-3.4,9.5-3.4L1165.2,157.5z"/>
<path class="st15" d="M1173.6,184.3"/>
<path class="st6" d="M1208.1,261.6l-10.5,3.7l-0.4,0.1l0.2-0.9c1.6-7.9-8.1-26-10-27.3s-3.4-8.9-3.4-8.9s-3.4-17.3-4-21
	c-0.1-0.9-0.6-1.7-1.2-2.7c-0.9-1.5-1.6-3.2-2-4.9c-1.2-4.1-3.9-11.3-2.9-15.4c0.2-0.8-0.6,1.3-0.3,0.5l0.2-0.4l21.3-2.9
	c0.4,0.4,0.7,0.9,1,1.3c1.6,2.4,1.5,2.4,1.8,6.9c-0.1,2.7-0.5,5.5-1.2,8.1c-2.9,12.8,3.6,29.8,3.6,29.8s5.3,12.1,4.2,17.1
	C1203.4,249.8,1208.1,261.6,1208.1,261.6z"/>
<path class="st8" d="M1195.9,182.8c-3.1,3.9-23.3,7-23.1,5.8c0.1-0.4,0-0.9-0.1-1.3c0.2-0.8,0.4-1.7,0.7-2.5l0.2-0.4l21.3-2.9
	C1195.3,181.9,1195.6,182.3,1195.9,182.8z"/>
<path class="st16" d="M1186.8,140.4c0,0-8.7,2.6-11.1,8.7c-2.4,6,1.8,6.4,1.8,6.4s-7.5,19.7-5.5,29.9c0,0,1.1,1.3,0.8,2.6
	c-0.3,1.3,21.8-2.1,23.4-6.3c1.6-4.2-7.4-11.8-5-18.9C1193.6,155.7,1186.8,140.4,1186.8,140.4z"/>
<path class="st8" d="M1183.9,137.3c0,0.1,0,0.2-0.1,0.2c-0.4,0.7-1.5-0.1-1.1,1c-1.5,1.5-2,4.6-4.3,4.6c-1.3,0-2.5-0.3-3.7-0.8
	c-0.2-1.2-0.3-2.1-0.5-2.6c1-0.6,9.2-5.3,9.6-2.9l0,0C1184,136.9,1183.9,137.1,1183.9,137.3z"/>
<circle class="st14" cx="1178.4" cy="134.1" r="8.4"/>
<path class="st8" d="M1186.8,161l-14.7,6.8c0,0-10-7.6-8.4-9.7c1.6-2.1,13.9-8.1,13.9-8.1S1190.2,152.5,1186.8,161z"/>
<path class="st16" d="M1186.8,160.4l-14.7,6.8c0,0-10-7.6-8.4-9.7c1.6-2.1,13.9-8.1,13.9-8.1S1190.2,152,1186.8,160.4z"/>
<path class="st8" d="M1175.9,130.5c-1.3-0.1-2.6-0.3-3.7-0.9c-0.6-0.4-1.2-1-1.3-1.7c0-0.9,0.7-1.6,1.4-2.1c0.4-0.4,1-0.7,1.5-1
	c0.7-0.3,1.5-0.2,2.3-0.2c2.3-0.2,4.3-1.7,6.6-1.7c1.7,0,3.2,0.9,4.7,1.7c1.2,0.7,2.5,1.5,2.6,2.8c0,0.4,0,0.9,0.1,1.3
	c0.2,0.9,1.3,1.5,1.6,2.4c0.4,1-0.1,2.1-0.8,2.9c-0.7,0.8-1.7,1.3-2.5,2c-1.4,1.3-2.2,3.2-2.2,5.2c0,0.1,0,0.3-0.1,0.4
	c-0.1,0.1-0.3,0.2-0.5,0.2c-0.8,0.2-1.9,0.2-2.4-0.5s-0.1-1.8-0.7-2.5c-0.7-0.9-2.3-0.2-3.2-0.8c-0.3-0.2-0.6-0.5-0.7-0.9
	c-0.8-1.8,0.1-3.1,0.5-4.8C1179.5,130.3,1177.3,130.7,1175.9,130.5z"/>
<path class="st17" d="M1176.2,130.3c-1.3-0.1-2.6-0.3-3.7-0.9c-0.6-0.4-1.2-1-1.3-1.7c0-0.9,0.7-1.6,1.4-2.1c0.4-0.4,1-0.7,1.5-1
	c0.7-0.3,1.5-0.2,2.3-0.2c2.3-0.2,4.3-1.7,6.6-1.7c1.7,0,3.2,0.9,4.7,1.7c1.2,0.7,2.5,1.5,2.6,2.8c0,0.4,0,0.9,0.1,1.3
	c0.2,0.9,1.3,1.5,1.6,2.4c0.4,1-0.1,2.1-0.8,2.9c-0.7,0.8-1.7,1.3-2.5,2c-1.4,1.3-2.3,3.2-2.2,5.2c0,0.1,0,0.3-0.1,0.4
	c-0.1,0.1-0.3,0.2-0.5,0.2c-0.8,0.2-1.9,0.2-2.4-0.5s-0.1-1.8-0.7-2.5c-0.7-0.9-2.3-0.2-3.2-0.8c-0.3-0.2-0.6-0.5-0.7-0.9
	c-0.8-1.8,0.1-3.1,0.5-4.8C1179.8,130.1,1177.6,130.4,1176.2,130.3z"/>
</svg>
