<?xml version="1.0" encoding="utf-8"?>
<!-- Generator: Adobe Illustrator 22.0.1, SVG Export Plug-In . SVG Version: 6.00 Build 0)  -->
<svg version="1.1" id="Layer_1" xmlns="http://www.w3.org/2000/svg" xmlns:xlink="http://www.w3.org/1999/xlink" x="0px" y="0px"
	 viewBox="0 0 1300 400" style="enable-background:new 0 0 1300 400;" xml:space="preserve">
<style type="text/css">
	.st0{opacity:5.000000e-02;fill:#020202;enable-background:new    ;}
	.st1{fill:url(#SVGID_1_);stroke:#000000;stroke-width:1.6452;stroke-miterlimit:10;}
	.st2{fill:#E6E6E6;}
	.st3{fill:#FFB8B8;}
	.st4{fill:#D0CDE1;}
	.st5{fill:#2F2E41;}
	.st6{fill:#3F3D56;}
	.st7{fill:#63ABFF;}
	.st8{fill:#FFFFFF;}
	.st9{fill:#F2F2F2;}
</style>
<ellipse class="st0" cx="1404.9" cy="1082.5" rx="8.3" ry="1.7"/>
<linearGradient id="SVGID_1_" gradientUnits="userSpaceOnUse" x1="9.094947e-13" y1="300" x2="1300" y2="300" gradientTransform="matrix(1 0 0 1 0 -100)">
	<stop  offset="0" style="stop-color:#489DD7"/>
	<stop  offset="1" style="stop-color:#C8D3D1"/>
	<stop  offset="1" style="stop-color:#457FC1"/>
</linearGradient>
<rect x="0" class="st1" width="1300" height="400"/>
<path class="st2" d="M908.1,247.2l-2.5-10c-4.5-1.9-9.1-3.6-13.8-5l-0.3,4.7l-1.3-5.1c-5.8-1.7-9.8-2.4-9.8-2.4s5.3,20.3,16.6,35.9
	l13.1,2.3l-10.2,1.5c1.4,1.7,2.9,3.3,4.5,4.8c16.3,15.1,34.5,22.1,40.6,15.5c6.1-6.6-2.2-24.2-18.5-39.3
	c-5.1-4.7-11.4-8.5-17.8-11.4L908.1,247.2z"/>
<path class="st2" d="M932.2,236.3l3-9.9c-2.9-4-6-7.8-9.3-11.4l-2.7,3.8l1.5-5.1c-4.1-4.4-7.1-7.1-7.1-7.1s-5.9,20.2-4.4,39.3
	l10,8.7l-9.4-4c0.3,2.2,0.8,4.3,1.4,6.5c6.1,21.4,18.1,36.7,26.7,34.3s10.6-21.8,4.5-43.2c-1.9-6.6-5.4-13.1-9.3-19L932.2,236.3z"/>
<polygon class="st3" points="972.9,277.7 973.9,282.5 981.3,281.9 980.7,276.7 "/>
<polygon class="st3" points="954.5,277.7 953.5,282.5 946.1,281.9 946.6,276.7 "/>
<circle class="st3" cx="952.4" cy="114.6" r="10"/>
<polygon class="st3" points="946.1,117.2 943.5,129.3 956.6,133.5 956.1,118.3 "/>
<path class="st4" d="M950.8,130.9l-6.6-5c0,0-1.3-1.8-1.8-0.2s-5.2,7.3-5.2,7.3l3.7,43l27.8,0.5c0,0-10.9-50.1-12.3-48.4
	C955,129.8,951.4,129.8,950.8,130.9z"/>
<path class="st5" d="M956.4,124.8c0,0-2.1,2.1-1,3.7c1,1.6,0.3,4.5,1.3,4.7c1,0.2-1,18.1,2.1,22.8c3.1,4.7,1.6,16.8,1.6,18.9
	c0,2.1,3.1,14.7,3.1,14.7s10.5,1,10.5-1.6s-3.7-21-3.7-21l3.1-32.5c0,0,0-3.1-3.7-4.2c-3.7-1-11-3.7-11-3.7L956.4,124.8z"/>
<path class="st3" d="M971.3,162.9h-2.6c0,0-13.6,1-12.6-4.7c1-5.8,11.5-1.6,11.5-1.6l3.1,1.6L971.3,162.9z"/>
<path class="st5" d="M944.7,123.9c0,0-4.3,2.7-4.8,3.8c-0.5,1-12.6,6.8-12.6,11c0,4.2,3.7,8.9,3.7,8.9l4.7,46.2c0,0,7.9,2.6,8.4,0.5
	c0.5-2.1,2.6-48.3,1.6-50.4s-1-15.7-1-15.7L944.7,123.9z"/>
<path class="st3" d="M930.9,200.1l-0.5,3.1c0,0,0.5,10.5,4.7,10s1.6-11,1.6-11l-0.5-2.1L930.9,200.1z"/>
<path class="st5" d="M937.2,173.4c0,0,0.5,47.2,3.1,62.4c2.6,15.2,3.7,41.4,3.7,41.4s6.8,1,7.9,1.6c1,0.5,3.7-1,3.7-1l0.5-77.6
	l10,35.1c0,0,1.6,42.5,4.7,43.5s12.6-1,12.6-1s-3.7-40.4-4.7-42s-3.7-47.7-7.9-56.1l-1.6-5.8C969.2,173.9,939.3,174.9,937.2,173.4z"
	/>
<path class="st5" d="M974.5,280.4c0,0-2.6-2.1-2.6-0.5s-2.6,11.3,0.5,11.3s24.1,1.8,23.6-2.4s-13.1-10.9-13.1-10.9s-4.7,1.5-5.2,2
	S974.5,280.4,974.5,280.4z"/>
<path class="st5" d="M952.9,280.4c0,0,2.6-2.1,2.6-0.5s2.6,11.3-0.5,11.3c-3.1,0-24.1,1.8-23.6-2.4c0.5-4.2,13.1-10.9,13.1-10.9
	s4.7,1.5,5.2,2S952.9,280.4,952.9,280.4z"/>
<path class="st5" d="M969.7,134l3.7,0.5l7.3,21c0,0,2.1,10.5-1,12.1c-3.1,1.6-9.1,1.3-9.1,1.3l-0.9-11.8l2.6,0.5l-2.6-5.2V134z"/>
<path class="st5" d="M929.9,136.6l-2.6,2.1c0,0-2.6,26.8-2.1,29.4s3.7,34.6,3.7,34.6l8.9-2.1l-6.3-63.5L929.9,136.6z"/>
<path class="st5" d="M941.4,107.4c0,0-2.9-3.7,0-5.5v0.9c0,0,6.2-6.9,9.9-5.1l3.3-0.9v0.9l2.1-0.9l-0.4,1.4h2.9l-1.2,0.9
	c0,0,9.5-0.5,3.7,6.4c0,0,2.8,4.1,0.1,6.4c0,0-2.2-5.1-5.1-3.7c-1.6,0.8-3.5,0.7-5-0.5c0,0-5.8-0.5-5,2.3c0.8,2.8,0.4,3.7,0.4,3.7
	s-2.1,1.4-1.7,2.3c0.4,0.9,0.4,3.7,0.4,3.7s-2.1-3.2-2.9-2.8C942.2,117.5,937.7,112.9,941.4,107.4z"/>
<path class="st6" d="M1175,88.5h-55.1v-1.1h-25v1.1h-55.3c-2.1,0-3.7,1.7-3.7,3.7v0v75.4c0,2.1,1.7,3.7,3.7,3.7H1175
	c2.1,0,3.7-1.7,3.7-3.7l0,0V92.3C1178.7,90.2,1177,88.5,1175,88.5C1175,88.5,1175,88.5,1175,88.5z"/>
<rect x="1040.9" y="95.1" class="st7" width="132.8" height="74.9"/>
<circle class="st7" cx="1107.2" cy="91.7" r="1.4"/>
<path class="st6" d="M1166.1,104.7h-6.3v-6.3h6.3V104.7z M1160.1,104.4h5.7v-5.7h-5.7V104.4z"/>
<path class="st6" d="M1182.4,168.7h-13v-0.9c0-0.1-0.1-0.2-0.2-0.2l0,0h-4.4c-0.1,0-0.2,0.1-0.2,0.2l0,0v0.9h-2.8v-0.9
	c0-0.1-0.1-0.2-0.2-0.2l0,0h-4.4c-0.1,0-0.2,0.1-0.2,0.2l0,0v0.9h-2.8v-0.9c0-0.1-0.1-0.2-0.2-0.2l0,0h-4.4c-0.1,0-0.2,0.1-0.2,0.2
	l0,0v0.9h-2.8v-0.9c0-0.1-0.1-0.2-0.2-0.2l0,0h-4.4c-0.1,0-0.2,0.1-0.2,0.2l0,0v0.9h-2.8v-0.9c0-0.1-0.1-0.2-0.2-0.2l0,0h-4.4
	c-0.1,0-0.2,0.1-0.2,0.2l0,0v0.9h-2.8v-0.9c0-0.1-0.1-0.2-0.2-0.2l0,0h-4.4c-0.1,0-0.2,0.1-0.2,0.2l0,0v0.9h-2.8v-0.9
	c0-0.1-0.1-0.2-0.2-0.2l0,0h-34.8c-0.1,0-0.2,0.1-0.2,0.2l0,0v0.9h-2.8v-0.9c0-0.1-0.1-0.2-0.2-0.2l0,0h-4.4c-0.1,0-0.2,0.1-0.2,0.2
	l0,0v0.9h-2.8v-0.9c0-0.1-0.1-0.2-0.2-0.2l0,0h-4.4c-0.1,0-0.2,0.1-0.2,0.2l0,0v0.9h-2.8v-0.9c0-0.1-0.1-0.2-0.2-0.2l0,0h-4.4
	c-0.1,0-0.2,0.1-0.2,0.2l0,0v0.9h-2.8v-0.9c0-0.1-0.1-0.2-0.2-0.2l0,0h-4.4c-0.1,0-0.2,0.1-0.2,0.2l0,0v0.9h-2.8v-0.9
	c0-0.1-0.1-0.2-0.2-0.2l0,0h-4.4c-0.1,0-0.2,0.1-0.2,0.2l0,0v0.9h-2.8v-0.9c0-0.1-0.1-0.2-0.2-0.2l0,0h-4.4c-0.1,0-0.2,0.1-0.2,0.2
	l0,0v0.9h-8.5c-2.5,0-4.4,2-4.4,4.4l0,0v2c0,2.5,2,4.4,4.4,4.4h147.7c2.5,0,4.4-2,4.4-4.4v-2
	C1186.9,170.7,1184.9,168.7,1182.4,168.7z"/>
<path class="st6" d="M1165.5,136.9h-42.7v-24.3h42.7V136.9z M1123.2,136.4h41.9v-23.5h-41.9V136.4z"/>
<path class="st6" d="M1087.2,141.7h-38.1V118h38.1V141.7z M1049.5,141.3h37.2v-22.9h-37.2V141.3z"/>
<path class="st4" d="M1066.9,132.6l0-0.5c-0.1-1,0.2-2.1,1.1-3.1c0.8-1,1.3-1.7,1.3-2.5c0-0.9-0.6-1.5-1.7-1.6
	c-0.7,0-1.3,0.2-1.8,0.6l-0.4-1.1c0.6-0.4,1.6-0.7,2.6-0.7c2.1,0,3,1.3,3,2.7c0,1.2-0.7,2.1-1.6,3.2c-0.8,0.9-1.1,1.7-1,2.7l0,0.5
	L1066.9,132.6z M1066.5,135.2c0-0.6,0.4-1.1,1-1.1c0,0,0.1,0,0.1,0c0.6,0,1.1,0.5,1.1,1.1c0,0.6-0.4,1.1-1,1.1
	C1067,136.3,1066.5,135.9,1066.5,135.2C1066.5,135.2,1066.5,135.2,1066.5,135.2z"/>
<path class="st4" d="M1142.9,127.3l0-0.5c-0.1-1,0.2-2.1,1.1-3.1c0.8-1,1.3-1.7,1.3-2.5c0-0.9-0.6-1.5-1.7-1.6
	c-0.7,0-1.3,0.2-1.8,0.6l-0.4-1.1c0.6-0.4,1.6-0.7,2.6-0.7c2.1,0,3,1.3,3,2.7c0,1.2-0.7,2.1-1.6,3.2c-0.8,0.9-1.1,1.7-1,2.7l0,0.5
	L1142.9,127.3z M1142.5,129.9c0-0.6,0.4-1.1,1-1.1c0,0,0.1,0,0.1,0c0.6,0,1.1,0.5,1.1,1.1c0,0.6-0.4,1.1-1,1.1
	S1142.5,130.6,1142.5,129.9C1142.5,129.9,1142.5,129.9,1142.5,129.9z"/>
<circle class="st5" cx="1108.1" cy="142.6" r="18.3"/>
<polygon class="st5" points="1101,167.6 1095.5,166.6 1097.3,155.2 1102.8,156.2 "/>
<rect x="1105.1" y="159.8" transform="matrix(0.1781 -0.984 0.984 0.1781 752.3413 1225.9592)" class="st5" width="9.9" height="5.5"/>
<ellipse transform="matrix(0.1979 -0.9802 0.9802 0.1979 726.9027 1223.5072)" class="st5" cx="1111" cy="167.6" rx="1.7" ry="4.6"/>
<ellipse transform="matrix(0.1313 -0.9913 0.9913 0.1313 789.0486 1235.6965)" class="st5" cx="1099.6" cy="167.6" rx="1.7" ry="4.6"/>
<circle class="st8" cx="1109.3" cy="138.1" r="6.2"/>
<circle class="st6" cx="1111.9" cy="135.9" r="2.1"/>
<path class="st8" d="M1093.7,122.7c-0.3-6.8,5.6-12.5,13-12.8s13.7,4.9,14,11.7s-4.9,8.3-12.4,8.6
	C1100.8,130.6,1093.9,129.5,1093.7,122.7z"/>
<ellipse transform="matrix(0.9747 -0.2234 0.2234 0.9747 -2.6841 254.8532)" class="st5" cx="1124.9" cy="139.3" rx="9.1" ry="2.9"/>
<ellipse transform="matrix(0.9747 -0.2234 0.2234 0.9747 -4.9222 246.9948)" class="st5" cx="1089.1" cy="145.2" rx="9.1" ry="2.9"/>
<path class="st8" d="M1103,149.8c-0.4,2.3,1.1,4.4,3.4,4.8s4.4-1.1,4.8-3.4c0.4-2.3-1.3-3.1-3.6-3.5
	C1105.4,147.4,1103.5,147.6,1103,149.8z"/>
<rect x="1038.6" y="90.2" class="st4" width="30" height="28.6"/>
<rect x="1042" y="93.6" class="st8" width="23.2" height="17.7"/>
<rect x="1042" y="113.4" class="st9" width="12.6" height="0.7"/>
<rect x="1042" y="115.4" class="st9" width="12.6" height="0.7"/>
<circle class="st6" cx="1046.2" cy="102.5" r="2.7"/>
<circle class="st7" cx="1053.6" cy="102.5" r="2.7"/>
<circle class="st2" cx="1061.1" cy="102.5" r="2.7"/>
<circle class="st6" cx="1053.6" cy="91.9" r="1.3"/>
<rect x="1052.9" y="145.5" class="st4" width="30" height="28.6"/>
<rect x="1056.3" y="148.9" class="st8" width="23.2" height="17.7"/>
<rect x="1061.4" y="151.8" class="st7" width="8.1" height="8.1"/>
<path class="st6" d="M1064.5,153.9v9.9h9.9v-9.9H1064.5z M1074,163.3h-9v-9h9V163.3z"/>
<rect x="1056.3" y="168.4" class="st9" width="12.6" height="0.7"/>
<circle class="st6" cx="1067.9" cy="147.2" r="1.3"/>
<rect x="1131.1" y="136.9" class="st4" width="30" height="28.6"/>
<rect x="1134.5" y="140.4" class="st8" width="23.2" height="17.7"/>
<rect x="1143.6" y="154.2" class="st6" width="5" height="1.5"/>
<rect x="1137.6" y="142.7" class="st6" width="17.1" height="0.6"/>
<rect x="1137.6" y="144.7" class="st6" width="17.1" height="0.6"/>
<rect x="1137.6" y="146.7" class="st6" width="17.1" height="0.6"/>
<rect x="1137.6" y="148.8" class="st6" width="17.1" height="0.6"/>
<rect x="1137.6" y="150.8" class="st6" width="17.1" height="0.6"/>
<rect x="1134.5" y="159.9" class="st9" width="12.6" height="0.7"/>
<rect x="1134.5" y="161.5" class="st9" width="17.6" height="0.7"/>
<circle class="st6" cx="1146.1" cy="138.6" r="1.3"/>
</svg>
