<?xml version="1.0" encoding="utf-8"?>
<!-- Generator: Adobe Illustrator 22.0.1, SVG Export Plug-In . SVG Version: 6.00 Build 0)  -->
<svg version="1.1" id="Layer_1" xmlns="http://www.w3.org/2000/svg" xmlns:xlink="http://www.w3.org/1999/xlink" x="0px" y="0px"
	 viewBox="0 0 1300 400" style="enable-background:new 0 0 1300 400;" xml:space="preserve">
<style type="text/css">
	.st0{opacity:5.000000e-02;fill:#020202;enable-background:new    ;}
	.st1{fill:url(#SVGID_1_);stroke:#000000;stroke-width:1.6452;stroke-miterlimit:10;}
	.st2{opacity:0.8;}
	.st3{fill:url(#SVGID_2_);}
	.st4{fill:#2B8ACA;}
	.st5{opacity:0.1;fill:#FFFFFF;enable-background:new    ;}
	.st6{opacity:0.15;fill:#537FC1;enable-background:new    ;}
	.st7{opacity:0.3;}
	.st8{fill:url(#SVGID_3_);}
	.st9{fill:#FFFFFF;}
	.st10{opacity:0.1;fill:#020202;enable-background:new    ;}
	.st11{fill:url(#SVGID_4_);}
	.st12{opacity:0.5;fill:#5D84C3;enable-background:new    ;}
	.st13{opacity:0.5;}
	.st14{fill:#6FC6A5;}
	.st15{opacity:0.5;fill:#F16147;enable-background:new    ;}
	.st16{fill:#73CAEC;}
	.st17{fill:#F16584;}
	.st18{fill:url(#SVGID_5_);}
	.st19{fill:url(#SVGID_6_);}
</style>
<ellipse class="st0" cx="1404.9" cy="1082.5" rx="8.3" ry="1.7"/>
<linearGradient id="SVGID_1_" gradientUnits="userSpaceOnUse" x1="0" y1="300" x2="1300" y2="300" gradientTransform="matrix(1 0 0 1 0 -100)">
	<stop  offset="0" style="stop-color:#007194"/>
	<stop  offset="1" style="stop-color:#41C1C9"/>
</linearGradient>
<rect class="st1" width="1300" height="400"/>
<g class="st2">
	
		<linearGradient id="SVGID_2_" gradientUnits="userSpaceOnUse" x1="1123.379" y1="248.7059" x2="1123.379" y2="304.0391" gradientTransform="matrix(1 0 0 -1 0 404)">
		<stop  offset="0" style="stop-color:#828282;stop-opacity:0.25"/>
		<stop  offset="0.54" style="stop-color:#828282;stop-opacity:0.12"/>
		<stop  offset="1" style="stop-color:#828282;stop-opacity:0.1"/>
	</linearGradient>
	<ellipse class="st3" cx="1123.4" cy="127.6" rx="35.7" ry="27.7"/>
</g>
<ellipse class="st4" cx="1123.4" cy="127.6" rx="34.9" ry="27.1"/>
<path class="st5" d="M1094.1,130.6c0-14.9,15.6-27.1,34.9-27.1c6,0,11.9,1.2,17.4,3.6c-6.1-4.1-14.2-6.7-22.9-6.7
	c-19.3,0-34.9,12.1-34.9,27.1c0,10,7.1,18.8,17.5,23.5C1098.7,146,1094.1,138.8,1094.1,130.6z"/>
<polygon class="st6" points="1195.2,274.6 1117.9,271.4 1040.5,268.2 1081.9,202.8 1123.4,137.3 1159.3,205.9 "/>
<g class="st7">
	
		<linearGradient id="SVGID_3_" gradientUnits="userSpaceOnUse" x1="1003.7701" y1="-1109.7233" x2="1003.7701" y2="-1064.4968" gradientTransform="matrix(0.95 0.32 0.32 -0.95 513.24 -1126.03)">
		<stop  offset="0" style="stop-color:#828282;stop-opacity:0.25"/>
		<stop  offset="0.54" style="stop-color:#828282;stop-opacity:0.12"/>
		<stop  offset="1" style="stop-color:#828282;stop-opacity:0.1"/>
	</linearGradient>
	<path class="st8" d="M1132.6,233.5l3-8.9c2.1-6.4-0.2-13.4-5.6-17.3h0c-1.2-0.8-2.5-1.5-3.8-2l0,0h0h0l0,0
		c-1.3-0.5-2.7-0.7-4.1-0.8c-0.5,0-1,0-1.5,0c-0.8,0-1.7,0.2-2.6,0.3c-0.2,0-0.5,0.1-0.7,0.2c-0.2,0.1-0.5,0.2-0.7,0.2
		c-0.5,0.2-0.9,0.3-1.4,0.5c-0.2,0.1-0.5,0.2-0.7,0.3c-0.7,0.3-1.3,0.7-1.9,1.1c-0.2,0.2-0.4,0.3-0.6,0.4c-2.4,1.8-4.2,4.3-5.2,7.2
		l-4.7,14c-0.7,2.2-1,4.6-0.7,6.9c0,0.3,0.1,0.7,0.2,1s0.2,0.7,0.2,1c0.1,0.2,0.1,0.5,0.2,0.7c0.1,0.3,0.2,0.7,0.4,1
		c0.1,0.2,0.2,0.4,0.3,0.7c0.2,0.4,0.4,0.8,0.7,1.3s0.5,0.8,0.8,1.2c0.2,0.3,0.4,0.6,0.7,0.8c0.3,0.4,0.6,0.7,1,1.1
		c1.5,1.5,3.2,2.6,5.1,3.4l0,0l0,0l0.1,0c0.1-0.2,0.2-0.3,0.3-0.5c0.7-1,2-1.7,3.2-1.5c0.1,0,0.2,0,0.3,0.1c0.6,0.2,1.2,0.6,1.8,0.8
		c0.4,0.2,0.9,0.2,1.4,0c1.2-0.6,0.7-2.6,1.8-3.5c0,0,0.1-0.1,0.2-0.1l0,0c0.8-0.5,1.9-0.2,2.8,0.2c1,0.3,2.3,0.6,2.9-0.2
		c0.5-0.5,0.4-1.4,0.8-2c0.5-0.7,1.5-0.7,2.3-0.6h0c1.6,0.7,3.3-0.4,3.2-2.1C1131.7,236.1,1132.4,233.9,1132.6,233.5z"/>
</g>
<path class="st9" d="M1111.5,246.6c0.7-1,1.9-1.7,3.1-1.4c1.2,0.3,2.3,1.4,3.3,0.8c1.4-0.8,0.4-3.6,2.7-3.8c0.5,0,1,0,1.4,0.2
	c1,0.4,2.5,0.8,3.3,0c0.5-0.5,0.4-1.3,0.8-1.9c0.5-0.7,1.4-0.7,2.2-0.6h0c1.5,0.6,3.2-0.4,3.1-2.1c-0.2-2.2,0.5-4.3,0.7-4.7l2.9-8.6
	c2.6-7.7-1.6-16-9.2-18.6l0,0c-7.7-2.6-16,1.6-18.6,9.2l-4.6,13.5c-2.5,7.4,1.3,15.4,8.5,18.3C1111.3,247,1111.4,246.8,1111.5,246.6
	z"/>
<circle class="st9" cx="1152.8" cy="214.2" r="2.4"/>
<circle class="st9" cx="1160.3" cy="210.5" r="1.2"/>
<path class="st10" d="M1156.9,119.6c0.5,1.8,0.7,3.6,0.7,5.4c0,14.9-15.6,27.1-34.9,27.1c-15.8,0-29.1-8.1-33.4-19.3
	c3.2,12.4,17.3,21.7,34.2,21.7c19.3,0,34.9-12.1,34.9-27.1C1158.4,124.7,1157.9,122.1,1156.9,119.6z"/>
<g class="st2">
	
		<linearGradient id="SVGID_4_" gradientUnits="userSpaceOnUse" x1="1123.379" y1="245.7128" x2="1123.379" y2="283.4714" gradientTransform="matrix(1 0 0 -1 0 404)">
		<stop  offset="0" style="stop-color:#828282;stop-opacity:0.25"/>
		<stop  offset="0.54" style="stop-color:#828282;stop-opacity:0.12"/>
		<stop  offset="1" style="stop-color:#828282;stop-opacity:0.1"/>
	</linearGradient>
	<ellipse class="st11" cx="1123.4" cy="139.4" rx="72.3" ry="18.9"/>
</g>
<path class="st9" d="M1123.4,121.1c-38.6,0-69.9,8.2-69.9,18.3h139.7C1193.2,129.3,1161.9,121.1,1123.4,121.1z"/>
<path class="st9" d="M1123.4,157.7c38.6,0,69.9-8.2,69.9-18.3h-139.8C1053.5,149.5,1084.8,157.7,1123.4,157.7z"/>
<path class="st0" d="M1123.4,157.7c38.6,0,69.9-8.2,69.9-18.3h-139.8C1053.5,149.5,1084.8,157.7,1123.4,157.7z"/>
<path class="st0" d="M1094.2,134.6h58.3c2.3,0,4.2,1.9,4.2,4.2v1.1c0,2.3-1.9,4.2-4.2,4.2h-58.3c-2.3,0-4.2-1.9-4.2-4.2v-1.1
	C1090,136.5,1091.9,134.6,1094.2,134.6z"/>
<path class="st12" d="M1050.7,109.4c-0.4-0.2-0.6-0.7-0.5-1.1c0,0,0-0.1,0-0.1l0,0c0-0.2-0.2-0.5-0.4-0.5c-0.2,0-0.3,0.1-0.4,0.2
	l0,0c0,0,0,0,0,0.1c-0.2,0.4-0.7,0.7-1.1,0.5c0,0-0.1,0-0.1,0l0,0c-0.2,0-0.5,0.2-0.5,0.4c0,0.2,0.1,0.3,0.2,0.4l0,0c0,0,0,0,0.1,0
	c0.4,0.2,0.6,0.7,0.5,1.1c0,0,0,0.1,0,0.1l0,0c0,0.2,0.2,0.5,0.4,0.5c0.2,0,0.3,0,0.4-0.2l0,0c0,0,0-0.1,0-0.1
	c0.2-0.4,0.7-0.6,1.1-0.5c0,0,0.1,0,0.1,0l0,0c0.2,0,0.5-0.2,0.5-0.4C1050.9,109.7,1050.9,109.6,1050.7,109.4L1050.7,109.4
	C1050.7,109.5,1050.7,109.4,1050.7,109.4z"/>
<path class="st12" d="M1174.8,184.1c-0.4-0.2-0.6-0.7-0.5-1.1c0,0,0-0.1,0-0.1l0,0c0-0.2-0.2-0.5-0.4-0.5c-0.2,0-0.3,0.1-0.4,0.2
	l0,0c0,0,0,0,0,0.1c-0.2,0.4-0.7,0.7-1.1,0.5c0,0-0.1,0-0.1,0l0,0c-0.2,0-0.5,0.2-0.5,0.4c0,0.2,0.1,0.3,0.2,0.4l0,0c0,0,0,0,0.1,0
	c0.4,0.2,0.6,0.7,0.5,1.1c0,0,0,0.1,0,0.1l0,0c0,0.2,0.2,0.5,0.4,0.5c0.2,0,0.3,0,0.4-0.2l0,0c0,0,0-0.1,0-0.1
	c0.2-0.4,0.7-0.6,1.1-0.5c0,0,0.1,0,0.1,0l0,0c0.2,0,0.5-0.2,0.5-0.4C1175.1,184.3,1175,184.2,1174.8,184.1L1174.8,184.1
	C1174.9,184.1,1174.8,184.1,1174.8,184.1z"/>
<path class="st12" d="M1037.7,218.7c-0.4-0.2-0.6-0.7-0.5-1.1c0,0,0-0.1,0-0.1l0,0c0-0.2-0.2-0.5-0.4-0.5c-0.2,0-0.3,0.1-0.4,0.2
	l0,0c0,0,0,0,0,0.1c-0.2,0.4-0.7,0.7-1.1,0.5c0,0-0.1,0-0.1,0l0,0c-0.2,0-0.5,0.2-0.5,0.4c0,0.2,0.1,0.3,0.2,0.4l0,0c0,0,0,0,0.1,0
	c0.4,0.2,0.6,0.7,0.5,1.1c0,0,0,0.1,0,0.1l0,0c0,0.2,0.2,0.5,0.4,0.5c0.2,0,0.3,0,0.4-0.2l0,0c0,0,0-0.1,0-0.1
	c0.2-0.4,0.7-0.6,1.1-0.5c0,0,0.1,0,0.1,0l0,0c0.2,0,0.5-0.2,0.5-0.4C1038,219,1037.9,218.8,1037.7,218.7L1037.7,218.7
	C1037.8,218.8,1037.8,218.7,1037.7,218.7z"/>
<path class="st12" d="M1024.3,138c-0.4-0.2-0.6-0.7-0.5-1.1c0,0,0-0.1,0-0.1l0,0c0-0.2-0.2-0.5-0.4-0.5c-0.2,0-0.3,0.1-0.4,0.2l0,0
	c0,0,0,0,0,0.1c-0.2,0.4-0.7,0.7-1.1,0.5c0,0-0.1,0-0.1,0l0,0c-0.2,0-0.5,0.2-0.5,0.4c0,0.2,0.1,0.3,0.2,0.4l0,0c0,0,0,0,0.1,0
	c0.4,0.2,0.6,0.7,0.5,1.1c0,0,0,0.1,0,0.1l0,0c0,0.2,0.2,0.5,0.4,0.5c0.2,0,0.3,0,0.4-0.2l0,0c0,0,0-0.1,0-0.1
	c0.2-0.4,0.7-0.6,1.1-0.5c0,0,0.1,0,0.1,0l0,0c0.2,0,0.5-0.2,0.5-0.4C1024.6,138.3,1024.5,138.1,1024.3,138L1024.3,138
	C1024.4,138,1024.3,138,1024.3,138z"/>
<path class="st12" d="M1172.4,97c-0.4-0.2-0.6-0.7-0.5-1.1c0,0,0-0.1,0-0.1l0,0c0-0.2-0.2-0.5-0.4-0.5c-0.2,0-0.3,0.1-0.4,0.2l0,0
	c0,0,0,0,0,0.1c-0.2,0.4-0.7,0.6-1.1,0.5c0,0-0.1,0-0.1,0l0,0c-0.2,0-0.5,0.1-0.5,0.3c0,0.2,0,0.4,0.2,0.5l0,0c0,0,0,0,0.1,0
	c0.4,0.2,0.6,0.7,0.5,1.1c0,0,0,0.1,0,0.1l0,0c0,0.2,0.2,0.5,0.4,0.5c0.2,0,0.3-0.1,0.4-0.2l0,0c0,0,0-0.1,0-0.1
	c0.2-0.4,0.7-0.6,1.1-0.5c0,0,0.1,0,0.1,0l0,0c0.2,0,0.5-0.2,0.5-0.4c0-0.2-0.1-0.3-0.2-0.4l0,0C1172.4,97,1172.4,97,1172.4,97z"/>
<g class="st13">
	<rect x="1044.8" y="158.2" class="st14" width="0.7" height="4.1"/>
	<rect x="1043.1" y="159.9" class="st14" width="4.1" height="0.7"/>
</g>
<g class="st13">
	<rect x="1220.5" y="138.7" class="st14" width="0.7" height="4.1"/>
	<rect x="1218.7" y="140.4" class="st14" width="4.1" height="0.7"/>
</g>
<circle class="st15" cx="1194.3" cy="115.3" r="1.5"/>
<circle class="st15" cx="1019.5" cy="98.5" r="1.5"/>
<circle class="st15" cx="1063.4" cy="182.6" r="1.5"/>
<ellipse class="st0" cx="1075.1" cy="133" rx="8.3" ry="1.7"/>
<ellipse class="st0" cx="1075.1" cy="145.9" rx="8.3" ry="1.7"/>
<ellipse class="st0" cx="1169.5" cy="133" rx="8.3" ry="1.7"/>
<ellipse class="st0" cx="1169.5" cy="145.9" rx="8.3" ry="1.7"/>
<ellipse class="st0" cx="1123.4" cy="125.7" rx="8.3" ry="1.7"/>
<ellipse class="st0" cx="1129.5" cy="107.9" rx="8.3" ry="1.7"/>
<ellipse class="st0" cx="1113.6" cy="115.2" rx="8.3" ry="1.7"/>
<ellipse class="st0" cx="1144.1" cy="118.4" rx="8.3" ry="1.7"/>
<g id="Layer_5_1_">
	<path class="st16" d="M1131.1,227c0,0-4.9-3.7-10.1-5.4c-5.2-1.7-9.1-2.3-13.1-1.8c0,0,5.5-7.3,13.6-3.8
		C1129.6,219.5,1131.1,227,1131.1,227z"/>
	
		<ellipse transform="matrix(0.4331 -0.9013 0.9013 0.4331 442.5703 1126.8657)" class="st16" cx="1117.1" cy="211.6" rx="1.6" ry="1.8"/>
	
		<ellipse transform="matrix(0.9999 -1.014069e-02 1.014069e-02 0.9999 -2.1207 11.441)" class="st16" cx="1127.1" cy="214.8" rx="1.8" ry="1.6"/>
</g>
<path class="st17" d="M1072.3,199l-0.3-0.1c-0.3-0.1-0.7,0-0.7,0.3l-1.6,5.2l-5-2c-0.3-0.1-0.7,0-0.7,0.3l-0.1,0.3
	c-0.1,0.3,0.1,0.7,0.4,0.8l0,0l5,2l-1.6,5.2c-0.1,0.3,0.1,0.7,0.4,0.8l0.3,0.1c0.3,0.1,0.7,0,0.7-0.3l1.6-5.2l5,2
	c0.3,0.1,0.7,0,0.7-0.3l0.1-0.3c0.1-0.3-0.1-0.7-0.4-0.8l-5-2l1.6-5.2C1072.8,199.4,1072.6,199.1,1072.3,199z"/>
<path class="st4" d="M1080.8,194.5c-5.4-6.3-15-7-21.2-1.5c-0.1,0.1-0.2,0.2-0.3,0.2c-6,5.4-6.6,14.8-1.3,20.9
	c4.8,5.6,12.9,6.9,19.2,3.1l10.3,11.9c0.3,0.3,0.7,0.3,1,0.1l2.8-2.5c0.3-0.3,0.3-0.7,0.1-1l-10.3-11.9
	C1085.7,208.2,1085.6,200,1080.8,194.5z M1076.4,212.5c-4.5,3.9-11.3,3.4-15.2-1.1c-3.9-4.5-3.4-11.3,1.1-15.2
	c4.5-3.9,11.3-3.4,15.2,1.1C1081.4,201.8,1080.9,208.6,1076.4,212.5L1076.4,212.5z"/>
<linearGradient id="SVGID_5_" gradientUnits="userSpaceOnUse" x1="1285.837" y1="120.4917" x2="1285.837" y2="127.8624" gradientTransform="matrix(0.9991 -4.238051e-02 -4.238051e-02 -0.9991 -210.4704 377.4887)">
	<stop  offset="0" style="stop-color:#020202;stop-opacity:0.12"/>
	<stop  offset="0.55" style="stop-color:#020202;stop-opacity:9.000000e-02"/>
	<stop  offset="1" style="stop-color:#020202;stop-opacity:2.000000e-02"/>
</linearGradient>
<path class="st18" d="M1068.6,195.2c-3.5,0-6.5,2.3-8,5.5c-0.5,1,1.1,1.9,1.6,0.8c1.3-2.7,3.8-4.5,6.6-4.5c3,0,5.8,1.9,7.3,4.7
	c0.6,1.1,2,0,1.4-1C1075.6,197.4,1072.1,195.2,1068.6,195.2z"/>
<path class="st4" d="M1068.8,194.4c-3.4,0-6.4,2.1-8,5.2c-0.5,1,1.1,1.8,1.6,0.8c1.3-2.5,3.8-4.2,6.6-4.2c3,0,5.7,1.8,7.3,4.4
	c0.6,1,2,0,1.4-1C1075.7,196.4,1072.3,194.3,1068.8,194.4z"/>
<linearGradient id="SVGID_6_" gradientUnits="userSpaceOnUse" x1="1277.0991" y1="118.7487" x2="1277.0991" y2="120.4921" gradientTransform="matrix(0.9991 -4.238051e-02 -4.238051e-02 -0.9991 -210.4704 377.4887)">
	<stop  offset="0" style="stop-color:#020202;stop-opacity:0.12"/>
	<stop  offset="0.55" style="stop-color:#020202;stop-opacity:9.000000e-02"/>
	<stop  offset="1" style="stop-color:#020202;stop-opacity:2.000000e-02"/>
</linearGradient>
<path class="st19" d="M1060.4,203c-1.1,0-1,1.8,0.1,1.7S1061.5,202.9,1060.4,203z"/>
<path class="st4" d="M1060.3,202.3c-1.2,0-1.2,2,0.1,1.9S1061.5,202.2,1060.3,202.3z"/>
</svg>
