<?xml version="1.0" encoding="utf-8"?>
<!-- Generator: Adobe Illustrator 22.0.1, SVG Export Plug-In . SVG Version: 6.00 Build 0)  -->
<svg version="1.1" id="Layer_1" xmlns="http://www.w3.org/2000/svg" xmlns:xlink="http://www.w3.org/1999/xlink" x="0px" y="0px"
	 viewBox="0 0 1300 400" style="enable-background:new 0 0 1300 400;" xml:space="preserve">
<style type="text/css">
	.st0{opacity:5.000000e-02;fill:#020202;enable-background:new    ;}
	.st1{fill:url(#SVGID_1_);stroke:#000000;stroke-width:1.6452;stroke-miterlimit:10;}
	.st2{fill:url(#SVGID_2_);}
	.st3{fill:url(#SVGID_3_);}
	.st4{fill:#E53935;}
	.st5{opacity:0.2;enable-background:new    ;}
</style>
<ellipse class="st0" cx="1404.9" cy="1082.5" rx="8.3" ry="1.7"/>
<linearGradient id="SVGID_1_" gradientUnits="userSpaceOnUse" x1="0" y1="299.5384" x2="1300" y2="299.5384" gradientTransform="matrix(1 0 0 1 0 -100)">
	<stop  offset="0" style="stop-color:#489DD7"/>
	<stop  offset="1" style="stop-color:#C8D3D1"/>
	<stop  offset="1" style="stop-color:#457FC1"/>
</linearGradient>
<rect y="-0.5" class="st1" width="1300" height="400"/>
<linearGradient id="SVGID_2_" gradientUnits="userSpaceOnUse" x1="1249.7588" y1="75.0424" x2="1249.7588" y2="247.8929" gradientTransform="matrix(1 0 0 -1 -133.4507 320.5804)">
	<stop  offset="0" style="stop-color:#808080;stop-opacity:0.25"/>
	<stop  offset="0.5351" style="stop-color:#808080;stop-opacity:0.12"/>
	<stop  offset="1" style="stop-color:#808080;stop-opacity:0.1"/>
</linearGradient>
<path class="st2" d="M1133.8,173.7c-7.5-15.3-1.5-28.5,9-37.8c14.5-6.8,28.8-3.8,39.3,9.8c6.9-4,15.6-4.9,22.8-3.3
	c5.5-20.9,0.4-45.9-18.1-59.4c-24.1-17.6-57.8-12.3-75.3,11.8c-24.1-17.6-57.8-12.3-75.3,11.8c-17.6,24.1-12.3,57.8,11.8,75.3
	l87.1,63.6l23.1-32L1133.8,173.7z"/>
<linearGradient id="SVGID_3_" gradientUnits="userSpaceOnUse" x1="1311.0258" y1="99.0562" x2="1311.0258" y2="186.1602" gradientTransform="matrix(1 0 0 -1 -133.4507 320.5804)">
	<stop  offset="0" style="stop-color:#808080;stop-opacity:0.25"/>
	<stop  offset="0.5351" style="stop-color:#808080;stop-opacity:0.12"/>
	<stop  offset="1" style="stop-color:#808080;stop-opacity:0.1"/>
</linearGradient>
<path class="st3" d="M1182.4,147.8c-7.5-12.9-24-17.2-36.9-9.7c-12.9,7.5-17.2,24-9.7,36.9c0,0,0,0,0,0l27.2,46.5l46.5-27.2
	c12.9-7.5,17.2-24,9.7-36.9C1211.8,144.6,1195.3,140.3,1182.4,147.8z"/>
<path class="st4" d="M1182.2,148.6c-7.2-12.3-22.9-16.4-35.2-9.2c-12.2,7.2-16.4,22.9-9.2,35.1l25.9,44.4l44.4-25.9
	c12.3-7.2,16.4-22.9,9.2-35.2C1210.2,145.6,1194.4,141.5,1182.2,148.6z"/>
<path class="st5" d="M1207.7,193.3c12.3-7.2,16.4-22.9,9.2-35.2c-7.1-12.2-22.8-16.4-35-9.3l25.6,44.6L1207.7,193.3z"/>
<path class="st4" d="M1203.1,141.3c-7.1-1.6-14.6-0.5-20.9,3.2c-8-13.7-25.7-18.3-39.4-10.3c-13.7,8-18.3,25.7-10.3,39.4l22.9,39.1
	l-21.2,29.1l-43.5-31.7l3.7-2.1c15.6-9.1,20.9-29.2,11.7-44.8c-8.3-14.2-25.9-20-41-13.6c-1.3,0.5-2.5,1.2-3.8,1.9
	c-6.4-11-18.7-17.3-31.4-16.1c0.2-2.6,0.6-5.2,1.2-7.7c0.1-0.3,0.1-0.6,0.2-0.8c0.3-1.1,0.6-2.2,1-3.3c0-0.1,0.1-0.2,0.1-0.3
	c0.2-0.5,0.3-1,0.5-1.5c0.2-0.6,0.4-1.1,0.6-1.7c0.1-0.3,0.2-0.5,0.3-0.8c0.1-0.3,0.2-0.5,0.3-0.8c0,0,0,0,0,0
	c0.1-0.3,0.2-0.5,0.4-0.8c0,0,0-0.1,0-0.1c0.1-0.2,0.2-0.5,0.3-0.7c0.1-0.3,0.3-0.5,0.4-0.8c0.3-0.6,0.6-1.1,0.9-1.7
	c0.1-0.2,0.2-0.4,0.3-0.6c0.1-0.2,0.3-0.5,0.4-0.7c0.1-0.1,0.1-0.2,0.2-0.3c0.4-0.6,0.8-1.3,1.2-1.9c0.1-0.1,0.2-0.3,0.3-0.4
	c0.1-0.2,0.3-0.4,0.4-0.6c0.2-0.2,0.3-0.5,0.5-0.7c16.8-23,49-28.1,72-11.3c16.8-23,49-28.1,72-11.3
	C1200.8,98.9,1208.6,120.7,1203.1,141.3z"/>
<path class="st4" d="M1058.3,156c-8.1-13.8-25.9-18.5-39.7-10.4c-13.8,8.1-18.5,25.9-10.4,39.7l29.3,50.1l50.1-29.3
	c13.8-8.1,18.5-25.9,10.4-39.7C1089.9,152.6,1072.1,147.9,1058.3,156L1058.3,156z"/>
<path class="st5" d="M1111.7,97.7l-46.7,51.8c-1.3,0.5-2.5,1.2-3.8,1.9c-6.4-11-18.7-17.3-31.4-16.1c0.2-2.6,0.6-5.2,1.2-7.7
	c0.1-0.3,0.1-0.6,0.2-0.8c0.3-1.1,0.6-2.2,1-3.3c0-0.1,0.1-0.2,0.1-0.3c0.2-0.5,0.3-1,0.5-1.5c0.2-0.6,0.4-1.1,0.6-1.7
	c0.1-0.3,0.2-0.5,0.3-0.8c0.1-0.3,0.2-0.5,0.3-0.8c0,0,0,0,0,0c0.1-0.3,0.2-0.5,0.4-0.8c0,0,0-0.1,0-0.1c0.1-0.2,0.2-0.5,0.3-0.7
	c0.1-0.3,0.3-0.5,0.4-0.8c0.3-0.6,0.6-1.1,0.9-1.7c0.1-0.2,0.2-0.4,0.3-0.6c0.1-0.2,0.3-0.5,0.4-0.7c0.1-0.1,0.1-0.2,0.2-0.3
	c0.4-0.6,0.8-1.3,1.2-1.9c0.1-0.1,0.2-0.3,0.3-0.4c0.1-0.2,0.3-0.4,0.4-0.6c0.2-0.2,0.3-0.5,0.5-0.7
	C1056.4,85.9,1088.6,80.9,1111.7,97.7c-0.1,0,0-0.1,0-0.1L1111.7,97.7z"/>
</svg>
